<?xml version="1.0" encoding="utf-8" standalone="no"?>
<!DOCTYPE svg PUBLIC "-//W3C//DTD SVG 1.1//EN"
  "http://www.w3.org/Graphics/SVG/1.1/DTD/svg11.dtd">
<svg xmlns:xlink="http://www.w3.org/1999/xlink" width="745.164pt" height="495.614968pt" viewBox="0 0 745.164 495.614968" xmlns="http://www.w3.org/2000/svg" version="1.1">
 <metadata>
  <rdf:RDF xmlns:dc="http://purl.org/dc/elements/1.1/" xmlns:cc="http://creativecommons.org/ns#" xmlns:rdf="http://www.w3.org/1999/02/22-rdf-syntax-ns#">
   <cc:Work>
    <dc:type rdf:resource="http://purl.org/dc/dcmitype/StillImage"/>
    <dc:date>2026-07-13T16:59:01.664677</dc:date>
    <dc:format>image/svg+xml</dc:format>
    <dc:creator>
     <cc:Agent>
      <dc:title>Matplotlib v3.10.8, https://matplotlib.org/</dc:title>
     </cc:Agent>
    </dc:creator>
   </cc:Work>
  </rdf:RDF>
 </metadata>
 <defs>
  <style type="text/css">*{stroke-linejoin: round; stroke-linecap: butt}</style>
 </defs>
 <g id="figure_1">
  <g id="patch_1">
   <path d="M 0 495.614968 
L 745.164 495.614968 
L 745.164 0 
L 0 0 
L 0 495.614968 
z
" style="fill: none"/>
  </g>
  <g id="axes_1">
   <g id="patch_2">
    <path d="M 120.350555 446.185845 
Q 120.350555 462.262868 120.350555 475.675814 
" clip-path="url(#p642d8a13ec)" style="fill: none; stroke: #111111; stroke-width: 2.382822; stroke-linejoin: miter; stroke-linecap: round"/>
    <path d="M 124.057058 468.262808 
L 120.350555 475.675814 
L 116.644052 468.262808 
z
" clip-path="url(#p642d8a13ec)" style="fill: #111111; stroke: #111111; stroke-width: 2.382822; stroke-linejoin: miter; stroke-linecap: round"/>
   </g>
   <g id="patch_3">
    <path d="M 120.350555 346.677695 
Q 120.350555 374.738737 120.350555 399.207085 
" clip-path="url(#p642d8a13ec)" style="fill: none; stroke: #111111; stroke-width: 3.213402; stroke-linejoin: miter; stroke-linecap: round"/>
    <path d="M 124.322843 391.262508 
L 120.350555 399.207085 
L 116.378266 391.262508 
z
" clip-path="url(#p642d8a13ec)" style="fill: #111111; stroke: #111111; stroke-width: 3.213402; stroke-linejoin: miter; stroke-linecap: round"/>
   </g>
   <g id="patch_4">
    <path d="M 120.350555 200.094919 
Q 120.350555 239.709255 120.350555 275.136175 
" clip-path="url(#p642d8a13ec)" style="fill: none; stroke: #111111; stroke-width: 3.745338; stroke-linejoin: miter; stroke-linecap: round"/>
    <path d="M 124.493063 266.851159 
L 120.350555 275.136175 
L 116.208047 266.851159 
z
" clip-path="url(#p642d8a13ec)" style="fill: #111111; stroke: #111111; stroke-width: 3.745338; stroke-linejoin: miter; stroke-linecap: round"/>
   </g>
   <g id="patch_5">
    <path d="M 586.153672 221.175838 
Q 586.153672 257.703809 586.153672 291.661255 
" clip-path="url(#p642d8a13ec)" style="fill: none; stroke: #111111; stroke-width: 2.299148; stroke-linejoin: miter; stroke-linecap: round"/>
    <path d="M 589.8334 284.301801 
L 586.153672 291.661255 
L 582.473945 284.301801 
z
" clip-path="url(#p642d8a13ec)" style="fill: #111111; stroke: #111111; stroke-width: 2.299148; stroke-linejoin: miter; stroke-linecap: round"/>
   </g>
   <g id="line2d_1">
    <path d="M 165.610777 478.33989 
L 550.322663 478.33989 
" clip-path="url(#p642d8a13ec)" style="fill: none; stroke-dasharray: 5.6,4.2; stroke-dashoffset: 0; stroke: #404040; stroke-width: 1.4"/>
   </g>
   <g id="line2d_2">
    <path d="M 165.610777 402.799778 
L 550.322663 402.799778 
" clip-path="url(#p642d8a13ec)" style="fill: none; stroke-dasharray: 5.6,4.2; stroke-dashoffset: 0; stroke: #404040; stroke-width: 1.4"/>
   </g>
   <g id="line2d_3">
    <path d="M 574.838617 294.231781 
L 503.176599 294.231781 
" clip-path="url(#p642d8a13ec)" style="fill: none; stroke-dasharray: 5.6,4.2; stroke-dashoffset: 0; stroke: #404040; stroke-width: 1.4"/>
   </g>
   <g id="patch_6">
    <path d="M 665.359061 294.231781 
Q 592.260108 383.961167 519.86284 472.829233 
" clip-path="url(#p642d8a13ec)" style="fill: none; stroke: #404040; stroke-width: 0.993674; stroke-linejoin: miter; stroke-linecap: round"/>
    <path d="M 525.702228 470.196742 
L 519.86284 472.829233 
L 521.26048 466.578228 
z
" clip-path="url(#p642d8a13ec)" style="fill: #404040; stroke: #404040; stroke-width: 0.993674; stroke-linejoin: miter; stroke-linecap: round"/>
   </g>
   <g id="patch_7">
    <path d="M 620.098839 294.231781 
Q 577.76929 346.191547 537.103585 396.108934 
" clip-path="url(#p642d8a13ec)" style="fill: none; stroke: #404040; stroke-width: 2.356215; stroke-linejoin: miter; stroke-linecap: round"/>
    <path d="M 543.868818 393.059058 
L 537.103585 396.108934 
L 538.722824 388.866822 
z
" clip-path="url(#p642d8a13ec)" style="fill: #404040; stroke: #404040; stroke-width: 2.356215; stroke-linejoin: miter; stroke-linecap: round"/>
   </g>
   <g id="patch_8">
    <path d="M 415.484919 283.40228 
Q 477.124733 288.566684 533.193895 293.264359 
" clip-path="url(#p642d8a13ec)" style="fill: none; stroke: #404040; stroke-width: 5; stroke-linejoin: miter; stroke-linecap: round"/>
    <path d="M 525.173885 288.377699 
L 533.193895 293.264359 
L 524.47256 296.74837 
z
" clip-path="url(#p642d8a13ec)" style="fill: #404040; stroke: #404040; stroke-width: 5; stroke-linejoin: miter; stroke-linecap: round"/>
   </g>
   <g id="patch_9">
    <path d="M 370.224697 283.40228 
Q 334.294084 340.559532 298.965729 396.758732 
" clip-path="url(#p642d8a13ec)" style="fill: none; stroke: #404040; stroke-width: 1.012158; stroke-linejoin: miter; stroke-linecap: round"/>
    <path d="M 304.451748 393.425756 
L 298.965729 396.758732 
L 299.590959 390.37013 
z
" clip-path="url(#p642d8a13ec)" style="fill: #404040; stroke: #404040; stroke-width: 1.012158; stroke-linejoin: miter; stroke-linecap: round"/>
   </g>
   <g id="line2d_4">
    <path d="M 120.350555 402.799778 
L 120.350555 434.953823 
" clip-path="url(#p642d8a13ec)" style="fill: none; stroke: #111111; stroke-width: 2.382822"/>
   </g>
   <g id="line2d_5">
    <path d="M 120.350555 279.323591 
L 120.350555 335.445673 
" clip-path="url(#p642d8a13ec)" style="fill: none; stroke: #111111; stroke-width: 3.213402"/>
   </g>
   <g id="line2d_6">
    <path d="M 120.350555 109.634224 
L 120.350555 188.862896 
" clip-path="url(#p642d8a13ec)" style="fill: none; stroke: #111111; stroke-width: 3.745338"/>
   </g>
   <g id="line2d_7">
    <path d="M 586.153672 136.887872 
L 586.153672 209.943815 
" clip-path="url(#p642d8a13ec)" style="fill: none; stroke: #111111; stroke-width: 2.299148"/>
   </g>
   <g id="line2d_8">
    <path d="M 75.090333 478.33989 
L 165.610777 478.33989 
" clip-path="url(#p642d8a13ec)" style="fill: none; stroke: #111111; stroke-width: 3.6; stroke-linecap: round"/>
   </g>
   <g id="line2d_9">
    <path d="M 75.090333 402.799778 
L 165.610777 402.799778 
" clip-path="url(#p642d8a13ec)" style="fill: none; stroke: #111111; stroke-width: 3.6; stroke-linecap: round"/>
   </g>
   <g id="line2d_10">
    <path d="M 75.090333 279.323591 
L 165.610777 279.323591 
" clip-path="url(#p642d8a13ec)" style="fill: none; stroke: #111111; stroke-width: 3.6; stroke-linecap: round"/>
   </g>
   <g id="line2d_11">
    <path d="M 75.090333 109.634224 
L 165.610777 109.634224 
" clip-path="url(#p642d8a13ec)" style="fill: none; stroke: #111111; stroke-width: 3.6; stroke-linecap: round"/>
   </g>
   <g id="line2d_12">
    <path d="M 324.964475 283.40228 
L 415.484919 283.40228 
" clip-path="url(#p642d8a13ec)" style="fill: none; stroke: #111111; stroke-width: 3.6; stroke-linecap: round"/>
   </g>
   <g id="line2d_13">
    <path d="M 574.838617 294.231781 
L 665.359061 294.231781 
" clip-path="url(#p642d8a13ec)" style="fill: none; stroke: #111111; stroke-width: 3.6; stroke-linecap: round"/>
   </g>
   <g id="line2d_14">
    <path d="M 574.838617 136.887872 
L 665.359061 136.887872 
" clip-path="url(#p642d8a13ec)" style="fill: none; stroke: #111111; stroke-width: 3.6; stroke-linecap: round"/>
   </g>
   <g id="text_1">
    <!-- $^{92}\mathrm{Se}$ -->
    <g transform="translate(335.692 33.034687) scale(0.34 -0.34)">
     <defs>
      <path id="DejaVuSans-39" d="M 703 97 
L 703 672 
Q 941 559 1184 500 
Q 1428 441 1663 441 
Q 2288 441 2617 861 
Q 2947 1281 2994 2138 
Q 2813 1869 2534 1725 
Q 2256 1581 1919 1581 
Q 1219 1581 811 2004 
Q 403 2428 403 3163 
Q 403 3881 828 4315 
Q 1253 4750 1959 4750 
Q 2769 4750 3195 4129 
Q 3622 3509 3622 2328 
Q 3622 1225 3098 567 
Q 2575 -91 1691 -91 
Q 1453 -91 1209 -44 
Q 966 3 703 97 
z
M 1959 2075 
Q 2384 2075 2632 2365 
Q 2881 2656 2881 3163 
Q 2881 3666 2632 3958 
Q 2384 4250 1959 4250 
Q 1534 4250 1286 3958 
Q 1038 3666 1038 3163 
Q 1038 2656 1286 2365 
Q 1534 2075 1959 2075 
z
" transform="scale(0.015625)"/>
      <path id="DejaVuSans-32" d="M 1228 531 
L 3431 531 
L 3431 0 
L 469 0 
L 469 531 
Q 828 903 1448 1529 
Q 2069 2156 2228 2338 
Q 2531 2678 2651 2914 
Q 2772 3150 2772 3378 
Q 2772 3750 2511 3984 
Q 2250 4219 1831 4219 
Q 1534 4219 1204 4116 
Q 875 4013 500 3803 
L 500 4441 
Q 881 4594 1212 4672 
Q 1544 4750 1819 4750 
Q 2544 4750 2975 4387 
Q 3406 4025 3406 3419 
Q 3406 3131 3298 2873 
Q 3191 2616 2906 2266 
Q 2828 2175 2409 1742 
Q 1991 1309 1228 531 
z
" transform="scale(0.015625)"/>
      <path id="DejaVuSans-53" d="M 3425 4513 
L 3425 3897 
Q 3066 4069 2747 4153 
Q 2428 4238 2131 4238 
Q 1616 4238 1336 4038 
Q 1056 3838 1056 3469 
Q 1056 3159 1242 3001 
Q 1428 2844 1947 2747 
L 2328 2669 
Q 3034 2534 3370 2195 
Q 3706 1856 3706 1288 
Q 3706 609 3251 259 
Q 2797 -91 1919 -91 
Q 1588 -91 1214 -16 
Q 841 59 441 206 
L 441 856 
Q 825 641 1194 531 
Q 1563 422 1919 422 
Q 2459 422 2753 634 
Q 3047 847 3047 1241 
Q 3047 1584 2836 1778 
Q 2625 1972 2144 2069 
L 1759 2144 
Q 1053 2284 737 2584 
Q 422 2884 422 3419 
Q 422 4038 858 4394 
Q 1294 4750 2059 4750 
Q 2388 4750 2728 4690 
Q 3069 4631 3425 4513 
z
" transform="scale(0.015625)"/>
      <path id="DejaVuSans-65" d="M 3597 1894 
L 3597 1613 
L 953 1613 
Q 991 1019 1311 708 
Q 1631 397 2203 397 
Q 2534 397 2845 478 
Q 3156 559 3463 722 
L 3463 178 
Q 3153 47 2828 -22 
Q 2503 -91 2169 -91 
Q 1331 -91 842 396 
Q 353 884 353 1716 
Q 353 2575 817 3079 
Q 1281 3584 2069 3584 
Q 2775 3584 3186 3129 
Q 3597 2675 3597 1894 
z
M 3022 2063 
Q 3016 2534 2758 2815 
Q 2500 3097 2075 3097 
Q 1594 3097 1305 2825 
Q 1016 2553 972 2059 
L 3022 2063 
z
" transform="scale(0.015625)"/>
     </defs>
     <use xlink:href="#DejaVuSans-39" transform="translate(0.957031 39.046875) scale(0.7)"/>
     <use xlink:href="#DejaVuSans-32" transform="translate(44.268164 39.046875) scale(0.7)"/>
     <use xlink:href="#DejaVuSans-53" transform="translate(91.538672 0.765625)"/>
     <use xlink:href="#DejaVuSans-65" transform="translate(155.015234 0.765625)"/>
    </g>
   </g>
   <g id="text_2">
    <!-- 0 -->
    <g transform="translate(46.98525 482.75489) scale(0.16 -0.16)">
     <defs>
      <path id="DejaVuSans-BoldOblique-30" d="M 1913 728 
Q 2153 728 2339 872 
Q 2525 1016 2650 1294 
Q 2738 1491 2809 1742 
Q 2881 1994 2944 2338 
Q 2997 2616 3025 2850 
Q 3053 3084 3053 3250 
Q 3053 3600 2928 3764 
Q 2803 3928 2541 3928 
Q 2297 3928 2112 3789 
Q 1928 3650 1806 3366 
Q 1713 3163 1636 2903 
Q 1559 2644 1503 2338 
Q 1450 2056 1422 1815 
Q 1394 1575 1394 1409 
Q 1394 1063 1522 895 
Q 1650 728 1913 728 
z
M 4225 3072 
Q 4225 2450 4053 1862 
Q 3881 1275 3572 831 
Q 3256 375 2809 142 
Q 2363 -91 1813 -91 
Q 1047 -91 639 343 
Q 231 778 231 1594 
Q 231 2206 401 2795 
Q 572 3384 878 3822 
Q 1200 4281 1644 4515 
Q 2088 4750 2644 4750 
Q 3403 4750 3814 4314 
Q 4225 3878 4225 3072 
z
" transform="scale(0.015625)"/>
     </defs>
     <use xlink:href="#DejaVuSans-BoldOblique-30"/>
    </g>
   </g>
   <g id="text_3">
    <!-- 0⁺ -->
    <g transform="translate(182.58336 483.495125) scale(0.23 -0.23)">
     <defs>
      <path id="TimesNewRomanPS-BoldMT-30" d="M 2966 2119 
Q 2966 1484 2788 934 
Q 2681 597 2501 381 
Q 2322 166 2094 39 
Q 1866 -88 1597 -88 
Q 1291 -88 1044 68 
Q 797 225 606 516 
Q 469 728 366 1081 
Q 231 1559 231 2069 
Q 231 2759 425 3338 
Q 584 3816 909 4070 
Q 1234 4325 1597 4325 
Q 1966 4325 2286 4073 
Q 2606 3822 2756 3397 
Q 2966 2813 2966 2119 
z
M 2003 2125 
Q 2003 3238 1991 3422 
Q 1959 3856 1841 4009 
Q 1763 4109 1588 4109 
Q 1453 4109 1375 4034 
Q 1259 3925 1218 3648 
Q 1178 3372 1178 1719 
Q 1178 819 1241 513 
Q 1288 291 1375 216 
Q 1463 141 1606 141 
Q 1763 141 1841 241 
Q 1972 416 1991 781 
L 2003 2125 
z
" transform="scale(0.015625)"/>
      <path id="DejaVuSerif-Bold-207a" d="M 1916 4344 
L 1916 3441 
L 2950 3441 
L 2950 3044 
L 1916 3044 
L 1916 2141 
L 1463 2141 
L 1463 3044 
L 428 3044 
L 428 3441 
L 1463 3441 
L 1463 4344 
L 1916 4344 
z
" transform="scale(0.015625)"/>
     </defs>
     <use xlink:href="#TimesNewRomanPS-BoldMT-30"/>
     <use xlink:href="#DejaVuSerif-Bold-207a" transform="translate(50 0)"/>
    </g>
   </g>
   <g id="text_4">
    <!-- 619 -->
    <g transform="translate(24.72025 407.214778) scale(0.16 -0.16)">
     <defs>
      <path id="DejaVuSans-BoldOblique-36" d="M 2316 2303 
Q 1959 2303 1731 2009 
Q 1503 1716 1503 1253 
Q 1503 975 1643 820 
Q 1784 666 2034 666 
Q 2388 666 2617 955 
Q 2847 1244 2847 1684 
Q 2847 1984 2709 2143 
Q 2572 2303 2316 2303 
z
M 4225 4544 
L 4056 3681 
Q 3788 3819 3534 3887 
Q 3281 3956 3028 3956 
Q 2447 3956 2087 3643 
Q 1728 3331 1650 2766 
Q 1894 2925 2151 3001 
Q 2409 3078 2700 3078 
Q 3275 3078 3640 2737 
Q 4006 2397 4006 1869 
Q 4006 1006 3442 454 
Q 2878 -97 1991 -97 
Q 1194 -97 756 354 
Q 319 806 319 1631 
Q 319 2269 512 2848 
Q 706 3428 1056 3847 
Q 1431 4294 1942 4519 
Q 2453 4744 3091 4744 
Q 3384 4744 3662 4694 
Q 3941 4644 4225 4544 
z
" transform="scale(0.015625)"/>
      <path id="DejaVuSans-BoldOblique-31" d="M 441 831 
L 1503 831 
L 2088 3847 
L 953 3622 
L 1113 4441 
L 2241 4666 
L 3384 4666 
L 2644 831 
L 3700 831 
L 3541 0 
L 275 0 
L 441 831 
z
" transform="scale(0.015625)"/>
      <path id="DejaVuSans-BoldOblique-39" d="M 263 103 
L 428 966 
Q 700 825 953 758 
Q 1206 691 1459 691 
Q 2041 691 2400 1003 
Q 2759 1316 2834 1881 
Q 2594 1722 2337 1645 
Q 2081 1569 1791 1569 
Q 1219 1569 853 1909 
Q 488 2250 488 2778 
Q 488 3641 1052 4192 
Q 1616 4744 2503 4744 
Q 3300 4744 3736 4292 
Q 4172 3841 4172 3016 
Q 4172 2381 3978 1801 
Q 3784 1222 3431 800 
Q 3056 353 2548 128 
Q 2041 -97 1403 -97 
Q 1106 -97 825 -47 
Q 544 3 263 103 
z
M 2169 2344 
Q 2525 2344 2753 2637 
Q 2981 2931 2981 3391 
Q 2981 3675 2845 3828 
Q 2709 3981 2456 3981 
Q 2103 3981 1870 3690 
Q 1638 3400 1638 2963 
Q 1638 2663 1775 2503 
Q 1913 2344 2169 2344 
z
" transform="scale(0.015625)"/>
     </defs>
     <use xlink:href="#DejaVuSans-BoldOblique-36"/>
     <use xlink:href="#DejaVuSans-BoldOblique-31" transform="translate(69.580078 0)"/>
     <use xlink:href="#DejaVuSans-BoldOblique-39" transform="translate(139.160156 0)"/>
    </g>
   </g>
   <g id="text_5">
    <!-- 2⁺ -->
    <g transform="translate(182.58336 407.955012) scale(0.23 -0.23)">
     <defs>
      <path id="TimesNewRomanPS-BoldMT-32" d="M 2650 0 
L 156 0 
L 156 69 
Q 1303 1434 1548 1906 
Q 1794 2378 1794 2828 
Q 1794 3156 1591 3373 
Q 1388 3591 1094 3591 
Q 613 3591 347 3109 
L 231 3150 
Q 400 3750 744 4037 
Q 1088 4325 1538 4325 
Q 1859 4325 2125 4175 
Q 2391 4025 2541 3764 
Q 2691 3503 2691 3275 
Q 2691 2859 2459 2431 
Q 2144 1853 1081 819 
L 1997 819 
Q 2334 819 2436 847 
Q 2538 875 2603 942 
Q 2669 1009 2775 1225 
L 2888 1225 
L 2650 0 
z
" transform="scale(0.015625)"/>
     </defs>
     <use xlink:href="#TimesNewRomanPS-BoldMT-32"/>
     <use xlink:href="#DejaVuSerif-Bold-207a" transform="translate(50 0)"/>
    </g>
   </g>
   <g id="text_6">
    <!-- 1630 -->
    <g transform="translate(13.58775 283.738591) scale(0.16 -0.16)">
     <defs>
      <path id="DejaVuSans-BoldOblique-33" d="M 3022 2516 
Q 3375 2434 3572 2187 
Q 3769 1941 3769 1581 
Q 3769 806 3155 357 
Q 2541 -91 1466 -91 
Q 1059 -91 692 -33 
Q 325 25 0 141 
L 178 1069 
Q 456 906 784 817 
Q 1113 728 1441 728 
Q 1969 728 2276 926 
Q 2584 1125 2584 1459 
Q 2584 1738 2350 1877 
Q 2116 2016 1644 2016 
L 1166 2016 
L 1319 2791 
L 1825 2791 
Q 2316 2791 2602 2969 
Q 2888 3147 2888 3450 
Q 2888 3688 2689 3813 
Q 2491 3938 2113 3938 
Q 1847 3938 1534 3869 
Q 1222 3800 884 3669 
L 1056 4550 
Q 1425 4650 1783 4700 
Q 2141 4750 2491 4750 
Q 3281 4750 3679 4487 
Q 4078 4225 4078 3706 
Q 4078 3241 3801 2930 
Q 3525 2619 3022 2516 
z
" transform="scale(0.015625)"/>
     </defs>
     <use xlink:href="#DejaVuSans-BoldOblique-31"/>
     <use xlink:href="#DejaVuSans-BoldOblique-36" transform="translate(69.580078 0)"/>
     <use xlink:href="#DejaVuSans-BoldOblique-33" transform="translate(139.160156 0)"/>
     <use xlink:href="#DejaVuSans-BoldOblique-30" transform="translate(208.740234 0)"/>
    </g>
   </g>
   <g id="text_7">
    <!-- 4⁺ -->
    <g transform="translate(182.58336 284.478825) scale(0.23 -0.23)">
     <defs>
      <path id="TimesNewRomanPS-BoldMT-34" d="M 159 1597 
L 2172 4325 
L 2553 4325 
L 2553 1597 
L 2941 1597 
L 2941 950 
L 2553 950 
L 2553 0 
L 1694 0 
L 1694 950 
L 159 950 
L 159 1597 
z
M 463 1597 
L 1694 1597 
L 1694 3269 
L 463 1597 
z
" transform="scale(0.015625)"/>
     </defs>
     <use xlink:href="#TimesNewRomanPS-BoldMT-34"/>
     <use xlink:href="#DejaVuSerif-Bold-207a" transform="translate(50 0)"/>
    </g>
   </g>
   <g id="text_8">
    <!-- 3020 -->
    <g transform="translate(13.58775 114.049224) scale(0.16 -0.16)">
     <defs>
      <path id="DejaVuSans-BoldOblique-32" d="M 1581 884 
L 3609 884 
L 3438 0 
L 50 0 
L 225 891 
L 2209 2388 
Q 2534 2638 2704 2894 
Q 2875 3150 2875 3391 
Q 2875 3647 2700 3787 
Q 2525 3928 2209 3928 
Q 1913 3928 1547 3811 
Q 1181 3694 722 3450 
L 922 4441 
Q 1347 4597 1756 4673 
Q 2166 4750 2566 4750 
Q 3278 4750 3687 4442 
Q 4097 4134 4097 3603 
Q 4097 3147 3847 2772 
Q 3597 2397 2747 1759 
L 1581 884 
z
" transform="scale(0.015625)"/>
     </defs>
     <use xlink:href="#DejaVuSans-BoldOblique-33"/>
     <use xlink:href="#DejaVuSans-BoldOblique-30" transform="translate(69.580078 0)"/>
     <use xlink:href="#DejaVuSans-BoldOblique-32" transform="translate(139.160156 0)"/>
     <use xlink:href="#DejaVuSans-BoldOblique-30" transform="translate(208.740234 0)"/>
    </g>
   </g>
   <g id="text_9">
    <!-- 6⁺ -->
    <g transform="translate(182.58336 114.789459) scale(0.23 -0.23)">
     <defs>
      <path id="TimesNewRomanPS-BoldMT-36" d="M 3006 4325 
L 3006 4238 
Q 2441 4094 2098 3867 
Q 1756 3641 1557 3317 
Q 1359 2994 1250 2516 
Q 1388 2609 1478 2638 
Q 1681 2700 1888 2700 
Q 2363 2700 2680 2354 
Q 2997 2009 2997 1413 
Q 2997 994 2825 644 
Q 2653 294 2337 103 
Q 2022 -88 1663 -88 
Q 1272 -88 940 126 
Q 609 341 423 753 
Q 238 1166 238 1650 
Q 238 2363 580 2977 
Q 922 3591 1551 3955 
Q 2181 4319 3006 4325 
z
M 1209 2263 
Q 1184 1831 1184 1631 
Q 1184 1200 1267 797 
Q 1350 394 1494 231 
Q 1597 116 1738 116 
Q 1881 116 1993 283 
Q 2106 450 2106 963 
Q 2106 1825 1897 2153 
Q 1763 2366 1534 2366 
Q 1409 2366 1209 2263 
z
" transform="scale(0.015625)"/>
     </defs>
     <use xlink:href="#TimesNewRomanPS-BoldMT-36"/>
     <use xlink:href="#DejaVuSerif-Bold-207a" transform="translate(50 0)"/>
    </g>
   </g>
   <g id="text_10">
    <!-- 1597 -->
    <g transform="translate(263.461892 287.81728) scale(0.16 -0.16)">
     <defs>
      <path id="DejaVuSans-BoldOblique-35" d="M 1131 4666 
L 4122 4666 
L 3950 3781 
L 1919 3781 
L 1778 3059 
Q 1916 3097 2064 3117 
Q 2213 3138 2363 3138 
Q 3078 3138 3481 2811 
Q 3884 2484 3884 1906 
Q 3884 988 3262 448 
Q 2641 -91 1575 -91 
Q 1184 -91 815 -14 
Q 447 63 84 219 
L 269 1166 
Q 616 941 942 834 
Q 1269 728 1606 728 
Q 2100 728 2397 986 
Q 2694 1244 2694 1663 
Q 2694 1963 2469 2139 
Q 2244 2316 1856 2316 
Q 1594 2316 1289 2248 
Q 984 2181 622 2041 
L 1131 4666 
z
" transform="scale(0.015625)"/>
      <path id="DejaVuSans-BoldOblique-37" d="M 922 4666 
L 4441 4666 
L 4300 3981 
L 1703 0 
L 500 0 
L 2969 3781 
L 756 3781 
L 922 4666 
z
" transform="scale(0.015625)"/>
     </defs>
     <use xlink:href="#DejaVuSans-BoldOblique-31"/>
     <use xlink:href="#DejaVuSans-BoldOblique-35" transform="translate(69.580078 0)"/>
     <use xlink:href="#DejaVuSans-BoldOblique-39" transform="translate(139.160156 0)"/>
     <use xlink:href="#DejaVuSans-BoldOblique-37" transform="translate(208.740234 0)"/>
    </g>
   </g>
   <g id="text_11">
    <!-- 0⁺ -->
    <g transform="translate(432.457502 288.557514) scale(0.23 -0.23)">
     <use xlink:href="#TimesNewRomanPS-BoldMT-30"/>
     <use xlink:href="#DejaVuSerif-Bold-207a" transform="translate(50 0)"/>
    </g>
   </g>
   <g id="text_12">
    <!-- 1508 -->
    <g transform="translate(513.336034 298.646781) scale(0.16 -0.16)">
     <defs>
      <path id="DejaVuSans-BoldOblique-38" d="M 2150 2088 
Q 1784 2088 1539 1839 
Q 1294 1591 1294 1228 
Q 1294 969 1453 817 
Q 1613 666 1888 666 
Q 2259 666 2503 911 
Q 2747 1156 2747 1522 
Q 2747 1781 2586 1934 
Q 2425 2088 2150 2088 
z
M 1381 2484 
Q 1044 2625 876 2850 
Q 709 3075 709 3391 
Q 709 4025 1229 4387 
Q 1750 4750 2669 4750 
Q 3406 4750 3812 4475 
Q 4219 4200 4219 3700 
Q 4219 3256 3936 2940 
Q 3653 2625 3128 2484 
Q 3509 2338 3690 2091 
Q 3872 1844 3872 1466 
Q 3872 747 3311 328 
Q 2750 -91 1772 -91 
Q 1000 -91 570 217 
Q 141 525 141 1075 
Q 141 1572 470 1945 
Q 800 2319 1381 2484 
z
M 2559 3994 
Q 2241 3994 2048 3808 
Q 1856 3622 1856 3316 
Q 1856 3103 1995 2972 
Q 2134 2841 2363 2841 
Q 2681 2841 2873 3027 
Q 3066 3213 3066 3519 
Q 3066 3734 2927 3864 
Q 2788 3994 2559 3994 
z
" transform="scale(0.015625)"/>
     </defs>
     <use xlink:href="#DejaVuSans-BoldOblique-31"/>
     <use xlink:href="#DejaVuSans-BoldOblique-35" transform="translate(69.580078 0)"/>
     <use xlink:href="#DejaVuSans-BoldOblique-30" transform="translate(139.160156 0)"/>
     <use xlink:href="#DejaVuSans-BoldOblique-38" transform="translate(208.740234 0)"/>
    </g>
   </g>
   <g id="text_13">
    <!-- 2⁺ -->
    <g transform="translate(682.331644 299.387015) scale(0.23 -0.23)">
     <use xlink:href="#TimesNewRomanPS-BoldMT-32"/>
     <use xlink:href="#DejaVuSerif-Bold-207a" transform="translate(50 0)"/>
    </g>
   </g>
   <g id="text_14">
    <!-- 2797 -->
    <g transform="translate(513.336034 141.302872) scale(0.16 -0.16)">
     <use xlink:href="#DejaVuSans-BoldOblique-32"/>
     <use xlink:href="#DejaVuSans-BoldOblique-37" transform="translate(69.580078 0)"/>
     <use xlink:href="#DejaVuSans-BoldOblique-39" transform="translate(139.160156 0)"/>
     <use xlink:href="#DejaVuSans-BoldOblique-37" transform="translate(208.740234 0)"/>
    </g>
   </g>
   <g id="text_15">
    <!-- 3⁺ -->
    <g transform="translate(682.331644 142.043107) scale(0.23 -0.23)">
     <defs>
      <path id="TimesNewRomanPS-BoldMT-33" d="M 947 2125 
L 947 2234 
Q 1303 2338 1440 2427 
Q 1578 2516 1678 2698 
Q 1778 2881 1778 3069 
Q 1778 3328 1589 3514 
Q 1400 3700 1119 3700 
Q 681 3700 375 3238 
L 259 3278 
Q 484 3800 836 4062 
Q 1188 4325 1619 4325 
Q 2059 4325 2345 4056 
Q 2631 3788 2631 3428 
Q 2631 3194 2498 2976 
Q 2366 2759 2081 2594 
Q 2447 2416 2639 2155 
Q 2831 1894 2831 1500 
Q 2831 838 2351 373 
Q 1872 -91 1066 -91 
Q 528 -91 281 88 
Q 103 213 103 409 
Q 103 553 206 654 
Q 309 756 444 756 
Q 547 756 638 713 
Q 688 688 992 439 
Q 1297 191 1563 191 
Q 1794 191 1959 373 
Q 2125 556 2125 838 
Q 2125 1266 1825 1627 
Q 1525 1988 947 2125 
z
" transform="scale(0.015625)"/>
     </defs>
     <use xlink:href="#TimesNewRomanPS-BoldMT-33"/>
     <use xlink:href="#DejaVuSerif-Bold-207a" transform="translate(50 0)"/>
    </g>
   </g>
   <g id="text_16">
    <path d="M 112.975555 444.156084 
L 106.740555 444.156084 
L 106.740555 443.983584 
Q 109.608055 440.571084 110.220555 439.391084 
Q 110.835555 438.211084 110.835555 437.086084 
Q 110.835555 436.266084 110.328055 435.723584 
Q 109.820555 435.178584 109.085555 435.178584 
Q 107.883055 435.178584 107.218055 436.383584 
L 106.928055 436.281084 
Q 107.350555 434.781084 108.210555 434.063584 
Q 109.070555 433.343584 110.195555 433.343584 
Q 110.998055 433.343584 111.663055 433.718584 
Q 112.328055 434.093584 112.703055 434.746084 
Q 113.078055 435.398584 113.078055 435.968584 
Q 113.078055 437.008584 112.498055 438.078584 
Q 111.710555 439.523584 109.053055 442.108584 
L 111.343055 442.108584 
Q 112.185555 442.108584 112.440555 442.038584 
Q 112.695555 441.968584 112.858055 441.801084 
Q 113.023055 441.633584 113.288055 441.093584 
L 113.570555 441.093584 
L 112.975555 444.156084 
z
M 119.560555 433.343584 
L 119.560555 442.008584 
Q 119.560555 442.983584 119.645555 443.253584 
Q 119.733055 443.523584 120.005555 443.696084 
Q 120.280555 443.866084 120.883055 443.866084 
L 121.123055 443.866084 
L 121.123055 444.156084 
L 115.545555 444.156084 
L 115.545555 443.866084 
L 115.828055 443.866084 
Q 116.508055 443.866084 116.795555 443.711084 
Q 117.085555 443.553584 117.185555 443.281084 
Q 117.288055 443.008584 117.288055 442.008584 
L 117.288055 436.516084 
Q 117.288055 435.781084 117.218055 435.598584 
Q 117.148055 435.413584 116.955555 435.286084 
Q 116.765555 435.156084 116.515555 435.156084 
Q 116.115555 435.156084 115.545555 435.406084 
L 115.405555 435.123584 
L 119.303055 433.343584 
L 119.560555 433.343584 
z
M 124.350555 441.748584 
Q 124.898055 441.748584 125.275555 442.133584 
Q 125.655555 442.516084 125.655555 443.053584 
Q 125.655555 443.593584 125.273055 443.973584 
Q 124.890555 444.351084 124.350555 444.351084 
Q 123.810555 444.351084 123.430555 443.973584 
Q 123.053055 443.593584 123.053055 443.053584 
Q 123.053055 442.516084 123.430555 442.133584 
Q 123.810555 441.748584 124.350555 441.748584 
z
M 131.560555 433.343584 
L 131.560555 442.008584 
Q 131.560555 442.983584 131.645555 443.253584 
Q 131.733055 443.523584 132.005555 443.696084 
Q 132.280555 443.866084 132.883055 443.866084 
L 133.123055 443.866084 
L 133.123055 444.156084 
L 127.545555 444.156084 
L 127.545555 443.866084 
L 127.828055 443.866084 
Q 128.508055 443.866084 128.795555 443.711084 
Q 129.085555 443.553584 129.185555 443.281084 
Q 129.288055 443.008584 129.288055 442.008584 
L 129.288055 436.516084 
Q 129.288055 435.781084 129.218055 435.598584 
Q 129.148055 435.413584 128.955555 435.286084 
Q 128.765555 435.156084 128.515555 435.156084 
Q 128.115555 435.156084 127.545555 435.406084 
L 127.405555 435.123584 
L 131.303055 433.343584 
L 131.560555 433.343584 
z
" style="stroke: #ffffff; stroke-width: 3.8"/>
    <path d="M 112.975555 444.156084 
L 106.740555 444.156084 
L 106.740555 443.983584 
Q 109.608055 440.571084 110.220555 439.391084 
Q 110.835555 438.211084 110.835555 437.086084 
Q 110.835555 436.266084 110.328055 435.723584 
Q 109.820555 435.178584 109.085555 435.178584 
Q 107.883055 435.178584 107.218055 436.383584 
L 106.928055 436.281084 
Q 107.350555 434.781084 108.210555 434.063584 
Q 109.070555 433.343584 110.195555 433.343584 
Q 110.998055 433.343584 111.663055 433.718584 
Q 112.328055 434.093584 112.703055 434.746084 
Q 113.078055 435.398584 113.078055 435.968584 
Q 113.078055 437.008584 112.498055 438.078584 
Q 111.710555 439.523584 109.053055 442.108584 
L 111.343055 442.108584 
Q 112.185555 442.108584 112.440555 442.038584 
Q 112.695555 441.968584 112.858055 441.801084 
Q 113.023055 441.633584 113.288055 441.093584 
L 113.570555 441.093584 
L 112.975555 444.156084 
z
M 119.560555 433.343584 
L 119.560555 442.008584 
Q 119.560555 442.983584 119.645555 443.253584 
Q 119.733055 443.523584 120.005555 443.696084 
Q 120.280555 443.866084 120.883055 443.866084 
L 121.123055 443.866084 
L 121.123055 444.156084 
L 115.545555 444.156084 
L 115.545555 443.866084 
L 115.828055 443.866084 
Q 116.508055 443.866084 116.795555 443.711084 
Q 117.085555 443.553584 117.185555 443.281084 
Q 117.288055 443.008584 117.288055 442.008584 
L 117.288055 436.516084 
Q 117.288055 435.781084 117.218055 435.598584 
Q 117.148055 435.413584 116.955555 435.286084 
Q 116.765555 435.156084 116.515555 435.156084 
Q 116.115555 435.156084 115.545555 435.406084 
L 115.405555 435.123584 
L 119.303055 433.343584 
L 119.560555 433.343584 
z
M 124.350555 441.748584 
Q 124.898055 441.748584 125.275555 442.133584 
Q 125.655555 442.516084 125.655555 443.053584 
Q 125.655555 443.593584 125.273055 443.973584 
Q 124.890555 444.351084 124.350555 444.351084 
Q 123.810555 444.351084 123.430555 443.973584 
Q 123.053055 443.593584 123.053055 443.053584 
Q 123.053055 442.516084 123.430555 442.133584 
Q 123.810555 441.748584 124.350555 441.748584 
z
M 131.560555 433.343584 
L 131.560555 442.008584 
Q 131.560555 442.983584 131.645555 443.253584 
Q 131.733055 443.523584 132.005555 443.696084 
Q 132.280555 443.866084 132.883055 443.866084 
L 133.123055 443.866084 
L 133.123055 444.156084 
L 127.545555 444.156084 
L 127.545555 443.866084 
L 127.828055 443.866084 
Q 128.508055 443.866084 128.795555 443.711084 
Q 129.085555 443.553584 129.185555 443.281084 
Q 129.288055 443.008584 129.288055 442.008584 
L 129.288055 436.516084 
Q 129.288055 435.781084 129.218055 435.598584 
Q 129.148055 435.413584 128.955555 435.286084 
Q 128.765555 435.156084 128.515555 435.156084 
Q 128.115555 435.156084 127.545555 435.406084 
L 127.405555 435.123584 
L 131.303055 433.343584 
L 131.560555 433.343584 
z
"/>
   </g>
   <g id="text_17">
    <path d="M 108.718055 339.335434 
L 108.718055 339.062934 
Q 109.608055 338.802934 109.950555 338.580434 
Q 110.295555 338.357934 110.545555 337.902934 
Q 110.795555 337.445434 110.795555 336.975434 
Q 110.795555 336.327934 110.323055 335.862934 
Q 109.850555 335.397934 109.148055 335.397934 
Q 108.053055 335.397934 107.288055 336.552934 
L 106.998055 336.452934 
Q 107.560555 335.147934 108.440555 334.492934 
Q 109.320555 333.835434 110.398055 333.835434 
Q 111.498055 333.835434 112.213055 334.507934 
Q 112.928055 335.177934 112.928055 336.077934 
Q 112.928055 336.662934 112.595555 337.207934 
Q 112.265555 337.750434 111.553055 338.162934 
Q 112.468055 338.607934 112.948055 339.260434 
Q 113.428055 339.912934 113.428055 340.897934 
Q 113.428055 342.552934 112.228055 343.715434 
Q 111.030555 344.875434 109.015555 344.875434 
Q 107.670555 344.875434 107.053055 344.427934 
Q 106.608055 344.115434 106.608055 343.625434 
Q 106.608055 343.265434 106.865555 343.012934 
Q 107.123055 342.757934 107.460555 342.757934 
Q 107.718055 342.757934 107.945555 342.865434 
Q 108.070555 342.927934 108.830555 343.550434 
Q 109.593055 344.170434 110.258055 344.170434 
Q 110.835555 344.170434 111.248055 343.715434 
Q 111.663055 343.257934 111.663055 342.552934 
Q 111.663055 341.482934 110.913055 340.580434 
Q 110.163055 339.677934 108.718055 339.335434 
z
M 120.975555 344.647934 
L 114.740555 344.647934 
L 114.740555 344.475434 
Q 117.608055 341.062934 118.220555 339.882934 
Q 118.835555 338.702934 118.835555 337.577934 
Q 118.835555 336.757934 118.328055 336.215434 
Q 117.820555 335.670434 117.085555 335.670434 
Q 115.883055 335.670434 115.218055 336.875434 
L 114.928055 336.772934 
Q 115.350555 335.272934 116.210555 334.555434 
Q 117.070555 333.835434 118.195555 333.835434 
Q 118.998055 333.835434 119.663055 334.210434 
Q 120.328055 334.585434 120.703055 335.237934 
Q 121.078055 335.890434 121.078055 336.460434 
Q 121.078055 337.500434 120.498055 338.570434 
Q 119.710555 340.015434 117.053055 342.600434 
L 119.343055 342.600434 
Q 120.185555 342.600434 120.440555 342.530434 
Q 120.695555 342.460434 120.858055 342.292934 
Q 121.023055 342.125434 121.288055 341.585434 
L 121.570555 341.585434 
L 120.975555 344.647934 
z
M 124.350555 342.240434 
Q 124.898055 342.240434 125.275555 342.625434 
Q 125.655555 343.007934 125.655555 343.545434 
Q 125.655555 344.085434 125.273055 344.465434 
Q 124.890555 344.842934 124.350555 344.842934 
Q 123.810555 344.842934 123.430555 344.465434 
Q 123.053055 344.085434 123.053055 343.545434 
Q 123.053055 343.007934 123.430555 342.625434 
Q 123.810555 342.240434 124.350555 342.240434 
z
M 132.975555 344.647934 
L 126.740555 344.647934 
L 126.740555 344.475434 
Q 129.608055 341.062934 130.220555 339.882934 
Q 130.835555 338.702934 130.835555 337.577934 
Q 130.835555 336.757934 130.328055 336.215434 
Q 129.820555 335.670434 129.085555 335.670434 
Q 127.883055 335.670434 127.218055 336.875434 
L 126.928055 336.772934 
Q 127.350555 335.272934 128.210555 334.555434 
Q 129.070555 333.835434 130.195555 333.835434 
Q 130.998055 333.835434 131.663055 334.210434 
Q 132.328055 334.585434 132.703055 335.237934 
Q 133.078055 335.890434 133.078055 336.460434 
Q 133.078055 337.500434 132.498055 338.570434 
Q 131.710555 340.015434 129.053055 342.600434 
L 131.343055 342.600434 
Q 132.185555 342.600434 132.440555 342.530434 
Q 132.695555 342.460434 132.858055 342.292934 
Q 133.023055 342.125434 133.288055 341.585434 
L 133.570555 341.585434 
L 132.975555 344.647934 
z
" style="stroke: #ffffff; stroke-width: 3.8"/>
    <path d="M 108.718055 339.335434 
L 108.718055 339.062934 
Q 109.608055 338.802934 109.950555 338.580434 
Q 110.295555 338.357934 110.545555 337.902934 
Q 110.795555 337.445434 110.795555 336.975434 
Q 110.795555 336.327934 110.323055 335.862934 
Q 109.850555 335.397934 109.148055 335.397934 
Q 108.053055 335.397934 107.288055 336.552934 
L 106.998055 336.452934 
Q 107.560555 335.147934 108.440555 334.492934 
Q 109.320555 333.835434 110.398055 333.835434 
Q 111.498055 333.835434 112.213055 334.507934 
Q 112.928055 335.177934 112.928055 336.077934 
Q 112.928055 336.662934 112.595555 337.207934 
Q 112.265555 337.750434 111.553055 338.162934 
Q 112.468055 338.607934 112.948055 339.260434 
Q 113.428055 339.912934 113.428055 340.897934 
Q 113.428055 342.552934 112.228055 343.715434 
Q 111.030555 344.875434 109.015555 344.875434 
Q 107.670555 344.875434 107.053055 344.427934 
Q 106.608055 344.115434 106.608055 343.625434 
Q 106.608055 343.265434 106.865555 343.012934 
Q 107.123055 342.757934 107.460555 342.757934 
Q 107.718055 342.757934 107.945555 342.865434 
Q 108.070555 342.927934 108.830555 343.550434 
Q 109.593055 344.170434 110.258055 344.170434 
Q 110.835555 344.170434 111.248055 343.715434 
Q 111.663055 343.257934 111.663055 342.552934 
Q 111.663055 341.482934 110.913055 340.580434 
Q 110.163055 339.677934 108.718055 339.335434 
z
M 120.975555 344.647934 
L 114.740555 344.647934 
L 114.740555 344.475434 
Q 117.608055 341.062934 118.220555 339.882934 
Q 118.835555 338.702934 118.835555 337.577934 
Q 118.835555 336.757934 118.328055 336.215434 
Q 117.820555 335.670434 117.085555 335.670434 
Q 115.883055 335.670434 115.218055 336.875434 
L 114.928055 336.772934 
Q 115.350555 335.272934 116.210555 334.555434 
Q 117.070555 333.835434 118.195555 333.835434 
Q 118.998055 333.835434 119.663055 334.210434 
Q 120.328055 334.585434 120.703055 335.237934 
Q 121.078055 335.890434 121.078055 336.460434 
Q 121.078055 337.500434 120.498055 338.570434 
Q 119.710555 340.015434 117.053055 342.600434 
L 119.343055 342.600434 
Q 120.185555 342.600434 120.440555 342.530434 
Q 120.695555 342.460434 120.858055 342.292934 
Q 121.023055 342.125434 121.288055 341.585434 
L 121.570555 341.585434 
L 120.975555 344.647934 
z
M 124.350555 342.240434 
Q 124.898055 342.240434 125.275555 342.625434 
Q 125.655555 343.007934 125.655555 343.545434 
Q 125.655555 344.085434 125.273055 344.465434 
Q 124.890555 344.842934 124.350555 344.842934 
Q 123.810555 344.842934 123.430555 344.465434 
Q 123.053055 344.085434 123.053055 343.545434 
Q 123.053055 343.007934 123.430555 342.625434 
Q 123.810555 342.240434 124.350555 342.240434 
z
M 132.975555 344.647934 
L 126.740555 344.647934 
L 126.740555 344.475434 
Q 129.608055 341.062934 130.220555 339.882934 
Q 130.835555 338.702934 130.835555 337.577934 
Q 130.835555 336.757934 130.328055 336.215434 
Q 129.820555 335.670434 129.085555 335.670434 
Q 127.883055 335.670434 127.218055 336.875434 
L 126.928055 336.772934 
Q 127.350555 335.272934 128.210555 334.555434 
Q 129.070555 333.835434 130.195555 333.835434 
Q 130.998055 333.835434 131.663055 334.210434 
Q 132.328055 334.585434 132.703055 335.237934 
Q 133.078055 335.890434 133.078055 336.460434 
Q 133.078055 337.500434 132.498055 338.570434 
Q 131.710555 340.015434 129.053055 342.600434 
L 131.343055 342.600434 
Q 132.185555 342.600434 132.440555 342.530434 
Q 132.695555 342.460434 132.858055 342.292934 
Q 133.023055 342.125434 133.288055 341.585434 
L 133.570555 341.585434 
L 132.975555 344.647934 
z
"/>
   </g>
   <g id="text_18">
    <path d="M 108.718055 192.752658 
L 108.718055 192.480158 
Q 109.608055 192.220158 109.950555 191.997658 
Q 110.295555 191.775158 110.545555 191.320158 
Q 110.795555 190.862658 110.795555 190.392658 
Q 110.795555 189.745158 110.323055 189.280158 
Q 109.850555 188.815158 109.148055 188.815158 
Q 108.053055 188.815158 107.288055 189.970158 
L 106.998055 189.870158 
Q 107.560555 188.565158 108.440555 187.910158 
Q 109.320555 187.252658 110.398055 187.252658 
Q 111.498055 187.252658 112.213055 187.925158 
Q 112.928055 188.595158 112.928055 189.495158 
Q 112.928055 190.080158 112.595555 190.625158 
Q 112.265555 191.167658 111.553055 191.580158 
Q 112.468055 192.025158 112.948055 192.677658 
Q 113.428055 193.330158 113.428055 194.315158 
Q 113.428055 195.970158 112.228055 197.132658 
Q 111.030555 198.292658 109.015555 198.292658 
Q 107.670555 198.292658 107.053055 197.845158 
Q 106.608055 197.532658 106.608055 197.042658 
Q 106.608055 196.682658 106.865555 196.430158 
Q 107.123055 196.175158 107.460555 196.175158 
Q 107.718055 196.175158 107.945555 196.282658 
Q 108.070555 196.345158 108.830555 196.967658 
Q 109.593055 197.587658 110.258055 197.587658 
Q 110.835555 197.587658 111.248055 197.132658 
Q 111.663055 196.675158 111.663055 195.970158 
Q 111.663055 194.900158 110.913055 193.997658 
Q 110.163055 193.095158 108.718055 192.752658 
z
M 114.843055 198.285158 
L 114.843055 198.065158 
Q 116.140555 197.767658 117.043055 197.190158 
Q 117.945555 196.612658 118.470555 195.760158 
Q 118.998055 194.907658 119.210555 193.800158 
Q 118.725555 194.050158 118.385555 194.147658 
Q 118.045555 194.245158 117.670555 194.245158 
Q 116.468055 194.245158 115.665555 193.377658 
Q 114.865555 192.510158 114.865555 191.002658 
Q 114.865555 189.955158 115.298055 189.085158 
Q 115.733055 188.212658 116.538055 187.732658 
Q 117.343055 187.252658 118.210555 187.252658 
Q 119.140555 187.252658 119.968055 187.785158 
Q 120.795555 188.315158 121.288055 189.322658 
Q 121.780555 190.330158 121.780555 191.620158 
Q 121.780555 193.292658 120.978055 194.825158 
Q 120.178055 196.355158 118.593055 197.280158 
Q 117.008055 198.205158 114.843055 198.285158 
z
M 119.328055 193.142658 
Q 119.405555 192.267658 119.405555 191.605158 
Q 119.405555 190.182658 119.078055 188.955158 
Q 118.890555 188.275158 118.523055 187.955158 
Q 118.328055 187.782658 118.015555 187.782658 
Q 117.623055 187.782658 117.405555 188.120158 
Q 117.100555 188.580158 117.100555 189.877658 
Q 117.100555 192.042658 117.615555 192.862658 
Q 117.953055 193.392658 118.523055 193.392658 
Q 118.828055 193.392658 119.328055 193.142658 
z
M 124.350555 195.657658 
Q 124.898055 195.657658 125.275555 196.042658 
Q 125.655555 196.425158 125.655555 196.962658 
Q 125.655555 197.502658 125.273055 197.882658 
Q 124.890555 198.260158 124.350555 198.260158 
Q 123.810555 198.260158 123.430555 197.882658 
Q 123.053055 197.502658 123.053055 196.962658 
Q 123.053055 196.425158 123.430555 196.042658 
Q 123.810555 195.657658 124.350555 195.657658 
z
M 128.718055 192.752658 
L 128.718055 192.480158 
Q 129.608055 192.220158 129.950555 191.997658 
Q 130.295555 191.775158 130.545555 191.320158 
Q 130.795555 190.862658 130.795555 190.392658 
Q 130.795555 189.745158 130.323055 189.280158 
Q 129.850555 188.815158 129.148055 188.815158 
Q 128.053055 188.815158 127.288055 189.970158 
L 126.998055 189.870158 
Q 127.560555 188.565158 128.440555 187.910158 
Q 129.320555 187.252658 130.398055 187.252658 
Q 131.498055 187.252658 132.213055 187.925158 
Q 132.928055 188.595158 132.928055 189.495158 
Q 132.928055 190.080158 132.595555 190.625158 
Q 132.265555 191.167658 131.553055 191.580158 
Q 132.468055 192.025158 132.948055 192.677658 
Q 133.428055 193.330158 133.428055 194.315158 
Q 133.428055 195.970158 132.228055 197.132658 
Q 131.030555 198.292658 129.015555 198.292658 
Q 127.670555 198.292658 127.053055 197.845158 
Q 126.608055 197.532658 126.608055 197.042658 
Q 126.608055 196.682658 126.865555 196.430158 
Q 127.123055 196.175158 127.460555 196.175158 
Q 127.718055 196.175158 127.945555 196.282658 
Q 128.070555 196.345158 128.830555 196.967658 
Q 129.593055 197.587658 130.258055 197.587658 
Q 130.835555 197.587658 131.248055 197.132658 
Q 131.663055 196.675158 131.663055 195.970158 
Q 131.663055 194.900158 130.913055 193.997658 
Q 130.163055 193.095158 128.718055 192.752658 
z
" style="stroke: #ffffff; stroke-width: 3.8"/>
    <path d="M 108.718055 192.752658 
L 108.718055 192.480158 
Q 109.608055 192.220158 109.950555 191.997658 
Q 110.295555 191.775158 110.545555 191.320158 
Q 110.795555 190.862658 110.795555 190.392658 
Q 110.795555 189.745158 110.323055 189.280158 
Q 109.850555 188.815158 109.148055 188.815158 
Q 108.053055 188.815158 107.288055 189.970158 
L 106.998055 189.870158 
Q 107.560555 188.565158 108.440555 187.910158 
Q 109.320555 187.252658 110.398055 187.252658 
Q 111.498055 187.252658 112.213055 187.925158 
Q 112.928055 188.595158 112.928055 189.495158 
Q 112.928055 190.080158 112.595555 190.625158 
Q 112.265555 191.167658 111.553055 191.580158 
Q 112.468055 192.025158 112.948055 192.677658 
Q 113.428055 193.330158 113.428055 194.315158 
Q 113.428055 195.970158 112.228055 197.132658 
Q 111.030555 198.292658 109.015555 198.292658 
Q 107.670555 198.292658 107.053055 197.845158 
Q 106.608055 197.532658 106.608055 197.042658 
Q 106.608055 196.682658 106.865555 196.430158 
Q 107.123055 196.175158 107.460555 196.175158 
Q 107.718055 196.175158 107.945555 196.282658 
Q 108.070555 196.345158 108.830555 196.967658 
Q 109.593055 197.587658 110.258055 197.587658 
Q 110.835555 197.587658 111.248055 197.132658 
Q 111.663055 196.675158 111.663055 195.970158 
Q 111.663055 194.900158 110.913055 193.997658 
Q 110.163055 193.095158 108.718055 192.752658 
z
M 114.843055 198.285158 
L 114.843055 198.065158 
Q 116.140555 197.767658 117.043055 197.190158 
Q 117.945555 196.612658 118.470555 195.760158 
Q 118.998055 194.907658 119.210555 193.800158 
Q 118.725555 194.050158 118.385555 194.147658 
Q 118.045555 194.245158 117.670555 194.245158 
Q 116.468055 194.245158 115.665555 193.377658 
Q 114.865555 192.510158 114.865555 191.002658 
Q 114.865555 189.955158 115.298055 189.085158 
Q 115.733055 188.212658 116.538055 187.732658 
Q 117.343055 187.252658 118.210555 187.252658 
Q 119.140555 187.252658 119.968055 187.785158 
Q 120.795555 188.315158 121.288055 189.322658 
Q 121.780555 190.330158 121.780555 191.620158 
Q 121.780555 193.292658 120.978055 194.825158 
Q 120.178055 196.355158 118.593055 197.280158 
Q 117.008055 198.205158 114.843055 198.285158 
z
M 119.328055 193.142658 
Q 119.405555 192.267658 119.405555 191.605158 
Q 119.405555 190.182658 119.078055 188.955158 
Q 118.890555 188.275158 118.523055 187.955158 
Q 118.328055 187.782658 118.015555 187.782658 
Q 117.623055 187.782658 117.405555 188.120158 
Q 117.100555 188.580158 117.100555 189.877658 
Q 117.100555 192.042658 117.615555 192.862658 
Q 117.953055 193.392658 118.523055 193.392658 
Q 118.828055 193.392658 119.328055 193.142658 
z
M 124.350555 195.657658 
Q 124.898055 195.657658 125.275555 196.042658 
Q 125.655555 196.425158 125.655555 196.962658 
Q 125.655555 197.502658 125.273055 197.882658 
Q 124.890555 198.260158 124.350555 198.260158 
Q 123.810555 198.260158 123.430555 197.882658 
Q 123.053055 197.502658 123.053055 196.962658 
Q 123.053055 196.425158 123.430555 196.042658 
Q 123.810555 195.657658 124.350555 195.657658 
z
M 128.718055 192.752658 
L 128.718055 192.480158 
Q 129.608055 192.220158 129.950555 191.997658 
Q 130.295555 191.775158 130.545555 191.320158 
Q 130.795555 190.862658 130.795555 190.392658 
Q 130.795555 189.745158 130.323055 189.280158 
Q 129.850555 188.815158 129.148055 188.815158 
Q 128.053055 188.815158 127.288055 189.970158 
L 126.998055 189.870158 
Q 127.560555 188.565158 128.440555 187.910158 
Q 129.320555 187.252658 130.398055 187.252658 
Q 131.498055 187.252658 132.213055 187.925158 
Q 132.928055 188.595158 132.928055 189.495158 
Q 132.928055 190.080158 132.595555 190.625158 
Q 132.265555 191.167658 131.553055 191.580158 
Q 132.468055 192.025158 132.948055 192.677658 
Q 133.428055 193.330158 133.428055 194.315158 
Q 133.428055 195.970158 132.228055 197.132658 
Q 131.030555 198.292658 129.015555 198.292658 
Q 127.670555 198.292658 127.053055 197.845158 
Q 126.608055 197.532658 126.608055 197.042658 
Q 126.608055 196.682658 126.865555 196.430158 
Q 127.123055 196.175158 127.460555 196.175158 
Q 127.718055 196.175158 127.945555 196.282658 
Q 128.070555 196.345158 128.830555 196.967658 
Q 129.593055 197.587658 130.258055 197.587658 
Q 130.835555 197.587658 131.248055 197.132658 
Q 131.663055 196.675158 131.663055 195.970158 
Q 131.663055 194.900158 130.913055 193.997658 
Q 130.163055 193.095158 128.718055 192.752658 
z
"/>
   </g>
   <g id="text_19">
    <path d="M 578.778672 219.146077 
L 572.543672 219.146077 
L 572.543672 218.973577 
Q 575.411172 215.561077 576.023672 214.381077 
Q 576.638672 213.201077 576.638672 212.076077 
Q 576.638672 211.256077 576.131172 210.713577 
Q 575.623672 210.168577 574.888672 210.168577 
Q 573.686172 210.168577 573.021172 211.373577 
L 572.731172 211.271077 
Q 573.153672 209.771077 574.013672 209.053577 
Q 574.873672 208.333577 575.998672 208.333577 
Q 576.801172 208.333577 577.466172 208.708577 
Q 578.131172 209.083577 578.506172 209.736077 
Q 578.881172 210.388577 578.881172 210.958577 
Q 578.881172 211.998577 578.301172 213.068577 
Q 577.513672 214.513577 574.856172 217.098577 
L 577.146172 217.098577 
Q 577.988672 217.098577 578.243672 217.028577 
Q 578.498672 216.958577 578.661172 216.791077 
Q 578.826172 216.623577 579.091172 216.083577 
L 579.373672 216.083577 
L 578.778672 219.146077 
z
M 587.568672 213.848577 
Q 587.568672 215.436077 587.123672 216.811077 
Q 586.856172 217.653577 586.406172 218.193577 
Q 585.958672 218.731077 585.388672 219.048577 
Q 584.818672 219.366077 584.146172 219.366077 
Q 583.381172 219.366077 582.763672 218.976077 
Q 582.146172 218.583577 581.668672 217.856077 
Q 581.326172 217.326077 581.068672 216.443577 
Q 580.731172 215.248577 580.731172 213.973577 
Q 580.731172 212.248577 581.216172 210.801077 
Q 581.613672 209.606077 582.426172 208.971077 
Q 583.238672 208.333577 584.146172 208.333577 
Q 585.068672 208.333577 585.868672 208.963577 
Q 586.668672 209.591077 587.043672 210.653577 
Q 587.568672 212.113577 587.568672 213.848577 
z
M 585.161172 213.833577 
Q 585.161172 211.051077 585.131172 210.591077 
Q 585.051172 209.506077 584.756172 209.123577 
Q 584.561172 208.873577 584.123672 208.873577 
Q 583.786172 208.873577 583.591172 209.061077 
Q 583.301172 209.333577 583.198672 210.026077 
Q 583.098672 210.716077 583.098672 214.848577 
Q 583.098672 217.098577 583.256172 217.863577 
Q 583.373672 218.418577 583.591172 218.606077 
Q 583.811172 218.793577 584.168672 218.793577 
Q 584.561172 218.793577 584.756172 218.543577 
Q 585.083672 218.106077 585.131172 217.193577 
L 585.161172 213.833577 
z
M 590.153672 216.738577 
Q 590.701172 216.738577 591.078672 217.123577 
Q 591.458672 217.506077 591.458672 218.043577 
Q 591.458672 218.583577 591.076172 218.963577 
Q 590.693672 219.341077 590.153672 219.341077 
Q 589.613672 219.341077 589.233672 218.963577 
Q 588.856172 218.583577 588.856172 218.043577 
Q 588.856172 217.506077 589.233672 217.123577 
Q 589.613672 216.738577 590.153672 216.738577 
z
M 599.568672 213.848577 
Q 599.568672 215.436077 599.123672 216.811077 
Q 598.856172 217.653577 598.406172 218.193577 
Q 597.958672 218.731077 597.388672 219.048577 
Q 596.818672 219.366077 596.146172 219.366077 
Q 595.381172 219.366077 594.763672 218.976077 
Q 594.146172 218.583577 593.668672 217.856077 
Q 593.326172 217.326077 593.068672 216.443577 
Q 592.731172 215.248577 592.731172 213.973577 
Q 592.731172 212.248577 593.216172 210.801077 
Q 593.613672 209.606077 594.426172 208.971077 
Q 595.238672 208.333577 596.146172 208.333577 
Q 597.068672 208.333577 597.868672 208.963577 
Q 598.668672 209.591077 599.043672 210.653577 
Q 599.568672 212.113577 599.568672 213.848577 
z
M 597.161172 213.833577 
Q 597.161172 211.051077 597.131172 210.591077 
Q 597.051172 209.506077 596.756172 209.123577 
Q 596.561172 208.873577 596.123672 208.873577 
Q 595.786172 208.873577 595.591172 209.061077 
Q 595.301172 209.333577 595.198672 210.026077 
Q 595.098672 210.716077 595.098672 214.848577 
Q 595.098672 217.098577 595.256172 217.863577 
Q 595.373672 218.418577 595.591172 218.606077 
Q 595.811172 218.793577 596.168672 218.793577 
Q 596.561172 218.793577 596.756172 218.543577 
Q 597.083672 218.106077 597.131172 217.193577 
L 597.161172 213.833577 
z
" style="stroke: #ffffff; stroke-width: 3.8"/>
    <path d="M 578.778672 219.146077 
L 572.543672 219.146077 
L 572.543672 218.973577 
Q 575.411172 215.561077 576.023672 214.381077 
Q 576.638672 213.201077 576.638672 212.076077 
Q 576.638672 211.256077 576.131172 210.713577 
Q 575.623672 210.168577 574.888672 210.168577 
Q 573.686172 210.168577 573.021172 211.373577 
L 572.731172 211.271077 
Q 573.153672 209.771077 574.013672 209.053577 
Q 574.873672 208.333577 575.998672 208.333577 
Q 576.801172 208.333577 577.466172 208.708577 
Q 578.131172 209.083577 578.506172 209.736077 
Q 578.881172 210.388577 578.881172 210.958577 
Q 578.881172 211.998577 578.301172 213.068577 
Q 577.513672 214.513577 574.856172 217.098577 
L 577.146172 217.098577 
Q 577.988672 217.098577 578.243672 217.028577 
Q 578.498672 216.958577 578.661172 216.791077 
Q 578.826172 216.623577 579.091172 216.083577 
L 579.373672 216.083577 
L 578.778672 219.146077 
z
M 587.568672 213.848577 
Q 587.568672 215.436077 587.123672 216.811077 
Q 586.856172 217.653577 586.406172 218.193577 
Q 585.958672 218.731077 585.388672 219.048577 
Q 584.818672 219.366077 584.146172 219.366077 
Q 583.381172 219.366077 582.763672 218.976077 
Q 582.146172 218.583577 581.668672 217.856077 
Q 581.326172 217.326077 581.068672 216.443577 
Q 580.731172 215.248577 580.731172 213.973577 
Q 580.731172 212.248577 581.216172 210.801077 
Q 581.613672 209.606077 582.426172 208.971077 
Q 583.238672 208.333577 584.146172 208.333577 
Q 585.068672 208.333577 585.868672 208.963577 
Q 586.668672 209.591077 587.043672 210.653577 
Q 587.568672 212.113577 587.568672 213.848577 
z
M 585.161172 213.833577 
Q 585.161172 211.051077 585.131172 210.591077 
Q 585.051172 209.506077 584.756172 209.123577 
Q 584.561172 208.873577 584.123672 208.873577 
Q 583.786172 208.873577 583.591172 209.061077 
Q 583.301172 209.333577 583.198672 210.026077 
Q 583.098672 210.716077 583.098672 214.848577 
Q 583.098672 217.098577 583.256172 217.863577 
Q 583.373672 218.418577 583.591172 218.606077 
Q 583.811172 218.793577 584.168672 218.793577 
Q 584.561172 218.793577 584.756172 218.543577 
Q 585.083672 218.106077 585.131172 217.193577 
L 585.161172 213.833577 
z
M 590.153672 216.738577 
Q 590.701172 216.738577 591.078672 217.123577 
Q 591.458672 217.506077 591.458672 218.043577 
Q 591.458672 218.583577 591.076172 218.963577 
Q 590.693672 219.341077 590.153672 219.341077 
Q 589.613672 219.341077 589.233672 218.963577 
Q 588.856172 218.583577 588.856172 218.043577 
Q 588.856172 217.506077 589.233672 217.123577 
Q 589.613672 216.738577 590.153672 216.738577 
z
M 599.568672 213.848577 
Q 599.568672 215.436077 599.123672 216.811077 
Q 598.856172 217.653577 598.406172 218.193577 
Q 597.958672 218.731077 597.388672 219.048577 
Q 596.818672 219.366077 596.146172 219.366077 
Q 595.381172 219.366077 594.763672 218.976077 
Q 594.146172 218.583577 593.668672 217.856077 
Q 593.326172 217.326077 593.068672 216.443577 
Q 592.731172 215.248577 592.731172 213.973577 
Q 592.731172 212.248577 593.216172 210.801077 
Q 593.613672 209.606077 594.426172 208.971077 
Q 595.238672 208.333577 596.146172 208.333577 
Q 597.068672 208.333577 597.868672 208.963577 
Q 598.668672 209.591077 599.043672 210.653577 
Q 599.568672 212.113577 599.568672 213.848577 
z
M 597.161172 213.833577 
Q 597.161172 211.051077 597.131172 210.591077 
Q 597.051172 209.506077 596.756172 209.123577 
Q 596.561172 208.873577 596.123672 208.873577 
Q 595.786172 208.873577 595.591172 209.061077 
Q 595.301172 209.333577 595.198672 210.026077 
Q 595.098672 210.716077 595.098672 214.848577 
Q 595.098672 217.098577 595.256172 217.863577 
Q 595.373672 218.418577 595.591172 218.606077 
Q 595.811172 218.793577 596.168672 218.793577 
Q 596.561172 218.793577 596.756172 218.543577 
Q 597.083672 218.106077 597.131172 217.193577 
L 597.161172 213.833577 
z
"/>
   </g>
   <g id="text_20">
    <path d="M 583.210825 393.21358 
L 583.210825 392.958112 
Q 584.0452 392.714362 584.366294 392.505768 
Q 584.689731 392.297174 584.924106 391.870612 
Q 585.158481 391.441705 585.158481 391.00108 
Q 585.158481 390.394049 584.715512 389.958112 
Q 584.272544 389.522174 583.61395 389.522174 
Q 582.587387 389.522174 581.8702 390.604987 
L 581.598325 390.511237 
Q 582.125669 389.287799 582.950669 388.673737 
Q 583.775669 388.05733 584.785825 388.05733 
Q 585.817075 388.05733 586.487387 388.687799 
Q 587.1577 389.315924 587.1577 390.159674 
Q 587.1577 390.708112 586.845981 391.219049 
Q 586.536606 391.727643 585.868637 392.114362 
Q 586.72645 392.531549 587.17645 393.143268 
Q 587.62645 393.754987 587.62645 394.678424 
Q 587.62645 396.229987 586.50145 397.31983 
Q 585.378794 398.40733 583.489731 398.40733 
Q 582.228794 398.40733 581.649887 397.987799 
Q 581.2327 397.69483 581.2327 397.235455 
Q 581.2327 396.897955 581.474106 396.661237 
Q 581.715512 396.422174 582.031919 396.422174 
Q 582.273325 396.422174 582.486606 396.522955 
Q 582.603794 396.581549 583.316294 397.165143 
Q 584.031137 397.746393 584.654575 397.746393 
Q 585.195981 397.746393 585.5827 397.31983 
Q 585.971762 396.890924 585.971762 396.229987 
Q 585.971762 395.226862 585.268637 394.380768 
Q 584.565512 393.534674 583.210825 393.21358 
z
M 590.366294 395.937018 
Q 590.879575 395.937018 591.233481 396.297955 
Q 591.589731 396.656549 591.589731 397.160455 
Q 591.589731 397.666705 591.231137 398.022955 
Q 590.872544 398.376862 590.366294 398.376862 
Q 589.860044 398.376862 589.503794 398.022955 
Q 589.149887 397.666705 589.149887 397.160455 
Q 589.149887 396.656549 589.503794 396.297955 
Q 589.860044 395.937018 590.366294 395.937018 
z
M 597.125669 388.05733 
L 597.125669 396.180768 
Q 597.125669 397.09483 597.205356 397.347955 
Q 597.287387 397.60108 597.542856 397.762799 
Q 597.800669 397.922174 598.365512 397.922174 
L 598.590512 397.922174 
L 598.590512 398.194049 
L 593.361606 398.194049 
L 593.361606 397.922174 
L 593.62645 397.922174 
Q 594.26395 397.922174 594.533481 397.776862 
Q 594.805356 397.629205 594.899106 397.373737 
Q 594.9952 397.118268 594.9952 396.180768 
L 594.9952 391.031549 
Q 594.9952 390.342487 594.929575 390.171393 
Q 594.86395 389.997955 594.683481 389.878424 
Q 594.505356 389.756549 594.270981 389.756549 
Q 593.895981 389.756549 593.361606 389.990924 
L 593.230356 389.72608 
L 596.884262 388.05733 
L 597.125669 388.05733 
z
" style="fill: #404040; stroke: #ffffff; stroke-width: 3.8"/>
    <path d="M 583.210825 393.21358 
L 583.210825 392.958112 
Q 584.0452 392.714362 584.366294 392.505768 
Q 584.689731 392.297174 584.924106 391.870612 
Q 585.158481 391.441705 585.158481 391.00108 
Q 585.158481 390.394049 584.715512 389.958112 
Q 584.272544 389.522174 583.61395 389.522174 
Q 582.587387 389.522174 581.8702 390.604987 
L 581.598325 390.511237 
Q 582.125669 389.287799 582.950669 388.673737 
Q 583.775669 388.05733 584.785825 388.05733 
Q 585.817075 388.05733 586.487387 388.687799 
Q 587.1577 389.315924 587.1577 390.159674 
Q 587.1577 390.708112 586.845981 391.219049 
Q 586.536606 391.727643 585.868637 392.114362 
Q 586.72645 392.531549 587.17645 393.143268 
Q 587.62645 393.754987 587.62645 394.678424 
Q 587.62645 396.229987 586.50145 397.31983 
Q 585.378794 398.40733 583.489731 398.40733 
Q 582.228794 398.40733 581.649887 397.987799 
Q 581.2327 397.69483 581.2327 397.235455 
Q 581.2327 396.897955 581.474106 396.661237 
Q 581.715512 396.422174 582.031919 396.422174 
Q 582.273325 396.422174 582.486606 396.522955 
Q 582.603794 396.581549 583.316294 397.165143 
Q 584.031137 397.746393 584.654575 397.746393 
Q 585.195981 397.746393 585.5827 397.31983 
Q 585.971762 396.890924 585.971762 396.229987 
Q 585.971762 395.226862 585.268637 394.380768 
Q 584.565512 393.534674 583.210825 393.21358 
z
M 590.366294 395.937018 
Q 590.879575 395.937018 591.233481 396.297955 
Q 591.589731 396.656549 591.589731 397.160455 
Q 591.589731 397.666705 591.231137 398.022955 
Q 590.872544 398.376862 590.366294 398.376862 
Q 589.860044 398.376862 589.503794 398.022955 
Q 589.149887 397.666705 589.149887 397.160455 
Q 589.149887 396.656549 589.503794 396.297955 
Q 589.860044 395.937018 590.366294 395.937018 
z
M 597.125669 388.05733 
L 597.125669 396.180768 
Q 597.125669 397.09483 597.205356 397.347955 
Q 597.287387 397.60108 597.542856 397.762799 
Q 597.800669 397.922174 598.365512 397.922174 
L 598.590512 397.922174 
L 598.590512 398.194049 
L 593.361606 398.194049 
L 593.361606 397.922174 
L 593.62645 397.922174 
Q 594.26395 397.922174 594.533481 397.776862 
Q 594.805356 397.629205 594.899106 397.373737 
Q 594.9952 397.118268 594.9952 396.180768 
L 594.9952 391.031549 
Q 594.9952 390.342487 594.929575 390.171393 
Q 594.86395 389.997955 594.683481 389.878424 
Q 594.505356 389.756549 594.270981 389.756549 
Q 593.895981 389.756549 593.361606 389.990924 
L 593.230356 389.72608 
L 596.884262 388.05733 
L 597.125669 388.05733 
z
" style="fill: #404040"/>
   </g>
   <g id="text_21">
    <path d="M 568.961768 360.423993 
L 563.116455 360.423993 
L 563.116455 360.262274 
Q 565.804736 357.063055 566.378955 355.956805 
Q 566.955518 354.850555 566.955518 353.795868 
Q 566.955518 353.027118 566.479736 352.518524 
Q 566.003955 352.007587 565.314893 352.007587 
Q 564.187549 352.007587 563.564111 353.137274 
L 563.292236 353.04118 
Q 563.68833 351.63493 564.49458 350.962274 
Q 565.30083 350.287274 566.355518 350.287274 
Q 567.107861 350.287274 567.731299 350.638837 
Q 568.354736 350.990399 568.706299 351.602118 
Q 569.057861 352.213837 569.057861 352.748212 
Q 569.057861 353.723212 568.514111 354.726337 
Q 567.77583 356.081024 565.284424 358.504462 
L 567.431299 358.504462 
Q 568.221143 358.504462 568.460205 358.438837 
Q 568.699268 358.373212 568.851611 358.21618 
Q 569.006299 358.059149 569.254736 357.552899 
L 569.51958 357.552899 
L 568.961768 360.423993 
z
M 570.623486 356.681024 
L 575.341455 350.287274 
L 576.234424 350.287274 
L 576.234424 356.681024 
L 577.143799 356.681024 
L 577.143799 358.19743 
L 576.234424 358.19743 
L 576.234424 360.423993 
L 574.221143 360.423993 
L 574.221143 358.19743 
L 570.623486 358.19743 
L 570.623486 356.681024 
z
M 571.335986 356.681024 
L 574.221143 356.681024 
L 574.221143 352.762274 
L 571.335986 356.681024 
z
M 579.62583 358.166962 
Q 580.139111 358.166962 580.493018 358.527899 
Q 580.849268 358.886493 580.849268 359.390399 
Q 580.849268 359.896649 580.490674 360.252899 
Q 580.13208 360.606805 579.62583 360.606805 
Q 579.11958 360.606805 578.76333 360.252899 
Q 578.409424 359.896649 578.409424 359.390399 
Q 578.409424 358.886493 578.76333 358.527899 
Q 579.11958 358.166962 579.62583 358.166962 
z
M 584.158643 360.630243 
L 586.86333 352.434149 
L 584.803174 352.434149 
Q 583.596143 352.434149 582.986768 352.748212 
Q 582.562549 352.968524 582.283643 353.575555 
L 582.00708 353.575555 
L 582.724268 350.49118 
L 588.642236 350.49118 
L 585.309424 360.630243 
L 584.158643 360.630243 
z
" style="fill: #404040; stroke: #ffffff; stroke-width: 3.8"/>
    <path d="M 568.961768 360.423993 
L 563.116455 360.423993 
L 563.116455 360.262274 
Q 565.804736 357.063055 566.378955 355.956805 
Q 566.955518 354.850555 566.955518 353.795868 
Q 566.955518 353.027118 566.479736 352.518524 
Q 566.003955 352.007587 565.314893 352.007587 
Q 564.187549 352.007587 563.564111 353.137274 
L 563.292236 353.04118 
Q 563.68833 351.63493 564.49458 350.962274 
Q 565.30083 350.287274 566.355518 350.287274 
Q 567.107861 350.287274 567.731299 350.638837 
Q 568.354736 350.990399 568.706299 351.602118 
Q 569.057861 352.213837 569.057861 352.748212 
Q 569.057861 353.723212 568.514111 354.726337 
Q 567.77583 356.081024 565.284424 358.504462 
L 567.431299 358.504462 
Q 568.221143 358.504462 568.460205 358.438837 
Q 568.699268 358.373212 568.851611 358.21618 
Q 569.006299 358.059149 569.254736 357.552899 
L 569.51958 357.552899 
L 568.961768 360.423993 
z
M 570.623486 356.681024 
L 575.341455 350.287274 
L 576.234424 350.287274 
L 576.234424 356.681024 
L 577.143799 356.681024 
L 577.143799 358.19743 
L 576.234424 358.19743 
L 576.234424 360.423993 
L 574.221143 360.423993 
L 574.221143 358.19743 
L 570.623486 358.19743 
L 570.623486 356.681024 
z
M 571.335986 356.681024 
L 574.221143 356.681024 
L 574.221143 352.762274 
L 571.335986 356.681024 
z
M 579.62583 358.166962 
Q 580.139111 358.166962 580.493018 358.527899 
Q 580.849268 358.886493 580.849268 359.390399 
Q 580.849268 359.896649 580.490674 360.252899 
Q 580.13208 360.606805 579.62583 360.606805 
Q 579.11958 360.606805 578.76333 360.252899 
Q 578.409424 359.896649 578.409424 359.390399 
Q 578.409424 358.886493 578.76333 358.527899 
Q 579.11958 358.166962 579.62583 358.166962 
z
M 584.158643 360.630243 
L 586.86333 352.434149 
L 584.803174 352.434149 
Q 583.596143 352.434149 582.986768 352.748212 
Q 582.562549 352.968524 582.283643 353.575555 
L 582.00708 353.575555 
L 582.724268 350.49118 
L 588.642236 350.49118 
L 585.309424 360.630243 
L 584.158643 360.630243 
z
" style="fill: #404040"/>
   </g>
   <g id="text_22">
    <path d="M 474.033056 273.496317 
L 474.033056 273.700223 
Q 472.708838 274.037723 471.904931 274.569755 
Q 471.103369 275.099442 470.636963 275.858817 
Q 470.1729 276.615848 469.917431 277.736161 
Q 470.240869 277.518192 470.451806 277.450223 
Q 470.927588 277.304911 471.412744 277.304911 
Q 472.526025 277.304911 473.268994 278.115848 
Q 474.011963 278.924442 474.011963 280.321317 
Q 474.011963 281.303348 473.608838 282.123661 
Q 473.205713 282.943973 472.465088 283.39163 
Q 471.726806 283.839286 470.8854 283.839286 
Q 469.968994 283.839286 469.190869 283.337723 
Q 468.415088 282.833817 467.97915 281.868192 
Q 467.545556 280.900223 467.545556 279.765848 
Q 467.545556 278.094755 468.347119 276.655692 
Q 469.148681 275.21663 470.6229 274.363505 
Q 472.099463 273.51038 474.033056 273.496317 
z
M 469.821338 278.32913 
Q 469.762744 279.34163 469.762744 279.81038 
Q 469.762744 280.820536 469.957275 281.765067 
Q 470.151806 282.709598 470.489306 283.09163 
Q 470.730713 283.361161 471.061181 283.361161 
Q 471.396338 283.361161 471.658838 282.969755 
Q 471.923681 282.578348 471.923681 281.376005 
Q 471.923681 279.355692 471.433838 278.586942 
Q 471.119775 278.087723 470.583056 278.087723 
Q 470.290088 278.087723 469.821338 278.32913 
z
M 481.533056 273.496317 
L 481.533056 273.700223 
Q 480.208838 274.037723 479.404931 274.569755 
Q 478.603369 275.099442 478.136963 275.858817 
Q 477.6729 276.615848 477.417431 277.736161 
Q 477.740869 277.518192 477.951806 277.450223 
Q 478.427588 277.304911 478.912744 277.304911 
Q 480.026025 277.304911 480.768994 278.115848 
Q 481.511963 278.924442 481.511963 280.321317 
Q 481.511963 281.303348 481.108838 282.123661 
Q 480.705713 282.943973 479.965088 283.39163 
Q 479.226806 283.839286 478.3854 283.839286 
Q 477.468994 283.839286 476.690869 283.337723 
Q 475.915088 282.833817 475.47915 281.868192 
Q 475.045556 280.900223 475.045556 279.765848 
Q 475.045556 278.094755 475.847119 276.655692 
Q 476.648681 275.21663 478.1229 274.363505 
Q 479.599463 273.51038 481.533056 273.496317 
z
M 477.321338 278.32913 
Q 477.262744 279.34163 477.262744 279.81038 
Q 477.262744 280.820536 477.457275 281.765067 
Q 477.651806 282.709598 477.989306 283.09163 
Q 478.230713 283.361161 478.561181 283.361161 
Q 478.896338 283.361161 479.158838 282.969755 
Q 479.423681 282.578348 479.423681 281.376005 
Q 479.423681 279.355692 478.933838 278.586942 
Q 478.619775 278.087723 478.083056 278.087723 
Q 477.790088 278.087723 477.321338 278.32913 
z
M 483.862744 281.376005 
Q 484.376025 281.376005 484.729931 281.736942 
Q 485.086181 282.095536 485.086181 282.599442 
Q 485.086181 283.105692 484.727588 283.461942 
Q 484.368994 283.815848 483.862744 283.815848 
Q 483.356494 283.815848 483.000244 283.461942 
Q 482.646338 283.105692 482.646338 282.599442 
Q 482.646338 282.095536 483.000244 281.736942 
Q 483.356494 281.376005 483.862744 281.376005 
z
M 488.395556 283.839286 
L 491.100244 275.643192 
L 489.040088 275.643192 
Q 487.833056 275.643192 487.223681 275.957255 
Q 486.799463 276.177567 486.520556 276.784598 
L 486.243994 276.784598 
L 486.961181 273.700223 
L 492.87915 273.700223 
L 489.546338 283.839286 
L 488.395556 283.839286 
z
" style="fill: #404040; stroke: #ffffff; stroke-width: 3.8"/>
    <path d="M 474.033056 273.496317 
L 474.033056 273.700223 
Q 472.708838 274.037723 471.904931 274.569755 
Q 471.103369 275.099442 470.636963 275.858817 
Q 470.1729 276.615848 469.917431 277.736161 
Q 470.240869 277.518192 470.451806 277.450223 
Q 470.927588 277.304911 471.412744 277.304911 
Q 472.526025 277.304911 473.268994 278.115848 
Q 474.011963 278.924442 474.011963 280.321317 
Q 474.011963 281.303348 473.608838 282.123661 
Q 473.205713 282.943973 472.465088 283.39163 
Q 471.726806 283.839286 470.8854 283.839286 
Q 469.968994 283.839286 469.190869 283.337723 
Q 468.415088 282.833817 467.97915 281.868192 
Q 467.545556 280.900223 467.545556 279.765848 
Q 467.545556 278.094755 468.347119 276.655692 
Q 469.148681 275.21663 470.6229 274.363505 
Q 472.099463 273.51038 474.033056 273.496317 
z
M 469.821338 278.32913 
Q 469.762744 279.34163 469.762744 279.81038 
Q 469.762744 280.820536 469.957275 281.765067 
Q 470.151806 282.709598 470.489306 283.09163 
Q 470.730713 283.361161 471.061181 283.361161 
Q 471.396338 283.361161 471.658838 282.969755 
Q 471.923681 282.578348 471.923681 281.376005 
Q 471.923681 279.355692 471.433838 278.586942 
Q 471.119775 278.087723 470.583056 278.087723 
Q 470.290088 278.087723 469.821338 278.32913 
z
M 481.533056 273.496317 
L 481.533056 273.700223 
Q 480.208838 274.037723 479.404931 274.569755 
Q 478.603369 275.099442 478.136963 275.858817 
Q 477.6729 276.615848 477.417431 277.736161 
Q 477.740869 277.518192 477.951806 277.450223 
Q 478.427588 277.304911 478.912744 277.304911 
Q 480.026025 277.304911 480.768994 278.115848 
Q 481.511963 278.924442 481.511963 280.321317 
Q 481.511963 281.303348 481.108838 282.123661 
Q 480.705713 282.943973 479.965088 283.39163 
Q 479.226806 283.839286 478.3854 283.839286 
Q 477.468994 283.839286 476.690869 283.337723 
Q 475.915088 282.833817 475.47915 281.868192 
Q 475.045556 280.900223 475.045556 279.765848 
Q 475.045556 278.094755 475.847119 276.655692 
Q 476.648681 275.21663 478.1229 274.363505 
Q 479.599463 273.51038 481.533056 273.496317 
z
M 477.321338 278.32913 
Q 477.262744 279.34163 477.262744 279.81038 
Q 477.262744 280.820536 477.457275 281.765067 
Q 477.651806 282.709598 477.989306 283.09163 
Q 478.230713 283.361161 478.561181 283.361161 
Q 478.896338 283.361161 479.158838 282.969755 
Q 479.423681 282.578348 479.423681 281.376005 
Q 479.423681 279.355692 478.933838 278.586942 
Q 478.619775 278.087723 478.083056 278.087723 
Q 477.790088 278.087723 477.321338 278.32913 
z
M 483.862744 281.376005 
Q 484.376025 281.376005 484.729931 281.736942 
Q 485.086181 282.095536 485.086181 282.599442 
Q 485.086181 283.105692 484.727588 283.461942 
Q 484.368994 283.815848 483.862744 283.815848 
Q 483.356494 283.815848 483.000244 283.461942 
Q 482.646338 283.105692 482.646338 282.599442 
Q 482.646338 282.095536 483.000244 281.736942 
Q 483.356494 281.376005 483.862744 281.376005 
z
M 488.395556 283.839286 
L 491.100244 275.643192 
L 489.040088 275.643192 
Q 487.833056 275.643192 487.223681 275.957255 
Q 486.799463 276.177567 486.520556 276.784598 
L 486.243994 276.784598 
L 486.961181 273.700223 
L 492.87915 273.700223 
L 489.546338 283.839286 
L 488.395556 283.839286 
z
" style="fill: #404040"/>
   </g>
   <g id="text_23">
    <path d="M 325.540961 350.028774 
L 325.540961 349.773305 
Q 326.375336 349.529555 326.696429 349.320961 
Q 327.019867 349.112367 327.254242 348.685805 
Q 327.488617 348.256899 327.488617 347.816274 
Q 327.488617 347.209242 327.045648 346.773305 
Q 326.602679 346.337367 325.944086 346.337367 
Q 324.917523 346.337367 324.200336 347.42018 
L 323.928461 347.32643 
Q 324.455804 346.102992 325.280804 345.48893 
Q 326.105804 344.872524 327.115961 344.872524 
Q 328.147211 344.872524 328.817523 345.502992 
Q 329.487836 346.131117 329.487836 346.974867 
Q 329.487836 347.523305 329.176117 348.034242 
Q 328.866742 348.542836 328.198773 348.929555 
Q 329.056586 349.346742 329.506586 349.958461 
Q 329.956586 350.57018 329.956586 351.493617 
Q 329.956586 353.04518 328.831586 354.135024 
Q 327.708929 355.222524 325.819867 355.222524 
Q 324.558929 355.222524 323.980023 354.802992 
Q 323.562836 354.510024 323.562836 354.050649 
Q 323.562836 353.713149 323.804242 353.47643 
Q 324.045648 353.237367 324.362054 353.237367 
Q 324.603461 353.237367 324.816742 353.338149 
Q 324.933929 353.396742 325.646429 353.980336 
Q 326.361273 354.561586 326.984711 354.561586 
Q 327.526117 354.561586 327.912836 354.135024 
Q 328.301898 353.706117 328.301898 353.04518 
Q 328.301898 352.042055 327.598773 351.195961 
Q 326.895648 350.349867 325.540961 350.028774 
z
M 332.696429 352.752211 
Q 333.209711 352.752211 333.563617 353.113149 
Q 333.919867 353.471742 333.919867 353.975649 
Q 333.919867 354.481899 333.561273 354.838149 
Q 333.202679 355.192055 332.696429 355.192055 
Q 332.190179 355.192055 331.833929 354.838149 
Q 331.480023 354.481899 331.480023 353.975649 
Q 331.480023 353.471742 331.833929 353.113149 
Q 332.190179 352.752211 332.696429 352.752211 
z
M 334.944086 351.266274 
L 339.662054 344.872524 
L 340.555023 344.872524 
L 340.555023 351.266274 
L 341.464398 351.266274 
L 341.464398 352.78268 
L 340.555023 352.78268 
L 340.555023 355.009242 
L 338.541742 355.009242 
L 338.541742 352.78268 
L 334.944086 352.78268 
L 334.944086 351.266274 
z
M 335.656586 351.266274 
L 338.541742 351.266274 
L 338.541742 347.347524 
L 335.656586 351.266274 
z
" style="fill: #404040; stroke: #ffffff; stroke-width: 3.8"/>
    <path d="M 325.540961 350.028774 
L 325.540961 349.773305 
Q 326.375336 349.529555 326.696429 349.320961 
Q 327.019867 349.112367 327.254242 348.685805 
Q 327.488617 348.256899 327.488617 347.816274 
Q 327.488617 347.209242 327.045648 346.773305 
Q 326.602679 346.337367 325.944086 346.337367 
Q 324.917523 346.337367 324.200336 347.42018 
L 323.928461 347.32643 
Q 324.455804 346.102992 325.280804 345.48893 
Q 326.105804 344.872524 327.115961 344.872524 
Q 328.147211 344.872524 328.817523 345.502992 
Q 329.487836 346.131117 329.487836 346.974867 
Q 329.487836 347.523305 329.176117 348.034242 
Q 328.866742 348.542836 328.198773 348.929555 
Q 329.056586 349.346742 329.506586 349.958461 
Q 329.956586 350.57018 329.956586 351.493617 
Q 329.956586 353.04518 328.831586 354.135024 
Q 327.708929 355.222524 325.819867 355.222524 
Q 324.558929 355.222524 323.980023 354.802992 
Q 323.562836 354.510024 323.562836 354.050649 
Q 323.562836 353.713149 323.804242 353.47643 
Q 324.045648 353.237367 324.362054 353.237367 
Q 324.603461 353.237367 324.816742 353.338149 
Q 324.933929 353.396742 325.646429 353.980336 
Q 326.361273 354.561586 326.984711 354.561586 
Q 327.526117 354.561586 327.912836 354.135024 
Q 328.301898 353.706117 328.301898 353.04518 
Q 328.301898 352.042055 327.598773 351.195961 
Q 326.895648 350.349867 325.540961 350.028774 
z
M 332.696429 352.752211 
Q 333.209711 352.752211 333.563617 353.113149 
Q 333.919867 353.471742 333.919867 353.975649 
Q 333.919867 354.481899 333.561273 354.838149 
Q 333.202679 355.192055 332.696429 355.192055 
Q 332.190179 355.192055 331.833929 354.838149 
Q 331.480023 354.481899 331.480023 353.975649 
Q 331.480023 353.471742 331.833929 353.113149 
Q 332.190179 352.752211 332.696429 352.752211 
z
M 334.944086 351.266274 
L 339.662054 344.872524 
L 340.555023 344.872524 
L 340.555023 351.266274 
L 341.464398 351.266274 
L 341.464398 352.78268 
L 340.555023 352.78268 
L 340.555023 355.009242 
L 338.541742 355.009242 
L 338.541742 352.78268 
L 334.944086 352.78268 
L 334.944086 351.266274 
z
M 335.656586 351.266274 
L 338.541742 351.266274 
L 338.541742 347.347524 
L 335.656586 351.266274 
z
" style="fill: #404040"/>
   </g>
  </g>
 </g>
 <defs>
  <clipPath id="p642d8a13ec">
   <rect x="7.2" y="51.034687" width="730.764" height="437.072179"/>
  </clipPath>
 </defs>
</svg>
