<?xml version="1.0" encoding="utf-8" standalone="no"?>
<!DOCTYPE svg PUBLIC "-//W3C//DTD SVG 1.1//EN"
  "http://www.w3.org/Graphics/SVG/1.1/DTD/svg11.dtd">
<svg xmlns:xlink="http://www.w3.org/1999/xlink" width="745.164pt" height="496.324398pt" viewBox="0 0 745.164 496.324398" xmlns="http://www.w3.org/2000/svg" version="1.1">
 <metadata>
  <rdf:RDF xmlns:dc="http://purl.org/dc/elements/1.1/" xmlns:cc="http://creativecommons.org/ns#" xmlns:rdf="http://www.w3.org/1999/02/22-rdf-syntax-ns#">
   <cc:Work>
    <dc:type rdf:resource="http://purl.org/dc/dcmitype/StillImage"/>
    <dc:date>2026-07-13T16:58:47.052986</dc:date>
    <dc:format>image/svg+xml</dc:format>
    <dc:creator>
     <cc:Agent>
      <dc:title>Matplotlib v3.10.8, https://matplotlib.org/</dc:title>
     </cc:Agent>
    </dc:creator>
   </cc:Work>
  </rdf:RDF>
 </metadata>
 <defs>
  <style type="text/css">*{stroke-linejoin: round; stroke-linecap: butt}</style>
 </defs>
 <g id="figure_1">
  <g id="patch_1">
   <path d="M 0 496.324398 
L 745.164 496.324398 
L 745.164 0 
L 0 0 
L 0 496.324398 
z
" style="fill: none"/>
  </g>
  <g id="axes_1">
   <g id="patch_2">
    <path d="M 120.350555 434.29271 
Q 120.350555 456.671015 120.350555 476.815148 
" clip-path="url(#pdf5208f738)" style="fill: none; stroke: #111111; stroke-width: 1.998304; stroke-linejoin: miter; stroke-linecap: round"/>
    <path d="M 123.934012 469.648234 
L 120.350555 476.815148 
L 116.767098 469.648234 
z
" clip-path="url(#pdf5208f738)" style="fill: #111111; stroke: #111111; stroke-width: 1.998304; stroke-linejoin: miter; stroke-linecap: round"/>
   </g>
   <g id="patch_3">
    <path d="M 120.350555 342.622034 
Q 120.350555 363.891436 120.350555 381.473573 
" clip-path="url(#pdf5208f738)" style="fill: none; stroke: #111111; stroke-width: 3.29799; stroke-linejoin: miter; stroke-linecap: round"/>
    <path d="M 124.349912 373.47486 
L 120.350555 381.473573 
L 116.351198 373.47486 
z
" clip-path="url(#pdf5208f738)" style="fill: #111111; stroke: #111111; stroke-width: 3.29799; stroke-linejoin: miter; stroke-linecap: round"/>
   </g>
   <g id="patch_4">
    <path d="M 120.350555 253.306984 
Q 120.350555 274.507476 120.350555 290.387806 
" clip-path="url(#pdf5208f738)" style="fill: none; stroke: #111111; stroke-width: 4.758497; stroke-linejoin: miter; stroke-linecap: round"/>
    <path d="M 124.817274 281.454368 
L 120.350555 290.387806 
L 115.883836 281.454368 
z
" clip-path="url(#pdf5208f738)" style="fill: #111111; stroke: #111111; stroke-width: 4.758497; stroke-linejoin: miter; stroke-linecap: round"/>
   </g>
   <g id="patch_5">
    <path d="M 370.224697 298.79538 
Q 370.224697 323.439298 370.224697 345.59871 
" clip-path="url(#pdf5208f738)" style="fill: none; stroke: #111111; stroke-width: 2.222209; stroke-linejoin: miter; stroke-linecap: round"/>
    <path d="M 373.879804 338.288496 
L 370.224697 345.59871 
L 366.56959 338.288496 
z
" clip-path="url(#pdf5208f738)" style="fill: #111111; stroke: #111111; stroke-width: 2.222209; stroke-linejoin: miter; stroke-linecap: round"/>
   </g>
   <g id="patch_6">
    <path d="M 370.224697 200.907102 
Q 370.224697 223.019694 370.224697 240.699914 
" clip-path="url(#pdf5208f738)" style="fill: none; stroke: #111111; stroke-width: 3.964433; stroke-linejoin: miter; stroke-linecap: round"/>
    <path d="M 374.437315 232.274677 
L 370.224697 240.699914 
L 366.012078 232.274677 
z
" clip-path="url(#pdf5208f738)" style="fill: #111111; stroke: #111111; stroke-width: 3.964433; stroke-linejoin: miter; stroke-linecap: round"/>
   </g>
   <g id="patch_7">
    <path d="M 370.224697 111.262172 
Q 370.224697 131.784416 370.224697 145.822062 
" clip-path="url(#pdf5208f738)" style="fill: none; stroke: #111111; stroke-width: 5.8; stroke-linejoin: miter; stroke-linecap: round"/>
    <path d="M 375.024697 136.222062 
L 370.224697 145.822062 
L 365.424697 136.222062 
z
" clip-path="url(#pdf5208f738)" style="fill: #111111; stroke: #111111; stroke-width: 5.8; stroke-linejoin: miter; stroke-linecap: round"/>
   </g>
   <g id="patch_8">
    <path d="M 586.153672 236.245821 
Q 586.153672 262.318131 586.153672 284.820562 
" clip-path="url(#pdf5208f738)" style="fill: none; stroke: #111111; stroke-width: 3.192996; stroke-linejoin: miter; stroke-linecap: round"/>
    <path d="M 590.119431 276.889045 
L 586.153672 284.820562 
L 582.187914 276.889045 
z
" clip-path="url(#pdf5208f738)" style="fill: #111111; stroke: #111111; stroke-width: 3.192996; stroke-linejoin: miter; stroke-linecap: round"/>
   </g>
   <g id="line2d_1">
    <path d="M 165.610777 479.04932 
L 550.322663 479.04932 
" clip-path="url(#pdf5208f738)" style="fill: none; stroke-dasharray: 5.6,4.2; stroke-dashoffset: 0; stroke: #404040; stroke-width: 1.4"/>
   </g>
   <g id="line2d_2">
    <path d="M 165.610777 385.160839 
L 550.322663 385.160839 
" clip-path="url(#pdf5208f738)" style="fill: none; stroke-dasharray: 5.6,4.2; stroke-dashoffset: 0; stroke: #404040; stroke-width: 1.4"/>
   </g>
   <g id="line2d_3">
    <path d="M 415.484919 348.083215 
L 560.694797 348.083215 
" clip-path="url(#pdf5208f738)" style="fill: none; stroke-dasharray: 5.6,4.2; stroke-dashoffset: 0; stroke: #404040; stroke-width: 1.4"/>
   </g>
   <g id="patch_9">
    <path d="M 665.359061 288.39044 
Q 580.254851 381.504506 495.90388 473.794441 
" clip-path="url(#pdf5208f738)" style="fill: none; stroke: #404040; stroke-width: 0.998624; stroke-linejoin: miter; stroke-linecap: round"/>
    <path d="M 501.886897 471.496778 
L 495.90388 473.794441 
L 497.65556 467.62943 
z
" clip-path="url(#pdf5208f738)" style="fill: #404040; stroke: #404040; stroke-width: 0.998624; stroke-linejoin: miter; stroke-linecap: round"/>
   </g>
   <g id="patch_10">
    <path d="M 620.098839 288.39044 
Q 577.898849 334.562217 537.646229 378.603343 
" clip-path="url(#pdf5208f738)" style="fill: none; stroke: #404040; stroke-width: 2.581771; stroke-linejoin: miter; stroke-linecap: round"/>
    <path d="M 544.730817 375.882643 
L 537.646229 378.603343 
L 539.720422 371.303253 
z
" clip-path="url(#pdf5208f738)" style="fill: #404040; stroke: #404040; stroke-width: 2.581771; stroke-linejoin: miter; stroke-linecap: round"/>
   </g>
   <g id="patch_11">
    <path d="M 574.838617 288.39044 
Q 541.77213 316.301294 509.690199 343.381101 
" clip-path="url(#pdf5208f738)" style="fill: none; stroke: #404040; stroke-width: 1.152385; stroke-linejoin: miter; stroke-linecap: round"/>
    <path d="M 516.030869 341.846887 
L 509.690199 343.381101 
L 512.26723 337.388036 
z
" clip-path="url(#pdf5208f738)" style="fill: #404040; stroke: #404040; stroke-width: 1.152385; stroke-linejoin: miter; stroke-linecap: round"/>
   </g>
   <g id="patch_12">
    <path d="M 370.224697 348.083215 
Q 335.386673 365.293058 304.028292 380.78397 
" clip-path="url(#pdf5208f738)" style="fill: none; stroke: #404040; stroke-width: 3.471327; stroke-linejoin: miter; stroke-linecap: round"/>
    <path d="M 312.280276 380.823702 
L 304.028292 380.78397 
L 309.011268 374.206222 
z
" clip-path="url(#pdf5208f738)" style="fill: #404040; stroke: #404040; stroke-width: 3.471327; stroke-linejoin: miter; stroke-linecap: round"/>
   </g>
   <g id="line2d_4">
    <path d="M 120.350555 385.160839 
L 120.350555 429.917449 
" clip-path="url(#pdf5208f738)" style="fill: none; stroke: #111111; stroke-width: 1.998304"/>
   </g>
   <g id="line2d_5">
    <path d="M 120.350555 295.707968 
L 120.350555 338.246773 
" clip-path="url(#pdf5208f738)" style="fill: none; stroke: #111111; stroke-width: 3.29799"/>
   </g>
   <g id="line2d_6">
    <path d="M 120.350555 206.530739 
L 120.350555 248.931723 
" clip-path="url(#pdf5208f738)" style="fill: none; stroke: #111111; stroke-width: 4.758497"/>
   </g>
   <g id="line2d_7">
    <path d="M 370.224697 245.132285 
L 370.224697 294.42012 
" clip-path="url(#pdf5208f738)" style="fill: none; stroke: #111111; stroke-width: 2.222209"/>
   </g>
   <g id="line2d_8">
    <path d="M 370.224697 152.306659 
L 370.224697 196.531842 
" clip-path="url(#pdf5208f738)" style="fill: none; stroke: #111111; stroke-width: 3.964433"/>
   </g>
   <g id="line2d_9">
    <path d="M 370.224697 65.842424 
L 370.224697 106.886911 
" clip-path="url(#pdf5208f738)" style="fill: none; stroke: #111111; stroke-width: 5.8"/>
   </g>
   <g id="line2d_10">
    <path d="M 586.153672 179.725942 
L 586.153672 231.870561 
" clip-path="url(#pdf5208f738)" style="fill: none; stroke: #111111; stroke-width: 3.192996"/>
   </g>
   <g id="line2d_11">
    <path d="M 75.090333 479.04932 
L 165.610777 479.04932 
" clip-path="url(#pdf5208f738)" style="fill: none; stroke: #111111; stroke-width: 3.6; stroke-linecap: round"/>
   </g>
   <g id="line2d_12">
    <path d="M 75.090333 385.160839 
L 165.610777 385.160839 
" clip-path="url(#pdf5208f738)" style="fill: none; stroke: #111111; stroke-width: 3.6; stroke-linecap: round"/>
   </g>
   <g id="line2d_13">
    <path d="M 75.090333 295.707968 
L 165.610777 295.707968 
" clip-path="url(#pdf5208f738)" style="fill: none; stroke: #111111; stroke-width: 3.6; stroke-linecap: round"/>
   </g>
   <g id="line2d_14">
    <path d="M 75.090333 206.530739 
L 165.610777 206.530739 
" clip-path="url(#pdf5208f738)" style="fill: none; stroke: #111111; stroke-width: 3.6; stroke-linecap: round"/>
   </g>
   <g id="line2d_15">
    <path d="M 324.964475 348.083215 
L 415.484919 348.083215 
" clip-path="url(#pdf5208f738)" style="fill: none; stroke: #111111; stroke-width: 3.6; stroke-linecap: round"/>
   </g>
   <g id="line2d_16">
    <path d="M 324.964475 245.132285 
L 415.484919 245.132285 
" clip-path="url(#pdf5208f738)" style="fill: none; stroke: #111111; stroke-width: 3.6; stroke-linecap: round"/>
   </g>
   <g id="line2d_17">
    <path d="M 324.964475 152.306659 
L 415.484919 152.306659 
" clip-path="url(#pdf5208f738)" style="fill: none; stroke: #111111; stroke-width: 3.6; stroke-linecap: round"/>
   </g>
   <g id="line2d_18">
    <path d="M 324.964475 65.842424 
L 415.484919 65.842424 
" clip-path="url(#pdf5208f738)" style="fill: none; stroke: #111111; stroke-width: 3.6; stroke-linecap: round"/>
   </g>
   <g id="line2d_19">
    <path d="M 574.838617 288.39044 
L 665.359061 288.39044 
" clip-path="url(#pdf5208f738)" style="fill: none; stroke: #111111; stroke-width: 3.6; stroke-linecap: round"/>
   </g>
   <g id="line2d_20">
    <path d="M 574.838617 179.725942 
L 665.359061 179.725942 
" clip-path="url(#pdf5208f738)" style="fill: none; stroke: #111111; stroke-width: 3.6; stroke-linecap: round"/>
   </g>
   <g id="text_1">
    <!-- $^{208}\mathrm{Po}$ -->
    <g transform="translate(328.552 33.034687) scale(0.34 -0.34)">
     <defs>
      <path id="DejaVuSans-32" d="M 1228 531 
L 3431 531 
L 3431 0 
L 469 0 
L 469 531 
Q 828 903 1448 1529 
Q 2069 2156 2228 2338 
Q 2531 2678 2651 2914 
Q 2772 3150 2772 3378 
Q 2772 3750 2511 3984 
Q 2250 4219 1831 4219 
Q 1534 4219 1204 4116 
Q 875 4013 500 3803 
L 500 4441 
Q 881 4594 1212 4672 
Q 1544 4750 1819 4750 
Q 2544 4750 2975 4387 
Q 3406 4025 3406 3419 
Q 3406 3131 3298 2873 
Q 3191 2616 2906 2266 
Q 2828 2175 2409 1742 
Q 1991 1309 1228 531 
z
" transform="scale(0.015625)"/>
      <path id="DejaVuSans-30" d="M 2034 4250 
Q 1547 4250 1301 3770 
Q 1056 3291 1056 2328 
Q 1056 1369 1301 889 
Q 1547 409 2034 409 
Q 2525 409 2770 889 
Q 3016 1369 3016 2328 
Q 3016 3291 2770 3770 
Q 2525 4250 2034 4250 
z
M 2034 4750 
Q 2819 4750 3233 4129 
Q 3647 3509 3647 2328 
Q 3647 1150 3233 529 
Q 2819 -91 2034 -91 
Q 1250 -91 836 529 
Q 422 1150 422 2328 
Q 422 3509 836 4129 
Q 1250 4750 2034 4750 
z
" transform="scale(0.015625)"/>
      <path id="DejaVuSans-38" d="M 2034 2216 
Q 1584 2216 1326 1975 
Q 1069 1734 1069 1313 
Q 1069 891 1326 650 
Q 1584 409 2034 409 
Q 2484 409 2743 651 
Q 3003 894 3003 1313 
Q 3003 1734 2745 1975 
Q 2488 2216 2034 2216 
z
M 1403 2484 
Q 997 2584 770 2862 
Q 544 3141 544 3541 
Q 544 4100 942 4425 
Q 1341 4750 2034 4750 
Q 2731 4750 3128 4425 
Q 3525 4100 3525 3541 
Q 3525 3141 3298 2862 
Q 3072 2584 2669 2484 
Q 3125 2378 3379 2068 
Q 3634 1759 3634 1313 
Q 3634 634 3220 271 
Q 2806 -91 2034 -91 
Q 1263 -91 848 271 
Q 434 634 434 1313 
Q 434 1759 690 2068 
Q 947 2378 1403 2484 
z
M 1172 3481 
Q 1172 3119 1398 2916 
Q 1625 2713 2034 2713 
Q 2441 2713 2670 2916 
Q 2900 3119 2900 3481 
Q 2900 3844 2670 4047 
Q 2441 4250 2034 4250 
Q 1625 4250 1398 4047 
Q 1172 3844 1172 3481 
z
" transform="scale(0.015625)"/>
      <path id="DejaVuSans-50" d="M 1259 4147 
L 1259 2394 
L 2053 2394 
Q 2494 2394 2734 2622 
Q 2975 2850 2975 3272 
Q 2975 3691 2734 3919 
Q 2494 4147 2053 4147 
L 1259 4147 
z
M 628 4666 
L 2053 4666 
Q 2838 4666 3239 4311 
Q 3641 3956 3641 3272 
Q 3641 2581 3239 2228 
Q 2838 1875 2053 1875 
L 1259 1875 
L 1259 0 
L 628 0 
L 628 4666 
z
" transform="scale(0.015625)"/>
      <path id="DejaVuSans-6f" d="M 1959 3097 
Q 1497 3097 1228 2736 
Q 959 2375 959 1747 
Q 959 1119 1226 758 
Q 1494 397 1959 397 
Q 2419 397 2687 759 
Q 2956 1122 2956 1747 
Q 2956 2369 2687 2733 
Q 2419 3097 1959 3097 
z
M 1959 3584 
Q 2709 3584 3137 3096 
Q 3566 2609 3566 1747 
Q 3566 888 3137 398 
Q 2709 -91 1959 -91 
Q 1206 -91 779 398 
Q 353 888 353 1747 
Q 353 2609 779 3096 
Q 1206 3584 1959 3584 
z
" transform="scale(0.015625)"/>
     </defs>
     <use xlink:href="#DejaVuSans-32" transform="translate(0.957031 39.046875) scale(0.7)"/>
     <use xlink:href="#DejaVuSans-30" transform="translate(45.493164 39.046875) scale(0.7)"/>
     <use xlink:href="#DejaVuSans-38" transform="translate(90.029297 39.046875) scale(0.7)"/>
     <use xlink:href="#DejaVuSans-50" transform="translate(137.299805 0.765625)"/>
     <use xlink:href="#DejaVuSans-6f" transform="translate(197.602539 0.765625)"/>
    </g>
   </g>
   <g id="text_2">
    <!-- 0 -->
    <g transform="translate(46.98525 483.46432) scale(0.16 -0.16)">
     <defs>
      <path id="DejaVuSans-BoldOblique-30" d="M 1913 728 
Q 2153 728 2339 872 
Q 2525 1016 2650 1294 
Q 2738 1491 2809 1742 
Q 2881 1994 2944 2338 
Q 2997 2616 3025 2850 
Q 3053 3084 3053 3250 
Q 3053 3600 2928 3764 
Q 2803 3928 2541 3928 
Q 2297 3928 2112 3789 
Q 1928 3650 1806 3366 
Q 1713 3163 1636 2903 
Q 1559 2644 1503 2338 
Q 1450 2056 1422 1815 
Q 1394 1575 1394 1409 
Q 1394 1063 1522 895 
Q 1650 728 1913 728 
z
M 4225 3072 
Q 4225 2450 4053 1862 
Q 3881 1275 3572 831 
Q 3256 375 2809 142 
Q 2363 -91 1813 -91 
Q 1047 -91 639 343 
Q 231 778 231 1594 
Q 231 2206 401 2795 
Q 572 3384 878 3822 
Q 1200 4281 1644 4515 
Q 2088 4750 2644 4750 
Q 3403 4750 3814 4314 
Q 4225 3878 4225 3072 
z
" transform="scale(0.015625)"/>
     </defs>
     <use xlink:href="#DejaVuSans-BoldOblique-30"/>
    </g>
   </g>
   <g id="text_3">
    <!-- 0⁺ -->
    <g transform="translate(182.58336 484.204554) scale(0.23 -0.23)">
     <defs>
      <path id="TimesNewRomanPS-BoldMT-30" d="M 2966 2119 
Q 2966 1484 2788 934 
Q 2681 597 2501 381 
Q 2322 166 2094 39 
Q 1866 -88 1597 -88 
Q 1291 -88 1044 68 
Q 797 225 606 516 
Q 469 728 366 1081 
Q 231 1559 231 2069 
Q 231 2759 425 3338 
Q 584 3816 909 4070 
Q 1234 4325 1597 4325 
Q 1966 4325 2286 4073 
Q 2606 3822 2756 3397 
Q 2966 2813 2966 2119 
z
M 2003 2125 
Q 2003 3238 1991 3422 
Q 1959 3856 1841 4009 
Q 1763 4109 1588 4109 
Q 1453 4109 1375 4034 
Q 1259 3925 1218 3648 
Q 1178 3372 1178 1719 
Q 1178 819 1241 513 
Q 1288 291 1375 216 
Q 1463 141 1606 141 
Q 1763 141 1841 241 
Q 1972 416 1991 781 
L 2003 2125 
z
" transform="scale(0.015625)"/>
      <path id="DejaVuSerif-Bold-207a" d="M 1916 4344 
L 1916 3441 
L 2950 3441 
L 2950 3044 
L 1916 3044 
L 1916 2141 
L 1463 2141 
L 1463 3044 
L 428 3044 
L 428 3441 
L 1463 3441 
L 1463 4344 
L 1916 4344 
z
" transform="scale(0.015625)"/>
     </defs>
     <use xlink:href="#TimesNewRomanPS-BoldMT-30"/>
     <use xlink:href="#DejaVuSerif-Bold-207a" transform="translate(50 0)"/>
    </g>
   </g>
   <g id="text_4">
    <!-- 1974 -->
    <g transform="translate(13.58775 389.575839) scale(0.16 -0.16)">
     <defs>
      <path id="DejaVuSans-BoldOblique-31" d="M 441 831 
L 1503 831 
L 2088 3847 
L 953 3622 
L 1113 4441 
L 2241 4666 
L 3384 4666 
L 2644 831 
L 3700 831 
L 3541 0 
L 275 0 
L 441 831 
z
" transform="scale(0.015625)"/>
      <path id="DejaVuSans-BoldOblique-39" d="M 263 103 
L 428 966 
Q 700 825 953 758 
Q 1206 691 1459 691 
Q 2041 691 2400 1003 
Q 2759 1316 2834 1881 
Q 2594 1722 2337 1645 
Q 2081 1569 1791 1569 
Q 1219 1569 853 1909 
Q 488 2250 488 2778 
Q 488 3641 1052 4192 
Q 1616 4744 2503 4744 
Q 3300 4744 3736 4292 
Q 4172 3841 4172 3016 
Q 4172 2381 3978 1801 
Q 3784 1222 3431 800 
Q 3056 353 2548 128 
Q 2041 -97 1403 -97 
Q 1106 -97 825 -47 
Q 544 3 263 103 
z
M 2169 2344 
Q 2525 2344 2753 2637 
Q 2981 2931 2981 3391 
Q 2981 3675 2845 3828 
Q 2709 3981 2456 3981 
Q 2103 3981 1870 3690 
Q 1638 3400 1638 2963 
Q 1638 2663 1775 2503 
Q 1913 2344 2169 2344 
z
" transform="scale(0.015625)"/>
      <path id="DejaVuSans-BoldOblique-37" d="M 922 4666 
L 4441 4666 
L 4300 3981 
L 1703 0 
L 500 0 
L 2969 3781 
L 756 3781 
L 922 4666 
z
" transform="scale(0.015625)"/>
      <path id="DejaVuSans-BoldOblique-34" d="M 2638 3641 
L 978 1722 
L 2259 1722 
L 2638 3641 
z
M 2606 4666 
L 3975 4666 
L 3397 1722 
L 4063 1722 
L 3897 850 
L 3231 850 
L 3066 0 
L 1925 0 
L 2094 850 
L -6 850 
L 197 1881 
L 2606 4666 
z
" transform="scale(0.015625)"/>
     </defs>
     <use xlink:href="#DejaVuSans-BoldOblique-31"/>
     <use xlink:href="#DejaVuSans-BoldOblique-39" transform="translate(69.580078 0)"/>
     <use xlink:href="#DejaVuSans-BoldOblique-37" transform="translate(139.160156 0)"/>
     <use xlink:href="#DejaVuSans-BoldOblique-34" transform="translate(208.740234 0)"/>
    </g>
   </g>
   <g id="text_5">
    <!-- 2⁺ -->
    <g transform="translate(182.58336 390.316073) scale(0.23 -0.23)">
     <defs>
      <path id="TimesNewRomanPS-BoldMT-32" d="M 2650 0 
L 156 0 
L 156 69 
Q 1303 1434 1548 1906 
Q 1794 2378 1794 2828 
Q 1794 3156 1591 3373 
Q 1388 3591 1094 3591 
Q 613 3591 347 3109 
L 231 3150 
Q 400 3750 744 4037 
Q 1088 4325 1538 4325 
Q 1859 4325 2125 4175 
Q 2391 4025 2541 3764 
Q 2691 3503 2691 3275 
Q 2691 2859 2459 2431 
Q 2144 1853 1081 819 
L 1997 819 
Q 2334 819 2436 847 
Q 2538 875 2603 942 
Q 2669 1009 2775 1225 
L 2888 1225 
L 2650 0 
z
" transform="scale(0.015625)"/>
     </defs>
     <use xlink:href="#TimesNewRomanPS-BoldMT-32"/>
     <use xlink:href="#DejaVuSerif-Bold-207a" transform="translate(50 0)"/>
    </g>
   </g>
   <g id="text_6">
    <!-- 3855 -->
    <g transform="translate(13.58775 300.122968) scale(0.16 -0.16)">
     <defs>
      <path id="DejaVuSans-BoldOblique-33" d="M 3022 2516 
Q 3375 2434 3572 2187 
Q 3769 1941 3769 1581 
Q 3769 806 3155 357 
Q 2541 -91 1466 -91 
Q 1059 -91 692 -33 
Q 325 25 0 141 
L 178 1069 
Q 456 906 784 817 
Q 1113 728 1441 728 
Q 1969 728 2276 926 
Q 2584 1125 2584 1459 
Q 2584 1738 2350 1877 
Q 2116 2016 1644 2016 
L 1166 2016 
L 1319 2791 
L 1825 2791 
Q 2316 2791 2602 2969 
Q 2888 3147 2888 3450 
Q 2888 3688 2689 3813 
Q 2491 3938 2113 3938 
Q 1847 3938 1534 3869 
Q 1222 3800 884 3669 
L 1056 4550 
Q 1425 4650 1783 4700 
Q 2141 4750 2491 4750 
Q 3281 4750 3679 4487 
Q 4078 4225 4078 3706 
Q 4078 3241 3801 2930 
Q 3525 2619 3022 2516 
z
" transform="scale(0.015625)"/>
      <path id="DejaVuSans-BoldOblique-38" d="M 2150 2088 
Q 1784 2088 1539 1839 
Q 1294 1591 1294 1228 
Q 1294 969 1453 817 
Q 1613 666 1888 666 
Q 2259 666 2503 911 
Q 2747 1156 2747 1522 
Q 2747 1781 2586 1934 
Q 2425 2088 2150 2088 
z
M 1381 2484 
Q 1044 2625 876 2850 
Q 709 3075 709 3391 
Q 709 4025 1229 4387 
Q 1750 4750 2669 4750 
Q 3406 4750 3812 4475 
Q 4219 4200 4219 3700 
Q 4219 3256 3936 2940 
Q 3653 2625 3128 2484 
Q 3509 2338 3690 2091 
Q 3872 1844 3872 1466 
Q 3872 747 3311 328 
Q 2750 -91 1772 -91 
Q 1000 -91 570 217 
Q 141 525 141 1075 
Q 141 1572 470 1945 
Q 800 2319 1381 2484 
z
M 2559 3994 
Q 2241 3994 2048 3808 
Q 1856 3622 1856 3316 
Q 1856 3103 1995 2972 
Q 2134 2841 2363 2841 
Q 2681 2841 2873 3027 
Q 3066 3213 3066 3519 
Q 3066 3734 2927 3864 
Q 2788 3994 2559 3994 
z
" transform="scale(0.015625)"/>
      <path id="DejaVuSans-BoldOblique-35" d="M 1131 4666 
L 4122 4666 
L 3950 3781 
L 1919 3781 
L 1778 3059 
Q 1916 3097 2064 3117 
Q 2213 3138 2363 3138 
Q 3078 3138 3481 2811 
Q 3884 2484 3884 1906 
Q 3884 988 3262 448 
Q 2641 -91 1575 -91 
Q 1184 -91 815 -14 
Q 447 63 84 219 
L 269 1166 
Q 616 941 942 834 
Q 1269 728 1606 728 
Q 2100 728 2397 986 
Q 2694 1244 2694 1663 
Q 2694 1963 2469 2139 
Q 2244 2316 1856 2316 
Q 1594 2316 1289 2248 
Q 984 2181 622 2041 
L 1131 4666 
z
" transform="scale(0.015625)"/>
     </defs>
     <use xlink:href="#DejaVuSans-BoldOblique-33"/>
     <use xlink:href="#DejaVuSans-BoldOblique-38" transform="translate(69.580078 0)"/>
     <use xlink:href="#DejaVuSans-BoldOblique-35" transform="translate(139.160156 0)"/>
     <use xlink:href="#DejaVuSans-BoldOblique-35" transform="translate(208.740234 0)"/>
    </g>
   </g>
   <g id="text_7">
    <!-- 4⁺ -->
    <g transform="translate(182.58336 300.863203) scale(0.23 -0.23)">
     <defs>
      <path id="TimesNewRomanPS-BoldMT-34" d="M 159 1597 
L 2172 4325 
L 2553 4325 
L 2553 1597 
L 2941 1597 
L 2941 950 
L 2553 950 
L 2553 0 
L 1694 0 
L 1694 950 
L 159 950 
L 159 1597 
z
M 463 1597 
L 1694 1597 
L 1694 3269 
L 463 1597 
z
" transform="scale(0.015625)"/>
     </defs>
     <use xlink:href="#TimesNewRomanPS-BoldMT-34"/>
     <use xlink:href="#DejaVuSerif-Bold-207a" transform="translate(50 0)"/>
    </g>
   </g>
   <g id="text_8">
    <!-- 5730 -->
    <g transform="translate(13.58775 210.945739) scale(0.16 -0.16)">
     <use xlink:href="#DejaVuSans-BoldOblique-35"/>
     <use xlink:href="#DejaVuSans-BoldOblique-37" transform="translate(69.580078 0)"/>
     <use xlink:href="#DejaVuSans-BoldOblique-33" transform="translate(139.160156 0)"/>
     <use xlink:href="#DejaVuSans-BoldOblique-30" transform="translate(208.740234 0)"/>
    </g>
   </g>
   <g id="text_9">
    <!-- 6⁺ -->
    <g transform="translate(182.58336 211.685973) scale(0.23 -0.23)">
     <defs>
      <path id="TimesNewRomanPS-BoldMT-36" d="M 3006 4325 
L 3006 4238 
Q 2441 4094 2098 3867 
Q 1756 3641 1557 3317 
Q 1359 2994 1250 2516 
Q 1388 2609 1478 2638 
Q 1681 2700 1888 2700 
Q 2363 2700 2680 2354 
Q 2997 2009 2997 1413 
Q 2997 994 2825 644 
Q 2653 294 2337 103 
Q 2022 -88 1663 -88 
Q 1272 -88 940 126 
Q 609 341 423 753 
Q 238 1166 238 1650 
Q 238 2363 580 2977 
Q 922 3591 1551 3955 
Q 2181 4319 3006 4325 
z
M 1209 2263 
Q 1184 1831 1184 1631 
Q 1184 1200 1267 797 
Q 1350 394 1494 231 
Q 1597 116 1738 116 
Q 1881 116 1993 283 
Q 2106 450 2106 963 
Q 2106 1825 1897 2153 
Q 1763 2366 1534 2366 
Q 1409 2366 1209 2263 
z
" transform="scale(0.015625)"/>
     </defs>
     <use xlink:href="#TimesNewRomanPS-BoldMT-36"/>
     <use xlink:href="#DejaVuSerif-Bold-207a" transform="translate(50 0)"/>
    </g>
   </g>
   <g id="text_10">
    <!-- 2754 -->
    <g transform="translate(263.461892 352.498215) scale(0.16 -0.16)">
     <defs>
      <path id="DejaVuSans-BoldOblique-32" d="M 1581 884 
L 3609 884 
L 3438 0 
L 50 0 
L 225 891 
L 2209 2388 
Q 2534 2638 2704 2894 
Q 2875 3150 2875 3391 
Q 2875 3647 2700 3787 
Q 2525 3928 2209 3928 
Q 1913 3928 1547 3811 
Q 1181 3694 722 3450 
L 922 4441 
Q 1347 4597 1756 4673 
Q 2166 4750 2566 4750 
Q 3278 4750 3687 4442 
Q 4097 4134 4097 3603 
Q 4097 3147 3847 2772 
Q 3597 2397 2747 1759 
L 1581 884 
z
" transform="scale(0.015625)"/>
     </defs>
     <use xlink:href="#DejaVuSans-BoldOblique-32"/>
     <use xlink:href="#DejaVuSans-BoldOblique-37" transform="translate(69.580078 0)"/>
     <use xlink:href="#DejaVuSans-BoldOblique-35" transform="translate(139.160156 0)"/>
     <use xlink:href="#DejaVuSans-BoldOblique-34" transform="translate(208.740234 0)"/>
    </g>
   </g>
   <g id="text_11">
    <!-- 0⁺ -->
    <g transform="translate(432.457502 353.23845) scale(0.23 -0.23)">
     <use xlink:href="#TimesNewRomanPS-BoldMT-30"/>
     <use xlink:href="#DejaVuSerif-Bold-207a" transform="translate(50 0)"/>
    </g>
   </g>
   <g id="text_12">
    <!-- 4919 -->
    <g transform="translate(263.461892 249.547285) scale(0.16 -0.16)">
     <use xlink:href="#DejaVuSans-BoldOblique-34"/>
     <use xlink:href="#DejaVuSans-BoldOblique-39" transform="translate(69.580078 0)"/>
     <use xlink:href="#DejaVuSans-BoldOblique-31" transform="translate(139.160156 0)"/>
     <use xlink:href="#DejaVuSans-BoldOblique-39" transform="translate(208.740234 0)"/>
    </g>
   </g>
   <g id="text_13">
    <!-- 2⁺ -->
    <g transform="translate(432.457502 250.287519) scale(0.23 -0.23)">
     <use xlink:href="#TimesNewRomanPS-BoldMT-32"/>
     <use xlink:href="#DejaVuSerif-Bold-207a" transform="translate(50 0)"/>
    </g>
   </g>
   <g id="text_14">
    <!-- 6871 -->
    <g transform="translate(263.461892 156.721659) scale(0.16 -0.16)">
     <defs>
      <path id="DejaVuSans-BoldOblique-36" d="M 2316 2303 
Q 1959 2303 1731 2009 
Q 1503 1716 1503 1253 
Q 1503 975 1643 820 
Q 1784 666 2034 666 
Q 2388 666 2617 955 
Q 2847 1244 2847 1684 
Q 2847 1984 2709 2143 
Q 2572 2303 2316 2303 
z
M 4225 4544 
L 4056 3681 
Q 3788 3819 3534 3887 
Q 3281 3956 3028 3956 
Q 2447 3956 2087 3643 
Q 1728 3331 1650 2766 
Q 1894 2925 2151 3001 
Q 2409 3078 2700 3078 
Q 3275 3078 3640 2737 
Q 4006 2397 4006 1869 
Q 4006 1006 3442 454 
Q 2878 -97 1991 -97 
Q 1194 -97 756 354 
Q 319 806 319 1631 
Q 319 2269 512 2848 
Q 706 3428 1056 3847 
Q 1431 4294 1942 4519 
Q 2453 4744 3091 4744 
Q 3384 4744 3662 4694 
Q 3941 4644 4225 4544 
z
" transform="scale(0.015625)"/>
     </defs>
     <use xlink:href="#DejaVuSans-BoldOblique-36"/>
     <use xlink:href="#DejaVuSans-BoldOblique-38" transform="translate(69.580078 0)"/>
     <use xlink:href="#DejaVuSans-BoldOblique-37" transform="translate(139.160156 0)"/>
     <use xlink:href="#DejaVuSans-BoldOblique-31" transform="translate(208.740234 0)"/>
    </g>
   </g>
   <g id="text_15">
    <!-- 4⁺ -->
    <g transform="translate(432.457502 157.461893) scale(0.23 -0.23)">
     <use xlink:href="#TimesNewRomanPS-BoldMT-34"/>
     <use xlink:href="#DejaVuSerif-Bold-207a" transform="translate(50 0)"/>
    </g>
   </g>
   <g id="text_16">
    <!-- 8689 -->
    <g transform="translate(263.461892 70.257424) scale(0.16 -0.16)">
     <use xlink:href="#DejaVuSans-BoldOblique-38"/>
     <use xlink:href="#DejaVuSans-BoldOblique-36" transform="translate(69.580078 0)"/>
     <use xlink:href="#DejaVuSans-BoldOblique-38" transform="translate(139.160156 0)"/>
     <use xlink:href="#DejaVuSans-BoldOblique-39" transform="translate(208.740234 0)"/>
    </g>
   </g>
   <g id="text_17">
    <!-- 6⁺ -->
    <g transform="translate(432.457502 70.997659) scale(0.23 -0.23)">
     <use xlink:href="#TimesNewRomanPS-BoldMT-36"/>
     <use xlink:href="#DejaVuSerif-Bold-207a" transform="translate(50 0)"/>
    </g>
   </g>
   <g id="text_18">
    <!-- 4009 -->
    <g transform="translate(513.336034 292.80544) scale(0.16 -0.16)">
     <use xlink:href="#DejaVuSans-BoldOblique-34"/>
     <use xlink:href="#DejaVuSans-BoldOblique-30" transform="translate(69.580078 0)"/>
     <use xlink:href="#DejaVuSans-BoldOblique-30" transform="translate(139.160156 0)"/>
     <use xlink:href="#DejaVuSans-BoldOblique-39" transform="translate(208.740234 0)"/>
    </g>
   </g>
   <g id="text_19">
    <!-- 2⁺ -->
    <g transform="translate(682.331644 293.545674) scale(0.23 -0.23)">
     <use xlink:href="#TimesNewRomanPS-BoldMT-32"/>
     <use xlink:href="#DejaVuSerif-Bold-207a" transform="translate(50 0)"/>
    </g>
   </g>
   <g id="text_20">
    <!-- 6294 -->
    <g transform="translate(513.336034 184.140942) scale(0.16 -0.16)">
     <use xlink:href="#DejaVuSans-BoldOblique-36"/>
     <use xlink:href="#DejaVuSans-BoldOblique-32" transform="translate(69.580078 0)"/>
     <use xlink:href="#DejaVuSans-BoldOblique-39" transform="translate(139.160156 0)"/>
     <use xlink:href="#DejaVuSans-BoldOblique-34" transform="translate(208.740234 0)"/>
    </g>
   </g>
   <g id="text_21">
    <!-- 3⁺ -->
    <g transform="translate(682.331644 184.881177) scale(0.23 -0.23)">
     <defs>
      <path id="TimesNewRomanPS-BoldMT-33" d="M 947 2125 
L 947 2234 
Q 1303 2338 1440 2427 
Q 1578 2516 1678 2698 
Q 1778 2881 1778 3069 
Q 1778 3328 1589 3514 
Q 1400 3700 1119 3700 
Q 681 3700 375 3238 
L 259 3278 
Q 484 3800 836 4062 
Q 1188 4325 1619 4325 
Q 2059 4325 2345 4056 
Q 2631 3788 2631 3428 
Q 2631 3194 2498 2976 
Q 2366 2759 2081 2594 
Q 2447 2416 2639 2155 
Q 2831 1894 2831 1500 
Q 2831 838 2351 373 
Q 1872 -91 1066 -91 
Q 528 -91 281 88 
Q 103 213 103 409 
Q 103 553 206 654 
Q 309 756 444 756 
Q 547 756 638 713 
Q 688 688 992 439 
Q 1297 191 1563 191 
Q 1794 191 1959 373 
Q 2125 556 2125 838 
Q 2125 1266 1825 1627 
Q 1525 1988 947 2125 
z
" transform="scale(0.015625)"/>
     </defs>
     <use xlink:href="#TimesNewRomanPS-BoldMT-33"/>
     <use xlink:href="#DejaVuSerif-Bold-207a" transform="translate(50 0)"/>
    </g>
   </g>
   <g id="text_22">
    <path d="M 111.560555 424.878829 
L 111.560555 433.543829 
Q 111.560555 434.518829 111.645555 434.788829 
Q 111.733055 435.058829 112.005555 435.231329 
Q 112.280555 435.401329 112.883055 435.401329 
L 113.123055 435.401329 
L 113.123055 435.691329 
L 107.545555 435.691329 
L 107.545555 435.401329 
L 107.828055 435.401329 
Q 108.508055 435.401329 108.795555 435.246329 
Q 109.085555 435.088829 109.185555 434.816329 
Q 109.288055 434.543829 109.288055 433.543829 
L 109.288055 428.051329 
Q 109.288055 427.316329 109.218055 427.133829 
Q 109.148055 426.948829 108.955555 426.821329 
Q 108.765555 426.691329 108.515555 426.691329 
Q 108.115555 426.691329 107.545555 426.941329 
L 107.405555 426.658829 
L 111.303055 424.878829 
L 111.560555 424.878829 
z
M 121.765555 430.393829 
Q 121.765555 431.981329 121.320555 433.356329 
Q 121.053055 434.198829 120.603055 434.738829 
Q 120.155555 435.276329 119.585555 435.593829 
Q 119.015555 435.911329 118.343055 435.911329 
Q 117.578055 435.911329 116.960555 435.521329 
Q 116.343055 435.128829 115.865555 434.401329 
Q 115.523055 433.871329 115.265555 432.988829 
Q 114.928055 431.793829 114.928055 430.518829 
Q 114.928055 428.793829 115.413055 427.346329 
Q 115.810555 426.151329 116.623055 425.516329 
Q 117.435555 424.878829 118.343055 424.878829 
Q 119.265555 424.878829 120.065555 425.508829 
Q 120.865555 426.136329 121.240555 427.198829 
Q 121.765555 428.658829 121.765555 430.393829 
z
M 119.358055 430.378829 
Q 119.358055 427.596329 119.328055 427.136329 
Q 119.248055 426.051329 118.953055 425.668829 
Q 118.758055 425.418829 118.320555 425.418829 
Q 117.983055 425.418829 117.788055 425.606329 
Q 117.498055 425.878829 117.395555 426.571329 
Q 117.295555 427.261329 117.295555 431.393829 
Q 117.295555 433.643829 117.453055 434.408829 
Q 117.570555 434.963829 117.788055 435.151329 
Q 118.008055 435.338829 118.365555 435.338829 
Q 118.758055 435.338829 118.953055 435.088829 
Q 119.280555 434.651329 119.328055 433.738829 
L 119.358055 430.378829 
z
M 124.350555 433.283829 
Q 124.898055 433.283829 125.275555 433.668829 
Q 125.655555 434.051329 125.655555 434.588829 
Q 125.655555 435.128829 125.273055 435.508829 
Q 124.890555 435.886329 124.350555 435.886329 
Q 123.810555 435.886329 123.430555 435.508829 
Q 123.053055 435.128829 123.053055 434.588829 
Q 123.053055 434.051329 123.430555 433.668829 
Q 123.810555 433.283829 124.350555 433.283829 
z
M 126.748055 431.698829 
L 131.780555 424.878829 
L 132.733055 424.878829 
L 132.733055 431.698829 
L 133.703055 431.698829 
L 133.703055 433.316329 
L 132.733055 433.316329 
L 132.733055 435.691329 
L 130.585555 435.691329 
L 130.585555 433.316329 
L 126.748055 433.316329 
L 126.748055 431.698829 
z
M 127.508055 431.698829 
L 130.585555 431.698829 
L 130.585555 427.518829 
L 127.508055 431.698829 
z
" style="stroke: #ffffff; stroke-width: 3.8"/>
    <path d="M 111.560555 424.878829 
L 111.560555 433.543829 
Q 111.560555 434.518829 111.645555 434.788829 
Q 111.733055 435.058829 112.005555 435.231329 
Q 112.280555 435.401329 112.883055 435.401329 
L 113.123055 435.401329 
L 113.123055 435.691329 
L 107.545555 435.691329 
L 107.545555 435.401329 
L 107.828055 435.401329 
Q 108.508055 435.401329 108.795555 435.246329 
Q 109.085555 435.088829 109.185555 434.816329 
Q 109.288055 434.543829 109.288055 433.543829 
L 109.288055 428.051329 
Q 109.288055 427.316329 109.218055 427.133829 
Q 109.148055 426.948829 108.955555 426.821329 
Q 108.765555 426.691329 108.515555 426.691329 
Q 108.115555 426.691329 107.545555 426.941329 
L 107.405555 426.658829 
L 111.303055 424.878829 
L 111.560555 424.878829 
z
M 121.765555 430.393829 
Q 121.765555 431.981329 121.320555 433.356329 
Q 121.053055 434.198829 120.603055 434.738829 
Q 120.155555 435.276329 119.585555 435.593829 
Q 119.015555 435.911329 118.343055 435.911329 
Q 117.578055 435.911329 116.960555 435.521329 
Q 116.343055 435.128829 115.865555 434.401329 
Q 115.523055 433.871329 115.265555 432.988829 
Q 114.928055 431.793829 114.928055 430.518829 
Q 114.928055 428.793829 115.413055 427.346329 
Q 115.810555 426.151329 116.623055 425.516329 
Q 117.435555 424.878829 118.343055 424.878829 
Q 119.265555 424.878829 120.065555 425.508829 
Q 120.865555 426.136329 121.240555 427.198829 
Q 121.765555 428.658829 121.765555 430.393829 
z
M 119.358055 430.378829 
Q 119.358055 427.596329 119.328055 427.136329 
Q 119.248055 426.051329 118.953055 425.668829 
Q 118.758055 425.418829 118.320555 425.418829 
Q 117.983055 425.418829 117.788055 425.606329 
Q 117.498055 425.878829 117.395555 426.571329 
Q 117.295555 427.261329 117.295555 431.393829 
Q 117.295555 433.643829 117.453055 434.408829 
Q 117.570555 434.963829 117.788055 435.151329 
Q 118.008055 435.338829 118.365555 435.338829 
Q 118.758055 435.338829 118.953055 435.088829 
Q 119.280555 434.651329 119.328055 433.738829 
L 119.358055 430.378829 
z
M 124.350555 433.283829 
Q 124.898055 433.283829 125.275555 433.668829 
Q 125.655555 434.051329 125.655555 434.588829 
Q 125.655555 435.128829 125.273055 435.508829 
Q 124.890555 435.886329 124.350555 435.886329 
Q 123.810555 435.886329 123.430555 435.508829 
Q 123.053055 435.128829 123.053055 434.588829 
Q 123.053055 434.051329 123.430555 433.668829 
Q 123.810555 433.283829 124.350555 433.283829 
z
M 126.748055 431.698829 
L 131.780555 424.878829 
L 132.733055 424.878829 
L 132.733055 431.698829 
L 133.703055 431.698829 
L 133.703055 433.316329 
L 132.733055 433.316329 
L 132.733055 435.691329 
L 130.585555 435.691329 
L 130.585555 433.316329 
L 126.748055 433.316329 
L 126.748055 431.698829 
z
M 127.508055 431.698829 
L 130.585555 431.698829 
L 130.585555 427.518829 
L 127.508055 431.698829 
z
"/>
   </g>
   <g id="text_23">
    <path d="M 112.975555 344.020653 
L 106.740555 344.020653 
L 106.740555 343.848153 
Q 109.608055 340.435653 110.220555 339.255653 
Q 110.835555 338.075653 110.835555 336.950653 
Q 110.835555 336.130653 110.328055 335.588153 
Q 109.820555 335.043153 109.085555 335.043153 
Q 107.883055 335.043153 107.218055 336.248153 
L 106.928055 336.145653 
Q 107.350555 334.645653 108.210555 333.928153 
Q 109.070555 333.208153 110.195555 333.208153 
Q 110.998055 333.208153 111.663055 333.583153 
Q 112.328055 333.958153 112.703055 334.610653 
Q 113.078055 335.263153 113.078055 335.833153 
Q 113.078055 336.873153 112.498055 337.943153 
Q 111.710555 339.388153 109.053055 341.973153 
L 111.343055 341.973153 
Q 112.185555 341.973153 112.440555 341.903153 
Q 112.695555 341.833153 112.858055 341.665653 
Q 113.023055 341.498153 113.288055 340.958153 
L 113.570555 340.958153 
L 112.975555 344.020653 
z
M 119.560555 333.208153 
L 119.560555 341.873153 
Q 119.560555 342.848153 119.645555 343.118153 
Q 119.733055 343.388153 120.005555 343.560653 
Q 120.280555 343.730653 120.883055 343.730653 
L 121.123055 343.730653 
L 121.123055 344.020653 
L 115.545555 344.020653 
L 115.545555 343.730653 
L 115.828055 343.730653 
Q 116.508055 343.730653 116.795555 343.575653 
Q 117.085555 343.418153 117.185555 343.145653 
Q 117.288055 342.873153 117.288055 341.873153 
L 117.288055 336.380653 
Q 117.288055 335.645653 117.218055 335.463153 
Q 117.148055 335.278153 116.955555 335.150653 
Q 116.765555 335.020653 116.515555 335.020653 
Q 116.115555 335.020653 115.545555 335.270653 
L 115.405555 334.988153 
L 119.303055 333.208153 
L 119.560555 333.208153 
z
M 124.350555 341.613153 
Q 124.898055 341.613153 125.275555 341.998153 
Q 125.655555 342.380653 125.655555 342.918153 
Q 125.655555 343.458153 125.273055 343.838153 
Q 124.890555 344.215653 124.350555 344.215653 
Q 123.810555 344.215653 123.430555 343.838153 
Q 123.053055 343.458153 123.053055 342.918153 
Q 123.053055 342.380653 123.430555 341.998153 
Q 123.810555 341.613153 124.350555 341.613153 
z
M 129.185555 344.240653 
L 132.070555 335.498153 
L 129.873055 335.498153 
Q 128.585555 335.498153 127.935555 335.833153 
Q 127.483055 336.068153 127.185555 336.715653 
L 126.890555 336.715653 
L 127.655555 333.425653 
L 133.968055 333.425653 
L 130.413055 344.240653 
L 129.185555 344.240653 
z
" style="stroke: #ffffff; stroke-width: 3.8"/>
    <path d="M 112.975555 344.020653 
L 106.740555 344.020653 
L 106.740555 343.848153 
Q 109.608055 340.435653 110.220555 339.255653 
Q 110.835555 338.075653 110.835555 336.950653 
Q 110.835555 336.130653 110.328055 335.588153 
Q 109.820555 335.043153 109.085555 335.043153 
Q 107.883055 335.043153 107.218055 336.248153 
L 106.928055 336.145653 
Q 107.350555 334.645653 108.210555 333.928153 
Q 109.070555 333.208153 110.195555 333.208153 
Q 110.998055 333.208153 111.663055 333.583153 
Q 112.328055 333.958153 112.703055 334.610653 
Q 113.078055 335.263153 113.078055 335.833153 
Q 113.078055 336.873153 112.498055 337.943153 
Q 111.710555 339.388153 109.053055 341.973153 
L 111.343055 341.973153 
Q 112.185555 341.973153 112.440555 341.903153 
Q 112.695555 341.833153 112.858055 341.665653 
Q 113.023055 341.498153 113.288055 340.958153 
L 113.570555 340.958153 
L 112.975555 344.020653 
z
M 119.560555 333.208153 
L 119.560555 341.873153 
Q 119.560555 342.848153 119.645555 343.118153 
Q 119.733055 343.388153 120.005555 343.560653 
Q 120.280555 343.730653 120.883055 343.730653 
L 121.123055 343.730653 
L 121.123055 344.020653 
L 115.545555 344.020653 
L 115.545555 343.730653 
L 115.828055 343.730653 
Q 116.508055 343.730653 116.795555 343.575653 
Q 117.085555 343.418153 117.185555 343.145653 
Q 117.288055 342.873153 117.288055 341.873153 
L 117.288055 336.380653 
Q 117.288055 335.645653 117.218055 335.463153 
Q 117.148055 335.278153 116.955555 335.150653 
Q 116.765555 335.020653 116.515555 335.020653 
Q 116.115555 335.020653 115.545555 335.270653 
L 115.405555 334.988153 
L 119.303055 333.208153 
L 119.560555 333.208153 
z
M 124.350555 341.613153 
Q 124.898055 341.613153 125.275555 341.998153 
Q 125.655555 342.380653 125.655555 342.918153 
Q 125.655555 343.458153 125.273055 343.838153 
Q 124.890555 344.215653 124.350555 344.215653 
Q 123.810555 344.215653 123.430555 343.838153 
Q 123.053055 343.458153 123.053055 342.918153 
Q 123.053055 342.380653 123.430555 341.998153 
Q 123.810555 341.613153 124.350555 341.613153 
z
M 129.185555 344.240653 
L 132.070555 335.498153 
L 129.873055 335.498153 
Q 128.585555 335.498153 127.935555 335.833153 
Q 127.483055 336.068153 127.185555 336.715653 
L 126.890555 336.715653 
L 127.655555 333.425653 
L 133.968055 333.425653 
L 130.413055 344.240653 
L 129.185555 344.240653 
z
"/>
   </g>
   <g id="text_24">
    <path d="M 108.718055 249.393104 
L 108.718055 249.120604 
Q 109.608055 248.860604 109.950555 248.638104 
Q 110.295555 248.415604 110.545555 247.960604 
Q 110.795555 247.503104 110.795555 247.033104 
Q 110.795555 246.385604 110.323055 245.920604 
Q 109.850555 245.455604 109.148055 245.455604 
Q 108.053055 245.455604 107.288055 246.610604 
L 106.998055 246.510604 
Q 107.560555 245.205604 108.440555 244.550604 
Q 109.320555 243.893104 110.398055 243.893104 
Q 111.498055 243.893104 112.213055 244.565604 
Q 112.928055 245.235604 112.928055 246.135604 
Q 112.928055 246.720604 112.595555 247.265604 
Q 112.265555 247.808104 111.553055 248.220604 
Q 112.468055 248.665604 112.948055 249.318104 
Q 113.428055 249.970604 113.428055 250.955604 
Q 113.428055 252.610604 112.228055 253.773104 
Q 111.030555 254.933104 109.015555 254.933104 
Q 107.670555 254.933104 107.053055 254.485604 
Q 106.608055 254.173104 106.608055 253.683104 
Q 106.608055 253.323104 106.865555 253.070604 
Q 107.123055 252.815604 107.460555 252.815604 
Q 107.718055 252.815604 107.945555 252.923104 
Q 108.070555 252.985604 108.830555 253.608104 
Q 109.593055 254.228104 110.258055 254.228104 
Q 110.835555 254.228104 111.248055 253.773104 
Q 111.663055 253.315604 111.663055 252.610604 
Q 111.663055 251.540604 110.913055 250.638104 
Q 110.163055 249.735604 108.718055 249.393104 
z
M 114.748055 250.713104 
L 119.780555 243.893104 
L 120.733055 243.893104 
L 120.733055 250.713104 
L 121.703055 250.713104 
L 121.703055 252.330604 
L 120.733055 252.330604 
L 120.733055 254.705604 
L 118.585555 254.705604 
L 118.585555 252.330604 
L 114.748055 252.330604 
L 114.748055 250.713104 
z
M 115.508055 250.713104 
L 118.585555 250.713104 
L 118.585555 246.533104 
L 115.508055 250.713104 
z
M 124.350555 252.298104 
Q 124.898055 252.298104 125.275555 252.683104 
Q 125.655555 253.065604 125.655555 253.603104 
Q 125.655555 254.143104 125.273055 254.523104 
Q 124.890555 254.900604 124.350555 254.900604 
Q 123.810555 254.900604 123.430555 254.523104 
Q 123.053055 254.143104 123.053055 253.603104 
Q 123.053055 253.065604 123.430555 252.683104 
Q 123.810555 252.298104 124.350555 252.298104 
z
M 126.748055 250.713104 
L 131.780555 243.893104 
L 132.733055 243.893104 
L 132.733055 250.713104 
L 133.703055 250.713104 
L 133.703055 252.330604 
L 132.733055 252.330604 
L 132.733055 254.705604 
L 130.585555 254.705604 
L 130.585555 252.330604 
L 126.748055 252.330604 
L 126.748055 250.713104 
z
M 127.508055 250.713104 
L 130.585555 250.713104 
L 130.585555 246.533104 
L 127.508055 250.713104 
z
" style="stroke: #ffffff; stroke-width: 3.8"/>
    <path d="M 108.718055 249.393104 
L 108.718055 249.120604 
Q 109.608055 248.860604 109.950555 248.638104 
Q 110.295555 248.415604 110.545555 247.960604 
Q 110.795555 247.503104 110.795555 247.033104 
Q 110.795555 246.385604 110.323055 245.920604 
Q 109.850555 245.455604 109.148055 245.455604 
Q 108.053055 245.455604 107.288055 246.610604 
L 106.998055 246.510604 
Q 107.560555 245.205604 108.440555 244.550604 
Q 109.320555 243.893104 110.398055 243.893104 
Q 111.498055 243.893104 112.213055 244.565604 
Q 112.928055 245.235604 112.928055 246.135604 
Q 112.928055 246.720604 112.595555 247.265604 
Q 112.265555 247.808104 111.553055 248.220604 
Q 112.468055 248.665604 112.948055 249.318104 
Q 113.428055 249.970604 113.428055 250.955604 
Q 113.428055 252.610604 112.228055 253.773104 
Q 111.030555 254.933104 109.015555 254.933104 
Q 107.670555 254.933104 107.053055 254.485604 
Q 106.608055 254.173104 106.608055 253.683104 
Q 106.608055 253.323104 106.865555 253.070604 
Q 107.123055 252.815604 107.460555 252.815604 
Q 107.718055 252.815604 107.945555 252.923104 
Q 108.070555 252.985604 108.830555 253.608104 
Q 109.593055 254.228104 110.258055 254.228104 
Q 110.835555 254.228104 111.248055 253.773104 
Q 111.663055 253.315604 111.663055 252.610604 
Q 111.663055 251.540604 110.913055 250.638104 
Q 110.163055 249.735604 108.718055 249.393104 
z
M 114.748055 250.713104 
L 119.780555 243.893104 
L 120.733055 243.893104 
L 120.733055 250.713104 
L 121.703055 250.713104 
L 121.703055 252.330604 
L 120.733055 252.330604 
L 120.733055 254.705604 
L 118.585555 254.705604 
L 118.585555 252.330604 
L 114.748055 252.330604 
L 114.748055 250.713104 
z
M 115.508055 250.713104 
L 118.585555 250.713104 
L 118.585555 246.533104 
L 115.508055 250.713104 
z
M 124.350555 252.298104 
Q 124.898055 252.298104 125.275555 252.683104 
Q 125.655555 253.065604 125.655555 253.603104 
Q 125.655555 254.143104 125.273055 254.523104 
Q 124.890555 254.900604 124.350555 254.900604 
Q 123.810555 254.900604 123.430555 254.523104 
Q 123.053055 254.143104 123.053055 253.603104 
Q 123.053055 253.065604 123.430555 252.683104 
Q 123.810555 252.298104 124.350555 252.298104 
z
M 126.748055 250.713104 
L 131.780555 243.893104 
L 132.733055 243.893104 
L 132.733055 250.713104 
L 133.703055 250.713104 
L 133.703055 252.330604 
L 132.733055 252.330604 
L 132.733055 254.705604 
L 130.585555 254.705604 
L 130.585555 252.330604 
L 126.748055 252.330604 
L 126.748055 250.713104 
z
M 127.508055 250.713104 
L 130.585555 250.713104 
L 130.585555 246.533104 
L 127.508055 250.713104 
z
"/>
   </g>
   <g id="text_25">
    <path d="M 361.434697 289.3815 
L 361.434697 298.0465 
Q 361.434697 299.0215 361.519697 299.2915 
Q 361.607197 299.5615 361.879697 299.734 
Q 362.154697 299.904 362.757197 299.904 
L 362.997197 299.904 
L 362.997197 300.194 
L 357.419697 300.194 
L 357.419697 299.904 
L 357.702197 299.904 
Q 358.382197 299.904 358.669697 299.749 
Q 358.959697 299.5915 359.059697 299.319 
Q 359.162197 299.0465 359.162197 298.0465 
L 359.162197 292.554 
Q 359.162197 291.819 359.092197 291.6365 
Q 359.022197 291.4515 358.829697 291.324 
Q 358.639697 291.194 358.389697 291.194 
Q 357.989697 291.194 357.419697 291.444 
L 357.279697 291.1615 
L 361.177197 289.3815 
L 361.434697 289.3815 
z
M 370.849697 300.194 
L 364.614697 300.194 
L 364.614697 300.0215 
Q 367.482197 296.609 368.094697 295.429 
Q 368.709697 294.249 368.709697 293.124 
Q 368.709697 292.304 368.202197 291.7615 
Q 367.694697 291.2165 366.959697 291.2165 
Q 365.757197 291.2165 365.092197 292.4215 
L 364.802197 292.319 
Q 365.224697 290.819 366.084697 290.1015 
Q 366.944697 289.3815 368.069697 289.3815 
Q 368.872197 289.3815 369.537197 289.7565 
Q 370.202197 290.1315 370.577197 290.784 
Q 370.952197 291.4365 370.952197 292.0065 
Q 370.952197 293.0465 370.372197 294.1165 
Q 369.584697 295.5615 366.927197 298.1465 
L 369.217197 298.1465 
Q 370.059697 298.1465 370.314697 298.0765 
Q 370.569697 298.0065 370.732197 297.839 
Q 370.897197 297.6715 371.162197 297.1315 
L 371.444697 297.1315 
L 370.849697 300.194 
z
M 374.224697 297.7865 
Q 374.772197 297.7865 375.149697 298.1715 
Q 375.529697 298.554 375.529697 299.0915 
Q 375.529697 299.6315 375.147197 300.0115 
Q 374.764697 300.389 374.224697 300.389 
Q 373.684697 300.389 373.304697 300.0115 
Q 372.927197 299.6315 372.927197 299.0915 
Q 372.927197 298.554 373.304697 298.1715 
Q 373.684697 297.7865 374.224697 297.7865 
z
M 376.622197 296.2015 
L 381.654697 289.3815 
L 382.607197 289.3815 
L 382.607197 296.2015 
L 383.577197 296.2015 
L 383.577197 297.819 
L 382.607197 297.819 
L 382.607197 300.194 
L 380.459697 300.194 
L 380.459697 297.819 
L 376.622197 297.819 
L 376.622197 296.2015 
z
M 377.382197 296.2015 
L 380.459697 296.2015 
L 380.459697 292.0215 
L 377.382197 296.2015 
z
" style="stroke: #ffffff; stroke-width: 3.8"/>
    <path d="M 361.434697 289.3815 
L 361.434697 298.0465 
Q 361.434697 299.0215 361.519697 299.2915 
Q 361.607197 299.5615 361.879697 299.734 
Q 362.154697 299.904 362.757197 299.904 
L 362.997197 299.904 
L 362.997197 300.194 
L 357.419697 300.194 
L 357.419697 299.904 
L 357.702197 299.904 
Q 358.382197 299.904 358.669697 299.749 
Q 358.959697 299.5915 359.059697 299.319 
Q 359.162197 299.0465 359.162197 298.0465 
L 359.162197 292.554 
Q 359.162197 291.819 359.092197 291.6365 
Q 359.022197 291.4515 358.829697 291.324 
Q 358.639697 291.194 358.389697 291.194 
Q 357.989697 291.194 357.419697 291.444 
L 357.279697 291.1615 
L 361.177197 289.3815 
L 361.434697 289.3815 
z
M 370.849697 300.194 
L 364.614697 300.194 
L 364.614697 300.0215 
Q 367.482197 296.609 368.094697 295.429 
Q 368.709697 294.249 368.709697 293.124 
Q 368.709697 292.304 368.202197 291.7615 
Q 367.694697 291.2165 366.959697 291.2165 
Q 365.757197 291.2165 365.092197 292.4215 
L 364.802197 292.319 
Q 365.224697 290.819 366.084697 290.1015 
Q 366.944697 289.3815 368.069697 289.3815 
Q 368.872197 289.3815 369.537197 289.7565 
Q 370.202197 290.1315 370.577197 290.784 
Q 370.952197 291.4365 370.952197 292.0065 
Q 370.952197 293.0465 370.372197 294.1165 
Q 369.584697 295.5615 366.927197 298.1465 
L 369.217197 298.1465 
Q 370.059697 298.1465 370.314697 298.0765 
Q 370.569697 298.0065 370.732197 297.839 
Q 370.897197 297.6715 371.162197 297.1315 
L 371.444697 297.1315 
L 370.849697 300.194 
z
M 374.224697 297.7865 
Q 374.772197 297.7865 375.149697 298.1715 
Q 375.529697 298.554 375.529697 299.0915 
Q 375.529697 299.6315 375.147197 300.0115 
Q 374.764697 300.389 374.224697 300.389 
Q 373.684697 300.389 373.304697 300.0115 
Q 372.927197 299.6315 372.927197 299.0915 
Q 372.927197 298.554 373.304697 298.1715 
Q 373.684697 297.7865 374.224697 297.7865 
z
M 376.622197 296.2015 
L 381.654697 289.3815 
L 382.607197 289.3815 
L 382.607197 296.2015 
L 383.577197 296.2015 
L 383.577197 297.819 
L 382.607197 297.819 
L 382.607197 300.194 
L 380.459697 300.194 
L 380.459697 297.819 
L 376.622197 297.819 
L 376.622197 296.2015 
z
M 377.382197 296.2015 
L 380.459697 296.2015 
L 380.459697 292.0215 
L 377.382197 296.2015 
z
"/>
   </g>
   <g id="text_26">
    <path d="M 362.849697 202.305722 
L 356.614697 202.305722 
L 356.614697 202.133222 
Q 359.482197 198.720722 360.094697 197.540722 
Q 360.709697 196.360722 360.709697 195.235722 
Q 360.709697 194.415722 360.202197 193.873222 
Q 359.694697 193.328222 358.959697 193.328222 
Q 357.757197 193.328222 357.092197 194.533222 
L 356.802197 194.430722 
Q 357.224697 192.930722 358.084697 192.213222 
Q 358.944697 191.493222 360.069697 191.493222 
Q 360.872197 191.493222 361.537197 191.868222 
Q 362.202197 192.243222 362.577197 192.895722 
Q 362.952197 193.548222 362.952197 194.118222 
Q 362.952197 195.158222 362.372197 196.228222 
Q 361.584697 197.673222 358.927197 200.258222 
L 361.217197 200.258222 
Q 362.059697 200.258222 362.314697 200.188222 
Q 362.569697 200.118222 362.732197 199.950722 
Q 362.897197 199.783222 363.162197 199.243222 
L 363.444697 199.243222 
L 362.849697 202.305722 
z
M 367.059697 202.525722 
L 369.944697 193.783222 
L 367.747197 193.783222 
Q 366.459697 193.783222 365.809697 194.118222 
Q 365.357197 194.353222 365.059697 195.000722 
L 364.764697 195.000722 
L 365.529697 191.710722 
L 371.842197 191.710722 
L 368.287197 202.525722 
L 367.059697 202.525722 
z
M 374.224697 199.898222 
Q 374.772197 199.898222 375.149697 200.283222 
Q 375.529697 200.665722 375.529697 201.203222 
Q 375.529697 201.743222 375.147197 202.123222 
Q 374.764697 202.500722 374.224697 202.500722 
Q 373.684697 202.500722 373.304697 202.123222 
Q 372.927197 201.743222 372.927197 201.203222 
Q 372.927197 200.665722 373.304697 200.283222 
Q 373.684697 199.898222 374.224697 199.898222 
z
M 378.662197 191.710722 
L 383.622197 191.710722 
L 382.834697 193.728222 
L 378.662197 193.728222 
L 378.264697 194.783222 
Q 380.959697 194.883222 382.412197 196.125722 
Q 383.607197 197.148222 383.607197 198.673222 
Q 383.607197 199.648222 383.052197 200.583222 
Q 382.497197 201.515722 381.489697 202.020722 
Q 380.482197 202.525722 379.279697 202.525722 
Q 377.982197 202.525722 377.287197 202.040722 
Q 376.802197 201.695722 376.802197 201.258222 
Q 376.802197 200.923222 377.054697 200.665722 
Q 377.309697 200.408222 377.647197 200.408222 
Q 377.952197 200.408222 378.264697 200.533222 
Q 378.577197 200.658222 379.334697 201.188222 
Q 379.809697 201.515722 380.154697 201.640722 
Q 380.397197 201.735722 380.702197 201.735722 
Q 381.342197 201.735722 381.789697 201.268222 
Q 382.239697 200.798222 382.239697 200.140722 
Q 382.239697 198.765722 380.864697 197.908222 
Q 379.489697 197.048222 377.397197 197.048222 
Q 377.184697 197.048222 376.764697 197.055722 
L 378.662197 191.710722 
z
" style="stroke: #ffffff; stroke-width: 3.8"/>
    <path d="M 362.849697 202.305722 
L 356.614697 202.305722 
L 356.614697 202.133222 
Q 359.482197 198.720722 360.094697 197.540722 
Q 360.709697 196.360722 360.709697 195.235722 
Q 360.709697 194.415722 360.202197 193.873222 
Q 359.694697 193.328222 358.959697 193.328222 
Q 357.757197 193.328222 357.092197 194.533222 
L 356.802197 194.430722 
Q 357.224697 192.930722 358.084697 192.213222 
Q 358.944697 191.493222 360.069697 191.493222 
Q 360.872197 191.493222 361.537197 191.868222 
Q 362.202197 192.243222 362.577197 192.895722 
Q 362.952197 193.548222 362.952197 194.118222 
Q 362.952197 195.158222 362.372197 196.228222 
Q 361.584697 197.673222 358.927197 200.258222 
L 361.217197 200.258222 
Q 362.059697 200.258222 362.314697 200.188222 
Q 362.569697 200.118222 362.732197 199.950722 
Q 362.897197 199.783222 363.162197 199.243222 
L 363.444697 199.243222 
L 362.849697 202.305722 
z
M 367.059697 202.525722 
L 369.944697 193.783222 
L 367.747197 193.783222 
Q 366.459697 193.783222 365.809697 194.118222 
Q 365.357197 194.353222 365.059697 195.000722 
L 364.764697 195.000722 
L 365.529697 191.710722 
L 371.842197 191.710722 
L 368.287197 202.525722 
L 367.059697 202.525722 
z
M 374.224697 199.898222 
Q 374.772197 199.898222 375.149697 200.283222 
Q 375.529697 200.665722 375.529697 201.203222 
Q 375.529697 201.743222 375.147197 202.123222 
Q 374.764697 202.500722 374.224697 202.500722 
Q 373.684697 202.500722 373.304697 202.123222 
Q 372.927197 201.743222 372.927197 201.203222 
Q 372.927197 200.665722 373.304697 200.283222 
Q 373.684697 199.898222 374.224697 199.898222 
z
M 378.662197 191.710722 
L 383.622197 191.710722 
L 382.834697 193.728222 
L 378.662197 193.728222 
L 378.264697 194.783222 
Q 380.959697 194.883222 382.412197 196.125722 
Q 383.607197 197.148222 383.607197 198.673222 
Q 383.607197 199.648222 383.052197 200.583222 
Q 382.497197 201.515722 381.489697 202.020722 
Q 380.482197 202.525722 379.279697 202.525722 
Q 377.982197 202.525722 377.287197 202.040722 
Q 376.802197 201.695722 376.802197 201.258222 
Q 376.802197 200.923222 377.054697 200.665722 
Q 377.309697 200.408222 377.647197 200.408222 
Q 377.952197 200.408222 378.264697 200.533222 
Q 378.577197 200.658222 379.334697 201.188222 
Q 379.809697 201.515722 380.154697 201.640722 
Q 380.397197 201.735722 380.702197 201.735722 
Q 381.342197 201.735722 381.789697 201.268222 
Q 382.239697 200.798222 382.239697 200.140722 
Q 382.239697 198.765722 380.864697 197.908222 
Q 379.489697 197.048222 377.397197 197.048222 
Q 377.184697 197.048222 376.764697 197.055722 
L 378.662197 191.710722 
z
"/>
   </g>
   <g id="text_27">
    <path d="M 356.622197 108.668292 
L 361.654697 101.848292 
L 362.607197 101.848292 
L 362.607197 108.668292 
L 363.577197 108.668292 
L 363.577197 110.285792 
L 362.607197 110.285792 
L 362.607197 112.660792 
L 360.459697 112.660792 
L 360.459697 110.285792 
L 356.622197 110.285792 
L 356.622197 108.668292 
z
M 357.382197 108.668292 
L 360.459697 108.668292 
L 360.459697 104.488292 
L 357.382197 108.668292 
z
M 366.592197 107.348292 
L 366.592197 107.075792 
Q 367.482197 106.815792 367.824697 106.593292 
Q 368.169697 106.370792 368.419697 105.915792 
Q 368.669697 105.458292 368.669697 104.988292 
Q 368.669697 104.340792 368.197197 103.875792 
Q 367.724697 103.410792 367.022197 103.410792 
Q 365.927197 103.410792 365.162197 104.565792 
L 364.872197 104.465792 
Q 365.434697 103.160792 366.314697 102.505792 
Q 367.194697 101.848292 368.272197 101.848292 
Q 369.372197 101.848292 370.087197 102.520792 
Q 370.802197 103.190792 370.802197 104.090792 
Q 370.802197 104.675792 370.469697 105.220792 
Q 370.139697 105.763292 369.427197 106.175792 
Q 370.342197 106.620792 370.822197 107.273292 
Q 371.302197 107.925792 371.302197 108.910792 
Q 371.302197 110.565792 370.102197 111.728292 
Q 368.904697 112.888292 366.889697 112.888292 
Q 365.544697 112.888292 364.927197 112.440792 
Q 364.482197 112.128292 364.482197 111.638292 
Q 364.482197 111.278292 364.739697 111.025792 
Q 364.997197 110.770792 365.334697 110.770792 
Q 365.592197 110.770792 365.819697 110.878292 
Q 365.944697 110.940792 366.704697 111.563292 
Q 367.467197 112.183292 368.132197 112.183292 
Q 368.709697 112.183292 369.122197 111.728292 
Q 369.537197 111.270792 369.537197 110.565792 
Q 369.537197 109.495792 368.787197 108.593292 
Q 368.037197 107.690792 366.592197 107.348292 
z
M 374.224697 110.253292 
Q 374.772197 110.253292 375.149697 110.638292 
Q 375.529697 111.020792 375.529697 111.558292 
Q 375.529697 112.098292 375.147197 112.478292 
Q 374.764697 112.855792 374.224697 112.855792 
Q 373.684697 112.855792 373.304697 112.478292 
Q 372.927197 112.098292 372.927197 111.558292 
Q 372.927197 111.020792 373.304697 110.638292 
Q 373.684697 110.253292 374.224697 110.253292 
z
M 378.662197 102.065792 
L 383.622197 102.065792 
L 382.834697 104.083292 
L 378.662197 104.083292 
L 378.264697 105.138292 
Q 380.959697 105.238292 382.412197 106.480792 
Q 383.607197 107.503292 383.607197 109.028292 
Q 383.607197 110.003292 383.052197 110.938292 
Q 382.497197 111.870792 381.489697 112.375792 
Q 380.482197 112.880792 379.279697 112.880792 
Q 377.982197 112.880792 377.287197 112.395792 
Q 376.802197 112.050792 376.802197 111.613292 
Q 376.802197 111.278292 377.054697 111.020792 
Q 377.309697 110.763292 377.647197 110.763292 
Q 377.952197 110.763292 378.264697 110.888292 
Q 378.577197 111.013292 379.334697 111.543292 
Q 379.809697 111.870792 380.154697 111.995792 
Q 380.397197 112.090792 380.702197 112.090792 
Q 381.342197 112.090792 381.789697 111.623292 
Q 382.239697 111.153292 382.239697 110.495792 
Q 382.239697 109.120792 380.864697 108.263292 
Q 379.489697 107.403292 377.397197 107.403292 
Q 377.184697 107.403292 376.764697 107.410792 
L 378.662197 102.065792 
z
" style="stroke: #ffffff; stroke-width: 3.8"/>
    <path d="M 356.622197 108.668292 
L 361.654697 101.848292 
L 362.607197 101.848292 
L 362.607197 108.668292 
L 363.577197 108.668292 
L 363.577197 110.285792 
L 362.607197 110.285792 
L 362.607197 112.660792 
L 360.459697 112.660792 
L 360.459697 110.285792 
L 356.622197 110.285792 
L 356.622197 108.668292 
z
M 357.382197 108.668292 
L 360.459697 108.668292 
L 360.459697 104.488292 
L 357.382197 108.668292 
z
M 366.592197 107.348292 
L 366.592197 107.075792 
Q 367.482197 106.815792 367.824697 106.593292 
Q 368.169697 106.370792 368.419697 105.915792 
Q 368.669697 105.458292 368.669697 104.988292 
Q 368.669697 104.340792 368.197197 103.875792 
Q 367.724697 103.410792 367.022197 103.410792 
Q 365.927197 103.410792 365.162197 104.565792 
L 364.872197 104.465792 
Q 365.434697 103.160792 366.314697 102.505792 
Q 367.194697 101.848292 368.272197 101.848292 
Q 369.372197 101.848292 370.087197 102.520792 
Q 370.802197 103.190792 370.802197 104.090792 
Q 370.802197 104.675792 370.469697 105.220792 
Q 370.139697 105.763292 369.427197 106.175792 
Q 370.342197 106.620792 370.822197 107.273292 
Q 371.302197 107.925792 371.302197 108.910792 
Q 371.302197 110.565792 370.102197 111.728292 
Q 368.904697 112.888292 366.889697 112.888292 
Q 365.544697 112.888292 364.927197 112.440792 
Q 364.482197 112.128292 364.482197 111.638292 
Q 364.482197 111.278292 364.739697 111.025792 
Q 364.997197 110.770792 365.334697 110.770792 
Q 365.592197 110.770792 365.819697 110.878292 
Q 365.944697 110.940792 366.704697 111.563292 
Q 367.467197 112.183292 368.132197 112.183292 
Q 368.709697 112.183292 369.122197 111.728292 
Q 369.537197 111.270792 369.537197 110.565792 
Q 369.537197 109.495792 368.787197 108.593292 
Q 368.037197 107.690792 366.592197 107.348292 
z
M 374.224697 110.253292 
Q 374.772197 110.253292 375.149697 110.638292 
Q 375.529697 111.020792 375.529697 111.558292 
Q 375.529697 112.098292 375.147197 112.478292 
Q 374.764697 112.855792 374.224697 112.855792 
Q 373.684697 112.855792 373.304697 112.478292 
Q 372.927197 112.098292 372.927197 111.558292 
Q 372.927197 111.020792 373.304697 110.638292 
Q 373.684697 110.253292 374.224697 110.253292 
z
M 378.662197 102.065792 
L 383.622197 102.065792 
L 382.834697 104.083292 
L 378.662197 104.083292 
L 378.264697 105.138292 
Q 380.959697 105.238292 382.412197 106.480792 
Q 383.607197 107.503292 383.607197 109.028292 
Q 383.607197 110.003292 383.052197 110.938292 
Q 382.497197 111.870792 381.489697 112.375792 
Q 380.482197 112.880792 379.279697 112.880792 
Q 377.982197 112.880792 377.287197 112.395792 
Q 376.802197 112.050792 376.802197 111.613292 
Q 376.802197 111.278292 377.054697 111.020792 
Q 377.309697 110.763292 377.647197 110.763292 
Q 377.952197 110.763292 378.264697 110.888292 
Q 378.577197 111.013292 379.334697 111.543292 
Q 379.809697 111.870792 380.154697 111.995792 
Q 380.397197 112.090792 380.702197 112.090792 
Q 381.342197 112.090792 381.789697 111.623292 
Q 382.239697 111.153292 382.239697 110.495792 
Q 382.239697 109.120792 380.864697 108.263292 
Q 379.489697 107.403292 377.397197 107.403292 
Q 377.184697 107.403292 376.764697 107.410792 
L 378.662197 102.065792 
z
"/>
   </g>
   <g id="text_28">
    <path d="M 578.778672 237.644441 
L 572.543672 237.644441 
L 572.543672 237.471941 
Q 575.411172 234.059441 576.023672 232.879441 
Q 576.638672 231.699441 576.638672 230.574441 
Q 576.638672 229.754441 576.131172 229.211941 
Q 575.623672 228.666941 574.888672 228.666941 
Q 573.686172 228.666941 573.021172 229.871941 
L 572.731172 229.769441 
Q 573.153672 228.269441 574.013672 227.551941 
Q 574.873672 226.831941 575.998672 226.831941 
Q 576.801172 226.831941 577.466172 227.206941 
Q 578.131172 227.581941 578.506172 228.234441 
Q 578.881172 228.886941 578.881172 229.456941 
Q 578.881172 230.496941 578.301172 231.566941 
Q 577.513672 233.011941 574.856172 235.596941 
L 577.146172 235.596941 
Q 577.988672 235.596941 578.243672 235.526941 
Q 578.498672 235.456941 578.661172 235.289441 
Q 578.826172 235.121941 579.091172 234.581941 
L 579.373672 234.581941 
L 578.778672 237.644441 
z
M 587.568672 232.346941 
Q 587.568672 233.934441 587.123672 235.309441 
Q 586.856172 236.151941 586.406172 236.691941 
Q 585.958672 237.229441 585.388672 237.546941 
Q 584.818672 237.864441 584.146172 237.864441 
Q 583.381172 237.864441 582.763672 237.474441 
Q 582.146172 237.081941 581.668672 236.354441 
Q 581.326172 235.824441 581.068672 234.941941 
Q 580.731172 233.746941 580.731172 232.471941 
Q 580.731172 230.746941 581.216172 229.299441 
Q 581.613672 228.104441 582.426172 227.469441 
Q 583.238672 226.831941 584.146172 226.831941 
Q 585.068672 226.831941 585.868672 227.461941 
Q 586.668672 228.089441 587.043672 229.151941 
Q 587.568672 230.611941 587.568672 232.346941 
z
M 585.161172 232.331941 
Q 585.161172 229.549441 585.131172 229.089441 
Q 585.051172 228.004441 584.756172 227.621941 
Q 584.561172 227.371941 584.123672 227.371941 
Q 583.786172 227.371941 583.591172 227.559441 
Q 583.301172 227.831941 583.198672 228.524441 
Q 583.098672 229.214441 583.098672 233.346941 
Q 583.098672 235.596941 583.256172 236.361941 
Q 583.373672 236.916941 583.591172 237.104441 
Q 583.811172 237.291941 584.168672 237.291941 
Q 584.561172 237.291941 584.756172 237.041941 
Q 585.083672 236.604441 585.131172 235.691941 
L 585.161172 232.331941 
z
M 590.153672 235.236941 
Q 590.701172 235.236941 591.078672 235.621941 
Q 591.458672 236.004441 591.458672 236.541941 
Q 591.458672 237.081941 591.076172 237.461941 
Q 590.693672 237.839441 590.153672 237.839441 
Q 589.613672 237.839441 589.233672 237.461941 
Q 588.856172 237.081941 588.856172 236.541941 
Q 588.856172 236.004441 589.233672 235.621941 
Q 589.613672 235.236941 590.153672 235.236941 
z
M 597.606172 231.659441 
Q 598.723672 232.479441 599.156172 233.186941 
Q 599.591172 233.894441 599.591172 234.809441 
Q 599.591172 236.089441 598.626172 236.976941 
Q 597.661172 237.864441 596.006172 237.864441 
Q 594.436172 237.864441 593.576172 237.091941 
Q 592.716172 236.316941 592.716172 235.199441 
Q 592.716172 234.346941 593.211172 233.706941 
Q 593.708672 233.066941 594.863672 232.534441 
Q 593.606172 231.574441 593.251172 230.964441 
Q 592.896172 230.354441 592.896172 229.549441 
Q 592.896172 228.486941 593.798672 227.679441 
Q 594.701172 226.871941 596.271172 226.871941 
Q 597.786172 226.871941 598.601172 227.586941 
Q 599.418672 228.299441 599.418672 229.299441 
Q 599.418672 230.049441 598.976172 230.624441 
Q 598.536172 231.199441 597.606172 231.659441 
z
M 597.013672 231.261941 
Q 597.301172 230.871941 597.441172 230.386941 
Q 597.583672 229.901941 597.583672 229.324441 
Q 597.583672 228.309441 597.146172 227.769441 
Q 596.818672 227.354441 596.238672 227.354441 
Q 595.716172 227.354441 595.348672 227.734441 
Q 594.981172 228.111941 594.981172 228.674441 
Q 594.981172 229.246941 595.391172 229.859441 
Q 595.801172 230.471941 597.013672 231.261941 
z
M 595.451172 232.909441 
Q 595.208672 233.129441 595.106172 233.309441 
Q 594.951172 233.581941 594.826172 234.106941 
Q 594.701172 234.629441 594.701172 235.199441 
Q 594.701172 235.934441 594.888672 236.429441 
Q 595.076172 236.924441 595.423672 237.144441 
Q 595.771172 237.361941 596.138672 237.361941 
Q 596.708672 237.361941 597.098672 236.944441 
Q 597.488672 236.526941 597.488672 235.799441 
Q 597.488672 234.284441 595.451172 232.909441 
z
" style="stroke: #ffffff; stroke-width: 3.8"/>
    <path d="M 578.778672 237.644441 
L 572.543672 237.644441 
L 572.543672 237.471941 
Q 575.411172 234.059441 576.023672 232.879441 
Q 576.638672 231.699441 576.638672 230.574441 
Q 576.638672 229.754441 576.131172 229.211941 
Q 575.623672 228.666941 574.888672 228.666941 
Q 573.686172 228.666941 573.021172 229.871941 
L 572.731172 229.769441 
Q 573.153672 228.269441 574.013672 227.551941 
Q 574.873672 226.831941 575.998672 226.831941 
Q 576.801172 226.831941 577.466172 227.206941 
Q 578.131172 227.581941 578.506172 228.234441 
Q 578.881172 228.886941 578.881172 229.456941 
Q 578.881172 230.496941 578.301172 231.566941 
Q 577.513672 233.011941 574.856172 235.596941 
L 577.146172 235.596941 
Q 577.988672 235.596941 578.243672 235.526941 
Q 578.498672 235.456941 578.661172 235.289441 
Q 578.826172 235.121941 579.091172 234.581941 
L 579.373672 234.581941 
L 578.778672 237.644441 
z
M 587.568672 232.346941 
Q 587.568672 233.934441 587.123672 235.309441 
Q 586.856172 236.151941 586.406172 236.691941 
Q 585.958672 237.229441 585.388672 237.546941 
Q 584.818672 237.864441 584.146172 237.864441 
Q 583.381172 237.864441 582.763672 237.474441 
Q 582.146172 237.081941 581.668672 236.354441 
Q 581.326172 235.824441 581.068672 234.941941 
Q 580.731172 233.746941 580.731172 232.471941 
Q 580.731172 230.746941 581.216172 229.299441 
Q 581.613672 228.104441 582.426172 227.469441 
Q 583.238672 226.831941 584.146172 226.831941 
Q 585.068672 226.831941 585.868672 227.461941 
Q 586.668672 228.089441 587.043672 229.151941 
Q 587.568672 230.611941 587.568672 232.346941 
z
M 585.161172 232.331941 
Q 585.161172 229.549441 585.131172 229.089441 
Q 585.051172 228.004441 584.756172 227.621941 
Q 584.561172 227.371941 584.123672 227.371941 
Q 583.786172 227.371941 583.591172 227.559441 
Q 583.301172 227.831941 583.198672 228.524441 
Q 583.098672 229.214441 583.098672 233.346941 
Q 583.098672 235.596941 583.256172 236.361941 
Q 583.373672 236.916941 583.591172 237.104441 
Q 583.811172 237.291941 584.168672 237.291941 
Q 584.561172 237.291941 584.756172 237.041941 
Q 585.083672 236.604441 585.131172 235.691941 
L 585.161172 232.331941 
z
M 590.153672 235.236941 
Q 590.701172 235.236941 591.078672 235.621941 
Q 591.458672 236.004441 591.458672 236.541941 
Q 591.458672 237.081941 591.076172 237.461941 
Q 590.693672 237.839441 590.153672 237.839441 
Q 589.613672 237.839441 589.233672 237.461941 
Q 588.856172 237.081941 588.856172 236.541941 
Q 588.856172 236.004441 589.233672 235.621941 
Q 589.613672 235.236941 590.153672 235.236941 
z
M 597.606172 231.659441 
Q 598.723672 232.479441 599.156172 233.186941 
Q 599.591172 233.894441 599.591172 234.809441 
Q 599.591172 236.089441 598.626172 236.976941 
Q 597.661172 237.864441 596.006172 237.864441 
Q 594.436172 237.864441 593.576172 237.091941 
Q 592.716172 236.316941 592.716172 235.199441 
Q 592.716172 234.346941 593.211172 233.706941 
Q 593.708672 233.066941 594.863672 232.534441 
Q 593.606172 231.574441 593.251172 230.964441 
Q 592.896172 230.354441 592.896172 229.549441 
Q 592.896172 228.486941 593.798672 227.679441 
Q 594.701172 226.871941 596.271172 226.871941 
Q 597.786172 226.871941 598.601172 227.586941 
Q 599.418672 228.299441 599.418672 229.299441 
Q 599.418672 230.049441 598.976172 230.624441 
Q 598.536172 231.199441 597.606172 231.659441 
z
M 597.013672 231.261941 
Q 597.301172 230.871941 597.441172 230.386941 
Q 597.583672 229.901941 597.583672 229.324441 
Q 597.583672 228.309441 597.146172 227.769441 
Q 596.818672 227.354441 596.238672 227.354441 
Q 595.716172 227.354441 595.348672 227.734441 
Q 594.981172 228.111941 594.981172 228.674441 
Q 594.981172 229.246941 595.391172 229.859441 
Q 595.801172 230.471941 597.013672 231.261941 
z
M 595.451172 232.909441 
Q 595.208672 233.129441 595.106172 233.309441 
Q 594.951172 233.581941 594.826172 234.106941 
Q 594.701172 234.629441 594.701172 235.199441 
Q 594.701172 235.934441 594.888672 236.429441 
Q 595.076172 236.924441 595.423672 237.144441 
Q 595.771172 237.361941 596.138672 237.361941 
Q 596.708672 237.361941 597.098672 236.944441 
Q 597.488672 236.526941 597.488672 235.799441 
Q 597.488672 234.284441 595.451172 232.909441 
z
"/>
   </g>
   <g id="text_29">
    <path d="M 575.065986 390.410992 
L 569.220673 390.410992 
L 569.220673 390.249273 
Q 571.908955 387.050054 572.483173 385.943804 
Q 573.059736 384.837554 573.059736 383.782867 
Q 573.059736 383.014117 572.583955 382.505523 
Q 572.108173 381.994586 571.419111 381.994586 
Q 570.291767 381.994586 569.66833 383.124273 
L 569.396455 383.028179 
Q 569.792548 381.621929 570.598798 380.949273 
Q 571.405048 380.274273 572.459736 380.274273 
Q 573.21208 380.274273 573.835517 380.625836 
Q 574.458955 380.977398 574.810517 381.589117 
Q 575.16208 382.200836 575.16208 382.735211 
Q 575.16208 383.710211 574.61833 384.713336 
Q 573.880048 386.068023 571.388642 388.491461 
L 573.535517 388.491461 
Q 574.325361 388.491461 574.564423 388.425836 
Q 574.803486 388.360211 574.95583 388.203179 
Q 575.110517 388.046148 575.358955 387.539898 
L 575.623798 387.539898 
L 575.065986 390.410992 
z
M 578.230048 388.153961 
Q 578.74333 388.153961 579.097236 388.514898 
Q 579.453486 388.873492 579.453486 389.377398 
Q 579.453486 389.883648 579.094892 390.239898 
Q 578.736298 390.593804 578.230048 390.593804 
Q 577.723798 390.593804 577.367548 390.239898 
Q 577.013642 389.883648 577.013642 389.377398 
Q 577.013642 388.873492 577.367548 388.514898 
Q 577.723798 388.153961 578.230048 388.153961 
z
M 584.989423 380.274273 
L 584.989423 388.397711 
Q 584.989423 389.311773 585.069111 389.564898 
Q 585.151142 389.818023 585.406611 389.979742 
Q 585.664423 390.139117 586.229267 390.139117 
L 586.454267 390.139117 
L 586.454267 390.410992 
L 581.225361 390.410992 
L 581.225361 390.139117 
L 581.490205 390.139117 
Q 582.127705 390.139117 582.397236 389.993804 
Q 582.669111 389.846148 582.762861 389.590679 
Q 582.858955 389.335211 582.858955 388.397711 
L 582.858955 383.248492 
Q 582.858955 382.559429 582.79333 382.388336 
Q 582.727705 382.214898 582.547236 382.095367 
Q 582.369111 381.973492 582.134736 381.973492 
Q 581.759736 381.973492 581.225361 382.207867 
L 581.094111 381.943023 
L 584.748017 380.274273 
L 584.989423 380.274273 
z
" style="fill: #404040; stroke: #ffffff; stroke-width: 3.8"/>
    <path d="M 575.065986 390.410992 
L 569.220673 390.410992 
L 569.220673 390.249273 
Q 571.908955 387.050054 572.483173 385.943804 
Q 573.059736 384.837554 573.059736 383.782867 
Q 573.059736 383.014117 572.583955 382.505523 
Q 572.108173 381.994586 571.419111 381.994586 
Q 570.291767 381.994586 569.66833 383.124273 
L 569.396455 383.028179 
Q 569.792548 381.621929 570.598798 380.949273 
Q 571.405048 380.274273 572.459736 380.274273 
Q 573.21208 380.274273 573.835517 380.625836 
Q 574.458955 380.977398 574.810517 381.589117 
Q 575.16208 382.200836 575.16208 382.735211 
Q 575.16208 383.710211 574.61833 384.713336 
Q 573.880048 386.068023 571.388642 388.491461 
L 573.535517 388.491461 
Q 574.325361 388.491461 574.564423 388.425836 
Q 574.803486 388.360211 574.95583 388.203179 
Q 575.110517 388.046148 575.358955 387.539898 
L 575.623798 387.539898 
L 575.065986 390.410992 
z
M 578.230048 388.153961 
Q 578.74333 388.153961 579.097236 388.514898 
Q 579.453486 388.873492 579.453486 389.377398 
Q 579.453486 389.883648 579.094892 390.239898 
Q 578.736298 390.593804 578.230048 390.593804 
Q 577.723798 390.593804 577.367548 390.239898 
Q 577.013642 389.883648 577.013642 389.377398 
Q 577.013642 388.873492 577.367548 388.514898 
Q 577.723798 388.153961 578.230048 388.153961 
z
M 584.989423 380.274273 
L 584.989423 388.397711 
Q 584.989423 389.311773 585.069111 389.564898 
Q 585.151142 389.818023 585.406611 389.979742 
Q 585.664423 390.139117 586.229267 390.139117 
L 586.454267 390.139117 
L 586.454267 390.410992 
L 581.225361 390.410992 
L 581.225361 390.139117 
L 581.490205 390.139117 
Q 582.127705 390.139117 582.397236 389.993804 
Q 582.669111 389.846148 582.762861 389.590679 
Q 582.858955 389.335211 582.858955 388.397711 
L 582.858955 383.248492 
Q 582.858955 382.559429 582.79333 382.388336 
Q 582.727705 382.214898 582.547236 382.095367 
Q 582.369111 381.973492 582.134736 381.973492 
Q 581.759736 381.973492 581.225361 382.207867 
L 581.094111 381.943023 
L 584.748017 380.274273 
L 584.989423 380.274273 
z
" style="fill: #404040"/>
   </g>
   <g id="text_30">
    <path d="M 567.635205 333.330033 
L 567.635205 341.45347 
Q 567.635205 342.367533 567.714893 342.620658 
Q 567.796924 342.873783 568.052393 343.035501 
Q 568.310205 343.194876 568.875049 343.194876 
L 569.100049 343.194876 
L 569.100049 343.466751 
L 563.871143 343.466751 
L 563.871143 343.194876 
L 564.135986 343.194876 
Q 564.773486 343.194876 565.043018 343.049564 
Q 565.314893 342.901908 565.408643 342.646439 
Q 565.504736 342.39097 565.504736 341.45347 
L 565.504736 336.304251 
Q 565.504736 335.615189 565.439111 335.444095 
Q 565.373486 335.270658 565.193018 335.151126 
Q 565.014893 335.029251 564.780518 335.029251 
Q 564.405518 335.029251 563.871143 335.263626 
L 563.739893 334.998783 
L 567.393799 333.330033 
L 567.635205 333.330033 
z
M 575.362549 337.855814 
Q 576.410205 338.624564 576.815674 339.287845 
Q 577.223486 339.951126 577.223486 340.808939 
Q 577.223486 342.008939 576.318799 342.84097 
Q 575.414111 343.673001 573.862549 343.673001 
Q 572.390674 343.673001 571.584424 342.948783 
Q 570.778174 342.22222 570.778174 341.174564 
Q 570.778174 340.375345 571.242236 339.775345 
Q 571.708643 339.175345 572.791455 338.676126 
Q 571.612549 337.776126 571.279736 337.204251 
Q 570.946924 336.632376 570.946924 335.877689 
Q 570.946924 334.881595 571.793018 334.124564 
Q 572.639111 333.367533 574.110986 333.367533 
Q 575.531299 333.367533 576.295361 334.037845 
Q 577.061768 334.705814 577.061768 335.643314 
Q 577.061768 336.346439 576.646924 336.885501 
Q 576.234424 337.424564 575.362549 337.855814 
z
M 574.80708 337.483158 
Q 575.076611 337.117533 575.207861 336.662845 
Q 575.341455 336.208158 575.341455 335.666751 
Q 575.341455 334.715189 574.931299 334.208939 
Q 574.624268 333.819876 574.080518 333.819876 
Q 573.590674 333.819876 573.246143 334.176126 
Q 572.901611 334.530033 572.901611 335.057376 
Q 572.901611 335.594095 573.285986 336.168314 
Q 573.670361 336.742533 574.80708 337.483158 
z
M 573.342236 339.027689 
Q 573.114893 339.233939 573.018799 339.402689 
Q 572.873486 339.658158 572.756299 340.150345 
Q 572.639111 340.640189 572.639111 341.174564 
Q 572.639111 341.863626 572.814893 342.327689 
Q 572.990674 342.791751 573.316455 342.998001 
Q 573.642236 343.201908 573.986768 343.201908 
Q 574.521143 343.201908 574.886768 342.810501 
Q 575.252393 342.419095 575.252393 341.737064 
Q 575.252393 340.316751 573.342236 339.027689 
z
M 579.62583 341.20972 
Q 580.139111 341.20972 580.493018 341.570658 
Q 580.849268 341.929251 580.849268 342.433158 
Q 580.849268 342.939408 580.490674 343.295658 
Q 580.13208 343.649564 579.62583 343.649564 
Q 579.11958 343.649564 578.76333 343.295658 
Q 578.409424 342.939408 578.409424 342.433158 
Q 578.409424 341.929251 578.76333 341.570658 
Q 579.11958 341.20972 579.62583 341.20972 
z
M 581.873486 339.723783 
L 586.591455 333.330033 
L 587.484424 333.330033 
L 587.484424 339.723783 
L 588.393799 339.723783 
L 588.393799 341.240189 
L 587.484424 341.240189 
L 587.484424 343.466751 
L 585.471143 343.466751 
L 585.471143 341.240189 
L 581.873486 341.240189 
L 581.873486 339.723783 
z
M 582.585986 339.723783 
L 585.471143 339.723783 
L 585.471143 335.805033 
L 582.585986 339.723783 
z
" style="fill: #404040; stroke: #ffffff; stroke-width: 3.8"/>
    <path d="M 567.635205 333.330033 
L 567.635205 341.45347 
Q 567.635205 342.367533 567.714893 342.620658 
Q 567.796924 342.873783 568.052393 343.035501 
Q 568.310205 343.194876 568.875049 343.194876 
L 569.100049 343.194876 
L 569.100049 343.466751 
L 563.871143 343.466751 
L 563.871143 343.194876 
L 564.135986 343.194876 
Q 564.773486 343.194876 565.043018 343.049564 
Q 565.314893 342.901908 565.408643 342.646439 
Q 565.504736 342.39097 565.504736 341.45347 
L 565.504736 336.304251 
Q 565.504736 335.615189 565.439111 335.444095 
Q 565.373486 335.270658 565.193018 335.151126 
Q 565.014893 335.029251 564.780518 335.029251 
Q 564.405518 335.029251 563.871143 335.263626 
L 563.739893 334.998783 
L 567.393799 333.330033 
L 567.635205 333.330033 
z
M 575.362549 337.855814 
Q 576.410205 338.624564 576.815674 339.287845 
Q 577.223486 339.951126 577.223486 340.808939 
Q 577.223486 342.008939 576.318799 342.84097 
Q 575.414111 343.673001 573.862549 343.673001 
Q 572.390674 343.673001 571.584424 342.948783 
Q 570.778174 342.22222 570.778174 341.174564 
Q 570.778174 340.375345 571.242236 339.775345 
Q 571.708643 339.175345 572.791455 338.676126 
Q 571.612549 337.776126 571.279736 337.204251 
Q 570.946924 336.632376 570.946924 335.877689 
Q 570.946924 334.881595 571.793018 334.124564 
Q 572.639111 333.367533 574.110986 333.367533 
Q 575.531299 333.367533 576.295361 334.037845 
Q 577.061768 334.705814 577.061768 335.643314 
Q 577.061768 336.346439 576.646924 336.885501 
Q 576.234424 337.424564 575.362549 337.855814 
z
M 574.80708 337.483158 
Q 575.076611 337.117533 575.207861 336.662845 
Q 575.341455 336.208158 575.341455 335.666751 
Q 575.341455 334.715189 574.931299 334.208939 
Q 574.624268 333.819876 574.080518 333.819876 
Q 573.590674 333.819876 573.246143 334.176126 
Q 572.901611 334.530033 572.901611 335.057376 
Q 572.901611 335.594095 573.285986 336.168314 
Q 573.670361 336.742533 574.80708 337.483158 
z
M 573.342236 339.027689 
Q 573.114893 339.233939 573.018799 339.402689 
Q 572.873486 339.658158 572.756299 340.150345 
Q 572.639111 340.640189 572.639111 341.174564 
Q 572.639111 341.863626 572.814893 342.327689 
Q 572.990674 342.791751 573.316455 342.998001 
Q 573.642236 343.201908 573.986768 343.201908 
Q 574.521143 343.201908 574.886768 342.810501 
Q 575.252393 342.419095 575.252393 341.737064 
Q 575.252393 340.316751 573.342236 339.027689 
z
M 579.62583 341.20972 
Q 580.139111 341.20972 580.493018 341.570658 
Q 580.849268 341.929251 580.849268 342.433158 
Q 580.849268 342.939408 580.490674 343.295658 
Q 580.13208 343.649564 579.62583 343.649564 
Q 579.11958 343.649564 578.76333 343.295658 
Q 578.409424 342.939408 578.409424 342.433158 
Q 578.409424 341.929251 578.76333 341.570658 
Q 579.11958 341.20972 579.62583 341.20972 
z
M 581.873486 339.723783 
L 586.591455 333.330033 
L 587.484424 333.330033 
L 587.484424 339.723783 
L 588.393799 339.723783 
L 588.393799 341.240189 
L 587.484424 341.240189 
L 587.484424 343.466751 
L 585.471143 343.466751 
L 585.471143 341.240189 
L 581.873486 341.240189 
L 581.873486 339.723783 
z
M 582.585986 339.723783 
L 585.471143 339.723783 
L 585.471143 335.805033 
L 582.585986 339.723783 
z
" style="fill: #404040"/>
   </g>
   <g id="text_31">
    <path d="M 532.3236 313.289465 
L 532.3236 313.033997 
Q 533.157975 312.790247 533.479068 312.581653 
Q 533.802506 312.373059 534.036881 311.946497 
Q 534.271256 311.51759 534.271256 311.076965 
Q 534.271256 310.469934 533.828287 310.033997 
Q 533.385318 309.598059 532.726725 309.598059 
Q 531.700162 309.598059 530.982975 310.680872 
L 530.7111 310.587122 
Q 531.238443 309.363684 532.063443 308.749622 
Q 532.888443 308.133215 533.8986 308.133215 
Q 534.92985 308.133215 535.600162 308.763684 
Q 536.270475 309.391809 536.270475 310.235559 
Q 536.270475 310.783997 535.958756 311.294934 
Q 535.649381 311.803528 534.981412 312.190247 
Q 535.839225 312.607434 536.289225 313.219153 
Q 536.739225 313.830872 536.739225 314.754309 
Q 536.739225 316.305872 535.614225 317.395715 
Q 534.491568 318.483215 532.602506 318.483215 
Q 531.341568 318.483215 530.762662 318.063684 
Q 530.345475 317.770715 530.345475 317.31134 
Q 530.345475 316.97384 530.586881 316.737122 
Q 530.828287 316.498059 531.144693 316.498059 
Q 531.3861 316.498059 531.599381 316.59884 
Q 531.716568 316.657434 532.429068 317.241028 
Q 533.143912 317.822278 533.76735 317.822278 
Q 534.308756 317.822278 534.695475 317.395715 
Q 535.084537 316.966809 535.084537 316.305872 
Q 535.084537 315.302747 534.381412 314.456653 
Q 533.678287 313.610559 532.3236 313.289465 
z
M 539.479068 316.012903 
Q 539.99235 316.012903 540.346256 316.37384 
Q 540.702506 316.732434 540.702506 317.23634 
Q 540.702506 317.74259 540.343912 318.09884 
Q 539.985318 318.452747 539.479068 318.452747 
Q 538.972818 318.452747 538.616568 318.09884 
Q 538.262662 317.74259 538.262662 317.23634 
Q 538.262662 316.732434 538.616568 316.37384 
Q 538.972818 316.012903 539.479068 316.012903 
z
M 548.399381 308.133215 
L 548.399381 308.337122 
Q 547.075162 308.674622 546.271256 309.206653 
Q 545.469693 309.73634 545.003287 310.495715 
Q 544.539225 311.252747 544.283756 312.373059 
Q 544.607193 312.15509 544.818131 312.087122 
Q 545.293912 311.941809 545.779068 311.941809 
Q 546.89235 311.941809 547.635318 312.752747 
Q 548.378287 313.56134 548.378287 314.958215 
Q 548.378287 315.940247 547.975162 316.760559 
Q 547.572037 317.580872 546.831412 318.028528 
Q 546.093131 318.476184 545.251725 318.476184 
Q 544.335318 318.476184 543.557193 317.974622 
Q 542.781412 317.470715 542.345475 316.50509 
Q 541.911881 315.537122 541.911881 314.402747 
Q 541.911881 312.731653 542.713443 311.29259 
Q 543.515006 309.853528 544.989225 309.000403 
Q 546.465787 308.147278 548.399381 308.133215 
z
M 544.187662 312.966028 
Q 544.129068 313.978528 544.129068 314.447278 
Q 544.129068 315.457434 544.3236 316.401965 
Q 544.518131 317.346497 544.855631 317.728528 
Q 545.097037 317.998059 545.427506 317.998059 
Q 545.762662 317.998059 546.025162 317.606653 
Q 546.290006 317.215247 546.290006 316.012903 
Q 546.290006 313.99259 545.800162 313.22384 
Q 545.4861 312.724622 544.949381 312.724622 
Q 544.656412 312.724622 544.187662 312.966028 
z
" style="fill: #404040; stroke: #ffffff; stroke-width: 3.8"/>
    <path d="M 532.3236 313.289465 
L 532.3236 313.033997 
Q 533.157975 312.790247 533.479068 312.581653 
Q 533.802506 312.373059 534.036881 311.946497 
Q 534.271256 311.51759 534.271256 311.076965 
Q 534.271256 310.469934 533.828287 310.033997 
Q 533.385318 309.598059 532.726725 309.598059 
Q 531.700162 309.598059 530.982975 310.680872 
L 530.7111 310.587122 
Q 531.238443 309.363684 532.063443 308.749622 
Q 532.888443 308.133215 533.8986 308.133215 
Q 534.92985 308.133215 535.600162 308.763684 
Q 536.270475 309.391809 536.270475 310.235559 
Q 536.270475 310.783997 535.958756 311.294934 
Q 535.649381 311.803528 534.981412 312.190247 
Q 535.839225 312.607434 536.289225 313.219153 
Q 536.739225 313.830872 536.739225 314.754309 
Q 536.739225 316.305872 535.614225 317.395715 
Q 534.491568 318.483215 532.602506 318.483215 
Q 531.341568 318.483215 530.762662 318.063684 
Q 530.345475 317.770715 530.345475 317.31134 
Q 530.345475 316.97384 530.586881 316.737122 
Q 530.828287 316.498059 531.144693 316.498059 
Q 531.3861 316.498059 531.599381 316.59884 
Q 531.716568 316.657434 532.429068 317.241028 
Q 533.143912 317.822278 533.76735 317.822278 
Q 534.308756 317.822278 534.695475 317.395715 
Q 535.084537 316.966809 535.084537 316.305872 
Q 535.084537 315.302747 534.381412 314.456653 
Q 533.678287 313.610559 532.3236 313.289465 
z
M 539.479068 316.012903 
Q 539.99235 316.012903 540.346256 316.37384 
Q 540.702506 316.732434 540.702506 317.23634 
Q 540.702506 317.74259 540.343912 318.09884 
Q 539.985318 318.452747 539.479068 318.452747 
Q 538.972818 318.452747 538.616568 318.09884 
Q 538.262662 317.74259 538.262662 317.23634 
Q 538.262662 316.732434 538.616568 316.37384 
Q 538.972818 316.012903 539.479068 316.012903 
z
M 548.399381 308.133215 
L 548.399381 308.337122 
Q 547.075162 308.674622 546.271256 309.206653 
Q 545.469693 309.73634 545.003287 310.495715 
Q 544.539225 311.252747 544.283756 312.373059 
Q 544.607193 312.15509 544.818131 312.087122 
Q 545.293912 311.941809 545.779068 311.941809 
Q 546.89235 311.941809 547.635318 312.752747 
Q 548.378287 313.56134 548.378287 314.958215 
Q 548.378287 315.940247 547.975162 316.760559 
Q 547.572037 317.580872 546.831412 318.028528 
Q 546.093131 318.476184 545.251725 318.476184 
Q 544.335318 318.476184 543.557193 317.974622 
Q 542.781412 317.470715 542.345475 316.50509 
Q 541.911881 315.537122 541.911881 314.402747 
Q 541.911881 312.731653 542.713443 311.29259 
Q 543.515006 309.853528 544.989225 309.000403 
Q 546.465787 308.147278 548.399381 308.133215 
z
M 544.187662 312.966028 
Q 544.129068 313.978528 544.129068 314.447278 
Q 544.129068 315.457434 544.3236 316.401965 
Q 544.518131 317.346497 544.855631 317.728528 
Q 545.097037 317.998059 545.427506 317.998059 
Q 545.762662 317.998059 546.025162 317.606653 
Q 546.290006 317.215247 546.290006 316.012903 
Q 546.290006 313.99259 545.800162 313.22384 
Q 545.4861 312.724622 544.949381 312.724622 
Q 544.656412 312.724622 544.187662 312.966028 
z
" style="fill: #404040"/>
   </g>
   <g id="text_32">
    <path d="M 325.782367 373.313139 
L 319.937054 373.313139 
L 319.937054 373.15142 
Q 322.625336 369.952202 323.199554 368.845952 
Q 323.776117 367.739702 323.776117 366.685014 
Q 323.776117 365.916264 323.300336 365.40767 
Q 322.824554 364.896733 322.135492 364.896733 
Q 321.008148 364.896733 320.384711 366.02642 
L 320.112836 365.930327 
Q 320.508929 364.524077 321.315179 363.85142 
Q 322.121429 363.17642 323.176117 363.17642 
Q 323.928461 363.17642 324.551898 363.527983 
Q 325.175336 363.879545 325.526898 364.491264 
Q 325.878461 365.102983 325.878461 365.637358 
Q 325.878461 366.612358 325.334711 367.615483 
Q 324.596429 368.97017 322.105023 371.393608 
L 324.251898 371.393608 
Q 325.041742 371.393608 325.280804 371.327983 
Q 325.519867 371.262358 325.672211 371.105327 
Q 325.826898 370.948295 326.075336 370.442045 
L 326.340179 370.442045 
L 325.782367 373.313139 
z
M 329.729242 373.519389 
L 332.433929 365.323295 
L 330.373773 365.323295 
Q 329.166742 365.323295 328.557367 365.637358 
Q 328.133148 365.85767 327.854242 366.464702 
L 327.577679 366.464702 
L 328.294867 363.380327 
L 334.212836 363.380327 
L 330.880023 373.519389 
L 329.729242 373.519389 
z
M 336.446429 371.056108 
Q 336.959711 371.056108 337.313617 371.417045 
Q 337.669867 371.775639 337.669867 372.279545 
Q 337.669867 372.785795 337.311273 373.142045 
Q 336.952679 373.495952 336.446429 373.495952 
Q 335.940179 373.495952 335.583929 373.142045 
Q 335.230023 372.785795 335.230023 372.279545 
Q 335.230023 371.775639 335.583929 371.417045 
Q 335.940179 371.056108 336.446429 371.056108 
z
M 340.979242 373.519389 
L 343.683929 365.323295 
L 341.623773 365.323295 
Q 340.416742 365.323295 339.807367 365.637358 
Q 339.383148 365.85767 339.104242 366.464702 
L 338.827679 366.464702 
L 339.544867 363.380327 
L 345.462836 363.380327 
L 342.130023 373.519389 
L 340.979242 373.519389 
z
" style="fill: #404040; stroke: #ffffff; stroke-width: 3.8"/>
    <path d="M 325.782367 373.313139 
L 319.937054 373.313139 
L 319.937054 373.15142 
Q 322.625336 369.952202 323.199554 368.845952 
Q 323.776117 367.739702 323.776117 366.685014 
Q 323.776117 365.916264 323.300336 365.40767 
Q 322.824554 364.896733 322.135492 364.896733 
Q 321.008148 364.896733 320.384711 366.02642 
L 320.112836 365.930327 
Q 320.508929 364.524077 321.315179 363.85142 
Q 322.121429 363.17642 323.176117 363.17642 
Q 323.928461 363.17642 324.551898 363.527983 
Q 325.175336 363.879545 325.526898 364.491264 
Q 325.878461 365.102983 325.878461 365.637358 
Q 325.878461 366.612358 325.334711 367.615483 
Q 324.596429 368.97017 322.105023 371.393608 
L 324.251898 371.393608 
Q 325.041742 371.393608 325.280804 371.327983 
Q 325.519867 371.262358 325.672211 371.105327 
Q 325.826898 370.948295 326.075336 370.442045 
L 326.340179 370.442045 
L 325.782367 373.313139 
z
M 329.729242 373.519389 
L 332.433929 365.323295 
L 330.373773 365.323295 
Q 329.166742 365.323295 328.557367 365.637358 
Q 328.133148 365.85767 327.854242 366.464702 
L 327.577679 366.464702 
L 328.294867 363.380327 
L 334.212836 363.380327 
L 330.880023 373.519389 
L 329.729242 373.519389 
z
M 336.446429 371.056108 
Q 336.959711 371.056108 337.313617 371.417045 
Q 337.669867 371.775639 337.669867 372.279545 
Q 337.669867 372.785795 337.311273 373.142045 
Q 336.952679 373.495952 336.446429 373.495952 
Q 335.940179 373.495952 335.583929 373.142045 
Q 335.230023 372.785795 335.230023 372.279545 
Q 335.230023 371.775639 335.583929 371.417045 
Q 335.940179 371.056108 336.446429 371.056108 
z
M 340.979242 373.519389 
L 343.683929 365.323295 
L 341.623773 365.323295 
Q 340.416742 365.323295 339.807367 365.637358 
Q 339.383148 365.85767 339.104242 366.464702 
L 338.827679 366.464702 
L 339.544867 363.380327 
L 345.462836 363.380327 
L 342.130023 373.519389 
L 340.979242 373.519389 
z
" style="fill: #404040"/>
   </g>
  </g>
 </g>
 <defs>
  <clipPath id="pdf5208f738">
   <rect x="7.2" y="51.034687" width="730.764" height="431.819207"/>
  </clipPath>
 </defs>
</svg>
