<?xml version="1.0" encoding="utf-8" standalone="no"?>
<!DOCTYPE svg PUBLIC "-//W3C//DTD SVG 1.1//EN"
  "http://www.w3.org/Graphics/SVG/1.1/DTD/svg11.dtd">
<svg xmlns:xlink="http://www.w3.org/1999/xlink" width="748.8pt" height="496.714687pt" viewBox="0 0 748.8 496.714687" xmlns="http://www.w3.org/2000/svg" version="1.1">
 <metadata>
  <rdf:RDF xmlns:dc="http://purl.org/dc/elements/1.1/" xmlns:cc="http://creativecommons.org/ns#" xmlns:rdf="http://www.w3.org/1999/02/22-rdf-syntax-ns#">
   <cc:Work>
    <dc:type rdf:resource="http://purl.org/dc/dcmitype/StillImage"/>
    <dc:date>2026-07-13T16:58:21.827194</dc:date>
    <dc:format>image/svg+xml</dc:format>
    <dc:creator>
     <cc:Agent>
      <dc:title>Matplotlib v3.10.8, https://matplotlib.org/</dc:title>
     </cc:Agent>
    </dc:creator>
   </cc:Work>
  </rdf:RDF>
 </metadata>
 <defs>
  <style type="text/css">*{stroke-linejoin: round; stroke-linecap: butt}</style>
 </defs>
 <g id="figure_1">
  <g id="patch_1">
   <path d="M 0 496.714687 
L 748.8 496.714687 
L 748.8 0 
L 0 0 
L 0 496.714687 
z
" style="fill: none"/>
  </g>
  <g id="axes_1">
   <g id="patch_2">
    <path d="M 120.913548 444.201729 
Q 120.913548 453.67084 120.913548 459.932405 
" clip-path="url(#p285be5b9e8)" style="fill: none; stroke: #111111; stroke-width: 2.868916; stroke-linejoin: miter; stroke-linecap: round"/>
    <path d="M 124.775602 452.208298 
L 120.913548 459.932405 
L 117.051495 452.208298 
z
" clip-path="url(#p285be5b9e8)" style="fill: #111111; stroke: #111111; stroke-width: 2.868916; stroke-linejoin: miter; stroke-linecap: round"/>
   </g>
   <g id="patch_3">
    <path d="M 120.913548 372.169527 
Q 120.913548 388.063768 120.913548 399.356826 
" clip-path="url(#p285be5b9e8)" style="fill: none; stroke: #111111; stroke-width: 4.115423; stroke-linejoin: miter; stroke-linecap: round"/>
    <path d="M 125.174484 390.834955 
L 120.913548 399.356826 
L 116.652613 390.834955 
z
" clip-path="url(#p285be5b9e8)" style="fill: #111111; stroke: #111111; stroke-width: 4.115423; stroke-linejoin: miter; stroke-linecap: round"/>
   </g>
   <g id="patch_4">
    <path d="M 120.913548 261.036936 
Q 120.913548 285.543517 120.913548 304.557486 
" clip-path="url(#p285be5b9e8)" style="fill: none; stroke: #111111; stroke-width: 4.912742; stroke-linejoin: miter; stroke-linecap: round"/>
    <path d="M 125.429626 295.525331 
L 120.913548 304.557486 
L 116.397471 295.525331 
z
" clip-path="url(#p285be5b9e8)" style="fill: #111111; stroke: #111111; stroke-width: 4.912742; stroke-linejoin: miter; stroke-linecap: round"/>
   </g>
   <g id="patch_5">
    <path d="M 589.034323 251.494721 
Q 589.034323 286.747771 589.034323 319.531096 
" clip-path="url(#p285be5b9e8)" style="fill: none; stroke: #111111; stroke-width: 2.20899; stroke-linejoin: miter; stroke-linecap: round"/>
    <path d="M 592.685199 312.229342 
L 589.034323 319.531096 
L 585.383446 312.229342 
z
" clip-path="url(#p285be5b9e8)" style="fill: #111111; stroke: #111111; stroke-width: 2.20899; stroke-linejoin: miter; stroke-linecap: round"/>
   </g>
   <g id="line2d_1">
    <path d="M 166.398968 463.139951 
L 553.025032 463.139951 
" clip-path="url(#p285be5b9e8)" style="fill: none; stroke-dasharray: 5.6,4.2; stroke-dashoffset: 0; stroke: #404040; stroke-width: 1.4"/>
   </g>
   <g id="line2d_2">
    <path d="M 166.398968 403.958008 
L 553.025032 403.958008 
" clip-path="url(#p285be5b9e8)" style="fill: none; stroke-dasharray: 5.6,4.2; stroke-dashoffset: 0; stroke: #404040; stroke-width: 1.4"/>
   </g>
   <g id="line2d_3">
    <path d="M 577.662968 322.000821 
L 505.644387 322.000821 
" clip-path="url(#p285be5b9e8)" style="fill: none; stroke-dasharray: 5.6,4.2; stroke-dashoffset: 0; stroke: #404040; stroke-width: 1.4"/>
   </g>
   <g id="patch_6">
    <path d="M 668.633806 322.000821 
Q 594.304136 390.536299 520.633673 458.463957 
" clip-path="url(#p285be5b9e8)" style="fill: none; stroke: #404040; stroke-width: 0.801997; stroke-linejoin: miter; stroke-linecap: round"/>
    <path d="M 526.650154 456.72597 
L 520.633673 458.463957 
L 522.853172 452.60798 
z
" clip-path="url(#p285be5b9e8)" style="fill: #404040; stroke: #404040; stroke-width: 0.801997; stroke-linejoin: miter; stroke-linecap: round"/>
   </g>
   <g id="patch_7">
    <path d="M 623.148387 322.000821 
Q 580.912032 360.944742 540.475762 398.228899 
" clip-path="url(#p285be5b9e8)" style="fill: none; stroke: #404040; stroke-width: 2.189998; stroke-linejoin: miter; stroke-linecap: round"/>
    <path d="M 547.486159 396.203798 
L 540.475762 398.228899 
L 543.06192 391.405521 
z
" clip-path="url(#p285be5b9e8)" style="fill: #404040; stroke: #404040; stroke-width: 2.189998; stroke-linejoin: miter; stroke-linecap: round"/>
   </g>
   <g id="patch_8">
    <path d="M 417.516387 312.943077 
Q 479.47479 317.26339 535.856563 321.194849 
" clip-path="url(#p285be5b9e8)" style="fill: none; stroke: #404040; stroke-width: 5; stroke-linejoin: miter; stroke-linecap: round"/>
    <path d="M 527.769063 316.420715 
L 535.856563 321.194849 
L 527.184756 324.800368 
z
" clip-path="url(#p285be5b9e8)" style="fill: #404040; stroke: #404040; stroke-width: 5; stroke-linejoin: miter; stroke-linecap: round"/>
   </g>
   <g id="patch_9">
    <path d="M 372.030968 312.943077 
Q 336.230038 356.141006 301.655121 397.859608 
" clip-path="url(#p285be5b9e8)" style="fill: none; stroke: #404040; stroke-width: 1.718491; stroke-linejoin: miter; stroke-linecap: round"/>
    <path d="M 308.010832 395.058499 
L 301.655121 397.859608 
L 303.22766 391.094375 
z
" clip-path="url(#p285be5b9e8)" style="fill: #404040; stroke: #404040; stroke-width: 1.718491; stroke-linejoin: miter; stroke-linecap: round"/>
   </g>
   <g id="line2d_4">
    <path d="M 120.913548 403.958008 
L 120.913548 422.89623 
" clip-path="url(#p285be5b9e8)" style="fill: none; stroke: #111111; stroke-width: 2.868916"/>
   </g>
   <g id="line2d_5">
    <path d="M 120.913548 310.050098 
L 120.913548 341.83858 
" clip-path="url(#p285be5b9e8)" style="fill: none; stroke: #111111; stroke-width: 4.115423"/>
   </g>
   <g id="line2d_6">
    <path d="M 120.913548 181.692826 
L 120.913548 230.705989 
" clip-path="url(#p285be5b9e8)" style="fill: none; stroke: #111111; stroke-width: 4.912742"/>
   </g>
   <g id="line2d_7">
    <path d="M 589.034323 150.657673 
L 589.034323 221.163774 
" clip-path="url(#p285be5b9e8)" style="fill: none; stroke: #111111; stroke-width: 2.20899"/>
   </g>
   <g id="line2d_8">
    <path d="M 75.428129 463.139951 
L 166.398968 463.139951 
" clip-path="url(#p285be5b9e8)" style="fill: none; stroke: #111111; stroke-width: 3.6; stroke-linecap: round"/>
   </g>
   <g id="line2d_9">
    <path d="M 75.428129 403.958008 
L 166.398968 403.958008 
" clip-path="url(#p285be5b9e8)" style="fill: none; stroke: #111111; stroke-width: 3.6; stroke-linecap: round"/>
   </g>
   <g id="line2d_10">
    <path d="M 75.428129 310.050098 
L 166.398968 310.050098 
" clip-path="url(#p285be5b9e8)" style="fill: none; stroke: #111111; stroke-width: 3.6; stroke-linecap: round"/>
   </g>
   <g id="line2d_11">
    <path d="M 75.428129 181.692826 
L 166.398968 181.692826 
" clip-path="url(#p285be5b9e8)" style="fill: none; stroke: #111111; stroke-width: 3.6; stroke-linecap: round"/>
   </g>
   <g id="line2d_12">
    <path d="M 326.545548 312.943077 
L 417.516387 312.943077 
" clip-path="url(#p285be5b9e8)" style="fill: none; stroke: #111111; stroke-width: 3.6; stroke-linecap: round"/>
   </g>
   <g id="line2d_13">
    <path d="M 577.662968 322.000821 
L 668.633806 322.000821 
" clip-path="url(#p285be5b9e8)" style="fill: none; stroke: #111111; stroke-width: 3.6; stroke-linecap: round"/>
   </g>
   <g id="line2d_14">
    <path d="M 577.662968 150.657673 
L 668.633806 150.657673 
" clip-path="url(#p285be5b9e8)" style="fill: none; stroke: #111111; stroke-width: 3.6; stroke-linecap: round"/>
   </g>
   <g id="text_1">
    <!-- $^{224}\mathrm{Er}$ -->
    <g transform="translate(333.26 33.034687) scale(0.34 -0.34)">
     <defs>
      <path id="DejaVuSans-32" d="M 1228 531 
L 3431 531 
L 3431 0 
L 469 0 
L 469 531 
Q 828 903 1448 1529 
Q 2069 2156 2228 2338 
Q 2531 2678 2651 2914 
Q 2772 3150 2772 3378 
Q 2772 3750 2511 3984 
Q 2250 4219 1831 4219 
Q 1534 4219 1204 4116 
Q 875 4013 500 3803 
L 500 4441 
Q 881 4594 1212 4672 
Q 1544 4750 1819 4750 
Q 2544 4750 2975 4387 
Q 3406 4025 3406 3419 
Q 3406 3131 3298 2873 
Q 3191 2616 2906 2266 
Q 2828 2175 2409 1742 
Q 1991 1309 1228 531 
z
" transform="scale(0.015625)"/>
      <path id="DejaVuSans-34" d="M 2419 4116 
L 825 1625 
L 2419 1625 
L 2419 4116 
z
M 2253 4666 
L 3047 4666 
L 3047 1625 
L 3713 1625 
L 3713 1100 
L 3047 1100 
L 3047 0 
L 2419 0 
L 2419 1100 
L 313 1100 
L 313 1709 
L 2253 4666 
z
" transform="scale(0.015625)"/>
      <path id="DejaVuSans-45" d="M 628 4666 
L 3578 4666 
L 3578 4134 
L 1259 4134 
L 1259 2753 
L 3481 2753 
L 3481 2222 
L 1259 2222 
L 1259 531 
L 3634 531 
L 3634 0 
L 628 0 
L 628 4666 
z
" transform="scale(0.015625)"/>
      <path id="DejaVuSans-72" d="M 2631 2963 
Q 2534 3019 2420 3045 
Q 2306 3072 2169 3072 
Q 1681 3072 1420 2755 
Q 1159 2438 1159 1844 
L 1159 0 
L 581 0 
L 581 3500 
L 1159 3500 
L 1159 2956 
Q 1341 3275 1631 3429 
Q 1922 3584 2338 3584 
Q 2397 3584 2469 3576 
Q 2541 3569 2628 3553 
L 2631 2963 
z
" transform="scale(0.015625)"/>
     </defs>
     <use xlink:href="#DejaVuSans-32" transform="translate(0.957031 39.046875) scale(0.7)"/>
     <use xlink:href="#DejaVuSans-32" transform="translate(45.493164 39.046875) scale(0.7)"/>
     <use xlink:href="#DejaVuSans-34" transform="translate(90.029297 39.046875) scale(0.7)"/>
     <use xlink:href="#DejaVuSans-45" transform="translate(137.299805 0.765625)"/>
     <use xlink:href="#DejaVuSans-72" transform="translate(200.483398 0.765625)"/>
    </g>
   </g>
   <g id="text_2">
    <!-- 0 -->
    <g transform="translate(47.238597 467.554951) scale(0.16 -0.16)">
     <defs>
      <path id="DejaVuSans-BoldOblique-30" d="M 1913 728 
Q 2153 728 2339 872 
Q 2525 1016 2650 1294 
Q 2738 1491 2809 1742 
Q 2881 1994 2944 2338 
Q 2997 2616 3025 2850 
Q 3053 3084 3053 3250 
Q 3053 3600 2928 3764 
Q 2803 3928 2541 3928 
Q 2297 3928 2112 3789 
Q 1928 3650 1806 3366 
Q 1713 3163 1636 2903 
Q 1559 2644 1503 2338 
Q 1450 2056 1422 1815 
Q 1394 1575 1394 1409 
Q 1394 1063 1522 895 
Q 1650 728 1913 728 
z
M 4225 3072 
Q 4225 2450 4053 1862 
Q 3881 1275 3572 831 
Q 3256 375 2809 142 
Q 2363 -91 1813 -91 
Q 1047 -91 639 343 
Q 231 778 231 1594 
Q 231 2206 401 2795 
Q 572 3384 878 3822 
Q 1200 4281 1644 4515 
Q 2088 4750 2644 4750 
Q 3403 4750 3814 4314 
Q 4225 3878 4225 3072 
z
" transform="scale(0.015625)"/>
     </defs>
     <use xlink:href="#DejaVuSans-BoldOblique-30"/>
    </g>
   </g>
   <g id="text_3">
    <!-- 0⁺ -->
    <g transform="translate(183.456 468.295185) scale(0.23 -0.23)">
     <defs>
      <path id="TimesNewRomanPS-BoldMT-30" d="M 2966 2119 
Q 2966 1484 2788 934 
Q 2681 597 2501 381 
Q 2322 166 2094 39 
Q 1866 -88 1597 -88 
Q 1291 -88 1044 68 
Q 797 225 606 516 
Q 469 728 366 1081 
Q 231 1559 231 2069 
Q 231 2759 425 3338 
Q 584 3816 909 4070 
Q 1234 4325 1597 4325 
Q 1966 4325 2286 4073 
Q 2606 3822 2756 3397 
Q 2966 2813 2966 2119 
z
M 2003 2125 
Q 2003 3238 1991 3422 
Q 1959 3856 1841 4009 
Q 1763 4109 1588 4109 
Q 1453 4109 1375 4034 
Q 1259 3925 1218 3648 
Q 1178 3372 1178 1719 
Q 1178 819 1241 513 
Q 1288 291 1375 216 
Q 1463 141 1606 141 
Q 1763 141 1841 241 
Q 1972 416 1991 781 
L 2003 2125 
z
" transform="scale(0.015625)"/>
      <path id="DejaVuSerif-Bold-207a" d="M 1916 4344 
L 1916 3441 
L 2950 3441 
L 2950 3044 
L 1916 3044 
L 1916 2141 
L 1463 2141 
L 1463 3044 
L 428 3044 
L 428 3441 
L 1463 3441 
L 1463 4344 
L 1916 4344 
z
" transform="scale(0.015625)"/>
     </defs>
     <use xlink:href="#TimesNewRomanPS-BoldMT-30"/>
     <use xlink:href="#DejaVuSerif-Bold-207a" transform="translate(50 0)"/>
    </g>
   </g>
   <g id="text_4">
    <!-- 180 -->
    <g transform="translate(24.973597 408.373008) scale(0.16 -0.16)">
     <defs>
      <path id="DejaVuSans-BoldOblique-31" d="M 441 831 
L 1503 831 
L 2088 3847 
L 953 3622 
L 1113 4441 
L 2241 4666 
L 3384 4666 
L 2644 831 
L 3700 831 
L 3541 0 
L 275 0 
L 441 831 
z
" transform="scale(0.015625)"/>
      <path id="DejaVuSans-BoldOblique-38" d="M 2150 2088 
Q 1784 2088 1539 1839 
Q 1294 1591 1294 1228 
Q 1294 969 1453 817 
Q 1613 666 1888 666 
Q 2259 666 2503 911 
Q 2747 1156 2747 1522 
Q 2747 1781 2586 1934 
Q 2425 2088 2150 2088 
z
M 1381 2484 
Q 1044 2625 876 2850 
Q 709 3075 709 3391 
Q 709 4025 1229 4387 
Q 1750 4750 2669 4750 
Q 3406 4750 3812 4475 
Q 4219 4200 4219 3700 
Q 4219 3256 3936 2940 
Q 3653 2625 3128 2484 
Q 3509 2338 3690 2091 
Q 3872 1844 3872 1466 
Q 3872 747 3311 328 
Q 2750 -91 1772 -91 
Q 1000 -91 570 217 
Q 141 525 141 1075 
Q 141 1572 470 1945 
Q 800 2319 1381 2484 
z
M 2559 3994 
Q 2241 3994 2048 3808 
Q 1856 3622 1856 3316 
Q 1856 3103 1995 2972 
Q 2134 2841 2363 2841 
Q 2681 2841 2873 3027 
Q 3066 3213 3066 3519 
Q 3066 3734 2927 3864 
Q 2788 3994 2559 3994 
z
" transform="scale(0.015625)"/>
     </defs>
     <use xlink:href="#DejaVuSans-BoldOblique-31"/>
     <use xlink:href="#DejaVuSans-BoldOblique-38" transform="translate(69.580078 0)"/>
     <use xlink:href="#DejaVuSans-BoldOblique-30" transform="translate(139.160156 0)"/>
    </g>
   </g>
   <g id="text_5">
    <!-- 2⁺ -->
    <g transform="translate(183.456 409.113243) scale(0.23 -0.23)">
     <defs>
      <path id="TimesNewRomanPS-BoldMT-32" d="M 2650 0 
L 156 0 
L 156 69 
Q 1303 1434 1548 1906 
Q 1794 2378 1794 2828 
Q 1794 3156 1591 3373 
Q 1388 3591 1094 3591 
Q 613 3591 347 3109 
L 231 3150 
Q 400 3750 744 4037 
Q 1088 4325 1538 4325 
Q 1859 4325 2125 4175 
Q 2391 4025 2541 3764 
Q 2691 3503 2691 3275 
Q 2691 2859 2459 2431 
Q 2144 1853 1081 819 
L 1997 819 
Q 2334 819 2436 847 
Q 2538 875 2603 942 
Q 2669 1009 2775 1225 
L 2888 1225 
L 2650 0 
z
" transform="scale(0.015625)"/>
     </defs>
     <use xlink:href="#TimesNewRomanPS-BoldMT-32"/>
     <use xlink:href="#DejaVuSerif-Bold-207a" transform="translate(50 0)"/>
    </g>
   </g>
   <g id="text_6">
    <!-- 464 -->
    <g transform="translate(24.973597 314.465098) scale(0.16 -0.16)">
     <defs>
      <path id="DejaVuSans-BoldOblique-34" d="M 2638 3641 
L 978 1722 
L 2259 1722 
L 2638 3641 
z
M 2606 4666 
L 3975 4666 
L 3397 1722 
L 4063 1722 
L 3897 850 
L 3231 850 
L 3066 0 
L 1925 0 
L 2094 850 
L -6 850 
L 197 1881 
L 2606 4666 
z
" transform="scale(0.015625)"/>
      <path id="DejaVuSans-BoldOblique-36" d="M 2316 2303 
Q 1959 2303 1731 2009 
Q 1503 1716 1503 1253 
Q 1503 975 1643 820 
Q 1784 666 2034 666 
Q 2388 666 2617 955 
Q 2847 1244 2847 1684 
Q 2847 1984 2709 2143 
Q 2572 2303 2316 2303 
z
M 4225 4544 
L 4056 3681 
Q 3788 3819 3534 3887 
Q 3281 3956 3028 3956 
Q 2447 3956 2087 3643 
Q 1728 3331 1650 2766 
Q 1894 2925 2151 3001 
Q 2409 3078 2700 3078 
Q 3275 3078 3640 2737 
Q 4006 2397 4006 1869 
Q 4006 1006 3442 454 
Q 2878 -97 1991 -97 
Q 1194 -97 756 354 
Q 319 806 319 1631 
Q 319 2269 512 2848 
Q 706 3428 1056 3847 
Q 1431 4294 1942 4519 
Q 2453 4744 3091 4744 
Q 3384 4744 3662 4694 
Q 3941 4644 4225 4544 
z
" transform="scale(0.015625)"/>
     </defs>
     <use xlink:href="#DejaVuSans-BoldOblique-34"/>
     <use xlink:href="#DejaVuSans-BoldOblique-36" transform="translate(69.580078 0)"/>
     <use xlink:href="#DejaVuSans-BoldOblique-34" transform="translate(139.160156 0)"/>
    </g>
   </g>
   <g id="text_7">
    <!-- 4⁺ -->
    <g transform="translate(183.456 315.205333) scale(0.23 -0.23)">
     <defs>
      <path id="TimesNewRomanPS-BoldMT-34" d="M 159 1597 
L 2172 4325 
L 2553 4325 
L 2553 1597 
L 2941 1597 
L 2941 950 
L 2553 950 
L 2553 0 
L 1694 0 
L 1694 950 
L 159 950 
L 159 1597 
z
M 463 1597 
L 1694 1597 
L 1694 3269 
L 463 1597 
z
" transform="scale(0.015625)"/>
     </defs>
     <use xlink:href="#TimesNewRomanPS-BoldMT-34"/>
     <use xlink:href="#DejaVuSerif-Bold-207a" transform="translate(50 0)"/>
    </g>
   </g>
   <g id="text_8">
    <!-- 854 -->
    <g transform="translate(24.973597 186.107826) scale(0.16 -0.16)">
     <defs>
      <path id="DejaVuSans-BoldOblique-35" d="M 1131 4666 
L 4122 4666 
L 3950 3781 
L 1919 3781 
L 1778 3059 
Q 1916 3097 2064 3117 
Q 2213 3138 2363 3138 
Q 3078 3138 3481 2811 
Q 3884 2484 3884 1906 
Q 3884 988 3262 448 
Q 2641 -91 1575 -91 
Q 1184 -91 815 -14 
Q 447 63 84 219 
L 269 1166 
Q 616 941 942 834 
Q 1269 728 1606 728 
Q 2100 728 2397 986 
Q 2694 1244 2694 1663 
Q 2694 1963 2469 2139 
Q 2244 2316 1856 2316 
Q 1594 2316 1289 2248 
Q 984 2181 622 2041 
L 1131 4666 
z
" transform="scale(0.015625)"/>
     </defs>
     <use xlink:href="#DejaVuSans-BoldOblique-38"/>
     <use xlink:href="#DejaVuSans-BoldOblique-35" transform="translate(69.580078 0)"/>
     <use xlink:href="#DejaVuSans-BoldOblique-34" transform="translate(139.160156 0)"/>
    </g>
   </g>
   <g id="text_9">
    <!-- 6⁺ -->
    <g transform="translate(183.456 186.84806) scale(0.23 -0.23)">
     <defs>
      <path id="TimesNewRomanPS-BoldMT-36" d="M 3006 4325 
L 3006 4238 
Q 2441 4094 2098 3867 
Q 1756 3641 1557 3317 
Q 1359 2994 1250 2516 
Q 1388 2609 1478 2638 
Q 1681 2700 1888 2700 
Q 2363 2700 2680 2354 
Q 2997 2009 2997 1413 
Q 2997 994 2825 644 
Q 2653 294 2337 103 
Q 2022 -88 1663 -88 
Q 1272 -88 940 126 
Q 609 341 423 753 
Q 238 1166 238 1650 
Q 238 2363 580 2977 
Q 922 3591 1551 3955 
Q 2181 4319 3006 4325 
z
M 1209 2263 
Q 1184 1831 1184 1631 
Q 1184 1200 1267 797 
Q 1350 394 1494 231 
Q 1597 116 1738 116 
Q 1881 116 1993 283 
Q 2106 450 2106 963 
Q 2106 1825 1897 2153 
Q 1763 2366 1534 2366 
Q 1409 2366 1209 2263 
z
" transform="scale(0.015625)"/>
     </defs>
     <use xlink:href="#TimesNewRomanPS-BoldMT-36"/>
     <use xlink:href="#DejaVuSerif-Bold-207a" transform="translate(50 0)"/>
    </g>
   </g>
   <g id="text_10">
    <!-- 456 -->
    <g transform="translate(276.091016 317.358077) scale(0.16 -0.16)">
     <use xlink:href="#DejaVuSans-BoldOblique-34"/>
     <use xlink:href="#DejaVuSans-BoldOblique-35" transform="translate(69.580078 0)"/>
     <use xlink:href="#DejaVuSans-BoldOblique-36" transform="translate(139.160156 0)"/>
    </g>
   </g>
   <g id="text_11">
    <!-- 0⁺ -->
    <g transform="translate(434.573419 318.098312) scale(0.23 -0.23)">
     <use xlink:href="#TimesNewRomanPS-BoldMT-30"/>
     <use xlink:href="#DejaVuSerif-Bold-207a" transform="translate(50 0)"/>
    </g>
   </g>
   <g id="text_12">
    <!-- 428 -->
    <g transform="translate(527.208435 326.415821) scale(0.16 -0.16)">
     <defs>
      <path id="DejaVuSans-BoldOblique-32" d="M 1581 884 
L 3609 884 
L 3438 0 
L 50 0 
L 225 891 
L 2209 2388 
Q 2534 2638 2704 2894 
Q 2875 3150 2875 3391 
Q 2875 3647 2700 3787 
Q 2525 3928 2209 3928 
Q 1913 3928 1547 3811 
Q 1181 3694 722 3450 
L 922 4441 
Q 1347 4597 1756 4673 
Q 2166 4750 2566 4750 
Q 3278 4750 3687 4442 
Q 4097 4134 4097 3603 
Q 4097 3147 3847 2772 
Q 3597 2397 2747 1759 
L 1581 884 
z
" transform="scale(0.015625)"/>
     </defs>
     <use xlink:href="#DejaVuSans-BoldOblique-34"/>
     <use xlink:href="#DejaVuSans-BoldOblique-32" transform="translate(69.580078 0)"/>
     <use xlink:href="#DejaVuSans-BoldOblique-38" transform="translate(139.160156 0)"/>
    </g>
   </g>
   <g id="text_13">
    <!-- 2⁺ -->
    <g transform="translate(685.690839 327.156056) scale(0.23 -0.23)">
     <use xlink:href="#TimesNewRomanPS-BoldMT-32"/>
     <use xlink:href="#DejaVuSerif-Bold-207a" transform="translate(50 0)"/>
    </g>
   </g>
   <g id="text_14">
    <!-- 948 -->
    <g transform="translate(527.208435 155.072673) scale(0.16 -0.16)">
     <defs>
      <path id="DejaVuSans-BoldOblique-39" d="M 263 103 
L 428 966 
Q 700 825 953 758 
Q 1206 691 1459 691 
Q 2041 691 2400 1003 
Q 2759 1316 2834 1881 
Q 2594 1722 2337 1645 
Q 2081 1569 1791 1569 
Q 1219 1569 853 1909 
Q 488 2250 488 2778 
Q 488 3641 1052 4192 
Q 1616 4744 2503 4744 
Q 3300 4744 3736 4292 
Q 4172 3841 4172 3016 
Q 4172 2381 3978 1801 
Q 3784 1222 3431 800 
Q 3056 353 2548 128 
Q 2041 -97 1403 -97 
Q 1106 -97 825 -47 
Q 544 3 263 103 
z
M 2169 2344 
Q 2525 2344 2753 2637 
Q 2981 2931 2981 3391 
Q 2981 3675 2845 3828 
Q 2709 3981 2456 3981 
Q 2103 3981 1870 3690 
Q 1638 3400 1638 2963 
Q 1638 2663 1775 2503 
Q 1913 2344 2169 2344 
z
" transform="scale(0.015625)"/>
     </defs>
     <use xlink:href="#DejaVuSans-BoldOblique-39"/>
     <use xlink:href="#DejaVuSans-BoldOblique-34" transform="translate(69.580078 0)"/>
     <use xlink:href="#DejaVuSans-BoldOblique-38" transform="translate(139.160156 0)"/>
    </g>
   </g>
   <g id="text_15">
    <!-- 3⁺ -->
    <g transform="translate(685.690839 155.812908) scale(0.23 -0.23)">
     <defs>
      <path id="TimesNewRomanPS-BoldMT-33" d="M 947 2125 
L 947 2234 
Q 1303 2338 1440 2427 
Q 1578 2516 1678 2698 
Q 1778 2881 1778 3069 
Q 1778 3328 1589 3514 
Q 1400 3700 1119 3700 
Q 681 3700 375 3238 
L 259 3278 
Q 484 3800 836 4062 
Q 1188 4325 1619 4325 
Q 2059 4325 2345 4056 
Q 2631 3788 2631 3428 
Q 2631 3194 2498 2976 
Q 2366 2759 2081 2594 
Q 2447 2416 2639 2155 
Q 2831 1894 2831 1500 
Q 2831 838 2351 373 
Q 1872 -91 1066 -91 
Q 528 -91 281 88 
Q 103 213 103 409 
Q 103 553 206 654 
Q 309 756 444 756 
Q 547 756 638 713 
Q 688 688 992 439 
Q 1297 191 1563 191 
Q 1794 191 1959 373 
Q 2125 556 2125 838 
Q 2125 1266 1825 1627 
Q 1525 1988 947 2125 
z
" transform="scale(0.015625)"/>
     </defs>
     <use xlink:href="#TimesNewRomanPS-BoldMT-33"/>
     <use xlink:href="#DejaVuSerif-Bold-207a" transform="translate(50 0)"/>
    </g>
   </g>
   <g id="text_16">
    <path d="M 108.123548 426.322729 
L 108.123548 434.987729 
Q 108.123548 435.962729 108.208548 436.232729 
Q 108.296048 436.502729 108.568548 436.675229 
Q 108.843548 436.845229 109.446048 436.845229 
L 109.686048 436.845229 
L 109.686048 437.135229 
L 104.108548 437.135229 
L 104.108548 436.845229 
L 104.391048 436.845229 
Q 105.071048 436.845229 105.358548 436.690229 
Q 105.648548 436.532729 105.748548 436.260229 
Q 105.851048 435.987729 105.851048 434.987729 
L 105.851048 429.495229 
Q 105.851048 428.760229 105.781048 428.577729 
Q 105.711048 428.392729 105.518548 428.265229 
Q 105.328548 428.135229 105.078548 428.135229 
Q 104.678548 428.135229 104.108548 428.385229 
L 103.968548 428.102729 
L 107.866048 426.322729 
L 108.123548 426.322729 
z
M 113.351048 426.540229 
L 118.311048 426.540229 
L 117.523548 428.557729 
L 113.351048 428.557729 
L 112.953548 429.612729 
Q 115.648548 429.712729 117.101048 430.955229 
Q 118.296048 431.977729 118.296048 433.502729 
Q 118.296048 434.477729 117.741048 435.412729 
Q 117.186048 436.345229 116.178548 436.850229 
Q 115.171048 437.355229 113.968548 437.355229 
Q 112.671048 437.355229 111.976048 436.870229 
Q 111.491048 436.525229 111.491048 436.087729 
Q 111.491048 435.752729 111.743548 435.495229 
Q 111.998548 435.237729 112.336048 435.237729 
Q 112.641048 435.237729 112.953548 435.362729 
Q 113.266048 435.487729 114.023548 436.017729 
Q 114.498548 436.345229 114.843548 436.470229 
Q 115.086048 436.565229 115.391048 436.565229 
Q 116.031048 436.565229 116.478548 436.097729 
Q 116.928548 435.627729 116.928548 434.970229 
Q 116.928548 433.595229 115.553548 432.737729 
Q 114.178548 431.877729 112.086048 431.877729 
Q 111.873548 431.877729 111.453548 431.885229 
L 113.351048 426.540229 
z
M 119.406048 437.355229 
L 119.406048 437.135229 
Q 120.703548 436.837729 121.606048 436.260229 
Q 122.508548 435.682729 123.033548 434.830229 
Q 123.561048 433.977729 123.773548 432.870229 
Q 123.288548 433.120229 122.948548 433.217729 
Q 122.608548 433.315229 122.233548 433.315229 
Q 121.031048 433.315229 120.228548 432.447729 
Q 119.428548 431.580229 119.428548 430.072729 
Q 119.428548 429.025229 119.861048 428.155229 
Q 120.296048 427.282729 121.101048 426.802729 
Q 121.906048 426.322729 122.773548 426.322729 
Q 123.703548 426.322729 124.531048 426.855229 
Q 125.358548 427.385229 125.851048 428.392729 
Q 126.343548 429.400229 126.343548 430.690229 
Q 126.343548 432.362729 125.541048 433.895229 
Q 124.741048 435.425229 123.156048 436.350229 
Q 121.571048 437.275229 119.406048 437.355229 
z
M 123.891048 432.212729 
Q 123.968548 431.337729 123.968548 430.675229 
Q 123.968548 429.252729 123.641048 428.025229 
Q 123.453548 427.345229 123.086048 427.025229 
Q 122.891048 426.852729 122.578548 426.852729 
Q 122.186048 426.852729 121.968548 427.190229 
Q 121.663548 427.650229 121.663548 428.947729 
Q 121.663548 431.112729 122.178548 431.932729 
Q 122.516048 432.462729 123.086048 432.462729 
Q 123.391048 432.462729 123.891048 432.212729 
z
M 128.913548 434.727729 
Q 129.461048 434.727729 129.838548 435.112729 
Q 130.218548 435.495229 130.218548 436.032729 
Q 130.218548 436.572729 129.836048 436.952729 
Q 129.453548 437.330229 128.913548 437.330229 
Q 128.373548 437.330229 127.993548 436.952729 
Q 127.616048 436.572729 127.616048 436.032729 
Q 127.616048 435.495229 127.993548 435.112729 
Q 128.373548 434.727729 128.913548 434.727729 
z
M 133.281048 431.822729 
L 133.281048 431.550229 
Q 134.171048 431.290229 134.513548 431.067729 
Q 134.858548 430.845229 135.108548 430.390229 
Q 135.358548 429.932729 135.358548 429.462729 
Q 135.358548 428.815229 134.886048 428.350229 
Q 134.413548 427.885229 133.711048 427.885229 
Q 132.616048 427.885229 131.851048 429.040229 
L 131.561048 428.940229 
Q 132.123548 427.635229 133.003548 426.980229 
Q 133.883548 426.322729 134.961048 426.322729 
Q 136.061048 426.322729 136.776048 426.995229 
Q 137.491048 427.665229 137.491048 428.565229 
Q 137.491048 429.150229 137.158548 429.695229 
Q 136.828548 430.237729 136.116048 430.650229 
Q 137.031048 431.095229 137.511048 431.747729 
Q 137.991048 432.400229 137.991048 433.385229 
Q 137.991048 435.040229 136.791048 436.202729 
Q 135.593548 437.362729 133.578548 437.362729 
Q 132.233548 437.362729 131.616048 436.915229 
Q 131.171048 436.602729 131.171048 436.112729 
Q 131.171048 435.752729 131.428548 435.500229 
Q 131.686048 435.245229 132.023548 435.245229 
Q 132.281048 435.245229 132.508548 435.352729 
Q 132.633548 435.415229 133.393548 436.037729 
Q 134.156048 436.657729 134.821048 436.657729 
Q 135.398548 436.657729 135.811048 436.202729 
Q 136.226048 435.745229 136.226048 435.040229 
Q 136.226048 433.970229 135.476048 433.067729 
Q 134.726048 432.165229 133.281048 431.822729 
z
" style="stroke: #ffffff; stroke-width: 3.8"/>
    <path d="M 108.123548 426.322729 
L 108.123548 434.987729 
Q 108.123548 435.962729 108.208548 436.232729 
Q 108.296048 436.502729 108.568548 436.675229 
Q 108.843548 436.845229 109.446048 436.845229 
L 109.686048 436.845229 
L 109.686048 437.135229 
L 104.108548 437.135229 
L 104.108548 436.845229 
L 104.391048 436.845229 
Q 105.071048 436.845229 105.358548 436.690229 
Q 105.648548 436.532729 105.748548 436.260229 
Q 105.851048 435.987729 105.851048 434.987729 
L 105.851048 429.495229 
Q 105.851048 428.760229 105.781048 428.577729 
Q 105.711048 428.392729 105.518548 428.265229 
Q 105.328548 428.135229 105.078548 428.135229 
Q 104.678548 428.135229 104.108548 428.385229 
L 103.968548 428.102729 
L 107.866048 426.322729 
L 108.123548 426.322729 
z
M 113.351048 426.540229 
L 118.311048 426.540229 
L 117.523548 428.557729 
L 113.351048 428.557729 
L 112.953548 429.612729 
Q 115.648548 429.712729 117.101048 430.955229 
Q 118.296048 431.977729 118.296048 433.502729 
Q 118.296048 434.477729 117.741048 435.412729 
Q 117.186048 436.345229 116.178548 436.850229 
Q 115.171048 437.355229 113.968548 437.355229 
Q 112.671048 437.355229 111.976048 436.870229 
Q 111.491048 436.525229 111.491048 436.087729 
Q 111.491048 435.752729 111.743548 435.495229 
Q 111.998548 435.237729 112.336048 435.237729 
Q 112.641048 435.237729 112.953548 435.362729 
Q 113.266048 435.487729 114.023548 436.017729 
Q 114.498548 436.345229 114.843548 436.470229 
Q 115.086048 436.565229 115.391048 436.565229 
Q 116.031048 436.565229 116.478548 436.097729 
Q 116.928548 435.627729 116.928548 434.970229 
Q 116.928548 433.595229 115.553548 432.737729 
Q 114.178548 431.877729 112.086048 431.877729 
Q 111.873548 431.877729 111.453548 431.885229 
L 113.351048 426.540229 
z
M 119.406048 437.355229 
L 119.406048 437.135229 
Q 120.703548 436.837729 121.606048 436.260229 
Q 122.508548 435.682729 123.033548 434.830229 
Q 123.561048 433.977729 123.773548 432.870229 
Q 123.288548 433.120229 122.948548 433.217729 
Q 122.608548 433.315229 122.233548 433.315229 
Q 121.031048 433.315229 120.228548 432.447729 
Q 119.428548 431.580229 119.428548 430.072729 
Q 119.428548 429.025229 119.861048 428.155229 
Q 120.296048 427.282729 121.101048 426.802729 
Q 121.906048 426.322729 122.773548 426.322729 
Q 123.703548 426.322729 124.531048 426.855229 
Q 125.358548 427.385229 125.851048 428.392729 
Q 126.343548 429.400229 126.343548 430.690229 
Q 126.343548 432.362729 125.541048 433.895229 
Q 124.741048 435.425229 123.156048 436.350229 
Q 121.571048 437.275229 119.406048 437.355229 
z
M 123.891048 432.212729 
Q 123.968548 431.337729 123.968548 430.675229 
Q 123.968548 429.252729 123.641048 428.025229 
Q 123.453548 427.345229 123.086048 427.025229 
Q 122.891048 426.852729 122.578548 426.852729 
Q 122.186048 426.852729 121.968548 427.190229 
Q 121.663548 427.650229 121.663548 428.947729 
Q 121.663548 431.112729 122.178548 431.932729 
Q 122.516048 432.462729 123.086048 432.462729 
Q 123.391048 432.462729 123.891048 432.212729 
z
M 128.913548 434.727729 
Q 129.461048 434.727729 129.838548 435.112729 
Q 130.218548 435.495229 130.218548 436.032729 
Q 130.218548 436.572729 129.836048 436.952729 
Q 129.453548 437.330229 128.913548 437.330229 
Q 128.373548 437.330229 127.993548 436.952729 
Q 127.616048 436.572729 127.616048 436.032729 
Q 127.616048 435.495229 127.993548 435.112729 
Q 128.373548 434.727729 128.913548 434.727729 
z
M 133.281048 431.822729 
L 133.281048 431.550229 
Q 134.171048 431.290229 134.513548 431.067729 
Q 134.858548 430.845229 135.108548 430.390229 
Q 135.358548 429.932729 135.358548 429.462729 
Q 135.358548 428.815229 134.886048 428.350229 
Q 134.413548 427.885229 133.711048 427.885229 
Q 132.616048 427.885229 131.851048 429.040229 
L 131.561048 428.940229 
Q 132.123548 427.635229 133.003548 426.980229 
Q 133.883548 426.322729 134.961048 426.322729 
Q 136.061048 426.322729 136.776048 426.995229 
Q 137.491048 427.665229 137.491048 428.565229 
Q 137.491048 429.150229 137.158548 429.695229 
Q 136.828548 430.237729 136.116048 430.650229 
Q 137.031048 431.095229 137.511048 431.747729 
Q 137.991048 432.400229 137.991048 433.385229 
Q 137.991048 435.040229 136.791048 436.202729 
Q 135.593548 437.362729 133.578548 437.362729 
Q 132.233548 437.362729 131.616048 436.915229 
Q 131.171048 436.602729 131.171048 436.112729 
Q 131.171048 435.752729 131.428548 435.500229 
Q 131.686048 435.245229 132.023548 435.245229 
Q 132.281048 435.245229 132.508548 435.352729 
Q 132.633548 435.415229 133.393548 436.037729 
Q 134.156048 436.657729 134.821048 436.657729 
Q 135.398548 436.657729 135.811048 436.202729 
Q 136.226048 435.745229 136.226048 435.040229 
Q 136.226048 433.970229 135.476048 433.067729 
Q 134.726048 432.165229 133.281048 431.822729 
z
"/>
   </g>
   <g id="text_17">
    <path d="M 109.538548 360.590303 
L 103.303548 360.590303 
L 103.303548 360.417803 
Q 106.171048 357.005303 106.783548 355.825303 
Q 107.398548 354.645303 107.398548 353.520303 
Q 107.398548 352.700303 106.891048 352.157803 
Q 106.383548 351.612803 105.648548 351.612803 
Q 104.446048 351.612803 103.781048 352.817803 
L 103.491048 352.715303 
Q 103.913548 351.215303 104.773548 350.497803 
Q 105.633548 349.777803 106.758548 349.777803 
Q 107.561048 349.777803 108.226048 350.152803 
Q 108.891048 350.527803 109.266048 351.180303 
Q 109.641048 351.832803 109.641048 352.402803 
Q 109.641048 353.442803 109.061048 354.512803 
Q 108.273548 355.957803 105.616048 358.542803 
L 107.906048 358.542803 
Q 108.748548 358.542803 109.003548 358.472803 
Q 109.258548 358.402803 109.421048 358.235303 
Q 109.586048 358.067803 109.851048 357.527803 
L 110.133548 357.527803 
L 109.538548 360.590303 
z
M 113.351048 349.995303 
L 118.311048 349.995303 
L 117.523548 352.012803 
L 113.351048 352.012803 
L 112.953548 353.067803 
Q 115.648548 353.167803 117.101048 354.410303 
Q 118.296048 355.432803 118.296048 356.957803 
Q 118.296048 357.932803 117.741048 358.867803 
Q 117.186048 359.800303 116.178548 360.305303 
Q 115.171048 360.810303 113.968548 360.810303 
Q 112.671048 360.810303 111.976048 360.325303 
Q 111.491048 359.980303 111.491048 359.542803 
Q 111.491048 359.207803 111.743548 358.950303 
Q 111.998548 358.692803 112.336048 358.692803 
Q 112.641048 358.692803 112.953548 358.817803 
Q 113.266048 358.942803 114.023548 359.472803 
Q 114.498548 359.800303 114.843548 359.925303 
Q 115.086048 360.020303 115.391048 360.020303 
Q 116.031048 360.020303 116.478548 359.552803 
Q 116.928548 359.082803 116.928548 358.425303 
Q 116.928548 357.050303 115.553548 356.192803 
Q 114.178548 355.332803 112.086048 355.332803 
Q 111.873548 355.332803 111.453548 355.340303 
L 113.351048 349.995303 
z
M 121.351048 349.995303 
L 126.311048 349.995303 
L 125.523548 352.012803 
L 121.351048 352.012803 
L 120.953548 353.067803 
Q 123.648548 353.167803 125.101048 354.410303 
Q 126.296048 355.432803 126.296048 356.957803 
Q 126.296048 357.932803 125.741048 358.867803 
Q 125.186048 359.800303 124.178548 360.305303 
Q 123.171048 360.810303 121.968548 360.810303 
Q 120.671048 360.810303 119.976048 360.325303 
Q 119.491048 359.980303 119.491048 359.542803 
Q 119.491048 359.207803 119.743548 358.950303 
Q 119.998548 358.692803 120.336048 358.692803 
Q 120.641048 358.692803 120.953548 358.817803 
Q 121.266048 358.942803 122.023548 359.472803 
Q 122.498548 359.800303 122.843548 359.925303 
Q 123.086048 360.020303 123.391048 360.020303 
Q 124.031048 360.020303 124.478548 359.552803 
Q 124.928548 359.082803 124.928548 358.425303 
Q 124.928548 357.050303 123.553548 356.192803 
Q 122.178548 355.332803 120.086048 355.332803 
Q 119.873548 355.332803 119.453548 355.340303 
L 121.351048 349.995303 
z
M 128.913548 358.182803 
Q 129.461048 358.182803 129.838548 358.567803 
Q 130.218548 358.950303 130.218548 359.487803 
Q 130.218548 360.027803 129.836048 360.407803 
Q 129.453548 360.785303 128.913548 360.785303 
Q 128.373548 360.785303 127.993548 360.407803 
Q 127.616048 360.027803 127.616048 359.487803 
Q 127.616048 358.950303 127.993548 358.567803 
Q 128.373548 358.182803 128.913548 358.182803 
z
M 133.281048 355.277803 
L 133.281048 355.005303 
Q 134.171048 354.745303 134.513548 354.522803 
Q 134.858548 354.300303 135.108548 353.845303 
Q 135.358548 353.387803 135.358548 352.917803 
Q 135.358548 352.270303 134.886048 351.805303 
Q 134.413548 351.340303 133.711048 351.340303 
Q 132.616048 351.340303 131.851048 352.495303 
L 131.561048 352.395303 
Q 132.123548 351.090303 133.003548 350.435303 
Q 133.883548 349.777803 134.961048 349.777803 
Q 136.061048 349.777803 136.776048 350.450303 
Q 137.491048 351.120303 137.491048 352.020303 
Q 137.491048 352.605303 137.158548 353.150303 
Q 136.828548 353.692803 136.116048 354.105303 
Q 137.031048 354.550303 137.511048 355.202803 
Q 137.991048 355.855303 137.991048 356.840303 
Q 137.991048 358.495303 136.791048 359.657803 
Q 135.593548 360.817803 133.578548 360.817803 
Q 132.233548 360.817803 131.616048 360.370303 
Q 131.171048 360.057803 131.171048 359.567803 
Q 131.171048 359.207803 131.428548 358.955303 
Q 131.686048 358.700303 132.023548 358.700303 
Q 132.281048 358.700303 132.508548 358.807803 
Q 132.633548 358.870303 133.393548 359.492803 
Q 134.156048 360.112803 134.821048 360.112803 
Q 135.398548 360.112803 135.811048 359.657803 
Q 136.226048 359.200303 136.226048 358.495303 
Q 136.226048 357.425303 135.476048 356.522803 
Q 134.726048 355.620303 133.281048 355.277803 
z
" style="stroke: #ffffff; stroke-width: 3.8"/>
    <path d="M 109.538548 360.590303 
L 103.303548 360.590303 
L 103.303548 360.417803 
Q 106.171048 357.005303 106.783548 355.825303 
Q 107.398548 354.645303 107.398548 353.520303 
Q 107.398548 352.700303 106.891048 352.157803 
Q 106.383548 351.612803 105.648548 351.612803 
Q 104.446048 351.612803 103.781048 352.817803 
L 103.491048 352.715303 
Q 103.913548 351.215303 104.773548 350.497803 
Q 105.633548 349.777803 106.758548 349.777803 
Q 107.561048 349.777803 108.226048 350.152803 
Q 108.891048 350.527803 109.266048 351.180303 
Q 109.641048 351.832803 109.641048 352.402803 
Q 109.641048 353.442803 109.061048 354.512803 
Q 108.273548 355.957803 105.616048 358.542803 
L 107.906048 358.542803 
Q 108.748548 358.542803 109.003548 358.472803 
Q 109.258548 358.402803 109.421048 358.235303 
Q 109.586048 358.067803 109.851048 357.527803 
L 110.133548 357.527803 
L 109.538548 360.590303 
z
M 113.351048 349.995303 
L 118.311048 349.995303 
L 117.523548 352.012803 
L 113.351048 352.012803 
L 112.953548 353.067803 
Q 115.648548 353.167803 117.101048 354.410303 
Q 118.296048 355.432803 118.296048 356.957803 
Q 118.296048 357.932803 117.741048 358.867803 
Q 117.186048 359.800303 116.178548 360.305303 
Q 115.171048 360.810303 113.968548 360.810303 
Q 112.671048 360.810303 111.976048 360.325303 
Q 111.491048 359.980303 111.491048 359.542803 
Q 111.491048 359.207803 111.743548 358.950303 
Q 111.998548 358.692803 112.336048 358.692803 
Q 112.641048 358.692803 112.953548 358.817803 
Q 113.266048 358.942803 114.023548 359.472803 
Q 114.498548 359.800303 114.843548 359.925303 
Q 115.086048 360.020303 115.391048 360.020303 
Q 116.031048 360.020303 116.478548 359.552803 
Q 116.928548 359.082803 116.928548 358.425303 
Q 116.928548 357.050303 115.553548 356.192803 
Q 114.178548 355.332803 112.086048 355.332803 
Q 111.873548 355.332803 111.453548 355.340303 
L 113.351048 349.995303 
z
M 121.351048 349.995303 
L 126.311048 349.995303 
L 125.523548 352.012803 
L 121.351048 352.012803 
L 120.953548 353.067803 
Q 123.648548 353.167803 125.101048 354.410303 
Q 126.296048 355.432803 126.296048 356.957803 
Q 126.296048 357.932803 125.741048 358.867803 
Q 125.186048 359.800303 124.178548 360.305303 
Q 123.171048 360.810303 121.968548 360.810303 
Q 120.671048 360.810303 119.976048 360.325303 
Q 119.491048 359.980303 119.491048 359.542803 
Q 119.491048 359.207803 119.743548 358.950303 
Q 119.998548 358.692803 120.336048 358.692803 
Q 120.641048 358.692803 120.953548 358.817803 
Q 121.266048 358.942803 122.023548 359.472803 
Q 122.498548 359.800303 122.843548 359.925303 
Q 123.086048 360.020303 123.391048 360.020303 
Q 124.031048 360.020303 124.478548 359.552803 
Q 124.928548 359.082803 124.928548 358.425303 
Q 124.928548 357.050303 123.553548 356.192803 
Q 122.178548 355.332803 120.086048 355.332803 
Q 119.873548 355.332803 119.453548 355.340303 
L 121.351048 349.995303 
z
M 128.913548 358.182803 
Q 129.461048 358.182803 129.838548 358.567803 
Q 130.218548 358.950303 130.218548 359.487803 
Q 130.218548 360.027803 129.836048 360.407803 
Q 129.453548 360.785303 128.913548 360.785303 
Q 128.373548 360.785303 127.993548 360.407803 
Q 127.616048 360.027803 127.616048 359.487803 
Q 127.616048 358.950303 127.993548 358.567803 
Q 128.373548 358.182803 128.913548 358.182803 
z
M 133.281048 355.277803 
L 133.281048 355.005303 
Q 134.171048 354.745303 134.513548 354.522803 
Q 134.858548 354.300303 135.108548 353.845303 
Q 135.358548 353.387803 135.358548 352.917803 
Q 135.358548 352.270303 134.886048 351.805303 
Q 134.413548 351.340303 133.711048 351.340303 
Q 132.616048 351.340303 131.851048 352.495303 
L 131.561048 352.395303 
Q 132.123548 351.090303 133.003548 350.435303 
Q 133.883548 349.777803 134.961048 349.777803 
Q 136.061048 349.777803 136.776048 350.450303 
Q 137.491048 351.120303 137.491048 352.020303 
Q 137.491048 352.605303 137.158548 353.150303 
Q 136.828548 353.692803 136.116048 354.105303 
Q 137.031048 354.550303 137.511048 355.202803 
Q 137.991048 355.855303 137.991048 356.840303 
Q 137.991048 358.495303 136.791048 359.657803 
Q 135.593548 360.817803 133.578548 360.817803 
Q 132.233548 360.817803 131.616048 360.370303 
Q 131.171048 360.057803 131.171048 359.567803 
Q 131.171048 359.207803 131.428548 358.955303 
Q 131.686048 358.700303 132.023548 358.700303 
Q 132.281048 358.700303 132.508548 358.807803 
Q 132.633548 358.870303 133.393548 359.492803 
Q 134.156048 360.112803 134.821048 360.112803 
Q 135.398548 360.112803 135.811048 359.657803 
Q 136.226048 359.200303 136.226048 358.495303 
Q 136.226048 357.425303 135.476048 356.522803 
Q 134.726048 355.620303 133.281048 355.277803 
z
"/>
   </g>
   <g id="text_18">
    <path d="M 105.281048 244.145212 
L 105.281048 243.872712 
Q 106.171048 243.612712 106.513548 243.390212 
Q 106.858548 243.167712 107.108548 242.712712 
Q 107.358548 242.255212 107.358548 241.785212 
Q 107.358548 241.137712 106.886048 240.672712 
Q 106.413548 240.207712 105.711048 240.207712 
Q 104.616048 240.207712 103.851048 241.362712 
L 103.561048 241.262712 
Q 104.123548 239.957712 105.003548 239.302712 
Q 105.883548 238.645212 106.961048 238.645212 
Q 108.061048 238.645212 108.776048 239.317712 
Q 109.491048 239.987712 109.491048 240.887712 
Q 109.491048 241.472712 109.158548 242.017712 
Q 108.828548 242.560212 108.116048 242.972712 
Q 109.031048 243.417712 109.511048 244.070212 
Q 109.991048 244.722712 109.991048 245.707712 
Q 109.991048 247.362712 108.791048 248.525212 
Q 107.593548 249.685212 105.578548 249.685212 
Q 104.233548 249.685212 103.616048 249.237712 
Q 103.171048 248.925212 103.171048 248.435212 
Q 103.171048 248.075212 103.428548 247.822712 
Q 103.686048 247.567712 104.023548 247.567712 
Q 104.281048 247.567712 104.508548 247.675212 
Q 104.633548 247.737712 105.393548 248.360212 
Q 106.156048 248.980212 106.821048 248.980212 
Q 107.398548 248.980212 107.811048 248.525212 
Q 108.226048 248.067712 108.226048 247.362712 
Q 108.226048 246.292712 107.476048 245.390212 
Q 106.726048 244.487712 105.281048 244.145212 
z
M 116.123548 238.645212 
L 116.123548 247.310212 
Q 116.123548 248.285212 116.208548 248.555212 
Q 116.296048 248.825212 116.568548 248.997712 
Q 116.843548 249.167712 117.446048 249.167712 
L 117.686048 249.167712 
L 117.686048 249.457712 
L 112.108548 249.457712 
L 112.108548 249.167712 
L 112.391048 249.167712 
Q 113.071048 249.167712 113.358548 249.012712 
Q 113.648548 248.855212 113.748548 248.582712 
Q 113.851048 248.310212 113.851048 247.310212 
L 113.851048 241.817712 
Q 113.851048 241.082712 113.781048 240.900212 
Q 113.711048 240.715212 113.518548 240.587712 
Q 113.328548 240.457712 113.078548 240.457712 
Q 112.678548 240.457712 112.108548 240.707712 
L 111.968548 240.425212 
L 115.866048 238.645212 
L 116.123548 238.645212 
z
M 126.428548 238.645212 
L 126.428548 238.862712 
Q 125.016048 239.222712 124.158548 239.790212 
Q 123.303548 240.355212 122.806048 241.165212 
Q 122.311048 241.972712 122.038548 243.167712 
Q 122.383548 242.935212 122.608548 242.862712 
Q 123.116048 242.707712 123.633548 242.707712 
Q 124.821048 242.707712 125.613548 243.572712 
Q 126.406048 244.435212 126.406048 245.925212 
Q 126.406048 246.972712 125.976048 247.847712 
Q 125.546048 248.722712 124.756048 249.200212 
Q 123.968548 249.677712 123.071048 249.677712 
Q 122.093548 249.677712 121.263548 249.142712 
Q 120.436048 248.605212 119.971048 247.575212 
Q 119.508548 246.542712 119.508548 245.332712 
Q 119.508548 243.550212 120.363548 242.015212 
Q 121.218548 240.480212 122.791048 239.570212 
Q 124.366048 238.660212 126.428548 238.645212 
z
M 121.936048 243.800212 
Q 121.873548 244.880212 121.873548 245.380212 
Q 121.873548 246.457712 122.081048 247.465212 
Q 122.288548 248.472712 122.648548 248.880212 
Q 122.906048 249.167712 123.258548 249.167712 
Q 123.616048 249.167712 123.896048 248.750212 
Q 124.178548 248.332712 124.178548 247.050212 
Q 124.178548 244.895212 123.656048 244.075212 
Q 123.321048 243.542712 122.748548 243.542712 
Q 122.436048 243.542712 121.936048 243.800212 
z
M 128.913548 247.050212 
Q 129.461048 247.050212 129.838548 247.435212 
Q 130.218548 247.817712 130.218548 248.355212 
Q 130.218548 248.895212 129.836048 249.275212 
Q 129.453548 249.652712 128.913548 249.652712 
Q 128.373548 249.652712 127.993548 249.275212 
Q 127.616048 248.895212 127.616048 248.355212 
Q 127.616048 247.817712 127.993548 247.435212 
Q 128.373548 247.050212 128.913548 247.050212 
z
M 133.748548 249.677712 
L 136.633548 240.935212 
L 134.436048 240.935212 
Q 133.148548 240.935212 132.498548 241.270212 
Q 132.046048 241.505212 131.748548 242.152712 
L 131.453548 242.152712 
L 132.218548 238.862712 
L 138.531048 238.862712 
L 134.976048 249.677712 
L 133.748548 249.677712 
z
" style="stroke: #ffffff; stroke-width: 3.8"/>
    <path d="M 105.281048 244.145212 
L 105.281048 243.872712 
Q 106.171048 243.612712 106.513548 243.390212 
Q 106.858548 243.167712 107.108548 242.712712 
Q 107.358548 242.255212 107.358548 241.785212 
Q 107.358548 241.137712 106.886048 240.672712 
Q 106.413548 240.207712 105.711048 240.207712 
Q 104.616048 240.207712 103.851048 241.362712 
L 103.561048 241.262712 
Q 104.123548 239.957712 105.003548 239.302712 
Q 105.883548 238.645212 106.961048 238.645212 
Q 108.061048 238.645212 108.776048 239.317712 
Q 109.491048 239.987712 109.491048 240.887712 
Q 109.491048 241.472712 109.158548 242.017712 
Q 108.828548 242.560212 108.116048 242.972712 
Q 109.031048 243.417712 109.511048 244.070212 
Q 109.991048 244.722712 109.991048 245.707712 
Q 109.991048 247.362712 108.791048 248.525212 
Q 107.593548 249.685212 105.578548 249.685212 
Q 104.233548 249.685212 103.616048 249.237712 
Q 103.171048 248.925212 103.171048 248.435212 
Q 103.171048 248.075212 103.428548 247.822712 
Q 103.686048 247.567712 104.023548 247.567712 
Q 104.281048 247.567712 104.508548 247.675212 
Q 104.633548 247.737712 105.393548 248.360212 
Q 106.156048 248.980212 106.821048 248.980212 
Q 107.398548 248.980212 107.811048 248.525212 
Q 108.226048 248.067712 108.226048 247.362712 
Q 108.226048 246.292712 107.476048 245.390212 
Q 106.726048 244.487712 105.281048 244.145212 
z
M 116.123548 238.645212 
L 116.123548 247.310212 
Q 116.123548 248.285212 116.208548 248.555212 
Q 116.296048 248.825212 116.568548 248.997712 
Q 116.843548 249.167712 117.446048 249.167712 
L 117.686048 249.167712 
L 117.686048 249.457712 
L 112.108548 249.457712 
L 112.108548 249.167712 
L 112.391048 249.167712 
Q 113.071048 249.167712 113.358548 249.012712 
Q 113.648548 248.855212 113.748548 248.582712 
Q 113.851048 248.310212 113.851048 247.310212 
L 113.851048 241.817712 
Q 113.851048 241.082712 113.781048 240.900212 
Q 113.711048 240.715212 113.518548 240.587712 
Q 113.328548 240.457712 113.078548 240.457712 
Q 112.678548 240.457712 112.108548 240.707712 
L 111.968548 240.425212 
L 115.866048 238.645212 
L 116.123548 238.645212 
z
M 126.428548 238.645212 
L 126.428548 238.862712 
Q 125.016048 239.222712 124.158548 239.790212 
Q 123.303548 240.355212 122.806048 241.165212 
Q 122.311048 241.972712 122.038548 243.167712 
Q 122.383548 242.935212 122.608548 242.862712 
Q 123.116048 242.707712 123.633548 242.707712 
Q 124.821048 242.707712 125.613548 243.572712 
Q 126.406048 244.435212 126.406048 245.925212 
Q 126.406048 246.972712 125.976048 247.847712 
Q 125.546048 248.722712 124.756048 249.200212 
Q 123.968548 249.677712 123.071048 249.677712 
Q 122.093548 249.677712 121.263548 249.142712 
Q 120.436048 248.605212 119.971048 247.575212 
Q 119.508548 246.542712 119.508548 245.332712 
Q 119.508548 243.550212 120.363548 242.015212 
Q 121.218548 240.480212 122.791048 239.570212 
Q 124.366048 238.660212 126.428548 238.645212 
z
M 121.936048 243.800212 
Q 121.873548 244.880212 121.873548 245.380212 
Q 121.873548 246.457712 122.081048 247.465212 
Q 122.288548 248.472712 122.648548 248.880212 
Q 122.906048 249.167712 123.258548 249.167712 
Q 123.616048 249.167712 123.896048 248.750212 
Q 124.178548 248.332712 124.178548 247.050212 
Q 124.178548 244.895212 123.656048 244.075212 
Q 123.321048 243.542712 122.748548 243.542712 
Q 122.436048 243.542712 121.936048 243.800212 
z
M 128.913548 247.050212 
Q 129.461048 247.050212 129.838548 247.435212 
Q 130.218548 247.817712 130.218548 248.355212 
Q 130.218548 248.895212 129.836048 249.275212 
Q 129.453548 249.652712 128.913548 249.652712 
Q 128.373548 249.652712 127.993548 249.275212 
Q 127.616048 248.895212 127.616048 248.355212 
Q 127.616048 247.817712 127.993548 247.435212 
Q 128.373548 247.050212 128.913548 247.050212 
z
M 133.748548 249.677712 
L 136.633548 240.935212 
L 134.436048 240.935212 
Q 133.148548 240.935212 132.498548 241.270212 
Q 132.046048 241.505212 131.748548 242.152712 
L 131.453548 242.152712 
L 132.218548 238.862712 
L 138.531048 238.862712 
L 134.976048 249.677712 
L 133.748548 249.677712 
z
"/>
   </g>
   <g id="text_19">
    <path d="M 576.244323 229.102997 
L 576.244323 237.767997 
Q 576.244323 238.742997 576.329323 239.012997 
Q 576.416823 239.282997 576.689323 239.455497 
Q 576.964323 239.625497 577.566823 239.625497 
L 577.806823 239.625497 
L 577.806823 239.915497 
L 572.229323 239.915497 
L 572.229323 239.625497 
L 572.511823 239.625497 
Q 573.191823 239.625497 573.479323 239.470497 
Q 573.769323 239.312997 573.869323 239.040497 
Q 573.971823 238.767997 573.971823 237.767997 
L 573.971823 232.275497 
Q 573.971823 231.540497 573.901823 231.357997 
Q 573.831823 231.172997 573.639323 231.045497 
Q 573.449323 230.915497 573.199323 230.915497 
Q 572.799323 230.915497 572.229323 231.165497 
L 572.089323 230.882997 
L 575.986823 229.102997 
L 576.244323 229.102997 
z
M 586.449323 234.617997 
Q 586.449323 236.205497 586.004323 237.580497 
Q 585.736823 238.422997 585.286823 238.962997 
Q 584.839323 239.500497 584.269323 239.817997 
Q 583.699323 240.135497 583.026823 240.135497 
Q 582.261823 240.135497 581.644323 239.745497 
Q 581.026823 239.352997 580.549323 238.625497 
Q 580.206823 238.095497 579.949323 237.212997 
Q 579.611823 236.017997 579.611823 234.742997 
Q 579.611823 233.017997 580.096823 231.570497 
Q 580.494323 230.375497 581.306823 229.740497 
Q 582.119323 229.102997 583.026823 229.102997 
Q 583.949323 229.102997 584.749323 229.732997 
Q 585.549323 230.360497 585.924323 231.422997 
Q 586.449323 232.882997 586.449323 234.617997 
z
M 584.041823 234.602997 
Q 584.041823 231.820497 584.011823 231.360497 
Q 583.931823 230.275497 583.636823 229.892997 
Q 583.441823 229.642997 583.004323 229.642997 
Q 582.666823 229.642997 582.471823 229.830497 
Q 582.181823 230.102997 582.079323 230.795497 
Q 581.979323 231.485497 581.979323 235.617997 
Q 581.979323 237.867997 582.136823 238.632997 
Q 582.254323 239.187997 582.471823 239.375497 
Q 582.691823 239.562997 583.049323 239.562997 
Q 583.441823 239.562997 583.636823 239.312997 
Q 583.964323 238.875497 584.011823 237.962997 
L 584.041823 234.602997 
z
M 592.486823 233.930497 
Q 593.604323 234.750497 594.036823 235.457997 
Q 594.471823 236.165497 594.471823 237.080497 
Q 594.471823 238.360497 593.506823 239.247997 
Q 592.541823 240.135497 590.886823 240.135497 
Q 589.316823 240.135497 588.456823 239.362997 
Q 587.596823 238.587997 587.596823 237.470497 
Q 587.596823 236.617997 588.091823 235.977997 
Q 588.589323 235.337997 589.744323 234.805497 
Q 588.486823 233.845497 588.131823 233.235497 
Q 587.776823 232.625497 587.776823 231.820497 
Q 587.776823 230.757997 588.679323 229.950497 
Q 589.581823 229.142997 591.151823 229.142997 
Q 592.666823 229.142997 593.481823 229.857997 
Q 594.299323 230.570497 594.299323 231.570497 
Q 594.299323 232.320497 593.856823 232.895497 
Q 593.416823 233.470497 592.486823 233.930497 
z
M 591.894323 233.532997 
Q 592.181823 233.142997 592.321823 232.657997 
Q 592.464323 232.172997 592.464323 231.595497 
Q 592.464323 230.580497 592.026823 230.040497 
Q 591.699323 229.625497 591.119323 229.625497 
Q 590.596823 229.625497 590.229323 230.005497 
Q 589.861823 230.382997 589.861823 230.945497 
Q 589.861823 231.517997 590.271823 232.130497 
Q 590.681823 232.742997 591.894323 233.532997 
z
M 590.331823 235.180497 
Q 590.089323 235.400497 589.986823 235.580497 
Q 589.831823 235.852997 589.706823 236.377997 
Q 589.581823 236.900497 589.581823 237.470497 
Q 589.581823 238.205497 589.769323 238.700497 
Q 589.956823 239.195497 590.304323 239.415497 
Q 590.651823 239.632997 591.019323 239.632997 
Q 591.589323 239.632997 591.979323 239.215497 
Q 592.369323 238.797997 592.369323 238.070497 
Q 592.369323 236.555497 590.331823 235.180497 
z
M 597.034323 237.507997 
Q 597.581823 237.507997 597.959323 237.892997 
Q 598.339323 238.275497 598.339323 238.812997 
Q 598.339323 239.352997 597.956823 239.732997 
Q 597.574323 240.110497 597.034323 240.110497 
Q 596.494323 240.110497 596.114323 239.732997 
Q 595.736823 239.352997 595.736823 238.812997 
Q 595.736823 238.275497 596.114323 237.892997 
Q 596.494323 237.507997 597.034323 237.507997 
z
M 601.471823 229.320497 
L 606.431823 229.320497 
L 605.644323 231.337997 
L 601.471823 231.337997 
L 601.074323 232.392997 
Q 603.769323 232.492997 605.221823 233.735497 
Q 606.416823 234.757997 606.416823 236.282997 
Q 606.416823 237.257997 605.861823 238.192997 
Q 605.306823 239.125497 604.299323 239.630497 
Q 603.291823 240.135497 602.089323 240.135497 
Q 600.791823 240.135497 600.096823 239.650497 
Q 599.611823 239.305497 599.611823 238.867997 
Q 599.611823 238.532997 599.864323 238.275497 
Q 600.119323 238.017997 600.456823 238.017997 
Q 600.761823 238.017997 601.074323 238.142997 
Q 601.386823 238.267997 602.144323 238.797997 
Q 602.619323 239.125497 602.964323 239.250497 
Q 603.206823 239.345497 603.511823 239.345497 
Q 604.151823 239.345497 604.599323 238.877997 
Q 605.049323 238.407997 605.049323 237.750497 
Q 605.049323 236.375497 603.674323 235.517997 
Q 602.299323 234.657997 600.206823 234.657997 
Q 599.994323 234.657997 599.574323 234.665497 
L 601.471823 229.320497 
z
" style="stroke: #ffffff; stroke-width: 3.8"/>
    <path d="M 576.244323 229.102997 
L 576.244323 237.767997 
Q 576.244323 238.742997 576.329323 239.012997 
Q 576.416823 239.282997 576.689323 239.455497 
Q 576.964323 239.625497 577.566823 239.625497 
L 577.806823 239.625497 
L 577.806823 239.915497 
L 572.229323 239.915497 
L 572.229323 239.625497 
L 572.511823 239.625497 
Q 573.191823 239.625497 573.479323 239.470497 
Q 573.769323 239.312997 573.869323 239.040497 
Q 573.971823 238.767997 573.971823 237.767997 
L 573.971823 232.275497 
Q 573.971823 231.540497 573.901823 231.357997 
Q 573.831823 231.172997 573.639323 231.045497 
Q 573.449323 230.915497 573.199323 230.915497 
Q 572.799323 230.915497 572.229323 231.165497 
L 572.089323 230.882997 
L 575.986823 229.102997 
L 576.244323 229.102997 
z
M 586.449323 234.617997 
Q 586.449323 236.205497 586.004323 237.580497 
Q 585.736823 238.422997 585.286823 238.962997 
Q 584.839323 239.500497 584.269323 239.817997 
Q 583.699323 240.135497 583.026823 240.135497 
Q 582.261823 240.135497 581.644323 239.745497 
Q 581.026823 239.352997 580.549323 238.625497 
Q 580.206823 238.095497 579.949323 237.212997 
Q 579.611823 236.017997 579.611823 234.742997 
Q 579.611823 233.017997 580.096823 231.570497 
Q 580.494323 230.375497 581.306823 229.740497 
Q 582.119323 229.102997 583.026823 229.102997 
Q 583.949323 229.102997 584.749323 229.732997 
Q 585.549323 230.360497 585.924323 231.422997 
Q 586.449323 232.882997 586.449323 234.617997 
z
M 584.041823 234.602997 
Q 584.041823 231.820497 584.011823 231.360497 
Q 583.931823 230.275497 583.636823 229.892997 
Q 583.441823 229.642997 583.004323 229.642997 
Q 582.666823 229.642997 582.471823 229.830497 
Q 582.181823 230.102997 582.079323 230.795497 
Q 581.979323 231.485497 581.979323 235.617997 
Q 581.979323 237.867997 582.136823 238.632997 
Q 582.254323 239.187997 582.471823 239.375497 
Q 582.691823 239.562997 583.049323 239.562997 
Q 583.441823 239.562997 583.636823 239.312997 
Q 583.964323 238.875497 584.011823 237.962997 
L 584.041823 234.602997 
z
M 592.486823 233.930497 
Q 593.604323 234.750497 594.036823 235.457997 
Q 594.471823 236.165497 594.471823 237.080497 
Q 594.471823 238.360497 593.506823 239.247997 
Q 592.541823 240.135497 590.886823 240.135497 
Q 589.316823 240.135497 588.456823 239.362997 
Q 587.596823 238.587997 587.596823 237.470497 
Q 587.596823 236.617997 588.091823 235.977997 
Q 588.589323 235.337997 589.744323 234.805497 
Q 588.486823 233.845497 588.131823 233.235497 
Q 587.776823 232.625497 587.776823 231.820497 
Q 587.776823 230.757997 588.679323 229.950497 
Q 589.581823 229.142997 591.151823 229.142997 
Q 592.666823 229.142997 593.481823 229.857997 
Q 594.299323 230.570497 594.299323 231.570497 
Q 594.299323 232.320497 593.856823 232.895497 
Q 593.416823 233.470497 592.486823 233.930497 
z
M 591.894323 233.532997 
Q 592.181823 233.142997 592.321823 232.657997 
Q 592.464323 232.172997 592.464323 231.595497 
Q 592.464323 230.580497 592.026823 230.040497 
Q 591.699323 229.625497 591.119323 229.625497 
Q 590.596823 229.625497 590.229323 230.005497 
Q 589.861823 230.382997 589.861823 230.945497 
Q 589.861823 231.517997 590.271823 232.130497 
Q 590.681823 232.742997 591.894323 233.532997 
z
M 590.331823 235.180497 
Q 590.089323 235.400497 589.986823 235.580497 
Q 589.831823 235.852997 589.706823 236.377997 
Q 589.581823 236.900497 589.581823 237.470497 
Q 589.581823 238.205497 589.769323 238.700497 
Q 589.956823 239.195497 590.304323 239.415497 
Q 590.651823 239.632997 591.019323 239.632997 
Q 591.589323 239.632997 591.979323 239.215497 
Q 592.369323 238.797997 592.369323 238.070497 
Q 592.369323 236.555497 590.331823 235.180497 
z
M 597.034323 237.507997 
Q 597.581823 237.507997 597.959323 237.892997 
Q 598.339323 238.275497 598.339323 238.812997 
Q 598.339323 239.352997 597.956823 239.732997 
Q 597.574323 240.110497 597.034323 240.110497 
Q 596.494323 240.110497 596.114323 239.732997 
Q 595.736823 239.352997 595.736823 238.812997 
Q 595.736823 238.275497 596.114323 237.892997 
Q 596.494323 237.507997 597.034323 237.507997 
z
M 601.471823 229.320497 
L 606.431823 229.320497 
L 605.644323 231.337997 
L 601.471823 231.337997 
L 601.074323 232.392997 
Q 603.769323 232.492997 605.221823 233.735497 
Q 606.416823 234.757997 606.416823 236.282997 
Q 606.416823 237.257997 605.861823 238.192997 
Q 605.306823 239.125497 604.299323 239.630497 
Q 603.291823 240.135497 602.089323 240.135497 
Q 600.791823 240.135497 600.096823 239.650497 
Q 599.611823 239.305497 599.611823 238.867997 
Q 599.611823 238.532997 599.864323 238.275497 
Q 600.119323 238.017997 600.456823 238.017997 
Q 600.761823 238.017997 601.074323 238.142997 
Q 601.386823 238.267997 602.144323 238.797997 
Q 602.619323 239.125497 602.964323 239.250497 
Q 603.206823 239.345497 603.511823 239.345497 
Q 604.151823 239.345497 604.599323 238.877997 
Q 605.049323 238.407997 605.049323 237.750497 
Q 605.049323 236.375497 603.674323 235.517997 
Q 602.299323 234.657997 600.206823 234.657997 
Q 599.994323 234.657997 599.574323 234.665497 
L 601.471823 229.320497 
z
"/>
   </g>
   <g id="text_20">
    <path d="M 589.674644 414.043984 
Q 589.674644 415.532265 589.257457 416.821328 
Q 589.006676 417.611171 588.584801 418.117421 
Q 588.165269 418.621328 587.630894 418.918984 
Q 587.096519 419.21664 586.466051 419.21664 
Q 585.748863 419.21664 585.169957 418.851015 
Q 584.591051 418.483046 584.143394 417.801015 
Q 583.822301 417.30414 583.580894 416.476796 
Q 583.264488 415.356484 583.264488 414.161171 
Q 583.264488 412.543984 583.719176 411.186953 
Q 584.091832 410.06664 584.853551 409.471328 
Q 585.615269 408.873671 586.466051 408.873671 
Q 587.330894 408.873671 588.080894 409.464296 
Q 588.830894 410.052578 589.182457 411.048671 
Q 589.674644 412.417421 589.674644 414.043984 
z
M 587.417613 414.029921 
Q 587.417613 411.421328 587.389488 410.990078 
Q 587.314488 409.97289 587.037926 409.614296 
Q 586.855113 409.379921 586.444957 409.379921 
Q 586.128551 409.379921 585.945738 409.555703 
Q 585.673863 409.811171 585.577769 410.46039 
Q 585.484019 411.107265 585.484019 414.981484 
Q 585.484019 417.090859 585.631676 417.808046 
Q 585.741832 418.328359 585.945738 418.50414 
Q 586.151988 418.679921 586.487144 418.679921 
Q 586.855113 418.679921 587.037926 418.445546 
Q 587.344957 418.03539 587.389488 417.179921 
L 587.417613 414.029921 
z
M 592.098082 416.753359 
Q 592.611363 416.753359 592.965269 417.114296 
Q 593.321519 417.47289 593.321519 417.976796 
Q 593.321519 418.483046 592.962926 418.839296 
Q 592.604332 419.193203 592.098082 419.193203 
Q 591.591832 419.193203 591.235582 418.839296 
Q 590.881676 418.483046 590.881676 417.976796 
Q 590.881676 417.47289 591.235582 417.114296 
Q 591.591832 416.753359 592.098082 416.753359 
z
M 600.184019 419.01039 
L 594.338707 419.01039 
L 594.338707 418.848671 
Q 597.026988 415.649453 597.601207 414.543203 
Q 598.177769 413.436953 598.177769 412.382265 
Q 598.177769 411.613515 597.701988 411.104921 
Q 597.226207 410.593984 596.537144 410.593984 
Q 595.409801 410.593984 594.786363 411.723671 
L 594.514488 411.627578 
Q 594.910582 410.221328 595.716832 409.548671 
Q 596.523082 408.873671 597.577769 408.873671 
Q 598.330113 408.873671 598.953551 409.225234 
Q 599.576988 409.576796 599.928551 410.188515 
Q 600.280113 410.800234 600.280113 411.334609 
Q 600.280113 412.309609 599.736363 413.312734 
Q 598.998082 414.667421 596.506676 417.090859 
L 598.653551 417.090859 
Q 599.443394 417.090859 599.682457 417.025234 
Q 599.921519 416.959609 600.073863 416.802578 
Q 600.228551 416.645546 600.476988 416.139296 
L 600.741832 416.139296 
L 600.184019 419.01039 
z
" style="fill: #404040; stroke: #ffffff; stroke-width: 3.8"/>
    <path d="M 589.674644 414.043984 
Q 589.674644 415.532265 589.257457 416.821328 
Q 589.006676 417.611171 588.584801 418.117421 
Q 588.165269 418.621328 587.630894 418.918984 
Q 587.096519 419.21664 586.466051 419.21664 
Q 585.748863 419.21664 585.169957 418.851015 
Q 584.591051 418.483046 584.143394 417.801015 
Q 583.822301 417.30414 583.580894 416.476796 
Q 583.264488 415.356484 583.264488 414.161171 
Q 583.264488 412.543984 583.719176 411.186953 
Q 584.091832 410.06664 584.853551 409.471328 
Q 585.615269 408.873671 586.466051 408.873671 
Q 587.330894 408.873671 588.080894 409.464296 
Q 588.830894 410.052578 589.182457 411.048671 
Q 589.674644 412.417421 589.674644 414.043984 
z
M 587.417613 414.029921 
Q 587.417613 411.421328 587.389488 410.990078 
Q 587.314488 409.97289 587.037926 409.614296 
Q 586.855113 409.379921 586.444957 409.379921 
Q 586.128551 409.379921 585.945738 409.555703 
Q 585.673863 409.811171 585.577769 410.46039 
Q 585.484019 411.107265 585.484019 414.981484 
Q 585.484019 417.090859 585.631676 417.808046 
Q 585.741832 418.328359 585.945738 418.50414 
Q 586.151988 418.679921 586.487144 418.679921 
Q 586.855113 418.679921 587.037926 418.445546 
Q 587.344957 418.03539 587.389488 417.179921 
L 587.417613 414.029921 
z
M 592.098082 416.753359 
Q 592.611363 416.753359 592.965269 417.114296 
Q 593.321519 417.47289 593.321519 417.976796 
Q 593.321519 418.483046 592.962926 418.839296 
Q 592.604332 419.193203 592.098082 419.193203 
Q 591.591832 419.193203 591.235582 418.839296 
Q 590.881676 418.483046 590.881676 417.976796 
Q 590.881676 417.47289 591.235582 417.114296 
Q 591.591832 416.753359 592.098082 416.753359 
z
M 600.184019 419.01039 
L 594.338707 419.01039 
L 594.338707 418.848671 
Q 597.026988 415.649453 597.601207 414.543203 
Q 598.177769 413.436953 598.177769 412.382265 
Q 598.177769 411.613515 597.701988 411.104921 
Q 597.226207 410.593984 596.537144 410.593984 
Q 595.409801 410.593984 594.786363 411.723671 
L 594.514488 411.627578 
Q 594.910582 410.221328 595.716832 409.548671 
Q 596.523082 408.873671 597.577769 408.873671 
Q 598.330113 408.873671 598.953551 409.225234 
Q 599.576988 409.576796 599.928551 410.188515 
Q 600.280113 410.800234 600.280113 411.334609 
Q 600.280113 412.309609 599.736363 413.312734 
Q 598.998082 414.667421 596.506676 417.090859 
L 598.653551 417.090859 
Q 599.443394 417.090859 599.682457 417.025234 
Q 599.921519 416.959609 600.073863 416.802578 
Q 600.228551 416.645546 600.476988 416.139296 
L 600.741832 416.139296 
L 600.184019 419.01039 
z
" style="fill: #404040"/>
   </g>
   <g id="text_21">
    <path d="M 566.714717 379.2827 
L 566.714717 387.406138 
Q 566.714717 388.3202 566.794404 388.573325 
Q 566.876436 388.82645 567.131904 388.988169 
Q 567.389717 389.147544 567.954561 389.147544 
L 568.179561 389.147544 
L 568.179561 389.419419 
L 562.950654 389.419419 
L 562.950654 389.147544 
L 563.215498 389.147544 
Q 563.852998 389.147544 564.122529 389.002231 
Q 564.394404 388.854575 564.488154 388.599106 
Q 564.584248 388.343638 564.584248 387.406138 
L 564.584248 382.256919 
Q 564.584248 381.567856 564.518623 381.396763 
Q 564.452998 381.223325 564.272529 381.103794 
Q 564.094404 380.981919 563.860029 380.981919 
Q 563.485029 380.981919 562.950654 381.216294 
L 562.819404 380.95145 
L 566.473311 379.2827 
L 566.714717 379.2827 
z
M 575.541279 389.419419 
L 569.695967 389.419419 
L 569.695967 389.2577 
Q 572.384248 386.058481 572.958467 384.952231 
Q 573.535029 383.845981 573.535029 382.791294 
Q 573.535029 382.022544 573.059248 381.51395 
Q 572.583467 381.003013 571.894404 381.003013 
Q 570.767061 381.003013 570.143623 382.1327 
L 569.871748 382.036606 
Q 570.267842 380.630356 571.074092 379.9577 
Q 571.880342 379.2827 572.935029 379.2827 
Q 573.687373 379.2827 574.310811 379.634263 
Q 574.934248 379.985825 575.285811 380.597544 
Q 575.637373 381.209263 575.637373 381.743638 
Q 575.637373 382.718638 575.093623 383.721763 
Q 574.355342 385.07645 571.863936 387.499888 
L 574.010811 387.499888 
Q 574.800654 387.499888 575.039717 387.434263 
Q 575.278779 387.368638 575.431123 387.211606 
Q 575.585811 387.054575 575.834248 386.548325 
L 576.099092 386.548325 
L 575.541279 389.419419 
z
M 579.488154 389.625669 
L 582.192842 381.429575 
L 580.132686 381.429575 
Q 578.925654 381.429575 578.316279 381.743638 
Q 577.892061 381.96395 577.613154 382.570981 
L 577.336592 382.570981 
L 578.053779 379.486606 
L 583.971748 379.486606 
L 580.638936 389.625669 
L 579.488154 389.625669 
z
M 586.205342 387.162388 
Q 586.718623 387.162388 587.072529 387.523325 
Q 587.428779 387.881919 587.428779 388.385825 
Q 587.428779 388.892075 587.070186 389.248325 
Q 586.711592 389.602231 586.205342 389.602231 
Q 585.699092 389.602231 585.342842 389.248325 
Q 584.988936 388.892075 584.988936 388.385825 
Q 584.988936 387.881919 585.342842 387.523325 
Q 585.699092 387.162388 586.205342 387.162388 
z
M 588.452998 385.67645 
L 593.170967 379.2827 
L 594.063936 379.2827 
L 594.063936 385.67645 
L 594.973311 385.67645 
L 594.973311 387.192856 
L 594.063936 387.192856 
L 594.063936 389.419419 
L 592.050654 389.419419 
L 592.050654 387.192856 
L 588.452998 387.192856 
L 588.452998 385.67645 
z
M 589.165498 385.67645 
L 592.050654 385.67645 
L 592.050654 381.7577 
L 589.165498 385.67645 
z
" style="fill: #404040; stroke: #ffffff; stroke-width: 3.8"/>
    <path d="M 566.714717 379.2827 
L 566.714717 387.406138 
Q 566.714717 388.3202 566.794404 388.573325 
Q 566.876436 388.82645 567.131904 388.988169 
Q 567.389717 389.147544 567.954561 389.147544 
L 568.179561 389.147544 
L 568.179561 389.419419 
L 562.950654 389.419419 
L 562.950654 389.147544 
L 563.215498 389.147544 
Q 563.852998 389.147544 564.122529 389.002231 
Q 564.394404 388.854575 564.488154 388.599106 
Q 564.584248 388.343638 564.584248 387.406138 
L 564.584248 382.256919 
Q 564.584248 381.567856 564.518623 381.396763 
Q 564.452998 381.223325 564.272529 381.103794 
Q 564.094404 380.981919 563.860029 380.981919 
Q 563.485029 380.981919 562.950654 381.216294 
L 562.819404 380.95145 
L 566.473311 379.2827 
L 566.714717 379.2827 
z
M 575.541279 389.419419 
L 569.695967 389.419419 
L 569.695967 389.2577 
Q 572.384248 386.058481 572.958467 384.952231 
Q 573.535029 383.845981 573.535029 382.791294 
Q 573.535029 382.022544 573.059248 381.51395 
Q 572.583467 381.003013 571.894404 381.003013 
Q 570.767061 381.003013 570.143623 382.1327 
L 569.871748 382.036606 
Q 570.267842 380.630356 571.074092 379.9577 
Q 571.880342 379.2827 572.935029 379.2827 
Q 573.687373 379.2827 574.310811 379.634263 
Q 574.934248 379.985825 575.285811 380.597544 
Q 575.637373 381.209263 575.637373 381.743638 
Q 575.637373 382.718638 575.093623 383.721763 
Q 574.355342 385.07645 571.863936 387.499888 
L 574.010811 387.499888 
Q 574.800654 387.499888 575.039717 387.434263 
Q 575.278779 387.368638 575.431123 387.211606 
Q 575.585811 387.054575 575.834248 386.548325 
L 576.099092 386.548325 
L 575.541279 389.419419 
z
M 579.488154 389.625669 
L 582.192842 381.429575 
L 580.132686 381.429575 
Q 578.925654 381.429575 578.316279 381.743638 
Q 577.892061 381.96395 577.613154 382.570981 
L 577.336592 382.570981 
L 578.053779 379.486606 
L 583.971748 379.486606 
L 580.638936 389.625669 
L 579.488154 389.625669 
z
M 586.205342 387.162388 
Q 586.718623 387.162388 587.072529 387.523325 
Q 587.428779 387.881919 587.428779 388.385825 
Q 587.428779 388.892075 587.070186 389.248325 
Q 586.711592 389.602231 586.205342 389.602231 
Q 585.699092 389.602231 585.342842 389.248325 
Q 584.988936 388.892075 584.988936 388.385825 
Q 584.988936 387.881919 585.342842 387.523325 
Q 585.699092 387.162388 586.205342 387.162388 
z
M 588.452998 385.67645 
L 593.170967 379.2827 
L 594.063936 379.2827 
L 594.063936 385.67645 
L 594.973311 385.67645 
L 594.973311 387.192856 
L 594.063936 387.192856 
L 594.063936 389.419419 
L 592.050654 389.419419 
L 592.050654 387.192856 
L 588.452998 387.192856 
L 588.452998 385.67645 
z
M 589.165498 385.67645 
L 592.050654 385.67645 
L 592.050654 381.7577 
L 589.165498 385.67645 
z
" style="fill: #404040"/>
   </g>
   <g id="text_22">
    <path d="M 467.810307 292.775695 
L 467.810307 292.520227 
Q 468.644682 292.276477 468.965775 292.067883 
Q 469.289213 291.859289 469.523588 291.432727 
Q 469.757963 291.00382 469.757963 290.563195 
Q 469.757963 289.956164 469.314994 289.520227 
Q 468.872025 289.084289 468.213432 289.084289 
Q 467.186869 289.084289 466.469682 290.167102 
L 466.197807 290.073352 
Q 466.72515 288.849914 467.55015 288.235852 
Q 468.37515 287.619445 469.385307 287.619445 
Q 470.416557 287.619445 471.086869 288.249914 
Q 471.757182 288.878039 471.757182 289.721789 
Q 471.757182 290.270227 471.445463 290.781164 
Q 471.136088 291.289758 470.468119 291.676477 
Q 471.325932 292.093664 471.775932 292.705383 
Q 472.225932 293.317102 472.225932 294.240539 
Q 472.225932 295.792102 471.100932 296.881945 
Q 469.978275 297.969445 468.089213 297.969445 
Q 466.828275 297.969445 466.249369 297.549914 
Q 465.832182 297.256945 465.832182 296.79757 
Q 465.832182 296.46007 466.073588 296.223352 
Q 466.314994 295.984289 466.6314 295.984289 
Q 466.872807 295.984289 467.086088 296.08507 
Q 467.203275 296.143664 467.915775 296.727258 
Q 468.630619 297.308508 469.254057 297.308508 
Q 469.795463 297.308508 470.182182 296.881945 
Q 470.571244 296.453039 470.571244 295.792102 
Q 470.571244 294.788977 469.868119 293.942883 
Q 469.164994 293.096789 467.810307 292.775695 
z
M 478.202494 292.145227 
Q 479.25015 292.913977 479.655619 293.577258 
Q 480.063432 294.240539 480.063432 295.098352 
Q 480.063432 296.298352 479.158744 297.130383 
Q 478.254057 297.962414 476.702494 297.962414 
Q 475.230619 297.962414 474.424369 297.238195 
Q 473.618119 296.511633 473.618119 295.463977 
Q 473.618119 294.664758 474.082182 294.064758 
Q 474.548588 293.464758 475.6314 292.965539 
Q 474.452494 292.065539 474.119682 291.493664 
Q 473.786869 290.921789 473.786869 290.167102 
Q 473.786869 289.171008 474.632963 288.413977 
Q 475.479057 287.656945 476.950932 287.656945 
Q 478.371244 287.656945 479.135307 288.327258 
Q 479.901713 288.995227 479.901713 289.932727 
Q 479.901713 290.635852 479.486869 291.174914 
Q 479.074369 291.713977 478.202494 292.145227 
z
M 477.647025 291.77257 
Q 477.916557 291.406945 478.047807 290.952258 
Q 478.1814 290.49757 478.1814 289.956164 
Q 478.1814 289.004602 477.771244 288.498352 
Q 477.464213 288.109289 476.920463 288.109289 
Q 476.430619 288.109289 476.086088 288.465539 
Q 475.741557 288.819445 475.741557 289.346789 
Q 475.741557 289.883508 476.125932 290.457727 
Q 476.510307 291.031945 477.647025 291.77257 
z
M 476.182182 293.317102 
Q 475.954838 293.523352 475.858744 293.692102 
Q 475.713432 293.94757 475.596244 294.439758 
Q 475.479057 294.929602 475.479057 295.463977 
Q 475.479057 296.153039 475.654838 296.617102 
Q 475.830619 297.081164 476.1564 297.287414 
Q 476.482182 297.49132 476.826713 297.49132 
Q 477.361088 297.49132 477.726713 297.099914 
Q 478.092338 296.708508 478.092338 296.026477 
Q 478.092338 294.606164 476.182182 293.317102 
z
M 482.875932 287.823352 
L 487.525932 287.823352 
L 486.78765 289.714758 
L 482.875932 289.714758 
L 482.503275 290.70382 
Q 485.029838 290.79757 486.391557 291.962414 
Q 487.511869 292.921008 487.511869 294.350695 
Q 487.511869 295.264758 486.991557 296.14132 
Q 486.471244 297.015539 485.526713 297.488977 
Q 484.582182 297.962414 483.454838 297.962414 
Q 482.238432 297.962414 481.586869 297.507727 
Q 481.132182 297.184289 481.132182 296.774133 
Q 481.132182 296.46007 481.3689 296.218664 
Q 481.607963 295.977258 481.924369 295.977258 
Q 482.210307 295.977258 482.503275 296.094445 
Q 482.796244 296.211633 483.5064 296.708508 
Q 483.951713 297.015539 484.27515 297.132727 
Q 484.502494 297.221789 484.788432 297.221789 
Q 485.388432 297.221789 485.807963 296.783508 
Q 486.229838 296.342883 486.229838 295.726477 
Q 486.229838 294.437414 484.940775 293.633508 
Q 483.651713 292.827258 481.689994 292.827258 
Q 481.490775 292.827258 481.097025 292.834289 
L 482.875932 287.823352 
z
M 489.965775 295.499133 
Q 490.479057 295.499133 490.832963 295.86007 
Q 491.189213 296.218664 491.189213 296.72257 
Q 491.189213 297.22882 490.830619 297.58507 
Q 490.472025 297.938977 489.965775 297.938977 
Q 489.459525 297.938977 489.103275 297.58507 
Q 488.749369 297.22882 488.749369 296.72257 
Q 488.749369 296.218664 489.103275 295.86007 
Q 489.459525 295.499133 489.965775 295.499133 
z
M 498.792338 292.789758 
Q 498.792338 294.278039 498.37515 295.567102 
Q 498.124369 296.356945 497.702494 296.863195 
Q 497.282963 297.367102 496.748588 297.664758 
Q 496.214213 297.962414 495.583744 297.962414 
Q 494.866557 297.962414 494.28765 297.596789 
Q 493.708744 297.22882 493.261088 296.546789 
Q 492.939994 296.049914 492.698588 295.22257 
Q 492.382182 294.102258 492.382182 292.906945 
Q 492.382182 291.289758 492.836869 289.932727 
Q 493.209525 288.812414 493.971244 288.217102 
Q 494.732963 287.619445 495.583744 287.619445 
Q 496.448588 287.619445 497.198588 288.21007 
Q 497.948588 288.798352 498.30015 289.794445 
Q 498.792338 291.163195 498.792338 292.789758 
z
M 496.535307 292.775695 
Q 496.535307 290.167102 496.507182 289.735852 
Q 496.432182 288.718664 496.155619 288.36007 
Q 495.972807 288.125695 495.56265 288.125695 
Q 495.246244 288.125695 495.063432 288.301477 
Q 494.791557 288.556945 494.695463 289.206164 
Q 494.601713 289.853039 494.601713 293.727258 
Q 494.601713 295.836633 494.749369 296.55382 
Q 494.859525 297.074133 495.063432 297.249914 
Q 495.269682 297.425695 495.604838 297.425695 
Q 495.972807 297.425695 496.155619 297.19132 
Q 496.46265 296.781164 496.507182 295.925695 
L 496.535307 292.775695 
z
" style="fill: #404040; stroke: #ffffff; stroke-width: 3.8"/>
    <path d="M 467.810307 292.775695 
L 467.810307 292.520227 
Q 468.644682 292.276477 468.965775 292.067883 
Q 469.289213 291.859289 469.523588 291.432727 
Q 469.757963 291.00382 469.757963 290.563195 
Q 469.757963 289.956164 469.314994 289.520227 
Q 468.872025 289.084289 468.213432 289.084289 
Q 467.186869 289.084289 466.469682 290.167102 
L 466.197807 290.073352 
Q 466.72515 288.849914 467.55015 288.235852 
Q 468.37515 287.619445 469.385307 287.619445 
Q 470.416557 287.619445 471.086869 288.249914 
Q 471.757182 288.878039 471.757182 289.721789 
Q 471.757182 290.270227 471.445463 290.781164 
Q 471.136088 291.289758 470.468119 291.676477 
Q 471.325932 292.093664 471.775932 292.705383 
Q 472.225932 293.317102 472.225932 294.240539 
Q 472.225932 295.792102 471.100932 296.881945 
Q 469.978275 297.969445 468.089213 297.969445 
Q 466.828275 297.969445 466.249369 297.549914 
Q 465.832182 297.256945 465.832182 296.79757 
Q 465.832182 296.46007 466.073588 296.223352 
Q 466.314994 295.984289 466.6314 295.984289 
Q 466.872807 295.984289 467.086088 296.08507 
Q 467.203275 296.143664 467.915775 296.727258 
Q 468.630619 297.308508 469.254057 297.308508 
Q 469.795463 297.308508 470.182182 296.881945 
Q 470.571244 296.453039 470.571244 295.792102 
Q 470.571244 294.788977 469.868119 293.942883 
Q 469.164994 293.096789 467.810307 292.775695 
z
M 478.202494 292.145227 
Q 479.25015 292.913977 479.655619 293.577258 
Q 480.063432 294.240539 480.063432 295.098352 
Q 480.063432 296.298352 479.158744 297.130383 
Q 478.254057 297.962414 476.702494 297.962414 
Q 475.230619 297.962414 474.424369 297.238195 
Q 473.618119 296.511633 473.618119 295.463977 
Q 473.618119 294.664758 474.082182 294.064758 
Q 474.548588 293.464758 475.6314 292.965539 
Q 474.452494 292.065539 474.119682 291.493664 
Q 473.786869 290.921789 473.786869 290.167102 
Q 473.786869 289.171008 474.632963 288.413977 
Q 475.479057 287.656945 476.950932 287.656945 
Q 478.371244 287.656945 479.135307 288.327258 
Q 479.901713 288.995227 479.901713 289.932727 
Q 479.901713 290.635852 479.486869 291.174914 
Q 479.074369 291.713977 478.202494 292.145227 
z
M 477.647025 291.77257 
Q 477.916557 291.406945 478.047807 290.952258 
Q 478.1814 290.49757 478.1814 289.956164 
Q 478.1814 289.004602 477.771244 288.498352 
Q 477.464213 288.109289 476.920463 288.109289 
Q 476.430619 288.109289 476.086088 288.465539 
Q 475.741557 288.819445 475.741557 289.346789 
Q 475.741557 289.883508 476.125932 290.457727 
Q 476.510307 291.031945 477.647025 291.77257 
z
M 476.182182 293.317102 
Q 475.954838 293.523352 475.858744 293.692102 
Q 475.713432 293.94757 475.596244 294.439758 
Q 475.479057 294.929602 475.479057 295.463977 
Q 475.479057 296.153039 475.654838 296.617102 
Q 475.830619 297.081164 476.1564 297.287414 
Q 476.482182 297.49132 476.826713 297.49132 
Q 477.361088 297.49132 477.726713 297.099914 
Q 478.092338 296.708508 478.092338 296.026477 
Q 478.092338 294.606164 476.182182 293.317102 
z
M 482.875932 287.823352 
L 487.525932 287.823352 
L 486.78765 289.714758 
L 482.875932 289.714758 
L 482.503275 290.70382 
Q 485.029838 290.79757 486.391557 291.962414 
Q 487.511869 292.921008 487.511869 294.350695 
Q 487.511869 295.264758 486.991557 296.14132 
Q 486.471244 297.015539 485.526713 297.488977 
Q 484.582182 297.962414 483.454838 297.962414 
Q 482.238432 297.962414 481.586869 297.507727 
Q 481.132182 297.184289 481.132182 296.774133 
Q 481.132182 296.46007 481.3689 296.218664 
Q 481.607963 295.977258 481.924369 295.977258 
Q 482.210307 295.977258 482.503275 296.094445 
Q 482.796244 296.211633 483.5064 296.708508 
Q 483.951713 297.015539 484.27515 297.132727 
Q 484.502494 297.221789 484.788432 297.221789 
Q 485.388432 297.221789 485.807963 296.783508 
Q 486.229838 296.342883 486.229838 295.726477 
Q 486.229838 294.437414 484.940775 293.633508 
Q 483.651713 292.827258 481.689994 292.827258 
Q 481.490775 292.827258 481.097025 292.834289 
L 482.875932 287.823352 
z
M 489.965775 295.499133 
Q 490.479057 295.499133 490.832963 295.86007 
Q 491.189213 296.218664 491.189213 296.72257 
Q 491.189213 297.22882 490.830619 297.58507 
Q 490.472025 297.938977 489.965775 297.938977 
Q 489.459525 297.938977 489.103275 297.58507 
Q 488.749369 297.22882 488.749369 296.72257 
Q 488.749369 296.218664 489.103275 295.86007 
Q 489.459525 295.499133 489.965775 295.499133 
z
M 498.792338 292.789758 
Q 498.792338 294.278039 498.37515 295.567102 
Q 498.124369 296.356945 497.702494 296.863195 
Q 497.282963 297.367102 496.748588 297.664758 
Q 496.214213 297.962414 495.583744 297.962414 
Q 494.866557 297.962414 494.28765 297.596789 
Q 493.708744 297.22882 493.261088 296.546789 
Q 492.939994 296.049914 492.698588 295.22257 
Q 492.382182 294.102258 492.382182 292.906945 
Q 492.382182 291.289758 492.836869 289.932727 
Q 493.209525 288.812414 493.971244 288.217102 
Q 494.732963 287.619445 495.583744 287.619445 
Q 496.448588 287.619445 497.198588 288.21007 
Q 497.948588 288.798352 498.30015 289.794445 
Q 498.792338 291.163195 498.792338 292.789758 
z
M 496.535307 292.775695 
Q 496.535307 290.167102 496.507182 289.735852 
Q 496.432182 288.718664 496.155619 288.36007 
Q 495.972807 288.125695 495.56265 288.125695 
Q 495.246244 288.125695 495.063432 288.301477 
Q 494.791557 288.556945 494.695463 289.206164 
Q 494.601713 289.853039 494.601713 293.727258 
Q 494.601713 295.836633 494.749369 296.55382 
Q 494.859525 297.074133 495.063432 297.249914 
Q 495.269682 297.425695 495.604838 297.425695 
Q 495.972807 297.425695 496.155619 297.19132 
Q 496.46265 296.781164 496.507182 295.925695 
L 496.535307 292.775695 
z
" style="fill: #404040"/>
   </g>
   <g id="text_23">
    <path d="M 326.302693 379.279609 
Q 327.350349 380.048359 327.755818 380.711641 
Q 328.16363 381.374922 328.16363 382.232734 
Q 328.16363 383.432734 327.258943 384.264766 
Q 326.354255 385.096797 324.802693 385.096797 
Q 323.330818 385.096797 322.524568 384.372578 
Q 321.718318 383.646016 321.718318 382.598359 
Q 321.718318 381.799141 322.18238 381.199141 
Q 322.648787 380.599141 323.731599 380.099922 
Q 322.552693 379.199922 322.21988 378.628047 
Q 321.887068 378.056172 321.887068 377.301484 
Q 321.887068 376.305391 322.733162 375.548359 
Q 323.579255 374.791328 325.05113 374.791328 
Q 326.471443 374.791328 327.235505 375.461641 
Q 328.001912 376.129609 328.001912 377.067109 
Q 328.001912 377.770234 327.587068 378.309297 
Q 327.174568 378.848359 326.302693 379.279609 
z
M 325.747224 378.906953 
Q 326.016755 378.541328 326.148005 378.086641 
Q 326.281599 377.631953 326.281599 377.090547 
Q 326.281599 376.138984 325.871443 375.632734 
Q 325.564412 375.243672 325.020662 375.243672 
Q 324.530818 375.243672 324.186287 375.599922 
Q 323.841755 375.953828 323.841755 376.481172 
Q 323.841755 377.017891 324.22613 377.592109 
Q 324.610505 378.166328 325.747224 378.906953 
z
M 324.28238 380.451484 
Q 324.055037 380.657734 323.958943 380.826484 
Q 323.81363 381.081953 323.696443 381.574141 
Q 323.579255 382.063984 323.579255 382.598359 
Q 323.579255 383.287422 323.755037 383.751484 
Q 323.930818 384.215547 324.256599 384.421797 
Q 324.58238 384.625703 324.926912 384.625703 
Q 325.461287 384.625703 325.826912 384.234297 
Q 326.192537 383.842891 326.192537 383.160859 
Q 326.192537 381.740547 324.28238 380.451484 
z
M 329.06363 381.147578 
L 333.781599 374.753828 
L 334.674568 374.753828 
L 334.674568 381.147578 
L 335.583943 381.147578 
L 335.583943 382.663984 
L 334.674568 382.663984 
L 334.674568 384.890547 
L 332.661287 384.890547 
L 332.661287 382.663984 
L 329.06363 382.663984 
L 329.06363 381.147578 
z
M 329.77613 381.147578 
L 332.661287 381.147578 
L 332.661287 377.228828 
L 329.77613 381.147578 
z
M 338.065974 382.633516 
Q 338.579255 382.633516 338.933162 382.994453 
Q 339.289412 383.353047 339.289412 383.856953 
Q 339.289412 384.363203 338.930818 384.719453 
Q 338.572224 385.073359 338.065974 385.073359 
Q 337.559724 385.073359 337.203474 384.719453 
Q 336.849568 384.363203 336.849568 383.856953 
Q 336.849568 383.353047 337.203474 382.994453 
Q 337.559724 382.633516 338.065974 382.633516 
z
M 346.151912 384.890547 
L 340.306599 384.890547 
L 340.306599 384.728828 
Q 342.99488 381.529609 343.569099 380.423359 
Q 344.145662 379.317109 344.145662 378.262422 
Q 344.145662 377.493672 343.66988 376.985078 
Q 343.194099 376.474141 342.505037 376.474141 
Q 341.377693 376.474141 340.754255 377.603828 
L 340.48238 377.507734 
Q 340.878474 376.101484 341.684724 375.428828 
Q 342.490974 374.753828 343.545662 374.753828 
Q 344.298005 374.753828 344.921443 375.105391 
Q 345.54488 375.456953 345.896443 376.068672 
Q 346.248005 376.680391 346.248005 377.214766 
Q 346.248005 378.189766 345.704255 379.192891 
Q 344.965974 380.547578 342.474568 382.971016 
L 344.621443 382.971016 
Q 345.411287 382.971016 345.650349 382.905391 
Q 345.889412 382.839766 346.041755 382.682734 
Q 346.196443 382.525703 346.44488 382.019453 
L 346.709724 382.019453 
L 346.151912 384.890547 
z
" style="fill: #404040; stroke: #ffffff; stroke-width: 3.8"/>
    <path d="M 326.302693 379.279609 
Q 327.350349 380.048359 327.755818 380.711641 
Q 328.16363 381.374922 328.16363 382.232734 
Q 328.16363 383.432734 327.258943 384.264766 
Q 326.354255 385.096797 324.802693 385.096797 
Q 323.330818 385.096797 322.524568 384.372578 
Q 321.718318 383.646016 321.718318 382.598359 
Q 321.718318 381.799141 322.18238 381.199141 
Q 322.648787 380.599141 323.731599 380.099922 
Q 322.552693 379.199922 322.21988 378.628047 
Q 321.887068 378.056172 321.887068 377.301484 
Q 321.887068 376.305391 322.733162 375.548359 
Q 323.579255 374.791328 325.05113 374.791328 
Q 326.471443 374.791328 327.235505 375.461641 
Q 328.001912 376.129609 328.001912 377.067109 
Q 328.001912 377.770234 327.587068 378.309297 
Q 327.174568 378.848359 326.302693 379.279609 
z
M 325.747224 378.906953 
Q 326.016755 378.541328 326.148005 378.086641 
Q 326.281599 377.631953 326.281599 377.090547 
Q 326.281599 376.138984 325.871443 375.632734 
Q 325.564412 375.243672 325.020662 375.243672 
Q 324.530818 375.243672 324.186287 375.599922 
Q 323.841755 375.953828 323.841755 376.481172 
Q 323.841755 377.017891 324.22613 377.592109 
Q 324.610505 378.166328 325.747224 378.906953 
z
M 324.28238 380.451484 
Q 324.055037 380.657734 323.958943 380.826484 
Q 323.81363 381.081953 323.696443 381.574141 
Q 323.579255 382.063984 323.579255 382.598359 
Q 323.579255 383.287422 323.755037 383.751484 
Q 323.930818 384.215547 324.256599 384.421797 
Q 324.58238 384.625703 324.926912 384.625703 
Q 325.461287 384.625703 325.826912 384.234297 
Q 326.192537 383.842891 326.192537 383.160859 
Q 326.192537 381.740547 324.28238 380.451484 
z
M 329.06363 381.147578 
L 333.781599 374.753828 
L 334.674568 374.753828 
L 334.674568 381.147578 
L 335.583943 381.147578 
L 335.583943 382.663984 
L 334.674568 382.663984 
L 334.674568 384.890547 
L 332.661287 384.890547 
L 332.661287 382.663984 
L 329.06363 382.663984 
L 329.06363 381.147578 
z
M 329.77613 381.147578 
L 332.661287 381.147578 
L 332.661287 377.228828 
L 329.77613 381.147578 
z
M 338.065974 382.633516 
Q 338.579255 382.633516 338.933162 382.994453 
Q 339.289412 383.353047 339.289412 383.856953 
Q 339.289412 384.363203 338.930818 384.719453 
Q 338.572224 385.073359 338.065974 385.073359 
Q 337.559724 385.073359 337.203474 384.719453 
Q 336.849568 384.363203 336.849568 383.856953 
Q 336.849568 383.353047 337.203474 382.994453 
Q 337.559724 382.633516 338.065974 382.633516 
z
M 346.151912 384.890547 
L 340.306599 384.890547 
L 340.306599 384.728828 
Q 342.99488 381.529609 343.569099 380.423359 
Q 344.145662 379.317109 344.145662 378.262422 
Q 344.145662 377.493672 343.66988 376.985078 
Q 343.194099 376.474141 342.505037 376.474141 
Q 341.377693 376.474141 340.754255 377.603828 
L 340.48238 377.507734 
Q 340.878474 376.101484 341.684724 375.428828 
Q 342.490974 374.753828 343.545662 374.753828 
Q 344.298005 374.753828 344.921443 375.105391 
Q 345.54488 375.456953 345.896443 376.068672 
Q 346.248005 376.680391 346.248005 377.214766 
Q 346.248005 378.189766 345.704255 379.192891 
Q 344.965974 380.547578 342.474568 382.971016 
L 344.621443 382.971016 
Q 345.411287 382.971016 345.650349 382.905391 
Q 345.889412 382.839766 346.041755 382.682734 
Q 346.196443 382.525703 346.44488 382.019453 
L 346.709724 382.019453 
L 346.151912 384.890547 
z
" style="fill: #404040"/>
   </g>
  </g>
 </g>
 <defs>
  <clipPath id="p285be5b9e8">
   <rect x="7.2" y="51.034687" width="734.4" height="438.48"/>
  </clipPath>
 </defs>
</svg>
