<?xml version="1.0" encoding="utf-8" standalone="no"?>
<!DOCTYPE svg PUBLIC "-//W3C//DTD SVG 1.1//EN"
  "http://www.w3.org/Graphics/SVG/1.1/DTD/svg11.dtd">
<svg xmlns:xlink="http://www.w3.org/1999/xlink" width="745.164pt" height="496.714687pt" viewBox="0 0 745.164 496.714687" xmlns="http://www.w3.org/2000/svg" version="1.1">
 <metadata>
  <rdf:RDF xmlns:dc="http://purl.org/dc/elements/1.1/" xmlns:cc="http://creativecommons.org/ns#" xmlns:rdf="http://www.w3.org/1999/02/22-rdf-syntax-ns#">
   <cc:Work>
    <dc:type rdf:resource="http://purl.org/dc/dcmitype/StillImage"/>
    <dc:date>2026-07-13T16:58:42.209741</dc:date>
    <dc:format>image/svg+xml</dc:format>
    <dc:creator>
     <cc:Agent>
      <dc:title>Matplotlib v3.10.8, https://matplotlib.org/</dc:title>
     </cc:Agent>
    </dc:creator>
   </cc:Work>
  </rdf:RDF>
 </metadata>
 <defs>
  <style type="text/css">*{stroke-linejoin: round; stroke-linecap: butt}</style>
 </defs>
 <g id="figure_1">
  <g id="patch_1">
   <path d="M 0 496.714687 
L 745.164 496.714687 
L 745.164 0 
L 0 0 
L 0 496.714687 
z
" style="fill: none"/>
  </g>
  <g id="axes_1">
   <g id="patch_2">
    <path d="M 120.350555 443.117154 
Q 120.350555 456.731658 120.350555 466.813414 
" clip-path="url(#p79b35c742d)" style="fill: none; stroke: #111111; stroke-width: 3.159787; stroke-linejoin: miter; stroke-linecap: round"/>
    <path d="M 124.305687 458.90315 
L 120.350555 466.813414 
L 116.395423 458.90315 
z
" clip-path="url(#p79b35c742d)" style="fill: #111111; stroke: #111111; stroke-width: 3.159787; stroke-linejoin: miter; stroke-linecap: round"/>
   </g>
   <g id="patch_3">
    <path d="M 120.350555 348.069186 
Q 120.350555 370.956764 120.350555 388.788722 
" clip-path="url(#p79b35c742d)" style="fill: none; stroke: #111111; stroke-width: 4.521884; stroke-linejoin: miter; stroke-linecap: round"/>
    <path d="M 124.741558 380.006716 
L 120.350555 388.788722 
L 115.959552 380.006716 
z
" clip-path="url(#p79b35c742d)" style="fill: #111111; stroke: #111111; stroke-width: 4.521884; stroke-linejoin: miter; stroke-linecap: round"/>
   </g>
   <g id="patch_4">
    <path d="M 120.350555 218.911068 
Q 120.350555 249.580648 120.350555 274.072584 
" clip-path="url(#p79b35c742d)" style="fill: none; stroke: #111111; stroke-width: 5.525452; stroke-linejoin: miter; stroke-linecap: round"/>
    <path d="M 125.0627 264.648294 
L 120.350555 274.072584 
L 115.63841 264.648294 
z
" clip-path="url(#p79b35c742d)" style="fill: #111111; stroke: #111111; stroke-width: 5.525452; stroke-linejoin: miter; stroke-linecap: round"/>
   </g>
   <g id="patch_5">
    <path d="M 586.153672 256.933754 
Q 586.153672 282.888236 586.153672 304.484213 
" clip-path="url(#p79b35c742d)" style="fill: none; stroke: #111111; stroke-width: 3.898365; stroke-linejoin: miter; stroke-linecap: round"/>
    <path d="M 590.345149 296.10126 
L 586.153672 304.484213 
L 581.962196 296.10126 
z
" clip-path="url(#p79b35c742d)" style="fill: #111111; stroke: #111111; stroke-width: 3.898365; stroke-linejoin: miter; stroke-linecap: round"/>
   </g>
   <g id="line2d_1">
    <path d="M 165.610777 470.346163 
L 550.322663 470.346163 
" clip-path="url(#p79b35c742d)" style="fill: none; stroke-dasharray: 5.6,4.2; stroke-dashoffset: 0; stroke: #404040; stroke-width: 1.4"/>
   </g>
   <g id="line2d_2">
    <path d="M 165.610777 393.844342 
L 550.322663 393.844342 
" clip-path="url(#p79b35c742d)" style="fill: none; stroke-dasharray: 5.6,4.2; stroke-dashoffset: 0; stroke: #404040; stroke-width: 1.4"/>
   </g>
   <g id="line2d_3">
    <path d="M 574.838617 308.842717 
L 503.176599 308.842717 
" clip-path="url(#p79b35c742d)" style="fill: none; stroke-dasharray: 5.6,4.2; stroke-dashoffset: 0; stroke: #404040; stroke-width: 1.4"/>
   </g>
   <g id="patch_6">
    <path d="M 665.359061 308.842717 
Q 583.498065 387.515763 502.292056 465.55933 
" clip-path="url(#p79b35c742d)" style="fill: none; stroke: #404040; stroke-width: 0.812528; stroke-linejoin: miter; stroke-linecap: round"/>
    <path d="M 508.278808 463.694975 
L 502.292056 465.55933 
L 504.392623 459.651316 
z
" clip-path="url(#p79b35c742d)" style="fill: #404040; stroke: #404040; stroke-width: 0.812528; stroke-linejoin: miter; stroke-linecap: round"/>
   </g>
   <g id="patch_7">
    <path d="M 620.098839 308.842717 
Q 578.039206 349.264403 538.818438 386.957779 
" clip-path="url(#p79b35c742d)" style="fill: none; stroke: #404040; stroke-width: 3.521685; stroke-linejoin: miter; stroke-linecap: round"/>
    <path d="M 546.733153 384.49303 
L 538.818438 386.957779 
L 541.595467 379.147157 
z
" clip-path="url(#p79b35c742d)" style="fill: #404040; stroke: #404040; stroke-width: 3.521685; stroke-linejoin: miter; stroke-linecap: round"/>
   </g>
   <g id="patch_8">
    <path d="M 415.484919 250.199492 
Q 477.38113 278.281772 534.186616 304.054394 
" clip-path="url(#p79b35c742d)" style="fill: none; stroke: #404040; stroke-width: 5; stroke-linejoin: miter; stroke-linecap: round"/>
    <path d="M 528.272392 296.759056 
L 534.186616 304.054394 
L 524.801811 304.40857 
z
" clip-path="url(#p79b35c742d)" style="fill: #404040; stroke: #404040; stroke-width: 5; stroke-linejoin: miter; stroke-linecap: round"/>
   </g>
   <g id="patch_9">
    <path d="M 370.224697 250.199492 
Q 334.085644 319.363207 298.408253 387.643384 
" clip-path="url(#p79b35c742d)" style="fill: none; stroke: #404040; stroke-width: 0.891637; stroke-linejoin: miter; stroke-linecap: round"/>
    <path d="M 303.53866 383.936786 
L 298.408253 387.643384 
L 298.521219 381.3151 
z
" clip-path="url(#p79b35c742d)" style="fill: #404040; stroke: #404040; stroke-width: 0.891637; stroke-linejoin: miter; stroke-linecap: round"/>
   </g>
   <g id="line2d_4">
    <path d="M 120.350555 393.844342 
L 120.350555 421.073351 
" clip-path="url(#p79b35c742d)" style="fill: none; stroke: #111111; stroke-width: 3.159787"/>
   </g>
   <g id="line2d_5">
    <path d="M 120.350555 280.250227 
L 120.350555 326.025383 
" clip-path="url(#p79b35c742d)" style="fill: none; stroke: #111111; stroke-width: 4.521884"/>
   </g>
   <g id="line2d_6">
    <path d="M 120.350555 135.528106 
L 120.350555 196.867265 
" clip-path="url(#p79b35c742d)" style="fill: none; stroke: #111111; stroke-width: 5.525452"/>
   </g>
   <g id="line2d_7">
    <path d="M 586.153672 182.980987 
L 586.153672 234.889951 
" clip-path="url(#p79b35c742d)" style="fill: none; stroke: #111111; stroke-width: 3.898365"/>
   </g>
   <g id="line2d_8">
    <path d="M 75.090333 470.346163 
L 165.610777 470.346163 
" clip-path="url(#p79b35c742d)" style="fill: none; stroke: #111111; stroke-width: 3.6; stroke-linecap: round"/>
   </g>
   <g id="line2d_9">
    <path d="M 75.090333 393.844342 
L 165.610777 393.844342 
" clip-path="url(#p79b35c742d)" style="fill: none; stroke: #111111; stroke-width: 3.6; stroke-linecap: round"/>
   </g>
   <g id="line2d_10">
    <path d="M 75.090333 280.250227 
L 165.610777 280.250227 
" clip-path="url(#p79b35c742d)" style="fill: none; stroke: #111111; stroke-width: 3.6; stroke-linecap: round"/>
   </g>
   <g id="line2d_11">
    <path d="M 75.090333 135.528106 
L 165.610777 135.528106 
" clip-path="url(#p79b35c742d)" style="fill: none; stroke: #111111; stroke-width: 3.6; stroke-linecap: round"/>
   </g>
   <g id="line2d_12">
    <path d="M 324.964475 250.199492 
L 415.484919 250.199492 
" clip-path="url(#p79b35c742d)" style="fill: none; stroke: #111111; stroke-width: 3.6; stroke-linecap: round"/>
   </g>
   <g id="line2d_13">
    <path d="M 574.838617 308.842717 
L 665.359061 308.842717 
" clip-path="url(#p79b35c742d)" style="fill: none; stroke: #111111; stroke-width: 3.6; stroke-linecap: round"/>
   </g>
   <g id="line2d_14">
    <path d="M 574.838617 182.980987 
L 665.359061 182.980987 
" clip-path="url(#p79b35c742d)" style="fill: none; stroke: #111111; stroke-width: 3.6; stroke-linecap: round"/>
   </g>
   <g id="text_1">
    <!-- $^{274}\mathrm{No}$ -->
    <g transform="translate(326.002 33.034687) scale(0.34 -0.34)">
     <defs>
      <path id="DejaVuSans-32" d="M 1228 531 
L 3431 531 
L 3431 0 
L 469 0 
L 469 531 
Q 828 903 1448 1529 
Q 2069 2156 2228 2338 
Q 2531 2678 2651 2914 
Q 2772 3150 2772 3378 
Q 2772 3750 2511 3984 
Q 2250 4219 1831 4219 
Q 1534 4219 1204 4116 
Q 875 4013 500 3803 
L 500 4441 
Q 881 4594 1212 4672 
Q 1544 4750 1819 4750 
Q 2544 4750 2975 4387 
Q 3406 4025 3406 3419 
Q 3406 3131 3298 2873 
Q 3191 2616 2906 2266 
Q 2828 2175 2409 1742 
Q 1991 1309 1228 531 
z
" transform="scale(0.015625)"/>
      <path id="DejaVuSans-37" d="M 525 4666 
L 3525 4666 
L 3525 4397 
L 1831 0 
L 1172 0 
L 2766 4134 
L 525 4134 
L 525 4666 
z
" transform="scale(0.015625)"/>
      <path id="DejaVuSans-34" d="M 2419 4116 
L 825 1625 
L 2419 1625 
L 2419 4116 
z
M 2253 4666 
L 3047 4666 
L 3047 1625 
L 3713 1625 
L 3713 1100 
L 3047 1100 
L 3047 0 
L 2419 0 
L 2419 1100 
L 313 1100 
L 313 1709 
L 2253 4666 
z
" transform="scale(0.015625)"/>
      <path id="DejaVuSans-4e" d="M 628 4666 
L 1478 4666 
L 3547 763 
L 3547 4666 
L 4159 4666 
L 4159 0 
L 3309 0 
L 1241 3903 
L 1241 0 
L 628 0 
L 628 4666 
z
" transform="scale(0.015625)"/>
      <path id="DejaVuSans-6f" d="M 1959 3097 
Q 1497 3097 1228 2736 
Q 959 2375 959 1747 
Q 959 1119 1226 758 
Q 1494 397 1959 397 
Q 2419 397 2687 759 
Q 2956 1122 2956 1747 
Q 2956 2369 2687 2733 
Q 2419 3097 1959 3097 
z
M 1959 3584 
Q 2709 3584 3137 3096 
Q 3566 2609 3566 1747 
Q 3566 888 3137 398 
Q 2709 -91 1959 -91 
Q 1206 -91 779 398 
Q 353 888 353 1747 
Q 353 2609 779 3096 
Q 1206 3584 1959 3584 
z
" transform="scale(0.015625)"/>
     </defs>
     <use xlink:href="#DejaVuSans-32" transform="translate(0.957031 39.046875) scale(0.7)"/>
     <use xlink:href="#DejaVuSans-37" transform="translate(45.493164 39.046875) scale(0.7)"/>
     <use xlink:href="#DejaVuSans-34" transform="translate(90.029297 39.046875) scale(0.7)"/>
     <use xlink:href="#DejaVuSans-4e" transform="translate(137.299805 0.765625)"/>
     <use xlink:href="#DejaVuSans-6f" transform="translate(212.104492 0.765625)"/>
    </g>
   </g>
   <g id="text_2">
    <!-- 0 -->
    <g transform="translate(46.98525 474.761163) scale(0.16 -0.16)">
     <defs>
      <path id="DejaVuSans-BoldOblique-30" d="M 1913 728 
Q 2153 728 2339 872 
Q 2525 1016 2650 1294 
Q 2738 1491 2809 1742 
Q 2881 1994 2944 2338 
Q 2997 2616 3025 2850 
Q 3053 3084 3053 3250 
Q 3053 3600 2928 3764 
Q 2803 3928 2541 3928 
Q 2297 3928 2112 3789 
Q 1928 3650 1806 3366 
Q 1713 3163 1636 2903 
Q 1559 2644 1503 2338 
Q 1450 2056 1422 1815 
Q 1394 1575 1394 1409 
Q 1394 1063 1522 895 
Q 1650 728 1913 728 
z
M 4225 3072 
Q 4225 2450 4053 1862 
Q 3881 1275 3572 831 
Q 3256 375 2809 142 
Q 2363 -91 1813 -91 
Q 1047 -91 639 343 
Q 231 778 231 1594 
Q 231 2206 401 2795 
Q 572 3384 878 3822 
Q 1200 4281 1644 4515 
Q 2088 4750 2644 4750 
Q 3403 4750 3814 4314 
Q 4225 3878 4225 3072 
z
" transform="scale(0.015625)"/>
     </defs>
     <use xlink:href="#DejaVuSans-BoldOblique-30"/>
    </g>
   </g>
   <g id="text_3">
    <!-- 0⁺ -->
    <g transform="translate(182.58336 475.501397) scale(0.23 -0.23)">
     <defs>
      <path id="TimesNewRomanPS-BoldMT-30" d="M 2966 2119 
Q 2966 1484 2788 934 
Q 2681 597 2501 381 
Q 2322 166 2094 39 
Q 1866 -88 1597 -88 
Q 1291 -88 1044 68 
Q 797 225 606 516 
Q 469 728 366 1081 
Q 231 1559 231 2069 
Q 231 2759 425 3338 
Q 584 3816 909 4070 
Q 1234 4325 1597 4325 
Q 1966 4325 2286 4073 
Q 2606 3822 2756 3397 
Q 2966 2813 2966 2119 
z
M 2003 2125 
Q 2003 3238 1991 3422 
Q 1959 3856 1841 4009 
Q 1763 4109 1588 4109 
Q 1453 4109 1375 4034 
Q 1259 3925 1218 3648 
Q 1178 3372 1178 1719 
Q 1178 819 1241 513 
Q 1288 291 1375 216 
Q 1463 141 1606 141 
Q 1763 141 1841 241 
Q 1972 416 1991 781 
L 2003 2125 
z
" transform="scale(0.015625)"/>
      <path id="DejaVuSerif-Bold-207a" d="M 1916 4344 
L 1916 3441 
L 2950 3441 
L 2950 3044 
L 1916 3044 
L 1916 2141 
L 1463 2141 
L 1463 3044 
L 428 3044 
L 428 3441 
L 1463 3441 
L 1463 4344 
L 1916 4344 
z
" transform="scale(0.015625)"/>
     </defs>
     <use xlink:href="#TimesNewRomanPS-BoldMT-30"/>
     <use xlink:href="#DejaVuSerif-Bold-207a" transform="translate(50 0)"/>
    </g>
   </g>
   <g id="text_4">
    <!-- 319 -->
    <g transform="translate(24.72025 398.259342) scale(0.16 -0.16)">
     <defs>
      <path id="DejaVuSans-BoldOblique-33" d="M 3022 2516 
Q 3375 2434 3572 2187 
Q 3769 1941 3769 1581 
Q 3769 806 3155 357 
Q 2541 -91 1466 -91 
Q 1059 -91 692 -33 
Q 325 25 0 141 
L 178 1069 
Q 456 906 784 817 
Q 1113 728 1441 728 
Q 1969 728 2276 926 
Q 2584 1125 2584 1459 
Q 2584 1738 2350 1877 
Q 2116 2016 1644 2016 
L 1166 2016 
L 1319 2791 
L 1825 2791 
Q 2316 2791 2602 2969 
Q 2888 3147 2888 3450 
Q 2888 3688 2689 3813 
Q 2491 3938 2113 3938 
Q 1847 3938 1534 3869 
Q 1222 3800 884 3669 
L 1056 4550 
Q 1425 4650 1783 4700 
Q 2141 4750 2491 4750 
Q 3281 4750 3679 4487 
Q 4078 4225 4078 3706 
Q 4078 3241 3801 2930 
Q 3525 2619 3022 2516 
z
" transform="scale(0.015625)"/>
      <path id="DejaVuSans-BoldOblique-31" d="M 441 831 
L 1503 831 
L 2088 3847 
L 953 3622 
L 1113 4441 
L 2241 4666 
L 3384 4666 
L 2644 831 
L 3700 831 
L 3541 0 
L 275 0 
L 441 831 
z
" transform="scale(0.015625)"/>
      <path id="DejaVuSans-BoldOblique-39" d="M 263 103 
L 428 966 
Q 700 825 953 758 
Q 1206 691 1459 691 
Q 2041 691 2400 1003 
Q 2759 1316 2834 1881 
Q 2594 1722 2337 1645 
Q 2081 1569 1791 1569 
Q 1219 1569 853 1909 
Q 488 2250 488 2778 
Q 488 3641 1052 4192 
Q 1616 4744 2503 4744 
Q 3300 4744 3736 4292 
Q 4172 3841 4172 3016 
Q 4172 2381 3978 1801 
Q 3784 1222 3431 800 
Q 3056 353 2548 128 
Q 2041 -97 1403 -97 
Q 1106 -97 825 -47 
Q 544 3 263 103 
z
M 2169 2344 
Q 2525 2344 2753 2637 
Q 2981 2931 2981 3391 
Q 2981 3675 2845 3828 
Q 2709 3981 2456 3981 
Q 2103 3981 1870 3690 
Q 1638 3400 1638 2963 
Q 1638 2663 1775 2503 
Q 1913 2344 2169 2344 
z
" transform="scale(0.015625)"/>
     </defs>
     <use xlink:href="#DejaVuSans-BoldOblique-33"/>
     <use xlink:href="#DejaVuSans-BoldOblique-31" transform="translate(69.580078 0)"/>
     <use xlink:href="#DejaVuSans-BoldOblique-39" transform="translate(139.160156 0)"/>
    </g>
   </g>
   <g id="text_5">
    <!-- 2⁺ -->
    <g transform="translate(182.58336 398.999576) scale(0.23 -0.23)">
     <defs>
      <path id="TimesNewRomanPS-BoldMT-32" d="M 2650 0 
L 156 0 
L 156 69 
Q 1303 1434 1548 1906 
Q 1794 2378 1794 2828 
Q 1794 3156 1591 3373 
Q 1388 3591 1094 3591 
Q 613 3591 347 3109 
L 231 3150 
Q 400 3750 744 4037 
Q 1088 4325 1538 4325 
Q 1859 4325 2125 4175 
Q 2391 4025 2541 3764 
Q 2691 3503 2691 3275 
Q 2691 2859 2459 2431 
Q 2144 1853 1081 819 
L 1997 819 
Q 2334 819 2436 847 
Q 2538 875 2603 942 
Q 2669 1009 2775 1225 
L 2888 1225 
L 2650 0 
z
" transform="scale(0.015625)"/>
     </defs>
     <use xlink:href="#TimesNewRomanPS-BoldMT-32"/>
     <use xlink:href="#DejaVuSerif-Bold-207a" transform="translate(50 0)"/>
    </g>
   </g>
   <g id="text_6">
    <!-- 793 -->
    <g transform="translate(24.72025 284.665227) scale(0.16 -0.16)">
     <defs>
      <path id="DejaVuSans-BoldOblique-37" d="M 922 4666 
L 4441 4666 
L 4300 3981 
L 1703 0 
L 500 0 
L 2969 3781 
L 756 3781 
L 922 4666 
z
" transform="scale(0.015625)"/>
     </defs>
     <use xlink:href="#DejaVuSans-BoldOblique-37"/>
     <use xlink:href="#DejaVuSans-BoldOblique-39" transform="translate(69.580078 0)"/>
     <use xlink:href="#DejaVuSans-BoldOblique-33" transform="translate(139.160156 0)"/>
    </g>
   </g>
   <g id="text_7">
    <!-- 4⁺ -->
    <g transform="translate(182.58336 285.405462) scale(0.23 -0.23)">
     <defs>
      <path id="TimesNewRomanPS-BoldMT-34" d="M 159 1597 
L 2172 4325 
L 2553 4325 
L 2553 1597 
L 2941 1597 
L 2941 950 
L 2553 950 
L 2553 0 
L 1694 0 
L 1694 950 
L 159 950 
L 159 1597 
z
M 463 1597 
L 1694 1597 
L 1694 3269 
L 463 1597 
z
" transform="scale(0.015625)"/>
     </defs>
     <use xlink:href="#TimesNewRomanPS-BoldMT-34"/>
     <use xlink:href="#DejaVuSerif-Bold-207a" transform="translate(50 0)"/>
    </g>
   </g>
   <g id="text_8">
    <!-- 1397 -->
    <g transform="translate(13.58775 139.943106) scale(0.16 -0.16)">
     <use xlink:href="#DejaVuSans-BoldOblique-31"/>
     <use xlink:href="#DejaVuSans-BoldOblique-33" transform="translate(69.580078 0)"/>
     <use xlink:href="#DejaVuSans-BoldOblique-39" transform="translate(139.160156 0)"/>
     <use xlink:href="#DejaVuSans-BoldOblique-37" transform="translate(208.740234 0)"/>
    </g>
   </g>
   <g id="text_9">
    <!-- 6⁺ -->
    <g transform="translate(182.58336 140.683341) scale(0.23 -0.23)">
     <defs>
      <path id="TimesNewRomanPS-BoldMT-36" d="M 3006 4325 
L 3006 4238 
Q 2441 4094 2098 3867 
Q 1756 3641 1557 3317 
Q 1359 2994 1250 2516 
Q 1388 2609 1478 2638 
Q 1681 2700 1888 2700 
Q 2363 2700 2680 2354 
Q 2997 2009 2997 1413 
Q 2997 994 2825 644 
Q 2653 294 2337 103 
Q 2022 -88 1663 -88 
Q 1272 -88 940 126 
Q 609 341 423 753 
Q 238 1166 238 1650 
Q 238 2363 580 2977 
Q 922 3591 1551 3955 
Q 2181 4319 3006 4325 
z
M 1209 2263 
Q 1184 1831 1184 1631 
Q 1184 1200 1267 797 
Q 1350 394 1494 231 
Q 1597 116 1738 116 
Q 1881 116 1993 283 
Q 2106 450 2106 963 
Q 2106 1825 1897 2153 
Q 1763 2366 1534 2366 
Q 1409 2366 1209 2263 
z
" transform="scale(0.015625)"/>
     </defs>
     <use xlink:href="#TimesNewRomanPS-BoldMT-36"/>
     <use xlink:href="#DejaVuSerif-Bold-207a" transform="translate(50 0)"/>
    </g>
   </g>
   <g id="text_10">
    <!-- 919 -->
    <g transform="translate(274.594392 254.614492) scale(0.16 -0.16)">
     <use xlink:href="#DejaVuSans-BoldOblique-39"/>
     <use xlink:href="#DejaVuSans-BoldOblique-31" transform="translate(69.580078 0)"/>
     <use xlink:href="#DejaVuSans-BoldOblique-39" transform="translate(139.160156 0)"/>
    </g>
   </g>
   <g id="text_11">
    <!-- 0⁺ -->
    <g transform="translate(432.457502 255.354726) scale(0.23 -0.23)">
     <use xlink:href="#TimesNewRomanPS-BoldMT-30"/>
     <use xlink:href="#DejaVuSerif-Bold-207a" transform="translate(50 0)"/>
    </g>
   </g>
   <g id="text_12">
    <!-- 674 -->
    <g transform="translate(524.468534 313.257717) scale(0.16 -0.16)">
     <defs>
      <path id="DejaVuSans-BoldOblique-36" d="M 2316 2303 
Q 1959 2303 1731 2009 
Q 1503 1716 1503 1253 
Q 1503 975 1643 820 
Q 1784 666 2034 666 
Q 2388 666 2617 955 
Q 2847 1244 2847 1684 
Q 2847 1984 2709 2143 
Q 2572 2303 2316 2303 
z
M 4225 4544 
L 4056 3681 
Q 3788 3819 3534 3887 
Q 3281 3956 3028 3956 
Q 2447 3956 2087 3643 
Q 1728 3331 1650 2766 
Q 1894 2925 2151 3001 
Q 2409 3078 2700 3078 
Q 3275 3078 3640 2737 
Q 4006 2397 4006 1869 
Q 4006 1006 3442 454 
Q 2878 -97 1991 -97 
Q 1194 -97 756 354 
Q 319 806 319 1631 
Q 319 2269 512 2848 
Q 706 3428 1056 3847 
Q 1431 4294 1942 4519 
Q 2453 4744 3091 4744 
Q 3384 4744 3662 4694 
Q 3941 4644 4225 4544 
z
" transform="scale(0.015625)"/>
      <path id="DejaVuSans-BoldOblique-34" d="M 2638 3641 
L 978 1722 
L 2259 1722 
L 2638 3641 
z
M 2606 4666 
L 3975 4666 
L 3397 1722 
L 4063 1722 
L 3897 850 
L 3231 850 
L 3066 0 
L 1925 0 
L 2094 850 
L -6 850 
L 197 1881 
L 2606 4666 
z
" transform="scale(0.015625)"/>
     </defs>
     <use xlink:href="#DejaVuSans-BoldOblique-36"/>
     <use xlink:href="#DejaVuSans-BoldOblique-37" transform="translate(69.580078 0)"/>
     <use xlink:href="#DejaVuSans-BoldOblique-34" transform="translate(139.160156 0)"/>
    </g>
   </g>
   <g id="text_13">
    <!-- 2⁺ -->
    <g transform="translate(682.331644 313.997952) scale(0.23 -0.23)">
     <use xlink:href="#TimesNewRomanPS-BoldMT-32"/>
     <use xlink:href="#DejaVuSerif-Bold-207a" transform="translate(50 0)"/>
    </g>
   </g>
   <g id="text_14">
    <!-- 1199 -->
    <g transform="translate(513.336034 187.395987) scale(0.16 -0.16)">
     <use xlink:href="#DejaVuSans-BoldOblique-31"/>
     <use xlink:href="#DejaVuSans-BoldOblique-31" transform="translate(69.580078 0)"/>
     <use xlink:href="#DejaVuSans-BoldOblique-39" transform="translate(139.160156 0)"/>
     <use xlink:href="#DejaVuSans-BoldOblique-39" transform="translate(208.740234 0)"/>
    </g>
   </g>
   <g id="text_15">
    <!-- 3⁺ -->
    <g transform="translate(682.331644 188.136221) scale(0.23 -0.23)">
     <defs>
      <path id="TimesNewRomanPS-BoldMT-33" d="M 947 2125 
L 947 2234 
Q 1303 2338 1440 2427 
Q 1578 2516 1678 2698 
Q 1778 2881 1778 3069 
Q 1778 3328 1589 3514 
Q 1400 3700 1119 3700 
Q 681 3700 375 3238 
L 259 3278 
Q 484 3800 836 4062 
Q 1188 4325 1619 4325 
Q 2059 4325 2345 4056 
Q 2631 3788 2631 3428 
Q 2631 3194 2498 2976 
Q 2366 2759 2081 2594 
Q 2447 2416 2639 2155 
Q 2831 1894 2831 1500 
Q 2831 838 2351 373 
Q 1872 -91 1066 -91 
Q 528 -91 281 88 
Q 103 213 103 409 
Q 103 553 206 654 
Q 309 756 444 756 
Q 547 756 638 713 
Q 688 688 992 439 
Q 1297 191 1563 191 
Q 1794 191 1959 373 
Q 2125 556 2125 838 
Q 2125 1266 1825 1627 
Q 1525 1988 947 2125 
z
" transform="scale(0.015625)"/>
     </defs>
     <use xlink:href="#TimesNewRomanPS-BoldMT-33"/>
     <use xlink:href="#DejaVuSerif-Bold-207a" transform="translate(50 0)"/>
    </g>
   </g>
   <g id="text_16">
    <path d="M 107.560555 424.869002 
L 107.560555 433.534002 
Q 107.560555 434.509002 107.645555 434.779002 
Q 107.733055 435.049002 108.005555 435.221502 
Q 108.280555 435.391502 108.883055 435.391502 
L 109.123055 435.391502 
L 109.123055 435.681502 
L 103.545555 435.681502 
L 103.545555 435.391502 
L 103.828055 435.391502 
Q 104.508055 435.391502 104.795555 435.236502 
Q 105.085555 435.079002 105.185555 434.806502 
Q 105.288055 434.534002 105.288055 433.534002 
L 105.288055 428.041502 
Q 105.288055 427.306502 105.218055 427.124002 
Q 105.148055 426.939002 104.955555 426.811502 
Q 104.765555 426.681502 104.515555 426.681502 
Q 104.115555 426.681502 103.545555 426.931502 
L 103.405555 426.649002 
L 107.303055 424.869002 
L 107.560555 424.869002 
z
M 117.765555 430.384002 
Q 117.765555 431.971502 117.320555 433.346502 
Q 117.053055 434.189002 116.603055 434.729002 
Q 116.155555 435.266502 115.585555 435.584002 
Q 115.015555 435.901502 114.343055 435.901502 
Q 113.578055 435.901502 112.960555 435.511502 
Q 112.343055 435.119002 111.865555 434.391502 
Q 111.523055 433.861502 111.265555 432.979002 
Q 110.928055 431.784002 110.928055 430.509002 
Q 110.928055 428.784002 111.413055 427.336502 
Q 111.810555 426.141502 112.623055 425.506502 
Q 113.435555 424.869002 114.343055 424.869002 
Q 115.265555 424.869002 116.065555 425.499002 
Q 116.865555 426.126502 117.240555 427.189002 
Q 117.765555 428.649002 117.765555 430.384002 
z
M 115.358055 430.369002 
Q 115.358055 427.586502 115.328055 427.126502 
Q 115.248055 426.041502 114.953055 425.659002 
Q 114.758055 425.409002 114.320555 425.409002 
Q 113.983055 425.409002 113.788055 425.596502 
Q 113.498055 425.869002 113.395555 426.561502 
Q 113.295555 427.251502 113.295555 431.384002 
Q 113.295555 433.634002 113.453055 434.399002 
Q 113.570555 434.954002 113.788055 435.141502 
Q 114.008055 435.329002 114.365555 435.329002 
Q 114.758055 435.329002 114.953055 435.079002 
Q 115.280555 434.641502 115.328055 433.729002 
L 115.358055 430.369002 
z
M 125.865555 424.869002 
L 125.865555 425.086502 
Q 124.453055 425.446502 123.595555 426.014002 
Q 122.740555 426.579002 122.243055 427.389002 
Q 121.748055 428.196502 121.475555 429.391502 
Q 121.820555 429.159002 122.045555 429.086502 
Q 122.553055 428.931502 123.070555 428.931502 
Q 124.258055 428.931502 125.050555 429.796502 
Q 125.843055 430.659002 125.843055 432.149002 
Q 125.843055 433.196502 125.413055 434.071502 
Q 124.983055 434.946502 124.193055 435.424002 
Q 123.405555 435.901502 122.508055 435.901502 
Q 121.530555 435.901502 120.700555 435.366502 
Q 119.873055 434.829002 119.408055 433.799002 
Q 118.945555 432.766502 118.945555 431.556502 
Q 118.945555 429.774002 119.800555 428.239002 
Q 120.655555 426.704002 122.228055 425.794002 
Q 123.803055 424.884002 125.865555 424.869002 
z
M 121.373055 430.024002 
Q 121.310555 431.104002 121.310555 431.604002 
Q 121.310555 432.681502 121.518055 433.689002 
Q 121.725555 434.696502 122.085555 435.104002 
Q 122.343055 435.391502 122.695555 435.391502 
Q 123.053055 435.391502 123.333055 434.974002 
Q 123.615555 434.556502 123.615555 433.274002 
Q 123.615555 431.119002 123.093055 430.299002 
Q 122.758055 429.766502 122.185555 429.766502 
Q 121.873055 429.766502 121.373055 430.024002 
z
M 128.350555 433.274002 
Q 128.898055 433.274002 129.275555 433.659002 
Q 129.655555 434.041502 129.655555 434.579002 
Q 129.655555 435.119002 129.273055 435.499002 
Q 128.890555 435.876502 128.350555 435.876502 
Q 127.810555 435.876502 127.430555 435.499002 
Q 127.053055 435.119002 127.053055 434.579002 
Q 127.053055 434.041502 127.430555 433.659002 
Q 127.810555 433.274002 128.350555 433.274002 
z
M 133.185555 435.901502 
L 136.070555 427.159002 
L 133.873055 427.159002 
Q 132.585555 427.159002 131.935555 427.494002 
Q 131.483055 427.729002 131.185555 428.376502 
L 130.890555 428.376502 
L 131.655555 425.086502 
L 137.968055 425.086502 
L 134.413055 435.901502 
L 133.185555 435.901502 
z
" style="stroke: #ffffff; stroke-width: 3.8"/>
    <path d="M 107.560555 424.869002 
L 107.560555 433.534002 
Q 107.560555 434.509002 107.645555 434.779002 
Q 107.733055 435.049002 108.005555 435.221502 
Q 108.280555 435.391502 108.883055 435.391502 
L 109.123055 435.391502 
L 109.123055 435.681502 
L 103.545555 435.681502 
L 103.545555 435.391502 
L 103.828055 435.391502 
Q 104.508055 435.391502 104.795555 435.236502 
Q 105.085555 435.079002 105.185555 434.806502 
Q 105.288055 434.534002 105.288055 433.534002 
L 105.288055 428.041502 
Q 105.288055 427.306502 105.218055 427.124002 
Q 105.148055 426.939002 104.955555 426.811502 
Q 104.765555 426.681502 104.515555 426.681502 
Q 104.115555 426.681502 103.545555 426.931502 
L 103.405555 426.649002 
L 107.303055 424.869002 
L 107.560555 424.869002 
z
M 117.765555 430.384002 
Q 117.765555 431.971502 117.320555 433.346502 
Q 117.053055 434.189002 116.603055 434.729002 
Q 116.155555 435.266502 115.585555 435.584002 
Q 115.015555 435.901502 114.343055 435.901502 
Q 113.578055 435.901502 112.960555 435.511502 
Q 112.343055 435.119002 111.865555 434.391502 
Q 111.523055 433.861502 111.265555 432.979002 
Q 110.928055 431.784002 110.928055 430.509002 
Q 110.928055 428.784002 111.413055 427.336502 
Q 111.810555 426.141502 112.623055 425.506502 
Q 113.435555 424.869002 114.343055 424.869002 
Q 115.265555 424.869002 116.065555 425.499002 
Q 116.865555 426.126502 117.240555 427.189002 
Q 117.765555 428.649002 117.765555 430.384002 
z
M 115.358055 430.369002 
Q 115.358055 427.586502 115.328055 427.126502 
Q 115.248055 426.041502 114.953055 425.659002 
Q 114.758055 425.409002 114.320555 425.409002 
Q 113.983055 425.409002 113.788055 425.596502 
Q 113.498055 425.869002 113.395555 426.561502 
Q 113.295555 427.251502 113.295555 431.384002 
Q 113.295555 433.634002 113.453055 434.399002 
Q 113.570555 434.954002 113.788055 435.141502 
Q 114.008055 435.329002 114.365555 435.329002 
Q 114.758055 435.329002 114.953055 435.079002 
Q 115.280555 434.641502 115.328055 433.729002 
L 115.358055 430.369002 
z
M 125.865555 424.869002 
L 125.865555 425.086502 
Q 124.453055 425.446502 123.595555 426.014002 
Q 122.740555 426.579002 122.243055 427.389002 
Q 121.748055 428.196502 121.475555 429.391502 
Q 121.820555 429.159002 122.045555 429.086502 
Q 122.553055 428.931502 123.070555 428.931502 
Q 124.258055 428.931502 125.050555 429.796502 
Q 125.843055 430.659002 125.843055 432.149002 
Q 125.843055 433.196502 125.413055 434.071502 
Q 124.983055 434.946502 124.193055 435.424002 
Q 123.405555 435.901502 122.508055 435.901502 
Q 121.530555 435.901502 120.700555 435.366502 
Q 119.873055 434.829002 119.408055 433.799002 
Q 118.945555 432.766502 118.945555 431.556502 
Q 118.945555 429.774002 119.800555 428.239002 
Q 120.655555 426.704002 122.228055 425.794002 
Q 123.803055 424.884002 125.865555 424.869002 
z
M 121.373055 430.024002 
Q 121.310555 431.104002 121.310555 431.604002 
Q 121.310555 432.681502 121.518055 433.689002 
Q 121.725555 434.696502 122.085555 435.104002 
Q 122.343055 435.391502 122.695555 435.391502 
Q 123.053055 435.391502 123.333055 434.974002 
Q 123.615555 434.556502 123.615555 433.274002 
Q 123.615555 431.119002 123.093055 430.299002 
Q 122.758055 429.766502 122.185555 429.766502 
Q 121.873055 429.766502 121.373055 430.024002 
z
M 128.350555 433.274002 
Q 128.898055 433.274002 129.275555 433.659002 
Q 129.655555 434.041502 129.655555 434.579002 
Q 129.655555 435.119002 129.273055 435.499002 
Q 128.890555 435.876502 128.350555 435.876502 
Q 127.810555 435.876502 127.430555 435.499002 
Q 127.053055 435.119002 127.053055 434.579002 
Q 127.053055 434.041502 127.430555 433.659002 
Q 127.810555 433.274002 128.350555 433.274002 
z
M 133.185555 435.901502 
L 136.070555 427.159002 
L 133.873055 427.159002 
Q 132.585555 427.159002 131.935555 427.494002 
Q 131.483055 427.729002 131.185555 428.376502 
L 130.890555 428.376502 
L 131.655555 425.086502 
L 137.968055 425.086502 
L 134.413055 435.901502 
L 133.185555 435.901502 
z
"/>
   </g>
   <g id="text_17">
    <path d="M 107.560555 329.821034 
L 107.560555 338.486034 
Q 107.560555 339.461034 107.645555 339.731034 
Q 107.733055 340.001034 108.005555 340.173534 
Q 108.280555 340.343534 108.883055 340.343534 
L 109.123055 340.343534 
L 109.123055 340.633534 
L 103.545555 340.633534 
L 103.545555 340.343534 
L 103.828055 340.343534 
Q 104.508055 340.343534 104.795555 340.188534 
Q 105.085555 340.031034 105.185555 339.758534 
Q 105.288055 339.486034 105.288055 338.486034 
L 105.288055 332.993534 
Q 105.288055 332.258534 105.218055 332.076034 
Q 105.148055 331.891034 104.955555 331.763534 
Q 104.765555 331.633534 104.515555 331.633534 
Q 104.115555 331.633534 103.545555 331.883534 
L 103.405555 331.601034 
L 107.303055 329.821034 
L 107.560555 329.821034 
z
M 117.865555 329.821034 
L 117.865555 330.038534 
Q 116.453055 330.398534 115.595555 330.966034 
Q 114.740555 331.531034 114.243055 332.341034 
Q 113.748055 333.148534 113.475555 334.343534 
Q 113.820555 334.111034 114.045555 334.038534 
Q 114.553055 333.883534 115.070555 333.883534 
Q 116.258055 333.883534 117.050555 334.748534 
Q 117.843055 335.611034 117.843055 337.101034 
Q 117.843055 338.148534 117.413055 339.023534 
Q 116.983055 339.898534 116.193055 340.376034 
Q 115.405555 340.853534 114.508055 340.853534 
Q 113.530555 340.853534 112.700555 340.318534 
Q 111.873055 339.781034 111.408055 338.751034 
Q 110.945555 337.718534 110.945555 336.508534 
Q 110.945555 334.726034 111.800555 333.191034 
Q 112.655555 331.656034 114.228055 330.746034 
Q 115.803055 329.836034 117.865555 329.821034 
z
M 113.373055 334.976034 
Q 113.310555 336.056034 113.310555 336.556034 
Q 113.310555 337.633534 113.518055 338.641034 
Q 113.725555 339.648534 114.085555 340.056034 
Q 114.343055 340.343534 114.695555 340.343534 
Q 115.053055 340.343534 115.333055 339.926034 
Q 115.615555 339.508534 115.615555 338.226034 
Q 115.615555 336.071034 115.093055 335.251034 
Q 114.758055 334.718534 114.185555 334.718534 
Q 113.873055 334.718534 113.373055 334.976034 
z
M 123.803055 334.648534 
Q 124.920555 335.468534 125.353055 336.176034 
Q 125.788055 336.883534 125.788055 337.798534 
Q 125.788055 339.078534 124.823055 339.966034 
Q 123.858055 340.853534 122.203055 340.853534 
Q 120.633055 340.853534 119.773055 340.081034 
Q 118.913055 339.306034 118.913055 338.188534 
Q 118.913055 337.336034 119.408055 336.696034 
Q 119.905555 336.056034 121.060555 335.523534 
Q 119.803055 334.563534 119.448055 333.953534 
Q 119.093055 333.343534 119.093055 332.538534 
Q 119.093055 331.476034 119.995555 330.668534 
Q 120.898055 329.861034 122.468055 329.861034 
Q 123.983055 329.861034 124.798055 330.576034 
Q 125.615555 331.288534 125.615555 332.288534 
Q 125.615555 333.038534 125.173055 333.613534 
Q 124.733055 334.188534 123.803055 334.648534 
z
M 123.210555 334.251034 
Q 123.498055 333.861034 123.638055 333.376034 
Q 123.780555 332.891034 123.780555 332.313534 
Q 123.780555 331.298534 123.343055 330.758534 
Q 123.015555 330.343534 122.435555 330.343534 
Q 121.913055 330.343534 121.545555 330.723534 
Q 121.178055 331.101034 121.178055 331.663534 
Q 121.178055 332.236034 121.588055 332.848534 
Q 121.998055 333.461034 123.210555 334.251034 
z
M 121.648055 335.898534 
Q 121.405555 336.118534 121.303055 336.298534 
Q 121.148055 336.571034 121.023055 337.096034 
Q 120.898055 337.618534 120.898055 338.188534 
Q 120.898055 338.923534 121.085555 339.418534 
Q 121.273055 339.913534 121.620555 340.133534 
Q 121.968055 340.351034 122.335555 340.351034 
Q 122.905555 340.351034 123.295555 339.933534 
Q 123.685555 339.516034 123.685555 338.788534 
Q 123.685555 337.273534 121.648055 335.898534 
z
M 128.350555 338.226034 
Q 128.898055 338.226034 129.275555 338.611034 
Q 129.655555 338.993534 129.655555 339.531034 
Q 129.655555 340.071034 129.273055 340.451034 
Q 128.890555 340.828534 128.350555 340.828534 
Q 127.810555 340.828534 127.430555 340.451034 
Q 127.053055 340.071034 127.053055 339.531034 
Q 127.053055 338.993534 127.430555 338.611034 
Q 127.810555 338.226034 128.350555 338.226034 
z
M 132.718055 335.321034 
L 132.718055 335.048534 
Q 133.608055 334.788534 133.950555 334.566034 
Q 134.295555 334.343534 134.545555 333.888534 
Q 134.795555 333.431034 134.795555 332.961034 
Q 134.795555 332.313534 134.323055 331.848534 
Q 133.850555 331.383534 133.148055 331.383534 
Q 132.053055 331.383534 131.288055 332.538534 
L 130.998055 332.438534 
Q 131.560555 331.133534 132.440555 330.478534 
Q 133.320555 329.821034 134.398055 329.821034 
Q 135.498055 329.821034 136.213055 330.493534 
Q 136.928055 331.163534 136.928055 332.063534 
Q 136.928055 332.648534 136.595555 333.193534 
Q 136.265555 333.736034 135.553055 334.148534 
Q 136.468055 334.593534 136.948055 335.246034 
Q 137.428055 335.898534 137.428055 336.883534 
Q 137.428055 338.538534 136.228055 339.701034 
Q 135.030555 340.861034 133.015555 340.861034 
Q 131.670555 340.861034 131.053055 340.413534 
Q 130.608055 340.101034 130.608055 339.611034 
Q 130.608055 339.251034 130.865555 338.998534 
Q 131.123055 338.743534 131.460555 338.743534 
Q 131.718055 338.743534 131.945555 338.851034 
Q 132.070555 338.913534 132.830555 339.536034 
Q 133.593055 340.156034 134.258055 340.156034 
Q 134.835555 340.156034 135.248055 339.701034 
Q 135.663055 339.243534 135.663055 338.538534 
Q 135.663055 337.468534 134.913055 336.566034 
Q 134.163055 335.663534 132.718055 335.321034 
z
" style="stroke: #ffffff; stroke-width: 3.8"/>
    <path d="M 107.560555 329.821034 
L 107.560555 338.486034 
Q 107.560555 339.461034 107.645555 339.731034 
Q 107.733055 340.001034 108.005555 340.173534 
Q 108.280555 340.343534 108.883055 340.343534 
L 109.123055 340.343534 
L 109.123055 340.633534 
L 103.545555 340.633534 
L 103.545555 340.343534 
L 103.828055 340.343534 
Q 104.508055 340.343534 104.795555 340.188534 
Q 105.085555 340.031034 105.185555 339.758534 
Q 105.288055 339.486034 105.288055 338.486034 
L 105.288055 332.993534 
Q 105.288055 332.258534 105.218055 332.076034 
Q 105.148055 331.891034 104.955555 331.763534 
Q 104.765555 331.633534 104.515555 331.633534 
Q 104.115555 331.633534 103.545555 331.883534 
L 103.405555 331.601034 
L 107.303055 329.821034 
L 107.560555 329.821034 
z
M 117.865555 329.821034 
L 117.865555 330.038534 
Q 116.453055 330.398534 115.595555 330.966034 
Q 114.740555 331.531034 114.243055 332.341034 
Q 113.748055 333.148534 113.475555 334.343534 
Q 113.820555 334.111034 114.045555 334.038534 
Q 114.553055 333.883534 115.070555 333.883534 
Q 116.258055 333.883534 117.050555 334.748534 
Q 117.843055 335.611034 117.843055 337.101034 
Q 117.843055 338.148534 117.413055 339.023534 
Q 116.983055 339.898534 116.193055 340.376034 
Q 115.405555 340.853534 114.508055 340.853534 
Q 113.530555 340.853534 112.700555 340.318534 
Q 111.873055 339.781034 111.408055 338.751034 
Q 110.945555 337.718534 110.945555 336.508534 
Q 110.945555 334.726034 111.800555 333.191034 
Q 112.655555 331.656034 114.228055 330.746034 
Q 115.803055 329.836034 117.865555 329.821034 
z
M 113.373055 334.976034 
Q 113.310555 336.056034 113.310555 336.556034 
Q 113.310555 337.633534 113.518055 338.641034 
Q 113.725555 339.648534 114.085555 340.056034 
Q 114.343055 340.343534 114.695555 340.343534 
Q 115.053055 340.343534 115.333055 339.926034 
Q 115.615555 339.508534 115.615555 338.226034 
Q 115.615555 336.071034 115.093055 335.251034 
Q 114.758055 334.718534 114.185555 334.718534 
Q 113.873055 334.718534 113.373055 334.976034 
z
M 123.803055 334.648534 
Q 124.920555 335.468534 125.353055 336.176034 
Q 125.788055 336.883534 125.788055 337.798534 
Q 125.788055 339.078534 124.823055 339.966034 
Q 123.858055 340.853534 122.203055 340.853534 
Q 120.633055 340.853534 119.773055 340.081034 
Q 118.913055 339.306034 118.913055 338.188534 
Q 118.913055 337.336034 119.408055 336.696034 
Q 119.905555 336.056034 121.060555 335.523534 
Q 119.803055 334.563534 119.448055 333.953534 
Q 119.093055 333.343534 119.093055 332.538534 
Q 119.093055 331.476034 119.995555 330.668534 
Q 120.898055 329.861034 122.468055 329.861034 
Q 123.983055 329.861034 124.798055 330.576034 
Q 125.615555 331.288534 125.615555 332.288534 
Q 125.615555 333.038534 125.173055 333.613534 
Q 124.733055 334.188534 123.803055 334.648534 
z
M 123.210555 334.251034 
Q 123.498055 333.861034 123.638055 333.376034 
Q 123.780555 332.891034 123.780555 332.313534 
Q 123.780555 331.298534 123.343055 330.758534 
Q 123.015555 330.343534 122.435555 330.343534 
Q 121.913055 330.343534 121.545555 330.723534 
Q 121.178055 331.101034 121.178055 331.663534 
Q 121.178055 332.236034 121.588055 332.848534 
Q 121.998055 333.461034 123.210555 334.251034 
z
M 121.648055 335.898534 
Q 121.405555 336.118534 121.303055 336.298534 
Q 121.148055 336.571034 121.023055 337.096034 
Q 120.898055 337.618534 120.898055 338.188534 
Q 120.898055 338.923534 121.085555 339.418534 
Q 121.273055 339.913534 121.620555 340.133534 
Q 121.968055 340.351034 122.335555 340.351034 
Q 122.905555 340.351034 123.295555 339.933534 
Q 123.685555 339.516034 123.685555 338.788534 
Q 123.685555 337.273534 121.648055 335.898534 
z
M 128.350555 338.226034 
Q 128.898055 338.226034 129.275555 338.611034 
Q 129.655555 338.993534 129.655555 339.531034 
Q 129.655555 340.071034 129.273055 340.451034 
Q 128.890555 340.828534 128.350555 340.828534 
Q 127.810555 340.828534 127.430555 340.451034 
Q 127.053055 340.071034 127.053055 339.531034 
Q 127.053055 338.993534 127.430555 338.611034 
Q 127.810555 338.226034 128.350555 338.226034 
z
M 132.718055 335.321034 
L 132.718055 335.048534 
Q 133.608055 334.788534 133.950555 334.566034 
Q 134.295555 334.343534 134.545555 333.888534 
Q 134.795555 333.431034 134.795555 332.961034 
Q 134.795555 332.313534 134.323055 331.848534 
Q 133.850555 331.383534 133.148055 331.383534 
Q 132.053055 331.383534 131.288055 332.538534 
L 130.998055 332.438534 
Q 131.560555 331.133534 132.440555 330.478534 
Q 133.320555 329.821034 134.398055 329.821034 
Q 135.498055 329.821034 136.213055 330.493534 
Q 136.928055 331.163534 136.928055 332.063534 
Q 136.928055 332.648534 136.595555 333.193534 
Q 136.265555 333.736034 135.553055 334.148534 
Q 136.468055 334.593534 136.948055 335.246034 
Q 137.428055 335.898534 137.428055 336.883534 
Q 137.428055 338.538534 136.228055 339.701034 
Q 135.030555 340.861034 133.015555 340.861034 
Q 131.670555 340.861034 131.053055 340.413534 
Q 130.608055 340.101034 130.608055 339.611034 
Q 130.608055 339.251034 130.865555 338.998534 
Q 131.123055 338.743534 131.460555 338.743534 
Q 131.718055 338.743534 131.945555 338.851034 
Q 132.070555 338.913534 132.830555 339.536034 
Q 133.593055 340.156034 134.258055 340.156034 
Q 134.835555 340.156034 135.248055 339.701034 
Q 135.663055 339.243534 135.663055 338.538534 
Q 135.663055 337.468534 134.913055 336.566034 
Q 134.163055 335.663534 132.718055 335.321034 
z
"/>
   </g>
   <g id="text_18">
    <path d="M 108.975555 211.475417 
L 102.740555 211.475417 
L 102.740555 211.302917 
Q 105.608055 207.890417 106.220555 206.710417 
Q 106.835555 205.530417 106.835555 204.405417 
Q 106.835555 203.585417 106.328055 203.042917 
Q 105.820555 202.497917 105.085555 202.497917 
Q 103.883055 202.497917 103.218055 203.702917 
L 102.928055 203.600417 
Q 103.350555 202.100417 104.210555 201.382917 
Q 105.070555 200.662917 106.195555 200.662917 
Q 106.998055 200.662917 107.663055 201.037917 
Q 108.328055 201.412917 108.703055 202.065417 
Q 109.078055 202.717917 109.078055 203.287917 
Q 109.078055 204.327917 108.498055 205.397917 
Q 107.710555 206.842917 105.053055 209.427917 
L 107.343055 209.427917 
Q 108.185555 209.427917 108.440555 209.357917 
Q 108.695555 209.287917 108.858055 209.120417 
Q 109.023055 208.952917 109.288055 208.412917 
L 109.570555 208.412917 
L 108.975555 211.475417 
z
M 115.560555 200.662917 
L 115.560555 209.327917 
Q 115.560555 210.302917 115.645555 210.572917 
Q 115.733055 210.842917 116.005555 211.015417 
Q 116.280555 211.185417 116.883055 211.185417 
L 117.123055 211.185417 
L 117.123055 211.475417 
L 111.545555 211.475417 
L 111.545555 211.185417 
L 111.828055 211.185417 
Q 112.508055 211.185417 112.795555 211.030417 
Q 113.085555 210.872917 113.185555 210.600417 
Q 113.288055 210.327917 113.288055 209.327917 
L 113.288055 203.835417 
Q 113.288055 203.100417 113.218055 202.917917 
Q 113.148055 202.732917 112.955555 202.605417 
Q 112.765555 202.475417 112.515555 202.475417 
Q 112.115555 202.475417 111.545555 202.725417 
L 111.405555 202.442917 
L 115.303055 200.662917 
L 115.560555 200.662917 
z
M 120.718055 206.162917 
L 120.718055 205.890417 
Q 121.608055 205.630417 121.950555 205.407917 
Q 122.295555 205.185417 122.545555 204.730417 
Q 122.795555 204.272917 122.795555 203.802917 
Q 122.795555 203.155417 122.323055 202.690417 
Q 121.850555 202.225417 121.148055 202.225417 
Q 120.053055 202.225417 119.288055 203.380417 
L 118.998055 203.280417 
Q 119.560555 201.975417 120.440555 201.320417 
Q 121.320555 200.662917 122.398055 200.662917 
Q 123.498055 200.662917 124.213055 201.335417 
Q 124.928055 202.005417 124.928055 202.905417 
Q 124.928055 203.490417 124.595555 204.035417 
Q 124.265555 204.577917 123.553055 204.990417 
Q 124.468055 205.435417 124.948055 206.087917 
Q 125.428055 206.740417 125.428055 207.725417 
Q 125.428055 209.380417 124.228055 210.542917 
Q 123.030555 211.702917 121.015555 211.702917 
Q 119.670555 211.702917 119.053055 211.255417 
Q 118.608055 210.942917 118.608055 210.452917 
Q 118.608055 210.092917 118.865555 209.840417 
Q 119.123055 209.585417 119.460555 209.585417 
Q 119.718055 209.585417 119.945555 209.692917 
Q 120.070555 209.755417 120.830555 210.377917 
Q 121.593055 210.997917 122.258055 210.997917 
Q 122.835555 210.997917 123.248055 210.542917 
Q 123.663055 210.085417 123.663055 209.380417 
Q 123.663055 208.310417 122.913055 207.407917 
Q 122.163055 206.505417 120.718055 206.162917 
z
M 128.350555 209.067917 
Q 128.898055 209.067917 129.275555 209.452917 
Q 129.655555 209.835417 129.655555 210.372917 
Q 129.655555 210.912917 129.273055 211.292917 
Q 128.890555 211.670417 128.350555 211.670417 
Q 127.810555 211.670417 127.430555 211.292917 
Q 127.053055 210.912917 127.053055 210.372917 
Q 127.053055 209.835417 127.430555 209.452917 
Q 127.810555 209.067917 128.350555 209.067917 
z
M 133.185555 211.695417 
L 136.070555 202.952917 
L 133.873055 202.952917 
Q 132.585555 202.952917 131.935555 203.287917 
Q 131.483055 203.522917 131.185555 204.170417 
L 130.890555 204.170417 
L 131.655555 200.880417 
L 137.968055 200.880417 
L 134.413055 211.695417 
L 133.185555 211.695417 
z
" style="stroke: #ffffff; stroke-width: 3.8"/>
    <path d="M 108.975555 211.475417 
L 102.740555 211.475417 
L 102.740555 211.302917 
Q 105.608055 207.890417 106.220555 206.710417 
Q 106.835555 205.530417 106.835555 204.405417 
Q 106.835555 203.585417 106.328055 203.042917 
Q 105.820555 202.497917 105.085555 202.497917 
Q 103.883055 202.497917 103.218055 203.702917 
L 102.928055 203.600417 
Q 103.350555 202.100417 104.210555 201.382917 
Q 105.070555 200.662917 106.195555 200.662917 
Q 106.998055 200.662917 107.663055 201.037917 
Q 108.328055 201.412917 108.703055 202.065417 
Q 109.078055 202.717917 109.078055 203.287917 
Q 109.078055 204.327917 108.498055 205.397917 
Q 107.710555 206.842917 105.053055 209.427917 
L 107.343055 209.427917 
Q 108.185555 209.427917 108.440555 209.357917 
Q 108.695555 209.287917 108.858055 209.120417 
Q 109.023055 208.952917 109.288055 208.412917 
L 109.570555 208.412917 
L 108.975555 211.475417 
z
M 115.560555 200.662917 
L 115.560555 209.327917 
Q 115.560555 210.302917 115.645555 210.572917 
Q 115.733055 210.842917 116.005555 211.015417 
Q 116.280555 211.185417 116.883055 211.185417 
L 117.123055 211.185417 
L 117.123055 211.475417 
L 111.545555 211.475417 
L 111.545555 211.185417 
L 111.828055 211.185417 
Q 112.508055 211.185417 112.795555 211.030417 
Q 113.085555 210.872917 113.185555 210.600417 
Q 113.288055 210.327917 113.288055 209.327917 
L 113.288055 203.835417 
Q 113.288055 203.100417 113.218055 202.917917 
Q 113.148055 202.732917 112.955555 202.605417 
Q 112.765555 202.475417 112.515555 202.475417 
Q 112.115555 202.475417 111.545555 202.725417 
L 111.405555 202.442917 
L 115.303055 200.662917 
L 115.560555 200.662917 
z
M 120.718055 206.162917 
L 120.718055 205.890417 
Q 121.608055 205.630417 121.950555 205.407917 
Q 122.295555 205.185417 122.545555 204.730417 
Q 122.795555 204.272917 122.795555 203.802917 
Q 122.795555 203.155417 122.323055 202.690417 
Q 121.850555 202.225417 121.148055 202.225417 
Q 120.053055 202.225417 119.288055 203.380417 
L 118.998055 203.280417 
Q 119.560555 201.975417 120.440555 201.320417 
Q 121.320555 200.662917 122.398055 200.662917 
Q 123.498055 200.662917 124.213055 201.335417 
Q 124.928055 202.005417 124.928055 202.905417 
Q 124.928055 203.490417 124.595555 204.035417 
Q 124.265555 204.577917 123.553055 204.990417 
Q 124.468055 205.435417 124.948055 206.087917 
Q 125.428055 206.740417 125.428055 207.725417 
Q 125.428055 209.380417 124.228055 210.542917 
Q 123.030555 211.702917 121.015555 211.702917 
Q 119.670555 211.702917 119.053055 211.255417 
Q 118.608055 210.942917 118.608055 210.452917 
Q 118.608055 210.092917 118.865555 209.840417 
Q 119.123055 209.585417 119.460555 209.585417 
Q 119.718055 209.585417 119.945555 209.692917 
Q 120.070555 209.755417 120.830555 210.377917 
Q 121.593055 210.997917 122.258055 210.997917 
Q 122.835555 210.997917 123.248055 210.542917 
Q 123.663055 210.085417 123.663055 209.380417 
Q 123.663055 208.310417 122.913055 207.407917 
Q 122.163055 206.505417 120.718055 206.162917 
z
M 128.350555 209.067917 
Q 128.898055 209.067917 129.275555 209.452917 
Q 129.655555 209.835417 129.655555 210.372917 
Q 129.655555 210.912917 129.273055 211.292917 
Q 128.890555 211.670417 128.350555 211.670417 
Q 127.810555 211.670417 127.430555 211.292917 
Q 127.053055 210.912917 127.053055 210.372917 
Q 127.053055 209.835417 127.430555 209.452917 
Q 127.810555 209.067917 128.350555 209.067917 
z
M 133.185555 211.695417 
L 136.070555 202.952917 
L 133.873055 202.952917 
Q 132.585555 202.952917 131.935555 203.287917 
Q 131.483055 203.522917 131.185555 204.170417 
L 130.890555 204.170417 
L 131.655555 200.880417 
L 137.968055 200.880417 
L 134.413055 211.695417 
L 133.185555 211.695417 
z
"/>
   </g>
   <g id="text_19">
    <path d="M 573.363672 238.685602 
L 573.363672 247.350602 
Q 573.363672 248.325602 573.448672 248.595602 
Q 573.536172 248.865602 573.808672 249.038102 
Q 574.083672 249.208102 574.686172 249.208102 
L 574.926172 249.208102 
L 574.926172 249.498102 
L 569.348672 249.498102 
L 569.348672 249.208102 
L 569.631172 249.208102 
Q 570.311172 249.208102 570.598672 249.053102 
Q 570.888672 248.895602 570.988672 248.623102 
Q 571.091172 248.350602 571.091172 247.350602 
L 571.091172 241.858102 
Q 571.091172 241.123102 571.021172 240.940602 
Q 570.951172 240.755602 570.758672 240.628102 
Q 570.568672 240.498102 570.318672 240.498102 
Q 569.918672 240.498102 569.348672 240.748102 
L 569.208672 240.465602 
L 573.106172 238.685602 
L 573.363672 238.685602 
z
M 576.551172 245.505602 
L 581.583672 238.685602 
L 582.536172 238.685602 
L 582.536172 245.505602 
L 583.506172 245.505602 
L 583.506172 247.123102 
L 582.536172 247.123102 
L 582.536172 249.498102 
L 580.388672 249.498102 
L 580.388672 247.123102 
L 576.551172 247.123102 
L 576.551172 245.505602 
z
M 577.311172 245.505602 
L 580.388672 245.505602 
L 580.388672 241.325602 
L 577.311172 245.505602 
z
M 591.568672 244.200602 
Q 591.568672 245.788102 591.123672 247.163102 
Q 590.856172 248.005602 590.406172 248.545602 
Q 589.958672 249.083102 589.388672 249.400602 
Q 588.818672 249.718102 588.146172 249.718102 
Q 587.381172 249.718102 586.763672 249.328102 
Q 586.146172 248.935602 585.668672 248.208102 
Q 585.326172 247.678102 585.068672 246.795602 
Q 584.731172 245.600602 584.731172 244.325602 
Q 584.731172 242.600602 585.216172 241.153102 
Q 585.613672 239.958102 586.426172 239.323102 
Q 587.238672 238.685602 588.146172 238.685602 
Q 589.068672 238.685602 589.868672 239.315602 
Q 590.668672 239.943102 591.043672 241.005602 
Q 591.568672 242.465602 591.568672 244.200602 
z
M 589.161172 244.185602 
Q 589.161172 241.403102 589.131172 240.943102 
Q 589.051172 239.858102 588.756172 239.475602 
Q 588.561172 239.225602 588.123672 239.225602 
Q 587.786172 239.225602 587.591172 239.413102 
Q 587.301172 239.685602 587.198672 240.378102 
Q 587.098672 241.068102 587.098672 245.200602 
Q 587.098672 247.450602 587.256172 248.215602 
Q 587.373672 248.770602 587.591172 248.958102 
Q 587.811172 249.145602 588.168672 249.145602 
Q 588.561172 249.145602 588.756172 248.895602 
Q 589.083672 248.458102 589.131172 247.545602 
L 589.161172 244.185602 
z
M 594.153672 247.090602 
Q 594.701172 247.090602 595.078672 247.475602 
Q 595.458672 247.858102 595.458672 248.395602 
Q 595.458672 248.935602 595.076172 249.315602 
Q 594.693672 249.693102 594.153672 249.693102 
Q 593.613672 249.693102 593.233672 249.315602 
Q 592.856172 248.935602 592.856172 248.395602 
Q 592.856172 247.858102 593.233672 247.475602 
Q 593.613672 247.090602 594.153672 247.090602 
z
M 601.363672 238.685602 
L 601.363672 247.350602 
Q 601.363672 248.325602 601.448672 248.595602 
Q 601.536172 248.865602 601.808672 249.038102 
Q 602.083672 249.208102 602.686172 249.208102 
L 602.926172 249.208102 
L 602.926172 249.498102 
L 597.348672 249.498102 
L 597.348672 249.208102 
L 597.631172 249.208102 
Q 598.311172 249.208102 598.598672 249.053102 
Q 598.888672 248.895602 598.988672 248.623102 
Q 599.091172 248.350602 599.091172 247.350602 
L 599.091172 241.858102 
Q 599.091172 241.123102 599.021172 240.940602 
Q 598.951172 240.755602 598.758672 240.628102 
Q 598.568672 240.498102 598.318672 240.498102 
Q 597.918672 240.498102 597.348672 240.748102 
L 597.208672 240.465602 
L 601.106172 238.685602 
L 601.363672 238.685602 
z
" style="stroke: #ffffff; stroke-width: 3.8"/>
    <path d="M 573.363672 238.685602 
L 573.363672 247.350602 
Q 573.363672 248.325602 573.448672 248.595602 
Q 573.536172 248.865602 573.808672 249.038102 
Q 574.083672 249.208102 574.686172 249.208102 
L 574.926172 249.208102 
L 574.926172 249.498102 
L 569.348672 249.498102 
L 569.348672 249.208102 
L 569.631172 249.208102 
Q 570.311172 249.208102 570.598672 249.053102 
Q 570.888672 248.895602 570.988672 248.623102 
Q 571.091172 248.350602 571.091172 247.350602 
L 571.091172 241.858102 
Q 571.091172 241.123102 571.021172 240.940602 
Q 570.951172 240.755602 570.758672 240.628102 
Q 570.568672 240.498102 570.318672 240.498102 
Q 569.918672 240.498102 569.348672 240.748102 
L 569.208672 240.465602 
L 573.106172 238.685602 
L 573.363672 238.685602 
z
M 576.551172 245.505602 
L 581.583672 238.685602 
L 582.536172 238.685602 
L 582.536172 245.505602 
L 583.506172 245.505602 
L 583.506172 247.123102 
L 582.536172 247.123102 
L 582.536172 249.498102 
L 580.388672 249.498102 
L 580.388672 247.123102 
L 576.551172 247.123102 
L 576.551172 245.505602 
z
M 577.311172 245.505602 
L 580.388672 245.505602 
L 580.388672 241.325602 
L 577.311172 245.505602 
z
M 591.568672 244.200602 
Q 591.568672 245.788102 591.123672 247.163102 
Q 590.856172 248.005602 590.406172 248.545602 
Q 589.958672 249.083102 589.388672 249.400602 
Q 588.818672 249.718102 588.146172 249.718102 
Q 587.381172 249.718102 586.763672 249.328102 
Q 586.146172 248.935602 585.668672 248.208102 
Q 585.326172 247.678102 585.068672 246.795602 
Q 584.731172 245.600602 584.731172 244.325602 
Q 584.731172 242.600602 585.216172 241.153102 
Q 585.613672 239.958102 586.426172 239.323102 
Q 587.238672 238.685602 588.146172 238.685602 
Q 589.068672 238.685602 589.868672 239.315602 
Q 590.668672 239.943102 591.043672 241.005602 
Q 591.568672 242.465602 591.568672 244.200602 
z
M 589.161172 244.185602 
Q 589.161172 241.403102 589.131172 240.943102 
Q 589.051172 239.858102 588.756172 239.475602 
Q 588.561172 239.225602 588.123672 239.225602 
Q 587.786172 239.225602 587.591172 239.413102 
Q 587.301172 239.685602 587.198672 240.378102 
Q 587.098672 241.068102 587.098672 245.200602 
Q 587.098672 247.450602 587.256172 248.215602 
Q 587.373672 248.770602 587.591172 248.958102 
Q 587.811172 249.145602 588.168672 249.145602 
Q 588.561172 249.145602 588.756172 248.895602 
Q 589.083672 248.458102 589.131172 247.545602 
L 589.161172 244.185602 
z
M 594.153672 247.090602 
Q 594.701172 247.090602 595.078672 247.475602 
Q 595.458672 247.858102 595.458672 248.395602 
Q 595.458672 248.935602 595.076172 249.315602 
Q 594.693672 249.693102 594.153672 249.693102 
Q 593.613672 249.693102 593.233672 249.315602 
Q 592.856172 248.935602 592.856172 248.395602 
Q 592.856172 247.858102 593.233672 247.475602 
Q 593.613672 247.090602 594.153672 247.090602 
z
M 601.363672 238.685602 
L 601.363672 247.350602 
Q 601.363672 248.325602 601.448672 248.595602 
Q 601.536172 248.865602 601.808672 249.038102 
Q 602.083672 249.208102 602.686172 249.208102 
L 602.926172 249.208102 
L 602.926172 249.498102 
L 597.348672 249.498102 
L 597.348672 249.208102 
L 597.631172 249.208102 
Q 598.311172 249.208102 598.598672 249.053102 
Q 598.888672 248.895602 598.988672 248.623102 
Q 599.091172 248.350602 599.091172 247.350602 
L 599.091172 241.858102 
Q 599.091172 241.123102 599.021172 240.940602 
Q 598.951172 240.755602 598.758672 240.628102 
Q 598.568672 240.498102 598.318672 240.498102 
Q 597.918672 240.498102 597.348672 240.748102 
L 597.208672 240.465602 
L 601.106172 238.685602 
L 601.363672 238.685602 
z
"/>
   </g>
   <g id="text_20">
    <path d="M 578.91172 404.762602 
Q 578.91172 406.250884 578.494532 407.539946 
Q 578.243751 408.32979 577.821876 408.83604 
Q 577.402345 409.339946 576.86797 409.637602 
Q 576.333595 409.935259 575.703126 409.935259 
Q 574.985939 409.935259 574.407032 409.569634 
Q 573.828126 409.201665 573.38047 408.519634 
Q 573.059376 408.022759 572.81797 407.195415 
Q 572.501564 406.075102 572.501564 404.87979 
Q 572.501564 403.262602 572.956251 401.905571 
Q 573.328907 400.785259 574.090626 400.189946 
Q 574.852345 399.59229 575.703126 399.59229 
Q 576.56797 399.59229 577.31797 400.182915 
Q 578.06797 400.771196 578.419532 401.76729 
Q 578.91172 403.13604 578.91172 404.762602 
z
M 576.654689 404.74854 
Q 576.654689 402.139946 576.626564 401.708696 
Q 576.551564 400.691509 576.275001 400.332915 
Q 576.092189 400.09854 575.682032 400.09854 
Q 575.365626 400.09854 575.182814 400.274321 
Q 574.910939 400.52979 574.814845 401.179009 
Q 574.721095 401.825884 574.721095 405.700102 
Q 574.721095 407.809477 574.868751 408.526665 
Q 574.978907 409.046977 575.182814 409.222759 
Q 575.389064 409.39854 575.72422 409.39854 
Q 576.092189 409.39854 576.275001 409.164165 
Q 576.582032 408.754009 576.626564 407.89854 
L 576.654689 404.74854 
z
M 581.335157 407.471977 
Q 581.848439 407.471977 582.202345 407.832915 
Q 582.558595 408.191509 582.558595 408.695415 
Q 582.558595 409.201665 582.200001 409.557915 
Q 581.841407 409.911821 581.335157 409.911821 
Q 580.828907 409.911821 580.472657 409.557915 
Q 580.118751 409.201665 580.118751 408.695415 
Q 580.118751 408.191509 580.472657 407.832915 
Q 580.828907 407.471977 581.335157 407.471977 
z
M 585.86797 409.935259 
L 588.572657 401.739165 
L 586.512501 401.739165 
Q 585.30547 401.739165 584.696095 402.053227 
Q 584.271876 402.27354 583.99297 402.880571 
L 583.716407 402.880571 
L 584.433595 399.796196 
L 590.351564 399.796196 
L 587.018751 409.935259 
L 585.86797 409.935259 
z
" style="fill: #404040; stroke: #ffffff; stroke-width: 3.8"/>
    <path d="M 578.91172 404.762602 
Q 578.91172 406.250884 578.494532 407.539946 
Q 578.243751 408.32979 577.821876 408.83604 
Q 577.402345 409.339946 576.86797 409.637602 
Q 576.333595 409.935259 575.703126 409.935259 
Q 574.985939 409.935259 574.407032 409.569634 
Q 573.828126 409.201665 573.38047 408.519634 
Q 573.059376 408.022759 572.81797 407.195415 
Q 572.501564 406.075102 572.501564 404.87979 
Q 572.501564 403.262602 572.956251 401.905571 
Q 573.328907 400.785259 574.090626 400.189946 
Q 574.852345 399.59229 575.703126 399.59229 
Q 576.56797 399.59229 577.31797 400.182915 
Q 578.06797 400.771196 578.419532 401.76729 
Q 578.91172 403.13604 578.91172 404.762602 
z
M 576.654689 404.74854 
Q 576.654689 402.139946 576.626564 401.708696 
Q 576.551564 400.691509 576.275001 400.332915 
Q 576.092189 400.09854 575.682032 400.09854 
Q 575.365626 400.09854 575.182814 400.274321 
Q 574.910939 400.52979 574.814845 401.179009 
Q 574.721095 401.825884 574.721095 405.700102 
Q 574.721095 407.809477 574.868751 408.526665 
Q 574.978907 409.046977 575.182814 409.222759 
Q 575.389064 409.39854 575.72422 409.39854 
Q 576.092189 409.39854 576.275001 409.164165 
Q 576.582032 408.754009 576.626564 407.89854 
L 576.654689 404.74854 
z
M 581.335157 407.471977 
Q 581.848439 407.471977 582.202345 407.832915 
Q 582.558595 408.191509 582.558595 408.695415 
Q 582.558595 409.201665 582.200001 409.557915 
Q 581.841407 409.911821 581.335157 409.911821 
Q 580.828907 409.911821 580.472657 409.557915 
Q 580.118751 409.201665 580.118751 408.695415 
Q 580.118751 408.191509 580.472657 407.832915 
Q 580.828907 407.471977 581.335157 407.471977 
z
M 585.86797 409.935259 
L 588.572657 401.739165 
L 586.512501 401.739165 
Q 585.30547 401.739165 584.696095 402.053227 
Q 584.271876 402.27354 583.99297 402.880571 
L 583.716407 402.880571 
L 584.433595 399.796196 
L 590.351564 399.796196 
L 587.018751 409.935259 
L 585.86797 409.935259 
z
" style="fill: #404040"/>
   </g>
   <g id="text_21">
    <path d="M 563.885205 361.341379 
L 563.885205 369.464817 
Q 563.885205 370.378879 563.964893 370.632004 
Q 564.046924 370.885129 564.302393 371.046848 
Q 564.560205 371.206223 565.125049 371.206223 
L 565.350049 371.206223 
L 565.350049 371.478098 
L 560.121143 371.478098 
L 560.121143 371.206223 
L 560.385986 371.206223 
Q 561.023486 371.206223 561.293018 371.06091 
Q 561.564893 370.913254 561.658643 370.657785 
Q 561.754736 370.402317 561.754736 369.464817 
L 561.754736 364.315598 
Q 561.754736 363.626535 561.689111 363.455442 
Q 561.623486 363.282004 561.443018 363.162473 
Q 561.264893 363.040598 561.030518 363.040598 
Q 560.655518 363.040598 560.121143 363.274973 
L 559.989893 363.010129 
L 563.643799 361.341379 
L 563.885205 361.341379 
z
M 566.873486 367.735129 
L 571.591455 361.341379 
L 572.484424 361.341379 
L 572.484424 367.735129 
L 573.393799 367.735129 
L 573.393799 369.251535 
L 572.484424 369.251535 
L 572.484424 371.478098 
L 570.471143 371.478098 
L 570.471143 369.251535 
L 566.873486 369.251535 
L 566.873486 367.735129 
z
M 567.585986 367.735129 
L 570.471143 367.735129 
L 570.471143 363.816379 
L 567.585986 367.735129 
z
M 581.046143 361.341379 
L 581.046143 361.545285 
Q 579.721924 361.882785 578.918018 362.414817 
Q 578.116455 362.944504 577.650049 363.703879 
Q 577.185986 364.46091 576.930518 365.581223 
Q 577.253955 365.363254 577.464893 365.295285 
Q 577.940674 365.149973 578.42583 365.149973 
Q 579.539111 365.149973 580.28208 365.96091 
Q 581.025049 366.769504 581.025049 368.166379 
Q 581.025049 369.14841 580.621924 369.968723 
Q 580.218799 370.789035 579.478174 371.236692 
Q 578.739893 371.684348 577.898486 371.684348 
Q 576.98208 371.684348 576.203955 371.182785 
Q 575.428174 370.678879 574.992236 369.713254 
Q 574.558643 368.745285 574.558643 367.61091 
Q 574.558643 365.939817 575.360205 364.500754 
Q 576.161768 363.061692 577.635986 362.208567 
Q 579.112549 361.355442 581.046143 361.341379 
z
M 576.834424 366.174192 
Q 576.77583 367.186692 576.77583 367.655442 
Q 576.77583 368.665598 576.970361 369.610129 
Q 577.164893 370.55466 577.502393 370.936692 
Q 577.743799 371.206223 578.074268 371.206223 
Q 578.409424 371.206223 578.671924 370.814817 
Q 578.936768 370.42341 578.936768 369.221067 
Q 578.936768 367.200754 578.446924 366.432004 
Q 578.132861 365.932785 577.596143 365.932785 
Q 577.303174 365.932785 576.834424 366.174192 
z
M 583.37583 369.221067 
Q 583.889111 369.221067 584.243018 369.582004 
Q 584.599268 369.940598 584.599268 370.444504 
Q 584.599268 370.950754 584.240674 371.307004 
Q 583.88208 371.66091 583.37583 371.66091 
Q 582.86958 371.66091 582.51333 371.307004 
Q 582.159424 370.950754 582.159424 370.444504 
Q 582.159424 369.940598 582.51333 369.582004 
Q 582.86958 369.221067 583.37583 369.221067 
z
M 587.535986 361.545285 
L 592.185986 361.545285 
L 591.447705 363.436692 
L 587.535986 363.436692 
L 587.16333 364.425754 
Q 589.689893 364.519504 591.051611 365.684348 
Q 592.171924 366.642942 592.171924 368.072629 
Q 592.171924 368.986692 591.651611 369.863254 
Q 591.131299 370.737473 590.186768 371.21091 
Q 589.242236 371.684348 588.114893 371.684348 
Q 586.898486 371.684348 586.246924 371.22966 
Q 585.792236 370.906223 585.792236 370.496067 
Q 585.792236 370.182004 586.028955 369.940598 
Q 586.268018 369.699192 586.584424 369.699192 
Q 586.870361 369.699192 587.16333 369.816379 
Q 587.456299 369.933567 588.166455 370.430442 
Q 588.611768 370.737473 588.935205 370.85466 
Q 589.162549 370.943723 589.448486 370.943723 
Q 590.048486 370.943723 590.468018 370.505442 
Q 590.889893 370.064817 590.889893 369.44841 
Q 590.889893 368.159348 589.60083 367.355442 
Q 588.311768 366.549192 586.350049 366.549192 
Q 586.15083 366.549192 585.75708 366.556223 
L 587.535986 361.545285 
z
" style="fill: #404040; stroke: #ffffff; stroke-width: 3.8"/>
    <path d="M 563.885205 361.341379 
L 563.885205 369.464817 
Q 563.885205 370.378879 563.964893 370.632004 
Q 564.046924 370.885129 564.302393 371.046848 
Q 564.560205 371.206223 565.125049 371.206223 
L 565.350049 371.206223 
L 565.350049 371.478098 
L 560.121143 371.478098 
L 560.121143 371.206223 
L 560.385986 371.206223 
Q 561.023486 371.206223 561.293018 371.06091 
Q 561.564893 370.913254 561.658643 370.657785 
Q 561.754736 370.402317 561.754736 369.464817 
L 561.754736 364.315598 
Q 561.754736 363.626535 561.689111 363.455442 
Q 561.623486 363.282004 561.443018 363.162473 
Q 561.264893 363.040598 561.030518 363.040598 
Q 560.655518 363.040598 560.121143 363.274973 
L 559.989893 363.010129 
L 563.643799 361.341379 
L 563.885205 361.341379 
z
M 566.873486 367.735129 
L 571.591455 361.341379 
L 572.484424 361.341379 
L 572.484424 367.735129 
L 573.393799 367.735129 
L 573.393799 369.251535 
L 572.484424 369.251535 
L 572.484424 371.478098 
L 570.471143 371.478098 
L 570.471143 369.251535 
L 566.873486 369.251535 
L 566.873486 367.735129 
z
M 567.585986 367.735129 
L 570.471143 367.735129 
L 570.471143 363.816379 
L 567.585986 367.735129 
z
M 581.046143 361.341379 
L 581.046143 361.545285 
Q 579.721924 361.882785 578.918018 362.414817 
Q 578.116455 362.944504 577.650049 363.703879 
Q 577.185986 364.46091 576.930518 365.581223 
Q 577.253955 365.363254 577.464893 365.295285 
Q 577.940674 365.149973 578.42583 365.149973 
Q 579.539111 365.149973 580.28208 365.96091 
Q 581.025049 366.769504 581.025049 368.166379 
Q 581.025049 369.14841 580.621924 369.968723 
Q 580.218799 370.789035 579.478174 371.236692 
Q 578.739893 371.684348 577.898486 371.684348 
Q 576.98208 371.684348 576.203955 371.182785 
Q 575.428174 370.678879 574.992236 369.713254 
Q 574.558643 368.745285 574.558643 367.61091 
Q 574.558643 365.939817 575.360205 364.500754 
Q 576.161768 363.061692 577.635986 362.208567 
Q 579.112549 361.355442 581.046143 361.341379 
z
M 576.834424 366.174192 
Q 576.77583 367.186692 576.77583 367.655442 
Q 576.77583 368.665598 576.970361 369.610129 
Q 577.164893 370.55466 577.502393 370.936692 
Q 577.743799 371.206223 578.074268 371.206223 
Q 578.409424 371.206223 578.671924 370.814817 
Q 578.936768 370.42341 578.936768 369.221067 
Q 578.936768 367.200754 578.446924 366.432004 
Q 578.132861 365.932785 577.596143 365.932785 
Q 577.303174 365.932785 576.834424 366.174192 
z
M 583.37583 369.221067 
Q 583.889111 369.221067 584.243018 369.582004 
Q 584.599268 369.940598 584.599268 370.444504 
Q 584.599268 370.950754 584.240674 371.307004 
Q 583.88208 371.66091 583.37583 371.66091 
Q 582.86958 371.66091 582.51333 371.307004 
Q 582.159424 370.950754 582.159424 370.444504 
Q 582.159424 369.940598 582.51333 369.582004 
Q 582.86958 369.221067 583.37583 369.221067 
z
M 587.535986 361.545285 
L 592.185986 361.545285 
L 591.447705 363.436692 
L 587.535986 363.436692 
L 587.16333 364.425754 
Q 589.689893 364.519504 591.051611 365.684348 
Q 592.171924 366.642942 592.171924 368.072629 
Q 592.171924 368.986692 591.651611 369.863254 
Q 591.131299 370.737473 590.186768 371.21091 
Q 589.242236 371.684348 588.114893 371.684348 
Q 586.898486 371.684348 586.246924 371.22966 
Q 585.792236 370.906223 585.792236 370.496067 
Q 585.792236 370.182004 586.028955 369.940598 
Q 586.268018 369.699192 586.584424 369.699192 
Q 586.870361 369.699192 587.16333 369.816379 
Q 587.456299 369.933567 588.166455 370.430442 
Q 588.611768 370.737473 588.935205 370.85466 
Q 589.162549 370.943723 589.448486 370.943723 
Q 590.048486 370.943723 590.468018 370.505442 
Q 590.889893 370.064817 590.889893 369.44841 
Q 590.889893 368.159348 589.60083 367.355442 
Q 588.311768 366.549192 586.350049 366.549192 
Q 586.15083 366.549192 585.75708 366.556223 
L 587.535986 361.545285 
z
" style="fill: #404040"/>
   </g>
   <g id="text_22">
    <path d="M 469.448681 266.110755 
L 463.603369 266.110755 
L 463.603369 265.949036 
Q 466.29165 262.749817 466.865869 261.643567 
Q 467.442431 260.537317 467.442431 259.48263 
Q 467.442431 258.71388 466.96665 258.205286 
Q 466.490869 257.694349 465.801806 257.694349 
Q 464.674463 257.694349 464.051025 258.824036 
L 463.77915 258.727942 
Q 464.175244 257.321692 464.981494 256.649036 
Q 465.787744 255.974036 466.842431 255.974036 
Q 467.594775 255.974036 468.218213 256.325599 
Q 468.84165 256.677161 469.193213 257.28888 
Q 469.544775 257.900599 469.544775 258.434974 
Q 469.544775 259.409974 469.001025 260.413099 
Q 468.262744 261.767786 465.771338 264.191224 
L 467.918213 264.191224 
Q 468.708056 264.191224 468.947119 264.125599 
Q 469.186181 264.059974 469.338525 263.902942 
Q 469.493213 263.745911 469.74165 263.239661 
L 470.006494 263.239661 
L 469.448681 266.110755 
z
M 476.948681 266.110755 
L 471.103369 266.110755 
L 471.103369 265.949036 
Q 473.79165 262.749817 474.365869 261.643567 
Q 474.942431 260.537317 474.942431 259.48263 
Q 474.942431 258.71388 474.46665 258.205286 
Q 473.990869 257.694349 473.301806 257.694349 
Q 472.174463 257.694349 471.551025 258.824036 
L 471.27915 258.727942 
Q 471.675244 257.321692 472.481494 256.649036 
Q 473.287744 255.974036 474.342431 255.974036 
Q 475.094775 255.974036 475.718213 256.325599 
Q 476.34165 256.677161 476.693213 257.28888 
Q 477.044775 257.900599 477.044775 258.434974 
Q 477.044775 259.409974 476.501025 260.413099 
Q 475.762744 261.767786 473.271338 264.191224 
L 475.418213 264.191224 
Q 476.208056 264.191224 476.447119 264.125599 
Q 476.686181 264.059974 476.838525 263.902942 
Q 476.993213 263.745911 477.24165 263.239661 
L 477.506494 263.239661 
L 476.948681 266.110755 
z
M 485.283056 255.974036 
L 485.283056 256.177942 
Q 483.958838 256.515442 483.154931 257.047474 
Q 482.353369 257.577161 481.886963 258.336536 
Q 481.4229 259.093567 481.167431 260.21388 
Q 481.490869 259.995911 481.701806 259.927942 
Q 482.177588 259.78263 482.662744 259.78263 
Q 483.776025 259.78263 484.518994 260.593567 
Q 485.261963 261.402161 485.261963 262.799036 
Q 485.261963 263.781067 484.858838 264.60138 
Q 484.455713 265.421692 483.715088 265.869349 
Q 482.976806 266.317005 482.1354 266.317005 
Q 481.218994 266.317005 480.440869 265.815442 
Q 479.665088 265.311536 479.22915 264.345911 
Q 478.795556 263.377942 478.795556 262.243567 
Q 478.795556 260.572474 479.597119 259.133411 
Q 480.398681 257.694349 481.8729 256.841224 
Q 483.349463 255.988099 485.283056 255.974036 
z
M 481.071338 260.806849 
Q 481.012744 261.819349 481.012744 262.288099 
Q 481.012744 263.298255 481.207275 264.242786 
Q 481.401806 265.187317 481.739306 265.569349 
Q 481.980713 265.83888 482.311181 265.83888 
Q 482.646338 265.83888 482.908838 265.447474 
Q 483.173681 265.056067 483.173681 263.853724 
Q 483.173681 261.833411 482.683838 261.064661 
Q 482.369775 260.565442 481.833056 260.565442 
Q 481.540088 260.565442 481.071338 260.806849 
z
M 487.612744 263.853724 
Q 488.126025 263.853724 488.479931 264.214661 
Q 488.836181 264.573255 488.836181 265.077161 
Q 488.836181 265.583411 488.477588 265.939661 
Q 488.118994 266.293567 487.612744 266.293567 
Q 487.106494 266.293567 486.750244 265.939661 
Q 486.396338 265.583411 486.396338 265.077161 
Q 486.396338 264.573255 486.750244 264.214661 
Q 487.106494 263.853724 487.612744 263.853724 
z
M 494.372119 255.974036 
L 494.372119 264.097474 
Q 494.372119 265.011536 494.451806 265.264661 
Q 494.533838 265.517786 494.789306 265.679505 
Q 495.047119 265.83888 495.611963 265.83888 
L 495.836963 265.83888 
L 495.836963 266.110755 
L 490.608056 266.110755 
L 490.608056 265.83888 
L 490.8729 265.83888 
Q 491.5104 265.83888 491.779931 265.693567 
Q 492.051806 265.545911 492.145556 265.290442 
Q 492.24165 265.034974 492.24165 264.097474 
L 492.24165 258.948255 
Q 492.24165 258.259192 492.176025 258.088099 
Q 492.1104 257.914661 491.929931 257.79513 
Q 491.751806 257.673255 491.517431 257.673255 
Q 491.142431 257.673255 490.608056 257.90763 
L 490.476806 257.642786 
L 494.130713 255.974036 
L 494.372119 255.974036 
z
" style="fill: #404040; stroke: #ffffff; stroke-width: 3.8"/>
    <path d="M 469.448681 266.110755 
L 463.603369 266.110755 
L 463.603369 265.949036 
Q 466.29165 262.749817 466.865869 261.643567 
Q 467.442431 260.537317 467.442431 259.48263 
Q 467.442431 258.71388 466.96665 258.205286 
Q 466.490869 257.694349 465.801806 257.694349 
Q 464.674463 257.694349 464.051025 258.824036 
L 463.77915 258.727942 
Q 464.175244 257.321692 464.981494 256.649036 
Q 465.787744 255.974036 466.842431 255.974036 
Q 467.594775 255.974036 468.218213 256.325599 
Q 468.84165 256.677161 469.193213 257.28888 
Q 469.544775 257.900599 469.544775 258.434974 
Q 469.544775 259.409974 469.001025 260.413099 
Q 468.262744 261.767786 465.771338 264.191224 
L 467.918213 264.191224 
Q 468.708056 264.191224 468.947119 264.125599 
Q 469.186181 264.059974 469.338525 263.902942 
Q 469.493213 263.745911 469.74165 263.239661 
L 470.006494 263.239661 
L 469.448681 266.110755 
z
M 476.948681 266.110755 
L 471.103369 266.110755 
L 471.103369 265.949036 
Q 473.79165 262.749817 474.365869 261.643567 
Q 474.942431 260.537317 474.942431 259.48263 
Q 474.942431 258.71388 474.46665 258.205286 
Q 473.990869 257.694349 473.301806 257.694349 
Q 472.174463 257.694349 471.551025 258.824036 
L 471.27915 258.727942 
Q 471.675244 257.321692 472.481494 256.649036 
Q 473.287744 255.974036 474.342431 255.974036 
Q 475.094775 255.974036 475.718213 256.325599 
Q 476.34165 256.677161 476.693213 257.28888 
Q 477.044775 257.900599 477.044775 258.434974 
Q 477.044775 259.409974 476.501025 260.413099 
Q 475.762744 261.767786 473.271338 264.191224 
L 475.418213 264.191224 
Q 476.208056 264.191224 476.447119 264.125599 
Q 476.686181 264.059974 476.838525 263.902942 
Q 476.993213 263.745911 477.24165 263.239661 
L 477.506494 263.239661 
L 476.948681 266.110755 
z
M 485.283056 255.974036 
L 485.283056 256.177942 
Q 483.958838 256.515442 483.154931 257.047474 
Q 482.353369 257.577161 481.886963 258.336536 
Q 481.4229 259.093567 481.167431 260.21388 
Q 481.490869 259.995911 481.701806 259.927942 
Q 482.177588 259.78263 482.662744 259.78263 
Q 483.776025 259.78263 484.518994 260.593567 
Q 485.261963 261.402161 485.261963 262.799036 
Q 485.261963 263.781067 484.858838 264.60138 
Q 484.455713 265.421692 483.715088 265.869349 
Q 482.976806 266.317005 482.1354 266.317005 
Q 481.218994 266.317005 480.440869 265.815442 
Q 479.665088 265.311536 479.22915 264.345911 
Q 478.795556 263.377942 478.795556 262.243567 
Q 478.795556 260.572474 479.597119 259.133411 
Q 480.398681 257.694349 481.8729 256.841224 
Q 483.349463 255.988099 485.283056 255.974036 
z
M 481.071338 260.806849 
Q 481.012744 261.819349 481.012744 262.288099 
Q 481.012744 263.298255 481.207275 264.242786 
Q 481.401806 265.187317 481.739306 265.569349 
Q 481.980713 265.83888 482.311181 265.83888 
Q 482.646338 265.83888 482.908838 265.447474 
Q 483.173681 265.056067 483.173681 263.853724 
Q 483.173681 261.833411 482.683838 261.064661 
Q 482.369775 260.565442 481.833056 260.565442 
Q 481.540088 260.565442 481.071338 260.806849 
z
M 487.612744 263.853724 
Q 488.126025 263.853724 488.479931 264.214661 
Q 488.836181 264.573255 488.836181 265.077161 
Q 488.836181 265.583411 488.477588 265.939661 
Q 488.118994 266.293567 487.612744 266.293567 
Q 487.106494 266.293567 486.750244 265.939661 
Q 486.396338 265.583411 486.396338 265.077161 
Q 486.396338 264.573255 486.750244 264.214661 
Q 487.106494 263.853724 487.612744 263.853724 
z
M 494.372119 255.974036 
L 494.372119 264.097474 
Q 494.372119 265.011536 494.451806 265.264661 
Q 494.533838 265.517786 494.789306 265.679505 
Q 495.047119 265.83888 495.611963 265.83888 
L 495.836963 265.83888 
L 495.836963 266.110755 
L 490.608056 266.110755 
L 490.608056 265.83888 
L 490.8729 265.83888 
Q 491.5104 265.83888 491.779931 265.693567 
Q 492.051806 265.545911 492.145556 265.290442 
Q 492.24165 265.034974 492.24165 264.097474 
L 492.24165 258.948255 
Q 492.24165 258.259192 492.176025 258.088099 
Q 492.1104 257.914661 491.929931 257.79513 
Q 491.751806 257.673255 491.517431 257.673255 
Q 491.142431 257.673255 490.608056 257.90763 
L 490.476806 257.642786 
L 494.130713 255.974036 
L 494.372119 255.974036 
z
" style="fill: #404040"/>
   </g>
   <g id="text_23">
    <path d="M 323.694086 338.413516 
L 328.412054 332.019766 
L 329.305023 332.019766 
L 329.305023 338.413516 
L 330.214398 338.413516 
L 330.214398 339.929923 
L 329.305023 339.929923 
L 329.305023 342.156485 
L 327.291742 342.156485 
L 327.291742 339.929923 
L 323.694086 339.929923 
L 323.694086 338.413516 
z
M 324.406586 338.413516 
L 327.291742 338.413516 
L 327.291742 334.494766 
L 324.406586 338.413516 
z
M 332.696429 339.899454 
Q 333.209711 339.899454 333.563617 340.260391 
Q 333.919867 340.618985 333.919867 341.122891 
Q 333.919867 341.629141 333.561273 341.985391 
Q 333.202679 342.339298 332.696429 342.339298 
Q 332.190179 342.339298 331.833929 341.985391 
Q 331.480023 341.629141 331.480023 341.122891 
Q 331.480023 340.618985 331.833929 340.260391 
Q 332.190179 339.899454 332.696429 339.899454 
z
M 335.033148 342.362735 
L 335.033148 342.156485 
Q 336.249554 341.877579 337.095648 341.336173 
Q 337.941742 340.794766 338.433929 339.995548 
Q 338.928461 339.196329 339.127679 338.158048 
Q 338.672992 338.392423 338.354242 338.483829 
Q 338.035492 338.575235 337.683929 338.575235 
Q 336.556586 338.575235 335.804242 337.761954 
Q 335.054242 336.948673 335.054242 335.535391 
Q 335.054242 334.55336 335.459711 333.737735 
Q 335.867523 332.919766 336.622211 332.469766 
Q 337.376898 332.019766 338.190179 332.019766 
Q 339.062054 332.019766 339.837836 332.518985 
Q 340.613617 333.01586 341.075336 333.960391 
Q 341.537054 334.904923 341.537054 336.114298 
Q 341.537054 337.682266 340.784711 339.118985 
Q 340.034711 340.55336 338.548773 341.420548 
Q 337.062836 342.287735 335.033148 342.362735 
z
M 339.237836 337.541641 
Q 339.310492 336.721329 339.310492 336.100235 
Q 339.310492 334.766641 339.003461 333.61586 
Q 338.827679 332.97836 338.483148 332.67836 
Q 338.300336 332.516641 338.007367 332.516641 
Q 337.639398 332.516641 337.435492 332.833048 
Q 337.149554 333.264298 337.149554 334.480704 
Q 337.149554 336.510391 337.632367 337.279141 
Q 337.948773 337.776016 338.483148 337.776016 
Q 338.769086 337.776016 339.237836 337.541641 
z
" style="fill: #404040; stroke: #ffffff; stroke-width: 3.8"/>
    <path d="M 323.694086 338.413516 
L 328.412054 332.019766 
L 329.305023 332.019766 
L 329.305023 338.413516 
L 330.214398 338.413516 
L 330.214398 339.929923 
L 329.305023 339.929923 
L 329.305023 342.156485 
L 327.291742 342.156485 
L 327.291742 339.929923 
L 323.694086 339.929923 
L 323.694086 338.413516 
z
M 324.406586 338.413516 
L 327.291742 338.413516 
L 327.291742 334.494766 
L 324.406586 338.413516 
z
M 332.696429 339.899454 
Q 333.209711 339.899454 333.563617 340.260391 
Q 333.919867 340.618985 333.919867 341.122891 
Q 333.919867 341.629141 333.561273 341.985391 
Q 333.202679 342.339298 332.696429 342.339298 
Q 332.190179 342.339298 331.833929 341.985391 
Q 331.480023 341.629141 331.480023 341.122891 
Q 331.480023 340.618985 331.833929 340.260391 
Q 332.190179 339.899454 332.696429 339.899454 
z
M 335.033148 342.362735 
L 335.033148 342.156485 
Q 336.249554 341.877579 337.095648 341.336173 
Q 337.941742 340.794766 338.433929 339.995548 
Q 338.928461 339.196329 339.127679 338.158048 
Q 338.672992 338.392423 338.354242 338.483829 
Q 338.035492 338.575235 337.683929 338.575235 
Q 336.556586 338.575235 335.804242 337.761954 
Q 335.054242 336.948673 335.054242 335.535391 
Q 335.054242 334.55336 335.459711 333.737735 
Q 335.867523 332.919766 336.622211 332.469766 
Q 337.376898 332.019766 338.190179 332.019766 
Q 339.062054 332.019766 339.837836 332.518985 
Q 340.613617 333.01586 341.075336 333.960391 
Q 341.537054 334.904923 341.537054 336.114298 
Q 341.537054 337.682266 340.784711 339.118985 
Q 340.034711 340.55336 338.548773 341.420548 
Q 337.062836 342.287735 335.033148 342.362735 
z
M 339.237836 337.541641 
Q 339.310492 336.721329 339.310492 336.100235 
Q 339.310492 334.766641 339.003461 333.61586 
Q 338.827679 332.97836 338.483148 332.67836 
Q 338.300336 332.516641 338.007367 332.516641 
Q 337.639398 332.516641 337.435492 332.833048 
Q 337.149554 333.264298 337.149554 334.480704 
Q 337.149554 336.510391 337.632367 337.279141 
Q 337.948773 337.776016 338.483148 337.776016 
Q 338.769086 337.776016 339.237836 337.541641 
z
" style="fill: #404040"/>
   </g>
  </g>
 </g>
 <defs>
  <clipPath id="p79b35c742d">
   <rect x="7.2" y="51.034687" width="730.764" height="438.48"/>
  </clipPath>
 </defs>
</svg>
