<?xml version="1.0" encoding="utf-8" standalone="no"?>
<!DOCTYPE svg PUBLIC "-//W3C//DTD SVG 1.1//EN"
  "http://www.w3.org/Graphics/SVG/1.1/DTD/svg11.dtd">
<svg xmlns:xlink="http://www.w3.org/1999/xlink" width="745.164pt" height="496.324398pt" viewBox="0 0 745.164 496.324398" xmlns="http://www.w3.org/2000/svg" version="1.1">
 <metadata>
  <rdf:RDF xmlns:dc="http://purl.org/dc/elements/1.1/" xmlns:cc="http://creativecommons.org/ns#" xmlns:rdf="http://www.w3.org/1999/02/22-rdf-syntax-ns#">
   <cc:Work>
    <dc:type rdf:resource="http://purl.org/dc/dcmitype/StillImage"/>
    <dc:date>2026-07-13T16:58:52.632104</dc:date>
    <dc:format>image/svg+xml</dc:format>
    <dc:creator>
     <cc:Agent>
      <dc:title>Matplotlib v3.10.8, https://matplotlib.org/</dc:title>
     </cc:Agent>
    </dc:creator>
   </cc:Work>
  </rdf:RDF>
 </metadata>
 <defs>
  <style type="text/css">*{stroke-linejoin: round; stroke-linecap: butt}</style>
 </defs>
 <g id="figure_1">
  <g id="patch_1">
   <path d="M 0 496.324398 
L 745.164 496.324398 
L 745.164 0 
L 0 0 
L 0 496.324398 
z
" style="fill: none"/>
  </g>
  <g id="axes_1">
   <g id="patch_2">
    <path d="M 120.350555 420.514134 
Q 120.350555 449.781727 120.350555 477.121918 
" clip-path="url(#p593c219309)" style="fill: none; stroke: #111111; stroke-width: 1.723921; stroke-linejoin: miter; stroke-linecap: round"/>
    <path d="M 123.84621 470.130608 
L 120.350555 477.121918 
L 116.8549 470.130608 
z
" clip-path="url(#p593c219309)" style="fill: #111111; stroke: #111111; stroke-width: 1.723921; stroke-linejoin: miter; stroke-linecap: round"/>
   </g>
   <g id="patch_3">
    <path d="M 120.350555 307.891975 
Q 120.350555 332.747831 120.350555 354.353945 
" clip-path="url(#p593c219309)" style="fill: none; stroke: #111111; stroke-width: 2.906658; stroke-linejoin: miter; stroke-linecap: round"/>
    <path d="M 124.224685 346.605684 
L 120.350555 354.353945 
L 116.476424 346.605684 
z
" clip-path="url(#p593c219309)" style="fill: #111111; stroke: #111111; stroke-width: 2.906658; stroke-linejoin: miter; stroke-linecap: round"/>
   </g>
   <g id="patch_4">
    <path d="M 120.350555 211.162975 
Q 120.350555 232.483989 120.350555 248.812052 
" clip-path="url(#p593c219309)" style="fill: none; stroke: #111111; stroke-width: 4.465831; stroke-linejoin: miter; stroke-linecap: round"/>
    <path d="M 124.723621 240.06592 
L 120.350555 248.812052 
L 115.977489 240.06592 
z
" clip-path="url(#p593c219309)" style="fill: #111111; stroke: #111111; stroke-width: 4.465831; stroke-linejoin: miter; stroke-linecap: round"/>
   </g>
   <g id="patch_5">
    <path d="M 370.224697 271.741859 
Q 370.224697 293.836403 370.224697 313.400507 
" clip-path="url(#p593c219309)" style="fill: none; stroke: #111111; stroke-width: 2.263294; stroke-linejoin: miter; stroke-linecap: round"/>
    <path d="M 373.892951 306.063999 
L 370.224697 313.400507 
L 366.556443 306.063999 
z
" clip-path="url(#p593c219309)" style="fill: #111111; stroke: #111111; stroke-width: 2.263294; stroke-linejoin: miter; stroke-linecap: round"/>
   </g>
   <g id="patch_6">
    <path d="M 370.224697 185.991577 
Q 370.224697 204.584545 370.224697 218.705759 
" clip-path="url(#p593c219309)" style="fill: none; stroke: #111111; stroke-width: 3.999657; stroke-linejoin: miter; stroke-linecap: round"/>
    <path d="M 374.448587 210.257978 
L 370.224697 218.705759 
L 366.000806 210.257978 
z
" clip-path="url(#p593c219309)" style="fill: #111111; stroke: #111111; stroke-width: 3.999657; stroke-linejoin: miter; stroke-linecap: round"/>
   </g>
   <g id="patch_7">
    <path d="M 370.224697 115.977134 
Q 370.224697 130.203757 370.224697 137.945784 
" clip-path="url(#p593c219309)" style="fill: none; stroke: #111111; stroke-width: 5.8; stroke-linejoin: miter; stroke-linecap: round"/>
    <path d="M 375.024697 128.345784 
L 370.224697 137.945784 
L 365.424697 128.345784 
z
" clip-path="url(#p593c219309)" style="fill: #111111; stroke: #111111; stroke-width: 5.8; stroke-linejoin: miter; stroke-linecap: round"/>
   </g>
   <g id="patch_8">
    <path d="M 586.153672 211.166042 
Q 586.153672 232.822537 586.153672 250.609097 
" clip-path="url(#p593c219309)" style="fill: none; stroke: #111111; stroke-width: 3.461374; stroke-linejoin: miter; stroke-linecap: round"/>
    <path d="M 590.205312 242.505818 
L 586.153672 250.609097 
L 582.102033 242.505818 
z
" clip-path="url(#p593c219309)" style="fill: #111111; stroke: #111111; stroke-width: 3.461374; stroke-linejoin: miter; stroke-linecap: round"/>
   </g>
   <g id="line2d_1">
    <path d="M 165.610777 479.04932 
L 550.322663 479.04932 
" clip-path="url(#p593c219309)" style="fill: none; stroke-dasharray: 5.6,4.2; stroke-dashoffset: 0; stroke: #404040; stroke-width: 1.4"/>
   </g>
   <g id="line2d_2">
    <path d="M 165.610777 357.603687 
L 550.322663 357.603687 
" clip-path="url(#p593c219309)" style="fill: none; stroke-dasharray: 5.6,4.2; stroke-dashoffset: 0; stroke: #404040; stroke-width: 1.4"/>
   </g>
   <g id="line2d_3">
    <path d="M 415.484919 315.930946 
L 560.694797 315.930946 
" clip-path="url(#p593c219309)" style="fill: none; stroke-dasharray: 5.6,4.2; stroke-dashoffset: 0; stroke: #404040; stroke-width: 1.4"/>
   </g>
   <g id="patch_9">
    <path d="M 665.359061 254.479031 
Q 571.009362 364.487153 477.292875 473.756976 
" clip-path="url(#p593c219309)" style="fill: none; stroke: #404040; stroke-width: 0.869961; stroke-linejoin: miter; stroke-linecap: round"/>
    <path d="M 483.112016 471.308857 
L 477.292875 473.756976 
L 478.825865 467.632792 
z
" clip-path="url(#p593c219309)" style="fill: #404040; stroke: #404040; stroke-width: 0.869961; stroke-linejoin: miter; stroke-linecap: round"/>
   </g>
   <g id="patch_10">
    <path d="M 620.098839 254.479031 
Q 577.828671 303.764421 537.465682 350.826115 
" clip-path="url(#p593c219309)" style="fill: none; stroke: #404040; stroke-width: 2.620253; stroke-linejoin: miter; stroke-linecap: round"/>
    <path d="M 544.487332 347.8721 
L 537.465682 350.826115 
L 539.31546 343.436386 
z
" clip-path="url(#p593c219309)" style="fill: #404040; stroke: #404040; stroke-width: 2.620253; stroke-linejoin: miter; stroke-linecap: round"/>
   </g>
   <g id="patch_11">
    <path d="M 574.838617 254.479031 
Q 541.744074 283.236794 509.328869 311.404242 
" clip-path="url(#p593c219309)" style="fill: none; stroke: #404040; stroke-width: 0.804971; stroke-linejoin: miter; stroke-linecap: round"/>
    <path d="M 515.396089 309.843711 
L 509.328869 311.404242 
L 511.720776 305.614147 
z
" clip-path="url(#p593c219309)" style="fill: #404040; stroke: #404040; stroke-width: 0.804971; stroke-linejoin: miter; stroke-linecap: round"/>
   </g>
   <g id="patch_12">
    <path d="M 370.224697 315.930946 
Q 335.320247 335.310526 303.668169 352.88433 
" clip-path="url(#p593c219309)" style="fill: none; stroke: #404040; stroke-width: 3.32731; stroke-linejoin: miter; stroke-linecap: round"/>
    <path d="M 311.805309 352.532645 
L 303.668169 352.88433 
L 308.269104 346.163607 
z
" clip-path="url(#p593c219309)" style="fill: #404040; stroke: #404040; stroke-width: 3.32731; stroke-linejoin: miter; stroke-linecap: round"/>
   </g>
   <g id="line2d_4">
    <path d="M 120.350555 357.603687 
L 120.350555 416.138873 
" clip-path="url(#p593c219309)" style="fill: none; stroke: #111111; stroke-width: 1.723921"/>
   </g>
   <g id="line2d_5">
    <path d="M 120.350555 253.805003 
L 120.350555 303.516715 
" clip-path="url(#p593c219309)" style="fill: none; stroke: #111111; stroke-width: 2.906658"/>
   </g>
   <g id="line2d_6">
    <path d="M 120.350555 164.145686 
L 120.350555 206.787714 
" clip-path="url(#p593c219309)" style="fill: none; stroke: #111111; stroke-width: 4.465831"/>
   </g>
   <g id="line2d_7">
    <path d="M 370.224697 223.177512 
L 370.224697 267.366599 
" clip-path="url(#p593c219309)" style="fill: none; stroke: #111111; stroke-width: 2.263294"/>
   </g>
   <g id="line2d_8">
    <path d="M 370.224697 144.430381 
L 370.224697 181.616316 
" clip-path="url(#p593c219309)" style="fill: none; stroke: #111111; stroke-width: 3.999657"/>
   </g>
   <g id="line2d_9">
    <path d="M 370.224697 83.148625 
L 370.224697 111.601873 
" clip-path="url(#p593c219309)" style="fill: none; stroke: #111111; stroke-width: 5.8"/>
   </g>
   <g id="line2d_10">
    <path d="M 586.153672 163.477793 
L 586.153672 206.790782 
" clip-path="url(#p593c219309)" style="fill: none; stroke: #111111; stroke-width: 3.461374"/>
   </g>
   <g id="line2d_11">
    <path d="M 75.090333 479.04932 
L 165.610777 479.04932 
" clip-path="url(#p593c219309)" style="fill: none; stroke: #111111; stroke-width: 3.6; stroke-linecap: round"/>
   </g>
   <g id="line2d_12">
    <path d="M 75.090333 357.603687 
L 165.610777 357.603687 
" clip-path="url(#p593c219309)" style="fill: none; stroke: #111111; stroke-width: 3.6; stroke-linecap: round"/>
   </g>
   <g id="line2d_13">
    <path d="M 75.090333 253.805003 
L 165.610777 253.805003 
" clip-path="url(#p593c219309)" style="fill: none; stroke: #111111; stroke-width: 3.6; stroke-linecap: round"/>
   </g>
   <g id="line2d_14">
    <path d="M 75.090333 164.145686 
L 165.610777 164.145686 
" clip-path="url(#p593c219309)" style="fill: none; stroke: #111111; stroke-width: 3.6; stroke-linecap: round"/>
   </g>
   <g id="line2d_15">
    <path d="M 324.964475 315.930946 
L 415.484919 315.930946 
" clip-path="url(#p593c219309)" style="fill: none; stroke: #111111; stroke-width: 3.6; stroke-linecap: round"/>
   </g>
   <g id="line2d_16">
    <path d="M 324.964475 223.177512 
L 415.484919 223.177512 
" clip-path="url(#p593c219309)" style="fill: none; stroke: #111111; stroke-width: 3.6; stroke-linecap: round"/>
   </g>
   <g id="line2d_17">
    <path d="M 324.964475 144.430381 
L 415.484919 144.430381 
" clip-path="url(#p593c219309)" style="fill: none; stroke: #111111; stroke-width: 3.6; stroke-linecap: round"/>
   </g>
   <g id="line2d_18">
    <path d="M 324.964475 83.148625 
L 415.484919 83.148625 
" clip-path="url(#p593c219309)" style="fill: none; stroke: #111111; stroke-width: 3.6; stroke-linecap: round"/>
   </g>
   <g id="line2d_19">
    <path d="M 574.838617 254.479031 
L 665.359061 254.479031 
" clip-path="url(#p593c219309)" style="fill: none; stroke: #111111; stroke-width: 3.6; stroke-linecap: round"/>
   </g>
   <g id="line2d_20">
    <path d="M 574.838617 163.477793 
L 665.359061 163.477793 
" clip-path="url(#p593c219309)" style="fill: none; stroke: #111111; stroke-width: 3.6; stroke-linecap: round"/>
   </g>
   <g id="text_1">
    <!-- $^{350}\mathrm{Pu}$ -->
    <g transform="translate(328.212 33.034687) scale(0.34 -0.34)">
     <defs>
      <path id="DejaVuSans-33" d="M 2597 2516 
Q 3050 2419 3304 2112 
Q 3559 1806 3559 1356 
Q 3559 666 3084 287 
Q 2609 -91 1734 -91 
Q 1441 -91 1130 -33 
Q 819 25 488 141 
L 488 750 
Q 750 597 1062 519 
Q 1375 441 1716 441 
Q 2309 441 2620 675 
Q 2931 909 2931 1356 
Q 2931 1769 2642 2001 
Q 2353 2234 1838 2234 
L 1294 2234 
L 1294 2753 
L 1863 2753 
Q 2328 2753 2575 2939 
Q 2822 3125 2822 3475 
Q 2822 3834 2567 4026 
Q 2313 4219 1838 4219 
Q 1578 4219 1281 4162 
Q 984 4106 628 3988 
L 628 4550 
Q 988 4650 1302 4700 
Q 1616 4750 1894 4750 
Q 2613 4750 3031 4423 
Q 3450 4097 3450 3541 
Q 3450 3153 3228 2886 
Q 3006 2619 2597 2516 
z
" transform="scale(0.015625)"/>
      <path id="DejaVuSans-35" d="M 691 4666 
L 3169 4666 
L 3169 4134 
L 1269 4134 
L 1269 2991 
Q 1406 3038 1543 3061 
Q 1681 3084 1819 3084 
Q 2600 3084 3056 2656 
Q 3513 2228 3513 1497 
Q 3513 744 3044 326 
Q 2575 -91 1722 -91 
Q 1428 -91 1123 -41 
Q 819 9 494 109 
L 494 744 
Q 775 591 1075 516 
Q 1375 441 1709 441 
Q 2250 441 2565 725 
Q 2881 1009 2881 1497 
Q 2881 1984 2565 2268 
Q 2250 2553 1709 2553 
Q 1456 2553 1204 2497 
Q 953 2441 691 2322 
L 691 4666 
z
" transform="scale(0.015625)"/>
      <path id="DejaVuSans-30" d="M 2034 4250 
Q 1547 4250 1301 3770 
Q 1056 3291 1056 2328 
Q 1056 1369 1301 889 
Q 1547 409 2034 409 
Q 2525 409 2770 889 
Q 3016 1369 3016 2328 
Q 3016 3291 2770 3770 
Q 2525 4250 2034 4250 
z
M 2034 4750 
Q 2819 4750 3233 4129 
Q 3647 3509 3647 2328 
Q 3647 1150 3233 529 
Q 2819 -91 2034 -91 
Q 1250 -91 836 529 
Q 422 1150 422 2328 
Q 422 3509 836 4129 
Q 1250 4750 2034 4750 
z
" transform="scale(0.015625)"/>
      <path id="DejaVuSans-50" d="M 1259 4147 
L 1259 2394 
L 2053 2394 
Q 2494 2394 2734 2622 
Q 2975 2850 2975 3272 
Q 2975 3691 2734 3919 
Q 2494 4147 2053 4147 
L 1259 4147 
z
M 628 4666 
L 2053 4666 
Q 2838 4666 3239 4311 
Q 3641 3956 3641 3272 
Q 3641 2581 3239 2228 
Q 2838 1875 2053 1875 
L 1259 1875 
L 1259 0 
L 628 0 
L 628 4666 
z
" transform="scale(0.015625)"/>
      <path id="DejaVuSans-75" d="M 544 1381 
L 544 3500 
L 1119 3500 
L 1119 1403 
Q 1119 906 1312 657 
Q 1506 409 1894 409 
Q 2359 409 2629 706 
Q 2900 1003 2900 1516 
L 2900 3500 
L 3475 3500 
L 3475 0 
L 2900 0 
L 2900 538 
Q 2691 219 2414 64 
Q 2138 -91 1772 -91 
Q 1169 -91 856 284 
Q 544 659 544 1381 
z
M 1991 3584 
L 1991 3584 
z
" transform="scale(0.015625)"/>
     </defs>
     <use xlink:href="#DejaVuSans-33" transform="translate(0.957031 39.046875) scale(0.7)"/>
     <use xlink:href="#DejaVuSans-35" transform="translate(45.493164 39.046875) scale(0.7)"/>
     <use xlink:href="#DejaVuSans-30" transform="translate(90.029297 39.046875) scale(0.7)"/>
     <use xlink:href="#DejaVuSans-50" transform="translate(137.299805 0.765625)"/>
     <use xlink:href="#DejaVuSans-75" transform="translate(197.602539 0.765625)"/>
    </g>
   </g>
   <g id="text_2">
    <!-- 0 -->
    <g transform="translate(46.98525 483.46432) scale(0.16 -0.16)">
     <defs>
      <path id="DejaVuSans-BoldOblique-30" d="M 1913 728 
Q 2153 728 2339 872 
Q 2525 1016 2650 1294 
Q 2738 1491 2809 1742 
Q 2881 1994 2944 2338 
Q 2997 2616 3025 2850 
Q 3053 3084 3053 3250 
Q 3053 3600 2928 3764 
Q 2803 3928 2541 3928 
Q 2297 3928 2112 3789 
Q 1928 3650 1806 3366 
Q 1713 3163 1636 2903 
Q 1559 2644 1503 2338 
Q 1450 2056 1422 1815 
Q 1394 1575 1394 1409 
Q 1394 1063 1522 895 
Q 1650 728 1913 728 
z
M 4225 3072 
Q 4225 2450 4053 1862 
Q 3881 1275 3572 831 
Q 3256 375 2809 142 
Q 2363 -91 1813 -91 
Q 1047 -91 639 343 
Q 231 778 231 1594 
Q 231 2206 401 2795 
Q 572 3384 878 3822 
Q 1200 4281 1644 4515 
Q 2088 4750 2644 4750 
Q 3403 4750 3814 4314 
Q 4225 3878 4225 3072 
z
" transform="scale(0.015625)"/>
     </defs>
     <use xlink:href="#DejaVuSans-BoldOblique-30"/>
    </g>
   </g>
   <g id="text_3">
    <!-- 0⁺ -->
    <g transform="translate(182.58336 484.204554) scale(0.23 -0.23)">
     <defs>
      <path id="TimesNewRomanPS-BoldMT-30" d="M 2966 2119 
Q 2966 1484 2788 934 
Q 2681 597 2501 381 
Q 2322 166 2094 39 
Q 1866 -88 1597 -88 
Q 1291 -88 1044 68 
Q 797 225 606 516 
Q 469 728 366 1081 
Q 231 1559 231 2069 
Q 231 2759 425 3338 
Q 584 3816 909 4070 
Q 1234 4325 1597 4325 
Q 1966 4325 2286 4073 
Q 2606 3822 2756 3397 
Q 2966 2813 2966 2119 
z
M 2003 2125 
Q 2003 3238 1991 3422 
Q 1959 3856 1841 4009 
Q 1763 4109 1588 4109 
Q 1453 4109 1375 4034 
Q 1259 3925 1218 3648 
Q 1178 3372 1178 1719 
Q 1178 819 1241 513 
Q 1288 291 1375 216 
Q 1463 141 1606 141 
Q 1763 141 1841 241 
Q 1972 416 1991 781 
L 2003 2125 
z
" transform="scale(0.015625)"/>
      <path id="DejaVuSerif-Bold-207a" d="M 1916 4344 
L 1916 3441 
L 2950 3441 
L 2950 3044 
L 1916 3044 
L 1916 2141 
L 1463 2141 
L 1463 3044 
L 428 3044 
L 428 3441 
L 1463 3441 
L 1463 4344 
L 1916 4344 
z
" transform="scale(0.015625)"/>
     </defs>
     <use xlink:href="#TimesNewRomanPS-BoldMT-30"/>
     <use xlink:href="#DejaVuSerif-Bold-207a" transform="translate(50 0)"/>
    </g>
   </g>
   <g id="text_4">
    <!-- 2554 -->
    <g transform="translate(13.58775 362.018687) scale(0.16 -0.16)">
     <defs>
      <path id="DejaVuSans-BoldOblique-32" d="M 1581 884 
L 3609 884 
L 3438 0 
L 50 0 
L 225 891 
L 2209 2388 
Q 2534 2638 2704 2894 
Q 2875 3150 2875 3391 
Q 2875 3647 2700 3787 
Q 2525 3928 2209 3928 
Q 1913 3928 1547 3811 
Q 1181 3694 722 3450 
L 922 4441 
Q 1347 4597 1756 4673 
Q 2166 4750 2566 4750 
Q 3278 4750 3687 4442 
Q 4097 4134 4097 3603 
Q 4097 3147 3847 2772 
Q 3597 2397 2747 1759 
L 1581 884 
z
" transform="scale(0.015625)"/>
      <path id="DejaVuSans-BoldOblique-35" d="M 1131 4666 
L 4122 4666 
L 3950 3781 
L 1919 3781 
L 1778 3059 
Q 1916 3097 2064 3117 
Q 2213 3138 2363 3138 
Q 3078 3138 3481 2811 
Q 3884 2484 3884 1906 
Q 3884 988 3262 448 
Q 2641 -91 1575 -91 
Q 1184 -91 815 -14 
Q 447 63 84 219 
L 269 1166 
Q 616 941 942 834 
Q 1269 728 1606 728 
Q 2100 728 2397 986 
Q 2694 1244 2694 1663 
Q 2694 1963 2469 2139 
Q 2244 2316 1856 2316 
Q 1594 2316 1289 2248 
Q 984 2181 622 2041 
L 1131 4666 
z
" transform="scale(0.015625)"/>
      <path id="DejaVuSans-BoldOblique-34" d="M 2638 3641 
L 978 1722 
L 2259 1722 
L 2638 3641 
z
M 2606 4666 
L 3975 4666 
L 3397 1722 
L 4063 1722 
L 3897 850 
L 3231 850 
L 3066 0 
L 1925 0 
L 2094 850 
L -6 850 
L 197 1881 
L 2606 4666 
z
" transform="scale(0.015625)"/>
     </defs>
     <use xlink:href="#DejaVuSans-BoldOblique-32"/>
     <use xlink:href="#DejaVuSans-BoldOblique-35" transform="translate(69.580078 0)"/>
     <use xlink:href="#DejaVuSans-BoldOblique-35" transform="translate(139.160156 0)"/>
     <use xlink:href="#DejaVuSans-BoldOblique-34" transform="translate(208.740234 0)"/>
    </g>
   </g>
   <g id="text_5">
    <!-- 2⁺ -->
    <g transform="translate(182.58336 362.758922) scale(0.23 -0.23)">
     <defs>
      <path id="TimesNewRomanPS-BoldMT-32" d="M 2650 0 
L 156 0 
L 156 69 
Q 1303 1434 1548 1906 
Q 1794 2378 1794 2828 
Q 1794 3156 1591 3373 
Q 1388 3591 1094 3591 
Q 613 3591 347 3109 
L 231 3150 
Q 400 3750 744 4037 
Q 1088 4325 1538 4325 
Q 1859 4325 2125 4175 
Q 2391 4025 2541 3764 
Q 2691 3503 2691 3275 
Q 2691 2859 2459 2431 
Q 2144 1853 1081 819 
L 1997 819 
Q 2334 819 2436 847 
Q 2538 875 2603 942 
Q 2669 1009 2775 1225 
L 2888 1225 
L 2650 0 
z
" transform="scale(0.015625)"/>
     </defs>
     <use xlink:href="#TimesNewRomanPS-BoldMT-32"/>
     <use xlink:href="#DejaVuSerif-Bold-207a" transform="translate(50 0)"/>
    </g>
   </g>
   <g id="text_6">
    <!-- 4736 -->
    <g transform="translate(13.58775 258.220003) scale(0.16 -0.16)">
     <defs>
      <path id="DejaVuSans-BoldOblique-37" d="M 922 4666 
L 4441 4666 
L 4300 3981 
L 1703 0 
L 500 0 
L 2969 3781 
L 756 3781 
L 922 4666 
z
" transform="scale(0.015625)"/>
      <path id="DejaVuSans-BoldOblique-33" d="M 3022 2516 
Q 3375 2434 3572 2187 
Q 3769 1941 3769 1581 
Q 3769 806 3155 357 
Q 2541 -91 1466 -91 
Q 1059 -91 692 -33 
Q 325 25 0 141 
L 178 1069 
Q 456 906 784 817 
Q 1113 728 1441 728 
Q 1969 728 2276 926 
Q 2584 1125 2584 1459 
Q 2584 1738 2350 1877 
Q 2116 2016 1644 2016 
L 1166 2016 
L 1319 2791 
L 1825 2791 
Q 2316 2791 2602 2969 
Q 2888 3147 2888 3450 
Q 2888 3688 2689 3813 
Q 2491 3938 2113 3938 
Q 1847 3938 1534 3869 
Q 1222 3800 884 3669 
L 1056 4550 
Q 1425 4650 1783 4700 
Q 2141 4750 2491 4750 
Q 3281 4750 3679 4487 
Q 4078 4225 4078 3706 
Q 4078 3241 3801 2930 
Q 3525 2619 3022 2516 
z
" transform="scale(0.015625)"/>
      <path id="DejaVuSans-BoldOblique-36" d="M 2316 2303 
Q 1959 2303 1731 2009 
Q 1503 1716 1503 1253 
Q 1503 975 1643 820 
Q 1784 666 2034 666 
Q 2388 666 2617 955 
Q 2847 1244 2847 1684 
Q 2847 1984 2709 2143 
Q 2572 2303 2316 2303 
z
M 4225 4544 
L 4056 3681 
Q 3788 3819 3534 3887 
Q 3281 3956 3028 3956 
Q 2447 3956 2087 3643 
Q 1728 3331 1650 2766 
Q 1894 2925 2151 3001 
Q 2409 3078 2700 3078 
Q 3275 3078 3640 2737 
Q 4006 2397 4006 1869 
Q 4006 1006 3442 454 
Q 2878 -97 1991 -97 
Q 1194 -97 756 354 
Q 319 806 319 1631 
Q 319 2269 512 2848 
Q 706 3428 1056 3847 
Q 1431 4294 1942 4519 
Q 2453 4744 3091 4744 
Q 3384 4744 3662 4694 
Q 3941 4644 4225 4544 
z
" transform="scale(0.015625)"/>
     </defs>
     <use xlink:href="#DejaVuSans-BoldOblique-34"/>
     <use xlink:href="#DejaVuSans-BoldOblique-37" transform="translate(69.580078 0)"/>
     <use xlink:href="#DejaVuSans-BoldOblique-33" transform="translate(139.160156 0)"/>
     <use xlink:href="#DejaVuSans-BoldOblique-36" transform="translate(208.740234 0)"/>
    </g>
   </g>
   <g id="text_7">
    <!-- 4⁺ -->
    <g transform="translate(182.58336 258.960237) scale(0.23 -0.23)">
     <defs>
      <path id="TimesNewRomanPS-BoldMT-34" d="M 159 1597 
L 2172 4325 
L 2553 4325 
L 2553 1597 
L 2941 1597 
L 2941 950 
L 2553 950 
L 2553 0 
L 1694 0 
L 1694 950 
L 159 950 
L 159 1597 
z
M 463 1597 
L 1694 1597 
L 1694 3269 
L 463 1597 
z
" transform="scale(0.015625)"/>
     </defs>
     <use xlink:href="#TimesNewRomanPS-BoldMT-34"/>
     <use xlink:href="#DejaVuSerif-Bold-207a" transform="translate(50 0)"/>
    </g>
   </g>
   <g id="text_8">
    <!-- 6622 -->
    <g transform="translate(13.58775 168.560686) scale(0.16 -0.16)">
     <use xlink:href="#DejaVuSans-BoldOblique-36"/>
     <use xlink:href="#DejaVuSans-BoldOblique-36" transform="translate(69.580078 0)"/>
     <use xlink:href="#DejaVuSans-BoldOblique-32" transform="translate(139.160156 0)"/>
     <use xlink:href="#DejaVuSans-BoldOblique-32" transform="translate(208.740234 0)"/>
    </g>
   </g>
   <g id="text_9">
    <!-- 6⁺ -->
    <g transform="translate(182.58336 169.300921) scale(0.23 -0.23)">
     <defs>
      <path id="TimesNewRomanPS-BoldMT-36" d="M 3006 4325 
L 3006 4238 
Q 2441 4094 2098 3867 
Q 1756 3641 1557 3317 
Q 1359 2994 1250 2516 
Q 1388 2609 1478 2638 
Q 1681 2700 1888 2700 
Q 2363 2700 2680 2354 
Q 2997 2009 2997 1413 
Q 2997 994 2825 644 
Q 2653 294 2337 103 
Q 2022 -88 1663 -88 
Q 1272 -88 940 126 
Q 609 341 423 753 
Q 238 1166 238 1650 
Q 238 2363 580 2977 
Q 922 3591 1551 3955 
Q 2181 4319 3006 4325 
z
M 1209 2263 
Q 1184 1831 1184 1631 
Q 1184 1200 1267 797 
Q 1350 394 1494 231 
Q 1597 116 1738 116 
Q 1881 116 1993 283 
Q 2106 450 2106 963 
Q 2106 1825 1897 2153 
Q 1763 2366 1534 2366 
Q 1409 2366 1209 2263 
z
" transform="scale(0.015625)"/>
     </defs>
     <use xlink:href="#TimesNewRomanPS-BoldMT-36"/>
     <use xlink:href="#DejaVuSerif-Bold-207a" transform="translate(50 0)"/>
    </g>
   </g>
   <g id="text_10">
    <!-- 3430 -->
    <g transform="translate(263.461892 320.345946) scale(0.16 -0.16)">
     <use xlink:href="#DejaVuSans-BoldOblique-33"/>
     <use xlink:href="#DejaVuSans-BoldOblique-34" transform="translate(69.580078 0)"/>
     <use xlink:href="#DejaVuSans-BoldOblique-33" transform="translate(139.160156 0)"/>
     <use xlink:href="#DejaVuSans-BoldOblique-30" transform="translate(208.740234 0)"/>
    </g>
   </g>
   <g id="text_11">
    <!-- 0⁺ -->
    <g transform="translate(432.457502 321.086181) scale(0.23 -0.23)">
     <use xlink:href="#TimesNewRomanPS-BoldMT-30"/>
     <use xlink:href="#DejaVuSerif-Bold-207a" transform="translate(50 0)"/>
    </g>
   </g>
   <g id="text_12">
    <!-- 5380 -->
    <g transform="translate(263.461892 227.592512) scale(0.16 -0.16)">
     <defs>
      <path id="DejaVuSans-BoldOblique-38" d="M 2150 2088 
Q 1784 2088 1539 1839 
Q 1294 1591 1294 1228 
Q 1294 969 1453 817 
Q 1613 666 1888 666 
Q 2259 666 2503 911 
Q 2747 1156 2747 1522 
Q 2747 1781 2586 1934 
Q 2425 2088 2150 2088 
z
M 1381 2484 
Q 1044 2625 876 2850 
Q 709 3075 709 3391 
Q 709 4025 1229 4387 
Q 1750 4750 2669 4750 
Q 3406 4750 3812 4475 
Q 4219 4200 4219 3700 
Q 4219 3256 3936 2940 
Q 3653 2625 3128 2484 
Q 3509 2338 3690 2091 
Q 3872 1844 3872 1466 
Q 3872 747 3311 328 
Q 2750 -91 1772 -91 
Q 1000 -91 570 217 
Q 141 525 141 1075 
Q 141 1572 470 1945 
Q 800 2319 1381 2484 
z
M 2559 3994 
Q 2241 3994 2048 3808 
Q 1856 3622 1856 3316 
Q 1856 3103 1995 2972 
Q 2134 2841 2363 2841 
Q 2681 2841 2873 3027 
Q 3066 3213 3066 3519 
Q 3066 3734 2927 3864 
Q 2788 3994 2559 3994 
z
" transform="scale(0.015625)"/>
     </defs>
     <use xlink:href="#DejaVuSans-BoldOblique-35"/>
     <use xlink:href="#DejaVuSans-BoldOblique-33" transform="translate(69.580078 0)"/>
     <use xlink:href="#DejaVuSans-BoldOblique-38" transform="translate(139.160156 0)"/>
     <use xlink:href="#DejaVuSans-BoldOblique-30" transform="translate(208.740234 0)"/>
    </g>
   </g>
   <g id="text_13">
    <!-- 2⁺ -->
    <g transform="translate(432.457502 228.332746) scale(0.23 -0.23)">
     <use xlink:href="#TimesNewRomanPS-BoldMT-32"/>
     <use xlink:href="#DejaVuSerif-Bold-207a" transform="translate(50 0)"/>
    </g>
   </g>
   <g id="text_14">
    <!-- 7036 -->
    <g transform="translate(263.461892 148.845381) scale(0.16 -0.16)">
     <use xlink:href="#DejaVuSans-BoldOblique-37"/>
     <use xlink:href="#DejaVuSans-BoldOblique-30" transform="translate(69.580078 0)"/>
     <use xlink:href="#DejaVuSans-BoldOblique-33" transform="translate(139.160156 0)"/>
     <use xlink:href="#DejaVuSans-BoldOblique-36" transform="translate(208.740234 0)"/>
    </g>
   </g>
   <g id="text_15">
    <!-- 4⁺ -->
    <g transform="translate(432.457502 149.585616) scale(0.23 -0.23)">
     <use xlink:href="#TimesNewRomanPS-BoldMT-34"/>
     <use xlink:href="#DejaVuSerif-Bold-207a" transform="translate(50 0)"/>
    </g>
   </g>
   <g id="text_16">
    <!-- 8325 -->
    <g transform="translate(263.461892 87.563625) scale(0.16 -0.16)">
     <use xlink:href="#DejaVuSans-BoldOblique-38"/>
     <use xlink:href="#DejaVuSans-BoldOblique-33" transform="translate(69.580078 0)"/>
     <use xlink:href="#DejaVuSans-BoldOblique-32" transform="translate(139.160156 0)"/>
     <use xlink:href="#DejaVuSans-BoldOblique-35" transform="translate(208.740234 0)"/>
    </g>
   </g>
   <g id="text_17">
    <!-- 6⁺ -->
    <g transform="translate(432.457502 88.30386) scale(0.23 -0.23)">
     <use xlink:href="#TimesNewRomanPS-BoldMT-36"/>
     <use xlink:href="#DejaVuSerif-Bold-207a" transform="translate(50 0)"/>
    </g>
   </g>
   <g id="text_18">
    <!-- 4722 -->
    <g transform="translate(513.336034 258.894031) scale(0.16 -0.16)">
     <use xlink:href="#DejaVuSans-BoldOblique-34"/>
     <use xlink:href="#DejaVuSans-BoldOblique-37" transform="translate(69.580078 0)"/>
     <use xlink:href="#DejaVuSans-BoldOblique-32" transform="translate(139.160156 0)"/>
     <use xlink:href="#DejaVuSans-BoldOblique-32" transform="translate(208.740234 0)"/>
    </g>
   </g>
   <g id="text_19">
    <!-- 2⁺ -->
    <g transform="translate(682.331644 259.634265) scale(0.23 -0.23)">
     <use xlink:href="#TimesNewRomanPS-BoldMT-32"/>
     <use xlink:href="#DejaVuSerif-Bold-207a" transform="translate(50 0)"/>
    </g>
   </g>
   <g id="text_20">
    <!-- 6636 -->
    <g transform="translate(513.336034 167.892793) scale(0.16 -0.16)">
     <use xlink:href="#DejaVuSans-BoldOblique-36"/>
     <use xlink:href="#DejaVuSans-BoldOblique-36" transform="translate(69.580078 0)"/>
     <use xlink:href="#DejaVuSans-BoldOblique-33" transform="translate(139.160156 0)"/>
     <use xlink:href="#DejaVuSans-BoldOblique-36" transform="translate(208.740234 0)"/>
    </g>
   </g>
   <g id="text_21">
    <!-- 3⁺ -->
    <g transform="translate(682.331644 168.633028) scale(0.23 -0.23)">
     <defs>
      <path id="TimesNewRomanPS-BoldMT-33" d="M 947 2125 
L 947 2234 
Q 1303 2338 1440 2427 
Q 1578 2516 1678 2698 
Q 1778 2881 1778 3069 
Q 1778 3328 1589 3514 
Q 1400 3700 1119 3700 
Q 681 3700 375 3238 
L 259 3278 
Q 484 3800 836 4062 
Q 1188 4325 1619 4325 
Q 2059 4325 2345 4056 
Q 2631 3788 2631 3428 
Q 2631 3194 2498 2976 
Q 2366 2759 2081 2594 
Q 2447 2416 2639 2155 
Q 2831 1894 2831 1500 
Q 2831 838 2351 373 
Q 1872 -91 1066 -91 
Q 528 -91 281 88 
Q 103 213 103 409 
Q 103 553 206 654 
Q 309 756 444 756 
Q 547 756 638 713 
Q 688 688 992 439 
Q 1297 191 1563 191 
Q 1794 191 1959 373 
Q 2125 556 2125 838 
Q 2125 1266 1825 1627 
Q 1525 1988 947 2125 
z
" transform="scale(0.015625)"/>
     </defs>
     <use xlink:href="#TimesNewRomanPS-BoldMT-33"/>
     <use xlink:href="#DejaVuSerif-Bold-207a" transform="translate(50 0)"/>
    </g>
   </g>
   <g id="text_22">
    <path d="M 111.560555 411.100254 
L 111.560555 419.765254 
Q 111.560555 420.740254 111.645555 421.010254 
Q 111.733055 421.280254 112.005555 421.452754 
Q 112.280555 421.622754 112.883055 421.622754 
L 113.123055 421.622754 
L 113.123055 421.912754 
L 107.545555 421.912754 
L 107.545555 421.622754 
L 107.828055 421.622754 
Q 108.508055 421.622754 108.795555 421.467754 
Q 109.085555 421.310254 109.185555 421.037754 
Q 109.288055 420.765254 109.288055 419.765254 
L 109.288055 414.272754 
Q 109.288055 413.537754 109.218055 413.355254 
Q 109.148055 413.170254 108.955555 413.042754 
Q 108.765555 412.912754 108.515555 412.912754 
Q 108.115555 412.912754 107.545555 413.162754 
L 107.405555 412.880254 
L 111.303055 411.100254 
L 111.560555 411.100254 
z
M 120.975555 421.912754 
L 114.740555 421.912754 
L 114.740555 421.740254 
Q 117.608055 418.327754 118.220555 417.147754 
Q 118.835555 415.967754 118.835555 414.842754 
Q 118.835555 414.022754 118.328055 413.480254 
Q 117.820555 412.935254 117.085555 412.935254 
Q 115.883055 412.935254 115.218055 414.140254 
L 114.928055 414.037754 
Q 115.350555 412.537754 116.210555 411.820254 
Q 117.070555 411.100254 118.195555 411.100254 
Q 118.998055 411.100254 119.663055 411.475254 
Q 120.328055 411.850254 120.703055 412.502754 
Q 121.078055 413.155254 121.078055 413.725254 
Q 121.078055 414.765254 120.498055 415.835254 
Q 119.710555 417.280254 117.053055 419.865254 
L 119.343055 419.865254 
Q 120.185555 419.865254 120.440555 419.795254 
Q 120.695555 419.725254 120.858055 419.557754 
Q 121.023055 419.390254 121.288055 418.850254 
L 121.570555 418.850254 
L 120.975555 421.912754 
z
M 124.350555 419.505254 
Q 124.898055 419.505254 125.275555 419.890254 
Q 125.655555 420.272754 125.655555 420.810254 
Q 125.655555 421.350254 125.273055 421.730254 
Q 124.890555 422.107754 124.350555 422.107754 
Q 123.810555 422.107754 123.430555 421.730254 
Q 123.053055 421.350254 123.053055 420.810254 
Q 123.053055 420.272754 123.430555 419.890254 
Q 123.810555 419.505254 124.350555 419.505254 
z
M 129.185555 422.132754 
L 132.070555 413.390254 
L 129.873055 413.390254 
Q 128.585555 413.390254 127.935555 413.725254 
Q 127.483055 413.960254 127.185555 414.607754 
L 126.890555 414.607754 
L 127.655555 411.317754 
L 133.968055 411.317754 
L 130.413055 422.132754 
L 129.185555 422.132754 
z
" style="stroke: #ffffff; stroke-width: 3.8"/>
    <path d="M 111.560555 411.100254 
L 111.560555 419.765254 
Q 111.560555 420.740254 111.645555 421.010254 
Q 111.733055 421.280254 112.005555 421.452754 
Q 112.280555 421.622754 112.883055 421.622754 
L 113.123055 421.622754 
L 113.123055 421.912754 
L 107.545555 421.912754 
L 107.545555 421.622754 
L 107.828055 421.622754 
Q 108.508055 421.622754 108.795555 421.467754 
Q 109.085555 421.310254 109.185555 421.037754 
Q 109.288055 420.765254 109.288055 419.765254 
L 109.288055 414.272754 
Q 109.288055 413.537754 109.218055 413.355254 
Q 109.148055 413.170254 108.955555 413.042754 
Q 108.765555 412.912754 108.515555 412.912754 
Q 108.115555 412.912754 107.545555 413.162754 
L 107.405555 412.880254 
L 111.303055 411.100254 
L 111.560555 411.100254 
z
M 120.975555 421.912754 
L 114.740555 421.912754 
L 114.740555 421.740254 
Q 117.608055 418.327754 118.220555 417.147754 
Q 118.835555 415.967754 118.835555 414.842754 
Q 118.835555 414.022754 118.328055 413.480254 
Q 117.820555 412.935254 117.085555 412.935254 
Q 115.883055 412.935254 115.218055 414.140254 
L 114.928055 414.037754 
Q 115.350555 412.537754 116.210555 411.820254 
Q 117.070555 411.100254 118.195555 411.100254 
Q 118.998055 411.100254 119.663055 411.475254 
Q 120.328055 411.850254 120.703055 412.502754 
Q 121.078055 413.155254 121.078055 413.725254 
Q 121.078055 414.765254 120.498055 415.835254 
Q 119.710555 417.280254 117.053055 419.865254 
L 119.343055 419.865254 
Q 120.185555 419.865254 120.440555 419.795254 
Q 120.695555 419.725254 120.858055 419.557754 
Q 121.023055 419.390254 121.288055 418.850254 
L 121.570555 418.850254 
L 120.975555 421.912754 
z
M 124.350555 419.505254 
Q 124.898055 419.505254 125.275555 419.890254 
Q 125.655555 420.272754 125.655555 420.810254 
Q 125.655555 421.350254 125.273055 421.730254 
Q 124.890555 422.107754 124.350555 422.107754 
Q 123.810555 422.107754 123.430555 421.730254 
Q 123.053055 421.350254 123.053055 420.810254 
Q 123.053055 420.272754 123.430555 419.890254 
Q 123.810555 419.505254 124.350555 419.505254 
z
M 129.185555 422.132754 
L 132.070555 413.390254 
L 129.873055 413.390254 
Q 128.585555 413.390254 127.935555 413.725254 
Q 127.483055 413.960254 127.185555 414.607754 
L 126.890555 414.607754 
L 127.655555 411.317754 
L 133.968055 411.317754 
L 130.413055 422.132754 
L 129.185555 422.132754 
z
"/>
   </g>
   <g id="text_23">
    <path d="M 112.975555 309.290595 
L 106.740555 309.290595 
L 106.740555 309.118095 
Q 109.608055 305.705595 110.220555 304.525595 
Q 110.835555 303.345595 110.835555 302.220595 
Q 110.835555 301.400595 110.328055 300.858095 
Q 109.820555 300.313095 109.085555 300.313095 
Q 107.883055 300.313095 107.218055 301.518095 
L 106.928055 301.415595 
Q 107.350555 299.915595 108.210555 299.198095 
Q 109.070555 298.478095 110.195555 298.478095 
Q 110.998055 298.478095 111.663055 298.853095 
Q 112.328055 299.228095 112.703055 299.880595 
Q 113.078055 300.533095 113.078055 301.103095 
Q 113.078055 302.143095 112.498055 303.213095 
Q 111.710555 304.658095 109.053055 307.243095 
L 111.343055 307.243095 
Q 112.185555 307.243095 112.440555 307.173095 
Q 112.695555 307.103095 112.858055 306.935595 
Q 113.023055 306.768095 113.288055 306.228095 
L 113.570555 306.228095 
L 112.975555 309.290595 
z
M 119.803055 303.305595 
Q 120.920555 304.125595 121.353055 304.833095 
Q 121.788055 305.540595 121.788055 306.455595 
Q 121.788055 307.735595 120.823055 308.623095 
Q 119.858055 309.510595 118.203055 309.510595 
Q 116.633055 309.510595 115.773055 308.738095 
Q 114.913055 307.963095 114.913055 306.845595 
Q 114.913055 305.993095 115.408055 305.353095 
Q 115.905555 304.713095 117.060555 304.180595 
Q 115.803055 303.220595 115.448055 302.610595 
Q 115.093055 302.000595 115.093055 301.195595 
Q 115.093055 300.133095 115.995555 299.325595 
Q 116.898055 298.518095 118.468055 298.518095 
Q 119.983055 298.518095 120.798055 299.233095 
Q 121.615555 299.945595 121.615555 300.945595 
Q 121.615555 301.695595 121.173055 302.270595 
Q 120.733055 302.845595 119.803055 303.305595 
z
M 119.210555 302.908095 
Q 119.498055 302.518095 119.638055 302.033095 
Q 119.780555 301.548095 119.780555 300.970595 
Q 119.780555 299.955595 119.343055 299.415595 
Q 119.015555 299.000595 118.435555 299.000595 
Q 117.913055 299.000595 117.545555 299.380595 
Q 117.178055 299.758095 117.178055 300.320595 
Q 117.178055 300.893095 117.588055 301.505595 
Q 117.998055 302.118095 119.210555 302.908095 
z
M 117.648055 304.555595 
Q 117.405555 304.775595 117.303055 304.955595 
Q 117.148055 305.228095 117.023055 305.753095 
Q 116.898055 306.275595 116.898055 306.845595 
Q 116.898055 307.580595 117.085555 308.075595 
Q 117.273055 308.570595 117.620555 308.790595 
Q 117.968055 309.008095 118.335555 309.008095 
Q 118.905555 309.008095 119.295555 308.590595 
Q 119.685555 308.173095 119.685555 307.445595 
Q 119.685555 305.930595 117.648055 304.555595 
z
M 124.350555 306.883095 
Q 124.898055 306.883095 125.275555 307.268095 
Q 125.655555 307.650595 125.655555 308.188095 
Q 125.655555 308.728095 125.273055 309.108095 
Q 124.890555 309.485595 124.350555 309.485595 
Q 123.810555 309.485595 123.430555 309.108095 
Q 123.053055 308.728095 123.053055 308.188095 
Q 123.053055 307.650595 123.430555 307.268095 
Q 123.810555 306.883095 124.350555 306.883095 
z
M 131.803055 303.305595 
Q 132.920555 304.125595 133.353055 304.833095 
Q 133.788055 305.540595 133.788055 306.455595 
Q 133.788055 307.735595 132.823055 308.623095 
Q 131.858055 309.510595 130.203055 309.510595 
Q 128.633055 309.510595 127.773055 308.738095 
Q 126.913055 307.963095 126.913055 306.845595 
Q 126.913055 305.993095 127.408055 305.353095 
Q 127.905555 304.713095 129.060555 304.180595 
Q 127.803055 303.220595 127.448055 302.610595 
Q 127.093055 302.000595 127.093055 301.195595 
Q 127.093055 300.133095 127.995555 299.325595 
Q 128.898055 298.518095 130.468055 298.518095 
Q 131.983055 298.518095 132.798055 299.233095 
Q 133.615555 299.945595 133.615555 300.945595 
Q 133.615555 301.695595 133.173055 302.270595 
Q 132.733055 302.845595 131.803055 303.305595 
z
M 131.210555 302.908095 
Q 131.498055 302.518095 131.638055 302.033095 
Q 131.780555 301.548095 131.780555 300.970595 
Q 131.780555 299.955595 131.343055 299.415595 
Q 131.015555 299.000595 130.435555 299.000595 
Q 129.913055 299.000595 129.545555 299.380595 
Q 129.178055 299.758095 129.178055 300.320595 
Q 129.178055 300.893095 129.588055 301.505595 
Q 129.998055 302.118095 131.210555 302.908095 
z
M 129.648055 304.555595 
Q 129.405555 304.775595 129.303055 304.955595 
Q 129.148055 305.228095 129.023055 305.753095 
Q 128.898055 306.275595 128.898055 306.845595 
Q 128.898055 307.580595 129.085555 308.075595 
Q 129.273055 308.570595 129.620555 308.790595 
Q 129.968055 309.008095 130.335555 309.008095 
Q 130.905555 309.008095 131.295555 308.590595 
Q 131.685555 308.173095 131.685555 307.445595 
Q 131.685555 305.930595 129.648055 304.555595 
z
" style="stroke: #ffffff; stroke-width: 3.8"/>
    <path d="M 112.975555 309.290595 
L 106.740555 309.290595 
L 106.740555 309.118095 
Q 109.608055 305.705595 110.220555 304.525595 
Q 110.835555 303.345595 110.835555 302.220595 
Q 110.835555 301.400595 110.328055 300.858095 
Q 109.820555 300.313095 109.085555 300.313095 
Q 107.883055 300.313095 107.218055 301.518095 
L 106.928055 301.415595 
Q 107.350555 299.915595 108.210555 299.198095 
Q 109.070555 298.478095 110.195555 298.478095 
Q 110.998055 298.478095 111.663055 298.853095 
Q 112.328055 299.228095 112.703055 299.880595 
Q 113.078055 300.533095 113.078055 301.103095 
Q 113.078055 302.143095 112.498055 303.213095 
Q 111.710555 304.658095 109.053055 307.243095 
L 111.343055 307.243095 
Q 112.185555 307.243095 112.440555 307.173095 
Q 112.695555 307.103095 112.858055 306.935595 
Q 113.023055 306.768095 113.288055 306.228095 
L 113.570555 306.228095 
L 112.975555 309.290595 
z
M 119.803055 303.305595 
Q 120.920555 304.125595 121.353055 304.833095 
Q 121.788055 305.540595 121.788055 306.455595 
Q 121.788055 307.735595 120.823055 308.623095 
Q 119.858055 309.510595 118.203055 309.510595 
Q 116.633055 309.510595 115.773055 308.738095 
Q 114.913055 307.963095 114.913055 306.845595 
Q 114.913055 305.993095 115.408055 305.353095 
Q 115.905555 304.713095 117.060555 304.180595 
Q 115.803055 303.220595 115.448055 302.610595 
Q 115.093055 302.000595 115.093055 301.195595 
Q 115.093055 300.133095 115.995555 299.325595 
Q 116.898055 298.518095 118.468055 298.518095 
Q 119.983055 298.518095 120.798055 299.233095 
Q 121.615555 299.945595 121.615555 300.945595 
Q 121.615555 301.695595 121.173055 302.270595 
Q 120.733055 302.845595 119.803055 303.305595 
z
M 119.210555 302.908095 
Q 119.498055 302.518095 119.638055 302.033095 
Q 119.780555 301.548095 119.780555 300.970595 
Q 119.780555 299.955595 119.343055 299.415595 
Q 119.015555 299.000595 118.435555 299.000595 
Q 117.913055 299.000595 117.545555 299.380595 
Q 117.178055 299.758095 117.178055 300.320595 
Q 117.178055 300.893095 117.588055 301.505595 
Q 117.998055 302.118095 119.210555 302.908095 
z
M 117.648055 304.555595 
Q 117.405555 304.775595 117.303055 304.955595 
Q 117.148055 305.228095 117.023055 305.753095 
Q 116.898055 306.275595 116.898055 306.845595 
Q 116.898055 307.580595 117.085555 308.075595 
Q 117.273055 308.570595 117.620555 308.790595 
Q 117.968055 309.008095 118.335555 309.008095 
Q 118.905555 309.008095 119.295555 308.590595 
Q 119.685555 308.173095 119.685555 307.445595 
Q 119.685555 305.930595 117.648055 304.555595 
z
M 124.350555 306.883095 
Q 124.898055 306.883095 125.275555 307.268095 
Q 125.655555 307.650595 125.655555 308.188095 
Q 125.655555 308.728095 125.273055 309.108095 
Q 124.890555 309.485595 124.350555 309.485595 
Q 123.810555 309.485595 123.430555 309.108095 
Q 123.053055 308.728095 123.053055 308.188095 
Q 123.053055 307.650595 123.430555 307.268095 
Q 123.810555 306.883095 124.350555 306.883095 
z
M 131.803055 303.305595 
Q 132.920555 304.125595 133.353055 304.833095 
Q 133.788055 305.540595 133.788055 306.455595 
Q 133.788055 307.735595 132.823055 308.623095 
Q 131.858055 309.510595 130.203055 309.510595 
Q 128.633055 309.510595 127.773055 308.738095 
Q 126.913055 307.963095 126.913055 306.845595 
Q 126.913055 305.993095 127.408055 305.353095 
Q 127.905555 304.713095 129.060555 304.180595 
Q 127.803055 303.220595 127.448055 302.610595 
Q 127.093055 302.000595 127.093055 301.195595 
Q 127.093055 300.133095 127.995555 299.325595 
Q 128.898055 298.518095 130.468055 298.518095 
Q 131.983055 298.518095 132.798055 299.233095 
Q 133.615555 299.945595 133.615555 300.945595 
Q 133.615555 301.695595 133.173055 302.270595 
Q 132.733055 302.845595 131.803055 303.305595 
z
M 131.210555 302.908095 
Q 131.498055 302.518095 131.638055 302.033095 
Q 131.780555 301.548095 131.780555 300.970595 
Q 131.780555 299.955595 131.343055 299.415595 
Q 131.015555 299.000595 130.435555 299.000595 
Q 129.913055 299.000595 129.545555 299.380595 
Q 129.178055 299.758095 129.178055 300.320595 
Q 129.178055 300.893095 129.588055 301.505595 
Q 129.998055 302.118095 131.210555 302.908095 
z
M 129.648055 304.555595 
Q 129.405555 304.775595 129.303055 304.955595 
Q 129.148055 305.228095 129.023055 305.753095 
Q 128.898055 306.275595 128.898055 306.845595 
Q 128.898055 307.580595 129.085555 308.075595 
Q 129.273055 308.570595 129.620555 308.790595 
Q 129.968055 309.008095 130.335555 309.008095 
Q 130.905555 309.008095 131.295555 308.590595 
Q 131.685555 308.173095 131.685555 307.445595 
Q 131.685555 305.930595 129.648055 304.555595 
z
"/>
   </g>
   <g id="text_24">
    <path d="M 108.788055 201.966595 
L 113.748055 201.966595 
L 112.960555 203.984095 
L 108.788055 203.984095 
L 108.390555 205.039095 
Q 111.085555 205.139095 112.538055 206.381595 
Q 113.733055 207.404095 113.733055 208.929095 
Q 113.733055 209.904095 113.178055 210.839095 
Q 112.623055 211.771595 111.615555 212.276595 
Q 110.608055 212.781595 109.405555 212.781595 
Q 108.108055 212.781595 107.413055 212.296595 
Q 106.928055 211.951595 106.928055 211.514095 
Q 106.928055 211.179095 107.180555 210.921595 
Q 107.435555 210.664095 107.773055 210.664095 
Q 108.078055 210.664095 108.390555 210.789095 
Q 108.703055 210.914095 109.460555 211.444095 
Q 109.935555 211.771595 110.280555 211.896595 
Q 110.523055 211.991595 110.828055 211.991595 
Q 111.468055 211.991595 111.915555 211.524095 
Q 112.365555 211.054095 112.365555 210.396595 
Q 112.365555 209.021595 110.990555 208.164095 
Q 109.615555 207.304095 107.523055 207.304095 
Q 107.310555 207.304095 106.890555 207.311595 
L 108.788055 201.966595 
z
M 121.765555 207.264095 
Q 121.765555 208.851595 121.320555 210.226595 
Q 121.053055 211.069095 120.603055 211.609095 
Q 120.155555 212.146595 119.585555 212.464095 
Q 119.015555 212.781595 118.343055 212.781595 
Q 117.578055 212.781595 116.960555 212.391595 
Q 116.343055 211.999095 115.865555 211.271595 
Q 115.523055 210.741595 115.265555 209.859095 
Q 114.928055 208.664095 114.928055 207.389095 
Q 114.928055 205.664095 115.413055 204.216595 
Q 115.810555 203.021595 116.623055 202.386595 
Q 117.435555 201.749095 118.343055 201.749095 
Q 119.265555 201.749095 120.065555 202.379095 
Q 120.865555 203.006595 121.240555 204.069095 
Q 121.765555 205.529095 121.765555 207.264095 
z
M 119.358055 207.249095 
Q 119.358055 204.466595 119.328055 204.006595 
Q 119.248055 202.921595 118.953055 202.539095 
Q 118.758055 202.289095 118.320555 202.289095 
Q 117.983055 202.289095 117.788055 202.476595 
Q 117.498055 202.749095 117.395555 203.441595 
Q 117.295555 204.131595 117.295555 208.264095 
Q 117.295555 210.514095 117.453055 211.279095 
Q 117.570555 211.834095 117.788055 212.021595 
Q 118.008055 212.209095 118.365555 212.209095 
Q 118.758055 212.209095 118.953055 211.959095 
Q 119.280555 211.521595 119.328055 210.609095 
L 119.358055 207.249095 
z
M 124.350555 210.154095 
Q 124.898055 210.154095 125.275555 210.539095 
Q 125.655555 210.921595 125.655555 211.459095 
Q 125.655555 211.999095 125.273055 212.379095 
Q 124.890555 212.756595 124.350555 212.756595 
Q 123.810555 212.756595 123.430555 212.379095 
Q 123.053055 211.999095 123.053055 211.459095 
Q 123.053055 210.921595 123.430555 210.539095 
Q 123.810555 210.154095 124.350555 210.154095 
z
M 132.975555 212.561595 
L 126.740555 212.561595 
L 126.740555 212.389095 
Q 129.608055 208.976595 130.220555 207.796595 
Q 130.835555 206.616595 130.835555 205.491595 
Q 130.835555 204.671595 130.328055 204.129095 
Q 129.820555 203.584095 129.085555 203.584095 
Q 127.883055 203.584095 127.218055 204.789095 
L 126.928055 204.686595 
Q 127.350555 203.186595 128.210555 202.469095 
Q 129.070555 201.749095 130.195555 201.749095 
Q 130.998055 201.749095 131.663055 202.124095 
Q 132.328055 202.499095 132.703055 203.151595 
Q 133.078055 203.804095 133.078055 204.374095 
Q 133.078055 205.414095 132.498055 206.484095 
Q 131.710555 207.929095 129.053055 210.514095 
L 131.343055 210.514095 
Q 132.185555 210.514095 132.440555 210.444095 
Q 132.695555 210.374095 132.858055 210.206595 
Q 133.023055 210.039095 133.288055 209.499095 
L 133.570555 209.499095 
L 132.975555 212.561595 
z
" style="stroke: #ffffff; stroke-width: 3.8"/>
    <path d="M 108.788055 201.966595 
L 113.748055 201.966595 
L 112.960555 203.984095 
L 108.788055 203.984095 
L 108.390555 205.039095 
Q 111.085555 205.139095 112.538055 206.381595 
Q 113.733055 207.404095 113.733055 208.929095 
Q 113.733055 209.904095 113.178055 210.839095 
Q 112.623055 211.771595 111.615555 212.276595 
Q 110.608055 212.781595 109.405555 212.781595 
Q 108.108055 212.781595 107.413055 212.296595 
Q 106.928055 211.951595 106.928055 211.514095 
Q 106.928055 211.179095 107.180555 210.921595 
Q 107.435555 210.664095 107.773055 210.664095 
Q 108.078055 210.664095 108.390555 210.789095 
Q 108.703055 210.914095 109.460555 211.444095 
Q 109.935555 211.771595 110.280555 211.896595 
Q 110.523055 211.991595 110.828055 211.991595 
Q 111.468055 211.991595 111.915555 211.524095 
Q 112.365555 211.054095 112.365555 210.396595 
Q 112.365555 209.021595 110.990555 208.164095 
Q 109.615555 207.304095 107.523055 207.304095 
Q 107.310555 207.304095 106.890555 207.311595 
L 108.788055 201.966595 
z
M 121.765555 207.264095 
Q 121.765555 208.851595 121.320555 210.226595 
Q 121.053055 211.069095 120.603055 211.609095 
Q 120.155555 212.146595 119.585555 212.464095 
Q 119.015555 212.781595 118.343055 212.781595 
Q 117.578055 212.781595 116.960555 212.391595 
Q 116.343055 211.999095 115.865555 211.271595 
Q 115.523055 210.741595 115.265555 209.859095 
Q 114.928055 208.664095 114.928055 207.389095 
Q 114.928055 205.664095 115.413055 204.216595 
Q 115.810555 203.021595 116.623055 202.386595 
Q 117.435555 201.749095 118.343055 201.749095 
Q 119.265555 201.749095 120.065555 202.379095 
Q 120.865555 203.006595 121.240555 204.069095 
Q 121.765555 205.529095 121.765555 207.264095 
z
M 119.358055 207.249095 
Q 119.358055 204.466595 119.328055 204.006595 
Q 119.248055 202.921595 118.953055 202.539095 
Q 118.758055 202.289095 118.320555 202.289095 
Q 117.983055 202.289095 117.788055 202.476595 
Q 117.498055 202.749095 117.395555 203.441595 
Q 117.295555 204.131595 117.295555 208.264095 
Q 117.295555 210.514095 117.453055 211.279095 
Q 117.570555 211.834095 117.788055 212.021595 
Q 118.008055 212.209095 118.365555 212.209095 
Q 118.758055 212.209095 118.953055 211.959095 
Q 119.280555 211.521595 119.328055 210.609095 
L 119.358055 207.249095 
z
M 124.350555 210.154095 
Q 124.898055 210.154095 125.275555 210.539095 
Q 125.655555 210.921595 125.655555 211.459095 
Q 125.655555 211.999095 125.273055 212.379095 
Q 124.890555 212.756595 124.350555 212.756595 
Q 123.810555 212.756595 123.430555 212.379095 
Q 123.053055 211.999095 123.053055 211.459095 
Q 123.053055 210.921595 123.430555 210.539095 
Q 123.810555 210.154095 124.350555 210.154095 
z
M 132.975555 212.561595 
L 126.740555 212.561595 
L 126.740555 212.389095 
Q 129.608055 208.976595 130.220555 207.796595 
Q 130.835555 206.616595 130.835555 205.491595 
Q 130.835555 204.671595 130.328055 204.129095 
Q 129.820555 203.584095 129.085555 203.584095 
Q 127.883055 203.584095 127.218055 204.789095 
L 126.928055 204.686595 
Q 127.350555 203.186595 128.210555 202.469095 
Q 129.070555 201.749095 130.195555 201.749095 
Q 130.998055 201.749095 131.663055 202.124095 
Q 132.328055 202.499095 132.703055 203.151595 
Q 133.078055 203.804095 133.078055 204.374095 
Q 133.078055 205.414095 132.498055 206.484095 
Q 131.710555 207.929095 129.053055 210.514095 
L 131.343055 210.514095 
Q 132.185555 210.514095 132.440555 210.444095 
Q 132.695555 210.374095 132.858055 210.206595 
Q 133.023055 210.039095 133.288055 209.499095 
L 133.570555 209.499095 
L 132.975555 212.561595 
z
"/>
   </g>
   <g id="text_25">
    <path d="M 362.849697 273.140479 
L 356.614697 273.140479 
L 356.614697 272.967979 
Q 359.482197 269.555479 360.094697 268.375479 
Q 360.709697 267.195479 360.709697 266.070479 
Q 360.709697 265.250479 360.202197 264.707979 
Q 359.694697 264.162979 358.959697 264.162979 
Q 357.757197 264.162979 357.092197 265.367979 
L 356.802197 265.265479 
Q 357.224697 263.765479 358.084697 263.047979 
Q 358.944697 262.327979 360.069697 262.327979 
Q 360.872197 262.327979 361.537197 262.702979 
Q 362.202197 263.077979 362.577197 263.730479 
Q 362.952197 264.382979 362.952197 264.952979 
Q 362.952197 265.992979 362.372197 267.062979 
Q 361.584697 268.507979 358.927197 271.092979 
L 361.217197 271.092979 
Q 362.059697 271.092979 362.314697 271.022979 
Q 362.569697 270.952979 362.732197 270.785479 
Q 362.897197 270.617979 363.162197 270.077979 
L 363.444697 270.077979 
L 362.849697 273.140479 
z
M 371.639697 267.842979 
Q 371.639697 269.430479 371.194697 270.805479 
Q 370.927197 271.647979 370.477197 272.187979 
Q 370.029697 272.725479 369.459697 273.042979 
Q 368.889697 273.360479 368.217197 273.360479 
Q 367.452197 273.360479 366.834697 272.970479 
Q 366.217197 272.577979 365.739697 271.850479 
Q 365.397197 271.320479 365.139697 270.437979 
Q 364.802197 269.242979 364.802197 267.967979 
Q 364.802197 266.242979 365.287197 264.795479 
Q 365.684697 263.600479 366.497197 262.965479 
Q 367.309697 262.327979 368.217197 262.327979 
Q 369.139697 262.327979 369.939697 262.957979 
Q 370.739697 263.585479 371.114697 264.647979 
Q 371.639697 266.107979 371.639697 267.842979 
z
M 369.232197 267.827979 
Q 369.232197 265.045479 369.202197 264.585479 
Q 369.122197 263.500479 368.827197 263.117979 
Q 368.632197 262.867979 368.194697 262.867979 
Q 367.857197 262.867979 367.662197 263.055479 
Q 367.372197 263.327979 367.269697 264.020479 
Q 367.169697 264.710479 367.169697 268.842979 
Q 367.169697 271.092979 367.327197 271.857979 
Q 367.444697 272.412979 367.662197 272.600479 
Q 367.882197 272.787979 368.239697 272.787979 
Q 368.632197 272.787979 368.827197 272.537979 
Q 369.154697 272.100479 369.202197 271.187979 
L 369.232197 267.827979 
z
M 374.224697 270.732979 
Q 374.772197 270.732979 375.149697 271.117979 
Q 375.529697 271.500479 375.529697 272.037979 
Q 375.529697 272.577979 375.147197 272.957979 
Q 374.764697 273.335479 374.224697 273.335479 
Q 373.684697 273.335479 373.304697 272.957979 
Q 372.927197 272.577979 372.927197 272.037979 
Q 372.927197 271.500479 373.304697 271.117979 
Q 373.684697 270.732979 374.224697 270.732979 
z
M 383.639697 267.842979 
Q 383.639697 269.430479 383.194697 270.805479 
Q 382.927197 271.647979 382.477197 272.187979 
Q 382.029697 272.725479 381.459697 273.042979 
Q 380.889697 273.360479 380.217197 273.360479 
Q 379.452197 273.360479 378.834697 272.970479 
Q 378.217197 272.577979 377.739697 271.850479 
Q 377.397197 271.320479 377.139697 270.437979 
Q 376.802197 269.242979 376.802197 267.967979 
Q 376.802197 266.242979 377.287197 264.795479 
Q 377.684697 263.600479 378.497197 262.965479 
Q 379.309697 262.327979 380.217197 262.327979 
Q 381.139697 262.327979 381.939697 262.957979 
Q 382.739697 263.585479 383.114697 264.647979 
Q 383.639697 266.107979 383.639697 267.842979 
z
M 381.232197 267.827979 
Q 381.232197 265.045479 381.202197 264.585479 
Q 381.122197 263.500479 380.827197 263.117979 
Q 380.632197 262.867979 380.194697 262.867979 
Q 379.857197 262.867979 379.662197 263.055479 
Q 379.372197 263.327979 379.269697 264.020479 
Q 379.169697 264.710479 379.169697 268.842979 
Q 379.169697 271.092979 379.327197 271.857979 
Q 379.444697 272.412979 379.662197 272.600479 
Q 379.882197 272.787979 380.239697 272.787979 
Q 380.632197 272.787979 380.827197 272.537979 
Q 381.154697 272.100479 381.202197 271.187979 
L 381.232197 267.827979 
z
" style="stroke: #ffffff; stroke-width: 3.8"/>
    <path d="M 362.849697 273.140479 
L 356.614697 273.140479 
L 356.614697 272.967979 
Q 359.482197 269.555479 360.094697 268.375479 
Q 360.709697 267.195479 360.709697 266.070479 
Q 360.709697 265.250479 360.202197 264.707979 
Q 359.694697 264.162979 358.959697 264.162979 
Q 357.757197 264.162979 357.092197 265.367979 
L 356.802197 265.265479 
Q 357.224697 263.765479 358.084697 263.047979 
Q 358.944697 262.327979 360.069697 262.327979 
Q 360.872197 262.327979 361.537197 262.702979 
Q 362.202197 263.077979 362.577197 263.730479 
Q 362.952197 264.382979 362.952197 264.952979 
Q 362.952197 265.992979 362.372197 267.062979 
Q 361.584697 268.507979 358.927197 271.092979 
L 361.217197 271.092979 
Q 362.059697 271.092979 362.314697 271.022979 
Q 362.569697 270.952979 362.732197 270.785479 
Q 362.897197 270.617979 363.162197 270.077979 
L 363.444697 270.077979 
L 362.849697 273.140479 
z
M 371.639697 267.842979 
Q 371.639697 269.430479 371.194697 270.805479 
Q 370.927197 271.647979 370.477197 272.187979 
Q 370.029697 272.725479 369.459697 273.042979 
Q 368.889697 273.360479 368.217197 273.360479 
Q 367.452197 273.360479 366.834697 272.970479 
Q 366.217197 272.577979 365.739697 271.850479 
Q 365.397197 271.320479 365.139697 270.437979 
Q 364.802197 269.242979 364.802197 267.967979 
Q 364.802197 266.242979 365.287197 264.795479 
Q 365.684697 263.600479 366.497197 262.965479 
Q 367.309697 262.327979 368.217197 262.327979 
Q 369.139697 262.327979 369.939697 262.957979 
Q 370.739697 263.585479 371.114697 264.647979 
Q 371.639697 266.107979 371.639697 267.842979 
z
M 369.232197 267.827979 
Q 369.232197 265.045479 369.202197 264.585479 
Q 369.122197 263.500479 368.827197 263.117979 
Q 368.632197 262.867979 368.194697 262.867979 
Q 367.857197 262.867979 367.662197 263.055479 
Q 367.372197 263.327979 367.269697 264.020479 
Q 367.169697 264.710479 367.169697 268.842979 
Q 367.169697 271.092979 367.327197 271.857979 
Q 367.444697 272.412979 367.662197 272.600479 
Q 367.882197 272.787979 368.239697 272.787979 
Q 368.632197 272.787979 368.827197 272.537979 
Q 369.154697 272.100479 369.202197 271.187979 
L 369.232197 267.827979 
z
M 374.224697 270.732979 
Q 374.772197 270.732979 375.149697 271.117979 
Q 375.529697 271.500479 375.529697 272.037979 
Q 375.529697 272.577979 375.147197 272.957979 
Q 374.764697 273.335479 374.224697 273.335479 
Q 373.684697 273.335479 373.304697 272.957979 
Q 372.927197 272.577979 372.927197 272.037979 
Q 372.927197 271.500479 373.304697 271.117979 
Q 373.684697 270.732979 374.224697 270.732979 
z
M 383.639697 267.842979 
Q 383.639697 269.430479 383.194697 270.805479 
Q 382.927197 271.647979 382.477197 272.187979 
Q 382.029697 272.725479 381.459697 273.042979 
Q 380.889697 273.360479 380.217197 273.360479 
Q 379.452197 273.360479 378.834697 272.970479 
Q 378.217197 272.577979 377.739697 271.850479 
Q 377.397197 271.320479 377.139697 270.437979 
Q 376.802197 269.242979 376.802197 267.967979 
Q 376.802197 266.242979 377.287197 264.795479 
Q 377.684697 263.600479 378.497197 262.965479 
Q 379.309697 262.327979 380.217197 262.327979 
Q 381.139697 262.327979 381.939697 262.957979 
Q 382.739697 263.585479 383.114697 264.647979 
Q 383.639697 266.107979 383.639697 267.842979 
z
M 381.232197 267.827979 
Q 381.232197 265.045479 381.202197 264.585479 
Q 381.122197 263.500479 380.827197 263.117979 
Q 380.632197 262.867979 380.194697 262.867979 
Q 379.857197 262.867979 379.662197 263.055479 
Q 379.372197 263.327979 379.269697 264.020479 
Q 379.169697 264.710479 379.169697 268.842979 
Q 379.169697 271.092979 379.327197 271.857979 
Q 379.444697 272.412979 379.662197 272.600479 
Q 379.882197 272.787979 380.239697 272.787979 
Q 380.632197 272.787979 380.827197 272.537979 
Q 381.154697 272.100479 381.202197 271.187979 
L 381.232197 267.827979 
z
"/>
   </g>
   <g id="text_26">
    <path d="M 356.622197 183.397697 
L 361.654697 176.577697 
L 362.607197 176.577697 
L 362.607197 183.397697 
L 363.577197 183.397697 
L 363.577197 185.015197 
L 362.607197 185.015197 
L 362.607197 187.390197 
L 360.459697 187.390197 
L 360.459697 185.015197 
L 356.622197 185.015197 
L 356.622197 183.397697 
z
M 357.382197 183.397697 
L 360.459697 183.397697 
L 360.459697 179.217697 
L 357.382197 183.397697 
z
M 366.592197 182.077697 
L 366.592197 181.805197 
Q 367.482197 181.545197 367.824697 181.322697 
Q 368.169697 181.100197 368.419697 180.645197 
Q 368.669697 180.187697 368.669697 179.717697 
Q 368.669697 179.070197 368.197197 178.605197 
Q 367.724697 178.140197 367.022197 178.140197 
Q 365.927197 178.140197 365.162197 179.295197 
L 364.872197 179.195197 
Q 365.434697 177.890197 366.314697 177.235197 
Q 367.194697 176.577697 368.272197 176.577697 
Q 369.372197 176.577697 370.087197 177.250197 
Q 370.802197 177.920197 370.802197 178.820197 
Q 370.802197 179.405197 370.469697 179.950197 
Q 370.139697 180.492697 369.427197 180.905197 
Q 370.342197 181.350197 370.822197 182.002697 
Q 371.302197 182.655197 371.302197 183.640197 
Q 371.302197 185.295197 370.102197 186.457697 
Q 368.904697 187.617697 366.889697 187.617697 
Q 365.544697 187.617697 364.927197 187.170197 
Q 364.482197 186.857697 364.482197 186.367697 
Q 364.482197 186.007697 364.739697 185.755197 
Q 364.997197 185.500197 365.334697 185.500197 
Q 365.592197 185.500197 365.819697 185.607697 
Q 365.944697 185.670197 366.704697 186.292697 
Q 367.467197 186.912697 368.132197 186.912697 
Q 368.709697 186.912697 369.122197 186.457697 
Q 369.537197 186.000197 369.537197 185.295197 
Q 369.537197 184.225197 368.787197 183.322697 
Q 368.037197 182.420197 366.592197 182.077697 
z
M 374.224697 184.982697 
Q 374.772197 184.982697 375.149697 185.367697 
Q 375.529697 185.750197 375.529697 186.287697 
Q 375.529697 186.827697 375.147197 187.207697 
Q 374.764697 187.585197 374.224697 187.585197 
Q 373.684697 187.585197 373.304697 187.207697 
Q 372.927197 186.827697 372.927197 186.287697 
Q 372.927197 185.750197 373.304697 185.367697 
Q 373.684697 184.982697 374.224697 184.982697 
z
M 381.677197 181.405197 
Q 382.794697 182.225197 383.227197 182.932697 
Q 383.662197 183.640197 383.662197 184.555197 
Q 383.662197 185.835197 382.697197 186.722697 
Q 381.732197 187.610197 380.077197 187.610197 
Q 378.507197 187.610197 377.647197 186.837697 
Q 376.787197 186.062697 376.787197 184.945197 
Q 376.787197 184.092697 377.282197 183.452697 
Q 377.779697 182.812697 378.934697 182.280197 
Q 377.677197 181.320197 377.322197 180.710197 
Q 376.967197 180.100197 376.967197 179.295197 
Q 376.967197 178.232697 377.869697 177.425197 
Q 378.772197 176.617697 380.342197 176.617697 
Q 381.857197 176.617697 382.672197 177.332697 
Q 383.489697 178.045197 383.489697 179.045197 
Q 383.489697 179.795197 383.047197 180.370197 
Q 382.607197 180.945197 381.677197 181.405197 
z
M 381.084697 181.007697 
Q 381.372197 180.617697 381.512197 180.132697 
Q 381.654697 179.647697 381.654697 179.070197 
Q 381.654697 178.055197 381.217197 177.515197 
Q 380.889697 177.100197 380.309697 177.100197 
Q 379.787197 177.100197 379.419697 177.480197 
Q 379.052197 177.857697 379.052197 178.420197 
Q 379.052197 178.992697 379.462197 179.605197 
Q 379.872197 180.217697 381.084697 181.007697 
z
M 379.522197 182.655197 
Q 379.279697 182.875197 379.177197 183.055197 
Q 379.022197 183.327697 378.897197 183.852697 
Q 378.772197 184.375197 378.772197 184.945197 
Q 378.772197 185.680197 378.959697 186.175197 
Q 379.147197 186.670197 379.494697 186.890197 
Q 379.842197 187.107697 380.209697 187.107697 
Q 380.779697 187.107697 381.169697 186.690197 
Q 381.559697 186.272697 381.559697 185.545197 
Q 381.559697 184.030197 379.522197 182.655197 
z
" style="stroke: #ffffff; stroke-width: 3.8"/>
    <path d="M 356.622197 183.397697 
L 361.654697 176.577697 
L 362.607197 176.577697 
L 362.607197 183.397697 
L 363.577197 183.397697 
L 363.577197 185.015197 
L 362.607197 185.015197 
L 362.607197 187.390197 
L 360.459697 187.390197 
L 360.459697 185.015197 
L 356.622197 185.015197 
L 356.622197 183.397697 
z
M 357.382197 183.397697 
L 360.459697 183.397697 
L 360.459697 179.217697 
L 357.382197 183.397697 
z
M 366.592197 182.077697 
L 366.592197 181.805197 
Q 367.482197 181.545197 367.824697 181.322697 
Q 368.169697 181.100197 368.419697 180.645197 
Q 368.669697 180.187697 368.669697 179.717697 
Q 368.669697 179.070197 368.197197 178.605197 
Q 367.724697 178.140197 367.022197 178.140197 
Q 365.927197 178.140197 365.162197 179.295197 
L 364.872197 179.195197 
Q 365.434697 177.890197 366.314697 177.235197 
Q 367.194697 176.577697 368.272197 176.577697 
Q 369.372197 176.577697 370.087197 177.250197 
Q 370.802197 177.920197 370.802197 178.820197 
Q 370.802197 179.405197 370.469697 179.950197 
Q 370.139697 180.492697 369.427197 180.905197 
Q 370.342197 181.350197 370.822197 182.002697 
Q 371.302197 182.655197 371.302197 183.640197 
Q 371.302197 185.295197 370.102197 186.457697 
Q 368.904697 187.617697 366.889697 187.617697 
Q 365.544697 187.617697 364.927197 187.170197 
Q 364.482197 186.857697 364.482197 186.367697 
Q 364.482197 186.007697 364.739697 185.755197 
Q 364.997197 185.500197 365.334697 185.500197 
Q 365.592197 185.500197 365.819697 185.607697 
Q 365.944697 185.670197 366.704697 186.292697 
Q 367.467197 186.912697 368.132197 186.912697 
Q 368.709697 186.912697 369.122197 186.457697 
Q 369.537197 186.000197 369.537197 185.295197 
Q 369.537197 184.225197 368.787197 183.322697 
Q 368.037197 182.420197 366.592197 182.077697 
z
M 374.224697 184.982697 
Q 374.772197 184.982697 375.149697 185.367697 
Q 375.529697 185.750197 375.529697 186.287697 
Q 375.529697 186.827697 375.147197 187.207697 
Q 374.764697 187.585197 374.224697 187.585197 
Q 373.684697 187.585197 373.304697 187.207697 
Q 372.927197 186.827697 372.927197 186.287697 
Q 372.927197 185.750197 373.304697 185.367697 
Q 373.684697 184.982697 374.224697 184.982697 
z
M 381.677197 181.405197 
Q 382.794697 182.225197 383.227197 182.932697 
Q 383.662197 183.640197 383.662197 184.555197 
Q 383.662197 185.835197 382.697197 186.722697 
Q 381.732197 187.610197 380.077197 187.610197 
Q 378.507197 187.610197 377.647197 186.837697 
Q 376.787197 186.062697 376.787197 184.945197 
Q 376.787197 184.092697 377.282197 183.452697 
Q 377.779697 182.812697 378.934697 182.280197 
Q 377.677197 181.320197 377.322197 180.710197 
Q 376.967197 180.100197 376.967197 179.295197 
Q 376.967197 178.232697 377.869697 177.425197 
Q 378.772197 176.617697 380.342197 176.617697 
Q 381.857197 176.617697 382.672197 177.332697 
Q 383.489697 178.045197 383.489697 179.045197 
Q 383.489697 179.795197 383.047197 180.370197 
Q 382.607197 180.945197 381.677197 181.405197 
z
M 381.084697 181.007697 
Q 381.372197 180.617697 381.512197 180.132697 
Q 381.654697 179.647697 381.654697 179.070197 
Q 381.654697 178.055197 381.217197 177.515197 
Q 380.889697 177.100197 380.309697 177.100197 
Q 379.787197 177.100197 379.419697 177.480197 
Q 379.052197 177.857697 379.052197 178.420197 
Q 379.052197 178.992697 379.462197 179.605197 
Q 379.872197 180.217697 381.084697 181.007697 
z
M 379.522197 182.655197 
Q 379.279697 182.875197 379.177197 183.055197 
Q 379.022197 183.327697 378.897197 183.852697 
Q 378.772197 184.375197 378.772197 184.945197 
Q 378.772197 185.680197 378.959697 186.175197 
Q 379.147197 186.670197 379.494697 186.890197 
Q 379.842197 187.107697 380.209697 187.107697 
Q 380.779697 187.107697 381.169697 186.690197 
Q 381.559697 186.272697 381.559697 185.545197 
Q 381.559697 184.030197 379.522197 182.655197 
z
"/>
   </g>
   <g id="text_27">
    <path d="M 363.739697 106.563253 
L 363.739697 106.780753 
Q 362.327197 107.140753 361.469697 107.708253 
Q 360.614697 108.273253 360.117197 109.083253 
Q 359.622197 109.890753 359.349697 111.085753 
Q 359.694697 110.853253 359.919697 110.780753 
Q 360.427197 110.625753 360.944697 110.625753 
Q 362.132197 110.625753 362.924697 111.490753 
Q 363.717197 112.353253 363.717197 113.843253 
Q 363.717197 114.890753 363.287197 115.765753 
Q 362.857197 116.640753 362.067197 117.118253 
Q 361.279697 117.595753 360.382197 117.595753 
Q 359.404697 117.595753 358.574697 117.060753 
Q 357.747197 116.523253 357.282197 115.493253 
Q 356.819697 114.460753 356.819697 113.250753 
Q 356.819697 111.468253 357.674697 109.933253 
Q 358.529697 108.398253 360.102197 107.488253 
Q 361.677197 106.578253 363.739697 106.563253 
z
M 359.247197 111.718253 
Q 359.184697 112.798253 359.184697 113.298253 
Q 359.184697 114.375753 359.392197 115.383253 
Q 359.599697 116.390753 359.959697 116.798253 
Q 360.217197 117.085753 360.569697 117.085753 
Q 360.927197 117.085753 361.207197 116.668253 
Q 361.489697 116.250753 361.489697 114.968253 
Q 361.489697 112.813253 360.967197 111.993253 
Q 360.632197 111.460753 360.059697 111.460753 
Q 359.747197 111.460753 359.247197 111.718253 
z
M 369.677197 111.390753 
Q 370.794697 112.210753 371.227197 112.918253 
Q 371.662197 113.625753 371.662197 114.540753 
Q 371.662197 115.820753 370.697197 116.708253 
Q 369.732197 117.595753 368.077197 117.595753 
Q 366.507197 117.595753 365.647197 116.823253 
Q 364.787197 116.048253 364.787197 114.930753 
Q 364.787197 114.078253 365.282197 113.438253 
Q 365.779697 112.798253 366.934697 112.265753 
Q 365.677197 111.305753 365.322197 110.695753 
Q 364.967197 110.085753 364.967197 109.280753 
Q 364.967197 108.218253 365.869697 107.410753 
Q 366.772197 106.603253 368.342197 106.603253 
Q 369.857197 106.603253 370.672197 107.318253 
Q 371.489697 108.030753 371.489697 109.030753 
Q 371.489697 109.780753 371.047197 110.355753 
Q 370.607197 110.930753 369.677197 111.390753 
z
M 369.084697 110.993253 
Q 369.372197 110.603253 369.512197 110.118253 
Q 369.654697 109.633253 369.654697 109.055753 
Q 369.654697 108.040753 369.217197 107.500753 
Q 368.889697 107.085753 368.309697 107.085753 
Q 367.787197 107.085753 367.419697 107.465753 
Q 367.052197 107.843253 367.052197 108.405753 
Q 367.052197 108.978253 367.462197 109.590753 
Q 367.872197 110.203253 369.084697 110.993253 
z
M 367.522197 112.640753 
Q 367.279697 112.860753 367.177197 113.040753 
Q 367.022197 113.313253 366.897197 113.838253 
Q 366.772197 114.360753 366.772197 114.930753 
Q 366.772197 115.665753 366.959697 116.160753 
Q 367.147197 116.655753 367.494697 116.875753 
Q 367.842197 117.093253 368.209697 117.093253 
Q 368.779697 117.093253 369.169697 116.675753 
Q 369.559697 116.258253 369.559697 115.530753 
Q 369.559697 114.015753 367.522197 112.640753 
z
M 374.224697 114.968253 
Q 374.772197 114.968253 375.149697 115.353253 
Q 375.529697 115.735753 375.529697 116.273253 
Q 375.529697 116.813253 375.147197 117.193253 
Q 374.764697 117.570753 374.224697 117.570753 
Q 373.684697 117.570753 373.304697 117.193253 
Q 372.927197 116.813253 372.927197 116.273253 
Q 372.927197 115.735753 373.304697 115.353253 
Q 373.684697 114.968253 374.224697 114.968253 
z
M 378.662197 106.780753 
L 383.622197 106.780753 
L 382.834697 108.798253 
L 378.662197 108.798253 
L 378.264697 109.853253 
Q 380.959697 109.953253 382.412197 111.195753 
Q 383.607197 112.218253 383.607197 113.743253 
Q 383.607197 114.718253 383.052197 115.653253 
Q 382.497197 116.585753 381.489697 117.090753 
Q 380.482197 117.595753 379.279697 117.595753 
Q 377.982197 117.595753 377.287197 117.110753 
Q 376.802197 116.765753 376.802197 116.328253 
Q 376.802197 115.993253 377.054697 115.735753 
Q 377.309697 115.478253 377.647197 115.478253 
Q 377.952197 115.478253 378.264697 115.603253 
Q 378.577197 115.728253 379.334697 116.258253 
Q 379.809697 116.585753 380.154697 116.710753 
Q 380.397197 116.805753 380.702197 116.805753 
Q 381.342197 116.805753 381.789697 116.338253 
Q 382.239697 115.868253 382.239697 115.210753 
Q 382.239697 113.835753 380.864697 112.978253 
Q 379.489697 112.118253 377.397197 112.118253 
Q 377.184697 112.118253 376.764697 112.125753 
L 378.662197 106.780753 
z
" style="stroke: #ffffff; stroke-width: 3.8"/>
    <path d="M 363.739697 106.563253 
L 363.739697 106.780753 
Q 362.327197 107.140753 361.469697 107.708253 
Q 360.614697 108.273253 360.117197 109.083253 
Q 359.622197 109.890753 359.349697 111.085753 
Q 359.694697 110.853253 359.919697 110.780753 
Q 360.427197 110.625753 360.944697 110.625753 
Q 362.132197 110.625753 362.924697 111.490753 
Q 363.717197 112.353253 363.717197 113.843253 
Q 363.717197 114.890753 363.287197 115.765753 
Q 362.857197 116.640753 362.067197 117.118253 
Q 361.279697 117.595753 360.382197 117.595753 
Q 359.404697 117.595753 358.574697 117.060753 
Q 357.747197 116.523253 357.282197 115.493253 
Q 356.819697 114.460753 356.819697 113.250753 
Q 356.819697 111.468253 357.674697 109.933253 
Q 358.529697 108.398253 360.102197 107.488253 
Q 361.677197 106.578253 363.739697 106.563253 
z
M 359.247197 111.718253 
Q 359.184697 112.798253 359.184697 113.298253 
Q 359.184697 114.375753 359.392197 115.383253 
Q 359.599697 116.390753 359.959697 116.798253 
Q 360.217197 117.085753 360.569697 117.085753 
Q 360.927197 117.085753 361.207197 116.668253 
Q 361.489697 116.250753 361.489697 114.968253 
Q 361.489697 112.813253 360.967197 111.993253 
Q 360.632197 111.460753 360.059697 111.460753 
Q 359.747197 111.460753 359.247197 111.718253 
z
M 369.677197 111.390753 
Q 370.794697 112.210753 371.227197 112.918253 
Q 371.662197 113.625753 371.662197 114.540753 
Q 371.662197 115.820753 370.697197 116.708253 
Q 369.732197 117.595753 368.077197 117.595753 
Q 366.507197 117.595753 365.647197 116.823253 
Q 364.787197 116.048253 364.787197 114.930753 
Q 364.787197 114.078253 365.282197 113.438253 
Q 365.779697 112.798253 366.934697 112.265753 
Q 365.677197 111.305753 365.322197 110.695753 
Q 364.967197 110.085753 364.967197 109.280753 
Q 364.967197 108.218253 365.869697 107.410753 
Q 366.772197 106.603253 368.342197 106.603253 
Q 369.857197 106.603253 370.672197 107.318253 
Q 371.489697 108.030753 371.489697 109.030753 
Q 371.489697 109.780753 371.047197 110.355753 
Q 370.607197 110.930753 369.677197 111.390753 
z
M 369.084697 110.993253 
Q 369.372197 110.603253 369.512197 110.118253 
Q 369.654697 109.633253 369.654697 109.055753 
Q 369.654697 108.040753 369.217197 107.500753 
Q 368.889697 107.085753 368.309697 107.085753 
Q 367.787197 107.085753 367.419697 107.465753 
Q 367.052197 107.843253 367.052197 108.405753 
Q 367.052197 108.978253 367.462197 109.590753 
Q 367.872197 110.203253 369.084697 110.993253 
z
M 367.522197 112.640753 
Q 367.279697 112.860753 367.177197 113.040753 
Q 367.022197 113.313253 366.897197 113.838253 
Q 366.772197 114.360753 366.772197 114.930753 
Q 366.772197 115.665753 366.959697 116.160753 
Q 367.147197 116.655753 367.494697 116.875753 
Q 367.842197 117.093253 368.209697 117.093253 
Q 368.779697 117.093253 369.169697 116.675753 
Q 369.559697 116.258253 369.559697 115.530753 
Q 369.559697 114.015753 367.522197 112.640753 
z
M 374.224697 114.968253 
Q 374.772197 114.968253 375.149697 115.353253 
Q 375.529697 115.735753 375.529697 116.273253 
Q 375.529697 116.813253 375.147197 117.193253 
Q 374.764697 117.570753 374.224697 117.570753 
Q 373.684697 117.570753 373.304697 117.193253 
Q 372.927197 116.813253 372.927197 116.273253 
Q 372.927197 115.735753 373.304697 115.353253 
Q 373.684697 114.968253 374.224697 114.968253 
z
M 378.662197 106.780753 
L 383.622197 106.780753 
L 382.834697 108.798253 
L 378.662197 108.798253 
L 378.264697 109.853253 
Q 380.959697 109.953253 382.412197 111.195753 
Q 383.607197 112.218253 383.607197 113.743253 
Q 383.607197 114.718253 383.052197 115.653253 
Q 382.497197 116.585753 381.489697 117.090753 
Q 380.482197 117.595753 379.279697 117.595753 
Q 377.982197 117.595753 377.287197 117.110753 
Q 376.802197 116.765753 376.802197 116.328253 
Q 376.802197 115.993253 377.054697 115.735753 
Q 377.309697 115.478253 377.647197 115.478253 
Q 377.952197 115.478253 378.264697 115.603253 
Q 378.577197 115.728253 379.334697 116.258253 
Q 379.809697 116.585753 380.154697 116.710753 
Q 380.397197 116.805753 380.702197 116.805753 
Q 381.342197 116.805753 381.789697 116.338253 
Q 382.239697 115.868253 382.239697 115.210753 
Q 382.239697 113.835753 380.864697 112.978253 
Q 379.489697 112.118253 377.397197 112.118253 
Q 377.184697 112.118253 376.764697 112.125753 
L 378.662197 106.780753 
z
"/>
   </g>
   <g id="text_28">
    <path d="M 574.521172 207.252162 
L 574.521172 206.979662 
Q 575.411172 206.719662 575.753672 206.497162 
Q 576.098672 206.274662 576.348672 205.819662 
Q 576.598672 205.362162 576.598672 204.892162 
Q 576.598672 204.244662 576.126172 203.779662 
Q 575.653672 203.314662 574.951172 203.314662 
Q 573.856172 203.314662 573.091172 204.469662 
L 572.801172 204.369662 
Q 573.363672 203.064662 574.243672 202.409662 
Q 575.123672 201.752162 576.201172 201.752162 
Q 577.301172 201.752162 578.016172 202.424662 
Q 578.731172 203.094662 578.731172 203.994662 
Q 578.731172 204.579662 578.398672 205.124662 
Q 578.068672 205.667162 577.356172 206.079662 
Q 578.271172 206.524662 578.751172 207.177162 
Q 579.231172 207.829662 579.231172 208.814662 
Q 579.231172 210.469662 578.031172 211.632162 
Q 576.833672 212.792162 574.818672 212.792162 
Q 573.473672 212.792162 572.856172 212.344662 
Q 572.411172 212.032162 572.411172 211.542162 
Q 572.411172 211.182162 572.668672 210.929662 
Q 572.926172 210.674662 573.263672 210.674662 
Q 573.521172 210.674662 573.748672 210.782162 
Q 573.873672 210.844662 574.633672 211.467162 
Q 575.396172 212.087162 576.061172 212.087162 
Q 576.638672 212.087162 577.051172 211.632162 
Q 577.466172 211.174662 577.466172 210.469662 
Q 577.466172 209.399662 576.716172 208.497162 
Q 575.966172 207.594662 574.521172 207.252162 
z
M 587.668672 201.752162 
L 587.668672 201.969662 
Q 586.256172 202.329662 585.398672 202.897162 
Q 584.543672 203.462162 584.046172 204.272162 
Q 583.551172 205.079662 583.278672 206.274662 
Q 583.623672 206.042162 583.848672 205.969662 
Q 584.356172 205.814662 584.873672 205.814662 
Q 586.061172 205.814662 586.853672 206.679662 
Q 587.646172 207.542162 587.646172 209.032162 
Q 587.646172 210.079662 587.216172 210.954662 
Q 586.786172 211.829662 585.996172 212.307162 
Q 585.208672 212.784662 584.311172 212.784662 
Q 583.333672 212.784662 582.503672 212.249662 
Q 581.676172 211.712162 581.211172 210.682162 
Q 580.748672 209.649662 580.748672 208.439662 
Q 580.748672 206.657162 581.603672 205.122162 
Q 582.458672 203.587162 584.031172 202.677162 
Q 585.606172 201.767162 587.668672 201.752162 
z
M 583.176172 206.907162 
Q 583.113672 207.987162 583.113672 208.487162 
Q 583.113672 209.564662 583.321172 210.572162 
Q 583.528672 211.579662 583.888672 211.987162 
Q 584.146172 212.274662 584.498672 212.274662 
Q 584.856172 212.274662 585.136172 211.857162 
Q 585.418672 211.439662 585.418672 210.157162 
Q 585.418672 208.002162 584.896172 207.182162 
Q 584.561172 206.649662 583.988672 206.649662 
Q 583.676172 206.649662 583.176172 206.907162 
z
M 590.153672 210.157162 
Q 590.701172 210.157162 591.078672 210.542162 
Q 591.458672 210.924662 591.458672 211.462162 
Q 591.458672 212.002162 591.076172 212.382162 
Q 590.693672 212.759662 590.153672 212.759662 
Q 589.613672 212.759662 589.233672 212.382162 
Q 588.856172 212.002162 588.856172 211.462162 
Q 588.856172 210.924662 589.233672 210.542162 
Q 589.613672 210.157162 590.153672 210.157162 
z
M 592.551172 208.572162 
L 597.583672 201.752162 
L 598.536172 201.752162 
L 598.536172 208.572162 
L 599.506172 208.572162 
L 599.506172 210.189662 
L 598.536172 210.189662 
L 598.536172 212.564662 
L 596.388672 212.564662 
L 596.388672 210.189662 
L 592.551172 210.189662 
L 592.551172 208.572162 
z
M 593.311172 208.572162 
L 596.388672 208.572162 
L 596.388672 204.392162 
L 593.311172 208.572162 
z
" style="stroke: #ffffff; stroke-width: 3.8"/>
    <path d="M 574.521172 207.252162 
L 574.521172 206.979662 
Q 575.411172 206.719662 575.753672 206.497162 
Q 576.098672 206.274662 576.348672 205.819662 
Q 576.598672 205.362162 576.598672 204.892162 
Q 576.598672 204.244662 576.126172 203.779662 
Q 575.653672 203.314662 574.951172 203.314662 
Q 573.856172 203.314662 573.091172 204.469662 
L 572.801172 204.369662 
Q 573.363672 203.064662 574.243672 202.409662 
Q 575.123672 201.752162 576.201172 201.752162 
Q 577.301172 201.752162 578.016172 202.424662 
Q 578.731172 203.094662 578.731172 203.994662 
Q 578.731172 204.579662 578.398672 205.124662 
Q 578.068672 205.667162 577.356172 206.079662 
Q 578.271172 206.524662 578.751172 207.177162 
Q 579.231172 207.829662 579.231172 208.814662 
Q 579.231172 210.469662 578.031172 211.632162 
Q 576.833672 212.792162 574.818672 212.792162 
Q 573.473672 212.792162 572.856172 212.344662 
Q 572.411172 212.032162 572.411172 211.542162 
Q 572.411172 211.182162 572.668672 210.929662 
Q 572.926172 210.674662 573.263672 210.674662 
Q 573.521172 210.674662 573.748672 210.782162 
Q 573.873672 210.844662 574.633672 211.467162 
Q 575.396172 212.087162 576.061172 212.087162 
Q 576.638672 212.087162 577.051172 211.632162 
Q 577.466172 211.174662 577.466172 210.469662 
Q 577.466172 209.399662 576.716172 208.497162 
Q 575.966172 207.594662 574.521172 207.252162 
z
M 587.668672 201.752162 
L 587.668672 201.969662 
Q 586.256172 202.329662 585.398672 202.897162 
Q 584.543672 203.462162 584.046172 204.272162 
Q 583.551172 205.079662 583.278672 206.274662 
Q 583.623672 206.042162 583.848672 205.969662 
Q 584.356172 205.814662 584.873672 205.814662 
Q 586.061172 205.814662 586.853672 206.679662 
Q 587.646172 207.542162 587.646172 209.032162 
Q 587.646172 210.079662 587.216172 210.954662 
Q 586.786172 211.829662 585.996172 212.307162 
Q 585.208672 212.784662 584.311172 212.784662 
Q 583.333672 212.784662 582.503672 212.249662 
Q 581.676172 211.712162 581.211172 210.682162 
Q 580.748672 209.649662 580.748672 208.439662 
Q 580.748672 206.657162 581.603672 205.122162 
Q 582.458672 203.587162 584.031172 202.677162 
Q 585.606172 201.767162 587.668672 201.752162 
z
M 583.176172 206.907162 
Q 583.113672 207.987162 583.113672 208.487162 
Q 583.113672 209.564662 583.321172 210.572162 
Q 583.528672 211.579662 583.888672 211.987162 
Q 584.146172 212.274662 584.498672 212.274662 
Q 584.856172 212.274662 585.136172 211.857162 
Q 585.418672 211.439662 585.418672 210.157162 
Q 585.418672 208.002162 584.896172 207.182162 
Q 584.561172 206.649662 583.988672 206.649662 
Q 583.676172 206.649662 583.176172 206.907162 
z
M 590.153672 210.157162 
Q 590.701172 210.157162 591.078672 210.542162 
Q 591.458672 210.924662 591.458672 211.462162 
Q 591.458672 212.002162 591.076172 212.382162 
Q 590.693672 212.759662 590.153672 212.759662 
Q 589.613672 212.759662 589.233672 212.382162 
Q 588.856172 212.002162 588.856172 211.462162 
Q 588.856172 210.924662 589.233672 210.542162 
Q 589.613672 210.157162 590.153672 210.157162 
z
M 592.551172 208.572162 
L 597.583672 201.752162 
L 598.536172 201.752162 
L 598.536172 208.572162 
L 599.506172 208.572162 
L 599.506172 210.189662 
L 598.536172 210.189662 
L 598.536172 212.564662 
L 596.388672 212.564662 
L 596.388672 210.189662 
L 592.551172 210.189662 
L 592.551172 208.572162 
z
M 593.311172 208.572162 
L 596.388672 208.572162 
L 596.388672 204.392162 
L 593.311172 208.572162 
z
"/>
   </g>
   <g id="text_29">
    <path d="M 564.565823 363.318569 
L 564.565823 371.442006 
Q 564.565823 372.356069 564.645511 372.609194 
Q 564.727542 372.862319 564.983011 373.024037 
Q 565.240823 373.183412 565.805667 373.183412 
L 566.030667 373.183412 
L 566.030667 373.455287 
L 560.801761 373.455287 
L 560.801761 373.183412 
L 561.066605 373.183412 
Q 561.704105 373.183412 561.973636 373.0381 
Q 562.245511 372.890444 562.339261 372.634975 
Q 562.435355 372.379506 562.435355 371.442006 
L 562.435355 366.292787 
Q 562.435355 365.603725 562.36973 365.432631 
Q 562.304105 365.259194 562.123636 365.139662 
Q 561.945511 365.017787 561.711136 365.017787 
Q 561.336136 365.017787 560.801761 365.252162 
L 560.670511 364.987319 
L 564.324417 363.318569 
L 564.565823 363.318569 
z
M 569.056448 371.198256 
Q 569.56973 371.198256 569.923636 371.559194 
Q 570.279886 371.917787 570.279886 372.421694 
Q 570.279886 372.927944 569.921292 373.284194 
Q 569.562698 373.6381 569.056448 373.6381 
Q 568.550198 373.6381 568.193948 373.284194 
Q 567.840042 372.927944 567.840042 372.421694 
Q 567.840042 371.917787 568.193948 371.559194 
Q 568.550198 371.198256 569.056448 371.198256 
z
M 575.815823 363.318569 
L 575.815823 371.442006 
Q 575.815823 372.356069 575.895511 372.609194 
Q 575.977542 372.862319 576.233011 373.024037 
Q 576.490823 373.183412 577.055667 373.183412 
L 577.280667 373.183412 
L 577.280667 373.455287 
L 572.051761 373.455287 
L 572.051761 373.183412 
L 572.316605 373.183412 
Q 572.954105 373.183412 573.223636 373.0381 
Q 573.495511 372.890444 573.589261 372.634975 
Q 573.685355 372.379506 573.685355 371.442006 
L 573.685355 366.292787 
Q 573.685355 365.603725 573.61973 365.432631 
Q 573.554105 365.259194 573.373636 365.139662 
Q 573.195511 365.017787 572.961136 365.017787 
Q 572.586136 365.017787 572.051761 365.252162 
L 571.920511 364.987319 
L 575.574417 363.318569 
L 575.815823 363.318569 
z
" style="fill: #404040; stroke: #ffffff; stroke-width: 3.8"/>
    <path d="M 564.565823 363.318569 
L 564.565823 371.442006 
Q 564.565823 372.356069 564.645511 372.609194 
Q 564.727542 372.862319 564.983011 373.024037 
Q 565.240823 373.183412 565.805667 373.183412 
L 566.030667 373.183412 
L 566.030667 373.455287 
L 560.801761 373.455287 
L 560.801761 373.183412 
L 561.066605 373.183412 
Q 561.704105 373.183412 561.973636 373.0381 
Q 562.245511 372.890444 562.339261 372.634975 
Q 562.435355 372.379506 562.435355 371.442006 
L 562.435355 366.292787 
Q 562.435355 365.603725 562.36973 365.432631 
Q 562.304105 365.259194 562.123636 365.139662 
Q 561.945511 365.017787 561.711136 365.017787 
Q 561.336136 365.017787 560.801761 365.252162 
L 560.670511 364.987319 
L 564.324417 363.318569 
L 564.565823 363.318569 
z
M 569.056448 371.198256 
Q 569.56973 371.198256 569.923636 371.559194 
Q 570.279886 371.917787 570.279886 372.421694 
Q 570.279886 372.927944 569.921292 373.284194 
Q 569.562698 373.6381 569.056448 373.6381 
Q 568.550198 373.6381 568.193948 373.284194 
Q 567.840042 372.927944 567.840042 372.421694 
Q 567.840042 371.917787 568.193948 371.559194 
Q 568.550198 371.198256 569.056448 371.198256 
z
M 575.815823 363.318569 
L 575.815823 371.442006 
Q 575.815823 372.356069 575.895511 372.609194 
Q 575.977542 372.862319 576.233011 373.024037 
Q 576.490823 373.183412 577.055667 373.183412 
L 577.280667 373.183412 
L 577.280667 373.455287 
L 572.051761 373.455287 
L 572.051761 373.183412 
L 572.316605 373.183412 
Q 572.954105 373.183412 573.223636 373.0381 
Q 573.495511 372.890444 573.589261 372.634975 
Q 573.685355 372.379506 573.685355 371.442006 
L 573.685355 366.292787 
Q 573.685355 365.603725 573.61973 365.432631 
Q 573.554105 365.259194 573.373636 365.139662 
Q 573.195511 365.017787 572.961136 365.017787 
Q 572.586136 365.017787 572.051761 365.252162 
L 571.920511 364.987319 
L 575.574417 363.318569 
L 575.815823 363.318569 
z
" style="fill: #404040"/>
   </g>
   <g id="text_30">
    <path d="M 568.961768 312.732471 
L 563.116455 312.732471 
L 563.116455 312.570752 
Q 565.804736 309.371534 566.378955 308.265284 
Q 566.955518 307.159034 566.955518 306.104346 
Q 566.955518 305.335596 566.479736 304.827002 
Q 566.003955 304.316065 565.314893 304.316065 
Q 564.187549 304.316065 563.564111 305.445752 
L 563.292236 305.349659 
Q 563.68833 303.943409 564.49458 303.270752 
Q 565.30083 302.595752 566.355518 302.595752 
Q 567.107861 302.595752 567.731299 302.947315 
Q 568.354736 303.298877 568.706299 303.910596 
Q 569.057861 304.522315 569.057861 305.05669 
Q 569.057861 306.03169 568.514111 307.034815 
Q 567.77583 308.389502 565.284424 310.81294 
L 567.431299 310.81294 
Q 568.221143 310.81294 568.460205 310.747315 
Q 568.699268 310.68169 568.851611 310.524659 
Q 569.006299 310.367627 569.254736 309.861377 
L 569.51958 309.861377 
L 568.961768 312.732471 
z
M 570.712549 312.938721 
L 570.712549 312.732471 
Q 571.928955 312.453565 572.775049 311.912159 
Q 573.621143 311.370752 574.11333 310.571534 
Q 574.607861 309.772315 574.80708 308.734034 
Q 574.352393 308.968409 574.033643 309.059815 
Q 573.714893 309.151221 573.36333 309.151221 
Q 572.235986 309.151221 571.483643 308.33794 
Q 570.733643 307.524659 570.733643 306.111377 
Q 570.733643 305.129346 571.139111 304.313721 
Q 571.546924 303.495752 572.301611 303.045752 
Q 573.056299 302.595752 573.86958 302.595752 
Q 574.741455 302.595752 575.517236 303.094971 
Q 576.293018 303.591846 576.754736 304.536377 
Q 577.216455 305.480909 577.216455 306.690284 
Q 577.216455 308.258252 576.464111 309.694971 
Q 575.714111 311.129346 574.228174 311.996534 
Q 572.742236 312.863721 570.712549 312.938721 
z
M 574.917236 308.117627 
Q 574.989893 307.297315 574.989893 306.676221 
Q 574.989893 305.342627 574.682861 304.191846 
Q 574.50708 303.554346 574.162549 303.254346 
Q 573.979736 303.092627 573.686768 303.092627 
Q 573.318799 303.092627 573.114893 303.409034 
Q 572.828955 303.840284 572.828955 305.05669 
Q 572.828955 307.086377 573.311768 307.855127 
Q 573.628174 308.352002 574.162549 308.352002 
Q 574.448486 308.352002 574.917236 308.117627 
z
M 579.62583 310.47544 
Q 580.139111 310.47544 580.493018 310.836377 
Q 580.849268 311.194971 580.849268 311.698877 
Q 580.849268 312.205127 580.490674 312.561377 
Q 580.13208 312.915284 579.62583 312.915284 
Q 579.11958 312.915284 578.76333 312.561377 
Q 578.409424 312.205127 578.409424 311.698877 
Q 578.409424 311.194971 578.76333 310.836377 
Q 579.11958 310.47544 579.62583 310.47544 
z
M 584.158643 312.938721 
L 586.86333 304.742627 
L 584.803174 304.742627 
Q 583.596143 304.742627 582.986768 305.05669 
Q 582.562549 305.277002 582.283643 305.884034 
L 582.00708 305.884034 
L 582.724268 302.799659 
L 588.642236 302.799659 
L 585.309424 312.938721 
L 584.158643 312.938721 
z
" style="fill: #404040; stroke: #ffffff; stroke-width: 3.8"/>
    <path d="M 568.961768 312.732471 
L 563.116455 312.732471 
L 563.116455 312.570752 
Q 565.804736 309.371534 566.378955 308.265284 
Q 566.955518 307.159034 566.955518 306.104346 
Q 566.955518 305.335596 566.479736 304.827002 
Q 566.003955 304.316065 565.314893 304.316065 
Q 564.187549 304.316065 563.564111 305.445752 
L 563.292236 305.349659 
Q 563.68833 303.943409 564.49458 303.270752 
Q 565.30083 302.595752 566.355518 302.595752 
Q 567.107861 302.595752 567.731299 302.947315 
Q 568.354736 303.298877 568.706299 303.910596 
Q 569.057861 304.522315 569.057861 305.05669 
Q 569.057861 306.03169 568.514111 307.034815 
Q 567.77583 308.389502 565.284424 310.81294 
L 567.431299 310.81294 
Q 568.221143 310.81294 568.460205 310.747315 
Q 568.699268 310.68169 568.851611 310.524659 
Q 569.006299 310.367627 569.254736 309.861377 
L 569.51958 309.861377 
L 568.961768 312.732471 
z
M 570.712549 312.938721 
L 570.712549 312.732471 
Q 571.928955 312.453565 572.775049 311.912159 
Q 573.621143 311.370752 574.11333 310.571534 
Q 574.607861 309.772315 574.80708 308.734034 
Q 574.352393 308.968409 574.033643 309.059815 
Q 573.714893 309.151221 573.36333 309.151221 
Q 572.235986 309.151221 571.483643 308.33794 
Q 570.733643 307.524659 570.733643 306.111377 
Q 570.733643 305.129346 571.139111 304.313721 
Q 571.546924 303.495752 572.301611 303.045752 
Q 573.056299 302.595752 573.86958 302.595752 
Q 574.741455 302.595752 575.517236 303.094971 
Q 576.293018 303.591846 576.754736 304.536377 
Q 577.216455 305.480909 577.216455 306.690284 
Q 577.216455 308.258252 576.464111 309.694971 
Q 575.714111 311.129346 574.228174 311.996534 
Q 572.742236 312.863721 570.712549 312.938721 
z
M 574.917236 308.117627 
Q 574.989893 307.297315 574.989893 306.676221 
Q 574.989893 305.342627 574.682861 304.191846 
Q 574.50708 303.554346 574.162549 303.254346 
Q 573.979736 303.092627 573.686768 303.092627 
Q 573.318799 303.092627 573.114893 303.409034 
Q 572.828955 303.840284 572.828955 305.05669 
Q 572.828955 307.086377 573.311768 307.855127 
Q 573.628174 308.352002 574.162549 308.352002 
Q 574.448486 308.352002 574.917236 308.117627 
z
M 579.62583 310.47544 
Q 580.139111 310.47544 580.493018 310.836377 
Q 580.849268 311.194971 580.849268 311.698877 
Q 580.849268 312.205127 580.490674 312.561377 
Q 580.13208 312.915284 579.62583 312.915284 
Q 579.11958 312.915284 578.76333 312.561377 
Q 578.409424 312.205127 578.409424 311.698877 
Q 578.409424 311.194971 578.76333 310.836377 
Q 579.11958 310.47544 579.62583 310.47544 
z
M 584.158643 312.938721 
L 586.86333 304.742627 
L 584.803174 304.742627 
Q 583.596143 304.742627 582.986768 305.05669 
Q 582.562549 305.277002 582.283643 305.884034 
L 582.00708 305.884034 
L 582.724268 302.799659 
L 588.642236 302.799659 
L 585.309424 312.938721 
L 584.158643 312.938721 
z
" style="fill: #404040"/>
   </g>
   <g id="text_31">
    <path d="M 537.055631 280.271689 
Q 537.055631 281.75997 536.638443 283.049033 
Q 536.387662 283.838876 535.965787 284.345126 
Q 535.546256 284.849033 535.011881 285.146689 
Q 534.477506 285.444345 533.847037 285.444345 
Q 533.12985 285.444345 532.550943 285.07872 
Q 531.972037 284.710751 531.524381 284.02872 
Q 531.203287 283.531845 530.961881 282.704501 
Q 530.645475 281.584189 530.645475 280.388876 
Q 530.645475 278.771689 531.100162 277.414658 
Q 531.472818 276.294345 532.234537 275.699033 
Q 532.996256 275.101376 533.847037 275.101376 
Q 534.711881 275.101376 535.461881 275.692001 
Q 536.211881 276.280283 536.563443 277.276376 
Q 537.055631 278.645126 537.055631 280.271689 
z
M 534.7986 280.257626 
Q 534.7986 277.649033 534.770475 277.217783 
Q 534.695475 276.200595 534.418912 275.842001 
Q 534.2361 275.607626 533.825943 275.607626 
Q 533.509537 275.607626 533.326725 275.783408 
Q 533.05485 276.038876 532.958756 276.688095 
Q 532.865006 277.33497 532.865006 281.209189 
Q 532.865006 283.318564 533.012662 284.035751 
Q 533.122818 284.556064 533.326725 284.731845 
Q 533.532975 284.907626 533.868131 284.907626 
Q 534.2361 284.907626 534.418912 284.673251 
Q 534.725943 284.263095 534.770475 283.407626 
L 534.7986 280.257626 
z
M 539.479068 282.981064 
Q 539.99235 282.981064 540.346256 283.342001 
Q 540.702506 283.700595 540.702506 284.204501 
Q 540.702506 284.710751 540.343912 285.067001 
Q 539.985318 285.420908 539.479068 285.420908 
Q 538.972818 285.420908 538.616568 285.067001 
Q 538.262662 284.710751 538.262662 284.204501 
Q 538.262662 283.700595 538.616568 283.342001 
Q 538.972818 282.981064 539.479068 282.981064 
z
M 546.238443 275.101376 
L 546.238443 283.224814 
Q 546.238443 284.138876 546.318131 284.392001 
Q 546.400162 284.645126 546.655631 284.806845 
Q 546.913443 284.96622 547.478287 284.96622 
L 547.703287 284.96622 
L 547.703287 285.238095 
L 542.474381 285.238095 
L 542.474381 284.96622 
L 542.739225 284.96622 
Q 543.376725 284.96622 543.646256 284.820908 
Q 543.918131 284.673251 544.011881 284.417783 
Q 544.107975 284.162314 544.107975 283.224814 
L 544.107975 278.075595 
Q 544.107975 277.386533 544.04235 277.215439 
Q 543.976725 277.042001 543.796256 276.92247 
Q 543.618131 276.800595 543.383756 276.800595 
Q 543.008756 276.800595 542.474381 277.03497 
L 542.343131 276.770126 
L 545.997037 275.101376 
L 546.238443 275.101376 
z
" style="fill: #404040; stroke: #ffffff; stroke-width: 3.8"/>
    <path d="M 537.055631 280.271689 
Q 537.055631 281.75997 536.638443 283.049033 
Q 536.387662 283.838876 535.965787 284.345126 
Q 535.546256 284.849033 535.011881 285.146689 
Q 534.477506 285.444345 533.847037 285.444345 
Q 533.12985 285.444345 532.550943 285.07872 
Q 531.972037 284.710751 531.524381 284.02872 
Q 531.203287 283.531845 530.961881 282.704501 
Q 530.645475 281.584189 530.645475 280.388876 
Q 530.645475 278.771689 531.100162 277.414658 
Q 531.472818 276.294345 532.234537 275.699033 
Q 532.996256 275.101376 533.847037 275.101376 
Q 534.711881 275.101376 535.461881 275.692001 
Q 536.211881 276.280283 536.563443 277.276376 
Q 537.055631 278.645126 537.055631 280.271689 
z
M 534.7986 280.257626 
Q 534.7986 277.649033 534.770475 277.217783 
Q 534.695475 276.200595 534.418912 275.842001 
Q 534.2361 275.607626 533.825943 275.607626 
Q 533.509537 275.607626 533.326725 275.783408 
Q 533.05485 276.038876 532.958756 276.688095 
Q 532.865006 277.33497 532.865006 281.209189 
Q 532.865006 283.318564 533.012662 284.035751 
Q 533.122818 284.556064 533.326725 284.731845 
Q 533.532975 284.907626 533.868131 284.907626 
Q 534.2361 284.907626 534.418912 284.673251 
Q 534.725943 284.263095 534.770475 283.407626 
L 534.7986 280.257626 
z
M 539.479068 282.981064 
Q 539.99235 282.981064 540.346256 283.342001 
Q 540.702506 283.700595 540.702506 284.204501 
Q 540.702506 284.710751 540.343912 285.067001 
Q 539.985318 285.420908 539.479068 285.420908 
Q 538.972818 285.420908 538.616568 285.067001 
Q 538.262662 284.710751 538.262662 284.204501 
Q 538.262662 283.700595 538.616568 283.342001 
Q 538.972818 282.981064 539.479068 282.981064 
z
M 546.238443 275.101376 
L 546.238443 283.224814 
Q 546.238443 284.138876 546.318131 284.392001 
Q 546.400162 284.645126 546.655631 284.806845 
Q 546.913443 284.96622 547.478287 284.96622 
L 547.703287 284.96622 
L 547.703287 285.238095 
L 542.474381 285.238095 
L 542.474381 284.96622 
L 542.739225 284.96622 
Q 543.376725 284.96622 543.646256 284.820908 
Q 543.918131 284.673251 544.011881 284.417783 
Q 544.107975 284.162314 544.107975 283.224814 
L 544.107975 278.075595 
Q 544.107975 277.386533 544.04235 277.215439 
Q 543.976725 277.042001 543.796256 276.92247 
Q 543.618131 276.800595 543.383756 276.800595 
Q 543.008756 276.800595 542.474381 277.03497 
L 542.343131 276.770126 
L 545.997037 275.101376 
L 546.238443 275.101376 
z
" style="fill: #404040"/>
   </g>
   <g id="text_32">
    <path d="M 319.944086 339.71546 
L 324.662054 333.32171 
L 325.555023 333.32171 
L 325.555023 339.71546 
L 326.464398 339.71546 
L 326.464398 341.231866 
L 325.555023 341.231866 
L 325.555023 343.458429 
L 323.541742 343.458429 
L 323.541742 341.231866 
L 319.944086 341.231866 
L 319.944086 339.71546 
z
M 320.656586 339.71546 
L 323.541742 339.71546 
L 323.541742 335.79671 
L 320.656586 339.71546 
z
M 331.955804 333.32171 
L 331.955804 341.445148 
Q 331.955804 342.35921 332.035492 342.612335 
Q 332.117523 342.86546 332.372992 343.027179 
Q 332.630804 343.186554 333.195648 343.186554 
L 333.420648 343.186554 
L 333.420648 343.458429 
L 328.191742 343.458429 
L 328.191742 343.186554 
L 328.456586 343.186554 
Q 329.094086 343.186554 329.363617 343.041241 
Q 329.635492 342.893585 329.729242 342.638116 
Q 329.825336 342.382648 329.825336 341.445148 
L 329.825336 336.295929 
Q 329.825336 335.606866 329.759711 335.435773 
Q 329.694086 335.262335 329.513617 335.142804 
Q 329.335492 335.020929 329.101117 335.020929 
Q 328.726117 335.020929 328.191742 335.255304 
L 328.060492 334.99046 
L 331.714398 333.32171 
L 331.955804 333.32171 
z
M 336.446429 341.201398 
Q 336.959711 341.201398 337.313617 341.562335 
Q 337.669867 341.920929 337.669867 342.424835 
Q 337.669867 342.931085 337.311273 343.287335 
Q 336.952679 343.641241 336.446429 343.641241 
Q 335.940179 343.641241 335.583929 343.287335 
Q 335.230023 342.931085 335.230023 342.424835 
Q 335.230023 341.920929 335.583929 341.562335 
Q 335.940179 341.201398 336.446429 341.201398 
z
M 344.532367 343.458429 
L 338.687054 343.458429 
L 338.687054 343.29671 
Q 341.375336 340.097491 341.949554 338.991241 
Q 342.526117 337.884991 342.526117 336.830304 
Q 342.526117 336.061554 342.050336 335.55296 
Q 341.574554 335.042023 340.885492 335.042023 
Q 339.758148 335.042023 339.134711 336.17171 
L 338.862836 336.075616 
Q 339.258929 334.669366 340.065179 333.99671 
Q 340.871429 333.32171 341.926117 333.32171 
Q 342.678461 333.32171 343.301898 333.673273 
Q 343.925336 334.024835 344.276898 334.636554 
Q 344.628461 335.248273 344.628461 335.782648 
Q 344.628461 336.757648 344.084711 337.760773 
Q 343.346429 339.11546 340.855023 341.538898 
L 343.001898 341.538898 
Q 343.791742 341.538898 344.030804 341.473273 
Q 344.269867 341.407648 344.422211 341.250616 
Q 344.576898 341.093585 344.825336 340.587335 
L 345.090179 340.587335 
L 344.532367 343.458429 
z
" style="fill: #404040; stroke: #ffffff; stroke-width: 3.8"/>
    <path d="M 319.944086 339.71546 
L 324.662054 333.32171 
L 325.555023 333.32171 
L 325.555023 339.71546 
L 326.464398 339.71546 
L 326.464398 341.231866 
L 325.555023 341.231866 
L 325.555023 343.458429 
L 323.541742 343.458429 
L 323.541742 341.231866 
L 319.944086 341.231866 
L 319.944086 339.71546 
z
M 320.656586 339.71546 
L 323.541742 339.71546 
L 323.541742 335.79671 
L 320.656586 339.71546 
z
M 331.955804 333.32171 
L 331.955804 341.445148 
Q 331.955804 342.35921 332.035492 342.612335 
Q 332.117523 342.86546 332.372992 343.027179 
Q 332.630804 343.186554 333.195648 343.186554 
L 333.420648 343.186554 
L 333.420648 343.458429 
L 328.191742 343.458429 
L 328.191742 343.186554 
L 328.456586 343.186554 
Q 329.094086 343.186554 329.363617 343.041241 
Q 329.635492 342.893585 329.729242 342.638116 
Q 329.825336 342.382648 329.825336 341.445148 
L 329.825336 336.295929 
Q 329.825336 335.606866 329.759711 335.435773 
Q 329.694086 335.262335 329.513617 335.142804 
Q 329.335492 335.020929 329.101117 335.020929 
Q 328.726117 335.020929 328.191742 335.255304 
L 328.060492 334.99046 
L 331.714398 333.32171 
L 331.955804 333.32171 
z
M 336.446429 341.201398 
Q 336.959711 341.201398 337.313617 341.562335 
Q 337.669867 341.920929 337.669867 342.424835 
Q 337.669867 342.931085 337.311273 343.287335 
Q 336.952679 343.641241 336.446429 343.641241 
Q 335.940179 343.641241 335.583929 343.287335 
Q 335.230023 342.931085 335.230023 342.424835 
Q 335.230023 341.920929 335.583929 341.562335 
Q 335.940179 341.201398 336.446429 341.201398 
z
M 344.532367 343.458429 
L 338.687054 343.458429 
L 338.687054 343.29671 
Q 341.375336 340.097491 341.949554 338.991241 
Q 342.526117 337.884991 342.526117 336.830304 
Q 342.526117 336.061554 342.050336 335.55296 
Q 341.574554 335.042023 340.885492 335.042023 
Q 339.758148 335.042023 339.134711 336.17171 
L 338.862836 336.075616 
Q 339.258929 334.669366 340.065179 333.99671 
Q 340.871429 333.32171 341.926117 333.32171 
Q 342.678461 333.32171 343.301898 333.673273 
Q 343.925336 334.024835 344.276898 334.636554 
Q 344.628461 335.248273 344.628461 335.782648 
Q 344.628461 336.757648 344.084711 337.760773 
Q 343.346429 339.11546 340.855023 341.538898 
L 343.001898 341.538898 
Q 343.791742 341.538898 344.030804 341.473273 
Q 344.269867 341.407648 344.422211 341.250616 
Q 344.576898 341.093585 344.825336 340.587335 
L 345.090179 340.587335 
L 344.532367 343.458429 
z
" style="fill: #404040"/>
   </g>
  </g>
 </g>
 <defs>
  <clipPath id="p593c219309">
   <rect x="7.2" y="51.034687" width="730.764" height="431.819207"/>
  </clipPath>
 </defs>
</svg>
