<?xml version="1.0" encoding="utf-8" standalone="no"?>
<!DOCTYPE svg PUBLIC "-//W3C//DTD SVG 1.1//EN"
  "http://www.w3.org/Graphics/SVG/1.1/DTD/svg11.dtd">
<svg xmlns:xlink="http://www.w3.org/1999/xlink" width="745.164pt" height="496.346002pt" viewBox="0 0 745.164 496.346002" xmlns="http://www.w3.org/2000/svg" version="1.1">
 <metadata>
  <rdf:RDF xmlns:dc="http://purl.org/dc/elements/1.1/" xmlns:cc="http://creativecommons.org/ns#" xmlns:rdf="http://www.w3.org/1999/02/22-rdf-syntax-ns#">
   <cc:Work>
    <dc:type rdf:resource="http://purl.org/dc/dcmitype/StillImage"/>
    <dc:date>2026-07-13T16:58:50.276072</dc:date>
    <dc:format>image/svg+xml</dc:format>
    <dc:creator>
     <cc:Agent>
      <dc:title>Matplotlib v3.10.8, https://matplotlib.org/</dc:title>
     </cc:Agent>
    </dc:creator>
   </cc:Work>
  </rdf:RDF>
 </metadata>
 <defs>
  <style type="text/css">*{stroke-linejoin: round; stroke-linecap: butt}</style>
 </defs>
 <g id="figure_1">
  <g id="patch_1">
   <path d="M 0 496.346002 
L 745.164 496.346002 
L 745.164 0 
L 0 0 
L 0 496.346002 
z
" style="fill: none"/>
  </g>
  <g id="axes_1">
   <g id="patch_2">
    <path d="M 120.350555 414.750909 
Q 120.350555 446.910916 120.350555 476.776958 
" clip-path="url(#p8498e3acb8)" style="fill: none; stroke: #111111; stroke-width: 2.051785; stroke-linejoin: miter; stroke-linecap: round"/>
    <path d="M 123.951126 469.575816 
L 120.350555 476.776958 
L 116.749984 469.575816 
z
" clip-path="url(#p8498e3acb8)" style="fill: #111111; stroke: #111111; stroke-width: 2.051785; stroke-linejoin: miter; stroke-linecap: round"/>
   </g>
   <g id="patch_3">
    <path d="M 120.350555 292.540031 
Q 120.350555 319.412867 120.350555 342.551694 
" clip-path="url(#p8498e3acb8)" style="fill: none; stroke: #111111; stroke-width: 3.339799; stroke-linejoin: miter; stroke-linecap: round"/>
    <path d="M 124.363291 334.526222 
L 120.350555 342.551694 
L 116.337819 334.526222 
z
" clip-path="url(#p8498e3acb8)" style="fill: #111111; stroke: #111111; stroke-width: 3.339799; stroke-linejoin: miter; stroke-linecap: round"/>
   </g>
   <g id="patch_4">
    <path d="M 120.350555 192.459617 
Q 120.350555 213.554392 120.350555 228.826512 
" clip-path="url(#p8498e3acb8)" style="fill: none; stroke: #111111; stroke-width: 5.20794; stroke-linejoin: miter; stroke-linecap: round"/>
    <path d="M 124.961096 219.60543 
L 120.350555 228.826512 
L 115.740014 219.60543 
z
" clip-path="url(#p8498e3acb8)" style="fill: #111111; stroke: #111111; stroke-width: 5.20794; stroke-linejoin: miter; stroke-linecap: round"/>
   </g>
   <g id="patch_5">
    <path d="M 370.224697 260.521817 
Q 370.224697 279.573856 370.224697 295.502589 
" clip-path="url(#p8498e3acb8)" style="fill: none; stroke: #111111; stroke-width: 2.79357; stroke-linejoin: miter; stroke-linecap: round"/>
    <path d="M 374.062639 287.826704 
L 370.224697 295.502589 
L 366.386754 287.826704 
z
" clip-path="url(#p8498e3acb8)" style="fill: #111111; stroke: #111111; stroke-width: 2.79357; stroke-linejoin: miter; stroke-linecap: round"/>
   </g>
   <g id="patch_6">
    <path d="M 370.224697 181.519416 
Q 370.224697 199.895981 370.224697 213.423143 
" clip-path="url(#p8498e3acb8)" style="fill: none; stroke: #111111; stroke-width: 4.337437; stroke-linejoin: miter; stroke-linecap: round"/>
    <path d="M 374.556677 204.759183 
L 370.224697 213.423143 
L 365.892717 204.759183 
z
" clip-path="url(#p8498e3acb8)" style="fill: #111111; stroke: #111111; stroke-width: 4.337437; stroke-linejoin: miter; stroke-linecap: round"/>
   </g>
   <g id="patch_7">
    <path d="M 370.224697 106.900783 
Q 370.224697 123.760939 370.224697 134.136498 
" clip-path="url(#p8498e3acb8)" style="fill: none; stroke: #111111; stroke-width: 5.8; stroke-linejoin: miter; stroke-linecap: round"/>
    <path d="M 375.024697 124.536498 
L 370.224697 134.136498 
L 365.424697 124.536498 
z
" clip-path="url(#p8498e3acb8)" style="fill: #111111; stroke: #111111; stroke-width: 5.8; stroke-linejoin: miter; stroke-linecap: round"/>
   </g>
   <g id="patch_8">
    <path d="M 586.153672 198.080228 
Q 586.153672 218.480661 586.153672 234.36686 
" clip-path="url(#p8498e3acb8)" style="fill: none; stroke: #111111; stroke-width: 4.037653; stroke-linejoin: miter; stroke-linecap: round"/>
    <path d="M 590.389721 225.894762 
L 586.153672 234.36686 
L 581.917623 225.894762 
z
" clip-path="url(#p8498e3acb8)" style="fill: #111111; stroke: #111111; stroke-width: 4.037653; stroke-linejoin: miter; stroke-linecap: round"/>
   </g>
   <g id="line2d_1">
    <path d="M 165.610777 479.070923 
L 550.322663 479.070923 
" clip-path="url(#p8498e3acb8)" style="fill: none; stroke-dasharray: 5.6,4.2; stroke-dashoffset: 0; stroke: #404040; stroke-width: 1.4"/>
   </g>
   <g id="line2d_2">
    <path d="M 165.610777 346.285703 
L 550.322663 346.285703 
" clip-path="url(#p8498e3acb8)" style="fill: none; stroke-dasharray: 5.6,4.2; stroke-dashoffset: 0; stroke: #404040; stroke-width: 1.4"/>
   </g>
   <g id="line2d_3">
    <path d="M 415.484919 298.625895 
L 560.694797 298.625895 
" clip-path="url(#p8498e3acb8)" style="fill: none; stroke-dasharray: 5.6,4.2; stroke-dashoffset: 0; stroke: #404040; stroke-width: 1.4"/>
   </g>
   <g id="patch_9">
    <path d="M 665.359061 238.881093 
Q 568.36869 356.661557 471.987608 473.702129 
" clip-path="url(#p8498e3acb8)" style="fill: none; stroke: #404040; stroke-width: 0.857286; stroke-linejoin: miter; stroke-linecap: round"/>
    <path d="M 477.747923 471.141804 
L 471.987608 473.702129 
L 473.395537 467.557682 
z
" clip-path="url(#p8498e3acb8)" style="fill: #404040; stroke: #404040; stroke-width: 0.857286; stroke-linejoin: miter; stroke-linecap: round"/>
   </g>
   <g id="patch_10">
    <path d="M 620.098839 238.881093 
Q 577.782785 290.267683 537.568058 339.102523 
" clip-path="url(#p8498e3acb8)" style="fill: none; stroke: #404040; stroke-width: 2.956618; stroke-linejoin: miter; stroke-linecap: round"/>
    <path d="M 544.758242 335.906655 
L 537.568058 339.102523 
L 539.325473 331.432855 
z
" clip-path="url(#p8498e3acb8)" style="fill: #404040; stroke: #404040; stroke-width: 2.956618; stroke-linejoin: miter; stroke-linecap: round"/>
   </g>
   <g id="patch_11">
    <path d="M 574.838617 238.881093 
Q 541.769972 266.818097 509.384571 294.177883 
" clip-path="url(#p8498e3acb8)" style="fill: none; stroke: #404040; stroke-width: 0.800001; stroke-linejoin: miter; stroke-linecap: round"/>
    <path d="M 515.469324 292.702825 
L 509.384571 294.177883 
L 511.855377 288.425046 
z
" clip-path="url(#p8498e3acb8)" style="fill: #404040; stroke: #404040; stroke-width: 0.800001; stroke-linejoin: miter; stroke-linecap: round"/>
   </g>
   <g id="patch_12">
    <path d="M 370.224697 298.625895 
Q 335.228625 320.847891 303.61445 340.922432 
" clip-path="url(#p8498e3acb8)" style="fill: none; stroke: #404040; stroke-width: 3.583159; stroke-linejoin: miter; stroke-linecap: round"/>
    <path d="M 311.906477 340.072862 
L 303.61445 340.922432 
L 307.91001 333.779069 
z
" clip-path="url(#p8498e3acb8)" style="fill: #404040; stroke: #404040; stroke-width: 3.583159; stroke-linejoin: miter; stroke-linecap: round"/>
   </g>
   <g id="line2d_4">
    <path d="M 120.350555 346.285703 
L 120.350555 410.605716 
" clip-path="url(#p8498e3acb8)" style="fill: none; stroke: #111111; stroke-width: 2.051785"/>
   </g>
   <g id="line2d_5">
    <path d="M 120.350555 234.649166 
L 120.350555 288.394838 
" clip-path="url(#p8498e3acb8)" style="fill: none; stroke: #111111; stroke-width: 3.339799"/>
   </g>
   <g id="line2d_6">
    <path d="M 120.350555 146.124875 
L 120.350555 188.314424 
" clip-path="url(#p8498e3acb8)" style="fill: none; stroke: #111111; stroke-width: 5.20794"/>
   </g>
   <g id="line2d_7">
    <path d="M 370.224697 218.272545 
L 370.224697 256.376624 
" clip-path="url(#p8498e3acb8)" style="fill: none; stroke: #111111; stroke-width: 2.79357"/>
   </g>
   <g id="line2d_8">
    <path d="M 370.224697 140.621095 
L 370.224697 177.374223 
" clip-path="url(#p8498e3acb8)" style="fill: none; stroke: #111111; stroke-width: 4.337437"/>
   </g>
   <g id="line2d_9">
    <path d="M 370.224697 69.035278 
L 370.224697 102.75559 
" clip-path="url(#p8498e3acb8)" style="fill: none; stroke: #111111; stroke-width: 5.8"/>
   </g>
   <g id="line2d_10">
    <path d="M 586.153672 153.134171 
L 586.153672 193.935035 
" clip-path="url(#p8498e3acb8)" style="fill: none; stroke: #111111; stroke-width: 4.037653"/>
   </g>
   <g id="line2d_11">
    <path d="M 75.090333 479.070923 
L 165.610777 479.070923 
" clip-path="url(#p8498e3acb8)" style="fill: none; stroke: #111111; stroke-width: 3.6; stroke-linecap: round"/>
   </g>
   <g id="line2d_12">
    <path d="M 75.090333 346.285703 
L 165.610777 346.285703 
" clip-path="url(#p8498e3acb8)" style="fill: none; stroke: #111111; stroke-width: 3.6; stroke-linecap: round"/>
   </g>
   <g id="line2d_13">
    <path d="M 75.090333 234.649166 
L 165.610777 234.649166 
" clip-path="url(#p8498e3acb8)" style="fill: none; stroke: #111111; stroke-width: 3.6; stroke-linecap: round"/>
   </g>
   <g id="line2d_14">
    <path d="M 75.090333 146.124875 
L 165.610777 146.124875 
" clip-path="url(#p8498e3acb8)" style="fill: none; stroke: #111111; stroke-width: 3.6; stroke-linecap: round"/>
   </g>
   <g id="line2d_15">
    <path d="M 324.964475 298.625895 
L 415.484919 298.625895 
" clip-path="url(#p8498e3acb8)" style="fill: none; stroke: #111111; stroke-width: 3.6; stroke-linecap: round"/>
   </g>
   <g id="line2d_16">
    <path d="M 324.964475 218.272545 
L 415.484919 218.272545 
" clip-path="url(#p8498e3acb8)" style="fill: none; stroke: #111111; stroke-width: 3.6; stroke-linecap: round"/>
   </g>
   <g id="line2d_17">
    <path d="M 324.964475 140.621095 
L 415.484919 140.621095 
" clip-path="url(#p8498e3acb8)" style="fill: none; stroke: #111111; stroke-width: 3.6; stroke-linecap: round"/>
   </g>
   <g id="line2d_18">
    <path d="M 324.964475 69.035278 
L 415.484919 69.035278 
" clip-path="url(#p8498e3acb8)" style="fill: none; stroke: #111111; stroke-width: 3.6; stroke-linecap: round"/>
   </g>
   <g id="line2d_19">
    <path d="M 574.838617 238.881093 
L 665.359061 238.881093 
" clip-path="url(#p8498e3acb8)" style="fill: none; stroke: #111111; stroke-width: 3.6; stroke-linecap: round"/>
   </g>
   <g id="line2d_20">
    <path d="M 574.838617 153.134171 
L 665.359061 153.134171 
" clip-path="url(#p8498e3acb8)" style="fill: none; stroke: #111111; stroke-width: 3.6; stroke-linecap: round"/>
   </g>
   <g id="text_1">
    <!-- $^{262}\mathrm{Pt}$ -->
    <g transform="translate(332.292 33.034687) scale(0.34 -0.34)">
     <defs>
      <path id="DejaVuSans-32" d="M 1228 531 
L 3431 531 
L 3431 0 
L 469 0 
L 469 531 
Q 828 903 1448 1529 
Q 2069 2156 2228 2338 
Q 2531 2678 2651 2914 
Q 2772 3150 2772 3378 
Q 2772 3750 2511 3984 
Q 2250 4219 1831 4219 
Q 1534 4219 1204 4116 
Q 875 4013 500 3803 
L 500 4441 
Q 881 4594 1212 4672 
Q 1544 4750 1819 4750 
Q 2544 4750 2975 4387 
Q 3406 4025 3406 3419 
Q 3406 3131 3298 2873 
Q 3191 2616 2906 2266 
Q 2828 2175 2409 1742 
Q 1991 1309 1228 531 
z
" transform="scale(0.015625)"/>
      <path id="DejaVuSans-36" d="M 2113 2584 
Q 1688 2584 1439 2293 
Q 1191 2003 1191 1497 
Q 1191 994 1439 701 
Q 1688 409 2113 409 
Q 2538 409 2786 701 
Q 3034 994 3034 1497 
Q 3034 2003 2786 2293 
Q 2538 2584 2113 2584 
z
M 3366 4563 
L 3366 3988 
Q 3128 4100 2886 4159 
Q 2644 4219 2406 4219 
Q 1781 4219 1451 3797 
Q 1122 3375 1075 2522 
Q 1259 2794 1537 2939 
Q 1816 3084 2150 3084 
Q 2853 3084 3261 2657 
Q 3669 2231 3669 1497 
Q 3669 778 3244 343 
Q 2819 -91 2113 -91 
Q 1303 -91 875 529 
Q 447 1150 447 2328 
Q 447 3434 972 4092 
Q 1497 4750 2381 4750 
Q 2619 4750 2861 4703 
Q 3103 4656 3366 4563 
z
" transform="scale(0.015625)"/>
      <path id="DejaVuSans-50" d="M 1259 4147 
L 1259 2394 
L 2053 2394 
Q 2494 2394 2734 2622 
Q 2975 2850 2975 3272 
Q 2975 3691 2734 3919 
Q 2494 4147 2053 4147 
L 1259 4147 
z
M 628 4666 
L 2053 4666 
Q 2838 4666 3239 4311 
Q 3641 3956 3641 3272 
Q 3641 2581 3239 2228 
Q 2838 1875 2053 1875 
L 1259 1875 
L 1259 0 
L 628 0 
L 628 4666 
z
" transform="scale(0.015625)"/>
      <path id="DejaVuSans-74" d="M 1172 4494 
L 1172 3500 
L 2356 3500 
L 2356 3053 
L 1172 3053 
L 1172 1153 
Q 1172 725 1289 603 
Q 1406 481 1766 481 
L 2356 481 
L 2356 0 
L 1766 0 
Q 1100 0 847 248 
Q 594 497 594 1153 
L 594 3053 
L 172 3053 
L 172 3500 
L 594 3500 
L 594 4494 
L 1172 4494 
z
" transform="scale(0.015625)"/>
     </defs>
     <use xlink:href="#DejaVuSans-32" transform="translate(0.957031 39.046875) scale(0.7)"/>
     <use xlink:href="#DejaVuSans-36" transform="translate(45.493164 39.046875) scale(0.7)"/>
     <use xlink:href="#DejaVuSans-32" transform="translate(90.029297 39.046875) scale(0.7)"/>
     <use xlink:href="#DejaVuSans-50" transform="translate(137.299805 0.765625)"/>
     <use xlink:href="#DejaVuSans-74" transform="translate(197.602539 0.765625)"/>
    </g>
   </g>
   <g id="text_2">
    <!-- 0 -->
    <g transform="translate(46.98525 483.485923) scale(0.16 -0.16)">
     <defs>
      <path id="DejaVuSans-BoldOblique-30" d="M 1913 728 
Q 2153 728 2339 872 
Q 2525 1016 2650 1294 
Q 2738 1491 2809 1742 
Q 2881 1994 2944 2338 
Q 2997 2616 3025 2850 
Q 3053 3084 3053 3250 
Q 3053 3600 2928 3764 
Q 2803 3928 2541 3928 
Q 2297 3928 2112 3789 
Q 1928 3650 1806 3366 
Q 1713 3163 1636 2903 
Q 1559 2644 1503 2338 
Q 1450 2056 1422 1815 
Q 1394 1575 1394 1409 
Q 1394 1063 1522 895 
Q 1650 728 1913 728 
z
M 4225 3072 
Q 4225 2450 4053 1862 
Q 3881 1275 3572 831 
Q 3256 375 2809 142 
Q 2363 -91 1813 -91 
Q 1047 -91 639 343 
Q 231 778 231 1594 
Q 231 2206 401 2795 
Q 572 3384 878 3822 
Q 1200 4281 1644 4515 
Q 2088 4750 2644 4750 
Q 3403 4750 3814 4314 
Q 4225 3878 4225 3072 
z
" transform="scale(0.015625)"/>
     </defs>
     <use xlink:href="#DejaVuSans-BoldOblique-30"/>
    </g>
   </g>
   <g id="text_3">
    <!-- 0⁺ -->
    <g transform="translate(182.58336 484.226158) scale(0.23 -0.23)">
     <defs>
      <path id="TimesNewRomanPS-BoldMT-30" d="M 2966 2119 
Q 2966 1484 2788 934 
Q 2681 597 2501 381 
Q 2322 166 2094 39 
Q 1866 -88 1597 -88 
Q 1291 -88 1044 68 
Q 797 225 606 516 
Q 469 728 366 1081 
Q 231 1559 231 2069 
Q 231 2759 425 3338 
Q 584 3816 909 4070 
Q 1234 4325 1597 4325 
Q 1966 4325 2286 4073 
Q 2606 3822 2756 3397 
Q 2966 2813 2966 2119 
z
M 2003 2125 
Q 2003 3238 1991 3422 
Q 1959 3856 1841 4009 
Q 1763 4109 1588 4109 
Q 1453 4109 1375 4034 
Q 1259 3925 1218 3648 
Q 1178 3372 1178 1719 
Q 1178 819 1241 513 
Q 1288 291 1375 216 
Q 1463 141 1606 141 
Q 1763 141 1841 241 
Q 1972 416 1991 781 
L 2003 2125 
z
" transform="scale(0.015625)"/>
      <path id="DejaVuSerif-Bold-207a" d="M 1916 4344 
L 1916 3441 
L 2950 3441 
L 2950 3044 
L 1916 3044 
L 1916 2141 
L 1463 2141 
L 1463 3044 
L 428 3044 
L 428 3441 
L 1463 3441 
L 1463 4344 
L 1916 4344 
z
" transform="scale(0.015625)"/>
     </defs>
     <use xlink:href="#TimesNewRomanPS-BoldMT-30"/>
     <use xlink:href="#DejaVuSerif-Bold-207a" transform="translate(50 0)"/>
    </g>
   </g>
   <g id="text_4">
    <!-- 2947 -->
    <g transform="translate(13.58775 350.700703) scale(0.16 -0.16)">
     <defs>
      <path id="DejaVuSans-BoldOblique-32" d="M 1581 884 
L 3609 884 
L 3438 0 
L 50 0 
L 225 891 
L 2209 2388 
Q 2534 2638 2704 2894 
Q 2875 3150 2875 3391 
Q 2875 3647 2700 3787 
Q 2525 3928 2209 3928 
Q 1913 3928 1547 3811 
Q 1181 3694 722 3450 
L 922 4441 
Q 1347 4597 1756 4673 
Q 2166 4750 2566 4750 
Q 3278 4750 3687 4442 
Q 4097 4134 4097 3603 
Q 4097 3147 3847 2772 
Q 3597 2397 2747 1759 
L 1581 884 
z
" transform="scale(0.015625)"/>
      <path id="DejaVuSans-BoldOblique-39" d="M 263 103 
L 428 966 
Q 700 825 953 758 
Q 1206 691 1459 691 
Q 2041 691 2400 1003 
Q 2759 1316 2834 1881 
Q 2594 1722 2337 1645 
Q 2081 1569 1791 1569 
Q 1219 1569 853 1909 
Q 488 2250 488 2778 
Q 488 3641 1052 4192 
Q 1616 4744 2503 4744 
Q 3300 4744 3736 4292 
Q 4172 3841 4172 3016 
Q 4172 2381 3978 1801 
Q 3784 1222 3431 800 
Q 3056 353 2548 128 
Q 2041 -97 1403 -97 
Q 1106 -97 825 -47 
Q 544 3 263 103 
z
M 2169 2344 
Q 2525 2344 2753 2637 
Q 2981 2931 2981 3391 
Q 2981 3675 2845 3828 
Q 2709 3981 2456 3981 
Q 2103 3981 1870 3690 
Q 1638 3400 1638 2963 
Q 1638 2663 1775 2503 
Q 1913 2344 2169 2344 
z
" transform="scale(0.015625)"/>
      <path id="DejaVuSans-BoldOblique-34" d="M 2638 3641 
L 978 1722 
L 2259 1722 
L 2638 3641 
z
M 2606 4666 
L 3975 4666 
L 3397 1722 
L 4063 1722 
L 3897 850 
L 3231 850 
L 3066 0 
L 1925 0 
L 2094 850 
L -6 850 
L 197 1881 
L 2606 4666 
z
" transform="scale(0.015625)"/>
      <path id="DejaVuSans-BoldOblique-37" d="M 922 4666 
L 4441 4666 
L 4300 3981 
L 1703 0 
L 500 0 
L 2969 3781 
L 756 3781 
L 922 4666 
z
" transform="scale(0.015625)"/>
     </defs>
     <use xlink:href="#DejaVuSans-BoldOblique-32"/>
     <use xlink:href="#DejaVuSans-BoldOblique-39" transform="translate(69.580078 0)"/>
     <use xlink:href="#DejaVuSans-BoldOblique-34" transform="translate(139.160156 0)"/>
     <use xlink:href="#DejaVuSans-BoldOblique-37" transform="translate(208.740234 0)"/>
    </g>
   </g>
   <g id="text_5">
    <!-- 2⁺ -->
    <g transform="translate(182.58336 351.440937) scale(0.23 -0.23)">
     <defs>
      <path id="TimesNewRomanPS-BoldMT-32" d="M 2650 0 
L 156 0 
L 156 69 
Q 1303 1434 1548 1906 
Q 1794 2378 1794 2828 
Q 1794 3156 1591 3373 
Q 1388 3591 1094 3591 
Q 613 3591 347 3109 
L 231 3150 
Q 400 3750 744 4037 
Q 1088 4325 1538 4325 
Q 1859 4325 2125 4175 
Q 2391 4025 2541 3764 
Q 2691 3503 2691 3275 
Q 2691 2859 2459 2431 
Q 2144 1853 1081 819 
L 1997 819 
Q 2334 819 2436 847 
Q 2538 875 2603 942 
Q 2669 1009 2775 1225 
L 2888 1225 
L 2650 0 
z
" transform="scale(0.015625)"/>
     </defs>
     <use xlink:href="#TimesNewRomanPS-BoldMT-32"/>
     <use xlink:href="#DejaVuSerif-Bold-207a" transform="translate(50 0)"/>
    </g>
   </g>
   <g id="text_6">
    <!-- 5425 -->
    <g transform="translate(13.58775 239.064166) scale(0.16 -0.16)">
     <defs>
      <path id="DejaVuSans-BoldOblique-35" d="M 1131 4666 
L 4122 4666 
L 3950 3781 
L 1919 3781 
L 1778 3059 
Q 1916 3097 2064 3117 
Q 2213 3138 2363 3138 
Q 3078 3138 3481 2811 
Q 3884 2484 3884 1906 
Q 3884 988 3262 448 
Q 2641 -91 1575 -91 
Q 1184 -91 815 -14 
Q 447 63 84 219 
L 269 1166 
Q 616 941 942 834 
Q 1269 728 1606 728 
Q 2100 728 2397 986 
Q 2694 1244 2694 1663 
Q 2694 1963 2469 2139 
Q 2244 2316 1856 2316 
Q 1594 2316 1289 2248 
Q 984 2181 622 2041 
L 1131 4666 
z
" transform="scale(0.015625)"/>
     </defs>
     <use xlink:href="#DejaVuSans-BoldOblique-35"/>
     <use xlink:href="#DejaVuSans-BoldOblique-34" transform="translate(69.580078 0)"/>
     <use xlink:href="#DejaVuSans-BoldOblique-32" transform="translate(139.160156 0)"/>
     <use xlink:href="#DejaVuSans-BoldOblique-35" transform="translate(208.740234 0)"/>
    </g>
   </g>
   <g id="text_7">
    <!-- 4⁺ -->
    <g transform="translate(182.58336 239.804401) scale(0.23 -0.23)">
     <defs>
      <path id="TimesNewRomanPS-BoldMT-34" d="M 159 1597 
L 2172 4325 
L 2553 4325 
L 2553 1597 
L 2941 1597 
L 2941 950 
L 2553 950 
L 2553 0 
L 1694 0 
L 1694 950 
L 159 950 
L 159 1597 
z
M 463 1597 
L 1694 1597 
L 1694 3269 
L 463 1597 
z
" transform="scale(0.015625)"/>
     </defs>
     <use xlink:href="#TimesNewRomanPS-BoldMT-34"/>
     <use xlink:href="#DejaVuSerif-Bold-207a" transform="translate(50 0)"/>
    </g>
   </g>
   <g id="text_8">
    <!-- 7390 -->
    <g transform="translate(13.58775 150.539875) scale(0.16 -0.16)">
     <defs>
      <path id="DejaVuSans-BoldOblique-33" d="M 3022 2516 
Q 3375 2434 3572 2187 
Q 3769 1941 3769 1581 
Q 3769 806 3155 357 
Q 2541 -91 1466 -91 
Q 1059 -91 692 -33 
Q 325 25 0 141 
L 178 1069 
Q 456 906 784 817 
Q 1113 728 1441 728 
Q 1969 728 2276 926 
Q 2584 1125 2584 1459 
Q 2584 1738 2350 1877 
Q 2116 2016 1644 2016 
L 1166 2016 
L 1319 2791 
L 1825 2791 
Q 2316 2791 2602 2969 
Q 2888 3147 2888 3450 
Q 2888 3688 2689 3813 
Q 2491 3938 2113 3938 
Q 1847 3938 1534 3869 
Q 1222 3800 884 3669 
L 1056 4550 
Q 1425 4650 1783 4700 
Q 2141 4750 2491 4750 
Q 3281 4750 3679 4487 
Q 4078 4225 4078 3706 
Q 4078 3241 3801 2930 
Q 3525 2619 3022 2516 
z
" transform="scale(0.015625)"/>
     </defs>
     <use xlink:href="#DejaVuSans-BoldOblique-37"/>
     <use xlink:href="#DejaVuSans-BoldOblique-33" transform="translate(69.580078 0)"/>
     <use xlink:href="#DejaVuSans-BoldOblique-39" transform="translate(139.160156 0)"/>
     <use xlink:href="#DejaVuSans-BoldOblique-30" transform="translate(208.740234 0)"/>
    </g>
   </g>
   <g id="text_9">
    <!-- 6⁺ -->
    <g transform="translate(182.58336 151.280109) scale(0.23 -0.23)">
     <defs>
      <path id="TimesNewRomanPS-BoldMT-36" d="M 3006 4325 
L 3006 4238 
Q 2441 4094 2098 3867 
Q 1756 3641 1557 3317 
Q 1359 2994 1250 2516 
Q 1388 2609 1478 2638 
Q 1681 2700 1888 2700 
Q 2363 2700 2680 2354 
Q 2997 2009 2997 1413 
Q 2997 994 2825 644 
Q 2653 294 2337 103 
Q 2022 -88 1663 -88 
Q 1272 -88 940 126 
Q 609 341 423 753 
Q 238 1166 238 1650 
Q 238 2363 580 2977 
Q 922 3591 1551 3955 
Q 2181 4319 3006 4325 
z
M 1209 2263 
Q 1184 1831 1184 1631 
Q 1184 1200 1267 797 
Q 1350 394 1494 231 
Q 1597 116 1738 116 
Q 1881 116 1993 283 
Q 2106 450 2106 963 
Q 2106 1825 1897 2153 
Q 1763 2366 1534 2366 
Q 1409 2366 1209 2263 
z
" transform="scale(0.015625)"/>
     </defs>
     <use xlink:href="#TimesNewRomanPS-BoldMT-36"/>
     <use xlink:href="#DejaVuSerif-Bold-207a" transform="translate(50 0)"/>
    </g>
   </g>
   <g id="text_10">
    <!-- 4005 -->
    <g transform="translate(263.461892 303.040895) scale(0.16 -0.16)">
     <use xlink:href="#DejaVuSans-BoldOblique-34"/>
     <use xlink:href="#DejaVuSans-BoldOblique-30" transform="translate(69.580078 0)"/>
     <use xlink:href="#DejaVuSans-BoldOblique-30" transform="translate(139.160156 0)"/>
     <use xlink:href="#DejaVuSans-BoldOblique-35" transform="translate(208.740234 0)"/>
    </g>
   </g>
   <g id="text_11">
    <!-- 0⁺ -->
    <g transform="translate(432.457502 303.78113) scale(0.23 -0.23)">
     <use xlink:href="#TimesNewRomanPS-BoldMT-30"/>
     <use xlink:href="#DejaVuSerif-Bold-207a" transform="translate(50 0)"/>
    </g>
   </g>
   <g id="text_12">
    <!-- 5788 -->
    <g transform="translate(263.461892 222.687545) scale(0.16 -0.16)">
     <defs>
      <path id="DejaVuSans-BoldOblique-38" d="M 2150 2088 
Q 1784 2088 1539 1839 
Q 1294 1591 1294 1228 
Q 1294 969 1453 817 
Q 1613 666 1888 666 
Q 2259 666 2503 911 
Q 2747 1156 2747 1522 
Q 2747 1781 2586 1934 
Q 2425 2088 2150 2088 
z
M 1381 2484 
Q 1044 2625 876 2850 
Q 709 3075 709 3391 
Q 709 4025 1229 4387 
Q 1750 4750 2669 4750 
Q 3406 4750 3812 4475 
Q 4219 4200 4219 3700 
Q 4219 3256 3936 2940 
Q 3653 2625 3128 2484 
Q 3509 2338 3690 2091 
Q 3872 1844 3872 1466 
Q 3872 747 3311 328 
Q 2750 -91 1772 -91 
Q 1000 -91 570 217 
Q 141 525 141 1075 
Q 141 1572 470 1945 
Q 800 2319 1381 2484 
z
M 2559 3994 
Q 2241 3994 2048 3808 
Q 1856 3622 1856 3316 
Q 1856 3103 1995 2972 
Q 2134 2841 2363 2841 
Q 2681 2841 2873 3027 
Q 3066 3213 3066 3519 
Q 3066 3734 2927 3864 
Q 2788 3994 2559 3994 
z
" transform="scale(0.015625)"/>
     </defs>
     <use xlink:href="#DejaVuSans-BoldOblique-35"/>
     <use xlink:href="#DejaVuSans-BoldOblique-37" transform="translate(69.580078 0)"/>
     <use xlink:href="#DejaVuSans-BoldOblique-38" transform="translate(139.160156 0)"/>
     <use xlink:href="#DejaVuSans-BoldOblique-38" transform="translate(208.740234 0)"/>
    </g>
   </g>
   <g id="text_13">
    <!-- 2⁺ -->
    <g transform="translate(432.457502 223.427779) scale(0.23 -0.23)">
     <use xlink:href="#TimesNewRomanPS-BoldMT-32"/>
     <use xlink:href="#DejaVuSerif-Bold-207a" transform="translate(50 0)"/>
    </g>
   </g>
   <g id="text_14">
    <!-- 7512 -->
    <g transform="translate(263.461892 145.036095) scale(0.16 -0.16)">
     <defs>
      <path id="DejaVuSans-BoldOblique-31" d="M 441 831 
L 1503 831 
L 2088 3847 
L 953 3622 
L 1113 4441 
L 2241 4666 
L 3384 4666 
L 2644 831 
L 3700 831 
L 3541 0 
L 275 0 
L 441 831 
z
" transform="scale(0.015625)"/>
     </defs>
     <use xlink:href="#DejaVuSans-BoldOblique-37"/>
     <use xlink:href="#DejaVuSans-BoldOblique-35" transform="translate(69.580078 0)"/>
     <use xlink:href="#DejaVuSans-BoldOblique-31" transform="translate(139.160156 0)"/>
     <use xlink:href="#DejaVuSans-BoldOblique-32" transform="translate(208.740234 0)"/>
    </g>
   </g>
   <g id="text_15">
    <!-- 4⁺ -->
    <g transform="translate(432.457502 145.776329) scale(0.23 -0.23)">
     <use xlink:href="#TimesNewRomanPS-BoldMT-34"/>
     <use xlink:href="#DejaVuSerif-Bold-207a" transform="translate(50 0)"/>
    </g>
   </g>
   <g id="text_16">
    <!-- 9100 -->
    <g transform="translate(263.461892 73.450278) scale(0.16 -0.16)">
     <use xlink:href="#DejaVuSans-BoldOblique-39"/>
     <use xlink:href="#DejaVuSans-BoldOblique-31" transform="translate(69.580078 0)"/>
     <use xlink:href="#DejaVuSans-BoldOblique-30" transform="translate(139.160156 0)"/>
     <use xlink:href="#DejaVuSans-BoldOblique-30" transform="translate(208.740234 0)"/>
    </g>
   </g>
   <g id="text_17">
    <!-- 6⁺ -->
    <g transform="translate(432.457502 74.190513) scale(0.23 -0.23)">
     <use xlink:href="#TimesNewRomanPS-BoldMT-36"/>
     <use xlink:href="#DejaVuSerif-Bold-207a" transform="translate(50 0)"/>
    </g>
   </g>
   <g id="text_18">
    <!-- 5331 -->
    <g transform="translate(513.336034 243.296093) scale(0.16 -0.16)">
     <use xlink:href="#DejaVuSans-BoldOblique-35"/>
     <use xlink:href="#DejaVuSans-BoldOblique-33" transform="translate(69.580078 0)"/>
     <use xlink:href="#DejaVuSans-BoldOblique-33" transform="translate(139.160156 0)"/>
     <use xlink:href="#DejaVuSans-BoldOblique-31" transform="translate(208.740234 0)"/>
    </g>
   </g>
   <g id="text_19">
    <!-- 2⁺ -->
    <g transform="translate(682.331644 244.036327) scale(0.23 -0.23)">
     <use xlink:href="#TimesNewRomanPS-BoldMT-32"/>
     <use xlink:href="#DejaVuSerif-Bold-207a" transform="translate(50 0)"/>
    </g>
   </g>
   <g id="text_20">
    <!-- 7234 -->
    <g transform="translate(513.336034 157.549171) scale(0.16 -0.16)">
     <use xlink:href="#DejaVuSans-BoldOblique-37"/>
     <use xlink:href="#DejaVuSans-BoldOblique-32" transform="translate(69.580078 0)"/>
     <use xlink:href="#DejaVuSans-BoldOblique-33" transform="translate(139.160156 0)"/>
     <use xlink:href="#DejaVuSans-BoldOblique-34" transform="translate(208.740234 0)"/>
    </g>
   </g>
   <g id="text_21">
    <!-- 3⁺ -->
    <g transform="translate(682.331644 158.289405) scale(0.23 -0.23)">
     <defs>
      <path id="TimesNewRomanPS-BoldMT-33" d="M 947 2125 
L 947 2234 
Q 1303 2338 1440 2427 
Q 1578 2516 1678 2698 
Q 1778 2881 1778 3069 
Q 1778 3328 1589 3514 
Q 1400 3700 1119 3700 
Q 681 3700 375 3238 
L 259 3278 
Q 484 3800 836 4062 
Q 1188 4325 1619 4325 
Q 2059 4325 2345 4056 
Q 2631 3788 2631 3428 
Q 2631 3194 2498 2976 
Q 2366 2759 2081 2594 
Q 2447 2416 2639 2155 
Q 2831 1894 2831 1500 
Q 2831 838 2351 373 
Q 1872 -91 1066 -91 
Q 528 -91 281 88 
Q 103 213 103 409 
Q 103 553 206 654 
Q 309 756 444 756 
Q 547 756 638 713 
Q 688 688 992 439 
Q 1297 191 1563 191 
Q 1794 191 1959 373 
Q 2125 556 2125 838 
Q 2125 1266 1825 1627 
Q 1525 1988 947 2125 
z
" transform="scale(0.015625)"/>
     </defs>
     <use xlink:href="#TimesNewRomanPS-BoldMT-33"/>
     <use xlink:href="#DejaVuSerif-Bold-207a" transform="translate(50 0)"/>
    </g>
   </g>
   <g id="text_22">
    <path d="M 111.560555 405.452063 
L 111.560555 414.117063 
Q 111.560555 415.092063 111.645555 415.362063 
Q 111.733055 415.632063 112.005555 415.804563 
Q 112.280555 415.974563 112.883055 415.974563 
L 113.123055 415.974563 
L 113.123055 416.264563 
L 107.545555 416.264563 
L 107.545555 415.974563 
L 107.828055 415.974563 
Q 108.508055 415.974563 108.795555 415.819563 
Q 109.085555 415.662063 109.185555 415.389563 
Q 109.288055 415.117063 109.288055 414.117063 
L 109.288055 408.624563 
Q 109.288055 407.889563 109.218055 407.707063 
Q 109.148055 407.522063 108.955555 407.394563 
Q 108.765555 407.264563 108.515555 407.264563 
Q 108.115555 407.264563 107.545555 407.514563 
L 107.405555 407.232063 
L 111.303055 405.452063 
L 111.560555 405.452063 
z
M 116.718055 410.952063 
L 116.718055 410.679563 
Q 117.608055 410.419563 117.950555 410.197063 
Q 118.295555 409.974563 118.545555 409.519563 
Q 118.795555 409.062063 118.795555 408.592063 
Q 118.795555 407.944563 118.323055 407.479563 
Q 117.850555 407.014563 117.148055 407.014563 
Q 116.053055 407.014563 115.288055 408.169563 
L 114.998055 408.069563 
Q 115.560555 406.764563 116.440555 406.109563 
Q 117.320555 405.452063 118.398055 405.452063 
Q 119.498055 405.452063 120.213055 406.124563 
Q 120.928055 406.794563 120.928055 407.694563 
Q 120.928055 408.279563 120.595555 408.824563 
Q 120.265555 409.367063 119.553055 409.779563 
Q 120.468055 410.224563 120.948055 410.877063 
Q 121.428055 411.529563 121.428055 412.514563 
Q 121.428055 414.169563 120.228055 415.332063 
Q 119.030555 416.492063 117.015555 416.492063 
Q 115.670555 416.492063 115.053055 416.044563 
Q 114.608055 415.732063 114.608055 415.242063 
Q 114.608055 414.882063 114.865555 414.629563 
Q 115.123055 414.374563 115.460555 414.374563 
Q 115.718055 414.374563 115.945555 414.482063 
Q 116.070555 414.544563 116.830555 415.167063 
Q 117.593055 415.787063 118.258055 415.787063 
Q 118.835555 415.787063 119.248055 415.332063 
Q 119.663055 414.874563 119.663055 414.169563 
Q 119.663055 413.099563 118.913055 412.197063 
Q 118.163055 411.294563 116.718055 410.952063 
z
M 124.350555 413.857063 
Q 124.898055 413.857063 125.275555 414.242063 
Q 125.655555 414.624563 125.655555 415.162063 
Q 125.655555 415.702063 125.273055 416.082063 
Q 124.890555 416.459563 124.350555 416.459563 
Q 123.810555 416.459563 123.430555 416.082063 
Q 123.053055 415.702063 123.053055 415.162063 
Q 123.053055 414.624563 123.430555 414.242063 
Q 123.810555 413.857063 124.350555 413.857063 
z
M 128.718055 410.952063 
L 128.718055 410.679563 
Q 129.608055 410.419563 129.950555 410.197063 
Q 130.295555 409.974563 130.545555 409.519563 
Q 130.795555 409.062063 130.795555 408.592063 
Q 130.795555 407.944563 130.323055 407.479563 
Q 129.850555 407.014563 129.148055 407.014563 
Q 128.053055 407.014563 127.288055 408.169563 
L 126.998055 408.069563 
Q 127.560555 406.764563 128.440555 406.109563 
Q 129.320555 405.452063 130.398055 405.452063 
Q 131.498055 405.452063 132.213055 406.124563 
Q 132.928055 406.794563 132.928055 407.694563 
Q 132.928055 408.279563 132.595555 408.824563 
Q 132.265555 409.367063 131.553055 409.779563 
Q 132.468055 410.224563 132.948055 410.877063 
Q 133.428055 411.529563 133.428055 412.514563 
Q 133.428055 414.169563 132.228055 415.332063 
Q 131.030555 416.492063 129.015555 416.492063 
Q 127.670555 416.492063 127.053055 416.044563 
Q 126.608055 415.732063 126.608055 415.242063 
Q 126.608055 414.882063 126.865555 414.629563 
Q 127.123055 414.374563 127.460555 414.374563 
Q 127.718055 414.374563 127.945555 414.482063 
Q 128.070555 414.544563 128.830555 415.167063 
Q 129.593055 415.787063 130.258055 415.787063 
Q 130.835555 415.787063 131.248055 415.332063 
Q 131.663055 414.874563 131.663055 414.169563 
Q 131.663055 413.099563 130.913055 412.197063 
Q 130.163055 411.294563 128.718055 410.952063 
z
" style="stroke: #ffffff; stroke-width: 3.8"/>
    <path d="M 111.560555 405.452063 
L 111.560555 414.117063 
Q 111.560555 415.092063 111.645555 415.362063 
Q 111.733055 415.632063 112.005555 415.804563 
Q 112.280555 415.974563 112.883055 415.974563 
L 113.123055 415.974563 
L 113.123055 416.264563 
L 107.545555 416.264563 
L 107.545555 415.974563 
L 107.828055 415.974563 
Q 108.508055 415.974563 108.795555 415.819563 
Q 109.085555 415.662063 109.185555 415.389563 
Q 109.288055 415.117063 109.288055 414.117063 
L 109.288055 408.624563 
Q 109.288055 407.889563 109.218055 407.707063 
Q 109.148055 407.522063 108.955555 407.394563 
Q 108.765555 407.264563 108.515555 407.264563 
Q 108.115555 407.264563 107.545555 407.514563 
L 107.405555 407.232063 
L 111.303055 405.452063 
L 111.560555 405.452063 
z
M 116.718055 410.952063 
L 116.718055 410.679563 
Q 117.608055 410.419563 117.950555 410.197063 
Q 118.295555 409.974563 118.545555 409.519563 
Q 118.795555 409.062063 118.795555 408.592063 
Q 118.795555 407.944563 118.323055 407.479563 
Q 117.850555 407.014563 117.148055 407.014563 
Q 116.053055 407.014563 115.288055 408.169563 
L 114.998055 408.069563 
Q 115.560555 406.764563 116.440555 406.109563 
Q 117.320555 405.452063 118.398055 405.452063 
Q 119.498055 405.452063 120.213055 406.124563 
Q 120.928055 406.794563 120.928055 407.694563 
Q 120.928055 408.279563 120.595555 408.824563 
Q 120.265555 409.367063 119.553055 409.779563 
Q 120.468055 410.224563 120.948055 410.877063 
Q 121.428055 411.529563 121.428055 412.514563 
Q 121.428055 414.169563 120.228055 415.332063 
Q 119.030555 416.492063 117.015555 416.492063 
Q 115.670555 416.492063 115.053055 416.044563 
Q 114.608055 415.732063 114.608055 415.242063 
Q 114.608055 414.882063 114.865555 414.629563 
Q 115.123055 414.374563 115.460555 414.374563 
Q 115.718055 414.374563 115.945555 414.482063 
Q 116.070555 414.544563 116.830555 415.167063 
Q 117.593055 415.787063 118.258055 415.787063 
Q 118.835555 415.787063 119.248055 415.332063 
Q 119.663055 414.874563 119.663055 414.169563 
Q 119.663055 413.099563 118.913055 412.197063 
Q 118.163055 411.294563 116.718055 410.952063 
z
M 124.350555 413.857063 
Q 124.898055 413.857063 125.275555 414.242063 
Q 125.655555 414.624563 125.655555 415.162063 
Q 125.655555 415.702063 125.273055 416.082063 
Q 124.890555 416.459563 124.350555 416.459563 
Q 123.810555 416.459563 123.430555 416.082063 
Q 123.053055 415.702063 123.053055 415.162063 
Q 123.053055 414.624563 123.430555 414.242063 
Q 123.810555 413.857063 124.350555 413.857063 
z
M 128.718055 410.952063 
L 128.718055 410.679563 
Q 129.608055 410.419563 129.950555 410.197063 
Q 130.295555 409.974563 130.545555 409.519563 
Q 130.795555 409.062063 130.795555 408.592063 
Q 130.795555 407.944563 130.323055 407.479563 
Q 129.850555 407.014563 129.148055 407.014563 
Q 128.053055 407.014563 127.288055 408.169563 
L 126.998055 408.069563 
Q 127.560555 406.764563 128.440555 406.109563 
Q 129.320555 405.452063 130.398055 405.452063 
Q 131.498055 405.452063 132.213055 406.124563 
Q 132.928055 406.794563 132.928055 407.694563 
Q 132.928055 408.279563 132.595555 408.824563 
Q 132.265555 409.367063 131.553055 409.779563 
Q 132.468055 410.224563 132.948055 410.877063 
Q 133.428055 411.529563 133.428055 412.514563 
Q 133.428055 414.169563 132.228055 415.332063 
Q 131.030555 416.492063 129.015555 416.492063 
Q 127.670555 416.492063 127.053055 416.044563 
Q 126.608055 415.732063 126.608055 415.242063 
Q 126.608055 414.882063 126.865555 414.629563 
Q 127.123055 414.374563 127.460555 414.374563 
Q 127.718055 414.374563 127.945555 414.482063 
Q 128.070555 414.544563 128.830555 415.167063 
Q 129.593055 415.787063 130.258055 415.787063 
Q 130.835555 415.787063 131.248055 415.332063 
Q 131.663055 414.874563 131.663055 414.169563 
Q 131.663055 413.099563 130.913055 412.197063 
Q 130.163055 411.294563 128.718055 410.952063 
z
"/>
   </g>
   <g id="text_23">
    <path d="M 112.975555 294.053684 
L 106.740555 294.053684 
L 106.740555 293.881184 
Q 109.608055 290.468684 110.220555 289.288684 
Q 110.835555 288.108684 110.835555 286.983684 
Q 110.835555 286.163684 110.328055 285.621184 
Q 109.820555 285.076184 109.085555 285.076184 
Q 107.883055 285.076184 107.218055 286.281184 
L 106.928055 286.178684 
Q 107.350555 284.678684 108.210555 283.961184 
Q 109.070555 283.241184 110.195555 283.241184 
Q 110.998055 283.241184 111.663055 283.616184 
Q 112.328055 283.991184 112.703055 284.643684 
Q 113.078055 285.296184 113.078055 285.866184 
Q 113.078055 286.906184 112.498055 287.976184 
Q 111.710555 289.421184 109.053055 292.006184 
L 111.343055 292.006184 
Q 112.185555 292.006184 112.440555 291.936184 
Q 112.695555 291.866184 112.858055 291.698684 
Q 113.023055 291.531184 113.288055 290.991184 
L 113.570555 290.991184 
L 112.975555 294.053684 
z
M 117.185555 294.273684 
L 120.070555 285.531184 
L 117.873055 285.531184 
Q 116.585555 285.531184 115.935555 285.866184 
Q 115.483055 286.101184 115.185555 286.748684 
L 114.890555 286.748684 
L 115.655555 283.458684 
L 121.968055 283.458684 
L 118.413055 294.273684 
L 117.185555 294.273684 
z
M 124.350555 291.646184 
Q 124.898055 291.646184 125.275555 292.031184 
Q 125.655555 292.413684 125.655555 292.951184 
Q 125.655555 293.491184 125.273055 293.871184 
Q 124.890555 294.248684 124.350555 294.248684 
Q 123.810555 294.248684 123.430555 293.871184 
Q 123.053055 293.491184 123.053055 292.951184 
Q 123.053055 292.413684 123.430555 292.031184 
Q 123.810555 291.646184 124.350555 291.646184 
z
M 133.765555 288.756184 
Q 133.765555 290.343684 133.320555 291.718684 
Q 133.053055 292.561184 132.603055 293.101184 
Q 132.155555 293.638684 131.585555 293.956184 
Q 131.015555 294.273684 130.343055 294.273684 
Q 129.578055 294.273684 128.960555 293.883684 
Q 128.343055 293.491184 127.865555 292.763684 
Q 127.523055 292.233684 127.265555 291.351184 
Q 126.928055 290.156184 126.928055 288.881184 
Q 126.928055 287.156184 127.413055 285.708684 
Q 127.810555 284.513684 128.623055 283.878684 
Q 129.435555 283.241184 130.343055 283.241184 
Q 131.265555 283.241184 132.065555 283.871184 
Q 132.865555 284.498684 133.240555 285.561184 
Q 133.765555 287.021184 133.765555 288.756184 
z
M 131.358055 288.741184 
Q 131.358055 285.958684 131.328055 285.498684 
Q 131.248055 284.413684 130.953055 284.031184 
Q 130.758055 283.781184 130.320555 283.781184 
Q 129.983055 283.781184 129.788055 283.968684 
Q 129.498055 284.241184 129.395555 284.933684 
Q 129.295555 285.623684 129.295555 289.756184 
Q 129.295555 292.006184 129.453055 292.771184 
Q 129.570555 293.326184 129.788055 293.513684 
Q 130.008055 293.701184 130.365555 293.701184 
Q 130.758055 293.701184 130.953055 293.451184 
Q 131.280555 293.013684 131.328055 292.101184 
L 131.358055 288.741184 
z
" style="stroke: #ffffff; stroke-width: 3.8"/>
    <path d="M 112.975555 294.053684 
L 106.740555 294.053684 
L 106.740555 293.881184 
Q 109.608055 290.468684 110.220555 289.288684 
Q 110.835555 288.108684 110.835555 286.983684 
Q 110.835555 286.163684 110.328055 285.621184 
Q 109.820555 285.076184 109.085555 285.076184 
Q 107.883055 285.076184 107.218055 286.281184 
L 106.928055 286.178684 
Q 107.350555 284.678684 108.210555 283.961184 
Q 109.070555 283.241184 110.195555 283.241184 
Q 110.998055 283.241184 111.663055 283.616184 
Q 112.328055 283.991184 112.703055 284.643684 
Q 113.078055 285.296184 113.078055 285.866184 
Q 113.078055 286.906184 112.498055 287.976184 
Q 111.710555 289.421184 109.053055 292.006184 
L 111.343055 292.006184 
Q 112.185555 292.006184 112.440555 291.936184 
Q 112.695555 291.866184 112.858055 291.698684 
Q 113.023055 291.531184 113.288055 290.991184 
L 113.570555 290.991184 
L 112.975555 294.053684 
z
M 117.185555 294.273684 
L 120.070555 285.531184 
L 117.873055 285.531184 
Q 116.585555 285.531184 115.935555 285.866184 
Q 115.483055 286.101184 115.185555 286.748684 
L 114.890555 286.748684 
L 115.655555 283.458684 
L 121.968055 283.458684 
L 118.413055 294.273684 
L 117.185555 294.273684 
z
M 124.350555 291.646184 
Q 124.898055 291.646184 125.275555 292.031184 
Q 125.655555 292.413684 125.655555 292.951184 
Q 125.655555 293.491184 125.273055 293.871184 
Q 124.890555 294.248684 124.350555 294.248684 
Q 123.810555 294.248684 123.430555 293.871184 
Q 123.053055 293.491184 123.053055 292.951184 
Q 123.053055 292.413684 123.430555 292.031184 
Q 123.810555 291.646184 124.350555 291.646184 
z
M 133.765555 288.756184 
Q 133.765555 290.343684 133.320555 291.718684 
Q 133.053055 292.561184 132.603055 293.101184 
Q 132.155555 293.638684 131.585555 293.956184 
Q 131.015555 294.273684 130.343055 294.273684 
Q 129.578055 294.273684 128.960555 293.883684 
Q 128.343055 293.491184 127.865555 292.763684 
Q 127.523055 292.233684 127.265555 291.351184 
Q 126.928055 290.156184 126.928055 288.881184 
Q 126.928055 287.156184 127.413055 285.708684 
Q 127.810555 284.513684 128.623055 283.878684 
Q 129.435555 283.241184 130.343055 283.241184 
Q 131.265555 283.241184 132.065555 283.871184 
Q 132.865555 284.498684 133.240555 285.561184 
Q 133.765555 287.021184 133.765555 288.756184 
z
M 131.358055 288.741184 
Q 131.358055 285.958684 131.328055 285.498684 
Q 131.248055 284.413684 130.953055 284.031184 
Q 130.758055 283.781184 130.320555 283.781184 
Q 129.983055 283.781184 129.788055 283.968684 
Q 129.498055 284.241184 129.395555 284.933684 
Q 129.295555 285.623684 129.295555 289.756184 
Q 129.295555 292.006184 129.453055 292.771184 
Q 129.570555 293.326184 129.788055 293.513684 
Q 130.008055 293.701184 130.365555 293.701184 
Q 130.758055 293.701184 130.953055 293.451184 
Q 131.280555 293.013684 131.328055 292.101184 
L 131.358055 288.741184 
z
"/>
   </g>
   <g id="text_24">
    <path d="M 106.748055 189.980771 
L 111.780555 183.160771 
L 112.733055 183.160771 
L 112.733055 189.980771 
L 113.703055 189.980771 
L 113.703055 191.598271 
L 112.733055 191.598271 
L 112.733055 193.973271 
L 110.585555 193.973271 
L 110.585555 191.598271 
L 106.748055 191.598271 
L 106.748055 189.980771 
z
M 107.508055 189.980771 
L 110.585555 189.980771 
L 110.585555 185.800771 
L 107.508055 189.980771 
z
M 121.865555 183.160771 
L 121.865555 183.378271 
Q 120.453055 183.738271 119.595555 184.305771 
Q 118.740555 184.870771 118.243055 185.680771 
Q 117.748055 186.488271 117.475555 187.683271 
Q 117.820555 187.450771 118.045555 187.378271 
Q 118.553055 187.223271 119.070555 187.223271 
Q 120.258055 187.223271 121.050555 188.088271 
Q 121.843055 188.950771 121.843055 190.440771 
Q 121.843055 191.488271 121.413055 192.363271 
Q 120.983055 193.238271 120.193055 193.715771 
Q 119.405555 194.193271 118.508055 194.193271 
Q 117.530555 194.193271 116.700555 193.658271 
Q 115.873055 193.120771 115.408055 192.090771 
Q 114.945555 191.058271 114.945555 189.848271 
Q 114.945555 188.065771 115.800555 186.530771 
Q 116.655555 184.995771 118.228055 184.085771 
Q 119.803055 183.175771 121.865555 183.160771 
z
M 117.373055 188.315771 
Q 117.310555 189.395771 117.310555 189.895771 
Q 117.310555 190.973271 117.518055 191.980771 
Q 117.725555 192.988271 118.085555 193.395771 
Q 118.343055 193.683271 118.695555 193.683271 
Q 119.053055 193.683271 119.333055 193.265771 
Q 119.615555 192.848271 119.615555 191.565771 
Q 119.615555 189.410771 119.093055 188.590771 
Q 118.758055 188.058271 118.185555 188.058271 
Q 117.873055 188.058271 117.373055 188.315771 
z
M 124.350555 191.565771 
Q 124.898055 191.565771 125.275555 191.950771 
Q 125.655555 192.333271 125.655555 192.870771 
Q 125.655555 193.410771 125.273055 193.790771 
Q 124.890555 194.168271 124.350555 194.168271 
Q 123.810555 194.168271 123.430555 193.790771 
Q 123.053055 193.410771 123.053055 192.870771 
Q 123.053055 192.333271 123.430555 191.950771 
Q 123.810555 191.565771 124.350555 191.565771 
z
M 131.803055 187.988271 
Q 132.920555 188.808271 133.353055 189.515771 
Q 133.788055 190.223271 133.788055 191.138271 
Q 133.788055 192.418271 132.823055 193.305771 
Q 131.858055 194.193271 130.203055 194.193271 
Q 128.633055 194.193271 127.773055 193.420771 
Q 126.913055 192.645771 126.913055 191.528271 
Q 126.913055 190.675771 127.408055 190.035771 
Q 127.905555 189.395771 129.060555 188.863271 
Q 127.803055 187.903271 127.448055 187.293271 
Q 127.093055 186.683271 127.093055 185.878271 
Q 127.093055 184.815771 127.995555 184.008271 
Q 128.898055 183.200771 130.468055 183.200771 
Q 131.983055 183.200771 132.798055 183.915771 
Q 133.615555 184.628271 133.615555 185.628271 
Q 133.615555 186.378271 133.173055 186.953271 
Q 132.733055 187.528271 131.803055 187.988271 
z
M 131.210555 187.590771 
Q 131.498055 187.200771 131.638055 186.715771 
Q 131.780555 186.230771 131.780555 185.653271 
Q 131.780555 184.638271 131.343055 184.098271 
Q 131.015555 183.683271 130.435555 183.683271 
Q 129.913055 183.683271 129.545555 184.063271 
Q 129.178055 184.440771 129.178055 185.003271 
Q 129.178055 185.575771 129.588055 186.188271 
Q 129.998055 186.800771 131.210555 187.590771 
z
M 129.648055 189.238271 
Q 129.405555 189.458271 129.303055 189.638271 
Q 129.148055 189.910771 129.023055 190.435771 
Q 128.898055 190.958271 128.898055 191.528271 
Q 128.898055 192.263271 129.085555 192.758271 
Q 129.273055 193.253271 129.620555 193.473271 
Q 129.968055 193.690771 130.335555 193.690771 
Q 130.905555 193.690771 131.295555 193.273271 
Q 131.685555 192.855771 131.685555 192.128271 
Q 131.685555 190.613271 129.648055 189.238271 
z
" style="stroke: #ffffff; stroke-width: 3.8"/>
    <path d="M 106.748055 189.980771 
L 111.780555 183.160771 
L 112.733055 183.160771 
L 112.733055 189.980771 
L 113.703055 189.980771 
L 113.703055 191.598271 
L 112.733055 191.598271 
L 112.733055 193.973271 
L 110.585555 193.973271 
L 110.585555 191.598271 
L 106.748055 191.598271 
L 106.748055 189.980771 
z
M 107.508055 189.980771 
L 110.585555 189.980771 
L 110.585555 185.800771 
L 107.508055 189.980771 
z
M 121.865555 183.160771 
L 121.865555 183.378271 
Q 120.453055 183.738271 119.595555 184.305771 
Q 118.740555 184.870771 118.243055 185.680771 
Q 117.748055 186.488271 117.475555 187.683271 
Q 117.820555 187.450771 118.045555 187.378271 
Q 118.553055 187.223271 119.070555 187.223271 
Q 120.258055 187.223271 121.050555 188.088271 
Q 121.843055 188.950771 121.843055 190.440771 
Q 121.843055 191.488271 121.413055 192.363271 
Q 120.983055 193.238271 120.193055 193.715771 
Q 119.405555 194.193271 118.508055 194.193271 
Q 117.530555 194.193271 116.700555 193.658271 
Q 115.873055 193.120771 115.408055 192.090771 
Q 114.945555 191.058271 114.945555 189.848271 
Q 114.945555 188.065771 115.800555 186.530771 
Q 116.655555 184.995771 118.228055 184.085771 
Q 119.803055 183.175771 121.865555 183.160771 
z
M 117.373055 188.315771 
Q 117.310555 189.395771 117.310555 189.895771 
Q 117.310555 190.973271 117.518055 191.980771 
Q 117.725555 192.988271 118.085555 193.395771 
Q 118.343055 193.683271 118.695555 193.683271 
Q 119.053055 193.683271 119.333055 193.265771 
Q 119.615555 192.848271 119.615555 191.565771 
Q 119.615555 189.410771 119.093055 188.590771 
Q 118.758055 188.058271 118.185555 188.058271 
Q 117.873055 188.058271 117.373055 188.315771 
z
M 124.350555 191.565771 
Q 124.898055 191.565771 125.275555 191.950771 
Q 125.655555 192.333271 125.655555 192.870771 
Q 125.655555 193.410771 125.273055 193.790771 
Q 124.890555 194.168271 124.350555 194.168271 
Q 123.810555 194.168271 123.430555 193.790771 
Q 123.053055 193.410771 123.053055 192.870771 
Q 123.053055 192.333271 123.430555 191.950771 
Q 123.810555 191.565771 124.350555 191.565771 
z
M 131.803055 187.988271 
Q 132.920555 188.808271 133.353055 189.515771 
Q 133.788055 190.223271 133.788055 191.138271 
Q 133.788055 192.418271 132.823055 193.305771 
Q 131.858055 194.193271 130.203055 194.193271 
Q 128.633055 194.193271 127.773055 193.420771 
Q 126.913055 192.645771 126.913055 191.528271 
Q 126.913055 190.675771 127.408055 190.035771 
Q 127.905555 189.395771 129.060555 188.863271 
Q 127.803055 187.903271 127.448055 187.293271 
Q 127.093055 186.683271 127.093055 185.878271 
Q 127.093055 184.815771 127.995555 184.008271 
Q 128.898055 183.200771 130.468055 183.200771 
Q 131.983055 183.200771 132.798055 183.915771 
Q 133.615555 184.628271 133.615555 185.628271 
Q 133.615555 186.378271 133.173055 186.953271 
Q 132.733055 187.528271 131.803055 187.988271 
z
M 131.210555 187.590771 
Q 131.498055 187.200771 131.638055 186.715771 
Q 131.780555 186.230771 131.780555 185.653271 
Q 131.780555 184.638271 131.343055 184.098271 
Q 131.015555 183.683271 130.435555 183.683271 
Q 129.913055 183.683271 129.545555 184.063271 
Q 129.178055 184.440771 129.178055 185.003271 
Q 129.178055 185.575771 129.588055 186.188271 
Q 129.998055 186.800771 131.210555 187.590771 
z
M 129.648055 189.238271 
Q 129.405555 189.458271 129.303055 189.638271 
Q 129.148055 189.910771 129.023055 190.435771 
Q 128.898055 190.958271 128.898055 191.528271 
Q 128.898055 192.263271 129.085555 192.758271 
Q 129.273055 193.253271 129.620555 193.473271 
Q 129.968055 193.690771 130.335555 193.690771 
Q 130.905555 193.690771 131.295555 193.273271 
Q 131.685555 192.855771 131.685555 192.128271 
Q 131.685555 190.613271 129.648055 189.238271 
z
"/>
   </g>
   <g id="text_25">
    <path d="M 362.849697 262.03547 
L 356.614697 262.03547 
L 356.614697 261.86297 
Q 359.482197 258.45047 360.094697 257.27047 
Q 360.709697 256.09047 360.709697 254.96547 
Q 360.709697 254.14547 360.202197 253.60297 
Q 359.694697 253.05797 358.959697 253.05797 
Q 357.757197 253.05797 357.092197 254.26297 
L 356.802197 254.16047 
Q 357.224697 252.66047 358.084697 251.94297 
Q 358.944697 251.22297 360.069697 251.22297 
Q 360.872197 251.22297 361.537197 251.59797 
Q 362.202197 251.97297 362.577197 252.62547 
Q 362.952197 253.27797 362.952197 253.84797 
Q 362.952197 254.88797 362.372197 255.95797 
Q 361.584697 257.40297 358.927197 259.98797 
L 361.217197 259.98797 
Q 362.059697 259.98797 362.314697 259.91797 
Q 362.569697 259.84797 362.732197 259.68047 
Q 362.897197 259.51297 363.162197 258.97297 
L 363.444697 258.97297 
L 362.849697 262.03547 
z
M 369.434697 251.22297 
L 369.434697 259.88797 
Q 369.434697 260.86297 369.519697 261.13297 
Q 369.607197 261.40297 369.879697 261.57547 
Q 370.154697 261.74547 370.757197 261.74547 
L 370.997197 261.74547 
L 370.997197 262.03547 
L 365.419697 262.03547 
L 365.419697 261.74547 
L 365.702197 261.74547 
Q 366.382197 261.74547 366.669697 261.59047 
Q 366.959697 261.43297 367.059697 261.16047 
Q 367.162197 260.88797 367.162197 259.88797 
L 367.162197 254.39547 
Q 367.162197 253.66047 367.092197 253.47797 
Q 367.022197 253.29297 366.829697 253.16547 
Q 366.639697 253.03547 366.389697 253.03547 
Q 365.989697 253.03547 365.419697 253.28547 
L 365.279697 253.00297 
L 369.177197 251.22297 
L 369.434697 251.22297 
z
M 374.224697 259.62797 
Q 374.772197 259.62797 375.149697 260.01297 
Q 375.529697 260.39547 375.529697 260.93297 
Q 375.529697 261.47297 375.147197 261.85297 
Q 374.764697 262.23047 374.224697 262.23047 
Q 373.684697 262.23047 373.304697 261.85297 
Q 372.927197 261.47297 372.927197 260.93297 
Q 372.927197 260.39547 373.304697 260.01297 
Q 373.684697 259.62797 374.224697 259.62797 
z
M 382.849697 262.03547 
L 376.614697 262.03547 
L 376.614697 261.86297 
Q 379.482197 258.45047 380.094697 257.27047 
Q 380.709697 256.09047 380.709697 254.96547 
Q 380.709697 254.14547 380.202197 253.60297 
Q 379.694697 253.05797 378.959697 253.05797 
Q 377.757197 253.05797 377.092197 254.26297 
L 376.802197 254.16047 
Q 377.224697 252.66047 378.084697 251.94297 
Q 378.944697 251.22297 380.069697 251.22297 
Q 380.872197 251.22297 381.537197 251.59797 
Q 382.202197 251.97297 382.577197 252.62547 
Q 382.952197 253.27797 382.952197 253.84797 
Q 382.952197 254.88797 382.372197 255.95797 
Q 381.584697 257.40297 378.927197 259.98797 
L 381.217197 259.98797 
Q 382.059697 259.98797 382.314697 259.91797 
Q 382.569697 259.84797 382.732197 259.68047 
Q 382.897197 259.51297 383.162197 258.97297 
L 383.444697 258.97297 
L 382.849697 262.03547 
z
" style="stroke: #ffffff; stroke-width: 3.8"/>
    <path d="M 362.849697 262.03547 
L 356.614697 262.03547 
L 356.614697 261.86297 
Q 359.482197 258.45047 360.094697 257.27047 
Q 360.709697 256.09047 360.709697 254.96547 
Q 360.709697 254.14547 360.202197 253.60297 
Q 359.694697 253.05797 358.959697 253.05797 
Q 357.757197 253.05797 357.092197 254.26297 
L 356.802197 254.16047 
Q 357.224697 252.66047 358.084697 251.94297 
Q 358.944697 251.22297 360.069697 251.22297 
Q 360.872197 251.22297 361.537197 251.59797 
Q 362.202197 251.97297 362.577197 252.62547 
Q 362.952197 253.27797 362.952197 253.84797 
Q 362.952197 254.88797 362.372197 255.95797 
Q 361.584697 257.40297 358.927197 259.98797 
L 361.217197 259.98797 
Q 362.059697 259.98797 362.314697 259.91797 
Q 362.569697 259.84797 362.732197 259.68047 
Q 362.897197 259.51297 363.162197 258.97297 
L 363.444697 258.97297 
L 362.849697 262.03547 
z
M 369.434697 251.22297 
L 369.434697 259.88797 
Q 369.434697 260.86297 369.519697 261.13297 
Q 369.607197 261.40297 369.879697 261.57547 
Q 370.154697 261.74547 370.757197 261.74547 
L 370.997197 261.74547 
L 370.997197 262.03547 
L 365.419697 262.03547 
L 365.419697 261.74547 
L 365.702197 261.74547 
Q 366.382197 261.74547 366.669697 261.59047 
Q 366.959697 261.43297 367.059697 261.16047 
Q 367.162197 260.88797 367.162197 259.88797 
L 367.162197 254.39547 
Q 367.162197 253.66047 367.092197 253.47797 
Q 367.022197 253.29297 366.829697 253.16547 
Q 366.639697 253.03547 366.389697 253.03547 
Q 365.989697 253.03547 365.419697 253.28547 
L 365.279697 253.00297 
L 369.177197 251.22297 
L 369.434697 251.22297 
z
M 374.224697 259.62797 
Q 374.772197 259.62797 375.149697 260.01297 
Q 375.529697 260.39547 375.529697 260.93297 
Q 375.529697 261.47297 375.147197 261.85297 
Q 374.764697 262.23047 374.224697 262.23047 
Q 373.684697 262.23047 373.304697 261.85297 
Q 372.927197 261.47297 372.927197 260.93297 
Q 372.927197 260.39547 373.304697 260.01297 
Q 373.684697 259.62797 374.224697 259.62797 
z
M 382.849697 262.03547 
L 376.614697 262.03547 
L 376.614697 261.86297 
Q 379.482197 258.45047 380.094697 257.27047 
Q 380.709697 256.09047 380.709697 254.96547 
Q 380.709697 254.14547 380.202197 253.60297 
Q 379.694697 253.05797 378.959697 253.05797 
Q 377.757197 253.05797 377.092197 254.26297 
L 376.802197 254.16047 
Q 377.224697 252.66047 378.084697 251.94297 
Q 378.944697 251.22297 380.069697 251.22297 
Q 380.872197 251.22297 381.537197 251.59797 
Q 382.202197 251.97297 382.577197 252.62547 
Q 382.952197 253.27797 382.952197 253.84797 
Q 382.952197 254.88797 382.372197 255.95797 
Q 381.584697 257.40297 378.927197 259.98797 
L 381.217197 259.98797 
Q 382.059697 259.98797 382.314697 259.91797 
Q 382.569697 259.84797 382.732197 259.68047 
Q 382.897197 259.51297 383.162197 258.97297 
L 383.444697 258.97297 
L 382.849697 262.03547 
z
"/>
   </g>
   <g id="text_26">
    <path d="M 358.592197 177.72057 
L 358.592197 177.44807 
Q 359.482197 177.18807 359.824697 176.96557 
Q 360.169697 176.74307 360.419697 176.28807 
Q 360.669697 175.83057 360.669697 175.36057 
Q 360.669697 174.71307 360.197197 174.24807 
Q 359.724697 173.78307 359.022197 173.78307 
Q 357.927197 173.78307 357.162197 174.93807 
L 356.872197 174.83807 
Q 357.434697 173.53307 358.314697 172.87807 
Q 359.194697 172.22057 360.272197 172.22057 
Q 361.372197 172.22057 362.087197 172.89307 
Q 362.802197 173.56307 362.802197 174.46307 
Q 362.802197 175.04807 362.469697 175.59307 
Q 362.139697 176.13557 361.427197 176.54807 
Q 362.342197 176.99307 362.822197 177.64557 
Q 363.302197 178.29807 363.302197 179.28307 
Q 363.302197 180.93807 362.102197 182.10057 
Q 360.904697 183.26057 358.889697 183.26057 
Q 357.544697 183.26057 356.927197 182.81307 
Q 356.482197 182.50057 356.482197 182.01057 
Q 356.482197 181.65057 356.739697 181.39807 
Q 356.997197 181.14307 357.334697 181.14307 
Q 357.592197 181.14307 357.819697 181.25057 
Q 357.944697 181.31307 358.704697 181.93557 
Q 359.467197 182.55557 360.132197 182.55557 
Q 360.709697 182.55557 361.122197 182.10057 
Q 361.537197 181.64307 361.537197 180.93807 
Q 361.537197 179.86807 360.787197 178.96557 
Q 360.037197 178.06307 358.592197 177.72057 
z
M 367.059697 183.25307 
L 369.944697 174.51057 
L 367.747197 174.51057 
Q 366.459697 174.51057 365.809697 174.84557 
Q 365.357197 175.08057 365.059697 175.72807 
L 364.764697 175.72807 
L 365.529697 172.43807 
L 371.842197 172.43807 
L 368.287197 183.25307 
L 367.059697 183.25307 
z
M 374.224697 180.62557 
Q 374.772197 180.62557 375.149697 181.01057 
Q 375.529697 181.39307 375.529697 181.93057 
Q 375.529697 182.47057 375.147197 182.85057 
Q 374.764697 183.22807 374.224697 183.22807 
Q 373.684697 183.22807 373.304697 182.85057 
Q 372.927197 182.47057 372.927197 181.93057 
Q 372.927197 181.39307 373.304697 181.01057 
Q 373.684697 180.62557 374.224697 180.62557 
z
M 383.739697 172.22057 
L 383.739697 172.43807 
Q 382.327197 172.79807 381.469697 173.36557 
Q 380.614697 173.93057 380.117197 174.74057 
Q 379.622197 175.54807 379.349697 176.74307 
Q 379.694697 176.51057 379.919697 176.43807 
Q 380.427197 176.28307 380.944697 176.28307 
Q 382.132197 176.28307 382.924697 177.14807 
Q 383.717197 178.01057 383.717197 179.50057 
Q 383.717197 180.54807 383.287197 181.42307 
Q 382.857197 182.29807 382.067197 182.77557 
Q 381.279697 183.25307 380.382197 183.25307 
Q 379.404697 183.25307 378.574697 182.71807 
Q 377.747197 182.18057 377.282197 181.15057 
Q 376.819697 180.11807 376.819697 178.90807 
Q 376.819697 177.12557 377.674697 175.59057 
Q 378.529697 174.05557 380.102197 173.14557 
Q 381.677197 172.23557 383.739697 172.22057 
z
M 379.247197 177.37557 
Q 379.184697 178.45557 379.184697 178.95557 
Q 379.184697 180.03307 379.392197 181.04057 
Q 379.599697 182.04807 379.959697 182.45557 
Q 380.217197 182.74307 380.569697 182.74307 
Q 380.927197 182.74307 381.207197 182.32557 
Q 381.489697 181.90807 381.489697 180.62557 
Q 381.489697 178.47057 380.967197 177.65057 
Q 380.632197 177.11807 380.059697 177.11807 
Q 379.747197 177.11807 379.247197 177.37557 
z
" style="stroke: #ffffff; stroke-width: 3.8"/>
    <path d="M 358.592197 177.72057 
L 358.592197 177.44807 
Q 359.482197 177.18807 359.824697 176.96557 
Q 360.169697 176.74307 360.419697 176.28807 
Q 360.669697 175.83057 360.669697 175.36057 
Q 360.669697 174.71307 360.197197 174.24807 
Q 359.724697 173.78307 359.022197 173.78307 
Q 357.927197 173.78307 357.162197 174.93807 
L 356.872197 174.83807 
Q 357.434697 173.53307 358.314697 172.87807 
Q 359.194697 172.22057 360.272197 172.22057 
Q 361.372197 172.22057 362.087197 172.89307 
Q 362.802197 173.56307 362.802197 174.46307 
Q 362.802197 175.04807 362.469697 175.59307 
Q 362.139697 176.13557 361.427197 176.54807 
Q 362.342197 176.99307 362.822197 177.64557 
Q 363.302197 178.29807 363.302197 179.28307 
Q 363.302197 180.93807 362.102197 182.10057 
Q 360.904697 183.26057 358.889697 183.26057 
Q 357.544697 183.26057 356.927197 182.81307 
Q 356.482197 182.50057 356.482197 182.01057 
Q 356.482197 181.65057 356.739697 181.39807 
Q 356.997197 181.14307 357.334697 181.14307 
Q 357.592197 181.14307 357.819697 181.25057 
Q 357.944697 181.31307 358.704697 181.93557 
Q 359.467197 182.55557 360.132197 182.55557 
Q 360.709697 182.55557 361.122197 182.10057 
Q 361.537197 181.64307 361.537197 180.93807 
Q 361.537197 179.86807 360.787197 178.96557 
Q 360.037197 178.06307 358.592197 177.72057 
z
M 367.059697 183.25307 
L 369.944697 174.51057 
L 367.747197 174.51057 
Q 366.459697 174.51057 365.809697 174.84557 
Q 365.357197 175.08057 365.059697 175.72807 
L 364.764697 175.72807 
L 365.529697 172.43807 
L 371.842197 172.43807 
L 368.287197 183.25307 
L 367.059697 183.25307 
z
M 374.224697 180.62557 
Q 374.772197 180.62557 375.149697 181.01057 
Q 375.529697 181.39307 375.529697 181.93057 
Q 375.529697 182.47057 375.147197 182.85057 
Q 374.764697 183.22807 374.224697 183.22807 
Q 373.684697 183.22807 373.304697 182.85057 
Q 372.927197 182.47057 372.927197 181.93057 
Q 372.927197 181.39307 373.304697 181.01057 
Q 373.684697 180.62557 374.224697 180.62557 
z
M 383.739697 172.22057 
L 383.739697 172.43807 
Q 382.327197 172.79807 381.469697 173.36557 
Q 380.614697 173.93057 380.117197 174.74057 
Q 379.622197 175.54807 379.349697 176.74307 
Q 379.694697 176.51057 379.919697 176.43807 
Q 380.427197 176.28307 380.944697 176.28307 
Q 382.132197 176.28307 382.924697 177.14807 
Q 383.717197 178.01057 383.717197 179.50057 
Q 383.717197 180.54807 383.287197 181.42307 
Q 382.857197 182.29807 382.067197 182.77557 
Q 381.279697 183.25307 380.382197 183.25307 
Q 379.404697 183.25307 378.574697 182.71807 
Q 377.747197 182.18057 377.282197 181.15057 
Q 376.819697 180.11807 376.819697 178.90807 
Q 376.819697 177.12557 377.674697 175.59057 
Q 378.529697 174.05557 380.102197 173.14557 
Q 381.677197 172.23557 383.739697 172.22057 
z
M 379.247197 177.37557 
Q 379.184697 178.45557 379.184697 178.95557 
Q 379.184697 180.03307 379.392197 181.04057 
Q 379.599697 182.04807 379.959697 182.45557 
Q 380.217197 182.74307 380.569697 182.74307 
Q 380.927197 182.74307 381.207197 182.32557 
Q 381.489697 181.90807 381.489697 180.62557 
Q 381.489697 178.47057 380.967197 177.65057 
Q 380.632197 177.11807 380.059697 177.11807 
Q 379.747197 177.11807 379.247197 177.37557 
z
"/>
   </g>
   <g id="text_27">
    <path d="M 358.662197 97.819437 
L 363.622197 97.819437 
L 362.834697 99.836937 
L 358.662197 99.836937 
L 358.264697 100.891937 
Q 360.959697 100.991937 362.412197 102.234437 
Q 363.607197 103.256937 363.607197 104.781937 
Q 363.607197 105.756937 363.052197 106.691937 
Q 362.497197 107.624437 361.489697 108.129437 
Q 360.482197 108.634437 359.279697 108.634437 
Q 357.982197 108.634437 357.287197 108.149437 
Q 356.802197 107.804437 356.802197 107.366937 
Q 356.802197 107.031937 357.054697 106.774437 
Q 357.309697 106.516937 357.647197 106.516937 
Q 357.952197 106.516937 358.264697 106.641937 
Q 358.577197 106.766937 359.334697 107.296937 
Q 359.809697 107.624437 360.154697 107.749437 
Q 360.397197 107.844437 360.702197 107.844437 
Q 361.342197 107.844437 361.789697 107.376937 
Q 362.239697 106.906937 362.239697 106.249437 
Q 362.239697 104.874437 360.864697 104.016937 
Q 359.489697 103.156937 357.397197 103.156937 
Q 357.184697 103.156937 356.764697 103.164437 
L 358.662197 97.819437 
z
M 366.592197 103.101937 
L 366.592197 102.829437 
Q 367.482197 102.569437 367.824697 102.346937 
Q 368.169697 102.124437 368.419697 101.669437 
Q 368.669697 101.211937 368.669697 100.741937 
Q 368.669697 100.094437 368.197197 99.629437 
Q 367.724697 99.164437 367.022197 99.164437 
Q 365.927197 99.164437 365.162197 100.319437 
L 364.872197 100.219437 
Q 365.434697 98.914437 366.314697 98.259437 
Q 367.194697 97.601937 368.272197 97.601937 
Q 369.372197 97.601937 370.087197 98.274437 
Q 370.802197 98.944437 370.802197 99.844437 
Q 370.802197 100.429437 370.469697 100.974437 
Q 370.139697 101.516937 369.427197 101.929437 
Q 370.342197 102.374437 370.822197 103.026937 
Q 371.302197 103.679437 371.302197 104.664437 
Q 371.302197 106.319437 370.102197 107.481937 
Q 368.904697 108.641937 366.889697 108.641937 
Q 365.544697 108.641937 364.927197 108.194437 
Q 364.482197 107.881937 364.482197 107.391937 
Q 364.482197 107.031937 364.739697 106.779437 
Q 364.997197 106.524437 365.334697 106.524437 
Q 365.592197 106.524437 365.819697 106.631937 
Q 365.944697 106.694437 366.704697 107.316937 
Q 367.467197 107.936937 368.132197 107.936937 
Q 368.709697 107.936937 369.122197 107.481937 
Q 369.537197 107.024437 369.537197 106.319437 
Q 369.537197 105.249437 368.787197 104.346937 
Q 368.037197 103.444437 366.592197 103.101937 
z
M 374.224697 106.006937 
Q 374.772197 106.006937 375.149697 106.391937 
Q 375.529697 106.774437 375.529697 107.311937 
Q 375.529697 107.851937 375.147197 108.231937 
Q 374.764697 108.609437 374.224697 108.609437 
Q 373.684697 108.609437 373.304697 108.231937 
Q 372.927197 107.851937 372.927197 107.311937 
Q 372.927197 106.774437 373.304697 106.391937 
Q 373.684697 106.006937 374.224697 106.006937 
z
M 381.434697 97.601937 
L 381.434697 106.266937 
Q 381.434697 107.241937 381.519697 107.511937 
Q 381.607197 107.781937 381.879697 107.954437 
Q 382.154697 108.124437 382.757197 108.124437 
L 382.997197 108.124437 
L 382.997197 108.414437 
L 377.419697 108.414437 
L 377.419697 108.124437 
L 377.702197 108.124437 
Q 378.382197 108.124437 378.669697 107.969437 
Q 378.959697 107.811937 379.059697 107.539437 
Q 379.162197 107.266937 379.162197 106.266937 
L 379.162197 100.774437 
Q 379.162197 100.039437 379.092197 99.856937 
Q 379.022197 99.671937 378.829697 99.544437 
Q 378.639697 99.414437 378.389697 99.414437 
Q 377.989697 99.414437 377.419697 99.664437 
L 377.279697 99.381937 
L 381.177197 97.601937 
L 381.434697 97.601937 
z
" style="stroke: #ffffff; stroke-width: 3.8"/>
    <path d="M 358.662197 97.819437 
L 363.622197 97.819437 
L 362.834697 99.836937 
L 358.662197 99.836937 
L 358.264697 100.891937 
Q 360.959697 100.991937 362.412197 102.234437 
Q 363.607197 103.256937 363.607197 104.781937 
Q 363.607197 105.756937 363.052197 106.691937 
Q 362.497197 107.624437 361.489697 108.129437 
Q 360.482197 108.634437 359.279697 108.634437 
Q 357.982197 108.634437 357.287197 108.149437 
Q 356.802197 107.804437 356.802197 107.366937 
Q 356.802197 107.031937 357.054697 106.774437 
Q 357.309697 106.516937 357.647197 106.516937 
Q 357.952197 106.516937 358.264697 106.641937 
Q 358.577197 106.766937 359.334697 107.296937 
Q 359.809697 107.624437 360.154697 107.749437 
Q 360.397197 107.844437 360.702197 107.844437 
Q 361.342197 107.844437 361.789697 107.376937 
Q 362.239697 106.906937 362.239697 106.249437 
Q 362.239697 104.874437 360.864697 104.016937 
Q 359.489697 103.156937 357.397197 103.156937 
Q 357.184697 103.156937 356.764697 103.164437 
L 358.662197 97.819437 
z
M 366.592197 103.101937 
L 366.592197 102.829437 
Q 367.482197 102.569437 367.824697 102.346937 
Q 368.169697 102.124437 368.419697 101.669437 
Q 368.669697 101.211937 368.669697 100.741937 
Q 368.669697 100.094437 368.197197 99.629437 
Q 367.724697 99.164437 367.022197 99.164437 
Q 365.927197 99.164437 365.162197 100.319437 
L 364.872197 100.219437 
Q 365.434697 98.914437 366.314697 98.259437 
Q 367.194697 97.601937 368.272197 97.601937 
Q 369.372197 97.601937 370.087197 98.274437 
Q 370.802197 98.944437 370.802197 99.844437 
Q 370.802197 100.429437 370.469697 100.974437 
Q 370.139697 101.516937 369.427197 101.929437 
Q 370.342197 102.374437 370.822197 103.026937 
Q 371.302197 103.679437 371.302197 104.664437 
Q 371.302197 106.319437 370.102197 107.481937 
Q 368.904697 108.641937 366.889697 108.641937 
Q 365.544697 108.641937 364.927197 108.194437 
Q 364.482197 107.881937 364.482197 107.391937 
Q 364.482197 107.031937 364.739697 106.779437 
Q 364.997197 106.524437 365.334697 106.524437 
Q 365.592197 106.524437 365.819697 106.631937 
Q 365.944697 106.694437 366.704697 107.316937 
Q 367.467197 107.936937 368.132197 107.936937 
Q 368.709697 107.936937 369.122197 107.481937 
Q 369.537197 107.024437 369.537197 106.319437 
Q 369.537197 105.249437 368.787197 104.346937 
Q 368.037197 103.444437 366.592197 103.101937 
z
M 374.224697 106.006937 
Q 374.772197 106.006937 375.149697 106.391937 
Q 375.529697 106.774437 375.529697 107.311937 
Q 375.529697 107.851937 375.147197 108.231937 
Q 374.764697 108.609437 374.224697 108.609437 
Q 373.684697 108.609437 373.304697 108.231937 
Q 372.927197 107.851937 372.927197 107.311937 
Q 372.927197 106.774437 373.304697 106.391937 
Q 373.684697 106.006937 374.224697 106.006937 
z
M 381.434697 97.601937 
L 381.434697 106.266937 
Q 381.434697 107.241937 381.519697 107.511937 
Q 381.607197 107.781937 381.879697 107.954437 
Q 382.154697 108.124437 382.757197 108.124437 
L 382.997197 108.124437 
L 382.997197 108.414437 
L 377.419697 108.414437 
L 377.419697 108.124437 
L 377.702197 108.124437 
Q 378.382197 108.124437 378.669697 107.969437 
Q 378.959697 107.811937 379.059697 107.539437 
Q 379.162197 107.266937 379.162197 106.266937 
L 379.162197 100.774437 
Q 379.162197 100.039437 379.092197 99.856937 
Q 379.022197 99.671937 378.829697 99.544437 
Q 378.639697 99.414437 378.389697 99.414437 
Q 377.989697 99.414437 377.419697 99.664437 
L 377.279697 99.381937 
L 381.177197 97.601937 
L 381.434697 97.601937 
z
"/>
   </g>
   <g id="text_28">
    <path d="M 574.521172 194.281382 
L 574.521172 194.008882 
Q 575.411172 193.748882 575.753672 193.526382 
Q 576.098672 193.303882 576.348672 192.848882 
Q 576.598672 192.391382 576.598672 191.921382 
Q 576.598672 191.273882 576.126172 190.808882 
Q 575.653672 190.343882 574.951172 190.343882 
Q 573.856172 190.343882 573.091172 191.498882 
L 572.801172 191.398882 
Q 573.363672 190.093882 574.243672 189.438882 
Q 575.123672 188.781382 576.201172 188.781382 
Q 577.301172 188.781382 578.016172 189.453882 
Q 578.731172 190.123882 578.731172 191.023882 
Q 578.731172 191.608882 578.398672 192.153882 
Q 578.068672 192.696382 577.356172 193.108882 
Q 578.271172 193.553882 578.751172 194.206382 
Q 579.231172 194.858882 579.231172 195.843882 
Q 579.231172 197.498882 578.031172 198.661382 
Q 576.833672 199.821382 574.818672 199.821382 
Q 573.473672 199.821382 572.856172 199.373882 
Q 572.411172 199.061382 572.411172 198.571382 
Q 572.411172 198.211382 572.668672 197.958882 
Q 572.926172 197.703882 573.263672 197.703882 
Q 573.521172 197.703882 573.748672 197.811382 
Q 573.873672 197.873882 574.633672 198.496382 
Q 575.396172 199.116382 576.061172 199.116382 
Q 576.638672 199.116382 577.051172 198.661382 
Q 577.466172 198.203882 577.466172 197.498882 
Q 577.466172 196.428882 576.716172 195.526382 
Q 575.966172 194.623882 574.521172 194.281382 
z
M 580.551172 195.601382 
L 585.583672 188.781382 
L 586.536172 188.781382 
L 586.536172 195.601382 
L 587.506172 195.601382 
L 587.506172 197.218882 
L 586.536172 197.218882 
L 586.536172 199.593882 
L 584.388672 199.593882 
L 584.388672 197.218882 
L 580.551172 197.218882 
L 580.551172 195.601382 
z
M 581.311172 195.601382 
L 584.388672 195.601382 
L 584.388672 191.421382 
L 581.311172 195.601382 
z
M 590.153672 197.186382 
Q 590.701172 197.186382 591.078672 197.571382 
Q 591.458672 197.953882 591.458672 198.491382 
Q 591.458672 199.031382 591.076172 199.411382 
Q 590.693672 199.788882 590.153672 199.788882 
Q 589.613672 199.788882 589.233672 199.411382 
Q 588.856172 199.031382 588.856172 198.491382 
Q 588.856172 197.953882 589.233672 197.571382 
Q 589.613672 197.186382 590.153672 197.186382 
z
M 592.551172 195.601382 
L 597.583672 188.781382 
L 598.536172 188.781382 
L 598.536172 195.601382 
L 599.506172 195.601382 
L 599.506172 197.218882 
L 598.536172 197.218882 
L 598.536172 199.593882 
L 596.388672 199.593882 
L 596.388672 197.218882 
L 592.551172 197.218882 
L 592.551172 195.601382 
z
M 593.311172 195.601382 
L 596.388672 195.601382 
L 596.388672 191.421382 
L 593.311172 195.601382 
z
" style="stroke: #ffffff; stroke-width: 3.8"/>
    <path d="M 574.521172 194.281382 
L 574.521172 194.008882 
Q 575.411172 193.748882 575.753672 193.526382 
Q 576.098672 193.303882 576.348672 192.848882 
Q 576.598672 192.391382 576.598672 191.921382 
Q 576.598672 191.273882 576.126172 190.808882 
Q 575.653672 190.343882 574.951172 190.343882 
Q 573.856172 190.343882 573.091172 191.498882 
L 572.801172 191.398882 
Q 573.363672 190.093882 574.243672 189.438882 
Q 575.123672 188.781382 576.201172 188.781382 
Q 577.301172 188.781382 578.016172 189.453882 
Q 578.731172 190.123882 578.731172 191.023882 
Q 578.731172 191.608882 578.398672 192.153882 
Q 578.068672 192.696382 577.356172 193.108882 
Q 578.271172 193.553882 578.751172 194.206382 
Q 579.231172 194.858882 579.231172 195.843882 
Q 579.231172 197.498882 578.031172 198.661382 
Q 576.833672 199.821382 574.818672 199.821382 
Q 573.473672 199.821382 572.856172 199.373882 
Q 572.411172 199.061382 572.411172 198.571382 
Q 572.411172 198.211382 572.668672 197.958882 
Q 572.926172 197.703882 573.263672 197.703882 
Q 573.521172 197.703882 573.748672 197.811382 
Q 573.873672 197.873882 574.633672 198.496382 
Q 575.396172 199.116382 576.061172 199.116382 
Q 576.638672 199.116382 577.051172 198.661382 
Q 577.466172 198.203882 577.466172 197.498882 
Q 577.466172 196.428882 576.716172 195.526382 
Q 575.966172 194.623882 574.521172 194.281382 
z
M 580.551172 195.601382 
L 585.583672 188.781382 
L 586.536172 188.781382 
L 586.536172 195.601382 
L 587.506172 195.601382 
L 587.506172 197.218882 
L 586.536172 197.218882 
L 586.536172 199.593882 
L 584.388672 199.593882 
L 584.388672 197.218882 
L 580.551172 197.218882 
L 580.551172 195.601382 
z
M 581.311172 195.601382 
L 584.388672 195.601382 
L 584.388672 191.421382 
L 581.311172 195.601382 
z
M 590.153672 197.186382 
Q 590.701172 197.186382 591.078672 197.571382 
Q 591.458672 197.953882 591.458672 198.491382 
Q 591.458672 199.031382 591.076172 199.411382 
Q 590.693672 199.788882 590.153672 199.788882 
Q 589.613672 199.788882 589.233672 199.411382 
Q 588.856172 199.031382 588.856172 198.491382 
Q 588.856172 197.953882 589.233672 197.571382 
Q 589.613672 197.186382 590.153672 197.186382 
z
M 592.551172 195.601382 
L 597.583672 188.781382 
L 598.536172 188.781382 
L 598.536172 195.601382 
L 599.506172 195.601382 
L 599.506172 197.218882 
L 598.536172 197.218882 
L 598.536172 199.593882 
L 596.388672 199.593882 
L 596.388672 197.218882 
L 592.551172 197.218882 
L 592.551172 195.601382 
z
M 593.311172 195.601382 
L 596.388672 195.601382 
L 596.388672 191.421382 
L 593.311172 195.601382 
z
"/>
   </g>
   <g id="text_29">
    <path d="M 564.039338 360.525663 
Q 564.039338 362.013944 563.62215 363.303006 
Q 563.371369 364.09285 562.949494 364.5991 
Q 562.529963 365.103006 561.995588 365.400663 
Q 561.461213 365.698319 560.830744 365.698319 
Q 560.113557 365.698319 559.53465 365.332694 
Q 558.955744 364.964725 558.508088 364.282694 
Q 558.186994 363.785819 557.945588 362.958475 
Q 557.629182 361.838163 557.629182 360.64285 
Q 557.629182 359.025663 558.083869 357.668631 
Q 558.456525 356.548319 559.218244 355.953006 
Q 559.979963 355.35535 560.830744 355.35535 
Q 561.695588 355.35535 562.445588 355.945975 
Q 563.195588 356.534256 563.54715 357.53035 
Q 564.039338 358.8991 564.039338 360.525663 
z
M 561.782307 360.5116 
Q 561.782307 357.903006 561.754182 357.471756 
Q 561.679182 356.454569 561.402619 356.095975 
Q 561.219807 355.8616 560.80965 355.8616 
Q 560.493244 355.8616 560.310432 356.037381 
Q 560.038557 356.29285 559.942463 356.942069 
Q 559.848713 357.588944 559.848713 361.463163 
Q 559.848713 363.572538 559.996369 364.289725 
Q 560.106525 364.810038 560.310432 364.985819 
Q 560.516682 365.1616 560.851838 365.1616 
Q 561.219807 365.1616 561.402619 364.927225 
Q 561.70965 364.517069 561.754182 363.6616 
L 561.782307 360.5116 
z
M 566.462775 363.235038 
Q 566.976057 363.235038 567.329963 363.595975 
Q 567.686213 363.954569 567.686213 364.458475 
Q 567.686213 364.964725 567.327619 365.320975 
Q 566.969025 365.674881 566.462775 365.674881 
Q 565.956525 365.674881 565.600275 365.320975 
Q 565.246369 364.964725 565.246369 364.458475 
Q 565.246369 363.954569 565.600275 363.595975 
Q 565.956525 363.235038 566.462775 363.235038 
z
M 570.995588 365.698319 
L 573.700275 357.502225 
L 571.640119 357.502225 
Q 570.433088 357.502225 569.823713 357.816288 
Q 569.399494 358.0366 569.120588 358.643631 
L 568.844025 358.643631 
L 569.561213 355.559256 
L 575.479182 355.559256 
L 572.146369 365.698319 
L 570.995588 365.698319 
z
" style="fill: #404040; stroke: #ffffff; stroke-width: 3.8"/>
    <path d="M 564.039338 360.525663 
Q 564.039338 362.013944 563.62215 363.303006 
Q 563.371369 364.09285 562.949494 364.5991 
Q 562.529963 365.103006 561.995588 365.400663 
Q 561.461213 365.698319 560.830744 365.698319 
Q 560.113557 365.698319 559.53465 365.332694 
Q 558.955744 364.964725 558.508088 364.282694 
Q 558.186994 363.785819 557.945588 362.958475 
Q 557.629182 361.838163 557.629182 360.64285 
Q 557.629182 359.025663 558.083869 357.668631 
Q 558.456525 356.548319 559.218244 355.953006 
Q 559.979963 355.35535 560.830744 355.35535 
Q 561.695588 355.35535 562.445588 355.945975 
Q 563.195588 356.534256 563.54715 357.53035 
Q 564.039338 358.8991 564.039338 360.525663 
z
M 561.782307 360.5116 
Q 561.782307 357.903006 561.754182 357.471756 
Q 561.679182 356.454569 561.402619 356.095975 
Q 561.219807 355.8616 560.80965 355.8616 
Q 560.493244 355.8616 560.310432 356.037381 
Q 560.038557 356.29285 559.942463 356.942069 
Q 559.848713 357.588944 559.848713 361.463163 
Q 559.848713 363.572538 559.996369 364.289725 
Q 560.106525 364.810038 560.310432 364.985819 
Q 560.516682 365.1616 560.851838 365.1616 
Q 561.219807 365.1616 561.402619 364.927225 
Q 561.70965 364.517069 561.754182 363.6616 
L 561.782307 360.5116 
z
M 566.462775 363.235038 
Q 566.976057 363.235038 567.329963 363.595975 
Q 567.686213 363.954569 567.686213 364.458475 
Q 567.686213 364.964725 567.327619 365.320975 
Q 566.969025 365.674881 566.462775 365.674881 
Q 565.956525 365.674881 565.600275 365.320975 
Q 565.246369 364.964725 565.246369 364.458475 
Q 565.246369 363.954569 565.600275 363.595975 
Q 565.956525 363.235038 566.462775 363.235038 
z
M 570.995588 365.698319 
L 573.700275 357.502225 
L 571.640119 357.502225 
Q 570.433088 357.502225 569.823713 357.816288 
Q 569.399494 358.0366 569.120588 358.643631 
L 568.844025 358.643631 
L 569.561213 355.559256 
L 575.479182 355.559256 
L 572.146369 365.698319 
L 570.995588 365.698319 
z
" style="fill: #404040"/>
   </g>
   <g id="text_30">
    <path d="M 568.961768 299.099458 
L 563.116455 299.099458 
L 563.116455 298.93774 
Q 565.804736 295.738521 566.378955 294.632271 
Q 566.955518 293.526021 566.955518 292.471333 
Q 566.955518 291.702583 566.479736 291.19399 
Q 566.003955 290.683052 565.314893 290.683052 
Q 564.187549 290.683052 563.564111 291.81274 
L 563.292236 291.716646 
Q 563.68833 290.310396 564.49458 289.63774 
Q 565.30083 288.96274 566.355518 288.96274 
Q 567.107861 288.96274 567.731299 289.314302 
Q 568.354736 289.665865 568.706299 290.277583 
Q 569.057861 290.889302 569.057861 291.423677 
Q 569.057861 292.398677 568.514111 293.401802 
Q 567.77583 294.75649 565.284424 297.179927 
L 567.431299 297.179927 
Q 568.221143 297.179927 568.460205 297.114302 
Q 568.699268 297.048677 568.851611 296.891646 
Q 569.006299 296.734615 569.254736 296.228365 
L 569.51958 296.228365 
L 568.961768 299.099458 
z
M 572.908643 299.305708 
L 575.61333 291.109615 
L 573.553174 291.109615 
Q 572.346143 291.109615 571.736768 291.423677 
Q 571.312549 291.64399 571.033643 292.251021 
L 570.75708 292.251021 
L 571.474268 289.166646 
L 577.392236 289.166646 
L 574.059424 299.305708 
L 572.908643 299.305708 
z
M 579.62583 296.842427 
Q 580.139111 296.842427 580.493018 297.203365 
Q 580.849268 297.561958 580.849268 298.065865 
Q 580.849268 298.572115 580.490674 298.928365 
Q 580.13208 299.282271 579.62583 299.282271 
Q 579.11958 299.282271 578.76333 298.928365 
Q 578.409424 298.572115 578.409424 298.065865 
Q 578.409424 297.561958 578.76333 297.203365 
Q 579.11958 296.842427 579.62583 296.842427 
z
M 583.720361 294.11899 
L 583.720361 293.863521 
Q 584.554736 293.619771 584.87583 293.411177 
Q 585.199268 293.202583 585.433643 292.776021 
Q 585.668018 292.347115 585.668018 291.90649 
Q 585.668018 291.299458 585.225049 290.863521 
Q 584.78208 290.427583 584.123486 290.427583 
Q 583.096924 290.427583 582.379736 291.510396 
L 582.107861 291.416646 
Q 582.635205 290.193208 583.460205 289.579146 
Q 584.285205 288.96274 585.295361 288.96274 
Q 586.326611 288.96274 586.996924 289.593208 
Q 587.667236 290.221333 587.667236 291.065083 
Q 587.667236 291.613521 587.355518 292.124458 
Q 587.046143 292.633052 586.378174 293.019771 
Q 587.235986 293.436958 587.685986 294.048677 
Q 588.135986 294.660396 588.135986 295.583833 
Q 588.135986 297.135396 587.010986 298.22524 
Q 585.88833 299.31274 583.999268 299.31274 
Q 582.73833 299.31274 582.159424 298.893208 
Q 581.742236 298.60024 581.742236 298.140865 
Q 581.742236 297.803365 581.983643 297.566646 
Q 582.225049 297.327583 582.541455 297.327583 
Q 582.782861 297.327583 582.996143 297.428365 
Q 583.11333 297.486958 583.82583 298.070552 
Q 584.540674 298.651802 585.164111 298.651802 
Q 585.705518 298.651802 586.092236 298.22524 
Q 586.481299 297.796333 586.481299 297.135396 
Q 586.481299 296.132271 585.778174 295.286177 
Q 585.075049 294.440083 583.720361 294.11899 
z
" style="fill: #404040; stroke: #ffffff; stroke-width: 3.8"/>
    <path d="M 568.961768 299.099458 
L 563.116455 299.099458 
L 563.116455 298.93774 
Q 565.804736 295.738521 566.378955 294.632271 
Q 566.955518 293.526021 566.955518 292.471333 
Q 566.955518 291.702583 566.479736 291.19399 
Q 566.003955 290.683052 565.314893 290.683052 
Q 564.187549 290.683052 563.564111 291.81274 
L 563.292236 291.716646 
Q 563.68833 290.310396 564.49458 289.63774 
Q 565.30083 288.96274 566.355518 288.96274 
Q 567.107861 288.96274 567.731299 289.314302 
Q 568.354736 289.665865 568.706299 290.277583 
Q 569.057861 290.889302 569.057861 291.423677 
Q 569.057861 292.398677 568.514111 293.401802 
Q 567.77583 294.75649 565.284424 297.179927 
L 567.431299 297.179927 
Q 568.221143 297.179927 568.460205 297.114302 
Q 568.699268 297.048677 568.851611 296.891646 
Q 569.006299 296.734615 569.254736 296.228365 
L 569.51958 296.228365 
L 568.961768 299.099458 
z
M 572.908643 299.305708 
L 575.61333 291.109615 
L 573.553174 291.109615 
Q 572.346143 291.109615 571.736768 291.423677 
Q 571.312549 291.64399 571.033643 292.251021 
L 570.75708 292.251021 
L 571.474268 289.166646 
L 577.392236 289.166646 
L 574.059424 299.305708 
L 572.908643 299.305708 
z
M 579.62583 296.842427 
Q 580.139111 296.842427 580.493018 297.203365 
Q 580.849268 297.561958 580.849268 298.065865 
Q 580.849268 298.572115 580.490674 298.928365 
Q 580.13208 299.282271 579.62583 299.282271 
Q 579.11958 299.282271 578.76333 298.928365 
Q 578.409424 298.572115 578.409424 298.065865 
Q 578.409424 297.561958 578.76333 297.203365 
Q 579.11958 296.842427 579.62583 296.842427 
z
M 583.720361 294.11899 
L 583.720361 293.863521 
Q 584.554736 293.619771 584.87583 293.411177 
Q 585.199268 293.202583 585.433643 292.776021 
Q 585.668018 292.347115 585.668018 291.90649 
Q 585.668018 291.299458 585.225049 290.863521 
Q 584.78208 290.427583 584.123486 290.427583 
Q 583.096924 290.427583 582.379736 291.510396 
L 582.107861 291.416646 
Q 582.635205 290.193208 583.460205 289.579146 
Q 584.285205 288.96274 585.295361 288.96274 
Q 586.326611 288.96274 586.996924 289.593208 
Q 587.667236 290.221333 587.667236 291.065083 
Q 587.667236 291.613521 587.355518 292.124458 
Q 587.046143 292.633052 586.378174 293.019771 
Q 587.235986 293.436958 587.685986 294.048677 
Q 588.135986 294.660396 588.135986 295.583833 
Q 588.135986 297.135396 587.010986 298.22524 
Q 585.88833 299.31274 583.999268 299.31274 
Q 582.73833 299.31274 582.159424 298.893208 
Q 581.742236 298.60024 581.742236 298.140865 
Q 581.742236 297.803365 581.983643 297.566646 
Q 582.225049 297.327583 582.541455 297.327583 
Q 582.782861 297.327583 582.996143 297.428365 
Q 583.11333 297.486958 583.82583 298.070552 
Q 584.540674 298.651802 585.164111 298.651802 
Q 585.705518 298.651802 586.092236 298.22524 
Q 586.481299 297.796333 586.481299 297.135396 
Q 586.481299 296.132271 585.778174 295.286177 
Q 585.075049 294.440083 583.720361 294.11899 
z
" style="fill: #404040"/>
   </g>
   <g id="text_31">
    <path d="M 537.055631 263.995246 
Q 537.055631 265.483527 536.638443 266.77259 
Q 536.387662 267.562434 535.965787 268.068684 
Q 535.546256 268.57259 535.011881 268.870246 
Q 534.477506 269.167902 533.847037 269.167902 
Q 533.12985 269.167902 532.550943 268.802277 
Q 531.972037 268.434309 531.524381 267.752277 
Q 531.203287 267.255402 530.961881 266.428059 
Q 530.645475 265.307746 530.645475 264.112434 
Q 530.645475 262.495246 531.100162 261.138215 
Q 531.472818 260.017902 532.234537 259.42259 
Q 532.996256 258.824934 533.847037 258.824934 
Q 534.711881 258.824934 535.461881 259.415559 
Q 536.211881 260.00384 536.563443 260.999934 
Q 537.055631 262.368684 537.055631 263.995246 
z
M 534.7986 263.981184 
Q 534.7986 261.37259 534.770475 260.94134 
Q 534.695475 259.924152 534.418912 259.565559 
Q 534.2361 259.331184 533.825943 259.331184 
Q 533.509537 259.331184 533.326725 259.506965 
Q 533.05485 259.762434 532.958756 260.411652 
Q 532.865006 261.058527 532.865006 264.932746 
Q 532.865006 267.042121 533.012662 267.759309 
Q 533.122818 268.279621 533.326725 268.455402 
Q 533.532975 268.631184 533.868131 268.631184 
Q 534.2361 268.631184 534.418912 268.396809 
Q 534.725943 267.986652 534.770475 267.131184 
L 534.7986 263.981184 
z
M 539.479068 266.704621 
Q 539.99235 266.704621 540.346256 267.065559 
Q 540.702506 267.424152 540.702506 267.928059 
Q 540.702506 268.434309 540.343912 268.790559 
Q 539.985318 269.144465 539.479068 269.144465 
Q 538.972818 269.144465 538.616568 268.790559 
Q 538.262662 268.434309 538.262662 267.928059 
Q 538.262662 267.424152 538.616568 267.065559 
Q 538.972818 266.704621 539.479068 266.704621 
z
M 548.305631 263.995246 
Q 548.305631 265.483527 547.888443 266.77259 
Q 547.637662 267.562434 547.215787 268.068684 
Q 546.796256 268.57259 546.261881 268.870246 
Q 545.727506 269.167902 545.097037 269.167902 
Q 544.37985 269.167902 543.800943 268.802277 
Q 543.222037 268.434309 542.774381 267.752277 
Q 542.453287 267.255402 542.211881 266.428059 
Q 541.895475 265.307746 541.895475 264.112434 
Q 541.895475 262.495246 542.350162 261.138215 
Q 542.722818 260.017902 543.484537 259.42259 
Q 544.246256 258.824934 545.097037 258.824934 
Q 545.961881 258.824934 546.711881 259.415559 
Q 547.461881 260.00384 547.813443 260.999934 
Q 548.305631 262.368684 548.305631 263.995246 
z
M 546.0486 263.981184 
Q 546.0486 261.37259 546.020475 260.94134 
Q 545.945475 259.924152 545.668912 259.565559 
Q 545.4861 259.331184 545.075943 259.331184 
Q 544.759537 259.331184 544.576725 259.506965 
Q 544.30485 259.762434 544.208756 260.411652 
Q 544.115006 261.058527 544.115006 264.932746 
Q 544.115006 267.042121 544.262662 267.759309 
Q 544.372818 268.279621 544.576725 268.455402 
Q 544.782975 268.631184 545.118131 268.631184 
Q 545.4861 268.631184 545.668912 268.396809 
Q 545.975943 267.986652 546.020475 267.131184 
L 546.0486 263.981184 
z
" style="fill: #404040; stroke: #ffffff; stroke-width: 3.8"/>
    <path d="M 537.055631 263.995246 
Q 537.055631 265.483527 536.638443 266.77259 
Q 536.387662 267.562434 535.965787 268.068684 
Q 535.546256 268.57259 535.011881 268.870246 
Q 534.477506 269.167902 533.847037 269.167902 
Q 533.12985 269.167902 532.550943 268.802277 
Q 531.972037 268.434309 531.524381 267.752277 
Q 531.203287 267.255402 530.961881 266.428059 
Q 530.645475 265.307746 530.645475 264.112434 
Q 530.645475 262.495246 531.100162 261.138215 
Q 531.472818 260.017902 532.234537 259.42259 
Q 532.996256 258.824934 533.847037 258.824934 
Q 534.711881 258.824934 535.461881 259.415559 
Q 536.211881 260.00384 536.563443 260.999934 
Q 537.055631 262.368684 537.055631 263.995246 
z
M 534.7986 263.981184 
Q 534.7986 261.37259 534.770475 260.94134 
Q 534.695475 259.924152 534.418912 259.565559 
Q 534.2361 259.331184 533.825943 259.331184 
Q 533.509537 259.331184 533.326725 259.506965 
Q 533.05485 259.762434 532.958756 260.411652 
Q 532.865006 261.058527 532.865006 264.932746 
Q 532.865006 267.042121 533.012662 267.759309 
Q 533.122818 268.279621 533.326725 268.455402 
Q 533.532975 268.631184 533.868131 268.631184 
Q 534.2361 268.631184 534.418912 268.396809 
Q 534.725943 267.986652 534.770475 267.131184 
L 534.7986 263.981184 
z
M 539.479068 266.704621 
Q 539.99235 266.704621 540.346256 267.065559 
Q 540.702506 267.424152 540.702506 267.928059 
Q 540.702506 268.434309 540.343912 268.790559 
Q 539.985318 269.144465 539.479068 269.144465 
Q 538.972818 269.144465 538.616568 268.790559 
Q 538.262662 268.434309 538.262662 267.928059 
Q 538.262662 267.424152 538.616568 267.065559 
Q 538.972818 266.704621 539.479068 266.704621 
z
M 548.305631 263.995246 
Q 548.305631 265.483527 547.888443 266.77259 
Q 547.637662 267.562434 547.215787 268.068684 
Q 546.796256 268.57259 546.261881 268.870246 
Q 545.727506 269.167902 545.097037 269.167902 
Q 544.37985 269.167902 543.800943 268.802277 
Q 543.222037 268.434309 542.774381 267.752277 
Q 542.453287 267.255402 542.211881 266.428059 
Q 541.895475 265.307746 541.895475 264.112434 
Q 541.895475 262.495246 542.350162 261.138215 
Q 542.722818 260.017902 543.484537 259.42259 
Q 544.246256 258.824934 545.097037 258.824934 
Q 545.961881 258.824934 546.711881 259.415559 
Q 547.461881 260.00384 547.813443 260.999934 
Q 548.305631 262.368684 548.305631 263.995246 
z
M 546.0486 263.981184 
Q 546.0486 261.37259 546.020475 260.94134 
Q 545.945475 259.924152 545.668912 259.565559 
Q 545.4861 259.331184 545.075943 259.331184 
Q 544.759537 259.331184 544.576725 259.506965 
Q 544.30485 259.762434 544.208756 260.411652 
Q 544.115006 261.058527 544.115006 264.932746 
Q 544.115006 267.042121 544.262662 267.759309 
Q 544.372818 268.279621 544.576725 268.455402 
Q 544.782975 268.631184 545.118131 268.631184 
Q 545.4861 268.631184 545.668912 268.396809 
Q 545.975943 267.986652 546.020475 267.131184 
L 546.0486 263.981184 
z
" style="fill: #404040"/>
   </g>
   <g id="text_32">
    <path d="M 321.790961 323.991391 
L 321.790961 323.735922 
Q 322.625336 323.492172 322.946429 323.283578 
Q 323.269867 323.074984 323.504242 322.648422 
Q 323.738617 322.219516 323.738617 321.778891 
Q 323.738617 321.171859 323.295648 320.735922 
Q 322.852679 320.299984 322.194086 320.299984 
Q 321.167523 320.299984 320.450336 321.382797 
L 320.178461 321.289047 
Q 320.705804 320.065609 321.530804 319.451547 
Q 322.355804 318.835141 323.365961 318.835141 
Q 324.397211 318.835141 325.067523 319.465609 
Q 325.737836 320.093734 325.737836 320.937484 
Q 325.737836 321.485922 325.426117 321.996859 
Q 325.116742 322.505453 324.448773 322.892172 
Q 325.306586 323.309359 325.756586 323.921078 
Q 326.206586 324.532797 326.206586 325.456234 
Q 326.206586 327.007797 325.081586 328.097641 
Q 323.958929 329.185141 322.069867 329.185141 
Q 320.808929 329.185141 320.230023 328.765609 
Q 319.812836 328.472641 319.812836 328.013266 
Q 319.812836 327.675766 320.054242 327.439047 
Q 320.295648 327.199984 320.612054 327.199984 
Q 320.853461 327.199984 321.066742 327.300766 
Q 321.183929 327.359359 321.896429 327.942953 
Q 322.611273 328.524203 323.234711 328.524203 
Q 323.776117 328.524203 324.162836 328.097641 
Q 324.551898 327.668734 324.551898 327.007797 
Q 324.551898 326.004672 323.848773 325.158578 
Q 323.145648 324.312484 321.790961 323.991391 
z
M 329.356586 319.039047 
L 334.006586 319.039047 
L 333.268304 320.930453 
L 329.356586 320.930453 
L 328.983929 321.919516 
Q 331.510492 322.013266 332.872211 323.178109 
Q 333.992523 324.136703 333.992523 325.566391 
Q 333.992523 326.480453 333.472211 327.357016 
Q 332.951898 328.231234 332.007367 328.704672 
Q 331.062836 329.178109 329.935492 329.178109 
Q 328.719086 329.178109 328.067523 328.723422 
Q 327.612836 328.399984 327.612836 327.989828 
Q 327.612836 327.675766 327.849554 327.434359 
Q 328.088617 327.192953 328.405023 327.192953 
Q 328.690961 327.192953 328.983929 327.310141 
Q 329.276898 327.427328 329.987054 327.924203 
Q 330.432367 328.231234 330.755804 328.348422 
Q 330.983148 328.437484 331.269086 328.437484 
Q 331.869086 328.437484 332.288617 327.999203 
Q 332.710492 327.558578 332.710492 326.942172 
Q 332.710492 325.653109 331.421429 324.849203 
Q 330.132367 324.042953 328.170648 324.042953 
Q 327.971429 324.042953 327.577679 324.049984 
L 329.356586 319.039047 
z
M 336.446429 326.714828 
Q 336.959711 326.714828 337.313617 327.075766 
Q 337.669867 327.434359 337.669867 327.938266 
Q 337.669867 328.444516 337.311273 328.800766 
Q 336.952679 329.154672 336.446429 329.154672 
Q 335.940179 329.154672 335.583929 328.800766 
Q 335.230023 328.444516 335.230023 327.938266 
Q 335.230023 327.434359 335.583929 327.075766 
Q 335.940179 326.714828 336.446429 326.714828 
z
M 344.532367 328.971859 
L 338.687054 328.971859 
L 338.687054 328.810141 
Q 341.375336 325.610922 341.949554 324.504672 
Q 342.526117 323.398422 342.526117 322.343734 
Q 342.526117 321.574984 342.050336 321.066391 
Q 341.574554 320.555453 340.885492 320.555453 
Q 339.758148 320.555453 339.134711 321.685141 
L 338.862836 321.589047 
Q 339.258929 320.182797 340.065179 319.510141 
Q 340.871429 318.835141 341.926117 318.835141 
Q 342.678461 318.835141 343.301898 319.186703 
Q 343.925336 319.538266 344.276898 320.149984 
Q 344.628461 320.761703 344.628461 321.296078 
Q 344.628461 322.271078 344.084711 323.274203 
Q 343.346429 324.628891 340.855023 327.052328 
L 343.001898 327.052328 
Q 343.791742 327.052328 344.030804 326.986703 
Q 344.269867 326.921078 344.422211 326.764047 
Q 344.576898 326.607016 344.825336 326.100766 
L 345.090179 326.100766 
L 344.532367 328.971859 
z
" style="fill: #404040; stroke: #ffffff; stroke-width: 3.8"/>
    <path d="M 321.790961 323.991391 
L 321.790961 323.735922 
Q 322.625336 323.492172 322.946429 323.283578 
Q 323.269867 323.074984 323.504242 322.648422 
Q 323.738617 322.219516 323.738617 321.778891 
Q 323.738617 321.171859 323.295648 320.735922 
Q 322.852679 320.299984 322.194086 320.299984 
Q 321.167523 320.299984 320.450336 321.382797 
L 320.178461 321.289047 
Q 320.705804 320.065609 321.530804 319.451547 
Q 322.355804 318.835141 323.365961 318.835141 
Q 324.397211 318.835141 325.067523 319.465609 
Q 325.737836 320.093734 325.737836 320.937484 
Q 325.737836 321.485922 325.426117 321.996859 
Q 325.116742 322.505453 324.448773 322.892172 
Q 325.306586 323.309359 325.756586 323.921078 
Q 326.206586 324.532797 326.206586 325.456234 
Q 326.206586 327.007797 325.081586 328.097641 
Q 323.958929 329.185141 322.069867 329.185141 
Q 320.808929 329.185141 320.230023 328.765609 
Q 319.812836 328.472641 319.812836 328.013266 
Q 319.812836 327.675766 320.054242 327.439047 
Q 320.295648 327.199984 320.612054 327.199984 
Q 320.853461 327.199984 321.066742 327.300766 
Q 321.183929 327.359359 321.896429 327.942953 
Q 322.611273 328.524203 323.234711 328.524203 
Q 323.776117 328.524203 324.162836 328.097641 
Q 324.551898 327.668734 324.551898 327.007797 
Q 324.551898 326.004672 323.848773 325.158578 
Q 323.145648 324.312484 321.790961 323.991391 
z
M 329.356586 319.039047 
L 334.006586 319.039047 
L 333.268304 320.930453 
L 329.356586 320.930453 
L 328.983929 321.919516 
Q 331.510492 322.013266 332.872211 323.178109 
Q 333.992523 324.136703 333.992523 325.566391 
Q 333.992523 326.480453 333.472211 327.357016 
Q 332.951898 328.231234 332.007367 328.704672 
Q 331.062836 329.178109 329.935492 329.178109 
Q 328.719086 329.178109 328.067523 328.723422 
Q 327.612836 328.399984 327.612836 327.989828 
Q 327.612836 327.675766 327.849554 327.434359 
Q 328.088617 327.192953 328.405023 327.192953 
Q 328.690961 327.192953 328.983929 327.310141 
Q 329.276898 327.427328 329.987054 327.924203 
Q 330.432367 328.231234 330.755804 328.348422 
Q 330.983148 328.437484 331.269086 328.437484 
Q 331.869086 328.437484 332.288617 327.999203 
Q 332.710492 327.558578 332.710492 326.942172 
Q 332.710492 325.653109 331.421429 324.849203 
Q 330.132367 324.042953 328.170648 324.042953 
Q 327.971429 324.042953 327.577679 324.049984 
L 329.356586 319.039047 
z
M 336.446429 326.714828 
Q 336.959711 326.714828 337.313617 327.075766 
Q 337.669867 327.434359 337.669867 327.938266 
Q 337.669867 328.444516 337.311273 328.800766 
Q 336.952679 329.154672 336.446429 329.154672 
Q 335.940179 329.154672 335.583929 328.800766 
Q 335.230023 328.444516 335.230023 327.938266 
Q 335.230023 327.434359 335.583929 327.075766 
Q 335.940179 326.714828 336.446429 326.714828 
z
M 344.532367 328.971859 
L 338.687054 328.971859 
L 338.687054 328.810141 
Q 341.375336 325.610922 341.949554 324.504672 
Q 342.526117 323.398422 342.526117 322.343734 
Q 342.526117 321.574984 342.050336 321.066391 
Q 341.574554 320.555453 340.885492 320.555453 
Q 339.758148 320.555453 339.134711 321.685141 
L 338.862836 321.589047 
Q 339.258929 320.182797 340.065179 319.510141 
Q 340.871429 318.835141 341.926117 318.835141 
Q 342.678461 318.835141 343.301898 319.186703 
Q 343.925336 319.538266 344.276898 320.149984 
Q 344.628461 320.761703 344.628461 321.296078 
Q 344.628461 322.271078 344.084711 323.274203 
Q 343.346429 324.628891 340.855023 327.052328 
L 343.001898 327.052328 
Q 343.791742 327.052328 344.030804 326.986703 
Q 344.269867 326.921078 344.422211 326.764047 
Q 344.576898 326.607016 344.825336 326.100766 
L 345.090179 326.100766 
L 344.532367 328.971859 
z
" style="fill: #404040"/>
   </g>
  </g>
 </g>
 <defs>
  <clipPath id="p8498e3acb8">
   <rect x="7.2" y="51.034687" width="730.764" height="431.640752"/>
  </clipPath>
 </defs>
</svg>
