<?xml version="1.0" encoding="utf-8" standalone="no"?>
<!DOCTYPE svg PUBLIC "-//W3C//DTD SVG 1.1//EN"
  "http://www.w3.org/Graphics/SVG/1.1/DTD/svg11.dtd">
<svg xmlns:xlink="http://www.w3.org/1999/xlink" width="745.164pt" height="496.346002pt" viewBox="0 0 745.164 496.346002" xmlns="http://www.w3.org/2000/svg" version="1.1">
 <metadata>
  <rdf:RDF xmlns:dc="http://purl.org/dc/elements/1.1/" xmlns:cc="http://creativecommons.org/ns#" xmlns:rdf="http://www.w3.org/1999/02/22-rdf-syntax-ns#">
   <cc:Work>
    <dc:type rdf:resource="http://purl.org/dc/dcmitype/StillImage"/>
    <dc:date>2026-07-13T16:58:51.599645</dc:date>
    <dc:format>image/svg+xml</dc:format>
    <dc:creator>
     <cc:Agent>
      <dc:title>Matplotlib v3.10.8, https://matplotlib.org/</dc:title>
     </cc:Agent>
    </dc:creator>
   </cc:Work>
  </rdf:RDF>
 </metadata>
 <defs>
  <style type="text/css">*{stroke-linejoin: round; stroke-linecap: butt}</style>
 </defs>
 <g id="figure_1">
  <g id="patch_1">
   <path d="M 0 496.346002 
L 745.164 496.346002 
L 745.164 0 
L 0 0 
L 0 496.346002 
z
" style="fill: none"/>
  </g>
  <g id="axes_1">
   <g id="patch_2">
    <path d="M 120.350555 423.897796 
Q 120.350555 451.48436 120.350555 476.764117 
" clip-path="url(#p88358e0819)" style="fill: none; stroke: #111111; stroke-width: 2.06327; stroke-linejoin: miter; stroke-linecap: round"/>
    <path d="M 123.954801 469.555624 
L 120.350555 476.764117 
L 116.746308 469.555624 
z
" clip-path="url(#p88358e0819)" style="fill: #111111; stroke: #111111; stroke-width: 2.06327; stroke-linejoin: miter; stroke-linecap: round"/>
   </g>
   <g id="patch_3">
    <path d="M 120.350555 312.26937 
Q 120.350555 338.424423 120.350555 361.155915 
" clip-path="url(#p88358e0819)" style="fill: none; stroke: #111111; stroke-width: 3.062126; stroke-linejoin: miter; stroke-linecap: round"/>
    <path d="M 124.274435 353.308155 
L 120.350555 361.155915 
L 116.426675 353.308155 
z
" clip-path="url(#p88358e0819)" style="fill: #111111; stroke: #111111; stroke-width: 3.062126; stroke-linejoin: miter; stroke-linecap: round"/>
   </g>
   <g id="patch_4">
    <path d="M 120.350555 210.761455 
Q 120.350555 233.287763 120.350555 251.179376 
" clip-path="url(#p88358e0819)" style="fill: none; stroke: #111111; stroke-width: 4.145397; stroke-linejoin: miter; stroke-linecap: round"/>
    <path d="M 124.621082 242.638322 
L 120.350555 251.179376 
L 116.080028 242.638322 
z
" clip-path="url(#p88358e0819)" style="fill: #111111; stroke: #111111; stroke-width: 4.145397; stroke-linejoin: miter; stroke-linecap: round"/>
   </g>
   <g id="patch_5">
    <path d="M 370.224697 261.066887 
Q 370.224697 277.858726 370.224697 291.849949 
" clip-path="url(#p88358e0819)" style="fill: none; stroke: #111111; stroke-width: 2.504947; stroke-linejoin: miter; stroke-linecap: round"/>
    <path d="M 373.97028 284.358783 
L 370.224697 291.849949 
L 366.479114 284.358783 
z
" clip-path="url(#p88358e0819)" style="fill: #111111; stroke: #111111; stroke-width: 2.504947; stroke-linejoin: miter; stroke-linecap: round"/>
   </g>
   <g id="patch_6">
    <path d="M 370.224697 186.018325 
Q 370.224697 204.67817 370.224697 219.460264 
" clip-path="url(#p88358e0819)" style="fill: none; stroke: #111111; stroke-width: 3.468366; stroke-linejoin: miter; stroke-linecap: round"/>
    <path d="M 374.278574 211.35251 
L 370.224697 219.460264 
L 366.170819 211.35251 
z
" clip-path="url(#p88358e0819)" style="fill: #111111; stroke: #111111; stroke-width: 3.468366; stroke-linejoin: miter; stroke-linecap: round"/>
   </g>
   <g id="patch_7">
    <path d="M 370.224697 111.654283 
Q 370.224697 128.103862 370.224697 138.068844 
" clip-path="url(#p88358e0819)" style="fill: none; stroke: #111111; stroke-width: 5.8; stroke-linejoin: miter; stroke-linecap: round"/>
    <path d="M 375.024697 128.468844 
L 370.224697 138.068844 
L 365.424697 128.468844 
z
" clip-path="url(#p88358e0819)" style="fill: #111111; stroke: #111111; stroke-width: 5.8; stroke-linejoin: miter; stroke-linecap: round"/>
   </g>
   <g id="patch_8">
    <path d="M 586.153672 205.228298 
Q 586.153672 229.337372 586.153672 249.829942 
" clip-path="url(#p88358e0819)" style="fill: none; stroke: #111111; stroke-width: 3.234699; stroke-linejoin: miter; stroke-linecap: round"/>
    <path d="M 590.132776 241.871735 
L 586.153672 249.829942 
L 582.174569 241.871735 
z
" clip-path="url(#p88358e0819)" style="fill: #111111; stroke: #111111; stroke-width: 3.234699; stroke-linejoin: miter; stroke-linecap: round"/>
   </g>
   <g id="line2d_1">
    <path d="M 165.610777 479.070923 
L 550.322663 479.070923 
" clip-path="url(#p88358e0819)" style="fill: none; stroke-dasharray: 5.6,4.2; stroke-dashoffset: 0; stroke: #404040; stroke-width: 1.4"/>
   </g>
   <g id="line2d_2">
    <path d="M 165.610777 364.579476 
L 550.322663 364.579476 
" clip-path="url(#p88358e0819)" style="fill: none; stroke-dasharray: 5.6,4.2; stroke-dashoffset: 0; stroke: #404040; stroke-width: 1.4"/>
   </g>
   <g id="line2d_3">
    <path d="M 415.484919 294.650565 
L 560.694797 294.650565 
" clip-path="url(#p88358e0819)" style="fill: none; stroke-dasharray: 5.6,4.2; stroke-dashoffset: 0; stroke: #404040; stroke-width: 1.4"/>
   </g>
   <g id="patch_9">
    <path d="M 665.359061 253.446445 
Q 577.443904 363.912446 490.186918 473.55145 
" clip-path="url(#p88358e0819)" style="fill: none; stroke: #404040; stroke-width: 0.945351; stroke-linejoin: miter; stroke-linecap: round"/>
    <path d="M 495.963236 470.867701 
L 490.186918 473.55145 
L 491.505709 467.320147 
z
" clip-path="url(#p88358e0819)" style="fill: #404040; stroke: #404040; stroke-width: 0.945351; stroke-linejoin: miter; stroke-linecap: round"/>
   </g>
   <g id="patch_10">
    <path d="M 620.098839 253.446445 
Q 577.744997 306.664339 537.085893 357.752784 
" clip-path="url(#p88358e0819)" style="fill: none; stroke: #404040; stroke-width: 2.434204; stroke-linejoin: miter; stroke-linecap: round"/>
    <path d="M 543.868616 354.601446 
L 537.085893 357.752784 
L 538.634457 350.435803 
z
" clip-path="url(#p88358e0819)" style="fill: #404040; stroke: #404040; stroke-width: 2.434204; stroke-linejoin: miter; stroke-linecap: round"/>
   </g>
   <g id="patch_11">
    <path d="M 574.838617 253.446445 
Q 542.071037 272.538308 510.383406 291.000944 
" clip-path="url(#p88358e0819)" style="fill: none; stroke: #404040; stroke-width: 1.117932; stroke-linejoin: miter; stroke-linecap: round"/>
    <path d="M 516.868101 290.585922 
L 510.383406 291.000944 
L 513.942206 285.564174 
z
" clip-path="url(#p88358e0819)" style="fill: #404040; stroke: #404040; stroke-width: 1.117932; stroke-linejoin: miter; stroke-linecap: round"/>
   </g>
   <g id="patch_12">
    <path d="M 370.224697 294.650565 
Q 334.891916 327.569523 301.463044 358.71464 
" clip-path="url(#p88358e0819)" style="fill: none; stroke: #404040; stroke-width: 2.327468; stroke-linejoin: miter; stroke-linecap: round"/>
    <path d="M 308.561141 356.624285 
L 301.463044 358.71464 
L 304.049618 351.781949 
z
" clip-path="url(#p88358e0819)" style="fill: #404040; stroke: #404040; stroke-width: 2.327468; stroke-linejoin: miter; stroke-linecap: round"/>
   </g>
   <g id="line2d_4">
    <path d="M 120.350555 364.579476 
L 120.350555 419.752603 
" clip-path="url(#p88358e0819)" style="fill: none; stroke: #111111; stroke-width: 2.06327"/>
   </g>
   <g id="line2d_5">
    <path d="M 120.350555 255.814071 
L 120.350555 308.124177 
" clip-path="url(#p88358e0819)" style="fill: none; stroke: #111111; stroke-width: 3.062126"/>
   </g>
   <g id="line2d_6">
    <path d="M 120.350555 161.563646 
L 120.350555 206.616262 
" clip-path="url(#p88358e0819)" style="fill: none; stroke: #111111; stroke-width: 4.145397"/>
   </g>
   <g id="line2d_7">
    <path d="M 370.224697 223.338016 
L 370.224697 256.921694 
" clip-path="url(#p88358e0819)" style="fill: none; stroke: #111111; stroke-width: 2.504947"/>
   </g>
   <g id="line2d_8">
    <path d="M 370.224697 144.553441 
L 370.224697 181.873132 
" clip-path="url(#p88358e0819)" style="fill: none; stroke: #111111; stroke-width: 3.468366"/>
   </g>
   <g id="line2d_9">
    <path d="M 370.224697 74.609932 
L 370.224697 107.50909 
" clip-path="url(#p88358e0819)" style="fill: none; stroke: #111111; stroke-width: 5.8"/>
   </g>
   <g id="line2d_10">
    <path d="M 586.153672 152.864959 
L 586.153672 201.083105 
" clip-path="url(#p88358e0819)" style="fill: none; stroke: #111111; stroke-width: 3.234699"/>
   </g>
   <g id="line2d_11">
    <path d="M 75.090333 479.070923 
L 165.610777 479.070923 
" clip-path="url(#p88358e0819)" style="fill: none; stroke: #111111; stroke-width: 3.6; stroke-linecap: round"/>
   </g>
   <g id="line2d_12">
    <path d="M 75.090333 364.579476 
L 165.610777 364.579476 
" clip-path="url(#p88358e0819)" style="fill: none; stroke: #111111; stroke-width: 3.6; stroke-linecap: round"/>
   </g>
   <g id="line2d_13">
    <path d="M 75.090333 255.814071 
L 165.610777 255.814071 
" clip-path="url(#p88358e0819)" style="fill: none; stroke: #111111; stroke-width: 3.6; stroke-linecap: round"/>
   </g>
   <g id="line2d_14">
    <path d="M 75.090333 161.563646 
L 165.610777 161.563646 
" clip-path="url(#p88358e0819)" style="fill: none; stroke: #111111; stroke-width: 3.6; stroke-linecap: round"/>
   </g>
   <g id="line2d_15">
    <path d="M 324.964475 294.650565 
L 415.484919 294.650565 
" clip-path="url(#p88358e0819)" style="fill: none; stroke: #111111; stroke-width: 3.6; stroke-linecap: round"/>
   </g>
   <g id="line2d_16">
    <path d="M 324.964475 223.338016 
L 415.484919 223.338016 
" clip-path="url(#p88358e0819)" style="fill: none; stroke: #111111; stroke-width: 3.6; stroke-linecap: round"/>
   </g>
   <g id="line2d_17">
    <path d="M 324.964475 144.553441 
L 415.484919 144.553441 
" clip-path="url(#p88358e0819)" style="fill: none; stroke: #111111; stroke-width: 3.6; stroke-linecap: round"/>
   </g>
   <g id="line2d_18">
    <path d="M 324.964475 74.609932 
L 415.484919 74.609932 
" clip-path="url(#p88358e0819)" style="fill: none; stroke: #111111; stroke-width: 3.6; stroke-linecap: round"/>
   </g>
   <g id="line2d_19">
    <path d="M 574.838617 253.446445 
L 665.359061 253.446445 
" clip-path="url(#p88358e0819)" style="fill: none; stroke: #111111; stroke-width: 3.6; stroke-linecap: round"/>
   </g>
   <g id="line2d_20">
    <path d="M 574.838617 152.864959 
L 665.359061 152.864959 
" clip-path="url(#p88358e0819)" style="fill: none; stroke: #111111; stroke-width: 3.6; stroke-linecap: round"/>
   </g>
   <g id="text_1">
    <!-- $^{278}\mathrm{Pu}$ -->
    <g transform="translate(328.212 33.034687) scale(0.34 -0.34)">
     <defs>
      <path id="DejaVuSans-32" d="M 1228 531 
L 3431 531 
L 3431 0 
L 469 0 
L 469 531 
Q 828 903 1448 1529 
Q 2069 2156 2228 2338 
Q 2531 2678 2651 2914 
Q 2772 3150 2772 3378 
Q 2772 3750 2511 3984 
Q 2250 4219 1831 4219 
Q 1534 4219 1204 4116 
Q 875 4013 500 3803 
L 500 4441 
Q 881 4594 1212 4672 
Q 1544 4750 1819 4750 
Q 2544 4750 2975 4387 
Q 3406 4025 3406 3419 
Q 3406 3131 3298 2873 
Q 3191 2616 2906 2266 
Q 2828 2175 2409 1742 
Q 1991 1309 1228 531 
z
" transform="scale(0.015625)"/>
      <path id="DejaVuSans-37" d="M 525 4666 
L 3525 4666 
L 3525 4397 
L 1831 0 
L 1172 0 
L 2766 4134 
L 525 4134 
L 525 4666 
z
" transform="scale(0.015625)"/>
      <path id="DejaVuSans-38" d="M 2034 2216 
Q 1584 2216 1326 1975 
Q 1069 1734 1069 1313 
Q 1069 891 1326 650 
Q 1584 409 2034 409 
Q 2484 409 2743 651 
Q 3003 894 3003 1313 
Q 3003 1734 2745 1975 
Q 2488 2216 2034 2216 
z
M 1403 2484 
Q 997 2584 770 2862 
Q 544 3141 544 3541 
Q 544 4100 942 4425 
Q 1341 4750 2034 4750 
Q 2731 4750 3128 4425 
Q 3525 4100 3525 3541 
Q 3525 3141 3298 2862 
Q 3072 2584 2669 2484 
Q 3125 2378 3379 2068 
Q 3634 1759 3634 1313 
Q 3634 634 3220 271 
Q 2806 -91 2034 -91 
Q 1263 -91 848 271 
Q 434 634 434 1313 
Q 434 1759 690 2068 
Q 947 2378 1403 2484 
z
M 1172 3481 
Q 1172 3119 1398 2916 
Q 1625 2713 2034 2713 
Q 2441 2713 2670 2916 
Q 2900 3119 2900 3481 
Q 2900 3844 2670 4047 
Q 2441 4250 2034 4250 
Q 1625 4250 1398 4047 
Q 1172 3844 1172 3481 
z
" transform="scale(0.015625)"/>
      <path id="DejaVuSans-50" d="M 1259 4147 
L 1259 2394 
L 2053 2394 
Q 2494 2394 2734 2622 
Q 2975 2850 2975 3272 
Q 2975 3691 2734 3919 
Q 2494 4147 2053 4147 
L 1259 4147 
z
M 628 4666 
L 2053 4666 
Q 2838 4666 3239 4311 
Q 3641 3956 3641 3272 
Q 3641 2581 3239 2228 
Q 2838 1875 2053 1875 
L 1259 1875 
L 1259 0 
L 628 0 
L 628 4666 
z
" transform="scale(0.015625)"/>
      <path id="DejaVuSans-75" d="M 544 1381 
L 544 3500 
L 1119 3500 
L 1119 1403 
Q 1119 906 1312 657 
Q 1506 409 1894 409 
Q 2359 409 2629 706 
Q 2900 1003 2900 1516 
L 2900 3500 
L 3475 3500 
L 3475 0 
L 2900 0 
L 2900 538 
Q 2691 219 2414 64 
Q 2138 -91 1772 -91 
Q 1169 -91 856 284 
Q 544 659 544 1381 
z
M 1991 3584 
L 1991 3584 
z
" transform="scale(0.015625)"/>
     </defs>
     <use xlink:href="#DejaVuSans-32" transform="translate(0.957031 39.046875) scale(0.7)"/>
     <use xlink:href="#DejaVuSans-37" transform="translate(45.493164 39.046875) scale(0.7)"/>
     <use xlink:href="#DejaVuSans-38" transform="translate(90.029297 39.046875) scale(0.7)"/>
     <use xlink:href="#DejaVuSans-50" transform="translate(137.299805 0.765625)"/>
     <use xlink:href="#DejaVuSans-75" transform="translate(197.602539 0.765625)"/>
    </g>
   </g>
   <g id="text_2">
    <!-- 0 -->
    <g transform="translate(46.98525 483.485923) scale(0.16 -0.16)">
     <defs>
      <path id="DejaVuSans-BoldOblique-30" d="M 1913 728 
Q 2153 728 2339 872 
Q 2525 1016 2650 1294 
Q 2738 1491 2809 1742 
Q 2881 1994 2944 2338 
Q 2997 2616 3025 2850 
Q 3053 3084 3053 3250 
Q 3053 3600 2928 3764 
Q 2803 3928 2541 3928 
Q 2297 3928 2112 3789 
Q 1928 3650 1806 3366 
Q 1713 3163 1636 2903 
Q 1559 2644 1503 2338 
Q 1450 2056 1422 1815 
Q 1394 1575 1394 1409 
Q 1394 1063 1522 895 
Q 1650 728 1913 728 
z
M 4225 3072 
Q 4225 2450 4053 1862 
Q 3881 1275 3572 831 
Q 3256 375 2809 142 
Q 2363 -91 1813 -91 
Q 1047 -91 639 343 
Q 231 778 231 1594 
Q 231 2206 401 2795 
Q 572 3384 878 3822 
Q 1200 4281 1644 4515 
Q 2088 4750 2644 4750 
Q 3403 4750 3814 4314 
Q 4225 3878 4225 3072 
z
" transform="scale(0.015625)"/>
     </defs>
     <use xlink:href="#DejaVuSans-BoldOblique-30"/>
    </g>
   </g>
   <g id="text_3">
    <!-- 0⁺ -->
    <g transform="translate(182.58336 484.226158) scale(0.23 -0.23)">
     <defs>
      <path id="TimesNewRomanPS-BoldMT-30" d="M 2966 2119 
Q 2966 1484 2788 934 
Q 2681 597 2501 381 
Q 2322 166 2094 39 
Q 1866 -88 1597 -88 
Q 1291 -88 1044 68 
Q 797 225 606 516 
Q 469 728 366 1081 
Q 231 1559 231 2069 
Q 231 2759 425 3338 
Q 584 3816 909 4070 
Q 1234 4325 1597 4325 
Q 1966 4325 2286 4073 
Q 2606 3822 2756 3397 
Q 2966 2813 2966 2119 
z
M 2003 2125 
Q 2003 3238 1991 3422 
Q 1959 3856 1841 4009 
Q 1763 4109 1588 4109 
Q 1453 4109 1375 4034 
Q 1259 3925 1218 3648 
Q 1178 3372 1178 1719 
Q 1178 819 1241 513 
Q 1288 291 1375 216 
Q 1463 141 1606 141 
Q 1763 141 1841 241 
Q 1972 416 1991 781 
L 2003 2125 
z
" transform="scale(0.015625)"/>
      <path id="DejaVuSerif-Bold-207a" d="M 1916 4344 
L 1916 3441 
L 2950 3441 
L 2950 3044 
L 1916 3044 
L 1916 2141 
L 1463 2141 
L 1463 3044 
L 428 3044 
L 428 3441 
L 1463 3441 
L 1463 4344 
L 1916 4344 
z
" transform="scale(0.015625)"/>
     </defs>
     <use xlink:href="#TimesNewRomanPS-BoldMT-30"/>
     <use xlink:href="#DejaVuSerif-Bold-207a" transform="translate(50 0)"/>
    </g>
   </g>
   <g id="text_4">
    <!-- 2541 -->
    <g transform="translate(13.58775 368.994476) scale(0.16 -0.16)">
     <defs>
      <path id="DejaVuSans-BoldOblique-32" d="M 1581 884 
L 3609 884 
L 3438 0 
L 50 0 
L 225 891 
L 2209 2388 
Q 2534 2638 2704 2894 
Q 2875 3150 2875 3391 
Q 2875 3647 2700 3787 
Q 2525 3928 2209 3928 
Q 1913 3928 1547 3811 
Q 1181 3694 722 3450 
L 922 4441 
Q 1347 4597 1756 4673 
Q 2166 4750 2566 4750 
Q 3278 4750 3687 4442 
Q 4097 4134 4097 3603 
Q 4097 3147 3847 2772 
Q 3597 2397 2747 1759 
L 1581 884 
z
" transform="scale(0.015625)"/>
      <path id="DejaVuSans-BoldOblique-35" d="M 1131 4666 
L 4122 4666 
L 3950 3781 
L 1919 3781 
L 1778 3059 
Q 1916 3097 2064 3117 
Q 2213 3138 2363 3138 
Q 3078 3138 3481 2811 
Q 3884 2484 3884 1906 
Q 3884 988 3262 448 
Q 2641 -91 1575 -91 
Q 1184 -91 815 -14 
Q 447 63 84 219 
L 269 1166 
Q 616 941 942 834 
Q 1269 728 1606 728 
Q 2100 728 2397 986 
Q 2694 1244 2694 1663 
Q 2694 1963 2469 2139 
Q 2244 2316 1856 2316 
Q 1594 2316 1289 2248 
Q 984 2181 622 2041 
L 1131 4666 
z
" transform="scale(0.015625)"/>
      <path id="DejaVuSans-BoldOblique-34" d="M 2638 3641 
L 978 1722 
L 2259 1722 
L 2638 3641 
z
M 2606 4666 
L 3975 4666 
L 3397 1722 
L 4063 1722 
L 3897 850 
L 3231 850 
L 3066 0 
L 1925 0 
L 2094 850 
L -6 850 
L 197 1881 
L 2606 4666 
z
" transform="scale(0.015625)"/>
      <path id="DejaVuSans-BoldOblique-31" d="M 441 831 
L 1503 831 
L 2088 3847 
L 953 3622 
L 1113 4441 
L 2241 4666 
L 3384 4666 
L 2644 831 
L 3700 831 
L 3541 0 
L 275 0 
L 441 831 
z
" transform="scale(0.015625)"/>
     </defs>
     <use xlink:href="#DejaVuSans-BoldOblique-32"/>
     <use xlink:href="#DejaVuSans-BoldOblique-35" transform="translate(69.580078 0)"/>
     <use xlink:href="#DejaVuSans-BoldOblique-34" transform="translate(139.160156 0)"/>
     <use xlink:href="#DejaVuSans-BoldOblique-31" transform="translate(208.740234 0)"/>
    </g>
   </g>
   <g id="text_5">
    <!-- 2⁺ -->
    <g transform="translate(182.58336 369.73471) scale(0.23 -0.23)">
     <defs>
      <path id="TimesNewRomanPS-BoldMT-32" d="M 2650 0 
L 156 0 
L 156 69 
Q 1303 1434 1548 1906 
Q 1794 2378 1794 2828 
Q 1794 3156 1591 3373 
Q 1388 3591 1094 3591 
Q 613 3591 347 3109 
L 231 3150 
Q 400 3750 744 4037 
Q 1088 4325 1538 4325 
Q 1859 4325 2125 4175 
Q 2391 4025 2541 3764 
Q 2691 3503 2691 3275 
Q 2691 2859 2459 2431 
Q 2144 1853 1081 819 
L 1997 819 
Q 2334 819 2436 847 
Q 2538 875 2603 942 
Q 2669 1009 2775 1225 
L 2888 1225 
L 2650 0 
z
" transform="scale(0.015625)"/>
     </defs>
     <use xlink:href="#TimesNewRomanPS-BoldMT-32"/>
     <use xlink:href="#DejaVuSerif-Bold-207a" transform="translate(50 0)"/>
    </g>
   </g>
   <g id="text_6">
    <!-- 4955 -->
    <g transform="translate(13.58775 260.229071) scale(0.16 -0.16)">
     <defs>
      <path id="DejaVuSans-BoldOblique-39" d="M 263 103 
L 428 966 
Q 700 825 953 758 
Q 1206 691 1459 691 
Q 2041 691 2400 1003 
Q 2759 1316 2834 1881 
Q 2594 1722 2337 1645 
Q 2081 1569 1791 1569 
Q 1219 1569 853 1909 
Q 488 2250 488 2778 
Q 488 3641 1052 4192 
Q 1616 4744 2503 4744 
Q 3300 4744 3736 4292 
Q 4172 3841 4172 3016 
Q 4172 2381 3978 1801 
Q 3784 1222 3431 800 
Q 3056 353 2548 128 
Q 2041 -97 1403 -97 
Q 1106 -97 825 -47 
Q 544 3 263 103 
z
M 2169 2344 
Q 2525 2344 2753 2637 
Q 2981 2931 2981 3391 
Q 2981 3675 2845 3828 
Q 2709 3981 2456 3981 
Q 2103 3981 1870 3690 
Q 1638 3400 1638 2963 
Q 1638 2663 1775 2503 
Q 1913 2344 2169 2344 
z
" transform="scale(0.015625)"/>
     </defs>
     <use xlink:href="#DejaVuSans-BoldOblique-34"/>
     <use xlink:href="#DejaVuSans-BoldOblique-39" transform="translate(69.580078 0)"/>
     <use xlink:href="#DejaVuSans-BoldOblique-35" transform="translate(139.160156 0)"/>
     <use xlink:href="#DejaVuSans-BoldOblique-35" transform="translate(208.740234 0)"/>
    </g>
   </g>
   <g id="text_7">
    <!-- 4⁺ -->
    <g transform="translate(182.58336 260.969306) scale(0.23 -0.23)">
     <defs>
      <path id="TimesNewRomanPS-BoldMT-34" d="M 159 1597 
L 2172 4325 
L 2553 4325 
L 2553 1597 
L 2941 1597 
L 2941 950 
L 2553 950 
L 2553 0 
L 1694 0 
L 1694 950 
L 159 950 
L 159 1597 
z
M 463 1597 
L 1694 1597 
L 1694 3269 
L 463 1597 
z
" transform="scale(0.015625)"/>
     </defs>
     <use xlink:href="#TimesNewRomanPS-BoldMT-34"/>
     <use xlink:href="#DejaVuSerif-Bold-207a" transform="translate(50 0)"/>
    </g>
   </g>
   <g id="text_8">
    <!-- 7047 -->
    <g transform="translate(13.58775 165.978646) scale(0.16 -0.16)">
     <defs>
      <path id="DejaVuSans-BoldOblique-37" d="M 922 4666 
L 4441 4666 
L 4300 3981 
L 1703 0 
L 500 0 
L 2969 3781 
L 756 3781 
L 922 4666 
z
" transform="scale(0.015625)"/>
     </defs>
     <use xlink:href="#DejaVuSans-BoldOblique-37"/>
     <use xlink:href="#DejaVuSans-BoldOblique-30" transform="translate(69.580078 0)"/>
     <use xlink:href="#DejaVuSans-BoldOblique-34" transform="translate(139.160156 0)"/>
     <use xlink:href="#DejaVuSans-BoldOblique-37" transform="translate(208.740234 0)"/>
    </g>
   </g>
   <g id="text_9">
    <!-- 6⁺ -->
    <g transform="translate(182.58336 166.718881) scale(0.23 -0.23)">
     <defs>
      <path id="TimesNewRomanPS-BoldMT-36" d="M 3006 4325 
L 3006 4238 
Q 2441 4094 2098 3867 
Q 1756 3641 1557 3317 
Q 1359 2994 1250 2516 
Q 1388 2609 1478 2638 
Q 1681 2700 1888 2700 
Q 2363 2700 2680 2354 
Q 2997 2009 2997 1413 
Q 2997 994 2825 644 
Q 2653 294 2337 103 
Q 2022 -88 1663 -88 
Q 1272 -88 940 126 
Q 609 341 423 753 
Q 238 1166 238 1650 
Q 238 2363 580 2977 
Q 922 3591 1551 3955 
Q 2181 4319 3006 4325 
z
M 1209 2263 
Q 1184 1831 1184 1631 
Q 1184 1200 1267 797 
Q 1350 394 1494 231 
Q 1597 116 1738 116 
Q 1881 116 1993 283 
Q 2106 450 2106 963 
Q 2106 1825 1897 2153 
Q 1763 2366 1534 2366 
Q 1409 2366 1209 2263 
z
" transform="scale(0.015625)"/>
     </defs>
     <use xlink:href="#TimesNewRomanPS-BoldMT-36"/>
     <use xlink:href="#DejaVuSerif-Bold-207a" transform="translate(50 0)"/>
    </g>
   </g>
   <g id="text_10">
    <!-- 4093 -->
    <g transform="translate(263.461892 299.065565) scale(0.16 -0.16)">
     <defs>
      <path id="DejaVuSans-BoldOblique-33" d="M 3022 2516 
Q 3375 2434 3572 2187 
Q 3769 1941 3769 1581 
Q 3769 806 3155 357 
Q 2541 -91 1466 -91 
Q 1059 -91 692 -33 
Q 325 25 0 141 
L 178 1069 
Q 456 906 784 817 
Q 1113 728 1441 728 
Q 1969 728 2276 926 
Q 2584 1125 2584 1459 
Q 2584 1738 2350 1877 
Q 2116 2016 1644 2016 
L 1166 2016 
L 1319 2791 
L 1825 2791 
Q 2316 2791 2602 2969 
Q 2888 3147 2888 3450 
Q 2888 3688 2689 3813 
Q 2491 3938 2113 3938 
Q 1847 3938 1534 3869 
Q 1222 3800 884 3669 
L 1056 4550 
Q 1425 4650 1783 4700 
Q 2141 4750 2491 4750 
Q 3281 4750 3679 4487 
Q 4078 4225 4078 3706 
Q 4078 3241 3801 2930 
Q 3525 2619 3022 2516 
z
" transform="scale(0.015625)"/>
     </defs>
     <use xlink:href="#DejaVuSans-BoldOblique-34"/>
     <use xlink:href="#DejaVuSans-BoldOblique-30" transform="translate(69.580078 0)"/>
     <use xlink:href="#DejaVuSans-BoldOblique-39" transform="translate(139.160156 0)"/>
     <use xlink:href="#DejaVuSans-BoldOblique-33" transform="translate(208.740234 0)"/>
    </g>
   </g>
   <g id="text_11">
    <!-- 0⁺ -->
    <g transform="translate(432.457502 299.805799) scale(0.23 -0.23)">
     <use xlink:href="#TimesNewRomanPS-BoldMT-30"/>
     <use xlink:href="#DejaVuSerif-Bold-207a" transform="translate(50 0)"/>
    </g>
   </g>
   <g id="text_12">
    <!-- 5676 -->
    <g transform="translate(263.461892 227.753016) scale(0.16 -0.16)">
     <defs>
      <path id="DejaVuSans-BoldOblique-36" d="M 2316 2303 
Q 1959 2303 1731 2009 
Q 1503 1716 1503 1253 
Q 1503 975 1643 820 
Q 1784 666 2034 666 
Q 2388 666 2617 955 
Q 2847 1244 2847 1684 
Q 2847 1984 2709 2143 
Q 2572 2303 2316 2303 
z
M 4225 4544 
L 4056 3681 
Q 3788 3819 3534 3887 
Q 3281 3956 3028 3956 
Q 2447 3956 2087 3643 
Q 1728 3331 1650 2766 
Q 1894 2925 2151 3001 
Q 2409 3078 2700 3078 
Q 3275 3078 3640 2737 
Q 4006 2397 4006 1869 
Q 4006 1006 3442 454 
Q 2878 -97 1991 -97 
Q 1194 -97 756 354 
Q 319 806 319 1631 
Q 319 2269 512 2848 
Q 706 3428 1056 3847 
Q 1431 4294 1942 4519 
Q 2453 4744 3091 4744 
Q 3384 4744 3662 4694 
Q 3941 4644 4225 4544 
z
" transform="scale(0.015625)"/>
     </defs>
     <use xlink:href="#DejaVuSans-BoldOblique-35"/>
     <use xlink:href="#DejaVuSans-BoldOblique-36" transform="translate(69.580078 0)"/>
     <use xlink:href="#DejaVuSans-BoldOblique-37" transform="translate(139.160156 0)"/>
     <use xlink:href="#DejaVuSans-BoldOblique-36" transform="translate(208.740234 0)"/>
    </g>
   </g>
   <g id="text_13">
    <!-- 2⁺ -->
    <g transform="translate(432.457502 228.49325) scale(0.23 -0.23)">
     <use xlink:href="#TimesNewRomanPS-BoldMT-32"/>
     <use xlink:href="#DejaVuSerif-Bold-207a" transform="translate(50 0)"/>
    </g>
   </g>
   <g id="text_14">
    <!-- 7424 -->
    <g transform="translate(263.461892 148.968441) scale(0.16 -0.16)">
     <use xlink:href="#DejaVuSans-BoldOblique-37"/>
     <use xlink:href="#DejaVuSans-BoldOblique-34" transform="translate(69.580078 0)"/>
     <use xlink:href="#DejaVuSans-BoldOblique-32" transform="translate(139.160156 0)"/>
     <use xlink:href="#DejaVuSans-BoldOblique-34" transform="translate(208.740234 0)"/>
    </g>
   </g>
   <g id="text_15">
    <!-- 4⁺ -->
    <g transform="translate(432.457502 149.708675) scale(0.23 -0.23)">
     <use xlink:href="#TimesNewRomanPS-BoldMT-34"/>
     <use xlink:href="#DejaVuSerif-Bold-207a" transform="translate(50 0)"/>
    </g>
   </g>
   <g id="text_16">
    <!-- 8977 -->
    <g transform="translate(263.461892 79.024932) scale(0.16 -0.16)">
     <defs>
      <path id="DejaVuSans-BoldOblique-38" d="M 2150 2088 
Q 1784 2088 1539 1839 
Q 1294 1591 1294 1228 
Q 1294 969 1453 817 
Q 1613 666 1888 666 
Q 2259 666 2503 911 
Q 2747 1156 2747 1522 
Q 2747 1781 2586 1934 
Q 2425 2088 2150 2088 
z
M 1381 2484 
Q 1044 2625 876 2850 
Q 709 3075 709 3391 
Q 709 4025 1229 4387 
Q 1750 4750 2669 4750 
Q 3406 4750 3812 4475 
Q 4219 4200 4219 3700 
Q 4219 3256 3936 2940 
Q 3653 2625 3128 2484 
Q 3509 2338 3690 2091 
Q 3872 1844 3872 1466 
Q 3872 747 3311 328 
Q 2750 -91 1772 -91 
Q 1000 -91 570 217 
Q 141 525 141 1075 
Q 141 1572 470 1945 
Q 800 2319 1381 2484 
z
M 2559 3994 
Q 2241 3994 2048 3808 
Q 1856 3622 1856 3316 
Q 1856 3103 1995 2972 
Q 2134 2841 2363 2841 
Q 2681 2841 2873 3027 
Q 3066 3213 3066 3519 
Q 3066 3734 2927 3864 
Q 2788 3994 2559 3994 
z
" transform="scale(0.015625)"/>
     </defs>
     <use xlink:href="#DejaVuSans-BoldOblique-38"/>
     <use xlink:href="#DejaVuSans-BoldOblique-39" transform="translate(69.580078 0)"/>
     <use xlink:href="#DejaVuSans-BoldOblique-37" transform="translate(139.160156 0)"/>
     <use xlink:href="#DejaVuSans-BoldOblique-37" transform="translate(208.740234 0)"/>
    </g>
   </g>
   <g id="text_17">
    <!-- 6⁺ -->
    <g transform="translate(432.457502 79.765167) scale(0.23 -0.23)">
     <use xlink:href="#TimesNewRomanPS-BoldMT-36"/>
     <use xlink:href="#DejaVuSerif-Bold-207a" transform="translate(50 0)"/>
    </g>
   </g>
   <g id="text_18">
    <!-- 5008 -->
    <g transform="translate(513.336034 257.861445) scale(0.16 -0.16)">
     <use xlink:href="#DejaVuSans-BoldOblique-35"/>
     <use xlink:href="#DejaVuSans-BoldOblique-30" transform="translate(69.580078 0)"/>
     <use xlink:href="#DejaVuSans-BoldOblique-30" transform="translate(139.160156 0)"/>
     <use xlink:href="#DejaVuSans-BoldOblique-38" transform="translate(208.740234 0)"/>
    </g>
   </g>
   <g id="text_19">
    <!-- 2⁺ -->
    <g transform="translate(682.331644 258.60168) scale(0.23 -0.23)">
     <use xlink:href="#TimesNewRomanPS-BoldMT-32"/>
     <use xlink:href="#DejaVuSerif-Bold-207a" transform="translate(50 0)"/>
    </g>
   </g>
   <g id="text_20">
    <!-- 7240 -->
    <g transform="translate(513.336034 157.279959) scale(0.16 -0.16)">
     <use xlink:href="#DejaVuSans-BoldOblique-37"/>
     <use xlink:href="#DejaVuSans-BoldOblique-32" transform="translate(69.580078 0)"/>
     <use xlink:href="#DejaVuSans-BoldOblique-34" transform="translate(139.160156 0)"/>
     <use xlink:href="#DejaVuSans-BoldOblique-30" transform="translate(208.740234 0)"/>
    </g>
   </g>
   <g id="text_21">
    <!-- 3⁺ -->
    <g transform="translate(682.331644 158.020193) scale(0.23 -0.23)">
     <defs>
      <path id="TimesNewRomanPS-BoldMT-33" d="M 947 2125 
L 947 2234 
Q 1303 2338 1440 2427 
Q 1578 2516 1678 2698 
Q 1778 2881 1778 3069 
Q 1778 3328 1589 3514 
Q 1400 3700 1119 3700 
Q 681 3700 375 3238 
L 259 3278 
Q 484 3800 836 4062 
Q 1188 4325 1619 4325 
Q 2059 4325 2345 4056 
Q 2631 3788 2631 3428 
Q 2631 3194 2498 2976 
Q 2366 2759 2081 2594 
Q 2447 2416 2639 2155 
Q 2831 1894 2831 1500 
Q 2831 838 2351 373 
Q 1872 -91 1066 -91 
Q 528 -91 281 88 
Q 103 213 103 409 
Q 103 553 206 654 
Q 309 756 444 756 
Q 547 756 638 713 
Q 688 688 992 439 
Q 1297 191 1563 191 
Q 1794 191 1959 373 
Q 2125 556 2125 838 
Q 2125 1266 1825 1627 
Q 1525 1988 947 2125 
z
" transform="scale(0.015625)"/>
     </defs>
     <use xlink:href="#TimesNewRomanPS-BoldMT-33"/>
     <use xlink:href="#DejaVuSerif-Bold-207a" transform="translate(50 0)"/>
    </g>
   </g>
   <g id="text_22">
    <path d="M 111.560555 414.59895 
L 111.560555 423.26395 
Q 111.560555 424.23895 111.645555 424.50895 
Q 111.733055 424.77895 112.005555 424.95145 
Q 112.280555 425.12145 112.883055 425.12145 
L 113.123055 425.12145 
L 113.123055 425.41145 
L 107.545555 425.41145 
L 107.545555 425.12145 
L 107.828055 425.12145 
Q 108.508055 425.12145 108.795555 424.96645 
Q 109.085555 424.80895 109.185555 424.53645 
Q 109.288055 424.26395 109.288055 423.26395 
L 109.288055 417.77145 
Q 109.288055 417.03645 109.218055 416.85395 
Q 109.148055 416.66895 108.955555 416.54145 
Q 108.765555 416.41145 108.515555 416.41145 
Q 108.115555 416.41145 107.545555 416.66145 
L 107.405555 416.37895 
L 111.303055 414.59895 
L 111.560555 414.59895 
z
M 114.748055 421.41895 
L 119.780555 414.59895 
L 120.733055 414.59895 
L 120.733055 421.41895 
L 121.703055 421.41895 
L 121.703055 423.03645 
L 120.733055 423.03645 
L 120.733055 425.41145 
L 118.585555 425.41145 
L 118.585555 423.03645 
L 114.748055 423.03645 
L 114.748055 421.41895 
z
M 115.508055 421.41895 
L 118.585555 421.41895 
L 118.585555 417.23895 
L 115.508055 421.41895 
z
M 124.350555 423.00395 
Q 124.898055 423.00395 125.275555 423.38895 
Q 125.655555 423.77145 125.655555 424.30895 
Q 125.655555 424.84895 125.273055 425.22895 
Q 124.890555 425.60645 124.350555 425.60645 
Q 123.810555 425.60645 123.430555 425.22895 
Q 123.053055 424.84895 123.053055 424.30895 
Q 123.053055 423.77145 123.430555 423.38895 
Q 123.810555 423.00395 124.350555 423.00395 
z
M 133.765555 420.11395 
Q 133.765555 421.70145 133.320555 423.07645 
Q 133.053055 423.91895 132.603055 424.45895 
Q 132.155555 424.99645 131.585555 425.31395 
Q 131.015555 425.63145 130.343055 425.63145 
Q 129.578055 425.63145 128.960555 425.24145 
Q 128.343055 424.84895 127.865555 424.12145 
Q 127.523055 423.59145 127.265555 422.70895 
Q 126.928055 421.51395 126.928055 420.23895 
Q 126.928055 418.51395 127.413055 417.06645 
Q 127.810555 415.87145 128.623055 415.23645 
Q 129.435555 414.59895 130.343055 414.59895 
Q 131.265555 414.59895 132.065555 415.22895 
Q 132.865555 415.85645 133.240555 416.91895 
Q 133.765555 418.37895 133.765555 420.11395 
z
M 131.358055 420.09895 
Q 131.358055 417.31645 131.328055 416.85645 
Q 131.248055 415.77145 130.953055 415.38895 
Q 130.758055 415.13895 130.320555 415.13895 
Q 129.983055 415.13895 129.788055 415.32645 
Q 129.498055 415.59895 129.395555 416.29145 
Q 129.295555 416.98145 129.295555 421.11395 
Q 129.295555 423.36395 129.453055 424.12895 
Q 129.570555 424.68395 129.788055 424.87145 
Q 130.008055 425.05895 130.365555 425.05895 
Q 130.758055 425.05895 130.953055 424.80895 
Q 131.280555 424.37145 131.328055 423.45895 
L 131.358055 420.09895 
z
" style="stroke: #ffffff; stroke-width: 3.8"/>
    <path d="M 111.560555 414.59895 
L 111.560555 423.26395 
Q 111.560555 424.23895 111.645555 424.50895 
Q 111.733055 424.77895 112.005555 424.95145 
Q 112.280555 425.12145 112.883055 425.12145 
L 113.123055 425.12145 
L 113.123055 425.41145 
L 107.545555 425.41145 
L 107.545555 425.12145 
L 107.828055 425.12145 
Q 108.508055 425.12145 108.795555 424.96645 
Q 109.085555 424.80895 109.185555 424.53645 
Q 109.288055 424.26395 109.288055 423.26395 
L 109.288055 417.77145 
Q 109.288055 417.03645 109.218055 416.85395 
Q 109.148055 416.66895 108.955555 416.54145 
Q 108.765555 416.41145 108.515555 416.41145 
Q 108.115555 416.41145 107.545555 416.66145 
L 107.405555 416.37895 
L 111.303055 414.59895 
L 111.560555 414.59895 
z
M 114.748055 421.41895 
L 119.780555 414.59895 
L 120.733055 414.59895 
L 120.733055 421.41895 
L 121.703055 421.41895 
L 121.703055 423.03645 
L 120.733055 423.03645 
L 120.733055 425.41145 
L 118.585555 425.41145 
L 118.585555 423.03645 
L 114.748055 423.03645 
L 114.748055 421.41895 
z
M 115.508055 421.41895 
L 118.585555 421.41895 
L 118.585555 417.23895 
L 115.508055 421.41895 
z
M 124.350555 423.00395 
Q 124.898055 423.00395 125.275555 423.38895 
Q 125.655555 423.77145 125.655555 424.30895 
Q 125.655555 424.84895 125.273055 425.22895 
Q 124.890555 425.60645 124.350555 425.60645 
Q 123.810555 425.60645 123.430555 425.22895 
Q 123.053055 424.84895 123.053055 424.30895 
Q 123.053055 423.77145 123.430555 423.38895 
Q 123.810555 423.00395 124.350555 423.00395 
z
M 133.765555 420.11395 
Q 133.765555 421.70145 133.320555 423.07645 
Q 133.053055 423.91895 132.603055 424.45895 
Q 132.155555 424.99645 131.585555 425.31395 
Q 131.015555 425.63145 130.343055 425.63145 
Q 129.578055 425.63145 128.960555 425.24145 
Q 128.343055 424.84895 127.865555 424.12145 
Q 127.523055 423.59145 127.265555 422.70895 
Q 126.928055 421.51395 126.928055 420.23895 
Q 126.928055 418.51395 127.413055 417.06645 
Q 127.810555 415.87145 128.623055 415.23645 
Q 129.435555 414.59895 130.343055 414.59895 
Q 131.265555 414.59895 132.065555 415.22895 
Q 132.865555 415.85645 133.240555 416.91895 
Q 133.765555 418.37895 133.765555 420.11395 
z
M 131.358055 420.09895 
Q 131.358055 417.31645 131.328055 416.85645 
Q 131.248055 415.77145 130.953055 415.38895 
Q 130.758055 415.13895 130.320555 415.13895 
Q 129.983055 415.13895 129.788055 415.32645 
Q 129.498055 415.59895 129.395555 416.29145 
Q 129.295555 416.98145 129.295555 421.11395 
Q 129.295555 423.36395 129.453055 424.12895 
Q 129.570555 424.68395 129.788055 424.87145 
Q 130.008055 425.05895 130.365555 425.05895 
Q 130.758055 425.05895 130.953055 424.80895 
Q 131.280555 424.37145 131.328055 423.45895 
L 131.358055 420.09895 
z
"/>
   </g>
   <g id="text_23">
    <path d="M 112.975555 313.783023 
L 106.740555 313.783023 
L 106.740555 313.610523 
Q 109.608055 310.198023 110.220555 309.018023 
Q 110.835555 307.838023 110.835555 306.713023 
Q 110.835555 305.893023 110.328055 305.350523 
Q 109.820555 304.805523 109.085555 304.805523 
Q 107.883055 304.805523 107.218055 306.010523 
L 106.928055 305.908023 
Q 107.350555 304.408023 108.210555 303.690523 
Q 109.070555 302.970523 110.195555 302.970523 
Q 110.998055 302.970523 111.663055 303.345523 
Q 112.328055 303.720523 112.703055 304.373023 
Q 113.078055 305.025523 113.078055 305.595523 
Q 113.078055 306.635523 112.498055 307.705523 
Q 111.710555 309.150523 109.053055 311.735523 
L 111.343055 311.735523 
Q 112.185555 311.735523 112.440555 311.665523 
Q 112.695555 311.595523 112.858055 311.428023 
Q 113.023055 311.260523 113.288055 310.720523 
L 113.570555 310.720523 
L 112.975555 313.783023 
z
M 116.788055 303.188023 
L 121.748055 303.188023 
L 120.960555 305.205523 
L 116.788055 305.205523 
L 116.390555 306.260523 
Q 119.085555 306.360523 120.538055 307.603023 
Q 121.733055 308.625523 121.733055 310.150523 
Q 121.733055 311.125523 121.178055 312.060523 
Q 120.623055 312.993023 119.615555 313.498023 
Q 118.608055 314.003023 117.405555 314.003023 
Q 116.108055 314.003023 115.413055 313.518023 
Q 114.928055 313.173023 114.928055 312.735523 
Q 114.928055 312.400523 115.180555 312.143023 
Q 115.435555 311.885523 115.773055 311.885523 
Q 116.078055 311.885523 116.390555 312.010523 
Q 116.703055 312.135523 117.460555 312.665523 
Q 117.935555 312.993023 118.280555 313.118023 
Q 118.523055 313.213023 118.828055 313.213023 
Q 119.468055 313.213023 119.915555 312.745523 
Q 120.365555 312.275523 120.365555 311.618023 
Q 120.365555 310.243023 118.990555 309.385523 
Q 117.615555 308.525523 115.523055 308.525523 
Q 115.310555 308.525523 114.890555 308.533023 
L 116.788055 303.188023 
z
M 124.350555 311.375523 
Q 124.898055 311.375523 125.275555 311.760523 
Q 125.655555 312.143023 125.655555 312.680523 
Q 125.655555 313.220523 125.273055 313.600523 
Q 124.890555 313.978023 124.350555 313.978023 
Q 123.810555 313.978023 123.430555 313.600523 
Q 123.053055 313.220523 123.053055 312.680523 
Q 123.053055 312.143023 123.430555 311.760523 
Q 123.810555 311.375523 124.350555 311.375523 
z
M 133.765555 308.485523 
Q 133.765555 310.073023 133.320555 311.448023 
Q 133.053055 312.290523 132.603055 312.830523 
Q 132.155555 313.368023 131.585555 313.685523 
Q 131.015555 314.003023 130.343055 314.003023 
Q 129.578055 314.003023 128.960555 313.613023 
Q 128.343055 313.220523 127.865555 312.493023 
Q 127.523055 311.963023 127.265555 311.080523 
Q 126.928055 309.885523 126.928055 308.610523 
Q 126.928055 306.885523 127.413055 305.438023 
Q 127.810555 304.243023 128.623055 303.608023 
Q 129.435555 302.970523 130.343055 302.970523 
Q 131.265555 302.970523 132.065555 303.600523 
Q 132.865555 304.228023 133.240555 305.290523 
Q 133.765555 306.750523 133.765555 308.485523 
z
M 131.358055 308.470523 
Q 131.358055 305.688023 131.328055 305.228023 
Q 131.248055 304.143023 130.953055 303.760523 
Q 130.758055 303.510523 130.320555 303.510523 
Q 129.983055 303.510523 129.788055 303.698023 
Q 129.498055 303.970523 129.395555 304.663023 
Q 129.295555 305.353023 129.295555 309.485523 
Q 129.295555 311.735523 129.453055 312.500523 
Q 129.570555 313.055523 129.788055 313.243023 
Q 130.008055 313.430523 130.365555 313.430523 
Q 130.758055 313.430523 130.953055 313.180523 
Q 131.280555 312.743023 131.328055 311.830523 
L 131.358055 308.470523 
z
" style="stroke: #ffffff; stroke-width: 3.8"/>
    <path d="M 112.975555 313.783023 
L 106.740555 313.783023 
L 106.740555 313.610523 
Q 109.608055 310.198023 110.220555 309.018023 
Q 110.835555 307.838023 110.835555 306.713023 
Q 110.835555 305.893023 110.328055 305.350523 
Q 109.820555 304.805523 109.085555 304.805523 
Q 107.883055 304.805523 107.218055 306.010523 
L 106.928055 305.908023 
Q 107.350555 304.408023 108.210555 303.690523 
Q 109.070555 302.970523 110.195555 302.970523 
Q 110.998055 302.970523 111.663055 303.345523 
Q 112.328055 303.720523 112.703055 304.373023 
Q 113.078055 305.025523 113.078055 305.595523 
Q 113.078055 306.635523 112.498055 307.705523 
Q 111.710555 309.150523 109.053055 311.735523 
L 111.343055 311.735523 
Q 112.185555 311.735523 112.440555 311.665523 
Q 112.695555 311.595523 112.858055 311.428023 
Q 113.023055 311.260523 113.288055 310.720523 
L 113.570555 310.720523 
L 112.975555 313.783023 
z
M 116.788055 303.188023 
L 121.748055 303.188023 
L 120.960555 305.205523 
L 116.788055 305.205523 
L 116.390555 306.260523 
Q 119.085555 306.360523 120.538055 307.603023 
Q 121.733055 308.625523 121.733055 310.150523 
Q 121.733055 311.125523 121.178055 312.060523 
Q 120.623055 312.993023 119.615555 313.498023 
Q 118.608055 314.003023 117.405555 314.003023 
Q 116.108055 314.003023 115.413055 313.518023 
Q 114.928055 313.173023 114.928055 312.735523 
Q 114.928055 312.400523 115.180555 312.143023 
Q 115.435555 311.885523 115.773055 311.885523 
Q 116.078055 311.885523 116.390555 312.010523 
Q 116.703055 312.135523 117.460555 312.665523 
Q 117.935555 312.993023 118.280555 313.118023 
Q 118.523055 313.213023 118.828055 313.213023 
Q 119.468055 313.213023 119.915555 312.745523 
Q 120.365555 312.275523 120.365555 311.618023 
Q 120.365555 310.243023 118.990555 309.385523 
Q 117.615555 308.525523 115.523055 308.525523 
Q 115.310555 308.525523 114.890555 308.533023 
L 116.788055 303.188023 
z
M 124.350555 311.375523 
Q 124.898055 311.375523 125.275555 311.760523 
Q 125.655555 312.143023 125.655555 312.680523 
Q 125.655555 313.220523 125.273055 313.600523 
Q 124.890555 313.978023 124.350555 313.978023 
Q 123.810555 313.978023 123.430555 313.600523 
Q 123.053055 313.220523 123.053055 312.680523 
Q 123.053055 312.143023 123.430555 311.760523 
Q 123.810555 311.375523 124.350555 311.375523 
z
M 133.765555 308.485523 
Q 133.765555 310.073023 133.320555 311.448023 
Q 133.053055 312.290523 132.603055 312.830523 
Q 132.155555 313.368023 131.585555 313.685523 
Q 131.015555 314.003023 130.343055 314.003023 
Q 129.578055 314.003023 128.960555 313.613023 
Q 128.343055 313.220523 127.865555 312.493023 
Q 127.523055 311.963023 127.265555 311.080523 
Q 126.928055 309.885523 126.928055 308.610523 
Q 126.928055 306.885523 127.413055 305.438023 
Q 127.810555 304.243023 128.623055 303.608023 
Q 129.435555 302.970523 130.343055 302.970523 
Q 131.265555 302.970523 132.065555 303.600523 
Q 132.865555 304.228023 133.240555 305.290523 
Q 133.765555 306.750523 133.765555 308.485523 
z
M 131.358055 308.470523 
Q 131.358055 305.688023 131.328055 305.228023 
Q 131.248055 304.143023 130.953055 303.760523 
Q 130.758055 303.510523 130.320555 303.510523 
Q 129.983055 303.510523 129.788055 303.698023 
Q 129.498055 303.970523 129.395555 304.663023 
Q 129.295555 305.353023 129.295555 309.485523 
Q 129.295555 311.735523 129.453055 312.500523 
Q 129.570555 313.055523 129.788055 313.243023 
Q 130.008055 313.430523 130.365555 313.430523 
Q 130.758055 313.430523 130.953055 313.180523 
Q 131.280555 312.743023 131.328055 311.830523 
L 131.358055 308.470523 
z
"/>
   </g>
   <g id="text_24">
    <path d="M 108.718055 206.962609 
L 108.718055 206.690109 
Q 109.608055 206.430109 109.950555 206.207609 
Q 110.295555 205.985109 110.545555 205.530109 
Q 110.795555 205.072609 110.795555 204.602609 
Q 110.795555 203.955109 110.323055 203.490109 
Q 109.850555 203.025109 109.148055 203.025109 
Q 108.053055 203.025109 107.288055 204.180109 
L 106.998055 204.080109 
Q 107.560555 202.775109 108.440555 202.120109 
Q 109.320555 201.462609 110.398055 201.462609 
Q 111.498055 201.462609 112.213055 202.135109 
Q 112.928055 202.805109 112.928055 203.705109 
Q 112.928055 204.290109 112.595555 204.835109 
Q 112.265555 205.377609 111.553055 205.790109 
Q 112.468055 206.235109 112.948055 206.887609 
Q 113.428055 207.540109 113.428055 208.525109 
Q 113.428055 210.180109 112.228055 211.342609 
Q 111.030555 212.502609 109.015555 212.502609 
Q 107.670555 212.502609 107.053055 212.055109 
Q 106.608055 211.742609 106.608055 211.252609 
Q 106.608055 210.892609 106.865555 210.640109 
Q 107.123055 210.385109 107.460555 210.385109 
Q 107.718055 210.385109 107.945555 210.492609 
Q 108.070555 210.555109 108.830555 211.177609 
Q 109.593055 211.797609 110.258055 211.797609 
Q 110.835555 211.797609 111.248055 211.342609 
Q 111.663055 210.885109 111.663055 210.180109 
Q 111.663055 209.110109 110.913055 208.207609 
Q 110.163055 207.305109 108.718055 206.962609 
z
M 117.185555 212.495109 
L 120.070555 203.752609 
L 117.873055 203.752609 
Q 116.585555 203.752609 115.935555 204.087609 
Q 115.483055 204.322609 115.185555 204.970109 
L 114.890555 204.970109 
L 115.655555 201.680109 
L 121.968055 201.680109 
L 118.413055 212.495109 
L 117.185555 212.495109 
z
M 124.350555 209.867609 
Q 124.898055 209.867609 125.275555 210.252609 
Q 125.655555 210.635109 125.655555 211.172609 
Q 125.655555 211.712609 125.273055 212.092609 
Q 124.890555 212.470109 124.350555 212.470109 
Q 123.810555 212.470109 123.430555 212.092609 
Q 123.053055 211.712609 123.053055 211.172609 
Q 123.053055 210.635109 123.430555 210.252609 
Q 123.810555 209.867609 124.350555 209.867609 
z
M 133.765555 206.977609 
Q 133.765555 208.565109 133.320555 209.940109 
Q 133.053055 210.782609 132.603055 211.322609 
Q 132.155555 211.860109 131.585555 212.177609 
Q 131.015555 212.495109 130.343055 212.495109 
Q 129.578055 212.495109 128.960555 212.105109 
Q 128.343055 211.712609 127.865555 210.985109 
Q 127.523055 210.455109 127.265555 209.572609 
Q 126.928055 208.377609 126.928055 207.102609 
Q 126.928055 205.377609 127.413055 203.930109 
Q 127.810555 202.735109 128.623055 202.100109 
Q 129.435555 201.462609 130.343055 201.462609 
Q 131.265555 201.462609 132.065555 202.092609 
Q 132.865555 202.720109 133.240555 203.782609 
Q 133.765555 205.242609 133.765555 206.977609 
z
M 131.358055 206.962609 
Q 131.358055 204.180109 131.328055 203.720109 
Q 131.248055 202.635109 130.953055 202.252609 
Q 130.758055 202.002609 130.320555 202.002609 
Q 129.983055 202.002609 129.788055 202.190109 
Q 129.498055 202.462609 129.395555 203.155109 
Q 129.295555 203.845109 129.295555 207.977609 
Q 129.295555 210.227609 129.453055 210.992609 
Q 129.570555 211.547609 129.788055 211.735109 
Q 130.008055 211.922609 130.365555 211.922609 
Q 130.758055 211.922609 130.953055 211.672609 
Q 131.280555 211.235109 131.328055 210.322609 
L 131.358055 206.962609 
z
" style="stroke: #ffffff; stroke-width: 3.8"/>
    <path d="M 108.718055 206.962609 
L 108.718055 206.690109 
Q 109.608055 206.430109 109.950555 206.207609 
Q 110.295555 205.985109 110.545555 205.530109 
Q 110.795555 205.072609 110.795555 204.602609 
Q 110.795555 203.955109 110.323055 203.490109 
Q 109.850555 203.025109 109.148055 203.025109 
Q 108.053055 203.025109 107.288055 204.180109 
L 106.998055 204.080109 
Q 107.560555 202.775109 108.440555 202.120109 
Q 109.320555 201.462609 110.398055 201.462609 
Q 111.498055 201.462609 112.213055 202.135109 
Q 112.928055 202.805109 112.928055 203.705109 
Q 112.928055 204.290109 112.595555 204.835109 
Q 112.265555 205.377609 111.553055 205.790109 
Q 112.468055 206.235109 112.948055 206.887609 
Q 113.428055 207.540109 113.428055 208.525109 
Q 113.428055 210.180109 112.228055 211.342609 
Q 111.030555 212.502609 109.015555 212.502609 
Q 107.670555 212.502609 107.053055 212.055109 
Q 106.608055 211.742609 106.608055 211.252609 
Q 106.608055 210.892609 106.865555 210.640109 
Q 107.123055 210.385109 107.460555 210.385109 
Q 107.718055 210.385109 107.945555 210.492609 
Q 108.070555 210.555109 108.830555 211.177609 
Q 109.593055 211.797609 110.258055 211.797609 
Q 110.835555 211.797609 111.248055 211.342609 
Q 111.663055 210.885109 111.663055 210.180109 
Q 111.663055 209.110109 110.913055 208.207609 
Q 110.163055 207.305109 108.718055 206.962609 
z
M 117.185555 212.495109 
L 120.070555 203.752609 
L 117.873055 203.752609 
Q 116.585555 203.752609 115.935555 204.087609 
Q 115.483055 204.322609 115.185555 204.970109 
L 114.890555 204.970109 
L 115.655555 201.680109 
L 121.968055 201.680109 
L 118.413055 212.495109 
L 117.185555 212.495109 
z
M 124.350555 209.867609 
Q 124.898055 209.867609 125.275555 210.252609 
Q 125.655555 210.635109 125.655555 211.172609 
Q 125.655555 211.712609 125.273055 212.092609 
Q 124.890555 212.470109 124.350555 212.470109 
Q 123.810555 212.470109 123.430555 212.092609 
Q 123.053055 211.712609 123.053055 211.172609 
Q 123.053055 210.635109 123.430555 210.252609 
Q 123.810555 209.867609 124.350555 209.867609 
z
M 133.765555 206.977609 
Q 133.765555 208.565109 133.320555 209.940109 
Q 133.053055 210.782609 132.603055 211.322609 
Q 132.155555 211.860109 131.585555 212.177609 
Q 131.015555 212.495109 130.343055 212.495109 
Q 129.578055 212.495109 128.960555 212.105109 
Q 128.343055 211.712609 127.865555 210.985109 
Q 127.523055 210.455109 127.265555 209.572609 
Q 126.928055 208.377609 126.928055 207.102609 
Q 126.928055 205.377609 127.413055 203.930109 
Q 127.810555 202.735109 128.623055 202.100109 
Q 129.435555 201.462609 130.343055 201.462609 
Q 131.265555 201.462609 132.065555 202.092609 
Q 132.865555 202.720109 133.240555 203.782609 
Q 133.765555 205.242609 133.765555 206.977609 
z
M 131.358055 206.962609 
Q 131.358055 204.180109 131.328055 203.720109 
Q 131.248055 202.635109 130.953055 202.252609 
Q 130.758055 202.002609 130.320555 202.002609 
Q 129.983055 202.002609 129.788055 202.190109 
Q 129.498055 202.462609 129.395555 203.155109 
Q 129.295555 203.845109 129.295555 207.977609 
Q 129.295555 210.227609 129.453055 210.992609 
Q 129.570555 211.547609 129.788055 211.735109 
Q 130.008055 211.922609 130.365555 211.922609 
Q 130.758055 211.922609 130.953055 211.672609 
Q 131.280555 211.235109 131.328055 210.322609 
L 131.358055 206.962609 
z
"/>
   </g>
   <g id="text_25">
    <path d="M 361.434697 251.76804 
L 361.434697 260.43304 
Q 361.434697 261.40804 361.519697 261.67804 
Q 361.607197 261.94804 361.879697 262.12054 
Q 362.154697 262.29054 362.757197 262.29054 
L 362.997197 262.29054 
L 362.997197 262.58054 
L 357.419697 262.58054 
L 357.419697 262.29054 
L 357.702197 262.29054 
Q 358.382197 262.29054 358.669697 262.13554 
Q 358.959697 261.97804 359.059697 261.70554 
Q 359.162197 261.43304 359.162197 260.43304 
L 359.162197 254.94054 
Q 359.162197 254.20554 359.092197 254.02304 
Q 359.022197 253.83804 358.829697 253.71054 
Q 358.639697 253.58054 358.389697 253.58054 
Q 357.989697 253.58054 357.419697 253.83054 
L 357.279697 253.54804 
L 361.177197 251.76804 
L 361.434697 251.76804 
z
M 369.677197 256.59554 
Q 370.794697 257.41554 371.227197 258.12304 
Q 371.662197 258.83054 371.662197 259.74554 
Q 371.662197 261.02554 370.697197 261.91304 
Q 369.732197 262.80054 368.077197 262.80054 
Q 366.507197 262.80054 365.647197 262.02804 
Q 364.787197 261.25304 364.787197 260.13554 
Q 364.787197 259.28304 365.282197 258.64304 
Q 365.779697 258.00304 366.934697 257.47054 
Q 365.677197 256.51054 365.322197 255.90054 
Q 364.967197 255.29054 364.967197 254.48554 
Q 364.967197 253.42304 365.869697 252.61554 
Q 366.772197 251.80804 368.342197 251.80804 
Q 369.857197 251.80804 370.672197 252.52304 
Q 371.489697 253.23554 371.489697 254.23554 
Q 371.489697 254.98554 371.047197 255.56054 
Q 370.607197 256.13554 369.677197 256.59554 
z
M 369.084697 256.19804 
Q 369.372197 255.80804 369.512197 255.32304 
Q 369.654697 254.83804 369.654697 254.26054 
Q 369.654697 253.24554 369.217197 252.70554 
Q 368.889697 252.29054 368.309697 252.29054 
Q 367.787197 252.29054 367.419697 252.67054 
Q 367.052197 253.04804 367.052197 253.61054 
Q 367.052197 254.18304 367.462197 254.79554 
Q 367.872197 255.40804 369.084697 256.19804 
z
M 367.522197 257.84554 
Q 367.279697 258.06554 367.177197 258.24554 
Q 367.022197 258.51804 366.897197 259.04304 
Q 366.772197 259.56554 366.772197 260.13554 
Q 366.772197 260.87054 366.959697 261.36554 
Q 367.147197 261.86054 367.494697 262.08054 
Q 367.842197 262.29804 368.209697 262.29804 
Q 368.779697 262.29804 369.169697 261.88054 
Q 369.559697 261.46304 369.559697 260.73554 
Q 369.559697 259.22054 367.522197 257.84554 
z
M 374.224697 260.17304 
Q 374.772197 260.17304 375.149697 260.55804 
Q 375.529697 260.94054 375.529697 261.47804 
Q 375.529697 262.01804 375.147197 262.39804 
Q 374.764697 262.77554 374.224697 262.77554 
Q 373.684697 262.77554 373.304697 262.39804 
Q 372.927197 262.01804 372.927197 261.47804 
Q 372.927197 260.94054 373.304697 260.55804 
Q 373.684697 260.17304 374.224697 260.17304 
z
M 376.717197 262.80054 
L 376.717197 262.58054 
Q 378.014697 262.28304 378.917197 261.70554 
Q 379.819697 261.12804 380.344697 260.27554 
Q 380.872197 259.42304 381.084697 258.31554 
Q 380.599697 258.56554 380.259697 258.66304 
Q 379.919697 258.76054 379.544697 258.76054 
Q 378.342197 258.76054 377.539697 257.89304 
Q 376.739697 257.02554 376.739697 255.51804 
Q 376.739697 254.47054 377.172197 253.60054 
Q 377.607197 252.72804 378.412197 252.24804 
Q 379.217197 251.76804 380.084697 251.76804 
Q 381.014697 251.76804 381.842197 252.30054 
Q 382.669697 252.83054 383.162197 253.83804 
Q 383.654697 254.84554 383.654697 256.13554 
Q 383.654697 257.80804 382.852197 259.34054 
Q 382.052197 260.87054 380.467197 261.79554 
Q 378.882197 262.72054 376.717197 262.80054 
z
M 381.202197 257.65804 
Q 381.279697 256.78304 381.279697 256.12054 
Q 381.279697 254.69804 380.952197 253.47054 
Q 380.764697 252.79054 380.397197 252.47054 
Q 380.202197 252.29804 379.889697 252.29804 
Q 379.497197 252.29804 379.279697 252.63554 
Q 378.974697 253.09554 378.974697 254.39304 
Q 378.974697 256.55804 379.489697 257.37804 
Q 379.827197 257.90804 380.397197 257.90804 
Q 380.702197 257.90804 381.202197 257.65804 
z
" style="stroke: #ffffff; stroke-width: 3.8"/>
    <path d="M 361.434697 251.76804 
L 361.434697 260.43304 
Q 361.434697 261.40804 361.519697 261.67804 
Q 361.607197 261.94804 361.879697 262.12054 
Q 362.154697 262.29054 362.757197 262.29054 
L 362.997197 262.29054 
L 362.997197 262.58054 
L 357.419697 262.58054 
L 357.419697 262.29054 
L 357.702197 262.29054 
Q 358.382197 262.29054 358.669697 262.13554 
Q 358.959697 261.97804 359.059697 261.70554 
Q 359.162197 261.43304 359.162197 260.43304 
L 359.162197 254.94054 
Q 359.162197 254.20554 359.092197 254.02304 
Q 359.022197 253.83804 358.829697 253.71054 
Q 358.639697 253.58054 358.389697 253.58054 
Q 357.989697 253.58054 357.419697 253.83054 
L 357.279697 253.54804 
L 361.177197 251.76804 
L 361.434697 251.76804 
z
M 369.677197 256.59554 
Q 370.794697 257.41554 371.227197 258.12304 
Q 371.662197 258.83054 371.662197 259.74554 
Q 371.662197 261.02554 370.697197 261.91304 
Q 369.732197 262.80054 368.077197 262.80054 
Q 366.507197 262.80054 365.647197 262.02804 
Q 364.787197 261.25304 364.787197 260.13554 
Q 364.787197 259.28304 365.282197 258.64304 
Q 365.779697 258.00304 366.934697 257.47054 
Q 365.677197 256.51054 365.322197 255.90054 
Q 364.967197 255.29054 364.967197 254.48554 
Q 364.967197 253.42304 365.869697 252.61554 
Q 366.772197 251.80804 368.342197 251.80804 
Q 369.857197 251.80804 370.672197 252.52304 
Q 371.489697 253.23554 371.489697 254.23554 
Q 371.489697 254.98554 371.047197 255.56054 
Q 370.607197 256.13554 369.677197 256.59554 
z
M 369.084697 256.19804 
Q 369.372197 255.80804 369.512197 255.32304 
Q 369.654697 254.83804 369.654697 254.26054 
Q 369.654697 253.24554 369.217197 252.70554 
Q 368.889697 252.29054 368.309697 252.29054 
Q 367.787197 252.29054 367.419697 252.67054 
Q 367.052197 253.04804 367.052197 253.61054 
Q 367.052197 254.18304 367.462197 254.79554 
Q 367.872197 255.40804 369.084697 256.19804 
z
M 367.522197 257.84554 
Q 367.279697 258.06554 367.177197 258.24554 
Q 367.022197 258.51804 366.897197 259.04304 
Q 366.772197 259.56554 366.772197 260.13554 
Q 366.772197 260.87054 366.959697 261.36554 
Q 367.147197 261.86054 367.494697 262.08054 
Q 367.842197 262.29804 368.209697 262.29804 
Q 368.779697 262.29804 369.169697 261.88054 
Q 369.559697 261.46304 369.559697 260.73554 
Q 369.559697 259.22054 367.522197 257.84554 
z
M 374.224697 260.17304 
Q 374.772197 260.17304 375.149697 260.55804 
Q 375.529697 260.94054 375.529697 261.47804 
Q 375.529697 262.01804 375.147197 262.39804 
Q 374.764697 262.77554 374.224697 262.77554 
Q 373.684697 262.77554 373.304697 262.39804 
Q 372.927197 262.01804 372.927197 261.47804 
Q 372.927197 260.94054 373.304697 260.55804 
Q 373.684697 260.17304 374.224697 260.17304 
z
M 376.717197 262.80054 
L 376.717197 262.58054 
Q 378.014697 262.28304 378.917197 261.70554 
Q 379.819697 261.12804 380.344697 260.27554 
Q 380.872197 259.42304 381.084697 258.31554 
Q 380.599697 258.56554 380.259697 258.66304 
Q 379.919697 258.76054 379.544697 258.76054 
Q 378.342197 258.76054 377.539697 257.89304 
Q 376.739697 257.02554 376.739697 255.51804 
Q 376.739697 254.47054 377.172197 253.60054 
Q 377.607197 252.72804 378.412197 252.24804 
Q 379.217197 251.76804 380.084697 251.76804 
Q 381.014697 251.76804 381.842197 252.30054 
Q 382.669697 252.83054 383.162197 253.83804 
Q 383.654697 254.84554 383.654697 256.13554 
Q 383.654697 257.80804 382.852197 259.34054 
Q 382.052197 260.87054 380.467197 261.79554 
Q 378.882197 262.72054 376.717197 262.80054 
z
M 381.202197 257.65804 
Q 381.279697 256.78304 381.279697 256.12054 
Q 381.279697 254.69804 380.952197 253.47054 
Q 380.764697 252.79054 380.397197 252.47054 
Q 380.202197 252.29804 379.889697 252.29804 
Q 379.497197 252.29804 379.279697 252.63554 
Q 378.974697 253.09554 378.974697 254.39304 
Q 378.974697 256.55804 379.489697 257.37804 
Q 379.827197 257.90804 380.397197 257.90804 
Q 380.702197 257.90804 381.202197 257.65804 
z
"/>
   </g>
   <g id="text_26">
    <path d="M 362.849697 187.531978 
L 356.614697 187.531978 
L 356.614697 187.359478 
Q 359.482197 183.946978 360.094697 182.766978 
Q 360.709697 181.586978 360.709697 180.461978 
Q 360.709697 179.641978 360.202197 179.099478 
Q 359.694697 178.554478 358.959697 178.554478 
Q 357.757197 178.554478 357.092197 179.759478 
L 356.802197 179.656978 
Q 357.224697 178.156978 358.084697 177.439478 
Q 358.944697 176.719478 360.069697 176.719478 
Q 360.872197 176.719478 361.537197 177.094478 
Q 362.202197 177.469478 362.577197 178.121978 
Q 362.952197 178.774478 362.952197 179.344478 
Q 362.952197 180.384478 362.372197 181.454478 
Q 361.584697 182.899478 358.927197 185.484478 
L 361.217197 185.484478 
Q 362.059697 185.484478 362.314697 185.414478 
Q 362.569697 185.344478 362.732197 185.176978 
Q 362.897197 185.009478 363.162197 184.469478 
L 363.444697 184.469478 
L 362.849697 187.531978 
z
M 364.717197 187.751978 
L 364.717197 187.531978 
Q 366.014697 187.234478 366.917197 186.656978 
Q 367.819697 186.079478 368.344697 185.226978 
Q 368.872197 184.374478 369.084697 183.266978 
Q 368.599697 183.516978 368.259697 183.614478 
Q 367.919697 183.711978 367.544697 183.711978 
Q 366.342197 183.711978 365.539697 182.844478 
Q 364.739697 181.976978 364.739697 180.469478 
Q 364.739697 179.421978 365.172197 178.551978 
Q 365.607197 177.679478 366.412197 177.199478 
Q 367.217197 176.719478 368.084697 176.719478 
Q 369.014697 176.719478 369.842197 177.251978 
Q 370.669697 177.781978 371.162197 178.789478 
Q 371.654697 179.796978 371.654697 181.086978 
Q 371.654697 182.759478 370.852197 184.291978 
Q 370.052197 185.821978 368.467197 186.746978 
Q 366.882197 187.671978 364.717197 187.751978 
z
M 369.202197 182.609478 
Q 369.279697 181.734478 369.279697 181.071978 
Q 369.279697 179.649478 368.952197 178.421978 
Q 368.764697 177.741978 368.397197 177.421978 
Q 368.202197 177.249478 367.889697 177.249478 
Q 367.497197 177.249478 367.279697 177.586978 
Q 366.974697 178.046978 366.974697 179.344478 
Q 366.974697 181.509478 367.489697 182.329478 
Q 367.827197 182.859478 368.397197 182.859478 
Q 368.702197 182.859478 369.202197 182.609478 
z
M 374.224697 185.124478 
Q 374.772197 185.124478 375.149697 185.509478 
Q 375.529697 185.891978 375.529697 186.429478 
Q 375.529697 186.969478 375.147197 187.349478 
Q 374.764697 187.726978 374.224697 187.726978 
Q 373.684697 187.726978 373.304697 187.349478 
Q 372.927197 186.969478 372.927197 186.429478 
Q 372.927197 185.891978 373.304697 185.509478 
Q 373.684697 185.124478 374.224697 185.124478 
z
M 378.662197 176.936978 
L 383.622197 176.936978 
L 382.834697 178.954478 
L 378.662197 178.954478 
L 378.264697 180.009478 
Q 380.959697 180.109478 382.412197 181.351978 
Q 383.607197 182.374478 383.607197 183.899478 
Q 383.607197 184.874478 383.052197 185.809478 
Q 382.497197 186.741978 381.489697 187.246978 
Q 380.482197 187.751978 379.279697 187.751978 
Q 377.982197 187.751978 377.287197 187.266978 
Q 376.802197 186.921978 376.802197 186.484478 
Q 376.802197 186.149478 377.054697 185.891978 
Q 377.309697 185.634478 377.647197 185.634478 
Q 377.952197 185.634478 378.264697 185.759478 
Q 378.577197 185.884478 379.334697 186.414478 
Q 379.809697 186.741978 380.154697 186.866978 
Q 380.397197 186.961978 380.702197 186.961978 
Q 381.342197 186.961978 381.789697 186.494478 
Q 382.239697 186.024478 382.239697 185.366978 
Q 382.239697 183.991978 380.864697 183.134478 
Q 379.489697 182.274478 377.397197 182.274478 
Q 377.184697 182.274478 376.764697 182.281978 
L 378.662197 176.936978 
z
" style="stroke: #ffffff; stroke-width: 3.8"/>
    <path d="M 362.849697 187.531978 
L 356.614697 187.531978 
L 356.614697 187.359478 
Q 359.482197 183.946978 360.094697 182.766978 
Q 360.709697 181.586978 360.709697 180.461978 
Q 360.709697 179.641978 360.202197 179.099478 
Q 359.694697 178.554478 358.959697 178.554478 
Q 357.757197 178.554478 357.092197 179.759478 
L 356.802197 179.656978 
Q 357.224697 178.156978 358.084697 177.439478 
Q 358.944697 176.719478 360.069697 176.719478 
Q 360.872197 176.719478 361.537197 177.094478 
Q 362.202197 177.469478 362.577197 178.121978 
Q 362.952197 178.774478 362.952197 179.344478 
Q 362.952197 180.384478 362.372197 181.454478 
Q 361.584697 182.899478 358.927197 185.484478 
L 361.217197 185.484478 
Q 362.059697 185.484478 362.314697 185.414478 
Q 362.569697 185.344478 362.732197 185.176978 
Q 362.897197 185.009478 363.162197 184.469478 
L 363.444697 184.469478 
L 362.849697 187.531978 
z
M 364.717197 187.751978 
L 364.717197 187.531978 
Q 366.014697 187.234478 366.917197 186.656978 
Q 367.819697 186.079478 368.344697 185.226978 
Q 368.872197 184.374478 369.084697 183.266978 
Q 368.599697 183.516978 368.259697 183.614478 
Q 367.919697 183.711978 367.544697 183.711978 
Q 366.342197 183.711978 365.539697 182.844478 
Q 364.739697 181.976978 364.739697 180.469478 
Q 364.739697 179.421978 365.172197 178.551978 
Q 365.607197 177.679478 366.412197 177.199478 
Q 367.217197 176.719478 368.084697 176.719478 
Q 369.014697 176.719478 369.842197 177.251978 
Q 370.669697 177.781978 371.162197 178.789478 
Q 371.654697 179.796978 371.654697 181.086978 
Q 371.654697 182.759478 370.852197 184.291978 
Q 370.052197 185.821978 368.467197 186.746978 
Q 366.882197 187.671978 364.717197 187.751978 
z
M 369.202197 182.609478 
Q 369.279697 181.734478 369.279697 181.071978 
Q 369.279697 179.649478 368.952197 178.421978 
Q 368.764697 177.741978 368.397197 177.421978 
Q 368.202197 177.249478 367.889697 177.249478 
Q 367.497197 177.249478 367.279697 177.586978 
Q 366.974697 178.046978 366.974697 179.344478 
Q 366.974697 181.509478 367.489697 182.329478 
Q 367.827197 182.859478 368.397197 182.859478 
Q 368.702197 182.859478 369.202197 182.609478 
z
M 374.224697 185.124478 
Q 374.772197 185.124478 375.149697 185.509478 
Q 375.529697 185.891978 375.529697 186.429478 
Q 375.529697 186.969478 375.147197 187.349478 
Q 374.764697 187.726978 374.224697 187.726978 
Q 373.684697 187.726978 373.304697 187.349478 
Q 372.927197 186.969478 372.927197 186.429478 
Q 372.927197 185.891978 373.304697 185.509478 
Q 373.684697 185.124478 374.224697 185.124478 
z
M 378.662197 176.936978 
L 383.622197 176.936978 
L 382.834697 178.954478 
L 378.662197 178.954478 
L 378.264697 180.009478 
Q 380.959697 180.109478 382.412197 181.351978 
Q 383.607197 182.374478 383.607197 183.899478 
Q 383.607197 184.874478 383.052197 185.809478 
Q 382.497197 186.741978 381.489697 187.246978 
Q 380.482197 187.751978 379.279697 187.751978 
Q 377.982197 187.751978 377.287197 187.266978 
Q 376.802197 186.921978 376.802197 186.484478 
Q 376.802197 186.149478 377.054697 185.891978 
Q 377.309697 185.634478 377.647197 185.634478 
Q 377.952197 185.634478 378.264697 185.759478 
Q 378.577197 185.884478 379.334697 186.414478 
Q 379.809697 186.741978 380.154697 186.866978 
Q 380.397197 186.961978 380.702197 186.961978 
Q 381.342197 186.961978 381.789697 186.494478 
Q 382.239697 186.024478 382.239697 185.366978 
Q 382.239697 183.991978 380.864697 183.134478 
Q 379.489697 182.274478 377.397197 182.274478 
Q 377.184697 182.274478 376.764697 182.281978 
L 378.662197 176.936978 
z
"/>
   </g>
   <g id="text_27">
    <path d="M 358.662197 102.572937 
L 363.622197 102.572937 
L 362.834697 104.590437 
L 358.662197 104.590437 
L 358.264697 105.645437 
Q 360.959697 105.745437 362.412197 106.987937 
Q 363.607197 108.010437 363.607197 109.535437 
Q 363.607197 110.510437 363.052197 111.445437 
Q 362.497197 112.377937 361.489697 112.882937 
Q 360.482197 113.387937 359.279697 113.387937 
Q 357.982197 113.387937 357.287197 112.902937 
Q 356.802197 112.557937 356.802197 112.120437 
Q 356.802197 111.785437 357.054697 111.527937 
Q 357.309697 111.270437 357.647197 111.270437 
Q 357.952197 111.270437 358.264697 111.395437 
Q 358.577197 111.520437 359.334697 112.050437 
Q 359.809697 112.377937 360.154697 112.502937 
Q 360.397197 112.597937 360.702197 112.597937 
Q 361.342197 112.597937 361.789697 112.130437 
Q 362.239697 111.660437 362.239697 111.002937 
Q 362.239697 109.627937 360.864697 108.770437 
Q 359.489697 107.910437 357.397197 107.910437 
Q 357.184697 107.910437 356.764697 107.917937 
L 358.662197 102.572937 
z
M 366.662197 102.572937 
L 371.622197 102.572937 
L 370.834697 104.590437 
L 366.662197 104.590437 
L 366.264697 105.645437 
Q 368.959697 105.745437 370.412197 106.987937 
Q 371.607197 108.010437 371.607197 109.535437 
Q 371.607197 110.510437 371.052197 111.445437 
Q 370.497197 112.377937 369.489697 112.882937 
Q 368.482197 113.387937 367.279697 113.387937 
Q 365.982197 113.387937 365.287197 112.902937 
Q 364.802197 112.557937 364.802197 112.120437 
Q 364.802197 111.785437 365.054697 111.527937 
Q 365.309697 111.270437 365.647197 111.270437 
Q 365.952197 111.270437 366.264697 111.395437 
Q 366.577197 111.520437 367.334697 112.050437 
Q 367.809697 112.377937 368.154697 112.502937 
Q 368.397197 112.597937 368.702197 112.597937 
Q 369.342197 112.597937 369.789697 112.130437 
Q 370.239697 111.660437 370.239697 111.002937 
Q 370.239697 109.627937 368.864697 108.770437 
Q 367.489697 107.910437 365.397197 107.910437 
Q 365.184697 107.910437 364.764697 107.917937 
L 366.662197 102.572937 
z
M 374.224697 110.760437 
Q 374.772197 110.760437 375.149697 111.145437 
Q 375.529697 111.527937 375.529697 112.065437 
Q 375.529697 112.605437 375.147197 112.985437 
Q 374.764697 113.362937 374.224697 113.362937 
Q 373.684697 113.362937 373.304697 112.985437 
Q 372.927197 112.605437 372.927197 112.065437 
Q 372.927197 111.527937 373.304697 111.145437 
Q 373.684697 110.760437 374.224697 110.760437 
z
M 378.592197 107.855437 
L 378.592197 107.582937 
Q 379.482197 107.322937 379.824697 107.100437 
Q 380.169697 106.877937 380.419697 106.422937 
Q 380.669697 105.965437 380.669697 105.495437 
Q 380.669697 104.847937 380.197197 104.382937 
Q 379.724697 103.917937 379.022197 103.917937 
Q 377.927197 103.917937 377.162197 105.072937 
L 376.872197 104.972937 
Q 377.434697 103.667937 378.314697 103.012937 
Q 379.194697 102.355437 380.272197 102.355437 
Q 381.372197 102.355437 382.087197 103.027937 
Q 382.802197 103.697937 382.802197 104.597937 
Q 382.802197 105.182937 382.469697 105.727937 
Q 382.139697 106.270437 381.427197 106.682937 
Q 382.342197 107.127937 382.822197 107.780437 
Q 383.302197 108.432937 383.302197 109.417937 
Q 383.302197 111.072937 382.102197 112.235437 
Q 380.904697 113.395437 378.889697 113.395437 
Q 377.544697 113.395437 376.927197 112.947937 
Q 376.482197 112.635437 376.482197 112.145437 
Q 376.482197 111.785437 376.739697 111.532937 
Q 376.997197 111.277937 377.334697 111.277937 
Q 377.592197 111.277937 377.819697 111.385437 
Q 377.944697 111.447937 378.704697 112.070437 
Q 379.467197 112.690437 380.132197 112.690437 
Q 380.709697 112.690437 381.122197 112.235437 
Q 381.537197 111.777937 381.537197 111.072937 
Q 381.537197 110.002937 380.787197 109.100437 
Q 380.037197 108.197937 378.592197 107.855437 
z
" style="stroke: #ffffff; stroke-width: 3.8"/>
    <path d="M 358.662197 102.572937 
L 363.622197 102.572937 
L 362.834697 104.590437 
L 358.662197 104.590437 
L 358.264697 105.645437 
Q 360.959697 105.745437 362.412197 106.987937 
Q 363.607197 108.010437 363.607197 109.535437 
Q 363.607197 110.510437 363.052197 111.445437 
Q 362.497197 112.377937 361.489697 112.882937 
Q 360.482197 113.387937 359.279697 113.387937 
Q 357.982197 113.387937 357.287197 112.902937 
Q 356.802197 112.557937 356.802197 112.120437 
Q 356.802197 111.785437 357.054697 111.527937 
Q 357.309697 111.270437 357.647197 111.270437 
Q 357.952197 111.270437 358.264697 111.395437 
Q 358.577197 111.520437 359.334697 112.050437 
Q 359.809697 112.377937 360.154697 112.502937 
Q 360.397197 112.597937 360.702197 112.597937 
Q 361.342197 112.597937 361.789697 112.130437 
Q 362.239697 111.660437 362.239697 111.002937 
Q 362.239697 109.627937 360.864697 108.770437 
Q 359.489697 107.910437 357.397197 107.910437 
Q 357.184697 107.910437 356.764697 107.917937 
L 358.662197 102.572937 
z
M 366.662197 102.572937 
L 371.622197 102.572937 
L 370.834697 104.590437 
L 366.662197 104.590437 
L 366.264697 105.645437 
Q 368.959697 105.745437 370.412197 106.987937 
Q 371.607197 108.010437 371.607197 109.535437 
Q 371.607197 110.510437 371.052197 111.445437 
Q 370.497197 112.377937 369.489697 112.882937 
Q 368.482197 113.387937 367.279697 113.387937 
Q 365.982197 113.387937 365.287197 112.902937 
Q 364.802197 112.557937 364.802197 112.120437 
Q 364.802197 111.785437 365.054697 111.527937 
Q 365.309697 111.270437 365.647197 111.270437 
Q 365.952197 111.270437 366.264697 111.395437 
Q 366.577197 111.520437 367.334697 112.050437 
Q 367.809697 112.377937 368.154697 112.502937 
Q 368.397197 112.597937 368.702197 112.597937 
Q 369.342197 112.597937 369.789697 112.130437 
Q 370.239697 111.660437 370.239697 111.002937 
Q 370.239697 109.627937 368.864697 108.770437 
Q 367.489697 107.910437 365.397197 107.910437 
Q 365.184697 107.910437 364.764697 107.917937 
L 366.662197 102.572937 
z
M 374.224697 110.760437 
Q 374.772197 110.760437 375.149697 111.145437 
Q 375.529697 111.527937 375.529697 112.065437 
Q 375.529697 112.605437 375.147197 112.985437 
Q 374.764697 113.362937 374.224697 113.362937 
Q 373.684697 113.362937 373.304697 112.985437 
Q 372.927197 112.605437 372.927197 112.065437 
Q 372.927197 111.527937 373.304697 111.145437 
Q 373.684697 110.760437 374.224697 110.760437 
z
M 378.592197 107.855437 
L 378.592197 107.582937 
Q 379.482197 107.322937 379.824697 107.100437 
Q 380.169697 106.877937 380.419697 106.422937 
Q 380.669697 105.965437 380.669697 105.495437 
Q 380.669697 104.847937 380.197197 104.382937 
Q 379.724697 103.917937 379.022197 103.917937 
Q 377.927197 103.917937 377.162197 105.072937 
L 376.872197 104.972937 
Q 377.434697 103.667937 378.314697 103.012937 
Q 379.194697 102.355437 380.272197 102.355437 
Q 381.372197 102.355437 382.087197 103.027937 
Q 382.802197 103.697937 382.802197 104.597937 
Q 382.802197 105.182937 382.469697 105.727937 
Q 382.139697 106.270437 381.427197 106.682937 
Q 382.342197 107.127937 382.822197 107.780437 
Q 383.302197 108.432937 383.302197 109.417937 
Q 383.302197 111.072937 382.102197 112.235437 
Q 380.904697 113.395437 378.889697 113.395437 
Q 377.544697 113.395437 376.927197 112.947937 
Q 376.482197 112.635437 376.482197 112.145437 
Q 376.482197 111.785437 376.739697 111.532937 
Q 376.997197 111.277937 377.334697 111.277937 
Q 377.592197 111.277937 377.819697 111.385437 
Q 377.944697 111.447937 378.704697 112.070437 
Q 379.467197 112.690437 380.132197 112.690437 
Q 380.709697 112.690437 381.122197 112.235437 
Q 381.537197 111.777937 381.537197 111.072937 
Q 381.537197 110.002937 380.787197 109.100437 
Q 380.037197 108.197937 378.592197 107.855437 
z
"/>
   </g>
   <g id="text_28">
    <path d="M 578.778672 206.741952 
L 572.543672 206.741952 
L 572.543672 206.569452 
Q 575.411172 203.156952 576.023672 201.976952 
Q 576.638672 200.796952 576.638672 199.671952 
Q 576.638672 198.851952 576.131172 198.309452 
Q 575.623672 197.764452 574.888672 197.764452 
Q 573.686172 197.764452 573.021172 198.969452 
L 572.731172 198.866952 
Q 573.153672 197.366952 574.013672 196.649452 
Q 574.873672 195.929452 575.998672 195.929452 
Q 576.801172 195.929452 577.466172 196.304452 
Q 578.131172 196.679452 578.506172 197.331952 
Q 578.881172 197.984452 578.881172 198.554452 
Q 578.881172 199.594452 578.301172 200.664452 
Q 577.513672 202.109452 574.856172 204.694452 
L 577.146172 204.694452 
Q 577.988672 204.694452 578.243672 204.624452 
Q 578.498672 204.554452 578.661172 204.386952 
Q 578.826172 204.219452 579.091172 203.679452 
L 579.373672 203.679452 
L 578.778672 206.741952 
z
M 587.668672 195.929452 
L 587.668672 196.146952 
Q 586.256172 196.506952 585.398672 197.074452 
Q 584.543672 197.639452 584.046172 198.449452 
Q 583.551172 199.256952 583.278672 200.451952 
Q 583.623672 200.219452 583.848672 200.146952 
Q 584.356172 199.991952 584.873672 199.991952 
Q 586.061172 199.991952 586.853672 200.856952 
Q 587.646172 201.719452 587.646172 203.209452 
Q 587.646172 204.256952 587.216172 205.131952 
Q 586.786172 206.006952 585.996172 206.484452 
Q 585.208672 206.961952 584.311172 206.961952 
Q 583.333672 206.961952 582.503672 206.426952 
Q 581.676172 205.889452 581.211172 204.859452 
Q 580.748672 203.826952 580.748672 202.616952 
Q 580.748672 200.834452 581.603672 199.299452 
Q 582.458672 197.764452 584.031172 196.854452 
Q 585.606172 195.944452 587.668672 195.929452 
z
M 583.176172 201.084452 
Q 583.113672 202.164452 583.113672 202.664452 
Q 583.113672 203.741952 583.321172 204.749452 
Q 583.528672 205.756952 583.888672 206.164452 
Q 584.146172 206.451952 584.498672 206.451952 
Q 584.856172 206.451952 585.136172 206.034452 
Q 585.418672 205.616952 585.418672 204.334452 
Q 585.418672 202.179452 584.896172 201.359452 
Q 584.561172 200.826952 583.988672 200.826952 
Q 583.676172 200.826952 583.176172 201.084452 
z
M 590.153672 204.334452 
Q 590.701172 204.334452 591.078672 204.719452 
Q 591.458672 205.101952 591.458672 205.639452 
Q 591.458672 206.179452 591.076172 206.559452 
Q 590.693672 206.936952 590.153672 206.936952 
Q 589.613672 206.936952 589.233672 206.559452 
Q 588.856172 206.179452 588.856172 205.639452 
Q 588.856172 205.101952 589.233672 204.719452 
Q 589.613672 204.334452 590.153672 204.334452 
z
M 592.646172 206.961952 
L 592.646172 206.741952 
Q 593.943672 206.444452 594.846172 205.866952 
Q 595.748672 205.289452 596.273672 204.436952 
Q 596.801172 203.584452 597.013672 202.476952 
Q 596.528672 202.726952 596.188672 202.824452 
Q 595.848672 202.921952 595.473672 202.921952 
Q 594.271172 202.921952 593.468672 202.054452 
Q 592.668672 201.186952 592.668672 199.679452 
Q 592.668672 198.631952 593.101172 197.761952 
Q 593.536172 196.889452 594.341172 196.409452 
Q 595.146172 195.929452 596.013672 195.929452 
Q 596.943672 195.929452 597.771172 196.461952 
Q 598.598672 196.991952 599.091172 197.999452 
Q 599.583672 199.006952 599.583672 200.296952 
Q 599.583672 201.969452 598.781172 203.501952 
Q 597.981172 205.031952 596.396172 205.956952 
Q 594.811172 206.881952 592.646172 206.961952 
z
M 597.131172 201.819452 
Q 597.208672 200.944452 597.208672 200.281952 
Q 597.208672 198.859452 596.881172 197.631952 
Q 596.693672 196.951952 596.326172 196.631952 
Q 596.131172 196.459452 595.818672 196.459452 
Q 595.426172 196.459452 595.208672 196.796952 
Q 594.903672 197.256952 594.903672 198.554452 
Q 594.903672 200.719452 595.418672 201.539452 
Q 595.756172 202.069452 596.326172 202.069452 
Q 596.631172 202.069452 597.131172 201.819452 
z
" style="stroke: #ffffff; stroke-width: 3.8"/>
    <path d="M 578.778672 206.741952 
L 572.543672 206.741952 
L 572.543672 206.569452 
Q 575.411172 203.156952 576.023672 201.976952 
Q 576.638672 200.796952 576.638672 199.671952 
Q 576.638672 198.851952 576.131172 198.309452 
Q 575.623672 197.764452 574.888672 197.764452 
Q 573.686172 197.764452 573.021172 198.969452 
L 572.731172 198.866952 
Q 573.153672 197.366952 574.013672 196.649452 
Q 574.873672 195.929452 575.998672 195.929452 
Q 576.801172 195.929452 577.466172 196.304452 
Q 578.131172 196.679452 578.506172 197.331952 
Q 578.881172 197.984452 578.881172 198.554452 
Q 578.881172 199.594452 578.301172 200.664452 
Q 577.513672 202.109452 574.856172 204.694452 
L 577.146172 204.694452 
Q 577.988672 204.694452 578.243672 204.624452 
Q 578.498672 204.554452 578.661172 204.386952 
Q 578.826172 204.219452 579.091172 203.679452 
L 579.373672 203.679452 
L 578.778672 206.741952 
z
M 587.668672 195.929452 
L 587.668672 196.146952 
Q 586.256172 196.506952 585.398672 197.074452 
Q 584.543672 197.639452 584.046172 198.449452 
Q 583.551172 199.256952 583.278672 200.451952 
Q 583.623672 200.219452 583.848672 200.146952 
Q 584.356172 199.991952 584.873672 199.991952 
Q 586.061172 199.991952 586.853672 200.856952 
Q 587.646172 201.719452 587.646172 203.209452 
Q 587.646172 204.256952 587.216172 205.131952 
Q 586.786172 206.006952 585.996172 206.484452 
Q 585.208672 206.961952 584.311172 206.961952 
Q 583.333672 206.961952 582.503672 206.426952 
Q 581.676172 205.889452 581.211172 204.859452 
Q 580.748672 203.826952 580.748672 202.616952 
Q 580.748672 200.834452 581.603672 199.299452 
Q 582.458672 197.764452 584.031172 196.854452 
Q 585.606172 195.944452 587.668672 195.929452 
z
M 583.176172 201.084452 
Q 583.113672 202.164452 583.113672 202.664452 
Q 583.113672 203.741952 583.321172 204.749452 
Q 583.528672 205.756952 583.888672 206.164452 
Q 584.146172 206.451952 584.498672 206.451952 
Q 584.856172 206.451952 585.136172 206.034452 
Q 585.418672 205.616952 585.418672 204.334452 
Q 585.418672 202.179452 584.896172 201.359452 
Q 584.561172 200.826952 583.988672 200.826952 
Q 583.676172 200.826952 583.176172 201.084452 
z
M 590.153672 204.334452 
Q 590.701172 204.334452 591.078672 204.719452 
Q 591.458672 205.101952 591.458672 205.639452 
Q 591.458672 206.179452 591.076172 206.559452 
Q 590.693672 206.936952 590.153672 206.936952 
Q 589.613672 206.936952 589.233672 206.559452 
Q 588.856172 206.179452 588.856172 205.639452 
Q 588.856172 205.101952 589.233672 204.719452 
Q 589.613672 204.334452 590.153672 204.334452 
z
M 592.646172 206.961952 
L 592.646172 206.741952 
Q 593.943672 206.444452 594.846172 205.866952 
Q 595.748672 205.289452 596.273672 204.436952 
Q 596.801172 203.584452 597.013672 202.476952 
Q 596.528672 202.726952 596.188672 202.824452 
Q 595.848672 202.921952 595.473672 202.921952 
Q 594.271172 202.921952 593.468672 202.054452 
Q 592.668672 201.186952 592.668672 199.679452 
Q 592.668672 198.631952 593.101172 197.761952 
Q 593.536172 196.889452 594.341172 196.409452 
Q 595.146172 195.929452 596.013672 195.929452 
Q 596.943672 195.929452 597.771172 196.461952 
Q 598.598672 196.991952 599.091172 197.999452 
Q 599.583672 199.006952 599.583672 200.296952 
Q 599.583672 201.969452 598.781172 203.501952 
Q 597.981172 205.031952 596.396172 205.956952 
Q 594.811172 206.881952 592.646172 206.961952 
z
M 597.131172 201.819452 
Q 597.208672 200.944452 597.208672 200.281952 
Q 597.208672 198.859452 596.881172 197.631952 
Q 596.693672 196.951952 596.326172 196.631952 
Q 596.131172 196.459452 595.818672 196.459452 
Q 595.426172 196.459452 595.208672 196.796952 
Q 594.903672 197.256952 594.903672 198.554452 
Q 594.903672 200.719452 595.418672 201.539452 
Q 595.756172 202.069452 596.326172 202.069452 
Q 596.631172 202.069452 597.131172 201.819452 
z
"/>
   </g>
   <g id="text_29">
    <path d="M 571.086008 362.638026 
L 571.086008 370.761464 
Q 571.086008 371.675526 571.165696 371.928651 
Q 571.247727 372.181776 571.503196 372.343495 
Q 571.761008 372.50287 572.325852 372.50287 
L 572.550852 372.50287 
L 572.550852 372.774745 
L 567.321946 372.774745 
L 567.321946 372.50287 
L 567.58679 372.50287 
Q 568.22429 372.50287 568.493821 372.357557 
Q 568.765696 372.209901 568.859446 371.954432 
Q 568.95554 371.698964 568.95554 370.761464 
L 568.95554 365.612245 
Q 568.95554 364.923182 568.889915 364.752089 
Q 568.82429 364.578651 568.643821 364.45912 
Q 568.465696 364.337245 568.231321 364.337245 
Q 567.856321 364.337245 567.321946 364.57162 
L 567.190696 364.306776 
L 570.844602 362.638026 
L 571.086008 362.638026 
z
M 575.576633 370.517714 
Q 576.089915 370.517714 576.443821 370.878651 
Q 576.800071 371.237245 576.800071 371.741151 
Q 576.800071 372.247401 576.441477 372.603651 
Q 576.082883 372.957557 575.576633 372.957557 
Q 575.070383 372.957557 574.714133 372.603651 
Q 574.360227 372.247401 574.360227 371.741151 
Q 574.360227 371.237245 574.714133 370.878651 
Q 575.070383 370.517714 575.576633 370.517714 
z
M 577.913352 372.980995 
L 577.913352 372.774745 
Q 579.129758 372.495839 579.975852 371.954432 
Q 580.821946 371.413026 581.314133 370.613807 
Q 581.808665 369.814589 582.007883 368.776307 
Q 581.553196 369.010682 581.234446 369.102089 
Q 580.915696 369.193495 580.564133 369.193495 
Q 579.43679 369.193495 578.684446 368.380214 
Q 577.934446 367.566932 577.934446 366.153651 
Q 577.934446 365.17162 578.339915 364.355995 
Q 578.747727 363.538026 579.502415 363.088026 
Q 580.257102 362.638026 581.070383 362.638026 
Q 581.942258 362.638026 582.71804 363.137245 
Q 583.493821 363.63412 583.95554 364.578651 
Q 584.417258 365.523182 584.417258 366.732557 
Q 584.417258 368.300526 583.664915 369.737245 
Q 582.914915 371.17162 581.428977 372.038807 
Q 579.94304 372.905995 577.913352 372.980995 
z
M 582.11804 368.159901 
Q 582.190696 367.339589 582.190696 366.718495 
Q 582.190696 365.384901 581.883665 364.23412 
Q 581.707883 363.59662 581.363352 363.29662 
Q 581.18054 363.134901 580.887571 363.134901 
Q 580.519602 363.134901 580.315696 363.451307 
Q 580.029758 363.882557 580.029758 365.098964 
Q 580.029758 367.128651 580.512571 367.897401 
Q 580.828977 368.394276 581.363352 368.394276 
Q 581.64929 368.394276 582.11804 368.159901 
z
" style="fill: #404040; stroke: #ffffff; stroke-width: 3.8"/>
    <path d="M 571.086008 362.638026 
L 571.086008 370.761464 
Q 571.086008 371.675526 571.165696 371.928651 
Q 571.247727 372.181776 571.503196 372.343495 
Q 571.761008 372.50287 572.325852 372.50287 
L 572.550852 372.50287 
L 572.550852 372.774745 
L 567.321946 372.774745 
L 567.321946 372.50287 
L 567.58679 372.50287 
Q 568.22429 372.50287 568.493821 372.357557 
Q 568.765696 372.209901 568.859446 371.954432 
Q 568.95554 371.698964 568.95554 370.761464 
L 568.95554 365.612245 
Q 568.95554 364.923182 568.889915 364.752089 
Q 568.82429 364.578651 568.643821 364.45912 
Q 568.465696 364.337245 568.231321 364.337245 
Q 567.856321 364.337245 567.321946 364.57162 
L 567.190696 364.306776 
L 570.844602 362.638026 
L 571.086008 362.638026 
z
M 575.576633 370.517714 
Q 576.089915 370.517714 576.443821 370.878651 
Q 576.800071 371.237245 576.800071 371.741151 
Q 576.800071 372.247401 576.441477 372.603651 
Q 576.082883 372.957557 575.576633 372.957557 
Q 575.070383 372.957557 574.714133 372.603651 
Q 574.360227 372.247401 574.360227 371.741151 
Q 574.360227 371.237245 574.714133 370.878651 
Q 575.070383 370.517714 575.576633 370.517714 
z
M 577.913352 372.980995 
L 577.913352 372.774745 
Q 579.129758 372.495839 579.975852 371.954432 
Q 580.821946 371.413026 581.314133 370.613807 
Q 581.808665 369.814589 582.007883 368.776307 
Q 581.553196 369.010682 581.234446 369.102089 
Q 580.915696 369.193495 580.564133 369.193495 
Q 579.43679 369.193495 578.684446 368.380214 
Q 577.934446 367.566932 577.934446 366.153651 
Q 577.934446 365.17162 578.339915 364.355995 
Q 578.747727 363.538026 579.502415 363.088026 
Q 580.257102 362.638026 581.070383 362.638026 
Q 581.942258 362.638026 582.71804 363.137245 
Q 583.493821 363.63412 583.95554 364.578651 
Q 584.417258 365.523182 584.417258 366.732557 
Q 584.417258 368.300526 583.664915 369.737245 
Q 582.914915 371.17162 581.428977 372.038807 
Q 579.94304 372.905995 577.913352 372.980995 
z
M 582.11804 368.159901 
Q 582.190696 367.339589 582.190696 366.718495 
Q 582.190696 365.384901 581.883665 364.23412 
Q 581.707883 363.59662 581.363352 363.29662 
Q 581.18054 363.134901 580.887571 363.134901 
Q 580.519602 363.134901 580.315696 363.451307 
Q 580.029758 363.882557 580.029758 365.098964 
Q 580.029758 367.128651 580.512571 367.897401 
Q 580.828977 368.394276 581.363352 368.394276 
Q 581.64929 368.394276 582.11804 368.159901 
z
" style="fill: #404040"/>
   </g>
   <g id="text_30">
    <path d="M 568.961768 315.529021 
L 563.116455 315.529021 
L 563.116455 315.367302 
Q 565.804736 312.168084 566.378955 311.061834 
Q 566.955518 309.955584 566.955518 308.900896 
Q 566.955518 308.132146 566.479736 307.623552 
Q 566.003955 307.112615 565.314893 307.112615 
Q 564.187549 307.112615 563.564111 308.242302 
L 563.292236 308.146209 
Q 563.68833 306.739959 564.49458 306.067302 
Q 565.30083 305.392302 566.355518 305.392302 
Q 567.107861 305.392302 567.731299 305.743865 
Q 568.354736 306.095427 568.706299 306.707146 
Q 569.057861 307.318865 569.057861 307.85324 
Q 569.057861 308.82824 568.514111 309.831365 
Q 567.77583 311.186052 565.284424 313.60949 
L 567.431299 313.60949 
Q 568.221143 313.60949 568.460205 313.543865 
Q 568.699268 313.47824 568.851611 313.321209 
Q 569.006299 313.164177 569.254736 312.657927 
L 569.51958 312.657927 
L 568.961768 315.529021 
z
M 575.135205 305.392302 
L 575.135205 313.51574 
Q 575.135205 314.429802 575.214893 314.682927 
Q 575.296924 314.936052 575.552393 315.097771 
Q 575.810205 315.257146 576.375049 315.257146 
L 576.600049 315.257146 
L 576.600049 315.529021 
L 571.371143 315.529021 
L 571.371143 315.257146 
L 571.635986 315.257146 
Q 572.273486 315.257146 572.543018 315.111834 
Q 572.814893 314.964177 572.908643 314.708709 
Q 573.004736 314.45324 573.004736 313.51574 
L 573.004736 308.366521 
Q 573.004736 307.677459 572.939111 307.506365 
Q 572.873486 307.332927 572.693018 307.213396 
Q 572.514893 307.091521 572.280518 307.091521 
Q 571.905518 307.091521 571.371143 307.325896 
L 571.239893 307.061052 
L 574.893799 305.392302 
L 575.135205 305.392302 
z
M 579.62583 313.27199 
Q 580.139111 313.27199 580.493018 313.632927 
Q 580.849268 313.991521 580.849268 314.495427 
Q 580.849268 315.001677 580.490674 315.357927 
Q 580.13208 315.711834 579.62583 315.711834 
Q 579.11958 315.711834 578.76333 315.357927 
Q 578.409424 315.001677 578.409424 314.495427 
Q 578.409424 313.991521 578.76333 313.632927 
Q 579.11958 313.27199 579.62583 313.27199 
z
M 583.785986 305.596209 
L 588.435986 305.596209 
L 587.697705 307.487615 
L 583.785986 307.487615 
L 583.41333 308.476677 
Q 585.939893 308.570427 587.301611 309.735271 
Q 588.421924 310.693865 588.421924 312.123552 
Q 588.421924 313.037615 587.901611 313.914177 
Q 587.381299 314.788396 586.436768 315.261834 
Q 585.492236 315.735271 584.364893 315.735271 
Q 583.148486 315.735271 582.496924 315.280584 
Q 582.042236 314.957146 582.042236 314.54699 
Q 582.042236 314.232927 582.278955 313.991521 
Q 582.518018 313.750115 582.834424 313.750115 
Q 583.120361 313.750115 583.41333 313.867302 
Q 583.706299 313.98449 584.416455 314.481365 
Q 584.861768 314.788396 585.185205 314.905584 
Q 585.412549 314.994646 585.698486 314.994646 
Q 586.298486 314.994646 586.718018 314.556365 
Q 587.139893 314.11574 587.139893 313.499334 
Q 587.139893 312.210271 585.85083 311.406365 
Q 584.561768 310.600115 582.600049 310.600115 
Q 582.40083 310.600115 582.00708 310.607146 
L 583.785986 305.596209 
z
" style="fill: #404040; stroke: #ffffff; stroke-width: 3.8"/>
    <path d="M 568.961768 315.529021 
L 563.116455 315.529021 
L 563.116455 315.367302 
Q 565.804736 312.168084 566.378955 311.061834 
Q 566.955518 309.955584 566.955518 308.900896 
Q 566.955518 308.132146 566.479736 307.623552 
Q 566.003955 307.112615 565.314893 307.112615 
Q 564.187549 307.112615 563.564111 308.242302 
L 563.292236 308.146209 
Q 563.68833 306.739959 564.49458 306.067302 
Q 565.30083 305.392302 566.355518 305.392302 
Q 567.107861 305.392302 567.731299 305.743865 
Q 568.354736 306.095427 568.706299 306.707146 
Q 569.057861 307.318865 569.057861 307.85324 
Q 569.057861 308.82824 568.514111 309.831365 
Q 567.77583 311.186052 565.284424 313.60949 
L 567.431299 313.60949 
Q 568.221143 313.60949 568.460205 313.543865 
Q 568.699268 313.47824 568.851611 313.321209 
Q 569.006299 313.164177 569.254736 312.657927 
L 569.51958 312.657927 
L 568.961768 315.529021 
z
M 575.135205 305.392302 
L 575.135205 313.51574 
Q 575.135205 314.429802 575.214893 314.682927 
Q 575.296924 314.936052 575.552393 315.097771 
Q 575.810205 315.257146 576.375049 315.257146 
L 576.600049 315.257146 
L 576.600049 315.529021 
L 571.371143 315.529021 
L 571.371143 315.257146 
L 571.635986 315.257146 
Q 572.273486 315.257146 572.543018 315.111834 
Q 572.814893 314.964177 572.908643 314.708709 
Q 573.004736 314.45324 573.004736 313.51574 
L 573.004736 308.366521 
Q 573.004736 307.677459 572.939111 307.506365 
Q 572.873486 307.332927 572.693018 307.213396 
Q 572.514893 307.091521 572.280518 307.091521 
Q 571.905518 307.091521 571.371143 307.325896 
L 571.239893 307.061052 
L 574.893799 305.392302 
L 575.135205 305.392302 
z
M 579.62583 313.27199 
Q 580.139111 313.27199 580.493018 313.632927 
Q 580.849268 313.991521 580.849268 314.495427 
Q 580.849268 315.001677 580.490674 315.357927 
Q 580.13208 315.711834 579.62583 315.711834 
Q 579.11958 315.711834 578.76333 315.357927 
Q 578.409424 315.001677 578.409424 314.495427 
Q 578.409424 313.991521 578.76333 313.632927 
Q 579.11958 313.27199 579.62583 313.27199 
z
M 583.785986 305.596209 
L 588.435986 305.596209 
L 587.697705 307.487615 
L 583.785986 307.487615 
L 583.41333 308.476677 
Q 585.939893 308.570427 587.301611 309.735271 
Q 588.421924 310.693865 588.421924 312.123552 
Q 588.421924 313.037615 587.901611 313.914177 
Q 587.381299 314.788396 586.436768 315.261834 
Q 585.492236 315.735271 584.364893 315.735271 
Q 583.148486 315.735271 582.496924 315.280584 
Q 582.042236 314.957146 582.042236 314.54699 
Q 582.042236 314.232927 582.278955 313.991521 
Q 582.518018 313.750115 582.834424 313.750115 
Q 583.120361 313.750115 583.41333 313.867302 
Q 583.706299 313.98449 584.416455 314.481365 
Q 584.861768 314.788396 585.185205 314.905584 
Q 585.412549 314.994646 585.698486 314.994646 
Q 586.298486 314.994646 586.718018 314.556365 
Q 587.139893 314.11574 587.139893 313.499334 
Q 587.139893 312.210271 585.85083 311.406365 
Q 584.561768 310.600115 582.600049 310.600115 
Q 582.40083 310.600115 582.00708 310.607146 
L 583.785986 305.596209 
z
" style="fill: #404040"/>
   </g>
   <g id="text_31">
    <path d="M 530.476725 270.513695 
L 535.194693 264.119945 
L 536.087662 264.119945 
L 536.087662 270.513695 
L 536.997037 270.513695 
L 536.997037 272.030101 
L 536.087662 272.030101 
L 536.087662 274.256663 
L 534.074381 274.256663 
L 534.074381 272.030101 
L 530.476725 272.030101 
L 530.476725 270.513695 
z
M 531.189225 270.513695 
L 534.074381 270.513695 
L 534.074381 266.594945 
L 531.189225 270.513695 
z
M 539.479068 271.999632 
Q 539.99235 271.999632 540.346256 272.36057 
Q 540.702506 272.719163 540.702506 273.22307 
Q 540.702506 273.72932 540.343912 274.08557 
Q 539.985318 274.439476 539.479068 274.439476 
Q 538.972818 274.439476 538.616568 274.08557 
Q 538.262662 273.72932 538.262662 273.22307 
Q 538.262662 272.719163 538.616568 272.36057 
Q 538.972818 271.999632 539.479068 271.999632 
z
M 547.565006 274.256663 
L 541.719693 274.256663 
L 541.719693 274.094945 
Q 544.407975 270.895726 544.982193 269.789476 
Q 545.558756 268.683226 545.558756 267.628538 
Q 545.558756 266.859788 545.082975 266.351195 
Q 544.607193 265.840257 543.918131 265.840257 
Q 542.790787 265.840257 542.16735 266.969945 
L 541.895475 266.873851 
Q 542.291568 265.467601 543.097818 264.794945 
Q 543.904068 264.119945 544.958756 264.119945 
Q 545.7111 264.119945 546.334537 264.471507 
Q 546.957975 264.82307 547.309537 265.434788 
Q 547.6611 266.046507 547.6611 266.580882 
Q 547.6611 267.555882 547.11735 268.559007 
Q 546.379068 269.913695 543.887662 272.337132 
L 546.034537 272.337132 
Q 546.824381 272.337132 547.063443 272.271507 
Q 547.302506 272.205882 547.45485 272.048851 
Q 547.609537 271.89182 547.857975 271.38557 
L 548.122818 271.38557 
L 547.565006 274.256663 
z
" style="fill: #404040; stroke: #ffffff; stroke-width: 3.8"/>
    <path d="M 530.476725 270.513695 
L 535.194693 264.119945 
L 536.087662 264.119945 
L 536.087662 270.513695 
L 536.997037 270.513695 
L 536.997037 272.030101 
L 536.087662 272.030101 
L 536.087662 274.256663 
L 534.074381 274.256663 
L 534.074381 272.030101 
L 530.476725 272.030101 
L 530.476725 270.513695 
z
M 531.189225 270.513695 
L 534.074381 270.513695 
L 534.074381 266.594945 
L 531.189225 270.513695 
z
M 539.479068 271.999632 
Q 539.99235 271.999632 540.346256 272.36057 
Q 540.702506 272.719163 540.702506 273.22307 
Q 540.702506 273.72932 540.343912 274.08557 
Q 539.985318 274.439476 539.479068 274.439476 
Q 538.972818 274.439476 538.616568 274.08557 
Q 538.262662 273.72932 538.262662 273.22307 
Q 538.262662 272.719163 538.616568 272.36057 
Q 538.972818 271.999632 539.479068 271.999632 
z
M 547.565006 274.256663 
L 541.719693 274.256663 
L 541.719693 274.094945 
Q 544.407975 270.895726 544.982193 269.789476 
Q 545.558756 268.683226 545.558756 267.628538 
Q 545.558756 266.859788 545.082975 266.351195 
Q 544.607193 265.840257 543.918131 265.840257 
Q 542.790787 265.840257 542.16735 266.969945 
L 541.895475 266.873851 
Q 542.291568 265.467601 543.097818 264.794945 
Q 543.904068 264.119945 544.958756 264.119945 
Q 545.7111 264.119945 546.334537 264.471507 
Q 546.957975 264.82307 547.309537 265.434788 
Q 547.6611 266.046507 547.6611 266.580882 
Q 547.6611 267.555882 547.11735 268.559007 
Q 546.379068 269.913695 543.887662 272.337132 
L 546.034537 272.337132 
Q 546.824381 272.337132 547.063443 272.271507 
Q 547.302506 272.205882 547.45485 272.048851 
Q 547.609537 271.89182 547.857975 271.38557 
L 548.122818 271.38557 
L 547.565006 274.256663 
z
" style="fill: #404040"/>
   </g>
   <g id="text_32">
    <path d="M 325.782367 336.131081 
L 319.937054 336.131081 
L 319.937054 335.969362 
Q 322.625336 332.770143 323.199554 331.663893 
Q 323.776117 330.557643 323.776117 329.502956 
Q 323.776117 328.734206 323.300336 328.225612 
Q 322.824554 327.714675 322.135492 327.714675 
Q 321.008148 327.714675 320.384711 328.844362 
L 320.112836 328.748268 
Q 320.508929 327.342018 321.315179 326.669362 
Q 322.121429 325.994362 323.176117 325.994362 
Q 323.928461 325.994362 324.551898 326.345925 
Q 325.175336 326.697487 325.526898 327.309206 
Q 325.878461 327.920925 325.878461 328.4553 
Q 325.878461 329.4303 325.334711 330.433425 
Q 324.596429 331.788112 322.105023 334.21155 
L 324.251898 334.21155 
Q 325.041742 334.21155 325.280804 334.145925 
Q 325.519867 334.0803 325.672211 333.923268 
Q 325.826898 333.766237 326.075336 333.259987 
L 326.340179 333.259987 
L 325.782367 336.131081 
z
M 334.022992 331.164675 
Q 334.022992 332.652956 333.605804 333.942018 
Q 333.355023 334.731862 332.933148 335.238112 
Q 332.513617 335.742018 331.979242 336.039675 
Q 331.444867 336.337331 330.814398 336.337331 
Q 330.097211 336.337331 329.518304 335.971706 
Q 328.939398 335.603737 328.491742 334.921706 
Q 328.170648 334.424831 327.929242 333.597487 
Q 327.612836 332.477175 327.612836 331.281862 
Q 327.612836 329.664675 328.067523 328.307643 
Q 328.440179 327.187331 329.201898 326.592018 
Q 329.963617 325.994362 330.814398 325.994362 
Q 331.679242 325.994362 332.429242 326.584987 
Q 333.179242 327.173268 333.530804 328.169362 
Q 334.022992 329.538112 334.022992 331.164675 
z
M 331.765961 331.150612 
Q 331.765961 328.542018 331.737836 328.110768 
Q 331.662836 327.093581 331.386273 326.734987 
Q 331.203461 326.500612 330.793304 326.500612 
Q 330.476898 326.500612 330.294086 326.676393 
Q 330.022211 326.931862 329.926117 327.581081 
Q 329.832367 328.227956 329.832367 332.102175 
Q 329.832367 334.21155 329.980023 334.928737 
Q 330.090179 335.44905 330.294086 335.624831 
Q 330.500336 335.800612 330.835492 335.800612 
Q 331.203461 335.800612 331.386273 335.566237 
Q 331.693304 335.156081 331.737836 334.300612 
L 331.765961 331.150612 
z
M 336.446429 333.87405 
Q 336.959711 333.87405 337.313617 334.234987 
Q 337.669867 334.593581 337.669867 335.097487 
Q 337.669867 335.603737 337.311273 335.959987 
Q 336.952679 336.313893 336.446429 336.313893 
Q 335.940179 336.313893 335.583929 335.959987 
Q 335.230023 335.603737 335.230023 335.097487 
Q 335.230023 334.593581 335.583929 334.234987 
Q 335.940179 333.87405 336.446429 333.87405 
z
M 343.205804 325.994362 
L 343.205804 334.1178 
Q 343.205804 335.031862 343.285492 335.284987 
Q 343.367523 335.538112 343.622992 335.699831 
Q 343.880804 335.859206 344.445648 335.859206 
L 344.670648 335.859206 
L 344.670648 336.131081 
L 339.441742 336.131081 
L 339.441742 335.859206 
L 339.706586 335.859206 
Q 340.344086 335.859206 340.613617 335.713893 
Q 340.885492 335.566237 340.979242 335.310768 
Q 341.075336 335.0553 341.075336 334.1178 
L 341.075336 328.968581 
Q 341.075336 328.279518 341.009711 328.108425 
Q 340.944086 327.934987 340.763617 327.815456 
Q 340.585492 327.693581 340.351117 327.693581 
Q 339.976117 327.693581 339.441742 327.927956 
L 339.310492 327.663112 
L 342.964398 325.994362 
L 343.205804 325.994362 
z
" style="fill: #404040; stroke: #ffffff; stroke-width: 3.8"/>
    <path d="M 325.782367 336.131081 
L 319.937054 336.131081 
L 319.937054 335.969362 
Q 322.625336 332.770143 323.199554 331.663893 
Q 323.776117 330.557643 323.776117 329.502956 
Q 323.776117 328.734206 323.300336 328.225612 
Q 322.824554 327.714675 322.135492 327.714675 
Q 321.008148 327.714675 320.384711 328.844362 
L 320.112836 328.748268 
Q 320.508929 327.342018 321.315179 326.669362 
Q 322.121429 325.994362 323.176117 325.994362 
Q 323.928461 325.994362 324.551898 326.345925 
Q 325.175336 326.697487 325.526898 327.309206 
Q 325.878461 327.920925 325.878461 328.4553 
Q 325.878461 329.4303 325.334711 330.433425 
Q 324.596429 331.788112 322.105023 334.21155 
L 324.251898 334.21155 
Q 325.041742 334.21155 325.280804 334.145925 
Q 325.519867 334.0803 325.672211 333.923268 
Q 325.826898 333.766237 326.075336 333.259987 
L 326.340179 333.259987 
L 325.782367 336.131081 
z
M 334.022992 331.164675 
Q 334.022992 332.652956 333.605804 333.942018 
Q 333.355023 334.731862 332.933148 335.238112 
Q 332.513617 335.742018 331.979242 336.039675 
Q 331.444867 336.337331 330.814398 336.337331 
Q 330.097211 336.337331 329.518304 335.971706 
Q 328.939398 335.603737 328.491742 334.921706 
Q 328.170648 334.424831 327.929242 333.597487 
Q 327.612836 332.477175 327.612836 331.281862 
Q 327.612836 329.664675 328.067523 328.307643 
Q 328.440179 327.187331 329.201898 326.592018 
Q 329.963617 325.994362 330.814398 325.994362 
Q 331.679242 325.994362 332.429242 326.584987 
Q 333.179242 327.173268 333.530804 328.169362 
Q 334.022992 329.538112 334.022992 331.164675 
z
M 331.765961 331.150612 
Q 331.765961 328.542018 331.737836 328.110768 
Q 331.662836 327.093581 331.386273 326.734987 
Q 331.203461 326.500612 330.793304 326.500612 
Q 330.476898 326.500612 330.294086 326.676393 
Q 330.022211 326.931862 329.926117 327.581081 
Q 329.832367 328.227956 329.832367 332.102175 
Q 329.832367 334.21155 329.980023 334.928737 
Q 330.090179 335.44905 330.294086 335.624831 
Q 330.500336 335.800612 330.835492 335.800612 
Q 331.203461 335.800612 331.386273 335.566237 
Q 331.693304 335.156081 331.737836 334.300612 
L 331.765961 331.150612 
z
M 336.446429 333.87405 
Q 336.959711 333.87405 337.313617 334.234987 
Q 337.669867 334.593581 337.669867 335.097487 
Q 337.669867 335.603737 337.311273 335.959987 
Q 336.952679 336.313893 336.446429 336.313893 
Q 335.940179 336.313893 335.583929 335.959987 
Q 335.230023 335.603737 335.230023 335.097487 
Q 335.230023 334.593581 335.583929 334.234987 
Q 335.940179 333.87405 336.446429 333.87405 
z
M 343.205804 325.994362 
L 343.205804 334.1178 
Q 343.205804 335.031862 343.285492 335.284987 
Q 343.367523 335.538112 343.622992 335.699831 
Q 343.880804 335.859206 344.445648 335.859206 
L 344.670648 335.859206 
L 344.670648 336.131081 
L 339.441742 336.131081 
L 339.441742 335.859206 
L 339.706586 335.859206 
Q 340.344086 335.859206 340.613617 335.713893 
Q 340.885492 335.566237 340.979242 335.310768 
Q 341.075336 335.0553 341.075336 334.1178 
L 341.075336 328.968581 
Q 341.075336 328.279518 341.009711 328.108425 
Q 340.944086 327.934987 340.763617 327.815456 
Q 340.585492 327.693581 340.351117 327.693581 
Q 339.976117 327.693581 339.441742 327.927956 
L 339.310492 327.663112 
L 342.964398 325.994362 
L 343.205804 325.994362 
z
" style="fill: #404040"/>
   </g>
  </g>
 </g>
 <defs>
  <clipPath id="p88358e0819">
   <rect x="7.2" y="51.034687" width="730.764" height="431.640752"/>
  </clipPath>
 </defs>
</svg>
