<?xml version="1.0" encoding="utf-8" standalone="no"?>
<!DOCTYPE svg PUBLIC "-//W3C//DTD SVG 1.1//EN"
  "http://www.w3.org/Graphics/SVG/1.1/DTD/svg11.dtd">
<svg xmlns:xlink="http://www.w3.org/1999/xlink" width="745.164pt" height="495.887081pt" viewBox="0 0 745.164 495.887081" xmlns="http://www.w3.org/2000/svg" version="1.1">
 <metadata>
  <rdf:RDF xmlns:dc="http://purl.org/dc/elements/1.1/" xmlns:cc="http://creativecommons.org/ns#" xmlns:rdf="http://www.w3.org/1999/02/22-rdf-syntax-ns#">
   <cc:Work>
    <dc:type rdf:resource="http://purl.org/dc/dcmitype/StillImage"/>
    <dc:date>2026-07-13T16:58:40.349476</dc:date>
    <dc:format>image/svg+xml</dc:format>
    <dc:creator>
     <cc:Agent>
      <dc:title>Matplotlib v3.10.8, https://matplotlib.org/</dc:title>
     </cc:Agent>
    </dc:creator>
   </cc:Work>
  </rdf:RDF>
 </metadata>
 <defs>
  <style type="text/css">*{stroke-linejoin: round; stroke-linecap: butt}</style>
 </defs>
 <g id="figure_1">
  <g id="patch_1">
   <path d="M 0 495.887081 
L 745.164 495.887081 
L 745.164 0 
L 0 0 
L 0 495.887081 
z
" style="fill: none"/>
  </g>
  <g id="axes_1">
   <g id="patch_2">
    <path d="M 120.350555 457.337846 
Q 120.350555 467.974925 120.350555 475.38081 
" clip-path="url(#pc4f81da956)" style="fill: none; stroke: #111111; stroke-width: 2.890067; stroke-linejoin: miter; stroke-linecap: round"/>
    <path d="M 124.219376 467.643167 
L 120.350555 475.38081 
L 116.481733 467.643167 
z
" clip-path="url(#pc4f81da956)" style="fill: #111111; stroke: #111111; stroke-width: 2.890067; stroke-linejoin: miter; stroke-linecap: round"/>
   </g>
   <g id="patch_3">
    <path d="M 120.350555 397.876094 
Q 120.350555 412.599101 120.350555 422.338119 
" clip-path="url(#pc4f81da956)" style="fill: none; stroke: #111111; stroke-width: 4.457816; stroke-linejoin: miter; stroke-linecap: round"/>
    <path d="M 124.721056 413.597117 
L 120.350555 422.338119 
L 115.980054 413.597117 
z
" clip-path="url(#pc4f81da956)" style="fill: #111111; stroke: #111111; stroke-width: 4.457816; stroke-linejoin: miter; stroke-linecap: round"/>
   </g>
   <g id="patch_4">
    <path d="M 120.350555 323.725066 
Q 120.350555 341.706782 120.350555 353.203902 
" clip-path="url(#pc4f81da956)" style="fill: none; stroke: #111111; stroke-width: 5.8; stroke-linejoin: miter; stroke-linecap: round"/>
    <path d="M 125.150555 343.603902 
L 120.350555 353.203902 
L 115.550555 343.603902 
z
" clip-path="url(#pc4f81da956)" style="fill: #111111; stroke: #111111; stroke-width: 5.8; stroke-linejoin: miter; stroke-linecap: round"/>
   </g>
   <g id="patch_5">
    <path d="M 370.224697 297.228432 
Q 370.224697 310.485633 370.224697 319.678176 
" clip-path="url(#pc4f81da956)" style="fill: none; stroke: #111111; stroke-width: 3.635541; stroke-linejoin: miter; stroke-linecap: round"/>
    <path d="M 374.33207 311.46343 
L 370.224697 319.678176 
L 366.117324 311.46343 
z
" clip-path="url(#pc4f81da956)" style="fill: #111111; stroke: #111111; stroke-width: 3.635541; stroke-linejoin: miter; stroke-linecap: round"/>
   </g>
   <g id="patch_6">
    <path d="M 370.224697 231.713136 
Q 370.224697 246.842793 370.224697 256.648592 
" clip-path="url(#pc4f81da956)" style="fill: none; stroke: #111111; stroke-width: 4.761803; stroke-linejoin: miter; stroke-linecap: round"/>
    <path d="M 374.692474 247.713037 
L 370.224697 256.648592 
L 365.75692 247.713037 
z
" clip-path="url(#pc4f81da956)" style="fill: #111111; stroke: #111111; stroke-width: 4.761803; stroke-linejoin: miter; stroke-linecap: round"/>
   </g>
   <g id="patch_7">
    <path d="M 370.224697 154.695819 
Q 370.224697 173.70403 370.224697 186.587705 
" clip-path="url(#pc4f81da956)" style="fill: none; stroke: #111111; stroke-width: 5.477952; stroke-linejoin: miter; stroke-linecap: round"/>
    <path d="M 374.921641 177.193816 
L 370.224697 186.587705 
L 365.527752 177.193816 
z
" clip-path="url(#pc4f81da956)" style="fill: #111111; stroke: #111111; stroke-width: 5.477952; stroke-linejoin: miter; stroke-linecap: round"/>
   </g>
   <g id="patch_8">
    <path d="M 586.153672 322.360477 
Q 586.153672 339.361165 586.153672 351.876221 
" clip-path="url(#pc4f81da956)" style="fill: none; stroke: #111111; stroke-width: 4.012071; stroke-linejoin: miter; stroke-linecap: round"/>
    <path d="M 590.381535 343.420495 
L 586.153672 351.876221 
L 581.92581 343.420495 
z
" clip-path="url(#pc4f81da956)" style="fill: #111111; stroke: #111111; stroke-width: 4.012071; stroke-linejoin: miter; stroke-linecap: round"/>
   </g>
   <g id="line2d_1">
    <path d="M 165.610777 478.612003 
L 550.322663 478.612003 
" clip-path="url(#pc4f81da956)" style="fill: none; stroke-dasharray: 5.6,4.2; stroke-dashoffset: 0; stroke: #404040; stroke-width: 1.4"/>
   </g>
   <g id="line2d_2">
    <path d="M 165.610777 427.322109 
L 550.322663 427.322109 
" clip-path="url(#pc4f81da956)" style="fill: none; stroke-dasharray: 5.6,4.2; stroke-dashoffset: 0; stroke: #404040; stroke-width: 1.4"/>
   </g>
   <g id="line2d_3">
    <path d="M 574.838617 356.361852 
L 503.176599 356.361852 
" clip-path="url(#pc4f81da956)" style="fill: none; stroke-dasharray: 5.6,4.2; stroke-dashoffset: 0; stroke: #404040; stroke-width: 1.4"/>
   </g>
   <g id="patch_9">
    <path d="M 665.359061 356.361852 
Q 591.511937 415.609413 518.362461 474.297252 
" clip-path="url(#pc4f81da956)" style="fill: none; stroke: #404040; stroke-width: 0.800001; stroke-linejoin: miter; stroke-linecap: round"/>
    <path d="M 524.48263 472.976817 
L 518.362461 474.297252 
L 520.978214 468.608856 
z
" clip-path="url(#pc4f81da956)" style="fill: #404040; stroke: #404040; stroke-width: 0.800001; stroke-linejoin: miter; stroke-linecap: round"/>
   </g>
   <g id="patch_10">
    <path d="M 620.098839 356.361852 
Q 578.214651 389.965544 538.839944 421.555879 
" clip-path="url(#pc4f81da956)" style="fill: none; stroke: #404040; stroke-width: 2.877652; stroke-linejoin: miter; stroke-linecap: round"/>
    <path d="M 546.473871 419.908848 
L 538.839944 421.555879 
L 542.102676 414.460519 
z
" clip-path="url(#pc4f81da956)" style="fill: #404040; stroke: #404040; stroke-width: 2.877652; stroke-linejoin: miter; stroke-linecap: round"/>
   </g>
   <g id="patch_11">
    <path d="M 415.484919 323.742834 
Q 477.203624 339.318196 535.937919 354.140411 
" clip-path="url(#pc4f81da956)" style="fill: none; stroke: #404040; stroke-width: 2.753025; stroke-linejoin: miter; stroke-linecap: round"/>
    <path d="M 530.090137 349.10546 
L 535.937919 354.140411 
L 528.401289 355.797666 
z
" clip-path="url(#pc4f81da956)" style="fill: #404040; stroke: #404040; stroke-width: 2.753025; stroke-linejoin: miter; stroke-linecap: round"/>
   </g>
   <g id="patch_12">
    <path d="M 370.224697 323.742834 
Q 334.456712 373.103252 300.549193 419.896196 
" clip-path="url(#pc4f81da956)" style="fill: none; stroke: #404040; stroke-width: 2.835947; stroke-linejoin: miter; stroke-linecap: round"/>
    <path d="M 307.448378 416.30367 
L 300.549193 419.896196 
L 301.814683 412.221333 
z
" clip-path="url(#pc4f81da956)" style="fill: #404040; stroke: #404040; stroke-width: 2.835947; stroke-linejoin: miter; stroke-linecap: round"/>
   </g>
   <g id="line2d_4">
    <path d="M 120.350555 427.322109 
L 120.350555 448.596265 
" clip-path="url(#pc4f81da956)" style="fill: none; stroke: #111111; stroke-width: 2.890067"/>
   </g>
   <g id="line2d_5">
    <path d="M 120.350555 359.688499 
L 120.350555 389.134513 
" clip-path="url(#pc4f81da956)" style="fill: none; stroke: #111111; stroke-width: 4.457816"/>
   </g>
   <g id="line2d_6">
    <path d="M 120.350555 279.020052 
L 120.350555 314.983485 
" clip-path="url(#pc4f81da956)" style="fill: none; stroke: #111111; stroke-width: 5.8"/>
   </g>
   <g id="line2d_7">
    <path d="M 370.224697 261.97245 
L 370.224697 288.486852 
" clip-path="url(#pc4f81da956)" style="fill: none; stroke: #111111; stroke-width: 3.635541"/>
   </g>
   <g id="line2d_8">
    <path d="M 370.224697 192.712241 
L 370.224697 222.971555 
" clip-path="url(#pc4f81da956)" style="fill: none; stroke: #111111; stroke-width: 4.761803"/>
   </g>
   <g id="line2d_9">
    <path d="M 370.224697 107.937817 
L 370.224697 145.954239 
" clip-path="url(#pc4f81da956)" style="fill: none; stroke: #111111; stroke-width: 5.477952"/>
   </g>
   <g id="line2d_10">
    <path d="M 586.153672 279.61752 
L 586.153672 313.618896 
" clip-path="url(#pc4f81da956)" style="fill: none; stroke: #111111; stroke-width: 4.012071"/>
   </g>
   <g id="line2d_11">
    <path d="M 75.090333 478.612003 
L 165.610777 478.612003 
" clip-path="url(#pc4f81da956)" style="fill: none; stroke: #111111; stroke-width: 3.6; stroke-linecap: round"/>
   </g>
   <g id="line2d_12">
    <path d="M 75.090333 427.322109 
L 165.610777 427.322109 
" clip-path="url(#pc4f81da956)" style="fill: none; stroke: #111111; stroke-width: 3.6; stroke-linecap: round"/>
   </g>
   <g id="line2d_13">
    <path d="M 75.090333 359.688499 
L 165.610777 359.688499 
" clip-path="url(#pc4f81da956)" style="fill: none; stroke: #111111; stroke-width: 3.6; stroke-linecap: round"/>
   </g>
   <g id="line2d_14">
    <path d="M 75.090333 279.020052 
L 165.610777 279.020052 
" clip-path="url(#pc4f81da956)" style="fill: none; stroke: #111111; stroke-width: 3.6; stroke-linecap: round"/>
   </g>
   <g id="line2d_15">
    <path d="M 324.964475 323.742834 
L 415.484919 323.742834 
" clip-path="url(#pc4f81da956)" style="fill: none; stroke: #111111; stroke-width: 3.6; stroke-linecap: round"/>
   </g>
   <g id="line2d_16">
    <path d="M 324.964475 261.97245 
L 415.484919 261.97245 
" clip-path="url(#pc4f81da956)" style="fill: none; stroke: #111111; stroke-width: 3.6; stroke-linecap: round"/>
   </g>
   <g id="line2d_17">
    <path d="M 324.964475 192.712241 
L 415.484919 192.712241 
" clip-path="url(#pc4f81da956)" style="fill: none; stroke: #111111; stroke-width: 3.6; stroke-linecap: round"/>
   </g>
   <g id="line2d_18">
    <path d="M 324.964475 107.937817 
L 415.484919 107.937817 
" clip-path="url(#pc4f81da956)" style="fill: none; stroke: #111111; stroke-width: 3.6; stroke-linecap: round"/>
   </g>
   <g id="line2d_19">
    <path d="M 574.838617 356.361852 
L 665.359061 356.361852 
" clip-path="url(#pc4f81da956)" style="fill: none; stroke: #111111; stroke-width: 3.6; stroke-linecap: round"/>
   </g>
   <g id="line2d_20">
    <path d="M 574.838617 279.61752 
L 665.359061 279.61752 
" clip-path="url(#pc4f81da956)" style="fill: none; stroke: #111111; stroke-width: 3.6; stroke-linecap: round"/>
   </g>
   <g id="text_1">
    <!-- $^{196}\mathrm{Nd}$ -->
    <g transform="translate(325.662 33.034687) scale(0.34 -0.34)">
     <defs>
      <path id="DejaVuSans-31" d="M 794 531 
L 1825 531 
L 1825 4091 
L 703 3866 
L 703 4441 
L 1819 4666 
L 2450 4666 
L 2450 531 
L 3481 531 
L 3481 0 
L 794 0 
L 794 531 
z
" transform="scale(0.015625)"/>
      <path id="DejaVuSans-39" d="M 703 97 
L 703 672 
Q 941 559 1184 500 
Q 1428 441 1663 441 
Q 2288 441 2617 861 
Q 2947 1281 2994 2138 
Q 2813 1869 2534 1725 
Q 2256 1581 1919 1581 
Q 1219 1581 811 2004 
Q 403 2428 403 3163 
Q 403 3881 828 4315 
Q 1253 4750 1959 4750 
Q 2769 4750 3195 4129 
Q 3622 3509 3622 2328 
Q 3622 1225 3098 567 
Q 2575 -91 1691 -91 
Q 1453 -91 1209 -44 
Q 966 3 703 97 
z
M 1959 2075 
Q 2384 2075 2632 2365 
Q 2881 2656 2881 3163 
Q 2881 3666 2632 3958 
Q 2384 4250 1959 4250 
Q 1534 4250 1286 3958 
Q 1038 3666 1038 3163 
Q 1038 2656 1286 2365 
Q 1534 2075 1959 2075 
z
" transform="scale(0.015625)"/>
      <path id="DejaVuSans-36" d="M 2113 2584 
Q 1688 2584 1439 2293 
Q 1191 2003 1191 1497 
Q 1191 994 1439 701 
Q 1688 409 2113 409 
Q 2538 409 2786 701 
Q 3034 994 3034 1497 
Q 3034 2003 2786 2293 
Q 2538 2584 2113 2584 
z
M 3366 4563 
L 3366 3988 
Q 3128 4100 2886 4159 
Q 2644 4219 2406 4219 
Q 1781 4219 1451 3797 
Q 1122 3375 1075 2522 
Q 1259 2794 1537 2939 
Q 1816 3084 2150 3084 
Q 2853 3084 3261 2657 
Q 3669 2231 3669 1497 
Q 3669 778 3244 343 
Q 2819 -91 2113 -91 
Q 1303 -91 875 529 
Q 447 1150 447 2328 
Q 447 3434 972 4092 
Q 1497 4750 2381 4750 
Q 2619 4750 2861 4703 
Q 3103 4656 3366 4563 
z
" transform="scale(0.015625)"/>
      <path id="DejaVuSans-4e" d="M 628 4666 
L 1478 4666 
L 3547 763 
L 3547 4666 
L 4159 4666 
L 4159 0 
L 3309 0 
L 1241 3903 
L 1241 0 
L 628 0 
L 628 4666 
z
" transform="scale(0.015625)"/>
      <path id="DejaVuSans-64" d="M 2906 2969 
L 2906 4863 
L 3481 4863 
L 3481 0 
L 2906 0 
L 2906 525 
Q 2725 213 2448 61 
Q 2172 -91 1784 -91 
Q 1150 -91 751 415 
Q 353 922 353 1747 
Q 353 2572 751 3078 
Q 1150 3584 1784 3584 
Q 2172 3584 2448 3432 
Q 2725 3281 2906 2969 
z
M 947 1747 
Q 947 1113 1208 752 
Q 1469 391 1925 391 
Q 2381 391 2643 752 
Q 2906 1113 2906 1747 
Q 2906 2381 2643 2742 
Q 2381 3103 1925 3103 
Q 1469 3103 1208 2742 
Q 947 2381 947 1747 
z
" transform="scale(0.015625)"/>
     </defs>
     <use xlink:href="#DejaVuSans-31" transform="translate(0.957031 39.046875) scale(0.7)"/>
     <use xlink:href="#DejaVuSans-39" transform="translate(45.493164 39.046875) scale(0.7)"/>
     <use xlink:href="#DejaVuSans-36" transform="translate(90.029297 39.046875) scale(0.7)"/>
     <use xlink:href="#DejaVuSans-4e" transform="translate(137.299805 0.765625)"/>
     <use xlink:href="#DejaVuSans-64" transform="translate(212.104492 0.765625)"/>
    </g>
   </g>
   <g id="text_2">
    <!-- 0 -->
    <g transform="translate(46.98525 483.027003) scale(0.16 -0.16)">
     <defs>
      <path id="DejaVuSans-BoldOblique-30" d="M 1913 728 
Q 2153 728 2339 872 
Q 2525 1016 2650 1294 
Q 2738 1491 2809 1742 
Q 2881 1994 2944 2338 
Q 2997 2616 3025 2850 
Q 3053 3084 3053 3250 
Q 3053 3600 2928 3764 
Q 2803 3928 2541 3928 
Q 2297 3928 2112 3789 
Q 1928 3650 1806 3366 
Q 1713 3163 1636 2903 
Q 1559 2644 1503 2338 
Q 1450 2056 1422 1815 
Q 1394 1575 1394 1409 
Q 1394 1063 1522 895 
Q 1650 728 1913 728 
z
M 4225 3072 
Q 4225 2450 4053 1862 
Q 3881 1275 3572 831 
Q 3256 375 2809 142 
Q 2363 -91 1813 -91 
Q 1047 -91 639 343 
Q 231 778 231 1594 
Q 231 2206 401 2795 
Q 572 3384 878 3822 
Q 1200 4281 1644 4515 
Q 2088 4750 2644 4750 
Q 3403 4750 3814 4314 
Q 4225 3878 4225 3072 
z
" transform="scale(0.015625)"/>
     </defs>
     <use xlink:href="#DejaVuSans-BoldOblique-30"/>
    </g>
   </g>
   <g id="text_3">
    <!-- 0⁺ -->
    <g transform="translate(182.58336 483.767237) scale(0.23 -0.23)">
     <defs>
      <path id="TimesNewRomanPS-BoldMT-30" d="M 2966 2119 
Q 2966 1484 2788 934 
Q 2681 597 2501 381 
Q 2322 166 2094 39 
Q 1866 -88 1597 -88 
Q 1291 -88 1044 68 
Q 797 225 606 516 
Q 469 728 366 1081 
Q 231 1559 231 2069 
Q 231 2759 425 3338 
Q 584 3816 909 4070 
Q 1234 4325 1597 4325 
Q 1966 4325 2286 4073 
Q 2606 3822 2756 3397 
Q 2966 2813 2966 2119 
z
M 2003 2125 
Q 2003 3238 1991 3422 
Q 1959 3856 1841 4009 
Q 1763 4109 1588 4109 
Q 1453 4109 1375 4034 
Q 1259 3925 1218 3648 
Q 1178 3372 1178 1719 
Q 1178 819 1241 513 
Q 1288 291 1375 216 
Q 1463 141 1606 141 
Q 1763 141 1841 241 
Q 1972 416 1991 781 
L 2003 2125 
z
" transform="scale(0.015625)"/>
      <path id="DejaVuSerif-Bold-207a" d="M 1916 4344 
L 1916 3441 
L 2950 3441 
L 2950 3044 
L 1916 3044 
L 1916 2141 
L 1463 2141 
L 1463 3044 
L 428 3044 
L 428 3441 
L 1463 3441 
L 1463 4344 
L 1916 4344 
z
" transform="scale(0.015625)"/>
     </defs>
     <use xlink:href="#TimesNewRomanPS-BoldMT-30"/>
     <use xlink:href="#DejaVuSerif-Bold-207a" transform="translate(50 0)"/>
    </g>
   </g>
   <g id="text_4">
    <!-- 540 -->
    <g transform="translate(24.72025 431.737109) scale(0.16 -0.16)">
     <defs>
      <path id="DejaVuSans-BoldOblique-35" d="M 1131 4666 
L 4122 4666 
L 3950 3781 
L 1919 3781 
L 1778 3059 
Q 1916 3097 2064 3117 
Q 2213 3138 2363 3138 
Q 3078 3138 3481 2811 
Q 3884 2484 3884 1906 
Q 3884 988 3262 448 
Q 2641 -91 1575 -91 
Q 1184 -91 815 -14 
Q 447 63 84 219 
L 269 1166 
Q 616 941 942 834 
Q 1269 728 1606 728 
Q 2100 728 2397 986 
Q 2694 1244 2694 1663 
Q 2694 1963 2469 2139 
Q 2244 2316 1856 2316 
Q 1594 2316 1289 2248 
Q 984 2181 622 2041 
L 1131 4666 
z
" transform="scale(0.015625)"/>
      <path id="DejaVuSans-BoldOblique-34" d="M 2638 3641 
L 978 1722 
L 2259 1722 
L 2638 3641 
z
M 2606 4666 
L 3975 4666 
L 3397 1722 
L 4063 1722 
L 3897 850 
L 3231 850 
L 3066 0 
L 1925 0 
L 2094 850 
L -6 850 
L 197 1881 
L 2606 4666 
z
" transform="scale(0.015625)"/>
     </defs>
     <use xlink:href="#DejaVuSans-BoldOblique-35"/>
     <use xlink:href="#DejaVuSans-BoldOblique-34" transform="translate(69.580078 0)"/>
     <use xlink:href="#DejaVuSans-BoldOblique-30" transform="translate(139.160156 0)"/>
    </g>
   </g>
   <g id="text_5">
    <!-- 2⁺ -->
    <g transform="translate(182.58336 432.477343) scale(0.23 -0.23)">
     <defs>
      <path id="TimesNewRomanPS-BoldMT-32" d="M 2650 0 
L 156 0 
L 156 69 
Q 1303 1434 1548 1906 
Q 1794 2378 1794 2828 
Q 1794 3156 1591 3373 
Q 1388 3591 1094 3591 
Q 613 3591 347 3109 
L 231 3150 
Q 400 3750 744 4037 
Q 1088 4325 1538 4325 
Q 1859 4325 2125 4175 
Q 2391 4025 2541 3764 
Q 2691 3503 2691 3275 
Q 2691 2859 2459 2431 
Q 2144 1853 1081 819 
L 1997 819 
Q 2334 819 2436 847 
Q 2538 875 2603 942 
Q 2669 1009 2775 1225 
L 2888 1225 
L 2650 0 
z
" transform="scale(0.015625)"/>
     </defs>
     <use xlink:href="#TimesNewRomanPS-BoldMT-32"/>
     <use xlink:href="#DejaVuSerif-Bold-207a" transform="translate(50 0)"/>
    </g>
   </g>
   <g id="text_6">
    <!-- 1252 -->
    <g transform="translate(13.58775 364.103499) scale(0.16 -0.16)">
     <defs>
      <path id="DejaVuSans-BoldOblique-31" d="M 441 831 
L 1503 831 
L 2088 3847 
L 953 3622 
L 1113 4441 
L 2241 4666 
L 3384 4666 
L 2644 831 
L 3700 831 
L 3541 0 
L 275 0 
L 441 831 
z
" transform="scale(0.015625)"/>
      <path id="DejaVuSans-BoldOblique-32" d="M 1581 884 
L 3609 884 
L 3438 0 
L 50 0 
L 225 891 
L 2209 2388 
Q 2534 2638 2704 2894 
Q 2875 3150 2875 3391 
Q 2875 3647 2700 3787 
Q 2525 3928 2209 3928 
Q 1913 3928 1547 3811 
Q 1181 3694 722 3450 
L 922 4441 
Q 1347 4597 1756 4673 
Q 2166 4750 2566 4750 
Q 3278 4750 3687 4442 
Q 4097 4134 4097 3603 
Q 4097 3147 3847 2772 
Q 3597 2397 2747 1759 
L 1581 884 
z
" transform="scale(0.015625)"/>
     </defs>
     <use xlink:href="#DejaVuSans-BoldOblique-31"/>
     <use xlink:href="#DejaVuSans-BoldOblique-32" transform="translate(69.580078 0)"/>
     <use xlink:href="#DejaVuSans-BoldOblique-35" transform="translate(139.160156 0)"/>
     <use xlink:href="#DejaVuSans-BoldOblique-32" transform="translate(208.740234 0)"/>
    </g>
   </g>
   <g id="text_7">
    <!-- 4⁺ -->
    <g transform="translate(182.58336 364.843733) scale(0.23 -0.23)">
     <defs>
      <path id="TimesNewRomanPS-BoldMT-34" d="M 159 1597 
L 2172 4325 
L 2553 4325 
L 2553 1597 
L 2941 1597 
L 2941 950 
L 2553 950 
L 2553 0 
L 1694 0 
L 1694 950 
L 159 950 
L 159 1597 
z
M 463 1597 
L 1694 1597 
L 1694 3269 
L 463 1597 
z
" transform="scale(0.015625)"/>
     </defs>
     <use xlink:href="#TimesNewRomanPS-BoldMT-34"/>
     <use xlink:href="#DejaVuSerif-Bold-207a" transform="translate(50 0)"/>
    </g>
   </g>
   <g id="text_8">
    <!-- 2101 -->
    <g transform="translate(13.58775 283.435052) scale(0.16 -0.16)">
     <use xlink:href="#DejaVuSans-BoldOblique-32"/>
     <use xlink:href="#DejaVuSans-BoldOblique-31" transform="translate(69.580078 0)"/>
     <use xlink:href="#DejaVuSans-BoldOblique-30" transform="translate(139.160156 0)"/>
     <use xlink:href="#DejaVuSans-BoldOblique-31" transform="translate(208.740234 0)"/>
    </g>
   </g>
   <g id="text_9">
    <!-- 6⁺ -->
    <g transform="translate(182.58336 284.175287) scale(0.23 -0.23)">
     <defs>
      <path id="TimesNewRomanPS-BoldMT-36" d="M 3006 4325 
L 3006 4238 
Q 2441 4094 2098 3867 
Q 1756 3641 1557 3317 
Q 1359 2994 1250 2516 
Q 1388 2609 1478 2638 
Q 1681 2700 1888 2700 
Q 2363 2700 2680 2354 
Q 2997 2009 2997 1413 
Q 2997 994 2825 644 
Q 2653 294 2337 103 
Q 2022 -88 1663 -88 
Q 1272 -88 940 126 
Q 609 341 423 753 
Q 238 1166 238 1650 
Q 238 2363 580 2977 
Q 922 3591 1551 3955 
Q 2181 4319 3006 4325 
z
M 1209 2263 
Q 1184 1831 1184 1631 
Q 1184 1200 1267 797 
Q 1350 394 1494 231 
Q 1597 116 1738 116 
Q 1881 116 1993 283 
Q 2106 450 2106 963 
Q 2106 1825 1897 2153 
Q 1763 2366 1534 2366 
Q 1409 2366 1209 2263 
z
" transform="scale(0.015625)"/>
     </defs>
     <use xlink:href="#TimesNewRomanPS-BoldMT-36"/>
     <use xlink:href="#DejaVuSerif-Bold-207a" transform="translate(50 0)"/>
    </g>
   </g>
   <g id="text_10">
    <!-- 1630 -->
    <g transform="translate(263.461892 328.157834) scale(0.16 -0.16)">
     <defs>
      <path id="DejaVuSans-BoldOblique-36" d="M 2316 2303 
Q 1959 2303 1731 2009 
Q 1503 1716 1503 1253 
Q 1503 975 1643 820 
Q 1784 666 2034 666 
Q 2388 666 2617 955 
Q 2847 1244 2847 1684 
Q 2847 1984 2709 2143 
Q 2572 2303 2316 2303 
z
M 4225 4544 
L 4056 3681 
Q 3788 3819 3534 3887 
Q 3281 3956 3028 3956 
Q 2447 3956 2087 3643 
Q 1728 3331 1650 2766 
Q 1894 2925 2151 3001 
Q 2409 3078 2700 3078 
Q 3275 3078 3640 2737 
Q 4006 2397 4006 1869 
Q 4006 1006 3442 454 
Q 2878 -97 1991 -97 
Q 1194 -97 756 354 
Q 319 806 319 1631 
Q 319 2269 512 2848 
Q 706 3428 1056 3847 
Q 1431 4294 1942 4519 
Q 2453 4744 3091 4744 
Q 3384 4744 3662 4694 
Q 3941 4644 4225 4544 
z
" transform="scale(0.015625)"/>
      <path id="DejaVuSans-BoldOblique-33" d="M 3022 2516 
Q 3375 2434 3572 2187 
Q 3769 1941 3769 1581 
Q 3769 806 3155 357 
Q 2541 -91 1466 -91 
Q 1059 -91 692 -33 
Q 325 25 0 141 
L 178 1069 
Q 456 906 784 817 
Q 1113 728 1441 728 
Q 1969 728 2276 926 
Q 2584 1125 2584 1459 
Q 2584 1738 2350 1877 
Q 2116 2016 1644 2016 
L 1166 2016 
L 1319 2791 
L 1825 2791 
Q 2316 2791 2602 2969 
Q 2888 3147 2888 3450 
Q 2888 3688 2689 3813 
Q 2491 3938 2113 3938 
Q 1847 3938 1534 3869 
Q 1222 3800 884 3669 
L 1056 4550 
Q 1425 4650 1783 4700 
Q 2141 4750 2491 4750 
Q 3281 4750 3679 4487 
Q 4078 4225 4078 3706 
Q 4078 3241 3801 2930 
Q 3525 2619 3022 2516 
z
" transform="scale(0.015625)"/>
     </defs>
     <use xlink:href="#DejaVuSans-BoldOblique-31"/>
     <use xlink:href="#DejaVuSans-BoldOblique-36" transform="translate(69.580078 0)"/>
     <use xlink:href="#DejaVuSans-BoldOblique-33" transform="translate(139.160156 0)"/>
     <use xlink:href="#DejaVuSans-BoldOblique-30" transform="translate(208.740234 0)"/>
    </g>
   </g>
   <g id="text_11">
    <!-- 0⁺ -->
    <g transform="translate(432.457502 328.898069) scale(0.23 -0.23)">
     <use xlink:href="#TimesNewRomanPS-BoldMT-30"/>
     <use xlink:href="#DejaVuSerif-Bold-207a" transform="translate(50 0)"/>
    </g>
   </g>
   <g id="text_12">
    <!-- 2280 -->
    <g transform="translate(263.461892 266.38745) scale(0.16 -0.16)">
     <defs>
      <path id="DejaVuSans-BoldOblique-38" d="M 2150 2088 
Q 1784 2088 1539 1839 
Q 1294 1591 1294 1228 
Q 1294 969 1453 817 
Q 1613 666 1888 666 
Q 2259 666 2503 911 
Q 2747 1156 2747 1522 
Q 2747 1781 2586 1934 
Q 2425 2088 2150 2088 
z
M 1381 2484 
Q 1044 2625 876 2850 
Q 709 3075 709 3391 
Q 709 4025 1229 4387 
Q 1750 4750 2669 4750 
Q 3406 4750 3812 4475 
Q 4219 4200 4219 3700 
Q 4219 3256 3936 2940 
Q 3653 2625 3128 2484 
Q 3509 2338 3690 2091 
Q 3872 1844 3872 1466 
Q 3872 747 3311 328 
Q 2750 -91 1772 -91 
Q 1000 -91 570 217 
Q 141 525 141 1075 
Q 141 1572 470 1945 
Q 800 2319 1381 2484 
z
M 2559 3994 
Q 2241 3994 2048 3808 
Q 1856 3622 1856 3316 
Q 1856 3103 1995 2972 
Q 2134 2841 2363 2841 
Q 2681 2841 2873 3027 
Q 3066 3213 3066 3519 
Q 3066 3734 2927 3864 
Q 2788 3994 2559 3994 
z
" transform="scale(0.015625)"/>
     </defs>
     <use xlink:href="#DejaVuSans-BoldOblique-32"/>
     <use xlink:href="#DejaVuSans-BoldOblique-32" transform="translate(69.580078 0)"/>
     <use xlink:href="#DejaVuSans-BoldOblique-38" transform="translate(139.160156 0)"/>
     <use xlink:href="#DejaVuSans-BoldOblique-30" transform="translate(208.740234 0)"/>
    </g>
   </g>
   <g id="text_13">
    <!-- 2⁺ -->
    <g transform="translate(432.457502 267.127684) scale(0.23 -0.23)">
     <use xlink:href="#TimesNewRomanPS-BoldMT-32"/>
     <use xlink:href="#DejaVuSerif-Bold-207a" transform="translate(50 0)"/>
    </g>
   </g>
   <g id="text_14">
    <!-- 3009 -->
    <g transform="translate(263.461892 197.127241) scale(0.16 -0.16)">
     <defs>
      <path id="DejaVuSans-BoldOblique-39" d="M 263 103 
L 428 966 
Q 700 825 953 758 
Q 1206 691 1459 691 
Q 2041 691 2400 1003 
Q 2759 1316 2834 1881 
Q 2594 1722 2337 1645 
Q 2081 1569 1791 1569 
Q 1219 1569 853 1909 
Q 488 2250 488 2778 
Q 488 3641 1052 4192 
Q 1616 4744 2503 4744 
Q 3300 4744 3736 4292 
Q 4172 3841 4172 3016 
Q 4172 2381 3978 1801 
Q 3784 1222 3431 800 
Q 3056 353 2548 128 
Q 2041 -97 1403 -97 
Q 1106 -97 825 -47 
Q 544 3 263 103 
z
M 2169 2344 
Q 2525 2344 2753 2637 
Q 2981 2931 2981 3391 
Q 2981 3675 2845 3828 
Q 2709 3981 2456 3981 
Q 2103 3981 1870 3690 
Q 1638 3400 1638 2963 
Q 1638 2663 1775 2503 
Q 1913 2344 2169 2344 
z
" transform="scale(0.015625)"/>
     </defs>
     <use xlink:href="#DejaVuSans-BoldOblique-33"/>
     <use xlink:href="#DejaVuSans-BoldOblique-30" transform="translate(69.580078 0)"/>
     <use xlink:href="#DejaVuSans-BoldOblique-30" transform="translate(139.160156 0)"/>
     <use xlink:href="#DejaVuSans-BoldOblique-39" transform="translate(208.740234 0)"/>
    </g>
   </g>
   <g id="text_15">
    <!-- 4⁺ -->
    <g transform="translate(432.457502 197.867475) scale(0.23 -0.23)">
     <use xlink:href="#TimesNewRomanPS-BoldMT-34"/>
     <use xlink:href="#DejaVuSerif-Bold-207a" transform="translate(50 0)"/>
    </g>
   </g>
   <g id="text_16">
    <!-- 3901 -->
    <g transform="translate(263.461892 112.352817) scale(0.16 -0.16)">
     <use xlink:href="#DejaVuSans-BoldOblique-33"/>
     <use xlink:href="#DejaVuSans-BoldOblique-39" transform="translate(69.580078 0)"/>
     <use xlink:href="#DejaVuSans-BoldOblique-30" transform="translate(139.160156 0)"/>
     <use xlink:href="#DejaVuSans-BoldOblique-31" transform="translate(208.740234 0)"/>
    </g>
   </g>
   <g id="text_17">
    <!-- 6⁺ -->
    <g transform="translate(432.457502 113.093051) scale(0.23 -0.23)">
     <use xlink:href="#TimesNewRomanPS-BoldMT-36"/>
     <use xlink:href="#DejaVuSerif-Bold-207a" transform="translate(50 0)"/>
    </g>
   </g>
   <g id="text_18">
    <!-- 1287 -->
    <g transform="translate(513.336034 360.776852) scale(0.16 -0.16)">
     <defs>
      <path id="DejaVuSans-BoldOblique-37" d="M 922 4666 
L 4441 4666 
L 4300 3981 
L 1703 0 
L 500 0 
L 2969 3781 
L 756 3781 
L 922 4666 
z
" transform="scale(0.015625)"/>
     </defs>
     <use xlink:href="#DejaVuSans-BoldOblique-31"/>
     <use xlink:href="#DejaVuSans-BoldOblique-32" transform="translate(69.580078 0)"/>
     <use xlink:href="#DejaVuSans-BoldOblique-38" transform="translate(139.160156 0)"/>
     <use xlink:href="#DejaVuSans-BoldOblique-37" transform="translate(208.740234 0)"/>
    </g>
   </g>
   <g id="text_19">
    <!-- 2⁺ -->
    <g transform="translate(682.331644 361.517087) scale(0.23 -0.23)">
     <use xlink:href="#TimesNewRomanPS-BoldMT-32"/>
     <use xlink:href="#DejaVuSerif-Bold-207a" transform="translate(50 0)"/>
    </g>
   </g>
   <g id="text_20">
    <!-- 2094 -->
    <g transform="translate(513.336034 284.03252) scale(0.16 -0.16)">
     <use xlink:href="#DejaVuSans-BoldOblique-32"/>
     <use xlink:href="#DejaVuSans-BoldOblique-30" transform="translate(69.580078 0)"/>
     <use xlink:href="#DejaVuSans-BoldOblique-39" transform="translate(139.160156 0)"/>
     <use xlink:href="#DejaVuSans-BoldOblique-34" transform="translate(208.740234 0)"/>
    </g>
   </g>
   <g id="text_21">
    <!-- 3⁺ -->
    <g transform="translate(682.331644 284.772755) scale(0.23 -0.23)">
     <defs>
      <path id="TimesNewRomanPS-BoldMT-33" d="M 947 2125 
L 947 2234 
Q 1303 2338 1440 2427 
Q 1578 2516 1678 2698 
Q 1778 2881 1778 3069 
Q 1778 3328 1589 3514 
Q 1400 3700 1119 3700 
Q 681 3700 375 3238 
L 259 3278 
Q 484 3800 836 4062 
Q 1188 4325 1619 4325 
Q 2059 4325 2345 4056 
Q 2631 3788 2631 3428 
Q 2631 3194 2498 2976 
Q 2366 2759 2081 2594 
Q 2447 2416 2639 2155 
Q 2831 1894 2831 1500 
Q 2831 838 2351 373 
Q 1872 -91 1066 -91 
Q 528 -91 281 88 
Q 103 213 103 409 
Q 103 553 206 654 
Q 309 756 444 756 
Q 547 756 638 713 
Q 688 688 992 439 
Q 1297 191 1563 191 
Q 1794 191 1959 373 
Q 2125 556 2125 838 
Q 2125 1266 1825 1627 
Q 1525 1988 947 2125 
z
" transform="scale(0.015625)"/>
     </defs>
     <use xlink:href="#TimesNewRomanPS-BoldMT-33"/>
     <use xlink:href="#DejaVuSerif-Bold-207a" transform="translate(50 0)"/>
    </g>
   </g>
   <g id="text_22">
    <path d="M 106.748055 452.560806 
L 111.780555 445.740806 
L 112.733055 445.740806 
L 112.733055 452.560806 
L 113.703055 452.560806 
L 113.703055 454.178306 
L 112.733055 454.178306 
L 112.733055 456.553306 
L 110.585555 456.553306 
L 110.585555 454.178306 
L 106.748055 454.178306 
L 106.748055 452.560806 
z
M 107.508055 452.560806 
L 110.585555 452.560806 
L 110.585555 448.380806 
L 107.508055 452.560806 
z
M 121.765555 451.255806 
Q 121.765555 452.843306 121.320555 454.218306 
Q 121.053055 455.060806 120.603055 455.600806 
Q 120.155555 456.138306 119.585555 456.455806 
Q 119.015555 456.773306 118.343055 456.773306 
Q 117.578055 456.773306 116.960555 456.383306 
Q 116.343055 455.990806 115.865555 455.263306 
Q 115.523055 454.733306 115.265555 453.850806 
Q 114.928055 452.655806 114.928055 451.380806 
Q 114.928055 449.655806 115.413055 448.208306 
Q 115.810555 447.013306 116.623055 446.378306 
Q 117.435555 445.740806 118.343055 445.740806 
Q 119.265555 445.740806 120.065555 446.370806 
Q 120.865555 446.998306 121.240555 448.060806 
Q 121.765555 449.520806 121.765555 451.255806 
z
M 119.358055 451.240806 
Q 119.358055 448.458306 119.328055 447.998306 
Q 119.248055 446.913306 118.953055 446.530806 
Q 118.758055 446.280806 118.320555 446.280806 
Q 117.983055 446.280806 117.788055 446.468306 
Q 117.498055 446.740806 117.395555 447.433306 
Q 117.295555 448.123306 117.295555 452.255806 
Q 117.295555 454.505806 117.453055 455.270806 
Q 117.570555 455.825806 117.788055 456.013306 
Q 118.008055 456.200806 118.365555 456.200806 
Q 118.758055 456.200806 118.953055 455.950806 
Q 119.280555 455.513306 119.328055 454.600806 
L 119.358055 451.240806 
z
M 124.350555 454.145806 
Q 124.898055 454.145806 125.275555 454.530806 
Q 125.655555 454.913306 125.655555 455.450806 
Q 125.655555 455.990806 125.273055 456.370806 
Q 124.890555 456.748306 124.350555 456.748306 
Q 123.810555 456.748306 123.430555 456.370806 
Q 123.053055 455.990806 123.053055 455.450806 
Q 123.053055 454.913306 123.430555 454.530806 
Q 123.810555 454.145806 124.350555 454.145806 
z
M 133.765555 451.255806 
Q 133.765555 452.843306 133.320555 454.218306 
Q 133.053055 455.060806 132.603055 455.600806 
Q 132.155555 456.138306 131.585555 456.455806 
Q 131.015555 456.773306 130.343055 456.773306 
Q 129.578055 456.773306 128.960555 456.383306 
Q 128.343055 455.990806 127.865555 455.263306 
Q 127.523055 454.733306 127.265555 453.850806 
Q 126.928055 452.655806 126.928055 451.380806 
Q 126.928055 449.655806 127.413055 448.208306 
Q 127.810555 447.013306 128.623055 446.378306 
Q 129.435555 445.740806 130.343055 445.740806 
Q 131.265555 445.740806 132.065555 446.370806 
Q 132.865555 446.998306 133.240555 448.060806 
Q 133.765555 449.520806 133.765555 451.255806 
z
M 131.358055 451.240806 
Q 131.358055 448.458306 131.328055 447.998306 
Q 131.248055 446.913306 130.953055 446.530806 
Q 130.758055 446.280806 130.320555 446.280806 
Q 129.983055 446.280806 129.788055 446.468306 
Q 129.498055 446.740806 129.395555 447.433306 
Q 129.295555 448.123306 129.295555 452.255806 
Q 129.295555 454.505806 129.453055 455.270806 
Q 129.570555 455.825806 129.788055 456.013306 
Q 130.008055 456.200806 130.365555 456.200806 
Q 130.758055 456.200806 130.953055 455.950806 
Q 131.280555 455.513306 131.328055 454.600806 
L 131.358055 451.240806 
z
" style="stroke: #ffffff; stroke-width: 3.8"/>
    <path d="M 106.748055 452.560806 
L 111.780555 445.740806 
L 112.733055 445.740806 
L 112.733055 452.560806 
L 113.703055 452.560806 
L 113.703055 454.178306 
L 112.733055 454.178306 
L 112.733055 456.553306 
L 110.585555 456.553306 
L 110.585555 454.178306 
L 106.748055 454.178306 
L 106.748055 452.560806 
z
M 107.508055 452.560806 
L 110.585555 452.560806 
L 110.585555 448.380806 
L 107.508055 452.560806 
z
M 121.765555 451.255806 
Q 121.765555 452.843306 121.320555 454.218306 
Q 121.053055 455.060806 120.603055 455.600806 
Q 120.155555 456.138306 119.585555 456.455806 
Q 119.015555 456.773306 118.343055 456.773306 
Q 117.578055 456.773306 116.960555 456.383306 
Q 116.343055 455.990806 115.865555 455.263306 
Q 115.523055 454.733306 115.265555 453.850806 
Q 114.928055 452.655806 114.928055 451.380806 
Q 114.928055 449.655806 115.413055 448.208306 
Q 115.810555 447.013306 116.623055 446.378306 
Q 117.435555 445.740806 118.343055 445.740806 
Q 119.265555 445.740806 120.065555 446.370806 
Q 120.865555 446.998306 121.240555 448.060806 
Q 121.765555 449.520806 121.765555 451.255806 
z
M 119.358055 451.240806 
Q 119.358055 448.458306 119.328055 447.998306 
Q 119.248055 446.913306 118.953055 446.530806 
Q 118.758055 446.280806 118.320555 446.280806 
Q 117.983055 446.280806 117.788055 446.468306 
Q 117.498055 446.740806 117.395555 447.433306 
Q 117.295555 448.123306 117.295555 452.255806 
Q 117.295555 454.505806 117.453055 455.270806 
Q 117.570555 455.825806 117.788055 456.013306 
Q 118.008055 456.200806 118.365555 456.200806 
Q 118.758055 456.200806 118.953055 455.950806 
Q 119.280555 455.513306 119.328055 454.600806 
L 119.358055 451.240806 
z
M 124.350555 454.145806 
Q 124.898055 454.145806 125.275555 454.530806 
Q 125.655555 454.913306 125.655555 455.450806 
Q 125.655555 455.990806 125.273055 456.370806 
Q 124.890555 456.748306 124.350555 456.748306 
Q 123.810555 456.748306 123.430555 456.370806 
Q 123.053055 455.990806 123.053055 455.450806 
Q 123.053055 454.913306 123.430555 454.530806 
Q 123.810555 454.145806 124.350555 454.145806 
z
M 133.765555 451.255806 
Q 133.765555 452.843306 133.320555 454.218306 
Q 133.053055 455.060806 132.603055 455.600806 
Q 132.155555 456.138306 131.585555 456.455806 
Q 131.015555 456.773306 130.343055 456.773306 
Q 129.578055 456.773306 128.960555 456.383306 
Q 128.343055 455.990806 127.865555 455.263306 
Q 127.523055 454.733306 127.265555 453.850806 
Q 126.928055 452.655806 126.928055 451.380806 
Q 126.928055 449.655806 127.413055 448.208306 
Q 127.810555 447.013306 128.623055 446.378306 
Q 129.435555 445.740806 130.343055 445.740806 
Q 131.265555 445.740806 132.065555 446.370806 
Q 132.865555 446.998306 133.240555 448.060806 
Q 133.765555 449.520806 133.765555 451.255806 
z
M 131.358055 451.240806 
Q 131.358055 448.458306 131.328055 447.998306 
Q 131.248055 446.913306 130.953055 446.530806 
Q 130.758055 446.280806 130.320555 446.280806 
Q 129.983055 446.280806 129.788055 446.468306 
Q 129.498055 446.740806 129.395555 447.433306 
Q 129.295555 448.123306 129.295555 452.255806 
Q 129.295555 454.505806 129.453055 455.270806 
Q 129.570555 455.825806 129.788055 456.013306 
Q 130.008055 456.200806 130.365555 456.200806 
Q 130.758055 456.200806 130.953055 455.950806 
Q 131.280555 455.513306 131.328055 454.600806 
L 131.358055 451.240806 
z
"/>
   </g>
   <g id="text_23">
    <path d="M 109.185555 397.311554 
L 112.070555 388.569054 
L 109.873055 388.569054 
Q 108.585555 388.569054 107.935555 388.904054 
Q 107.483055 389.139054 107.185555 389.786554 
L 106.890555 389.786554 
L 107.655555 386.496554 
L 113.968055 386.496554 
L 110.413055 397.311554 
L 109.185555 397.311554 
z
M 121.765555 391.794054 
Q 121.765555 393.381554 121.320555 394.756554 
Q 121.053055 395.599054 120.603055 396.139054 
Q 120.155555 396.676554 119.585555 396.994054 
Q 119.015555 397.311554 118.343055 397.311554 
Q 117.578055 397.311554 116.960555 396.921554 
Q 116.343055 396.529054 115.865555 395.801554 
Q 115.523055 395.271554 115.265555 394.389054 
Q 114.928055 393.194054 114.928055 391.919054 
Q 114.928055 390.194054 115.413055 388.746554 
Q 115.810555 387.551554 116.623055 386.916554 
Q 117.435555 386.279054 118.343055 386.279054 
Q 119.265555 386.279054 120.065555 386.909054 
Q 120.865555 387.536554 121.240555 388.599054 
Q 121.765555 390.059054 121.765555 391.794054 
z
M 119.358055 391.779054 
Q 119.358055 388.996554 119.328055 388.536554 
Q 119.248055 387.451554 118.953055 387.069054 
Q 118.758055 386.819054 118.320555 386.819054 
Q 117.983055 386.819054 117.788055 387.006554 
Q 117.498055 387.279054 117.395555 387.971554 
Q 117.295555 388.661554 117.295555 392.794054 
Q 117.295555 395.044054 117.453055 395.809054 
Q 117.570555 396.364054 117.788055 396.551554 
Q 118.008055 396.739054 118.365555 396.739054 
Q 118.758055 396.739054 118.953055 396.489054 
Q 119.280555 396.051554 119.328055 395.139054 
L 119.358055 391.779054 
z
M 124.350555 394.684054 
Q 124.898055 394.684054 125.275555 395.069054 
Q 125.655555 395.451554 125.655555 395.989054 
Q 125.655555 396.529054 125.273055 396.909054 
Q 124.890555 397.286554 124.350555 397.286554 
Q 123.810555 397.286554 123.430555 396.909054 
Q 123.053055 396.529054 123.053055 395.989054 
Q 123.053055 395.451554 123.430555 395.069054 
Q 123.810555 394.684054 124.350555 394.684054 
z
M 133.765555 391.794054 
Q 133.765555 393.381554 133.320555 394.756554 
Q 133.053055 395.599054 132.603055 396.139054 
Q 132.155555 396.676554 131.585555 396.994054 
Q 131.015555 397.311554 130.343055 397.311554 
Q 129.578055 397.311554 128.960555 396.921554 
Q 128.343055 396.529054 127.865555 395.801554 
Q 127.523055 395.271554 127.265555 394.389054 
Q 126.928055 393.194054 126.928055 391.919054 
Q 126.928055 390.194054 127.413055 388.746554 
Q 127.810555 387.551554 128.623055 386.916554 
Q 129.435555 386.279054 130.343055 386.279054 
Q 131.265555 386.279054 132.065555 386.909054 
Q 132.865555 387.536554 133.240555 388.599054 
Q 133.765555 390.059054 133.765555 391.794054 
z
M 131.358055 391.779054 
Q 131.358055 388.996554 131.328055 388.536554 
Q 131.248055 387.451554 130.953055 387.069054 
Q 130.758055 386.819054 130.320555 386.819054 
Q 129.983055 386.819054 129.788055 387.006554 
Q 129.498055 387.279054 129.395555 387.971554 
Q 129.295555 388.661554 129.295555 392.794054 
Q 129.295555 395.044054 129.453055 395.809054 
Q 129.570555 396.364054 129.788055 396.551554 
Q 130.008055 396.739054 130.365555 396.739054 
Q 130.758055 396.739054 130.953055 396.489054 
Q 131.280555 396.051554 131.328055 395.139054 
L 131.358055 391.779054 
z
" style="stroke: #ffffff; stroke-width: 3.8"/>
    <path d="M 109.185555 397.311554 
L 112.070555 388.569054 
L 109.873055 388.569054 
Q 108.585555 388.569054 107.935555 388.904054 
Q 107.483055 389.139054 107.185555 389.786554 
L 106.890555 389.786554 
L 107.655555 386.496554 
L 113.968055 386.496554 
L 110.413055 397.311554 
L 109.185555 397.311554 
z
M 121.765555 391.794054 
Q 121.765555 393.381554 121.320555 394.756554 
Q 121.053055 395.599054 120.603055 396.139054 
Q 120.155555 396.676554 119.585555 396.994054 
Q 119.015555 397.311554 118.343055 397.311554 
Q 117.578055 397.311554 116.960555 396.921554 
Q 116.343055 396.529054 115.865555 395.801554 
Q 115.523055 395.271554 115.265555 394.389054 
Q 114.928055 393.194054 114.928055 391.919054 
Q 114.928055 390.194054 115.413055 388.746554 
Q 115.810555 387.551554 116.623055 386.916554 
Q 117.435555 386.279054 118.343055 386.279054 
Q 119.265555 386.279054 120.065555 386.909054 
Q 120.865555 387.536554 121.240555 388.599054 
Q 121.765555 390.059054 121.765555 391.794054 
z
M 119.358055 391.779054 
Q 119.358055 388.996554 119.328055 388.536554 
Q 119.248055 387.451554 118.953055 387.069054 
Q 118.758055 386.819054 118.320555 386.819054 
Q 117.983055 386.819054 117.788055 387.006554 
Q 117.498055 387.279054 117.395555 387.971554 
Q 117.295555 388.661554 117.295555 392.794054 
Q 117.295555 395.044054 117.453055 395.809054 
Q 117.570555 396.364054 117.788055 396.551554 
Q 118.008055 396.739054 118.365555 396.739054 
Q 118.758055 396.739054 118.953055 396.489054 
Q 119.280555 396.051554 119.328055 395.139054 
L 119.358055 391.779054 
z
M 124.350555 394.684054 
Q 124.898055 394.684054 125.275555 395.069054 
Q 125.655555 395.451554 125.655555 395.989054 
Q 125.655555 396.529054 125.273055 396.909054 
Q 124.890555 397.286554 124.350555 397.286554 
Q 123.810555 397.286554 123.430555 396.909054 
Q 123.053055 396.529054 123.053055 395.989054 
Q 123.053055 395.451554 123.430555 395.069054 
Q 123.810555 394.684054 124.350555 394.684054 
z
M 133.765555 391.794054 
Q 133.765555 393.381554 133.320555 394.756554 
Q 133.053055 395.599054 132.603055 396.139054 
Q 132.155555 396.676554 131.585555 396.994054 
Q 131.015555 397.311554 130.343055 397.311554 
Q 129.578055 397.311554 128.960555 396.921554 
Q 128.343055 396.529054 127.865555 395.801554 
Q 127.523055 395.271554 127.265555 394.389054 
Q 126.928055 393.194054 126.928055 391.919054 
Q 126.928055 390.194054 127.413055 388.746554 
Q 127.810555 387.551554 128.623055 386.916554 
Q 129.435555 386.279054 130.343055 386.279054 
Q 131.265555 386.279054 132.065555 386.909054 
Q 132.865555 387.536554 133.240555 388.599054 
Q 133.765555 390.059054 133.765555 391.794054 
z
M 131.358055 391.779054 
Q 131.358055 388.996554 131.328055 388.536554 
Q 131.248055 387.451554 130.953055 387.069054 
Q 130.758055 386.819054 130.320555 386.819054 
Q 129.983055 386.819054 129.788055 387.006554 
Q 129.498055 387.279054 129.395555 387.971554 
Q 129.295555 388.661554 129.295555 392.794054 
Q 129.295555 395.044054 129.453055 395.809054 
Q 129.570555 396.364054 129.788055 396.551554 
Q 130.008055 396.739054 130.365555 396.739054 
Q 130.758055 396.739054 130.953055 396.489054 
Q 131.280555 396.051554 131.328055 395.139054 
L 131.358055 391.779054 
z
"/>
   </g>
   <g id="text_24">
    <path d="M 106.843055 323.160526 
L 106.843055 322.940526 
Q 108.140555 322.643026 109.043055 322.065526 
Q 109.945555 321.488026 110.470555 320.635526 
Q 110.998055 319.783026 111.210555 318.675526 
Q 110.725555 318.925526 110.385555 319.023026 
Q 110.045555 319.120526 109.670555 319.120526 
Q 108.468055 319.120526 107.665555 318.253026 
Q 106.865555 317.385526 106.865555 315.878026 
Q 106.865555 314.830526 107.298055 313.960526 
Q 107.733055 313.088026 108.538055 312.608026 
Q 109.343055 312.128026 110.210555 312.128026 
Q 111.140555 312.128026 111.968055 312.660526 
Q 112.795555 313.190526 113.288055 314.198026 
Q 113.780555 315.205526 113.780555 316.495526 
Q 113.780555 318.168026 112.978055 319.700526 
Q 112.178055 321.230526 110.593055 322.155526 
Q 109.008055 323.080526 106.843055 323.160526 
z
M 111.328055 318.018026 
Q 111.405555 317.143026 111.405555 316.480526 
Q 111.405555 315.058026 111.078055 313.830526 
Q 110.890555 313.150526 110.523055 312.830526 
Q 110.328055 312.658026 110.015555 312.658026 
Q 109.623055 312.658026 109.405555 312.995526 
Q 109.100555 313.455526 109.100555 314.753026 
Q 109.100555 316.918026 109.615555 317.738026 
Q 109.953055 318.268026 110.523055 318.268026 
Q 110.828055 318.268026 111.328055 318.018026 
z
M 116.788055 312.345526 
L 121.748055 312.345526 
L 120.960555 314.363026 
L 116.788055 314.363026 
L 116.390555 315.418026 
Q 119.085555 315.518026 120.538055 316.760526 
Q 121.733055 317.783026 121.733055 319.308026 
Q 121.733055 320.283026 121.178055 321.218026 
Q 120.623055 322.150526 119.615555 322.655526 
Q 118.608055 323.160526 117.405555 323.160526 
Q 116.108055 323.160526 115.413055 322.675526 
Q 114.928055 322.330526 114.928055 321.893026 
Q 114.928055 321.558026 115.180555 321.300526 
Q 115.435555 321.043026 115.773055 321.043026 
Q 116.078055 321.043026 116.390555 321.168026 
Q 116.703055 321.293026 117.460555 321.823026 
Q 117.935555 322.150526 118.280555 322.275526 
Q 118.523055 322.370526 118.828055 322.370526 
Q 119.468055 322.370526 119.915555 321.903026 
Q 120.365555 321.433026 120.365555 320.775526 
Q 120.365555 319.400526 118.990555 318.543026 
Q 117.615555 317.683026 115.523055 317.683026 
Q 115.310555 317.683026 114.890555 317.690526 
L 116.788055 312.345526 
z
M 124.350555 320.533026 
Q 124.898055 320.533026 125.275555 320.918026 
Q 125.655555 321.300526 125.655555 321.838026 
Q 125.655555 322.378026 125.273055 322.758026 
Q 124.890555 323.135526 124.350555 323.135526 
Q 123.810555 323.135526 123.430555 322.758026 
Q 123.053055 322.378026 123.053055 321.838026 
Q 123.053055 321.300526 123.430555 320.918026 
Q 123.810555 320.533026 124.350555 320.533026 
z
M 129.185555 323.160526 
L 132.070555 314.418026 
L 129.873055 314.418026 
Q 128.585555 314.418026 127.935555 314.753026 
Q 127.483055 314.988026 127.185555 315.635526 
L 126.890555 315.635526 
L 127.655555 312.345526 
L 133.968055 312.345526 
L 130.413055 323.160526 
L 129.185555 323.160526 
z
" style="stroke: #ffffff; stroke-width: 3.8"/>
    <path d="M 106.843055 323.160526 
L 106.843055 322.940526 
Q 108.140555 322.643026 109.043055 322.065526 
Q 109.945555 321.488026 110.470555 320.635526 
Q 110.998055 319.783026 111.210555 318.675526 
Q 110.725555 318.925526 110.385555 319.023026 
Q 110.045555 319.120526 109.670555 319.120526 
Q 108.468055 319.120526 107.665555 318.253026 
Q 106.865555 317.385526 106.865555 315.878026 
Q 106.865555 314.830526 107.298055 313.960526 
Q 107.733055 313.088026 108.538055 312.608026 
Q 109.343055 312.128026 110.210555 312.128026 
Q 111.140555 312.128026 111.968055 312.660526 
Q 112.795555 313.190526 113.288055 314.198026 
Q 113.780555 315.205526 113.780555 316.495526 
Q 113.780555 318.168026 112.978055 319.700526 
Q 112.178055 321.230526 110.593055 322.155526 
Q 109.008055 323.080526 106.843055 323.160526 
z
M 111.328055 318.018026 
Q 111.405555 317.143026 111.405555 316.480526 
Q 111.405555 315.058026 111.078055 313.830526 
Q 110.890555 313.150526 110.523055 312.830526 
Q 110.328055 312.658026 110.015555 312.658026 
Q 109.623055 312.658026 109.405555 312.995526 
Q 109.100555 313.455526 109.100555 314.753026 
Q 109.100555 316.918026 109.615555 317.738026 
Q 109.953055 318.268026 110.523055 318.268026 
Q 110.828055 318.268026 111.328055 318.018026 
z
M 116.788055 312.345526 
L 121.748055 312.345526 
L 120.960555 314.363026 
L 116.788055 314.363026 
L 116.390555 315.418026 
Q 119.085555 315.518026 120.538055 316.760526 
Q 121.733055 317.783026 121.733055 319.308026 
Q 121.733055 320.283026 121.178055 321.218026 
Q 120.623055 322.150526 119.615555 322.655526 
Q 118.608055 323.160526 117.405555 323.160526 
Q 116.108055 323.160526 115.413055 322.675526 
Q 114.928055 322.330526 114.928055 321.893026 
Q 114.928055 321.558026 115.180555 321.300526 
Q 115.435555 321.043026 115.773055 321.043026 
Q 116.078055 321.043026 116.390555 321.168026 
Q 116.703055 321.293026 117.460555 321.823026 
Q 117.935555 322.150526 118.280555 322.275526 
Q 118.523055 322.370526 118.828055 322.370526 
Q 119.468055 322.370526 119.915555 321.903026 
Q 120.365555 321.433026 120.365555 320.775526 
Q 120.365555 319.400526 118.990555 318.543026 
Q 117.615555 317.683026 115.523055 317.683026 
Q 115.310555 317.683026 114.890555 317.690526 
L 116.788055 312.345526 
z
M 124.350555 320.533026 
Q 124.898055 320.533026 125.275555 320.918026 
Q 125.655555 321.300526 125.655555 321.838026 
Q 125.655555 322.378026 125.273055 322.758026 
Q 124.890555 323.135526 124.350555 323.135526 
Q 123.810555 323.135526 123.430555 322.758026 
Q 123.053055 322.378026 123.053055 321.838026 
Q 123.053055 321.300526 123.430555 320.918026 
Q 123.810555 320.533026 124.350555 320.533026 
z
M 129.185555 323.160526 
L 132.070555 314.418026 
L 129.873055 314.418026 
Q 128.585555 314.418026 127.935555 314.753026 
Q 127.483055 314.988026 127.185555 315.635526 
L 126.890555 315.635526 
L 127.655555 312.345526 
L 133.968055 312.345526 
L 130.413055 323.160526 
L 129.185555 323.160526 
z
"/>
   </g>
   <g id="text_25">
    <path d="M 358.662197 285.848892 
L 363.622197 285.848892 
L 362.834697 287.866392 
L 358.662197 287.866392 
L 358.264697 288.921392 
Q 360.959697 289.021392 362.412197 290.263892 
Q 363.607197 291.286392 363.607197 292.811392 
Q 363.607197 293.786392 363.052197 294.721392 
Q 362.497197 295.653892 361.489697 296.158892 
Q 360.482197 296.663892 359.279697 296.663892 
Q 357.982197 296.663892 357.287197 296.178892 
Q 356.802197 295.833892 356.802197 295.396392 
Q 356.802197 295.061392 357.054697 294.803892 
Q 357.309697 294.546392 357.647197 294.546392 
Q 357.952197 294.546392 358.264697 294.671392 
Q 358.577197 294.796392 359.334697 295.326392 
Q 359.809697 295.653892 360.154697 295.778892 
Q 360.397197 295.873892 360.702197 295.873892 
Q 361.342197 295.873892 361.789697 295.406392 
Q 362.239697 294.936392 362.239697 294.278892 
Q 362.239697 292.903892 360.864697 292.046392 
Q 359.489697 291.186392 357.397197 291.186392 
Q 357.184697 291.186392 356.764697 291.193892 
L 358.662197 285.848892 
z
M 364.622197 292.451392 
L 369.654697 285.631392 
L 370.607197 285.631392 
L 370.607197 292.451392 
L 371.577197 292.451392 
L 371.577197 294.068892 
L 370.607197 294.068892 
L 370.607197 296.443892 
L 368.459697 296.443892 
L 368.459697 294.068892 
L 364.622197 294.068892 
L 364.622197 292.451392 
z
M 365.382197 292.451392 
L 368.459697 292.451392 
L 368.459697 288.271392 
L 365.382197 292.451392 
z
M 374.224697 294.036392 
Q 374.772197 294.036392 375.149697 294.421392 
Q 375.529697 294.803892 375.529697 295.341392 
Q 375.529697 295.881392 375.147197 296.261392 
Q 374.764697 296.638892 374.224697 296.638892 
Q 373.684697 296.638892 373.304697 296.261392 
Q 372.927197 295.881392 372.927197 295.341392 
Q 372.927197 294.803892 373.304697 294.421392 
Q 373.684697 294.036392 374.224697 294.036392 
z
M 382.849697 296.443892 
L 376.614697 296.443892 
L 376.614697 296.271392 
Q 379.482197 292.858892 380.094697 291.678892 
Q 380.709697 290.498892 380.709697 289.373892 
Q 380.709697 288.553892 380.202197 288.011392 
Q 379.694697 287.466392 378.959697 287.466392 
Q 377.757197 287.466392 377.092197 288.671392 
L 376.802197 288.568892 
Q 377.224697 287.068892 378.084697 286.351392 
Q 378.944697 285.631392 380.069697 285.631392 
Q 380.872197 285.631392 381.537197 286.006392 
Q 382.202197 286.381392 382.577197 287.033892 
Q 382.952197 287.686392 382.952197 288.256392 
Q 382.952197 289.296392 382.372197 290.366392 
Q 381.584697 291.811392 378.927197 294.396392 
L 381.217197 294.396392 
Q 382.059697 294.396392 382.314697 294.326392 
Q 382.569697 294.256392 382.732197 294.088892 
Q 382.897197 293.921392 383.162197 293.381392 
L 383.444697 293.381392 
L 382.849697 296.443892 
z
" style="stroke: #ffffff; stroke-width: 3.8"/>
    <path d="M 358.662197 285.848892 
L 363.622197 285.848892 
L 362.834697 287.866392 
L 358.662197 287.866392 
L 358.264697 288.921392 
Q 360.959697 289.021392 362.412197 290.263892 
Q 363.607197 291.286392 363.607197 292.811392 
Q 363.607197 293.786392 363.052197 294.721392 
Q 362.497197 295.653892 361.489697 296.158892 
Q 360.482197 296.663892 359.279697 296.663892 
Q 357.982197 296.663892 357.287197 296.178892 
Q 356.802197 295.833892 356.802197 295.396392 
Q 356.802197 295.061392 357.054697 294.803892 
Q 357.309697 294.546392 357.647197 294.546392 
Q 357.952197 294.546392 358.264697 294.671392 
Q 358.577197 294.796392 359.334697 295.326392 
Q 359.809697 295.653892 360.154697 295.778892 
Q 360.397197 295.873892 360.702197 295.873892 
Q 361.342197 295.873892 361.789697 295.406392 
Q 362.239697 294.936392 362.239697 294.278892 
Q 362.239697 292.903892 360.864697 292.046392 
Q 359.489697 291.186392 357.397197 291.186392 
Q 357.184697 291.186392 356.764697 291.193892 
L 358.662197 285.848892 
z
M 364.622197 292.451392 
L 369.654697 285.631392 
L 370.607197 285.631392 
L 370.607197 292.451392 
L 371.577197 292.451392 
L 371.577197 294.068892 
L 370.607197 294.068892 
L 370.607197 296.443892 
L 368.459697 296.443892 
L 368.459697 294.068892 
L 364.622197 294.068892 
L 364.622197 292.451392 
z
M 365.382197 292.451392 
L 368.459697 292.451392 
L 368.459697 288.271392 
L 365.382197 292.451392 
z
M 374.224697 294.036392 
Q 374.772197 294.036392 375.149697 294.421392 
Q 375.529697 294.803892 375.529697 295.341392 
Q 375.529697 295.881392 375.147197 296.261392 
Q 374.764697 296.638892 374.224697 296.638892 
Q 373.684697 296.638892 373.304697 296.261392 
Q 372.927197 295.881392 372.927197 295.341392 
Q 372.927197 294.803892 373.304697 294.421392 
Q 373.684697 294.036392 374.224697 294.036392 
z
M 382.849697 296.443892 
L 376.614697 296.443892 
L 376.614697 296.271392 
Q 379.482197 292.858892 380.094697 291.678892 
Q 380.709697 290.498892 380.709697 289.373892 
Q 380.709697 288.553892 380.202197 288.011392 
Q 379.694697 287.466392 378.959697 287.466392 
Q 377.757197 287.466392 377.092197 288.671392 
L 376.802197 288.568892 
Q 377.224697 287.068892 378.084697 286.351392 
Q 378.944697 285.631392 380.069697 285.631392 
Q 380.872197 285.631392 381.537197 286.006392 
Q 382.202197 286.381392 382.577197 287.033892 
Q 382.952197 287.686392 382.952197 288.256392 
Q 382.952197 289.296392 382.372197 290.366392 
Q 381.584697 291.811392 378.927197 294.396392 
L 381.217197 294.396392 
Q 382.059697 294.396392 382.314697 294.326392 
Q 382.569697 294.256392 382.732197 294.088892 
Q 382.897197 293.921392 383.162197 293.381392 
L 383.444697 293.381392 
L 382.849697 296.443892 
z
"/>
   </g>
   <g id="text_26">
    <path d="M 359.059697 231.148595 
L 361.944697 222.406095 
L 359.747197 222.406095 
Q 358.459697 222.406095 357.809697 222.741095 
Q 357.357197 222.976095 357.059697 223.623595 
L 356.764697 223.623595 
L 357.529697 220.333595 
L 363.842197 220.333595 
L 360.287197 231.148595 
L 359.059697 231.148595 
z
M 366.662197 220.333595 
L 371.622197 220.333595 
L 370.834697 222.351095 
L 366.662197 222.351095 
L 366.264697 223.406095 
Q 368.959697 223.506095 370.412197 224.748595 
Q 371.607197 225.771095 371.607197 227.296095 
Q 371.607197 228.271095 371.052197 229.206095 
Q 370.497197 230.138595 369.489697 230.643595 
Q 368.482197 231.148595 367.279697 231.148595 
Q 365.982197 231.148595 365.287197 230.663595 
Q 364.802197 230.318595 364.802197 229.881095 
Q 364.802197 229.546095 365.054697 229.288595 
Q 365.309697 229.031095 365.647197 229.031095 
Q 365.952197 229.031095 366.264697 229.156095 
Q 366.577197 229.281095 367.334697 229.811095 
Q 367.809697 230.138595 368.154697 230.263595 
Q 368.397197 230.358595 368.702197 230.358595 
Q 369.342197 230.358595 369.789697 229.891095 
Q 370.239697 229.421095 370.239697 228.763595 
Q 370.239697 227.388595 368.864697 226.531095 
Q 367.489697 225.671095 365.397197 225.671095 
Q 365.184697 225.671095 364.764697 225.678595 
L 366.662197 220.333595 
z
M 374.224697 228.521095 
Q 374.772197 228.521095 375.149697 228.906095 
Q 375.529697 229.288595 375.529697 229.826095 
Q 375.529697 230.366095 375.147197 230.746095 
Q 374.764697 231.123595 374.224697 231.123595 
Q 373.684697 231.123595 373.304697 230.746095 
Q 372.927197 230.366095 372.927197 229.826095 
Q 372.927197 229.288595 373.304697 228.906095 
Q 373.684697 228.521095 374.224697 228.521095 
z
M 381.677197 224.943595 
Q 382.794697 225.763595 383.227197 226.471095 
Q 383.662197 227.178595 383.662197 228.093595 
Q 383.662197 229.373595 382.697197 230.261095 
Q 381.732197 231.148595 380.077197 231.148595 
Q 378.507197 231.148595 377.647197 230.376095 
Q 376.787197 229.601095 376.787197 228.483595 
Q 376.787197 227.631095 377.282197 226.991095 
Q 377.779697 226.351095 378.934697 225.818595 
Q 377.677197 224.858595 377.322197 224.248595 
Q 376.967197 223.638595 376.967197 222.833595 
Q 376.967197 221.771095 377.869697 220.963595 
Q 378.772197 220.156095 380.342197 220.156095 
Q 381.857197 220.156095 382.672197 220.871095 
Q 383.489697 221.583595 383.489697 222.583595 
Q 383.489697 223.333595 383.047197 223.908595 
Q 382.607197 224.483595 381.677197 224.943595 
z
M 381.084697 224.546095 
Q 381.372197 224.156095 381.512197 223.671095 
Q 381.654697 223.186095 381.654697 222.608595 
Q 381.654697 221.593595 381.217197 221.053595 
Q 380.889697 220.638595 380.309697 220.638595 
Q 379.787197 220.638595 379.419697 221.018595 
Q 379.052197 221.396095 379.052197 221.958595 
Q 379.052197 222.531095 379.462197 223.143595 
Q 379.872197 223.756095 381.084697 224.546095 
z
M 379.522197 226.193595 
Q 379.279697 226.413595 379.177197 226.593595 
Q 379.022197 226.866095 378.897197 227.391095 
Q 378.772197 227.913595 378.772197 228.483595 
Q 378.772197 229.218595 378.959697 229.713595 
Q 379.147197 230.208595 379.494697 230.428595 
Q 379.842197 230.646095 380.209697 230.646095 
Q 380.779697 230.646095 381.169697 230.228595 
Q 381.559697 229.811095 381.559697 229.083595 
Q 381.559697 227.568595 379.522197 226.193595 
z
" style="stroke: #ffffff; stroke-width: 3.8"/>
    <path d="M 359.059697 231.148595 
L 361.944697 222.406095 
L 359.747197 222.406095 
Q 358.459697 222.406095 357.809697 222.741095 
Q 357.357197 222.976095 357.059697 223.623595 
L 356.764697 223.623595 
L 357.529697 220.333595 
L 363.842197 220.333595 
L 360.287197 231.148595 
L 359.059697 231.148595 
z
M 366.662197 220.333595 
L 371.622197 220.333595 
L 370.834697 222.351095 
L 366.662197 222.351095 
L 366.264697 223.406095 
Q 368.959697 223.506095 370.412197 224.748595 
Q 371.607197 225.771095 371.607197 227.296095 
Q 371.607197 228.271095 371.052197 229.206095 
Q 370.497197 230.138595 369.489697 230.643595 
Q 368.482197 231.148595 367.279697 231.148595 
Q 365.982197 231.148595 365.287197 230.663595 
Q 364.802197 230.318595 364.802197 229.881095 
Q 364.802197 229.546095 365.054697 229.288595 
Q 365.309697 229.031095 365.647197 229.031095 
Q 365.952197 229.031095 366.264697 229.156095 
Q 366.577197 229.281095 367.334697 229.811095 
Q 367.809697 230.138595 368.154697 230.263595 
Q 368.397197 230.358595 368.702197 230.358595 
Q 369.342197 230.358595 369.789697 229.891095 
Q 370.239697 229.421095 370.239697 228.763595 
Q 370.239697 227.388595 368.864697 226.531095 
Q 367.489697 225.671095 365.397197 225.671095 
Q 365.184697 225.671095 364.764697 225.678595 
L 366.662197 220.333595 
z
M 374.224697 228.521095 
Q 374.772197 228.521095 375.149697 228.906095 
Q 375.529697 229.288595 375.529697 229.826095 
Q 375.529697 230.366095 375.147197 230.746095 
Q 374.764697 231.123595 374.224697 231.123595 
Q 373.684697 231.123595 373.304697 230.746095 
Q 372.927197 230.366095 372.927197 229.826095 
Q 372.927197 229.288595 373.304697 228.906095 
Q 373.684697 228.521095 374.224697 228.521095 
z
M 381.677197 224.943595 
Q 382.794697 225.763595 383.227197 226.471095 
Q 383.662197 227.178595 383.662197 228.093595 
Q 383.662197 229.373595 382.697197 230.261095 
Q 381.732197 231.148595 380.077197 231.148595 
Q 378.507197 231.148595 377.647197 230.376095 
Q 376.787197 229.601095 376.787197 228.483595 
Q 376.787197 227.631095 377.282197 226.991095 
Q 377.779697 226.351095 378.934697 225.818595 
Q 377.677197 224.858595 377.322197 224.248595 
Q 376.967197 223.638595 376.967197 222.833595 
Q 376.967197 221.771095 377.869697 220.963595 
Q 378.772197 220.156095 380.342197 220.156095 
Q 381.857197 220.156095 382.672197 220.871095 
Q 383.489697 221.583595 383.489697 222.583595 
Q 383.489697 223.333595 383.047197 223.908595 
Q 382.607197 224.483595 381.677197 224.943595 
z
M 381.084697 224.546095 
Q 381.372197 224.156095 381.512197 223.671095 
Q 381.654697 223.186095 381.654697 222.608595 
Q 381.654697 221.593595 381.217197 221.053595 
Q 380.889697 220.638595 380.309697 220.638595 
Q 379.787197 220.638595 379.419697 221.018595 
Q 379.052197 221.396095 379.052197 221.958595 
Q 379.052197 222.531095 379.462197 223.143595 
Q 379.872197 223.756095 381.084697 224.546095 
z
M 379.522197 226.193595 
Q 379.279697 226.413595 379.177197 226.593595 
Q 379.022197 226.866095 378.897197 227.391095 
Q 378.772197 227.913595 378.772197 228.483595 
Q 378.772197 229.218595 378.959697 229.713595 
Q 379.147197 230.208595 379.494697 230.428595 
Q 379.842197 230.646095 380.209697 230.646095 
Q 380.779697 230.646095 381.169697 230.228595 
Q 381.559697 229.811095 381.559697 229.083595 
Q 381.559697 227.568595 379.522197 226.193595 
z
"/>
   </g>
   <g id="text_27">
    <path d="M 361.677197 147.926279 
Q 362.794697 148.746279 363.227197 149.453779 
Q 363.662197 150.161279 363.662197 151.076279 
Q 363.662197 152.356279 362.697197 153.243779 
Q 361.732197 154.131279 360.077197 154.131279 
Q 358.507197 154.131279 357.647197 153.358779 
Q 356.787197 152.583779 356.787197 151.466279 
Q 356.787197 150.613779 357.282197 149.973779 
Q 357.779697 149.333779 358.934697 148.801279 
Q 357.677197 147.841279 357.322197 147.231279 
Q 356.967197 146.621279 356.967197 145.816279 
Q 356.967197 144.753779 357.869697 143.946279 
Q 358.772197 143.138779 360.342197 143.138779 
Q 361.857197 143.138779 362.672197 143.853779 
Q 363.489697 144.566279 363.489697 145.566279 
Q 363.489697 146.316279 363.047197 146.891279 
Q 362.607197 147.466279 361.677197 147.926279 
z
M 361.084697 147.528779 
Q 361.372197 147.138779 361.512197 146.653779 
Q 361.654697 146.168779 361.654697 145.591279 
Q 361.654697 144.576279 361.217197 144.036279 
Q 360.889697 143.621279 360.309697 143.621279 
Q 359.787197 143.621279 359.419697 144.001279 
Q 359.052197 144.378779 359.052197 144.941279 
Q 359.052197 145.513779 359.462197 146.126279 
Q 359.872197 146.738779 361.084697 147.528779 
z
M 359.522197 149.176279 
Q 359.279697 149.396279 359.177197 149.576279 
Q 359.022197 149.848779 358.897197 150.373779 
Q 358.772197 150.896279 358.772197 151.466279 
Q 358.772197 152.201279 358.959697 152.696279 
Q 359.147197 153.191279 359.494697 153.411279 
Q 359.842197 153.628779 360.209697 153.628779 
Q 360.779697 153.628779 361.169697 153.211279 
Q 361.559697 152.793779 361.559697 152.066279 
Q 361.559697 150.551279 359.522197 149.176279 
z
M 364.717197 154.131279 
L 364.717197 153.911279 
Q 366.014697 153.613779 366.917197 153.036279 
Q 367.819697 152.458779 368.344697 151.606279 
Q 368.872197 150.753779 369.084697 149.646279 
Q 368.599697 149.896279 368.259697 149.993779 
Q 367.919697 150.091279 367.544697 150.091279 
Q 366.342197 150.091279 365.539697 149.223779 
Q 364.739697 148.356279 364.739697 146.848779 
Q 364.739697 145.801279 365.172197 144.931279 
Q 365.607197 144.058779 366.412197 143.578779 
Q 367.217197 143.098779 368.084697 143.098779 
Q 369.014697 143.098779 369.842197 143.631279 
Q 370.669697 144.161279 371.162197 145.168779 
Q 371.654697 146.176279 371.654697 147.466279 
Q 371.654697 149.138779 370.852197 150.671279 
Q 370.052197 152.201279 368.467197 153.126279 
Q 366.882197 154.051279 364.717197 154.131279 
z
M 369.202197 148.988779 
Q 369.279697 148.113779 369.279697 147.451279 
Q 369.279697 146.028779 368.952197 144.801279 
Q 368.764697 144.121279 368.397197 143.801279 
Q 368.202197 143.628779 367.889697 143.628779 
Q 367.497197 143.628779 367.279697 143.966279 
Q 366.974697 144.426279 366.974697 145.723779 
Q 366.974697 147.888779 367.489697 148.708779 
Q 367.827197 149.238779 368.397197 149.238779 
Q 368.702197 149.238779 369.202197 148.988779 
z
M 374.224697 151.503779 
Q 374.772197 151.503779 375.149697 151.888779 
Q 375.529697 152.271279 375.529697 152.808779 
Q 375.529697 153.348779 375.147197 153.728779 
Q 374.764697 154.106279 374.224697 154.106279 
Q 373.684697 154.106279 373.304697 153.728779 
Q 372.927197 153.348779 372.927197 152.808779 
Q 372.927197 152.271279 373.304697 151.888779 
Q 373.684697 151.503779 374.224697 151.503779 
z
M 378.662197 143.316279 
L 383.622197 143.316279 
L 382.834697 145.333779 
L 378.662197 145.333779 
L 378.264697 146.388779 
Q 380.959697 146.488779 382.412197 147.731279 
Q 383.607197 148.753779 383.607197 150.278779 
Q 383.607197 151.253779 383.052197 152.188779 
Q 382.497197 153.121279 381.489697 153.626279 
Q 380.482197 154.131279 379.279697 154.131279 
Q 377.982197 154.131279 377.287197 153.646279 
Q 376.802197 153.301279 376.802197 152.863779 
Q 376.802197 152.528779 377.054697 152.271279 
Q 377.309697 152.013779 377.647197 152.013779 
Q 377.952197 152.013779 378.264697 152.138779 
Q 378.577197 152.263779 379.334697 152.793779 
Q 379.809697 153.121279 380.154697 153.246279 
Q 380.397197 153.341279 380.702197 153.341279 
Q 381.342197 153.341279 381.789697 152.873779 
Q 382.239697 152.403779 382.239697 151.746279 
Q 382.239697 150.371279 380.864697 149.513779 
Q 379.489697 148.653779 377.397197 148.653779 
Q 377.184697 148.653779 376.764697 148.661279 
L 378.662197 143.316279 
z
" style="stroke: #ffffff; stroke-width: 3.8"/>
    <path d="M 361.677197 147.926279 
Q 362.794697 148.746279 363.227197 149.453779 
Q 363.662197 150.161279 363.662197 151.076279 
Q 363.662197 152.356279 362.697197 153.243779 
Q 361.732197 154.131279 360.077197 154.131279 
Q 358.507197 154.131279 357.647197 153.358779 
Q 356.787197 152.583779 356.787197 151.466279 
Q 356.787197 150.613779 357.282197 149.973779 
Q 357.779697 149.333779 358.934697 148.801279 
Q 357.677197 147.841279 357.322197 147.231279 
Q 356.967197 146.621279 356.967197 145.816279 
Q 356.967197 144.753779 357.869697 143.946279 
Q 358.772197 143.138779 360.342197 143.138779 
Q 361.857197 143.138779 362.672197 143.853779 
Q 363.489697 144.566279 363.489697 145.566279 
Q 363.489697 146.316279 363.047197 146.891279 
Q 362.607197 147.466279 361.677197 147.926279 
z
M 361.084697 147.528779 
Q 361.372197 147.138779 361.512197 146.653779 
Q 361.654697 146.168779 361.654697 145.591279 
Q 361.654697 144.576279 361.217197 144.036279 
Q 360.889697 143.621279 360.309697 143.621279 
Q 359.787197 143.621279 359.419697 144.001279 
Q 359.052197 144.378779 359.052197 144.941279 
Q 359.052197 145.513779 359.462197 146.126279 
Q 359.872197 146.738779 361.084697 147.528779 
z
M 359.522197 149.176279 
Q 359.279697 149.396279 359.177197 149.576279 
Q 359.022197 149.848779 358.897197 150.373779 
Q 358.772197 150.896279 358.772197 151.466279 
Q 358.772197 152.201279 358.959697 152.696279 
Q 359.147197 153.191279 359.494697 153.411279 
Q 359.842197 153.628779 360.209697 153.628779 
Q 360.779697 153.628779 361.169697 153.211279 
Q 361.559697 152.793779 361.559697 152.066279 
Q 361.559697 150.551279 359.522197 149.176279 
z
M 364.717197 154.131279 
L 364.717197 153.911279 
Q 366.014697 153.613779 366.917197 153.036279 
Q 367.819697 152.458779 368.344697 151.606279 
Q 368.872197 150.753779 369.084697 149.646279 
Q 368.599697 149.896279 368.259697 149.993779 
Q 367.919697 150.091279 367.544697 150.091279 
Q 366.342197 150.091279 365.539697 149.223779 
Q 364.739697 148.356279 364.739697 146.848779 
Q 364.739697 145.801279 365.172197 144.931279 
Q 365.607197 144.058779 366.412197 143.578779 
Q 367.217197 143.098779 368.084697 143.098779 
Q 369.014697 143.098779 369.842197 143.631279 
Q 370.669697 144.161279 371.162197 145.168779 
Q 371.654697 146.176279 371.654697 147.466279 
Q 371.654697 149.138779 370.852197 150.671279 
Q 370.052197 152.201279 368.467197 153.126279 
Q 366.882197 154.051279 364.717197 154.131279 
z
M 369.202197 148.988779 
Q 369.279697 148.113779 369.279697 147.451279 
Q 369.279697 146.028779 368.952197 144.801279 
Q 368.764697 144.121279 368.397197 143.801279 
Q 368.202197 143.628779 367.889697 143.628779 
Q 367.497197 143.628779 367.279697 143.966279 
Q 366.974697 144.426279 366.974697 145.723779 
Q 366.974697 147.888779 367.489697 148.708779 
Q 367.827197 149.238779 368.397197 149.238779 
Q 368.702197 149.238779 369.202197 148.988779 
z
M 374.224697 151.503779 
Q 374.772197 151.503779 375.149697 151.888779 
Q 375.529697 152.271279 375.529697 152.808779 
Q 375.529697 153.348779 375.147197 153.728779 
Q 374.764697 154.106279 374.224697 154.106279 
Q 373.684697 154.106279 373.304697 153.728779 
Q 372.927197 153.348779 372.927197 152.808779 
Q 372.927197 152.271279 373.304697 151.888779 
Q 373.684697 151.503779 374.224697 151.503779 
z
M 378.662197 143.316279 
L 383.622197 143.316279 
L 382.834697 145.333779 
L 378.662197 145.333779 
L 378.264697 146.388779 
Q 380.959697 146.488779 382.412197 147.731279 
Q 383.607197 148.753779 383.607197 150.278779 
Q 383.607197 151.253779 383.052197 152.188779 
Q 382.497197 153.121279 381.489697 153.626279 
Q 380.482197 154.131279 379.279697 154.131279 
Q 377.982197 154.131279 377.287197 153.646279 
Q 376.802197 153.301279 376.802197 152.863779 
Q 376.802197 152.528779 377.054697 152.271279 
Q 377.309697 152.013779 377.647197 152.013779 
Q 377.952197 152.013779 378.264697 152.138779 
Q 378.577197 152.263779 379.334697 152.793779 
Q 379.809697 153.121279 380.154697 153.246279 
Q 380.397197 153.341279 380.702197 153.341279 
Q 381.342197 153.341279 381.789697 152.873779 
Q 382.239697 152.403779 382.239697 151.746279 
Q 382.239697 150.371279 380.864697 149.513779 
Q 379.489697 148.653779 377.397197 148.653779 
Q 377.184697 148.653779 376.764697 148.661279 
L 378.662197 143.316279 
z
"/>
   </g>
   <g id="text_28">
    <path d="M 579.668672 310.763436 
L 579.668672 310.980936 
Q 578.256172 311.340936 577.398672 311.908436 
Q 576.543672 312.473436 576.046172 313.283436 
Q 575.551172 314.090936 575.278672 315.285936 
Q 575.623672 315.053436 575.848672 314.980936 
Q 576.356172 314.825936 576.873672 314.825936 
Q 578.061172 314.825936 578.853672 315.690936 
Q 579.646172 316.553436 579.646172 318.043436 
Q 579.646172 319.090936 579.216172 319.965936 
Q 578.786172 320.840936 577.996172 321.318436 
Q 577.208672 321.795936 576.311172 321.795936 
Q 575.333672 321.795936 574.503672 321.260936 
Q 573.676172 320.723436 573.211172 319.693436 
Q 572.748672 318.660936 572.748672 317.450936 
Q 572.748672 315.668436 573.603672 314.133436 
Q 574.458672 312.598436 576.031172 311.688436 
Q 577.606172 310.778436 579.668672 310.763436 
z
M 575.176172 315.918436 
Q 575.113672 316.998436 575.113672 317.498436 
Q 575.113672 318.575936 575.321172 319.583436 
Q 575.528672 320.590936 575.888672 320.998436 
Q 576.146172 321.285936 576.498672 321.285936 
Q 576.856172 321.285936 577.136172 320.868436 
Q 577.418672 320.450936 577.418672 319.168436 
Q 577.418672 317.013436 576.896172 316.193436 
Q 576.561172 315.660936 575.988672 315.660936 
Q 575.676172 315.660936 575.176172 315.918436 
z
M 585.363672 310.763436 
L 585.363672 319.428436 
Q 585.363672 320.403436 585.448672 320.673436 
Q 585.536172 320.943436 585.808672 321.115936 
Q 586.083672 321.285936 586.686172 321.285936 
L 586.926172 321.285936 
L 586.926172 321.575936 
L 581.348672 321.575936 
L 581.348672 321.285936 
L 581.631172 321.285936 
Q 582.311172 321.285936 582.598672 321.130936 
Q 582.888672 320.973436 582.988672 320.700936 
Q 583.091172 320.428436 583.091172 319.428436 
L 583.091172 313.935936 
Q 583.091172 313.200936 583.021172 313.018436 
Q 582.951172 312.833436 582.758672 312.705936 
Q 582.568672 312.575936 582.318672 312.575936 
Q 581.918672 312.575936 581.348672 312.825936 
L 581.208672 312.543436 
L 585.106172 310.763436 
L 585.363672 310.763436 
z
M 590.153672 319.168436 
Q 590.701172 319.168436 591.078672 319.553436 
Q 591.458672 319.935936 591.458672 320.473436 
Q 591.458672 321.013436 591.076172 321.393436 
Q 590.693672 321.770936 590.153672 321.770936 
Q 589.613672 321.770936 589.233672 321.393436 
Q 588.856172 321.013436 588.856172 320.473436 
Q 588.856172 319.935936 589.233672 319.553436 
Q 589.613672 319.168436 590.153672 319.168436 
z
M 592.551172 317.583436 
L 597.583672 310.763436 
L 598.536172 310.763436 
L 598.536172 317.583436 
L 599.506172 317.583436 
L 599.506172 319.200936 
L 598.536172 319.200936 
L 598.536172 321.575936 
L 596.388672 321.575936 
L 596.388672 319.200936 
L 592.551172 319.200936 
L 592.551172 317.583436 
z
M 593.311172 317.583436 
L 596.388672 317.583436 
L 596.388672 313.403436 
L 593.311172 317.583436 
z
" style="stroke: #ffffff; stroke-width: 3.8"/>
    <path d="M 579.668672 310.763436 
L 579.668672 310.980936 
Q 578.256172 311.340936 577.398672 311.908436 
Q 576.543672 312.473436 576.046172 313.283436 
Q 575.551172 314.090936 575.278672 315.285936 
Q 575.623672 315.053436 575.848672 314.980936 
Q 576.356172 314.825936 576.873672 314.825936 
Q 578.061172 314.825936 578.853672 315.690936 
Q 579.646172 316.553436 579.646172 318.043436 
Q 579.646172 319.090936 579.216172 319.965936 
Q 578.786172 320.840936 577.996172 321.318436 
Q 577.208672 321.795936 576.311172 321.795936 
Q 575.333672 321.795936 574.503672 321.260936 
Q 573.676172 320.723436 573.211172 319.693436 
Q 572.748672 318.660936 572.748672 317.450936 
Q 572.748672 315.668436 573.603672 314.133436 
Q 574.458672 312.598436 576.031172 311.688436 
Q 577.606172 310.778436 579.668672 310.763436 
z
M 575.176172 315.918436 
Q 575.113672 316.998436 575.113672 317.498436 
Q 575.113672 318.575936 575.321172 319.583436 
Q 575.528672 320.590936 575.888672 320.998436 
Q 576.146172 321.285936 576.498672 321.285936 
Q 576.856172 321.285936 577.136172 320.868436 
Q 577.418672 320.450936 577.418672 319.168436 
Q 577.418672 317.013436 576.896172 316.193436 
Q 576.561172 315.660936 575.988672 315.660936 
Q 575.676172 315.660936 575.176172 315.918436 
z
M 585.363672 310.763436 
L 585.363672 319.428436 
Q 585.363672 320.403436 585.448672 320.673436 
Q 585.536172 320.943436 585.808672 321.115936 
Q 586.083672 321.285936 586.686172 321.285936 
L 586.926172 321.285936 
L 586.926172 321.575936 
L 581.348672 321.575936 
L 581.348672 321.285936 
L 581.631172 321.285936 
Q 582.311172 321.285936 582.598672 321.130936 
Q 582.888672 320.973436 582.988672 320.700936 
Q 583.091172 320.428436 583.091172 319.428436 
L 583.091172 313.935936 
Q 583.091172 313.200936 583.021172 313.018436 
Q 582.951172 312.833436 582.758672 312.705936 
Q 582.568672 312.575936 582.318672 312.575936 
Q 581.918672 312.575936 581.348672 312.825936 
L 581.208672 312.543436 
L 585.106172 310.763436 
L 585.363672 310.763436 
z
M 590.153672 319.168436 
Q 590.701172 319.168436 591.078672 319.553436 
Q 591.458672 319.935936 591.458672 320.473436 
Q 591.458672 321.013436 591.076172 321.393436 
Q 590.693672 321.770936 590.153672 321.770936 
Q 589.613672 321.770936 589.233672 321.393436 
Q 588.856172 321.013436 588.856172 320.473436 
Q 588.856172 319.935936 589.233672 319.553436 
Q 589.613672 319.168436 590.153672 319.168436 
z
M 592.551172 317.583436 
L 597.583672 310.763436 
L 598.536172 310.763436 
L 598.536172 317.583436 
L 599.506172 317.583436 
L 599.506172 319.200936 
L 598.536172 319.200936 
L 598.536172 321.575936 
L 596.388672 321.575936 
L 596.388672 319.200936 
L 592.551172 319.200936 
L 592.551172 317.583436 
z
M 593.311172 317.583436 
L 596.388672 317.583436 
L 596.388672 313.403436 
L 593.311172 317.583436 
z
"/>
   </g>
   <g id="text_29">
    <path d="M 586.748336 422.533834 
Q 586.748336 424.022115 586.331148 425.311177 
Q 586.080367 426.101021 585.658492 426.607271 
Q 585.238961 427.111177 584.704586 427.408834 
Q 584.170211 427.70649 583.539742 427.70649 
Q 582.822554 427.70649 582.243648 427.340865 
Q 581.664742 426.972896 581.217086 426.290865 
Q 580.895992 425.79399 580.654586 424.966646 
Q 580.338179 423.846334 580.338179 422.651021 
Q 580.338179 421.033834 580.792867 419.676802 
Q 581.165523 418.55649 581.927242 417.961177 
Q 582.688961 417.363521 583.539742 417.363521 
Q 584.404586 417.363521 585.154586 417.954146 
Q 585.904586 418.542427 586.256148 419.538521 
Q 586.748336 420.907271 586.748336 422.533834 
z
M 584.491304 422.519771 
Q 584.491304 419.911177 584.463179 419.479927 
Q 584.388179 418.46274 584.111617 418.104146 
Q 583.928804 417.869771 583.518648 417.869771 
Q 583.202242 417.869771 583.019429 418.045552 
Q 582.747554 418.301021 582.651461 418.95024 
Q 582.557711 419.597115 582.557711 423.471334 
Q 582.557711 425.580709 582.705367 426.297896 
Q 582.815523 426.818209 583.019429 426.99399 
Q 583.225679 427.169771 583.560836 427.169771 
Q 583.928804 427.169771 584.111617 426.935396 
Q 584.418648 426.52524 584.463179 425.669771 
L 584.491304 422.519771 
z
M 589.171773 425.243209 
Q 589.685054 425.243209 590.038961 425.604146 
Q 590.395211 425.96274 590.395211 426.466646 
Q 590.395211 426.972896 590.036617 427.329146 
Q 589.678023 427.683052 589.171773 427.683052 
Q 588.665523 427.683052 588.309273 427.329146 
Q 587.955367 426.972896 587.955367 426.466646 
Q 587.955367 425.96274 588.309273 425.604146 
Q 588.665523 425.243209 589.171773 425.243209 
z
M 597.998336 422.533834 
Q 597.998336 424.022115 597.581148 425.311177 
Q 597.330367 426.101021 596.908492 426.607271 
Q 596.488961 427.111177 595.954586 427.408834 
Q 595.420211 427.70649 594.789742 427.70649 
Q 594.072554 427.70649 593.493648 427.340865 
Q 592.914742 426.972896 592.467086 426.290865 
Q 592.145992 425.79399 591.904586 424.966646 
Q 591.588179 423.846334 591.588179 422.651021 
Q 591.588179 421.033834 592.042867 419.676802 
Q 592.415523 418.55649 593.177242 417.961177 
Q 593.938961 417.363521 594.789742 417.363521 
Q 595.654586 417.363521 596.404586 417.954146 
Q 597.154586 418.542427 597.506148 419.538521 
Q 597.998336 420.907271 597.998336 422.533834 
z
M 595.741304 422.519771 
Q 595.741304 419.911177 595.713179 419.479927 
Q 595.638179 418.46274 595.361617 418.104146 
Q 595.178804 417.869771 594.768648 417.869771 
Q 594.452242 417.869771 594.269429 418.045552 
Q 593.997554 418.301021 593.901461 418.95024 
Q 593.807711 419.597115 593.807711 423.471334 
Q 593.807711 425.580709 593.955367 426.297896 
Q 594.065523 426.818209 594.269429 426.99399 
Q 594.475679 427.169771 594.810836 427.169771 
Q 595.178804 427.169771 595.361617 426.935396 
Q 595.668648 426.52524 595.713179 425.669771 
L 595.741304 422.519771 
z
" style="fill: #404040; stroke: #ffffff; stroke-width: 3.8"/>
    <path d="M 586.748336 422.533834 
Q 586.748336 424.022115 586.331148 425.311177 
Q 586.080367 426.101021 585.658492 426.607271 
Q 585.238961 427.111177 584.704586 427.408834 
Q 584.170211 427.70649 583.539742 427.70649 
Q 582.822554 427.70649 582.243648 427.340865 
Q 581.664742 426.972896 581.217086 426.290865 
Q 580.895992 425.79399 580.654586 424.966646 
Q 580.338179 423.846334 580.338179 422.651021 
Q 580.338179 421.033834 580.792867 419.676802 
Q 581.165523 418.55649 581.927242 417.961177 
Q 582.688961 417.363521 583.539742 417.363521 
Q 584.404586 417.363521 585.154586 417.954146 
Q 585.904586 418.542427 586.256148 419.538521 
Q 586.748336 420.907271 586.748336 422.533834 
z
M 584.491304 422.519771 
Q 584.491304 419.911177 584.463179 419.479927 
Q 584.388179 418.46274 584.111617 418.104146 
Q 583.928804 417.869771 583.518648 417.869771 
Q 583.202242 417.869771 583.019429 418.045552 
Q 582.747554 418.301021 582.651461 418.95024 
Q 582.557711 419.597115 582.557711 423.471334 
Q 582.557711 425.580709 582.705367 426.297896 
Q 582.815523 426.818209 583.019429 426.99399 
Q 583.225679 427.169771 583.560836 427.169771 
Q 583.928804 427.169771 584.111617 426.935396 
Q 584.418648 426.52524 584.463179 425.669771 
L 584.491304 422.519771 
z
M 589.171773 425.243209 
Q 589.685054 425.243209 590.038961 425.604146 
Q 590.395211 425.96274 590.395211 426.466646 
Q 590.395211 426.972896 590.036617 427.329146 
Q 589.678023 427.683052 589.171773 427.683052 
Q 588.665523 427.683052 588.309273 427.329146 
Q 587.955367 426.972896 587.955367 426.466646 
Q 587.955367 425.96274 588.309273 425.604146 
Q 588.665523 425.243209 589.171773 425.243209 
z
M 597.998336 422.533834 
Q 597.998336 424.022115 597.581148 425.311177 
Q 597.330367 426.101021 596.908492 426.607271 
Q 596.488961 427.111177 595.954586 427.408834 
Q 595.420211 427.70649 594.789742 427.70649 
Q 594.072554 427.70649 593.493648 427.340865 
Q 592.914742 426.972896 592.467086 426.290865 
Q 592.145992 425.79399 591.904586 424.966646 
Q 591.588179 423.846334 591.588179 422.651021 
Q 591.588179 421.033834 592.042867 419.676802 
Q 592.415523 418.55649 593.177242 417.961177 
Q 593.938961 417.363521 594.789742 417.363521 
Q 595.654586 417.363521 596.404586 417.954146 
Q 597.154586 418.542427 597.506148 419.538521 
Q 597.998336 420.907271 597.998336 422.533834 
z
M 595.741304 422.519771 
Q 595.741304 419.911177 595.713179 419.479927 
Q 595.638179 418.46274 595.361617 418.104146 
Q 595.178804 417.869771 594.768648 417.869771 
Q 594.452242 417.869771 594.269429 418.045552 
Q 593.997554 418.301021 593.901461 418.95024 
Q 593.807711 419.597115 593.807711 423.471334 
Q 593.807711 425.580709 593.955367 426.297896 
Q 594.065523 426.818209 594.269429 426.99399 
Q 594.475679 427.169771 594.810836 427.169771 
Q 595.178804 427.169771 595.361617 426.935396 
Q 595.668648 426.52524 595.713179 425.669771 
L 595.741304 422.519771 
z
" style="fill: #404040"/>
   </g>
   <g id="text_30">
    <path d="M 563.123486 398.112324 
L 567.841455 391.718574 
L 568.734424 391.718574 
L 568.734424 398.112324 
L 569.643799 398.112324 
L 569.643799 399.62873 
L 568.734424 399.62873 
L 568.734424 401.855293 
L 566.721143 401.855293 
L 566.721143 399.62873 
L 563.123486 399.62873 
L 563.123486 398.112324 
z
M 563.835986 398.112324 
L 566.721143 398.112324 
L 566.721143 394.193574 
L 563.835986 398.112324 
z
M 572.908643 402.061543 
L 575.61333 393.865449 
L 573.553174 393.865449 
Q 572.346143 393.865449 571.736768 394.179511 
Q 571.312549 394.399824 571.033643 395.006855 
L 570.75708 395.006855 
L 571.474268 391.92248 
L 577.392236 391.92248 
L 574.059424 402.061543 
L 572.908643 402.061543 
z
M 579.62583 399.598261 
Q 580.139111 399.598261 580.493018 399.959199 
Q 580.849268 400.317793 580.849268 400.821699 
Q 580.849268 401.327949 580.490674 401.684199 
Q 580.13208 402.038105 579.62583 402.038105 
Q 579.11958 402.038105 578.76333 401.684199 
Q 578.409424 401.327949 578.409424 400.821699 
Q 578.409424 400.317793 578.76333 399.959199 
Q 579.11958 399.598261 579.62583 399.598261 
z
M 583.720361 396.874824 
L 583.720361 396.619355 
Q 584.554736 396.375605 584.87583 396.167011 
Q 585.199268 395.958418 585.433643 395.531855 
Q 585.668018 395.102949 585.668018 394.662324 
Q 585.668018 394.055293 585.225049 393.619355 
Q 584.78208 393.183418 584.123486 393.183418 
Q 583.096924 393.183418 582.379736 394.26623 
L 582.107861 394.17248 
Q 582.635205 392.949043 583.460205 392.33498 
Q 584.285205 391.718574 585.295361 391.718574 
Q 586.326611 391.718574 586.996924 392.349043 
Q 587.667236 392.977168 587.667236 393.820918 
Q 587.667236 394.369355 587.355518 394.880293 
Q 587.046143 395.388886 586.378174 395.775605 
Q 587.235986 396.192793 587.685986 396.804511 
Q 588.135986 397.41623 588.135986 398.339668 
Q 588.135986 399.89123 587.010986 400.981074 
Q 585.88833 402.068574 583.999268 402.068574 
Q 582.73833 402.068574 582.159424 401.649043 
Q 581.742236 401.356074 581.742236 400.896699 
Q 581.742236 400.559199 581.983643 400.32248 
Q 582.225049 400.083418 582.541455 400.083418 
Q 582.782861 400.083418 582.996143 400.184199 
Q 583.11333 400.242793 583.82583 400.826386 
Q 584.540674 401.407636 585.164111 401.407636 
Q 585.705518 401.407636 586.092236 400.981074 
Q 586.481299 400.552168 586.481299 399.89123 
Q 586.481299 398.888105 585.778174 398.042011 
Q 585.075049 397.195918 583.720361 396.874824 
z
" style="fill: #404040; stroke: #ffffff; stroke-width: 3.8"/>
    <path d="M 563.123486 398.112324 
L 567.841455 391.718574 
L 568.734424 391.718574 
L 568.734424 398.112324 
L 569.643799 398.112324 
L 569.643799 399.62873 
L 568.734424 399.62873 
L 568.734424 401.855293 
L 566.721143 401.855293 
L 566.721143 399.62873 
L 563.123486 399.62873 
L 563.123486 398.112324 
z
M 563.835986 398.112324 
L 566.721143 398.112324 
L 566.721143 394.193574 
L 563.835986 398.112324 
z
M 572.908643 402.061543 
L 575.61333 393.865449 
L 573.553174 393.865449 
Q 572.346143 393.865449 571.736768 394.179511 
Q 571.312549 394.399824 571.033643 395.006855 
L 570.75708 395.006855 
L 571.474268 391.92248 
L 577.392236 391.92248 
L 574.059424 402.061543 
L 572.908643 402.061543 
z
M 579.62583 399.598261 
Q 580.139111 399.598261 580.493018 399.959199 
Q 580.849268 400.317793 580.849268 400.821699 
Q 580.849268 401.327949 580.490674 401.684199 
Q 580.13208 402.038105 579.62583 402.038105 
Q 579.11958 402.038105 578.76333 401.684199 
Q 578.409424 401.327949 578.409424 400.821699 
Q 578.409424 400.317793 578.76333 399.959199 
Q 579.11958 399.598261 579.62583 399.598261 
z
M 583.720361 396.874824 
L 583.720361 396.619355 
Q 584.554736 396.375605 584.87583 396.167011 
Q 585.199268 395.958418 585.433643 395.531855 
Q 585.668018 395.102949 585.668018 394.662324 
Q 585.668018 394.055293 585.225049 393.619355 
Q 584.78208 393.183418 584.123486 393.183418 
Q 583.096924 393.183418 582.379736 394.26623 
L 582.107861 394.17248 
Q 582.635205 392.949043 583.460205 392.33498 
Q 584.285205 391.718574 585.295361 391.718574 
Q 586.326611 391.718574 586.996924 392.349043 
Q 587.667236 392.977168 587.667236 393.820918 
Q 587.667236 394.369355 587.355518 394.880293 
Q 587.046143 395.388886 586.378174 395.775605 
Q 587.235986 396.192793 587.685986 396.804511 
Q 588.135986 397.41623 588.135986 398.339668 
Q 588.135986 399.89123 587.010986 400.981074 
Q 585.88833 402.068574 583.999268 402.068574 
Q 582.73833 402.068574 582.159424 401.649043 
Q 581.742236 401.356074 581.742236 400.896699 
Q 581.742236 400.559199 581.983643 400.32248 
Q 582.225049 400.083418 582.541455 400.083418 
Q 582.782861 400.083418 582.996143 400.184199 
Q 583.11333 400.242793 583.82583 400.826386 
Q 584.540674 401.407636 585.164111 401.407636 
Q 585.705518 401.407636 586.092236 400.981074 
Q 586.481299 400.552168 586.481299 399.89123 
Q 586.481299 398.888105 585.778174 398.042011 
Q 585.075049 397.195918 583.720361 396.874824 
z
" style="fill: #404040"/>
   </g>
   <g id="text_31">
    <path d="M 467.3604 333.020281 
L 472.078369 326.626531 
L 472.971338 326.626531 
L 472.971338 333.020281 
L 473.880713 333.020281 
L 473.880713 334.536687 
L 472.971338 334.536687 
L 472.971338 336.76325 
L 470.958056 336.76325 
L 470.958056 334.536687 
L 467.3604 334.536687 
L 467.3604 333.020281 
z
M 468.0729 333.020281 
L 470.958056 333.020281 
L 470.958056 329.101531 
L 468.0729 333.020281 
z
M 474.8604 333.020281 
L 479.578369 326.626531 
L 480.471338 326.626531 
L 480.471338 333.020281 
L 481.380713 333.020281 
L 481.380713 334.536687 
L 480.471338 334.536687 
L 480.471338 336.76325 
L 478.458056 336.76325 
L 478.458056 334.536687 
L 474.8604 334.536687 
L 474.8604 333.020281 
z
M 475.5729 333.020281 
L 478.458056 333.020281 
L 478.458056 329.101531 
L 475.5729 333.020281 
z
M 483.862744 334.506219 
Q 484.376025 334.506219 484.729931 334.867156 
Q 485.086181 335.22575 485.086181 335.729656 
Q 485.086181 336.235906 484.727588 336.592156 
Q 484.368994 336.946062 483.862744 336.946062 
Q 483.356494 336.946062 483.000244 336.592156 
Q 482.646338 336.235906 482.646338 335.729656 
Q 482.646338 335.22575 483.000244 334.867156 
Q 483.356494 334.506219 483.862744 334.506219 
z
M 488.0229 326.830437 
L 492.6729 326.830437 
L 491.934619 328.721844 
L 488.0229 328.721844 
L 487.650244 329.710906 
Q 490.176806 329.804656 491.538525 330.9695 
Q 492.658838 331.928094 492.658838 333.357781 
Q 492.658838 334.271844 492.138525 335.148406 
Q 491.618213 336.022625 490.673681 336.496062 
Q 489.72915 336.9695 488.601806 336.9695 
Q 487.3854 336.9695 486.733838 336.514812 
Q 486.27915 336.191375 486.27915 335.781219 
Q 486.27915 335.467156 486.515869 335.22575 
Q 486.754931 334.984344 487.071338 334.984344 
Q 487.357275 334.984344 487.650244 335.101531 
Q 487.943213 335.218719 488.653369 335.715594 
Q 489.098681 336.022625 489.422119 336.139812 
Q 489.649463 336.228875 489.9354 336.228875 
Q 490.5354 336.228875 490.954931 335.790594 
Q 491.376806 335.349969 491.376806 334.733562 
Q 491.376806 333.4445 490.087744 332.640594 
Q 488.798681 331.834344 486.836963 331.834344 
Q 486.637744 331.834344 486.243994 331.841375 
L 488.0229 326.830437 
z
" style="fill: #404040; stroke: #ffffff; stroke-width: 3.8"/>
    <path d="M 467.3604 333.020281 
L 472.078369 326.626531 
L 472.971338 326.626531 
L 472.971338 333.020281 
L 473.880713 333.020281 
L 473.880713 334.536687 
L 472.971338 334.536687 
L 472.971338 336.76325 
L 470.958056 336.76325 
L 470.958056 334.536687 
L 467.3604 334.536687 
L 467.3604 333.020281 
z
M 468.0729 333.020281 
L 470.958056 333.020281 
L 470.958056 329.101531 
L 468.0729 333.020281 
z
M 474.8604 333.020281 
L 479.578369 326.626531 
L 480.471338 326.626531 
L 480.471338 333.020281 
L 481.380713 333.020281 
L 481.380713 334.536687 
L 480.471338 334.536687 
L 480.471338 336.76325 
L 478.458056 336.76325 
L 478.458056 334.536687 
L 474.8604 334.536687 
L 474.8604 333.020281 
z
M 475.5729 333.020281 
L 478.458056 333.020281 
L 478.458056 329.101531 
L 475.5729 333.020281 
z
M 483.862744 334.506219 
Q 484.376025 334.506219 484.729931 334.867156 
Q 485.086181 335.22575 485.086181 335.729656 
Q 485.086181 336.235906 484.727588 336.592156 
Q 484.368994 336.946062 483.862744 336.946062 
Q 483.356494 336.946062 483.000244 336.592156 
Q 482.646338 336.235906 482.646338 335.729656 
Q 482.646338 335.22575 483.000244 334.867156 
Q 483.356494 334.506219 483.862744 334.506219 
z
M 488.0229 326.830437 
L 492.6729 326.830437 
L 491.934619 328.721844 
L 488.0229 328.721844 
L 487.650244 329.710906 
Q 490.176806 329.804656 491.538525 330.9695 
Q 492.658838 331.928094 492.658838 333.357781 
Q 492.658838 334.271844 492.138525 335.148406 
Q 491.618213 336.022625 490.673681 336.496062 
Q 489.72915 336.9695 488.601806 336.9695 
Q 487.3854 336.9695 486.733838 336.514812 
Q 486.27915 336.191375 486.27915 335.781219 
Q 486.27915 335.467156 486.515869 335.22575 
Q 486.754931 334.984344 487.071338 334.984344 
Q 487.357275 334.984344 487.650244 335.101531 
Q 487.943213 335.218719 488.653369 335.715594 
Q 489.098681 336.022625 489.422119 336.139812 
Q 489.649463 336.228875 489.9354 336.228875 
Q 490.5354 336.228875 490.954931 335.790594 
Q 491.376806 335.349969 491.376806 334.733562 
Q 491.376806 333.4445 490.087744 332.640594 
Q 488.798681 331.834344 486.836963 331.834344 
Q 486.637744 331.834344 486.243994 331.841375 
L 488.0229 326.830437 
z
" style="fill: #404040"/>
   </g>
   <g id="text_32">
    <path d="M 319.944086 381.802815 
L 324.662054 375.409065 
L 325.555023 375.409065 
L 325.555023 381.802815 
L 326.464398 381.802815 
L 326.464398 383.319221 
L 325.555023 383.319221 
L 325.555023 385.545783 
L 323.541742 385.545783 
L 323.541742 383.319221 
L 319.944086 383.319221 
L 319.944086 381.802815 
z
M 320.656586 381.802815 
L 323.541742 381.802815 
L 323.541742 377.884065 
L 320.656586 381.802815 
z
M 334.116742 375.409065 
L 334.116742 375.612971 
Q 332.792523 375.950471 331.988617 376.482502 
Q 331.187054 377.01219 330.720648 377.771565 
Q 330.256586 378.528596 330.001117 379.648908 
Q 330.324554 379.43094 330.535492 379.362971 
Q 331.011273 379.217658 331.496429 379.217658 
Q 332.609711 379.217658 333.352679 380.028596 
Q 334.095648 380.83719 334.095648 382.234065 
Q 334.095648 383.216096 333.692523 384.036408 
Q 333.289398 384.856721 332.548773 385.304377 
Q 331.810492 385.752033 330.969086 385.752033 
Q 330.052679 385.752033 329.274554 385.250471 
Q 328.498773 384.746565 328.062836 383.78094 
Q 327.629242 382.812971 327.629242 381.678596 
Q 327.629242 380.007502 328.430804 378.56844 
Q 329.232367 377.129377 330.706586 376.276252 
Q 332.183148 375.423127 334.116742 375.409065 
z
M 329.905023 380.241877 
Q 329.846429 381.254377 329.846429 381.723127 
Q 329.846429 382.733283 330.040961 383.677815 
Q 330.235492 384.622346 330.572992 385.004377 
Q 330.814398 385.273908 331.144867 385.273908 
Q 331.480023 385.273908 331.742523 384.882502 
Q 332.007367 384.491096 332.007367 383.288752 
Q 332.007367 381.26844 331.517523 380.49969 
Q 331.203461 380.000471 330.666742 380.000471 
Q 330.373773 380.000471 329.905023 380.241877 
z
M 336.446429 383.288752 
Q 336.959711 383.288752 337.313617 383.64969 
Q 337.669867 384.008283 337.669867 384.51219 
Q 337.669867 385.01844 337.311273 385.37469 
Q 336.952679 385.728596 336.446429 385.728596 
Q 335.940179 385.728596 335.583929 385.37469 
Q 335.230023 385.01844 335.230023 384.51219 
Q 335.230023 384.008283 335.583929 383.64969 
Q 335.940179 383.288752 336.446429 383.288752 
z
M 338.694086 381.802815 
L 343.412054 375.409065 
L 344.305023 375.409065 
L 344.305023 381.802815 
L 345.214398 381.802815 
L 345.214398 383.319221 
L 344.305023 383.319221 
L 344.305023 385.545783 
L 342.291742 385.545783 
L 342.291742 383.319221 
L 338.694086 383.319221 
L 338.694086 381.802815 
z
M 339.406586 381.802815 
L 342.291742 381.802815 
L 342.291742 377.884065 
L 339.406586 381.802815 
z
" style="fill: #404040; stroke: #ffffff; stroke-width: 3.8"/>
    <path d="M 319.944086 381.802815 
L 324.662054 375.409065 
L 325.555023 375.409065 
L 325.555023 381.802815 
L 326.464398 381.802815 
L 326.464398 383.319221 
L 325.555023 383.319221 
L 325.555023 385.545783 
L 323.541742 385.545783 
L 323.541742 383.319221 
L 319.944086 383.319221 
L 319.944086 381.802815 
z
M 320.656586 381.802815 
L 323.541742 381.802815 
L 323.541742 377.884065 
L 320.656586 381.802815 
z
M 334.116742 375.409065 
L 334.116742 375.612971 
Q 332.792523 375.950471 331.988617 376.482502 
Q 331.187054 377.01219 330.720648 377.771565 
Q 330.256586 378.528596 330.001117 379.648908 
Q 330.324554 379.43094 330.535492 379.362971 
Q 331.011273 379.217658 331.496429 379.217658 
Q 332.609711 379.217658 333.352679 380.028596 
Q 334.095648 380.83719 334.095648 382.234065 
Q 334.095648 383.216096 333.692523 384.036408 
Q 333.289398 384.856721 332.548773 385.304377 
Q 331.810492 385.752033 330.969086 385.752033 
Q 330.052679 385.752033 329.274554 385.250471 
Q 328.498773 384.746565 328.062836 383.78094 
Q 327.629242 382.812971 327.629242 381.678596 
Q 327.629242 380.007502 328.430804 378.56844 
Q 329.232367 377.129377 330.706586 376.276252 
Q 332.183148 375.423127 334.116742 375.409065 
z
M 329.905023 380.241877 
Q 329.846429 381.254377 329.846429 381.723127 
Q 329.846429 382.733283 330.040961 383.677815 
Q 330.235492 384.622346 330.572992 385.004377 
Q 330.814398 385.273908 331.144867 385.273908 
Q 331.480023 385.273908 331.742523 384.882502 
Q 332.007367 384.491096 332.007367 383.288752 
Q 332.007367 381.26844 331.517523 380.49969 
Q 331.203461 380.000471 330.666742 380.000471 
Q 330.373773 380.000471 329.905023 380.241877 
z
M 336.446429 383.288752 
Q 336.959711 383.288752 337.313617 383.64969 
Q 337.669867 384.008283 337.669867 384.51219 
Q 337.669867 385.01844 337.311273 385.37469 
Q 336.952679 385.728596 336.446429 385.728596 
Q 335.940179 385.728596 335.583929 385.37469 
Q 335.230023 385.01844 335.230023 384.51219 
Q 335.230023 384.008283 335.583929 383.64969 
Q 335.940179 383.288752 336.446429 383.288752 
z
M 338.694086 381.802815 
L 343.412054 375.409065 
L 344.305023 375.409065 
L 344.305023 381.802815 
L 345.214398 381.802815 
L 345.214398 383.319221 
L 344.305023 383.319221 
L 344.305023 385.545783 
L 342.291742 385.545783 
L 342.291742 383.319221 
L 338.694086 383.319221 
L 338.694086 381.802815 
z
M 339.406586 381.802815 
L 342.291742 381.802815 
L 342.291742 377.884065 
L 339.406586 381.802815 
z
" style="fill: #404040"/>
   </g>
  </g>
 </g>
 <defs>
  <clipPath id="pc4f81da956">
   <rect x="7.2" y="51.034687" width="730.764" height="435.17869"/>
  </clipPath>
 </defs>
</svg>
