<?xml version="1.0" encoding="utf-8" standalone="no"?>
<!DOCTYPE svg PUBLIC "-//W3C//DTD SVG 1.1//EN"
  "http://www.w3.org/Graphics/SVG/1.1/DTD/svg11.dtd">
<svg xmlns:xlink="http://www.w3.org/1999/xlink" width="745.164pt" height="496.240997pt" viewBox="0 0 745.164 496.240997" xmlns="http://www.w3.org/2000/svg" version="1.1">
 <metadata>
  <rdf:RDF xmlns:dc="http://purl.org/dc/elements/1.1/" xmlns:cc="http://creativecommons.org/ns#" xmlns:rdf="http://www.w3.org/1999/02/22-rdf-syntax-ns#">
   <cc:Work>
    <dc:type rdf:resource="http://purl.org/dc/dcmitype/StillImage"/>
    <dc:date>2026-07-13T16:59:02.028873</dc:date>
    <dc:format>image/svg+xml</dc:format>
    <dc:creator>
     <cc:Agent>
      <dc:title>Matplotlib v3.10.8, https://matplotlib.org/</dc:title>
     </cc:Agent>
    </dc:creator>
   </cc:Work>
  </rdf:RDF>
 </metadata>
 <defs>
  <style type="text/css">*{stroke-linejoin: round; stroke-linecap: butt}</style>
 </defs>
 <g id="figure_1">
  <g id="patch_1">
   <path d="M 0 496.240997 
L 745.164 496.240997 
L 745.164 0 
L 0 0 
L 0 496.240997 
z
" style="fill: none"/>
  </g>
  <g id="axes_1">
   <g id="patch_2">
    <path d="M 120.350555 439.356604 
Q 120.350555 459.161261 120.350555 476.927445 
" clip-path="url(#pfc9f9aae0c)" style="fill: none; stroke: #111111; stroke-width: 1.823267; stroke-linejoin: miter; stroke-linecap: round"/>
    <path d="M 123.878 469.872554 
L 120.350555 476.927445 
L 116.823109 469.872554 
z
" clip-path="url(#pfc9f9aae0c)" style="fill: #111111; stroke: #111111; stroke-width: 1.823267; stroke-linejoin: miter; stroke-linecap: round"/>
   </g>
   <g id="patch_3">
    <path d="M 120.350555 328.513286 
Q 120.350555 361.505643 120.350555 391.848886 
" clip-path="url(#pfc9f9aae0c)" style="fill: none; stroke: #111111; stroke-width: 2.369439; stroke-linejoin: miter; stroke-linecap: round"/>
    <path d="M 124.052775 384.444445 
L 120.350555 391.848886 
L 116.648334 384.444445 
z
" clip-path="url(#pfc9f9aae0c)" style="fill: #111111; stroke: #111111; stroke-width: 2.369439; stroke-linejoin: miter; stroke-linecap: round"/>
   </g>
   <g id="patch_4">
    <path d="M 120.350555 164.61183 
Q 120.350555 210.945556 120.350555 254.270505 
" clip-path="url(#pfc9f9aae0c)" style="fill: none; stroke: #111111; stroke-width: 2.691132; stroke-linejoin: miter; stroke-linecap: round"/>
    <path d="M 124.155717 246.660181 
L 120.350555 254.270505 
L 116.545393 246.660181 
z
" clip-path="url(#pfc9f9aae0c)" style="fill: #111111; stroke: #111111; stroke-width: 2.691132; stroke-linejoin: miter; stroke-linecap: round"/>
   </g>
   <g id="patch_5">
    <path d="M 586.153672 191.128361 
Q 586.153672 233.310826 586.153672 273.512334 
" clip-path="url(#pfc9f9aae0c)" style="fill: none; stroke: #111111; stroke-width: 1.771822; stroke-linejoin: miter; stroke-linecap: round"/>
    <path d="M 589.664655 266.490367 
L 586.153672 273.512334 
L 582.642689 266.490367 
z
" clip-path="url(#pfc9f9aae0c)" style="fill: #111111; stroke: #111111; stroke-width: 1.771822; stroke-linejoin: miter; stroke-linecap: round"/>
   </g>
   <g id="line2d_1">
    <path d="M 165.610777 478.965919 
L 550.322663 478.965919 
" clip-path="url(#pfc9f9aae0c)" style="fill: none; stroke-dasharray: 5.6,4.2; stroke-dashoffset: 0; stroke: #404040; stroke-width: 1.4"/>
   </g>
   <g id="line2d_2">
    <path d="M 165.610777 394.498 
L 550.322663 394.498 
" clip-path="url(#pfc9f9aae0c)" style="fill: none; stroke-dasharray: 5.6,4.2; stroke-dashoffset: 0; stroke: #404040; stroke-width: 1.4"/>
   </g>
   <g id="line2d_3">
    <path d="M 574.838617 275.493291 
L 503.176599 275.493291 
" clip-path="url(#pfc9f9aae0c)" style="fill: none; stroke-dasharray: 5.6,4.2; stroke-dashoffset: 0; stroke: #404040; stroke-width: 1.4"/>
   </g>
   <g id="patch_6">
    <path d="M 665.359061 275.493291 
Q 591.536624 374.821875 518.335825 473.31404 
" clip-path="url(#pfc9f9aae0c)" style="fill: none; stroke: #404040; stroke-width: 0.932107; stroke-linejoin: miter; stroke-linecap: round"/>
    <path d="M 524.011451 470.445249 
L 518.335825 473.31404 
L 519.446167 467.052265 
z
" clip-path="url(#pfc9f9aae0c)" style="fill: #404040; stroke: #404040; stroke-width: 0.932107; stroke-linejoin: miter; stroke-linecap: round"/>
   </g>
   <g id="patch_7">
    <path d="M 620.098839 275.493291 
Q 577.664023 332.589621 536.431399 388.068391 
" clip-path="url(#pfc9f9aae0c)" style="fill: none; stroke: #404040; stroke-width: 1.802612; stroke-linejoin: miter; stroke-linecap: round"/>
    <path d="M 542.686093 384.906906 
L 536.431399 388.068391 
L 537.655027 381.167746 
z
" clip-path="url(#pfc9f9aae0c)" style="fill: #404040; stroke: #404040; stroke-width: 1.802612; stroke-linejoin: miter; stroke-linecap: round"/>
   </g>
   <g id="patch_8">
    <path d="M 415.484919 248.41289 
Q 477.176012 261.337815 533.395728 273.116429 
" clip-path="url(#pfc9f9aae0c)" style="fill: none; stroke: #404040; stroke-width: 5; stroke-linejoin: miter; stroke-linecap: round"/>
    <path d="M 526.035474 267.283191 
L 533.395728 273.116429 
L 524.312985 275.504689 
z
" clip-path="url(#pfc9f9aae0c)" style="fill: #404040; stroke: #404040; stroke-width: 5; stroke-linejoin: miter; stroke-linecap: round"/>
   </g>
   <g id="patch_9">
    <path d="M 370.224697 248.41289 
Q 334.067892 318.786119 298.323416 388.356821 
" clip-path="url(#pfc9f9aae0c)" style="fill: none; stroke: #404040; stroke-width: 0.807002; stroke-linejoin: miter; stroke-linecap: round"/>
    <path d="M 303.377318 384.652303 
L 298.323416 388.356821 
L 298.392143 382.090989 
z
" clip-path="url(#pfc9f9aae0c)" style="fill: #404040; stroke: #404040; stroke-width: 0.807002; stroke-linejoin: miter; stroke-linecap: round"/>
   </g>
   <g id="line2d_4">
    <path d="M 120.350555 394.498 
L 120.350555 434.107314 
" clip-path="url(#pfc9f9aae0c)" style="fill: none; stroke: #111111; stroke-width: 1.823267"/>
   </g>
   <g id="line2d_5">
    <path d="M 120.350555 257.279283 
L 120.350555 323.263996 
" clip-path="url(#pfc9f9aae0c)" style="fill: none; stroke: #111111; stroke-width: 2.369439"/>
   </g>
   <g id="line2d_6">
    <path d="M 120.350555 66.695088 
L 120.350555 159.36254 
" clip-path="url(#pfc9f9aae0c)" style="fill: none; stroke: #111111; stroke-width: 2.691132"/>
   </g>
   <g id="line2d_7">
    <path d="M 586.153672 101.51414 
L 586.153672 185.879071 
" clip-path="url(#pfc9f9aae0c)" style="fill: none; stroke: #111111; stroke-width: 1.771822"/>
   </g>
   <g id="line2d_8">
    <path d="M 75.090333 478.965919 
L 165.610777 478.965919 
" clip-path="url(#pfc9f9aae0c)" style="fill: none; stroke: #111111; stroke-width: 3.6; stroke-linecap: round"/>
   </g>
   <g id="line2d_9">
    <path d="M 75.090333 394.498 
L 165.610777 394.498 
" clip-path="url(#pfc9f9aae0c)" style="fill: none; stroke: #111111; stroke-width: 3.6; stroke-linecap: round"/>
   </g>
   <g id="line2d_10">
    <path d="M 75.090333 257.279283 
L 165.610777 257.279283 
" clip-path="url(#pfc9f9aae0c)" style="fill: none; stroke: #111111; stroke-width: 3.6; stroke-linecap: round"/>
   </g>
   <g id="line2d_11">
    <path d="M 75.090333 66.695088 
L 165.610777 66.695088 
" clip-path="url(#pfc9f9aae0c)" style="fill: none; stroke: #111111; stroke-width: 3.6; stroke-linecap: round"/>
   </g>
   <g id="line2d_12">
    <path d="M 324.964475 248.41289 
L 415.484919 248.41289 
" clip-path="url(#pfc9f9aae0c)" style="fill: none; stroke: #111111; stroke-width: 3.6; stroke-linecap: round"/>
   </g>
   <g id="line2d_13">
    <path d="M 574.838617 275.493291 
L 665.359061 275.493291 
" clip-path="url(#pfc9f9aae0c)" style="fill: none; stroke: #111111; stroke-width: 3.6; stroke-linecap: round"/>
   </g>
   <g id="line2d_14">
    <path d="M 574.838617 101.51414 
L 665.359061 101.51414 
" clip-path="url(#pfc9f9aae0c)" style="fill: none; stroke: #111111; stroke-width: 3.6; stroke-linecap: round"/>
   </g>
   <g id="text_1">
    <!-- $^{42}\mathrm{Si}$ -->
    <g transform="translate(341.132 33.034687) scale(0.34 -0.34)">
     <defs>
      <path id="DejaVuSans-34" d="M 2419 4116 
L 825 1625 
L 2419 1625 
L 2419 4116 
z
M 2253 4666 
L 3047 4666 
L 3047 1625 
L 3713 1625 
L 3713 1100 
L 3047 1100 
L 3047 0 
L 2419 0 
L 2419 1100 
L 313 1100 
L 313 1709 
L 2253 4666 
z
" transform="scale(0.015625)"/>
      <path id="DejaVuSans-32" d="M 1228 531 
L 3431 531 
L 3431 0 
L 469 0 
L 469 531 
Q 828 903 1448 1529 
Q 2069 2156 2228 2338 
Q 2531 2678 2651 2914 
Q 2772 3150 2772 3378 
Q 2772 3750 2511 3984 
Q 2250 4219 1831 4219 
Q 1534 4219 1204 4116 
Q 875 4013 500 3803 
L 500 4441 
Q 881 4594 1212 4672 
Q 1544 4750 1819 4750 
Q 2544 4750 2975 4387 
Q 3406 4025 3406 3419 
Q 3406 3131 3298 2873 
Q 3191 2616 2906 2266 
Q 2828 2175 2409 1742 
Q 1991 1309 1228 531 
z
" transform="scale(0.015625)"/>
      <path id="DejaVuSans-53" d="M 3425 4513 
L 3425 3897 
Q 3066 4069 2747 4153 
Q 2428 4238 2131 4238 
Q 1616 4238 1336 4038 
Q 1056 3838 1056 3469 
Q 1056 3159 1242 3001 
Q 1428 2844 1947 2747 
L 2328 2669 
Q 3034 2534 3370 2195 
Q 3706 1856 3706 1288 
Q 3706 609 3251 259 
Q 2797 -91 1919 -91 
Q 1588 -91 1214 -16 
Q 841 59 441 206 
L 441 856 
Q 825 641 1194 531 
Q 1563 422 1919 422 
Q 2459 422 2753 634 
Q 3047 847 3047 1241 
Q 3047 1584 2836 1778 
Q 2625 1972 2144 2069 
L 1759 2144 
Q 1053 2284 737 2584 
Q 422 2884 422 3419 
Q 422 4038 858 4394 
Q 1294 4750 2059 4750 
Q 2388 4750 2728 4690 
Q 3069 4631 3425 4513 
z
" transform="scale(0.015625)"/>
      <path id="DejaVuSans-69" d="M 603 3500 
L 1178 3500 
L 1178 0 
L 603 0 
L 603 3500 
z
M 603 4863 
L 1178 4863 
L 1178 4134 
L 603 4134 
L 603 4863 
z
" transform="scale(0.015625)"/>
     </defs>
     <use xlink:href="#DejaVuSans-34" transform="translate(0.957031 39.046875) scale(0.7)"/>
     <use xlink:href="#DejaVuSans-32" transform="translate(45.493164 39.046875) scale(0.7)"/>
     <use xlink:href="#DejaVuSans-53" transform="translate(92.763672 0.765625)"/>
     <use xlink:href="#DejaVuSans-69" transform="translate(156.240234 0.765625)"/>
    </g>
   </g>
   <g id="text_2">
    <!-- 0 -->
    <g transform="translate(46.98525 483.380919) scale(0.16 -0.16)">
     <defs>
      <path id="DejaVuSans-BoldOblique-30" d="M 1913 728 
Q 2153 728 2339 872 
Q 2525 1016 2650 1294 
Q 2738 1491 2809 1742 
Q 2881 1994 2944 2338 
Q 2997 2616 3025 2850 
Q 3053 3084 3053 3250 
Q 3053 3600 2928 3764 
Q 2803 3928 2541 3928 
Q 2297 3928 2112 3789 
Q 1928 3650 1806 3366 
Q 1713 3163 1636 2903 
Q 1559 2644 1503 2338 
Q 1450 2056 1422 1815 
Q 1394 1575 1394 1409 
Q 1394 1063 1522 895 
Q 1650 728 1913 728 
z
M 4225 3072 
Q 4225 2450 4053 1862 
Q 3881 1275 3572 831 
Q 3256 375 2809 142 
Q 2363 -91 1813 -91 
Q 1047 -91 639 343 
Q 231 778 231 1594 
Q 231 2206 401 2795 
Q 572 3384 878 3822 
Q 1200 4281 1644 4515 
Q 2088 4750 2644 4750 
Q 3403 4750 3814 4314 
Q 4225 3878 4225 3072 
z
" transform="scale(0.015625)"/>
     </defs>
     <use xlink:href="#DejaVuSans-BoldOblique-30"/>
    </g>
   </g>
   <g id="text_3">
    <!-- 0⁺ -->
    <g transform="translate(182.58336 484.121153) scale(0.23 -0.23)">
     <defs>
      <path id="TimesNewRomanPS-BoldMT-30" d="M 2966 2119 
Q 2966 1484 2788 934 
Q 2681 597 2501 381 
Q 2322 166 2094 39 
Q 1866 -88 1597 -88 
Q 1291 -88 1044 68 
Q 797 225 606 516 
Q 469 728 366 1081 
Q 231 1559 231 2069 
Q 231 2759 425 3338 
Q 584 3816 909 4070 
Q 1234 4325 1597 4325 
Q 1966 4325 2286 4073 
Q 2606 3822 2756 3397 
Q 2966 2813 2966 2119 
z
M 2003 2125 
Q 2003 3238 1991 3422 
Q 1959 3856 1841 4009 
Q 1763 4109 1588 4109 
Q 1453 4109 1375 4034 
Q 1259 3925 1218 3648 
Q 1178 3372 1178 1719 
Q 1178 819 1241 513 
Q 1288 291 1375 216 
Q 1463 141 1606 141 
Q 1763 141 1841 241 
Q 1972 416 1991 781 
L 2003 2125 
z
" transform="scale(0.015625)"/>
      <path id="DejaVuSerif-Bold-207a" d="M 1916 4344 
L 1916 3441 
L 2950 3441 
L 2950 3044 
L 1916 3044 
L 1916 2141 
L 1463 2141 
L 1463 3044 
L 428 3044 
L 428 3441 
L 1463 3441 
L 1463 4344 
L 1916 4344 
z
" transform="scale(0.015625)"/>
     </defs>
     <use xlink:href="#TimesNewRomanPS-BoldMT-30"/>
     <use xlink:href="#DejaVuSerif-Bold-207a" transform="translate(50 0)"/>
    </g>
   </g>
   <g id="text_4">
    <!-- 1480 -->
    <g transform="translate(13.58775 398.913) scale(0.16 -0.16)">
     <defs>
      <path id="DejaVuSans-BoldOblique-31" d="M 441 831 
L 1503 831 
L 2088 3847 
L 953 3622 
L 1113 4441 
L 2241 4666 
L 3384 4666 
L 2644 831 
L 3700 831 
L 3541 0 
L 275 0 
L 441 831 
z
" transform="scale(0.015625)"/>
      <path id="DejaVuSans-BoldOblique-34" d="M 2638 3641 
L 978 1722 
L 2259 1722 
L 2638 3641 
z
M 2606 4666 
L 3975 4666 
L 3397 1722 
L 4063 1722 
L 3897 850 
L 3231 850 
L 3066 0 
L 1925 0 
L 2094 850 
L -6 850 
L 197 1881 
L 2606 4666 
z
" transform="scale(0.015625)"/>
      <path id="DejaVuSans-BoldOblique-38" d="M 2150 2088 
Q 1784 2088 1539 1839 
Q 1294 1591 1294 1228 
Q 1294 969 1453 817 
Q 1613 666 1888 666 
Q 2259 666 2503 911 
Q 2747 1156 2747 1522 
Q 2747 1781 2586 1934 
Q 2425 2088 2150 2088 
z
M 1381 2484 
Q 1044 2625 876 2850 
Q 709 3075 709 3391 
Q 709 4025 1229 4387 
Q 1750 4750 2669 4750 
Q 3406 4750 3812 4475 
Q 4219 4200 4219 3700 
Q 4219 3256 3936 2940 
Q 3653 2625 3128 2484 
Q 3509 2338 3690 2091 
Q 3872 1844 3872 1466 
Q 3872 747 3311 328 
Q 2750 -91 1772 -91 
Q 1000 -91 570 217 
Q 141 525 141 1075 
Q 141 1572 470 1945 
Q 800 2319 1381 2484 
z
M 2559 3994 
Q 2241 3994 2048 3808 
Q 1856 3622 1856 3316 
Q 1856 3103 1995 2972 
Q 2134 2841 2363 2841 
Q 2681 2841 2873 3027 
Q 3066 3213 3066 3519 
Q 3066 3734 2927 3864 
Q 2788 3994 2559 3994 
z
" transform="scale(0.015625)"/>
     </defs>
     <use xlink:href="#DejaVuSans-BoldOblique-31"/>
     <use xlink:href="#DejaVuSans-BoldOblique-34" transform="translate(69.580078 0)"/>
     <use xlink:href="#DejaVuSans-BoldOblique-38" transform="translate(139.160156 0)"/>
     <use xlink:href="#DejaVuSans-BoldOblique-30" transform="translate(208.740234 0)"/>
    </g>
   </g>
   <g id="text_5">
    <!-- 2⁺ -->
    <g transform="translate(182.58336 399.653234) scale(0.23 -0.23)">
     <defs>
      <path id="TimesNewRomanPS-BoldMT-32" d="M 2650 0 
L 156 0 
L 156 69 
Q 1303 1434 1548 1906 
Q 1794 2378 1794 2828 
Q 1794 3156 1591 3373 
Q 1388 3591 1094 3591 
Q 613 3591 347 3109 
L 231 3150 
Q 400 3750 744 4037 
Q 1088 4325 1538 4325 
Q 1859 4325 2125 4175 
Q 2391 4025 2541 3764 
Q 2691 3503 2691 3275 
Q 2691 2859 2459 2431 
Q 2144 1853 1081 819 
L 1997 819 
Q 2334 819 2436 847 
Q 2538 875 2603 942 
Q 2669 1009 2775 1225 
L 2888 1225 
L 2650 0 
z
" transform="scale(0.015625)"/>
     </defs>
     <use xlink:href="#TimesNewRomanPS-BoldMT-32"/>
     <use xlink:href="#DejaVuSerif-Bold-207a" transform="translate(50 0)"/>
    </g>
   </g>
   <g id="text_6">
    <!-- 3885 -->
    <g transform="translate(13.58775 261.694283) scale(0.16 -0.16)">
     <defs>
      <path id="DejaVuSans-BoldOblique-33" d="M 3022 2516 
Q 3375 2434 3572 2187 
Q 3769 1941 3769 1581 
Q 3769 806 3155 357 
Q 2541 -91 1466 -91 
Q 1059 -91 692 -33 
Q 325 25 0 141 
L 178 1069 
Q 456 906 784 817 
Q 1113 728 1441 728 
Q 1969 728 2276 926 
Q 2584 1125 2584 1459 
Q 2584 1738 2350 1877 
Q 2116 2016 1644 2016 
L 1166 2016 
L 1319 2791 
L 1825 2791 
Q 2316 2791 2602 2969 
Q 2888 3147 2888 3450 
Q 2888 3688 2689 3813 
Q 2491 3938 2113 3938 
Q 1847 3938 1534 3869 
Q 1222 3800 884 3669 
L 1056 4550 
Q 1425 4650 1783 4700 
Q 2141 4750 2491 4750 
Q 3281 4750 3679 4487 
Q 4078 4225 4078 3706 
Q 4078 3241 3801 2930 
Q 3525 2619 3022 2516 
z
" transform="scale(0.015625)"/>
      <path id="DejaVuSans-BoldOblique-35" d="M 1131 4666 
L 4122 4666 
L 3950 3781 
L 1919 3781 
L 1778 3059 
Q 1916 3097 2064 3117 
Q 2213 3138 2363 3138 
Q 3078 3138 3481 2811 
Q 3884 2484 3884 1906 
Q 3884 988 3262 448 
Q 2641 -91 1575 -91 
Q 1184 -91 815 -14 
Q 447 63 84 219 
L 269 1166 
Q 616 941 942 834 
Q 1269 728 1606 728 
Q 2100 728 2397 986 
Q 2694 1244 2694 1663 
Q 2694 1963 2469 2139 
Q 2244 2316 1856 2316 
Q 1594 2316 1289 2248 
Q 984 2181 622 2041 
L 1131 4666 
z
" transform="scale(0.015625)"/>
     </defs>
     <use xlink:href="#DejaVuSans-BoldOblique-33"/>
     <use xlink:href="#DejaVuSans-BoldOblique-38" transform="translate(69.580078 0)"/>
     <use xlink:href="#DejaVuSans-BoldOblique-38" transform="translate(139.160156 0)"/>
     <use xlink:href="#DejaVuSans-BoldOblique-35" transform="translate(208.740234 0)"/>
    </g>
   </g>
   <g id="text_7">
    <!-- 4⁺ -->
    <g transform="translate(182.58336 262.434517) scale(0.23 -0.23)">
     <defs>
      <path id="TimesNewRomanPS-BoldMT-34" d="M 159 1597 
L 2172 4325 
L 2553 4325 
L 2553 1597 
L 2941 1597 
L 2941 950 
L 2553 950 
L 2553 0 
L 1694 0 
L 1694 950 
L 159 950 
L 159 1597 
z
M 463 1597 
L 1694 1597 
L 1694 3269 
L 463 1597 
z
" transform="scale(0.015625)"/>
     </defs>
     <use xlink:href="#TimesNewRomanPS-BoldMT-34"/>
     <use xlink:href="#DejaVuSerif-Bold-207a" transform="translate(50 0)"/>
    </g>
   </g>
   <g id="text_8">
    <!-- 7226 -->
    <g transform="translate(13.58775 71.110088) scale(0.16 -0.16)">
     <defs>
      <path id="DejaVuSans-BoldOblique-37" d="M 922 4666 
L 4441 4666 
L 4300 3981 
L 1703 0 
L 500 0 
L 2969 3781 
L 756 3781 
L 922 4666 
z
" transform="scale(0.015625)"/>
      <path id="DejaVuSans-BoldOblique-32" d="M 1581 884 
L 3609 884 
L 3438 0 
L 50 0 
L 225 891 
L 2209 2388 
Q 2534 2638 2704 2894 
Q 2875 3150 2875 3391 
Q 2875 3647 2700 3787 
Q 2525 3928 2209 3928 
Q 1913 3928 1547 3811 
Q 1181 3694 722 3450 
L 922 4441 
Q 1347 4597 1756 4673 
Q 2166 4750 2566 4750 
Q 3278 4750 3687 4442 
Q 4097 4134 4097 3603 
Q 4097 3147 3847 2772 
Q 3597 2397 2747 1759 
L 1581 884 
z
" transform="scale(0.015625)"/>
      <path id="DejaVuSans-BoldOblique-36" d="M 2316 2303 
Q 1959 2303 1731 2009 
Q 1503 1716 1503 1253 
Q 1503 975 1643 820 
Q 1784 666 2034 666 
Q 2388 666 2617 955 
Q 2847 1244 2847 1684 
Q 2847 1984 2709 2143 
Q 2572 2303 2316 2303 
z
M 4225 4544 
L 4056 3681 
Q 3788 3819 3534 3887 
Q 3281 3956 3028 3956 
Q 2447 3956 2087 3643 
Q 1728 3331 1650 2766 
Q 1894 2925 2151 3001 
Q 2409 3078 2700 3078 
Q 3275 3078 3640 2737 
Q 4006 2397 4006 1869 
Q 4006 1006 3442 454 
Q 2878 -97 1991 -97 
Q 1194 -97 756 354 
Q 319 806 319 1631 
Q 319 2269 512 2848 
Q 706 3428 1056 3847 
Q 1431 4294 1942 4519 
Q 2453 4744 3091 4744 
Q 3384 4744 3662 4694 
Q 3941 4644 4225 4544 
z
" transform="scale(0.015625)"/>
     </defs>
     <use xlink:href="#DejaVuSans-BoldOblique-37"/>
     <use xlink:href="#DejaVuSans-BoldOblique-32" transform="translate(69.580078 0)"/>
     <use xlink:href="#DejaVuSans-BoldOblique-32" transform="translate(139.160156 0)"/>
     <use xlink:href="#DejaVuSans-BoldOblique-36" transform="translate(208.740234 0)"/>
    </g>
   </g>
   <g id="text_9">
    <!-- 6⁺ -->
    <g transform="translate(182.58336 71.850322) scale(0.23 -0.23)">
     <defs>
      <path id="TimesNewRomanPS-BoldMT-36" d="M 3006 4325 
L 3006 4238 
Q 2441 4094 2098 3867 
Q 1756 3641 1557 3317 
Q 1359 2994 1250 2516 
Q 1388 2609 1478 2638 
Q 1681 2700 1888 2700 
Q 2363 2700 2680 2354 
Q 2997 2009 2997 1413 
Q 2997 994 2825 644 
Q 2653 294 2337 103 
Q 2022 -88 1663 -88 
Q 1272 -88 940 126 
Q 609 341 423 753 
Q 238 1166 238 1650 
Q 238 2363 580 2977 
Q 922 3591 1551 3955 
Q 2181 4319 3006 4325 
z
M 1209 2263 
Q 1184 1831 1184 1631 
Q 1184 1200 1267 797 
Q 1350 394 1494 231 
Q 1597 116 1738 116 
Q 1881 116 1993 283 
Q 2106 450 2106 963 
Q 2106 1825 1897 2153 
Q 1763 2366 1534 2366 
Q 1409 2366 1209 2263 
z
" transform="scale(0.015625)"/>
     </defs>
     <use xlink:href="#TimesNewRomanPS-BoldMT-36"/>
     <use xlink:href="#DejaVuSerif-Bold-207a" transform="translate(50 0)"/>
    </g>
   </g>
   <g id="text_10">
    <!-- 4041 -->
    <g transform="translate(263.461892 252.82789) scale(0.16 -0.16)">
     <use xlink:href="#DejaVuSans-BoldOblique-34"/>
     <use xlink:href="#DejaVuSans-BoldOblique-30" transform="translate(69.580078 0)"/>
     <use xlink:href="#DejaVuSans-BoldOblique-34" transform="translate(139.160156 0)"/>
     <use xlink:href="#DejaVuSans-BoldOblique-31" transform="translate(208.740234 0)"/>
    </g>
   </g>
   <g id="text_11">
    <!-- 0⁺ -->
    <g transform="translate(432.457502 253.568124) scale(0.23 -0.23)">
     <use xlink:href="#TimesNewRomanPS-BoldMT-30"/>
     <use xlink:href="#DejaVuSerif-Bold-207a" transform="translate(50 0)"/>
    </g>
   </g>
   <g id="text_12">
    <!-- 3566 -->
    <g transform="translate(513.336034 279.908291) scale(0.16 -0.16)">
     <use xlink:href="#DejaVuSans-BoldOblique-33"/>
     <use xlink:href="#DejaVuSans-BoldOblique-35" transform="translate(69.580078 0)"/>
     <use xlink:href="#DejaVuSans-BoldOblique-36" transform="translate(139.160156 0)"/>
     <use xlink:href="#DejaVuSans-BoldOblique-36" transform="translate(208.740234 0)"/>
    </g>
   </g>
   <g id="text_13">
    <!-- 2⁺ -->
    <g transform="translate(682.331644 280.648525) scale(0.23 -0.23)">
     <use xlink:href="#TimesNewRomanPS-BoldMT-32"/>
     <use xlink:href="#DejaVuSerif-Bold-207a" transform="translate(50 0)"/>
    </g>
   </g>
   <g id="text_14">
    <!-- 6615 -->
    <g transform="translate(513.336034 105.92914) scale(0.16 -0.16)">
     <use xlink:href="#DejaVuSans-BoldOblique-36"/>
     <use xlink:href="#DejaVuSans-BoldOblique-36" transform="translate(69.580078 0)"/>
     <use xlink:href="#DejaVuSans-BoldOblique-31" transform="translate(139.160156 0)"/>
     <use xlink:href="#DejaVuSans-BoldOblique-35" transform="translate(208.740234 0)"/>
    </g>
   </g>
   <g id="text_15">
    <!-- 3⁺ -->
    <g transform="translate(682.331644 106.669375) scale(0.23 -0.23)">
     <defs>
      <path id="TimesNewRomanPS-BoldMT-33" d="M 947 2125 
L 947 2234 
Q 1303 2338 1440 2427 
Q 1578 2516 1678 2698 
Q 1778 2881 1778 3069 
Q 1778 3328 1589 3514 
Q 1400 3700 1119 3700 
Q 681 3700 375 3238 
L 259 3278 
Q 484 3800 836 4062 
Q 1188 4325 1619 4325 
Q 2059 4325 2345 4056 
Q 2631 3788 2631 3428 
Q 2631 3194 2498 2976 
Q 2366 2759 2081 2594 
Q 2447 2416 2639 2155 
Q 2831 1894 2831 1500 
Q 2831 838 2351 373 
Q 1872 -91 1066 -91 
Q 528 -91 281 88 
Q 103 213 103 409 
Q 103 553 206 654 
Q 309 756 444 756 
Q 547 756 638 713 
Q 688 688 992 439 
Q 1297 191 1563 191 
Q 1794 191 1959 373 
Q 2125 556 2125 838 
Q 2125 1266 1825 1627 
Q 1525 1988 947 2125 
z
" transform="scale(0.015625)"/>
     </defs>
     <use xlink:href="#TimesNewRomanPS-BoldMT-33"/>
     <use xlink:href="#DejaVuSerif-Bold-207a" transform="translate(50 0)"/>
    </g>
   </g>
   <g id="text_16">
    <path d="M 112.788055 429.723209 
L 117.748055 429.723209 
L 116.960555 431.740709 
L 112.788055 431.740709 
L 112.390555 432.795709 
Q 115.085555 432.895709 116.538055 434.138209 
Q 117.733055 435.160709 117.733055 436.685709 
Q 117.733055 437.660709 117.178055 438.595709 
Q 116.623055 439.528209 115.615555 440.033209 
Q 114.608055 440.538209 113.405555 440.538209 
Q 112.108055 440.538209 111.413055 440.053209 
Q 110.928055 439.708209 110.928055 439.270709 
Q 110.928055 438.935709 111.180555 438.678209 
Q 111.435555 438.420709 111.773055 438.420709 
Q 112.078055 438.420709 112.390555 438.545709 
Q 112.703055 438.670709 113.460555 439.200709 
Q 113.935555 439.528209 114.280555 439.653209 
Q 114.523055 439.748209 114.828055 439.748209 
Q 115.468055 439.748209 115.915555 439.280709 
Q 116.365555 438.810709 116.365555 438.153209 
Q 116.365555 436.778209 114.990555 435.920709 
Q 113.615555 435.060709 111.523055 435.060709 
Q 111.310555 435.060709 110.890555 435.068209 
L 112.788055 429.723209 
z
M 120.350555 437.910709 
Q 120.898055 437.910709 121.275555 438.295709 
Q 121.655555 438.678209 121.655555 439.215709 
Q 121.655555 439.755709 121.273055 440.135709 
Q 120.890555 440.513209 120.350555 440.513209 
Q 119.810555 440.513209 119.430555 440.135709 
Q 119.053055 439.755709 119.053055 439.215709 
Q 119.053055 438.678209 119.430555 438.295709 
Q 119.810555 437.910709 120.350555 437.910709 
z
M 122.843055 440.538209 
L 122.843055 440.318209 
Q 124.140555 440.020709 125.043055 439.443209 
Q 125.945555 438.865709 126.470555 438.013209 
Q 126.998055 437.160709 127.210555 436.053209 
Q 126.725555 436.303209 126.385555 436.400709 
Q 126.045555 436.498209 125.670555 436.498209 
Q 124.468055 436.498209 123.665555 435.630709 
Q 122.865555 434.763209 122.865555 433.255709 
Q 122.865555 432.208209 123.298055 431.338209 
Q 123.733055 430.465709 124.538055 429.985709 
Q 125.343055 429.505709 126.210555 429.505709 
Q 127.140555 429.505709 127.968055 430.038209 
Q 128.795555 430.568209 129.288055 431.575709 
Q 129.780555 432.583209 129.780555 433.873209 
Q 129.780555 435.545709 128.978055 437.078209 
Q 128.178055 438.608209 126.593055 439.533209 
Q 125.008055 440.458209 122.843055 440.538209 
z
M 127.328055 435.395709 
Q 127.405555 434.520709 127.405555 433.858209 
Q 127.405555 432.435709 127.078055 431.208209 
Q 126.890555 430.528209 126.523055 430.208209 
Q 126.328055 430.035709 126.015555 430.035709 
Q 125.623055 430.035709 125.405555 430.373209 
Q 125.100555 430.833209 125.100555 432.130709 
Q 125.100555 434.295709 125.615555 435.115709 
Q 125.953055 435.645709 126.523055 435.645709 
Q 126.828055 435.645709 127.328055 435.395709 
z
" style="stroke: #ffffff; stroke-width: 3.8"/>
    <path d="M 112.788055 429.723209 
L 117.748055 429.723209 
L 116.960555 431.740709 
L 112.788055 431.740709 
L 112.390555 432.795709 
Q 115.085555 432.895709 116.538055 434.138209 
Q 117.733055 435.160709 117.733055 436.685709 
Q 117.733055 437.660709 117.178055 438.595709 
Q 116.623055 439.528209 115.615555 440.033209 
Q 114.608055 440.538209 113.405555 440.538209 
Q 112.108055 440.538209 111.413055 440.053209 
Q 110.928055 439.708209 110.928055 439.270709 
Q 110.928055 438.935709 111.180555 438.678209 
Q 111.435555 438.420709 111.773055 438.420709 
Q 112.078055 438.420709 112.390555 438.545709 
Q 112.703055 438.670709 113.460555 439.200709 
Q 113.935555 439.528209 114.280555 439.653209 
Q 114.523055 439.748209 114.828055 439.748209 
Q 115.468055 439.748209 115.915555 439.280709 
Q 116.365555 438.810709 116.365555 438.153209 
Q 116.365555 436.778209 114.990555 435.920709 
Q 113.615555 435.060709 111.523055 435.060709 
Q 111.310555 435.060709 110.890555 435.068209 
L 112.788055 429.723209 
z
M 120.350555 437.910709 
Q 120.898055 437.910709 121.275555 438.295709 
Q 121.655555 438.678209 121.655555 439.215709 
Q 121.655555 439.755709 121.273055 440.135709 
Q 120.890555 440.513209 120.350555 440.513209 
Q 119.810555 440.513209 119.430555 440.135709 
Q 119.053055 439.755709 119.053055 439.215709 
Q 119.053055 438.678209 119.430555 438.295709 
Q 119.810555 437.910709 120.350555 437.910709 
z
M 122.843055 440.538209 
L 122.843055 440.318209 
Q 124.140555 440.020709 125.043055 439.443209 
Q 125.945555 438.865709 126.470555 438.013209 
Q 126.998055 437.160709 127.210555 436.053209 
Q 126.725555 436.303209 126.385555 436.400709 
Q 126.045555 436.498209 125.670555 436.498209 
Q 124.468055 436.498209 123.665555 435.630709 
Q 122.865555 434.763209 122.865555 433.255709 
Q 122.865555 432.208209 123.298055 431.338209 
Q 123.733055 430.465709 124.538055 429.985709 
Q 125.343055 429.505709 126.210555 429.505709 
Q 127.140555 429.505709 127.968055 430.038209 
Q 128.795555 430.568209 129.288055 431.575709 
Q 129.780555 432.583209 129.780555 433.873209 
Q 129.780555 435.545709 128.978055 437.078209 
Q 128.178055 438.608209 126.593055 439.533209 
Q 125.008055 440.458209 122.843055 440.538209 
z
M 127.328055 435.395709 
Q 127.405555 434.520709 127.405555 433.858209 
Q 127.405555 432.435709 127.078055 431.208209 
Q 126.890555 430.528209 126.523055 430.208209 
Q 126.328055 430.035709 126.015555 430.035709 
Q 125.623055 430.035709 125.405555 430.373209 
Q 125.100555 430.833209 125.100555 432.130709 
Q 125.100555 434.295709 125.615555 435.115709 
Q 125.953055 435.645709 126.523055 435.645709 
Q 126.828055 435.645709 127.328055 435.395709 
z
"/>
   </g>
   <g id="text_17">
    <path d="M 110.843055 329.694891 
L 110.843055 329.474891 
Q 112.140555 329.177391 113.043055 328.599891 
Q 113.945555 328.022391 114.470555 327.169891 
Q 114.998055 326.317391 115.210555 325.209891 
Q 114.725555 325.459891 114.385555 325.557391 
Q 114.045555 325.654891 113.670555 325.654891 
Q 112.468055 325.654891 111.665555 324.787391 
Q 110.865555 323.919891 110.865555 322.412391 
Q 110.865555 321.364891 111.298055 320.494891 
Q 111.733055 319.622391 112.538055 319.142391 
Q 113.343055 318.662391 114.210555 318.662391 
Q 115.140555 318.662391 115.968055 319.194891 
Q 116.795555 319.724891 117.288055 320.732391 
Q 117.780555 321.739891 117.780555 323.029891 
Q 117.780555 324.702391 116.978055 326.234891 
Q 116.178055 327.764891 114.593055 328.689891 
Q 113.008055 329.614891 110.843055 329.694891 
z
M 115.328055 324.552391 
Q 115.405555 323.677391 115.405555 323.014891 
Q 115.405555 321.592391 115.078055 320.364891 
Q 114.890555 319.684891 114.523055 319.364891 
Q 114.328055 319.192391 114.015555 319.192391 
Q 113.623055 319.192391 113.405555 319.529891 
Q 113.100555 319.989891 113.100555 321.287391 
Q 113.100555 323.452391 113.615555 324.272391 
Q 113.953055 324.802391 114.523055 324.802391 
Q 114.828055 324.802391 115.328055 324.552391 
z
M 120.350555 327.067391 
Q 120.898055 327.067391 121.275555 327.452391 
Q 121.655555 327.834891 121.655555 328.372391 
Q 121.655555 328.912391 121.273055 329.292391 
Q 120.890555 329.669891 120.350555 329.669891 
Q 119.810555 329.669891 119.430555 329.292391 
Q 119.053055 328.912391 119.053055 328.372391 
Q 119.053055 327.834891 119.430555 327.452391 
Q 119.810555 327.067391 120.350555 327.067391 
z
M 129.765555 324.177391 
Q 129.765555 325.764891 129.320555 327.139891 
Q 129.053055 327.982391 128.603055 328.522391 
Q 128.155555 329.059891 127.585555 329.377391 
Q 127.015555 329.694891 126.343055 329.694891 
Q 125.578055 329.694891 124.960555 329.304891 
Q 124.343055 328.912391 123.865555 328.184891 
Q 123.523055 327.654891 123.265555 326.772391 
Q 122.928055 325.577391 122.928055 324.302391 
Q 122.928055 322.577391 123.413055 321.129891 
Q 123.810555 319.934891 124.623055 319.299891 
Q 125.435555 318.662391 126.343055 318.662391 
Q 127.265555 318.662391 128.065555 319.292391 
Q 128.865555 319.919891 129.240555 320.982391 
Q 129.765555 322.442391 129.765555 324.177391 
z
M 127.358055 324.162391 
Q 127.358055 321.379891 127.328055 320.919891 
Q 127.248055 319.834891 126.953055 319.452391 
Q 126.758055 319.202391 126.320555 319.202391 
Q 125.983055 319.202391 125.788055 319.389891 
Q 125.498055 319.662391 125.395555 320.354891 
Q 125.295555 321.044891 125.295555 325.177391 
Q 125.295555 327.427391 125.453055 328.192391 
Q 125.570555 328.747391 125.788055 328.934891 
Q 126.008055 329.122391 126.365555 329.122391 
Q 126.758055 329.122391 126.953055 328.872391 
Q 127.280555 328.434891 127.328055 327.522391 
L 127.358055 324.162391 
z
" style="stroke: #ffffff; stroke-width: 3.8"/>
    <path d="M 110.843055 329.694891 
L 110.843055 329.474891 
Q 112.140555 329.177391 113.043055 328.599891 
Q 113.945555 328.022391 114.470555 327.169891 
Q 114.998055 326.317391 115.210555 325.209891 
Q 114.725555 325.459891 114.385555 325.557391 
Q 114.045555 325.654891 113.670555 325.654891 
Q 112.468055 325.654891 111.665555 324.787391 
Q 110.865555 323.919891 110.865555 322.412391 
Q 110.865555 321.364891 111.298055 320.494891 
Q 111.733055 319.622391 112.538055 319.142391 
Q 113.343055 318.662391 114.210555 318.662391 
Q 115.140555 318.662391 115.968055 319.194891 
Q 116.795555 319.724891 117.288055 320.732391 
Q 117.780555 321.739891 117.780555 323.029891 
Q 117.780555 324.702391 116.978055 326.234891 
Q 116.178055 327.764891 114.593055 328.689891 
Q 113.008055 329.614891 110.843055 329.694891 
z
M 115.328055 324.552391 
Q 115.405555 323.677391 115.405555 323.014891 
Q 115.405555 321.592391 115.078055 320.364891 
Q 114.890555 319.684891 114.523055 319.364891 
Q 114.328055 319.192391 114.015555 319.192391 
Q 113.623055 319.192391 113.405555 319.529891 
Q 113.100555 319.989891 113.100555 321.287391 
Q 113.100555 323.452391 113.615555 324.272391 
Q 113.953055 324.802391 114.523055 324.802391 
Q 114.828055 324.802391 115.328055 324.552391 
z
M 120.350555 327.067391 
Q 120.898055 327.067391 121.275555 327.452391 
Q 121.655555 327.834891 121.655555 328.372391 
Q 121.655555 328.912391 121.273055 329.292391 
Q 120.890555 329.669891 120.350555 329.669891 
Q 119.810555 329.669891 119.430555 329.292391 
Q 119.053055 328.912391 119.053055 328.372391 
Q 119.053055 327.834891 119.430555 327.452391 
Q 119.810555 327.067391 120.350555 327.067391 
z
M 129.765555 324.177391 
Q 129.765555 325.764891 129.320555 327.139891 
Q 129.053055 327.982391 128.603055 328.522391 
Q 128.155555 329.059891 127.585555 329.377391 
Q 127.015555 329.694891 126.343055 329.694891 
Q 125.578055 329.694891 124.960555 329.304891 
Q 124.343055 328.912391 123.865555 328.184891 
Q 123.523055 327.654891 123.265555 326.772391 
Q 122.928055 325.577391 122.928055 324.302391 
Q 122.928055 322.577391 123.413055 321.129891 
Q 123.810555 319.934891 124.623055 319.299891 
Q 125.435555 318.662391 126.343055 318.662391 
Q 127.265555 318.662391 128.065555 319.292391 
Q 128.865555 319.919891 129.240555 320.982391 
Q 129.765555 322.442391 129.765555 324.177391 
z
M 127.358055 324.162391 
Q 127.358055 321.379891 127.328055 320.919891 
Q 127.248055 319.834891 126.953055 319.452391 
Q 126.758055 319.202391 126.320555 319.202391 
Q 125.983055 319.202391 125.788055 319.389891 
Q 125.498055 319.662391 125.395555 320.354891 
Q 125.295555 321.044891 125.295555 325.177391 
Q 125.295555 327.427391 125.453055 328.192391 
Q 125.570555 328.747391 125.788055 328.934891 
Q 126.008055 329.122391 126.365555 329.122391 
Q 126.758055 329.122391 126.953055 328.872391 
Q 127.280555 328.434891 127.328055 327.522391 
L 127.358055 324.162391 
z
"/>
   </g>
   <g id="text_18">
    <path d="M 111.560555 154.760935 
L 111.560555 163.425935 
Q 111.560555 164.400935 111.645555 164.670935 
Q 111.733055 164.940935 112.005555 165.113435 
Q 112.280555 165.283435 112.883055 165.283435 
L 113.123055 165.283435 
L 113.123055 165.573435 
L 107.545555 165.573435 
L 107.545555 165.283435 
L 107.828055 165.283435 
Q 108.508055 165.283435 108.795555 165.128435 
Q 109.085555 164.970935 109.185555 164.698435 
Q 109.288055 164.425935 109.288055 163.425935 
L 109.288055 157.933435 
Q 109.288055 157.198435 109.218055 157.015935 
Q 109.148055 156.830935 108.955555 156.703435 
Q 108.765555 156.573435 108.515555 156.573435 
Q 108.115555 156.573435 107.545555 156.823435 
L 107.405555 156.540935 
L 111.303055 154.760935 
L 111.560555 154.760935 
z
M 121.765555 160.275935 
Q 121.765555 161.863435 121.320555 163.238435 
Q 121.053055 164.080935 120.603055 164.620935 
Q 120.155555 165.158435 119.585555 165.475935 
Q 119.015555 165.793435 118.343055 165.793435 
Q 117.578055 165.793435 116.960555 165.403435 
Q 116.343055 165.010935 115.865555 164.283435 
Q 115.523055 163.753435 115.265555 162.870935 
Q 114.928055 161.675935 114.928055 160.400935 
Q 114.928055 158.675935 115.413055 157.228435 
Q 115.810555 156.033435 116.623055 155.398435 
Q 117.435555 154.760935 118.343055 154.760935 
Q 119.265555 154.760935 120.065555 155.390935 
Q 120.865555 156.018435 121.240555 157.080935 
Q 121.765555 158.540935 121.765555 160.275935 
z
M 119.358055 160.260935 
Q 119.358055 157.478435 119.328055 157.018435 
Q 119.248055 155.933435 118.953055 155.550935 
Q 118.758055 155.300935 118.320555 155.300935 
Q 117.983055 155.300935 117.788055 155.488435 
Q 117.498055 155.760935 117.395555 156.453435 
Q 117.295555 157.143435 117.295555 161.275935 
Q 117.295555 163.525935 117.453055 164.290935 
Q 117.570555 164.845935 117.788055 165.033435 
Q 118.008055 165.220935 118.365555 165.220935 
Q 118.758055 165.220935 118.953055 164.970935 
Q 119.280555 164.533435 119.328055 163.620935 
L 119.358055 160.260935 
z
M 124.350555 163.165935 
Q 124.898055 163.165935 125.275555 163.550935 
Q 125.655555 163.933435 125.655555 164.470935 
Q 125.655555 165.010935 125.273055 165.390935 
Q 124.890555 165.768435 124.350555 165.768435 
Q 123.810555 165.768435 123.430555 165.390935 
Q 123.053055 165.010935 123.053055 164.470935 
Q 123.053055 163.933435 123.430555 163.550935 
Q 123.810555 163.165935 124.350555 163.165935 
z
M 126.843055 165.793435 
L 126.843055 165.573435 
Q 128.140555 165.275935 129.043055 164.698435 
Q 129.945555 164.120935 130.470555 163.268435 
Q 130.998055 162.415935 131.210555 161.308435 
Q 130.725555 161.558435 130.385555 161.655935 
Q 130.045555 161.753435 129.670555 161.753435 
Q 128.468055 161.753435 127.665555 160.885935 
Q 126.865555 160.018435 126.865555 158.510935 
Q 126.865555 157.463435 127.298055 156.593435 
Q 127.733055 155.720935 128.538055 155.240935 
Q 129.343055 154.760935 130.210555 154.760935 
Q 131.140555 154.760935 131.968055 155.293435 
Q 132.795555 155.823435 133.288055 156.830935 
Q 133.780555 157.838435 133.780555 159.128435 
Q 133.780555 160.800935 132.978055 162.333435 
Q 132.178055 163.863435 130.593055 164.788435 
Q 129.008055 165.713435 126.843055 165.793435 
z
M 131.328055 160.650935 
Q 131.405555 159.775935 131.405555 159.113435 
Q 131.405555 157.690935 131.078055 156.463435 
Q 130.890555 155.783435 130.523055 155.463435 
Q 130.328055 155.290935 130.015555 155.290935 
Q 129.623055 155.290935 129.405555 155.628435 
Q 129.100555 156.088435 129.100555 157.385935 
Q 129.100555 159.550935 129.615555 160.370935 
Q 129.953055 160.900935 130.523055 160.900935 
Q 130.828055 160.900935 131.328055 160.650935 
z
" style="stroke: #ffffff; stroke-width: 3.8"/>
    <path d="M 111.560555 154.760935 
L 111.560555 163.425935 
Q 111.560555 164.400935 111.645555 164.670935 
Q 111.733055 164.940935 112.005555 165.113435 
Q 112.280555 165.283435 112.883055 165.283435 
L 113.123055 165.283435 
L 113.123055 165.573435 
L 107.545555 165.573435 
L 107.545555 165.283435 
L 107.828055 165.283435 
Q 108.508055 165.283435 108.795555 165.128435 
Q 109.085555 164.970935 109.185555 164.698435 
Q 109.288055 164.425935 109.288055 163.425935 
L 109.288055 157.933435 
Q 109.288055 157.198435 109.218055 157.015935 
Q 109.148055 156.830935 108.955555 156.703435 
Q 108.765555 156.573435 108.515555 156.573435 
Q 108.115555 156.573435 107.545555 156.823435 
L 107.405555 156.540935 
L 111.303055 154.760935 
L 111.560555 154.760935 
z
M 121.765555 160.275935 
Q 121.765555 161.863435 121.320555 163.238435 
Q 121.053055 164.080935 120.603055 164.620935 
Q 120.155555 165.158435 119.585555 165.475935 
Q 119.015555 165.793435 118.343055 165.793435 
Q 117.578055 165.793435 116.960555 165.403435 
Q 116.343055 165.010935 115.865555 164.283435 
Q 115.523055 163.753435 115.265555 162.870935 
Q 114.928055 161.675935 114.928055 160.400935 
Q 114.928055 158.675935 115.413055 157.228435 
Q 115.810555 156.033435 116.623055 155.398435 
Q 117.435555 154.760935 118.343055 154.760935 
Q 119.265555 154.760935 120.065555 155.390935 
Q 120.865555 156.018435 121.240555 157.080935 
Q 121.765555 158.540935 121.765555 160.275935 
z
M 119.358055 160.260935 
Q 119.358055 157.478435 119.328055 157.018435 
Q 119.248055 155.933435 118.953055 155.550935 
Q 118.758055 155.300935 118.320555 155.300935 
Q 117.983055 155.300935 117.788055 155.488435 
Q 117.498055 155.760935 117.395555 156.453435 
Q 117.295555 157.143435 117.295555 161.275935 
Q 117.295555 163.525935 117.453055 164.290935 
Q 117.570555 164.845935 117.788055 165.033435 
Q 118.008055 165.220935 118.365555 165.220935 
Q 118.758055 165.220935 118.953055 164.970935 
Q 119.280555 164.533435 119.328055 163.620935 
L 119.358055 160.260935 
z
M 124.350555 163.165935 
Q 124.898055 163.165935 125.275555 163.550935 
Q 125.655555 163.933435 125.655555 164.470935 
Q 125.655555 165.010935 125.273055 165.390935 
Q 124.890555 165.768435 124.350555 165.768435 
Q 123.810555 165.768435 123.430555 165.390935 
Q 123.053055 165.010935 123.053055 164.470935 
Q 123.053055 163.933435 123.430555 163.550935 
Q 123.810555 163.165935 124.350555 163.165935 
z
M 126.843055 165.793435 
L 126.843055 165.573435 
Q 128.140555 165.275935 129.043055 164.698435 
Q 129.945555 164.120935 130.470555 163.268435 
Q 130.998055 162.415935 131.210555 161.308435 
Q 130.725555 161.558435 130.385555 161.655935 
Q 130.045555 161.753435 129.670555 161.753435 
Q 128.468055 161.753435 127.665555 160.885935 
Q 126.865555 160.018435 126.865555 158.510935 
Q 126.865555 157.463435 127.298055 156.593435 
Q 127.733055 155.720935 128.538055 155.240935 
Q 129.343055 154.760935 130.210555 154.760935 
Q 131.140555 154.760935 131.968055 155.293435 
Q 132.795555 155.823435 133.288055 156.830935 
Q 133.780555 157.838435 133.780555 159.128435 
Q 133.780555 160.800935 132.978055 162.333435 
Q 132.178055 163.863435 130.593055 164.788435 
Q 129.008055 165.713435 126.843055 165.793435 
z
M 131.328055 160.650935 
Q 131.405555 159.775935 131.405555 159.113435 
Q 131.405555 157.690935 131.078055 156.463435 
Q 130.890555 155.783435 130.523055 155.463435 
Q 130.328055 155.290935 130.015555 155.290935 
Q 129.623055 155.290935 129.405555 155.628435 
Q 129.100555 156.088435 129.100555 157.385935 
Q 129.100555 159.550935 129.615555 160.370935 
Q 129.953055 160.900935 130.523055 160.900935 
Q 130.828055 160.900935 131.328055 160.650935 
z
"/>
   </g>
   <g id="text_19">
    <path d="M 578.591172 181.494966 
L 583.551172 181.494966 
L 582.763672 183.512466 
L 578.591172 183.512466 
L 578.193672 184.567466 
Q 580.888672 184.667466 582.341172 185.909966 
Q 583.536172 186.932466 583.536172 188.457466 
Q 583.536172 189.432466 582.981172 190.367466 
Q 582.426172 191.299966 581.418672 191.804966 
Q 580.411172 192.309966 579.208672 192.309966 
Q 577.911172 192.309966 577.216172 191.824966 
Q 576.731172 191.479966 576.731172 191.042466 
Q 576.731172 190.707466 576.983672 190.449966 
Q 577.238672 190.192466 577.576172 190.192466 
Q 577.881172 190.192466 578.193672 190.317466 
Q 578.506172 190.442466 579.263672 190.972466 
Q 579.738672 191.299966 580.083672 191.424966 
Q 580.326172 191.519966 580.631172 191.519966 
Q 581.271172 191.519966 581.718672 191.052466 
Q 582.168672 190.582466 582.168672 189.924966 
Q 582.168672 188.549966 580.793672 187.692466 
Q 579.418672 186.832466 577.326172 186.832466 
Q 577.113672 186.832466 576.693672 186.839966 
L 578.591172 181.494966 
z
M 586.153672 189.682466 
Q 586.701172 189.682466 587.078672 190.067466 
Q 587.458672 190.449966 587.458672 190.987466 
Q 587.458672 191.527466 587.076172 191.907466 
Q 586.693672 192.284966 586.153672 192.284966 
Q 585.613672 192.284966 585.233672 191.907466 
Q 584.856172 191.527466 584.856172 190.987466 
Q 584.856172 190.449966 585.233672 190.067466 
Q 585.613672 189.682466 586.153672 189.682466 
z
M 595.668672 181.277466 
L 595.668672 181.494966 
Q 594.256172 181.854966 593.398672 182.422466 
Q 592.543672 182.987466 592.046172 183.797466 
Q 591.551172 184.604966 591.278672 185.799966 
Q 591.623672 185.567466 591.848672 185.494966 
Q 592.356172 185.339966 592.873672 185.339966 
Q 594.061172 185.339966 594.853672 186.204966 
Q 595.646172 187.067466 595.646172 188.557466 
Q 595.646172 189.604966 595.216172 190.479966 
Q 594.786172 191.354966 593.996172 191.832466 
Q 593.208672 192.309966 592.311172 192.309966 
Q 591.333672 192.309966 590.503672 191.774966 
Q 589.676172 191.237466 589.211172 190.207466 
Q 588.748672 189.174966 588.748672 187.964966 
Q 588.748672 186.182466 589.603672 184.647466 
Q 590.458672 183.112466 592.031172 182.202466 
Q 593.606172 181.292466 595.668672 181.277466 
z
M 591.176172 186.432466 
Q 591.113672 187.512466 591.113672 188.012466 
Q 591.113672 189.089966 591.321172 190.097466 
Q 591.528672 191.104966 591.888672 191.512466 
Q 592.146172 191.799966 592.498672 191.799966 
Q 592.856172 191.799966 593.136172 191.382466 
Q 593.418672 190.964966 593.418672 189.682466 
Q 593.418672 187.527466 592.896172 186.707466 
Q 592.561172 186.174966 591.988672 186.174966 
Q 591.676172 186.174966 591.176172 186.432466 
z
" style="stroke: #ffffff; stroke-width: 3.8"/>
    <path d="M 578.591172 181.494966 
L 583.551172 181.494966 
L 582.763672 183.512466 
L 578.591172 183.512466 
L 578.193672 184.567466 
Q 580.888672 184.667466 582.341172 185.909966 
Q 583.536172 186.932466 583.536172 188.457466 
Q 583.536172 189.432466 582.981172 190.367466 
Q 582.426172 191.299966 581.418672 191.804966 
Q 580.411172 192.309966 579.208672 192.309966 
Q 577.911172 192.309966 577.216172 191.824966 
Q 576.731172 191.479966 576.731172 191.042466 
Q 576.731172 190.707466 576.983672 190.449966 
Q 577.238672 190.192466 577.576172 190.192466 
Q 577.881172 190.192466 578.193672 190.317466 
Q 578.506172 190.442466 579.263672 190.972466 
Q 579.738672 191.299966 580.083672 191.424966 
Q 580.326172 191.519966 580.631172 191.519966 
Q 581.271172 191.519966 581.718672 191.052466 
Q 582.168672 190.582466 582.168672 189.924966 
Q 582.168672 188.549966 580.793672 187.692466 
Q 579.418672 186.832466 577.326172 186.832466 
Q 577.113672 186.832466 576.693672 186.839966 
L 578.591172 181.494966 
z
M 586.153672 189.682466 
Q 586.701172 189.682466 587.078672 190.067466 
Q 587.458672 190.449966 587.458672 190.987466 
Q 587.458672 191.527466 587.076172 191.907466 
Q 586.693672 192.284966 586.153672 192.284966 
Q 585.613672 192.284966 585.233672 191.907466 
Q 584.856172 191.527466 584.856172 190.987466 
Q 584.856172 190.449966 585.233672 190.067466 
Q 585.613672 189.682466 586.153672 189.682466 
z
M 595.668672 181.277466 
L 595.668672 181.494966 
Q 594.256172 181.854966 593.398672 182.422466 
Q 592.543672 182.987466 592.046172 183.797466 
Q 591.551172 184.604966 591.278672 185.799966 
Q 591.623672 185.567466 591.848672 185.494966 
Q 592.356172 185.339966 592.873672 185.339966 
Q 594.061172 185.339966 594.853672 186.204966 
Q 595.646172 187.067466 595.646172 188.557466 
Q 595.646172 189.604966 595.216172 190.479966 
Q 594.786172 191.354966 593.996172 191.832466 
Q 593.208672 192.309966 592.311172 192.309966 
Q 591.333672 192.309966 590.503672 191.774966 
Q 589.676172 191.237466 589.211172 190.207466 
Q 588.748672 189.174966 588.748672 187.964966 
Q 588.748672 186.182466 589.603672 184.647466 
Q 590.458672 183.112466 592.031172 182.202466 
Q 593.606172 181.292466 595.668672 181.277466 
z
M 591.176172 186.432466 
Q 591.113672 187.512466 591.113672 188.012466 
Q 591.113672 189.089966 591.321172 190.097466 
Q 591.528672 191.104966 591.888672 191.512466 
Q 592.146172 191.799966 592.498672 191.799966 
Q 592.856172 191.799966 593.136172 191.382466 
Q 593.418672 190.964966 593.418672 189.682466 
Q 593.418672 187.527466 592.896172 186.707466 
Q 592.561172 186.174966 591.988672 186.174966 
Q 591.676172 186.174966 591.176172 186.432466 
z
"/>
   </g>
   <g id="text_20">
    <path d="M 587.323726 379.619333 
Q 587.323726 381.107614 586.906539 382.396677 
Q 586.655757 383.18652 586.233882 383.69277 
Q 585.814351 384.196677 585.279976 384.494333 
Q 584.745601 384.791989 584.115132 384.791989 
Q 583.397945 384.791989 582.819039 384.426364 
Q 582.240132 384.058395 581.792476 383.376364 
Q 581.471382 382.879489 581.229976 382.052145 
Q 580.91357 380.931833 580.91357 379.73652 
Q 580.91357 378.119333 581.368257 376.762302 
Q 581.740914 375.641989 582.502632 375.046677 
Q 583.264351 374.44902 584.115132 374.44902 
Q 584.979976 374.44902 585.729976 375.039645 
Q 586.479976 375.627927 586.831539 376.62402 
Q 587.323726 377.99277 587.323726 379.619333 
z
M 585.066695 379.60527 
Q 585.066695 376.996677 585.03857 376.565427 
Q 584.96357 375.548239 584.687007 375.189645 
Q 584.504195 374.95527 584.094039 374.95527 
Q 583.777632 374.95527 583.59482 375.131052 
Q 583.322945 375.38652 583.226851 376.035739 
Q 583.133101 376.682614 583.133101 380.556833 
Q 583.133101 382.666208 583.280757 383.383395 
Q 583.390914 383.903708 583.59482 384.079489 
Q 583.80107 384.25527 584.136226 384.25527 
Q 584.504195 384.25527 584.687007 384.020895 
Q 584.994039 383.610739 585.03857 382.75527 
L 585.066695 379.60527 
z
M 589.747164 382.328708 
Q 590.260445 382.328708 590.614351 382.689645 
Q 590.970601 383.048239 590.970601 383.552145 
Q 590.970601 384.058395 590.612007 384.414645 
Q 590.253414 384.768552 589.747164 384.768552 
Q 589.240914 384.768552 588.884664 384.414645 
Q 588.530757 384.058395 588.530757 383.552145 
Q 588.530757 383.048239 588.884664 382.689645 
Q 589.240914 382.328708 589.747164 382.328708 
z
M 592.083882 384.791989 
L 592.083882 384.585739 
Q 593.300289 384.306833 594.146382 383.765427 
Q 594.992476 383.22402 595.484664 382.424802 
Q 595.979195 381.625583 596.178414 380.587302 
Q 595.723726 380.821677 595.404976 380.913083 
Q 595.086226 381.004489 594.734664 381.004489 
Q 593.60732 381.004489 592.854976 380.191208 
Q 592.104976 379.377927 592.104976 377.964645 
Q 592.104976 376.982614 592.510445 376.166989 
Q 592.918257 375.34902 593.672945 374.89902 
Q 594.427632 374.44902 595.240914 374.44902 
Q 596.112789 374.44902 596.88857 374.948239 
Q 597.664351 375.445114 598.12607 376.389645 
Q 598.587789 377.334177 598.587789 378.543552 
Q 598.587789 380.11152 597.835445 381.548239 
Q 597.085445 382.982614 595.599507 383.849802 
Q 594.11357 384.716989 592.083882 384.791989 
z
M 596.28857 379.970895 
Q 596.361226 379.150583 596.361226 378.529489 
Q 596.361226 377.195895 596.054195 376.045114 
Q 595.878414 375.407614 595.533882 375.107614 
Q 595.35107 374.945895 595.058101 374.945895 
Q 594.690132 374.945895 594.486226 375.262302 
Q 594.200289 375.693552 594.200289 376.909958 
Q 594.200289 378.939645 594.683101 379.708395 
Q 594.999507 380.20527 595.533882 380.20527 
Q 595.81982 380.20527 596.28857 379.970895 
z
" style="fill: #404040; stroke: #ffffff; stroke-width: 3.8"/>
    <path d="M 587.323726 379.619333 
Q 587.323726 381.107614 586.906539 382.396677 
Q 586.655757 383.18652 586.233882 383.69277 
Q 585.814351 384.196677 585.279976 384.494333 
Q 584.745601 384.791989 584.115132 384.791989 
Q 583.397945 384.791989 582.819039 384.426364 
Q 582.240132 384.058395 581.792476 383.376364 
Q 581.471382 382.879489 581.229976 382.052145 
Q 580.91357 380.931833 580.91357 379.73652 
Q 580.91357 378.119333 581.368257 376.762302 
Q 581.740914 375.641989 582.502632 375.046677 
Q 583.264351 374.44902 584.115132 374.44902 
Q 584.979976 374.44902 585.729976 375.039645 
Q 586.479976 375.627927 586.831539 376.62402 
Q 587.323726 377.99277 587.323726 379.619333 
z
M 585.066695 379.60527 
Q 585.066695 376.996677 585.03857 376.565427 
Q 584.96357 375.548239 584.687007 375.189645 
Q 584.504195 374.95527 584.094039 374.95527 
Q 583.777632 374.95527 583.59482 375.131052 
Q 583.322945 375.38652 583.226851 376.035739 
Q 583.133101 376.682614 583.133101 380.556833 
Q 583.133101 382.666208 583.280757 383.383395 
Q 583.390914 383.903708 583.59482 384.079489 
Q 583.80107 384.25527 584.136226 384.25527 
Q 584.504195 384.25527 584.687007 384.020895 
Q 584.994039 383.610739 585.03857 382.75527 
L 585.066695 379.60527 
z
M 589.747164 382.328708 
Q 590.260445 382.328708 590.614351 382.689645 
Q 590.970601 383.048239 590.970601 383.552145 
Q 590.970601 384.058395 590.612007 384.414645 
Q 590.253414 384.768552 589.747164 384.768552 
Q 589.240914 384.768552 588.884664 384.414645 
Q 588.530757 384.058395 588.530757 383.552145 
Q 588.530757 383.048239 588.884664 382.689645 
Q 589.240914 382.328708 589.747164 382.328708 
z
M 592.083882 384.791989 
L 592.083882 384.585739 
Q 593.300289 384.306833 594.146382 383.765427 
Q 594.992476 383.22402 595.484664 382.424802 
Q 595.979195 381.625583 596.178414 380.587302 
Q 595.723726 380.821677 595.404976 380.913083 
Q 595.086226 381.004489 594.734664 381.004489 
Q 593.60732 381.004489 592.854976 380.191208 
Q 592.104976 379.377927 592.104976 377.964645 
Q 592.104976 376.982614 592.510445 376.166989 
Q 592.918257 375.34902 593.672945 374.89902 
Q 594.427632 374.44902 595.240914 374.44902 
Q 596.112789 374.44902 596.88857 374.948239 
Q 597.664351 375.445114 598.12607 376.389645 
Q 598.587789 377.334177 598.587789 378.543552 
Q 598.587789 380.11152 597.835445 381.548239 
Q 597.085445 382.982614 595.599507 383.849802 
Q 594.11357 384.716989 592.083882 384.791989 
z
M 596.28857 379.970895 
Q 596.361226 379.150583 596.361226 378.529489 
Q 596.361226 377.195895 596.054195 376.045114 
Q 595.878414 375.407614 595.533882 375.107614 
Q 595.35107 374.945895 595.058101 374.945895 
Q 594.690132 374.945895 594.486226 375.262302 
Q 594.200289 375.693552 594.200289 376.909958 
Q 594.200289 378.939645 594.683101 379.708395 
Q 594.999507 380.20527 595.533882 380.20527 
Q 595.81982 380.20527 596.28857 379.970895 
z
" style="fill: #404040"/>
   </g>
   <g id="text_21">
    <path d="M 573.546143 332.215061 
L 573.546143 332.418967 
Q 572.221924 332.756467 571.418018 333.288498 
Q 570.616455 333.818186 570.150049 334.577561 
Q 569.685986 335.334592 569.430518 336.454904 
Q 569.753955 336.236936 569.964893 336.168967 
Q 570.440674 336.023654 570.92583 336.023654 
Q 572.039111 336.023654 572.78208 336.834592 
Q 573.525049 337.643186 573.525049 339.040061 
Q 573.525049 340.022092 573.121924 340.842404 
Q 572.718799 341.662717 571.978174 342.110373 
Q 571.239893 342.558029 570.398486 342.558029 
Q 569.48208 342.558029 568.703955 342.056467 
Q 567.928174 341.552561 567.492236 340.586936 
Q 567.058643 339.618967 567.058643 338.484592 
Q 567.058643 336.813498 567.860205 335.374436 
Q 568.661768 333.935373 570.135986 333.082248 
Q 571.612549 332.229123 573.546143 332.215061 
z
M 569.334424 337.047873 
Q 569.27583 338.060373 569.27583 338.529123 
Q 569.27583 339.539279 569.470361 340.483811 
Q 569.664893 341.428342 570.002393 341.810373 
Q 570.243799 342.079904 570.574268 342.079904 
Q 570.909424 342.079904 571.171924 341.688498 
Q 571.436768 341.297092 571.436768 340.094748 
Q 571.436768 338.074436 570.946924 337.305686 
Q 570.632861 336.806467 570.096143 336.806467 
Q 569.803174 336.806467 569.334424 337.047873 
z
M 575.87583 340.094748 
Q 576.389111 340.094748 576.743018 340.455686 
Q 577.099268 340.814279 577.099268 341.318186 
Q 577.099268 341.824436 576.740674 342.180686 
Q 576.38208 342.534592 575.87583 342.534592 
Q 575.36958 342.534592 575.01333 342.180686 
Q 574.659424 341.824436 574.659424 341.318186 
Q 574.659424 340.814279 575.01333 340.455686 
Q 575.36958 340.094748 575.87583 340.094748 
z
M 578.212549 342.558029 
L 578.212549 342.351779 
Q 579.428955 342.072873 580.275049 341.531467 
Q 581.121143 340.990061 581.61333 340.190842 
Q 582.107861 339.391623 582.30708 338.353342 
Q 581.852393 338.587717 581.533643 338.679123 
Q 581.214893 338.770529 580.86333 338.770529 
Q 579.735986 338.770529 578.983643 337.957248 
Q 578.233643 337.143967 578.233643 335.730686 
Q 578.233643 334.748654 578.639111 333.933029 
Q 579.046924 333.115061 579.801611 332.665061 
Q 580.556299 332.215061 581.36958 332.215061 
Q 582.241455 332.215061 583.017236 332.714279 
Q 583.793018 333.211154 584.254736 334.155686 
Q 584.716455 335.100217 584.716455 336.309592 
Q 584.716455 337.877561 583.964111 339.314279 
Q 583.214111 340.748654 581.728174 341.615842 
Q 580.242236 342.483029 578.212549 342.558029 
z
M 582.417236 337.736936 
Q 582.489893 336.916623 582.489893 336.295529 
Q 582.489893 334.961936 582.182861 333.811154 
Q 582.00708 333.173654 581.662549 332.873654 
Q 581.479736 332.711936 581.186768 332.711936 
Q 580.818799 332.711936 580.614893 333.028342 
Q 580.328955 333.459592 580.328955 334.675998 
Q 580.328955 336.705686 580.811768 337.474436 
Q 581.128174 337.971311 581.662549 337.971311 
Q 581.948486 337.971311 582.417236 337.736936 
z
" style="fill: #404040; stroke: #ffffff; stroke-width: 3.8"/>
    <path d="M 573.546143 332.215061 
L 573.546143 332.418967 
Q 572.221924 332.756467 571.418018 333.288498 
Q 570.616455 333.818186 570.150049 334.577561 
Q 569.685986 335.334592 569.430518 336.454904 
Q 569.753955 336.236936 569.964893 336.168967 
Q 570.440674 336.023654 570.92583 336.023654 
Q 572.039111 336.023654 572.78208 336.834592 
Q 573.525049 337.643186 573.525049 339.040061 
Q 573.525049 340.022092 573.121924 340.842404 
Q 572.718799 341.662717 571.978174 342.110373 
Q 571.239893 342.558029 570.398486 342.558029 
Q 569.48208 342.558029 568.703955 342.056467 
Q 567.928174 341.552561 567.492236 340.586936 
Q 567.058643 339.618967 567.058643 338.484592 
Q 567.058643 336.813498 567.860205 335.374436 
Q 568.661768 333.935373 570.135986 333.082248 
Q 571.612549 332.229123 573.546143 332.215061 
z
M 569.334424 337.047873 
Q 569.27583 338.060373 569.27583 338.529123 
Q 569.27583 339.539279 569.470361 340.483811 
Q 569.664893 341.428342 570.002393 341.810373 
Q 570.243799 342.079904 570.574268 342.079904 
Q 570.909424 342.079904 571.171924 341.688498 
Q 571.436768 341.297092 571.436768 340.094748 
Q 571.436768 338.074436 570.946924 337.305686 
Q 570.632861 336.806467 570.096143 336.806467 
Q 569.803174 336.806467 569.334424 337.047873 
z
M 575.87583 340.094748 
Q 576.389111 340.094748 576.743018 340.455686 
Q 577.099268 340.814279 577.099268 341.318186 
Q 577.099268 341.824436 576.740674 342.180686 
Q 576.38208 342.534592 575.87583 342.534592 
Q 575.36958 342.534592 575.01333 342.180686 
Q 574.659424 341.824436 574.659424 341.318186 
Q 574.659424 340.814279 575.01333 340.455686 
Q 575.36958 340.094748 575.87583 340.094748 
z
M 578.212549 342.558029 
L 578.212549 342.351779 
Q 579.428955 342.072873 580.275049 341.531467 
Q 581.121143 340.990061 581.61333 340.190842 
Q 582.107861 339.391623 582.30708 338.353342 
Q 581.852393 338.587717 581.533643 338.679123 
Q 581.214893 338.770529 580.86333 338.770529 
Q 579.735986 338.770529 578.983643 337.957248 
Q 578.233643 337.143967 578.233643 335.730686 
Q 578.233643 334.748654 578.639111 333.933029 
Q 579.046924 333.115061 579.801611 332.665061 
Q 580.556299 332.215061 581.36958 332.215061 
Q 582.241455 332.215061 583.017236 332.714279 
Q 583.793018 333.211154 584.254736 334.155686 
Q 584.716455 335.100217 584.716455 336.309592 
Q 584.716455 337.877561 583.964111 339.314279 
Q 583.214111 340.748654 581.728174 341.615842 
Q 580.242236 342.483029 578.212549 342.558029 
z
M 582.417236 337.736936 
Q 582.489893 336.916623 582.489893 336.295529 
Q 582.489893 334.961936 582.182861 333.811154 
Q 582.00708 333.173654 581.662549 332.873654 
Q 581.479736 332.711936 581.186768 332.711936 
Q 580.818799 332.711936 580.614893 333.028342 
Q 580.328955 333.459592 580.328955 334.675998 
Q 580.328955 336.705686 580.811768 337.474436 
Q 581.128174 337.971311 581.662549 337.971311 
Q 581.948486 337.971311 582.417236 337.736936 
z
" style="fill: #404040"/>
   </g>
   <g id="text_22">
    <path d="M 473.198681 261.321175 
L 467.353369 261.321175 
L 467.353369 261.159456 
Q 470.04165 257.960238 470.615869 256.853988 
Q 471.192431 255.747738 471.192431 254.69305 
Q 471.192431 253.9243 470.71665 253.415706 
Q 470.240869 252.904769 469.551806 252.904769 
Q 468.424463 252.904769 467.801025 254.034456 
L 467.52915 253.938363 
Q 467.925244 252.532113 468.731494 251.859456 
Q 469.537744 251.184456 470.592431 251.184456 
Q 471.344775 251.184456 471.968213 251.536019 
Q 472.59165 251.887581 472.943213 252.4993 
Q 473.294775 253.111019 473.294775 253.645394 
Q 473.294775 254.620394 472.751025 255.623519 
Q 472.012744 256.978206 469.521338 259.401644 
L 471.668213 259.401644 
Q 472.458056 259.401644 472.697119 259.336019 
Q 472.936181 259.270394 473.088525 259.113363 
Q 473.243213 258.956331 473.49165 258.450081 
L 473.756494 258.450081 
L 473.198681 261.321175 
z
M 479.599463 255.710238 
Q 480.647119 256.478988 481.052588 257.142269 
Q 481.4604 257.80555 481.4604 258.663363 
Q 481.4604 259.863363 480.555713 260.695394 
Q 479.651025 261.527425 478.099463 261.527425 
Q 476.627588 261.527425 475.821338 260.803206 
Q 475.015088 260.076644 475.015088 259.028988 
Q 475.015088 258.229769 475.47915 257.629769 
Q 475.945556 257.029769 477.028369 256.53055 
Q 475.849463 255.63055 475.51665 255.058675 
Q 475.183838 254.4868 475.183838 253.732113 
Q 475.183838 252.736019 476.029931 251.978988 
Q 476.876025 251.221956 478.3479 251.221956 
Q 479.768213 251.221956 480.532275 251.892269 
Q 481.298681 252.560238 481.298681 253.497738 
Q 481.298681 254.200863 480.883838 254.739925 
Q 480.471338 255.278988 479.599463 255.710238 
z
M 479.043994 255.337581 
Q 479.313525 254.971956 479.444775 254.517269 
Q 479.578369 254.062581 479.578369 253.521175 
Q 479.578369 252.569613 479.168213 252.063363 
Q 478.861181 251.6743 478.317431 251.6743 
Q 477.827588 251.6743 477.483056 252.03055 
Q 477.138525 252.384456 477.138525 252.9118 
Q 477.138525 253.448519 477.5229 254.022738 
Q 477.907275 254.596956 479.043994 255.337581 
z
M 477.57915 256.882113 
Q 477.351806 257.088363 477.255713 257.257113 
Q 477.1104 257.512581 476.993213 258.004769 
Q 476.876025 258.494613 476.876025 259.028988 
Q 476.876025 259.71805 477.051806 260.182113 
Q 477.227588 260.646175 477.553369 260.852425 
Q 477.87915 261.056331 478.223681 261.056331 
Q 478.758056 261.056331 479.123681 260.664925 
Q 479.489306 260.273519 479.489306 259.591488 
Q 479.489306 258.171175 477.57915 256.882113 
z
M 483.862744 259.064144 
Q 484.376025 259.064144 484.729931 259.425081 
Q 485.086181 259.783675 485.086181 260.287581 
Q 485.086181 260.793831 484.727588 261.150081 
Q 484.368994 261.503988 483.862744 261.503988 
Q 483.356494 261.503988 483.000244 261.150081 
Q 482.646338 260.793831 482.646338 260.287581 
Q 482.646338 259.783675 483.000244 259.425081 
Q 483.356494 259.064144 483.862744 259.064144 
z
M 488.395556 261.527425 
L 491.100244 253.331331 
L 489.040088 253.331331 
Q 487.833056 253.331331 487.223681 253.645394 
Q 486.799463 253.865706 486.520556 254.472738 
L 486.243994 254.472738 
L 486.961181 251.388363 
L 492.87915 251.388363 
L 489.546338 261.527425 
L 488.395556 261.527425 
z
" style="fill: #404040; stroke: #ffffff; stroke-width: 3.8"/>
    <path d="M 473.198681 261.321175 
L 467.353369 261.321175 
L 467.353369 261.159456 
Q 470.04165 257.960238 470.615869 256.853988 
Q 471.192431 255.747738 471.192431 254.69305 
Q 471.192431 253.9243 470.71665 253.415706 
Q 470.240869 252.904769 469.551806 252.904769 
Q 468.424463 252.904769 467.801025 254.034456 
L 467.52915 253.938363 
Q 467.925244 252.532113 468.731494 251.859456 
Q 469.537744 251.184456 470.592431 251.184456 
Q 471.344775 251.184456 471.968213 251.536019 
Q 472.59165 251.887581 472.943213 252.4993 
Q 473.294775 253.111019 473.294775 253.645394 
Q 473.294775 254.620394 472.751025 255.623519 
Q 472.012744 256.978206 469.521338 259.401644 
L 471.668213 259.401644 
Q 472.458056 259.401644 472.697119 259.336019 
Q 472.936181 259.270394 473.088525 259.113363 
Q 473.243213 258.956331 473.49165 258.450081 
L 473.756494 258.450081 
L 473.198681 261.321175 
z
M 479.599463 255.710238 
Q 480.647119 256.478988 481.052588 257.142269 
Q 481.4604 257.80555 481.4604 258.663363 
Q 481.4604 259.863363 480.555713 260.695394 
Q 479.651025 261.527425 478.099463 261.527425 
Q 476.627588 261.527425 475.821338 260.803206 
Q 475.015088 260.076644 475.015088 259.028988 
Q 475.015088 258.229769 475.47915 257.629769 
Q 475.945556 257.029769 477.028369 256.53055 
Q 475.849463 255.63055 475.51665 255.058675 
Q 475.183838 254.4868 475.183838 253.732113 
Q 475.183838 252.736019 476.029931 251.978988 
Q 476.876025 251.221956 478.3479 251.221956 
Q 479.768213 251.221956 480.532275 251.892269 
Q 481.298681 252.560238 481.298681 253.497738 
Q 481.298681 254.200863 480.883838 254.739925 
Q 480.471338 255.278988 479.599463 255.710238 
z
M 479.043994 255.337581 
Q 479.313525 254.971956 479.444775 254.517269 
Q 479.578369 254.062581 479.578369 253.521175 
Q 479.578369 252.569613 479.168213 252.063363 
Q 478.861181 251.6743 478.317431 251.6743 
Q 477.827588 251.6743 477.483056 252.03055 
Q 477.138525 252.384456 477.138525 252.9118 
Q 477.138525 253.448519 477.5229 254.022738 
Q 477.907275 254.596956 479.043994 255.337581 
z
M 477.57915 256.882113 
Q 477.351806 257.088363 477.255713 257.257113 
Q 477.1104 257.512581 476.993213 258.004769 
Q 476.876025 258.494613 476.876025 259.028988 
Q 476.876025 259.71805 477.051806 260.182113 
Q 477.227588 260.646175 477.553369 260.852425 
Q 477.87915 261.056331 478.223681 261.056331 
Q 478.758056 261.056331 479.123681 260.664925 
Q 479.489306 260.273519 479.489306 259.591488 
Q 479.489306 258.171175 477.57915 256.882113 
z
M 483.862744 259.064144 
Q 484.376025 259.064144 484.729931 259.425081 
Q 485.086181 259.783675 485.086181 260.287581 
Q 485.086181 260.793831 484.727588 261.150081 
Q 484.368994 261.503988 483.862744 261.503988 
Q 483.356494 261.503988 483.000244 261.150081 
Q 482.646338 260.793831 482.646338 260.287581 
Q 482.646338 259.783675 483.000244 259.425081 
Q 483.356494 259.064144 483.862744 259.064144 
z
M 488.395556 261.527425 
L 491.100244 253.331331 
L 489.040088 253.331331 
Q 487.833056 253.331331 487.223681 253.645394 
Q 486.799463 253.865706 486.520556 254.472738 
L 486.243994 254.472738 
L 486.961181 251.388363 
L 492.87915 251.388363 
L 489.546338 261.527425 
L 488.395556 261.527425 
z
" style="fill: #404040"/>
   </g>
   <g id="text_23">
    <path d="M 330.272992 323.845173 
Q 330.272992 325.333454 329.855804 326.622516 
Q 329.605023 327.41236 329.183148 327.91861 
Q 328.763617 328.422516 328.229242 328.720173 
Q 327.694867 329.017829 327.064398 329.017829 
Q 326.347211 329.017829 325.768304 328.652204 
Q 325.189398 328.284235 324.741742 327.602204 
Q 324.420648 327.105329 324.179242 326.277985 
Q 323.862836 325.157673 323.862836 323.96236 
Q 323.862836 322.345173 324.317523 320.988141 
Q 324.690179 319.867829 325.451898 319.272516 
Q 326.213617 318.67486 327.064398 318.67486 
Q 327.929242 318.67486 328.679242 319.265485 
Q 329.429242 319.853766 329.780804 320.84986 
Q 330.272992 322.21861 330.272992 323.845173 
z
M 328.015961 323.83111 
Q 328.015961 321.222516 327.987836 320.791266 
Q 327.912836 319.774079 327.636273 319.415485 
Q 327.453461 319.18111 327.043304 319.18111 
Q 326.726898 319.18111 326.544086 319.356891 
Q 326.272211 319.61236 326.176117 320.261579 
Q 326.082367 320.908454 326.082367 324.782673 
Q 326.082367 326.892048 326.230023 327.609235 
Q 326.340179 328.129548 326.544086 328.305329 
Q 326.750336 328.48111 327.085492 328.48111 
Q 327.453461 328.48111 327.636273 328.246735 
Q 327.943304 327.836579 327.987836 326.98111 
L 328.015961 323.83111 
z
M 332.696429 326.554548 
Q 333.209711 326.554548 333.563617 326.915485 
Q 333.919867 327.274079 333.919867 327.777985 
Q 333.919867 328.284235 333.561273 328.640485 
Q 333.202679 328.994391 332.696429 328.994391 
Q 332.190179 328.994391 331.833929 328.640485 
Q 331.480023 328.284235 331.480023 327.777985 
Q 331.480023 327.274079 331.833929 326.915485 
Q 332.190179 326.554548 332.696429 326.554548 
z
M 341.522992 323.845173 
Q 341.522992 325.333454 341.105804 326.622516 
Q 340.855023 327.41236 340.433148 327.91861 
Q 340.013617 328.422516 339.479242 328.720173 
Q 338.944867 329.017829 338.314398 329.017829 
Q 337.597211 329.017829 337.018304 328.652204 
Q 336.439398 328.284235 335.991742 327.602204 
Q 335.670648 327.105329 335.429242 326.277985 
Q 335.112836 325.157673 335.112836 323.96236 
Q 335.112836 322.345173 335.567523 320.988141 
Q 335.940179 319.867829 336.701898 319.272516 
Q 337.463617 318.67486 338.314398 318.67486 
Q 339.179242 318.67486 339.929242 319.265485 
Q 340.679242 319.853766 341.030804 320.84986 
Q 341.522992 322.21861 341.522992 323.845173 
z
M 339.265961 323.83111 
Q 339.265961 321.222516 339.237836 320.791266 
Q 339.162836 319.774079 338.886273 319.415485 
Q 338.703461 319.18111 338.293304 319.18111 
Q 337.976898 319.18111 337.794086 319.356891 
Q 337.522211 319.61236 337.426117 320.261579 
Q 337.332367 320.908454 337.332367 324.782673 
Q 337.332367 326.892048 337.480023 327.609235 
Q 337.590179 328.129548 337.794086 328.305329 
Q 338.000336 328.48111 338.335492 328.48111 
Q 338.703461 328.48111 338.886273 328.246735 
Q 339.193304 327.836579 339.237836 326.98111 
L 339.265961 323.83111 
z
" style="fill: #404040; stroke: #ffffff; stroke-width: 3.8"/>
    <path d="M 330.272992 323.845173 
Q 330.272992 325.333454 329.855804 326.622516 
Q 329.605023 327.41236 329.183148 327.91861 
Q 328.763617 328.422516 328.229242 328.720173 
Q 327.694867 329.017829 327.064398 329.017829 
Q 326.347211 329.017829 325.768304 328.652204 
Q 325.189398 328.284235 324.741742 327.602204 
Q 324.420648 327.105329 324.179242 326.277985 
Q 323.862836 325.157673 323.862836 323.96236 
Q 323.862836 322.345173 324.317523 320.988141 
Q 324.690179 319.867829 325.451898 319.272516 
Q 326.213617 318.67486 327.064398 318.67486 
Q 327.929242 318.67486 328.679242 319.265485 
Q 329.429242 319.853766 329.780804 320.84986 
Q 330.272992 322.21861 330.272992 323.845173 
z
M 328.015961 323.83111 
Q 328.015961 321.222516 327.987836 320.791266 
Q 327.912836 319.774079 327.636273 319.415485 
Q 327.453461 319.18111 327.043304 319.18111 
Q 326.726898 319.18111 326.544086 319.356891 
Q 326.272211 319.61236 326.176117 320.261579 
Q 326.082367 320.908454 326.082367 324.782673 
Q 326.082367 326.892048 326.230023 327.609235 
Q 326.340179 328.129548 326.544086 328.305329 
Q 326.750336 328.48111 327.085492 328.48111 
Q 327.453461 328.48111 327.636273 328.246735 
Q 327.943304 327.836579 327.987836 326.98111 
L 328.015961 323.83111 
z
M 332.696429 326.554548 
Q 333.209711 326.554548 333.563617 326.915485 
Q 333.919867 327.274079 333.919867 327.777985 
Q 333.919867 328.284235 333.561273 328.640485 
Q 333.202679 328.994391 332.696429 328.994391 
Q 332.190179 328.994391 331.833929 328.640485 
Q 331.480023 328.284235 331.480023 327.777985 
Q 331.480023 327.274079 331.833929 326.915485 
Q 332.190179 326.554548 332.696429 326.554548 
z
M 341.522992 323.845173 
Q 341.522992 325.333454 341.105804 326.622516 
Q 340.855023 327.41236 340.433148 327.91861 
Q 340.013617 328.422516 339.479242 328.720173 
Q 338.944867 329.017829 338.314398 329.017829 
Q 337.597211 329.017829 337.018304 328.652204 
Q 336.439398 328.284235 335.991742 327.602204 
Q 335.670648 327.105329 335.429242 326.277985 
Q 335.112836 325.157673 335.112836 323.96236 
Q 335.112836 322.345173 335.567523 320.988141 
Q 335.940179 319.867829 336.701898 319.272516 
Q 337.463617 318.67486 338.314398 318.67486 
Q 339.179242 318.67486 339.929242 319.265485 
Q 340.679242 319.853766 341.030804 320.84986 
Q 341.522992 322.21861 341.522992 323.845173 
z
M 339.265961 323.83111 
Q 339.265961 321.222516 339.237836 320.791266 
Q 339.162836 319.774079 338.886273 319.415485 
Q 338.703461 319.18111 338.293304 319.18111 
Q 337.976898 319.18111 337.794086 319.356891 
Q 337.522211 319.61236 337.426117 320.261579 
Q 337.332367 320.908454 337.332367 324.782673 
Q 337.332367 326.892048 337.480023 327.609235 
Q 337.590179 328.129548 337.794086 328.305329 
Q 338.000336 328.48111 338.335492 328.48111 
Q 338.703461 328.48111 338.886273 328.246735 
Q 339.193304 327.836579 339.237836 326.98111 
L 339.265961 323.83111 
z
" style="fill: #404040"/>
   </g>
  </g>
 </g>
 <defs>
  <clipPath id="pfc9f9aae0c">
   <rect x="7.2" y="51.034687" width="730.764" height="432.495831"/>
  </clipPath>
 </defs>
</svg>
