<?xml version="1.0" encoding="utf-8" standalone="no"?>
<!DOCTYPE svg PUBLIC "-//W3C//DTD SVG 1.1//EN"
  "http://www.w3.org/Graphics/SVG/1.1/DTD/svg11.dtd">
<svg xmlns:xlink="http://www.w3.org/1999/xlink" width="745.164pt" height="496.112051pt" viewBox="0 0 745.164 496.112051" xmlns="http://www.w3.org/2000/svg" version="1.1">
 <metadata>
  <rdf:RDF xmlns:dc="http://purl.org/dc/elements/1.1/" xmlns:cc="http://creativecommons.org/ns#" xmlns:rdf="http://www.w3.org/1999/02/22-rdf-syntax-ns#">
   <cc:Work>
    <dc:type rdf:resource="http://purl.org/dc/dcmitype/StillImage"/>
    <dc:date>2026-07-13T16:59:18.165915</dc:date>
    <dc:format>image/svg+xml</dc:format>
    <dc:creator>
     <cc:Agent>
      <dc:title>Matplotlib v3.10.8, https://matplotlib.org/</dc:title>
     </cc:Agent>
    </dc:creator>
   </cc:Work>
  </rdf:RDF>
 </metadata>
 <defs>
  <style type="text/css">*{stroke-linejoin: round; stroke-linecap: butt}</style>
 </defs>
 <g id="figure_1">
  <g id="patch_1">
   <path d="M 0 496.112051 
L 745.164 496.112051 
L 745.164 0 
L 0 0 
L 0 496.112051 
z
" style="fill: none"/>
  </g>
  <g id="axes_1">
   <g id="patch_2">
    <path d="M 120.350555 434.344751 
Q 120.350555 456.590862 120.350555 476.305219 
" clip-path="url(#pf09a6a8c9d)" style="fill: none; stroke: #111111; stroke-width: 2.264469; stroke-linejoin: miter; stroke-linecap: round"/>
    <path d="M 124.019185 468.967959 
L 120.350555 476.305219 
L 116.681925 468.967959 
z
" clip-path="url(#pf09a6a8c9d)" style="fill: #111111; stroke: #111111; stroke-width: 2.264469; stroke-linejoin: miter; stroke-linecap: round"/>
   </g>
   <g id="patch_3">
    <path d="M 120.350555 339.050829 
Q 120.350555 361.171862 120.350555 378.856364 
" clip-path="url(#pf09a6a8c9d)" style="fill: none; stroke: #111111; stroke-width: 3.968153; stroke-linejoin: miter; stroke-linecap: round"/>
    <path d="M 124.564364 370.428746 
L 120.350555 378.856364 
L 116.136746 370.428746 
z
" clip-path="url(#pf09a6a8c9d)" style="fill: #111111; stroke: #111111; stroke-width: 3.968153; stroke-linejoin: miter; stroke-linecap: round"/>
   </g>
   <g id="patch_4">
    <path d="M 120.350555 243.013138 
Q 120.350555 265.631134 120.350555 281.764532 
" clip-path="url(#pf09a6a8c9d)" style="fill: none; stroke: #111111; stroke-width: 5.8; stroke-linejoin: miter; stroke-linecap: round"/>
    <path d="M 125.150555 272.164532 
L 120.350555 281.764532 
L 115.550555 272.164532 
z
" clip-path="url(#pf09a6a8c9d)" style="fill: #111111; stroke: #111111; stroke-width: 5.8; stroke-linejoin: miter; stroke-linecap: round"/>
   </g>
   <g id="patch_5">
    <path d="M 370.224697 310.393994 
Q 370.224697 329.308292 370.224697 345.207178 
" clip-path="url(#pf09a6a8c9d)" style="fill: none; stroke: #111111; stroke-width: 2.697066; stroke-linejoin: miter; stroke-linecap: round"/>
    <path d="M 374.031758 337.593056 
L 370.224697 345.207178 
L 366.417636 337.593056 
z
" clip-path="url(#pf09a6a8c9d)" style="fill: #111111; stroke: #111111; stroke-width: 2.697066; stroke-linejoin: miter; stroke-linecap: round"/>
   </g>
   <g id="patch_6">
    <path d="M 370.224697 224.811897 
Q 370.224697 245.40883 370.224697 261.333531 
" clip-path="url(#pf09a6a8c9d)" style="fill: none; stroke: #111111; stroke-width: 4.178972; stroke-linejoin: miter; stroke-linecap: round"/>
    <path d="M 374.505968 252.770988 
L 370.224697 261.333531 
L 365.943426 252.770988 
z
" clip-path="url(#pf09a6a8c9d)" style="fill: #111111; stroke: #111111; stroke-width: 4.178972; stroke-linejoin: miter; stroke-linecap: round"/>
   </g>
   <g id="patch_7">
    <path d="M 370.224697 128.840943 
Q 370.224697 152.949669 370.224697 171.04938 
" clip-path="url(#pf09a6a8c9d)" style="fill: none; stroke: #111111; stroke-width: 5.374627; stroke-linejoin: miter; stroke-linecap: round"/>
    <path d="M 374.888577 161.721619 
L 370.224697 171.04938 
L 365.560816 161.721619 
z
" clip-path="url(#pf09a6a8c9d)" style="fill: #111111; stroke: #111111; stroke-width: 5.374627; stroke-linejoin: miter; stroke-linecap: round"/>
   </g>
   <g id="patch_8">
    <path d="M 586.153672 245.993244 
Q 586.153672 268.757923 586.153672 286.894972 
" clip-path="url(#pf09a6a8c9d)" style="fill: none; stroke: #111111; stroke-width: 4.139078; stroke-linejoin: miter; stroke-linecap: round"/>
    <path d="M 590.422177 278.357962 
L 586.153672 286.894972 
L 581.885167 278.357962 
z
" clip-path="url(#pf09a6a8c9d)" style="fill: #111111; stroke: #111111; stroke-width: 4.139078; stroke-linejoin: miter; stroke-linecap: round"/>
   </g>
   <g id="line2d_1">
    <path d="M 165.610777 478.836973 
L 550.322663 478.836973 
" clip-path="url(#pf09a6a8c9d)" style="fill: none; stroke-dasharray: 5.6,4.2; stroke-dashoffset: 0; stroke: #404040; stroke-width: 1.4"/>
   </g>
   <g id="line2d_2">
    <path d="M 165.610777 383.292894 
L 550.322663 383.292894 
" clip-path="url(#pf09a6a8c9d)" style="fill: none; stroke-dasharray: 5.6,4.2; stroke-dashoffset: 0; stroke: #404040; stroke-width: 1.4"/>
   </g>
   <g id="line2d_3">
    <path d="M 415.484919 348.222589 
L 560.694797 348.222589 
" clip-path="url(#pf09a6a8c9d)" style="fill: none; stroke-dasharray: 5.6,4.2; stroke-dashoffset: 0; stroke: #404040; stroke-width: 1.4"/>
   </g>
   <g id="patch_9">
    <path d="M 665.359061 291.522601 
Q 577.175643 383.020424 489.627688 473.858901 
" clip-path="url(#pf09a6a8c9d)" style="fill: none; stroke: #404040; stroke-width: 0.819048; stroke-linejoin: miter; stroke-linecap: round"/>
    <path d="M 495.543243 471.765056 
L 489.627688 473.858901 
L 491.501945 467.87015 
z
" clip-path="url(#pf09a6a8c9d)" style="fill: #404040; stroke: #404040; stroke-width: 0.819048; stroke-linejoin: miter; stroke-linecap: round"/>
   </g>
   <g id="patch_10">
    <path d="M 620.098839 291.522601 
Q 577.958231 335.247079 538.401231 376.290843 
" clip-path="url(#pf09a6a8c9d)" style="fill: none; stroke: #404040; stroke-width: 3.330016; stroke-linejoin: miter; stroke-linecap: round"/>
    <path d="M 546.081092 373.572512 
L 538.401231 376.290843 
L 540.834483 368.515955 
z
" clip-path="url(#pf09a6a8c9d)" style="fill: #404040; stroke: #404040; stroke-width: 3.330016; stroke-linejoin: miter; stroke-linecap: round"/>
   </g>
   <g id="patch_11">
    <path d="M 574.838617 291.522601 
Q 541.81961 317.996035 509.504419 343.905174 
" clip-path="url(#pf09a6a8c9d)" style="fill: none; stroke: #404040; stroke-width: 0.806863; stroke-linejoin: miter; stroke-linecap: round"/>
    <path d="M 515.630018 342.585661 
L 509.504419 343.905174 
L 512.124167 338.212987 
z
" clip-path="url(#pf09a6a8c9d)" style="fill: #404040; stroke: #404040; stroke-width: 0.806863; stroke-linejoin: miter; stroke-linecap: round"/>
   </g>
   <g id="patch_12">
    <path d="M 370.224697 348.222589 
Q 335.414159 364.487877 304.481477 378.94123 
" clip-path="url(#pf09a6a8c9d)" style="fill: none; stroke: #404040; stroke-width: 3.828406; stroke-linejoin: miter; stroke-linecap: round"/>
    <path d="M 312.996708 379.167278 
L 304.481477 378.94123 
L 309.771453 372.264674 
z
" clip-path="url(#pf09a6a8c9d)" style="fill: #404040; stroke: #404040; stroke-width: 3.828406; stroke-linejoin: miter; stroke-linecap: round"/>
   </g>
   <g id="line2d_4">
    <path d="M 120.350555 383.292894 
L 120.350555 427.785116 
" clip-path="url(#pf09a6a8c9d)" style="fill: none; stroke: #111111; stroke-width: 2.264469"/>
   </g>
   <g id="line2d_5">
    <path d="M 120.350555 288.24913 
L 120.350555 332.491194 
" clip-path="url(#pf09a6a8c9d)" style="fill: none; stroke: #111111; stroke-width: 3.968153"/>
   </g>
   <g id="line2d_6">
    <path d="M 120.350555 191.217511 
L 120.350555 236.453503 
" clip-path="url(#pf09a6a8c9d)" style="fill: none; stroke: #111111; stroke-width: 5.8"/>
   </g>
   <g id="line2d_7">
    <path d="M 370.224697 266.005764 
L 370.224697 303.834359 
" clip-path="url(#pf09a6a8c9d)" style="fill: none; stroke: #111111; stroke-width: 2.697066"/>
   </g>
   <g id="line2d_8">
    <path d="M 370.224697 177.058396 
L 370.224697 218.252262 
" clip-path="url(#pf09a6a8c9d)" style="fill: none; stroke: #111111; stroke-width: 4.178972"/>
   </g>
   <g id="line2d_9">
    <path d="M 370.224697 74.063855 
L 370.224697 122.281308 
" clip-path="url(#pf09a6a8c9d)" style="fill: none; stroke: #111111; stroke-width: 5.374627"/>
   </g>
   <g id="line2d_10">
    <path d="M 586.153672 193.904252 
L 586.153672 239.433609 
" clip-path="url(#pf09a6a8c9d)" style="fill: none; stroke: #111111; stroke-width: 4.139078"/>
   </g>
   <g id="line2d_11">
    <path d="M 75.090333 478.836973 
L 165.610777 478.836973 
" clip-path="url(#pf09a6a8c9d)" style="fill: none; stroke: #111111; stroke-width: 3.6; stroke-linecap: round"/>
   </g>
   <g id="line2d_12">
    <path d="M 75.090333 383.292894 
L 165.610777 383.292894 
" clip-path="url(#pf09a6a8c9d)" style="fill: none; stroke: #111111; stroke-width: 3.6; stroke-linecap: round"/>
   </g>
   <g id="line2d_13">
    <path d="M 75.090333 288.24913 
L 165.610777 288.24913 
" clip-path="url(#pf09a6a8c9d)" style="fill: none; stroke: #111111; stroke-width: 3.6; stroke-linecap: round"/>
   </g>
   <g id="line2d_14">
    <path d="M 75.090333 191.217511 
L 165.610777 191.217511 
" clip-path="url(#pf09a6a8c9d)" style="fill: none; stroke: #111111; stroke-width: 3.6; stroke-linecap: round"/>
   </g>
   <g id="line2d_15">
    <path d="M 324.964475 348.222589 
L 415.484919 348.222589 
" clip-path="url(#pf09a6a8c9d)" style="fill: none; stroke: #111111; stroke-width: 3.6; stroke-linecap: round"/>
   </g>
   <g id="line2d_16">
    <path d="M 324.964475 266.005764 
L 415.484919 266.005764 
" clip-path="url(#pf09a6a8c9d)" style="fill: none; stroke: #111111; stroke-width: 3.6; stroke-linecap: round"/>
   </g>
   <g id="line2d_17">
    <path d="M 324.964475 177.058396 
L 415.484919 177.058396 
" clip-path="url(#pf09a6a8c9d)" style="fill: none; stroke: #111111; stroke-width: 3.6; stroke-linecap: round"/>
   </g>
   <g id="line2d_18">
    <path d="M 324.964475 74.063855 
L 415.484919 74.063855 
" clip-path="url(#pf09a6a8c9d)" style="fill: none; stroke: #111111; stroke-width: 3.6; stroke-linecap: round"/>
   </g>
   <g id="line2d_19">
    <path d="M 574.838617 291.522601 
L 665.359061 291.522601 
" clip-path="url(#pf09a6a8c9d)" style="fill: none; stroke: #111111; stroke-width: 3.6; stroke-linecap: round"/>
   </g>
   <g id="line2d_20">
    <path d="M 574.838617 193.904252 
L 665.359061 193.904252 
" clip-path="url(#pf09a6a8c9d)" style="fill: none; stroke: #111111; stroke-width: 3.6; stroke-linecap: round"/>
   </g>
   <g id="text_1">
    <!-- $^{158}\mathrm{W}$ -->
    <g transform="translate(332.292 33.034687) scale(0.34 -0.34)">
     <defs>
      <path id="DejaVuSans-31" d="M 794 531 
L 1825 531 
L 1825 4091 
L 703 3866 
L 703 4441 
L 1819 4666 
L 2450 4666 
L 2450 531 
L 3481 531 
L 3481 0 
L 794 0 
L 794 531 
z
" transform="scale(0.015625)"/>
      <path id="DejaVuSans-35" d="M 691 4666 
L 3169 4666 
L 3169 4134 
L 1269 4134 
L 1269 2991 
Q 1406 3038 1543 3061 
Q 1681 3084 1819 3084 
Q 2600 3084 3056 2656 
Q 3513 2228 3513 1497 
Q 3513 744 3044 326 
Q 2575 -91 1722 -91 
Q 1428 -91 1123 -41 
Q 819 9 494 109 
L 494 744 
Q 775 591 1075 516 
Q 1375 441 1709 441 
Q 2250 441 2565 725 
Q 2881 1009 2881 1497 
Q 2881 1984 2565 2268 
Q 2250 2553 1709 2553 
Q 1456 2553 1204 2497 
Q 953 2441 691 2322 
L 691 4666 
z
" transform="scale(0.015625)"/>
      <path id="DejaVuSans-38" d="M 2034 2216 
Q 1584 2216 1326 1975 
Q 1069 1734 1069 1313 
Q 1069 891 1326 650 
Q 1584 409 2034 409 
Q 2484 409 2743 651 
Q 3003 894 3003 1313 
Q 3003 1734 2745 1975 
Q 2488 2216 2034 2216 
z
M 1403 2484 
Q 997 2584 770 2862 
Q 544 3141 544 3541 
Q 544 4100 942 4425 
Q 1341 4750 2034 4750 
Q 2731 4750 3128 4425 
Q 3525 4100 3525 3541 
Q 3525 3141 3298 2862 
Q 3072 2584 2669 2484 
Q 3125 2378 3379 2068 
Q 3634 1759 3634 1313 
Q 3634 634 3220 271 
Q 2806 -91 2034 -91 
Q 1263 -91 848 271 
Q 434 634 434 1313 
Q 434 1759 690 2068 
Q 947 2378 1403 2484 
z
M 1172 3481 
Q 1172 3119 1398 2916 
Q 1625 2713 2034 2713 
Q 2441 2713 2670 2916 
Q 2900 3119 2900 3481 
Q 2900 3844 2670 4047 
Q 2441 4250 2034 4250 
Q 1625 4250 1398 4047 
Q 1172 3844 1172 3481 
z
" transform="scale(0.015625)"/>
      <path id="DejaVuSans-57" d="M 213 4666 
L 850 4666 
L 1831 722 
L 2809 4666 
L 3519 4666 
L 4500 722 
L 5478 4666 
L 6119 4666 
L 4947 0 
L 4153 0 
L 3169 4050 
L 2175 0 
L 1381 0 
L 213 4666 
z
" transform="scale(0.015625)"/>
     </defs>
     <use xlink:href="#DejaVuSans-31" transform="translate(0.957031 39.046875) scale(0.7)"/>
     <use xlink:href="#DejaVuSans-35" transform="translate(45.493164 39.046875) scale(0.7)"/>
     <use xlink:href="#DejaVuSans-38" transform="translate(90.029297 39.046875) scale(0.7)"/>
     <use xlink:href="#DejaVuSans-57" transform="translate(137.299805 0.765625)"/>
    </g>
   </g>
   <g id="text_2">
    <!-- 0 -->
    <g transform="translate(46.98525 483.251973) scale(0.16 -0.16)">
     <defs>
      <path id="DejaVuSans-BoldOblique-30" d="M 1913 728 
Q 2153 728 2339 872 
Q 2525 1016 2650 1294 
Q 2738 1491 2809 1742 
Q 2881 1994 2944 2338 
Q 2997 2616 3025 2850 
Q 3053 3084 3053 3250 
Q 3053 3600 2928 3764 
Q 2803 3928 2541 3928 
Q 2297 3928 2112 3789 
Q 1928 3650 1806 3366 
Q 1713 3163 1636 2903 
Q 1559 2644 1503 2338 
Q 1450 2056 1422 1815 
Q 1394 1575 1394 1409 
Q 1394 1063 1522 895 
Q 1650 728 1913 728 
z
M 4225 3072 
Q 4225 2450 4053 1862 
Q 3881 1275 3572 831 
Q 3256 375 2809 142 
Q 2363 -91 1813 -91 
Q 1047 -91 639 343 
Q 231 778 231 1594 
Q 231 2206 401 2795 
Q 572 3384 878 3822 
Q 1200 4281 1644 4515 
Q 2088 4750 2644 4750 
Q 3403 4750 3814 4314 
Q 4225 3878 4225 3072 
z
" transform="scale(0.015625)"/>
     </defs>
     <use xlink:href="#DejaVuSans-BoldOblique-30"/>
    </g>
   </g>
   <g id="text_3">
    <!-- 0⁺ -->
    <g transform="translate(182.58336 483.992207) scale(0.23 -0.23)">
     <defs>
      <path id="TimesNewRomanPS-BoldMT-30" d="M 2966 2119 
Q 2966 1484 2788 934 
Q 2681 597 2501 381 
Q 2322 166 2094 39 
Q 1866 -88 1597 -88 
Q 1291 -88 1044 68 
Q 797 225 606 516 
Q 469 728 366 1081 
Q 231 1559 231 2069 
Q 231 2759 425 3338 
Q 584 3816 909 4070 
Q 1234 4325 1597 4325 
Q 1966 4325 2286 4073 
Q 2606 3822 2756 3397 
Q 2966 2813 2966 2119 
z
M 2003 2125 
Q 2003 3238 1991 3422 
Q 1959 3856 1841 4009 
Q 1763 4109 1588 4109 
Q 1453 4109 1375 4034 
Q 1259 3925 1218 3648 
Q 1178 3372 1178 1719 
Q 1178 819 1241 513 
Q 1288 291 1375 216 
Q 1463 141 1606 141 
Q 1763 141 1841 241 
Q 1972 416 1991 781 
L 2003 2125 
z
" transform="scale(0.015625)"/>
      <path id="DejaVuSerif-Bold-207a" d="M 1916 4344 
L 1916 3441 
L 2950 3441 
L 2950 3044 
L 1916 3044 
L 1916 2141 
L 1463 2141 
L 1463 3044 
L 428 3044 
L 428 3441 
L 1463 3441 
L 1463 4344 
L 1916 4344 
z
" transform="scale(0.015625)"/>
     </defs>
     <use xlink:href="#TimesNewRomanPS-BoldMT-30"/>
     <use xlink:href="#DejaVuSerif-Bold-207a" transform="translate(50 0)"/>
    </g>
   </g>
   <g id="text_4">
    <!-- 1340 -->
    <g transform="translate(13.58775 387.707894) scale(0.16 -0.16)">
     <defs>
      <path id="DejaVuSans-BoldOblique-31" d="M 441 831 
L 1503 831 
L 2088 3847 
L 953 3622 
L 1113 4441 
L 2241 4666 
L 3384 4666 
L 2644 831 
L 3700 831 
L 3541 0 
L 275 0 
L 441 831 
z
" transform="scale(0.015625)"/>
      <path id="DejaVuSans-BoldOblique-33" d="M 3022 2516 
Q 3375 2434 3572 2187 
Q 3769 1941 3769 1581 
Q 3769 806 3155 357 
Q 2541 -91 1466 -91 
Q 1059 -91 692 -33 
Q 325 25 0 141 
L 178 1069 
Q 456 906 784 817 
Q 1113 728 1441 728 
Q 1969 728 2276 926 
Q 2584 1125 2584 1459 
Q 2584 1738 2350 1877 
Q 2116 2016 1644 2016 
L 1166 2016 
L 1319 2791 
L 1825 2791 
Q 2316 2791 2602 2969 
Q 2888 3147 2888 3450 
Q 2888 3688 2689 3813 
Q 2491 3938 2113 3938 
Q 1847 3938 1534 3869 
Q 1222 3800 884 3669 
L 1056 4550 
Q 1425 4650 1783 4700 
Q 2141 4750 2491 4750 
Q 3281 4750 3679 4487 
Q 4078 4225 4078 3706 
Q 4078 3241 3801 2930 
Q 3525 2619 3022 2516 
z
" transform="scale(0.015625)"/>
      <path id="DejaVuSans-BoldOblique-34" d="M 2638 3641 
L 978 1722 
L 2259 1722 
L 2638 3641 
z
M 2606 4666 
L 3975 4666 
L 3397 1722 
L 4063 1722 
L 3897 850 
L 3231 850 
L 3066 0 
L 1925 0 
L 2094 850 
L -6 850 
L 197 1881 
L 2606 4666 
z
" transform="scale(0.015625)"/>
     </defs>
     <use xlink:href="#DejaVuSans-BoldOblique-31"/>
     <use xlink:href="#DejaVuSans-BoldOblique-33" transform="translate(69.580078 0)"/>
     <use xlink:href="#DejaVuSans-BoldOblique-34" transform="translate(139.160156 0)"/>
     <use xlink:href="#DejaVuSans-BoldOblique-30" transform="translate(208.740234 0)"/>
    </g>
   </g>
   <g id="text_5">
    <!-- 2⁺ -->
    <g transform="translate(182.58336 388.448128) scale(0.23 -0.23)">
     <defs>
      <path id="TimesNewRomanPS-BoldMT-32" d="M 2650 0 
L 156 0 
L 156 69 
Q 1303 1434 1548 1906 
Q 1794 2378 1794 2828 
Q 1794 3156 1591 3373 
Q 1388 3591 1094 3591 
Q 613 3591 347 3109 
L 231 3150 
Q 400 3750 744 4037 
Q 1088 4325 1538 4325 
Q 1859 4325 2125 4175 
Q 2391 4025 2541 3764 
Q 2691 3503 2691 3275 
Q 2691 2859 2459 2431 
Q 2144 1853 1081 819 
L 1997 819 
Q 2334 819 2436 847 
Q 2538 875 2603 942 
Q 2669 1009 2775 1225 
L 2888 1225 
L 2650 0 
z
" transform="scale(0.015625)"/>
     </defs>
     <use xlink:href="#TimesNewRomanPS-BoldMT-32"/>
     <use xlink:href="#DejaVuSerif-Bold-207a" transform="translate(50 0)"/>
    </g>
   </g>
   <g id="text_6">
    <!-- 2673 -->
    <g transform="translate(13.58775 292.66413) scale(0.16 -0.16)">
     <defs>
      <path id="DejaVuSans-BoldOblique-32" d="M 1581 884 
L 3609 884 
L 3438 0 
L 50 0 
L 225 891 
L 2209 2388 
Q 2534 2638 2704 2894 
Q 2875 3150 2875 3391 
Q 2875 3647 2700 3787 
Q 2525 3928 2209 3928 
Q 1913 3928 1547 3811 
Q 1181 3694 722 3450 
L 922 4441 
Q 1347 4597 1756 4673 
Q 2166 4750 2566 4750 
Q 3278 4750 3687 4442 
Q 4097 4134 4097 3603 
Q 4097 3147 3847 2772 
Q 3597 2397 2747 1759 
L 1581 884 
z
" transform="scale(0.015625)"/>
      <path id="DejaVuSans-BoldOblique-36" d="M 2316 2303 
Q 1959 2303 1731 2009 
Q 1503 1716 1503 1253 
Q 1503 975 1643 820 
Q 1784 666 2034 666 
Q 2388 666 2617 955 
Q 2847 1244 2847 1684 
Q 2847 1984 2709 2143 
Q 2572 2303 2316 2303 
z
M 4225 4544 
L 4056 3681 
Q 3788 3819 3534 3887 
Q 3281 3956 3028 3956 
Q 2447 3956 2087 3643 
Q 1728 3331 1650 2766 
Q 1894 2925 2151 3001 
Q 2409 3078 2700 3078 
Q 3275 3078 3640 2737 
Q 4006 2397 4006 1869 
Q 4006 1006 3442 454 
Q 2878 -97 1991 -97 
Q 1194 -97 756 354 
Q 319 806 319 1631 
Q 319 2269 512 2848 
Q 706 3428 1056 3847 
Q 1431 4294 1942 4519 
Q 2453 4744 3091 4744 
Q 3384 4744 3662 4694 
Q 3941 4644 4225 4544 
z
" transform="scale(0.015625)"/>
      <path id="DejaVuSans-BoldOblique-37" d="M 922 4666 
L 4441 4666 
L 4300 3981 
L 1703 0 
L 500 0 
L 2969 3781 
L 756 3781 
L 922 4666 
z
" transform="scale(0.015625)"/>
     </defs>
     <use xlink:href="#DejaVuSans-BoldOblique-32"/>
     <use xlink:href="#DejaVuSans-BoldOblique-36" transform="translate(69.580078 0)"/>
     <use xlink:href="#DejaVuSans-BoldOblique-37" transform="translate(139.160156 0)"/>
     <use xlink:href="#DejaVuSans-BoldOblique-33" transform="translate(208.740234 0)"/>
    </g>
   </g>
   <g id="text_7">
    <!-- 4⁺ -->
    <g transform="translate(182.58336 293.404364) scale(0.23 -0.23)">
     <defs>
      <path id="TimesNewRomanPS-BoldMT-34" d="M 159 1597 
L 2172 4325 
L 2553 4325 
L 2553 1597 
L 2941 1597 
L 2941 950 
L 2553 950 
L 2553 0 
L 1694 0 
L 1694 950 
L 159 950 
L 159 1597 
z
M 463 1597 
L 1694 1597 
L 1694 3269 
L 463 1597 
z
" transform="scale(0.015625)"/>
     </defs>
     <use xlink:href="#TimesNewRomanPS-BoldMT-34"/>
     <use xlink:href="#DejaVuSerif-Bold-207a" transform="translate(50 0)"/>
    </g>
   </g>
   <g id="text_8">
    <!-- 4034 -->
    <g transform="translate(13.58775 195.632511) scale(0.16 -0.16)">
     <use xlink:href="#DejaVuSans-BoldOblique-34"/>
     <use xlink:href="#DejaVuSans-BoldOblique-30" transform="translate(69.580078 0)"/>
     <use xlink:href="#DejaVuSans-BoldOblique-33" transform="translate(139.160156 0)"/>
     <use xlink:href="#DejaVuSans-BoldOblique-34" transform="translate(208.740234 0)"/>
    </g>
   </g>
   <g id="text_9">
    <!-- 6⁺ -->
    <g transform="translate(182.58336 196.372745) scale(0.23 -0.23)">
     <defs>
      <path id="TimesNewRomanPS-BoldMT-36" d="M 3006 4325 
L 3006 4238 
Q 2441 4094 2098 3867 
Q 1756 3641 1557 3317 
Q 1359 2994 1250 2516 
Q 1388 2609 1478 2638 
Q 1681 2700 1888 2700 
Q 2363 2700 2680 2354 
Q 2997 2009 2997 1413 
Q 2997 994 2825 644 
Q 2653 294 2337 103 
Q 2022 -88 1663 -88 
Q 1272 -88 940 126 
Q 609 341 423 753 
Q 238 1166 238 1650 
Q 238 2363 580 2977 
Q 922 3591 1551 3955 
Q 2181 4319 3006 4325 
z
M 1209 2263 
Q 1184 1831 1184 1631 
Q 1184 1200 1267 797 
Q 1350 394 1494 231 
Q 1597 116 1738 116 
Q 1881 116 1993 283 
Q 2106 450 2106 963 
Q 2106 1825 1897 2153 
Q 1763 2366 1534 2366 
Q 1409 2366 1209 2263 
z
" transform="scale(0.015625)"/>
     </defs>
     <use xlink:href="#TimesNewRomanPS-BoldMT-36"/>
     <use xlink:href="#DejaVuSerif-Bold-207a" transform="translate(50 0)"/>
    </g>
   </g>
   <g id="text_10">
    <!-- 1832 -->
    <g transform="translate(263.461892 352.637589) scale(0.16 -0.16)">
     <defs>
      <path id="DejaVuSans-BoldOblique-38" d="M 2150 2088 
Q 1784 2088 1539 1839 
Q 1294 1591 1294 1228 
Q 1294 969 1453 817 
Q 1613 666 1888 666 
Q 2259 666 2503 911 
Q 2747 1156 2747 1522 
Q 2747 1781 2586 1934 
Q 2425 2088 2150 2088 
z
M 1381 2484 
Q 1044 2625 876 2850 
Q 709 3075 709 3391 
Q 709 4025 1229 4387 
Q 1750 4750 2669 4750 
Q 3406 4750 3812 4475 
Q 4219 4200 4219 3700 
Q 4219 3256 3936 2940 
Q 3653 2625 3128 2484 
Q 3509 2338 3690 2091 
Q 3872 1844 3872 1466 
Q 3872 747 3311 328 
Q 2750 -91 1772 -91 
Q 1000 -91 570 217 
Q 141 525 141 1075 
Q 141 1572 470 1945 
Q 800 2319 1381 2484 
z
M 2559 3994 
Q 2241 3994 2048 3808 
Q 1856 3622 1856 3316 
Q 1856 3103 1995 2972 
Q 2134 2841 2363 2841 
Q 2681 2841 2873 3027 
Q 3066 3213 3066 3519 
Q 3066 3734 2927 3864 
Q 2788 3994 2559 3994 
z
" transform="scale(0.015625)"/>
     </defs>
     <use xlink:href="#DejaVuSans-BoldOblique-31"/>
     <use xlink:href="#DejaVuSans-BoldOblique-38" transform="translate(69.580078 0)"/>
     <use xlink:href="#DejaVuSans-BoldOblique-33" transform="translate(139.160156 0)"/>
     <use xlink:href="#DejaVuSans-BoldOblique-32" transform="translate(208.740234 0)"/>
    </g>
   </g>
   <g id="text_11">
    <!-- 0⁺ -->
    <g transform="translate(432.457502 353.377824) scale(0.23 -0.23)">
     <use xlink:href="#TimesNewRomanPS-BoldMT-30"/>
     <use xlink:href="#DejaVuSerif-Bold-207a" transform="translate(50 0)"/>
    </g>
   </g>
   <g id="text_12">
    <!-- 2985 -->
    <g transform="translate(263.461892 270.420764) scale(0.16 -0.16)">
     <defs>
      <path id="DejaVuSans-BoldOblique-39" d="M 263 103 
L 428 966 
Q 700 825 953 758 
Q 1206 691 1459 691 
Q 2041 691 2400 1003 
Q 2759 1316 2834 1881 
Q 2594 1722 2337 1645 
Q 2081 1569 1791 1569 
Q 1219 1569 853 1909 
Q 488 2250 488 2778 
Q 488 3641 1052 4192 
Q 1616 4744 2503 4744 
Q 3300 4744 3736 4292 
Q 4172 3841 4172 3016 
Q 4172 2381 3978 1801 
Q 3784 1222 3431 800 
Q 3056 353 2548 128 
Q 2041 -97 1403 -97 
Q 1106 -97 825 -47 
Q 544 3 263 103 
z
M 2169 2344 
Q 2525 2344 2753 2637 
Q 2981 2931 2981 3391 
Q 2981 3675 2845 3828 
Q 2709 3981 2456 3981 
Q 2103 3981 1870 3690 
Q 1638 3400 1638 2963 
Q 1638 2663 1775 2503 
Q 1913 2344 2169 2344 
z
" transform="scale(0.015625)"/>
      <path id="DejaVuSans-BoldOblique-35" d="M 1131 4666 
L 4122 4666 
L 3950 3781 
L 1919 3781 
L 1778 3059 
Q 1916 3097 2064 3117 
Q 2213 3138 2363 3138 
Q 3078 3138 3481 2811 
Q 3884 2484 3884 1906 
Q 3884 988 3262 448 
Q 2641 -91 1575 -91 
Q 1184 -91 815 -14 
Q 447 63 84 219 
L 269 1166 
Q 616 941 942 834 
Q 1269 728 1606 728 
Q 2100 728 2397 986 
Q 2694 1244 2694 1663 
Q 2694 1963 2469 2139 
Q 2244 2316 1856 2316 
Q 1594 2316 1289 2248 
Q 984 2181 622 2041 
L 1131 4666 
z
" transform="scale(0.015625)"/>
     </defs>
     <use xlink:href="#DejaVuSans-BoldOblique-32"/>
     <use xlink:href="#DejaVuSans-BoldOblique-39" transform="translate(69.580078 0)"/>
     <use xlink:href="#DejaVuSans-BoldOblique-38" transform="translate(139.160156 0)"/>
     <use xlink:href="#DejaVuSans-BoldOblique-35" transform="translate(208.740234 0)"/>
    </g>
   </g>
   <g id="text_13">
    <!-- 2⁺ -->
    <g transform="translate(432.457502 271.160998) scale(0.23 -0.23)">
     <use xlink:href="#TimesNewRomanPS-BoldMT-32"/>
     <use xlink:href="#DejaVuSerif-Bold-207a" transform="translate(50 0)"/>
    </g>
   </g>
   <g id="text_14">
    <!-- 4232 -->
    <g transform="translate(263.461892 181.473396) scale(0.16 -0.16)">
     <use xlink:href="#DejaVuSans-BoldOblique-34"/>
     <use xlink:href="#DejaVuSans-BoldOblique-32" transform="translate(69.580078 0)"/>
     <use xlink:href="#DejaVuSans-BoldOblique-33" transform="translate(139.160156 0)"/>
     <use xlink:href="#DejaVuSans-BoldOblique-32" transform="translate(208.740234 0)"/>
    </g>
   </g>
   <g id="text_15">
    <!-- 4⁺ -->
    <g transform="translate(432.457502 182.21363) scale(0.23 -0.23)">
     <use xlink:href="#TimesNewRomanPS-BoldMT-34"/>
     <use xlink:href="#DejaVuSerif-Bold-207a" transform="translate(50 0)"/>
    </g>
   </g>
   <g id="text_16">
    <!-- 5677 -->
    <g transform="translate(263.461892 78.478855) scale(0.16 -0.16)">
     <use xlink:href="#DejaVuSans-BoldOblique-35"/>
     <use xlink:href="#DejaVuSans-BoldOblique-36" transform="translate(69.580078 0)"/>
     <use xlink:href="#DejaVuSans-BoldOblique-37" transform="translate(139.160156 0)"/>
     <use xlink:href="#DejaVuSans-BoldOblique-37" transform="translate(208.740234 0)"/>
    </g>
   </g>
   <g id="text_17">
    <!-- 6⁺ -->
    <g transform="translate(432.457502 79.219089) scale(0.23 -0.23)">
     <use xlink:href="#TimesNewRomanPS-BoldMT-36"/>
     <use xlink:href="#DejaVuSerif-Bold-207a" transform="translate(50 0)"/>
    </g>
   </g>
   <g id="text_18">
    <!-- 2627 -->
    <g transform="translate(513.336034 295.937601) scale(0.16 -0.16)">
     <use xlink:href="#DejaVuSans-BoldOblique-32"/>
     <use xlink:href="#DejaVuSans-BoldOblique-36" transform="translate(69.580078 0)"/>
     <use xlink:href="#DejaVuSans-BoldOblique-32" transform="translate(139.160156 0)"/>
     <use xlink:href="#DejaVuSans-BoldOblique-37" transform="translate(208.740234 0)"/>
    </g>
   </g>
   <g id="text_19">
    <!-- 2⁺ -->
    <g transform="translate(682.331644 296.677836) scale(0.23 -0.23)">
     <use xlink:href="#TimesNewRomanPS-BoldMT-32"/>
     <use xlink:href="#DejaVuSerif-Bold-207a" transform="translate(50 0)"/>
    </g>
   </g>
   <g id="text_20">
    <!-- 3996 -->
    <g transform="translate(513.336034 198.319252) scale(0.16 -0.16)">
     <use xlink:href="#DejaVuSans-BoldOblique-33"/>
     <use xlink:href="#DejaVuSans-BoldOblique-39" transform="translate(69.580078 0)"/>
     <use xlink:href="#DejaVuSans-BoldOblique-39" transform="translate(139.160156 0)"/>
     <use xlink:href="#DejaVuSans-BoldOblique-36" transform="translate(208.740234 0)"/>
    </g>
   </g>
   <g id="text_21">
    <!-- 3⁺ -->
    <g transform="translate(682.331644 199.059486) scale(0.23 -0.23)">
     <defs>
      <path id="TimesNewRomanPS-BoldMT-33" d="M 947 2125 
L 947 2234 
Q 1303 2338 1440 2427 
Q 1578 2516 1678 2698 
Q 1778 2881 1778 3069 
Q 1778 3328 1589 3514 
Q 1400 3700 1119 3700 
Q 681 3700 375 3238 
L 259 3278 
Q 484 3800 836 4062 
Q 1188 4325 1619 4325 
Q 2059 4325 2345 4056 
Q 2631 3788 2631 3428 
Q 2631 3194 2498 2976 
Q 2366 2759 2081 2594 
Q 2447 2416 2639 2155 
Q 2831 1894 2831 1500 
Q 2831 838 2351 373 
Q 1872 -91 1066 -91 
Q 528 -91 281 88 
Q 103 213 103 409 
Q 103 553 206 654 
Q 309 756 444 756 
Q 547 756 638 713 
Q 688 688 992 439 
Q 1297 191 1563 191 
Q 1794 191 1959 373 
Q 2125 556 2125 838 
Q 2125 1266 1825 1627 
Q 1525 1988 947 2125 
z
" transform="scale(0.015625)"/>
     </defs>
     <use xlink:href="#TimesNewRomanPS-BoldMT-33"/>
     <use xlink:href="#DejaVuSerif-Bold-207a" transform="translate(50 0)"/>
    </g>
   </g>
   <g id="text_22">
    <path d="M 112.975555 434.651183 
L 106.740555 434.651183 
L 106.740555 434.478683 
Q 109.608055 431.066183 110.220555 429.886183 
Q 110.835555 428.706183 110.835555 427.581183 
Q 110.835555 426.761183 110.328055 426.218683 
Q 109.820555 425.673683 109.085555 425.673683 
Q 107.883055 425.673683 107.218055 426.878683 
L 106.928055 426.776183 
Q 107.350555 425.276183 108.210555 424.558683 
Q 109.070555 423.838683 110.195555 423.838683 
Q 110.998055 423.838683 111.663055 424.213683 
Q 112.328055 424.588683 112.703055 425.241183 
Q 113.078055 425.893683 113.078055 426.463683 
Q 113.078055 427.503683 112.498055 428.573683 
Q 111.710555 430.018683 109.053055 432.603683 
L 111.343055 432.603683 
Q 112.185555 432.603683 112.440555 432.533683 
Q 112.695555 432.463683 112.858055 432.296183 
Q 113.023055 432.128683 113.288055 431.588683 
L 113.570555 431.588683 
L 112.975555 434.651183 
z
M 114.748055 430.658683 
L 119.780555 423.838683 
L 120.733055 423.838683 
L 120.733055 430.658683 
L 121.703055 430.658683 
L 121.703055 432.276183 
L 120.733055 432.276183 
L 120.733055 434.651183 
L 118.585555 434.651183 
L 118.585555 432.276183 
L 114.748055 432.276183 
L 114.748055 430.658683 
z
M 115.508055 430.658683 
L 118.585555 430.658683 
L 118.585555 426.478683 
L 115.508055 430.658683 
z
M 124.350555 432.243683 
Q 124.898055 432.243683 125.275555 432.628683 
Q 125.655555 433.011183 125.655555 433.548683 
Q 125.655555 434.088683 125.273055 434.468683 
Q 124.890555 434.846183 124.350555 434.846183 
Q 123.810555 434.846183 123.430555 434.468683 
Q 123.053055 434.088683 123.053055 433.548683 
Q 123.053055 433.011183 123.430555 432.628683 
Q 123.810555 432.243683 124.350555 432.243683 
z
M 131.803055 428.666183 
Q 132.920555 429.486183 133.353055 430.193683 
Q 133.788055 430.901183 133.788055 431.816183 
Q 133.788055 433.096183 132.823055 433.983683 
Q 131.858055 434.871183 130.203055 434.871183 
Q 128.633055 434.871183 127.773055 434.098683 
Q 126.913055 433.323683 126.913055 432.206183 
Q 126.913055 431.353683 127.408055 430.713683 
Q 127.905555 430.073683 129.060555 429.541183 
Q 127.803055 428.581183 127.448055 427.971183 
Q 127.093055 427.361183 127.093055 426.556183 
Q 127.093055 425.493683 127.995555 424.686183 
Q 128.898055 423.878683 130.468055 423.878683 
Q 131.983055 423.878683 132.798055 424.593683 
Q 133.615555 425.306183 133.615555 426.306183 
Q 133.615555 427.056183 133.173055 427.631183 
Q 132.733055 428.206183 131.803055 428.666183 
z
M 131.210555 428.268683 
Q 131.498055 427.878683 131.638055 427.393683 
Q 131.780555 426.908683 131.780555 426.331183 
Q 131.780555 425.316183 131.343055 424.776183 
Q 131.015555 424.361183 130.435555 424.361183 
Q 129.913055 424.361183 129.545555 424.741183 
Q 129.178055 425.118683 129.178055 425.681183 
Q 129.178055 426.253683 129.588055 426.866183 
Q 129.998055 427.478683 131.210555 428.268683 
z
M 129.648055 429.916183 
Q 129.405555 430.136183 129.303055 430.316183 
Q 129.148055 430.588683 129.023055 431.113683 
Q 128.898055 431.636183 128.898055 432.206183 
Q 128.898055 432.941183 129.085555 433.436183 
Q 129.273055 433.931183 129.620555 434.151183 
Q 129.968055 434.368683 130.335555 434.368683 
Q 130.905555 434.368683 131.295555 433.951183 
Q 131.685555 433.533683 131.685555 432.806183 
Q 131.685555 431.291183 129.648055 429.916183 
z
" style="stroke: #ffffff; stroke-width: 3.8"/>
    <path d="M 112.975555 434.651183 
L 106.740555 434.651183 
L 106.740555 434.478683 
Q 109.608055 431.066183 110.220555 429.886183 
Q 110.835555 428.706183 110.835555 427.581183 
Q 110.835555 426.761183 110.328055 426.218683 
Q 109.820555 425.673683 109.085555 425.673683 
Q 107.883055 425.673683 107.218055 426.878683 
L 106.928055 426.776183 
Q 107.350555 425.276183 108.210555 424.558683 
Q 109.070555 423.838683 110.195555 423.838683 
Q 110.998055 423.838683 111.663055 424.213683 
Q 112.328055 424.588683 112.703055 425.241183 
Q 113.078055 425.893683 113.078055 426.463683 
Q 113.078055 427.503683 112.498055 428.573683 
Q 111.710555 430.018683 109.053055 432.603683 
L 111.343055 432.603683 
Q 112.185555 432.603683 112.440555 432.533683 
Q 112.695555 432.463683 112.858055 432.296183 
Q 113.023055 432.128683 113.288055 431.588683 
L 113.570555 431.588683 
L 112.975555 434.651183 
z
M 114.748055 430.658683 
L 119.780555 423.838683 
L 120.733055 423.838683 
L 120.733055 430.658683 
L 121.703055 430.658683 
L 121.703055 432.276183 
L 120.733055 432.276183 
L 120.733055 434.651183 
L 118.585555 434.651183 
L 118.585555 432.276183 
L 114.748055 432.276183 
L 114.748055 430.658683 
z
M 115.508055 430.658683 
L 118.585555 430.658683 
L 118.585555 426.478683 
L 115.508055 430.658683 
z
M 124.350555 432.243683 
Q 124.898055 432.243683 125.275555 432.628683 
Q 125.655555 433.011183 125.655555 433.548683 
Q 125.655555 434.088683 125.273055 434.468683 
Q 124.890555 434.846183 124.350555 434.846183 
Q 123.810555 434.846183 123.430555 434.468683 
Q 123.053055 434.088683 123.053055 433.548683 
Q 123.053055 433.011183 123.430555 432.628683 
Q 123.810555 432.243683 124.350555 432.243683 
z
M 131.803055 428.666183 
Q 132.920555 429.486183 133.353055 430.193683 
Q 133.788055 430.901183 133.788055 431.816183 
Q 133.788055 433.096183 132.823055 433.983683 
Q 131.858055 434.871183 130.203055 434.871183 
Q 128.633055 434.871183 127.773055 434.098683 
Q 126.913055 433.323683 126.913055 432.206183 
Q 126.913055 431.353683 127.408055 430.713683 
Q 127.905555 430.073683 129.060555 429.541183 
Q 127.803055 428.581183 127.448055 427.971183 
Q 127.093055 427.361183 127.093055 426.556183 
Q 127.093055 425.493683 127.995555 424.686183 
Q 128.898055 423.878683 130.468055 423.878683 
Q 131.983055 423.878683 132.798055 424.593683 
Q 133.615555 425.306183 133.615555 426.306183 
Q 133.615555 427.056183 133.173055 427.631183 
Q 132.733055 428.206183 131.803055 428.666183 
z
M 131.210555 428.268683 
Q 131.498055 427.878683 131.638055 427.393683 
Q 131.780555 426.908683 131.780555 426.331183 
Q 131.780555 425.316183 131.343055 424.776183 
Q 131.015555 424.361183 130.435555 424.361183 
Q 129.913055 424.361183 129.545555 424.741183 
Q 129.178055 425.118683 129.178055 425.681183 
Q 129.178055 426.253683 129.588055 426.866183 
Q 129.998055 427.478683 131.210555 428.268683 
z
M 129.648055 429.916183 
Q 129.405555 430.136183 129.303055 430.316183 
Q 129.148055 430.588683 129.023055 431.113683 
Q 128.898055 431.636183 128.898055 432.206183 
Q 128.898055 432.941183 129.085555 433.436183 
Q 129.273055 433.931183 129.620555 434.151183 
Q 129.968055 434.368683 130.335555 434.368683 
Q 130.905555 434.368683 131.295555 433.951183 
Q 131.685555 433.533683 131.685555 432.806183 
Q 131.685555 431.291183 129.648055 429.916183 
z
"/>
   </g>
   <g id="text_23">
    <path d="M 108.788055 328.762262 
L 113.748055 328.762262 
L 112.960555 330.779762 
L 108.788055 330.779762 
L 108.390555 331.834762 
Q 111.085555 331.934762 112.538055 333.177262 
Q 113.733055 334.199762 113.733055 335.724762 
Q 113.733055 336.699762 113.178055 337.634762 
Q 112.623055 338.567262 111.615555 339.072262 
Q 110.608055 339.577262 109.405555 339.577262 
Q 108.108055 339.577262 107.413055 339.092262 
Q 106.928055 338.747262 106.928055 338.309762 
Q 106.928055 337.974762 107.180555 337.717262 
Q 107.435555 337.459762 107.773055 337.459762 
Q 108.078055 337.459762 108.390555 337.584762 
Q 108.703055 337.709762 109.460555 338.239762 
Q 109.935555 338.567262 110.280555 338.692262 
Q 110.523055 338.787262 110.828055 338.787262 
Q 111.468055 338.787262 111.915555 338.319762 
Q 112.365555 337.849762 112.365555 337.192262 
Q 112.365555 335.817262 110.990555 334.959762 
Q 109.615555 334.099762 107.523055 334.099762 
Q 107.310555 334.099762 106.890555 334.107262 
L 108.788055 328.762262 
z
M 116.718055 334.044762 
L 116.718055 333.772262 
Q 117.608055 333.512262 117.950555 333.289762 
Q 118.295555 333.067262 118.545555 332.612262 
Q 118.795555 332.154762 118.795555 331.684762 
Q 118.795555 331.037262 118.323055 330.572262 
Q 117.850555 330.107262 117.148055 330.107262 
Q 116.053055 330.107262 115.288055 331.262262 
L 114.998055 331.162262 
Q 115.560555 329.857262 116.440555 329.202262 
Q 117.320555 328.544762 118.398055 328.544762 
Q 119.498055 328.544762 120.213055 329.217262 
Q 120.928055 329.887262 120.928055 330.787262 
Q 120.928055 331.372262 120.595555 331.917262 
Q 120.265555 332.459762 119.553055 332.872262 
Q 120.468055 333.317262 120.948055 333.969762 
Q 121.428055 334.622262 121.428055 335.607262 
Q 121.428055 337.262262 120.228055 338.424762 
Q 119.030555 339.584762 117.015555 339.584762 
Q 115.670555 339.584762 115.053055 339.137262 
Q 114.608055 338.824762 114.608055 338.334762 
Q 114.608055 337.974762 114.865555 337.722262 
Q 115.123055 337.467262 115.460555 337.467262 
Q 115.718055 337.467262 115.945555 337.574762 
Q 116.070555 337.637262 116.830555 338.259762 
Q 117.593055 338.879762 118.258055 338.879762 
Q 118.835555 338.879762 119.248055 338.424762 
Q 119.663055 337.967262 119.663055 337.262262 
Q 119.663055 336.192262 118.913055 335.289762 
Q 118.163055 334.387262 116.718055 334.044762 
z
M 124.350555 336.949762 
Q 124.898055 336.949762 125.275555 337.334762 
Q 125.655555 337.717262 125.655555 338.254762 
Q 125.655555 338.794762 125.273055 339.174762 
Q 124.890555 339.552262 124.350555 339.552262 
Q 123.810555 339.552262 123.430555 339.174762 
Q 123.053055 338.794762 123.053055 338.254762 
Q 123.053055 337.717262 123.430555 337.334762 
Q 123.810555 336.949762 124.350555 336.949762 
z
M 133.865555 328.544762 
L 133.865555 328.762262 
Q 132.453055 329.122262 131.595555 329.689762 
Q 130.740555 330.254762 130.243055 331.064762 
Q 129.748055 331.872262 129.475555 333.067262 
Q 129.820555 332.834762 130.045555 332.762262 
Q 130.553055 332.607262 131.070555 332.607262 
Q 132.258055 332.607262 133.050555 333.472262 
Q 133.843055 334.334762 133.843055 335.824762 
Q 133.843055 336.872262 133.413055 337.747262 
Q 132.983055 338.622262 132.193055 339.099762 
Q 131.405555 339.577262 130.508055 339.577262 
Q 129.530555 339.577262 128.700555 339.042262 
Q 127.873055 338.504762 127.408055 337.474762 
Q 126.945555 336.442262 126.945555 335.232262 
Q 126.945555 333.449762 127.800555 331.914762 
Q 128.655555 330.379762 130.228055 329.469762 
Q 131.803055 328.559762 133.865555 328.544762 
z
M 129.373055 333.699762 
Q 129.310555 334.779762 129.310555 335.279762 
Q 129.310555 336.357262 129.518055 337.364762 
Q 129.725555 338.372262 130.085555 338.779762 
Q 130.343055 339.067262 130.695555 339.067262 
Q 131.053055 339.067262 131.333055 338.649762 
Q 131.615555 338.232262 131.615555 336.949762 
Q 131.615555 334.794762 131.093055 333.974762 
Q 130.758055 333.442262 130.185555 333.442262 
Q 129.873055 333.442262 129.373055 333.699762 
z
" style="stroke: #ffffff; stroke-width: 3.8"/>
    <path d="M 108.788055 328.762262 
L 113.748055 328.762262 
L 112.960555 330.779762 
L 108.788055 330.779762 
L 108.390555 331.834762 
Q 111.085555 331.934762 112.538055 333.177262 
Q 113.733055 334.199762 113.733055 335.724762 
Q 113.733055 336.699762 113.178055 337.634762 
Q 112.623055 338.567262 111.615555 339.072262 
Q 110.608055 339.577262 109.405555 339.577262 
Q 108.108055 339.577262 107.413055 339.092262 
Q 106.928055 338.747262 106.928055 338.309762 
Q 106.928055 337.974762 107.180555 337.717262 
Q 107.435555 337.459762 107.773055 337.459762 
Q 108.078055 337.459762 108.390555 337.584762 
Q 108.703055 337.709762 109.460555 338.239762 
Q 109.935555 338.567262 110.280555 338.692262 
Q 110.523055 338.787262 110.828055 338.787262 
Q 111.468055 338.787262 111.915555 338.319762 
Q 112.365555 337.849762 112.365555 337.192262 
Q 112.365555 335.817262 110.990555 334.959762 
Q 109.615555 334.099762 107.523055 334.099762 
Q 107.310555 334.099762 106.890555 334.107262 
L 108.788055 328.762262 
z
M 116.718055 334.044762 
L 116.718055 333.772262 
Q 117.608055 333.512262 117.950555 333.289762 
Q 118.295555 333.067262 118.545555 332.612262 
Q 118.795555 332.154762 118.795555 331.684762 
Q 118.795555 331.037262 118.323055 330.572262 
Q 117.850555 330.107262 117.148055 330.107262 
Q 116.053055 330.107262 115.288055 331.262262 
L 114.998055 331.162262 
Q 115.560555 329.857262 116.440555 329.202262 
Q 117.320555 328.544762 118.398055 328.544762 
Q 119.498055 328.544762 120.213055 329.217262 
Q 120.928055 329.887262 120.928055 330.787262 
Q 120.928055 331.372262 120.595555 331.917262 
Q 120.265555 332.459762 119.553055 332.872262 
Q 120.468055 333.317262 120.948055 333.969762 
Q 121.428055 334.622262 121.428055 335.607262 
Q 121.428055 337.262262 120.228055 338.424762 
Q 119.030555 339.584762 117.015555 339.584762 
Q 115.670555 339.584762 115.053055 339.137262 
Q 114.608055 338.824762 114.608055 338.334762 
Q 114.608055 337.974762 114.865555 337.722262 
Q 115.123055 337.467262 115.460555 337.467262 
Q 115.718055 337.467262 115.945555 337.574762 
Q 116.070555 337.637262 116.830555 338.259762 
Q 117.593055 338.879762 118.258055 338.879762 
Q 118.835555 338.879762 119.248055 338.424762 
Q 119.663055 337.967262 119.663055 337.262262 
Q 119.663055 336.192262 118.913055 335.289762 
Q 118.163055 334.387262 116.718055 334.044762 
z
M 124.350555 336.949762 
Q 124.898055 336.949762 125.275555 337.334762 
Q 125.655555 337.717262 125.655555 338.254762 
Q 125.655555 338.794762 125.273055 339.174762 
Q 124.890555 339.552262 124.350555 339.552262 
Q 123.810555 339.552262 123.430555 339.174762 
Q 123.053055 338.794762 123.053055 338.254762 
Q 123.053055 337.717262 123.430555 337.334762 
Q 123.810555 336.949762 124.350555 336.949762 
z
M 133.865555 328.544762 
L 133.865555 328.762262 
Q 132.453055 329.122262 131.595555 329.689762 
Q 130.740555 330.254762 130.243055 331.064762 
Q 129.748055 331.872262 129.475555 333.067262 
Q 129.820555 332.834762 130.045555 332.762262 
Q 130.553055 332.607262 131.070555 332.607262 
Q 132.258055 332.607262 133.050555 333.472262 
Q 133.843055 334.334762 133.843055 335.824762 
Q 133.843055 336.872262 133.413055 337.747262 
Q 132.983055 338.622262 132.193055 339.099762 
Q 131.405555 339.577262 130.508055 339.577262 
Q 129.530555 339.577262 128.700555 339.042262 
Q 127.873055 338.504762 127.408055 337.474762 
Q 126.945555 336.442262 126.945555 335.232262 
Q 126.945555 333.449762 127.800555 331.914762 
Q 128.655555 330.379762 130.228055 329.469762 
Q 131.803055 328.559762 133.865555 328.544762 
z
M 129.373055 333.699762 
Q 129.310555 334.779762 129.310555 335.279762 
Q 129.310555 336.357262 129.518055 337.364762 
Q 129.725555 338.372262 130.085555 338.779762 
Q 130.343055 339.067262 130.695555 339.067262 
Q 131.053055 339.067262 131.333055 338.649762 
Q 131.615555 338.232262 131.615555 336.949762 
Q 131.615555 334.794762 131.093055 333.974762 
Q 130.758055 333.442262 130.185555 333.442262 
Q 129.873055 333.442262 129.373055 333.699762 
z
"/>
   </g>
   <g id="text_24">
    <path d="M 111.803055 237.33457 
Q 112.920555 238.15457 113.353055 238.86207 
Q 113.788055 239.56957 113.788055 240.48457 
Q 113.788055 241.76457 112.823055 242.65207 
Q 111.858055 243.53957 110.203055 243.53957 
Q 108.633055 243.53957 107.773055 242.76707 
Q 106.913055 241.99207 106.913055 240.87457 
Q 106.913055 240.02207 107.408055 239.38207 
Q 107.905555 238.74207 109.060555 238.20957 
Q 107.803055 237.24957 107.448055 236.63957 
Q 107.093055 236.02957 107.093055 235.22457 
Q 107.093055 234.16207 107.995555 233.35457 
Q 108.898055 232.54707 110.468055 232.54707 
Q 111.983055 232.54707 112.798055 233.26207 
Q 113.615555 233.97457 113.615555 234.97457 
Q 113.615555 235.72457 113.173055 236.29957 
Q 112.733055 236.87457 111.803055 237.33457 
z
M 111.210555 236.93707 
Q 111.498055 236.54707 111.638055 236.06207 
Q 111.780555 235.57707 111.780555 234.99957 
Q 111.780555 233.98457 111.343055 233.44457 
Q 111.015555 233.02957 110.435555 233.02957 
Q 109.913055 233.02957 109.545555 233.40957 
Q 109.178055 233.78707 109.178055 234.34957 
Q 109.178055 234.92207 109.588055 235.53457 
Q 109.998055 236.14707 111.210555 236.93707 
z
M 109.648055 238.58457 
Q 109.405555 238.80457 109.303055 238.98457 
Q 109.148055 239.25707 109.023055 239.78207 
Q 108.898055 240.30457 108.898055 240.87457 
Q 108.898055 241.60957 109.085555 242.10457 
Q 109.273055 242.59957 109.620555 242.81957 
Q 109.968055 243.03707 110.335555 243.03707 
Q 110.905555 243.03707 111.295555 242.61957 
Q 111.685555 242.20207 111.685555 241.47457 
Q 111.685555 239.95957 109.648055 238.58457 
z
M 114.748055 239.32707 
L 119.780555 232.50707 
L 120.733055 232.50707 
L 120.733055 239.32707 
L 121.703055 239.32707 
L 121.703055 240.94457 
L 120.733055 240.94457 
L 120.733055 243.31957 
L 118.585555 243.31957 
L 118.585555 240.94457 
L 114.748055 240.94457 
L 114.748055 239.32707 
z
M 115.508055 239.32707 
L 118.585555 239.32707 
L 118.585555 235.14707 
L 115.508055 239.32707 
z
M 124.350555 240.91207 
Q 124.898055 240.91207 125.275555 241.29707 
Q 125.655555 241.67957 125.655555 242.21707 
Q 125.655555 242.75707 125.273055 243.13707 
Q 124.890555 243.51457 124.350555 243.51457 
Q 123.810555 243.51457 123.430555 243.13707 
Q 123.053055 242.75707 123.053055 242.21707 
Q 123.053055 241.67957 123.430555 241.29707 
Q 123.810555 240.91207 124.350555 240.91207 
z
M 133.865555 232.50707 
L 133.865555 232.72457 
Q 132.453055 233.08457 131.595555 233.65207 
Q 130.740555 234.21707 130.243055 235.02707 
Q 129.748055 235.83457 129.475555 237.02957 
Q 129.820555 236.79707 130.045555 236.72457 
Q 130.553055 236.56957 131.070555 236.56957 
Q 132.258055 236.56957 133.050555 237.43457 
Q 133.843055 238.29707 133.843055 239.78707 
Q 133.843055 240.83457 133.413055 241.70957 
Q 132.983055 242.58457 132.193055 243.06207 
Q 131.405555 243.53957 130.508055 243.53957 
Q 129.530555 243.53957 128.700555 243.00457 
Q 127.873055 242.46707 127.408055 241.43707 
Q 126.945555 240.40457 126.945555 239.19457 
Q 126.945555 237.41207 127.800555 235.87707 
Q 128.655555 234.34207 130.228055 233.43207 
Q 131.803055 232.52207 133.865555 232.50707 
z
M 129.373055 237.66207 
Q 129.310555 238.74207 129.310555 239.24207 
Q 129.310555 240.31957 129.518055 241.32707 
Q 129.725555 242.33457 130.085555 242.74207 
Q 130.343055 243.02957 130.695555 243.02957 
Q 131.053055 243.02957 131.333055 242.61207 
Q 131.615555 242.19457 131.615555 240.91207 
Q 131.615555 238.75707 131.093055 237.93707 
Q 130.758055 237.40457 130.185555 237.40457 
Q 129.873055 237.40457 129.373055 237.66207 
z
" style="stroke: #ffffff; stroke-width: 3.8"/>
    <path d="M 111.803055 237.33457 
Q 112.920555 238.15457 113.353055 238.86207 
Q 113.788055 239.56957 113.788055 240.48457 
Q 113.788055 241.76457 112.823055 242.65207 
Q 111.858055 243.53957 110.203055 243.53957 
Q 108.633055 243.53957 107.773055 242.76707 
Q 106.913055 241.99207 106.913055 240.87457 
Q 106.913055 240.02207 107.408055 239.38207 
Q 107.905555 238.74207 109.060555 238.20957 
Q 107.803055 237.24957 107.448055 236.63957 
Q 107.093055 236.02957 107.093055 235.22457 
Q 107.093055 234.16207 107.995555 233.35457 
Q 108.898055 232.54707 110.468055 232.54707 
Q 111.983055 232.54707 112.798055 233.26207 
Q 113.615555 233.97457 113.615555 234.97457 
Q 113.615555 235.72457 113.173055 236.29957 
Q 112.733055 236.87457 111.803055 237.33457 
z
M 111.210555 236.93707 
Q 111.498055 236.54707 111.638055 236.06207 
Q 111.780555 235.57707 111.780555 234.99957 
Q 111.780555 233.98457 111.343055 233.44457 
Q 111.015555 233.02957 110.435555 233.02957 
Q 109.913055 233.02957 109.545555 233.40957 
Q 109.178055 233.78707 109.178055 234.34957 
Q 109.178055 234.92207 109.588055 235.53457 
Q 109.998055 236.14707 111.210555 236.93707 
z
M 109.648055 238.58457 
Q 109.405555 238.80457 109.303055 238.98457 
Q 109.148055 239.25707 109.023055 239.78207 
Q 108.898055 240.30457 108.898055 240.87457 
Q 108.898055 241.60957 109.085555 242.10457 
Q 109.273055 242.59957 109.620555 242.81957 
Q 109.968055 243.03707 110.335555 243.03707 
Q 110.905555 243.03707 111.295555 242.61957 
Q 111.685555 242.20207 111.685555 241.47457 
Q 111.685555 239.95957 109.648055 238.58457 
z
M 114.748055 239.32707 
L 119.780555 232.50707 
L 120.733055 232.50707 
L 120.733055 239.32707 
L 121.703055 239.32707 
L 121.703055 240.94457 
L 120.733055 240.94457 
L 120.733055 243.31957 
L 118.585555 243.31957 
L 118.585555 240.94457 
L 114.748055 240.94457 
L 114.748055 239.32707 
z
M 115.508055 239.32707 
L 118.585555 239.32707 
L 118.585555 235.14707 
L 115.508055 239.32707 
z
M 124.350555 240.91207 
Q 124.898055 240.91207 125.275555 241.29707 
Q 125.655555 241.67957 125.655555 242.21707 
Q 125.655555 242.75707 125.273055 243.13707 
Q 124.890555 243.51457 124.350555 243.51457 
Q 123.810555 243.51457 123.430555 243.13707 
Q 123.053055 242.75707 123.053055 242.21707 
Q 123.053055 241.67957 123.430555 241.29707 
Q 123.810555 240.91207 124.350555 240.91207 
z
M 133.865555 232.50707 
L 133.865555 232.72457 
Q 132.453055 233.08457 131.595555 233.65207 
Q 130.740555 234.21707 130.243055 235.02707 
Q 129.748055 235.83457 129.475555 237.02957 
Q 129.820555 236.79707 130.045555 236.72457 
Q 130.553055 236.56957 131.070555 236.56957 
Q 132.258055 236.56957 133.050555 237.43457 
Q 133.843055 238.29707 133.843055 239.78707 
Q 133.843055 240.83457 133.413055 241.70957 
Q 132.983055 242.58457 132.193055 243.06207 
Q 131.405555 243.53957 130.508055 243.53957 
Q 129.530555 243.53957 128.700555 243.00457 
Q 127.873055 242.46707 127.408055 241.43707 
Q 126.945555 240.40457 126.945555 239.19457 
Q 126.945555 237.41207 127.800555 235.87707 
Q 128.655555 234.34207 130.228055 233.43207 
Q 131.803055 232.52207 133.865555 232.50707 
z
M 129.373055 237.66207 
Q 129.310555 238.74207 129.310555 239.24207 
Q 129.310555 240.31957 129.518055 241.32707 
Q 129.725555 242.33457 130.085555 242.74207 
Q 130.343055 243.02957 130.695555 243.02957 
Q 131.053055 243.02957 131.333055 242.61207 
Q 131.615555 242.19457 131.615555 240.91207 
Q 131.615555 238.75707 131.093055 237.93707 
Q 130.758055 237.40457 130.185555 237.40457 
Q 129.873055 237.40457 129.373055 237.66207 
z
"/>
   </g>
   <g id="text_25">
    <path d="M 358.592197 305.387927 
L 358.592197 305.115427 
Q 359.482197 304.855427 359.824697 304.632927 
Q 360.169697 304.410427 360.419697 303.955427 
Q 360.669697 303.497927 360.669697 303.027927 
Q 360.669697 302.380427 360.197197 301.915427 
Q 359.724697 301.450427 359.022197 301.450427 
Q 357.927197 301.450427 357.162197 302.605427 
L 356.872197 302.505427 
Q 357.434697 301.200427 358.314697 300.545427 
Q 359.194697 299.887927 360.272197 299.887927 
Q 361.372197 299.887927 362.087197 300.560427 
Q 362.802197 301.230427 362.802197 302.130427 
Q 362.802197 302.715427 362.469697 303.260427 
Q 362.139697 303.802927 361.427197 304.215427 
Q 362.342197 304.660427 362.822197 305.312927 
Q 363.302197 305.965427 363.302197 306.950427 
Q 363.302197 308.605427 362.102197 309.767927 
Q 360.904697 310.927927 358.889697 310.927927 
Q 357.544697 310.927927 356.927197 310.480427 
Q 356.482197 310.167927 356.482197 309.677927 
Q 356.482197 309.317927 356.739697 309.065427 
Q 356.997197 308.810427 357.334697 308.810427 
Q 357.592197 308.810427 357.819697 308.917927 
Q 357.944697 308.980427 358.704697 309.602927 
Q 359.467197 310.222927 360.132197 310.222927 
Q 360.709697 310.222927 361.122197 309.767927 
Q 361.537197 309.310427 361.537197 308.605427 
Q 361.537197 307.535427 360.787197 306.632927 
Q 360.037197 305.730427 358.592197 305.387927 
z
M 370.849697 310.700427 
L 364.614697 310.700427 
L 364.614697 310.527927 
Q 367.482197 307.115427 368.094697 305.935427 
Q 368.709697 304.755427 368.709697 303.630427 
Q 368.709697 302.810427 368.202197 302.267927 
Q 367.694697 301.722927 366.959697 301.722927 
Q 365.757197 301.722927 365.092197 302.927927 
L 364.802197 302.825427 
Q 365.224697 301.325427 366.084697 300.607927 
Q 366.944697 299.887927 368.069697 299.887927 
Q 368.872197 299.887927 369.537197 300.262927 
Q 370.202197 300.637927 370.577197 301.290427 
Q 370.952197 301.942927 370.952197 302.512927 
Q 370.952197 303.552927 370.372197 304.622927 
Q 369.584697 306.067927 366.927197 308.652927 
L 369.217197 308.652927 
Q 370.059697 308.652927 370.314697 308.582927 
Q 370.569697 308.512927 370.732197 308.345427 
Q 370.897197 308.177927 371.162197 307.637927 
L 371.444697 307.637927 
L 370.849697 310.700427 
z
M 374.224697 308.292927 
Q 374.772197 308.292927 375.149697 308.677927 
Q 375.529697 309.060427 375.529697 309.597927 
Q 375.529697 310.137927 375.147197 310.517927 
Q 374.764697 310.895427 374.224697 310.895427 
Q 373.684697 310.895427 373.304697 310.517927 
Q 372.927197 310.137927 372.927197 309.597927 
Q 372.927197 309.060427 373.304697 308.677927 
Q 373.684697 308.292927 374.224697 308.292927 
z
M 381.434697 299.887927 
L 381.434697 308.552927 
Q 381.434697 309.527927 381.519697 309.797927 
Q 381.607197 310.067927 381.879697 310.240427 
Q 382.154697 310.410427 382.757197 310.410427 
L 382.997197 310.410427 
L 382.997197 310.700427 
L 377.419697 310.700427 
L 377.419697 310.410427 
L 377.702197 310.410427 
Q 378.382197 310.410427 378.669697 310.255427 
Q 378.959697 310.097927 379.059697 309.825427 
Q 379.162197 309.552927 379.162197 308.552927 
L 379.162197 303.060427 
Q 379.162197 302.325427 379.092197 302.142927 
Q 379.022197 301.957927 378.829697 301.830427 
Q 378.639697 301.700427 378.389697 301.700427 
Q 377.989697 301.700427 377.419697 301.950427 
L 377.279697 301.667927 
L 381.177197 299.887927 
L 381.434697 299.887927 
z
" style="stroke: #ffffff; stroke-width: 3.8"/>
    <path d="M 358.592197 305.387927 
L 358.592197 305.115427 
Q 359.482197 304.855427 359.824697 304.632927 
Q 360.169697 304.410427 360.419697 303.955427 
Q 360.669697 303.497927 360.669697 303.027927 
Q 360.669697 302.380427 360.197197 301.915427 
Q 359.724697 301.450427 359.022197 301.450427 
Q 357.927197 301.450427 357.162197 302.605427 
L 356.872197 302.505427 
Q 357.434697 301.200427 358.314697 300.545427 
Q 359.194697 299.887927 360.272197 299.887927 
Q 361.372197 299.887927 362.087197 300.560427 
Q 362.802197 301.230427 362.802197 302.130427 
Q 362.802197 302.715427 362.469697 303.260427 
Q 362.139697 303.802927 361.427197 304.215427 
Q 362.342197 304.660427 362.822197 305.312927 
Q 363.302197 305.965427 363.302197 306.950427 
Q 363.302197 308.605427 362.102197 309.767927 
Q 360.904697 310.927927 358.889697 310.927927 
Q 357.544697 310.927927 356.927197 310.480427 
Q 356.482197 310.167927 356.482197 309.677927 
Q 356.482197 309.317927 356.739697 309.065427 
Q 356.997197 308.810427 357.334697 308.810427 
Q 357.592197 308.810427 357.819697 308.917927 
Q 357.944697 308.980427 358.704697 309.602927 
Q 359.467197 310.222927 360.132197 310.222927 
Q 360.709697 310.222927 361.122197 309.767927 
Q 361.537197 309.310427 361.537197 308.605427 
Q 361.537197 307.535427 360.787197 306.632927 
Q 360.037197 305.730427 358.592197 305.387927 
z
M 370.849697 310.700427 
L 364.614697 310.700427 
L 364.614697 310.527927 
Q 367.482197 307.115427 368.094697 305.935427 
Q 368.709697 304.755427 368.709697 303.630427 
Q 368.709697 302.810427 368.202197 302.267927 
Q 367.694697 301.722927 366.959697 301.722927 
Q 365.757197 301.722927 365.092197 302.927927 
L 364.802197 302.825427 
Q 365.224697 301.325427 366.084697 300.607927 
Q 366.944697 299.887927 368.069697 299.887927 
Q 368.872197 299.887927 369.537197 300.262927 
Q 370.202197 300.637927 370.577197 301.290427 
Q 370.952197 301.942927 370.952197 302.512927 
Q 370.952197 303.552927 370.372197 304.622927 
Q 369.584697 306.067927 366.927197 308.652927 
L 369.217197 308.652927 
Q 370.059697 308.652927 370.314697 308.582927 
Q 370.569697 308.512927 370.732197 308.345427 
Q 370.897197 308.177927 371.162197 307.637927 
L 371.444697 307.637927 
L 370.849697 310.700427 
z
M 374.224697 308.292927 
Q 374.772197 308.292927 375.149697 308.677927 
Q 375.529697 309.060427 375.529697 309.597927 
Q 375.529697 310.137927 375.147197 310.517927 
Q 374.764697 310.895427 374.224697 310.895427 
Q 373.684697 310.895427 373.304697 310.517927 
Q 372.927197 310.137927 372.927197 309.597927 
Q 372.927197 309.060427 373.304697 308.677927 
Q 373.684697 308.292927 374.224697 308.292927 
z
M 381.434697 299.887927 
L 381.434697 308.552927 
Q 381.434697 309.527927 381.519697 309.797927 
Q 381.607197 310.067927 381.879697 310.240427 
Q 382.154697 310.410427 382.757197 310.410427 
L 382.997197 310.410427 
L 382.997197 310.700427 
L 377.419697 310.700427 
L 377.419697 310.410427 
L 377.702197 310.410427 
Q 378.382197 310.410427 378.669697 310.255427 
Q 378.959697 310.097927 379.059697 309.825427 
Q 379.162197 309.552927 379.162197 308.552927 
L 379.162197 303.060427 
Q 379.162197 302.325427 379.092197 302.142927 
Q 379.022197 301.957927 378.829697 301.830427 
Q 378.639697 301.700427 378.389697 301.700427 
Q 377.989697 301.700427 377.419697 301.950427 
L 377.279697 301.667927 
L 381.177197 299.887927 
L 381.434697 299.887927 
z
"/>
   </g>
   <g id="text_26">
    <path d="M 358.662197 214.52333 
L 363.622197 214.52333 
L 362.834697 216.54083 
L 358.662197 216.54083 
L 358.264697 217.59583 
Q 360.959697 217.69583 362.412197 218.93833 
Q 363.607197 219.96083 363.607197 221.48583 
Q 363.607197 222.46083 363.052197 223.39583 
Q 362.497197 224.32833 361.489697 224.83333 
Q 360.482197 225.33833 359.279697 225.33833 
Q 357.982197 225.33833 357.287197 224.85333 
Q 356.802197 224.50833 356.802197 224.07083 
Q 356.802197 223.73583 357.054697 223.47833 
Q 357.309697 223.22083 357.647197 223.22083 
Q 357.952197 223.22083 358.264697 223.34583 
Q 358.577197 223.47083 359.334697 224.00083 
Q 359.809697 224.32833 360.154697 224.45333 
Q 360.397197 224.54833 360.702197 224.54833 
Q 361.342197 224.54833 361.789697 224.08083 
Q 362.239697 223.61083 362.239697 222.95333 
Q 362.239697 221.57833 360.864697 220.72083 
Q 359.489697 219.86083 357.397197 219.86083 
Q 357.184697 219.86083 356.764697 219.86833 
L 358.662197 214.52333 
z
M 367.059697 225.33833 
L 369.944697 216.59583 
L 367.747197 216.59583 
Q 366.459697 216.59583 365.809697 216.93083 
Q 365.357197 217.16583 365.059697 217.81333 
L 364.764697 217.81333 
L 365.529697 214.52333 
L 371.842197 214.52333 
L 368.287197 225.33833 
L 367.059697 225.33833 
z
M 374.224697 222.71083 
Q 374.772197 222.71083 375.149697 223.09583 
Q 375.529697 223.47833 375.529697 224.01583 
Q 375.529697 224.55583 375.147197 224.93583 
Q 374.764697 225.31333 374.224697 225.31333 
Q 373.684697 225.31333 373.304697 224.93583 
Q 372.927197 224.55583 372.927197 224.01583 
Q 372.927197 223.47833 373.304697 223.09583 
Q 373.684697 222.71083 374.224697 222.71083 
z
M 382.849697 225.11833 
L 376.614697 225.11833 
L 376.614697 224.94583 
Q 379.482197 221.53333 380.094697 220.35333 
Q 380.709697 219.17333 380.709697 218.04833 
Q 380.709697 217.22833 380.202197 216.68583 
Q 379.694697 216.14083 378.959697 216.14083 
Q 377.757197 216.14083 377.092197 217.34583 
L 376.802197 217.24333 
Q 377.224697 215.74333 378.084697 215.02583 
Q 378.944697 214.30583 380.069697 214.30583 
Q 380.872197 214.30583 381.537197 214.68083 
Q 382.202197 215.05583 382.577197 215.70833 
Q 382.952197 216.36083 382.952197 216.93083 
Q 382.952197 217.97083 382.372197 219.04083 
Q 381.584697 220.48583 378.927197 223.07083 
L 381.217197 223.07083 
Q 382.059697 223.07083 382.314697 223.00083 
Q 382.569697 222.93083 382.732197 222.76333 
Q 382.897197 222.59583 383.162197 222.05583 
L 383.444697 222.05583 
L 382.849697 225.11833 
z
" style="stroke: #ffffff; stroke-width: 3.8"/>
    <path d="M 358.662197 214.52333 
L 363.622197 214.52333 
L 362.834697 216.54083 
L 358.662197 216.54083 
L 358.264697 217.59583 
Q 360.959697 217.69583 362.412197 218.93833 
Q 363.607197 219.96083 363.607197 221.48583 
Q 363.607197 222.46083 363.052197 223.39583 
Q 362.497197 224.32833 361.489697 224.83333 
Q 360.482197 225.33833 359.279697 225.33833 
Q 357.982197 225.33833 357.287197 224.85333 
Q 356.802197 224.50833 356.802197 224.07083 
Q 356.802197 223.73583 357.054697 223.47833 
Q 357.309697 223.22083 357.647197 223.22083 
Q 357.952197 223.22083 358.264697 223.34583 
Q 358.577197 223.47083 359.334697 224.00083 
Q 359.809697 224.32833 360.154697 224.45333 
Q 360.397197 224.54833 360.702197 224.54833 
Q 361.342197 224.54833 361.789697 224.08083 
Q 362.239697 223.61083 362.239697 222.95333 
Q 362.239697 221.57833 360.864697 220.72083 
Q 359.489697 219.86083 357.397197 219.86083 
Q 357.184697 219.86083 356.764697 219.86833 
L 358.662197 214.52333 
z
M 367.059697 225.33833 
L 369.944697 216.59583 
L 367.747197 216.59583 
Q 366.459697 216.59583 365.809697 216.93083 
Q 365.357197 217.16583 365.059697 217.81333 
L 364.764697 217.81333 
L 365.529697 214.52333 
L 371.842197 214.52333 
L 368.287197 225.33833 
L 367.059697 225.33833 
z
M 374.224697 222.71083 
Q 374.772197 222.71083 375.149697 223.09583 
Q 375.529697 223.47833 375.529697 224.01583 
Q 375.529697 224.55583 375.147197 224.93583 
Q 374.764697 225.31333 374.224697 225.31333 
Q 373.684697 225.31333 373.304697 224.93583 
Q 372.927197 224.55583 372.927197 224.01583 
Q 372.927197 223.47833 373.304697 223.09583 
Q 373.684697 222.71083 374.224697 222.71083 
z
M 382.849697 225.11833 
L 376.614697 225.11833 
L 376.614697 224.94583 
Q 379.482197 221.53333 380.094697 220.35333 
Q 380.709697 219.17333 380.709697 218.04833 
Q 380.709697 217.22833 380.202197 216.68583 
Q 379.694697 216.14083 378.959697 216.14083 
Q 377.757197 216.14083 377.092197 217.34583 
L 376.802197 217.24333 
Q 377.224697 215.74333 378.084697 215.02583 
Q 378.944697 214.30583 380.069697 214.30583 
Q 380.872197 214.30583 381.537197 214.68083 
Q 382.202197 215.05583 382.577197 215.70833 
Q 382.952197 216.36083 382.952197 216.93083 
Q 382.952197 217.97083 382.372197 219.04083 
Q 381.584697 220.48583 378.927197 223.07083 
L 381.217197 223.07083 
Q 382.059697 223.07083 382.314697 223.00083 
Q 382.569697 222.93083 382.732197 222.76333 
Q 382.897197 222.59583 383.162197 222.05583 
L 383.444697 222.05583 
L 382.849697 225.11833 
z
"/>
   </g>
   <g id="text_27">
    <path d="M 359.059697 129.367375 
L 361.944697 120.624875 
L 359.747197 120.624875 
Q 358.459697 120.624875 357.809697 120.959875 
Q 357.357197 121.194875 357.059697 121.842375 
L 356.764697 121.842375 
L 357.529697 118.552375 
L 363.842197 118.552375 
L 360.287197 129.367375 
L 359.059697 129.367375 
z
M 367.059697 129.367375 
L 369.944697 120.624875 
L 367.747197 120.624875 
Q 366.459697 120.624875 365.809697 120.959875 
Q 365.357197 121.194875 365.059697 121.842375 
L 364.764697 121.842375 
L 365.529697 118.552375 
L 371.842197 118.552375 
L 368.287197 129.367375 
L 367.059697 129.367375 
z
M 374.224697 126.739875 
Q 374.772197 126.739875 375.149697 127.124875 
Q 375.529697 127.507375 375.529697 128.044875 
Q 375.529697 128.584875 375.147197 128.964875 
Q 374.764697 129.342375 374.224697 129.342375 
Q 373.684697 129.342375 373.304697 128.964875 
Q 372.927197 128.584875 372.927197 128.044875 
Q 372.927197 127.507375 373.304697 127.124875 
Q 373.684697 126.739875 374.224697 126.739875 
z
M 376.622197 125.154875 
L 381.654697 118.334875 
L 382.607197 118.334875 
L 382.607197 125.154875 
L 383.577197 125.154875 
L 383.577197 126.772375 
L 382.607197 126.772375 
L 382.607197 129.147375 
L 380.459697 129.147375 
L 380.459697 126.772375 
L 376.622197 126.772375 
L 376.622197 125.154875 
z
M 377.382197 125.154875 
L 380.459697 125.154875 
L 380.459697 120.974875 
L 377.382197 125.154875 
z
" style="stroke: #ffffff; stroke-width: 3.8"/>
    <path d="M 359.059697 129.367375 
L 361.944697 120.624875 
L 359.747197 120.624875 
Q 358.459697 120.624875 357.809697 120.959875 
Q 357.357197 121.194875 357.059697 121.842375 
L 356.764697 121.842375 
L 357.529697 118.552375 
L 363.842197 118.552375 
L 360.287197 129.367375 
L 359.059697 129.367375 
z
M 367.059697 129.367375 
L 369.944697 120.624875 
L 367.747197 120.624875 
Q 366.459697 120.624875 365.809697 120.959875 
Q 365.357197 121.194875 365.059697 121.842375 
L 364.764697 121.842375 
L 365.529697 118.552375 
L 371.842197 118.552375 
L 368.287197 129.367375 
L 367.059697 129.367375 
z
M 374.224697 126.739875 
Q 374.772197 126.739875 375.149697 127.124875 
Q 375.529697 127.507375 375.529697 128.044875 
Q 375.529697 128.584875 375.147197 128.964875 
Q 374.764697 129.342375 374.224697 129.342375 
Q 373.684697 129.342375 373.304697 128.964875 
Q 372.927197 128.584875 372.927197 128.044875 
Q 372.927197 127.507375 373.304697 127.124875 
Q 373.684697 126.739875 374.224697 126.739875 
z
M 376.622197 125.154875 
L 381.654697 118.334875 
L 382.607197 118.334875 
L 382.607197 125.154875 
L 383.577197 125.154875 
L 383.577197 126.772375 
L 382.607197 126.772375 
L 382.607197 129.147375 
L 380.459697 129.147375 
L 380.459697 126.772375 
L 376.622197 126.772375 
L 376.622197 125.154875 
z
M 377.382197 125.154875 
L 380.459697 125.154875 
L 380.459697 120.974875 
L 377.382197 125.154875 
z
"/>
   </g>
   <g id="text_28">
    <path d="M 574.591172 235.704677 
L 579.551172 235.704677 
L 578.763672 237.722177 
L 574.591172 237.722177 
L 574.193672 238.777177 
Q 576.888672 238.877177 578.341172 240.119677 
Q 579.536172 241.142177 579.536172 242.667177 
Q 579.536172 243.642177 578.981172 244.577177 
Q 578.426172 245.509677 577.418672 246.014677 
Q 576.411172 246.519677 575.208672 246.519677 
Q 573.911172 246.519677 573.216172 246.034677 
Q 572.731172 245.689677 572.731172 245.252177 
Q 572.731172 244.917177 572.983672 244.659677 
Q 573.238672 244.402177 573.576172 244.402177 
Q 573.881172 244.402177 574.193672 244.527177 
Q 574.506172 244.652177 575.263672 245.182177 
Q 575.738672 245.509677 576.083672 245.634677 
Q 576.326172 245.729677 576.631172 245.729677 
Q 577.271172 245.729677 577.718672 245.262177 
Q 578.168672 244.792177 578.168672 244.134677 
Q 578.168672 242.759677 576.793672 241.902177 
Q 575.418672 241.042177 573.326172 241.042177 
Q 573.113672 241.042177 572.693672 241.049677 
L 574.591172 235.704677 
z
M 587.668672 235.487177 
L 587.668672 235.704677 
Q 586.256172 236.064677 585.398672 236.632177 
Q 584.543672 237.197177 584.046172 238.007177 
Q 583.551172 238.814677 583.278672 240.009677 
Q 583.623672 239.777177 583.848672 239.704677 
Q 584.356172 239.549677 584.873672 239.549677 
Q 586.061172 239.549677 586.853672 240.414677 
Q 587.646172 241.277177 587.646172 242.767177 
Q 587.646172 243.814677 587.216172 244.689677 
Q 586.786172 245.564677 585.996172 246.042177 
Q 585.208672 246.519677 584.311172 246.519677 
Q 583.333672 246.519677 582.503672 245.984677 
Q 581.676172 245.447177 581.211172 244.417177 
Q 580.748672 243.384677 580.748672 242.174677 
Q 580.748672 240.392177 581.603672 238.857177 
Q 582.458672 237.322177 584.031172 236.412177 
Q 585.606172 235.502177 587.668672 235.487177 
z
M 583.176172 240.642177 
Q 583.113672 241.722177 583.113672 242.222177 
Q 583.113672 243.299677 583.321172 244.307177 
Q 583.528672 245.314677 583.888672 245.722177 
Q 584.146172 246.009677 584.498672 246.009677 
Q 584.856172 246.009677 585.136172 245.592177 
Q 585.418672 245.174677 585.418672 243.892177 
Q 585.418672 241.737177 584.896172 240.917177 
Q 584.561172 240.384677 583.988672 240.384677 
Q 583.676172 240.384677 583.176172 240.642177 
z
M 590.153672 243.892177 
Q 590.701172 243.892177 591.078672 244.277177 
Q 591.458672 244.659677 591.458672 245.197177 
Q 591.458672 245.737177 591.076172 246.117177 
Q 590.693672 246.494677 590.153672 246.494677 
Q 589.613672 246.494677 589.233672 246.117177 
Q 588.856172 245.737177 588.856172 245.197177 
Q 588.856172 244.659677 589.233672 244.277177 
Q 589.613672 243.892177 590.153672 243.892177 
z
M 594.591172 235.704677 
L 599.551172 235.704677 
L 598.763672 237.722177 
L 594.591172 237.722177 
L 594.193672 238.777177 
Q 596.888672 238.877177 598.341172 240.119677 
Q 599.536172 241.142177 599.536172 242.667177 
Q 599.536172 243.642177 598.981172 244.577177 
Q 598.426172 245.509677 597.418672 246.014677 
Q 596.411172 246.519677 595.208672 246.519677 
Q 593.911172 246.519677 593.216172 246.034677 
Q 592.731172 245.689677 592.731172 245.252177 
Q 592.731172 244.917177 592.983672 244.659677 
Q 593.238672 244.402177 593.576172 244.402177 
Q 593.881172 244.402177 594.193672 244.527177 
Q 594.506172 244.652177 595.263672 245.182177 
Q 595.738672 245.509677 596.083672 245.634677 
Q 596.326172 245.729677 596.631172 245.729677 
Q 597.271172 245.729677 597.718672 245.262177 
Q 598.168672 244.792177 598.168672 244.134677 
Q 598.168672 242.759677 596.793672 241.902177 
Q 595.418672 241.042177 593.326172 241.042177 
Q 593.113672 241.042177 592.693672 241.049677 
L 594.591172 235.704677 
z
" style="stroke: #ffffff; stroke-width: 3.8"/>
    <path d="M 574.591172 235.704677 
L 579.551172 235.704677 
L 578.763672 237.722177 
L 574.591172 237.722177 
L 574.193672 238.777177 
Q 576.888672 238.877177 578.341172 240.119677 
Q 579.536172 241.142177 579.536172 242.667177 
Q 579.536172 243.642177 578.981172 244.577177 
Q 578.426172 245.509677 577.418672 246.014677 
Q 576.411172 246.519677 575.208672 246.519677 
Q 573.911172 246.519677 573.216172 246.034677 
Q 572.731172 245.689677 572.731172 245.252177 
Q 572.731172 244.917177 572.983672 244.659677 
Q 573.238672 244.402177 573.576172 244.402177 
Q 573.881172 244.402177 574.193672 244.527177 
Q 574.506172 244.652177 575.263672 245.182177 
Q 575.738672 245.509677 576.083672 245.634677 
Q 576.326172 245.729677 576.631172 245.729677 
Q 577.271172 245.729677 577.718672 245.262177 
Q 578.168672 244.792177 578.168672 244.134677 
Q 578.168672 242.759677 576.793672 241.902177 
Q 575.418672 241.042177 573.326172 241.042177 
Q 573.113672 241.042177 572.693672 241.049677 
L 574.591172 235.704677 
z
M 587.668672 235.487177 
L 587.668672 235.704677 
Q 586.256172 236.064677 585.398672 236.632177 
Q 584.543672 237.197177 584.046172 238.007177 
Q 583.551172 238.814677 583.278672 240.009677 
Q 583.623672 239.777177 583.848672 239.704677 
Q 584.356172 239.549677 584.873672 239.549677 
Q 586.061172 239.549677 586.853672 240.414677 
Q 587.646172 241.277177 587.646172 242.767177 
Q 587.646172 243.814677 587.216172 244.689677 
Q 586.786172 245.564677 585.996172 246.042177 
Q 585.208672 246.519677 584.311172 246.519677 
Q 583.333672 246.519677 582.503672 245.984677 
Q 581.676172 245.447177 581.211172 244.417177 
Q 580.748672 243.384677 580.748672 242.174677 
Q 580.748672 240.392177 581.603672 238.857177 
Q 582.458672 237.322177 584.031172 236.412177 
Q 585.606172 235.502177 587.668672 235.487177 
z
M 583.176172 240.642177 
Q 583.113672 241.722177 583.113672 242.222177 
Q 583.113672 243.299677 583.321172 244.307177 
Q 583.528672 245.314677 583.888672 245.722177 
Q 584.146172 246.009677 584.498672 246.009677 
Q 584.856172 246.009677 585.136172 245.592177 
Q 585.418672 245.174677 585.418672 243.892177 
Q 585.418672 241.737177 584.896172 240.917177 
Q 584.561172 240.384677 583.988672 240.384677 
Q 583.676172 240.384677 583.176172 240.642177 
z
M 590.153672 243.892177 
Q 590.701172 243.892177 591.078672 244.277177 
Q 591.458672 244.659677 591.458672 245.197177 
Q 591.458672 245.737177 591.076172 246.117177 
Q 590.693672 246.494677 590.153672 246.494677 
Q 589.613672 246.494677 589.233672 246.117177 
Q 588.856172 245.737177 588.856172 245.197177 
Q 588.856172 244.659677 589.233672 244.277177 
Q 589.613672 243.892177 590.153672 243.892177 
z
M 594.591172 235.704677 
L 599.551172 235.704677 
L 598.763672 237.722177 
L 594.591172 237.722177 
L 594.193672 238.777177 
Q 596.888672 238.877177 598.341172 240.119677 
Q 599.536172 241.142177 599.536172 242.667177 
Q 599.536172 243.642177 598.981172 244.577177 
Q 598.426172 245.509677 597.418672 246.014677 
Q 596.411172 246.519677 595.208672 246.519677 
Q 593.911172 246.519677 593.216172 246.034677 
Q 592.731172 245.689677 592.731172 245.252177 
Q 592.731172 244.917177 592.983672 244.659677 
Q 593.238672 244.402177 593.576172 244.402177 
Q 593.881172 244.402177 594.193672 244.527177 
Q 594.506172 244.652177 595.263672 245.182177 
Q 595.738672 245.509677 596.083672 245.634677 
Q 596.326172 245.729677 596.631172 245.729677 
Q 597.271172 245.729677 597.718672 245.262177 
Q 598.168672 244.792177 598.168672 244.134677 
Q 598.168672 242.759677 596.793672 241.902177 
Q 595.418672 241.042177 593.326172 241.042177 
Q 593.113672 241.042177 592.693672 241.049677 
L 594.591172 235.704677 
z
"/>
   </g>
   <g id="text_29">
    <path d="M 572.671063 388.566517 
Q 572.671063 390.054798 572.253876 391.343861 
Q 572.003095 392.133704 571.58122 392.639954 
Q 571.161688 393.143861 570.627313 393.441517 
Q 570.092938 393.739173 569.46247 393.739173 
Q 568.745282 393.739173 568.166376 393.373548 
Q 567.58747 393.005579 567.139813 392.323548 
Q 566.81872 391.826673 566.577313 390.999329 
Q 566.260907 389.879017 566.260907 388.683704 
Q 566.260907 387.066517 566.715595 385.709486 
Q 567.088251 384.589173 567.84997 383.993861 
Q 568.611688 383.396204 569.46247 383.396204 
Q 570.327313 383.396204 571.077313 383.986829 
Q 571.827313 384.575111 572.178876 385.571204 
Q 572.671063 386.939954 572.671063 388.566517 
z
M 570.414032 388.552454 
Q 570.414032 385.943861 570.385907 385.512611 
Q 570.310907 384.495423 570.034345 384.136829 
Q 569.851532 383.902454 569.441376 383.902454 
Q 569.12497 383.902454 568.942157 384.078236 
Q 568.670282 384.333704 568.574188 384.982923 
Q 568.480438 385.629798 568.480438 389.504017 
Q 568.480438 391.613392 568.628095 392.330579 
Q 568.738251 392.850892 568.942157 393.026673 
Q 569.148407 393.202454 569.483563 393.202454 
Q 569.851532 393.202454 570.034345 392.968079 
Q 570.341376 392.557923 570.385907 391.702454 
L 570.414032 388.552454 
z
M 575.094501 391.275892 
Q 575.607782 391.275892 575.961688 391.636829 
Q 576.317938 391.995423 576.317938 392.499329 
Q 576.317938 393.005579 575.959345 393.361829 
Q 575.600751 393.715736 575.094501 393.715736 
Q 574.588251 393.715736 574.232001 393.361829 
Q 573.878095 393.005579 573.878095 392.499329 
Q 573.878095 391.995423 574.232001 391.636829 
Q 574.588251 391.275892 575.094501 391.275892 
z
M 577.342157 389.789954 
L 582.060126 383.396204 
L 582.953095 383.396204 
L 582.953095 389.789954 
L 583.86247 389.789954 
L 583.86247 391.306361 
L 582.953095 391.306361 
L 582.953095 393.532923 
L 580.939813 393.532923 
L 580.939813 391.306361 
L 577.342157 391.306361 
L 577.342157 389.789954 
z
M 578.054657 389.789954 
L 580.939813 389.789954 
L 580.939813 385.871204 
L 578.054657 389.789954 
z
" style="fill: #404040; stroke: #ffffff; stroke-width: 3.8"/>
    <path d="M 572.671063 388.566517 
Q 572.671063 390.054798 572.253876 391.343861 
Q 572.003095 392.133704 571.58122 392.639954 
Q 571.161688 393.143861 570.627313 393.441517 
Q 570.092938 393.739173 569.46247 393.739173 
Q 568.745282 393.739173 568.166376 393.373548 
Q 567.58747 393.005579 567.139813 392.323548 
Q 566.81872 391.826673 566.577313 390.999329 
Q 566.260907 389.879017 566.260907 388.683704 
Q 566.260907 387.066517 566.715595 385.709486 
Q 567.088251 384.589173 567.84997 383.993861 
Q 568.611688 383.396204 569.46247 383.396204 
Q 570.327313 383.396204 571.077313 383.986829 
Q 571.827313 384.575111 572.178876 385.571204 
Q 572.671063 386.939954 572.671063 388.566517 
z
M 570.414032 388.552454 
Q 570.414032 385.943861 570.385907 385.512611 
Q 570.310907 384.495423 570.034345 384.136829 
Q 569.851532 383.902454 569.441376 383.902454 
Q 569.12497 383.902454 568.942157 384.078236 
Q 568.670282 384.333704 568.574188 384.982923 
Q 568.480438 385.629798 568.480438 389.504017 
Q 568.480438 391.613392 568.628095 392.330579 
Q 568.738251 392.850892 568.942157 393.026673 
Q 569.148407 393.202454 569.483563 393.202454 
Q 569.851532 393.202454 570.034345 392.968079 
Q 570.341376 392.557923 570.385907 391.702454 
L 570.414032 388.552454 
z
M 575.094501 391.275892 
Q 575.607782 391.275892 575.961688 391.636829 
Q 576.317938 391.995423 576.317938 392.499329 
Q 576.317938 393.005579 575.959345 393.361829 
Q 575.600751 393.715736 575.094501 393.715736 
Q 574.588251 393.715736 574.232001 393.361829 
Q 573.878095 393.005579 573.878095 392.499329 
Q 573.878095 391.995423 574.232001 391.636829 
Q 574.588251 391.275892 575.094501 391.275892 
z
M 577.342157 389.789954 
L 582.060126 383.396204 
L 582.953095 383.396204 
L 582.953095 389.789954 
L 583.86247 389.789954 
L 583.86247 391.306361 
L 582.953095 391.306361 
L 582.953095 393.532923 
L 580.939813 393.532923 
L 580.939813 391.306361 
L 577.342157 391.306361 
L 577.342157 389.789954 
z
M 578.054657 389.789954 
L 580.939813 389.789954 
L 580.939813 385.871204 
L 578.054657 389.789954 
z
" style="fill: #404040"/>
   </g>
   <g id="text_30">
    <path d="M 565.035986 335.828071 
L 569.685986 335.828071 
L 568.947705 337.719477 
L 565.035986 337.719477 
L 564.66333 338.70854 
Q 567.189893 338.80229 568.551611 339.967134 
Q 569.671924 340.925727 569.671924 342.355415 
Q 569.671924 343.269477 569.151611 344.14604 
Q 568.631299 345.020259 567.686768 345.493696 
Q 566.742236 345.967134 565.614893 345.967134 
Q 564.398486 345.967134 563.746924 345.512446 
Q 563.292236 345.189009 563.292236 344.778852 
Q 563.292236 344.46479 563.528955 344.223384 
Q 563.768018 343.981977 564.084424 343.981977 
Q 564.370361 343.981977 564.66333 344.099165 
Q 564.956299 344.216352 565.666455 344.713227 
Q 566.111768 345.020259 566.435205 345.137446 
Q 566.662549 345.226509 566.948486 345.226509 
Q 567.548486 345.226509 567.968018 344.788227 
Q 568.389893 344.347602 568.389893 343.731196 
Q 568.389893 342.442134 567.10083 341.638227 
Q 565.811768 340.831977 563.850049 340.831977 
Q 563.65083 340.831977 563.25708 340.839009 
L 565.035986 335.828071 
z
M 575.135205 335.624165 
L 575.135205 343.747602 
Q 575.135205 344.661665 575.214893 344.91479 
Q 575.296924 345.167915 575.552393 345.329634 
Q 575.810205 345.489009 576.375049 345.489009 
L 576.600049 345.489009 
L 576.600049 345.760884 
L 571.371143 345.760884 
L 571.371143 345.489009 
L 571.635986 345.489009 
Q 572.273486 345.489009 572.543018 345.343696 
Q 572.814893 345.19604 572.908643 344.940571 
Q 573.004736 344.685102 573.004736 343.747602 
L 573.004736 338.598384 
Q 573.004736 337.909321 572.939111 337.738227 
Q 572.873486 337.56479 572.693018 337.445259 
Q 572.514893 337.323384 572.280518 337.323384 
Q 571.905518 337.323384 571.371143 337.557759 
L 571.239893 337.292915 
L 574.893799 335.624165 
L 575.135205 335.624165 
z
M 579.62583 343.503852 
Q 580.139111 343.503852 580.493018 343.86479 
Q 580.849268 344.223384 580.849268 344.72729 
Q 580.849268 345.23354 580.490674 345.58979 
Q 580.13208 345.943696 579.62583 345.943696 
Q 579.11958 345.943696 578.76333 345.58979 
Q 578.409424 345.23354 578.409424 344.72729 
Q 578.409424 344.223384 578.76333 343.86479 
Q 579.11958 343.503852 579.62583 343.503852 
z
M 588.452393 340.794477 
Q 588.452393 342.282759 588.035205 343.571821 
Q 587.784424 344.361665 587.362549 344.867915 
Q 586.943018 345.371821 586.408643 345.669477 
Q 585.874268 345.967134 585.243799 345.967134 
Q 584.526611 345.967134 583.947705 345.601509 
Q 583.368799 345.23354 582.921143 344.551509 
Q 582.600049 344.054634 582.358643 343.22729 
Q 582.042236 342.106977 582.042236 340.911665 
Q 582.042236 339.294477 582.496924 337.937446 
Q 582.86958 336.817134 583.631299 336.221821 
Q 584.393018 335.624165 585.243799 335.624165 
Q 586.108643 335.624165 586.858643 336.21479 
Q 587.608643 336.803071 587.960205 337.799165 
Q 588.452393 339.167915 588.452393 340.794477 
z
M 586.195361 340.780415 
Q 586.195361 338.171821 586.167236 337.740571 
Q 586.092236 336.723384 585.815674 336.36479 
Q 585.632861 336.130415 585.222705 336.130415 
Q 584.906299 336.130415 584.723486 336.306196 
Q 584.451611 336.561665 584.355518 337.210884 
Q 584.261768 337.857759 584.261768 341.731977 
Q 584.261768 343.841352 584.409424 344.55854 
Q 584.51958 345.078852 584.723486 345.254634 
Q 584.929736 345.430415 585.264893 345.430415 
Q 585.632861 345.430415 585.815674 345.19604 
Q 586.122705 344.785884 586.167236 343.930415 
L 586.195361 340.780415 
z
" style="fill: #404040; stroke: #ffffff; stroke-width: 3.8"/>
    <path d="M 565.035986 335.828071 
L 569.685986 335.828071 
L 568.947705 337.719477 
L 565.035986 337.719477 
L 564.66333 338.70854 
Q 567.189893 338.80229 568.551611 339.967134 
Q 569.671924 340.925727 569.671924 342.355415 
Q 569.671924 343.269477 569.151611 344.14604 
Q 568.631299 345.020259 567.686768 345.493696 
Q 566.742236 345.967134 565.614893 345.967134 
Q 564.398486 345.967134 563.746924 345.512446 
Q 563.292236 345.189009 563.292236 344.778852 
Q 563.292236 344.46479 563.528955 344.223384 
Q 563.768018 343.981977 564.084424 343.981977 
Q 564.370361 343.981977 564.66333 344.099165 
Q 564.956299 344.216352 565.666455 344.713227 
Q 566.111768 345.020259 566.435205 345.137446 
Q 566.662549 345.226509 566.948486 345.226509 
Q 567.548486 345.226509 567.968018 344.788227 
Q 568.389893 344.347602 568.389893 343.731196 
Q 568.389893 342.442134 567.10083 341.638227 
Q 565.811768 340.831977 563.850049 340.831977 
Q 563.65083 340.831977 563.25708 340.839009 
L 565.035986 335.828071 
z
M 575.135205 335.624165 
L 575.135205 343.747602 
Q 575.135205 344.661665 575.214893 344.91479 
Q 575.296924 345.167915 575.552393 345.329634 
Q 575.810205 345.489009 576.375049 345.489009 
L 576.600049 345.489009 
L 576.600049 345.760884 
L 571.371143 345.760884 
L 571.371143 345.489009 
L 571.635986 345.489009 
Q 572.273486 345.489009 572.543018 345.343696 
Q 572.814893 345.19604 572.908643 344.940571 
Q 573.004736 344.685102 573.004736 343.747602 
L 573.004736 338.598384 
Q 573.004736 337.909321 572.939111 337.738227 
Q 572.873486 337.56479 572.693018 337.445259 
Q 572.514893 337.323384 572.280518 337.323384 
Q 571.905518 337.323384 571.371143 337.557759 
L 571.239893 337.292915 
L 574.893799 335.624165 
L 575.135205 335.624165 
z
M 579.62583 343.503852 
Q 580.139111 343.503852 580.493018 343.86479 
Q 580.849268 344.223384 580.849268 344.72729 
Q 580.849268 345.23354 580.490674 345.58979 
Q 580.13208 345.943696 579.62583 345.943696 
Q 579.11958 345.943696 578.76333 345.58979 
Q 578.409424 345.23354 578.409424 344.72729 
Q 578.409424 344.223384 578.76333 343.86479 
Q 579.11958 343.503852 579.62583 343.503852 
z
M 588.452393 340.794477 
Q 588.452393 342.282759 588.035205 343.571821 
Q 587.784424 344.361665 587.362549 344.867915 
Q 586.943018 345.371821 586.408643 345.669477 
Q 585.874268 345.967134 585.243799 345.967134 
Q 584.526611 345.967134 583.947705 345.601509 
Q 583.368799 345.23354 582.921143 344.551509 
Q 582.600049 344.054634 582.358643 343.22729 
Q 582.042236 342.106977 582.042236 340.911665 
Q 582.042236 339.294477 582.496924 337.937446 
Q 582.86958 336.817134 583.631299 336.221821 
Q 584.393018 335.624165 585.243799 335.624165 
Q 586.108643 335.624165 586.858643 336.21479 
Q 587.608643 336.803071 587.960205 337.799165 
Q 588.452393 339.167915 588.452393 340.794477 
z
M 586.195361 340.780415 
Q 586.195361 338.171821 586.167236 337.740571 
Q 586.092236 336.723384 585.815674 336.36479 
Q 585.632861 336.130415 585.222705 336.130415 
Q 584.906299 336.130415 584.723486 336.306196 
Q 584.451611 336.561665 584.355518 337.210884 
Q 584.261768 337.857759 584.261768 341.731977 
Q 584.261768 343.841352 584.409424 344.55854 
Q 584.51958 345.078852 584.723486 345.254634 
Q 584.929736 345.430415 585.264893 345.430415 
Q 585.632861 345.430415 585.815674 345.19604 
Q 586.122705 344.785884 586.167236 343.930415 
L 586.195361 340.780415 
z
" style="fill: #404040"/>
   </g>
   <g id="text_31">
    <path d="M 537.055631 313.277272 
Q 537.055631 314.765553 536.638443 316.054616 
Q 536.387662 316.844459 535.965787 317.350709 
Q 535.546256 317.854616 535.011881 318.152272 
Q 534.477506 318.449928 533.847037 318.449928 
Q 533.12985 318.449928 532.550943 318.084303 
Q 531.972037 317.716334 531.524381 317.034303 
Q 531.203287 316.537428 530.961881 315.710084 
Q 530.645475 314.589772 530.645475 313.394459 
Q 530.645475 311.777272 531.100162 310.420241 
Q 531.472818 309.299928 532.234537 308.704616 
Q 532.996256 308.106959 533.847037 308.106959 
Q 534.711881 308.106959 535.461881 308.697584 
Q 536.211881 309.285866 536.563443 310.281959 
Q 537.055631 311.650709 537.055631 313.277272 
z
M 534.7986 313.263209 
Q 534.7986 310.654616 534.770475 310.223366 
Q 534.695475 309.206178 534.418912 308.847584 
Q 534.2361 308.613209 533.825943 308.613209 
Q 533.509537 308.613209 533.326725 308.788991 
Q 533.05485 309.044459 532.958756 309.693678 
Q 532.865006 310.340553 532.865006 314.214772 
Q 532.865006 316.324147 533.012662 317.041334 
Q 533.122818 317.561647 533.326725 317.737428 
Q 533.532975 317.913209 533.868131 317.913209 
Q 534.2361 317.913209 534.418912 317.678834 
Q 534.725943 317.268678 534.770475 316.413209 
L 534.7986 313.263209 
z
M 539.479068 315.986647 
Q 539.99235 315.986647 540.346256 316.347584 
Q 540.702506 316.706178 540.702506 317.210084 
Q 540.702506 317.716334 540.343912 318.072584 
Q 539.985318 318.426491 539.479068 318.426491 
Q 538.972818 318.426491 538.616568 318.072584 
Q 538.262662 317.716334 538.262662 317.210084 
Q 538.262662 316.706178 538.616568 316.347584 
Q 538.972818 315.986647 539.479068 315.986647 
z
M 546.238443 308.106959 
L 546.238443 316.230397 
Q 546.238443 317.144459 546.318131 317.397584 
Q 546.400162 317.650709 546.655631 317.812428 
Q 546.913443 317.971803 547.478287 317.971803 
L 547.703287 317.971803 
L 547.703287 318.243678 
L 542.474381 318.243678 
L 542.474381 317.971803 
L 542.739225 317.971803 
Q 543.376725 317.971803 543.646256 317.826491 
Q 543.918131 317.678834 544.011881 317.423366 
Q 544.107975 317.167897 544.107975 316.230397 
L 544.107975 311.081178 
Q 544.107975 310.392116 544.04235 310.221022 
Q 543.976725 310.047584 543.796256 309.928053 
Q 543.618131 309.806178 543.383756 309.806178 
Q 543.008756 309.806178 542.474381 310.040553 
L 542.343131 309.775709 
L 545.997037 308.106959 
L 546.238443 308.106959 
z
" style="fill: #404040; stroke: #ffffff; stroke-width: 3.8"/>
    <path d="M 537.055631 313.277272 
Q 537.055631 314.765553 536.638443 316.054616 
Q 536.387662 316.844459 535.965787 317.350709 
Q 535.546256 317.854616 535.011881 318.152272 
Q 534.477506 318.449928 533.847037 318.449928 
Q 533.12985 318.449928 532.550943 318.084303 
Q 531.972037 317.716334 531.524381 317.034303 
Q 531.203287 316.537428 530.961881 315.710084 
Q 530.645475 314.589772 530.645475 313.394459 
Q 530.645475 311.777272 531.100162 310.420241 
Q 531.472818 309.299928 532.234537 308.704616 
Q 532.996256 308.106959 533.847037 308.106959 
Q 534.711881 308.106959 535.461881 308.697584 
Q 536.211881 309.285866 536.563443 310.281959 
Q 537.055631 311.650709 537.055631 313.277272 
z
M 534.7986 313.263209 
Q 534.7986 310.654616 534.770475 310.223366 
Q 534.695475 309.206178 534.418912 308.847584 
Q 534.2361 308.613209 533.825943 308.613209 
Q 533.509537 308.613209 533.326725 308.788991 
Q 533.05485 309.044459 532.958756 309.693678 
Q 532.865006 310.340553 532.865006 314.214772 
Q 532.865006 316.324147 533.012662 317.041334 
Q 533.122818 317.561647 533.326725 317.737428 
Q 533.532975 317.913209 533.868131 317.913209 
Q 534.2361 317.913209 534.418912 317.678834 
Q 534.725943 317.268678 534.770475 316.413209 
L 534.7986 313.263209 
z
M 539.479068 315.986647 
Q 539.99235 315.986647 540.346256 316.347584 
Q 540.702506 316.706178 540.702506 317.210084 
Q 540.702506 317.716334 540.343912 318.072584 
Q 539.985318 318.426491 539.479068 318.426491 
Q 538.972818 318.426491 538.616568 318.072584 
Q 538.262662 317.716334 538.262662 317.210084 
Q 538.262662 316.706178 538.616568 316.347584 
Q 538.972818 315.986647 539.479068 315.986647 
z
M 546.238443 308.106959 
L 546.238443 316.230397 
Q 546.238443 317.144459 546.318131 317.397584 
Q 546.400162 317.650709 546.655631 317.812428 
Q 546.913443 317.971803 547.478287 317.971803 
L 547.703287 317.971803 
L 547.703287 318.243678 
L 542.474381 318.243678 
L 542.474381 317.971803 
L 542.739225 317.971803 
Q 543.376725 317.971803 543.646256 317.826491 
Q 543.918131 317.678834 544.011881 317.423366 
Q 544.107975 317.167897 544.107975 316.230397 
L 544.107975 311.081178 
Q 544.107975 310.392116 544.04235 310.221022 
Q 543.976725 310.047584 543.796256 309.928053 
Q 543.618131 309.806178 543.383756 309.806178 
Q 543.008756 309.806178 542.474381 310.040553 
L 542.343131 309.775709 
L 545.997037 308.106959 
L 546.238443 308.106959 
z
" style="fill: #404040"/>
   </g>
   <g id="text_32">
    <path d="M 326.616742 363.974159 
L 326.616742 364.178065 
Q 325.292523 364.515565 324.488617 365.047596 
Q 323.687054 365.577284 323.220648 366.336659 
Q 322.756586 367.09369 322.501117 368.214003 
Q 322.824554 367.996034 323.035492 367.928065 
Q 323.511273 367.782753 323.996429 367.782753 
Q 325.109711 367.782753 325.852679 368.59369 
Q 326.595648 369.402284 326.595648 370.799159 
Q 326.595648 371.78119 326.192523 372.601503 
Q 325.789398 373.421815 325.048773 373.869471 
Q 324.310492 374.317128 323.469086 374.317128 
Q 322.552679 374.317128 321.774554 373.815565 
Q 320.998773 373.311659 320.562836 372.346034 
Q 320.129242 371.378065 320.129242 370.24369 
Q 320.129242 368.572596 320.930804 367.133534 
Q 321.732367 365.694471 323.206586 364.841346 
Q 324.683148 363.988221 326.616742 363.974159 
z
M 322.405023 368.806971 
Q 322.346429 369.819471 322.346429 370.288221 
Q 322.346429 371.298378 322.540961 372.242909 
Q 322.735492 373.18744 323.072992 373.569471 
Q 323.314398 373.839003 323.644867 373.839003 
Q 323.980023 373.839003 324.242523 373.447596 
Q 324.507367 373.05619 324.507367 371.853846 
Q 324.507367 369.833534 324.017523 369.064784 
Q 323.703461 368.565565 323.166742 368.565565 
Q 322.873773 368.565565 322.405023 368.806971 
z
M 331.955804 363.974159 
L 331.955804 372.097596 
Q 331.955804 373.011659 332.035492 373.264784 
Q 332.117523 373.517909 332.372992 373.679628 
Q 332.630804 373.839003 333.195648 373.839003 
L 333.420648 373.839003 
L 333.420648 374.110878 
L 328.191742 374.110878 
L 328.191742 373.839003 
L 328.456586 373.839003 
Q 329.094086 373.839003 329.363617 373.69369 
Q 329.635492 373.546034 329.729242 373.290565 
Q 329.825336 373.035096 329.825336 372.097596 
L 329.825336 366.948378 
Q 329.825336 366.259315 329.759711 366.088221 
Q 329.694086 365.914784 329.513617 365.795253 
Q 329.335492 365.673378 329.101117 365.673378 
Q 328.726117 365.673378 328.191742 365.907753 
L 328.060492 365.642909 
L 331.714398 363.974159 
L 331.955804 363.974159 
z
M 336.446429 371.853846 
Q 336.959711 371.853846 337.313617 372.214784 
Q 337.669867 372.573378 337.669867 373.077284 
Q 337.669867 373.583534 337.311273 373.939784 
Q 336.952679 374.29369 336.446429 374.29369 
Q 335.940179 374.29369 335.583929 373.939784 
Q 335.230023 373.583534 335.230023 373.077284 
Q 335.230023 372.573378 335.583929 372.214784 
Q 335.940179 371.853846 336.446429 371.853846 
z
M 345.272992 369.144471 
Q 345.272992 370.632753 344.855804 371.921815 
Q 344.605023 372.711659 344.183148 373.217909 
Q 343.763617 373.721815 343.229242 374.019471 
Q 342.694867 374.317128 342.064398 374.317128 
Q 341.347211 374.317128 340.768304 373.951503 
Q 340.189398 373.583534 339.741742 372.901503 
Q 339.420648 372.404628 339.179242 371.577284 
Q 338.862836 370.456971 338.862836 369.261659 
Q 338.862836 367.644471 339.317523 366.28744 
Q 339.690179 365.167128 340.451898 364.571815 
Q 341.213617 363.974159 342.064398 363.974159 
Q 342.929242 363.974159 343.679242 364.564784 
Q 344.429242 365.153065 344.780804 366.149159 
Q 345.272992 367.517909 345.272992 369.144471 
z
M 343.015961 369.130409 
Q 343.015961 366.521815 342.987836 366.090565 
Q 342.912836 365.073378 342.636273 364.714784 
Q 342.453461 364.480409 342.043304 364.480409 
Q 341.726898 364.480409 341.544086 364.65619 
Q 341.272211 364.911659 341.176117 365.560878 
Q 341.082367 366.207753 341.082367 370.081971 
Q 341.082367 372.191346 341.230023 372.908534 
Q 341.340179 373.428846 341.544086 373.604628 
Q 341.750336 373.780409 342.085492 373.780409 
Q 342.453461 373.780409 342.636273 373.546034 
Q 342.943304 373.135878 342.987836 372.280409 
L 343.015961 369.130409 
z
" style="fill: #404040; stroke: #ffffff; stroke-width: 3.8"/>
    <path d="M 326.616742 363.974159 
L 326.616742 364.178065 
Q 325.292523 364.515565 324.488617 365.047596 
Q 323.687054 365.577284 323.220648 366.336659 
Q 322.756586 367.09369 322.501117 368.214003 
Q 322.824554 367.996034 323.035492 367.928065 
Q 323.511273 367.782753 323.996429 367.782753 
Q 325.109711 367.782753 325.852679 368.59369 
Q 326.595648 369.402284 326.595648 370.799159 
Q 326.595648 371.78119 326.192523 372.601503 
Q 325.789398 373.421815 325.048773 373.869471 
Q 324.310492 374.317128 323.469086 374.317128 
Q 322.552679 374.317128 321.774554 373.815565 
Q 320.998773 373.311659 320.562836 372.346034 
Q 320.129242 371.378065 320.129242 370.24369 
Q 320.129242 368.572596 320.930804 367.133534 
Q 321.732367 365.694471 323.206586 364.841346 
Q 324.683148 363.988221 326.616742 363.974159 
z
M 322.405023 368.806971 
Q 322.346429 369.819471 322.346429 370.288221 
Q 322.346429 371.298378 322.540961 372.242909 
Q 322.735492 373.18744 323.072992 373.569471 
Q 323.314398 373.839003 323.644867 373.839003 
Q 323.980023 373.839003 324.242523 373.447596 
Q 324.507367 373.05619 324.507367 371.853846 
Q 324.507367 369.833534 324.017523 369.064784 
Q 323.703461 368.565565 323.166742 368.565565 
Q 322.873773 368.565565 322.405023 368.806971 
z
M 331.955804 363.974159 
L 331.955804 372.097596 
Q 331.955804 373.011659 332.035492 373.264784 
Q 332.117523 373.517909 332.372992 373.679628 
Q 332.630804 373.839003 333.195648 373.839003 
L 333.420648 373.839003 
L 333.420648 374.110878 
L 328.191742 374.110878 
L 328.191742 373.839003 
L 328.456586 373.839003 
Q 329.094086 373.839003 329.363617 373.69369 
Q 329.635492 373.546034 329.729242 373.290565 
Q 329.825336 373.035096 329.825336 372.097596 
L 329.825336 366.948378 
Q 329.825336 366.259315 329.759711 366.088221 
Q 329.694086 365.914784 329.513617 365.795253 
Q 329.335492 365.673378 329.101117 365.673378 
Q 328.726117 365.673378 328.191742 365.907753 
L 328.060492 365.642909 
L 331.714398 363.974159 
L 331.955804 363.974159 
z
M 336.446429 371.853846 
Q 336.959711 371.853846 337.313617 372.214784 
Q 337.669867 372.573378 337.669867 373.077284 
Q 337.669867 373.583534 337.311273 373.939784 
Q 336.952679 374.29369 336.446429 374.29369 
Q 335.940179 374.29369 335.583929 373.939784 
Q 335.230023 373.583534 335.230023 373.077284 
Q 335.230023 372.573378 335.583929 372.214784 
Q 335.940179 371.853846 336.446429 371.853846 
z
M 345.272992 369.144471 
Q 345.272992 370.632753 344.855804 371.921815 
Q 344.605023 372.711659 344.183148 373.217909 
Q 343.763617 373.721815 343.229242 374.019471 
Q 342.694867 374.317128 342.064398 374.317128 
Q 341.347211 374.317128 340.768304 373.951503 
Q 340.189398 373.583534 339.741742 372.901503 
Q 339.420648 372.404628 339.179242 371.577284 
Q 338.862836 370.456971 338.862836 369.261659 
Q 338.862836 367.644471 339.317523 366.28744 
Q 339.690179 365.167128 340.451898 364.571815 
Q 341.213617 363.974159 342.064398 363.974159 
Q 342.929242 363.974159 343.679242 364.564784 
Q 344.429242 365.153065 344.780804 366.149159 
Q 345.272992 367.517909 345.272992 369.144471 
z
M 343.015961 369.130409 
Q 343.015961 366.521815 342.987836 366.090565 
Q 342.912836 365.073378 342.636273 364.714784 
Q 342.453461 364.480409 342.043304 364.480409 
Q 341.726898 364.480409 341.544086 364.65619 
Q 341.272211 364.911659 341.176117 365.560878 
Q 341.082367 366.207753 341.082367 370.081971 
Q 341.082367 372.191346 341.230023 372.908534 
Q 341.340179 373.428846 341.544086 373.604628 
Q 341.750336 373.780409 342.085492 373.780409 
Q 342.453461 373.780409 342.636273 373.546034 
Q 342.943304 373.135878 342.987836 372.280409 
L 343.015961 369.130409 
z
" style="fill: #404040"/>
   </g>
  </g>
 </g>
 <defs>
  <clipPath id="pf09a6a8c9d">
   <rect x="7.2" y="51.034687" width="730.764" height="433.506316"/>
  </clipPath>
 </defs>
</svg>
