<?xml version="1.0" encoding="utf-8" standalone="no"?>
<!DOCTYPE svg PUBLIC "-//W3C//DTD SVG 1.1//EN"
  "http://www.w3.org/Graphics/SVG/1.1/DTD/svg11.dtd">
<svg xmlns:xlink="http://www.w3.org/1999/xlink" width="745.164pt" height="496.714687pt" viewBox="0 0 745.164 496.714687" xmlns="http://www.w3.org/2000/svg" version="1.1">
 <metadata>
  <rdf:RDF xmlns:dc="http://purl.org/dc/elements/1.1/" xmlns:cc="http://creativecommons.org/ns#" xmlns:rdf="http://www.w3.org/1999/02/22-rdf-syntax-ns#">
   <cc:Work>
    <dc:type rdf:resource="http://purl.org/dc/dcmitype/StillImage"/>
    <dc:date>2026-07-13T16:58:37.492128</dc:date>
    <dc:format>image/svg+xml</dc:format>
    <dc:creator>
     <cc:Agent>
      <dc:title>Matplotlib v3.10.8, https://matplotlib.org/</dc:title>
     </cc:Agent>
    </dc:creator>
   </cc:Work>
  </rdf:RDF>
 </metadata>
 <defs>
  <style type="text/css">*{stroke-linejoin: round; stroke-linecap: butt}</style>
 </defs>
 <g id="figure_1">
  <g id="patch_1">
   <path d="M 0 496.714687 
L 745.164 496.714687 
L 745.164 0 
L 0 0 
L 0 496.714687 
z
" style="fill: none"/>
  </g>
  <g id="axes_1">
   <g id="patch_2">
    <path d="M 120.350555 443.372647 
Q 120.350555 460.24607 120.350555 473.667451 
" clip-path="url(#p6e033fd3f4)" style="fill: none; stroke: #111111; stroke-width: 3.087601; stroke-linejoin: miter; stroke-linecap: round"/>
    <path d="M 124.282587 465.803386 
L 120.350555 473.667451 
L 116.418523 465.803386 
z
" clip-path="url(#p6e033fd3f4)" style="fill: #111111; stroke: #111111; stroke-width: 3.087601; stroke-linejoin: miter; stroke-linecap: round"/>
   </g>
   <g id="patch_3">
    <path d="M 120.350555 337.11709 
Q 120.350555 366.244209 120.350555 390.212456 
" clip-path="url(#p6e033fd3f4)" style="fill: none; stroke: #111111; stroke-width: 4.614235; stroke-linejoin: miter; stroke-linecap: round"/>
    <path d="M 124.77111 381.371346 
L 120.350555 390.212456 
L 115.93 381.371346 
z
" clip-path="url(#p6e033fd3f4)" style="fill: #111111; stroke: #111111; stroke-width: 4.614235; stroke-linejoin: miter; stroke-linecap: round"/>
   </g>
   <g id="patch_4">
    <path d="M 120.350555 185.77657 
Q 120.350555 225.192475 120.350555 258.123782 
" clip-path="url(#p6e033fd3f4)" style="fill: none; stroke: #111111; stroke-width: 5.8; stroke-linejoin: miter; stroke-linecap: round"/>
    <path d="M 125.150555 248.523782 
L 120.350555 258.123782 
L 115.550555 248.523782 
z
" clip-path="url(#p6e033fd3f4)" style="fill: #111111; stroke: #111111; stroke-width: 5.8; stroke-linejoin: miter; stroke-linecap: round"/>
   </g>
   <g id="patch_5">
    <path d="M 370.224697 195.711086 
Q 370.224697 232.819277 370.224697 268.009037 
" clip-path="url(#p6e033fd3f4)" style="fill: none; stroke: #111111; stroke-width: 1.715896; stroke-linejoin: miter; stroke-linecap: round"/>
    <path d="M 373.717783 261.022864 
L 370.224697 268.009037 
L 366.73161 261.022864 
z
" clip-path="url(#p6e033fd3f4)" style="fill: #111111; stroke: #111111; stroke-width: 1.715896; stroke-linejoin: miter; stroke-linecap: round"/>
   </g>
   <g id="patch_6">
    <path d="M 586.153672 179.635294 
Q 586.153672 214.3626 586.153672 245.722019 
" clip-path="url(#p6e033fd3f4)" style="fill: none; stroke: #111111; stroke-width: 3.012329; stroke-linejoin: miter; stroke-linecap: round"/>
    <path d="M 590.061618 237.906128 
L 586.153672 245.722019 
L 582.245727 237.906128 
z
" clip-path="url(#p6e033fd3f4)" style="fill: #111111; stroke: #111111; stroke-width: 3.012329; stroke-linejoin: miter; stroke-linecap: round"/>
   </g>
   <g id="line2d_1">
    <path d="M 165.610777 477.119493 
L 550.322663 477.119493 
" clip-path="url(#p6e033fd3f4)" style="fill: none; stroke-dasharray: 5.6,4.2; stroke-dashoffset: 0; stroke: #404040; stroke-width: 1.4"/>
   </g>
   <g id="line2d_2">
    <path d="M 165.610777 395.371327 
L 550.322663 395.371327 
" clip-path="url(#p6e033fd3f4)" style="fill: none; stroke-dasharray: 5.6,4.2; stroke-dashoffset: 0; stroke: #404040; stroke-width: 1.4"/>
   </g>
   <g id="line2d_3">
    <path d="M 415.484919 269.927467 
L 560.694797 269.927467 
" clip-path="url(#p6e033fd3f4)" style="fill: none; stroke-dasharray: 5.6,4.2; stroke-dashoffset: 0; stroke: #404040; stroke-width: 1.4"/>
   </g>
   <g id="patch_7">
    <path d="M 665.359061 249.089906 
Q 597.973926 360.538601 531.248014 470.897005 
" clip-path="url(#p6e033fd3f4)" style="fill: none; stroke: #404040; stroke-width: 1.139582; stroke-linejoin: miter; stroke-linecap: round"/>
    <path d="M 536.755558 467.418433 
L 531.248014 470.897005 
L 531.769682 464.403827 
z
" clip-path="url(#p6e033fd3f4)" style="fill: #404040; stroke: #404040; stroke-width: 1.139582; stroke-linejoin: miter; stroke-linecap: round"/>
   </g>
   <g id="patch_8">
    <path d="M 620.098839 249.089906 
Q 577.428521 319.662612 536.22055 387.816733 
" clip-path="url(#p6e033fd3f4)" style="fill: none; stroke: #404040; stroke-width: 2.527925; stroke-linejoin: miter; stroke-linecap: round"/>
    <path d="M 542.603004 383.785566 
L 536.22055 387.816733 
L 536.825088 380.292069 
z
" clip-path="url(#p6e033fd3f4)" style="fill: #404040; stroke: #404040; stroke-width: 2.527925; stroke-linejoin: miter; stroke-linecap: round"/>
   </g>
   <g id="patch_9">
    <path d="M 574.838617 249.089906 
Q 542.355916 258.661016 511.530956 267.743669 
" clip-path="url(#p6e033fd3f4)" style="fill: none; stroke: #404040; stroke-width: 1.545754; stroke-linejoin: miter; stroke-linecap: round"/>
    <path d="M 518.24117 268.944657 
L 511.530956 267.743669 
L 516.517875 263.096091 
z
" clip-path="url(#p6e033fd3f4)" style="fill: #404040; stroke: #404040; stroke-width: 1.545754; stroke-linejoin: miter; stroke-linecap: round"/>
   </g>
   <g id="patch_10">
    <path d="M 370.224697 269.927467 
Q 334.23682 330.074904 299.393839 388.308848 
" clip-path="url(#p6e033fd3f4)" style="fill: none; stroke: #404040; stroke-width: 1.99444; stroke-linejoin: miter; stroke-linecap: round"/>
    <path d="M 305.422363 384.462084 
L 299.393839 388.308848 
L 299.933542 381.17797 
z
" clip-path="url(#p6e033fd3f4)" style="fill: #404040; stroke: #404040; stroke-width: 1.99444; stroke-linejoin: miter; stroke-linecap: round"/>
   </g>
   <g id="line2d_4">
    <path d="M 120.350555 395.371327 
L 120.350555 429.118173 
" clip-path="url(#p6e033fd3f4)" style="fill: none; stroke: #111111; stroke-width: 3.087601"/>
   </g>
   <g id="line2d_5">
    <path d="M 120.350555 264.608379 
L 120.350555 322.862617 
" clip-path="url(#p6e033fd3f4)" style="fill: none; stroke: #111111; stroke-width: 4.614235"/>
   </g>
   <g id="line2d_6">
    <path d="M 120.350555 92.690287 
L 120.350555 171.522097 
" clip-path="url(#p6e033fd3f4)" style="fill: none; stroke: #111111; stroke-width: 5.8"/>
   </g>
   <g id="line2d_7">
    <path d="M 370.224697 107.240231 
L 370.224697 181.456613 
" clip-path="url(#p6e033fd3f4)" style="fill: none; stroke: #111111; stroke-width: 1.715896"/>
   </g>
   <g id="line2d_8">
    <path d="M 586.153672 95.926208 
L 586.153672 165.38082 
" clip-path="url(#p6e033fd3f4)" style="fill: none; stroke: #111111; stroke-width: 3.012329"/>
   </g>
   <g id="line2d_9">
    <path d="M 75.090333 477.119493 
L 165.610777 477.119493 
" clip-path="url(#p6e033fd3f4)" style="fill: none; stroke: #111111; stroke-width: 3.6; stroke-linecap: round"/>
   </g>
   <g id="line2d_10">
    <path d="M 75.090333 395.371327 
L 165.610777 395.371327 
" clip-path="url(#p6e033fd3f4)" style="fill: none; stroke: #111111; stroke-width: 3.6; stroke-linecap: round"/>
   </g>
   <g id="line2d_11">
    <path d="M 75.090333 264.608379 
L 165.610777 264.608379 
" clip-path="url(#p6e033fd3f4)" style="fill: none; stroke: #111111; stroke-width: 3.6; stroke-linecap: round"/>
   </g>
   <g id="line2d_12">
    <path d="M 75.090333 92.690287 
L 165.610777 92.690287 
" clip-path="url(#p6e033fd3f4)" style="fill: none; stroke: #111111; stroke-width: 3.6; stroke-linecap: round"/>
   </g>
   <g id="line2d_13">
    <path d="M 324.964475 269.927467 
L 415.484919 269.927467 
" clip-path="url(#p6e033fd3f4)" style="fill: none; stroke: #111111; stroke-width: 3.6; stroke-linecap: round"/>
   </g>
   <g id="line2d_14">
    <path d="M 324.964475 107.240231 
L 415.484919 107.240231 
" clip-path="url(#p6e033fd3f4)" style="fill: none; stroke: #111111; stroke-width: 3.6; stroke-linecap: round"/>
   </g>
   <g id="line2d_15">
    <path d="M 574.838617 249.089906 
L 665.359061 249.089906 
" clip-path="url(#p6e033fd3f4)" style="fill: none; stroke: #111111; stroke-width: 3.6; stroke-linecap: round"/>
   </g>
   <g id="line2d_16">
    <path d="M 574.838617 95.926208 
L 665.359061 95.926208 
" clip-path="url(#p6e033fd3f4)" style="fill: none; stroke: #111111; stroke-width: 3.6; stroke-linecap: round"/>
   </g>
   <g id="text_1">
    <!-- $^{96}\mathrm{Kr}$ -->
    <g transform="translate(338.582 33.034687) scale(0.34 -0.34)">
     <defs>
      <path id="DejaVuSans-39" d="M 703 97 
L 703 672 
Q 941 559 1184 500 
Q 1428 441 1663 441 
Q 2288 441 2617 861 
Q 2947 1281 2994 2138 
Q 2813 1869 2534 1725 
Q 2256 1581 1919 1581 
Q 1219 1581 811 2004 
Q 403 2428 403 3163 
Q 403 3881 828 4315 
Q 1253 4750 1959 4750 
Q 2769 4750 3195 4129 
Q 3622 3509 3622 2328 
Q 3622 1225 3098 567 
Q 2575 -91 1691 -91 
Q 1453 -91 1209 -44 
Q 966 3 703 97 
z
M 1959 2075 
Q 2384 2075 2632 2365 
Q 2881 2656 2881 3163 
Q 2881 3666 2632 3958 
Q 2384 4250 1959 4250 
Q 1534 4250 1286 3958 
Q 1038 3666 1038 3163 
Q 1038 2656 1286 2365 
Q 1534 2075 1959 2075 
z
" transform="scale(0.015625)"/>
      <path id="DejaVuSans-36" d="M 2113 2584 
Q 1688 2584 1439 2293 
Q 1191 2003 1191 1497 
Q 1191 994 1439 701 
Q 1688 409 2113 409 
Q 2538 409 2786 701 
Q 3034 994 3034 1497 
Q 3034 2003 2786 2293 
Q 2538 2584 2113 2584 
z
M 3366 4563 
L 3366 3988 
Q 3128 4100 2886 4159 
Q 2644 4219 2406 4219 
Q 1781 4219 1451 3797 
Q 1122 3375 1075 2522 
Q 1259 2794 1537 2939 
Q 1816 3084 2150 3084 
Q 2853 3084 3261 2657 
Q 3669 2231 3669 1497 
Q 3669 778 3244 343 
Q 2819 -91 2113 -91 
Q 1303 -91 875 529 
Q 447 1150 447 2328 
Q 447 3434 972 4092 
Q 1497 4750 2381 4750 
Q 2619 4750 2861 4703 
Q 3103 4656 3366 4563 
z
" transform="scale(0.015625)"/>
      <path id="DejaVuSans-4b" d="M 628 4666 
L 1259 4666 
L 1259 2694 
L 3353 4666 
L 4166 4666 
L 1850 2491 
L 4331 0 
L 3500 0 
L 1259 2247 
L 1259 0 
L 628 0 
L 628 4666 
z
" transform="scale(0.015625)"/>
      <path id="DejaVuSans-72" d="M 2631 2963 
Q 2534 3019 2420 3045 
Q 2306 3072 2169 3072 
Q 1681 3072 1420 2755 
Q 1159 2438 1159 1844 
L 1159 0 
L 581 0 
L 581 3500 
L 1159 3500 
L 1159 2956 
Q 1341 3275 1631 3429 
Q 1922 3584 2338 3584 
Q 2397 3584 2469 3576 
Q 2541 3569 2628 3553 
L 2631 2963 
z
" transform="scale(0.015625)"/>
     </defs>
     <use xlink:href="#DejaVuSans-39" transform="translate(0.957031 39.046875) scale(0.7)"/>
     <use xlink:href="#DejaVuSans-36" transform="translate(45.493164 39.046875) scale(0.7)"/>
     <use xlink:href="#DejaVuSans-4b" transform="translate(92.763672 0.765625)"/>
     <use xlink:href="#DejaVuSans-72" transform="translate(158.339844 0.765625)"/>
    </g>
   </g>
   <g id="text_2">
    <!-- 0 -->
    <g transform="translate(46.98525 481.534493) scale(0.16 -0.16)">
     <defs>
      <path id="DejaVuSans-BoldOblique-30" d="M 1913 728 
Q 2153 728 2339 872 
Q 2525 1016 2650 1294 
Q 2738 1491 2809 1742 
Q 2881 1994 2944 2338 
Q 2997 2616 3025 2850 
Q 3053 3084 3053 3250 
Q 3053 3600 2928 3764 
Q 2803 3928 2541 3928 
Q 2297 3928 2112 3789 
Q 1928 3650 1806 3366 
Q 1713 3163 1636 2903 
Q 1559 2644 1503 2338 
Q 1450 2056 1422 1815 
Q 1394 1575 1394 1409 
Q 1394 1063 1522 895 
Q 1650 728 1913 728 
z
M 4225 3072 
Q 4225 2450 4053 1862 
Q 3881 1275 3572 831 
Q 3256 375 2809 142 
Q 2363 -91 1813 -91 
Q 1047 -91 639 343 
Q 231 778 231 1594 
Q 231 2206 401 2795 
Q 572 3384 878 3822 
Q 1200 4281 1644 4515 
Q 2088 4750 2644 4750 
Q 3403 4750 3814 4314 
Q 4225 3878 4225 3072 
z
" transform="scale(0.015625)"/>
     </defs>
     <use xlink:href="#DejaVuSans-BoldOblique-30"/>
    </g>
   </g>
   <g id="text_3">
    <!-- 0⁺ -->
    <g transform="translate(182.58336 482.274728) scale(0.23 -0.23)">
     <defs>
      <path id="TimesNewRomanPS-BoldMT-30" d="M 2966 2119 
Q 2966 1484 2788 934 
Q 2681 597 2501 381 
Q 2322 166 2094 39 
Q 1866 -88 1597 -88 
Q 1291 -88 1044 68 
Q 797 225 606 516 
Q 469 728 366 1081 
Q 231 1559 231 2069 
Q 231 2759 425 3338 
Q 584 3816 909 4070 
Q 1234 4325 1597 4325 
Q 1966 4325 2286 4073 
Q 2606 3822 2756 3397 
Q 2966 2813 2966 2119 
z
M 2003 2125 
Q 2003 3238 1991 3422 
Q 1959 3856 1841 4009 
Q 1763 4109 1588 4109 
Q 1453 4109 1375 4034 
Q 1259 3925 1218 3648 
Q 1178 3372 1178 1719 
Q 1178 819 1241 513 
Q 1288 291 1375 216 
Q 1463 141 1606 141 
Q 1763 141 1841 241 
Q 1972 416 1991 781 
L 2003 2125 
z
" transform="scale(0.015625)"/>
      <path id="DejaVuSerif-Bold-207a" d="M 1916 4344 
L 1916 3441 
L 2950 3441 
L 2950 3044 
L 1916 3044 
L 1916 2141 
L 1463 2141 
L 1463 3044 
L 428 3044 
L 428 3441 
L 1463 3441 
L 1463 4344 
L 1916 4344 
z
" transform="scale(0.015625)"/>
     </defs>
     <use xlink:href="#TimesNewRomanPS-BoldMT-30"/>
     <use xlink:href="#DejaVuSerif-Bold-207a" transform="translate(50 0)"/>
    </g>
   </g>
   <g id="text_4">
    <!-- 528 -->
    <g transform="translate(24.72025 399.786327) scale(0.16 -0.16)">
     <defs>
      <path id="DejaVuSans-BoldOblique-35" d="M 1131 4666 
L 4122 4666 
L 3950 3781 
L 1919 3781 
L 1778 3059 
Q 1916 3097 2064 3117 
Q 2213 3138 2363 3138 
Q 3078 3138 3481 2811 
Q 3884 2484 3884 1906 
Q 3884 988 3262 448 
Q 2641 -91 1575 -91 
Q 1184 -91 815 -14 
Q 447 63 84 219 
L 269 1166 
Q 616 941 942 834 
Q 1269 728 1606 728 
Q 2100 728 2397 986 
Q 2694 1244 2694 1663 
Q 2694 1963 2469 2139 
Q 2244 2316 1856 2316 
Q 1594 2316 1289 2248 
Q 984 2181 622 2041 
L 1131 4666 
z
" transform="scale(0.015625)"/>
      <path id="DejaVuSans-BoldOblique-32" d="M 1581 884 
L 3609 884 
L 3438 0 
L 50 0 
L 225 891 
L 2209 2388 
Q 2534 2638 2704 2894 
Q 2875 3150 2875 3391 
Q 2875 3647 2700 3787 
Q 2525 3928 2209 3928 
Q 1913 3928 1547 3811 
Q 1181 3694 722 3450 
L 922 4441 
Q 1347 4597 1756 4673 
Q 2166 4750 2566 4750 
Q 3278 4750 3687 4442 
Q 4097 4134 4097 3603 
Q 4097 3147 3847 2772 
Q 3597 2397 2747 1759 
L 1581 884 
z
" transform="scale(0.015625)"/>
      <path id="DejaVuSans-BoldOblique-38" d="M 2150 2088 
Q 1784 2088 1539 1839 
Q 1294 1591 1294 1228 
Q 1294 969 1453 817 
Q 1613 666 1888 666 
Q 2259 666 2503 911 
Q 2747 1156 2747 1522 
Q 2747 1781 2586 1934 
Q 2425 2088 2150 2088 
z
M 1381 2484 
Q 1044 2625 876 2850 
Q 709 3075 709 3391 
Q 709 4025 1229 4387 
Q 1750 4750 2669 4750 
Q 3406 4750 3812 4475 
Q 4219 4200 4219 3700 
Q 4219 3256 3936 2940 
Q 3653 2625 3128 2484 
Q 3509 2338 3690 2091 
Q 3872 1844 3872 1466 
Q 3872 747 3311 328 
Q 2750 -91 1772 -91 
Q 1000 -91 570 217 
Q 141 525 141 1075 
Q 141 1572 470 1945 
Q 800 2319 1381 2484 
z
M 2559 3994 
Q 2241 3994 2048 3808 
Q 1856 3622 1856 3316 
Q 1856 3103 1995 2972 
Q 2134 2841 2363 2841 
Q 2681 2841 2873 3027 
Q 3066 3213 3066 3519 
Q 3066 3734 2927 3864 
Q 2788 3994 2559 3994 
z
" transform="scale(0.015625)"/>
     </defs>
     <use xlink:href="#DejaVuSans-BoldOblique-35"/>
     <use xlink:href="#DejaVuSans-BoldOblique-32" transform="translate(69.580078 0)"/>
     <use xlink:href="#DejaVuSans-BoldOblique-38" transform="translate(139.160156 0)"/>
    </g>
   </g>
   <g id="text_5">
    <!-- 2⁺ -->
    <g transform="translate(182.58336 400.526562) scale(0.23 -0.23)">
     <defs>
      <path id="TimesNewRomanPS-BoldMT-32" d="M 2650 0 
L 156 0 
L 156 69 
Q 1303 1434 1548 1906 
Q 1794 2378 1794 2828 
Q 1794 3156 1591 3373 
Q 1388 3591 1094 3591 
Q 613 3591 347 3109 
L 231 3150 
Q 400 3750 744 4037 
Q 1088 4325 1538 4325 
Q 1859 4325 2125 4175 
Q 2391 4025 2541 3764 
Q 2691 3503 2691 3275 
Q 2691 2859 2459 2431 
Q 2144 1853 1081 819 
L 1997 819 
Q 2334 819 2436 847 
Q 2538 875 2603 942 
Q 2669 1009 2775 1225 
L 2888 1225 
L 2650 0 
z
" transform="scale(0.015625)"/>
     </defs>
     <use xlink:href="#TimesNewRomanPS-BoldMT-32"/>
     <use xlink:href="#DejaVuSerif-Bold-207a" transform="translate(50 0)"/>
    </g>
   </g>
   <g id="text_6">
    <!-- 1372 -->
    <g transform="translate(13.58775 269.023379) scale(0.16 -0.16)">
     <defs>
      <path id="DejaVuSans-BoldOblique-31" d="M 441 831 
L 1503 831 
L 2088 3847 
L 953 3622 
L 1113 4441 
L 2241 4666 
L 3384 4666 
L 2644 831 
L 3700 831 
L 3541 0 
L 275 0 
L 441 831 
z
" transform="scale(0.015625)"/>
      <path id="DejaVuSans-BoldOblique-33" d="M 3022 2516 
Q 3375 2434 3572 2187 
Q 3769 1941 3769 1581 
Q 3769 806 3155 357 
Q 2541 -91 1466 -91 
Q 1059 -91 692 -33 
Q 325 25 0 141 
L 178 1069 
Q 456 906 784 817 
Q 1113 728 1441 728 
Q 1969 728 2276 926 
Q 2584 1125 2584 1459 
Q 2584 1738 2350 1877 
Q 2116 2016 1644 2016 
L 1166 2016 
L 1319 2791 
L 1825 2791 
Q 2316 2791 2602 2969 
Q 2888 3147 2888 3450 
Q 2888 3688 2689 3813 
Q 2491 3938 2113 3938 
Q 1847 3938 1534 3869 
Q 1222 3800 884 3669 
L 1056 4550 
Q 1425 4650 1783 4700 
Q 2141 4750 2491 4750 
Q 3281 4750 3679 4487 
Q 4078 4225 4078 3706 
Q 4078 3241 3801 2930 
Q 3525 2619 3022 2516 
z
" transform="scale(0.015625)"/>
      <path id="DejaVuSans-BoldOblique-37" d="M 922 4666 
L 4441 4666 
L 4300 3981 
L 1703 0 
L 500 0 
L 2969 3781 
L 756 3781 
L 922 4666 
z
" transform="scale(0.015625)"/>
     </defs>
     <use xlink:href="#DejaVuSans-BoldOblique-31"/>
     <use xlink:href="#DejaVuSans-BoldOblique-33" transform="translate(69.580078 0)"/>
     <use xlink:href="#DejaVuSans-BoldOblique-37" transform="translate(139.160156 0)"/>
     <use xlink:href="#DejaVuSans-BoldOblique-32" transform="translate(208.740234 0)"/>
    </g>
   </g>
   <g id="text_7">
    <!-- 4⁺ -->
    <g transform="translate(182.58336 269.763614) scale(0.23 -0.23)">
     <defs>
      <path id="TimesNewRomanPS-BoldMT-34" d="M 159 1597 
L 2172 4325 
L 2553 4325 
L 2553 1597 
L 2941 1597 
L 2941 950 
L 2553 950 
L 2553 0 
L 1694 0 
L 1694 950 
L 159 950 
L 159 1597 
z
M 463 1597 
L 1694 1597 
L 1694 3269 
L 463 1597 
z
" transform="scale(0.015625)"/>
     </defs>
     <use xlink:href="#TimesNewRomanPS-BoldMT-34"/>
     <use xlink:href="#DejaVuSerif-Bold-207a" transform="translate(50 0)"/>
    </g>
   </g>
   <g id="text_8">
    <!-- 2481 -->
    <g transform="translate(13.58775 97.105287) scale(0.16 -0.16)">
     <defs>
      <path id="DejaVuSans-BoldOblique-34" d="M 2638 3641 
L 978 1722 
L 2259 1722 
L 2638 3641 
z
M 2606 4666 
L 3975 4666 
L 3397 1722 
L 4063 1722 
L 3897 850 
L 3231 850 
L 3066 0 
L 1925 0 
L 2094 850 
L -6 850 
L 197 1881 
L 2606 4666 
z
" transform="scale(0.015625)"/>
     </defs>
     <use xlink:href="#DejaVuSans-BoldOblique-32"/>
     <use xlink:href="#DejaVuSans-BoldOblique-34" transform="translate(69.580078 0)"/>
     <use xlink:href="#DejaVuSans-BoldOblique-38" transform="translate(139.160156 0)"/>
     <use xlink:href="#DejaVuSans-BoldOblique-31" transform="translate(208.740234 0)"/>
    </g>
   </g>
   <g id="text_9">
    <!-- 6⁺ -->
    <g transform="translate(182.58336 97.845522) scale(0.23 -0.23)">
     <defs>
      <path id="TimesNewRomanPS-BoldMT-36" d="M 3006 4325 
L 3006 4238 
Q 2441 4094 2098 3867 
Q 1756 3641 1557 3317 
Q 1359 2994 1250 2516 
Q 1388 2609 1478 2638 
Q 1681 2700 1888 2700 
Q 2363 2700 2680 2354 
Q 2997 2009 2997 1413 
Q 2997 994 2825 644 
Q 2653 294 2337 103 
Q 2022 -88 1663 -88 
Q 1272 -88 940 126 
Q 609 341 423 753 
Q 238 1166 238 1650 
Q 238 2363 580 2977 
Q 922 3591 1551 3955 
Q 2181 4319 3006 4325 
z
M 1209 2263 
Q 1184 1831 1184 1631 
Q 1184 1200 1267 797 
Q 1350 394 1494 231 
Q 1597 116 1738 116 
Q 1881 116 1993 283 
Q 2106 450 2106 963 
Q 2106 1825 1897 2153 
Q 1763 2366 1534 2366 
Q 1409 2366 1209 2263 
z
" transform="scale(0.015625)"/>
     </defs>
     <use xlink:href="#TimesNewRomanPS-BoldMT-36"/>
     <use xlink:href="#DejaVuSerif-Bold-207a" transform="translate(50 0)"/>
    </g>
   </g>
   <g id="text_10">
    <!-- 1337 -->
    <g transform="translate(263.461892 274.342467) scale(0.16 -0.16)">
     <use xlink:href="#DejaVuSans-BoldOblique-31"/>
     <use xlink:href="#DejaVuSans-BoldOblique-33" transform="translate(69.580078 0)"/>
     <use xlink:href="#DejaVuSans-BoldOblique-33" transform="translate(139.160156 0)"/>
     <use xlink:href="#DejaVuSans-BoldOblique-37" transform="translate(208.740234 0)"/>
    </g>
   </g>
   <g id="text_11">
    <!-- 0⁺ -->
    <g transform="translate(432.457502 275.082701) scale(0.23 -0.23)">
     <use xlink:href="#TimesNewRomanPS-BoldMT-30"/>
     <use xlink:href="#DejaVuSerif-Bold-207a" transform="translate(50 0)"/>
    </g>
   </g>
   <g id="text_12">
    <!-- 2387 -->
    <g transform="translate(263.461892 111.655231) scale(0.16 -0.16)">
     <use xlink:href="#DejaVuSans-BoldOblique-32"/>
     <use xlink:href="#DejaVuSans-BoldOblique-33" transform="translate(69.580078 0)"/>
     <use xlink:href="#DejaVuSans-BoldOblique-38" transform="translate(139.160156 0)"/>
     <use xlink:href="#DejaVuSans-BoldOblique-37" transform="translate(208.740234 0)"/>
    </g>
   </g>
   <g id="text_13">
    <!-- 2⁺ -->
    <g transform="translate(432.457502 112.395466) scale(0.23 -0.23)">
     <use xlink:href="#TimesNewRomanPS-BoldMT-32"/>
     <use xlink:href="#DejaVuSerif-Bold-207a" transform="translate(50 0)"/>
    </g>
   </g>
   <g id="text_14">
    <!-- 1472 -->
    <g transform="translate(513.336034 253.504906) scale(0.16 -0.16)">
     <use xlink:href="#DejaVuSans-BoldOblique-31"/>
     <use xlink:href="#DejaVuSans-BoldOblique-34" transform="translate(69.580078 0)"/>
     <use xlink:href="#DejaVuSans-BoldOblique-37" transform="translate(139.160156 0)"/>
     <use xlink:href="#DejaVuSans-BoldOblique-32" transform="translate(208.740234 0)"/>
    </g>
   </g>
   <g id="text_15">
    <!-- 2⁺ -->
    <g transform="translate(682.331644 254.24514) scale(0.23 -0.23)">
     <use xlink:href="#TimesNewRomanPS-BoldMT-32"/>
     <use xlink:href="#DejaVuSerif-Bold-207a" transform="translate(50 0)"/>
    </g>
   </g>
   <g id="text_16">
    <!-- 2460 -->
    <g transform="translate(513.336034 100.341208) scale(0.16 -0.16)">
     <defs>
      <path id="DejaVuSans-BoldOblique-36" d="M 2316 2303 
Q 1959 2303 1731 2009 
Q 1503 1716 1503 1253 
Q 1503 975 1643 820 
Q 1784 666 2034 666 
Q 2388 666 2617 955 
Q 2847 1244 2847 1684 
Q 2847 1984 2709 2143 
Q 2572 2303 2316 2303 
z
M 4225 4544 
L 4056 3681 
Q 3788 3819 3534 3887 
Q 3281 3956 3028 3956 
Q 2447 3956 2087 3643 
Q 1728 3331 1650 2766 
Q 1894 2925 2151 3001 
Q 2409 3078 2700 3078 
Q 3275 3078 3640 2737 
Q 4006 2397 4006 1869 
Q 4006 1006 3442 454 
Q 2878 -97 1991 -97 
Q 1194 -97 756 354 
Q 319 806 319 1631 
Q 319 2269 512 2848 
Q 706 3428 1056 3847 
Q 1431 4294 1942 4519 
Q 2453 4744 3091 4744 
Q 3384 4744 3662 4694 
Q 3941 4644 4225 4544 
z
" transform="scale(0.015625)"/>
     </defs>
     <use xlink:href="#DejaVuSans-BoldOblique-32"/>
     <use xlink:href="#DejaVuSans-BoldOblique-34" transform="translate(69.580078 0)"/>
     <use xlink:href="#DejaVuSans-BoldOblique-36" transform="translate(139.160156 0)"/>
     <use xlink:href="#DejaVuSans-BoldOblique-30" transform="translate(208.740234 0)"/>
    </g>
   </g>
   <g id="text_17">
    <!-- 3⁺ -->
    <g transform="translate(682.331644 101.081442) scale(0.23 -0.23)">
     <defs>
      <path id="TimesNewRomanPS-BoldMT-33" d="M 947 2125 
L 947 2234 
Q 1303 2338 1440 2427 
Q 1578 2516 1678 2698 
Q 1778 2881 1778 3069 
Q 1778 3328 1589 3514 
Q 1400 3700 1119 3700 
Q 681 3700 375 3238 
L 259 3278 
Q 484 3800 836 4062 
Q 1188 4325 1619 4325 
Q 2059 4325 2345 4056 
Q 2631 3788 2631 3428 
Q 2631 3194 2498 2976 
Q 2366 2759 2081 2594 
Q 2447 2416 2639 2155 
Q 2831 1894 2831 1500 
Q 2831 838 2351 373 
Q 1872 -91 1066 -91 
Q 528 -91 281 88 
Q 103 213 103 409 
Q 103 553 206 654 
Q 309 756 444 756 
Q 547 756 638 713 
Q 688 688 992 439 
Q 1297 191 1563 191 
Q 1794 191 1959 373 
Q 2125 556 2125 838 
Q 2125 1266 1825 1627 
Q 1525 1988 947 2125 
z
" transform="scale(0.015625)"/>
     </defs>
     <use xlink:href="#TimesNewRomanPS-BoldMT-33"/>
     <use xlink:href="#DejaVuSerif-Bold-207a" transform="translate(50 0)"/>
    </g>
   </g>
   <g id="text_18">
    <path d="M 112.975555 439.83166 
L 106.740555 439.83166 
L 106.740555 439.65916 
Q 109.608055 436.24666 110.220555 435.06666 
Q 110.835555 433.88666 110.835555 432.76166 
Q 110.835555 431.94166 110.328055 431.39916 
Q 109.820555 430.85416 109.085555 430.85416 
Q 107.883055 430.85416 107.218055 432.05916 
L 106.928055 431.95666 
Q 107.350555 430.45666 108.210555 429.73916 
Q 109.070555 429.01916 110.195555 429.01916 
Q 110.998055 429.01916 111.663055 429.39416 
Q 112.328055 429.76916 112.703055 430.42166 
Q 113.078055 431.07416 113.078055 431.64416 
Q 113.078055 432.68416 112.498055 433.75416 
Q 111.710555 435.19916 109.053055 437.78416 
L 111.343055 437.78416 
Q 112.185555 437.78416 112.440555 437.71416 
Q 112.695555 437.64416 112.858055 437.47666 
Q 113.023055 437.30916 113.288055 436.76916 
L 113.570555 436.76916 
L 112.975555 439.83166 
z
M 114.748055 435.83916 
L 119.780555 429.01916 
L 120.733055 429.01916 
L 120.733055 435.83916 
L 121.703055 435.83916 
L 121.703055 437.45666 
L 120.733055 437.45666 
L 120.733055 439.83166 
L 118.585555 439.83166 
L 118.585555 437.45666 
L 114.748055 437.45666 
L 114.748055 435.83916 
z
M 115.508055 435.83916 
L 118.585555 435.83916 
L 118.585555 431.65916 
L 115.508055 435.83916 
z
M 124.350555 437.42416 
Q 124.898055 437.42416 125.275555 437.80916 
Q 125.655555 438.19166 125.655555 438.72916 
Q 125.655555 439.26916 125.273055 439.64916 
Q 124.890555 440.02666 124.350555 440.02666 
Q 123.810555 440.02666 123.430555 439.64916 
Q 123.053055 439.26916 123.053055 438.72916 
Q 123.053055 438.19166 123.430555 437.80916 
Q 123.810555 437.42416 124.350555 437.42416 
z
M 126.748055 435.83916 
L 131.780555 429.01916 
L 132.733055 429.01916 
L 132.733055 435.83916 
L 133.703055 435.83916 
L 133.703055 437.45666 
L 132.733055 437.45666 
L 132.733055 439.83166 
L 130.585555 439.83166 
L 130.585555 437.45666 
L 126.748055 437.45666 
L 126.748055 435.83916 
z
M 127.508055 435.83916 
L 130.585555 435.83916 
L 130.585555 431.65916 
L 127.508055 435.83916 
z
" style="stroke: #ffffff; stroke-width: 3.8"/>
    <path d="M 112.975555 439.83166 
L 106.740555 439.83166 
L 106.740555 439.65916 
Q 109.608055 436.24666 110.220555 435.06666 
Q 110.835555 433.88666 110.835555 432.76166 
Q 110.835555 431.94166 110.328055 431.39916 
Q 109.820555 430.85416 109.085555 430.85416 
Q 107.883055 430.85416 107.218055 432.05916 
L 106.928055 431.95666 
Q 107.350555 430.45666 108.210555 429.73916 
Q 109.070555 429.01916 110.195555 429.01916 
Q 110.998055 429.01916 111.663055 429.39416 
Q 112.328055 429.76916 112.703055 430.42166 
Q 113.078055 431.07416 113.078055 431.64416 
Q 113.078055 432.68416 112.498055 433.75416 
Q 111.710555 435.19916 109.053055 437.78416 
L 111.343055 437.78416 
Q 112.185555 437.78416 112.440555 437.71416 
Q 112.695555 437.64416 112.858055 437.47666 
Q 113.023055 437.30916 113.288055 436.76916 
L 113.570555 436.76916 
L 112.975555 439.83166 
z
M 114.748055 435.83916 
L 119.780555 429.01916 
L 120.733055 429.01916 
L 120.733055 435.83916 
L 121.703055 435.83916 
L 121.703055 437.45666 
L 120.733055 437.45666 
L 120.733055 439.83166 
L 118.585555 439.83166 
L 118.585555 437.45666 
L 114.748055 437.45666 
L 114.748055 435.83916 
z
M 115.508055 435.83916 
L 118.585555 435.83916 
L 118.585555 431.65916 
L 115.508055 435.83916 
z
M 124.350555 437.42416 
Q 124.898055 437.42416 125.275555 437.80916 
Q 125.655555 438.19166 125.655555 438.72916 
Q 125.655555 439.26916 125.273055 439.64916 
Q 124.890555 440.02666 124.350555 440.02666 
Q 123.810555 440.02666 123.430555 439.64916 
Q 123.053055 439.26916 123.053055 438.72916 
Q 123.053055 438.19166 123.430555 437.80916 
Q 123.810555 437.42416 124.350555 437.42416 
z
M 126.748055 435.83916 
L 131.780555 429.01916 
L 132.733055 429.01916 
L 132.733055 435.83916 
L 133.703055 435.83916 
L 133.703055 437.45666 
L 132.733055 437.45666 
L 132.733055 439.83166 
L 130.585555 439.83166 
L 130.585555 437.45666 
L 126.748055 437.45666 
L 126.748055 435.83916 
z
M 127.508055 435.83916 
L 130.585555 435.83916 
L 130.585555 431.65916 
L 127.508055 435.83916 
z
"/>
   </g>
   <g id="text_19">
    <path d="M 106.748055 329.583603 
L 111.780555 322.763603 
L 112.733055 322.763603 
L 112.733055 329.583603 
L 113.703055 329.583603 
L 113.703055 331.201103 
L 112.733055 331.201103 
L 112.733055 333.576103 
L 110.585555 333.576103 
L 110.585555 331.201103 
L 106.748055 331.201103 
L 106.748055 329.583603 
z
M 107.508055 329.583603 
L 110.585555 329.583603 
L 110.585555 325.403603 
L 107.508055 329.583603 
z
M 121.765555 328.278603 
Q 121.765555 329.866103 121.320555 331.241103 
Q 121.053055 332.083603 120.603055 332.623603 
Q 120.155555 333.161103 119.585555 333.478603 
Q 119.015555 333.796103 118.343055 333.796103 
Q 117.578055 333.796103 116.960555 333.406103 
Q 116.343055 333.013603 115.865555 332.286103 
Q 115.523055 331.756103 115.265555 330.873603 
Q 114.928055 329.678603 114.928055 328.403603 
Q 114.928055 326.678603 115.413055 325.231103 
Q 115.810555 324.036103 116.623055 323.401103 
Q 117.435555 322.763603 118.343055 322.763603 
Q 119.265555 322.763603 120.065555 323.393603 
Q 120.865555 324.021103 121.240555 325.083603 
Q 121.765555 326.543603 121.765555 328.278603 
z
M 119.358055 328.263603 
Q 119.358055 325.481103 119.328055 325.021103 
Q 119.248055 323.936103 118.953055 323.553603 
Q 118.758055 323.303603 118.320555 323.303603 
Q 117.983055 323.303603 117.788055 323.491103 
Q 117.498055 323.763603 117.395555 324.456103 
Q 117.295555 325.146103 117.295555 329.278603 
Q 117.295555 331.528603 117.453055 332.293603 
Q 117.570555 332.848603 117.788055 333.036103 
Q 118.008055 333.223603 118.365555 333.223603 
Q 118.758055 333.223603 118.953055 332.973603 
Q 119.280555 332.536103 119.328055 331.623603 
L 119.358055 328.263603 
z
M 124.350555 331.168603 
Q 124.898055 331.168603 125.275555 331.553603 
Q 125.655555 331.936103 125.655555 332.473603 
Q 125.655555 333.013603 125.273055 333.393603 
Q 124.890555 333.771103 124.350555 333.771103 
Q 123.810555 333.771103 123.430555 333.393603 
Q 123.053055 333.013603 123.053055 332.473603 
Q 123.053055 331.936103 123.430555 331.553603 
Q 123.810555 331.168603 124.350555 331.168603 
z
M 133.865555 322.763603 
L 133.865555 322.981103 
Q 132.453055 323.341103 131.595555 323.908603 
Q 130.740555 324.473603 130.243055 325.283603 
Q 129.748055 326.091103 129.475555 327.286103 
Q 129.820555 327.053603 130.045555 326.981103 
Q 130.553055 326.826103 131.070555 326.826103 
Q 132.258055 326.826103 133.050555 327.691103 
Q 133.843055 328.553603 133.843055 330.043603 
Q 133.843055 331.091103 133.413055 331.966103 
Q 132.983055 332.841103 132.193055 333.318603 
Q 131.405555 333.796103 130.508055 333.796103 
Q 129.530555 333.796103 128.700555 333.261103 
Q 127.873055 332.723603 127.408055 331.693603 
Q 126.945555 330.661103 126.945555 329.451103 
Q 126.945555 327.668603 127.800555 326.133603 
Q 128.655555 324.598603 130.228055 323.688603 
Q 131.803055 322.778603 133.865555 322.763603 
z
M 129.373055 327.918603 
Q 129.310555 328.998603 129.310555 329.498603 
Q 129.310555 330.576103 129.518055 331.583603 
Q 129.725555 332.591103 130.085555 332.998603 
Q 130.343055 333.286103 130.695555 333.286103 
Q 131.053055 333.286103 131.333055 332.868603 
Q 131.615555 332.451103 131.615555 331.168603 
Q 131.615555 329.013603 131.093055 328.193603 
Q 130.758055 327.661103 130.185555 327.661103 
Q 129.873055 327.661103 129.373055 327.918603 
z
" style="stroke: #ffffff; stroke-width: 3.8"/>
    <path d="M 106.748055 329.583603 
L 111.780555 322.763603 
L 112.733055 322.763603 
L 112.733055 329.583603 
L 113.703055 329.583603 
L 113.703055 331.201103 
L 112.733055 331.201103 
L 112.733055 333.576103 
L 110.585555 333.576103 
L 110.585555 331.201103 
L 106.748055 331.201103 
L 106.748055 329.583603 
z
M 107.508055 329.583603 
L 110.585555 329.583603 
L 110.585555 325.403603 
L 107.508055 329.583603 
z
M 121.765555 328.278603 
Q 121.765555 329.866103 121.320555 331.241103 
Q 121.053055 332.083603 120.603055 332.623603 
Q 120.155555 333.161103 119.585555 333.478603 
Q 119.015555 333.796103 118.343055 333.796103 
Q 117.578055 333.796103 116.960555 333.406103 
Q 116.343055 333.013603 115.865555 332.286103 
Q 115.523055 331.756103 115.265555 330.873603 
Q 114.928055 329.678603 114.928055 328.403603 
Q 114.928055 326.678603 115.413055 325.231103 
Q 115.810555 324.036103 116.623055 323.401103 
Q 117.435555 322.763603 118.343055 322.763603 
Q 119.265555 322.763603 120.065555 323.393603 
Q 120.865555 324.021103 121.240555 325.083603 
Q 121.765555 326.543603 121.765555 328.278603 
z
M 119.358055 328.263603 
Q 119.358055 325.481103 119.328055 325.021103 
Q 119.248055 323.936103 118.953055 323.553603 
Q 118.758055 323.303603 118.320555 323.303603 
Q 117.983055 323.303603 117.788055 323.491103 
Q 117.498055 323.763603 117.395555 324.456103 
Q 117.295555 325.146103 117.295555 329.278603 
Q 117.295555 331.528603 117.453055 332.293603 
Q 117.570555 332.848603 117.788055 333.036103 
Q 118.008055 333.223603 118.365555 333.223603 
Q 118.758055 333.223603 118.953055 332.973603 
Q 119.280555 332.536103 119.328055 331.623603 
L 119.358055 328.263603 
z
M 124.350555 331.168603 
Q 124.898055 331.168603 125.275555 331.553603 
Q 125.655555 331.936103 125.655555 332.473603 
Q 125.655555 333.013603 125.273055 333.393603 
Q 124.890555 333.771103 124.350555 333.771103 
Q 123.810555 333.771103 123.430555 333.393603 
Q 123.053055 333.013603 123.053055 332.473603 
Q 123.053055 331.936103 123.430555 331.553603 
Q 123.810555 331.168603 124.350555 331.168603 
z
M 133.865555 322.763603 
L 133.865555 322.981103 
Q 132.453055 323.341103 131.595555 323.908603 
Q 130.740555 324.473603 130.243055 325.283603 
Q 129.748055 326.091103 129.475555 327.286103 
Q 129.820555 327.053603 130.045555 326.981103 
Q 130.553055 326.826103 131.070555 326.826103 
Q 132.258055 326.826103 133.050555 327.691103 
Q 133.843055 328.553603 133.843055 330.043603 
Q 133.843055 331.091103 133.413055 331.966103 
Q 132.983055 332.841103 132.193055 333.318603 
Q 131.405555 333.796103 130.508055 333.796103 
Q 129.530555 333.796103 128.700555 333.261103 
Q 127.873055 332.723603 127.408055 331.693603 
Q 126.945555 330.661103 126.945555 329.451103 
Q 126.945555 327.668603 127.800555 326.133603 
Q 128.655555 324.598603 130.228055 323.688603 
Q 131.803055 322.778603 133.865555 322.763603 
z
M 129.373055 327.918603 
Q 129.310555 328.998603 129.310555 329.498603 
Q 129.310555 330.576103 129.518055 331.583603 
Q 129.725555 332.591103 130.085555 332.998603 
Q 130.343055 333.286103 130.695555 333.286103 
Q 131.053055 333.286103 131.333055 332.868603 
Q 131.615555 332.451103 131.615555 331.168603 
Q 131.615555 329.013603 131.093055 328.193603 
Q 130.758055 327.661103 130.185555 327.661103 
Q 129.873055 327.661103 129.373055 327.918603 
z
"/>
   </g>
   <g id="text_20">
    <path d="M 108.788055 171.640583 
L 113.748055 171.640583 
L 112.960555 173.658083 
L 108.788055 173.658083 
L 108.390555 174.713083 
Q 111.085555 174.813083 112.538055 176.055583 
Q 113.733055 177.078083 113.733055 178.603083 
Q 113.733055 179.578083 113.178055 180.513083 
Q 112.623055 181.445583 111.615555 181.950583 
Q 110.608055 182.455583 109.405555 182.455583 
Q 108.108055 182.455583 107.413055 181.970583 
Q 106.928055 181.625583 106.928055 181.188083 
Q 106.928055 180.853083 107.180555 180.595583 
Q 107.435555 180.338083 107.773055 180.338083 
Q 108.078055 180.338083 108.390555 180.463083 
Q 108.703055 180.588083 109.460555 181.118083 
Q 109.935555 181.445583 110.280555 181.570583 
Q 110.523055 181.665583 110.828055 181.665583 
Q 111.468055 181.665583 111.915555 181.198083 
Q 112.365555 180.728083 112.365555 180.070583 
Q 112.365555 178.695583 110.990555 177.838083 
Q 109.615555 176.978083 107.523055 176.978083 
Q 107.310555 176.978083 106.890555 176.985583 
L 108.788055 171.640583 
z
M 116.718055 176.923083 
L 116.718055 176.650583 
Q 117.608055 176.390583 117.950555 176.168083 
Q 118.295555 175.945583 118.545555 175.490583 
Q 118.795555 175.033083 118.795555 174.563083 
Q 118.795555 173.915583 118.323055 173.450583 
Q 117.850555 172.985583 117.148055 172.985583 
Q 116.053055 172.985583 115.288055 174.140583 
L 114.998055 174.040583 
Q 115.560555 172.735583 116.440555 172.080583 
Q 117.320555 171.423083 118.398055 171.423083 
Q 119.498055 171.423083 120.213055 172.095583 
Q 120.928055 172.765583 120.928055 173.665583 
Q 120.928055 174.250583 120.595555 174.795583 
Q 120.265555 175.338083 119.553055 175.750583 
Q 120.468055 176.195583 120.948055 176.848083 
Q 121.428055 177.500583 121.428055 178.485583 
Q 121.428055 180.140583 120.228055 181.303083 
Q 119.030555 182.463083 117.015555 182.463083 
Q 115.670555 182.463083 115.053055 182.015583 
Q 114.608055 181.703083 114.608055 181.213083 
Q 114.608055 180.853083 114.865555 180.600583 
Q 115.123055 180.345583 115.460555 180.345583 
Q 115.718055 180.345583 115.945555 180.453083 
Q 116.070555 180.515583 116.830555 181.138083 
Q 117.593055 181.758083 118.258055 181.758083 
Q 118.835555 181.758083 119.248055 181.303083 
Q 119.663055 180.845583 119.663055 180.140583 
Q 119.663055 179.070583 118.913055 178.168083 
Q 118.163055 177.265583 116.718055 176.923083 
z
M 124.350555 179.828083 
Q 124.898055 179.828083 125.275555 180.213083 
Q 125.655555 180.595583 125.655555 181.133083 
Q 125.655555 181.673083 125.273055 182.053083 
Q 124.890555 182.430583 124.350555 182.430583 
Q 123.810555 182.430583 123.430555 182.053083 
Q 123.053055 181.673083 123.053055 181.133083 
Q 123.053055 180.595583 123.430555 180.213083 
Q 123.810555 179.828083 124.350555 179.828083 
z
M 128.718055 176.923083 
L 128.718055 176.650583 
Q 129.608055 176.390583 129.950555 176.168083 
Q 130.295555 175.945583 130.545555 175.490583 
Q 130.795555 175.033083 130.795555 174.563083 
Q 130.795555 173.915583 130.323055 173.450583 
Q 129.850555 172.985583 129.148055 172.985583 
Q 128.053055 172.985583 127.288055 174.140583 
L 126.998055 174.040583 
Q 127.560555 172.735583 128.440555 172.080583 
Q 129.320555 171.423083 130.398055 171.423083 
Q 131.498055 171.423083 132.213055 172.095583 
Q 132.928055 172.765583 132.928055 173.665583 
Q 132.928055 174.250583 132.595555 174.795583 
Q 132.265555 175.338083 131.553055 175.750583 
Q 132.468055 176.195583 132.948055 176.848083 
Q 133.428055 177.500583 133.428055 178.485583 
Q 133.428055 180.140583 132.228055 181.303083 
Q 131.030555 182.463083 129.015555 182.463083 
Q 127.670555 182.463083 127.053055 182.015583 
Q 126.608055 181.703083 126.608055 181.213083 
Q 126.608055 180.853083 126.865555 180.600583 
Q 127.123055 180.345583 127.460555 180.345583 
Q 127.718055 180.345583 127.945555 180.453083 
Q 128.070555 180.515583 128.830555 181.138083 
Q 129.593055 181.758083 130.258055 181.758083 
Q 130.835555 181.758083 131.248055 181.303083 
Q 131.663055 180.845583 131.663055 180.140583 
Q 131.663055 179.070583 130.913055 178.168083 
Q 130.163055 177.265583 128.718055 176.923083 
z
" style="stroke: #ffffff; stroke-width: 3.8"/>
    <path d="M 108.788055 171.640583 
L 113.748055 171.640583 
L 112.960555 173.658083 
L 108.788055 173.658083 
L 108.390555 174.713083 
Q 111.085555 174.813083 112.538055 176.055583 
Q 113.733055 177.078083 113.733055 178.603083 
Q 113.733055 179.578083 113.178055 180.513083 
Q 112.623055 181.445583 111.615555 181.950583 
Q 110.608055 182.455583 109.405555 182.455583 
Q 108.108055 182.455583 107.413055 181.970583 
Q 106.928055 181.625583 106.928055 181.188083 
Q 106.928055 180.853083 107.180555 180.595583 
Q 107.435555 180.338083 107.773055 180.338083 
Q 108.078055 180.338083 108.390555 180.463083 
Q 108.703055 180.588083 109.460555 181.118083 
Q 109.935555 181.445583 110.280555 181.570583 
Q 110.523055 181.665583 110.828055 181.665583 
Q 111.468055 181.665583 111.915555 181.198083 
Q 112.365555 180.728083 112.365555 180.070583 
Q 112.365555 178.695583 110.990555 177.838083 
Q 109.615555 176.978083 107.523055 176.978083 
Q 107.310555 176.978083 106.890555 176.985583 
L 108.788055 171.640583 
z
M 116.718055 176.923083 
L 116.718055 176.650583 
Q 117.608055 176.390583 117.950555 176.168083 
Q 118.295555 175.945583 118.545555 175.490583 
Q 118.795555 175.033083 118.795555 174.563083 
Q 118.795555 173.915583 118.323055 173.450583 
Q 117.850555 172.985583 117.148055 172.985583 
Q 116.053055 172.985583 115.288055 174.140583 
L 114.998055 174.040583 
Q 115.560555 172.735583 116.440555 172.080583 
Q 117.320555 171.423083 118.398055 171.423083 
Q 119.498055 171.423083 120.213055 172.095583 
Q 120.928055 172.765583 120.928055 173.665583 
Q 120.928055 174.250583 120.595555 174.795583 
Q 120.265555 175.338083 119.553055 175.750583 
Q 120.468055 176.195583 120.948055 176.848083 
Q 121.428055 177.500583 121.428055 178.485583 
Q 121.428055 180.140583 120.228055 181.303083 
Q 119.030555 182.463083 117.015555 182.463083 
Q 115.670555 182.463083 115.053055 182.015583 
Q 114.608055 181.703083 114.608055 181.213083 
Q 114.608055 180.853083 114.865555 180.600583 
Q 115.123055 180.345583 115.460555 180.345583 
Q 115.718055 180.345583 115.945555 180.453083 
Q 116.070555 180.515583 116.830555 181.138083 
Q 117.593055 181.758083 118.258055 181.758083 
Q 118.835555 181.758083 119.248055 181.303083 
Q 119.663055 180.845583 119.663055 180.140583 
Q 119.663055 179.070583 118.913055 178.168083 
Q 118.163055 177.265583 116.718055 176.923083 
z
M 124.350555 179.828083 
Q 124.898055 179.828083 125.275555 180.213083 
Q 125.655555 180.595583 125.655555 181.133083 
Q 125.655555 181.673083 125.273055 182.053083 
Q 124.890555 182.430583 124.350555 182.430583 
Q 123.810555 182.430583 123.430555 182.053083 
Q 123.053055 181.673083 123.053055 181.133083 
Q 123.053055 180.595583 123.430555 180.213083 
Q 123.810555 179.828083 124.350555 179.828083 
z
M 128.718055 176.923083 
L 128.718055 176.650583 
Q 129.608055 176.390583 129.950555 176.168083 
Q 130.295555 175.945583 130.545555 175.490583 
Q 130.795555 175.033083 130.795555 174.563083 
Q 130.795555 173.915583 130.323055 173.450583 
Q 129.850555 172.985583 129.148055 172.985583 
Q 128.053055 172.985583 127.288055 174.140583 
L 126.998055 174.040583 
Q 127.560555 172.735583 128.440555 172.080583 
Q 129.320555 171.423083 130.398055 171.423083 
Q 131.498055 171.423083 132.213055 172.095583 
Q 132.928055 172.765583 132.928055 173.665583 
Q 132.928055 174.250583 132.595555 174.795583 
Q 132.265555 175.338083 131.553055 175.750583 
Q 132.468055 176.195583 132.948055 176.848083 
Q 133.428055 177.500583 133.428055 178.485583 
Q 133.428055 180.140583 132.228055 181.303083 
Q 131.030555 182.463083 129.015555 182.463083 
Q 127.670555 182.463083 127.053055 182.015583 
Q 126.608055 181.703083 126.608055 181.213083 
Q 126.608055 180.853083 126.865555 180.600583 
Q 127.123055 180.345583 127.460555 180.345583 
Q 127.718055 180.345583 127.945555 180.453083 
Q 128.070555 180.515583 128.830555 181.138083 
Q 129.593055 181.758083 130.258055 181.758083 
Q 130.835555 181.758083 131.248055 181.303083 
Q 131.663055 180.845583 131.663055 180.140583 
Q 131.663055 179.070583 130.913055 178.168083 
Q 130.163055 177.265583 128.718055 176.923083 
z
"/>
   </g>
   <g id="text_21">
    <path d="M 360.717197 192.390099 
L 360.717197 192.170099 
Q 362.014697 191.872599 362.917197 191.295099 
Q 363.819697 190.717599 364.344697 189.865099 
Q 364.872197 189.012599 365.084697 187.905099 
Q 364.599697 188.155099 364.259697 188.252599 
Q 363.919697 188.350099 363.544697 188.350099 
Q 362.342197 188.350099 361.539697 187.482599 
Q 360.739697 186.615099 360.739697 185.107599 
Q 360.739697 184.060099 361.172197 183.190099 
Q 361.607197 182.317599 362.412197 181.837599 
Q 363.217197 181.357599 364.084697 181.357599 
Q 365.014697 181.357599 365.842197 181.890099 
Q 366.669697 182.420099 367.162197 183.427599 
Q 367.654697 184.435099 367.654697 185.725099 
Q 367.654697 187.397599 366.852197 188.930099 
Q 366.052197 190.460099 364.467197 191.385099 
Q 362.882197 192.310099 360.717197 192.390099 
z
M 365.202197 187.247599 
Q 365.279697 186.372599 365.279697 185.710099 
Q 365.279697 184.287599 364.952197 183.060099 
Q 364.764697 182.380099 364.397197 182.060099 
Q 364.202197 181.887599 363.889697 181.887599 
Q 363.497197 181.887599 363.279697 182.225099 
Q 362.974697 182.685099 362.974697 183.982599 
Q 362.974697 186.147599 363.489697 186.967599 
Q 363.827197 187.497599 364.397197 187.497599 
Q 364.702197 187.497599 365.202197 187.247599 
z
M 370.224697 189.762599 
Q 370.772197 189.762599 371.149697 190.147599 
Q 371.529697 190.530099 371.529697 191.067599 
Q 371.529697 191.607599 371.147197 191.987599 
Q 370.764697 192.365099 370.224697 192.365099 
Q 369.684697 192.365099 369.304697 191.987599 
Q 368.927197 191.607599 368.927197 191.067599 
Q 368.927197 190.530099 369.304697 190.147599 
Q 369.684697 189.762599 370.224697 189.762599 
z
M 377.677197 186.185099 
Q 378.794697 187.005099 379.227197 187.712599 
Q 379.662197 188.420099 379.662197 189.335099 
Q 379.662197 190.615099 378.697197 191.502599 
Q 377.732197 192.390099 376.077197 192.390099 
Q 374.507197 192.390099 373.647197 191.617599 
Q 372.787197 190.842599 372.787197 189.725099 
Q 372.787197 188.872599 373.282197 188.232599 
Q 373.779697 187.592599 374.934697 187.060099 
Q 373.677197 186.100099 373.322197 185.490099 
Q 372.967197 184.880099 372.967197 184.075099 
Q 372.967197 183.012599 373.869697 182.205099 
Q 374.772197 181.397599 376.342197 181.397599 
Q 377.857197 181.397599 378.672197 182.112599 
Q 379.489697 182.825099 379.489697 183.825099 
Q 379.489697 184.575099 379.047197 185.150099 
Q 378.607197 185.725099 377.677197 186.185099 
z
M 377.084697 185.787599 
Q 377.372197 185.397599 377.512197 184.912599 
Q 377.654697 184.427599 377.654697 183.850099 
Q 377.654697 182.835099 377.217197 182.295099 
Q 376.889697 181.880099 376.309697 181.880099 
Q 375.787197 181.880099 375.419697 182.260099 
Q 375.052197 182.637599 375.052197 183.200099 
Q 375.052197 183.772599 375.462197 184.385099 
Q 375.872197 184.997599 377.084697 185.787599 
z
M 375.522197 187.435099 
Q 375.279697 187.655099 375.177197 187.835099 
Q 375.022197 188.107599 374.897197 188.632599 
Q 374.772197 189.155099 374.772197 189.725099 
Q 374.772197 190.460099 374.959697 190.955099 
Q 375.147197 191.450099 375.494697 191.670099 
Q 375.842197 191.887599 376.209697 191.887599 
Q 376.779697 191.887599 377.169697 191.470099 
Q 377.559697 191.052599 377.559697 190.325099 
Q 377.559697 188.810099 375.522197 187.435099 
z
" style="stroke: #ffffff; stroke-width: 3.8"/>
    <path d="M 360.717197 192.390099 
L 360.717197 192.170099 
Q 362.014697 191.872599 362.917197 191.295099 
Q 363.819697 190.717599 364.344697 189.865099 
Q 364.872197 189.012599 365.084697 187.905099 
Q 364.599697 188.155099 364.259697 188.252599 
Q 363.919697 188.350099 363.544697 188.350099 
Q 362.342197 188.350099 361.539697 187.482599 
Q 360.739697 186.615099 360.739697 185.107599 
Q 360.739697 184.060099 361.172197 183.190099 
Q 361.607197 182.317599 362.412197 181.837599 
Q 363.217197 181.357599 364.084697 181.357599 
Q 365.014697 181.357599 365.842197 181.890099 
Q 366.669697 182.420099 367.162197 183.427599 
Q 367.654697 184.435099 367.654697 185.725099 
Q 367.654697 187.397599 366.852197 188.930099 
Q 366.052197 190.460099 364.467197 191.385099 
Q 362.882197 192.310099 360.717197 192.390099 
z
M 365.202197 187.247599 
Q 365.279697 186.372599 365.279697 185.710099 
Q 365.279697 184.287599 364.952197 183.060099 
Q 364.764697 182.380099 364.397197 182.060099 
Q 364.202197 181.887599 363.889697 181.887599 
Q 363.497197 181.887599 363.279697 182.225099 
Q 362.974697 182.685099 362.974697 183.982599 
Q 362.974697 186.147599 363.489697 186.967599 
Q 363.827197 187.497599 364.397197 187.497599 
Q 364.702197 187.497599 365.202197 187.247599 
z
M 370.224697 189.762599 
Q 370.772197 189.762599 371.149697 190.147599 
Q 371.529697 190.530099 371.529697 191.067599 
Q 371.529697 191.607599 371.147197 191.987599 
Q 370.764697 192.365099 370.224697 192.365099 
Q 369.684697 192.365099 369.304697 191.987599 
Q 368.927197 191.607599 368.927197 191.067599 
Q 368.927197 190.530099 369.304697 190.147599 
Q 369.684697 189.762599 370.224697 189.762599 
z
M 377.677197 186.185099 
Q 378.794697 187.005099 379.227197 187.712599 
Q 379.662197 188.420099 379.662197 189.335099 
Q 379.662197 190.615099 378.697197 191.502599 
Q 377.732197 192.390099 376.077197 192.390099 
Q 374.507197 192.390099 373.647197 191.617599 
Q 372.787197 190.842599 372.787197 189.725099 
Q 372.787197 188.872599 373.282197 188.232599 
Q 373.779697 187.592599 374.934697 187.060099 
Q 373.677197 186.100099 373.322197 185.490099 
Q 372.967197 184.880099 372.967197 184.075099 
Q 372.967197 183.012599 373.869697 182.205099 
Q 374.772197 181.397599 376.342197 181.397599 
Q 377.857197 181.397599 378.672197 182.112599 
Q 379.489697 182.825099 379.489697 183.825099 
Q 379.489697 184.575099 379.047197 185.150099 
Q 378.607197 185.725099 377.677197 186.185099 
z
M 377.084697 185.787599 
Q 377.372197 185.397599 377.512197 184.912599 
Q 377.654697 184.427599 377.654697 183.850099 
Q 377.654697 182.835099 377.217197 182.295099 
Q 376.889697 181.880099 376.309697 181.880099 
Q 375.787197 181.880099 375.419697 182.260099 
Q 375.052197 182.637599 375.052197 183.200099 
Q 375.052197 183.772599 375.462197 184.385099 
Q 375.872197 184.997599 377.084697 185.787599 
z
M 375.522197 187.435099 
Q 375.279697 187.655099 375.177197 187.835099 
Q 375.022197 188.107599 374.897197 188.632599 
Q 374.772197 189.155099 374.772197 189.725099 
Q 374.772197 190.460099 374.959697 190.955099 
Q 375.147197 191.450099 375.494697 191.670099 
Q 375.842197 191.887599 376.209697 191.887599 
Q 376.779697 191.887599 377.169697 191.470099 
Q 377.559697 191.052599 377.559697 190.325099 
Q 377.559697 188.810099 375.522197 187.435099 
z
"/>
   </g>
   <g id="text_22">
    <path d="M 578.778672 176.094307 
L 572.543672 176.094307 
L 572.543672 175.921807 
Q 575.411172 172.509307 576.023672 171.329307 
Q 576.638672 170.149307 576.638672 169.024307 
Q 576.638672 168.204307 576.131172 167.661807 
Q 575.623672 167.116807 574.888672 167.116807 
Q 573.686172 167.116807 573.021172 168.321807 
L 572.731172 168.219307 
Q 573.153672 166.719307 574.013672 166.001807 
Q 574.873672 165.281807 575.998672 165.281807 
Q 576.801172 165.281807 577.466172 165.656807 
Q 578.131172 166.031807 578.506172 166.684307 
Q 578.881172 167.336807 578.881172 167.906807 
Q 578.881172 168.946807 578.301172 170.016807 
Q 577.513672 171.461807 574.856172 174.046807 
L 577.146172 174.046807 
Q 577.988672 174.046807 578.243672 173.976807 
Q 578.498672 173.906807 578.661172 173.739307 
Q 578.826172 173.571807 579.091172 173.031807 
L 579.373672 173.031807 
L 578.778672 176.094307 
z
M 582.521172 170.781807 
L 582.521172 170.509307 
Q 583.411172 170.249307 583.753672 170.026807 
Q 584.098672 169.804307 584.348672 169.349307 
Q 584.598672 168.891807 584.598672 168.421807 
Q 584.598672 167.774307 584.126172 167.309307 
Q 583.653672 166.844307 582.951172 166.844307 
Q 581.856172 166.844307 581.091172 167.999307 
L 580.801172 167.899307 
Q 581.363672 166.594307 582.243672 165.939307 
Q 583.123672 165.281807 584.201172 165.281807 
Q 585.301172 165.281807 586.016172 165.954307 
Q 586.731172 166.624307 586.731172 167.524307 
Q 586.731172 168.109307 586.398672 168.654307 
Q 586.068672 169.196807 585.356172 169.609307 
Q 586.271172 170.054307 586.751172 170.706807 
Q 587.231172 171.359307 587.231172 172.344307 
Q 587.231172 173.999307 586.031172 175.161807 
Q 584.833672 176.321807 582.818672 176.321807 
Q 581.473672 176.321807 580.856172 175.874307 
Q 580.411172 175.561807 580.411172 175.071807 
Q 580.411172 174.711807 580.668672 174.459307 
Q 580.926172 174.204307 581.263672 174.204307 
Q 581.521172 174.204307 581.748672 174.311807 
Q 581.873672 174.374307 582.633672 174.996807 
Q 583.396172 175.616807 584.061172 175.616807 
Q 584.638672 175.616807 585.051172 175.161807 
Q 585.466172 174.704307 585.466172 173.999307 
Q 585.466172 172.929307 584.716172 172.026807 
Q 583.966172 171.124307 582.521172 170.781807 
z
M 590.153672 173.686807 
Q 590.701172 173.686807 591.078672 174.071807 
Q 591.458672 174.454307 591.458672 174.991807 
Q 591.458672 175.531807 591.076172 175.911807 
Q 590.693672 176.289307 590.153672 176.289307 
Q 589.613672 176.289307 589.233672 175.911807 
Q 588.856172 175.531807 588.856172 174.991807 
Q 588.856172 174.454307 589.233672 174.071807 
Q 589.613672 173.686807 590.153672 173.686807 
z
M 599.668672 165.281807 
L 599.668672 165.499307 
Q 598.256172 165.859307 597.398672 166.426807 
Q 596.543672 166.991807 596.046172 167.801807 
Q 595.551172 168.609307 595.278672 169.804307 
Q 595.623672 169.571807 595.848672 169.499307 
Q 596.356172 169.344307 596.873672 169.344307 
Q 598.061172 169.344307 598.853672 170.209307 
Q 599.646172 171.071807 599.646172 172.561807 
Q 599.646172 173.609307 599.216172 174.484307 
Q 598.786172 175.359307 597.996172 175.836807 
Q 597.208672 176.314307 596.311172 176.314307 
Q 595.333672 176.314307 594.503672 175.779307 
Q 593.676172 175.241807 593.211172 174.211807 
Q 592.748672 173.179307 592.748672 171.969307 
Q 592.748672 170.186807 593.603672 168.651807 
Q 594.458672 167.116807 596.031172 166.206807 
Q 597.606172 165.296807 599.668672 165.281807 
z
M 595.176172 170.436807 
Q 595.113672 171.516807 595.113672 172.016807 
Q 595.113672 173.094307 595.321172 174.101807 
Q 595.528672 175.109307 595.888672 175.516807 
Q 596.146172 175.804307 596.498672 175.804307 
Q 596.856172 175.804307 597.136172 175.386807 
Q 597.418672 174.969307 597.418672 173.686807 
Q 597.418672 171.531807 596.896172 170.711807 
Q 596.561172 170.179307 595.988672 170.179307 
Q 595.676172 170.179307 595.176172 170.436807 
z
" style="stroke: #ffffff; stroke-width: 3.8"/>
    <path d="M 578.778672 176.094307 
L 572.543672 176.094307 
L 572.543672 175.921807 
Q 575.411172 172.509307 576.023672 171.329307 
Q 576.638672 170.149307 576.638672 169.024307 
Q 576.638672 168.204307 576.131172 167.661807 
Q 575.623672 167.116807 574.888672 167.116807 
Q 573.686172 167.116807 573.021172 168.321807 
L 572.731172 168.219307 
Q 573.153672 166.719307 574.013672 166.001807 
Q 574.873672 165.281807 575.998672 165.281807 
Q 576.801172 165.281807 577.466172 165.656807 
Q 578.131172 166.031807 578.506172 166.684307 
Q 578.881172 167.336807 578.881172 167.906807 
Q 578.881172 168.946807 578.301172 170.016807 
Q 577.513672 171.461807 574.856172 174.046807 
L 577.146172 174.046807 
Q 577.988672 174.046807 578.243672 173.976807 
Q 578.498672 173.906807 578.661172 173.739307 
Q 578.826172 173.571807 579.091172 173.031807 
L 579.373672 173.031807 
L 578.778672 176.094307 
z
M 582.521172 170.781807 
L 582.521172 170.509307 
Q 583.411172 170.249307 583.753672 170.026807 
Q 584.098672 169.804307 584.348672 169.349307 
Q 584.598672 168.891807 584.598672 168.421807 
Q 584.598672 167.774307 584.126172 167.309307 
Q 583.653672 166.844307 582.951172 166.844307 
Q 581.856172 166.844307 581.091172 167.999307 
L 580.801172 167.899307 
Q 581.363672 166.594307 582.243672 165.939307 
Q 583.123672 165.281807 584.201172 165.281807 
Q 585.301172 165.281807 586.016172 165.954307 
Q 586.731172 166.624307 586.731172 167.524307 
Q 586.731172 168.109307 586.398672 168.654307 
Q 586.068672 169.196807 585.356172 169.609307 
Q 586.271172 170.054307 586.751172 170.706807 
Q 587.231172 171.359307 587.231172 172.344307 
Q 587.231172 173.999307 586.031172 175.161807 
Q 584.833672 176.321807 582.818672 176.321807 
Q 581.473672 176.321807 580.856172 175.874307 
Q 580.411172 175.561807 580.411172 175.071807 
Q 580.411172 174.711807 580.668672 174.459307 
Q 580.926172 174.204307 581.263672 174.204307 
Q 581.521172 174.204307 581.748672 174.311807 
Q 581.873672 174.374307 582.633672 174.996807 
Q 583.396172 175.616807 584.061172 175.616807 
Q 584.638672 175.616807 585.051172 175.161807 
Q 585.466172 174.704307 585.466172 173.999307 
Q 585.466172 172.929307 584.716172 172.026807 
Q 583.966172 171.124307 582.521172 170.781807 
z
M 590.153672 173.686807 
Q 590.701172 173.686807 591.078672 174.071807 
Q 591.458672 174.454307 591.458672 174.991807 
Q 591.458672 175.531807 591.076172 175.911807 
Q 590.693672 176.289307 590.153672 176.289307 
Q 589.613672 176.289307 589.233672 175.911807 
Q 588.856172 175.531807 588.856172 174.991807 
Q 588.856172 174.454307 589.233672 174.071807 
Q 589.613672 173.686807 590.153672 173.686807 
z
M 599.668672 165.281807 
L 599.668672 165.499307 
Q 598.256172 165.859307 597.398672 166.426807 
Q 596.543672 166.991807 596.046172 167.801807 
Q 595.551172 168.609307 595.278672 169.804307 
Q 595.623672 169.571807 595.848672 169.499307 
Q 596.356172 169.344307 596.873672 169.344307 
Q 598.061172 169.344307 598.853672 170.209307 
Q 599.646172 171.071807 599.646172 172.561807 
Q 599.646172 173.609307 599.216172 174.484307 
Q 598.786172 175.359307 597.996172 175.836807 
Q 597.208672 176.314307 596.311172 176.314307 
Q 595.333672 176.314307 594.503672 175.779307 
Q 593.676172 175.241807 593.211172 174.211807 
Q 592.748672 173.179307 592.748672 171.969307 
Q 592.748672 170.186807 593.603672 168.651807 
Q 594.458672 167.116807 596.031172 166.206807 
Q 597.606172 165.296807 599.668672 165.281807 
z
M 595.176172 170.436807 
Q 595.113672 171.516807 595.113672 172.016807 
Q 595.113672 173.094307 595.321172 174.101807 
Q 595.528672 175.109307 595.888672 175.516807 
Q 596.146172 175.804307 596.498672 175.804307 
Q 596.856172 175.804307 597.136172 175.386807 
Q 597.418672 174.969307 597.418672 173.686807 
Q 597.418672 171.531807 596.896172 170.711807 
Q 596.561172 170.179307 595.988672 170.179307 
Q 595.676172 170.179307 595.176172 170.436807 
z
"/>
   </g>
   <g id="text_23">
    <path d="M 587.420045 373.569635 
L 592.138013 367.175885 
L 593.030982 367.175885 
L 593.030982 373.569635 
L 593.940357 373.569635 
L 593.940357 375.086041 
L 593.030982 375.086041 
L 593.030982 377.312604 
L 591.017701 377.312604 
L 591.017701 375.086041 
L 587.420045 375.086041 
L 587.420045 373.569635 
z
M 588.132545 373.569635 
L 591.017701 373.569635 
L 591.017701 369.650885 
L 588.132545 373.569635 
z
M 596.422388 375.055573 
Q 596.93567 375.055573 597.289576 375.41651 
Q 597.645826 375.775104 597.645826 376.27901 
Q 597.645826 376.78526 597.287232 377.14151 
Q 596.928638 377.495416 596.422388 377.495416 
Q 595.916138 377.495416 595.559888 377.14151 
Q 595.205982 376.78526 595.205982 376.27901 
Q 595.205982 375.775104 595.559888 375.41651 
Q 595.916138 375.055573 596.422388 375.055573 
z
M 600.51692 372.332135 
L 600.51692 372.076666 
Q 601.351295 371.832916 601.672388 371.624323 
Q 601.995826 371.415729 602.230201 370.989166 
Q 602.464576 370.56026 602.464576 370.119635 
Q 602.464576 369.512604 602.021607 369.076666 
Q 601.578638 368.640729 600.920045 368.640729 
Q 599.893482 368.640729 599.176295 369.723541 
L 598.90442 369.629791 
Q 599.431763 368.406354 600.256763 367.792291 
Q 601.081763 367.175885 602.09192 367.175885 
Q 603.12317 367.175885 603.793482 367.806354 
Q 604.463795 368.434479 604.463795 369.278229 
Q 604.463795 369.826666 604.152076 370.337604 
Q 603.842701 370.846198 603.174732 371.232916 
Q 604.032545 371.650104 604.482545 372.261823 
Q 604.932545 372.873541 604.932545 373.796979 
Q 604.932545 375.348541 603.807545 376.438385 
Q 602.684888 377.525885 600.795826 377.525885 
Q 599.534888 377.525885 598.955982 377.106354 
Q 598.538795 376.813385 598.538795 376.35401 
Q 598.538795 376.01651 598.780201 375.779791 
Q 599.021607 375.540729 599.338013 375.540729 
Q 599.57942 375.540729 599.792701 375.64151 
Q 599.909888 375.700104 600.622388 376.283698 
Q 601.337232 376.864948 601.96067 376.864948 
Q 602.502076 376.864948 602.888795 376.438385 
Q 603.277857 376.009479 603.277857 375.348541 
Q 603.277857 374.345416 602.574732 373.499323 
Q 601.871607 372.653229 600.51692 372.332135 
z
" style="fill: #404040; stroke: #ffffff; stroke-width: 3.8"/>
    <path d="M 587.420045 373.569635 
L 592.138013 367.175885 
L 593.030982 367.175885 
L 593.030982 373.569635 
L 593.940357 373.569635 
L 593.940357 375.086041 
L 593.030982 375.086041 
L 593.030982 377.312604 
L 591.017701 377.312604 
L 591.017701 375.086041 
L 587.420045 375.086041 
L 587.420045 373.569635 
z
M 588.132545 373.569635 
L 591.017701 373.569635 
L 591.017701 369.650885 
L 588.132545 373.569635 
z
M 596.422388 375.055573 
Q 596.93567 375.055573 597.289576 375.41651 
Q 597.645826 375.775104 597.645826 376.27901 
Q 597.645826 376.78526 597.287232 377.14151 
Q 596.928638 377.495416 596.422388 377.495416 
Q 595.916138 377.495416 595.559888 377.14151 
Q 595.205982 376.78526 595.205982 376.27901 
Q 595.205982 375.775104 595.559888 375.41651 
Q 595.916138 375.055573 596.422388 375.055573 
z
M 600.51692 372.332135 
L 600.51692 372.076666 
Q 601.351295 371.832916 601.672388 371.624323 
Q 601.995826 371.415729 602.230201 370.989166 
Q 602.464576 370.56026 602.464576 370.119635 
Q 602.464576 369.512604 602.021607 369.076666 
Q 601.578638 368.640729 600.920045 368.640729 
Q 599.893482 368.640729 599.176295 369.723541 
L 598.90442 369.629791 
Q 599.431763 368.406354 600.256763 367.792291 
Q 601.081763 367.175885 602.09192 367.175885 
Q 603.12317 367.175885 603.793482 367.806354 
Q 604.463795 368.434479 604.463795 369.278229 
Q 604.463795 369.826666 604.152076 370.337604 
Q 603.842701 370.846198 603.174732 371.232916 
Q 604.032545 371.650104 604.482545 372.261823 
Q 604.932545 372.873541 604.932545 373.796979 
Q 604.932545 375.348541 603.807545 376.438385 
Q 602.684888 377.525885 600.795826 377.525885 
Q 599.534888 377.525885 598.955982 377.106354 
Q 598.538795 376.813385 598.538795 376.35401 
Q 598.538795 376.01651 598.780201 375.779791 
Q 599.021607 375.540729 599.338013 375.540729 
Q 599.57942 375.540729 599.792701 375.64151 
Q 599.909888 375.700104 600.622388 376.283698 
Q 601.337232 376.864948 601.96067 376.864948 
Q 602.502076 376.864948 602.888795 376.438385 
Q 603.277857 376.009479 603.277857 375.348541 
Q 603.277857 374.345416 602.574732 373.499323 
Q 601.871607 372.653229 600.51692 372.332135 
z
" style="fill: #404040"/>
   </g>
   <g id="text_24">
    <path d="M 568.961768 336.438521 
L 563.116455 336.438521 
L 563.116455 336.276802 
Q 565.804736 333.077583 566.378955 331.971333 
Q 566.955518 330.865083 566.955518 329.810396 
Q 566.955518 329.041646 566.479736 328.533052 
Q 566.003955 328.022115 565.314893 328.022115 
Q 564.187549 328.022115 563.564111 329.151802 
L 563.292236 329.055708 
Q 563.68833 327.649458 564.49458 326.976802 
Q 565.30083 326.301802 566.355518 326.301802 
Q 567.107861 326.301802 567.731299 326.653365 
Q 568.354736 327.004927 568.706299 327.616646 
Q 569.057861 328.228365 569.057861 328.76274 
Q 569.057861 329.73774 568.514111 330.740865 
Q 567.77583 332.095552 565.284424 334.51899 
L 567.431299 334.51899 
Q 568.221143 334.51899 568.460205 334.453365 
Q 568.699268 334.38774 568.851611 334.230708 
Q 569.006299 334.073677 569.254736 333.567427 
L 569.51958 333.567427 
L 568.961768 336.438521 
z
M 575.135205 326.301802 
L 575.135205 334.42524 
Q 575.135205 335.339302 575.214893 335.592427 
Q 575.296924 335.845552 575.552393 336.007271 
Q 575.810205 336.166646 576.375049 336.166646 
L 576.600049 336.166646 
L 576.600049 336.438521 
L 571.371143 336.438521 
L 571.371143 336.166646 
L 571.635986 336.166646 
Q 572.273486 336.166646 572.543018 336.021333 
Q 572.814893 335.873677 572.908643 335.618208 
Q 573.004736 335.36274 573.004736 334.42524 
L 573.004736 329.276021 
Q 573.004736 328.586958 572.939111 328.415865 
Q 572.873486 328.242427 572.693018 328.122896 
Q 572.514893 328.001021 572.280518 328.001021 
Q 571.905518 328.001021 571.371143 328.235396 
L 571.239893 327.970552 
L 574.893799 326.301802 
L 575.135205 326.301802 
z
M 579.62583 334.18149 
Q 580.139111 334.18149 580.493018 334.542427 
Q 580.849268 334.901021 580.849268 335.404927 
Q 580.849268 335.911177 580.490674 336.267427 
Q 580.13208 336.621333 579.62583 336.621333 
Q 579.11958 336.621333 578.76333 336.267427 
Q 578.409424 335.911177 578.409424 335.404927 
Q 578.409424 334.901021 578.76333 334.542427 
Q 579.11958 334.18149 579.62583 334.18149 
z
M 581.962549 336.644771 
L 581.962549 336.438521 
Q 583.178955 336.159615 584.025049 335.618208 
Q 584.871143 335.076802 585.36333 334.277583 
Q 585.857861 333.478365 586.05708 332.440083 
Q 585.602393 332.674458 585.283643 332.765865 
Q 584.964893 332.857271 584.61333 332.857271 
Q 583.485986 332.857271 582.733643 332.04399 
Q 581.983643 331.230708 581.983643 329.817427 
Q 581.983643 328.835396 582.389111 328.019771 
Q 582.796924 327.201802 583.551611 326.751802 
Q 584.306299 326.301802 585.11958 326.301802 
Q 585.991455 326.301802 586.767236 326.801021 
Q 587.543018 327.297896 588.004736 328.242427 
Q 588.466455 329.186958 588.466455 330.396333 
Q 588.466455 331.964302 587.714111 333.401021 
Q 586.964111 334.835396 585.478174 335.702583 
Q 583.992236 336.569771 581.962549 336.644771 
z
M 586.167236 331.823677 
Q 586.239893 331.003365 586.239893 330.382271 
Q 586.239893 329.048677 585.932861 327.897896 
Q 585.75708 327.260396 585.412549 326.960396 
Q 585.229736 326.798677 584.936768 326.798677 
Q 584.568799 326.798677 584.364893 327.115083 
Q 584.078955 327.546333 584.078955 328.76274 
Q 584.078955 330.792427 584.561768 331.561177 
Q 584.878174 332.058052 585.412549 332.058052 
Q 585.698486 332.058052 586.167236 331.823677 
z
" style="fill: #404040; stroke: #ffffff; stroke-width: 3.8"/>
    <path d="M 568.961768 336.438521 
L 563.116455 336.438521 
L 563.116455 336.276802 
Q 565.804736 333.077583 566.378955 331.971333 
Q 566.955518 330.865083 566.955518 329.810396 
Q 566.955518 329.041646 566.479736 328.533052 
Q 566.003955 328.022115 565.314893 328.022115 
Q 564.187549 328.022115 563.564111 329.151802 
L 563.292236 329.055708 
Q 563.68833 327.649458 564.49458 326.976802 
Q 565.30083 326.301802 566.355518 326.301802 
Q 567.107861 326.301802 567.731299 326.653365 
Q 568.354736 327.004927 568.706299 327.616646 
Q 569.057861 328.228365 569.057861 328.76274 
Q 569.057861 329.73774 568.514111 330.740865 
Q 567.77583 332.095552 565.284424 334.51899 
L 567.431299 334.51899 
Q 568.221143 334.51899 568.460205 334.453365 
Q 568.699268 334.38774 568.851611 334.230708 
Q 569.006299 334.073677 569.254736 333.567427 
L 569.51958 333.567427 
L 568.961768 336.438521 
z
M 575.135205 326.301802 
L 575.135205 334.42524 
Q 575.135205 335.339302 575.214893 335.592427 
Q 575.296924 335.845552 575.552393 336.007271 
Q 575.810205 336.166646 576.375049 336.166646 
L 576.600049 336.166646 
L 576.600049 336.438521 
L 571.371143 336.438521 
L 571.371143 336.166646 
L 571.635986 336.166646 
Q 572.273486 336.166646 572.543018 336.021333 
Q 572.814893 335.873677 572.908643 335.618208 
Q 573.004736 335.36274 573.004736 334.42524 
L 573.004736 329.276021 
Q 573.004736 328.586958 572.939111 328.415865 
Q 572.873486 328.242427 572.693018 328.122896 
Q 572.514893 328.001021 572.280518 328.001021 
Q 571.905518 328.001021 571.371143 328.235396 
L 571.239893 327.970552 
L 574.893799 326.301802 
L 575.135205 326.301802 
z
M 579.62583 334.18149 
Q 580.139111 334.18149 580.493018 334.542427 
Q 580.849268 334.901021 580.849268 335.404927 
Q 580.849268 335.911177 580.490674 336.267427 
Q 580.13208 336.621333 579.62583 336.621333 
Q 579.11958 336.621333 578.76333 336.267427 
Q 578.409424 335.911177 578.409424 335.404927 
Q 578.409424 334.901021 578.76333 334.542427 
Q 579.11958 334.18149 579.62583 334.18149 
z
M 581.962549 336.644771 
L 581.962549 336.438521 
Q 583.178955 336.159615 584.025049 335.618208 
Q 584.871143 335.076802 585.36333 334.277583 
Q 585.857861 333.478365 586.05708 332.440083 
Q 585.602393 332.674458 585.283643 332.765865 
Q 584.964893 332.857271 584.61333 332.857271 
Q 583.485986 332.857271 582.733643 332.04399 
Q 581.983643 331.230708 581.983643 329.817427 
Q 581.983643 328.835396 582.389111 328.019771 
Q 582.796924 327.201802 583.551611 326.751802 
Q 584.306299 326.301802 585.11958 326.301802 
Q 585.991455 326.301802 586.767236 326.801021 
Q 587.543018 327.297896 588.004736 328.242427 
Q 588.466455 329.186958 588.466455 330.396333 
Q 588.466455 331.964302 587.714111 333.401021 
Q 586.964111 334.835396 585.478174 335.702583 
Q 583.992236 336.569771 581.962549 336.644771 
z
M 586.167236 331.823677 
Q 586.239893 331.003365 586.239893 330.382271 
Q 586.239893 329.048677 585.932861 327.897896 
Q 585.75708 327.260396 585.412549 326.960396 
Q 585.229736 326.798677 584.936768 326.798677 
Q 584.568799 326.798677 584.364893 327.115083 
Q 584.078955 327.546333 584.078955 328.76274 
Q 584.078955 330.792427 584.561768 331.561177 
Q 584.878174 332.058052 585.412549 332.058052 
Q 585.698486 332.058052 586.167236 331.823677 
z
" style="fill: #404040"/>
   </g>
   <g id="text_25">
    <path d="M 530.565787 252.231251 
L 530.565787 252.025001 
Q 531.782193 251.746095 532.628287 251.204688 
Q 533.474381 250.663282 533.966568 249.864063 
Q 534.4611 249.064845 534.660318 248.026563 
Q 534.205631 248.260938 533.886881 248.352345 
Q 533.568131 248.443751 533.216568 248.443751 
Q 532.089225 248.443751 531.336881 247.63047 
Q 530.586881 246.817188 530.586881 245.403907 
Q 530.586881 244.421876 530.99235 243.606251 
Q 531.400162 242.788282 532.15485 242.338282 
Q 532.909537 241.888282 533.722818 241.888282 
Q 534.594693 241.888282 535.370475 242.387501 
Q 536.146256 242.884376 536.607975 243.828907 
Q 537.069693 244.773438 537.069693 245.982813 
Q 537.069693 247.550782 536.31735 248.987501 
Q 535.56735 250.421876 534.081412 251.289063 
Q 532.595475 252.156251 530.565787 252.231251 
z
M 534.770475 247.410157 
Q 534.843131 246.589845 534.843131 245.968751 
Q 534.843131 244.635157 534.5361 243.484376 
Q 534.360318 242.846876 534.015787 242.546876 
Q 533.832975 242.385157 533.540006 242.385157 
Q 533.172037 242.385157 532.968131 242.701563 
Q 532.682193 243.132813 532.682193 244.34922 
Q 532.682193 246.378907 533.165006 247.147657 
Q 533.481412 247.644532 534.015787 247.644532 
Q 534.301725 247.644532 534.770475 247.410157 
z
M 539.479068 249.76797 
Q 539.99235 249.76797 540.346256 250.128907 
Q 540.702506 250.487501 540.702506 250.991407 
Q 540.702506 251.497657 540.343912 251.853907 
Q 539.985318 252.207813 539.479068 252.207813 
Q 538.972818 252.207813 538.616568 251.853907 
Q 538.262662 251.497657 538.262662 250.991407 
Q 538.262662 250.487501 538.616568 250.128907 
Q 538.972818 249.76797 539.479068 249.76797 
z
M 543.639225 242.092188 
L 548.289225 242.092188 
L 547.550943 243.983595 
L 543.639225 243.983595 
L 543.266568 244.972657 
Q 545.793131 245.066407 547.15485 246.231251 
Q 548.275162 247.189845 548.275162 248.619532 
Q 548.275162 249.533595 547.75485 250.410157 
Q 547.234537 251.284376 546.290006 251.757813 
Q 545.345475 252.231251 544.218131 252.231251 
Q 543.001725 252.231251 542.350162 251.776563 
Q 541.895475 251.453126 541.895475 251.04297 
Q 541.895475 250.728907 542.132193 250.487501 
Q 542.371256 250.246095 542.687662 250.246095 
Q 542.9736 250.246095 543.266568 250.363282 
Q 543.559537 250.48047 544.269693 250.977345 
Q 544.715006 251.284376 545.038443 251.401563 
Q 545.265787 251.490626 545.551725 251.490626 
Q 546.151725 251.490626 546.571256 251.052345 
Q 546.993131 250.61172 546.993131 249.995313 
Q 546.993131 248.706251 545.704068 247.902345 
Q 544.415006 247.096095 542.453287 247.096095 
Q 542.254068 247.096095 541.860318 247.103126 
L 543.639225 242.092188 
z
" style="fill: #404040; stroke: #ffffff; stroke-width: 3.8"/>
    <path d="M 530.565787 252.231251 
L 530.565787 252.025001 
Q 531.782193 251.746095 532.628287 251.204688 
Q 533.474381 250.663282 533.966568 249.864063 
Q 534.4611 249.064845 534.660318 248.026563 
Q 534.205631 248.260938 533.886881 248.352345 
Q 533.568131 248.443751 533.216568 248.443751 
Q 532.089225 248.443751 531.336881 247.63047 
Q 530.586881 246.817188 530.586881 245.403907 
Q 530.586881 244.421876 530.99235 243.606251 
Q 531.400162 242.788282 532.15485 242.338282 
Q 532.909537 241.888282 533.722818 241.888282 
Q 534.594693 241.888282 535.370475 242.387501 
Q 536.146256 242.884376 536.607975 243.828907 
Q 537.069693 244.773438 537.069693 245.982813 
Q 537.069693 247.550782 536.31735 248.987501 
Q 535.56735 250.421876 534.081412 251.289063 
Q 532.595475 252.156251 530.565787 252.231251 
z
M 534.770475 247.410157 
Q 534.843131 246.589845 534.843131 245.968751 
Q 534.843131 244.635157 534.5361 243.484376 
Q 534.360318 242.846876 534.015787 242.546876 
Q 533.832975 242.385157 533.540006 242.385157 
Q 533.172037 242.385157 532.968131 242.701563 
Q 532.682193 243.132813 532.682193 244.34922 
Q 532.682193 246.378907 533.165006 247.147657 
Q 533.481412 247.644532 534.015787 247.644532 
Q 534.301725 247.644532 534.770475 247.410157 
z
M 539.479068 249.76797 
Q 539.99235 249.76797 540.346256 250.128907 
Q 540.702506 250.487501 540.702506 250.991407 
Q 540.702506 251.497657 540.343912 251.853907 
Q 539.985318 252.207813 539.479068 252.207813 
Q 538.972818 252.207813 538.616568 251.853907 
Q 538.262662 251.497657 538.262662 250.991407 
Q 538.262662 250.487501 538.616568 250.128907 
Q 538.972818 249.76797 539.479068 249.76797 
z
M 543.639225 242.092188 
L 548.289225 242.092188 
L 547.550943 243.983595 
L 543.639225 243.983595 
L 543.266568 244.972657 
Q 545.793131 245.066407 547.15485 246.231251 
Q 548.275162 247.189845 548.275162 248.619532 
Q 548.275162 249.533595 547.75485 250.410157 
Q 547.234537 251.284376 546.290006 251.757813 
Q 545.345475 252.231251 544.218131 252.231251 
Q 543.001725 252.231251 542.350162 251.776563 
Q 541.895475 251.453126 541.895475 251.04297 
Q 541.895475 250.728907 542.132193 250.487501 
Q 542.371256 250.246095 542.687662 250.246095 
Q 542.9736 250.246095 543.266568 250.363282 
Q 543.559537 250.48047 544.269693 250.977345 
Q 544.715006 251.284376 545.038443 251.401563 
Q 545.265787 251.490626 545.551725 251.490626 
Q 546.151725 251.490626 546.571256 251.052345 
Q 546.993131 250.61172 546.993131 249.995313 
Q 546.993131 248.706251 545.704068 247.902345 
Q 544.415006 247.096095 542.453287 247.096095 
Q 542.254068 247.096095 541.860318 247.103126 
L 543.639225 242.092188 
z
" style="fill: #404040"/>
   </g>
   <g id="text_26">
    <path d="M 324.455804 336.720583 
L 324.455804 344.84402 
Q 324.455804 345.758083 324.535492 346.011208 
Q 324.617523 346.264333 324.872992 346.426052 
Q 325.130804 346.585427 325.695648 346.585427 
L 325.920648 346.585427 
L 325.920648 346.857302 
L 320.691742 346.857302 
L 320.691742 346.585427 
L 320.956586 346.585427 
Q 321.594086 346.585427 321.863617 346.440114 
Q 322.135492 346.292458 322.229242 346.036989 
Q 322.325336 345.78152 322.325336 344.84402 
L 322.325336 339.694802 
Q 322.325336 339.005739 322.259711 338.834645 
Q 322.194086 338.661208 322.013617 338.541677 
Q 321.835492 338.419802 321.601117 338.419802 
Q 321.226117 338.419802 320.691742 338.654177 
L 320.560492 338.389333 
L 324.214398 336.720583 
L 324.455804 336.720583 
z
M 329.356586 336.924489 
L 334.006586 336.924489 
L 333.268304 338.815895 
L 329.356586 338.815895 
L 328.983929 339.804958 
Q 331.510492 339.898708 332.872211 341.063552 
Q 333.992523 342.022145 333.992523 343.451833 
Q 333.992523 344.365895 333.472211 345.242458 
Q 332.951898 346.116677 332.007367 346.590114 
Q 331.062836 347.063552 329.935492 347.063552 
Q 328.719086 347.063552 328.067523 346.608864 
Q 327.612836 346.285427 327.612836 345.87527 
Q 327.612836 345.561208 327.849554 345.319802 
Q 328.088617 345.078395 328.405023 345.078395 
Q 328.690961 345.078395 328.983929 345.195583 
Q 329.276898 345.31277 329.987054 345.809645 
Q 330.432367 346.116677 330.755804 346.233864 
Q 330.983148 346.322927 331.269086 346.322927 
Q 331.869086 346.322927 332.288617 345.884645 
Q 332.710492 345.44402 332.710492 344.827614 
Q 332.710492 343.538552 331.421429 342.734645 
Q 330.132367 341.928395 328.170648 341.928395 
Q 327.971429 341.928395 327.577679 341.935427 
L 329.356586 336.924489 
z
M 336.446429 344.60027 
Q 336.959711 344.60027 337.313617 344.961208 
Q 337.669867 345.319802 337.669867 345.823708 
Q 337.669867 346.329958 337.311273 346.686208 
Q 336.952679 347.040114 336.446429 347.040114 
Q 335.940179 347.040114 335.583929 346.686208 
Q 335.230023 346.329958 335.230023 345.823708 
Q 335.230023 345.319802 335.583929 344.961208 
Q 335.940179 344.60027 336.446429 344.60027 
z
M 343.205804 336.720583 
L 343.205804 344.84402 
Q 343.205804 345.758083 343.285492 346.011208 
Q 343.367523 346.264333 343.622992 346.426052 
Q 343.880804 346.585427 344.445648 346.585427 
L 344.670648 346.585427 
L 344.670648 346.857302 
L 339.441742 346.857302 
L 339.441742 346.585427 
L 339.706586 346.585427 
Q 340.344086 346.585427 340.613617 346.440114 
Q 340.885492 346.292458 340.979242 346.036989 
Q 341.075336 345.78152 341.075336 344.84402 
L 341.075336 339.694802 
Q 341.075336 339.005739 341.009711 338.834645 
Q 340.944086 338.661208 340.763617 338.541677 
Q 340.585492 338.419802 340.351117 338.419802 
Q 339.976117 338.419802 339.441742 338.654177 
L 339.310492 338.389333 
L 342.964398 336.720583 
L 343.205804 336.720583 
z
" style="fill: #404040; stroke: #ffffff; stroke-width: 3.8"/>
    <path d="M 324.455804 336.720583 
L 324.455804 344.84402 
Q 324.455804 345.758083 324.535492 346.011208 
Q 324.617523 346.264333 324.872992 346.426052 
Q 325.130804 346.585427 325.695648 346.585427 
L 325.920648 346.585427 
L 325.920648 346.857302 
L 320.691742 346.857302 
L 320.691742 346.585427 
L 320.956586 346.585427 
Q 321.594086 346.585427 321.863617 346.440114 
Q 322.135492 346.292458 322.229242 346.036989 
Q 322.325336 345.78152 322.325336 344.84402 
L 322.325336 339.694802 
Q 322.325336 339.005739 322.259711 338.834645 
Q 322.194086 338.661208 322.013617 338.541677 
Q 321.835492 338.419802 321.601117 338.419802 
Q 321.226117 338.419802 320.691742 338.654177 
L 320.560492 338.389333 
L 324.214398 336.720583 
L 324.455804 336.720583 
z
M 329.356586 336.924489 
L 334.006586 336.924489 
L 333.268304 338.815895 
L 329.356586 338.815895 
L 328.983929 339.804958 
Q 331.510492 339.898708 332.872211 341.063552 
Q 333.992523 342.022145 333.992523 343.451833 
Q 333.992523 344.365895 333.472211 345.242458 
Q 332.951898 346.116677 332.007367 346.590114 
Q 331.062836 347.063552 329.935492 347.063552 
Q 328.719086 347.063552 328.067523 346.608864 
Q 327.612836 346.285427 327.612836 345.87527 
Q 327.612836 345.561208 327.849554 345.319802 
Q 328.088617 345.078395 328.405023 345.078395 
Q 328.690961 345.078395 328.983929 345.195583 
Q 329.276898 345.31277 329.987054 345.809645 
Q 330.432367 346.116677 330.755804 346.233864 
Q 330.983148 346.322927 331.269086 346.322927 
Q 331.869086 346.322927 332.288617 345.884645 
Q 332.710492 345.44402 332.710492 344.827614 
Q 332.710492 343.538552 331.421429 342.734645 
Q 330.132367 341.928395 328.170648 341.928395 
Q 327.971429 341.928395 327.577679 341.935427 
L 329.356586 336.924489 
z
M 336.446429 344.60027 
Q 336.959711 344.60027 337.313617 344.961208 
Q 337.669867 345.319802 337.669867 345.823708 
Q 337.669867 346.329958 337.311273 346.686208 
Q 336.952679 347.040114 336.446429 347.040114 
Q 335.940179 347.040114 335.583929 346.686208 
Q 335.230023 346.329958 335.230023 345.823708 
Q 335.230023 345.319802 335.583929 344.961208 
Q 335.940179 344.60027 336.446429 344.60027 
z
M 343.205804 336.720583 
L 343.205804 344.84402 
Q 343.205804 345.758083 343.285492 346.011208 
Q 343.367523 346.264333 343.622992 346.426052 
Q 343.880804 346.585427 344.445648 346.585427 
L 344.670648 346.585427 
L 344.670648 346.857302 
L 339.441742 346.857302 
L 339.441742 346.585427 
L 339.706586 346.585427 
Q 340.344086 346.585427 340.613617 346.440114 
Q 340.885492 346.292458 340.979242 346.036989 
Q 341.075336 345.78152 341.075336 344.84402 
L 341.075336 339.694802 
Q 341.075336 339.005739 341.009711 338.834645 
Q 340.944086 338.661208 340.763617 338.541677 
Q 340.585492 338.419802 340.351117 338.419802 
Q 339.976117 338.419802 339.441742 338.654177 
L 339.310492 338.389333 
L 342.964398 336.720583 
L 343.205804 336.720583 
z
" style="fill: #404040"/>
   </g>
  </g>
 </g>
 <defs>
  <clipPath id="p6e033fd3f4">
   <rect x="7.2" y="51.034687" width="730.764" height="438.48"/>
  </clipPath>
 </defs>
</svg>
