<?xml version="1.0" encoding="utf-8" standalone="no"?>
<!DOCTYPE svg PUBLIC "-//W3C//DTD SVG 1.1//EN"
  "http://www.w3.org/Graphics/SVG/1.1/DTD/svg11.dtd">
<svg xmlns:xlink="http://www.w3.org/1999/xlink" width="745.164pt" height="496.162188pt" viewBox="0 0 745.164 496.162188" xmlns="http://www.w3.org/2000/svg" version="1.1">
 <metadata>
  <rdf:RDF xmlns:dc="http://purl.org/dc/elements/1.1/" xmlns:cc="http://creativecommons.org/ns#" xmlns:rdf="http://www.w3.org/1999/02/22-rdf-syntax-ns#">
   <cc:Work>
    <dc:type rdf:resource="http://purl.org/dc/dcmitype/StillImage"/>
    <dc:date>2026-07-13T16:58:37.038500</dc:date>
    <dc:format>image/svg+xml</dc:format>
    <dc:creator>
     <cc:Agent>
      <dc:title>Matplotlib v3.10.8, https://matplotlib.org/</dc:title>
     </cc:Agent>
    </dc:creator>
   </cc:Work>
  </rdf:RDF>
 </metadata>
 <defs>
  <style type="text/css">*{stroke-linejoin: round; stroke-linecap: butt}</style>
 </defs>
 <g id="figure_1">
  <g id="patch_1">
   <path d="M 0 496.162188 
L 745.164 496.162188 
L 745.164 0 
L 0 0 
L 0 496.162188 
z
" style="fill: none"/>
  </g>
  <g id="axes_1">
   <g id="patch_2">
    <path d="M 120.350555 445.719167 
Q 120.350555 462.303138 120.350555 476.412861 
" clip-path="url(#p451e7b47d2)" style="fill: none; stroke: #111111; stroke-width: 2.213035; stroke-linejoin: miter; stroke-linecap: round"/>
    <path d="M 124.002726 469.108518 
L 120.350555 476.412861 
L 116.698384 469.108518 
z
" clip-path="url(#p451e7b47d2)" style="fill: #111111; stroke: #111111; stroke-width: 2.213035; stroke-linejoin: miter; stroke-linecap: round"/>
   </g>
   <g id="patch_3">
    <path d="M 120.350555 369.085039 
Q 120.350555 387.790253 120.350555 402.199044 
" clip-path="url(#p451e7b47d2)" style="fill: none; stroke: #111111; stroke-width: 3.842838; stroke-linejoin: miter; stroke-linecap: round"/>
    <path d="M 124.524263 393.851627 
L 120.350555 402.199044 
L 116.176847 393.851627 
z
" clip-path="url(#p451e7b47d2)" style="fill: #111111; stroke: #111111; stroke-width: 3.842838; stroke-linejoin: miter; stroke-linecap: round"/>
   </g>
   <g id="patch_4">
    <path d="M 120.350555 282.771835 
Q 120.350555 304.195344 120.350555 319.55116 
" clip-path="url(#p451e7b47d2)" style="fill: none; stroke: #111111; stroke-width: 5.427109; stroke-linejoin: miter; stroke-linecap: round"/>
    <path d="M 125.03123 310.18981 
L 120.350555 319.55116 
L 115.66988 310.18981 
z
" clip-path="url(#p451e7b47d2)" style="fill: #111111; stroke: #111111; stroke-width: 5.427109; stroke-linejoin: miter; stroke-linecap: round"/>
   </g>
   <g id="patch_5">
    <path d="M 370.224697 312.135479 
Q 370.224697 332.801623 370.224697 350.722245 
" clip-path="url(#p451e7b47d2)" style="fill: none; stroke: #111111; stroke-width: 2.45567; stroke-linejoin: miter; stroke-linecap: round"/>
    <path d="M 373.954511 343.262616 
L 370.224697 350.722245 
L 366.494882 343.262616 
z
" clip-path="url(#p451e7b47d2)" style="fill: #111111; stroke: #111111; stroke-width: 2.45567; stroke-linejoin: miter; stroke-linecap: round"/>
   </g>
   <g id="patch_6">
    <path d="M 370.224697 225.161178 
Q 370.224697 244.954305 370.224697 260.469178 
" clip-path="url(#p451e7b47d2)" style="fill: none; stroke: #111111; stroke-width: 3.826587; stroke-linejoin: miter; stroke-linecap: round"/>
    <path d="M 374.393205 252.132162 
L 370.224697 260.469178 
L 366.056189 252.132162 
z
" clip-path="url(#p451e7b47d2)" style="fill: #111111; stroke: #111111; stroke-width: 3.826587; stroke-linejoin: miter; stroke-linecap: round"/>
   </g>
   <g id="patch_7">
    <path d="M 370.224697 138.57563 
Q 370.224697 159.047397 370.224697 173.034568 
" clip-path="url(#p451e7b47d2)" style="fill: none; stroke: #111111; stroke-width: 5.8; stroke-linejoin: miter; stroke-linecap: round"/>
    <path d="M 375.024697 163.434568 
L 370.224697 173.034568 
L 365.424697 163.434568 
z
" clip-path="url(#p451e7b47d2)" style="fill: #111111; stroke: #111111; stroke-width: 5.8; stroke-linejoin: miter; stroke-linecap: round"/>
   </g>
   <g id="patch_8">
    <path d="M 586.153672 297.214158 
Q 586.153672 317.112604 586.153672 333.079969 
" clip-path="url(#p451e7b47d2)" style="fill: none; stroke: #111111; stroke-width: 3.516064; stroke-linejoin: miter; stroke-linecap: round"/>
    <path d="M 590.222813 324.941688 
L 586.153672 333.079969 
L 582.084532 324.941688 
z
" clip-path="url(#p451e7b47d2)" style="fill: #111111; stroke: #111111; stroke-width: 3.516064; stroke-linejoin: miter; stroke-linecap: round"/>
   </g>
   <g id="line2d_1">
    <path d="M 165.610777 478.887109 
L 550.322663 478.887109 
" clip-path="url(#p451e7b47d2)" style="fill: none; stroke-dasharray: 5.6,4.2; stroke-dashoffset: 0; stroke: #404040; stroke-width: 1.4"/>
   </g>
   <g id="line2d_2">
    <path d="M 165.610777 406.495467 
L 550.322663 406.495467 
" clip-path="url(#p451e7b47d2)" style="fill: none; stroke-dasharray: 5.6,4.2; stroke-dashoffset: 0; stroke: #404040; stroke-width: 1.4"/>
   </g>
   <g id="line2d_3">
    <path d="M 415.484919 353.467767 
L 560.694797 353.467767 
" clip-path="url(#p451e7b47d2)" style="fill: none; stroke-dasharray: 5.6,4.2; stroke-dashoffset: 0; stroke: #404040; stroke-width: 1.4"/>
   </g>
   <g id="patch_9">
    <path d="M 665.359061 337.011049 
Q 577.422948 406.094879 490.191656 474.624992 
" clip-path="url(#p451e7b47d2)" style="fill: none; stroke: #404040; stroke-width: 0.801686; stroke-linejoin: miter; stroke-linecap: round"/>
    <path d="M 496.326249 473.367011 
L 490.191656 474.624992 
L 492.866027 468.962529 
z
" clip-path="url(#p451e7b47d2)" style="fill: #404040; stroke: #404040; stroke-width: 0.801686; stroke-linejoin: miter; stroke-linecap: round"/>
   </g>
   <g id="patch_10">
    <path d="M 620.098839 337.011049 
Q 578.236244 369.898884 538.990485 400.730897 
" clip-path="url(#p451e7b47d2)" style="fill: none; stroke: #404040; stroke-width: 2.976472; stroke-linejoin: miter; stroke-linecap: round"/>
    <path d="M 546.713023 399.147286 
L 538.990485 400.730897 
L 542.357119 393.6027 
z
" clip-path="url(#p451e7b47d2)" style="fill: #404040; stroke: #404040; stroke-width: 2.976472; stroke-linejoin: miter; stroke-linecap: round"/>
   </g>
   <g id="patch_11">
    <path d="M 574.838617 337.011049 
Q 542.39908 344.559905 511.047322 351.85563 
" clip-path="url(#p451e7b47d2)" style="fill: none; stroke: #404040; stroke-width: 0.998935; stroke-linejoin: miter; stroke-linecap: round"/>
    <path d="M 517.280411 353.348053 
L 511.047322 351.85563 
L 515.981114 347.764613 
z
" clip-path="url(#p451e7b47d2)" style="fill: #404040; stroke: #404040; stroke-width: 0.998935; stroke-linejoin: miter; stroke-linecap: round"/>
   </g>
   <g id="patch_12">
    <path d="M 370.224697 353.467767 
Q 335.146166 378.25087 303.521206 400.594013 
" clip-path="url(#p451e7b47d2)" style="fill: none; stroke: #404040; stroke-width: 3.782122; stroke-linejoin: miter; stroke-linecap: round"/>
    <path d="M 311.907855 399.314227 
L 303.521206 400.594013 
L 307.529367 393.116823 
z
" clip-path="url(#p451e7b47d2)" style="fill: #404040; stroke: #404040; stroke-width: 3.782122; stroke-linejoin: miter; stroke-linecap: round"/>
   </g>
   <g id="line2d_4">
    <path d="M 120.350555 406.495467 
L 120.350555 439.66341 
" clip-path="url(#p451e7b47d2)" style="fill: none; stroke: #111111; stroke-width: 2.213035"/>
   </g>
   <g id="line2d_5">
    <path d="M 120.350555 325.618853 
L 120.350555 363.029281 
" clip-path="url(#p451e7b47d2)" style="fill: none; stroke: #111111; stroke-width: 3.842838"/>
   </g>
   <g id="line2d_6">
    <path d="M 120.350555 233.86906 
L 120.350555 276.716078 
" clip-path="url(#p451e7b47d2)" style="fill: none; stroke: #111111; stroke-width: 5.427109"/>
   </g>
   <g id="line2d_7">
    <path d="M 370.224697 264.747433 
L 370.224697 306.079721 
" clip-path="url(#p451e7b47d2)" style="fill: none; stroke: #111111; stroke-width: 2.45567"/>
   </g>
   <g id="line2d_8">
    <path d="M 370.224697 179.519165 
L 370.224697 219.10542 
" clip-path="url(#p451e7b47d2)" style="fill: none; stroke: #111111; stroke-width: 3.826587"/>
   </g>
   <g id="line2d_9">
    <path d="M 370.224697 91.576337 
L 370.224697 132.519872 
" clip-path="url(#p451e7b47d2)" style="fill: none; stroke: #111111; stroke-width: 5.8"/>
   </g>
   <g id="line2d_10">
    <path d="M 586.153672 251.36151 
L 586.153672 291.158401 
" clip-path="url(#p451e7b47d2)" style="fill: none; stroke: #111111; stroke-width: 3.516064"/>
   </g>
   <g id="line2d_11">
    <path d="M 75.090333 478.887109 
L 165.610777 478.887109 
" clip-path="url(#p451e7b47d2)" style="fill: none; stroke: #111111; stroke-width: 3.6; stroke-linecap: round"/>
   </g>
   <g id="line2d_12">
    <path d="M 75.090333 406.495467 
L 165.610777 406.495467 
" clip-path="url(#p451e7b47d2)" style="fill: none; stroke: #111111; stroke-width: 3.6; stroke-linecap: round"/>
   </g>
   <g id="line2d_13">
    <path d="M 75.090333 325.618853 
L 165.610777 325.618853 
" clip-path="url(#p451e7b47d2)" style="fill: none; stroke: #111111; stroke-width: 3.6; stroke-linecap: round"/>
   </g>
   <g id="line2d_14">
    <path d="M 75.090333 233.86906 
L 165.610777 233.86906 
" clip-path="url(#p451e7b47d2)" style="fill: none; stroke: #111111; stroke-width: 3.6; stroke-linecap: round"/>
   </g>
   <g id="line2d_15">
    <path d="M 324.964475 353.467767 
L 415.484919 353.467767 
" clip-path="url(#p451e7b47d2)" style="fill: none; stroke: #111111; stroke-width: 3.6; stroke-linecap: round"/>
   </g>
   <g id="line2d_16">
    <path d="M 324.964475 264.747433 
L 415.484919 264.747433 
" clip-path="url(#p451e7b47d2)" style="fill: none; stroke: #111111; stroke-width: 3.6; stroke-linecap: round"/>
   </g>
   <g id="line2d_17">
    <path d="M 324.964475 179.519165 
L 415.484919 179.519165 
" clip-path="url(#p451e7b47d2)" style="fill: none; stroke: #111111; stroke-width: 3.6; stroke-linecap: round"/>
   </g>
   <g id="line2d_18">
    <path d="M 324.964475 91.576337 
L 415.484919 91.576337 
" clip-path="url(#p451e7b47d2)" style="fill: none; stroke: #111111; stroke-width: 3.6; stroke-linecap: round"/>
   </g>
   <g id="line2d_19">
    <path d="M 574.838617 337.011049 
L 665.359061 337.011049 
" clip-path="url(#p451e7b47d2)" style="fill: none; stroke: #111111; stroke-width: 3.6; stroke-linecap: round"/>
   </g>
   <g id="line2d_20">
    <path d="M 574.838617 251.36151 
L 665.359061 251.36151 
" clip-path="url(#p451e7b47d2)" style="fill: none; stroke: #111111; stroke-width: 3.6; stroke-linecap: round"/>
   </g>
   <g id="text_1">
    <!-- $^{120}\mathrm{Kr}$ -->
    <g transform="translate(331.102 33.034687) scale(0.34 -0.34)">
     <defs>
      <path id="DejaVuSans-31" d="M 794 531 
L 1825 531 
L 1825 4091 
L 703 3866 
L 703 4441 
L 1819 4666 
L 2450 4666 
L 2450 531 
L 3481 531 
L 3481 0 
L 794 0 
L 794 531 
z
" transform="scale(0.015625)"/>
      <path id="DejaVuSans-32" d="M 1228 531 
L 3431 531 
L 3431 0 
L 469 0 
L 469 531 
Q 828 903 1448 1529 
Q 2069 2156 2228 2338 
Q 2531 2678 2651 2914 
Q 2772 3150 2772 3378 
Q 2772 3750 2511 3984 
Q 2250 4219 1831 4219 
Q 1534 4219 1204 4116 
Q 875 4013 500 3803 
L 500 4441 
Q 881 4594 1212 4672 
Q 1544 4750 1819 4750 
Q 2544 4750 2975 4387 
Q 3406 4025 3406 3419 
Q 3406 3131 3298 2873 
Q 3191 2616 2906 2266 
Q 2828 2175 2409 1742 
Q 1991 1309 1228 531 
z
" transform="scale(0.015625)"/>
      <path id="DejaVuSans-30" d="M 2034 4250 
Q 1547 4250 1301 3770 
Q 1056 3291 1056 2328 
Q 1056 1369 1301 889 
Q 1547 409 2034 409 
Q 2525 409 2770 889 
Q 3016 1369 3016 2328 
Q 3016 3291 2770 3770 
Q 2525 4250 2034 4250 
z
M 2034 4750 
Q 2819 4750 3233 4129 
Q 3647 3509 3647 2328 
Q 3647 1150 3233 529 
Q 2819 -91 2034 -91 
Q 1250 -91 836 529 
Q 422 1150 422 2328 
Q 422 3509 836 4129 
Q 1250 4750 2034 4750 
z
" transform="scale(0.015625)"/>
      <path id="DejaVuSans-4b" d="M 628 4666 
L 1259 4666 
L 1259 2694 
L 3353 4666 
L 4166 4666 
L 1850 2491 
L 4331 0 
L 3500 0 
L 1259 2247 
L 1259 0 
L 628 0 
L 628 4666 
z
" transform="scale(0.015625)"/>
      <path id="DejaVuSans-72" d="M 2631 2963 
Q 2534 3019 2420 3045 
Q 2306 3072 2169 3072 
Q 1681 3072 1420 2755 
Q 1159 2438 1159 1844 
L 1159 0 
L 581 0 
L 581 3500 
L 1159 3500 
L 1159 2956 
Q 1341 3275 1631 3429 
Q 1922 3584 2338 3584 
Q 2397 3584 2469 3576 
Q 2541 3569 2628 3553 
L 2631 2963 
z
" transform="scale(0.015625)"/>
     </defs>
     <use xlink:href="#DejaVuSans-31" transform="translate(0.957031 39.046875) scale(0.7)"/>
     <use xlink:href="#DejaVuSans-32" transform="translate(45.493164 39.046875) scale(0.7)"/>
     <use xlink:href="#DejaVuSans-30" transform="translate(90.029297 39.046875) scale(0.7)"/>
     <use xlink:href="#DejaVuSans-4b" transform="translate(137.299805 0.765625)"/>
     <use xlink:href="#DejaVuSans-72" transform="translate(202.875977 0.765625)"/>
    </g>
   </g>
   <g id="text_2">
    <!-- 0 -->
    <g transform="translate(46.98525 483.302109) scale(0.16 -0.16)">
     <defs>
      <path id="DejaVuSans-BoldOblique-30" d="M 1913 728 
Q 2153 728 2339 872 
Q 2525 1016 2650 1294 
Q 2738 1491 2809 1742 
Q 2881 1994 2944 2338 
Q 2997 2616 3025 2850 
Q 3053 3084 3053 3250 
Q 3053 3600 2928 3764 
Q 2803 3928 2541 3928 
Q 2297 3928 2112 3789 
Q 1928 3650 1806 3366 
Q 1713 3163 1636 2903 
Q 1559 2644 1503 2338 
Q 1450 2056 1422 1815 
Q 1394 1575 1394 1409 
Q 1394 1063 1522 895 
Q 1650 728 1913 728 
z
M 4225 3072 
Q 4225 2450 4053 1862 
Q 3881 1275 3572 831 
Q 3256 375 2809 142 
Q 2363 -91 1813 -91 
Q 1047 -91 639 343 
Q 231 778 231 1594 
Q 231 2206 401 2795 
Q 572 3384 878 3822 
Q 1200 4281 1644 4515 
Q 2088 4750 2644 4750 
Q 3403 4750 3814 4314 
Q 4225 3878 4225 3072 
z
" transform="scale(0.015625)"/>
     </defs>
     <use xlink:href="#DejaVuSans-BoldOblique-30"/>
    </g>
   </g>
   <g id="text_3">
    <!-- 0⁺ -->
    <g transform="translate(182.58336 484.042344) scale(0.23 -0.23)">
     <defs>
      <path id="TimesNewRomanPS-BoldMT-30" d="M 2966 2119 
Q 2966 1484 2788 934 
Q 2681 597 2501 381 
Q 2322 166 2094 39 
Q 1866 -88 1597 -88 
Q 1291 -88 1044 68 
Q 797 225 606 516 
Q 469 728 366 1081 
Q 231 1559 231 2069 
Q 231 2759 425 3338 
Q 584 3816 909 4070 
Q 1234 4325 1597 4325 
Q 1966 4325 2286 4073 
Q 2606 3822 2756 3397 
Q 2966 2813 2966 2119 
z
M 2003 2125 
Q 2003 3238 1991 3422 
Q 1959 3856 1841 4009 
Q 1763 4109 1588 4109 
Q 1453 4109 1375 4034 
Q 1259 3925 1218 3648 
Q 1178 3372 1178 1719 
Q 1178 819 1241 513 
Q 1288 291 1375 216 
Q 1463 141 1606 141 
Q 1763 141 1841 241 
Q 1972 416 1991 781 
L 2003 2125 
z
" transform="scale(0.015625)"/>
      <path id="DejaVuSerif-Bold-207a" d="M 1916 4344 
L 1916 3441 
L 2950 3441 
L 2950 3044 
L 1916 3044 
L 1916 2141 
L 1463 2141 
L 1463 3044 
L 428 3044 
L 428 3441 
L 1463 3441 
L 1463 4344 
L 1916 4344 
z
" transform="scale(0.015625)"/>
     </defs>
     <use xlink:href="#TimesNewRomanPS-BoldMT-30"/>
     <use xlink:href="#DejaVuSerif-Bold-207a" transform="translate(50 0)"/>
    </g>
   </g>
   <g id="text_4">
    <!-- 1100 -->
    <g transform="translate(13.58775 410.910467) scale(0.16 -0.16)">
     <defs>
      <path id="DejaVuSans-BoldOblique-31" d="M 441 831 
L 1503 831 
L 2088 3847 
L 953 3622 
L 1113 4441 
L 2241 4666 
L 3384 4666 
L 2644 831 
L 3700 831 
L 3541 0 
L 275 0 
L 441 831 
z
" transform="scale(0.015625)"/>
     </defs>
     <use xlink:href="#DejaVuSans-BoldOblique-31"/>
     <use xlink:href="#DejaVuSans-BoldOblique-31" transform="translate(69.580078 0)"/>
     <use xlink:href="#DejaVuSans-BoldOblique-30" transform="translate(139.160156 0)"/>
     <use xlink:href="#DejaVuSans-BoldOblique-30" transform="translate(208.740234 0)"/>
    </g>
   </g>
   <g id="text_5">
    <!-- 2⁺ -->
    <g transform="translate(182.58336 411.650701) scale(0.23 -0.23)">
     <defs>
      <path id="TimesNewRomanPS-BoldMT-32" d="M 2650 0 
L 156 0 
L 156 69 
Q 1303 1434 1548 1906 
Q 1794 2378 1794 2828 
Q 1794 3156 1591 3373 
Q 1388 3591 1094 3591 
Q 613 3591 347 3109 
L 231 3150 
Q 400 3750 744 4037 
Q 1088 4325 1538 4325 
Q 1859 4325 2125 4175 
Q 2391 4025 2541 3764 
Q 2691 3503 2691 3275 
Q 2691 2859 2459 2431 
Q 2144 1853 1081 819 
L 1997 819 
Q 2334 819 2436 847 
Q 2538 875 2603 942 
Q 2669 1009 2775 1225 
L 2888 1225 
L 2650 0 
z
" transform="scale(0.015625)"/>
     </defs>
     <use xlink:href="#TimesNewRomanPS-BoldMT-32"/>
     <use xlink:href="#DejaVuSerif-Bold-207a" transform="translate(50 0)"/>
    </g>
   </g>
   <g id="text_6">
    <!-- 2328 -->
    <g transform="translate(13.58775 330.033853) scale(0.16 -0.16)">
     <defs>
      <path id="DejaVuSans-BoldOblique-32" d="M 1581 884 
L 3609 884 
L 3438 0 
L 50 0 
L 225 891 
L 2209 2388 
Q 2534 2638 2704 2894 
Q 2875 3150 2875 3391 
Q 2875 3647 2700 3787 
Q 2525 3928 2209 3928 
Q 1913 3928 1547 3811 
Q 1181 3694 722 3450 
L 922 4441 
Q 1347 4597 1756 4673 
Q 2166 4750 2566 4750 
Q 3278 4750 3687 4442 
Q 4097 4134 4097 3603 
Q 4097 3147 3847 2772 
Q 3597 2397 2747 1759 
L 1581 884 
z
" transform="scale(0.015625)"/>
      <path id="DejaVuSans-BoldOblique-33" d="M 3022 2516 
Q 3375 2434 3572 2187 
Q 3769 1941 3769 1581 
Q 3769 806 3155 357 
Q 2541 -91 1466 -91 
Q 1059 -91 692 -33 
Q 325 25 0 141 
L 178 1069 
Q 456 906 784 817 
Q 1113 728 1441 728 
Q 1969 728 2276 926 
Q 2584 1125 2584 1459 
Q 2584 1738 2350 1877 
Q 2116 2016 1644 2016 
L 1166 2016 
L 1319 2791 
L 1825 2791 
Q 2316 2791 2602 2969 
Q 2888 3147 2888 3450 
Q 2888 3688 2689 3813 
Q 2491 3938 2113 3938 
Q 1847 3938 1534 3869 
Q 1222 3800 884 3669 
L 1056 4550 
Q 1425 4650 1783 4700 
Q 2141 4750 2491 4750 
Q 3281 4750 3679 4487 
Q 4078 4225 4078 3706 
Q 4078 3241 3801 2930 
Q 3525 2619 3022 2516 
z
" transform="scale(0.015625)"/>
      <path id="DejaVuSans-BoldOblique-38" d="M 2150 2088 
Q 1784 2088 1539 1839 
Q 1294 1591 1294 1228 
Q 1294 969 1453 817 
Q 1613 666 1888 666 
Q 2259 666 2503 911 
Q 2747 1156 2747 1522 
Q 2747 1781 2586 1934 
Q 2425 2088 2150 2088 
z
M 1381 2484 
Q 1044 2625 876 2850 
Q 709 3075 709 3391 
Q 709 4025 1229 4387 
Q 1750 4750 2669 4750 
Q 3406 4750 3812 4475 
Q 4219 4200 4219 3700 
Q 4219 3256 3936 2940 
Q 3653 2625 3128 2484 
Q 3509 2338 3690 2091 
Q 3872 1844 3872 1466 
Q 3872 747 3311 328 
Q 2750 -91 1772 -91 
Q 1000 -91 570 217 
Q 141 525 141 1075 
Q 141 1572 470 1945 
Q 800 2319 1381 2484 
z
M 2559 3994 
Q 2241 3994 2048 3808 
Q 1856 3622 1856 3316 
Q 1856 3103 1995 2972 
Q 2134 2841 2363 2841 
Q 2681 2841 2873 3027 
Q 3066 3213 3066 3519 
Q 3066 3734 2927 3864 
Q 2788 3994 2559 3994 
z
" transform="scale(0.015625)"/>
     </defs>
     <use xlink:href="#DejaVuSans-BoldOblique-32"/>
     <use xlink:href="#DejaVuSans-BoldOblique-33" transform="translate(69.580078 0)"/>
     <use xlink:href="#DejaVuSans-BoldOblique-32" transform="translate(139.160156 0)"/>
     <use xlink:href="#DejaVuSans-BoldOblique-38" transform="translate(208.740234 0)"/>
    </g>
   </g>
   <g id="text_7">
    <!-- 4⁺ -->
    <g transform="translate(182.58336 330.774087) scale(0.23 -0.23)">
     <defs>
      <path id="TimesNewRomanPS-BoldMT-34" d="M 159 1597 
L 2172 4325 
L 2553 4325 
L 2553 1597 
L 2941 1597 
L 2941 950 
L 2553 950 
L 2553 0 
L 1694 0 
L 1694 950 
L 159 950 
L 159 1597 
z
M 463 1597 
L 1694 1597 
L 1694 3269 
L 463 1597 
z
" transform="scale(0.015625)"/>
     </defs>
     <use xlink:href="#TimesNewRomanPS-BoldMT-34"/>
     <use xlink:href="#DejaVuSerif-Bold-207a" transform="translate(50 0)"/>
    </g>
   </g>
   <g id="text_8">
    <!-- 3722 -->
    <g transform="translate(13.58775 238.28406) scale(0.16 -0.16)">
     <defs>
      <path id="DejaVuSans-BoldOblique-37" d="M 922 4666 
L 4441 4666 
L 4300 3981 
L 1703 0 
L 500 0 
L 2969 3781 
L 756 3781 
L 922 4666 
z
" transform="scale(0.015625)"/>
     </defs>
     <use xlink:href="#DejaVuSans-BoldOblique-33"/>
     <use xlink:href="#DejaVuSans-BoldOblique-37" transform="translate(69.580078 0)"/>
     <use xlink:href="#DejaVuSans-BoldOblique-32" transform="translate(139.160156 0)"/>
     <use xlink:href="#DejaVuSans-BoldOblique-32" transform="translate(208.740234 0)"/>
    </g>
   </g>
   <g id="text_9">
    <!-- 6⁺ -->
    <g transform="translate(182.58336 239.024295) scale(0.23 -0.23)">
     <defs>
      <path id="TimesNewRomanPS-BoldMT-36" d="M 3006 4325 
L 3006 4238 
Q 2441 4094 2098 3867 
Q 1756 3641 1557 3317 
Q 1359 2994 1250 2516 
Q 1388 2609 1478 2638 
Q 1681 2700 1888 2700 
Q 2363 2700 2680 2354 
Q 2997 2009 2997 1413 
Q 2997 994 2825 644 
Q 2653 294 2337 103 
Q 2022 -88 1663 -88 
Q 1272 -88 940 126 
Q 609 341 423 753 
Q 238 1166 238 1650 
Q 238 2363 580 2977 
Q 922 3591 1551 3955 
Q 2181 4319 3006 4325 
z
M 1209 2263 
Q 1184 1831 1184 1631 
Q 1184 1200 1267 797 
Q 1350 394 1494 231 
Q 1597 116 1738 116 
Q 1881 116 1993 283 
Q 2106 450 2106 963 
Q 2106 1825 1897 2153 
Q 1763 2366 1534 2366 
Q 1409 2366 1209 2263 
z
" transform="scale(0.015625)"/>
     </defs>
     <use xlink:href="#TimesNewRomanPS-BoldMT-36"/>
     <use xlink:href="#DejaVuSerif-Bold-207a" transform="translate(50 0)"/>
    </g>
   </g>
   <g id="text_10">
    <!-- 1905 -->
    <g transform="translate(263.461892 357.882767) scale(0.16 -0.16)">
     <defs>
      <path id="DejaVuSans-BoldOblique-39" d="M 263 103 
L 428 966 
Q 700 825 953 758 
Q 1206 691 1459 691 
Q 2041 691 2400 1003 
Q 2759 1316 2834 1881 
Q 2594 1722 2337 1645 
Q 2081 1569 1791 1569 
Q 1219 1569 853 1909 
Q 488 2250 488 2778 
Q 488 3641 1052 4192 
Q 1616 4744 2503 4744 
Q 3300 4744 3736 4292 
Q 4172 3841 4172 3016 
Q 4172 2381 3978 1801 
Q 3784 1222 3431 800 
Q 3056 353 2548 128 
Q 2041 -97 1403 -97 
Q 1106 -97 825 -47 
Q 544 3 263 103 
z
M 2169 2344 
Q 2525 2344 2753 2637 
Q 2981 2931 2981 3391 
Q 2981 3675 2845 3828 
Q 2709 3981 2456 3981 
Q 2103 3981 1870 3690 
Q 1638 3400 1638 2963 
Q 1638 2663 1775 2503 
Q 1913 2344 2169 2344 
z
" transform="scale(0.015625)"/>
      <path id="DejaVuSans-BoldOblique-35" d="M 1131 4666 
L 4122 4666 
L 3950 3781 
L 1919 3781 
L 1778 3059 
Q 1916 3097 2064 3117 
Q 2213 3138 2363 3138 
Q 3078 3138 3481 2811 
Q 3884 2484 3884 1906 
Q 3884 988 3262 448 
Q 2641 -91 1575 -91 
Q 1184 -91 815 -14 
Q 447 63 84 219 
L 269 1166 
Q 616 941 942 834 
Q 1269 728 1606 728 
Q 2100 728 2397 986 
Q 2694 1244 2694 1663 
Q 2694 1963 2469 2139 
Q 2244 2316 1856 2316 
Q 1594 2316 1289 2248 
Q 984 2181 622 2041 
L 1131 4666 
z
" transform="scale(0.015625)"/>
     </defs>
     <use xlink:href="#DejaVuSans-BoldOblique-31"/>
     <use xlink:href="#DejaVuSans-BoldOblique-39" transform="translate(69.580078 0)"/>
     <use xlink:href="#DejaVuSans-BoldOblique-30" transform="translate(139.160156 0)"/>
     <use xlink:href="#DejaVuSans-BoldOblique-35" transform="translate(208.740234 0)"/>
    </g>
   </g>
   <g id="text_11">
    <!-- 0⁺ -->
    <g transform="translate(432.457502 358.623001) scale(0.23 -0.23)">
     <use xlink:href="#TimesNewRomanPS-BoldMT-30"/>
     <use xlink:href="#DejaVuSerif-Bold-207a" transform="translate(50 0)"/>
    </g>
   </g>
   <g id="text_12">
    <!-- 3253 -->
    <g transform="translate(263.461892 269.162433) scale(0.16 -0.16)">
     <use xlink:href="#DejaVuSans-BoldOblique-33"/>
     <use xlink:href="#DejaVuSans-BoldOblique-32" transform="translate(69.580078 0)"/>
     <use xlink:href="#DejaVuSans-BoldOblique-35" transform="translate(139.160156 0)"/>
     <use xlink:href="#DejaVuSans-BoldOblique-33" transform="translate(208.740234 0)"/>
    </g>
   </g>
   <g id="text_13">
    <!-- 2⁺ -->
    <g transform="translate(432.457502 269.902667) scale(0.23 -0.23)">
     <use xlink:href="#TimesNewRomanPS-BoldMT-32"/>
     <use xlink:href="#DejaVuSerif-Bold-207a" transform="translate(50 0)"/>
    </g>
   </g>
   <g id="text_14">
    <!-- 4548 -->
    <g transform="translate(263.461892 183.934165) scale(0.16 -0.16)">
     <defs>
      <path id="DejaVuSans-BoldOblique-34" d="M 2638 3641 
L 978 1722 
L 2259 1722 
L 2638 3641 
z
M 2606 4666 
L 3975 4666 
L 3397 1722 
L 4063 1722 
L 3897 850 
L 3231 850 
L 3066 0 
L 1925 0 
L 2094 850 
L -6 850 
L 197 1881 
L 2606 4666 
z
" transform="scale(0.015625)"/>
     </defs>
     <use xlink:href="#DejaVuSans-BoldOblique-34"/>
     <use xlink:href="#DejaVuSans-BoldOblique-35" transform="translate(69.580078 0)"/>
     <use xlink:href="#DejaVuSans-BoldOblique-34" transform="translate(139.160156 0)"/>
     <use xlink:href="#DejaVuSans-BoldOblique-38" transform="translate(208.740234 0)"/>
    </g>
   </g>
   <g id="text_15">
    <!-- 4⁺ -->
    <g transform="translate(432.457502 184.674399) scale(0.23 -0.23)">
     <use xlink:href="#TimesNewRomanPS-BoldMT-34"/>
     <use xlink:href="#DejaVuSerif-Bold-207a" transform="translate(50 0)"/>
    </g>
   </g>
   <g id="text_16">
    <!-- 5884 -->
    <g transform="translate(263.461892 95.991337) scale(0.16 -0.16)">
     <use xlink:href="#DejaVuSans-BoldOblique-35"/>
     <use xlink:href="#DejaVuSans-BoldOblique-38" transform="translate(69.580078 0)"/>
     <use xlink:href="#DejaVuSans-BoldOblique-38" transform="translate(139.160156 0)"/>
     <use xlink:href="#DejaVuSans-BoldOblique-34" transform="translate(208.740234 0)"/>
    </g>
   </g>
   <g id="text_17">
    <!-- 6⁺ -->
    <g transform="translate(432.457502 96.731572) scale(0.23 -0.23)">
     <use xlink:href="#TimesNewRomanPS-BoldMT-36"/>
     <use xlink:href="#DejaVuSerif-Bold-207a" transform="translate(50 0)"/>
    </g>
   </g>
   <g id="text_18">
    <!-- 2155 -->
    <g transform="translate(513.336034 341.426049) scale(0.16 -0.16)">
     <use xlink:href="#DejaVuSans-BoldOblique-32"/>
     <use xlink:href="#DejaVuSans-BoldOblique-31" transform="translate(69.580078 0)"/>
     <use xlink:href="#DejaVuSans-BoldOblique-35" transform="translate(139.160156 0)"/>
     <use xlink:href="#DejaVuSans-BoldOblique-35" transform="translate(208.740234 0)"/>
    </g>
   </g>
   <g id="text_19">
    <!-- 2⁺ -->
    <g transform="translate(682.331644 342.166283) scale(0.23 -0.23)">
     <use xlink:href="#TimesNewRomanPS-BoldMT-32"/>
     <use xlink:href="#DejaVuSerif-Bold-207a" transform="translate(50 0)"/>
    </g>
   </g>
   <g id="text_20">
    <!-- 3457 -->
    <g transform="translate(513.336034 255.77651) scale(0.16 -0.16)">
     <use xlink:href="#DejaVuSans-BoldOblique-33"/>
     <use xlink:href="#DejaVuSans-BoldOblique-34" transform="translate(69.580078 0)"/>
     <use xlink:href="#DejaVuSans-BoldOblique-35" transform="translate(139.160156 0)"/>
     <use xlink:href="#DejaVuSans-BoldOblique-37" transform="translate(208.740234 0)"/>
    </g>
   </g>
   <g id="text_21">
    <!-- 3⁺ -->
    <g transform="translate(682.331644 256.516745) scale(0.23 -0.23)">
     <defs>
      <path id="TimesNewRomanPS-BoldMT-33" d="M 947 2125 
L 947 2234 
Q 1303 2338 1440 2427 
Q 1578 2516 1678 2698 
Q 1778 2881 1778 3069 
Q 1778 3328 1589 3514 
Q 1400 3700 1119 3700 
Q 681 3700 375 3238 
L 259 3278 
Q 484 3800 836 4062 
Q 1188 4325 1619 4325 
Q 2059 4325 2345 4056 
Q 2631 3788 2631 3428 
Q 2631 3194 2498 2976 
Q 2366 2759 2081 2594 
Q 2447 2416 2639 2155 
Q 2831 1894 2831 1500 
Q 2831 838 2351 373 
Q 1872 -91 1066 -91 
Q 528 -91 281 88 
Q 103 213 103 409 
Q 103 553 206 654 
Q 309 756 444 756 
Q 547 756 638 713 
Q 688 688 992 439 
Q 1297 191 1563 191 
Q 1794 191 1959 373 
Q 2125 556 2125 838 
Q 2125 1266 1825 1627 
Q 1525 1988 947 2125 
z
" transform="scale(0.015625)"/>
     </defs>
     <use xlink:href="#TimesNewRomanPS-BoldMT-33"/>
     <use xlink:href="#DejaVuSerif-Bold-207a" transform="translate(50 0)"/>
    </g>
   </g>
   <g id="text_22">
    <path d="M 111.560555 435.465038 
L 111.560555 444.130038 
Q 111.560555 445.105038 111.645555 445.375038 
Q 111.733055 445.645038 112.005555 445.817538 
Q 112.280555 445.987538 112.883055 445.987538 
L 113.123055 445.987538 
L 113.123055 446.277538 
L 107.545555 446.277538 
L 107.545555 445.987538 
L 107.828055 445.987538 
Q 108.508055 445.987538 108.795555 445.832538 
Q 109.085555 445.675038 109.185555 445.402538 
Q 109.288055 445.130038 109.288055 444.130038 
L 109.288055 438.637538 
Q 109.288055 437.902538 109.218055 437.720038 
Q 109.148055 437.535038 108.955555 437.407538 
Q 108.765555 437.277538 108.515555 437.277538 
Q 108.115555 437.277538 107.545555 437.527538 
L 107.405555 437.245038 
L 111.303055 435.465038 
L 111.560555 435.465038 
z
M 116.788055 435.682538 
L 121.748055 435.682538 
L 120.960555 437.700038 
L 116.788055 437.700038 
L 116.390555 438.755038 
Q 119.085555 438.855038 120.538055 440.097538 
Q 121.733055 441.120038 121.733055 442.645038 
Q 121.733055 443.620038 121.178055 444.555038 
Q 120.623055 445.487538 119.615555 445.992538 
Q 118.608055 446.497538 117.405555 446.497538 
Q 116.108055 446.497538 115.413055 446.012538 
Q 114.928055 445.667538 114.928055 445.230038 
Q 114.928055 444.895038 115.180555 444.637538 
Q 115.435555 444.380038 115.773055 444.380038 
Q 116.078055 444.380038 116.390555 444.505038 
Q 116.703055 444.630038 117.460555 445.160038 
Q 117.935555 445.487538 118.280555 445.612538 
Q 118.523055 445.707538 118.828055 445.707538 
Q 119.468055 445.707538 119.915555 445.240038 
Q 120.365555 444.770038 120.365555 444.112538 
Q 120.365555 442.737538 118.990555 441.880038 
Q 117.615555 441.020038 115.523055 441.020038 
Q 115.310555 441.020038 114.890555 441.027538 
L 116.788055 435.682538 
z
M 124.350555 443.870038 
Q 124.898055 443.870038 125.275555 444.255038 
Q 125.655555 444.637538 125.655555 445.175038 
Q 125.655555 445.715038 125.273055 446.095038 
Q 124.890555 446.472538 124.350555 446.472538 
Q 123.810555 446.472538 123.430555 446.095038 
Q 123.053055 445.715038 123.053055 445.175038 
Q 123.053055 444.637538 123.430555 444.255038 
Q 123.810555 443.870038 124.350555 443.870038 
z
M 133.765555 440.980038 
Q 133.765555 442.567538 133.320555 443.942538 
Q 133.053055 444.785038 132.603055 445.325038 
Q 132.155555 445.862538 131.585555 446.180038 
Q 131.015555 446.497538 130.343055 446.497538 
Q 129.578055 446.497538 128.960555 446.107538 
Q 128.343055 445.715038 127.865555 444.987538 
Q 127.523055 444.457538 127.265555 443.575038 
Q 126.928055 442.380038 126.928055 441.105038 
Q 126.928055 439.380038 127.413055 437.932538 
Q 127.810555 436.737538 128.623055 436.102538 
Q 129.435555 435.465038 130.343055 435.465038 
Q 131.265555 435.465038 132.065555 436.095038 
Q 132.865555 436.722538 133.240555 437.785038 
Q 133.765555 439.245038 133.765555 440.980038 
z
M 131.358055 440.965038 
Q 131.358055 438.182538 131.328055 437.722538 
Q 131.248055 436.637538 130.953055 436.255038 
Q 130.758055 436.005038 130.320555 436.005038 
Q 129.983055 436.005038 129.788055 436.192538 
Q 129.498055 436.465038 129.395555 437.157538 
Q 129.295555 437.847538 129.295555 441.980038 
Q 129.295555 444.230038 129.453055 444.995038 
Q 129.570555 445.550038 129.788055 445.737538 
Q 130.008055 445.925038 130.365555 445.925038 
Q 130.758055 445.925038 130.953055 445.675038 
Q 131.280555 445.237538 131.328055 444.325038 
L 131.358055 440.965038 
z
" style="stroke: #ffffff; stroke-width: 3.8"/>
    <path d="M 111.560555 435.465038 
L 111.560555 444.130038 
Q 111.560555 445.105038 111.645555 445.375038 
Q 111.733055 445.645038 112.005555 445.817538 
Q 112.280555 445.987538 112.883055 445.987538 
L 113.123055 445.987538 
L 113.123055 446.277538 
L 107.545555 446.277538 
L 107.545555 445.987538 
L 107.828055 445.987538 
Q 108.508055 445.987538 108.795555 445.832538 
Q 109.085555 445.675038 109.185555 445.402538 
Q 109.288055 445.130038 109.288055 444.130038 
L 109.288055 438.637538 
Q 109.288055 437.902538 109.218055 437.720038 
Q 109.148055 437.535038 108.955555 437.407538 
Q 108.765555 437.277538 108.515555 437.277538 
Q 108.115555 437.277538 107.545555 437.527538 
L 107.405555 437.245038 
L 111.303055 435.465038 
L 111.560555 435.465038 
z
M 116.788055 435.682538 
L 121.748055 435.682538 
L 120.960555 437.700038 
L 116.788055 437.700038 
L 116.390555 438.755038 
Q 119.085555 438.855038 120.538055 440.097538 
Q 121.733055 441.120038 121.733055 442.645038 
Q 121.733055 443.620038 121.178055 444.555038 
Q 120.623055 445.487538 119.615555 445.992538 
Q 118.608055 446.497538 117.405555 446.497538 
Q 116.108055 446.497538 115.413055 446.012538 
Q 114.928055 445.667538 114.928055 445.230038 
Q 114.928055 444.895038 115.180555 444.637538 
Q 115.435555 444.380038 115.773055 444.380038 
Q 116.078055 444.380038 116.390555 444.505038 
Q 116.703055 444.630038 117.460555 445.160038 
Q 117.935555 445.487538 118.280555 445.612538 
Q 118.523055 445.707538 118.828055 445.707538 
Q 119.468055 445.707538 119.915555 445.240038 
Q 120.365555 444.770038 120.365555 444.112538 
Q 120.365555 442.737538 118.990555 441.880038 
Q 117.615555 441.020038 115.523055 441.020038 
Q 115.310555 441.020038 114.890555 441.027538 
L 116.788055 435.682538 
z
M 124.350555 443.870038 
Q 124.898055 443.870038 125.275555 444.255038 
Q 125.655555 444.637538 125.655555 445.175038 
Q 125.655555 445.715038 125.273055 446.095038 
Q 124.890555 446.472538 124.350555 446.472538 
Q 123.810555 446.472538 123.430555 446.095038 
Q 123.053055 445.715038 123.053055 445.175038 
Q 123.053055 444.637538 123.430555 444.255038 
Q 123.810555 443.870038 124.350555 443.870038 
z
M 133.765555 440.980038 
Q 133.765555 442.567538 133.320555 443.942538 
Q 133.053055 444.785038 132.603055 445.325038 
Q 132.155555 445.862538 131.585555 446.180038 
Q 131.015555 446.497538 130.343055 446.497538 
Q 129.578055 446.497538 128.960555 446.107538 
Q 128.343055 445.715038 127.865555 444.987538 
Q 127.523055 444.457538 127.265555 443.575038 
Q 126.928055 442.380038 126.928055 441.105038 
Q 126.928055 439.380038 127.413055 437.932538 
Q 127.810555 436.737538 128.623055 436.102538 
Q 129.435555 435.465038 130.343055 435.465038 
Q 131.265555 435.465038 132.065555 436.095038 
Q 132.865555 436.722538 133.240555 437.785038 
Q 133.765555 439.245038 133.765555 440.980038 
z
M 131.358055 440.965038 
Q 131.358055 438.182538 131.328055 437.722538 
Q 131.248055 436.637538 130.953055 436.255038 
Q 130.758055 436.005038 130.320555 436.005038 
Q 129.983055 436.005038 129.788055 436.192538 
Q 129.498055 436.465038 129.395555 437.157538 
Q 129.295555 437.847538 129.295555 441.980038 
Q 129.295555 444.230038 129.453055 444.995038 
Q 129.570555 445.550038 129.788055 445.737538 
Q 130.008055 445.925038 130.365555 445.925038 
Q 130.758055 445.925038 130.953055 445.675038 
Q 131.280555 445.237538 131.328055 444.325038 
L 131.358055 440.965038 
z
"/>
   </g>
   <g id="text_23">
    <path d="M 108.718055 364.33091 
L 108.718055 364.05841 
Q 109.608055 363.79841 109.950555 363.57591 
Q 110.295555 363.35341 110.545555 362.89841 
Q 110.795555 362.44091 110.795555 361.97091 
Q 110.795555 361.32341 110.323055 360.85841 
Q 109.850555 360.39341 109.148055 360.39341 
Q 108.053055 360.39341 107.288055 361.54841 
L 106.998055 361.44841 
Q 107.560555 360.14341 108.440555 359.48841 
Q 109.320555 358.83091 110.398055 358.83091 
Q 111.498055 358.83091 112.213055 359.50341 
Q 112.928055 360.17341 112.928055 361.07341 
Q 112.928055 361.65841 112.595555 362.20341 
Q 112.265555 362.74591 111.553055 363.15841 
Q 112.468055 363.60341 112.948055 364.25591 
Q 113.428055 364.90841 113.428055 365.89341 
Q 113.428055 367.54841 112.228055 368.71091 
Q 111.030555 369.87091 109.015555 369.87091 
Q 107.670555 369.87091 107.053055 369.42341 
Q 106.608055 369.11091 106.608055 368.62091 
Q 106.608055 368.26091 106.865555 368.00841 
Q 107.123055 367.75341 107.460555 367.75341 
Q 107.718055 367.75341 107.945555 367.86091 
Q 108.070555 367.92341 108.830555 368.54591 
Q 109.593055 369.16591 110.258055 369.16591 
Q 110.835555 369.16591 111.248055 368.71091 
Q 111.663055 368.25341 111.663055 367.54841 
Q 111.663055 366.47841 110.913055 365.57591 
Q 110.163055 364.67341 108.718055 364.33091 
z
M 120.975555 369.64341 
L 114.740555 369.64341 
L 114.740555 369.47091 
Q 117.608055 366.05841 118.220555 364.87841 
Q 118.835555 363.69841 118.835555 362.57341 
Q 118.835555 361.75341 118.328055 361.21091 
Q 117.820555 360.66591 117.085555 360.66591 
Q 115.883055 360.66591 115.218055 361.87091 
L 114.928055 361.76841 
Q 115.350555 360.26841 116.210555 359.55091 
Q 117.070555 358.83091 118.195555 358.83091 
Q 118.998055 358.83091 119.663055 359.20591 
Q 120.328055 359.58091 120.703055 360.23341 
Q 121.078055 360.88591 121.078055 361.45591 
Q 121.078055 362.49591 120.498055 363.56591 
Q 119.710555 365.01091 117.053055 367.59591 
L 119.343055 367.59591 
Q 120.185555 367.59591 120.440555 367.52591 
Q 120.695555 367.45591 120.858055 367.28841 
Q 121.023055 367.12091 121.288055 366.58091 
L 121.570555 366.58091 
L 120.975555 369.64341 
z
M 124.350555 367.23591 
Q 124.898055 367.23591 125.275555 367.62091 
Q 125.655555 368.00341 125.655555 368.54091 
Q 125.655555 369.08091 125.273055 369.46091 
Q 124.890555 369.83841 124.350555 369.83841 
Q 123.810555 369.83841 123.430555 369.46091 
Q 123.053055 369.08091 123.053055 368.54091 
Q 123.053055 368.00341 123.430555 367.62091 
Q 123.810555 367.23591 124.350555 367.23591 
z
M 126.748055 365.65091 
L 131.780555 358.83091 
L 132.733055 358.83091 
L 132.733055 365.65091 
L 133.703055 365.65091 
L 133.703055 367.26841 
L 132.733055 367.26841 
L 132.733055 369.64341 
L 130.585555 369.64341 
L 130.585555 367.26841 
L 126.748055 367.26841 
L 126.748055 365.65091 
z
M 127.508055 365.65091 
L 130.585555 365.65091 
L 130.585555 361.47091 
L 127.508055 365.65091 
z
" style="stroke: #ffffff; stroke-width: 3.8"/>
    <path d="M 108.718055 364.33091 
L 108.718055 364.05841 
Q 109.608055 363.79841 109.950555 363.57591 
Q 110.295555 363.35341 110.545555 362.89841 
Q 110.795555 362.44091 110.795555 361.97091 
Q 110.795555 361.32341 110.323055 360.85841 
Q 109.850555 360.39341 109.148055 360.39341 
Q 108.053055 360.39341 107.288055 361.54841 
L 106.998055 361.44841 
Q 107.560555 360.14341 108.440555 359.48841 
Q 109.320555 358.83091 110.398055 358.83091 
Q 111.498055 358.83091 112.213055 359.50341 
Q 112.928055 360.17341 112.928055 361.07341 
Q 112.928055 361.65841 112.595555 362.20341 
Q 112.265555 362.74591 111.553055 363.15841 
Q 112.468055 363.60341 112.948055 364.25591 
Q 113.428055 364.90841 113.428055 365.89341 
Q 113.428055 367.54841 112.228055 368.71091 
Q 111.030555 369.87091 109.015555 369.87091 
Q 107.670555 369.87091 107.053055 369.42341 
Q 106.608055 369.11091 106.608055 368.62091 
Q 106.608055 368.26091 106.865555 368.00841 
Q 107.123055 367.75341 107.460555 367.75341 
Q 107.718055 367.75341 107.945555 367.86091 
Q 108.070555 367.92341 108.830555 368.54591 
Q 109.593055 369.16591 110.258055 369.16591 
Q 110.835555 369.16591 111.248055 368.71091 
Q 111.663055 368.25341 111.663055 367.54841 
Q 111.663055 366.47841 110.913055 365.57591 
Q 110.163055 364.67341 108.718055 364.33091 
z
M 120.975555 369.64341 
L 114.740555 369.64341 
L 114.740555 369.47091 
Q 117.608055 366.05841 118.220555 364.87841 
Q 118.835555 363.69841 118.835555 362.57341 
Q 118.835555 361.75341 118.328055 361.21091 
Q 117.820555 360.66591 117.085555 360.66591 
Q 115.883055 360.66591 115.218055 361.87091 
L 114.928055 361.76841 
Q 115.350555 360.26841 116.210555 359.55091 
Q 117.070555 358.83091 118.195555 358.83091 
Q 118.998055 358.83091 119.663055 359.20591 
Q 120.328055 359.58091 120.703055 360.23341 
Q 121.078055 360.88591 121.078055 361.45591 
Q 121.078055 362.49591 120.498055 363.56591 
Q 119.710555 365.01091 117.053055 367.59591 
L 119.343055 367.59591 
Q 120.185555 367.59591 120.440555 367.52591 
Q 120.695555 367.45591 120.858055 367.28841 
Q 121.023055 367.12091 121.288055 366.58091 
L 121.570555 366.58091 
L 120.975555 369.64341 
z
M 124.350555 367.23591 
Q 124.898055 367.23591 125.275555 367.62091 
Q 125.655555 368.00341 125.655555 368.54091 
Q 125.655555 369.08091 125.273055 369.46091 
Q 124.890555 369.83841 124.350555 369.83841 
Q 123.810555 369.83841 123.430555 369.46091 
Q 123.053055 369.08091 123.053055 368.54091 
Q 123.053055 368.00341 123.430555 367.62091 
Q 123.810555 367.23591 124.350555 367.23591 
z
M 126.748055 365.65091 
L 131.780555 358.83091 
L 132.733055 358.83091 
L 132.733055 365.65091 
L 133.703055 365.65091 
L 133.703055 367.26841 
L 132.733055 367.26841 
L 132.733055 369.64341 
L 130.585555 369.64341 
L 130.585555 367.26841 
L 126.748055 367.26841 
L 126.748055 365.65091 
z
M 127.508055 365.65091 
L 130.585555 365.65091 
L 130.585555 361.47091 
L 127.508055 365.65091 
z
"/>
   </g>
   <g id="text_24">
    <path d="M 106.748055 279.337707 
L 111.780555 272.517707 
L 112.733055 272.517707 
L 112.733055 279.337707 
L 113.703055 279.337707 
L 113.703055 280.955207 
L 112.733055 280.955207 
L 112.733055 283.330207 
L 110.585555 283.330207 
L 110.585555 280.955207 
L 106.748055 280.955207 
L 106.748055 279.337707 
z
M 107.508055 279.337707 
L 110.585555 279.337707 
L 110.585555 275.157707 
L 107.508055 279.337707 
z
M 114.843055 283.550207 
L 114.843055 283.330207 
Q 116.140555 283.032707 117.043055 282.455207 
Q 117.945555 281.877707 118.470555 281.025207 
Q 118.998055 280.172707 119.210555 279.065207 
Q 118.725555 279.315207 118.385555 279.412707 
Q 118.045555 279.510207 117.670555 279.510207 
Q 116.468055 279.510207 115.665555 278.642707 
Q 114.865555 277.775207 114.865555 276.267707 
Q 114.865555 275.220207 115.298055 274.350207 
Q 115.733055 273.477707 116.538055 272.997707 
Q 117.343055 272.517707 118.210555 272.517707 
Q 119.140555 272.517707 119.968055 273.050207 
Q 120.795555 273.580207 121.288055 274.587707 
Q 121.780555 275.595207 121.780555 276.885207 
Q 121.780555 278.557707 120.978055 280.090207 
Q 120.178055 281.620207 118.593055 282.545207 
Q 117.008055 283.470207 114.843055 283.550207 
z
M 119.328055 278.407707 
Q 119.405555 277.532707 119.405555 276.870207 
Q 119.405555 275.447707 119.078055 274.220207 
Q 118.890555 273.540207 118.523055 273.220207 
Q 118.328055 273.047707 118.015555 273.047707 
Q 117.623055 273.047707 117.405555 273.385207 
Q 117.100555 273.845207 117.100555 275.142707 
Q 117.100555 277.307707 117.615555 278.127707 
Q 117.953055 278.657707 118.523055 278.657707 
Q 118.828055 278.657707 119.328055 278.407707 
z
M 124.350555 280.922707 
Q 124.898055 280.922707 125.275555 281.307707 
Q 125.655555 281.690207 125.655555 282.227707 
Q 125.655555 282.767707 125.273055 283.147707 
Q 124.890555 283.525207 124.350555 283.525207 
Q 123.810555 283.525207 123.430555 283.147707 
Q 123.053055 282.767707 123.053055 282.227707 
Q 123.053055 281.690207 123.430555 281.307707 
Q 123.810555 280.922707 124.350555 280.922707 
z
M 128.718055 278.017707 
L 128.718055 277.745207 
Q 129.608055 277.485207 129.950555 277.262707 
Q 130.295555 277.040207 130.545555 276.585207 
Q 130.795555 276.127707 130.795555 275.657707 
Q 130.795555 275.010207 130.323055 274.545207 
Q 129.850555 274.080207 129.148055 274.080207 
Q 128.053055 274.080207 127.288055 275.235207 
L 126.998055 275.135207 
Q 127.560555 273.830207 128.440555 273.175207 
Q 129.320555 272.517707 130.398055 272.517707 
Q 131.498055 272.517707 132.213055 273.190207 
Q 132.928055 273.860207 132.928055 274.760207 
Q 132.928055 275.345207 132.595555 275.890207 
Q 132.265555 276.432707 131.553055 276.845207 
Q 132.468055 277.290207 132.948055 277.942707 
Q 133.428055 278.595207 133.428055 279.580207 
Q 133.428055 281.235207 132.228055 282.397707 
Q 131.030555 283.557707 129.015555 283.557707 
Q 127.670555 283.557707 127.053055 283.110207 
Q 126.608055 282.797707 126.608055 282.307707 
Q 126.608055 281.947707 126.865555 281.695207 
Q 127.123055 281.440207 127.460555 281.440207 
Q 127.718055 281.440207 127.945555 281.547707 
Q 128.070555 281.610207 128.830555 282.232707 
Q 129.593055 282.852707 130.258055 282.852707 
Q 130.835555 282.852707 131.248055 282.397707 
Q 131.663055 281.940207 131.663055 281.235207 
Q 131.663055 280.165207 130.913055 279.262707 
Q 130.163055 278.360207 128.718055 278.017707 
z
" style="stroke: #ffffff; stroke-width: 3.8"/>
    <path d="M 106.748055 279.337707 
L 111.780555 272.517707 
L 112.733055 272.517707 
L 112.733055 279.337707 
L 113.703055 279.337707 
L 113.703055 280.955207 
L 112.733055 280.955207 
L 112.733055 283.330207 
L 110.585555 283.330207 
L 110.585555 280.955207 
L 106.748055 280.955207 
L 106.748055 279.337707 
z
M 107.508055 279.337707 
L 110.585555 279.337707 
L 110.585555 275.157707 
L 107.508055 279.337707 
z
M 114.843055 283.550207 
L 114.843055 283.330207 
Q 116.140555 283.032707 117.043055 282.455207 
Q 117.945555 281.877707 118.470555 281.025207 
Q 118.998055 280.172707 119.210555 279.065207 
Q 118.725555 279.315207 118.385555 279.412707 
Q 118.045555 279.510207 117.670555 279.510207 
Q 116.468055 279.510207 115.665555 278.642707 
Q 114.865555 277.775207 114.865555 276.267707 
Q 114.865555 275.220207 115.298055 274.350207 
Q 115.733055 273.477707 116.538055 272.997707 
Q 117.343055 272.517707 118.210555 272.517707 
Q 119.140555 272.517707 119.968055 273.050207 
Q 120.795555 273.580207 121.288055 274.587707 
Q 121.780555 275.595207 121.780555 276.885207 
Q 121.780555 278.557707 120.978055 280.090207 
Q 120.178055 281.620207 118.593055 282.545207 
Q 117.008055 283.470207 114.843055 283.550207 
z
M 119.328055 278.407707 
Q 119.405555 277.532707 119.405555 276.870207 
Q 119.405555 275.447707 119.078055 274.220207 
Q 118.890555 273.540207 118.523055 273.220207 
Q 118.328055 273.047707 118.015555 273.047707 
Q 117.623055 273.047707 117.405555 273.385207 
Q 117.100555 273.845207 117.100555 275.142707 
Q 117.100555 277.307707 117.615555 278.127707 
Q 117.953055 278.657707 118.523055 278.657707 
Q 118.828055 278.657707 119.328055 278.407707 
z
M 124.350555 280.922707 
Q 124.898055 280.922707 125.275555 281.307707 
Q 125.655555 281.690207 125.655555 282.227707 
Q 125.655555 282.767707 125.273055 283.147707 
Q 124.890555 283.525207 124.350555 283.525207 
Q 123.810555 283.525207 123.430555 283.147707 
Q 123.053055 282.767707 123.053055 282.227707 
Q 123.053055 281.690207 123.430555 281.307707 
Q 123.810555 280.922707 124.350555 280.922707 
z
M 128.718055 278.017707 
L 128.718055 277.745207 
Q 129.608055 277.485207 129.950555 277.262707 
Q 130.295555 277.040207 130.545555 276.585207 
Q 130.795555 276.127707 130.795555 275.657707 
Q 130.795555 275.010207 130.323055 274.545207 
Q 129.850555 274.080207 129.148055 274.080207 
Q 128.053055 274.080207 127.288055 275.235207 
L 126.998055 275.135207 
Q 127.560555 273.830207 128.440555 273.175207 
Q 129.320555 272.517707 130.398055 272.517707 
Q 131.498055 272.517707 132.213055 273.190207 
Q 132.928055 273.860207 132.928055 274.760207 
Q 132.928055 275.345207 132.595555 275.890207 
Q 132.265555 276.432707 131.553055 276.845207 
Q 132.468055 277.290207 132.948055 277.942707 
Q 133.428055 278.595207 133.428055 279.580207 
Q 133.428055 281.235207 132.228055 282.397707 
Q 131.030555 283.557707 129.015555 283.557707 
Q 127.670555 283.557707 127.053055 283.110207 
Q 126.608055 282.797707 126.608055 282.307707 
Q 126.608055 281.947707 126.865555 281.695207 
Q 127.123055 281.440207 127.460555 281.440207 
Q 127.718055 281.440207 127.945555 281.547707 
Q 128.070555 281.610207 128.830555 282.232707 
Q 129.593055 282.852707 130.258055 282.852707 
Q 130.835555 282.852707 131.248055 282.397707 
Q 131.663055 281.940207 131.663055 281.235207 
Q 131.663055 280.165207 130.913055 279.262707 
Q 130.163055 278.360207 128.718055 278.017707 
z
"/>
   </g>
   <g id="text_25">
    <path d="M 361.434697 301.88135 
L 361.434697 310.54635 
Q 361.434697 311.52135 361.519697 311.79135 
Q 361.607197 312.06135 361.879697 312.23385 
Q 362.154697 312.40385 362.757197 312.40385 
L 362.997197 312.40385 
L 362.997197 312.69385 
L 357.419697 312.69385 
L 357.419697 312.40385 
L 357.702197 312.40385 
Q 358.382197 312.40385 358.669697 312.24885 
Q 358.959697 312.09135 359.059697 311.81885 
Q 359.162197 311.54635 359.162197 310.54635 
L 359.162197 305.05385 
Q 359.162197 304.31885 359.092197 304.13635 
Q 359.022197 303.95135 358.829697 303.82385 
Q 358.639697 303.69385 358.389697 303.69385 
Q 357.989697 303.69385 357.419697 303.94385 
L 357.279697 303.66135 
L 361.177197 301.88135 
L 361.434697 301.88135 
z
M 367.059697 312.91385 
L 369.944697 304.17135 
L 367.747197 304.17135 
Q 366.459697 304.17135 365.809697 304.50635 
Q 365.357197 304.74135 365.059697 305.38885 
L 364.764697 305.38885 
L 365.529697 302.09885 
L 371.842197 302.09885 
L 368.287197 312.91385 
L 367.059697 312.91385 
z
M 374.224697 310.28635 
Q 374.772197 310.28635 375.149697 310.67135 
Q 375.529697 311.05385 375.529697 311.59135 
Q 375.529697 312.13135 375.147197 312.51135 
Q 374.764697 312.88885 374.224697 312.88885 
Q 373.684697 312.88885 373.304697 312.51135 
Q 372.927197 312.13135 372.927197 311.59135 
Q 372.927197 311.05385 373.304697 310.67135 
Q 373.684697 310.28635 374.224697 310.28635 
z
M 383.739697 301.88135 
L 383.739697 302.09885 
Q 382.327197 302.45885 381.469697 303.02635 
Q 380.614697 303.59135 380.117197 304.40135 
Q 379.622197 305.20885 379.349697 306.40385 
Q 379.694697 306.17135 379.919697 306.09885 
Q 380.427197 305.94385 380.944697 305.94385 
Q 382.132197 305.94385 382.924697 306.80885 
Q 383.717197 307.67135 383.717197 309.16135 
Q 383.717197 310.20885 383.287197 311.08385 
Q 382.857197 311.95885 382.067197 312.43635 
Q 381.279697 312.91385 380.382197 312.91385 
Q 379.404697 312.91385 378.574697 312.37885 
Q 377.747197 311.84135 377.282197 310.81135 
Q 376.819697 309.77885 376.819697 308.56885 
Q 376.819697 306.78635 377.674697 305.25135 
Q 378.529697 303.71635 380.102197 302.80635 
Q 381.677197 301.89635 383.739697 301.88135 
z
M 379.247197 307.03635 
Q 379.184697 308.11635 379.184697 308.61635 
Q 379.184697 309.69385 379.392197 310.70135 
Q 379.599697 311.70885 379.959697 312.11635 
Q 380.217197 312.40385 380.569697 312.40385 
Q 380.927197 312.40385 381.207197 311.98635 
Q 381.489697 311.56885 381.489697 310.28635 
Q 381.489697 308.13135 380.967197 307.31135 
Q 380.632197 306.77885 380.059697 306.77885 
Q 379.747197 306.77885 379.247197 307.03635 
z
" style="stroke: #ffffff; stroke-width: 3.8"/>
    <path d="M 361.434697 301.88135 
L 361.434697 310.54635 
Q 361.434697 311.52135 361.519697 311.79135 
Q 361.607197 312.06135 361.879697 312.23385 
Q 362.154697 312.40385 362.757197 312.40385 
L 362.997197 312.40385 
L 362.997197 312.69385 
L 357.419697 312.69385 
L 357.419697 312.40385 
L 357.702197 312.40385 
Q 358.382197 312.40385 358.669697 312.24885 
Q 358.959697 312.09135 359.059697 311.81885 
Q 359.162197 311.54635 359.162197 310.54635 
L 359.162197 305.05385 
Q 359.162197 304.31885 359.092197 304.13635 
Q 359.022197 303.95135 358.829697 303.82385 
Q 358.639697 303.69385 358.389697 303.69385 
Q 357.989697 303.69385 357.419697 303.94385 
L 357.279697 303.66135 
L 361.177197 301.88135 
L 361.434697 301.88135 
z
M 367.059697 312.91385 
L 369.944697 304.17135 
L 367.747197 304.17135 
Q 366.459697 304.17135 365.809697 304.50635 
Q 365.357197 304.74135 365.059697 305.38885 
L 364.764697 305.38885 
L 365.529697 302.09885 
L 371.842197 302.09885 
L 368.287197 312.91385 
L 367.059697 312.91385 
z
M 374.224697 310.28635 
Q 374.772197 310.28635 375.149697 310.67135 
Q 375.529697 311.05385 375.529697 311.59135 
Q 375.529697 312.13135 375.147197 312.51135 
Q 374.764697 312.88885 374.224697 312.88885 
Q 373.684697 312.88885 373.304697 312.51135 
Q 372.927197 312.13135 372.927197 311.59135 
Q 372.927197 311.05385 373.304697 310.67135 
Q 373.684697 310.28635 374.224697 310.28635 
z
M 383.739697 301.88135 
L 383.739697 302.09885 
Q 382.327197 302.45885 381.469697 303.02635 
Q 380.614697 303.59135 380.117197 304.40135 
Q 379.622197 305.20885 379.349697 306.40385 
Q 379.694697 306.17135 379.919697 306.09885 
Q 380.427197 305.94385 380.944697 305.94385 
Q 382.132197 305.94385 382.924697 306.80885 
Q 383.717197 307.67135 383.717197 309.16135 
Q 383.717197 310.20885 383.287197 311.08385 
Q 382.857197 311.95885 382.067197 312.43635 
Q 381.279697 312.91385 380.382197 312.91385 
Q 379.404697 312.91385 378.574697 312.37885 
Q 377.747197 311.84135 377.282197 310.81135 
Q 376.819697 309.77885 376.819697 308.56885 
Q 376.819697 306.78635 377.674697 305.25135 
Q 378.529697 303.71635 380.102197 302.80635 
Q 381.677197 301.89635 383.739697 301.88135 
z
M 379.247197 307.03635 
Q 379.184697 308.11635 379.184697 308.61635 
Q 379.184697 309.69385 379.392197 310.70135 
Q 379.599697 311.70885 379.959697 312.11635 
Q 380.217197 312.40385 380.569697 312.40385 
Q 380.927197 312.40385 381.207197 311.98635 
Q 381.489697 311.56885 381.489697 310.28635 
Q 381.489697 308.13135 380.967197 307.31135 
Q 380.632197 306.77885 380.059697 306.77885 
Q 379.747197 306.77885 379.247197 307.03635 
z
"/>
   </g>
   <g id="text_26">
    <path d="M 358.592197 220.407049 
L 358.592197 220.134549 
Q 359.482197 219.874549 359.824697 219.652049 
Q 360.169697 219.429549 360.419697 218.974549 
Q 360.669697 218.517049 360.669697 218.047049 
Q 360.669697 217.399549 360.197197 216.934549 
Q 359.724697 216.469549 359.022197 216.469549 
Q 357.927197 216.469549 357.162197 217.624549 
L 356.872197 217.524549 
Q 357.434697 216.219549 358.314697 215.564549 
Q 359.194697 214.907049 360.272197 214.907049 
Q 361.372197 214.907049 362.087197 215.579549 
Q 362.802197 216.249549 362.802197 217.149549 
Q 362.802197 217.734549 362.469697 218.279549 
Q 362.139697 218.822049 361.427197 219.234549 
Q 362.342197 219.679549 362.822197 220.332049 
Q 363.302197 220.984549 363.302197 221.969549 
Q 363.302197 223.624549 362.102197 224.787049 
Q 360.904697 225.947049 358.889697 225.947049 
Q 357.544697 225.947049 356.927197 225.499549 
Q 356.482197 225.187049 356.482197 224.697049 
Q 356.482197 224.337049 356.739697 224.084549 
Q 356.997197 223.829549 357.334697 223.829549 
Q 357.592197 223.829549 357.819697 223.937049 
Q 357.944697 223.999549 358.704697 224.622049 
Q 359.467197 225.242049 360.132197 225.242049 
Q 360.709697 225.242049 361.122197 224.787049 
Q 361.537197 224.329549 361.537197 223.624549 
Q 361.537197 222.554549 360.787197 221.652049 
Q 360.037197 220.749549 358.592197 220.407049 
z
M 370.849697 225.719549 
L 364.614697 225.719549 
L 364.614697 225.547049 
Q 367.482197 222.134549 368.094697 220.954549 
Q 368.709697 219.774549 368.709697 218.649549 
Q 368.709697 217.829549 368.202197 217.287049 
Q 367.694697 216.742049 366.959697 216.742049 
Q 365.757197 216.742049 365.092197 217.947049 
L 364.802197 217.844549 
Q 365.224697 216.344549 366.084697 215.627049 
Q 366.944697 214.907049 368.069697 214.907049 
Q 368.872197 214.907049 369.537197 215.282049 
Q 370.202197 215.657049 370.577197 216.309549 
Q 370.952197 216.962049 370.952197 217.532049 
Q 370.952197 218.572049 370.372197 219.642049 
Q 369.584697 221.087049 366.927197 223.672049 
L 369.217197 223.672049 
Q 370.059697 223.672049 370.314697 223.602049 
Q 370.569697 223.532049 370.732197 223.364549 
Q 370.897197 223.197049 371.162197 222.657049 
L 371.444697 222.657049 
L 370.849697 225.719549 
z
M 374.224697 223.312049 
Q 374.772197 223.312049 375.149697 223.697049 
Q 375.529697 224.079549 375.529697 224.617049 
Q 375.529697 225.157049 375.147197 225.537049 
Q 374.764697 225.914549 374.224697 225.914549 
Q 373.684697 225.914549 373.304697 225.537049 
Q 372.927197 225.157049 372.927197 224.617049 
Q 372.927197 224.079549 373.304697 223.697049 
Q 373.684697 223.312049 374.224697 223.312049 
z
M 382.849697 225.719549 
L 376.614697 225.719549 
L 376.614697 225.547049 
Q 379.482197 222.134549 380.094697 220.954549 
Q 380.709697 219.774549 380.709697 218.649549 
Q 380.709697 217.829549 380.202197 217.287049 
Q 379.694697 216.742049 378.959697 216.742049 
Q 377.757197 216.742049 377.092197 217.947049 
L 376.802197 217.844549 
Q 377.224697 216.344549 378.084697 215.627049 
Q 378.944697 214.907049 380.069697 214.907049 
Q 380.872197 214.907049 381.537197 215.282049 
Q 382.202197 215.657049 382.577197 216.309549 
Q 382.952197 216.962049 382.952197 217.532049 
Q 382.952197 218.572049 382.372197 219.642049 
Q 381.584697 221.087049 378.927197 223.672049 
L 381.217197 223.672049 
Q 382.059697 223.672049 382.314697 223.602049 
Q 382.569697 223.532049 382.732197 223.364549 
Q 382.897197 223.197049 383.162197 222.657049 
L 383.444697 222.657049 
L 382.849697 225.719549 
z
" style="stroke: #ffffff; stroke-width: 3.8"/>
    <path d="M 358.592197 220.407049 
L 358.592197 220.134549 
Q 359.482197 219.874549 359.824697 219.652049 
Q 360.169697 219.429549 360.419697 218.974549 
Q 360.669697 218.517049 360.669697 218.047049 
Q 360.669697 217.399549 360.197197 216.934549 
Q 359.724697 216.469549 359.022197 216.469549 
Q 357.927197 216.469549 357.162197 217.624549 
L 356.872197 217.524549 
Q 357.434697 216.219549 358.314697 215.564549 
Q 359.194697 214.907049 360.272197 214.907049 
Q 361.372197 214.907049 362.087197 215.579549 
Q 362.802197 216.249549 362.802197 217.149549 
Q 362.802197 217.734549 362.469697 218.279549 
Q 362.139697 218.822049 361.427197 219.234549 
Q 362.342197 219.679549 362.822197 220.332049 
Q 363.302197 220.984549 363.302197 221.969549 
Q 363.302197 223.624549 362.102197 224.787049 
Q 360.904697 225.947049 358.889697 225.947049 
Q 357.544697 225.947049 356.927197 225.499549 
Q 356.482197 225.187049 356.482197 224.697049 
Q 356.482197 224.337049 356.739697 224.084549 
Q 356.997197 223.829549 357.334697 223.829549 
Q 357.592197 223.829549 357.819697 223.937049 
Q 357.944697 223.999549 358.704697 224.622049 
Q 359.467197 225.242049 360.132197 225.242049 
Q 360.709697 225.242049 361.122197 224.787049 
Q 361.537197 224.329549 361.537197 223.624549 
Q 361.537197 222.554549 360.787197 221.652049 
Q 360.037197 220.749549 358.592197 220.407049 
z
M 370.849697 225.719549 
L 364.614697 225.719549 
L 364.614697 225.547049 
Q 367.482197 222.134549 368.094697 220.954549 
Q 368.709697 219.774549 368.709697 218.649549 
Q 368.709697 217.829549 368.202197 217.287049 
Q 367.694697 216.742049 366.959697 216.742049 
Q 365.757197 216.742049 365.092197 217.947049 
L 364.802197 217.844549 
Q 365.224697 216.344549 366.084697 215.627049 
Q 366.944697 214.907049 368.069697 214.907049 
Q 368.872197 214.907049 369.537197 215.282049 
Q 370.202197 215.657049 370.577197 216.309549 
Q 370.952197 216.962049 370.952197 217.532049 
Q 370.952197 218.572049 370.372197 219.642049 
Q 369.584697 221.087049 366.927197 223.672049 
L 369.217197 223.672049 
Q 370.059697 223.672049 370.314697 223.602049 
Q 370.569697 223.532049 370.732197 223.364549 
Q 370.897197 223.197049 371.162197 222.657049 
L 371.444697 222.657049 
L 370.849697 225.719549 
z
M 374.224697 223.312049 
Q 374.772197 223.312049 375.149697 223.697049 
Q 375.529697 224.079549 375.529697 224.617049 
Q 375.529697 225.157049 375.147197 225.537049 
Q 374.764697 225.914549 374.224697 225.914549 
Q 373.684697 225.914549 373.304697 225.537049 
Q 372.927197 225.157049 372.927197 224.617049 
Q 372.927197 224.079549 373.304697 223.697049 
Q 373.684697 223.312049 374.224697 223.312049 
z
M 382.849697 225.719549 
L 376.614697 225.719549 
L 376.614697 225.547049 
Q 379.482197 222.134549 380.094697 220.954549 
Q 380.709697 219.774549 380.709697 218.649549 
Q 380.709697 217.829549 380.202197 217.287049 
Q 379.694697 216.742049 378.959697 216.742049 
Q 377.757197 216.742049 377.092197 217.947049 
L 376.802197 217.844549 
Q 377.224697 216.344549 378.084697 215.627049 
Q 378.944697 214.907049 380.069697 214.907049 
Q 380.872197 214.907049 381.537197 215.282049 
Q 382.202197 215.657049 382.577197 216.309549 
Q 382.952197 216.962049 382.952197 217.532049 
Q 382.952197 218.572049 382.372197 219.642049 
Q 381.584697 221.087049 378.927197 223.672049 
L 381.217197 223.672049 
Q 382.059697 223.672049 382.314697 223.602049 
Q 382.569697 223.532049 382.732197 223.364549 
Q 382.897197 223.197049 383.162197 222.657049 
L 383.444697 222.657049 
L 382.849697 225.719549 
z
"/>
   </g>
   <g id="text_27">
    <path d="M 358.662197 128.539001 
L 363.622197 128.539001 
L 362.834697 130.556501 
L 358.662197 130.556501 
L 358.264697 131.611501 
Q 360.959697 131.711501 362.412197 132.954001 
Q 363.607197 133.976501 363.607197 135.501501 
Q 363.607197 136.476501 363.052197 137.411501 
Q 362.497197 138.344001 361.489697 138.849001 
Q 360.482197 139.354001 359.279697 139.354001 
Q 357.982197 139.354001 357.287197 138.869001 
Q 356.802197 138.524001 356.802197 138.086501 
Q 356.802197 137.751501 357.054697 137.494001 
Q 357.309697 137.236501 357.647197 137.236501 
Q 357.952197 137.236501 358.264697 137.361501 
Q 358.577197 137.486501 359.334697 138.016501 
Q 359.809697 138.344001 360.154697 138.469001 
Q 360.397197 138.564001 360.702197 138.564001 
Q 361.342197 138.564001 361.789697 138.096501 
Q 362.239697 137.626501 362.239697 136.969001 
Q 362.239697 135.594001 360.864697 134.736501 
Q 359.489697 133.876501 357.397197 133.876501 
Q 357.184697 133.876501 356.764697 133.884001 
L 358.662197 128.539001 
z
M 366.592197 133.821501 
L 366.592197 133.549001 
Q 367.482197 133.289001 367.824697 133.066501 
Q 368.169697 132.844001 368.419697 132.389001 
Q 368.669697 131.931501 368.669697 131.461501 
Q 368.669697 130.814001 368.197197 130.349001 
Q 367.724697 129.884001 367.022197 129.884001 
Q 365.927197 129.884001 365.162197 131.039001 
L 364.872197 130.939001 
Q 365.434697 129.634001 366.314697 128.979001 
Q 367.194697 128.321501 368.272197 128.321501 
Q 369.372197 128.321501 370.087197 128.994001 
Q 370.802197 129.664001 370.802197 130.564001 
Q 370.802197 131.149001 370.469697 131.694001 
Q 370.139697 132.236501 369.427197 132.649001 
Q 370.342197 133.094001 370.822197 133.746501 
Q 371.302197 134.399001 371.302197 135.384001 
Q 371.302197 137.039001 370.102197 138.201501 
Q 368.904697 139.361501 366.889697 139.361501 
Q 365.544697 139.361501 364.927197 138.914001 
Q 364.482197 138.601501 364.482197 138.111501 
Q 364.482197 137.751501 364.739697 137.499001 
Q 364.997197 137.244001 365.334697 137.244001 
Q 365.592197 137.244001 365.819697 137.351501 
Q 365.944697 137.414001 366.704697 138.036501 
Q 367.467197 138.656501 368.132197 138.656501 
Q 368.709697 138.656501 369.122197 138.201501 
Q 369.537197 137.744001 369.537197 137.039001 
Q 369.537197 135.969001 368.787197 135.066501 
Q 368.037197 134.164001 366.592197 133.821501 
z
M 374.224697 136.726501 
Q 374.772197 136.726501 375.149697 137.111501 
Q 375.529697 137.494001 375.529697 138.031501 
Q 375.529697 138.571501 375.147197 138.951501 
Q 374.764697 139.329001 374.224697 139.329001 
Q 373.684697 139.329001 373.304697 138.951501 
Q 372.927197 138.571501 372.927197 138.031501 
Q 372.927197 137.494001 373.304697 137.111501 
Q 373.684697 136.726501 374.224697 136.726501 
z
M 382.849697 139.134001 
L 376.614697 139.134001 
L 376.614697 138.961501 
Q 379.482197 135.549001 380.094697 134.369001 
Q 380.709697 133.189001 380.709697 132.064001 
Q 380.709697 131.244001 380.202197 130.701501 
Q 379.694697 130.156501 378.959697 130.156501 
Q 377.757197 130.156501 377.092197 131.361501 
L 376.802197 131.259001 
Q 377.224697 129.759001 378.084697 129.041501 
Q 378.944697 128.321501 380.069697 128.321501 
Q 380.872197 128.321501 381.537197 128.696501 
Q 382.202197 129.071501 382.577197 129.724001 
Q 382.952197 130.376501 382.952197 130.946501 
Q 382.952197 131.986501 382.372197 133.056501 
Q 381.584697 134.501501 378.927197 137.086501 
L 381.217197 137.086501 
Q 382.059697 137.086501 382.314697 137.016501 
Q 382.569697 136.946501 382.732197 136.779001 
Q 382.897197 136.611501 383.162197 136.071501 
L 383.444697 136.071501 
L 382.849697 139.134001 
z
" style="stroke: #ffffff; stroke-width: 3.8"/>
    <path d="M 358.662197 128.539001 
L 363.622197 128.539001 
L 362.834697 130.556501 
L 358.662197 130.556501 
L 358.264697 131.611501 
Q 360.959697 131.711501 362.412197 132.954001 
Q 363.607197 133.976501 363.607197 135.501501 
Q 363.607197 136.476501 363.052197 137.411501 
Q 362.497197 138.344001 361.489697 138.849001 
Q 360.482197 139.354001 359.279697 139.354001 
Q 357.982197 139.354001 357.287197 138.869001 
Q 356.802197 138.524001 356.802197 138.086501 
Q 356.802197 137.751501 357.054697 137.494001 
Q 357.309697 137.236501 357.647197 137.236501 
Q 357.952197 137.236501 358.264697 137.361501 
Q 358.577197 137.486501 359.334697 138.016501 
Q 359.809697 138.344001 360.154697 138.469001 
Q 360.397197 138.564001 360.702197 138.564001 
Q 361.342197 138.564001 361.789697 138.096501 
Q 362.239697 137.626501 362.239697 136.969001 
Q 362.239697 135.594001 360.864697 134.736501 
Q 359.489697 133.876501 357.397197 133.876501 
Q 357.184697 133.876501 356.764697 133.884001 
L 358.662197 128.539001 
z
M 366.592197 133.821501 
L 366.592197 133.549001 
Q 367.482197 133.289001 367.824697 133.066501 
Q 368.169697 132.844001 368.419697 132.389001 
Q 368.669697 131.931501 368.669697 131.461501 
Q 368.669697 130.814001 368.197197 130.349001 
Q 367.724697 129.884001 367.022197 129.884001 
Q 365.927197 129.884001 365.162197 131.039001 
L 364.872197 130.939001 
Q 365.434697 129.634001 366.314697 128.979001 
Q 367.194697 128.321501 368.272197 128.321501 
Q 369.372197 128.321501 370.087197 128.994001 
Q 370.802197 129.664001 370.802197 130.564001 
Q 370.802197 131.149001 370.469697 131.694001 
Q 370.139697 132.236501 369.427197 132.649001 
Q 370.342197 133.094001 370.822197 133.746501 
Q 371.302197 134.399001 371.302197 135.384001 
Q 371.302197 137.039001 370.102197 138.201501 
Q 368.904697 139.361501 366.889697 139.361501 
Q 365.544697 139.361501 364.927197 138.914001 
Q 364.482197 138.601501 364.482197 138.111501 
Q 364.482197 137.751501 364.739697 137.499001 
Q 364.997197 137.244001 365.334697 137.244001 
Q 365.592197 137.244001 365.819697 137.351501 
Q 365.944697 137.414001 366.704697 138.036501 
Q 367.467197 138.656501 368.132197 138.656501 
Q 368.709697 138.656501 369.122197 138.201501 
Q 369.537197 137.744001 369.537197 137.039001 
Q 369.537197 135.969001 368.787197 135.066501 
Q 368.037197 134.164001 366.592197 133.821501 
z
M 374.224697 136.726501 
Q 374.772197 136.726501 375.149697 137.111501 
Q 375.529697 137.494001 375.529697 138.031501 
Q 375.529697 138.571501 375.147197 138.951501 
Q 374.764697 139.329001 374.224697 139.329001 
Q 373.684697 139.329001 373.304697 138.951501 
Q 372.927197 138.571501 372.927197 138.031501 
Q 372.927197 137.494001 373.304697 137.111501 
Q 373.684697 136.726501 374.224697 136.726501 
z
M 382.849697 139.134001 
L 376.614697 139.134001 
L 376.614697 138.961501 
Q 379.482197 135.549001 380.094697 134.369001 
Q 380.709697 133.189001 380.709697 132.064001 
Q 380.709697 131.244001 380.202197 130.701501 
Q 379.694697 130.156501 378.959697 130.156501 
Q 377.757197 130.156501 377.092197 131.361501 
L 376.802197 131.259001 
Q 377.224697 129.759001 378.084697 129.041501 
Q 378.944697 128.321501 380.069697 128.321501 
Q 380.872197 128.321501 381.537197 128.696501 
Q 382.202197 129.071501 382.577197 129.724001 
Q 382.952197 130.376501 382.952197 130.946501 
Q 382.952197 131.986501 382.372197 133.056501 
Q 381.584697 134.501501 378.927197 137.086501 
L 381.217197 137.086501 
Q 382.059697 137.086501 382.314697 137.016501 
Q 382.569697 136.946501 382.732197 136.779001 
Q 382.897197 136.611501 383.162197 136.071501 
L 383.444697 136.071501 
L 382.849697 139.134001 
z
"/>
   </g>
   <g id="text_28">
    <path d="M 578.778672 297.77253 
L 572.543672 297.77253 
L 572.543672 297.60003 
Q 575.411172 294.18753 576.023672 293.00753 
Q 576.638672 291.82753 576.638672 290.70253 
Q 576.638672 289.88253 576.131172 289.34003 
Q 575.623672 288.79503 574.888672 288.79503 
Q 573.686172 288.79503 573.021172 290.00003 
L 572.731172 289.89753 
Q 573.153672 288.39753 574.013672 287.68003 
Q 574.873672 286.96003 575.998672 286.96003 
Q 576.801172 286.96003 577.466172 287.33503 
Q 578.131172 287.71003 578.506172 288.36253 
Q 578.881172 289.01503 578.881172 289.58503 
Q 578.881172 290.62503 578.301172 291.69503 
Q 577.513672 293.14003 574.856172 295.72503 
L 577.146172 295.72503 
Q 577.988672 295.72503 578.243672 295.65503 
Q 578.498672 295.58503 578.661172 295.41753 
Q 578.826172 295.25003 579.091172 294.71003 
L 579.373672 294.71003 
L 578.778672 297.77253 
z
M 585.606172 291.78753 
Q 586.723672 292.60753 587.156172 293.31503 
Q 587.591172 294.02253 587.591172 294.93753 
Q 587.591172 296.21753 586.626172 297.10503 
Q 585.661172 297.99253 584.006172 297.99253 
Q 582.436172 297.99253 581.576172 297.22003 
Q 580.716172 296.44503 580.716172 295.32753 
Q 580.716172 294.47503 581.211172 293.83503 
Q 581.708672 293.19503 582.863672 292.66253 
Q 581.606172 291.70253 581.251172 291.09253 
Q 580.896172 290.48253 580.896172 289.67753 
Q 580.896172 288.61503 581.798672 287.80753 
Q 582.701172 287.00003 584.271172 287.00003 
Q 585.786172 287.00003 586.601172 287.71503 
Q 587.418672 288.42753 587.418672 289.42753 
Q 587.418672 290.17753 586.976172 290.75253 
Q 586.536172 291.32753 585.606172 291.78753 
z
M 585.013672 291.39003 
Q 585.301172 291.00003 585.441172 290.51503 
Q 585.583672 290.03003 585.583672 289.45253 
Q 585.583672 288.43753 585.146172 287.89753 
Q 584.818672 287.48253 584.238672 287.48253 
Q 583.716172 287.48253 583.348672 287.86253 
Q 582.981172 288.24003 582.981172 288.80253 
Q 582.981172 289.37503 583.391172 289.98753 
Q 583.801172 290.60003 585.013672 291.39003 
z
M 583.451172 293.03753 
Q 583.208672 293.25753 583.106172 293.43753 
Q 582.951172 293.71003 582.826172 294.23503 
Q 582.701172 294.75753 582.701172 295.32753 
Q 582.701172 296.06253 582.888672 296.55753 
Q 583.076172 297.05253 583.423672 297.27253 
Q 583.771172 297.49003 584.138672 297.49003 
Q 584.708672 297.49003 585.098672 297.07253 
Q 585.488672 296.65503 585.488672 295.92753 
Q 585.488672 294.41253 583.451172 293.03753 
z
M 590.153672 295.36503 
Q 590.701172 295.36503 591.078672 295.75003 
Q 591.458672 296.13253 591.458672 296.67003 
Q 591.458672 297.21003 591.076172 297.59003 
Q 590.693672 297.96753 590.153672 297.96753 
Q 589.613672 297.96753 589.233672 297.59003 
Q 588.856172 297.21003 588.856172 296.67003 
Q 588.856172 296.13253 589.233672 295.75003 
Q 589.613672 295.36503 590.153672 295.36503 
z
M 592.646172 297.99253 
L 592.646172 297.77253 
Q 593.943672 297.47503 594.846172 296.89753 
Q 595.748672 296.32003 596.273672 295.46753 
Q 596.801172 294.61503 597.013672 293.50753 
Q 596.528672 293.75753 596.188672 293.85503 
Q 595.848672 293.95253 595.473672 293.95253 
Q 594.271172 293.95253 593.468672 293.08503 
Q 592.668672 292.21753 592.668672 290.71003 
Q 592.668672 289.66253 593.101172 288.79253 
Q 593.536172 287.92003 594.341172 287.44003 
Q 595.146172 286.96003 596.013672 286.96003 
Q 596.943672 286.96003 597.771172 287.49253 
Q 598.598672 288.02253 599.091172 289.03003 
Q 599.583672 290.03753 599.583672 291.32753 
Q 599.583672 293.00003 598.781172 294.53253 
Q 597.981172 296.06253 596.396172 296.98753 
Q 594.811172 297.91253 592.646172 297.99253 
z
M 597.131172 292.85003 
Q 597.208672 291.97503 597.208672 291.31253 
Q 597.208672 289.89003 596.881172 288.66253 
Q 596.693672 287.98253 596.326172 287.66253 
Q 596.131172 287.49003 595.818672 287.49003 
Q 595.426172 287.49003 595.208672 287.82753 
Q 594.903672 288.28753 594.903672 289.58503 
Q 594.903672 291.75003 595.418672 292.57003 
Q 595.756172 293.10003 596.326172 293.10003 
Q 596.631172 293.10003 597.131172 292.85003 
z
" style="stroke: #ffffff; stroke-width: 3.8"/>
    <path d="M 578.778672 297.77253 
L 572.543672 297.77253 
L 572.543672 297.60003 
Q 575.411172 294.18753 576.023672 293.00753 
Q 576.638672 291.82753 576.638672 290.70253 
Q 576.638672 289.88253 576.131172 289.34003 
Q 575.623672 288.79503 574.888672 288.79503 
Q 573.686172 288.79503 573.021172 290.00003 
L 572.731172 289.89753 
Q 573.153672 288.39753 574.013672 287.68003 
Q 574.873672 286.96003 575.998672 286.96003 
Q 576.801172 286.96003 577.466172 287.33503 
Q 578.131172 287.71003 578.506172 288.36253 
Q 578.881172 289.01503 578.881172 289.58503 
Q 578.881172 290.62503 578.301172 291.69503 
Q 577.513672 293.14003 574.856172 295.72503 
L 577.146172 295.72503 
Q 577.988672 295.72503 578.243672 295.65503 
Q 578.498672 295.58503 578.661172 295.41753 
Q 578.826172 295.25003 579.091172 294.71003 
L 579.373672 294.71003 
L 578.778672 297.77253 
z
M 585.606172 291.78753 
Q 586.723672 292.60753 587.156172 293.31503 
Q 587.591172 294.02253 587.591172 294.93753 
Q 587.591172 296.21753 586.626172 297.10503 
Q 585.661172 297.99253 584.006172 297.99253 
Q 582.436172 297.99253 581.576172 297.22003 
Q 580.716172 296.44503 580.716172 295.32753 
Q 580.716172 294.47503 581.211172 293.83503 
Q 581.708672 293.19503 582.863672 292.66253 
Q 581.606172 291.70253 581.251172 291.09253 
Q 580.896172 290.48253 580.896172 289.67753 
Q 580.896172 288.61503 581.798672 287.80753 
Q 582.701172 287.00003 584.271172 287.00003 
Q 585.786172 287.00003 586.601172 287.71503 
Q 587.418672 288.42753 587.418672 289.42753 
Q 587.418672 290.17753 586.976172 290.75253 
Q 586.536172 291.32753 585.606172 291.78753 
z
M 585.013672 291.39003 
Q 585.301172 291.00003 585.441172 290.51503 
Q 585.583672 290.03003 585.583672 289.45253 
Q 585.583672 288.43753 585.146172 287.89753 
Q 584.818672 287.48253 584.238672 287.48253 
Q 583.716172 287.48253 583.348672 287.86253 
Q 582.981172 288.24003 582.981172 288.80253 
Q 582.981172 289.37503 583.391172 289.98753 
Q 583.801172 290.60003 585.013672 291.39003 
z
M 583.451172 293.03753 
Q 583.208672 293.25753 583.106172 293.43753 
Q 582.951172 293.71003 582.826172 294.23503 
Q 582.701172 294.75753 582.701172 295.32753 
Q 582.701172 296.06253 582.888672 296.55753 
Q 583.076172 297.05253 583.423672 297.27253 
Q 583.771172 297.49003 584.138672 297.49003 
Q 584.708672 297.49003 585.098672 297.07253 
Q 585.488672 296.65503 585.488672 295.92753 
Q 585.488672 294.41253 583.451172 293.03753 
z
M 590.153672 295.36503 
Q 590.701172 295.36503 591.078672 295.75003 
Q 591.458672 296.13253 591.458672 296.67003 
Q 591.458672 297.21003 591.076172 297.59003 
Q 590.693672 297.96753 590.153672 297.96753 
Q 589.613672 297.96753 589.233672 297.59003 
Q 588.856172 297.21003 588.856172 296.67003 
Q 588.856172 296.13253 589.233672 295.75003 
Q 589.613672 295.36503 590.153672 295.36503 
z
M 592.646172 297.99253 
L 592.646172 297.77253 
Q 593.943672 297.47503 594.846172 296.89753 
Q 595.748672 296.32003 596.273672 295.46753 
Q 596.801172 294.61503 597.013672 293.50753 
Q 596.528672 293.75753 596.188672 293.85503 
Q 595.848672 293.95253 595.473672 293.95253 
Q 594.271172 293.95253 593.468672 293.08503 
Q 592.668672 292.21753 592.668672 290.71003 
Q 592.668672 289.66253 593.101172 288.79253 
Q 593.536172 287.92003 594.341172 287.44003 
Q 595.146172 286.96003 596.013672 286.96003 
Q 596.943672 286.96003 597.771172 287.49253 
Q 598.598672 288.02253 599.091172 289.03003 
Q 599.583672 290.03753 599.583672 291.32753 
Q 599.583672 293.00003 598.781172 294.53253 
Q 597.981172 296.06253 596.396172 296.98753 
Q 594.811172 297.91253 592.646172 297.99253 
z
M 597.131172 292.85003 
Q 597.208672 291.97503 597.208672 291.31253 
Q 597.208672 289.89003 596.881172 288.66253 
Q 596.693672 287.98253 596.326172 287.66253 
Q 596.131172 287.49003 595.818672 287.49003 
Q 595.426172 287.49003 595.208672 287.82753 
Q 594.903672 288.28753 594.903672 289.58503 
Q 594.903672 291.75003 595.418672 292.57003 
Q 595.756172 293.10003 596.326172 293.10003 
Q 596.631172 293.10003 597.131172 292.85003 
z
"/>
   </g>
   <g id="text_29">
    <path d="M 572.639318 410.952424 
Q 572.639318 412.440705 572.22213 413.729767 
Q 571.971349 414.519611 571.549474 415.025861 
Q 571.129943 415.529767 570.595568 415.827424 
Q 570.061193 416.12508 569.430724 416.12508 
Q 568.713537 416.12508 568.13463 415.759455 
Q 567.555724 415.391486 567.108068 414.709455 
Q 566.786974 414.21258 566.545568 413.385236 
Q 566.229162 412.264924 566.229162 411.069611 
Q 566.229162 409.452424 566.683849 408.095392 
Q 567.056505 406.97508 567.818224 406.379767 
Q 568.579943 405.782111 569.430724 405.782111 
Q 570.295568 405.782111 571.045568 406.372736 
Q 571.795568 406.961017 572.14713 407.957111 
Q 572.639318 409.325861 572.639318 410.952424 
z
M 570.382287 410.938361 
Q 570.382287 408.329767 570.354162 407.898517 
Q 570.279162 406.88133 570.002599 406.522736 
Q 569.819787 406.288361 569.40963 406.288361 
Q 569.093224 406.288361 568.910412 406.464142 
Q 568.638537 406.719611 568.542443 407.36883 
Q 568.448693 408.015705 568.448693 411.889924 
Q 568.448693 413.999299 568.596349 414.716486 
Q 568.706505 415.236799 568.910412 415.41258 
Q 569.116662 415.588361 569.451818 415.588361 
Q 569.819787 415.588361 570.002599 415.353986 
Q 570.30963 414.94383 570.354162 414.088361 
L 570.382287 410.938361 
z
M 575.062755 413.661799 
Q 575.576037 413.661799 575.929943 414.022736 
Q 576.286193 414.38133 576.286193 414.885236 
Q 576.286193 415.391486 575.927599 415.747736 
Q 575.569005 416.101642 575.062755 416.101642 
Q 574.556505 416.101642 574.200255 415.747736 
Q 573.846349 415.391486 573.846349 414.885236 
Q 573.846349 414.38133 574.200255 414.022736 
Q 574.556505 413.661799 575.062755 413.661799 
z
M 583.889318 410.952424 
Q 583.889318 412.440705 583.47213 413.729767 
Q 583.221349 414.519611 582.799474 415.025861 
Q 582.379943 415.529767 581.845568 415.827424 
Q 581.311193 416.12508 580.680724 416.12508 
Q 579.963537 416.12508 579.38463 415.759455 
Q 578.805724 415.391486 578.358068 414.709455 
Q 578.036974 414.21258 577.795568 413.385236 
Q 577.479162 412.264924 577.479162 411.069611 
Q 577.479162 409.452424 577.933849 408.095392 
Q 578.306505 406.97508 579.068224 406.379767 
Q 579.829943 405.782111 580.680724 405.782111 
Q 581.545568 405.782111 582.295568 406.372736 
Q 583.045568 406.961017 583.39713 407.957111 
Q 583.889318 409.325861 583.889318 410.952424 
z
M 581.632287 410.938361 
Q 581.632287 408.329767 581.604162 407.898517 
Q 581.529162 406.88133 581.252599 406.522736 
Q 581.069787 406.288361 580.65963 406.288361 
Q 580.343224 406.288361 580.160412 406.464142 
Q 579.888537 406.719611 579.792443 407.36883 
Q 579.698693 408.015705 579.698693 411.889924 
Q 579.698693 413.999299 579.846349 414.716486 
Q 579.956505 415.236799 580.160412 415.41258 
Q 580.366662 415.588361 580.701818 415.588361 
Q 581.069787 415.588361 581.252599 415.353986 
Q 581.55963 414.94383 581.604162 414.088361 
L 581.632287 410.938361 
z
" style="fill: #404040; stroke: #ffffff; stroke-width: 3.8"/>
    <path d="M 572.639318 410.952424 
Q 572.639318 412.440705 572.22213 413.729767 
Q 571.971349 414.519611 571.549474 415.025861 
Q 571.129943 415.529767 570.595568 415.827424 
Q 570.061193 416.12508 569.430724 416.12508 
Q 568.713537 416.12508 568.13463 415.759455 
Q 567.555724 415.391486 567.108068 414.709455 
Q 566.786974 414.21258 566.545568 413.385236 
Q 566.229162 412.264924 566.229162 411.069611 
Q 566.229162 409.452424 566.683849 408.095392 
Q 567.056505 406.97508 567.818224 406.379767 
Q 568.579943 405.782111 569.430724 405.782111 
Q 570.295568 405.782111 571.045568 406.372736 
Q 571.795568 406.961017 572.14713 407.957111 
Q 572.639318 409.325861 572.639318 410.952424 
z
M 570.382287 410.938361 
Q 570.382287 408.329767 570.354162 407.898517 
Q 570.279162 406.88133 570.002599 406.522736 
Q 569.819787 406.288361 569.40963 406.288361 
Q 569.093224 406.288361 568.910412 406.464142 
Q 568.638537 406.719611 568.542443 407.36883 
Q 568.448693 408.015705 568.448693 411.889924 
Q 568.448693 413.999299 568.596349 414.716486 
Q 568.706505 415.236799 568.910412 415.41258 
Q 569.116662 415.588361 569.451818 415.588361 
Q 569.819787 415.588361 570.002599 415.353986 
Q 570.30963 414.94383 570.354162 414.088361 
L 570.382287 410.938361 
z
M 575.062755 413.661799 
Q 575.576037 413.661799 575.929943 414.022736 
Q 576.286193 414.38133 576.286193 414.885236 
Q 576.286193 415.391486 575.927599 415.747736 
Q 575.569005 416.101642 575.062755 416.101642 
Q 574.556505 416.101642 574.200255 415.747736 
Q 573.846349 415.391486 573.846349 414.885236 
Q 573.846349 414.38133 574.200255 414.022736 
Q 574.556505 413.661799 575.062755 413.661799 
z
M 583.889318 410.952424 
Q 583.889318 412.440705 583.47213 413.729767 
Q 583.221349 414.519611 582.799474 415.025861 
Q 582.379943 415.529767 581.845568 415.827424 
Q 581.311193 416.12508 580.680724 416.12508 
Q 579.963537 416.12508 579.38463 415.759455 
Q 578.805724 415.391486 578.358068 414.709455 
Q 578.036974 414.21258 577.795568 413.385236 
Q 577.479162 412.264924 577.479162 411.069611 
Q 577.479162 409.452424 577.933849 408.095392 
Q 578.306505 406.97508 579.068224 406.379767 
Q 579.829943 405.782111 580.680724 405.782111 
Q 581.545568 405.782111 582.295568 406.372736 
Q 583.045568 406.961017 583.39713 407.957111 
Q 583.889318 409.325861 583.889318 410.952424 
z
M 581.632287 410.938361 
Q 581.632287 408.329767 581.604162 407.898517 
Q 581.529162 406.88133 581.252599 406.522736 
Q 581.069787 406.288361 580.65963 406.288361 
Q 580.343224 406.288361 580.160412 406.464142 
Q 579.888537 406.719611 579.792443 407.36883 
Q 579.698693 408.015705 579.698693 411.889924 
Q 579.698693 413.999299 579.846349 414.716486 
Q 579.956505 415.236799 580.160412 415.41258 
Q 580.366662 415.588361 580.701818 415.588361 
Q 581.069787 415.588361 581.252599 415.353986 
Q 581.55963 414.94383 581.604162 414.088361 
L 581.632287 410.938361 
z
" style="fill: #404040"/>
   </g>
   <g id="text_30">
    <path d="M 568.961768 379.723009 
L 563.116455 379.723009 
L 563.116455 379.56129 
Q 565.804736 376.362071 566.378955 375.255821 
Q 566.955518 374.149571 566.955518 373.094884 
Q 566.955518 372.326134 566.479736 371.81754 
Q 566.003955 371.306602 565.314893 371.306602 
Q 564.187549 371.306602 563.564111 372.43629 
L 563.292236 372.340196 
Q 563.68833 370.933946 564.49458 370.26129 
Q 565.30083 369.58629 566.355518 369.58629 
Q 567.107861 369.58629 567.731299 369.937852 
Q 568.354736 370.289415 568.706299 370.901134 
Q 569.057861 371.512852 569.057861 372.047227 
Q 569.057861 373.022227 568.514111 374.025352 
Q 567.77583 375.38004 565.284424 377.803477 
L 567.431299 377.803477 
Q 568.221143 377.803477 568.460205 377.737852 
Q 568.699268 377.672227 568.851611 377.515196 
Q 569.006299 377.358165 569.254736 376.851915 
L 569.51958 376.851915 
L 568.961768 379.723009 
z
M 572.908643 379.929259 
L 575.61333 371.733165 
L 573.553174 371.733165 
Q 572.346143 371.733165 571.736768 372.047227 
Q 571.312549 372.26754 571.033643 372.874571 
L 570.75708 372.874571 
L 571.474268 369.790196 
L 577.392236 369.790196 
L 574.059424 379.929259 
L 572.908643 379.929259 
z
M 579.62583 377.465977 
Q 580.139111 377.465977 580.493018 377.826915 
Q 580.849268 378.185509 580.849268 378.689415 
Q 580.849268 379.195665 580.490674 379.551915 
Q 580.13208 379.905821 579.62583 379.905821 
Q 579.11958 379.905821 578.76333 379.551915 
Q 578.409424 379.195665 578.409424 378.689415 
Q 578.409424 378.185509 578.76333 377.826915 
Q 579.11958 377.465977 579.62583 377.465977 
z
M 588.546143 369.58629 
L 588.546143 369.790196 
Q 587.221924 370.127696 586.418018 370.659727 
Q 585.616455 371.189415 585.150049 371.94879 
Q 584.685986 372.705821 584.430518 373.826134 
Q 584.753955 373.608165 584.964893 373.540196 
Q 585.440674 373.394884 585.92583 373.394884 
Q 587.039111 373.394884 587.78208 374.205821 
Q 588.525049 375.014415 588.525049 376.41129 
Q 588.525049 377.393321 588.121924 378.213634 
Q 587.718799 379.033946 586.978174 379.481602 
Q 586.239893 379.929259 585.398486 379.929259 
Q 584.48208 379.929259 583.703955 379.427696 
Q 582.928174 378.92379 582.492236 377.958165 
Q 582.058643 376.990196 582.058643 375.855821 
Q 582.058643 374.184727 582.860205 372.745665 
Q 583.661768 371.306602 585.135986 370.453477 
Q 586.612549 369.600352 588.546143 369.58629 
z
M 584.334424 374.419102 
Q 584.27583 375.431602 584.27583 375.900352 
Q 584.27583 376.910509 584.470361 377.85504 
Q 584.664893 378.799571 585.002393 379.181602 
Q 585.243799 379.451134 585.574268 379.451134 
Q 585.909424 379.451134 586.171924 379.059727 
Q 586.436768 378.668321 586.436768 377.465977 
Q 586.436768 375.445665 585.946924 374.676915 
Q 585.632861 374.177696 585.096143 374.177696 
Q 584.803174 374.177696 584.334424 374.419102 
z
" style="fill: #404040; stroke: #ffffff; stroke-width: 3.8"/>
    <path d="M 568.961768 379.723009 
L 563.116455 379.723009 
L 563.116455 379.56129 
Q 565.804736 376.362071 566.378955 375.255821 
Q 566.955518 374.149571 566.955518 373.094884 
Q 566.955518 372.326134 566.479736 371.81754 
Q 566.003955 371.306602 565.314893 371.306602 
Q 564.187549 371.306602 563.564111 372.43629 
L 563.292236 372.340196 
Q 563.68833 370.933946 564.49458 370.26129 
Q 565.30083 369.58629 566.355518 369.58629 
Q 567.107861 369.58629 567.731299 369.937852 
Q 568.354736 370.289415 568.706299 370.901134 
Q 569.057861 371.512852 569.057861 372.047227 
Q 569.057861 373.022227 568.514111 374.025352 
Q 567.77583 375.38004 565.284424 377.803477 
L 567.431299 377.803477 
Q 568.221143 377.803477 568.460205 377.737852 
Q 568.699268 377.672227 568.851611 377.515196 
Q 569.006299 377.358165 569.254736 376.851915 
L 569.51958 376.851915 
L 568.961768 379.723009 
z
M 572.908643 379.929259 
L 575.61333 371.733165 
L 573.553174 371.733165 
Q 572.346143 371.733165 571.736768 372.047227 
Q 571.312549 372.26754 571.033643 372.874571 
L 570.75708 372.874571 
L 571.474268 369.790196 
L 577.392236 369.790196 
L 574.059424 379.929259 
L 572.908643 379.929259 
z
M 579.62583 377.465977 
Q 580.139111 377.465977 580.493018 377.826915 
Q 580.849268 378.185509 580.849268 378.689415 
Q 580.849268 379.195665 580.490674 379.551915 
Q 580.13208 379.905821 579.62583 379.905821 
Q 579.11958 379.905821 578.76333 379.551915 
Q 578.409424 379.195665 578.409424 378.689415 
Q 578.409424 378.185509 578.76333 377.826915 
Q 579.11958 377.465977 579.62583 377.465977 
z
M 588.546143 369.58629 
L 588.546143 369.790196 
Q 587.221924 370.127696 586.418018 370.659727 
Q 585.616455 371.189415 585.150049 371.94879 
Q 584.685986 372.705821 584.430518 373.826134 
Q 584.753955 373.608165 584.964893 373.540196 
Q 585.440674 373.394884 585.92583 373.394884 
Q 587.039111 373.394884 587.78208 374.205821 
Q 588.525049 375.014415 588.525049 376.41129 
Q 588.525049 377.393321 588.121924 378.213634 
Q 587.718799 379.033946 586.978174 379.481602 
Q 586.239893 379.929259 585.398486 379.929259 
Q 584.48208 379.929259 583.703955 379.427696 
Q 582.928174 378.92379 582.492236 377.958165 
Q 582.058643 376.990196 582.058643 375.855821 
Q 582.058643 374.184727 582.860205 372.745665 
Q 583.661768 371.306602 585.135986 370.453477 
Q 586.612549 369.600352 588.546143 369.58629 
z
M 584.334424 374.419102 
Q 584.27583 375.431602 584.27583 375.900352 
Q 584.27583 376.910509 584.470361 377.85504 
Q 584.664893 378.799571 585.002393 379.181602 
Q 585.243799 379.451134 585.574268 379.451134 
Q 585.909424 379.451134 586.171924 379.059727 
Q 586.436768 378.668321 586.436768 377.465977 
Q 586.436768 375.445665 585.946924 374.676915 
Q 585.632861 374.177696 585.096143 374.177696 
Q 584.803174 374.177696 584.334424 374.419102 
z
" style="fill: #404040"/>
   </g>
   <g id="text_31">
    <path d="M 536.315006 343.993876 
L 530.469693 343.993876 
L 530.469693 343.832157 
Q 533.157975 340.632938 533.732193 339.526688 
Q 534.308756 338.420438 534.308756 337.365751 
Q 534.308756 336.597001 533.832975 336.088407 
Q 533.357193 335.57747 532.668131 335.57747 
Q 531.540787 335.57747 530.91735 336.707157 
L 530.645475 336.611063 
Q 531.041568 335.204813 531.847818 334.532157 
Q 532.654068 333.857157 533.708756 333.857157 
Q 534.4611 333.857157 535.084537 334.20872 
Q 535.707975 334.560282 536.059537 335.172001 
Q 536.4111 335.78372 536.4111 336.318095 
Q 536.4111 337.293095 535.86735 338.29622 
Q 535.129068 339.650907 532.637662 342.074345 
L 534.784537 342.074345 
Q 535.574381 342.074345 535.813443 342.00872 
Q 536.052506 341.943095 536.20485 341.786063 
Q 536.359537 341.629032 536.607975 341.122782 
L 536.872818 341.122782 
L 536.315006 343.993876 
z
M 539.479068 341.736845 
Q 539.99235 341.736845 540.346256 342.097782 
Q 540.702506 342.456376 540.702506 342.960282 
Q 540.702506 343.466532 540.343912 343.822782 
Q 539.985318 344.176688 539.479068 344.176688 
Q 538.972818 344.176688 538.616568 343.822782 
Q 538.262662 343.466532 538.262662 342.960282 
Q 538.262662 342.456376 538.616568 342.097782 
Q 538.972818 341.736845 539.479068 341.736845 
z
M 543.639225 334.061063 
L 548.289225 334.061063 
L 547.550943 335.95247 
L 543.639225 335.95247 
L 543.266568 336.941532 
Q 545.793131 337.035282 547.15485 338.200126 
Q 548.275162 339.15872 548.275162 340.588407 
Q 548.275162 341.50247 547.75485 342.379032 
Q 547.234537 343.253251 546.290006 343.726688 
Q 545.345475 344.200126 544.218131 344.200126 
Q 543.001725 344.200126 542.350162 343.745438 
Q 541.895475 343.422001 541.895475 343.011845 
Q 541.895475 342.697782 542.132193 342.456376 
Q 542.371256 342.21497 542.687662 342.21497 
Q 542.9736 342.21497 543.266568 342.332157 
Q 543.559537 342.449345 544.269693 342.94622 
Q 544.715006 343.253251 545.038443 343.370438 
Q 545.265787 343.459501 545.551725 343.459501 
Q 546.151725 343.459501 546.571256 343.02122 
Q 546.993131 342.580595 546.993131 341.964188 
Q 546.993131 340.675126 545.704068 339.87122 
Q 544.415006 339.06497 542.453287 339.06497 
Q 542.254068 339.06497 541.860318 339.072001 
L 543.639225 334.061063 
z
" style="fill: #404040; stroke: #ffffff; stroke-width: 3.8"/>
    <path d="M 536.315006 343.993876 
L 530.469693 343.993876 
L 530.469693 343.832157 
Q 533.157975 340.632938 533.732193 339.526688 
Q 534.308756 338.420438 534.308756 337.365751 
Q 534.308756 336.597001 533.832975 336.088407 
Q 533.357193 335.57747 532.668131 335.57747 
Q 531.540787 335.57747 530.91735 336.707157 
L 530.645475 336.611063 
Q 531.041568 335.204813 531.847818 334.532157 
Q 532.654068 333.857157 533.708756 333.857157 
Q 534.4611 333.857157 535.084537 334.20872 
Q 535.707975 334.560282 536.059537 335.172001 
Q 536.4111 335.78372 536.4111 336.318095 
Q 536.4111 337.293095 535.86735 338.29622 
Q 535.129068 339.650907 532.637662 342.074345 
L 534.784537 342.074345 
Q 535.574381 342.074345 535.813443 342.00872 
Q 536.052506 341.943095 536.20485 341.786063 
Q 536.359537 341.629032 536.607975 341.122782 
L 536.872818 341.122782 
L 536.315006 343.993876 
z
M 539.479068 341.736845 
Q 539.99235 341.736845 540.346256 342.097782 
Q 540.702506 342.456376 540.702506 342.960282 
Q 540.702506 343.466532 540.343912 343.822782 
Q 539.985318 344.176688 539.479068 344.176688 
Q 538.972818 344.176688 538.616568 343.822782 
Q 538.262662 343.466532 538.262662 342.960282 
Q 538.262662 342.456376 538.616568 342.097782 
Q 538.972818 341.736845 539.479068 341.736845 
z
M 543.639225 334.061063 
L 548.289225 334.061063 
L 547.550943 335.95247 
L 543.639225 335.95247 
L 543.266568 336.941532 
Q 545.793131 337.035282 547.15485 338.200126 
Q 548.275162 339.15872 548.275162 340.588407 
Q 548.275162 341.50247 547.75485 342.379032 
Q 547.234537 343.253251 546.290006 343.726688 
Q 545.345475 344.200126 544.218131 344.200126 
Q 543.001725 344.200126 542.350162 343.745438 
Q 541.895475 343.422001 541.895475 343.011845 
Q 541.895475 342.697782 542.132193 342.456376 
Q 542.371256 342.21497 542.687662 342.21497 
Q 542.9736 342.21497 543.266568 342.332157 
Q 543.559537 342.449345 544.269693 342.94622 
Q 544.715006 343.253251 545.038443 343.370438 
Q 545.265787 343.459501 545.551725 343.459501 
Q 546.151725 343.459501 546.571256 343.02122 
Q 546.993131 342.580595 546.993131 341.964188 
Q 546.993131 340.675126 545.704068 339.87122 
Q 544.415006 339.06497 542.453287 339.06497 
Q 542.254068 339.06497 541.860318 339.072001 
L 543.639225 334.061063 
z
" style="fill: #404040"/>
   </g>
   <g id="text_32">
    <path d="M 321.790961 382.970899 
L 321.790961 382.71543 
Q 322.625336 382.47168 322.946429 382.263087 
Q 323.269867 382.054493 323.504242 381.62793 
Q 323.738617 381.199024 323.738617 380.758399 
Q 323.738617 380.151368 323.295648 379.71543 
Q 322.852679 379.279493 322.194086 379.279493 
Q 321.167523 379.279493 320.450336 380.362305 
L 320.178461 380.268555 
Q 320.705804 379.045118 321.530804 378.431055 
Q 322.355804 377.814649 323.365961 377.814649 
Q 324.397211 377.814649 325.067523 378.445118 
Q 325.737836 379.073243 325.737836 379.916993 
Q 325.737836 380.46543 325.426117 380.976368 
Q 325.116742 381.484962 324.448773 381.87168 
Q 325.306586 382.288868 325.756586 382.900587 
Q 326.206586 383.512305 326.206586 384.435743 
Q 326.206586 385.987305 325.081586 387.077149 
Q 323.958929 388.164649 322.069867 388.164649 
Q 320.808929 388.164649 320.230023 387.745118 
Q 319.812836 387.452149 319.812836 386.992774 
Q 319.812836 386.655274 320.054242 386.418555 
Q 320.295648 386.179493 320.612054 386.179493 
Q 320.853461 386.179493 321.066742 386.280274 
Q 321.183929 386.338868 321.896429 386.922462 
Q 322.611273 387.503712 323.234711 387.503712 
Q 323.776117 387.503712 324.162836 387.077149 
Q 324.551898 386.648243 324.551898 385.987305 
Q 324.551898 384.98418 323.848773 384.138087 
Q 323.145648 383.291993 321.790961 382.970899 
z
M 329.729242 388.157618 
L 332.433929 379.961524 
L 330.373773 379.961524 
Q 329.166742 379.961524 328.557367 380.275587 
Q 328.133148 380.495899 327.854242 381.10293 
L 327.577679 381.10293 
L 328.294867 378.018555 
L 334.212836 378.018555 
L 330.880023 388.157618 
L 329.729242 388.157618 
z
M 336.446429 385.694337 
Q 336.959711 385.694337 337.313617 386.055274 
Q 337.669867 386.413868 337.669867 386.917774 
Q 337.669867 387.424024 337.311273 387.780274 
Q 336.952679 388.13418 336.446429 388.13418 
Q 335.940179 388.13418 335.583929 387.780274 
Q 335.230023 387.424024 335.230023 386.917774 
Q 335.230023 386.413868 335.583929 386.055274 
Q 335.940179 385.694337 336.446429 385.694337 
z
M 343.433148 382.34043 
Q 344.480804 383.10918 344.886273 383.772462 
Q 345.294086 384.435743 345.294086 385.293555 
Q 345.294086 386.493555 344.389398 387.325587 
Q 343.484711 388.157618 341.933148 388.157618 
Q 340.461273 388.157618 339.655023 387.433399 
Q 338.848773 386.706837 338.848773 385.65918 
Q 338.848773 384.859962 339.312836 384.259962 
Q 339.779242 383.659962 340.862054 383.160743 
Q 339.683148 382.260743 339.350336 381.688868 
Q 339.017523 381.116993 339.017523 380.362305 
Q 339.017523 379.366212 339.863617 378.60918 
Q 340.709711 377.852149 342.181586 377.852149 
Q 343.601898 377.852149 344.365961 378.522462 
Q 345.132367 379.19043 345.132367 380.12793 
Q 345.132367 380.831055 344.717523 381.370118 
Q 344.305023 381.90918 343.433148 382.34043 
z
M 342.877679 381.967774 
Q 343.147211 381.602149 343.278461 381.147462 
Q 343.412054 380.692774 343.412054 380.151368 
Q 343.412054 379.199805 343.001898 378.693555 
Q 342.694867 378.304493 342.151117 378.304493 
Q 341.661273 378.304493 341.316742 378.660743 
Q 340.972211 379.014649 340.972211 379.541993 
Q 340.972211 380.078712 341.356586 380.65293 
Q 341.740961 381.227149 342.877679 381.967774 
z
M 341.412836 383.512305 
Q 341.185492 383.718555 341.089398 383.887305 
Q 340.944086 384.142774 340.826898 384.634962 
Q 340.709711 385.124805 340.709711 385.65918 
Q 340.709711 386.348243 340.885492 386.812305 
Q 341.061273 387.276368 341.387054 387.482618 
Q 341.712836 387.686524 342.057367 387.686524 
Q 342.591742 387.686524 342.957367 387.295118 
Q 343.322992 386.903712 343.322992 386.22168 
Q 343.322992 384.801368 341.412836 383.512305 
z
" style="fill: #404040; stroke: #ffffff; stroke-width: 3.8"/>
    <path d="M 321.790961 382.970899 
L 321.790961 382.71543 
Q 322.625336 382.47168 322.946429 382.263087 
Q 323.269867 382.054493 323.504242 381.62793 
Q 323.738617 381.199024 323.738617 380.758399 
Q 323.738617 380.151368 323.295648 379.71543 
Q 322.852679 379.279493 322.194086 379.279493 
Q 321.167523 379.279493 320.450336 380.362305 
L 320.178461 380.268555 
Q 320.705804 379.045118 321.530804 378.431055 
Q 322.355804 377.814649 323.365961 377.814649 
Q 324.397211 377.814649 325.067523 378.445118 
Q 325.737836 379.073243 325.737836 379.916993 
Q 325.737836 380.46543 325.426117 380.976368 
Q 325.116742 381.484962 324.448773 381.87168 
Q 325.306586 382.288868 325.756586 382.900587 
Q 326.206586 383.512305 326.206586 384.435743 
Q 326.206586 385.987305 325.081586 387.077149 
Q 323.958929 388.164649 322.069867 388.164649 
Q 320.808929 388.164649 320.230023 387.745118 
Q 319.812836 387.452149 319.812836 386.992774 
Q 319.812836 386.655274 320.054242 386.418555 
Q 320.295648 386.179493 320.612054 386.179493 
Q 320.853461 386.179493 321.066742 386.280274 
Q 321.183929 386.338868 321.896429 386.922462 
Q 322.611273 387.503712 323.234711 387.503712 
Q 323.776117 387.503712 324.162836 387.077149 
Q 324.551898 386.648243 324.551898 385.987305 
Q 324.551898 384.98418 323.848773 384.138087 
Q 323.145648 383.291993 321.790961 382.970899 
z
M 329.729242 388.157618 
L 332.433929 379.961524 
L 330.373773 379.961524 
Q 329.166742 379.961524 328.557367 380.275587 
Q 328.133148 380.495899 327.854242 381.10293 
L 327.577679 381.10293 
L 328.294867 378.018555 
L 334.212836 378.018555 
L 330.880023 388.157618 
L 329.729242 388.157618 
z
M 336.446429 385.694337 
Q 336.959711 385.694337 337.313617 386.055274 
Q 337.669867 386.413868 337.669867 386.917774 
Q 337.669867 387.424024 337.311273 387.780274 
Q 336.952679 388.13418 336.446429 388.13418 
Q 335.940179 388.13418 335.583929 387.780274 
Q 335.230023 387.424024 335.230023 386.917774 
Q 335.230023 386.413868 335.583929 386.055274 
Q 335.940179 385.694337 336.446429 385.694337 
z
M 343.433148 382.34043 
Q 344.480804 383.10918 344.886273 383.772462 
Q 345.294086 384.435743 345.294086 385.293555 
Q 345.294086 386.493555 344.389398 387.325587 
Q 343.484711 388.157618 341.933148 388.157618 
Q 340.461273 388.157618 339.655023 387.433399 
Q 338.848773 386.706837 338.848773 385.65918 
Q 338.848773 384.859962 339.312836 384.259962 
Q 339.779242 383.659962 340.862054 383.160743 
Q 339.683148 382.260743 339.350336 381.688868 
Q 339.017523 381.116993 339.017523 380.362305 
Q 339.017523 379.366212 339.863617 378.60918 
Q 340.709711 377.852149 342.181586 377.852149 
Q 343.601898 377.852149 344.365961 378.522462 
Q 345.132367 379.19043 345.132367 380.12793 
Q 345.132367 380.831055 344.717523 381.370118 
Q 344.305023 381.90918 343.433148 382.34043 
z
M 342.877679 381.967774 
Q 343.147211 381.602149 343.278461 381.147462 
Q 343.412054 380.692774 343.412054 380.151368 
Q 343.412054 379.199805 343.001898 378.693555 
Q 342.694867 378.304493 342.151117 378.304493 
Q 341.661273 378.304493 341.316742 378.660743 
Q 340.972211 379.014649 340.972211 379.541993 
Q 340.972211 380.078712 341.356586 380.65293 
Q 341.740961 381.227149 342.877679 381.967774 
z
M 341.412836 383.512305 
Q 341.185492 383.718555 341.089398 383.887305 
Q 340.944086 384.142774 340.826898 384.634962 
Q 340.709711 385.124805 340.709711 385.65918 
Q 340.709711 386.348243 340.885492 386.812305 
Q 341.061273 387.276368 341.387054 387.482618 
Q 341.712836 387.686524 342.057367 387.686524 
Q 342.591742 387.686524 342.957367 387.295118 
Q 343.322992 386.903712 343.322992 386.22168 
Q 343.322992 384.801368 341.412836 383.512305 
z
" style="fill: #404040"/>
   </g>
  </g>
 </g>
 <defs>
  <clipPath id="p451e7b47d2">
   <rect x="7.2" y="51.034687" width="730.764" height="433.118298"/>
  </clipPath>
 </defs>
</svg>
