<?xml version="1.0" encoding="utf-8" standalone="no"?>
<!DOCTYPE svg PUBLIC "-//W3C//DTD SVG 1.1//EN"
  "http://www.w3.org/Graphics/SVG/1.1/DTD/svg11.dtd">
<svg xmlns:xlink="http://www.w3.org/1999/xlink" width="745.164pt" height="496.240997pt" viewBox="0 0 745.164 496.240997" xmlns="http://www.w3.org/2000/svg" version="1.1">
 <metadata>
  <rdf:RDF xmlns:dc="http://purl.org/dc/elements/1.1/" xmlns:cc="http://creativecommons.org/ns#" xmlns:rdf="http://www.w3.org/1999/02/22-rdf-syntax-ns#">
   <cc:Work>
    <dc:type rdf:resource="http://purl.org/dc/dcmitype/StillImage"/>
    <dc:date>2026-07-13T16:59:17.116669</dc:date>
    <dc:format>image/svg+xml</dc:format>
    <dc:creator>
     <cc:Agent>
      <dc:title>Matplotlib v3.10.8, https://matplotlib.org/</dc:title>
     </cc:Agent>
    </dc:creator>
   </cc:Work>
  </rdf:RDF>
 </metadata>
 <defs>
  <style type="text/css">*{stroke-linejoin: round; stroke-linecap: butt}</style>
 </defs>
 <g id="figure_1">
  <g id="patch_1">
   <path d="M 0 496.240997 
L 745.164 496.240997 
L 745.164 0 
L 0 0 
L 0 496.240997 
z
" style="fill: none"/>
  </g>
  <g id="axes_1">
   <g id="patch_2">
    <path d="M 120.350555 431.74134 
Q 120.350555 455.353629 120.350555 476.886111 
" clip-path="url(#p7696bab87d)" style="fill: none; stroke: #111111; stroke-width: 1.860237; stroke-linejoin: miter; stroke-linecap: round"/>
    <path d="M 123.889831 469.807559 
L 120.350555 476.886111 
L 116.811279 469.807559 
z
" clip-path="url(#p7696bab87d)" style="fill: #111111; stroke: #111111; stroke-width: 1.860237; stroke-linejoin: miter; stroke-linecap: round"/>
   </g>
   <g id="patch_3">
    <path d="M 120.350555 336.81752 
Q 120.350555 358.042495 120.350555 375.945772 
" clip-path="url(#p7696bab87d)" style="fill: none; stroke: #111111; stroke-width: 2.971018; stroke-linejoin: miter; stroke-linecap: round"/>
    <path d="M 124.24528 368.15632 
L 120.350555 375.945772 
L 116.455829 368.15632 
z
" clip-path="url(#p7696bab87d)" style="fill: #111111; stroke: #111111; stroke-width: 2.971018; stroke-linejoin: miter; stroke-linecap: round"/>
   </g>
   <g id="patch_4">
    <path d="M 120.350555 248.539158 
Q 120.350555 268.828719 120.350555 284.482883 
" clip-path="url(#p7696bab87d)" style="fill: none; stroke: #111111; stroke-width: 4.146024; stroke-linejoin: miter; stroke-linecap: round"/>
    <path d="M 124.621283 275.941428 
L 120.350555 284.482883 
L 116.079827 275.941428 
z
" clip-path="url(#p7696bab87d)" style="fill: #111111; stroke: #111111; stroke-width: 4.146024; stroke-linejoin: miter; stroke-linecap: round"/>
   </g>
   <g id="patch_5">
    <path d="M 370.224697 258.768055 
Q 370.224697 278.220169 370.224697 294.927201 
" clip-path="url(#p7696bab87d)" style="fill: none; stroke: #111111; stroke-width: 2.455275; stroke-linejoin: miter; stroke-linecap: round"/>
    <path d="M 373.954385 287.467825 
L 370.224697 294.927201 
L 366.495009 287.467825 
z
" clip-path="url(#p7696bab87d)" style="fill: #111111; stroke: #111111; stroke-width: 2.455275; stroke-linejoin: miter; stroke-linecap: round"/>
   </g>
   <g id="patch_6">
    <path d="M 370.224697 178.494204 
Q 370.224697 196.554372 370.224697 210.124269 
" clip-path="url(#p7696bab87d)" style="fill: none; stroke: #111111; stroke-width: 4.016219; stroke-linejoin: miter; stroke-linecap: round"/>
    <path d="M 374.453887 201.665889 
L 370.224697 210.124269 
L 365.995507 201.665889 
z
" clip-path="url(#p7696bab87d)" style="fill: #111111; stroke: #111111; stroke-width: 4.016219; stroke-linejoin: miter; stroke-linecap: round"/>
   </g>
   <g id="patch_7">
    <path d="M 370.224697 103.249573 
Q 370.224697 120.187076 370.224697 130.639983 
" clip-path="url(#p7696bab87d)" style="fill: none; stroke: #111111; stroke-width: 5.8; stroke-linejoin: miter; stroke-linecap: round"/>
    <path d="M 375.024697 121.039983 
L 370.224697 130.639983 
L 365.424697 121.039983 
z
" clip-path="url(#p7696bab87d)" style="fill: #111111; stroke: #111111; stroke-width: 5.8; stroke-linejoin: miter; stroke-linecap: round"/>
   </g>
   <g id="patch_8">
    <path d="M 586.153672 225.454408 
Q 586.153672 246.669198 586.153672 264.118845 
" clip-path="url(#p7696bab87d)" style="fill: none; stroke: #111111; stroke-width: 3.367648; stroke-linejoin: miter; stroke-linecap: round"/>
    <path d="M 590.175319 256.07555 
L 586.153672 264.118845 
L 582.132025 256.07555 
z
" clip-path="url(#p7696bab87d)" style="fill: #111111; stroke: #111111; stroke-width: 3.367648; stroke-linejoin: miter; stroke-linecap: round"/>
   </g>
   <g id="line2d_1">
    <path d="M 165.610777 478.965919 
L 550.322663 478.965919 
" clip-path="url(#p7696bab87d)" style="fill: none; stroke-dasharray: 5.6,4.2; stroke-dashoffset: 0; stroke: #404040; stroke-width: 1.4"/>
   </g>
   <g id="line2d_2">
    <path d="M 165.610777 379.267471 
L 550.322663 379.267471 
" clip-path="url(#p7696bab87d)" style="fill: none; stroke-dasharray: 5.6,4.2; stroke-dashoffset: 0; stroke: #404040; stroke-width: 1.4"/>
   </g>
   <g id="line2d_3">
    <path d="M 415.484919 297.672282 
L 560.694797 297.672282 
" clip-path="url(#p7696bab87d)" style="fill: none; stroke-dasharray: 5.6,4.2; stroke-dashoffset: 0; stroke: #404040; stroke-width: 1.4"/>
   </g>
   <g id="patch_9">
    <path d="M 665.359061 267.883989 
Q 583.418149 371.075341 502.033595 473.566049 
" clip-path="url(#p7696bab87d)" style="fill: none; stroke: #404040; stroke-width: 0.800217; stroke-linejoin: miter; stroke-linecap: round"/>
    <path d="M 507.70891 470.921656 
L 502.033595 473.566049 
L 503.32327 467.439161 
z
" clip-path="url(#p7696bab87d)" style="fill: #404040; stroke: #404040; stroke-width: 0.800217; stroke-linejoin: miter; stroke-linecap: round"/>
   </g>
   <g id="patch_10">
    <path d="M 620.098839 267.883989 
Q 577.742298 321.225215 537.050849 372.469527 
" clip-path="url(#p7696bab87d)" style="fill: none; stroke: #404040; stroke-width: 2.394924; stroke-linejoin: miter; stroke-linecap: round"/>
    <path d="M 543.803573 369.323119 
L 537.050849 372.469527 
L 538.585357 365.179502 
z
" clip-path="url(#p7696bab87d)" style="fill: #404040; stroke: #404040; stroke-width: 2.394924; stroke-linejoin: miter; stroke-linecap: round"/>
   </g>
   <g id="patch_11">
    <path d="M 574.838617 267.883989 
Q 542.243691 281.613621 510.587862 294.947688 
" clip-path="url(#p7696bab87d)" style="fill: none; stroke: #404040; stroke-width: 0.911427; stroke-linejoin: miter; stroke-linecap: round"/>
    <path d="M 516.918515 295.359653 
L 510.587862 294.947688 
L 514.715826 290.130344 
z
" clip-path="url(#p7696bab87d)" style="fill: #404040; stroke: #404040; stroke-width: 0.911427; stroke-linejoin: miter; stroke-linecap: round"/>
   </g>
   <g id="patch_12">
    <path d="M 370.224697 297.672282 
Q 334.726996 336.262414 301.292429 372.60968 
" clip-path="url(#p7696bab87d)" style="fill: none; stroke: #404040; stroke-width: 2.725724; stroke-linejoin: miter; stroke-linecap: round"/>
    <path d="M 308.485968 369.873505 
L 301.292429 372.60968 
L 303.419613 365.213144 
z
" clip-path="url(#p7696bab87d)" style="fill: #404040; stroke: #404040; stroke-width: 2.725724; stroke-linejoin: miter; stroke-linecap: round"/>
   </g>
   <g id="line2d_4">
    <path d="M 120.350555 379.267471 
L 120.350555 426.49205 
" clip-path="url(#p7696bab87d)" style="fill: none; stroke: #111111; stroke-width: 1.860237"/>
   </g>
   <g id="line2d_5">
    <path d="M 120.350555 289.118279 
L 120.350555 331.56823 
" clip-path="url(#p7696bab87d)" style="fill: none; stroke: #111111; stroke-width: 2.971018"/>
   </g>
   <g id="line2d_6">
    <path d="M 120.350555 202.710747 
L 120.350555 243.289868 
" clip-path="url(#p7696bab87d)" style="fill: none; stroke: #111111; stroke-width: 4.146024"/>
   </g>
   <g id="line2d_7">
    <path d="M 370.224697 214.614539 
L 370.224697 253.518766 
" clip-path="url(#p7696bab87d)" style="fill: none; stroke: #111111; stroke-width: 2.455275"/>
   </g>
   <g id="line2d_8">
    <path d="M 370.224697 137.12458 
L 370.224697 173.244915 
" clip-path="url(#p7696bab87d)" style="fill: none; stroke: #111111; stroke-width: 4.016219"/>
   </g>
   <g id="line2d_9">
    <path d="M 370.224697 64.125275 
L 370.224697 98.000283 
" clip-path="url(#p7696bab87d)" style="fill: none; stroke: #111111; stroke-width: 5.8"/>
   </g>
   <g id="line2d_10">
    <path d="M 586.153672 177.775537 
L 586.153672 220.205118 
" clip-path="url(#p7696bab87d)" style="fill: none; stroke: #111111; stroke-width: 3.367648"/>
   </g>
   <g id="line2d_11">
    <path d="M 75.090333 478.965919 
L 165.610777 478.965919 
" clip-path="url(#p7696bab87d)" style="fill: none; stroke: #111111; stroke-width: 3.6; stroke-linecap: round"/>
   </g>
   <g id="line2d_12">
    <path d="M 75.090333 379.267471 
L 165.610777 379.267471 
" clip-path="url(#p7696bab87d)" style="fill: none; stroke: #111111; stroke-width: 3.6; stroke-linecap: round"/>
   </g>
   <g id="line2d_13">
    <path d="M 75.090333 289.118279 
L 165.610777 289.118279 
" clip-path="url(#p7696bab87d)" style="fill: none; stroke: #111111; stroke-width: 3.6; stroke-linecap: round"/>
   </g>
   <g id="line2d_14">
    <path d="M 75.090333 202.710747 
L 165.610777 202.710747 
" clip-path="url(#p7696bab87d)" style="fill: none; stroke: #111111; stroke-width: 3.6; stroke-linecap: round"/>
   </g>
   <g id="line2d_15">
    <path d="M 324.964475 297.672282 
L 415.484919 297.672282 
" clip-path="url(#p7696bab87d)" style="fill: none; stroke: #111111; stroke-width: 3.6; stroke-linecap: round"/>
   </g>
   <g id="line2d_16">
    <path d="M 324.964475 214.614539 
L 415.484919 214.614539 
" clip-path="url(#p7696bab87d)" style="fill: none; stroke: #111111; stroke-width: 3.6; stroke-linecap: round"/>
   </g>
   <g id="line2d_17">
    <path d="M 324.964475 137.12458 
L 415.484919 137.12458 
" clip-path="url(#p7696bab87d)" style="fill: none; stroke: #111111; stroke-width: 3.6; stroke-linecap: round"/>
   </g>
   <g id="line2d_18">
    <path d="M 324.964475 64.125275 
L 415.484919 64.125275 
" clip-path="url(#p7696bab87d)" style="fill: none; stroke: #111111; stroke-width: 3.6; stroke-linecap: round"/>
   </g>
   <g id="line2d_19">
    <path d="M 574.838617 267.883989 
L 665.359061 267.883989 
" clip-path="url(#p7696bab87d)" style="fill: none; stroke: #111111; stroke-width: 3.6; stroke-linecap: round"/>
   </g>
   <g id="line2d_20">
    <path d="M 574.838617 177.775537 
L 665.359061 177.775537 
" clip-path="url(#p7696bab87d)" style="fill: none; stroke: #111111; stroke-width: 3.6; stroke-linecap: round"/>
   </g>
   <g id="text_1">
    <!-- $^{280}\mathrm{U}$ -->
    <g transform="translate(336.712 33.034687) scale(0.34 -0.34)">
     <defs>
      <path id="DejaVuSans-32" d="M 1228 531 
L 3431 531 
L 3431 0 
L 469 0 
L 469 531 
Q 828 903 1448 1529 
Q 2069 2156 2228 2338 
Q 2531 2678 2651 2914 
Q 2772 3150 2772 3378 
Q 2772 3750 2511 3984 
Q 2250 4219 1831 4219 
Q 1534 4219 1204 4116 
Q 875 4013 500 3803 
L 500 4441 
Q 881 4594 1212 4672 
Q 1544 4750 1819 4750 
Q 2544 4750 2975 4387 
Q 3406 4025 3406 3419 
Q 3406 3131 3298 2873 
Q 3191 2616 2906 2266 
Q 2828 2175 2409 1742 
Q 1991 1309 1228 531 
z
" transform="scale(0.015625)"/>
      <path id="DejaVuSans-38" d="M 2034 2216 
Q 1584 2216 1326 1975 
Q 1069 1734 1069 1313 
Q 1069 891 1326 650 
Q 1584 409 2034 409 
Q 2484 409 2743 651 
Q 3003 894 3003 1313 
Q 3003 1734 2745 1975 
Q 2488 2216 2034 2216 
z
M 1403 2484 
Q 997 2584 770 2862 
Q 544 3141 544 3541 
Q 544 4100 942 4425 
Q 1341 4750 2034 4750 
Q 2731 4750 3128 4425 
Q 3525 4100 3525 3541 
Q 3525 3141 3298 2862 
Q 3072 2584 2669 2484 
Q 3125 2378 3379 2068 
Q 3634 1759 3634 1313 
Q 3634 634 3220 271 
Q 2806 -91 2034 -91 
Q 1263 -91 848 271 
Q 434 634 434 1313 
Q 434 1759 690 2068 
Q 947 2378 1403 2484 
z
M 1172 3481 
Q 1172 3119 1398 2916 
Q 1625 2713 2034 2713 
Q 2441 2713 2670 2916 
Q 2900 3119 2900 3481 
Q 2900 3844 2670 4047 
Q 2441 4250 2034 4250 
Q 1625 4250 1398 4047 
Q 1172 3844 1172 3481 
z
" transform="scale(0.015625)"/>
      <path id="DejaVuSans-30" d="M 2034 4250 
Q 1547 4250 1301 3770 
Q 1056 3291 1056 2328 
Q 1056 1369 1301 889 
Q 1547 409 2034 409 
Q 2525 409 2770 889 
Q 3016 1369 3016 2328 
Q 3016 3291 2770 3770 
Q 2525 4250 2034 4250 
z
M 2034 4750 
Q 2819 4750 3233 4129 
Q 3647 3509 3647 2328 
Q 3647 1150 3233 529 
Q 2819 -91 2034 -91 
Q 1250 -91 836 529 
Q 422 1150 422 2328 
Q 422 3509 836 4129 
Q 1250 4750 2034 4750 
z
" transform="scale(0.015625)"/>
      <path id="DejaVuSans-55" d="M 556 4666 
L 1191 4666 
L 1191 1831 
Q 1191 1081 1462 751 
Q 1734 422 2344 422 
Q 2950 422 3222 751 
Q 3494 1081 3494 1831 
L 3494 4666 
L 4128 4666 
L 4128 1753 
Q 4128 841 3676 375 
Q 3225 -91 2344 -91 
Q 1459 -91 1007 375 
Q 556 841 556 1753 
L 556 4666 
z
" transform="scale(0.015625)"/>
     </defs>
     <use xlink:href="#DejaVuSans-32" transform="translate(0.957031 39.046875) scale(0.7)"/>
     <use xlink:href="#DejaVuSans-38" transform="translate(45.493164 39.046875) scale(0.7)"/>
     <use xlink:href="#DejaVuSans-30" transform="translate(90.029297 39.046875) scale(0.7)"/>
     <use xlink:href="#DejaVuSans-55" transform="translate(137.299805 0.765625)"/>
    </g>
   </g>
   <g id="text_2">
    <!-- 0 -->
    <g transform="translate(46.98525 483.380919) scale(0.16 -0.16)">
     <defs>
      <path id="DejaVuSans-BoldOblique-30" d="M 1913 728 
Q 2153 728 2339 872 
Q 2525 1016 2650 1294 
Q 2738 1491 2809 1742 
Q 2881 1994 2944 2338 
Q 2997 2616 3025 2850 
Q 3053 3084 3053 3250 
Q 3053 3600 2928 3764 
Q 2803 3928 2541 3928 
Q 2297 3928 2112 3789 
Q 1928 3650 1806 3366 
Q 1713 3163 1636 2903 
Q 1559 2644 1503 2338 
Q 1450 2056 1422 1815 
Q 1394 1575 1394 1409 
Q 1394 1063 1522 895 
Q 1650 728 1913 728 
z
M 4225 3072 
Q 4225 2450 4053 1862 
Q 3881 1275 3572 831 
Q 3256 375 2809 142 
Q 2363 -91 1813 -91 
Q 1047 -91 639 343 
Q 231 778 231 1594 
Q 231 2206 401 2795 
Q 572 3384 878 3822 
Q 1200 4281 1644 4515 
Q 2088 4750 2644 4750 
Q 3403 4750 3814 4314 
Q 4225 3878 4225 3072 
z
" transform="scale(0.015625)"/>
     </defs>
     <use xlink:href="#DejaVuSans-BoldOblique-30"/>
    </g>
   </g>
   <g id="text_3">
    <!-- 0⁺ -->
    <g transform="translate(182.58336 484.121153) scale(0.23 -0.23)">
     <defs>
      <path id="TimesNewRomanPS-BoldMT-30" d="M 2966 2119 
Q 2966 1484 2788 934 
Q 2681 597 2501 381 
Q 2322 166 2094 39 
Q 1866 -88 1597 -88 
Q 1291 -88 1044 68 
Q 797 225 606 516 
Q 469 728 366 1081 
Q 231 1559 231 2069 
Q 231 2759 425 3338 
Q 584 3816 909 4070 
Q 1234 4325 1597 4325 
Q 1966 4325 2286 4073 
Q 2606 3822 2756 3397 
Q 2966 2813 2966 2119 
z
M 2003 2125 
Q 2003 3238 1991 3422 
Q 1959 3856 1841 4009 
Q 1763 4109 1588 4109 
Q 1453 4109 1375 4034 
Q 1259 3925 1218 3648 
Q 1178 3372 1178 1719 
Q 1178 819 1241 513 
Q 1288 291 1375 216 
Q 1463 141 1606 141 
Q 1763 141 1841 241 
Q 1972 416 1991 781 
L 2003 2125 
z
" transform="scale(0.015625)"/>
      <path id="DejaVuSerif-Bold-207a" d="M 1916 4344 
L 1916 3441 
L 2950 3441 
L 2950 3044 
L 1916 3044 
L 1916 2141 
L 1463 2141 
L 1463 3044 
L 428 3044 
L 428 3441 
L 1463 3441 
L 1463 4344 
L 1916 4344 
z
" transform="scale(0.015625)"/>
     </defs>
     <use xlink:href="#TimesNewRomanPS-BoldMT-30"/>
     <use xlink:href="#DejaVuSerif-Bold-207a" transform="translate(50 0)"/>
    </g>
   </g>
   <g id="text_4">
    <!-- 1747 -->
    <g transform="translate(13.58775 383.682471) scale(0.16 -0.16)">
     <defs>
      <path id="DejaVuSans-BoldOblique-31" d="M 441 831 
L 1503 831 
L 2088 3847 
L 953 3622 
L 1113 4441 
L 2241 4666 
L 3384 4666 
L 2644 831 
L 3700 831 
L 3541 0 
L 275 0 
L 441 831 
z
" transform="scale(0.015625)"/>
      <path id="DejaVuSans-BoldOblique-37" d="M 922 4666 
L 4441 4666 
L 4300 3981 
L 1703 0 
L 500 0 
L 2969 3781 
L 756 3781 
L 922 4666 
z
" transform="scale(0.015625)"/>
      <path id="DejaVuSans-BoldOblique-34" d="M 2638 3641 
L 978 1722 
L 2259 1722 
L 2638 3641 
z
M 2606 4666 
L 3975 4666 
L 3397 1722 
L 4063 1722 
L 3897 850 
L 3231 850 
L 3066 0 
L 1925 0 
L 2094 850 
L -6 850 
L 197 1881 
L 2606 4666 
z
" transform="scale(0.015625)"/>
     </defs>
     <use xlink:href="#DejaVuSans-BoldOblique-31"/>
     <use xlink:href="#DejaVuSans-BoldOblique-37" transform="translate(69.580078 0)"/>
     <use xlink:href="#DejaVuSans-BoldOblique-34" transform="translate(139.160156 0)"/>
     <use xlink:href="#DejaVuSans-BoldOblique-37" transform="translate(208.740234 0)"/>
    </g>
   </g>
   <g id="text_5">
    <!-- 2⁺ -->
    <g transform="translate(182.58336 384.422705) scale(0.23 -0.23)">
     <defs>
      <path id="TimesNewRomanPS-BoldMT-32" d="M 2650 0 
L 156 0 
L 156 69 
Q 1303 1434 1548 1906 
Q 1794 2378 1794 2828 
Q 1794 3156 1591 3373 
Q 1388 3591 1094 3591 
Q 613 3591 347 3109 
L 231 3150 
Q 400 3750 744 4037 
Q 1088 4325 1538 4325 
Q 1859 4325 2125 4175 
Q 2391 4025 2541 3764 
Q 2691 3503 2691 3275 
Q 2691 2859 2459 2431 
Q 2144 1853 1081 819 
L 1997 819 
Q 2334 819 2436 847 
Q 2538 875 2603 942 
Q 2669 1009 2775 1225 
L 2888 1225 
L 2650 0 
z
" transform="scale(0.015625)"/>
     </defs>
     <use xlink:href="#TimesNewRomanPS-BoldMT-32"/>
     <use xlink:href="#DejaVuSerif-Bold-207a" transform="translate(50 0)"/>
    </g>
   </g>
   <g id="text_6">
    <!-- 3327 -->
    <g transform="translate(13.58775 293.533279) scale(0.16 -0.16)">
     <defs>
      <path id="DejaVuSans-BoldOblique-33" d="M 3022 2516 
Q 3375 2434 3572 2187 
Q 3769 1941 3769 1581 
Q 3769 806 3155 357 
Q 2541 -91 1466 -91 
Q 1059 -91 692 -33 
Q 325 25 0 141 
L 178 1069 
Q 456 906 784 817 
Q 1113 728 1441 728 
Q 1969 728 2276 926 
Q 2584 1125 2584 1459 
Q 2584 1738 2350 1877 
Q 2116 2016 1644 2016 
L 1166 2016 
L 1319 2791 
L 1825 2791 
Q 2316 2791 2602 2969 
Q 2888 3147 2888 3450 
Q 2888 3688 2689 3813 
Q 2491 3938 2113 3938 
Q 1847 3938 1534 3869 
Q 1222 3800 884 3669 
L 1056 4550 
Q 1425 4650 1783 4700 
Q 2141 4750 2491 4750 
Q 3281 4750 3679 4487 
Q 4078 4225 4078 3706 
Q 4078 3241 3801 2930 
Q 3525 2619 3022 2516 
z
" transform="scale(0.015625)"/>
      <path id="DejaVuSans-BoldOblique-32" d="M 1581 884 
L 3609 884 
L 3438 0 
L 50 0 
L 225 891 
L 2209 2388 
Q 2534 2638 2704 2894 
Q 2875 3150 2875 3391 
Q 2875 3647 2700 3787 
Q 2525 3928 2209 3928 
Q 1913 3928 1547 3811 
Q 1181 3694 722 3450 
L 922 4441 
Q 1347 4597 1756 4673 
Q 2166 4750 2566 4750 
Q 3278 4750 3687 4442 
Q 4097 4134 4097 3603 
Q 4097 3147 3847 2772 
Q 3597 2397 2747 1759 
L 1581 884 
z
" transform="scale(0.015625)"/>
     </defs>
     <use xlink:href="#DejaVuSans-BoldOblique-33"/>
     <use xlink:href="#DejaVuSans-BoldOblique-33" transform="translate(69.580078 0)"/>
     <use xlink:href="#DejaVuSans-BoldOblique-32" transform="translate(139.160156 0)"/>
     <use xlink:href="#DejaVuSans-BoldOblique-37" transform="translate(208.740234 0)"/>
    </g>
   </g>
   <g id="text_7">
    <!-- 4⁺ -->
    <g transform="translate(182.58336 294.273514) scale(0.23 -0.23)">
     <defs>
      <path id="TimesNewRomanPS-BoldMT-34" d="M 159 1597 
L 2172 4325 
L 2553 4325 
L 2553 1597 
L 2941 1597 
L 2941 950 
L 2553 950 
L 2553 0 
L 1694 0 
L 1694 950 
L 159 950 
L 159 1597 
z
M 463 1597 
L 1694 1597 
L 1694 3269 
L 463 1597 
z
" transform="scale(0.015625)"/>
     </defs>
     <use xlink:href="#TimesNewRomanPS-BoldMT-34"/>
     <use xlink:href="#DejaVuSerif-Bold-207a" transform="translate(50 0)"/>
    </g>
   </g>
   <g id="text_8">
    <!-- 4842 -->
    <g transform="translate(13.58775 207.125747) scale(0.16 -0.16)">
     <defs>
      <path id="DejaVuSans-BoldOblique-38" d="M 2150 2088 
Q 1784 2088 1539 1839 
Q 1294 1591 1294 1228 
Q 1294 969 1453 817 
Q 1613 666 1888 666 
Q 2259 666 2503 911 
Q 2747 1156 2747 1522 
Q 2747 1781 2586 1934 
Q 2425 2088 2150 2088 
z
M 1381 2484 
Q 1044 2625 876 2850 
Q 709 3075 709 3391 
Q 709 4025 1229 4387 
Q 1750 4750 2669 4750 
Q 3406 4750 3812 4475 
Q 4219 4200 4219 3700 
Q 4219 3256 3936 2940 
Q 3653 2625 3128 2484 
Q 3509 2338 3690 2091 
Q 3872 1844 3872 1466 
Q 3872 747 3311 328 
Q 2750 -91 1772 -91 
Q 1000 -91 570 217 
Q 141 525 141 1075 
Q 141 1572 470 1945 
Q 800 2319 1381 2484 
z
M 2559 3994 
Q 2241 3994 2048 3808 
Q 1856 3622 1856 3316 
Q 1856 3103 1995 2972 
Q 2134 2841 2363 2841 
Q 2681 2841 2873 3027 
Q 3066 3213 3066 3519 
Q 3066 3734 2927 3864 
Q 2788 3994 2559 3994 
z
" transform="scale(0.015625)"/>
     </defs>
     <use xlink:href="#DejaVuSans-BoldOblique-34"/>
     <use xlink:href="#DejaVuSans-BoldOblique-38" transform="translate(69.580078 0)"/>
     <use xlink:href="#DejaVuSans-BoldOblique-34" transform="translate(139.160156 0)"/>
     <use xlink:href="#DejaVuSans-BoldOblique-32" transform="translate(208.740234 0)"/>
    </g>
   </g>
   <g id="text_9">
    <!-- 6⁺ -->
    <g transform="translate(182.58336 207.865982) scale(0.23 -0.23)">
     <defs>
      <path id="TimesNewRomanPS-BoldMT-36" d="M 3006 4325 
L 3006 4238 
Q 2441 4094 2098 3867 
Q 1756 3641 1557 3317 
Q 1359 2994 1250 2516 
Q 1388 2609 1478 2638 
Q 1681 2700 1888 2700 
Q 2363 2700 2680 2354 
Q 2997 2009 2997 1413 
Q 2997 994 2825 644 
Q 2653 294 2337 103 
Q 2022 -88 1663 -88 
Q 1272 -88 940 126 
Q 609 341 423 753 
Q 238 1166 238 1650 
Q 238 2363 580 2977 
Q 922 3591 1551 3955 
Q 2181 4319 3006 4325 
z
M 1209 2263 
Q 1184 1831 1184 1631 
Q 1184 1200 1267 797 
Q 1350 394 1494 231 
Q 1597 116 1738 116 
Q 1881 116 1993 283 
Q 2106 450 2106 963 
Q 2106 1825 1897 2153 
Q 1763 2366 1534 2366 
Q 1409 2366 1209 2263 
z
" transform="scale(0.015625)"/>
     </defs>
     <use xlink:href="#TimesNewRomanPS-BoldMT-36"/>
     <use xlink:href="#DejaVuSerif-Bold-207a" transform="translate(50 0)"/>
    </g>
   </g>
   <g id="text_10">
    <!-- 3177 -->
    <g transform="translate(263.461892 302.087282) scale(0.16 -0.16)">
     <use xlink:href="#DejaVuSans-BoldOblique-33"/>
     <use xlink:href="#DejaVuSans-BoldOblique-31" transform="translate(69.580078 0)"/>
     <use xlink:href="#DejaVuSans-BoldOblique-37" transform="translate(139.160156 0)"/>
     <use xlink:href="#DejaVuSans-BoldOblique-37" transform="translate(208.740234 0)"/>
    </g>
   </g>
   <g id="text_11">
    <!-- 0⁺ -->
    <g transform="translate(432.457502 302.827516) scale(0.23 -0.23)">
     <use xlink:href="#TimesNewRomanPS-BoldMT-30"/>
     <use xlink:href="#DejaVuSerif-Bold-207a" transform="translate(50 0)"/>
    </g>
   </g>
   <g id="text_12">
    <!-- 4633 -->
    <g transform="translate(263.461892 219.029539) scale(0.16 -0.16)">
     <defs>
      <path id="DejaVuSans-BoldOblique-36" d="M 2316 2303 
Q 1959 2303 1731 2009 
Q 1503 1716 1503 1253 
Q 1503 975 1643 820 
Q 1784 666 2034 666 
Q 2388 666 2617 955 
Q 2847 1244 2847 1684 
Q 2847 1984 2709 2143 
Q 2572 2303 2316 2303 
z
M 4225 4544 
L 4056 3681 
Q 3788 3819 3534 3887 
Q 3281 3956 3028 3956 
Q 2447 3956 2087 3643 
Q 1728 3331 1650 2766 
Q 1894 2925 2151 3001 
Q 2409 3078 2700 3078 
Q 3275 3078 3640 2737 
Q 4006 2397 4006 1869 
Q 4006 1006 3442 454 
Q 2878 -97 1991 -97 
Q 1194 -97 756 354 
Q 319 806 319 1631 
Q 319 2269 512 2848 
Q 706 3428 1056 3847 
Q 1431 4294 1942 4519 
Q 2453 4744 3091 4744 
Q 3384 4744 3662 4694 
Q 3941 4644 4225 4544 
z
" transform="scale(0.015625)"/>
     </defs>
     <use xlink:href="#DejaVuSans-BoldOblique-34"/>
     <use xlink:href="#DejaVuSans-BoldOblique-36" transform="translate(69.580078 0)"/>
     <use xlink:href="#DejaVuSans-BoldOblique-33" transform="translate(139.160156 0)"/>
     <use xlink:href="#DejaVuSans-BoldOblique-33" transform="translate(208.740234 0)"/>
    </g>
   </g>
   <g id="text_13">
    <!-- 2⁺ -->
    <g transform="translate(432.457502 219.769773) scale(0.23 -0.23)">
     <use xlink:href="#TimesNewRomanPS-BoldMT-32"/>
     <use xlink:href="#DejaVuSerif-Bold-207a" transform="translate(50 0)"/>
    </g>
   </g>
   <g id="text_14">
    <!-- 5991 -->
    <g transform="translate(263.461892 141.53958) scale(0.16 -0.16)">
     <defs>
      <path id="DejaVuSans-BoldOblique-35" d="M 1131 4666 
L 4122 4666 
L 3950 3781 
L 1919 3781 
L 1778 3059 
Q 1916 3097 2064 3117 
Q 2213 3138 2363 3138 
Q 3078 3138 3481 2811 
Q 3884 2484 3884 1906 
Q 3884 988 3262 448 
Q 2641 -91 1575 -91 
Q 1184 -91 815 -14 
Q 447 63 84 219 
L 269 1166 
Q 616 941 942 834 
Q 1269 728 1606 728 
Q 2100 728 2397 986 
Q 2694 1244 2694 1663 
Q 2694 1963 2469 2139 
Q 2244 2316 1856 2316 
Q 1594 2316 1289 2248 
Q 984 2181 622 2041 
L 1131 4666 
z
" transform="scale(0.015625)"/>
      <path id="DejaVuSans-BoldOblique-39" d="M 263 103 
L 428 966 
Q 700 825 953 758 
Q 1206 691 1459 691 
Q 2041 691 2400 1003 
Q 2759 1316 2834 1881 
Q 2594 1722 2337 1645 
Q 2081 1569 1791 1569 
Q 1219 1569 853 1909 
Q 488 2250 488 2778 
Q 488 3641 1052 4192 
Q 1616 4744 2503 4744 
Q 3300 4744 3736 4292 
Q 4172 3841 4172 3016 
Q 4172 2381 3978 1801 
Q 3784 1222 3431 800 
Q 3056 353 2548 128 
Q 2041 -97 1403 -97 
Q 1106 -97 825 -47 
Q 544 3 263 103 
z
M 2169 2344 
Q 2525 2344 2753 2637 
Q 2981 2931 2981 3391 
Q 2981 3675 2845 3828 
Q 2709 3981 2456 3981 
Q 2103 3981 1870 3690 
Q 1638 3400 1638 2963 
Q 1638 2663 1775 2503 
Q 1913 2344 2169 2344 
z
" transform="scale(0.015625)"/>
     </defs>
     <use xlink:href="#DejaVuSans-BoldOblique-35"/>
     <use xlink:href="#DejaVuSans-BoldOblique-39" transform="translate(69.580078 0)"/>
     <use xlink:href="#DejaVuSans-BoldOblique-39" transform="translate(139.160156 0)"/>
     <use xlink:href="#DejaVuSans-BoldOblique-31" transform="translate(208.740234 0)"/>
    </g>
   </g>
   <g id="text_15">
    <!-- 4⁺ -->
    <g transform="translate(432.457502 142.279815) scale(0.23 -0.23)">
     <use xlink:href="#TimesNewRomanPS-BoldMT-34"/>
     <use xlink:href="#DejaVuSerif-Bold-207a" transform="translate(50 0)"/>
    </g>
   </g>
   <g id="text_16">
    <!-- 7271 -->
    <g transform="translate(263.461892 68.540275) scale(0.16 -0.16)">
     <use xlink:href="#DejaVuSans-BoldOblique-37"/>
     <use xlink:href="#DejaVuSans-BoldOblique-32" transform="translate(69.580078 0)"/>
     <use xlink:href="#DejaVuSans-BoldOblique-37" transform="translate(139.160156 0)"/>
     <use xlink:href="#DejaVuSans-BoldOblique-31" transform="translate(208.740234 0)"/>
    </g>
   </g>
   <g id="text_17">
    <!-- 6⁺ -->
    <g transform="translate(432.457502 69.280509) scale(0.23 -0.23)">
     <use xlink:href="#TimesNewRomanPS-BoldMT-36"/>
     <use xlink:href="#DejaVuSerif-Bold-207a" transform="translate(50 0)"/>
    </g>
   </g>
   <g id="text_18">
    <!-- 3699 -->
    <g transform="translate(513.336034 272.298989) scale(0.16 -0.16)">
     <use xlink:href="#DejaVuSans-BoldOblique-33"/>
     <use xlink:href="#DejaVuSans-BoldOblique-36" transform="translate(69.580078 0)"/>
     <use xlink:href="#DejaVuSans-BoldOblique-39" transform="translate(139.160156 0)"/>
     <use xlink:href="#DejaVuSans-BoldOblique-39" transform="translate(208.740234 0)"/>
    </g>
   </g>
   <g id="text_19">
    <!-- 2⁺ -->
    <g transform="translate(682.331644 273.039223) scale(0.23 -0.23)">
     <use xlink:href="#TimesNewRomanPS-BoldMT-32"/>
     <use xlink:href="#DejaVuSerif-Bold-207a" transform="translate(50 0)"/>
    </g>
   </g>
   <g id="text_20">
    <!-- 5279 -->
    <g transform="translate(513.336034 182.190537) scale(0.16 -0.16)">
     <use xlink:href="#DejaVuSans-BoldOblique-35"/>
     <use xlink:href="#DejaVuSans-BoldOblique-32" transform="translate(69.580078 0)"/>
     <use xlink:href="#DejaVuSans-BoldOblique-37" transform="translate(139.160156 0)"/>
     <use xlink:href="#DejaVuSans-BoldOblique-39" transform="translate(208.740234 0)"/>
    </g>
   </g>
   <g id="text_21">
    <!-- 3⁺ -->
    <g transform="translate(682.331644 182.930771) scale(0.23 -0.23)">
     <defs>
      <path id="TimesNewRomanPS-BoldMT-33" d="M 947 2125 
L 947 2234 
Q 1303 2338 1440 2427 
Q 1578 2516 1678 2698 
Q 1778 2881 1778 3069 
Q 1778 3328 1589 3514 
Q 1400 3700 1119 3700 
Q 681 3700 375 3238 
L 259 3278 
Q 484 3800 836 4062 
Q 1188 4325 1619 4325 
Q 2059 4325 2345 4056 
Q 2631 3788 2631 3428 
Q 2631 3194 2498 2976 
Q 2366 2759 2081 2594 
Q 2447 2416 2639 2155 
Q 2831 1894 2831 1500 
Q 2831 838 2351 373 
Q 1872 -91 1066 -91 
Q 528 -91 281 88 
Q 103 213 103 409 
Q 103 553 206 654 
Q 309 756 444 756 
Q 547 756 638 713 
Q 688 688 992 439 
Q 1297 191 1563 191 
Q 1794 191 1959 373 
Q 2125 556 2125 838 
Q 2125 1266 1825 1627 
Q 1525 1988 947 2125 
z
" transform="scale(0.015625)"/>
     </defs>
     <use xlink:href="#TimesNewRomanPS-BoldMT-33"/>
     <use xlink:href="#DejaVuSerif-Bold-207a" transform="translate(50 0)"/>
    </g>
   </g>
   <g id="text_22">
    <path d="M 111.560555 421.890445 
L 111.560555 430.555445 
Q 111.560555 431.530445 111.645555 431.800445 
Q 111.733055 432.070445 112.005555 432.242945 
Q 112.280555 432.412945 112.883055 432.412945 
L 113.123055 432.412945 
L 113.123055 432.702945 
L 107.545555 432.702945 
L 107.545555 432.412945 
L 107.828055 432.412945 
Q 108.508055 432.412945 108.795555 432.257945 
Q 109.085555 432.100445 109.185555 431.827945 
Q 109.288055 431.555445 109.288055 430.555445 
L 109.288055 425.062945 
Q 109.288055 424.327945 109.218055 424.145445 
Q 109.148055 423.960445 108.955555 423.832945 
Q 108.765555 423.702945 108.515555 423.702945 
Q 108.115555 423.702945 107.545555 423.952945 
L 107.405555 423.670445 
L 111.303055 421.890445 
L 111.560555 421.890445 
z
M 116.788055 422.107945 
L 121.748055 422.107945 
L 120.960555 424.125445 
L 116.788055 424.125445 
L 116.390555 425.180445 
Q 119.085555 425.280445 120.538055 426.522945 
Q 121.733055 427.545445 121.733055 429.070445 
Q 121.733055 430.045445 121.178055 430.980445 
Q 120.623055 431.912945 119.615555 432.417945 
Q 118.608055 432.922945 117.405555 432.922945 
Q 116.108055 432.922945 115.413055 432.437945 
Q 114.928055 432.092945 114.928055 431.655445 
Q 114.928055 431.320445 115.180555 431.062945 
Q 115.435555 430.805445 115.773055 430.805445 
Q 116.078055 430.805445 116.390555 430.930445 
Q 116.703055 431.055445 117.460555 431.585445 
Q 117.935555 431.912945 118.280555 432.037945 
Q 118.523055 432.132945 118.828055 432.132945 
Q 119.468055 432.132945 119.915555 431.665445 
Q 120.365555 431.195445 120.365555 430.537945 
Q 120.365555 429.162945 118.990555 428.305445 
Q 117.615555 427.445445 115.523055 427.445445 
Q 115.310555 427.445445 114.890555 427.452945 
L 116.788055 422.107945 
z
M 124.350555 430.295445 
Q 124.898055 430.295445 125.275555 430.680445 
Q 125.655555 431.062945 125.655555 431.600445 
Q 125.655555 432.140445 125.273055 432.520445 
Q 124.890555 432.897945 124.350555 432.897945 
Q 123.810555 432.897945 123.430555 432.520445 
Q 123.053055 432.140445 123.053055 431.600445 
Q 123.053055 431.062945 123.430555 430.680445 
Q 123.810555 430.295445 124.350555 430.295445 
z
M 126.748055 428.710445 
L 131.780555 421.890445 
L 132.733055 421.890445 
L 132.733055 428.710445 
L 133.703055 428.710445 
L 133.703055 430.327945 
L 132.733055 430.327945 
L 132.733055 432.702945 
L 130.585555 432.702945 
L 130.585555 430.327945 
L 126.748055 430.327945 
L 126.748055 428.710445 
z
M 127.508055 428.710445 
L 130.585555 428.710445 
L 130.585555 424.530445 
L 127.508055 428.710445 
z
" style="stroke: #ffffff; stroke-width: 3.8"/>
    <path d="M 111.560555 421.890445 
L 111.560555 430.555445 
Q 111.560555 431.530445 111.645555 431.800445 
Q 111.733055 432.070445 112.005555 432.242945 
Q 112.280555 432.412945 112.883055 432.412945 
L 113.123055 432.412945 
L 113.123055 432.702945 
L 107.545555 432.702945 
L 107.545555 432.412945 
L 107.828055 432.412945 
Q 108.508055 432.412945 108.795555 432.257945 
Q 109.085555 432.100445 109.185555 431.827945 
Q 109.288055 431.555445 109.288055 430.555445 
L 109.288055 425.062945 
Q 109.288055 424.327945 109.218055 424.145445 
Q 109.148055 423.960445 108.955555 423.832945 
Q 108.765555 423.702945 108.515555 423.702945 
Q 108.115555 423.702945 107.545555 423.952945 
L 107.405555 423.670445 
L 111.303055 421.890445 
L 111.560555 421.890445 
z
M 116.788055 422.107945 
L 121.748055 422.107945 
L 120.960555 424.125445 
L 116.788055 424.125445 
L 116.390555 425.180445 
Q 119.085555 425.280445 120.538055 426.522945 
Q 121.733055 427.545445 121.733055 429.070445 
Q 121.733055 430.045445 121.178055 430.980445 
Q 120.623055 431.912945 119.615555 432.417945 
Q 118.608055 432.922945 117.405555 432.922945 
Q 116.108055 432.922945 115.413055 432.437945 
Q 114.928055 432.092945 114.928055 431.655445 
Q 114.928055 431.320445 115.180555 431.062945 
Q 115.435555 430.805445 115.773055 430.805445 
Q 116.078055 430.805445 116.390555 430.930445 
Q 116.703055 431.055445 117.460555 431.585445 
Q 117.935555 431.912945 118.280555 432.037945 
Q 118.523055 432.132945 118.828055 432.132945 
Q 119.468055 432.132945 119.915555 431.665445 
Q 120.365555 431.195445 120.365555 430.537945 
Q 120.365555 429.162945 118.990555 428.305445 
Q 117.615555 427.445445 115.523055 427.445445 
Q 115.310555 427.445445 114.890555 427.452945 
L 116.788055 422.107945 
z
M 124.350555 430.295445 
Q 124.898055 430.295445 125.275555 430.680445 
Q 125.655555 431.062945 125.655555 431.600445 
Q 125.655555 432.140445 125.273055 432.520445 
Q 124.890555 432.897945 124.350555 432.897945 
Q 123.810555 432.897945 123.430555 432.520445 
Q 123.053055 432.140445 123.053055 431.600445 
Q 123.053055 431.062945 123.430555 430.680445 
Q 123.810555 430.295445 124.350555 430.295445 
z
M 126.748055 428.710445 
L 131.780555 421.890445 
L 132.733055 421.890445 
L 132.733055 428.710445 
L 133.703055 428.710445 
L 133.703055 430.327945 
L 132.733055 430.327945 
L 132.733055 432.702945 
L 130.585555 432.702945 
L 130.585555 430.327945 
L 126.748055 430.327945 
L 126.748055 428.710445 
z
M 127.508055 428.710445 
L 130.585555 428.710445 
L 130.585555 424.530445 
L 127.508055 428.710445 
z
"/>
   </g>
   <g id="text_23">
    <path d="M 108.718055 332.466625 
L 108.718055 332.194125 
Q 109.608055 331.934125 109.950555 331.711625 
Q 110.295555 331.489125 110.545555 331.034125 
Q 110.795555 330.576625 110.795555 330.106625 
Q 110.795555 329.459125 110.323055 328.994125 
Q 109.850555 328.529125 109.148055 328.529125 
Q 108.053055 328.529125 107.288055 329.684125 
L 106.998055 329.584125 
Q 107.560555 328.279125 108.440555 327.624125 
Q 109.320555 326.966625 110.398055 326.966625 
Q 111.498055 326.966625 112.213055 327.639125 
Q 112.928055 328.309125 112.928055 329.209125 
Q 112.928055 329.794125 112.595555 330.339125 
Q 112.265555 330.881625 111.553055 331.294125 
Q 112.468055 331.739125 112.948055 332.391625 
Q 113.428055 333.044125 113.428055 334.029125 
Q 113.428055 335.684125 112.228055 336.846625 
Q 111.030555 338.006625 109.015555 338.006625 
Q 107.670555 338.006625 107.053055 337.559125 
Q 106.608055 337.246625 106.608055 336.756625 
Q 106.608055 336.396625 106.865555 336.144125 
Q 107.123055 335.889125 107.460555 335.889125 
Q 107.718055 335.889125 107.945555 335.996625 
Q 108.070555 336.059125 108.830555 336.681625 
Q 109.593055 337.301625 110.258055 337.301625 
Q 110.835555 337.301625 111.248055 336.846625 
Q 111.663055 336.389125 111.663055 335.684125 
Q 111.663055 334.614125 110.913055 333.711625 
Q 110.163055 332.809125 108.718055 332.466625 
z
M 119.560555 326.966625 
L 119.560555 335.631625 
Q 119.560555 336.606625 119.645555 336.876625 
Q 119.733055 337.146625 120.005555 337.319125 
Q 120.280555 337.489125 120.883055 337.489125 
L 121.123055 337.489125 
L 121.123055 337.779125 
L 115.545555 337.779125 
L 115.545555 337.489125 
L 115.828055 337.489125 
Q 116.508055 337.489125 116.795555 337.334125 
Q 117.085555 337.176625 117.185555 336.904125 
Q 117.288055 336.631625 117.288055 335.631625 
L 117.288055 330.139125 
Q 117.288055 329.404125 117.218055 329.221625 
Q 117.148055 329.036625 116.955555 328.909125 
Q 116.765555 328.779125 116.515555 328.779125 
Q 116.115555 328.779125 115.545555 329.029125 
L 115.405555 328.746625 
L 119.303055 326.966625 
L 119.560555 326.966625 
z
M 124.350555 335.371625 
Q 124.898055 335.371625 125.275555 335.756625 
Q 125.655555 336.139125 125.655555 336.676625 
Q 125.655555 337.216625 125.273055 337.596625 
Q 124.890555 337.974125 124.350555 337.974125 
Q 123.810555 337.974125 123.430555 337.596625 
Q 123.053055 337.216625 123.053055 336.676625 
Q 123.053055 336.139125 123.430555 335.756625 
Q 123.810555 335.371625 124.350555 335.371625 
z
M 126.748055 333.786625 
L 131.780555 326.966625 
L 132.733055 326.966625 
L 132.733055 333.786625 
L 133.703055 333.786625 
L 133.703055 335.404125 
L 132.733055 335.404125 
L 132.733055 337.779125 
L 130.585555 337.779125 
L 130.585555 335.404125 
L 126.748055 335.404125 
L 126.748055 333.786625 
z
M 127.508055 333.786625 
L 130.585555 333.786625 
L 130.585555 329.606625 
L 127.508055 333.786625 
z
" style="stroke: #ffffff; stroke-width: 3.8"/>
    <path d="M 108.718055 332.466625 
L 108.718055 332.194125 
Q 109.608055 331.934125 109.950555 331.711625 
Q 110.295555 331.489125 110.545555 331.034125 
Q 110.795555 330.576625 110.795555 330.106625 
Q 110.795555 329.459125 110.323055 328.994125 
Q 109.850555 328.529125 109.148055 328.529125 
Q 108.053055 328.529125 107.288055 329.684125 
L 106.998055 329.584125 
Q 107.560555 328.279125 108.440555 327.624125 
Q 109.320555 326.966625 110.398055 326.966625 
Q 111.498055 326.966625 112.213055 327.639125 
Q 112.928055 328.309125 112.928055 329.209125 
Q 112.928055 329.794125 112.595555 330.339125 
Q 112.265555 330.881625 111.553055 331.294125 
Q 112.468055 331.739125 112.948055 332.391625 
Q 113.428055 333.044125 113.428055 334.029125 
Q 113.428055 335.684125 112.228055 336.846625 
Q 111.030555 338.006625 109.015555 338.006625 
Q 107.670555 338.006625 107.053055 337.559125 
Q 106.608055 337.246625 106.608055 336.756625 
Q 106.608055 336.396625 106.865555 336.144125 
Q 107.123055 335.889125 107.460555 335.889125 
Q 107.718055 335.889125 107.945555 335.996625 
Q 108.070555 336.059125 108.830555 336.681625 
Q 109.593055 337.301625 110.258055 337.301625 
Q 110.835555 337.301625 111.248055 336.846625 
Q 111.663055 336.389125 111.663055 335.684125 
Q 111.663055 334.614125 110.913055 333.711625 
Q 110.163055 332.809125 108.718055 332.466625 
z
M 119.560555 326.966625 
L 119.560555 335.631625 
Q 119.560555 336.606625 119.645555 336.876625 
Q 119.733055 337.146625 120.005555 337.319125 
Q 120.280555 337.489125 120.883055 337.489125 
L 121.123055 337.489125 
L 121.123055 337.779125 
L 115.545555 337.779125 
L 115.545555 337.489125 
L 115.828055 337.489125 
Q 116.508055 337.489125 116.795555 337.334125 
Q 117.085555 337.176625 117.185555 336.904125 
Q 117.288055 336.631625 117.288055 335.631625 
L 117.288055 330.139125 
Q 117.288055 329.404125 117.218055 329.221625 
Q 117.148055 329.036625 116.955555 328.909125 
Q 116.765555 328.779125 116.515555 328.779125 
Q 116.115555 328.779125 115.545555 329.029125 
L 115.405555 328.746625 
L 119.303055 326.966625 
L 119.560555 326.966625 
z
M 124.350555 335.371625 
Q 124.898055 335.371625 125.275555 335.756625 
Q 125.655555 336.139125 125.655555 336.676625 
Q 125.655555 337.216625 125.273055 337.596625 
Q 124.890555 337.974125 124.350555 337.974125 
Q 123.810555 337.974125 123.430555 337.596625 
Q 123.053055 337.216625 123.053055 336.676625 
Q 123.053055 336.139125 123.430555 335.756625 
Q 123.810555 335.371625 124.350555 335.371625 
z
M 126.748055 333.786625 
L 131.780555 326.966625 
L 132.733055 326.966625 
L 132.733055 333.786625 
L 133.703055 333.786625 
L 133.703055 335.404125 
L 132.733055 335.404125 
L 132.733055 337.779125 
L 130.585555 337.779125 
L 130.585555 335.404125 
L 126.748055 335.404125 
L 126.748055 333.786625 
z
M 127.508055 333.786625 
L 130.585555 333.786625 
L 130.585555 329.606625 
L 127.508055 333.786625 
z
"/>
   </g>
   <g id="text_24">
    <path d="M 106.748055 245.508263 
L 111.780555 238.688263 
L 112.733055 238.688263 
L 112.733055 245.508263 
L 113.703055 245.508263 
L 113.703055 247.125763 
L 112.733055 247.125763 
L 112.733055 249.500763 
L 110.585555 249.500763 
L 110.585555 247.125763 
L 106.748055 247.125763 
L 106.748055 245.508263 
z
M 107.508055 245.508263 
L 110.585555 245.508263 
L 110.585555 241.328263 
L 107.508055 245.508263 
z
M 119.803055 243.515763 
Q 120.920555 244.335763 121.353055 245.043263 
Q 121.788055 245.750763 121.788055 246.665763 
Q 121.788055 247.945763 120.823055 248.833263 
Q 119.858055 249.720763 118.203055 249.720763 
Q 116.633055 249.720763 115.773055 248.948263 
Q 114.913055 248.173263 114.913055 247.055763 
Q 114.913055 246.203263 115.408055 245.563263 
Q 115.905555 244.923263 117.060555 244.390763 
Q 115.803055 243.430763 115.448055 242.820763 
Q 115.093055 242.210763 115.093055 241.405763 
Q 115.093055 240.343263 115.995555 239.535763 
Q 116.898055 238.728263 118.468055 238.728263 
Q 119.983055 238.728263 120.798055 239.443263 
Q 121.615555 240.155763 121.615555 241.155763 
Q 121.615555 241.905763 121.173055 242.480763 
Q 120.733055 243.055763 119.803055 243.515763 
z
M 119.210555 243.118263 
Q 119.498055 242.728263 119.638055 242.243263 
Q 119.780555 241.758263 119.780555 241.180763 
Q 119.780555 240.165763 119.343055 239.625763 
Q 119.015555 239.210763 118.435555 239.210763 
Q 117.913055 239.210763 117.545555 239.590763 
Q 117.178055 239.968263 117.178055 240.530763 
Q 117.178055 241.103263 117.588055 241.715763 
Q 117.998055 242.328263 119.210555 243.118263 
z
M 117.648055 244.765763 
Q 117.405555 244.985763 117.303055 245.165763 
Q 117.148055 245.438263 117.023055 245.963263 
Q 116.898055 246.485763 116.898055 247.055763 
Q 116.898055 247.790763 117.085555 248.285763 
Q 117.273055 248.780763 117.620555 249.000763 
Q 117.968055 249.218263 118.335555 249.218263 
Q 118.905555 249.218263 119.295555 248.800763 
Q 119.685555 248.383263 119.685555 247.655763 
Q 119.685555 246.140763 117.648055 244.765763 
z
M 124.350555 247.093263 
Q 124.898055 247.093263 125.275555 247.478263 
Q 125.655555 247.860763 125.655555 248.398263 
Q 125.655555 248.938263 125.273055 249.318263 
Q 124.890555 249.695763 124.350555 249.695763 
Q 123.810555 249.695763 123.430555 249.318263 
Q 123.053055 248.938263 123.053055 248.398263 
Q 123.053055 247.860763 123.430555 247.478263 
Q 123.810555 247.093263 124.350555 247.093263 
z
M 126.748055 245.508263 
L 131.780555 238.688263 
L 132.733055 238.688263 
L 132.733055 245.508263 
L 133.703055 245.508263 
L 133.703055 247.125763 
L 132.733055 247.125763 
L 132.733055 249.500763 
L 130.585555 249.500763 
L 130.585555 247.125763 
L 126.748055 247.125763 
L 126.748055 245.508263 
z
M 127.508055 245.508263 
L 130.585555 245.508263 
L 130.585555 241.328263 
L 127.508055 245.508263 
z
" style="stroke: #ffffff; stroke-width: 3.8"/>
    <path d="M 106.748055 245.508263 
L 111.780555 238.688263 
L 112.733055 238.688263 
L 112.733055 245.508263 
L 113.703055 245.508263 
L 113.703055 247.125763 
L 112.733055 247.125763 
L 112.733055 249.500763 
L 110.585555 249.500763 
L 110.585555 247.125763 
L 106.748055 247.125763 
L 106.748055 245.508263 
z
M 107.508055 245.508263 
L 110.585555 245.508263 
L 110.585555 241.328263 
L 107.508055 245.508263 
z
M 119.803055 243.515763 
Q 120.920555 244.335763 121.353055 245.043263 
Q 121.788055 245.750763 121.788055 246.665763 
Q 121.788055 247.945763 120.823055 248.833263 
Q 119.858055 249.720763 118.203055 249.720763 
Q 116.633055 249.720763 115.773055 248.948263 
Q 114.913055 248.173263 114.913055 247.055763 
Q 114.913055 246.203263 115.408055 245.563263 
Q 115.905555 244.923263 117.060555 244.390763 
Q 115.803055 243.430763 115.448055 242.820763 
Q 115.093055 242.210763 115.093055 241.405763 
Q 115.093055 240.343263 115.995555 239.535763 
Q 116.898055 238.728263 118.468055 238.728263 
Q 119.983055 238.728263 120.798055 239.443263 
Q 121.615555 240.155763 121.615555 241.155763 
Q 121.615555 241.905763 121.173055 242.480763 
Q 120.733055 243.055763 119.803055 243.515763 
z
M 119.210555 243.118263 
Q 119.498055 242.728263 119.638055 242.243263 
Q 119.780555 241.758263 119.780555 241.180763 
Q 119.780555 240.165763 119.343055 239.625763 
Q 119.015555 239.210763 118.435555 239.210763 
Q 117.913055 239.210763 117.545555 239.590763 
Q 117.178055 239.968263 117.178055 240.530763 
Q 117.178055 241.103263 117.588055 241.715763 
Q 117.998055 242.328263 119.210555 243.118263 
z
M 117.648055 244.765763 
Q 117.405555 244.985763 117.303055 245.165763 
Q 117.148055 245.438263 117.023055 245.963263 
Q 116.898055 246.485763 116.898055 247.055763 
Q 116.898055 247.790763 117.085555 248.285763 
Q 117.273055 248.780763 117.620555 249.000763 
Q 117.968055 249.218263 118.335555 249.218263 
Q 118.905555 249.218263 119.295555 248.800763 
Q 119.685555 248.383263 119.685555 247.655763 
Q 119.685555 246.140763 117.648055 244.765763 
z
M 124.350555 247.093263 
Q 124.898055 247.093263 125.275555 247.478263 
Q 125.655555 247.860763 125.655555 248.398263 
Q 125.655555 248.938263 125.273055 249.318263 
Q 124.890555 249.695763 124.350555 249.695763 
Q 123.810555 249.695763 123.430555 249.318263 
Q 123.053055 248.938263 123.053055 248.398263 
Q 123.053055 247.860763 123.430555 247.478263 
Q 123.810555 247.093263 124.350555 247.093263 
z
M 126.748055 245.508263 
L 131.780555 238.688263 
L 132.733055 238.688263 
L 132.733055 245.508263 
L 133.703055 245.508263 
L 133.703055 247.125763 
L 132.733055 247.125763 
L 132.733055 249.500763 
L 130.585555 249.500763 
L 130.585555 247.125763 
L 126.748055 247.125763 
L 126.748055 245.508263 
z
M 127.508055 245.508263 
L 130.585555 245.508263 
L 130.585555 241.328263 
L 127.508055 245.508263 
z
"/>
   </g>
   <g id="text_25">
    <path d="M 362.849697 259.72966 
L 356.614697 259.72966 
L 356.614697 259.55716 
Q 359.482197 256.14466 360.094697 254.96466 
Q 360.709697 253.78466 360.709697 252.65966 
Q 360.709697 251.83966 360.202197 251.29716 
Q 359.694697 250.75216 358.959697 250.75216 
Q 357.757197 250.75216 357.092197 251.95716 
L 356.802197 251.85466 
Q 357.224697 250.35466 358.084697 249.63716 
Q 358.944697 248.91716 360.069697 248.91716 
Q 360.872197 248.91716 361.537197 249.29216 
Q 362.202197 249.66716 362.577197 250.31966 
Q 362.952197 250.97216 362.952197 251.54216 
Q 362.952197 252.58216 362.372197 253.65216 
Q 361.584697 255.09716 358.927197 257.68216 
L 361.217197 257.68216 
Q 362.059697 257.68216 362.314697 257.61216 
Q 362.569697 257.54216 362.732197 257.37466 
Q 362.897197 257.20716 363.162197 256.66716 
L 363.444697 256.66716 
L 362.849697 259.72966 
z
M 364.622197 255.73716 
L 369.654697 248.91716 
L 370.607197 248.91716 
L 370.607197 255.73716 
L 371.577197 255.73716 
L 371.577197 257.35466 
L 370.607197 257.35466 
L 370.607197 259.72966 
L 368.459697 259.72966 
L 368.459697 257.35466 
L 364.622197 257.35466 
L 364.622197 255.73716 
z
M 365.382197 255.73716 
L 368.459697 255.73716 
L 368.459697 251.55716 
L 365.382197 255.73716 
z
M 374.224697 257.32216 
Q 374.772197 257.32216 375.149697 257.70716 
Q 375.529697 258.08966 375.529697 258.62716 
Q 375.529697 259.16716 375.147197 259.54716 
Q 374.764697 259.92466 374.224697 259.92466 
Q 373.684697 259.92466 373.304697 259.54716 
Q 372.927197 259.16716 372.927197 258.62716 
Q 372.927197 258.08966 373.304697 257.70716 
Q 373.684697 257.32216 374.224697 257.32216 
z
M 383.639697 254.43216 
Q 383.639697 256.01966 383.194697 257.39466 
Q 382.927197 258.23716 382.477197 258.77716 
Q 382.029697 259.31466 381.459697 259.63216 
Q 380.889697 259.94966 380.217197 259.94966 
Q 379.452197 259.94966 378.834697 259.55966 
Q 378.217197 259.16716 377.739697 258.43966 
Q 377.397197 257.90966 377.139697 257.02716 
Q 376.802197 255.83216 376.802197 254.55716 
Q 376.802197 252.83216 377.287197 251.38466 
Q 377.684697 250.18966 378.497197 249.55466 
Q 379.309697 248.91716 380.217197 248.91716 
Q 381.139697 248.91716 381.939697 249.54716 
Q 382.739697 250.17466 383.114697 251.23716 
Q 383.639697 252.69716 383.639697 254.43216 
z
M 381.232197 254.41716 
Q 381.232197 251.63466 381.202197 251.17466 
Q 381.122197 250.08966 380.827197 249.70716 
Q 380.632197 249.45716 380.194697 249.45716 
Q 379.857197 249.45716 379.662197 249.64466 
Q 379.372197 249.91716 379.269697 250.60966 
Q 379.169697 251.29966 379.169697 255.43216 
Q 379.169697 257.68216 379.327197 258.44716 
Q 379.444697 259.00216 379.662197 259.18966 
Q 379.882197 259.37716 380.239697 259.37716 
Q 380.632197 259.37716 380.827197 259.12716 
Q 381.154697 258.68966 381.202197 257.77716 
L 381.232197 254.41716 
z
" style="stroke: #ffffff; stroke-width: 3.8"/>
    <path d="M 362.849697 259.72966 
L 356.614697 259.72966 
L 356.614697 259.55716 
Q 359.482197 256.14466 360.094697 254.96466 
Q 360.709697 253.78466 360.709697 252.65966 
Q 360.709697 251.83966 360.202197 251.29716 
Q 359.694697 250.75216 358.959697 250.75216 
Q 357.757197 250.75216 357.092197 251.95716 
L 356.802197 251.85466 
Q 357.224697 250.35466 358.084697 249.63716 
Q 358.944697 248.91716 360.069697 248.91716 
Q 360.872197 248.91716 361.537197 249.29216 
Q 362.202197 249.66716 362.577197 250.31966 
Q 362.952197 250.97216 362.952197 251.54216 
Q 362.952197 252.58216 362.372197 253.65216 
Q 361.584697 255.09716 358.927197 257.68216 
L 361.217197 257.68216 
Q 362.059697 257.68216 362.314697 257.61216 
Q 362.569697 257.54216 362.732197 257.37466 
Q 362.897197 257.20716 363.162197 256.66716 
L 363.444697 256.66716 
L 362.849697 259.72966 
z
M 364.622197 255.73716 
L 369.654697 248.91716 
L 370.607197 248.91716 
L 370.607197 255.73716 
L 371.577197 255.73716 
L 371.577197 257.35466 
L 370.607197 257.35466 
L 370.607197 259.72966 
L 368.459697 259.72966 
L 368.459697 257.35466 
L 364.622197 257.35466 
L 364.622197 255.73716 
z
M 365.382197 255.73716 
L 368.459697 255.73716 
L 368.459697 251.55716 
L 365.382197 255.73716 
z
M 374.224697 257.32216 
Q 374.772197 257.32216 375.149697 257.70716 
Q 375.529697 258.08966 375.529697 258.62716 
Q 375.529697 259.16716 375.147197 259.54716 
Q 374.764697 259.92466 374.224697 259.92466 
Q 373.684697 259.92466 373.304697 259.54716 
Q 372.927197 259.16716 372.927197 258.62716 
Q 372.927197 258.08966 373.304697 257.70716 
Q 373.684697 257.32216 374.224697 257.32216 
z
M 383.639697 254.43216 
Q 383.639697 256.01966 383.194697 257.39466 
Q 382.927197 258.23716 382.477197 258.77716 
Q 382.029697 259.31466 381.459697 259.63216 
Q 380.889697 259.94966 380.217197 259.94966 
Q 379.452197 259.94966 378.834697 259.55966 
Q 378.217197 259.16716 377.739697 258.43966 
Q 377.397197 257.90966 377.139697 257.02716 
Q 376.802197 255.83216 376.802197 254.55716 
Q 376.802197 252.83216 377.287197 251.38466 
Q 377.684697 250.18966 378.497197 249.55466 
Q 379.309697 248.91716 380.217197 248.91716 
Q 381.139697 248.91716 381.939697 249.54716 
Q 382.739697 250.17466 383.114697 251.23716 
Q 383.639697 252.69716 383.639697 254.43216 
z
M 381.232197 254.41716 
Q 381.232197 251.63466 381.202197 251.17466 
Q 381.122197 250.08966 380.827197 249.70716 
Q 380.632197 249.45716 380.194697 249.45716 
Q 379.857197 249.45716 379.662197 249.64466 
Q 379.372197 249.91716 379.269697 250.60966 
Q 379.169697 251.29966 379.169697 255.43216 
Q 379.169697 257.68216 379.327197 258.44716 
Q 379.444697 259.00216 379.662197 259.18966 
Q 379.882197 259.37716 380.239697 259.37716 
Q 380.632197 259.37716 380.827197 259.12716 
Q 381.154697 258.68966 381.202197 257.77716 
L 381.232197 254.41716 
z
"/>
   </g>
   <g id="text_26">
    <path d="M 356.622197 175.46331 
L 361.654697 168.64331 
L 362.607197 168.64331 
L 362.607197 175.46331 
L 363.577197 175.46331 
L 363.577197 177.08081 
L 362.607197 177.08081 
L 362.607197 179.45581 
L 360.459697 179.45581 
L 360.459697 177.08081 
L 356.622197 177.08081 
L 356.622197 175.46331 
z
M 357.382197 175.46331 
L 360.459697 175.46331 
L 360.459697 171.28331 
L 357.382197 175.46331 
z
M 371.739697 168.64331 
L 371.739697 168.86081 
Q 370.327197 169.22081 369.469697 169.78831 
Q 368.614697 170.35331 368.117197 171.16331 
Q 367.622197 171.97081 367.349697 173.16581 
Q 367.694697 172.93331 367.919697 172.86081 
Q 368.427197 172.70581 368.944697 172.70581 
Q 370.132197 172.70581 370.924697 173.57081 
Q 371.717197 174.43331 371.717197 175.92331 
Q 371.717197 176.97081 371.287197 177.84581 
Q 370.857197 178.72081 370.067197 179.19831 
Q 369.279697 179.67581 368.382197 179.67581 
Q 367.404697 179.67581 366.574697 179.14081 
Q 365.747197 178.60331 365.282197 177.57331 
Q 364.819697 176.54081 364.819697 175.33081 
Q 364.819697 173.54831 365.674697 172.01331 
Q 366.529697 170.47831 368.102197 169.56831 
Q 369.677197 168.65831 371.739697 168.64331 
z
M 367.247197 173.79831 
Q 367.184697 174.87831 367.184697 175.37831 
Q 367.184697 176.45581 367.392197 177.46331 
Q 367.599697 178.47081 367.959697 178.87831 
Q 368.217197 179.16581 368.569697 179.16581 
Q 368.927197 179.16581 369.207197 178.74831 
Q 369.489697 178.33081 369.489697 177.04831 
Q 369.489697 174.89331 368.967197 174.07331 
Q 368.632197 173.54081 368.059697 173.54081 
Q 367.747197 173.54081 367.247197 173.79831 
z
M 374.224697 177.04831 
Q 374.772197 177.04831 375.149697 177.43331 
Q 375.529697 177.81581 375.529697 178.35331 
Q 375.529697 178.89331 375.147197 179.27331 
Q 374.764697 179.65081 374.224697 179.65081 
Q 373.684697 179.65081 373.304697 179.27331 
Q 372.927197 178.89331 372.927197 178.35331 
Q 372.927197 177.81581 373.304697 177.43331 
Q 373.684697 177.04831 374.224697 177.04831 
z
M 383.739697 168.64331 
L 383.739697 168.86081 
Q 382.327197 169.22081 381.469697 169.78831 
Q 380.614697 170.35331 380.117197 171.16331 
Q 379.622197 171.97081 379.349697 173.16581 
Q 379.694697 172.93331 379.919697 172.86081 
Q 380.427197 172.70581 380.944697 172.70581 
Q 382.132197 172.70581 382.924697 173.57081 
Q 383.717197 174.43331 383.717197 175.92331 
Q 383.717197 176.97081 383.287197 177.84581 
Q 382.857197 178.72081 382.067197 179.19831 
Q 381.279697 179.67581 380.382197 179.67581 
Q 379.404697 179.67581 378.574697 179.14081 
Q 377.747197 178.60331 377.282197 177.57331 
Q 376.819697 176.54081 376.819697 175.33081 
Q 376.819697 173.54831 377.674697 172.01331 
Q 378.529697 170.47831 380.102197 169.56831 
Q 381.677197 168.65831 383.739697 168.64331 
z
M 379.247197 173.79831 
Q 379.184697 174.87831 379.184697 175.37831 
Q 379.184697 176.45581 379.392197 177.46331 
Q 379.599697 178.47081 379.959697 178.87831 
Q 380.217197 179.16581 380.569697 179.16581 
Q 380.927197 179.16581 381.207197 178.74831 
Q 381.489697 178.33081 381.489697 177.04831 
Q 381.489697 174.89331 380.967197 174.07331 
Q 380.632197 173.54081 380.059697 173.54081 
Q 379.747197 173.54081 379.247197 173.79831 
z
" style="stroke: #ffffff; stroke-width: 3.8"/>
    <path d="M 356.622197 175.46331 
L 361.654697 168.64331 
L 362.607197 168.64331 
L 362.607197 175.46331 
L 363.577197 175.46331 
L 363.577197 177.08081 
L 362.607197 177.08081 
L 362.607197 179.45581 
L 360.459697 179.45581 
L 360.459697 177.08081 
L 356.622197 177.08081 
L 356.622197 175.46331 
z
M 357.382197 175.46331 
L 360.459697 175.46331 
L 360.459697 171.28331 
L 357.382197 175.46331 
z
M 371.739697 168.64331 
L 371.739697 168.86081 
Q 370.327197 169.22081 369.469697 169.78831 
Q 368.614697 170.35331 368.117197 171.16331 
Q 367.622197 171.97081 367.349697 173.16581 
Q 367.694697 172.93331 367.919697 172.86081 
Q 368.427197 172.70581 368.944697 172.70581 
Q 370.132197 172.70581 370.924697 173.57081 
Q 371.717197 174.43331 371.717197 175.92331 
Q 371.717197 176.97081 371.287197 177.84581 
Q 370.857197 178.72081 370.067197 179.19831 
Q 369.279697 179.67581 368.382197 179.67581 
Q 367.404697 179.67581 366.574697 179.14081 
Q 365.747197 178.60331 365.282197 177.57331 
Q 364.819697 176.54081 364.819697 175.33081 
Q 364.819697 173.54831 365.674697 172.01331 
Q 366.529697 170.47831 368.102197 169.56831 
Q 369.677197 168.65831 371.739697 168.64331 
z
M 367.247197 173.79831 
Q 367.184697 174.87831 367.184697 175.37831 
Q 367.184697 176.45581 367.392197 177.46331 
Q 367.599697 178.47081 367.959697 178.87831 
Q 368.217197 179.16581 368.569697 179.16581 
Q 368.927197 179.16581 369.207197 178.74831 
Q 369.489697 178.33081 369.489697 177.04831 
Q 369.489697 174.89331 368.967197 174.07331 
Q 368.632197 173.54081 368.059697 173.54081 
Q 367.747197 173.54081 367.247197 173.79831 
z
M 374.224697 177.04831 
Q 374.772197 177.04831 375.149697 177.43331 
Q 375.529697 177.81581 375.529697 178.35331 
Q 375.529697 178.89331 375.147197 179.27331 
Q 374.764697 179.65081 374.224697 179.65081 
Q 373.684697 179.65081 373.304697 179.27331 
Q 372.927197 178.89331 372.927197 178.35331 
Q 372.927197 177.81581 373.304697 177.43331 
Q 373.684697 177.04831 374.224697 177.04831 
z
M 383.739697 168.64331 
L 383.739697 168.86081 
Q 382.327197 169.22081 381.469697 169.78831 
Q 380.614697 170.35331 380.117197 171.16331 
Q 379.622197 171.97081 379.349697 173.16581 
Q 379.694697 172.93331 379.919697 172.86081 
Q 380.427197 172.70581 380.944697 172.70581 
Q 382.132197 172.70581 382.924697 173.57081 
Q 383.717197 174.43331 383.717197 175.92331 
Q 383.717197 176.97081 383.287197 177.84581 
Q 382.857197 178.72081 382.067197 179.19831 
Q 381.279697 179.67581 380.382197 179.67581 
Q 379.404697 179.67581 378.574697 179.14081 
Q 377.747197 178.60331 377.282197 177.57331 
Q 376.819697 176.54081 376.819697 175.33081 
Q 376.819697 173.54831 377.674697 172.01331 
Q 378.529697 170.47831 380.102197 169.56831 
Q 381.677197 168.65831 383.739697 168.64331 
z
M 379.247197 173.79831 
Q 379.184697 174.87831 379.184697 175.37831 
Q 379.184697 176.45581 379.392197 177.46331 
Q 379.599697 178.47081 379.959697 178.87831 
Q 380.217197 179.16581 380.569697 179.16581 
Q 380.927197 179.16581 381.207197 178.74831 
Q 381.489697 178.33081 381.489697 177.04831 
Q 381.489697 174.89331 380.967197 174.07331 
Q 380.632197 173.54081 380.059697 173.54081 
Q 379.747197 173.54081 379.247197 173.79831 
z
"/>
   </g>
   <g id="text_27">
    <path d="M 359.059697 104.431178 
L 361.944697 95.688678 
L 359.747197 95.688678 
Q 358.459697 95.688678 357.809697 96.023678 
Q 357.357197 96.258678 357.059697 96.906178 
L 356.764697 96.906178 
L 357.529697 93.616178 
L 363.842197 93.616178 
L 360.287197 104.431178 
L 359.059697 104.431178 
z
M 370.849697 104.211178 
L 364.614697 104.211178 
L 364.614697 104.038678 
Q 367.482197 100.626178 368.094697 99.446178 
Q 368.709697 98.266178 368.709697 97.141178 
Q 368.709697 96.321178 368.202197 95.778678 
Q 367.694697 95.233678 366.959697 95.233678 
Q 365.757197 95.233678 365.092197 96.438678 
L 364.802197 96.336178 
Q 365.224697 94.836178 366.084697 94.118678 
Q 366.944697 93.398678 368.069697 93.398678 
Q 368.872197 93.398678 369.537197 93.773678 
Q 370.202197 94.148678 370.577197 94.801178 
Q 370.952197 95.453678 370.952197 96.023678 
Q 370.952197 97.063678 370.372197 98.133678 
Q 369.584697 99.578678 366.927197 102.163678 
L 369.217197 102.163678 
Q 370.059697 102.163678 370.314697 102.093678 
Q 370.569697 102.023678 370.732197 101.856178 
Q 370.897197 101.688678 371.162197 101.148678 
L 371.444697 101.148678 
L 370.849697 104.211178 
z
M 374.224697 101.803678 
Q 374.772197 101.803678 375.149697 102.188678 
Q 375.529697 102.571178 375.529697 103.108678 
Q 375.529697 103.648678 375.147197 104.028678 
Q 374.764697 104.406178 374.224697 104.406178 
Q 373.684697 104.406178 373.304697 104.028678 
Q 372.927197 103.648678 372.927197 103.108678 
Q 372.927197 102.571178 373.304697 102.188678 
Q 373.684697 101.803678 374.224697 101.803678 
z
M 376.622197 100.218678 
L 381.654697 93.398678 
L 382.607197 93.398678 
L 382.607197 100.218678 
L 383.577197 100.218678 
L 383.577197 101.836178 
L 382.607197 101.836178 
L 382.607197 104.211178 
L 380.459697 104.211178 
L 380.459697 101.836178 
L 376.622197 101.836178 
L 376.622197 100.218678 
z
M 377.382197 100.218678 
L 380.459697 100.218678 
L 380.459697 96.038678 
L 377.382197 100.218678 
z
" style="stroke: #ffffff; stroke-width: 3.8"/>
    <path d="M 359.059697 104.431178 
L 361.944697 95.688678 
L 359.747197 95.688678 
Q 358.459697 95.688678 357.809697 96.023678 
Q 357.357197 96.258678 357.059697 96.906178 
L 356.764697 96.906178 
L 357.529697 93.616178 
L 363.842197 93.616178 
L 360.287197 104.431178 
L 359.059697 104.431178 
z
M 370.849697 104.211178 
L 364.614697 104.211178 
L 364.614697 104.038678 
Q 367.482197 100.626178 368.094697 99.446178 
Q 368.709697 98.266178 368.709697 97.141178 
Q 368.709697 96.321178 368.202197 95.778678 
Q 367.694697 95.233678 366.959697 95.233678 
Q 365.757197 95.233678 365.092197 96.438678 
L 364.802197 96.336178 
Q 365.224697 94.836178 366.084697 94.118678 
Q 366.944697 93.398678 368.069697 93.398678 
Q 368.872197 93.398678 369.537197 93.773678 
Q 370.202197 94.148678 370.577197 94.801178 
Q 370.952197 95.453678 370.952197 96.023678 
Q 370.952197 97.063678 370.372197 98.133678 
Q 369.584697 99.578678 366.927197 102.163678 
L 369.217197 102.163678 
Q 370.059697 102.163678 370.314697 102.093678 
Q 370.569697 102.023678 370.732197 101.856178 
Q 370.897197 101.688678 371.162197 101.148678 
L 371.444697 101.148678 
L 370.849697 104.211178 
z
M 374.224697 101.803678 
Q 374.772197 101.803678 375.149697 102.188678 
Q 375.529697 102.571178 375.529697 103.108678 
Q 375.529697 103.648678 375.147197 104.028678 
Q 374.764697 104.406178 374.224697 104.406178 
Q 373.684697 104.406178 373.304697 104.028678 
Q 372.927197 103.648678 372.927197 103.108678 
Q 372.927197 102.571178 373.304697 102.188678 
Q 373.684697 101.803678 374.224697 101.803678 
z
M 376.622197 100.218678 
L 381.654697 93.398678 
L 382.607197 93.398678 
L 382.607197 100.218678 
L 383.577197 100.218678 
L 383.577197 101.836178 
L 382.607197 101.836178 
L 382.607197 104.211178 
L 380.459697 104.211178 
L 380.459697 101.836178 
L 376.622197 101.836178 
L 376.622197 100.218678 
z
M 377.382197 100.218678 
L 380.459697 100.218678 
L 380.459697 96.038678 
L 377.382197 100.218678 
z
"/>
   </g>
   <g id="text_28">
    <path d="M 574.521172 221.103513 
L 574.521172 220.831013 
Q 575.411172 220.571013 575.753672 220.348513 
Q 576.098672 220.126013 576.348672 219.671013 
Q 576.598672 219.213513 576.598672 218.743513 
Q 576.598672 218.096013 576.126172 217.631013 
Q 575.653672 217.166013 574.951172 217.166013 
Q 573.856172 217.166013 573.091172 218.321013 
L 572.801172 218.221013 
Q 573.363672 216.916013 574.243672 216.261013 
Q 575.123672 215.603513 576.201172 215.603513 
Q 577.301172 215.603513 578.016172 216.276013 
Q 578.731172 216.946013 578.731172 217.846013 
Q 578.731172 218.431013 578.398672 218.976013 
Q 578.068672 219.518513 577.356172 219.931013 
Q 578.271172 220.376013 578.751172 221.028513 
Q 579.231172 221.681013 579.231172 222.666013 
Q 579.231172 224.321013 578.031172 225.483513 
Q 576.833672 226.643513 574.818672 226.643513 
Q 573.473672 226.643513 572.856172 226.196013 
Q 572.411172 225.883513 572.411172 225.393513 
Q 572.411172 225.033513 572.668672 224.781013 
Q 572.926172 224.526013 573.263672 224.526013 
Q 573.521172 224.526013 573.748672 224.633513 
Q 573.873672 224.696013 574.633672 225.318513 
Q 575.396172 225.938513 576.061172 225.938513 
Q 576.638672 225.938513 577.051172 225.483513 
Q 577.466172 225.026013 577.466172 224.321013 
Q 577.466172 223.251013 576.716172 222.348513 
Q 575.966172 221.446013 574.521172 221.103513 
z
M 582.988672 226.636013 
L 585.873672 217.893513 
L 583.676172 217.893513 
Q 582.388672 217.893513 581.738672 218.228513 
Q 581.286172 218.463513 580.988672 219.111013 
L 580.693672 219.111013 
L 581.458672 215.821013 
L 587.771172 215.821013 
L 584.216172 226.636013 
L 582.988672 226.636013 
z
M 590.153672 224.008513 
Q 590.701172 224.008513 591.078672 224.393513 
Q 591.458672 224.776013 591.458672 225.313513 
Q 591.458672 225.853513 591.076172 226.233513 
Q 590.693672 226.611013 590.153672 226.611013 
Q 589.613672 226.611013 589.233672 226.233513 
Q 588.856172 225.853513 588.856172 225.313513 
Q 588.856172 224.776013 589.233672 224.393513 
Q 589.613672 224.008513 590.153672 224.008513 
z
M 598.778672 226.416013 
L 592.543672 226.416013 
L 592.543672 226.243513 
Q 595.411172 222.831013 596.023672 221.651013 
Q 596.638672 220.471013 596.638672 219.346013 
Q 596.638672 218.526013 596.131172 217.983513 
Q 595.623672 217.438513 594.888672 217.438513 
Q 593.686172 217.438513 593.021172 218.643513 
L 592.731172 218.541013 
Q 593.153672 217.041013 594.013672 216.323513 
Q 594.873672 215.603513 595.998672 215.603513 
Q 596.801172 215.603513 597.466172 215.978513 
Q 598.131172 216.353513 598.506172 217.006013 
Q 598.881172 217.658513 598.881172 218.228513 
Q 598.881172 219.268513 598.301172 220.338513 
Q 597.513672 221.783513 594.856172 224.368513 
L 597.146172 224.368513 
Q 597.988672 224.368513 598.243672 224.298513 
Q 598.498672 224.228513 598.661172 224.061013 
Q 598.826172 223.893513 599.091172 223.353513 
L 599.373672 223.353513 
L 598.778672 226.416013 
z
" style="stroke: #ffffff; stroke-width: 3.8"/>
    <path d="M 574.521172 221.103513 
L 574.521172 220.831013 
Q 575.411172 220.571013 575.753672 220.348513 
Q 576.098672 220.126013 576.348672 219.671013 
Q 576.598672 219.213513 576.598672 218.743513 
Q 576.598672 218.096013 576.126172 217.631013 
Q 575.653672 217.166013 574.951172 217.166013 
Q 573.856172 217.166013 573.091172 218.321013 
L 572.801172 218.221013 
Q 573.363672 216.916013 574.243672 216.261013 
Q 575.123672 215.603513 576.201172 215.603513 
Q 577.301172 215.603513 578.016172 216.276013 
Q 578.731172 216.946013 578.731172 217.846013 
Q 578.731172 218.431013 578.398672 218.976013 
Q 578.068672 219.518513 577.356172 219.931013 
Q 578.271172 220.376013 578.751172 221.028513 
Q 579.231172 221.681013 579.231172 222.666013 
Q 579.231172 224.321013 578.031172 225.483513 
Q 576.833672 226.643513 574.818672 226.643513 
Q 573.473672 226.643513 572.856172 226.196013 
Q 572.411172 225.883513 572.411172 225.393513 
Q 572.411172 225.033513 572.668672 224.781013 
Q 572.926172 224.526013 573.263672 224.526013 
Q 573.521172 224.526013 573.748672 224.633513 
Q 573.873672 224.696013 574.633672 225.318513 
Q 575.396172 225.938513 576.061172 225.938513 
Q 576.638672 225.938513 577.051172 225.483513 
Q 577.466172 225.026013 577.466172 224.321013 
Q 577.466172 223.251013 576.716172 222.348513 
Q 575.966172 221.446013 574.521172 221.103513 
z
M 582.988672 226.636013 
L 585.873672 217.893513 
L 583.676172 217.893513 
Q 582.388672 217.893513 581.738672 218.228513 
Q 581.286172 218.463513 580.988672 219.111013 
L 580.693672 219.111013 
L 581.458672 215.821013 
L 587.771172 215.821013 
L 584.216172 226.636013 
L 582.988672 226.636013 
z
M 590.153672 224.008513 
Q 590.701172 224.008513 591.078672 224.393513 
Q 591.458672 224.776013 591.458672 225.313513 
Q 591.458672 225.853513 591.076172 226.233513 
Q 590.693672 226.611013 590.153672 226.611013 
Q 589.613672 226.611013 589.233672 226.233513 
Q 588.856172 225.853513 588.856172 225.313513 
Q 588.856172 224.776013 589.233672 224.393513 
Q 589.613672 224.008513 590.153672 224.008513 
z
M 598.778672 226.416013 
L 592.543672 226.416013 
L 592.543672 226.243513 
Q 595.411172 222.831013 596.023672 221.651013 
Q 596.638672 220.471013 596.638672 219.346013 
Q 596.638672 218.526013 596.131172 217.983513 
Q 595.623672 217.438513 594.888672 217.438513 
Q 593.686172 217.438513 593.021172 218.643513 
L 592.731172 218.541013 
Q 593.153672 217.041013 594.013672 216.323513 
Q 594.873672 215.603513 595.998672 215.603513 
Q 596.801172 215.603513 597.466172 215.978513 
Q 598.131172 216.353513 598.506172 217.006013 
Q 598.881172 217.658513 598.881172 218.228513 
Q 598.881172 219.268513 598.301172 220.338513 
Q 597.513672 221.783513 594.856172 224.368513 
L 597.146172 224.368513 
Q 597.988672 224.368513 598.243672 224.298513 
Q 598.498672 224.228513 598.661172 224.061013 
Q 598.826172 223.893513 599.091172 223.353513 
L 599.373672 223.353513 
L 598.778672 226.416013 
z
"/>
   </g>
   <g id="text_29">
    <path d="M 579.128959 375.814682 
Q 579.128959 377.302963 578.711772 378.592026 
Q 578.460991 379.381869 578.039116 379.888119 
Q 577.619584 380.392026 577.085209 380.689682 
Q 576.550834 380.987338 575.920366 380.987338 
Q 575.203178 380.987338 574.624272 380.621713 
Q 574.045366 380.253744 573.597709 379.571713 
Q 573.276616 379.074838 573.035209 378.247494 
Q 572.718803 377.127182 572.718803 375.931869 
Q 572.718803 374.314682 573.173491 372.957651 
Q 573.546147 371.837338 574.307866 371.242026 
Q 575.069584 370.644369 575.920366 370.644369 
Q 576.785209 370.644369 577.535209 371.234994 
Q 578.285209 371.823276 578.636772 372.819369 
Q 579.128959 374.188119 579.128959 375.814682 
z
M 576.871928 375.800619 
Q 576.871928 373.192026 576.843803 372.760776 
Q 576.768803 371.743588 576.492241 371.384994 
Q 576.309428 371.150619 575.899272 371.150619 
Q 575.582866 371.150619 575.400053 371.326401 
Q 575.128178 371.581869 575.032084 372.231088 
Q 574.938334 372.877963 574.938334 376.752182 
Q 574.938334 378.861557 575.085991 379.578744 
Q 575.196147 380.099057 575.400053 380.274838 
Q 575.606303 380.450619 575.941459 380.450619 
Q 576.309428 380.450619 576.492241 380.216244 
Q 576.799272 379.806088 576.843803 378.950619 
L 576.871928 375.800619 
z
M 581.552397 378.524057 
Q 582.065678 378.524057 582.419584 378.884994 
Q 582.775834 379.243588 582.775834 379.747494 
Q 582.775834 380.253744 582.417241 380.609994 
Q 582.058647 380.963901 581.552397 380.963901 
Q 581.046147 380.963901 580.689897 380.609994 
Q 580.335991 380.253744 580.335991 379.747494 
Q 580.335991 379.243588 580.689897 378.884994 
Q 581.046147 378.524057 581.552397 378.524057 
z
M 590.378959 375.814682 
Q 590.378959 377.302963 589.961772 378.592026 
Q 589.710991 379.381869 589.289116 379.888119 
Q 588.869584 380.392026 588.335209 380.689682 
Q 587.800834 380.987338 587.170366 380.987338 
Q 586.453178 380.987338 585.874272 380.621713 
Q 585.295366 380.253744 584.847709 379.571713 
Q 584.526616 379.074838 584.285209 378.247494 
Q 583.968803 377.127182 583.968803 375.931869 
Q 583.968803 374.314682 584.423491 372.957651 
Q 584.796147 371.837338 585.557866 371.242026 
Q 586.319584 370.644369 587.170366 370.644369 
Q 588.035209 370.644369 588.785209 371.234994 
Q 589.535209 371.823276 589.886772 372.819369 
Q 590.378959 374.188119 590.378959 375.814682 
z
M 588.121928 375.800619 
Q 588.121928 373.192026 588.093803 372.760776 
Q 588.018803 371.743588 587.742241 371.384994 
Q 587.559428 371.150619 587.149272 371.150619 
Q 586.832866 371.150619 586.650053 371.326401 
Q 586.378178 371.581869 586.282084 372.231088 
Q 586.188334 372.877963 586.188334 376.752182 
Q 586.188334 378.861557 586.335991 379.578744 
Q 586.446147 380.099057 586.650053 380.274838 
Q 586.856303 380.450619 587.191459 380.450619 
Q 587.559428 380.450619 587.742241 380.216244 
Q 588.049272 379.806088 588.093803 378.950619 
L 588.121928 375.800619 
z
" style="fill: #404040; stroke: #ffffff; stroke-width: 3.8"/>
    <path d="M 579.128959 375.814682 
Q 579.128959 377.302963 578.711772 378.592026 
Q 578.460991 379.381869 578.039116 379.888119 
Q 577.619584 380.392026 577.085209 380.689682 
Q 576.550834 380.987338 575.920366 380.987338 
Q 575.203178 380.987338 574.624272 380.621713 
Q 574.045366 380.253744 573.597709 379.571713 
Q 573.276616 379.074838 573.035209 378.247494 
Q 572.718803 377.127182 572.718803 375.931869 
Q 572.718803 374.314682 573.173491 372.957651 
Q 573.546147 371.837338 574.307866 371.242026 
Q 575.069584 370.644369 575.920366 370.644369 
Q 576.785209 370.644369 577.535209 371.234994 
Q 578.285209 371.823276 578.636772 372.819369 
Q 579.128959 374.188119 579.128959 375.814682 
z
M 576.871928 375.800619 
Q 576.871928 373.192026 576.843803 372.760776 
Q 576.768803 371.743588 576.492241 371.384994 
Q 576.309428 371.150619 575.899272 371.150619 
Q 575.582866 371.150619 575.400053 371.326401 
Q 575.128178 371.581869 575.032084 372.231088 
Q 574.938334 372.877963 574.938334 376.752182 
Q 574.938334 378.861557 575.085991 379.578744 
Q 575.196147 380.099057 575.400053 380.274838 
Q 575.606303 380.450619 575.941459 380.450619 
Q 576.309428 380.450619 576.492241 380.216244 
Q 576.799272 379.806088 576.843803 378.950619 
L 576.871928 375.800619 
z
M 581.552397 378.524057 
Q 582.065678 378.524057 582.419584 378.884994 
Q 582.775834 379.243588 582.775834 379.747494 
Q 582.775834 380.253744 582.417241 380.609994 
Q 582.058647 380.963901 581.552397 380.963901 
Q 581.046147 380.963901 580.689897 380.609994 
Q 580.335991 380.253744 580.335991 379.747494 
Q 580.335991 379.243588 580.689897 378.884994 
Q 581.046147 378.524057 581.552397 378.524057 
z
M 590.378959 375.814682 
Q 590.378959 377.302963 589.961772 378.592026 
Q 589.710991 379.381869 589.289116 379.888119 
Q 588.869584 380.392026 588.335209 380.689682 
Q 587.800834 380.987338 587.170366 380.987338 
Q 586.453178 380.987338 585.874272 380.621713 
Q 585.295366 380.253744 584.847709 379.571713 
Q 584.526616 379.074838 584.285209 378.247494 
Q 583.968803 377.127182 583.968803 375.931869 
Q 583.968803 374.314682 584.423491 372.957651 
Q 584.796147 371.837338 585.557866 371.242026 
Q 586.319584 370.644369 587.170366 370.644369 
Q 588.035209 370.644369 588.785209 371.234994 
Q 589.535209 371.823276 589.886772 372.819369 
Q 590.378959 374.188119 590.378959 375.814682 
z
M 588.121928 375.800619 
Q 588.121928 373.192026 588.093803 372.760776 
Q 588.018803 371.743588 587.742241 371.384994 
Q 587.559428 371.150619 587.149272 371.150619 
Q 586.832866 371.150619 586.650053 371.326401 
Q 586.378178 371.581869 586.282084 372.231088 
Q 586.188334 372.877963 586.188334 376.752182 
Q 586.188334 378.861557 586.335991 379.578744 
Q 586.446147 380.099057 586.650053 380.274838 
Q 586.856303 380.450619 587.191459 380.450619 
Q 587.559428 380.450619 587.742241 380.216244 
Q 588.049272 379.806088 588.093803 378.950619 
L 588.121928 375.800619 
z
" style="fill: #404040"/>
   </g>
   <g id="text_30">
    <path d="M 568.961768 330.931864 
L 563.116455 330.931864 
L 563.116455 330.770145 
Q 565.804736 327.570927 566.378955 326.464677 
Q 566.955518 325.358427 566.955518 324.303739 
Q 566.955518 323.534989 566.479736 323.026395 
Q 566.003955 322.515458 565.314893 322.515458 
Q 564.187549 322.515458 563.564111 323.645145 
L 563.292236 323.549052 
Q 563.68833 322.142802 564.49458 321.470145 
Q 565.30083 320.795145 566.355518 320.795145 
Q 567.107861 320.795145 567.731299 321.146708 
Q 568.354736 321.49827 568.706299 322.109989 
Q 569.057861 322.721708 569.057861 323.256083 
Q 569.057861 324.231083 568.514111 325.234208 
Q 567.77583 326.588895 565.284424 329.012333 
L 567.431299 329.012333 
Q 568.221143 329.012333 568.460205 328.946708 
Q 568.699268 328.881083 568.851611 328.724052 
Q 569.006299 328.56702 569.254736 328.06077 
L 569.51958 328.06077 
L 568.961768 330.931864 
z
M 572.908643 331.138114 
L 575.61333 322.94202 
L 573.553174 322.94202 
Q 572.346143 322.94202 571.736768 323.256083 
Q 571.312549 323.476395 571.033643 324.083427 
L 570.75708 324.083427 
L 571.474268 320.999052 
L 577.392236 320.999052 
L 574.059424 331.138114 
L 572.908643 331.138114 
z
M 579.62583 328.674833 
Q 580.139111 328.674833 580.493018 329.03577 
Q 580.849268 329.394364 580.849268 329.89827 
Q 580.849268 330.40452 580.490674 330.76077 
Q 580.13208 331.114677 579.62583 331.114677 
Q 579.11958 331.114677 578.76333 330.76077 
Q 578.409424 330.40452 578.409424 329.89827 
Q 578.409424 329.394364 578.76333 329.03577 
Q 579.11958 328.674833 579.62583 328.674833 
z
M 583.785986 320.999052 
L 588.435986 320.999052 
L 587.697705 322.890458 
L 583.785986 322.890458 
L 583.41333 323.87952 
Q 585.939893 323.97327 587.301611 325.138114 
Q 588.421924 326.096708 588.421924 327.526395 
Q 588.421924 328.440458 587.901611 329.31702 
Q 587.381299 330.191239 586.436768 330.664677 
Q 585.492236 331.138114 584.364893 331.138114 
Q 583.148486 331.138114 582.496924 330.683427 
Q 582.042236 330.359989 582.042236 329.949833 
Q 582.042236 329.63577 582.278955 329.394364 
Q 582.518018 329.152958 582.834424 329.152958 
Q 583.120361 329.152958 583.41333 329.270145 
Q 583.706299 329.387333 584.416455 329.884208 
Q 584.861768 330.191239 585.185205 330.308427 
Q 585.412549 330.397489 585.698486 330.397489 
Q 586.298486 330.397489 586.718018 329.959208 
Q 587.139893 329.518583 587.139893 328.902177 
Q 587.139893 327.613114 585.85083 326.809208 
Q 584.561768 326.002958 582.600049 326.002958 
Q 582.40083 326.002958 582.00708 326.009989 
L 583.785986 320.999052 
z
" style="fill: #404040; stroke: #ffffff; stroke-width: 3.8"/>
    <path d="M 568.961768 330.931864 
L 563.116455 330.931864 
L 563.116455 330.770145 
Q 565.804736 327.570927 566.378955 326.464677 
Q 566.955518 325.358427 566.955518 324.303739 
Q 566.955518 323.534989 566.479736 323.026395 
Q 566.003955 322.515458 565.314893 322.515458 
Q 564.187549 322.515458 563.564111 323.645145 
L 563.292236 323.549052 
Q 563.68833 322.142802 564.49458 321.470145 
Q 565.30083 320.795145 566.355518 320.795145 
Q 567.107861 320.795145 567.731299 321.146708 
Q 568.354736 321.49827 568.706299 322.109989 
Q 569.057861 322.721708 569.057861 323.256083 
Q 569.057861 324.231083 568.514111 325.234208 
Q 567.77583 326.588895 565.284424 329.012333 
L 567.431299 329.012333 
Q 568.221143 329.012333 568.460205 328.946708 
Q 568.699268 328.881083 568.851611 328.724052 
Q 569.006299 328.56702 569.254736 328.06077 
L 569.51958 328.06077 
L 568.961768 330.931864 
z
M 572.908643 331.138114 
L 575.61333 322.94202 
L 573.553174 322.94202 
Q 572.346143 322.94202 571.736768 323.256083 
Q 571.312549 323.476395 571.033643 324.083427 
L 570.75708 324.083427 
L 571.474268 320.999052 
L 577.392236 320.999052 
L 574.059424 331.138114 
L 572.908643 331.138114 
z
M 579.62583 328.674833 
Q 580.139111 328.674833 580.493018 329.03577 
Q 580.849268 329.394364 580.849268 329.89827 
Q 580.849268 330.40452 580.490674 330.76077 
Q 580.13208 331.114677 579.62583 331.114677 
Q 579.11958 331.114677 578.76333 330.76077 
Q 578.409424 330.40452 578.409424 329.89827 
Q 578.409424 329.394364 578.76333 329.03577 
Q 579.11958 328.674833 579.62583 328.674833 
z
M 583.785986 320.999052 
L 588.435986 320.999052 
L 587.697705 322.890458 
L 583.785986 322.890458 
L 583.41333 323.87952 
Q 585.939893 323.97327 587.301611 325.138114 
Q 588.421924 326.096708 588.421924 327.526395 
Q 588.421924 328.440458 587.901611 329.31702 
Q 587.381299 330.191239 586.436768 330.664677 
Q 585.492236 331.138114 584.364893 331.138114 
Q 583.148486 331.138114 582.496924 330.683427 
Q 582.042236 330.359989 582.042236 329.949833 
Q 582.042236 329.63577 582.278955 329.394364 
Q 582.518018 329.152958 582.834424 329.152958 
Q 583.120361 329.152958 583.41333 329.270145 
Q 583.706299 329.387333 584.416455 329.884208 
Q 584.861768 330.191239 585.185205 330.308427 
Q 585.412549 330.397489 585.698486 330.397489 
Q 586.298486 330.397489 586.718018 329.959208 
Q 587.139893 329.518583 587.139893 328.902177 
Q 587.139893 327.613114 585.85083 326.809208 
Q 584.561768 326.002958 582.600049 326.002958 
Q 582.40083 326.002958 582.00708 326.009989 
L 583.785986 320.999052 
z
" style="fill: #404040"/>
   </g>
   <g id="text_31">
    <path d="M 534.988443 272.009501 
L 534.988443 280.132939 
Q 534.988443 281.047001 535.068131 281.300126 
Q 535.150162 281.553251 535.405631 281.71497 
Q 535.663443 281.874345 536.228287 281.874345 
L 536.453287 281.874345 
L 536.453287 282.14622 
L 531.224381 282.14622 
L 531.224381 281.874345 
L 531.489225 281.874345 
Q 532.126725 281.874345 532.396256 281.729033 
Q 532.668131 281.581376 532.761881 281.325908 
Q 532.857975 281.070439 532.857975 280.132939 
L 532.857975 274.98372 
Q 532.857975 274.294658 532.79235 274.123564 
Q 532.726725 273.950126 532.546256 273.830595 
Q 532.368131 273.70872 532.133756 273.70872 
Q 531.758756 273.70872 531.224381 273.943095 
L 531.093131 273.678251 
L 534.747037 272.009501 
L 534.988443 272.009501 
z
M 539.479068 279.889189 
Q 539.99235 279.889189 540.346256 280.250126 
Q 540.702506 280.60872 540.702506 281.112626 
Q 540.702506 281.618876 540.343912 281.975126 
Q 539.985318 282.329033 539.479068 282.329033 
Q 538.972818 282.329033 538.616568 281.975126 
Q 538.262662 281.618876 538.262662 281.112626 
Q 538.262662 280.60872 538.616568 280.250126 
Q 538.972818 279.889189 539.479068 279.889189 
z
M 541.815787 282.35247 
L 541.815787 282.14622 
Q 543.032193 281.867314 543.878287 281.325908 
Q 544.724381 280.784501 545.216568 279.985283 
Q 545.7111 279.186064 545.910318 278.147783 
Q 545.455631 278.382158 545.136881 278.473564 
Q 544.818131 278.56497 544.466568 278.56497 
Q 543.339225 278.56497 542.586881 277.751689 
Q 541.836881 276.938408 541.836881 275.525126 
Q 541.836881 274.543095 542.24235 273.72747 
Q 542.650162 272.909501 543.40485 272.459501 
Q 544.159537 272.009501 544.972818 272.009501 
Q 545.844693 272.009501 546.620475 272.50872 
Q 547.396256 273.005595 547.857975 273.950126 
Q 548.319693 274.894658 548.319693 276.104033 
Q 548.319693 277.672001 547.56735 279.10872 
Q 546.81735 280.543095 545.331412 281.410283 
Q 543.845475 282.27747 541.815787 282.35247 
z
M 546.020475 277.531376 
Q 546.093131 276.711064 546.093131 276.08997 
Q 546.093131 274.756376 545.7861 273.605595 
Q 545.610318 272.968095 545.265787 272.668095 
Q 545.082975 272.506376 544.790006 272.506376 
Q 544.422037 272.506376 544.218131 272.822783 
Q 543.932193 273.254033 543.932193 274.470439 
Q 543.932193 276.500126 544.415006 277.268876 
Q 544.731412 277.765751 545.265787 277.765751 
Q 545.551725 277.765751 546.020475 277.531376 
z
" style="fill: #404040; stroke: #ffffff; stroke-width: 3.8"/>
    <path d="M 534.988443 272.009501 
L 534.988443 280.132939 
Q 534.988443 281.047001 535.068131 281.300126 
Q 535.150162 281.553251 535.405631 281.71497 
Q 535.663443 281.874345 536.228287 281.874345 
L 536.453287 281.874345 
L 536.453287 282.14622 
L 531.224381 282.14622 
L 531.224381 281.874345 
L 531.489225 281.874345 
Q 532.126725 281.874345 532.396256 281.729033 
Q 532.668131 281.581376 532.761881 281.325908 
Q 532.857975 281.070439 532.857975 280.132939 
L 532.857975 274.98372 
Q 532.857975 274.294658 532.79235 274.123564 
Q 532.726725 273.950126 532.546256 273.830595 
Q 532.368131 273.70872 532.133756 273.70872 
Q 531.758756 273.70872 531.224381 273.943095 
L 531.093131 273.678251 
L 534.747037 272.009501 
L 534.988443 272.009501 
z
M 539.479068 279.889189 
Q 539.99235 279.889189 540.346256 280.250126 
Q 540.702506 280.60872 540.702506 281.112626 
Q 540.702506 281.618876 540.343912 281.975126 
Q 539.985318 282.329033 539.479068 282.329033 
Q 538.972818 282.329033 538.616568 281.975126 
Q 538.262662 281.618876 538.262662 281.112626 
Q 538.262662 280.60872 538.616568 280.250126 
Q 538.972818 279.889189 539.479068 279.889189 
z
M 541.815787 282.35247 
L 541.815787 282.14622 
Q 543.032193 281.867314 543.878287 281.325908 
Q 544.724381 280.784501 545.216568 279.985283 
Q 545.7111 279.186064 545.910318 278.147783 
Q 545.455631 278.382158 545.136881 278.473564 
Q 544.818131 278.56497 544.466568 278.56497 
Q 543.339225 278.56497 542.586881 277.751689 
Q 541.836881 276.938408 541.836881 275.525126 
Q 541.836881 274.543095 542.24235 273.72747 
Q 542.650162 272.909501 543.40485 272.459501 
Q 544.159537 272.009501 544.972818 272.009501 
Q 545.844693 272.009501 546.620475 272.50872 
Q 547.396256 273.005595 547.857975 273.950126 
Q 548.319693 274.894658 548.319693 276.104033 
Q 548.319693 277.672001 547.56735 279.10872 
Q 546.81735 280.543095 545.331412 281.410283 
Q 543.845475 282.27747 541.815787 282.35247 
z
M 546.020475 277.531376 
Q 546.093131 276.711064 546.093131 276.08997 
Q 546.093131 274.756376 545.7861 273.605595 
Q 545.610318 272.968095 545.265787 272.668095 
Q 545.082975 272.506376 544.790006 272.506376 
Q 544.422037 272.506376 544.218131 272.822783 
Q 543.932193 273.254033 543.932193 274.470439 
Q 543.932193 276.500126 544.415006 277.268876 
Q 544.731412 277.765751 545.265787 277.765751 
Q 545.551725 277.765751 546.020475 277.531376 
z
" style="fill: #404040"/>
   </g>
   <g id="text_32">
    <path d="M 321.790961 340.845542 
L 321.790961 340.590073 
Q 322.625336 340.346323 322.946429 340.137729 
Q 323.269867 339.929136 323.504242 339.502573 
Q 323.738617 339.073667 323.738617 338.633042 
Q 323.738617 338.026011 323.295648 337.590073 
Q 322.852679 337.154136 322.194086 337.154136 
Q 321.167523 337.154136 320.450336 338.236948 
L 320.178461 338.143198 
Q 320.705804 336.919761 321.530804 336.305698 
Q 322.355804 335.689292 323.365961 335.689292 
Q 324.397211 335.689292 325.067523 336.319761 
Q 325.737836 336.947886 325.737836 337.791636 
Q 325.737836 338.340073 325.426117 338.851011 
Q 325.116742 339.359604 324.448773 339.746323 
Q 325.306586 340.163511 325.756586 340.775229 
Q 326.206586 341.386948 326.206586 342.310386 
Q 326.206586 343.861948 325.081586 344.951792 
Q 323.958929 346.039292 322.069867 346.039292 
Q 320.808929 346.039292 320.230023 345.619761 
Q 319.812836 345.326792 319.812836 344.867417 
Q 319.812836 344.529917 320.054242 344.293198 
Q 320.295648 344.054136 320.612054 344.054136 
Q 320.853461 344.054136 321.066742 344.154917 
Q 321.183929 344.213511 321.896429 344.797104 
Q 322.611273 345.378354 323.234711 345.378354 
Q 323.776117 345.378354 324.162836 344.951792 
Q 324.551898 344.522886 324.551898 343.861948 
Q 324.551898 342.858823 323.848773 342.012729 
Q 323.145648 341.166636 321.790961 340.845542 
z
M 329.290961 340.845542 
L 329.290961 340.590073 
Q 330.125336 340.346323 330.446429 340.137729 
Q 330.769867 339.929136 331.004242 339.502573 
Q 331.238617 339.073667 331.238617 338.633042 
Q 331.238617 338.026011 330.795648 337.590073 
Q 330.352679 337.154136 329.694086 337.154136 
Q 328.667523 337.154136 327.950336 338.236948 
L 327.678461 338.143198 
Q 328.205804 336.919761 329.030804 336.305698 
Q 329.855804 335.689292 330.865961 335.689292 
Q 331.897211 335.689292 332.567523 336.319761 
Q 333.237836 336.947886 333.237836 337.791636 
Q 333.237836 338.340073 332.926117 338.851011 
Q 332.616742 339.359604 331.948773 339.746323 
Q 332.806586 340.163511 333.256586 340.775229 
Q 333.706586 341.386948 333.706586 342.310386 
Q 333.706586 343.861948 332.581586 344.951792 
Q 331.458929 346.039292 329.569867 346.039292 
Q 328.308929 346.039292 327.730023 345.619761 
Q 327.312836 345.326792 327.312836 344.867417 
Q 327.312836 344.529917 327.554242 344.293198 
Q 327.795648 344.054136 328.112054 344.054136 
Q 328.353461 344.054136 328.566742 344.154917 
Q 328.683929 344.213511 329.396429 344.797104 
Q 330.111273 345.378354 330.734711 345.378354 
Q 331.276117 345.378354 331.662836 344.951792 
Q 332.051898 344.522886 332.051898 343.861948 
Q 332.051898 342.858823 331.348773 342.012729 
Q 330.645648 341.166636 329.290961 340.845542 
z
M 336.446429 343.568979 
Q 336.959711 343.568979 337.313617 343.929917 
Q 337.669867 344.288511 337.669867 344.792417 
Q 337.669867 345.298667 337.311273 345.654917 
Q 336.952679 346.008823 336.446429 346.008823 
Q 335.940179 346.008823 335.583929 345.654917 
Q 335.230023 345.298667 335.230023 344.792417 
Q 335.230023 344.288511 335.583929 343.929917 
Q 335.940179 343.568979 336.446429 343.568979 
z
M 344.532367 345.826011 
L 338.687054 345.826011 
L 338.687054 345.664292 
Q 341.375336 342.465073 341.949554 341.358823 
Q 342.526117 340.252573 342.526117 339.197886 
Q 342.526117 338.429136 342.050336 337.920542 
Q 341.574554 337.409604 340.885492 337.409604 
Q 339.758148 337.409604 339.134711 338.539292 
L 338.862836 338.443198 
Q 339.258929 337.036948 340.065179 336.364292 
Q 340.871429 335.689292 341.926117 335.689292 
Q 342.678461 335.689292 343.301898 336.040854 
Q 343.925336 336.392417 344.276898 337.004136 
Q 344.628461 337.615854 344.628461 338.150229 
Q 344.628461 339.125229 344.084711 340.128354 
Q 343.346429 341.483042 340.855023 343.906479 
L 343.001898 343.906479 
Q 343.791742 343.906479 344.030804 343.840854 
Q 344.269867 343.775229 344.422211 343.618198 
Q 344.576898 343.461167 344.825336 342.954917 
L 345.090179 342.954917 
L 344.532367 345.826011 
z
" style="fill: #404040; stroke: #ffffff; stroke-width: 3.8"/>
    <path d="M 321.790961 340.845542 
L 321.790961 340.590073 
Q 322.625336 340.346323 322.946429 340.137729 
Q 323.269867 339.929136 323.504242 339.502573 
Q 323.738617 339.073667 323.738617 338.633042 
Q 323.738617 338.026011 323.295648 337.590073 
Q 322.852679 337.154136 322.194086 337.154136 
Q 321.167523 337.154136 320.450336 338.236948 
L 320.178461 338.143198 
Q 320.705804 336.919761 321.530804 336.305698 
Q 322.355804 335.689292 323.365961 335.689292 
Q 324.397211 335.689292 325.067523 336.319761 
Q 325.737836 336.947886 325.737836 337.791636 
Q 325.737836 338.340073 325.426117 338.851011 
Q 325.116742 339.359604 324.448773 339.746323 
Q 325.306586 340.163511 325.756586 340.775229 
Q 326.206586 341.386948 326.206586 342.310386 
Q 326.206586 343.861948 325.081586 344.951792 
Q 323.958929 346.039292 322.069867 346.039292 
Q 320.808929 346.039292 320.230023 345.619761 
Q 319.812836 345.326792 319.812836 344.867417 
Q 319.812836 344.529917 320.054242 344.293198 
Q 320.295648 344.054136 320.612054 344.054136 
Q 320.853461 344.054136 321.066742 344.154917 
Q 321.183929 344.213511 321.896429 344.797104 
Q 322.611273 345.378354 323.234711 345.378354 
Q 323.776117 345.378354 324.162836 344.951792 
Q 324.551898 344.522886 324.551898 343.861948 
Q 324.551898 342.858823 323.848773 342.012729 
Q 323.145648 341.166636 321.790961 340.845542 
z
M 329.290961 340.845542 
L 329.290961 340.590073 
Q 330.125336 340.346323 330.446429 340.137729 
Q 330.769867 339.929136 331.004242 339.502573 
Q 331.238617 339.073667 331.238617 338.633042 
Q 331.238617 338.026011 330.795648 337.590073 
Q 330.352679 337.154136 329.694086 337.154136 
Q 328.667523 337.154136 327.950336 338.236948 
L 327.678461 338.143198 
Q 328.205804 336.919761 329.030804 336.305698 
Q 329.855804 335.689292 330.865961 335.689292 
Q 331.897211 335.689292 332.567523 336.319761 
Q 333.237836 336.947886 333.237836 337.791636 
Q 333.237836 338.340073 332.926117 338.851011 
Q 332.616742 339.359604 331.948773 339.746323 
Q 332.806586 340.163511 333.256586 340.775229 
Q 333.706586 341.386948 333.706586 342.310386 
Q 333.706586 343.861948 332.581586 344.951792 
Q 331.458929 346.039292 329.569867 346.039292 
Q 328.308929 346.039292 327.730023 345.619761 
Q 327.312836 345.326792 327.312836 344.867417 
Q 327.312836 344.529917 327.554242 344.293198 
Q 327.795648 344.054136 328.112054 344.054136 
Q 328.353461 344.054136 328.566742 344.154917 
Q 328.683929 344.213511 329.396429 344.797104 
Q 330.111273 345.378354 330.734711 345.378354 
Q 331.276117 345.378354 331.662836 344.951792 
Q 332.051898 344.522886 332.051898 343.861948 
Q 332.051898 342.858823 331.348773 342.012729 
Q 330.645648 341.166636 329.290961 340.845542 
z
M 336.446429 343.568979 
Q 336.959711 343.568979 337.313617 343.929917 
Q 337.669867 344.288511 337.669867 344.792417 
Q 337.669867 345.298667 337.311273 345.654917 
Q 336.952679 346.008823 336.446429 346.008823 
Q 335.940179 346.008823 335.583929 345.654917 
Q 335.230023 345.298667 335.230023 344.792417 
Q 335.230023 344.288511 335.583929 343.929917 
Q 335.940179 343.568979 336.446429 343.568979 
z
M 344.532367 345.826011 
L 338.687054 345.826011 
L 338.687054 345.664292 
Q 341.375336 342.465073 341.949554 341.358823 
Q 342.526117 340.252573 342.526117 339.197886 
Q 342.526117 338.429136 342.050336 337.920542 
Q 341.574554 337.409604 340.885492 337.409604 
Q 339.758148 337.409604 339.134711 338.539292 
L 338.862836 338.443198 
Q 339.258929 337.036948 340.065179 336.364292 
Q 340.871429 335.689292 341.926117 335.689292 
Q 342.678461 335.689292 343.301898 336.040854 
Q 343.925336 336.392417 344.276898 337.004136 
Q 344.628461 337.615854 344.628461 338.150229 
Q 344.628461 339.125229 344.084711 340.128354 
Q 343.346429 341.483042 340.855023 343.906479 
L 343.001898 343.906479 
Q 343.791742 343.906479 344.030804 343.840854 
Q 344.269867 343.775229 344.422211 343.618198 
Q 344.576898 343.461167 344.825336 342.954917 
L 345.090179 342.954917 
L 344.532367 345.826011 
z
" style="fill: #404040"/>
   </g>
  </g>
 </g>
 <defs>
  <clipPath id="p7696bab87d">
   <rect x="7.2" y="51.034687" width="730.764" height="432.495831"/>
  </clipPath>
 </defs>
</svg>
