<?xml version="1.0" encoding="utf-8" standalone="no"?>
<!DOCTYPE svg PUBLIC "-//W3C//DTD SVG 1.1//EN"
  "http://www.w3.org/Graphics/SVG/1.1/DTD/svg11.dtd">
<svg xmlns:xlink="http://www.w3.org/1999/xlink" width="745.164pt" height="495.978561pt" viewBox="0 0 745.164 495.978561" xmlns="http://www.w3.org/2000/svg" version="1.1">
 <metadata>
  <rdf:RDF xmlns:dc="http://purl.org/dc/elements/1.1/" xmlns:cc="http://creativecommons.org/ns#" xmlns:rdf="http://www.w3.org/1999/02/22-rdf-syntax-ns#">
   <cc:Work>
    <dc:type rdf:resource="http://purl.org/dc/dcmitype/StillImage"/>
    <dc:date>2026-07-13T16:58:37.434463</dc:date>
    <dc:format>image/svg+xml</dc:format>
    <dc:creator>
     <cc:Agent>
      <dc:title>Matplotlib v3.10.8, https://matplotlib.org/</dc:title>
     </cc:Agent>
    </dc:creator>
   </cc:Work>
  </rdf:RDF>
 </metadata>
 <defs>
  <style type="text/css">*{stroke-linejoin: round; stroke-linecap: butt}</style>
 </defs>
 <g id="figure_1">
  <g id="patch_1">
   <path d="M 0 495.978561 
L 745.164 495.978561 
L 745.164 0 
L 0 0 
L 0 495.978561 
z
" style="fill: none"/>
  </g>
  <g id="axes_1">
   <g id="patch_2">
    <path d="M 120.350555 458.494978 
Q 120.350555 468.59923 120.350555 476.601932 
" clip-path="url(#p944cb0385d)" style="fill: none; stroke: #111111; stroke-width: 1.879684; stroke-linejoin: miter; stroke-linecap: round"/>
    <path d="M 123.896054 469.510934 
L 120.350555 476.601932 
L 116.805056 469.510934 
z
" clip-path="url(#p944cb0385d)" style="fill: #111111; stroke: #111111; stroke-width: 1.879684; stroke-linejoin: miter; stroke-linecap: round"/>
   </g>
   <g id="patch_3">
    <path d="M 120.350555 396.198902 
Q 120.350555 413.308134 120.350555 427.57054 
" clip-path="url(#p944cb0385d)" style="fill: none; stroke: #111111; stroke-width: 2.546279; stroke-linejoin: miter; stroke-linecap: round"/>
    <path d="M 124.109364 420.052921 
L 120.350555 427.57054 
L 116.591746 420.052921 
z
" clip-path="url(#p944cb0385d)" style="fill: #111111; stroke: #111111; stroke-width: 2.546279; stroke-linejoin: miter; stroke-linecap: round"/>
   </g>
   <g id="patch_4">
    <path d="M 120.350555 307.492995 
Q 120.350555 330.802163 120.350555 350.713607 
" clip-path="url(#p944cb0385d)" style="fill: none; stroke: #111111; stroke-width: 3.039017; stroke-linejoin: miter; stroke-linecap: round"/>
    <path d="M 124.26704 342.880636 
L 120.350555 350.713607 
L 116.434069 342.880636 
z
" clip-path="url(#p944cb0385d)" style="fill: #111111; stroke: #111111; stroke-width: 3.039017; stroke-linejoin: miter; stroke-linecap: round"/>
   </g>
   <g id="patch_5">
    <path d="M 370.224697 358.599373 
Q 370.224697 362.277282 370.224697 364.351719 
" clip-path="url(#p944cb0385d)" style="fill: none; stroke: #111111; stroke-width: 1.434189; stroke-linejoin: miter; stroke-linecap: round"/>
    <path d="M 373.176902 358.447308 
L 370.224697 364.351719 
L 367.272491 358.447308 
z
" clip-path="url(#p944cb0385d)" style="fill: #111111; stroke: #111111; stroke-width: 1.434189; stroke-linejoin: miter; stroke-linecap: round"/>
   </g>
   <g id="patch_6">
    <path d="M 370.224697 323.788031 
Q 370.224697 341.193702 370.224697 355.235542 
" clip-path="url(#p944cb0385d)" style="fill: none; stroke: #111111; stroke-width: 3.008702; stroke-linejoin: miter; stroke-linecap: round"/>
    <path d="M 374.131482 347.421972 
L 370.224697 355.235542 
L 366.317912 347.421972 
z
" clip-path="url(#p944cb0385d)" style="fill: #111111; stroke: #111111; stroke-width: 3.008702; stroke-linejoin: miter; stroke-linecap: round"/>
   </g>
   <g id="patch_7">
    <path d="M 370.224697 246.657921 
Q 370.224697 263.882753 370.224697 274.622987 
" clip-path="url(#p944cb0385d)" style="fill: none; stroke: #111111; stroke-width: 5.8; stroke-linejoin: miter; stroke-linecap: round"/>
    <path d="M 375.024697 265.022987 
L 370.224697 274.622987 
L 365.424697 265.022987 
z
" clip-path="url(#p944cb0385d)" style="fill: #111111; stroke: #111111; stroke-width: 5.8; stroke-linejoin: miter; stroke-linecap: round"/>
   </g>
   <g id="patch_8">
    <path d="M 586.153672 192.851627 
Q 586.153672 242.226802 586.153672 290.61931 
" clip-path="url(#p944cb0385d)" style="fill: none; stroke: #111111; stroke-width: 0.878924; stroke-linejoin: miter; stroke-linecap: round"/>
    <path d="M 589.378928 284.168799 
L 586.153672 290.61931 
L 582.928417 284.168799 
z
" clip-path="url(#p944cb0385d)" style="fill: #111111; stroke: #111111; stroke-width: 0.878924; stroke-linejoin: miter; stroke-linecap: round"/>
   </g>
   <g id="line2d_1">
    <path d="M 165.610777 478.703483 
L 568.777728 478.703483 
" clip-path="url(#p944cb0385d)" style="fill: none; stroke-dasharray: 5.6,4.2; stroke-dashoffset: 0; stroke: #404040; stroke-width: 1.4"/>
   </g>
   <g id="line2d_2">
    <path d="M 165.610777 430.417366 
L 550.322663 430.417366 
" clip-path="url(#p944cb0385d)" style="fill: none; stroke-dasharray: 5.6,4.2; stroke-dashoffset: 0; stroke: #404040; stroke-width: 1.4"/>
   </g>
   <g id="line2d_3">
    <path d="M 415.484919 365.955191 
L 560.694797 365.955191 
" clip-path="url(#p944cb0385d)" style="fill: none; stroke-dasharray: 5.6,4.2; stroke-dashoffset: 0; stroke: #404040; stroke-width: 1.4"/>
   </g>
   <g id="patch_9">
    <path d="M 665.359061 291.601977 
Q 607.365902 382.621824 549.85806 472.87997 
" clip-path="url(#p944cb0385d)" style="fill: none; stroke: #404040; stroke-width: 0.807821; stroke-linejoin: miter; stroke-linecap: round"/>
    <path d="M 555.233613 469.658719 
L 549.85806 472.87997 
L 550.506391 466.646776 
z
" clip-path="url(#p944cb0385d)" style="fill: #404040; stroke: #404040; stroke-width: 0.807821; stroke-linejoin: miter; stroke-linecap: round"/>
   </g>
   <g id="patch_10">
    <path d="M 620.098839 291.601977 
Q 577.487902 358.479536 535.357636 424.602687 
" clip-path="url(#p944cb0385d)" style="fill: none; stroke: #404040; stroke-width: 0.800088; stroke-linejoin: miter; stroke-linecap: round"/>
    <path d="M 540.728245 421.384399 
L 535.357636 424.602687 
L 536.005371 418.375227 
z
" clip-path="url(#p944cb0385d)" style="fill: #404040; stroke: #404040; stroke-width: 0.800088; stroke-linejoin: miter; stroke-linecap: round"/>
   </g>
   <g id="patch_11">
    <path d="M 574.838617 291.601977 
Q 541.545521 326.60594 508.968887 360.856624 
" clip-path="url(#p944cb0385d)" style="fill: none; stroke: #404040; stroke-width: 0.929836; stroke-linejoin: miter; stroke-linecap: round"/>
    <path d="M 514.948153 358.695709 
L 508.968887 360.856624 
L 510.827714 354.776663 
z
" clip-path="url(#p944cb0385d)" style="fill: #404040; stroke: #404040; stroke-width: 0.929836; stroke-linejoin: miter; stroke-linecap: round"/>
   </g>
   <g id="patch_12">
    <path d="M 370.224697 365.955191 
Q 334.972085 396.231836 300.741598 425.630631 
" clip-path="url(#p944cb0385d)" style="fill: none; stroke: #404040; stroke-width: 1.20511; stroke-linejoin: miter; stroke-linecap: round"/>
    <path d="M 307.10702 424.03263 
L 300.741598 425.630631 
L 303.282451 419.579493 
z
" clip-path="url(#p944cb0385d)" style="fill: #404040; stroke: #404040; stroke-width: 1.20511; stroke-linejoin: miter; stroke-linecap: round"/>
   </g>
   <g id="line2d_4">
    <path d="M 120.350555 430.417366 
L 120.350555 450.625872 
" clip-path="url(#p944cb0385d)" style="fill: none; stroke: #111111; stroke-width: 1.879684"/>
   </g>
   <g id="line2d_5">
    <path d="M 120.350555 354.111331 
L 120.350555 388.329796 
" clip-path="url(#p944cb0385d)" style="fill: none; stroke: #111111; stroke-width: 2.546279"/>
   </g>
   <g id="line2d_6">
    <path d="M 120.350555 253.005553 
L 120.350555 299.623889 
" clip-path="url(#p944cb0385d)" style="fill: none; stroke: #111111; stroke-width: 3.039017"/>
   </g>
   <g id="line2d_7">
    <path d="M 370.224697 281.107584 
L 370.224697 315.918926 
" clip-path="url(#p944cb0385d)" style="fill: none; stroke: #111111; stroke-width: 3.008702"/>
   </g>
   <g id="line2d_8">
    <path d="M 370.224697 204.339153 
L 370.224697 238.788816 
" clip-path="url(#p944cb0385d)" style="fill: none; stroke: #111111; stroke-width: 5.8"/>
   </g>
   <g id="line2d_9">
    <path d="M 586.153672 86.232171 
L 586.153672 184.982521 
" clip-path="url(#p944cb0385d)" style="fill: none; stroke: #111111; stroke-width: 0.878924"/>
   </g>
   <g id="line2d_10">
    <path d="M 75.090333 478.703483 
L 165.610777 478.703483 
" clip-path="url(#p944cb0385d)" style="fill: none; stroke: #111111; stroke-width: 3.6; stroke-linecap: round"/>
   </g>
   <g id="line2d_11">
    <path d="M 75.090333 430.417366 
L 165.610777 430.417366 
" clip-path="url(#p944cb0385d)" style="fill: none; stroke: #111111; stroke-width: 3.6; stroke-linecap: round"/>
   </g>
   <g id="line2d_12">
    <path d="M 75.090333 354.111331 
L 165.610777 354.111331 
" clip-path="url(#p944cb0385d)" style="fill: none; stroke: #111111; stroke-width: 3.6; stroke-linecap: round"/>
   </g>
   <g id="line2d_13">
    <path d="M 75.090333 253.005553 
L 165.610777 253.005553 
" clip-path="url(#p944cb0385d)" style="fill: none; stroke: #111111; stroke-width: 3.6; stroke-linecap: round"/>
   </g>
   <g id="line2d_14">
    <path d="M 324.964475 365.955191 
L 415.484919 365.955191 
" clip-path="url(#p944cb0385d)" style="fill: none; stroke: #111111; stroke-width: 3.6; stroke-linecap: round"/>
   </g>
   <g id="line2d_15">
    <path d="M 324.964475 358.599373 
L 415.484919 358.599373 
" clip-path="url(#p944cb0385d)" style="fill: none; stroke: #111111; stroke-width: 3.6; stroke-linecap: round"/>
   </g>
   <g id="line2d_16">
    <path d="M 324.964475 281.107584 
L 415.484919 281.107584 
" clip-path="url(#p944cb0385d)" style="fill: none; stroke: #111111; stroke-width: 3.6; stroke-linecap: round"/>
   </g>
   <g id="line2d_17">
    <path d="M 324.964475 204.339153 
L 415.484919 204.339153 
" clip-path="url(#p944cb0385d)" style="fill: none; stroke: #111111; stroke-width: 3.6; stroke-linecap: round"/>
   </g>
   <g id="line2d_18">
    <path d="M 574.838617 291.601977 
L 665.359061 291.601977 
" clip-path="url(#p944cb0385d)" style="fill: none; stroke: #111111; stroke-width: 3.6; stroke-linecap: round"/>
   </g>
   <g id="line2d_19">
    <path d="M 574.838617 86.232171 
L 665.359061 86.232171 
" clip-path="url(#p944cb0385d)" style="fill: none; stroke: #111111; stroke-width: 3.6; stroke-linecap: round"/>
   </g>
   <g id="text_1">
    <!-- $^{94}\mathrm{Kr}$ -->
    <g transform="translate(338.582 33.034687) scale(0.34 -0.34)">
     <defs>
      <path id="DejaVuSans-39" d="M 703 97 
L 703 672 
Q 941 559 1184 500 
Q 1428 441 1663 441 
Q 2288 441 2617 861 
Q 2947 1281 2994 2138 
Q 2813 1869 2534 1725 
Q 2256 1581 1919 1581 
Q 1219 1581 811 2004 
Q 403 2428 403 3163 
Q 403 3881 828 4315 
Q 1253 4750 1959 4750 
Q 2769 4750 3195 4129 
Q 3622 3509 3622 2328 
Q 3622 1225 3098 567 
Q 2575 -91 1691 -91 
Q 1453 -91 1209 -44 
Q 966 3 703 97 
z
M 1959 2075 
Q 2384 2075 2632 2365 
Q 2881 2656 2881 3163 
Q 2881 3666 2632 3958 
Q 2384 4250 1959 4250 
Q 1534 4250 1286 3958 
Q 1038 3666 1038 3163 
Q 1038 2656 1286 2365 
Q 1534 2075 1959 2075 
z
" transform="scale(0.015625)"/>
      <path id="DejaVuSans-34" d="M 2419 4116 
L 825 1625 
L 2419 1625 
L 2419 4116 
z
M 2253 4666 
L 3047 4666 
L 3047 1625 
L 3713 1625 
L 3713 1100 
L 3047 1100 
L 3047 0 
L 2419 0 
L 2419 1100 
L 313 1100 
L 313 1709 
L 2253 4666 
z
" transform="scale(0.015625)"/>
      <path id="DejaVuSans-4b" d="M 628 4666 
L 1259 4666 
L 1259 2694 
L 3353 4666 
L 4166 4666 
L 1850 2491 
L 4331 0 
L 3500 0 
L 1259 2247 
L 1259 0 
L 628 0 
L 628 4666 
z
" transform="scale(0.015625)"/>
      <path id="DejaVuSans-72" d="M 2631 2963 
Q 2534 3019 2420 3045 
Q 2306 3072 2169 3072 
Q 1681 3072 1420 2755 
Q 1159 2438 1159 1844 
L 1159 0 
L 581 0 
L 581 3500 
L 1159 3500 
L 1159 2956 
Q 1341 3275 1631 3429 
Q 1922 3584 2338 3584 
Q 2397 3584 2469 3576 
Q 2541 3569 2628 3553 
L 2631 2963 
z
" transform="scale(0.015625)"/>
     </defs>
     <use xlink:href="#DejaVuSans-39" transform="translate(0.957031 39.046875) scale(0.7)"/>
     <use xlink:href="#DejaVuSans-34" transform="translate(45.493164 39.046875) scale(0.7)"/>
     <use xlink:href="#DejaVuSans-4b" transform="translate(92.763672 0.765625)"/>
     <use xlink:href="#DejaVuSans-72" transform="translate(158.339844 0.765625)"/>
    </g>
   </g>
   <g id="text_2">
    <!-- 0 -->
    <g transform="translate(46.98525 483.118483) scale(0.16 -0.16)">
     <defs>
      <path id="DejaVuSans-BoldOblique-30" d="M 1913 728 
Q 2153 728 2339 872 
Q 2525 1016 2650 1294 
Q 2738 1491 2809 1742 
Q 2881 1994 2944 2338 
Q 2997 2616 3025 2850 
Q 3053 3084 3053 3250 
Q 3053 3600 2928 3764 
Q 2803 3928 2541 3928 
Q 2297 3928 2112 3789 
Q 1928 3650 1806 3366 
Q 1713 3163 1636 2903 
Q 1559 2644 1503 2338 
Q 1450 2056 1422 1815 
Q 1394 1575 1394 1409 
Q 1394 1063 1522 895 
Q 1650 728 1913 728 
z
M 4225 3072 
Q 4225 2450 4053 1862 
Q 3881 1275 3572 831 
Q 3256 375 2809 142 
Q 2363 -91 1813 -91 
Q 1047 -91 639 343 
Q 231 778 231 1594 
Q 231 2206 401 2795 
Q 572 3384 878 3822 
Q 1200 4281 1644 4515 
Q 2088 4750 2644 4750 
Q 3403 4750 3814 4314 
Q 4225 3878 4225 3072 
z
" transform="scale(0.015625)"/>
     </defs>
     <use xlink:href="#DejaVuSans-BoldOblique-30"/>
    </g>
   </g>
   <g id="text_3">
    <!-- 0⁺ -->
    <g transform="translate(182.58336 483.858717) scale(0.23 -0.23)">
     <defs>
      <path id="TimesNewRomanPS-BoldMT-30" d="M 2966 2119 
Q 2966 1484 2788 934 
Q 2681 597 2501 381 
Q 2322 166 2094 39 
Q 1866 -88 1597 -88 
Q 1291 -88 1044 68 
Q 797 225 606 516 
Q 469 728 366 1081 
Q 231 1559 231 2069 
Q 231 2759 425 3338 
Q 584 3816 909 4070 
Q 1234 4325 1597 4325 
Q 1966 4325 2286 4073 
Q 2606 3822 2756 3397 
Q 2966 2813 2966 2119 
z
M 2003 2125 
Q 2003 3238 1991 3422 
Q 1959 3856 1841 4009 
Q 1763 4109 1588 4109 
Q 1453 4109 1375 4034 
Q 1259 3925 1218 3648 
Q 1178 3372 1178 1719 
Q 1178 819 1241 513 
Q 1288 291 1375 216 
Q 1463 141 1606 141 
Q 1763 141 1841 241 
Q 1972 416 1991 781 
L 2003 2125 
z
" transform="scale(0.015625)"/>
      <path id="DejaVuSerif-Bold-207a" d="M 1916 4344 
L 1916 3441 
L 2950 3441 
L 2950 3044 
L 1916 3044 
L 1916 2141 
L 1463 2141 
L 1463 3044 
L 428 3044 
L 428 3441 
L 1463 3441 
L 1463 4344 
L 1916 4344 
z
" transform="scale(0.015625)"/>
     </defs>
     <use xlink:href="#TimesNewRomanPS-BoldMT-30"/>
     <use xlink:href="#DejaVuSerif-Bold-207a" transform="translate(50 0)"/>
    </g>
   </g>
   <g id="text_4">
    <!-- 565 -->
    <g transform="translate(24.72025 434.832366) scale(0.16 -0.16)">
     <defs>
      <path id="DejaVuSans-BoldOblique-35" d="M 1131 4666 
L 4122 4666 
L 3950 3781 
L 1919 3781 
L 1778 3059 
Q 1916 3097 2064 3117 
Q 2213 3138 2363 3138 
Q 3078 3138 3481 2811 
Q 3884 2484 3884 1906 
Q 3884 988 3262 448 
Q 2641 -91 1575 -91 
Q 1184 -91 815 -14 
Q 447 63 84 219 
L 269 1166 
Q 616 941 942 834 
Q 1269 728 1606 728 
Q 2100 728 2397 986 
Q 2694 1244 2694 1663 
Q 2694 1963 2469 2139 
Q 2244 2316 1856 2316 
Q 1594 2316 1289 2248 
Q 984 2181 622 2041 
L 1131 4666 
z
" transform="scale(0.015625)"/>
      <path id="DejaVuSans-BoldOblique-36" d="M 2316 2303 
Q 1959 2303 1731 2009 
Q 1503 1716 1503 1253 
Q 1503 975 1643 820 
Q 1784 666 2034 666 
Q 2388 666 2617 955 
Q 2847 1244 2847 1684 
Q 2847 1984 2709 2143 
Q 2572 2303 2316 2303 
z
M 4225 4544 
L 4056 3681 
Q 3788 3819 3534 3887 
Q 3281 3956 3028 3956 
Q 2447 3956 2087 3643 
Q 1728 3331 1650 2766 
Q 1894 2925 2151 3001 
Q 2409 3078 2700 3078 
Q 3275 3078 3640 2737 
Q 4006 2397 4006 1869 
Q 4006 1006 3442 454 
Q 2878 -97 1991 -97 
Q 1194 -97 756 354 
Q 319 806 319 1631 
Q 319 2269 512 2848 
Q 706 3428 1056 3847 
Q 1431 4294 1942 4519 
Q 2453 4744 3091 4744 
Q 3384 4744 3662 4694 
Q 3941 4644 4225 4544 
z
" transform="scale(0.015625)"/>
     </defs>
     <use xlink:href="#DejaVuSans-BoldOblique-35"/>
     <use xlink:href="#DejaVuSans-BoldOblique-36" transform="translate(69.580078 0)"/>
     <use xlink:href="#DejaVuSans-BoldOblique-35" transform="translate(139.160156 0)"/>
    </g>
   </g>
   <g id="text_5">
    <!-- 2⁺ -->
    <g transform="translate(182.58336 435.572601) scale(0.23 -0.23)">
     <defs>
      <path id="TimesNewRomanPS-BoldMT-32" d="M 2650 0 
L 156 0 
L 156 69 
Q 1303 1434 1548 1906 
Q 1794 2378 1794 2828 
Q 1794 3156 1591 3373 
Q 1388 3591 1094 3591 
Q 613 3591 347 3109 
L 231 3150 
Q 400 3750 744 4037 
Q 1088 4325 1538 4325 
Q 1859 4325 2125 4175 
Q 2391 4025 2541 3764 
Q 2691 3503 2691 3275 
Q 2691 2859 2459 2431 
Q 2144 1853 1081 819 
L 1997 819 
Q 2334 819 2436 847 
Q 2538 875 2603 942 
Q 2669 1009 2775 1225 
L 2888 1225 
L 2650 0 
z
" transform="scale(0.015625)"/>
     </defs>
     <use xlink:href="#TimesNewRomanPS-BoldMT-32"/>
     <use xlink:href="#DejaVuSerif-Bold-207a" transform="translate(50 0)"/>
    </g>
   </g>
   <g id="text_6">
    <!-- 1457 -->
    <g transform="translate(13.58775 358.526331) scale(0.16 -0.16)">
     <defs>
      <path id="DejaVuSans-BoldOblique-31" d="M 441 831 
L 1503 831 
L 2088 3847 
L 953 3622 
L 1113 4441 
L 2241 4666 
L 3384 4666 
L 2644 831 
L 3700 831 
L 3541 0 
L 275 0 
L 441 831 
z
" transform="scale(0.015625)"/>
      <path id="DejaVuSans-BoldOblique-34" d="M 2638 3641 
L 978 1722 
L 2259 1722 
L 2638 3641 
z
M 2606 4666 
L 3975 4666 
L 3397 1722 
L 4063 1722 
L 3897 850 
L 3231 850 
L 3066 0 
L 1925 0 
L 2094 850 
L -6 850 
L 197 1881 
L 2606 4666 
z
" transform="scale(0.015625)"/>
      <path id="DejaVuSans-BoldOblique-37" d="M 922 4666 
L 4441 4666 
L 4300 3981 
L 1703 0 
L 500 0 
L 2969 3781 
L 756 3781 
L 922 4666 
z
" transform="scale(0.015625)"/>
     </defs>
     <use xlink:href="#DejaVuSans-BoldOblique-31"/>
     <use xlink:href="#DejaVuSans-BoldOblique-34" transform="translate(69.580078 0)"/>
     <use xlink:href="#DejaVuSans-BoldOblique-35" transform="translate(139.160156 0)"/>
     <use xlink:href="#DejaVuSans-BoldOblique-37" transform="translate(208.740234 0)"/>
    </g>
   </g>
   <g id="text_7">
    <!-- 4⁺ -->
    <g transform="translate(182.58336 359.266566) scale(0.23 -0.23)">
     <defs>
      <path id="TimesNewRomanPS-BoldMT-34" d="M 159 1597 
L 2172 4325 
L 2553 4325 
L 2553 1597 
L 2941 1597 
L 2941 950 
L 2553 950 
L 2553 0 
L 1694 0 
L 1694 950 
L 159 950 
L 159 1597 
z
M 463 1597 
L 1694 1597 
L 1694 3269 
L 463 1597 
z
" transform="scale(0.015625)"/>
     </defs>
     <use xlink:href="#TimesNewRomanPS-BoldMT-34"/>
     <use xlink:href="#DejaVuSerif-Bold-207a" transform="translate(50 0)"/>
    </g>
   </g>
   <g id="text_8">
    <!-- 2639 -->
    <g transform="translate(13.58775 257.420553) scale(0.16 -0.16)">
     <defs>
      <path id="DejaVuSans-BoldOblique-32" d="M 1581 884 
L 3609 884 
L 3438 0 
L 50 0 
L 225 891 
L 2209 2388 
Q 2534 2638 2704 2894 
Q 2875 3150 2875 3391 
Q 2875 3647 2700 3787 
Q 2525 3928 2209 3928 
Q 1913 3928 1547 3811 
Q 1181 3694 722 3450 
L 922 4441 
Q 1347 4597 1756 4673 
Q 2166 4750 2566 4750 
Q 3278 4750 3687 4442 
Q 4097 4134 4097 3603 
Q 4097 3147 3847 2772 
Q 3597 2397 2747 1759 
L 1581 884 
z
" transform="scale(0.015625)"/>
      <path id="DejaVuSans-BoldOblique-33" d="M 3022 2516 
Q 3375 2434 3572 2187 
Q 3769 1941 3769 1581 
Q 3769 806 3155 357 
Q 2541 -91 1466 -91 
Q 1059 -91 692 -33 
Q 325 25 0 141 
L 178 1069 
Q 456 906 784 817 
Q 1113 728 1441 728 
Q 1969 728 2276 926 
Q 2584 1125 2584 1459 
Q 2584 1738 2350 1877 
Q 2116 2016 1644 2016 
L 1166 2016 
L 1319 2791 
L 1825 2791 
Q 2316 2791 2602 2969 
Q 2888 3147 2888 3450 
Q 2888 3688 2689 3813 
Q 2491 3938 2113 3938 
Q 1847 3938 1534 3869 
Q 1222 3800 884 3669 
L 1056 4550 
Q 1425 4650 1783 4700 
Q 2141 4750 2491 4750 
Q 3281 4750 3679 4487 
Q 4078 4225 4078 3706 
Q 4078 3241 3801 2930 
Q 3525 2619 3022 2516 
z
" transform="scale(0.015625)"/>
      <path id="DejaVuSans-BoldOblique-39" d="M 263 103 
L 428 966 
Q 700 825 953 758 
Q 1206 691 1459 691 
Q 2041 691 2400 1003 
Q 2759 1316 2834 1881 
Q 2594 1722 2337 1645 
Q 2081 1569 1791 1569 
Q 1219 1569 853 1909 
Q 488 2250 488 2778 
Q 488 3641 1052 4192 
Q 1616 4744 2503 4744 
Q 3300 4744 3736 4292 
Q 4172 3841 4172 3016 
Q 4172 2381 3978 1801 
Q 3784 1222 3431 800 
Q 3056 353 2548 128 
Q 2041 -97 1403 -97 
Q 1106 -97 825 -47 
Q 544 3 263 103 
z
M 2169 2344 
Q 2525 2344 2753 2637 
Q 2981 2931 2981 3391 
Q 2981 3675 2845 3828 
Q 2709 3981 2456 3981 
Q 2103 3981 1870 3690 
Q 1638 3400 1638 2963 
Q 1638 2663 1775 2503 
Q 1913 2344 2169 2344 
z
" transform="scale(0.015625)"/>
     </defs>
     <use xlink:href="#DejaVuSans-BoldOblique-32"/>
     <use xlink:href="#DejaVuSans-BoldOblique-36" transform="translate(69.580078 0)"/>
     <use xlink:href="#DejaVuSans-BoldOblique-33" transform="translate(139.160156 0)"/>
     <use xlink:href="#DejaVuSans-BoldOblique-39" transform="translate(208.740234 0)"/>
    </g>
   </g>
   <g id="text_9">
    <!-- 6⁺ -->
    <g transform="translate(182.58336 258.160787) scale(0.23 -0.23)">
     <defs>
      <path id="TimesNewRomanPS-BoldMT-36" d="M 3006 4325 
L 3006 4238 
Q 2441 4094 2098 3867 
Q 1756 3641 1557 3317 
Q 1359 2994 1250 2516 
Q 1388 2609 1478 2638 
Q 1681 2700 1888 2700 
Q 2363 2700 2680 2354 
Q 2997 2009 2997 1413 
Q 2997 994 2825 644 
Q 2653 294 2337 103 
Q 2022 -88 1663 -88 
Q 1272 -88 940 126 
Q 609 341 423 753 
Q 238 1166 238 1650 
Q 238 2363 580 2977 
Q 922 3591 1551 3955 
Q 2181 4319 3006 4325 
z
M 1209 2263 
Q 1184 1831 1184 1631 
Q 1184 1200 1267 797 
Q 1350 394 1494 231 
Q 1597 116 1738 116 
Q 1881 116 1993 283 
Q 2106 450 2106 963 
Q 2106 1825 1897 2153 
Q 1763 2366 1534 2366 
Q 1409 2366 1209 2263 
z
" transform="scale(0.015625)"/>
     </defs>
     <use xlink:href="#TimesNewRomanPS-BoldMT-36"/>
     <use xlink:href="#DejaVuSerif-Bold-207a" transform="translate(50 0)"/>
    </g>
   </g>
   <g id="text_10">
    <!-- 1318 -->
    <g transform="translate(263.461892 371.824308) scale(0.16 -0.16)">
     <defs>
      <path id="DejaVuSans-BoldOblique-38" d="M 2150 2088 
Q 1784 2088 1539 1839 
Q 1294 1591 1294 1228 
Q 1294 969 1453 817 
Q 1613 666 1888 666 
Q 2259 666 2503 911 
Q 2747 1156 2747 1522 
Q 2747 1781 2586 1934 
Q 2425 2088 2150 2088 
z
M 1381 2484 
Q 1044 2625 876 2850 
Q 709 3075 709 3391 
Q 709 4025 1229 4387 
Q 1750 4750 2669 4750 
Q 3406 4750 3812 4475 
Q 4219 4200 4219 3700 
Q 4219 3256 3936 2940 
Q 3653 2625 3128 2484 
Q 3509 2338 3690 2091 
Q 3872 1844 3872 1466 
Q 3872 747 3311 328 
Q 2750 -91 1772 -91 
Q 1000 -91 570 217 
Q 141 525 141 1075 
Q 141 1572 470 1945 
Q 800 2319 1381 2484 
z
M 2559 3994 
Q 2241 3994 2048 3808 
Q 1856 3622 1856 3316 
Q 1856 3103 1995 2972 
Q 2134 2841 2363 2841 
Q 2681 2841 2873 3027 
Q 3066 3213 3066 3519 
Q 3066 3734 2927 3864 
Q 2788 3994 2559 3994 
z
" transform="scale(0.015625)"/>
     </defs>
     <use xlink:href="#DejaVuSans-BoldOblique-31"/>
     <use xlink:href="#DejaVuSans-BoldOblique-33" transform="translate(69.580078 0)"/>
     <use xlink:href="#DejaVuSans-BoldOblique-31" transform="translate(139.160156 0)"/>
     <use xlink:href="#DejaVuSans-BoldOblique-38" transform="translate(208.740234 0)"/>
    </g>
   </g>
   <g id="text_11">
    <!-- 0⁺ -->
    <g transform="translate(432.457502 372.564542) scale(0.23 -0.23)">
     <use xlink:href="#TimesNewRomanPS-BoldMT-30"/>
     <use xlink:href="#DejaVuSerif-Bold-207a" transform="translate(50 0)"/>
    </g>
   </g>
   <g id="text_12">
    <!-- 1404 -->
    <g transform="translate(263.461892 361.560257) scale(0.16 -0.16)">
     <use xlink:href="#DejaVuSans-BoldOblique-31"/>
     <use xlink:href="#DejaVuSans-BoldOblique-34" transform="translate(69.580078 0)"/>
     <use xlink:href="#DejaVuSans-BoldOblique-30" transform="translate(139.160156 0)"/>
     <use xlink:href="#DejaVuSans-BoldOblique-34" transform="translate(208.740234 0)"/>
    </g>
   </g>
   <g id="text_13">
    <!-- 2⁺ -->
    <g transform="translate(432.457502 362.300491) scale(0.23 -0.23)">
     <use xlink:href="#TimesNewRomanPS-BoldMT-32"/>
     <use xlink:href="#DejaVuSerif-Bold-207a" transform="translate(50 0)"/>
    </g>
   </g>
   <g id="text_14">
    <!-- 2310 -->
    <g transform="translate(263.461892 285.522584) scale(0.16 -0.16)">
     <use xlink:href="#DejaVuSans-BoldOblique-32"/>
     <use xlink:href="#DejaVuSans-BoldOblique-33" transform="translate(69.580078 0)"/>
     <use xlink:href="#DejaVuSans-BoldOblique-31" transform="translate(139.160156 0)"/>
     <use xlink:href="#DejaVuSans-BoldOblique-30" transform="translate(208.740234 0)"/>
    </g>
   </g>
   <g id="text_15">
    <!-- 4⁺ -->
    <g transform="translate(432.457502 286.262818) scale(0.23 -0.23)">
     <use xlink:href="#TimesNewRomanPS-BoldMT-34"/>
     <use xlink:href="#DejaVuSerif-Bold-207a" transform="translate(50 0)"/>
    </g>
   </g>
   <g id="text_16">
    <!-- 3208 -->
    <g transform="translate(263.461892 208.754153) scale(0.16 -0.16)">
     <use xlink:href="#DejaVuSans-BoldOblique-33"/>
     <use xlink:href="#DejaVuSans-BoldOblique-32" transform="translate(69.580078 0)"/>
     <use xlink:href="#DejaVuSans-BoldOblique-30" transform="translate(139.160156 0)"/>
     <use xlink:href="#DejaVuSans-BoldOblique-38" transform="translate(208.740234 0)"/>
    </g>
   </g>
   <g id="text_17">
    <!-- 6⁺ -->
    <g transform="translate(432.457502 209.494388) scale(0.23 -0.23)">
     <use xlink:href="#TimesNewRomanPS-BoldMT-36"/>
     <use xlink:href="#DejaVuSerif-Bold-207a" transform="translate(50 0)"/>
    </g>
   </g>
   <g id="text_18">
    <!-- 2187 -->
    <g transform="translate(513.336034 296.016977) scale(0.16 -0.16)">
     <use xlink:href="#DejaVuSans-BoldOblique-32"/>
     <use xlink:href="#DejaVuSans-BoldOblique-31" transform="translate(69.580078 0)"/>
     <use xlink:href="#DejaVuSans-BoldOblique-38" transform="translate(139.160156 0)"/>
     <use xlink:href="#DejaVuSans-BoldOblique-37" transform="translate(208.740234 0)"/>
    </g>
   </g>
   <g id="text_19">
    <!-- 2⁺ -->
    <g transform="translate(682.331644 296.757212) scale(0.23 -0.23)">
     <use xlink:href="#TimesNewRomanPS-BoldMT-32"/>
     <use xlink:href="#DejaVuSerif-Bold-207a" transform="translate(50 0)"/>
    </g>
   </g>
   <g id="text_20">
    <!-- 4588 -->
    <g transform="translate(513.336034 90.647171) scale(0.16 -0.16)">
     <use xlink:href="#DejaVuSans-BoldOblique-34"/>
     <use xlink:href="#DejaVuSans-BoldOblique-35" transform="translate(69.580078 0)"/>
     <use xlink:href="#DejaVuSans-BoldOblique-38" transform="translate(139.160156 0)"/>
     <use xlink:href="#DejaVuSans-BoldOblique-38" transform="translate(208.740234 0)"/>
    </g>
   </g>
   <g id="text_21">
    <!-- 3⁺ -->
    <g transform="translate(682.331644 91.387406) scale(0.23 -0.23)">
     <defs>
      <path id="TimesNewRomanPS-BoldMT-33" d="M 947 2125 
L 947 2234 
Q 1303 2338 1440 2427 
Q 1578 2516 1678 2698 
Q 1778 2881 1778 3069 
Q 1778 3328 1589 3514 
Q 1400 3700 1119 3700 
Q 681 3700 375 3238 
L 259 3278 
Q 484 3800 836 4062 
Q 1188 4325 1619 4325 
Q 2059 4325 2345 4056 
Q 2631 3788 2631 3428 
Q 2631 3194 2498 2976 
Q 2366 2759 2081 2594 
Q 2447 2416 2639 2155 
Q 2831 1894 2831 1500 
Q 2831 838 2351 373 
Q 1872 -91 1066 -91 
Q 528 -91 281 88 
Q 103 213 103 409 
Q 103 553 206 654 
Q 309 756 444 756 
Q 547 756 638 713 
Q 688 688 992 439 
Q 1297 191 1563 191 
Q 1794 191 1959 373 
Q 2125 556 2125 838 
Q 2125 1266 1825 1627 
Q 1525 1988 947 2125 
z
" transform="scale(0.015625)"/>
     </defs>
     <use xlink:href="#TimesNewRomanPS-BoldMT-33"/>
     <use xlink:href="#DejaVuSerif-Bold-207a" transform="translate(50 0)"/>
    </g>
   </g>
   <g id="text_22">
    <path d="M 112.975555 458.146675 
L 106.740555 458.146675 
L 106.740555 457.974175 
Q 109.608055 454.561675 110.220555 453.381675 
Q 110.835555 452.201675 110.835555 451.076675 
Q 110.835555 450.256675 110.328055 449.714175 
Q 109.820555 449.169175 109.085555 449.169175 
Q 107.883055 449.169175 107.218055 450.374175 
L 106.928055 450.271675 
Q 107.350555 448.771675 108.210555 448.054175 
Q 109.070555 447.334175 110.195555 447.334175 
Q 110.998055 447.334175 111.663055 447.709175 
Q 112.328055 448.084175 112.703055 448.736675 
Q 113.078055 449.389175 113.078055 449.959175 
Q 113.078055 450.999175 112.498055 452.069175 
Q 111.710555 453.514175 109.053055 456.099175 
L 111.343055 456.099175 
Q 112.185555 456.099175 112.440555 456.029175 
Q 112.695555 455.959175 112.858055 455.791675 
Q 113.023055 455.624175 113.288055 455.084175 
L 113.570555 455.084175 
L 112.975555 458.146675 
z
M 114.748055 454.154175 
L 119.780555 447.334175 
L 120.733055 447.334175 
L 120.733055 454.154175 
L 121.703055 454.154175 
L 121.703055 455.771675 
L 120.733055 455.771675 
L 120.733055 458.146675 
L 118.585555 458.146675 
L 118.585555 455.771675 
L 114.748055 455.771675 
L 114.748055 454.154175 
z
M 115.508055 454.154175 
L 118.585555 454.154175 
L 118.585555 449.974175 
L 115.508055 454.154175 
z
M 124.350555 455.739175 
Q 124.898055 455.739175 125.275555 456.124175 
Q 125.655555 456.506675 125.655555 457.044175 
Q 125.655555 457.584175 125.273055 457.964175 
Q 124.890555 458.341675 124.350555 458.341675 
Q 123.810555 458.341675 123.430555 457.964175 
Q 123.053055 457.584175 123.053055 457.044175 
Q 123.053055 456.506675 123.430555 456.124175 
Q 123.810555 455.739175 124.350555 455.739175 
z
M 126.748055 454.154175 
L 131.780555 447.334175 
L 132.733055 447.334175 
L 132.733055 454.154175 
L 133.703055 454.154175 
L 133.703055 455.771675 
L 132.733055 455.771675 
L 132.733055 458.146675 
L 130.585555 458.146675 
L 130.585555 455.771675 
L 126.748055 455.771675 
L 126.748055 454.154175 
z
M 127.508055 454.154175 
L 130.585555 454.154175 
L 130.585555 449.974175 
L 127.508055 454.154175 
z
" style="stroke: #ffffff; stroke-width: 3.8"/>
    <path d="M 112.975555 458.146675 
L 106.740555 458.146675 
L 106.740555 457.974175 
Q 109.608055 454.561675 110.220555 453.381675 
Q 110.835555 452.201675 110.835555 451.076675 
Q 110.835555 450.256675 110.328055 449.714175 
Q 109.820555 449.169175 109.085555 449.169175 
Q 107.883055 449.169175 107.218055 450.374175 
L 106.928055 450.271675 
Q 107.350555 448.771675 108.210555 448.054175 
Q 109.070555 447.334175 110.195555 447.334175 
Q 110.998055 447.334175 111.663055 447.709175 
Q 112.328055 448.084175 112.703055 448.736675 
Q 113.078055 449.389175 113.078055 449.959175 
Q 113.078055 450.999175 112.498055 452.069175 
Q 111.710555 453.514175 109.053055 456.099175 
L 111.343055 456.099175 
Q 112.185555 456.099175 112.440555 456.029175 
Q 112.695555 455.959175 112.858055 455.791675 
Q 113.023055 455.624175 113.288055 455.084175 
L 113.570555 455.084175 
L 112.975555 458.146675 
z
M 114.748055 454.154175 
L 119.780555 447.334175 
L 120.733055 447.334175 
L 120.733055 454.154175 
L 121.703055 454.154175 
L 121.703055 455.771675 
L 120.733055 455.771675 
L 120.733055 458.146675 
L 118.585555 458.146675 
L 118.585555 455.771675 
L 114.748055 455.771675 
L 114.748055 454.154175 
z
M 115.508055 454.154175 
L 118.585555 454.154175 
L 118.585555 449.974175 
L 115.508055 454.154175 
z
M 124.350555 455.739175 
Q 124.898055 455.739175 125.275555 456.124175 
Q 125.655555 456.506675 125.655555 457.044175 
Q 125.655555 457.584175 125.273055 457.964175 
Q 124.890555 458.341675 124.350555 458.341675 
Q 123.810555 458.341675 123.430555 457.964175 
Q 123.053055 457.584175 123.053055 457.044175 
Q 123.053055 456.506675 123.430555 456.124175 
Q 123.810555 455.739175 124.350555 455.739175 
z
M 126.748055 454.154175 
L 131.780555 447.334175 
L 132.733055 447.334175 
L 132.733055 454.154175 
L 133.703055 454.154175 
L 133.703055 455.771675 
L 132.733055 455.771675 
L 132.733055 458.146675 
L 130.585555 458.146675 
L 130.585555 455.771675 
L 126.748055 455.771675 
L 126.748055 454.154175 
z
M 127.508055 454.154175 
L 130.585555 454.154175 
L 130.585555 449.974175 
L 127.508055 454.154175 
z
"/>
   </g>
   <g id="text_23">
    <path d="M 108.718055 390.538099 
L 108.718055 390.265599 
Q 109.608055 390.005599 109.950555 389.783099 
Q 110.295555 389.560599 110.545555 389.105599 
Q 110.795555 388.648099 110.795555 388.178099 
Q 110.795555 387.530599 110.323055 387.065599 
Q 109.850555 386.600599 109.148055 386.600599 
Q 108.053055 386.600599 107.288055 387.755599 
L 106.998055 387.655599 
Q 107.560555 386.350599 108.440555 385.695599 
Q 109.320555 385.038099 110.398055 385.038099 
Q 111.498055 385.038099 112.213055 385.710599 
Q 112.928055 386.380599 112.928055 387.280599 
Q 112.928055 387.865599 112.595555 388.410599 
Q 112.265555 388.953099 111.553055 389.365599 
Q 112.468055 389.810599 112.948055 390.463099 
Q 113.428055 391.115599 113.428055 392.100599 
Q 113.428055 393.755599 112.228055 394.918099 
Q 111.030555 396.078099 109.015555 396.078099 
Q 107.670555 396.078099 107.053055 395.630599 
Q 106.608055 395.318099 106.608055 394.828099 
Q 106.608055 394.468099 106.865555 394.215599 
Q 107.123055 393.960599 107.460555 393.960599 
Q 107.718055 393.960599 107.945555 394.068099 
Q 108.070555 394.130599 108.830555 394.753099 
Q 109.593055 395.373099 110.258055 395.373099 
Q 110.835555 395.373099 111.248055 394.918099 
Q 111.663055 394.460599 111.663055 393.755599 
Q 111.663055 392.685599 110.913055 391.783099 
Q 110.163055 390.880599 108.718055 390.538099 
z
M 114.843055 396.070599 
L 114.843055 395.850599 
Q 116.140555 395.553099 117.043055 394.975599 
Q 117.945555 394.398099 118.470555 393.545599 
Q 118.998055 392.693099 119.210555 391.585599 
Q 118.725555 391.835599 118.385555 391.933099 
Q 118.045555 392.030599 117.670555 392.030599 
Q 116.468055 392.030599 115.665555 391.163099 
Q 114.865555 390.295599 114.865555 388.788099 
Q 114.865555 387.740599 115.298055 386.870599 
Q 115.733055 385.998099 116.538055 385.518099 
Q 117.343055 385.038099 118.210555 385.038099 
Q 119.140555 385.038099 119.968055 385.570599 
Q 120.795555 386.100599 121.288055 387.108099 
Q 121.780555 388.115599 121.780555 389.405599 
Q 121.780555 391.078099 120.978055 392.610599 
Q 120.178055 394.140599 118.593055 395.065599 
Q 117.008055 395.990599 114.843055 396.070599 
z
M 119.328055 390.928099 
Q 119.405555 390.053099 119.405555 389.390599 
Q 119.405555 387.968099 119.078055 386.740599 
Q 118.890555 386.060599 118.523055 385.740599 
Q 118.328055 385.568099 118.015555 385.568099 
Q 117.623055 385.568099 117.405555 385.905599 
Q 117.100555 386.365599 117.100555 387.663099 
Q 117.100555 389.828099 117.615555 390.648099 
Q 117.953055 391.178099 118.523055 391.178099 
Q 118.828055 391.178099 119.328055 390.928099 
z
M 124.350555 393.443099 
Q 124.898055 393.443099 125.275555 393.828099 
Q 125.655555 394.210599 125.655555 394.748099 
Q 125.655555 395.288099 125.273055 395.668099 
Q 124.890555 396.045599 124.350555 396.045599 
Q 123.810555 396.045599 123.430555 395.668099 
Q 123.053055 395.288099 123.053055 394.748099 
Q 123.053055 394.210599 123.430555 393.828099 
Q 123.810555 393.443099 124.350555 393.443099 
z
M 128.788055 385.255599 
L 133.748055 385.255599 
L 132.960555 387.273099 
L 128.788055 387.273099 
L 128.390555 388.328099 
Q 131.085555 388.428099 132.538055 389.670599 
Q 133.733055 390.693099 133.733055 392.218099 
Q 133.733055 393.193099 133.178055 394.128099 
Q 132.623055 395.060599 131.615555 395.565599 
Q 130.608055 396.070599 129.405555 396.070599 
Q 128.108055 396.070599 127.413055 395.585599 
Q 126.928055 395.240599 126.928055 394.803099 
Q 126.928055 394.468099 127.180555 394.210599 
Q 127.435555 393.953099 127.773055 393.953099 
Q 128.078055 393.953099 128.390555 394.078099 
Q 128.703055 394.203099 129.460555 394.733099 
Q 129.935555 395.060599 130.280555 395.185599 
Q 130.523055 395.280599 130.828055 395.280599 
Q 131.468055 395.280599 131.915555 394.813099 
Q 132.365555 394.343099 132.365555 393.685599 
Q 132.365555 392.310599 130.990555 391.453099 
Q 129.615555 390.593099 127.523055 390.593099 
Q 127.310555 390.593099 126.890555 390.600599 
L 128.788055 385.255599 
z
" style="stroke: #ffffff; stroke-width: 3.8"/>
    <path d="M 108.718055 390.538099 
L 108.718055 390.265599 
Q 109.608055 390.005599 109.950555 389.783099 
Q 110.295555 389.560599 110.545555 389.105599 
Q 110.795555 388.648099 110.795555 388.178099 
Q 110.795555 387.530599 110.323055 387.065599 
Q 109.850555 386.600599 109.148055 386.600599 
Q 108.053055 386.600599 107.288055 387.755599 
L 106.998055 387.655599 
Q 107.560555 386.350599 108.440555 385.695599 
Q 109.320555 385.038099 110.398055 385.038099 
Q 111.498055 385.038099 112.213055 385.710599 
Q 112.928055 386.380599 112.928055 387.280599 
Q 112.928055 387.865599 112.595555 388.410599 
Q 112.265555 388.953099 111.553055 389.365599 
Q 112.468055 389.810599 112.948055 390.463099 
Q 113.428055 391.115599 113.428055 392.100599 
Q 113.428055 393.755599 112.228055 394.918099 
Q 111.030555 396.078099 109.015555 396.078099 
Q 107.670555 396.078099 107.053055 395.630599 
Q 106.608055 395.318099 106.608055 394.828099 
Q 106.608055 394.468099 106.865555 394.215599 
Q 107.123055 393.960599 107.460555 393.960599 
Q 107.718055 393.960599 107.945555 394.068099 
Q 108.070555 394.130599 108.830555 394.753099 
Q 109.593055 395.373099 110.258055 395.373099 
Q 110.835555 395.373099 111.248055 394.918099 
Q 111.663055 394.460599 111.663055 393.755599 
Q 111.663055 392.685599 110.913055 391.783099 
Q 110.163055 390.880599 108.718055 390.538099 
z
M 114.843055 396.070599 
L 114.843055 395.850599 
Q 116.140555 395.553099 117.043055 394.975599 
Q 117.945555 394.398099 118.470555 393.545599 
Q 118.998055 392.693099 119.210555 391.585599 
Q 118.725555 391.835599 118.385555 391.933099 
Q 118.045555 392.030599 117.670555 392.030599 
Q 116.468055 392.030599 115.665555 391.163099 
Q 114.865555 390.295599 114.865555 388.788099 
Q 114.865555 387.740599 115.298055 386.870599 
Q 115.733055 385.998099 116.538055 385.518099 
Q 117.343055 385.038099 118.210555 385.038099 
Q 119.140555 385.038099 119.968055 385.570599 
Q 120.795555 386.100599 121.288055 387.108099 
Q 121.780555 388.115599 121.780555 389.405599 
Q 121.780555 391.078099 120.978055 392.610599 
Q 120.178055 394.140599 118.593055 395.065599 
Q 117.008055 395.990599 114.843055 396.070599 
z
M 119.328055 390.928099 
Q 119.405555 390.053099 119.405555 389.390599 
Q 119.405555 387.968099 119.078055 386.740599 
Q 118.890555 386.060599 118.523055 385.740599 
Q 118.328055 385.568099 118.015555 385.568099 
Q 117.623055 385.568099 117.405555 385.905599 
Q 117.100555 386.365599 117.100555 387.663099 
Q 117.100555 389.828099 117.615555 390.648099 
Q 117.953055 391.178099 118.523055 391.178099 
Q 118.828055 391.178099 119.328055 390.928099 
z
M 124.350555 393.443099 
Q 124.898055 393.443099 125.275555 393.828099 
Q 125.655555 394.210599 125.655555 394.748099 
Q 125.655555 395.288099 125.273055 395.668099 
Q 124.890555 396.045599 124.350555 396.045599 
Q 123.810555 396.045599 123.430555 395.668099 
Q 123.053055 395.288099 123.053055 394.748099 
Q 123.053055 394.210599 123.430555 393.828099 
Q 123.810555 393.443099 124.350555 393.443099 
z
M 128.788055 385.255599 
L 133.748055 385.255599 
L 132.960555 387.273099 
L 128.788055 387.273099 
L 128.390555 388.328099 
Q 131.085555 388.428099 132.538055 389.670599 
Q 133.733055 390.693099 133.733055 392.218099 
Q 133.733055 393.193099 133.178055 394.128099 
Q 132.623055 395.060599 131.615555 395.565599 
Q 130.608055 396.070599 129.405555 396.070599 
Q 128.108055 396.070599 127.413055 395.585599 
Q 126.928055 395.240599 126.928055 394.803099 
Q 126.928055 394.468099 127.180555 394.210599 
Q 127.435555 393.953099 127.773055 393.953099 
Q 128.078055 393.953099 128.390555 394.078099 
Q 128.703055 394.203099 129.460555 394.733099 
Q 129.935555 395.060599 130.280555 395.185599 
Q 130.523055 395.280599 130.828055 395.280599 
Q 131.468055 395.280599 131.915555 394.813099 
Q 132.365555 394.343099 132.365555 393.685599 
Q 132.365555 392.310599 130.990555 391.453099 
Q 129.615555 390.593099 127.523055 390.593099 
Q 127.310555 390.593099 126.890555 390.600599 
L 128.788055 385.255599 
z
"/>
   </g>
   <g id="text_24">
    <path d="M 108.788055 296.549692 
L 113.748055 296.549692 
L 112.960555 298.567192 
L 108.788055 298.567192 
L 108.390555 299.622192 
Q 111.085555 299.722192 112.538055 300.964692 
Q 113.733055 301.987192 113.733055 303.512192 
Q 113.733055 304.487192 113.178055 305.422192 
Q 112.623055 306.354692 111.615555 306.859692 
Q 110.608055 307.364692 109.405555 307.364692 
Q 108.108055 307.364692 107.413055 306.879692 
Q 106.928055 306.534692 106.928055 306.097192 
Q 106.928055 305.762192 107.180555 305.504692 
Q 107.435555 305.247192 107.773055 305.247192 
Q 108.078055 305.247192 108.390555 305.372192 
Q 108.703055 305.497192 109.460555 306.027192 
Q 109.935555 306.354692 110.280555 306.479692 
Q 110.523055 306.574692 110.828055 306.574692 
Q 111.468055 306.574692 111.915555 306.107192 
Q 112.365555 305.637192 112.365555 304.979692 
Q 112.365555 303.604692 110.990555 302.747192 
Q 109.615555 301.887192 107.523055 301.887192 
Q 107.310555 301.887192 106.890555 301.894692 
L 108.788055 296.549692 
z
M 121.765555 301.847192 
Q 121.765555 303.434692 121.320555 304.809692 
Q 121.053055 305.652192 120.603055 306.192192 
Q 120.155555 306.729692 119.585555 307.047192 
Q 119.015555 307.364692 118.343055 307.364692 
Q 117.578055 307.364692 116.960555 306.974692 
Q 116.343055 306.582192 115.865555 305.854692 
Q 115.523055 305.324692 115.265555 304.442192 
Q 114.928055 303.247192 114.928055 301.972192 
Q 114.928055 300.247192 115.413055 298.799692 
Q 115.810555 297.604692 116.623055 296.969692 
Q 117.435555 296.332192 118.343055 296.332192 
Q 119.265555 296.332192 120.065555 296.962192 
Q 120.865555 297.589692 121.240555 298.652192 
Q 121.765555 300.112192 121.765555 301.847192 
z
M 119.358055 301.832192 
Q 119.358055 299.049692 119.328055 298.589692 
Q 119.248055 297.504692 118.953055 297.122192 
Q 118.758055 296.872192 118.320555 296.872192 
Q 117.983055 296.872192 117.788055 297.059692 
Q 117.498055 297.332192 117.395555 298.024692 
Q 117.295555 298.714692 117.295555 302.847192 
Q 117.295555 305.097192 117.453055 305.862192 
Q 117.570555 306.417192 117.788055 306.604692 
Q 118.008055 306.792192 118.365555 306.792192 
Q 118.758055 306.792192 118.953055 306.542192 
Q 119.280555 306.104692 119.328055 305.192192 
L 119.358055 301.832192 
z
M 124.350555 304.737192 
Q 124.898055 304.737192 125.275555 305.122192 
Q 125.655555 305.504692 125.655555 306.042192 
Q 125.655555 306.582192 125.273055 306.962192 
Q 124.890555 307.339692 124.350555 307.339692 
Q 123.810555 307.339692 123.430555 306.962192 
Q 123.053055 306.582192 123.053055 306.042192 
Q 123.053055 305.504692 123.430555 305.122192 
Q 123.810555 304.737192 124.350555 304.737192 
z
M 133.865555 296.332192 
L 133.865555 296.549692 
Q 132.453055 296.909692 131.595555 297.477192 
Q 130.740555 298.042192 130.243055 298.852192 
Q 129.748055 299.659692 129.475555 300.854692 
Q 129.820555 300.622192 130.045555 300.549692 
Q 130.553055 300.394692 131.070555 300.394692 
Q 132.258055 300.394692 133.050555 301.259692 
Q 133.843055 302.122192 133.843055 303.612192 
Q 133.843055 304.659692 133.413055 305.534692 
Q 132.983055 306.409692 132.193055 306.887192 
Q 131.405555 307.364692 130.508055 307.364692 
Q 129.530555 307.364692 128.700555 306.829692 
Q 127.873055 306.292192 127.408055 305.262192 
Q 126.945555 304.229692 126.945555 303.019692 
Q 126.945555 301.237192 127.800555 299.702192 
Q 128.655555 298.167192 130.228055 297.257192 
Q 131.803055 296.347192 133.865555 296.332192 
z
M 129.373055 301.487192 
Q 129.310555 302.567192 129.310555 303.067192 
Q 129.310555 304.144692 129.518055 305.152192 
Q 129.725555 306.159692 130.085555 306.567192 
Q 130.343055 306.854692 130.695555 306.854692 
Q 131.053055 306.854692 131.333055 306.437192 
Q 131.615555 306.019692 131.615555 304.737192 
Q 131.615555 302.582192 131.093055 301.762192 
Q 130.758055 301.229692 130.185555 301.229692 
Q 129.873055 301.229692 129.373055 301.487192 
z
" style="stroke: #ffffff; stroke-width: 3.8"/>
    <path d="M 108.788055 296.549692 
L 113.748055 296.549692 
L 112.960555 298.567192 
L 108.788055 298.567192 
L 108.390555 299.622192 
Q 111.085555 299.722192 112.538055 300.964692 
Q 113.733055 301.987192 113.733055 303.512192 
Q 113.733055 304.487192 113.178055 305.422192 
Q 112.623055 306.354692 111.615555 306.859692 
Q 110.608055 307.364692 109.405555 307.364692 
Q 108.108055 307.364692 107.413055 306.879692 
Q 106.928055 306.534692 106.928055 306.097192 
Q 106.928055 305.762192 107.180555 305.504692 
Q 107.435555 305.247192 107.773055 305.247192 
Q 108.078055 305.247192 108.390555 305.372192 
Q 108.703055 305.497192 109.460555 306.027192 
Q 109.935555 306.354692 110.280555 306.479692 
Q 110.523055 306.574692 110.828055 306.574692 
Q 111.468055 306.574692 111.915555 306.107192 
Q 112.365555 305.637192 112.365555 304.979692 
Q 112.365555 303.604692 110.990555 302.747192 
Q 109.615555 301.887192 107.523055 301.887192 
Q 107.310555 301.887192 106.890555 301.894692 
L 108.788055 296.549692 
z
M 121.765555 301.847192 
Q 121.765555 303.434692 121.320555 304.809692 
Q 121.053055 305.652192 120.603055 306.192192 
Q 120.155555 306.729692 119.585555 307.047192 
Q 119.015555 307.364692 118.343055 307.364692 
Q 117.578055 307.364692 116.960555 306.974692 
Q 116.343055 306.582192 115.865555 305.854692 
Q 115.523055 305.324692 115.265555 304.442192 
Q 114.928055 303.247192 114.928055 301.972192 
Q 114.928055 300.247192 115.413055 298.799692 
Q 115.810555 297.604692 116.623055 296.969692 
Q 117.435555 296.332192 118.343055 296.332192 
Q 119.265555 296.332192 120.065555 296.962192 
Q 120.865555 297.589692 121.240555 298.652192 
Q 121.765555 300.112192 121.765555 301.847192 
z
M 119.358055 301.832192 
Q 119.358055 299.049692 119.328055 298.589692 
Q 119.248055 297.504692 118.953055 297.122192 
Q 118.758055 296.872192 118.320555 296.872192 
Q 117.983055 296.872192 117.788055 297.059692 
Q 117.498055 297.332192 117.395555 298.024692 
Q 117.295555 298.714692 117.295555 302.847192 
Q 117.295555 305.097192 117.453055 305.862192 
Q 117.570555 306.417192 117.788055 306.604692 
Q 118.008055 306.792192 118.365555 306.792192 
Q 118.758055 306.792192 118.953055 306.542192 
Q 119.280555 306.104692 119.328055 305.192192 
L 119.358055 301.832192 
z
M 124.350555 304.737192 
Q 124.898055 304.737192 125.275555 305.122192 
Q 125.655555 305.504692 125.655555 306.042192 
Q 125.655555 306.582192 125.273055 306.962192 
Q 124.890555 307.339692 124.350555 307.339692 
Q 123.810555 307.339692 123.430555 306.962192 
Q 123.053055 306.582192 123.053055 306.042192 
Q 123.053055 305.504692 123.430555 305.122192 
Q 123.810555 304.737192 124.350555 304.737192 
z
M 133.865555 296.332192 
L 133.865555 296.549692 
Q 132.453055 296.909692 131.595555 297.477192 
Q 130.740555 298.042192 130.243055 298.852192 
Q 129.748055 299.659692 129.475555 300.854692 
Q 129.820555 300.622192 130.045555 300.549692 
Q 130.553055 300.394692 131.070555 300.394692 
Q 132.258055 300.394692 133.050555 301.259692 
Q 133.843055 302.122192 133.843055 303.612192 
Q 133.843055 304.659692 133.413055 305.534692 
Q 132.983055 306.409692 132.193055 306.887192 
Q 131.405555 307.364692 130.508055 307.364692 
Q 129.530555 307.364692 128.700555 306.829692 
Q 127.873055 306.292192 127.408055 305.262192 
Q 126.945555 304.229692 126.945555 303.019692 
Q 126.945555 301.237192 127.800555 299.702192 
Q 128.655555 298.167192 130.228055 297.257192 
Q 131.803055 296.347192 133.865555 296.332192 
z
M 129.373055 301.487192 
Q 129.310555 302.567192 129.310555 303.067192 
Q 129.310555 304.144692 129.518055 305.152192 
Q 129.725555 306.159692 130.085555 306.567192 
Q 130.343055 306.854692 130.695555 306.854692 
Q 131.053055 306.854692 131.333055 306.437192 
Q 131.615555 306.019692 131.615555 304.737192 
Q 131.615555 302.582192 131.093055 301.762192 
Q 130.758055 301.229692 130.185555 301.229692 
Q 129.873055 301.229692 129.373055 301.487192 
z
"/>
   </g>
   <g id="text_25">
    <path d="M 386.749752 355.051032 
L 386.749752 363.716032 
Q 386.749752 364.691032 386.834752 364.961032 
Q 386.922252 365.231032 387.194752 365.403532 
Q 387.469752 365.573532 388.072252 365.573532 
L 388.312252 365.573532 
L 388.312252 365.863532 
L 382.734752 365.863532 
L 382.734752 365.573532 
L 383.017252 365.573532 
Q 383.697252 365.573532 383.984752 365.418532 
Q 384.274752 365.261032 384.374752 364.988532 
Q 384.477252 364.716032 384.477252 363.716032 
L 384.477252 358.223532 
Q 384.477252 357.488532 384.407252 357.306032 
Q 384.337252 357.121032 384.144752 356.993532 
Q 383.954752 356.863532 383.704752 356.863532 
Q 383.304752 356.863532 382.734752 357.113532 
L 382.594752 356.831032 
L 386.492252 355.051032 
L 386.749752 355.051032 
z
M 389.937252 361.871032 
L 394.969752 355.051032 
L 395.922252 355.051032 
L 395.922252 361.871032 
L 396.892252 361.871032 
L 396.892252 363.488532 
L 395.922252 363.488532 
L 395.922252 365.863532 
L 393.774752 365.863532 
L 393.774752 363.488532 
L 389.937252 363.488532 
L 389.937252 361.871032 
z
M 390.697252 361.871032 
L 393.774752 361.871032 
L 393.774752 357.691032 
L 390.697252 361.871032 
z
M 399.539752 363.456032 
Q 400.087252 363.456032 400.464752 363.841032 
Q 400.844752 364.223532 400.844752 364.761032 
Q 400.844752 365.301032 400.462252 365.681032 
Q 400.079752 366.058532 399.539752 366.058532 
Q 398.999752 366.058532 398.619752 365.681032 
Q 398.242252 365.301032 398.242252 364.761032 
Q 398.242252 364.223532 398.619752 363.841032 
Q 398.999752 363.456032 399.539752 363.456032 
z
M 403.907252 360.551032 
L 403.907252 360.278532 
Q 404.797252 360.018532 405.139752 359.796032 
Q 405.484752 359.573532 405.734752 359.118532 
Q 405.984752 358.661032 405.984752 358.191032 
Q 405.984752 357.543532 405.512252 357.078532 
Q 405.039752 356.613532 404.337252 356.613532 
Q 403.242252 356.613532 402.477252 357.768532 
L 402.187252 357.668532 
Q 402.749752 356.363532 403.629752 355.708532 
Q 404.509752 355.051032 405.587252 355.051032 
Q 406.687252 355.051032 407.402252 355.723532 
Q 408.117252 356.393532 408.117252 357.293532 
Q 408.117252 357.878532 407.784752 358.423532 
Q 407.454752 358.966032 406.742252 359.378532 
Q 407.657252 359.823532 408.137252 360.476032 
Q 408.617252 361.128532 408.617252 362.113532 
Q 408.617252 363.768532 407.417252 364.931032 
Q 406.219752 366.091032 404.204752 366.091032 
Q 402.859752 366.091032 402.242252 365.643532 
Q 401.797252 365.331032 401.797252 364.841032 
Q 401.797252 364.481032 402.054752 364.228532 
Q 402.312252 363.973532 402.649752 363.973532 
Q 402.907252 363.973532 403.134752 364.081032 
Q 403.259752 364.143532 404.019752 364.766032 
Q 404.782252 365.386032 405.447252 365.386032 
Q 406.024752 365.386032 406.437252 364.931032 
Q 406.852252 364.473532 406.852252 363.768532 
Q 406.852252 362.698532 406.102252 361.796032 
Q 405.352252 360.893532 403.907252 360.551032 
z
" style="stroke: #ffffff; stroke-width: 3.8"/>
    <path d="M 386.749752 355.051032 
L 386.749752 363.716032 
Q 386.749752 364.691032 386.834752 364.961032 
Q 386.922252 365.231032 387.194752 365.403532 
Q 387.469752 365.573532 388.072252 365.573532 
L 388.312252 365.573532 
L 388.312252 365.863532 
L 382.734752 365.863532 
L 382.734752 365.573532 
L 383.017252 365.573532 
Q 383.697252 365.573532 383.984752 365.418532 
Q 384.274752 365.261032 384.374752 364.988532 
Q 384.477252 364.716032 384.477252 363.716032 
L 384.477252 358.223532 
Q 384.477252 357.488532 384.407252 357.306032 
Q 384.337252 357.121032 384.144752 356.993532 
Q 383.954752 356.863532 383.704752 356.863532 
Q 383.304752 356.863532 382.734752 357.113532 
L 382.594752 356.831032 
L 386.492252 355.051032 
L 386.749752 355.051032 
z
M 389.937252 361.871032 
L 394.969752 355.051032 
L 395.922252 355.051032 
L 395.922252 361.871032 
L 396.892252 361.871032 
L 396.892252 363.488532 
L 395.922252 363.488532 
L 395.922252 365.863532 
L 393.774752 365.863532 
L 393.774752 363.488532 
L 389.937252 363.488532 
L 389.937252 361.871032 
z
M 390.697252 361.871032 
L 393.774752 361.871032 
L 393.774752 357.691032 
L 390.697252 361.871032 
z
M 399.539752 363.456032 
Q 400.087252 363.456032 400.464752 363.841032 
Q 400.844752 364.223532 400.844752 364.761032 
Q 400.844752 365.301032 400.462252 365.681032 
Q 400.079752 366.058532 399.539752 366.058532 
Q 398.999752 366.058532 398.619752 365.681032 
Q 398.242252 365.301032 398.242252 364.761032 
Q 398.242252 364.223532 398.619752 363.841032 
Q 398.999752 363.456032 399.539752 363.456032 
z
M 403.907252 360.551032 
L 403.907252 360.278532 
Q 404.797252 360.018532 405.139752 359.796032 
Q 405.484752 359.573532 405.734752 359.118532 
Q 405.984752 358.661032 405.984752 358.191032 
Q 405.984752 357.543532 405.512252 357.078532 
Q 405.039752 356.613532 404.337252 356.613532 
Q 403.242252 356.613532 402.477252 357.768532 
L 402.187252 357.668532 
Q 402.749752 356.363532 403.629752 355.708532 
Q 404.509752 355.051032 405.587252 355.051032 
Q 406.687252 355.051032 407.402252 355.723532 
Q 408.117252 356.393532 408.117252 357.293532 
Q 408.117252 357.878532 407.784752 358.423532 
Q 407.454752 358.966032 406.742252 359.378532 
Q 407.657252 359.823532 408.137252 360.476032 
Q 408.617252 361.128532 408.617252 362.113532 
Q 408.617252 363.768532 407.417252 364.931032 
Q 406.219752 366.091032 404.204752 366.091032 
Q 402.859752 366.091032 402.242252 365.643532 
Q 401.797252 365.331032 401.797252 364.841032 
Q 401.797252 364.481032 402.054752 364.228532 
Q 402.312252 363.973532 402.649752 363.973532 
Q 402.907252 363.973532 403.134752 364.081032 
Q 403.259752 364.143532 404.019752 364.766032 
Q 404.782252 365.386032 405.447252 365.386032 
Q 406.024752 365.386032 406.437252 364.931032 
Q 406.852252 364.473532 406.852252 363.768532 
Q 406.852252 362.698532 406.102252 361.796032 
Q 405.352252 360.893532 403.907252 360.551032 
z
"/>
   </g>
   <g id="text_26">
    <path d="M 358.662197 312.844729 
L 363.622197 312.844729 
L 362.834697 314.862229 
L 358.662197 314.862229 
L 358.264697 315.917229 
Q 360.959697 316.017229 362.412197 317.259729 
Q 363.607197 318.282229 363.607197 319.807229 
Q 363.607197 320.782229 363.052197 321.717229 
Q 362.497197 322.649729 361.489697 323.154729 
Q 360.482197 323.659729 359.279697 323.659729 
Q 357.982197 323.659729 357.287197 323.174729 
Q 356.802197 322.829729 356.802197 322.392229 
Q 356.802197 322.057229 357.054697 321.799729 
Q 357.309697 321.542229 357.647197 321.542229 
Q 357.952197 321.542229 358.264697 321.667229 
Q 358.577197 321.792229 359.334697 322.322229 
Q 359.809697 322.649729 360.154697 322.774729 
Q 360.397197 322.869729 360.702197 322.869729 
Q 361.342197 322.869729 361.789697 322.402229 
Q 362.239697 321.932229 362.239697 321.274729 
Q 362.239697 319.899729 360.864697 319.042229 
Q 359.489697 318.182229 357.397197 318.182229 
Q 357.184697 318.182229 356.764697 318.189729 
L 358.662197 312.844729 
z
M 371.639697 318.142229 
Q 371.639697 319.729729 371.194697 321.104729 
Q 370.927197 321.947229 370.477197 322.487229 
Q 370.029697 323.024729 369.459697 323.342229 
Q 368.889697 323.659729 368.217197 323.659729 
Q 367.452197 323.659729 366.834697 323.269729 
Q 366.217197 322.877229 365.739697 322.149729 
Q 365.397197 321.619729 365.139697 320.737229 
Q 364.802197 319.542229 364.802197 318.267229 
Q 364.802197 316.542229 365.287197 315.094729 
Q 365.684697 313.899729 366.497197 313.264729 
Q 367.309697 312.627229 368.217197 312.627229 
Q 369.139697 312.627229 369.939697 313.257229 
Q 370.739697 313.884729 371.114697 314.947229 
Q 371.639697 316.407229 371.639697 318.142229 
z
M 369.232197 318.127229 
Q 369.232197 315.344729 369.202197 314.884729 
Q 369.122197 313.799729 368.827197 313.417229 
Q 368.632197 313.167229 368.194697 313.167229 
Q 367.857197 313.167229 367.662197 313.354729 
Q 367.372197 313.627229 367.269697 314.319729 
Q 367.169697 315.009729 367.169697 319.142229 
Q 367.169697 321.392229 367.327197 322.157229 
Q 367.444697 322.712229 367.662197 322.899729 
Q 367.882197 323.087229 368.239697 323.087229 
Q 368.632197 323.087229 368.827197 322.837229 
Q 369.154697 322.399729 369.202197 321.487229 
L 369.232197 318.127229 
z
M 374.224697 321.032229 
Q 374.772197 321.032229 375.149697 321.417229 
Q 375.529697 321.799729 375.529697 322.337229 
Q 375.529697 322.877229 375.147197 323.257229 
Q 374.764697 323.634729 374.224697 323.634729 
Q 373.684697 323.634729 373.304697 323.257229 
Q 372.927197 322.877229 372.927197 322.337229 
Q 372.927197 321.799729 373.304697 321.417229 
Q 373.684697 321.032229 374.224697 321.032229 
z
M 383.639697 318.142229 
Q 383.639697 319.729729 383.194697 321.104729 
Q 382.927197 321.947229 382.477197 322.487229 
Q 382.029697 323.024729 381.459697 323.342229 
Q 380.889697 323.659729 380.217197 323.659729 
Q 379.452197 323.659729 378.834697 323.269729 
Q 378.217197 322.877229 377.739697 322.149729 
Q 377.397197 321.619729 377.139697 320.737229 
Q 376.802197 319.542229 376.802197 318.267229 
Q 376.802197 316.542229 377.287197 315.094729 
Q 377.684697 313.899729 378.497197 313.264729 
Q 379.309697 312.627229 380.217197 312.627229 
Q 381.139697 312.627229 381.939697 313.257229 
Q 382.739697 313.884729 383.114697 314.947229 
Q 383.639697 316.407229 383.639697 318.142229 
z
M 381.232197 318.127229 
Q 381.232197 315.344729 381.202197 314.884729 
Q 381.122197 313.799729 380.827197 313.417229 
Q 380.632197 313.167229 380.194697 313.167229 
Q 379.857197 313.167229 379.662197 313.354729 
Q 379.372197 313.627229 379.269697 314.319729 
Q 379.169697 315.009729 379.169697 319.142229 
Q 379.169697 321.392229 379.327197 322.157229 
Q 379.444697 322.712229 379.662197 322.899729 
Q 379.882197 323.087229 380.239697 323.087229 
Q 380.632197 323.087229 380.827197 322.837229 
Q 381.154697 322.399729 381.202197 321.487229 
L 381.232197 318.127229 
z
" style="stroke: #ffffff; stroke-width: 3.8"/>
    <path d="M 358.662197 312.844729 
L 363.622197 312.844729 
L 362.834697 314.862229 
L 358.662197 314.862229 
L 358.264697 315.917229 
Q 360.959697 316.017229 362.412197 317.259729 
Q 363.607197 318.282229 363.607197 319.807229 
Q 363.607197 320.782229 363.052197 321.717229 
Q 362.497197 322.649729 361.489697 323.154729 
Q 360.482197 323.659729 359.279697 323.659729 
Q 357.982197 323.659729 357.287197 323.174729 
Q 356.802197 322.829729 356.802197 322.392229 
Q 356.802197 322.057229 357.054697 321.799729 
Q 357.309697 321.542229 357.647197 321.542229 
Q 357.952197 321.542229 358.264697 321.667229 
Q 358.577197 321.792229 359.334697 322.322229 
Q 359.809697 322.649729 360.154697 322.774729 
Q 360.397197 322.869729 360.702197 322.869729 
Q 361.342197 322.869729 361.789697 322.402229 
Q 362.239697 321.932229 362.239697 321.274729 
Q 362.239697 319.899729 360.864697 319.042229 
Q 359.489697 318.182229 357.397197 318.182229 
Q 357.184697 318.182229 356.764697 318.189729 
L 358.662197 312.844729 
z
M 371.639697 318.142229 
Q 371.639697 319.729729 371.194697 321.104729 
Q 370.927197 321.947229 370.477197 322.487229 
Q 370.029697 323.024729 369.459697 323.342229 
Q 368.889697 323.659729 368.217197 323.659729 
Q 367.452197 323.659729 366.834697 323.269729 
Q 366.217197 322.877229 365.739697 322.149729 
Q 365.397197 321.619729 365.139697 320.737229 
Q 364.802197 319.542229 364.802197 318.267229 
Q 364.802197 316.542229 365.287197 315.094729 
Q 365.684697 313.899729 366.497197 313.264729 
Q 367.309697 312.627229 368.217197 312.627229 
Q 369.139697 312.627229 369.939697 313.257229 
Q 370.739697 313.884729 371.114697 314.947229 
Q 371.639697 316.407229 371.639697 318.142229 
z
M 369.232197 318.127229 
Q 369.232197 315.344729 369.202197 314.884729 
Q 369.122197 313.799729 368.827197 313.417229 
Q 368.632197 313.167229 368.194697 313.167229 
Q 367.857197 313.167229 367.662197 313.354729 
Q 367.372197 313.627229 367.269697 314.319729 
Q 367.169697 315.009729 367.169697 319.142229 
Q 367.169697 321.392229 367.327197 322.157229 
Q 367.444697 322.712229 367.662197 322.899729 
Q 367.882197 323.087229 368.239697 323.087229 
Q 368.632197 323.087229 368.827197 322.837229 
Q 369.154697 322.399729 369.202197 321.487229 
L 369.232197 318.127229 
z
M 374.224697 321.032229 
Q 374.772197 321.032229 375.149697 321.417229 
Q 375.529697 321.799729 375.529697 322.337229 
Q 375.529697 322.877229 375.147197 323.257229 
Q 374.764697 323.634729 374.224697 323.634729 
Q 373.684697 323.634729 373.304697 323.257229 
Q 372.927197 322.877229 372.927197 322.337229 
Q 372.927197 321.799729 373.304697 321.417229 
Q 373.684697 321.032229 374.224697 321.032229 
z
M 383.639697 318.142229 
Q 383.639697 319.729729 383.194697 321.104729 
Q 382.927197 321.947229 382.477197 322.487229 
Q 382.029697 323.024729 381.459697 323.342229 
Q 380.889697 323.659729 380.217197 323.659729 
Q 379.452197 323.659729 378.834697 323.269729 
Q 378.217197 322.877229 377.739697 322.149729 
Q 377.397197 321.619729 377.139697 320.737229 
Q 376.802197 319.542229 376.802197 318.267229 
Q 376.802197 316.542229 377.287197 315.094729 
Q 377.684697 313.899729 378.497197 313.264729 
Q 379.309697 312.627229 380.217197 312.627229 
Q 381.139697 312.627229 381.939697 313.257229 
Q 382.739697 313.884729 383.114697 314.947229 
Q 383.639697 316.407229 383.639697 318.142229 
z
M 381.232197 318.127229 
Q 381.232197 315.344729 381.202197 314.884729 
Q 381.122197 313.799729 380.827197 313.417229 
Q 380.632197 313.167229 380.194697 313.167229 
Q 379.857197 313.167229 379.662197 313.354729 
Q 379.372197 313.627229 379.269697 314.319729 
Q 379.169697 315.009729 379.169697 319.142229 
Q 379.169697 321.392229 379.327197 322.157229 
Q 379.444697 322.712229 379.662197 322.899729 
Q 379.882197 323.087229 380.239697 323.087229 
Q 380.632197 323.087229 380.827197 322.837229 
Q 381.154697 322.399729 381.202197 321.487229 
L 381.232197 318.127229 
z
"/>
   </g>
   <g id="text_27">
    <path d="M 357.874697 235.497119 
L 357.874697 244.162119 
Q 357.874697 245.137119 357.959697 245.407119 
Q 358.047197 245.677119 358.319697 245.849619 
Q 358.594697 246.019619 359.197197 246.019619 
L 359.437197 246.019619 
L 359.437197 246.309619 
L 353.859697 246.309619 
L 353.859697 246.019619 
L 354.142197 246.019619 
Q 354.822197 246.019619 355.109697 245.864619 
Q 355.399697 245.707119 355.499697 245.434619 
Q 355.602197 245.162119 355.602197 244.162119 
L 355.602197 238.669619 
Q 355.602197 237.934619 355.532197 237.752119 
Q 355.462197 237.567119 355.269697 237.439619 
Q 355.079697 237.309619 354.829697 237.309619 
Q 354.429697 237.309619 353.859697 237.559619 
L 353.719697 237.277119 
L 357.617197 235.497119 
L 357.874697 235.497119 
z
M 364.994697 235.497119 
L 364.994697 244.162119 
Q 364.994697 245.137119 365.079697 245.407119 
Q 365.167197 245.677119 365.439697 245.849619 
Q 365.714697 246.019619 366.317197 246.019619 
L 366.557197 246.019619 
L 366.557197 246.309619 
L 360.979697 246.309619 
L 360.979697 246.019619 
L 361.262197 246.019619 
Q 361.942197 246.019619 362.229697 245.864619 
Q 362.519697 245.707119 362.619697 245.434619 
Q 362.722197 245.162119 362.722197 244.162119 
L 362.722197 238.669619 
Q 362.722197 237.934619 362.652197 237.752119 
Q 362.582197 237.567119 362.389697 237.439619 
Q 362.199697 237.309619 361.949697 237.309619 
Q 361.549697 237.309619 360.979697 237.559619 
L 360.839697 237.277119 
L 364.737197 235.497119 
L 364.994697 235.497119 
z
M 370.152197 240.997119 
L 370.152197 240.724619 
Q 371.042197 240.464619 371.384697 240.242119 
Q 371.729697 240.019619 371.979697 239.564619 
Q 372.229697 239.107119 372.229697 238.637119 
Q 372.229697 237.989619 371.757197 237.524619 
Q 371.284697 237.059619 370.582197 237.059619 
Q 369.487197 237.059619 368.722197 238.214619 
L 368.432197 238.114619 
Q 368.994697 236.809619 369.874697 236.154619 
Q 370.754697 235.497119 371.832197 235.497119 
Q 372.932197 235.497119 373.647197 236.169619 
Q 374.362197 236.839619 374.362197 237.739619 
Q 374.362197 238.324619 374.029697 238.869619 
Q 373.699697 239.412119 372.987197 239.824619 
Q 373.902197 240.269619 374.382197 240.922119 
Q 374.862197 241.574619 374.862197 242.559619 
Q 374.862197 244.214619 373.662197 245.377119 
Q 372.464697 246.537119 370.449697 246.537119 
Q 369.104697 246.537119 368.487197 246.089619 
Q 368.042197 245.777119 368.042197 245.287119 
Q 368.042197 244.927119 368.299697 244.674619 
Q 368.557197 244.419619 368.894697 244.419619 
Q 369.152197 244.419619 369.379697 244.527119 
Q 369.504697 244.589619 370.264697 245.212119 
Q 371.027197 245.832119 371.692197 245.832119 
Q 372.269697 245.832119 372.682197 245.377119 
Q 373.097197 244.919619 373.097197 244.214619 
Q 373.097197 243.144619 372.347197 242.242119 
Q 371.597197 241.339619 370.152197 240.997119 
z
M 377.784697 243.902119 
Q 378.332197 243.902119 378.709697 244.287119 
Q 379.089697 244.669619 379.089697 245.207119 
Q 379.089697 245.747119 378.707197 246.127119 
Q 378.324697 246.504619 377.784697 246.504619 
Q 377.244697 246.504619 376.864697 246.127119 
Q 376.487197 245.747119 376.487197 245.207119 
Q 376.487197 244.669619 376.864697 244.287119 
Q 377.244697 243.902119 377.784697 243.902119 
z
M 384.994697 235.497119 
L 384.994697 244.162119 
Q 384.994697 245.137119 385.079697 245.407119 
Q 385.167197 245.677119 385.439697 245.849619 
Q 385.714697 246.019619 386.317197 246.019619 
L 386.557197 246.019619 
L 386.557197 246.309619 
L 380.979697 246.309619 
L 380.979697 246.019619 
L 381.262197 246.019619 
Q 381.942197 246.019619 382.229697 245.864619 
Q 382.519697 245.707119 382.619697 245.434619 
Q 382.722197 245.162119 382.722197 244.162119 
L 382.722197 238.669619 
Q 382.722197 237.934619 382.652197 237.752119 
Q 382.582197 237.567119 382.389697 237.439619 
Q 382.199697 237.309619 381.949697 237.309619 
Q 381.549697 237.309619 380.979697 237.559619 
L 380.839697 237.277119 
L 384.737197 235.497119 
L 384.994697 235.497119 
z
" style="stroke: #ffffff; stroke-width: 3.8"/>
    <path d="M 357.874697 235.497119 
L 357.874697 244.162119 
Q 357.874697 245.137119 357.959697 245.407119 
Q 358.047197 245.677119 358.319697 245.849619 
Q 358.594697 246.019619 359.197197 246.019619 
L 359.437197 246.019619 
L 359.437197 246.309619 
L 353.859697 246.309619 
L 353.859697 246.019619 
L 354.142197 246.019619 
Q 354.822197 246.019619 355.109697 245.864619 
Q 355.399697 245.707119 355.499697 245.434619 
Q 355.602197 245.162119 355.602197 244.162119 
L 355.602197 238.669619 
Q 355.602197 237.934619 355.532197 237.752119 
Q 355.462197 237.567119 355.269697 237.439619 
Q 355.079697 237.309619 354.829697 237.309619 
Q 354.429697 237.309619 353.859697 237.559619 
L 353.719697 237.277119 
L 357.617197 235.497119 
L 357.874697 235.497119 
z
M 364.994697 235.497119 
L 364.994697 244.162119 
Q 364.994697 245.137119 365.079697 245.407119 
Q 365.167197 245.677119 365.439697 245.849619 
Q 365.714697 246.019619 366.317197 246.019619 
L 366.557197 246.019619 
L 366.557197 246.309619 
L 360.979697 246.309619 
L 360.979697 246.019619 
L 361.262197 246.019619 
Q 361.942197 246.019619 362.229697 245.864619 
Q 362.519697 245.707119 362.619697 245.434619 
Q 362.722197 245.162119 362.722197 244.162119 
L 362.722197 238.669619 
Q 362.722197 237.934619 362.652197 237.752119 
Q 362.582197 237.567119 362.389697 237.439619 
Q 362.199697 237.309619 361.949697 237.309619 
Q 361.549697 237.309619 360.979697 237.559619 
L 360.839697 237.277119 
L 364.737197 235.497119 
L 364.994697 235.497119 
z
M 370.152197 240.997119 
L 370.152197 240.724619 
Q 371.042197 240.464619 371.384697 240.242119 
Q 371.729697 240.019619 371.979697 239.564619 
Q 372.229697 239.107119 372.229697 238.637119 
Q 372.229697 237.989619 371.757197 237.524619 
Q 371.284697 237.059619 370.582197 237.059619 
Q 369.487197 237.059619 368.722197 238.214619 
L 368.432197 238.114619 
Q 368.994697 236.809619 369.874697 236.154619 
Q 370.754697 235.497119 371.832197 235.497119 
Q 372.932197 235.497119 373.647197 236.169619 
Q 374.362197 236.839619 374.362197 237.739619 
Q 374.362197 238.324619 374.029697 238.869619 
Q 373.699697 239.412119 372.987197 239.824619 
Q 373.902197 240.269619 374.382197 240.922119 
Q 374.862197 241.574619 374.862197 242.559619 
Q 374.862197 244.214619 373.662197 245.377119 
Q 372.464697 246.537119 370.449697 246.537119 
Q 369.104697 246.537119 368.487197 246.089619 
Q 368.042197 245.777119 368.042197 245.287119 
Q 368.042197 244.927119 368.299697 244.674619 
Q 368.557197 244.419619 368.894697 244.419619 
Q 369.152197 244.419619 369.379697 244.527119 
Q 369.504697 244.589619 370.264697 245.212119 
Q 371.027197 245.832119 371.692197 245.832119 
Q 372.269697 245.832119 372.682197 245.377119 
Q 373.097197 244.919619 373.097197 244.214619 
Q 373.097197 243.144619 372.347197 242.242119 
Q 371.597197 241.339619 370.152197 240.997119 
z
M 377.784697 243.902119 
Q 378.332197 243.902119 378.709697 244.287119 
Q 379.089697 244.669619 379.089697 245.207119 
Q 379.089697 245.747119 378.707197 246.127119 
Q 378.324697 246.504619 377.784697 246.504619 
Q 377.244697 246.504619 376.864697 246.127119 
Q 376.487197 245.747119 376.487197 245.207119 
Q 376.487197 244.669619 376.864697 244.287119 
Q 377.244697 243.902119 377.784697 243.902119 
z
M 384.994697 235.497119 
L 384.994697 244.162119 
Q 384.994697 245.137119 385.079697 245.407119 
Q 385.167197 245.677119 385.439697 245.849619 
Q 385.714697 246.019619 386.317197 246.019619 
L 386.557197 246.019619 
L 386.557197 246.309619 
L 380.979697 246.309619 
L 380.979697 246.019619 
L 381.262197 246.019619 
Q 381.942197 246.019619 382.229697 245.864619 
Q 382.519697 245.707119 382.619697 245.434619 
Q 382.722197 245.162119 382.722197 244.162119 
L 382.722197 238.669619 
Q 382.722197 237.934619 382.652197 237.752119 
Q 382.582197 237.567119 382.389697 237.439619 
Q 382.199697 237.309619 381.949697 237.309619 
Q 381.549697 237.309619 380.979697 237.559619 
L 380.839697 237.277119 
L 384.737197 235.497119 
L 384.994697 235.497119 
z
"/>
   </g>
   <g id="text_28">
    <path d="M 581.363672 181.690824 
L 581.363672 190.355824 
Q 581.363672 191.330824 581.448672 191.600824 
Q 581.536172 191.870824 581.808672 192.043324 
Q 582.083672 192.213324 582.686172 192.213324 
L 582.926172 192.213324 
L 582.926172 192.503324 
L 577.348672 192.503324 
L 577.348672 192.213324 
L 577.631172 192.213324 
Q 578.311172 192.213324 578.598672 192.058324 
Q 578.888672 191.900824 578.988672 191.628324 
Q 579.091172 191.355824 579.091172 190.355824 
L 579.091172 184.863324 
Q 579.091172 184.128324 579.021172 183.945824 
Q 578.951172 183.760824 578.758672 183.633324 
Q 578.568672 183.503324 578.318672 183.503324 
Q 577.918672 183.503324 577.348672 183.753324 
L 577.208672 183.470824 
L 581.106172 181.690824 
L 581.363672 181.690824 
z
M 586.153672 190.095824 
Q 586.701172 190.095824 587.078672 190.480824 
Q 587.458672 190.863324 587.458672 191.400824 
Q 587.458672 191.940824 587.076172 192.320824 
Q 586.693672 192.698324 586.153672 192.698324 
Q 585.613672 192.698324 585.233672 192.320824 
Q 584.856172 191.940824 584.856172 191.400824 
Q 584.856172 190.863324 585.233672 190.480824 
Q 585.613672 190.095824 586.153672 190.095824 
z
M 593.606172 186.518324 
Q 594.723672 187.338324 595.156172 188.045824 
Q 595.591172 188.753324 595.591172 189.668324 
Q 595.591172 190.948324 594.626172 191.835824 
Q 593.661172 192.723324 592.006172 192.723324 
Q 590.436172 192.723324 589.576172 191.950824 
Q 588.716172 191.175824 588.716172 190.058324 
Q 588.716172 189.205824 589.211172 188.565824 
Q 589.708672 187.925824 590.863672 187.393324 
Q 589.606172 186.433324 589.251172 185.823324 
Q 588.896172 185.213324 588.896172 184.408324 
Q 588.896172 183.345824 589.798672 182.538324 
Q 590.701172 181.730824 592.271172 181.730824 
Q 593.786172 181.730824 594.601172 182.445824 
Q 595.418672 183.158324 595.418672 184.158324 
Q 595.418672 184.908324 594.976172 185.483324 
Q 594.536172 186.058324 593.606172 186.518324 
z
M 593.013672 186.120824 
Q 593.301172 185.730824 593.441172 185.245824 
Q 593.583672 184.760824 593.583672 184.183324 
Q 593.583672 183.168324 593.146172 182.628324 
Q 592.818672 182.213324 592.238672 182.213324 
Q 591.716172 182.213324 591.348672 182.593324 
Q 590.981172 182.970824 590.981172 183.533324 
Q 590.981172 184.105824 591.391172 184.718324 
Q 591.801172 185.330824 593.013672 186.120824 
z
M 591.451172 187.768324 
Q 591.208672 187.988324 591.106172 188.168324 
Q 590.951172 188.440824 590.826172 188.965824 
Q 590.701172 189.488324 590.701172 190.058324 
Q 590.701172 190.793324 590.888672 191.288324 
Q 591.076172 191.783324 591.423672 192.003324 
Q 591.771172 192.220824 592.138672 192.220824 
Q 592.708672 192.220824 593.098672 191.803324 
Q 593.488672 191.385824 593.488672 190.658324 
Q 593.488672 189.143324 591.451172 187.768324 
z
" style="stroke: #ffffff; stroke-width: 3.8"/>
    <path d="M 581.363672 181.690824 
L 581.363672 190.355824 
Q 581.363672 191.330824 581.448672 191.600824 
Q 581.536172 191.870824 581.808672 192.043324 
Q 582.083672 192.213324 582.686172 192.213324 
L 582.926172 192.213324 
L 582.926172 192.503324 
L 577.348672 192.503324 
L 577.348672 192.213324 
L 577.631172 192.213324 
Q 578.311172 192.213324 578.598672 192.058324 
Q 578.888672 191.900824 578.988672 191.628324 
Q 579.091172 191.355824 579.091172 190.355824 
L 579.091172 184.863324 
Q 579.091172 184.128324 579.021172 183.945824 
Q 578.951172 183.760824 578.758672 183.633324 
Q 578.568672 183.503324 578.318672 183.503324 
Q 577.918672 183.503324 577.348672 183.753324 
L 577.208672 183.470824 
L 581.106172 181.690824 
L 581.363672 181.690824 
z
M 586.153672 190.095824 
Q 586.701172 190.095824 587.078672 190.480824 
Q 587.458672 190.863324 587.458672 191.400824 
Q 587.458672 191.940824 587.076172 192.320824 
Q 586.693672 192.698324 586.153672 192.698324 
Q 585.613672 192.698324 585.233672 192.320824 
Q 584.856172 191.940824 584.856172 191.400824 
Q 584.856172 190.863324 585.233672 190.480824 
Q 585.613672 190.095824 586.153672 190.095824 
z
M 593.606172 186.518324 
Q 594.723672 187.338324 595.156172 188.045824 
Q 595.591172 188.753324 595.591172 189.668324 
Q 595.591172 190.948324 594.626172 191.835824 
Q 593.661172 192.723324 592.006172 192.723324 
Q 590.436172 192.723324 589.576172 191.950824 
Q 588.716172 191.175824 588.716172 190.058324 
Q 588.716172 189.205824 589.211172 188.565824 
Q 589.708672 187.925824 590.863672 187.393324 
Q 589.606172 186.433324 589.251172 185.823324 
Q 588.896172 185.213324 588.896172 184.408324 
Q 588.896172 183.345824 589.798672 182.538324 
Q 590.701172 181.730824 592.271172 181.730824 
Q 593.786172 181.730824 594.601172 182.445824 
Q 595.418672 183.158324 595.418672 184.158324 
Q 595.418672 184.908324 594.976172 185.483324 
Q 594.536172 186.058324 593.606172 186.518324 
z
M 593.013672 186.120824 
Q 593.301172 185.730824 593.441172 185.245824 
Q 593.583672 184.760824 593.583672 184.183324 
Q 593.583672 183.168324 593.146172 182.628324 
Q 592.818672 182.213324 592.238672 182.213324 
Q 591.716172 182.213324 591.348672 182.593324 
Q 590.981172 182.970824 590.981172 183.533324 
Q 590.981172 184.105824 591.391172 184.718324 
Q 591.801172 185.330824 593.013672 186.120824 
z
M 591.451172 187.768324 
Q 591.208672 187.988324 591.106172 188.168324 
Q 590.951172 188.440824 590.826172 188.965824 
Q 590.701172 189.488324 590.701172 190.058324 
Q 590.701172 190.793324 590.888672 191.288324 
Q 591.076172 191.783324 591.423672 192.003324 
Q 591.771172 192.220824 592.138672 192.220824 
Q 592.708672 192.220824 593.098672 191.803324 
Q 593.488672 191.385824 593.488672 190.658324 
Q 593.488672 189.143324 591.451172 187.768324 
z
"/>
   </g>
   <g id="text_29">
    <path d="M 603.329901 389.535796 
Q 603.329901 391.024078 602.912714 392.31314 
Q 602.661933 393.102984 602.240058 393.609234 
Q 601.820526 394.11314 601.286151 394.410796 
Q 600.751776 394.708453 600.121308 394.708453 
Q 599.40412 394.708453 598.825214 394.342828 
Q 598.246308 393.974859 597.798651 393.292828 
Q 597.477558 392.795953 597.236151 391.968609 
Q 596.919745 390.848296 596.919745 389.652984 
Q 596.919745 388.035796 597.374433 386.678765 
Q 597.747089 385.558453 598.508808 384.96314 
Q 599.270526 384.365484 600.121308 384.365484 
Q 600.986151 384.365484 601.736151 384.956109 
Q 602.486151 385.54439 602.837714 386.540484 
Q 603.329901 387.909234 603.329901 389.535796 
z
M 601.07287 389.521734 
Q 601.07287 386.91314 601.044745 386.48189 
Q 600.969745 385.464703 600.693183 385.106109 
Q 600.51037 384.871734 600.100214 384.871734 
Q 599.783808 384.871734 599.600995 385.047515 
Q 599.32912 385.302984 599.233026 385.952203 
Q 599.139276 386.599078 599.139276 390.473296 
Q 599.139276 392.582671 599.286933 393.299859 
Q 599.397089 393.820171 599.600995 393.995953 
Q 599.807245 394.171734 600.142401 394.171734 
Q 600.51037 394.171734 600.693183 393.937359 
Q 601.000214 393.527203 601.044745 392.671734 
L 601.07287 389.521734 
z
M 605.753339 392.245171 
Q 606.26662 392.245171 606.620526 392.606109 
Q 606.976776 392.964703 606.976776 393.468609 
Q 606.976776 393.974859 606.618183 394.331109 
Q 606.259589 394.685015 605.753339 394.685015 
Q 605.247089 394.685015 604.890839 394.331109 
Q 604.536933 393.974859 604.536933 393.468609 
Q 604.536933 392.964703 604.890839 392.606109 
Q 605.247089 392.245171 605.753339 392.245171 
z
M 613.839276 394.502203 
L 607.993964 394.502203 
L 607.993964 394.340484 
Q 610.682245 391.141265 611.256464 390.035015 
Q 611.833026 388.928765 611.833026 387.874078 
Q 611.833026 387.105328 611.357245 386.596734 
Q 610.881464 386.085796 610.192401 386.085796 
Q 609.065058 386.085796 608.44162 387.215484 
L 608.169745 387.11939 
Q 608.565839 385.71314 609.372089 385.040484 
Q 610.178339 384.365484 611.233026 384.365484 
Q 611.98537 384.365484 612.608808 384.717046 
Q 613.232245 385.068609 613.583808 385.680328 
Q 613.93537 386.292046 613.93537 386.826421 
Q 613.93537 387.801421 613.39162 388.804546 
Q 612.653339 390.159234 610.161933 392.582671 
L 612.308808 392.582671 
Q 613.098651 392.582671 613.337714 392.517046 
Q 613.576776 392.451421 613.72912 392.29439 
Q 613.883808 392.137359 614.132245 391.631109 
L 614.397089 391.631109 
L 613.839276 394.502203 
z
" style="fill: #404040; stroke: #ffffff; stroke-width: 3.8"/>
    <path d="M 603.329901 389.535796 
Q 603.329901 391.024078 602.912714 392.31314 
Q 602.661933 393.102984 602.240058 393.609234 
Q 601.820526 394.11314 601.286151 394.410796 
Q 600.751776 394.708453 600.121308 394.708453 
Q 599.40412 394.708453 598.825214 394.342828 
Q 598.246308 393.974859 597.798651 393.292828 
Q 597.477558 392.795953 597.236151 391.968609 
Q 596.919745 390.848296 596.919745 389.652984 
Q 596.919745 388.035796 597.374433 386.678765 
Q 597.747089 385.558453 598.508808 384.96314 
Q 599.270526 384.365484 600.121308 384.365484 
Q 600.986151 384.365484 601.736151 384.956109 
Q 602.486151 385.54439 602.837714 386.540484 
Q 603.329901 387.909234 603.329901 389.535796 
z
M 601.07287 389.521734 
Q 601.07287 386.91314 601.044745 386.48189 
Q 600.969745 385.464703 600.693183 385.106109 
Q 600.51037 384.871734 600.100214 384.871734 
Q 599.783808 384.871734 599.600995 385.047515 
Q 599.32912 385.302984 599.233026 385.952203 
Q 599.139276 386.599078 599.139276 390.473296 
Q 599.139276 392.582671 599.286933 393.299859 
Q 599.397089 393.820171 599.600995 393.995953 
Q 599.807245 394.171734 600.142401 394.171734 
Q 600.51037 394.171734 600.693183 393.937359 
Q 601.000214 393.527203 601.044745 392.671734 
L 601.07287 389.521734 
z
M 605.753339 392.245171 
Q 606.26662 392.245171 606.620526 392.606109 
Q 606.976776 392.964703 606.976776 393.468609 
Q 606.976776 393.974859 606.618183 394.331109 
Q 606.259589 394.685015 605.753339 394.685015 
Q 605.247089 394.685015 604.890839 394.331109 
Q 604.536933 393.974859 604.536933 393.468609 
Q 604.536933 392.964703 604.890839 392.606109 
Q 605.247089 392.245171 605.753339 392.245171 
z
M 613.839276 394.502203 
L 607.993964 394.502203 
L 607.993964 394.340484 
Q 610.682245 391.141265 611.256464 390.035015 
Q 611.833026 388.928765 611.833026 387.874078 
Q 611.833026 387.105328 611.357245 386.596734 
Q 610.881464 386.085796 610.192401 386.085796 
Q 609.065058 386.085796 608.44162 387.215484 
L 608.169745 387.11939 
Q 608.565839 385.71314 609.372089 385.040484 
Q 610.178339 384.365484 611.233026 384.365484 
Q 611.98537 384.365484 612.608808 384.717046 
Q 613.232245 385.068609 613.583808 385.680328 
Q 613.93537 386.292046 613.93537 386.826421 
Q 613.93537 387.801421 613.39162 388.804546 
Q 612.653339 390.159234 610.161933 392.582671 
L 612.308808 392.582671 
Q 613.098651 392.582671 613.337714 392.517046 
Q 613.576776 392.451421 613.72912 392.29439 
Q 613.883808 392.137359 614.132245 391.631109 
L 614.397089 391.631109 
L 613.839276 394.502203 
z
" style="fill: #404040"/>
   </g>
   <g id="text_30">
    <path d="M 573.452393 365.392738 
Q 573.452393 366.881019 573.035205 368.170082 
Q 572.784424 368.959926 572.362549 369.466176 
Q 571.943018 369.970082 571.408643 370.267738 
Q 570.874268 370.565394 570.243799 370.565394 
Q 569.526611 370.565394 568.947705 370.199769 
Q 568.368799 369.831801 567.921143 369.149769 
Q 567.600049 368.652894 567.358643 367.825551 
Q 567.042236 366.705238 567.042236 365.509926 
Q 567.042236 363.892738 567.496924 362.535707 
Q 567.86958 361.415394 568.631299 360.820082 
Q 569.393018 360.222426 570.243799 360.222426 
Q 571.108643 360.222426 571.858643 360.813051 
Q 572.608643 361.401332 572.960205 362.397426 
Q 573.452393 363.766176 573.452393 365.392738 
z
M 571.195361 365.378676 
Q 571.195361 362.770082 571.167236 362.338832 
Q 571.092236 361.321644 570.815674 360.963051 
Q 570.632861 360.728676 570.222705 360.728676 
Q 569.906299 360.728676 569.723486 360.904457 
Q 569.451611 361.159926 569.355518 361.809144 
Q 569.261768 362.456019 569.261768 366.330238 
Q 569.261768 368.439613 569.409424 369.156801 
Q 569.51958 369.677113 569.723486 369.852894 
Q 569.929736 370.028676 570.264893 370.028676 
Q 570.632861 370.028676 570.815674 369.794301 
Q 571.122705 369.384144 571.167236 368.528676 
L 571.195361 365.378676 
z
M 575.87583 368.102113 
Q 576.389111 368.102113 576.743018 368.463051 
Q 577.099268 368.821644 577.099268 369.325551 
Q 577.099268 369.831801 576.740674 370.188051 
Q 576.38208 370.541957 575.87583 370.541957 
Q 575.36958 370.541957 575.01333 370.188051 
Q 574.659424 369.831801 574.659424 369.325551 
Q 574.659424 368.821644 575.01333 368.463051 
Q 575.36958 368.102113 575.87583 368.102113 
z
M 584.702393 365.392738 
Q 584.702393 366.881019 584.285205 368.170082 
Q 584.034424 368.959926 583.612549 369.466176 
Q 583.193018 369.970082 582.658643 370.267738 
Q 582.124268 370.565394 581.493799 370.565394 
Q 580.776611 370.565394 580.197705 370.199769 
Q 579.618799 369.831801 579.171143 369.149769 
Q 578.850049 368.652894 578.608643 367.825551 
Q 578.292236 366.705238 578.292236 365.509926 
Q 578.292236 363.892738 578.746924 362.535707 
Q 579.11958 361.415394 579.881299 360.820082 
Q 580.643018 360.222426 581.493799 360.222426 
Q 582.358643 360.222426 583.108643 360.813051 
Q 583.858643 361.401332 584.210205 362.397426 
Q 584.702393 363.766176 584.702393 365.392738 
z
M 582.445361 365.378676 
Q 582.445361 362.770082 582.417236 362.338832 
Q 582.342236 361.321644 582.065674 360.963051 
Q 581.882861 360.728676 581.472705 360.728676 
Q 581.156299 360.728676 580.973486 360.904457 
Q 580.701611 361.159926 580.605518 361.809144 
Q 580.511768 362.456019 580.511768 366.330238 
Q 580.511768 368.439613 580.659424 369.156801 
Q 580.76958 369.677113 580.973486 369.852894 
Q 581.179736 370.028676 581.514893 370.028676 
Q 581.882861 370.028676 582.065674 369.794301 
Q 582.372705 369.384144 582.417236 368.528676 
L 582.445361 365.378676 
z
" style="fill: #404040; stroke: #ffffff; stroke-width: 3.8"/>
    <path d="M 573.452393 365.392738 
Q 573.452393 366.881019 573.035205 368.170082 
Q 572.784424 368.959926 572.362549 369.466176 
Q 571.943018 369.970082 571.408643 370.267738 
Q 570.874268 370.565394 570.243799 370.565394 
Q 569.526611 370.565394 568.947705 370.199769 
Q 568.368799 369.831801 567.921143 369.149769 
Q 567.600049 368.652894 567.358643 367.825551 
Q 567.042236 366.705238 567.042236 365.509926 
Q 567.042236 363.892738 567.496924 362.535707 
Q 567.86958 361.415394 568.631299 360.820082 
Q 569.393018 360.222426 570.243799 360.222426 
Q 571.108643 360.222426 571.858643 360.813051 
Q 572.608643 361.401332 572.960205 362.397426 
Q 573.452393 363.766176 573.452393 365.392738 
z
M 571.195361 365.378676 
Q 571.195361 362.770082 571.167236 362.338832 
Q 571.092236 361.321644 570.815674 360.963051 
Q 570.632861 360.728676 570.222705 360.728676 
Q 569.906299 360.728676 569.723486 360.904457 
Q 569.451611 361.159926 569.355518 361.809144 
Q 569.261768 362.456019 569.261768 366.330238 
Q 569.261768 368.439613 569.409424 369.156801 
Q 569.51958 369.677113 569.723486 369.852894 
Q 569.929736 370.028676 570.264893 370.028676 
Q 570.632861 370.028676 570.815674 369.794301 
Q 571.122705 369.384144 571.167236 368.528676 
L 571.195361 365.378676 
z
M 575.87583 368.102113 
Q 576.389111 368.102113 576.743018 368.463051 
Q 577.099268 368.821644 577.099268 369.325551 
Q 577.099268 369.831801 576.740674 370.188051 
Q 576.38208 370.541957 575.87583 370.541957 
Q 575.36958 370.541957 575.01333 370.188051 
Q 574.659424 369.831801 574.659424 369.325551 
Q 574.659424 368.821644 575.01333 368.463051 
Q 575.36958 368.102113 575.87583 368.102113 
z
M 584.702393 365.392738 
Q 584.702393 366.881019 584.285205 368.170082 
Q 584.034424 368.959926 583.612549 369.466176 
Q 583.193018 369.970082 582.658643 370.267738 
Q 582.124268 370.565394 581.493799 370.565394 
Q 580.776611 370.565394 580.197705 370.199769 
Q 579.618799 369.831801 579.171143 369.149769 
Q 578.850049 368.652894 578.608643 367.825551 
Q 578.292236 366.705238 578.292236 365.509926 
Q 578.292236 363.892738 578.746924 362.535707 
Q 579.11958 361.415394 579.881299 360.820082 
Q 580.643018 360.222426 581.493799 360.222426 
Q 582.358643 360.222426 583.108643 360.813051 
Q 583.858643 361.401332 584.210205 362.397426 
Q 584.702393 363.766176 584.702393 365.392738 
z
M 582.445361 365.378676 
Q 582.445361 362.770082 582.417236 362.338832 
Q 582.342236 361.321644 582.065674 360.963051 
Q 581.882861 360.728676 581.472705 360.728676 
Q 581.156299 360.728676 580.973486 360.904457 
Q 580.701611 361.159926 580.605518 361.809144 
Q 580.511768 362.456019 580.511768 366.330238 
Q 580.511768 368.439613 580.659424 369.156801 
Q 580.76958 369.677113 580.973486 369.852894 
Q 581.179736 370.028676 581.514893 370.028676 
Q 581.882861 370.028676 582.065674 369.794301 
Q 582.372705 369.384144 582.417236 368.528676 
L 582.445361 365.378676 
z
" style="fill: #404040"/>
   </g>
   <g id="text_31">
    <path d="M 532.3236 321.172862 
L 532.3236 320.917393 
Q 533.157975 320.673643 533.479068 320.465049 
Q 533.802506 320.256455 534.036881 319.829893 
Q 534.271256 319.400987 534.271256 318.960362 
Q 534.271256 318.35333 533.828287 317.917393 
Q 533.385318 317.481455 532.726725 317.481455 
Q 531.700162 317.481455 530.982975 318.564268 
L 530.7111 318.470518 
Q 531.238443 317.24708 532.063443 316.633018 
Q 532.888443 316.016612 533.8986 316.016612 
Q 534.92985 316.016612 535.600162 316.64708 
Q 536.270475 317.275205 536.270475 318.118955 
Q 536.270475 318.667393 535.958756 319.17833 
Q 535.649381 319.686924 534.981412 320.073643 
Q 535.839225 320.49083 536.289225 321.102549 
Q 536.739225 321.714268 536.739225 322.637705 
Q 536.739225 324.189268 535.614225 325.279112 
Q 534.491568 326.366612 532.602506 326.366612 
Q 531.341568 326.366612 530.762662 325.94708 
Q 530.345475 325.654112 530.345475 325.194737 
Q 530.345475 324.857237 530.586881 324.620518 
Q 530.828287 324.381455 531.144693 324.381455 
Q 531.3861 324.381455 531.599381 324.482237 
Q 531.716568 324.54083 532.429068 325.124424 
Q 533.143912 325.705674 533.76735 325.705674 
Q 534.308756 325.705674 534.695475 325.279112 
Q 535.084537 324.850205 535.084537 324.189268 
Q 535.084537 323.186143 534.381412 322.340049 
Q 533.678287 321.493955 532.3236 321.172862 
z
M 539.479068 323.896299 
Q 539.99235 323.896299 540.346256 324.257237 
Q 540.702506 324.61583 540.702506 325.119737 
Q 540.702506 325.625987 540.343912 325.982237 
Q 539.985318 326.336143 539.479068 326.336143 
Q 538.972818 326.336143 538.616568 325.982237 
Q 538.262662 325.625987 538.262662 325.119737 
Q 538.262662 324.61583 538.616568 324.257237 
Q 538.972818 323.896299 539.479068 323.896299 
z
M 543.639225 316.220518 
L 548.289225 316.220518 
L 547.550943 318.111924 
L 543.639225 318.111924 
L 543.266568 319.100987 
Q 545.793131 319.194737 547.15485 320.35958 
Q 548.275162 321.318174 548.275162 322.747862 
Q 548.275162 323.661924 547.75485 324.538487 
Q 547.234537 325.412705 546.290006 325.886143 
Q 545.345475 326.35958 544.218131 326.35958 
Q 543.001725 326.35958 542.350162 325.904893 
Q 541.895475 325.581455 541.895475 325.171299 
Q 541.895475 324.857237 542.132193 324.61583 
Q 542.371256 324.374424 542.687662 324.374424 
Q 542.9736 324.374424 543.266568 324.491612 
Q 543.559537 324.608799 544.269693 325.105674 
Q 544.715006 325.412705 545.038443 325.529893 
Q 545.265787 325.618955 545.551725 325.618955 
Q 546.151725 325.618955 546.571256 325.180674 
Q 546.993131 324.740049 546.993131 324.123643 
Q 546.993131 322.83458 545.704068 322.030674 
Q 544.415006 321.224424 542.453287 321.224424 
Q 542.254068 321.224424 541.860318 321.231455 
L 543.639225 316.220518 
z
" style="fill: #404040; stroke: #ffffff; stroke-width: 3.8"/>
    <path d="M 532.3236 321.172862 
L 532.3236 320.917393 
Q 533.157975 320.673643 533.479068 320.465049 
Q 533.802506 320.256455 534.036881 319.829893 
Q 534.271256 319.400987 534.271256 318.960362 
Q 534.271256 318.35333 533.828287 317.917393 
Q 533.385318 317.481455 532.726725 317.481455 
Q 531.700162 317.481455 530.982975 318.564268 
L 530.7111 318.470518 
Q 531.238443 317.24708 532.063443 316.633018 
Q 532.888443 316.016612 533.8986 316.016612 
Q 534.92985 316.016612 535.600162 316.64708 
Q 536.270475 317.275205 536.270475 318.118955 
Q 536.270475 318.667393 535.958756 319.17833 
Q 535.649381 319.686924 534.981412 320.073643 
Q 535.839225 320.49083 536.289225 321.102549 
Q 536.739225 321.714268 536.739225 322.637705 
Q 536.739225 324.189268 535.614225 325.279112 
Q 534.491568 326.366612 532.602506 326.366612 
Q 531.341568 326.366612 530.762662 325.94708 
Q 530.345475 325.654112 530.345475 325.194737 
Q 530.345475 324.857237 530.586881 324.620518 
Q 530.828287 324.381455 531.144693 324.381455 
Q 531.3861 324.381455 531.599381 324.482237 
Q 531.716568 324.54083 532.429068 325.124424 
Q 533.143912 325.705674 533.76735 325.705674 
Q 534.308756 325.705674 534.695475 325.279112 
Q 535.084537 324.850205 535.084537 324.189268 
Q 535.084537 323.186143 534.381412 322.340049 
Q 533.678287 321.493955 532.3236 321.172862 
z
M 539.479068 323.896299 
Q 539.99235 323.896299 540.346256 324.257237 
Q 540.702506 324.61583 540.702506 325.119737 
Q 540.702506 325.625987 540.343912 325.982237 
Q 539.985318 326.336143 539.479068 326.336143 
Q 538.972818 326.336143 538.616568 325.982237 
Q 538.262662 325.625987 538.262662 325.119737 
Q 538.262662 324.61583 538.616568 324.257237 
Q 538.972818 323.896299 539.479068 323.896299 
z
M 543.639225 316.220518 
L 548.289225 316.220518 
L 547.550943 318.111924 
L 543.639225 318.111924 
L 543.266568 319.100987 
Q 545.793131 319.194737 547.15485 320.35958 
Q 548.275162 321.318174 548.275162 322.747862 
Q 548.275162 323.661924 547.75485 324.538487 
Q 547.234537 325.412705 546.290006 325.886143 
Q 545.345475 326.35958 544.218131 326.35958 
Q 543.001725 326.35958 542.350162 325.904893 
Q 541.895475 325.581455 541.895475 325.171299 
Q 541.895475 324.857237 542.132193 324.61583 
Q 542.371256 324.374424 542.687662 324.374424 
Q 542.9736 324.374424 543.266568 324.491612 
Q 543.559537 324.608799 544.269693 325.105674 
Q 544.715006 325.412705 545.038443 325.529893 
Q 545.265787 325.618955 545.551725 325.618955 
Q 546.151725 325.618955 546.571256 325.180674 
Q 546.993131 324.740049 546.993131 324.123643 
Q 546.993131 322.83458 545.704068 322.030674 
Q 544.415006 321.224424 542.453287 321.224424 
Q 542.254068 321.224424 541.860318 321.231455 
L 543.639225 316.220518 
z
" style="fill: #404040"/>
   </g>
   <g id="text_32">
    <path d="M 324.455804 397.399032 
L 324.455804 405.52247 
Q 324.455804 406.436532 324.535492 406.689657 
Q 324.617523 406.942782 324.872992 407.104501 
Q 325.130804 407.263876 325.695648 407.263876 
L 325.920648 407.263876 
L 325.920648 407.535751 
L 320.691742 407.535751 
L 320.691742 407.263876 
L 320.956586 407.263876 
Q 321.594086 407.263876 321.863617 407.118564 
Q 322.135492 406.970907 322.229242 406.715439 
Q 322.325336 406.45997 322.325336 405.52247 
L 322.325336 400.373251 
Q 322.325336 399.684189 322.259711 399.513095 
Q 322.194086 399.339657 322.013617 399.220126 
Q 321.835492 399.098251 321.601117 399.098251 
Q 321.226117 399.098251 320.691742 399.332626 
L 320.560492 399.067782 
L 324.214398 397.399032 
L 324.455804 397.399032 
z
M 334.022992 402.569345 
Q 334.022992 404.057626 333.605804 405.346689 
Q 333.355023 406.136532 332.933148 406.642782 
Q 332.513617 407.146689 331.979242 407.444345 
Q 331.444867 407.742001 330.814398 407.742001 
Q 330.097211 407.742001 329.518304 407.376376 
Q 328.939398 407.008407 328.491742 406.326376 
Q 328.170648 405.829501 327.929242 405.002157 
Q 327.612836 403.881845 327.612836 402.686532 
Q 327.612836 401.069345 328.067523 399.712314 
Q 328.440179 398.592001 329.201898 397.996689 
Q 329.963617 397.399032 330.814398 397.399032 
Q 331.679242 397.399032 332.429242 397.989657 
Q 333.179242 398.577939 333.530804 399.574032 
Q 334.022992 400.942782 334.022992 402.569345 
z
M 331.765961 402.555282 
Q 331.765961 399.946689 331.737836 399.515439 
Q 331.662836 398.498251 331.386273 398.139657 
Q 331.203461 397.905282 330.793304 397.905282 
Q 330.476898 397.905282 330.294086 398.081064 
Q 330.022211 398.336532 329.926117 398.985751 
Q 329.832367 399.632626 329.832367 403.506845 
Q 329.832367 405.61622 329.980023 406.333407 
Q 330.090179 406.85372 330.294086 407.029501 
Q 330.500336 407.205282 330.835492 407.205282 
Q 331.203461 407.205282 331.386273 406.970907 
Q 331.693304 406.560751 331.737836 405.705282 
L 331.765961 402.555282 
z
M 336.446429 405.27872 
Q 336.959711 405.27872 337.313617 405.639657 
Q 337.669867 405.998251 337.669867 406.502157 
Q 337.669867 407.008407 337.311273 407.364657 
Q 336.952679 407.718564 336.446429 407.718564 
Q 335.940179 407.718564 335.583929 407.364657 
Q 335.230023 407.008407 335.230023 406.502157 
Q 335.230023 405.998251 335.583929 405.639657 
Q 335.940179 405.27872 336.446429 405.27872 
z
M 338.783148 407.742001 
L 338.783148 407.535751 
Q 339.999554 407.256845 340.845648 406.715439 
Q 341.691742 406.174032 342.183929 405.374814 
Q 342.678461 404.575595 342.877679 403.537314 
Q 342.422992 403.771689 342.104242 403.863095 
Q 341.785492 403.954501 341.433929 403.954501 
Q 340.306586 403.954501 339.554242 403.14122 
Q 338.804242 402.327939 338.804242 400.914657 
Q 338.804242 399.932626 339.209711 399.117001 
Q 339.617523 398.299032 340.372211 397.849032 
Q 341.126898 397.399032 341.940179 397.399032 
Q 342.812054 397.399032 343.587836 397.898251 
Q 344.363617 398.395126 344.825336 399.339657 
Q 345.287054 400.284189 345.287054 401.493564 
Q 345.287054 403.061532 344.534711 404.498251 
Q 343.784711 405.932626 342.298773 406.799814 
Q 340.812836 407.667001 338.783148 407.742001 
z
M 342.987836 402.920907 
Q 343.060492 402.100595 343.060492 401.479501 
Q 343.060492 400.145907 342.753461 398.995126 
Q 342.577679 398.357626 342.233148 398.057626 
Q 342.050336 397.895907 341.757367 397.895907 
Q 341.389398 397.895907 341.185492 398.212314 
Q 340.899554 398.643564 340.899554 399.85997 
Q 340.899554 401.889657 341.382367 402.658407 
Q 341.698773 403.155282 342.233148 403.155282 
Q 342.519086 403.155282 342.987836 402.920907 
z
" style="fill: #404040; stroke: #ffffff; stroke-width: 3.8"/>
    <path d="M 324.455804 397.399032 
L 324.455804 405.52247 
Q 324.455804 406.436532 324.535492 406.689657 
Q 324.617523 406.942782 324.872992 407.104501 
Q 325.130804 407.263876 325.695648 407.263876 
L 325.920648 407.263876 
L 325.920648 407.535751 
L 320.691742 407.535751 
L 320.691742 407.263876 
L 320.956586 407.263876 
Q 321.594086 407.263876 321.863617 407.118564 
Q 322.135492 406.970907 322.229242 406.715439 
Q 322.325336 406.45997 322.325336 405.52247 
L 322.325336 400.373251 
Q 322.325336 399.684189 322.259711 399.513095 
Q 322.194086 399.339657 322.013617 399.220126 
Q 321.835492 399.098251 321.601117 399.098251 
Q 321.226117 399.098251 320.691742 399.332626 
L 320.560492 399.067782 
L 324.214398 397.399032 
L 324.455804 397.399032 
z
M 334.022992 402.569345 
Q 334.022992 404.057626 333.605804 405.346689 
Q 333.355023 406.136532 332.933148 406.642782 
Q 332.513617 407.146689 331.979242 407.444345 
Q 331.444867 407.742001 330.814398 407.742001 
Q 330.097211 407.742001 329.518304 407.376376 
Q 328.939398 407.008407 328.491742 406.326376 
Q 328.170648 405.829501 327.929242 405.002157 
Q 327.612836 403.881845 327.612836 402.686532 
Q 327.612836 401.069345 328.067523 399.712314 
Q 328.440179 398.592001 329.201898 397.996689 
Q 329.963617 397.399032 330.814398 397.399032 
Q 331.679242 397.399032 332.429242 397.989657 
Q 333.179242 398.577939 333.530804 399.574032 
Q 334.022992 400.942782 334.022992 402.569345 
z
M 331.765961 402.555282 
Q 331.765961 399.946689 331.737836 399.515439 
Q 331.662836 398.498251 331.386273 398.139657 
Q 331.203461 397.905282 330.793304 397.905282 
Q 330.476898 397.905282 330.294086 398.081064 
Q 330.022211 398.336532 329.926117 398.985751 
Q 329.832367 399.632626 329.832367 403.506845 
Q 329.832367 405.61622 329.980023 406.333407 
Q 330.090179 406.85372 330.294086 407.029501 
Q 330.500336 407.205282 330.835492 407.205282 
Q 331.203461 407.205282 331.386273 406.970907 
Q 331.693304 406.560751 331.737836 405.705282 
L 331.765961 402.555282 
z
M 336.446429 405.27872 
Q 336.959711 405.27872 337.313617 405.639657 
Q 337.669867 405.998251 337.669867 406.502157 
Q 337.669867 407.008407 337.311273 407.364657 
Q 336.952679 407.718564 336.446429 407.718564 
Q 335.940179 407.718564 335.583929 407.364657 
Q 335.230023 407.008407 335.230023 406.502157 
Q 335.230023 405.998251 335.583929 405.639657 
Q 335.940179 405.27872 336.446429 405.27872 
z
M 338.783148 407.742001 
L 338.783148 407.535751 
Q 339.999554 407.256845 340.845648 406.715439 
Q 341.691742 406.174032 342.183929 405.374814 
Q 342.678461 404.575595 342.877679 403.537314 
Q 342.422992 403.771689 342.104242 403.863095 
Q 341.785492 403.954501 341.433929 403.954501 
Q 340.306586 403.954501 339.554242 403.14122 
Q 338.804242 402.327939 338.804242 400.914657 
Q 338.804242 399.932626 339.209711 399.117001 
Q 339.617523 398.299032 340.372211 397.849032 
Q 341.126898 397.399032 341.940179 397.399032 
Q 342.812054 397.399032 343.587836 397.898251 
Q 344.363617 398.395126 344.825336 399.339657 
Q 345.287054 400.284189 345.287054 401.493564 
Q 345.287054 403.061532 344.534711 404.498251 
Q 343.784711 405.932626 342.298773 406.799814 
Q 340.812836 407.667001 338.783148 407.742001 
z
M 342.987836 402.920907 
Q 343.060492 402.100595 343.060492 401.479501 
Q 343.060492 400.145907 342.753461 398.995126 
Q 342.577679 398.357626 342.233148 398.057626 
Q 342.050336 397.895907 341.757367 397.895907 
Q 341.389398 397.895907 341.185492 398.212314 
Q 340.899554 398.643564 340.899554 399.85997 
Q 340.899554 401.889657 341.382367 402.658407 
Q 341.698773 403.155282 342.233148 403.155282 
Q 342.519086 403.155282 342.987836 402.920907 
z
" style="fill: #404040"/>
   </g>
  </g>
 </g>
 <defs>
  <clipPath id="p944cb0385d">
   <rect x="7.2" y="51.034687" width="730.764" height="434.511496"/>
  </clipPath>
 </defs>
</svg>
