<?xml version="1.0" encoding="utf-8" standalone="no"?>
<!DOCTYPE svg PUBLIC "-//W3C//DTD SVG 1.1//EN"
  "http://www.w3.org/Graphics/SVG/1.1/DTD/svg11.dtd">
<svg xmlns:xlink="http://www.w3.org/1999/xlink" width="745.164pt" height="495.769973pt" viewBox="0 0 745.164 495.769973" xmlns="http://www.w3.org/2000/svg" version="1.1">
 <metadata>
  <rdf:RDF xmlns:dc="http://purl.org/dc/elements/1.1/" xmlns:cc="http://creativecommons.org/ns#" xmlns:rdf="http://www.w3.org/1999/02/22-rdf-syntax-ns#">
   <cc:Work>
    <dc:type rdf:resource="http://purl.org/dc/dcmitype/StillImage"/>
    <dc:date>2026-07-13T16:58:57.347973</dc:date>
    <dc:format>image/svg+xml</dc:format>
    <dc:creator>
     <cc:Agent>
      <dc:title>Matplotlib v3.10.8, https://matplotlib.org/</dc:title>
     </cc:Agent>
    </dc:creator>
   </cc:Work>
  </rdf:RDF>
 </metadata>
 <defs>
  <style type="text/css">*{stroke-linejoin: round; stroke-linecap: butt}</style>
 </defs>
 <g id="figure_1">
  <g id="patch_1">
   <path d="M 0 495.769973 
L 745.164 495.769973 
L 745.164 0 
L 0 0 
L 0 495.769973 
z
" style="fill: none"/>
  </g>
  <g id="axes_1">
   <g id="patch_2">
    <path d="M 120.350555 428.812958 
Q 120.350555 453.653927 120.350555 475.71912 
" clip-path="url(#p487344115a)" style="fill: none; stroke: #111111; stroke-width: 2.482729; stroke-linejoin: miter; stroke-linecap: round"/>
    <path d="M 124.089028 468.242174 
L 120.350555 475.71912 
L 116.612082 468.242174 
z
" clip-path="url(#p487344115a)" style="fill: #111111; stroke: #111111; stroke-width: 2.482729; stroke-linejoin: miter; stroke-linecap: round"/>
   </g>
   <g id="patch_3">
    <path d="M 120.350555 314.976618 
Q 120.350555 342.138028 120.350555 364.673648 
" clip-path="url(#p487344115a)" style="fill: none; stroke: #111111; stroke-width: 4.137432; stroke-linejoin: miter; stroke-linecap: round"/>
    <path d="M 124.618533 356.137692 
L 120.350555 364.673648 
L 116.082577 356.137692 
z
" clip-path="url(#p487344115a)" style="fill: #111111; stroke: #111111; stroke-width: 4.137432; stroke-linejoin: miter; stroke-linecap: round"/>
   </g>
   <g id="patch_4">
    <path d="M 120.350555 193.72176 
Q 120.350555 222.271987 120.350555 244.649362 
" clip-path="url(#p487344115a)" style="fill: none; stroke: #111111; stroke-width: 5.521168; stroke-linejoin: miter; stroke-linecap: round"/>
    <path d="M 125.061329 235.227814 
L 120.350555 244.649362 
L 115.639781 235.227814 
z
" clip-path="url(#p487344115a)" style="fill: #111111; stroke: #111111; stroke-width: 5.521168; stroke-linejoin: miter; stroke-linecap: round"/>
   </g>
   <g id="patch_5">
    <path d="M 370.224697 248.921566 
Q 370.224697 274.829956 370.224697 297.426358 
" clip-path="url(#p487344115a)" style="fill: none; stroke: #111111; stroke-width: 2.962332; stroke-linejoin: miter; stroke-linecap: round"/>
    <path d="M 374.116643 289.642466 
L 370.224697 297.426358 
L 366.33275 289.642466 
z
" clip-path="url(#p487344115a)" style="fill: #111111; stroke: #111111; stroke-width: 2.962332; stroke-linejoin: miter; stroke-linecap: round"/>
   </g>
   <g id="patch_6">
    <path d="M 370.224697 159.355989 
Q 370.224697 173.314596 370.224697 185.668622 
" clip-path="url(#p487344115a)" style="fill: none; stroke: #111111; stroke-width: 1.43518; stroke-linejoin: miter; stroke-linecap: round"/>
    <path d="M 373.627954 178.862107 
L 370.224697 185.668622 
L 366.821439 178.862107 
z
" clip-path="url(#p487344115a)" style="fill: #111111; stroke: #111111; stroke-width: 1.43518; stroke-linejoin: miter; stroke-linecap: round"/>
   </g>
   <g id="patch_7">
    <path d="M 370.224697 114.269787 
Q 370.224697 117.938489 370.224697 115.122595 
" clip-path="url(#p487344115a)" style="fill: none; stroke: #111111; stroke-width: 5.8; stroke-linejoin: miter; stroke-linecap: round"/>
    <path d="M 375.024697 105.522595 
L 370.224697 115.122595 
L 365.424697 105.522595 
z
" clip-path="url(#p487344115a)" style="fill: #111111; stroke: #111111; stroke-width: 5.8; stroke-linejoin: miter; stroke-linecap: round"/>
   </g>
   <g id="patch_8">
    <path d="M 586.153672 180.286632 
Q 586.153672 210.360461 586.153672 235.5781 
" clip-path="url(#p487344115a)" style="fill: none; stroke: #111111; stroke-width: 4.343509; stroke-linejoin: miter; stroke-linecap: round"/>
    <path d="M 590.487595 226.910254 
L 586.153672 235.5781 
L 581.819749 226.910254 
z
" clip-path="url(#p487344115a)" style="fill: #111111; stroke: #111111; stroke-width: 4.343509; stroke-linejoin: miter; stroke-linecap: round"/>
   </g>
   <g id="line2d_1">
    <path d="M 165.610777 478.494895 
L 550.322663 478.494895 
" clip-path="url(#p487344115a)" style="fill: none; stroke-dasharray: 5.6,4.2; stroke-dashoffset: 0; stroke: #404040; stroke-width: 1.4"/>
   </g>
   <g id="line2d_2">
    <path d="M 165.610777 369.299437 
L 550.322663 369.299437 
" clip-path="url(#p487344115a)" style="fill: none; stroke-dasharray: 5.6,4.2; stroke-dashoffset: 0; stroke: #404040; stroke-width: 1.4"/>
   </g>
   <g id="line2d_3">
    <path d="M 415.484919 300.738346 
L 560.694797 300.738346 
" clip-path="url(#p487344115a)" style="fill: none; stroke-dasharray: 5.6,4.2; stroke-dashoffset: 0; stroke: #404040; stroke-width: 1.4"/>
   </g>
   <g id="patch_9">
    <path d="M 665.359061 240.434291 
Q 585.359741 356.992665 505.99491 472.626596 
" clip-path="url(#p487344115a)" style="fill: none; stroke: #404040; stroke-width: 1.002865; stroke-linejoin: miter; stroke-linecap: round"/>
    <path d="M 511.604697 469.520704 
L 505.99491 472.626596 
L 506.876069 466.275231 
z
" clip-path="url(#p487344115a)" style="fill: #404040; stroke: #404040; stroke-width: 1.002865; stroke-linejoin: miter; stroke-linecap: round"/>
   </g>
   <g id="patch_10">
    <path d="M 620.098839 240.434291 
Q 577.572251 302.395192 537.291126 361.084472 
" clip-path="url(#p487344115a)" style="fill: none; stroke: #404040; stroke-width: 3.549153; stroke-linejoin: miter; stroke-linecap: round"/>
    <path d="M 544.561306 357.059294 
L 537.291126 361.084472 
L 538.433092 352.853221 
z
" clip-path="url(#p487344115a)" style="fill: #404040; stroke: #404040; stroke-width: 3.549153; stroke-linejoin: miter; stroke-linecap: round"/>
   </g>
   <g id="patch_11">
    <path d="M 574.838617 240.434291 
Q 541.761339 268.640166 509.485985 296.162219 
" clip-path="url(#p487344115a)" style="fill: none; stroke: #404040; stroke-width: 0.942632; stroke-linejoin: miter; stroke-linecap: round"/>
    <path d="M 515.667095 294.633687 
L 509.485985 296.162219 
L 511.971825 290.300212 
z
" clip-path="url(#p487344115a)" style="fill: #404040; stroke: #404040; stroke-width: 0.942632; stroke-linejoin: miter; stroke-linecap: round"/>
   </g>
   <g id="patch_12">
    <path d="M 370.224697 300.738346 
Q 334.91253 332.994574 302.544186 362.561739 
" clip-path="url(#p487344115a)" style="fill: none; stroke: #404040; stroke-width: 3.566191; stroke-linejoin: miter; stroke-linecap: round"/>
    <path d="M 310.550725 360.289267 
L 302.544186 362.561739 
L 305.530132 354.793025 
z
" clip-path="url(#p487344115a)" style="fill: #404040; stroke: #404040; stroke-width: 3.566191; stroke-linejoin: miter; stroke-linecap: round"/>
   </g>
   <g id="line2d_4">
    <path d="M 120.350555 369.299437 
L 120.350555 418.981374 
" clip-path="url(#p487344115a)" style="fill: none; stroke: #111111; stroke-width: 2.482729"/>
   </g>
   <g id="line2d_5">
    <path d="M 120.350555 250.822215 
L 120.350555 305.145034 
" clip-path="url(#p487344115a)" style="fill: none; stroke: #111111; stroke-width: 4.137432"/>
   </g>
   <g id="line2d_6">
    <path d="M 120.350555 126.78972 
L 120.350555 183.890175 
" clip-path="url(#p487344115a)" style="fill: none; stroke: #111111; stroke-width: 5.521168"/>
   </g>
   <g id="line2d_7">
    <path d="M 370.224697 187.273202 
L 370.224697 239.089982 
" clip-path="url(#p487344115a)" style="fill: none; stroke: #111111; stroke-width: 2.962332"/>
   </g>
   <g id="line2d_8">
    <path d="M 370.224697 121.607192 
L 370.224697 149.524405 
" clip-path="url(#p487344115a)" style="fill: none; stroke: #111111; stroke-width: 1.43518"/>
   </g>
   <g id="line2d_9">
    <path d="M 370.224697 98.677799 
L 370.224697 106.015205 
" clip-path="url(#p487344115a)" style="fill: none; stroke: #111111; stroke-width: 5.8"/>
   </g>
   <g id="line2d_10">
    <path d="M 586.153672 110.307389 
L 586.153672 170.455047 
" clip-path="url(#p487344115a)" style="fill: none; stroke: #111111; stroke-width: 4.343509"/>
   </g>
   <g id="line2d_11">
    <path d="M 75.090333 478.494895 
L 165.610777 478.494895 
" clip-path="url(#p487344115a)" style="fill: none; stroke: #111111; stroke-width: 3.6; stroke-linecap: round"/>
   </g>
   <g id="line2d_12">
    <path d="M 75.090333 369.299437 
L 165.610777 369.299437 
" clip-path="url(#p487344115a)" style="fill: none; stroke: #111111; stroke-width: 3.6; stroke-linecap: round"/>
   </g>
   <g id="line2d_13">
    <path d="M 75.090333 250.822215 
L 165.610777 250.822215 
" clip-path="url(#p487344115a)" style="fill: none; stroke: #111111; stroke-width: 3.6; stroke-linecap: round"/>
   </g>
   <g id="line2d_14">
    <path d="M 75.090333 126.78972 
L 165.610777 126.78972 
" clip-path="url(#p487344115a)" style="fill: none; stroke: #111111; stroke-width: 3.6; stroke-linecap: round"/>
   </g>
   <g id="line2d_15">
    <path d="M 324.964475 300.738346 
L 415.484919 300.738346 
" clip-path="url(#p487344115a)" style="fill: none; stroke: #111111; stroke-width: 3.6; stroke-linecap: round"/>
   </g>
   <g id="line2d_16">
    <path d="M 324.964475 187.273202 
L 415.484919 187.273202 
" clip-path="url(#p487344115a)" style="fill: none; stroke: #111111; stroke-width: 3.6; stroke-linecap: round"/>
   </g>
   <g id="line2d_17">
    <path d="M 324.964475 121.607192 
L 415.484919 121.607192 
" clip-path="url(#p487344115a)" style="fill: none; stroke: #111111; stroke-width: 3.6; stroke-linecap: round"/>
   </g>
   <g id="line2d_18">
    <path d="M 324.964475 98.677799 
L 415.484919 98.677799 
" clip-path="url(#p487344115a)" style="fill: none; stroke: #111111; stroke-width: 3.6; stroke-linecap: round"/>
   </g>
   <g id="line2d_19">
    <path d="M 574.838617 240.434291 
L 665.359061 240.434291 
" clip-path="url(#p487344115a)" style="fill: none; stroke: #111111; stroke-width: 3.6; stroke-linecap: round"/>
   </g>
   <g id="line2d_20">
    <path d="M 574.838617 110.307389 
L 665.359061 110.307389 
" clip-path="url(#p487344115a)" style="fill: none; stroke: #111111; stroke-width: 3.6; stroke-linecap: round"/>
   </g>
   <g id="text_1">
    <!-- $^{356}\mathrm{Rf}$ -->
    <g transform="translate(331.442 33.034687) scale(0.34 -0.34)">
     <defs>
      <path id="DejaVuSans-33" d="M 2597 2516 
Q 3050 2419 3304 2112 
Q 3559 1806 3559 1356 
Q 3559 666 3084 287 
Q 2609 -91 1734 -91 
Q 1441 -91 1130 -33 
Q 819 25 488 141 
L 488 750 
Q 750 597 1062 519 
Q 1375 441 1716 441 
Q 2309 441 2620 675 
Q 2931 909 2931 1356 
Q 2931 1769 2642 2001 
Q 2353 2234 1838 2234 
L 1294 2234 
L 1294 2753 
L 1863 2753 
Q 2328 2753 2575 2939 
Q 2822 3125 2822 3475 
Q 2822 3834 2567 4026 
Q 2313 4219 1838 4219 
Q 1578 4219 1281 4162 
Q 984 4106 628 3988 
L 628 4550 
Q 988 4650 1302 4700 
Q 1616 4750 1894 4750 
Q 2613 4750 3031 4423 
Q 3450 4097 3450 3541 
Q 3450 3153 3228 2886 
Q 3006 2619 2597 2516 
z
" transform="scale(0.015625)"/>
      <path id="DejaVuSans-35" d="M 691 4666 
L 3169 4666 
L 3169 4134 
L 1269 4134 
L 1269 2991 
Q 1406 3038 1543 3061 
Q 1681 3084 1819 3084 
Q 2600 3084 3056 2656 
Q 3513 2228 3513 1497 
Q 3513 744 3044 326 
Q 2575 -91 1722 -91 
Q 1428 -91 1123 -41 
Q 819 9 494 109 
L 494 744 
Q 775 591 1075 516 
Q 1375 441 1709 441 
Q 2250 441 2565 725 
Q 2881 1009 2881 1497 
Q 2881 1984 2565 2268 
Q 2250 2553 1709 2553 
Q 1456 2553 1204 2497 
Q 953 2441 691 2322 
L 691 4666 
z
" transform="scale(0.015625)"/>
      <path id="DejaVuSans-36" d="M 2113 2584 
Q 1688 2584 1439 2293 
Q 1191 2003 1191 1497 
Q 1191 994 1439 701 
Q 1688 409 2113 409 
Q 2538 409 2786 701 
Q 3034 994 3034 1497 
Q 3034 2003 2786 2293 
Q 2538 2584 2113 2584 
z
M 3366 4563 
L 3366 3988 
Q 3128 4100 2886 4159 
Q 2644 4219 2406 4219 
Q 1781 4219 1451 3797 
Q 1122 3375 1075 2522 
Q 1259 2794 1537 2939 
Q 1816 3084 2150 3084 
Q 2853 3084 3261 2657 
Q 3669 2231 3669 1497 
Q 3669 778 3244 343 
Q 2819 -91 2113 -91 
Q 1303 -91 875 529 
Q 447 1150 447 2328 
Q 447 3434 972 4092 
Q 1497 4750 2381 4750 
Q 2619 4750 2861 4703 
Q 3103 4656 3366 4563 
z
" transform="scale(0.015625)"/>
      <path id="DejaVuSans-52" d="M 2841 2188 
Q 3044 2119 3236 1894 
Q 3428 1669 3622 1275 
L 4263 0 
L 3584 0 
L 2988 1197 
Q 2756 1666 2539 1819 
Q 2322 1972 1947 1972 
L 1259 1972 
L 1259 0 
L 628 0 
L 628 4666 
L 2053 4666 
Q 2853 4666 3247 4331 
Q 3641 3997 3641 3322 
Q 3641 2881 3436 2590 
Q 3231 2300 2841 2188 
z
M 1259 4147 
L 1259 2491 
L 2053 2491 
Q 2509 2491 2742 2702 
Q 2975 2913 2975 3322 
Q 2975 3731 2742 3939 
Q 2509 4147 2053 4147 
L 1259 4147 
z
" transform="scale(0.015625)"/>
      <path id="DejaVuSans-66" d="M 2375 4863 
L 2375 4384 
L 1825 4384 
Q 1516 4384 1395 4259 
Q 1275 4134 1275 3809 
L 1275 3500 
L 2222 3500 
L 2222 3053 
L 1275 3053 
L 1275 0 
L 697 0 
L 697 3053 
L 147 3053 
L 147 3500 
L 697 3500 
L 697 3744 
Q 697 4328 969 4595 
Q 1241 4863 1831 4863 
L 2375 4863 
z
" transform="scale(0.015625)"/>
     </defs>
     <use xlink:href="#DejaVuSans-33" transform="translate(0.957031 39.046875) scale(0.7)"/>
     <use xlink:href="#DejaVuSans-35" transform="translate(45.493164 39.046875) scale(0.7)"/>
     <use xlink:href="#DejaVuSans-36" transform="translate(90.029297 39.046875) scale(0.7)"/>
     <use xlink:href="#DejaVuSans-52" transform="translate(137.299805 0.765625)"/>
     <use xlink:href="#DejaVuSans-66" transform="translate(206.782227 0.765625)"/>
    </g>
   </g>
   <g id="text_2">
    <!-- 0 -->
    <g transform="translate(46.98525 482.909895) scale(0.16 -0.16)">
     <defs>
      <path id="DejaVuSans-BoldOblique-30" d="M 1913 728 
Q 2153 728 2339 872 
Q 2525 1016 2650 1294 
Q 2738 1491 2809 1742 
Q 2881 1994 2944 2338 
Q 2997 2616 3025 2850 
Q 3053 3084 3053 3250 
Q 3053 3600 2928 3764 
Q 2803 3928 2541 3928 
Q 2297 3928 2112 3789 
Q 1928 3650 1806 3366 
Q 1713 3163 1636 2903 
Q 1559 2644 1503 2338 
Q 1450 2056 1422 1815 
Q 1394 1575 1394 1409 
Q 1394 1063 1522 895 
Q 1650 728 1913 728 
z
M 4225 3072 
Q 4225 2450 4053 1862 
Q 3881 1275 3572 831 
Q 3256 375 2809 142 
Q 2363 -91 1813 -91 
Q 1047 -91 639 343 
Q 231 778 231 1594 
Q 231 2206 401 2795 
Q 572 3384 878 3822 
Q 1200 4281 1644 4515 
Q 2088 4750 2644 4750 
Q 3403 4750 3814 4314 
Q 4225 3878 4225 3072 
z
" transform="scale(0.015625)"/>
     </defs>
     <use xlink:href="#DejaVuSans-BoldOblique-30"/>
    </g>
   </g>
   <g id="text_3">
    <!-- 0⁺ -->
    <g transform="translate(182.58336 483.650129) scale(0.23 -0.23)">
     <defs>
      <path id="TimesNewRomanPS-BoldMT-30" d="M 2966 2119 
Q 2966 1484 2788 934 
Q 2681 597 2501 381 
Q 2322 166 2094 39 
Q 1866 -88 1597 -88 
Q 1291 -88 1044 68 
Q 797 225 606 516 
Q 469 728 366 1081 
Q 231 1559 231 2069 
Q 231 2759 425 3338 
Q 584 3816 909 4070 
Q 1234 4325 1597 4325 
Q 1966 4325 2286 4073 
Q 2606 3822 2756 3397 
Q 2966 2813 2966 2119 
z
M 2003 2125 
Q 2003 3238 1991 3422 
Q 1959 3856 1841 4009 
Q 1763 4109 1588 4109 
Q 1453 4109 1375 4034 
Q 1259 3925 1218 3648 
Q 1178 3372 1178 1719 
Q 1178 819 1241 513 
Q 1288 291 1375 216 
Q 1463 141 1606 141 
Q 1763 141 1841 241 
Q 1972 416 1991 781 
L 2003 2125 
z
" transform="scale(0.015625)"/>
      <path id="DejaVuSerif-Bold-207a" d="M 1916 4344 
L 1916 3441 
L 2950 3441 
L 2950 3044 
L 1916 3044 
L 1916 2141 
L 1463 2141 
L 1463 3044 
L 428 3044 
L 428 3441 
L 1463 3441 
L 1463 4344 
L 1916 4344 
z
" transform="scale(0.015625)"/>
     </defs>
     <use xlink:href="#TimesNewRomanPS-BoldMT-30"/>
     <use xlink:href="#DejaVuSerif-Bold-207a" transform="translate(50 0)"/>
    </g>
   </g>
   <g id="text_4">
    <!-- 1022 -->
    <g transform="translate(13.58775 373.714437) scale(0.16 -0.16)">
     <defs>
      <path id="DejaVuSans-BoldOblique-31" d="M 441 831 
L 1503 831 
L 2088 3847 
L 953 3622 
L 1113 4441 
L 2241 4666 
L 3384 4666 
L 2644 831 
L 3700 831 
L 3541 0 
L 275 0 
L 441 831 
z
" transform="scale(0.015625)"/>
      <path id="DejaVuSans-BoldOblique-32" d="M 1581 884 
L 3609 884 
L 3438 0 
L 50 0 
L 225 891 
L 2209 2388 
Q 2534 2638 2704 2894 
Q 2875 3150 2875 3391 
Q 2875 3647 2700 3787 
Q 2525 3928 2209 3928 
Q 1913 3928 1547 3811 
Q 1181 3694 722 3450 
L 922 4441 
Q 1347 4597 1756 4673 
Q 2166 4750 2566 4750 
Q 3278 4750 3687 4442 
Q 4097 4134 4097 3603 
Q 4097 3147 3847 2772 
Q 3597 2397 2747 1759 
L 1581 884 
z
" transform="scale(0.015625)"/>
     </defs>
     <use xlink:href="#DejaVuSans-BoldOblique-31"/>
     <use xlink:href="#DejaVuSans-BoldOblique-30" transform="translate(69.580078 0)"/>
     <use xlink:href="#DejaVuSans-BoldOblique-32" transform="translate(139.160156 0)"/>
     <use xlink:href="#DejaVuSans-BoldOblique-32" transform="translate(208.740234 0)"/>
    </g>
   </g>
   <g id="text_5">
    <!-- 2⁺ -->
    <g transform="translate(182.58336 374.454671) scale(0.23 -0.23)">
     <defs>
      <path id="TimesNewRomanPS-BoldMT-32" d="M 2650 0 
L 156 0 
L 156 69 
Q 1303 1434 1548 1906 
Q 1794 2378 1794 2828 
Q 1794 3156 1591 3373 
Q 1388 3591 1094 3591 
Q 613 3591 347 3109 
L 231 3150 
Q 400 3750 744 4037 
Q 1088 4325 1538 4325 
Q 1859 4325 2125 4175 
Q 2391 4025 2541 3764 
Q 2691 3503 2691 3275 
Q 2691 2859 2459 2431 
Q 2144 1853 1081 819 
L 1997 819 
Q 2334 819 2436 847 
Q 2538 875 2603 942 
Q 2669 1009 2775 1225 
L 2888 1225 
L 2650 0 
z
" transform="scale(0.015625)"/>
     </defs>
     <use xlink:href="#TimesNewRomanPS-BoldMT-32"/>
     <use xlink:href="#DejaVuSerif-Bold-207a" transform="translate(50 0)"/>
    </g>
   </g>
   <g id="text_6">
    <!-- 2130 -->
    <g transform="translate(13.58775 255.237215) scale(0.16 -0.16)">
     <defs>
      <path id="DejaVuSans-BoldOblique-33" d="M 3022 2516 
Q 3375 2434 3572 2187 
Q 3769 1941 3769 1581 
Q 3769 806 3155 357 
Q 2541 -91 1466 -91 
Q 1059 -91 692 -33 
Q 325 25 0 141 
L 178 1069 
Q 456 906 784 817 
Q 1113 728 1441 728 
Q 1969 728 2276 926 
Q 2584 1125 2584 1459 
Q 2584 1738 2350 1877 
Q 2116 2016 1644 2016 
L 1166 2016 
L 1319 2791 
L 1825 2791 
Q 2316 2791 2602 2969 
Q 2888 3147 2888 3450 
Q 2888 3688 2689 3813 
Q 2491 3938 2113 3938 
Q 1847 3938 1534 3869 
Q 1222 3800 884 3669 
L 1056 4550 
Q 1425 4650 1783 4700 
Q 2141 4750 2491 4750 
Q 3281 4750 3679 4487 
Q 4078 4225 4078 3706 
Q 4078 3241 3801 2930 
Q 3525 2619 3022 2516 
z
" transform="scale(0.015625)"/>
     </defs>
     <use xlink:href="#DejaVuSans-BoldOblique-32"/>
     <use xlink:href="#DejaVuSans-BoldOblique-31" transform="translate(69.580078 0)"/>
     <use xlink:href="#DejaVuSans-BoldOblique-33" transform="translate(139.160156 0)"/>
     <use xlink:href="#DejaVuSans-BoldOblique-30" transform="translate(208.740234 0)"/>
    </g>
   </g>
   <g id="text_7">
    <!-- 4⁺ -->
    <g transform="translate(182.58336 255.977449) scale(0.23 -0.23)">
     <defs>
      <path id="TimesNewRomanPS-BoldMT-34" d="M 159 1597 
L 2172 4325 
L 2553 4325 
L 2553 1597 
L 2941 1597 
L 2941 950 
L 2553 950 
L 2553 0 
L 1694 0 
L 1694 950 
L 159 950 
L 159 1597 
z
M 463 1597 
L 1694 1597 
L 1694 3269 
L 463 1597 
z
" transform="scale(0.015625)"/>
     </defs>
     <use xlink:href="#TimesNewRomanPS-BoldMT-34"/>
     <use xlink:href="#DejaVuSerif-Bold-207a" transform="translate(50 0)"/>
    </g>
   </g>
   <g id="text_8">
    <!-- 3291 -->
    <g transform="translate(13.58775 131.20472) scale(0.16 -0.16)">
     <defs>
      <path id="DejaVuSans-BoldOblique-39" d="M 263 103 
L 428 966 
Q 700 825 953 758 
Q 1206 691 1459 691 
Q 2041 691 2400 1003 
Q 2759 1316 2834 1881 
Q 2594 1722 2337 1645 
Q 2081 1569 1791 1569 
Q 1219 1569 853 1909 
Q 488 2250 488 2778 
Q 488 3641 1052 4192 
Q 1616 4744 2503 4744 
Q 3300 4744 3736 4292 
Q 4172 3841 4172 3016 
Q 4172 2381 3978 1801 
Q 3784 1222 3431 800 
Q 3056 353 2548 128 
Q 2041 -97 1403 -97 
Q 1106 -97 825 -47 
Q 544 3 263 103 
z
M 2169 2344 
Q 2525 2344 2753 2637 
Q 2981 2931 2981 3391 
Q 2981 3675 2845 3828 
Q 2709 3981 2456 3981 
Q 2103 3981 1870 3690 
Q 1638 3400 1638 2963 
Q 1638 2663 1775 2503 
Q 1913 2344 2169 2344 
z
" transform="scale(0.015625)"/>
     </defs>
     <use xlink:href="#DejaVuSans-BoldOblique-33"/>
     <use xlink:href="#DejaVuSans-BoldOblique-32" transform="translate(69.580078 0)"/>
     <use xlink:href="#DejaVuSans-BoldOblique-39" transform="translate(139.160156 0)"/>
     <use xlink:href="#DejaVuSans-BoldOblique-31" transform="translate(208.740234 0)"/>
    </g>
   </g>
   <g id="text_9">
    <!-- 6⁺ -->
    <g transform="translate(182.58336 131.944954) scale(0.23 -0.23)">
     <defs>
      <path id="TimesNewRomanPS-BoldMT-36" d="M 3006 4325 
L 3006 4238 
Q 2441 4094 2098 3867 
Q 1756 3641 1557 3317 
Q 1359 2994 1250 2516 
Q 1388 2609 1478 2638 
Q 1681 2700 1888 2700 
Q 2363 2700 2680 2354 
Q 2997 2009 2997 1413 
Q 2997 994 2825 644 
Q 2653 294 2337 103 
Q 2022 -88 1663 -88 
Q 1272 -88 940 126 
Q 609 341 423 753 
Q 238 1166 238 1650 
Q 238 2363 580 2977 
Q 922 3591 1551 3955 
Q 2181 4319 3006 4325 
z
M 1209 2263 
Q 1184 1831 1184 1631 
Q 1184 1200 1267 797 
Q 1350 394 1494 231 
Q 1597 116 1738 116 
Q 1881 116 1993 283 
Q 2106 450 2106 963 
Q 2106 1825 1897 2153 
Q 1763 2366 1534 2366 
Q 1409 2366 1209 2263 
z
" transform="scale(0.015625)"/>
     </defs>
     <use xlink:href="#TimesNewRomanPS-BoldMT-36"/>
     <use xlink:href="#DejaVuSerif-Bold-207a" transform="translate(50 0)"/>
    </g>
   </g>
   <g id="text_10">
    <!-- 1663 -->
    <g transform="translate(263.461892 305.153346) scale(0.16 -0.16)">
     <defs>
      <path id="DejaVuSans-BoldOblique-36" d="M 2316 2303 
Q 1959 2303 1731 2009 
Q 1503 1716 1503 1253 
Q 1503 975 1643 820 
Q 1784 666 2034 666 
Q 2388 666 2617 955 
Q 2847 1244 2847 1684 
Q 2847 1984 2709 2143 
Q 2572 2303 2316 2303 
z
M 4225 4544 
L 4056 3681 
Q 3788 3819 3534 3887 
Q 3281 3956 3028 3956 
Q 2447 3956 2087 3643 
Q 1728 3331 1650 2766 
Q 1894 2925 2151 3001 
Q 2409 3078 2700 3078 
Q 3275 3078 3640 2737 
Q 4006 2397 4006 1869 
Q 4006 1006 3442 454 
Q 2878 -97 1991 -97 
Q 1194 -97 756 354 
Q 319 806 319 1631 
Q 319 2269 512 2848 
Q 706 3428 1056 3847 
Q 1431 4294 1942 4519 
Q 2453 4744 3091 4744 
Q 3384 4744 3662 4694 
Q 3941 4644 4225 4544 
z
" transform="scale(0.015625)"/>
     </defs>
     <use xlink:href="#DejaVuSans-BoldOblique-31"/>
     <use xlink:href="#DejaVuSans-BoldOblique-36" transform="translate(69.580078 0)"/>
     <use xlink:href="#DejaVuSans-BoldOblique-36" transform="translate(139.160156 0)"/>
     <use xlink:href="#DejaVuSans-BoldOblique-33" transform="translate(208.740234 0)"/>
    </g>
   </g>
   <g id="text_11">
    <!-- 0⁺ -->
    <g transform="translate(432.457502 305.893581) scale(0.23 -0.23)">
     <use xlink:href="#TimesNewRomanPS-BoldMT-30"/>
     <use xlink:href="#DejaVuSerif-Bold-207a" transform="translate(50 0)"/>
    </g>
   </g>
   <g id="text_12">
    <!-- 2725 -->
    <g transform="translate(263.461892 191.688202) scale(0.16 -0.16)">
     <defs>
      <path id="DejaVuSans-BoldOblique-37" d="M 922 4666 
L 4441 4666 
L 4300 3981 
L 1703 0 
L 500 0 
L 2969 3781 
L 756 3781 
L 922 4666 
z
" transform="scale(0.015625)"/>
      <path id="DejaVuSans-BoldOblique-35" d="M 1131 4666 
L 4122 4666 
L 3950 3781 
L 1919 3781 
L 1778 3059 
Q 1916 3097 2064 3117 
Q 2213 3138 2363 3138 
Q 3078 3138 3481 2811 
Q 3884 2484 3884 1906 
Q 3884 988 3262 448 
Q 2641 -91 1575 -91 
Q 1184 -91 815 -14 
Q 447 63 84 219 
L 269 1166 
Q 616 941 942 834 
Q 1269 728 1606 728 
Q 2100 728 2397 986 
Q 2694 1244 2694 1663 
Q 2694 1963 2469 2139 
Q 2244 2316 1856 2316 
Q 1594 2316 1289 2248 
Q 984 2181 622 2041 
L 1131 4666 
z
" transform="scale(0.015625)"/>
     </defs>
     <use xlink:href="#DejaVuSans-BoldOblique-32"/>
     <use xlink:href="#DejaVuSans-BoldOblique-37" transform="translate(69.580078 0)"/>
     <use xlink:href="#DejaVuSans-BoldOblique-32" transform="translate(139.160156 0)"/>
     <use xlink:href="#DejaVuSans-BoldOblique-35" transform="translate(208.740234 0)"/>
    </g>
   </g>
   <g id="text_13">
    <!-- 2⁺ -->
    <g transform="translate(432.457502 192.428436) scale(0.23 -0.23)">
     <use xlink:href="#TimesNewRomanPS-BoldMT-32"/>
     <use xlink:href="#DejaVuSerif-Bold-207a" transform="translate(50 0)"/>
    </g>
   </g>
   <g id="text_14">
    <!-- 3340 -->
    <g transform="translate(263.461892 126.022192) scale(0.16 -0.16)">
     <defs>
      <path id="DejaVuSans-BoldOblique-34" d="M 2638 3641 
L 978 1722 
L 2259 1722 
L 2638 3641 
z
M 2606 4666 
L 3975 4666 
L 3397 1722 
L 4063 1722 
L 3897 850 
L 3231 850 
L 3066 0 
L 1925 0 
L 2094 850 
L -6 850 
L 197 1881 
L 2606 4666 
z
" transform="scale(0.015625)"/>
     </defs>
     <use xlink:href="#DejaVuSans-BoldOblique-33"/>
     <use xlink:href="#DejaVuSans-BoldOblique-33" transform="translate(69.580078 0)"/>
     <use xlink:href="#DejaVuSans-BoldOblique-34" transform="translate(139.160156 0)"/>
     <use xlink:href="#DejaVuSans-BoldOblique-30" transform="translate(208.740234 0)"/>
    </g>
   </g>
   <g id="text_15">
    <!-- 4⁺ -->
    <g transform="translate(432.457502 126.762427) scale(0.23 -0.23)">
     <use xlink:href="#TimesNewRomanPS-BoldMT-34"/>
     <use xlink:href="#DejaVuSerif-Bold-207a" transform="translate(50 0)"/>
    </g>
   </g>
   <g id="text_16">
    <!-- 3554 -->
    <g transform="translate(263.461892 103.092799) scale(0.16 -0.16)">
     <use xlink:href="#DejaVuSans-BoldOblique-33"/>
     <use xlink:href="#DejaVuSans-BoldOblique-35" transform="translate(69.580078 0)"/>
     <use xlink:href="#DejaVuSans-BoldOblique-35" transform="translate(139.160156 0)"/>
     <use xlink:href="#DejaVuSans-BoldOblique-34" transform="translate(208.740234 0)"/>
    </g>
   </g>
   <g id="text_17">
    <!-- 6⁺ -->
    <g transform="translate(432.457502 103.833034) scale(0.23 -0.23)">
     <use xlink:href="#TimesNewRomanPS-BoldMT-36"/>
     <use xlink:href="#DejaVuSerif-Bold-207a" transform="translate(50 0)"/>
    </g>
   </g>
   <g id="text_18">
    <!-- 2228 -->
    <g transform="translate(513.336034 244.849291) scale(0.16 -0.16)">
     <defs>
      <path id="DejaVuSans-BoldOblique-38" d="M 2150 2088 
Q 1784 2088 1539 1839 
Q 1294 1591 1294 1228 
Q 1294 969 1453 817 
Q 1613 666 1888 666 
Q 2259 666 2503 911 
Q 2747 1156 2747 1522 
Q 2747 1781 2586 1934 
Q 2425 2088 2150 2088 
z
M 1381 2484 
Q 1044 2625 876 2850 
Q 709 3075 709 3391 
Q 709 4025 1229 4387 
Q 1750 4750 2669 4750 
Q 3406 4750 3812 4475 
Q 4219 4200 4219 3700 
Q 4219 3256 3936 2940 
Q 3653 2625 3128 2484 
Q 3509 2338 3690 2091 
Q 3872 1844 3872 1466 
Q 3872 747 3311 328 
Q 2750 -91 1772 -91 
Q 1000 -91 570 217 
Q 141 525 141 1075 
Q 141 1572 470 1945 
Q 800 2319 1381 2484 
z
M 2559 3994 
Q 2241 3994 2048 3808 
Q 1856 3622 1856 3316 
Q 1856 3103 1995 2972 
Q 2134 2841 2363 2841 
Q 2681 2841 2873 3027 
Q 3066 3213 3066 3519 
Q 3066 3734 2927 3864 
Q 2788 3994 2559 3994 
z
" transform="scale(0.015625)"/>
     </defs>
     <use xlink:href="#DejaVuSans-BoldOblique-32"/>
     <use xlink:href="#DejaVuSans-BoldOblique-32" transform="translate(69.580078 0)"/>
     <use xlink:href="#DejaVuSans-BoldOblique-32" transform="translate(139.160156 0)"/>
     <use xlink:href="#DejaVuSans-BoldOblique-38" transform="translate(208.740234 0)"/>
    </g>
   </g>
   <g id="text_19">
    <!-- 2⁺ -->
    <g transform="translate(682.331644 245.589525) scale(0.23 -0.23)">
     <use xlink:href="#TimesNewRomanPS-BoldMT-32"/>
     <use xlink:href="#DejaVuSerif-Bold-207a" transform="translate(50 0)"/>
    </g>
   </g>
   <g id="text_20">
    <!-- 3445 -->
    <g transform="translate(513.336034 114.722389) scale(0.16 -0.16)">
     <use xlink:href="#DejaVuSans-BoldOblique-33"/>
     <use xlink:href="#DejaVuSans-BoldOblique-34" transform="translate(69.580078 0)"/>
     <use xlink:href="#DejaVuSans-BoldOblique-34" transform="translate(139.160156 0)"/>
     <use xlink:href="#DejaVuSans-BoldOblique-35" transform="translate(208.740234 0)"/>
    </g>
   </g>
   <g id="text_21">
    <!-- 3⁺ -->
    <g transform="translate(682.331644 115.462623) scale(0.23 -0.23)">
     <defs>
      <path id="TimesNewRomanPS-BoldMT-33" d="M 947 2125 
L 947 2234 
Q 1303 2338 1440 2427 
Q 1578 2516 1678 2698 
Q 1778 2881 1778 3069 
Q 1778 3328 1589 3514 
Q 1400 3700 1119 3700 
Q 681 3700 375 3238 
L 259 3278 
Q 484 3800 836 4062 
Q 1188 4325 1619 4325 
Q 2059 4325 2345 4056 
Q 2631 3788 2631 3428 
Q 2631 3194 2498 2976 
Q 2366 2759 2081 2594 
Q 2447 2416 2639 2155 
Q 2831 1894 2831 1500 
Q 2831 838 2351 373 
Q 1872 -91 1066 -91 
Q 528 -91 281 88 
Q 103 213 103 409 
Q 103 553 206 654 
Q 309 756 444 756 
Q 547 756 638 713 
Q 688 688 992 439 
Q 1297 191 1563 191 
Q 1794 191 1959 373 
Q 2125 556 2125 838 
Q 2125 1266 1825 1627 
Q 1525 1988 947 2125 
z
" transform="scale(0.015625)"/>
     </defs>
     <use xlink:href="#TimesNewRomanPS-BoldMT-33"/>
     <use xlink:href="#DejaVuSerif-Bold-207a" transform="translate(50 0)"/>
    </g>
   </g>
   <g id="text_22">
    <path d="M 112.975555 427.483416 
L 106.740555 427.483416 
L 106.740555 427.310916 
Q 109.608055 423.898416 110.220555 422.718416 
Q 110.835555 421.538416 110.835555 420.413416 
Q 110.835555 419.593416 110.328055 419.050916 
Q 109.820555 418.505916 109.085555 418.505916 
Q 107.883055 418.505916 107.218055 419.710916 
L 106.928055 419.608416 
Q 107.350555 418.108416 108.210555 417.390916 
Q 109.070555 416.670916 110.195555 416.670916 
Q 110.998055 416.670916 111.663055 417.045916 
Q 112.328055 417.420916 112.703055 418.073416 
Q 113.078055 418.725916 113.078055 419.295916 
Q 113.078055 420.335916 112.498055 421.405916 
Q 111.710555 422.850916 109.053055 425.435916 
L 111.343055 425.435916 
Q 112.185555 425.435916 112.440555 425.365916 
Q 112.695555 425.295916 112.858055 425.128416 
Q 113.023055 424.960916 113.288055 424.420916 
L 113.570555 424.420916 
L 112.975555 427.483416 
z
M 117.185555 427.703416 
L 120.070555 418.960916 
L 117.873055 418.960916 
Q 116.585555 418.960916 115.935555 419.295916 
Q 115.483055 419.530916 115.185555 420.178416 
L 114.890555 420.178416 
L 115.655555 416.888416 
L 121.968055 416.888416 
L 118.413055 427.703416 
L 117.185555 427.703416 
z
M 124.350555 425.075916 
Q 124.898055 425.075916 125.275555 425.460916 
Q 125.655555 425.843416 125.655555 426.380916 
Q 125.655555 426.920916 125.273055 427.300916 
Q 124.890555 427.678416 124.350555 427.678416 
Q 123.810555 427.678416 123.430555 427.300916 
Q 123.053055 426.920916 123.053055 426.380916 
Q 123.053055 425.843416 123.430555 425.460916 
Q 123.810555 425.075916 124.350555 425.075916 
z
M 128.788055 416.888416 
L 133.748055 416.888416 
L 132.960555 418.905916 
L 128.788055 418.905916 
L 128.390555 419.960916 
Q 131.085555 420.060916 132.538055 421.303416 
Q 133.733055 422.325916 133.733055 423.850916 
Q 133.733055 424.825916 133.178055 425.760916 
Q 132.623055 426.693416 131.615555 427.198416 
Q 130.608055 427.703416 129.405555 427.703416 
Q 128.108055 427.703416 127.413055 427.218416 
Q 126.928055 426.873416 126.928055 426.435916 
Q 126.928055 426.100916 127.180555 425.843416 
Q 127.435555 425.585916 127.773055 425.585916 
Q 128.078055 425.585916 128.390555 425.710916 
Q 128.703055 425.835916 129.460555 426.365916 
Q 129.935555 426.693416 130.280555 426.818416 
Q 130.523055 426.913416 130.828055 426.913416 
Q 131.468055 426.913416 131.915555 426.445916 
Q 132.365555 425.975916 132.365555 425.318416 
Q 132.365555 423.943416 130.990555 423.085916 
Q 129.615555 422.225916 127.523055 422.225916 
Q 127.310555 422.225916 126.890555 422.233416 
L 128.788055 416.888416 
z
" style="stroke: #ffffff; stroke-width: 3.8"/>
    <path d="M 112.975555 427.483416 
L 106.740555 427.483416 
L 106.740555 427.310916 
Q 109.608055 423.898416 110.220555 422.718416 
Q 110.835555 421.538416 110.835555 420.413416 
Q 110.835555 419.593416 110.328055 419.050916 
Q 109.820555 418.505916 109.085555 418.505916 
Q 107.883055 418.505916 107.218055 419.710916 
L 106.928055 419.608416 
Q 107.350555 418.108416 108.210555 417.390916 
Q 109.070555 416.670916 110.195555 416.670916 
Q 110.998055 416.670916 111.663055 417.045916 
Q 112.328055 417.420916 112.703055 418.073416 
Q 113.078055 418.725916 113.078055 419.295916 
Q 113.078055 420.335916 112.498055 421.405916 
Q 111.710555 422.850916 109.053055 425.435916 
L 111.343055 425.435916 
Q 112.185555 425.435916 112.440555 425.365916 
Q 112.695555 425.295916 112.858055 425.128416 
Q 113.023055 424.960916 113.288055 424.420916 
L 113.570555 424.420916 
L 112.975555 427.483416 
z
M 117.185555 427.703416 
L 120.070555 418.960916 
L 117.873055 418.960916 
Q 116.585555 418.960916 115.935555 419.295916 
Q 115.483055 419.530916 115.185555 420.178416 
L 114.890555 420.178416 
L 115.655555 416.888416 
L 121.968055 416.888416 
L 118.413055 427.703416 
L 117.185555 427.703416 
z
M 124.350555 425.075916 
Q 124.898055 425.075916 125.275555 425.460916 
Q 125.655555 425.843416 125.655555 426.380916 
Q 125.655555 426.920916 125.273055 427.300916 
Q 124.890555 427.678416 124.350555 427.678416 
Q 123.810555 427.678416 123.430555 427.300916 
Q 123.053055 426.920916 123.053055 426.380916 
Q 123.053055 425.843416 123.430555 425.460916 
Q 123.810555 425.075916 124.350555 425.075916 
z
M 128.788055 416.888416 
L 133.748055 416.888416 
L 132.960555 418.905916 
L 128.788055 418.905916 
L 128.390555 419.960916 
Q 131.085555 420.060916 132.538055 421.303416 
Q 133.733055 422.325916 133.733055 423.850916 
Q 133.733055 424.825916 133.178055 425.760916 
Q 132.623055 426.693416 131.615555 427.198416 
Q 130.608055 427.703416 129.405555 427.703416 
Q 128.108055 427.703416 127.413055 427.218416 
Q 126.928055 426.873416 126.928055 426.435916 
Q 126.928055 426.100916 127.180555 425.843416 
Q 127.435555 425.585916 127.773055 425.585916 
Q 128.078055 425.585916 128.390555 425.710916 
Q 128.703055 425.835916 129.460555 426.365916 
Q 129.935555 426.693416 130.280555 426.818416 
Q 130.523055 426.913416 130.828055 426.913416 
Q 131.468055 426.913416 131.915555 426.445916 
Q 132.365555 425.975916 132.365555 425.318416 
Q 132.365555 423.943416 130.990555 423.085916 
Q 129.615555 422.225916 127.523055 422.225916 
Q 127.310555 422.225916 126.890555 422.233416 
L 128.788055 416.888416 
z
"/>
   </g>
   <g id="text_23">
    <path d="M 108.788055 303.052076 
L 113.748055 303.052076 
L 112.960555 305.069576 
L 108.788055 305.069576 
L 108.390555 306.124576 
Q 111.085555 306.224576 112.538055 307.467076 
Q 113.733055 308.489576 113.733055 310.014576 
Q 113.733055 310.989576 113.178055 311.924576 
Q 112.623055 312.857076 111.615555 313.362076 
Q 110.608055 313.867076 109.405555 313.867076 
Q 108.108055 313.867076 107.413055 313.382076 
Q 106.928055 313.037076 106.928055 312.599576 
Q 106.928055 312.264576 107.180555 312.007076 
Q 107.435555 311.749576 107.773055 311.749576 
Q 108.078055 311.749576 108.390555 311.874576 
Q 108.703055 311.999576 109.460555 312.529576 
Q 109.935555 312.857076 110.280555 312.982076 
Q 110.523055 313.077076 110.828055 313.077076 
Q 111.468055 313.077076 111.915555 312.609576 
Q 112.365555 312.139576 112.365555 311.482076 
Q 112.365555 310.107076 110.990555 309.249576 
Q 109.615555 308.389576 107.523055 308.389576 
Q 107.310555 308.389576 106.890555 308.397076 
L 108.788055 303.052076 
z
M 114.748055 309.654576 
L 119.780555 302.834576 
L 120.733055 302.834576 
L 120.733055 309.654576 
L 121.703055 309.654576 
L 121.703055 311.272076 
L 120.733055 311.272076 
L 120.733055 313.647076 
L 118.585555 313.647076 
L 118.585555 311.272076 
L 114.748055 311.272076 
L 114.748055 309.654576 
z
M 115.508055 309.654576 
L 118.585555 309.654576 
L 118.585555 305.474576 
L 115.508055 309.654576 
z
M 124.350555 311.239576 
Q 124.898055 311.239576 125.275555 311.624576 
Q 125.655555 312.007076 125.655555 312.544576 
Q 125.655555 313.084576 125.273055 313.464576 
Q 124.890555 313.842076 124.350555 313.842076 
Q 123.810555 313.842076 123.430555 313.464576 
Q 123.053055 313.084576 123.053055 312.544576 
Q 123.053055 312.007076 123.430555 311.624576 
Q 123.810555 311.239576 124.350555 311.239576 
z
M 128.788055 303.052076 
L 133.748055 303.052076 
L 132.960555 305.069576 
L 128.788055 305.069576 
L 128.390555 306.124576 
Q 131.085555 306.224576 132.538055 307.467076 
Q 133.733055 308.489576 133.733055 310.014576 
Q 133.733055 310.989576 133.178055 311.924576 
Q 132.623055 312.857076 131.615555 313.362076 
Q 130.608055 313.867076 129.405555 313.867076 
Q 128.108055 313.867076 127.413055 313.382076 
Q 126.928055 313.037076 126.928055 312.599576 
Q 126.928055 312.264576 127.180555 312.007076 
Q 127.435555 311.749576 127.773055 311.749576 
Q 128.078055 311.749576 128.390555 311.874576 
Q 128.703055 311.999576 129.460555 312.529576 
Q 129.935555 312.857076 130.280555 312.982076 
Q 130.523055 313.077076 130.828055 313.077076 
Q 131.468055 313.077076 131.915555 312.609576 
Q 132.365555 312.139576 132.365555 311.482076 
Q 132.365555 310.107076 130.990555 309.249576 
Q 129.615555 308.389576 127.523055 308.389576 
Q 127.310555 308.389576 126.890555 308.397076 
L 128.788055 303.052076 
z
" style="stroke: #ffffff; stroke-width: 3.8"/>
    <path d="M 108.788055 303.052076 
L 113.748055 303.052076 
L 112.960555 305.069576 
L 108.788055 305.069576 
L 108.390555 306.124576 
Q 111.085555 306.224576 112.538055 307.467076 
Q 113.733055 308.489576 113.733055 310.014576 
Q 113.733055 310.989576 113.178055 311.924576 
Q 112.623055 312.857076 111.615555 313.362076 
Q 110.608055 313.867076 109.405555 313.867076 
Q 108.108055 313.867076 107.413055 313.382076 
Q 106.928055 313.037076 106.928055 312.599576 
Q 106.928055 312.264576 107.180555 312.007076 
Q 107.435555 311.749576 107.773055 311.749576 
Q 108.078055 311.749576 108.390555 311.874576 
Q 108.703055 311.999576 109.460555 312.529576 
Q 109.935555 312.857076 110.280555 312.982076 
Q 110.523055 313.077076 110.828055 313.077076 
Q 111.468055 313.077076 111.915555 312.609576 
Q 112.365555 312.139576 112.365555 311.482076 
Q 112.365555 310.107076 110.990555 309.249576 
Q 109.615555 308.389576 107.523055 308.389576 
Q 107.310555 308.389576 106.890555 308.397076 
L 108.788055 303.052076 
z
M 114.748055 309.654576 
L 119.780555 302.834576 
L 120.733055 302.834576 
L 120.733055 309.654576 
L 121.703055 309.654576 
L 121.703055 311.272076 
L 120.733055 311.272076 
L 120.733055 313.647076 
L 118.585555 313.647076 
L 118.585555 311.272076 
L 114.748055 311.272076 
L 114.748055 309.654576 
z
M 115.508055 309.654576 
L 118.585555 309.654576 
L 118.585555 305.474576 
L 115.508055 309.654576 
z
M 124.350555 311.239576 
Q 124.898055 311.239576 125.275555 311.624576 
Q 125.655555 312.007076 125.655555 312.544576 
Q 125.655555 313.084576 125.273055 313.464576 
Q 124.890555 313.842076 124.350555 313.842076 
Q 123.810555 313.842076 123.430555 313.464576 
Q 123.053055 313.084576 123.053055 312.544576 
Q 123.053055 312.007076 123.430555 311.624576 
Q 123.810555 311.239576 124.350555 311.239576 
z
M 128.788055 303.052076 
L 133.748055 303.052076 
L 132.960555 305.069576 
L 128.788055 305.069576 
L 128.390555 306.124576 
Q 131.085555 306.224576 132.538055 307.467076 
Q 133.733055 308.489576 133.733055 310.014576 
Q 133.733055 310.989576 133.178055 311.924576 
Q 132.623055 312.857076 131.615555 313.362076 
Q 130.608055 313.867076 129.405555 313.867076 
Q 128.108055 313.867076 127.413055 313.382076 
Q 126.928055 313.037076 126.928055 312.599576 
Q 126.928055 312.264576 127.180555 312.007076 
Q 127.435555 311.749576 127.773055 311.749576 
Q 128.078055 311.749576 128.390555 311.874576 
Q 128.703055 311.999576 129.460555 312.529576 
Q 129.935555 312.857076 130.280555 312.982076 
Q 130.523055 313.077076 130.828055 313.077076 
Q 131.468055 313.077076 131.915555 312.609576 
Q 132.365555 312.139576 132.365555 311.482076 
Q 132.365555 310.107076 130.990555 309.249576 
Q 129.615555 308.389576 127.523055 308.389576 
Q 127.310555 308.389576 126.890555 308.397076 
L 128.788055 303.052076 
z
"/>
   </g>
   <g id="text_24">
    <path d="M 109.185555 192.612217 
L 112.070555 183.869717 
L 109.873055 183.869717 
Q 108.585555 183.869717 107.935555 184.204717 
Q 107.483055 184.439717 107.185555 185.087217 
L 106.890555 185.087217 
L 107.655555 181.797217 
L 113.968055 181.797217 
L 110.413055 192.612217 
L 109.185555 192.612217 
z
M 117.185555 192.612217 
L 120.070555 183.869717 
L 117.873055 183.869717 
Q 116.585555 183.869717 115.935555 184.204717 
Q 115.483055 184.439717 115.185555 185.087217 
L 114.890555 185.087217 
L 115.655555 181.797217 
L 121.968055 181.797217 
L 118.413055 192.612217 
L 117.185555 192.612217 
z
M 124.350555 189.984717 
Q 124.898055 189.984717 125.275555 190.369717 
Q 125.655555 190.752217 125.655555 191.289717 
Q 125.655555 191.829717 125.273055 192.209717 
Q 124.890555 192.587217 124.350555 192.587217 
Q 123.810555 192.587217 123.430555 192.209717 
Q 123.053055 191.829717 123.053055 191.289717 
Q 123.053055 190.752217 123.430555 190.369717 
Q 123.810555 189.984717 124.350555 189.984717 
z
M 133.765555 187.094717 
Q 133.765555 188.682217 133.320555 190.057217 
Q 133.053055 190.899717 132.603055 191.439717 
Q 132.155555 191.977217 131.585555 192.294717 
Q 131.015555 192.612217 130.343055 192.612217 
Q 129.578055 192.612217 128.960555 192.222217 
Q 128.343055 191.829717 127.865555 191.102217 
Q 127.523055 190.572217 127.265555 189.689717 
Q 126.928055 188.494717 126.928055 187.219717 
Q 126.928055 185.494717 127.413055 184.047217 
Q 127.810555 182.852217 128.623055 182.217217 
Q 129.435555 181.579717 130.343055 181.579717 
Q 131.265555 181.579717 132.065555 182.209717 
Q 132.865555 182.837217 133.240555 183.899717 
Q 133.765555 185.359717 133.765555 187.094717 
z
M 131.358055 187.079717 
Q 131.358055 184.297217 131.328055 183.837217 
Q 131.248055 182.752217 130.953055 182.369717 
Q 130.758055 182.119717 130.320555 182.119717 
Q 129.983055 182.119717 129.788055 182.307217 
Q 129.498055 182.579717 129.395555 183.272217 
Q 129.295555 183.962217 129.295555 188.094717 
Q 129.295555 190.344717 129.453055 191.109717 
Q 129.570555 191.664717 129.788055 191.852217 
Q 130.008055 192.039717 130.365555 192.039717 
Q 130.758055 192.039717 130.953055 191.789717 
Q 131.280555 191.352217 131.328055 190.439717 
L 131.358055 187.079717 
z
" style="stroke: #ffffff; stroke-width: 3.8"/>
    <path d="M 109.185555 192.612217 
L 112.070555 183.869717 
L 109.873055 183.869717 
Q 108.585555 183.869717 107.935555 184.204717 
Q 107.483055 184.439717 107.185555 185.087217 
L 106.890555 185.087217 
L 107.655555 181.797217 
L 113.968055 181.797217 
L 110.413055 192.612217 
L 109.185555 192.612217 
z
M 117.185555 192.612217 
L 120.070555 183.869717 
L 117.873055 183.869717 
Q 116.585555 183.869717 115.935555 184.204717 
Q 115.483055 184.439717 115.185555 185.087217 
L 114.890555 185.087217 
L 115.655555 181.797217 
L 121.968055 181.797217 
L 118.413055 192.612217 
L 117.185555 192.612217 
z
M 124.350555 189.984717 
Q 124.898055 189.984717 125.275555 190.369717 
Q 125.655555 190.752217 125.655555 191.289717 
Q 125.655555 191.829717 125.273055 192.209717 
Q 124.890555 192.587217 124.350555 192.587217 
Q 123.810555 192.587217 123.430555 192.209717 
Q 123.053055 191.829717 123.053055 191.289717 
Q 123.053055 190.752217 123.430555 190.369717 
Q 123.810555 189.984717 124.350555 189.984717 
z
M 133.765555 187.094717 
Q 133.765555 188.682217 133.320555 190.057217 
Q 133.053055 190.899717 132.603055 191.439717 
Q 132.155555 191.977217 131.585555 192.294717 
Q 131.015555 192.612217 130.343055 192.612217 
Q 129.578055 192.612217 128.960555 192.222217 
Q 128.343055 191.829717 127.865555 191.102217 
Q 127.523055 190.572217 127.265555 189.689717 
Q 126.928055 188.494717 126.928055 187.219717 
Q 126.928055 185.494717 127.413055 184.047217 
Q 127.810555 182.852217 128.623055 182.217217 
Q 129.435555 181.579717 130.343055 181.579717 
Q 131.265555 181.579717 132.065555 182.209717 
Q 132.865555 182.837217 133.240555 183.899717 
Q 133.765555 185.359717 133.765555 187.094717 
z
M 131.358055 187.079717 
Q 131.358055 184.297217 131.328055 183.837217 
Q 131.248055 182.752217 130.953055 182.369717 
Q 130.758055 182.119717 130.320555 182.119717 
Q 129.983055 182.119717 129.788055 182.307217 
Q 129.498055 182.579717 129.395555 183.272217 
Q 129.295555 183.962217 129.295555 188.094717 
Q 129.295555 190.344717 129.453055 191.109717 
Q 129.570555 191.664717 129.788055 191.852217 
Q 130.008055 192.039717 130.365555 192.039717 
Q 130.758055 192.039717 130.953055 191.789717 
Q 131.280555 191.352217 131.328055 190.439717 
L 131.358055 187.079717 
z
"/>
   </g>
   <g id="text_25">
    <path d="M 358.592197 242.279524 
L 358.592197 242.007024 
Q 359.482197 241.747024 359.824697 241.524524 
Q 360.169697 241.302024 360.419697 240.847024 
Q 360.669697 240.389524 360.669697 239.919524 
Q 360.669697 239.272024 360.197197 238.807024 
Q 359.724697 238.342024 359.022197 238.342024 
Q 357.927197 238.342024 357.162197 239.497024 
L 356.872197 239.397024 
Q 357.434697 238.092024 358.314697 237.437024 
Q 359.194697 236.779524 360.272197 236.779524 
Q 361.372197 236.779524 362.087197 237.452024 
Q 362.802197 238.122024 362.802197 239.022024 
Q 362.802197 239.607024 362.469697 240.152024 
Q 362.139697 240.694524 361.427197 241.107024 
Q 362.342197 241.552024 362.822197 242.204524 
Q 363.302197 242.857024 363.302197 243.842024 
Q 363.302197 245.497024 362.102197 246.659524 
Q 360.904697 247.819524 358.889697 247.819524 
Q 357.544697 247.819524 356.927197 247.372024 
Q 356.482197 247.059524 356.482197 246.569524 
Q 356.482197 246.209524 356.739697 245.957024 
Q 356.997197 245.702024 357.334697 245.702024 
Q 357.592197 245.702024 357.819697 245.809524 
Q 357.944697 245.872024 358.704697 246.494524 
Q 359.467197 247.114524 360.132197 247.114524 
Q 360.709697 247.114524 361.122197 246.659524 
Q 361.537197 246.202024 361.537197 245.497024 
Q 361.537197 244.427024 360.787197 243.524524 
Q 360.037197 242.622024 358.592197 242.279524 
z
M 366.662197 236.997024 
L 371.622197 236.997024 
L 370.834697 239.014524 
L 366.662197 239.014524 
L 366.264697 240.069524 
Q 368.959697 240.169524 370.412197 241.412024 
Q 371.607197 242.434524 371.607197 243.959524 
Q 371.607197 244.934524 371.052197 245.869524 
Q 370.497197 246.802024 369.489697 247.307024 
Q 368.482197 247.812024 367.279697 247.812024 
Q 365.982197 247.812024 365.287197 247.327024 
Q 364.802197 246.982024 364.802197 246.544524 
Q 364.802197 246.209524 365.054697 245.952024 
Q 365.309697 245.694524 365.647197 245.694524 
Q 365.952197 245.694524 366.264697 245.819524 
Q 366.577197 245.944524 367.334697 246.474524 
Q 367.809697 246.802024 368.154697 246.927024 
Q 368.397197 247.022024 368.702197 247.022024 
Q 369.342197 247.022024 369.789697 246.554524 
Q 370.239697 246.084524 370.239697 245.427024 
Q 370.239697 244.052024 368.864697 243.194524 
Q 367.489697 242.334524 365.397197 242.334524 
Q 365.184697 242.334524 364.764697 242.342024 
L 366.662197 236.997024 
z
M 374.224697 245.184524 
Q 374.772197 245.184524 375.149697 245.569524 
Q 375.529697 245.952024 375.529697 246.489524 
Q 375.529697 247.029524 375.147197 247.409524 
Q 374.764697 247.787024 374.224697 247.787024 
Q 373.684697 247.787024 373.304697 247.409524 
Q 372.927197 247.029524 372.927197 246.489524 
Q 372.927197 245.952024 373.304697 245.569524 
Q 373.684697 245.184524 374.224697 245.184524 
z
M 378.592197 242.279524 
L 378.592197 242.007024 
Q 379.482197 241.747024 379.824697 241.524524 
Q 380.169697 241.302024 380.419697 240.847024 
Q 380.669697 240.389524 380.669697 239.919524 
Q 380.669697 239.272024 380.197197 238.807024 
Q 379.724697 238.342024 379.022197 238.342024 
Q 377.927197 238.342024 377.162197 239.497024 
L 376.872197 239.397024 
Q 377.434697 238.092024 378.314697 237.437024 
Q 379.194697 236.779524 380.272197 236.779524 
Q 381.372197 236.779524 382.087197 237.452024 
Q 382.802197 238.122024 382.802197 239.022024 
Q 382.802197 239.607024 382.469697 240.152024 
Q 382.139697 240.694524 381.427197 241.107024 
Q 382.342197 241.552024 382.822197 242.204524 
Q 383.302197 242.857024 383.302197 243.842024 
Q 383.302197 245.497024 382.102197 246.659524 
Q 380.904697 247.819524 378.889697 247.819524 
Q 377.544697 247.819524 376.927197 247.372024 
Q 376.482197 247.059524 376.482197 246.569524 
Q 376.482197 246.209524 376.739697 245.957024 
Q 376.997197 245.702024 377.334697 245.702024 
Q 377.592197 245.702024 377.819697 245.809524 
Q 377.944697 245.872024 378.704697 246.494524 
Q 379.467197 247.114524 380.132197 247.114524 
Q 380.709697 247.114524 381.122197 246.659524 
Q 381.537197 246.202024 381.537197 245.497024 
Q 381.537197 244.427024 380.787197 243.524524 
Q 380.037197 242.622024 378.592197 242.279524 
z
" style="stroke: #ffffff; stroke-width: 3.8"/>
    <path d="M 358.592197 242.279524 
L 358.592197 242.007024 
Q 359.482197 241.747024 359.824697 241.524524 
Q 360.169697 241.302024 360.419697 240.847024 
Q 360.669697 240.389524 360.669697 239.919524 
Q 360.669697 239.272024 360.197197 238.807024 
Q 359.724697 238.342024 359.022197 238.342024 
Q 357.927197 238.342024 357.162197 239.497024 
L 356.872197 239.397024 
Q 357.434697 238.092024 358.314697 237.437024 
Q 359.194697 236.779524 360.272197 236.779524 
Q 361.372197 236.779524 362.087197 237.452024 
Q 362.802197 238.122024 362.802197 239.022024 
Q 362.802197 239.607024 362.469697 240.152024 
Q 362.139697 240.694524 361.427197 241.107024 
Q 362.342197 241.552024 362.822197 242.204524 
Q 363.302197 242.857024 363.302197 243.842024 
Q 363.302197 245.497024 362.102197 246.659524 
Q 360.904697 247.819524 358.889697 247.819524 
Q 357.544697 247.819524 356.927197 247.372024 
Q 356.482197 247.059524 356.482197 246.569524 
Q 356.482197 246.209524 356.739697 245.957024 
Q 356.997197 245.702024 357.334697 245.702024 
Q 357.592197 245.702024 357.819697 245.809524 
Q 357.944697 245.872024 358.704697 246.494524 
Q 359.467197 247.114524 360.132197 247.114524 
Q 360.709697 247.114524 361.122197 246.659524 
Q 361.537197 246.202024 361.537197 245.497024 
Q 361.537197 244.427024 360.787197 243.524524 
Q 360.037197 242.622024 358.592197 242.279524 
z
M 366.662197 236.997024 
L 371.622197 236.997024 
L 370.834697 239.014524 
L 366.662197 239.014524 
L 366.264697 240.069524 
Q 368.959697 240.169524 370.412197 241.412024 
Q 371.607197 242.434524 371.607197 243.959524 
Q 371.607197 244.934524 371.052197 245.869524 
Q 370.497197 246.802024 369.489697 247.307024 
Q 368.482197 247.812024 367.279697 247.812024 
Q 365.982197 247.812024 365.287197 247.327024 
Q 364.802197 246.982024 364.802197 246.544524 
Q 364.802197 246.209524 365.054697 245.952024 
Q 365.309697 245.694524 365.647197 245.694524 
Q 365.952197 245.694524 366.264697 245.819524 
Q 366.577197 245.944524 367.334697 246.474524 
Q 367.809697 246.802024 368.154697 246.927024 
Q 368.397197 247.022024 368.702197 247.022024 
Q 369.342197 247.022024 369.789697 246.554524 
Q 370.239697 246.084524 370.239697 245.427024 
Q 370.239697 244.052024 368.864697 243.194524 
Q 367.489697 242.334524 365.397197 242.334524 
Q 365.184697 242.334524 364.764697 242.342024 
L 366.662197 236.997024 
z
M 374.224697 245.184524 
Q 374.772197 245.184524 375.149697 245.569524 
Q 375.529697 245.952024 375.529697 246.489524 
Q 375.529697 247.029524 375.147197 247.409524 
Q 374.764697 247.787024 374.224697 247.787024 
Q 373.684697 247.787024 373.304697 247.409524 
Q 372.927197 247.029524 372.927197 246.489524 
Q 372.927197 245.952024 373.304697 245.569524 
Q 373.684697 245.184524 374.224697 245.184524 
z
M 378.592197 242.279524 
L 378.592197 242.007024 
Q 379.482197 241.747024 379.824697 241.524524 
Q 380.169697 241.302024 380.419697 240.847024 
Q 380.669697 240.389524 380.669697 239.919524 
Q 380.669697 239.272024 380.197197 238.807024 
Q 379.724697 238.342024 379.022197 238.342024 
Q 377.927197 238.342024 377.162197 239.497024 
L 376.872197 239.397024 
Q 377.434697 238.092024 378.314697 237.437024 
Q 379.194697 236.779524 380.272197 236.779524 
Q 381.372197 236.779524 382.087197 237.452024 
Q 382.802197 238.122024 382.802197 239.022024 
Q 382.802197 239.607024 382.469697 240.152024 
Q 382.139697 240.694524 381.427197 241.107024 
Q 382.342197 241.552024 382.822197 242.204524 
Q 383.302197 242.857024 383.302197 243.842024 
Q 383.302197 245.497024 382.102197 246.659524 
Q 380.904697 247.819524 378.889697 247.819524 
Q 377.544697 247.819524 376.927197 247.372024 
Q 376.482197 247.059524 376.482197 246.569524 
Q 376.482197 246.209524 376.739697 245.957024 
Q 376.997197 245.702024 377.334697 245.702024 
Q 377.592197 245.702024 377.819697 245.809524 
Q 377.944697 245.872024 378.704697 246.494524 
Q 379.467197 247.114524 380.132197 247.114524 
Q 380.709697 247.114524 381.122197 246.659524 
Q 381.537197 246.202024 381.537197 245.497024 
Q 381.537197 244.427024 380.787197 243.524524 
Q 380.037197 242.622024 378.592197 242.279524 
z
"/>
   </g>
   <g id="text_26">
    <path d="M 361.434697 147.213947 
L 361.434697 155.878947 
Q 361.434697 156.853947 361.519697 157.123947 
Q 361.607197 157.393947 361.879697 157.566447 
Q 362.154697 157.736447 362.757197 157.736447 
L 362.997197 157.736447 
L 362.997197 158.026447 
L 357.419697 158.026447 
L 357.419697 157.736447 
L 357.702197 157.736447 
Q 358.382197 157.736447 358.669697 157.581447 
Q 358.959697 157.423947 359.059697 157.151447 
Q 359.162197 156.878947 359.162197 155.878947 
L 359.162197 150.386447 
Q 359.162197 149.651447 359.092197 149.468947 
Q 359.022197 149.283947 358.829697 149.156447 
Q 358.639697 149.026447 358.389697 149.026447 
Q 357.989697 149.026447 357.419697 149.276447 
L 357.279697 148.993947 
L 361.177197 147.213947 
L 361.434697 147.213947 
z
M 371.639697 152.728947 
Q 371.639697 154.316447 371.194697 155.691447 
Q 370.927197 156.533947 370.477197 157.073947 
Q 370.029697 157.611447 369.459697 157.928947 
Q 368.889697 158.246447 368.217197 158.246447 
Q 367.452197 158.246447 366.834697 157.856447 
Q 366.217197 157.463947 365.739697 156.736447 
Q 365.397197 156.206447 365.139697 155.323947 
Q 364.802197 154.128947 364.802197 152.853947 
Q 364.802197 151.128947 365.287197 149.681447 
Q 365.684697 148.486447 366.497197 147.851447 
Q 367.309697 147.213947 368.217197 147.213947 
Q 369.139697 147.213947 369.939697 147.843947 
Q 370.739697 148.471447 371.114697 149.533947 
Q 371.639697 150.993947 371.639697 152.728947 
z
M 369.232197 152.713947 
Q 369.232197 149.931447 369.202197 149.471447 
Q 369.122197 148.386447 368.827197 148.003947 
Q 368.632197 147.753947 368.194697 147.753947 
Q 367.857197 147.753947 367.662197 147.941447 
Q 367.372197 148.213947 367.269697 148.906447 
Q 367.169697 149.596447 367.169697 153.728947 
Q 367.169697 155.978947 367.327197 156.743947 
Q 367.444697 157.298947 367.662197 157.486447 
Q 367.882197 157.673947 368.239697 157.673947 
Q 368.632197 157.673947 368.827197 157.423947 
Q 369.154697 156.986447 369.202197 156.073947 
L 369.232197 152.713947 
z
M 374.224697 155.618947 
Q 374.772197 155.618947 375.149697 156.003947 
Q 375.529697 156.386447 375.529697 156.923947 
Q 375.529697 157.463947 375.147197 157.843947 
Q 374.764697 158.221447 374.224697 158.221447 
Q 373.684697 158.221447 373.304697 157.843947 
Q 372.927197 157.463947 372.927197 156.923947 
Q 372.927197 156.386447 373.304697 156.003947 
Q 373.684697 155.618947 374.224697 155.618947 
z
M 376.622197 154.033947 
L 381.654697 147.213947 
L 382.607197 147.213947 
L 382.607197 154.033947 
L 383.577197 154.033947 
L 383.577197 155.651447 
L 382.607197 155.651447 
L 382.607197 158.026447 
L 380.459697 158.026447 
L 380.459697 155.651447 
L 376.622197 155.651447 
L 376.622197 154.033947 
z
M 377.382197 154.033947 
L 380.459697 154.033947 
L 380.459697 149.853947 
L 377.382197 154.033947 
z
" style="stroke: #ffffff; stroke-width: 3.8"/>
    <path d="M 361.434697 147.213947 
L 361.434697 155.878947 
Q 361.434697 156.853947 361.519697 157.123947 
Q 361.607197 157.393947 361.879697 157.566447 
Q 362.154697 157.736447 362.757197 157.736447 
L 362.997197 157.736447 
L 362.997197 158.026447 
L 357.419697 158.026447 
L 357.419697 157.736447 
L 357.702197 157.736447 
Q 358.382197 157.736447 358.669697 157.581447 
Q 358.959697 157.423947 359.059697 157.151447 
Q 359.162197 156.878947 359.162197 155.878947 
L 359.162197 150.386447 
Q 359.162197 149.651447 359.092197 149.468947 
Q 359.022197 149.283947 358.829697 149.156447 
Q 358.639697 149.026447 358.389697 149.026447 
Q 357.989697 149.026447 357.419697 149.276447 
L 357.279697 148.993947 
L 361.177197 147.213947 
L 361.434697 147.213947 
z
M 371.639697 152.728947 
Q 371.639697 154.316447 371.194697 155.691447 
Q 370.927197 156.533947 370.477197 157.073947 
Q 370.029697 157.611447 369.459697 157.928947 
Q 368.889697 158.246447 368.217197 158.246447 
Q 367.452197 158.246447 366.834697 157.856447 
Q 366.217197 157.463947 365.739697 156.736447 
Q 365.397197 156.206447 365.139697 155.323947 
Q 364.802197 154.128947 364.802197 152.853947 
Q 364.802197 151.128947 365.287197 149.681447 
Q 365.684697 148.486447 366.497197 147.851447 
Q 367.309697 147.213947 368.217197 147.213947 
Q 369.139697 147.213947 369.939697 147.843947 
Q 370.739697 148.471447 371.114697 149.533947 
Q 371.639697 150.993947 371.639697 152.728947 
z
M 369.232197 152.713947 
Q 369.232197 149.931447 369.202197 149.471447 
Q 369.122197 148.386447 368.827197 148.003947 
Q 368.632197 147.753947 368.194697 147.753947 
Q 367.857197 147.753947 367.662197 147.941447 
Q 367.372197 148.213947 367.269697 148.906447 
Q 367.169697 149.596447 367.169697 153.728947 
Q 367.169697 155.978947 367.327197 156.743947 
Q 367.444697 157.298947 367.662197 157.486447 
Q 367.882197 157.673947 368.239697 157.673947 
Q 368.632197 157.673947 368.827197 157.423947 
Q 369.154697 156.986447 369.202197 156.073947 
L 369.232197 152.713947 
z
M 374.224697 155.618947 
Q 374.772197 155.618947 375.149697 156.003947 
Q 375.529697 156.386447 375.529697 156.923947 
Q 375.529697 157.463947 375.147197 157.843947 
Q 374.764697 158.221447 374.224697 158.221447 
Q 373.684697 158.221447 373.304697 157.843947 
Q 372.927197 157.463947 372.927197 156.923947 
Q 372.927197 156.386447 373.304697 156.003947 
Q 373.684697 155.618947 374.224697 155.618947 
z
M 376.622197 154.033947 
L 381.654697 147.213947 
L 382.607197 147.213947 
L 382.607197 154.033947 
L 383.577197 154.033947 
L 383.577197 155.651447 
L 382.607197 155.651447 
L 382.607197 158.026447 
L 380.459697 158.026447 
L 380.459697 155.651447 
L 376.622197 155.651447 
L 376.622197 154.033947 
z
M 377.382197 154.033947 
L 380.459697 154.033947 
L 380.459697 149.853947 
L 377.382197 154.033947 
z
"/>
   </g>
   <g id="text_27">
    <path d="M 361.677197 107.743746 
Q 362.794697 108.563746 363.227197 109.271246 
Q 363.662197 109.978746 363.662197 110.893746 
Q 363.662197 112.173746 362.697197 113.061246 
Q 361.732197 113.948746 360.077197 113.948746 
Q 358.507197 113.948746 357.647197 113.176246 
Q 356.787197 112.401246 356.787197 111.283746 
Q 356.787197 110.431246 357.282197 109.791246 
Q 357.779697 109.151246 358.934697 108.618746 
Q 357.677197 107.658746 357.322197 107.048746 
Q 356.967197 106.438746 356.967197 105.633746 
Q 356.967197 104.571246 357.869697 103.763746 
Q 358.772197 102.956246 360.342197 102.956246 
Q 361.857197 102.956246 362.672197 103.671246 
Q 363.489697 104.383746 363.489697 105.383746 
Q 363.489697 106.133746 363.047197 106.708746 
Q 362.607197 107.283746 361.677197 107.743746 
z
M 361.084697 107.346246 
Q 361.372197 106.956246 361.512197 106.471246 
Q 361.654697 105.986246 361.654697 105.408746 
Q 361.654697 104.393746 361.217197 103.853746 
Q 360.889697 103.438746 360.309697 103.438746 
Q 359.787197 103.438746 359.419697 103.818746 
Q 359.052197 104.196246 359.052197 104.758746 
Q 359.052197 105.331246 359.462197 105.943746 
Q 359.872197 106.556246 361.084697 107.346246 
z
M 359.522197 108.993746 
Q 359.279697 109.213746 359.177197 109.393746 
Q 359.022197 109.666246 358.897197 110.191246 
Q 358.772197 110.713746 358.772197 111.283746 
Q 358.772197 112.018746 358.959697 112.513746 
Q 359.147197 113.008746 359.494697 113.228746 
Q 359.842197 113.446246 360.209697 113.446246 
Q 360.779697 113.446246 361.169697 113.028746 
Q 361.559697 112.611246 361.559697 111.883746 
Q 361.559697 110.368746 359.522197 108.993746 
z
M 369.434697 102.916246 
L 369.434697 111.581246 
Q 369.434697 112.556246 369.519697 112.826246 
Q 369.607197 113.096246 369.879697 113.268746 
Q 370.154697 113.438746 370.757197 113.438746 
L 370.997197 113.438746 
L 370.997197 113.728746 
L 365.419697 113.728746 
L 365.419697 113.438746 
L 365.702197 113.438746 
Q 366.382197 113.438746 366.669697 113.283746 
Q 366.959697 113.126246 367.059697 112.853746 
Q 367.162197 112.581246 367.162197 111.581246 
L 367.162197 106.088746 
Q 367.162197 105.353746 367.092197 105.171246 
Q 367.022197 104.986246 366.829697 104.858746 
Q 366.639697 104.728746 366.389697 104.728746 
Q 365.989697 104.728746 365.419697 104.978746 
L 365.279697 104.696246 
L 369.177197 102.916246 
L 369.434697 102.916246 
z
M 374.224697 111.321246 
Q 374.772197 111.321246 375.149697 111.706246 
Q 375.529697 112.088746 375.529697 112.626246 
Q 375.529697 113.166246 375.147197 113.546246 
Q 374.764697 113.923746 374.224697 113.923746 
Q 373.684697 113.923746 373.304697 113.546246 
Q 372.927197 113.166246 372.927197 112.626246 
Q 372.927197 112.088746 373.304697 111.706246 
Q 373.684697 111.321246 374.224697 111.321246 
z
M 383.739697 102.916246 
L 383.739697 103.133746 
Q 382.327197 103.493746 381.469697 104.061246 
Q 380.614697 104.626246 380.117197 105.436246 
Q 379.622197 106.243746 379.349697 107.438746 
Q 379.694697 107.206246 379.919697 107.133746 
Q 380.427197 106.978746 380.944697 106.978746 
Q 382.132197 106.978746 382.924697 107.843746 
Q 383.717197 108.706246 383.717197 110.196246 
Q 383.717197 111.243746 383.287197 112.118746 
Q 382.857197 112.993746 382.067197 113.471246 
Q 381.279697 113.948746 380.382197 113.948746 
Q 379.404697 113.948746 378.574697 113.413746 
Q 377.747197 112.876246 377.282197 111.846246 
Q 376.819697 110.813746 376.819697 109.603746 
Q 376.819697 107.821246 377.674697 106.286246 
Q 378.529697 104.751246 380.102197 103.841246 
Q 381.677197 102.931246 383.739697 102.916246 
z
M 379.247197 108.071246 
Q 379.184697 109.151246 379.184697 109.651246 
Q 379.184697 110.728746 379.392197 111.736246 
Q 379.599697 112.743746 379.959697 113.151246 
Q 380.217197 113.438746 380.569697 113.438746 
Q 380.927197 113.438746 381.207197 113.021246 
Q 381.489697 112.603746 381.489697 111.321246 
Q 381.489697 109.166246 380.967197 108.346246 
Q 380.632197 107.813746 380.059697 107.813746 
Q 379.747197 107.813746 379.247197 108.071246 
z
" style="stroke: #ffffff; stroke-width: 3.8"/>
    <path d="M 361.677197 107.743746 
Q 362.794697 108.563746 363.227197 109.271246 
Q 363.662197 109.978746 363.662197 110.893746 
Q 363.662197 112.173746 362.697197 113.061246 
Q 361.732197 113.948746 360.077197 113.948746 
Q 358.507197 113.948746 357.647197 113.176246 
Q 356.787197 112.401246 356.787197 111.283746 
Q 356.787197 110.431246 357.282197 109.791246 
Q 357.779697 109.151246 358.934697 108.618746 
Q 357.677197 107.658746 357.322197 107.048746 
Q 356.967197 106.438746 356.967197 105.633746 
Q 356.967197 104.571246 357.869697 103.763746 
Q 358.772197 102.956246 360.342197 102.956246 
Q 361.857197 102.956246 362.672197 103.671246 
Q 363.489697 104.383746 363.489697 105.383746 
Q 363.489697 106.133746 363.047197 106.708746 
Q 362.607197 107.283746 361.677197 107.743746 
z
M 361.084697 107.346246 
Q 361.372197 106.956246 361.512197 106.471246 
Q 361.654697 105.986246 361.654697 105.408746 
Q 361.654697 104.393746 361.217197 103.853746 
Q 360.889697 103.438746 360.309697 103.438746 
Q 359.787197 103.438746 359.419697 103.818746 
Q 359.052197 104.196246 359.052197 104.758746 
Q 359.052197 105.331246 359.462197 105.943746 
Q 359.872197 106.556246 361.084697 107.346246 
z
M 359.522197 108.993746 
Q 359.279697 109.213746 359.177197 109.393746 
Q 359.022197 109.666246 358.897197 110.191246 
Q 358.772197 110.713746 358.772197 111.283746 
Q 358.772197 112.018746 358.959697 112.513746 
Q 359.147197 113.008746 359.494697 113.228746 
Q 359.842197 113.446246 360.209697 113.446246 
Q 360.779697 113.446246 361.169697 113.028746 
Q 361.559697 112.611246 361.559697 111.883746 
Q 361.559697 110.368746 359.522197 108.993746 
z
M 369.434697 102.916246 
L 369.434697 111.581246 
Q 369.434697 112.556246 369.519697 112.826246 
Q 369.607197 113.096246 369.879697 113.268746 
Q 370.154697 113.438746 370.757197 113.438746 
L 370.997197 113.438746 
L 370.997197 113.728746 
L 365.419697 113.728746 
L 365.419697 113.438746 
L 365.702197 113.438746 
Q 366.382197 113.438746 366.669697 113.283746 
Q 366.959697 113.126246 367.059697 112.853746 
Q 367.162197 112.581246 367.162197 111.581246 
L 367.162197 106.088746 
Q 367.162197 105.353746 367.092197 105.171246 
Q 367.022197 104.986246 366.829697 104.858746 
Q 366.639697 104.728746 366.389697 104.728746 
Q 365.989697 104.728746 365.419697 104.978746 
L 365.279697 104.696246 
L 369.177197 102.916246 
L 369.434697 102.916246 
z
M 374.224697 111.321246 
Q 374.772197 111.321246 375.149697 111.706246 
Q 375.529697 112.088746 375.529697 112.626246 
Q 375.529697 113.166246 375.147197 113.546246 
Q 374.764697 113.923746 374.224697 113.923746 
Q 373.684697 113.923746 373.304697 113.546246 
Q 372.927197 113.166246 372.927197 112.626246 
Q 372.927197 112.088746 373.304697 111.706246 
Q 373.684697 111.321246 374.224697 111.321246 
z
M 383.739697 102.916246 
L 383.739697 103.133746 
Q 382.327197 103.493746 381.469697 104.061246 
Q 380.614697 104.626246 380.117197 105.436246 
Q 379.622197 106.243746 379.349697 107.438746 
Q 379.694697 107.206246 379.919697 107.133746 
Q 380.427197 106.978746 380.944697 106.978746 
Q 382.132197 106.978746 382.924697 107.843746 
Q 383.717197 108.706246 383.717197 110.196246 
Q 383.717197 111.243746 383.287197 112.118746 
Q 382.857197 112.993746 382.067197 113.471246 
Q 381.279697 113.948746 380.382197 113.948746 
Q 379.404697 113.948746 378.574697 113.413746 
Q 377.747197 112.876246 377.282197 111.846246 
Q 376.819697 110.813746 376.819697 109.603746 
Q 376.819697 107.821246 377.674697 106.286246 
Q 378.529697 104.751246 380.102197 103.841246 
Q 381.677197 102.931246 383.739697 102.916246 
z
M 379.247197 108.071246 
Q 379.184697 109.151246 379.184697 109.651246 
Q 379.184697 110.728746 379.392197 111.736246 
Q 379.599697 112.743746 379.959697 113.151246 
Q 380.217197 113.438746 380.569697 113.438746 
Q 380.927197 113.438746 381.207197 113.021246 
Q 381.489697 112.603746 381.489697 111.321246 
Q 381.489697 109.166246 380.967197 108.346246 
Q 380.632197 107.813746 380.059697 107.813746 
Q 379.747197 107.813746 379.247197 108.071246 
z
"/>
   </g>
   <g id="text_28">
    <path d="M 574.591172 168.36209 
L 579.551172 168.36209 
L 578.763672 170.37959 
L 574.591172 170.37959 
L 574.193672 171.43459 
Q 576.888672 171.53459 578.341172 172.77709 
Q 579.536172 173.79959 579.536172 175.32459 
Q 579.536172 176.29959 578.981172 177.23459 
Q 578.426172 178.16709 577.418672 178.67209 
Q 576.411172 179.17709 575.208672 179.17709 
Q 573.911172 179.17709 573.216172 178.69209 
Q 572.731172 178.34709 572.731172 177.90959 
Q 572.731172 177.57459 572.983672 177.31709 
Q 573.238672 177.05959 573.576172 177.05959 
Q 573.881172 177.05959 574.193672 177.18459 
Q 574.506172 177.30959 575.263672 177.83959 
Q 575.738672 178.16709 576.083672 178.29209 
Q 576.326172 178.38709 576.631172 178.38709 
Q 577.271172 178.38709 577.718672 177.91959 
Q 578.168672 177.44959 578.168672 176.79209 
Q 578.168672 175.41709 576.793672 174.55959 
Q 575.418672 173.69959 573.326172 173.69959 
Q 573.113672 173.69959 572.693672 173.70709 
L 574.591172 168.36209 
z
M 582.988672 179.17709 
L 585.873672 170.43459 
L 583.676172 170.43459 
Q 582.388672 170.43459 581.738672 170.76959 
Q 581.286172 171.00459 580.988672 171.65209 
L 580.693672 171.65209 
L 581.458672 168.36209 
L 587.771172 168.36209 
L 584.216172 179.17709 
L 582.988672 179.17709 
z
M 590.153672 176.54959 
Q 590.701172 176.54959 591.078672 176.93459 
Q 591.458672 177.31709 591.458672 177.85459 
Q 591.458672 178.39459 591.076172 178.77459 
Q 590.693672 179.15209 590.153672 179.15209 
Q 589.613672 179.15209 589.233672 178.77459 
Q 588.856172 178.39459 588.856172 177.85459 
Q 588.856172 177.31709 589.233672 176.93459 
Q 589.613672 176.54959 590.153672 176.54959 
z
M 597.606172 172.97209 
Q 598.723672 173.79209 599.156172 174.49959 
Q 599.591172 175.20709 599.591172 176.12209 
Q 599.591172 177.40209 598.626172 178.28959 
Q 597.661172 179.17709 596.006172 179.17709 
Q 594.436172 179.17709 593.576172 178.40459 
Q 592.716172 177.62959 592.716172 176.51209 
Q 592.716172 175.65959 593.211172 175.01959 
Q 593.708672 174.37959 594.863672 173.84709 
Q 593.606172 172.88709 593.251172 172.27709 
Q 592.896172 171.66709 592.896172 170.86209 
Q 592.896172 169.79959 593.798672 168.99209 
Q 594.701172 168.18459 596.271172 168.18459 
Q 597.786172 168.18459 598.601172 168.89959 
Q 599.418672 169.61209 599.418672 170.61209 
Q 599.418672 171.36209 598.976172 171.93709 
Q 598.536172 172.51209 597.606172 172.97209 
z
M 597.013672 172.57459 
Q 597.301172 172.18459 597.441172 171.69959 
Q 597.583672 171.21459 597.583672 170.63709 
Q 597.583672 169.62209 597.146172 169.08209 
Q 596.818672 168.66709 596.238672 168.66709 
Q 595.716172 168.66709 595.348672 169.04709 
Q 594.981172 169.42459 594.981172 169.98709 
Q 594.981172 170.55959 595.391172 171.17209 
Q 595.801172 171.78459 597.013672 172.57459 
z
M 595.451172 174.22209 
Q 595.208672 174.44209 595.106172 174.62209 
Q 594.951172 174.89459 594.826172 175.41959 
Q 594.701172 175.94209 594.701172 176.51209 
Q 594.701172 177.24709 594.888672 177.74209 
Q 595.076172 178.23709 595.423672 178.45709 
Q 595.771172 178.67459 596.138672 178.67459 
Q 596.708672 178.67459 597.098672 178.25709 
Q 597.488672 177.83959 597.488672 177.11209 
Q 597.488672 175.59709 595.451172 174.22209 
z
" style="stroke: #ffffff; stroke-width: 3.8"/>
    <path d="M 574.591172 168.36209 
L 579.551172 168.36209 
L 578.763672 170.37959 
L 574.591172 170.37959 
L 574.193672 171.43459 
Q 576.888672 171.53459 578.341172 172.77709 
Q 579.536172 173.79959 579.536172 175.32459 
Q 579.536172 176.29959 578.981172 177.23459 
Q 578.426172 178.16709 577.418672 178.67209 
Q 576.411172 179.17709 575.208672 179.17709 
Q 573.911172 179.17709 573.216172 178.69209 
Q 572.731172 178.34709 572.731172 177.90959 
Q 572.731172 177.57459 572.983672 177.31709 
Q 573.238672 177.05959 573.576172 177.05959 
Q 573.881172 177.05959 574.193672 177.18459 
Q 574.506172 177.30959 575.263672 177.83959 
Q 575.738672 178.16709 576.083672 178.29209 
Q 576.326172 178.38709 576.631172 178.38709 
Q 577.271172 178.38709 577.718672 177.91959 
Q 578.168672 177.44959 578.168672 176.79209 
Q 578.168672 175.41709 576.793672 174.55959 
Q 575.418672 173.69959 573.326172 173.69959 
Q 573.113672 173.69959 572.693672 173.70709 
L 574.591172 168.36209 
z
M 582.988672 179.17709 
L 585.873672 170.43459 
L 583.676172 170.43459 
Q 582.388672 170.43459 581.738672 170.76959 
Q 581.286172 171.00459 580.988672 171.65209 
L 580.693672 171.65209 
L 581.458672 168.36209 
L 587.771172 168.36209 
L 584.216172 179.17709 
L 582.988672 179.17709 
z
M 590.153672 176.54959 
Q 590.701172 176.54959 591.078672 176.93459 
Q 591.458672 177.31709 591.458672 177.85459 
Q 591.458672 178.39459 591.076172 178.77459 
Q 590.693672 179.15209 590.153672 179.15209 
Q 589.613672 179.15209 589.233672 178.77459 
Q 588.856172 178.39459 588.856172 177.85459 
Q 588.856172 177.31709 589.233672 176.93459 
Q 589.613672 176.54959 590.153672 176.54959 
z
M 597.606172 172.97209 
Q 598.723672 173.79209 599.156172 174.49959 
Q 599.591172 175.20709 599.591172 176.12209 
Q 599.591172 177.40209 598.626172 178.28959 
Q 597.661172 179.17709 596.006172 179.17709 
Q 594.436172 179.17709 593.576172 178.40459 
Q 592.716172 177.62959 592.716172 176.51209 
Q 592.716172 175.65959 593.211172 175.01959 
Q 593.708672 174.37959 594.863672 173.84709 
Q 593.606172 172.88709 593.251172 172.27709 
Q 592.896172 171.66709 592.896172 170.86209 
Q 592.896172 169.79959 593.798672 168.99209 
Q 594.701172 168.18459 596.271172 168.18459 
Q 597.786172 168.18459 598.601172 168.89959 
Q 599.418672 169.61209 599.418672 170.61209 
Q 599.418672 171.36209 598.976172 171.93709 
Q 598.536172 172.51209 597.606172 172.97209 
z
M 597.013672 172.57459 
Q 597.301172 172.18459 597.441172 171.69959 
Q 597.583672 171.21459 597.583672 170.63709 
Q 597.583672 169.62209 597.146172 169.08209 
Q 596.818672 168.66709 596.238672 168.66709 
Q 595.716172 168.66709 595.348672 169.04709 
Q 594.981172 169.42459 594.981172 169.98709 
Q 594.981172 170.55959 595.391172 171.17209 
Q 595.801172 171.78459 597.013672 172.57459 
z
M 595.451172 174.22209 
Q 595.208672 174.44209 595.106172 174.62209 
Q 594.951172 174.89459 594.826172 175.41959 
Q 594.701172 175.94209 594.701172 176.51209 
Q 594.701172 177.24709 594.888672 177.74209 
Q 595.076172 178.23709 595.423672 178.45709 
Q 595.771172 178.67459 596.138672 178.67459 
Q 596.708672 178.67459 597.098672 178.25709 
Q 597.488672 177.83959 597.488672 177.11209 
Q 597.488672 175.59709 595.451172 174.22209 
z
"/>
   </g>
   <g id="text_29">
    <path d="M 576.507676 365.326787 
L 576.507676 365.071318 
Q 577.342051 364.827568 577.663145 364.618975 
Q 577.986582 364.410381 578.220957 363.983818 
Q 578.455332 363.554912 578.455332 363.114287 
Q 578.455332 362.507256 578.012364 362.071318 
Q 577.569395 361.635381 576.910801 361.635381 
Q 575.884239 361.635381 575.167051 362.718193 
L 574.895176 362.624443 
Q 575.42252 361.401006 576.24752 360.786943 
Q 577.07252 360.170537 578.082676 360.170537 
Q 579.113926 360.170537 579.784239 360.801006 
Q 580.454551 361.429131 580.454551 362.272881 
Q 580.454551 362.821318 580.142832 363.332256 
Q 579.833457 363.84085 579.165489 364.227568 
Q 580.023301 364.644756 580.473301 365.256475 
Q 580.923301 365.868193 580.923301 366.791631 
Q 580.923301 368.343193 579.798301 369.433037 
Q 578.675645 370.520537 576.786582 370.520537 
Q 575.525645 370.520537 574.946739 370.101006 
Q 574.529551 369.808037 574.529551 369.348662 
Q 574.529551 369.011162 574.770957 368.774443 
Q 575.012364 368.535381 575.32877 368.535381 
Q 575.570176 368.535381 575.783457 368.636162 
Q 575.900645 368.694756 576.613145 369.27835 
Q 577.327989 369.8596 577.951426 369.8596 
Q 578.492832 369.8596 578.879551 369.433037 
Q 579.268614 369.004131 579.268614 368.343193 
Q 579.268614 367.340068 578.565489 366.493975 
Q 577.862364 365.647881 576.507676 365.326787 
z
M 583.663145 368.050225 
Q 584.176426 368.050225 584.530332 368.411162 
Q 584.886582 368.769756 584.886582 369.273662 
Q 584.886582 369.779912 584.527989 370.136162 
Q 584.169395 370.490068 583.663145 370.490068 
Q 583.156895 370.490068 582.800645 370.136162 
Q 582.446739 369.779912 582.446739 369.273662 
Q 582.446739 368.769756 582.800645 368.411162 
Q 583.156895 368.050225 583.663145 368.050225 
z
M 585.999864 370.513506 
L 585.999864 370.307256 
Q 587.21627 370.02835 588.062364 369.486943 
Q 588.908457 368.945537 589.400645 368.146318 
Q 589.895176 367.3471 590.094395 366.308818 
Q 589.639707 366.543193 589.320957 366.6346 
Q 589.002207 366.726006 588.650645 366.726006 
Q 587.523301 366.726006 586.770957 365.912725 
Q 586.020957 365.099443 586.020957 363.686162 
Q 586.020957 362.704131 586.426426 361.888506 
Q 586.834239 361.070537 587.588926 360.620537 
Q 588.343614 360.170537 589.156895 360.170537 
Q 590.02877 360.170537 590.804551 360.669756 
Q 591.580332 361.166631 592.042051 362.111162 
Q 592.50377 363.055693 592.50377 364.265068 
Q 592.50377 365.833037 591.751426 367.269756 
Q 591.001426 368.704131 589.515489 369.571318 
Q 588.029551 370.438506 585.999864 370.513506 
z
M 590.204551 365.692412 
Q 590.277207 364.8721 590.277207 364.251006 
Q 590.277207 362.917412 589.970176 361.766631 
Q 589.794395 361.129131 589.449864 360.829131 
Q 589.267051 360.667412 588.974082 360.667412 
Q 588.606114 360.667412 588.402207 360.983818 
Q 588.11627 361.415068 588.11627 362.631475 
Q 588.11627 364.661162 588.599082 365.429912 
Q 588.915489 365.926787 589.449864 365.926787 
Q 589.735801 365.926787 590.204551 365.692412 
z
" style="fill: #404040; stroke: #ffffff; stroke-width: 3.8"/>
    <path d="M 576.507676 365.326787 
L 576.507676 365.071318 
Q 577.342051 364.827568 577.663145 364.618975 
Q 577.986582 364.410381 578.220957 363.983818 
Q 578.455332 363.554912 578.455332 363.114287 
Q 578.455332 362.507256 578.012364 362.071318 
Q 577.569395 361.635381 576.910801 361.635381 
Q 575.884239 361.635381 575.167051 362.718193 
L 574.895176 362.624443 
Q 575.42252 361.401006 576.24752 360.786943 
Q 577.07252 360.170537 578.082676 360.170537 
Q 579.113926 360.170537 579.784239 360.801006 
Q 580.454551 361.429131 580.454551 362.272881 
Q 580.454551 362.821318 580.142832 363.332256 
Q 579.833457 363.84085 579.165489 364.227568 
Q 580.023301 364.644756 580.473301 365.256475 
Q 580.923301 365.868193 580.923301 366.791631 
Q 580.923301 368.343193 579.798301 369.433037 
Q 578.675645 370.520537 576.786582 370.520537 
Q 575.525645 370.520537 574.946739 370.101006 
Q 574.529551 369.808037 574.529551 369.348662 
Q 574.529551 369.011162 574.770957 368.774443 
Q 575.012364 368.535381 575.32877 368.535381 
Q 575.570176 368.535381 575.783457 368.636162 
Q 575.900645 368.694756 576.613145 369.27835 
Q 577.327989 369.8596 577.951426 369.8596 
Q 578.492832 369.8596 578.879551 369.433037 
Q 579.268614 369.004131 579.268614 368.343193 
Q 579.268614 367.340068 578.565489 366.493975 
Q 577.862364 365.647881 576.507676 365.326787 
z
M 583.663145 368.050225 
Q 584.176426 368.050225 584.530332 368.411162 
Q 584.886582 368.769756 584.886582 369.273662 
Q 584.886582 369.779912 584.527989 370.136162 
Q 584.169395 370.490068 583.663145 370.490068 
Q 583.156895 370.490068 582.800645 370.136162 
Q 582.446739 369.779912 582.446739 369.273662 
Q 582.446739 368.769756 582.800645 368.411162 
Q 583.156895 368.050225 583.663145 368.050225 
z
M 585.999864 370.513506 
L 585.999864 370.307256 
Q 587.21627 370.02835 588.062364 369.486943 
Q 588.908457 368.945537 589.400645 368.146318 
Q 589.895176 367.3471 590.094395 366.308818 
Q 589.639707 366.543193 589.320957 366.6346 
Q 589.002207 366.726006 588.650645 366.726006 
Q 587.523301 366.726006 586.770957 365.912725 
Q 586.020957 365.099443 586.020957 363.686162 
Q 586.020957 362.704131 586.426426 361.888506 
Q 586.834239 361.070537 587.588926 360.620537 
Q 588.343614 360.170537 589.156895 360.170537 
Q 590.02877 360.170537 590.804551 360.669756 
Q 591.580332 361.166631 592.042051 362.111162 
Q 592.50377 363.055693 592.50377 364.265068 
Q 592.50377 365.833037 591.751426 367.269756 
Q 591.001426 368.704131 589.515489 369.571318 
Q 588.029551 370.438506 585.999864 370.513506 
z
M 590.204551 365.692412 
Q 590.277207 364.8721 590.277207 364.251006 
Q 590.277207 362.917412 589.970176 361.766631 
Q 589.794395 361.129131 589.449864 360.829131 
Q 589.267051 360.667412 588.974082 360.667412 
Q 588.606114 360.667412 588.402207 360.983818 
Q 588.11627 361.415068 588.11627 362.631475 
Q 588.11627 364.661162 588.599082 365.429912 
Q 588.915489 365.926787 589.449864 365.926787 
Q 589.735801 365.926787 590.204551 365.692412 
z
" style="fill: #404040"/>
   </g>
   <g id="text_30">
    <path d="M 565.035986 305.776714 
L 569.685986 305.776714 
L 568.947705 307.668121 
L 565.035986 307.668121 
L 564.66333 308.657183 
Q 567.189893 308.750933 568.551611 309.915777 
Q 569.671924 310.874371 569.671924 312.304058 
Q 569.671924 313.218121 569.151611 314.094683 
Q 568.631299 314.968902 567.686768 315.442339 
Q 566.742236 315.915777 565.614893 315.915777 
Q 564.398486 315.915777 563.746924 315.461089 
Q 563.292236 315.137652 563.292236 314.727496 
Q 563.292236 314.413433 563.528955 314.172027 
Q 563.768018 313.930621 564.084424 313.930621 
Q 564.370361 313.930621 564.66333 314.047808 
Q 564.956299 314.164996 565.666455 314.661871 
Q 566.111768 314.968902 566.435205 315.086089 
Q 566.662549 315.175152 566.948486 315.175152 
Q 567.548486 315.175152 567.968018 314.736871 
Q 568.389893 314.296246 568.389893 313.679839 
Q 568.389893 312.390777 567.10083 311.586871 
Q 565.811768 310.780621 563.850049 310.780621 
Q 563.65083 310.780621 563.25708 310.787652 
L 565.035986 305.776714 
z
M 572.470361 310.729058 
L 572.470361 310.473589 
Q 573.304736 310.229839 573.62583 310.021246 
Q 573.949268 309.812652 574.183643 309.386089 
Q 574.418018 308.957183 574.418018 308.516558 
Q 574.418018 307.909527 573.975049 307.473589 
Q 573.53208 307.037652 572.873486 307.037652 
Q 571.846924 307.037652 571.129736 308.120464 
L 570.857861 308.026714 
Q 571.385205 306.803277 572.210205 306.189214 
Q 573.035205 305.572808 574.045361 305.572808 
Q 575.076611 305.572808 575.746924 306.203277 
Q 576.417236 306.831402 576.417236 307.675152 
Q 576.417236 308.223589 576.105518 308.734527 
Q 575.796143 309.243121 575.128174 309.629839 
Q 575.985986 310.047027 576.435986 310.658746 
Q 576.885986 311.270464 576.885986 312.193902 
Q 576.885986 313.745464 575.760986 314.835308 
Q 574.63833 315.922808 572.749268 315.922808 
Q 571.48833 315.922808 570.909424 315.503277 
Q 570.492236 315.210308 570.492236 314.750933 
Q 570.492236 314.413433 570.733643 314.176714 
Q 570.975049 313.937652 571.291455 313.937652 
Q 571.532861 313.937652 571.746143 314.038433 
Q 571.86333 314.097027 572.57583 314.680621 
Q 573.290674 315.261871 573.914111 315.261871 
Q 574.455518 315.261871 574.842236 314.835308 
Q 575.231299 314.406402 575.231299 313.745464 
Q 575.231299 312.742339 574.528174 311.896246 
Q 573.825049 311.050152 572.470361 310.729058 
z
M 579.62583 313.452496 
Q 580.139111 313.452496 580.493018 313.813433 
Q 580.849268 314.172027 580.849268 314.675933 
Q 580.849268 315.182183 580.490674 315.538433 
Q 580.13208 315.892339 579.62583 315.892339 
Q 579.11958 315.892339 578.76333 315.538433 
Q 578.409424 315.182183 578.409424 314.675933 
Q 578.409424 314.172027 578.76333 313.813433 
Q 579.11958 313.452496 579.62583 313.452496 
z
M 581.873486 311.966558 
L 586.591455 305.572808 
L 587.484424 305.572808 
L 587.484424 311.966558 
L 588.393799 311.966558 
L 588.393799 313.482964 
L 587.484424 313.482964 
L 587.484424 315.709527 
L 585.471143 315.709527 
L 585.471143 313.482964 
L 581.873486 313.482964 
L 581.873486 311.966558 
z
M 582.585986 311.966558 
L 585.471143 311.966558 
L 585.471143 308.047808 
L 582.585986 311.966558 
z
" style="fill: #404040; stroke: #ffffff; stroke-width: 3.8"/>
    <path d="M 565.035986 305.776714 
L 569.685986 305.776714 
L 568.947705 307.668121 
L 565.035986 307.668121 
L 564.66333 308.657183 
Q 567.189893 308.750933 568.551611 309.915777 
Q 569.671924 310.874371 569.671924 312.304058 
Q 569.671924 313.218121 569.151611 314.094683 
Q 568.631299 314.968902 567.686768 315.442339 
Q 566.742236 315.915777 565.614893 315.915777 
Q 564.398486 315.915777 563.746924 315.461089 
Q 563.292236 315.137652 563.292236 314.727496 
Q 563.292236 314.413433 563.528955 314.172027 
Q 563.768018 313.930621 564.084424 313.930621 
Q 564.370361 313.930621 564.66333 314.047808 
Q 564.956299 314.164996 565.666455 314.661871 
Q 566.111768 314.968902 566.435205 315.086089 
Q 566.662549 315.175152 566.948486 315.175152 
Q 567.548486 315.175152 567.968018 314.736871 
Q 568.389893 314.296246 568.389893 313.679839 
Q 568.389893 312.390777 567.10083 311.586871 
Q 565.811768 310.780621 563.850049 310.780621 
Q 563.65083 310.780621 563.25708 310.787652 
L 565.035986 305.776714 
z
M 572.470361 310.729058 
L 572.470361 310.473589 
Q 573.304736 310.229839 573.62583 310.021246 
Q 573.949268 309.812652 574.183643 309.386089 
Q 574.418018 308.957183 574.418018 308.516558 
Q 574.418018 307.909527 573.975049 307.473589 
Q 573.53208 307.037652 572.873486 307.037652 
Q 571.846924 307.037652 571.129736 308.120464 
L 570.857861 308.026714 
Q 571.385205 306.803277 572.210205 306.189214 
Q 573.035205 305.572808 574.045361 305.572808 
Q 575.076611 305.572808 575.746924 306.203277 
Q 576.417236 306.831402 576.417236 307.675152 
Q 576.417236 308.223589 576.105518 308.734527 
Q 575.796143 309.243121 575.128174 309.629839 
Q 575.985986 310.047027 576.435986 310.658746 
Q 576.885986 311.270464 576.885986 312.193902 
Q 576.885986 313.745464 575.760986 314.835308 
Q 574.63833 315.922808 572.749268 315.922808 
Q 571.48833 315.922808 570.909424 315.503277 
Q 570.492236 315.210308 570.492236 314.750933 
Q 570.492236 314.413433 570.733643 314.176714 
Q 570.975049 313.937652 571.291455 313.937652 
Q 571.532861 313.937652 571.746143 314.038433 
Q 571.86333 314.097027 572.57583 314.680621 
Q 573.290674 315.261871 573.914111 315.261871 
Q 574.455518 315.261871 574.842236 314.835308 
Q 575.231299 314.406402 575.231299 313.745464 
Q 575.231299 312.742339 574.528174 311.896246 
Q 573.825049 311.050152 572.470361 310.729058 
z
M 579.62583 313.452496 
Q 580.139111 313.452496 580.493018 313.813433 
Q 580.849268 314.172027 580.849268 314.675933 
Q 580.849268 315.182183 580.490674 315.538433 
Q 580.13208 315.892339 579.62583 315.892339 
Q 579.11958 315.892339 578.76333 315.538433 
Q 578.409424 315.182183 578.409424 314.675933 
Q 578.409424 314.172027 578.76333 313.813433 
Q 579.11958 313.452496 579.62583 313.452496 
z
M 581.873486 311.966558 
L 586.591455 305.572808 
L 587.484424 305.572808 
L 587.484424 311.966558 
L 588.393799 311.966558 
L 588.393799 313.482964 
L 587.484424 313.482964 
L 587.484424 315.709527 
L 585.471143 315.709527 
L 585.471143 313.482964 
L 581.873486 313.482964 
L 581.873486 311.966558 
z
M 582.585986 311.966558 
L 585.471143 311.966558 
L 585.471143 308.047808 
L 582.585986 311.966558 
z
" style="fill: #404040"/>
   </g>
   <g id="text_31">
    <path d="M 536.315006 266.467874 
L 530.469693 266.467874 
L 530.469693 266.306155 
Q 533.157975 263.106937 533.732193 262.000687 
Q 534.308756 260.894437 534.308756 259.839749 
Q 534.308756 259.070999 533.832975 258.562405 
Q 533.357193 258.051468 532.668131 258.051468 
Q 531.540787 258.051468 530.91735 259.181155 
L 530.645475 259.085062 
Q 531.041568 257.678812 531.847818 257.006155 
Q 532.654068 256.331155 533.708756 256.331155 
Q 534.4611 256.331155 535.084537 256.682718 
Q 535.707975 257.03428 536.059537 257.645999 
Q 536.4111 258.257718 536.4111 258.792093 
Q 536.4111 259.767093 535.86735 260.770218 
Q 535.129068 262.124905 532.637662 264.548343 
L 534.784537 264.548343 
Q 535.574381 264.548343 535.813443 264.482718 
Q 536.052506 264.417093 536.20485 264.260062 
Q 536.359537 264.10303 536.607975 263.59678 
L 536.872818 263.59678 
L 536.315006 266.467874 
z
M 539.479068 264.210843 
Q 539.99235 264.210843 540.346256 264.57178 
Q 540.702506 264.930374 540.702506 265.43428 
Q 540.702506 265.94053 540.343912 266.29678 
Q 539.985318 266.650687 539.479068 266.650687 
Q 538.972818 266.650687 538.616568 266.29678 
Q 538.262662 265.94053 538.262662 265.43428 
Q 538.262662 264.930374 538.616568 264.57178 
Q 538.972818 264.210843 539.479068 264.210843 
z
M 546.465787 260.856937 
Q 547.513443 261.625687 547.918912 262.288968 
Q 548.326725 262.952249 548.326725 263.810062 
Q 548.326725 265.010062 547.422037 265.842093 
Q 546.51735 266.674124 544.965787 266.674124 
Q 543.493912 266.674124 542.687662 265.949905 
Q 541.881412 265.223343 541.881412 264.175687 
Q 541.881412 263.376468 542.345475 262.776468 
Q 542.811881 262.176468 543.894693 261.677249 
Q 542.715787 260.777249 542.382975 260.205374 
Q 542.050162 259.633499 542.050162 258.878812 
Q 542.050162 257.882718 542.896256 257.125687 
Q 543.74235 256.368655 545.214225 256.368655 
Q 546.634537 256.368655 547.3986 257.038968 
Q 548.165006 257.706937 548.165006 258.644437 
Q 548.165006 259.347562 547.750162 259.886624 
Q 547.337662 260.425687 546.465787 260.856937 
z
M 545.910318 260.48428 
Q 546.17985 260.118655 546.3111 259.663968 
Q 546.444693 259.20928 546.444693 258.667874 
Q 546.444693 257.716312 546.034537 257.210062 
Q 545.727506 256.820999 545.183756 256.820999 
Q 544.693912 256.820999 544.349381 257.177249 
Q 544.00485 257.531155 544.00485 258.058499 
Q 544.00485 258.595218 544.389225 259.169437 
Q 544.7736 259.743655 545.910318 260.48428 
z
M 544.445475 262.028812 
Q 544.218131 262.235062 544.122037 262.403812 
Q 543.976725 262.65928 543.859537 263.151468 
Q 543.74235 263.641312 543.74235 264.175687 
Q 543.74235 264.864749 543.918131 265.328812 
Q 544.093912 265.792874 544.419693 265.999124 
Q 544.745475 266.20303 545.090006 266.20303 
Q 545.624381 266.20303 545.990006 265.811624 
Q 546.355631 265.420218 546.355631 264.738187 
Q 546.355631 263.317874 544.445475 262.028812 
z
" style="fill: #404040; stroke: #ffffff; stroke-width: 3.8"/>
    <path d="M 536.315006 266.467874 
L 530.469693 266.467874 
L 530.469693 266.306155 
Q 533.157975 263.106937 533.732193 262.000687 
Q 534.308756 260.894437 534.308756 259.839749 
Q 534.308756 259.070999 533.832975 258.562405 
Q 533.357193 258.051468 532.668131 258.051468 
Q 531.540787 258.051468 530.91735 259.181155 
L 530.645475 259.085062 
Q 531.041568 257.678812 531.847818 257.006155 
Q 532.654068 256.331155 533.708756 256.331155 
Q 534.4611 256.331155 535.084537 256.682718 
Q 535.707975 257.03428 536.059537 257.645999 
Q 536.4111 258.257718 536.4111 258.792093 
Q 536.4111 259.767093 535.86735 260.770218 
Q 535.129068 262.124905 532.637662 264.548343 
L 534.784537 264.548343 
Q 535.574381 264.548343 535.813443 264.482718 
Q 536.052506 264.417093 536.20485 264.260062 
Q 536.359537 264.10303 536.607975 263.59678 
L 536.872818 263.59678 
L 536.315006 266.467874 
z
M 539.479068 264.210843 
Q 539.99235 264.210843 540.346256 264.57178 
Q 540.702506 264.930374 540.702506 265.43428 
Q 540.702506 265.94053 540.343912 266.29678 
Q 539.985318 266.650687 539.479068 266.650687 
Q 538.972818 266.650687 538.616568 266.29678 
Q 538.262662 265.94053 538.262662 265.43428 
Q 538.262662 264.930374 538.616568 264.57178 
Q 538.972818 264.210843 539.479068 264.210843 
z
M 546.465787 260.856937 
Q 547.513443 261.625687 547.918912 262.288968 
Q 548.326725 262.952249 548.326725 263.810062 
Q 548.326725 265.010062 547.422037 265.842093 
Q 546.51735 266.674124 544.965787 266.674124 
Q 543.493912 266.674124 542.687662 265.949905 
Q 541.881412 265.223343 541.881412 264.175687 
Q 541.881412 263.376468 542.345475 262.776468 
Q 542.811881 262.176468 543.894693 261.677249 
Q 542.715787 260.777249 542.382975 260.205374 
Q 542.050162 259.633499 542.050162 258.878812 
Q 542.050162 257.882718 542.896256 257.125687 
Q 543.74235 256.368655 545.214225 256.368655 
Q 546.634537 256.368655 547.3986 257.038968 
Q 548.165006 257.706937 548.165006 258.644437 
Q 548.165006 259.347562 547.750162 259.886624 
Q 547.337662 260.425687 546.465787 260.856937 
z
M 545.910318 260.48428 
Q 546.17985 260.118655 546.3111 259.663968 
Q 546.444693 259.20928 546.444693 258.667874 
Q 546.444693 257.716312 546.034537 257.210062 
Q 545.727506 256.820999 545.183756 256.820999 
Q 544.693912 256.820999 544.349381 257.177249 
Q 544.00485 257.531155 544.00485 258.058499 
Q 544.00485 258.595218 544.389225 259.169437 
Q 544.7736 259.743655 545.910318 260.48428 
z
M 544.445475 262.028812 
Q 544.218131 262.235062 544.122037 262.403812 
Q 543.976725 262.65928 543.859537 263.151468 
Q 543.74235 263.641312 543.74235 264.175687 
Q 543.74235 264.864749 543.918131 265.328812 
Q 544.093912 265.792874 544.419693 265.999124 
Q 544.745475 266.20303 545.090006 266.20303 
Q 545.624381 266.20303 545.990006 265.811624 
Q 546.355631 265.420218 546.355631 264.738187 
Q 546.355631 263.317874 544.445475 262.028812 
z
" style="fill: #404040"/>
   </g>
   <g id="text_32">
    <path d="M 321.856586 335.928742 
L 326.506586 335.928742 
L 325.768304 337.820148 
L 321.856586 337.820148 
L 321.483929 338.809211 
Q 324.010492 338.902961 325.372211 340.067805 
Q 326.492523 341.026398 326.492523 342.456086 
Q 326.492523 343.370148 325.972211 344.246711 
Q 325.451898 345.12093 324.507367 345.594367 
Q 323.562836 346.067805 322.435492 346.067805 
Q 321.219086 346.067805 320.567523 345.613117 
Q 320.112836 345.28968 320.112836 344.879523 
Q 320.112836 344.565461 320.349554 344.324055 
Q 320.588617 344.082648 320.905023 344.082648 
Q 321.190961 344.082648 321.483929 344.199836 
Q 321.776898 344.317023 322.487054 344.813898 
Q 322.932367 345.12093 323.255804 345.238117 
Q 323.483148 345.32718 323.769086 345.32718 
Q 324.369086 345.32718 324.788617 344.888898 
Q 325.210492 344.448273 325.210492 343.831867 
Q 325.210492 342.542805 323.921429 341.738898 
Q 322.632367 340.932648 320.670648 340.932648 
Q 320.471429 340.932648 320.077679 340.93968 
L 321.856586 335.928742 
z
M 329.290961 340.881086 
L 329.290961 340.625617 
Q 330.125336 340.381867 330.446429 340.173273 
Q 330.769867 339.96468 331.004242 339.538117 
Q 331.238617 339.109211 331.238617 338.668586 
Q 331.238617 338.061555 330.795648 337.625617 
Q 330.352679 337.18968 329.694086 337.18968 
Q 328.667523 337.18968 327.950336 338.272492 
L 327.678461 338.178742 
Q 328.205804 336.955305 329.030804 336.341242 
Q 329.855804 335.724836 330.865961 335.724836 
Q 331.897211 335.724836 332.567523 336.355305 
Q 333.237836 336.98343 333.237836 337.82718 
Q 333.237836 338.375617 332.926117 338.886555 
Q 332.616742 339.395148 331.948773 339.781867 
Q 332.806586 340.199055 333.256586 340.810773 
Q 333.706586 341.422492 333.706586 342.34593 
Q 333.706586 343.897492 332.581586 344.987336 
Q 331.458929 346.074836 329.569867 346.074836 
Q 328.308929 346.074836 327.730023 345.655305 
Q 327.312836 345.362336 327.312836 344.902961 
Q 327.312836 344.565461 327.554242 344.328742 
Q 327.795648 344.08968 328.112054 344.08968 
Q 328.353461 344.08968 328.566742 344.190461 
Q 328.683929 344.249055 329.396429 344.832648 
Q 330.111273 345.413898 330.734711 345.413898 
Q 331.276117 345.413898 331.662836 344.987336 
Q 332.051898 344.55843 332.051898 343.897492 
Q 332.051898 342.894367 331.348773 342.048273 
Q 330.645648 341.20218 329.290961 340.881086 
z
M 336.446429 343.604523 
Q 336.959711 343.604523 337.313617 343.965461 
Q 337.669867 344.324055 337.669867 344.827961 
Q 337.669867 345.334211 337.311273 345.690461 
Q 336.952679 346.044367 336.446429 346.044367 
Q 335.940179 346.044367 335.583929 345.690461 
Q 335.230023 345.334211 335.230023 344.827961 
Q 335.230023 344.324055 335.583929 343.965461 
Q 335.940179 343.604523 336.446429 343.604523 
z
M 340.979242 346.067805 
L 343.683929 337.871711 
L 341.623773 337.871711 
Q 340.416742 337.871711 339.807367 338.185773 
Q 339.383148 338.406086 339.104242 339.013117 
L 338.827679 339.013117 
L 339.544867 335.928742 
L 345.462836 335.928742 
L 342.130023 346.067805 
L 340.979242 346.067805 
z
" style="fill: #404040; stroke: #ffffff; stroke-width: 3.8"/>
    <path d="M 321.856586 335.928742 
L 326.506586 335.928742 
L 325.768304 337.820148 
L 321.856586 337.820148 
L 321.483929 338.809211 
Q 324.010492 338.902961 325.372211 340.067805 
Q 326.492523 341.026398 326.492523 342.456086 
Q 326.492523 343.370148 325.972211 344.246711 
Q 325.451898 345.12093 324.507367 345.594367 
Q 323.562836 346.067805 322.435492 346.067805 
Q 321.219086 346.067805 320.567523 345.613117 
Q 320.112836 345.28968 320.112836 344.879523 
Q 320.112836 344.565461 320.349554 344.324055 
Q 320.588617 344.082648 320.905023 344.082648 
Q 321.190961 344.082648 321.483929 344.199836 
Q 321.776898 344.317023 322.487054 344.813898 
Q 322.932367 345.12093 323.255804 345.238117 
Q 323.483148 345.32718 323.769086 345.32718 
Q 324.369086 345.32718 324.788617 344.888898 
Q 325.210492 344.448273 325.210492 343.831867 
Q 325.210492 342.542805 323.921429 341.738898 
Q 322.632367 340.932648 320.670648 340.932648 
Q 320.471429 340.932648 320.077679 340.93968 
L 321.856586 335.928742 
z
M 329.290961 340.881086 
L 329.290961 340.625617 
Q 330.125336 340.381867 330.446429 340.173273 
Q 330.769867 339.96468 331.004242 339.538117 
Q 331.238617 339.109211 331.238617 338.668586 
Q 331.238617 338.061555 330.795648 337.625617 
Q 330.352679 337.18968 329.694086 337.18968 
Q 328.667523 337.18968 327.950336 338.272492 
L 327.678461 338.178742 
Q 328.205804 336.955305 329.030804 336.341242 
Q 329.855804 335.724836 330.865961 335.724836 
Q 331.897211 335.724836 332.567523 336.355305 
Q 333.237836 336.98343 333.237836 337.82718 
Q 333.237836 338.375617 332.926117 338.886555 
Q 332.616742 339.395148 331.948773 339.781867 
Q 332.806586 340.199055 333.256586 340.810773 
Q 333.706586 341.422492 333.706586 342.34593 
Q 333.706586 343.897492 332.581586 344.987336 
Q 331.458929 346.074836 329.569867 346.074836 
Q 328.308929 346.074836 327.730023 345.655305 
Q 327.312836 345.362336 327.312836 344.902961 
Q 327.312836 344.565461 327.554242 344.328742 
Q 327.795648 344.08968 328.112054 344.08968 
Q 328.353461 344.08968 328.566742 344.190461 
Q 328.683929 344.249055 329.396429 344.832648 
Q 330.111273 345.413898 330.734711 345.413898 
Q 331.276117 345.413898 331.662836 344.987336 
Q 332.051898 344.55843 332.051898 343.897492 
Q 332.051898 342.894367 331.348773 342.048273 
Q 330.645648 341.20218 329.290961 340.881086 
z
M 336.446429 343.604523 
Q 336.959711 343.604523 337.313617 343.965461 
Q 337.669867 344.324055 337.669867 344.827961 
Q 337.669867 345.334211 337.311273 345.690461 
Q 336.952679 346.044367 336.446429 346.044367 
Q 335.940179 346.044367 335.583929 345.690461 
Q 335.230023 345.334211 335.230023 344.827961 
Q 335.230023 344.324055 335.583929 343.965461 
Q 335.940179 343.604523 336.446429 343.604523 
z
M 340.979242 346.067805 
L 343.683929 337.871711 
L 341.623773 337.871711 
Q 340.416742 337.871711 339.807367 338.185773 
Q 339.383148 338.406086 339.104242 339.013117 
L 338.827679 339.013117 
L 339.544867 335.928742 
L 345.462836 335.928742 
L 342.130023 346.067805 
L 340.979242 346.067805 
z
" style="fill: #404040"/>
   </g>
  </g>
 </g>
 <defs>
  <clipPath id="p487344115a">
   <rect x="7.2" y="51.034687" width="730.764" height="436.009412"/>
  </clipPath>
 </defs>
</svg>
