<?xml version="1.0" encoding="utf-8" standalone="no"?>
<!DOCTYPE svg PUBLIC "-//W3C//DTD SVG 1.1//EN"
  "http://www.w3.org/Graphics/SVG/1.1/DTD/svg11.dtd">
<svg xmlns:xlink="http://www.w3.org/1999/xlink" width="745.164pt" height="495.769973pt" viewBox="0 0 745.164 495.769973" xmlns="http://www.w3.org/2000/svg" version="1.1">
 <metadata>
  <rdf:RDF xmlns:dc="http://purl.org/dc/elements/1.1/" xmlns:cc="http://creativecommons.org/ns#" xmlns:rdf="http://www.w3.org/1999/02/22-rdf-syntax-ns#">
   <cc:Work>
    <dc:type rdf:resource="http://purl.org/dc/dcmitype/StillImage"/>
    <dc:date>2026-07-13T16:58:15.432393</dc:date>
    <dc:format>image/svg+xml</dc:format>
    <dc:creator>
     <cc:Agent>
      <dc:title>Matplotlib v3.10.8, https://matplotlib.org/</dc:title>
     </cc:Agent>
    </dc:creator>
   </cc:Work>
  </rdf:RDF>
 </metadata>
 <defs>
  <style type="text/css">*{stroke-linejoin: round; stroke-linecap: butt}</style>
 </defs>
 <g id="figure_1">
  <g id="patch_1">
   <path d="M 0 495.769973 
L 745.164 495.769973 
L 745.164 0 
L 0 0 
L 0 495.769973 
z
" style="fill: none"/>
  </g>
  <g id="axes_1">
   <g id="patch_2">
    <path d="M 120.350555 459.929711 
Q 120.350555 469.212303 120.350555 475.873954 
" clip-path="url(#pcc00ddf27e)" style="fill: none; stroke: #111111; stroke-width: 2.344241; stroke-linejoin: miter; stroke-linecap: round"/>
    <path d="M 124.044712 468.485639 
L 120.350555 475.873954 
L 116.656398 468.485639 
z
" clip-path="url(#pcc00ddf27e)" style="fill: #111111; stroke: #111111; stroke-width: 2.344241; stroke-linejoin: miter; stroke-linecap: round"/>
   </g>
   <g id="patch_3">
    <path d="M 120.350555 403.842764 
Q 120.350555 417.687852 120.350555 427.921302 
" clip-path="url(#pcc00ddf27e)" style="fill: none; stroke: #111111; stroke-width: 3.230348; stroke-linejoin: miter; stroke-linecap: round"/>
    <path d="M 124.328266 419.965879 
L 120.350555 427.921302 
L 116.372843 419.965879 
z
" clip-path="url(#pcc00ddf27e)" style="fill: #111111; stroke: #111111; stroke-width: 3.230348; stroke-linejoin: miter; stroke-linecap: round"/>
   </g>
   <g id="patch_4">
    <path d="M 120.350555 330.923502 
Q 120.350555 348.622252 120.350555 361.934995 
" clip-path="url(#pcc00ddf27e)" style="fill: none; stroke: #111111; stroke-width: 3.922963; stroke-linejoin: miter; stroke-linecap: round"/>
    <path d="M 124.549903 353.536298 
L 120.350555 361.934995 
L 116.151207 353.536298 
z
" clip-path="url(#pcc00ddf27e)" style="fill: #111111; stroke: #111111; stroke-width: 3.922963; stroke-linejoin: miter; stroke-linecap: round"/>
   </g>
   <g id="patch_5">
    <path d="M 370.224697 288.450896 
Q 370.224697 305.925362 370.224697 320.78486 
" clip-path="url(#pcc00ddf27e)" style="fill: none; stroke: #111111; stroke-width: 2.338899; stroke-linejoin: miter; stroke-linecap: round"/>
    <path d="M 373.917144 313.399965 
L 370.224697 320.78486 
L 366.532249 313.399965 
z
" clip-path="url(#pcc00ddf27e)" style="fill: #111111; stroke: #111111; stroke-width: 2.338899; stroke-linejoin: miter; stroke-linecap: round"/>
   </g>
   <g id="patch_6">
    <path d="M 370.224697 212.06381 
Q 370.224697 227.867094 370.224697 240.348845 
" clip-path="url(#pcc00ddf27e)" style="fill: none; stroke: #111111; stroke-width: 2.97087; stroke-linejoin: miter; stroke-linecap: round"/>
    <path d="M 374.119375 232.559488 
L 370.224697 240.348845 
L 366.330019 232.559488 
z
" clip-path="url(#pcc00ddf27e)" style="fill: #111111; stroke: #111111; stroke-width: 2.97087; stroke-linejoin: miter; stroke-linecap: round"/>
   </g>
   <g id="patch_7">
    <path d="M 370.224697 137.71758 
Q 370.224697 154.171618 370.224697 164.14106 
" clip-path="url(#pcc00ddf27e)" style="fill: none; stroke: #111111; stroke-width: 5.8; stroke-linejoin: miter; stroke-linecap: round"/>
    <path d="M 375.024697 154.54106 
L 370.224697 164.14106 
L 365.424697 154.54106 
z
" clip-path="url(#pcc00ddf27e)" style="fill: #111111; stroke: #111111; stroke-width: 5.8; stroke-linejoin: miter; stroke-linecap: round"/>
   </g>
   <g id="patch_8">
    <path d="M 586.153672 342.129158 
Q 586.153672 358.849077 586.153672 372.27321 
" clip-path="url(#pcc00ddf27e)" style="fill: none; stroke: #111111; stroke-width: 2.94784; stroke-linejoin: miter; stroke-linecap: round"/>
    <path d="M 590.040981 364.498592 
L 586.153672 372.27321 
L 582.266363 364.498592 
z
" clip-path="url(#pcc00ddf27e)" style="fill: #111111; stroke: #111111; stroke-width: 2.94784; stroke-linejoin: miter; stroke-linecap: round"/>
   </g>
   <g id="line2d_1">
    <path d="M 165.610777 478.494895 
L 550.322663 478.494895 
" clip-path="url(#pcc00ddf27e)" style="fill: none; stroke-dasharray: 5.6,4.2; stroke-dashoffset: 0; stroke: #404040; stroke-width: 1.4"/>
   </g>
   <g id="line2d_2">
    <path d="M 165.610777 431.532941 
L 550.322663 431.532941 
" clip-path="url(#pcc00ddf27e)" style="fill: none; stroke-dasharray: 5.6,4.2; stroke-dashoffset: 0; stroke: #404040; stroke-width: 1.4"/>
   </g>
   <g id="line2d_3">
    <path d="M 574.838617 375.568996 
L 503.176599 375.568996 
" clip-path="url(#pcc00ddf27e)" style="fill: none; stroke-dasharray: 5.6,4.2; stroke-dashoffset: 0; stroke: #404040; stroke-width: 1.4"/>
   </g>
   <g id="patch_9">
    <path d="M 665.359061 375.568996 
Q 586.561904 425.427655 508.556982 474.785029 
" clip-path="url(#pcc00ddf27e)" style="fill: none; stroke: #404040; stroke-width: 0.838533; stroke-linejoin: miter; stroke-linecap: round"/>
    <path d="M 514.814954 474.153957 
L 508.556982 474.785029 
L 511.806908 469.400008 
z
" clip-path="url(#pcc00ddf27e)" style="fill: #404040; stroke: #404040; stroke-width: 0.838533; stroke-linejoin: miter; stroke-linecap: round"/>
   </g>
   <g id="patch_10">
    <path d="M 620.098839 375.568996 
Q 578.411689 401.946411 539.392477 426.635698 
" clip-path="url(#pcc00ddf27e)" style="fill: none; stroke: #404040; stroke-width: 2.823851; stroke-linejoin: miter; stroke-linecap: round"/>
    <path d="M 547.122751 425.856155 
L 539.392477 426.635698 
L 543.407007 419.983753 
z
" clip-path="url(#pcc00ddf27e)" style="fill: #404040; stroke: #404040; stroke-width: 2.823851; stroke-linejoin: miter; stroke-linecap: round"/>
   </g>
   <g id="patch_11">
    <path d="M 415.484919 323.399829 
Q 477.32985 348.361202 535.304826 371.760614 
" clip-path="url(#pcc00ddf27e)" style="fill: none; stroke: #404040; stroke-width: 3.732697; stroke-linejoin: miter; stroke-linecap: round"/>
    <path d="M 529.712678 365.429904 
L 535.304826 371.760614 
L 526.884969 372.435907 
z
" clip-path="url(#pcc00ddf27e)" style="fill: #404040; stroke: #404040; stroke-width: 3.732697; stroke-linejoin: miter; stroke-linecap: round"/>
   </g>
   <g id="patch_12">
    <path d="M 370.224697 323.399829 
Q 334.40632 375.002964 299.146223 425.801793 
" clip-path="url(#pcc00ddf27e)" style="fill: none; stroke: #404040; stroke-width: 0.87571; stroke-linejoin: miter; stroke-linecap: round"/>
    <path d="M 304.689115 422.770925 
L 299.146223 425.801793 
L 300.047264 419.548959 
z
" clip-path="url(#pcc00ddf27e)" style="fill: #404040; stroke: #404040; stroke-width: 0.87571; stroke-linejoin: miter; stroke-linecap: round"/>
   </g>
   <g id="line2d_4">
    <path d="M 120.350555 431.532941 
L 120.350555 450.098126 
" clip-path="url(#pcc00ddf27e)" style="fill: none; stroke: #111111; stroke-width: 2.344241"/>
   </g>
   <g id="line2d_5">
    <path d="M 120.350555 366.321001 
L 120.350555 394.011179 
" clip-path="url(#pcc00ddf27e)" style="fill: none; stroke: #111111; stroke-width: 3.230348"/>
   </g>
   <g id="line2d_6">
    <path d="M 120.350555 285.694419 
L 120.350555 321.091917 
" clip-path="url(#pcc00ddf27e)" style="fill: none; stroke: #111111; stroke-width: 3.922963"/>
   </g>
   <g id="line2d_7">
    <path d="M 370.224697 243.670378 
L 370.224697 278.619311 
" clip-path="url(#pcc00ddf27e)" style="fill: none; stroke: #111111; stroke-width: 2.338899"/>
   </g>
   <g id="line2d_8">
    <path d="M 370.224697 170.625657 
L 370.224697 202.232225 
" clip-path="url(#pcc00ddf27e)" style="fill: none; stroke: #111111; stroke-width: 2.97087"/>
   </g>
   <g id="line2d_9">
    <path d="M 370.224697 94.977917 
L 370.224697 127.885995 
" clip-path="url(#pcc00ddf27e)" style="fill: none; stroke: #111111; stroke-width: 5.8"/>
   </g>
   <g id="line2d_10">
    <path d="M 586.153672 298.857735 
L 586.153672 332.297573 
" clip-path="url(#pcc00ddf27e)" style="fill: none; stroke: #111111; stroke-width: 2.94784"/>
   </g>
   <g id="line2d_11">
    <path d="M 75.090333 478.494895 
L 165.610777 478.494895 
" clip-path="url(#pcc00ddf27e)" style="fill: none; stroke: #111111; stroke-width: 3.6; stroke-linecap: round"/>
   </g>
   <g id="line2d_12">
    <path d="M 75.090333 431.532941 
L 165.610777 431.532941 
" clip-path="url(#pcc00ddf27e)" style="fill: none; stroke: #111111; stroke-width: 3.6; stroke-linecap: round"/>
   </g>
   <g id="line2d_13">
    <path d="M 75.090333 366.321001 
L 165.610777 366.321001 
" clip-path="url(#pcc00ddf27e)" style="fill: none; stroke: #111111; stroke-width: 3.6; stroke-linecap: round"/>
   </g>
   <g id="line2d_14">
    <path d="M 75.090333 285.694419 
L 165.610777 285.694419 
" clip-path="url(#pcc00ddf27e)" style="fill: none; stroke: #111111; stroke-width: 3.6; stroke-linecap: round"/>
   </g>
   <g id="line2d_15">
    <path d="M 324.964475 323.399829 
L 415.484919 323.399829 
" clip-path="url(#pcc00ddf27e)" style="fill: none; stroke: #111111; stroke-width: 3.6; stroke-linecap: round"/>
   </g>
   <g id="line2d_16">
    <path d="M 324.964475 243.670378 
L 415.484919 243.670378 
" clip-path="url(#pcc00ddf27e)" style="fill: none; stroke: #111111; stroke-width: 3.6; stroke-linecap: round"/>
   </g>
   <g id="line2d_17">
    <path d="M 324.964475 170.625657 
L 415.484919 170.625657 
" clip-path="url(#pcc00ddf27e)" style="fill: none; stroke: #111111; stroke-width: 3.6; stroke-linecap: round"/>
   </g>
   <g id="line2d_18">
    <path d="M 324.964475 94.977917 
L 415.484919 94.977917 
" clip-path="url(#pcc00ddf27e)" style="fill: none; stroke: #111111; stroke-width: 3.6; stroke-linecap: round"/>
   </g>
   <g id="line2d_19">
    <path d="M 574.838617 375.568996 
L 665.359061 375.568996 
" clip-path="url(#pcc00ddf27e)" style="fill: none; stroke: #111111; stroke-width: 3.6; stroke-linecap: round"/>
   </g>
   <g id="line2d_20">
    <path d="M 574.838617 298.857735 
L 665.359061 298.857735 
" clip-path="url(#pcc00ddf27e)" style="fill: none; stroke: #111111; stroke-width: 3.6; stroke-linecap: round"/>
   </g>
   <g id="text_1">
    <!-- $^{200}\mathrm{Ce}$ -->
    <g transform="translate(326.852 33.034687) scale(0.34 -0.34)">
     <defs>
      <path id="DejaVuSans-32" d="M 1228 531 
L 3431 531 
L 3431 0 
L 469 0 
L 469 531 
Q 828 903 1448 1529 
Q 2069 2156 2228 2338 
Q 2531 2678 2651 2914 
Q 2772 3150 2772 3378 
Q 2772 3750 2511 3984 
Q 2250 4219 1831 4219 
Q 1534 4219 1204 4116 
Q 875 4013 500 3803 
L 500 4441 
Q 881 4594 1212 4672 
Q 1544 4750 1819 4750 
Q 2544 4750 2975 4387 
Q 3406 4025 3406 3419 
Q 3406 3131 3298 2873 
Q 3191 2616 2906 2266 
Q 2828 2175 2409 1742 
Q 1991 1309 1228 531 
z
" transform="scale(0.015625)"/>
      <path id="DejaVuSans-30" d="M 2034 4250 
Q 1547 4250 1301 3770 
Q 1056 3291 1056 2328 
Q 1056 1369 1301 889 
Q 1547 409 2034 409 
Q 2525 409 2770 889 
Q 3016 1369 3016 2328 
Q 3016 3291 2770 3770 
Q 2525 4250 2034 4250 
z
M 2034 4750 
Q 2819 4750 3233 4129 
Q 3647 3509 3647 2328 
Q 3647 1150 3233 529 
Q 2819 -91 2034 -91 
Q 1250 -91 836 529 
Q 422 1150 422 2328 
Q 422 3509 836 4129 
Q 1250 4750 2034 4750 
z
" transform="scale(0.015625)"/>
      <path id="DejaVuSans-43" d="M 4122 4306 
L 4122 3641 
Q 3803 3938 3442 4084 
Q 3081 4231 2675 4231 
Q 1875 4231 1450 3742 
Q 1025 3253 1025 2328 
Q 1025 1406 1450 917 
Q 1875 428 2675 428 
Q 3081 428 3442 575 
Q 3803 722 4122 1019 
L 4122 359 
Q 3791 134 3420 21 
Q 3050 -91 2638 -91 
Q 1578 -91 968 557 
Q 359 1206 359 2328 
Q 359 3453 968 4101 
Q 1578 4750 2638 4750 
Q 3056 4750 3426 4639 
Q 3797 4528 4122 4306 
z
" transform="scale(0.015625)"/>
      <path id="DejaVuSans-65" d="M 3597 1894 
L 3597 1613 
L 953 1613 
Q 991 1019 1311 708 
Q 1631 397 2203 397 
Q 2534 397 2845 478 
Q 3156 559 3463 722 
L 3463 178 
Q 3153 47 2828 -22 
Q 2503 -91 2169 -91 
Q 1331 -91 842 396 
Q 353 884 353 1716 
Q 353 2575 817 3079 
Q 1281 3584 2069 3584 
Q 2775 3584 3186 3129 
Q 3597 2675 3597 1894 
z
M 3022 2063 
Q 3016 2534 2758 2815 
Q 2500 3097 2075 3097 
Q 1594 3097 1305 2825 
Q 1016 2553 972 2059 
L 3022 2063 
z
" transform="scale(0.015625)"/>
     </defs>
     <use xlink:href="#DejaVuSans-32" transform="translate(0.957031 39.046875) scale(0.7)"/>
     <use xlink:href="#DejaVuSans-30" transform="translate(45.493164 39.046875) scale(0.7)"/>
     <use xlink:href="#DejaVuSans-30" transform="translate(90.029297 39.046875) scale(0.7)"/>
     <use xlink:href="#DejaVuSans-43" transform="translate(137.299805 0.765625)"/>
     <use xlink:href="#DejaVuSans-65" transform="translate(207.124023 0.765625)"/>
    </g>
   </g>
   <g id="text_2">
    <!-- 0 -->
    <g transform="translate(46.98525 482.909895) scale(0.16 -0.16)">
     <defs>
      <path id="DejaVuSans-BoldOblique-30" d="M 1913 728 
Q 2153 728 2339 872 
Q 2525 1016 2650 1294 
Q 2738 1491 2809 1742 
Q 2881 1994 2944 2338 
Q 2997 2616 3025 2850 
Q 3053 3084 3053 3250 
Q 3053 3600 2928 3764 
Q 2803 3928 2541 3928 
Q 2297 3928 2112 3789 
Q 1928 3650 1806 3366 
Q 1713 3163 1636 2903 
Q 1559 2644 1503 2338 
Q 1450 2056 1422 1815 
Q 1394 1575 1394 1409 
Q 1394 1063 1522 895 
Q 1650 728 1913 728 
z
M 4225 3072 
Q 4225 2450 4053 1862 
Q 3881 1275 3572 831 
Q 3256 375 2809 142 
Q 2363 -91 1813 -91 
Q 1047 -91 639 343 
Q 231 778 231 1594 
Q 231 2206 401 2795 
Q 572 3384 878 3822 
Q 1200 4281 1644 4515 
Q 2088 4750 2644 4750 
Q 3403 4750 3814 4314 
Q 4225 3878 4225 3072 
z
" transform="scale(0.015625)"/>
     </defs>
     <use xlink:href="#DejaVuSans-BoldOblique-30"/>
    </g>
   </g>
   <g id="text_3">
    <!-- 0⁺ -->
    <g transform="translate(182.58336 483.650129) scale(0.23 -0.23)">
     <defs>
      <path id="TimesNewRomanPS-BoldMT-30" d="M 2966 2119 
Q 2966 1484 2788 934 
Q 2681 597 2501 381 
Q 2322 166 2094 39 
Q 1866 -88 1597 -88 
Q 1291 -88 1044 68 
Q 797 225 606 516 
Q 469 728 366 1081 
Q 231 1559 231 2069 
Q 231 2759 425 3338 
Q 584 3816 909 4070 
Q 1234 4325 1597 4325 
Q 1966 4325 2286 4073 
Q 2606 3822 2756 3397 
Q 2966 2813 2966 2119 
z
M 2003 2125 
Q 2003 3238 1991 3422 
Q 1959 3856 1841 4009 
Q 1763 4109 1588 4109 
Q 1453 4109 1375 4034 
Q 1259 3925 1218 3648 
Q 1178 3372 1178 1719 
Q 1178 819 1241 513 
Q 1288 291 1375 216 
Q 1463 141 1606 141 
Q 1763 141 1841 241 
Q 1972 416 1991 781 
L 2003 2125 
z
" transform="scale(0.015625)"/>
      <path id="DejaVuSerif-Bold-207a" d="M 1916 4344 
L 1916 3441 
L 2950 3441 
L 2950 3044 
L 1916 3044 
L 1916 2141 
L 1463 2141 
L 1463 3044 
L 428 3044 
L 428 3441 
L 1463 3441 
L 1463 4344 
L 1916 4344 
z
" transform="scale(0.015625)"/>
     </defs>
     <use xlink:href="#TimesNewRomanPS-BoldMT-30"/>
     <use xlink:href="#DejaVuSerif-Bold-207a" transform="translate(50 0)"/>
    </g>
   </g>
   <g id="text_4">
    <!-- 439 -->
    <g transform="translate(24.72025 435.947941) scale(0.16 -0.16)">
     <defs>
      <path id="DejaVuSans-BoldOblique-34" d="M 2638 3641 
L 978 1722 
L 2259 1722 
L 2638 3641 
z
M 2606 4666 
L 3975 4666 
L 3397 1722 
L 4063 1722 
L 3897 850 
L 3231 850 
L 3066 0 
L 1925 0 
L 2094 850 
L -6 850 
L 197 1881 
L 2606 4666 
z
" transform="scale(0.015625)"/>
      <path id="DejaVuSans-BoldOblique-33" d="M 3022 2516 
Q 3375 2434 3572 2187 
Q 3769 1941 3769 1581 
Q 3769 806 3155 357 
Q 2541 -91 1466 -91 
Q 1059 -91 692 -33 
Q 325 25 0 141 
L 178 1069 
Q 456 906 784 817 
Q 1113 728 1441 728 
Q 1969 728 2276 926 
Q 2584 1125 2584 1459 
Q 2584 1738 2350 1877 
Q 2116 2016 1644 2016 
L 1166 2016 
L 1319 2791 
L 1825 2791 
Q 2316 2791 2602 2969 
Q 2888 3147 2888 3450 
Q 2888 3688 2689 3813 
Q 2491 3938 2113 3938 
Q 1847 3938 1534 3869 
Q 1222 3800 884 3669 
L 1056 4550 
Q 1425 4650 1783 4700 
Q 2141 4750 2491 4750 
Q 3281 4750 3679 4487 
Q 4078 4225 4078 3706 
Q 4078 3241 3801 2930 
Q 3525 2619 3022 2516 
z
" transform="scale(0.015625)"/>
      <path id="DejaVuSans-BoldOblique-39" d="M 263 103 
L 428 966 
Q 700 825 953 758 
Q 1206 691 1459 691 
Q 2041 691 2400 1003 
Q 2759 1316 2834 1881 
Q 2594 1722 2337 1645 
Q 2081 1569 1791 1569 
Q 1219 1569 853 1909 
Q 488 2250 488 2778 
Q 488 3641 1052 4192 
Q 1616 4744 2503 4744 
Q 3300 4744 3736 4292 
Q 4172 3841 4172 3016 
Q 4172 2381 3978 1801 
Q 3784 1222 3431 800 
Q 3056 353 2548 128 
Q 2041 -97 1403 -97 
Q 1106 -97 825 -47 
Q 544 3 263 103 
z
M 2169 2344 
Q 2525 2344 2753 2637 
Q 2981 2931 2981 3391 
Q 2981 3675 2845 3828 
Q 2709 3981 2456 3981 
Q 2103 3981 1870 3690 
Q 1638 3400 1638 2963 
Q 1638 2663 1775 2503 
Q 1913 2344 2169 2344 
z
" transform="scale(0.015625)"/>
     </defs>
     <use xlink:href="#DejaVuSans-BoldOblique-34"/>
     <use xlink:href="#DejaVuSans-BoldOblique-33" transform="translate(69.580078 0)"/>
     <use xlink:href="#DejaVuSans-BoldOblique-39" transform="translate(139.160156 0)"/>
    </g>
   </g>
   <g id="text_5">
    <!-- 2⁺ -->
    <g transform="translate(182.58336 436.688176) scale(0.23 -0.23)">
     <defs>
      <path id="TimesNewRomanPS-BoldMT-32" d="M 2650 0 
L 156 0 
L 156 69 
Q 1303 1434 1548 1906 
Q 1794 2378 1794 2828 
Q 1794 3156 1591 3373 
Q 1388 3591 1094 3591 
Q 613 3591 347 3109 
L 231 3150 
Q 400 3750 744 4037 
Q 1088 4325 1538 4325 
Q 1859 4325 2125 4175 
Q 2391 4025 2541 3764 
Q 2691 3503 2691 3275 
Q 2691 2859 2459 2431 
Q 2144 1853 1081 819 
L 1997 819 
Q 2334 819 2436 847 
Q 2538 875 2603 942 
Q 2669 1009 2775 1225 
L 2888 1225 
L 2650 0 
z
" transform="scale(0.015625)"/>
     </defs>
     <use xlink:href="#TimesNewRomanPS-BoldMT-32"/>
     <use xlink:href="#DejaVuSerif-Bold-207a" transform="translate(50 0)"/>
    </g>
   </g>
   <g id="text_6">
    <!-- 1050 -->
    <g transform="translate(13.58775 370.736001) scale(0.16 -0.16)">
     <defs>
      <path id="DejaVuSans-BoldOblique-31" d="M 441 831 
L 1503 831 
L 2088 3847 
L 953 3622 
L 1113 4441 
L 2241 4666 
L 3384 4666 
L 2644 831 
L 3700 831 
L 3541 0 
L 275 0 
L 441 831 
z
" transform="scale(0.015625)"/>
      <path id="DejaVuSans-BoldOblique-35" d="M 1131 4666 
L 4122 4666 
L 3950 3781 
L 1919 3781 
L 1778 3059 
Q 1916 3097 2064 3117 
Q 2213 3138 2363 3138 
Q 3078 3138 3481 2811 
Q 3884 2484 3884 1906 
Q 3884 988 3262 448 
Q 2641 -91 1575 -91 
Q 1184 -91 815 -14 
Q 447 63 84 219 
L 269 1166 
Q 616 941 942 834 
Q 1269 728 1606 728 
Q 2100 728 2397 986 
Q 2694 1244 2694 1663 
Q 2694 1963 2469 2139 
Q 2244 2316 1856 2316 
Q 1594 2316 1289 2248 
Q 984 2181 622 2041 
L 1131 4666 
z
" transform="scale(0.015625)"/>
     </defs>
     <use xlink:href="#DejaVuSans-BoldOblique-31"/>
     <use xlink:href="#DejaVuSans-BoldOblique-30" transform="translate(69.580078 0)"/>
     <use xlink:href="#DejaVuSans-BoldOblique-35" transform="translate(139.160156 0)"/>
     <use xlink:href="#DejaVuSans-BoldOblique-30" transform="translate(208.740234 0)"/>
    </g>
   </g>
   <g id="text_7">
    <!-- 4⁺ -->
    <g transform="translate(182.58336 371.476236) scale(0.23 -0.23)">
     <defs>
      <path id="TimesNewRomanPS-BoldMT-34" d="M 159 1597 
L 2172 4325 
L 2553 4325 
L 2553 1597 
L 2941 1597 
L 2941 950 
L 2553 950 
L 2553 0 
L 1694 0 
L 1694 950 
L 159 950 
L 159 1597 
z
M 463 1597 
L 1694 1597 
L 1694 3269 
L 463 1597 
z
" transform="scale(0.015625)"/>
     </defs>
     <use xlink:href="#TimesNewRomanPS-BoldMT-34"/>
     <use xlink:href="#DejaVuSerif-Bold-207a" transform="translate(50 0)"/>
    </g>
   </g>
   <g id="text_8">
    <!-- 1804 -->
    <g transform="translate(13.58775 290.109419) scale(0.16 -0.16)">
     <defs>
      <path id="DejaVuSans-BoldOblique-38" d="M 2150 2088 
Q 1784 2088 1539 1839 
Q 1294 1591 1294 1228 
Q 1294 969 1453 817 
Q 1613 666 1888 666 
Q 2259 666 2503 911 
Q 2747 1156 2747 1522 
Q 2747 1781 2586 1934 
Q 2425 2088 2150 2088 
z
M 1381 2484 
Q 1044 2625 876 2850 
Q 709 3075 709 3391 
Q 709 4025 1229 4387 
Q 1750 4750 2669 4750 
Q 3406 4750 3812 4475 
Q 4219 4200 4219 3700 
Q 4219 3256 3936 2940 
Q 3653 2625 3128 2484 
Q 3509 2338 3690 2091 
Q 3872 1844 3872 1466 
Q 3872 747 3311 328 
Q 2750 -91 1772 -91 
Q 1000 -91 570 217 
Q 141 525 141 1075 
Q 141 1572 470 1945 
Q 800 2319 1381 2484 
z
M 2559 3994 
Q 2241 3994 2048 3808 
Q 1856 3622 1856 3316 
Q 1856 3103 1995 2972 
Q 2134 2841 2363 2841 
Q 2681 2841 2873 3027 
Q 3066 3213 3066 3519 
Q 3066 3734 2927 3864 
Q 2788 3994 2559 3994 
z
" transform="scale(0.015625)"/>
     </defs>
     <use xlink:href="#DejaVuSans-BoldOblique-31"/>
     <use xlink:href="#DejaVuSans-BoldOblique-38" transform="translate(69.580078 0)"/>
     <use xlink:href="#DejaVuSans-BoldOblique-30" transform="translate(139.160156 0)"/>
     <use xlink:href="#DejaVuSans-BoldOblique-34" transform="translate(208.740234 0)"/>
    </g>
   </g>
   <g id="text_9">
    <!-- 6⁺ -->
    <g transform="translate(182.58336 290.849653) scale(0.23 -0.23)">
     <defs>
      <path id="TimesNewRomanPS-BoldMT-36" d="M 3006 4325 
L 3006 4238 
Q 2441 4094 2098 3867 
Q 1756 3641 1557 3317 
Q 1359 2994 1250 2516 
Q 1388 2609 1478 2638 
Q 1681 2700 1888 2700 
Q 2363 2700 2680 2354 
Q 2997 2009 2997 1413 
Q 2997 994 2825 644 
Q 2653 294 2337 103 
Q 2022 -88 1663 -88 
Q 1272 -88 940 126 
Q 609 341 423 753 
Q 238 1166 238 1650 
Q 238 2363 580 2977 
Q 922 3591 1551 3955 
Q 2181 4319 3006 4325 
z
M 1209 2263 
Q 1184 1831 1184 1631 
Q 1184 1200 1267 797 
Q 1350 394 1494 231 
Q 1597 116 1738 116 
Q 1881 116 1993 283 
Q 2106 450 2106 963 
Q 2106 1825 1897 2153 
Q 1763 2366 1534 2366 
Q 1409 2366 1209 2263 
z
" transform="scale(0.015625)"/>
     </defs>
     <use xlink:href="#TimesNewRomanPS-BoldMT-36"/>
     <use xlink:href="#DejaVuSerif-Bold-207a" transform="translate(50 0)"/>
    </g>
   </g>
   <g id="text_10">
    <!-- 1451 -->
    <g transform="translate(263.461892 327.814829) scale(0.16 -0.16)">
     <use xlink:href="#DejaVuSans-BoldOblique-31"/>
     <use xlink:href="#DejaVuSans-BoldOblique-34" transform="translate(69.580078 0)"/>
     <use xlink:href="#DejaVuSans-BoldOblique-35" transform="translate(139.160156 0)"/>
     <use xlink:href="#DejaVuSans-BoldOblique-31" transform="translate(208.740234 0)"/>
    </g>
   </g>
   <g id="text_11">
    <!-- 0⁺ -->
    <g transform="translate(432.457502 328.555063) scale(0.23 -0.23)">
     <use xlink:href="#TimesNewRomanPS-BoldMT-30"/>
     <use xlink:href="#DejaVuSerif-Bold-207a" transform="translate(50 0)"/>
    </g>
   </g>
   <g id="text_12">
    <!-- 2197 -->
    <g transform="translate(263.461892 248.085378) scale(0.16 -0.16)">
     <defs>
      <path id="DejaVuSans-BoldOblique-32" d="M 1581 884 
L 3609 884 
L 3438 0 
L 50 0 
L 225 891 
L 2209 2388 
Q 2534 2638 2704 2894 
Q 2875 3150 2875 3391 
Q 2875 3647 2700 3787 
Q 2525 3928 2209 3928 
Q 1913 3928 1547 3811 
Q 1181 3694 722 3450 
L 922 4441 
Q 1347 4597 1756 4673 
Q 2166 4750 2566 4750 
Q 3278 4750 3687 4442 
Q 4097 4134 4097 3603 
Q 4097 3147 3847 2772 
Q 3597 2397 2747 1759 
L 1581 884 
z
" transform="scale(0.015625)"/>
      <path id="DejaVuSans-BoldOblique-37" d="M 922 4666 
L 4441 4666 
L 4300 3981 
L 1703 0 
L 500 0 
L 2969 3781 
L 756 3781 
L 922 4666 
z
" transform="scale(0.015625)"/>
     </defs>
     <use xlink:href="#DejaVuSans-BoldOblique-32"/>
     <use xlink:href="#DejaVuSans-BoldOblique-31" transform="translate(69.580078 0)"/>
     <use xlink:href="#DejaVuSans-BoldOblique-39" transform="translate(139.160156 0)"/>
     <use xlink:href="#DejaVuSans-BoldOblique-37" transform="translate(208.740234 0)"/>
    </g>
   </g>
   <g id="text_13">
    <!-- 2⁺ -->
    <g transform="translate(432.457502 248.825612) scale(0.23 -0.23)">
     <use xlink:href="#TimesNewRomanPS-BoldMT-32"/>
     <use xlink:href="#DejaVuSerif-Bold-207a" transform="translate(50 0)"/>
    </g>
   </g>
   <g id="text_14">
    <!-- 2881 -->
    <g transform="translate(263.461892 175.040657) scale(0.16 -0.16)">
     <use xlink:href="#DejaVuSans-BoldOblique-32"/>
     <use xlink:href="#DejaVuSans-BoldOblique-38" transform="translate(69.580078 0)"/>
     <use xlink:href="#DejaVuSans-BoldOblique-38" transform="translate(139.160156 0)"/>
     <use xlink:href="#DejaVuSans-BoldOblique-31" transform="translate(208.740234 0)"/>
    </g>
   </g>
   <g id="text_15">
    <!-- 4⁺ -->
    <g transform="translate(432.457502 175.780892) scale(0.23 -0.23)">
     <use xlink:href="#TimesNewRomanPS-BoldMT-34"/>
     <use xlink:href="#DejaVuSerif-Bold-207a" transform="translate(50 0)"/>
    </g>
   </g>
   <g id="text_16">
    <!-- 3589 -->
    <g transform="translate(263.461892 99.392917) scale(0.16 -0.16)">
     <use xlink:href="#DejaVuSans-BoldOblique-33"/>
     <use xlink:href="#DejaVuSans-BoldOblique-35" transform="translate(69.580078 0)"/>
     <use xlink:href="#DejaVuSans-BoldOblique-38" transform="translate(139.160156 0)"/>
     <use xlink:href="#DejaVuSans-BoldOblique-39" transform="translate(208.740234 0)"/>
    </g>
   </g>
   <g id="text_17">
    <!-- 6⁺ -->
    <g transform="translate(432.457502 100.133152) scale(0.23 -0.23)">
     <use xlink:href="#TimesNewRomanPS-BoldMT-36"/>
     <use xlink:href="#DejaVuSerif-Bold-207a" transform="translate(50 0)"/>
    </g>
   </g>
   <g id="text_18">
    <!-- 963 -->
    <g transform="translate(524.468534 379.983996) scale(0.16 -0.16)">
     <defs>
      <path id="DejaVuSans-BoldOblique-36" d="M 2316 2303 
Q 1959 2303 1731 2009 
Q 1503 1716 1503 1253 
Q 1503 975 1643 820 
Q 1784 666 2034 666 
Q 2388 666 2617 955 
Q 2847 1244 2847 1684 
Q 2847 1984 2709 2143 
Q 2572 2303 2316 2303 
z
M 4225 4544 
L 4056 3681 
Q 3788 3819 3534 3887 
Q 3281 3956 3028 3956 
Q 2447 3956 2087 3643 
Q 1728 3331 1650 2766 
Q 1894 2925 2151 3001 
Q 2409 3078 2700 3078 
Q 3275 3078 3640 2737 
Q 4006 2397 4006 1869 
Q 4006 1006 3442 454 
Q 2878 -97 1991 -97 
Q 1194 -97 756 354 
Q 319 806 319 1631 
Q 319 2269 512 2848 
Q 706 3428 1056 3847 
Q 1431 4294 1942 4519 
Q 2453 4744 3091 4744 
Q 3384 4744 3662 4694 
Q 3941 4644 4225 4544 
z
" transform="scale(0.015625)"/>
     </defs>
     <use xlink:href="#DejaVuSans-BoldOblique-39"/>
     <use xlink:href="#DejaVuSans-BoldOblique-36" transform="translate(69.580078 0)"/>
     <use xlink:href="#DejaVuSans-BoldOblique-33" transform="translate(139.160156 0)"/>
    </g>
   </g>
   <g id="text_19">
    <!-- 2⁺ -->
    <g transform="translate(682.331644 380.72423) scale(0.23 -0.23)">
     <use xlink:href="#TimesNewRomanPS-BoldMT-32"/>
     <use xlink:href="#DejaVuSerif-Bold-207a" transform="translate(50 0)"/>
    </g>
   </g>
   <g id="text_20">
    <!-- 1681 -->
    <g transform="translate(513.336034 303.272735) scale(0.16 -0.16)">
     <use xlink:href="#DejaVuSans-BoldOblique-31"/>
     <use xlink:href="#DejaVuSans-BoldOblique-36" transform="translate(69.580078 0)"/>
     <use xlink:href="#DejaVuSans-BoldOblique-38" transform="translate(139.160156 0)"/>
     <use xlink:href="#DejaVuSans-BoldOblique-31" transform="translate(208.740234 0)"/>
    </g>
   </g>
   <g id="text_21">
    <!-- 3⁺ -->
    <g transform="translate(682.331644 304.012969) scale(0.23 -0.23)">
     <defs>
      <path id="TimesNewRomanPS-BoldMT-33" d="M 947 2125 
L 947 2234 
Q 1303 2338 1440 2427 
Q 1578 2516 1678 2698 
Q 1778 2881 1778 3069 
Q 1778 3328 1589 3514 
Q 1400 3700 1119 3700 
Q 681 3700 375 3238 
L 259 3278 
Q 484 3800 836 4062 
Q 1188 4325 1619 4325 
Q 2059 4325 2345 4056 
Q 2631 3788 2631 3428 
Q 2631 3194 2498 2976 
Q 2366 2759 2081 2594 
Q 2447 2416 2639 2155 
Q 2831 1894 2831 1500 
Q 2831 838 2351 373 
Q 1872 -91 1066 -91 
Q 528 -91 281 88 
Q 103 213 103 409 
Q 103 553 206 654 
Q 309 756 444 756 
Q 547 756 638 713 
Q 688 688 992 439 
Q 1297 191 1563 191 
Q 1794 191 1959 373 
Q 2125 556 2125 838 
Q 2125 1266 1825 1627 
Q 1525 1988 947 2125 
z
" transform="scale(0.015625)"/>
     </defs>
     <use xlink:href="#TimesNewRomanPS-BoldMT-33"/>
     <use xlink:href="#DejaVuSerif-Bold-207a" transform="translate(50 0)"/>
    </g>
   </g>
   <g id="text_22">
    <path d="M 108.788055 448.005168 
L 113.748055 448.005168 
L 112.960555 450.022668 
L 108.788055 450.022668 
L 108.390555 451.077668 
Q 111.085555 451.177668 112.538055 452.420168 
Q 113.733055 453.442668 113.733055 454.967668 
Q 113.733055 455.942668 113.178055 456.877668 
Q 112.623055 457.810168 111.615555 458.315168 
Q 110.608055 458.820168 109.405555 458.820168 
Q 108.108055 458.820168 107.413055 458.335168 
Q 106.928055 457.990168 106.928055 457.552668 
Q 106.928055 457.217668 107.180555 456.960168 
Q 107.435555 456.702668 107.773055 456.702668 
Q 108.078055 456.702668 108.390555 456.827668 
Q 108.703055 456.952668 109.460555 457.482668 
Q 109.935555 457.810168 110.280555 457.935168 
Q 110.523055 458.030168 110.828055 458.030168 
Q 111.468055 458.030168 111.915555 457.562668 
Q 112.365555 457.092668 112.365555 456.435168 
Q 112.365555 455.060168 110.990555 454.202668 
Q 109.615555 453.342668 107.523055 453.342668 
Q 107.310555 453.342668 106.890555 453.350168 
L 108.788055 448.005168 
z
M 121.765555 453.302668 
Q 121.765555 454.890168 121.320555 456.265168 
Q 121.053055 457.107668 120.603055 457.647668 
Q 120.155555 458.185168 119.585555 458.502668 
Q 119.015555 458.820168 118.343055 458.820168 
Q 117.578055 458.820168 116.960555 458.430168 
Q 116.343055 458.037668 115.865555 457.310168 
Q 115.523055 456.780168 115.265555 455.897668 
Q 114.928055 454.702668 114.928055 453.427668 
Q 114.928055 451.702668 115.413055 450.255168 
Q 115.810555 449.060168 116.623055 448.425168 
Q 117.435555 447.787668 118.343055 447.787668 
Q 119.265555 447.787668 120.065555 448.417668 
Q 120.865555 449.045168 121.240555 450.107668 
Q 121.765555 451.567668 121.765555 453.302668 
z
M 119.358055 453.287668 
Q 119.358055 450.505168 119.328055 450.045168 
Q 119.248055 448.960168 118.953055 448.577668 
Q 118.758055 448.327668 118.320555 448.327668 
Q 117.983055 448.327668 117.788055 448.515168 
Q 117.498055 448.787668 117.395555 449.480168 
Q 117.295555 450.170168 117.295555 454.302668 
Q 117.295555 456.552668 117.453055 457.317668 
Q 117.570555 457.872668 117.788055 458.060168 
Q 118.008055 458.247668 118.365555 458.247668 
Q 118.758055 458.247668 118.953055 457.997668 
Q 119.280555 457.560168 119.328055 456.647668 
L 119.358055 453.287668 
z
M 124.350555 456.192668 
Q 124.898055 456.192668 125.275555 456.577668 
Q 125.655555 456.960168 125.655555 457.497668 
Q 125.655555 458.037668 125.273055 458.417668 
Q 124.890555 458.795168 124.350555 458.795168 
Q 123.810555 458.795168 123.430555 458.417668 
Q 123.053055 458.037668 123.053055 457.497668 
Q 123.053055 456.960168 123.430555 456.577668 
Q 123.810555 456.192668 124.350555 456.192668 
z
M 133.865555 447.787668 
L 133.865555 448.005168 
Q 132.453055 448.365168 131.595555 448.932668 
Q 130.740555 449.497668 130.243055 450.307668 
Q 129.748055 451.115168 129.475555 452.310168 
Q 129.820555 452.077668 130.045555 452.005168 
Q 130.553055 451.850168 131.070555 451.850168 
Q 132.258055 451.850168 133.050555 452.715168 
Q 133.843055 453.577668 133.843055 455.067668 
Q 133.843055 456.115168 133.413055 456.990168 
Q 132.983055 457.865168 132.193055 458.342668 
Q 131.405555 458.820168 130.508055 458.820168 
Q 129.530555 458.820168 128.700555 458.285168 
Q 127.873055 457.747668 127.408055 456.717668 
Q 126.945555 455.685168 126.945555 454.475168 
Q 126.945555 452.692668 127.800555 451.157668 
Q 128.655555 449.622668 130.228055 448.712668 
Q 131.803055 447.802668 133.865555 447.787668 
z
M 129.373055 452.942668 
Q 129.310555 454.022668 129.310555 454.522668 
Q 129.310555 455.600168 129.518055 456.607668 
Q 129.725555 457.615168 130.085555 458.022668 
Q 130.343055 458.310168 130.695555 458.310168 
Q 131.053055 458.310168 131.333055 457.892668 
Q 131.615555 457.475168 131.615555 456.192668 
Q 131.615555 454.037668 131.093055 453.217668 
Q 130.758055 452.685168 130.185555 452.685168 
Q 129.873055 452.685168 129.373055 452.942668 
z
" style="stroke: #ffffff; stroke-width: 3.8"/>
    <path d="M 108.788055 448.005168 
L 113.748055 448.005168 
L 112.960555 450.022668 
L 108.788055 450.022668 
L 108.390555 451.077668 
Q 111.085555 451.177668 112.538055 452.420168 
Q 113.733055 453.442668 113.733055 454.967668 
Q 113.733055 455.942668 113.178055 456.877668 
Q 112.623055 457.810168 111.615555 458.315168 
Q 110.608055 458.820168 109.405555 458.820168 
Q 108.108055 458.820168 107.413055 458.335168 
Q 106.928055 457.990168 106.928055 457.552668 
Q 106.928055 457.217668 107.180555 456.960168 
Q 107.435555 456.702668 107.773055 456.702668 
Q 108.078055 456.702668 108.390555 456.827668 
Q 108.703055 456.952668 109.460555 457.482668 
Q 109.935555 457.810168 110.280555 457.935168 
Q 110.523055 458.030168 110.828055 458.030168 
Q 111.468055 458.030168 111.915555 457.562668 
Q 112.365555 457.092668 112.365555 456.435168 
Q 112.365555 455.060168 110.990555 454.202668 
Q 109.615555 453.342668 107.523055 453.342668 
Q 107.310555 453.342668 106.890555 453.350168 
L 108.788055 448.005168 
z
M 121.765555 453.302668 
Q 121.765555 454.890168 121.320555 456.265168 
Q 121.053055 457.107668 120.603055 457.647668 
Q 120.155555 458.185168 119.585555 458.502668 
Q 119.015555 458.820168 118.343055 458.820168 
Q 117.578055 458.820168 116.960555 458.430168 
Q 116.343055 458.037668 115.865555 457.310168 
Q 115.523055 456.780168 115.265555 455.897668 
Q 114.928055 454.702668 114.928055 453.427668 
Q 114.928055 451.702668 115.413055 450.255168 
Q 115.810555 449.060168 116.623055 448.425168 
Q 117.435555 447.787668 118.343055 447.787668 
Q 119.265555 447.787668 120.065555 448.417668 
Q 120.865555 449.045168 121.240555 450.107668 
Q 121.765555 451.567668 121.765555 453.302668 
z
M 119.358055 453.287668 
Q 119.358055 450.505168 119.328055 450.045168 
Q 119.248055 448.960168 118.953055 448.577668 
Q 118.758055 448.327668 118.320555 448.327668 
Q 117.983055 448.327668 117.788055 448.515168 
Q 117.498055 448.787668 117.395555 449.480168 
Q 117.295555 450.170168 117.295555 454.302668 
Q 117.295555 456.552668 117.453055 457.317668 
Q 117.570555 457.872668 117.788055 458.060168 
Q 118.008055 458.247668 118.365555 458.247668 
Q 118.758055 458.247668 118.953055 457.997668 
Q 119.280555 457.560168 119.328055 456.647668 
L 119.358055 453.287668 
z
M 124.350555 456.192668 
Q 124.898055 456.192668 125.275555 456.577668 
Q 125.655555 456.960168 125.655555 457.497668 
Q 125.655555 458.037668 125.273055 458.417668 
Q 124.890555 458.795168 124.350555 458.795168 
Q 123.810555 458.795168 123.430555 458.417668 
Q 123.053055 458.037668 123.053055 457.497668 
Q 123.053055 456.960168 123.430555 456.577668 
Q 123.810555 456.192668 124.350555 456.192668 
z
M 133.865555 447.787668 
L 133.865555 448.005168 
Q 132.453055 448.365168 131.595555 448.932668 
Q 130.740555 449.497668 130.243055 450.307668 
Q 129.748055 451.115168 129.475555 452.310168 
Q 129.820555 452.077668 130.045555 452.005168 
Q 130.553055 451.850168 131.070555 451.850168 
Q 132.258055 451.850168 133.050555 452.715168 
Q 133.843055 453.577668 133.843055 455.067668 
Q 133.843055 456.115168 133.413055 456.990168 
Q 132.983055 457.865168 132.193055 458.342668 
Q 131.405555 458.820168 130.508055 458.820168 
Q 129.530555 458.820168 128.700555 458.285168 
Q 127.873055 457.747668 127.408055 456.717668 
Q 126.945555 455.685168 126.945555 454.475168 
Q 126.945555 452.692668 127.800555 451.157668 
Q 128.655555 449.622668 130.228055 448.712668 
Q 131.803055 447.802668 133.865555 447.787668 
z
M 129.373055 452.942668 
Q 129.310555 454.022668 129.310555 454.522668 
Q 129.310555 455.600168 129.518055 456.607668 
Q 129.725555 457.615168 130.085555 458.022668 
Q 130.343055 458.310168 130.695555 458.310168 
Q 131.053055 458.310168 131.333055 457.892668 
Q 131.615555 457.475168 131.615555 456.192668 
Q 131.615555 454.037668 131.093055 453.217668 
Q 130.758055 452.685168 130.185555 452.685168 
Q 129.873055 452.685168 129.373055 452.942668 
z
"/>
   </g>
   <g id="text_23">
    <path d="M 109.185555 402.733221 
L 112.070555 393.990721 
L 109.873055 393.990721 
Q 108.585555 393.990721 107.935555 394.325721 
Q 107.483055 394.560721 107.185555 395.208221 
L 106.890555 395.208221 
L 107.655555 391.918221 
L 113.968055 391.918221 
L 110.413055 402.733221 
L 109.185555 402.733221 
z
M 114.843055 402.733221 
L 114.843055 402.513221 
Q 116.140555 402.215721 117.043055 401.638221 
Q 117.945555 401.060721 118.470555 400.208221 
Q 118.998055 399.355721 119.210555 398.248221 
Q 118.725555 398.498221 118.385555 398.595721 
Q 118.045555 398.693221 117.670555 398.693221 
Q 116.468055 398.693221 115.665555 397.825721 
Q 114.865555 396.958221 114.865555 395.450721 
Q 114.865555 394.403221 115.298055 393.533221 
Q 115.733055 392.660721 116.538055 392.180721 
Q 117.343055 391.700721 118.210555 391.700721 
Q 119.140555 391.700721 119.968055 392.233221 
Q 120.795555 392.763221 121.288055 393.770721 
Q 121.780555 394.778221 121.780555 396.068221 
Q 121.780555 397.740721 120.978055 399.273221 
Q 120.178055 400.803221 118.593055 401.728221 
Q 117.008055 402.653221 114.843055 402.733221 
z
M 119.328055 397.590721 
Q 119.405555 396.715721 119.405555 396.053221 
Q 119.405555 394.630721 119.078055 393.403221 
Q 118.890555 392.723221 118.523055 392.403221 
Q 118.328055 392.230721 118.015555 392.230721 
Q 117.623055 392.230721 117.405555 392.568221 
Q 117.100555 393.028221 117.100555 394.325721 
Q 117.100555 396.490721 117.615555 397.310721 
Q 117.953055 397.840721 118.523055 397.840721 
Q 118.828055 397.840721 119.328055 397.590721 
z
M 124.350555 400.105721 
Q 124.898055 400.105721 125.275555 400.490721 
Q 125.655555 400.873221 125.655555 401.410721 
Q 125.655555 401.950721 125.273055 402.330721 
Q 124.890555 402.708221 124.350555 402.708221 
Q 123.810555 402.708221 123.430555 402.330721 
Q 123.053055 401.950721 123.053055 401.410721 
Q 123.053055 400.873221 123.430555 400.490721 
Q 123.810555 400.105721 124.350555 400.105721 
z
M 129.185555 402.733221 
L 132.070555 393.990721 
L 129.873055 393.990721 
Q 128.585555 393.990721 127.935555 394.325721 
Q 127.483055 394.560721 127.185555 395.208221 
L 126.890555 395.208221 
L 127.655555 391.918221 
L 133.968055 391.918221 
L 130.413055 402.733221 
L 129.185555 402.733221 
z
" style="stroke: #ffffff; stroke-width: 3.8"/>
    <path d="M 109.185555 402.733221 
L 112.070555 393.990721 
L 109.873055 393.990721 
Q 108.585555 393.990721 107.935555 394.325721 
Q 107.483055 394.560721 107.185555 395.208221 
L 106.890555 395.208221 
L 107.655555 391.918221 
L 113.968055 391.918221 
L 110.413055 402.733221 
L 109.185555 402.733221 
z
M 114.843055 402.733221 
L 114.843055 402.513221 
Q 116.140555 402.215721 117.043055 401.638221 
Q 117.945555 401.060721 118.470555 400.208221 
Q 118.998055 399.355721 119.210555 398.248221 
Q 118.725555 398.498221 118.385555 398.595721 
Q 118.045555 398.693221 117.670555 398.693221 
Q 116.468055 398.693221 115.665555 397.825721 
Q 114.865555 396.958221 114.865555 395.450721 
Q 114.865555 394.403221 115.298055 393.533221 
Q 115.733055 392.660721 116.538055 392.180721 
Q 117.343055 391.700721 118.210555 391.700721 
Q 119.140555 391.700721 119.968055 392.233221 
Q 120.795555 392.763221 121.288055 393.770721 
Q 121.780555 394.778221 121.780555 396.068221 
Q 121.780555 397.740721 120.978055 399.273221 
Q 120.178055 400.803221 118.593055 401.728221 
Q 117.008055 402.653221 114.843055 402.733221 
z
M 119.328055 397.590721 
Q 119.405555 396.715721 119.405555 396.053221 
Q 119.405555 394.630721 119.078055 393.403221 
Q 118.890555 392.723221 118.523055 392.403221 
Q 118.328055 392.230721 118.015555 392.230721 
Q 117.623055 392.230721 117.405555 392.568221 
Q 117.100555 393.028221 117.100555 394.325721 
Q 117.100555 396.490721 117.615555 397.310721 
Q 117.953055 397.840721 118.523055 397.840721 
Q 118.828055 397.840721 119.328055 397.590721 
z
M 124.350555 400.105721 
Q 124.898055 400.105721 125.275555 400.490721 
Q 125.655555 400.873221 125.655555 401.410721 
Q 125.655555 401.950721 125.273055 402.330721 
Q 124.890555 402.708221 124.350555 402.708221 
Q 123.810555 402.708221 123.430555 402.330721 
Q 123.053055 401.950721 123.053055 401.410721 
Q 123.053055 400.873221 123.430555 400.490721 
Q 123.810555 400.105721 124.350555 400.105721 
z
M 129.185555 402.733221 
L 132.070555 393.990721 
L 129.873055 393.990721 
Q 128.585555 393.990721 127.935555 394.325721 
Q 127.483055 394.560721 127.185555 395.208221 
L 126.890555 395.208221 
L 127.655555 391.918221 
L 133.968055 391.918221 
L 130.413055 402.733221 
L 129.185555 402.733221 
z
"/>
   </g>
   <g id="text_24">
    <path d="M 107.560555 318.78146 
L 107.560555 327.44646 
Q 107.560555 328.42146 107.645555 328.69146 
Q 107.733055 328.96146 108.005555 329.13396 
Q 108.280555 329.30396 108.883055 329.30396 
L 109.123055 329.30396 
L 109.123055 329.59396 
L 103.545555 329.59396 
L 103.545555 329.30396 
L 103.828055 329.30396 
Q 104.508055 329.30396 104.795555 329.14896 
Q 105.085555 328.99146 105.185555 328.71896 
Q 105.288055 328.44646 105.288055 327.44646 
L 105.288055 321.95396 
Q 105.288055 321.21896 105.218055 321.03646 
Q 105.148055 320.85146 104.955555 320.72396 
Q 104.765555 320.59396 104.515555 320.59396 
Q 104.115555 320.59396 103.545555 320.84396 
L 103.405555 320.56146 
L 107.303055 318.78146 
L 107.560555 318.78146 
z
M 117.765555 324.29646 
Q 117.765555 325.88396 117.320555 327.25896 
Q 117.053055 328.10146 116.603055 328.64146 
Q 116.155555 329.17896 115.585555 329.49646 
Q 115.015555 329.81396 114.343055 329.81396 
Q 113.578055 329.81396 112.960555 329.42396 
Q 112.343055 329.03146 111.865555 328.30396 
Q 111.523055 327.77396 111.265555 326.89146 
Q 110.928055 325.69646 110.928055 324.42146 
Q 110.928055 322.69646 111.413055 321.24896 
Q 111.810555 320.05396 112.623055 319.41896 
Q 113.435555 318.78146 114.343055 318.78146 
Q 115.265555 318.78146 116.065555 319.41146 
Q 116.865555 320.03896 117.240555 321.10146 
Q 117.765555 322.56146 117.765555 324.29646 
z
M 115.358055 324.28146 
Q 115.358055 321.49896 115.328055 321.03896 
Q 115.248055 319.95396 114.953055 319.57146 
Q 114.758055 319.32146 114.320555 319.32146 
Q 113.983055 319.32146 113.788055 319.50896 
Q 113.498055 319.78146 113.395555 320.47396 
Q 113.295555 321.16396 113.295555 325.29646 
Q 113.295555 327.54646 113.453055 328.31146 
Q 113.570555 328.86646 113.788055 329.05396 
Q 114.008055 329.24146 114.365555 329.24146 
Q 114.758055 329.24146 114.953055 328.99146 
Q 115.280555 328.55396 115.328055 327.64146 
L 115.358055 324.28146 
z
M 124.975555 329.59396 
L 118.740555 329.59396 
L 118.740555 329.42146 
Q 121.608055 326.00896 122.220555 324.82896 
Q 122.835555 323.64896 122.835555 322.52396 
Q 122.835555 321.70396 122.328055 321.16146 
Q 121.820555 320.61646 121.085555 320.61646 
Q 119.883055 320.61646 119.218055 321.82146 
L 118.928055 321.71896 
Q 119.350555 320.21896 120.210555 319.50146 
Q 121.070555 318.78146 122.195555 318.78146 
Q 122.998055 318.78146 123.663055 319.15646 
Q 124.328055 319.53146 124.703055 320.18396 
Q 125.078055 320.83646 125.078055 321.40646 
Q 125.078055 322.44646 124.498055 323.51646 
Q 123.710555 324.96146 121.053055 327.54646 
L 123.343055 327.54646 
Q 124.185555 327.54646 124.440555 327.47646 
Q 124.695555 327.40646 124.858055 327.23896 
Q 125.023055 327.07146 125.288055 326.53146 
L 125.570555 326.53146 
L 124.975555 329.59396 
z
M 128.350555 327.18646 
Q 128.898055 327.18646 129.275555 327.57146 
Q 129.655555 327.95396 129.655555 328.49146 
Q 129.655555 329.03146 129.273055 329.41146 
Q 128.890555 329.78896 128.350555 329.78896 
Q 127.810555 329.78896 127.430555 329.41146 
Q 127.053055 329.03146 127.053055 328.49146 
Q 127.053055 327.95396 127.430555 327.57146 
Q 127.810555 327.18646 128.350555 327.18646 
z
M 130.748055 325.60146 
L 135.780555 318.78146 
L 136.733055 318.78146 
L 136.733055 325.60146 
L 137.703055 325.60146 
L 137.703055 327.21896 
L 136.733055 327.21896 
L 136.733055 329.59396 
L 134.585555 329.59396 
L 134.585555 327.21896 
L 130.748055 327.21896 
L 130.748055 325.60146 
z
M 131.508055 325.60146 
L 134.585555 325.60146 
L 134.585555 321.42146 
L 131.508055 325.60146 
z
" style="stroke: #ffffff; stroke-width: 3.8"/>
    <path d="M 107.560555 318.78146 
L 107.560555 327.44646 
Q 107.560555 328.42146 107.645555 328.69146 
Q 107.733055 328.96146 108.005555 329.13396 
Q 108.280555 329.30396 108.883055 329.30396 
L 109.123055 329.30396 
L 109.123055 329.59396 
L 103.545555 329.59396 
L 103.545555 329.30396 
L 103.828055 329.30396 
Q 104.508055 329.30396 104.795555 329.14896 
Q 105.085555 328.99146 105.185555 328.71896 
Q 105.288055 328.44646 105.288055 327.44646 
L 105.288055 321.95396 
Q 105.288055 321.21896 105.218055 321.03646 
Q 105.148055 320.85146 104.955555 320.72396 
Q 104.765555 320.59396 104.515555 320.59396 
Q 104.115555 320.59396 103.545555 320.84396 
L 103.405555 320.56146 
L 107.303055 318.78146 
L 107.560555 318.78146 
z
M 117.765555 324.29646 
Q 117.765555 325.88396 117.320555 327.25896 
Q 117.053055 328.10146 116.603055 328.64146 
Q 116.155555 329.17896 115.585555 329.49646 
Q 115.015555 329.81396 114.343055 329.81396 
Q 113.578055 329.81396 112.960555 329.42396 
Q 112.343055 329.03146 111.865555 328.30396 
Q 111.523055 327.77396 111.265555 326.89146 
Q 110.928055 325.69646 110.928055 324.42146 
Q 110.928055 322.69646 111.413055 321.24896 
Q 111.810555 320.05396 112.623055 319.41896 
Q 113.435555 318.78146 114.343055 318.78146 
Q 115.265555 318.78146 116.065555 319.41146 
Q 116.865555 320.03896 117.240555 321.10146 
Q 117.765555 322.56146 117.765555 324.29646 
z
M 115.358055 324.28146 
Q 115.358055 321.49896 115.328055 321.03896 
Q 115.248055 319.95396 114.953055 319.57146 
Q 114.758055 319.32146 114.320555 319.32146 
Q 113.983055 319.32146 113.788055 319.50896 
Q 113.498055 319.78146 113.395555 320.47396 
Q 113.295555 321.16396 113.295555 325.29646 
Q 113.295555 327.54646 113.453055 328.31146 
Q 113.570555 328.86646 113.788055 329.05396 
Q 114.008055 329.24146 114.365555 329.24146 
Q 114.758055 329.24146 114.953055 328.99146 
Q 115.280555 328.55396 115.328055 327.64146 
L 115.358055 324.28146 
z
M 124.975555 329.59396 
L 118.740555 329.59396 
L 118.740555 329.42146 
Q 121.608055 326.00896 122.220555 324.82896 
Q 122.835555 323.64896 122.835555 322.52396 
Q 122.835555 321.70396 122.328055 321.16146 
Q 121.820555 320.61646 121.085555 320.61646 
Q 119.883055 320.61646 119.218055 321.82146 
L 118.928055 321.71896 
Q 119.350555 320.21896 120.210555 319.50146 
Q 121.070555 318.78146 122.195555 318.78146 
Q 122.998055 318.78146 123.663055 319.15646 
Q 124.328055 319.53146 124.703055 320.18396 
Q 125.078055 320.83646 125.078055 321.40646 
Q 125.078055 322.44646 124.498055 323.51646 
Q 123.710555 324.96146 121.053055 327.54646 
L 123.343055 327.54646 
Q 124.185555 327.54646 124.440555 327.47646 
Q 124.695555 327.40646 124.858055 327.23896 
Q 125.023055 327.07146 125.288055 326.53146 
L 125.570555 326.53146 
L 124.975555 329.59396 
z
M 128.350555 327.18646 
Q 128.898055 327.18646 129.275555 327.57146 
Q 129.655555 327.95396 129.655555 328.49146 
Q 129.655555 329.03146 129.273055 329.41146 
Q 128.890555 329.78896 128.350555 329.78896 
Q 127.810555 329.78896 127.430555 329.41146 
Q 127.053055 329.03146 127.053055 328.49146 
Q 127.053055 327.95396 127.430555 327.57146 
Q 127.810555 327.18646 128.350555 327.18646 
z
M 130.748055 325.60146 
L 135.780555 318.78146 
L 136.733055 318.78146 
L 136.733055 325.60146 
L 137.703055 325.60146 
L 137.703055 327.21896 
L 136.733055 327.21896 
L 136.733055 329.59396 
L 134.585555 329.59396 
L 134.585555 327.21896 
L 130.748055 327.21896 
L 130.748055 325.60146 
z
M 131.508055 325.60146 
L 134.585555 325.60146 
L 134.585555 321.42146 
L 131.508055 325.60146 
z
"/>
   </g>
   <g id="text_25">
    <path d="M 358.662197 276.526353 
L 363.622197 276.526353 
L 362.834697 278.543853 
L 358.662197 278.543853 
L 358.264697 279.598853 
Q 360.959697 279.698853 362.412197 280.941353 
Q 363.607197 281.963853 363.607197 283.488853 
Q 363.607197 284.463853 363.052197 285.398853 
Q 362.497197 286.331353 361.489697 286.836353 
Q 360.482197 287.341353 359.279697 287.341353 
Q 357.982197 287.341353 357.287197 286.856353 
Q 356.802197 286.511353 356.802197 286.073853 
Q 356.802197 285.738853 357.054697 285.481353 
Q 357.309697 285.223853 357.647197 285.223853 
Q 357.952197 285.223853 358.264697 285.348853 
Q 358.577197 285.473853 359.334697 286.003853 
Q 359.809697 286.331353 360.154697 286.456353 
Q 360.397197 286.551353 360.702197 286.551353 
Q 361.342197 286.551353 361.789697 286.083853 
Q 362.239697 285.613853 362.239697 284.956353 
Q 362.239697 283.581353 360.864697 282.723853 
Q 359.489697 281.863853 357.397197 281.863853 
Q 357.184697 281.863853 356.764697 281.871353 
L 358.662197 276.526353 
z
M 371.639697 281.823853 
Q 371.639697 283.411353 371.194697 284.786353 
Q 370.927197 285.628853 370.477197 286.168853 
Q 370.029697 286.706353 369.459697 287.023853 
Q 368.889697 287.341353 368.217197 287.341353 
Q 367.452197 287.341353 366.834697 286.951353 
Q 366.217197 286.558853 365.739697 285.831353 
Q 365.397197 285.301353 365.139697 284.418853 
Q 364.802197 283.223853 364.802197 281.948853 
Q 364.802197 280.223853 365.287197 278.776353 
Q 365.684697 277.581353 366.497197 276.946353 
Q 367.309697 276.308853 368.217197 276.308853 
Q 369.139697 276.308853 369.939697 276.938853 
Q 370.739697 277.566353 371.114697 278.628853 
Q 371.639697 280.088853 371.639697 281.823853 
z
M 369.232197 281.808853 
Q 369.232197 279.026353 369.202197 278.566353 
Q 369.122197 277.481353 368.827197 277.098853 
Q 368.632197 276.848853 368.194697 276.848853 
Q 367.857197 276.848853 367.662197 277.036353 
Q 367.372197 277.308853 367.269697 278.001353 
Q 367.169697 278.691353 367.169697 282.823853 
Q 367.169697 285.073853 367.327197 285.838853 
Q 367.444697 286.393853 367.662197 286.581353 
Q 367.882197 286.768853 368.239697 286.768853 
Q 368.632197 286.768853 368.827197 286.518853 
Q 369.154697 286.081353 369.202197 285.168853 
L 369.232197 281.808853 
z
M 374.224697 284.713853 
Q 374.772197 284.713853 375.149697 285.098853 
Q 375.529697 285.481353 375.529697 286.018853 
Q 375.529697 286.558853 375.147197 286.938853 
Q 374.764697 287.316353 374.224697 287.316353 
Q 373.684697 287.316353 373.304697 286.938853 
Q 372.927197 286.558853 372.927197 286.018853 
Q 372.927197 285.481353 373.304697 285.098853 
Q 373.684697 284.713853 374.224697 284.713853 
z
M 376.622197 283.128853 
L 381.654697 276.308853 
L 382.607197 276.308853 
L 382.607197 283.128853 
L 383.577197 283.128853 
L 383.577197 284.746353 
L 382.607197 284.746353 
L 382.607197 287.121353 
L 380.459697 287.121353 
L 380.459697 284.746353 
L 376.622197 284.746353 
L 376.622197 283.128853 
z
M 377.382197 283.128853 
L 380.459697 283.128853 
L 380.459697 278.948853 
L 377.382197 283.128853 
z
" style="stroke: #ffffff; stroke-width: 3.8"/>
    <path d="M 358.662197 276.526353 
L 363.622197 276.526353 
L 362.834697 278.543853 
L 358.662197 278.543853 
L 358.264697 279.598853 
Q 360.959697 279.698853 362.412197 280.941353 
Q 363.607197 281.963853 363.607197 283.488853 
Q 363.607197 284.463853 363.052197 285.398853 
Q 362.497197 286.331353 361.489697 286.836353 
Q 360.482197 287.341353 359.279697 287.341353 
Q 357.982197 287.341353 357.287197 286.856353 
Q 356.802197 286.511353 356.802197 286.073853 
Q 356.802197 285.738853 357.054697 285.481353 
Q 357.309697 285.223853 357.647197 285.223853 
Q 357.952197 285.223853 358.264697 285.348853 
Q 358.577197 285.473853 359.334697 286.003853 
Q 359.809697 286.331353 360.154697 286.456353 
Q 360.397197 286.551353 360.702197 286.551353 
Q 361.342197 286.551353 361.789697 286.083853 
Q 362.239697 285.613853 362.239697 284.956353 
Q 362.239697 283.581353 360.864697 282.723853 
Q 359.489697 281.863853 357.397197 281.863853 
Q 357.184697 281.863853 356.764697 281.871353 
L 358.662197 276.526353 
z
M 371.639697 281.823853 
Q 371.639697 283.411353 371.194697 284.786353 
Q 370.927197 285.628853 370.477197 286.168853 
Q 370.029697 286.706353 369.459697 287.023853 
Q 368.889697 287.341353 368.217197 287.341353 
Q 367.452197 287.341353 366.834697 286.951353 
Q 366.217197 286.558853 365.739697 285.831353 
Q 365.397197 285.301353 365.139697 284.418853 
Q 364.802197 283.223853 364.802197 281.948853 
Q 364.802197 280.223853 365.287197 278.776353 
Q 365.684697 277.581353 366.497197 276.946353 
Q 367.309697 276.308853 368.217197 276.308853 
Q 369.139697 276.308853 369.939697 276.938853 
Q 370.739697 277.566353 371.114697 278.628853 
Q 371.639697 280.088853 371.639697 281.823853 
z
M 369.232197 281.808853 
Q 369.232197 279.026353 369.202197 278.566353 
Q 369.122197 277.481353 368.827197 277.098853 
Q 368.632197 276.848853 368.194697 276.848853 
Q 367.857197 276.848853 367.662197 277.036353 
Q 367.372197 277.308853 367.269697 278.001353 
Q 367.169697 278.691353 367.169697 282.823853 
Q 367.169697 285.073853 367.327197 285.838853 
Q 367.444697 286.393853 367.662197 286.581353 
Q 367.882197 286.768853 368.239697 286.768853 
Q 368.632197 286.768853 368.827197 286.518853 
Q 369.154697 286.081353 369.202197 285.168853 
L 369.232197 281.808853 
z
M 374.224697 284.713853 
Q 374.772197 284.713853 375.149697 285.098853 
Q 375.529697 285.481353 375.529697 286.018853 
Q 375.529697 286.558853 375.147197 286.938853 
Q 374.764697 287.316353 374.224697 287.316353 
Q 373.684697 287.316353 373.304697 286.938853 
Q 372.927197 286.558853 372.927197 286.018853 
Q 372.927197 285.481353 373.304697 285.098853 
Q 373.684697 284.713853 374.224697 284.713853 
z
M 376.622197 283.128853 
L 381.654697 276.308853 
L 382.607197 276.308853 
L 382.607197 283.128853 
L 383.577197 283.128853 
L 383.577197 284.746353 
L 382.607197 284.746353 
L 382.607197 287.121353 
L 380.459697 287.121353 
L 380.459697 284.746353 
L 376.622197 284.746353 
L 376.622197 283.128853 
z
M 377.382197 283.128853 
L 380.459697 283.128853 
L 380.459697 278.948853 
L 377.382197 283.128853 
z
"/>
   </g>
   <g id="text_26">
    <path d="M 359.059697 210.954268 
L 361.944697 202.211768 
L 359.747197 202.211768 
Q 358.459697 202.211768 357.809697 202.546768 
Q 357.357197 202.781768 357.059697 203.429268 
L 356.764697 203.429268 
L 357.529697 200.139268 
L 363.842197 200.139268 
L 360.287197 210.954268 
L 359.059697 210.954268 
z
M 369.434697 199.921768 
L 369.434697 208.586768 
Q 369.434697 209.561768 369.519697 209.831768 
Q 369.607197 210.101768 369.879697 210.274268 
Q 370.154697 210.444268 370.757197 210.444268 
L 370.997197 210.444268 
L 370.997197 210.734268 
L 365.419697 210.734268 
L 365.419697 210.444268 
L 365.702197 210.444268 
Q 366.382197 210.444268 366.669697 210.289268 
Q 366.959697 210.131768 367.059697 209.859268 
Q 367.162197 209.586768 367.162197 208.586768 
L 367.162197 203.094268 
Q 367.162197 202.359268 367.092197 202.176768 
Q 367.022197 201.991768 366.829697 201.864268 
Q 366.639697 201.734268 366.389697 201.734268 
Q 365.989697 201.734268 365.419697 201.984268 
L 365.279697 201.701768 
L 369.177197 199.921768 
L 369.434697 199.921768 
z
M 374.224697 208.326768 
Q 374.772197 208.326768 375.149697 208.711768 
Q 375.529697 209.094268 375.529697 209.631768 
Q 375.529697 210.171768 375.147197 210.551768 
Q 374.764697 210.929268 374.224697 210.929268 
Q 373.684697 210.929268 373.304697 210.551768 
Q 372.927197 210.171768 372.927197 209.631768 
Q 372.927197 209.094268 373.304697 208.711768 
Q 373.684697 208.326768 374.224697 208.326768 
z
M 382.849697 210.734268 
L 376.614697 210.734268 
L 376.614697 210.561768 
Q 379.482197 207.149268 380.094697 205.969268 
Q 380.709697 204.789268 380.709697 203.664268 
Q 380.709697 202.844268 380.202197 202.301768 
Q 379.694697 201.756768 378.959697 201.756768 
Q 377.757197 201.756768 377.092197 202.961768 
L 376.802197 202.859268 
Q 377.224697 201.359268 378.084697 200.641768 
Q 378.944697 199.921768 380.069697 199.921768 
Q 380.872197 199.921768 381.537197 200.296768 
Q 382.202197 200.671768 382.577197 201.324268 
Q 382.952197 201.976768 382.952197 202.546768 
Q 382.952197 203.586768 382.372197 204.656768 
Q 381.584697 206.101768 378.927197 208.686768 
L 381.217197 208.686768 
Q 382.059697 208.686768 382.314697 208.616768 
Q 382.569697 208.546768 382.732197 208.379268 
Q 382.897197 208.211768 383.162197 207.671768 
L 383.444697 207.671768 
L 382.849697 210.734268 
z
" style="stroke: #ffffff; stroke-width: 3.8"/>
    <path d="M 359.059697 210.954268 
L 361.944697 202.211768 
L 359.747197 202.211768 
Q 358.459697 202.211768 357.809697 202.546768 
Q 357.357197 202.781768 357.059697 203.429268 
L 356.764697 203.429268 
L 357.529697 200.139268 
L 363.842197 200.139268 
L 360.287197 210.954268 
L 359.059697 210.954268 
z
M 369.434697 199.921768 
L 369.434697 208.586768 
Q 369.434697 209.561768 369.519697 209.831768 
Q 369.607197 210.101768 369.879697 210.274268 
Q 370.154697 210.444268 370.757197 210.444268 
L 370.997197 210.444268 
L 370.997197 210.734268 
L 365.419697 210.734268 
L 365.419697 210.444268 
L 365.702197 210.444268 
Q 366.382197 210.444268 366.669697 210.289268 
Q 366.959697 210.131768 367.059697 209.859268 
Q 367.162197 209.586768 367.162197 208.586768 
L 367.162197 203.094268 
Q 367.162197 202.359268 367.092197 202.176768 
Q 367.022197 201.991768 366.829697 201.864268 
Q 366.639697 201.734268 366.389697 201.734268 
Q 365.989697 201.734268 365.419697 201.984268 
L 365.279697 201.701768 
L 369.177197 199.921768 
L 369.434697 199.921768 
z
M 374.224697 208.326768 
Q 374.772197 208.326768 375.149697 208.711768 
Q 375.529697 209.094268 375.529697 209.631768 
Q 375.529697 210.171768 375.147197 210.551768 
Q 374.764697 210.929268 374.224697 210.929268 
Q 373.684697 210.929268 373.304697 210.551768 
Q 372.927197 210.171768 372.927197 209.631768 
Q 372.927197 209.094268 373.304697 208.711768 
Q 373.684697 208.326768 374.224697 208.326768 
z
M 382.849697 210.734268 
L 376.614697 210.734268 
L 376.614697 210.561768 
Q 379.482197 207.149268 380.094697 205.969268 
Q 380.709697 204.789268 380.709697 203.664268 
Q 380.709697 202.844268 380.202197 202.301768 
Q 379.694697 201.756768 378.959697 201.756768 
Q 377.757197 201.756768 377.092197 202.961768 
L 376.802197 202.859268 
Q 377.224697 201.359268 378.084697 200.641768 
Q 378.944697 199.921768 380.069697 199.921768 
Q 380.872197 199.921768 381.537197 200.296768 
Q 382.202197 200.671768 382.577197 201.324268 
Q 382.952197 201.976768 382.952197 202.546768 
Q 382.952197 203.586768 382.372197 204.656768 
Q 381.584697 206.101768 378.927197 208.686768 
L 381.217197 208.686768 
Q 382.059697 208.686768 382.314697 208.616768 
Q 382.569697 208.546768 382.732197 208.379268 
Q 382.897197 208.211768 383.162197 207.671768 
L 383.444697 207.671768 
L 382.849697 210.734268 
z
"/>
   </g>
   <g id="text_27">
    <path d="M 357.434697 125.575537 
L 357.434697 134.240537 
Q 357.434697 135.215537 357.519697 135.485537 
Q 357.607197 135.755537 357.879697 135.928037 
Q 358.154697 136.098037 358.757197 136.098037 
L 358.997197 136.098037 
L 358.997197 136.388037 
L 353.419697 136.388037 
L 353.419697 136.098037 
L 353.702197 136.098037 
Q 354.382197 136.098037 354.669697 135.943037 
Q 354.959697 135.785537 355.059697 135.513037 
Q 355.162197 135.240537 355.162197 134.240537 
L 355.162197 128.748037 
Q 355.162197 128.013037 355.092197 127.830537 
Q 355.022197 127.645537 354.829697 127.518037 
Q 354.639697 127.388037 354.389697 127.388037 
Q 353.989697 127.388037 353.419697 127.638037 
L 353.279697 127.355537 
L 357.177197 125.575537 
L 357.434697 125.575537 
z
M 367.739697 125.575537 
L 367.739697 125.793037 
Q 366.327197 126.153037 365.469697 126.720537 
Q 364.614697 127.285537 364.117197 128.095537 
Q 363.622197 128.903037 363.349697 130.098037 
Q 363.694697 129.865537 363.919697 129.793037 
Q 364.427197 129.638037 364.944697 129.638037 
Q 366.132197 129.638037 366.924697 130.503037 
Q 367.717197 131.365537 367.717197 132.855537 
Q 367.717197 133.903037 367.287197 134.778037 
Q 366.857197 135.653037 366.067197 136.130537 
Q 365.279697 136.608037 364.382197 136.608037 
Q 363.404697 136.608037 362.574697 136.073037 
Q 361.747197 135.535537 361.282197 134.505537 
Q 360.819697 133.473037 360.819697 132.263037 
Q 360.819697 130.480537 361.674697 128.945537 
Q 362.529697 127.410537 364.102197 126.500537 
Q 365.677197 125.590537 367.739697 125.575537 
z
M 363.247197 130.730537 
Q 363.184697 131.810537 363.184697 132.310537 
Q 363.184697 133.388037 363.392197 134.395537 
Q 363.599697 135.403037 363.959697 135.810537 
Q 364.217197 136.098037 364.569697 136.098037 
Q 364.927197 136.098037 365.207197 135.680537 
Q 365.489697 135.263037 365.489697 133.980537 
Q 365.489697 131.825537 364.967197 131.005537 
Q 364.632197 130.473037 364.059697 130.473037 
Q 363.747197 130.473037 363.247197 130.730537 
z
M 370.592197 131.075537 
L 370.592197 130.803037 
Q 371.482197 130.543037 371.824697 130.320537 
Q 372.169697 130.098037 372.419697 129.643037 
Q 372.669697 129.185537 372.669697 128.715537 
Q 372.669697 128.068037 372.197197 127.603037 
Q 371.724697 127.138037 371.022197 127.138037 
Q 369.927197 127.138037 369.162197 128.293037 
L 368.872197 128.193037 
Q 369.434697 126.888037 370.314697 126.233037 
Q 371.194697 125.575537 372.272197 125.575537 
Q 373.372197 125.575537 374.087197 126.248037 
Q 374.802197 126.918037 374.802197 127.818037 
Q 374.802197 128.403037 374.469697 128.948037 
Q 374.139697 129.490537 373.427197 129.903037 
Q 374.342197 130.348037 374.822197 131.000537 
Q 375.302197 131.653037 375.302197 132.638037 
Q 375.302197 134.293037 374.102197 135.455537 
Q 372.904697 136.615537 370.889697 136.615537 
Q 369.544697 136.615537 368.927197 136.168037 
Q 368.482197 135.855537 368.482197 135.365537 
Q 368.482197 135.005537 368.739697 134.753037 
Q 368.997197 134.498037 369.334697 134.498037 
Q 369.592197 134.498037 369.819697 134.605537 
Q 369.944697 134.668037 370.704697 135.290537 
Q 371.467197 135.910537 372.132197 135.910537 
Q 372.709697 135.910537 373.122197 135.455537 
Q 373.537197 134.998037 373.537197 134.293037 
Q 373.537197 133.223037 372.787197 132.320537 
Q 372.037197 131.418037 370.592197 131.075537 
z
M 378.224697 133.980537 
Q 378.772197 133.980537 379.149697 134.365537 
Q 379.529697 134.748037 379.529697 135.285537 
Q 379.529697 135.825537 379.147197 136.205537 
Q 378.764697 136.583037 378.224697 136.583037 
Q 377.684697 136.583037 377.304697 136.205537 
Q 376.927197 135.825537 376.927197 135.285537 
Q 376.927197 134.748037 377.304697 134.365537 
Q 377.684697 133.980537 378.224697 133.980537 
z
M 380.717197 136.608037 
L 380.717197 136.388037 
Q 382.014697 136.090537 382.917197 135.513037 
Q 383.819697 134.935537 384.344697 134.083037 
Q 384.872197 133.230537 385.084697 132.123037 
Q 384.599697 132.373037 384.259697 132.470537 
Q 383.919697 132.568037 383.544697 132.568037 
Q 382.342197 132.568037 381.539697 131.700537 
Q 380.739697 130.833037 380.739697 129.325537 
Q 380.739697 128.278037 381.172197 127.408037 
Q 381.607197 126.535537 382.412197 126.055537 
Q 383.217197 125.575537 384.084697 125.575537 
Q 385.014697 125.575537 385.842197 126.108037 
Q 386.669697 126.638037 387.162197 127.645537 
Q 387.654697 128.653037 387.654697 129.943037 
Q 387.654697 131.615537 386.852197 133.148037 
Q 386.052197 134.678037 384.467197 135.603037 
Q 382.882197 136.528037 380.717197 136.608037 
z
M 385.202197 131.465537 
Q 385.279697 130.590537 385.279697 129.928037 
Q 385.279697 128.505537 384.952197 127.278037 
Q 384.764697 126.598037 384.397197 126.278037 
Q 384.202197 126.105537 383.889697 126.105537 
Q 383.497197 126.105537 383.279697 126.443037 
Q 382.974697 126.903037 382.974697 128.200537 
Q 382.974697 130.365537 383.489697 131.185537 
Q 383.827197 131.715537 384.397197 131.715537 
Q 384.702197 131.715537 385.202197 131.465537 
z
" style="stroke: #ffffff; stroke-width: 3.8"/>
    <path d="M 357.434697 125.575537 
L 357.434697 134.240537 
Q 357.434697 135.215537 357.519697 135.485537 
Q 357.607197 135.755537 357.879697 135.928037 
Q 358.154697 136.098037 358.757197 136.098037 
L 358.997197 136.098037 
L 358.997197 136.388037 
L 353.419697 136.388037 
L 353.419697 136.098037 
L 353.702197 136.098037 
Q 354.382197 136.098037 354.669697 135.943037 
Q 354.959697 135.785537 355.059697 135.513037 
Q 355.162197 135.240537 355.162197 134.240537 
L 355.162197 128.748037 
Q 355.162197 128.013037 355.092197 127.830537 
Q 355.022197 127.645537 354.829697 127.518037 
Q 354.639697 127.388037 354.389697 127.388037 
Q 353.989697 127.388037 353.419697 127.638037 
L 353.279697 127.355537 
L 357.177197 125.575537 
L 357.434697 125.575537 
z
M 367.739697 125.575537 
L 367.739697 125.793037 
Q 366.327197 126.153037 365.469697 126.720537 
Q 364.614697 127.285537 364.117197 128.095537 
Q 363.622197 128.903037 363.349697 130.098037 
Q 363.694697 129.865537 363.919697 129.793037 
Q 364.427197 129.638037 364.944697 129.638037 
Q 366.132197 129.638037 366.924697 130.503037 
Q 367.717197 131.365537 367.717197 132.855537 
Q 367.717197 133.903037 367.287197 134.778037 
Q 366.857197 135.653037 366.067197 136.130537 
Q 365.279697 136.608037 364.382197 136.608037 
Q 363.404697 136.608037 362.574697 136.073037 
Q 361.747197 135.535537 361.282197 134.505537 
Q 360.819697 133.473037 360.819697 132.263037 
Q 360.819697 130.480537 361.674697 128.945537 
Q 362.529697 127.410537 364.102197 126.500537 
Q 365.677197 125.590537 367.739697 125.575537 
z
M 363.247197 130.730537 
Q 363.184697 131.810537 363.184697 132.310537 
Q 363.184697 133.388037 363.392197 134.395537 
Q 363.599697 135.403037 363.959697 135.810537 
Q 364.217197 136.098037 364.569697 136.098037 
Q 364.927197 136.098037 365.207197 135.680537 
Q 365.489697 135.263037 365.489697 133.980537 
Q 365.489697 131.825537 364.967197 131.005537 
Q 364.632197 130.473037 364.059697 130.473037 
Q 363.747197 130.473037 363.247197 130.730537 
z
M 370.592197 131.075537 
L 370.592197 130.803037 
Q 371.482197 130.543037 371.824697 130.320537 
Q 372.169697 130.098037 372.419697 129.643037 
Q 372.669697 129.185537 372.669697 128.715537 
Q 372.669697 128.068037 372.197197 127.603037 
Q 371.724697 127.138037 371.022197 127.138037 
Q 369.927197 127.138037 369.162197 128.293037 
L 368.872197 128.193037 
Q 369.434697 126.888037 370.314697 126.233037 
Q 371.194697 125.575537 372.272197 125.575537 
Q 373.372197 125.575537 374.087197 126.248037 
Q 374.802197 126.918037 374.802197 127.818037 
Q 374.802197 128.403037 374.469697 128.948037 
Q 374.139697 129.490537 373.427197 129.903037 
Q 374.342197 130.348037 374.822197 131.000537 
Q 375.302197 131.653037 375.302197 132.638037 
Q 375.302197 134.293037 374.102197 135.455537 
Q 372.904697 136.615537 370.889697 136.615537 
Q 369.544697 136.615537 368.927197 136.168037 
Q 368.482197 135.855537 368.482197 135.365537 
Q 368.482197 135.005537 368.739697 134.753037 
Q 368.997197 134.498037 369.334697 134.498037 
Q 369.592197 134.498037 369.819697 134.605537 
Q 369.944697 134.668037 370.704697 135.290537 
Q 371.467197 135.910537 372.132197 135.910537 
Q 372.709697 135.910537 373.122197 135.455537 
Q 373.537197 134.998037 373.537197 134.293037 
Q 373.537197 133.223037 372.787197 132.320537 
Q 372.037197 131.418037 370.592197 131.075537 
z
M 378.224697 133.980537 
Q 378.772197 133.980537 379.149697 134.365537 
Q 379.529697 134.748037 379.529697 135.285537 
Q 379.529697 135.825537 379.147197 136.205537 
Q 378.764697 136.583037 378.224697 136.583037 
Q 377.684697 136.583037 377.304697 136.205537 
Q 376.927197 135.825537 376.927197 135.285537 
Q 376.927197 134.748037 377.304697 134.365537 
Q 377.684697 133.980537 378.224697 133.980537 
z
M 380.717197 136.608037 
L 380.717197 136.388037 
Q 382.014697 136.090537 382.917197 135.513037 
Q 383.819697 134.935537 384.344697 134.083037 
Q 384.872197 133.230537 385.084697 132.123037 
Q 384.599697 132.373037 384.259697 132.470537 
Q 383.919697 132.568037 383.544697 132.568037 
Q 382.342197 132.568037 381.539697 131.700537 
Q 380.739697 130.833037 380.739697 129.325537 
Q 380.739697 128.278037 381.172197 127.408037 
Q 381.607197 126.535537 382.412197 126.055537 
Q 383.217197 125.575537 384.084697 125.575537 
Q 385.014697 125.575537 385.842197 126.108037 
Q 386.669697 126.638037 387.162197 127.645537 
Q 387.654697 128.653037 387.654697 129.943037 
Q 387.654697 131.615537 386.852197 133.148037 
Q 386.052197 134.678037 384.467197 135.603037 
Q 382.882197 136.528037 380.717197 136.608037 
z
M 385.202197 131.465537 
Q 385.279697 130.590537 385.279697 129.928037 
Q 385.279697 128.505537 384.952197 127.278037 
Q 384.764697 126.598037 384.397197 126.278037 
Q 384.202197 126.105537 383.889697 126.105537 
Q 383.497197 126.105537 383.279697 126.443037 
Q 382.974697 126.903037 382.974697 128.200537 
Q 382.974697 130.365537 383.489697 131.185537 
Q 383.827197 131.715537 384.397197 131.715537 
Q 384.702197 131.715537 385.202197 131.465537 
z
"/>
   </g>
   <g id="text_28">
    <path d="M 574.988672 341.019615 
L 577.873672 332.277115 
L 575.676172 332.277115 
Q 574.388672 332.277115 573.738672 332.612115 
Q 573.286172 332.847115 572.988672 333.494615 
L 572.693672 333.494615 
L 573.458672 330.204615 
L 579.771172 330.204615 
L 576.216172 341.019615 
L 574.988672 341.019615 
z
M 587.568672 335.502115 
Q 587.568672 337.089615 587.123672 338.464615 
Q 586.856172 339.307115 586.406172 339.847115 
Q 585.958672 340.384615 585.388672 340.702115 
Q 584.818672 341.019615 584.146172 341.019615 
Q 583.381172 341.019615 582.763672 340.629615 
Q 582.146172 340.237115 581.668672 339.509615 
Q 581.326172 338.979615 581.068672 338.097115 
Q 580.731172 336.902115 580.731172 335.627115 
Q 580.731172 333.902115 581.216172 332.454615 
Q 581.613672 331.259615 582.426172 330.624615 
Q 583.238672 329.987115 584.146172 329.987115 
Q 585.068672 329.987115 585.868672 330.617115 
Q 586.668672 331.244615 587.043672 332.307115 
Q 587.568672 333.767115 587.568672 335.502115 
z
M 585.161172 335.487115 
Q 585.161172 332.704615 585.131172 332.244615 
Q 585.051172 331.159615 584.756172 330.777115 
Q 584.561172 330.527115 584.123672 330.527115 
Q 583.786172 330.527115 583.591172 330.714615 
Q 583.301172 330.987115 583.198672 331.679615 
Q 583.098672 332.369615 583.098672 336.502115 
Q 583.098672 338.752115 583.256172 339.517115 
Q 583.373672 340.072115 583.591172 340.259615 
Q 583.811172 340.447115 584.168672 340.447115 
Q 584.561172 340.447115 584.756172 340.197115 
Q 585.083672 339.759615 585.131172 338.847115 
L 585.161172 335.487115 
z
M 590.153672 338.392115 
Q 590.701172 338.392115 591.078672 338.777115 
Q 591.458672 339.159615 591.458672 339.697115 
Q 591.458672 340.237115 591.076172 340.617115 
Q 590.693672 340.994615 590.153672 340.994615 
Q 589.613672 340.994615 589.233672 340.617115 
Q 588.856172 340.237115 588.856172 339.697115 
Q 588.856172 339.159615 589.233672 338.777115 
Q 589.613672 338.392115 590.153672 338.392115 
z
M 592.551172 336.807115 
L 597.583672 329.987115 
L 598.536172 329.987115 
L 598.536172 336.807115 
L 599.506172 336.807115 
L 599.506172 338.424615 
L 598.536172 338.424615 
L 598.536172 340.799615 
L 596.388672 340.799615 
L 596.388672 338.424615 
L 592.551172 338.424615 
L 592.551172 336.807115 
z
M 593.311172 336.807115 
L 596.388672 336.807115 
L 596.388672 332.627115 
L 593.311172 336.807115 
z
" style="stroke: #ffffff; stroke-width: 3.8"/>
    <path d="M 574.988672 341.019615 
L 577.873672 332.277115 
L 575.676172 332.277115 
Q 574.388672 332.277115 573.738672 332.612115 
Q 573.286172 332.847115 572.988672 333.494615 
L 572.693672 333.494615 
L 573.458672 330.204615 
L 579.771172 330.204615 
L 576.216172 341.019615 
L 574.988672 341.019615 
z
M 587.568672 335.502115 
Q 587.568672 337.089615 587.123672 338.464615 
Q 586.856172 339.307115 586.406172 339.847115 
Q 585.958672 340.384615 585.388672 340.702115 
Q 584.818672 341.019615 584.146172 341.019615 
Q 583.381172 341.019615 582.763672 340.629615 
Q 582.146172 340.237115 581.668672 339.509615 
Q 581.326172 338.979615 581.068672 338.097115 
Q 580.731172 336.902115 580.731172 335.627115 
Q 580.731172 333.902115 581.216172 332.454615 
Q 581.613672 331.259615 582.426172 330.624615 
Q 583.238672 329.987115 584.146172 329.987115 
Q 585.068672 329.987115 585.868672 330.617115 
Q 586.668672 331.244615 587.043672 332.307115 
Q 587.568672 333.767115 587.568672 335.502115 
z
M 585.161172 335.487115 
Q 585.161172 332.704615 585.131172 332.244615 
Q 585.051172 331.159615 584.756172 330.777115 
Q 584.561172 330.527115 584.123672 330.527115 
Q 583.786172 330.527115 583.591172 330.714615 
Q 583.301172 330.987115 583.198672 331.679615 
Q 583.098672 332.369615 583.098672 336.502115 
Q 583.098672 338.752115 583.256172 339.517115 
Q 583.373672 340.072115 583.591172 340.259615 
Q 583.811172 340.447115 584.168672 340.447115 
Q 584.561172 340.447115 584.756172 340.197115 
Q 585.083672 339.759615 585.131172 338.847115 
L 585.161172 335.487115 
z
M 590.153672 338.392115 
Q 590.701172 338.392115 591.078672 338.777115 
Q 591.458672 339.159615 591.458672 339.697115 
Q 591.458672 340.237115 591.076172 340.617115 
Q 590.693672 340.994615 590.153672 340.994615 
Q 589.613672 340.994615 589.233672 340.617115 
Q 588.856172 340.237115 588.856172 339.697115 
Q 588.856172 339.159615 589.233672 338.777115 
Q 589.613672 338.392115 590.153672 338.392115 
z
M 592.551172 336.807115 
L 597.583672 329.987115 
L 598.536172 329.987115 
L 598.536172 336.807115 
L 599.506172 336.807115 
L 599.506172 338.424615 
L 598.536172 338.424615 
L 598.536172 340.799615 
L 596.388672 340.799615 
L 596.388672 338.424615 
L 592.551172 338.424615 
L 592.551172 336.807115 
z
M 593.311172 336.807115 
L 596.388672 336.807115 
L 596.388672 332.627115 
L 593.311172 336.807115 
z
"/>
   </g>
   <g id="text_29">
    <path d="M 579.53584 427.73789 
L 579.53584 435.861327 
Q 579.53584 436.77539 579.615528 437.028515 
Q 579.697559 437.28164 579.953028 437.443359 
Q 580.21084 437.602734 580.775684 437.602734 
L 581.000684 437.602734 
L 581.000684 437.874609 
L 575.771778 437.874609 
L 575.771778 437.602734 
L 576.036622 437.602734 
Q 576.674122 437.602734 576.943653 437.457421 
Q 577.215528 437.309765 577.309278 437.054296 
Q 577.405372 436.798827 577.405372 435.861327 
L 577.405372 430.712109 
Q 577.405372 430.023046 577.339747 429.851952 
Q 577.274122 429.678515 577.093653 429.558984 
Q 576.915528 429.437109 576.681153 429.437109 
Q 576.306153 429.437109 575.771778 429.671484 
L 575.640528 429.40664 
L 579.294434 427.73789 
L 579.53584 427.73789 
z
M 584.026465 435.617577 
Q 584.539747 435.617577 584.893653 435.978515 
Q 585.249903 436.337109 585.249903 436.841015 
Q 585.249903 437.347265 584.891309 437.703515 
Q 584.532715 438.057421 584.026465 438.057421 
Q 583.520215 438.057421 583.163965 437.703515 
Q 582.810059 437.347265 582.810059 436.841015 
Q 582.810059 436.337109 583.163965 435.978515 
Q 583.520215 435.617577 584.026465 435.617577 
z
M 588.186622 427.941796 
L 592.836622 427.941796 
L 592.09834 429.833202 
L 588.186622 429.833202 
L 587.813965 430.822265 
Q 590.340528 430.916015 591.702247 432.080859 
Q 592.822559 433.039452 592.822559 434.46914 
Q 592.822559 435.383202 592.302247 436.259765 
Q 591.781934 437.133984 590.837403 437.607421 
Q 589.892872 438.080859 588.765528 438.080859 
Q 587.549122 438.080859 586.897559 437.626171 
Q 586.442872 437.302734 586.442872 436.892577 
Q 586.442872 436.578515 586.67959 436.337109 
Q 586.918653 436.095702 587.235059 436.095702 
Q 587.520997 436.095702 587.813965 436.21289 
Q 588.106934 436.330077 588.81709 436.826952 
Q 589.262403 437.133984 589.58584 437.251171 
Q 589.813184 437.340234 590.099122 437.340234 
Q 590.699122 437.340234 591.118653 436.901952 
Q 591.540528 436.461327 591.540528 435.844921 
Q 591.540528 434.555859 590.251465 433.751952 
Q 588.962403 432.945702 587.000684 432.945702 
Q 586.801465 432.945702 586.407715 432.952734 
L 588.186622 427.941796 
z
" style="fill: #404040; stroke: #ffffff; stroke-width: 3.8"/>
    <path d="M 579.53584 427.73789 
L 579.53584 435.861327 
Q 579.53584 436.77539 579.615528 437.028515 
Q 579.697559 437.28164 579.953028 437.443359 
Q 580.21084 437.602734 580.775684 437.602734 
L 581.000684 437.602734 
L 581.000684 437.874609 
L 575.771778 437.874609 
L 575.771778 437.602734 
L 576.036622 437.602734 
Q 576.674122 437.602734 576.943653 437.457421 
Q 577.215528 437.309765 577.309278 437.054296 
Q 577.405372 436.798827 577.405372 435.861327 
L 577.405372 430.712109 
Q 577.405372 430.023046 577.339747 429.851952 
Q 577.274122 429.678515 577.093653 429.558984 
Q 576.915528 429.437109 576.681153 429.437109 
Q 576.306153 429.437109 575.771778 429.671484 
L 575.640528 429.40664 
L 579.294434 427.73789 
L 579.53584 427.73789 
z
M 584.026465 435.617577 
Q 584.539747 435.617577 584.893653 435.978515 
Q 585.249903 436.337109 585.249903 436.841015 
Q 585.249903 437.347265 584.891309 437.703515 
Q 584.532715 438.057421 584.026465 438.057421 
Q 583.520215 438.057421 583.163965 437.703515 
Q 582.810059 437.347265 582.810059 436.841015 
Q 582.810059 436.337109 583.163965 435.978515 
Q 583.520215 435.617577 584.026465 435.617577 
z
M 588.186622 427.941796 
L 592.836622 427.941796 
L 592.09834 429.833202 
L 588.186622 429.833202 
L 587.813965 430.822265 
Q 590.340528 430.916015 591.702247 432.080859 
Q 592.822559 433.039452 592.822559 434.46914 
Q 592.822559 435.383202 592.302247 436.259765 
Q 591.781934 437.133984 590.837403 437.607421 
Q 589.892872 438.080859 588.765528 438.080859 
Q 587.549122 438.080859 586.897559 437.626171 
Q 586.442872 437.302734 586.442872 436.892577 
Q 586.442872 436.578515 586.67959 436.337109 
Q 586.918653 436.095702 587.235059 436.095702 
Q 587.520997 436.095702 587.813965 436.21289 
Q 588.106934 436.330077 588.81709 436.826952 
Q 589.262403 437.133984 589.58584 437.251171 
Q 589.813184 437.340234 590.099122 437.340234 
Q 590.699122 437.340234 591.118653 436.901952 
Q 591.540528 436.461327 591.540528 435.844921 
Q 591.540528 434.555859 590.251465 433.751952 
Q 588.962403 432.945702 587.000684 432.945702 
Q 586.801465 432.945702 586.407715 432.952734 
L 588.186622 427.941796 
z
" style="fill: #404040"/>
   </g>
   <g id="text_30">
    <path d="M 565.408643 414.599882 
L 568.11333 406.403788 
L 566.053174 406.403788 
Q 564.846143 406.403788 564.236768 406.71785 
Q 563.812549 406.938163 563.533643 407.545194 
L 563.25708 407.545194 
L 563.974268 404.460819 
L 569.892236 404.460819 
L 566.559424 414.599882 
L 565.408643 414.599882 
z
M 570.712549 414.599882 
L 570.712549 414.393632 
Q 571.928955 414.114725 572.775049 413.573319 
Q 573.621143 413.031913 574.11333 412.232694 
Q 574.607861 411.433475 574.80708 410.395194 
Q 574.352393 410.629569 574.033643 410.720975 
Q 573.714893 410.812382 573.36333 410.812382 
Q 572.235986 410.812382 571.483643 409.9991 
Q 570.733643 409.185819 570.733643 407.772538 
Q 570.733643 406.790507 571.139111 405.974882 
Q 571.546924 405.156913 572.301611 404.706913 
Q 573.056299 404.256913 573.86958 404.256913 
Q 574.741455 404.256913 575.517236 404.756132 
Q 576.293018 405.253007 576.754736 406.197538 
Q 577.216455 407.142069 577.216455 408.351444 
Q 577.216455 409.919413 576.464111 411.356132 
Q 575.714111 412.790507 574.228174 413.657694 
Q 572.742236 414.524882 570.712549 414.599882 
z
M 574.917236 409.778788 
Q 574.989893 408.958475 574.989893 408.337382 
Q 574.989893 407.003788 574.682861 405.853007 
Q 574.50708 405.215507 574.162549 404.915507 
Q 573.979736 404.753788 573.686768 404.753788 
Q 573.318799 404.753788 573.114893 405.070194 
Q 572.828955 405.501444 572.828955 406.71785 
Q 572.828955 408.747538 573.311768 409.516288 
Q 573.628174 410.013163 574.162549 410.013163 
Q 574.448486 410.013163 574.917236 409.778788 
z
M 579.62583 412.1366 
Q 580.139111 412.1366 580.493018 412.497538 
Q 580.849268 412.856132 580.849268 413.360038 
Q 580.849268 413.866288 580.490674 414.222538 
Q 580.13208 414.576444 579.62583 414.576444 
Q 579.11958 414.576444 578.76333 414.222538 
Q 578.409424 413.866288 578.409424 413.360038 
Q 578.409424 412.856132 578.76333 412.497538 
Q 579.11958 412.1366 579.62583 412.1366 
z
M 588.452393 409.427225 
Q 588.452393 410.915507 588.035205 412.204569 
Q 587.784424 412.994413 587.362549 413.500663 
Q 586.943018 414.004569 586.408643 414.302225 
Q 585.874268 414.599882 585.243799 414.599882 
Q 584.526611 414.599882 583.947705 414.234257 
Q 583.368799 413.866288 582.921143 413.184257 
Q 582.600049 412.687382 582.358643 411.860038 
Q 582.042236 410.739725 582.042236 409.544413 
Q 582.042236 407.927225 582.496924 406.570194 
Q 582.86958 405.449882 583.631299 404.854569 
Q 584.393018 404.256913 585.243799 404.256913 
Q 586.108643 404.256913 586.858643 404.847538 
Q 587.608643 405.435819 587.960205 406.431913 
Q 588.452393 407.800663 588.452393 409.427225 
z
M 586.195361 409.413163 
Q 586.195361 406.804569 586.167236 406.373319 
Q 586.092236 405.356132 585.815674 404.997538 
Q 585.632861 404.763163 585.222705 404.763163 
Q 584.906299 404.763163 584.723486 404.938944 
Q 584.451611 405.194413 584.355518 405.843632 
Q 584.261768 406.490507 584.261768 410.364725 
Q 584.261768 412.4741 584.409424 413.191288 
Q 584.51958 413.7116 584.723486 413.887382 
Q 584.929736 414.063163 585.264893 414.063163 
Q 585.632861 414.063163 585.815674 413.828788 
Q 586.122705 413.418632 586.167236 412.563163 
L 586.195361 409.413163 
z
" style="fill: #404040; stroke: #ffffff; stroke-width: 3.8"/>
    <path d="M 565.408643 414.599882 
L 568.11333 406.403788 
L 566.053174 406.403788 
Q 564.846143 406.403788 564.236768 406.71785 
Q 563.812549 406.938163 563.533643 407.545194 
L 563.25708 407.545194 
L 563.974268 404.460819 
L 569.892236 404.460819 
L 566.559424 414.599882 
L 565.408643 414.599882 
z
M 570.712549 414.599882 
L 570.712549 414.393632 
Q 571.928955 414.114725 572.775049 413.573319 
Q 573.621143 413.031913 574.11333 412.232694 
Q 574.607861 411.433475 574.80708 410.395194 
Q 574.352393 410.629569 574.033643 410.720975 
Q 573.714893 410.812382 573.36333 410.812382 
Q 572.235986 410.812382 571.483643 409.9991 
Q 570.733643 409.185819 570.733643 407.772538 
Q 570.733643 406.790507 571.139111 405.974882 
Q 571.546924 405.156913 572.301611 404.706913 
Q 573.056299 404.256913 573.86958 404.256913 
Q 574.741455 404.256913 575.517236 404.756132 
Q 576.293018 405.253007 576.754736 406.197538 
Q 577.216455 407.142069 577.216455 408.351444 
Q 577.216455 409.919413 576.464111 411.356132 
Q 575.714111 412.790507 574.228174 413.657694 
Q 572.742236 414.524882 570.712549 414.599882 
z
M 574.917236 409.778788 
Q 574.989893 408.958475 574.989893 408.337382 
Q 574.989893 407.003788 574.682861 405.853007 
Q 574.50708 405.215507 574.162549 404.915507 
Q 573.979736 404.753788 573.686768 404.753788 
Q 573.318799 404.753788 573.114893 405.070194 
Q 572.828955 405.501444 572.828955 406.71785 
Q 572.828955 408.747538 573.311768 409.516288 
Q 573.628174 410.013163 574.162549 410.013163 
Q 574.448486 410.013163 574.917236 409.778788 
z
M 579.62583 412.1366 
Q 580.139111 412.1366 580.493018 412.497538 
Q 580.849268 412.856132 580.849268 413.360038 
Q 580.849268 413.866288 580.490674 414.222538 
Q 580.13208 414.576444 579.62583 414.576444 
Q 579.11958 414.576444 578.76333 414.222538 
Q 578.409424 413.866288 578.409424 413.360038 
Q 578.409424 412.856132 578.76333 412.497538 
Q 579.11958 412.1366 579.62583 412.1366 
z
M 588.452393 409.427225 
Q 588.452393 410.915507 588.035205 412.204569 
Q 587.784424 412.994413 587.362549 413.500663 
Q 586.943018 414.004569 586.408643 414.302225 
Q 585.874268 414.599882 585.243799 414.599882 
Q 584.526611 414.599882 583.947705 414.234257 
Q 583.368799 413.866288 582.921143 413.184257 
Q 582.600049 412.687382 582.358643 411.860038 
Q 582.042236 410.739725 582.042236 409.544413 
Q 582.042236 407.927225 582.496924 406.570194 
Q 582.86958 405.449882 583.631299 404.854569 
Q 584.393018 404.256913 585.243799 404.256913 
Q 586.108643 404.256913 586.858643 404.847538 
Q 587.608643 405.435819 587.960205 406.431913 
Q 588.452393 407.800663 588.452393 409.427225 
z
M 586.195361 409.413163 
Q 586.195361 406.804569 586.167236 406.373319 
Q 586.092236 405.356132 585.815674 404.997538 
Q 585.632861 404.763163 585.222705 404.763163 
Q 584.906299 404.763163 584.723486 404.938944 
Q 584.451611 405.194413 584.355518 405.843632 
Q 584.261768 406.490507 584.261768 410.364725 
Q 584.261768 412.4741 584.409424 413.191288 
Q 584.51958 413.7116 584.723486 413.887382 
Q 584.929736 414.063163 585.264893 414.063163 
Q 585.632861 414.063163 585.815674 413.828788 
Q 586.122705 413.418632 586.167236 412.563163 
L 586.195361 409.413163 
z
" style="fill: #404040"/>
   </g>
   <g id="text_31">
    <path d="M 468.534619 335.229249 
L 468.534619 343.352687 
Q 468.534619 344.266749 468.614306 344.519874 
Q 468.696338 344.772999 468.951806 344.934718 
Q 469.209619 345.094093 469.774463 345.094093 
L 469.999463 345.094093 
L 469.999463 345.365968 
L 464.770556 345.365968 
L 464.770556 345.094093 
L 465.0354 345.094093 
Q 465.6729 345.094093 465.942431 344.94878 
Q 466.214306 344.801124 466.308056 344.545655 
Q 466.40415 344.290187 466.40415 343.352687 
L 466.40415 338.203468 
Q 466.40415 337.514405 466.338525 337.343312 
Q 466.2729 337.169874 466.092431 337.050343 
Q 465.914306 336.928468 465.679931 336.928468 
Q 465.304931 336.928468 464.770556 337.162843 
L 464.639306 336.897999 
L 468.293213 335.229249 
L 468.534619 335.229249 
z
M 475.209619 335.229249 
L 475.209619 343.352687 
Q 475.209619 344.266749 475.289306 344.519874 
Q 475.371338 344.772999 475.626806 344.934718 
Q 475.884619 345.094093 476.449463 345.094093 
L 476.674463 345.094093 
L 476.674463 345.365968 
L 471.445556 345.365968 
L 471.445556 345.094093 
L 471.7104 345.094093 
Q 472.3479 345.094093 472.617431 344.94878 
Q 472.889306 344.801124 472.983056 344.545655 
Q 473.07915 344.290187 473.07915 343.352687 
L 473.07915 338.203468 
Q 473.07915 337.514405 473.013525 337.343312 
Q 472.9479 337.169874 472.767431 337.050343 
Q 472.589306 336.928468 472.354931 336.928468 
Q 471.979931 336.928468 471.445556 337.162843 
L 471.314306 336.897999 
L 474.968213 335.229249 
L 475.209619 335.229249 
z
M 478.1979 341.622999 
L 482.915869 335.229249 
L 483.808838 335.229249 
L 483.808838 341.622999 
L 484.718213 341.622999 
L 484.718213 343.139405 
L 483.808838 343.139405 
L 483.808838 345.365968 
L 481.795556 345.365968 
L 481.795556 343.139405 
L 478.1979 343.139405 
L 478.1979 341.622999 
z
M 478.9104 341.622999 
L 481.795556 341.622999 
L 481.795556 337.704249 
L 478.9104 341.622999 
z
M 487.200244 343.108937 
Q 487.713525 343.108937 488.067431 343.469874 
Q 488.423681 343.828468 488.423681 344.332374 
Q 488.423681 344.838624 488.065088 345.194874 
Q 487.706494 345.54878 487.200244 345.54878 
Q 486.693994 345.54878 486.337744 345.194874 
Q 485.983838 344.838624 485.983838 344.332374 
Q 485.983838 343.828468 486.337744 343.469874 
Q 486.693994 343.108937 487.200244 343.108937 
z
M 489.4479 341.622999 
L 494.165869 335.229249 
L 495.058838 335.229249 
L 495.058838 341.622999 
L 495.968213 341.622999 
L 495.968213 343.139405 
L 495.058838 343.139405 
L 495.058838 345.365968 
L 493.045556 345.365968 
L 493.045556 343.139405 
L 489.4479 343.139405 
L 489.4479 341.622999 
z
M 490.1604 341.622999 
L 493.045556 341.622999 
L 493.045556 337.704249 
L 490.1604 341.622999 
z
" style="fill: #404040; stroke: #ffffff; stroke-width: 3.8"/>
    <path d="M 468.534619 335.229249 
L 468.534619 343.352687 
Q 468.534619 344.266749 468.614306 344.519874 
Q 468.696338 344.772999 468.951806 344.934718 
Q 469.209619 345.094093 469.774463 345.094093 
L 469.999463 345.094093 
L 469.999463 345.365968 
L 464.770556 345.365968 
L 464.770556 345.094093 
L 465.0354 345.094093 
Q 465.6729 345.094093 465.942431 344.94878 
Q 466.214306 344.801124 466.308056 344.545655 
Q 466.40415 344.290187 466.40415 343.352687 
L 466.40415 338.203468 
Q 466.40415 337.514405 466.338525 337.343312 
Q 466.2729 337.169874 466.092431 337.050343 
Q 465.914306 336.928468 465.679931 336.928468 
Q 465.304931 336.928468 464.770556 337.162843 
L 464.639306 336.897999 
L 468.293213 335.229249 
L 468.534619 335.229249 
z
M 475.209619 335.229249 
L 475.209619 343.352687 
Q 475.209619 344.266749 475.289306 344.519874 
Q 475.371338 344.772999 475.626806 344.934718 
Q 475.884619 345.094093 476.449463 345.094093 
L 476.674463 345.094093 
L 476.674463 345.365968 
L 471.445556 345.365968 
L 471.445556 345.094093 
L 471.7104 345.094093 
Q 472.3479 345.094093 472.617431 344.94878 
Q 472.889306 344.801124 472.983056 344.545655 
Q 473.07915 344.290187 473.07915 343.352687 
L 473.07915 338.203468 
Q 473.07915 337.514405 473.013525 337.343312 
Q 472.9479 337.169874 472.767431 337.050343 
Q 472.589306 336.928468 472.354931 336.928468 
Q 471.979931 336.928468 471.445556 337.162843 
L 471.314306 336.897999 
L 474.968213 335.229249 
L 475.209619 335.229249 
z
M 478.1979 341.622999 
L 482.915869 335.229249 
L 483.808838 335.229249 
L 483.808838 341.622999 
L 484.718213 341.622999 
L 484.718213 343.139405 
L 483.808838 343.139405 
L 483.808838 345.365968 
L 481.795556 345.365968 
L 481.795556 343.139405 
L 478.1979 343.139405 
L 478.1979 341.622999 
z
M 478.9104 341.622999 
L 481.795556 341.622999 
L 481.795556 337.704249 
L 478.9104 341.622999 
z
M 487.200244 343.108937 
Q 487.713525 343.108937 488.067431 343.469874 
Q 488.423681 343.828468 488.423681 344.332374 
Q 488.423681 344.838624 488.065088 345.194874 
Q 487.706494 345.54878 487.200244 345.54878 
Q 486.693994 345.54878 486.337744 345.194874 
Q 485.983838 344.838624 485.983838 344.332374 
Q 485.983838 343.828468 486.337744 343.469874 
Q 486.693994 343.108937 487.200244 343.108937 
z
M 489.4479 341.622999 
L 494.165869 335.229249 
L 495.058838 335.229249 
L 495.058838 341.622999 
L 495.968213 341.622999 
L 495.968213 343.139405 
L 495.058838 343.139405 
L 495.058838 345.365968 
L 493.045556 345.365968 
L 493.045556 343.139405 
L 489.4479 343.139405 
L 489.4479 341.622999 
z
M 490.1604 341.622999 
L 493.045556 341.622999 
L 493.045556 337.704249 
L 490.1604 341.622999 
z
" style="fill: #404040"/>
   </g>
   <g id="text_32">
    <path d="M 325.540961 383.328579 
L 325.540961 383.07311 
Q 326.375336 382.82936 326.696429 382.620767 
Q 327.019867 382.412173 327.254242 381.98561 
Q 327.488617 381.556704 327.488617 381.116079 
Q 327.488617 380.509048 327.045648 380.07311 
Q 326.602679 379.637173 325.944086 379.637173 
Q 324.917523 379.637173 324.200336 380.719985 
L 323.928461 380.626235 
Q 324.455804 379.402798 325.280804 378.788735 
Q 326.105804 378.172329 327.115961 378.172329 
Q 328.147211 378.172329 328.817523 378.802798 
Q 329.487836 379.430923 329.487836 380.274673 
Q 329.487836 380.82311 329.176117 381.334048 
Q 328.866742 381.842642 328.198773 382.22936 
Q 329.056586 382.646548 329.506586 383.258267 
Q 329.956586 383.869985 329.956586 384.793423 
Q 329.956586 386.344985 328.831586 387.434829 
Q 327.708929 388.522329 325.819867 388.522329 
Q 324.558929 388.522329 323.980023 388.102798 
Q 323.562836 387.809829 323.562836 387.350454 
Q 323.562836 387.012954 323.804242 386.776235 
Q 324.045648 386.537173 324.362054 386.537173 
Q 324.603461 386.537173 324.816742 386.637954 
Q 324.933929 386.696548 325.646429 387.280142 
Q 326.361273 387.861392 326.984711 387.861392 
Q 327.526117 387.861392 327.912836 387.434829 
Q 328.301898 387.005923 328.301898 386.344985 
Q 328.301898 385.34186 327.598773 384.495767 
Q 326.895648 383.649673 325.540961 383.328579 
z
M 332.696429 386.052017 
Q 333.209711 386.052017 333.563617 386.412954 
Q 333.919867 386.771548 333.919867 387.275454 
Q 333.919867 387.781704 333.561273 388.137954 
Q 333.202679 388.49186 332.696429 388.49186 
Q 332.190179 388.49186 331.833929 388.137954 
Q 331.480023 387.781704 331.480023 387.275454 
Q 331.480023 386.771548 331.833929 386.412954 
Q 332.190179 386.052017 332.696429 386.052017 
z
M 341.522992 383.342642 
Q 341.522992 384.830923 341.105804 386.119985 
Q 340.855023 386.909829 340.433148 387.416079 
Q 340.013617 387.919985 339.479242 388.217642 
Q 338.944867 388.515298 338.314398 388.515298 
Q 337.597211 388.515298 337.018304 388.149673 
Q 336.439398 387.781704 335.991742 387.099673 
Q 335.670648 386.602798 335.429242 385.775454 
Q 335.112836 384.655142 335.112836 383.459829 
Q 335.112836 381.842642 335.567523 380.48561 
Q 335.940179 379.365298 336.701898 378.769985 
Q 337.463617 378.172329 338.314398 378.172329 
Q 339.179242 378.172329 339.929242 378.762954 
Q 340.679242 379.351235 341.030804 380.347329 
Q 341.522992 381.716079 341.522992 383.342642 
z
M 339.265961 383.328579 
Q 339.265961 380.719985 339.237836 380.288735 
Q 339.162836 379.271548 338.886273 378.912954 
Q 338.703461 378.678579 338.293304 378.678579 
Q 337.976898 378.678579 337.794086 378.85436 
Q 337.522211 379.109829 337.426117 379.759048 
Q 337.332367 380.405923 337.332367 384.280142 
Q 337.332367 386.389517 337.480023 387.106704 
Q 337.590179 387.627017 337.794086 387.802798 
Q 338.000336 387.978579 338.335492 387.978579 
Q 338.703461 387.978579 338.886273 387.744204 
Q 339.193304 387.334048 339.237836 386.478579 
L 339.265961 383.328579 
z
" style="fill: #404040; stroke: #ffffff; stroke-width: 3.8"/>
    <path d="M 325.540961 383.328579 
L 325.540961 383.07311 
Q 326.375336 382.82936 326.696429 382.620767 
Q 327.019867 382.412173 327.254242 381.98561 
Q 327.488617 381.556704 327.488617 381.116079 
Q 327.488617 380.509048 327.045648 380.07311 
Q 326.602679 379.637173 325.944086 379.637173 
Q 324.917523 379.637173 324.200336 380.719985 
L 323.928461 380.626235 
Q 324.455804 379.402798 325.280804 378.788735 
Q 326.105804 378.172329 327.115961 378.172329 
Q 328.147211 378.172329 328.817523 378.802798 
Q 329.487836 379.430923 329.487836 380.274673 
Q 329.487836 380.82311 329.176117 381.334048 
Q 328.866742 381.842642 328.198773 382.22936 
Q 329.056586 382.646548 329.506586 383.258267 
Q 329.956586 383.869985 329.956586 384.793423 
Q 329.956586 386.344985 328.831586 387.434829 
Q 327.708929 388.522329 325.819867 388.522329 
Q 324.558929 388.522329 323.980023 388.102798 
Q 323.562836 387.809829 323.562836 387.350454 
Q 323.562836 387.012954 323.804242 386.776235 
Q 324.045648 386.537173 324.362054 386.537173 
Q 324.603461 386.537173 324.816742 386.637954 
Q 324.933929 386.696548 325.646429 387.280142 
Q 326.361273 387.861392 326.984711 387.861392 
Q 327.526117 387.861392 327.912836 387.434829 
Q 328.301898 387.005923 328.301898 386.344985 
Q 328.301898 385.34186 327.598773 384.495767 
Q 326.895648 383.649673 325.540961 383.328579 
z
M 332.696429 386.052017 
Q 333.209711 386.052017 333.563617 386.412954 
Q 333.919867 386.771548 333.919867 387.275454 
Q 333.919867 387.781704 333.561273 388.137954 
Q 333.202679 388.49186 332.696429 388.49186 
Q 332.190179 388.49186 331.833929 388.137954 
Q 331.480023 387.781704 331.480023 387.275454 
Q 331.480023 386.771548 331.833929 386.412954 
Q 332.190179 386.052017 332.696429 386.052017 
z
M 341.522992 383.342642 
Q 341.522992 384.830923 341.105804 386.119985 
Q 340.855023 386.909829 340.433148 387.416079 
Q 340.013617 387.919985 339.479242 388.217642 
Q 338.944867 388.515298 338.314398 388.515298 
Q 337.597211 388.515298 337.018304 388.149673 
Q 336.439398 387.781704 335.991742 387.099673 
Q 335.670648 386.602798 335.429242 385.775454 
Q 335.112836 384.655142 335.112836 383.459829 
Q 335.112836 381.842642 335.567523 380.48561 
Q 335.940179 379.365298 336.701898 378.769985 
Q 337.463617 378.172329 338.314398 378.172329 
Q 339.179242 378.172329 339.929242 378.762954 
Q 340.679242 379.351235 341.030804 380.347329 
Q 341.522992 381.716079 341.522992 383.342642 
z
M 339.265961 383.328579 
Q 339.265961 380.719985 339.237836 380.288735 
Q 339.162836 379.271548 338.886273 378.912954 
Q 338.703461 378.678579 338.293304 378.678579 
Q 337.976898 378.678579 337.794086 378.85436 
Q 337.522211 379.109829 337.426117 379.759048 
Q 337.332367 380.405923 337.332367 384.280142 
Q 337.332367 386.389517 337.480023 387.106704 
Q 337.590179 387.627017 337.794086 387.802798 
Q 338.000336 387.978579 338.335492 387.978579 
Q 338.703461 387.978579 338.886273 387.744204 
Q 339.193304 387.334048 339.237836 386.478579 
L 339.265961 383.328579 
z
" style="fill: #404040"/>
   </g>
  </g>
 </g>
 <defs>
  <clipPath id="pcc00ddf27e">
   <rect x="7.2" y="51.034687" width="730.764" height="436.009412"/>
  </clipPath>
 </defs>
</svg>
