<?xml version="1.0" encoding="utf-8" standalone="no"?>
<!DOCTYPE svg PUBLIC "-//W3C//DTD SVG 1.1//EN"
  "http://www.w3.org/Graphics/SVG/1.1/DTD/svg11.dtd">
<svg xmlns:xlink="http://www.w3.org/1999/xlink" width="745.164pt" height="496.714687pt" viewBox="0 0 745.164 496.714687" xmlns="http://www.w3.org/2000/svg" version="1.1">
 <metadata>
  <rdf:RDF xmlns:dc="http://purl.org/dc/elements/1.1/" xmlns:cc="http://creativecommons.org/ns#" xmlns:rdf="http://www.w3.org/1999/02/22-rdf-syntax-ns#">
   <cc:Work>
    <dc:type rdf:resource="http://purl.org/dc/dcmitype/StillImage"/>
    <dc:date>2026-07-13T16:58:52.372278</dc:date>
    <dc:format>image/svg+xml</dc:format>
    <dc:creator>
     <cc:Agent>
      <dc:title>Matplotlib v3.10.8, https://matplotlib.org/</dc:title>
     </cc:Agent>
    </dc:creator>
   </cc:Work>
  </rdf:RDF>
 </metadata>
 <defs>
  <style type="text/css">*{stroke-linejoin: round; stroke-linecap: butt}</style>
 </defs>
 <g id="figure_1">
  <g id="patch_1">
   <path d="M 0 496.714687 
L 745.164 496.714687 
L 745.164 0 
L 0 0 
L 0 496.714687 
z
" style="fill: none"/>
  </g>
  <g id="axes_1">
   <g id="patch_2">
    <path d="M 120.350555 447.148894 
Q 120.350555 458.747528 120.350555 467.153527 
" clip-path="url(#p54a36d2fee)" style="fill: none; stroke: #111111; stroke-width: 2.85558; stroke-linejoin: miter; stroke-linecap: round"/>
    <path d="M 124.20834 459.437956 
L 120.350555 467.153527 
L 116.492769 459.437956 
z
" clip-path="url(#p54a36d2fee)" style="fill: #111111; stroke: #111111; stroke-width: 2.85558; stroke-linejoin: miter; stroke-linecap: round"/>
   </g>
   <g id="patch_3">
    <path d="M 120.350555 365.647801 
Q 120.350555 383.777811 120.350555 397.286261 
" clip-path="url(#p54a36d2fee)" style="fill: none; stroke: #111111; stroke-width: 4.133649; stroke-linejoin: miter; stroke-linecap: round"/>
    <path d="M 124.617323 388.752725 
L 120.350555 397.286261 
L 116.083787 388.752725 
z
" clip-path="url(#p54a36d2fee)" style="fill: #111111; stroke: #111111; stroke-width: 4.133649; stroke-linejoin: miter; stroke-linecap: round"/>
   </g>
   <g id="patch_4">
    <path d="M 120.350555 261.088531 
Q 120.350555 284.216255 120.350555 301.453761 
" clip-path="url(#p54a36d2fee)" style="fill: none; stroke: #111111; stroke-width: 5.268371; stroke-linejoin: miter; stroke-linecap: round"/>
    <path d="M 124.980433 292.194004 
L 120.350555 301.453761 
L 115.720676 292.194004 
z
" clip-path="url(#p54a36d2fee)" style="fill: #111111; stroke: #111111; stroke-width: 5.268371; stroke-linejoin: miter; stroke-linecap: round"/>
   </g>
   <g id="patch_5">
    <path d="M 370.224697 205.404327 
Q 370.224697 229.809812 370.224697 251.266575 
" clip-path="url(#p54a36d2fee)" style="fill: none; stroke: #111111; stroke-width: 2.637417; stroke-linejoin: miter; stroke-linecap: round"/>
    <path d="M 374.01267 243.690628 
L 370.224697 251.266575 
L 366.436723 243.690628 
z
" clip-path="url(#p54a36d2fee)" style="fill: #111111; stroke: #111111; stroke-width: 2.637417; stroke-linejoin: miter; stroke-linecap: round"/>
   </g>
   <g id="patch_6">
    <path d="M 586.153672 274.701059 
Q 586.153672 296.77655 586.153672 314.657505 
" clip-path="url(#p54a36d2fee)" style="fill: none; stroke: #111111; stroke-width: 3.751707; stroke-linejoin: miter; stroke-linecap: round"/>
    <path d="M 590.298219 306.368413 
L 586.153672 314.657505 
L 582.009126 306.368413 
z
" clip-path="url(#p54a36d2fee)" style="fill: #111111; stroke: #111111; stroke-width: 3.751707; stroke-linejoin: miter; stroke-linecap: round"/>
   </g>
   <g id="line2d_1">
    <path d="M 165.610777 470.346163 
L 550.322663 470.346163 
" clip-path="url(#p54a36d2fee)" style="fill: none; stroke-dasharray: 5.6,4.2; stroke-dashoffset: 0; stroke: #404040; stroke-width: 1.4"/>
   </g>
   <g id="line2d_2">
    <path d="M 165.610777 401.907821 
L 550.322663 401.907821 
" clip-path="url(#p54a36d2fee)" style="fill: none; stroke-dasharray: 5.6,4.2; stroke-dashoffset: 0; stroke: #404040; stroke-width: 1.4"/>
   </g>
   <g id="line2d_3">
    <path d="M 574.838617 318.852042 
L 503.176599 318.852042 
" clip-path="url(#p54a36d2fee)" style="fill: none; stroke-dasharray: 5.6,4.2; stroke-dashoffset: 0; stroke: #404040; stroke-width: 1.4"/>
   </g>
   <g id="patch_7">
    <path d="M 665.359061 318.852042 
Q 586.883257 392.545231 509.155575 465.535891 
" clip-path="url(#p54a36d2fee)" style="fill: none; stroke: #404040; stroke-width: 0.917925; stroke-linejoin: miter; stroke-linecap: round"/>
    <path d="M 515.238755 463.718398 
L 509.155575 465.535891 
L 511.351488 459.578851 
z
" clip-path="url(#p54a36d2fee)" style="fill: #404040; stroke: #404040; stroke-width: 0.917925; stroke-linejoin: miter; stroke-linecap: round"/>
   </g>
   <g id="patch_8">
    <path d="M 620.098839 318.852042 
Q 578.063498 358.325589 539.055303 394.956475 
" clip-path="url(#p54a36d2fee)" style="fill: none; stroke: #404040; stroke-width: 3.714224; stroke-linejoin: miter; stroke-linecap: round"/>
    <path d="M 547.135494 392.542328 
L 539.055303 394.956475 
L 541.972099 387.043834 
z
" clip-path="url(#p54a36d2fee)" style="fill: #404040; stroke: #404040; stroke-width: 3.714224; stroke-linejoin: miter; stroke-linecap: round"/>
   </g>
   <g id="patch_9">
    <path d="M 415.484919 254.215298 
Q 477.428464 285.191345 534.372148 313.667116 
" clip-path="url(#p54a36d2fee)" style="fill: none; stroke: #404040; stroke-width: 5; stroke-linejoin: miter; stroke-linecap: round"/>
    <path d="M 528.737672 306.153616 
L 534.372148 313.667116 
L 524.980663 313.666597 
z
" clip-path="url(#p54a36d2fee)" style="fill: #404040; stroke: #404040; stroke-width: 5; stroke-linejoin: miter; stroke-linecap: round"/>
   </g>
   <g id="patch_10">
    <path d="M 370.224697 254.215298 
Q 334.055294 325.387652 298.29159 395.761694 
" clip-path="url(#p54a36d2fee)" style="fill: none; stroke: #404040; stroke-width: 0.800946; stroke-linejoin: miter; stroke-linecap: round"/>
    <path d="M 303.325388 392.037489 
L 298.29159 395.761694 
L 298.332505 389.500132 
z
" clip-path="url(#p54a36d2fee)" style="fill: #404040; stroke: #404040; stroke-width: 0.800946; stroke-linejoin: miter; stroke-linecap: round"/>
   </g>
   <g id="line2d_4">
    <path d="M 120.350555 401.907821 
L 120.350555 425.10509 
" clip-path="url(#p54a36d2fee)" style="fill: none; stroke: #111111; stroke-width: 2.85558"/>
   </g>
   <g id="line2d_5">
    <path d="M 120.350555 307.343978 
L 120.350555 343.603998 
" clip-path="url(#p54a36d2fee)" style="fill: none; stroke: #111111; stroke-width: 4.133649"/>
   </g>
   <g id="line2d_6">
    <path d="M 120.350555 192.789281 
L 120.350555 239.044728 
" clip-path="url(#p54a36d2fee)" style="fill: none; stroke: #111111; stroke-width: 5.268371"/>
   </g>
   <g id="line2d_7">
    <path d="M 370.224697 134.549553 
L 370.224697 183.360524 
" clip-path="url(#p54a36d2fee)" style="fill: none; stroke: #111111; stroke-width: 2.637417"/>
   </g>
   <g id="line2d_8">
    <path d="M 586.153672 208.506273 
L 586.153672 252.657256 
" clip-path="url(#p54a36d2fee)" style="fill: none; stroke: #111111; stroke-width: 3.751707"/>
   </g>
   <g id="line2d_9">
    <path d="M 75.090333 470.346163 
L 165.610777 470.346163 
" clip-path="url(#p54a36d2fee)" style="fill: none; stroke: #111111; stroke-width: 3.6; stroke-linecap: round"/>
   </g>
   <g id="line2d_10">
    <path d="M 75.090333 401.907821 
L 165.610777 401.907821 
" clip-path="url(#p54a36d2fee)" style="fill: none; stroke: #111111; stroke-width: 3.6; stroke-linecap: round"/>
   </g>
   <g id="line2d_11">
    <path d="M 75.090333 307.343978 
L 165.610777 307.343978 
" clip-path="url(#p54a36d2fee)" style="fill: none; stroke: #111111; stroke-width: 3.6; stroke-linecap: round"/>
   </g>
   <g id="line2d_12">
    <path d="M 75.090333 192.789281 
L 165.610777 192.789281 
" clip-path="url(#p54a36d2fee)" style="fill: none; stroke: #111111; stroke-width: 3.6; stroke-linecap: round"/>
   </g>
   <g id="line2d_13">
    <path d="M 324.964475 254.215298 
L 415.484919 254.215298 
" clip-path="url(#p54a36d2fee)" style="fill: none; stroke: #111111; stroke-width: 3.6; stroke-linecap: round"/>
   </g>
   <g id="line2d_14">
    <path d="M 324.964475 134.549553 
L 415.484919 134.549553 
" clip-path="url(#p54a36d2fee)" style="fill: none; stroke: #111111; stroke-width: 3.6; stroke-linecap: round"/>
   </g>
   <g id="line2d_15">
    <path d="M 574.838617 318.852042 
L 665.359061 318.852042 
" clip-path="url(#p54a36d2fee)" style="fill: none; stroke: #111111; stroke-width: 3.6; stroke-linecap: round"/>
   </g>
   <g id="line2d_16">
    <path d="M 574.838617 208.506273 
L 665.359061 208.506273 
" clip-path="url(#p54a36d2fee)" style="fill: none; stroke: #111111; stroke-width: 3.6; stroke-linecap: round"/>
   </g>
   <g id="text_1">
    <!-- $^{328}\mathrm{Pu}$ -->
    <g transform="translate(328.212 33.034687) scale(0.34 -0.34)">
     <defs>
      <path id="DejaVuSans-33" d="M 2597 2516 
Q 3050 2419 3304 2112 
Q 3559 1806 3559 1356 
Q 3559 666 3084 287 
Q 2609 -91 1734 -91 
Q 1441 -91 1130 -33 
Q 819 25 488 141 
L 488 750 
Q 750 597 1062 519 
Q 1375 441 1716 441 
Q 2309 441 2620 675 
Q 2931 909 2931 1356 
Q 2931 1769 2642 2001 
Q 2353 2234 1838 2234 
L 1294 2234 
L 1294 2753 
L 1863 2753 
Q 2328 2753 2575 2939 
Q 2822 3125 2822 3475 
Q 2822 3834 2567 4026 
Q 2313 4219 1838 4219 
Q 1578 4219 1281 4162 
Q 984 4106 628 3988 
L 628 4550 
Q 988 4650 1302 4700 
Q 1616 4750 1894 4750 
Q 2613 4750 3031 4423 
Q 3450 4097 3450 3541 
Q 3450 3153 3228 2886 
Q 3006 2619 2597 2516 
z
" transform="scale(0.015625)"/>
      <path id="DejaVuSans-32" d="M 1228 531 
L 3431 531 
L 3431 0 
L 469 0 
L 469 531 
Q 828 903 1448 1529 
Q 2069 2156 2228 2338 
Q 2531 2678 2651 2914 
Q 2772 3150 2772 3378 
Q 2772 3750 2511 3984 
Q 2250 4219 1831 4219 
Q 1534 4219 1204 4116 
Q 875 4013 500 3803 
L 500 4441 
Q 881 4594 1212 4672 
Q 1544 4750 1819 4750 
Q 2544 4750 2975 4387 
Q 3406 4025 3406 3419 
Q 3406 3131 3298 2873 
Q 3191 2616 2906 2266 
Q 2828 2175 2409 1742 
Q 1991 1309 1228 531 
z
" transform="scale(0.015625)"/>
      <path id="DejaVuSans-38" d="M 2034 2216 
Q 1584 2216 1326 1975 
Q 1069 1734 1069 1313 
Q 1069 891 1326 650 
Q 1584 409 2034 409 
Q 2484 409 2743 651 
Q 3003 894 3003 1313 
Q 3003 1734 2745 1975 
Q 2488 2216 2034 2216 
z
M 1403 2484 
Q 997 2584 770 2862 
Q 544 3141 544 3541 
Q 544 4100 942 4425 
Q 1341 4750 2034 4750 
Q 2731 4750 3128 4425 
Q 3525 4100 3525 3541 
Q 3525 3141 3298 2862 
Q 3072 2584 2669 2484 
Q 3125 2378 3379 2068 
Q 3634 1759 3634 1313 
Q 3634 634 3220 271 
Q 2806 -91 2034 -91 
Q 1263 -91 848 271 
Q 434 634 434 1313 
Q 434 1759 690 2068 
Q 947 2378 1403 2484 
z
M 1172 3481 
Q 1172 3119 1398 2916 
Q 1625 2713 2034 2713 
Q 2441 2713 2670 2916 
Q 2900 3119 2900 3481 
Q 2900 3844 2670 4047 
Q 2441 4250 2034 4250 
Q 1625 4250 1398 4047 
Q 1172 3844 1172 3481 
z
" transform="scale(0.015625)"/>
      <path id="DejaVuSans-50" d="M 1259 4147 
L 1259 2394 
L 2053 2394 
Q 2494 2394 2734 2622 
Q 2975 2850 2975 3272 
Q 2975 3691 2734 3919 
Q 2494 4147 2053 4147 
L 1259 4147 
z
M 628 4666 
L 2053 4666 
Q 2838 4666 3239 4311 
Q 3641 3956 3641 3272 
Q 3641 2581 3239 2228 
Q 2838 1875 2053 1875 
L 1259 1875 
L 1259 0 
L 628 0 
L 628 4666 
z
" transform="scale(0.015625)"/>
      <path id="DejaVuSans-75" d="M 544 1381 
L 544 3500 
L 1119 3500 
L 1119 1403 
Q 1119 906 1312 657 
Q 1506 409 1894 409 
Q 2359 409 2629 706 
Q 2900 1003 2900 1516 
L 2900 3500 
L 3475 3500 
L 3475 0 
L 2900 0 
L 2900 538 
Q 2691 219 2414 64 
Q 2138 -91 1772 -91 
Q 1169 -91 856 284 
Q 544 659 544 1381 
z
M 1991 3584 
L 1991 3584 
z
" transform="scale(0.015625)"/>
     </defs>
     <use xlink:href="#DejaVuSans-33" transform="translate(0.957031 39.046875) scale(0.7)"/>
     <use xlink:href="#DejaVuSans-32" transform="translate(45.493164 39.046875) scale(0.7)"/>
     <use xlink:href="#DejaVuSans-38" transform="translate(90.029297 39.046875) scale(0.7)"/>
     <use xlink:href="#DejaVuSans-50" transform="translate(137.299805 0.765625)"/>
     <use xlink:href="#DejaVuSans-75" transform="translate(197.602539 0.765625)"/>
    </g>
   </g>
   <g id="text_2">
    <!-- 0 -->
    <g transform="translate(46.98525 474.761163) scale(0.16 -0.16)">
     <defs>
      <path id="DejaVuSans-BoldOblique-30" d="M 1913 728 
Q 2153 728 2339 872 
Q 2525 1016 2650 1294 
Q 2738 1491 2809 1742 
Q 2881 1994 2944 2338 
Q 2997 2616 3025 2850 
Q 3053 3084 3053 3250 
Q 3053 3600 2928 3764 
Q 2803 3928 2541 3928 
Q 2297 3928 2112 3789 
Q 1928 3650 1806 3366 
Q 1713 3163 1636 2903 
Q 1559 2644 1503 2338 
Q 1450 2056 1422 1815 
Q 1394 1575 1394 1409 
Q 1394 1063 1522 895 
Q 1650 728 1913 728 
z
M 4225 3072 
Q 4225 2450 4053 1862 
Q 3881 1275 3572 831 
Q 3256 375 2809 142 
Q 2363 -91 1813 -91 
Q 1047 -91 639 343 
Q 231 778 231 1594 
Q 231 2206 401 2795 
Q 572 3384 878 3822 
Q 1200 4281 1644 4515 
Q 2088 4750 2644 4750 
Q 3403 4750 3814 4314 
Q 4225 3878 4225 3072 
z
" transform="scale(0.015625)"/>
     </defs>
     <use xlink:href="#DejaVuSans-BoldOblique-30"/>
    </g>
   </g>
   <g id="text_3">
    <!-- 0⁺ -->
    <g transform="translate(182.58336 475.501397) scale(0.23 -0.23)">
     <defs>
      <path id="TimesNewRomanPS-BoldMT-30" d="M 2966 2119 
Q 2966 1484 2788 934 
Q 2681 597 2501 381 
Q 2322 166 2094 39 
Q 1866 -88 1597 -88 
Q 1291 -88 1044 68 
Q 797 225 606 516 
Q 469 728 366 1081 
Q 231 1559 231 2069 
Q 231 2759 425 3338 
Q 584 3816 909 4070 
Q 1234 4325 1597 4325 
Q 1966 4325 2286 4073 
Q 2606 3822 2756 3397 
Q 2966 2813 2966 2119 
z
M 2003 2125 
Q 2003 3238 1991 3422 
Q 1959 3856 1841 4009 
Q 1763 4109 1588 4109 
Q 1453 4109 1375 4034 
Q 1259 3925 1218 3648 
Q 1178 3372 1178 1719 
Q 1178 819 1241 513 
Q 1288 291 1375 216 
Q 1463 141 1606 141 
Q 1763 141 1841 241 
Q 1972 416 1991 781 
L 2003 2125 
z
" transform="scale(0.015625)"/>
      <path id="DejaVuSerif-Bold-207a" d="M 1916 4344 
L 1916 3441 
L 2950 3441 
L 2950 3044 
L 1916 3044 
L 1916 2141 
L 1463 2141 
L 1463 3044 
L 428 3044 
L 428 3441 
L 1463 3441 
L 1463 4344 
L 1916 4344 
z
" transform="scale(0.015625)"/>
     </defs>
     <use xlink:href="#TimesNewRomanPS-BoldMT-30"/>
     <use xlink:href="#DejaVuSerif-Bold-207a" transform="translate(50 0)"/>
    </g>
   </g>
   <g id="text_4">
    <!-- 286 -->
    <g transform="translate(24.72025 406.322821) scale(0.16 -0.16)">
     <defs>
      <path id="DejaVuSans-BoldOblique-32" d="M 1581 884 
L 3609 884 
L 3438 0 
L 50 0 
L 225 891 
L 2209 2388 
Q 2534 2638 2704 2894 
Q 2875 3150 2875 3391 
Q 2875 3647 2700 3787 
Q 2525 3928 2209 3928 
Q 1913 3928 1547 3811 
Q 1181 3694 722 3450 
L 922 4441 
Q 1347 4597 1756 4673 
Q 2166 4750 2566 4750 
Q 3278 4750 3687 4442 
Q 4097 4134 4097 3603 
Q 4097 3147 3847 2772 
Q 3597 2397 2747 1759 
L 1581 884 
z
" transform="scale(0.015625)"/>
      <path id="DejaVuSans-BoldOblique-38" d="M 2150 2088 
Q 1784 2088 1539 1839 
Q 1294 1591 1294 1228 
Q 1294 969 1453 817 
Q 1613 666 1888 666 
Q 2259 666 2503 911 
Q 2747 1156 2747 1522 
Q 2747 1781 2586 1934 
Q 2425 2088 2150 2088 
z
M 1381 2484 
Q 1044 2625 876 2850 
Q 709 3075 709 3391 
Q 709 4025 1229 4387 
Q 1750 4750 2669 4750 
Q 3406 4750 3812 4475 
Q 4219 4200 4219 3700 
Q 4219 3256 3936 2940 
Q 3653 2625 3128 2484 
Q 3509 2338 3690 2091 
Q 3872 1844 3872 1466 
Q 3872 747 3311 328 
Q 2750 -91 1772 -91 
Q 1000 -91 570 217 
Q 141 525 141 1075 
Q 141 1572 470 1945 
Q 800 2319 1381 2484 
z
M 2559 3994 
Q 2241 3994 2048 3808 
Q 1856 3622 1856 3316 
Q 1856 3103 1995 2972 
Q 2134 2841 2363 2841 
Q 2681 2841 2873 3027 
Q 3066 3213 3066 3519 
Q 3066 3734 2927 3864 
Q 2788 3994 2559 3994 
z
" transform="scale(0.015625)"/>
      <path id="DejaVuSans-BoldOblique-36" d="M 2316 2303 
Q 1959 2303 1731 2009 
Q 1503 1716 1503 1253 
Q 1503 975 1643 820 
Q 1784 666 2034 666 
Q 2388 666 2617 955 
Q 2847 1244 2847 1684 
Q 2847 1984 2709 2143 
Q 2572 2303 2316 2303 
z
M 4225 4544 
L 4056 3681 
Q 3788 3819 3534 3887 
Q 3281 3956 3028 3956 
Q 2447 3956 2087 3643 
Q 1728 3331 1650 2766 
Q 1894 2925 2151 3001 
Q 2409 3078 2700 3078 
Q 3275 3078 3640 2737 
Q 4006 2397 4006 1869 
Q 4006 1006 3442 454 
Q 2878 -97 1991 -97 
Q 1194 -97 756 354 
Q 319 806 319 1631 
Q 319 2269 512 2848 
Q 706 3428 1056 3847 
Q 1431 4294 1942 4519 
Q 2453 4744 3091 4744 
Q 3384 4744 3662 4694 
Q 3941 4644 4225 4544 
z
" transform="scale(0.015625)"/>
     </defs>
     <use xlink:href="#DejaVuSans-BoldOblique-32"/>
     <use xlink:href="#DejaVuSans-BoldOblique-38" transform="translate(69.580078 0)"/>
     <use xlink:href="#DejaVuSans-BoldOblique-36" transform="translate(139.160156 0)"/>
    </g>
   </g>
   <g id="text_5">
    <!-- 2⁺ -->
    <g transform="translate(182.58336 407.063056) scale(0.23 -0.23)">
     <defs>
      <path id="TimesNewRomanPS-BoldMT-32" d="M 2650 0 
L 156 0 
L 156 69 
Q 1303 1434 1548 1906 
Q 1794 2378 1794 2828 
Q 1794 3156 1591 3373 
Q 1388 3591 1094 3591 
Q 613 3591 347 3109 
L 231 3150 
Q 400 3750 744 4037 
Q 1088 4325 1538 4325 
Q 1859 4325 2125 4175 
Q 2391 4025 2541 3764 
Q 2691 3503 2691 3275 
Q 2691 2859 2459 2431 
Q 2144 1853 1081 819 
L 1997 819 
Q 2334 819 2436 847 
Q 2538 875 2603 942 
Q 2669 1009 2775 1225 
L 2888 1225 
L 2650 0 
z
" transform="scale(0.015625)"/>
     </defs>
     <use xlink:href="#TimesNewRomanPS-BoldMT-32"/>
     <use xlink:href="#DejaVuSerif-Bold-207a" transform="translate(50 0)"/>
    </g>
   </g>
   <g id="text_6">
    <!-- 680 -->
    <g transform="translate(24.72025 311.758978) scale(0.16 -0.16)">
     <use xlink:href="#DejaVuSans-BoldOblique-36"/>
     <use xlink:href="#DejaVuSans-BoldOblique-38" transform="translate(69.580078 0)"/>
     <use xlink:href="#DejaVuSans-BoldOblique-30" transform="translate(139.160156 0)"/>
    </g>
   </g>
   <g id="text_7">
    <!-- 4⁺ -->
    <g transform="translate(182.58336 312.499213) scale(0.23 -0.23)">
     <defs>
      <path id="TimesNewRomanPS-BoldMT-34" d="M 159 1597 
L 2172 4325 
L 2553 4325 
L 2553 1597 
L 2941 1597 
L 2941 950 
L 2553 950 
L 2553 0 
L 1694 0 
L 1694 950 
L 159 950 
L 159 1597 
z
M 463 1597 
L 1694 1597 
L 1694 3269 
L 463 1597 
z
" transform="scale(0.015625)"/>
     </defs>
     <use xlink:href="#TimesNewRomanPS-BoldMT-34"/>
     <use xlink:href="#DejaVuSerif-Bold-207a" transform="translate(50 0)"/>
    </g>
   </g>
   <g id="text_8">
    <!-- 1158 -->
    <g transform="translate(13.58775 197.204281) scale(0.16 -0.16)">
     <defs>
      <path id="DejaVuSans-BoldOblique-31" d="M 441 831 
L 1503 831 
L 2088 3847 
L 953 3622 
L 1113 4441 
L 2241 4666 
L 3384 4666 
L 2644 831 
L 3700 831 
L 3541 0 
L 275 0 
L 441 831 
z
" transform="scale(0.015625)"/>
      <path id="DejaVuSans-BoldOblique-35" d="M 1131 4666 
L 4122 4666 
L 3950 3781 
L 1919 3781 
L 1778 3059 
Q 1916 3097 2064 3117 
Q 2213 3138 2363 3138 
Q 3078 3138 3481 2811 
Q 3884 2484 3884 1906 
Q 3884 988 3262 448 
Q 2641 -91 1575 -91 
Q 1184 -91 815 -14 
Q 447 63 84 219 
L 269 1166 
Q 616 941 942 834 
Q 1269 728 1606 728 
Q 2100 728 2397 986 
Q 2694 1244 2694 1663 
Q 2694 1963 2469 2139 
Q 2244 2316 1856 2316 
Q 1594 2316 1289 2248 
Q 984 2181 622 2041 
L 1131 4666 
z
" transform="scale(0.015625)"/>
     </defs>
     <use xlink:href="#DejaVuSans-BoldOblique-31"/>
     <use xlink:href="#DejaVuSans-BoldOblique-31" transform="translate(69.580078 0)"/>
     <use xlink:href="#DejaVuSans-BoldOblique-35" transform="translate(139.160156 0)"/>
     <use xlink:href="#DejaVuSans-BoldOblique-38" transform="translate(208.740234 0)"/>
    </g>
   </g>
   <g id="text_9">
    <!-- 6⁺ -->
    <g transform="translate(182.58336 197.944516) scale(0.23 -0.23)">
     <defs>
      <path id="TimesNewRomanPS-BoldMT-36" d="M 3006 4325 
L 3006 4238 
Q 2441 4094 2098 3867 
Q 1756 3641 1557 3317 
Q 1359 2994 1250 2516 
Q 1388 2609 1478 2638 
Q 1681 2700 1888 2700 
Q 2363 2700 2680 2354 
Q 2997 2009 2997 1413 
Q 2997 994 2825 644 
Q 2653 294 2337 103 
Q 2022 -88 1663 -88 
Q 1272 -88 940 126 
Q 609 341 423 753 
Q 238 1166 238 1650 
Q 238 2363 580 2977 
Q 922 3591 1551 3955 
Q 2181 4319 3006 4325 
z
M 1209 2263 
Q 1184 1831 1184 1631 
Q 1184 1200 1267 797 
Q 1350 394 1494 231 
Q 1597 116 1738 116 
Q 1881 116 1993 283 
Q 2106 450 2106 963 
Q 2106 1825 1897 2153 
Q 1763 2366 1534 2366 
Q 1409 2366 1209 2263 
z
" transform="scale(0.015625)"/>
     </defs>
     <use xlink:href="#TimesNewRomanPS-BoldMT-36"/>
     <use xlink:href="#DejaVuSerif-Bold-207a" transform="translate(50 0)"/>
    </g>
   </g>
   <g id="text_10">
    <!-- 902 -->
    <g transform="translate(274.594392 258.630298) scale(0.16 -0.16)">
     <defs>
      <path id="DejaVuSans-BoldOblique-39" d="M 263 103 
L 428 966 
Q 700 825 953 758 
Q 1206 691 1459 691 
Q 2041 691 2400 1003 
Q 2759 1316 2834 1881 
Q 2594 1722 2337 1645 
Q 2081 1569 1791 1569 
Q 1219 1569 853 1909 
Q 488 2250 488 2778 
Q 488 3641 1052 4192 
Q 1616 4744 2503 4744 
Q 3300 4744 3736 4292 
Q 4172 3841 4172 3016 
Q 4172 2381 3978 1801 
Q 3784 1222 3431 800 
Q 3056 353 2548 128 
Q 2041 -97 1403 -97 
Q 1106 -97 825 -47 
Q 544 3 263 103 
z
M 2169 2344 
Q 2525 2344 2753 2637 
Q 2981 2931 2981 3391 
Q 2981 3675 2845 3828 
Q 2709 3981 2456 3981 
Q 2103 3981 1870 3690 
Q 1638 3400 1638 2963 
Q 1638 2663 1775 2503 
Q 1913 2344 2169 2344 
z
" transform="scale(0.015625)"/>
     </defs>
     <use xlink:href="#DejaVuSans-BoldOblique-39"/>
     <use xlink:href="#DejaVuSans-BoldOblique-30" transform="translate(69.580078 0)"/>
     <use xlink:href="#DejaVuSans-BoldOblique-32" transform="translate(139.160156 0)"/>
    </g>
   </g>
   <g id="text_11">
    <!-- 0⁺ -->
    <g transform="translate(432.457502 259.370532) scale(0.23 -0.23)">
     <use xlink:href="#TimesNewRomanPS-BoldMT-30"/>
     <use xlink:href="#DejaVuSerif-Bold-207a" transform="translate(50 0)"/>
    </g>
   </g>
   <g id="text_12">
    <!-- 1401 -->
    <g transform="translate(263.461892 138.964553) scale(0.16 -0.16)">
     <defs>
      <path id="DejaVuSans-BoldOblique-34" d="M 2638 3641 
L 978 1722 
L 2259 1722 
L 2638 3641 
z
M 2606 4666 
L 3975 4666 
L 3397 1722 
L 4063 1722 
L 3897 850 
L 3231 850 
L 3066 0 
L 1925 0 
L 2094 850 
L -6 850 
L 197 1881 
L 2606 4666 
z
" transform="scale(0.015625)"/>
     </defs>
     <use xlink:href="#DejaVuSans-BoldOblique-31"/>
     <use xlink:href="#DejaVuSans-BoldOblique-34" transform="translate(69.580078 0)"/>
     <use xlink:href="#DejaVuSans-BoldOblique-30" transform="translate(139.160156 0)"/>
     <use xlink:href="#DejaVuSans-BoldOblique-31" transform="translate(208.740234 0)"/>
    </g>
   </g>
   <g id="text_13">
    <!-- 2⁺ -->
    <g transform="translate(432.457502 139.704787) scale(0.23 -0.23)">
     <use xlink:href="#TimesNewRomanPS-BoldMT-32"/>
     <use xlink:href="#DejaVuSerif-Bold-207a" transform="translate(50 0)"/>
    </g>
   </g>
   <g id="text_14">
    <!-- 632 -->
    <g transform="translate(524.468534 323.267042) scale(0.16 -0.16)">
     <defs>
      <path id="DejaVuSans-BoldOblique-33" d="M 3022 2516 
Q 3375 2434 3572 2187 
Q 3769 1941 3769 1581 
Q 3769 806 3155 357 
Q 2541 -91 1466 -91 
Q 1059 -91 692 -33 
Q 325 25 0 141 
L 178 1069 
Q 456 906 784 817 
Q 1113 728 1441 728 
Q 1969 728 2276 926 
Q 2584 1125 2584 1459 
Q 2584 1738 2350 1877 
Q 2116 2016 1644 2016 
L 1166 2016 
L 1319 2791 
L 1825 2791 
Q 2316 2791 2602 2969 
Q 2888 3147 2888 3450 
Q 2888 3688 2689 3813 
Q 2491 3938 2113 3938 
Q 1847 3938 1534 3869 
Q 1222 3800 884 3669 
L 1056 4550 
Q 1425 4650 1783 4700 
Q 2141 4750 2491 4750 
Q 3281 4750 3679 4487 
Q 4078 4225 4078 3706 
Q 4078 3241 3801 2930 
Q 3525 2619 3022 2516 
z
" transform="scale(0.015625)"/>
     </defs>
     <use xlink:href="#DejaVuSans-BoldOblique-36"/>
     <use xlink:href="#DejaVuSans-BoldOblique-33" transform="translate(69.580078 0)"/>
     <use xlink:href="#DejaVuSans-BoldOblique-32" transform="translate(139.160156 0)"/>
    </g>
   </g>
   <g id="text_15">
    <!-- 2⁺ -->
    <g transform="translate(682.331644 324.007276) scale(0.23 -0.23)">
     <use xlink:href="#TimesNewRomanPS-BoldMT-32"/>
     <use xlink:href="#DejaVuSerif-Bold-207a" transform="translate(50 0)"/>
    </g>
   </g>
   <g id="text_16">
    <!-- 1093 -->
    <g transform="translate(513.336034 212.921273) scale(0.16 -0.16)">
     <use xlink:href="#DejaVuSans-BoldOblique-31"/>
     <use xlink:href="#DejaVuSans-BoldOblique-30" transform="translate(69.580078 0)"/>
     <use xlink:href="#DejaVuSans-BoldOblique-39" transform="translate(139.160156 0)"/>
     <use xlink:href="#DejaVuSans-BoldOblique-33" transform="translate(208.740234 0)"/>
    </g>
   </g>
   <g id="text_17">
    <!-- 3⁺ -->
    <g transform="translate(682.331644 213.661508) scale(0.23 -0.23)">
     <defs>
      <path id="TimesNewRomanPS-BoldMT-33" d="M 947 2125 
L 947 2234 
Q 1303 2338 1440 2427 
Q 1578 2516 1678 2698 
Q 1778 2881 1778 3069 
Q 1778 3328 1589 3514 
Q 1400 3700 1119 3700 
Q 681 3700 375 3238 
L 259 3278 
Q 484 3800 836 4062 
Q 1188 4325 1619 4325 
Q 2059 4325 2345 4056 
Q 2631 3788 2631 3428 
Q 2631 3194 2498 2976 
Q 2366 2759 2081 2594 
Q 2447 2416 2639 2155 
Q 2831 1894 2831 1500 
Q 2831 838 2351 373 
Q 1872 -91 1066 -91 
Q 528 -91 281 88 
Q 103 213 103 409 
Q 103 553 206 654 
Q 309 756 444 756 
Q 547 756 638 713 
Q 688 688 992 439 
Q 1297 191 1563 191 
Q 1794 191 1959 373 
Q 2125 556 2125 838 
Q 2125 1266 1825 1627 
Q 1525 1988 947 2125 
z
" transform="scale(0.015625)"/>
     </defs>
     <use xlink:href="#TimesNewRomanPS-BoldMT-33"/>
     <use xlink:href="#DejaVuSerif-Bold-207a" transform="translate(50 0)"/>
    </g>
   </g>
   <g id="text_18">
    <path d="M 108.000555 428.900742 
L 108.000555 437.565742 
Q 108.000555 438.540742 108.085555 438.810742 
Q 108.173055 439.080742 108.445555 439.253242 
Q 108.720555 439.423242 109.323055 439.423242 
L 109.563055 439.423242 
L 109.563055 439.713242 
L 103.985555 439.713242 
L 103.985555 439.423242 
L 104.268055 439.423242 
Q 104.948055 439.423242 105.235555 439.268242 
Q 105.525555 439.110742 105.625555 438.838242 
Q 105.728055 438.565742 105.728055 437.565742 
L 105.728055 432.073242 
Q 105.728055 431.338242 105.658055 431.155742 
Q 105.588055 430.970742 105.395555 430.843242 
Q 105.205555 430.713242 104.955555 430.713242 
Q 104.555555 430.713242 103.985555 430.963242 
L 103.845555 430.680742 
L 107.743055 428.900742 
L 108.000555 428.900742 
z
M 115.120555 428.900742 
L 115.120555 437.565742 
Q 115.120555 438.540742 115.205555 438.810742 
Q 115.293055 439.080742 115.565555 439.253242 
Q 115.840555 439.423242 116.443055 439.423242 
L 116.683055 439.423242 
L 116.683055 439.713242 
L 111.105555 439.713242 
L 111.105555 439.423242 
L 111.388055 439.423242 
Q 112.068055 439.423242 112.355555 439.268242 
Q 112.645555 439.110742 112.745555 438.838242 
Q 112.848055 438.565742 112.848055 437.565742 
L 112.848055 432.073242 
Q 112.848055 431.338242 112.778055 431.155742 
Q 112.708055 430.970742 112.515555 430.843242 
Q 112.325555 430.713242 112.075555 430.713242 
Q 111.675555 430.713242 111.105555 430.963242 
L 110.965555 430.680742 
L 114.863055 428.900742 
L 115.120555 428.900742 
z
M 118.403055 439.933242 
L 118.403055 439.713242 
Q 119.700555 439.415742 120.603055 438.838242 
Q 121.505555 438.260742 122.030555 437.408242 
Q 122.558055 436.555742 122.770555 435.448242 
Q 122.285555 435.698242 121.945555 435.795742 
Q 121.605555 435.893242 121.230555 435.893242 
Q 120.028055 435.893242 119.225555 435.025742 
Q 118.425555 434.158242 118.425555 432.650742 
Q 118.425555 431.603242 118.858055 430.733242 
Q 119.293055 429.860742 120.098055 429.380742 
Q 120.903055 428.900742 121.770555 428.900742 
Q 122.700555 428.900742 123.528055 429.433242 
Q 124.355555 429.963242 124.848055 430.970742 
Q 125.340555 431.978242 125.340555 433.268242 
Q 125.340555 434.940742 124.538055 436.473242 
Q 123.738055 438.003242 122.153055 438.928242 
Q 120.568055 439.853242 118.403055 439.933242 
z
M 122.888055 434.790742 
Q 122.965555 433.915742 122.965555 433.253242 
Q 122.965555 431.830742 122.638055 430.603242 
Q 122.450555 429.923242 122.083055 429.603242 
Q 121.888055 429.430742 121.575555 429.430742 
Q 121.183055 429.430742 120.965555 429.768242 
Q 120.660555 430.228242 120.660555 431.525742 
Q 120.660555 433.690742 121.175555 434.510742 
Q 121.513055 435.040742 122.083055 435.040742 
Q 122.388055 435.040742 122.888055 434.790742 
z
M 127.910555 437.305742 
Q 128.458055 437.305742 128.835555 437.690742 
Q 129.215555 438.073242 129.215555 438.610742 
Q 129.215555 439.150742 128.833055 439.530742 
Q 128.450555 439.908242 127.910555 439.908242 
Q 127.370555 439.908242 126.990555 439.530742 
Q 126.613055 439.150742 126.613055 438.610742 
Q 126.613055 438.073242 126.990555 437.690742 
Q 127.370555 437.305742 127.910555 437.305742 
z
M 132.348055 429.118242 
L 137.308055 429.118242 
L 136.520555 431.135742 
L 132.348055 431.135742 
L 131.950555 432.190742 
Q 134.645555 432.290742 136.098055 433.533242 
Q 137.293055 434.555742 137.293055 436.080742 
Q 137.293055 437.055742 136.738055 437.990742 
Q 136.183055 438.923242 135.175555 439.428242 
Q 134.168055 439.933242 132.965555 439.933242 
Q 131.668055 439.933242 130.973055 439.448242 
Q 130.488055 439.103242 130.488055 438.665742 
Q 130.488055 438.330742 130.740555 438.073242 
Q 130.995555 437.815742 131.333055 437.815742 
Q 131.638055 437.815742 131.950555 437.940742 
Q 132.263055 438.065742 133.020555 438.595742 
Q 133.495555 438.923242 133.840555 439.048242 
Q 134.083055 439.143242 134.388055 439.143242 
Q 135.028055 439.143242 135.475555 438.675742 
Q 135.925555 438.205742 135.925555 437.548242 
Q 135.925555 436.173242 134.550555 435.315742 
Q 133.175555 434.455742 131.083055 434.455742 
Q 130.870555 434.455742 130.450555 434.463242 
L 132.348055 429.118242 
z
" style="stroke: #ffffff; stroke-width: 3.8"/>
    <path d="M 108.000555 428.900742 
L 108.000555 437.565742 
Q 108.000555 438.540742 108.085555 438.810742 
Q 108.173055 439.080742 108.445555 439.253242 
Q 108.720555 439.423242 109.323055 439.423242 
L 109.563055 439.423242 
L 109.563055 439.713242 
L 103.985555 439.713242 
L 103.985555 439.423242 
L 104.268055 439.423242 
Q 104.948055 439.423242 105.235555 439.268242 
Q 105.525555 439.110742 105.625555 438.838242 
Q 105.728055 438.565742 105.728055 437.565742 
L 105.728055 432.073242 
Q 105.728055 431.338242 105.658055 431.155742 
Q 105.588055 430.970742 105.395555 430.843242 
Q 105.205555 430.713242 104.955555 430.713242 
Q 104.555555 430.713242 103.985555 430.963242 
L 103.845555 430.680742 
L 107.743055 428.900742 
L 108.000555 428.900742 
z
M 115.120555 428.900742 
L 115.120555 437.565742 
Q 115.120555 438.540742 115.205555 438.810742 
Q 115.293055 439.080742 115.565555 439.253242 
Q 115.840555 439.423242 116.443055 439.423242 
L 116.683055 439.423242 
L 116.683055 439.713242 
L 111.105555 439.713242 
L 111.105555 439.423242 
L 111.388055 439.423242 
Q 112.068055 439.423242 112.355555 439.268242 
Q 112.645555 439.110742 112.745555 438.838242 
Q 112.848055 438.565742 112.848055 437.565742 
L 112.848055 432.073242 
Q 112.848055 431.338242 112.778055 431.155742 
Q 112.708055 430.970742 112.515555 430.843242 
Q 112.325555 430.713242 112.075555 430.713242 
Q 111.675555 430.713242 111.105555 430.963242 
L 110.965555 430.680742 
L 114.863055 428.900742 
L 115.120555 428.900742 
z
M 118.403055 439.933242 
L 118.403055 439.713242 
Q 119.700555 439.415742 120.603055 438.838242 
Q 121.505555 438.260742 122.030555 437.408242 
Q 122.558055 436.555742 122.770555 435.448242 
Q 122.285555 435.698242 121.945555 435.795742 
Q 121.605555 435.893242 121.230555 435.893242 
Q 120.028055 435.893242 119.225555 435.025742 
Q 118.425555 434.158242 118.425555 432.650742 
Q 118.425555 431.603242 118.858055 430.733242 
Q 119.293055 429.860742 120.098055 429.380742 
Q 120.903055 428.900742 121.770555 428.900742 
Q 122.700555 428.900742 123.528055 429.433242 
Q 124.355555 429.963242 124.848055 430.970742 
Q 125.340555 431.978242 125.340555 433.268242 
Q 125.340555 434.940742 124.538055 436.473242 
Q 123.738055 438.003242 122.153055 438.928242 
Q 120.568055 439.853242 118.403055 439.933242 
z
M 122.888055 434.790742 
Q 122.965555 433.915742 122.965555 433.253242 
Q 122.965555 431.830742 122.638055 430.603242 
Q 122.450555 429.923242 122.083055 429.603242 
Q 121.888055 429.430742 121.575555 429.430742 
Q 121.183055 429.430742 120.965555 429.768242 
Q 120.660555 430.228242 120.660555 431.525742 
Q 120.660555 433.690742 121.175555 434.510742 
Q 121.513055 435.040742 122.083055 435.040742 
Q 122.388055 435.040742 122.888055 434.790742 
z
M 127.910555 437.305742 
Q 128.458055 437.305742 128.835555 437.690742 
Q 129.215555 438.073242 129.215555 438.610742 
Q 129.215555 439.150742 128.833055 439.530742 
Q 128.450555 439.908242 127.910555 439.908242 
Q 127.370555 439.908242 126.990555 439.530742 
Q 126.613055 439.150742 126.613055 438.610742 
Q 126.613055 438.073242 126.990555 437.690742 
Q 127.370555 437.305742 127.910555 437.305742 
z
M 132.348055 429.118242 
L 137.308055 429.118242 
L 136.520555 431.135742 
L 132.348055 431.135742 
L 131.950555 432.190742 
Q 134.645555 432.290742 136.098055 433.533242 
Q 137.293055 434.555742 137.293055 436.080742 
Q 137.293055 437.055742 136.738055 437.990742 
Q 136.183055 438.923242 135.175555 439.428242 
Q 134.168055 439.933242 132.965555 439.933242 
Q 131.668055 439.933242 130.973055 439.448242 
Q 130.488055 439.103242 130.488055 438.665742 
Q 130.488055 438.330742 130.740555 438.073242 
Q 130.995555 437.815742 131.333055 437.815742 
Q 131.638055 437.815742 131.950555 437.940742 
Q 132.263055 438.065742 133.020555 438.595742 
Q 133.495555 438.923242 133.840555 439.048242 
Q 134.083055 439.143242 134.388055 439.143242 
Q 135.028055 439.143242 135.475555 438.675742 
Q 135.925555 438.205742 135.925555 437.548242 
Q 135.925555 436.173242 134.550555 435.315742 
Q 133.175555 434.455742 131.083055 434.455742 
Q 130.870555 434.455742 130.450555 434.463242 
L 132.348055 429.118242 
z
"/>
   </g>
   <g id="text_19">
    <path d="M 107.560555 347.39965 
L 107.560555 356.06465 
Q 107.560555 357.03965 107.645555 357.30965 
Q 107.733055 357.57965 108.005555 357.75215 
Q 108.280555 357.92215 108.883055 357.92215 
L 109.123055 357.92215 
L 109.123055 358.21215 
L 103.545555 358.21215 
L 103.545555 357.92215 
L 103.828055 357.92215 
Q 104.508055 357.92215 104.795555 357.76715 
Q 105.085555 357.60965 105.185555 357.33715 
Q 105.288055 357.06465 105.288055 356.06465 
L 105.288055 350.57215 
Q 105.288055 349.83715 105.218055 349.65465 
Q 105.148055 349.46965 104.955555 349.34215 
Q 104.765555 349.21215 104.515555 349.21215 
Q 104.115555 349.21215 103.545555 349.46215 
L 103.405555 349.17965 
L 107.303055 347.39965 
L 107.560555 347.39965 
z
M 110.843055 358.43215 
L 110.843055 358.21215 
Q 112.140555 357.91465 113.043055 357.33715 
Q 113.945555 356.75965 114.470555 355.90715 
Q 114.998055 355.05465 115.210555 353.94715 
Q 114.725555 354.19715 114.385555 354.29465 
Q 114.045555 354.39215 113.670555 354.39215 
Q 112.468055 354.39215 111.665555 353.52465 
Q 110.865555 352.65715 110.865555 351.14965 
Q 110.865555 350.10215 111.298055 349.23215 
Q 111.733055 348.35965 112.538055 347.87965 
Q 113.343055 347.39965 114.210555 347.39965 
Q 115.140555 347.39965 115.968055 347.93215 
Q 116.795555 348.46215 117.288055 349.46965 
Q 117.780555 350.47715 117.780555 351.76715 
Q 117.780555 353.43965 116.978055 354.97215 
Q 116.178055 356.50215 114.593055 357.42715 
Q 113.008055 358.35215 110.843055 358.43215 
z
M 115.328055 353.28965 
Q 115.405555 352.41465 115.405555 351.75215 
Q 115.405555 350.32965 115.078055 349.10215 
Q 114.890555 348.42215 114.523055 348.10215 
Q 114.328055 347.92965 114.015555 347.92965 
Q 113.623055 347.92965 113.405555 348.26715 
Q 113.100555 348.72715 113.100555 350.02465 
Q 113.100555 352.18965 113.615555 353.00965 
Q 113.953055 353.53965 114.523055 353.53965 
Q 114.828055 353.53965 115.328055 353.28965 
z
M 120.718055 352.89965 
L 120.718055 352.62715 
Q 121.608055 352.36715 121.950555 352.14465 
Q 122.295555 351.92215 122.545555 351.46715 
Q 122.795555 351.00965 122.795555 350.53965 
Q 122.795555 349.89215 122.323055 349.42715 
Q 121.850555 348.96215 121.148055 348.96215 
Q 120.053055 348.96215 119.288055 350.11715 
L 118.998055 350.01715 
Q 119.560555 348.71215 120.440555 348.05715 
Q 121.320555 347.39965 122.398055 347.39965 
Q 123.498055 347.39965 124.213055 348.07215 
Q 124.928055 348.74215 124.928055 349.64215 
Q 124.928055 350.22715 124.595555 350.77215 
Q 124.265555 351.31465 123.553055 351.72715 
Q 124.468055 352.17215 124.948055 352.82465 
Q 125.428055 353.47715 125.428055 354.46215 
Q 125.428055 356.11715 124.228055 357.27965 
Q 123.030555 358.43965 121.015555 358.43965 
Q 119.670555 358.43965 119.053055 357.99215 
Q 118.608055 357.67965 118.608055 357.18965 
Q 118.608055 356.82965 118.865555 356.57715 
Q 119.123055 356.32215 119.460555 356.32215 
Q 119.718055 356.32215 119.945555 356.42965 
Q 120.070555 356.49215 120.830555 357.11465 
Q 121.593055 357.73465 122.258055 357.73465 
Q 122.835555 357.73465 123.248055 357.27965 
Q 123.663055 356.82215 123.663055 356.11715 
Q 123.663055 355.04715 122.913055 354.14465 
Q 122.163055 353.24215 120.718055 352.89965 
z
M 128.350555 355.80465 
Q 128.898055 355.80465 129.275555 356.18965 
Q 129.655555 356.57215 129.655555 357.10965 
Q 129.655555 357.64965 129.273055 358.02965 
Q 128.890555 358.40715 128.350555 358.40715 
Q 127.810555 358.40715 127.430555 358.02965 
Q 127.053055 357.64965 127.053055 357.10965 
Q 127.053055 356.57215 127.430555 356.18965 
Q 127.810555 355.80465 128.350555 355.80465 
z
M 135.803055 352.22715 
Q 136.920555 353.04715 137.353055 353.75465 
Q 137.788055 354.46215 137.788055 355.37715 
Q 137.788055 356.65715 136.823055 357.54465 
Q 135.858055 358.43215 134.203055 358.43215 
Q 132.633055 358.43215 131.773055 357.65965 
Q 130.913055 356.88465 130.913055 355.76715 
Q 130.913055 354.91465 131.408055 354.27465 
Q 131.905555 353.63465 133.060555 353.10215 
Q 131.803055 352.14215 131.448055 351.53215 
Q 131.093055 350.92215 131.093055 350.11715 
Q 131.093055 349.05465 131.995555 348.24715 
Q 132.898055 347.43965 134.468055 347.43965 
Q 135.983055 347.43965 136.798055 348.15465 
Q 137.615555 348.86715 137.615555 349.86715 
Q 137.615555 350.61715 137.173055 351.19215 
Q 136.733055 351.76715 135.803055 352.22715 
z
M 135.210555 351.82965 
Q 135.498055 351.43965 135.638055 350.95465 
Q 135.780555 350.46965 135.780555 349.89215 
Q 135.780555 348.87715 135.343055 348.33715 
Q 135.015555 347.92215 134.435555 347.92215 
Q 133.913055 347.92215 133.545555 348.30215 
Q 133.178055 348.67965 133.178055 349.24215 
Q 133.178055 349.81465 133.588055 350.42715 
Q 133.998055 351.03965 135.210555 351.82965 
z
M 133.648055 353.47715 
Q 133.405555 353.69715 133.303055 353.87715 
Q 133.148055 354.14965 133.023055 354.67465 
Q 132.898055 355.19715 132.898055 355.76715 
Q 132.898055 356.50215 133.085555 356.99715 
Q 133.273055 357.49215 133.620555 357.71215 
Q 133.968055 357.92965 134.335555 357.92965 
Q 134.905555 357.92965 135.295555 357.51215 
Q 135.685555 357.09465 135.685555 356.36715 
Q 135.685555 354.85215 133.648055 353.47715 
z
" style="stroke: #ffffff; stroke-width: 3.8"/>
    <path d="M 107.560555 347.39965 
L 107.560555 356.06465 
Q 107.560555 357.03965 107.645555 357.30965 
Q 107.733055 357.57965 108.005555 357.75215 
Q 108.280555 357.92215 108.883055 357.92215 
L 109.123055 357.92215 
L 109.123055 358.21215 
L 103.545555 358.21215 
L 103.545555 357.92215 
L 103.828055 357.92215 
Q 104.508055 357.92215 104.795555 357.76715 
Q 105.085555 357.60965 105.185555 357.33715 
Q 105.288055 357.06465 105.288055 356.06465 
L 105.288055 350.57215 
Q 105.288055 349.83715 105.218055 349.65465 
Q 105.148055 349.46965 104.955555 349.34215 
Q 104.765555 349.21215 104.515555 349.21215 
Q 104.115555 349.21215 103.545555 349.46215 
L 103.405555 349.17965 
L 107.303055 347.39965 
L 107.560555 347.39965 
z
M 110.843055 358.43215 
L 110.843055 358.21215 
Q 112.140555 357.91465 113.043055 357.33715 
Q 113.945555 356.75965 114.470555 355.90715 
Q 114.998055 355.05465 115.210555 353.94715 
Q 114.725555 354.19715 114.385555 354.29465 
Q 114.045555 354.39215 113.670555 354.39215 
Q 112.468055 354.39215 111.665555 353.52465 
Q 110.865555 352.65715 110.865555 351.14965 
Q 110.865555 350.10215 111.298055 349.23215 
Q 111.733055 348.35965 112.538055 347.87965 
Q 113.343055 347.39965 114.210555 347.39965 
Q 115.140555 347.39965 115.968055 347.93215 
Q 116.795555 348.46215 117.288055 349.46965 
Q 117.780555 350.47715 117.780555 351.76715 
Q 117.780555 353.43965 116.978055 354.97215 
Q 116.178055 356.50215 114.593055 357.42715 
Q 113.008055 358.35215 110.843055 358.43215 
z
M 115.328055 353.28965 
Q 115.405555 352.41465 115.405555 351.75215 
Q 115.405555 350.32965 115.078055 349.10215 
Q 114.890555 348.42215 114.523055 348.10215 
Q 114.328055 347.92965 114.015555 347.92965 
Q 113.623055 347.92965 113.405555 348.26715 
Q 113.100555 348.72715 113.100555 350.02465 
Q 113.100555 352.18965 113.615555 353.00965 
Q 113.953055 353.53965 114.523055 353.53965 
Q 114.828055 353.53965 115.328055 353.28965 
z
M 120.718055 352.89965 
L 120.718055 352.62715 
Q 121.608055 352.36715 121.950555 352.14465 
Q 122.295555 351.92215 122.545555 351.46715 
Q 122.795555 351.00965 122.795555 350.53965 
Q 122.795555 349.89215 122.323055 349.42715 
Q 121.850555 348.96215 121.148055 348.96215 
Q 120.053055 348.96215 119.288055 350.11715 
L 118.998055 350.01715 
Q 119.560555 348.71215 120.440555 348.05715 
Q 121.320555 347.39965 122.398055 347.39965 
Q 123.498055 347.39965 124.213055 348.07215 
Q 124.928055 348.74215 124.928055 349.64215 
Q 124.928055 350.22715 124.595555 350.77215 
Q 124.265555 351.31465 123.553055 351.72715 
Q 124.468055 352.17215 124.948055 352.82465 
Q 125.428055 353.47715 125.428055 354.46215 
Q 125.428055 356.11715 124.228055 357.27965 
Q 123.030555 358.43965 121.015555 358.43965 
Q 119.670555 358.43965 119.053055 357.99215 
Q 118.608055 357.67965 118.608055 357.18965 
Q 118.608055 356.82965 118.865555 356.57715 
Q 119.123055 356.32215 119.460555 356.32215 
Q 119.718055 356.32215 119.945555 356.42965 
Q 120.070555 356.49215 120.830555 357.11465 
Q 121.593055 357.73465 122.258055 357.73465 
Q 122.835555 357.73465 123.248055 357.27965 
Q 123.663055 356.82215 123.663055 356.11715 
Q 123.663055 355.04715 122.913055 354.14465 
Q 122.163055 353.24215 120.718055 352.89965 
z
M 128.350555 355.80465 
Q 128.898055 355.80465 129.275555 356.18965 
Q 129.655555 356.57215 129.655555 357.10965 
Q 129.655555 357.64965 129.273055 358.02965 
Q 128.890555 358.40715 128.350555 358.40715 
Q 127.810555 358.40715 127.430555 358.02965 
Q 127.053055 357.64965 127.053055 357.10965 
Q 127.053055 356.57215 127.430555 356.18965 
Q 127.810555 355.80465 128.350555 355.80465 
z
M 135.803055 352.22715 
Q 136.920555 353.04715 137.353055 353.75465 
Q 137.788055 354.46215 137.788055 355.37715 
Q 137.788055 356.65715 136.823055 357.54465 
Q 135.858055 358.43215 134.203055 358.43215 
Q 132.633055 358.43215 131.773055 357.65965 
Q 130.913055 356.88465 130.913055 355.76715 
Q 130.913055 354.91465 131.408055 354.27465 
Q 131.905555 353.63465 133.060555 353.10215 
Q 131.803055 352.14215 131.448055 351.53215 
Q 131.093055 350.92215 131.093055 350.11715 
Q 131.093055 349.05465 131.995555 348.24715 
Q 132.898055 347.43965 134.468055 347.43965 
Q 135.983055 347.43965 136.798055 348.15465 
Q 137.615555 348.86715 137.615555 349.86715 
Q 137.615555 350.61715 137.173055 351.19215 
Q 136.733055 351.76715 135.803055 352.22715 
z
M 135.210555 351.82965 
Q 135.498055 351.43965 135.638055 350.95465 
Q 135.780555 350.46965 135.780555 349.89215 
Q 135.780555 348.87715 135.343055 348.33715 
Q 135.015555 347.92215 134.435555 347.92215 
Q 133.913055 347.92215 133.545555 348.30215 
Q 133.178055 348.67965 133.178055 349.24215 
Q 133.178055 349.81465 133.588055 350.42715 
Q 133.998055 351.03965 135.210555 351.82965 
z
M 133.648055 353.47715 
Q 133.405555 353.69715 133.303055 353.87715 
Q 133.148055 354.14965 133.023055 354.67465 
Q 132.898055 355.19715 132.898055 355.76715 
Q 132.898055 356.50215 133.085555 356.99715 
Q 133.273055 357.49215 133.620555 357.71215 
Q 133.968055 357.92965 134.335555 357.92965 
Q 134.905555 357.92965 135.295555 357.51215 
Q 135.685555 357.09465 135.685555 356.36715 
Q 135.685555 354.85215 133.648055 353.47715 
z
"/>
   </g>
   <g id="text_20">
    <path d="M 108.975555 253.65288 
L 102.740555 253.65288 
L 102.740555 253.48038 
Q 105.608055 250.06788 106.220555 248.88788 
Q 106.835555 247.70788 106.835555 246.58288 
Q 106.835555 245.76288 106.328055 245.22038 
Q 105.820555 244.67538 105.085555 244.67538 
Q 103.883055 244.67538 103.218055 245.88038 
L 102.928055 245.77788 
Q 103.350555 244.27788 104.210555 243.56038 
Q 105.070555 242.84038 106.195555 242.84038 
Q 106.998055 242.84038 107.663055 243.21538 
Q 108.328055 243.59038 108.703055 244.24288 
Q 109.078055 244.89538 109.078055 245.46538 
Q 109.078055 246.50538 108.498055 247.57538 
Q 107.710555 249.02038 105.053055 251.60538 
L 107.343055 251.60538 
Q 108.185555 251.60538 108.440555 251.53538 
Q 108.695555 251.46538 108.858055 251.29788 
Q 109.023055 251.13038 109.288055 250.59038 
L 109.570555 250.59038 
L 108.975555 253.65288 
z
M 112.788055 243.05788 
L 117.748055 243.05788 
L 116.960555 245.07538 
L 112.788055 245.07538 
L 112.390555 246.13038 
Q 115.085555 246.23038 116.538055 247.47288 
Q 117.733055 248.49538 117.733055 250.02038 
Q 117.733055 250.99538 117.178055 251.93038 
Q 116.623055 252.86288 115.615555 253.36788 
Q 114.608055 253.87288 113.405555 253.87288 
Q 112.108055 253.87288 111.413055 253.38788 
Q 110.928055 253.04288 110.928055 252.60538 
Q 110.928055 252.27038 111.180555 252.01288 
Q 111.435555 251.75538 111.773055 251.75538 
Q 112.078055 251.75538 112.390555 251.88038 
Q 112.703055 252.00538 113.460555 252.53538 
Q 113.935555 252.86288 114.280555 252.98788 
Q 114.523055 253.08288 114.828055 253.08288 
Q 115.468055 253.08288 115.915555 252.61538 
Q 116.365555 252.14538 116.365555 251.48788 
Q 116.365555 250.11288 114.990555 249.25538 
Q 113.615555 248.39538 111.523055 248.39538 
Q 111.310555 248.39538 110.890555 248.40288 
L 112.788055 243.05788 
z
M 118.843055 253.87288 
L 118.843055 253.65288 
Q 120.140555 253.35538 121.043055 252.77788 
Q 121.945555 252.20038 122.470555 251.34788 
Q 122.998055 250.49538 123.210555 249.38788 
Q 122.725555 249.63788 122.385555 249.73538 
Q 122.045555 249.83288 121.670555 249.83288 
Q 120.468055 249.83288 119.665555 248.96538 
Q 118.865555 248.09788 118.865555 246.59038 
Q 118.865555 245.54288 119.298055 244.67288 
Q 119.733055 243.80038 120.538055 243.32038 
Q 121.343055 242.84038 122.210555 242.84038 
Q 123.140555 242.84038 123.968055 243.37288 
Q 124.795555 243.90288 125.288055 244.91038 
Q 125.780555 245.91788 125.780555 247.20788 
Q 125.780555 248.88038 124.978055 250.41288 
Q 124.178055 251.94288 122.593055 252.86788 
Q 121.008055 253.79288 118.843055 253.87288 
z
M 123.328055 248.73038 
Q 123.405555 247.85538 123.405555 247.19288 
Q 123.405555 245.77038 123.078055 244.54288 
Q 122.890555 243.86288 122.523055 243.54288 
Q 122.328055 243.37038 122.015555 243.37038 
Q 121.623055 243.37038 121.405555 243.70788 
Q 121.100555 244.16788 121.100555 245.46538 
Q 121.100555 247.63038 121.615555 248.45038 
Q 121.953055 248.98038 122.523055 248.98038 
Q 122.828055 248.98038 123.328055 248.73038 
z
M 128.350555 251.24538 
Q 128.898055 251.24538 129.275555 251.63038 
Q 129.655555 252.01288 129.655555 252.55038 
Q 129.655555 253.09038 129.273055 253.47038 
Q 128.890555 253.84788 128.350555 253.84788 
Q 127.810555 253.84788 127.430555 253.47038 
Q 127.053055 253.09038 127.053055 252.55038 
Q 127.053055 252.01288 127.430555 251.63038 
Q 127.810555 251.24538 128.350555 251.24538 
z
M 133.185555 253.87288 
L 136.070555 245.13038 
L 133.873055 245.13038 
Q 132.585555 245.13038 131.935555 245.46538 
Q 131.483055 245.70038 131.185555 246.34788 
L 130.890555 246.34788 
L 131.655555 243.05788 
L 137.968055 243.05788 
L 134.413055 253.87288 
L 133.185555 253.87288 
z
" style="stroke: #ffffff; stroke-width: 3.8"/>
    <path d="M 108.975555 253.65288 
L 102.740555 253.65288 
L 102.740555 253.48038 
Q 105.608055 250.06788 106.220555 248.88788 
Q 106.835555 247.70788 106.835555 246.58288 
Q 106.835555 245.76288 106.328055 245.22038 
Q 105.820555 244.67538 105.085555 244.67538 
Q 103.883055 244.67538 103.218055 245.88038 
L 102.928055 245.77788 
Q 103.350555 244.27788 104.210555 243.56038 
Q 105.070555 242.84038 106.195555 242.84038 
Q 106.998055 242.84038 107.663055 243.21538 
Q 108.328055 243.59038 108.703055 244.24288 
Q 109.078055 244.89538 109.078055 245.46538 
Q 109.078055 246.50538 108.498055 247.57538 
Q 107.710555 249.02038 105.053055 251.60538 
L 107.343055 251.60538 
Q 108.185555 251.60538 108.440555 251.53538 
Q 108.695555 251.46538 108.858055 251.29788 
Q 109.023055 251.13038 109.288055 250.59038 
L 109.570555 250.59038 
L 108.975555 253.65288 
z
M 112.788055 243.05788 
L 117.748055 243.05788 
L 116.960555 245.07538 
L 112.788055 245.07538 
L 112.390555 246.13038 
Q 115.085555 246.23038 116.538055 247.47288 
Q 117.733055 248.49538 117.733055 250.02038 
Q 117.733055 250.99538 117.178055 251.93038 
Q 116.623055 252.86288 115.615555 253.36788 
Q 114.608055 253.87288 113.405555 253.87288 
Q 112.108055 253.87288 111.413055 253.38788 
Q 110.928055 253.04288 110.928055 252.60538 
Q 110.928055 252.27038 111.180555 252.01288 
Q 111.435555 251.75538 111.773055 251.75538 
Q 112.078055 251.75538 112.390555 251.88038 
Q 112.703055 252.00538 113.460555 252.53538 
Q 113.935555 252.86288 114.280555 252.98788 
Q 114.523055 253.08288 114.828055 253.08288 
Q 115.468055 253.08288 115.915555 252.61538 
Q 116.365555 252.14538 116.365555 251.48788 
Q 116.365555 250.11288 114.990555 249.25538 
Q 113.615555 248.39538 111.523055 248.39538 
Q 111.310555 248.39538 110.890555 248.40288 
L 112.788055 243.05788 
z
M 118.843055 253.87288 
L 118.843055 253.65288 
Q 120.140555 253.35538 121.043055 252.77788 
Q 121.945555 252.20038 122.470555 251.34788 
Q 122.998055 250.49538 123.210555 249.38788 
Q 122.725555 249.63788 122.385555 249.73538 
Q 122.045555 249.83288 121.670555 249.83288 
Q 120.468055 249.83288 119.665555 248.96538 
Q 118.865555 248.09788 118.865555 246.59038 
Q 118.865555 245.54288 119.298055 244.67288 
Q 119.733055 243.80038 120.538055 243.32038 
Q 121.343055 242.84038 122.210555 242.84038 
Q 123.140555 242.84038 123.968055 243.37288 
Q 124.795555 243.90288 125.288055 244.91038 
Q 125.780555 245.91788 125.780555 247.20788 
Q 125.780555 248.88038 124.978055 250.41288 
Q 124.178055 251.94288 122.593055 252.86788 
Q 121.008055 253.79288 118.843055 253.87288 
z
M 123.328055 248.73038 
Q 123.405555 247.85538 123.405555 247.19288 
Q 123.405555 245.77038 123.078055 244.54288 
Q 122.890555 243.86288 122.523055 243.54288 
Q 122.328055 243.37038 122.015555 243.37038 
Q 121.623055 243.37038 121.405555 243.70788 
Q 121.100555 244.16788 121.100555 245.46538 
Q 121.100555 247.63038 121.615555 248.45038 
Q 121.953055 248.98038 122.523055 248.98038 
Q 122.828055 248.98038 123.328055 248.73038 
z
M 128.350555 251.24538 
Q 128.898055 251.24538 129.275555 251.63038 
Q 129.655555 252.01288 129.655555 252.55038 
Q 129.655555 253.09038 129.273055 253.47038 
Q 128.890555 253.84788 128.350555 253.84788 
Q 127.810555 253.84788 127.430555 253.47038 
Q 127.053055 253.09038 127.053055 252.55038 
Q 127.053055 252.01288 127.430555 251.63038 
Q 127.810555 251.24538 128.350555 251.24538 
z
M 133.185555 253.87288 
L 136.070555 245.13038 
L 133.873055 245.13038 
Q 132.585555 245.13038 131.935555 245.46538 
Q 131.483055 245.70038 131.185555 246.34788 
L 130.890555 246.34788 
L 131.655555 243.05788 
L 137.968055 243.05788 
L 134.413055 253.87288 
L 133.185555 253.87288 
z
"/>
   </g>
   <g id="text_21">
    <path d="M 357.434697 187.156175 
L 357.434697 195.821175 
Q 357.434697 196.796175 357.519697 197.066175 
Q 357.607197 197.336175 357.879697 197.508675 
Q 358.154697 197.678675 358.757197 197.678675 
L 358.997197 197.678675 
L 358.997197 197.968675 
L 353.419697 197.968675 
L 353.419697 197.678675 
L 353.702197 197.678675 
Q 354.382197 197.678675 354.669697 197.523675 
Q 354.959697 197.366175 355.059697 197.093675 
Q 355.162197 196.821175 355.162197 195.821175 
L 355.162197 190.328675 
Q 355.162197 189.593675 355.092197 189.411175 
Q 355.022197 189.226175 354.829697 189.098675 
Q 354.639697 188.968675 354.389697 188.968675 
Q 353.989697 188.968675 353.419697 189.218675 
L 353.279697 188.936175 
L 357.177197 187.156175 
L 357.434697 187.156175 
z
M 367.639697 192.671175 
Q 367.639697 194.258675 367.194697 195.633675 
Q 366.927197 196.476175 366.477197 197.016175 
Q 366.029697 197.553675 365.459697 197.871175 
Q 364.889697 198.188675 364.217197 198.188675 
Q 363.452197 198.188675 362.834697 197.798675 
Q 362.217197 197.406175 361.739697 196.678675 
Q 361.397197 196.148675 361.139697 195.266175 
Q 360.802197 194.071175 360.802197 192.796175 
Q 360.802197 191.071175 361.287197 189.623675 
Q 361.684697 188.428675 362.497197 187.793675 
Q 363.309697 187.156175 364.217197 187.156175 
Q 365.139697 187.156175 365.939697 187.786175 
Q 366.739697 188.413675 367.114697 189.476175 
Q 367.639697 190.936175 367.639697 192.671175 
z
M 365.232197 192.656175 
Q 365.232197 189.873675 365.202197 189.413675 
Q 365.122197 188.328675 364.827197 187.946175 
Q 364.632197 187.696175 364.194697 187.696175 
Q 363.857197 187.696175 363.662197 187.883675 
Q 363.372197 188.156175 363.269697 188.848675 
Q 363.169697 189.538675 363.169697 193.671175 
Q 363.169697 195.921175 363.327197 196.686175 
Q 363.444697 197.241175 363.662197 197.428675 
Q 363.882197 197.616175 364.239697 197.616175 
Q 364.632197 197.616175 364.827197 197.366175 
Q 365.154697 196.928675 365.202197 196.016175 
L 365.232197 192.656175 
z
M 375.739697 187.156175 
L 375.739697 187.373675 
Q 374.327197 187.733675 373.469697 188.301175 
Q 372.614697 188.866175 372.117197 189.676175 
Q 371.622197 190.483675 371.349697 191.678675 
Q 371.694697 191.446175 371.919697 191.373675 
Q 372.427197 191.218675 372.944697 191.218675 
Q 374.132197 191.218675 374.924697 192.083675 
Q 375.717197 192.946175 375.717197 194.436175 
Q 375.717197 195.483675 375.287197 196.358675 
Q 374.857197 197.233675 374.067197 197.711175 
Q 373.279697 198.188675 372.382197 198.188675 
Q 371.404697 198.188675 370.574697 197.653675 
Q 369.747197 197.116175 369.282197 196.086175 
Q 368.819697 195.053675 368.819697 193.843675 
Q 368.819697 192.061175 369.674697 190.526175 
Q 370.529697 188.991175 372.102197 188.081175 
Q 373.677197 187.171175 375.739697 187.156175 
z
M 371.247197 192.311175 
Q 371.184697 193.391175 371.184697 193.891175 
Q 371.184697 194.968675 371.392197 195.976175 
Q 371.599697 196.983675 371.959697 197.391175 
Q 372.217197 197.678675 372.569697 197.678675 
Q 372.927197 197.678675 373.207197 197.261175 
Q 373.489697 196.843675 373.489697 195.561175 
Q 373.489697 193.406175 372.967197 192.586175 
Q 372.632197 192.053675 372.059697 192.053675 
Q 371.747197 192.053675 371.247197 192.311175 
z
M 378.224697 195.561175 
Q 378.772197 195.561175 379.149697 195.946175 
Q 379.529697 196.328675 379.529697 196.866175 
Q 379.529697 197.406175 379.147197 197.786175 
Q 378.764697 198.163675 378.224697 198.163675 
Q 377.684697 198.163675 377.304697 197.786175 
Q 376.927197 197.406175 376.927197 196.866175 
Q 376.927197 196.328675 377.304697 195.946175 
Q 377.684697 195.561175 378.224697 195.561175 
z
M 385.677197 191.983675 
Q 386.794697 192.803675 387.227197 193.511175 
Q 387.662197 194.218675 387.662197 195.133675 
Q 387.662197 196.413675 386.697197 197.301175 
Q 385.732197 198.188675 384.077197 198.188675 
Q 382.507197 198.188675 381.647197 197.416175 
Q 380.787197 196.641175 380.787197 195.523675 
Q 380.787197 194.671175 381.282197 194.031175 
Q 381.779697 193.391175 382.934697 192.858675 
Q 381.677197 191.898675 381.322197 191.288675 
Q 380.967197 190.678675 380.967197 189.873675 
Q 380.967197 188.811175 381.869697 188.003675 
Q 382.772197 187.196175 384.342197 187.196175 
Q 385.857197 187.196175 386.672197 187.911175 
Q 387.489697 188.623675 387.489697 189.623675 
Q 387.489697 190.373675 387.047197 190.948675 
Q 386.607197 191.523675 385.677197 191.983675 
z
M 385.084697 191.586175 
Q 385.372197 191.196175 385.512197 190.711175 
Q 385.654697 190.226175 385.654697 189.648675 
Q 385.654697 188.633675 385.217197 188.093675 
Q 384.889697 187.678675 384.309697 187.678675 
Q 383.787197 187.678675 383.419697 188.058675 
Q 383.052197 188.436175 383.052197 188.998675 
Q 383.052197 189.571175 383.462197 190.183675 
Q 383.872197 190.796175 385.084697 191.586175 
z
M 383.522197 193.233675 
Q 383.279697 193.453675 383.177197 193.633675 
Q 383.022197 193.906175 382.897197 194.431175 
Q 382.772197 194.953675 382.772197 195.523675 
Q 382.772197 196.258675 382.959697 196.753675 
Q 383.147197 197.248675 383.494697 197.468675 
Q 383.842197 197.686175 384.209697 197.686175 
Q 384.779697 197.686175 385.169697 197.268675 
Q 385.559697 196.851175 385.559697 196.123675 
Q 385.559697 194.608675 383.522197 193.233675 
z
" style="stroke: #ffffff; stroke-width: 3.8"/>
    <path d="M 357.434697 187.156175 
L 357.434697 195.821175 
Q 357.434697 196.796175 357.519697 197.066175 
Q 357.607197 197.336175 357.879697 197.508675 
Q 358.154697 197.678675 358.757197 197.678675 
L 358.997197 197.678675 
L 358.997197 197.968675 
L 353.419697 197.968675 
L 353.419697 197.678675 
L 353.702197 197.678675 
Q 354.382197 197.678675 354.669697 197.523675 
Q 354.959697 197.366175 355.059697 197.093675 
Q 355.162197 196.821175 355.162197 195.821175 
L 355.162197 190.328675 
Q 355.162197 189.593675 355.092197 189.411175 
Q 355.022197 189.226175 354.829697 189.098675 
Q 354.639697 188.968675 354.389697 188.968675 
Q 353.989697 188.968675 353.419697 189.218675 
L 353.279697 188.936175 
L 357.177197 187.156175 
L 357.434697 187.156175 
z
M 367.639697 192.671175 
Q 367.639697 194.258675 367.194697 195.633675 
Q 366.927197 196.476175 366.477197 197.016175 
Q 366.029697 197.553675 365.459697 197.871175 
Q 364.889697 198.188675 364.217197 198.188675 
Q 363.452197 198.188675 362.834697 197.798675 
Q 362.217197 197.406175 361.739697 196.678675 
Q 361.397197 196.148675 361.139697 195.266175 
Q 360.802197 194.071175 360.802197 192.796175 
Q 360.802197 191.071175 361.287197 189.623675 
Q 361.684697 188.428675 362.497197 187.793675 
Q 363.309697 187.156175 364.217197 187.156175 
Q 365.139697 187.156175 365.939697 187.786175 
Q 366.739697 188.413675 367.114697 189.476175 
Q 367.639697 190.936175 367.639697 192.671175 
z
M 365.232197 192.656175 
Q 365.232197 189.873675 365.202197 189.413675 
Q 365.122197 188.328675 364.827197 187.946175 
Q 364.632197 187.696175 364.194697 187.696175 
Q 363.857197 187.696175 363.662197 187.883675 
Q 363.372197 188.156175 363.269697 188.848675 
Q 363.169697 189.538675 363.169697 193.671175 
Q 363.169697 195.921175 363.327197 196.686175 
Q 363.444697 197.241175 363.662197 197.428675 
Q 363.882197 197.616175 364.239697 197.616175 
Q 364.632197 197.616175 364.827197 197.366175 
Q 365.154697 196.928675 365.202197 196.016175 
L 365.232197 192.656175 
z
M 375.739697 187.156175 
L 375.739697 187.373675 
Q 374.327197 187.733675 373.469697 188.301175 
Q 372.614697 188.866175 372.117197 189.676175 
Q 371.622197 190.483675 371.349697 191.678675 
Q 371.694697 191.446175 371.919697 191.373675 
Q 372.427197 191.218675 372.944697 191.218675 
Q 374.132197 191.218675 374.924697 192.083675 
Q 375.717197 192.946175 375.717197 194.436175 
Q 375.717197 195.483675 375.287197 196.358675 
Q 374.857197 197.233675 374.067197 197.711175 
Q 373.279697 198.188675 372.382197 198.188675 
Q 371.404697 198.188675 370.574697 197.653675 
Q 369.747197 197.116175 369.282197 196.086175 
Q 368.819697 195.053675 368.819697 193.843675 
Q 368.819697 192.061175 369.674697 190.526175 
Q 370.529697 188.991175 372.102197 188.081175 
Q 373.677197 187.171175 375.739697 187.156175 
z
M 371.247197 192.311175 
Q 371.184697 193.391175 371.184697 193.891175 
Q 371.184697 194.968675 371.392197 195.976175 
Q 371.599697 196.983675 371.959697 197.391175 
Q 372.217197 197.678675 372.569697 197.678675 
Q 372.927197 197.678675 373.207197 197.261175 
Q 373.489697 196.843675 373.489697 195.561175 
Q 373.489697 193.406175 372.967197 192.586175 
Q 372.632197 192.053675 372.059697 192.053675 
Q 371.747197 192.053675 371.247197 192.311175 
z
M 378.224697 195.561175 
Q 378.772197 195.561175 379.149697 195.946175 
Q 379.529697 196.328675 379.529697 196.866175 
Q 379.529697 197.406175 379.147197 197.786175 
Q 378.764697 198.163675 378.224697 198.163675 
Q 377.684697 198.163675 377.304697 197.786175 
Q 376.927197 197.406175 376.927197 196.866175 
Q 376.927197 196.328675 377.304697 195.946175 
Q 377.684697 195.561175 378.224697 195.561175 
z
M 385.677197 191.983675 
Q 386.794697 192.803675 387.227197 193.511175 
Q 387.662197 194.218675 387.662197 195.133675 
Q 387.662197 196.413675 386.697197 197.301175 
Q 385.732197 198.188675 384.077197 198.188675 
Q 382.507197 198.188675 381.647197 197.416175 
Q 380.787197 196.641175 380.787197 195.523675 
Q 380.787197 194.671175 381.282197 194.031175 
Q 381.779697 193.391175 382.934697 192.858675 
Q 381.677197 191.898675 381.322197 191.288675 
Q 380.967197 190.678675 380.967197 189.873675 
Q 380.967197 188.811175 381.869697 188.003675 
Q 382.772197 187.196175 384.342197 187.196175 
Q 385.857197 187.196175 386.672197 187.911175 
Q 387.489697 188.623675 387.489697 189.623675 
Q 387.489697 190.373675 387.047197 190.948675 
Q 386.607197 191.523675 385.677197 191.983675 
z
M 385.084697 191.586175 
Q 385.372197 191.196175 385.512197 190.711175 
Q 385.654697 190.226175 385.654697 189.648675 
Q 385.654697 188.633675 385.217197 188.093675 
Q 384.889697 187.678675 384.309697 187.678675 
Q 383.787197 187.678675 383.419697 188.058675 
Q 383.052197 188.436175 383.052197 188.998675 
Q 383.052197 189.571175 383.462197 190.183675 
Q 383.872197 190.796175 385.084697 191.586175 
z
M 383.522197 193.233675 
Q 383.279697 193.453675 383.177197 193.633675 
Q 383.022197 193.906175 382.897197 194.431175 
Q 382.772197 194.953675 382.772197 195.523675 
Q 382.772197 196.258675 382.959697 196.753675 
Q 383.147197 197.248675 383.494697 197.468675 
Q 383.842197 197.686175 384.209697 197.686175 
Q 384.779697 197.686175 385.169697 197.268675 
Q 385.559697 196.851175 385.559697 196.123675 
Q 385.559697 194.608675 383.522197 193.233675 
z
"/>
   </g>
   <g id="text_22">
    <path d="M 573.363672 256.452908 
L 573.363672 265.117908 
Q 573.363672 266.092908 573.448672 266.362908 
Q 573.536172 266.632908 573.808672 266.805408 
Q 574.083672 266.975408 574.686172 266.975408 
L 574.926172 266.975408 
L 574.926172 267.265408 
L 569.348672 267.265408 
L 569.348672 266.975408 
L 569.631172 266.975408 
Q 570.311172 266.975408 570.598672 266.820408 
Q 570.888672 266.662908 570.988672 266.390408 
Q 571.091172 266.117908 571.091172 265.117908 
L 571.091172 259.625408 
Q 571.091172 258.890408 571.021172 258.707908 
Q 570.951172 258.522908 570.758672 258.395408 
Q 570.568672 258.265408 570.318672 258.265408 
Q 569.918672 258.265408 569.348672 258.515408 
L 569.208672 258.232908 
L 573.106172 256.452908 
L 573.363672 256.452908 
z
M 578.988672 267.485408 
L 581.873672 258.742908 
L 579.676172 258.742908 
Q 578.388672 258.742908 577.738672 259.077908 
Q 577.286172 259.312908 576.988672 259.960408 
L 576.693672 259.960408 
L 577.458672 256.670408 
L 583.771172 256.670408 
L 580.216172 267.485408 
L 578.988672 267.485408 
z
M 589.363672 256.452908 
L 589.363672 265.117908 
Q 589.363672 266.092908 589.448672 266.362908 
Q 589.536172 266.632908 589.808672 266.805408 
Q 590.083672 266.975408 590.686172 266.975408 
L 590.926172 266.975408 
L 590.926172 267.265408 
L 585.348672 267.265408 
L 585.348672 266.975408 
L 585.631172 266.975408 
Q 586.311172 266.975408 586.598672 266.820408 
Q 586.888672 266.662908 586.988672 266.390408 
Q 587.091172 266.117908 587.091172 265.117908 
L 587.091172 259.625408 
Q 587.091172 258.890408 587.021172 258.707908 
Q 586.951172 258.522908 586.758672 258.395408 
Q 586.568672 258.265408 586.318672 258.265408 
Q 585.918672 258.265408 585.348672 258.515408 
L 585.208672 258.232908 
L 589.106172 256.452908 
L 589.363672 256.452908 
z
M 594.153672 264.857908 
Q 594.701172 264.857908 595.078672 265.242908 
Q 595.458672 265.625408 595.458672 266.162908 
Q 595.458672 266.702908 595.076172 267.082908 
Q 594.693672 267.460408 594.153672 267.460408 
Q 593.613672 267.460408 593.233672 267.082908 
Q 592.856172 266.702908 592.856172 266.162908 
Q 592.856172 265.625408 593.233672 265.242908 
Q 593.613672 264.857908 594.153672 264.857908 
z
M 603.668672 256.452908 
L 603.668672 256.670408 
Q 602.256172 257.030408 601.398672 257.597908 
Q 600.543672 258.162908 600.046172 258.972908 
Q 599.551172 259.780408 599.278672 260.975408 
Q 599.623672 260.742908 599.848672 260.670408 
Q 600.356172 260.515408 600.873672 260.515408 
Q 602.061172 260.515408 602.853672 261.380408 
Q 603.646172 262.242908 603.646172 263.732908 
Q 603.646172 264.780408 603.216172 265.655408 
Q 602.786172 266.530408 601.996172 267.007908 
Q 601.208672 267.485408 600.311172 267.485408 
Q 599.333672 267.485408 598.503672 266.950408 
Q 597.676172 266.412908 597.211172 265.382908 
Q 596.748672 264.350408 596.748672 263.140408 
Q 596.748672 261.357908 597.603672 259.822908 
Q 598.458672 258.287908 600.031172 257.377908 
Q 601.606172 256.467908 603.668672 256.452908 
z
M 599.176172 261.607908 
Q 599.113672 262.687908 599.113672 263.187908 
Q 599.113672 264.265408 599.321172 265.272908 
Q 599.528672 266.280408 599.888672 266.687908 
Q 600.146172 266.975408 600.498672 266.975408 
Q 600.856172 266.975408 601.136172 266.557908 
Q 601.418672 266.140408 601.418672 264.857908 
Q 601.418672 262.702908 600.896172 261.882908 
Q 600.561172 261.350408 599.988672 261.350408 
Q 599.676172 261.350408 599.176172 261.607908 
z
" style="stroke: #ffffff; stroke-width: 3.8"/>
    <path d="M 573.363672 256.452908 
L 573.363672 265.117908 
Q 573.363672 266.092908 573.448672 266.362908 
Q 573.536172 266.632908 573.808672 266.805408 
Q 574.083672 266.975408 574.686172 266.975408 
L 574.926172 266.975408 
L 574.926172 267.265408 
L 569.348672 267.265408 
L 569.348672 266.975408 
L 569.631172 266.975408 
Q 570.311172 266.975408 570.598672 266.820408 
Q 570.888672 266.662908 570.988672 266.390408 
Q 571.091172 266.117908 571.091172 265.117908 
L 571.091172 259.625408 
Q 571.091172 258.890408 571.021172 258.707908 
Q 570.951172 258.522908 570.758672 258.395408 
Q 570.568672 258.265408 570.318672 258.265408 
Q 569.918672 258.265408 569.348672 258.515408 
L 569.208672 258.232908 
L 573.106172 256.452908 
L 573.363672 256.452908 
z
M 578.988672 267.485408 
L 581.873672 258.742908 
L 579.676172 258.742908 
Q 578.388672 258.742908 577.738672 259.077908 
Q 577.286172 259.312908 576.988672 259.960408 
L 576.693672 259.960408 
L 577.458672 256.670408 
L 583.771172 256.670408 
L 580.216172 267.485408 
L 578.988672 267.485408 
z
M 589.363672 256.452908 
L 589.363672 265.117908 
Q 589.363672 266.092908 589.448672 266.362908 
Q 589.536172 266.632908 589.808672 266.805408 
Q 590.083672 266.975408 590.686172 266.975408 
L 590.926172 266.975408 
L 590.926172 267.265408 
L 585.348672 267.265408 
L 585.348672 266.975408 
L 585.631172 266.975408 
Q 586.311172 266.975408 586.598672 266.820408 
Q 586.888672 266.662908 586.988672 266.390408 
Q 587.091172 266.117908 587.091172 265.117908 
L 587.091172 259.625408 
Q 587.091172 258.890408 587.021172 258.707908 
Q 586.951172 258.522908 586.758672 258.395408 
Q 586.568672 258.265408 586.318672 258.265408 
Q 585.918672 258.265408 585.348672 258.515408 
L 585.208672 258.232908 
L 589.106172 256.452908 
L 589.363672 256.452908 
z
M 594.153672 264.857908 
Q 594.701172 264.857908 595.078672 265.242908 
Q 595.458672 265.625408 595.458672 266.162908 
Q 595.458672 266.702908 595.076172 267.082908 
Q 594.693672 267.460408 594.153672 267.460408 
Q 593.613672 267.460408 593.233672 267.082908 
Q 592.856172 266.702908 592.856172 266.162908 
Q 592.856172 265.625408 593.233672 265.242908 
Q 593.613672 264.857908 594.153672 264.857908 
z
M 603.668672 256.452908 
L 603.668672 256.670408 
Q 602.256172 257.030408 601.398672 257.597908 
Q 600.543672 258.162908 600.046172 258.972908 
Q 599.551172 259.780408 599.278672 260.975408 
Q 599.623672 260.742908 599.848672 260.670408 
Q 600.356172 260.515408 600.873672 260.515408 
Q 602.061172 260.515408 602.853672 261.380408 
Q 603.646172 262.242908 603.646172 263.732908 
Q 603.646172 264.780408 603.216172 265.655408 
Q 602.786172 266.530408 601.996172 267.007908 
Q 601.208672 267.485408 600.311172 267.485408 
Q 599.333672 267.485408 598.503672 266.950408 
Q 597.676172 266.412908 597.211172 265.382908 
Q 596.748672 264.350408 596.748672 263.140408 
Q 596.748672 261.357908 597.603672 259.822908 
Q 598.458672 258.287908 600.031172 257.377908 
Q 601.606172 256.467908 603.668672 256.452908 
z
M 599.176172 261.607908 
Q 599.113672 262.687908 599.113672 263.187908 
Q 599.113672 264.265408 599.321172 265.272908 
Q 599.528672 266.280408 599.888672 266.687908 
Q 600.146172 266.975408 600.498672 266.975408 
Q 600.856172 266.975408 601.136172 266.557908 
Q 601.418672 266.140408 601.418672 264.857908 
Q 601.418672 262.702908 600.896172 261.882908 
Q 600.561172 261.350408 599.988672 261.350408 
Q 599.676172 261.350408 599.176172 261.607908 
z
"/>
   </g>
   <g id="text_23">
    <path d="M 580.43281 409.122733 
Q 581.480466 409.891483 581.885935 410.554764 
Q 582.293747 411.218046 582.293747 412.075858 
Q 582.293747 413.275858 581.38906 414.107889 
Q 580.484372 414.939921 578.93281 414.939921 
Q 577.460935 414.939921 576.654685 414.215702 
Q 575.848435 413.489139 575.848435 412.441483 
Q 575.848435 411.642264 576.312497 411.042264 
Q 576.778904 410.442264 577.861716 409.943046 
Q 576.68281 409.043046 576.349997 408.471171 
Q 576.017185 407.899296 576.017185 407.144608 
Q 576.017185 406.148514 576.863279 405.391483 
Q 577.709372 404.634452 579.181247 404.634452 
Q 580.60156 404.634452 581.365622 405.304764 
Q 582.132029 405.972733 582.132029 406.910233 
Q 582.132029 407.613358 581.717185 408.152421 
Q 581.304685 408.691483 580.43281 409.122733 
z
M 579.877341 408.750077 
Q 580.146872 408.384452 580.278122 407.929764 
Q 580.411716 407.475077 580.411716 406.933671 
Q 580.411716 405.982108 580.00156 405.475858 
Q 579.694529 405.086796 579.150779 405.086796 
Q 578.660935 405.086796 578.316404 405.443046 
Q 577.971872 405.796952 577.971872 406.324296 
Q 577.971872 406.861014 578.356247 407.435233 
Q 578.740622 408.009452 579.877341 408.750077 
z
M 578.412497 410.294608 
Q 578.185154 410.500858 578.08906 410.669608 
Q 577.943747 410.925077 577.82656 411.417264 
Q 577.709372 411.907108 577.709372 412.441483 
Q 577.709372 413.130546 577.885154 413.594608 
Q 578.060935 414.058671 578.386716 414.264921 
Q 578.712497 414.468827 579.057029 414.468827 
Q 579.591404 414.468827 579.957029 414.077421 
Q 580.322654 413.686014 580.322654 413.003983 
Q 580.322654 411.583671 578.412497 410.294608 
z
M 584.696091 412.476639 
Q 585.209372 412.476639 585.563279 412.837577 
Q 585.919529 413.196171 585.919529 413.700077 
Q 585.919529 414.206327 585.560935 414.562577 
Q 585.202341 414.916483 584.696091 414.916483 
Q 584.189841 414.916483 583.833591 414.562577 
Q 583.479685 414.206327 583.479685 413.700077 
Q 583.479685 413.196171 583.833591 412.837577 
Q 584.189841 412.476639 584.696091 412.476639 
z
M 592.782029 414.733671 
L 586.936716 414.733671 
L 586.936716 414.571952 
Q 589.624997 411.372733 590.199216 410.266483 
Q 590.775779 409.160233 590.775779 408.105546 
Q 590.775779 407.336796 590.299997 406.828202 
Q 589.824216 406.317264 589.135154 406.317264 
Q 588.00781 406.317264 587.384372 407.446952 
L 587.112497 407.350858 
Q 587.508591 405.944608 588.314841 405.271952 
Q 589.121091 404.596952 590.175779 404.596952 
Q 590.928122 404.596952 591.55156 404.948514 
Q 592.174997 405.300077 592.52656 405.911796 
Q 592.878122 406.523514 592.878122 407.057889 
Q 592.878122 408.032889 592.334372 409.036014 
Q 591.596091 410.390702 589.104685 412.814139 
L 591.25156 412.814139 
Q 592.041404 412.814139 592.280466 412.748514 
Q 592.519529 412.682889 592.671872 412.525858 
Q 592.82656 412.368827 593.074997 411.862577 
L 593.339841 411.862577 
L 592.782029 414.733671 
z
" style="fill: #404040; stroke: #ffffff; stroke-width: 3.8"/>
    <path d="M 580.43281 409.122733 
Q 581.480466 409.891483 581.885935 410.554764 
Q 582.293747 411.218046 582.293747 412.075858 
Q 582.293747 413.275858 581.38906 414.107889 
Q 580.484372 414.939921 578.93281 414.939921 
Q 577.460935 414.939921 576.654685 414.215702 
Q 575.848435 413.489139 575.848435 412.441483 
Q 575.848435 411.642264 576.312497 411.042264 
Q 576.778904 410.442264 577.861716 409.943046 
Q 576.68281 409.043046 576.349997 408.471171 
Q 576.017185 407.899296 576.017185 407.144608 
Q 576.017185 406.148514 576.863279 405.391483 
Q 577.709372 404.634452 579.181247 404.634452 
Q 580.60156 404.634452 581.365622 405.304764 
Q 582.132029 405.972733 582.132029 406.910233 
Q 582.132029 407.613358 581.717185 408.152421 
Q 581.304685 408.691483 580.43281 409.122733 
z
M 579.877341 408.750077 
Q 580.146872 408.384452 580.278122 407.929764 
Q 580.411716 407.475077 580.411716 406.933671 
Q 580.411716 405.982108 580.00156 405.475858 
Q 579.694529 405.086796 579.150779 405.086796 
Q 578.660935 405.086796 578.316404 405.443046 
Q 577.971872 405.796952 577.971872 406.324296 
Q 577.971872 406.861014 578.356247 407.435233 
Q 578.740622 408.009452 579.877341 408.750077 
z
M 578.412497 410.294608 
Q 578.185154 410.500858 578.08906 410.669608 
Q 577.943747 410.925077 577.82656 411.417264 
Q 577.709372 411.907108 577.709372 412.441483 
Q 577.709372 413.130546 577.885154 413.594608 
Q 578.060935 414.058671 578.386716 414.264921 
Q 578.712497 414.468827 579.057029 414.468827 
Q 579.591404 414.468827 579.957029 414.077421 
Q 580.322654 413.686014 580.322654 413.003983 
Q 580.322654 411.583671 578.412497 410.294608 
z
M 584.696091 412.476639 
Q 585.209372 412.476639 585.563279 412.837577 
Q 585.919529 413.196171 585.919529 413.700077 
Q 585.919529 414.206327 585.560935 414.562577 
Q 585.202341 414.916483 584.696091 414.916483 
Q 584.189841 414.916483 583.833591 414.562577 
Q 583.479685 414.206327 583.479685 413.700077 
Q 583.479685 413.196171 583.833591 412.837577 
Q 584.189841 412.476639 584.696091 412.476639 
z
M 592.782029 414.733671 
L 586.936716 414.733671 
L 586.936716 414.571952 
Q 589.624997 411.372733 590.199216 410.266483 
Q 590.775779 409.160233 590.775779 408.105546 
Q 590.775779 407.336796 590.299997 406.828202 
Q 589.824216 406.317264 589.135154 406.317264 
Q 588.00781 406.317264 587.384372 407.446952 
L 587.112497 407.350858 
Q 587.508591 405.944608 588.314841 405.271952 
Q 589.121091 404.596952 590.175779 404.596952 
Q 590.928122 404.596952 591.55156 404.948514 
Q 592.174997 405.300077 592.52656 405.911796 
Q 592.878122 406.523514 592.878122 407.057889 
Q 592.878122 408.032889 592.334372 409.036014 
Q 591.596091 410.390702 589.104685 412.814139 
L 591.25156 412.814139 
Q 592.041404 412.814139 592.280466 412.748514 
Q 592.519529 412.682889 592.671872 412.525858 
Q 592.82656 412.368827 593.074997 411.862577 
L 593.339841 411.862577 
L 592.782029 414.733671 
z
" style="fill: #404040"/>
   </g>
   <g id="text_24">
    <path d="M 565.211768 380.5145 
L 559.366455 380.5145 
L 559.366455 380.352781 
Q 562.054736 377.153562 562.628955 376.047312 
Q 563.205518 374.941062 563.205518 373.886375 
Q 563.205518 373.117625 562.729736 372.609031 
Q 562.253955 372.098094 561.564893 372.098094 
Q 560.437549 372.098094 559.814111 373.227781 
L 559.542236 373.131687 
Q 559.93833 371.725437 560.74458 371.052781 
Q 561.55083 370.377781 562.605518 370.377781 
Q 563.357861 370.377781 563.981299 370.729344 
Q 564.604736 371.080906 564.956299 371.692625 
Q 565.307861 372.304344 565.307861 372.838719 
Q 565.307861 373.813719 564.764111 374.816844 
Q 564.02583 376.171531 561.534424 378.594969 
L 563.681299 378.594969 
Q 564.471143 378.594969 564.710205 378.529344 
Q 564.949268 378.463719 565.101611 378.306687 
Q 565.256299 378.149656 565.504736 377.643406 
L 565.76958 377.643406 
L 565.211768 380.5145 
z
M 573.452393 375.548094 
Q 573.452393 377.036375 573.035205 378.325437 
Q 572.784424 379.115281 572.362549 379.621531 
Q 571.943018 380.125437 571.408643 380.423094 
Q 570.874268 380.72075 570.243799 380.72075 
Q 569.526611 380.72075 568.947705 380.355125 
Q 568.368799 379.987156 567.921143 379.305125 
Q 567.600049 378.80825 567.358643 377.980906 
Q 567.042236 376.860594 567.042236 375.665281 
Q 567.042236 374.048094 567.496924 372.691062 
Q 567.86958 371.57075 568.631299 370.975437 
Q 569.393018 370.377781 570.243799 370.377781 
Q 571.108643 370.377781 571.858643 370.968406 
Q 572.608643 371.556687 572.960205 372.552781 
Q 573.452393 373.921531 573.452393 375.548094 
z
M 571.195361 375.534031 
Q 571.195361 372.925437 571.167236 372.494187 
Q 571.092236 371.477 570.815674 371.118406 
Q 570.632861 370.884031 570.222705 370.884031 
Q 569.906299 370.884031 569.723486 371.059812 
Q 569.451611 371.315281 569.355518 371.9645 
Q 569.261768 372.611375 569.261768 376.485594 
Q 569.261768 378.594969 569.409424 379.312156 
Q 569.51958 379.832469 569.723486 380.00825 
Q 569.929736 380.184031 570.264893 380.184031 
Q 570.632861 380.184031 570.815674 379.949656 
Q 571.122705 379.5395 571.167236 378.684031 
L 571.195361 375.534031 
z
M 578.885205 370.377781 
L 578.885205 378.501219 
Q 578.885205 379.415281 578.964893 379.668406 
Q 579.046924 379.921531 579.302393 380.08325 
Q 579.560205 380.242625 580.125049 380.242625 
L 580.350049 380.242625 
L 580.350049 380.5145 
L 575.121143 380.5145 
L 575.121143 380.242625 
L 575.385986 380.242625 
Q 576.023486 380.242625 576.293018 380.097312 
Q 576.564893 379.949656 576.658643 379.694187 
Q 576.754736 379.438719 576.754736 378.501219 
L 576.754736 373.352 
Q 576.754736 372.662937 576.689111 372.491844 
Q 576.623486 372.318406 576.443018 372.198875 
Q 576.264893 372.077 576.030518 372.077 
Q 575.655518 372.077 575.121143 372.311375 
L 574.989893 372.046531 
L 578.643799 370.377781 
L 578.885205 370.377781 
z
M 583.37583 378.257469 
Q 583.889111 378.257469 584.243018 378.618406 
Q 584.599268 378.977 584.599268 379.480906 
Q 584.599268 379.987156 584.240674 380.343406 
Q 583.88208 380.697312 583.37583 380.697312 
Q 582.86958 380.697312 582.51333 380.343406 
Q 582.159424 379.987156 582.159424 379.480906 
Q 582.159424 378.977 582.51333 378.618406 
Q 582.86958 378.257469 583.37583 378.257469 
z
M 587.908643 380.72075 
L 590.61333 372.524656 
L 588.553174 372.524656 
Q 587.346143 372.524656 586.736768 372.838719 
Q 586.312549 373.059031 586.033643 373.666062 
L 585.75708 373.666062 
L 586.474268 370.581687 
L 592.392236 370.581687 
L 589.059424 380.72075 
L 587.908643 380.72075 
z
" style="fill: #404040; stroke: #ffffff; stroke-width: 3.8"/>
    <path d="M 565.211768 380.5145 
L 559.366455 380.5145 
L 559.366455 380.352781 
Q 562.054736 377.153562 562.628955 376.047312 
Q 563.205518 374.941062 563.205518 373.886375 
Q 563.205518 373.117625 562.729736 372.609031 
Q 562.253955 372.098094 561.564893 372.098094 
Q 560.437549 372.098094 559.814111 373.227781 
L 559.542236 373.131687 
Q 559.93833 371.725437 560.74458 371.052781 
Q 561.55083 370.377781 562.605518 370.377781 
Q 563.357861 370.377781 563.981299 370.729344 
Q 564.604736 371.080906 564.956299 371.692625 
Q 565.307861 372.304344 565.307861 372.838719 
Q 565.307861 373.813719 564.764111 374.816844 
Q 564.02583 376.171531 561.534424 378.594969 
L 563.681299 378.594969 
Q 564.471143 378.594969 564.710205 378.529344 
Q 564.949268 378.463719 565.101611 378.306687 
Q 565.256299 378.149656 565.504736 377.643406 
L 565.76958 377.643406 
L 565.211768 380.5145 
z
M 573.452393 375.548094 
Q 573.452393 377.036375 573.035205 378.325437 
Q 572.784424 379.115281 572.362549 379.621531 
Q 571.943018 380.125437 571.408643 380.423094 
Q 570.874268 380.72075 570.243799 380.72075 
Q 569.526611 380.72075 568.947705 380.355125 
Q 568.368799 379.987156 567.921143 379.305125 
Q 567.600049 378.80825 567.358643 377.980906 
Q 567.042236 376.860594 567.042236 375.665281 
Q 567.042236 374.048094 567.496924 372.691062 
Q 567.86958 371.57075 568.631299 370.975437 
Q 569.393018 370.377781 570.243799 370.377781 
Q 571.108643 370.377781 571.858643 370.968406 
Q 572.608643 371.556687 572.960205 372.552781 
Q 573.452393 373.921531 573.452393 375.548094 
z
M 571.195361 375.534031 
Q 571.195361 372.925437 571.167236 372.494187 
Q 571.092236 371.477 570.815674 371.118406 
Q 570.632861 370.884031 570.222705 370.884031 
Q 569.906299 370.884031 569.723486 371.059812 
Q 569.451611 371.315281 569.355518 371.9645 
Q 569.261768 372.611375 569.261768 376.485594 
Q 569.261768 378.594969 569.409424 379.312156 
Q 569.51958 379.832469 569.723486 380.00825 
Q 569.929736 380.184031 570.264893 380.184031 
Q 570.632861 380.184031 570.815674 379.949656 
Q 571.122705 379.5395 571.167236 378.684031 
L 571.195361 375.534031 
z
M 578.885205 370.377781 
L 578.885205 378.501219 
Q 578.885205 379.415281 578.964893 379.668406 
Q 579.046924 379.921531 579.302393 380.08325 
Q 579.560205 380.242625 580.125049 380.242625 
L 580.350049 380.242625 
L 580.350049 380.5145 
L 575.121143 380.5145 
L 575.121143 380.242625 
L 575.385986 380.242625 
Q 576.023486 380.242625 576.293018 380.097312 
Q 576.564893 379.949656 576.658643 379.694187 
Q 576.754736 379.438719 576.754736 378.501219 
L 576.754736 373.352 
Q 576.754736 372.662937 576.689111 372.491844 
Q 576.623486 372.318406 576.443018 372.198875 
Q 576.264893 372.077 576.030518 372.077 
Q 575.655518 372.077 575.121143 372.311375 
L 574.989893 372.046531 
L 578.643799 370.377781 
L 578.885205 370.377781 
z
M 583.37583 378.257469 
Q 583.889111 378.257469 584.243018 378.618406 
Q 584.599268 378.977 584.599268 379.480906 
Q 584.599268 379.987156 584.240674 380.343406 
Q 583.88208 380.697312 583.37583 380.697312 
Q 582.86958 380.697312 582.51333 380.343406 
Q 582.159424 379.987156 582.159424 379.480906 
Q 582.159424 378.977 582.51333 378.618406 
Q 582.86958 378.257469 583.37583 378.257469 
z
M 587.908643 380.72075 
L 590.61333 372.524656 
L 588.553174 372.524656 
Q 587.346143 372.524656 586.736768 372.838719 
Q 586.312549 373.059031 586.033643 373.666062 
L 585.75708 373.666062 
L 586.474268 370.581687 
L 592.392236 370.581687 
L 589.059424 380.72075 
L 587.908643 380.72075 
z
" style="fill: #404040"/>
   </g>
   <g id="text_25">
    <path d="M 469.448681 273.12332 
L 463.603369 273.12332 
L 463.603369 272.961601 
Q 466.29165 269.762383 466.865869 268.656133 
Q 467.442431 267.549883 467.442431 266.495195 
Q 467.442431 265.726445 466.96665 265.217851 
Q 466.490869 264.706914 465.801806 264.706914 
Q 464.674463 264.706914 464.051025 265.836601 
L 463.77915 265.740508 
Q 464.175244 264.334258 464.981494 263.661601 
Q 465.787744 262.986601 466.842431 262.986601 
Q 467.594775 262.986601 468.218213 263.338164 
Q 468.84165 263.689726 469.193213 264.301445 
Q 469.544775 264.913164 469.544775 265.447539 
Q 469.544775 266.422539 469.001025 267.425664 
Q 468.262744 268.780351 465.771338 271.203789 
L 467.918213 271.203789 
Q 468.708056 271.203789 468.947119 271.138164 
Q 469.186181 271.072539 469.338525 270.915508 
Q 469.493213 270.758476 469.74165 270.252226 
L 470.006494 270.252226 
L 469.448681 273.12332 
z
M 471.199463 273.32957 
L 471.199463 273.12332 
Q 472.415869 272.844414 473.261963 272.303008 
Q 474.108056 271.761601 474.600244 270.962383 
Q 475.094775 270.163164 475.293994 269.124883 
Q 474.839306 269.359258 474.520556 269.450664 
Q 474.201806 269.54207 473.850244 269.54207 
Q 472.7229 269.54207 471.970556 268.728789 
Q 471.220556 267.915508 471.220556 266.502226 
Q 471.220556 265.520195 471.626025 264.70457 
Q 472.033838 263.886601 472.788525 263.436601 
Q 473.543213 262.986601 474.356494 262.986601 
Q 475.228369 262.986601 476.00415 263.48582 
Q 476.779931 263.982695 477.24165 264.927226 
Q 477.703369 265.871758 477.703369 267.081133 
Q 477.703369 268.649101 476.951025 270.08582 
Q 476.201025 271.520195 474.715088 272.387383 
Q 473.22915 273.25457 471.199463 273.32957 
z
M 475.40415 268.508476 
Q 475.476806 267.688164 475.476806 267.06707 
Q 475.476806 265.733476 475.169775 264.582695 
Q 474.993994 263.945195 474.649463 263.645195 
Q 474.46665 263.483476 474.173681 263.483476 
Q 473.805713 263.483476 473.601806 263.799883 
Q 473.315869 264.231133 473.315869 265.447539 
Q 473.315869 267.477226 473.798681 268.245976 
Q 474.115088 268.742851 474.649463 268.742851 
Q 474.9354 268.742851 475.40415 268.508476 
z
M 485.189306 268.156914 
Q 485.189306 269.645195 484.772119 270.934258 
Q 484.521338 271.724101 484.099463 272.230351 
Q 483.679931 272.734258 483.145556 273.031914 
Q 482.611181 273.32957 481.980713 273.32957 
Q 481.263525 273.32957 480.684619 272.963945 
Q 480.105713 272.595976 479.658056 271.913945 
Q 479.336963 271.41707 479.095556 270.589726 
Q 478.77915 269.469414 478.77915 268.274101 
Q 478.77915 266.656914 479.233838 265.299883 
Q 479.606494 264.17957 480.368213 263.584258 
Q 481.129931 262.986601 481.980713 262.986601 
Q 482.845556 262.986601 483.595556 263.577226 
Q 484.345556 264.165508 484.697119 265.161601 
Q 485.189306 266.530351 485.189306 268.156914 
z
M 482.932275 268.142851 
Q 482.932275 265.534258 482.90415 265.103008 
Q 482.82915 264.08582 482.552588 263.727226 
Q 482.369775 263.492851 481.959619 263.492851 
Q 481.643213 263.492851 481.4604 263.668633 
Q 481.188525 263.924101 481.092431 264.57332 
Q 480.998681 265.220195 480.998681 269.094414 
Q 480.998681 271.203789 481.146338 271.920976 
Q 481.256494 272.441289 481.4604 272.61707 
Q 481.66665 272.792851 482.001806 272.792851 
Q 482.369775 272.792851 482.552588 272.558476 
Q 482.859619 272.14832 482.90415 271.292851 
L 482.932275 268.142851 
z
M 487.612744 270.866289 
Q 488.126025 270.866289 488.479931 271.227226 
Q 488.836181 271.58582 488.836181 272.089726 
Q 488.836181 272.595976 488.477588 272.952226 
Q 488.118994 273.306133 487.612744 273.306133 
Q 487.106494 273.306133 486.750244 272.952226 
Q 486.396338 272.595976 486.396338 272.089726 
Q 486.396338 271.58582 486.750244 271.227226 
Q 487.106494 270.866289 487.612744 270.866289 
z
M 496.533056 262.986601 
L 496.533056 263.190508 
Q 495.208838 263.528008 494.404931 264.060039 
Q 493.603369 264.589726 493.136963 265.349101 
Q 492.6729 266.106133 492.417431 267.226445 
Q 492.740869 267.008476 492.951806 266.940508 
Q 493.427588 266.795195 493.912744 266.795195 
Q 495.026025 266.795195 495.768994 267.606133 
Q 496.511963 268.414726 496.511963 269.811601 
Q 496.511963 270.793633 496.108838 271.613945 
Q 495.705713 272.434258 494.965088 272.881914 
Q 494.226806 273.32957 493.3854 273.32957 
Q 492.468994 273.32957 491.690869 272.828008 
Q 490.915088 272.324101 490.47915 271.358476 
Q 490.045556 270.390508 490.045556 269.256133 
Q 490.045556 267.585039 490.847119 266.145976 
Q 491.648681 264.706914 493.1229 263.853789 
Q 494.599463 263.000664 496.533056 262.986601 
z
M 492.321338 267.819414 
Q 492.262744 268.831914 492.262744 269.300664 
Q 492.262744 270.31082 492.457275 271.255351 
Q 492.651806 272.199883 492.989306 272.581914 
Q 493.230713 272.851445 493.561181 272.851445 
Q 493.896338 272.851445 494.158838 272.460039 
Q 494.423681 272.068633 494.423681 270.866289 
Q 494.423681 268.845976 493.933838 268.077226 
Q 493.619775 267.578008 493.083056 267.578008 
Q 492.790088 267.578008 492.321338 267.819414 
z
" style="fill: #404040; stroke: #ffffff; stroke-width: 3.8"/>
    <path d="M 469.448681 273.12332 
L 463.603369 273.12332 
L 463.603369 272.961601 
Q 466.29165 269.762383 466.865869 268.656133 
Q 467.442431 267.549883 467.442431 266.495195 
Q 467.442431 265.726445 466.96665 265.217851 
Q 466.490869 264.706914 465.801806 264.706914 
Q 464.674463 264.706914 464.051025 265.836601 
L 463.77915 265.740508 
Q 464.175244 264.334258 464.981494 263.661601 
Q 465.787744 262.986601 466.842431 262.986601 
Q 467.594775 262.986601 468.218213 263.338164 
Q 468.84165 263.689726 469.193213 264.301445 
Q 469.544775 264.913164 469.544775 265.447539 
Q 469.544775 266.422539 469.001025 267.425664 
Q 468.262744 268.780351 465.771338 271.203789 
L 467.918213 271.203789 
Q 468.708056 271.203789 468.947119 271.138164 
Q 469.186181 271.072539 469.338525 270.915508 
Q 469.493213 270.758476 469.74165 270.252226 
L 470.006494 270.252226 
L 469.448681 273.12332 
z
M 471.199463 273.32957 
L 471.199463 273.12332 
Q 472.415869 272.844414 473.261963 272.303008 
Q 474.108056 271.761601 474.600244 270.962383 
Q 475.094775 270.163164 475.293994 269.124883 
Q 474.839306 269.359258 474.520556 269.450664 
Q 474.201806 269.54207 473.850244 269.54207 
Q 472.7229 269.54207 471.970556 268.728789 
Q 471.220556 267.915508 471.220556 266.502226 
Q 471.220556 265.520195 471.626025 264.70457 
Q 472.033838 263.886601 472.788525 263.436601 
Q 473.543213 262.986601 474.356494 262.986601 
Q 475.228369 262.986601 476.00415 263.48582 
Q 476.779931 263.982695 477.24165 264.927226 
Q 477.703369 265.871758 477.703369 267.081133 
Q 477.703369 268.649101 476.951025 270.08582 
Q 476.201025 271.520195 474.715088 272.387383 
Q 473.22915 273.25457 471.199463 273.32957 
z
M 475.40415 268.508476 
Q 475.476806 267.688164 475.476806 267.06707 
Q 475.476806 265.733476 475.169775 264.582695 
Q 474.993994 263.945195 474.649463 263.645195 
Q 474.46665 263.483476 474.173681 263.483476 
Q 473.805713 263.483476 473.601806 263.799883 
Q 473.315869 264.231133 473.315869 265.447539 
Q 473.315869 267.477226 473.798681 268.245976 
Q 474.115088 268.742851 474.649463 268.742851 
Q 474.9354 268.742851 475.40415 268.508476 
z
M 485.189306 268.156914 
Q 485.189306 269.645195 484.772119 270.934258 
Q 484.521338 271.724101 484.099463 272.230351 
Q 483.679931 272.734258 483.145556 273.031914 
Q 482.611181 273.32957 481.980713 273.32957 
Q 481.263525 273.32957 480.684619 272.963945 
Q 480.105713 272.595976 479.658056 271.913945 
Q 479.336963 271.41707 479.095556 270.589726 
Q 478.77915 269.469414 478.77915 268.274101 
Q 478.77915 266.656914 479.233838 265.299883 
Q 479.606494 264.17957 480.368213 263.584258 
Q 481.129931 262.986601 481.980713 262.986601 
Q 482.845556 262.986601 483.595556 263.577226 
Q 484.345556 264.165508 484.697119 265.161601 
Q 485.189306 266.530351 485.189306 268.156914 
z
M 482.932275 268.142851 
Q 482.932275 265.534258 482.90415 265.103008 
Q 482.82915 264.08582 482.552588 263.727226 
Q 482.369775 263.492851 481.959619 263.492851 
Q 481.643213 263.492851 481.4604 263.668633 
Q 481.188525 263.924101 481.092431 264.57332 
Q 480.998681 265.220195 480.998681 269.094414 
Q 480.998681 271.203789 481.146338 271.920976 
Q 481.256494 272.441289 481.4604 272.61707 
Q 481.66665 272.792851 482.001806 272.792851 
Q 482.369775 272.792851 482.552588 272.558476 
Q 482.859619 272.14832 482.90415 271.292851 
L 482.932275 268.142851 
z
M 487.612744 270.866289 
Q 488.126025 270.866289 488.479931 271.227226 
Q 488.836181 271.58582 488.836181 272.089726 
Q 488.836181 272.595976 488.477588 272.952226 
Q 488.118994 273.306133 487.612744 273.306133 
Q 487.106494 273.306133 486.750244 272.952226 
Q 486.396338 272.595976 486.396338 272.089726 
Q 486.396338 271.58582 486.750244 271.227226 
Q 487.106494 270.866289 487.612744 270.866289 
z
M 496.533056 262.986601 
L 496.533056 263.190508 
Q 495.208838 263.528008 494.404931 264.060039 
Q 493.603369 264.589726 493.136963 265.349101 
Q 492.6729 266.106133 492.417431 267.226445 
Q 492.740869 267.008476 492.951806 266.940508 
Q 493.427588 266.795195 493.912744 266.795195 
Q 495.026025 266.795195 495.768994 267.606133 
Q 496.511963 268.414726 496.511963 269.811601 
Q 496.511963 270.793633 496.108838 271.613945 
Q 495.705713 272.434258 494.965088 272.881914 
Q 494.226806 273.32957 493.3854 273.32957 
Q 492.468994 273.32957 491.690869 272.828008 
Q 490.915088 272.324101 490.47915 271.358476 
Q 490.045556 270.390508 490.045556 269.256133 
Q 490.045556 267.585039 490.847119 266.145976 
Q 491.648681 264.706914 493.1229 263.853789 
Q 494.599463 263.000664 496.533056 262.986601 
z
M 492.321338 267.819414 
Q 492.262744 268.831914 492.262744 269.300664 
Q 492.262744 270.31082 492.457275 271.255351 
Q 492.651806 272.199883 492.989306 272.581914 
Q 493.230713 272.851445 493.561181 272.851445 
Q 493.896338 272.851445 494.158838 272.460039 
Q 494.423681 272.068633 494.423681 270.866289 
Q 494.423681 268.845976 493.933838 268.077226 
Q 493.619775 267.578008 493.083056 267.578008 
Q 492.790088 267.578008 492.321338 267.819414 
z
" style="fill: #404040"/>
   </g>
   <g id="text_26">
    <path d="M 330.272992 343.229722 
Q 330.272992 344.718003 329.855804 346.007065 
Q 329.605023 346.796909 329.183148 347.303159 
Q 328.763617 347.807065 328.229242 348.104722 
Q 327.694867 348.402378 327.064398 348.402378 
Q 326.347211 348.402378 325.768304 348.036753 
Q 325.189398 347.668784 324.741742 346.986753 
Q 324.420648 346.489878 324.179242 345.662534 
Q 323.862836 344.542222 323.862836 343.346909 
Q 323.862836 341.729722 324.317523 340.37269 
Q 324.690179 339.252378 325.451898 338.657065 
Q 326.213617 338.059409 327.064398 338.059409 
Q 327.929242 338.059409 328.679242 338.650034 
Q 329.429242 339.238315 329.780804 340.234409 
Q 330.272992 341.603159 330.272992 343.229722 
z
M 328.015961 343.215659 
Q 328.015961 340.607065 327.987836 340.175815 
Q 327.912836 339.158628 327.636273 338.800034 
Q 327.453461 338.565659 327.043304 338.565659 
Q 326.726898 338.565659 326.544086 338.74144 
Q 326.272211 338.996909 326.176117 339.646128 
Q 326.082367 340.293003 326.082367 344.167222 
Q 326.082367 346.276597 326.230023 346.993784 
Q 326.340179 347.514097 326.544086 347.689878 
Q 326.750336 347.865659 327.085492 347.865659 
Q 327.453461 347.865659 327.636273 347.631284 
Q 327.943304 347.221128 327.987836 346.365659 
L 328.015961 343.215659 
z
M 332.696429 345.939097 
Q 333.209711 345.939097 333.563617 346.300034 
Q 333.919867 346.658628 333.919867 347.162534 
Q 333.919867 347.668784 333.561273 348.025034 
Q 333.202679 348.37894 332.696429 348.37894 
Q 332.190179 348.37894 331.833929 348.025034 
Q 331.480023 347.668784 331.480023 347.162534 
Q 331.480023 346.658628 331.833929 346.300034 
Q 332.190179 345.939097 332.696429 345.939097 
z
M 339.455804 338.059409 
L 339.455804 346.182847 
Q 339.455804 347.096909 339.535492 347.350034 
Q 339.617523 347.603159 339.872992 347.764878 
Q 340.130804 347.924253 340.695648 347.924253 
L 340.920648 347.924253 
L 340.920648 348.196128 
L 335.691742 348.196128 
L 335.691742 347.924253 
L 335.956586 347.924253 
Q 336.594086 347.924253 336.863617 347.77894 
Q 337.135492 347.631284 337.229242 347.375815 
Q 337.325336 347.120347 337.325336 346.182847 
L 337.325336 341.033628 
Q 337.325336 340.344565 337.259711 340.173472 
Q 337.194086 340.000034 337.013617 339.880503 
Q 336.835492 339.758628 336.601117 339.758628 
Q 336.226117 339.758628 335.691742 339.993003 
L 335.560492 339.728159 
L 339.214398 338.059409 
L 339.455804 338.059409 
z
" style="fill: #404040; stroke: #ffffff; stroke-width: 3.8"/>
    <path d="M 330.272992 343.229722 
Q 330.272992 344.718003 329.855804 346.007065 
Q 329.605023 346.796909 329.183148 347.303159 
Q 328.763617 347.807065 328.229242 348.104722 
Q 327.694867 348.402378 327.064398 348.402378 
Q 326.347211 348.402378 325.768304 348.036753 
Q 325.189398 347.668784 324.741742 346.986753 
Q 324.420648 346.489878 324.179242 345.662534 
Q 323.862836 344.542222 323.862836 343.346909 
Q 323.862836 341.729722 324.317523 340.37269 
Q 324.690179 339.252378 325.451898 338.657065 
Q 326.213617 338.059409 327.064398 338.059409 
Q 327.929242 338.059409 328.679242 338.650034 
Q 329.429242 339.238315 329.780804 340.234409 
Q 330.272992 341.603159 330.272992 343.229722 
z
M 328.015961 343.215659 
Q 328.015961 340.607065 327.987836 340.175815 
Q 327.912836 339.158628 327.636273 338.800034 
Q 327.453461 338.565659 327.043304 338.565659 
Q 326.726898 338.565659 326.544086 338.74144 
Q 326.272211 338.996909 326.176117 339.646128 
Q 326.082367 340.293003 326.082367 344.167222 
Q 326.082367 346.276597 326.230023 346.993784 
Q 326.340179 347.514097 326.544086 347.689878 
Q 326.750336 347.865659 327.085492 347.865659 
Q 327.453461 347.865659 327.636273 347.631284 
Q 327.943304 347.221128 327.987836 346.365659 
L 328.015961 343.215659 
z
M 332.696429 345.939097 
Q 333.209711 345.939097 333.563617 346.300034 
Q 333.919867 346.658628 333.919867 347.162534 
Q 333.919867 347.668784 333.561273 348.025034 
Q 333.202679 348.37894 332.696429 348.37894 
Q 332.190179 348.37894 331.833929 348.025034 
Q 331.480023 347.668784 331.480023 347.162534 
Q 331.480023 346.658628 331.833929 346.300034 
Q 332.190179 345.939097 332.696429 345.939097 
z
M 339.455804 338.059409 
L 339.455804 346.182847 
Q 339.455804 347.096909 339.535492 347.350034 
Q 339.617523 347.603159 339.872992 347.764878 
Q 340.130804 347.924253 340.695648 347.924253 
L 340.920648 347.924253 
L 340.920648 348.196128 
L 335.691742 348.196128 
L 335.691742 347.924253 
L 335.956586 347.924253 
Q 336.594086 347.924253 336.863617 347.77894 
Q 337.135492 347.631284 337.229242 347.375815 
Q 337.325336 347.120347 337.325336 346.182847 
L 337.325336 341.033628 
Q 337.325336 340.344565 337.259711 340.173472 
Q 337.194086 340.000034 337.013617 339.880503 
Q 336.835492 339.758628 336.601117 339.758628 
Q 336.226117 339.758628 335.691742 339.993003 
L 335.560492 339.728159 
L 339.214398 338.059409 
L 339.455804 338.059409 
z
" style="fill: #404040"/>
   </g>
  </g>
 </g>
 <defs>
  <clipPath id="p54a36d2fee">
   <rect x="7.2" y="51.034687" width="730.764" height="438.48"/>
  </clipPath>
 </defs>
</svg>
