<?xml version="1.0" encoding="utf-8" standalone="no"?>
<!DOCTYPE svg PUBLIC "-//W3C//DTD SVG 1.1//EN"
  "http://www.w3.org/Graphics/SVG/1.1/DTD/svg11.dtd">
<svg xmlns:xlink="http://www.w3.org/1999/xlink" width="745.164pt" height="496.204623pt" viewBox="0 0 745.164 496.204623" xmlns="http://www.w3.org/2000/svg" version="1.1">
 <metadata>
  <rdf:RDF xmlns:dc="http://purl.org/dc/elements/1.1/" xmlns:cc="http://creativecommons.org/ns#" xmlns:rdf="http://www.w3.org/1999/02/22-rdf-syntax-ns#">
   <cc:Work>
    <dc:type rdf:resource="http://purl.org/dc/dcmitype/StillImage"/>
    <dc:date>2026-07-13T16:58:41.545911</dc:date>
    <dc:format>image/svg+xml</dc:format>
    <dc:creator>
     <cc:Agent>
      <dc:title>Matplotlib v3.10.8, https://matplotlib.org/</dc:title>
     </cc:Agent>
    </dc:creator>
   </cc:Work>
  </rdf:RDF>
 </metadata>
 <defs>
  <style type="text/css">*{stroke-linejoin: round; stroke-linecap: butt}</style>
 </defs>
 <g id="figure_1">
  <g id="patch_1">
   <path d="M 0 496.204623 
L 745.164 496.204623 
L 745.164 0 
L 0 0 
L 0 496.204623 
z
" style="fill: none"/>
  </g>
  <g id="axes_1">
   <g id="patch_2">
    <path d="M 120.350555 444.593856 
Q 120.350555 461.761701 120.350555 476.171095 
" clip-path="url(#pe14d19024c)" style="fill: none; stroke: #111111; stroke-width: 2.467233; stroke-linejoin: miter; stroke-linecap: round"/>
    <path d="M 124.084069 468.704066 
L 120.350555 476.171095 
L 116.61704 468.704066 
z
" clip-path="url(#pe14d19024c)" style="fill: #111111; stroke: #111111; stroke-width: 2.467233; stroke-linejoin: miter; stroke-linecap: round"/>
   </g>
   <g id="patch_3">
    <path d="M 120.350555 362.190292 
Q 120.350555 383.412349 120.350555 400.136835 
" clip-path="url(#pe14d19024c)" style="fill: none; stroke: #111111; stroke-width: 4.02275; stroke-linejoin: miter; stroke-linecap: round"/>
    <path d="M 124.581835 391.674275 
L 120.350555 400.136835 
L 116.119275 391.674275 
z
" clip-path="url(#pe14d19024c)" style="fill: #111111; stroke: #111111; stroke-width: 4.02275; stroke-linejoin: miter; stroke-linecap: round"/>
   </g>
   <g id="patch_4">
    <path d="M 120.350555 266.186946 
Q 120.350555 290.154682 120.350555 307.637821 
" clip-path="url(#pe14d19024c)" style="fill: none; stroke: #111111; stroke-width: 5.8; stroke-linejoin: miter; stroke-linecap: round"/>
    <path d="M 125.150555 298.037821 
L 120.350555 307.637821 
L 115.550555 298.037821 
z
" clip-path="url(#pe14d19024c)" style="fill: #111111; stroke: #111111; stroke-width: 5.8; stroke-linejoin: miter; stroke-linecap: round"/>
   </g>
   <g id="patch_5">
    <path d="M 370.224697 286.055266 
Q 370.224697 303.918867 370.224697 317.959537 
" clip-path="url(#pe14d19024c)" style="fill: none; stroke: #111111; stroke-width: 3.419334; stroke-linejoin: miter; stroke-linecap: round"/>
    <path d="M 374.262884 309.883164 
L 370.224697 317.959537 
L 366.18651 309.883164 
z
" clip-path="url(#pe14d19024c)" style="fill: #111111; stroke: #111111; stroke-width: 3.419334; stroke-linejoin: miter; stroke-linecap: round"/>
   </g>
   <g id="patch_6">
    <path d="M 370.224697 205.919025 
Q 370.224697 225.311663 370.224697 241.040177 
" clip-path="url(#pe14d19024c)" style="fill: none; stroke: #111111; stroke-width: 3.277292; stroke-linejoin: miter; stroke-linecap: round"/>
    <path d="M 374.21743 233.05471 
L 370.224697 241.040177 
L 366.231963 233.05471 
z
" clip-path="url(#pe14d19024c)" style="fill: #111111; stroke: #111111; stroke-width: 3.277292; stroke-linejoin: miter; stroke-linecap: round"/>
   </g>
   <g id="patch_7">
    <path d="M 370.224697 116.320929 
Q 370.224697 138.915458 370.224697 155.886092 
" clip-path="url(#pe14d19024c)" style="fill: none; stroke: #111111; stroke-width: 5.030165; stroke-linejoin: miter; stroke-linecap: round"/>
    <path d="M 374.77835 146.778787 
L 370.224697 155.886092 
L 365.671044 146.778787 
z
" clip-path="url(#pe14d19024c)" style="fill: #111111; stroke: #111111; stroke-width: 5.030165; stroke-linejoin: miter; stroke-linecap: round"/>
   </g>
   <g id="patch_8">
    <path d="M 586.153672 287.528263 
Q 586.153672 311.419987 586.153672 331.674463 
" clip-path="url(#pe14d19024c)" style="fill: none; stroke: #111111; stroke-width: 3.253253; stroke-linejoin: miter; stroke-linecap: round"/>
    <path d="M 590.138713 323.704381 
L 586.153672 331.674463 
L 582.168631 323.704381 
z
" clip-path="url(#pe14d19024c)" style="fill: #111111; stroke: #111111; stroke-width: 3.253253; stroke-linejoin: miter; stroke-linecap: round"/>
   </g>
   <g id="line2d_1">
    <path d="M 165.610777 478.929545 
L 550.322663 478.929545 
" clip-path="url(#pe14d19024c)" style="fill: none; stroke-dasharray: 5.6,4.2; stroke-dashoffset: 0; stroke: #404040; stroke-width: 1.4"/>
   </g>
   <g id="line2d_2">
    <path d="M 165.610777 404.634406 
L 550.322663 404.634406 
" clip-path="url(#pe14d19024c)" style="fill: none; stroke-dasharray: 5.6,4.2; stroke-dashoffset: 0; stroke: #404040; stroke-width: 1.4"/>
   </g>
   <g id="line2d_3">
    <path d="M 574.838617 335.31171 
L 503.176599 335.31171 
" clip-path="url(#pe14d19024c)" style="fill: none; stroke-dasharray: 5.6,4.2; stroke-dashoffset: 0; stroke: #404040; stroke-width: 1.4"/>
   </g>
   <g id="patch_9">
    <path d="M 665.359061 335.31171 
Q 576.102164 405.269961 487.655365 474.59327 
" clip-path="url(#pe14d19024c)" style="fill: none; stroke: #404040; stroke-width: 0.920613; stroke-linejoin: miter; stroke-linecap: round"/>
    <path d="M 493.878233 473.324523 
L 487.655365 474.59327 
L 490.374089 468.853727 
z
" clip-path="url(#pe14d19024c)" style="fill: #404040; stroke: #404040; stroke-width: 0.920613; stroke-linejoin: miter; stroke-linecap: round"/>
   </g>
   <g id="patch_10">
    <path d="M 620.098839 335.31171 
Q 578.236244 368.123 539.558217 398.438272 
" clip-path="url(#pe14d19024c)" style="fill: none; stroke: #404040; stroke-width: 3.619013; stroke-linejoin: miter; stroke-linecap: round"/>
    <path d="M 547.75181 396.767726 
L 539.558217 398.438272 
L 543.137935 390.88107 
z
" clip-path="url(#pe14d19024c)" style="fill: #404040; stroke: #404040; stroke-width: 3.619013; stroke-linejoin: miter; stroke-linecap: round"/>
   </g>
   <g id="patch_11">
    <path d="M 415.484919 321.782469 
Q 477.128677 328.234746 533.405286 334.125241 
" clip-path="url(#pe14d19024c)" style="fill: none; stroke: #404040; stroke-width: 4.82675; stroke-linejoin: miter; stroke-linecap: round"/>
    <path d="M 525.597014 329.143067 
L 533.405286 334.125241 
L 524.734583 337.382555 
z
" clip-path="url(#pe14d19024c)" style="fill: #404040; stroke: #404040; stroke-width: 4.82675; stroke-linejoin: miter; stroke-linecap: round"/>
   </g>
   <g id="patch_12">
    <path d="M 370.224697 321.782469 
Q 334.710963 360.984674 301.561815 397.576706 
" clip-path="url(#pe14d19024c)" style="fill: none; stroke: #404040; stroke-width: 3.150146; stroke-linejoin: miter; stroke-linecap: round"/>
    <path d="M 309.029135 394.67115 
L 301.561815 397.576706 
L 303.717763 389.859516 
z
" clip-path="url(#pe14d19024c)" style="fill: #404040; stroke: #404040; stroke-width: 3.150146; stroke-linejoin: miter; stroke-linecap: round"/>
   </g>
   <g id="line2d_4">
    <path d="M 120.350555 404.634406 
L 120.350555 438.970095 
" clip-path="url(#pe14d19024c)" style="fill: none; stroke: #111111; stroke-width: 2.467233"/>
   </g>
   <g id="line2d_5">
    <path d="M 120.350555 314.122418 
L 120.350555 356.566531 
" clip-path="url(#pe14d19024c)" style="fill: none; stroke: #111111; stroke-width: 4.02275"/>
   </g>
   <g id="line2d_6">
    <path d="M 120.350555 212.627713 
L 120.350555 260.563185 
" clip-path="url(#pe14d19024c)" style="fill: none; stroke: #111111; stroke-width: 5.8"/>
   </g>
   <g id="line2d_7">
    <path d="M 370.224697 244.704301 
L 370.224697 280.431505 
" clip-path="url(#pe14d19024c)" style="fill: none; stroke: #111111; stroke-width: 3.419334"/>
   </g>
   <g id="line2d_8">
    <path d="M 370.224697 161.509988 
L 370.224697 200.295264 
" clip-path="url(#pe14d19024c)" style="fill: none; stroke: #111111; stroke-width: 3.277292"/>
   </g>
   <g id="line2d_9">
    <path d="M 370.224697 65.508109 
L 370.224697 110.697168 
" clip-path="url(#pe14d19024c)" style="fill: none; stroke: #111111; stroke-width: 5.030165"/>
   </g>
   <g id="line2d_10">
    <path d="M 586.153672 234.121056 
L 586.153672 281.904502 
" clip-path="url(#pe14d19024c)" style="fill: none; stroke: #111111; stroke-width: 3.253253"/>
   </g>
   <g id="line2d_11">
    <path d="M 75.090333 478.929545 
L 165.610777 478.929545 
" clip-path="url(#pe14d19024c)" style="fill: none; stroke: #111111; stroke-width: 3.6; stroke-linecap: round"/>
   </g>
   <g id="line2d_12">
    <path d="M 75.090333 404.634406 
L 165.610777 404.634406 
" clip-path="url(#pe14d19024c)" style="fill: none; stroke: #111111; stroke-width: 3.6; stroke-linecap: round"/>
   </g>
   <g id="line2d_13">
    <path d="M 75.090333 314.122418 
L 165.610777 314.122418 
" clip-path="url(#pe14d19024c)" style="fill: none; stroke: #111111; stroke-width: 3.6; stroke-linecap: round"/>
   </g>
   <g id="line2d_14">
    <path d="M 75.090333 212.627713 
L 165.610777 212.627713 
" clip-path="url(#pe14d19024c)" style="fill: none; stroke: #111111; stroke-width: 3.6; stroke-linecap: round"/>
   </g>
   <g id="line2d_15">
    <path d="M 324.964475 321.782469 
L 415.484919 321.782469 
" clip-path="url(#pe14d19024c)" style="fill: none; stroke: #111111; stroke-width: 3.6; stroke-linecap: round"/>
   </g>
   <g id="line2d_16">
    <path d="M 324.964475 244.704301 
L 415.484919 244.704301 
" clip-path="url(#pe14d19024c)" style="fill: none; stroke: #111111; stroke-width: 3.6; stroke-linecap: round"/>
   </g>
   <g id="line2d_17">
    <path d="M 324.964475 161.509988 
L 415.484919 161.509988 
" clip-path="url(#pe14d19024c)" style="fill: none; stroke: #111111; stroke-width: 3.6; stroke-linecap: round"/>
   </g>
   <g id="line2d_18">
    <path d="M 324.964475 65.508109 
L 415.484919 65.508109 
" clip-path="url(#pe14d19024c)" style="fill: none; stroke: #111111; stroke-width: 3.6; stroke-linecap: round"/>
   </g>
   <g id="line2d_19">
    <path d="M 574.838617 335.31171 
L 665.359061 335.31171 
" clip-path="url(#pe14d19024c)" style="fill: none; stroke: #111111; stroke-width: 3.6; stroke-linecap: round"/>
   </g>
   <g id="line2d_20">
    <path d="M 574.838617 234.121056 
L 665.359061 234.121056 
" clip-path="url(#pe14d19024c)" style="fill: none; stroke: #111111; stroke-width: 3.6; stroke-linecap: round"/>
   </g>
   <g id="text_1">
    <!-- $^{88}\mathrm{Ni}$ -->
    <g transform="translate(339.262 33.034687) scale(0.34 -0.34)">
     <defs>
      <path id="DejaVuSans-38" d="M 2034 2216 
Q 1584 2216 1326 1975 
Q 1069 1734 1069 1313 
Q 1069 891 1326 650 
Q 1584 409 2034 409 
Q 2484 409 2743 651 
Q 3003 894 3003 1313 
Q 3003 1734 2745 1975 
Q 2488 2216 2034 2216 
z
M 1403 2484 
Q 997 2584 770 2862 
Q 544 3141 544 3541 
Q 544 4100 942 4425 
Q 1341 4750 2034 4750 
Q 2731 4750 3128 4425 
Q 3525 4100 3525 3541 
Q 3525 3141 3298 2862 
Q 3072 2584 2669 2484 
Q 3125 2378 3379 2068 
Q 3634 1759 3634 1313 
Q 3634 634 3220 271 
Q 2806 -91 2034 -91 
Q 1263 -91 848 271 
Q 434 634 434 1313 
Q 434 1759 690 2068 
Q 947 2378 1403 2484 
z
M 1172 3481 
Q 1172 3119 1398 2916 
Q 1625 2713 2034 2713 
Q 2441 2713 2670 2916 
Q 2900 3119 2900 3481 
Q 2900 3844 2670 4047 
Q 2441 4250 2034 4250 
Q 1625 4250 1398 4047 
Q 1172 3844 1172 3481 
z
" transform="scale(0.015625)"/>
      <path id="DejaVuSans-4e" d="M 628 4666 
L 1478 4666 
L 3547 763 
L 3547 4666 
L 4159 4666 
L 4159 0 
L 3309 0 
L 1241 3903 
L 1241 0 
L 628 0 
L 628 4666 
z
" transform="scale(0.015625)"/>
      <path id="DejaVuSans-69" d="M 603 3500 
L 1178 3500 
L 1178 0 
L 603 0 
L 603 3500 
z
M 603 4863 
L 1178 4863 
L 1178 4134 
L 603 4134 
L 603 4863 
z
" transform="scale(0.015625)"/>
     </defs>
     <use xlink:href="#DejaVuSans-38" transform="translate(0.957031 39.046875) scale(0.7)"/>
     <use xlink:href="#DejaVuSans-38" transform="translate(45.493164 39.046875) scale(0.7)"/>
     <use xlink:href="#DejaVuSans-4e" transform="translate(92.763672 0.765625)"/>
     <use xlink:href="#DejaVuSans-69" transform="translate(167.568359 0.765625)"/>
    </g>
   </g>
   <g id="text_2">
    <!-- 0 -->
    <g transform="translate(46.98525 483.344545) scale(0.16 -0.16)">
     <defs>
      <path id="DejaVuSans-BoldOblique-30" d="M 1913 728 
Q 2153 728 2339 872 
Q 2525 1016 2650 1294 
Q 2738 1491 2809 1742 
Q 2881 1994 2944 2338 
Q 2997 2616 3025 2850 
Q 3053 3084 3053 3250 
Q 3053 3600 2928 3764 
Q 2803 3928 2541 3928 
Q 2297 3928 2112 3789 
Q 1928 3650 1806 3366 
Q 1713 3163 1636 2903 
Q 1559 2644 1503 2338 
Q 1450 2056 1422 1815 
Q 1394 1575 1394 1409 
Q 1394 1063 1522 895 
Q 1650 728 1913 728 
z
M 4225 3072 
Q 4225 2450 4053 1862 
Q 3881 1275 3572 831 
Q 3256 375 2809 142 
Q 2363 -91 1813 -91 
Q 1047 -91 639 343 
Q 231 778 231 1594 
Q 231 2206 401 2795 
Q 572 3384 878 3822 
Q 1200 4281 1644 4515 
Q 2088 4750 2644 4750 
Q 3403 4750 3814 4314 
Q 4225 3878 4225 3072 
z
" transform="scale(0.015625)"/>
     </defs>
     <use xlink:href="#DejaVuSans-BoldOblique-30"/>
    </g>
   </g>
   <g id="text_3">
    <!-- 0⁺ -->
    <g transform="translate(182.58336 484.08478) scale(0.23 -0.23)">
     <defs>
      <path id="TimesNewRomanPS-BoldMT-30" d="M 2966 2119 
Q 2966 1484 2788 934 
Q 2681 597 2501 381 
Q 2322 166 2094 39 
Q 1866 -88 1597 -88 
Q 1291 -88 1044 68 
Q 797 225 606 516 
Q 469 728 366 1081 
Q 231 1559 231 2069 
Q 231 2759 425 3338 
Q 584 3816 909 4070 
Q 1234 4325 1597 4325 
Q 1966 4325 2286 4073 
Q 2606 3822 2756 3397 
Q 2966 2813 2966 2119 
z
M 2003 2125 
Q 2003 3238 1991 3422 
Q 1959 3856 1841 4009 
Q 1763 4109 1588 4109 
Q 1453 4109 1375 4034 
Q 1259 3925 1218 3648 
Q 1178 3372 1178 1719 
Q 1178 819 1241 513 
Q 1288 291 1375 216 
Q 1463 141 1606 141 
Q 1763 141 1841 241 
Q 1972 416 1991 781 
L 2003 2125 
z
" transform="scale(0.015625)"/>
      <path id="DejaVuSerif-Bold-207a" d="M 1916 4344 
L 1916 3441 
L 2950 3441 
L 2950 3044 
L 1916 3044 
L 1916 2141 
L 1463 2141 
L 1463 3044 
L 428 3044 
L 428 3441 
L 1463 3441 
L 1463 4344 
L 1916 4344 
z
" transform="scale(0.015625)"/>
     </defs>
     <use xlink:href="#TimesNewRomanPS-BoldMT-30"/>
     <use xlink:href="#DejaVuSerif-Bold-207a" transform="translate(50 0)"/>
    </g>
   </g>
   <g id="text_4">
    <!-- 1215 -->
    <g transform="translate(13.58775 409.049406) scale(0.16 -0.16)">
     <defs>
      <path id="DejaVuSans-BoldOblique-31" d="M 441 831 
L 1503 831 
L 2088 3847 
L 953 3622 
L 1113 4441 
L 2241 4666 
L 3384 4666 
L 2644 831 
L 3700 831 
L 3541 0 
L 275 0 
L 441 831 
z
" transform="scale(0.015625)"/>
      <path id="DejaVuSans-BoldOblique-32" d="M 1581 884 
L 3609 884 
L 3438 0 
L 50 0 
L 225 891 
L 2209 2388 
Q 2534 2638 2704 2894 
Q 2875 3150 2875 3391 
Q 2875 3647 2700 3787 
Q 2525 3928 2209 3928 
Q 1913 3928 1547 3811 
Q 1181 3694 722 3450 
L 922 4441 
Q 1347 4597 1756 4673 
Q 2166 4750 2566 4750 
Q 3278 4750 3687 4442 
Q 4097 4134 4097 3603 
Q 4097 3147 3847 2772 
Q 3597 2397 2747 1759 
L 1581 884 
z
" transform="scale(0.015625)"/>
      <path id="DejaVuSans-BoldOblique-35" d="M 1131 4666 
L 4122 4666 
L 3950 3781 
L 1919 3781 
L 1778 3059 
Q 1916 3097 2064 3117 
Q 2213 3138 2363 3138 
Q 3078 3138 3481 2811 
Q 3884 2484 3884 1906 
Q 3884 988 3262 448 
Q 2641 -91 1575 -91 
Q 1184 -91 815 -14 
Q 447 63 84 219 
L 269 1166 
Q 616 941 942 834 
Q 1269 728 1606 728 
Q 2100 728 2397 986 
Q 2694 1244 2694 1663 
Q 2694 1963 2469 2139 
Q 2244 2316 1856 2316 
Q 1594 2316 1289 2248 
Q 984 2181 622 2041 
L 1131 4666 
z
" transform="scale(0.015625)"/>
     </defs>
     <use xlink:href="#DejaVuSans-BoldOblique-31"/>
     <use xlink:href="#DejaVuSans-BoldOblique-32" transform="translate(69.580078 0)"/>
     <use xlink:href="#DejaVuSans-BoldOblique-31" transform="translate(139.160156 0)"/>
     <use xlink:href="#DejaVuSans-BoldOblique-35" transform="translate(208.740234 0)"/>
    </g>
   </g>
   <g id="text_5">
    <!-- 2⁺ -->
    <g transform="translate(182.58336 409.78964) scale(0.23 -0.23)">
     <defs>
      <path id="TimesNewRomanPS-BoldMT-32" d="M 2650 0 
L 156 0 
L 156 69 
Q 1303 1434 1548 1906 
Q 1794 2378 1794 2828 
Q 1794 3156 1591 3373 
Q 1388 3591 1094 3591 
Q 613 3591 347 3109 
L 231 3150 
Q 400 3750 744 4037 
Q 1088 4325 1538 4325 
Q 1859 4325 2125 4175 
Q 2391 4025 2541 3764 
Q 2691 3503 2691 3275 
Q 2691 2859 2459 2431 
Q 2144 1853 1081 819 
L 1997 819 
Q 2334 819 2436 847 
Q 2538 875 2603 942 
Q 2669 1009 2775 1225 
L 2888 1225 
L 2650 0 
z
" transform="scale(0.015625)"/>
     </defs>
     <use xlink:href="#TimesNewRomanPS-BoldMT-32"/>
     <use xlink:href="#DejaVuSerif-Bold-207a" transform="translate(50 0)"/>
    </g>
   </g>
   <g id="text_6">
    <!-- 2696 -->
    <g transform="translate(13.58775 318.537418) scale(0.16 -0.16)">
     <defs>
      <path id="DejaVuSans-BoldOblique-36" d="M 2316 2303 
Q 1959 2303 1731 2009 
Q 1503 1716 1503 1253 
Q 1503 975 1643 820 
Q 1784 666 2034 666 
Q 2388 666 2617 955 
Q 2847 1244 2847 1684 
Q 2847 1984 2709 2143 
Q 2572 2303 2316 2303 
z
M 4225 4544 
L 4056 3681 
Q 3788 3819 3534 3887 
Q 3281 3956 3028 3956 
Q 2447 3956 2087 3643 
Q 1728 3331 1650 2766 
Q 1894 2925 2151 3001 
Q 2409 3078 2700 3078 
Q 3275 3078 3640 2737 
Q 4006 2397 4006 1869 
Q 4006 1006 3442 454 
Q 2878 -97 1991 -97 
Q 1194 -97 756 354 
Q 319 806 319 1631 
Q 319 2269 512 2848 
Q 706 3428 1056 3847 
Q 1431 4294 1942 4519 
Q 2453 4744 3091 4744 
Q 3384 4744 3662 4694 
Q 3941 4644 4225 4544 
z
" transform="scale(0.015625)"/>
      <path id="DejaVuSans-BoldOblique-39" d="M 263 103 
L 428 966 
Q 700 825 953 758 
Q 1206 691 1459 691 
Q 2041 691 2400 1003 
Q 2759 1316 2834 1881 
Q 2594 1722 2337 1645 
Q 2081 1569 1791 1569 
Q 1219 1569 853 1909 
Q 488 2250 488 2778 
Q 488 3641 1052 4192 
Q 1616 4744 2503 4744 
Q 3300 4744 3736 4292 
Q 4172 3841 4172 3016 
Q 4172 2381 3978 1801 
Q 3784 1222 3431 800 
Q 3056 353 2548 128 
Q 2041 -97 1403 -97 
Q 1106 -97 825 -47 
Q 544 3 263 103 
z
M 2169 2344 
Q 2525 2344 2753 2637 
Q 2981 2931 2981 3391 
Q 2981 3675 2845 3828 
Q 2709 3981 2456 3981 
Q 2103 3981 1870 3690 
Q 1638 3400 1638 2963 
Q 1638 2663 1775 2503 
Q 1913 2344 2169 2344 
z
" transform="scale(0.015625)"/>
     </defs>
     <use xlink:href="#DejaVuSans-BoldOblique-32"/>
     <use xlink:href="#DejaVuSans-BoldOblique-36" transform="translate(69.580078 0)"/>
     <use xlink:href="#DejaVuSans-BoldOblique-39" transform="translate(139.160156 0)"/>
     <use xlink:href="#DejaVuSans-BoldOblique-36" transform="translate(208.740234 0)"/>
    </g>
   </g>
   <g id="text_7">
    <!-- 4⁺ -->
    <g transform="translate(182.58336 319.277652) scale(0.23 -0.23)">
     <defs>
      <path id="TimesNewRomanPS-BoldMT-34" d="M 159 1597 
L 2172 4325 
L 2553 4325 
L 2553 1597 
L 2941 1597 
L 2941 950 
L 2553 950 
L 2553 0 
L 1694 0 
L 1694 950 
L 159 950 
L 159 1597 
z
M 463 1597 
L 1694 1597 
L 1694 3269 
L 463 1597 
z
" transform="scale(0.015625)"/>
     </defs>
     <use xlink:href="#TimesNewRomanPS-BoldMT-34"/>
     <use xlink:href="#DejaVuSerif-Bold-207a" transform="translate(50 0)"/>
    </g>
   </g>
   <g id="text_8">
    <!-- 4356 -->
    <g transform="translate(13.58775 217.042713) scale(0.16 -0.16)">
     <defs>
      <path id="DejaVuSans-BoldOblique-34" d="M 2638 3641 
L 978 1722 
L 2259 1722 
L 2638 3641 
z
M 2606 4666 
L 3975 4666 
L 3397 1722 
L 4063 1722 
L 3897 850 
L 3231 850 
L 3066 0 
L 1925 0 
L 2094 850 
L -6 850 
L 197 1881 
L 2606 4666 
z
" transform="scale(0.015625)"/>
      <path id="DejaVuSans-BoldOblique-33" d="M 3022 2516 
Q 3375 2434 3572 2187 
Q 3769 1941 3769 1581 
Q 3769 806 3155 357 
Q 2541 -91 1466 -91 
Q 1059 -91 692 -33 
Q 325 25 0 141 
L 178 1069 
Q 456 906 784 817 
Q 1113 728 1441 728 
Q 1969 728 2276 926 
Q 2584 1125 2584 1459 
Q 2584 1738 2350 1877 
Q 2116 2016 1644 2016 
L 1166 2016 
L 1319 2791 
L 1825 2791 
Q 2316 2791 2602 2969 
Q 2888 3147 2888 3450 
Q 2888 3688 2689 3813 
Q 2491 3938 2113 3938 
Q 1847 3938 1534 3869 
Q 1222 3800 884 3669 
L 1056 4550 
Q 1425 4650 1783 4700 
Q 2141 4750 2491 4750 
Q 3281 4750 3679 4487 
Q 4078 4225 4078 3706 
Q 4078 3241 3801 2930 
Q 3525 2619 3022 2516 
z
" transform="scale(0.015625)"/>
     </defs>
     <use xlink:href="#DejaVuSans-BoldOblique-34"/>
     <use xlink:href="#DejaVuSans-BoldOblique-33" transform="translate(69.580078 0)"/>
     <use xlink:href="#DejaVuSans-BoldOblique-35" transform="translate(139.160156 0)"/>
     <use xlink:href="#DejaVuSans-BoldOblique-36" transform="translate(208.740234 0)"/>
    </g>
   </g>
   <g id="text_9">
    <!-- 6⁺ -->
    <g transform="translate(182.58336 217.782948) scale(0.23 -0.23)">
     <defs>
      <path id="TimesNewRomanPS-BoldMT-36" d="M 3006 4325 
L 3006 4238 
Q 2441 4094 2098 3867 
Q 1756 3641 1557 3317 
Q 1359 2994 1250 2516 
Q 1388 2609 1478 2638 
Q 1681 2700 1888 2700 
Q 2363 2700 2680 2354 
Q 2997 2009 2997 1413 
Q 2997 994 2825 644 
Q 2653 294 2337 103 
Q 2022 -88 1663 -88 
Q 1272 -88 940 126 
Q 609 341 423 753 
Q 238 1166 238 1650 
Q 238 2363 580 2977 
Q 922 3591 1551 3955 
Q 2181 4319 3006 4325 
z
M 1209 2263 
Q 1184 1831 1184 1631 
Q 1184 1200 1267 797 
Q 1350 394 1494 231 
Q 1597 116 1738 116 
Q 1881 116 1993 283 
Q 2106 450 2106 963 
Q 2106 1825 1897 2153 
Q 1763 2366 1534 2366 
Q 1409 2366 1209 2263 
z
" transform="scale(0.015625)"/>
     </defs>
     <use xlink:href="#TimesNewRomanPS-BoldMT-36"/>
     <use xlink:href="#DejaVuSerif-Bold-207a" transform="translate(50 0)"/>
    </g>
   </g>
   <g id="text_10">
    <!-- 2571 -->
    <g transform="translate(263.461892 326.197469) scale(0.16 -0.16)">
     <defs>
      <path id="DejaVuSans-BoldOblique-37" d="M 922 4666 
L 4441 4666 
L 4300 3981 
L 1703 0 
L 500 0 
L 2969 3781 
L 756 3781 
L 922 4666 
z
" transform="scale(0.015625)"/>
     </defs>
     <use xlink:href="#DejaVuSans-BoldOblique-32"/>
     <use xlink:href="#DejaVuSans-BoldOblique-35" transform="translate(69.580078 0)"/>
     <use xlink:href="#DejaVuSans-BoldOblique-37" transform="translate(139.160156 0)"/>
     <use xlink:href="#DejaVuSans-BoldOblique-31" transform="translate(208.740234 0)"/>
    </g>
   </g>
   <g id="text_11">
    <!-- 0⁺ -->
    <g transform="translate(432.457502 326.937704) scale(0.23 -0.23)">
     <use xlink:href="#TimesNewRomanPS-BoldMT-30"/>
     <use xlink:href="#DejaVuSerif-Bold-207a" transform="translate(50 0)"/>
    </g>
   </g>
   <g id="text_12">
    <!-- 3832 -->
    <g transform="translate(263.461892 249.119301) scale(0.16 -0.16)">
     <defs>
      <path id="DejaVuSans-BoldOblique-38" d="M 2150 2088 
Q 1784 2088 1539 1839 
Q 1294 1591 1294 1228 
Q 1294 969 1453 817 
Q 1613 666 1888 666 
Q 2259 666 2503 911 
Q 2747 1156 2747 1522 
Q 2747 1781 2586 1934 
Q 2425 2088 2150 2088 
z
M 1381 2484 
Q 1044 2625 876 2850 
Q 709 3075 709 3391 
Q 709 4025 1229 4387 
Q 1750 4750 2669 4750 
Q 3406 4750 3812 4475 
Q 4219 4200 4219 3700 
Q 4219 3256 3936 2940 
Q 3653 2625 3128 2484 
Q 3509 2338 3690 2091 
Q 3872 1844 3872 1466 
Q 3872 747 3311 328 
Q 2750 -91 1772 -91 
Q 1000 -91 570 217 
Q 141 525 141 1075 
Q 141 1572 470 1945 
Q 800 2319 1381 2484 
z
M 2559 3994 
Q 2241 3994 2048 3808 
Q 1856 3622 1856 3316 
Q 1856 3103 1995 2972 
Q 2134 2841 2363 2841 
Q 2681 2841 2873 3027 
Q 3066 3213 3066 3519 
Q 3066 3734 2927 3864 
Q 2788 3994 2559 3994 
z
" transform="scale(0.015625)"/>
     </defs>
     <use xlink:href="#DejaVuSans-BoldOblique-33"/>
     <use xlink:href="#DejaVuSans-BoldOblique-38" transform="translate(69.580078 0)"/>
     <use xlink:href="#DejaVuSans-BoldOblique-33" transform="translate(139.160156 0)"/>
     <use xlink:href="#DejaVuSans-BoldOblique-32" transform="translate(208.740234 0)"/>
    </g>
   </g>
   <g id="text_13">
    <!-- 2⁺ -->
    <g transform="translate(432.457502 249.859536) scale(0.23 -0.23)">
     <use xlink:href="#TimesNewRomanPS-BoldMT-32"/>
     <use xlink:href="#DejaVuSerif-Bold-207a" transform="translate(50 0)"/>
    </g>
   </g>
   <g id="text_14">
    <!-- 5193 -->
    <g transform="translate(263.461892 165.924988) scale(0.16 -0.16)">
     <use xlink:href="#DejaVuSans-BoldOblique-35"/>
     <use xlink:href="#DejaVuSans-BoldOblique-31" transform="translate(69.580078 0)"/>
     <use xlink:href="#DejaVuSans-BoldOblique-39" transform="translate(139.160156 0)"/>
     <use xlink:href="#DejaVuSans-BoldOblique-33" transform="translate(208.740234 0)"/>
    </g>
   </g>
   <g id="text_15">
    <!-- 4⁺ -->
    <g transform="translate(432.457502 166.665222) scale(0.23 -0.23)">
     <use xlink:href="#TimesNewRomanPS-BoldMT-34"/>
     <use xlink:href="#DejaVuSerif-Bold-207a" transform="translate(50 0)"/>
    </g>
   </g>
   <g id="text_16">
    <!-- 6763 -->
    <g transform="translate(263.461892 69.923109) scale(0.16 -0.16)">
     <use xlink:href="#DejaVuSans-BoldOblique-36"/>
     <use xlink:href="#DejaVuSans-BoldOblique-37" transform="translate(69.580078 0)"/>
     <use xlink:href="#DejaVuSans-BoldOblique-36" transform="translate(139.160156 0)"/>
     <use xlink:href="#DejaVuSans-BoldOblique-33" transform="translate(208.740234 0)"/>
    </g>
   </g>
   <g id="text_17">
    <!-- 6⁺ -->
    <g transform="translate(432.457502 70.663343) scale(0.23 -0.23)">
     <use xlink:href="#TimesNewRomanPS-BoldMT-36"/>
     <use xlink:href="#DejaVuSerif-Bold-207a" transform="translate(50 0)"/>
    </g>
   </g>
   <g id="text_18">
    <!-- 2349 -->
    <g transform="translate(513.336034 339.72671) scale(0.16 -0.16)">
     <use xlink:href="#DejaVuSans-BoldOblique-32"/>
     <use xlink:href="#DejaVuSans-BoldOblique-33" transform="translate(69.580078 0)"/>
     <use xlink:href="#DejaVuSans-BoldOblique-34" transform="translate(139.160156 0)"/>
     <use xlink:href="#DejaVuSans-BoldOblique-39" transform="translate(208.740234 0)"/>
    </g>
   </g>
   <g id="text_19">
    <!-- 2⁺ -->
    <g transform="translate(682.331644 340.466944) scale(0.23 -0.23)">
     <use xlink:href="#TimesNewRomanPS-BoldMT-32"/>
     <use xlink:href="#DejaVuSerif-Bold-207a" transform="translate(50 0)"/>
    </g>
   </g>
   <g id="text_20">
    <!-- 4005 -->
    <g transform="translate(513.336034 238.536056) scale(0.16 -0.16)">
     <use xlink:href="#DejaVuSans-BoldOblique-34"/>
     <use xlink:href="#DejaVuSans-BoldOblique-30" transform="translate(69.580078 0)"/>
     <use xlink:href="#DejaVuSans-BoldOblique-30" transform="translate(139.160156 0)"/>
     <use xlink:href="#DejaVuSans-BoldOblique-35" transform="translate(208.740234 0)"/>
    </g>
   </g>
   <g id="text_21">
    <!-- 3⁺ -->
    <g transform="translate(682.331644 239.27629) scale(0.23 -0.23)">
     <defs>
      <path id="TimesNewRomanPS-BoldMT-33" d="M 947 2125 
L 947 2234 
Q 1303 2338 1440 2427 
Q 1578 2516 1678 2698 
Q 1778 2881 1778 3069 
Q 1778 3328 1589 3514 
Q 1400 3700 1119 3700 
Q 681 3700 375 3238 
L 259 3278 
Q 484 3800 836 4062 
Q 1188 4325 1619 4325 
Q 2059 4325 2345 4056 
Q 2631 3788 2631 3428 
Q 2631 3194 2498 2976 
Q 2366 2759 2081 2594 
Q 2447 2416 2639 2155 
Q 2831 1894 2831 1500 
Q 2831 838 2351 373 
Q 1872 -91 1066 -91 
Q 528 -91 281 88 
Q 103 213 103 409 
Q 103 553 206 654 
Q 309 756 444 756 
Q 547 756 638 713 
Q 688 688 992 439 
Q 1297 191 1563 191 
Q 1794 191 1959 373 
Q 2125 556 2125 838 
Q 2125 1266 1825 1627 
Q 1525 1988 947 2125 
z
" transform="scale(0.015625)"/>
     </defs>
     <use xlink:href="#TimesNewRomanPS-BoldMT-33"/>
     <use xlink:href="#DejaVuSerif-Bold-207a" transform="translate(50 0)"/>
    </g>
   </g>
   <g id="text_22">
    <path d="M 111.560555 434.555725 
L 111.560555 443.220725 
Q 111.560555 444.195725 111.645555 444.465725 
Q 111.733055 444.735725 112.005555 444.908225 
Q 112.280555 445.078225 112.883055 445.078225 
L 113.123055 445.078225 
L 113.123055 445.368225 
L 107.545555 445.368225 
L 107.545555 445.078225 
L 107.828055 445.078225 
Q 108.508055 445.078225 108.795555 444.923225 
Q 109.085555 444.765725 109.185555 444.493225 
Q 109.288055 444.220725 109.288055 443.220725 
L 109.288055 437.728225 
Q 109.288055 436.993225 109.218055 436.810725 
Q 109.148055 436.625725 108.955555 436.498225 
Q 108.765555 436.368225 108.515555 436.368225 
Q 108.115555 436.368225 107.545555 436.618225 
L 107.405555 436.335725 
L 111.303055 434.555725 
L 111.560555 434.555725 
z
M 120.975555 445.368225 
L 114.740555 445.368225 
L 114.740555 445.195725 
Q 117.608055 441.783225 118.220555 440.603225 
Q 118.835555 439.423225 118.835555 438.298225 
Q 118.835555 437.478225 118.328055 436.935725 
Q 117.820555 436.390725 117.085555 436.390725 
Q 115.883055 436.390725 115.218055 437.595725 
L 114.928055 437.493225 
Q 115.350555 435.993225 116.210555 435.275725 
Q 117.070555 434.555725 118.195555 434.555725 
Q 118.998055 434.555725 119.663055 434.930725 
Q 120.328055 435.305725 120.703055 435.958225 
Q 121.078055 436.610725 121.078055 437.180725 
Q 121.078055 438.220725 120.498055 439.290725 
Q 119.710555 440.735725 117.053055 443.320725 
L 119.343055 443.320725 
Q 120.185555 443.320725 120.440555 443.250725 
Q 120.695555 443.180725 120.858055 443.013225 
Q 121.023055 442.845725 121.288055 442.305725 
L 121.570555 442.305725 
L 120.975555 445.368225 
z
M 124.350555 442.960725 
Q 124.898055 442.960725 125.275555 443.345725 
Q 125.655555 443.728225 125.655555 444.265725 
Q 125.655555 444.805725 125.273055 445.185725 
Q 124.890555 445.563225 124.350555 445.563225 
Q 123.810555 445.563225 123.430555 445.185725 
Q 123.053055 444.805725 123.053055 444.265725 
Q 123.053055 443.728225 123.430555 443.345725 
Q 123.810555 442.960725 124.350555 442.960725 
z
M 132.975555 445.368225 
L 126.740555 445.368225 
L 126.740555 445.195725 
Q 129.608055 441.783225 130.220555 440.603225 
Q 130.835555 439.423225 130.835555 438.298225 
Q 130.835555 437.478225 130.328055 436.935725 
Q 129.820555 436.390725 129.085555 436.390725 
Q 127.883055 436.390725 127.218055 437.595725 
L 126.928055 437.493225 
Q 127.350555 435.993225 128.210555 435.275725 
Q 129.070555 434.555725 130.195555 434.555725 
Q 130.998055 434.555725 131.663055 434.930725 
Q 132.328055 435.305725 132.703055 435.958225 
Q 133.078055 436.610725 133.078055 437.180725 
Q 133.078055 438.220725 132.498055 439.290725 
Q 131.710555 440.735725 129.053055 443.320725 
L 131.343055 443.320725 
Q 132.185555 443.320725 132.440555 443.250725 
Q 132.695555 443.180725 132.858055 443.013225 
Q 133.023055 442.845725 133.288055 442.305725 
L 133.570555 442.305725 
L 132.975555 445.368225 
z
" style="stroke: #ffffff; stroke-width: 3.8"/>
    <path d="M 111.560555 434.555725 
L 111.560555 443.220725 
Q 111.560555 444.195725 111.645555 444.465725 
Q 111.733055 444.735725 112.005555 444.908225 
Q 112.280555 445.078225 112.883055 445.078225 
L 113.123055 445.078225 
L 113.123055 445.368225 
L 107.545555 445.368225 
L 107.545555 445.078225 
L 107.828055 445.078225 
Q 108.508055 445.078225 108.795555 444.923225 
Q 109.085555 444.765725 109.185555 444.493225 
Q 109.288055 444.220725 109.288055 443.220725 
L 109.288055 437.728225 
Q 109.288055 436.993225 109.218055 436.810725 
Q 109.148055 436.625725 108.955555 436.498225 
Q 108.765555 436.368225 108.515555 436.368225 
Q 108.115555 436.368225 107.545555 436.618225 
L 107.405555 436.335725 
L 111.303055 434.555725 
L 111.560555 434.555725 
z
M 120.975555 445.368225 
L 114.740555 445.368225 
L 114.740555 445.195725 
Q 117.608055 441.783225 118.220555 440.603225 
Q 118.835555 439.423225 118.835555 438.298225 
Q 118.835555 437.478225 118.328055 436.935725 
Q 117.820555 436.390725 117.085555 436.390725 
Q 115.883055 436.390725 115.218055 437.595725 
L 114.928055 437.493225 
Q 115.350555 435.993225 116.210555 435.275725 
Q 117.070555 434.555725 118.195555 434.555725 
Q 118.998055 434.555725 119.663055 434.930725 
Q 120.328055 435.305725 120.703055 435.958225 
Q 121.078055 436.610725 121.078055 437.180725 
Q 121.078055 438.220725 120.498055 439.290725 
Q 119.710555 440.735725 117.053055 443.320725 
L 119.343055 443.320725 
Q 120.185555 443.320725 120.440555 443.250725 
Q 120.695555 443.180725 120.858055 443.013225 
Q 121.023055 442.845725 121.288055 442.305725 
L 121.570555 442.305725 
L 120.975555 445.368225 
z
M 124.350555 442.960725 
Q 124.898055 442.960725 125.275555 443.345725 
Q 125.655555 443.728225 125.655555 444.265725 
Q 125.655555 444.805725 125.273055 445.185725 
Q 124.890555 445.563225 124.350555 445.563225 
Q 123.810555 445.563225 123.430555 445.185725 
Q 123.053055 444.805725 123.053055 444.265725 
Q 123.053055 443.728225 123.430555 443.345725 
Q 123.810555 442.960725 124.350555 442.960725 
z
M 132.975555 445.368225 
L 126.740555 445.368225 
L 126.740555 445.195725 
Q 129.608055 441.783225 130.220555 440.603225 
Q 130.835555 439.423225 130.835555 438.298225 
Q 130.835555 437.478225 130.328055 436.935725 
Q 129.820555 436.390725 129.085555 436.390725 
Q 127.883055 436.390725 127.218055 437.595725 
L 126.928055 437.493225 
Q 127.350555 435.993225 128.210555 435.275725 
Q 129.070555 434.555725 130.195555 434.555725 
Q 130.998055 434.555725 131.663055 434.930725 
Q 132.328055 435.305725 132.703055 435.958225 
Q 133.078055 436.610725 133.078055 437.180725 
Q 133.078055 438.220725 132.498055 439.290725 
Q 131.710555 440.735725 129.053055 443.320725 
L 131.343055 443.320725 
Q 132.185555 443.320725 132.440555 443.250725 
Q 132.695555 443.180725 132.858055 443.013225 
Q 133.023055 442.845725 133.288055 442.305725 
L 133.570555 442.305725 
L 132.975555 445.368225 
z
"/>
   </g>
   <g id="text_23">
    <path d="M 112.975555 362.964662 
L 106.740555 362.964662 
L 106.740555 362.792162 
Q 109.608055 359.379662 110.220555 358.199662 
Q 110.835555 357.019662 110.835555 355.894662 
Q 110.835555 355.074662 110.328055 354.532162 
Q 109.820555 353.987162 109.085555 353.987162 
Q 107.883055 353.987162 107.218055 355.192162 
L 106.928055 355.089662 
Q 107.350555 353.589662 108.210555 352.872162 
Q 109.070555 352.152162 110.195555 352.152162 
Q 110.998055 352.152162 111.663055 352.527162 
Q 112.328055 352.902162 112.703055 353.554662 
Q 113.078055 354.207162 113.078055 354.777162 
Q 113.078055 355.817162 112.498055 356.887162 
Q 111.710555 358.332162 109.053055 360.917162 
L 111.343055 360.917162 
Q 112.185555 360.917162 112.440555 360.847162 
Q 112.695555 360.777162 112.858055 360.609662 
Q 113.023055 360.442162 113.288055 359.902162 
L 113.570555 359.902162 
L 112.975555 362.964662 
z
M 116.718055 357.652162 
L 116.718055 357.379662 
Q 117.608055 357.119662 117.950555 356.897162 
Q 118.295555 356.674662 118.545555 356.219662 
Q 118.795555 355.762162 118.795555 355.292162 
Q 118.795555 354.644662 118.323055 354.179662 
Q 117.850555 353.714662 117.148055 353.714662 
Q 116.053055 353.714662 115.288055 354.869662 
L 114.998055 354.769662 
Q 115.560555 353.464662 116.440555 352.809662 
Q 117.320555 352.152162 118.398055 352.152162 
Q 119.498055 352.152162 120.213055 352.824662 
Q 120.928055 353.494662 120.928055 354.394662 
Q 120.928055 354.979662 120.595555 355.524662 
Q 120.265555 356.067162 119.553055 356.479662 
Q 120.468055 356.924662 120.948055 357.577162 
Q 121.428055 358.229662 121.428055 359.214662 
Q 121.428055 360.869662 120.228055 362.032162 
Q 119.030555 363.192162 117.015555 363.192162 
Q 115.670555 363.192162 115.053055 362.744662 
Q 114.608055 362.432162 114.608055 361.942162 
Q 114.608055 361.582162 114.865555 361.329662 
Q 115.123055 361.074662 115.460555 361.074662 
Q 115.718055 361.074662 115.945555 361.182162 
Q 116.070555 361.244662 116.830555 361.867162 
Q 117.593055 362.487162 118.258055 362.487162 
Q 118.835555 362.487162 119.248055 362.032162 
Q 119.663055 361.574662 119.663055 360.869662 
Q 119.663055 359.799662 118.913055 358.897162 
Q 118.163055 357.994662 116.718055 357.652162 
z
M 124.350555 360.557162 
Q 124.898055 360.557162 125.275555 360.942162 
Q 125.655555 361.324662 125.655555 361.862162 
Q 125.655555 362.402162 125.273055 362.782162 
Q 124.890555 363.159662 124.350555 363.159662 
Q 123.810555 363.159662 123.430555 362.782162 
Q 123.053055 362.402162 123.053055 361.862162 
Q 123.053055 361.324662 123.430555 360.942162 
Q 123.810555 360.557162 124.350555 360.557162 
z
M 128.788055 352.369662 
L 133.748055 352.369662 
L 132.960555 354.387162 
L 128.788055 354.387162 
L 128.390555 355.442162 
Q 131.085555 355.542162 132.538055 356.784662 
Q 133.733055 357.807162 133.733055 359.332162 
Q 133.733055 360.307162 133.178055 361.242162 
Q 132.623055 362.174662 131.615555 362.679662 
Q 130.608055 363.184662 129.405555 363.184662 
Q 128.108055 363.184662 127.413055 362.699662 
Q 126.928055 362.354662 126.928055 361.917162 
Q 126.928055 361.582162 127.180555 361.324662 
Q 127.435555 361.067162 127.773055 361.067162 
Q 128.078055 361.067162 128.390555 361.192162 
Q 128.703055 361.317162 129.460555 361.847162 
Q 129.935555 362.174662 130.280555 362.299662 
Q 130.523055 362.394662 130.828055 362.394662 
Q 131.468055 362.394662 131.915555 361.927162 
Q 132.365555 361.457162 132.365555 360.799662 
Q 132.365555 359.424662 130.990555 358.567162 
Q 129.615555 357.707162 127.523055 357.707162 
Q 127.310555 357.707162 126.890555 357.714662 
L 128.788055 352.369662 
z
" style="stroke: #ffffff; stroke-width: 3.8"/>
    <path d="M 112.975555 362.964662 
L 106.740555 362.964662 
L 106.740555 362.792162 
Q 109.608055 359.379662 110.220555 358.199662 
Q 110.835555 357.019662 110.835555 355.894662 
Q 110.835555 355.074662 110.328055 354.532162 
Q 109.820555 353.987162 109.085555 353.987162 
Q 107.883055 353.987162 107.218055 355.192162 
L 106.928055 355.089662 
Q 107.350555 353.589662 108.210555 352.872162 
Q 109.070555 352.152162 110.195555 352.152162 
Q 110.998055 352.152162 111.663055 352.527162 
Q 112.328055 352.902162 112.703055 353.554662 
Q 113.078055 354.207162 113.078055 354.777162 
Q 113.078055 355.817162 112.498055 356.887162 
Q 111.710555 358.332162 109.053055 360.917162 
L 111.343055 360.917162 
Q 112.185555 360.917162 112.440555 360.847162 
Q 112.695555 360.777162 112.858055 360.609662 
Q 113.023055 360.442162 113.288055 359.902162 
L 113.570555 359.902162 
L 112.975555 362.964662 
z
M 116.718055 357.652162 
L 116.718055 357.379662 
Q 117.608055 357.119662 117.950555 356.897162 
Q 118.295555 356.674662 118.545555 356.219662 
Q 118.795555 355.762162 118.795555 355.292162 
Q 118.795555 354.644662 118.323055 354.179662 
Q 117.850555 353.714662 117.148055 353.714662 
Q 116.053055 353.714662 115.288055 354.869662 
L 114.998055 354.769662 
Q 115.560555 353.464662 116.440555 352.809662 
Q 117.320555 352.152162 118.398055 352.152162 
Q 119.498055 352.152162 120.213055 352.824662 
Q 120.928055 353.494662 120.928055 354.394662 
Q 120.928055 354.979662 120.595555 355.524662 
Q 120.265555 356.067162 119.553055 356.479662 
Q 120.468055 356.924662 120.948055 357.577162 
Q 121.428055 358.229662 121.428055 359.214662 
Q 121.428055 360.869662 120.228055 362.032162 
Q 119.030555 363.192162 117.015555 363.192162 
Q 115.670555 363.192162 115.053055 362.744662 
Q 114.608055 362.432162 114.608055 361.942162 
Q 114.608055 361.582162 114.865555 361.329662 
Q 115.123055 361.074662 115.460555 361.074662 
Q 115.718055 361.074662 115.945555 361.182162 
Q 116.070555 361.244662 116.830555 361.867162 
Q 117.593055 362.487162 118.258055 362.487162 
Q 118.835555 362.487162 119.248055 362.032162 
Q 119.663055 361.574662 119.663055 360.869662 
Q 119.663055 359.799662 118.913055 358.897162 
Q 118.163055 357.994662 116.718055 357.652162 
z
M 124.350555 360.557162 
Q 124.898055 360.557162 125.275555 360.942162 
Q 125.655555 361.324662 125.655555 361.862162 
Q 125.655555 362.402162 125.273055 362.782162 
Q 124.890555 363.159662 124.350555 363.159662 
Q 123.810555 363.159662 123.430555 362.782162 
Q 123.053055 362.402162 123.053055 361.862162 
Q 123.053055 361.324662 123.430555 360.942162 
Q 123.810555 360.557162 124.350555 360.557162 
z
M 128.788055 352.369662 
L 133.748055 352.369662 
L 132.960555 354.387162 
L 128.788055 354.387162 
L 128.390555 355.442162 
Q 131.085555 355.542162 132.538055 356.784662 
Q 133.733055 357.807162 133.733055 359.332162 
Q 133.733055 360.307162 133.178055 361.242162 
Q 132.623055 362.174662 131.615555 362.679662 
Q 130.608055 363.184662 129.405555 363.184662 
Q 128.108055 363.184662 127.413055 362.699662 
Q 126.928055 362.354662 126.928055 361.917162 
Q 126.928055 361.582162 127.180555 361.324662 
Q 127.435555 361.067162 127.773055 361.067162 
Q 128.078055 361.067162 128.390555 361.192162 
Q 128.703055 361.317162 129.460555 361.847162 
Q 129.935555 362.174662 130.280555 362.299662 
Q 130.523055 362.394662 130.828055 362.394662 
Q 131.468055 362.394662 131.915555 361.927162 
Q 132.365555 361.457162 132.365555 360.799662 
Q 132.365555 359.424662 130.990555 358.567162 
Q 129.615555 357.707162 127.523055 357.707162 
Q 127.310555 357.707162 126.890555 357.714662 
L 128.788055 352.369662 
z
"/>
   </g>
   <g id="text_24">
    <path d="M 108.718055 261.648816 
L 108.718055 261.376316 
Q 109.608055 261.116316 109.950555 260.893816 
Q 110.295555 260.671316 110.545555 260.216316 
Q 110.795555 259.758816 110.795555 259.288816 
Q 110.795555 258.641316 110.323055 258.176316 
Q 109.850555 257.711316 109.148055 257.711316 
Q 108.053055 257.711316 107.288055 258.866316 
L 106.998055 258.766316 
Q 107.560555 257.461316 108.440555 256.806316 
Q 109.320555 256.148816 110.398055 256.148816 
Q 111.498055 256.148816 112.213055 256.821316 
Q 112.928055 257.491316 112.928055 258.391316 
Q 112.928055 258.976316 112.595555 259.521316 
Q 112.265555 260.063816 111.553055 260.476316 
Q 112.468055 260.921316 112.948055 261.573816 
Q 113.428055 262.226316 113.428055 263.211316 
Q 113.428055 264.866316 112.228055 266.028816 
Q 111.030555 267.188816 109.015555 267.188816 
Q 107.670555 267.188816 107.053055 266.741316 
Q 106.608055 266.428816 106.608055 265.938816 
Q 106.608055 265.578816 106.865555 265.326316 
Q 107.123055 265.071316 107.460555 265.071316 
Q 107.718055 265.071316 107.945555 265.178816 
Q 108.070555 265.241316 108.830555 265.863816 
Q 109.593055 266.483816 110.258055 266.483816 
Q 110.835555 266.483816 111.248055 266.028816 
Q 111.663055 265.571316 111.663055 264.866316 
Q 111.663055 263.796316 110.913055 262.893816 
Q 110.163055 261.991316 108.718055 261.648816 
z
M 121.865555 256.148816 
L 121.865555 256.366316 
Q 120.453055 256.726316 119.595555 257.293816 
Q 118.740555 257.858816 118.243055 258.668816 
Q 117.748055 259.476316 117.475555 260.671316 
Q 117.820555 260.438816 118.045555 260.366316 
Q 118.553055 260.211316 119.070555 260.211316 
Q 120.258055 260.211316 121.050555 261.076316 
Q 121.843055 261.938816 121.843055 263.428816 
Q 121.843055 264.476316 121.413055 265.351316 
Q 120.983055 266.226316 120.193055 266.703816 
Q 119.405555 267.181316 118.508055 267.181316 
Q 117.530555 267.181316 116.700555 266.646316 
Q 115.873055 266.108816 115.408055 265.078816 
Q 114.945555 264.046316 114.945555 262.836316 
Q 114.945555 261.053816 115.800555 259.518816 
Q 116.655555 257.983816 118.228055 257.073816 
Q 119.803055 256.163816 121.865555 256.148816 
z
M 117.373055 261.303816 
Q 117.310555 262.383816 117.310555 262.883816 
Q 117.310555 263.961316 117.518055 264.968816 
Q 117.725555 265.976316 118.085555 266.383816 
Q 118.343055 266.671316 118.695555 266.671316 
Q 119.053055 266.671316 119.333055 266.253816 
Q 119.615555 265.836316 119.615555 264.553816 
Q 119.615555 262.398816 119.093055 261.578816 
Q 118.758055 261.046316 118.185555 261.046316 
Q 117.873055 261.046316 117.373055 261.303816 
z
M 124.350555 264.553816 
Q 124.898055 264.553816 125.275555 264.938816 
Q 125.655555 265.321316 125.655555 265.858816 
Q 125.655555 266.398816 125.273055 266.778816 
Q 124.890555 267.156316 124.350555 267.156316 
Q 123.810555 267.156316 123.430555 266.778816 
Q 123.053055 266.398816 123.053055 265.858816 
Q 123.053055 265.321316 123.430555 264.938816 
Q 123.810555 264.553816 124.350555 264.553816 
z
M 126.748055 262.968816 
L 131.780555 256.148816 
L 132.733055 256.148816 
L 132.733055 262.968816 
L 133.703055 262.968816 
L 133.703055 264.586316 
L 132.733055 264.586316 
L 132.733055 266.961316 
L 130.585555 266.961316 
L 130.585555 264.586316 
L 126.748055 264.586316 
L 126.748055 262.968816 
z
M 127.508055 262.968816 
L 130.585555 262.968816 
L 130.585555 258.788816 
L 127.508055 262.968816 
z
" style="stroke: #ffffff; stroke-width: 3.8"/>
    <path d="M 108.718055 261.648816 
L 108.718055 261.376316 
Q 109.608055 261.116316 109.950555 260.893816 
Q 110.295555 260.671316 110.545555 260.216316 
Q 110.795555 259.758816 110.795555 259.288816 
Q 110.795555 258.641316 110.323055 258.176316 
Q 109.850555 257.711316 109.148055 257.711316 
Q 108.053055 257.711316 107.288055 258.866316 
L 106.998055 258.766316 
Q 107.560555 257.461316 108.440555 256.806316 
Q 109.320555 256.148816 110.398055 256.148816 
Q 111.498055 256.148816 112.213055 256.821316 
Q 112.928055 257.491316 112.928055 258.391316 
Q 112.928055 258.976316 112.595555 259.521316 
Q 112.265555 260.063816 111.553055 260.476316 
Q 112.468055 260.921316 112.948055 261.573816 
Q 113.428055 262.226316 113.428055 263.211316 
Q 113.428055 264.866316 112.228055 266.028816 
Q 111.030555 267.188816 109.015555 267.188816 
Q 107.670555 267.188816 107.053055 266.741316 
Q 106.608055 266.428816 106.608055 265.938816 
Q 106.608055 265.578816 106.865555 265.326316 
Q 107.123055 265.071316 107.460555 265.071316 
Q 107.718055 265.071316 107.945555 265.178816 
Q 108.070555 265.241316 108.830555 265.863816 
Q 109.593055 266.483816 110.258055 266.483816 
Q 110.835555 266.483816 111.248055 266.028816 
Q 111.663055 265.571316 111.663055 264.866316 
Q 111.663055 263.796316 110.913055 262.893816 
Q 110.163055 261.991316 108.718055 261.648816 
z
M 121.865555 256.148816 
L 121.865555 256.366316 
Q 120.453055 256.726316 119.595555 257.293816 
Q 118.740555 257.858816 118.243055 258.668816 
Q 117.748055 259.476316 117.475555 260.671316 
Q 117.820555 260.438816 118.045555 260.366316 
Q 118.553055 260.211316 119.070555 260.211316 
Q 120.258055 260.211316 121.050555 261.076316 
Q 121.843055 261.938816 121.843055 263.428816 
Q 121.843055 264.476316 121.413055 265.351316 
Q 120.983055 266.226316 120.193055 266.703816 
Q 119.405555 267.181316 118.508055 267.181316 
Q 117.530555 267.181316 116.700555 266.646316 
Q 115.873055 266.108816 115.408055 265.078816 
Q 114.945555 264.046316 114.945555 262.836316 
Q 114.945555 261.053816 115.800555 259.518816 
Q 116.655555 257.983816 118.228055 257.073816 
Q 119.803055 256.163816 121.865555 256.148816 
z
M 117.373055 261.303816 
Q 117.310555 262.383816 117.310555 262.883816 
Q 117.310555 263.961316 117.518055 264.968816 
Q 117.725555 265.976316 118.085555 266.383816 
Q 118.343055 266.671316 118.695555 266.671316 
Q 119.053055 266.671316 119.333055 266.253816 
Q 119.615555 265.836316 119.615555 264.553816 
Q 119.615555 262.398816 119.093055 261.578816 
Q 118.758055 261.046316 118.185555 261.046316 
Q 117.873055 261.046316 117.373055 261.303816 
z
M 124.350555 264.553816 
Q 124.898055 264.553816 125.275555 264.938816 
Q 125.655555 265.321316 125.655555 265.858816 
Q 125.655555 266.398816 125.273055 266.778816 
Q 124.890555 267.156316 124.350555 267.156316 
Q 123.810555 267.156316 123.430555 266.778816 
Q 123.053055 266.398816 123.053055 265.858816 
Q 123.053055 265.321316 123.430555 264.938816 
Q 123.810555 264.553816 124.350555 264.553816 
z
M 126.748055 262.968816 
L 131.780555 256.148816 
L 132.733055 256.148816 
L 132.733055 262.968816 
L 133.703055 262.968816 
L 133.703055 264.586316 
L 132.733055 264.586316 
L 132.733055 266.961316 
L 130.585555 266.961316 
L 130.585555 264.586316 
L 126.748055 264.586316 
L 126.748055 262.968816 
z
M 127.508055 262.968816 
L 130.585555 262.968816 
L 130.585555 258.788816 
L 127.508055 262.968816 
z
"/>
   </g>
   <g id="text_25">
    <path d="M 361.434697 276.017135 
L 361.434697 284.682135 
Q 361.434697 285.657135 361.519697 285.927135 
Q 361.607197 286.197135 361.879697 286.369635 
Q 362.154697 286.539635 362.757197 286.539635 
L 362.997197 286.539635 
L 362.997197 286.829635 
L 357.419697 286.829635 
L 357.419697 286.539635 
L 357.702197 286.539635 
Q 358.382197 286.539635 358.669697 286.384635 
Q 358.959697 286.227135 359.059697 285.954635 
Q 359.162197 285.682135 359.162197 284.682135 
L 359.162197 279.189635 
Q 359.162197 278.454635 359.092197 278.272135 
Q 359.022197 278.087135 358.829697 277.959635 
Q 358.639697 277.829635 358.389697 277.829635 
Q 357.989697 277.829635 357.419697 278.079635 
L 357.279697 277.797135 
L 361.177197 276.017135 
L 361.434697 276.017135 
z
M 364.717197 287.049635 
L 364.717197 286.829635 
Q 366.014697 286.532135 366.917197 285.954635 
Q 367.819697 285.377135 368.344697 284.524635 
Q 368.872197 283.672135 369.084697 282.564635 
Q 368.599697 282.814635 368.259697 282.912135 
Q 367.919697 283.009635 367.544697 283.009635 
Q 366.342197 283.009635 365.539697 282.142135 
Q 364.739697 281.274635 364.739697 279.767135 
Q 364.739697 278.719635 365.172197 277.849635 
Q 365.607197 276.977135 366.412197 276.497135 
Q 367.217197 276.017135 368.084697 276.017135 
Q 369.014697 276.017135 369.842197 276.549635 
Q 370.669697 277.079635 371.162197 278.087135 
Q 371.654697 279.094635 371.654697 280.384635 
Q 371.654697 282.057135 370.852197 283.589635 
Q 370.052197 285.119635 368.467197 286.044635 
Q 366.882197 286.969635 364.717197 287.049635 
z
M 369.202197 281.907135 
Q 369.279697 281.032135 369.279697 280.369635 
Q 369.279697 278.947135 368.952197 277.719635 
Q 368.764697 277.039635 368.397197 276.719635 
Q 368.202197 276.547135 367.889697 276.547135 
Q 367.497197 276.547135 367.279697 276.884635 
Q 366.974697 277.344635 366.974697 278.642135 
Q 366.974697 280.807135 367.489697 281.627135 
Q 367.827197 282.157135 368.397197 282.157135 
Q 368.702197 282.157135 369.202197 281.907135 
z
M 374.224697 284.422135 
Q 374.772197 284.422135 375.149697 284.807135 
Q 375.529697 285.189635 375.529697 285.727135 
Q 375.529697 286.267135 375.147197 286.647135 
Q 374.764697 287.024635 374.224697 287.024635 
Q 373.684697 287.024635 373.304697 286.647135 
Q 372.927197 286.267135 372.927197 285.727135 
Q 372.927197 285.189635 373.304697 284.807135 
Q 373.684697 284.422135 374.224697 284.422135 
z
M 381.434697 276.017135 
L 381.434697 284.682135 
Q 381.434697 285.657135 381.519697 285.927135 
Q 381.607197 286.197135 381.879697 286.369635 
Q 382.154697 286.539635 382.757197 286.539635 
L 382.997197 286.539635 
L 382.997197 286.829635 
L 377.419697 286.829635 
L 377.419697 286.539635 
L 377.702197 286.539635 
Q 378.382197 286.539635 378.669697 286.384635 
Q 378.959697 286.227135 379.059697 285.954635 
Q 379.162197 285.682135 379.162197 284.682135 
L 379.162197 279.189635 
Q 379.162197 278.454635 379.092197 278.272135 
Q 379.022197 278.087135 378.829697 277.959635 
Q 378.639697 277.829635 378.389697 277.829635 
Q 377.989697 277.829635 377.419697 278.079635 
L 377.279697 277.797135 
L 381.177197 276.017135 
L 381.434697 276.017135 
z
" style="stroke: #ffffff; stroke-width: 3.8"/>
    <path d="M 361.434697 276.017135 
L 361.434697 284.682135 
Q 361.434697 285.657135 361.519697 285.927135 
Q 361.607197 286.197135 361.879697 286.369635 
Q 362.154697 286.539635 362.757197 286.539635 
L 362.997197 286.539635 
L 362.997197 286.829635 
L 357.419697 286.829635 
L 357.419697 286.539635 
L 357.702197 286.539635 
Q 358.382197 286.539635 358.669697 286.384635 
Q 358.959697 286.227135 359.059697 285.954635 
Q 359.162197 285.682135 359.162197 284.682135 
L 359.162197 279.189635 
Q 359.162197 278.454635 359.092197 278.272135 
Q 359.022197 278.087135 358.829697 277.959635 
Q 358.639697 277.829635 358.389697 277.829635 
Q 357.989697 277.829635 357.419697 278.079635 
L 357.279697 277.797135 
L 361.177197 276.017135 
L 361.434697 276.017135 
z
M 364.717197 287.049635 
L 364.717197 286.829635 
Q 366.014697 286.532135 366.917197 285.954635 
Q 367.819697 285.377135 368.344697 284.524635 
Q 368.872197 283.672135 369.084697 282.564635 
Q 368.599697 282.814635 368.259697 282.912135 
Q 367.919697 283.009635 367.544697 283.009635 
Q 366.342197 283.009635 365.539697 282.142135 
Q 364.739697 281.274635 364.739697 279.767135 
Q 364.739697 278.719635 365.172197 277.849635 
Q 365.607197 276.977135 366.412197 276.497135 
Q 367.217197 276.017135 368.084697 276.017135 
Q 369.014697 276.017135 369.842197 276.549635 
Q 370.669697 277.079635 371.162197 278.087135 
Q 371.654697 279.094635 371.654697 280.384635 
Q 371.654697 282.057135 370.852197 283.589635 
Q 370.052197 285.119635 368.467197 286.044635 
Q 366.882197 286.969635 364.717197 287.049635 
z
M 369.202197 281.907135 
Q 369.279697 281.032135 369.279697 280.369635 
Q 369.279697 278.947135 368.952197 277.719635 
Q 368.764697 277.039635 368.397197 276.719635 
Q 368.202197 276.547135 367.889697 276.547135 
Q 367.497197 276.547135 367.279697 276.884635 
Q 366.974697 277.344635 366.974697 278.642135 
Q 366.974697 280.807135 367.489697 281.627135 
Q 367.827197 282.157135 368.397197 282.157135 
Q 368.702197 282.157135 369.202197 281.907135 
z
M 374.224697 284.422135 
Q 374.772197 284.422135 375.149697 284.807135 
Q 375.529697 285.189635 375.529697 285.727135 
Q 375.529697 286.267135 375.147197 286.647135 
Q 374.764697 287.024635 374.224697 287.024635 
Q 373.684697 287.024635 373.304697 286.647135 
Q 372.927197 286.267135 372.927197 285.727135 
Q 372.927197 285.189635 373.304697 284.807135 
Q 373.684697 284.422135 374.224697 284.422135 
z
M 381.434697 276.017135 
L 381.434697 284.682135 
Q 381.434697 285.657135 381.519697 285.927135 
Q 381.607197 286.197135 381.879697 286.369635 
Q 382.154697 286.539635 382.757197 286.539635 
L 382.997197 286.539635 
L 382.997197 286.829635 
L 377.419697 286.829635 
L 377.419697 286.539635 
L 377.702197 286.539635 
Q 378.382197 286.539635 378.669697 286.384635 
Q 378.959697 286.227135 379.059697 285.954635 
Q 379.162197 285.682135 379.162197 284.682135 
L 379.162197 279.189635 
Q 379.162197 278.454635 379.092197 278.272135 
Q 379.022197 278.087135 378.829697 277.959635 
Q 378.639697 277.829635 378.389697 277.829635 
Q 377.989697 277.829635 377.419697 278.079635 
L 377.279697 277.797135 
L 381.177197 276.017135 
L 381.434697 276.017135 
z
"/>
   </g>
   <g id="text_26">
    <path d="M 361.434697 195.880895 
L 361.434697 204.545895 
Q 361.434697 205.520895 361.519697 205.790895 
Q 361.607197 206.060895 361.879697 206.233395 
Q 362.154697 206.403395 362.757197 206.403395 
L 362.997197 206.403395 
L 362.997197 206.693395 
L 357.419697 206.693395 
L 357.419697 206.403395 
L 357.702197 206.403395 
Q 358.382197 206.403395 358.669697 206.248395 
Q 358.959697 206.090895 359.059697 205.818395 
Q 359.162197 205.545895 359.162197 204.545895 
L 359.162197 199.053395 
Q 359.162197 198.318395 359.092197 198.135895 
Q 359.022197 197.950895 358.829697 197.823395 
Q 358.639697 197.693395 358.389697 197.693395 
Q 357.989697 197.693395 357.419697 197.943395 
L 357.279697 197.660895 
L 361.177197 195.880895 
L 361.434697 195.880895 
z
M 369.677197 200.708395 
Q 370.794697 201.528395 371.227197 202.235895 
Q 371.662197 202.943395 371.662197 203.858395 
Q 371.662197 205.138395 370.697197 206.025895 
Q 369.732197 206.913395 368.077197 206.913395 
Q 366.507197 206.913395 365.647197 206.140895 
Q 364.787197 205.365895 364.787197 204.248395 
Q 364.787197 203.395895 365.282197 202.755895 
Q 365.779697 202.115895 366.934697 201.583395 
Q 365.677197 200.623395 365.322197 200.013395 
Q 364.967197 199.403395 364.967197 198.598395 
Q 364.967197 197.535895 365.869697 196.728395 
Q 366.772197 195.920895 368.342197 195.920895 
Q 369.857197 195.920895 370.672197 196.635895 
Q 371.489697 197.348395 371.489697 198.348395 
Q 371.489697 199.098395 371.047197 199.673395 
Q 370.607197 200.248395 369.677197 200.708395 
z
M 369.084697 200.310895 
Q 369.372197 199.920895 369.512197 199.435895 
Q 369.654697 198.950895 369.654697 198.373395 
Q 369.654697 197.358395 369.217197 196.818395 
Q 368.889697 196.403395 368.309697 196.403395 
Q 367.787197 196.403395 367.419697 196.783395 
Q 367.052197 197.160895 367.052197 197.723395 
Q 367.052197 198.295895 367.462197 198.908395 
Q 367.872197 199.520895 369.084697 200.310895 
z
M 367.522197 201.958395 
Q 367.279697 202.178395 367.177197 202.358395 
Q 367.022197 202.630895 366.897197 203.155895 
Q 366.772197 203.678395 366.772197 204.248395 
Q 366.772197 204.983395 366.959697 205.478395 
Q 367.147197 205.973395 367.494697 206.193395 
Q 367.842197 206.410895 368.209697 206.410895 
Q 368.779697 206.410895 369.169697 205.993395 
Q 369.559697 205.575895 369.559697 204.848395 
Q 369.559697 203.333395 367.522197 201.958395 
z
M 374.224697 204.285895 
Q 374.772197 204.285895 375.149697 204.670895 
Q 375.529697 205.053395 375.529697 205.590895 
Q 375.529697 206.130895 375.147197 206.510895 
Q 374.764697 206.888395 374.224697 206.888395 
Q 373.684697 206.888395 373.304697 206.510895 
Q 372.927197 206.130895 372.927197 205.590895 
Q 372.927197 205.053395 373.304697 204.670895 
Q 373.684697 204.285895 374.224697 204.285895 
z
M 381.434697 195.880895 
L 381.434697 204.545895 
Q 381.434697 205.520895 381.519697 205.790895 
Q 381.607197 206.060895 381.879697 206.233395 
Q 382.154697 206.403395 382.757197 206.403395 
L 382.997197 206.403395 
L 382.997197 206.693395 
L 377.419697 206.693395 
L 377.419697 206.403395 
L 377.702197 206.403395 
Q 378.382197 206.403395 378.669697 206.248395 
Q 378.959697 206.090895 379.059697 205.818395 
Q 379.162197 205.545895 379.162197 204.545895 
L 379.162197 199.053395 
Q 379.162197 198.318395 379.092197 198.135895 
Q 379.022197 197.950895 378.829697 197.823395 
Q 378.639697 197.693395 378.389697 197.693395 
Q 377.989697 197.693395 377.419697 197.943395 
L 377.279697 197.660895 
L 381.177197 195.880895 
L 381.434697 195.880895 
z
" style="stroke: #ffffff; stroke-width: 3.8"/>
    <path d="M 361.434697 195.880895 
L 361.434697 204.545895 
Q 361.434697 205.520895 361.519697 205.790895 
Q 361.607197 206.060895 361.879697 206.233395 
Q 362.154697 206.403395 362.757197 206.403395 
L 362.997197 206.403395 
L 362.997197 206.693395 
L 357.419697 206.693395 
L 357.419697 206.403395 
L 357.702197 206.403395 
Q 358.382197 206.403395 358.669697 206.248395 
Q 358.959697 206.090895 359.059697 205.818395 
Q 359.162197 205.545895 359.162197 204.545895 
L 359.162197 199.053395 
Q 359.162197 198.318395 359.092197 198.135895 
Q 359.022197 197.950895 358.829697 197.823395 
Q 358.639697 197.693395 358.389697 197.693395 
Q 357.989697 197.693395 357.419697 197.943395 
L 357.279697 197.660895 
L 361.177197 195.880895 
L 361.434697 195.880895 
z
M 369.677197 200.708395 
Q 370.794697 201.528395 371.227197 202.235895 
Q 371.662197 202.943395 371.662197 203.858395 
Q 371.662197 205.138395 370.697197 206.025895 
Q 369.732197 206.913395 368.077197 206.913395 
Q 366.507197 206.913395 365.647197 206.140895 
Q 364.787197 205.365895 364.787197 204.248395 
Q 364.787197 203.395895 365.282197 202.755895 
Q 365.779697 202.115895 366.934697 201.583395 
Q 365.677197 200.623395 365.322197 200.013395 
Q 364.967197 199.403395 364.967197 198.598395 
Q 364.967197 197.535895 365.869697 196.728395 
Q 366.772197 195.920895 368.342197 195.920895 
Q 369.857197 195.920895 370.672197 196.635895 
Q 371.489697 197.348395 371.489697 198.348395 
Q 371.489697 199.098395 371.047197 199.673395 
Q 370.607197 200.248395 369.677197 200.708395 
z
M 369.084697 200.310895 
Q 369.372197 199.920895 369.512197 199.435895 
Q 369.654697 198.950895 369.654697 198.373395 
Q 369.654697 197.358395 369.217197 196.818395 
Q 368.889697 196.403395 368.309697 196.403395 
Q 367.787197 196.403395 367.419697 196.783395 
Q 367.052197 197.160895 367.052197 197.723395 
Q 367.052197 198.295895 367.462197 198.908395 
Q 367.872197 199.520895 369.084697 200.310895 
z
M 367.522197 201.958395 
Q 367.279697 202.178395 367.177197 202.358395 
Q 367.022197 202.630895 366.897197 203.155895 
Q 366.772197 203.678395 366.772197 204.248395 
Q 366.772197 204.983395 366.959697 205.478395 
Q 367.147197 205.973395 367.494697 206.193395 
Q 367.842197 206.410895 368.209697 206.410895 
Q 368.779697 206.410895 369.169697 205.993395 
Q 369.559697 205.575895 369.559697 204.848395 
Q 369.559697 203.333395 367.522197 201.958395 
z
M 374.224697 204.285895 
Q 374.772197 204.285895 375.149697 204.670895 
Q 375.529697 205.053395 375.529697 205.590895 
Q 375.529697 206.130895 375.147197 206.510895 
Q 374.764697 206.888395 374.224697 206.888395 
Q 373.684697 206.888395 373.304697 206.510895 
Q 372.927197 206.130895 372.927197 205.590895 
Q 372.927197 205.053395 373.304697 204.670895 
Q 373.684697 204.285895 374.224697 204.285895 
z
M 381.434697 195.880895 
L 381.434697 204.545895 
Q 381.434697 205.520895 381.519697 205.790895 
Q 381.607197 206.060895 381.879697 206.233395 
Q 382.154697 206.403395 382.757197 206.403395 
L 382.997197 206.403395 
L 382.997197 206.693395 
L 377.419697 206.693395 
L 377.419697 206.403395 
L 377.702197 206.403395 
Q 378.382197 206.403395 378.669697 206.248395 
Q 378.959697 206.090895 379.059697 205.818395 
Q 379.162197 205.545895 379.162197 204.545895 
L 379.162197 199.053395 
Q 379.162197 198.318395 379.092197 198.135895 
Q 379.022197 197.950895 378.829697 197.823395 
Q 378.639697 197.693395 378.389697 197.693395 
Q 377.989697 197.693395 377.419697 197.943395 
L 377.279697 197.660895 
L 381.177197 195.880895 
L 381.434697 195.880895 
z
"/>
   </g>
   <g id="text_27">
    <path d="M 358.592197 111.782798 
L 358.592197 111.510298 
Q 359.482197 111.250298 359.824697 111.027798 
Q 360.169697 110.805298 360.419697 110.350298 
Q 360.669697 109.892798 360.669697 109.422798 
Q 360.669697 108.775298 360.197197 108.310298 
Q 359.724697 107.845298 359.022197 107.845298 
Q 357.927197 107.845298 357.162197 109.000298 
L 356.872197 108.900298 
Q 357.434697 107.595298 358.314697 106.940298 
Q 359.194697 106.282798 360.272197 106.282798 
Q 361.372197 106.282798 362.087197 106.955298 
Q 362.802197 107.625298 362.802197 108.525298 
Q 362.802197 109.110298 362.469697 109.655298 
Q 362.139697 110.197798 361.427197 110.610298 
Q 362.342197 111.055298 362.822197 111.707798 
Q 363.302197 112.360298 363.302197 113.345298 
Q 363.302197 115.000298 362.102197 116.162798 
Q 360.904697 117.322798 358.889697 117.322798 
Q 357.544697 117.322798 356.927197 116.875298 
Q 356.482197 116.562798 356.482197 116.072798 
Q 356.482197 115.712798 356.739697 115.460298 
Q 356.997197 115.205298 357.334697 115.205298 
Q 357.592197 115.205298 357.819697 115.312798 
Q 357.944697 115.375298 358.704697 115.997798 
Q 359.467197 116.617798 360.132197 116.617798 
Q 360.709697 116.617798 361.122197 116.162798 
Q 361.537197 115.705298 361.537197 115.000298 
Q 361.537197 113.930298 360.787197 113.027798 
Q 360.037197 112.125298 358.592197 111.782798 
z
M 371.639697 111.797798 
Q 371.639697 113.385298 371.194697 114.760298 
Q 370.927197 115.602798 370.477197 116.142798 
Q 370.029697 116.680298 369.459697 116.997798 
Q 368.889697 117.315298 368.217197 117.315298 
Q 367.452197 117.315298 366.834697 116.925298 
Q 366.217197 116.532798 365.739697 115.805298 
Q 365.397197 115.275298 365.139697 114.392798 
Q 364.802197 113.197798 364.802197 111.922798 
Q 364.802197 110.197798 365.287197 108.750298 
Q 365.684697 107.555298 366.497197 106.920298 
Q 367.309697 106.282798 368.217197 106.282798 
Q 369.139697 106.282798 369.939697 106.912798 
Q 370.739697 107.540298 371.114697 108.602798 
Q 371.639697 110.062798 371.639697 111.797798 
z
M 369.232197 111.782798 
Q 369.232197 109.000298 369.202197 108.540298 
Q 369.122197 107.455298 368.827197 107.072798 
Q 368.632197 106.822798 368.194697 106.822798 
Q 367.857197 106.822798 367.662197 107.010298 
Q 367.372197 107.282798 367.269697 107.975298 
Q 367.169697 108.665298 367.169697 112.797798 
Q 367.169697 115.047798 367.327197 115.812798 
Q 367.444697 116.367798 367.662197 116.555298 
Q 367.882197 116.742798 368.239697 116.742798 
Q 368.632197 116.742798 368.827197 116.492798 
Q 369.154697 116.055298 369.202197 115.142798 
L 369.232197 111.782798 
z
M 374.224697 114.687798 
Q 374.772197 114.687798 375.149697 115.072798 
Q 375.529697 115.455298 375.529697 115.992798 
Q 375.529697 116.532798 375.147197 116.912798 
Q 374.764697 117.290298 374.224697 117.290298 
Q 373.684697 117.290298 373.304697 116.912798 
Q 372.927197 116.532798 372.927197 115.992798 
Q 372.927197 115.455298 373.304697 115.072798 
Q 373.684697 114.687798 374.224697 114.687798 
z
M 381.677197 111.110298 
Q 382.794697 111.930298 383.227197 112.637798 
Q 383.662197 113.345298 383.662197 114.260298 
Q 383.662197 115.540298 382.697197 116.427798 
Q 381.732197 117.315298 380.077197 117.315298 
Q 378.507197 117.315298 377.647197 116.542798 
Q 376.787197 115.767798 376.787197 114.650298 
Q 376.787197 113.797798 377.282197 113.157798 
Q 377.779697 112.517798 378.934697 111.985298 
Q 377.677197 111.025298 377.322197 110.415298 
Q 376.967197 109.805298 376.967197 109.000298 
Q 376.967197 107.937798 377.869697 107.130298 
Q 378.772197 106.322798 380.342197 106.322798 
Q 381.857197 106.322798 382.672197 107.037798 
Q 383.489697 107.750298 383.489697 108.750298 
Q 383.489697 109.500298 383.047197 110.075298 
Q 382.607197 110.650298 381.677197 111.110298 
z
M 381.084697 110.712798 
Q 381.372197 110.322798 381.512197 109.837798 
Q 381.654697 109.352798 381.654697 108.775298 
Q 381.654697 107.760298 381.217197 107.220298 
Q 380.889697 106.805298 380.309697 106.805298 
Q 379.787197 106.805298 379.419697 107.185298 
Q 379.052197 107.562798 379.052197 108.125298 
Q 379.052197 108.697798 379.462197 109.310298 
Q 379.872197 109.922798 381.084697 110.712798 
z
M 379.522197 112.360298 
Q 379.279697 112.580298 379.177197 112.760298 
Q 379.022197 113.032798 378.897197 113.557798 
Q 378.772197 114.080298 378.772197 114.650298 
Q 378.772197 115.385298 378.959697 115.880298 
Q 379.147197 116.375298 379.494697 116.595298 
Q 379.842197 116.812798 380.209697 116.812798 
Q 380.779697 116.812798 381.169697 116.395298 
Q 381.559697 115.977798 381.559697 115.250298 
Q 381.559697 113.735298 379.522197 112.360298 
z
" style="stroke: #ffffff; stroke-width: 3.8"/>
    <path d="M 358.592197 111.782798 
L 358.592197 111.510298 
Q 359.482197 111.250298 359.824697 111.027798 
Q 360.169697 110.805298 360.419697 110.350298 
Q 360.669697 109.892798 360.669697 109.422798 
Q 360.669697 108.775298 360.197197 108.310298 
Q 359.724697 107.845298 359.022197 107.845298 
Q 357.927197 107.845298 357.162197 109.000298 
L 356.872197 108.900298 
Q 357.434697 107.595298 358.314697 106.940298 
Q 359.194697 106.282798 360.272197 106.282798 
Q 361.372197 106.282798 362.087197 106.955298 
Q 362.802197 107.625298 362.802197 108.525298 
Q 362.802197 109.110298 362.469697 109.655298 
Q 362.139697 110.197798 361.427197 110.610298 
Q 362.342197 111.055298 362.822197 111.707798 
Q 363.302197 112.360298 363.302197 113.345298 
Q 363.302197 115.000298 362.102197 116.162798 
Q 360.904697 117.322798 358.889697 117.322798 
Q 357.544697 117.322798 356.927197 116.875298 
Q 356.482197 116.562798 356.482197 116.072798 
Q 356.482197 115.712798 356.739697 115.460298 
Q 356.997197 115.205298 357.334697 115.205298 
Q 357.592197 115.205298 357.819697 115.312798 
Q 357.944697 115.375298 358.704697 115.997798 
Q 359.467197 116.617798 360.132197 116.617798 
Q 360.709697 116.617798 361.122197 116.162798 
Q 361.537197 115.705298 361.537197 115.000298 
Q 361.537197 113.930298 360.787197 113.027798 
Q 360.037197 112.125298 358.592197 111.782798 
z
M 371.639697 111.797798 
Q 371.639697 113.385298 371.194697 114.760298 
Q 370.927197 115.602798 370.477197 116.142798 
Q 370.029697 116.680298 369.459697 116.997798 
Q 368.889697 117.315298 368.217197 117.315298 
Q 367.452197 117.315298 366.834697 116.925298 
Q 366.217197 116.532798 365.739697 115.805298 
Q 365.397197 115.275298 365.139697 114.392798 
Q 364.802197 113.197798 364.802197 111.922798 
Q 364.802197 110.197798 365.287197 108.750298 
Q 365.684697 107.555298 366.497197 106.920298 
Q 367.309697 106.282798 368.217197 106.282798 
Q 369.139697 106.282798 369.939697 106.912798 
Q 370.739697 107.540298 371.114697 108.602798 
Q 371.639697 110.062798 371.639697 111.797798 
z
M 369.232197 111.782798 
Q 369.232197 109.000298 369.202197 108.540298 
Q 369.122197 107.455298 368.827197 107.072798 
Q 368.632197 106.822798 368.194697 106.822798 
Q 367.857197 106.822798 367.662197 107.010298 
Q 367.372197 107.282798 367.269697 107.975298 
Q 367.169697 108.665298 367.169697 112.797798 
Q 367.169697 115.047798 367.327197 115.812798 
Q 367.444697 116.367798 367.662197 116.555298 
Q 367.882197 116.742798 368.239697 116.742798 
Q 368.632197 116.742798 368.827197 116.492798 
Q 369.154697 116.055298 369.202197 115.142798 
L 369.232197 111.782798 
z
M 374.224697 114.687798 
Q 374.772197 114.687798 375.149697 115.072798 
Q 375.529697 115.455298 375.529697 115.992798 
Q 375.529697 116.532798 375.147197 116.912798 
Q 374.764697 117.290298 374.224697 117.290298 
Q 373.684697 117.290298 373.304697 116.912798 
Q 372.927197 116.532798 372.927197 115.992798 
Q 372.927197 115.455298 373.304697 115.072798 
Q 373.684697 114.687798 374.224697 114.687798 
z
M 381.677197 111.110298 
Q 382.794697 111.930298 383.227197 112.637798 
Q 383.662197 113.345298 383.662197 114.260298 
Q 383.662197 115.540298 382.697197 116.427798 
Q 381.732197 117.315298 380.077197 117.315298 
Q 378.507197 117.315298 377.647197 116.542798 
Q 376.787197 115.767798 376.787197 114.650298 
Q 376.787197 113.797798 377.282197 113.157798 
Q 377.779697 112.517798 378.934697 111.985298 
Q 377.677197 111.025298 377.322197 110.415298 
Q 376.967197 109.805298 376.967197 109.000298 
Q 376.967197 107.937798 377.869697 107.130298 
Q 378.772197 106.322798 380.342197 106.322798 
Q 381.857197 106.322798 382.672197 107.037798 
Q 383.489697 107.750298 383.489697 108.750298 
Q 383.489697 109.500298 383.047197 110.075298 
Q 382.607197 110.650298 381.677197 111.110298 
z
M 381.084697 110.712798 
Q 381.372197 110.322798 381.512197 109.837798 
Q 381.654697 109.352798 381.654697 108.775298 
Q 381.654697 107.760298 381.217197 107.220298 
Q 380.889697 106.805298 380.309697 106.805298 
Q 379.787197 106.805298 379.419697 107.185298 
Q 379.052197 107.562798 379.052197 108.125298 
Q 379.052197 108.697798 379.462197 109.310298 
Q 379.872197 109.922798 381.084697 110.712798 
z
M 379.522197 112.360298 
Q 379.279697 112.580298 379.177197 112.760298 
Q 379.022197 113.032798 378.897197 113.557798 
Q 378.772197 114.080298 378.772197 114.650298 
Q 378.772197 115.385298 378.959697 115.880298 
Q 379.147197 116.375298 379.494697 116.595298 
Q 379.842197 116.812798 380.209697 116.812798 
Q 380.779697 116.812798 381.169697 116.395298 
Q 381.559697 115.977798 381.559697 115.250298 
Q 381.559697 113.735298 379.522197 112.360298 
z
"/>
   </g>
   <g id="text_28">
    <path d="M 577.363672 277.490133 
L 577.363672 286.155133 
Q 577.363672 287.130133 577.448672 287.400133 
Q 577.536172 287.670133 577.808672 287.842633 
Q 578.083672 288.012633 578.686172 288.012633 
L 578.926172 288.012633 
L 578.926172 288.302633 
L 573.348672 288.302633 
L 573.348672 288.012633 
L 573.631172 288.012633 
Q 574.311172 288.012633 574.598672 287.857633 
Q 574.888672 287.700133 574.988672 287.427633 
Q 575.091172 287.155133 575.091172 286.155133 
L 575.091172 280.662633 
Q 575.091172 279.927633 575.021172 279.745133 
Q 574.951172 279.560133 574.758672 279.432633 
Q 574.568672 279.302633 574.318672 279.302633 
Q 573.918672 279.302633 573.348672 279.552633 
L 573.208672 279.270133 
L 577.106172 277.490133 
L 577.363672 277.490133 
z
M 582.988672 288.522633 
L 585.873672 279.780133 
L 583.676172 279.780133 
Q 582.388672 279.780133 581.738672 280.115133 
Q 581.286172 280.350133 580.988672 280.997633 
L 580.693672 280.997633 
L 581.458672 277.707633 
L 587.771172 277.707633 
L 584.216172 288.522633 
L 582.988672 288.522633 
z
M 590.153672 285.895133 
Q 590.701172 285.895133 591.078672 286.280133 
Q 591.458672 286.662633 591.458672 287.200133 
Q 591.458672 287.740133 591.076172 288.120133 
Q 590.693672 288.497633 590.153672 288.497633 
Q 589.613672 288.497633 589.233672 288.120133 
Q 588.856172 287.740133 588.856172 287.200133 
Q 588.856172 286.662633 589.233672 286.280133 
Q 589.613672 285.895133 590.153672 285.895133 
z
M 592.646172 288.522633 
L 592.646172 288.302633 
Q 593.943672 288.005133 594.846172 287.427633 
Q 595.748672 286.850133 596.273672 285.997633 
Q 596.801172 285.145133 597.013672 284.037633 
Q 596.528672 284.287633 596.188672 284.385133 
Q 595.848672 284.482633 595.473672 284.482633 
Q 594.271172 284.482633 593.468672 283.615133 
Q 592.668672 282.747633 592.668672 281.240133 
Q 592.668672 280.192633 593.101172 279.322633 
Q 593.536172 278.450133 594.341172 277.970133 
Q 595.146172 277.490133 596.013672 277.490133 
Q 596.943672 277.490133 597.771172 278.022633 
Q 598.598672 278.552633 599.091172 279.560133 
Q 599.583672 280.567633 599.583672 281.857633 
Q 599.583672 283.530133 598.781172 285.062633 
Q 597.981172 286.592633 596.396172 287.517633 
Q 594.811172 288.442633 592.646172 288.522633 
z
M 597.131172 283.380133 
Q 597.208672 282.505133 597.208672 281.842633 
Q 597.208672 280.420133 596.881172 279.192633 
Q 596.693672 278.512633 596.326172 278.192633 
Q 596.131172 278.020133 595.818672 278.020133 
Q 595.426172 278.020133 595.208672 278.357633 
Q 594.903672 278.817633 594.903672 280.115133 
Q 594.903672 282.280133 595.418672 283.100133 
Q 595.756172 283.630133 596.326172 283.630133 
Q 596.631172 283.630133 597.131172 283.380133 
z
" style="stroke: #ffffff; stroke-width: 3.8"/>
    <path d="M 577.363672 277.490133 
L 577.363672 286.155133 
Q 577.363672 287.130133 577.448672 287.400133 
Q 577.536172 287.670133 577.808672 287.842633 
Q 578.083672 288.012633 578.686172 288.012633 
L 578.926172 288.012633 
L 578.926172 288.302633 
L 573.348672 288.302633 
L 573.348672 288.012633 
L 573.631172 288.012633 
Q 574.311172 288.012633 574.598672 287.857633 
Q 574.888672 287.700133 574.988672 287.427633 
Q 575.091172 287.155133 575.091172 286.155133 
L 575.091172 280.662633 
Q 575.091172 279.927633 575.021172 279.745133 
Q 574.951172 279.560133 574.758672 279.432633 
Q 574.568672 279.302633 574.318672 279.302633 
Q 573.918672 279.302633 573.348672 279.552633 
L 573.208672 279.270133 
L 577.106172 277.490133 
L 577.363672 277.490133 
z
M 582.988672 288.522633 
L 585.873672 279.780133 
L 583.676172 279.780133 
Q 582.388672 279.780133 581.738672 280.115133 
Q 581.286172 280.350133 580.988672 280.997633 
L 580.693672 280.997633 
L 581.458672 277.707633 
L 587.771172 277.707633 
L 584.216172 288.522633 
L 582.988672 288.522633 
z
M 590.153672 285.895133 
Q 590.701172 285.895133 591.078672 286.280133 
Q 591.458672 286.662633 591.458672 287.200133 
Q 591.458672 287.740133 591.076172 288.120133 
Q 590.693672 288.497633 590.153672 288.497633 
Q 589.613672 288.497633 589.233672 288.120133 
Q 588.856172 287.740133 588.856172 287.200133 
Q 588.856172 286.662633 589.233672 286.280133 
Q 589.613672 285.895133 590.153672 285.895133 
z
M 592.646172 288.522633 
L 592.646172 288.302633 
Q 593.943672 288.005133 594.846172 287.427633 
Q 595.748672 286.850133 596.273672 285.997633 
Q 596.801172 285.145133 597.013672 284.037633 
Q 596.528672 284.287633 596.188672 284.385133 
Q 595.848672 284.482633 595.473672 284.482633 
Q 594.271172 284.482633 593.468672 283.615133 
Q 592.668672 282.747633 592.668672 281.240133 
Q 592.668672 280.192633 593.101172 279.322633 
Q 593.536172 278.450133 594.341172 277.970133 
Q 595.146172 277.490133 596.013672 277.490133 
Q 596.943672 277.490133 597.771172 278.022633 
Q 598.598672 278.552633 599.091172 279.560133 
Q 599.583672 280.567633 599.583672 281.857633 
Q 599.583672 283.530133 598.781172 285.062633 
Q 597.981172 286.592633 596.396172 287.517633 
Q 594.811172 288.442633 592.646172 288.522633 
z
M 597.131172 283.380133 
Q 597.208672 282.505133 597.208672 281.842633 
Q 597.208672 280.420133 596.881172 279.192633 
Q 596.693672 278.512633 596.326172 278.192633 
Q 596.131172 278.020133 595.818672 278.020133 
Q 595.426172 278.020133 595.208672 278.357633 
Q 594.903672 278.817633 594.903672 280.115133 
Q 594.903672 282.280133 595.418672 283.100133 
Q 595.756172 283.630133 596.326172 283.630133 
Q 596.631172 283.630133 597.131172 283.380133 
z
"/>
   </g>
   <g id="text_29">
    <path d="M 569.250349 404.624967 
L 569.250349 412.748404 
Q 569.250349 413.662467 569.330036 413.915592 
Q 569.412068 414.168717 569.667536 414.330436 
Q 569.925349 414.489811 570.490193 414.489811 
L 570.715193 414.489811 
L 570.715193 414.761686 
L 565.486286 414.761686 
L 565.486286 414.489811 
L 565.75113 414.489811 
Q 566.38863 414.489811 566.658161 414.344498 
Q 566.930036 414.196842 567.023786 413.941373 
Q 567.11988 413.685904 567.11988 412.748404 
L 567.11988 407.599186 
Q 567.11988 406.910123 567.054255 406.739029 
Q 566.98863 406.565592 566.808161 406.446061 
Q 566.630036 406.324186 566.395661 406.324186 
Q 566.020661 406.324186 565.486286 406.558561 
L 565.355036 406.293717 
L 569.008943 404.624967 
L 569.250349 404.624967 
z
M 573.740974 412.504654 
Q 574.254255 412.504654 574.608161 412.865592 
Q 574.964411 413.224186 574.964411 413.728092 
Q 574.964411 414.234342 574.605818 414.590592 
Q 574.247224 414.944498 573.740974 414.944498 
Q 573.234724 414.944498 572.878474 414.590592 
Q 572.524568 414.234342 572.524568 413.728092 
Q 572.524568 413.224186 572.878474 412.865592 
Q 573.234724 412.504654 573.740974 412.504654 
z
M 582.567536 409.795279 
Q 582.567536 411.283561 582.150349 412.572623 
Q 581.899568 413.362467 581.477693 413.868717 
Q 581.058161 414.372623 580.523786 414.670279 
Q 579.989411 414.967936 579.358943 414.967936 
Q 578.641755 414.967936 578.062849 414.602311 
Q 577.483943 414.234342 577.036286 413.552311 
Q 576.715193 413.055436 576.473786 412.228092 
Q 576.15738 411.107779 576.15738 409.912467 
Q 576.15738 408.295279 576.612068 406.938248 
Q 576.984724 405.817936 577.746443 405.222623 
Q 578.508161 404.624967 579.358943 404.624967 
Q 580.223786 404.624967 580.973786 405.215592 
Q 581.723786 405.803873 582.075349 406.799967 
Q 582.567536 408.168717 582.567536 409.795279 
z
M 580.310505 409.781217 
Q 580.310505 407.172623 580.28238 406.741373 
Q 580.20738 405.724186 579.930818 405.365592 
Q 579.748005 405.131217 579.337849 405.131217 
Q 579.021443 405.131217 578.83863 405.306998 
Q 578.566755 405.562467 578.470661 406.211686 
Q 578.376911 406.858561 578.376911 410.732779 
Q 578.376911 412.842154 578.524568 413.559342 
Q 578.634724 414.079654 578.83863 414.255436 
Q 579.04488 414.431217 579.380036 414.431217 
Q 579.748005 414.431217 579.930818 414.196842 
Q 580.237849 413.786686 580.28238 412.931217 
L 580.310505 409.781217 
z
" style="fill: #404040; stroke: #ffffff; stroke-width: 3.8"/>
    <path d="M 569.250349 404.624967 
L 569.250349 412.748404 
Q 569.250349 413.662467 569.330036 413.915592 
Q 569.412068 414.168717 569.667536 414.330436 
Q 569.925349 414.489811 570.490193 414.489811 
L 570.715193 414.489811 
L 570.715193 414.761686 
L 565.486286 414.761686 
L 565.486286 414.489811 
L 565.75113 414.489811 
Q 566.38863 414.489811 566.658161 414.344498 
Q 566.930036 414.196842 567.023786 413.941373 
Q 567.11988 413.685904 567.11988 412.748404 
L 567.11988 407.599186 
Q 567.11988 406.910123 567.054255 406.739029 
Q 566.98863 406.565592 566.808161 406.446061 
Q 566.630036 406.324186 566.395661 406.324186 
Q 566.020661 406.324186 565.486286 406.558561 
L 565.355036 406.293717 
L 569.008943 404.624967 
L 569.250349 404.624967 
z
M 573.740974 412.504654 
Q 574.254255 412.504654 574.608161 412.865592 
Q 574.964411 413.224186 574.964411 413.728092 
Q 574.964411 414.234342 574.605818 414.590592 
Q 574.247224 414.944498 573.740974 414.944498 
Q 573.234724 414.944498 572.878474 414.590592 
Q 572.524568 414.234342 572.524568 413.728092 
Q 572.524568 413.224186 572.878474 412.865592 
Q 573.234724 412.504654 573.740974 412.504654 
z
M 582.567536 409.795279 
Q 582.567536 411.283561 582.150349 412.572623 
Q 581.899568 413.362467 581.477693 413.868717 
Q 581.058161 414.372623 580.523786 414.670279 
Q 579.989411 414.967936 579.358943 414.967936 
Q 578.641755 414.967936 578.062849 414.602311 
Q 577.483943 414.234342 577.036286 413.552311 
Q 576.715193 413.055436 576.473786 412.228092 
Q 576.15738 411.107779 576.15738 409.912467 
Q 576.15738 408.295279 576.612068 406.938248 
Q 576.984724 405.817936 577.746443 405.222623 
Q 578.508161 404.624967 579.358943 404.624967 
Q 580.223786 404.624967 580.973786 405.215592 
Q 581.723786 405.803873 582.075349 406.799967 
Q 582.567536 408.168717 582.567536 409.795279 
z
M 580.310505 409.781217 
Q 580.310505 407.172623 580.28238 406.741373 
Q 580.20738 405.724186 579.930818 405.365592 
Q 579.748005 405.131217 579.337849 405.131217 
Q 579.021443 405.131217 578.83863 405.306998 
Q 578.566755 405.562467 578.470661 406.211686 
Q 578.376911 406.858561 578.376911 410.732779 
Q 578.376911 412.842154 578.524568 413.559342 
Q 578.634724 414.079654 578.83863 414.255436 
Q 579.04488 414.431217 579.380036 414.431217 
Q 579.748005 414.431217 579.930818 414.196842 
Q 580.237849 413.786686 580.28238 412.931217 
L 580.310505 409.781217 
z
" style="fill: #404040"/>
   </g>
   <g id="text_30">
    <path d="M 568.961768 377.614116 
L 563.116455 377.614116 
L 563.116455 377.452397 
Q 565.804736 374.253178 566.378955 373.146928 
Q 566.955518 372.040678 566.955518 370.985991 
Q 566.955518 370.217241 566.479736 369.708647 
Q 566.003955 369.197709 565.314893 369.197709 
Q 564.187549 369.197709 563.564111 370.327397 
L 563.292236 370.231303 
Q 563.68833 368.825053 564.49458 368.152397 
Q 565.30083 367.477397 566.355518 367.477397 
Q 567.107861 367.477397 567.731299 367.828959 
Q 568.354736 368.180522 568.706299 368.792241 
Q 569.057861 369.403959 569.057861 369.938334 
Q 569.057861 370.913334 568.514111 371.916459 
Q 567.77583 373.271147 565.284424 375.694584 
L 567.431299 375.694584 
Q 568.221143 375.694584 568.460205 375.628959 
Q 568.699268 375.563334 568.851611 375.406303 
Q 569.006299 375.249272 569.254736 374.743022 
L 569.51958 374.743022 
L 568.961768 377.614116 
z
M 570.623486 373.871147 
L 575.341455 367.477397 
L 576.234424 367.477397 
L 576.234424 373.871147 
L 577.143799 373.871147 
L 577.143799 375.387553 
L 576.234424 375.387553 
L 576.234424 377.614116 
L 574.221143 377.614116 
L 574.221143 375.387553 
L 570.623486 375.387553 
L 570.623486 373.871147 
z
M 571.335986 373.871147 
L 574.221143 373.871147 
L 574.221143 369.952397 
L 571.335986 373.871147 
z
M 579.62583 375.357084 
Q 580.139111 375.357084 580.493018 375.718022 
Q 580.849268 376.076616 580.849268 376.580522 
Q 580.849268 377.086772 580.490674 377.443022 
Q 580.13208 377.796928 579.62583 377.796928 
Q 579.11958 377.796928 578.76333 377.443022 
Q 578.409424 377.086772 578.409424 376.580522 
Q 578.409424 376.076616 578.76333 375.718022 
Q 579.11958 375.357084 579.62583 375.357084 
z
M 583.785986 367.681303 
L 588.435986 367.681303 
L 587.697705 369.572709 
L 583.785986 369.572709 
L 583.41333 370.561772 
Q 585.939893 370.655522 587.301611 371.820366 
Q 588.421924 372.778959 588.421924 374.208647 
Q 588.421924 375.122709 587.901611 375.999272 
Q 587.381299 376.873491 586.436768 377.346928 
Q 585.492236 377.820366 584.364893 377.820366 
Q 583.148486 377.820366 582.496924 377.365678 
Q 582.042236 377.042241 582.042236 376.632084 
Q 582.042236 376.318022 582.278955 376.076616 
Q 582.518018 375.835209 582.834424 375.835209 
Q 583.120361 375.835209 583.41333 375.952397 
Q 583.706299 376.069584 584.416455 376.566459 
Q 584.861768 376.873491 585.185205 376.990678 
Q 585.412549 377.079741 585.698486 377.079741 
Q 586.298486 377.079741 586.718018 376.641459 
Q 587.139893 376.200834 587.139893 375.584428 
Q 587.139893 374.295366 585.85083 373.491459 
Q 584.561768 372.685209 582.600049 372.685209 
Q 582.40083 372.685209 582.00708 372.692241 
L 583.785986 367.681303 
z
" style="fill: #404040; stroke: #ffffff; stroke-width: 3.8"/>
    <path d="M 568.961768 377.614116 
L 563.116455 377.614116 
L 563.116455 377.452397 
Q 565.804736 374.253178 566.378955 373.146928 
Q 566.955518 372.040678 566.955518 370.985991 
Q 566.955518 370.217241 566.479736 369.708647 
Q 566.003955 369.197709 565.314893 369.197709 
Q 564.187549 369.197709 563.564111 370.327397 
L 563.292236 370.231303 
Q 563.68833 368.825053 564.49458 368.152397 
Q 565.30083 367.477397 566.355518 367.477397 
Q 567.107861 367.477397 567.731299 367.828959 
Q 568.354736 368.180522 568.706299 368.792241 
Q 569.057861 369.403959 569.057861 369.938334 
Q 569.057861 370.913334 568.514111 371.916459 
Q 567.77583 373.271147 565.284424 375.694584 
L 567.431299 375.694584 
Q 568.221143 375.694584 568.460205 375.628959 
Q 568.699268 375.563334 568.851611 375.406303 
Q 569.006299 375.249272 569.254736 374.743022 
L 569.51958 374.743022 
L 568.961768 377.614116 
z
M 570.623486 373.871147 
L 575.341455 367.477397 
L 576.234424 367.477397 
L 576.234424 373.871147 
L 577.143799 373.871147 
L 577.143799 375.387553 
L 576.234424 375.387553 
L 576.234424 377.614116 
L 574.221143 377.614116 
L 574.221143 375.387553 
L 570.623486 375.387553 
L 570.623486 373.871147 
z
M 571.335986 373.871147 
L 574.221143 373.871147 
L 574.221143 369.952397 
L 571.335986 373.871147 
z
M 579.62583 375.357084 
Q 580.139111 375.357084 580.493018 375.718022 
Q 580.849268 376.076616 580.849268 376.580522 
Q 580.849268 377.086772 580.490674 377.443022 
Q 580.13208 377.796928 579.62583 377.796928 
Q 579.11958 377.796928 578.76333 377.443022 
Q 578.409424 377.086772 578.409424 376.580522 
Q 578.409424 376.076616 578.76333 375.718022 
Q 579.11958 375.357084 579.62583 375.357084 
z
M 583.785986 367.681303 
L 588.435986 367.681303 
L 587.697705 369.572709 
L 583.785986 369.572709 
L 583.41333 370.561772 
Q 585.939893 370.655522 587.301611 371.820366 
Q 588.421924 372.778959 588.421924 374.208647 
Q 588.421924 375.122709 587.901611 375.999272 
Q 587.381299 376.873491 586.436768 377.346928 
Q 585.492236 377.820366 584.364893 377.820366 
Q 583.148486 377.820366 582.496924 377.365678 
Q 582.042236 377.042241 582.042236 376.632084 
Q 582.042236 376.318022 582.278955 376.076616 
Q 582.518018 375.835209 582.834424 375.835209 
Q 583.120361 375.835209 583.41333 375.952397 
Q 583.706299 376.069584 584.416455 376.566459 
Q 584.861768 376.873491 585.185205 376.990678 
Q 585.412549 377.079741 585.698486 377.079741 
Q 586.298486 377.079741 586.718018 376.641459 
Q 587.139893 376.200834 587.139893 375.584428 
Q 587.139893 374.295366 585.85083 373.491459 
Q 584.561768 372.685209 582.600049 372.685209 
Q 582.40083 372.685209 582.00708 372.692241 
L 583.785986 367.681303 
z
" style="fill: #404040"/>
   </g>
   <g id="text_31">
    <path d="M 469.207275 322.649782 
L 469.207275 322.394313 
Q 470.04165 322.150563 470.362744 321.941969 
Q 470.686181 321.733375 470.920556 321.306813 
Q 471.154931 320.877907 471.154931 320.437282 
Q 471.154931 319.83025 470.711963 319.394313 
Q 470.268994 318.958375 469.6104 318.958375 
Q 468.583838 318.958375 467.86665 320.041188 
L 467.594775 319.947438 
Q 468.122119 318.724 468.947119 318.109938 
Q 469.772119 317.493532 470.782275 317.493532 
Q 471.813525 317.493532 472.483838 318.124 
Q 473.15415 318.752125 473.15415 319.595875 
Q 473.15415 320.144313 472.842431 320.65525 
Q 472.533056 321.163844 471.865088 321.550563 
Q 472.7229 321.96775 473.1729 322.579469 
Q 473.6229 323.191188 473.6229 324.114625 
Q 473.6229 325.666188 472.4979 326.756032 
Q 471.375244 327.843532 469.486181 327.843532 
Q 468.225244 327.843532 467.646338 327.424 
Q 467.22915 327.131032 467.22915 326.671657 
Q 467.22915 326.334157 467.470556 326.097438 
Q 467.711963 325.858375 468.028369 325.858375 
Q 468.269775 325.858375 468.483056 325.959157 
Q 468.600244 326.01775 469.312744 326.601344 
Q 470.027588 327.182594 470.651025 327.182594 
Q 471.192431 327.182594 471.57915 326.756032 
Q 471.968213 326.327125 471.968213 325.666188 
Q 471.968213 324.663063 471.265088 323.816969 
Q 470.561963 322.970875 469.207275 322.649782 
z
M 474.8604 323.887282 
L 479.578369 317.493532 
L 480.471338 317.493532 
L 480.471338 323.887282 
L 481.380713 323.887282 
L 481.380713 325.403688 
L 480.471338 325.403688 
L 480.471338 327.63025 
L 478.458056 327.63025 
L 478.458056 325.403688 
L 474.8604 325.403688 
L 474.8604 323.887282 
z
M 475.5729 323.887282 
L 478.458056 323.887282 
L 478.458056 319.968532 
L 475.5729 323.887282 
z
M 483.862744 325.373219 
Q 484.376025 325.373219 484.729931 325.734157 
Q 485.086181 326.09275 485.086181 326.596657 
Q 485.086181 327.102907 484.727588 327.459157 
Q 484.368994 327.813063 483.862744 327.813063 
Q 483.356494 327.813063 483.000244 327.459157 
Q 482.646338 327.102907 482.646338 326.596657 
Q 482.646338 326.09275 483.000244 325.734157 
Q 483.356494 325.373219 483.862744 325.373219 
z
M 486.199463 327.8365 
L 486.199463 327.63025 
Q 487.415869 327.351344 488.261963 326.809938 
Q 489.108056 326.268532 489.600244 325.469313 
Q 490.094775 324.670094 490.293994 323.631813 
Q 489.839306 323.866188 489.520556 323.957594 
Q 489.201806 324.049 488.850244 324.049 
Q 487.7229 324.049 486.970556 323.235719 
Q 486.220556 322.422438 486.220556 321.009157 
Q 486.220556 320.027125 486.626025 319.2115 
Q 487.033838 318.393532 487.788525 317.943532 
Q 488.543213 317.493532 489.356494 317.493532 
Q 490.228369 317.493532 491.00415 317.99275 
Q 491.779931 318.489625 492.24165 319.434157 
Q 492.703369 320.378688 492.703369 321.588063 
Q 492.703369 323.156032 491.951025 324.59275 
Q 491.201025 326.027125 489.715088 326.894313 
Q 488.22915 327.7615 486.199463 327.8365 
z
M 490.40415 323.015407 
Q 490.476806 322.195094 490.476806 321.574 
Q 490.476806 320.240407 490.169775 319.089625 
Q 489.993994 318.452125 489.649463 318.152125 
Q 489.46665 317.990407 489.173681 317.990407 
Q 488.805713 317.990407 488.601806 318.306813 
Q 488.315869 318.738063 488.315869 319.954469 
Q 488.315869 321.984157 488.798681 322.752907 
Q 489.115088 323.249782 489.649463 323.249782 
Q 489.9354 323.249782 490.40415 323.015407 
z
" style="fill: #404040; stroke: #ffffff; stroke-width: 3.8"/>
    <path d="M 469.207275 322.649782 
L 469.207275 322.394313 
Q 470.04165 322.150563 470.362744 321.941969 
Q 470.686181 321.733375 470.920556 321.306813 
Q 471.154931 320.877907 471.154931 320.437282 
Q 471.154931 319.83025 470.711963 319.394313 
Q 470.268994 318.958375 469.6104 318.958375 
Q 468.583838 318.958375 467.86665 320.041188 
L 467.594775 319.947438 
Q 468.122119 318.724 468.947119 318.109938 
Q 469.772119 317.493532 470.782275 317.493532 
Q 471.813525 317.493532 472.483838 318.124 
Q 473.15415 318.752125 473.15415 319.595875 
Q 473.15415 320.144313 472.842431 320.65525 
Q 472.533056 321.163844 471.865088 321.550563 
Q 472.7229 321.96775 473.1729 322.579469 
Q 473.6229 323.191188 473.6229 324.114625 
Q 473.6229 325.666188 472.4979 326.756032 
Q 471.375244 327.843532 469.486181 327.843532 
Q 468.225244 327.843532 467.646338 327.424 
Q 467.22915 327.131032 467.22915 326.671657 
Q 467.22915 326.334157 467.470556 326.097438 
Q 467.711963 325.858375 468.028369 325.858375 
Q 468.269775 325.858375 468.483056 325.959157 
Q 468.600244 326.01775 469.312744 326.601344 
Q 470.027588 327.182594 470.651025 327.182594 
Q 471.192431 327.182594 471.57915 326.756032 
Q 471.968213 326.327125 471.968213 325.666188 
Q 471.968213 324.663063 471.265088 323.816969 
Q 470.561963 322.970875 469.207275 322.649782 
z
M 474.8604 323.887282 
L 479.578369 317.493532 
L 480.471338 317.493532 
L 480.471338 323.887282 
L 481.380713 323.887282 
L 481.380713 325.403688 
L 480.471338 325.403688 
L 480.471338 327.63025 
L 478.458056 327.63025 
L 478.458056 325.403688 
L 474.8604 325.403688 
L 474.8604 323.887282 
z
M 475.5729 323.887282 
L 478.458056 323.887282 
L 478.458056 319.968532 
L 475.5729 323.887282 
z
M 483.862744 325.373219 
Q 484.376025 325.373219 484.729931 325.734157 
Q 485.086181 326.09275 485.086181 326.596657 
Q 485.086181 327.102907 484.727588 327.459157 
Q 484.368994 327.813063 483.862744 327.813063 
Q 483.356494 327.813063 483.000244 327.459157 
Q 482.646338 327.102907 482.646338 326.596657 
Q 482.646338 326.09275 483.000244 325.734157 
Q 483.356494 325.373219 483.862744 325.373219 
z
M 486.199463 327.8365 
L 486.199463 327.63025 
Q 487.415869 327.351344 488.261963 326.809938 
Q 489.108056 326.268532 489.600244 325.469313 
Q 490.094775 324.670094 490.293994 323.631813 
Q 489.839306 323.866188 489.520556 323.957594 
Q 489.201806 324.049 488.850244 324.049 
Q 487.7229 324.049 486.970556 323.235719 
Q 486.220556 322.422438 486.220556 321.009157 
Q 486.220556 320.027125 486.626025 319.2115 
Q 487.033838 318.393532 487.788525 317.943532 
Q 488.543213 317.493532 489.356494 317.493532 
Q 490.228369 317.493532 491.00415 317.99275 
Q 491.779931 318.489625 492.24165 319.434157 
Q 492.703369 320.378688 492.703369 321.588063 
Q 492.703369 323.156032 491.951025 324.59275 
Q 491.201025 326.027125 489.715088 326.894313 
Q 488.22915 327.7615 486.199463 327.8365 
z
M 490.40415 323.015407 
Q 490.476806 322.195094 490.476806 321.574 
Q 490.476806 320.240407 490.169775 319.089625 
Q 489.993994 318.452125 489.649463 318.152125 
Q 489.46665 317.990407 489.173681 317.990407 
Q 488.805713 317.990407 488.601806 318.306813 
Q 488.315869 318.738063 488.315869 319.954469 
Q 488.315869 321.984157 488.798681 322.752907 
Q 489.115088 323.249782 489.649463 323.249782 
Q 489.9354 323.249782 490.40415 323.015407 
z
" style="fill: #404040"/>
   </g>
   <g id="text_32">
    <path d="M 325.782367 370.849495 
L 319.937054 370.849495 
L 319.937054 370.687777 
Q 322.625336 367.488558 323.199554 366.382308 
Q 323.776117 365.276058 323.776117 364.22137 
Q 323.776117 363.45262 323.300336 362.944027 
Q 322.824554 362.433089 322.135492 362.433089 
Q 321.008148 362.433089 320.384711 363.562777 
L 320.112836 363.466683 
Q 320.508929 362.060433 321.315179 361.387777 
Q 322.121429 360.712777 323.176117 360.712777 
Q 323.928461 360.712777 324.551898 361.064339 
Q 325.175336 361.415902 325.526898 362.02762 
Q 325.878461 362.639339 325.878461 363.173714 
Q 325.878461 364.148714 325.334711 365.151839 
Q 324.596429 366.506527 322.105023 368.929964 
L 324.251898 368.929964 
Q 325.041742 368.929964 325.280804 368.864339 
Q 325.519867 368.798714 325.672211 368.641683 
Q 325.826898 368.484652 326.075336 367.978402 
L 326.340179 367.978402 
L 325.782367 370.849495 
z
M 334.022992 365.883089 
Q 334.022992 367.37137 333.605804 368.660433 
Q 333.355023 369.450277 332.933148 369.956527 
Q 332.513617 370.460433 331.979242 370.758089 
Q 331.444867 371.055745 330.814398 371.055745 
Q 330.097211 371.055745 329.518304 370.69012 
Q 328.939398 370.322152 328.491742 369.64012 
Q 328.170648 369.143245 327.929242 368.315902 
Q 327.612836 367.195589 327.612836 366.000277 
Q 327.612836 364.383089 328.067523 363.026058 
Q 328.440179 361.905745 329.201898 361.310433 
Q 329.963617 360.712777 330.814398 360.712777 
Q 331.679242 360.712777 332.429242 361.303402 
Q 333.179242 361.891683 333.530804 362.887777 
Q 334.022992 364.256527 334.022992 365.883089 
z
M 331.765961 365.869027 
Q 331.765961 363.260433 331.737836 362.829183 
Q 331.662836 361.811995 331.386273 361.453402 
Q 331.203461 361.219027 330.793304 361.219027 
Q 330.476898 361.219027 330.294086 361.394808 
Q 330.022211 361.650277 329.926117 362.299495 
Q 329.832367 362.94637 329.832367 366.820589 
Q 329.832367 368.929964 329.980023 369.647152 
Q 330.090179 370.167464 330.294086 370.343245 
Q 330.500336 370.519027 330.835492 370.519027 
Q 331.203461 370.519027 331.386273 370.284652 
Q 331.693304 369.874495 331.737836 369.019027 
L 331.765961 365.869027 
z
M 336.446429 368.592464 
Q 336.959711 368.592464 337.313617 368.953402 
Q 337.669867 369.311995 337.669867 369.815902 
Q 337.669867 370.322152 337.311273 370.678402 
Q 336.952679 371.032308 336.446429 371.032308 
Q 335.940179 371.032308 335.583929 370.678402 
Q 335.230023 370.322152 335.230023 369.815902 
Q 335.230023 369.311995 335.583929 368.953402 
Q 335.940179 368.592464 336.446429 368.592464 
z
M 338.694086 367.106527 
L 343.412054 360.712777 
L 344.305023 360.712777 
L 344.305023 367.106527 
L 345.214398 367.106527 
L 345.214398 368.622933 
L 344.305023 368.622933 
L 344.305023 370.849495 
L 342.291742 370.849495 
L 342.291742 368.622933 
L 338.694086 368.622933 
L 338.694086 367.106527 
z
M 339.406586 367.106527 
L 342.291742 367.106527 
L 342.291742 363.187777 
L 339.406586 367.106527 
z
" style="fill: #404040; stroke: #ffffff; stroke-width: 3.8"/>
    <path d="M 325.782367 370.849495 
L 319.937054 370.849495 
L 319.937054 370.687777 
Q 322.625336 367.488558 323.199554 366.382308 
Q 323.776117 365.276058 323.776117 364.22137 
Q 323.776117 363.45262 323.300336 362.944027 
Q 322.824554 362.433089 322.135492 362.433089 
Q 321.008148 362.433089 320.384711 363.562777 
L 320.112836 363.466683 
Q 320.508929 362.060433 321.315179 361.387777 
Q 322.121429 360.712777 323.176117 360.712777 
Q 323.928461 360.712777 324.551898 361.064339 
Q 325.175336 361.415902 325.526898 362.02762 
Q 325.878461 362.639339 325.878461 363.173714 
Q 325.878461 364.148714 325.334711 365.151839 
Q 324.596429 366.506527 322.105023 368.929964 
L 324.251898 368.929964 
Q 325.041742 368.929964 325.280804 368.864339 
Q 325.519867 368.798714 325.672211 368.641683 
Q 325.826898 368.484652 326.075336 367.978402 
L 326.340179 367.978402 
L 325.782367 370.849495 
z
M 334.022992 365.883089 
Q 334.022992 367.37137 333.605804 368.660433 
Q 333.355023 369.450277 332.933148 369.956527 
Q 332.513617 370.460433 331.979242 370.758089 
Q 331.444867 371.055745 330.814398 371.055745 
Q 330.097211 371.055745 329.518304 370.69012 
Q 328.939398 370.322152 328.491742 369.64012 
Q 328.170648 369.143245 327.929242 368.315902 
Q 327.612836 367.195589 327.612836 366.000277 
Q 327.612836 364.383089 328.067523 363.026058 
Q 328.440179 361.905745 329.201898 361.310433 
Q 329.963617 360.712777 330.814398 360.712777 
Q 331.679242 360.712777 332.429242 361.303402 
Q 333.179242 361.891683 333.530804 362.887777 
Q 334.022992 364.256527 334.022992 365.883089 
z
M 331.765961 365.869027 
Q 331.765961 363.260433 331.737836 362.829183 
Q 331.662836 361.811995 331.386273 361.453402 
Q 331.203461 361.219027 330.793304 361.219027 
Q 330.476898 361.219027 330.294086 361.394808 
Q 330.022211 361.650277 329.926117 362.299495 
Q 329.832367 362.94637 329.832367 366.820589 
Q 329.832367 368.929964 329.980023 369.647152 
Q 330.090179 370.167464 330.294086 370.343245 
Q 330.500336 370.519027 330.835492 370.519027 
Q 331.203461 370.519027 331.386273 370.284652 
Q 331.693304 369.874495 331.737836 369.019027 
L 331.765961 365.869027 
z
M 336.446429 368.592464 
Q 336.959711 368.592464 337.313617 368.953402 
Q 337.669867 369.311995 337.669867 369.815902 
Q 337.669867 370.322152 337.311273 370.678402 
Q 336.952679 371.032308 336.446429 371.032308 
Q 335.940179 371.032308 335.583929 370.678402 
Q 335.230023 370.322152 335.230023 369.815902 
Q 335.230023 369.311995 335.583929 368.953402 
Q 335.940179 368.592464 336.446429 368.592464 
z
M 338.694086 367.106527 
L 343.412054 360.712777 
L 344.305023 360.712777 
L 344.305023 367.106527 
L 345.214398 367.106527 
L 345.214398 368.622933 
L 344.305023 368.622933 
L 344.305023 370.849495 
L 342.291742 370.849495 
L 342.291742 368.622933 
L 338.694086 368.622933 
L 338.694086 367.106527 
z
M 339.406586 367.106527 
L 342.291742 367.106527 
L 342.291742 363.187777 
L 339.406586 367.106527 
z
" style="fill: #404040"/>
   </g>
  </g>
 </g>
 <defs>
  <clipPath id="pe14d19024c">
   <rect x="7.2" y="51.034687" width="730.764" height="432.785085"/>
  </clipPath>
 </defs>
</svg>
