<?xml version="1.0" encoding="utf-8" standalone="no"?>
<!DOCTYPE svg PUBLIC "-//W3C//DTD SVG 1.1//EN"
  "http://www.w3.org/Graphics/SVG/1.1/DTD/svg11.dtd">
<svg xmlns:xlink="http://www.w3.org/1999/xlink" width="745.164pt" height="495.749576pt" viewBox="0 0 745.164 495.749576" xmlns="http://www.w3.org/2000/svg" version="1.1">
 <metadata>
  <rdf:RDF xmlns:dc="http://purl.org/dc/elements/1.1/" xmlns:cc="http://creativecommons.org/ns#" xmlns:rdf="http://www.w3.org/1999/02/22-rdf-syntax-ns#">
   <cc:Work>
    <dc:type rdf:resource="http://purl.org/dc/dcmitype/StillImage"/>
    <dc:date>2026-07-13T16:58:35.834595</dc:date>
    <dc:format>image/svg+xml</dc:format>
    <dc:creator>
     <cc:Agent>
      <dc:title>Matplotlib v3.10.8, https://matplotlib.org/</dc:title>
     </cc:Agent>
    </dc:creator>
   </cc:Work>
  </rdf:RDF>
 </metadata>
 <defs>
  <style type="text/css">*{stroke-linejoin: round; stroke-linecap: butt}</style>
 </defs>
 <g id="figure_1">
  <g id="patch_1">
   <path d="M 0 495.749576 
L 745.164 495.749576 
L 745.164 0 
L 0 0 
L 0 495.749576 
z
" style="fill: none"/>
  </g>
  <g id="axes_1">
   <g id="patch_2">
    <path d="M 120.350555 418.386915 
Q 120.350555 448.430706 120.350555 476.426023 
" clip-path="url(#p80b44d3718)" style="fill: none; stroke: #111111; stroke-width: 1.832212; stroke-linejoin: miter; stroke-linecap: round"/>
    <path d="M 123.880863 469.365408 
L 120.350555 476.426023 
L 116.820247 469.365408 
z
" clip-path="url(#p80b44d3718)" style="fill: #111111; stroke: #111111; stroke-width: 1.832212; stroke-linejoin: miter; stroke-linecap: round"/>
   </g>
   <g id="patch_3">
    <path d="M 120.350555 310.252774 
Q 120.350555 332.509927 120.350555 351.163299 
" clip-path="url(#p80b44d3718)" style="fill: none; stroke: #111111; stroke-width: 3.223319; stroke-linejoin: miter; stroke-linecap: round"/>
    <path d="M 124.326017 343.212375 
L 120.350555 351.163299 
L 116.375093 343.212375 
z
" clip-path="url(#p80b44d3718)" style="fill: #111111; stroke: #111111; stroke-width: 3.223319; stroke-linejoin: miter; stroke-linecap: round"/>
   </g>
   <g id="patch_4">
    <path d="M 120.350555 223.419342 
Q 120.350555 242.812779 120.350555 257.054867 
" clip-path="url(#p80b44d3718)" style="fill: none; stroke: #111111; stroke-width: 4.607507; stroke-linejoin: miter; stroke-linecap: round"/>
    <path d="M 124.768957 248.218062 
L 120.350555 257.054867 
L 115.932153 248.218062 
z
" clip-path="url(#p80b44d3718)" style="fill: #111111; stroke: #111111; stroke-width: 4.607507; stroke-linejoin: miter; stroke-linecap: round"/>
   </g>
   <g id="patch_5">
    <path d="M 370.224697 260.886286 
Q 370.224697 286.224523 370.224697 309.689044 
" clip-path="url(#p80b44d3718)" style="fill: none; stroke: #111111; stroke-width: 1.675902; stroke-linejoin: miter; stroke-linecap: round"/>
    <path d="M 373.704985 302.728467 
L 370.224697 309.689044 
L 366.744408 302.728467 
z
" clip-path="url(#p80b44d3718)" style="fill: #111111; stroke: #111111; stroke-width: 1.675902; stroke-linejoin: miter; stroke-linecap: round"/>
   </g>
   <g id="patch_6">
    <path d="M 370.224697 175.017524 
Q 370.224697 190.847543 370.224697 201.989118 
" clip-path="url(#p80b44d3718)" style="fill: none; stroke: #111111; stroke-width: 4.193471; stroke-linejoin: miter; stroke-linecap: round"/>
    <path d="M 374.510608 193.417296 
L 370.224697 201.989118 
L 365.938786 193.417296 
z
" clip-path="url(#p80b44d3718)" style="fill: #111111; stroke: #111111; stroke-width: 4.193471; stroke-linejoin: miter; stroke-linecap: round"/>
   </g>
   <g id="patch_7">
    <path d="M 370.224697 110.561831 
Q 370.224697 125.193533 370.224697 133.340638 
" clip-path="url(#p80b44d3718)" style="fill: none; stroke: #111111; stroke-width: 5.8; stroke-linejoin: miter; stroke-linecap: round"/>
    <path d="M 375.024697 123.740638 
L 370.224697 133.340638 
L 365.424697 123.740638 
z
" clip-path="url(#p80b44d3718)" style="fill: #111111; stroke: #111111; stroke-width: 5.8; stroke-linejoin: miter; stroke-linecap: round"/>
   </g>
   <g id="patch_8">
    <path d="M 586.153672 196.24636 
Q 586.153672 215.302323 586.153672 231.151114 
" clip-path="url(#p80b44d3718)" style="fill: none; stroke: #111111; stroke-width: 2.868581; stroke-linejoin: miter; stroke-linecap: round"/>
    <path d="M 590.015618 223.427222 
L 586.153672 231.151114 
L 582.291726 223.427222 
z
" clip-path="url(#p80b44d3718)" style="fill: #111111; stroke: #111111; stroke-width: 2.868581; stroke-linejoin: miter; stroke-linecap: round"/>
   </g>
   <g id="line2d_1">
    <path d="M 165.610777 478.474498 
L 550.322663 478.474498 
" clip-path="url(#p80b44d3718)" style="fill: none; stroke-dasharray: 5.6,4.2; stroke-dashoffset: 0; stroke: #404040; stroke-width: 1.4"/>
   </g>
   <g id="line2d_2">
    <path d="M 165.610777 354.76708 
L 550.322663 354.76708 
" clip-path="url(#p80b44d3718)" style="fill: none; stroke-dasharray: 5.6,4.2; stroke-dashoffset: 0; stroke: #404040; stroke-width: 1.4"/>
   </g>
   <g id="line2d_3">
    <path d="M 415.484919 311.56276 
L 560.694797 311.56276 
" clip-path="url(#p80b44d3718)" style="fill: none; stroke-dasharray: 5.6,4.2; stroke-dashoffset: 0; stroke: #404040; stroke-width: 1.4"/>
   </g>
   <g id="patch_9">
    <path d="M 665.359061 234.358286 
Q 577.478662 353.997058 490.245571 472.754596 
" clip-path="url(#p80b44d3718)" style="fill: none; stroke: #404040; stroke-width: 0.97799; stroke-linejoin: miter; stroke-linecap: round"/>
    <path d="M 495.93546 469.838434 
L 490.245571 472.754596 
L 491.326575 466.452987 
z
" clip-path="url(#p80b44d3718)" style="fill: #404040; stroke: #404040; stroke-width: 0.97799; stroke-linejoin: miter; stroke-linecap: round"/>
   </g>
   <g id="patch_10">
    <path d="M 620.098839 234.358286 
Q 577.650527 292.146643 536.21276 348.559263 
" clip-path="url(#p80b44d3718)" style="fill: none; stroke: #404040; stroke-width: 1.526788; stroke-linejoin: miter; stroke-linecap: round"/>
    <path d="M 542.266674 345.456533 
L 536.21276 348.559263 
L 537.362923 341.854494 
z
" clip-path="url(#p80b44d3718)" style="fill: #404040; stroke: #404040; stroke-width: 1.526788; stroke-linejoin: miter; stroke-linecap: round"/>
   </g>
   <g id="patch_11">
    <path d="M 574.838617 234.358286 
Q 541.504516 270.749329 509.09769 306.128061 
" clip-path="url(#p80b44d3718)" style="fill: none; stroke: #404040; stroke-width: 1.22788; stroke-linejoin: miter; stroke-linecap: round"/>
    <path d="M 515.242814 303.775892 
L 509.09769 306.128061 
L 510.903029 299.80066 
z
" clip-path="url(#p80b44d3718)" style="fill: #404040; stroke: #404040; stroke-width: 1.22788; stroke-linejoin: miter; stroke-linecap: round"/>
   </g>
   <g id="patch_12">
    <path d="M 370.224697 311.56276 
Q 335.297342 331.667773 304.269746 349.527992 
" clip-path="url(#p80b44d3718)" style="fill: none; stroke: #404040; stroke-width: 4.024646; stroke-linejoin: miter; stroke-linecap: round"/>
    <path d="M 312.919345 349.020065 
L 304.269746 349.527992 
L 309.053163 342.303557 
z
" clip-path="url(#p80b44d3718)" style="fill: #404040; stroke: #404040; stroke-width: 4.024646; stroke-linejoin: miter; stroke-linecap: round"/>
   </g>
   <g id="line2d_4">
    <path d="M 120.350555 354.76708 
L 120.350555 414.854663 
" clip-path="url(#p80b44d3718)" style="fill: none; stroke: #111111; stroke-width: 1.832212"/>
   </g>
   <g id="line2d_5">
    <path d="M 120.350555 262.206216 
L 120.350555 306.720522 
" clip-path="url(#p80b44d3718)" style="fill: none; stroke: #111111; stroke-width: 3.223319"/>
   </g>
   <g id="line2d_6">
    <path d="M 120.350555 181.100216 
L 120.350555 219.88709 
" clip-path="url(#p80b44d3718)" style="fill: none; stroke: #111111; stroke-width: 4.607507"/>
   </g>
   <g id="line2d_7">
    <path d="M 370.224697 206.677561 
L 370.224697 257.354034 
" clip-path="url(#p80b44d3718)" style="fill: none; stroke: #111111; stroke-width: 1.675902"/>
   </g>
   <g id="line2d_8">
    <path d="M 370.224697 139.825235 
L 370.224697 171.485272 
" clip-path="url(#p80b44d3718)" style="fill: none; stroke: #111111; stroke-width: 4.193471"/>
   </g>
   <g id="line2d_9">
    <path d="M 370.224697 77.766175 
L 370.224697 107.029579 
" clip-path="url(#p80b44d3718)" style="fill: none; stroke: #111111; stroke-width: 5.8"/>
   </g>
   <g id="line2d_10">
    <path d="M 586.153672 154.602182 
L 586.153672 192.714108 
" clip-path="url(#p80b44d3718)" style="fill: none; stroke: #111111; stroke-width: 2.868581"/>
   </g>
   <g id="line2d_11">
    <path d="M 75.090333 478.474498 
L 165.610777 478.474498 
" clip-path="url(#p80b44d3718)" style="fill: none; stroke: #111111; stroke-width: 3.6; stroke-linecap: round"/>
   </g>
   <g id="line2d_12">
    <path d="M 75.090333 354.76708 
L 165.610777 354.76708 
" clip-path="url(#p80b44d3718)" style="fill: none; stroke: #111111; stroke-width: 3.6; stroke-linecap: round"/>
   </g>
   <g id="line2d_13">
    <path d="M 75.090333 262.206216 
L 165.610777 262.206216 
" clip-path="url(#p80b44d3718)" style="fill: none; stroke: #111111; stroke-width: 3.6; stroke-linecap: round"/>
   </g>
   <g id="line2d_14">
    <path d="M 75.090333 181.100216 
L 165.610777 181.100216 
" clip-path="url(#p80b44d3718)" style="fill: none; stroke: #111111; stroke-width: 3.6; stroke-linecap: round"/>
   </g>
   <g id="line2d_15">
    <path d="M 324.964475 311.56276 
L 415.484919 311.56276 
" clip-path="url(#p80b44d3718)" style="fill: none; stroke: #111111; stroke-width: 3.6; stroke-linecap: round"/>
   </g>
   <g id="line2d_16">
    <path d="M 324.964475 206.677561 
L 415.484919 206.677561 
" clip-path="url(#p80b44d3718)" style="fill: none; stroke: #111111; stroke-width: 3.6; stroke-linecap: round"/>
   </g>
   <g id="line2d_17">
    <path d="M 324.964475 139.825235 
L 415.484919 139.825235 
" clip-path="url(#p80b44d3718)" style="fill: none; stroke: #111111; stroke-width: 3.6; stroke-linecap: round"/>
   </g>
   <g id="line2d_18">
    <path d="M 324.964475 77.766175 
L 415.484919 77.766175 
" clip-path="url(#p80b44d3718)" style="fill: none; stroke: #111111; stroke-width: 3.6; stroke-linecap: round"/>
   </g>
   <g id="line2d_19">
    <path d="M 574.838617 234.358286 
L 665.359061 234.358286 
" clip-path="url(#p80b44d3718)" style="fill: none; stroke: #111111; stroke-width: 3.6; stroke-linecap: round"/>
   </g>
   <g id="line2d_20">
    <path d="M 574.838617 154.602182 
L 665.359061 154.602182 
" clip-path="url(#p80b44d3718)" style="fill: none; stroke: #111111; stroke-width: 3.6; stroke-linecap: round"/>
   </g>
   <g id="text_1">
    <!-- $^{206}\mathrm{Hg}$ -->
    <g transform="translate(325.662 38.14) scale(0.34 -0.34)">
     <defs>
      <path id="DejaVuSans-32" d="M 1228 531 
L 3431 531 
L 3431 0 
L 469 0 
L 469 531 
Q 828 903 1448 1529 
Q 2069 2156 2228 2338 
Q 2531 2678 2651 2914 
Q 2772 3150 2772 3378 
Q 2772 3750 2511 3984 
Q 2250 4219 1831 4219 
Q 1534 4219 1204 4116 
Q 875 4013 500 3803 
L 500 4441 
Q 881 4594 1212 4672 
Q 1544 4750 1819 4750 
Q 2544 4750 2975 4387 
Q 3406 4025 3406 3419 
Q 3406 3131 3298 2873 
Q 3191 2616 2906 2266 
Q 2828 2175 2409 1742 
Q 1991 1309 1228 531 
z
" transform="scale(0.015625)"/>
      <path id="DejaVuSans-30" d="M 2034 4250 
Q 1547 4250 1301 3770 
Q 1056 3291 1056 2328 
Q 1056 1369 1301 889 
Q 1547 409 2034 409 
Q 2525 409 2770 889 
Q 3016 1369 3016 2328 
Q 3016 3291 2770 3770 
Q 2525 4250 2034 4250 
z
M 2034 4750 
Q 2819 4750 3233 4129 
Q 3647 3509 3647 2328 
Q 3647 1150 3233 529 
Q 2819 -91 2034 -91 
Q 1250 -91 836 529 
Q 422 1150 422 2328 
Q 422 3509 836 4129 
Q 1250 4750 2034 4750 
z
" transform="scale(0.015625)"/>
      <path id="DejaVuSans-36" d="M 2113 2584 
Q 1688 2584 1439 2293 
Q 1191 2003 1191 1497 
Q 1191 994 1439 701 
Q 1688 409 2113 409 
Q 2538 409 2786 701 
Q 3034 994 3034 1497 
Q 3034 2003 2786 2293 
Q 2538 2584 2113 2584 
z
M 3366 4563 
L 3366 3988 
Q 3128 4100 2886 4159 
Q 2644 4219 2406 4219 
Q 1781 4219 1451 3797 
Q 1122 3375 1075 2522 
Q 1259 2794 1537 2939 
Q 1816 3084 2150 3084 
Q 2853 3084 3261 2657 
Q 3669 2231 3669 1497 
Q 3669 778 3244 343 
Q 2819 -91 2113 -91 
Q 1303 -91 875 529 
Q 447 1150 447 2328 
Q 447 3434 972 4092 
Q 1497 4750 2381 4750 
Q 2619 4750 2861 4703 
Q 3103 4656 3366 4563 
z
" transform="scale(0.015625)"/>
      <path id="DejaVuSans-48" d="M 628 4666 
L 1259 4666 
L 1259 2753 
L 3553 2753 
L 3553 4666 
L 4184 4666 
L 4184 0 
L 3553 0 
L 3553 2222 
L 1259 2222 
L 1259 0 
L 628 0 
L 628 4666 
z
" transform="scale(0.015625)"/>
      <path id="DejaVuSans-67" d="M 2906 1791 
Q 2906 2416 2648 2759 
Q 2391 3103 1925 3103 
Q 1463 3103 1205 2759 
Q 947 2416 947 1791 
Q 947 1169 1205 825 
Q 1463 481 1925 481 
Q 2391 481 2648 825 
Q 2906 1169 2906 1791 
z
M 3481 434 
Q 3481 -459 3084 -895 
Q 2688 -1331 1869 -1331 
Q 1566 -1331 1297 -1286 
Q 1028 -1241 775 -1147 
L 775 -588 
Q 1028 -725 1275 -790 
Q 1522 -856 1778 -856 
Q 2344 -856 2625 -561 
Q 2906 -266 2906 331 
L 2906 616 
Q 2728 306 2450 153 
Q 2172 0 1784 0 
Q 1141 0 747 490 
Q 353 981 353 1791 
Q 353 2603 747 3093 
Q 1141 3584 1784 3584 
Q 2172 3584 2450 3431 
Q 2728 3278 2906 2969 
L 2906 3500 
L 3481 3500 
L 3481 434 
z
" transform="scale(0.015625)"/>
     </defs>
     <use xlink:href="#DejaVuSans-32" transform="translate(0.957031 39.046875) scale(0.7)"/>
     <use xlink:href="#DejaVuSans-30" transform="translate(45.493164 39.046875) scale(0.7)"/>
     <use xlink:href="#DejaVuSans-36" transform="translate(90.029297 39.046875) scale(0.7)"/>
     <use xlink:href="#DejaVuSans-48" transform="translate(137.299805 0.765625)"/>
     <use xlink:href="#DejaVuSans-67" transform="translate(212.495117 0.765625)"/>
    </g>
   </g>
   <g id="text_2">
    <!-- 0 -->
    <g transform="translate(46.98525 482.889498) scale(0.16 -0.16)">
     <defs>
      <path id="DejaVuSans-BoldOblique-30" d="M 1913 728 
Q 2153 728 2339 872 
Q 2525 1016 2650 1294 
Q 2738 1491 2809 1742 
Q 2881 1994 2944 2338 
Q 2997 2616 3025 2850 
Q 3053 3084 3053 3250 
Q 3053 3600 2928 3764 
Q 2803 3928 2541 3928 
Q 2297 3928 2112 3789 
Q 1928 3650 1806 3366 
Q 1713 3163 1636 2903 
Q 1559 2644 1503 2338 
Q 1450 2056 1422 1815 
Q 1394 1575 1394 1409 
Q 1394 1063 1522 895 
Q 1650 728 1913 728 
z
M 4225 3072 
Q 4225 2450 4053 1862 
Q 3881 1275 3572 831 
Q 3256 375 2809 142 
Q 2363 -91 1813 -91 
Q 1047 -91 639 343 
Q 231 778 231 1594 
Q 231 2206 401 2795 
Q 572 3384 878 3822 
Q 1200 4281 1644 4515 
Q 2088 4750 2644 4750 
Q 3403 4750 3814 4314 
Q 4225 3878 4225 3072 
z
" transform="scale(0.015625)"/>
     </defs>
     <use xlink:href="#DejaVuSans-BoldOblique-30"/>
    </g>
   </g>
   <g id="text_3">
    <!-- 0⁺ -->
    <g transform="translate(182.58336 483.629732) scale(0.23 -0.23)">
     <defs>
      <path id="TimesNewRomanPS-BoldMT-30" d="M 2966 2119 
Q 2966 1484 2788 934 
Q 2681 597 2501 381 
Q 2322 166 2094 39 
Q 1866 -88 1597 -88 
Q 1291 -88 1044 68 
Q 797 225 606 516 
Q 469 728 366 1081 
Q 231 1559 231 2069 
Q 231 2759 425 3338 
Q 584 3816 909 4070 
Q 1234 4325 1597 4325 
Q 1966 4325 2286 4073 
Q 2606 3822 2756 3397 
Q 2966 2813 2966 2119 
z
M 2003 2125 
Q 2003 3238 1991 3422 
Q 1959 3856 1841 4009 
Q 1763 4109 1588 4109 
Q 1453 4109 1375 4034 
Q 1259 3925 1218 3648 
Q 1178 3372 1178 1719 
Q 1178 819 1241 513 
Q 1288 291 1375 216 
Q 1463 141 1606 141 
Q 1763 141 1841 241 
Q 1972 416 1991 781 
L 2003 2125 
z
" transform="scale(0.015625)"/>
      <path id="DejaVuSerif-Bold-207a" d="M 1916 4344 
L 1916 3441 
L 2950 3441 
L 2950 3044 
L 1916 3044 
L 1916 2141 
L 1463 2141 
L 1463 3044 
L 428 3044 
L 428 3441 
L 1463 3441 
L 1463 4344 
L 1916 4344 
z
" transform="scale(0.015625)"/>
     </defs>
     <use xlink:href="#TimesNewRomanPS-BoldMT-30"/>
     <use xlink:href="#DejaVuSerif-Bold-207a" transform="translate(50 0)"/>
    </g>
   </g>
   <g id="text_4">
    <!-- 3222 -->
    <g transform="translate(13.58775 359.18208) scale(0.16 -0.16)">
     <defs>
      <path id="DejaVuSans-BoldOblique-33" d="M 3022 2516 
Q 3375 2434 3572 2187 
Q 3769 1941 3769 1581 
Q 3769 806 3155 357 
Q 2541 -91 1466 -91 
Q 1059 -91 692 -33 
Q 325 25 0 141 
L 178 1069 
Q 456 906 784 817 
Q 1113 728 1441 728 
Q 1969 728 2276 926 
Q 2584 1125 2584 1459 
Q 2584 1738 2350 1877 
Q 2116 2016 1644 2016 
L 1166 2016 
L 1319 2791 
L 1825 2791 
Q 2316 2791 2602 2969 
Q 2888 3147 2888 3450 
Q 2888 3688 2689 3813 
Q 2491 3938 2113 3938 
Q 1847 3938 1534 3869 
Q 1222 3800 884 3669 
L 1056 4550 
Q 1425 4650 1783 4700 
Q 2141 4750 2491 4750 
Q 3281 4750 3679 4487 
Q 4078 4225 4078 3706 
Q 4078 3241 3801 2930 
Q 3525 2619 3022 2516 
z
" transform="scale(0.015625)"/>
      <path id="DejaVuSans-BoldOblique-32" d="M 1581 884 
L 3609 884 
L 3438 0 
L 50 0 
L 225 891 
L 2209 2388 
Q 2534 2638 2704 2894 
Q 2875 3150 2875 3391 
Q 2875 3647 2700 3787 
Q 2525 3928 2209 3928 
Q 1913 3928 1547 3811 
Q 1181 3694 722 3450 
L 922 4441 
Q 1347 4597 1756 4673 
Q 2166 4750 2566 4750 
Q 3278 4750 3687 4442 
Q 4097 4134 4097 3603 
Q 4097 3147 3847 2772 
Q 3597 2397 2747 1759 
L 1581 884 
z
" transform="scale(0.015625)"/>
     </defs>
     <use xlink:href="#DejaVuSans-BoldOblique-33"/>
     <use xlink:href="#DejaVuSans-BoldOblique-32" transform="translate(69.580078 0)"/>
     <use xlink:href="#DejaVuSans-BoldOblique-32" transform="translate(139.160156 0)"/>
     <use xlink:href="#DejaVuSans-BoldOblique-32" transform="translate(208.740234 0)"/>
    </g>
   </g>
   <g id="text_5">
    <!-- 2⁺ -->
    <g transform="translate(182.58336 359.922314) scale(0.23 -0.23)">
     <defs>
      <path id="TimesNewRomanPS-BoldMT-32" d="M 2650 0 
L 156 0 
L 156 69 
Q 1303 1434 1548 1906 
Q 1794 2378 1794 2828 
Q 1794 3156 1591 3373 
Q 1388 3591 1094 3591 
Q 613 3591 347 3109 
L 231 3150 
Q 400 3750 744 4037 
Q 1088 4325 1538 4325 
Q 1859 4325 2125 4175 
Q 2391 4025 2541 3764 
Q 2691 3503 2691 3275 
Q 2691 2859 2459 2431 
Q 2144 1853 1081 819 
L 1997 819 
Q 2334 819 2436 847 
Q 2538 875 2603 942 
Q 2669 1009 2775 1225 
L 2888 1225 
L 2650 0 
z
" transform="scale(0.015625)"/>
     </defs>
     <use xlink:href="#TimesNewRomanPS-BoldMT-32"/>
     <use xlink:href="#DejaVuSerif-Bold-207a" transform="translate(50 0)"/>
    </g>
   </g>
   <g id="text_6">
    <!-- 5633 -->
    <g transform="translate(13.58775 266.621216) scale(0.16 -0.16)">
     <defs>
      <path id="DejaVuSans-BoldOblique-35" d="M 1131 4666 
L 4122 4666 
L 3950 3781 
L 1919 3781 
L 1778 3059 
Q 1916 3097 2064 3117 
Q 2213 3138 2363 3138 
Q 3078 3138 3481 2811 
Q 3884 2484 3884 1906 
Q 3884 988 3262 448 
Q 2641 -91 1575 -91 
Q 1184 -91 815 -14 
Q 447 63 84 219 
L 269 1166 
Q 616 941 942 834 
Q 1269 728 1606 728 
Q 2100 728 2397 986 
Q 2694 1244 2694 1663 
Q 2694 1963 2469 2139 
Q 2244 2316 1856 2316 
Q 1594 2316 1289 2248 
Q 984 2181 622 2041 
L 1131 4666 
z
" transform="scale(0.015625)"/>
      <path id="DejaVuSans-BoldOblique-36" d="M 2316 2303 
Q 1959 2303 1731 2009 
Q 1503 1716 1503 1253 
Q 1503 975 1643 820 
Q 1784 666 2034 666 
Q 2388 666 2617 955 
Q 2847 1244 2847 1684 
Q 2847 1984 2709 2143 
Q 2572 2303 2316 2303 
z
M 4225 4544 
L 4056 3681 
Q 3788 3819 3534 3887 
Q 3281 3956 3028 3956 
Q 2447 3956 2087 3643 
Q 1728 3331 1650 2766 
Q 1894 2925 2151 3001 
Q 2409 3078 2700 3078 
Q 3275 3078 3640 2737 
Q 4006 2397 4006 1869 
Q 4006 1006 3442 454 
Q 2878 -97 1991 -97 
Q 1194 -97 756 354 
Q 319 806 319 1631 
Q 319 2269 512 2848 
Q 706 3428 1056 3847 
Q 1431 4294 1942 4519 
Q 2453 4744 3091 4744 
Q 3384 4744 3662 4694 
Q 3941 4644 4225 4544 
z
" transform="scale(0.015625)"/>
     </defs>
     <use xlink:href="#DejaVuSans-BoldOblique-35"/>
     <use xlink:href="#DejaVuSans-BoldOblique-36" transform="translate(69.580078 0)"/>
     <use xlink:href="#DejaVuSans-BoldOblique-33" transform="translate(139.160156 0)"/>
     <use xlink:href="#DejaVuSans-BoldOblique-33" transform="translate(208.740234 0)"/>
    </g>
   </g>
   <g id="text_7">
    <!-- 4⁺ -->
    <g transform="translate(182.58336 267.361451) scale(0.23 -0.23)">
     <defs>
      <path id="TimesNewRomanPS-BoldMT-34" d="M 159 1597 
L 2172 4325 
L 2553 4325 
L 2553 1597 
L 2941 1597 
L 2941 950 
L 2553 950 
L 2553 0 
L 1694 0 
L 1694 950 
L 159 950 
L 159 1597 
z
M 463 1597 
L 1694 1597 
L 1694 3269 
L 463 1597 
z
" transform="scale(0.015625)"/>
     </defs>
     <use xlink:href="#TimesNewRomanPS-BoldMT-34"/>
     <use xlink:href="#DejaVuSerif-Bold-207a" transform="translate(50 0)"/>
    </g>
   </g>
   <g id="text_8">
    <!-- 7745 -->
    <g transform="translate(13.58775 185.515216) scale(0.16 -0.16)">
     <defs>
      <path id="DejaVuSans-BoldOblique-37" d="M 922 4666 
L 4441 4666 
L 4300 3981 
L 1703 0 
L 500 0 
L 2969 3781 
L 756 3781 
L 922 4666 
z
" transform="scale(0.015625)"/>
      <path id="DejaVuSans-BoldOblique-34" d="M 2638 3641 
L 978 1722 
L 2259 1722 
L 2638 3641 
z
M 2606 4666 
L 3975 4666 
L 3397 1722 
L 4063 1722 
L 3897 850 
L 3231 850 
L 3066 0 
L 1925 0 
L 2094 850 
L -6 850 
L 197 1881 
L 2606 4666 
z
" transform="scale(0.015625)"/>
     </defs>
     <use xlink:href="#DejaVuSans-BoldOblique-37"/>
     <use xlink:href="#DejaVuSans-BoldOblique-37" transform="translate(69.580078 0)"/>
     <use xlink:href="#DejaVuSans-BoldOblique-34" transform="translate(139.160156 0)"/>
     <use xlink:href="#DejaVuSans-BoldOblique-35" transform="translate(208.740234 0)"/>
    </g>
   </g>
   <g id="text_9">
    <!-- 6⁺ -->
    <g transform="translate(182.58336 186.25545) scale(0.23 -0.23)">
     <defs>
      <path id="TimesNewRomanPS-BoldMT-36" d="M 3006 4325 
L 3006 4238 
Q 2441 4094 2098 3867 
Q 1756 3641 1557 3317 
Q 1359 2994 1250 2516 
Q 1388 2609 1478 2638 
Q 1681 2700 1888 2700 
Q 2363 2700 2680 2354 
Q 2997 2009 2997 1413 
Q 2997 994 2825 644 
Q 2653 294 2337 103 
Q 2022 -88 1663 -88 
Q 1272 -88 940 126 
Q 609 341 423 753 
Q 238 1166 238 1650 
Q 238 2363 580 2977 
Q 922 3591 1551 3955 
Q 2181 4319 3006 4325 
z
M 1209 2263 
Q 1184 1831 1184 1631 
Q 1184 1200 1267 797 
Q 1350 394 1494 231 
Q 1597 116 1738 116 
Q 1881 116 1993 283 
Q 2106 450 2106 963 
Q 2106 1825 1897 2153 
Q 1763 2366 1534 2366 
Q 1409 2366 1209 2263 
z
" transform="scale(0.015625)"/>
     </defs>
     <use xlink:href="#TimesNewRomanPS-BoldMT-36"/>
     <use xlink:href="#DejaVuSerif-Bold-207a" transform="translate(50 0)"/>
    </g>
   </g>
   <g id="text_10">
    <!-- 4347 -->
    <g transform="translate(263.461892 315.97776) scale(0.16 -0.16)">
     <use xlink:href="#DejaVuSans-BoldOblique-34"/>
     <use xlink:href="#DejaVuSans-BoldOblique-33" transform="translate(69.580078 0)"/>
     <use xlink:href="#DejaVuSans-BoldOblique-34" transform="translate(139.160156 0)"/>
     <use xlink:href="#DejaVuSans-BoldOblique-37" transform="translate(208.740234 0)"/>
    </g>
   </g>
   <g id="text_11">
    <!-- 0⁺ -->
    <g transform="translate(432.457502 316.717994) scale(0.23 -0.23)">
     <use xlink:href="#TimesNewRomanPS-BoldMT-30"/>
     <use xlink:href="#DejaVuSerif-Bold-207a" transform="translate(50 0)"/>
    </g>
   </g>
   <g id="text_12">
    <!-- 7079 -->
    <g transform="translate(263.461892 211.092561) scale(0.16 -0.16)">
     <defs>
      <path id="DejaVuSans-BoldOblique-39" d="M 263 103 
L 428 966 
Q 700 825 953 758 
Q 1206 691 1459 691 
Q 2041 691 2400 1003 
Q 2759 1316 2834 1881 
Q 2594 1722 2337 1645 
Q 2081 1569 1791 1569 
Q 1219 1569 853 1909 
Q 488 2250 488 2778 
Q 488 3641 1052 4192 
Q 1616 4744 2503 4744 
Q 3300 4744 3736 4292 
Q 4172 3841 4172 3016 
Q 4172 2381 3978 1801 
Q 3784 1222 3431 800 
Q 3056 353 2548 128 
Q 2041 -97 1403 -97 
Q 1106 -97 825 -47 
Q 544 3 263 103 
z
M 2169 2344 
Q 2525 2344 2753 2637 
Q 2981 2931 2981 3391 
Q 2981 3675 2845 3828 
Q 2709 3981 2456 3981 
Q 2103 3981 1870 3690 
Q 1638 3400 1638 2963 
Q 1638 2663 1775 2503 
Q 1913 2344 2169 2344 
z
" transform="scale(0.015625)"/>
     </defs>
     <use xlink:href="#DejaVuSans-BoldOblique-37"/>
     <use xlink:href="#DejaVuSans-BoldOblique-30" transform="translate(69.580078 0)"/>
     <use xlink:href="#DejaVuSans-BoldOblique-37" transform="translate(139.160156 0)"/>
     <use xlink:href="#DejaVuSans-BoldOblique-39" transform="translate(208.740234 0)"/>
    </g>
   </g>
   <g id="text_13">
    <!-- 2⁺ -->
    <g transform="translate(432.457502 211.832796) scale(0.23 -0.23)">
     <use xlink:href="#TimesNewRomanPS-BoldMT-32"/>
     <use xlink:href="#DejaVuSerif-Bold-207a" transform="translate(50 0)"/>
    </g>
   </g>
   <g id="text_14">
    <!-- 8820 -->
    <g transform="translate(263.461892 144.240235) scale(0.16 -0.16)">
     <defs>
      <path id="DejaVuSans-BoldOblique-38" d="M 2150 2088 
Q 1784 2088 1539 1839 
Q 1294 1591 1294 1228 
Q 1294 969 1453 817 
Q 1613 666 1888 666 
Q 2259 666 2503 911 
Q 2747 1156 2747 1522 
Q 2747 1781 2586 1934 
Q 2425 2088 2150 2088 
z
M 1381 2484 
Q 1044 2625 876 2850 
Q 709 3075 709 3391 
Q 709 4025 1229 4387 
Q 1750 4750 2669 4750 
Q 3406 4750 3812 4475 
Q 4219 4200 4219 3700 
Q 4219 3256 3936 2940 
Q 3653 2625 3128 2484 
Q 3509 2338 3690 2091 
Q 3872 1844 3872 1466 
Q 3872 747 3311 328 
Q 2750 -91 1772 -91 
Q 1000 -91 570 217 
Q 141 525 141 1075 
Q 141 1572 470 1945 
Q 800 2319 1381 2484 
z
M 2559 3994 
Q 2241 3994 2048 3808 
Q 1856 3622 1856 3316 
Q 1856 3103 1995 2972 
Q 2134 2841 2363 2841 
Q 2681 2841 2873 3027 
Q 3066 3213 3066 3519 
Q 3066 3734 2927 3864 
Q 2788 3994 2559 3994 
z
" transform="scale(0.015625)"/>
     </defs>
     <use xlink:href="#DejaVuSans-BoldOblique-38"/>
     <use xlink:href="#DejaVuSans-BoldOblique-38" transform="translate(69.580078 0)"/>
     <use xlink:href="#DejaVuSans-BoldOblique-32" transform="translate(139.160156 0)"/>
     <use xlink:href="#DejaVuSans-BoldOblique-30" transform="translate(208.740234 0)"/>
    </g>
   </g>
   <g id="text_15">
    <!-- 4⁺ -->
    <g transform="translate(432.457502 144.98047) scale(0.23 -0.23)">
     <use xlink:href="#TimesNewRomanPS-BoldMT-34"/>
     <use xlink:href="#DejaVuSerif-Bold-207a" transform="translate(50 0)"/>
    </g>
   </g>
   <g id="text_16">
    <!-- 10437 -->
    <g transform="translate(252.329392 82.181175) scale(0.16 -0.16)">
     <defs>
      <path id="DejaVuSans-BoldOblique-31" d="M 441 831 
L 1503 831 
L 2088 3847 
L 953 3622 
L 1113 4441 
L 2241 4666 
L 3384 4666 
L 2644 831 
L 3700 831 
L 3541 0 
L 275 0 
L 441 831 
z
" transform="scale(0.015625)"/>
     </defs>
     <use xlink:href="#DejaVuSans-BoldOblique-31"/>
     <use xlink:href="#DejaVuSans-BoldOblique-30" transform="translate(69.580078 0)"/>
     <use xlink:href="#DejaVuSans-BoldOblique-34" transform="translate(139.160156 0)"/>
     <use xlink:href="#DejaVuSans-BoldOblique-33" transform="translate(208.740234 0)"/>
     <use xlink:href="#DejaVuSans-BoldOblique-37" transform="translate(278.320312 0)"/>
    </g>
   </g>
   <g id="text_17">
    <!-- 6⁺ -->
    <g transform="translate(432.457502 82.92141) scale(0.23 -0.23)">
     <use xlink:href="#TimesNewRomanPS-BoldMT-36"/>
     <use xlink:href="#DejaVuSerif-Bold-207a" transform="translate(50 0)"/>
    </g>
   </g>
   <g id="text_18">
    <!-- 6358 -->
    <g transform="translate(513.336034 238.773286) scale(0.16 -0.16)">
     <use xlink:href="#DejaVuSans-BoldOblique-36"/>
     <use xlink:href="#DejaVuSans-BoldOblique-33" transform="translate(69.580078 0)"/>
     <use xlink:href="#DejaVuSans-BoldOblique-35" transform="translate(139.160156 0)"/>
     <use xlink:href="#DejaVuSans-BoldOblique-38" transform="translate(208.740234 0)"/>
    </g>
   </g>
   <g id="text_19">
    <!-- 2⁺ -->
    <g transform="translate(682.331644 239.51352) scale(0.23 -0.23)">
     <use xlink:href="#TimesNewRomanPS-BoldMT-32"/>
     <use xlink:href="#DejaVuSerif-Bold-207a" transform="translate(50 0)"/>
    </g>
   </g>
   <g id="text_20">
    <!-- 8435 -->
    <g transform="translate(513.336034 159.017182) scale(0.16 -0.16)">
     <use xlink:href="#DejaVuSans-BoldOblique-38"/>
     <use xlink:href="#DejaVuSans-BoldOblique-34" transform="translate(69.580078 0)"/>
     <use xlink:href="#DejaVuSans-BoldOblique-33" transform="translate(139.160156 0)"/>
     <use xlink:href="#DejaVuSans-BoldOblique-35" transform="translate(208.740234 0)"/>
    </g>
   </g>
   <g id="text_21">
    <!-- 3⁺ -->
    <g transform="translate(682.331644 159.757416) scale(0.23 -0.23)">
     <defs>
      <path id="TimesNewRomanPS-BoldMT-33" d="M 947 2125 
L 947 2234 
Q 1303 2338 1440 2427 
Q 1578 2516 1678 2698 
Q 1778 2881 1778 3069 
Q 1778 3328 1589 3514 
Q 1400 3700 1119 3700 
Q 681 3700 375 3238 
L 259 3278 
Q 484 3800 836 4062 
Q 1188 4325 1619 4325 
Q 2059 4325 2345 4056 
Q 2631 3788 2631 3428 
Q 2631 3194 2498 2976 
Q 2366 2759 2081 2594 
Q 2447 2416 2639 2155 
Q 2831 1894 2831 1500 
Q 2831 838 2351 373 
Q 1872 -91 1066 -91 
Q 528 -91 281 88 
Q 103 213 103 409 
Q 103 553 206 654 
Q 309 756 444 756 
Q 547 756 638 713 
Q 688 688 992 439 
Q 1297 191 1563 191 
Q 1794 191 1959 373 
Q 2125 556 2125 838 
Q 2125 1266 1825 1627 
Q 1525 1988 947 2125 
z
" transform="scale(0.015625)"/>
     </defs>
     <use xlink:href="#TimesNewRomanPS-BoldMT-33"/>
     <use xlink:href="#DejaVuSerif-Bold-207a" transform="translate(50 0)"/>
    </g>
   </g>
   <g id="text_22">
    <path d="M 112.000555 409.394539 
L 112.000555 418.059539 
Q 112.000555 419.034539 112.085555 419.304539 
Q 112.173055 419.574539 112.445555 419.747039 
Q 112.720555 419.917039 113.323055 419.917039 
L 113.563055 419.917039 
L 113.563055 420.207039 
L 107.985555 420.207039 
L 107.985555 419.917039 
L 108.268055 419.917039 
Q 108.948055 419.917039 109.235555 419.762039 
Q 109.525555 419.604539 109.625555 419.332039 
Q 109.728055 419.059539 109.728055 418.059539 
L 109.728055 412.567039 
Q 109.728055 411.832039 109.658055 411.649539 
Q 109.588055 411.464539 109.395555 411.337039 
Q 109.205555 411.207039 108.955555 411.207039 
Q 108.555555 411.207039 107.985555 411.457039 
L 107.845555 411.174539 
L 111.743055 409.394539 
L 112.000555 409.394539 
z
M 119.120555 409.394539 
L 119.120555 418.059539 
Q 119.120555 419.034539 119.205555 419.304539 
Q 119.293055 419.574539 119.565555 419.747039 
Q 119.840555 419.917039 120.443055 419.917039 
L 120.683055 419.917039 
L 120.683055 420.207039 
L 115.105555 420.207039 
L 115.105555 419.917039 
L 115.388055 419.917039 
Q 116.068055 419.917039 116.355555 419.762039 
Q 116.645555 419.604539 116.745555 419.332039 
Q 116.848055 419.059539 116.848055 418.059539 
L 116.848055 412.567039 
Q 116.848055 411.832039 116.778055 411.649539 
Q 116.708055 411.464539 116.515555 411.337039 
Q 116.325555 411.207039 116.075555 411.207039 
Q 115.675555 411.207039 115.105555 411.457039 
L 114.965555 411.174539 
L 118.863055 409.394539 
L 119.120555 409.394539 
z
M 123.910555 417.799539 
Q 124.458055 417.799539 124.835555 418.184539 
Q 125.215555 418.567039 125.215555 419.104539 
Q 125.215555 419.644539 124.833055 420.024539 
Q 124.450555 420.402039 123.910555 420.402039 
Q 123.370555 420.402039 122.990555 420.024539 
Q 122.613055 419.644539 122.613055 419.104539 
Q 122.613055 418.567039 122.990555 418.184539 
Q 123.370555 417.799539 123.910555 417.799539 
z
M 126.403055 420.427039 
L 126.403055 420.207039 
Q 127.700555 419.909539 128.603055 419.332039 
Q 129.505555 418.754539 130.030555 417.902039 
Q 130.558055 417.049539 130.770555 415.942039 
Q 130.285555 416.192039 129.945555 416.289539 
Q 129.605555 416.387039 129.230555 416.387039 
Q 128.028055 416.387039 127.225555 415.519539 
Q 126.425555 414.652039 126.425555 413.144539 
Q 126.425555 412.097039 126.858055 411.227039 
Q 127.293055 410.354539 128.098055 409.874539 
Q 128.903055 409.394539 129.770555 409.394539 
Q 130.700555 409.394539 131.528055 409.927039 
Q 132.355555 410.457039 132.848055 411.464539 
Q 133.340555 412.472039 133.340555 413.762039 
Q 133.340555 415.434539 132.538055 416.967039 
Q 131.738055 418.497039 130.153055 419.422039 
Q 128.568055 420.347039 126.403055 420.427039 
z
M 130.888055 415.284539 
Q 130.965555 414.409539 130.965555 413.747039 
Q 130.965555 412.324539 130.638055 411.097039 
Q 130.450555 410.417039 130.083055 410.097039 
Q 129.888055 409.924539 129.575555 409.924539 
Q 129.183055 409.924539 128.965555 410.262039 
Q 128.660555 410.722039 128.660555 412.019539 
Q 128.660555 414.184539 129.175555 415.004539 
Q 129.513055 415.534539 130.083055 415.534539 
Q 130.388055 415.534539 130.888055 415.284539 
z
" style="stroke: #ffffff; stroke-width: 3.8"/>
    <path d="M 112.000555 409.394539 
L 112.000555 418.059539 
Q 112.000555 419.034539 112.085555 419.304539 
Q 112.173055 419.574539 112.445555 419.747039 
Q 112.720555 419.917039 113.323055 419.917039 
L 113.563055 419.917039 
L 113.563055 420.207039 
L 107.985555 420.207039 
L 107.985555 419.917039 
L 108.268055 419.917039 
Q 108.948055 419.917039 109.235555 419.762039 
Q 109.525555 419.604539 109.625555 419.332039 
Q 109.728055 419.059539 109.728055 418.059539 
L 109.728055 412.567039 
Q 109.728055 411.832039 109.658055 411.649539 
Q 109.588055 411.464539 109.395555 411.337039 
Q 109.205555 411.207039 108.955555 411.207039 
Q 108.555555 411.207039 107.985555 411.457039 
L 107.845555 411.174539 
L 111.743055 409.394539 
L 112.000555 409.394539 
z
M 119.120555 409.394539 
L 119.120555 418.059539 
Q 119.120555 419.034539 119.205555 419.304539 
Q 119.293055 419.574539 119.565555 419.747039 
Q 119.840555 419.917039 120.443055 419.917039 
L 120.683055 419.917039 
L 120.683055 420.207039 
L 115.105555 420.207039 
L 115.105555 419.917039 
L 115.388055 419.917039 
Q 116.068055 419.917039 116.355555 419.762039 
Q 116.645555 419.604539 116.745555 419.332039 
Q 116.848055 419.059539 116.848055 418.059539 
L 116.848055 412.567039 
Q 116.848055 411.832039 116.778055 411.649539 
Q 116.708055 411.464539 116.515555 411.337039 
Q 116.325555 411.207039 116.075555 411.207039 
Q 115.675555 411.207039 115.105555 411.457039 
L 114.965555 411.174539 
L 118.863055 409.394539 
L 119.120555 409.394539 
z
M 123.910555 417.799539 
Q 124.458055 417.799539 124.835555 418.184539 
Q 125.215555 418.567039 125.215555 419.104539 
Q 125.215555 419.644539 124.833055 420.024539 
Q 124.450555 420.402039 123.910555 420.402039 
Q 123.370555 420.402039 122.990555 420.024539 
Q 122.613055 419.644539 122.613055 419.104539 
Q 122.613055 418.567039 122.990555 418.184539 
Q 123.370555 417.799539 123.910555 417.799539 
z
M 126.403055 420.427039 
L 126.403055 420.207039 
Q 127.700555 419.909539 128.603055 419.332039 
Q 129.505555 418.754539 130.030555 417.902039 
Q 130.558055 417.049539 130.770555 415.942039 
Q 130.285555 416.192039 129.945555 416.289539 
Q 129.605555 416.387039 129.230555 416.387039 
Q 128.028055 416.387039 127.225555 415.519539 
Q 126.425555 414.652039 126.425555 413.144539 
Q 126.425555 412.097039 126.858055 411.227039 
Q 127.293055 410.354539 128.098055 409.874539 
Q 128.903055 409.394539 129.770555 409.394539 
Q 130.700555 409.394539 131.528055 409.927039 
Q 132.355555 410.457039 132.848055 411.464539 
Q 133.340555 412.472039 133.340555 413.762039 
Q 133.340555 415.434539 132.538055 416.967039 
Q 131.738055 418.497039 130.153055 419.422039 
Q 128.568055 420.347039 126.403055 420.427039 
z
M 130.888055 415.284539 
Q 130.965555 414.409539 130.965555 413.747039 
Q 130.965555 412.324539 130.638055 411.097039 
Q 130.450555 410.417039 130.083055 410.097039 
Q 129.888055 409.924539 129.575555 409.924539 
Q 129.183055 409.924539 128.965555 410.262039 
Q 128.660555 410.722039 128.660555 412.019539 
Q 128.660555 414.184539 129.175555 415.004539 
Q 129.513055 415.534539 130.083055 415.534539 
Q 130.388055 415.534539 130.888055 415.284539 
z
"/>
   </g>
   <g id="text_23">
    <path d="M 112.975555 312.072898 
L 106.740555 312.072898 
L 106.740555 311.900398 
Q 109.608055 308.487898 110.220555 307.307898 
Q 110.835555 306.127898 110.835555 305.002898 
Q 110.835555 304.182898 110.328055 303.640398 
Q 109.820555 303.095398 109.085555 303.095398 
Q 107.883055 303.095398 107.218055 304.300398 
L 106.928055 304.197898 
Q 107.350555 302.697898 108.210555 301.980398 
Q 109.070555 301.260398 110.195555 301.260398 
Q 110.998055 301.260398 111.663055 301.635398 
Q 112.328055 302.010398 112.703055 302.662898 
Q 113.078055 303.315398 113.078055 303.885398 
Q 113.078055 304.925398 112.498055 305.995398 
Q 111.710555 307.440398 109.053055 310.025398 
L 111.343055 310.025398 
Q 112.185555 310.025398 112.440555 309.955398 
Q 112.695555 309.885398 112.858055 309.717898 
Q 113.023055 309.550398 113.288055 309.010398 
L 113.570555 309.010398 
L 112.975555 312.072898 
z
M 117.185555 312.292898 
L 120.070555 303.550398 
L 117.873055 303.550398 
Q 116.585555 303.550398 115.935555 303.885398 
Q 115.483055 304.120398 115.185555 304.767898 
L 114.890555 304.767898 
L 115.655555 301.477898 
L 121.968055 301.477898 
L 118.413055 312.292898 
L 117.185555 312.292898 
z
M 124.350555 309.665398 
Q 124.898055 309.665398 125.275555 310.050398 
Q 125.655555 310.432898 125.655555 310.970398 
Q 125.655555 311.510398 125.273055 311.890398 
Q 124.890555 312.267898 124.350555 312.267898 
Q 123.810555 312.267898 123.430555 311.890398 
Q 123.053055 311.510398 123.053055 310.970398 
Q 123.053055 310.432898 123.430555 310.050398 
Q 123.810555 309.665398 124.350555 309.665398 
z
M 126.843055 312.292898 
L 126.843055 312.072898 
Q 128.140555 311.775398 129.043055 311.197898 
Q 129.945555 310.620398 130.470555 309.767898 
Q 130.998055 308.915398 131.210555 307.807898 
Q 130.725555 308.057898 130.385555 308.155398 
Q 130.045555 308.252898 129.670555 308.252898 
Q 128.468055 308.252898 127.665555 307.385398 
Q 126.865555 306.517898 126.865555 305.010398 
Q 126.865555 303.962898 127.298055 303.092898 
Q 127.733055 302.220398 128.538055 301.740398 
Q 129.343055 301.260398 130.210555 301.260398 
Q 131.140555 301.260398 131.968055 301.792898 
Q 132.795555 302.322898 133.288055 303.330398 
Q 133.780555 304.337898 133.780555 305.627898 
Q 133.780555 307.300398 132.978055 308.832898 
Q 132.178055 310.362898 130.593055 311.287898 
Q 129.008055 312.212898 126.843055 312.292898 
z
M 131.328055 307.150398 
Q 131.405555 306.275398 131.405555 305.612898 
Q 131.405555 304.190398 131.078055 302.962898 
Q 130.890555 302.282898 130.523055 301.962898 
Q 130.328055 301.790398 130.015555 301.790398 
Q 129.623055 301.790398 129.405555 302.127898 
Q 129.100555 302.587898 129.100555 303.885398 
Q 129.100555 306.050398 129.615555 306.870398 
Q 129.953055 307.400398 130.523055 307.400398 
Q 130.828055 307.400398 131.328055 307.150398 
z
" style="stroke: #ffffff; stroke-width: 3.8"/>
    <path d="M 112.975555 312.072898 
L 106.740555 312.072898 
L 106.740555 311.900398 
Q 109.608055 308.487898 110.220555 307.307898 
Q 110.835555 306.127898 110.835555 305.002898 
Q 110.835555 304.182898 110.328055 303.640398 
Q 109.820555 303.095398 109.085555 303.095398 
Q 107.883055 303.095398 107.218055 304.300398 
L 106.928055 304.197898 
Q 107.350555 302.697898 108.210555 301.980398 
Q 109.070555 301.260398 110.195555 301.260398 
Q 110.998055 301.260398 111.663055 301.635398 
Q 112.328055 302.010398 112.703055 302.662898 
Q 113.078055 303.315398 113.078055 303.885398 
Q 113.078055 304.925398 112.498055 305.995398 
Q 111.710555 307.440398 109.053055 310.025398 
L 111.343055 310.025398 
Q 112.185555 310.025398 112.440555 309.955398 
Q 112.695555 309.885398 112.858055 309.717898 
Q 113.023055 309.550398 113.288055 309.010398 
L 113.570555 309.010398 
L 112.975555 312.072898 
z
M 117.185555 312.292898 
L 120.070555 303.550398 
L 117.873055 303.550398 
Q 116.585555 303.550398 115.935555 303.885398 
Q 115.483055 304.120398 115.185555 304.767898 
L 114.890555 304.767898 
L 115.655555 301.477898 
L 121.968055 301.477898 
L 118.413055 312.292898 
L 117.185555 312.292898 
z
M 124.350555 309.665398 
Q 124.898055 309.665398 125.275555 310.050398 
Q 125.655555 310.432898 125.655555 310.970398 
Q 125.655555 311.510398 125.273055 311.890398 
Q 124.890555 312.267898 124.350555 312.267898 
Q 123.810555 312.267898 123.430555 311.890398 
Q 123.053055 311.510398 123.053055 310.970398 
Q 123.053055 310.432898 123.430555 310.050398 
Q 123.810555 309.665398 124.350555 309.665398 
z
M 126.843055 312.292898 
L 126.843055 312.072898 
Q 128.140555 311.775398 129.043055 311.197898 
Q 129.945555 310.620398 130.470555 309.767898 
Q 130.998055 308.915398 131.210555 307.807898 
Q 130.725555 308.057898 130.385555 308.155398 
Q 130.045555 308.252898 129.670555 308.252898 
Q 128.468055 308.252898 127.665555 307.385398 
Q 126.865555 306.517898 126.865555 305.010398 
Q 126.865555 303.962898 127.298055 303.092898 
Q 127.733055 302.220398 128.538055 301.740398 
Q 129.343055 301.260398 130.210555 301.260398 
Q 131.140555 301.260398 131.968055 301.792898 
Q 132.795555 302.322898 133.288055 303.330398 
Q 133.780555 304.337898 133.780555 305.627898 
Q 133.780555 307.300398 132.978055 308.832898 
Q 132.178055 310.362898 130.593055 311.287898 
Q 129.008055 312.212898 126.843055 312.292898 
z
M 131.328055 307.150398 
Q 131.405555 306.275398 131.405555 305.612898 
Q 131.405555 304.190398 131.078055 302.962898 
Q 130.890555 302.282898 130.523055 301.962898 
Q 130.328055 301.790398 130.015555 301.790398 
Q 129.623055 301.790398 129.405555 302.127898 
Q 129.100555 302.587898 129.100555 303.885398 
Q 129.100555 306.050398 129.615555 306.870398 
Q 129.953055 307.400398 130.523055 307.400398 
Q 130.828055 307.400398 131.328055 307.150398 
z
"/>
   </g>
   <g id="text_24">
    <path d="M 106.748055 221.246966 
L 111.780555 214.426966 
L 112.733055 214.426966 
L 112.733055 221.246966 
L 113.703055 221.246966 
L 113.703055 222.864466 
L 112.733055 222.864466 
L 112.733055 225.239466 
L 110.585555 225.239466 
L 110.585555 222.864466 
L 106.748055 222.864466 
L 106.748055 221.246966 
z
M 107.508055 221.246966 
L 110.585555 221.246966 
L 110.585555 217.066966 
L 107.508055 221.246966 
z
M 116.718055 219.926966 
L 116.718055 219.654466 
Q 117.608055 219.394466 117.950555 219.171966 
Q 118.295555 218.949466 118.545555 218.494466 
Q 118.795555 218.036966 118.795555 217.566966 
Q 118.795555 216.919466 118.323055 216.454466 
Q 117.850555 215.989466 117.148055 215.989466 
Q 116.053055 215.989466 115.288055 217.144466 
L 114.998055 217.044466 
Q 115.560555 215.739466 116.440555 215.084466 
Q 117.320555 214.426966 118.398055 214.426966 
Q 119.498055 214.426966 120.213055 215.099466 
Q 120.928055 215.769466 120.928055 216.669466 
Q 120.928055 217.254466 120.595555 217.799466 
Q 120.265555 218.341966 119.553055 218.754466 
Q 120.468055 219.199466 120.948055 219.851966 
Q 121.428055 220.504466 121.428055 221.489466 
Q 121.428055 223.144466 120.228055 224.306966 
Q 119.030555 225.466966 117.015555 225.466966 
Q 115.670555 225.466966 115.053055 225.019466 
Q 114.608055 224.706966 114.608055 224.216966 
Q 114.608055 223.856966 114.865555 223.604466 
Q 115.123055 223.349466 115.460555 223.349466 
Q 115.718055 223.349466 115.945555 223.456966 
Q 116.070555 223.519466 116.830555 224.141966 
Q 117.593055 224.761966 118.258055 224.761966 
Q 118.835555 224.761966 119.248055 224.306966 
Q 119.663055 223.849466 119.663055 223.144466 
Q 119.663055 222.074466 118.913055 221.171966 
Q 118.163055 220.269466 116.718055 219.926966 
z
M 124.350555 222.831966 
Q 124.898055 222.831966 125.275555 223.216966 
Q 125.655555 223.599466 125.655555 224.136966 
Q 125.655555 224.676966 125.273055 225.056966 
Q 124.890555 225.434466 124.350555 225.434466 
Q 123.810555 225.434466 123.430555 225.056966 
Q 123.053055 224.676966 123.053055 224.136966 
Q 123.053055 223.599466 123.430555 223.216966 
Q 123.810555 222.831966 124.350555 222.831966 
z
M 126.843055 225.459466 
L 126.843055 225.239466 
Q 128.140555 224.941966 129.043055 224.364466 
Q 129.945555 223.786966 130.470555 222.934466 
Q 130.998055 222.081966 131.210555 220.974466 
Q 130.725555 221.224466 130.385555 221.321966 
Q 130.045555 221.419466 129.670555 221.419466 
Q 128.468055 221.419466 127.665555 220.551966 
Q 126.865555 219.684466 126.865555 218.176966 
Q 126.865555 217.129466 127.298055 216.259466 
Q 127.733055 215.386966 128.538055 214.906966 
Q 129.343055 214.426966 130.210555 214.426966 
Q 131.140555 214.426966 131.968055 214.959466 
Q 132.795555 215.489466 133.288055 216.496966 
Q 133.780555 217.504466 133.780555 218.794466 
Q 133.780555 220.466966 132.978055 221.999466 
Q 132.178055 223.529466 130.593055 224.454466 
Q 129.008055 225.379466 126.843055 225.459466 
z
M 131.328055 220.316966 
Q 131.405555 219.441966 131.405555 218.779466 
Q 131.405555 217.356966 131.078055 216.129466 
Q 130.890555 215.449466 130.523055 215.129466 
Q 130.328055 214.956966 130.015555 214.956966 
Q 129.623055 214.956966 129.405555 215.294466 
Q 129.100555 215.754466 129.100555 217.051966 
Q 129.100555 219.216966 129.615555 220.036966 
Q 129.953055 220.566966 130.523055 220.566966 
Q 130.828055 220.566966 131.328055 220.316966 
z
" style="stroke: #ffffff; stroke-width: 3.8"/>
    <path d="M 106.748055 221.246966 
L 111.780555 214.426966 
L 112.733055 214.426966 
L 112.733055 221.246966 
L 113.703055 221.246966 
L 113.703055 222.864466 
L 112.733055 222.864466 
L 112.733055 225.239466 
L 110.585555 225.239466 
L 110.585555 222.864466 
L 106.748055 222.864466 
L 106.748055 221.246966 
z
M 107.508055 221.246966 
L 110.585555 221.246966 
L 110.585555 217.066966 
L 107.508055 221.246966 
z
M 116.718055 219.926966 
L 116.718055 219.654466 
Q 117.608055 219.394466 117.950555 219.171966 
Q 118.295555 218.949466 118.545555 218.494466 
Q 118.795555 218.036966 118.795555 217.566966 
Q 118.795555 216.919466 118.323055 216.454466 
Q 117.850555 215.989466 117.148055 215.989466 
Q 116.053055 215.989466 115.288055 217.144466 
L 114.998055 217.044466 
Q 115.560555 215.739466 116.440555 215.084466 
Q 117.320555 214.426966 118.398055 214.426966 
Q 119.498055 214.426966 120.213055 215.099466 
Q 120.928055 215.769466 120.928055 216.669466 
Q 120.928055 217.254466 120.595555 217.799466 
Q 120.265555 218.341966 119.553055 218.754466 
Q 120.468055 219.199466 120.948055 219.851966 
Q 121.428055 220.504466 121.428055 221.489466 
Q 121.428055 223.144466 120.228055 224.306966 
Q 119.030555 225.466966 117.015555 225.466966 
Q 115.670555 225.466966 115.053055 225.019466 
Q 114.608055 224.706966 114.608055 224.216966 
Q 114.608055 223.856966 114.865555 223.604466 
Q 115.123055 223.349466 115.460555 223.349466 
Q 115.718055 223.349466 115.945555 223.456966 
Q 116.070555 223.519466 116.830555 224.141966 
Q 117.593055 224.761966 118.258055 224.761966 
Q 118.835555 224.761966 119.248055 224.306966 
Q 119.663055 223.849466 119.663055 223.144466 
Q 119.663055 222.074466 118.913055 221.171966 
Q 118.163055 220.269466 116.718055 219.926966 
z
M 124.350555 222.831966 
Q 124.898055 222.831966 125.275555 223.216966 
Q 125.655555 223.599466 125.655555 224.136966 
Q 125.655555 224.676966 125.273055 225.056966 
Q 124.890555 225.434466 124.350555 225.434466 
Q 123.810555 225.434466 123.430555 225.056966 
Q 123.053055 224.676966 123.053055 224.136966 
Q 123.053055 223.599466 123.430555 223.216966 
Q 123.810555 222.831966 124.350555 222.831966 
z
M 126.843055 225.459466 
L 126.843055 225.239466 
Q 128.140555 224.941966 129.043055 224.364466 
Q 129.945555 223.786966 130.470555 222.934466 
Q 130.998055 222.081966 131.210555 220.974466 
Q 130.725555 221.224466 130.385555 221.321966 
Q 130.045555 221.419466 129.670555 221.419466 
Q 128.468055 221.419466 127.665555 220.551966 
Q 126.865555 219.684466 126.865555 218.176966 
Q 126.865555 217.129466 127.298055 216.259466 
Q 127.733055 215.386966 128.538055 214.906966 
Q 129.343055 214.426966 130.210555 214.426966 
Q 131.140555 214.426966 131.968055 214.959466 
Q 132.795555 215.489466 133.288055 216.496966 
Q 133.780555 217.504466 133.780555 218.794466 
Q 133.780555 220.466966 132.978055 221.999466 
Q 132.178055 223.529466 130.593055 224.454466 
Q 129.008055 225.379466 126.843055 225.459466 
z
M 131.328055 220.316966 
Q 131.405555 219.441966 131.405555 218.779466 
Q 131.405555 217.356966 131.078055 216.129466 
Q 130.890555 215.449466 130.523055 215.129466 
Q 130.328055 214.956966 130.015555 214.956966 
Q 129.623055 214.956966 129.405555 215.294466 
Q 129.100555 215.754466 129.100555 217.051966 
Q 129.100555 219.216966 129.615555 220.036966 
Q 129.953055 220.566966 130.523055 220.566966 
Q 130.828055 220.566966 131.328055 220.316966 
z
"/>
   </g>
   <g id="text_25">
    <path d="M 361.434697 251.89391 
L 361.434697 260.55891 
Q 361.434697 261.53391 361.519697 261.80391 
Q 361.607197 262.07391 361.879697 262.24641 
Q 362.154697 262.41641 362.757197 262.41641 
L 362.997197 262.41641 
L 362.997197 262.70641 
L 357.419697 262.70641 
L 357.419697 262.41641 
L 357.702197 262.41641 
Q 358.382197 262.41641 358.669697 262.26141 
Q 358.959697 262.10391 359.059697 261.83141 
Q 359.162197 261.55891 359.162197 260.55891 
L 359.162197 255.06641 
Q 359.162197 254.33141 359.092197 254.14891 
Q 359.022197 253.96391 358.829697 253.83641 
Q 358.639697 253.70641 358.389697 253.70641 
Q 357.989697 253.70641 357.419697 253.95641 
L 357.279697 253.67391 
L 361.177197 251.89391 
L 361.434697 251.89391 
z
M 371.639697 257.40891 
Q 371.639697 258.99641 371.194697 260.37141 
Q 370.927197 261.21391 370.477197 261.75391 
Q 370.029697 262.29141 369.459697 262.60891 
Q 368.889697 262.92641 368.217197 262.92641 
Q 367.452197 262.92641 366.834697 262.53641 
Q 366.217197 262.14391 365.739697 261.41641 
Q 365.397197 260.88641 365.139697 260.00391 
Q 364.802197 258.80891 364.802197 257.53391 
Q 364.802197 255.80891 365.287197 254.36141 
Q 365.684697 253.16641 366.497197 252.53141 
Q 367.309697 251.89391 368.217197 251.89391 
Q 369.139697 251.89391 369.939697 252.52391 
Q 370.739697 253.15141 371.114697 254.21391 
Q 371.639697 255.67391 371.639697 257.40891 
z
M 369.232197 257.39391 
Q 369.232197 254.61141 369.202197 254.15141 
Q 369.122197 253.06641 368.827197 252.68391 
Q 368.632197 252.43391 368.194697 252.43391 
Q 367.857197 252.43391 367.662197 252.62141 
Q 367.372197 252.89391 367.269697 253.58641 
Q 367.169697 254.27641 367.169697 258.40891 
Q 367.169697 260.65891 367.327197 261.42391 
Q 367.444697 261.97891 367.662197 262.16641 
Q 367.882197 262.35391 368.239697 262.35391 
Q 368.632197 262.35391 368.827197 262.10391 
Q 369.154697 261.66641 369.202197 260.75391 
L 369.232197 257.39391 
z
M 374.224697 260.29891 
Q 374.772197 260.29891 375.149697 260.68391 
Q 375.529697 261.06641 375.529697 261.60391 
Q 375.529697 262.14391 375.147197 262.52391 
Q 374.764697 262.90141 374.224697 262.90141 
Q 373.684697 262.90141 373.304697 262.52391 
Q 372.927197 262.14391 372.927197 261.60391 
Q 372.927197 261.06641 373.304697 260.68391 
Q 373.684697 260.29891 374.224697 260.29891 
z
M 381.434697 251.89391 
L 381.434697 260.55891 
Q 381.434697 261.53391 381.519697 261.80391 
Q 381.607197 262.07391 381.879697 262.24641 
Q 382.154697 262.41641 382.757197 262.41641 
L 382.997197 262.41641 
L 382.997197 262.70641 
L 377.419697 262.70641 
L 377.419697 262.41641 
L 377.702197 262.41641 
Q 378.382197 262.41641 378.669697 262.26141 
Q 378.959697 262.10391 379.059697 261.83141 
Q 379.162197 261.55891 379.162197 260.55891 
L 379.162197 255.06641 
Q 379.162197 254.33141 379.092197 254.14891 
Q 379.022197 253.96391 378.829697 253.83641 
Q 378.639697 253.70641 378.389697 253.70641 
Q 377.989697 253.70641 377.419697 253.95641 
L 377.279697 253.67391 
L 381.177197 251.89391 
L 381.434697 251.89391 
z
" style="stroke: #ffffff; stroke-width: 3.8"/>
    <path d="M 361.434697 251.89391 
L 361.434697 260.55891 
Q 361.434697 261.53391 361.519697 261.80391 
Q 361.607197 262.07391 361.879697 262.24641 
Q 362.154697 262.41641 362.757197 262.41641 
L 362.997197 262.41641 
L 362.997197 262.70641 
L 357.419697 262.70641 
L 357.419697 262.41641 
L 357.702197 262.41641 
Q 358.382197 262.41641 358.669697 262.26141 
Q 358.959697 262.10391 359.059697 261.83141 
Q 359.162197 261.55891 359.162197 260.55891 
L 359.162197 255.06641 
Q 359.162197 254.33141 359.092197 254.14891 
Q 359.022197 253.96391 358.829697 253.83641 
Q 358.639697 253.70641 358.389697 253.70641 
Q 357.989697 253.70641 357.419697 253.95641 
L 357.279697 253.67391 
L 361.177197 251.89391 
L 361.434697 251.89391 
z
M 371.639697 257.40891 
Q 371.639697 258.99641 371.194697 260.37141 
Q 370.927197 261.21391 370.477197 261.75391 
Q 370.029697 262.29141 369.459697 262.60891 
Q 368.889697 262.92641 368.217197 262.92641 
Q 367.452197 262.92641 366.834697 262.53641 
Q 366.217197 262.14391 365.739697 261.41641 
Q 365.397197 260.88641 365.139697 260.00391 
Q 364.802197 258.80891 364.802197 257.53391 
Q 364.802197 255.80891 365.287197 254.36141 
Q 365.684697 253.16641 366.497197 252.53141 
Q 367.309697 251.89391 368.217197 251.89391 
Q 369.139697 251.89391 369.939697 252.52391 
Q 370.739697 253.15141 371.114697 254.21391 
Q 371.639697 255.67391 371.639697 257.40891 
z
M 369.232197 257.39391 
Q 369.232197 254.61141 369.202197 254.15141 
Q 369.122197 253.06641 368.827197 252.68391 
Q 368.632197 252.43391 368.194697 252.43391 
Q 367.857197 252.43391 367.662197 252.62141 
Q 367.372197 252.89391 367.269697 253.58641 
Q 367.169697 254.27641 367.169697 258.40891 
Q 367.169697 260.65891 367.327197 261.42391 
Q 367.444697 261.97891 367.662197 262.16641 
Q 367.882197 262.35391 368.239697 262.35391 
Q 368.632197 262.35391 368.827197 262.10391 
Q 369.154697 261.66641 369.202197 260.75391 
L 369.232197 257.39391 
z
M 374.224697 260.29891 
Q 374.772197 260.29891 375.149697 260.68391 
Q 375.529697 261.06641 375.529697 261.60391 
Q 375.529697 262.14391 375.147197 262.52391 
Q 374.764697 262.90141 374.224697 262.90141 
Q 373.684697 262.90141 373.304697 262.52391 
Q 372.927197 262.14391 372.927197 261.60391 
Q 372.927197 261.06641 373.304697 260.68391 
Q 373.684697 260.29891 374.224697 260.29891 
z
M 381.434697 251.89391 
L 381.434697 260.55891 
Q 381.434697 261.53391 381.519697 261.80391 
Q 381.607197 262.07391 381.879697 262.24641 
Q 382.154697 262.41641 382.757197 262.41641 
L 382.997197 262.41641 
L 382.997197 262.70641 
L 377.419697 262.70641 
L 377.419697 262.41641 
L 377.702197 262.41641 
Q 378.382197 262.41641 378.669697 262.26141 
Q 378.959697 262.10391 379.059697 261.83141 
Q 379.162197 261.55891 379.162197 260.55891 
L 379.162197 255.06641 
Q 379.162197 254.33141 379.092197 254.14891 
Q 379.022197 253.96391 378.829697 253.83641 
Q 378.639697 253.70641 378.389697 253.70641 
Q 377.989697 253.70641 377.419697 253.95641 
L 377.279697 253.67391 
L 381.177197 251.89391 
L 381.434697 251.89391 
z
"/>
   </g>
   <g id="text_26">
    <path d="M 358.592197 171.525148 
L 358.592197 171.252648 
Q 359.482197 170.992648 359.824697 170.770148 
Q 360.169697 170.547648 360.419697 170.092648 
Q 360.669697 169.635148 360.669697 169.165148 
Q 360.669697 168.517648 360.197197 168.052648 
Q 359.724697 167.587648 359.022197 167.587648 
Q 357.927197 167.587648 357.162197 168.742648 
L 356.872197 168.642648 
Q 357.434697 167.337648 358.314697 166.682648 
Q 359.194697 166.025148 360.272197 166.025148 
Q 361.372197 166.025148 362.087197 166.697648 
Q 362.802197 167.367648 362.802197 168.267648 
Q 362.802197 168.852648 362.469697 169.397648 
Q 362.139697 169.940148 361.427197 170.352648 
Q 362.342197 170.797648 362.822197 171.450148 
Q 363.302197 172.102648 363.302197 173.087648 
Q 363.302197 174.742648 362.102197 175.905148 
Q 360.904697 177.065148 358.889697 177.065148 
Q 357.544697 177.065148 356.927197 176.617648 
Q 356.482197 176.305148 356.482197 175.815148 
Q 356.482197 175.455148 356.739697 175.202648 
Q 356.997197 174.947648 357.334697 174.947648 
Q 357.592197 174.947648 357.819697 175.055148 
Q 357.944697 175.117648 358.704697 175.740148 
Q 359.467197 176.360148 360.132197 176.360148 
Q 360.709697 176.360148 361.122197 175.905148 
Q 361.537197 175.447648 361.537197 174.742648 
Q 361.537197 173.672648 360.787197 172.770148 
Q 360.037197 171.867648 358.592197 171.525148 
z
M 364.717197 177.057648 
L 364.717197 176.837648 
Q 366.014697 176.540148 366.917197 175.962648 
Q 367.819697 175.385148 368.344697 174.532648 
Q 368.872197 173.680148 369.084697 172.572648 
Q 368.599697 172.822648 368.259697 172.920148 
Q 367.919697 173.017648 367.544697 173.017648 
Q 366.342197 173.017648 365.539697 172.150148 
Q 364.739697 171.282648 364.739697 169.775148 
Q 364.739697 168.727648 365.172197 167.857648 
Q 365.607197 166.985148 366.412197 166.505148 
Q 367.217197 166.025148 368.084697 166.025148 
Q 369.014697 166.025148 369.842197 166.557648 
Q 370.669697 167.087648 371.162197 168.095148 
Q 371.654697 169.102648 371.654697 170.392648 
Q 371.654697 172.065148 370.852197 173.597648 
Q 370.052197 175.127648 368.467197 176.052648 
Q 366.882197 176.977648 364.717197 177.057648 
z
M 369.202197 171.915148 
Q 369.279697 171.040148 369.279697 170.377648 
Q 369.279697 168.955148 368.952197 167.727648 
Q 368.764697 167.047648 368.397197 166.727648 
Q 368.202197 166.555148 367.889697 166.555148 
Q 367.497197 166.555148 367.279697 166.892648 
Q 366.974697 167.352648 366.974697 168.650148 
Q 366.974697 170.815148 367.489697 171.635148 
Q 367.827197 172.165148 368.397197 172.165148 
Q 368.702197 172.165148 369.202197 171.915148 
z
M 374.224697 174.430148 
Q 374.772197 174.430148 375.149697 174.815148 
Q 375.529697 175.197648 375.529697 175.735148 
Q 375.529697 176.275148 375.147197 176.655148 
Q 374.764697 177.032648 374.224697 177.032648 
Q 373.684697 177.032648 373.304697 176.655148 
Q 372.927197 176.275148 372.927197 175.735148 
Q 372.927197 175.197648 373.304697 174.815148 
Q 373.684697 174.430148 374.224697 174.430148 
z
M 381.434697 166.025148 
L 381.434697 174.690148 
Q 381.434697 175.665148 381.519697 175.935148 
Q 381.607197 176.205148 381.879697 176.377648 
Q 382.154697 176.547648 382.757197 176.547648 
L 382.997197 176.547648 
L 382.997197 176.837648 
L 377.419697 176.837648 
L 377.419697 176.547648 
L 377.702197 176.547648 
Q 378.382197 176.547648 378.669697 176.392648 
Q 378.959697 176.235148 379.059697 175.962648 
Q 379.162197 175.690148 379.162197 174.690148 
L 379.162197 169.197648 
Q 379.162197 168.462648 379.092197 168.280148 
Q 379.022197 168.095148 378.829697 167.967648 
Q 378.639697 167.837648 378.389697 167.837648 
Q 377.989697 167.837648 377.419697 168.087648 
L 377.279697 167.805148 
L 381.177197 166.025148 
L 381.434697 166.025148 
z
" style="stroke: #ffffff; stroke-width: 3.8"/>
    <path d="M 358.592197 171.525148 
L 358.592197 171.252648 
Q 359.482197 170.992648 359.824697 170.770148 
Q 360.169697 170.547648 360.419697 170.092648 
Q 360.669697 169.635148 360.669697 169.165148 
Q 360.669697 168.517648 360.197197 168.052648 
Q 359.724697 167.587648 359.022197 167.587648 
Q 357.927197 167.587648 357.162197 168.742648 
L 356.872197 168.642648 
Q 357.434697 167.337648 358.314697 166.682648 
Q 359.194697 166.025148 360.272197 166.025148 
Q 361.372197 166.025148 362.087197 166.697648 
Q 362.802197 167.367648 362.802197 168.267648 
Q 362.802197 168.852648 362.469697 169.397648 
Q 362.139697 169.940148 361.427197 170.352648 
Q 362.342197 170.797648 362.822197 171.450148 
Q 363.302197 172.102648 363.302197 173.087648 
Q 363.302197 174.742648 362.102197 175.905148 
Q 360.904697 177.065148 358.889697 177.065148 
Q 357.544697 177.065148 356.927197 176.617648 
Q 356.482197 176.305148 356.482197 175.815148 
Q 356.482197 175.455148 356.739697 175.202648 
Q 356.997197 174.947648 357.334697 174.947648 
Q 357.592197 174.947648 357.819697 175.055148 
Q 357.944697 175.117648 358.704697 175.740148 
Q 359.467197 176.360148 360.132197 176.360148 
Q 360.709697 176.360148 361.122197 175.905148 
Q 361.537197 175.447648 361.537197 174.742648 
Q 361.537197 173.672648 360.787197 172.770148 
Q 360.037197 171.867648 358.592197 171.525148 
z
M 364.717197 177.057648 
L 364.717197 176.837648 
Q 366.014697 176.540148 366.917197 175.962648 
Q 367.819697 175.385148 368.344697 174.532648 
Q 368.872197 173.680148 369.084697 172.572648 
Q 368.599697 172.822648 368.259697 172.920148 
Q 367.919697 173.017648 367.544697 173.017648 
Q 366.342197 173.017648 365.539697 172.150148 
Q 364.739697 171.282648 364.739697 169.775148 
Q 364.739697 168.727648 365.172197 167.857648 
Q 365.607197 166.985148 366.412197 166.505148 
Q 367.217197 166.025148 368.084697 166.025148 
Q 369.014697 166.025148 369.842197 166.557648 
Q 370.669697 167.087648 371.162197 168.095148 
Q 371.654697 169.102648 371.654697 170.392648 
Q 371.654697 172.065148 370.852197 173.597648 
Q 370.052197 175.127648 368.467197 176.052648 
Q 366.882197 176.977648 364.717197 177.057648 
z
M 369.202197 171.915148 
Q 369.279697 171.040148 369.279697 170.377648 
Q 369.279697 168.955148 368.952197 167.727648 
Q 368.764697 167.047648 368.397197 166.727648 
Q 368.202197 166.555148 367.889697 166.555148 
Q 367.497197 166.555148 367.279697 166.892648 
Q 366.974697 167.352648 366.974697 168.650148 
Q 366.974697 170.815148 367.489697 171.635148 
Q 367.827197 172.165148 368.397197 172.165148 
Q 368.702197 172.165148 369.202197 171.915148 
z
M 374.224697 174.430148 
Q 374.772197 174.430148 375.149697 174.815148 
Q 375.529697 175.197648 375.529697 175.735148 
Q 375.529697 176.275148 375.147197 176.655148 
Q 374.764697 177.032648 374.224697 177.032648 
Q 373.684697 177.032648 373.304697 176.655148 
Q 372.927197 176.275148 372.927197 175.735148 
Q 372.927197 175.197648 373.304697 174.815148 
Q 373.684697 174.430148 374.224697 174.430148 
z
M 381.434697 166.025148 
L 381.434697 174.690148 
Q 381.434697 175.665148 381.519697 175.935148 
Q 381.607197 176.205148 381.879697 176.377648 
Q 382.154697 176.547648 382.757197 176.547648 
L 382.997197 176.547648 
L 382.997197 176.837648 
L 377.419697 176.837648 
L 377.419697 176.547648 
L 377.702197 176.547648 
Q 378.382197 176.547648 378.669697 176.392648 
Q 378.959697 176.235148 379.059697 175.962648 
Q 379.162197 175.690148 379.162197 174.690148 
L 379.162197 169.197648 
Q 379.162197 168.462648 379.092197 168.280148 
Q 379.022197 168.095148 378.829697 167.967648 
Q 378.639697 167.837648 378.389697 167.837648 
Q 377.989697 167.837648 377.419697 168.087648 
L 377.279697 167.805148 
L 381.177197 166.025148 
L 381.434697 166.025148 
z
"/>
   </g>
   <g id="text_27">
    <path d="M 358.662197 101.786955 
L 363.622197 101.786955 
L 362.834697 103.804455 
L 358.662197 103.804455 
L 358.264697 104.859455 
Q 360.959697 104.959455 362.412197 106.201955 
Q 363.607197 107.224455 363.607197 108.749455 
Q 363.607197 109.724455 363.052197 110.659455 
Q 362.497197 111.591955 361.489697 112.096955 
Q 360.482197 112.601955 359.279697 112.601955 
Q 357.982197 112.601955 357.287197 112.116955 
Q 356.802197 111.771955 356.802197 111.334455 
Q 356.802197 110.999455 357.054697 110.741955 
Q 357.309697 110.484455 357.647197 110.484455 
Q 357.952197 110.484455 358.264697 110.609455 
Q 358.577197 110.734455 359.334697 111.264455 
Q 359.809697 111.591955 360.154697 111.716955 
Q 360.397197 111.811955 360.702197 111.811955 
Q 361.342197 111.811955 361.789697 111.344455 
Q 362.239697 110.874455 362.239697 110.216955 
Q 362.239697 108.841955 360.864697 107.984455 
Q 359.489697 107.124455 357.397197 107.124455 
Q 357.184697 107.124455 356.764697 107.131955 
L 358.662197 101.786955 
z
M 367.059697 112.601955 
L 369.944697 103.859455 
L 367.747197 103.859455 
Q 366.459697 103.859455 365.809697 104.194455 
Q 365.357197 104.429455 365.059697 105.076955 
L 364.764697 105.076955 
L 365.529697 101.786955 
L 371.842197 101.786955 
L 368.287197 112.601955 
L 367.059697 112.601955 
z
M 374.224697 109.974455 
Q 374.772197 109.974455 375.149697 110.359455 
Q 375.529697 110.741955 375.529697 111.279455 
Q 375.529697 111.819455 375.147197 112.199455 
Q 374.764697 112.576955 374.224697 112.576955 
Q 373.684697 112.576955 373.304697 112.199455 
Q 372.927197 111.819455 372.927197 111.279455 
Q 372.927197 110.741955 373.304697 110.359455 
Q 373.684697 109.974455 374.224697 109.974455 
z
M 383.739697 101.569455 
L 383.739697 101.786955 
Q 382.327197 102.146955 381.469697 102.714455 
Q 380.614697 103.279455 380.117197 104.089455 
Q 379.622197 104.896955 379.349697 106.091955 
Q 379.694697 105.859455 379.919697 105.786955 
Q 380.427197 105.631955 380.944697 105.631955 
Q 382.132197 105.631955 382.924697 106.496955 
Q 383.717197 107.359455 383.717197 108.849455 
Q 383.717197 109.896955 383.287197 110.771955 
Q 382.857197 111.646955 382.067197 112.124455 
Q 381.279697 112.601955 380.382197 112.601955 
Q 379.404697 112.601955 378.574697 112.066955 
Q 377.747197 111.529455 377.282197 110.499455 
Q 376.819697 109.466955 376.819697 108.256955 
Q 376.819697 106.474455 377.674697 104.939455 
Q 378.529697 103.404455 380.102197 102.494455 
Q 381.677197 101.584455 383.739697 101.569455 
z
M 379.247197 106.724455 
Q 379.184697 107.804455 379.184697 108.304455 
Q 379.184697 109.381955 379.392197 110.389455 
Q 379.599697 111.396955 379.959697 111.804455 
Q 380.217197 112.091955 380.569697 112.091955 
Q 380.927197 112.091955 381.207197 111.674455 
Q 381.489697 111.256955 381.489697 109.974455 
Q 381.489697 107.819455 380.967197 106.999455 
Q 380.632197 106.466955 380.059697 106.466955 
Q 379.747197 106.466955 379.247197 106.724455 
z
" style="stroke: #ffffff; stroke-width: 3.8"/>
    <path d="M 358.662197 101.786955 
L 363.622197 101.786955 
L 362.834697 103.804455 
L 358.662197 103.804455 
L 358.264697 104.859455 
Q 360.959697 104.959455 362.412197 106.201955 
Q 363.607197 107.224455 363.607197 108.749455 
Q 363.607197 109.724455 363.052197 110.659455 
Q 362.497197 111.591955 361.489697 112.096955 
Q 360.482197 112.601955 359.279697 112.601955 
Q 357.982197 112.601955 357.287197 112.116955 
Q 356.802197 111.771955 356.802197 111.334455 
Q 356.802197 110.999455 357.054697 110.741955 
Q 357.309697 110.484455 357.647197 110.484455 
Q 357.952197 110.484455 358.264697 110.609455 
Q 358.577197 110.734455 359.334697 111.264455 
Q 359.809697 111.591955 360.154697 111.716955 
Q 360.397197 111.811955 360.702197 111.811955 
Q 361.342197 111.811955 361.789697 111.344455 
Q 362.239697 110.874455 362.239697 110.216955 
Q 362.239697 108.841955 360.864697 107.984455 
Q 359.489697 107.124455 357.397197 107.124455 
Q 357.184697 107.124455 356.764697 107.131955 
L 358.662197 101.786955 
z
M 367.059697 112.601955 
L 369.944697 103.859455 
L 367.747197 103.859455 
Q 366.459697 103.859455 365.809697 104.194455 
Q 365.357197 104.429455 365.059697 105.076955 
L 364.764697 105.076955 
L 365.529697 101.786955 
L 371.842197 101.786955 
L 368.287197 112.601955 
L 367.059697 112.601955 
z
M 374.224697 109.974455 
Q 374.772197 109.974455 375.149697 110.359455 
Q 375.529697 110.741955 375.529697 111.279455 
Q 375.529697 111.819455 375.147197 112.199455 
Q 374.764697 112.576955 374.224697 112.576955 
Q 373.684697 112.576955 373.304697 112.199455 
Q 372.927197 111.819455 372.927197 111.279455 
Q 372.927197 110.741955 373.304697 110.359455 
Q 373.684697 109.974455 374.224697 109.974455 
z
M 383.739697 101.569455 
L 383.739697 101.786955 
Q 382.327197 102.146955 381.469697 102.714455 
Q 380.614697 103.279455 380.117197 104.089455 
Q 379.622197 104.896955 379.349697 106.091955 
Q 379.694697 105.859455 379.919697 105.786955 
Q 380.427197 105.631955 380.944697 105.631955 
Q 382.132197 105.631955 382.924697 106.496955 
Q 383.717197 107.359455 383.717197 108.849455 
Q 383.717197 109.896955 383.287197 110.771955 
Q 382.857197 111.646955 382.067197 112.124455 
Q 381.279697 112.601955 380.382197 112.601955 
Q 379.404697 112.601955 378.574697 112.066955 
Q 377.747197 111.529455 377.282197 110.499455 
Q 376.819697 109.466955 376.819697 108.256955 
Q 376.819697 106.474455 377.674697 104.939455 
Q 378.529697 103.404455 380.102197 102.494455 
Q 381.677197 101.584455 383.739697 101.569455 
z
M 379.247197 106.724455 
Q 379.184697 107.804455 379.184697 108.304455 
Q 379.184697 109.381955 379.392197 110.389455 
Q 379.599697 111.396955 379.959697 111.804455 
Q 380.217197 112.091955 380.569697 112.091955 
Q 380.927197 112.091955 381.207197 111.674455 
Q 381.489697 111.256955 381.489697 109.974455 
Q 381.489697 107.819455 380.967197 106.999455 
Q 380.632197 106.466955 380.059697 106.466955 
Q 379.747197 106.466955 379.247197 106.724455 
z
"/>
   </g>
   <g id="text_28">
    <path d="M 578.778672 198.066484 
L 572.543672 198.066484 
L 572.543672 197.893984 
Q 575.411172 194.481484 576.023672 193.301484 
Q 576.638672 192.121484 576.638672 190.996484 
Q 576.638672 190.176484 576.131172 189.633984 
Q 575.623672 189.088984 574.888672 189.088984 
Q 573.686172 189.088984 573.021172 190.293984 
L 572.731172 190.191484 
Q 573.153672 188.691484 574.013672 187.973984 
Q 574.873672 187.253984 575.998672 187.253984 
Q 576.801172 187.253984 577.466172 187.628984 
Q 578.131172 188.003984 578.506172 188.656484 
Q 578.881172 189.308984 578.881172 189.878984 
Q 578.881172 190.918984 578.301172 191.988984 
Q 577.513672 193.433984 574.856172 196.018984 
L 577.146172 196.018984 
Q 577.988672 196.018984 578.243672 195.948984 
Q 578.498672 195.878984 578.661172 195.711484 
Q 578.826172 195.543984 579.091172 195.003984 
L 579.373672 195.003984 
L 578.778672 198.066484 
z
M 582.521172 192.753984 
L 582.521172 192.481484 
Q 583.411172 192.221484 583.753672 191.998984 
Q 584.098672 191.776484 584.348672 191.321484 
Q 584.598672 190.863984 584.598672 190.393984 
Q 584.598672 189.746484 584.126172 189.281484 
Q 583.653672 188.816484 582.951172 188.816484 
Q 581.856172 188.816484 581.091172 189.971484 
L 580.801172 189.871484 
Q 581.363672 188.566484 582.243672 187.911484 
Q 583.123672 187.253984 584.201172 187.253984 
Q 585.301172 187.253984 586.016172 187.926484 
Q 586.731172 188.596484 586.731172 189.496484 
Q 586.731172 190.081484 586.398672 190.626484 
Q 586.068672 191.168984 585.356172 191.581484 
Q 586.271172 192.026484 586.751172 192.678984 
Q 587.231172 193.331484 587.231172 194.316484 
Q 587.231172 195.971484 586.031172 197.133984 
Q 584.833672 198.293984 582.818672 198.293984 
Q 581.473672 198.293984 580.856172 197.846484 
Q 580.411172 197.533984 580.411172 197.043984 
Q 580.411172 196.683984 580.668672 196.431484 
Q 580.926172 196.176484 581.263672 196.176484 
Q 581.521172 196.176484 581.748672 196.283984 
Q 581.873672 196.346484 582.633672 196.968984 
Q 583.396172 197.588984 584.061172 197.588984 
Q 584.638672 197.588984 585.051172 197.133984 
Q 585.466172 196.676484 585.466172 195.971484 
Q 585.466172 194.901484 584.716172 193.998984 
Q 583.966172 193.096484 582.521172 192.753984 
z
M 590.153672 195.658984 
Q 590.701172 195.658984 591.078672 196.043984 
Q 591.458672 196.426484 591.458672 196.963984 
Q 591.458672 197.503984 591.076172 197.883984 
Q 590.693672 198.261484 590.153672 198.261484 
Q 589.613672 198.261484 589.233672 197.883984 
Q 588.856172 197.503984 588.856172 196.963984 
Q 588.856172 196.426484 589.233672 196.043984 
Q 589.613672 195.658984 590.153672 195.658984 
z
M 597.606172 192.081484 
Q 598.723672 192.901484 599.156172 193.608984 
Q 599.591172 194.316484 599.591172 195.231484 
Q 599.591172 196.511484 598.626172 197.398984 
Q 597.661172 198.286484 596.006172 198.286484 
Q 594.436172 198.286484 593.576172 197.513984 
Q 592.716172 196.738984 592.716172 195.621484 
Q 592.716172 194.768984 593.211172 194.128984 
Q 593.708672 193.488984 594.863672 192.956484 
Q 593.606172 191.996484 593.251172 191.386484 
Q 592.896172 190.776484 592.896172 189.971484 
Q 592.896172 188.908984 593.798672 188.101484 
Q 594.701172 187.293984 596.271172 187.293984 
Q 597.786172 187.293984 598.601172 188.008984 
Q 599.418672 188.721484 599.418672 189.721484 
Q 599.418672 190.471484 598.976172 191.046484 
Q 598.536172 191.621484 597.606172 192.081484 
z
M 597.013672 191.683984 
Q 597.301172 191.293984 597.441172 190.808984 
Q 597.583672 190.323984 597.583672 189.746484 
Q 597.583672 188.731484 597.146172 188.191484 
Q 596.818672 187.776484 596.238672 187.776484 
Q 595.716172 187.776484 595.348672 188.156484 
Q 594.981172 188.533984 594.981172 189.096484 
Q 594.981172 189.668984 595.391172 190.281484 
Q 595.801172 190.893984 597.013672 191.683984 
z
M 595.451172 193.331484 
Q 595.208672 193.551484 595.106172 193.731484 
Q 594.951172 194.003984 594.826172 194.528984 
Q 594.701172 195.051484 594.701172 195.621484 
Q 594.701172 196.356484 594.888672 196.851484 
Q 595.076172 197.346484 595.423672 197.566484 
Q 595.771172 197.783984 596.138672 197.783984 
Q 596.708672 197.783984 597.098672 197.366484 
Q 597.488672 196.948984 597.488672 196.221484 
Q 597.488672 194.706484 595.451172 193.331484 
z
" style="stroke: #ffffff; stroke-width: 3.8"/>
    <path d="M 578.778672 198.066484 
L 572.543672 198.066484 
L 572.543672 197.893984 
Q 575.411172 194.481484 576.023672 193.301484 
Q 576.638672 192.121484 576.638672 190.996484 
Q 576.638672 190.176484 576.131172 189.633984 
Q 575.623672 189.088984 574.888672 189.088984 
Q 573.686172 189.088984 573.021172 190.293984 
L 572.731172 190.191484 
Q 573.153672 188.691484 574.013672 187.973984 
Q 574.873672 187.253984 575.998672 187.253984 
Q 576.801172 187.253984 577.466172 187.628984 
Q 578.131172 188.003984 578.506172 188.656484 
Q 578.881172 189.308984 578.881172 189.878984 
Q 578.881172 190.918984 578.301172 191.988984 
Q 577.513672 193.433984 574.856172 196.018984 
L 577.146172 196.018984 
Q 577.988672 196.018984 578.243672 195.948984 
Q 578.498672 195.878984 578.661172 195.711484 
Q 578.826172 195.543984 579.091172 195.003984 
L 579.373672 195.003984 
L 578.778672 198.066484 
z
M 582.521172 192.753984 
L 582.521172 192.481484 
Q 583.411172 192.221484 583.753672 191.998984 
Q 584.098672 191.776484 584.348672 191.321484 
Q 584.598672 190.863984 584.598672 190.393984 
Q 584.598672 189.746484 584.126172 189.281484 
Q 583.653672 188.816484 582.951172 188.816484 
Q 581.856172 188.816484 581.091172 189.971484 
L 580.801172 189.871484 
Q 581.363672 188.566484 582.243672 187.911484 
Q 583.123672 187.253984 584.201172 187.253984 
Q 585.301172 187.253984 586.016172 187.926484 
Q 586.731172 188.596484 586.731172 189.496484 
Q 586.731172 190.081484 586.398672 190.626484 
Q 586.068672 191.168984 585.356172 191.581484 
Q 586.271172 192.026484 586.751172 192.678984 
Q 587.231172 193.331484 587.231172 194.316484 
Q 587.231172 195.971484 586.031172 197.133984 
Q 584.833672 198.293984 582.818672 198.293984 
Q 581.473672 198.293984 580.856172 197.846484 
Q 580.411172 197.533984 580.411172 197.043984 
Q 580.411172 196.683984 580.668672 196.431484 
Q 580.926172 196.176484 581.263672 196.176484 
Q 581.521172 196.176484 581.748672 196.283984 
Q 581.873672 196.346484 582.633672 196.968984 
Q 583.396172 197.588984 584.061172 197.588984 
Q 584.638672 197.588984 585.051172 197.133984 
Q 585.466172 196.676484 585.466172 195.971484 
Q 585.466172 194.901484 584.716172 193.998984 
Q 583.966172 193.096484 582.521172 192.753984 
z
M 590.153672 195.658984 
Q 590.701172 195.658984 591.078672 196.043984 
Q 591.458672 196.426484 591.458672 196.963984 
Q 591.458672 197.503984 591.076172 197.883984 
Q 590.693672 198.261484 590.153672 198.261484 
Q 589.613672 198.261484 589.233672 197.883984 
Q 588.856172 197.503984 588.856172 196.963984 
Q 588.856172 196.426484 589.233672 196.043984 
Q 589.613672 195.658984 590.153672 195.658984 
z
M 597.606172 192.081484 
Q 598.723672 192.901484 599.156172 193.608984 
Q 599.591172 194.316484 599.591172 195.231484 
Q 599.591172 196.511484 598.626172 197.398984 
Q 597.661172 198.286484 596.006172 198.286484 
Q 594.436172 198.286484 593.576172 197.513984 
Q 592.716172 196.738984 592.716172 195.621484 
Q 592.716172 194.768984 593.211172 194.128984 
Q 593.708672 193.488984 594.863672 192.956484 
Q 593.606172 191.996484 593.251172 191.386484 
Q 592.896172 190.776484 592.896172 189.971484 
Q 592.896172 188.908984 593.798672 188.101484 
Q 594.701172 187.293984 596.271172 187.293984 
Q 597.786172 187.293984 598.601172 188.008984 
Q 599.418672 188.721484 599.418672 189.721484 
Q 599.418672 190.471484 598.976172 191.046484 
Q 598.536172 191.621484 597.606172 192.081484 
z
M 597.013672 191.683984 
Q 597.301172 191.293984 597.441172 190.808984 
Q 597.583672 190.323984 597.583672 189.746484 
Q 597.583672 188.731484 597.146172 188.191484 
Q 596.818672 187.776484 596.238672 187.776484 
Q 595.716172 187.776484 595.348672 188.156484 
Q 594.981172 188.533984 594.981172 189.096484 
Q 594.981172 189.668984 595.391172 190.281484 
Q 595.801172 190.893984 597.013672 191.683984 
z
M 595.451172 193.331484 
Q 595.208672 193.551484 595.106172 193.731484 
Q 594.951172 194.003984 594.826172 194.528984 
Q 594.701172 195.051484 594.701172 195.621484 
Q 594.701172 196.356484 594.888672 196.851484 
Q 595.076172 197.346484 595.423672 197.566484 
Q 595.771172 197.783984 596.138672 197.783984 
Q 596.708672 197.783984 597.098672 197.366484 
Q 597.488672 196.948984 597.488672 196.221484 
Q 597.488672 194.706484 595.451172 193.331484 
z
"/>
   </g>
   <g id="text_29">
    <path d="M 572.537482 362.466084 
L 566.69217 362.466084 
L 566.69217 362.304366 
Q 569.380451 359.105147 569.95467 357.998897 
Q 570.531232 356.892647 570.531232 355.837959 
Q 570.531232 355.069209 570.055451 354.560616 
Q 569.57967 354.049678 568.890607 354.049678 
Q 567.763264 354.049678 567.139826 355.179366 
L 566.867951 355.083272 
Q 567.264045 353.677022 568.070295 353.004366 
Q 568.876545 352.329366 569.931232 352.329366 
Q 570.683576 352.329366 571.307014 352.680928 
Q 571.930451 353.032491 572.282014 353.644209 
Q 572.633576 354.255928 572.633576 354.790303 
Q 572.633576 355.765303 572.089826 356.768428 
Q 571.351545 358.123116 568.860139 360.546553 
L 571.007014 360.546553 
Q 571.796857 360.546553 572.03592 360.480928 
Q 572.274982 360.415303 572.427326 360.258272 
Q 572.582014 360.101241 572.830451 359.594991 
L 573.095295 359.594991 
L 572.537482 362.466084 
z
M 575.701545 360.209053 
Q 576.214826 360.209053 576.568732 360.569991 
Q 576.924982 360.928584 576.924982 361.432491 
Q 576.924982 361.938741 576.566389 362.294991 
Q 576.207795 362.648897 575.701545 362.648897 
Q 575.195295 362.648897 574.839045 362.294991 
Q 574.485139 361.938741 574.485139 361.432491 
Q 574.485139 360.928584 574.839045 360.569991 
Q 575.195295 360.209053 575.701545 360.209053 
z
M 577.949201 358.723116 
L 582.66717 352.329366 
L 583.560139 352.329366 
L 583.560139 358.723116 
L 584.469514 358.723116 
L 584.469514 360.239522 
L 583.560139 360.239522 
L 583.560139 362.466084 
L 581.546857 362.466084 
L 581.546857 360.239522 
L 577.949201 360.239522 
L 577.949201 358.723116 
z
M 578.661701 358.723116 
L 581.546857 358.723116 
L 581.546857 354.804366 
L 578.661701 358.723116 
z
" style="fill: #404040; stroke: #ffffff; stroke-width: 3.8"/>
    <path d="M 572.537482 362.466084 
L 566.69217 362.466084 
L 566.69217 362.304366 
Q 569.380451 359.105147 569.95467 357.998897 
Q 570.531232 356.892647 570.531232 355.837959 
Q 570.531232 355.069209 570.055451 354.560616 
Q 569.57967 354.049678 568.890607 354.049678 
Q 567.763264 354.049678 567.139826 355.179366 
L 566.867951 355.083272 
Q 567.264045 353.677022 568.070295 353.004366 
Q 568.876545 352.329366 569.931232 352.329366 
Q 570.683576 352.329366 571.307014 352.680928 
Q 571.930451 353.032491 572.282014 353.644209 
Q 572.633576 354.255928 572.633576 354.790303 
Q 572.633576 355.765303 572.089826 356.768428 
Q 571.351545 358.123116 568.860139 360.546553 
L 571.007014 360.546553 
Q 571.796857 360.546553 572.03592 360.480928 
Q 572.274982 360.415303 572.427326 360.258272 
Q 572.582014 360.101241 572.830451 359.594991 
L 573.095295 359.594991 
L 572.537482 362.466084 
z
M 575.701545 360.209053 
Q 576.214826 360.209053 576.568732 360.569991 
Q 576.924982 360.928584 576.924982 361.432491 
Q 576.924982 361.938741 576.566389 362.294991 
Q 576.207795 362.648897 575.701545 362.648897 
Q 575.195295 362.648897 574.839045 362.294991 
Q 574.485139 361.938741 574.485139 361.432491 
Q 574.485139 360.928584 574.839045 360.569991 
Q 575.195295 360.209053 575.701545 360.209053 
z
M 577.949201 358.723116 
L 582.66717 352.329366 
L 583.560139 352.329366 
L 583.560139 358.723116 
L 584.469514 358.723116 
L 584.469514 360.239522 
L 583.560139 360.239522 
L 583.560139 362.466084 
L 581.546857 362.466084 
L 581.546857 360.239522 
L 577.949201 360.239522 
L 577.949201 358.723116 
z
M 578.661701 358.723116 
L 581.546857 358.723116 
L 581.546857 354.804366 
L 578.661701 358.723116 
z
" style="fill: #404040"/>
   </g>
   <g id="text_30">
    <path d="M 567.635205 290.475656 
L 567.635205 298.599094 
Q 567.635205 299.513156 567.714893 299.766281 
Q 567.796924 300.019406 568.052393 300.181125 
Q 568.310205 300.3405 568.875049 300.3405 
L 569.100049 300.3405 
L 569.100049 300.612375 
L 563.871143 300.612375 
L 563.871143 300.3405 
L 564.135986 300.3405 
Q 564.773486 300.3405 565.043018 300.195188 
Q 565.314893 300.047531 565.408643 299.792063 
Q 565.504736 299.536594 565.504736 298.599094 
L 565.504736 293.449875 
Q 565.504736 292.760813 565.439111 292.589719 
Q 565.373486 292.416281 565.193018 292.29675 
Q 565.014893 292.174875 564.780518 292.174875 
Q 564.405518 292.174875 563.871143 292.40925 
L 563.739893 292.144406 
L 567.393799 290.475656 
L 567.635205 290.475656 
z
M 577.202393 295.645969 
Q 577.202393 297.13425 576.785205 298.423313 
Q 576.534424 299.213156 576.112549 299.719406 
Q 575.693018 300.223313 575.158643 300.520969 
Q 574.624268 300.818625 573.993799 300.818625 
Q 573.276611 300.818625 572.697705 300.453 
Q 572.118799 300.085031 571.671143 299.403 
Q 571.350049 298.906125 571.108643 298.078781 
Q 570.792236 296.958469 570.792236 295.763156 
Q 570.792236 294.145969 571.246924 292.788938 
Q 571.61958 291.668625 572.381299 291.073313 
Q 573.143018 290.475656 573.993799 290.475656 
Q 574.858643 290.475656 575.608643 291.066281 
Q 576.358643 291.654563 576.710205 292.650656 
Q 577.202393 294.019406 577.202393 295.645969 
z
M 574.945361 295.631906 
Q 574.945361 293.023313 574.917236 292.592063 
Q 574.842236 291.574875 574.565674 291.216281 
Q 574.382861 290.981906 573.972705 290.981906 
Q 573.656299 290.981906 573.473486 291.157688 
Q 573.201611 291.413156 573.105518 292.062375 
Q 573.011768 292.70925 573.011768 296.583469 
Q 573.011768 298.692844 573.159424 299.410031 
Q 573.26958 299.930344 573.473486 300.106125 
Q 573.679736 300.281906 574.014893 300.281906 
Q 574.382861 300.281906 574.565674 300.047531 
Q 574.872705 299.637375 574.917236 298.781906 
L 574.945361 295.631906 
z
M 579.62583 298.355344 
Q 580.139111 298.355344 580.493018 298.716281 
Q 580.849268 299.074875 580.849268 299.578781 
Q 580.849268 300.085031 580.490674 300.441281 
Q 580.13208 300.795188 579.62583 300.795188 
Q 579.11958 300.795188 578.76333 300.441281 
Q 578.409424 300.085031 578.409424 299.578781 
Q 578.409424 299.074875 578.76333 298.716281 
Q 579.11958 298.355344 579.62583 298.355344 
z
M 588.452393 295.645969 
Q 588.452393 297.13425 588.035205 298.423313 
Q 587.784424 299.213156 587.362549 299.719406 
Q 586.943018 300.223313 586.408643 300.520969 
Q 585.874268 300.818625 585.243799 300.818625 
Q 584.526611 300.818625 583.947705 300.453 
Q 583.368799 300.085031 582.921143 299.403 
Q 582.600049 298.906125 582.358643 298.078781 
Q 582.042236 296.958469 582.042236 295.763156 
Q 582.042236 294.145969 582.496924 292.788938 
Q 582.86958 291.668625 583.631299 291.073313 
Q 584.393018 290.475656 585.243799 290.475656 
Q 586.108643 290.475656 586.858643 291.066281 
Q 587.608643 291.654563 587.960205 292.650656 
Q 588.452393 294.019406 588.452393 295.645969 
z
M 586.195361 295.631906 
Q 586.195361 293.023313 586.167236 292.592063 
Q 586.092236 291.574875 585.815674 291.216281 
Q 585.632861 290.981906 585.222705 290.981906 
Q 584.906299 290.981906 584.723486 291.157688 
Q 584.451611 291.413156 584.355518 292.062375 
Q 584.261768 292.70925 584.261768 296.583469 
Q 584.261768 298.692844 584.409424 299.410031 
Q 584.51958 299.930344 584.723486 300.106125 
Q 584.929736 300.281906 585.264893 300.281906 
Q 585.632861 300.281906 585.815674 300.047531 
Q 586.122705 299.637375 586.167236 298.781906 
L 586.195361 295.631906 
z
" style="fill: #404040; stroke: #ffffff; stroke-width: 3.8"/>
    <path d="M 567.635205 290.475656 
L 567.635205 298.599094 
Q 567.635205 299.513156 567.714893 299.766281 
Q 567.796924 300.019406 568.052393 300.181125 
Q 568.310205 300.3405 568.875049 300.3405 
L 569.100049 300.3405 
L 569.100049 300.612375 
L 563.871143 300.612375 
L 563.871143 300.3405 
L 564.135986 300.3405 
Q 564.773486 300.3405 565.043018 300.195188 
Q 565.314893 300.047531 565.408643 299.792063 
Q 565.504736 299.536594 565.504736 298.599094 
L 565.504736 293.449875 
Q 565.504736 292.760813 565.439111 292.589719 
Q 565.373486 292.416281 565.193018 292.29675 
Q 565.014893 292.174875 564.780518 292.174875 
Q 564.405518 292.174875 563.871143 292.40925 
L 563.739893 292.144406 
L 567.393799 290.475656 
L 567.635205 290.475656 
z
M 577.202393 295.645969 
Q 577.202393 297.13425 576.785205 298.423313 
Q 576.534424 299.213156 576.112549 299.719406 
Q 575.693018 300.223313 575.158643 300.520969 
Q 574.624268 300.818625 573.993799 300.818625 
Q 573.276611 300.818625 572.697705 300.453 
Q 572.118799 300.085031 571.671143 299.403 
Q 571.350049 298.906125 571.108643 298.078781 
Q 570.792236 296.958469 570.792236 295.763156 
Q 570.792236 294.145969 571.246924 292.788938 
Q 571.61958 291.668625 572.381299 291.073313 
Q 573.143018 290.475656 573.993799 290.475656 
Q 574.858643 290.475656 575.608643 291.066281 
Q 576.358643 291.654563 576.710205 292.650656 
Q 577.202393 294.019406 577.202393 295.645969 
z
M 574.945361 295.631906 
Q 574.945361 293.023313 574.917236 292.592063 
Q 574.842236 291.574875 574.565674 291.216281 
Q 574.382861 290.981906 573.972705 290.981906 
Q 573.656299 290.981906 573.473486 291.157688 
Q 573.201611 291.413156 573.105518 292.062375 
Q 573.011768 292.70925 573.011768 296.583469 
Q 573.011768 298.692844 573.159424 299.410031 
Q 573.26958 299.930344 573.473486 300.106125 
Q 573.679736 300.281906 574.014893 300.281906 
Q 574.382861 300.281906 574.565674 300.047531 
Q 574.872705 299.637375 574.917236 298.781906 
L 574.945361 295.631906 
z
M 579.62583 298.355344 
Q 580.139111 298.355344 580.493018 298.716281 
Q 580.849268 299.074875 580.849268 299.578781 
Q 580.849268 300.085031 580.490674 300.441281 
Q 580.13208 300.795188 579.62583 300.795188 
Q 579.11958 300.795188 578.76333 300.441281 
Q 578.409424 300.085031 578.409424 299.578781 
Q 578.409424 299.074875 578.76333 298.716281 
Q 579.11958 298.355344 579.62583 298.355344 
z
M 588.452393 295.645969 
Q 588.452393 297.13425 588.035205 298.423313 
Q 587.784424 299.213156 587.362549 299.719406 
Q 586.943018 300.223313 586.408643 300.520969 
Q 585.874268 300.818625 585.243799 300.818625 
Q 584.526611 300.818625 583.947705 300.453 
Q 583.368799 300.085031 582.921143 299.403 
Q 582.600049 298.906125 582.358643 298.078781 
Q 582.042236 296.958469 582.042236 295.763156 
Q 582.042236 294.145969 582.496924 292.788938 
Q 582.86958 291.668625 583.631299 291.073313 
Q 584.393018 290.475656 585.243799 290.475656 
Q 586.108643 290.475656 586.858643 291.066281 
Q 587.608643 291.654563 587.960205 292.650656 
Q 588.452393 294.019406 588.452393 295.645969 
z
M 586.195361 295.631906 
Q 586.195361 293.023313 586.167236 292.592063 
Q 586.092236 291.574875 585.815674 291.216281 
Q 585.632861 290.981906 585.222705 290.981906 
Q 584.906299 290.981906 584.723486 291.157688 
Q 584.451611 291.413156 584.355518 292.062375 
Q 584.261768 292.70925 584.261768 296.583469 
Q 584.261768 298.692844 584.409424 299.410031 
Q 584.51958 299.930344 584.723486 300.106125 
Q 584.929736 300.281906 585.264893 300.281906 
Q 585.632861 300.281906 585.815674 300.047531 
Q 586.122705 299.637375 586.167236 298.781906 
L 586.195361 295.631906 
z
" style="fill: #404040"/>
   </g>
   <g id="text_31">
    <path d="M 532.389225 263.702236 
L 537.039225 263.702236 
L 536.300943 265.593643 
L 532.389225 265.593643 
L 532.016568 266.582705 
Q 534.543131 266.676455 535.90485 267.841299 
Q 537.025162 268.799893 537.025162 270.22958 
Q 537.025162 271.143643 536.50485 272.020205 
Q 535.984537 272.894424 535.040006 273.367861 
Q 534.095475 273.841299 532.968131 273.841299 
Q 531.751725 273.841299 531.100162 273.386611 
Q 530.645475 273.063174 530.645475 272.653018 
Q 530.645475 272.338955 530.882193 272.097549 
Q 531.121256 271.856143 531.437662 271.856143 
Q 531.7236 271.856143 532.016568 271.97333 
Q 532.309537 272.090518 533.019693 272.587393 
Q 533.465006 272.894424 533.788443 273.011611 
Q 534.015787 273.100674 534.301725 273.100674 
Q 534.901725 273.100674 535.321256 272.662393 
Q 535.743131 272.221768 535.743131 271.605361 
Q 535.743131 270.316299 534.454068 269.512393 
Q 533.165006 268.706143 531.203287 268.706143 
Q 531.004068 268.706143 530.610318 268.713174 
L 532.389225 263.702236 
z
M 539.479068 271.378018 
Q 539.99235 271.378018 540.346256 271.738955 
Q 540.702506 272.097549 540.702506 272.601455 
Q 540.702506 273.107705 540.343912 273.463955 
Q 539.985318 273.817861 539.479068 273.817861 
Q 538.972818 273.817861 538.616568 273.463955 
Q 538.262662 273.107705 538.262662 272.601455 
Q 538.262662 272.097549 538.616568 271.738955 
Q 538.972818 271.378018 539.479068 271.378018 
z
M 541.815787 273.841299 
L 541.815787 273.635049 
Q 543.032193 273.356143 543.878287 272.814736 
Q 544.724381 272.27333 545.216568 271.474111 
Q 545.7111 270.674893 545.910318 269.636611 
Q 545.455631 269.870986 545.136881 269.962393 
Q 544.818131 270.053799 544.466568 270.053799 
Q 543.339225 270.053799 542.586881 269.240518 
Q 541.836881 268.427236 541.836881 267.013955 
Q 541.836881 266.031924 542.24235 265.216299 
Q 542.650162 264.39833 543.40485 263.94833 
Q 544.159537 263.49833 544.972818 263.49833 
Q 545.844693 263.49833 546.620475 263.997549 
Q 547.396256 264.494424 547.857975 265.438955 
Q 548.319693 266.383486 548.319693 267.592861 
Q 548.319693 269.16083 547.56735 270.597549 
Q 546.81735 272.031924 545.331412 272.899111 
Q 543.845475 273.766299 541.815787 273.841299 
z
M 546.020475 269.020205 
Q 546.093131 268.199893 546.093131 267.578799 
Q 546.093131 266.245205 545.7861 265.094424 
Q 545.610318 264.456924 545.265787 264.156924 
Q 545.082975 263.995205 544.790006 263.995205 
Q 544.422037 263.995205 544.218131 264.311611 
Q 543.932193 264.742861 543.932193 265.959268 
Q 543.932193 267.988955 544.415006 268.757705 
Q 544.731412 269.25458 545.265787 269.25458 
Q 545.551725 269.25458 546.020475 269.020205 
z
" style="fill: #404040; stroke: #ffffff; stroke-width: 3.8"/>
    <path d="M 532.389225 263.702236 
L 537.039225 263.702236 
L 536.300943 265.593643 
L 532.389225 265.593643 
L 532.016568 266.582705 
Q 534.543131 266.676455 535.90485 267.841299 
Q 537.025162 268.799893 537.025162 270.22958 
Q 537.025162 271.143643 536.50485 272.020205 
Q 535.984537 272.894424 535.040006 273.367861 
Q 534.095475 273.841299 532.968131 273.841299 
Q 531.751725 273.841299 531.100162 273.386611 
Q 530.645475 273.063174 530.645475 272.653018 
Q 530.645475 272.338955 530.882193 272.097549 
Q 531.121256 271.856143 531.437662 271.856143 
Q 531.7236 271.856143 532.016568 271.97333 
Q 532.309537 272.090518 533.019693 272.587393 
Q 533.465006 272.894424 533.788443 273.011611 
Q 534.015787 273.100674 534.301725 273.100674 
Q 534.901725 273.100674 535.321256 272.662393 
Q 535.743131 272.221768 535.743131 271.605361 
Q 535.743131 270.316299 534.454068 269.512393 
Q 533.165006 268.706143 531.203287 268.706143 
Q 531.004068 268.706143 530.610318 268.713174 
L 532.389225 263.702236 
z
M 539.479068 271.378018 
Q 539.99235 271.378018 540.346256 271.738955 
Q 540.702506 272.097549 540.702506 272.601455 
Q 540.702506 273.107705 540.343912 273.463955 
Q 539.985318 273.817861 539.479068 273.817861 
Q 538.972818 273.817861 538.616568 273.463955 
Q 538.262662 273.107705 538.262662 272.601455 
Q 538.262662 272.097549 538.616568 271.738955 
Q 538.972818 271.378018 539.479068 271.378018 
z
M 541.815787 273.841299 
L 541.815787 273.635049 
Q 543.032193 273.356143 543.878287 272.814736 
Q 544.724381 272.27333 545.216568 271.474111 
Q 545.7111 270.674893 545.910318 269.636611 
Q 545.455631 269.870986 545.136881 269.962393 
Q 544.818131 270.053799 544.466568 270.053799 
Q 543.339225 270.053799 542.586881 269.240518 
Q 541.836881 268.427236 541.836881 267.013955 
Q 541.836881 266.031924 542.24235 265.216299 
Q 542.650162 264.39833 543.40485 263.94833 
Q 544.159537 263.49833 544.972818 263.49833 
Q 545.844693 263.49833 546.620475 263.997549 
Q 547.396256 264.494424 547.857975 265.438955 
Q 548.319693 266.383486 548.319693 267.592861 
Q 548.319693 269.16083 547.56735 270.597549 
Q 546.81735 272.031924 545.331412 272.899111 
Q 543.845475 273.766299 541.815787 273.841299 
z
M 546.020475 269.020205 
Q 546.093131 268.199893 546.093131 267.578799 
Q 546.093131 266.245205 545.7861 265.094424 
Q 545.610318 264.456924 545.265787 264.156924 
Q 545.082975 263.995205 544.790006 263.995205 
Q 544.422037 263.995205 544.218131 264.311611 
Q 543.932193 264.742861 543.932193 265.959268 
Q 543.932193 267.988955 544.415006 268.757705 
Q 544.731412 269.25458 545.265787 269.25458 
Q 545.551725 269.25458 546.020475 269.020205 
z
" style="fill: #404040"/>
   </g>
   <g id="text_32">
    <path d="M 319.944086 335.471643 
L 324.662054 329.077893 
L 325.555023 329.077893 
L 325.555023 335.471643 
L 326.464398 335.471643 
L 326.464398 336.98805 
L 325.555023 336.98805 
L 325.555023 339.214612 
L 323.541742 339.214612 
L 323.541742 336.98805 
L 319.944086 336.98805 
L 319.944086 335.471643 
z
M 320.656586 335.471643 
L 323.541742 335.471643 
L 323.541742 331.552893 
L 320.656586 335.471643 
z
M 327.444086 335.471643 
L 332.162054 329.077893 
L 333.055023 329.077893 
L 333.055023 335.471643 
L 333.964398 335.471643 
L 333.964398 336.98805 
L 333.055023 336.98805 
L 333.055023 339.214612 
L 331.041742 339.214612 
L 331.041742 336.98805 
L 327.444086 336.98805 
L 327.444086 335.471643 
z
M 328.156586 335.471643 
L 331.041742 335.471643 
L 331.041742 331.552893 
L 328.156586 335.471643 
z
M 336.446429 336.957581 
Q 336.959711 336.957581 337.313617 337.318518 
Q 337.669867 337.677112 337.669867 338.181018 
Q 337.669867 338.687268 337.311273 339.043518 
Q 336.952679 339.397425 336.446429 339.397425 
Q 335.940179 339.397425 335.583929 339.043518 
Q 335.230023 338.687268 335.230023 338.181018 
Q 335.230023 337.677112 335.583929 337.318518 
Q 335.940179 336.957581 336.446429 336.957581 
z
M 344.532367 339.214612 
L 338.687054 339.214612 
L 338.687054 339.052893 
Q 341.375336 335.853675 341.949554 334.747425 
Q 342.526117 333.641175 342.526117 332.586487 
Q 342.526117 331.817737 342.050336 331.309143 
Q 341.574554 330.798206 340.885492 330.798206 
Q 339.758148 330.798206 339.134711 331.927893 
L 338.862836 331.8318 
Q 339.258929 330.42555 340.065179 329.752893 
Q 340.871429 329.077893 341.926117 329.077893 
Q 342.678461 329.077893 343.301898 329.429456 
Q 343.925336 329.781018 344.276898 330.392737 
Q 344.628461 331.004456 344.628461 331.538831 
Q 344.628461 332.513831 344.084711 333.516956 
Q 343.346429 334.871643 340.855023 337.295081 
L 343.001898 337.295081 
Q 343.791742 337.295081 344.030804 337.229456 
Q 344.269867 337.163831 344.422211 337.0068 
Q 344.576898 336.849768 344.825336 336.343518 
L 345.090179 336.343518 
L 344.532367 339.214612 
z
" style="fill: #404040; stroke: #ffffff; stroke-width: 3.8"/>
    <path d="M 319.944086 335.471643 
L 324.662054 329.077893 
L 325.555023 329.077893 
L 325.555023 335.471643 
L 326.464398 335.471643 
L 326.464398 336.98805 
L 325.555023 336.98805 
L 325.555023 339.214612 
L 323.541742 339.214612 
L 323.541742 336.98805 
L 319.944086 336.98805 
L 319.944086 335.471643 
z
M 320.656586 335.471643 
L 323.541742 335.471643 
L 323.541742 331.552893 
L 320.656586 335.471643 
z
M 327.444086 335.471643 
L 332.162054 329.077893 
L 333.055023 329.077893 
L 333.055023 335.471643 
L 333.964398 335.471643 
L 333.964398 336.98805 
L 333.055023 336.98805 
L 333.055023 339.214612 
L 331.041742 339.214612 
L 331.041742 336.98805 
L 327.444086 336.98805 
L 327.444086 335.471643 
z
M 328.156586 335.471643 
L 331.041742 335.471643 
L 331.041742 331.552893 
L 328.156586 335.471643 
z
M 336.446429 336.957581 
Q 336.959711 336.957581 337.313617 337.318518 
Q 337.669867 337.677112 337.669867 338.181018 
Q 337.669867 338.687268 337.311273 339.043518 
Q 336.952679 339.397425 336.446429 339.397425 
Q 335.940179 339.397425 335.583929 339.043518 
Q 335.230023 338.687268 335.230023 338.181018 
Q 335.230023 337.677112 335.583929 337.318518 
Q 335.940179 336.957581 336.446429 336.957581 
z
M 344.532367 339.214612 
L 338.687054 339.214612 
L 338.687054 339.052893 
Q 341.375336 335.853675 341.949554 334.747425 
Q 342.526117 333.641175 342.526117 332.586487 
Q 342.526117 331.817737 342.050336 331.309143 
Q 341.574554 330.798206 340.885492 330.798206 
Q 339.758148 330.798206 339.134711 331.927893 
L 338.862836 331.8318 
Q 339.258929 330.42555 340.065179 329.752893 
Q 340.871429 329.077893 341.926117 329.077893 
Q 342.678461 329.077893 343.301898 329.429456 
Q 343.925336 329.781018 344.276898 330.392737 
Q 344.628461 331.004456 344.628461 331.538831 
Q 344.628461 332.513831 344.084711 333.516956 
Q 343.346429 334.871643 340.855023 337.295081 
L 343.001898 337.295081 
Q 343.791742 337.295081 344.030804 337.229456 
Q 344.269867 337.163831 344.422211 337.0068 
Q 344.576898 336.849768 344.825336 336.343518 
L 345.090179 336.343518 
L 344.532367 339.214612 
z
" style="fill: #404040"/>
   </g>
  </g>
 </g>
 <defs>
  <clipPath id="p80b44d3718">
   <rect x="7.2" y="56.14" width="730.764" height="425.406022"/>
  </clipPath>
 </defs>
</svg>
