<?xml version="1.0" encoding="utf-8" standalone="no"?>
<!DOCTYPE svg PUBLIC "-//W3C//DTD SVG 1.1//EN"
  "http://www.w3.org/Graphics/SVG/1.1/DTD/svg11.dtd">
<svg xmlns:xlink="http://www.w3.org/1999/xlink" width="745.164pt" height="496.300083pt" viewBox="0 0 745.164 496.300083" xmlns="http://www.w3.org/2000/svg" version="1.1">
 <metadata>
  <rdf:RDF xmlns:dc="http://purl.org/dc/elements/1.1/" xmlns:cc="http://creativecommons.org/ns#" xmlns:rdf="http://www.w3.org/1999/02/22-rdf-syntax-ns#">
   <cc:Work>
    <dc:type rdf:resource="http://purl.org/dc/dcmitype/StillImage"/>
    <dc:date>2026-07-13T16:59:16.975407</dc:date>
    <dc:format>image/svg+xml</dc:format>
    <dc:creator>
     <cc:Agent>
      <dc:title>Matplotlib v3.10.8, https://matplotlib.org/</dc:title>
     </cc:Agent>
    </dc:creator>
   </cc:Work>
  </rdf:RDF>
 </metadata>
 <defs>
  <style type="text/css">*{stroke-linejoin: round; stroke-linecap: butt}</style>
 </defs>
 <g id="figure_1">
  <g id="patch_1">
   <path d="M 0 496.300083 
L 745.164 496.300083 
L 745.164 0 
L 0 0 
L 0 496.300083 
z
" style="fill: none"/>
  </g>
  <g id="axes_1">
   <g id="patch_2">
    <path d="M 120.350555 436.208602 
Q 120.350555 457.616803 120.350555 476.99965 
" clip-path="url(#pb12aa6cade)" style="fill: none; stroke: #111111; stroke-width: 1.811532; stroke-linejoin: miter; stroke-linecap: round"/>
    <path d="M 123.874245 469.95227 
L 120.350555 476.99965 
L 116.826865 469.95227 
z
" clip-path="url(#pb12aa6cade)" style="fill: #111111; stroke: #111111; stroke-width: 1.811532; stroke-linejoin: miter; stroke-linecap: round"/>
   </g>
   <g id="patch_3">
    <path d="M 120.350555 344.565704 
Q 120.350555 366.662768 120.350555 385.36705 
" clip-path="url(#pb12aa6cade)" style="fill: none; stroke: #111111; stroke-width: 3.034597; stroke-linejoin: miter; stroke-linecap: round"/>
    <path d="M 124.265626 377.536908 
L 120.350555 385.36705 
L 116.435484 377.536908 
z
" clip-path="url(#pb12aa6cade)" style="fill: #111111; stroke: #111111; stroke-width: 3.034597; stroke-linejoin: miter; stroke-linecap: round"/>
   </g>
   <g id="patch_4">
    <path d="M 120.350555 250.149554 
Q 120.350555 272.944382 120.350555 290.799324 
" clip-path="url(#pb12aa6cade)" style="fill: none; stroke: #111111; stroke-width: 4.418368; stroke-linejoin: miter; stroke-linecap: round"/>
    <path d="M 124.708432 282.083569 
L 120.350555 290.799324 
L 115.992677 282.083569 
z
" clip-path="url(#pb12aa6cade)" style="fill: #111111; stroke: #111111; stroke-width: 4.418368; stroke-linejoin: miter; stroke-linecap: round"/>
   </g>
   <g id="patch_5">
    <path d="M 370.224697 309.38349 
Q 370.224697 330.937787 370.224697 349.974117 
" clip-path="url(#pb12aa6cade)" style="fill: none; stroke: #111111; stroke-width: 2.252138; stroke-linejoin: miter; stroke-linecap: round"/>
    <path d="M 373.889381 342.644749 
L 370.224697 349.974117 
L 366.560013 342.644749 
z
" clip-path="url(#pb12aa6cade)" style="fill: #111111; stroke: #111111; stroke-width: 2.252138; stroke-linejoin: miter; stroke-linecap: round"/>
   </g>
   <g id="patch_6">
    <path d="M 370.224697 218.038398 
Q 370.224697 239.840463 370.224697 257.259329 
" clip-path="url(#pb12aa6cade)" style="fill: none; stroke: #111111; stroke-width: 3.920454; stroke-linejoin: miter; stroke-linecap: round"/>
    <path d="M 374.423242 248.862238 
L 370.224697 257.259329 
L 366.026151 248.862238 
z
" clip-path="url(#pb12aa6cade)" style="fill: #111111; stroke: #111111; stroke-width: 3.920454; stroke-linejoin: miter; stroke-linecap: round"/>
   </g>
   <g id="patch_7">
    <path d="M 370.224697 126.174782 
Q 370.224697 147.988341 370.224697 163.317303 
" clip-path="url(#pb12aa6cade)" style="fill: none; stroke: #111111; stroke-width: 5.8; stroke-linejoin: miter; stroke-linecap: round"/>
    <path d="M 375.024697 153.717303 
L 370.224697 163.317303 
L 365.424697 153.717303 
z
" clip-path="url(#pb12aa6cade)" style="fill: #111111; stroke: #111111; stroke-width: 5.8; stroke-linejoin: miter; stroke-linecap: round"/>
   </g>
   <g id="patch_8">
    <path d="M 586.153672 241.123088 
Q 586.153672 264.362899 586.153672 283.776636 
" clip-path="url(#pb12aa6cade)" style="fill: none; stroke: #111111; stroke-width: 3.422145; stroke-linejoin: miter; stroke-linecap: round"/>
    <path d="M 590.192759 275.698463 
L 586.153672 283.776636 
L 582.114586 275.698463 
z
" clip-path="url(#pb12aa6cade)" style="fill: #111111; stroke: #111111; stroke-width: 3.422145; stroke-linejoin: miter; stroke-linecap: round"/>
   </g>
   <g id="line2d_1">
    <path d="M 165.610777 479.025005 
L 550.322663 479.025005 
" clip-path="url(#pb12aa6cade)" style="fill: none; stroke-dasharray: 5.6,4.2; stroke-dashoffset: 0; stroke: #404040; stroke-width: 1.4"/>
   </g>
   <g id="line2d_2">
    <path d="M 165.610777 388.759833 
L 550.322663 388.759833 
" clip-path="url(#pb12aa6cade)" style="fill: none; stroke-dasharray: 5.6,4.2; stroke-dashoffset: 0; stroke: #404040; stroke-width: 1.4"/>
   </g>
   <g id="line2d_3">
    <path d="M 415.484919 352.492084 
L 560.694797 352.492084 
" clip-path="url(#pb12aa6cade)" style="fill: none; stroke-dasharray: 5.6,4.2; stroke-dashoffset: 0; stroke: #404040; stroke-width: 1.4"/>
   </g>
   <g id="patch_9">
    <path d="M 665.359061 287.60271 
Q 583.650092 381.054563 502.634924 473.712905 
" clip-path="url(#pb12aa6cade)" style="fill: none; stroke: #404040; stroke-width: 0.942769; stroke-linejoin: miter; stroke-linecap: round"/>
    <path d="M 508.527357 471.299803 
L 502.634924 473.712905 
L 504.239902 467.551097 
z
" clip-path="url(#pb12aa6cade)" style="fill: #404040; stroke: #404040; stroke-width: 0.942769; stroke-linejoin: miter; stroke-linecap: round"/>
   </g>
   <g id="patch_10">
    <path d="M 620.098839 287.60271 
Q 577.850264 335.923079 537.455173 382.123591 
" clip-path="url(#pb12aa6cade)" style="fill: none; stroke: #404040; stroke-width: 2.518602; stroke-linejoin: miter; stroke-linecap: round"/>
    <path d="M 544.434548 379.265359 
L 537.455173 382.123591 
L 539.356212 374.825151 
z
" clip-path="url(#pb12aa6cade)" style="fill: #404040; stroke: #404040; stroke-width: 2.518602; stroke-linejoin: miter; stroke-linecap: round"/>
   </g>
   <g id="patch_11">
    <path d="M 574.838617 287.60271 
Q 541.690119 318.018614 509.253942 347.780918 
" clip-path="url(#pb12aa6cade)" style="fill: none; stroke: #404040; stroke-width: 0.864682; stroke-linejoin: miter; stroke-linecap: round"/>
    <path d="M 515.319544 346.044687 
L 509.253942 347.780918 
L 511.504318 341.886698 
z
" clip-path="url(#pb12aa6cade)" style="fill: #404040; stroke: #404040; stroke-width: 0.864682; stroke-linejoin: miter; stroke-linecap: round"/>
   </g>
   <g id="patch_12">
    <path d="M 370.224697 352.492084 
Q 335.398126 369.320484 303.79529 384.591155 
" clip-path="url(#pb12aa6cade)" style="fill: none; stroke: #404040; stroke-width: 3.202372; stroke-linejoin: miter; stroke-linecap: round"/>
    <path d="M 311.846167 384.700053 
L 303.79529 384.591155 
L 308.712935 378.215793 
z
" clip-path="url(#pb12aa6cade)" style="fill: #404040; stroke: #404040; stroke-width: 3.202372; stroke-linejoin: miter; stroke-linecap: round"/>
   </g>
   <g id="line2d_4">
    <path d="M 120.350555 388.759833 
L 120.350555 431.576236 
" clip-path="url(#pb12aa6cade)" style="fill: none; stroke: #111111; stroke-width: 1.811532"/>
   </g>
   <g id="line2d_5">
    <path d="M 120.350555 295.739209 
L 120.350555 339.933338 
" clip-path="url(#pb12aa6cade)" style="fill: none; stroke: #111111; stroke-width: 3.034597"/>
   </g>
   <g id="line2d_6">
    <path d="M 120.350555 199.927534 
L 120.350555 245.517189 
" clip-path="url(#pb12aa6cade)" style="fill: none; stroke: #111111; stroke-width: 4.418368"/>
   </g>
   <g id="line2d_7">
    <path d="M 370.224697 261.642529 
L 370.224697 304.751124 
" clip-path="url(#pb12aa6cade)" style="fill: none; stroke: #111111; stroke-width: 2.252138"/>
   </g>
   <g id="line2d_8">
    <path d="M 370.224697 169.8019 
L 370.224697 213.406032 
" clip-path="url(#pb12aa6cade)" style="fill: none; stroke: #111111; stroke-width: 3.920454"/>
   </g>
   <g id="line2d_9">
    <path d="M 370.224697 77.915299 
L 370.224697 121.542417 
" clip-path="url(#pb12aa6cade)" style="fill: none; stroke: #111111; stroke-width: 5.8"/>
   </g>
   <g id="line2d_10">
    <path d="M 586.153672 190.011099 
L 586.153672 236.490722 
" clip-path="url(#pb12aa6cade)" style="fill: none; stroke: #111111; stroke-width: 3.422145"/>
   </g>
   <g id="line2d_11">
    <path d="M 75.090333 479.025005 
L 165.610777 479.025005 
" clip-path="url(#pb12aa6cade)" style="fill: none; stroke: #111111; stroke-width: 3.6; stroke-linecap: round"/>
   </g>
   <g id="line2d_12">
    <path d="M 75.090333 388.759833 
L 165.610777 388.759833 
" clip-path="url(#pb12aa6cade)" style="fill: none; stroke: #111111; stroke-width: 3.6; stroke-linecap: round"/>
   </g>
   <g id="line2d_13">
    <path d="M 75.090333 295.739209 
L 165.610777 295.739209 
" clip-path="url(#pb12aa6cade)" style="fill: none; stroke: #111111; stroke-width: 3.6; stroke-linecap: round"/>
   </g>
   <g id="line2d_14">
    <path d="M 75.090333 199.927534 
L 165.610777 199.927534 
" clip-path="url(#pb12aa6cade)" style="fill: none; stroke: #111111; stroke-width: 3.6; stroke-linecap: round"/>
   </g>
   <g id="line2d_15">
    <path d="M 324.964475 352.492084 
L 415.484919 352.492084 
" clip-path="url(#pb12aa6cade)" style="fill: none; stroke: #111111; stroke-width: 3.6; stroke-linecap: round"/>
   </g>
   <g id="line2d_16">
    <path d="M 324.964475 261.642529 
L 415.484919 261.642529 
" clip-path="url(#pb12aa6cade)" style="fill: none; stroke: #111111; stroke-width: 3.6; stroke-linecap: round"/>
   </g>
   <g id="line2d_17">
    <path d="M 324.964475 169.8019 
L 415.484919 169.8019 
" clip-path="url(#pb12aa6cade)" style="fill: none; stroke: #111111; stroke-width: 3.6; stroke-linecap: round"/>
   </g>
   <g id="line2d_18">
    <path d="M 324.964475 77.915299 
L 415.484919 77.915299 
" clip-path="url(#pb12aa6cade)" style="fill: none; stroke: #111111; stroke-width: 3.6; stroke-linecap: round"/>
   </g>
   <g id="line2d_19">
    <path d="M 574.838617 287.60271 
L 665.359061 287.60271 
" clip-path="url(#pb12aa6cade)" style="fill: none; stroke: #111111; stroke-width: 3.6; stroke-linecap: round"/>
   </g>
   <g id="line2d_20">
    <path d="M 574.838617 190.011099 
L 665.359061 190.011099 
" clip-path="url(#pb12aa6cade)" style="fill: none; stroke: #111111; stroke-width: 3.6; stroke-linecap: round"/>
   </g>
   <g id="text_1">
    <!-- $^{272}\mathrm{U}$ -->
    <g transform="translate(336.712 33.034687) scale(0.34 -0.34)">
     <defs>
      <path id="DejaVuSans-32" d="M 1228 531 
L 3431 531 
L 3431 0 
L 469 0 
L 469 531 
Q 828 903 1448 1529 
Q 2069 2156 2228 2338 
Q 2531 2678 2651 2914 
Q 2772 3150 2772 3378 
Q 2772 3750 2511 3984 
Q 2250 4219 1831 4219 
Q 1534 4219 1204 4116 
Q 875 4013 500 3803 
L 500 4441 
Q 881 4594 1212 4672 
Q 1544 4750 1819 4750 
Q 2544 4750 2975 4387 
Q 3406 4025 3406 3419 
Q 3406 3131 3298 2873 
Q 3191 2616 2906 2266 
Q 2828 2175 2409 1742 
Q 1991 1309 1228 531 
z
" transform="scale(0.015625)"/>
      <path id="DejaVuSans-37" d="M 525 4666 
L 3525 4666 
L 3525 4397 
L 1831 0 
L 1172 0 
L 2766 4134 
L 525 4134 
L 525 4666 
z
" transform="scale(0.015625)"/>
      <path id="DejaVuSans-55" d="M 556 4666 
L 1191 4666 
L 1191 1831 
Q 1191 1081 1462 751 
Q 1734 422 2344 422 
Q 2950 422 3222 751 
Q 3494 1081 3494 1831 
L 3494 4666 
L 4128 4666 
L 4128 1753 
Q 4128 841 3676 375 
Q 3225 -91 2344 -91 
Q 1459 -91 1007 375 
Q 556 841 556 1753 
L 556 4666 
z
" transform="scale(0.015625)"/>
     </defs>
     <use xlink:href="#DejaVuSans-32" transform="translate(0.957031 39.046875) scale(0.7)"/>
     <use xlink:href="#DejaVuSans-37" transform="translate(45.493164 39.046875) scale(0.7)"/>
     <use xlink:href="#DejaVuSans-32" transform="translate(90.029297 39.046875) scale(0.7)"/>
     <use xlink:href="#DejaVuSans-55" transform="translate(137.299805 0.765625)"/>
    </g>
   </g>
   <g id="text_2">
    <!-- 0 -->
    <g transform="translate(46.98525 483.440005) scale(0.16 -0.16)">
     <defs>
      <path id="DejaVuSans-BoldOblique-30" d="M 1913 728 
Q 2153 728 2339 872 
Q 2525 1016 2650 1294 
Q 2738 1491 2809 1742 
Q 2881 1994 2944 2338 
Q 2997 2616 3025 2850 
Q 3053 3084 3053 3250 
Q 3053 3600 2928 3764 
Q 2803 3928 2541 3928 
Q 2297 3928 2112 3789 
Q 1928 3650 1806 3366 
Q 1713 3163 1636 2903 
Q 1559 2644 1503 2338 
Q 1450 2056 1422 1815 
Q 1394 1575 1394 1409 
Q 1394 1063 1522 895 
Q 1650 728 1913 728 
z
M 4225 3072 
Q 4225 2450 4053 1862 
Q 3881 1275 3572 831 
Q 3256 375 2809 142 
Q 2363 -91 1813 -91 
Q 1047 -91 639 343 
Q 231 778 231 1594 
Q 231 2206 401 2795 
Q 572 3384 878 3822 
Q 1200 4281 1644 4515 
Q 2088 4750 2644 4750 
Q 3403 4750 3814 4314 
Q 4225 3878 4225 3072 
z
" transform="scale(0.015625)"/>
     </defs>
     <use xlink:href="#DejaVuSans-BoldOblique-30"/>
    </g>
   </g>
   <g id="text_3">
    <!-- 0⁺ -->
    <g transform="translate(182.58336 484.180239) scale(0.23 -0.23)">
     <defs>
      <path id="TimesNewRomanPS-BoldMT-30" d="M 2966 2119 
Q 2966 1484 2788 934 
Q 2681 597 2501 381 
Q 2322 166 2094 39 
Q 1866 -88 1597 -88 
Q 1291 -88 1044 68 
Q 797 225 606 516 
Q 469 728 366 1081 
Q 231 1559 231 2069 
Q 231 2759 425 3338 
Q 584 3816 909 4070 
Q 1234 4325 1597 4325 
Q 1966 4325 2286 4073 
Q 2606 3822 2756 3397 
Q 2966 2813 2966 2119 
z
M 2003 2125 
Q 2003 3238 1991 3422 
Q 1959 3856 1841 4009 
Q 1763 4109 1588 4109 
Q 1453 4109 1375 4034 
Q 1259 3925 1218 3648 
Q 1178 3372 1178 1719 
Q 1178 819 1241 513 
Q 1288 291 1375 216 
Q 1463 141 1606 141 
Q 1763 141 1841 241 
Q 1972 416 1991 781 
L 2003 2125 
z
" transform="scale(0.015625)"/>
      <path id="DejaVuSerif-Bold-207a" d="M 1916 4344 
L 1916 3441 
L 2950 3441 
L 2950 3044 
L 1916 3044 
L 1916 2141 
L 1463 2141 
L 1463 3044 
L 428 3044 
L 428 3441 
L 1463 3441 
L 1463 4344 
L 1916 4344 
z
" transform="scale(0.015625)"/>
     </defs>
     <use xlink:href="#TimesNewRomanPS-BoldMT-30"/>
     <use xlink:href="#DejaVuSerif-Bold-207a" transform="translate(50 0)"/>
    </g>
   </g>
   <g id="text_4">
    <!-- 1793 -->
    <g transform="translate(13.58775 393.174833) scale(0.16 -0.16)">
     <defs>
      <path id="DejaVuSans-BoldOblique-31" d="M 441 831 
L 1503 831 
L 2088 3847 
L 953 3622 
L 1113 4441 
L 2241 4666 
L 3384 4666 
L 2644 831 
L 3700 831 
L 3541 0 
L 275 0 
L 441 831 
z
" transform="scale(0.015625)"/>
      <path id="DejaVuSans-BoldOblique-37" d="M 922 4666 
L 4441 4666 
L 4300 3981 
L 1703 0 
L 500 0 
L 2969 3781 
L 756 3781 
L 922 4666 
z
" transform="scale(0.015625)"/>
      <path id="DejaVuSans-BoldOblique-39" d="M 263 103 
L 428 966 
Q 700 825 953 758 
Q 1206 691 1459 691 
Q 2041 691 2400 1003 
Q 2759 1316 2834 1881 
Q 2594 1722 2337 1645 
Q 2081 1569 1791 1569 
Q 1219 1569 853 1909 
Q 488 2250 488 2778 
Q 488 3641 1052 4192 
Q 1616 4744 2503 4744 
Q 3300 4744 3736 4292 
Q 4172 3841 4172 3016 
Q 4172 2381 3978 1801 
Q 3784 1222 3431 800 
Q 3056 353 2548 128 
Q 2041 -97 1403 -97 
Q 1106 -97 825 -47 
Q 544 3 263 103 
z
M 2169 2344 
Q 2525 2344 2753 2637 
Q 2981 2931 2981 3391 
Q 2981 3675 2845 3828 
Q 2709 3981 2456 3981 
Q 2103 3981 1870 3690 
Q 1638 3400 1638 2963 
Q 1638 2663 1775 2503 
Q 1913 2344 2169 2344 
z
" transform="scale(0.015625)"/>
      <path id="DejaVuSans-BoldOblique-33" d="M 3022 2516 
Q 3375 2434 3572 2187 
Q 3769 1941 3769 1581 
Q 3769 806 3155 357 
Q 2541 -91 1466 -91 
Q 1059 -91 692 -33 
Q 325 25 0 141 
L 178 1069 
Q 456 906 784 817 
Q 1113 728 1441 728 
Q 1969 728 2276 926 
Q 2584 1125 2584 1459 
Q 2584 1738 2350 1877 
Q 2116 2016 1644 2016 
L 1166 2016 
L 1319 2791 
L 1825 2791 
Q 2316 2791 2602 2969 
Q 2888 3147 2888 3450 
Q 2888 3688 2689 3813 
Q 2491 3938 2113 3938 
Q 1847 3938 1534 3869 
Q 1222 3800 884 3669 
L 1056 4550 
Q 1425 4650 1783 4700 
Q 2141 4750 2491 4750 
Q 3281 4750 3679 4487 
Q 4078 4225 4078 3706 
Q 4078 3241 3801 2930 
Q 3525 2619 3022 2516 
z
" transform="scale(0.015625)"/>
     </defs>
     <use xlink:href="#DejaVuSans-BoldOblique-31"/>
     <use xlink:href="#DejaVuSans-BoldOblique-37" transform="translate(69.580078 0)"/>
     <use xlink:href="#DejaVuSans-BoldOblique-39" transform="translate(139.160156 0)"/>
     <use xlink:href="#DejaVuSans-BoldOblique-33" transform="translate(208.740234 0)"/>
    </g>
   </g>
   <g id="text_5">
    <!-- 2⁺ -->
    <g transform="translate(182.58336 393.915067) scale(0.23 -0.23)">
     <defs>
      <path id="TimesNewRomanPS-BoldMT-32" d="M 2650 0 
L 156 0 
L 156 69 
Q 1303 1434 1548 1906 
Q 1794 2378 1794 2828 
Q 1794 3156 1591 3373 
Q 1388 3591 1094 3591 
Q 613 3591 347 3109 
L 231 3150 
Q 400 3750 744 4037 
Q 1088 4325 1538 4325 
Q 1859 4325 2125 4175 
Q 2391 4025 2541 3764 
Q 2691 3503 2691 3275 
Q 2691 2859 2459 2431 
Q 2144 1853 1081 819 
L 1997 819 
Q 2334 819 2436 847 
Q 2538 875 2603 942 
Q 2669 1009 2775 1225 
L 2888 1225 
L 2650 0 
z
" transform="scale(0.015625)"/>
     </defs>
     <use xlink:href="#TimesNewRomanPS-BoldMT-32"/>
     <use xlink:href="#DejaVuSerif-Bold-207a" transform="translate(50 0)"/>
    </g>
   </g>
   <g id="text_6">
    <!-- 3640 -->
    <g transform="translate(13.58775 300.154209) scale(0.16 -0.16)">
     <defs>
      <path id="DejaVuSans-BoldOblique-36" d="M 2316 2303 
Q 1959 2303 1731 2009 
Q 1503 1716 1503 1253 
Q 1503 975 1643 820 
Q 1784 666 2034 666 
Q 2388 666 2617 955 
Q 2847 1244 2847 1684 
Q 2847 1984 2709 2143 
Q 2572 2303 2316 2303 
z
M 4225 4544 
L 4056 3681 
Q 3788 3819 3534 3887 
Q 3281 3956 3028 3956 
Q 2447 3956 2087 3643 
Q 1728 3331 1650 2766 
Q 1894 2925 2151 3001 
Q 2409 3078 2700 3078 
Q 3275 3078 3640 2737 
Q 4006 2397 4006 1869 
Q 4006 1006 3442 454 
Q 2878 -97 1991 -97 
Q 1194 -97 756 354 
Q 319 806 319 1631 
Q 319 2269 512 2848 
Q 706 3428 1056 3847 
Q 1431 4294 1942 4519 
Q 2453 4744 3091 4744 
Q 3384 4744 3662 4694 
Q 3941 4644 4225 4544 
z
" transform="scale(0.015625)"/>
      <path id="DejaVuSans-BoldOblique-34" d="M 2638 3641 
L 978 1722 
L 2259 1722 
L 2638 3641 
z
M 2606 4666 
L 3975 4666 
L 3397 1722 
L 4063 1722 
L 3897 850 
L 3231 850 
L 3066 0 
L 1925 0 
L 2094 850 
L -6 850 
L 197 1881 
L 2606 4666 
z
" transform="scale(0.015625)"/>
     </defs>
     <use xlink:href="#DejaVuSans-BoldOblique-33"/>
     <use xlink:href="#DejaVuSans-BoldOblique-36" transform="translate(69.580078 0)"/>
     <use xlink:href="#DejaVuSans-BoldOblique-34" transform="translate(139.160156 0)"/>
     <use xlink:href="#DejaVuSans-BoldOblique-30" transform="translate(208.740234 0)"/>
    </g>
   </g>
   <g id="text_7">
    <!-- 4⁺ -->
    <g transform="translate(182.58336 300.894443) scale(0.23 -0.23)">
     <defs>
      <path id="TimesNewRomanPS-BoldMT-34" d="M 159 1597 
L 2172 4325 
L 2553 4325 
L 2553 1597 
L 2941 1597 
L 2941 950 
L 2553 950 
L 2553 0 
L 1694 0 
L 1694 950 
L 159 950 
L 159 1597 
z
M 463 1597 
L 1694 1597 
L 1694 3269 
L 463 1597 
z
" transform="scale(0.015625)"/>
     </defs>
     <use xlink:href="#TimesNewRomanPS-BoldMT-34"/>
     <use xlink:href="#DejaVuSerif-Bold-207a" transform="translate(50 0)"/>
    </g>
   </g>
   <g id="text_8">
    <!-- 5543 -->
    <g transform="translate(13.58775 204.342534) scale(0.16 -0.16)">
     <defs>
      <path id="DejaVuSans-BoldOblique-35" d="M 1131 4666 
L 4122 4666 
L 3950 3781 
L 1919 3781 
L 1778 3059 
Q 1916 3097 2064 3117 
Q 2213 3138 2363 3138 
Q 3078 3138 3481 2811 
Q 3884 2484 3884 1906 
Q 3884 988 3262 448 
Q 2641 -91 1575 -91 
Q 1184 -91 815 -14 
Q 447 63 84 219 
L 269 1166 
Q 616 941 942 834 
Q 1269 728 1606 728 
Q 2100 728 2397 986 
Q 2694 1244 2694 1663 
Q 2694 1963 2469 2139 
Q 2244 2316 1856 2316 
Q 1594 2316 1289 2248 
Q 984 2181 622 2041 
L 1131 4666 
z
" transform="scale(0.015625)"/>
     </defs>
     <use xlink:href="#DejaVuSans-BoldOblique-35"/>
     <use xlink:href="#DejaVuSans-BoldOblique-35" transform="translate(69.580078 0)"/>
     <use xlink:href="#DejaVuSans-BoldOblique-34" transform="translate(139.160156 0)"/>
     <use xlink:href="#DejaVuSans-BoldOblique-33" transform="translate(208.740234 0)"/>
    </g>
   </g>
   <g id="text_9">
    <!-- 6⁺ -->
    <g transform="translate(182.58336 205.082768) scale(0.23 -0.23)">
     <defs>
      <path id="TimesNewRomanPS-BoldMT-36" d="M 3006 4325 
L 3006 4238 
Q 2441 4094 2098 3867 
Q 1756 3641 1557 3317 
Q 1359 2994 1250 2516 
Q 1388 2609 1478 2638 
Q 1681 2700 1888 2700 
Q 2363 2700 2680 2354 
Q 2997 2009 2997 1413 
Q 2997 994 2825 644 
Q 2653 294 2337 103 
Q 2022 -88 1663 -88 
Q 1272 -88 940 126 
Q 609 341 423 753 
Q 238 1166 238 1650 
Q 238 2363 580 2977 
Q 922 3591 1551 3955 
Q 2181 4319 3006 4325 
z
M 1209 2263 
Q 1184 1831 1184 1631 
Q 1184 1200 1267 797 
Q 1350 394 1494 231 
Q 1597 116 1738 116 
Q 1881 116 1993 283 
Q 2106 450 2106 963 
Q 2106 1825 1897 2153 
Q 1763 2366 1534 2366 
Q 1409 2366 1209 2263 
z
" transform="scale(0.015625)"/>
     </defs>
     <use xlink:href="#TimesNewRomanPS-BoldMT-36"/>
     <use xlink:href="#DejaVuSerif-Bold-207a" transform="translate(50 0)"/>
    </g>
   </g>
   <g id="text_10">
    <!-- 2513 -->
    <g transform="translate(263.461892 356.907084) scale(0.16 -0.16)">
     <defs>
      <path id="DejaVuSans-BoldOblique-32" d="M 1581 884 
L 3609 884 
L 3438 0 
L 50 0 
L 225 891 
L 2209 2388 
Q 2534 2638 2704 2894 
Q 2875 3150 2875 3391 
Q 2875 3647 2700 3787 
Q 2525 3928 2209 3928 
Q 1913 3928 1547 3811 
Q 1181 3694 722 3450 
L 922 4441 
Q 1347 4597 1756 4673 
Q 2166 4750 2566 4750 
Q 3278 4750 3687 4442 
Q 4097 4134 4097 3603 
Q 4097 3147 3847 2772 
Q 3597 2397 2747 1759 
L 1581 884 
z
" transform="scale(0.015625)"/>
     </defs>
     <use xlink:href="#DejaVuSans-BoldOblique-32"/>
     <use xlink:href="#DejaVuSans-BoldOblique-35" transform="translate(69.580078 0)"/>
     <use xlink:href="#DejaVuSans-BoldOblique-31" transform="translate(139.160156 0)"/>
     <use xlink:href="#DejaVuSans-BoldOblique-33" transform="translate(208.740234 0)"/>
    </g>
   </g>
   <g id="text_11">
    <!-- 0⁺ -->
    <g transform="translate(432.457502 357.647319) scale(0.23 -0.23)">
     <use xlink:href="#TimesNewRomanPS-BoldMT-30"/>
     <use xlink:href="#DejaVuSerif-Bold-207a" transform="translate(50 0)"/>
    </g>
   </g>
   <g id="text_12">
    <!-- 4317 -->
    <g transform="translate(263.461892 266.057529) scale(0.16 -0.16)">
     <use xlink:href="#DejaVuSans-BoldOblique-34"/>
     <use xlink:href="#DejaVuSans-BoldOblique-33" transform="translate(69.580078 0)"/>
     <use xlink:href="#DejaVuSans-BoldOblique-31" transform="translate(139.160156 0)"/>
     <use xlink:href="#DejaVuSans-BoldOblique-37" transform="translate(208.740234 0)"/>
    </g>
   </g>
   <g id="text_13">
    <!-- 2⁺ -->
    <g transform="translate(432.457502 266.797764) scale(0.23 -0.23)">
     <use xlink:href="#TimesNewRomanPS-BoldMT-32"/>
     <use xlink:href="#DejaVuSerif-Bold-207a" transform="translate(50 0)"/>
    </g>
   </g>
   <g id="text_14">
    <!-- 6141 -->
    <g transform="translate(263.461892 174.2169) scale(0.16 -0.16)">
     <use xlink:href="#DejaVuSans-BoldOblique-36"/>
     <use xlink:href="#DejaVuSans-BoldOblique-31" transform="translate(69.580078 0)"/>
     <use xlink:href="#DejaVuSans-BoldOblique-34" transform="translate(139.160156 0)"/>
     <use xlink:href="#DejaVuSans-BoldOblique-31" transform="translate(208.740234 0)"/>
    </g>
   </g>
   <g id="text_15">
    <!-- 4⁺ -->
    <g transform="translate(432.457502 174.957134) scale(0.23 -0.23)">
     <use xlink:href="#TimesNewRomanPS-BoldMT-34"/>
     <use xlink:href="#DejaVuSerif-Bold-207a" transform="translate(50 0)"/>
    </g>
   </g>
   <g id="text_16">
    <!-- 7966 -->
    <g transform="translate(263.461892 82.330299) scale(0.16 -0.16)">
     <use xlink:href="#DejaVuSans-BoldOblique-37"/>
     <use xlink:href="#DejaVuSans-BoldOblique-39" transform="translate(69.580078 0)"/>
     <use xlink:href="#DejaVuSans-BoldOblique-36" transform="translate(139.160156 0)"/>
     <use xlink:href="#DejaVuSans-BoldOblique-36" transform="translate(208.740234 0)"/>
    </g>
   </g>
   <g id="text_17">
    <!-- 6⁺ -->
    <g transform="translate(432.457502 83.070534) scale(0.23 -0.23)">
     <use xlink:href="#TimesNewRomanPS-BoldMT-36"/>
     <use xlink:href="#DejaVuSerif-Bold-207a" transform="translate(50 0)"/>
    </g>
   </g>
   <g id="text_18">
    <!-- 3802 -->
    <g transform="translate(513.336034 292.01771) scale(0.16 -0.16)">
     <defs>
      <path id="DejaVuSans-BoldOblique-38" d="M 2150 2088 
Q 1784 2088 1539 1839 
Q 1294 1591 1294 1228 
Q 1294 969 1453 817 
Q 1613 666 1888 666 
Q 2259 666 2503 911 
Q 2747 1156 2747 1522 
Q 2747 1781 2586 1934 
Q 2425 2088 2150 2088 
z
M 1381 2484 
Q 1044 2625 876 2850 
Q 709 3075 709 3391 
Q 709 4025 1229 4387 
Q 1750 4750 2669 4750 
Q 3406 4750 3812 4475 
Q 4219 4200 4219 3700 
Q 4219 3256 3936 2940 
Q 3653 2625 3128 2484 
Q 3509 2338 3690 2091 
Q 3872 1844 3872 1466 
Q 3872 747 3311 328 
Q 2750 -91 1772 -91 
Q 1000 -91 570 217 
Q 141 525 141 1075 
Q 141 1572 470 1945 
Q 800 2319 1381 2484 
z
M 2559 3994 
Q 2241 3994 2048 3808 
Q 1856 3622 1856 3316 
Q 1856 3103 1995 2972 
Q 2134 2841 2363 2841 
Q 2681 2841 2873 3027 
Q 3066 3213 3066 3519 
Q 3066 3734 2927 3864 
Q 2788 3994 2559 3994 
z
" transform="scale(0.015625)"/>
     </defs>
     <use xlink:href="#DejaVuSans-BoldOblique-33"/>
     <use xlink:href="#DejaVuSans-BoldOblique-38" transform="translate(69.580078 0)"/>
     <use xlink:href="#DejaVuSans-BoldOblique-30" transform="translate(139.160156 0)"/>
     <use xlink:href="#DejaVuSans-BoldOblique-32" transform="translate(208.740234 0)"/>
    </g>
   </g>
   <g id="text_19">
    <!-- 2⁺ -->
    <g transform="translate(682.331644 292.757944) scale(0.23 -0.23)">
     <use xlink:href="#TimesNewRomanPS-BoldMT-32"/>
     <use xlink:href="#DejaVuSerif-Bold-207a" transform="translate(50 0)"/>
    </g>
   </g>
   <g id="text_20">
    <!-- 5740 -->
    <g transform="translate(513.336034 194.426099) scale(0.16 -0.16)">
     <use xlink:href="#DejaVuSans-BoldOblique-35"/>
     <use xlink:href="#DejaVuSans-BoldOblique-37" transform="translate(69.580078 0)"/>
     <use xlink:href="#DejaVuSans-BoldOblique-34" transform="translate(139.160156 0)"/>
     <use xlink:href="#DejaVuSans-BoldOblique-30" transform="translate(208.740234 0)"/>
    </g>
   </g>
   <g id="text_21">
    <!-- 3⁺ -->
    <g transform="translate(682.331644 195.166334) scale(0.23 -0.23)">
     <defs>
      <path id="TimesNewRomanPS-BoldMT-33" d="M 947 2125 
L 947 2234 
Q 1303 2338 1440 2427 
Q 1578 2516 1678 2698 
Q 1778 2881 1778 3069 
Q 1778 3328 1589 3514 
Q 1400 3700 1119 3700 
Q 681 3700 375 3238 
L 259 3278 
Q 484 3800 836 4062 
Q 1188 4325 1619 4325 
Q 2059 4325 2345 4056 
Q 2631 3788 2631 3428 
Q 2631 3194 2498 2976 
Q 2366 2759 2081 2594 
Q 2447 2416 2639 2155 
Q 2831 1894 2831 1500 
Q 2831 838 2351 373 
Q 1872 -91 1066 -91 
Q 528 -91 281 88 
Q 103 213 103 409 
Q 103 553 206 654 
Q 309 756 444 756 
Q 547 756 638 713 
Q 688 688 992 439 
Q 1297 191 1563 191 
Q 1794 191 1959 373 
Q 2125 556 2125 838 
Q 2125 1266 1825 1627 
Q 1525 1988 947 2125 
z
" transform="scale(0.015625)"/>
     </defs>
     <use xlink:href="#TimesNewRomanPS-BoldMT-33"/>
     <use xlink:href="#DejaVuSerif-Bold-207a" transform="translate(50 0)"/>
    </g>
   </g>
   <g id="text_22">
    <path d="M 110.843055 437.698669 
L 110.843055 437.478669 
Q 112.140555 437.181169 113.043055 436.603669 
Q 113.945555 436.026169 114.470555 435.173669 
Q 114.998055 434.321169 115.210555 433.213669 
Q 114.725555 433.463669 114.385555 433.561169 
Q 114.045555 433.658669 113.670555 433.658669 
Q 112.468055 433.658669 111.665555 432.791169 
Q 110.865555 431.923669 110.865555 430.416169 
Q 110.865555 429.368669 111.298055 428.498669 
Q 111.733055 427.626169 112.538055 427.146169 
Q 113.343055 426.666169 114.210555 426.666169 
Q 115.140555 426.666169 115.968055 427.198669 
Q 116.795555 427.728669 117.288055 428.736169 
Q 117.780555 429.743669 117.780555 431.033669 
Q 117.780555 432.706169 116.978055 434.238669 
Q 116.178055 435.768669 114.593055 436.693669 
Q 113.008055 437.618669 110.843055 437.698669 
z
M 115.328055 432.556169 
Q 115.405555 431.681169 115.405555 431.018669 
Q 115.405555 429.596169 115.078055 428.368669 
Q 114.890555 427.688669 114.523055 427.368669 
Q 114.328055 427.196169 114.015555 427.196169 
Q 113.623055 427.196169 113.405555 427.533669 
Q 113.100555 427.993669 113.100555 429.291169 
Q 113.100555 431.456169 113.615555 432.276169 
Q 113.953055 432.806169 114.523055 432.806169 
Q 114.828055 432.806169 115.328055 432.556169 
z
M 120.350555 435.071169 
Q 120.898055 435.071169 121.275555 435.456169 
Q 121.655555 435.838669 121.655555 436.376169 
Q 121.655555 436.916169 121.273055 437.296169 
Q 120.890555 437.673669 120.350555 437.673669 
Q 119.810555 437.673669 119.430555 437.296169 
Q 119.053055 436.916169 119.053055 436.376169 
Q 119.053055 435.838669 119.430555 435.456169 
Q 119.810555 435.071169 120.350555 435.071169 
z
M 129.765555 432.181169 
Q 129.765555 433.768669 129.320555 435.143669 
Q 129.053055 435.986169 128.603055 436.526169 
Q 128.155555 437.063669 127.585555 437.381169 
Q 127.015555 437.698669 126.343055 437.698669 
Q 125.578055 437.698669 124.960555 437.308669 
Q 124.343055 436.916169 123.865555 436.188669 
Q 123.523055 435.658669 123.265555 434.776169 
Q 122.928055 433.581169 122.928055 432.306169 
Q 122.928055 430.581169 123.413055 429.133669 
Q 123.810555 427.938669 124.623055 427.303669 
Q 125.435555 426.666169 126.343055 426.666169 
Q 127.265555 426.666169 128.065555 427.296169 
Q 128.865555 427.923669 129.240555 428.986169 
Q 129.765555 430.446169 129.765555 432.181169 
z
M 127.358055 432.166169 
Q 127.358055 429.383669 127.328055 428.923669 
Q 127.248055 427.838669 126.953055 427.456169 
Q 126.758055 427.206169 126.320555 427.206169 
Q 125.983055 427.206169 125.788055 427.393669 
Q 125.498055 427.666169 125.395555 428.358669 
Q 125.295555 429.048669 125.295555 433.181169 
Q 125.295555 435.431169 125.453055 436.196169 
Q 125.570555 436.751169 125.788055 436.938669 
Q 126.008055 437.126169 126.365555 437.126169 
Q 126.758055 437.126169 126.953055 436.876169 
Q 127.280555 436.438669 127.328055 435.526169 
L 127.358055 432.166169 
z
" style="stroke: #ffffff; stroke-width: 3.8"/>
    <path d="M 110.843055 437.698669 
L 110.843055 437.478669 
Q 112.140555 437.181169 113.043055 436.603669 
Q 113.945555 436.026169 114.470555 435.173669 
Q 114.998055 434.321169 115.210555 433.213669 
Q 114.725555 433.463669 114.385555 433.561169 
Q 114.045555 433.658669 113.670555 433.658669 
Q 112.468055 433.658669 111.665555 432.791169 
Q 110.865555 431.923669 110.865555 430.416169 
Q 110.865555 429.368669 111.298055 428.498669 
Q 111.733055 427.626169 112.538055 427.146169 
Q 113.343055 426.666169 114.210555 426.666169 
Q 115.140555 426.666169 115.968055 427.198669 
Q 116.795555 427.728669 117.288055 428.736169 
Q 117.780555 429.743669 117.780555 431.033669 
Q 117.780555 432.706169 116.978055 434.238669 
Q 116.178055 435.768669 114.593055 436.693669 
Q 113.008055 437.618669 110.843055 437.698669 
z
M 115.328055 432.556169 
Q 115.405555 431.681169 115.405555 431.018669 
Q 115.405555 429.596169 115.078055 428.368669 
Q 114.890555 427.688669 114.523055 427.368669 
Q 114.328055 427.196169 114.015555 427.196169 
Q 113.623055 427.196169 113.405555 427.533669 
Q 113.100555 427.993669 113.100555 429.291169 
Q 113.100555 431.456169 113.615555 432.276169 
Q 113.953055 432.806169 114.523055 432.806169 
Q 114.828055 432.806169 115.328055 432.556169 
z
M 120.350555 435.071169 
Q 120.898055 435.071169 121.275555 435.456169 
Q 121.655555 435.838669 121.655555 436.376169 
Q 121.655555 436.916169 121.273055 437.296169 
Q 120.890555 437.673669 120.350555 437.673669 
Q 119.810555 437.673669 119.430555 437.296169 
Q 119.053055 436.916169 119.053055 436.376169 
Q 119.053055 435.838669 119.430555 435.456169 
Q 119.810555 435.071169 120.350555 435.071169 
z
M 129.765555 432.181169 
Q 129.765555 433.768669 129.320555 435.143669 
Q 129.053055 435.986169 128.603055 436.526169 
Q 128.155555 437.063669 127.585555 437.381169 
Q 127.015555 437.698669 126.343055 437.698669 
Q 125.578055 437.698669 124.960555 437.308669 
Q 124.343055 436.916169 123.865555 436.188669 
Q 123.523055 435.658669 123.265555 434.776169 
Q 122.928055 433.581169 122.928055 432.306169 
Q 122.928055 430.581169 123.413055 429.133669 
Q 123.810555 427.938669 124.623055 427.303669 
Q 125.435555 426.666169 126.343055 426.666169 
Q 127.265555 426.666169 128.065555 427.296169 
Q 128.865555 427.923669 129.240555 428.986169 
Q 129.765555 430.446169 129.765555 432.181169 
z
M 127.358055 432.166169 
Q 127.358055 429.383669 127.328055 428.923669 
Q 127.248055 427.838669 126.953055 427.456169 
Q 126.758055 427.206169 126.320555 427.206169 
Q 125.983055 427.206169 125.788055 427.393669 
Q 125.498055 427.666169 125.395555 428.358669 
Q 125.295555 429.048669 125.295555 433.181169 
Q 125.295555 435.431169 125.453055 436.196169 
Q 125.570555 436.751169 125.788055 436.938669 
Q 126.008055 437.126169 126.365555 437.126169 
Q 126.758055 437.126169 126.953055 436.876169 
Q 127.280555 436.438669 127.328055 435.526169 
L 127.358055 432.166169 
z
"/>
   </g>
   <g id="text_23">
    <path d="M 111.560555 335.023271 
L 111.560555 343.688271 
Q 111.560555 344.663271 111.645555 344.933271 
Q 111.733055 345.203271 112.005555 345.375771 
Q 112.280555 345.545771 112.883055 345.545771 
L 113.123055 345.545771 
L 113.123055 345.835771 
L 107.545555 345.835771 
L 107.545555 345.545771 
L 107.828055 345.545771 
Q 108.508055 345.545771 108.795555 345.390771 
Q 109.085555 345.233271 109.185555 344.960771 
Q 109.288055 344.688271 109.288055 343.688271 
L 109.288055 338.195771 
Q 109.288055 337.460771 109.218055 337.278271 
Q 109.148055 337.093271 108.955555 336.965771 
Q 108.765555 336.835771 108.515555 336.835771 
Q 108.115555 336.835771 107.545555 337.085771 
L 107.405555 336.803271 
L 111.303055 335.023271 
L 111.560555 335.023271 
z
M 114.843055 346.055771 
L 114.843055 345.835771 
Q 116.140555 345.538271 117.043055 344.960771 
Q 117.945555 344.383271 118.470555 343.530771 
Q 118.998055 342.678271 119.210555 341.570771 
Q 118.725555 341.820771 118.385555 341.918271 
Q 118.045555 342.015771 117.670555 342.015771 
Q 116.468055 342.015771 115.665555 341.148271 
Q 114.865555 340.280771 114.865555 338.773271 
Q 114.865555 337.725771 115.298055 336.855771 
Q 115.733055 335.983271 116.538055 335.503271 
Q 117.343055 335.023271 118.210555 335.023271 
Q 119.140555 335.023271 119.968055 335.555771 
Q 120.795555 336.085771 121.288055 337.093271 
Q 121.780555 338.100771 121.780555 339.390771 
Q 121.780555 341.063271 120.978055 342.595771 
Q 120.178055 344.125771 118.593055 345.050771 
Q 117.008055 345.975771 114.843055 346.055771 
z
M 119.328055 340.913271 
Q 119.405555 340.038271 119.405555 339.375771 
Q 119.405555 337.953271 119.078055 336.725771 
Q 118.890555 336.045771 118.523055 335.725771 
Q 118.328055 335.553271 118.015555 335.553271 
Q 117.623055 335.553271 117.405555 335.890771 
Q 117.100555 336.350771 117.100555 337.648271 
Q 117.100555 339.813271 117.615555 340.633271 
Q 117.953055 341.163271 118.523055 341.163271 
Q 118.828055 341.163271 119.328055 340.913271 
z
M 124.350555 343.428271 
Q 124.898055 343.428271 125.275555 343.813271 
Q 125.655555 344.195771 125.655555 344.733271 
Q 125.655555 345.273271 125.273055 345.653271 
Q 124.890555 346.030771 124.350555 346.030771 
Q 123.810555 346.030771 123.430555 345.653271 
Q 123.053055 345.273271 123.053055 344.733271 
Q 123.053055 344.195771 123.430555 343.813271 
Q 123.810555 343.428271 124.350555 343.428271 
z
M 126.843055 346.055771 
L 126.843055 345.835771 
Q 128.140555 345.538271 129.043055 344.960771 
Q 129.945555 344.383271 130.470555 343.530771 
Q 130.998055 342.678271 131.210555 341.570771 
Q 130.725555 341.820771 130.385555 341.918271 
Q 130.045555 342.015771 129.670555 342.015771 
Q 128.468055 342.015771 127.665555 341.148271 
Q 126.865555 340.280771 126.865555 338.773271 
Q 126.865555 337.725771 127.298055 336.855771 
Q 127.733055 335.983271 128.538055 335.503271 
Q 129.343055 335.023271 130.210555 335.023271 
Q 131.140555 335.023271 131.968055 335.555771 
Q 132.795555 336.085771 133.288055 337.093271 
Q 133.780555 338.100771 133.780555 339.390771 
Q 133.780555 341.063271 132.978055 342.595771 
Q 132.178055 344.125771 130.593055 345.050771 
Q 129.008055 345.975771 126.843055 346.055771 
z
M 131.328055 340.913271 
Q 131.405555 340.038271 131.405555 339.375771 
Q 131.405555 337.953271 131.078055 336.725771 
Q 130.890555 336.045771 130.523055 335.725771 
Q 130.328055 335.553271 130.015555 335.553271 
Q 129.623055 335.553271 129.405555 335.890771 
Q 129.100555 336.350771 129.100555 337.648271 
Q 129.100555 339.813271 129.615555 340.633271 
Q 129.953055 341.163271 130.523055 341.163271 
Q 130.828055 341.163271 131.328055 340.913271 
z
" style="stroke: #ffffff; stroke-width: 3.8"/>
    <path d="M 111.560555 335.023271 
L 111.560555 343.688271 
Q 111.560555 344.663271 111.645555 344.933271 
Q 111.733055 345.203271 112.005555 345.375771 
Q 112.280555 345.545771 112.883055 345.545771 
L 113.123055 345.545771 
L 113.123055 345.835771 
L 107.545555 345.835771 
L 107.545555 345.545771 
L 107.828055 345.545771 
Q 108.508055 345.545771 108.795555 345.390771 
Q 109.085555 345.233271 109.185555 344.960771 
Q 109.288055 344.688271 109.288055 343.688271 
L 109.288055 338.195771 
Q 109.288055 337.460771 109.218055 337.278271 
Q 109.148055 337.093271 108.955555 336.965771 
Q 108.765555 336.835771 108.515555 336.835771 
Q 108.115555 336.835771 107.545555 337.085771 
L 107.405555 336.803271 
L 111.303055 335.023271 
L 111.560555 335.023271 
z
M 114.843055 346.055771 
L 114.843055 345.835771 
Q 116.140555 345.538271 117.043055 344.960771 
Q 117.945555 344.383271 118.470555 343.530771 
Q 118.998055 342.678271 119.210555 341.570771 
Q 118.725555 341.820771 118.385555 341.918271 
Q 118.045555 342.015771 117.670555 342.015771 
Q 116.468055 342.015771 115.665555 341.148271 
Q 114.865555 340.280771 114.865555 338.773271 
Q 114.865555 337.725771 115.298055 336.855771 
Q 115.733055 335.983271 116.538055 335.503271 
Q 117.343055 335.023271 118.210555 335.023271 
Q 119.140555 335.023271 119.968055 335.555771 
Q 120.795555 336.085771 121.288055 337.093271 
Q 121.780555 338.100771 121.780555 339.390771 
Q 121.780555 341.063271 120.978055 342.595771 
Q 120.178055 344.125771 118.593055 345.050771 
Q 117.008055 345.975771 114.843055 346.055771 
z
M 119.328055 340.913271 
Q 119.405555 340.038271 119.405555 339.375771 
Q 119.405555 337.953271 119.078055 336.725771 
Q 118.890555 336.045771 118.523055 335.725771 
Q 118.328055 335.553271 118.015555 335.553271 
Q 117.623055 335.553271 117.405555 335.890771 
Q 117.100555 336.350771 117.100555 337.648271 
Q 117.100555 339.813271 117.615555 340.633271 
Q 117.953055 341.163271 118.523055 341.163271 
Q 118.828055 341.163271 119.328055 340.913271 
z
M 124.350555 343.428271 
Q 124.898055 343.428271 125.275555 343.813271 
Q 125.655555 344.195771 125.655555 344.733271 
Q 125.655555 345.273271 125.273055 345.653271 
Q 124.890555 346.030771 124.350555 346.030771 
Q 123.810555 346.030771 123.430555 345.653271 
Q 123.053055 345.273271 123.053055 344.733271 
Q 123.053055 344.195771 123.430555 343.813271 
Q 123.810555 343.428271 124.350555 343.428271 
z
M 126.843055 346.055771 
L 126.843055 345.835771 
Q 128.140555 345.538271 129.043055 344.960771 
Q 129.945555 344.383271 130.470555 343.530771 
Q 130.998055 342.678271 131.210555 341.570771 
Q 130.725555 341.820771 130.385555 341.918271 
Q 130.045555 342.015771 129.670555 342.015771 
Q 128.468055 342.015771 127.665555 341.148271 
Q 126.865555 340.280771 126.865555 338.773271 
Q 126.865555 337.725771 127.298055 336.855771 
Q 127.733055 335.983271 128.538055 335.503271 
Q 129.343055 335.023271 130.210555 335.023271 
Q 131.140555 335.023271 131.968055 335.555771 
Q 132.795555 336.085771 133.288055 337.093271 
Q 133.780555 338.100771 133.780555 339.390771 
Q 133.780555 341.063271 132.978055 342.595771 
Q 132.178055 344.125771 130.593055 345.050771 
Q 129.008055 345.975771 126.843055 346.055771 
z
M 131.328055 340.913271 
Q 131.405555 340.038271 131.405555 339.375771 
Q 131.405555 337.953271 131.078055 336.725771 
Q 130.890555 336.045771 130.523055 335.725771 
Q 130.328055 335.553271 130.015555 335.553271 
Q 129.623055 335.553271 129.405555 335.890771 
Q 129.100555 336.350771 129.100555 337.648271 
Q 129.100555 339.813271 129.615555 340.633271 
Q 129.953055 341.163271 130.523055 341.163271 
Q 130.828055 341.163271 131.328055 340.913271 
z
"/>
   </g>
   <g id="text_24">
    <path d="M 108.718055 246.107121 
L 108.718055 245.834621 
Q 109.608055 245.574621 109.950555 245.352121 
Q 110.295555 245.129621 110.545555 244.674621 
Q 110.795555 244.217121 110.795555 243.747121 
Q 110.795555 243.099621 110.323055 242.634621 
Q 109.850555 242.169621 109.148055 242.169621 
Q 108.053055 242.169621 107.288055 243.324621 
L 106.998055 243.224621 
Q 107.560555 241.919621 108.440555 241.264621 
Q 109.320555 240.607121 110.398055 240.607121 
Q 111.498055 240.607121 112.213055 241.279621 
Q 112.928055 241.949621 112.928055 242.849621 
Q 112.928055 243.434621 112.595555 243.979621 
Q 112.265555 244.522121 111.553055 244.934621 
Q 112.468055 245.379621 112.948055 246.032121 
Q 113.428055 246.684621 113.428055 247.669621 
Q 113.428055 249.324621 112.228055 250.487121 
Q 111.030555 251.647121 109.015555 251.647121 
Q 107.670555 251.647121 107.053055 251.199621 
Q 106.608055 250.887121 106.608055 250.397121 
Q 106.608055 250.037121 106.865555 249.784621 
Q 107.123055 249.529621 107.460555 249.529621 
Q 107.718055 249.529621 107.945555 249.637121 
Q 108.070555 249.699621 108.830555 250.322121 
Q 109.593055 250.942121 110.258055 250.942121 
Q 110.835555 250.942121 111.248055 250.487121 
Q 111.663055 250.029621 111.663055 249.324621 
Q 111.663055 248.254621 110.913055 247.352121 
Q 110.163055 246.449621 108.718055 246.107121 
z
M 120.975555 251.419621 
L 114.740555 251.419621 
L 114.740555 251.247121 
Q 117.608055 247.834621 118.220555 246.654621 
Q 118.835555 245.474621 118.835555 244.349621 
Q 118.835555 243.529621 118.328055 242.987121 
Q 117.820555 242.442121 117.085555 242.442121 
Q 115.883055 242.442121 115.218055 243.647121 
L 114.928055 243.544621 
Q 115.350555 242.044621 116.210555 241.327121 
Q 117.070555 240.607121 118.195555 240.607121 
Q 118.998055 240.607121 119.663055 240.982121 
Q 120.328055 241.357121 120.703055 242.009621 
Q 121.078055 242.662121 121.078055 243.232121 
Q 121.078055 244.272121 120.498055 245.342121 
Q 119.710555 246.787121 117.053055 249.372121 
L 119.343055 249.372121 
Q 120.185555 249.372121 120.440555 249.302121 
Q 120.695555 249.232121 120.858055 249.064621 
Q 121.023055 248.897121 121.288055 248.357121 
L 121.570555 248.357121 
L 120.975555 251.419621 
z
M 124.350555 249.012121 
Q 124.898055 249.012121 125.275555 249.397121 
Q 125.655555 249.779621 125.655555 250.317121 
Q 125.655555 250.857121 125.273055 251.237121 
Q 124.890555 251.614621 124.350555 251.614621 
Q 123.810555 251.614621 123.430555 251.237121 
Q 123.053055 250.857121 123.053055 250.317121 
Q 123.053055 249.779621 123.430555 249.397121 
Q 123.810555 249.012121 124.350555 249.012121 
z
M 128.718055 246.107121 
L 128.718055 245.834621 
Q 129.608055 245.574621 129.950555 245.352121 
Q 130.295555 245.129621 130.545555 244.674621 
Q 130.795555 244.217121 130.795555 243.747121 
Q 130.795555 243.099621 130.323055 242.634621 
Q 129.850555 242.169621 129.148055 242.169621 
Q 128.053055 242.169621 127.288055 243.324621 
L 126.998055 243.224621 
Q 127.560555 241.919621 128.440555 241.264621 
Q 129.320555 240.607121 130.398055 240.607121 
Q 131.498055 240.607121 132.213055 241.279621 
Q 132.928055 241.949621 132.928055 242.849621 
Q 132.928055 243.434621 132.595555 243.979621 
Q 132.265555 244.522121 131.553055 244.934621 
Q 132.468055 245.379621 132.948055 246.032121 
Q 133.428055 246.684621 133.428055 247.669621 
Q 133.428055 249.324621 132.228055 250.487121 
Q 131.030555 251.647121 129.015555 251.647121 
Q 127.670555 251.647121 127.053055 251.199621 
Q 126.608055 250.887121 126.608055 250.397121 
Q 126.608055 250.037121 126.865555 249.784621 
Q 127.123055 249.529621 127.460555 249.529621 
Q 127.718055 249.529621 127.945555 249.637121 
Q 128.070555 249.699621 128.830555 250.322121 
Q 129.593055 250.942121 130.258055 250.942121 
Q 130.835555 250.942121 131.248055 250.487121 
Q 131.663055 250.029621 131.663055 249.324621 
Q 131.663055 248.254621 130.913055 247.352121 
Q 130.163055 246.449621 128.718055 246.107121 
z
" style="stroke: #ffffff; stroke-width: 3.8"/>
    <path d="M 108.718055 246.107121 
L 108.718055 245.834621 
Q 109.608055 245.574621 109.950555 245.352121 
Q 110.295555 245.129621 110.545555 244.674621 
Q 110.795555 244.217121 110.795555 243.747121 
Q 110.795555 243.099621 110.323055 242.634621 
Q 109.850555 242.169621 109.148055 242.169621 
Q 108.053055 242.169621 107.288055 243.324621 
L 106.998055 243.224621 
Q 107.560555 241.919621 108.440555 241.264621 
Q 109.320555 240.607121 110.398055 240.607121 
Q 111.498055 240.607121 112.213055 241.279621 
Q 112.928055 241.949621 112.928055 242.849621 
Q 112.928055 243.434621 112.595555 243.979621 
Q 112.265555 244.522121 111.553055 244.934621 
Q 112.468055 245.379621 112.948055 246.032121 
Q 113.428055 246.684621 113.428055 247.669621 
Q 113.428055 249.324621 112.228055 250.487121 
Q 111.030555 251.647121 109.015555 251.647121 
Q 107.670555 251.647121 107.053055 251.199621 
Q 106.608055 250.887121 106.608055 250.397121 
Q 106.608055 250.037121 106.865555 249.784621 
Q 107.123055 249.529621 107.460555 249.529621 
Q 107.718055 249.529621 107.945555 249.637121 
Q 108.070555 249.699621 108.830555 250.322121 
Q 109.593055 250.942121 110.258055 250.942121 
Q 110.835555 250.942121 111.248055 250.487121 
Q 111.663055 250.029621 111.663055 249.324621 
Q 111.663055 248.254621 110.913055 247.352121 
Q 110.163055 246.449621 108.718055 246.107121 
z
M 120.975555 251.419621 
L 114.740555 251.419621 
L 114.740555 251.247121 
Q 117.608055 247.834621 118.220555 246.654621 
Q 118.835555 245.474621 118.835555 244.349621 
Q 118.835555 243.529621 118.328055 242.987121 
Q 117.820555 242.442121 117.085555 242.442121 
Q 115.883055 242.442121 115.218055 243.647121 
L 114.928055 243.544621 
Q 115.350555 242.044621 116.210555 241.327121 
Q 117.070555 240.607121 118.195555 240.607121 
Q 118.998055 240.607121 119.663055 240.982121 
Q 120.328055 241.357121 120.703055 242.009621 
Q 121.078055 242.662121 121.078055 243.232121 
Q 121.078055 244.272121 120.498055 245.342121 
Q 119.710555 246.787121 117.053055 249.372121 
L 119.343055 249.372121 
Q 120.185555 249.372121 120.440555 249.302121 
Q 120.695555 249.232121 120.858055 249.064621 
Q 121.023055 248.897121 121.288055 248.357121 
L 121.570555 248.357121 
L 120.975555 251.419621 
z
M 124.350555 249.012121 
Q 124.898055 249.012121 125.275555 249.397121 
Q 125.655555 249.779621 125.655555 250.317121 
Q 125.655555 250.857121 125.273055 251.237121 
Q 124.890555 251.614621 124.350555 251.614621 
Q 123.810555 251.614621 123.430555 251.237121 
Q 123.053055 250.857121 123.053055 250.317121 
Q 123.053055 249.779621 123.430555 249.397121 
Q 123.810555 249.012121 124.350555 249.012121 
z
M 128.718055 246.107121 
L 128.718055 245.834621 
Q 129.608055 245.574621 129.950555 245.352121 
Q 130.295555 245.129621 130.545555 244.674621 
Q 130.795555 244.217121 130.795555 243.747121 
Q 130.795555 243.099621 130.323055 242.634621 
Q 129.850555 242.169621 129.148055 242.169621 
Q 128.053055 242.169621 127.288055 243.324621 
L 126.998055 243.224621 
Q 127.560555 241.919621 128.440555 241.264621 
Q 129.320555 240.607121 130.398055 240.607121 
Q 131.498055 240.607121 132.213055 241.279621 
Q 132.928055 241.949621 132.928055 242.849621 
Q 132.928055 243.434621 132.595555 243.979621 
Q 132.265555 244.522121 131.553055 244.934621 
Q 132.468055 245.379621 132.948055 246.032121 
Q 133.428055 246.684621 133.428055 247.669621 
Q 133.428055 249.324621 132.228055 250.487121 
Q 131.030555 251.647121 129.015555 251.647121 
Q 127.670555 251.647121 127.053055 251.199621 
Q 126.608055 250.887121 126.608055 250.397121 
Q 126.608055 250.037121 126.865555 249.784621 
Q 127.123055 249.529621 127.460555 249.529621 
Q 127.718055 249.529621 127.945555 249.637121 
Q 128.070555 249.699621 128.830555 250.322121 
Q 129.593055 250.942121 130.258055 250.942121 
Q 130.835555 250.942121 131.248055 250.487121 
Q 131.663055 250.029621 131.663055 249.324621 
Q 131.663055 248.254621 130.913055 247.352121 
Q 130.163055 246.449621 128.718055 246.107121 
z
"/>
   </g>
   <g id="text_25">
    <path d="M 361.434697 299.841057 
L 361.434697 308.506057 
Q 361.434697 309.481057 361.519697 309.751057 
Q 361.607197 310.021057 361.879697 310.193557 
Q 362.154697 310.363557 362.757197 310.363557 
L 362.997197 310.363557 
L 362.997197 310.653557 
L 357.419697 310.653557 
L 357.419697 310.363557 
L 357.702197 310.363557 
Q 358.382197 310.363557 358.669697 310.208557 
Q 358.959697 310.051057 359.059697 309.778557 
Q 359.162197 309.506057 359.162197 308.506057 
L 359.162197 303.013557 
Q 359.162197 302.278557 359.092197 302.096057 
Q 359.022197 301.911057 358.829697 301.783557 
Q 358.639697 301.653557 358.389697 301.653557 
Q 357.989697 301.653557 357.419697 301.903557 
L 357.279697 301.621057 
L 361.177197 299.841057 
L 361.434697 299.841057 
z
M 370.849697 310.653557 
L 364.614697 310.653557 
L 364.614697 310.481057 
Q 367.482197 307.068557 368.094697 305.888557 
Q 368.709697 304.708557 368.709697 303.583557 
Q 368.709697 302.763557 368.202197 302.221057 
Q 367.694697 301.676057 366.959697 301.676057 
Q 365.757197 301.676057 365.092197 302.881057 
L 364.802197 302.778557 
Q 365.224697 301.278557 366.084697 300.561057 
Q 366.944697 299.841057 368.069697 299.841057 
Q 368.872197 299.841057 369.537197 300.216057 
Q 370.202197 300.591057 370.577197 301.243557 
Q 370.952197 301.896057 370.952197 302.466057 
Q 370.952197 303.506057 370.372197 304.576057 
Q 369.584697 306.021057 366.927197 308.606057 
L 369.217197 308.606057 
Q 370.059697 308.606057 370.314697 308.536057 
Q 370.569697 308.466057 370.732197 308.298557 
Q 370.897197 308.131057 371.162197 307.591057 
L 371.444697 307.591057 
L 370.849697 310.653557 
z
M 374.224697 308.246057 
Q 374.772197 308.246057 375.149697 308.631057 
Q 375.529697 309.013557 375.529697 309.551057 
Q 375.529697 310.091057 375.147197 310.471057 
Q 374.764697 310.848557 374.224697 310.848557 
Q 373.684697 310.848557 373.304697 310.471057 
Q 372.927197 310.091057 372.927197 309.551057 
Q 372.927197 309.013557 373.304697 308.631057 
Q 373.684697 308.246057 374.224697 308.246057 
z
M 376.717197 310.873557 
L 376.717197 310.653557 
Q 378.014697 310.356057 378.917197 309.778557 
Q 379.819697 309.201057 380.344697 308.348557 
Q 380.872197 307.496057 381.084697 306.388557 
Q 380.599697 306.638557 380.259697 306.736057 
Q 379.919697 306.833557 379.544697 306.833557 
Q 378.342197 306.833557 377.539697 305.966057 
Q 376.739697 305.098557 376.739697 303.591057 
Q 376.739697 302.543557 377.172197 301.673557 
Q 377.607197 300.801057 378.412197 300.321057 
Q 379.217197 299.841057 380.084697 299.841057 
Q 381.014697 299.841057 381.842197 300.373557 
Q 382.669697 300.903557 383.162197 301.911057 
Q 383.654697 302.918557 383.654697 304.208557 
Q 383.654697 305.881057 382.852197 307.413557 
Q 382.052197 308.943557 380.467197 309.868557 
Q 378.882197 310.793557 376.717197 310.873557 
z
M 381.202197 305.731057 
Q 381.279697 304.856057 381.279697 304.193557 
Q 381.279697 302.771057 380.952197 301.543557 
Q 380.764697 300.863557 380.397197 300.543557 
Q 380.202197 300.371057 379.889697 300.371057 
Q 379.497197 300.371057 379.279697 300.708557 
Q 378.974697 301.168557 378.974697 302.466057 
Q 378.974697 304.631057 379.489697 305.451057 
Q 379.827197 305.981057 380.397197 305.981057 
Q 380.702197 305.981057 381.202197 305.731057 
z
" style="stroke: #ffffff; stroke-width: 3.8"/>
    <path d="M 361.434697 299.841057 
L 361.434697 308.506057 
Q 361.434697 309.481057 361.519697 309.751057 
Q 361.607197 310.021057 361.879697 310.193557 
Q 362.154697 310.363557 362.757197 310.363557 
L 362.997197 310.363557 
L 362.997197 310.653557 
L 357.419697 310.653557 
L 357.419697 310.363557 
L 357.702197 310.363557 
Q 358.382197 310.363557 358.669697 310.208557 
Q 358.959697 310.051057 359.059697 309.778557 
Q 359.162197 309.506057 359.162197 308.506057 
L 359.162197 303.013557 
Q 359.162197 302.278557 359.092197 302.096057 
Q 359.022197 301.911057 358.829697 301.783557 
Q 358.639697 301.653557 358.389697 301.653557 
Q 357.989697 301.653557 357.419697 301.903557 
L 357.279697 301.621057 
L 361.177197 299.841057 
L 361.434697 299.841057 
z
M 370.849697 310.653557 
L 364.614697 310.653557 
L 364.614697 310.481057 
Q 367.482197 307.068557 368.094697 305.888557 
Q 368.709697 304.708557 368.709697 303.583557 
Q 368.709697 302.763557 368.202197 302.221057 
Q 367.694697 301.676057 366.959697 301.676057 
Q 365.757197 301.676057 365.092197 302.881057 
L 364.802197 302.778557 
Q 365.224697 301.278557 366.084697 300.561057 
Q 366.944697 299.841057 368.069697 299.841057 
Q 368.872197 299.841057 369.537197 300.216057 
Q 370.202197 300.591057 370.577197 301.243557 
Q 370.952197 301.896057 370.952197 302.466057 
Q 370.952197 303.506057 370.372197 304.576057 
Q 369.584697 306.021057 366.927197 308.606057 
L 369.217197 308.606057 
Q 370.059697 308.606057 370.314697 308.536057 
Q 370.569697 308.466057 370.732197 308.298557 
Q 370.897197 308.131057 371.162197 307.591057 
L 371.444697 307.591057 
L 370.849697 310.653557 
z
M 374.224697 308.246057 
Q 374.772197 308.246057 375.149697 308.631057 
Q 375.529697 309.013557 375.529697 309.551057 
Q 375.529697 310.091057 375.147197 310.471057 
Q 374.764697 310.848557 374.224697 310.848557 
Q 373.684697 310.848557 373.304697 310.471057 
Q 372.927197 310.091057 372.927197 309.551057 
Q 372.927197 309.013557 373.304697 308.631057 
Q 373.684697 308.246057 374.224697 308.246057 
z
M 376.717197 310.873557 
L 376.717197 310.653557 
Q 378.014697 310.356057 378.917197 309.778557 
Q 379.819697 309.201057 380.344697 308.348557 
Q 380.872197 307.496057 381.084697 306.388557 
Q 380.599697 306.638557 380.259697 306.736057 
Q 379.919697 306.833557 379.544697 306.833557 
Q 378.342197 306.833557 377.539697 305.966057 
Q 376.739697 305.098557 376.739697 303.591057 
Q 376.739697 302.543557 377.172197 301.673557 
Q 377.607197 300.801057 378.412197 300.321057 
Q 379.217197 299.841057 380.084697 299.841057 
Q 381.014697 299.841057 381.842197 300.373557 
Q 382.669697 300.903557 383.162197 301.911057 
Q 383.654697 302.918557 383.654697 304.208557 
Q 383.654697 305.881057 382.852197 307.413557 
Q 382.052197 308.943557 380.467197 309.868557 
Q 378.882197 310.793557 376.717197 310.873557 
z
M 381.202197 305.731057 
Q 381.279697 304.856057 381.279697 304.193557 
Q 381.279697 302.771057 380.952197 301.543557 
Q 380.764697 300.863557 380.397197 300.543557 
Q 380.202197 300.371057 379.889697 300.371057 
Q 379.497197 300.371057 379.279697 300.708557 
Q 378.974697 301.168557 378.974697 302.466057 
Q 378.974697 304.631057 379.489697 305.451057 
Q 379.827197 305.981057 380.397197 305.981057 
Q 380.702197 305.981057 381.202197 305.731057 
z
"/>
   </g>
   <g id="text_26">
    <path d="M 362.849697 219.308465 
L 356.614697 219.308465 
L 356.614697 219.135965 
Q 359.482197 215.723465 360.094697 214.543465 
Q 360.709697 213.363465 360.709697 212.238465 
Q 360.709697 211.418465 360.202197 210.875965 
Q 359.694697 210.330965 358.959697 210.330965 
Q 357.757197 210.330965 357.092197 211.535965 
L 356.802197 211.433465 
Q 357.224697 209.933465 358.084697 209.215965 
Q 358.944697 208.495965 360.069697 208.495965 
Q 360.872197 208.495965 361.537197 208.870965 
Q 362.202197 209.245965 362.577197 209.898465 
Q 362.952197 210.550965 362.952197 211.120965 
Q 362.952197 212.160965 362.372197 213.230965 
Q 361.584697 214.675965 358.927197 217.260965 
L 361.217197 217.260965 
Q 362.059697 217.260965 362.314697 217.190965 
Q 362.569697 217.120965 362.732197 216.953465 
Q 362.897197 216.785965 363.162197 216.245965 
L 363.444697 216.245965 
L 362.849697 219.308465 
z
M 367.059697 219.528465 
L 369.944697 210.785965 
L 367.747197 210.785965 
Q 366.459697 210.785965 365.809697 211.120965 
Q 365.357197 211.355965 365.059697 212.003465 
L 364.764697 212.003465 
L 365.529697 208.713465 
L 371.842197 208.713465 
L 368.287197 219.528465 
L 367.059697 219.528465 
z
M 374.224697 216.900965 
Q 374.772197 216.900965 375.149697 217.285965 
Q 375.529697 217.668465 375.529697 218.205965 
Q 375.529697 218.745965 375.147197 219.125965 
Q 374.764697 219.503465 374.224697 219.503465 
Q 373.684697 219.503465 373.304697 219.125965 
Q 372.927197 218.745965 372.927197 218.205965 
Q 372.927197 217.668465 373.304697 217.285965 
Q 373.684697 216.900965 374.224697 216.900965 
z
M 381.677197 213.323465 
Q 382.794697 214.143465 383.227197 214.850965 
Q 383.662197 215.558465 383.662197 216.473465 
Q 383.662197 217.753465 382.697197 218.640965 
Q 381.732197 219.528465 380.077197 219.528465 
Q 378.507197 219.528465 377.647197 218.755965 
Q 376.787197 217.980965 376.787197 216.863465 
Q 376.787197 216.010965 377.282197 215.370965 
Q 377.779697 214.730965 378.934697 214.198465 
Q 377.677197 213.238465 377.322197 212.628465 
Q 376.967197 212.018465 376.967197 211.213465 
Q 376.967197 210.150965 377.869697 209.343465 
Q 378.772197 208.535965 380.342197 208.535965 
Q 381.857197 208.535965 382.672197 209.250965 
Q 383.489697 209.963465 383.489697 210.963465 
Q 383.489697 211.713465 383.047197 212.288465 
Q 382.607197 212.863465 381.677197 213.323465 
z
M 381.084697 212.925965 
Q 381.372197 212.535965 381.512197 212.050965 
Q 381.654697 211.565965 381.654697 210.988465 
Q 381.654697 209.973465 381.217197 209.433465 
Q 380.889697 209.018465 380.309697 209.018465 
Q 379.787197 209.018465 379.419697 209.398465 
Q 379.052197 209.775965 379.052197 210.338465 
Q 379.052197 210.910965 379.462197 211.523465 
Q 379.872197 212.135965 381.084697 212.925965 
z
M 379.522197 214.573465 
Q 379.279697 214.793465 379.177197 214.973465 
Q 379.022197 215.245965 378.897197 215.770965 
Q 378.772197 216.293465 378.772197 216.863465 
Q 378.772197 217.598465 378.959697 218.093465 
Q 379.147197 218.588465 379.494697 218.808465 
Q 379.842197 219.025965 380.209697 219.025965 
Q 380.779697 219.025965 381.169697 218.608465 
Q 381.559697 218.190965 381.559697 217.463465 
Q 381.559697 215.948465 379.522197 214.573465 
z
" style="stroke: #ffffff; stroke-width: 3.8"/>
    <path d="M 362.849697 219.308465 
L 356.614697 219.308465 
L 356.614697 219.135965 
Q 359.482197 215.723465 360.094697 214.543465 
Q 360.709697 213.363465 360.709697 212.238465 
Q 360.709697 211.418465 360.202197 210.875965 
Q 359.694697 210.330965 358.959697 210.330965 
Q 357.757197 210.330965 357.092197 211.535965 
L 356.802197 211.433465 
Q 357.224697 209.933465 358.084697 209.215965 
Q 358.944697 208.495965 360.069697 208.495965 
Q 360.872197 208.495965 361.537197 208.870965 
Q 362.202197 209.245965 362.577197 209.898465 
Q 362.952197 210.550965 362.952197 211.120965 
Q 362.952197 212.160965 362.372197 213.230965 
Q 361.584697 214.675965 358.927197 217.260965 
L 361.217197 217.260965 
Q 362.059697 217.260965 362.314697 217.190965 
Q 362.569697 217.120965 362.732197 216.953465 
Q 362.897197 216.785965 363.162197 216.245965 
L 363.444697 216.245965 
L 362.849697 219.308465 
z
M 367.059697 219.528465 
L 369.944697 210.785965 
L 367.747197 210.785965 
Q 366.459697 210.785965 365.809697 211.120965 
Q 365.357197 211.355965 365.059697 212.003465 
L 364.764697 212.003465 
L 365.529697 208.713465 
L 371.842197 208.713465 
L 368.287197 219.528465 
L 367.059697 219.528465 
z
M 374.224697 216.900965 
Q 374.772197 216.900965 375.149697 217.285965 
Q 375.529697 217.668465 375.529697 218.205965 
Q 375.529697 218.745965 375.147197 219.125965 
Q 374.764697 219.503465 374.224697 219.503465 
Q 373.684697 219.503465 373.304697 219.125965 
Q 372.927197 218.745965 372.927197 218.205965 
Q 372.927197 217.668465 373.304697 217.285965 
Q 373.684697 216.900965 374.224697 216.900965 
z
M 381.677197 213.323465 
Q 382.794697 214.143465 383.227197 214.850965 
Q 383.662197 215.558465 383.662197 216.473465 
Q 383.662197 217.753465 382.697197 218.640965 
Q 381.732197 219.528465 380.077197 219.528465 
Q 378.507197 219.528465 377.647197 218.755965 
Q 376.787197 217.980965 376.787197 216.863465 
Q 376.787197 216.010965 377.282197 215.370965 
Q 377.779697 214.730965 378.934697 214.198465 
Q 377.677197 213.238465 377.322197 212.628465 
Q 376.967197 212.018465 376.967197 211.213465 
Q 376.967197 210.150965 377.869697 209.343465 
Q 378.772197 208.535965 380.342197 208.535965 
Q 381.857197 208.535965 382.672197 209.250965 
Q 383.489697 209.963465 383.489697 210.963465 
Q 383.489697 211.713465 383.047197 212.288465 
Q 382.607197 212.863465 381.677197 213.323465 
z
M 381.084697 212.925965 
Q 381.372197 212.535965 381.512197 212.050965 
Q 381.654697 211.565965 381.654697 210.988465 
Q 381.654697 209.973465 381.217197 209.433465 
Q 380.889697 209.018465 380.309697 209.018465 
Q 379.787197 209.018465 379.419697 209.398465 
Q 379.052197 209.775965 379.052197 210.338465 
Q 379.052197 210.910965 379.462197 211.523465 
Q 379.872197 212.135965 381.084697 212.925965 
z
M 379.522197 214.573465 
Q 379.279697 214.793465 379.177197 214.973465 
Q 379.022197 215.245965 378.897197 215.770965 
Q 378.772197 216.293465 378.772197 216.863465 
Q 378.772197 217.598465 378.959697 218.093465 
Q 379.147197 218.588465 379.494697 218.808465 
Q 379.842197 219.025965 380.209697 219.025965 
Q 380.779697 219.025965 381.169697 218.608465 
Q 381.559697 218.190965 381.559697 217.463465 
Q 381.559697 215.948465 379.522197 214.573465 
z
"/>
   </g>
   <g id="text_27">
    <path d="M 356.622197 123.452349 
L 361.654697 116.632349 
L 362.607197 116.632349 
L 362.607197 123.452349 
L 363.577197 123.452349 
L 363.577197 125.069849 
L 362.607197 125.069849 
L 362.607197 127.444849 
L 360.459697 127.444849 
L 360.459697 125.069849 
L 356.622197 125.069849 
L 356.622197 123.452349 
z
M 357.382197 123.452349 
L 360.459697 123.452349 
L 360.459697 119.272349 
L 357.382197 123.452349 
z
M 364.622197 123.452349 
L 369.654697 116.632349 
L 370.607197 116.632349 
L 370.607197 123.452349 
L 371.577197 123.452349 
L 371.577197 125.069849 
L 370.607197 125.069849 
L 370.607197 127.444849 
L 368.459697 127.444849 
L 368.459697 125.069849 
L 364.622197 125.069849 
L 364.622197 123.452349 
z
M 365.382197 123.452349 
L 368.459697 123.452349 
L 368.459697 119.272349 
L 365.382197 123.452349 
z
M 374.224697 125.037349 
Q 374.772197 125.037349 375.149697 125.422349 
Q 375.529697 125.804849 375.529697 126.342349 
Q 375.529697 126.882349 375.147197 127.262349 
Q 374.764697 127.639849 374.224697 127.639849 
Q 373.684697 127.639849 373.304697 127.262349 
Q 372.927197 126.882349 372.927197 126.342349 
Q 372.927197 125.804849 373.304697 125.422349 
Q 373.684697 125.037349 374.224697 125.037349 
z
M 383.739697 116.632349 
L 383.739697 116.849849 
Q 382.327197 117.209849 381.469697 117.777349 
Q 380.614697 118.342349 380.117197 119.152349 
Q 379.622197 119.959849 379.349697 121.154849 
Q 379.694697 120.922349 379.919697 120.849849 
Q 380.427197 120.694849 380.944697 120.694849 
Q 382.132197 120.694849 382.924697 121.559849 
Q 383.717197 122.422349 383.717197 123.912349 
Q 383.717197 124.959849 383.287197 125.834849 
Q 382.857197 126.709849 382.067197 127.187349 
Q 381.279697 127.664849 380.382197 127.664849 
Q 379.404697 127.664849 378.574697 127.129849 
Q 377.747197 126.592349 377.282197 125.562349 
Q 376.819697 124.529849 376.819697 123.319849 
Q 376.819697 121.537349 377.674697 120.002349 
Q 378.529697 118.467349 380.102197 117.557349 
Q 381.677197 116.647349 383.739697 116.632349 
z
M 379.247197 121.787349 
Q 379.184697 122.867349 379.184697 123.367349 
Q 379.184697 124.444849 379.392197 125.452349 
Q 379.599697 126.459849 379.959697 126.867349 
Q 380.217197 127.154849 380.569697 127.154849 
Q 380.927197 127.154849 381.207197 126.737349 
Q 381.489697 126.319849 381.489697 125.037349 
Q 381.489697 122.882349 380.967197 122.062349 
Q 380.632197 121.529849 380.059697 121.529849 
Q 379.747197 121.529849 379.247197 121.787349 
z
" style="stroke: #ffffff; stroke-width: 3.8"/>
    <path d="M 356.622197 123.452349 
L 361.654697 116.632349 
L 362.607197 116.632349 
L 362.607197 123.452349 
L 363.577197 123.452349 
L 363.577197 125.069849 
L 362.607197 125.069849 
L 362.607197 127.444849 
L 360.459697 127.444849 
L 360.459697 125.069849 
L 356.622197 125.069849 
L 356.622197 123.452349 
z
M 357.382197 123.452349 
L 360.459697 123.452349 
L 360.459697 119.272349 
L 357.382197 123.452349 
z
M 364.622197 123.452349 
L 369.654697 116.632349 
L 370.607197 116.632349 
L 370.607197 123.452349 
L 371.577197 123.452349 
L 371.577197 125.069849 
L 370.607197 125.069849 
L 370.607197 127.444849 
L 368.459697 127.444849 
L 368.459697 125.069849 
L 364.622197 125.069849 
L 364.622197 123.452349 
z
M 365.382197 123.452349 
L 368.459697 123.452349 
L 368.459697 119.272349 
L 365.382197 123.452349 
z
M 374.224697 125.037349 
Q 374.772197 125.037349 375.149697 125.422349 
Q 375.529697 125.804849 375.529697 126.342349 
Q 375.529697 126.882349 375.147197 127.262349 
Q 374.764697 127.639849 374.224697 127.639849 
Q 373.684697 127.639849 373.304697 127.262349 
Q 372.927197 126.882349 372.927197 126.342349 
Q 372.927197 125.804849 373.304697 125.422349 
Q 373.684697 125.037349 374.224697 125.037349 
z
M 383.739697 116.632349 
L 383.739697 116.849849 
Q 382.327197 117.209849 381.469697 117.777349 
Q 380.614697 118.342349 380.117197 119.152349 
Q 379.622197 119.959849 379.349697 121.154849 
Q 379.694697 120.922349 379.919697 120.849849 
Q 380.427197 120.694849 380.944697 120.694849 
Q 382.132197 120.694849 382.924697 121.559849 
Q 383.717197 122.422349 383.717197 123.912349 
Q 383.717197 124.959849 383.287197 125.834849 
Q 382.857197 126.709849 382.067197 127.187349 
Q 381.279697 127.664849 380.382197 127.664849 
Q 379.404697 127.664849 378.574697 127.129849 
Q 377.747197 126.592349 377.282197 125.562349 
Q 376.819697 124.529849 376.819697 123.319849 
Q 376.819697 121.537349 377.674697 120.002349 
Q 378.529697 118.467349 380.102197 117.557349 
Q 381.677197 116.647349 383.739697 116.632349 
z
M 379.247197 121.787349 
Q 379.184697 122.867349 379.184697 123.367349 
Q 379.184697 124.444849 379.392197 125.452349 
Q 379.599697 126.459849 379.959697 126.867349 
Q 380.217197 127.154849 380.569697 127.154849 
Q 380.927197 127.154849 381.207197 126.737349 
Q 381.489697 126.319849 381.489697 125.037349 
Q 381.489697 122.882349 380.967197 122.062349 
Q 380.632197 121.529849 380.059697 121.529849 
Q 379.747197 121.529849 379.247197 121.787349 
z
"/>
   </g>
   <g id="text_28">
    <path d="M 578.778672 242.393155 
L 572.543672 242.393155 
L 572.543672 242.220655 
Q 575.411172 238.808155 576.023672 237.628155 
Q 576.638672 236.448155 576.638672 235.323155 
Q 576.638672 234.503155 576.131172 233.960655 
Q 575.623672 233.415655 574.888672 233.415655 
Q 573.686172 233.415655 573.021172 234.620655 
L 572.731172 234.518155 
Q 573.153672 233.018155 574.013672 232.300655 
Q 574.873672 231.580655 575.998672 231.580655 
Q 576.801172 231.580655 577.466172 231.955655 
Q 578.131172 232.330655 578.506172 232.983155 
Q 578.881172 233.635655 578.881172 234.205655 
Q 578.881172 235.245655 578.301172 236.315655 
Q 577.513672 237.760655 574.856172 240.345655 
L 577.146172 240.345655 
Q 577.988672 240.345655 578.243672 240.275655 
Q 578.498672 240.205655 578.661172 240.038155 
Q 578.826172 239.870655 579.091172 239.330655 
L 579.373672 239.330655 
L 578.778672 242.393155 
z
M 582.521172 237.080655 
L 582.521172 236.808155 
Q 583.411172 236.548155 583.753672 236.325655 
Q 584.098672 236.103155 584.348672 235.648155 
Q 584.598672 235.190655 584.598672 234.720655 
Q 584.598672 234.073155 584.126172 233.608155 
Q 583.653672 233.143155 582.951172 233.143155 
Q 581.856172 233.143155 581.091172 234.298155 
L 580.801172 234.198155 
Q 581.363672 232.893155 582.243672 232.238155 
Q 583.123672 231.580655 584.201172 231.580655 
Q 585.301172 231.580655 586.016172 232.253155 
Q 586.731172 232.923155 586.731172 233.823155 
Q 586.731172 234.408155 586.398672 234.953155 
Q 586.068672 235.495655 585.356172 235.908155 
Q 586.271172 236.353155 586.751172 237.005655 
Q 587.231172 237.658155 587.231172 238.643155 
Q 587.231172 240.298155 586.031172 241.460655 
Q 584.833672 242.620655 582.818672 242.620655 
Q 581.473672 242.620655 580.856172 242.173155 
Q 580.411172 241.860655 580.411172 241.370655 
Q 580.411172 241.010655 580.668672 240.758155 
Q 580.926172 240.503155 581.263672 240.503155 
Q 581.521172 240.503155 581.748672 240.610655 
Q 581.873672 240.673155 582.633672 241.295655 
Q 583.396172 241.915655 584.061172 241.915655 
Q 584.638672 241.915655 585.051172 241.460655 
Q 585.466172 241.003155 585.466172 240.298155 
Q 585.466172 239.228155 584.716172 238.325655 
Q 583.966172 237.423155 582.521172 237.080655 
z
M 590.153672 239.985655 
Q 590.701172 239.985655 591.078672 240.370655 
Q 591.458672 240.753155 591.458672 241.290655 
Q 591.458672 241.830655 591.076172 242.210655 
Q 590.693672 242.588155 590.153672 242.588155 
Q 589.613672 242.588155 589.233672 242.210655 
Q 588.856172 241.830655 588.856172 241.290655 
Q 588.856172 240.753155 589.233672 240.370655 
Q 589.613672 239.985655 590.153672 239.985655 
z
M 592.551172 238.400655 
L 597.583672 231.580655 
L 598.536172 231.580655 
L 598.536172 238.400655 
L 599.506172 238.400655 
L 599.506172 240.018155 
L 598.536172 240.018155 
L 598.536172 242.393155 
L 596.388672 242.393155 
L 596.388672 240.018155 
L 592.551172 240.018155 
L 592.551172 238.400655 
z
M 593.311172 238.400655 
L 596.388672 238.400655 
L 596.388672 234.220655 
L 593.311172 238.400655 
z
" style="stroke: #ffffff; stroke-width: 3.8"/>
    <path d="M 578.778672 242.393155 
L 572.543672 242.393155 
L 572.543672 242.220655 
Q 575.411172 238.808155 576.023672 237.628155 
Q 576.638672 236.448155 576.638672 235.323155 
Q 576.638672 234.503155 576.131172 233.960655 
Q 575.623672 233.415655 574.888672 233.415655 
Q 573.686172 233.415655 573.021172 234.620655 
L 572.731172 234.518155 
Q 573.153672 233.018155 574.013672 232.300655 
Q 574.873672 231.580655 575.998672 231.580655 
Q 576.801172 231.580655 577.466172 231.955655 
Q 578.131172 232.330655 578.506172 232.983155 
Q 578.881172 233.635655 578.881172 234.205655 
Q 578.881172 235.245655 578.301172 236.315655 
Q 577.513672 237.760655 574.856172 240.345655 
L 577.146172 240.345655 
Q 577.988672 240.345655 578.243672 240.275655 
Q 578.498672 240.205655 578.661172 240.038155 
Q 578.826172 239.870655 579.091172 239.330655 
L 579.373672 239.330655 
L 578.778672 242.393155 
z
M 582.521172 237.080655 
L 582.521172 236.808155 
Q 583.411172 236.548155 583.753672 236.325655 
Q 584.098672 236.103155 584.348672 235.648155 
Q 584.598672 235.190655 584.598672 234.720655 
Q 584.598672 234.073155 584.126172 233.608155 
Q 583.653672 233.143155 582.951172 233.143155 
Q 581.856172 233.143155 581.091172 234.298155 
L 580.801172 234.198155 
Q 581.363672 232.893155 582.243672 232.238155 
Q 583.123672 231.580655 584.201172 231.580655 
Q 585.301172 231.580655 586.016172 232.253155 
Q 586.731172 232.923155 586.731172 233.823155 
Q 586.731172 234.408155 586.398672 234.953155 
Q 586.068672 235.495655 585.356172 235.908155 
Q 586.271172 236.353155 586.751172 237.005655 
Q 587.231172 237.658155 587.231172 238.643155 
Q 587.231172 240.298155 586.031172 241.460655 
Q 584.833672 242.620655 582.818672 242.620655 
Q 581.473672 242.620655 580.856172 242.173155 
Q 580.411172 241.860655 580.411172 241.370655 
Q 580.411172 241.010655 580.668672 240.758155 
Q 580.926172 240.503155 581.263672 240.503155 
Q 581.521172 240.503155 581.748672 240.610655 
Q 581.873672 240.673155 582.633672 241.295655 
Q 583.396172 241.915655 584.061172 241.915655 
Q 584.638672 241.915655 585.051172 241.460655 
Q 585.466172 241.003155 585.466172 240.298155 
Q 585.466172 239.228155 584.716172 238.325655 
Q 583.966172 237.423155 582.521172 237.080655 
z
M 590.153672 239.985655 
Q 590.701172 239.985655 591.078672 240.370655 
Q 591.458672 240.753155 591.458672 241.290655 
Q 591.458672 241.830655 591.076172 242.210655 
Q 590.693672 242.588155 590.153672 242.588155 
Q 589.613672 242.588155 589.233672 242.210655 
Q 588.856172 241.830655 588.856172 241.290655 
Q 588.856172 240.753155 589.233672 240.370655 
Q 589.613672 239.985655 590.153672 239.985655 
z
M 592.551172 238.400655 
L 597.583672 231.580655 
L 598.536172 231.580655 
L 598.536172 238.400655 
L 599.506172 238.400655 
L 599.506172 240.018155 
L 598.536172 240.018155 
L 598.536172 242.393155 
L 596.388672 242.393155 
L 596.388672 240.018155 
L 592.551172 240.018155 
L 592.551172 238.400655 
z
M 593.311172 238.400655 
L 596.388672 238.400655 
L 596.388672 234.220655 
L 593.311172 238.400655 
z
"/>
   </g>
   <g id="text_29">
    <path d="M 577.184069 380.063874 
L 577.184069 388.187312 
Q 577.184069 389.101374 577.263756 389.354499 
Q 577.345788 389.607624 577.601256 389.769343 
Q 577.859069 389.928718 578.423913 389.928718 
L 578.648913 389.928718 
L 578.648913 390.200593 
L 573.420006 390.200593 
L 573.420006 389.928718 
L 573.68485 389.928718 
Q 574.32235 389.928718 574.591881 389.783406 
Q 574.863756 389.635749 574.957506 389.380281 
Q 575.0536 389.124812 575.0536 388.187312 
L 575.0536 383.038093 
Q 575.0536 382.349031 574.987975 382.177937 
Q 574.92235 382.004499 574.741881 381.884968 
Q 574.563756 381.763093 574.329381 381.763093 
Q 573.954381 381.763093 573.420006 381.997468 
L 573.288756 381.732624 
L 576.942663 380.063874 
L 577.184069 380.063874 
z
M 581.674694 387.943562 
Q 582.187975 387.943562 582.541881 388.304499 
Q 582.898131 388.663093 582.898131 389.166999 
Q 582.898131 389.673249 582.539538 390.029499 
Q 582.180944 390.383406 581.674694 390.383406 
Q 581.168444 390.383406 580.812194 390.029499 
Q 580.458288 389.673249 580.458288 389.166999 
Q 580.458288 388.663093 580.812194 388.304499 
Q 581.168444 387.943562 581.674694 387.943562 
z
M 585.83485 380.267781 
L 590.48485 380.267781 
L 589.746569 382.159187 
L 585.83485 382.159187 
L 585.462194 383.148249 
Q 587.988756 383.241999 589.350475 384.406843 
Q 590.470788 385.365437 590.470788 386.795124 
Q 590.470788 387.709187 589.950475 388.585749 
Q 589.430163 389.459968 588.485631 389.933406 
Q 587.5411 390.406843 586.413756 390.406843 
Q 585.19735 390.406843 584.545788 389.952156 
Q 584.0911 389.628718 584.0911 389.218562 
Q 584.0911 388.904499 584.327819 388.663093 
Q 584.566881 388.421687 584.883288 388.421687 
Q 585.169225 388.421687 585.462194 388.538874 
Q 585.755163 388.656062 586.465319 389.152937 
Q 586.910631 389.459968 587.234069 389.577156 
Q 587.461413 389.666218 587.74735 389.666218 
Q 588.34735 389.666218 588.766881 389.227937 
Q 589.188756 388.787312 589.188756 388.170906 
Q 589.188756 386.881843 587.899694 386.077937 
Q 586.610631 385.271687 584.648913 385.271687 
Q 584.449694 385.271687 584.055944 385.278718 
L 585.83485 380.267781 
z
" style="fill: #404040; stroke: #ffffff; stroke-width: 3.8"/>
    <path d="M 577.184069 380.063874 
L 577.184069 388.187312 
Q 577.184069 389.101374 577.263756 389.354499 
Q 577.345788 389.607624 577.601256 389.769343 
Q 577.859069 389.928718 578.423913 389.928718 
L 578.648913 389.928718 
L 578.648913 390.200593 
L 573.420006 390.200593 
L 573.420006 389.928718 
L 573.68485 389.928718 
Q 574.32235 389.928718 574.591881 389.783406 
Q 574.863756 389.635749 574.957506 389.380281 
Q 575.0536 389.124812 575.0536 388.187312 
L 575.0536 383.038093 
Q 575.0536 382.349031 574.987975 382.177937 
Q 574.92235 382.004499 574.741881 381.884968 
Q 574.563756 381.763093 574.329381 381.763093 
Q 573.954381 381.763093 573.420006 381.997468 
L 573.288756 381.732624 
L 576.942663 380.063874 
L 577.184069 380.063874 
z
M 581.674694 387.943562 
Q 582.187975 387.943562 582.541881 388.304499 
Q 582.898131 388.663093 582.898131 389.166999 
Q 582.898131 389.673249 582.539538 390.029499 
Q 582.180944 390.383406 581.674694 390.383406 
Q 581.168444 390.383406 580.812194 390.029499 
Q 580.458288 389.673249 580.458288 389.166999 
Q 580.458288 388.663093 580.812194 388.304499 
Q 581.168444 387.943562 581.674694 387.943562 
z
M 585.83485 380.267781 
L 590.48485 380.267781 
L 589.746569 382.159187 
L 585.83485 382.159187 
L 585.462194 383.148249 
Q 587.988756 383.241999 589.350475 384.406843 
Q 590.470788 385.365437 590.470788 386.795124 
Q 590.470788 387.709187 589.950475 388.585749 
Q 589.430163 389.459968 588.485631 389.933406 
Q 587.5411 390.406843 586.413756 390.406843 
Q 585.19735 390.406843 584.545788 389.952156 
Q 584.0911 389.628718 584.0911 389.218562 
Q 584.0911 388.904499 584.327819 388.663093 
Q 584.566881 388.421687 584.883288 388.421687 
Q 585.169225 388.421687 585.462194 388.538874 
Q 585.755163 388.656062 586.465319 389.152937 
Q 586.910631 389.459968 587.234069 389.577156 
Q 587.461413 389.666218 587.74735 389.666218 
Q 588.34735 389.666218 588.766881 389.227937 
Q 589.188756 388.787312 589.188756 388.170906 
Q 589.188756 386.881843 587.899694 386.077937 
Q 586.610631 385.271687 584.648913 385.271687 
Q 584.449694 385.271687 584.055944 385.278718 
L 585.83485 380.267781 
z
" style="fill: #404040"/>
   </g>
   <g id="text_30">
    <path d="M 567.635205 334.931288 
L 567.635205 343.054726 
Q 567.635205 343.968788 567.714893 344.221913 
Q 567.796924 344.475038 568.052393 344.636757 
Q 568.310205 344.796132 568.875049 344.796132 
L 569.100049 344.796132 
L 569.100049 345.068007 
L 563.871143 345.068007 
L 563.871143 344.796132 
L 564.135986 344.796132 
Q 564.773486 344.796132 565.043018 344.65082 
Q 565.314893 344.503163 565.408643 344.247695 
Q 565.504736 343.992226 565.504736 343.054726 
L 565.504736 337.905507 
Q 565.504736 337.216445 565.439111 337.045351 
Q 565.373486 336.871913 565.193018 336.752382 
Q 565.014893 336.630507 564.780518 336.630507 
Q 564.405518 336.630507 563.871143 336.864882 
L 563.739893 336.600038 
L 567.393799 334.931288 
L 567.635205 334.931288 
z
M 575.362549 339.45707 
Q 576.410205 340.22582 576.815674 340.889101 
Q 577.223486 341.552382 577.223486 342.410195 
Q 577.223486 343.610195 576.318799 344.442226 
Q 575.414111 345.274257 573.862549 345.274257 
Q 572.390674 345.274257 571.584424 344.550038 
Q 570.778174 343.823476 570.778174 342.77582 
Q 570.778174 341.976601 571.242236 341.376601 
Q 571.708643 340.776601 572.791455 340.277382 
Q 571.612549 339.377382 571.279736 338.805507 
Q 570.946924 338.233632 570.946924 337.478945 
Q 570.946924 336.482851 571.793018 335.72582 
Q 572.639111 334.968788 574.110986 334.968788 
Q 575.531299 334.968788 576.295361 335.639101 
Q 577.061768 336.30707 577.061768 337.24457 
Q 577.061768 337.947695 576.646924 338.486757 
Q 576.234424 339.02582 575.362549 339.45707 
z
M 574.80708 339.084413 
Q 575.076611 338.718788 575.207861 338.264101 
Q 575.341455 337.809413 575.341455 337.268007 
Q 575.341455 336.316445 574.931299 335.810195 
Q 574.624268 335.421132 574.080518 335.421132 
Q 573.590674 335.421132 573.246143 335.777382 
Q 572.901611 336.131288 572.901611 336.658632 
Q 572.901611 337.195351 573.285986 337.76957 
Q 573.670361 338.343788 574.80708 339.084413 
z
M 573.342236 340.628945 
Q 573.114893 340.835195 573.018799 341.003945 
Q 572.873486 341.259413 572.756299 341.751601 
Q 572.639111 342.241445 572.639111 342.77582 
Q 572.639111 343.464882 572.814893 343.928945 
Q 572.990674 344.393007 573.316455 344.599257 
Q 573.642236 344.803163 573.986768 344.803163 
Q 574.521143 344.803163 574.886768 344.411757 
Q 575.252393 344.020351 575.252393 343.33832 
Q 575.252393 341.918007 573.342236 340.628945 
z
M 579.62583 342.810976 
Q 580.139111 342.810976 580.493018 343.171913 
Q 580.849268 343.530507 580.849268 344.034413 
Q 580.849268 344.540663 580.490674 344.896913 
Q 580.13208 345.25082 579.62583 345.25082 
Q 579.11958 345.25082 578.76333 344.896913 
Q 578.409424 344.540663 578.409424 344.034413 
Q 578.409424 343.530507 578.76333 343.171913 
Q 579.11958 342.810976 579.62583 342.810976 
z
M 587.711768 345.068007 
L 581.866455 345.068007 
L 581.866455 344.906288 
Q 584.554736 341.70707 585.128955 340.60082 
Q 585.705518 339.49457 585.705518 338.439882 
Q 585.705518 337.671132 585.229736 337.162538 
Q 584.753955 336.651601 584.064893 336.651601 
Q 582.937549 336.651601 582.314111 337.781288 
L 582.042236 337.685195 
Q 582.43833 336.278945 583.24458 335.606288 
Q 584.05083 334.931288 585.105518 334.931288 
Q 585.857861 334.931288 586.481299 335.282851 
Q 587.104736 335.634413 587.456299 336.246132 
Q 587.807861 336.857851 587.807861 337.392226 
Q 587.807861 338.367226 587.264111 339.370351 
Q 586.52583 340.725038 584.034424 343.148476 
L 586.181299 343.148476 
Q 586.971143 343.148476 587.210205 343.082851 
Q 587.449268 343.017226 587.601611 342.860195 
Q 587.756299 342.703163 588.004736 342.196913 
L 588.26958 342.196913 
L 587.711768 345.068007 
z
" style="fill: #404040; stroke: #ffffff; stroke-width: 3.8"/>
    <path d="M 567.635205 334.931288 
L 567.635205 343.054726 
Q 567.635205 343.968788 567.714893 344.221913 
Q 567.796924 344.475038 568.052393 344.636757 
Q 568.310205 344.796132 568.875049 344.796132 
L 569.100049 344.796132 
L 569.100049 345.068007 
L 563.871143 345.068007 
L 563.871143 344.796132 
L 564.135986 344.796132 
Q 564.773486 344.796132 565.043018 344.65082 
Q 565.314893 344.503163 565.408643 344.247695 
Q 565.504736 343.992226 565.504736 343.054726 
L 565.504736 337.905507 
Q 565.504736 337.216445 565.439111 337.045351 
Q 565.373486 336.871913 565.193018 336.752382 
Q 565.014893 336.630507 564.780518 336.630507 
Q 564.405518 336.630507 563.871143 336.864882 
L 563.739893 336.600038 
L 567.393799 334.931288 
L 567.635205 334.931288 
z
M 575.362549 339.45707 
Q 576.410205 340.22582 576.815674 340.889101 
Q 577.223486 341.552382 577.223486 342.410195 
Q 577.223486 343.610195 576.318799 344.442226 
Q 575.414111 345.274257 573.862549 345.274257 
Q 572.390674 345.274257 571.584424 344.550038 
Q 570.778174 343.823476 570.778174 342.77582 
Q 570.778174 341.976601 571.242236 341.376601 
Q 571.708643 340.776601 572.791455 340.277382 
Q 571.612549 339.377382 571.279736 338.805507 
Q 570.946924 338.233632 570.946924 337.478945 
Q 570.946924 336.482851 571.793018 335.72582 
Q 572.639111 334.968788 574.110986 334.968788 
Q 575.531299 334.968788 576.295361 335.639101 
Q 577.061768 336.30707 577.061768 337.24457 
Q 577.061768 337.947695 576.646924 338.486757 
Q 576.234424 339.02582 575.362549 339.45707 
z
M 574.80708 339.084413 
Q 575.076611 338.718788 575.207861 338.264101 
Q 575.341455 337.809413 575.341455 337.268007 
Q 575.341455 336.316445 574.931299 335.810195 
Q 574.624268 335.421132 574.080518 335.421132 
Q 573.590674 335.421132 573.246143 335.777382 
Q 572.901611 336.131288 572.901611 336.658632 
Q 572.901611 337.195351 573.285986 337.76957 
Q 573.670361 338.343788 574.80708 339.084413 
z
M 573.342236 340.628945 
Q 573.114893 340.835195 573.018799 341.003945 
Q 572.873486 341.259413 572.756299 341.751601 
Q 572.639111 342.241445 572.639111 342.77582 
Q 572.639111 343.464882 572.814893 343.928945 
Q 572.990674 344.393007 573.316455 344.599257 
Q 573.642236 344.803163 573.986768 344.803163 
Q 574.521143 344.803163 574.886768 344.411757 
Q 575.252393 344.020351 575.252393 343.33832 
Q 575.252393 341.918007 573.342236 340.628945 
z
M 579.62583 342.810976 
Q 580.139111 342.810976 580.493018 343.171913 
Q 580.849268 343.530507 580.849268 344.034413 
Q 580.849268 344.540663 580.490674 344.896913 
Q 580.13208 345.25082 579.62583 345.25082 
Q 579.11958 345.25082 578.76333 344.896913 
Q 578.409424 344.540663 578.409424 344.034413 
Q 578.409424 343.530507 578.76333 343.171913 
Q 579.11958 342.810976 579.62583 342.810976 
z
M 587.711768 345.068007 
L 581.866455 345.068007 
L 581.866455 344.906288 
Q 584.554736 341.70707 585.128955 340.60082 
Q 585.705518 339.49457 585.705518 338.439882 
Q 585.705518 337.671132 585.229736 337.162538 
Q 584.753955 336.651601 584.064893 336.651601 
Q 582.937549 336.651601 582.314111 337.781288 
L 582.042236 337.685195 
Q 582.43833 336.278945 583.24458 335.606288 
Q 584.05083 334.931288 585.105518 334.931288 
Q 585.857861 334.931288 586.481299 335.282851 
Q 587.104736 335.634413 587.456299 336.246132 
Q 587.807861 336.857851 587.807861 337.392226 
Q 587.807861 338.367226 587.264111 339.370351 
Q 586.52583 340.725038 584.034424 343.148476 
L 586.181299 343.148476 
Q 586.971143 343.148476 587.210205 343.082851 
Q 587.449268 343.017226 587.601611 342.860195 
Q 587.756299 342.703163 588.004736 342.196913 
L 588.26958 342.196913 
L 587.711768 345.068007 
z
" style="fill: #404040"/>
   </g>
   <g id="text_31">
    <path d="M 537.055631 314.918474 
Q 537.055631 316.406755 536.638443 317.695818 
Q 536.387662 318.485662 535.965787 318.991912 
Q 535.546256 319.495818 535.011881 319.793474 
Q 534.477506 320.09113 533.847037 320.09113 
Q 533.12985 320.09113 532.550943 319.725505 
Q 531.972037 319.357537 531.524381 318.675505 
Q 531.203287 318.17863 530.961881 317.351287 
Q 530.645475 316.230974 530.645475 315.035662 
Q 530.645475 313.418474 531.100162 312.061443 
Q 531.472818 310.94113 532.234537 310.345818 
Q 532.996256 309.748162 533.847037 309.748162 
Q 534.711881 309.748162 535.461881 310.338787 
Q 536.211881 310.927068 536.563443 311.923162 
Q 537.055631 313.291912 537.055631 314.918474 
z
M 534.7986 314.904412 
Q 534.7986 312.295818 534.770475 311.864568 
Q 534.695475 310.84738 534.418912 310.488787 
Q 534.2361 310.254412 533.825943 310.254412 
Q 533.509537 310.254412 533.326725 310.430193 
Q 533.05485 310.685662 532.958756 311.33488 
Q 532.865006 311.981755 532.865006 315.855974 
Q 532.865006 317.965349 533.012662 318.682537 
Q 533.122818 319.202849 533.326725 319.37863 
Q 533.532975 319.554412 533.868131 319.554412 
Q 534.2361 319.554412 534.418912 319.320037 
Q 534.725943 318.90988 534.770475 318.054412 
L 534.7986 314.904412 
z
M 539.479068 317.627849 
Q 539.99235 317.627849 540.346256 317.988787 
Q 540.702506 318.34738 540.702506 318.851287 
Q 540.702506 319.357537 540.343912 319.713787 
Q 539.985318 320.067693 539.479068 320.067693 
Q 538.972818 320.067693 538.616568 319.713787 
Q 538.262662 319.357537 538.262662 318.851287 
Q 538.262662 318.34738 538.616568 317.988787 
Q 538.972818 317.627849 539.479068 317.627849 
z
M 544.011881 320.09113 
L 546.716568 311.895037 
L 544.656412 311.895037 
Q 543.449381 311.895037 542.840006 312.209099 
Q 542.415787 312.429412 542.136881 313.036443 
L 541.860318 313.036443 
L 542.577506 309.952068 
L 548.495475 309.952068 
L 545.162662 320.09113 
L 544.011881 320.09113 
z
" style="fill: #404040; stroke: #ffffff; stroke-width: 3.8"/>
    <path d="M 537.055631 314.918474 
Q 537.055631 316.406755 536.638443 317.695818 
Q 536.387662 318.485662 535.965787 318.991912 
Q 535.546256 319.495818 535.011881 319.793474 
Q 534.477506 320.09113 533.847037 320.09113 
Q 533.12985 320.09113 532.550943 319.725505 
Q 531.972037 319.357537 531.524381 318.675505 
Q 531.203287 318.17863 530.961881 317.351287 
Q 530.645475 316.230974 530.645475 315.035662 
Q 530.645475 313.418474 531.100162 312.061443 
Q 531.472818 310.94113 532.234537 310.345818 
Q 532.996256 309.748162 533.847037 309.748162 
Q 534.711881 309.748162 535.461881 310.338787 
Q 536.211881 310.927068 536.563443 311.923162 
Q 537.055631 313.291912 537.055631 314.918474 
z
M 534.7986 314.904412 
Q 534.7986 312.295818 534.770475 311.864568 
Q 534.695475 310.84738 534.418912 310.488787 
Q 534.2361 310.254412 533.825943 310.254412 
Q 533.509537 310.254412 533.326725 310.430193 
Q 533.05485 310.685662 532.958756 311.33488 
Q 532.865006 311.981755 532.865006 315.855974 
Q 532.865006 317.965349 533.012662 318.682537 
Q 533.122818 319.202849 533.326725 319.37863 
Q 533.532975 319.554412 533.868131 319.554412 
Q 534.2361 319.554412 534.418912 319.320037 
Q 534.725943 318.90988 534.770475 318.054412 
L 534.7986 314.904412 
z
M 539.479068 317.627849 
Q 539.99235 317.627849 540.346256 317.988787 
Q 540.702506 318.34738 540.702506 318.851287 
Q 540.702506 319.357537 540.343912 319.713787 
Q 539.985318 320.067693 539.479068 320.067693 
Q 538.972818 320.067693 538.616568 319.713787 
Q 538.262662 319.357537 538.262662 318.851287 
Q 538.262662 318.34738 538.616568 317.988787 
Q 538.972818 317.627849 539.479068 317.627849 
z
M 544.011881 320.09113 
L 546.716568 311.895037 
L 544.656412 311.895037 
Q 543.449381 311.895037 542.840006 312.209099 
Q 542.415787 312.429412 542.136881 313.036443 
L 541.860318 313.036443 
L 542.577506 309.952068 
L 548.495475 309.952068 
L 545.162662 320.09113 
L 544.011881 320.09113 
z
" style="fill: #404040"/>
   </g>
   <g id="text_32">
    <path d="M 325.782367 377.512694 
L 319.937054 377.512694 
L 319.937054 377.350975 
Q 322.625336 374.151757 323.199554 373.045507 
Q 323.776117 371.939257 323.776117 370.884569 
Q 323.776117 370.115819 323.300336 369.607225 
Q 322.824554 369.096288 322.135492 369.096288 
Q 321.008148 369.096288 320.384711 370.225975 
L 320.112836 370.129882 
Q 320.508929 368.723632 321.315179 368.050975 
Q 322.121429 367.375975 323.176117 367.375975 
Q 323.928461 367.375975 324.551898 367.727538 
Q 325.175336 368.0791 325.526898 368.690819 
Q 325.878461 369.302538 325.878461 369.836913 
Q 325.878461 370.811913 325.334711 371.815038 
Q 324.596429 373.169725 322.105023 375.593163 
L 324.251898 375.593163 
Q 325.041742 375.593163 325.280804 375.527538 
Q 325.519867 375.461913 325.672211 375.304882 
Q 325.826898 375.14785 326.075336 374.6416 
L 326.340179 374.6416 
L 325.782367 377.512694 
z
M 329.356586 367.579882 
L 334.006586 367.579882 
L 333.268304 369.471288 
L 329.356586 369.471288 
L 328.983929 370.46035 
Q 331.510492 370.5541 332.872211 371.718944 
Q 333.992523 372.677538 333.992523 374.107225 
Q 333.992523 375.021288 333.472211 375.89785 
Q 332.951898 376.772069 332.007367 377.245507 
Q 331.062836 377.718944 329.935492 377.718944 
Q 328.719086 377.718944 328.067523 377.264257 
Q 327.612836 376.940819 327.612836 376.530663 
Q 327.612836 376.2166 327.849554 375.975194 
Q 328.088617 375.733788 328.405023 375.733788 
Q 328.690961 375.733788 328.983929 375.850975 
Q 329.276898 375.968163 329.987054 376.465038 
Q 330.432367 376.772069 330.755804 376.889257 
Q 330.983148 376.978319 331.269086 376.978319 
Q 331.869086 376.978319 332.288617 376.540038 
Q 332.710492 376.099413 332.710492 375.483007 
Q 332.710492 374.193944 331.421429 373.390038 
Q 330.132367 372.583788 328.170648 372.583788 
Q 327.971429 372.583788 327.577679 372.590819 
L 329.356586 367.579882 
z
M 336.446429 375.255663 
Q 336.959711 375.255663 337.313617 375.6166 
Q 337.669867 375.975194 337.669867 376.4791 
Q 337.669867 376.98535 337.311273 377.3416 
Q 336.952679 377.695507 336.446429 377.695507 
Q 335.940179 377.695507 335.583929 377.3416 
Q 335.230023 376.98535 335.230023 376.4791 
Q 335.230023 375.975194 335.583929 375.6166 
Q 335.940179 375.255663 336.446429 375.255663 
z
M 340.606586 367.579882 
L 345.256586 367.579882 
L 344.518304 369.471288 
L 340.606586 369.471288 
L 340.233929 370.46035 
Q 342.760492 370.5541 344.122211 371.718944 
Q 345.242523 372.677538 345.242523 374.107225 
Q 345.242523 375.021288 344.722211 375.89785 
Q 344.201898 376.772069 343.257367 377.245507 
Q 342.312836 377.718944 341.185492 377.718944 
Q 339.969086 377.718944 339.317523 377.264257 
Q 338.862836 376.940819 338.862836 376.530663 
Q 338.862836 376.2166 339.099554 375.975194 
Q 339.338617 375.733788 339.655023 375.733788 
Q 339.940961 375.733788 340.233929 375.850975 
Q 340.526898 375.968163 341.237054 376.465038 
Q 341.682367 376.772069 342.005804 376.889257 
Q 342.233148 376.978319 342.519086 376.978319 
Q 343.119086 376.978319 343.538617 376.540038 
Q 343.960492 376.099413 343.960492 375.483007 
Q 343.960492 374.193944 342.671429 373.390038 
Q 341.382367 372.583788 339.420648 372.583788 
Q 339.221429 372.583788 338.827679 372.590819 
L 340.606586 367.579882 
z
" style="fill: #404040; stroke: #ffffff; stroke-width: 3.8"/>
    <path d="M 325.782367 377.512694 
L 319.937054 377.512694 
L 319.937054 377.350975 
Q 322.625336 374.151757 323.199554 373.045507 
Q 323.776117 371.939257 323.776117 370.884569 
Q 323.776117 370.115819 323.300336 369.607225 
Q 322.824554 369.096288 322.135492 369.096288 
Q 321.008148 369.096288 320.384711 370.225975 
L 320.112836 370.129882 
Q 320.508929 368.723632 321.315179 368.050975 
Q 322.121429 367.375975 323.176117 367.375975 
Q 323.928461 367.375975 324.551898 367.727538 
Q 325.175336 368.0791 325.526898 368.690819 
Q 325.878461 369.302538 325.878461 369.836913 
Q 325.878461 370.811913 325.334711 371.815038 
Q 324.596429 373.169725 322.105023 375.593163 
L 324.251898 375.593163 
Q 325.041742 375.593163 325.280804 375.527538 
Q 325.519867 375.461913 325.672211 375.304882 
Q 325.826898 375.14785 326.075336 374.6416 
L 326.340179 374.6416 
L 325.782367 377.512694 
z
M 329.356586 367.579882 
L 334.006586 367.579882 
L 333.268304 369.471288 
L 329.356586 369.471288 
L 328.983929 370.46035 
Q 331.510492 370.5541 332.872211 371.718944 
Q 333.992523 372.677538 333.992523 374.107225 
Q 333.992523 375.021288 333.472211 375.89785 
Q 332.951898 376.772069 332.007367 377.245507 
Q 331.062836 377.718944 329.935492 377.718944 
Q 328.719086 377.718944 328.067523 377.264257 
Q 327.612836 376.940819 327.612836 376.530663 
Q 327.612836 376.2166 327.849554 375.975194 
Q 328.088617 375.733788 328.405023 375.733788 
Q 328.690961 375.733788 328.983929 375.850975 
Q 329.276898 375.968163 329.987054 376.465038 
Q 330.432367 376.772069 330.755804 376.889257 
Q 330.983148 376.978319 331.269086 376.978319 
Q 331.869086 376.978319 332.288617 376.540038 
Q 332.710492 376.099413 332.710492 375.483007 
Q 332.710492 374.193944 331.421429 373.390038 
Q 330.132367 372.583788 328.170648 372.583788 
Q 327.971429 372.583788 327.577679 372.590819 
L 329.356586 367.579882 
z
M 336.446429 375.255663 
Q 336.959711 375.255663 337.313617 375.6166 
Q 337.669867 375.975194 337.669867 376.4791 
Q 337.669867 376.98535 337.311273 377.3416 
Q 336.952679 377.695507 336.446429 377.695507 
Q 335.940179 377.695507 335.583929 377.3416 
Q 335.230023 376.98535 335.230023 376.4791 
Q 335.230023 375.975194 335.583929 375.6166 
Q 335.940179 375.255663 336.446429 375.255663 
z
M 340.606586 367.579882 
L 345.256586 367.579882 
L 344.518304 369.471288 
L 340.606586 369.471288 
L 340.233929 370.46035 
Q 342.760492 370.5541 344.122211 371.718944 
Q 345.242523 372.677538 345.242523 374.107225 
Q 345.242523 375.021288 344.722211 375.89785 
Q 344.201898 376.772069 343.257367 377.245507 
Q 342.312836 377.718944 341.185492 377.718944 
Q 339.969086 377.718944 339.317523 377.264257 
Q 338.862836 376.940819 338.862836 376.530663 
Q 338.862836 376.2166 339.099554 375.975194 
Q 339.338617 375.733788 339.655023 375.733788 
Q 339.940961 375.733788 340.233929 375.850975 
Q 340.526898 375.968163 341.237054 376.465038 
Q 341.682367 376.772069 342.005804 376.889257 
Q 342.233148 376.978319 342.519086 376.978319 
Q 343.119086 376.978319 343.538617 376.540038 
Q 343.960492 376.099413 343.960492 375.483007 
Q 343.960492 374.193944 342.671429 373.390038 
Q 341.382367 372.583788 339.420648 372.583788 
Q 339.221429 372.583788 338.827679 372.590819 
L 340.606586 367.579882 
z
" style="fill: #404040"/>
   </g>
  </g>
 </g>
 <defs>
  <clipPath id="pb12aa6cade">
   <rect x="7.2" y="51.034687" width="730.764" height="432.018462"/>
  </clipPath>
 </defs>
</svg>
