<?xml version="1.0" encoding="utf-8" standalone="no"?>
<!DOCTYPE svg PUBLIC "-//W3C//DTD SVG 1.1//EN"
  "http://www.w3.org/Graphics/SVG/1.1/DTD/svg11.dtd">
<svg xmlns:xlink="http://www.w3.org/1999/xlink" width="745.164pt" height="496.162188pt" viewBox="0 0 745.164 496.162188" xmlns="http://www.w3.org/2000/svg" version="1.1">
 <metadata>
  <rdf:RDF xmlns:dc="http://purl.org/dc/elements/1.1/" xmlns:cc="http://creativecommons.org/ns#" xmlns:rdf="http://www.w3.org/1999/02/22-rdf-syntax-ns#">
   <cc:Work>
    <dc:type rdf:resource="http://purl.org/dc/dcmitype/StillImage"/>
    <dc:date>2026-07-13T16:59:00.950471</dc:date>
    <dc:format>image/svg+xml</dc:format>
    <dc:creator>
     <cc:Agent>
      <dc:title>Matplotlib v3.10.8, https://matplotlib.org/</dc:title>
     </cc:Agent>
    </dc:creator>
   </cc:Work>
  </rdf:RDF>
 </metadata>
 <defs>
  <style type="text/css">*{stroke-linejoin: round; stroke-linecap: butt}</style>
 </defs>
 <g id="figure_1">
  <g id="patch_1">
   <path d="M 0 496.162188 
L 745.164 496.162188 
L 745.164 0 
L 0 0 
L 0 496.162188 
z
" style="fill: none"/>
  </g>
  <g id="axes_1">
   <g id="patch_2">
    <path d="M 120.350555 456.947298 
Q 120.350555 467.917204 120.350555 476.144793 
" clip-path="url(#p5648d490d2)" style="fill: none; stroke: #111111; stroke-width: 2.452802; stroke-linejoin: miter; stroke-linecap: round"/>
    <path d="M 124.079451 468.687 
L 120.350555 476.144793 
L 116.621658 468.687 
z
" clip-path="url(#p5648d490d2)" style="fill: #111111; stroke: #111111; stroke-width: 2.452802; stroke-linejoin: miter; stroke-linecap: round"/>
   </g>
   <g id="patch_3">
    <path d="M 120.350555 397.835076 
Q 120.350555 413.393402 120.350555 425.09421 
" clip-path="url(#p5648d490d2)" style="fill: none; stroke: #111111; stroke-width: 3.45027; stroke-linejoin: miter; stroke-linecap: round"/>
    <path d="M 124.398641 416.998037 
L 120.350555 425.09421 
L 116.302468 416.998037 
z
" clip-path="url(#p5648d490d2)" style="fill: #111111; stroke: #111111; stroke-width: 3.45027; stroke-linejoin: miter; stroke-linecap: round"/>
   </g>
   <g id="patch_4">
    <path d="M 120.350555 320.70296 
Q 120.350555 340.682812 120.350555 355.977754 
" clip-path="url(#p5648d490d2)" style="fill: none; stroke: #111111; stroke-width: 4.190311; stroke-linejoin: miter; stroke-linecap: round"/>
    <path d="M 124.635454 347.407955 
L 120.350555 355.977754 
L 116.065655 347.407955 
z
" clip-path="url(#p5648d490d2)" style="fill: #111111; stroke: #111111; stroke-width: 4.190311; stroke-linejoin: miter; stroke-linecap: round"/>
   </g>
   <g id="patch_5">
    <path d="M 370.224697 280.899685 
Q 370.224697 302.039922 370.224697 321.246969 
" clip-path="url(#p5648d490d2)" style="fill: none; stroke: #111111; stroke-width: 1.729098; stroke-linejoin: miter; stroke-linecap: round"/>
    <path d="M 373.722008 314.252346 
L 370.224697 321.246969 
L 366.727385 314.252346 
z
" clip-path="url(#p5648d490d2)" style="fill: #111111; stroke: #111111; stroke-width: 1.729098; stroke-linejoin: miter; stroke-linecap: round"/>
   </g>
   <g id="patch_6">
    <path d="M 370.224697 197.130887 
Q 370.224697 214.84717 370.224697 230.403614 
" clip-path="url(#p5648d490d2)" style="fill: none; stroke: #111111; stroke-width: 1.931818; stroke-linejoin: miter; stroke-linecap: round"/>
    <path d="M 373.786879 223.27925 
L 370.224697 230.403614 
L 366.662515 223.27925 
z
" clip-path="url(#p5648d490d2)" style="fill: #111111; stroke: #111111; stroke-width: 1.931818; stroke-linejoin: miter; stroke-linecap: round"/>
   </g>
   <g id="patch_7">
    <path d="M 370.224697 118.766458 
Q 370.224697 137.204511 370.224697 149.157967 
" clip-path="url(#p5648d490d2)" style="fill: none; stroke: #111111; stroke-width: 5.8; stroke-linejoin: miter; stroke-linecap: round"/>
    <path d="M 375.024697 139.557967 
L 370.224697 149.157967 
L 365.424697 139.557967 
z
" clip-path="url(#p5648d490d2)" style="fill: #111111; stroke: #111111; stroke-width: 5.8; stroke-linejoin: miter; stroke-linecap: round"/>
   </g>
   <g id="patch_8">
    <path d="M 586.153672 331.680765 
Q 586.153672 351.686798 586.153672 368.354066 
" clip-path="url(#p5648d490d2)" style="fill: none; stroke: #111111; stroke-width: 2.986284; stroke-linejoin: miter; stroke-linecap: round"/>
    <path d="M 590.053283 360.554844 
L 586.153672 368.354066 
L 582.254062 360.554844 
z
" clip-path="url(#p5648d490d2)" style="fill: #111111; stroke: #111111; stroke-width: 2.986284; stroke-linejoin: miter; stroke-linecap: round"/>
   </g>
   <g id="line2d_1">
    <path d="M 165.610777 478.887109 
L 550.322663 478.887109 
" clip-path="url(#p5648d490d2)" style="fill: none; stroke-dasharray: 5.6,4.2; stroke-dashoffset: 0; stroke: #404040; stroke-width: 1.4"/>
   </g>
   <g id="line2d_2">
    <path d="M 165.610777 428.951729 
L 550.322663 428.951729 
" clip-path="url(#p5648d490d2)" style="fill: none; stroke-dasharray: 5.6,4.2; stroke-dashoffset: 0; stroke: #404040; stroke-width: 1.4"/>
   </g>
   <g id="line2d_3">
    <path d="M 574.838617 371.692832 
L 503.176599 371.692832 
" clip-path="url(#p5648d490d2)" style="fill: none; stroke-dasharray: 5.6,4.2; stroke-dashoffset: 0; stroke: #404040; stroke-width: 1.4"/>
   </g>
   <g id="patch_9">
    <path d="M 665.359061 371.692832 
Q 585.086948 423.660041 505.600842 475.118398 
" clip-path="url(#p5648d490d2)" style="fill: none; stroke: #404040; stroke-width: 0.837489; stroke-linejoin: miter; stroke-linecap: round"/>
    <path d="M 511.851149 474.422452 
L 505.600842 475.118398 
L 508.794269 469.700585 
z
" clip-path="url(#p5648d490d2)" style="fill: #404040; stroke: #404040; stroke-width: 0.837489; stroke-linejoin: miter; stroke-linecap: round"/>
   </g>
   <g id="patch_10">
    <path d="M 620.098839 371.692832 
Q 578.395494 398.69108 539.527361 423.853846 
" clip-path="url(#p5648d490d2)" style="fill: none; stroke: #404040; stroke-width: 3.020916; stroke-linejoin: miter; stroke-linecap: round"/>
    <path d="M 547.395103 422.977804 
L 539.527361 423.853846 
L 543.547172 417.034028 
z
" clip-path="url(#p5648d490d2)" style="fill: #404040; stroke: #404040; stroke-width: 3.020916; stroke-linejoin: miter; stroke-linecap: round"/>
   </g>
   <g id="patch_11">
    <path d="M 415.484919 323.18016 
Q 477.302238 346.381647 534.567638 367.874693 
" clip-path="url(#p5648d490d2)" style="fill: none; stroke: #404040; stroke-width: 4.348678; stroke-linejoin: miter; stroke-linecap: round"/>
    <path d="M 528.509378 361.346702 
L 534.567638 367.874693 
L 525.71029 368.804506 
z
" clip-path="url(#p5648d490d2)" style="fill: #404040; stroke: #404040; stroke-width: 4.348678; stroke-linejoin: miter; stroke-linecap: round"/>
   </g>
   <g id="patch_12">
    <path d="M 370.224697 323.18016 
Q 334.431516 373.620816 299.187944 423.286951 
" clip-path="url(#p5648d490d2)" style="fill: none; stroke: #404040; stroke-width: 0.849449; stroke-linejoin: miter; stroke-linecap: round"/>
    <path d="M 304.744735 420.323008 
L 299.187944 423.286951 
L 300.150864 417.063152 
z
" clip-path="url(#p5648d490d2)" style="fill: #404040; stroke: #404040; stroke-width: 0.849449; stroke-linejoin: miter; stroke-linecap: round"/>
   </g>
   <g id="line2d_4">
    <path d="M 120.350555 428.951729 
L 120.350555 450.891541 
" clip-path="url(#p5648d490d2)" style="fill: none; stroke: #111111; stroke-width: 2.452802"/>
   </g>
   <g id="line2d_5">
    <path d="M 120.350555 360.662665 
L 120.350555 391.779318 
" clip-path="url(#p5648d490d2)" style="fill: none; stroke: #111111; stroke-width: 3.45027"/>
   </g>
   <g id="line2d_6">
    <path d="M 120.350555 274.687498 
L 120.350555 314.647203 
" clip-path="url(#p5648d490d2)" style="fill: none; stroke: #111111; stroke-width: 4.190311"/>
   </g>
   <g id="line2d_7">
    <path d="M 370.224697 232.563452 
L 370.224697 274.843927 
" clip-path="url(#p5648d490d2)" style="fill: none; stroke: #111111; stroke-width: 1.729098"/>
   </g>
   <g id="line2d_8">
    <path d="M 370.224697 155.642564 
L 370.224697 191.07513 
" clip-path="url(#p5648d490d2)" style="fill: none; stroke: #111111; stroke-width: 1.931818"/>
   </g>
   <g id="line2d_9">
    <path d="M 370.224697 75.834594 
L 370.224697 112.7107 
" clip-path="url(#p5648d490d2)" style="fill: none; stroke: #111111; stroke-width: 5.8"/>
   </g>
   <g id="line2d_10">
    <path d="M 586.153672 285.61294 
L 586.153672 325.625007 
" clip-path="url(#p5648d490d2)" style="fill: none; stroke: #111111; stroke-width: 2.986284"/>
   </g>
   <g id="line2d_11">
    <path d="M 75.090333 478.887109 
L 165.610777 478.887109 
" clip-path="url(#p5648d490d2)" style="fill: none; stroke: #111111; stroke-width: 3.6; stroke-linecap: round"/>
   </g>
   <g id="line2d_12">
    <path d="M 75.090333 428.951729 
L 165.610777 428.951729 
" clip-path="url(#p5648d490d2)" style="fill: none; stroke: #111111; stroke-width: 3.6; stroke-linecap: round"/>
   </g>
   <g id="line2d_13">
    <path d="M 75.090333 360.662665 
L 165.610777 360.662665 
" clip-path="url(#p5648d490d2)" style="fill: none; stroke: #111111; stroke-width: 3.6; stroke-linecap: round"/>
   </g>
   <g id="line2d_14">
    <path d="M 75.090333 274.687498 
L 165.610777 274.687498 
" clip-path="url(#p5648d490d2)" style="fill: none; stroke: #111111; stroke-width: 3.6; stroke-linecap: round"/>
   </g>
   <g id="line2d_15">
    <path d="M 324.964475 323.18016 
L 415.484919 323.18016 
" clip-path="url(#p5648d490d2)" style="fill: none; stroke: #111111; stroke-width: 3.6; stroke-linecap: round"/>
   </g>
   <g id="line2d_16">
    <path d="M 324.964475 232.563452 
L 415.484919 232.563452 
" clip-path="url(#p5648d490d2)" style="fill: none; stroke: #111111; stroke-width: 3.6; stroke-linecap: round"/>
   </g>
   <g id="line2d_17">
    <path d="M 324.964475 155.642564 
L 415.484919 155.642564 
" clip-path="url(#p5648d490d2)" style="fill: none; stroke: #111111; stroke-width: 3.6; stroke-linecap: round"/>
   </g>
   <g id="line2d_18">
    <path d="M 324.964475 75.834594 
L 415.484919 75.834594 
" clip-path="url(#p5648d490d2)" style="fill: none; stroke: #111111; stroke-width: 3.6; stroke-linecap: round"/>
   </g>
   <g id="line2d_19">
    <path d="M 574.838617 371.692832 
L 665.359061 371.692832 
" clip-path="url(#p5648d490d2)" style="fill: none; stroke: #111111; stroke-width: 3.6; stroke-linecap: round"/>
   </g>
   <g id="line2d_20">
    <path d="M 574.838617 285.61294 
L 665.359061 285.61294 
" clip-path="url(#p5648d490d2)" style="fill: none; stroke: #111111; stroke-width: 3.6; stroke-linecap: round"/>
   </g>
   <g id="text_1">
    <!-- $^{122}\mathrm{Se}$ -->
    <g transform="translate(327.872 33.034687) scale(0.34 -0.34)">
     <defs>
      <path id="DejaVuSans-31" d="M 794 531 
L 1825 531 
L 1825 4091 
L 703 3866 
L 703 4441 
L 1819 4666 
L 2450 4666 
L 2450 531 
L 3481 531 
L 3481 0 
L 794 0 
L 794 531 
z
" transform="scale(0.015625)"/>
      <path id="DejaVuSans-32" d="M 1228 531 
L 3431 531 
L 3431 0 
L 469 0 
L 469 531 
Q 828 903 1448 1529 
Q 2069 2156 2228 2338 
Q 2531 2678 2651 2914 
Q 2772 3150 2772 3378 
Q 2772 3750 2511 3984 
Q 2250 4219 1831 4219 
Q 1534 4219 1204 4116 
Q 875 4013 500 3803 
L 500 4441 
Q 881 4594 1212 4672 
Q 1544 4750 1819 4750 
Q 2544 4750 2975 4387 
Q 3406 4025 3406 3419 
Q 3406 3131 3298 2873 
Q 3191 2616 2906 2266 
Q 2828 2175 2409 1742 
Q 1991 1309 1228 531 
z
" transform="scale(0.015625)"/>
      <path id="DejaVuSans-53" d="M 3425 4513 
L 3425 3897 
Q 3066 4069 2747 4153 
Q 2428 4238 2131 4238 
Q 1616 4238 1336 4038 
Q 1056 3838 1056 3469 
Q 1056 3159 1242 3001 
Q 1428 2844 1947 2747 
L 2328 2669 
Q 3034 2534 3370 2195 
Q 3706 1856 3706 1288 
Q 3706 609 3251 259 
Q 2797 -91 1919 -91 
Q 1588 -91 1214 -16 
Q 841 59 441 206 
L 441 856 
Q 825 641 1194 531 
Q 1563 422 1919 422 
Q 2459 422 2753 634 
Q 3047 847 3047 1241 
Q 3047 1584 2836 1778 
Q 2625 1972 2144 2069 
L 1759 2144 
Q 1053 2284 737 2584 
Q 422 2884 422 3419 
Q 422 4038 858 4394 
Q 1294 4750 2059 4750 
Q 2388 4750 2728 4690 
Q 3069 4631 3425 4513 
z
" transform="scale(0.015625)"/>
      <path id="DejaVuSans-65" d="M 3597 1894 
L 3597 1613 
L 953 1613 
Q 991 1019 1311 708 
Q 1631 397 2203 397 
Q 2534 397 2845 478 
Q 3156 559 3463 722 
L 3463 178 
Q 3153 47 2828 -22 
Q 2503 -91 2169 -91 
Q 1331 -91 842 396 
Q 353 884 353 1716 
Q 353 2575 817 3079 
Q 1281 3584 2069 3584 
Q 2775 3584 3186 3129 
Q 3597 2675 3597 1894 
z
M 3022 2063 
Q 3016 2534 2758 2815 
Q 2500 3097 2075 3097 
Q 1594 3097 1305 2825 
Q 1016 2553 972 2059 
L 3022 2063 
z
" transform="scale(0.015625)"/>
     </defs>
     <use xlink:href="#DejaVuSans-31" transform="translate(0.957031 39.046875) scale(0.7)"/>
     <use xlink:href="#DejaVuSans-32" transform="translate(45.493164 39.046875) scale(0.7)"/>
     <use xlink:href="#DejaVuSans-32" transform="translate(90.029297 39.046875) scale(0.7)"/>
     <use xlink:href="#DejaVuSans-53" transform="translate(137.299805 0.765625)"/>
     <use xlink:href="#DejaVuSans-65" transform="translate(200.776367 0.765625)"/>
    </g>
   </g>
   <g id="text_2">
    <!-- 0 -->
    <g transform="translate(46.98525 483.302109) scale(0.16 -0.16)">
     <defs>
      <path id="DejaVuSans-BoldOblique-30" d="M 1913 728 
Q 2153 728 2339 872 
Q 2525 1016 2650 1294 
Q 2738 1491 2809 1742 
Q 2881 1994 2944 2338 
Q 2997 2616 3025 2850 
Q 3053 3084 3053 3250 
Q 3053 3600 2928 3764 
Q 2803 3928 2541 3928 
Q 2297 3928 2112 3789 
Q 1928 3650 1806 3366 
Q 1713 3163 1636 2903 
Q 1559 2644 1503 2338 
Q 1450 2056 1422 1815 
Q 1394 1575 1394 1409 
Q 1394 1063 1522 895 
Q 1650 728 1913 728 
z
M 4225 3072 
Q 4225 2450 4053 1862 
Q 3881 1275 3572 831 
Q 3256 375 2809 142 
Q 2363 -91 1813 -91 
Q 1047 -91 639 343 
Q 231 778 231 1594 
Q 231 2206 401 2795 
Q 572 3384 878 3822 
Q 1200 4281 1644 4515 
Q 2088 4750 2644 4750 
Q 3403 4750 3814 4314 
Q 4225 3878 4225 3072 
z
" transform="scale(0.015625)"/>
     </defs>
     <use xlink:href="#DejaVuSans-BoldOblique-30"/>
    </g>
   </g>
   <g id="text_3">
    <!-- 0⁺ -->
    <g transform="translate(182.58336 484.042344) scale(0.23 -0.23)">
     <defs>
      <path id="TimesNewRomanPS-BoldMT-30" d="M 2966 2119 
Q 2966 1484 2788 934 
Q 2681 597 2501 381 
Q 2322 166 2094 39 
Q 1866 -88 1597 -88 
Q 1291 -88 1044 68 
Q 797 225 606 516 
Q 469 728 366 1081 
Q 231 1559 231 2069 
Q 231 2759 425 3338 
Q 584 3816 909 4070 
Q 1234 4325 1597 4325 
Q 1966 4325 2286 4073 
Q 2606 3822 2756 3397 
Q 2966 2813 2966 2119 
z
M 2003 2125 
Q 2003 3238 1991 3422 
Q 1959 3856 1841 4009 
Q 1763 4109 1588 4109 
Q 1453 4109 1375 4034 
Q 1259 3925 1218 3648 
Q 1178 3372 1178 1719 
Q 1178 819 1241 513 
Q 1288 291 1375 216 
Q 1463 141 1606 141 
Q 1763 141 1841 241 
Q 1972 416 1991 781 
L 2003 2125 
z
" transform="scale(0.015625)"/>
      <path id="DejaVuSerif-Bold-207a" d="M 1916 4344 
L 1916 3441 
L 2950 3441 
L 2950 3044 
L 1916 3044 
L 1916 2141 
L 1463 2141 
L 1463 3044 
L 428 3044 
L 428 3441 
L 1463 3441 
L 1463 4344 
L 1916 4344 
z
" transform="scale(0.015625)"/>
     </defs>
     <use xlink:href="#TimesNewRomanPS-BoldMT-30"/>
     <use xlink:href="#DejaVuSerif-Bold-207a" transform="translate(50 0)"/>
    </g>
   </g>
   <g id="text_4">
    <!-- 759 -->
    <g transform="translate(24.72025 433.366729) scale(0.16 -0.16)">
     <defs>
      <path id="DejaVuSans-BoldOblique-37" d="M 922 4666 
L 4441 4666 
L 4300 3981 
L 1703 0 
L 500 0 
L 2969 3781 
L 756 3781 
L 922 4666 
z
" transform="scale(0.015625)"/>
      <path id="DejaVuSans-BoldOblique-35" d="M 1131 4666 
L 4122 4666 
L 3950 3781 
L 1919 3781 
L 1778 3059 
Q 1916 3097 2064 3117 
Q 2213 3138 2363 3138 
Q 3078 3138 3481 2811 
Q 3884 2484 3884 1906 
Q 3884 988 3262 448 
Q 2641 -91 1575 -91 
Q 1184 -91 815 -14 
Q 447 63 84 219 
L 269 1166 
Q 616 941 942 834 
Q 1269 728 1606 728 
Q 2100 728 2397 986 
Q 2694 1244 2694 1663 
Q 2694 1963 2469 2139 
Q 2244 2316 1856 2316 
Q 1594 2316 1289 2248 
Q 984 2181 622 2041 
L 1131 4666 
z
" transform="scale(0.015625)"/>
      <path id="DejaVuSans-BoldOblique-39" d="M 263 103 
L 428 966 
Q 700 825 953 758 
Q 1206 691 1459 691 
Q 2041 691 2400 1003 
Q 2759 1316 2834 1881 
Q 2594 1722 2337 1645 
Q 2081 1569 1791 1569 
Q 1219 1569 853 1909 
Q 488 2250 488 2778 
Q 488 3641 1052 4192 
Q 1616 4744 2503 4744 
Q 3300 4744 3736 4292 
Q 4172 3841 4172 3016 
Q 4172 2381 3978 1801 
Q 3784 1222 3431 800 
Q 3056 353 2548 128 
Q 2041 -97 1403 -97 
Q 1106 -97 825 -47 
Q 544 3 263 103 
z
M 2169 2344 
Q 2525 2344 2753 2637 
Q 2981 2931 2981 3391 
Q 2981 3675 2845 3828 
Q 2709 3981 2456 3981 
Q 2103 3981 1870 3690 
Q 1638 3400 1638 2963 
Q 1638 2663 1775 2503 
Q 1913 2344 2169 2344 
z
" transform="scale(0.015625)"/>
     </defs>
     <use xlink:href="#DejaVuSans-BoldOblique-37"/>
     <use xlink:href="#DejaVuSans-BoldOblique-35" transform="translate(69.580078 0)"/>
     <use xlink:href="#DejaVuSans-BoldOblique-39" transform="translate(139.160156 0)"/>
    </g>
   </g>
   <g id="text_5">
    <!-- 2⁺ -->
    <g transform="translate(182.58336 434.106964) scale(0.23 -0.23)">
     <defs>
      <path id="TimesNewRomanPS-BoldMT-32" d="M 2650 0 
L 156 0 
L 156 69 
Q 1303 1434 1548 1906 
Q 1794 2378 1794 2828 
Q 1794 3156 1591 3373 
Q 1388 3591 1094 3591 
Q 613 3591 347 3109 
L 231 3150 
Q 400 3750 744 4037 
Q 1088 4325 1538 4325 
Q 1859 4325 2125 4175 
Q 2391 4025 2541 3764 
Q 2691 3503 2691 3275 
Q 2691 2859 2459 2431 
Q 2144 1853 1081 819 
L 1997 819 
Q 2334 819 2436 847 
Q 2538 875 2603 942 
Q 2669 1009 2775 1225 
L 2888 1225 
L 2650 0 
z
" transform="scale(0.015625)"/>
     </defs>
     <use xlink:href="#TimesNewRomanPS-BoldMT-32"/>
     <use xlink:href="#DejaVuSerif-Bold-207a" transform="translate(50 0)"/>
    </g>
   </g>
   <g id="text_6">
    <!-- 1796 -->
    <g transform="translate(13.58775 365.077665) scale(0.16 -0.16)">
     <defs>
      <path id="DejaVuSans-BoldOblique-31" d="M 441 831 
L 1503 831 
L 2088 3847 
L 953 3622 
L 1113 4441 
L 2241 4666 
L 3384 4666 
L 2644 831 
L 3700 831 
L 3541 0 
L 275 0 
L 441 831 
z
" transform="scale(0.015625)"/>
      <path id="DejaVuSans-BoldOblique-36" d="M 2316 2303 
Q 1959 2303 1731 2009 
Q 1503 1716 1503 1253 
Q 1503 975 1643 820 
Q 1784 666 2034 666 
Q 2388 666 2617 955 
Q 2847 1244 2847 1684 
Q 2847 1984 2709 2143 
Q 2572 2303 2316 2303 
z
M 4225 4544 
L 4056 3681 
Q 3788 3819 3534 3887 
Q 3281 3956 3028 3956 
Q 2447 3956 2087 3643 
Q 1728 3331 1650 2766 
Q 1894 2925 2151 3001 
Q 2409 3078 2700 3078 
Q 3275 3078 3640 2737 
Q 4006 2397 4006 1869 
Q 4006 1006 3442 454 
Q 2878 -97 1991 -97 
Q 1194 -97 756 354 
Q 319 806 319 1631 
Q 319 2269 512 2848 
Q 706 3428 1056 3847 
Q 1431 4294 1942 4519 
Q 2453 4744 3091 4744 
Q 3384 4744 3662 4694 
Q 3941 4644 4225 4544 
z
" transform="scale(0.015625)"/>
     </defs>
     <use xlink:href="#DejaVuSans-BoldOblique-31"/>
     <use xlink:href="#DejaVuSans-BoldOblique-37" transform="translate(69.580078 0)"/>
     <use xlink:href="#DejaVuSans-BoldOblique-39" transform="translate(139.160156 0)"/>
     <use xlink:href="#DejaVuSans-BoldOblique-36" transform="translate(208.740234 0)"/>
    </g>
   </g>
   <g id="text_7">
    <!-- 4⁺ -->
    <g transform="translate(182.58336 365.817899) scale(0.23 -0.23)">
     <defs>
      <path id="TimesNewRomanPS-BoldMT-34" d="M 159 1597 
L 2172 4325 
L 2553 4325 
L 2553 1597 
L 2941 1597 
L 2941 950 
L 2553 950 
L 2553 0 
L 1694 0 
L 1694 950 
L 159 950 
L 159 1597 
z
M 463 1597 
L 1694 1597 
L 1694 3269 
L 463 1597 
z
" transform="scale(0.015625)"/>
     </defs>
     <use xlink:href="#TimesNewRomanPS-BoldMT-34"/>
     <use xlink:href="#DejaVuSerif-Bold-207a" transform="translate(50 0)"/>
    </g>
   </g>
   <g id="text_8">
    <!-- 3102 -->
    <g transform="translate(13.58775 279.102498) scale(0.16 -0.16)">
     <defs>
      <path id="DejaVuSans-BoldOblique-33" d="M 3022 2516 
Q 3375 2434 3572 2187 
Q 3769 1941 3769 1581 
Q 3769 806 3155 357 
Q 2541 -91 1466 -91 
Q 1059 -91 692 -33 
Q 325 25 0 141 
L 178 1069 
Q 456 906 784 817 
Q 1113 728 1441 728 
Q 1969 728 2276 926 
Q 2584 1125 2584 1459 
Q 2584 1738 2350 1877 
Q 2116 2016 1644 2016 
L 1166 2016 
L 1319 2791 
L 1825 2791 
Q 2316 2791 2602 2969 
Q 2888 3147 2888 3450 
Q 2888 3688 2689 3813 
Q 2491 3938 2113 3938 
Q 1847 3938 1534 3869 
Q 1222 3800 884 3669 
L 1056 4550 
Q 1425 4650 1783 4700 
Q 2141 4750 2491 4750 
Q 3281 4750 3679 4487 
Q 4078 4225 4078 3706 
Q 4078 3241 3801 2930 
Q 3525 2619 3022 2516 
z
" transform="scale(0.015625)"/>
      <path id="DejaVuSans-BoldOblique-32" d="M 1581 884 
L 3609 884 
L 3438 0 
L 50 0 
L 225 891 
L 2209 2388 
Q 2534 2638 2704 2894 
Q 2875 3150 2875 3391 
Q 2875 3647 2700 3787 
Q 2525 3928 2209 3928 
Q 1913 3928 1547 3811 
Q 1181 3694 722 3450 
L 922 4441 
Q 1347 4597 1756 4673 
Q 2166 4750 2566 4750 
Q 3278 4750 3687 4442 
Q 4097 4134 4097 3603 
Q 4097 3147 3847 2772 
Q 3597 2397 2747 1759 
L 1581 884 
z
" transform="scale(0.015625)"/>
     </defs>
     <use xlink:href="#DejaVuSans-BoldOblique-33"/>
     <use xlink:href="#DejaVuSans-BoldOblique-31" transform="translate(69.580078 0)"/>
     <use xlink:href="#DejaVuSans-BoldOblique-30" transform="translate(139.160156 0)"/>
     <use xlink:href="#DejaVuSans-BoldOblique-32" transform="translate(208.740234 0)"/>
    </g>
   </g>
   <g id="text_9">
    <!-- 6⁺ -->
    <g transform="translate(182.58336 279.842732) scale(0.23 -0.23)">
     <defs>
      <path id="TimesNewRomanPS-BoldMT-36" d="M 3006 4325 
L 3006 4238 
Q 2441 4094 2098 3867 
Q 1756 3641 1557 3317 
Q 1359 2994 1250 2516 
Q 1388 2609 1478 2638 
Q 1681 2700 1888 2700 
Q 2363 2700 2680 2354 
Q 2997 2009 2997 1413 
Q 2997 994 2825 644 
Q 2653 294 2337 103 
Q 2022 -88 1663 -88 
Q 1272 -88 940 126 
Q 609 341 423 753 
Q 238 1166 238 1650 
Q 238 2363 580 2977 
Q 922 3591 1551 3955 
Q 2181 4319 3006 4325 
z
M 1209 2263 
Q 1184 1831 1184 1631 
Q 1184 1200 1267 797 
Q 1350 394 1494 231 
Q 1597 116 1738 116 
Q 1881 116 1993 283 
Q 2106 450 2106 963 
Q 2106 1825 1897 2153 
Q 1763 2366 1534 2366 
Q 1409 2366 1209 2263 
z
" transform="scale(0.015625)"/>
     </defs>
     <use xlink:href="#TimesNewRomanPS-BoldMT-36"/>
     <use xlink:href="#DejaVuSerif-Bold-207a" transform="translate(50 0)"/>
    </g>
   </g>
   <g id="text_10">
    <!-- 2366 -->
    <g transform="translate(263.461892 327.59516) scale(0.16 -0.16)">
     <use xlink:href="#DejaVuSans-BoldOblique-32"/>
     <use xlink:href="#DejaVuSans-BoldOblique-33" transform="translate(69.580078 0)"/>
     <use xlink:href="#DejaVuSans-BoldOblique-36" transform="translate(139.160156 0)"/>
     <use xlink:href="#DejaVuSans-BoldOblique-36" transform="translate(208.740234 0)"/>
    </g>
   </g>
   <g id="text_11">
    <!-- 0⁺ -->
    <g transform="translate(432.457502 328.335394) scale(0.23 -0.23)">
     <use xlink:href="#TimesNewRomanPS-BoldMT-30"/>
     <use xlink:href="#DejaVuSerif-Bold-207a" transform="translate(50 0)"/>
    </g>
   </g>
   <g id="text_12">
    <!-- 3742 -->
    <g transform="translate(263.461892 236.978452) scale(0.16 -0.16)">
     <defs>
      <path id="DejaVuSans-BoldOblique-34" d="M 2638 3641 
L 978 1722 
L 2259 1722 
L 2638 3641 
z
M 2606 4666 
L 3975 4666 
L 3397 1722 
L 4063 1722 
L 3897 850 
L 3231 850 
L 3066 0 
L 1925 0 
L 2094 850 
L -6 850 
L 197 1881 
L 2606 4666 
z
" transform="scale(0.015625)"/>
     </defs>
     <use xlink:href="#DejaVuSans-BoldOblique-33"/>
     <use xlink:href="#DejaVuSans-BoldOblique-37" transform="translate(69.580078 0)"/>
     <use xlink:href="#DejaVuSans-BoldOblique-34" transform="translate(139.160156 0)"/>
     <use xlink:href="#DejaVuSans-BoldOblique-32" transform="translate(208.740234 0)"/>
    </g>
   </g>
   <g id="text_13">
    <!-- 2⁺ -->
    <g transform="translate(432.457502 237.718687) scale(0.23 -0.23)">
     <use xlink:href="#TimesNewRomanPS-BoldMT-32"/>
     <use xlink:href="#DejaVuSerif-Bold-207a" transform="translate(50 0)"/>
    </g>
   </g>
   <g id="text_14">
    <!-- 4911 -->
    <g transform="translate(263.461892 160.057564) scale(0.16 -0.16)">
     <use xlink:href="#DejaVuSans-BoldOblique-34"/>
     <use xlink:href="#DejaVuSans-BoldOblique-39" transform="translate(69.580078 0)"/>
     <use xlink:href="#DejaVuSans-BoldOblique-31" transform="translate(139.160156 0)"/>
     <use xlink:href="#DejaVuSans-BoldOblique-31" transform="translate(208.740234 0)"/>
    </g>
   </g>
   <g id="text_15">
    <!-- 4⁺ -->
    <g transform="translate(432.457502 160.797799) scale(0.23 -0.23)">
     <use xlink:href="#TimesNewRomanPS-BoldMT-34"/>
     <use xlink:href="#DejaVuSerif-Bold-207a" transform="translate(50 0)"/>
    </g>
   </g>
   <g id="text_16">
    <!-- 6123 -->
    <g transform="translate(263.461892 80.249594) scale(0.16 -0.16)">
     <use xlink:href="#DejaVuSans-BoldOblique-36"/>
     <use xlink:href="#DejaVuSans-BoldOblique-31" transform="translate(69.580078 0)"/>
     <use xlink:href="#DejaVuSans-BoldOblique-32" transform="translate(139.160156 0)"/>
     <use xlink:href="#DejaVuSans-BoldOblique-33" transform="translate(208.740234 0)"/>
    </g>
   </g>
   <g id="text_17">
    <!-- 6⁺ -->
    <g transform="translate(432.457502 80.989828) scale(0.23 -0.23)">
     <use xlink:href="#TimesNewRomanPS-BoldMT-36"/>
     <use xlink:href="#DejaVuSerif-Bold-207a" transform="translate(50 0)"/>
    </g>
   </g>
   <g id="text_18">
    <!-- 1629 -->
    <g transform="translate(513.336034 376.107832) scale(0.16 -0.16)">
     <use xlink:href="#DejaVuSans-BoldOblique-31"/>
     <use xlink:href="#DejaVuSans-BoldOblique-36" transform="translate(69.580078 0)"/>
     <use xlink:href="#DejaVuSans-BoldOblique-32" transform="translate(139.160156 0)"/>
     <use xlink:href="#DejaVuSans-BoldOblique-39" transform="translate(208.740234 0)"/>
    </g>
   </g>
   <g id="text_19">
    <!-- 2⁺ -->
    <g transform="translate(682.331644 376.848066) scale(0.23 -0.23)">
     <use xlink:href="#TimesNewRomanPS-BoldMT-32"/>
     <use xlink:href="#DejaVuSerif-Bold-207a" transform="translate(50 0)"/>
    </g>
   </g>
   <g id="text_20">
    <!-- 2936 -->
    <g transform="translate(513.336034 290.02794) scale(0.16 -0.16)">
     <use xlink:href="#DejaVuSans-BoldOblique-32"/>
     <use xlink:href="#DejaVuSans-BoldOblique-39" transform="translate(69.580078 0)"/>
     <use xlink:href="#DejaVuSans-BoldOblique-33" transform="translate(139.160156 0)"/>
     <use xlink:href="#DejaVuSans-BoldOblique-36" transform="translate(208.740234 0)"/>
    </g>
   </g>
   <g id="text_21">
    <!-- 3⁺ -->
    <g transform="translate(682.331644 290.768174) scale(0.23 -0.23)">
     <defs>
      <path id="TimesNewRomanPS-BoldMT-33" d="M 947 2125 
L 947 2234 
Q 1303 2338 1440 2427 
Q 1578 2516 1678 2698 
Q 1778 2881 1778 3069 
Q 1778 3328 1589 3514 
Q 1400 3700 1119 3700 
Q 681 3700 375 3238 
L 259 3278 
Q 484 3800 836 4062 
Q 1188 4325 1619 4325 
Q 2059 4325 2345 4056 
Q 2631 3788 2631 3428 
Q 2631 3194 2498 2976 
Q 2366 2759 2081 2594 
Q 2447 2416 2639 2155 
Q 2831 1894 2831 1500 
Q 2831 838 2351 373 
Q 1872 -91 1066 -91 
Q 528 -91 281 88 
Q 103 213 103 409 
Q 103 553 206 654 
Q 309 756 444 756 
Q 547 756 638 713 
Q 688 688 992 439 
Q 1297 191 1563 191 
Q 1794 191 1959 373 
Q 2125 556 2125 838 
Q 2125 1266 1825 1627 
Q 1525 1988 947 2125 
z
" transform="scale(0.015625)"/>
     </defs>
     <use xlink:href="#TimesNewRomanPS-BoldMT-33"/>
     <use xlink:href="#DejaVuSerif-Bold-207a" transform="translate(50 0)"/>
    </g>
   </g>
   <g id="text_22">
    <path d="M 112.975555 457.505669 
L 106.740555 457.505669 
L 106.740555 457.333169 
Q 109.608055 453.920669 110.220555 452.740669 
Q 110.835555 451.560669 110.835555 450.435669 
Q 110.835555 449.615669 110.328055 449.073169 
Q 109.820555 448.528169 109.085555 448.528169 
Q 107.883055 448.528169 107.218055 449.733169 
L 106.928055 449.630669 
Q 107.350555 448.130669 108.210555 447.413169 
Q 109.070555 446.693169 110.195555 446.693169 
Q 110.998055 446.693169 111.663055 447.068169 
Q 112.328055 447.443169 112.703055 448.095669 
Q 113.078055 448.748169 113.078055 449.318169 
Q 113.078055 450.358169 112.498055 451.428169 
Q 111.710555 452.873169 109.053055 455.458169 
L 111.343055 455.458169 
Q 112.185555 455.458169 112.440555 455.388169 
Q 112.695555 455.318169 112.858055 455.150669 
Q 113.023055 454.983169 113.288055 454.443169 
L 113.570555 454.443169 
L 112.975555 457.505669 
z
M 121.765555 452.208169 
Q 121.765555 453.795669 121.320555 455.170669 
Q 121.053055 456.013169 120.603055 456.553169 
Q 120.155555 457.090669 119.585555 457.408169 
Q 119.015555 457.725669 118.343055 457.725669 
Q 117.578055 457.725669 116.960555 457.335669 
Q 116.343055 456.943169 115.865555 456.215669 
Q 115.523055 455.685669 115.265555 454.803169 
Q 114.928055 453.608169 114.928055 452.333169 
Q 114.928055 450.608169 115.413055 449.160669 
Q 115.810555 447.965669 116.623055 447.330669 
Q 117.435555 446.693169 118.343055 446.693169 
Q 119.265555 446.693169 120.065555 447.323169 
Q 120.865555 447.950669 121.240555 449.013169 
Q 121.765555 450.473169 121.765555 452.208169 
z
M 119.358055 452.193169 
Q 119.358055 449.410669 119.328055 448.950669 
Q 119.248055 447.865669 118.953055 447.483169 
Q 118.758055 447.233169 118.320555 447.233169 
Q 117.983055 447.233169 117.788055 447.420669 
Q 117.498055 447.693169 117.395555 448.385669 
Q 117.295555 449.075669 117.295555 453.208169 
Q 117.295555 455.458169 117.453055 456.223169 
Q 117.570555 456.778169 117.788055 456.965669 
Q 118.008055 457.153169 118.365555 457.153169 
Q 118.758055 457.153169 118.953055 456.903169 
Q 119.280555 456.465669 119.328055 455.553169 
L 119.358055 452.193169 
z
M 124.350555 455.098169 
Q 124.898055 455.098169 125.275555 455.483169 
Q 125.655555 455.865669 125.655555 456.403169 
Q 125.655555 456.943169 125.273055 457.323169 
Q 124.890555 457.700669 124.350555 457.700669 
Q 123.810555 457.700669 123.430555 457.323169 
Q 123.053055 456.943169 123.053055 456.403169 
Q 123.053055 455.865669 123.430555 455.483169 
Q 123.810555 455.098169 124.350555 455.098169 
z
M 133.865555 446.693169 
L 133.865555 446.910669 
Q 132.453055 447.270669 131.595555 447.838169 
Q 130.740555 448.403169 130.243055 449.213169 
Q 129.748055 450.020669 129.475555 451.215669 
Q 129.820555 450.983169 130.045555 450.910669 
Q 130.553055 450.755669 131.070555 450.755669 
Q 132.258055 450.755669 133.050555 451.620669 
Q 133.843055 452.483169 133.843055 453.973169 
Q 133.843055 455.020669 133.413055 455.895669 
Q 132.983055 456.770669 132.193055 457.248169 
Q 131.405555 457.725669 130.508055 457.725669 
Q 129.530555 457.725669 128.700555 457.190669 
Q 127.873055 456.653169 127.408055 455.623169 
Q 126.945555 454.590669 126.945555 453.380669 
Q 126.945555 451.598169 127.800555 450.063169 
Q 128.655555 448.528169 130.228055 447.618169 
Q 131.803055 446.708169 133.865555 446.693169 
z
M 129.373055 451.848169 
Q 129.310555 452.928169 129.310555 453.428169 
Q 129.310555 454.505669 129.518055 455.513169 
Q 129.725555 456.520669 130.085555 456.928169 
Q 130.343055 457.215669 130.695555 457.215669 
Q 131.053055 457.215669 131.333055 456.798169 
Q 131.615555 456.380669 131.615555 455.098169 
Q 131.615555 452.943169 131.093055 452.123169 
Q 130.758055 451.590669 130.185555 451.590669 
Q 129.873055 451.590669 129.373055 451.848169 
z
" style="stroke: #ffffff; stroke-width: 3.8"/>
    <path d="M 112.975555 457.505669 
L 106.740555 457.505669 
L 106.740555 457.333169 
Q 109.608055 453.920669 110.220555 452.740669 
Q 110.835555 451.560669 110.835555 450.435669 
Q 110.835555 449.615669 110.328055 449.073169 
Q 109.820555 448.528169 109.085555 448.528169 
Q 107.883055 448.528169 107.218055 449.733169 
L 106.928055 449.630669 
Q 107.350555 448.130669 108.210555 447.413169 
Q 109.070555 446.693169 110.195555 446.693169 
Q 110.998055 446.693169 111.663055 447.068169 
Q 112.328055 447.443169 112.703055 448.095669 
Q 113.078055 448.748169 113.078055 449.318169 
Q 113.078055 450.358169 112.498055 451.428169 
Q 111.710555 452.873169 109.053055 455.458169 
L 111.343055 455.458169 
Q 112.185555 455.458169 112.440555 455.388169 
Q 112.695555 455.318169 112.858055 455.150669 
Q 113.023055 454.983169 113.288055 454.443169 
L 113.570555 454.443169 
L 112.975555 457.505669 
z
M 121.765555 452.208169 
Q 121.765555 453.795669 121.320555 455.170669 
Q 121.053055 456.013169 120.603055 456.553169 
Q 120.155555 457.090669 119.585555 457.408169 
Q 119.015555 457.725669 118.343055 457.725669 
Q 117.578055 457.725669 116.960555 457.335669 
Q 116.343055 456.943169 115.865555 456.215669 
Q 115.523055 455.685669 115.265555 454.803169 
Q 114.928055 453.608169 114.928055 452.333169 
Q 114.928055 450.608169 115.413055 449.160669 
Q 115.810555 447.965669 116.623055 447.330669 
Q 117.435555 446.693169 118.343055 446.693169 
Q 119.265555 446.693169 120.065555 447.323169 
Q 120.865555 447.950669 121.240555 449.013169 
Q 121.765555 450.473169 121.765555 452.208169 
z
M 119.358055 452.193169 
Q 119.358055 449.410669 119.328055 448.950669 
Q 119.248055 447.865669 118.953055 447.483169 
Q 118.758055 447.233169 118.320555 447.233169 
Q 117.983055 447.233169 117.788055 447.420669 
Q 117.498055 447.693169 117.395555 448.385669 
Q 117.295555 449.075669 117.295555 453.208169 
Q 117.295555 455.458169 117.453055 456.223169 
Q 117.570555 456.778169 117.788055 456.965669 
Q 118.008055 457.153169 118.365555 457.153169 
Q 118.758055 457.153169 118.953055 456.903169 
Q 119.280555 456.465669 119.328055 455.553169 
L 119.358055 452.193169 
z
M 124.350555 455.098169 
Q 124.898055 455.098169 125.275555 455.483169 
Q 125.655555 455.865669 125.655555 456.403169 
Q 125.655555 456.943169 125.273055 457.323169 
Q 124.890555 457.700669 124.350555 457.700669 
Q 123.810555 457.700669 123.430555 457.323169 
Q 123.053055 456.943169 123.053055 456.403169 
Q 123.053055 455.865669 123.430555 455.483169 
Q 123.810555 455.098169 124.350555 455.098169 
z
M 133.865555 446.693169 
L 133.865555 446.910669 
Q 132.453055 447.270669 131.595555 447.838169 
Q 130.740555 448.403169 130.243055 449.213169 
Q 129.748055 450.020669 129.475555 451.215669 
Q 129.820555 450.983169 130.045555 450.910669 
Q 130.553055 450.755669 131.070555 450.755669 
Q 132.258055 450.755669 133.050555 451.620669 
Q 133.843055 452.483169 133.843055 453.973169 
Q 133.843055 455.020669 133.413055 455.895669 
Q 132.983055 456.770669 132.193055 457.248169 
Q 131.405555 457.725669 130.508055 457.725669 
Q 129.530555 457.725669 128.700555 457.190669 
Q 127.873055 456.653169 127.408055 455.623169 
Q 126.945555 454.590669 126.945555 453.380669 
Q 126.945555 451.598169 127.800555 450.063169 
Q 128.655555 448.528169 130.228055 447.618169 
Q 131.803055 446.708169 133.865555 446.693169 
z
M 129.373055 451.848169 
Q 129.310555 452.928169 129.310555 453.428169 
Q 129.310555 454.505669 129.518055 455.513169 
Q 129.725555 456.520669 130.085555 456.928169 
Q 130.343055 457.215669 130.695555 457.215669 
Q 131.053055 457.215669 131.333055 456.798169 
Q 131.615555 456.380669 131.615555 455.098169 
Q 131.615555 452.943169 131.093055 452.123169 
Q 130.758055 451.590669 130.185555 451.590669 
Q 129.873055 451.590669 129.373055 451.848169 
z
"/>
   </g>
   <g id="text_23">
    <path d="M 108.718055 393.080947 
L 108.718055 392.808447 
Q 109.608055 392.548447 109.950555 392.325947 
Q 110.295555 392.103447 110.545555 391.648447 
Q 110.795555 391.190947 110.795555 390.720947 
Q 110.795555 390.073447 110.323055 389.608447 
Q 109.850555 389.143447 109.148055 389.143447 
Q 108.053055 389.143447 107.288055 390.298447 
L 106.998055 390.198447 
Q 107.560555 388.893447 108.440555 388.238447 
Q 109.320555 387.580947 110.398055 387.580947 
Q 111.498055 387.580947 112.213055 388.253447 
Q 112.928055 388.923447 112.928055 389.823447 
Q 112.928055 390.408447 112.595555 390.953447 
Q 112.265555 391.495947 111.553055 391.908447 
Q 112.468055 392.353447 112.948055 393.005947 
Q 113.428055 393.658447 113.428055 394.643447 
Q 113.428055 396.298447 112.228055 397.460947 
Q 111.030555 398.620947 109.015555 398.620947 
Q 107.670555 398.620947 107.053055 398.173447 
Q 106.608055 397.860947 106.608055 397.370947 
Q 106.608055 397.010947 106.865555 396.758447 
Q 107.123055 396.503447 107.460555 396.503447 
Q 107.718055 396.503447 107.945555 396.610947 
Q 108.070555 396.673447 108.830555 397.295947 
Q 109.593055 397.915947 110.258055 397.915947 
Q 110.835555 397.915947 111.248055 397.460947 
Q 111.663055 397.003447 111.663055 396.298447 
Q 111.663055 395.228447 110.913055 394.325947 
Q 110.163055 393.423447 108.718055 393.080947 
z
M 116.718055 393.080947 
L 116.718055 392.808447 
Q 117.608055 392.548447 117.950555 392.325947 
Q 118.295555 392.103447 118.545555 391.648447 
Q 118.795555 391.190947 118.795555 390.720947 
Q 118.795555 390.073447 118.323055 389.608447 
Q 117.850555 389.143447 117.148055 389.143447 
Q 116.053055 389.143447 115.288055 390.298447 
L 114.998055 390.198447 
Q 115.560555 388.893447 116.440555 388.238447 
Q 117.320555 387.580947 118.398055 387.580947 
Q 119.498055 387.580947 120.213055 388.253447 
Q 120.928055 388.923447 120.928055 389.823447 
Q 120.928055 390.408447 120.595555 390.953447 
Q 120.265555 391.495947 119.553055 391.908447 
Q 120.468055 392.353447 120.948055 393.005947 
Q 121.428055 393.658447 121.428055 394.643447 
Q 121.428055 396.298447 120.228055 397.460947 
Q 119.030555 398.620947 117.015555 398.620947 
Q 115.670555 398.620947 115.053055 398.173447 
Q 114.608055 397.860947 114.608055 397.370947 
Q 114.608055 397.010947 114.865555 396.758447 
Q 115.123055 396.503447 115.460555 396.503447 
Q 115.718055 396.503447 115.945555 396.610947 
Q 116.070555 396.673447 116.830555 397.295947 
Q 117.593055 397.915947 118.258055 397.915947 
Q 118.835555 397.915947 119.248055 397.460947 
Q 119.663055 397.003447 119.663055 396.298447 
Q 119.663055 395.228447 118.913055 394.325947 
Q 118.163055 393.423447 116.718055 393.080947 
z
M 124.350555 395.985947 
Q 124.898055 395.985947 125.275555 396.370947 
Q 125.655555 396.753447 125.655555 397.290947 
Q 125.655555 397.830947 125.273055 398.210947 
Q 124.890555 398.588447 124.350555 398.588447 
Q 123.810555 398.588447 123.430555 398.210947 
Q 123.053055 397.830947 123.053055 397.290947 
Q 123.053055 396.753447 123.430555 396.370947 
Q 123.810555 395.985947 124.350555 395.985947 
z
M 133.765555 393.095947 
Q 133.765555 394.683447 133.320555 396.058447 
Q 133.053055 396.900947 132.603055 397.440947 
Q 132.155555 397.978447 131.585555 398.295947 
Q 131.015555 398.613447 130.343055 398.613447 
Q 129.578055 398.613447 128.960555 398.223447 
Q 128.343055 397.830947 127.865555 397.103447 
Q 127.523055 396.573447 127.265555 395.690947 
Q 126.928055 394.495947 126.928055 393.220947 
Q 126.928055 391.495947 127.413055 390.048447 
Q 127.810555 388.853447 128.623055 388.218447 
Q 129.435555 387.580947 130.343055 387.580947 
Q 131.265555 387.580947 132.065555 388.210947 
Q 132.865555 388.838447 133.240555 389.900947 
Q 133.765555 391.360947 133.765555 393.095947 
z
M 131.358055 393.080947 
Q 131.358055 390.298447 131.328055 389.838447 
Q 131.248055 388.753447 130.953055 388.370947 
Q 130.758055 388.120947 130.320555 388.120947 
Q 129.983055 388.120947 129.788055 388.308447 
Q 129.498055 388.580947 129.395555 389.273447 
Q 129.295555 389.963447 129.295555 394.095947 
Q 129.295555 396.345947 129.453055 397.110947 
Q 129.570555 397.665947 129.788055 397.853447 
Q 130.008055 398.040947 130.365555 398.040947 
Q 130.758055 398.040947 130.953055 397.790947 
Q 131.280555 397.353447 131.328055 396.440947 
L 131.358055 393.080947 
z
" style="stroke: #ffffff; stroke-width: 3.8"/>
    <path d="M 108.718055 393.080947 
L 108.718055 392.808447 
Q 109.608055 392.548447 109.950555 392.325947 
Q 110.295555 392.103447 110.545555 391.648447 
Q 110.795555 391.190947 110.795555 390.720947 
Q 110.795555 390.073447 110.323055 389.608447 
Q 109.850555 389.143447 109.148055 389.143447 
Q 108.053055 389.143447 107.288055 390.298447 
L 106.998055 390.198447 
Q 107.560555 388.893447 108.440555 388.238447 
Q 109.320555 387.580947 110.398055 387.580947 
Q 111.498055 387.580947 112.213055 388.253447 
Q 112.928055 388.923447 112.928055 389.823447 
Q 112.928055 390.408447 112.595555 390.953447 
Q 112.265555 391.495947 111.553055 391.908447 
Q 112.468055 392.353447 112.948055 393.005947 
Q 113.428055 393.658447 113.428055 394.643447 
Q 113.428055 396.298447 112.228055 397.460947 
Q 111.030555 398.620947 109.015555 398.620947 
Q 107.670555 398.620947 107.053055 398.173447 
Q 106.608055 397.860947 106.608055 397.370947 
Q 106.608055 397.010947 106.865555 396.758447 
Q 107.123055 396.503447 107.460555 396.503447 
Q 107.718055 396.503447 107.945555 396.610947 
Q 108.070555 396.673447 108.830555 397.295947 
Q 109.593055 397.915947 110.258055 397.915947 
Q 110.835555 397.915947 111.248055 397.460947 
Q 111.663055 397.003447 111.663055 396.298447 
Q 111.663055 395.228447 110.913055 394.325947 
Q 110.163055 393.423447 108.718055 393.080947 
z
M 116.718055 393.080947 
L 116.718055 392.808447 
Q 117.608055 392.548447 117.950555 392.325947 
Q 118.295555 392.103447 118.545555 391.648447 
Q 118.795555 391.190947 118.795555 390.720947 
Q 118.795555 390.073447 118.323055 389.608447 
Q 117.850555 389.143447 117.148055 389.143447 
Q 116.053055 389.143447 115.288055 390.298447 
L 114.998055 390.198447 
Q 115.560555 388.893447 116.440555 388.238447 
Q 117.320555 387.580947 118.398055 387.580947 
Q 119.498055 387.580947 120.213055 388.253447 
Q 120.928055 388.923447 120.928055 389.823447 
Q 120.928055 390.408447 120.595555 390.953447 
Q 120.265555 391.495947 119.553055 391.908447 
Q 120.468055 392.353447 120.948055 393.005947 
Q 121.428055 393.658447 121.428055 394.643447 
Q 121.428055 396.298447 120.228055 397.460947 
Q 119.030555 398.620947 117.015555 398.620947 
Q 115.670555 398.620947 115.053055 398.173447 
Q 114.608055 397.860947 114.608055 397.370947 
Q 114.608055 397.010947 114.865555 396.758447 
Q 115.123055 396.503447 115.460555 396.503447 
Q 115.718055 396.503447 115.945555 396.610947 
Q 116.070555 396.673447 116.830555 397.295947 
Q 117.593055 397.915947 118.258055 397.915947 
Q 118.835555 397.915947 119.248055 397.460947 
Q 119.663055 397.003447 119.663055 396.298447 
Q 119.663055 395.228447 118.913055 394.325947 
Q 118.163055 393.423447 116.718055 393.080947 
z
M 124.350555 395.985947 
Q 124.898055 395.985947 125.275555 396.370947 
Q 125.655555 396.753447 125.655555 397.290947 
Q 125.655555 397.830947 125.273055 398.210947 
Q 124.890555 398.588447 124.350555 398.588447 
Q 123.810555 398.588447 123.430555 398.210947 
Q 123.053055 397.830947 123.053055 397.290947 
Q 123.053055 396.753447 123.430555 396.370947 
Q 123.810555 395.985947 124.350555 395.985947 
z
M 133.765555 393.095947 
Q 133.765555 394.683447 133.320555 396.058447 
Q 133.053055 396.900947 132.603055 397.440947 
Q 132.155555 397.978447 131.585555 398.295947 
Q 131.015555 398.613447 130.343055 398.613447 
Q 129.578055 398.613447 128.960555 398.223447 
Q 128.343055 397.830947 127.865555 397.103447 
Q 127.523055 396.573447 127.265555 395.690947 
Q 126.928055 394.495947 126.928055 393.220947 
Q 126.928055 391.495947 127.413055 390.048447 
Q 127.810555 388.853447 128.623055 388.218447 
Q 129.435555 387.580947 130.343055 387.580947 
Q 131.265555 387.580947 132.065555 388.210947 
Q 132.865555 388.838447 133.240555 389.900947 
Q 133.765555 391.360947 133.765555 393.095947 
z
M 131.358055 393.080947 
Q 131.358055 390.298447 131.328055 389.838447 
Q 131.248055 388.753447 130.953055 388.370947 
Q 130.758055 388.120947 130.320555 388.120947 
Q 129.983055 388.120947 129.788055 388.308447 
Q 129.498055 388.580947 129.395555 389.273447 
Q 129.295555 389.963447 129.295555 394.095947 
Q 129.295555 396.345947 129.453055 397.110947 
Q 129.570555 397.665947 129.788055 397.853447 
Q 130.008055 398.040947 130.365555 398.040947 
Q 130.758055 398.040947 130.953055 397.790947 
Q 131.280555 397.353447 131.328055 396.440947 
L 131.358055 393.080947 
z
"/>
   </g>
   <g id="text_24">
    <path d="M 106.748055 317.268831 
L 111.780555 310.448831 
L 112.733055 310.448831 
L 112.733055 317.268831 
L 113.703055 317.268831 
L 113.703055 318.886331 
L 112.733055 318.886331 
L 112.733055 321.261331 
L 110.585555 321.261331 
L 110.585555 318.886331 
L 106.748055 318.886331 
L 106.748055 317.268831 
z
M 107.508055 317.268831 
L 110.585555 317.268831 
L 110.585555 313.088831 
L 107.508055 317.268831 
z
M 120.975555 321.261331 
L 114.740555 321.261331 
L 114.740555 321.088831 
Q 117.608055 317.676331 118.220555 316.496331 
Q 118.835555 315.316331 118.835555 314.191331 
Q 118.835555 313.371331 118.328055 312.828831 
Q 117.820555 312.283831 117.085555 312.283831 
Q 115.883055 312.283831 115.218055 313.488831 
L 114.928055 313.386331 
Q 115.350555 311.886331 116.210555 311.168831 
Q 117.070555 310.448831 118.195555 310.448831 
Q 118.998055 310.448831 119.663055 310.823831 
Q 120.328055 311.198831 120.703055 311.851331 
Q 121.078055 312.503831 121.078055 313.073831 
Q 121.078055 314.113831 120.498055 315.183831 
Q 119.710555 316.628831 117.053055 319.213831 
L 119.343055 319.213831 
Q 120.185555 319.213831 120.440555 319.143831 
Q 120.695555 319.073831 120.858055 318.906331 
Q 121.023055 318.738831 121.288055 318.198831 
L 121.570555 318.198831 
L 120.975555 321.261331 
z
M 124.350555 318.853831 
Q 124.898055 318.853831 125.275555 319.238831 
Q 125.655555 319.621331 125.655555 320.158831 
Q 125.655555 320.698831 125.273055 321.078831 
Q 124.890555 321.456331 124.350555 321.456331 
Q 123.810555 321.456331 123.430555 321.078831 
Q 123.053055 320.698831 123.053055 320.158831 
Q 123.053055 319.621331 123.430555 319.238831 
Q 123.810555 318.853831 124.350555 318.853831 
z
M 132.975555 321.261331 
L 126.740555 321.261331 
L 126.740555 321.088831 
Q 129.608055 317.676331 130.220555 316.496331 
Q 130.835555 315.316331 130.835555 314.191331 
Q 130.835555 313.371331 130.328055 312.828831 
Q 129.820555 312.283831 129.085555 312.283831 
Q 127.883055 312.283831 127.218055 313.488831 
L 126.928055 313.386331 
Q 127.350555 311.886331 128.210555 311.168831 
Q 129.070555 310.448831 130.195555 310.448831 
Q 130.998055 310.448831 131.663055 310.823831 
Q 132.328055 311.198831 132.703055 311.851331 
Q 133.078055 312.503831 133.078055 313.073831 
Q 133.078055 314.113831 132.498055 315.183831 
Q 131.710555 316.628831 129.053055 319.213831 
L 131.343055 319.213831 
Q 132.185555 319.213831 132.440555 319.143831 
Q 132.695555 319.073831 132.858055 318.906331 
Q 133.023055 318.738831 133.288055 318.198831 
L 133.570555 318.198831 
L 132.975555 321.261331 
z
" style="stroke: #ffffff; stroke-width: 3.8"/>
    <path d="M 106.748055 317.268831 
L 111.780555 310.448831 
L 112.733055 310.448831 
L 112.733055 317.268831 
L 113.703055 317.268831 
L 113.703055 318.886331 
L 112.733055 318.886331 
L 112.733055 321.261331 
L 110.585555 321.261331 
L 110.585555 318.886331 
L 106.748055 318.886331 
L 106.748055 317.268831 
z
M 107.508055 317.268831 
L 110.585555 317.268831 
L 110.585555 313.088831 
L 107.508055 317.268831 
z
M 120.975555 321.261331 
L 114.740555 321.261331 
L 114.740555 321.088831 
Q 117.608055 317.676331 118.220555 316.496331 
Q 118.835555 315.316331 118.835555 314.191331 
Q 118.835555 313.371331 118.328055 312.828831 
Q 117.820555 312.283831 117.085555 312.283831 
Q 115.883055 312.283831 115.218055 313.488831 
L 114.928055 313.386331 
Q 115.350555 311.886331 116.210555 311.168831 
Q 117.070555 310.448831 118.195555 310.448831 
Q 118.998055 310.448831 119.663055 310.823831 
Q 120.328055 311.198831 120.703055 311.851331 
Q 121.078055 312.503831 121.078055 313.073831 
Q 121.078055 314.113831 120.498055 315.183831 
Q 119.710555 316.628831 117.053055 319.213831 
L 119.343055 319.213831 
Q 120.185555 319.213831 120.440555 319.143831 
Q 120.695555 319.073831 120.858055 318.906331 
Q 121.023055 318.738831 121.288055 318.198831 
L 121.570555 318.198831 
L 120.975555 321.261331 
z
M 124.350555 318.853831 
Q 124.898055 318.853831 125.275555 319.238831 
Q 125.655555 319.621331 125.655555 320.158831 
Q 125.655555 320.698831 125.273055 321.078831 
Q 124.890555 321.456331 124.350555 321.456331 
Q 123.810555 321.456331 123.430555 321.078831 
Q 123.053055 320.698831 123.053055 320.158831 
Q 123.053055 319.621331 123.430555 319.238831 
Q 123.810555 318.853831 124.350555 318.853831 
z
M 132.975555 321.261331 
L 126.740555 321.261331 
L 126.740555 321.088831 
Q 129.608055 317.676331 130.220555 316.496331 
Q 130.835555 315.316331 130.835555 314.191331 
Q 130.835555 313.371331 130.328055 312.828831 
Q 129.820555 312.283831 129.085555 312.283831 
Q 127.883055 312.283831 127.218055 313.488831 
L 126.928055 313.386331 
Q 127.350555 311.886331 128.210555 311.168831 
Q 129.070555 310.448831 130.195555 310.448831 
Q 130.998055 310.448831 131.663055 310.823831 
Q 132.328055 311.198831 132.703055 311.851331 
Q 133.078055 312.503831 133.078055 313.073831 
Q 133.078055 314.113831 132.498055 315.183831 
Q 131.710555 316.628831 129.053055 319.213831 
L 131.343055 319.213831 
Q 132.185555 319.213831 132.440555 319.143831 
Q 132.695555 319.073831 132.858055 318.906331 
Q 133.023055 318.738831 133.288055 318.198831 
L 133.570555 318.198831 
L 132.975555 321.261331 
z
"/>
   </g>
   <g id="text_25">
    <path d="M 361.874697 270.645556 
L 361.874697 279.310556 
Q 361.874697 280.285556 361.959697 280.555556 
Q 362.047197 280.825556 362.319697 280.998056 
Q 362.594697 281.168056 363.197197 281.168056 
L 363.437197 281.168056 
L 363.437197 281.458056 
L 357.859697 281.458056 
L 357.859697 281.168056 
L 358.142197 281.168056 
Q 358.822197 281.168056 359.109697 281.013056 
Q 359.399697 280.855556 359.499697 280.583056 
Q 359.602197 280.310556 359.602197 279.310556 
L 359.602197 273.818056 
Q 359.602197 273.083056 359.532197 272.900556 
Q 359.462197 272.715556 359.269697 272.588056 
Q 359.079697 272.458056 358.829697 272.458056 
Q 358.429697 272.458056 357.859697 272.708056 
L 357.719697 272.425556 
L 361.617197 270.645556 
L 361.874697 270.645556 
z
M 368.994697 270.645556 
L 368.994697 279.310556 
Q 368.994697 280.285556 369.079697 280.555556 
Q 369.167197 280.825556 369.439697 280.998056 
Q 369.714697 281.168056 370.317197 281.168056 
L 370.557197 281.168056 
L 370.557197 281.458056 
L 364.979697 281.458056 
L 364.979697 281.168056 
L 365.262197 281.168056 
Q 365.942197 281.168056 366.229697 281.013056 
Q 366.519697 280.855556 366.619697 280.583056 
Q 366.722197 280.310556 366.722197 279.310556 
L 366.722197 273.818056 
Q 366.722197 273.083056 366.652197 272.900556 
Q 366.582197 272.715556 366.389697 272.588056 
Q 366.199697 272.458056 365.949697 272.458056 
Q 365.549697 272.458056 364.979697 272.708056 
L 364.839697 272.425556 
L 368.737197 270.645556 
L 368.994697 270.645556 
z
M 373.784697 279.050556 
Q 374.332197 279.050556 374.709697 279.435556 
Q 375.089697 279.818056 375.089697 280.355556 
Q 375.089697 280.895556 374.707197 281.275556 
Q 374.324697 281.653056 373.784697 281.653056 
Q 373.244697 281.653056 372.864697 281.275556 
Q 372.487197 280.895556 372.487197 280.355556 
Q 372.487197 279.818056 372.864697 279.435556 
Q 373.244697 279.050556 373.784697 279.050556 
z
M 383.299697 270.645556 
L 383.299697 270.863056 
Q 381.887197 271.223056 381.029697 271.790556 
Q 380.174697 272.355556 379.677197 273.165556 
Q 379.182197 273.973056 378.909697 275.168056 
Q 379.254697 274.935556 379.479697 274.863056 
Q 379.987197 274.708056 380.504697 274.708056 
Q 381.692197 274.708056 382.484697 275.573056 
Q 383.277197 276.435556 383.277197 277.925556 
Q 383.277197 278.973056 382.847197 279.848056 
Q 382.417197 280.723056 381.627197 281.200556 
Q 380.839697 281.678056 379.942197 281.678056 
Q 378.964697 281.678056 378.134697 281.143056 
Q 377.307197 280.605556 376.842197 279.575556 
Q 376.379697 278.543056 376.379697 277.333056 
Q 376.379697 275.550556 377.234697 274.015556 
Q 378.089697 272.480556 379.662197 271.570556 
Q 381.237197 270.660556 383.299697 270.645556 
z
M 378.807197 275.800556 
Q 378.744697 276.880556 378.744697 277.380556 
Q 378.744697 278.458056 378.952197 279.465556 
Q 379.159697 280.473056 379.519697 280.880556 
Q 379.777197 281.168056 380.129697 281.168056 
Q 380.487197 281.168056 380.767197 280.750556 
Q 381.049697 280.333056 381.049697 279.050556 
Q 381.049697 276.895556 380.527197 276.075556 
Q 380.192197 275.543056 379.619697 275.543056 
Q 379.307197 275.543056 378.807197 275.800556 
z
" style="stroke: #ffffff; stroke-width: 3.8"/>
    <path d="M 361.874697 270.645556 
L 361.874697 279.310556 
Q 361.874697 280.285556 361.959697 280.555556 
Q 362.047197 280.825556 362.319697 280.998056 
Q 362.594697 281.168056 363.197197 281.168056 
L 363.437197 281.168056 
L 363.437197 281.458056 
L 357.859697 281.458056 
L 357.859697 281.168056 
L 358.142197 281.168056 
Q 358.822197 281.168056 359.109697 281.013056 
Q 359.399697 280.855556 359.499697 280.583056 
Q 359.602197 280.310556 359.602197 279.310556 
L 359.602197 273.818056 
Q 359.602197 273.083056 359.532197 272.900556 
Q 359.462197 272.715556 359.269697 272.588056 
Q 359.079697 272.458056 358.829697 272.458056 
Q 358.429697 272.458056 357.859697 272.708056 
L 357.719697 272.425556 
L 361.617197 270.645556 
L 361.874697 270.645556 
z
M 368.994697 270.645556 
L 368.994697 279.310556 
Q 368.994697 280.285556 369.079697 280.555556 
Q 369.167197 280.825556 369.439697 280.998056 
Q 369.714697 281.168056 370.317197 281.168056 
L 370.557197 281.168056 
L 370.557197 281.458056 
L 364.979697 281.458056 
L 364.979697 281.168056 
L 365.262197 281.168056 
Q 365.942197 281.168056 366.229697 281.013056 
Q 366.519697 280.855556 366.619697 280.583056 
Q 366.722197 280.310556 366.722197 279.310556 
L 366.722197 273.818056 
Q 366.722197 273.083056 366.652197 272.900556 
Q 366.582197 272.715556 366.389697 272.588056 
Q 366.199697 272.458056 365.949697 272.458056 
Q 365.549697 272.458056 364.979697 272.708056 
L 364.839697 272.425556 
L 368.737197 270.645556 
L 368.994697 270.645556 
z
M 373.784697 279.050556 
Q 374.332197 279.050556 374.709697 279.435556 
Q 375.089697 279.818056 375.089697 280.355556 
Q 375.089697 280.895556 374.707197 281.275556 
Q 374.324697 281.653056 373.784697 281.653056 
Q 373.244697 281.653056 372.864697 281.275556 
Q 372.487197 280.895556 372.487197 280.355556 
Q 372.487197 279.818056 372.864697 279.435556 
Q 373.244697 279.050556 373.784697 279.050556 
z
M 383.299697 270.645556 
L 383.299697 270.863056 
Q 381.887197 271.223056 381.029697 271.790556 
Q 380.174697 272.355556 379.677197 273.165556 
Q 379.182197 273.973056 378.909697 275.168056 
Q 379.254697 274.935556 379.479697 274.863056 
Q 379.987197 274.708056 380.504697 274.708056 
Q 381.692197 274.708056 382.484697 275.573056 
Q 383.277197 276.435556 383.277197 277.925556 
Q 383.277197 278.973056 382.847197 279.848056 
Q 382.417197 280.723056 381.627197 281.200556 
Q 380.839697 281.678056 379.942197 281.678056 
Q 378.964697 281.678056 378.134697 281.143056 
Q 377.307197 280.605556 376.842197 279.575556 
Q 376.379697 278.543056 376.379697 277.333056 
Q 376.379697 275.550556 377.234697 274.015556 
Q 378.089697 272.480556 379.662197 271.570556 
Q 381.237197 270.660556 383.299697 270.645556 
z
M 378.807197 275.800556 
Q 378.744697 276.880556 378.744697 277.380556 
Q 378.744697 278.458056 378.952197 279.465556 
Q 379.159697 280.473056 379.519697 280.880556 
Q 379.777197 281.168056 380.129697 281.168056 
Q 380.487197 281.168056 380.767197 280.750556 
Q 381.049697 280.333056 381.049697 279.050556 
Q 381.049697 276.895556 380.527197 276.075556 
Q 380.192197 275.543056 379.619697 275.543056 
Q 379.307197 275.543056 378.807197 275.800556 
z
"/>
   </g>
   <g id="text_26">
    <path d="M 361.434697 186.876758 
L 361.434697 195.541758 
Q 361.434697 196.516758 361.519697 196.786758 
Q 361.607197 197.056758 361.879697 197.229258 
Q 362.154697 197.399258 362.757197 197.399258 
L 362.997197 197.399258 
L 362.997197 197.689258 
L 357.419697 197.689258 
L 357.419697 197.399258 
L 357.702197 197.399258 
Q 358.382197 197.399258 358.669697 197.244258 
Q 358.959697 197.086758 359.059697 196.814258 
Q 359.162197 196.541758 359.162197 195.541758 
L 359.162197 190.049258 
Q 359.162197 189.314258 359.092197 189.131758 
Q 359.022197 188.946758 358.829697 188.819258 
Q 358.639697 188.689258 358.389697 188.689258 
Q 357.989697 188.689258 357.419697 188.939258 
L 357.279697 188.656758 
L 361.177197 186.876758 
L 361.434697 186.876758 
z
M 364.622197 193.696758 
L 369.654697 186.876758 
L 370.607197 186.876758 
L 370.607197 193.696758 
L 371.577197 193.696758 
L 371.577197 195.314258 
L 370.607197 195.314258 
L 370.607197 197.689258 
L 368.459697 197.689258 
L 368.459697 195.314258 
L 364.622197 195.314258 
L 364.622197 193.696758 
z
M 365.382197 193.696758 
L 368.459697 193.696758 
L 368.459697 189.516758 
L 365.382197 193.696758 
z
M 374.224697 195.281758 
Q 374.772197 195.281758 375.149697 195.666758 
Q 375.529697 196.049258 375.529697 196.586758 
Q 375.529697 197.126758 375.147197 197.506758 
Q 374.764697 197.884258 374.224697 197.884258 
Q 373.684697 197.884258 373.304697 197.506758 
Q 372.927197 197.126758 372.927197 196.586758 
Q 372.927197 196.049258 373.304697 195.666758 
Q 373.684697 195.281758 374.224697 195.281758 
z
M 381.434697 186.876758 
L 381.434697 195.541758 
Q 381.434697 196.516758 381.519697 196.786758 
Q 381.607197 197.056758 381.879697 197.229258 
Q 382.154697 197.399258 382.757197 197.399258 
L 382.997197 197.399258 
L 382.997197 197.689258 
L 377.419697 197.689258 
L 377.419697 197.399258 
L 377.702197 197.399258 
Q 378.382197 197.399258 378.669697 197.244258 
Q 378.959697 197.086758 379.059697 196.814258 
Q 379.162197 196.541758 379.162197 195.541758 
L 379.162197 190.049258 
Q 379.162197 189.314258 379.092197 189.131758 
Q 379.022197 188.946758 378.829697 188.819258 
Q 378.639697 188.689258 378.389697 188.689258 
Q 377.989697 188.689258 377.419697 188.939258 
L 377.279697 188.656758 
L 381.177197 186.876758 
L 381.434697 186.876758 
z
" style="stroke: #ffffff; stroke-width: 3.8"/>
    <path d="M 361.434697 186.876758 
L 361.434697 195.541758 
Q 361.434697 196.516758 361.519697 196.786758 
Q 361.607197 197.056758 361.879697 197.229258 
Q 362.154697 197.399258 362.757197 197.399258 
L 362.997197 197.399258 
L 362.997197 197.689258 
L 357.419697 197.689258 
L 357.419697 197.399258 
L 357.702197 197.399258 
Q 358.382197 197.399258 358.669697 197.244258 
Q 358.959697 197.086758 359.059697 196.814258 
Q 359.162197 196.541758 359.162197 195.541758 
L 359.162197 190.049258 
Q 359.162197 189.314258 359.092197 189.131758 
Q 359.022197 188.946758 358.829697 188.819258 
Q 358.639697 188.689258 358.389697 188.689258 
Q 357.989697 188.689258 357.419697 188.939258 
L 357.279697 188.656758 
L 361.177197 186.876758 
L 361.434697 186.876758 
z
M 364.622197 193.696758 
L 369.654697 186.876758 
L 370.607197 186.876758 
L 370.607197 193.696758 
L 371.577197 193.696758 
L 371.577197 195.314258 
L 370.607197 195.314258 
L 370.607197 197.689258 
L 368.459697 197.689258 
L 368.459697 195.314258 
L 364.622197 195.314258 
L 364.622197 193.696758 
z
M 365.382197 193.696758 
L 368.459697 193.696758 
L 368.459697 189.516758 
L 365.382197 193.696758 
z
M 374.224697 195.281758 
Q 374.772197 195.281758 375.149697 195.666758 
Q 375.529697 196.049258 375.529697 196.586758 
Q 375.529697 197.126758 375.147197 197.506758 
Q 374.764697 197.884258 374.224697 197.884258 
Q 373.684697 197.884258 373.304697 197.506758 
Q 372.927197 197.126758 372.927197 196.586758 
Q 372.927197 196.049258 373.304697 195.666758 
Q 373.684697 195.281758 374.224697 195.281758 
z
M 381.434697 186.876758 
L 381.434697 195.541758 
Q 381.434697 196.516758 381.519697 196.786758 
Q 381.607197 197.056758 381.879697 197.229258 
Q 382.154697 197.399258 382.757197 197.399258 
L 382.997197 197.399258 
L 382.997197 197.689258 
L 377.419697 197.689258 
L 377.419697 197.399258 
L 377.702197 197.399258 
Q 378.382197 197.399258 378.669697 197.244258 
Q 378.959697 197.086758 379.059697 196.814258 
Q 379.162197 196.541758 379.162197 195.541758 
L 379.162197 190.049258 
Q 379.162197 189.314258 379.092197 189.131758 
Q 379.022197 188.946758 378.829697 188.819258 
Q 378.639697 188.689258 378.389697 188.689258 
Q 377.989697 188.689258 377.419697 188.939258 
L 377.279697 188.656758 
L 381.177197 186.876758 
L 381.434697 186.876758 
z
"/>
   </g>
   <g id="text_27">
    <path d="M 363.739697 108.512329 
L 363.739697 108.729829 
Q 362.327197 109.089829 361.469697 109.657329 
Q 360.614697 110.222329 360.117197 111.032329 
Q 359.622197 111.839829 359.349697 113.034829 
Q 359.694697 112.802329 359.919697 112.729829 
Q 360.427197 112.574829 360.944697 112.574829 
Q 362.132197 112.574829 362.924697 113.439829 
Q 363.717197 114.302329 363.717197 115.792329 
Q 363.717197 116.839829 363.287197 117.714829 
Q 362.857197 118.589829 362.067197 119.067329 
Q 361.279697 119.544829 360.382197 119.544829 
Q 359.404697 119.544829 358.574697 119.009829 
Q 357.747197 118.472329 357.282197 117.442329 
Q 356.819697 116.409829 356.819697 115.199829 
Q 356.819697 113.417329 357.674697 111.882329 
Q 358.529697 110.347329 360.102197 109.437329 
Q 361.677197 108.527329 363.739697 108.512329 
z
M 359.247197 113.667329 
Q 359.184697 114.747329 359.184697 115.247329 
Q 359.184697 116.324829 359.392197 117.332329 
Q 359.599697 118.339829 359.959697 118.747329 
Q 360.217197 119.034829 360.569697 119.034829 
Q 360.927197 119.034829 361.207197 118.617329 
Q 361.489697 118.199829 361.489697 116.917329 
Q 361.489697 114.762329 360.967197 113.942329 
Q 360.632197 113.409829 360.059697 113.409829 
Q 359.747197 113.409829 359.247197 113.667329 
z
M 370.849697 119.324829 
L 364.614697 119.324829 
L 364.614697 119.152329 
Q 367.482197 115.739829 368.094697 114.559829 
Q 368.709697 113.379829 368.709697 112.254829 
Q 368.709697 111.434829 368.202197 110.892329 
Q 367.694697 110.347329 366.959697 110.347329 
Q 365.757197 110.347329 365.092197 111.552329 
L 364.802197 111.449829 
Q 365.224697 109.949829 366.084697 109.232329 
Q 366.944697 108.512329 368.069697 108.512329 
Q 368.872197 108.512329 369.537197 108.887329 
Q 370.202197 109.262329 370.577197 109.914829 
Q 370.952197 110.567329 370.952197 111.137329 
Q 370.952197 112.177329 370.372197 113.247329 
Q 369.584697 114.692329 366.927197 117.277329 
L 369.217197 117.277329 
Q 370.059697 117.277329 370.314697 117.207329 
Q 370.569697 117.137329 370.732197 116.969829 
Q 370.897197 116.802329 371.162197 116.262329 
L 371.444697 116.262329 
L 370.849697 119.324829 
z
M 374.224697 116.917329 
Q 374.772197 116.917329 375.149697 117.302329 
Q 375.529697 117.684829 375.529697 118.222329 
Q 375.529697 118.762329 375.147197 119.142329 
Q 374.764697 119.519829 374.224697 119.519829 
Q 373.684697 119.519829 373.304697 119.142329 
Q 372.927197 118.762329 372.927197 118.222329 
Q 372.927197 117.684829 373.304697 117.302329 
Q 373.684697 116.917329 374.224697 116.917329 
z
M 382.849697 119.324829 
L 376.614697 119.324829 
L 376.614697 119.152329 
Q 379.482197 115.739829 380.094697 114.559829 
Q 380.709697 113.379829 380.709697 112.254829 
Q 380.709697 111.434829 380.202197 110.892329 
Q 379.694697 110.347329 378.959697 110.347329 
Q 377.757197 110.347329 377.092197 111.552329 
L 376.802197 111.449829 
Q 377.224697 109.949829 378.084697 109.232329 
Q 378.944697 108.512329 380.069697 108.512329 
Q 380.872197 108.512329 381.537197 108.887329 
Q 382.202197 109.262329 382.577197 109.914829 
Q 382.952197 110.567329 382.952197 111.137329 
Q 382.952197 112.177329 382.372197 113.247329 
Q 381.584697 114.692329 378.927197 117.277329 
L 381.217197 117.277329 
Q 382.059697 117.277329 382.314697 117.207329 
Q 382.569697 117.137329 382.732197 116.969829 
Q 382.897197 116.802329 383.162197 116.262329 
L 383.444697 116.262329 
L 382.849697 119.324829 
z
" style="stroke: #ffffff; stroke-width: 3.8"/>
    <path d="M 363.739697 108.512329 
L 363.739697 108.729829 
Q 362.327197 109.089829 361.469697 109.657329 
Q 360.614697 110.222329 360.117197 111.032329 
Q 359.622197 111.839829 359.349697 113.034829 
Q 359.694697 112.802329 359.919697 112.729829 
Q 360.427197 112.574829 360.944697 112.574829 
Q 362.132197 112.574829 362.924697 113.439829 
Q 363.717197 114.302329 363.717197 115.792329 
Q 363.717197 116.839829 363.287197 117.714829 
Q 362.857197 118.589829 362.067197 119.067329 
Q 361.279697 119.544829 360.382197 119.544829 
Q 359.404697 119.544829 358.574697 119.009829 
Q 357.747197 118.472329 357.282197 117.442329 
Q 356.819697 116.409829 356.819697 115.199829 
Q 356.819697 113.417329 357.674697 111.882329 
Q 358.529697 110.347329 360.102197 109.437329 
Q 361.677197 108.527329 363.739697 108.512329 
z
M 359.247197 113.667329 
Q 359.184697 114.747329 359.184697 115.247329 
Q 359.184697 116.324829 359.392197 117.332329 
Q 359.599697 118.339829 359.959697 118.747329 
Q 360.217197 119.034829 360.569697 119.034829 
Q 360.927197 119.034829 361.207197 118.617329 
Q 361.489697 118.199829 361.489697 116.917329 
Q 361.489697 114.762329 360.967197 113.942329 
Q 360.632197 113.409829 360.059697 113.409829 
Q 359.747197 113.409829 359.247197 113.667329 
z
M 370.849697 119.324829 
L 364.614697 119.324829 
L 364.614697 119.152329 
Q 367.482197 115.739829 368.094697 114.559829 
Q 368.709697 113.379829 368.709697 112.254829 
Q 368.709697 111.434829 368.202197 110.892329 
Q 367.694697 110.347329 366.959697 110.347329 
Q 365.757197 110.347329 365.092197 111.552329 
L 364.802197 111.449829 
Q 365.224697 109.949829 366.084697 109.232329 
Q 366.944697 108.512329 368.069697 108.512329 
Q 368.872197 108.512329 369.537197 108.887329 
Q 370.202197 109.262329 370.577197 109.914829 
Q 370.952197 110.567329 370.952197 111.137329 
Q 370.952197 112.177329 370.372197 113.247329 
Q 369.584697 114.692329 366.927197 117.277329 
L 369.217197 117.277329 
Q 370.059697 117.277329 370.314697 117.207329 
Q 370.569697 117.137329 370.732197 116.969829 
Q 370.897197 116.802329 371.162197 116.262329 
L 371.444697 116.262329 
L 370.849697 119.324829 
z
M 374.224697 116.917329 
Q 374.772197 116.917329 375.149697 117.302329 
Q 375.529697 117.684829 375.529697 118.222329 
Q 375.529697 118.762329 375.147197 119.142329 
Q 374.764697 119.519829 374.224697 119.519829 
Q 373.684697 119.519829 373.304697 119.142329 
Q 372.927197 118.762329 372.927197 118.222329 
Q 372.927197 117.684829 373.304697 117.302329 
Q 373.684697 116.917329 374.224697 116.917329 
z
M 382.849697 119.324829 
L 376.614697 119.324829 
L 376.614697 119.152329 
Q 379.482197 115.739829 380.094697 114.559829 
Q 380.709697 113.379829 380.709697 112.254829 
Q 380.709697 111.434829 380.202197 110.892329 
Q 379.694697 110.347329 378.959697 110.347329 
Q 377.757197 110.347329 377.092197 111.552329 
L 376.802197 111.449829 
Q 377.224697 109.949829 378.084697 109.232329 
Q 378.944697 108.512329 380.069697 108.512329 
Q 380.872197 108.512329 381.537197 108.887329 
Q 382.202197 109.262329 382.577197 109.914829 
Q 382.952197 110.567329 382.952197 111.137329 
Q 382.952197 112.177329 382.372197 113.247329 
Q 381.584697 114.692329 378.927197 117.277329 
L 381.217197 117.277329 
Q 382.059697 117.277329 382.314697 117.207329 
Q 382.569697 117.137329 382.732197 116.969829 
Q 382.897197 116.802329 383.162197 116.262329 
L 383.444697 116.262329 
L 382.849697 119.324829 
z
"/>
   </g>
   <g id="text_28">
    <path d="M 578.778672 332.239136 
L 572.543672 332.239136 
L 572.543672 332.066636 
Q 575.411172 328.654136 576.023672 327.474136 
Q 576.638672 326.294136 576.638672 325.169136 
Q 576.638672 324.349136 576.131172 323.806636 
Q 575.623672 323.261636 574.888672 323.261636 
Q 573.686172 323.261636 573.021172 324.466636 
L 572.731172 324.364136 
Q 573.153672 322.864136 574.013672 322.146636 
Q 574.873672 321.426636 575.998672 321.426636 
Q 576.801172 321.426636 577.466172 321.801636 
Q 578.131172 322.176636 578.506172 322.829136 
Q 578.881172 323.481636 578.881172 324.051636 
Q 578.881172 325.091636 578.301172 326.161636 
Q 577.513672 327.606636 574.856172 330.191636 
L 577.146172 330.191636 
Q 577.988672 330.191636 578.243672 330.121636 
Q 578.498672 330.051636 578.661172 329.884136 
Q 578.826172 329.716636 579.091172 329.176636 
L 579.373672 329.176636 
L 578.778672 332.239136 
z
M 582.988672 332.459136 
L 585.873672 323.716636 
L 583.676172 323.716636 
Q 582.388672 323.716636 581.738672 324.051636 
Q 581.286172 324.286636 580.988672 324.934136 
L 580.693672 324.934136 
L 581.458672 321.644136 
L 587.771172 321.644136 
L 584.216172 332.459136 
L 582.988672 332.459136 
z
M 590.153672 329.831636 
Q 590.701172 329.831636 591.078672 330.216636 
Q 591.458672 330.599136 591.458672 331.136636 
Q 591.458672 331.676636 591.076172 332.056636 
Q 590.693672 332.434136 590.153672 332.434136 
Q 589.613672 332.434136 589.233672 332.056636 
Q 588.856172 331.676636 588.856172 331.136636 
Q 588.856172 330.599136 589.233672 330.216636 
Q 589.613672 329.831636 590.153672 329.831636 
z
M 598.778672 332.239136 
L 592.543672 332.239136 
L 592.543672 332.066636 
Q 595.411172 328.654136 596.023672 327.474136 
Q 596.638672 326.294136 596.638672 325.169136 
Q 596.638672 324.349136 596.131172 323.806636 
Q 595.623672 323.261636 594.888672 323.261636 
Q 593.686172 323.261636 593.021172 324.466636 
L 592.731172 324.364136 
Q 593.153672 322.864136 594.013672 322.146636 
Q 594.873672 321.426636 595.998672 321.426636 
Q 596.801172 321.426636 597.466172 321.801636 
Q 598.131172 322.176636 598.506172 322.829136 
Q 598.881172 323.481636 598.881172 324.051636 
Q 598.881172 325.091636 598.301172 326.161636 
Q 597.513672 327.606636 594.856172 330.191636 
L 597.146172 330.191636 
Q 597.988672 330.191636 598.243672 330.121636 
Q 598.498672 330.051636 598.661172 329.884136 
Q 598.826172 329.716636 599.091172 329.176636 
L 599.373672 329.176636 
L 598.778672 332.239136 
z
" style="stroke: #ffffff; stroke-width: 3.8"/>
    <path d="M 578.778672 332.239136 
L 572.543672 332.239136 
L 572.543672 332.066636 
Q 575.411172 328.654136 576.023672 327.474136 
Q 576.638672 326.294136 576.638672 325.169136 
Q 576.638672 324.349136 576.131172 323.806636 
Q 575.623672 323.261636 574.888672 323.261636 
Q 573.686172 323.261636 573.021172 324.466636 
L 572.731172 324.364136 
Q 573.153672 322.864136 574.013672 322.146636 
Q 574.873672 321.426636 575.998672 321.426636 
Q 576.801172 321.426636 577.466172 321.801636 
Q 578.131172 322.176636 578.506172 322.829136 
Q 578.881172 323.481636 578.881172 324.051636 
Q 578.881172 325.091636 578.301172 326.161636 
Q 577.513672 327.606636 574.856172 330.191636 
L 577.146172 330.191636 
Q 577.988672 330.191636 578.243672 330.121636 
Q 578.498672 330.051636 578.661172 329.884136 
Q 578.826172 329.716636 579.091172 329.176636 
L 579.373672 329.176636 
L 578.778672 332.239136 
z
M 582.988672 332.459136 
L 585.873672 323.716636 
L 583.676172 323.716636 
Q 582.388672 323.716636 581.738672 324.051636 
Q 581.286172 324.286636 580.988672 324.934136 
L 580.693672 324.934136 
L 581.458672 321.644136 
L 587.771172 321.644136 
L 584.216172 332.459136 
L 582.988672 332.459136 
z
M 590.153672 329.831636 
Q 590.701172 329.831636 591.078672 330.216636 
Q 591.458672 330.599136 591.458672 331.136636 
Q 591.458672 331.676636 591.076172 332.056636 
Q 590.693672 332.434136 590.153672 332.434136 
Q 589.613672 332.434136 589.233672 332.056636 
Q 588.856172 331.676636 588.856172 331.136636 
Q 588.856172 330.599136 589.233672 330.216636 
Q 589.613672 329.831636 590.153672 329.831636 
z
M 598.778672 332.239136 
L 592.543672 332.239136 
L 592.543672 332.066636 
Q 595.411172 328.654136 596.023672 327.474136 
Q 596.638672 326.294136 596.638672 325.169136 
Q 596.638672 324.349136 596.131172 323.806636 
Q 595.623672 323.261636 594.888672 323.261636 
Q 593.686172 323.261636 593.021172 324.466636 
L 592.731172 324.364136 
Q 593.153672 322.864136 594.013672 322.146636 
Q 594.873672 321.426636 595.998672 321.426636 
Q 596.801172 321.426636 597.466172 321.801636 
Q 598.131172 322.176636 598.506172 322.829136 
Q 598.881172 323.481636 598.881172 324.051636 
Q 598.881172 325.091636 598.301172 326.161636 
Q 597.513672 327.606636 594.856172 330.191636 
L 597.146172 330.191636 
Q 597.988672 330.191636 598.243672 330.121636 
Q 598.498672 330.051636 598.661172 329.884136 
Q 598.826172 329.716636 599.091172 329.176636 
L 599.373672 329.176636 
L 598.778672 332.239136 
z
"/>
   </g>
   <g id="text_29">
    <path d="M 580.145809 428.293315 
Q 580.145809 429.781597 579.728622 431.070659 
Q 579.477841 431.860503 579.055966 432.366753 
Q 578.636434 432.870659 578.102059 433.168315 
Q 577.567684 433.465972 576.937216 433.465972 
Q 576.220028 433.465972 575.641122 433.100347 
Q 575.062216 432.732378 574.614559 432.050347 
Q 574.293466 431.553472 574.052059 430.726128 
Q 573.735653 429.605815 573.735653 428.410503 
Q 573.735653 426.793315 574.190341 425.436284 
Q 574.562997 424.315972 575.324716 423.720659 
Q 576.086434 423.123003 576.937216 423.123003 
Q 577.802059 423.123003 578.552059 423.713628 
Q 579.302059 424.301909 579.653622 425.298003 
Q 580.145809 426.666753 580.145809 428.293315 
z
M 577.888778 428.279253 
Q 577.888778 425.670659 577.860653 425.239409 
Q 577.785653 424.222222 577.509091 423.863628 
Q 577.326278 423.629253 576.916122 423.629253 
Q 576.599716 423.629253 576.416903 423.805034 
Q 576.145028 424.060503 576.048934 424.709722 
Q 575.955184 425.356597 575.955184 429.230815 
Q 575.955184 431.34019 576.102841 432.057378 
Q 576.212997 432.57769 576.416903 432.753472 
Q 576.623153 432.929253 576.958309 432.929253 
Q 577.326278 432.929253 577.509091 432.694878 
Q 577.816122 432.284722 577.860653 431.429253 
L 577.888778 428.279253 
z
M 582.569247 431.00269 
Q 583.082528 431.00269 583.436434 431.363628 
Q 583.792684 431.722222 583.792684 432.226128 
Q 583.792684 432.732378 583.434091 433.088628 
Q 583.075497 433.442534 582.569247 433.442534 
Q 582.062997 433.442534 581.706747 433.088628 
Q 581.352841 432.732378 581.352841 432.226128 
Q 581.352841 431.722222 581.706747 431.363628 
Q 582.062997 431.00269 582.569247 431.00269 
z
M 591.489559 423.123003 
L 591.489559 423.326909 
Q 590.165341 423.664409 589.361434 424.19644 
Q 588.559872 424.726128 588.093466 425.485503 
Q 587.629403 426.242534 587.373934 427.362847 
Q 587.697372 427.144878 587.908309 427.076909 
Q 588.384091 426.931597 588.869247 426.931597 
Q 589.982528 426.931597 590.725497 427.742534 
Q 591.468466 428.551128 591.468466 429.948003 
Q 591.468466 430.930034 591.065341 431.750347 
Q 590.662216 432.570659 589.921591 433.018315 
Q 589.183309 433.465972 588.341903 433.465972 
Q 587.425497 433.465972 586.647372 432.964409 
Q 585.871591 432.460503 585.435653 431.494878 
Q 585.002059 430.526909 585.002059 429.392534 
Q 585.002059 427.72144 585.803622 426.282378 
Q 586.605184 424.843315 588.079403 423.99019 
Q 589.555966 423.137065 591.489559 423.123003 
z
M 587.277841 427.955815 
Q 587.219247 428.968315 587.219247 429.437065 
Q 587.219247 430.447222 587.413778 431.391753 
Q 587.608309 432.336284 587.945809 432.718315 
Q 588.187216 432.987847 588.517684 432.987847 
Q 588.852841 432.987847 589.115341 432.59644 
Q 589.380184 432.205034 589.380184 431.00269 
Q 589.380184 428.982378 588.890341 428.213628 
Q 588.576278 427.714409 588.039559 427.714409 
Q 587.746591 427.714409 587.277841 427.955815 
z
" style="fill: #404040; stroke: #ffffff; stroke-width: 3.8"/>
    <path d="M 580.145809 428.293315 
Q 580.145809 429.781597 579.728622 431.070659 
Q 579.477841 431.860503 579.055966 432.366753 
Q 578.636434 432.870659 578.102059 433.168315 
Q 577.567684 433.465972 576.937216 433.465972 
Q 576.220028 433.465972 575.641122 433.100347 
Q 575.062216 432.732378 574.614559 432.050347 
Q 574.293466 431.553472 574.052059 430.726128 
Q 573.735653 429.605815 573.735653 428.410503 
Q 573.735653 426.793315 574.190341 425.436284 
Q 574.562997 424.315972 575.324716 423.720659 
Q 576.086434 423.123003 576.937216 423.123003 
Q 577.802059 423.123003 578.552059 423.713628 
Q 579.302059 424.301909 579.653622 425.298003 
Q 580.145809 426.666753 580.145809 428.293315 
z
M 577.888778 428.279253 
Q 577.888778 425.670659 577.860653 425.239409 
Q 577.785653 424.222222 577.509091 423.863628 
Q 577.326278 423.629253 576.916122 423.629253 
Q 576.599716 423.629253 576.416903 423.805034 
Q 576.145028 424.060503 576.048934 424.709722 
Q 575.955184 425.356597 575.955184 429.230815 
Q 575.955184 431.34019 576.102841 432.057378 
Q 576.212997 432.57769 576.416903 432.753472 
Q 576.623153 432.929253 576.958309 432.929253 
Q 577.326278 432.929253 577.509091 432.694878 
Q 577.816122 432.284722 577.860653 431.429253 
L 577.888778 428.279253 
z
M 582.569247 431.00269 
Q 583.082528 431.00269 583.436434 431.363628 
Q 583.792684 431.722222 583.792684 432.226128 
Q 583.792684 432.732378 583.434091 433.088628 
Q 583.075497 433.442534 582.569247 433.442534 
Q 582.062997 433.442534 581.706747 433.088628 
Q 581.352841 432.732378 581.352841 432.226128 
Q 581.352841 431.722222 581.706747 431.363628 
Q 582.062997 431.00269 582.569247 431.00269 
z
M 591.489559 423.123003 
L 591.489559 423.326909 
Q 590.165341 423.664409 589.361434 424.19644 
Q 588.559872 424.726128 588.093466 425.485503 
Q 587.629403 426.242534 587.373934 427.362847 
Q 587.697372 427.144878 587.908309 427.076909 
Q 588.384091 426.931597 588.869247 426.931597 
Q 589.982528 426.931597 590.725497 427.742534 
Q 591.468466 428.551128 591.468466 429.948003 
Q 591.468466 430.930034 591.065341 431.750347 
Q 590.662216 432.570659 589.921591 433.018315 
Q 589.183309 433.465972 588.341903 433.465972 
Q 587.425497 433.465972 586.647372 432.964409 
Q 585.871591 432.460503 585.435653 431.494878 
Q 585.002059 430.526909 585.002059 429.392534 
Q 585.002059 427.72144 585.803622 426.282378 
Q 586.605184 424.843315 588.079403 423.99019 
Q 589.555966 423.137065 591.489559 423.123003 
z
M 587.277841 427.955815 
Q 587.219247 428.968315 587.219247 429.437065 
Q 587.219247 430.447222 587.413778 431.391753 
Q 587.608309 432.336284 587.945809 432.718315 
Q 588.187216 432.987847 588.517684 432.987847 
Q 588.852841 432.987847 589.115341 432.59644 
Q 589.380184 432.205034 589.380184 431.00269 
Q 589.380184 428.982378 588.890341 428.213628 
Q 588.576278 427.714409 588.039559 427.714409 
Q 587.746591 427.714409 587.277841 427.955815 
z
" style="fill: #404040"/>
   </g>
   <g id="text_30">
    <path d="M 564.970361 403.311563 
L 564.970361 403.056094 
Q 565.804736 402.812344 566.12583 402.60375 
Q 566.449268 402.395156 566.683643 401.968594 
Q 566.918018 401.539688 566.918018 401.099063 
Q 566.918018 400.492031 566.475049 400.056094 
Q 566.03208 399.620156 565.373486 399.620156 
Q 564.346924 399.620156 563.629736 400.702969 
L 563.357861 400.609219 
Q 563.885205 399.385781 564.710205 398.771719 
Q 565.535205 398.155313 566.545361 398.155313 
Q 567.576611 398.155313 568.246924 398.785781 
Q 568.917236 399.413906 568.917236 400.257656 
Q 568.917236 400.806094 568.605518 401.317031 
Q 568.296143 401.825625 567.628174 402.212344 
Q 568.485986 402.629531 568.935986 403.24125 
Q 569.385986 403.852969 569.385986 404.776406 
Q 569.385986 406.327969 568.260986 407.417813 
Q 567.13833 408.505313 565.249268 408.505313 
Q 563.98833 408.505313 563.409424 408.085781 
Q 562.992236 407.792813 562.992236 407.333438 
Q 562.992236 406.995938 563.233643 406.759219 
Q 563.475049 406.520156 563.791455 406.520156 
Q 564.032861 406.520156 564.246143 406.620938 
Q 564.36333 406.679531 565.07583 407.263125 
Q 565.790674 407.844375 566.414111 407.844375 
Q 566.955518 407.844375 567.342236 407.417813 
Q 567.731299 406.988906 567.731299 406.327969 
Q 567.731299 405.324844 567.028174 404.47875 
Q 566.325049 403.632656 564.970361 403.311563 
z
M 576.461768 408.292031 
L 570.616455 408.292031 
L 570.616455 408.130313 
Q 573.304736 404.931094 573.878955 403.824844 
Q 574.455518 402.718594 574.455518 401.663906 
Q 574.455518 400.895156 573.979736 400.386563 
Q 573.503955 399.875625 572.814893 399.875625 
Q 571.687549 399.875625 571.064111 401.005313 
L 570.792236 400.909219 
Q 571.18833 399.502969 571.99458 398.830313 
Q 572.80083 398.155313 573.855518 398.155313 
Q 574.607861 398.155313 575.231299 398.506875 
Q 575.854736 398.858438 576.206299 399.470156 
Q 576.557861 400.081875 576.557861 400.61625 
Q 576.557861 401.59125 576.014111 402.594375 
Q 575.27583 403.949063 572.784424 406.3725 
L 574.931299 406.3725 
Q 575.721143 406.3725 575.960205 406.306875 
Q 576.199268 406.24125 576.351611 406.084219 
Q 576.506299 405.927188 576.754736 405.420938 
L 577.01958 405.420938 
L 576.461768 408.292031 
z
M 579.62583 406.035 
Q 580.139111 406.035 580.493018 406.395938 
Q 580.849268 406.754531 580.849268 407.258438 
Q 580.849268 407.764688 580.490674 408.120938 
Q 580.13208 408.474844 579.62583 408.474844 
Q 579.11958 408.474844 578.76333 408.120938 
Q 578.409424 407.764688 578.409424 407.258438 
Q 578.409424 406.754531 578.76333 406.395938 
Q 579.11958 406.035 579.62583 406.035 
z
M 581.962549 408.498281 
L 581.962549 408.292031 
Q 583.178955 408.013125 584.025049 407.471719 
Q 584.871143 406.930313 585.36333 406.131094 
Q 585.857861 405.331875 586.05708 404.293594 
Q 585.602393 404.527969 585.283643 404.619375 
Q 584.964893 404.710781 584.61333 404.710781 
Q 583.485986 404.710781 582.733643 403.8975 
Q 581.983643 403.084219 581.983643 401.670938 
Q 581.983643 400.688906 582.389111 399.873281 
Q 582.796924 399.055313 583.551611 398.605313 
Q 584.306299 398.155313 585.11958 398.155313 
Q 585.991455 398.155313 586.767236 398.654531 
Q 587.543018 399.151406 588.004736 400.095938 
Q 588.466455 401.040469 588.466455 402.249844 
Q 588.466455 403.817813 587.714111 405.254531 
Q 586.964111 406.688906 585.478174 407.556094 
Q 583.992236 408.423281 581.962549 408.498281 
z
M 586.167236 403.677188 
Q 586.239893 402.856875 586.239893 402.235781 
Q 586.239893 400.902188 585.932861 399.751406 
Q 585.75708 399.113906 585.412549 398.813906 
Q 585.229736 398.652188 584.936768 398.652188 
Q 584.568799 398.652188 584.364893 398.968594 
Q 584.078955 399.399844 584.078955 400.61625 
Q 584.078955 402.645938 584.561768 403.414688 
Q 584.878174 403.911563 585.412549 403.911563 
Q 585.698486 403.911563 586.167236 403.677188 
z
" style="fill: #404040; stroke: #ffffff; stroke-width: 3.8"/>
    <path d="M 564.970361 403.311563 
L 564.970361 403.056094 
Q 565.804736 402.812344 566.12583 402.60375 
Q 566.449268 402.395156 566.683643 401.968594 
Q 566.918018 401.539688 566.918018 401.099063 
Q 566.918018 400.492031 566.475049 400.056094 
Q 566.03208 399.620156 565.373486 399.620156 
Q 564.346924 399.620156 563.629736 400.702969 
L 563.357861 400.609219 
Q 563.885205 399.385781 564.710205 398.771719 
Q 565.535205 398.155313 566.545361 398.155313 
Q 567.576611 398.155313 568.246924 398.785781 
Q 568.917236 399.413906 568.917236 400.257656 
Q 568.917236 400.806094 568.605518 401.317031 
Q 568.296143 401.825625 567.628174 402.212344 
Q 568.485986 402.629531 568.935986 403.24125 
Q 569.385986 403.852969 569.385986 404.776406 
Q 569.385986 406.327969 568.260986 407.417813 
Q 567.13833 408.505313 565.249268 408.505313 
Q 563.98833 408.505313 563.409424 408.085781 
Q 562.992236 407.792813 562.992236 407.333438 
Q 562.992236 406.995938 563.233643 406.759219 
Q 563.475049 406.520156 563.791455 406.520156 
Q 564.032861 406.520156 564.246143 406.620938 
Q 564.36333 406.679531 565.07583 407.263125 
Q 565.790674 407.844375 566.414111 407.844375 
Q 566.955518 407.844375 567.342236 407.417813 
Q 567.731299 406.988906 567.731299 406.327969 
Q 567.731299 405.324844 567.028174 404.47875 
Q 566.325049 403.632656 564.970361 403.311563 
z
M 576.461768 408.292031 
L 570.616455 408.292031 
L 570.616455 408.130313 
Q 573.304736 404.931094 573.878955 403.824844 
Q 574.455518 402.718594 574.455518 401.663906 
Q 574.455518 400.895156 573.979736 400.386563 
Q 573.503955 399.875625 572.814893 399.875625 
Q 571.687549 399.875625 571.064111 401.005313 
L 570.792236 400.909219 
Q 571.18833 399.502969 571.99458 398.830313 
Q 572.80083 398.155313 573.855518 398.155313 
Q 574.607861 398.155313 575.231299 398.506875 
Q 575.854736 398.858438 576.206299 399.470156 
Q 576.557861 400.081875 576.557861 400.61625 
Q 576.557861 401.59125 576.014111 402.594375 
Q 575.27583 403.949063 572.784424 406.3725 
L 574.931299 406.3725 
Q 575.721143 406.3725 575.960205 406.306875 
Q 576.199268 406.24125 576.351611 406.084219 
Q 576.506299 405.927188 576.754736 405.420938 
L 577.01958 405.420938 
L 576.461768 408.292031 
z
M 579.62583 406.035 
Q 580.139111 406.035 580.493018 406.395938 
Q 580.849268 406.754531 580.849268 407.258438 
Q 580.849268 407.764688 580.490674 408.120938 
Q 580.13208 408.474844 579.62583 408.474844 
Q 579.11958 408.474844 578.76333 408.120938 
Q 578.409424 407.764688 578.409424 407.258438 
Q 578.409424 406.754531 578.76333 406.395938 
Q 579.11958 406.035 579.62583 406.035 
z
M 581.962549 408.498281 
L 581.962549 408.292031 
Q 583.178955 408.013125 584.025049 407.471719 
Q 584.871143 406.930313 585.36333 406.131094 
Q 585.857861 405.331875 586.05708 404.293594 
Q 585.602393 404.527969 585.283643 404.619375 
Q 584.964893 404.710781 584.61333 404.710781 
Q 583.485986 404.710781 582.733643 403.8975 
Q 581.983643 403.084219 581.983643 401.670938 
Q 581.983643 400.688906 582.389111 399.873281 
Q 582.796924 399.055313 583.551611 398.605313 
Q 584.306299 398.155313 585.11958 398.155313 
Q 585.991455 398.155313 586.767236 398.654531 
Q 587.543018 399.151406 588.004736 400.095938 
Q 588.466455 401.040469 588.466455 402.249844 
Q 588.466455 403.817813 587.714111 405.254531 
Q 586.964111 406.688906 585.478174 407.556094 
Q 583.992236 408.423281 581.962549 408.498281 
z
M 586.167236 403.677188 
Q 586.239893 402.856875 586.239893 402.235781 
Q 586.239893 400.902188 585.932861 399.751406 
Q 585.75708 399.113906 585.412549 398.813906 
Q 585.229736 398.652188 584.936768 398.652188 
Q 584.568799 398.652188 584.364893 398.968594 
Q 584.078955 399.399844 584.078955 400.61625 
Q 584.078955 402.645938 584.561768 403.414688 
Q 584.878174 403.911563 585.412549 403.911563 
Q 585.698486 403.911563 586.167236 403.677188 
z
" style="fill: #404040"/>
   </g>
   <g id="text_31">
    <path d="M 469.2729 336.258151 
L 473.9229 336.258151 
L 473.184619 338.149558 
L 469.2729 338.149558 
L 468.900244 339.13862 
Q 471.426806 339.23237 472.788525 340.397214 
Q 473.908838 341.355808 473.908838 342.785495 
Q 473.908838 343.699558 473.388525 344.57612 
Q 472.868213 345.450339 471.923681 345.923776 
Q 470.97915 346.397214 469.851806 346.397214 
Q 468.6354 346.397214 467.983838 345.942526 
Q 467.52915 345.619089 467.52915 345.208933 
Q 467.52915 344.89487 467.765869 344.653464 
Q 468.004931 344.412058 468.321338 344.412058 
Q 468.607275 344.412058 468.900244 344.529245 
Q 469.193213 344.646433 469.903369 345.143308 
Q 470.348681 345.450339 470.672119 345.567526 
Q 470.899463 345.656589 471.1854 345.656589 
Q 471.7854 345.656589 472.204931 345.218308 
Q 472.626806 344.777683 472.626806 344.161276 
Q 472.626806 342.872214 471.337744 342.068308 
Q 470.048681 341.262058 468.086963 341.262058 
Q 467.887744 341.262058 467.493994 341.269089 
L 469.2729 336.258151 
z
M 480.698681 346.190964 
L 474.853369 346.190964 
L 474.853369 346.029245 
Q 477.54165 342.830026 478.115869 341.723776 
Q 478.692431 340.617526 478.692431 339.562839 
Q 478.692431 338.794089 478.21665 338.285495 
Q 477.740869 337.774558 477.051806 337.774558 
Q 475.924463 337.774558 475.301025 338.904245 
L 475.02915 338.808151 
Q 475.425244 337.401901 476.231494 336.729245 
Q 477.037744 336.054245 478.092431 336.054245 
Q 478.844775 336.054245 479.468213 336.405808 
Q 480.09165 336.75737 480.443213 337.369089 
Q 480.794775 337.980808 480.794775 338.515183 
Q 480.794775 339.490183 480.251025 340.493308 
Q 479.512744 341.847995 477.021338 344.271433 
L 479.168213 344.271433 
Q 479.958056 344.271433 480.197119 344.205808 
Q 480.436181 344.140183 480.588525 343.983151 
Q 480.743213 343.82612 480.99165 343.31987 
L 481.256494 343.31987 
L 480.698681 346.190964 
z
M 483.862744 343.933933 
Q 484.376025 343.933933 484.729931 344.29487 
Q 485.086181 344.653464 485.086181 345.15737 
Q 485.086181 345.66362 484.727588 346.01987 
Q 484.368994 346.373776 483.862744 346.373776 
Q 483.356494 346.373776 483.000244 346.01987 
Q 482.646338 345.66362 482.646338 345.15737 
Q 482.646338 344.653464 483.000244 344.29487 
Q 483.356494 343.933933 483.862744 343.933933 
z
M 492.783056 336.054245 
L 492.783056 336.258151 
Q 491.458838 336.595651 490.654931 337.127683 
Q 489.853369 337.65737 489.386963 338.416745 
Q 488.9229 339.173776 488.667431 340.294089 
Q 488.990869 340.07612 489.201806 340.008151 
Q 489.677588 339.862839 490.162744 339.862839 
Q 491.276025 339.862839 492.018994 340.673776 
Q 492.761963 341.48237 492.761963 342.879245 
Q 492.761963 343.861276 492.358838 344.681589 
Q 491.955713 345.501901 491.215088 345.949558 
Q 490.476806 346.397214 489.6354 346.397214 
Q 488.718994 346.397214 487.940869 345.895651 
Q 487.165088 345.391745 486.72915 344.42612 
Q 486.295556 343.458151 486.295556 342.323776 
Q 486.295556 340.652683 487.097119 339.21362 
Q 487.898681 337.774558 489.3729 336.921433 
Q 490.849463 336.068308 492.783056 336.054245 
z
M 488.571338 340.887058 
Q 488.512744 341.899558 488.512744 342.368308 
Q 488.512744 343.378464 488.707275 344.322995 
Q 488.901806 345.267526 489.239306 345.649558 
Q 489.480713 345.919089 489.811181 345.919089 
Q 490.146338 345.919089 490.408838 345.527683 
Q 490.673681 345.136276 490.673681 343.933933 
Q 490.673681 341.91362 490.183838 341.14487 
Q 489.869775 340.645651 489.333056 340.645651 
Q 489.040088 340.645651 488.571338 340.887058 
z
" style="fill: #404040; stroke: #ffffff; stroke-width: 3.8"/>
    <path d="M 469.2729 336.258151 
L 473.9229 336.258151 
L 473.184619 338.149558 
L 469.2729 338.149558 
L 468.900244 339.13862 
Q 471.426806 339.23237 472.788525 340.397214 
Q 473.908838 341.355808 473.908838 342.785495 
Q 473.908838 343.699558 473.388525 344.57612 
Q 472.868213 345.450339 471.923681 345.923776 
Q 470.97915 346.397214 469.851806 346.397214 
Q 468.6354 346.397214 467.983838 345.942526 
Q 467.52915 345.619089 467.52915 345.208933 
Q 467.52915 344.89487 467.765869 344.653464 
Q 468.004931 344.412058 468.321338 344.412058 
Q 468.607275 344.412058 468.900244 344.529245 
Q 469.193213 344.646433 469.903369 345.143308 
Q 470.348681 345.450339 470.672119 345.567526 
Q 470.899463 345.656589 471.1854 345.656589 
Q 471.7854 345.656589 472.204931 345.218308 
Q 472.626806 344.777683 472.626806 344.161276 
Q 472.626806 342.872214 471.337744 342.068308 
Q 470.048681 341.262058 468.086963 341.262058 
Q 467.887744 341.262058 467.493994 341.269089 
L 469.2729 336.258151 
z
M 480.698681 346.190964 
L 474.853369 346.190964 
L 474.853369 346.029245 
Q 477.54165 342.830026 478.115869 341.723776 
Q 478.692431 340.617526 478.692431 339.562839 
Q 478.692431 338.794089 478.21665 338.285495 
Q 477.740869 337.774558 477.051806 337.774558 
Q 475.924463 337.774558 475.301025 338.904245 
L 475.02915 338.808151 
Q 475.425244 337.401901 476.231494 336.729245 
Q 477.037744 336.054245 478.092431 336.054245 
Q 478.844775 336.054245 479.468213 336.405808 
Q 480.09165 336.75737 480.443213 337.369089 
Q 480.794775 337.980808 480.794775 338.515183 
Q 480.794775 339.490183 480.251025 340.493308 
Q 479.512744 341.847995 477.021338 344.271433 
L 479.168213 344.271433 
Q 479.958056 344.271433 480.197119 344.205808 
Q 480.436181 344.140183 480.588525 343.983151 
Q 480.743213 343.82612 480.99165 343.31987 
L 481.256494 343.31987 
L 480.698681 346.190964 
z
M 483.862744 343.933933 
Q 484.376025 343.933933 484.729931 344.29487 
Q 485.086181 344.653464 485.086181 345.15737 
Q 485.086181 345.66362 484.727588 346.01987 
Q 484.368994 346.373776 483.862744 346.373776 
Q 483.356494 346.373776 483.000244 346.01987 
Q 482.646338 345.66362 482.646338 345.15737 
Q 482.646338 344.653464 483.000244 344.29487 
Q 483.356494 343.933933 483.862744 343.933933 
z
M 492.783056 336.054245 
L 492.783056 336.258151 
Q 491.458838 336.595651 490.654931 337.127683 
Q 489.853369 337.65737 489.386963 338.416745 
Q 488.9229 339.173776 488.667431 340.294089 
Q 488.990869 340.07612 489.201806 340.008151 
Q 489.677588 339.862839 490.162744 339.862839 
Q 491.276025 339.862839 492.018994 340.673776 
Q 492.761963 341.48237 492.761963 342.879245 
Q 492.761963 343.861276 492.358838 344.681589 
Q 491.955713 345.501901 491.215088 345.949558 
Q 490.476806 346.397214 489.6354 346.397214 
Q 488.718994 346.397214 487.940869 345.895651 
Q 487.165088 345.391745 486.72915 344.42612 
Q 486.295556 343.458151 486.295556 342.323776 
Q 486.295556 340.652683 487.097119 339.21362 
Q 487.898681 337.774558 489.3729 336.921433 
Q 490.849463 336.068308 492.783056 336.054245 
z
M 488.571338 340.887058 
Q 488.512744 341.899558 488.512744 342.368308 
Q 488.512744 343.378464 488.707275 344.322995 
Q 488.901806 345.267526 489.239306 345.649558 
Q 489.480713 345.919089 489.811181 345.919089 
Q 490.146338 345.919089 490.408838 345.527683 
Q 490.673681 345.136276 490.673681 343.933933 
Q 490.673681 341.91362 490.183838 341.14487 
Q 489.869775 340.645651 489.333056 340.645651 
Q 489.040088 340.645651 488.571338 340.887058 
z
" style="fill: #404040"/>
   </g>
   <g id="text_32">
    <path d="M 330.272992 379.069289 
Q 330.272992 380.55757 329.855804 381.846633 
Q 329.605023 382.636477 329.183148 383.142727 
Q 328.763617 383.646633 328.229242 383.944289 
Q 327.694867 384.241945 327.064398 384.241945 
Q 326.347211 384.241945 325.768304 383.87632 
Q 325.189398 383.508352 324.741742 382.82632 
Q 324.420648 382.329445 324.179242 381.502102 
Q 323.862836 380.381789 323.862836 379.186477 
Q 323.862836 377.569289 324.317523 376.212258 
Q 324.690179 375.091945 325.451898 374.496633 
Q 326.213617 373.898977 327.064398 373.898977 
Q 327.929242 373.898977 328.679242 374.489602 
Q 329.429242 375.077883 329.780804 376.073977 
Q 330.272992 377.442727 330.272992 379.069289 
z
M 328.015961 379.055227 
Q 328.015961 376.446633 327.987836 376.015383 
Q 327.912836 374.998195 327.636273 374.639602 
Q 327.453461 374.405227 327.043304 374.405227 
Q 326.726898 374.405227 326.544086 374.581008 
Q 326.272211 374.836477 326.176117 375.485695 
Q 326.082367 376.13257 326.082367 380.006789 
Q 326.082367 382.116164 326.230023 382.833352 
Q 326.340179 383.353664 326.544086 383.529445 
Q 326.750336 383.705227 327.085492 383.705227 
Q 327.453461 383.705227 327.636273 383.470852 
Q 327.943304 383.060695 327.987836 382.205227 
L 328.015961 379.055227 
z
M 332.696429 381.778664 
Q 333.209711 381.778664 333.563617 382.139602 
Q 333.919867 382.498195 333.919867 383.002102 
Q 333.919867 383.508352 333.561273 383.864602 
Q 333.202679 384.218508 332.696429 384.218508 
Q 332.190179 384.218508 331.833929 383.864602 
Q 331.480023 383.508352 331.480023 383.002102 
Q 331.480023 382.498195 331.833929 382.139602 
Q 332.190179 381.778664 332.696429 381.778664 
z
M 337.229242 384.241945 
L 339.933929 376.045852 
L 337.873773 376.045852 
Q 336.666742 376.045852 336.057367 376.359914 
Q 335.633148 376.580227 335.354242 377.187258 
L 335.077679 377.187258 
L 335.794867 374.102883 
L 341.712836 374.102883 
L 338.380023 384.241945 
L 337.229242 384.241945 
z
" style="fill: #404040; stroke: #ffffff; stroke-width: 3.8"/>
    <path d="M 330.272992 379.069289 
Q 330.272992 380.55757 329.855804 381.846633 
Q 329.605023 382.636477 329.183148 383.142727 
Q 328.763617 383.646633 328.229242 383.944289 
Q 327.694867 384.241945 327.064398 384.241945 
Q 326.347211 384.241945 325.768304 383.87632 
Q 325.189398 383.508352 324.741742 382.82632 
Q 324.420648 382.329445 324.179242 381.502102 
Q 323.862836 380.381789 323.862836 379.186477 
Q 323.862836 377.569289 324.317523 376.212258 
Q 324.690179 375.091945 325.451898 374.496633 
Q 326.213617 373.898977 327.064398 373.898977 
Q 327.929242 373.898977 328.679242 374.489602 
Q 329.429242 375.077883 329.780804 376.073977 
Q 330.272992 377.442727 330.272992 379.069289 
z
M 328.015961 379.055227 
Q 328.015961 376.446633 327.987836 376.015383 
Q 327.912836 374.998195 327.636273 374.639602 
Q 327.453461 374.405227 327.043304 374.405227 
Q 326.726898 374.405227 326.544086 374.581008 
Q 326.272211 374.836477 326.176117 375.485695 
Q 326.082367 376.13257 326.082367 380.006789 
Q 326.082367 382.116164 326.230023 382.833352 
Q 326.340179 383.353664 326.544086 383.529445 
Q 326.750336 383.705227 327.085492 383.705227 
Q 327.453461 383.705227 327.636273 383.470852 
Q 327.943304 383.060695 327.987836 382.205227 
L 328.015961 379.055227 
z
M 332.696429 381.778664 
Q 333.209711 381.778664 333.563617 382.139602 
Q 333.919867 382.498195 333.919867 383.002102 
Q 333.919867 383.508352 333.561273 383.864602 
Q 333.202679 384.218508 332.696429 384.218508 
Q 332.190179 384.218508 331.833929 383.864602 
Q 331.480023 383.508352 331.480023 383.002102 
Q 331.480023 382.498195 331.833929 382.139602 
Q 332.190179 381.778664 332.696429 381.778664 
z
M 337.229242 384.241945 
L 339.933929 376.045852 
L 337.873773 376.045852 
Q 336.666742 376.045852 336.057367 376.359914 
Q 335.633148 376.580227 335.354242 377.187258 
L 335.077679 377.187258 
L 335.794867 374.102883 
L 341.712836 374.102883 
L 338.380023 384.241945 
L 337.229242 384.241945 
z
" style="fill: #404040"/>
   </g>
  </g>
 </g>
 <defs>
  <clipPath id="p5648d490d2">
   <rect x="7.2" y="51.034687" width="730.764" height="433.118298"/>
  </clipPath>
 </defs>
</svg>
