<?xml version="1.0" encoding="utf-8" standalone="no"?>
<!DOCTYPE svg PUBLIC "-//W3C//DTD SVG 1.1//EN"
  "http://www.w3.org/Graphics/SVG/1.1/DTD/svg11.dtd">
<svg xmlns:xlink="http://www.w3.org/1999/xlink" width="745.164pt" height="495.663437pt" viewBox="0 0 745.164 495.663437" xmlns="http://www.w3.org/2000/svg" version="1.1">
 <metadata>
  <rdf:RDF xmlns:dc="http://purl.org/dc/elements/1.1/" xmlns:cc="http://creativecommons.org/ns#" xmlns:rdf="http://www.w3.org/1999/02/22-rdf-syntax-ns#">
   <cc:Work>
    <dc:type rdf:resource="http://purl.org/dc/dcmitype/StillImage"/>
    <dc:date>2026-07-13T16:58:36.719097</dc:date>
    <dc:format>image/svg+xml</dc:format>
    <dc:creator>
     <cc:Agent>
      <dc:title>Matplotlib v3.10.8, https://matplotlib.org/</dc:title>
     </cc:Agent>
    </dc:creator>
   </cc:Work>
  </rdf:RDF>
 </metadata>
 <defs>
  <style type="text/css">*{stroke-linejoin: round; stroke-linecap: butt}</style>
 </defs>
 <g id="figure_1">
  <g id="patch_1">
   <path d="M 0 495.663437 
L 745.164 495.663437 
L 745.164 0 
L 0 0 
L 0 495.663437 
z
" style="fill: none"/>
  </g>
  <g id="axes_1">
   <g id="patch_2">
    <path d="M 120.350555 429.618227 
Q 120.350555 454.003293 120.350555 476.228793 
" clip-path="url(#p3ff1589652)" style="fill: none; stroke: #111111; stroke-width: 1.931575; stroke-linejoin: miter; stroke-linecap: round"/>
    <path d="M 123.912659 469.104584 
L 120.350555 476.228793 
L 116.788451 469.104584 
z
" clip-path="url(#p3ff1589652)" style="fill: #111111; stroke: #111111; stroke-width: 1.931575; stroke-linejoin: miter; stroke-linecap: round"/>
   </g>
   <g id="patch_3">
    <path d="M 120.350555 331.183888 
Q 120.350555 353.730882 120.350555 372.901637 
" clip-path="url(#p3ff1589652)" style="fill: none; stroke: #111111; stroke-width: 3.019801; stroke-linejoin: miter; stroke-linecap: round"/>
    <path d="M 124.260891 365.080965 
L 120.350555 372.901637 
L 116.440219 365.080965 
z
" clip-path="url(#p3ff1589652)" style="fill: #111111; stroke: #111111; stroke-width: 3.019801; stroke-linejoin: miter; stroke-linecap: round"/>
   </g>
   <g id="patch_4">
    <path d="M 120.350555 237.154866 
Q 120.350555 259.337274 120.350555 276.840392 
" clip-path="url(#p3ff1589652)" style="fill: none; stroke: #111111; stroke-width: 4.185284; stroke-linejoin: miter; stroke-linecap: round"/>
    <path d="M 124.633846 268.27381 
L 120.350555 276.840392 
L 116.067264 268.27381 
z
" clip-path="url(#p3ff1589652)" style="fill: #111111; stroke: #111111; stroke-width: 4.185284; stroke-linejoin: miter; stroke-linecap: round"/>
   </g>
   <g id="patch_5">
    <path d="M 370.224697 282.567777 
Q 370.224697 304.365938 370.224697 323.683437 
" clip-path="url(#p3ff1589652)" style="fill: none; stroke: #111111; stroke-width: 2.218773; stroke-linejoin: miter; stroke-linecap: round"/>
    <path d="M 373.878704 316.375422 
L 370.224697 323.683437 
L 366.57069 316.375422 
z
" clip-path="url(#p3ff1589652)" style="fill: #111111; stroke: #111111; stroke-width: 2.218773; stroke-linejoin: miter; stroke-linecap: round"/>
   </g>
   <g id="patch_6">
    <path d="M 370.224697 193.91194 
Q 370.224697 214.156588 370.224697 230.014008 
" clip-path="url(#p3ff1589652)" style="fill: none; stroke: #111111; stroke-width: 3.924055; stroke-linejoin: miter; stroke-linecap: round"/>
    <path d="M 374.424394 221.614613 
L 370.224697 230.014008 
L 366.024999 221.614613 
z
" clip-path="url(#p3ff1589652)" style="fill: #111111; stroke: #111111; stroke-width: 3.924055; stroke-linejoin: miter; stroke-linecap: round"/>
   </g>
   <g id="patch_7">
    <path d="M 370.224697 111.321577 
Q 370.224697 130.087001 370.224697 142.367829 
" clip-path="url(#p3ff1589652)" style="fill: none; stroke: #111111; stroke-width: 5.8; stroke-linejoin: miter; stroke-linecap: round"/>
    <path d="M 375.024697 132.767829 
L 370.224697 142.367829 
L 365.424697 132.767829 
z
" clip-path="url(#p3ff1589652)" style="fill: #111111; stroke: #111111; stroke-width: 5.8; stroke-linejoin: miter; stroke-linecap: round"/>
   </g>
   <g id="patch_8">
    <path d="M 586.153672 222.577512 
Q 586.153672 246.843268 586.153672 267.518108 
" clip-path="url(#p3ff1589652)" style="fill: none; stroke: #111111; stroke-width: 3.211813; stroke-linejoin: miter; stroke-linecap: round"/>
    <path d="M 590.125453 259.574547 
L 586.153672 267.518108 
L 582.181892 259.574547 
z
" clip-path="url(#p3ff1589652)" style="fill: #111111; stroke: #111111; stroke-width: 3.211813; stroke-linejoin: miter; stroke-linecap: round"/>
   </g>
   <g id="line2d_1">
    <path d="M 165.610777 478.388359 
L 550.322663 478.388359 
" clip-path="url(#p3ff1589652)" style="fill: none; stroke-dasharray: 5.6,4.2; stroke-dashoffset: 0; stroke: #404040; stroke-width: 1.4"/>
   </g>
   <g id="line2d_2">
    <path d="M 165.610777 376.277877 
L 550.322663 376.277877 
" clip-path="url(#p3ff1589652)" style="fill: none; stroke-dasharray: 5.6,4.2; stroke-dashoffset: 0; stroke: #404040; stroke-width: 1.4"/>
   </g>
   <g id="line2d_3">
    <path d="M 415.484919 326.1641 
L 560.694797 326.1641 
" clip-path="url(#p3ff1589652)" style="fill: none; stroke-dasharray: 5.6,4.2; stroke-dashoffset: 0; stroke: #404040; stroke-width: 1.4"/>
   </g>
   <g id="patch_9">
    <path d="M 665.359061 271.109024 
Q 580.12884 372.454057 495.586402 472.981266 
" clip-path="url(#p3ff1589652)" style="fill: none; stroke: #404040; stroke-width: 0.955775; stroke-linejoin: miter; stroke-linecap: round"/>
    <path d="M 501.440275 470.451534 
L 495.586402 472.981266 
L 497.07494 466.780328 
z
" clip-path="url(#p3ff1589652)" style="fill: #404040; stroke: #404040; stroke-width: 0.955775; stroke-linejoin: miter; stroke-linecap: round"/>
   </g>
   <g id="patch_10">
    <path d="M 620.098839 271.109024 
Q 577.807078 321.397054 537.269925 369.598725 
" clip-path="url(#p3ff1589652)" style="fill: none; stroke: #404040; stroke-width: 2.438285; stroke-linejoin: miter; stroke-linecap: round"/>
    <path d="M 544.138135 366.630651 
L 537.269925 369.598725 
L 539.016392 362.323313 
z
" clip-path="url(#p3ff1589652)" style="fill: #404040; stroke: #404040; stroke-width: 2.438285; stroke-linejoin: miter; stroke-linecap: round"/>
   </g>
   <g id="patch_11">
    <path d="M 574.838617 271.109024 
Q 541.845508 296.79428 509.7496 321.781062 
" clip-path="url(#p3ff1589652)" style="fill: none; stroke: #404040; stroke-width: 1.01699; stroke-linejoin: miter; stroke-linecap: round"/>
    <path d="M 516.047029 320.518615 
L 509.7496 321.781062 
L 512.5181 315.98565 
z
" clip-path="url(#p3ff1589652)" style="fill: #404040; stroke: #404040; stroke-width: 1.01699; stroke-linejoin: miter; stroke-linecap: round"/>
   </g>
   <g id="patch_12">
    <path d="M 370.224697 326.1641 
Q 335.191977 349.55476 302.81028 371.175385 
" clip-path="url(#p3ff1589652)" style="fill: none; stroke: #404040; stroke-width: 2.851098; stroke-linejoin: miter; stroke-linecap: round"/>
    <path d="M 310.539235 370.203758 
L 302.81028 371.175385 
L 306.670352 364.409245 
z
" clip-path="url(#p3ff1589652)" style="fill: #404040; stroke: #404040; stroke-width: 2.851098; stroke-linejoin: miter; stroke-linecap: round"/>
   </g>
   <g id="line2d_4">
    <path d="M 120.350555 376.277877 
L 120.350555 425.048009 
" clip-path="url(#p3ff1589652)" style="fill: none; stroke: #111111; stroke-width: 1.931575"/>
   </g>
   <g id="line2d_5">
    <path d="M 120.350555 281.519682 
L 120.350555 326.61367 
" clip-path="url(#p3ff1589652)" style="fill: none; stroke: #111111; stroke-width: 3.019801"/>
   </g>
   <g id="line2d_6">
    <path d="M 120.350555 188.219833 
L 120.350555 232.584649 
" clip-path="url(#p3ff1589652)" style="fill: none; stroke: #111111; stroke-width: 4.185284"/>
   </g>
   <g id="line2d_7">
    <path d="M 370.224697 234.401236 
L 370.224697 277.997559 
" clip-path="url(#p3ff1589652)" style="fill: none; stroke: #111111; stroke-width: 2.218773"/>
   </g>
   <g id="line2d_8">
    <path d="M 370.224697 148.852426 
L 370.224697 189.341722 
" clip-path="url(#p3ff1589652)" style="fill: none; stroke: #111111; stroke-width: 3.924055"/>
   </g>
   <g id="line2d_9">
    <path d="M 370.224697 69.220509 
L 370.224697 106.751359 
" clip-path="url(#p3ff1589652)" style="fill: none; stroke: #111111; stroke-width: 5.8"/>
   </g>
   <g id="line2d_10">
    <path d="M 586.153672 169.475781 
L 586.153672 218.007294 
" clip-path="url(#p3ff1589652)" style="fill: none; stroke: #111111; stroke-width: 3.211813"/>
   </g>
   <g id="line2d_11">
    <path d="M 75.090333 478.388359 
L 165.610777 478.388359 
" clip-path="url(#p3ff1589652)" style="fill: none; stroke: #111111; stroke-width: 3.6; stroke-linecap: round"/>
   </g>
   <g id="line2d_12">
    <path d="M 75.090333 376.277877 
L 165.610777 376.277877 
" clip-path="url(#p3ff1589652)" style="fill: none; stroke: #111111; stroke-width: 3.6; stroke-linecap: round"/>
   </g>
   <g id="line2d_13">
    <path d="M 75.090333 281.519682 
L 165.610777 281.519682 
" clip-path="url(#p3ff1589652)" style="fill: none; stroke: #111111; stroke-width: 3.6; stroke-linecap: round"/>
   </g>
   <g id="line2d_14">
    <path d="M 75.090333 188.219833 
L 165.610777 188.219833 
" clip-path="url(#p3ff1589652)" style="fill: none; stroke: #111111; stroke-width: 3.6; stroke-linecap: round"/>
   </g>
   <g id="line2d_15">
    <path d="M 324.964475 326.1641 
L 415.484919 326.1641 
" clip-path="url(#p3ff1589652)" style="fill: none; stroke: #111111; stroke-width: 3.6; stroke-linecap: round"/>
   </g>
   <g id="line2d_16">
    <path d="M 324.964475 234.401236 
L 415.484919 234.401236 
" clip-path="url(#p3ff1589652)" style="fill: none; stroke: #111111; stroke-width: 3.6; stroke-linecap: round"/>
   </g>
   <g id="line2d_17">
    <path d="M 324.964475 148.852426 
L 415.484919 148.852426 
" clip-path="url(#p3ff1589652)" style="fill: none; stroke: #111111; stroke-width: 3.6; stroke-linecap: round"/>
   </g>
   <g id="line2d_18">
    <path d="M 324.964475 69.220509 
L 415.484919 69.220509 
" clip-path="url(#p3ff1589652)" style="fill: none; stroke: #111111; stroke-width: 3.6; stroke-linecap: round"/>
   </g>
   <g id="line2d_19">
    <path d="M 574.838617 271.109024 
L 665.359061 271.109024 
" clip-path="url(#p3ff1589652)" style="fill: none; stroke: #111111; stroke-width: 3.6; stroke-linecap: round"/>
   </g>
   <g id="line2d_20">
    <path d="M 574.838617 169.475781 
L 665.359061 169.475781 
" clip-path="url(#p3ff1589652)" style="fill: none; stroke: #111111; stroke-width: 3.6; stroke-linecap: round"/>
   </g>
   <g id="text_1">
    <!-- $^{262}\mathrm{Hg}$ -->
    <g transform="translate(325.662 38.14) scale(0.34 -0.34)">
     <defs>
      <path id="DejaVuSans-32" d="M 1228 531 
L 3431 531 
L 3431 0 
L 469 0 
L 469 531 
Q 828 903 1448 1529 
Q 2069 2156 2228 2338 
Q 2531 2678 2651 2914 
Q 2772 3150 2772 3378 
Q 2772 3750 2511 3984 
Q 2250 4219 1831 4219 
Q 1534 4219 1204 4116 
Q 875 4013 500 3803 
L 500 4441 
Q 881 4594 1212 4672 
Q 1544 4750 1819 4750 
Q 2544 4750 2975 4387 
Q 3406 4025 3406 3419 
Q 3406 3131 3298 2873 
Q 3191 2616 2906 2266 
Q 2828 2175 2409 1742 
Q 1991 1309 1228 531 
z
" transform="scale(0.015625)"/>
      <path id="DejaVuSans-36" d="M 2113 2584 
Q 1688 2584 1439 2293 
Q 1191 2003 1191 1497 
Q 1191 994 1439 701 
Q 1688 409 2113 409 
Q 2538 409 2786 701 
Q 3034 994 3034 1497 
Q 3034 2003 2786 2293 
Q 2538 2584 2113 2584 
z
M 3366 4563 
L 3366 3988 
Q 3128 4100 2886 4159 
Q 2644 4219 2406 4219 
Q 1781 4219 1451 3797 
Q 1122 3375 1075 2522 
Q 1259 2794 1537 2939 
Q 1816 3084 2150 3084 
Q 2853 3084 3261 2657 
Q 3669 2231 3669 1497 
Q 3669 778 3244 343 
Q 2819 -91 2113 -91 
Q 1303 -91 875 529 
Q 447 1150 447 2328 
Q 447 3434 972 4092 
Q 1497 4750 2381 4750 
Q 2619 4750 2861 4703 
Q 3103 4656 3366 4563 
z
" transform="scale(0.015625)"/>
      <path id="DejaVuSans-48" d="M 628 4666 
L 1259 4666 
L 1259 2753 
L 3553 2753 
L 3553 4666 
L 4184 4666 
L 4184 0 
L 3553 0 
L 3553 2222 
L 1259 2222 
L 1259 0 
L 628 0 
L 628 4666 
z
" transform="scale(0.015625)"/>
      <path id="DejaVuSans-67" d="M 2906 1791 
Q 2906 2416 2648 2759 
Q 2391 3103 1925 3103 
Q 1463 3103 1205 2759 
Q 947 2416 947 1791 
Q 947 1169 1205 825 
Q 1463 481 1925 481 
Q 2391 481 2648 825 
Q 2906 1169 2906 1791 
z
M 3481 434 
Q 3481 -459 3084 -895 
Q 2688 -1331 1869 -1331 
Q 1566 -1331 1297 -1286 
Q 1028 -1241 775 -1147 
L 775 -588 
Q 1028 -725 1275 -790 
Q 1522 -856 1778 -856 
Q 2344 -856 2625 -561 
Q 2906 -266 2906 331 
L 2906 616 
Q 2728 306 2450 153 
Q 2172 0 1784 0 
Q 1141 0 747 490 
Q 353 981 353 1791 
Q 353 2603 747 3093 
Q 1141 3584 1784 3584 
Q 2172 3584 2450 3431 
Q 2728 3278 2906 2969 
L 2906 3500 
L 3481 3500 
L 3481 434 
z
" transform="scale(0.015625)"/>
     </defs>
     <use xlink:href="#DejaVuSans-32" transform="translate(0.957031 39.046875) scale(0.7)"/>
     <use xlink:href="#DejaVuSans-36" transform="translate(45.493164 39.046875) scale(0.7)"/>
     <use xlink:href="#DejaVuSans-32" transform="translate(90.029297 39.046875) scale(0.7)"/>
     <use xlink:href="#DejaVuSans-48" transform="translate(137.299805 0.765625)"/>
     <use xlink:href="#DejaVuSans-67" transform="translate(212.495117 0.765625)"/>
    </g>
   </g>
   <g id="text_2">
    <!-- 0 -->
    <g transform="translate(46.98525 482.803359) scale(0.16 -0.16)">
     <defs>
      <path id="DejaVuSans-BoldOblique-30" d="M 1913 728 
Q 2153 728 2339 872 
Q 2525 1016 2650 1294 
Q 2738 1491 2809 1742 
Q 2881 1994 2944 2338 
Q 2997 2616 3025 2850 
Q 3053 3084 3053 3250 
Q 3053 3600 2928 3764 
Q 2803 3928 2541 3928 
Q 2297 3928 2112 3789 
Q 1928 3650 1806 3366 
Q 1713 3163 1636 2903 
Q 1559 2644 1503 2338 
Q 1450 2056 1422 1815 
Q 1394 1575 1394 1409 
Q 1394 1063 1522 895 
Q 1650 728 1913 728 
z
M 4225 3072 
Q 4225 2450 4053 1862 
Q 3881 1275 3572 831 
Q 3256 375 2809 142 
Q 2363 -91 1813 -91 
Q 1047 -91 639 343 
Q 231 778 231 1594 
Q 231 2206 401 2795 
Q 572 3384 878 3822 
Q 1200 4281 1644 4515 
Q 2088 4750 2644 4750 
Q 3403 4750 3814 4314 
Q 4225 3878 4225 3072 
z
" transform="scale(0.015625)"/>
     </defs>
     <use xlink:href="#DejaVuSans-BoldOblique-30"/>
    </g>
   </g>
   <g id="text_3">
    <!-- 0⁺ -->
    <g transform="translate(182.58336 483.543594) scale(0.23 -0.23)">
     <defs>
      <path id="TimesNewRomanPS-BoldMT-30" d="M 2966 2119 
Q 2966 1484 2788 934 
Q 2681 597 2501 381 
Q 2322 166 2094 39 
Q 1866 -88 1597 -88 
Q 1291 -88 1044 68 
Q 797 225 606 516 
Q 469 728 366 1081 
Q 231 1559 231 2069 
Q 231 2759 425 3338 
Q 584 3816 909 4070 
Q 1234 4325 1597 4325 
Q 1966 4325 2286 4073 
Q 2606 3822 2756 3397 
Q 2966 2813 2966 2119 
z
M 2003 2125 
Q 2003 3238 1991 3422 
Q 1959 3856 1841 4009 
Q 1763 4109 1588 4109 
Q 1453 4109 1375 4034 
Q 1259 3925 1218 3648 
Q 1178 3372 1178 1719 
Q 1178 819 1241 513 
Q 1288 291 1375 216 
Q 1463 141 1606 141 
Q 1763 141 1841 241 
Q 1972 416 1991 781 
L 2003 2125 
z
" transform="scale(0.015625)"/>
      <path id="DejaVuSerif-Bold-207a" d="M 1916 4344 
L 1916 3441 
L 2950 3441 
L 2950 3044 
L 1916 3044 
L 1916 2141 
L 1463 2141 
L 1463 3044 
L 428 3044 
L 428 3441 
L 1463 3441 
L 1463 4344 
L 1916 4344 
z
" transform="scale(0.015625)"/>
     </defs>
     <use xlink:href="#TimesNewRomanPS-BoldMT-30"/>
     <use xlink:href="#DejaVuSerif-Bold-207a" transform="translate(50 0)"/>
    </g>
   </g>
   <g id="text_4">
    <!-- 2056 -->
    <g transform="translate(13.58775 380.692877) scale(0.16 -0.16)">
     <defs>
      <path id="DejaVuSans-BoldOblique-32" d="M 1581 884 
L 3609 884 
L 3438 0 
L 50 0 
L 225 891 
L 2209 2388 
Q 2534 2638 2704 2894 
Q 2875 3150 2875 3391 
Q 2875 3647 2700 3787 
Q 2525 3928 2209 3928 
Q 1913 3928 1547 3811 
Q 1181 3694 722 3450 
L 922 4441 
Q 1347 4597 1756 4673 
Q 2166 4750 2566 4750 
Q 3278 4750 3687 4442 
Q 4097 4134 4097 3603 
Q 4097 3147 3847 2772 
Q 3597 2397 2747 1759 
L 1581 884 
z
" transform="scale(0.015625)"/>
      <path id="DejaVuSans-BoldOblique-35" d="M 1131 4666 
L 4122 4666 
L 3950 3781 
L 1919 3781 
L 1778 3059 
Q 1916 3097 2064 3117 
Q 2213 3138 2363 3138 
Q 3078 3138 3481 2811 
Q 3884 2484 3884 1906 
Q 3884 988 3262 448 
Q 2641 -91 1575 -91 
Q 1184 -91 815 -14 
Q 447 63 84 219 
L 269 1166 
Q 616 941 942 834 
Q 1269 728 1606 728 
Q 2100 728 2397 986 
Q 2694 1244 2694 1663 
Q 2694 1963 2469 2139 
Q 2244 2316 1856 2316 
Q 1594 2316 1289 2248 
Q 984 2181 622 2041 
L 1131 4666 
z
" transform="scale(0.015625)"/>
      <path id="DejaVuSans-BoldOblique-36" d="M 2316 2303 
Q 1959 2303 1731 2009 
Q 1503 1716 1503 1253 
Q 1503 975 1643 820 
Q 1784 666 2034 666 
Q 2388 666 2617 955 
Q 2847 1244 2847 1684 
Q 2847 1984 2709 2143 
Q 2572 2303 2316 2303 
z
M 4225 4544 
L 4056 3681 
Q 3788 3819 3534 3887 
Q 3281 3956 3028 3956 
Q 2447 3956 2087 3643 
Q 1728 3331 1650 2766 
Q 1894 2925 2151 3001 
Q 2409 3078 2700 3078 
Q 3275 3078 3640 2737 
Q 4006 2397 4006 1869 
Q 4006 1006 3442 454 
Q 2878 -97 1991 -97 
Q 1194 -97 756 354 
Q 319 806 319 1631 
Q 319 2269 512 2848 
Q 706 3428 1056 3847 
Q 1431 4294 1942 4519 
Q 2453 4744 3091 4744 
Q 3384 4744 3662 4694 
Q 3941 4644 4225 4544 
z
" transform="scale(0.015625)"/>
     </defs>
     <use xlink:href="#DejaVuSans-BoldOblique-32"/>
     <use xlink:href="#DejaVuSans-BoldOblique-30" transform="translate(69.580078 0)"/>
     <use xlink:href="#DejaVuSans-BoldOblique-35" transform="translate(139.160156 0)"/>
     <use xlink:href="#DejaVuSans-BoldOblique-36" transform="translate(208.740234 0)"/>
    </g>
   </g>
   <g id="text_5">
    <!-- 2⁺ -->
    <g transform="translate(182.58336 381.433111) scale(0.23 -0.23)">
     <defs>
      <path id="TimesNewRomanPS-BoldMT-32" d="M 2650 0 
L 156 0 
L 156 69 
Q 1303 1434 1548 1906 
Q 1794 2378 1794 2828 
Q 1794 3156 1591 3373 
Q 1388 3591 1094 3591 
Q 613 3591 347 3109 
L 231 3150 
Q 400 3750 744 4037 
Q 1088 4325 1538 4325 
Q 1859 4325 2125 4175 
Q 2391 4025 2541 3764 
Q 2691 3503 2691 3275 
Q 2691 2859 2459 2431 
Q 2144 1853 1081 819 
L 1997 819 
Q 2334 819 2436 847 
Q 2538 875 2603 942 
Q 2669 1009 2775 1225 
L 2888 1225 
L 2650 0 
z
" transform="scale(0.015625)"/>
     </defs>
     <use xlink:href="#TimesNewRomanPS-BoldMT-32"/>
     <use xlink:href="#DejaVuSerif-Bold-207a" transform="translate(50 0)"/>
    </g>
   </g>
   <g id="text_6">
    <!-- 3963 -->
    <g transform="translate(13.58775 285.934682) scale(0.16 -0.16)">
     <defs>
      <path id="DejaVuSans-BoldOblique-33" d="M 3022 2516 
Q 3375 2434 3572 2187 
Q 3769 1941 3769 1581 
Q 3769 806 3155 357 
Q 2541 -91 1466 -91 
Q 1059 -91 692 -33 
Q 325 25 0 141 
L 178 1069 
Q 456 906 784 817 
Q 1113 728 1441 728 
Q 1969 728 2276 926 
Q 2584 1125 2584 1459 
Q 2584 1738 2350 1877 
Q 2116 2016 1644 2016 
L 1166 2016 
L 1319 2791 
L 1825 2791 
Q 2316 2791 2602 2969 
Q 2888 3147 2888 3450 
Q 2888 3688 2689 3813 
Q 2491 3938 2113 3938 
Q 1847 3938 1534 3869 
Q 1222 3800 884 3669 
L 1056 4550 
Q 1425 4650 1783 4700 
Q 2141 4750 2491 4750 
Q 3281 4750 3679 4487 
Q 4078 4225 4078 3706 
Q 4078 3241 3801 2930 
Q 3525 2619 3022 2516 
z
" transform="scale(0.015625)"/>
      <path id="DejaVuSans-BoldOblique-39" d="M 263 103 
L 428 966 
Q 700 825 953 758 
Q 1206 691 1459 691 
Q 2041 691 2400 1003 
Q 2759 1316 2834 1881 
Q 2594 1722 2337 1645 
Q 2081 1569 1791 1569 
Q 1219 1569 853 1909 
Q 488 2250 488 2778 
Q 488 3641 1052 4192 
Q 1616 4744 2503 4744 
Q 3300 4744 3736 4292 
Q 4172 3841 4172 3016 
Q 4172 2381 3978 1801 
Q 3784 1222 3431 800 
Q 3056 353 2548 128 
Q 2041 -97 1403 -97 
Q 1106 -97 825 -47 
Q 544 3 263 103 
z
M 2169 2344 
Q 2525 2344 2753 2637 
Q 2981 2931 2981 3391 
Q 2981 3675 2845 3828 
Q 2709 3981 2456 3981 
Q 2103 3981 1870 3690 
Q 1638 3400 1638 2963 
Q 1638 2663 1775 2503 
Q 1913 2344 2169 2344 
z
" transform="scale(0.015625)"/>
     </defs>
     <use xlink:href="#DejaVuSans-BoldOblique-33"/>
     <use xlink:href="#DejaVuSans-BoldOblique-39" transform="translate(69.580078 0)"/>
     <use xlink:href="#DejaVuSans-BoldOblique-36" transform="translate(139.160156 0)"/>
     <use xlink:href="#DejaVuSans-BoldOblique-33" transform="translate(208.740234 0)"/>
    </g>
   </g>
   <g id="text_7">
    <!-- 4⁺ -->
    <g transform="translate(182.58336 286.674916) scale(0.23 -0.23)">
     <defs>
      <path id="TimesNewRomanPS-BoldMT-34" d="M 159 1597 
L 2172 4325 
L 2553 4325 
L 2553 1597 
L 2941 1597 
L 2941 950 
L 2553 950 
L 2553 0 
L 1694 0 
L 1694 950 
L 159 950 
L 159 1597 
z
M 463 1597 
L 1694 1597 
L 1694 3269 
L 463 1597 
z
" transform="scale(0.015625)"/>
     </defs>
     <use xlink:href="#TimesNewRomanPS-BoldMT-34"/>
     <use xlink:href="#DejaVuSerif-Bold-207a" transform="translate(50 0)"/>
    </g>
   </g>
   <g id="text_8">
    <!-- 5841 -->
    <g transform="translate(13.58775 192.634833) scale(0.16 -0.16)">
     <defs>
      <path id="DejaVuSans-BoldOblique-38" d="M 2150 2088 
Q 1784 2088 1539 1839 
Q 1294 1591 1294 1228 
Q 1294 969 1453 817 
Q 1613 666 1888 666 
Q 2259 666 2503 911 
Q 2747 1156 2747 1522 
Q 2747 1781 2586 1934 
Q 2425 2088 2150 2088 
z
M 1381 2484 
Q 1044 2625 876 2850 
Q 709 3075 709 3391 
Q 709 4025 1229 4387 
Q 1750 4750 2669 4750 
Q 3406 4750 3812 4475 
Q 4219 4200 4219 3700 
Q 4219 3256 3936 2940 
Q 3653 2625 3128 2484 
Q 3509 2338 3690 2091 
Q 3872 1844 3872 1466 
Q 3872 747 3311 328 
Q 2750 -91 1772 -91 
Q 1000 -91 570 217 
Q 141 525 141 1075 
Q 141 1572 470 1945 
Q 800 2319 1381 2484 
z
M 2559 3994 
Q 2241 3994 2048 3808 
Q 1856 3622 1856 3316 
Q 1856 3103 1995 2972 
Q 2134 2841 2363 2841 
Q 2681 2841 2873 3027 
Q 3066 3213 3066 3519 
Q 3066 3734 2927 3864 
Q 2788 3994 2559 3994 
z
" transform="scale(0.015625)"/>
      <path id="DejaVuSans-BoldOblique-34" d="M 2638 3641 
L 978 1722 
L 2259 1722 
L 2638 3641 
z
M 2606 4666 
L 3975 4666 
L 3397 1722 
L 4063 1722 
L 3897 850 
L 3231 850 
L 3066 0 
L 1925 0 
L 2094 850 
L -6 850 
L 197 1881 
L 2606 4666 
z
" transform="scale(0.015625)"/>
      <path id="DejaVuSans-BoldOblique-31" d="M 441 831 
L 1503 831 
L 2088 3847 
L 953 3622 
L 1113 4441 
L 2241 4666 
L 3384 4666 
L 2644 831 
L 3700 831 
L 3541 0 
L 275 0 
L 441 831 
z
" transform="scale(0.015625)"/>
     </defs>
     <use xlink:href="#DejaVuSans-BoldOblique-35"/>
     <use xlink:href="#DejaVuSans-BoldOblique-38" transform="translate(69.580078 0)"/>
     <use xlink:href="#DejaVuSans-BoldOblique-34" transform="translate(139.160156 0)"/>
     <use xlink:href="#DejaVuSans-BoldOblique-31" transform="translate(208.740234 0)"/>
    </g>
   </g>
   <g id="text_9">
    <!-- 6⁺ -->
    <g transform="translate(182.58336 193.375068) scale(0.23 -0.23)">
     <defs>
      <path id="TimesNewRomanPS-BoldMT-36" d="M 3006 4325 
L 3006 4238 
Q 2441 4094 2098 3867 
Q 1756 3641 1557 3317 
Q 1359 2994 1250 2516 
Q 1388 2609 1478 2638 
Q 1681 2700 1888 2700 
Q 2363 2700 2680 2354 
Q 2997 2009 2997 1413 
Q 2997 994 2825 644 
Q 2653 294 2337 103 
Q 2022 -88 1663 -88 
Q 1272 -88 940 126 
Q 609 341 423 753 
Q 238 1166 238 1650 
Q 238 2363 580 2977 
Q 922 3591 1551 3955 
Q 2181 4319 3006 4325 
z
M 1209 2263 
Q 1184 1831 1184 1631 
Q 1184 1200 1267 797 
Q 1350 394 1494 231 
Q 1597 116 1738 116 
Q 1881 116 1993 283 
Q 2106 450 2106 963 
Q 2106 1825 1897 2153 
Q 1763 2366 1534 2366 
Q 1409 2366 1209 2263 
z
" transform="scale(0.015625)"/>
     </defs>
     <use xlink:href="#TimesNewRomanPS-BoldMT-36"/>
     <use xlink:href="#DejaVuSerif-Bold-207a" transform="translate(50 0)"/>
    </g>
   </g>
   <g id="text_10">
    <!-- 3064 -->
    <g transform="translate(263.461892 330.5791) scale(0.16 -0.16)">
     <use xlink:href="#DejaVuSans-BoldOblique-33"/>
     <use xlink:href="#DejaVuSans-BoldOblique-30" transform="translate(69.580078 0)"/>
     <use xlink:href="#DejaVuSans-BoldOblique-36" transform="translate(139.160156 0)"/>
     <use xlink:href="#DejaVuSans-BoldOblique-34" transform="translate(208.740234 0)"/>
    </g>
   </g>
   <g id="text_11">
    <!-- 0⁺ -->
    <g transform="translate(432.457502 331.319334) scale(0.23 -0.23)">
     <use xlink:href="#TimesNewRomanPS-BoldMT-30"/>
     <use xlink:href="#DejaVuSerif-Bold-207a" transform="translate(50 0)"/>
    </g>
   </g>
   <g id="text_12">
    <!-- 4912 -->
    <g transform="translate(263.461892 238.816236) scale(0.16 -0.16)">
     <use xlink:href="#DejaVuSans-BoldOblique-34"/>
     <use xlink:href="#DejaVuSans-BoldOblique-39" transform="translate(69.580078 0)"/>
     <use xlink:href="#DejaVuSans-BoldOblique-31" transform="translate(139.160156 0)"/>
     <use xlink:href="#DejaVuSans-BoldOblique-32" transform="translate(208.740234 0)"/>
    </g>
   </g>
   <g id="text_13">
    <!-- 2⁺ -->
    <g transform="translate(432.457502 239.55647) scale(0.23 -0.23)">
     <use xlink:href="#TimesNewRomanPS-BoldMT-32"/>
     <use xlink:href="#DejaVuSerif-Bold-207a" transform="translate(50 0)"/>
    </g>
   </g>
   <g id="text_14">
    <!-- 6634 -->
    <g transform="translate(263.461892 153.267426) scale(0.16 -0.16)">
     <use xlink:href="#DejaVuSans-BoldOblique-36"/>
     <use xlink:href="#DejaVuSans-BoldOblique-36" transform="translate(69.580078 0)"/>
     <use xlink:href="#DejaVuSans-BoldOblique-33" transform="translate(139.160156 0)"/>
     <use xlink:href="#DejaVuSans-BoldOblique-34" transform="translate(208.740234 0)"/>
    </g>
   </g>
   <g id="text_15">
    <!-- 4⁺ -->
    <g transform="translate(432.457502 154.007661) scale(0.23 -0.23)">
     <use xlink:href="#TimesNewRomanPS-BoldMT-34"/>
     <use xlink:href="#DejaVuSerif-Bold-207a" transform="translate(50 0)"/>
    </g>
   </g>
   <g id="text_16">
    <!-- 8237 -->
    <g transform="translate(263.461892 73.635509) scale(0.16 -0.16)">
     <defs>
      <path id="DejaVuSans-BoldOblique-37" d="M 922 4666 
L 4441 4666 
L 4300 3981 
L 1703 0 
L 500 0 
L 2969 3781 
L 756 3781 
L 922 4666 
z
" transform="scale(0.015625)"/>
     </defs>
     <use xlink:href="#DejaVuSans-BoldOblique-38"/>
     <use xlink:href="#DejaVuSans-BoldOblique-32" transform="translate(69.580078 0)"/>
     <use xlink:href="#DejaVuSans-BoldOblique-33" transform="translate(139.160156 0)"/>
     <use xlink:href="#DejaVuSans-BoldOblique-37" transform="translate(208.740234 0)"/>
    </g>
   </g>
   <g id="text_17">
    <!-- 6⁺ -->
    <g transform="translate(432.457502 74.375743) scale(0.23 -0.23)">
     <use xlink:href="#TimesNewRomanPS-BoldMT-36"/>
     <use xlink:href="#DejaVuSerif-Bold-207a" transform="translate(50 0)"/>
    </g>
   </g>
   <g id="text_18">
    <!-- 4173 -->
    <g transform="translate(513.336034 275.524024) scale(0.16 -0.16)">
     <use xlink:href="#DejaVuSans-BoldOblique-34"/>
     <use xlink:href="#DejaVuSans-BoldOblique-31" transform="translate(69.580078 0)"/>
     <use xlink:href="#DejaVuSans-BoldOblique-37" transform="translate(139.160156 0)"/>
     <use xlink:href="#DejaVuSans-BoldOblique-33" transform="translate(208.740234 0)"/>
    </g>
   </g>
   <g id="text_19">
    <!-- 2⁺ -->
    <g transform="translate(682.331644 276.264259) scale(0.23 -0.23)">
     <use xlink:href="#TimesNewRomanPS-BoldMT-32"/>
     <use xlink:href="#DejaVuSerif-Bold-207a" transform="translate(50 0)"/>
    </g>
   </g>
   <g id="text_20">
    <!-- 6219 -->
    <g transform="translate(513.336034 173.890781) scale(0.16 -0.16)">
     <use xlink:href="#DejaVuSans-BoldOblique-36"/>
     <use xlink:href="#DejaVuSans-BoldOblique-32" transform="translate(69.580078 0)"/>
     <use xlink:href="#DejaVuSans-BoldOblique-31" transform="translate(139.160156 0)"/>
     <use xlink:href="#DejaVuSans-BoldOblique-39" transform="translate(208.740234 0)"/>
    </g>
   </g>
   <g id="text_21">
    <!-- 3⁺ -->
    <g transform="translate(682.331644 174.631016) scale(0.23 -0.23)">
     <defs>
      <path id="TimesNewRomanPS-BoldMT-33" d="M 947 2125 
L 947 2234 
Q 1303 2338 1440 2427 
Q 1578 2516 1678 2698 
Q 1778 2881 1778 3069 
Q 1778 3328 1589 3514 
Q 1400 3700 1119 3700 
Q 681 3700 375 3238 
L 259 3278 
Q 484 3800 836 4062 
Q 1188 4325 1619 4325 
Q 2059 4325 2345 4056 
Q 2631 3788 2631 3428 
Q 2631 3194 2498 2976 
Q 2366 2759 2081 2594 
Q 2447 2416 2639 2155 
Q 2831 1894 2831 1500 
Q 2831 838 2351 373 
Q 1872 -91 1066 -91 
Q 528 -91 281 88 
Q 103 213 103 409 
Q 103 553 206 654 
Q 309 756 444 756 
Q 547 756 638 713 
Q 688 688 992 439 
Q 1297 191 1563 191 
Q 1794 191 1959 373 
Q 2125 556 2125 838 
Q 2125 1266 1825 1627 
Q 1525 1988 947 2125 
z
" transform="scale(0.015625)"/>
     </defs>
     <use xlink:href="#TimesNewRomanPS-BoldMT-33"/>
     <use xlink:href="#DejaVuSerif-Bold-207a" transform="translate(50 0)"/>
    </g>
   </g>
   <g id="text_22">
    <path d="M 111.560555 420.106868 
L 111.560555 428.771868 
Q 111.560555 429.746868 111.645555 430.016868 
Q 111.733055 430.286868 112.005555 430.459368 
Q 112.280555 430.629368 112.883055 430.629368 
L 113.123055 430.629368 
L 113.123055 430.919368 
L 107.545555 430.919368 
L 107.545555 430.629368 
L 107.828055 430.629368 
Q 108.508055 430.629368 108.795555 430.474368 
Q 109.085555 430.316868 109.185555 430.044368 
Q 109.288055 429.771868 109.288055 428.771868 
L 109.288055 423.279368 
Q 109.288055 422.544368 109.218055 422.361868 
Q 109.148055 422.176868 108.955555 422.049368 
Q 108.765555 421.919368 108.515555 421.919368 
Q 108.115555 421.919368 107.545555 422.169368 
L 107.405555 421.886868 
L 111.303055 420.106868 
L 111.560555 420.106868 
z
M 120.975555 430.919368 
L 114.740555 430.919368 
L 114.740555 430.746868 
Q 117.608055 427.334368 118.220555 426.154368 
Q 118.835555 424.974368 118.835555 423.849368 
Q 118.835555 423.029368 118.328055 422.486868 
Q 117.820555 421.941868 117.085555 421.941868 
Q 115.883055 421.941868 115.218055 423.146868 
L 114.928055 423.044368 
Q 115.350555 421.544368 116.210555 420.826868 
Q 117.070555 420.106868 118.195555 420.106868 
Q 118.998055 420.106868 119.663055 420.481868 
Q 120.328055 420.856868 120.703055 421.509368 
Q 121.078055 422.161868 121.078055 422.731868 
Q 121.078055 423.771868 120.498055 424.841868 
Q 119.710555 426.286868 117.053055 428.871868 
L 119.343055 428.871868 
Q 120.185555 428.871868 120.440555 428.801868 
Q 120.695555 428.731868 120.858055 428.564368 
Q 121.023055 428.396868 121.288055 427.856868 
L 121.570555 427.856868 
L 120.975555 430.919368 
z
M 124.350555 428.511868 
Q 124.898055 428.511868 125.275555 428.896868 
Q 125.655555 429.279368 125.655555 429.816868 
Q 125.655555 430.356868 125.273055 430.736868 
Q 124.890555 431.114368 124.350555 431.114368 
Q 123.810555 431.114368 123.430555 430.736868 
Q 123.053055 430.356868 123.053055 429.816868 
Q 123.053055 429.279368 123.430555 428.896868 
Q 123.810555 428.511868 124.350555 428.511868 
z
M 132.975555 430.919368 
L 126.740555 430.919368 
L 126.740555 430.746868 
Q 129.608055 427.334368 130.220555 426.154368 
Q 130.835555 424.974368 130.835555 423.849368 
Q 130.835555 423.029368 130.328055 422.486868 
Q 129.820555 421.941868 129.085555 421.941868 
Q 127.883055 421.941868 127.218055 423.146868 
L 126.928055 423.044368 
Q 127.350555 421.544368 128.210555 420.826868 
Q 129.070555 420.106868 130.195555 420.106868 
Q 130.998055 420.106868 131.663055 420.481868 
Q 132.328055 420.856868 132.703055 421.509368 
Q 133.078055 422.161868 133.078055 422.731868 
Q 133.078055 423.771868 132.498055 424.841868 
Q 131.710555 426.286868 129.053055 428.871868 
L 131.343055 428.871868 
Q 132.185555 428.871868 132.440555 428.801868 
Q 132.695555 428.731868 132.858055 428.564368 
Q 133.023055 428.396868 133.288055 427.856868 
L 133.570555 427.856868 
L 132.975555 430.919368 
z
" style="stroke: #ffffff; stroke-width: 3.8"/>
    <path d="M 111.560555 420.106868 
L 111.560555 428.771868 
Q 111.560555 429.746868 111.645555 430.016868 
Q 111.733055 430.286868 112.005555 430.459368 
Q 112.280555 430.629368 112.883055 430.629368 
L 113.123055 430.629368 
L 113.123055 430.919368 
L 107.545555 430.919368 
L 107.545555 430.629368 
L 107.828055 430.629368 
Q 108.508055 430.629368 108.795555 430.474368 
Q 109.085555 430.316868 109.185555 430.044368 
Q 109.288055 429.771868 109.288055 428.771868 
L 109.288055 423.279368 
Q 109.288055 422.544368 109.218055 422.361868 
Q 109.148055 422.176868 108.955555 422.049368 
Q 108.765555 421.919368 108.515555 421.919368 
Q 108.115555 421.919368 107.545555 422.169368 
L 107.405555 421.886868 
L 111.303055 420.106868 
L 111.560555 420.106868 
z
M 120.975555 430.919368 
L 114.740555 430.919368 
L 114.740555 430.746868 
Q 117.608055 427.334368 118.220555 426.154368 
Q 118.835555 424.974368 118.835555 423.849368 
Q 118.835555 423.029368 118.328055 422.486868 
Q 117.820555 421.941868 117.085555 421.941868 
Q 115.883055 421.941868 115.218055 423.146868 
L 114.928055 423.044368 
Q 115.350555 421.544368 116.210555 420.826868 
Q 117.070555 420.106868 118.195555 420.106868 
Q 118.998055 420.106868 119.663055 420.481868 
Q 120.328055 420.856868 120.703055 421.509368 
Q 121.078055 422.161868 121.078055 422.731868 
Q 121.078055 423.771868 120.498055 424.841868 
Q 119.710555 426.286868 117.053055 428.871868 
L 119.343055 428.871868 
Q 120.185555 428.871868 120.440555 428.801868 
Q 120.695555 428.731868 120.858055 428.564368 
Q 121.023055 428.396868 121.288055 427.856868 
L 121.570555 427.856868 
L 120.975555 430.919368 
z
M 124.350555 428.511868 
Q 124.898055 428.511868 125.275555 428.896868 
Q 125.655555 429.279368 125.655555 429.816868 
Q 125.655555 430.356868 125.273055 430.736868 
Q 124.890555 431.114368 124.350555 431.114368 
Q 123.810555 431.114368 123.430555 430.736868 
Q 123.053055 430.356868 123.053055 429.816868 
Q 123.053055 429.279368 123.430555 428.896868 
Q 123.810555 428.511868 124.350555 428.511868 
z
M 132.975555 430.919368 
L 126.740555 430.919368 
L 126.740555 430.746868 
Q 129.608055 427.334368 130.220555 426.154368 
Q 130.835555 424.974368 130.835555 423.849368 
Q 130.835555 423.029368 130.328055 422.486868 
Q 129.820555 421.941868 129.085555 421.941868 
Q 127.883055 421.941868 127.218055 423.146868 
L 126.928055 423.044368 
Q 127.350555 421.544368 128.210555 420.826868 
Q 129.070555 420.106868 130.195555 420.106868 
Q 130.998055 420.106868 131.663055 420.481868 
Q 132.328055 420.856868 132.703055 421.509368 
Q 133.078055 422.161868 133.078055 422.731868 
Q 133.078055 423.771868 132.498055 424.841868 
Q 131.710555 426.286868 129.053055 428.871868 
L 131.343055 428.871868 
Q 132.185555 428.871868 132.440555 428.801868 
Q 132.695555 428.731868 132.858055 428.564368 
Q 133.023055 428.396868 133.288055 427.856868 
L 133.570555 427.856868 
L 132.975555 430.919368 
z
"/>
   </g>
   <g id="text_23">
    <path d="M 112.975555 332.485029 
L 106.740555 332.485029 
L 106.740555 332.312529 
Q 109.608055 328.900029 110.220555 327.720029 
Q 110.835555 326.540029 110.835555 325.415029 
Q 110.835555 324.595029 110.328055 324.052529 
Q 109.820555 323.507529 109.085555 323.507529 
Q 107.883055 323.507529 107.218055 324.712529 
L 106.928055 324.610029 
Q 107.350555 323.110029 108.210555 322.392529 
Q 109.070555 321.672529 110.195555 321.672529 
Q 110.998055 321.672529 111.663055 322.047529 
Q 112.328055 322.422529 112.703055 323.075029 
Q 113.078055 323.727529 113.078055 324.297529 
Q 113.078055 325.337529 112.498055 326.407529 
Q 111.710555 327.852529 109.053055 330.437529 
L 111.343055 330.437529 
Q 112.185555 330.437529 112.440555 330.367529 
Q 112.695555 330.297529 112.858055 330.130029 
Q 113.023055 329.962529 113.288055 329.422529 
L 113.570555 329.422529 
L 112.975555 332.485029 
z
M 114.748055 328.492529 
L 119.780555 321.672529 
L 120.733055 321.672529 
L 120.733055 328.492529 
L 121.703055 328.492529 
L 121.703055 330.110029 
L 120.733055 330.110029 
L 120.733055 332.485029 
L 118.585555 332.485029 
L 118.585555 330.110029 
L 114.748055 330.110029 
L 114.748055 328.492529 
z
M 115.508055 328.492529 
L 118.585555 328.492529 
L 118.585555 324.312529 
L 115.508055 328.492529 
z
M 124.350555 330.077529 
Q 124.898055 330.077529 125.275555 330.462529 
Q 125.655555 330.845029 125.655555 331.382529 
Q 125.655555 331.922529 125.273055 332.302529 
Q 124.890555 332.680029 124.350555 332.680029 
Q 123.810555 332.680029 123.430555 332.302529 
Q 123.053055 331.922529 123.053055 331.382529 
Q 123.053055 330.845029 123.430555 330.462529 
Q 123.810555 330.077529 124.350555 330.077529 
z
M 133.765555 327.187529 
Q 133.765555 328.775029 133.320555 330.150029 
Q 133.053055 330.992529 132.603055 331.532529 
Q 132.155555 332.070029 131.585555 332.387529 
Q 131.015555 332.705029 130.343055 332.705029 
Q 129.578055 332.705029 128.960555 332.315029 
Q 128.343055 331.922529 127.865555 331.195029 
Q 127.523055 330.665029 127.265555 329.782529 
Q 126.928055 328.587529 126.928055 327.312529 
Q 126.928055 325.587529 127.413055 324.140029 
Q 127.810555 322.945029 128.623055 322.310029 
Q 129.435555 321.672529 130.343055 321.672529 
Q 131.265555 321.672529 132.065555 322.302529 
Q 132.865555 322.930029 133.240555 323.992529 
Q 133.765555 325.452529 133.765555 327.187529 
z
M 131.358055 327.172529 
Q 131.358055 324.390029 131.328055 323.930029 
Q 131.248055 322.845029 130.953055 322.462529 
Q 130.758055 322.212529 130.320555 322.212529 
Q 129.983055 322.212529 129.788055 322.400029 
Q 129.498055 322.672529 129.395555 323.365029 
Q 129.295555 324.055029 129.295555 328.187529 
Q 129.295555 330.437529 129.453055 331.202529 
Q 129.570555 331.757529 129.788055 331.945029 
Q 130.008055 332.132529 130.365555 332.132529 
Q 130.758055 332.132529 130.953055 331.882529 
Q 131.280555 331.445029 131.328055 330.532529 
L 131.358055 327.172529 
z
" style="stroke: #ffffff; stroke-width: 3.8"/>
    <path d="M 112.975555 332.485029 
L 106.740555 332.485029 
L 106.740555 332.312529 
Q 109.608055 328.900029 110.220555 327.720029 
Q 110.835555 326.540029 110.835555 325.415029 
Q 110.835555 324.595029 110.328055 324.052529 
Q 109.820555 323.507529 109.085555 323.507529 
Q 107.883055 323.507529 107.218055 324.712529 
L 106.928055 324.610029 
Q 107.350555 323.110029 108.210555 322.392529 
Q 109.070555 321.672529 110.195555 321.672529 
Q 110.998055 321.672529 111.663055 322.047529 
Q 112.328055 322.422529 112.703055 323.075029 
Q 113.078055 323.727529 113.078055 324.297529 
Q 113.078055 325.337529 112.498055 326.407529 
Q 111.710555 327.852529 109.053055 330.437529 
L 111.343055 330.437529 
Q 112.185555 330.437529 112.440555 330.367529 
Q 112.695555 330.297529 112.858055 330.130029 
Q 113.023055 329.962529 113.288055 329.422529 
L 113.570555 329.422529 
L 112.975555 332.485029 
z
M 114.748055 328.492529 
L 119.780555 321.672529 
L 120.733055 321.672529 
L 120.733055 328.492529 
L 121.703055 328.492529 
L 121.703055 330.110029 
L 120.733055 330.110029 
L 120.733055 332.485029 
L 118.585555 332.485029 
L 118.585555 330.110029 
L 114.748055 330.110029 
L 114.748055 328.492529 
z
M 115.508055 328.492529 
L 118.585555 328.492529 
L 118.585555 324.312529 
L 115.508055 328.492529 
z
M 124.350555 330.077529 
Q 124.898055 330.077529 125.275555 330.462529 
Q 125.655555 330.845029 125.655555 331.382529 
Q 125.655555 331.922529 125.273055 332.302529 
Q 124.890555 332.680029 124.350555 332.680029 
Q 123.810555 332.680029 123.430555 332.302529 
Q 123.053055 331.922529 123.053055 331.382529 
Q 123.053055 330.845029 123.430555 330.462529 
Q 123.810555 330.077529 124.350555 330.077529 
z
M 133.765555 327.187529 
Q 133.765555 328.775029 133.320555 330.150029 
Q 133.053055 330.992529 132.603055 331.532529 
Q 132.155555 332.070029 131.585555 332.387529 
Q 131.015555 332.705029 130.343055 332.705029 
Q 129.578055 332.705029 128.960555 332.315029 
Q 128.343055 331.922529 127.865555 331.195029 
Q 127.523055 330.665029 127.265555 329.782529 
Q 126.928055 328.587529 126.928055 327.312529 
Q 126.928055 325.587529 127.413055 324.140029 
Q 127.810555 322.945029 128.623055 322.310029 
Q 129.435555 321.672529 130.343055 321.672529 
Q 131.265555 321.672529 132.065555 322.302529 
Q 132.865555 322.930029 133.240555 323.992529 
Q 133.765555 325.452529 133.765555 327.187529 
z
M 131.358055 327.172529 
Q 131.358055 324.390029 131.328055 323.930029 
Q 131.248055 322.845029 130.953055 322.462529 
Q 130.758055 322.212529 130.320555 322.212529 
Q 129.983055 322.212529 129.788055 322.400029 
Q 129.498055 322.672529 129.395555 323.365029 
Q 129.295555 324.055029 129.295555 328.187529 
Q 129.295555 330.437529 129.453055 331.202529 
Q 129.570555 331.757529 129.788055 331.945029 
Q 130.008055 332.132529 130.365555 332.132529 
Q 130.758055 332.132529 130.953055 331.882529 
Q 131.280555 331.445029 131.328055 330.532529 
L 131.358055 327.172529 
z
"/>
   </g>
   <g id="text_24">
    <path d="M 108.718055 233.143507 
L 108.718055 232.871007 
Q 109.608055 232.611007 109.950555 232.388507 
Q 110.295555 232.166007 110.545555 231.711007 
Q 110.795555 231.253507 110.795555 230.783507 
Q 110.795555 230.136007 110.323055 229.671007 
Q 109.850555 229.206007 109.148055 229.206007 
Q 108.053055 229.206007 107.288055 230.361007 
L 106.998055 230.261007 
Q 107.560555 228.956007 108.440555 228.301007 
Q 109.320555 227.643507 110.398055 227.643507 
Q 111.498055 227.643507 112.213055 228.316007 
Q 112.928055 228.986007 112.928055 229.886007 
Q 112.928055 230.471007 112.595555 231.016007 
Q 112.265555 231.558507 111.553055 231.971007 
Q 112.468055 232.416007 112.948055 233.068507 
Q 113.428055 233.721007 113.428055 234.706007 
Q 113.428055 236.361007 112.228055 237.523507 
Q 111.030555 238.683507 109.015555 238.683507 
Q 107.670555 238.683507 107.053055 238.236007 
Q 106.608055 237.923507 106.608055 237.433507 
Q 106.608055 237.073507 106.865555 236.821007 
Q 107.123055 236.566007 107.460555 236.566007 
Q 107.718055 236.566007 107.945555 236.673507 
Q 108.070555 236.736007 108.830555 237.358507 
Q 109.593055 237.978507 110.258055 237.978507 
Q 110.835555 237.978507 111.248055 237.523507 
Q 111.663055 237.066007 111.663055 236.361007 
Q 111.663055 235.291007 110.913055 234.388507 
Q 110.163055 233.486007 108.718055 233.143507 
z
M 121.865555 227.643507 
L 121.865555 227.861007 
Q 120.453055 228.221007 119.595555 228.788507 
Q 118.740555 229.353507 118.243055 230.163507 
Q 117.748055 230.971007 117.475555 232.166007 
Q 117.820555 231.933507 118.045555 231.861007 
Q 118.553055 231.706007 119.070555 231.706007 
Q 120.258055 231.706007 121.050555 232.571007 
Q 121.843055 233.433507 121.843055 234.923507 
Q 121.843055 235.971007 121.413055 236.846007 
Q 120.983055 237.721007 120.193055 238.198507 
Q 119.405555 238.676007 118.508055 238.676007 
Q 117.530555 238.676007 116.700555 238.141007 
Q 115.873055 237.603507 115.408055 236.573507 
Q 114.945555 235.541007 114.945555 234.331007 
Q 114.945555 232.548507 115.800555 231.013507 
Q 116.655555 229.478507 118.228055 228.568507 
Q 119.803055 227.658507 121.865555 227.643507 
z
M 117.373055 232.798507 
Q 117.310555 233.878507 117.310555 234.378507 
Q 117.310555 235.456007 117.518055 236.463507 
Q 117.725555 237.471007 118.085555 237.878507 
Q 118.343055 238.166007 118.695555 238.166007 
Q 119.053055 238.166007 119.333055 237.748507 
Q 119.615555 237.331007 119.615555 236.048507 
Q 119.615555 233.893507 119.093055 233.073507 
Q 118.758055 232.541007 118.185555 232.541007 
Q 117.873055 232.541007 117.373055 232.798507 
z
M 124.350555 236.048507 
Q 124.898055 236.048507 125.275555 236.433507 
Q 125.655555 236.816007 125.655555 237.353507 
Q 125.655555 237.893507 125.273055 238.273507 
Q 124.890555 238.651007 124.350555 238.651007 
Q 123.810555 238.651007 123.430555 238.273507 
Q 123.053055 237.893507 123.053055 237.353507 
Q 123.053055 236.816007 123.430555 236.433507 
Q 123.810555 236.048507 124.350555 236.048507 
z
M 128.788055 227.861007 
L 133.748055 227.861007 
L 132.960555 229.878507 
L 128.788055 229.878507 
L 128.390555 230.933507 
Q 131.085555 231.033507 132.538055 232.276007 
Q 133.733055 233.298507 133.733055 234.823507 
Q 133.733055 235.798507 133.178055 236.733507 
Q 132.623055 237.666007 131.615555 238.171007 
Q 130.608055 238.676007 129.405555 238.676007 
Q 128.108055 238.676007 127.413055 238.191007 
Q 126.928055 237.846007 126.928055 237.408507 
Q 126.928055 237.073507 127.180555 236.816007 
Q 127.435555 236.558507 127.773055 236.558507 
Q 128.078055 236.558507 128.390555 236.683507 
Q 128.703055 236.808507 129.460555 237.338507 
Q 129.935555 237.666007 130.280555 237.791007 
Q 130.523055 237.886007 130.828055 237.886007 
Q 131.468055 237.886007 131.915555 237.418507 
Q 132.365555 236.948507 132.365555 236.291007 
Q 132.365555 234.916007 130.990555 234.058507 
Q 129.615555 233.198507 127.523055 233.198507 
Q 127.310555 233.198507 126.890555 233.206007 
L 128.788055 227.861007 
z
" style="stroke: #ffffff; stroke-width: 3.8"/>
    <path d="M 108.718055 233.143507 
L 108.718055 232.871007 
Q 109.608055 232.611007 109.950555 232.388507 
Q 110.295555 232.166007 110.545555 231.711007 
Q 110.795555 231.253507 110.795555 230.783507 
Q 110.795555 230.136007 110.323055 229.671007 
Q 109.850555 229.206007 109.148055 229.206007 
Q 108.053055 229.206007 107.288055 230.361007 
L 106.998055 230.261007 
Q 107.560555 228.956007 108.440555 228.301007 
Q 109.320555 227.643507 110.398055 227.643507 
Q 111.498055 227.643507 112.213055 228.316007 
Q 112.928055 228.986007 112.928055 229.886007 
Q 112.928055 230.471007 112.595555 231.016007 
Q 112.265555 231.558507 111.553055 231.971007 
Q 112.468055 232.416007 112.948055 233.068507 
Q 113.428055 233.721007 113.428055 234.706007 
Q 113.428055 236.361007 112.228055 237.523507 
Q 111.030555 238.683507 109.015555 238.683507 
Q 107.670555 238.683507 107.053055 238.236007 
Q 106.608055 237.923507 106.608055 237.433507 
Q 106.608055 237.073507 106.865555 236.821007 
Q 107.123055 236.566007 107.460555 236.566007 
Q 107.718055 236.566007 107.945555 236.673507 
Q 108.070555 236.736007 108.830555 237.358507 
Q 109.593055 237.978507 110.258055 237.978507 
Q 110.835555 237.978507 111.248055 237.523507 
Q 111.663055 237.066007 111.663055 236.361007 
Q 111.663055 235.291007 110.913055 234.388507 
Q 110.163055 233.486007 108.718055 233.143507 
z
M 121.865555 227.643507 
L 121.865555 227.861007 
Q 120.453055 228.221007 119.595555 228.788507 
Q 118.740555 229.353507 118.243055 230.163507 
Q 117.748055 230.971007 117.475555 232.166007 
Q 117.820555 231.933507 118.045555 231.861007 
Q 118.553055 231.706007 119.070555 231.706007 
Q 120.258055 231.706007 121.050555 232.571007 
Q 121.843055 233.433507 121.843055 234.923507 
Q 121.843055 235.971007 121.413055 236.846007 
Q 120.983055 237.721007 120.193055 238.198507 
Q 119.405555 238.676007 118.508055 238.676007 
Q 117.530555 238.676007 116.700555 238.141007 
Q 115.873055 237.603507 115.408055 236.573507 
Q 114.945555 235.541007 114.945555 234.331007 
Q 114.945555 232.548507 115.800555 231.013507 
Q 116.655555 229.478507 118.228055 228.568507 
Q 119.803055 227.658507 121.865555 227.643507 
z
M 117.373055 232.798507 
Q 117.310555 233.878507 117.310555 234.378507 
Q 117.310555 235.456007 117.518055 236.463507 
Q 117.725555 237.471007 118.085555 237.878507 
Q 118.343055 238.166007 118.695555 238.166007 
Q 119.053055 238.166007 119.333055 237.748507 
Q 119.615555 237.331007 119.615555 236.048507 
Q 119.615555 233.893507 119.093055 233.073507 
Q 118.758055 232.541007 118.185555 232.541007 
Q 117.873055 232.541007 117.373055 232.798507 
z
M 124.350555 236.048507 
Q 124.898055 236.048507 125.275555 236.433507 
Q 125.655555 236.816007 125.655555 237.353507 
Q 125.655555 237.893507 125.273055 238.273507 
Q 124.890555 238.651007 124.350555 238.651007 
Q 123.810555 238.651007 123.430555 238.273507 
Q 123.053055 237.893507 123.053055 237.353507 
Q 123.053055 236.816007 123.430555 236.433507 
Q 123.810555 236.048507 124.350555 236.048507 
z
M 128.788055 227.861007 
L 133.748055 227.861007 
L 132.960555 229.878507 
L 128.788055 229.878507 
L 128.390555 230.933507 
Q 131.085555 231.033507 132.538055 232.276007 
Q 133.733055 233.298507 133.733055 234.823507 
Q 133.733055 235.798507 133.178055 236.733507 
Q 132.623055 237.666007 131.615555 238.171007 
Q 130.608055 238.676007 129.405555 238.676007 
Q 128.108055 238.676007 127.413055 238.191007 
Q 126.928055 237.846007 126.928055 237.408507 
Q 126.928055 237.073507 127.180555 236.816007 
Q 127.435555 236.558507 127.773055 236.558507 
Q 128.078055 236.558507 128.390555 236.683507 
Q 128.703055 236.808507 129.460555 237.338507 
Q 129.935555 237.666007 130.280555 237.791007 
Q 130.523055 237.886007 130.828055 237.886007 
Q 131.468055 237.886007 131.915555 237.418507 
Q 132.365555 236.948507 132.365555 236.291007 
Q 132.365555 234.916007 130.990555 234.058507 
Q 129.615555 233.198507 127.523055 233.198507 
Q 127.310555 233.198507 126.890555 233.206007 
L 128.788055 227.861007 
z
"/>
   </g>
   <g id="text_25">
    <path d="M 361.434697 273.056418 
L 361.434697 281.721418 
Q 361.434697 282.696418 361.519697 282.966418 
Q 361.607197 283.236418 361.879697 283.408918 
Q 362.154697 283.578918 362.757197 283.578918 
L 362.997197 283.578918 
L 362.997197 283.868918 
L 357.419697 283.868918 
L 357.419697 283.578918 
L 357.702197 283.578918 
Q 358.382197 283.578918 358.669697 283.423918 
Q 358.959697 283.266418 359.059697 282.993918 
Q 359.162197 282.721418 359.162197 281.721418 
L 359.162197 276.228918 
Q 359.162197 275.493918 359.092197 275.311418 
Q 359.022197 275.126418 358.829697 274.998918 
Q 358.639697 274.868918 358.389697 274.868918 
Q 357.989697 274.868918 357.419697 275.118918 
L 357.279697 274.836418 
L 361.177197 273.056418 
L 361.434697 273.056418 
z
M 366.662197 273.273918 
L 371.622197 273.273918 
L 370.834697 275.291418 
L 366.662197 275.291418 
L 366.264697 276.346418 
Q 368.959697 276.446418 370.412197 277.688918 
Q 371.607197 278.711418 371.607197 280.236418 
Q 371.607197 281.211418 371.052197 282.146418 
Q 370.497197 283.078918 369.489697 283.583918 
Q 368.482197 284.088918 367.279697 284.088918 
Q 365.982197 284.088918 365.287197 283.603918 
Q 364.802197 283.258918 364.802197 282.821418 
Q 364.802197 282.486418 365.054697 282.228918 
Q 365.309697 281.971418 365.647197 281.971418 
Q 365.952197 281.971418 366.264697 282.096418 
Q 366.577197 282.221418 367.334697 282.751418 
Q 367.809697 283.078918 368.154697 283.203918 
Q 368.397197 283.298918 368.702197 283.298918 
Q 369.342197 283.298918 369.789697 282.831418 
Q 370.239697 282.361418 370.239697 281.703918 
Q 370.239697 280.328918 368.864697 279.471418 
Q 367.489697 278.611418 365.397197 278.611418 
Q 365.184697 278.611418 364.764697 278.618918 
L 366.662197 273.273918 
z
M 374.224697 281.461418 
Q 374.772197 281.461418 375.149697 281.846418 
Q 375.529697 282.228918 375.529697 282.766418 
Q 375.529697 283.306418 375.147197 283.686418 
Q 374.764697 284.063918 374.224697 284.063918 
Q 373.684697 284.063918 373.304697 283.686418 
Q 372.927197 283.306418 372.927197 282.766418 
Q 372.927197 282.228918 373.304697 281.846418 
Q 373.684697 281.461418 374.224697 281.461418 
z
M 378.592197 278.556418 
L 378.592197 278.283918 
Q 379.482197 278.023918 379.824697 277.801418 
Q 380.169697 277.578918 380.419697 277.123918 
Q 380.669697 276.666418 380.669697 276.196418 
Q 380.669697 275.548918 380.197197 275.083918 
Q 379.724697 274.618918 379.022197 274.618918 
Q 377.927197 274.618918 377.162197 275.773918 
L 376.872197 275.673918 
Q 377.434697 274.368918 378.314697 273.713918 
Q 379.194697 273.056418 380.272197 273.056418 
Q 381.372197 273.056418 382.087197 273.728918 
Q 382.802197 274.398918 382.802197 275.298918 
Q 382.802197 275.883918 382.469697 276.428918 
Q 382.139697 276.971418 381.427197 277.383918 
Q 382.342197 277.828918 382.822197 278.481418 
Q 383.302197 279.133918 383.302197 280.118918 
Q 383.302197 281.773918 382.102197 282.936418 
Q 380.904697 284.096418 378.889697 284.096418 
Q 377.544697 284.096418 376.927197 283.648918 
Q 376.482197 283.336418 376.482197 282.846418 
Q 376.482197 282.486418 376.739697 282.233918 
Q 376.997197 281.978918 377.334697 281.978918 
Q 377.592197 281.978918 377.819697 282.086418 
Q 377.944697 282.148918 378.704697 282.771418 
Q 379.467197 283.391418 380.132197 283.391418 
Q 380.709697 283.391418 381.122197 282.936418 
Q 381.537197 282.478918 381.537197 281.773918 
Q 381.537197 280.703918 380.787197 279.801418 
Q 380.037197 278.898918 378.592197 278.556418 
z
" style="stroke: #ffffff; stroke-width: 3.8"/>
    <path d="M 361.434697 273.056418 
L 361.434697 281.721418 
Q 361.434697 282.696418 361.519697 282.966418 
Q 361.607197 283.236418 361.879697 283.408918 
Q 362.154697 283.578918 362.757197 283.578918 
L 362.997197 283.578918 
L 362.997197 283.868918 
L 357.419697 283.868918 
L 357.419697 283.578918 
L 357.702197 283.578918 
Q 358.382197 283.578918 358.669697 283.423918 
Q 358.959697 283.266418 359.059697 282.993918 
Q 359.162197 282.721418 359.162197 281.721418 
L 359.162197 276.228918 
Q 359.162197 275.493918 359.092197 275.311418 
Q 359.022197 275.126418 358.829697 274.998918 
Q 358.639697 274.868918 358.389697 274.868918 
Q 357.989697 274.868918 357.419697 275.118918 
L 357.279697 274.836418 
L 361.177197 273.056418 
L 361.434697 273.056418 
z
M 366.662197 273.273918 
L 371.622197 273.273918 
L 370.834697 275.291418 
L 366.662197 275.291418 
L 366.264697 276.346418 
Q 368.959697 276.446418 370.412197 277.688918 
Q 371.607197 278.711418 371.607197 280.236418 
Q 371.607197 281.211418 371.052197 282.146418 
Q 370.497197 283.078918 369.489697 283.583918 
Q 368.482197 284.088918 367.279697 284.088918 
Q 365.982197 284.088918 365.287197 283.603918 
Q 364.802197 283.258918 364.802197 282.821418 
Q 364.802197 282.486418 365.054697 282.228918 
Q 365.309697 281.971418 365.647197 281.971418 
Q 365.952197 281.971418 366.264697 282.096418 
Q 366.577197 282.221418 367.334697 282.751418 
Q 367.809697 283.078918 368.154697 283.203918 
Q 368.397197 283.298918 368.702197 283.298918 
Q 369.342197 283.298918 369.789697 282.831418 
Q 370.239697 282.361418 370.239697 281.703918 
Q 370.239697 280.328918 368.864697 279.471418 
Q 367.489697 278.611418 365.397197 278.611418 
Q 365.184697 278.611418 364.764697 278.618918 
L 366.662197 273.273918 
z
M 374.224697 281.461418 
Q 374.772197 281.461418 375.149697 281.846418 
Q 375.529697 282.228918 375.529697 282.766418 
Q 375.529697 283.306418 375.147197 283.686418 
Q 374.764697 284.063918 374.224697 284.063918 
Q 373.684697 284.063918 373.304697 283.686418 
Q 372.927197 283.306418 372.927197 282.766418 
Q 372.927197 282.228918 373.304697 281.846418 
Q 373.684697 281.461418 374.224697 281.461418 
z
M 378.592197 278.556418 
L 378.592197 278.283918 
Q 379.482197 278.023918 379.824697 277.801418 
Q 380.169697 277.578918 380.419697 277.123918 
Q 380.669697 276.666418 380.669697 276.196418 
Q 380.669697 275.548918 380.197197 275.083918 
Q 379.724697 274.618918 379.022197 274.618918 
Q 377.927197 274.618918 377.162197 275.773918 
L 376.872197 275.673918 
Q 377.434697 274.368918 378.314697 273.713918 
Q 379.194697 273.056418 380.272197 273.056418 
Q 381.372197 273.056418 382.087197 273.728918 
Q 382.802197 274.398918 382.802197 275.298918 
Q 382.802197 275.883918 382.469697 276.428918 
Q 382.139697 276.971418 381.427197 277.383918 
Q 382.342197 277.828918 382.822197 278.481418 
Q 383.302197 279.133918 383.302197 280.118918 
Q 383.302197 281.773918 382.102197 282.936418 
Q 380.904697 284.096418 378.889697 284.096418 
Q 377.544697 284.096418 376.927197 283.648918 
Q 376.482197 283.336418 376.482197 282.846418 
Q 376.482197 282.486418 376.739697 282.233918 
Q 376.997197 281.978918 377.334697 281.978918 
Q 377.592197 281.978918 377.819697 282.086418 
Q 377.944697 282.148918 378.704697 282.771418 
Q 379.467197 283.391418 380.132197 283.391418 
Q 380.709697 283.391418 381.122197 282.936418 
Q 381.537197 282.478918 381.537197 281.773918 
Q 381.537197 280.703918 380.787197 279.801418 
Q 380.037197 278.898918 378.592197 278.556418 
z
"/>
   </g>
   <g id="text_26">
    <path d="M 358.592197 189.900581 
L 358.592197 189.628081 
Q 359.482197 189.368081 359.824697 189.145581 
Q 360.169697 188.923081 360.419697 188.468081 
Q 360.669697 188.010581 360.669697 187.540581 
Q 360.669697 186.893081 360.197197 186.428081 
Q 359.724697 185.963081 359.022197 185.963081 
Q 357.927197 185.963081 357.162197 187.118081 
L 356.872197 187.018081 
Q 357.434697 185.713081 358.314697 185.058081 
Q 359.194697 184.400581 360.272197 184.400581 
Q 361.372197 184.400581 362.087197 185.073081 
Q 362.802197 185.743081 362.802197 186.643081 
Q 362.802197 187.228081 362.469697 187.773081 
Q 362.139697 188.315581 361.427197 188.728081 
Q 362.342197 189.173081 362.822197 189.825581 
Q 363.302197 190.478081 363.302197 191.463081 
Q 363.302197 193.118081 362.102197 194.280581 
Q 360.904697 195.440581 358.889697 195.440581 
Q 357.544697 195.440581 356.927197 194.993081 
Q 356.482197 194.680581 356.482197 194.190581 
Q 356.482197 193.830581 356.739697 193.578081 
Q 356.997197 193.323081 357.334697 193.323081 
Q 357.592197 193.323081 357.819697 193.430581 
Q 357.944697 193.493081 358.704697 194.115581 
Q 359.467197 194.735581 360.132197 194.735581 
Q 360.709697 194.735581 361.122197 194.280581 
Q 361.537197 193.823081 361.537197 193.118081 
Q 361.537197 192.048081 360.787197 191.145581 
Q 360.037197 190.243081 358.592197 189.900581 
z
M 366.592197 189.900581 
L 366.592197 189.628081 
Q 367.482197 189.368081 367.824697 189.145581 
Q 368.169697 188.923081 368.419697 188.468081 
Q 368.669697 188.010581 368.669697 187.540581 
Q 368.669697 186.893081 368.197197 186.428081 
Q 367.724697 185.963081 367.022197 185.963081 
Q 365.927197 185.963081 365.162197 187.118081 
L 364.872197 187.018081 
Q 365.434697 185.713081 366.314697 185.058081 
Q 367.194697 184.400581 368.272197 184.400581 
Q 369.372197 184.400581 370.087197 185.073081 
Q 370.802197 185.743081 370.802197 186.643081 
Q 370.802197 187.228081 370.469697 187.773081 
Q 370.139697 188.315581 369.427197 188.728081 
Q 370.342197 189.173081 370.822197 189.825581 
Q 371.302197 190.478081 371.302197 191.463081 
Q 371.302197 193.118081 370.102197 194.280581 
Q 368.904697 195.440581 366.889697 195.440581 
Q 365.544697 195.440581 364.927197 194.993081 
Q 364.482197 194.680581 364.482197 194.190581 
Q 364.482197 193.830581 364.739697 193.578081 
Q 364.997197 193.323081 365.334697 193.323081 
Q 365.592197 193.323081 365.819697 193.430581 
Q 365.944697 193.493081 366.704697 194.115581 
Q 367.467197 194.735581 368.132197 194.735581 
Q 368.709697 194.735581 369.122197 194.280581 
Q 369.537197 193.823081 369.537197 193.118081 
Q 369.537197 192.048081 368.787197 191.145581 
Q 368.037197 190.243081 366.592197 189.900581 
z
M 374.224697 192.805581 
Q 374.772197 192.805581 375.149697 193.190581 
Q 375.529697 193.573081 375.529697 194.110581 
Q 375.529697 194.650581 375.147197 195.030581 
Q 374.764697 195.408081 374.224697 195.408081 
Q 373.684697 195.408081 373.304697 195.030581 
Q 372.927197 194.650581 372.927197 194.110581 
Q 372.927197 193.573081 373.304697 193.190581 
Q 373.684697 192.805581 374.224697 192.805581 
z
M 379.059697 195.433081 
L 381.944697 186.690581 
L 379.747197 186.690581 
Q 378.459697 186.690581 377.809697 187.025581 
Q 377.357197 187.260581 377.059697 187.908081 
L 376.764697 187.908081 
L 377.529697 184.618081 
L 383.842197 184.618081 
L 380.287197 195.433081 
L 379.059697 195.433081 
z
" style="stroke: #ffffff; stroke-width: 3.8"/>
    <path d="M 358.592197 189.900581 
L 358.592197 189.628081 
Q 359.482197 189.368081 359.824697 189.145581 
Q 360.169697 188.923081 360.419697 188.468081 
Q 360.669697 188.010581 360.669697 187.540581 
Q 360.669697 186.893081 360.197197 186.428081 
Q 359.724697 185.963081 359.022197 185.963081 
Q 357.927197 185.963081 357.162197 187.118081 
L 356.872197 187.018081 
Q 357.434697 185.713081 358.314697 185.058081 
Q 359.194697 184.400581 360.272197 184.400581 
Q 361.372197 184.400581 362.087197 185.073081 
Q 362.802197 185.743081 362.802197 186.643081 
Q 362.802197 187.228081 362.469697 187.773081 
Q 362.139697 188.315581 361.427197 188.728081 
Q 362.342197 189.173081 362.822197 189.825581 
Q 363.302197 190.478081 363.302197 191.463081 
Q 363.302197 193.118081 362.102197 194.280581 
Q 360.904697 195.440581 358.889697 195.440581 
Q 357.544697 195.440581 356.927197 194.993081 
Q 356.482197 194.680581 356.482197 194.190581 
Q 356.482197 193.830581 356.739697 193.578081 
Q 356.997197 193.323081 357.334697 193.323081 
Q 357.592197 193.323081 357.819697 193.430581 
Q 357.944697 193.493081 358.704697 194.115581 
Q 359.467197 194.735581 360.132197 194.735581 
Q 360.709697 194.735581 361.122197 194.280581 
Q 361.537197 193.823081 361.537197 193.118081 
Q 361.537197 192.048081 360.787197 191.145581 
Q 360.037197 190.243081 358.592197 189.900581 
z
M 366.592197 189.900581 
L 366.592197 189.628081 
Q 367.482197 189.368081 367.824697 189.145581 
Q 368.169697 188.923081 368.419697 188.468081 
Q 368.669697 188.010581 368.669697 187.540581 
Q 368.669697 186.893081 368.197197 186.428081 
Q 367.724697 185.963081 367.022197 185.963081 
Q 365.927197 185.963081 365.162197 187.118081 
L 364.872197 187.018081 
Q 365.434697 185.713081 366.314697 185.058081 
Q 367.194697 184.400581 368.272197 184.400581 
Q 369.372197 184.400581 370.087197 185.073081 
Q 370.802197 185.743081 370.802197 186.643081 
Q 370.802197 187.228081 370.469697 187.773081 
Q 370.139697 188.315581 369.427197 188.728081 
Q 370.342197 189.173081 370.822197 189.825581 
Q 371.302197 190.478081 371.302197 191.463081 
Q 371.302197 193.118081 370.102197 194.280581 
Q 368.904697 195.440581 366.889697 195.440581 
Q 365.544697 195.440581 364.927197 194.993081 
Q 364.482197 194.680581 364.482197 194.190581 
Q 364.482197 193.830581 364.739697 193.578081 
Q 364.997197 193.323081 365.334697 193.323081 
Q 365.592197 193.323081 365.819697 193.430581 
Q 365.944697 193.493081 366.704697 194.115581 
Q 367.467197 194.735581 368.132197 194.735581 
Q 368.709697 194.735581 369.122197 194.280581 
Q 369.537197 193.823081 369.537197 193.118081 
Q 369.537197 192.048081 368.787197 191.145581 
Q 368.037197 190.243081 366.592197 189.900581 
z
M 374.224697 192.805581 
Q 374.772197 192.805581 375.149697 193.190581 
Q 375.529697 193.573081 375.529697 194.110581 
Q 375.529697 194.650581 375.147197 195.030581 
Q 374.764697 195.408081 374.224697 195.408081 
Q 373.684697 195.408081 373.304697 195.030581 
Q 372.927197 194.650581 372.927197 194.110581 
Q 372.927197 193.573081 373.304697 193.190581 
Q 373.684697 192.805581 374.224697 192.805581 
z
M 379.059697 195.433081 
L 381.944697 186.690581 
L 379.747197 186.690581 
Q 378.459697 186.690581 377.809697 187.025581 
Q 377.357197 187.260581 377.059697 187.908081 
L 376.764697 187.908081 
L 377.529697 184.618081 
L 383.842197 184.618081 
L 380.287197 195.433081 
L 379.059697 195.433081 
z
"/>
   </g>
   <g id="text_27">
    <path d="M 358.662197 102.027718 
L 363.622197 102.027718 
L 362.834697 104.045218 
L 358.662197 104.045218 
L 358.264697 105.100218 
Q 360.959697 105.200218 362.412197 106.442718 
Q 363.607197 107.465218 363.607197 108.990218 
Q 363.607197 109.965218 363.052197 110.900218 
Q 362.497197 111.832718 361.489697 112.337718 
Q 360.482197 112.842718 359.279697 112.842718 
Q 357.982197 112.842718 357.287197 112.357718 
Q 356.802197 112.012718 356.802197 111.575218 
Q 356.802197 111.240218 357.054697 110.982718 
Q 357.309697 110.725218 357.647197 110.725218 
Q 357.952197 110.725218 358.264697 110.850218 
Q 358.577197 110.975218 359.334697 111.505218 
Q 359.809697 111.832718 360.154697 111.957718 
Q 360.397197 112.052718 360.702197 112.052718 
Q 361.342197 112.052718 361.789697 111.585218 
Q 362.239697 111.115218 362.239697 110.457718 
Q 362.239697 109.082718 360.864697 108.225218 
Q 359.489697 107.365218 357.397197 107.365218 
Q 357.184697 107.365218 356.764697 107.372718 
L 358.662197 102.027718 
z
M 364.622197 108.630218 
L 369.654697 101.810218 
L 370.607197 101.810218 
L 370.607197 108.630218 
L 371.577197 108.630218 
L 371.577197 110.247718 
L 370.607197 110.247718 
L 370.607197 112.622718 
L 368.459697 112.622718 
L 368.459697 110.247718 
L 364.622197 110.247718 
L 364.622197 108.630218 
z
M 365.382197 108.630218 
L 368.459697 108.630218 
L 368.459697 104.450218 
L 365.382197 108.630218 
z
M 374.224697 110.215218 
Q 374.772197 110.215218 375.149697 110.600218 
Q 375.529697 110.982718 375.529697 111.520218 
Q 375.529697 112.060218 375.147197 112.440218 
Q 374.764697 112.817718 374.224697 112.817718 
Q 373.684697 112.817718 373.304697 112.440218 
Q 372.927197 112.060218 372.927197 111.520218 
Q 372.927197 110.982718 373.304697 110.600218 
Q 373.684697 110.215218 374.224697 110.215218 
z
M 383.639697 107.325218 
Q 383.639697 108.912718 383.194697 110.287718 
Q 382.927197 111.130218 382.477197 111.670218 
Q 382.029697 112.207718 381.459697 112.525218 
Q 380.889697 112.842718 380.217197 112.842718 
Q 379.452197 112.842718 378.834697 112.452718 
Q 378.217197 112.060218 377.739697 111.332718 
Q 377.397197 110.802718 377.139697 109.920218 
Q 376.802197 108.725218 376.802197 107.450218 
Q 376.802197 105.725218 377.287197 104.277718 
Q 377.684697 103.082718 378.497197 102.447718 
Q 379.309697 101.810218 380.217197 101.810218 
Q 381.139697 101.810218 381.939697 102.440218 
Q 382.739697 103.067718 383.114697 104.130218 
Q 383.639697 105.590218 383.639697 107.325218 
z
M 381.232197 107.310218 
Q 381.232197 104.527718 381.202197 104.067718 
Q 381.122197 102.982718 380.827197 102.600218 
Q 380.632197 102.350218 380.194697 102.350218 
Q 379.857197 102.350218 379.662197 102.537718 
Q 379.372197 102.810218 379.269697 103.502718 
Q 379.169697 104.192718 379.169697 108.325218 
Q 379.169697 110.575218 379.327197 111.340218 
Q 379.444697 111.895218 379.662197 112.082718 
Q 379.882197 112.270218 380.239697 112.270218 
Q 380.632197 112.270218 380.827197 112.020218 
Q 381.154697 111.582718 381.202197 110.670218 
L 381.232197 107.310218 
z
" style="stroke: #ffffff; stroke-width: 3.8"/>
    <path d="M 358.662197 102.027718 
L 363.622197 102.027718 
L 362.834697 104.045218 
L 358.662197 104.045218 
L 358.264697 105.100218 
Q 360.959697 105.200218 362.412197 106.442718 
Q 363.607197 107.465218 363.607197 108.990218 
Q 363.607197 109.965218 363.052197 110.900218 
Q 362.497197 111.832718 361.489697 112.337718 
Q 360.482197 112.842718 359.279697 112.842718 
Q 357.982197 112.842718 357.287197 112.357718 
Q 356.802197 112.012718 356.802197 111.575218 
Q 356.802197 111.240218 357.054697 110.982718 
Q 357.309697 110.725218 357.647197 110.725218 
Q 357.952197 110.725218 358.264697 110.850218 
Q 358.577197 110.975218 359.334697 111.505218 
Q 359.809697 111.832718 360.154697 111.957718 
Q 360.397197 112.052718 360.702197 112.052718 
Q 361.342197 112.052718 361.789697 111.585218 
Q 362.239697 111.115218 362.239697 110.457718 
Q 362.239697 109.082718 360.864697 108.225218 
Q 359.489697 107.365218 357.397197 107.365218 
Q 357.184697 107.365218 356.764697 107.372718 
L 358.662197 102.027718 
z
M 364.622197 108.630218 
L 369.654697 101.810218 
L 370.607197 101.810218 
L 370.607197 108.630218 
L 371.577197 108.630218 
L 371.577197 110.247718 
L 370.607197 110.247718 
L 370.607197 112.622718 
L 368.459697 112.622718 
L 368.459697 110.247718 
L 364.622197 110.247718 
L 364.622197 108.630218 
z
M 365.382197 108.630218 
L 368.459697 108.630218 
L 368.459697 104.450218 
L 365.382197 108.630218 
z
M 374.224697 110.215218 
Q 374.772197 110.215218 375.149697 110.600218 
Q 375.529697 110.982718 375.529697 111.520218 
Q 375.529697 112.060218 375.147197 112.440218 
Q 374.764697 112.817718 374.224697 112.817718 
Q 373.684697 112.817718 373.304697 112.440218 
Q 372.927197 112.060218 372.927197 111.520218 
Q 372.927197 110.982718 373.304697 110.600218 
Q 373.684697 110.215218 374.224697 110.215218 
z
M 383.639697 107.325218 
Q 383.639697 108.912718 383.194697 110.287718 
Q 382.927197 111.130218 382.477197 111.670218 
Q 382.029697 112.207718 381.459697 112.525218 
Q 380.889697 112.842718 380.217197 112.842718 
Q 379.452197 112.842718 378.834697 112.452718 
Q 378.217197 112.060218 377.739697 111.332718 
Q 377.397197 110.802718 377.139697 109.920218 
Q 376.802197 108.725218 376.802197 107.450218 
Q 376.802197 105.725218 377.287197 104.277718 
Q 377.684697 103.082718 378.497197 102.447718 
Q 379.309697 101.810218 380.217197 101.810218 
Q 381.139697 101.810218 381.939697 102.440218 
Q 382.739697 103.067718 383.114697 104.130218 
Q 383.639697 105.590218 383.639697 107.325218 
z
M 381.232197 107.310218 
Q 381.232197 104.527718 381.202197 104.067718 
Q 381.122197 102.982718 380.827197 102.600218 
Q 380.632197 102.350218 380.194697 102.350218 
Q 379.857197 102.350218 379.662197 102.537718 
Q 379.372197 102.810218 379.269697 103.502718 
Q 379.169697 104.192718 379.169697 108.325218 
Q 379.169697 110.575218 379.327197 111.340218 
Q 379.444697 111.895218 379.662197 112.082718 
Q 379.882197 112.270218 380.239697 112.270218 
Q 380.632197 112.270218 380.827197 112.020218 
Q 381.154697 111.582718 381.202197 110.670218 
L 381.232197 107.310218 
z
"/>
   </g>
   <g id="text_28">
    <path d="M 578.778672 223.878653 
L 572.543672 223.878653 
L 572.543672 223.706153 
Q 575.411172 220.293653 576.023672 219.113653 
Q 576.638672 217.933653 576.638672 216.808653 
Q 576.638672 215.988653 576.131172 215.446153 
Q 575.623672 214.901153 574.888672 214.901153 
Q 573.686172 214.901153 573.021172 216.106153 
L 572.731172 216.003653 
Q 573.153672 214.503653 574.013672 213.786153 
Q 574.873672 213.066153 575.998672 213.066153 
Q 576.801172 213.066153 577.466172 213.441153 
Q 578.131172 213.816153 578.506172 214.468653 
Q 578.881172 215.121153 578.881172 215.691153 
Q 578.881172 216.731153 578.301172 217.801153 
Q 577.513672 219.246153 574.856172 221.831153 
L 577.146172 221.831153 
Q 577.988672 221.831153 578.243672 221.761153 
Q 578.498672 221.691153 578.661172 221.523653 
Q 578.826172 221.356153 579.091172 220.816153 
L 579.373672 220.816153 
L 578.778672 223.878653 
z
M 587.668672 213.066153 
L 587.668672 213.283653 
Q 586.256172 213.643653 585.398672 214.211153 
Q 584.543672 214.776153 584.046172 215.586153 
Q 583.551172 216.393653 583.278672 217.588653 
Q 583.623672 217.356153 583.848672 217.283653 
Q 584.356172 217.128653 584.873672 217.128653 
Q 586.061172 217.128653 586.853672 217.993653 
Q 587.646172 218.856153 587.646172 220.346153 
Q 587.646172 221.393653 587.216172 222.268653 
Q 586.786172 223.143653 585.996172 223.621153 
Q 585.208672 224.098653 584.311172 224.098653 
Q 583.333672 224.098653 582.503672 223.563653 
Q 581.676172 223.026153 581.211172 221.996153 
Q 580.748672 220.963653 580.748672 219.753653 
Q 580.748672 217.971153 581.603672 216.436153 
Q 582.458672 214.901153 584.031172 213.991153 
Q 585.606172 213.081153 587.668672 213.066153 
z
M 583.176172 218.221153 
Q 583.113672 219.301153 583.113672 219.801153 
Q 583.113672 220.878653 583.321172 221.886153 
Q 583.528672 222.893653 583.888672 223.301153 
Q 584.146172 223.588653 584.498672 223.588653 
Q 584.856172 223.588653 585.136172 223.171153 
Q 585.418672 222.753653 585.418672 221.471153 
Q 585.418672 219.316153 584.896172 218.496153 
Q 584.561172 217.963653 583.988672 217.963653 
Q 583.676172 217.963653 583.176172 218.221153 
z
M 590.153672 221.471153 
Q 590.701172 221.471153 591.078672 221.856153 
Q 591.458672 222.238653 591.458672 222.776153 
Q 591.458672 223.316153 591.076172 223.696153 
Q 590.693672 224.073653 590.153672 224.073653 
Q 589.613672 224.073653 589.233672 223.696153 
Q 588.856172 223.316153 588.856172 222.776153 
Q 588.856172 222.238653 589.233672 221.856153 
Q 589.613672 221.471153 590.153672 221.471153 
z
M 599.568672 218.581153 
Q 599.568672 220.168653 599.123672 221.543653 
Q 598.856172 222.386153 598.406172 222.926153 
Q 597.958672 223.463653 597.388672 223.781153 
Q 596.818672 224.098653 596.146172 224.098653 
Q 595.381172 224.098653 594.763672 223.708653 
Q 594.146172 223.316153 593.668672 222.588653 
Q 593.326172 222.058653 593.068672 221.176153 
Q 592.731172 219.981153 592.731172 218.706153 
Q 592.731172 216.981153 593.216172 215.533653 
Q 593.613672 214.338653 594.426172 213.703653 
Q 595.238672 213.066153 596.146172 213.066153 
Q 597.068672 213.066153 597.868672 213.696153 
Q 598.668672 214.323653 599.043672 215.386153 
Q 599.568672 216.846153 599.568672 218.581153 
z
M 597.161172 218.566153 
Q 597.161172 215.783653 597.131172 215.323653 
Q 597.051172 214.238653 596.756172 213.856153 
Q 596.561172 213.606153 596.123672 213.606153 
Q 595.786172 213.606153 595.591172 213.793653 
Q 595.301172 214.066153 595.198672 214.758653 
Q 595.098672 215.448653 595.098672 219.581153 
Q 595.098672 221.831153 595.256172 222.596153 
Q 595.373672 223.151153 595.591172 223.338653 
Q 595.811172 223.526153 596.168672 223.526153 
Q 596.561172 223.526153 596.756172 223.276153 
Q 597.083672 222.838653 597.131172 221.926153 
L 597.161172 218.566153 
z
" style="stroke: #ffffff; stroke-width: 3.8"/>
    <path d="M 578.778672 223.878653 
L 572.543672 223.878653 
L 572.543672 223.706153 
Q 575.411172 220.293653 576.023672 219.113653 
Q 576.638672 217.933653 576.638672 216.808653 
Q 576.638672 215.988653 576.131172 215.446153 
Q 575.623672 214.901153 574.888672 214.901153 
Q 573.686172 214.901153 573.021172 216.106153 
L 572.731172 216.003653 
Q 573.153672 214.503653 574.013672 213.786153 
Q 574.873672 213.066153 575.998672 213.066153 
Q 576.801172 213.066153 577.466172 213.441153 
Q 578.131172 213.816153 578.506172 214.468653 
Q 578.881172 215.121153 578.881172 215.691153 
Q 578.881172 216.731153 578.301172 217.801153 
Q 577.513672 219.246153 574.856172 221.831153 
L 577.146172 221.831153 
Q 577.988672 221.831153 578.243672 221.761153 
Q 578.498672 221.691153 578.661172 221.523653 
Q 578.826172 221.356153 579.091172 220.816153 
L 579.373672 220.816153 
L 578.778672 223.878653 
z
M 587.668672 213.066153 
L 587.668672 213.283653 
Q 586.256172 213.643653 585.398672 214.211153 
Q 584.543672 214.776153 584.046172 215.586153 
Q 583.551172 216.393653 583.278672 217.588653 
Q 583.623672 217.356153 583.848672 217.283653 
Q 584.356172 217.128653 584.873672 217.128653 
Q 586.061172 217.128653 586.853672 217.993653 
Q 587.646172 218.856153 587.646172 220.346153 
Q 587.646172 221.393653 587.216172 222.268653 
Q 586.786172 223.143653 585.996172 223.621153 
Q 585.208672 224.098653 584.311172 224.098653 
Q 583.333672 224.098653 582.503672 223.563653 
Q 581.676172 223.026153 581.211172 221.996153 
Q 580.748672 220.963653 580.748672 219.753653 
Q 580.748672 217.971153 581.603672 216.436153 
Q 582.458672 214.901153 584.031172 213.991153 
Q 585.606172 213.081153 587.668672 213.066153 
z
M 583.176172 218.221153 
Q 583.113672 219.301153 583.113672 219.801153 
Q 583.113672 220.878653 583.321172 221.886153 
Q 583.528672 222.893653 583.888672 223.301153 
Q 584.146172 223.588653 584.498672 223.588653 
Q 584.856172 223.588653 585.136172 223.171153 
Q 585.418672 222.753653 585.418672 221.471153 
Q 585.418672 219.316153 584.896172 218.496153 
Q 584.561172 217.963653 583.988672 217.963653 
Q 583.676172 217.963653 583.176172 218.221153 
z
M 590.153672 221.471153 
Q 590.701172 221.471153 591.078672 221.856153 
Q 591.458672 222.238653 591.458672 222.776153 
Q 591.458672 223.316153 591.076172 223.696153 
Q 590.693672 224.073653 590.153672 224.073653 
Q 589.613672 224.073653 589.233672 223.696153 
Q 588.856172 223.316153 588.856172 222.776153 
Q 588.856172 222.238653 589.233672 221.856153 
Q 589.613672 221.471153 590.153672 221.471153 
z
M 599.568672 218.581153 
Q 599.568672 220.168653 599.123672 221.543653 
Q 598.856172 222.386153 598.406172 222.926153 
Q 597.958672 223.463653 597.388672 223.781153 
Q 596.818672 224.098653 596.146172 224.098653 
Q 595.381172 224.098653 594.763672 223.708653 
Q 594.146172 223.316153 593.668672 222.588653 
Q 593.326172 222.058653 593.068672 221.176153 
Q 592.731172 219.981153 592.731172 218.706153 
Q 592.731172 216.981153 593.216172 215.533653 
Q 593.613672 214.338653 594.426172 213.703653 
Q 595.238672 213.066153 596.146172 213.066153 
Q 597.068672 213.066153 597.868672 213.696153 
Q 598.668672 214.323653 599.043672 215.386153 
Q 599.568672 216.846153 599.568672 218.581153 
z
M 597.161172 218.566153 
Q 597.161172 215.783653 597.131172 215.323653 
Q 597.051172 214.238653 596.756172 213.856153 
Q 596.561172 213.606153 596.123672 213.606153 
Q 595.786172 213.606153 595.591172 213.793653 
Q 595.301172 214.066153 595.198672 214.758653 
Q 595.098672 215.448653 595.098672 219.581153 
Q 595.098672 221.831153 595.256172 222.596153 
Q 595.373672 223.151153 595.591172 223.338653 
Q 595.811172 223.526153 596.168672 223.526153 
Q 596.561172 223.526153 596.756172 223.276153 
Q 597.083672 222.838653 597.131172 221.926153 
L 597.161172 218.566153 
z
"/>
   </g>
   <g id="text_29">
    <path d="M 575.035011 381.588141 
L 569.189699 381.588141 
L 569.189699 381.426422 
Q 571.87798 378.227203 572.452199 377.120953 
Q 573.028761 376.014703 573.028761 374.960016 
Q 573.028761 374.191266 572.55298 373.682672 
Q 572.077199 373.171734 571.388136 373.171734 
Q 570.260792 373.171734 569.637355 374.301422 
L 569.36548 374.205328 
Q 569.761574 372.799078 570.567824 372.126422 
Q 571.374074 371.451422 572.428761 371.451422 
Q 573.181105 371.451422 573.804542 371.802984 
Q 574.42798 372.154547 574.779542 372.766266 
Q 575.131105 373.377984 575.131105 373.912359 
Q 575.131105 374.887359 574.587355 375.890484 
Q 573.849074 377.245172 571.357667 379.668609 
L 573.504542 379.668609 
Q 574.294386 379.668609 574.533449 379.602984 
Q 574.772511 379.537359 574.924855 379.380328 
Q 575.079542 379.223297 575.32798 378.717047 
L 575.592824 378.717047 
L 575.035011 381.588141 
z
M 578.199074 379.331109 
Q 578.712355 379.331109 579.066261 379.692047 
Q 579.422511 380.050641 579.422511 380.554547 
Q 579.422511 381.060797 579.063917 381.417047 
Q 578.705324 381.770953 578.199074 381.770953 
Q 577.692824 381.770953 577.336574 381.417047 
Q 576.982667 381.060797 576.982667 380.554547 
Q 576.982667 380.050641 577.336574 379.692047 
Q 577.692824 379.331109 578.199074 379.331109 
z
M 587.025636 376.621734 
Q 587.025636 378.110016 586.608449 379.399078 
Q 586.357667 380.188922 585.935792 380.695172 
Q 585.516261 381.199078 584.981886 381.496734 
Q 584.447511 381.794391 583.817042 381.794391 
Q 583.099855 381.794391 582.520949 381.428766 
Q 581.942042 381.060797 581.494386 380.378766 
Q 581.173292 379.881891 580.931886 379.054547 
Q 580.61548 377.934234 580.61548 376.738922 
Q 580.61548 375.121734 581.070167 373.764703 
Q 581.442824 372.644391 582.204542 372.049078 
Q 582.966261 371.451422 583.817042 371.451422 
Q 584.681886 371.451422 585.431886 372.042047 
Q 586.181886 372.630328 586.533449 373.626422 
Q 587.025636 374.995172 587.025636 376.621734 
z
M 584.768605 376.607672 
Q 584.768605 373.999078 584.74048 373.567828 
Q 584.66548 372.550641 584.388917 372.192047 
Q 584.206105 371.957672 583.795949 371.957672 
Q 583.479542 371.957672 583.29673 372.133453 
Q 583.024855 372.388922 582.928761 373.038141 
Q 582.835011 373.685016 582.835011 377.559234 
Q 582.835011 379.668609 582.982667 380.385797 
Q 583.092824 380.906109 583.29673 381.081891 
Q 583.50298 381.257672 583.838136 381.257672 
Q 584.206105 381.257672 584.388917 381.023297 
Q 584.695949 380.613141 584.74048 379.757672 
L 584.768605 376.607672 
z
" style="fill: #404040; stroke: #ffffff; stroke-width: 3.8"/>
    <path d="M 575.035011 381.588141 
L 569.189699 381.588141 
L 569.189699 381.426422 
Q 571.87798 378.227203 572.452199 377.120953 
Q 573.028761 376.014703 573.028761 374.960016 
Q 573.028761 374.191266 572.55298 373.682672 
Q 572.077199 373.171734 571.388136 373.171734 
Q 570.260792 373.171734 569.637355 374.301422 
L 569.36548 374.205328 
Q 569.761574 372.799078 570.567824 372.126422 
Q 571.374074 371.451422 572.428761 371.451422 
Q 573.181105 371.451422 573.804542 371.802984 
Q 574.42798 372.154547 574.779542 372.766266 
Q 575.131105 373.377984 575.131105 373.912359 
Q 575.131105 374.887359 574.587355 375.890484 
Q 573.849074 377.245172 571.357667 379.668609 
L 573.504542 379.668609 
Q 574.294386 379.668609 574.533449 379.602984 
Q 574.772511 379.537359 574.924855 379.380328 
Q 575.079542 379.223297 575.32798 378.717047 
L 575.592824 378.717047 
L 575.035011 381.588141 
z
M 578.199074 379.331109 
Q 578.712355 379.331109 579.066261 379.692047 
Q 579.422511 380.050641 579.422511 380.554547 
Q 579.422511 381.060797 579.063917 381.417047 
Q 578.705324 381.770953 578.199074 381.770953 
Q 577.692824 381.770953 577.336574 381.417047 
Q 576.982667 381.060797 576.982667 380.554547 
Q 576.982667 380.050641 577.336574 379.692047 
Q 577.692824 379.331109 578.199074 379.331109 
z
M 587.025636 376.621734 
Q 587.025636 378.110016 586.608449 379.399078 
Q 586.357667 380.188922 585.935792 380.695172 
Q 585.516261 381.199078 584.981886 381.496734 
Q 584.447511 381.794391 583.817042 381.794391 
Q 583.099855 381.794391 582.520949 381.428766 
Q 581.942042 381.060797 581.494386 380.378766 
Q 581.173292 379.881891 580.931886 379.054547 
Q 580.61548 377.934234 580.61548 376.738922 
Q 580.61548 375.121734 581.070167 373.764703 
Q 581.442824 372.644391 582.204542 372.049078 
Q 582.966261 371.451422 583.817042 371.451422 
Q 584.681886 371.451422 585.431886 372.042047 
Q 586.181886 372.630328 586.533449 373.626422 
Q 587.025636 374.995172 587.025636 376.621734 
z
M 584.768605 376.607672 
Q 584.768605 373.999078 584.74048 373.567828 
Q 584.66548 372.550641 584.388917 372.192047 
Q 584.206105 371.957672 583.795949 371.957672 
Q 583.479542 371.957672 583.29673 372.133453 
Q 583.024855 372.388922 582.928761 373.038141 
Q 582.835011 373.685016 582.835011 377.559234 
Q 582.835011 379.668609 582.982667 380.385797 
Q 583.092824 380.906109 583.29673 381.081891 
Q 583.50298 381.257672 583.838136 381.257672 
Q 584.206105 381.257672 584.388917 381.023297 
Q 584.695949 380.613141 584.74048 379.757672 
L 584.768605 376.607672 
z
" style="fill: #404040"/>
   </g>
   <g id="text_30">
    <path d="M 568.961768 330.532899 
L 563.116455 330.532899 
L 563.116455 330.37118 
Q 565.804736 327.171962 566.378955 326.065712 
Q 566.955518 324.959462 566.955518 323.904774 
Q 566.955518 323.136024 566.479736 322.62743 
Q 566.003955 322.116493 565.314893 322.116493 
Q 564.187549 322.116493 563.564111 323.24618 
L 563.292236 323.150087 
Q 563.68833 321.743837 564.49458 321.07118 
Q 565.30083 320.39618 566.355518 320.39618 
Q 567.107861 320.39618 567.731299 320.747743 
Q 568.354736 321.099305 568.706299 321.711024 
Q 569.057861 322.322743 569.057861 322.857118 
Q 569.057861 323.832118 568.514111 324.835243 
Q 567.77583 326.18993 565.284424 328.613368 
L 567.431299 328.613368 
Q 568.221143 328.613368 568.460205 328.547743 
Q 568.699268 328.482118 568.851611 328.325087 
Q 569.006299 328.168055 569.254736 327.661805 
L 569.51958 327.661805 
L 568.961768 330.532899 
z
M 575.135205 320.39618 
L 575.135205 328.519618 
Q 575.135205 329.43368 575.214893 329.686805 
Q 575.296924 329.93993 575.552393 330.101649 
Q 575.810205 330.261024 576.375049 330.261024 
L 576.600049 330.261024 
L 576.600049 330.532899 
L 571.371143 330.532899 
L 571.371143 330.261024 
L 571.635986 330.261024 
Q 572.273486 330.261024 572.543018 330.115712 
Q 572.814893 329.968055 572.908643 329.712587 
Q 573.004736 329.457118 573.004736 328.519618 
L 573.004736 323.370399 
Q 573.004736 322.681337 572.939111 322.510243 
Q 572.873486 322.336805 572.693018 322.217274 
Q 572.514893 322.095399 572.280518 322.095399 
Q 571.905518 322.095399 571.371143 322.329774 
L 571.239893 322.06493 
L 574.893799 320.39618 
L 575.135205 320.39618 
z
M 579.62583 328.275868 
Q 580.139111 328.275868 580.493018 328.636805 
Q 580.849268 328.995399 580.849268 329.499305 
Q 580.849268 330.005555 580.490674 330.361805 
Q 580.13208 330.715712 579.62583 330.715712 
Q 579.11958 330.715712 578.76333 330.361805 
Q 578.409424 330.005555 578.409424 329.499305 
Q 578.409424 328.995399 578.76333 328.636805 
Q 579.11958 328.275868 579.62583 328.275868 
z
M 586.385205 320.39618 
L 586.385205 328.519618 
Q 586.385205 329.43368 586.464893 329.686805 
Q 586.546924 329.93993 586.802393 330.101649 
Q 587.060205 330.261024 587.625049 330.261024 
L 587.850049 330.261024 
L 587.850049 330.532899 
L 582.621143 330.532899 
L 582.621143 330.261024 
L 582.885986 330.261024 
Q 583.523486 330.261024 583.793018 330.115712 
Q 584.064893 329.968055 584.158643 329.712587 
Q 584.254736 329.457118 584.254736 328.519618 
L 584.254736 323.370399 
Q 584.254736 322.681337 584.189111 322.510243 
Q 584.123486 322.336805 583.943018 322.217274 
Q 583.764893 322.095399 583.530518 322.095399 
Q 583.155518 322.095399 582.621143 322.329774 
L 582.489893 322.06493 
L 586.143799 320.39618 
L 586.385205 320.39618 
z
" style="fill: #404040; stroke: #ffffff; stroke-width: 3.8"/>
    <path d="M 568.961768 330.532899 
L 563.116455 330.532899 
L 563.116455 330.37118 
Q 565.804736 327.171962 566.378955 326.065712 
Q 566.955518 324.959462 566.955518 323.904774 
Q 566.955518 323.136024 566.479736 322.62743 
Q 566.003955 322.116493 565.314893 322.116493 
Q 564.187549 322.116493 563.564111 323.24618 
L 563.292236 323.150087 
Q 563.68833 321.743837 564.49458 321.07118 
Q 565.30083 320.39618 566.355518 320.39618 
Q 567.107861 320.39618 567.731299 320.747743 
Q 568.354736 321.099305 568.706299 321.711024 
Q 569.057861 322.322743 569.057861 322.857118 
Q 569.057861 323.832118 568.514111 324.835243 
Q 567.77583 326.18993 565.284424 328.613368 
L 567.431299 328.613368 
Q 568.221143 328.613368 568.460205 328.547743 
Q 568.699268 328.482118 568.851611 328.325087 
Q 569.006299 328.168055 569.254736 327.661805 
L 569.51958 327.661805 
L 568.961768 330.532899 
z
M 575.135205 320.39618 
L 575.135205 328.519618 
Q 575.135205 329.43368 575.214893 329.686805 
Q 575.296924 329.93993 575.552393 330.101649 
Q 575.810205 330.261024 576.375049 330.261024 
L 576.600049 330.261024 
L 576.600049 330.532899 
L 571.371143 330.532899 
L 571.371143 330.261024 
L 571.635986 330.261024 
Q 572.273486 330.261024 572.543018 330.115712 
Q 572.814893 329.968055 572.908643 329.712587 
Q 573.004736 329.457118 573.004736 328.519618 
L 573.004736 323.370399 
Q 573.004736 322.681337 572.939111 322.510243 
Q 572.873486 322.336805 572.693018 322.217274 
Q 572.514893 322.095399 572.280518 322.095399 
Q 571.905518 322.095399 571.371143 322.329774 
L 571.239893 322.06493 
L 574.893799 320.39618 
L 575.135205 320.39618 
z
M 579.62583 328.275868 
Q 580.139111 328.275868 580.493018 328.636805 
Q 580.849268 328.995399 580.849268 329.499305 
Q 580.849268 330.005555 580.490674 330.361805 
Q 580.13208 330.715712 579.62583 330.715712 
Q 579.11958 330.715712 578.76333 330.361805 
Q 578.409424 330.005555 578.409424 329.499305 
Q 578.409424 328.995399 578.76333 328.636805 
Q 579.11958 328.275868 579.62583 328.275868 
z
M 586.385205 320.39618 
L 586.385205 328.519618 
Q 586.385205 329.43368 586.464893 329.686805 
Q 586.546924 329.93993 586.802393 330.101649 
Q 587.060205 330.261024 587.625049 330.261024 
L 587.850049 330.261024 
L 587.850049 330.532899 
L 582.621143 330.532899 
L 582.621143 330.261024 
L 582.885986 330.261024 
Q 583.523486 330.261024 583.793018 330.115712 
Q 584.064893 329.968055 584.158643 329.712587 
Q 584.254736 329.457118 584.254736 328.519618 
L 584.254736 323.370399 
Q 584.254736 322.681337 584.189111 322.510243 
Q 584.123486 322.336805 583.943018 322.217274 
Q 583.764893 322.095399 583.530518 322.095399 
Q 583.155518 322.095399 582.621143 322.329774 
L 582.489893 322.06493 
L 586.143799 320.39618 
L 586.385205 320.39618 
z
" style="fill: #404040"/>
   </g>
   <g id="text_31">
    <path d="M 536.315006 298.521332 
L 530.469693 298.521332 
L 530.469693 298.359613 
Q 533.157975 295.160395 533.732193 294.054145 
Q 534.308756 292.947895 534.308756 291.893207 
Q 534.308756 291.124457 533.832975 290.615863 
Q 533.357193 290.104926 532.668131 290.104926 
Q 531.540787 290.104926 530.91735 291.234613 
L 530.645475 291.13852 
Q 531.041568 289.73227 531.847818 289.059613 
Q 532.654068 288.384613 533.708756 288.384613 
Q 534.4611 288.384613 535.084537 288.736176 
Q 535.707975 289.087738 536.059537 289.699457 
Q 536.4111 290.311176 536.4111 290.845551 
Q 536.4111 291.820551 535.86735 292.823676 
Q 535.129068 294.178363 532.637662 296.601801 
L 534.784537 296.601801 
Q 535.574381 296.601801 535.813443 296.536176 
Q 536.052506 296.470551 536.20485 296.31352 
Q 536.359537 296.156488 536.607975 295.650238 
L 536.872818 295.650238 
L 536.315006 298.521332 
z
M 539.479068 296.264301 
Q 539.99235 296.264301 540.346256 296.625238 
Q 540.702506 296.983832 540.702506 297.487738 
Q 540.702506 297.993988 540.343912 298.350238 
Q 539.985318 298.704145 539.479068 298.704145 
Q 538.972818 298.704145 538.616568 298.350238 
Q 538.262662 297.993988 538.262662 297.487738 
Q 538.262662 296.983832 538.616568 296.625238 
Q 538.972818 296.264301 539.479068 296.264301 
z
M 546.465787 292.910395 
Q 547.513443 293.679145 547.918912 294.342426 
Q 548.326725 295.005707 548.326725 295.86352 
Q 548.326725 297.06352 547.422037 297.895551 
Q 546.51735 298.727582 544.965787 298.727582 
Q 543.493912 298.727582 542.687662 298.003363 
Q 541.881412 297.276801 541.881412 296.229145 
Q 541.881412 295.429926 542.345475 294.829926 
Q 542.811881 294.229926 543.894693 293.730707 
Q 542.715787 292.830707 542.382975 292.258832 
Q 542.050162 291.686957 542.050162 290.93227 
Q 542.050162 289.936176 542.896256 289.179145 
Q 543.74235 288.422113 545.214225 288.422113 
Q 546.634537 288.422113 547.3986 289.092426 
Q 548.165006 289.760395 548.165006 290.697895 
Q 548.165006 291.40102 547.750162 291.940082 
Q 547.337662 292.479145 546.465787 292.910395 
z
M 545.910318 292.537738 
Q 546.17985 292.172113 546.3111 291.717426 
Q 546.444693 291.262738 546.444693 290.721332 
Q 546.444693 289.76977 546.034537 289.26352 
Q 545.727506 288.874457 545.183756 288.874457 
Q 544.693912 288.874457 544.349381 289.230707 
Q 544.00485 289.584613 544.00485 290.111957 
Q 544.00485 290.648676 544.389225 291.222895 
Q 544.7736 291.797113 545.910318 292.537738 
z
M 544.445475 294.08227 
Q 544.218131 294.28852 544.122037 294.45727 
Q 543.976725 294.712738 543.859537 295.204926 
Q 543.74235 295.69477 543.74235 296.229145 
Q 543.74235 296.918207 543.918131 297.38227 
Q 544.093912 297.846332 544.419693 298.052582 
Q 544.745475 298.256488 545.090006 298.256488 
Q 545.624381 298.256488 545.990006 297.865082 
Q 546.355631 297.473676 546.355631 296.791645 
Q 546.355631 295.371332 544.445475 294.08227 
z
" style="fill: #404040; stroke: #ffffff; stroke-width: 3.8"/>
    <path d="M 536.315006 298.521332 
L 530.469693 298.521332 
L 530.469693 298.359613 
Q 533.157975 295.160395 533.732193 294.054145 
Q 534.308756 292.947895 534.308756 291.893207 
Q 534.308756 291.124457 533.832975 290.615863 
Q 533.357193 290.104926 532.668131 290.104926 
Q 531.540787 290.104926 530.91735 291.234613 
L 530.645475 291.13852 
Q 531.041568 289.73227 531.847818 289.059613 
Q 532.654068 288.384613 533.708756 288.384613 
Q 534.4611 288.384613 535.084537 288.736176 
Q 535.707975 289.087738 536.059537 289.699457 
Q 536.4111 290.311176 536.4111 290.845551 
Q 536.4111 291.820551 535.86735 292.823676 
Q 535.129068 294.178363 532.637662 296.601801 
L 534.784537 296.601801 
Q 535.574381 296.601801 535.813443 296.536176 
Q 536.052506 296.470551 536.20485 296.31352 
Q 536.359537 296.156488 536.607975 295.650238 
L 536.872818 295.650238 
L 536.315006 298.521332 
z
M 539.479068 296.264301 
Q 539.99235 296.264301 540.346256 296.625238 
Q 540.702506 296.983832 540.702506 297.487738 
Q 540.702506 297.993988 540.343912 298.350238 
Q 539.985318 298.704145 539.479068 298.704145 
Q 538.972818 298.704145 538.616568 298.350238 
Q 538.262662 297.993988 538.262662 297.487738 
Q 538.262662 296.983832 538.616568 296.625238 
Q 538.972818 296.264301 539.479068 296.264301 
z
M 546.465787 292.910395 
Q 547.513443 293.679145 547.918912 294.342426 
Q 548.326725 295.005707 548.326725 295.86352 
Q 548.326725 297.06352 547.422037 297.895551 
Q 546.51735 298.727582 544.965787 298.727582 
Q 543.493912 298.727582 542.687662 298.003363 
Q 541.881412 297.276801 541.881412 296.229145 
Q 541.881412 295.429926 542.345475 294.829926 
Q 542.811881 294.229926 543.894693 293.730707 
Q 542.715787 292.830707 542.382975 292.258832 
Q 542.050162 291.686957 542.050162 290.93227 
Q 542.050162 289.936176 542.896256 289.179145 
Q 543.74235 288.422113 545.214225 288.422113 
Q 546.634537 288.422113 547.3986 289.092426 
Q 548.165006 289.760395 548.165006 290.697895 
Q 548.165006 291.40102 547.750162 291.940082 
Q 547.337662 292.479145 546.465787 292.910395 
z
M 545.910318 292.537738 
Q 546.17985 292.172113 546.3111 291.717426 
Q 546.444693 291.262738 546.444693 290.721332 
Q 546.444693 289.76977 546.034537 289.26352 
Q 545.727506 288.874457 545.183756 288.874457 
Q 544.693912 288.874457 544.349381 289.230707 
Q 544.00485 289.584613 544.00485 290.111957 
Q 544.00485 290.648676 544.389225 291.222895 
Q 544.7736 291.797113 545.910318 292.537738 
z
M 544.445475 294.08227 
Q 544.218131 294.28852 544.122037 294.45727 
Q 543.976725 294.712738 543.859537 295.204926 
Q 543.74235 295.69477 543.74235 296.229145 
Q 543.74235 296.918207 543.918131 297.38227 
Q 544.093912 297.846332 544.419693 298.052582 
Q 544.745475 298.256488 545.090006 298.256488 
Q 545.624381 298.256488 545.990006 297.865082 
Q 546.355631 297.473676 546.355631 296.791645 
Q 546.355631 295.371332 544.445475 294.08227 
z
" style="fill: #404040"/>
   </g>
   <g id="text_32">
    <path d="M 325.782367 358.060437 
L 319.937054 358.060437 
L 319.937054 357.898718 
Q 322.625336 354.6995 323.199554 353.59325 
Q 323.776117 352.487 323.776117 351.432312 
Q 323.776117 350.663562 323.300336 350.154968 
Q 322.824554 349.644031 322.135492 349.644031 
Q 321.008148 349.644031 320.384711 350.773718 
L 320.112836 350.677625 
Q 320.508929 349.271375 321.315179 348.598718 
Q 322.121429 347.923718 323.176117 347.923718 
Q 323.928461 347.923718 324.551898 348.275281 
Q 325.175336 348.626843 325.526898 349.238562 
Q 325.878461 349.850281 325.878461 350.384656 
Q 325.878461 351.359656 325.334711 352.362781 
Q 324.596429 353.717468 322.105023 356.140906 
L 324.251898 356.140906 
Q 325.041742 356.140906 325.280804 356.075281 
Q 325.519867 356.009656 325.672211 355.852625 
Q 325.826898 355.695593 326.075336 355.189343 
L 326.340179 355.189343 
L 325.782367 358.060437 
z
M 334.116742 347.923718 
L 334.116742 348.127625 
Q 332.792523 348.465125 331.988617 348.997156 
Q 331.187054 349.526843 330.720648 350.286218 
Q 330.256586 351.04325 330.001117 352.163562 
Q 330.324554 351.945593 330.535492 351.877625 
Q 331.011273 351.732312 331.496429 351.732312 
Q 332.609711 351.732312 333.352679 352.54325 
Q 334.095648 353.351843 334.095648 354.748718 
Q 334.095648 355.73075 333.692523 356.551062 
Q 333.289398 357.371375 332.548773 357.819031 
Q 331.810492 358.266687 330.969086 358.266687 
Q 330.052679 358.266687 329.274554 357.765125 
Q 328.498773 357.261218 328.062836 356.295593 
Q 327.629242 355.327625 327.629242 354.19325 
Q 327.629242 352.522156 328.430804 351.083093 
Q 329.232367 349.644031 330.706586 348.790906 
Q 332.183148 347.937781 334.116742 347.923718 
z
M 329.905023 352.756531 
Q 329.846429 353.769031 329.846429 354.237781 
Q 329.846429 355.247937 330.040961 356.192468 
Q 330.235492 357.137 330.572992 357.519031 
Q 330.814398 357.788562 331.144867 357.788562 
Q 331.480023 357.788562 331.742523 357.397156 
Q 332.007367 357.00575 332.007367 355.803406 
Q 332.007367 353.783093 331.517523 353.014343 
Q 331.203461 352.515125 330.666742 352.515125 
Q 330.373773 352.515125 329.905023 352.756531 
z
M 336.446429 355.803406 
Q 336.959711 355.803406 337.313617 356.164343 
Q 337.669867 356.522937 337.669867 357.026843 
Q 337.669867 357.533093 337.311273 357.889343 
Q 336.952679 358.24325 336.446429 358.24325 
Q 335.940179 358.24325 335.583929 357.889343 
Q 335.230023 357.533093 335.230023 357.026843 
Q 335.230023 356.522937 335.583929 356.164343 
Q 335.940179 355.803406 336.446429 355.803406 
z
M 338.694086 354.317468 
L 343.412054 347.923718 
L 344.305023 347.923718 
L 344.305023 354.317468 
L 345.214398 354.317468 
L 345.214398 355.833875 
L 344.305023 355.833875 
L 344.305023 358.060437 
L 342.291742 358.060437 
L 342.291742 355.833875 
L 338.694086 355.833875 
L 338.694086 354.317468 
z
M 339.406586 354.317468 
L 342.291742 354.317468 
L 342.291742 350.398718 
L 339.406586 354.317468 
z
" style="fill: #404040; stroke: #ffffff; stroke-width: 3.8"/>
    <path d="M 325.782367 358.060437 
L 319.937054 358.060437 
L 319.937054 357.898718 
Q 322.625336 354.6995 323.199554 353.59325 
Q 323.776117 352.487 323.776117 351.432312 
Q 323.776117 350.663562 323.300336 350.154968 
Q 322.824554 349.644031 322.135492 349.644031 
Q 321.008148 349.644031 320.384711 350.773718 
L 320.112836 350.677625 
Q 320.508929 349.271375 321.315179 348.598718 
Q 322.121429 347.923718 323.176117 347.923718 
Q 323.928461 347.923718 324.551898 348.275281 
Q 325.175336 348.626843 325.526898 349.238562 
Q 325.878461 349.850281 325.878461 350.384656 
Q 325.878461 351.359656 325.334711 352.362781 
Q 324.596429 353.717468 322.105023 356.140906 
L 324.251898 356.140906 
Q 325.041742 356.140906 325.280804 356.075281 
Q 325.519867 356.009656 325.672211 355.852625 
Q 325.826898 355.695593 326.075336 355.189343 
L 326.340179 355.189343 
L 325.782367 358.060437 
z
M 334.116742 347.923718 
L 334.116742 348.127625 
Q 332.792523 348.465125 331.988617 348.997156 
Q 331.187054 349.526843 330.720648 350.286218 
Q 330.256586 351.04325 330.001117 352.163562 
Q 330.324554 351.945593 330.535492 351.877625 
Q 331.011273 351.732312 331.496429 351.732312 
Q 332.609711 351.732312 333.352679 352.54325 
Q 334.095648 353.351843 334.095648 354.748718 
Q 334.095648 355.73075 333.692523 356.551062 
Q 333.289398 357.371375 332.548773 357.819031 
Q 331.810492 358.266687 330.969086 358.266687 
Q 330.052679 358.266687 329.274554 357.765125 
Q 328.498773 357.261218 328.062836 356.295593 
Q 327.629242 355.327625 327.629242 354.19325 
Q 327.629242 352.522156 328.430804 351.083093 
Q 329.232367 349.644031 330.706586 348.790906 
Q 332.183148 347.937781 334.116742 347.923718 
z
M 329.905023 352.756531 
Q 329.846429 353.769031 329.846429 354.237781 
Q 329.846429 355.247937 330.040961 356.192468 
Q 330.235492 357.137 330.572992 357.519031 
Q 330.814398 357.788562 331.144867 357.788562 
Q 331.480023 357.788562 331.742523 357.397156 
Q 332.007367 357.00575 332.007367 355.803406 
Q 332.007367 353.783093 331.517523 353.014343 
Q 331.203461 352.515125 330.666742 352.515125 
Q 330.373773 352.515125 329.905023 352.756531 
z
M 336.446429 355.803406 
Q 336.959711 355.803406 337.313617 356.164343 
Q 337.669867 356.522937 337.669867 357.026843 
Q 337.669867 357.533093 337.311273 357.889343 
Q 336.952679 358.24325 336.446429 358.24325 
Q 335.940179 358.24325 335.583929 357.889343 
Q 335.230023 357.533093 335.230023 357.026843 
Q 335.230023 356.522937 335.583929 356.164343 
Q 335.940179 355.803406 336.446429 355.803406 
z
M 338.694086 354.317468 
L 343.412054 347.923718 
L 344.305023 347.923718 
L 344.305023 354.317468 
L 345.214398 354.317468 
L 345.214398 355.833875 
L 344.305023 355.833875 
L 344.305023 358.060437 
L 342.291742 358.060437 
L 342.291742 355.833875 
L 338.694086 355.833875 
L 338.694086 354.317468 
z
M 339.406586 354.317468 
L 342.291742 354.317468 
L 342.291742 350.398718 
L 339.406586 354.317468 
z
" style="fill: #404040"/>
   </g>
  </g>
 </g>
 <defs>
  <clipPath id="p3ff1589652">
   <rect x="7.2" y="56.14" width="730.764" height="426.222462"/>
  </clipPath>
 </defs>
</svg>
