<?xml version="1.0" encoding="utf-8" standalone="no"?>
<!DOCTYPE svg PUBLIC "-//W3C//DTD SVG 1.1//EN"
  "http://www.w3.org/Graphics/SVG/1.1/DTD/svg11.dtd">
<svg xmlns:xlink="http://www.w3.org/1999/xlink" width="745.164pt" height="496.272514pt" viewBox="0 0 745.164 496.272514" xmlns="http://www.w3.org/2000/svg" version="1.1">
 <metadata>
  <rdf:RDF xmlns:dc="http://purl.org/dc/elements/1.1/" xmlns:cc="http://creativecommons.org/ns#" xmlns:rdf="http://www.w3.org/1999/02/22-rdf-syntax-ns#">
   <cc:Work>
    <dc:type rdf:resource="http://purl.org/dc/dcmitype/StillImage"/>
    <dc:date>2026-07-13T16:58:17.818282</dc:date>
    <dc:format>image/svg+xml</dc:format>
    <dc:creator>
     <cc:Agent>
      <dc:title>Matplotlib v3.10.8, https://matplotlib.org/</dc:title>
     </cc:Agent>
    </dc:creator>
   </cc:Work>
  </rdf:RDF>
 </metadata>
 <defs>
  <style type="text/css">*{stroke-linejoin: round; stroke-linecap: butt}</style>
 </defs>
 <g id="figure_1">
  <g id="patch_1">
   <path d="M 0 496.272514 
L 745.164 496.272514 
L 745.164 0 
L 0 0 
L 0 496.272514 
z
" style="fill: none"/>
  </g>
  <g id="axes_1">
   <g id="patch_2">
    <path d="M 120.350555 431.720338 
Q 120.350555 455.358887 120.350555 477.157982 
" clip-path="url(#p6aaef7d16f)" style="fill: none; stroke: #111111; stroke-width: 1.645258; stroke-linejoin: miter; stroke-linecap: round"/>
    <path d="M 123.821037 470.217016 
L 120.350555 477.157982 
L 116.880072 470.217016 
z
" clip-path="url(#p6aaef7d16f)" style="fill: #111111; stroke: #111111; stroke-width: 1.645258; stroke-linejoin: miter; stroke-linecap: round"/>
   </g>
   <g id="patch_3">
    <path d="M 120.350555 337.521163 
Q 120.350555 358.521415 120.350555 376.392396 
" clip-path="url(#p6aaef7d16f)" style="fill: none; stroke: #111111; stroke-width: 2.798906; stroke-linejoin: miter; stroke-linecap: round"/>
    <path d="M 124.190205 368.713096 
L 120.350555 376.392396 
L 116.510905 368.713096 
z
" clip-path="url(#p6aaef7d16f)" style="fill: #111111; stroke: #111111; stroke-width: 2.798906; stroke-linejoin: miter; stroke-linecap: round"/>
   </g>
   <g id="patch_4">
    <path d="M 120.350555 250.115603 
Q 120.350555 270.357345 120.350555 286.032945 
" clip-path="url(#p6aaef7d16f)" style="fill: none; stroke: #111111; stroke-width: 4.084081; stroke-linejoin: miter; stroke-linecap: round"/>
    <path d="M 124.601461 277.531134 
L 120.350555 286.032945 
L 116.099649 277.531134 
z
" clip-path="url(#p6aaef7d16f)" style="fill: #111111; stroke: #111111; stroke-width: 4.084081; stroke-linejoin: miter; stroke-linecap: round"/>
   </g>
   <g id="patch_5">
    <path d="M 370.224697 299.622868 
Q 370.224697 329.773178 370.224697 358.262784 
" clip-path="url(#p6aaef7d16f)" style="fill: none; stroke: #111111; stroke-width: 1.485379; stroke-linejoin: miter; stroke-linecap: round"/>
    <path d="M 373.644018 351.424141 
L 370.224697 358.262784 
L 366.805375 351.424141 
z
" clip-path="url(#p6aaef7d16f)" style="fill: #111111; stroke: #111111; stroke-width: 1.485379; stroke-linejoin: miter; stroke-linecap: round"/>
   </g>
   <g id="patch_6">
    <path d="M 370.224697 193.091011 
Q 370.224697 213.745844 370.224697 230.563672 
" clip-path="url(#p6aaef7d16f)" style="fill: none; stroke: #111111; stroke-width: 3.431921; stroke-linejoin: miter; stroke-linecap: round"/>
    <path d="M 374.266912 222.479242 
L 370.224697 230.563672 
L 366.182482 222.479242 
z
" clip-path="url(#p6aaef7d16f)" style="fill: #111111; stroke: #111111; stroke-width: 3.431921; stroke-linejoin: miter; stroke-linecap: round"/>
   </g>
   <g id="patch_7">
    <path d="M 370.224697 113.225057 
Q 370.224697 130.042415 370.224697 140.375176 
" clip-path="url(#p6aaef7d16f)" style="fill: none; stroke: #111111; stroke-width: 5.8; stroke-linejoin: miter; stroke-linecap: round"/>
    <path d="M 375.024697 130.775176 
L 370.224697 140.375176 
L 365.424697 130.775176 
z
" clip-path="url(#p6aaef7d16f)" style="fill: #111111; stroke: #111111; stroke-width: 5.8; stroke-linejoin: miter; stroke-linecap: round"/>
   </g>
   <g id="patch_8">
    <path d="M 586.153672 224.027341 
Q 586.153672 252.522278 586.153672 278.580816 
" clip-path="url(#p6aaef7d16f)" style="fill: none; stroke: #111111; stroke-width: 2.179182; stroke-linejoin: miter; stroke-linecap: round"/>
    <path d="M 589.79501 271.298139 
L 586.153672 278.580816 
L 582.512334 271.298139 
z
" clip-path="url(#p6aaef7d16f)" style="fill: #111111; stroke: #111111; stroke-width: 2.179182; stroke-linejoin: miter; stroke-linecap: round"/>
   </g>
   <g id="line2d_1">
    <path d="M 165.610777 478.997436 
L 550.322663 478.997436 
" clip-path="url(#p6aaef7d16f)" style="fill: none; stroke-dasharray: 5.6,4.2; stroke-dashoffset: 0; stroke: #404040; stroke-width: 1.4"/>
   </g>
   <g id="line2d_2">
    <path d="M 165.610777 379.521668 
L 550.322663 379.521668 
" clip-path="url(#p6aaef7d16f)" style="fill: none; stroke-dasharray: 5.6,4.2; stroke-dashoffset: 0; stroke: #404040; stroke-width: 1.4"/>
   </g>
   <g id="line2d_3">
    <path d="M 415.484919 359.923488 
L 560.694797 359.923488 
" clip-path="url(#p6aaef7d16f)" style="fill: none; stroke-dasharray: 5.6,4.2; stroke-dashoffset: 0; stroke: #404040; stroke-width: 1.4"/>
   </g>
   <g id="patch_9">
    <path d="M 665.359061 281.017215 
Q 578.480133 377.776362 492.295839 473.761881 
" clip-path="url(#p6aaef7d16f)" style="fill: none; stroke: #404040; stroke-width: 0.929953; stroke-linejoin: miter; stroke-linecap: round"/>
    <path d="M 498.2107 471.430209 
L 492.295839 473.761881 
L 493.979417 467.630989 
z
" clip-path="url(#p6aaef7d16f)" style="fill: #404040; stroke: #404040; stroke-width: 0.929953; stroke-linejoin: miter; stroke-linecap: round"/>
   </g>
   <g id="patch_10">
    <path d="M 620.098839 281.017215 
Q 577.879955 328.037399 536.73379 373.862871 
" clip-path="url(#p6aaef7d16f)" style="fill: none; stroke: #404040; stroke-width: 1.436123; stroke-linejoin: miter; stroke-linecap: round"/>
    <path d="M 542.999641 371.392837 
L 536.73379 373.862871 
L 538.517273 367.36817 
z
" clip-path="url(#p6aaef7d16f)" style="fill: #404040; stroke: #404040; stroke-width: 1.436123; stroke-linejoin: miter; stroke-linecap: round"/>
   </g>
   <g id="patch_11">
    <path d="M 574.838617 281.017215 
Q 541.480776 318.236905 509.076587 354.392539 
" clip-path="url(#p6aaef7d16f)" style="fill: none; stroke: #404040; stroke-width: 1.27802; stroke-linejoin: miter; stroke-linecap: round"/>
    <path d="M 515.230589 351.960106 
L 509.076587 354.392539 
L 510.823042 348.009878 
z
" clip-path="url(#p6aaef7d16f)" style="fill: #404040; stroke: #404040; stroke-width: 1.27802; stroke-linejoin: miter; stroke-linecap: round"/>
   </g>
   <g id="patch_12">
    <path d="M 370.224697 359.923488 
Q 335.598548 368.964799 304.718982 377.027832 
" clip-path="url(#p6aaef7d16f)" style="fill: none; stroke: #404040; stroke-width: 3.463398; stroke-linejoin: miter; stroke-linecap: round"/>
    <path d="M 312.787008 378.732615 
L 304.718982 377.027832 
L 310.923624 371.596281 
z
" clip-path="url(#p6aaef7d16f)" style="fill: #404040; stroke: #404040; stroke-width: 3.463398; stroke-linejoin: miter; stroke-linecap: round"/>
   </g>
   <g id="line2d_4">
    <path d="M 120.350555 379.521668 
L 120.350555 426.798766 
" clip-path="url(#p6aaef7d16f)" style="fill: none; stroke: #111111; stroke-width: 1.645258"/>
   </g>
   <g id="line2d_5">
    <path d="M 120.350555 290.599087 
L 120.350555 332.599591 
" clip-path="url(#p6aaef7d16f)" style="fill: none; stroke: #111111; stroke-width: 2.798906"/>
   </g>
   <g id="line2d_6">
    <path d="M 120.350555 204.710547 
L 120.350555 245.194031 
" clip-path="url(#p6aaef7d16f)" style="fill: none; stroke: #111111; stroke-width: 4.084081"/>
   </g>
   <g id="line2d_7">
    <path d="M 370.224697 234.400677 
L 370.224697 294.701297 
" clip-path="url(#p6aaef7d16f)" style="fill: none; stroke: #111111; stroke-width: 1.485379"/>
   </g>
   <g id="line2d_8">
    <path d="M 370.224697 146.859773 
L 370.224697 188.169439 
" clip-path="url(#p6aaef7d16f)" style="fill: none; stroke: #111111; stroke-width: 3.431921"/>
   </g>
   <g id="line2d_9">
    <path d="M 370.224697 74.66877 
L 370.224697 108.303486 
" clip-path="url(#p6aaef7d16f)" style="fill: none; stroke: #111111; stroke-width: 5.8"/>
   </g>
   <g id="line2d_10">
    <path d="M 586.153672 162.115896 
L 586.153672 219.10577 
" clip-path="url(#p6aaef7d16f)" style="fill: none; stroke: #111111; stroke-width: 2.179182"/>
   </g>
   <g id="line2d_11">
    <path d="M 75.090333 478.997436 
L 165.610777 478.997436 
" clip-path="url(#p6aaef7d16f)" style="fill: none; stroke: #111111; stroke-width: 3.6; stroke-linecap: round"/>
   </g>
   <g id="line2d_12">
    <path d="M 75.090333 379.521668 
L 165.610777 379.521668 
" clip-path="url(#p6aaef7d16f)" style="fill: none; stroke: #111111; stroke-width: 3.6; stroke-linecap: round"/>
   </g>
   <g id="line2d_13">
    <path d="M 75.090333 290.599087 
L 165.610777 290.599087 
" clip-path="url(#p6aaef7d16f)" style="fill: none; stroke: #111111; stroke-width: 3.6; stroke-linecap: round"/>
   </g>
   <g id="line2d_14">
    <path d="M 75.090333 204.710547 
L 165.610777 204.710547 
" clip-path="url(#p6aaef7d16f)" style="fill: none; stroke: #111111; stroke-width: 3.6; stroke-linecap: round"/>
   </g>
   <g id="line2d_15">
    <path d="M 324.964475 359.923488 
L 415.484919 359.923488 
" clip-path="url(#p6aaef7d16f)" style="fill: none; stroke: #111111; stroke-width: 3.6; stroke-linecap: round"/>
   </g>
   <g id="line2d_16">
    <path d="M 324.964475 234.400677 
L 415.484919 234.400677 
" clip-path="url(#p6aaef7d16f)" style="fill: none; stroke: #111111; stroke-width: 3.6; stroke-linecap: round"/>
   </g>
   <g id="line2d_17">
    <path d="M 324.964475 146.859773 
L 415.484919 146.859773 
" clip-path="url(#p6aaef7d16f)" style="fill: none; stroke: #111111; stroke-width: 3.6; stroke-linecap: round"/>
   </g>
   <g id="line2d_18">
    <path d="M 324.964475 74.66877 
L 415.484919 74.66877 
" clip-path="url(#p6aaef7d16f)" style="fill: none; stroke: #111111; stroke-width: 3.6; stroke-linecap: round"/>
   </g>
   <g id="line2d_19">
    <path d="M 574.838617 281.017215 
L 665.359061 281.017215 
" clip-path="url(#p6aaef7d16f)" style="fill: none; stroke: #111111; stroke-width: 3.6; stroke-linecap: round"/>
   </g>
   <g id="line2d_20">
    <path d="M 574.838617 162.115896 
L 665.359061 162.115896 
" clip-path="url(#p6aaef7d16f)" style="fill: none; stroke: #111111; stroke-width: 3.6; stroke-linecap: round"/>
   </g>
   <g id="text_1">
    <!-- $^{278}\mathrm{Cm}$ -->
    <g transform="translate(320.732 33.034687) scale(0.34 -0.34)">
     <defs>
      <path id="DejaVuSans-32" d="M 1228 531 
L 3431 531 
L 3431 0 
L 469 0 
L 469 531 
Q 828 903 1448 1529 
Q 2069 2156 2228 2338 
Q 2531 2678 2651 2914 
Q 2772 3150 2772 3378 
Q 2772 3750 2511 3984 
Q 2250 4219 1831 4219 
Q 1534 4219 1204 4116 
Q 875 4013 500 3803 
L 500 4441 
Q 881 4594 1212 4672 
Q 1544 4750 1819 4750 
Q 2544 4750 2975 4387 
Q 3406 4025 3406 3419 
Q 3406 3131 3298 2873 
Q 3191 2616 2906 2266 
Q 2828 2175 2409 1742 
Q 1991 1309 1228 531 
z
" transform="scale(0.015625)"/>
      <path id="DejaVuSans-37" d="M 525 4666 
L 3525 4666 
L 3525 4397 
L 1831 0 
L 1172 0 
L 2766 4134 
L 525 4134 
L 525 4666 
z
" transform="scale(0.015625)"/>
      <path id="DejaVuSans-38" d="M 2034 2216 
Q 1584 2216 1326 1975 
Q 1069 1734 1069 1313 
Q 1069 891 1326 650 
Q 1584 409 2034 409 
Q 2484 409 2743 651 
Q 3003 894 3003 1313 
Q 3003 1734 2745 1975 
Q 2488 2216 2034 2216 
z
M 1403 2484 
Q 997 2584 770 2862 
Q 544 3141 544 3541 
Q 544 4100 942 4425 
Q 1341 4750 2034 4750 
Q 2731 4750 3128 4425 
Q 3525 4100 3525 3541 
Q 3525 3141 3298 2862 
Q 3072 2584 2669 2484 
Q 3125 2378 3379 2068 
Q 3634 1759 3634 1313 
Q 3634 634 3220 271 
Q 2806 -91 2034 -91 
Q 1263 -91 848 271 
Q 434 634 434 1313 
Q 434 1759 690 2068 
Q 947 2378 1403 2484 
z
M 1172 3481 
Q 1172 3119 1398 2916 
Q 1625 2713 2034 2713 
Q 2441 2713 2670 2916 
Q 2900 3119 2900 3481 
Q 2900 3844 2670 4047 
Q 2441 4250 2034 4250 
Q 1625 4250 1398 4047 
Q 1172 3844 1172 3481 
z
" transform="scale(0.015625)"/>
      <path id="DejaVuSans-43" d="M 4122 4306 
L 4122 3641 
Q 3803 3938 3442 4084 
Q 3081 4231 2675 4231 
Q 1875 4231 1450 3742 
Q 1025 3253 1025 2328 
Q 1025 1406 1450 917 
Q 1875 428 2675 428 
Q 3081 428 3442 575 
Q 3803 722 4122 1019 
L 4122 359 
Q 3791 134 3420 21 
Q 3050 -91 2638 -91 
Q 1578 -91 968 557 
Q 359 1206 359 2328 
Q 359 3453 968 4101 
Q 1578 4750 2638 4750 
Q 3056 4750 3426 4639 
Q 3797 4528 4122 4306 
z
" transform="scale(0.015625)"/>
      <path id="DejaVuSans-6d" d="M 3328 2828 
Q 3544 3216 3844 3400 
Q 4144 3584 4550 3584 
Q 5097 3584 5394 3201 
Q 5691 2819 5691 2113 
L 5691 0 
L 5113 0 
L 5113 2094 
Q 5113 2597 4934 2840 
Q 4756 3084 4391 3084 
Q 3944 3084 3684 2787 
Q 3425 2491 3425 1978 
L 3425 0 
L 2847 0 
L 2847 2094 
Q 2847 2600 2669 2842 
Q 2491 3084 2119 3084 
Q 1678 3084 1418 2786 
Q 1159 2488 1159 1978 
L 1159 0 
L 581 0 
L 581 3500 
L 1159 3500 
L 1159 2956 
Q 1356 3278 1631 3431 
Q 1906 3584 2284 3584 
Q 2666 3584 2933 3390 
Q 3200 3197 3328 2828 
z
" transform="scale(0.015625)"/>
     </defs>
     <use xlink:href="#DejaVuSans-32" transform="translate(0.957031 39.046875) scale(0.7)"/>
     <use xlink:href="#DejaVuSans-37" transform="translate(45.493164 39.046875) scale(0.7)"/>
     <use xlink:href="#DejaVuSans-38" transform="translate(90.029297 39.046875) scale(0.7)"/>
     <use xlink:href="#DejaVuSans-43" transform="translate(137.299805 0.765625)"/>
     <use xlink:href="#DejaVuSans-6d" transform="translate(207.124023 0.765625)"/>
    </g>
   </g>
   <g id="text_2">
    <!-- 0 -->
    <g transform="translate(46.98525 483.412436) scale(0.16 -0.16)">
     <defs>
      <path id="DejaVuSans-BoldOblique-30" d="M 1913 728 
Q 2153 728 2339 872 
Q 2525 1016 2650 1294 
Q 2738 1491 2809 1742 
Q 2881 1994 2944 2338 
Q 2997 2616 3025 2850 
Q 3053 3084 3053 3250 
Q 3053 3600 2928 3764 
Q 2803 3928 2541 3928 
Q 2297 3928 2112 3789 
Q 1928 3650 1806 3366 
Q 1713 3163 1636 2903 
Q 1559 2644 1503 2338 
Q 1450 2056 1422 1815 
Q 1394 1575 1394 1409 
Q 1394 1063 1522 895 
Q 1650 728 1913 728 
z
M 4225 3072 
Q 4225 2450 4053 1862 
Q 3881 1275 3572 831 
Q 3256 375 2809 142 
Q 2363 -91 1813 -91 
Q 1047 -91 639 343 
Q 231 778 231 1594 
Q 231 2206 401 2795 
Q 572 3384 878 3822 
Q 1200 4281 1644 4515 
Q 2088 4750 2644 4750 
Q 3403 4750 3814 4314 
Q 4225 3878 4225 3072 
z
" transform="scale(0.015625)"/>
     </defs>
     <use xlink:href="#DejaVuSans-BoldOblique-30"/>
    </g>
   </g>
   <g id="text_3">
    <!-- 0⁺ -->
    <g transform="translate(182.58336 484.152671) scale(0.23 -0.23)">
     <defs>
      <path id="TimesNewRomanPS-BoldMT-30" d="M 2966 2119 
Q 2966 1484 2788 934 
Q 2681 597 2501 381 
Q 2322 166 2094 39 
Q 1866 -88 1597 -88 
Q 1291 -88 1044 68 
Q 797 225 606 516 
Q 469 728 366 1081 
Q 231 1559 231 2069 
Q 231 2759 425 3338 
Q 584 3816 909 4070 
Q 1234 4325 1597 4325 
Q 1966 4325 2286 4073 
Q 2606 3822 2756 3397 
Q 2966 2813 2966 2119 
z
M 2003 2125 
Q 2003 3238 1991 3422 
Q 1959 3856 1841 4009 
Q 1763 4109 1588 4109 
Q 1453 4109 1375 4034 
Q 1259 3925 1218 3648 
Q 1178 3372 1178 1719 
Q 1178 819 1241 513 
Q 1288 291 1375 216 
Q 1463 141 1606 141 
Q 1763 141 1841 241 
Q 1972 416 1991 781 
L 2003 2125 
z
" transform="scale(0.015625)"/>
      <path id="DejaVuSerif-Bold-207a" d="M 1916 4344 
L 1916 3441 
L 2950 3441 
L 2950 3044 
L 1916 3044 
L 1916 2141 
L 1463 2141 
L 1463 3044 
L 428 3044 
L 428 3441 
L 1463 3441 
L 1463 4344 
L 1916 4344 
z
" transform="scale(0.015625)"/>
     </defs>
     <use xlink:href="#TimesNewRomanPS-BoldMT-30"/>
     <use xlink:href="#DejaVuSerif-Bold-207a" transform="translate(50 0)"/>
    </g>
   </g>
   <g id="text_4">
    <!-- 1860 -->
    <g transform="translate(13.58775 383.936668) scale(0.16 -0.16)">
     <defs>
      <path id="DejaVuSans-BoldOblique-31" d="M 441 831 
L 1503 831 
L 2088 3847 
L 953 3622 
L 1113 4441 
L 2241 4666 
L 3384 4666 
L 2644 831 
L 3700 831 
L 3541 0 
L 275 0 
L 441 831 
z
" transform="scale(0.015625)"/>
      <path id="DejaVuSans-BoldOblique-38" d="M 2150 2088 
Q 1784 2088 1539 1839 
Q 1294 1591 1294 1228 
Q 1294 969 1453 817 
Q 1613 666 1888 666 
Q 2259 666 2503 911 
Q 2747 1156 2747 1522 
Q 2747 1781 2586 1934 
Q 2425 2088 2150 2088 
z
M 1381 2484 
Q 1044 2625 876 2850 
Q 709 3075 709 3391 
Q 709 4025 1229 4387 
Q 1750 4750 2669 4750 
Q 3406 4750 3812 4475 
Q 4219 4200 4219 3700 
Q 4219 3256 3936 2940 
Q 3653 2625 3128 2484 
Q 3509 2338 3690 2091 
Q 3872 1844 3872 1466 
Q 3872 747 3311 328 
Q 2750 -91 1772 -91 
Q 1000 -91 570 217 
Q 141 525 141 1075 
Q 141 1572 470 1945 
Q 800 2319 1381 2484 
z
M 2559 3994 
Q 2241 3994 2048 3808 
Q 1856 3622 1856 3316 
Q 1856 3103 1995 2972 
Q 2134 2841 2363 2841 
Q 2681 2841 2873 3027 
Q 3066 3213 3066 3519 
Q 3066 3734 2927 3864 
Q 2788 3994 2559 3994 
z
" transform="scale(0.015625)"/>
      <path id="DejaVuSans-BoldOblique-36" d="M 2316 2303 
Q 1959 2303 1731 2009 
Q 1503 1716 1503 1253 
Q 1503 975 1643 820 
Q 1784 666 2034 666 
Q 2388 666 2617 955 
Q 2847 1244 2847 1684 
Q 2847 1984 2709 2143 
Q 2572 2303 2316 2303 
z
M 4225 4544 
L 4056 3681 
Q 3788 3819 3534 3887 
Q 3281 3956 3028 3956 
Q 2447 3956 2087 3643 
Q 1728 3331 1650 2766 
Q 1894 2925 2151 3001 
Q 2409 3078 2700 3078 
Q 3275 3078 3640 2737 
Q 4006 2397 4006 1869 
Q 4006 1006 3442 454 
Q 2878 -97 1991 -97 
Q 1194 -97 756 354 
Q 319 806 319 1631 
Q 319 2269 512 2848 
Q 706 3428 1056 3847 
Q 1431 4294 1942 4519 
Q 2453 4744 3091 4744 
Q 3384 4744 3662 4694 
Q 3941 4644 4225 4544 
z
" transform="scale(0.015625)"/>
     </defs>
     <use xlink:href="#DejaVuSans-BoldOblique-31"/>
     <use xlink:href="#DejaVuSans-BoldOblique-38" transform="translate(69.580078 0)"/>
     <use xlink:href="#DejaVuSans-BoldOblique-36" transform="translate(139.160156 0)"/>
     <use xlink:href="#DejaVuSans-BoldOblique-30" transform="translate(208.740234 0)"/>
    </g>
   </g>
   <g id="text_5">
    <!-- 2⁺ -->
    <g transform="translate(182.58336 384.676902) scale(0.23 -0.23)">
     <defs>
      <path id="TimesNewRomanPS-BoldMT-32" d="M 2650 0 
L 156 0 
L 156 69 
Q 1303 1434 1548 1906 
Q 1794 2378 1794 2828 
Q 1794 3156 1591 3373 
Q 1388 3591 1094 3591 
Q 613 3591 347 3109 
L 231 3150 
Q 400 3750 744 4037 
Q 1088 4325 1538 4325 
Q 1859 4325 2125 4175 
Q 2391 4025 2541 3764 
Q 2691 3503 2691 3275 
Q 2691 2859 2459 2431 
Q 2144 1853 1081 819 
L 1997 819 
Q 2334 819 2436 847 
Q 2538 875 2603 942 
Q 2669 1009 2775 1225 
L 2888 1225 
L 2650 0 
z
" transform="scale(0.015625)"/>
     </defs>
     <use xlink:href="#TimesNewRomanPS-BoldMT-32"/>
     <use xlink:href="#DejaVuSerif-Bold-207a" transform="translate(50 0)"/>
    </g>
   </g>
   <g id="text_6">
    <!-- 3522 -->
    <g transform="translate(13.58775 295.014087) scale(0.16 -0.16)">
     <defs>
      <path id="DejaVuSans-BoldOblique-33" d="M 3022 2516 
Q 3375 2434 3572 2187 
Q 3769 1941 3769 1581 
Q 3769 806 3155 357 
Q 2541 -91 1466 -91 
Q 1059 -91 692 -33 
Q 325 25 0 141 
L 178 1069 
Q 456 906 784 817 
Q 1113 728 1441 728 
Q 1969 728 2276 926 
Q 2584 1125 2584 1459 
Q 2584 1738 2350 1877 
Q 2116 2016 1644 2016 
L 1166 2016 
L 1319 2791 
L 1825 2791 
Q 2316 2791 2602 2969 
Q 2888 3147 2888 3450 
Q 2888 3688 2689 3813 
Q 2491 3938 2113 3938 
Q 1847 3938 1534 3869 
Q 1222 3800 884 3669 
L 1056 4550 
Q 1425 4650 1783 4700 
Q 2141 4750 2491 4750 
Q 3281 4750 3679 4487 
Q 4078 4225 4078 3706 
Q 4078 3241 3801 2930 
Q 3525 2619 3022 2516 
z
" transform="scale(0.015625)"/>
      <path id="DejaVuSans-BoldOblique-35" d="M 1131 4666 
L 4122 4666 
L 3950 3781 
L 1919 3781 
L 1778 3059 
Q 1916 3097 2064 3117 
Q 2213 3138 2363 3138 
Q 3078 3138 3481 2811 
Q 3884 2484 3884 1906 
Q 3884 988 3262 448 
Q 2641 -91 1575 -91 
Q 1184 -91 815 -14 
Q 447 63 84 219 
L 269 1166 
Q 616 941 942 834 
Q 1269 728 1606 728 
Q 2100 728 2397 986 
Q 2694 1244 2694 1663 
Q 2694 1963 2469 2139 
Q 2244 2316 1856 2316 
Q 1594 2316 1289 2248 
Q 984 2181 622 2041 
L 1131 4666 
z
" transform="scale(0.015625)"/>
      <path id="DejaVuSans-BoldOblique-32" d="M 1581 884 
L 3609 884 
L 3438 0 
L 50 0 
L 225 891 
L 2209 2388 
Q 2534 2638 2704 2894 
Q 2875 3150 2875 3391 
Q 2875 3647 2700 3787 
Q 2525 3928 2209 3928 
Q 1913 3928 1547 3811 
Q 1181 3694 722 3450 
L 922 4441 
Q 1347 4597 1756 4673 
Q 2166 4750 2566 4750 
Q 3278 4750 3687 4442 
Q 4097 4134 4097 3603 
Q 4097 3147 3847 2772 
Q 3597 2397 2747 1759 
L 1581 884 
z
" transform="scale(0.015625)"/>
     </defs>
     <use xlink:href="#DejaVuSans-BoldOblique-33"/>
     <use xlink:href="#DejaVuSans-BoldOblique-35" transform="translate(69.580078 0)"/>
     <use xlink:href="#DejaVuSans-BoldOblique-32" transform="translate(139.160156 0)"/>
     <use xlink:href="#DejaVuSans-BoldOblique-32" transform="translate(208.740234 0)"/>
    </g>
   </g>
   <g id="text_7">
    <!-- 4⁺ -->
    <g transform="translate(182.58336 295.754321) scale(0.23 -0.23)">
     <defs>
      <path id="TimesNewRomanPS-BoldMT-34" d="M 159 1597 
L 2172 4325 
L 2553 4325 
L 2553 1597 
L 2941 1597 
L 2941 950 
L 2553 950 
L 2553 0 
L 1694 0 
L 1694 950 
L 159 950 
L 159 1597 
z
M 463 1597 
L 1694 1597 
L 1694 3269 
L 463 1597 
z
" transform="scale(0.015625)"/>
     </defs>
     <use xlink:href="#TimesNewRomanPS-BoldMT-34"/>
     <use xlink:href="#DejaVuSerif-Bold-207a" transform="translate(50 0)"/>
    </g>
   </g>
   <g id="text_8">
    <!-- 5127 -->
    <g transform="translate(13.58775 209.125547) scale(0.16 -0.16)">
     <defs>
      <path id="DejaVuSans-BoldOblique-37" d="M 922 4666 
L 4441 4666 
L 4300 3981 
L 1703 0 
L 500 0 
L 2969 3781 
L 756 3781 
L 922 4666 
z
" transform="scale(0.015625)"/>
     </defs>
     <use xlink:href="#DejaVuSans-BoldOblique-35"/>
     <use xlink:href="#DejaVuSans-BoldOblique-31" transform="translate(69.580078 0)"/>
     <use xlink:href="#DejaVuSans-BoldOblique-32" transform="translate(139.160156 0)"/>
     <use xlink:href="#DejaVuSans-BoldOblique-37" transform="translate(208.740234 0)"/>
    </g>
   </g>
   <g id="text_9">
    <!-- 6⁺ -->
    <g transform="translate(182.58336 209.865781) scale(0.23 -0.23)">
     <defs>
      <path id="TimesNewRomanPS-BoldMT-36" d="M 3006 4325 
L 3006 4238 
Q 2441 4094 2098 3867 
Q 1756 3641 1557 3317 
Q 1359 2994 1250 2516 
Q 1388 2609 1478 2638 
Q 1681 2700 1888 2700 
Q 2363 2700 2680 2354 
Q 2997 2009 2997 1413 
Q 2997 994 2825 644 
Q 2653 294 2337 103 
Q 2022 -88 1663 -88 
Q 1272 -88 940 126 
Q 609 341 423 753 
Q 238 1166 238 1650 
Q 238 2363 580 2977 
Q 922 3591 1551 3955 
Q 2181 4319 3006 4325 
z
M 1209 2263 
Q 1184 1831 1184 1631 
Q 1184 1200 1267 797 
Q 1350 394 1494 231 
Q 1597 116 1738 116 
Q 1881 116 1993 283 
Q 2106 450 2106 963 
Q 2106 1825 1897 2153 
Q 1763 2366 1534 2366 
Q 1409 2366 1209 2263 
z
" transform="scale(0.015625)"/>
     </defs>
     <use xlink:href="#TimesNewRomanPS-BoldMT-36"/>
     <use xlink:href="#DejaVuSerif-Bold-207a" transform="translate(50 0)"/>
    </g>
   </g>
   <g id="text_10">
    <!-- 2226 -->
    <g transform="translate(263.461892 364.338488) scale(0.16 -0.16)">
     <use xlink:href="#DejaVuSans-BoldOblique-32"/>
     <use xlink:href="#DejaVuSans-BoldOblique-32" transform="translate(69.580078 0)"/>
     <use xlink:href="#DejaVuSans-BoldOblique-32" transform="translate(139.160156 0)"/>
     <use xlink:href="#DejaVuSans-BoldOblique-36" transform="translate(208.740234 0)"/>
    </g>
   </g>
   <g id="text_11">
    <!-- 0⁺ -->
    <g transform="translate(432.457502 365.078723) scale(0.23 -0.23)">
     <use xlink:href="#TimesNewRomanPS-BoldMT-30"/>
     <use xlink:href="#DejaVuSerif-Bold-207a" transform="translate(50 0)"/>
    </g>
   </g>
   <g id="text_12">
    <!-- 4572 -->
    <g transform="translate(263.461892 238.815677) scale(0.16 -0.16)">
     <defs>
      <path id="DejaVuSans-BoldOblique-34" d="M 2638 3641 
L 978 1722 
L 2259 1722 
L 2638 3641 
z
M 2606 4666 
L 3975 4666 
L 3397 1722 
L 4063 1722 
L 3897 850 
L 3231 850 
L 3066 0 
L 1925 0 
L 2094 850 
L -6 850 
L 197 1881 
L 2606 4666 
z
" transform="scale(0.015625)"/>
     </defs>
     <use xlink:href="#DejaVuSans-BoldOblique-34"/>
     <use xlink:href="#DejaVuSans-BoldOblique-35" transform="translate(69.580078 0)"/>
     <use xlink:href="#DejaVuSans-BoldOblique-37" transform="translate(139.160156 0)"/>
     <use xlink:href="#DejaVuSans-BoldOblique-32" transform="translate(208.740234 0)"/>
    </g>
   </g>
   <g id="text_13">
    <!-- 2⁺ -->
    <g transform="translate(432.457502 239.555911) scale(0.23 -0.23)">
     <use xlink:href="#TimesNewRomanPS-BoldMT-32"/>
     <use xlink:href="#DejaVuSerif-Bold-207a" transform="translate(50 0)"/>
    </g>
   </g>
   <g id="text_14">
    <!-- 6209 -->
    <g transform="translate(263.461892 151.274773) scale(0.16 -0.16)">
     <defs>
      <path id="DejaVuSans-BoldOblique-39" d="M 263 103 
L 428 966 
Q 700 825 953 758 
Q 1206 691 1459 691 
Q 2041 691 2400 1003 
Q 2759 1316 2834 1881 
Q 2594 1722 2337 1645 
Q 2081 1569 1791 1569 
Q 1219 1569 853 1909 
Q 488 2250 488 2778 
Q 488 3641 1052 4192 
Q 1616 4744 2503 4744 
Q 3300 4744 3736 4292 
Q 4172 3841 4172 3016 
Q 4172 2381 3978 1801 
Q 3784 1222 3431 800 
Q 3056 353 2548 128 
Q 2041 -97 1403 -97 
Q 1106 -97 825 -47 
Q 544 3 263 103 
z
M 2169 2344 
Q 2525 2344 2753 2637 
Q 2981 2931 2981 3391 
Q 2981 3675 2845 3828 
Q 2709 3981 2456 3981 
Q 2103 3981 1870 3690 
Q 1638 3400 1638 2963 
Q 1638 2663 1775 2503 
Q 1913 2344 2169 2344 
z
" transform="scale(0.015625)"/>
     </defs>
     <use xlink:href="#DejaVuSans-BoldOblique-36"/>
     <use xlink:href="#DejaVuSans-BoldOblique-32" transform="translate(69.580078 0)"/>
     <use xlink:href="#DejaVuSans-BoldOblique-30" transform="translate(139.160156 0)"/>
     <use xlink:href="#DejaVuSans-BoldOblique-39" transform="translate(208.740234 0)"/>
    </g>
   </g>
   <g id="text_15">
    <!-- 4⁺ -->
    <g transform="translate(432.457502 152.015007) scale(0.23 -0.23)">
     <use xlink:href="#TimesNewRomanPS-BoldMT-34"/>
     <use xlink:href="#DejaVuSerif-Bold-207a" transform="translate(50 0)"/>
    </g>
   </g>
   <g id="text_16">
    <!-- 7558 -->
    <g transform="translate(263.461892 79.08377) scale(0.16 -0.16)">
     <use xlink:href="#DejaVuSans-BoldOblique-37"/>
     <use xlink:href="#DejaVuSans-BoldOblique-35" transform="translate(69.580078 0)"/>
     <use xlink:href="#DejaVuSans-BoldOblique-35" transform="translate(139.160156 0)"/>
     <use xlink:href="#DejaVuSans-BoldOblique-38" transform="translate(208.740234 0)"/>
    </g>
   </g>
   <g id="text_17">
    <!-- 6⁺ -->
    <g transform="translate(432.457502 79.824004) scale(0.23 -0.23)">
     <use xlink:href="#TimesNewRomanPS-BoldMT-36"/>
     <use xlink:href="#DejaVuSerif-Bold-207a" transform="translate(50 0)"/>
    </g>
   </g>
   <g id="text_18">
    <!-- 3701 -->
    <g transform="translate(513.336034 285.432215) scale(0.16 -0.16)">
     <use xlink:href="#DejaVuSans-BoldOblique-33"/>
     <use xlink:href="#DejaVuSans-BoldOblique-37" transform="translate(69.580078 0)"/>
     <use xlink:href="#DejaVuSans-BoldOblique-30" transform="translate(139.160156 0)"/>
     <use xlink:href="#DejaVuSans-BoldOblique-31" transform="translate(208.740234 0)"/>
    </g>
   </g>
   <g id="text_19">
    <!-- 2⁺ -->
    <g transform="translate(682.331644 286.172449) scale(0.23 -0.23)">
     <use xlink:href="#TimesNewRomanPS-BoldMT-32"/>
     <use xlink:href="#DejaVuSerif-Bold-207a" transform="translate(50 0)"/>
    </g>
   </g>
   <g id="text_20">
    <!-- 5924 -->
    <g transform="translate(513.336034 166.530896) scale(0.16 -0.16)">
     <use xlink:href="#DejaVuSans-BoldOblique-35"/>
     <use xlink:href="#DejaVuSans-BoldOblique-39" transform="translate(69.580078 0)"/>
     <use xlink:href="#DejaVuSans-BoldOblique-32" transform="translate(139.160156 0)"/>
     <use xlink:href="#DejaVuSans-BoldOblique-34" transform="translate(208.740234 0)"/>
    </g>
   </g>
   <g id="text_21">
    <!-- 3⁺ -->
    <g transform="translate(682.331644 167.271131) scale(0.23 -0.23)">
     <defs>
      <path id="TimesNewRomanPS-BoldMT-33" d="M 947 2125 
L 947 2234 
Q 1303 2338 1440 2427 
Q 1578 2516 1678 2698 
Q 1778 2881 1778 3069 
Q 1778 3328 1589 3514 
Q 1400 3700 1119 3700 
Q 681 3700 375 3238 
L 259 3278 
Q 484 3800 836 4062 
Q 1188 4325 1619 4325 
Q 2059 4325 2345 4056 
Q 2631 3788 2631 3428 
Q 2631 3194 2498 2976 
Q 2366 2759 2081 2594 
Q 2447 2416 2639 2155 
Q 2831 1894 2831 1500 
Q 2831 838 2351 373 
Q 1872 -91 1066 -91 
Q 528 -91 281 88 
Q 103 213 103 409 
Q 103 553 206 654 
Q 309 756 444 756 
Q 547 756 638 713 
Q 688 688 992 439 
Q 1297 191 1563 191 
Q 1794 191 1959 373 
Q 2125 556 2125 838 
Q 2125 1266 1825 1627 
Q 1525 1988 947 2125 
z
" transform="scale(0.015625)"/>
     </defs>
     <use xlink:href="#TimesNewRomanPS-BoldMT-33"/>
     <use xlink:href="#DejaVuSerif-Bold-207a" transform="translate(50 0)"/>
    </g>
   </g>
   <g id="text_22">
    <path d="M 112.000555 422.033302 
L 112.000555 430.698302 
Q 112.000555 431.673302 112.085555 431.943302 
Q 112.173055 432.213302 112.445555 432.385802 
Q 112.720555 432.555802 113.323055 432.555802 
L 113.563055 432.555802 
L 113.563055 432.845802 
L 107.985555 432.845802 
L 107.985555 432.555802 
L 108.268055 432.555802 
Q 108.948055 432.555802 109.235555 432.400802 
Q 109.525555 432.243302 109.625555 431.970802 
Q 109.728055 431.698302 109.728055 430.698302 
L 109.728055 425.205802 
Q 109.728055 424.470802 109.658055 424.288302 
Q 109.588055 424.103302 109.395555 423.975802 
Q 109.205555 423.845802 108.955555 423.845802 
Q 108.555555 423.845802 107.985555 424.095802 
L 107.845555 423.813302 
L 111.743055 422.033302 
L 112.000555 422.033302 
z
M 119.120555 422.033302 
L 119.120555 430.698302 
Q 119.120555 431.673302 119.205555 431.943302 
Q 119.293055 432.213302 119.565555 432.385802 
Q 119.840555 432.555802 120.443055 432.555802 
L 120.683055 432.555802 
L 120.683055 432.845802 
L 115.105555 432.845802 
L 115.105555 432.555802 
L 115.388055 432.555802 
Q 116.068055 432.555802 116.355555 432.400802 
Q 116.645555 432.243302 116.745555 431.970802 
Q 116.848055 431.698302 116.848055 430.698302 
L 116.848055 425.205802 
Q 116.848055 424.470802 116.778055 424.288302 
Q 116.708055 424.103302 116.515555 423.975802 
Q 116.325555 423.845802 116.075555 423.845802 
Q 115.675555 423.845802 115.105555 424.095802 
L 114.965555 423.813302 
L 118.863055 422.033302 
L 119.120555 422.033302 
z
M 123.910555 430.438302 
Q 124.458055 430.438302 124.835555 430.823302 
Q 125.215555 431.205802 125.215555 431.743302 
Q 125.215555 432.283302 124.833055 432.663302 
Q 124.450555 433.040802 123.910555 433.040802 
Q 123.370555 433.040802 122.990555 432.663302 
Q 122.613055 432.283302 122.613055 431.743302 
Q 122.613055 431.205802 122.990555 430.823302 
Q 123.370555 430.438302 123.910555 430.438302 
z
M 126.308055 428.853302 
L 131.340555 422.033302 
L 132.293055 422.033302 
L 132.293055 428.853302 
L 133.263055 428.853302 
L 133.263055 430.470802 
L 132.293055 430.470802 
L 132.293055 432.845802 
L 130.145555 432.845802 
L 130.145555 430.470802 
L 126.308055 430.470802 
L 126.308055 428.853302 
z
M 127.068055 428.853302 
L 130.145555 428.853302 
L 130.145555 424.673302 
L 127.068055 428.853302 
z
" style="stroke: #ffffff; stroke-width: 3.8"/>
    <path d="M 112.000555 422.033302 
L 112.000555 430.698302 
Q 112.000555 431.673302 112.085555 431.943302 
Q 112.173055 432.213302 112.445555 432.385802 
Q 112.720555 432.555802 113.323055 432.555802 
L 113.563055 432.555802 
L 113.563055 432.845802 
L 107.985555 432.845802 
L 107.985555 432.555802 
L 108.268055 432.555802 
Q 108.948055 432.555802 109.235555 432.400802 
Q 109.525555 432.243302 109.625555 431.970802 
Q 109.728055 431.698302 109.728055 430.698302 
L 109.728055 425.205802 
Q 109.728055 424.470802 109.658055 424.288302 
Q 109.588055 424.103302 109.395555 423.975802 
Q 109.205555 423.845802 108.955555 423.845802 
Q 108.555555 423.845802 107.985555 424.095802 
L 107.845555 423.813302 
L 111.743055 422.033302 
L 112.000555 422.033302 
z
M 119.120555 422.033302 
L 119.120555 430.698302 
Q 119.120555 431.673302 119.205555 431.943302 
Q 119.293055 432.213302 119.565555 432.385802 
Q 119.840555 432.555802 120.443055 432.555802 
L 120.683055 432.555802 
L 120.683055 432.845802 
L 115.105555 432.845802 
L 115.105555 432.555802 
L 115.388055 432.555802 
Q 116.068055 432.555802 116.355555 432.400802 
Q 116.645555 432.243302 116.745555 431.970802 
Q 116.848055 431.698302 116.848055 430.698302 
L 116.848055 425.205802 
Q 116.848055 424.470802 116.778055 424.288302 
Q 116.708055 424.103302 116.515555 423.975802 
Q 116.325555 423.845802 116.075555 423.845802 
Q 115.675555 423.845802 115.105555 424.095802 
L 114.965555 423.813302 
L 118.863055 422.033302 
L 119.120555 422.033302 
z
M 123.910555 430.438302 
Q 124.458055 430.438302 124.835555 430.823302 
Q 125.215555 431.205802 125.215555 431.743302 
Q 125.215555 432.283302 124.833055 432.663302 
Q 124.450555 433.040802 123.910555 433.040802 
Q 123.370555 433.040802 122.990555 432.663302 
Q 122.613055 432.283302 122.613055 431.743302 
Q 122.613055 431.205802 122.990555 430.823302 
Q 123.370555 430.438302 123.910555 430.438302 
z
M 126.308055 428.853302 
L 131.340555 422.033302 
L 132.293055 422.033302 
L 132.293055 428.853302 
L 133.263055 428.853302 
L 133.263055 430.470802 
L 132.293055 430.470802 
L 132.293055 432.845802 
L 130.145555 432.845802 
L 130.145555 430.470802 
L 126.308055 430.470802 
L 126.308055 428.853302 
z
M 127.068055 428.853302 
L 130.145555 428.853302 
L 130.145555 424.673302 
L 127.068055 428.853302 
z
"/>
   </g>
   <g id="text_23">
    <path d="M 112.975555 338.646627 
L 106.740555 338.646627 
L 106.740555 338.474127 
Q 109.608055 335.061627 110.220555 333.881627 
Q 110.835555 332.701627 110.835555 331.576627 
Q 110.835555 330.756627 110.328055 330.214127 
Q 109.820555 329.669127 109.085555 329.669127 
Q 107.883055 329.669127 107.218055 330.874127 
L 106.928055 330.771627 
Q 107.350555 329.271627 108.210555 328.554127 
Q 109.070555 327.834127 110.195555 327.834127 
Q 110.998055 327.834127 111.663055 328.209127 
Q 112.328055 328.584127 112.703055 329.236627 
Q 113.078055 329.889127 113.078055 330.459127 
Q 113.078055 331.499127 112.498055 332.569127 
Q 111.710555 334.014127 109.053055 336.599127 
L 111.343055 336.599127 
Q 112.185555 336.599127 112.440555 336.529127 
Q 112.695555 336.459127 112.858055 336.291627 
Q 113.023055 336.124127 113.288055 335.584127 
L 113.570555 335.584127 
L 112.975555 338.646627 
z
M 117.185555 338.866627 
L 120.070555 330.124127 
L 117.873055 330.124127 
Q 116.585555 330.124127 115.935555 330.459127 
Q 115.483055 330.694127 115.185555 331.341627 
L 114.890555 331.341627 
L 115.655555 328.051627 
L 121.968055 328.051627 
L 118.413055 338.866627 
L 117.185555 338.866627 
z
M 124.350555 336.239127 
Q 124.898055 336.239127 125.275555 336.624127 
Q 125.655555 337.006627 125.655555 337.544127 
Q 125.655555 338.084127 125.273055 338.464127 
Q 124.890555 338.841627 124.350555 338.841627 
Q 123.810555 338.841627 123.430555 338.464127 
Q 123.053055 338.084127 123.053055 337.544127 
Q 123.053055 337.006627 123.430555 336.624127 
Q 123.810555 336.239127 124.350555 336.239127 
z
M 133.765555 333.349127 
Q 133.765555 334.936627 133.320555 336.311627 
Q 133.053055 337.154127 132.603055 337.694127 
Q 132.155555 338.231627 131.585555 338.549127 
Q 131.015555 338.866627 130.343055 338.866627 
Q 129.578055 338.866627 128.960555 338.476627 
Q 128.343055 338.084127 127.865555 337.356627 
Q 127.523055 336.826627 127.265555 335.944127 
Q 126.928055 334.749127 126.928055 333.474127 
Q 126.928055 331.749127 127.413055 330.301627 
Q 127.810555 329.106627 128.623055 328.471627 
Q 129.435555 327.834127 130.343055 327.834127 
Q 131.265555 327.834127 132.065555 328.464127 
Q 132.865555 329.091627 133.240555 330.154127 
Q 133.765555 331.614127 133.765555 333.349127 
z
M 131.358055 333.334127 
Q 131.358055 330.551627 131.328055 330.091627 
Q 131.248055 329.006627 130.953055 328.624127 
Q 130.758055 328.374127 130.320555 328.374127 
Q 129.983055 328.374127 129.788055 328.561627 
Q 129.498055 328.834127 129.395555 329.526627 
Q 129.295555 330.216627 129.295555 334.349127 
Q 129.295555 336.599127 129.453055 337.364127 
Q 129.570555 337.919127 129.788055 338.106627 
Q 130.008055 338.294127 130.365555 338.294127 
Q 130.758055 338.294127 130.953055 338.044127 
Q 131.280555 337.606627 131.328055 336.694127 
L 131.358055 333.334127 
z
" style="stroke: #ffffff; stroke-width: 3.8"/>
    <path d="M 112.975555 338.646627 
L 106.740555 338.646627 
L 106.740555 338.474127 
Q 109.608055 335.061627 110.220555 333.881627 
Q 110.835555 332.701627 110.835555 331.576627 
Q 110.835555 330.756627 110.328055 330.214127 
Q 109.820555 329.669127 109.085555 329.669127 
Q 107.883055 329.669127 107.218055 330.874127 
L 106.928055 330.771627 
Q 107.350555 329.271627 108.210555 328.554127 
Q 109.070555 327.834127 110.195555 327.834127 
Q 110.998055 327.834127 111.663055 328.209127 
Q 112.328055 328.584127 112.703055 329.236627 
Q 113.078055 329.889127 113.078055 330.459127 
Q 113.078055 331.499127 112.498055 332.569127 
Q 111.710555 334.014127 109.053055 336.599127 
L 111.343055 336.599127 
Q 112.185555 336.599127 112.440555 336.529127 
Q 112.695555 336.459127 112.858055 336.291627 
Q 113.023055 336.124127 113.288055 335.584127 
L 113.570555 335.584127 
L 112.975555 338.646627 
z
M 117.185555 338.866627 
L 120.070555 330.124127 
L 117.873055 330.124127 
Q 116.585555 330.124127 115.935555 330.459127 
Q 115.483055 330.694127 115.185555 331.341627 
L 114.890555 331.341627 
L 115.655555 328.051627 
L 121.968055 328.051627 
L 118.413055 338.866627 
L 117.185555 338.866627 
z
M 124.350555 336.239127 
Q 124.898055 336.239127 125.275555 336.624127 
Q 125.655555 337.006627 125.655555 337.544127 
Q 125.655555 338.084127 125.273055 338.464127 
Q 124.890555 338.841627 124.350555 338.841627 
Q 123.810555 338.841627 123.430555 338.464127 
Q 123.053055 338.084127 123.053055 337.544127 
Q 123.053055 337.006627 123.430555 336.624127 
Q 123.810555 336.239127 124.350555 336.239127 
z
M 133.765555 333.349127 
Q 133.765555 334.936627 133.320555 336.311627 
Q 133.053055 337.154127 132.603055 337.694127 
Q 132.155555 338.231627 131.585555 338.549127 
Q 131.015555 338.866627 130.343055 338.866627 
Q 129.578055 338.866627 128.960555 338.476627 
Q 128.343055 338.084127 127.865555 337.356627 
Q 127.523055 336.826627 127.265555 335.944127 
Q 126.928055 334.749127 126.928055 333.474127 
Q 126.928055 331.749127 127.413055 330.301627 
Q 127.810555 329.106627 128.623055 328.471627 
Q 129.435555 327.834127 130.343055 327.834127 
Q 131.265555 327.834127 132.065555 328.464127 
Q 132.865555 329.091627 133.240555 330.154127 
Q 133.765555 331.614127 133.765555 333.349127 
z
M 131.358055 333.334127 
Q 131.358055 330.551627 131.328055 330.091627 
Q 131.248055 329.006627 130.953055 328.624127 
Q 130.758055 328.374127 130.320555 328.374127 
Q 129.983055 328.374127 129.788055 328.561627 
Q 129.498055 328.834127 129.395555 329.526627 
Q 129.295555 330.216627 129.295555 334.349127 
Q 129.295555 336.599127 129.453055 337.364127 
Q 129.570555 337.919127 129.788055 338.106627 
Q 130.008055 338.294127 130.365555 338.294127 
Q 130.758055 338.294127 130.953055 338.044127 
Q 131.280555 337.606627 131.328055 336.694127 
L 131.358055 333.334127 
z
"/>
   </g>
   <g id="text_24">
    <path d="M 106.748055 247.248567 
L 111.780555 240.428567 
L 112.733055 240.428567 
L 112.733055 247.248567 
L 113.703055 247.248567 
L 113.703055 248.866067 
L 112.733055 248.866067 
L 112.733055 251.241067 
L 110.585555 251.241067 
L 110.585555 248.866067 
L 106.748055 248.866067 
L 106.748055 247.248567 
z
M 107.508055 247.248567 
L 110.585555 247.248567 
L 110.585555 243.068567 
L 107.508055 247.248567 
z
M 114.748055 247.248567 
L 119.780555 240.428567 
L 120.733055 240.428567 
L 120.733055 247.248567 
L 121.703055 247.248567 
L 121.703055 248.866067 
L 120.733055 248.866067 
L 120.733055 251.241067 
L 118.585555 251.241067 
L 118.585555 248.866067 
L 114.748055 248.866067 
L 114.748055 247.248567 
z
M 115.508055 247.248567 
L 118.585555 247.248567 
L 118.585555 243.068567 
L 115.508055 247.248567 
z
M 124.350555 248.833567 
Q 124.898055 248.833567 125.275555 249.218567 
Q 125.655555 249.601067 125.655555 250.138567 
Q 125.655555 250.678567 125.273055 251.058567 
Q 124.890555 251.436067 124.350555 251.436067 
Q 123.810555 251.436067 123.430555 251.058567 
Q 123.053055 250.678567 123.053055 250.138567 
Q 123.053055 249.601067 123.430555 249.218567 
Q 123.810555 248.833567 124.350555 248.833567 
z
M 126.748055 247.248567 
L 131.780555 240.428567 
L 132.733055 240.428567 
L 132.733055 247.248567 
L 133.703055 247.248567 
L 133.703055 248.866067 
L 132.733055 248.866067 
L 132.733055 251.241067 
L 130.585555 251.241067 
L 130.585555 248.866067 
L 126.748055 248.866067 
L 126.748055 247.248567 
z
M 127.508055 247.248567 
L 130.585555 247.248567 
L 130.585555 243.068567 
L 127.508055 247.248567 
z
" style="stroke: #ffffff; stroke-width: 3.8"/>
    <path d="M 106.748055 247.248567 
L 111.780555 240.428567 
L 112.733055 240.428567 
L 112.733055 247.248567 
L 113.703055 247.248567 
L 113.703055 248.866067 
L 112.733055 248.866067 
L 112.733055 251.241067 
L 110.585555 251.241067 
L 110.585555 248.866067 
L 106.748055 248.866067 
L 106.748055 247.248567 
z
M 107.508055 247.248567 
L 110.585555 247.248567 
L 110.585555 243.068567 
L 107.508055 247.248567 
z
M 114.748055 247.248567 
L 119.780555 240.428567 
L 120.733055 240.428567 
L 120.733055 247.248567 
L 121.703055 247.248567 
L 121.703055 248.866067 
L 120.733055 248.866067 
L 120.733055 251.241067 
L 118.585555 251.241067 
L 118.585555 248.866067 
L 114.748055 248.866067 
L 114.748055 247.248567 
z
M 115.508055 247.248567 
L 118.585555 247.248567 
L 118.585555 243.068567 
L 115.508055 247.248567 
z
M 124.350555 248.833567 
Q 124.898055 248.833567 125.275555 249.218567 
Q 125.655555 249.601067 125.655555 250.138567 
Q 125.655555 250.678567 125.273055 251.058567 
Q 124.890555 251.436067 124.350555 251.436067 
Q 123.810555 251.436067 123.430555 251.058567 
Q 123.053055 250.678567 123.053055 250.138567 
Q 123.053055 249.601067 123.430555 249.218567 
Q 123.810555 248.833567 124.350555 248.833567 
z
M 126.748055 247.248567 
L 131.780555 240.428567 
L 132.733055 240.428567 
L 132.733055 247.248567 
L 133.703055 247.248567 
L 133.703055 248.866067 
L 132.733055 248.866067 
L 132.733055 251.241067 
L 130.585555 251.241067 
L 130.585555 248.866067 
L 126.748055 248.866067 
L 126.748055 247.248567 
z
M 127.508055 247.248567 
L 130.585555 247.248567 
L 130.585555 243.068567 
L 127.508055 247.248567 
z
"/>
   </g>
   <g id="text_25">
    <path d="M 360.717197 300.968333 
L 360.717197 300.748333 
Q 362.014697 300.450833 362.917197 299.873333 
Q 363.819697 299.295833 364.344697 298.443333 
Q 364.872197 297.590833 365.084697 296.483333 
Q 364.599697 296.733333 364.259697 296.830833 
Q 363.919697 296.928333 363.544697 296.928333 
Q 362.342197 296.928333 361.539697 296.060833 
Q 360.739697 295.193333 360.739697 293.685833 
Q 360.739697 292.638333 361.172197 291.768333 
Q 361.607197 290.895833 362.412197 290.415833 
Q 363.217197 289.935833 364.084697 289.935833 
Q 365.014697 289.935833 365.842197 290.468333 
Q 366.669697 290.998333 367.162197 292.005833 
Q 367.654697 293.013333 367.654697 294.303333 
Q 367.654697 295.975833 366.852197 297.508333 
Q 366.052197 299.038333 364.467197 299.963333 
Q 362.882197 300.888333 360.717197 300.968333 
z
M 365.202197 295.825833 
Q 365.279697 294.950833 365.279697 294.288333 
Q 365.279697 292.865833 364.952197 291.638333 
Q 364.764697 290.958333 364.397197 290.638333 
Q 364.202197 290.465833 363.889697 290.465833 
Q 363.497197 290.465833 363.279697 290.803333 
Q 362.974697 291.263333 362.974697 292.560833 
Q 362.974697 294.725833 363.489697 295.545833 
Q 363.827197 296.075833 364.397197 296.075833 
Q 364.702197 296.075833 365.202197 295.825833 
z
M 370.224697 298.340833 
Q 370.772197 298.340833 371.149697 298.725833 
Q 371.529697 299.108333 371.529697 299.645833 
Q 371.529697 300.185833 371.147197 300.565833 
Q 370.764697 300.943333 370.224697 300.943333 
Q 369.684697 300.943333 369.304697 300.565833 
Q 368.927197 300.185833 368.927197 299.645833 
Q 368.927197 299.108333 369.304697 298.725833 
Q 369.684697 298.340833 370.224697 298.340833 
z
M 374.592197 295.435833 
L 374.592197 295.163333 
Q 375.482197 294.903333 375.824697 294.680833 
Q 376.169697 294.458333 376.419697 294.003333 
Q 376.669697 293.545833 376.669697 293.075833 
Q 376.669697 292.428333 376.197197 291.963333 
Q 375.724697 291.498333 375.022197 291.498333 
Q 373.927197 291.498333 373.162197 292.653333 
L 372.872197 292.553333 
Q 373.434697 291.248333 374.314697 290.593333 
Q 375.194697 289.935833 376.272197 289.935833 
Q 377.372197 289.935833 378.087197 290.608333 
Q 378.802197 291.278333 378.802197 292.178333 
Q 378.802197 292.763333 378.469697 293.308333 
Q 378.139697 293.850833 377.427197 294.263333 
Q 378.342197 294.708333 378.822197 295.360833 
Q 379.302197 296.013333 379.302197 296.998333 
Q 379.302197 298.653333 378.102197 299.815833 
Q 376.904697 300.975833 374.889697 300.975833 
Q 373.544697 300.975833 372.927197 300.528333 
Q 372.482197 300.215833 372.482197 299.725833 
Q 372.482197 299.365833 372.739697 299.113333 
Q 372.997197 298.858333 373.334697 298.858333 
Q 373.592197 298.858333 373.819697 298.965833 
Q 373.944697 299.028333 374.704697 299.650833 
Q 375.467197 300.270833 376.132197 300.270833 
Q 376.709697 300.270833 377.122197 299.815833 
Q 377.537197 299.358333 377.537197 298.653333 
Q 377.537197 297.583333 376.787197 296.680833 
Q 376.037197 295.778333 374.592197 295.435833 
z
" style="stroke: #ffffff; stroke-width: 3.8"/>
    <path d="M 360.717197 300.968333 
L 360.717197 300.748333 
Q 362.014697 300.450833 362.917197 299.873333 
Q 363.819697 299.295833 364.344697 298.443333 
Q 364.872197 297.590833 365.084697 296.483333 
Q 364.599697 296.733333 364.259697 296.830833 
Q 363.919697 296.928333 363.544697 296.928333 
Q 362.342197 296.928333 361.539697 296.060833 
Q 360.739697 295.193333 360.739697 293.685833 
Q 360.739697 292.638333 361.172197 291.768333 
Q 361.607197 290.895833 362.412197 290.415833 
Q 363.217197 289.935833 364.084697 289.935833 
Q 365.014697 289.935833 365.842197 290.468333 
Q 366.669697 290.998333 367.162197 292.005833 
Q 367.654697 293.013333 367.654697 294.303333 
Q 367.654697 295.975833 366.852197 297.508333 
Q 366.052197 299.038333 364.467197 299.963333 
Q 362.882197 300.888333 360.717197 300.968333 
z
M 365.202197 295.825833 
Q 365.279697 294.950833 365.279697 294.288333 
Q 365.279697 292.865833 364.952197 291.638333 
Q 364.764697 290.958333 364.397197 290.638333 
Q 364.202197 290.465833 363.889697 290.465833 
Q 363.497197 290.465833 363.279697 290.803333 
Q 362.974697 291.263333 362.974697 292.560833 
Q 362.974697 294.725833 363.489697 295.545833 
Q 363.827197 296.075833 364.397197 296.075833 
Q 364.702197 296.075833 365.202197 295.825833 
z
M 370.224697 298.340833 
Q 370.772197 298.340833 371.149697 298.725833 
Q 371.529697 299.108333 371.529697 299.645833 
Q 371.529697 300.185833 371.147197 300.565833 
Q 370.764697 300.943333 370.224697 300.943333 
Q 369.684697 300.943333 369.304697 300.565833 
Q 368.927197 300.185833 368.927197 299.645833 
Q 368.927197 299.108333 369.304697 298.725833 
Q 369.684697 298.340833 370.224697 298.340833 
z
M 374.592197 295.435833 
L 374.592197 295.163333 
Q 375.482197 294.903333 375.824697 294.680833 
Q 376.169697 294.458333 376.419697 294.003333 
Q 376.669697 293.545833 376.669697 293.075833 
Q 376.669697 292.428333 376.197197 291.963333 
Q 375.724697 291.498333 375.022197 291.498333 
Q 373.927197 291.498333 373.162197 292.653333 
L 372.872197 292.553333 
Q 373.434697 291.248333 374.314697 290.593333 
Q 375.194697 289.935833 376.272197 289.935833 
Q 377.372197 289.935833 378.087197 290.608333 
Q 378.802197 291.278333 378.802197 292.178333 
Q 378.802197 292.763333 378.469697 293.308333 
Q 378.139697 293.850833 377.427197 294.263333 
Q 378.342197 294.708333 378.822197 295.360833 
Q 379.302197 296.013333 379.302197 296.998333 
Q 379.302197 298.653333 378.102197 299.815833 
Q 376.904697 300.975833 374.889697 300.975833 
Q 373.544697 300.975833 372.927197 300.528333 
Q 372.482197 300.215833 372.482197 299.725833 
Q 372.482197 299.365833 372.739697 299.113333 
Q 372.997197 298.858333 373.334697 298.858333 
Q 373.592197 298.858333 373.819697 298.965833 
Q 373.944697 299.028333 374.704697 299.650833 
Q 375.467197 300.270833 376.132197 300.270833 
Q 376.709697 300.270833 377.122197 299.815833 
Q 377.537197 299.358333 377.537197 298.653333 
Q 377.537197 297.583333 376.787197 296.680833 
Q 376.037197 295.778333 374.592197 295.435833 
z
"/>
   </g>
   <g id="text_26">
    <path d="M 358.592197 188.903975 
L 358.592197 188.631475 
Q 359.482197 188.371475 359.824697 188.148975 
Q 360.169697 187.926475 360.419697 187.471475 
Q 360.669697 187.013975 360.669697 186.543975 
Q 360.669697 185.896475 360.197197 185.431475 
Q 359.724697 184.966475 359.022197 184.966475 
Q 357.927197 184.966475 357.162197 186.121475 
L 356.872197 186.021475 
Q 357.434697 184.716475 358.314697 184.061475 
Q 359.194697 183.403975 360.272197 183.403975 
Q 361.372197 183.403975 362.087197 184.076475 
Q 362.802197 184.746475 362.802197 185.646475 
Q 362.802197 186.231475 362.469697 186.776475 
Q 362.139697 187.318975 361.427197 187.731475 
Q 362.342197 188.176475 362.822197 188.828975 
Q 363.302197 189.481475 363.302197 190.466475 
Q 363.302197 192.121475 362.102197 193.283975 
Q 360.904697 194.443975 358.889697 194.443975 
Q 357.544697 194.443975 356.927197 193.996475 
Q 356.482197 193.683975 356.482197 193.193975 
Q 356.482197 192.833975 356.739697 192.581475 
Q 356.997197 192.326475 357.334697 192.326475 
Q 357.592197 192.326475 357.819697 192.433975 
Q 357.944697 192.496475 358.704697 193.118975 
Q 359.467197 193.738975 360.132197 193.738975 
Q 360.709697 193.738975 361.122197 193.283975 
Q 361.537197 192.826475 361.537197 192.121475 
Q 361.537197 191.051475 360.787197 190.148975 
Q 360.037197 189.246475 358.592197 188.903975 
z
M 366.662197 183.621475 
L 371.622197 183.621475 
L 370.834697 185.638975 
L 366.662197 185.638975 
L 366.264697 186.693975 
Q 368.959697 186.793975 370.412197 188.036475 
Q 371.607197 189.058975 371.607197 190.583975 
Q 371.607197 191.558975 371.052197 192.493975 
Q 370.497197 193.426475 369.489697 193.931475 
Q 368.482197 194.436475 367.279697 194.436475 
Q 365.982197 194.436475 365.287197 193.951475 
Q 364.802197 193.606475 364.802197 193.168975 
Q 364.802197 192.833975 365.054697 192.576475 
Q 365.309697 192.318975 365.647197 192.318975 
Q 365.952197 192.318975 366.264697 192.443975 
Q 366.577197 192.568975 367.334697 193.098975 
Q 367.809697 193.426475 368.154697 193.551475 
Q 368.397197 193.646475 368.702197 193.646475 
Q 369.342197 193.646475 369.789697 193.178975 
Q 370.239697 192.708975 370.239697 192.051475 
Q 370.239697 190.676475 368.864697 189.818975 
Q 367.489697 188.958975 365.397197 188.958975 
Q 365.184697 188.958975 364.764697 188.966475 
L 366.662197 183.621475 
z
M 374.224697 191.808975 
Q 374.772197 191.808975 375.149697 192.193975 
Q 375.529697 192.576475 375.529697 193.113975 
Q 375.529697 193.653975 375.147197 194.033975 
Q 374.764697 194.411475 374.224697 194.411475 
Q 373.684697 194.411475 373.304697 194.033975 
Q 372.927197 193.653975 372.927197 193.113975 
Q 372.927197 192.576475 373.304697 192.193975 
Q 373.684697 191.808975 374.224697 191.808975 
z
M 383.739697 183.403975 
L 383.739697 183.621475 
Q 382.327197 183.981475 381.469697 184.548975 
Q 380.614697 185.113975 380.117197 185.923975 
Q 379.622197 186.731475 379.349697 187.926475 
Q 379.694697 187.693975 379.919697 187.621475 
Q 380.427197 187.466475 380.944697 187.466475 
Q 382.132197 187.466475 382.924697 188.331475 
Q 383.717197 189.193975 383.717197 190.683975 
Q 383.717197 191.731475 383.287197 192.606475 
Q 382.857197 193.481475 382.067197 193.958975 
Q 381.279697 194.436475 380.382197 194.436475 
Q 379.404697 194.436475 378.574697 193.901475 
Q 377.747197 193.363975 377.282197 192.333975 
Q 376.819697 191.301475 376.819697 190.091475 
Q 376.819697 188.308975 377.674697 186.773975 
Q 378.529697 185.238975 380.102197 184.328975 
Q 381.677197 183.418975 383.739697 183.403975 
z
M 379.247197 188.558975 
Q 379.184697 189.638975 379.184697 190.138975 
Q 379.184697 191.216475 379.392197 192.223975 
Q 379.599697 193.231475 379.959697 193.638975 
Q 380.217197 193.926475 380.569697 193.926475 
Q 380.927197 193.926475 381.207197 193.508975 
Q 381.489697 193.091475 381.489697 191.808975 
Q 381.489697 189.653975 380.967197 188.833975 
Q 380.632197 188.301475 380.059697 188.301475 
Q 379.747197 188.301475 379.247197 188.558975 
z
" style="stroke: #ffffff; stroke-width: 3.8"/>
    <path d="M 358.592197 188.903975 
L 358.592197 188.631475 
Q 359.482197 188.371475 359.824697 188.148975 
Q 360.169697 187.926475 360.419697 187.471475 
Q 360.669697 187.013975 360.669697 186.543975 
Q 360.669697 185.896475 360.197197 185.431475 
Q 359.724697 184.966475 359.022197 184.966475 
Q 357.927197 184.966475 357.162197 186.121475 
L 356.872197 186.021475 
Q 357.434697 184.716475 358.314697 184.061475 
Q 359.194697 183.403975 360.272197 183.403975 
Q 361.372197 183.403975 362.087197 184.076475 
Q 362.802197 184.746475 362.802197 185.646475 
Q 362.802197 186.231475 362.469697 186.776475 
Q 362.139697 187.318975 361.427197 187.731475 
Q 362.342197 188.176475 362.822197 188.828975 
Q 363.302197 189.481475 363.302197 190.466475 
Q 363.302197 192.121475 362.102197 193.283975 
Q 360.904697 194.443975 358.889697 194.443975 
Q 357.544697 194.443975 356.927197 193.996475 
Q 356.482197 193.683975 356.482197 193.193975 
Q 356.482197 192.833975 356.739697 192.581475 
Q 356.997197 192.326475 357.334697 192.326475 
Q 357.592197 192.326475 357.819697 192.433975 
Q 357.944697 192.496475 358.704697 193.118975 
Q 359.467197 193.738975 360.132197 193.738975 
Q 360.709697 193.738975 361.122197 193.283975 
Q 361.537197 192.826475 361.537197 192.121475 
Q 361.537197 191.051475 360.787197 190.148975 
Q 360.037197 189.246475 358.592197 188.903975 
z
M 366.662197 183.621475 
L 371.622197 183.621475 
L 370.834697 185.638975 
L 366.662197 185.638975 
L 366.264697 186.693975 
Q 368.959697 186.793975 370.412197 188.036475 
Q 371.607197 189.058975 371.607197 190.583975 
Q 371.607197 191.558975 371.052197 192.493975 
Q 370.497197 193.426475 369.489697 193.931475 
Q 368.482197 194.436475 367.279697 194.436475 
Q 365.982197 194.436475 365.287197 193.951475 
Q 364.802197 193.606475 364.802197 193.168975 
Q 364.802197 192.833975 365.054697 192.576475 
Q 365.309697 192.318975 365.647197 192.318975 
Q 365.952197 192.318975 366.264697 192.443975 
Q 366.577197 192.568975 367.334697 193.098975 
Q 367.809697 193.426475 368.154697 193.551475 
Q 368.397197 193.646475 368.702197 193.646475 
Q 369.342197 193.646475 369.789697 193.178975 
Q 370.239697 192.708975 370.239697 192.051475 
Q 370.239697 190.676475 368.864697 189.818975 
Q 367.489697 188.958975 365.397197 188.958975 
Q 365.184697 188.958975 364.764697 188.966475 
L 366.662197 183.621475 
z
M 374.224697 191.808975 
Q 374.772197 191.808975 375.149697 192.193975 
Q 375.529697 192.576475 375.529697 193.113975 
Q 375.529697 193.653975 375.147197 194.033975 
Q 374.764697 194.411475 374.224697 194.411475 
Q 373.684697 194.411475 373.304697 194.033975 
Q 372.927197 193.653975 372.927197 193.113975 
Q 372.927197 192.576475 373.304697 192.193975 
Q 373.684697 191.808975 374.224697 191.808975 
z
M 383.739697 183.403975 
L 383.739697 183.621475 
Q 382.327197 183.981475 381.469697 184.548975 
Q 380.614697 185.113975 380.117197 185.923975 
Q 379.622197 186.731475 379.349697 187.926475 
Q 379.694697 187.693975 379.919697 187.621475 
Q 380.427197 187.466475 380.944697 187.466475 
Q 382.132197 187.466475 382.924697 188.331475 
Q 383.717197 189.193975 383.717197 190.683975 
Q 383.717197 191.731475 383.287197 192.606475 
Q 382.857197 193.481475 382.067197 193.958975 
Q 381.279697 194.436475 380.382197 194.436475 
Q 379.404697 194.436475 378.574697 193.901475 
Q 377.747197 193.363975 377.282197 192.333975 
Q 376.819697 191.301475 376.819697 190.091475 
Q 376.819697 188.308975 377.674697 186.773975 
Q 378.529697 185.238975 380.102197 184.328975 
Q 381.677197 183.418975 383.739697 183.403975 
z
M 379.247197 188.558975 
Q 379.184697 189.638975 379.184697 190.138975 
Q 379.184697 191.216475 379.392197 192.223975 
Q 379.599697 193.231475 379.959697 193.638975 
Q 380.217197 193.926475 380.569697 193.926475 
Q 380.927197 193.926475 381.207197 193.508975 
Q 381.489697 193.091475 381.489697 191.808975 
Q 381.489697 189.653975 380.967197 188.833975 
Q 380.632197 188.301475 380.059697 188.301475 
Q 379.747197 188.301475 379.247197 188.558975 
z
"/>
   </g>
   <g id="text_27">
    <path d="M 363.739697 103.538021 
L 363.739697 103.755521 
Q 362.327197 104.115521 361.469697 104.683021 
Q 360.614697 105.248021 360.117197 106.058021 
Q 359.622197 106.865521 359.349697 108.060521 
Q 359.694697 107.828021 359.919697 107.755521 
Q 360.427197 107.600521 360.944697 107.600521 
Q 362.132197 107.600521 362.924697 108.465521 
Q 363.717197 109.328021 363.717197 110.818021 
Q 363.717197 111.865521 363.287197 112.740521 
Q 362.857197 113.615521 362.067197 114.093021 
Q 361.279697 114.570521 360.382197 114.570521 
Q 359.404697 114.570521 358.574697 114.035521 
Q 357.747197 113.498021 357.282197 112.468021 
Q 356.819697 111.435521 356.819697 110.225521 
Q 356.819697 108.443021 357.674697 106.908021 
Q 358.529697 105.373021 360.102197 104.463021 
Q 361.677197 103.553021 363.739697 103.538021 
z
M 359.247197 108.693021 
Q 359.184697 109.773021 359.184697 110.273021 
Q 359.184697 111.350521 359.392197 112.358021 
Q 359.599697 113.365521 359.959697 113.773021 
Q 360.217197 114.060521 360.569697 114.060521 
Q 360.927197 114.060521 361.207197 113.643021 
Q 361.489697 113.225521 361.489697 111.943021 
Q 361.489697 109.788021 360.967197 108.968021 
Q 360.632197 108.435521 360.059697 108.435521 
Q 359.747197 108.435521 359.247197 108.693021 
z
M 367.059697 114.570521 
L 369.944697 105.828021 
L 367.747197 105.828021 
Q 366.459697 105.828021 365.809697 106.163021 
Q 365.357197 106.398021 365.059697 107.045521 
L 364.764697 107.045521 
L 365.529697 103.755521 
L 371.842197 103.755521 
L 368.287197 114.570521 
L 367.059697 114.570521 
z
M 374.224697 111.943021 
Q 374.772197 111.943021 375.149697 112.328021 
Q 375.529697 112.710521 375.529697 113.248021 
Q 375.529697 113.788021 375.147197 114.168021 
Q 374.764697 114.545521 374.224697 114.545521 
Q 373.684697 114.545521 373.304697 114.168021 
Q 372.927197 113.788021 372.927197 113.248021 
Q 372.927197 112.710521 373.304697 112.328021 
Q 373.684697 111.943021 374.224697 111.943021 
z
M 383.739697 103.538021 
L 383.739697 103.755521 
Q 382.327197 104.115521 381.469697 104.683021 
Q 380.614697 105.248021 380.117197 106.058021 
Q 379.622197 106.865521 379.349697 108.060521 
Q 379.694697 107.828021 379.919697 107.755521 
Q 380.427197 107.600521 380.944697 107.600521 
Q 382.132197 107.600521 382.924697 108.465521 
Q 383.717197 109.328021 383.717197 110.818021 
Q 383.717197 111.865521 383.287197 112.740521 
Q 382.857197 113.615521 382.067197 114.093021 
Q 381.279697 114.570521 380.382197 114.570521 
Q 379.404697 114.570521 378.574697 114.035521 
Q 377.747197 113.498021 377.282197 112.468021 
Q 376.819697 111.435521 376.819697 110.225521 
Q 376.819697 108.443021 377.674697 106.908021 
Q 378.529697 105.373021 380.102197 104.463021 
Q 381.677197 103.553021 383.739697 103.538021 
z
M 379.247197 108.693021 
Q 379.184697 109.773021 379.184697 110.273021 
Q 379.184697 111.350521 379.392197 112.358021 
Q 379.599697 113.365521 379.959697 113.773021 
Q 380.217197 114.060521 380.569697 114.060521 
Q 380.927197 114.060521 381.207197 113.643021 
Q 381.489697 113.225521 381.489697 111.943021 
Q 381.489697 109.788021 380.967197 108.968021 
Q 380.632197 108.435521 380.059697 108.435521 
Q 379.747197 108.435521 379.247197 108.693021 
z
" style="stroke: #ffffff; stroke-width: 3.8"/>
    <path d="M 363.739697 103.538021 
L 363.739697 103.755521 
Q 362.327197 104.115521 361.469697 104.683021 
Q 360.614697 105.248021 360.117197 106.058021 
Q 359.622197 106.865521 359.349697 108.060521 
Q 359.694697 107.828021 359.919697 107.755521 
Q 360.427197 107.600521 360.944697 107.600521 
Q 362.132197 107.600521 362.924697 108.465521 
Q 363.717197 109.328021 363.717197 110.818021 
Q 363.717197 111.865521 363.287197 112.740521 
Q 362.857197 113.615521 362.067197 114.093021 
Q 361.279697 114.570521 360.382197 114.570521 
Q 359.404697 114.570521 358.574697 114.035521 
Q 357.747197 113.498021 357.282197 112.468021 
Q 356.819697 111.435521 356.819697 110.225521 
Q 356.819697 108.443021 357.674697 106.908021 
Q 358.529697 105.373021 360.102197 104.463021 
Q 361.677197 103.553021 363.739697 103.538021 
z
M 359.247197 108.693021 
Q 359.184697 109.773021 359.184697 110.273021 
Q 359.184697 111.350521 359.392197 112.358021 
Q 359.599697 113.365521 359.959697 113.773021 
Q 360.217197 114.060521 360.569697 114.060521 
Q 360.927197 114.060521 361.207197 113.643021 
Q 361.489697 113.225521 361.489697 111.943021 
Q 361.489697 109.788021 360.967197 108.968021 
Q 360.632197 108.435521 360.059697 108.435521 
Q 359.747197 108.435521 359.247197 108.693021 
z
M 367.059697 114.570521 
L 369.944697 105.828021 
L 367.747197 105.828021 
Q 366.459697 105.828021 365.809697 106.163021 
Q 365.357197 106.398021 365.059697 107.045521 
L 364.764697 107.045521 
L 365.529697 103.755521 
L 371.842197 103.755521 
L 368.287197 114.570521 
L 367.059697 114.570521 
z
M 374.224697 111.943021 
Q 374.772197 111.943021 375.149697 112.328021 
Q 375.529697 112.710521 375.529697 113.248021 
Q 375.529697 113.788021 375.147197 114.168021 
Q 374.764697 114.545521 374.224697 114.545521 
Q 373.684697 114.545521 373.304697 114.168021 
Q 372.927197 113.788021 372.927197 113.248021 
Q 372.927197 112.710521 373.304697 112.328021 
Q 373.684697 111.943021 374.224697 111.943021 
z
M 383.739697 103.538021 
L 383.739697 103.755521 
Q 382.327197 104.115521 381.469697 104.683021 
Q 380.614697 105.248021 380.117197 106.058021 
Q 379.622197 106.865521 379.349697 108.060521 
Q 379.694697 107.828021 379.919697 107.755521 
Q 380.427197 107.600521 380.944697 107.600521 
Q 382.132197 107.600521 382.924697 108.465521 
Q 383.717197 109.328021 383.717197 110.818021 
Q 383.717197 111.865521 383.287197 112.740521 
Q 382.857197 113.615521 382.067197 114.093021 
Q 381.279697 114.570521 380.382197 114.570521 
Q 379.404697 114.570521 378.574697 114.035521 
Q 377.747197 113.498021 377.282197 112.468021 
Q 376.819697 111.435521 376.819697 110.225521 
Q 376.819697 108.443021 377.674697 106.908021 
Q 378.529697 105.373021 380.102197 104.463021 
Q 381.677197 103.553021 383.739697 103.538021 
z
M 379.247197 108.693021 
Q 379.184697 109.773021 379.184697 110.273021 
Q 379.184697 111.350521 379.392197 112.358021 
Q 379.599697 113.365521 379.959697 113.773021 
Q 380.217197 114.060521 380.569697 114.060521 
Q 380.927197 114.060521 381.207197 113.643021 
Q 381.489697 113.225521 381.489697 111.943021 
Q 381.489697 109.788021 380.967197 108.968021 
Q 380.632197 108.435521 380.059697 108.435521 
Q 379.747197 108.435521 379.247197 108.693021 
z
"/>
   </g>
   <g id="text_28">
    <path d="M 577.363672 214.340305 
L 577.363672 223.005305 
Q 577.363672 223.980305 577.448672 224.250305 
Q 577.536172 224.520305 577.808672 224.692805 
Q 578.083672 224.862805 578.686172 224.862805 
L 578.926172 224.862805 
L 578.926172 225.152805 
L 573.348672 225.152805 
L 573.348672 224.862805 
L 573.631172 224.862805 
Q 574.311172 224.862805 574.598672 224.707805 
Q 574.888672 224.550305 574.988672 224.277805 
Q 575.091172 224.005305 575.091172 223.005305 
L 575.091172 217.512805 
Q 575.091172 216.777805 575.021172 216.595305 
Q 574.951172 216.410305 574.758672 216.282805 
Q 574.568672 216.152805 574.318672 216.152805 
Q 573.918672 216.152805 573.348672 216.402805 
L 573.208672 216.120305 
L 577.106172 214.340305 
L 577.363672 214.340305 
z
M 585.606172 219.167805 
Q 586.723672 219.987805 587.156172 220.695305 
Q 587.591172 221.402805 587.591172 222.317805 
Q 587.591172 223.597805 586.626172 224.485305 
Q 585.661172 225.372805 584.006172 225.372805 
Q 582.436172 225.372805 581.576172 224.600305 
Q 580.716172 223.825305 580.716172 222.707805 
Q 580.716172 221.855305 581.211172 221.215305 
Q 581.708672 220.575305 582.863672 220.042805 
Q 581.606172 219.082805 581.251172 218.472805 
Q 580.896172 217.862805 580.896172 217.057805 
Q 580.896172 215.995305 581.798672 215.187805 
Q 582.701172 214.380305 584.271172 214.380305 
Q 585.786172 214.380305 586.601172 215.095305 
Q 587.418672 215.807805 587.418672 216.807805 
Q 587.418672 217.557805 586.976172 218.132805 
Q 586.536172 218.707805 585.606172 219.167805 
z
M 585.013672 218.770305 
Q 585.301172 218.380305 585.441172 217.895305 
Q 585.583672 217.410305 585.583672 216.832805 
Q 585.583672 215.817805 585.146172 215.277805 
Q 584.818672 214.862805 584.238672 214.862805 
Q 583.716172 214.862805 583.348672 215.242805 
Q 582.981172 215.620305 582.981172 216.182805 
Q 582.981172 216.755305 583.391172 217.367805 
Q 583.801172 217.980305 585.013672 218.770305 
z
M 583.451172 220.417805 
Q 583.208672 220.637805 583.106172 220.817805 
Q 582.951172 221.090305 582.826172 221.615305 
Q 582.701172 222.137805 582.701172 222.707805 
Q 582.701172 223.442805 582.888672 223.937805 
Q 583.076172 224.432805 583.423672 224.652805 
Q 583.771172 224.870305 584.138672 224.870305 
Q 584.708672 224.870305 585.098672 224.452805 
Q 585.488672 224.035305 585.488672 223.307805 
Q 585.488672 221.792805 583.451172 220.417805 
z
M 590.153672 222.745305 
Q 590.701172 222.745305 591.078672 223.130305 
Q 591.458672 223.512805 591.458672 224.050305 
Q 591.458672 224.590305 591.076172 224.970305 
Q 590.693672 225.347805 590.153672 225.347805 
Q 589.613672 225.347805 589.233672 224.970305 
Q 588.856172 224.590305 588.856172 224.050305 
Q 588.856172 223.512805 589.233672 223.130305 
Q 589.613672 222.745305 590.153672 222.745305 
z
M 599.668672 214.340305 
L 599.668672 214.557805 
Q 598.256172 214.917805 597.398672 215.485305 
Q 596.543672 216.050305 596.046172 216.860305 
Q 595.551172 217.667805 595.278672 218.862805 
Q 595.623672 218.630305 595.848672 218.557805 
Q 596.356172 218.402805 596.873672 218.402805 
Q 598.061172 218.402805 598.853672 219.267805 
Q 599.646172 220.130305 599.646172 221.620305 
Q 599.646172 222.667805 599.216172 223.542805 
Q 598.786172 224.417805 597.996172 224.895305 
Q 597.208672 225.372805 596.311172 225.372805 
Q 595.333672 225.372805 594.503672 224.837805 
Q 593.676172 224.300305 593.211172 223.270305 
Q 592.748672 222.237805 592.748672 221.027805 
Q 592.748672 219.245305 593.603672 217.710305 
Q 594.458672 216.175305 596.031172 215.265305 
Q 597.606172 214.355305 599.668672 214.340305 
z
M 595.176172 219.495305 
Q 595.113672 220.575305 595.113672 221.075305 
Q 595.113672 222.152805 595.321172 223.160305 
Q 595.528672 224.167805 595.888672 224.575305 
Q 596.146172 224.862805 596.498672 224.862805 
Q 596.856172 224.862805 597.136172 224.445305 
Q 597.418672 224.027805 597.418672 222.745305 
Q 597.418672 220.590305 596.896172 219.770305 
Q 596.561172 219.237805 595.988672 219.237805 
Q 595.676172 219.237805 595.176172 219.495305 
z
" style="stroke: #ffffff; stroke-width: 3.8"/>
    <path d="M 577.363672 214.340305 
L 577.363672 223.005305 
Q 577.363672 223.980305 577.448672 224.250305 
Q 577.536172 224.520305 577.808672 224.692805 
Q 578.083672 224.862805 578.686172 224.862805 
L 578.926172 224.862805 
L 578.926172 225.152805 
L 573.348672 225.152805 
L 573.348672 224.862805 
L 573.631172 224.862805 
Q 574.311172 224.862805 574.598672 224.707805 
Q 574.888672 224.550305 574.988672 224.277805 
Q 575.091172 224.005305 575.091172 223.005305 
L 575.091172 217.512805 
Q 575.091172 216.777805 575.021172 216.595305 
Q 574.951172 216.410305 574.758672 216.282805 
Q 574.568672 216.152805 574.318672 216.152805 
Q 573.918672 216.152805 573.348672 216.402805 
L 573.208672 216.120305 
L 577.106172 214.340305 
L 577.363672 214.340305 
z
M 585.606172 219.167805 
Q 586.723672 219.987805 587.156172 220.695305 
Q 587.591172 221.402805 587.591172 222.317805 
Q 587.591172 223.597805 586.626172 224.485305 
Q 585.661172 225.372805 584.006172 225.372805 
Q 582.436172 225.372805 581.576172 224.600305 
Q 580.716172 223.825305 580.716172 222.707805 
Q 580.716172 221.855305 581.211172 221.215305 
Q 581.708672 220.575305 582.863672 220.042805 
Q 581.606172 219.082805 581.251172 218.472805 
Q 580.896172 217.862805 580.896172 217.057805 
Q 580.896172 215.995305 581.798672 215.187805 
Q 582.701172 214.380305 584.271172 214.380305 
Q 585.786172 214.380305 586.601172 215.095305 
Q 587.418672 215.807805 587.418672 216.807805 
Q 587.418672 217.557805 586.976172 218.132805 
Q 586.536172 218.707805 585.606172 219.167805 
z
M 585.013672 218.770305 
Q 585.301172 218.380305 585.441172 217.895305 
Q 585.583672 217.410305 585.583672 216.832805 
Q 585.583672 215.817805 585.146172 215.277805 
Q 584.818672 214.862805 584.238672 214.862805 
Q 583.716172 214.862805 583.348672 215.242805 
Q 582.981172 215.620305 582.981172 216.182805 
Q 582.981172 216.755305 583.391172 217.367805 
Q 583.801172 217.980305 585.013672 218.770305 
z
M 583.451172 220.417805 
Q 583.208672 220.637805 583.106172 220.817805 
Q 582.951172 221.090305 582.826172 221.615305 
Q 582.701172 222.137805 582.701172 222.707805 
Q 582.701172 223.442805 582.888672 223.937805 
Q 583.076172 224.432805 583.423672 224.652805 
Q 583.771172 224.870305 584.138672 224.870305 
Q 584.708672 224.870305 585.098672 224.452805 
Q 585.488672 224.035305 585.488672 223.307805 
Q 585.488672 221.792805 583.451172 220.417805 
z
M 590.153672 222.745305 
Q 590.701172 222.745305 591.078672 223.130305 
Q 591.458672 223.512805 591.458672 224.050305 
Q 591.458672 224.590305 591.076172 224.970305 
Q 590.693672 225.347805 590.153672 225.347805 
Q 589.613672 225.347805 589.233672 224.970305 
Q 588.856172 224.590305 588.856172 224.050305 
Q 588.856172 223.512805 589.233672 223.130305 
Q 589.613672 222.745305 590.153672 222.745305 
z
M 599.668672 214.340305 
L 599.668672 214.557805 
Q 598.256172 214.917805 597.398672 215.485305 
Q 596.543672 216.050305 596.046172 216.860305 
Q 595.551172 217.667805 595.278672 218.862805 
Q 595.623672 218.630305 595.848672 218.557805 
Q 596.356172 218.402805 596.873672 218.402805 
Q 598.061172 218.402805 598.853672 219.267805 
Q 599.646172 220.130305 599.646172 221.620305 
Q 599.646172 222.667805 599.216172 223.542805 
Q 598.786172 224.417805 597.996172 224.895305 
Q 597.208672 225.372805 596.311172 225.372805 
Q 595.333672 225.372805 594.503672 224.837805 
Q 593.676172 224.300305 593.211172 223.270305 
Q 592.748672 222.237805 592.748672 221.027805 
Q 592.748672 219.245305 593.603672 217.710305 
Q 594.458672 216.175305 596.031172 215.265305 
Q 597.606172 214.355305 599.668672 214.340305 
z
M 595.176172 219.495305 
Q 595.113672 220.575305 595.113672 221.075305 
Q 595.113672 222.152805 595.321172 223.160305 
Q 595.528672 224.167805 595.888672 224.575305 
Q 596.146172 224.862805 596.498672 224.862805 
Q 596.856172 224.862805 597.136172 224.445305 
Q 597.418672 224.027805 597.418672 222.745305 
Q 597.418672 220.590305 596.896172 219.770305 
Q 596.561172 219.237805 595.988672 219.237805 
Q 595.676172 219.237805 595.176172 219.495305 
z
"/>
   </g>
   <g id="text_29">
    <path d="M 573.312915 387.114109 
L 567.467602 387.114109 
L 567.467602 386.95239 
Q 570.155884 383.753171 570.730102 382.646921 
Q 571.306665 381.540671 571.306665 380.485984 
Q 571.306665 379.717234 570.830884 379.20864 
Q 570.355102 378.697703 569.66604 378.697703 
Q 568.538696 378.697703 567.915259 379.82739 
L 567.643384 379.731296 
Q 568.039477 378.325046 568.845727 377.65239 
Q 569.651977 376.97739 570.706665 376.97739 
Q 571.459009 376.97739 572.082446 377.328953 
Q 572.705884 377.680515 573.057446 378.292234 
Q 573.409009 378.903953 573.409009 379.438328 
Q 573.409009 380.413328 572.865259 381.416453 
Q 572.126977 382.77114 569.635571 385.194578 
L 571.782446 385.194578 
Q 572.57229 385.194578 572.811352 385.128953 
Q 573.050415 385.063328 573.202759 384.906296 
Q 573.357446 384.749265 573.605884 384.243015 
L 573.870727 384.243015 
L 573.312915 387.114109 
z
M 576.476977 384.857078 
Q 576.990259 384.857078 577.344165 385.218015 
Q 577.700415 385.576609 577.700415 386.080515 
Q 577.700415 386.586765 577.341821 386.943015 
Q 576.983227 387.296921 576.476977 387.296921 
Q 575.970727 387.296921 575.614477 386.943015 
Q 575.260571 386.586765 575.260571 386.080515 
Q 575.260571 385.576609 575.614477 385.218015 
Q 575.970727 384.857078 576.476977 384.857078 
z
M 583.236352 376.97739 
L 583.236352 385.100828 
Q 583.236352 386.01489 583.31604 386.268015 
Q 583.398071 386.52114 583.65354 386.682859 
Q 583.911352 386.842234 584.476196 386.842234 
L 584.701196 386.842234 
L 584.701196 387.114109 
L 579.47229 387.114109 
L 579.47229 386.842234 
L 579.737134 386.842234 
Q 580.374634 386.842234 580.644165 386.696921 
Q 580.91604 386.549265 581.00979 386.293796 
Q 581.105884 386.038328 581.105884 385.100828 
L 581.105884 379.951609 
Q 581.105884 379.262546 581.040259 379.091453 
Q 580.974634 378.918015 580.794165 378.798484 
Q 580.61604 378.676609 580.381665 378.676609 
Q 580.006665 378.676609 579.47229 378.910984 
L 579.34104 378.64614 
L 582.994946 376.97739 
L 583.236352 376.97739 
z
" style="fill: #404040; stroke: #ffffff; stroke-width: 3.8"/>
    <path d="M 573.312915 387.114109 
L 567.467602 387.114109 
L 567.467602 386.95239 
Q 570.155884 383.753171 570.730102 382.646921 
Q 571.306665 381.540671 571.306665 380.485984 
Q 571.306665 379.717234 570.830884 379.20864 
Q 570.355102 378.697703 569.66604 378.697703 
Q 568.538696 378.697703 567.915259 379.82739 
L 567.643384 379.731296 
Q 568.039477 378.325046 568.845727 377.65239 
Q 569.651977 376.97739 570.706665 376.97739 
Q 571.459009 376.97739 572.082446 377.328953 
Q 572.705884 377.680515 573.057446 378.292234 
Q 573.409009 378.903953 573.409009 379.438328 
Q 573.409009 380.413328 572.865259 381.416453 
Q 572.126977 382.77114 569.635571 385.194578 
L 571.782446 385.194578 
Q 572.57229 385.194578 572.811352 385.128953 
Q 573.050415 385.063328 573.202759 384.906296 
Q 573.357446 384.749265 573.605884 384.243015 
L 573.870727 384.243015 
L 573.312915 387.114109 
z
M 576.476977 384.857078 
Q 576.990259 384.857078 577.344165 385.218015 
Q 577.700415 385.576609 577.700415 386.080515 
Q 577.700415 386.586765 577.341821 386.943015 
Q 576.983227 387.296921 576.476977 387.296921 
Q 575.970727 387.296921 575.614477 386.943015 
Q 575.260571 386.586765 575.260571 386.080515 
Q 575.260571 385.576609 575.614477 385.218015 
Q 575.970727 384.857078 576.476977 384.857078 
z
M 583.236352 376.97739 
L 583.236352 385.100828 
Q 583.236352 386.01489 583.31604 386.268015 
Q 583.398071 386.52114 583.65354 386.682859 
Q 583.911352 386.842234 584.476196 386.842234 
L 584.701196 386.842234 
L 584.701196 387.114109 
L 579.47229 387.114109 
L 579.47229 386.842234 
L 579.737134 386.842234 
Q 580.374634 386.842234 580.644165 386.696921 
Q 580.91604 386.549265 581.00979 386.293796 
Q 581.105884 386.038328 581.105884 385.100828 
L 581.105884 379.951609 
Q 581.105884 379.262546 581.040259 379.091453 
Q 580.974634 378.918015 580.794165 378.798484 
Q 580.61604 378.676609 580.381665 378.676609 
Q 580.006665 378.676609 579.47229 378.910984 
L 579.34104 378.64614 
L 582.994946 376.97739 
L 583.236352 376.97739 
z
" style="fill: #404040"/>
   </g>
   <g id="text_30">
    <path d="M 567.635205 327.239506 
L 567.635205 335.362943 
Q 567.635205 336.277006 567.714893 336.530131 
Q 567.796924 336.783256 568.052393 336.944975 
Q 568.310205 337.10435 568.875049 337.10435 
L 569.100049 337.10435 
L 569.100049 337.376225 
L 563.871143 337.376225 
L 563.871143 337.10435 
L 564.135986 337.10435 
Q 564.773486 337.10435 565.043018 336.959037 
Q 565.314893 336.811381 565.408643 336.555912 
Q 565.504736 336.300443 565.504736 335.362943 
L 565.504736 330.213725 
Q 565.504736 329.524662 565.439111 329.353568 
Q 565.373486 329.180131 565.193018 329.0606 
Q 565.014893 328.938725 564.780518 328.938725 
Q 564.405518 328.938725 563.871143 329.1731 
L 563.739893 328.908256 
L 567.393799 327.239506 
L 567.635205 327.239506 
z
M 577.202393 332.409818 
Q 577.202393 333.8981 576.785205 335.187162 
Q 576.534424 335.977006 576.112549 336.483256 
Q 575.693018 336.987162 575.158643 337.284818 
Q 574.624268 337.582475 573.993799 337.582475 
Q 573.276611 337.582475 572.697705 337.21685 
Q 572.118799 336.848881 571.671143 336.16685 
Q 571.350049 335.669975 571.108643 334.842631 
Q 570.792236 333.722318 570.792236 332.527006 
Q 570.792236 330.909818 571.246924 329.552787 
Q 571.61958 328.432475 572.381299 327.837162 
Q 573.143018 327.239506 573.993799 327.239506 
Q 574.858643 327.239506 575.608643 327.830131 
Q 576.358643 328.418412 576.710205 329.414506 
Q 577.202393 330.783256 577.202393 332.409818 
z
M 574.945361 332.395756 
Q 574.945361 329.787162 574.917236 329.355912 
Q 574.842236 328.338725 574.565674 327.980131 
Q 574.382861 327.745756 573.972705 327.745756 
Q 573.656299 327.745756 573.473486 327.921537 
Q 573.201611 328.177006 573.105518 328.826225 
Q 573.011768 329.4731 573.011768 333.347318 
Q 573.011768 335.456693 573.159424 336.173881 
Q 573.26958 336.694193 573.473486 336.869975 
Q 573.679736 337.045756 574.014893 337.045756 
Q 574.382861 337.045756 574.565674 336.811381 
Q 574.872705 336.401225 574.917236 335.545756 
L 574.945361 332.395756 
z
M 579.62583 335.119193 
Q 580.139111 335.119193 580.493018 335.480131 
Q 580.849268 335.838725 580.849268 336.342631 
Q 580.849268 336.848881 580.490674 337.205131 
Q 580.13208 337.559037 579.62583 337.559037 
Q 579.11958 337.559037 578.76333 337.205131 
Q 578.409424 336.848881 578.409424 336.342631 
Q 578.409424 335.838725 578.76333 335.480131 
Q 579.11958 335.119193 579.62583 335.119193 
z
M 587.711768 337.376225 
L 581.866455 337.376225 
L 581.866455 337.214506 
Q 584.554736 334.015287 585.128955 332.909037 
Q 585.705518 331.802787 585.705518 330.7481 
Q 585.705518 329.97935 585.229736 329.470756 
Q 584.753955 328.959818 584.064893 328.959818 
Q 582.937549 328.959818 582.314111 330.089506 
L 582.042236 329.993412 
Q 582.43833 328.587162 583.24458 327.914506 
Q 584.05083 327.239506 585.105518 327.239506 
Q 585.857861 327.239506 586.481299 327.591068 
Q 587.104736 327.942631 587.456299 328.55435 
Q 587.807861 329.166068 587.807861 329.700443 
Q 587.807861 330.675443 587.264111 331.678568 
Q 586.52583 333.033256 584.034424 335.456693 
L 586.181299 335.456693 
Q 586.971143 335.456693 587.210205 335.391068 
Q 587.449268 335.325443 587.601611 335.168412 
Q 587.756299 335.011381 588.004736 334.505131 
L 588.26958 334.505131 
L 587.711768 337.376225 
z
" style="fill: #404040; stroke: #ffffff; stroke-width: 3.8"/>
    <path d="M 567.635205 327.239506 
L 567.635205 335.362943 
Q 567.635205 336.277006 567.714893 336.530131 
Q 567.796924 336.783256 568.052393 336.944975 
Q 568.310205 337.10435 568.875049 337.10435 
L 569.100049 337.10435 
L 569.100049 337.376225 
L 563.871143 337.376225 
L 563.871143 337.10435 
L 564.135986 337.10435 
Q 564.773486 337.10435 565.043018 336.959037 
Q 565.314893 336.811381 565.408643 336.555912 
Q 565.504736 336.300443 565.504736 335.362943 
L 565.504736 330.213725 
Q 565.504736 329.524662 565.439111 329.353568 
Q 565.373486 329.180131 565.193018 329.0606 
Q 565.014893 328.938725 564.780518 328.938725 
Q 564.405518 328.938725 563.871143 329.1731 
L 563.739893 328.908256 
L 567.393799 327.239506 
L 567.635205 327.239506 
z
M 577.202393 332.409818 
Q 577.202393 333.8981 576.785205 335.187162 
Q 576.534424 335.977006 576.112549 336.483256 
Q 575.693018 336.987162 575.158643 337.284818 
Q 574.624268 337.582475 573.993799 337.582475 
Q 573.276611 337.582475 572.697705 337.21685 
Q 572.118799 336.848881 571.671143 336.16685 
Q 571.350049 335.669975 571.108643 334.842631 
Q 570.792236 333.722318 570.792236 332.527006 
Q 570.792236 330.909818 571.246924 329.552787 
Q 571.61958 328.432475 572.381299 327.837162 
Q 573.143018 327.239506 573.993799 327.239506 
Q 574.858643 327.239506 575.608643 327.830131 
Q 576.358643 328.418412 576.710205 329.414506 
Q 577.202393 330.783256 577.202393 332.409818 
z
M 574.945361 332.395756 
Q 574.945361 329.787162 574.917236 329.355912 
Q 574.842236 328.338725 574.565674 327.980131 
Q 574.382861 327.745756 573.972705 327.745756 
Q 573.656299 327.745756 573.473486 327.921537 
Q 573.201611 328.177006 573.105518 328.826225 
Q 573.011768 329.4731 573.011768 333.347318 
Q 573.011768 335.456693 573.159424 336.173881 
Q 573.26958 336.694193 573.473486 336.869975 
Q 573.679736 337.045756 574.014893 337.045756 
Q 574.382861 337.045756 574.565674 336.811381 
Q 574.872705 336.401225 574.917236 335.545756 
L 574.945361 332.395756 
z
M 579.62583 335.119193 
Q 580.139111 335.119193 580.493018 335.480131 
Q 580.849268 335.838725 580.849268 336.342631 
Q 580.849268 336.848881 580.490674 337.205131 
Q 580.13208 337.559037 579.62583 337.559037 
Q 579.11958 337.559037 578.76333 337.205131 
Q 578.409424 336.848881 578.409424 336.342631 
Q 578.409424 335.838725 578.76333 335.480131 
Q 579.11958 335.119193 579.62583 335.119193 
z
M 587.711768 337.376225 
L 581.866455 337.376225 
L 581.866455 337.214506 
Q 584.554736 334.015287 585.128955 332.909037 
Q 585.705518 331.802787 585.705518 330.7481 
Q 585.705518 329.97935 585.229736 329.470756 
Q 584.753955 328.959818 584.064893 328.959818 
Q 582.937549 328.959818 582.314111 330.089506 
L 582.042236 329.993412 
Q 582.43833 328.587162 583.24458 327.914506 
Q 584.05083 327.239506 585.105518 327.239506 
Q 585.857861 327.239506 586.481299 327.591068 
Q 587.104736 327.942631 587.456299 328.55435 
Q 587.807861 329.166068 587.807861 329.700443 
Q 587.807861 330.675443 587.264111 331.678568 
Q 586.52583 333.033256 584.034424 335.456693 
L 586.181299 335.456693 
Q 586.971143 335.456693 587.210205 335.391068 
Q 587.449268 335.325443 587.601611 335.168412 
Q 587.756299 335.011381 588.004736 334.505131 
L 588.26958 334.505131 
L 587.711768 337.376225 
z
" style="fill: #404040"/>
   </g>
   <g id="text_31">
    <path d="M 532.761881 320.294037 
L 535.466568 312.097943 
L 533.406412 312.097943 
Q 532.199381 312.097943 531.590006 312.412006 
Q 531.165787 312.632318 530.886881 313.239349 
L 530.610318 313.239349 
L 531.327506 310.154974 
L 537.245475 310.154974 
L 533.912662 320.294037 
L 532.761881 320.294037 
z
M 539.479068 317.830756 
Q 539.99235 317.830756 540.346256 318.191693 
Q 540.702506 318.550287 540.702506 319.054193 
Q 540.702506 319.560443 540.343912 319.916693 
Q 539.985318 320.270599 539.479068 320.270599 
Q 538.972818 320.270599 538.616568 319.916693 
Q 538.262662 319.560443 538.262662 319.054193 
Q 538.262662 318.550287 538.616568 318.191693 
Q 538.972818 317.830756 539.479068 317.830756 
z
M 544.011881 320.294037 
L 546.716568 312.097943 
L 544.656412 312.097943 
Q 543.449381 312.097943 542.840006 312.412006 
Q 542.415787 312.632318 542.136881 313.239349 
L 541.860318 313.239349 
L 542.577506 310.154974 
L 548.495475 310.154974 
L 545.162662 320.294037 
L 544.011881 320.294037 
z
" style="fill: #404040; stroke: #ffffff; stroke-width: 3.8"/>
    <path d="M 532.761881 320.294037 
L 535.466568 312.097943 
L 533.406412 312.097943 
Q 532.199381 312.097943 531.590006 312.412006 
Q 531.165787 312.632318 530.886881 313.239349 
L 530.610318 313.239349 
L 531.327506 310.154974 
L 537.245475 310.154974 
L 533.912662 320.294037 
L 532.761881 320.294037 
z
M 539.479068 317.830756 
Q 539.99235 317.830756 540.346256 318.191693 
Q 540.702506 318.550287 540.702506 319.054193 
Q 540.702506 319.560443 540.343912 319.916693 
Q 539.985318 320.270599 539.479068 320.270599 
Q 538.972818 320.270599 538.616568 319.916693 
Q 538.262662 319.560443 538.262662 319.054193 
Q 538.262662 318.550287 538.616568 318.191693 
Q 538.972818 317.830756 539.479068 317.830756 
z
M 544.011881 320.294037 
L 546.716568 312.097943 
L 544.656412 312.097943 
Q 543.449381 312.097943 542.840006 312.412006 
Q 542.415787 312.632318 542.136881 313.239349 
L 541.860318 313.239349 
L 542.577506 310.154974 
L 548.495475 310.154974 
L 545.162662 320.294037 
L 544.011881 320.294037 
z
" style="fill: #404040"/>
   </g>
   <g id="text_32">
    <path d="M 319.944086 373.086393 
L 324.662054 366.692643 
L 325.555023 366.692643 
L 325.555023 373.086393 
L 326.464398 373.086393 
L 326.464398 374.602799 
L 325.555023 374.602799 
L 325.555023 376.829362 
L 323.541742 376.829362 
L 323.541742 374.602799 
L 319.944086 374.602799 
L 319.944086 373.086393 
z
M 320.656586 373.086393 
L 323.541742 373.086393 
L 323.541742 369.167643 
L 320.656586 373.086393 
z
M 333.282367 376.829362 
L 327.437054 376.829362 
L 327.437054 376.667643 
Q 330.125336 373.468424 330.699554 372.362174 
Q 331.276117 371.255924 331.276117 370.201237 
Q 331.276117 369.432487 330.800336 368.923893 
Q 330.324554 368.412955 329.635492 368.412955 
Q 328.508148 368.412955 327.884711 369.542643 
L 327.612836 369.446549 
Q 328.008929 368.040299 328.815179 367.367643 
Q 329.621429 366.692643 330.676117 366.692643 
Q 331.428461 366.692643 332.051898 367.044205 
Q 332.675336 367.395768 333.026898 368.007487 
Q 333.378461 368.619205 333.378461 369.15358 
Q 333.378461 370.12858 332.834711 371.131705 
Q 332.096429 372.486393 329.605023 374.90983 
L 331.751898 374.90983 
Q 332.541742 374.90983 332.780804 374.844205 
Q 333.019867 374.77858 333.172211 374.621549 
Q 333.326898 374.464518 333.575336 373.958268 
L 333.840179 373.958268 
L 333.282367 376.829362 
z
M 336.446429 374.57233 
Q 336.959711 374.57233 337.313617 374.933268 
Q 337.669867 375.291862 337.669867 375.795768 
Q 337.669867 376.302018 337.311273 376.658268 
Q 336.952679 377.012174 336.446429 377.012174 
Q 335.940179 377.012174 335.583929 376.658268 
Q 335.230023 376.302018 335.230023 375.795768 
Q 335.230023 375.291862 335.583929 374.933268 
Q 335.940179 374.57233 336.446429 374.57233 
z
M 343.433148 371.218424 
Q 344.480804 371.987174 344.886273 372.650455 
Q 345.294086 373.313737 345.294086 374.171549 
Q 345.294086 375.371549 344.389398 376.20358 
Q 343.484711 377.035612 341.933148 377.035612 
Q 340.461273 377.035612 339.655023 376.311393 
Q 338.848773 375.58483 338.848773 374.537174 
Q 338.848773 373.737955 339.312836 373.137955 
Q 339.779242 372.537955 340.862054 372.038737 
Q 339.683148 371.138737 339.350336 370.566862 
Q 339.017523 369.994987 339.017523 369.240299 
Q 339.017523 368.244205 339.863617 367.487174 
Q 340.709711 366.730143 342.181586 366.730143 
Q 343.601898 366.730143 344.365961 367.400455 
Q 345.132367 368.068424 345.132367 369.005924 
Q 345.132367 369.709049 344.717523 370.248112 
Q 344.305023 370.787174 343.433148 371.218424 
z
M 342.877679 370.845768 
Q 343.147211 370.480143 343.278461 370.025455 
Q 343.412054 369.570768 343.412054 369.029362 
Q 343.412054 368.077799 343.001898 367.571549 
Q 342.694867 367.182487 342.151117 367.182487 
Q 341.661273 367.182487 341.316742 367.538737 
Q 340.972211 367.892643 340.972211 368.419987 
Q 340.972211 368.956705 341.356586 369.530924 
Q 341.740961 370.105143 342.877679 370.845768 
z
M 341.412836 372.390299 
Q 341.185492 372.596549 341.089398 372.765299 
Q 340.944086 373.020768 340.826898 373.512955 
Q 340.709711 374.002799 340.709711 374.537174 
Q 340.709711 375.226237 340.885492 375.690299 
Q 341.061273 376.154362 341.387054 376.360612 
Q 341.712836 376.564518 342.057367 376.564518 
Q 342.591742 376.564518 342.957367 376.173112 
Q 343.322992 375.781705 343.322992 375.099674 
Q 343.322992 373.679362 341.412836 372.390299 
z
" style="fill: #404040; stroke: #ffffff; stroke-width: 3.8"/>
    <path d="M 319.944086 373.086393 
L 324.662054 366.692643 
L 325.555023 366.692643 
L 325.555023 373.086393 
L 326.464398 373.086393 
L 326.464398 374.602799 
L 325.555023 374.602799 
L 325.555023 376.829362 
L 323.541742 376.829362 
L 323.541742 374.602799 
L 319.944086 374.602799 
L 319.944086 373.086393 
z
M 320.656586 373.086393 
L 323.541742 373.086393 
L 323.541742 369.167643 
L 320.656586 373.086393 
z
M 333.282367 376.829362 
L 327.437054 376.829362 
L 327.437054 376.667643 
Q 330.125336 373.468424 330.699554 372.362174 
Q 331.276117 371.255924 331.276117 370.201237 
Q 331.276117 369.432487 330.800336 368.923893 
Q 330.324554 368.412955 329.635492 368.412955 
Q 328.508148 368.412955 327.884711 369.542643 
L 327.612836 369.446549 
Q 328.008929 368.040299 328.815179 367.367643 
Q 329.621429 366.692643 330.676117 366.692643 
Q 331.428461 366.692643 332.051898 367.044205 
Q 332.675336 367.395768 333.026898 368.007487 
Q 333.378461 368.619205 333.378461 369.15358 
Q 333.378461 370.12858 332.834711 371.131705 
Q 332.096429 372.486393 329.605023 374.90983 
L 331.751898 374.90983 
Q 332.541742 374.90983 332.780804 374.844205 
Q 333.019867 374.77858 333.172211 374.621549 
Q 333.326898 374.464518 333.575336 373.958268 
L 333.840179 373.958268 
L 333.282367 376.829362 
z
M 336.446429 374.57233 
Q 336.959711 374.57233 337.313617 374.933268 
Q 337.669867 375.291862 337.669867 375.795768 
Q 337.669867 376.302018 337.311273 376.658268 
Q 336.952679 377.012174 336.446429 377.012174 
Q 335.940179 377.012174 335.583929 376.658268 
Q 335.230023 376.302018 335.230023 375.795768 
Q 335.230023 375.291862 335.583929 374.933268 
Q 335.940179 374.57233 336.446429 374.57233 
z
M 343.433148 371.218424 
Q 344.480804 371.987174 344.886273 372.650455 
Q 345.294086 373.313737 345.294086 374.171549 
Q 345.294086 375.371549 344.389398 376.20358 
Q 343.484711 377.035612 341.933148 377.035612 
Q 340.461273 377.035612 339.655023 376.311393 
Q 338.848773 375.58483 338.848773 374.537174 
Q 338.848773 373.737955 339.312836 373.137955 
Q 339.779242 372.537955 340.862054 372.038737 
Q 339.683148 371.138737 339.350336 370.566862 
Q 339.017523 369.994987 339.017523 369.240299 
Q 339.017523 368.244205 339.863617 367.487174 
Q 340.709711 366.730143 342.181586 366.730143 
Q 343.601898 366.730143 344.365961 367.400455 
Q 345.132367 368.068424 345.132367 369.005924 
Q 345.132367 369.709049 344.717523 370.248112 
Q 344.305023 370.787174 343.433148 371.218424 
z
M 342.877679 370.845768 
Q 343.147211 370.480143 343.278461 370.025455 
Q 343.412054 369.570768 343.412054 369.029362 
Q 343.412054 368.077799 343.001898 367.571549 
Q 342.694867 367.182487 342.151117 367.182487 
Q 341.661273 367.182487 341.316742 367.538737 
Q 340.972211 367.892643 340.972211 368.419987 
Q 340.972211 368.956705 341.356586 369.530924 
Q 341.740961 370.105143 342.877679 370.845768 
z
M 341.412836 372.390299 
Q 341.185492 372.596549 341.089398 372.765299 
Q 340.944086 373.020768 340.826898 373.512955 
Q 340.709711 374.002799 340.709711 374.537174 
Q 340.709711 375.226237 340.885492 375.690299 
Q 341.061273 376.154362 341.387054 376.360612 
Q 341.712836 376.564518 342.057367 376.564518 
Q 342.591742 376.564518 342.957367 376.173112 
Q 343.322992 375.781705 343.322992 375.099674 
Q 343.322992 373.679362 341.412836 372.390299 
z
" style="fill: #404040"/>
   </g>
  </g>
 </g>
 <defs>
  <clipPath id="p6aaef7d16f">
   <rect x="7.2" y="51.034687" width="730.764" height="432.242376"/>
  </clipPath>
 </defs>
</svg>
