<?xml version="1.0" encoding="utf-8" standalone="no"?>
<!DOCTYPE svg PUBLIC "-//W3C//DTD SVG 1.1//EN"
  "http://www.w3.org/Graphics/SVG/1.1/DTD/svg11.dtd">
<svg xmlns:xlink="http://www.w3.org/1999/xlink" width="745.164pt" height="495.978561pt" viewBox="0 0 745.164 495.978561" xmlns="http://www.w3.org/2000/svg" version="1.1">
 <metadata>
  <rdf:RDF xmlns:dc="http://purl.org/dc/elements/1.1/" xmlns:cc="http://creativecommons.org/ns#" xmlns:rdf="http://www.w3.org/1999/02/22-rdf-syntax-ns#">
   <cc:Work>
    <dc:type rdf:resource="http://purl.org/dc/dcmitype/StillImage"/>
    <dc:date>2026-07-13T16:58:16.074819</dc:date>
    <dc:format>image/svg+xml</dc:format>
    <dc:creator>
     <cc:Agent>
      <dc:title>Matplotlib v3.10.8, https://matplotlib.org/</dc:title>
     </cc:Agent>
    </dc:creator>
   </cc:Work>
  </rdf:RDF>
 </metadata>
 <defs>
  <style type="text/css">*{stroke-linejoin: round; stroke-linecap: butt}</style>
 </defs>
 <g id="figure_1">
  <g id="patch_1">
   <path d="M 0 495.978561 
L 745.164 495.978561 
L 745.164 0 
L 0 0 
L 0 495.978561 
z
" style="fill: none"/>
  </g>
  <g id="axes_1">
   <g id="patch_2">
    <path d="M 120.350555 442.849057 
Q 120.350555 460.77627 120.350555 475.976153 
" clip-path="url(#p26635dbc6a)" style="fill: none; stroke: #111111; stroke-width: 2.439398; stroke-linejoin: miter; stroke-linecap: round"/>
    <path d="M 124.075162 468.526939 
L 120.350555 475.976153 
L 116.625948 468.526939 
z
" clip-path="url(#p26635dbc6a)" style="fill: #111111; stroke: #111111; stroke-width: 2.439398; stroke-linejoin: miter; stroke-linecap: round"/>
   </g>
   <g id="patch_3">
    <path d="M 120.350555 358.071117 
Q 120.350555 378.598321 120.350555 394.531611 
" clip-path="url(#p26635dbc6a)" style="fill: none; stroke: #111111; stroke-width: 4.108922; stroke-linejoin: miter; stroke-linecap: round"/>
    <path d="M 124.60941 386.013901 
L 120.350555 394.531611 
L 116.0917 386.013901 
z
" clip-path="url(#p26635dbc6a)" style="fill: #111111; stroke: #111111; stroke-width: 4.108922; stroke-linejoin: miter; stroke-linecap: round"/>
   </g>
   <g id="patch_4">
    <path d="M 120.350555 264.705545 
Q 120.350555 286.926574 120.350555 302.663006 
" clip-path="url(#p26635dbc6a)" style="fill: none; stroke: #111111; stroke-width: 5.8; stroke-linejoin: miter; stroke-linecap: round"/>
    <path d="M 125.150555 293.063006 
L 120.350555 302.663006 
L 115.550555 293.063006 
z
" clip-path="url(#p26635dbc6a)" style="fill: #111111; stroke: #111111; stroke-width: 5.8; stroke-linejoin: miter; stroke-linecap: round"/>
   </g>
   <g id="patch_5">
    <path d="M 370.224697 301.937064 
Q 370.224697 324.429898 370.224697 344.609463 
" clip-path="url(#p26635dbc6a)" style="fill: none; stroke: #111111; stroke-width: 2.069051; stroke-linejoin: miter; stroke-linecap: round"/>
    <path d="M 373.830793 337.397271 
L 370.224697 344.609463 
L 366.618601 337.397271 
z
" clip-path="url(#p26635dbc6a)" style="fill: #111111; stroke: #111111; stroke-width: 2.069051; stroke-linejoin: miter; stroke-linecap: round"/>
   </g>
   <g id="patch_6">
    <path d="M 370.224697 205.179522 
Q 370.224697 227.130906 370.224697 244.237988 
" clip-path="url(#p26635dbc6a)" style="fill: none; stroke: #111111; stroke-width: 4.332876; stroke-linejoin: miter; stroke-linecap: round"/>
    <path d="M 374.555217 235.576947 
L 370.224697 244.237988 
L 365.894176 235.576947 
z
" clip-path="url(#p26635dbc6a)" style="fill: #111111; stroke: #111111; stroke-width: 4.332876; stroke-linejoin: miter; stroke-linecap: round"/>
   </g>
   <g id="patch_7">
    <path d="M 370.224697 134.684223 
Q 370.224697 144.045936 370.224697 151.164819 
" clip-path="url(#p26635dbc6a)" style="fill: none; stroke: #111111; stroke-width: 2.006048; stroke-linejoin: miter; stroke-linecap: round"/>
    <path d="M 373.810632 143.992948 
L 370.224697 151.164819 
L 366.638761 143.992948 
z
" clip-path="url(#p26635dbc6a)" style="fill: #111111; stroke: #111111; stroke-width: 2.006048; stroke-linejoin: miter; stroke-linecap: round"/>
   </g>
   <g id="patch_8">
    <path d="M 586.153672 234.615581 
Q 586.153672 263.758493 586.153672 289.622254 
" clip-path="url(#p26635dbc6a)" style="fill: none; stroke: #111111; stroke-width: 2.932963; stroke-linejoin: miter; stroke-linecap: round"/>
    <path d="M 590.03622 281.857157 
L 586.153672 289.622254 
L 582.271124 281.857157 
z
" clip-path="url(#p26635dbc6a)" style="fill: #111111; stroke: #111111; stroke-width: 2.932963; stroke-linejoin: miter; stroke-linecap: round"/>
   </g>
   <g id="line2d_1">
    <path d="M 165.610777 478.703483 
L 550.322663 478.703483 
" clip-path="url(#p26635dbc6a)" style="fill: none; stroke-dasharray: 5.6,4.2; stroke-dashoffset: 0; stroke: #404040; stroke-width: 1.4"/>
   </g>
   <g id="line2d_2">
    <path d="M 165.610777 399.125525 
L 550.322663 399.125525 
" clip-path="url(#p26635dbc6a)" style="fill: none; stroke-dasharray: 5.6,4.2; stroke-dashoffset: 0; stroke: #404040; stroke-width: 1.4"/>
   </g>
   <g id="line2d_3">
    <path d="M 415.484919 346.922732 
L 560.694797 346.922732 
" clip-path="url(#p26635dbc6a)" style="fill: none; stroke-dasharray: 5.6,4.2; stroke-dashoffset: 0; stroke: #404040; stroke-width: 1.4"/>
   </g>
   <g id="patch_9">
    <path d="M 665.359061 292.901406 
Q 589.926682 383.496079 515.213709 473.226741 
" clip-path="url(#p26635dbc6a)" style="fill: none; stroke: #404040; stroke-width: 1.005608; stroke-linejoin: miter; stroke-linecap: round"/>
    <path d="M 521.089104 470.653373 
L 515.213709 473.226741 
L 516.680252 466.982404 
z
" clip-path="url(#p26635dbc6a)" style="fill: #404040; stroke: #404040; stroke-width: 1.005608; stroke-linejoin: miter; stroke-linecap: round"/>
   </g>
   <g id="patch_10">
    <path d="M 620.098839 292.901406 
Q 577.796281 343.706994 537.349405 392.283899 
" clip-path="url(#p26635dbc6a)" style="fill: none; stroke: #404040; stroke-width: 2.593928; stroke-linejoin: miter; stroke-linecap: round"/>
    <path d="M 544.309211 389.23557 
L 537.349405 392.283899 
L 539.086625 384.887057 
z
" clip-path="url(#p26635dbc6a)" style="fill: #404040; stroke: #404040; stroke-width: 2.593928; stroke-linejoin: miter; stroke-linecap: round"/>
   </g>
   <g id="patch_11">
    <path d="M 574.838617 292.901406 
Q 541.862773 318.09119 510.248568 342.240838 
" clip-path="url(#p26635dbc6a)" style="fill: none; stroke: #404040; stroke-width: 1.532564; stroke-linejoin: miter; stroke-linecap: round"/>
    <path d="M 516.934771 340.964089 
L 510.248568 342.240838 
L 513.23889 336.125826 
z
" clip-path="url(#p26635dbc6a)" style="fill: #404040; stroke: #404040; stroke-width: 1.532564; stroke-linejoin: miter; stroke-linecap: round"/>
   </g>
   <g id="patch_12">
    <path d="M 370.224697 346.922732 
Q 335.159909 371.310746 303.517987 393.318114 
" clip-path="url(#p26635dbc6a)" style="fill: none; stroke: #404040; stroke-width: 3.729181; stroke-linejoin: miter; stroke-linecap: round"/>
    <path d="M 311.874787 392.10583 
L 303.517987 393.318114 
L 307.56224 385.905303 
z
" clip-path="url(#p26635dbc6a)" style="fill: #404040; stroke: #404040; stroke-width: 3.729181; stroke-linejoin: miter; stroke-linecap: round"/>
   </g>
   <g id="line2d_4">
    <path d="M 120.350555 399.125525 
L 120.350555 434.979951 
" clip-path="url(#p26635dbc6a)" style="fill: none; stroke: #111111; stroke-width: 2.439398"/>
   </g>
   <g id="line2d_5">
    <path d="M 120.350555 309.147603 
L 120.350555 350.202011 
" clip-path="url(#p26635dbc6a)" style="fill: none; stroke: #111111; stroke-width: 4.108922"/>
   </g>
   <g id="line2d_6">
    <path d="M 120.350555 212.394381 
L 120.350555 256.836439 
" clip-path="url(#p26635dbc6a)" style="fill: none; stroke: #111111; stroke-width: 5.8"/>
   </g>
   <g id="line2d_7">
    <path d="M 370.224697 249.08229 
L 370.224697 294.067958 
" clip-path="url(#p26635dbc6a)" style="fill: none; stroke: #111111; stroke-width: 2.069051"/>
   </g>
   <g id="line2d_8">
    <path d="M 370.224697 153.407649 
L 370.224697 197.310417 
" clip-path="url(#p26635dbc6a)" style="fill: none; stroke: #111111; stroke-width: 4.332876"/>
   </g>
   <g id="line2d_9">
    <path d="M 370.224697 108.091692 
L 370.224697 126.815118 
" clip-path="url(#p26635dbc6a)" style="fill: none; stroke: #111111; stroke-width: 2.006048"/>
   </g>
   <g id="line2d_10">
    <path d="M 586.153672 168.46065 
L 586.153672 226.746475 
" clip-path="url(#p26635dbc6a)" style="fill: none; stroke: #111111; stroke-width: 2.932963"/>
   </g>
   <g id="line2d_11">
    <path d="M 75.090333 478.703483 
L 165.610777 478.703483 
" clip-path="url(#p26635dbc6a)" style="fill: none; stroke: #111111; stroke-width: 3.6; stroke-linecap: round"/>
   </g>
   <g id="line2d_12">
    <path d="M 75.090333 399.125525 
L 165.610777 399.125525 
" clip-path="url(#p26635dbc6a)" style="fill: none; stroke: #111111; stroke-width: 3.6; stroke-linecap: round"/>
   </g>
   <g id="line2d_13">
    <path d="M 75.090333 309.147603 
L 165.610777 309.147603 
" clip-path="url(#p26635dbc6a)" style="fill: none; stroke: #111111; stroke-width: 3.6; stroke-linecap: round"/>
   </g>
   <g id="line2d_14">
    <path d="M 75.090333 212.394381 
L 165.610777 212.394381 
" clip-path="url(#p26635dbc6a)" style="fill: none; stroke: #111111; stroke-width: 3.6; stroke-linecap: round"/>
   </g>
   <g id="line2d_15">
    <path d="M 324.964475 346.922732 
L 415.484919 346.922732 
" clip-path="url(#p26635dbc6a)" style="fill: none; stroke: #111111; stroke-width: 3.6; stroke-linecap: round"/>
   </g>
   <g id="line2d_16">
    <path d="M 324.964475 249.08229 
L 415.484919 249.08229 
" clip-path="url(#p26635dbc6a)" style="fill: none; stroke: #111111; stroke-width: 3.6; stroke-linecap: round"/>
   </g>
   <g id="line2d_17">
    <path d="M 324.964475 153.407649 
L 415.484919 153.407649 
" clip-path="url(#p26635dbc6a)" style="fill: none; stroke: #111111; stroke-width: 3.6; stroke-linecap: round"/>
   </g>
   <g id="line2d_18">
    <path d="M 324.964475 108.091692 
L 415.484919 108.091692 
" clip-path="url(#p26635dbc6a)" style="fill: none; stroke: #111111; stroke-width: 3.6; stroke-linecap: round"/>
   </g>
   <g id="line2d_19">
    <path d="M 574.838617 292.901406 
L 665.359061 292.901406 
" clip-path="url(#p26635dbc6a)" style="fill: none; stroke: #111111; stroke-width: 3.6; stroke-linecap: round"/>
   </g>
   <g id="line2d_20">
    <path d="M 574.838617 168.46065 
L 665.359061 168.46065 
" clip-path="url(#p26635dbc6a)" style="fill: none; stroke: #111111; stroke-width: 3.6; stroke-linecap: round"/>
   </g>
   <g id="text_1">
    <!-- $^{276}\mathrm{Cf}$ -->
    <g transform="translate(331.272 33.034687) scale(0.34 -0.34)">
     <defs>
      <path id="DejaVuSans-32" d="M 1228 531 
L 3431 531 
L 3431 0 
L 469 0 
L 469 531 
Q 828 903 1448 1529 
Q 2069 2156 2228 2338 
Q 2531 2678 2651 2914 
Q 2772 3150 2772 3378 
Q 2772 3750 2511 3984 
Q 2250 4219 1831 4219 
Q 1534 4219 1204 4116 
Q 875 4013 500 3803 
L 500 4441 
Q 881 4594 1212 4672 
Q 1544 4750 1819 4750 
Q 2544 4750 2975 4387 
Q 3406 4025 3406 3419 
Q 3406 3131 3298 2873 
Q 3191 2616 2906 2266 
Q 2828 2175 2409 1742 
Q 1991 1309 1228 531 
z
" transform="scale(0.015625)"/>
      <path id="DejaVuSans-37" d="M 525 4666 
L 3525 4666 
L 3525 4397 
L 1831 0 
L 1172 0 
L 2766 4134 
L 525 4134 
L 525 4666 
z
" transform="scale(0.015625)"/>
      <path id="DejaVuSans-36" d="M 2113 2584 
Q 1688 2584 1439 2293 
Q 1191 2003 1191 1497 
Q 1191 994 1439 701 
Q 1688 409 2113 409 
Q 2538 409 2786 701 
Q 3034 994 3034 1497 
Q 3034 2003 2786 2293 
Q 2538 2584 2113 2584 
z
M 3366 4563 
L 3366 3988 
Q 3128 4100 2886 4159 
Q 2644 4219 2406 4219 
Q 1781 4219 1451 3797 
Q 1122 3375 1075 2522 
Q 1259 2794 1537 2939 
Q 1816 3084 2150 3084 
Q 2853 3084 3261 2657 
Q 3669 2231 3669 1497 
Q 3669 778 3244 343 
Q 2819 -91 2113 -91 
Q 1303 -91 875 529 
Q 447 1150 447 2328 
Q 447 3434 972 4092 
Q 1497 4750 2381 4750 
Q 2619 4750 2861 4703 
Q 3103 4656 3366 4563 
z
" transform="scale(0.015625)"/>
      <path id="DejaVuSans-43" d="M 4122 4306 
L 4122 3641 
Q 3803 3938 3442 4084 
Q 3081 4231 2675 4231 
Q 1875 4231 1450 3742 
Q 1025 3253 1025 2328 
Q 1025 1406 1450 917 
Q 1875 428 2675 428 
Q 3081 428 3442 575 
Q 3803 722 4122 1019 
L 4122 359 
Q 3791 134 3420 21 
Q 3050 -91 2638 -91 
Q 1578 -91 968 557 
Q 359 1206 359 2328 
Q 359 3453 968 4101 
Q 1578 4750 2638 4750 
Q 3056 4750 3426 4639 
Q 3797 4528 4122 4306 
z
" transform="scale(0.015625)"/>
      <path id="DejaVuSans-66" d="M 2375 4863 
L 2375 4384 
L 1825 4384 
Q 1516 4384 1395 4259 
Q 1275 4134 1275 3809 
L 1275 3500 
L 2222 3500 
L 2222 3053 
L 1275 3053 
L 1275 0 
L 697 0 
L 697 3053 
L 147 3053 
L 147 3500 
L 697 3500 
L 697 3744 
Q 697 4328 969 4595 
Q 1241 4863 1831 4863 
L 2375 4863 
z
" transform="scale(0.015625)"/>
     </defs>
     <use xlink:href="#DejaVuSans-32" transform="translate(0.957031 39.046875) scale(0.7)"/>
     <use xlink:href="#DejaVuSans-37" transform="translate(45.493164 39.046875) scale(0.7)"/>
     <use xlink:href="#DejaVuSans-36" transform="translate(90.029297 39.046875) scale(0.7)"/>
     <use xlink:href="#DejaVuSans-43" transform="translate(137.299805 0.765625)"/>
     <use xlink:href="#DejaVuSans-66" transform="translate(207.124023 0.765625)"/>
    </g>
   </g>
   <g id="text_2">
    <!-- 0 -->
    <g transform="translate(46.98525 483.118483) scale(0.16 -0.16)">
     <defs>
      <path id="DejaVuSans-BoldOblique-30" d="M 1913 728 
Q 2153 728 2339 872 
Q 2525 1016 2650 1294 
Q 2738 1491 2809 1742 
Q 2881 1994 2944 2338 
Q 2997 2616 3025 2850 
Q 3053 3084 3053 3250 
Q 3053 3600 2928 3764 
Q 2803 3928 2541 3928 
Q 2297 3928 2112 3789 
Q 1928 3650 1806 3366 
Q 1713 3163 1636 2903 
Q 1559 2644 1503 2338 
Q 1450 2056 1422 1815 
Q 1394 1575 1394 1409 
Q 1394 1063 1522 895 
Q 1650 728 1913 728 
z
M 4225 3072 
Q 4225 2450 4053 1862 
Q 3881 1275 3572 831 
Q 3256 375 2809 142 
Q 2363 -91 1813 -91 
Q 1047 -91 639 343 
Q 231 778 231 1594 
Q 231 2206 401 2795 
Q 572 3384 878 3822 
Q 1200 4281 1644 4515 
Q 2088 4750 2644 4750 
Q 3403 4750 3814 4314 
Q 4225 3878 4225 3072 
z
" transform="scale(0.015625)"/>
     </defs>
     <use xlink:href="#DejaVuSans-BoldOblique-30"/>
    </g>
   </g>
   <g id="text_3">
    <!-- 0⁺ -->
    <g transform="translate(182.58336 483.858717) scale(0.23 -0.23)">
     <defs>
      <path id="TimesNewRomanPS-BoldMT-30" d="M 2966 2119 
Q 2966 1484 2788 934 
Q 2681 597 2501 381 
Q 2322 166 2094 39 
Q 1866 -88 1597 -88 
Q 1291 -88 1044 68 
Q 797 225 606 516 
Q 469 728 366 1081 
Q 231 1559 231 2069 
Q 231 2759 425 3338 
Q 584 3816 909 4070 
Q 1234 4325 1597 4325 
Q 1966 4325 2286 4073 
Q 2606 3822 2756 3397 
Q 2966 2813 2966 2119 
z
M 2003 2125 
Q 2003 3238 1991 3422 
Q 1959 3856 1841 4009 
Q 1763 4109 1588 4109 
Q 1453 4109 1375 4034 
Q 1259 3925 1218 3648 
Q 1178 3372 1178 1719 
Q 1178 819 1241 513 
Q 1288 291 1375 216 
Q 1463 141 1606 141 
Q 1763 141 1841 241 
Q 1972 416 1991 781 
L 2003 2125 
z
" transform="scale(0.015625)"/>
      <path id="DejaVuSerif-Bold-207a" d="M 1916 4344 
L 1916 3441 
L 2950 3441 
L 2950 3044 
L 1916 3044 
L 1916 2141 
L 1463 2141 
L 1463 3044 
L 428 3044 
L 428 3441 
L 1463 3441 
L 1463 4344 
L 1916 4344 
z
" transform="scale(0.015625)"/>
     </defs>
     <use xlink:href="#TimesNewRomanPS-BoldMT-30"/>
     <use xlink:href="#DejaVuSerif-Bold-207a" transform="translate(50 0)"/>
    </g>
   </g>
   <g id="text_4">
    <!-- 930 -->
    <g transform="translate(24.72025 403.540525) scale(0.16 -0.16)">
     <defs>
      <path id="DejaVuSans-BoldOblique-39" d="M 263 103 
L 428 966 
Q 700 825 953 758 
Q 1206 691 1459 691 
Q 2041 691 2400 1003 
Q 2759 1316 2834 1881 
Q 2594 1722 2337 1645 
Q 2081 1569 1791 1569 
Q 1219 1569 853 1909 
Q 488 2250 488 2778 
Q 488 3641 1052 4192 
Q 1616 4744 2503 4744 
Q 3300 4744 3736 4292 
Q 4172 3841 4172 3016 
Q 4172 2381 3978 1801 
Q 3784 1222 3431 800 
Q 3056 353 2548 128 
Q 2041 -97 1403 -97 
Q 1106 -97 825 -47 
Q 544 3 263 103 
z
M 2169 2344 
Q 2525 2344 2753 2637 
Q 2981 2931 2981 3391 
Q 2981 3675 2845 3828 
Q 2709 3981 2456 3981 
Q 2103 3981 1870 3690 
Q 1638 3400 1638 2963 
Q 1638 2663 1775 2503 
Q 1913 2344 2169 2344 
z
" transform="scale(0.015625)"/>
      <path id="DejaVuSans-BoldOblique-33" d="M 3022 2516 
Q 3375 2434 3572 2187 
Q 3769 1941 3769 1581 
Q 3769 806 3155 357 
Q 2541 -91 1466 -91 
Q 1059 -91 692 -33 
Q 325 25 0 141 
L 178 1069 
Q 456 906 784 817 
Q 1113 728 1441 728 
Q 1969 728 2276 926 
Q 2584 1125 2584 1459 
Q 2584 1738 2350 1877 
Q 2116 2016 1644 2016 
L 1166 2016 
L 1319 2791 
L 1825 2791 
Q 2316 2791 2602 2969 
Q 2888 3147 2888 3450 
Q 2888 3688 2689 3813 
Q 2491 3938 2113 3938 
Q 1847 3938 1534 3869 
Q 1222 3800 884 3669 
L 1056 4550 
Q 1425 4650 1783 4700 
Q 2141 4750 2491 4750 
Q 3281 4750 3679 4487 
Q 4078 4225 4078 3706 
Q 4078 3241 3801 2930 
Q 3525 2619 3022 2516 
z
" transform="scale(0.015625)"/>
     </defs>
     <use xlink:href="#DejaVuSans-BoldOblique-39"/>
     <use xlink:href="#DejaVuSans-BoldOblique-33" transform="translate(69.580078 0)"/>
     <use xlink:href="#DejaVuSans-BoldOblique-30" transform="translate(139.160156 0)"/>
    </g>
   </g>
   <g id="text_5">
    <!-- 2⁺ -->
    <g transform="translate(182.58336 404.280759) scale(0.23 -0.23)">
     <defs>
      <path id="TimesNewRomanPS-BoldMT-32" d="M 2650 0 
L 156 0 
L 156 69 
Q 1303 1434 1548 1906 
Q 1794 2378 1794 2828 
Q 1794 3156 1591 3373 
Q 1388 3591 1094 3591 
Q 613 3591 347 3109 
L 231 3150 
Q 400 3750 744 4037 
Q 1088 4325 1538 4325 
Q 1859 4325 2125 4175 
Q 2391 4025 2541 3764 
Q 2691 3503 2691 3275 
Q 2691 2859 2459 2431 
Q 2144 1853 1081 819 
L 1997 819 
Q 2334 819 2436 847 
Q 2538 875 2603 942 
Q 2669 1009 2775 1225 
L 2888 1225 
L 2650 0 
z
" transform="scale(0.015625)"/>
     </defs>
     <use xlink:href="#TimesNewRomanPS-BoldMT-32"/>
     <use xlink:href="#DejaVuSerif-Bold-207a" transform="translate(50 0)"/>
    </g>
   </g>
   <g id="text_6">
    <!-- 1982 -->
    <g transform="translate(13.58775 313.562603) scale(0.16 -0.16)">
     <defs>
      <path id="DejaVuSans-BoldOblique-31" d="M 441 831 
L 1503 831 
L 2088 3847 
L 953 3622 
L 1113 4441 
L 2241 4666 
L 3384 4666 
L 2644 831 
L 3700 831 
L 3541 0 
L 275 0 
L 441 831 
z
" transform="scale(0.015625)"/>
      <path id="DejaVuSans-BoldOblique-38" d="M 2150 2088 
Q 1784 2088 1539 1839 
Q 1294 1591 1294 1228 
Q 1294 969 1453 817 
Q 1613 666 1888 666 
Q 2259 666 2503 911 
Q 2747 1156 2747 1522 
Q 2747 1781 2586 1934 
Q 2425 2088 2150 2088 
z
M 1381 2484 
Q 1044 2625 876 2850 
Q 709 3075 709 3391 
Q 709 4025 1229 4387 
Q 1750 4750 2669 4750 
Q 3406 4750 3812 4475 
Q 4219 4200 4219 3700 
Q 4219 3256 3936 2940 
Q 3653 2625 3128 2484 
Q 3509 2338 3690 2091 
Q 3872 1844 3872 1466 
Q 3872 747 3311 328 
Q 2750 -91 1772 -91 
Q 1000 -91 570 217 
Q 141 525 141 1075 
Q 141 1572 470 1945 
Q 800 2319 1381 2484 
z
M 2559 3994 
Q 2241 3994 2048 3808 
Q 1856 3622 1856 3316 
Q 1856 3103 1995 2972 
Q 2134 2841 2363 2841 
Q 2681 2841 2873 3027 
Q 3066 3213 3066 3519 
Q 3066 3734 2927 3864 
Q 2788 3994 2559 3994 
z
" transform="scale(0.015625)"/>
      <path id="DejaVuSans-BoldOblique-32" d="M 1581 884 
L 3609 884 
L 3438 0 
L 50 0 
L 225 891 
L 2209 2388 
Q 2534 2638 2704 2894 
Q 2875 3150 2875 3391 
Q 2875 3647 2700 3787 
Q 2525 3928 2209 3928 
Q 1913 3928 1547 3811 
Q 1181 3694 722 3450 
L 922 4441 
Q 1347 4597 1756 4673 
Q 2166 4750 2566 4750 
Q 3278 4750 3687 4442 
Q 4097 4134 4097 3603 
Q 4097 3147 3847 2772 
Q 3597 2397 2747 1759 
L 1581 884 
z
" transform="scale(0.015625)"/>
     </defs>
     <use xlink:href="#DejaVuSans-BoldOblique-31"/>
     <use xlink:href="#DejaVuSans-BoldOblique-39" transform="translate(69.580078 0)"/>
     <use xlink:href="#DejaVuSans-BoldOblique-38" transform="translate(139.160156 0)"/>
     <use xlink:href="#DejaVuSans-BoldOblique-32" transform="translate(208.740234 0)"/>
    </g>
   </g>
   <g id="text_7">
    <!-- 4⁺ -->
    <g transform="translate(182.58336 314.302837) scale(0.23 -0.23)">
     <defs>
      <path id="TimesNewRomanPS-BoldMT-34" d="M 159 1597 
L 2172 4325 
L 2553 4325 
L 2553 1597 
L 2941 1597 
L 2941 950 
L 2553 950 
L 2553 0 
L 1694 0 
L 1694 950 
L 159 950 
L 159 1597 
z
M 463 1597 
L 1694 1597 
L 1694 3269 
L 463 1597 
z
" transform="scale(0.015625)"/>
     </defs>
     <use xlink:href="#TimesNewRomanPS-BoldMT-34"/>
     <use xlink:href="#DejaVuSerif-Bold-207a" transform="translate(50 0)"/>
    </g>
   </g>
   <g id="text_8">
    <!-- 3113 -->
    <g transform="translate(13.58775 216.809381) scale(0.16 -0.16)">
     <use xlink:href="#DejaVuSans-BoldOblique-33"/>
     <use xlink:href="#DejaVuSans-BoldOblique-31" transform="translate(69.580078 0)"/>
     <use xlink:href="#DejaVuSans-BoldOblique-31" transform="translate(139.160156 0)"/>
     <use xlink:href="#DejaVuSans-BoldOblique-33" transform="translate(208.740234 0)"/>
    </g>
   </g>
   <g id="text_9">
    <!-- 6⁺ -->
    <g transform="translate(182.58336 217.549615) scale(0.23 -0.23)">
     <defs>
      <path id="TimesNewRomanPS-BoldMT-36" d="M 3006 4325 
L 3006 4238 
Q 2441 4094 2098 3867 
Q 1756 3641 1557 3317 
Q 1359 2994 1250 2516 
Q 1388 2609 1478 2638 
Q 1681 2700 1888 2700 
Q 2363 2700 2680 2354 
Q 2997 2009 2997 1413 
Q 2997 994 2825 644 
Q 2653 294 2337 103 
Q 2022 -88 1663 -88 
Q 1272 -88 940 126 
Q 609 341 423 753 
Q 238 1166 238 1650 
Q 238 2363 580 2977 
Q 922 3591 1551 3955 
Q 2181 4319 3006 4325 
z
M 1209 2263 
Q 1184 1831 1184 1631 
Q 1184 1200 1267 797 
Q 1350 394 1494 231 
Q 1597 116 1738 116 
Q 1881 116 1993 283 
Q 2106 450 2106 963 
Q 2106 1825 1897 2153 
Q 1763 2366 1534 2366 
Q 1409 2366 1209 2263 
z
" transform="scale(0.015625)"/>
     </defs>
     <use xlink:href="#TimesNewRomanPS-BoldMT-36"/>
     <use xlink:href="#DejaVuSerif-Bold-207a" transform="translate(50 0)"/>
    </g>
   </g>
   <g id="text_10">
    <!-- 1541 -->
    <g transform="translate(263.461892 351.337732) scale(0.16 -0.16)">
     <defs>
      <path id="DejaVuSans-BoldOblique-35" d="M 1131 4666 
L 4122 4666 
L 3950 3781 
L 1919 3781 
L 1778 3059 
Q 1916 3097 2064 3117 
Q 2213 3138 2363 3138 
Q 3078 3138 3481 2811 
Q 3884 2484 3884 1906 
Q 3884 988 3262 448 
Q 2641 -91 1575 -91 
Q 1184 -91 815 -14 
Q 447 63 84 219 
L 269 1166 
Q 616 941 942 834 
Q 1269 728 1606 728 
Q 2100 728 2397 986 
Q 2694 1244 2694 1663 
Q 2694 1963 2469 2139 
Q 2244 2316 1856 2316 
Q 1594 2316 1289 2248 
Q 984 2181 622 2041 
L 1131 4666 
z
" transform="scale(0.015625)"/>
      <path id="DejaVuSans-BoldOblique-34" d="M 2638 3641 
L 978 1722 
L 2259 1722 
L 2638 3641 
z
M 2606 4666 
L 3975 4666 
L 3397 1722 
L 4063 1722 
L 3897 850 
L 3231 850 
L 3066 0 
L 1925 0 
L 2094 850 
L -6 850 
L 197 1881 
L 2606 4666 
z
" transform="scale(0.015625)"/>
     </defs>
     <use xlink:href="#DejaVuSans-BoldOblique-31"/>
     <use xlink:href="#DejaVuSans-BoldOblique-35" transform="translate(69.580078 0)"/>
     <use xlink:href="#DejaVuSans-BoldOblique-34" transform="translate(139.160156 0)"/>
     <use xlink:href="#DejaVuSans-BoldOblique-31" transform="translate(208.740234 0)"/>
    </g>
   </g>
   <g id="text_11">
    <!-- 0⁺ -->
    <g transform="translate(432.457502 352.077967) scale(0.23 -0.23)">
     <use xlink:href="#TimesNewRomanPS-BoldMT-30"/>
     <use xlink:href="#DejaVuSerif-Bold-207a" transform="translate(50 0)"/>
    </g>
   </g>
   <g id="text_12">
    <!-- 2685 -->
    <g transform="translate(263.461892 253.49729) scale(0.16 -0.16)">
     <defs>
      <path id="DejaVuSans-BoldOblique-36" d="M 2316 2303 
Q 1959 2303 1731 2009 
Q 1503 1716 1503 1253 
Q 1503 975 1643 820 
Q 1784 666 2034 666 
Q 2388 666 2617 955 
Q 2847 1244 2847 1684 
Q 2847 1984 2709 2143 
Q 2572 2303 2316 2303 
z
M 4225 4544 
L 4056 3681 
Q 3788 3819 3534 3887 
Q 3281 3956 3028 3956 
Q 2447 3956 2087 3643 
Q 1728 3331 1650 2766 
Q 1894 2925 2151 3001 
Q 2409 3078 2700 3078 
Q 3275 3078 3640 2737 
Q 4006 2397 4006 1869 
Q 4006 1006 3442 454 
Q 2878 -97 1991 -97 
Q 1194 -97 756 354 
Q 319 806 319 1631 
Q 319 2269 512 2848 
Q 706 3428 1056 3847 
Q 1431 4294 1942 4519 
Q 2453 4744 3091 4744 
Q 3384 4744 3662 4694 
Q 3941 4644 4225 4544 
z
" transform="scale(0.015625)"/>
     </defs>
     <use xlink:href="#DejaVuSans-BoldOblique-32"/>
     <use xlink:href="#DejaVuSans-BoldOblique-36" transform="translate(69.580078 0)"/>
     <use xlink:href="#DejaVuSans-BoldOblique-38" transform="translate(139.160156 0)"/>
     <use xlink:href="#DejaVuSans-BoldOblique-35" transform="translate(208.740234 0)"/>
    </g>
   </g>
   <g id="text_13">
    <!-- 2⁺ -->
    <g transform="translate(432.457502 254.237525) scale(0.23 -0.23)">
     <use xlink:href="#TimesNewRomanPS-BoldMT-32"/>
     <use xlink:href="#DejaVuSerif-Bold-207a" transform="translate(50 0)"/>
    </g>
   </g>
   <g id="text_14">
    <!-- 3803 -->
    <g transform="translate(263.461892 157.822649) scale(0.16 -0.16)">
     <use xlink:href="#DejaVuSans-BoldOblique-33"/>
     <use xlink:href="#DejaVuSans-BoldOblique-38" transform="translate(69.580078 0)"/>
     <use xlink:href="#DejaVuSans-BoldOblique-30" transform="translate(139.160156 0)"/>
     <use xlink:href="#DejaVuSans-BoldOblique-33" transform="translate(208.740234 0)"/>
    </g>
   </g>
   <g id="text_15">
    <!-- 4⁺ -->
    <g transform="translate(432.457502 158.562883) scale(0.23 -0.23)">
     <use xlink:href="#TimesNewRomanPS-BoldMT-34"/>
     <use xlink:href="#DejaVuSerif-Bold-207a" transform="translate(50 0)"/>
    </g>
   </g>
   <g id="text_16">
    <!-- 4333 -->
    <g transform="translate(263.461892 112.506692) scale(0.16 -0.16)">
     <use xlink:href="#DejaVuSans-BoldOblique-34"/>
     <use xlink:href="#DejaVuSans-BoldOblique-33" transform="translate(69.580078 0)"/>
     <use xlink:href="#DejaVuSans-BoldOblique-33" transform="translate(139.160156 0)"/>
     <use xlink:href="#DejaVuSans-BoldOblique-33" transform="translate(208.740234 0)"/>
    </g>
   </g>
   <g id="text_17">
    <!-- 6⁺ -->
    <g transform="translate(432.457502 113.246927) scale(0.23 -0.23)">
     <use xlink:href="#TimesNewRomanPS-BoldMT-36"/>
     <use xlink:href="#DejaVuSerif-Bold-207a" transform="translate(50 0)"/>
    </g>
   </g>
   <g id="text_18">
    <!-- 2172 -->
    <g transform="translate(513.336034 297.316406) scale(0.16 -0.16)">
     <defs>
      <path id="DejaVuSans-BoldOblique-37" d="M 922 4666 
L 4441 4666 
L 4300 3981 
L 1703 0 
L 500 0 
L 2969 3781 
L 756 3781 
L 922 4666 
z
" transform="scale(0.015625)"/>
     </defs>
     <use xlink:href="#DejaVuSans-BoldOblique-32"/>
     <use xlink:href="#DejaVuSans-BoldOblique-31" transform="translate(69.580078 0)"/>
     <use xlink:href="#DejaVuSans-BoldOblique-37" transform="translate(139.160156 0)"/>
     <use xlink:href="#DejaVuSans-BoldOblique-32" transform="translate(208.740234 0)"/>
    </g>
   </g>
   <g id="text_19">
    <!-- 2⁺ -->
    <g transform="translate(682.331644 298.056641) scale(0.23 -0.23)">
     <use xlink:href="#TimesNewRomanPS-BoldMT-32"/>
     <use xlink:href="#DejaVuSerif-Bold-207a" transform="translate(50 0)"/>
    </g>
   </g>
   <g id="text_20">
    <!-- 3627 -->
    <g transform="translate(513.336034 172.87565) scale(0.16 -0.16)">
     <use xlink:href="#DejaVuSans-BoldOblique-33"/>
     <use xlink:href="#DejaVuSans-BoldOblique-36" transform="translate(69.580078 0)"/>
     <use xlink:href="#DejaVuSans-BoldOblique-32" transform="translate(139.160156 0)"/>
     <use xlink:href="#DejaVuSans-BoldOblique-37" transform="translate(208.740234 0)"/>
    </g>
   </g>
   <g id="text_21">
    <!-- 3⁺ -->
    <g transform="translate(682.331644 173.615884) scale(0.23 -0.23)">
     <defs>
      <path id="TimesNewRomanPS-BoldMT-33" d="M 947 2125 
L 947 2234 
Q 1303 2338 1440 2427 
Q 1578 2516 1678 2698 
Q 1778 2881 1778 3069 
Q 1778 3328 1589 3514 
Q 1400 3700 1119 3700 
Q 681 3700 375 3238 
L 259 3278 
Q 484 3800 836 4062 
Q 1188 4325 1619 4325 
Q 2059 4325 2345 4056 
Q 2631 3788 2631 3428 
Q 2631 3194 2498 2976 
Q 2366 2759 2081 2594 
Q 2447 2416 2639 2155 
Q 2831 1894 2831 1500 
Q 2831 838 2351 373 
Q 1872 -91 1066 -91 
Q 528 -91 281 88 
Q 103 213 103 409 
Q 103 553 206 654 
Q 309 756 444 756 
Q 547 756 638 713 
Q 688 688 992 439 
Q 1297 191 1563 191 
Q 1794 191 1959 373 
Q 2125 556 2125 838 
Q 2125 1266 1825 1627 
Q 1525 1988 947 2125 
z
" transform="scale(0.015625)"/>
     </defs>
     <use xlink:href="#TimesNewRomanPS-BoldMT-33"/>
     <use xlink:href="#DejaVuSerif-Bold-207a" transform="translate(50 0)"/>
    </g>
   </g>
   <g id="text_22">
    <path d="M 112.975555 442.500754 
L 106.740555 442.500754 
L 106.740555 442.328254 
Q 109.608055 438.915754 110.220555 437.735754 
Q 110.835555 436.555754 110.835555 435.430754 
Q 110.835555 434.610754 110.328055 434.068254 
Q 109.820555 433.523254 109.085555 433.523254 
Q 107.883055 433.523254 107.218055 434.728254 
L 106.928055 434.625754 
Q 107.350555 433.125754 108.210555 432.408254 
Q 109.070555 431.688254 110.195555 431.688254 
Q 110.998055 431.688254 111.663055 432.063254 
Q 112.328055 432.438254 112.703055 433.090754 
Q 113.078055 433.743254 113.078055 434.313254 
Q 113.078055 435.353254 112.498055 436.423254 
Q 111.710555 437.868254 109.053055 440.453254 
L 111.343055 440.453254 
Q 112.185555 440.453254 112.440555 440.383254 
Q 112.695555 440.313254 112.858055 440.145754 
Q 113.023055 439.978254 113.288055 439.438254 
L 113.570555 439.438254 
L 112.975555 442.500754 
z
M 120.975555 442.500754 
L 114.740555 442.500754 
L 114.740555 442.328254 
Q 117.608055 438.915754 118.220555 437.735754 
Q 118.835555 436.555754 118.835555 435.430754 
Q 118.835555 434.610754 118.328055 434.068254 
Q 117.820555 433.523254 117.085555 433.523254 
Q 115.883055 433.523254 115.218055 434.728254 
L 114.928055 434.625754 
Q 115.350555 433.125754 116.210555 432.408254 
Q 117.070555 431.688254 118.195555 431.688254 
Q 118.998055 431.688254 119.663055 432.063254 
Q 120.328055 432.438254 120.703055 433.090754 
Q 121.078055 433.743254 121.078055 434.313254 
Q 121.078055 435.353254 120.498055 436.423254 
Q 119.710555 437.868254 117.053055 440.453254 
L 119.343055 440.453254 
Q 120.185555 440.453254 120.440555 440.383254 
Q 120.695555 440.313254 120.858055 440.145754 
Q 121.023055 439.978254 121.288055 439.438254 
L 121.570555 439.438254 
L 120.975555 442.500754 
z
M 124.350555 440.093254 
Q 124.898055 440.093254 125.275555 440.478254 
Q 125.655555 440.860754 125.655555 441.398254 
Q 125.655555 441.938254 125.273055 442.318254 
Q 124.890555 442.695754 124.350555 442.695754 
Q 123.810555 442.695754 123.430555 442.318254 
Q 123.053055 441.938254 123.053055 441.398254 
Q 123.053055 440.860754 123.430555 440.478254 
Q 123.810555 440.093254 124.350555 440.093254 
z
M 132.975555 442.500754 
L 126.740555 442.500754 
L 126.740555 442.328254 
Q 129.608055 438.915754 130.220555 437.735754 
Q 130.835555 436.555754 130.835555 435.430754 
Q 130.835555 434.610754 130.328055 434.068254 
Q 129.820555 433.523254 129.085555 433.523254 
Q 127.883055 433.523254 127.218055 434.728254 
L 126.928055 434.625754 
Q 127.350555 433.125754 128.210555 432.408254 
Q 129.070555 431.688254 130.195555 431.688254 
Q 130.998055 431.688254 131.663055 432.063254 
Q 132.328055 432.438254 132.703055 433.090754 
Q 133.078055 433.743254 133.078055 434.313254 
Q 133.078055 435.353254 132.498055 436.423254 
Q 131.710555 437.868254 129.053055 440.453254 
L 131.343055 440.453254 
Q 132.185555 440.453254 132.440555 440.383254 
Q 132.695555 440.313254 132.858055 440.145754 
Q 133.023055 439.978254 133.288055 439.438254 
L 133.570555 439.438254 
L 132.975555 442.500754 
z
" style="stroke: #ffffff; stroke-width: 3.8"/>
    <path d="M 112.975555 442.500754 
L 106.740555 442.500754 
L 106.740555 442.328254 
Q 109.608055 438.915754 110.220555 437.735754 
Q 110.835555 436.555754 110.835555 435.430754 
Q 110.835555 434.610754 110.328055 434.068254 
Q 109.820555 433.523254 109.085555 433.523254 
Q 107.883055 433.523254 107.218055 434.728254 
L 106.928055 434.625754 
Q 107.350555 433.125754 108.210555 432.408254 
Q 109.070555 431.688254 110.195555 431.688254 
Q 110.998055 431.688254 111.663055 432.063254 
Q 112.328055 432.438254 112.703055 433.090754 
Q 113.078055 433.743254 113.078055 434.313254 
Q 113.078055 435.353254 112.498055 436.423254 
Q 111.710555 437.868254 109.053055 440.453254 
L 111.343055 440.453254 
Q 112.185555 440.453254 112.440555 440.383254 
Q 112.695555 440.313254 112.858055 440.145754 
Q 113.023055 439.978254 113.288055 439.438254 
L 113.570555 439.438254 
L 112.975555 442.500754 
z
M 120.975555 442.500754 
L 114.740555 442.500754 
L 114.740555 442.328254 
Q 117.608055 438.915754 118.220555 437.735754 
Q 118.835555 436.555754 118.835555 435.430754 
Q 118.835555 434.610754 118.328055 434.068254 
Q 117.820555 433.523254 117.085555 433.523254 
Q 115.883055 433.523254 115.218055 434.728254 
L 114.928055 434.625754 
Q 115.350555 433.125754 116.210555 432.408254 
Q 117.070555 431.688254 118.195555 431.688254 
Q 118.998055 431.688254 119.663055 432.063254 
Q 120.328055 432.438254 120.703055 433.090754 
Q 121.078055 433.743254 121.078055 434.313254 
Q 121.078055 435.353254 120.498055 436.423254 
Q 119.710555 437.868254 117.053055 440.453254 
L 119.343055 440.453254 
Q 120.185555 440.453254 120.440555 440.383254 
Q 120.695555 440.313254 120.858055 440.145754 
Q 121.023055 439.978254 121.288055 439.438254 
L 121.570555 439.438254 
L 120.975555 442.500754 
z
M 124.350555 440.093254 
Q 124.898055 440.093254 125.275555 440.478254 
Q 125.655555 440.860754 125.655555 441.398254 
Q 125.655555 441.938254 125.273055 442.318254 
Q 124.890555 442.695754 124.350555 442.695754 
Q 123.810555 442.695754 123.430555 442.318254 
Q 123.053055 441.938254 123.053055 441.398254 
Q 123.053055 440.860754 123.430555 440.478254 
Q 123.810555 440.093254 124.350555 440.093254 
z
M 132.975555 442.500754 
L 126.740555 442.500754 
L 126.740555 442.328254 
Q 129.608055 438.915754 130.220555 437.735754 
Q 130.835555 436.555754 130.835555 435.430754 
Q 130.835555 434.610754 130.328055 434.068254 
Q 129.820555 433.523254 129.085555 433.523254 
Q 127.883055 433.523254 127.218055 434.728254 
L 126.928055 434.625754 
Q 127.350555 433.125754 128.210555 432.408254 
Q 129.070555 431.688254 130.195555 431.688254 
Q 130.998055 431.688254 131.663055 432.063254 
Q 132.328055 432.438254 132.703055 433.090754 
Q 133.078055 433.743254 133.078055 434.313254 
Q 133.078055 435.353254 132.498055 436.423254 
Q 131.710555 437.868254 129.053055 440.453254 
L 131.343055 440.453254 
Q 132.185555 440.453254 132.440555 440.383254 
Q 132.695555 440.313254 132.858055 440.145754 
Q 133.023055 439.978254 133.288055 439.438254 
L 133.570555 439.438254 
L 132.975555 442.500754 
z
"/>
   </g>
   <g id="text_23">
    <path d="M 106.748055 353.730314 
L 111.780555 346.910314 
L 112.733055 346.910314 
L 112.733055 353.730314 
L 113.703055 353.730314 
L 113.703055 355.347814 
L 112.733055 355.347814 
L 112.733055 357.722814 
L 110.585555 357.722814 
L 110.585555 355.347814 
L 106.748055 355.347814 
L 106.748055 353.730314 
z
M 107.508055 353.730314 
L 110.585555 353.730314 
L 110.585555 349.550314 
L 107.508055 353.730314 
z
M 114.748055 353.730314 
L 119.780555 346.910314 
L 120.733055 346.910314 
L 120.733055 353.730314 
L 121.703055 353.730314 
L 121.703055 355.347814 
L 120.733055 355.347814 
L 120.733055 357.722814 
L 118.585555 357.722814 
L 118.585555 355.347814 
L 114.748055 355.347814 
L 114.748055 353.730314 
z
M 115.508055 353.730314 
L 118.585555 353.730314 
L 118.585555 349.550314 
L 115.508055 353.730314 
z
M 124.350555 355.315314 
Q 124.898055 355.315314 125.275555 355.700314 
Q 125.655555 356.082814 125.655555 356.620314 
Q 125.655555 357.160314 125.273055 357.540314 
Q 124.890555 357.917814 124.350555 357.917814 
Q 123.810555 357.917814 123.430555 357.540314 
Q 123.053055 357.160314 123.053055 356.620314 
Q 123.053055 356.082814 123.430555 355.700314 
Q 123.810555 355.315314 124.350555 355.315314 
z
M 126.843055 357.942814 
L 126.843055 357.722814 
Q 128.140555 357.425314 129.043055 356.847814 
Q 129.945555 356.270314 130.470555 355.417814 
Q 130.998055 354.565314 131.210555 353.457814 
Q 130.725555 353.707814 130.385555 353.805314 
Q 130.045555 353.902814 129.670555 353.902814 
Q 128.468055 353.902814 127.665555 353.035314 
Q 126.865555 352.167814 126.865555 350.660314 
Q 126.865555 349.612814 127.298055 348.742814 
Q 127.733055 347.870314 128.538055 347.390314 
Q 129.343055 346.910314 130.210555 346.910314 
Q 131.140555 346.910314 131.968055 347.442814 
Q 132.795555 347.972814 133.288055 348.980314 
Q 133.780555 349.987814 133.780555 351.277814 
Q 133.780555 352.950314 132.978055 354.482814 
Q 132.178055 356.012814 130.593055 356.937814 
Q 129.008055 357.862814 126.843055 357.942814 
z
M 131.328055 352.800314 
Q 131.405555 351.925314 131.405555 351.262814 
Q 131.405555 349.840314 131.078055 348.612814 
Q 130.890555 347.932814 130.523055 347.612814 
Q 130.328055 347.440314 130.015555 347.440314 
Q 129.623055 347.440314 129.405555 347.777814 
Q 129.100555 348.237814 129.100555 349.535314 
Q 129.100555 351.700314 129.615555 352.520314 
Q 129.953055 353.050314 130.523055 353.050314 
Q 130.828055 353.050314 131.328055 352.800314 
z
" style="stroke: #ffffff; stroke-width: 3.8"/>
    <path d="M 106.748055 353.730314 
L 111.780555 346.910314 
L 112.733055 346.910314 
L 112.733055 353.730314 
L 113.703055 353.730314 
L 113.703055 355.347814 
L 112.733055 355.347814 
L 112.733055 357.722814 
L 110.585555 357.722814 
L 110.585555 355.347814 
L 106.748055 355.347814 
L 106.748055 353.730314 
z
M 107.508055 353.730314 
L 110.585555 353.730314 
L 110.585555 349.550314 
L 107.508055 353.730314 
z
M 114.748055 353.730314 
L 119.780555 346.910314 
L 120.733055 346.910314 
L 120.733055 353.730314 
L 121.703055 353.730314 
L 121.703055 355.347814 
L 120.733055 355.347814 
L 120.733055 357.722814 
L 118.585555 357.722814 
L 118.585555 355.347814 
L 114.748055 355.347814 
L 114.748055 353.730314 
z
M 115.508055 353.730314 
L 118.585555 353.730314 
L 118.585555 349.550314 
L 115.508055 353.730314 
z
M 124.350555 355.315314 
Q 124.898055 355.315314 125.275555 355.700314 
Q 125.655555 356.082814 125.655555 356.620314 
Q 125.655555 357.160314 125.273055 357.540314 
Q 124.890555 357.917814 124.350555 357.917814 
Q 123.810555 357.917814 123.430555 357.540314 
Q 123.053055 357.160314 123.053055 356.620314 
Q 123.053055 356.082814 123.430555 355.700314 
Q 123.810555 355.315314 124.350555 355.315314 
z
M 126.843055 357.942814 
L 126.843055 357.722814 
Q 128.140555 357.425314 129.043055 356.847814 
Q 129.945555 356.270314 130.470555 355.417814 
Q 130.998055 354.565314 131.210555 353.457814 
Q 130.725555 353.707814 130.385555 353.805314 
Q 130.045555 353.902814 129.670555 353.902814 
Q 128.468055 353.902814 127.665555 353.035314 
Q 126.865555 352.167814 126.865555 350.660314 
Q 126.865555 349.612814 127.298055 348.742814 
Q 127.733055 347.870314 128.538055 347.390314 
Q 129.343055 346.910314 130.210555 346.910314 
Q 131.140555 346.910314 131.968055 347.442814 
Q 132.795555 347.972814 133.288055 348.980314 
Q 133.780555 349.987814 133.780555 351.277814 
Q 133.780555 352.950314 132.978055 354.482814 
Q 132.178055 356.012814 130.593055 356.937814 
Q 129.008055 357.862814 126.843055 357.942814 
z
M 131.328055 352.800314 
Q 131.405555 351.925314 131.405555 351.262814 
Q 131.405555 349.840314 131.078055 348.612814 
Q 130.890555 347.932814 130.523055 347.612814 
Q 130.328055 347.440314 130.015555 347.440314 
Q 129.623055 347.440314 129.405555 347.777814 
Q 129.100555 348.237814 129.100555 349.535314 
Q 129.100555 351.700314 129.615555 352.520314 
Q 129.953055 353.050314 130.523055 353.050314 
Q 130.828055 353.050314 131.328055 352.800314 
z
"/>
   </g>
   <g id="text_24">
    <path d="M 113.865555 253.544742 
L 113.865555 253.762242 
Q 112.453055 254.122242 111.595555 254.689742 
Q 110.740555 255.254742 110.243055 256.064742 
Q 109.748055 256.872242 109.475555 258.067242 
Q 109.820555 257.834742 110.045555 257.762242 
Q 110.553055 257.607242 111.070555 257.607242 
Q 112.258055 257.607242 113.050555 258.472242 
Q 113.843055 259.334742 113.843055 260.824742 
Q 113.843055 261.872242 113.413055 262.747242 
Q 112.983055 263.622242 112.193055 264.099742 
Q 111.405555 264.577242 110.508055 264.577242 
Q 109.530555 264.577242 108.700555 264.042242 
Q 107.873055 263.504742 107.408055 262.474742 
Q 106.945555 261.442242 106.945555 260.232242 
Q 106.945555 258.449742 107.800555 256.914742 
Q 108.655555 255.379742 110.228055 254.469742 
Q 111.803055 253.559742 113.865555 253.544742 
z
M 109.373055 258.699742 
Q 109.310555 259.779742 109.310555 260.279742 
Q 109.310555 261.357242 109.518055 262.364742 
Q 109.725555 263.372242 110.085555 263.779742 
Q 110.343055 264.067242 110.695555 264.067242 
Q 111.053055 264.067242 111.333055 263.649742 
Q 111.615555 263.232242 111.615555 261.949742 
Q 111.615555 259.794742 111.093055 258.974742 
Q 110.758055 258.442242 110.185555 258.442242 
Q 109.873055 258.442242 109.373055 258.699742 
z
M 117.185555 264.577242 
L 120.070555 255.834742 
L 117.873055 255.834742 
Q 116.585555 255.834742 115.935555 256.169742 
Q 115.483055 256.404742 115.185555 257.052242 
L 114.890555 257.052242 
L 115.655555 253.762242 
L 121.968055 253.762242 
L 118.413055 264.577242 
L 117.185555 264.577242 
z
M 124.350555 261.949742 
Q 124.898055 261.949742 125.275555 262.334742 
Q 125.655555 262.717242 125.655555 263.254742 
Q 125.655555 263.794742 125.273055 264.174742 
Q 124.890555 264.552242 124.350555 264.552242 
Q 123.810555 264.552242 123.430555 264.174742 
Q 123.053055 263.794742 123.053055 263.254742 
Q 123.053055 262.717242 123.430555 262.334742 
Q 123.810555 261.949742 124.350555 261.949742 
z
M 131.803055 258.372242 
Q 132.920555 259.192242 133.353055 259.899742 
Q 133.788055 260.607242 133.788055 261.522242 
Q 133.788055 262.802242 132.823055 263.689742 
Q 131.858055 264.577242 130.203055 264.577242 
Q 128.633055 264.577242 127.773055 263.804742 
Q 126.913055 263.029742 126.913055 261.912242 
Q 126.913055 261.059742 127.408055 260.419742 
Q 127.905555 259.779742 129.060555 259.247242 
Q 127.803055 258.287242 127.448055 257.677242 
Q 127.093055 257.067242 127.093055 256.262242 
Q 127.093055 255.199742 127.995555 254.392242 
Q 128.898055 253.584742 130.468055 253.584742 
Q 131.983055 253.584742 132.798055 254.299742 
Q 133.615555 255.012242 133.615555 256.012242 
Q 133.615555 256.762242 133.173055 257.337242 
Q 132.733055 257.912242 131.803055 258.372242 
z
M 131.210555 257.974742 
Q 131.498055 257.584742 131.638055 257.099742 
Q 131.780555 256.614742 131.780555 256.037242 
Q 131.780555 255.022242 131.343055 254.482242 
Q 131.015555 254.067242 130.435555 254.067242 
Q 129.913055 254.067242 129.545555 254.447242 
Q 129.178055 254.824742 129.178055 255.387242 
Q 129.178055 255.959742 129.588055 256.572242 
Q 129.998055 257.184742 131.210555 257.974742 
z
M 129.648055 259.622242 
Q 129.405555 259.842242 129.303055 260.022242 
Q 129.148055 260.294742 129.023055 260.819742 
Q 128.898055 261.342242 128.898055 261.912242 
Q 128.898055 262.647242 129.085555 263.142242 
Q 129.273055 263.637242 129.620555 263.857242 
Q 129.968055 264.074742 130.335555 264.074742 
Q 130.905555 264.074742 131.295555 263.657242 
Q 131.685555 263.239742 131.685555 262.512242 
Q 131.685555 260.997242 129.648055 259.622242 
z
" style="stroke: #ffffff; stroke-width: 3.8"/>
    <path d="M 113.865555 253.544742 
L 113.865555 253.762242 
Q 112.453055 254.122242 111.595555 254.689742 
Q 110.740555 255.254742 110.243055 256.064742 
Q 109.748055 256.872242 109.475555 258.067242 
Q 109.820555 257.834742 110.045555 257.762242 
Q 110.553055 257.607242 111.070555 257.607242 
Q 112.258055 257.607242 113.050555 258.472242 
Q 113.843055 259.334742 113.843055 260.824742 
Q 113.843055 261.872242 113.413055 262.747242 
Q 112.983055 263.622242 112.193055 264.099742 
Q 111.405555 264.577242 110.508055 264.577242 
Q 109.530555 264.577242 108.700555 264.042242 
Q 107.873055 263.504742 107.408055 262.474742 
Q 106.945555 261.442242 106.945555 260.232242 
Q 106.945555 258.449742 107.800555 256.914742 
Q 108.655555 255.379742 110.228055 254.469742 
Q 111.803055 253.559742 113.865555 253.544742 
z
M 109.373055 258.699742 
Q 109.310555 259.779742 109.310555 260.279742 
Q 109.310555 261.357242 109.518055 262.364742 
Q 109.725555 263.372242 110.085555 263.779742 
Q 110.343055 264.067242 110.695555 264.067242 
Q 111.053055 264.067242 111.333055 263.649742 
Q 111.615555 263.232242 111.615555 261.949742 
Q 111.615555 259.794742 111.093055 258.974742 
Q 110.758055 258.442242 110.185555 258.442242 
Q 109.873055 258.442242 109.373055 258.699742 
z
M 117.185555 264.577242 
L 120.070555 255.834742 
L 117.873055 255.834742 
Q 116.585555 255.834742 115.935555 256.169742 
Q 115.483055 256.404742 115.185555 257.052242 
L 114.890555 257.052242 
L 115.655555 253.762242 
L 121.968055 253.762242 
L 118.413055 264.577242 
L 117.185555 264.577242 
z
M 124.350555 261.949742 
Q 124.898055 261.949742 125.275555 262.334742 
Q 125.655555 262.717242 125.655555 263.254742 
Q 125.655555 263.794742 125.273055 264.174742 
Q 124.890555 264.552242 124.350555 264.552242 
Q 123.810555 264.552242 123.430555 264.174742 
Q 123.053055 263.794742 123.053055 263.254742 
Q 123.053055 262.717242 123.430555 262.334742 
Q 123.810555 261.949742 124.350555 261.949742 
z
M 131.803055 258.372242 
Q 132.920555 259.192242 133.353055 259.899742 
Q 133.788055 260.607242 133.788055 261.522242 
Q 133.788055 262.802242 132.823055 263.689742 
Q 131.858055 264.577242 130.203055 264.577242 
Q 128.633055 264.577242 127.773055 263.804742 
Q 126.913055 263.029742 126.913055 261.912242 
Q 126.913055 261.059742 127.408055 260.419742 
Q 127.905555 259.779742 129.060555 259.247242 
Q 127.803055 258.287242 127.448055 257.677242 
Q 127.093055 257.067242 127.093055 256.262242 
Q 127.093055 255.199742 127.995555 254.392242 
Q 128.898055 253.584742 130.468055 253.584742 
Q 131.983055 253.584742 132.798055 254.299742 
Q 133.615555 255.012242 133.615555 256.012242 
Q 133.615555 256.762242 133.173055 257.337242 
Q 132.733055 257.912242 131.803055 258.372242 
z
M 131.210555 257.974742 
Q 131.498055 257.584742 131.638055 257.099742 
Q 131.780555 256.614742 131.780555 256.037242 
Q 131.780555 255.022242 131.343055 254.482242 
Q 131.015555 254.067242 130.435555 254.067242 
Q 129.913055 254.067242 129.545555 254.447242 
Q 129.178055 254.824742 129.178055 255.387242 
Q 129.178055 255.959742 129.588055 256.572242 
Q 129.998055 257.184742 131.210555 257.974742 
z
M 129.648055 259.622242 
Q 129.405555 259.842242 129.303055 260.022242 
Q 129.148055 260.294742 129.023055 260.819742 
Q 128.898055 261.342242 128.898055 261.912242 
Q 128.898055 262.647242 129.085555 263.142242 
Q 129.273055 263.637242 129.620555 263.857242 
Q 129.968055 264.074742 130.335555 264.074742 
Q 130.905555 264.074742 131.295555 263.657242 
Q 131.685555 263.239742 131.685555 262.512242 
Q 131.685555 260.997242 129.648055 259.622242 
z
"/>
   </g>
   <g id="text_25">
    <path d="M 361.434697 290.776261 
L 361.434697 299.441261 
Q 361.434697 300.416261 361.519697 300.686261 
Q 361.607197 300.956261 361.879697 301.128761 
Q 362.154697 301.298761 362.757197 301.298761 
L 362.997197 301.298761 
L 362.997197 301.588761 
L 357.419697 301.588761 
L 357.419697 301.298761 
L 357.702197 301.298761 
Q 358.382197 301.298761 358.669697 301.143761 
Q 358.959697 300.986261 359.059697 300.713761 
Q 359.162197 300.441261 359.162197 299.441261 
L 359.162197 293.948761 
Q 359.162197 293.213761 359.092197 293.031261 
Q 359.022197 292.846261 358.829697 292.718761 
Q 358.639697 292.588761 358.389697 292.588761 
Q 357.989697 292.588761 357.419697 292.838761 
L 357.279697 292.556261 
L 361.177197 290.776261 
L 361.434697 290.776261 
z
M 367.059697 301.808761 
L 369.944697 293.066261 
L 367.747197 293.066261 
Q 366.459697 293.066261 365.809697 293.401261 
Q 365.357197 293.636261 365.059697 294.283761 
L 364.764697 294.283761 
L 365.529697 290.993761 
L 371.842197 290.993761 
L 368.287197 301.808761 
L 367.059697 301.808761 
z
M 374.224697 299.181261 
Q 374.772197 299.181261 375.149697 299.566261 
Q 375.529697 299.948761 375.529697 300.486261 
Q 375.529697 301.026261 375.147197 301.406261 
Q 374.764697 301.783761 374.224697 301.783761 
Q 373.684697 301.783761 373.304697 301.406261 
Q 372.927197 301.026261 372.927197 300.486261 
Q 372.927197 299.948761 373.304697 299.566261 
Q 373.684697 299.181261 374.224697 299.181261 
z
M 382.849697 301.588761 
L 376.614697 301.588761 
L 376.614697 301.416261 
Q 379.482197 298.003761 380.094697 296.823761 
Q 380.709697 295.643761 380.709697 294.518761 
Q 380.709697 293.698761 380.202197 293.156261 
Q 379.694697 292.611261 378.959697 292.611261 
Q 377.757197 292.611261 377.092197 293.816261 
L 376.802197 293.713761 
Q 377.224697 292.213761 378.084697 291.496261 
Q 378.944697 290.776261 380.069697 290.776261 
Q 380.872197 290.776261 381.537197 291.151261 
Q 382.202197 291.526261 382.577197 292.178761 
Q 382.952197 292.831261 382.952197 293.401261 
Q 382.952197 294.441261 382.372197 295.511261 
Q 381.584697 296.956261 378.927197 299.541261 
L 381.217197 299.541261 
Q 382.059697 299.541261 382.314697 299.471261 
Q 382.569697 299.401261 382.732197 299.233761 
Q 382.897197 299.066261 383.162197 298.526261 
L 383.444697 298.526261 
L 382.849697 301.588761 
z
" style="stroke: #ffffff; stroke-width: 3.8"/>
    <path d="M 361.434697 290.776261 
L 361.434697 299.441261 
Q 361.434697 300.416261 361.519697 300.686261 
Q 361.607197 300.956261 361.879697 301.128761 
Q 362.154697 301.298761 362.757197 301.298761 
L 362.997197 301.298761 
L 362.997197 301.588761 
L 357.419697 301.588761 
L 357.419697 301.298761 
L 357.702197 301.298761 
Q 358.382197 301.298761 358.669697 301.143761 
Q 358.959697 300.986261 359.059697 300.713761 
Q 359.162197 300.441261 359.162197 299.441261 
L 359.162197 293.948761 
Q 359.162197 293.213761 359.092197 293.031261 
Q 359.022197 292.846261 358.829697 292.718761 
Q 358.639697 292.588761 358.389697 292.588761 
Q 357.989697 292.588761 357.419697 292.838761 
L 357.279697 292.556261 
L 361.177197 290.776261 
L 361.434697 290.776261 
z
M 367.059697 301.808761 
L 369.944697 293.066261 
L 367.747197 293.066261 
Q 366.459697 293.066261 365.809697 293.401261 
Q 365.357197 293.636261 365.059697 294.283761 
L 364.764697 294.283761 
L 365.529697 290.993761 
L 371.842197 290.993761 
L 368.287197 301.808761 
L 367.059697 301.808761 
z
M 374.224697 299.181261 
Q 374.772197 299.181261 375.149697 299.566261 
Q 375.529697 299.948761 375.529697 300.486261 
Q 375.529697 301.026261 375.147197 301.406261 
Q 374.764697 301.783761 374.224697 301.783761 
Q 373.684697 301.783761 373.304697 301.406261 
Q 372.927197 301.026261 372.927197 300.486261 
Q 372.927197 299.948761 373.304697 299.566261 
Q 373.684697 299.181261 374.224697 299.181261 
z
M 382.849697 301.588761 
L 376.614697 301.588761 
L 376.614697 301.416261 
Q 379.482197 298.003761 380.094697 296.823761 
Q 380.709697 295.643761 380.709697 294.518761 
Q 380.709697 293.698761 380.202197 293.156261 
Q 379.694697 292.611261 378.959697 292.611261 
Q 377.757197 292.611261 377.092197 293.816261 
L 376.802197 293.713761 
Q 377.224697 292.213761 378.084697 291.496261 
Q 378.944697 290.776261 380.069697 290.776261 
Q 380.872197 290.776261 381.537197 291.151261 
Q 382.202197 291.526261 382.577197 292.178761 
Q 382.952197 292.831261 382.952197 293.401261 
Q 382.952197 294.441261 382.372197 295.511261 
Q 381.584697 296.956261 378.927197 299.541261 
L 381.217197 299.541261 
Q 382.059697 299.541261 382.314697 299.471261 
Q 382.569697 299.401261 382.732197 299.233761 
Q 382.897197 299.066261 383.162197 298.526261 
L 383.444697 298.526261 
L 382.849697 301.588761 
z
"/>
   </g>
   <g id="text_26">
    <path d="M 356.622197 200.83872 
L 361.654697 194.01872 
L 362.607197 194.01872 
L 362.607197 200.83872 
L 363.577197 200.83872 
L 363.577197 202.45622 
L 362.607197 202.45622 
L 362.607197 204.83122 
L 360.459697 204.83122 
L 360.459697 202.45622 
L 356.622197 202.45622 
L 356.622197 200.83872 
z
M 357.382197 200.83872 
L 360.459697 200.83872 
L 360.459697 196.65872 
L 357.382197 200.83872 
z
M 367.059697 205.05122 
L 369.944697 196.30872 
L 367.747197 196.30872 
Q 366.459697 196.30872 365.809697 196.64372 
Q 365.357197 196.87872 365.059697 197.52622 
L 364.764697 197.52622 
L 365.529697 194.23622 
L 371.842197 194.23622 
L 368.287197 205.05122 
L 367.059697 205.05122 
z
M 374.224697 202.42372 
Q 374.772197 202.42372 375.149697 202.80872 
Q 375.529697 203.19122 375.529697 203.72872 
Q 375.529697 204.26872 375.147197 204.64872 
Q 374.764697 205.02622 374.224697 205.02622 
Q 373.684697 205.02622 373.304697 204.64872 
Q 372.927197 204.26872 372.927197 203.72872 
Q 372.927197 203.19122 373.304697 202.80872 
Q 373.684697 202.42372 374.224697 202.42372 
z
M 376.717197 205.05122 
L 376.717197 204.83122 
Q 378.014697 204.53372 378.917197 203.95622 
Q 379.819697 203.37872 380.344697 202.52622 
Q 380.872197 201.67372 381.084697 200.56622 
Q 380.599697 200.81622 380.259697 200.91372 
Q 379.919697 201.01122 379.544697 201.01122 
Q 378.342197 201.01122 377.539697 200.14372 
Q 376.739697 199.27622 376.739697 197.76872 
Q 376.739697 196.72122 377.172197 195.85122 
Q 377.607197 194.97872 378.412197 194.49872 
Q 379.217197 194.01872 380.084697 194.01872 
Q 381.014697 194.01872 381.842197 194.55122 
Q 382.669697 195.08122 383.162197 196.08872 
Q 383.654697 197.09622 383.654697 198.38622 
Q 383.654697 200.05872 382.852197 201.59122 
Q 382.052197 203.12122 380.467197 204.04622 
Q 378.882197 204.97122 376.717197 205.05122 
z
M 381.202197 199.90872 
Q 381.279697 199.03372 381.279697 198.37122 
Q 381.279697 196.94872 380.952197 195.72122 
Q 380.764697 195.04122 380.397197 194.72122 
Q 380.202197 194.54872 379.889697 194.54872 
Q 379.497197 194.54872 379.279697 194.88622 
Q 378.974697 195.34622 378.974697 196.64372 
Q 378.974697 198.80872 379.489697 199.62872 
Q 379.827197 200.15872 380.397197 200.15872 
Q 380.702197 200.15872 381.202197 199.90872 
z
" style="stroke: #ffffff; stroke-width: 3.8"/>
    <path d="M 356.622197 200.83872 
L 361.654697 194.01872 
L 362.607197 194.01872 
L 362.607197 200.83872 
L 363.577197 200.83872 
L 363.577197 202.45622 
L 362.607197 202.45622 
L 362.607197 204.83122 
L 360.459697 204.83122 
L 360.459697 202.45622 
L 356.622197 202.45622 
L 356.622197 200.83872 
z
M 357.382197 200.83872 
L 360.459697 200.83872 
L 360.459697 196.65872 
L 357.382197 200.83872 
z
M 367.059697 205.05122 
L 369.944697 196.30872 
L 367.747197 196.30872 
Q 366.459697 196.30872 365.809697 196.64372 
Q 365.357197 196.87872 365.059697 197.52622 
L 364.764697 197.52622 
L 365.529697 194.23622 
L 371.842197 194.23622 
L 368.287197 205.05122 
L 367.059697 205.05122 
z
M 374.224697 202.42372 
Q 374.772197 202.42372 375.149697 202.80872 
Q 375.529697 203.19122 375.529697 203.72872 
Q 375.529697 204.26872 375.147197 204.64872 
Q 374.764697 205.02622 374.224697 205.02622 
Q 373.684697 205.02622 373.304697 204.64872 
Q 372.927197 204.26872 372.927197 203.72872 
Q 372.927197 203.19122 373.304697 202.80872 
Q 373.684697 202.42372 374.224697 202.42372 
z
M 376.717197 205.05122 
L 376.717197 204.83122 
Q 378.014697 204.53372 378.917197 203.95622 
Q 379.819697 203.37872 380.344697 202.52622 
Q 380.872197 201.67372 381.084697 200.56622 
Q 380.599697 200.81622 380.259697 200.91372 
Q 379.919697 201.01122 379.544697 201.01122 
Q 378.342197 201.01122 377.539697 200.14372 
Q 376.739697 199.27622 376.739697 197.76872 
Q 376.739697 196.72122 377.172197 195.85122 
Q 377.607197 194.97872 378.412197 194.49872 
Q 379.217197 194.01872 380.084697 194.01872 
Q 381.014697 194.01872 381.842197 194.55122 
Q 382.669697 195.08122 383.162197 196.08872 
Q 383.654697 197.09622 383.654697 198.38622 
Q 383.654697 200.05872 382.852197 201.59122 
Q 382.052197 203.12122 380.467197 204.04622 
Q 378.882197 204.97122 376.717197 205.05122 
z
M 381.202197 199.90872 
Q 381.279697 199.03372 381.279697 198.37122 
Q 381.279697 196.94872 380.952197 195.72122 
Q 380.764697 195.04122 380.397197 194.72122 
Q 380.202197 194.54872 379.889697 194.54872 
Q 379.497197 194.54872 379.279697 194.88622 
Q 378.974697 195.34622 378.974697 196.64372 
Q 378.974697 198.80872 379.489697 199.62872 
Q 379.827197 200.15872 380.397197 200.15872 
Q 380.702197 200.15872 381.202197 199.90872 
z
"/>
   </g>
   <g id="text_27">
    <path d="M 361.434697 123.52342 
L 361.434697 132.18842 
Q 361.434697 133.16342 361.519697 133.43342 
Q 361.607197 133.70342 361.879697 133.87592 
Q 362.154697 134.04592 362.757197 134.04592 
L 362.997197 134.04592 
L 362.997197 134.33592 
L 357.419697 134.33592 
L 357.419697 134.04592 
L 357.702197 134.04592 
Q 358.382197 134.04592 358.669697 133.89092 
Q 358.959697 133.73342 359.059697 133.46092 
Q 359.162197 133.18842 359.162197 132.18842 
L 359.162197 126.69592 
Q 359.162197 125.96092 359.092197 125.77842 
Q 359.022197 125.59342 358.829697 125.46592 
Q 358.639697 125.33592 358.389697 125.33592 
Q 357.989697 125.33592 357.419697 125.58592 
L 357.279697 125.30342 
L 361.177197 123.52342 
L 361.434697 123.52342 
z
M 371.739697 123.52342 
L 371.739697 123.74092 
Q 370.327197 124.10092 369.469697 124.66842 
Q 368.614697 125.23342 368.117197 126.04342 
Q 367.622197 126.85092 367.349697 128.04592 
Q 367.694697 127.81342 367.919697 127.74092 
Q 368.427197 127.58592 368.944697 127.58592 
Q 370.132197 127.58592 370.924697 128.45092 
Q 371.717197 129.31342 371.717197 130.80342 
Q 371.717197 131.85092 371.287197 132.72592 
Q 370.857197 133.60092 370.067197 134.07842 
Q 369.279697 134.55592 368.382197 134.55592 
Q 367.404697 134.55592 366.574697 134.02092 
Q 365.747197 133.48342 365.282197 132.45342 
Q 364.819697 131.42092 364.819697 130.21092 
Q 364.819697 128.42842 365.674697 126.89342 
Q 366.529697 125.35842 368.102197 124.44842 
Q 369.677197 123.53842 371.739697 123.52342 
z
M 367.247197 128.67842 
Q 367.184697 129.75842 367.184697 130.25842 
Q 367.184697 131.33592 367.392197 132.34342 
Q 367.599697 133.35092 367.959697 133.75842 
Q 368.217197 134.04592 368.569697 134.04592 
Q 368.927197 134.04592 369.207197 133.62842 
Q 369.489697 133.21092 369.489697 131.92842 
Q 369.489697 129.77342 368.967197 128.95342 
Q 368.632197 128.42092 368.059697 128.42092 
Q 367.747197 128.42092 367.247197 128.67842 
z
M 374.224697 131.92842 
Q 374.772197 131.92842 375.149697 132.31342 
Q 375.529697 132.69592 375.529697 133.23342 
Q 375.529697 133.77342 375.147197 134.15342 
Q 374.764697 134.53092 374.224697 134.53092 
Q 373.684697 134.53092 373.304697 134.15342 
Q 372.927197 133.77342 372.927197 133.23342 
Q 372.927197 132.69592 373.304697 132.31342 
Q 373.684697 131.92842 374.224697 131.92842 
z
M 378.592197 129.02342 
L 378.592197 128.75092 
Q 379.482197 128.49092 379.824697 128.26842 
Q 380.169697 128.04592 380.419697 127.59092 
Q 380.669697 127.13342 380.669697 126.66342 
Q 380.669697 126.01592 380.197197 125.55092 
Q 379.724697 125.08592 379.022197 125.08592 
Q 377.927197 125.08592 377.162197 126.24092 
L 376.872197 126.14092 
Q 377.434697 124.83592 378.314697 124.18092 
Q 379.194697 123.52342 380.272197 123.52342 
Q 381.372197 123.52342 382.087197 124.19592 
Q 382.802197 124.86592 382.802197 125.76592 
Q 382.802197 126.35092 382.469697 126.89592 
Q 382.139697 127.43842 381.427197 127.85092 
Q 382.342197 128.29592 382.822197 128.94842 
Q 383.302197 129.60092 383.302197 130.58592 
Q 383.302197 132.24092 382.102197 133.40342 
Q 380.904697 134.56342 378.889697 134.56342 
Q 377.544697 134.56342 376.927197 134.11592 
Q 376.482197 133.80342 376.482197 133.31342 
Q 376.482197 132.95342 376.739697 132.70092 
Q 376.997197 132.44592 377.334697 132.44592 
Q 377.592197 132.44592 377.819697 132.55342 
Q 377.944697 132.61592 378.704697 133.23842 
Q 379.467197 133.85842 380.132197 133.85842 
Q 380.709697 133.85842 381.122197 133.40342 
Q 381.537197 132.94592 381.537197 132.24092 
Q 381.537197 131.17092 380.787197 130.26842 
Q 380.037197 129.36592 378.592197 129.02342 
z
" style="stroke: #ffffff; stroke-width: 3.8"/>
    <path d="M 361.434697 123.52342 
L 361.434697 132.18842 
Q 361.434697 133.16342 361.519697 133.43342 
Q 361.607197 133.70342 361.879697 133.87592 
Q 362.154697 134.04592 362.757197 134.04592 
L 362.997197 134.04592 
L 362.997197 134.33592 
L 357.419697 134.33592 
L 357.419697 134.04592 
L 357.702197 134.04592 
Q 358.382197 134.04592 358.669697 133.89092 
Q 358.959697 133.73342 359.059697 133.46092 
Q 359.162197 133.18842 359.162197 132.18842 
L 359.162197 126.69592 
Q 359.162197 125.96092 359.092197 125.77842 
Q 359.022197 125.59342 358.829697 125.46592 
Q 358.639697 125.33592 358.389697 125.33592 
Q 357.989697 125.33592 357.419697 125.58592 
L 357.279697 125.30342 
L 361.177197 123.52342 
L 361.434697 123.52342 
z
M 371.739697 123.52342 
L 371.739697 123.74092 
Q 370.327197 124.10092 369.469697 124.66842 
Q 368.614697 125.23342 368.117197 126.04342 
Q 367.622197 126.85092 367.349697 128.04592 
Q 367.694697 127.81342 367.919697 127.74092 
Q 368.427197 127.58592 368.944697 127.58592 
Q 370.132197 127.58592 370.924697 128.45092 
Q 371.717197 129.31342 371.717197 130.80342 
Q 371.717197 131.85092 371.287197 132.72592 
Q 370.857197 133.60092 370.067197 134.07842 
Q 369.279697 134.55592 368.382197 134.55592 
Q 367.404697 134.55592 366.574697 134.02092 
Q 365.747197 133.48342 365.282197 132.45342 
Q 364.819697 131.42092 364.819697 130.21092 
Q 364.819697 128.42842 365.674697 126.89342 
Q 366.529697 125.35842 368.102197 124.44842 
Q 369.677197 123.53842 371.739697 123.52342 
z
M 367.247197 128.67842 
Q 367.184697 129.75842 367.184697 130.25842 
Q 367.184697 131.33592 367.392197 132.34342 
Q 367.599697 133.35092 367.959697 133.75842 
Q 368.217197 134.04592 368.569697 134.04592 
Q 368.927197 134.04592 369.207197 133.62842 
Q 369.489697 133.21092 369.489697 131.92842 
Q 369.489697 129.77342 368.967197 128.95342 
Q 368.632197 128.42092 368.059697 128.42092 
Q 367.747197 128.42092 367.247197 128.67842 
z
M 374.224697 131.92842 
Q 374.772197 131.92842 375.149697 132.31342 
Q 375.529697 132.69592 375.529697 133.23342 
Q 375.529697 133.77342 375.147197 134.15342 
Q 374.764697 134.53092 374.224697 134.53092 
Q 373.684697 134.53092 373.304697 134.15342 
Q 372.927197 133.77342 372.927197 133.23342 
Q 372.927197 132.69592 373.304697 132.31342 
Q 373.684697 131.92842 374.224697 131.92842 
z
M 378.592197 129.02342 
L 378.592197 128.75092 
Q 379.482197 128.49092 379.824697 128.26842 
Q 380.169697 128.04592 380.419697 127.59092 
Q 380.669697 127.13342 380.669697 126.66342 
Q 380.669697 126.01592 380.197197 125.55092 
Q 379.724697 125.08592 379.022197 125.08592 
Q 377.927197 125.08592 377.162197 126.24092 
L 376.872197 126.14092 
Q 377.434697 124.83592 378.314697 124.18092 
Q 379.194697 123.52342 380.272197 123.52342 
Q 381.372197 123.52342 382.087197 124.19592 
Q 382.802197 124.86592 382.802197 125.76592 
Q 382.802197 126.35092 382.469697 126.89592 
Q 382.139697 127.43842 381.427197 127.85092 
Q 382.342197 128.29592 382.822197 128.94842 
Q 383.302197 129.60092 383.302197 130.58592 
Q 383.302197 132.24092 382.102197 133.40342 
Q 380.904697 134.56342 378.889697 134.56342 
Q 377.544697 134.56342 376.927197 134.11592 
Q 376.482197 133.80342 376.482197 133.31342 
Q 376.482197 132.95342 376.739697 132.70092 
Q 376.997197 132.44592 377.334697 132.44592 
Q 377.592197 132.44592 377.819697 132.55342 
Q 377.944697 132.61592 378.704697 133.23842 
Q 379.467197 133.85842 380.132197 133.85842 
Q 380.709697 133.85842 381.122197 133.40342 
Q 381.537197 132.94592 381.537197 132.24092 
Q 381.537197 131.17092 380.787197 130.26842 
Q 380.037197 129.36592 378.592197 129.02342 
z
"/>
   </g>
   <g id="text_28">
    <path d="M 578.778672 234.267278 
L 572.543672 234.267278 
L 572.543672 234.094778 
Q 575.411172 230.682278 576.023672 229.502278 
Q 576.638672 228.322278 576.638672 227.197278 
Q 576.638672 226.377278 576.131172 225.834778 
Q 575.623672 225.289778 574.888672 225.289778 
Q 573.686172 225.289778 573.021172 226.494778 
L 572.731172 226.392278 
Q 573.153672 224.892278 574.013672 224.174778 
Q 574.873672 223.454778 575.998672 223.454778 
Q 576.801172 223.454778 577.466172 223.829778 
Q 578.131172 224.204778 578.506172 224.857278 
Q 578.881172 225.509778 578.881172 226.079778 
Q 578.881172 227.119778 578.301172 228.189778 
Q 577.513672 229.634778 574.856172 232.219778 
L 577.146172 232.219778 
Q 577.988672 232.219778 578.243672 232.149778 
Q 578.498672 232.079778 578.661172 231.912278 
Q 578.826172 231.744778 579.091172 231.204778 
L 579.373672 231.204778 
L 578.778672 234.267278 
z
M 585.606172 228.282278 
Q 586.723672 229.102278 587.156172 229.809778 
Q 587.591172 230.517278 587.591172 231.432278 
Q 587.591172 232.712278 586.626172 233.599778 
Q 585.661172 234.487278 584.006172 234.487278 
Q 582.436172 234.487278 581.576172 233.714778 
Q 580.716172 232.939778 580.716172 231.822278 
Q 580.716172 230.969778 581.211172 230.329778 
Q 581.708672 229.689778 582.863672 229.157278 
Q 581.606172 228.197278 581.251172 227.587278 
Q 580.896172 226.977278 580.896172 226.172278 
Q 580.896172 225.109778 581.798672 224.302278 
Q 582.701172 223.494778 584.271172 223.494778 
Q 585.786172 223.494778 586.601172 224.209778 
Q 587.418672 224.922278 587.418672 225.922278 
Q 587.418672 226.672278 586.976172 227.247278 
Q 586.536172 227.822278 585.606172 228.282278 
z
M 585.013672 227.884778 
Q 585.301172 227.494778 585.441172 227.009778 
Q 585.583672 226.524778 585.583672 225.947278 
Q 585.583672 224.932278 585.146172 224.392278 
Q 584.818672 223.977278 584.238672 223.977278 
Q 583.716172 223.977278 583.348672 224.357278 
Q 582.981172 224.734778 582.981172 225.297278 
Q 582.981172 225.869778 583.391172 226.482278 
Q 583.801172 227.094778 585.013672 227.884778 
z
M 583.451172 229.532278 
Q 583.208672 229.752278 583.106172 229.932278 
Q 582.951172 230.204778 582.826172 230.729778 
Q 582.701172 231.252278 582.701172 231.822278 
Q 582.701172 232.557278 582.888672 233.052278 
Q 583.076172 233.547278 583.423672 233.767278 
Q 583.771172 233.984778 584.138672 233.984778 
Q 584.708672 233.984778 585.098672 233.567278 
Q 585.488672 233.149778 585.488672 232.422278 
Q 585.488672 230.907278 583.451172 229.532278 
z
M 590.153672 231.859778 
Q 590.701172 231.859778 591.078672 232.244778 
Q 591.458672 232.627278 591.458672 233.164778 
Q 591.458672 233.704778 591.076172 234.084778 
Q 590.693672 234.462278 590.153672 234.462278 
Q 589.613672 234.462278 589.233672 234.084778 
Q 588.856172 233.704778 588.856172 233.164778 
Q 588.856172 232.627278 589.233672 232.244778 
Q 589.613672 231.859778 590.153672 231.859778 
z
M 592.646172 234.487278 
L 592.646172 234.267278 
Q 593.943672 233.969778 594.846172 233.392278 
Q 595.748672 232.814778 596.273672 231.962278 
Q 596.801172 231.109778 597.013672 230.002278 
Q 596.528672 230.252278 596.188672 230.349778 
Q 595.848672 230.447278 595.473672 230.447278 
Q 594.271172 230.447278 593.468672 229.579778 
Q 592.668672 228.712278 592.668672 227.204778 
Q 592.668672 226.157278 593.101172 225.287278 
Q 593.536172 224.414778 594.341172 223.934778 
Q 595.146172 223.454778 596.013672 223.454778 
Q 596.943672 223.454778 597.771172 223.987278 
Q 598.598672 224.517278 599.091172 225.524778 
Q 599.583672 226.532278 599.583672 227.822278 
Q 599.583672 229.494778 598.781172 231.027278 
Q 597.981172 232.557278 596.396172 233.482278 
Q 594.811172 234.407278 592.646172 234.487278 
z
M 597.131172 229.344778 
Q 597.208672 228.469778 597.208672 227.807278 
Q 597.208672 226.384778 596.881172 225.157278 
Q 596.693672 224.477278 596.326172 224.157278 
Q 596.131172 223.984778 595.818672 223.984778 
Q 595.426172 223.984778 595.208672 224.322278 
Q 594.903672 224.782278 594.903672 226.079778 
Q 594.903672 228.244778 595.418672 229.064778 
Q 595.756172 229.594778 596.326172 229.594778 
Q 596.631172 229.594778 597.131172 229.344778 
z
" style="stroke: #ffffff; stroke-width: 3.8"/>
    <path d="M 578.778672 234.267278 
L 572.543672 234.267278 
L 572.543672 234.094778 
Q 575.411172 230.682278 576.023672 229.502278 
Q 576.638672 228.322278 576.638672 227.197278 
Q 576.638672 226.377278 576.131172 225.834778 
Q 575.623672 225.289778 574.888672 225.289778 
Q 573.686172 225.289778 573.021172 226.494778 
L 572.731172 226.392278 
Q 573.153672 224.892278 574.013672 224.174778 
Q 574.873672 223.454778 575.998672 223.454778 
Q 576.801172 223.454778 577.466172 223.829778 
Q 578.131172 224.204778 578.506172 224.857278 
Q 578.881172 225.509778 578.881172 226.079778 
Q 578.881172 227.119778 578.301172 228.189778 
Q 577.513672 229.634778 574.856172 232.219778 
L 577.146172 232.219778 
Q 577.988672 232.219778 578.243672 232.149778 
Q 578.498672 232.079778 578.661172 231.912278 
Q 578.826172 231.744778 579.091172 231.204778 
L 579.373672 231.204778 
L 578.778672 234.267278 
z
M 585.606172 228.282278 
Q 586.723672 229.102278 587.156172 229.809778 
Q 587.591172 230.517278 587.591172 231.432278 
Q 587.591172 232.712278 586.626172 233.599778 
Q 585.661172 234.487278 584.006172 234.487278 
Q 582.436172 234.487278 581.576172 233.714778 
Q 580.716172 232.939778 580.716172 231.822278 
Q 580.716172 230.969778 581.211172 230.329778 
Q 581.708672 229.689778 582.863672 229.157278 
Q 581.606172 228.197278 581.251172 227.587278 
Q 580.896172 226.977278 580.896172 226.172278 
Q 580.896172 225.109778 581.798672 224.302278 
Q 582.701172 223.494778 584.271172 223.494778 
Q 585.786172 223.494778 586.601172 224.209778 
Q 587.418672 224.922278 587.418672 225.922278 
Q 587.418672 226.672278 586.976172 227.247278 
Q 586.536172 227.822278 585.606172 228.282278 
z
M 585.013672 227.884778 
Q 585.301172 227.494778 585.441172 227.009778 
Q 585.583672 226.524778 585.583672 225.947278 
Q 585.583672 224.932278 585.146172 224.392278 
Q 584.818672 223.977278 584.238672 223.977278 
Q 583.716172 223.977278 583.348672 224.357278 
Q 582.981172 224.734778 582.981172 225.297278 
Q 582.981172 225.869778 583.391172 226.482278 
Q 583.801172 227.094778 585.013672 227.884778 
z
M 583.451172 229.532278 
Q 583.208672 229.752278 583.106172 229.932278 
Q 582.951172 230.204778 582.826172 230.729778 
Q 582.701172 231.252278 582.701172 231.822278 
Q 582.701172 232.557278 582.888672 233.052278 
Q 583.076172 233.547278 583.423672 233.767278 
Q 583.771172 233.984778 584.138672 233.984778 
Q 584.708672 233.984778 585.098672 233.567278 
Q 585.488672 233.149778 585.488672 232.422278 
Q 585.488672 230.907278 583.451172 229.532278 
z
M 590.153672 231.859778 
Q 590.701172 231.859778 591.078672 232.244778 
Q 591.458672 232.627278 591.458672 233.164778 
Q 591.458672 233.704778 591.076172 234.084778 
Q 590.693672 234.462278 590.153672 234.462278 
Q 589.613672 234.462278 589.233672 234.084778 
Q 588.856172 233.704778 588.856172 233.164778 
Q 588.856172 232.627278 589.233672 232.244778 
Q 589.613672 231.859778 590.153672 231.859778 
z
M 592.646172 234.487278 
L 592.646172 234.267278 
Q 593.943672 233.969778 594.846172 233.392278 
Q 595.748672 232.814778 596.273672 231.962278 
Q 596.801172 231.109778 597.013672 230.002278 
Q 596.528672 230.252278 596.188672 230.349778 
Q 595.848672 230.447278 595.473672 230.447278 
Q 594.271172 230.447278 593.468672 229.579778 
Q 592.668672 228.712278 592.668672 227.204778 
Q 592.668672 226.157278 593.101172 225.287278 
Q 593.536172 224.414778 594.341172 223.934778 
Q 595.146172 223.454778 596.013672 223.454778 
Q 596.943672 223.454778 597.771172 223.987278 
Q 598.598672 224.517278 599.091172 225.524778 
Q 599.583672 226.532278 599.583672 227.822278 
Q 599.583672 229.494778 598.781172 231.027278 
Q 597.981172 232.557278 596.396172 233.482278 
Q 594.811172 234.407278 592.646172 234.487278 
z
M 597.131172 229.344778 
Q 597.208672 228.469778 597.208672 227.807278 
Q 597.208672 226.384778 596.881172 225.157278 
Q 596.693672 224.477278 596.326172 224.157278 
Q 596.131172 223.984778 595.818672 223.984778 
Q 595.426172 223.984778 595.208672 224.322278 
Q 594.903672 224.782278 594.903672 226.079778 
Q 594.903672 228.244778 595.418672 229.064778 
Q 595.756172 229.594778 596.326172 229.594778 
Q 596.631172 229.594778 597.131172 229.344778 
z
"/>
   </g>
   <g id="text_29">
    <path d="M 580.85085 390.171448 
L 580.85085 389.91598 
Q 581.685225 389.67223 582.006319 389.463636 
Q 582.329756 389.255042 582.564131 388.82848 
Q 582.798506 388.399573 582.798506 387.958948 
Q 582.798506 387.351917 582.355538 386.91598 
Q 581.912569 386.480042 581.253975 386.480042 
Q 580.227413 386.480042 579.510225 387.562855 
L 579.23835 387.469105 
Q 579.765694 386.245667 580.590694 385.631605 
Q 581.415694 385.015198 582.42585 385.015198 
Q 583.4571 385.015198 584.127413 385.645667 
Q 584.797725 386.273792 584.797725 387.117542 
Q 584.797725 387.66598 584.486006 388.176917 
Q 584.176631 388.685511 583.508663 389.07223 
Q 584.366475 389.489417 584.816475 390.101136 
Q 585.266475 390.712855 585.266475 391.636292 
Q 585.266475 393.187855 584.141475 394.277698 
Q 583.018819 395.365198 581.129756 395.365198 
Q 579.868819 395.365198 579.289913 394.945667 
Q 578.872725 394.652698 578.872725 394.193323 
Q 578.872725 393.855823 579.114131 393.619105 
Q 579.355538 393.380042 579.671944 393.380042 
Q 579.91335 393.380042 580.126631 393.480823 
Q 580.243819 393.539417 580.956319 394.123011 
Q 581.671163 394.704261 582.2946 394.704261 
Q 582.836006 394.704261 583.222725 394.277698 
Q 583.611788 393.848792 583.611788 393.187855 
Q 583.611788 392.18473 582.908663 391.338636 
Q 582.205538 390.492542 580.85085 390.171448 
z
M 588.006319 392.894886 
Q 588.5196 392.894886 588.873506 393.255823 
Q 589.229756 393.614417 589.229756 394.118323 
Q 589.229756 394.624573 588.871163 394.980823 
Q 588.512569 395.33473 588.006319 395.33473 
Q 587.500069 395.33473 587.143819 394.980823 
Q 586.789913 394.624573 586.789913 394.118323 
Q 586.789913 393.614417 587.143819 393.255823 
Q 587.500069 392.894886 588.006319 392.894886 
z
M 592.10085 390.171448 
L 592.10085 389.91598 
Q 592.935225 389.67223 593.256319 389.463636 
Q 593.579756 389.255042 593.814131 388.82848 
Q 594.048506 388.399573 594.048506 387.958948 
Q 594.048506 387.351917 593.605538 386.91598 
Q 593.162569 386.480042 592.503975 386.480042 
Q 591.477413 386.480042 590.760225 387.562855 
L 590.48835 387.469105 
Q 591.015694 386.245667 591.840694 385.631605 
Q 592.665694 385.015198 593.67585 385.015198 
Q 594.7071 385.015198 595.377413 385.645667 
Q 596.047725 386.273792 596.047725 387.117542 
Q 596.047725 387.66598 595.736006 388.176917 
Q 595.426631 388.685511 594.758663 389.07223 
Q 595.616475 389.489417 596.066475 390.101136 
Q 596.516475 390.712855 596.516475 391.636292 
Q 596.516475 393.187855 595.391475 394.277698 
Q 594.268819 395.365198 592.379756 395.365198 
Q 591.118819 395.365198 590.539913 394.945667 
Q 590.122725 394.652698 590.122725 394.193323 
Q 590.122725 393.855823 590.364131 393.619105 
Q 590.605538 393.380042 590.921944 393.380042 
Q 591.16335 393.380042 591.376631 393.480823 
Q 591.493819 393.539417 592.206319 394.123011 
Q 592.921163 394.704261 593.5446 394.704261 
Q 594.086006 394.704261 594.472725 394.277698 
Q 594.861788 393.848792 594.861788 393.187855 
Q 594.861788 392.18473 594.158663 391.338636 
Q 593.455538 390.492542 592.10085 390.171448 
z
" style="fill: #404040; stroke: #ffffff; stroke-width: 3.8"/>
    <path d="M 580.85085 390.171448 
L 580.85085 389.91598 
Q 581.685225 389.67223 582.006319 389.463636 
Q 582.329756 389.255042 582.564131 388.82848 
Q 582.798506 388.399573 582.798506 387.958948 
Q 582.798506 387.351917 582.355538 386.91598 
Q 581.912569 386.480042 581.253975 386.480042 
Q 580.227413 386.480042 579.510225 387.562855 
L 579.23835 387.469105 
Q 579.765694 386.245667 580.590694 385.631605 
Q 581.415694 385.015198 582.42585 385.015198 
Q 583.4571 385.015198 584.127413 385.645667 
Q 584.797725 386.273792 584.797725 387.117542 
Q 584.797725 387.66598 584.486006 388.176917 
Q 584.176631 388.685511 583.508663 389.07223 
Q 584.366475 389.489417 584.816475 390.101136 
Q 585.266475 390.712855 585.266475 391.636292 
Q 585.266475 393.187855 584.141475 394.277698 
Q 583.018819 395.365198 581.129756 395.365198 
Q 579.868819 395.365198 579.289913 394.945667 
Q 578.872725 394.652698 578.872725 394.193323 
Q 578.872725 393.855823 579.114131 393.619105 
Q 579.355538 393.380042 579.671944 393.380042 
Q 579.91335 393.380042 580.126631 393.480823 
Q 580.243819 393.539417 580.956319 394.123011 
Q 581.671163 394.704261 582.2946 394.704261 
Q 582.836006 394.704261 583.222725 394.277698 
Q 583.611788 393.848792 583.611788 393.187855 
Q 583.611788 392.18473 582.908663 391.338636 
Q 582.205538 390.492542 580.85085 390.171448 
z
M 588.006319 392.894886 
Q 588.5196 392.894886 588.873506 393.255823 
Q 589.229756 393.614417 589.229756 394.118323 
Q 589.229756 394.624573 588.871163 394.980823 
Q 588.512569 395.33473 588.006319 395.33473 
Q 587.500069 395.33473 587.143819 394.980823 
Q 586.789913 394.624573 586.789913 394.118323 
Q 586.789913 393.614417 587.143819 393.255823 
Q 587.500069 392.894886 588.006319 392.894886 
z
M 592.10085 390.171448 
L 592.10085 389.91598 
Q 592.935225 389.67223 593.256319 389.463636 
Q 593.579756 389.255042 593.814131 388.82848 
Q 594.048506 388.399573 594.048506 387.958948 
Q 594.048506 387.351917 593.605538 386.91598 
Q 593.162569 386.480042 592.503975 386.480042 
Q 591.477413 386.480042 590.760225 387.562855 
L 590.48835 387.469105 
Q 591.015694 386.245667 591.840694 385.631605 
Q 592.665694 385.015198 593.67585 385.015198 
Q 594.7071 385.015198 595.377413 385.645667 
Q 596.047725 386.273792 596.047725 387.117542 
Q 596.047725 387.66598 595.736006 388.176917 
Q 595.426631 388.685511 594.758663 389.07223 
Q 595.616475 389.489417 596.066475 390.101136 
Q 596.516475 390.712855 596.516475 391.636292 
Q 596.516475 393.187855 595.391475 394.277698 
Q 594.268819 395.365198 592.379756 395.365198 
Q 591.118819 395.365198 590.539913 394.945667 
Q 590.122725 394.652698 590.122725 394.193323 
Q 590.122725 393.855823 590.364131 393.619105 
Q 590.605538 393.380042 590.921944 393.380042 
Q 591.16335 393.380042 591.376631 393.480823 
Q 591.493819 393.539417 592.206319 394.123011 
Q 592.921163 394.704261 593.5446 394.704261 
Q 594.086006 394.704261 594.472725 394.277698 
Q 594.861788 393.848792 594.861788 393.187855 
Q 594.861788 392.18473 594.158663 391.338636 
Q 593.455538 390.492542 592.10085 390.171448 
z
" style="fill: #404040"/>
   </g>
   <g id="text_30">
    <path d="M 568.961768 355.362938 
L 563.116455 355.362938 
L 563.116455 355.201219 
Q 565.804736 352.002001 566.378955 350.895751 
Q 566.955518 349.789501 566.955518 348.734813 
Q 566.955518 347.966063 566.479736 347.457469 
Q 566.003955 346.946532 565.314893 346.946532 
Q 564.187549 346.946532 563.564111 348.076219 
L 563.292236 347.980126 
Q 563.68833 346.573876 564.49458 345.901219 
Q 565.30083 345.226219 566.355518 345.226219 
Q 567.107861 345.226219 567.731299 345.577782 
Q 568.354736 345.929344 568.706299 346.541063 
Q 569.057861 347.152782 569.057861 347.687157 
Q 569.057861 348.662157 568.514111 349.665282 
Q 567.77583 351.019969 565.284424 353.443407 
L 567.431299 353.443407 
Q 568.221143 353.443407 568.460205 353.377782 
Q 568.699268 353.312157 568.851611 353.155126 
Q 569.006299 352.998094 569.254736 352.491844 
L 569.51958 352.491844 
L 568.961768 355.362938 
z
M 570.712549 355.569188 
L 570.712549 355.362938 
Q 571.928955 355.084032 572.775049 354.542626 
Q 573.621143 354.001219 574.11333 353.202001 
Q 574.607861 352.402782 574.80708 351.364501 
Q 574.352393 351.598876 574.033643 351.690282 
Q 573.714893 351.781688 573.36333 351.781688 
Q 572.235986 351.781688 571.483643 350.968407 
Q 570.733643 350.155126 570.733643 348.741844 
Q 570.733643 347.759813 571.139111 346.944188 
Q 571.546924 346.126219 572.301611 345.676219 
Q 573.056299 345.226219 573.86958 345.226219 
Q 574.741455 345.226219 575.517236 345.725438 
Q 576.293018 346.222313 576.754736 347.166844 
Q 577.216455 348.111376 577.216455 349.320751 
Q 577.216455 350.888719 576.464111 352.325438 
Q 575.714111 353.759813 574.228174 354.627001 
Q 572.742236 355.494188 570.712549 355.569188 
z
M 574.917236 350.748094 
Q 574.989893 349.927782 574.989893 349.306688 
Q 574.989893 347.973094 574.682861 346.822313 
Q 574.50708 346.184813 574.162549 345.884813 
Q 573.979736 345.723094 573.686768 345.723094 
Q 573.318799 345.723094 573.114893 346.039501 
Q 572.828955 346.470751 572.828955 347.687157 
Q 572.828955 349.716844 573.311768 350.485594 
Q 573.628174 350.982469 574.162549 350.982469 
Q 574.448486 350.982469 574.917236 350.748094 
z
M 579.62583 353.105907 
Q 580.139111 353.105907 580.493018 353.466844 
Q 580.849268 353.825438 580.849268 354.329344 
Q 580.849268 354.835594 580.490674 355.191844 
Q 580.13208 355.545751 579.62583 355.545751 
Q 579.11958 355.545751 578.76333 355.191844 
Q 578.409424 354.835594 578.409424 354.329344 
Q 578.409424 353.825438 578.76333 353.466844 
Q 579.11958 353.105907 579.62583 353.105907 
z
M 588.452393 350.396532 
Q 588.452393 351.884813 588.035205 353.173876 
Q 587.784424 353.963719 587.362549 354.469969 
Q 586.943018 354.973876 586.408643 355.271532 
Q 585.874268 355.569188 585.243799 355.569188 
Q 584.526611 355.569188 583.947705 355.203563 
Q 583.368799 354.835594 582.921143 354.153563 
Q 582.600049 353.656688 582.358643 352.829344 
Q 582.042236 351.709032 582.042236 350.513719 
Q 582.042236 348.896532 582.496924 347.539501 
Q 582.86958 346.419188 583.631299 345.823876 
Q 584.393018 345.226219 585.243799 345.226219 
Q 586.108643 345.226219 586.858643 345.816844 
Q 587.608643 346.405126 587.960205 347.401219 
Q 588.452393 348.769969 588.452393 350.396532 
z
M 586.195361 350.382469 
Q 586.195361 347.773876 586.167236 347.342626 
Q 586.092236 346.325438 585.815674 345.966844 
Q 585.632861 345.732469 585.222705 345.732469 
Q 584.906299 345.732469 584.723486 345.908251 
Q 584.451611 346.163719 584.355518 346.812938 
Q 584.261768 347.459813 584.261768 351.334032 
Q 584.261768 353.443407 584.409424 354.160594 
Q 584.51958 354.680907 584.723486 354.856688 
Q 584.929736 355.032469 585.264893 355.032469 
Q 585.632861 355.032469 585.815674 354.798094 
Q 586.122705 354.387938 586.167236 353.532469 
L 586.195361 350.382469 
z
" style="fill: #404040; stroke: #ffffff; stroke-width: 3.8"/>
    <path d="M 568.961768 355.362938 
L 563.116455 355.362938 
L 563.116455 355.201219 
Q 565.804736 352.002001 566.378955 350.895751 
Q 566.955518 349.789501 566.955518 348.734813 
Q 566.955518 347.966063 566.479736 347.457469 
Q 566.003955 346.946532 565.314893 346.946532 
Q 564.187549 346.946532 563.564111 348.076219 
L 563.292236 347.980126 
Q 563.68833 346.573876 564.49458 345.901219 
Q 565.30083 345.226219 566.355518 345.226219 
Q 567.107861 345.226219 567.731299 345.577782 
Q 568.354736 345.929344 568.706299 346.541063 
Q 569.057861 347.152782 569.057861 347.687157 
Q 569.057861 348.662157 568.514111 349.665282 
Q 567.77583 351.019969 565.284424 353.443407 
L 567.431299 353.443407 
Q 568.221143 353.443407 568.460205 353.377782 
Q 568.699268 353.312157 568.851611 353.155126 
Q 569.006299 352.998094 569.254736 352.491844 
L 569.51958 352.491844 
L 568.961768 355.362938 
z
M 570.712549 355.569188 
L 570.712549 355.362938 
Q 571.928955 355.084032 572.775049 354.542626 
Q 573.621143 354.001219 574.11333 353.202001 
Q 574.607861 352.402782 574.80708 351.364501 
Q 574.352393 351.598876 574.033643 351.690282 
Q 573.714893 351.781688 573.36333 351.781688 
Q 572.235986 351.781688 571.483643 350.968407 
Q 570.733643 350.155126 570.733643 348.741844 
Q 570.733643 347.759813 571.139111 346.944188 
Q 571.546924 346.126219 572.301611 345.676219 
Q 573.056299 345.226219 573.86958 345.226219 
Q 574.741455 345.226219 575.517236 345.725438 
Q 576.293018 346.222313 576.754736 347.166844 
Q 577.216455 348.111376 577.216455 349.320751 
Q 577.216455 350.888719 576.464111 352.325438 
Q 575.714111 353.759813 574.228174 354.627001 
Q 572.742236 355.494188 570.712549 355.569188 
z
M 574.917236 350.748094 
Q 574.989893 349.927782 574.989893 349.306688 
Q 574.989893 347.973094 574.682861 346.822313 
Q 574.50708 346.184813 574.162549 345.884813 
Q 573.979736 345.723094 573.686768 345.723094 
Q 573.318799 345.723094 573.114893 346.039501 
Q 572.828955 346.470751 572.828955 347.687157 
Q 572.828955 349.716844 573.311768 350.485594 
Q 573.628174 350.982469 574.162549 350.982469 
Q 574.448486 350.982469 574.917236 350.748094 
z
M 579.62583 353.105907 
Q 580.139111 353.105907 580.493018 353.466844 
Q 580.849268 353.825438 580.849268 354.329344 
Q 580.849268 354.835594 580.490674 355.191844 
Q 580.13208 355.545751 579.62583 355.545751 
Q 579.11958 355.545751 578.76333 355.191844 
Q 578.409424 354.835594 578.409424 354.329344 
Q 578.409424 353.825438 578.76333 353.466844 
Q 579.11958 353.105907 579.62583 353.105907 
z
M 588.452393 350.396532 
Q 588.452393 351.884813 588.035205 353.173876 
Q 587.784424 353.963719 587.362549 354.469969 
Q 586.943018 354.973876 586.408643 355.271532 
Q 585.874268 355.569188 585.243799 355.569188 
Q 584.526611 355.569188 583.947705 355.203563 
Q 583.368799 354.835594 582.921143 354.153563 
Q 582.600049 353.656688 582.358643 352.829344 
Q 582.042236 351.709032 582.042236 350.513719 
Q 582.042236 348.896532 582.496924 347.539501 
Q 582.86958 346.419188 583.631299 345.823876 
Q 584.393018 345.226219 585.243799 345.226219 
Q 586.108643 345.226219 586.858643 345.816844 
Q 587.608643 346.405126 587.960205 347.401219 
Q 588.452393 348.769969 588.452393 350.396532 
z
M 586.195361 350.382469 
Q 586.195361 347.773876 586.167236 347.342626 
Q 586.092236 346.325438 585.815674 345.966844 
Q 585.632861 345.732469 585.222705 345.732469 
Q 584.906299 345.732469 584.723486 345.908251 
Q 584.451611 346.163719 584.355518 346.812938 
Q 584.261768 347.459813 584.261768 351.334032 
Q 584.261768 353.443407 584.409424 354.160594 
Q 584.51958 354.680907 584.723486 354.856688 
Q 584.929736 355.032469 585.264893 355.032469 
Q 585.632861 355.032469 585.815674 354.798094 
Q 586.122705 354.387938 586.167236 353.532469 
L 586.195361 350.382469 
z
" style="fill: #404040"/>
   </g>
   <g id="text_31">
    <path d="M 531.650943 307.150097 
L 531.650943 315.273534 
Q 531.650943 316.187597 531.730631 316.440722 
Q 531.812662 316.693847 532.068131 316.855565 
Q 532.325943 317.01494 532.890787 317.01494 
L 533.115787 317.01494 
L 533.115787 317.286815 
L 527.886881 317.286815 
L 527.886881 317.01494 
L 528.151725 317.01494 
Q 528.789225 317.01494 529.058756 316.869628 
Q 529.330631 316.721972 529.424381 316.466503 
Q 529.520475 316.211034 529.520475 315.273534 
L 529.520475 310.124315 
Q 529.520475 309.435253 529.45485 309.264159 
Q 529.389225 309.090722 529.208756 308.97119 
Q 529.030631 308.849315 528.796256 308.849315 
Q 528.421256 308.849315 527.886881 309.08369 
L 527.755631 308.818847 
L 531.409537 307.150097 
L 531.650943 307.150097 
z
M 538.325943 307.150097 
L 538.325943 315.273534 
Q 538.325943 316.187597 538.405631 316.440722 
Q 538.487662 316.693847 538.743131 316.855565 
Q 539.000943 317.01494 539.565787 317.01494 
L 539.790787 317.01494 
L 539.790787 317.286815 
L 534.561881 317.286815 
L 534.561881 317.01494 
L 534.826725 317.01494 
Q 535.464225 317.01494 535.733756 316.869628 
Q 536.005631 316.721972 536.099381 316.466503 
Q 536.195475 316.211034 536.195475 315.273534 
L 536.195475 310.124315 
Q 536.195475 309.435253 536.12985 309.264159 
Q 536.064225 309.090722 535.883756 308.97119 
Q 535.705631 308.849315 535.471256 308.849315 
Q 535.096256 308.849315 534.561881 309.08369 
L 534.430631 308.818847 
L 538.084537 307.150097 
L 538.325943 307.150097 
z
M 542.816568 315.029784 
Q 543.32985 315.029784 543.683756 315.390722 
Q 544.040006 315.749315 544.040006 316.253222 
Q 544.040006 316.759472 543.681412 317.115722 
Q 543.322818 317.469628 542.816568 317.469628 
Q 542.310318 317.469628 541.954068 317.115722 
Q 541.600162 316.759472 541.600162 316.253222 
Q 541.600162 315.749315 541.954068 315.390722 
Q 542.310318 315.029784 542.816568 315.029784 
z
M 549.803287 311.675878 
Q 550.850943 312.444628 551.256412 313.107909 
Q 551.664225 313.77119 551.664225 314.629003 
Q 551.664225 315.829003 550.759537 316.661034 
Q 549.85485 317.493065 548.303287 317.493065 
Q 546.831412 317.493065 546.025162 316.768847 
Q 545.218912 316.042284 545.218912 314.994628 
Q 545.218912 314.195409 545.682975 313.595409 
Q 546.149381 312.995409 547.232193 312.49619 
Q 546.053287 311.59619 545.720475 311.024315 
Q 545.387662 310.45244 545.387662 309.697753 
Q 545.387662 308.701659 546.233756 307.944628 
Q 547.07985 307.187597 548.551725 307.187597 
Q 549.972037 307.187597 550.7361 307.857909 
Q 551.502506 308.525878 551.502506 309.463378 
Q 551.502506 310.166503 551.087662 310.705565 
Q 550.675162 311.244628 549.803287 311.675878 
z
M 549.247818 311.303222 
Q 549.51735 310.937597 549.6486 310.482909 
Q 549.782193 310.028222 549.782193 309.486815 
Q 549.782193 308.535253 549.372037 308.029003 
Q 549.065006 307.63994 548.521256 307.63994 
Q 548.031412 307.63994 547.686881 307.99619 
Q 547.34235 308.350097 547.34235 308.87744 
Q 547.34235 309.414159 547.726725 309.988378 
Q 548.1111 310.562597 549.247818 311.303222 
z
M 547.782975 312.847753 
Q 547.555631 313.054003 547.459537 313.222753 
Q 547.314225 313.478222 547.197037 313.970409 
Q 547.07985 314.460253 547.07985 314.994628 
Q 547.07985 315.68369 547.255631 316.147753 
Q 547.431412 316.611815 547.757193 316.818065 
Q 548.082975 317.021972 548.427506 317.021972 
Q 548.961881 317.021972 549.327506 316.630565 
Q 549.693131 316.239159 549.693131 315.557128 
Q 549.693131 314.136815 547.782975 312.847753 
z
" style="fill: #404040; stroke: #ffffff; stroke-width: 3.8"/>
    <path d="M 531.650943 307.150097 
L 531.650943 315.273534 
Q 531.650943 316.187597 531.730631 316.440722 
Q 531.812662 316.693847 532.068131 316.855565 
Q 532.325943 317.01494 532.890787 317.01494 
L 533.115787 317.01494 
L 533.115787 317.286815 
L 527.886881 317.286815 
L 527.886881 317.01494 
L 528.151725 317.01494 
Q 528.789225 317.01494 529.058756 316.869628 
Q 529.330631 316.721972 529.424381 316.466503 
Q 529.520475 316.211034 529.520475 315.273534 
L 529.520475 310.124315 
Q 529.520475 309.435253 529.45485 309.264159 
Q 529.389225 309.090722 529.208756 308.97119 
Q 529.030631 308.849315 528.796256 308.849315 
Q 528.421256 308.849315 527.886881 309.08369 
L 527.755631 308.818847 
L 531.409537 307.150097 
L 531.650943 307.150097 
z
M 538.325943 307.150097 
L 538.325943 315.273534 
Q 538.325943 316.187597 538.405631 316.440722 
Q 538.487662 316.693847 538.743131 316.855565 
Q 539.000943 317.01494 539.565787 317.01494 
L 539.790787 317.01494 
L 539.790787 317.286815 
L 534.561881 317.286815 
L 534.561881 317.01494 
L 534.826725 317.01494 
Q 535.464225 317.01494 535.733756 316.869628 
Q 536.005631 316.721972 536.099381 316.466503 
Q 536.195475 316.211034 536.195475 315.273534 
L 536.195475 310.124315 
Q 536.195475 309.435253 536.12985 309.264159 
Q 536.064225 309.090722 535.883756 308.97119 
Q 535.705631 308.849315 535.471256 308.849315 
Q 535.096256 308.849315 534.561881 309.08369 
L 534.430631 308.818847 
L 538.084537 307.150097 
L 538.325943 307.150097 
z
M 542.816568 315.029784 
Q 543.32985 315.029784 543.683756 315.390722 
Q 544.040006 315.749315 544.040006 316.253222 
Q 544.040006 316.759472 543.681412 317.115722 
Q 543.322818 317.469628 542.816568 317.469628 
Q 542.310318 317.469628 541.954068 317.115722 
Q 541.600162 316.759472 541.600162 316.253222 
Q 541.600162 315.749315 541.954068 315.390722 
Q 542.310318 315.029784 542.816568 315.029784 
z
M 549.803287 311.675878 
Q 550.850943 312.444628 551.256412 313.107909 
Q 551.664225 313.77119 551.664225 314.629003 
Q 551.664225 315.829003 550.759537 316.661034 
Q 549.85485 317.493065 548.303287 317.493065 
Q 546.831412 317.493065 546.025162 316.768847 
Q 545.218912 316.042284 545.218912 314.994628 
Q 545.218912 314.195409 545.682975 313.595409 
Q 546.149381 312.995409 547.232193 312.49619 
Q 546.053287 311.59619 545.720475 311.024315 
Q 545.387662 310.45244 545.387662 309.697753 
Q 545.387662 308.701659 546.233756 307.944628 
Q 547.07985 307.187597 548.551725 307.187597 
Q 549.972037 307.187597 550.7361 307.857909 
Q 551.502506 308.525878 551.502506 309.463378 
Q 551.502506 310.166503 551.087662 310.705565 
Q 550.675162 311.244628 549.803287 311.675878 
z
M 549.247818 311.303222 
Q 549.51735 310.937597 549.6486 310.482909 
Q 549.782193 310.028222 549.782193 309.486815 
Q 549.782193 308.535253 549.372037 308.029003 
Q 549.065006 307.63994 548.521256 307.63994 
Q 548.031412 307.63994 547.686881 307.99619 
Q 547.34235 308.350097 547.34235 308.87744 
Q 547.34235 309.414159 547.726725 309.988378 
Q 548.1111 310.562597 549.247818 311.303222 
z
M 547.782975 312.847753 
Q 547.555631 313.054003 547.459537 313.222753 
Q 547.314225 313.478222 547.197037 313.970409 
Q 547.07985 314.460253 547.07985 314.994628 
Q 547.07985 315.68369 547.255631 316.147753 
Q 547.431412 316.611815 547.757193 316.818065 
Q 548.082975 317.021972 548.427506 317.021972 
Q 548.961881 317.021972 549.327506 316.630565 
Q 549.693131 316.239159 549.693131 315.557128 
Q 549.693131 314.136815 547.782975 312.847753 
z
" style="fill: #404040"/>
   </g>
   <g id="text_32">
    <path d="M 319.944086 378.630632 
L 324.662054 372.236882 
L 325.555023 372.236882 
L 325.555023 378.630632 
L 326.464398 378.630632 
L 326.464398 380.147039 
L 325.555023 380.147039 
L 325.555023 382.373601 
L 323.541742 382.373601 
L 323.541742 380.147039 
L 319.944086 380.147039 
L 319.944086 378.630632 
z
M 320.656586 378.630632 
L 323.541742 378.630632 
L 323.541742 374.711882 
L 320.656586 378.630632 
z
M 329.729242 382.579851 
L 332.433929 374.383757 
L 330.373773 374.383757 
Q 329.166742 374.383757 328.557367 374.69782 
Q 328.133148 374.918132 327.854242 375.525164 
L 327.577679 375.525164 
L 328.294867 372.440789 
L 334.212836 372.440789 
L 330.880023 382.579851 
L 329.729242 382.579851 
z
M 336.446429 380.11657 
Q 336.959711 380.11657 337.313617 380.477507 
Q 337.669867 380.836101 337.669867 381.340007 
Q 337.669867 381.846257 337.311273 382.202507 
Q 336.952679 382.556414 336.446429 382.556414 
Q 335.940179 382.556414 335.583929 382.202507 
Q 335.230023 381.846257 335.230023 381.340007 
Q 335.230023 380.836101 335.583929 380.477507 
Q 335.940179 380.11657 336.446429 380.11657 
z
M 340.540961 377.393132 
L 340.540961 377.137664 
Q 341.375336 376.893914 341.696429 376.68532 
Q 342.019867 376.476726 342.254242 376.050164 
Q 342.488617 375.621257 342.488617 375.180632 
Q 342.488617 374.573601 342.045648 374.137664 
Q 341.602679 373.701726 340.944086 373.701726 
Q 339.917523 373.701726 339.200336 374.784539 
L 338.928461 374.690789 
Q 339.455804 373.467351 340.280804 372.853289 
Q 341.105804 372.236882 342.115961 372.236882 
Q 343.147211 372.236882 343.817523 372.867351 
Q 344.487836 373.495476 344.487836 374.339226 
Q 344.487836 374.887664 344.176117 375.398601 
Q 343.866742 375.907195 343.198773 376.293914 
Q 344.056586 376.711101 344.506586 377.32282 
Q 344.956586 377.934539 344.956586 378.857976 
Q 344.956586 380.409539 343.831586 381.499382 
Q 342.708929 382.586882 340.819867 382.586882 
Q 339.558929 382.586882 338.980023 382.167351 
Q 338.562836 381.874382 338.562836 381.415007 
Q 338.562836 381.077507 338.804242 380.840789 
Q 339.045648 380.601726 339.362054 380.601726 
Q 339.603461 380.601726 339.816742 380.702507 
Q 339.933929 380.761101 340.646429 381.344695 
Q 341.361273 381.925945 341.984711 381.925945 
Q 342.526117 381.925945 342.912836 381.499382 
Q 343.301898 381.070476 343.301898 380.409539 
Q 343.301898 379.406414 342.598773 378.56032 
Q 341.895648 377.714226 340.540961 377.393132 
z
" style="fill: #404040; stroke: #ffffff; stroke-width: 3.8"/>
    <path d="M 319.944086 378.630632 
L 324.662054 372.236882 
L 325.555023 372.236882 
L 325.555023 378.630632 
L 326.464398 378.630632 
L 326.464398 380.147039 
L 325.555023 380.147039 
L 325.555023 382.373601 
L 323.541742 382.373601 
L 323.541742 380.147039 
L 319.944086 380.147039 
L 319.944086 378.630632 
z
M 320.656586 378.630632 
L 323.541742 378.630632 
L 323.541742 374.711882 
L 320.656586 378.630632 
z
M 329.729242 382.579851 
L 332.433929 374.383757 
L 330.373773 374.383757 
Q 329.166742 374.383757 328.557367 374.69782 
Q 328.133148 374.918132 327.854242 375.525164 
L 327.577679 375.525164 
L 328.294867 372.440789 
L 334.212836 372.440789 
L 330.880023 382.579851 
L 329.729242 382.579851 
z
M 336.446429 380.11657 
Q 336.959711 380.11657 337.313617 380.477507 
Q 337.669867 380.836101 337.669867 381.340007 
Q 337.669867 381.846257 337.311273 382.202507 
Q 336.952679 382.556414 336.446429 382.556414 
Q 335.940179 382.556414 335.583929 382.202507 
Q 335.230023 381.846257 335.230023 381.340007 
Q 335.230023 380.836101 335.583929 380.477507 
Q 335.940179 380.11657 336.446429 380.11657 
z
M 340.540961 377.393132 
L 340.540961 377.137664 
Q 341.375336 376.893914 341.696429 376.68532 
Q 342.019867 376.476726 342.254242 376.050164 
Q 342.488617 375.621257 342.488617 375.180632 
Q 342.488617 374.573601 342.045648 374.137664 
Q 341.602679 373.701726 340.944086 373.701726 
Q 339.917523 373.701726 339.200336 374.784539 
L 338.928461 374.690789 
Q 339.455804 373.467351 340.280804 372.853289 
Q 341.105804 372.236882 342.115961 372.236882 
Q 343.147211 372.236882 343.817523 372.867351 
Q 344.487836 373.495476 344.487836 374.339226 
Q 344.487836 374.887664 344.176117 375.398601 
Q 343.866742 375.907195 343.198773 376.293914 
Q 344.056586 376.711101 344.506586 377.32282 
Q 344.956586 377.934539 344.956586 378.857976 
Q 344.956586 380.409539 343.831586 381.499382 
Q 342.708929 382.586882 340.819867 382.586882 
Q 339.558929 382.586882 338.980023 382.167351 
Q 338.562836 381.874382 338.562836 381.415007 
Q 338.562836 381.077507 338.804242 380.840789 
Q 339.045648 380.601726 339.362054 380.601726 
Q 339.603461 380.601726 339.816742 380.702507 
Q 339.933929 380.761101 340.646429 381.344695 
Q 341.361273 381.925945 341.984711 381.925945 
Q 342.526117 381.925945 342.912836 381.499382 
Q 343.301898 381.070476 343.301898 380.409539 
Q 343.301898 379.406414 342.598773 378.56032 
Q 341.895648 377.714226 340.540961 377.393132 
z
" style="fill: #404040"/>
   </g>
  </g>
 </g>
 <defs>
  <clipPath id="p26635dbc6a">
   <rect x="7.2" y="51.034687" width="730.764" height="434.511496"/>
  </clipPath>
 </defs>
</svg>
