<?xml version="1.0" encoding="utf-8" standalone="no"?>
<!DOCTYPE svg PUBLIC "-//W3C//DTD SVG 1.1//EN"
  "http://www.w3.org/Graphics/SVG/1.1/DTD/svg11.dtd">
<svg xmlns:xlink="http://www.w3.org/1999/xlink" width="745.164pt" height="496.324398pt" viewBox="0 0 745.164 496.324398" xmlns="http://www.w3.org/2000/svg" version="1.1">
 <metadata>
  <rdf:RDF xmlns:dc="http://purl.org/dc/elements/1.1/" xmlns:cc="http://creativecommons.org/ns#" xmlns:rdf="http://www.w3.org/1999/02/22-rdf-syntax-ns#">
   <cc:Work>
    <dc:type rdf:resource="http://purl.org/dc/dcmitype/StillImage"/>
    <dc:date>2026-07-13T16:58:54.252516</dc:date>
    <dc:format>image/svg+xml</dc:format>
    <dc:creator>
     <cc:Agent>
      <dc:title>Matplotlib v3.10.8, https://matplotlib.org/</dc:title>
     </cc:Agent>
    </dc:creator>
   </cc:Work>
  </rdf:RDF>
 </metadata>
 <defs>
  <style type="text/css">*{stroke-linejoin: round; stroke-linecap: butt}</style>
 </defs>
 <g id="figure_1">
  <g id="patch_1">
   <path d="M 0 496.324398 
L 745.164 496.324398 
L 745.164 0 
L 0 0 
L 0 496.324398 
z
" style="fill: none"/>
  </g>
  <g id="axes_1">
   <g id="patch_2">
    <path d="M 120.350555 436.86251 
Q 120.350555 457.955915 120.350555 476.743037 
" clip-path="url(#p6483ab45e2)" style="fill: none; stroke: #111111; stroke-width: 2.062802; stroke-linejoin: miter; stroke-linecap: round"/>
    <path d="M 123.954652 469.534844 
L 120.350555 476.743037 
L 116.746458 469.534844 
z
" clip-path="url(#p6483ab45e2)" style="fill: #111111; stroke: #111111; stroke-width: 2.062802; stroke-linejoin: miter; stroke-linecap: round"/>
   </g>
   <g id="patch_3">
    <path d="M 120.350555 351.09299 
Q 120.350555 370.696714 120.350555 386.592289 
" clip-path="url(#p6483ab45e2)" style="fill: none; stroke: #111111; stroke-width: 3.31667; stroke-linejoin: miter; stroke-linecap: round"/>
    <path d="M 124.355889 378.58162 
L 120.350555 386.592289 
L 116.34522 378.58162 
z
" clip-path="url(#p6483ab45e2)" style="fill: #111111; stroke: #111111; stroke-width: 3.31667; stroke-linejoin: miter; stroke-linecap: round"/>
   </g>
   <g id="patch_4">
    <path d="M 120.350555 267.652964 
Q 120.350555 287.581623 120.350555 302.492115 
" clip-path="url(#p6483ab45e2)" style="fill: none; stroke: #111111; stroke-width: 4.488385; stroke-linejoin: miter; stroke-linecap: round"/>
    <path d="M 124.730838 293.731548 
L 120.350555 302.492115 
L 115.970272 293.731548 
z
" clip-path="url(#p6483ab45e2)" style="fill: #111111; stroke: #111111; stroke-width: 4.488385; stroke-linejoin: miter; stroke-linecap: round"/>
   </g>
   <g id="patch_5">
    <path d="M 370.224697 300.895815 
Q 370.224697 324.677532 370.224697 345.870128 
" clip-path="url(#p6483ab45e2)" style="fill: none; stroke: #111111; stroke-width: 2.315781; stroke-linejoin: miter; stroke-linecap: round"/>
    <path d="M 373.909747 338.500028 
L 370.224697 345.870128 
L 366.539647 338.500028 
z
" clip-path="url(#p6483ab45e2)" style="fill: #111111; stroke: #111111; stroke-width: 2.315781; stroke-linejoin: miter; stroke-linecap: round"/>
   </g>
   <g id="patch_6">
    <path d="M 370.224697 206.855602 
Q 370.224697 227.90636 370.224697 244.473483 
" clip-path="url(#p6483ab45e2)" style="fill: none; stroke: #111111; stroke-width: 4.010286; stroke-linejoin: miter; stroke-linecap: round"/>
    <path d="M 374.451988 236.0189 
L 370.224697 244.473483 
L 365.997405 236.0189 
z
" clip-path="url(#p6483ab45e2)" style="fill: #111111; stroke: #111111; stroke-width: 4.010286; stroke-linejoin: miter; stroke-linecap: round"/>
   </g>
   <g id="patch_7">
    <path d="M 370.224697 120.898327 
Q 370.224697 140.638576 370.224697 153.894228 
" clip-path="url(#p6483ab45e2)" style="fill: none; stroke: #111111; stroke-width: 5.8; stroke-linejoin: miter; stroke-linecap: round"/>
    <path d="M 375.024697 144.294228 
L 370.224697 153.894228 
L 365.424697 144.294228 
z
" clip-path="url(#p6483ab45e2)" style="fill: #111111; stroke: #111111; stroke-width: 5.8; stroke-linejoin: miter; stroke-linecap: round"/>
   </g>
   <g id="patch_8">
    <path d="M 586.153672 240.114122 
Q 586.153672 263.571904 586.153672 283.203958 
" clip-path="url(#p6483ab45e2)" style="fill: none; stroke: #111111; stroke-width: 3.421836; stroke-linejoin: miter; stroke-linecap: round"/>
    <path d="M 590.19266 275.125983 
L 586.153672 283.203958 
L 582.114685 275.125983 
z
" clip-path="url(#p6483ab45e2)" style="fill: #111111; stroke: #111111; stroke-width: 3.421836; stroke-linejoin: miter; stroke-linecap: round"/>
   </g>
   <g id="line2d_1">
    <path d="M 165.610777 479.04932 
L 550.322663 479.04932 
" clip-path="url(#p6483ab45e2)" style="fill: none; stroke-dasharray: 5.6,4.2; stroke-dashoffset: 0; stroke: #404040; stroke-width: 1.4"/>
   </g>
   <g id="line2d_2">
    <path d="M 165.610777 390.300438 
L 550.322663 390.300438 
" clip-path="url(#p6483ab45e2)" style="fill: none; stroke-dasharray: 5.6,4.2; stroke-dashoffset: 0; stroke: #404040; stroke-width: 1.4"/>
   </g>
   <g id="line2d_3">
    <path d="M 415.484919 348.45925 
L 560.694797 348.45925 
" clip-path="url(#p6483ab45e2)" style="fill: none; stroke-dasharray: 5.6,4.2; stroke-dashoffset: 0; stroke: #404040; stroke-width: 1.4"/>
   </g>
   <g id="patch_9">
    <path d="M 665.359061 287.029686 
Q 585.0827 380.761438 505.574371 473.596427 
" clip-path="url(#p6483ab45e2)" style="fill: none; stroke: #404040; stroke-width: 1.056051; stroke-linejoin: miter; stroke-linecap: round"/>
    <path d="M 511.519611 471.090363 
L 505.574371 473.596427 
L 507.136663 467.336596 
z
" clip-path="url(#p6483ab45e2)" style="fill: #404040; stroke: #404040; stroke-width: 1.056051; stroke-linejoin: miter; stroke-linecap: round"/>
   </g>
   <g id="patch_10">
    <path d="M 620.098839 287.029686 
Q 577.825972 336.388051 537.49986 383.473358 
" clip-path="url(#p6483ab45e2)" style="fill: none; stroke: #404040; stroke-width: 2.676811; stroke-linejoin: miter; stroke-linecap: round"/>
    <path d="M 544.558287 380.498058 
L 537.49986 383.473358 
L 539.354676 376.041436 
z
" clip-path="url(#p6483ab45e2)" style="fill: #404040; stroke: #404040; stroke-width: 2.676811; stroke-linejoin: miter; stroke-linecap: round"/>
   </g>
   <g id="patch_11">
    <path d="M 574.838617 287.029686 
Q 541.744074 315.77699 509.523029 343.765536 
" clip-path="url(#p6483ab45e2)" style="fill: none; stroke: #404040; stroke-width: 1.034877; stroke-linejoin: miter; stroke-linecap: round"/>
    <path d="M 515.756498 342.163442 
L 509.523029 343.765536 
L 511.981435 337.817505 
z
" clip-path="url(#p6483ab45e2)" style="fill: #404040; stroke: #404040; stroke-width: 1.034877; stroke-linejoin: miter; stroke-linecap: round"/>
   </g>
   <g id="patch_12">
    <path d="M 370.224697 348.45925 
Q 335.315666 367.919718 303.575083 385.613897 
" clip-path="url(#p6483ab45e2)" style="fill: none; stroke: #404040; stroke-width: 3.244545; stroke-linejoin: miter; stroke-linecap: round"/>
    <path d="M 311.649981 385.251035 
L 303.575083 385.613897 
L 308.129733 378.936261 
z
" clip-path="url(#p6483ab45e2)" style="fill: #404040; stroke: #404040; stroke-width: 3.244545; stroke-linejoin: miter; stroke-linecap: round"/>
   </g>
   <g id="line2d_4">
    <path d="M 120.350555 390.300438 
L 120.350555 432.487249 
" clip-path="url(#p6483ab45e2)" style="fill: none; stroke: #111111; stroke-width: 2.062802"/>
   </g>
   <g id="line2d_5">
    <path d="M 120.350555 307.510281 
L 120.350555 346.71773 
" clip-path="url(#p6483ab45e2)" style="fill: none; stroke: #111111; stroke-width: 3.31667"/>
   </g>
   <g id="line2d_6">
    <path d="M 120.350555 223.420387 
L 120.350555 263.277704 
" clip-path="url(#p6483ab45e2)" style="fill: none; stroke: #111111; stroke-width: 4.488385"/>
   </g>
   <g id="line2d_7">
    <path d="M 370.224697 248.957119 
L 370.224697 296.520554 
" clip-path="url(#p6483ab45e2)" style="fill: none; stroke: #111111; stroke-width: 2.315781"/>
   </g>
   <g id="line2d_8">
    <path d="M 370.224697 160.378825 
L 370.224697 202.480341 
" clip-path="url(#p6483ab45e2)" style="fill: none; stroke: #111111; stroke-width: 4.010286"/>
   </g>
   <g id="line2d_9">
    <path d="M 370.224697 77.042569 
L 370.224697 116.523066 
" clip-path="url(#p6483ab45e2)" style="fill: none; stroke: #111111; stroke-width: 5.8"/>
   </g>
   <g id="line2d_10">
    <path d="M 586.153672 188.823298 
L 586.153672 235.738862 
" clip-path="url(#p6483ab45e2)" style="fill: none; stroke: #111111; stroke-width: 3.421836"/>
   </g>
   <g id="line2d_11">
    <path d="M 75.090333 479.04932 
L 165.610777 479.04932 
" clip-path="url(#p6483ab45e2)" style="fill: none; stroke: #111111; stroke-width: 3.6; stroke-linecap: round"/>
   </g>
   <g id="line2d_12">
    <path d="M 75.090333 390.300438 
L 165.610777 390.300438 
" clip-path="url(#p6483ab45e2)" style="fill: none; stroke: #111111; stroke-width: 3.6; stroke-linecap: round"/>
   </g>
   <g id="line2d_13">
    <path d="M 75.090333 307.510281 
L 165.610777 307.510281 
" clip-path="url(#p6483ab45e2)" style="fill: none; stroke: #111111; stroke-width: 3.6; stroke-linecap: round"/>
   </g>
   <g id="line2d_14">
    <path d="M 75.090333 223.420387 
L 165.610777 223.420387 
" clip-path="url(#p6483ab45e2)" style="fill: none; stroke: #111111; stroke-width: 3.6; stroke-linecap: round"/>
   </g>
   <g id="line2d_15">
    <path d="M 324.964475 348.45925 
L 415.484919 348.45925 
" clip-path="url(#p6483ab45e2)" style="fill: none; stroke: #111111; stroke-width: 3.6; stroke-linecap: round"/>
   </g>
   <g id="line2d_16">
    <path d="M 324.964475 248.957119 
L 415.484919 248.957119 
" clip-path="url(#p6483ab45e2)" style="fill: none; stroke: #111111; stroke-width: 3.6; stroke-linecap: round"/>
   </g>
   <g id="line2d_17">
    <path d="M 324.964475 160.378825 
L 415.484919 160.378825 
" clip-path="url(#p6483ab45e2)" style="fill: none; stroke: #111111; stroke-width: 3.6; stroke-linecap: round"/>
   </g>
   <g id="line2d_18">
    <path d="M 324.964475 77.042569 
L 415.484919 77.042569 
" clip-path="url(#p6483ab45e2)" style="fill: none; stroke: #111111; stroke-width: 3.6; stroke-linecap: round"/>
   </g>
   <g id="line2d_19">
    <path d="M 574.838617 287.029686 
L 665.359061 287.029686 
" clip-path="url(#p6483ab45e2)" style="fill: none; stroke: #111111; stroke-width: 3.6; stroke-linecap: round"/>
   </g>
   <g id="line2d_20">
    <path d="M 574.838617 188.823298 
L 665.359061 188.823298 
" clip-path="url(#p6483ab45e2)" style="fill: none; stroke: #111111; stroke-width: 3.6; stroke-linecap: round"/>
   </g>
   <g id="text_1">
    <!-- $^{270}\mathrm{Ra}$ -->
    <g transform="translate(326.852 33.034687) scale(0.34 -0.34)">
     <defs>
      <path id="DejaVuSans-32" d="M 1228 531 
L 3431 531 
L 3431 0 
L 469 0 
L 469 531 
Q 828 903 1448 1529 
Q 2069 2156 2228 2338 
Q 2531 2678 2651 2914 
Q 2772 3150 2772 3378 
Q 2772 3750 2511 3984 
Q 2250 4219 1831 4219 
Q 1534 4219 1204 4116 
Q 875 4013 500 3803 
L 500 4441 
Q 881 4594 1212 4672 
Q 1544 4750 1819 4750 
Q 2544 4750 2975 4387 
Q 3406 4025 3406 3419 
Q 3406 3131 3298 2873 
Q 3191 2616 2906 2266 
Q 2828 2175 2409 1742 
Q 1991 1309 1228 531 
z
" transform="scale(0.015625)"/>
      <path id="DejaVuSans-37" d="M 525 4666 
L 3525 4666 
L 3525 4397 
L 1831 0 
L 1172 0 
L 2766 4134 
L 525 4134 
L 525 4666 
z
" transform="scale(0.015625)"/>
      <path id="DejaVuSans-30" d="M 2034 4250 
Q 1547 4250 1301 3770 
Q 1056 3291 1056 2328 
Q 1056 1369 1301 889 
Q 1547 409 2034 409 
Q 2525 409 2770 889 
Q 3016 1369 3016 2328 
Q 3016 3291 2770 3770 
Q 2525 4250 2034 4250 
z
M 2034 4750 
Q 2819 4750 3233 4129 
Q 3647 3509 3647 2328 
Q 3647 1150 3233 529 
Q 2819 -91 2034 -91 
Q 1250 -91 836 529 
Q 422 1150 422 2328 
Q 422 3509 836 4129 
Q 1250 4750 2034 4750 
z
" transform="scale(0.015625)"/>
      <path id="DejaVuSans-52" d="M 2841 2188 
Q 3044 2119 3236 1894 
Q 3428 1669 3622 1275 
L 4263 0 
L 3584 0 
L 2988 1197 
Q 2756 1666 2539 1819 
Q 2322 1972 1947 1972 
L 1259 1972 
L 1259 0 
L 628 0 
L 628 4666 
L 2053 4666 
Q 2853 4666 3247 4331 
Q 3641 3997 3641 3322 
Q 3641 2881 3436 2590 
Q 3231 2300 2841 2188 
z
M 1259 4147 
L 1259 2491 
L 2053 2491 
Q 2509 2491 2742 2702 
Q 2975 2913 2975 3322 
Q 2975 3731 2742 3939 
Q 2509 4147 2053 4147 
L 1259 4147 
z
" transform="scale(0.015625)"/>
      <path id="DejaVuSans-61" d="M 2194 1759 
Q 1497 1759 1228 1600 
Q 959 1441 959 1056 
Q 959 750 1161 570 
Q 1363 391 1709 391 
Q 2188 391 2477 730 
Q 2766 1069 2766 1631 
L 2766 1759 
L 2194 1759 
z
M 3341 1997 
L 3341 0 
L 2766 0 
L 2766 531 
Q 2569 213 2275 61 
Q 1981 -91 1556 -91 
Q 1019 -91 701 211 
Q 384 513 384 1019 
Q 384 1609 779 1909 
Q 1175 2209 1959 2209 
L 2766 2209 
L 2766 2266 
Q 2766 2663 2505 2880 
Q 2244 3097 1772 3097 
Q 1472 3097 1187 3025 
Q 903 2953 641 2809 
L 641 3341 
Q 956 3463 1253 3523 
Q 1550 3584 1831 3584 
Q 2591 3584 2966 3190 
Q 3341 2797 3341 1997 
z
" transform="scale(0.015625)"/>
     </defs>
     <use xlink:href="#DejaVuSans-32" transform="translate(0.957031 39.046875) scale(0.7)"/>
     <use xlink:href="#DejaVuSans-37" transform="translate(45.493164 39.046875) scale(0.7)"/>
     <use xlink:href="#DejaVuSans-30" transform="translate(90.029297 39.046875) scale(0.7)"/>
     <use xlink:href="#DejaVuSans-52" transform="translate(137.299805 0.765625)"/>
     <use xlink:href="#DejaVuSans-61" transform="translate(206.782227 0.765625)"/>
    </g>
   </g>
   <g id="text_2">
    <!-- 0 -->
    <g transform="translate(46.98525 483.46432) scale(0.16 -0.16)">
     <defs>
      <path id="DejaVuSans-BoldOblique-30" d="M 1913 728 
Q 2153 728 2339 872 
Q 2525 1016 2650 1294 
Q 2738 1491 2809 1742 
Q 2881 1994 2944 2338 
Q 2997 2616 3025 2850 
Q 3053 3084 3053 3250 
Q 3053 3600 2928 3764 
Q 2803 3928 2541 3928 
Q 2297 3928 2112 3789 
Q 1928 3650 1806 3366 
Q 1713 3163 1636 2903 
Q 1559 2644 1503 2338 
Q 1450 2056 1422 1815 
Q 1394 1575 1394 1409 
Q 1394 1063 1522 895 
Q 1650 728 1913 728 
z
M 4225 3072 
Q 4225 2450 4053 1862 
Q 3881 1275 3572 831 
Q 3256 375 2809 142 
Q 2363 -91 1813 -91 
Q 1047 -91 639 343 
Q 231 778 231 1594 
Q 231 2206 401 2795 
Q 572 3384 878 3822 
Q 1200 4281 1644 4515 
Q 2088 4750 2644 4750 
Q 3403 4750 3814 4314 
Q 4225 3878 4225 3072 
z
" transform="scale(0.015625)"/>
     </defs>
     <use xlink:href="#DejaVuSans-BoldOblique-30"/>
    </g>
   </g>
   <g id="text_3">
    <!-- 0⁺ -->
    <g transform="translate(182.58336 484.204554) scale(0.23 -0.23)">
     <defs>
      <path id="TimesNewRomanPS-BoldMT-30" d="M 2966 2119 
Q 2966 1484 2788 934 
Q 2681 597 2501 381 
Q 2322 166 2094 39 
Q 1866 -88 1597 -88 
Q 1291 -88 1044 68 
Q 797 225 606 516 
Q 469 728 366 1081 
Q 231 1559 231 2069 
Q 231 2759 425 3338 
Q 584 3816 909 4070 
Q 1234 4325 1597 4325 
Q 1966 4325 2286 4073 
Q 2606 3822 2756 3397 
Q 2966 2813 2966 2119 
z
M 2003 2125 
Q 2003 3238 1991 3422 
Q 1959 3856 1841 4009 
Q 1763 4109 1588 4109 
Q 1453 4109 1375 4034 
Q 1259 3925 1218 3648 
Q 1178 3372 1178 1719 
Q 1178 819 1241 513 
Q 1288 291 1375 216 
Q 1463 141 1606 141 
Q 1763 141 1841 241 
Q 1972 416 1991 781 
L 2003 2125 
z
" transform="scale(0.015625)"/>
      <path id="DejaVuSerif-Bold-207a" d="M 1916 4344 
L 1916 3441 
L 2950 3441 
L 2950 3044 
L 1916 3044 
L 1916 2141 
L 1463 2141 
L 1463 3044 
L 428 3044 
L 428 3441 
L 1463 3441 
L 1463 4344 
L 1916 4344 
z
" transform="scale(0.015625)"/>
     </defs>
     <use xlink:href="#TimesNewRomanPS-BoldMT-30"/>
     <use xlink:href="#DejaVuSerif-Bold-207a" transform="translate(50 0)"/>
    </g>
   </g>
   <g id="text_4">
    <!-- 1866 -->
    <g transform="translate(13.58775 394.715438) scale(0.16 -0.16)">
     <defs>
      <path id="DejaVuSans-BoldOblique-31" d="M 441 831 
L 1503 831 
L 2088 3847 
L 953 3622 
L 1113 4441 
L 2241 4666 
L 3384 4666 
L 2644 831 
L 3700 831 
L 3541 0 
L 275 0 
L 441 831 
z
" transform="scale(0.015625)"/>
      <path id="DejaVuSans-BoldOblique-38" d="M 2150 2088 
Q 1784 2088 1539 1839 
Q 1294 1591 1294 1228 
Q 1294 969 1453 817 
Q 1613 666 1888 666 
Q 2259 666 2503 911 
Q 2747 1156 2747 1522 
Q 2747 1781 2586 1934 
Q 2425 2088 2150 2088 
z
M 1381 2484 
Q 1044 2625 876 2850 
Q 709 3075 709 3391 
Q 709 4025 1229 4387 
Q 1750 4750 2669 4750 
Q 3406 4750 3812 4475 
Q 4219 4200 4219 3700 
Q 4219 3256 3936 2940 
Q 3653 2625 3128 2484 
Q 3509 2338 3690 2091 
Q 3872 1844 3872 1466 
Q 3872 747 3311 328 
Q 2750 -91 1772 -91 
Q 1000 -91 570 217 
Q 141 525 141 1075 
Q 141 1572 470 1945 
Q 800 2319 1381 2484 
z
M 2559 3994 
Q 2241 3994 2048 3808 
Q 1856 3622 1856 3316 
Q 1856 3103 1995 2972 
Q 2134 2841 2363 2841 
Q 2681 2841 2873 3027 
Q 3066 3213 3066 3519 
Q 3066 3734 2927 3864 
Q 2788 3994 2559 3994 
z
" transform="scale(0.015625)"/>
      <path id="DejaVuSans-BoldOblique-36" d="M 2316 2303 
Q 1959 2303 1731 2009 
Q 1503 1716 1503 1253 
Q 1503 975 1643 820 
Q 1784 666 2034 666 
Q 2388 666 2617 955 
Q 2847 1244 2847 1684 
Q 2847 1984 2709 2143 
Q 2572 2303 2316 2303 
z
M 4225 4544 
L 4056 3681 
Q 3788 3819 3534 3887 
Q 3281 3956 3028 3956 
Q 2447 3956 2087 3643 
Q 1728 3331 1650 2766 
Q 1894 2925 2151 3001 
Q 2409 3078 2700 3078 
Q 3275 3078 3640 2737 
Q 4006 2397 4006 1869 
Q 4006 1006 3442 454 
Q 2878 -97 1991 -97 
Q 1194 -97 756 354 
Q 319 806 319 1631 
Q 319 2269 512 2848 
Q 706 3428 1056 3847 
Q 1431 4294 1942 4519 
Q 2453 4744 3091 4744 
Q 3384 4744 3662 4694 
Q 3941 4644 4225 4544 
z
" transform="scale(0.015625)"/>
     </defs>
     <use xlink:href="#DejaVuSans-BoldOblique-31"/>
     <use xlink:href="#DejaVuSans-BoldOblique-38" transform="translate(69.580078 0)"/>
     <use xlink:href="#DejaVuSans-BoldOblique-36" transform="translate(139.160156 0)"/>
     <use xlink:href="#DejaVuSans-BoldOblique-36" transform="translate(208.740234 0)"/>
    </g>
   </g>
   <g id="text_5">
    <!-- 2⁺ -->
    <g transform="translate(182.58336 395.455673) scale(0.23 -0.23)">
     <defs>
      <path id="TimesNewRomanPS-BoldMT-32" d="M 2650 0 
L 156 0 
L 156 69 
Q 1303 1434 1548 1906 
Q 1794 2378 1794 2828 
Q 1794 3156 1591 3373 
Q 1388 3591 1094 3591 
Q 613 3591 347 3109 
L 231 3150 
Q 400 3750 744 4037 
Q 1088 4325 1538 4325 
Q 1859 4325 2125 4175 
Q 2391 4025 2541 3764 
Q 2691 3503 2691 3275 
Q 2691 2859 2459 2431 
Q 2144 1853 1081 819 
L 1997 819 
Q 2334 819 2436 847 
Q 2538 875 2603 942 
Q 2669 1009 2775 1225 
L 2888 1225 
L 2650 0 
z
" transform="scale(0.015625)"/>
     </defs>
     <use xlink:href="#TimesNewRomanPS-BoldMT-32"/>
     <use xlink:href="#DejaVuSerif-Bold-207a" transform="translate(50 0)"/>
    </g>
   </g>
   <g id="text_6">
    <!-- 3607 -->
    <g transform="translate(13.58775 311.925281) scale(0.16 -0.16)">
     <defs>
      <path id="DejaVuSans-BoldOblique-33" d="M 3022 2516 
Q 3375 2434 3572 2187 
Q 3769 1941 3769 1581 
Q 3769 806 3155 357 
Q 2541 -91 1466 -91 
Q 1059 -91 692 -33 
Q 325 25 0 141 
L 178 1069 
Q 456 906 784 817 
Q 1113 728 1441 728 
Q 1969 728 2276 926 
Q 2584 1125 2584 1459 
Q 2584 1738 2350 1877 
Q 2116 2016 1644 2016 
L 1166 2016 
L 1319 2791 
L 1825 2791 
Q 2316 2791 2602 2969 
Q 2888 3147 2888 3450 
Q 2888 3688 2689 3813 
Q 2491 3938 2113 3938 
Q 1847 3938 1534 3869 
Q 1222 3800 884 3669 
L 1056 4550 
Q 1425 4650 1783 4700 
Q 2141 4750 2491 4750 
Q 3281 4750 3679 4487 
Q 4078 4225 4078 3706 
Q 4078 3241 3801 2930 
Q 3525 2619 3022 2516 
z
" transform="scale(0.015625)"/>
      <path id="DejaVuSans-BoldOblique-37" d="M 922 4666 
L 4441 4666 
L 4300 3981 
L 1703 0 
L 500 0 
L 2969 3781 
L 756 3781 
L 922 4666 
z
" transform="scale(0.015625)"/>
     </defs>
     <use xlink:href="#DejaVuSans-BoldOblique-33"/>
     <use xlink:href="#DejaVuSans-BoldOblique-36" transform="translate(69.580078 0)"/>
     <use xlink:href="#DejaVuSans-BoldOblique-30" transform="translate(139.160156 0)"/>
     <use xlink:href="#DejaVuSans-BoldOblique-37" transform="translate(208.740234 0)"/>
    </g>
   </g>
   <g id="text_7">
    <!-- 4⁺ -->
    <g transform="translate(182.58336 312.665516) scale(0.23 -0.23)">
     <defs>
      <path id="TimesNewRomanPS-BoldMT-34" d="M 159 1597 
L 2172 4325 
L 2553 4325 
L 2553 1597 
L 2941 1597 
L 2941 950 
L 2553 950 
L 2553 0 
L 1694 0 
L 1694 950 
L 159 950 
L 159 1597 
z
M 463 1597 
L 1694 1597 
L 1694 3269 
L 463 1597 
z
" transform="scale(0.015625)"/>
     </defs>
     <use xlink:href="#TimesNewRomanPS-BoldMT-34"/>
     <use xlink:href="#DejaVuSerif-Bold-207a" transform="translate(50 0)"/>
    </g>
   </g>
   <g id="text_8">
    <!-- 5375 -->
    <g transform="translate(13.58775 227.835387) scale(0.16 -0.16)">
     <defs>
      <path id="DejaVuSans-BoldOblique-35" d="M 1131 4666 
L 4122 4666 
L 3950 3781 
L 1919 3781 
L 1778 3059 
Q 1916 3097 2064 3117 
Q 2213 3138 2363 3138 
Q 3078 3138 3481 2811 
Q 3884 2484 3884 1906 
Q 3884 988 3262 448 
Q 2641 -91 1575 -91 
Q 1184 -91 815 -14 
Q 447 63 84 219 
L 269 1166 
Q 616 941 942 834 
Q 1269 728 1606 728 
Q 2100 728 2397 986 
Q 2694 1244 2694 1663 
Q 2694 1963 2469 2139 
Q 2244 2316 1856 2316 
Q 1594 2316 1289 2248 
Q 984 2181 622 2041 
L 1131 4666 
z
" transform="scale(0.015625)"/>
     </defs>
     <use xlink:href="#DejaVuSans-BoldOblique-35"/>
     <use xlink:href="#DejaVuSans-BoldOblique-33" transform="translate(69.580078 0)"/>
     <use xlink:href="#DejaVuSans-BoldOblique-37" transform="translate(139.160156 0)"/>
     <use xlink:href="#DejaVuSans-BoldOblique-35" transform="translate(208.740234 0)"/>
    </g>
   </g>
   <g id="text_9">
    <!-- 6⁺ -->
    <g transform="translate(182.58336 228.575621) scale(0.23 -0.23)">
     <defs>
      <path id="TimesNewRomanPS-BoldMT-36" d="M 3006 4325 
L 3006 4238 
Q 2441 4094 2098 3867 
Q 1756 3641 1557 3317 
Q 1359 2994 1250 2516 
Q 1388 2609 1478 2638 
Q 1681 2700 1888 2700 
Q 2363 2700 2680 2354 
Q 2997 2009 2997 1413 
Q 2997 994 2825 644 
Q 2653 294 2337 103 
Q 2022 -88 1663 -88 
Q 1272 -88 940 126 
Q 609 341 423 753 
Q 238 1166 238 1650 
Q 238 2363 580 2977 
Q 922 3591 1551 3955 
Q 2181 4319 3006 4325 
z
M 1209 2263 
Q 1184 1831 1184 1631 
Q 1184 1200 1267 797 
Q 1350 394 1494 231 
Q 1597 116 1738 116 
Q 1881 116 1993 283 
Q 2106 450 2106 963 
Q 2106 1825 1897 2153 
Q 1763 2366 1534 2366 
Q 1409 2366 1209 2263 
z
" transform="scale(0.015625)"/>
     </defs>
     <use xlink:href="#TimesNewRomanPS-BoldMT-36"/>
     <use xlink:href="#DejaVuSerif-Bold-207a" transform="translate(50 0)"/>
    </g>
   </g>
   <g id="text_10">
    <!-- 2746 -->
    <g transform="translate(263.461892 352.87425) scale(0.16 -0.16)">
     <defs>
      <path id="DejaVuSans-BoldOblique-32" d="M 1581 884 
L 3609 884 
L 3438 0 
L 50 0 
L 225 891 
L 2209 2388 
Q 2534 2638 2704 2894 
Q 2875 3150 2875 3391 
Q 2875 3647 2700 3787 
Q 2525 3928 2209 3928 
Q 1913 3928 1547 3811 
Q 1181 3694 722 3450 
L 922 4441 
Q 1347 4597 1756 4673 
Q 2166 4750 2566 4750 
Q 3278 4750 3687 4442 
Q 4097 4134 4097 3603 
Q 4097 3147 3847 2772 
Q 3597 2397 2747 1759 
L 1581 884 
z
" transform="scale(0.015625)"/>
      <path id="DejaVuSans-BoldOblique-34" d="M 2638 3641 
L 978 1722 
L 2259 1722 
L 2638 3641 
z
M 2606 4666 
L 3975 4666 
L 3397 1722 
L 4063 1722 
L 3897 850 
L 3231 850 
L 3066 0 
L 1925 0 
L 2094 850 
L -6 850 
L 197 1881 
L 2606 4666 
z
" transform="scale(0.015625)"/>
     </defs>
     <use xlink:href="#DejaVuSans-BoldOblique-32"/>
     <use xlink:href="#DejaVuSans-BoldOblique-37" transform="translate(69.580078 0)"/>
     <use xlink:href="#DejaVuSans-BoldOblique-34" transform="translate(139.160156 0)"/>
     <use xlink:href="#DejaVuSans-BoldOblique-36" transform="translate(208.740234 0)"/>
    </g>
   </g>
   <g id="text_11">
    <!-- 0⁺ -->
    <g transform="translate(432.457502 353.614484) scale(0.23 -0.23)">
     <use xlink:href="#TimesNewRomanPS-BoldMT-30"/>
     <use xlink:href="#DejaVuSerif-Bold-207a" transform="translate(50 0)"/>
    </g>
   </g>
   <g id="text_12">
    <!-- 4838 -->
    <g transform="translate(263.461892 253.372119) scale(0.16 -0.16)">
     <use xlink:href="#DejaVuSans-BoldOblique-34"/>
     <use xlink:href="#DejaVuSans-BoldOblique-38" transform="translate(69.580078 0)"/>
     <use xlink:href="#DejaVuSans-BoldOblique-33" transform="translate(139.160156 0)"/>
     <use xlink:href="#DejaVuSans-BoldOblique-38" transform="translate(208.740234 0)"/>
    </g>
   </g>
   <g id="text_13">
    <!-- 2⁺ -->
    <g transform="translate(432.457502 254.112353) scale(0.23 -0.23)">
     <use xlink:href="#TimesNewRomanPS-BoldMT-32"/>
     <use xlink:href="#DejaVuSerif-Bold-207a" transform="translate(50 0)"/>
    </g>
   </g>
   <g id="text_14">
    <!-- 6701 -->
    <g transform="translate(263.461892 164.793825) scale(0.16 -0.16)">
     <use xlink:href="#DejaVuSans-BoldOblique-36"/>
     <use xlink:href="#DejaVuSans-BoldOblique-37" transform="translate(69.580078 0)"/>
     <use xlink:href="#DejaVuSans-BoldOblique-30" transform="translate(139.160156 0)"/>
     <use xlink:href="#DejaVuSans-BoldOblique-31" transform="translate(208.740234 0)"/>
    </g>
   </g>
   <g id="text_15">
    <!-- 4⁺ -->
    <g transform="translate(432.457502 165.534059) scale(0.23 -0.23)">
     <use xlink:href="#TimesNewRomanPS-BoldMT-34"/>
     <use xlink:href="#DejaVuSerif-Bold-207a" transform="translate(50 0)"/>
    </g>
   </g>
   <g id="text_16">
    <!-- 8453 -->
    <g transform="translate(263.461892 81.457569) scale(0.16 -0.16)">
     <use xlink:href="#DejaVuSans-BoldOblique-38"/>
     <use xlink:href="#DejaVuSans-BoldOblique-34" transform="translate(69.580078 0)"/>
     <use xlink:href="#DejaVuSans-BoldOblique-35" transform="translate(139.160156 0)"/>
     <use xlink:href="#DejaVuSans-BoldOblique-33" transform="translate(208.740234 0)"/>
    </g>
   </g>
   <g id="text_17">
    <!-- 6⁺ -->
    <g transform="translate(432.457502 82.197803) scale(0.23 -0.23)">
     <use xlink:href="#TimesNewRomanPS-BoldMT-36"/>
     <use xlink:href="#DejaVuSerif-Bold-207a" transform="translate(50 0)"/>
    </g>
   </g>
   <g id="text_18">
    <!-- 4038 -->
    <g transform="translate(513.336034 291.444686) scale(0.16 -0.16)">
     <use xlink:href="#DejaVuSans-BoldOblique-34"/>
     <use xlink:href="#DejaVuSans-BoldOblique-30" transform="translate(69.580078 0)"/>
     <use xlink:href="#DejaVuSans-BoldOblique-33" transform="translate(139.160156 0)"/>
     <use xlink:href="#DejaVuSans-BoldOblique-38" transform="translate(208.740234 0)"/>
    </g>
   </g>
   <g id="text_19">
    <!-- 2⁺ -->
    <g transform="translate(682.331644 292.184921) scale(0.23 -0.23)">
     <use xlink:href="#TimesNewRomanPS-BoldMT-32"/>
     <use xlink:href="#DejaVuSerif-Bold-207a" transform="translate(50 0)"/>
    </g>
   </g>
   <g id="text_20">
    <!-- 6103 -->
    <g transform="translate(513.336034 193.238298) scale(0.16 -0.16)">
     <use xlink:href="#DejaVuSans-BoldOblique-36"/>
     <use xlink:href="#DejaVuSans-BoldOblique-31" transform="translate(69.580078 0)"/>
     <use xlink:href="#DejaVuSans-BoldOblique-30" transform="translate(139.160156 0)"/>
     <use xlink:href="#DejaVuSans-BoldOblique-33" transform="translate(208.740234 0)"/>
    </g>
   </g>
   <g id="text_21">
    <!-- 3⁺ -->
    <g transform="translate(682.331644 193.978532) scale(0.23 -0.23)">
     <defs>
      <path id="TimesNewRomanPS-BoldMT-33" d="M 947 2125 
L 947 2234 
Q 1303 2338 1440 2427 
Q 1578 2516 1678 2698 
Q 1778 2881 1778 3069 
Q 1778 3328 1589 3514 
Q 1400 3700 1119 3700 
Q 681 3700 375 3238 
L 259 3278 
Q 484 3800 836 4062 
Q 1188 4325 1619 4325 
Q 2059 4325 2345 4056 
Q 2631 3788 2631 3428 
Q 2631 3194 2498 2976 
Q 2366 2759 2081 2594 
Q 2447 2416 2639 2155 
Q 2831 1894 2831 1500 
Q 2831 838 2351 373 
Q 1872 -91 1066 -91 
Q 528 -91 281 88 
Q 103 213 103 409 
Q 103 553 206 654 
Q 309 756 444 756 
Q 547 756 638 713 
Q 688 688 992 439 
Q 1297 191 1563 191 
Q 1794 191 1959 373 
Q 2125 556 2125 838 
Q 2125 1266 1825 1627 
Q 1525 1988 947 2125 
z
" transform="scale(0.015625)"/>
     </defs>
     <use xlink:href="#TimesNewRomanPS-BoldMT-33"/>
     <use xlink:href="#DejaVuSerif-Bold-207a" transform="translate(50 0)"/>
    </g>
   </g>
   <g id="text_22">
    <path d="M 112.000555 427.448629 
L 112.000555 436.113629 
Q 112.000555 437.088629 112.085555 437.358629 
Q 112.173055 437.628629 112.445555 437.801129 
Q 112.720555 437.971129 113.323055 437.971129 
L 113.563055 437.971129 
L 113.563055 438.261129 
L 107.985555 438.261129 
L 107.985555 437.971129 
L 108.268055 437.971129 
Q 108.948055 437.971129 109.235555 437.816129 
Q 109.525555 437.658629 109.625555 437.386129 
Q 109.728055 437.113629 109.728055 436.113629 
L 109.728055 430.621129 
Q 109.728055 429.886129 109.658055 429.703629 
Q 109.588055 429.518629 109.395555 429.391129 
Q 109.205555 429.261129 108.955555 429.261129 
Q 108.555555 429.261129 107.985555 429.511129 
L 107.845555 429.228629 
L 111.743055 427.448629 
L 112.000555 427.448629 
z
M 119.120555 427.448629 
L 119.120555 436.113629 
Q 119.120555 437.088629 119.205555 437.358629 
Q 119.293055 437.628629 119.565555 437.801129 
Q 119.840555 437.971129 120.443055 437.971129 
L 120.683055 437.971129 
L 120.683055 438.261129 
L 115.105555 438.261129 
L 115.105555 437.971129 
L 115.388055 437.971129 
Q 116.068055 437.971129 116.355555 437.816129 
Q 116.645555 437.658629 116.745555 437.386129 
Q 116.848055 437.113629 116.848055 436.113629 
L 116.848055 430.621129 
Q 116.848055 429.886129 116.778055 429.703629 
Q 116.708055 429.518629 116.515555 429.391129 
Q 116.325555 429.261129 116.075555 429.261129 
Q 115.675555 429.261129 115.105555 429.511129 
L 114.965555 429.228629 
L 118.863055 427.448629 
L 119.120555 427.448629 
z
M 123.910555 435.853629 
Q 124.458055 435.853629 124.835555 436.238629 
Q 125.215555 436.621129 125.215555 437.158629 
Q 125.215555 437.698629 124.833055 438.078629 
Q 124.450555 438.456129 123.910555 438.456129 
Q 123.370555 438.456129 122.990555 438.078629 
Q 122.613055 437.698629 122.613055 437.158629 
Q 122.613055 436.621129 122.990555 436.238629 
Q 123.370555 435.853629 123.910555 435.853629 
z
M 133.325555 432.963629 
Q 133.325555 434.551129 132.880555 435.926129 
Q 132.613055 436.768629 132.163055 437.308629 
Q 131.715555 437.846129 131.145555 438.163629 
Q 130.575555 438.481129 129.903055 438.481129 
Q 129.138055 438.481129 128.520555 438.091129 
Q 127.903055 437.698629 127.425555 436.971129 
Q 127.083055 436.441129 126.825555 435.558629 
Q 126.488055 434.363629 126.488055 433.088629 
Q 126.488055 431.363629 126.973055 429.916129 
Q 127.370555 428.721129 128.183055 428.086129 
Q 128.995555 427.448629 129.903055 427.448629 
Q 130.825555 427.448629 131.625555 428.078629 
Q 132.425555 428.706129 132.800555 429.768629 
Q 133.325555 431.228629 133.325555 432.963629 
z
M 130.918055 432.948629 
Q 130.918055 430.166129 130.888055 429.706129 
Q 130.808055 428.621129 130.513055 428.238629 
Q 130.318055 427.988629 129.880555 427.988629 
Q 129.543055 427.988629 129.348055 428.176129 
Q 129.058055 428.448629 128.955555 429.141129 
Q 128.855555 429.831129 128.855555 433.963629 
Q 128.855555 436.213629 129.013055 436.978629 
Q 129.130555 437.533629 129.348055 437.721129 
Q 129.568055 437.908629 129.925555 437.908629 
Q 130.318055 437.908629 130.513055 437.658629 
Q 130.840555 437.221129 130.888055 436.308629 
L 130.918055 432.948629 
z
" style="stroke: #ffffff; stroke-width: 3.8"/>
    <path d="M 112.000555 427.448629 
L 112.000555 436.113629 
Q 112.000555 437.088629 112.085555 437.358629 
Q 112.173055 437.628629 112.445555 437.801129 
Q 112.720555 437.971129 113.323055 437.971129 
L 113.563055 437.971129 
L 113.563055 438.261129 
L 107.985555 438.261129 
L 107.985555 437.971129 
L 108.268055 437.971129 
Q 108.948055 437.971129 109.235555 437.816129 
Q 109.525555 437.658629 109.625555 437.386129 
Q 109.728055 437.113629 109.728055 436.113629 
L 109.728055 430.621129 
Q 109.728055 429.886129 109.658055 429.703629 
Q 109.588055 429.518629 109.395555 429.391129 
Q 109.205555 429.261129 108.955555 429.261129 
Q 108.555555 429.261129 107.985555 429.511129 
L 107.845555 429.228629 
L 111.743055 427.448629 
L 112.000555 427.448629 
z
M 119.120555 427.448629 
L 119.120555 436.113629 
Q 119.120555 437.088629 119.205555 437.358629 
Q 119.293055 437.628629 119.565555 437.801129 
Q 119.840555 437.971129 120.443055 437.971129 
L 120.683055 437.971129 
L 120.683055 438.261129 
L 115.105555 438.261129 
L 115.105555 437.971129 
L 115.388055 437.971129 
Q 116.068055 437.971129 116.355555 437.816129 
Q 116.645555 437.658629 116.745555 437.386129 
Q 116.848055 437.113629 116.848055 436.113629 
L 116.848055 430.621129 
Q 116.848055 429.886129 116.778055 429.703629 
Q 116.708055 429.518629 116.515555 429.391129 
Q 116.325555 429.261129 116.075555 429.261129 
Q 115.675555 429.261129 115.105555 429.511129 
L 114.965555 429.228629 
L 118.863055 427.448629 
L 119.120555 427.448629 
z
M 123.910555 435.853629 
Q 124.458055 435.853629 124.835555 436.238629 
Q 125.215555 436.621129 125.215555 437.158629 
Q 125.215555 437.698629 124.833055 438.078629 
Q 124.450555 438.456129 123.910555 438.456129 
Q 123.370555 438.456129 122.990555 438.078629 
Q 122.613055 437.698629 122.613055 437.158629 
Q 122.613055 436.621129 122.990555 436.238629 
Q 123.370555 435.853629 123.910555 435.853629 
z
M 133.325555 432.963629 
Q 133.325555 434.551129 132.880555 435.926129 
Q 132.613055 436.768629 132.163055 437.308629 
Q 131.715555 437.846129 131.145555 438.163629 
Q 130.575555 438.481129 129.903055 438.481129 
Q 129.138055 438.481129 128.520555 438.091129 
Q 127.903055 437.698629 127.425555 436.971129 
Q 127.083055 436.441129 126.825555 435.558629 
Q 126.488055 434.363629 126.488055 433.088629 
Q 126.488055 431.363629 126.973055 429.916129 
Q 127.370555 428.721129 128.183055 428.086129 
Q 128.995555 427.448629 129.903055 427.448629 
Q 130.825555 427.448629 131.625555 428.078629 
Q 132.425555 428.706129 132.800555 429.768629 
Q 133.325555 431.228629 133.325555 432.963629 
z
M 130.918055 432.948629 
Q 130.918055 430.166129 130.888055 429.706129 
Q 130.808055 428.621129 130.513055 428.238629 
Q 130.318055 427.988629 129.880555 427.988629 
Q 129.543055 427.988629 129.348055 428.176129 
Q 129.058055 428.448629 128.955555 429.141129 
Q 128.855555 429.831129 128.855555 433.963629 
Q 128.855555 436.213629 129.013055 436.978629 
Q 129.130555 437.533629 129.348055 437.721129 
Q 129.568055 437.908629 129.925555 437.908629 
Q 130.318055 437.908629 130.513055 437.658629 
Q 130.840555 437.221129 130.888055 436.308629 
L 130.918055 432.948629 
z
"/>
   </g>
   <g id="text_23">
    <path d="M 112.975555 352.49161 
L 106.740555 352.49161 
L 106.740555 352.31911 
Q 109.608055 348.90661 110.220555 347.72661 
Q 110.835555 346.54661 110.835555 345.42161 
Q 110.835555 344.60161 110.328055 344.05911 
Q 109.820555 343.51411 109.085555 343.51411 
Q 107.883055 343.51411 107.218055 344.71911 
L 106.928055 344.61661 
Q 107.350555 343.11661 108.210555 342.39911 
Q 109.070555 341.67911 110.195555 341.67911 
Q 110.998055 341.67911 111.663055 342.05411 
Q 112.328055 342.42911 112.703055 343.08161 
Q 113.078055 343.73411 113.078055 344.30411 
Q 113.078055 345.34411 112.498055 346.41411 
Q 111.710555 347.85911 109.053055 350.44411 
L 111.343055 350.44411 
Q 112.185555 350.44411 112.440555 350.37411 
Q 112.695555 350.30411 112.858055 350.13661 
Q 113.023055 349.96911 113.288055 349.42911 
L 113.570555 349.42911 
L 112.975555 352.49161 
z
M 120.975555 352.49161 
L 114.740555 352.49161 
L 114.740555 352.31911 
Q 117.608055 348.90661 118.220555 347.72661 
Q 118.835555 346.54661 118.835555 345.42161 
Q 118.835555 344.60161 118.328055 344.05911 
Q 117.820555 343.51411 117.085555 343.51411 
Q 115.883055 343.51411 115.218055 344.71911 
L 114.928055 344.61661 
Q 115.350555 343.11661 116.210555 342.39911 
Q 117.070555 341.67911 118.195555 341.67911 
Q 118.998055 341.67911 119.663055 342.05411 
Q 120.328055 342.42911 120.703055 343.08161 
Q 121.078055 343.73411 121.078055 344.30411 
Q 121.078055 345.34411 120.498055 346.41411 
Q 119.710555 347.85911 117.053055 350.44411 
L 119.343055 350.44411 
Q 120.185555 350.44411 120.440555 350.37411 
Q 120.695555 350.30411 120.858055 350.13661 
Q 121.023055 349.96911 121.288055 349.42911 
L 121.570555 349.42911 
L 120.975555 352.49161 
z
M 124.350555 350.08411 
Q 124.898055 350.08411 125.275555 350.46911 
Q 125.655555 350.85161 125.655555 351.38911 
Q 125.655555 351.92911 125.273055 352.30911 
Q 124.890555 352.68661 124.350555 352.68661 
Q 123.810555 352.68661 123.430555 352.30911 
Q 123.053055 351.92911 123.053055 351.38911 
Q 123.053055 350.85161 123.430555 350.46911 
Q 123.810555 350.08411 124.350555 350.08411 
z
M 133.765555 347.19411 
Q 133.765555 348.78161 133.320555 350.15661 
Q 133.053055 350.99911 132.603055 351.53911 
Q 132.155555 352.07661 131.585555 352.39411 
Q 131.015555 352.71161 130.343055 352.71161 
Q 129.578055 352.71161 128.960555 352.32161 
Q 128.343055 351.92911 127.865555 351.20161 
Q 127.523055 350.67161 127.265555 349.78911 
Q 126.928055 348.59411 126.928055 347.31911 
Q 126.928055 345.59411 127.413055 344.14661 
Q 127.810555 342.95161 128.623055 342.31661 
Q 129.435555 341.67911 130.343055 341.67911 
Q 131.265555 341.67911 132.065555 342.30911 
Q 132.865555 342.93661 133.240555 343.99911 
Q 133.765555 345.45911 133.765555 347.19411 
z
M 131.358055 347.17911 
Q 131.358055 344.39661 131.328055 343.93661 
Q 131.248055 342.85161 130.953055 342.46911 
Q 130.758055 342.21911 130.320555 342.21911 
Q 129.983055 342.21911 129.788055 342.40661 
Q 129.498055 342.67911 129.395555 343.37161 
Q 129.295555 344.06161 129.295555 348.19411 
Q 129.295555 350.44411 129.453055 351.20911 
Q 129.570555 351.76411 129.788055 351.95161 
Q 130.008055 352.13911 130.365555 352.13911 
Q 130.758055 352.13911 130.953055 351.88911 
Q 131.280555 351.45161 131.328055 350.53911 
L 131.358055 347.17911 
z
" style="stroke: #ffffff; stroke-width: 3.8"/>
    <path d="M 112.975555 352.49161 
L 106.740555 352.49161 
L 106.740555 352.31911 
Q 109.608055 348.90661 110.220555 347.72661 
Q 110.835555 346.54661 110.835555 345.42161 
Q 110.835555 344.60161 110.328055 344.05911 
Q 109.820555 343.51411 109.085555 343.51411 
Q 107.883055 343.51411 107.218055 344.71911 
L 106.928055 344.61661 
Q 107.350555 343.11661 108.210555 342.39911 
Q 109.070555 341.67911 110.195555 341.67911 
Q 110.998055 341.67911 111.663055 342.05411 
Q 112.328055 342.42911 112.703055 343.08161 
Q 113.078055 343.73411 113.078055 344.30411 
Q 113.078055 345.34411 112.498055 346.41411 
Q 111.710555 347.85911 109.053055 350.44411 
L 111.343055 350.44411 
Q 112.185555 350.44411 112.440555 350.37411 
Q 112.695555 350.30411 112.858055 350.13661 
Q 113.023055 349.96911 113.288055 349.42911 
L 113.570555 349.42911 
L 112.975555 352.49161 
z
M 120.975555 352.49161 
L 114.740555 352.49161 
L 114.740555 352.31911 
Q 117.608055 348.90661 118.220555 347.72661 
Q 118.835555 346.54661 118.835555 345.42161 
Q 118.835555 344.60161 118.328055 344.05911 
Q 117.820555 343.51411 117.085555 343.51411 
Q 115.883055 343.51411 115.218055 344.71911 
L 114.928055 344.61661 
Q 115.350555 343.11661 116.210555 342.39911 
Q 117.070555 341.67911 118.195555 341.67911 
Q 118.998055 341.67911 119.663055 342.05411 
Q 120.328055 342.42911 120.703055 343.08161 
Q 121.078055 343.73411 121.078055 344.30411 
Q 121.078055 345.34411 120.498055 346.41411 
Q 119.710555 347.85911 117.053055 350.44411 
L 119.343055 350.44411 
Q 120.185555 350.44411 120.440555 350.37411 
Q 120.695555 350.30411 120.858055 350.13661 
Q 121.023055 349.96911 121.288055 349.42911 
L 121.570555 349.42911 
L 120.975555 352.49161 
z
M 124.350555 350.08411 
Q 124.898055 350.08411 125.275555 350.46911 
Q 125.655555 350.85161 125.655555 351.38911 
Q 125.655555 351.92911 125.273055 352.30911 
Q 124.890555 352.68661 124.350555 352.68661 
Q 123.810555 352.68661 123.430555 352.30911 
Q 123.053055 351.92911 123.053055 351.38911 
Q 123.053055 350.85161 123.430555 350.46911 
Q 123.810555 350.08411 124.350555 350.08411 
z
M 133.765555 347.19411 
Q 133.765555 348.78161 133.320555 350.15661 
Q 133.053055 350.99911 132.603055 351.53911 
Q 132.155555 352.07661 131.585555 352.39411 
Q 131.015555 352.71161 130.343055 352.71161 
Q 129.578055 352.71161 128.960555 352.32161 
Q 128.343055 351.92911 127.865555 351.20161 
Q 127.523055 350.67161 127.265555 349.78911 
Q 126.928055 348.59411 126.928055 347.31911 
Q 126.928055 345.59411 127.413055 344.14661 
Q 127.810555 342.95161 128.623055 342.31661 
Q 129.435555 341.67911 130.343055 341.67911 
Q 131.265555 341.67911 132.065555 342.30911 
Q 132.865555 342.93661 133.240555 343.99911 
Q 133.765555 345.45911 133.765555 347.19411 
z
M 131.358055 347.17911 
Q 131.358055 344.39661 131.328055 343.93661 
Q 131.248055 342.85161 130.953055 342.46911 
Q 130.758055 342.21911 130.320555 342.21911 
Q 129.983055 342.21911 129.788055 342.40661 
Q 129.498055 342.67911 129.395555 343.37161 
Q 129.295555 344.06161 129.295555 348.19411 
Q 129.295555 350.44411 129.453055 351.20911 
Q 129.570555 351.76411 129.788055 351.95161 
Q 130.008055 352.13911 130.365555 352.13911 
Q 130.758055 352.13911 130.953055 351.88911 
Q 131.280555 351.45161 131.328055 350.53911 
L 131.358055 347.17911 
z
"/>
   </g>
   <g id="text_24">
    <path d="M 108.718055 263.739084 
L 108.718055 263.466584 
Q 109.608055 263.206584 109.950555 262.984084 
Q 110.295555 262.761584 110.545555 262.306584 
Q 110.795555 261.849084 110.795555 261.379084 
Q 110.795555 260.731584 110.323055 260.266584 
Q 109.850555 259.801584 109.148055 259.801584 
Q 108.053055 259.801584 107.288055 260.956584 
L 106.998055 260.856584 
Q 107.560555 259.551584 108.440555 258.896584 
Q 109.320555 258.239084 110.398055 258.239084 
Q 111.498055 258.239084 112.213055 258.911584 
Q 112.928055 259.581584 112.928055 260.481584 
Q 112.928055 261.066584 112.595555 261.611584 
Q 112.265555 262.154084 111.553055 262.566584 
Q 112.468055 263.011584 112.948055 263.664084 
Q 113.428055 264.316584 113.428055 265.301584 
Q 113.428055 266.956584 112.228055 268.119084 
Q 111.030555 269.279084 109.015555 269.279084 
Q 107.670555 269.279084 107.053055 268.831584 
Q 106.608055 268.519084 106.608055 268.029084 
Q 106.608055 267.669084 106.865555 267.416584 
Q 107.123055 267.161584 107.460555 267.161584 
Q 107.718055 267.161584 107.945555 267.269084 
Q 108.070555 267.331584 108.830555 267.954084 
Q 109.593055 268.574084 110.258055 268.574084 
Q 110.835555 268.574084 111.248055 268.119084 
Q 111.663055 267.661584 111.663055 266.956584 
Q 111.663055 265.886584 110.913055 264.984084 
Q 110.163055 264.081584 108.718055 263.739084 
z
M 120.975555 269.051584 
L 114.740555 269.051584 
L 114.740555 268.879084 
Q 117.608055 265.466584 118.220555 264.286584 
Q 118.835555 263.106584 118.835555 261.981584 
Q 118.835555 261.161584 118.328055 260.619084 
Q 117.820555 260.074084 117.085555 260.074084 
Q 115.883055 260.074084 115.218055 261.279084 
L 114.928055 261.176584 
Q 115.350555 259.676584 116.210555 258.959084 
Q 117.070555 258.239084 118.195555 258.239084 
Q 118.998055 258.239084 119.663055 258.614084 
Q 120.328055 258.989084 120.703055 259.641584 
Q 121.078055 260.294084 121.078055 260.864084 
Q 121.078055 261.904084 120.498055 262.974084 
Q 119.710555 264.419084 117.053055 267.004084 
L 119.343055 267.004084 
Q 120.185555 267.004084 120.440555 266.934084 
Q 120.695555 266.864084 120.858055 266.696584 
Q 121.023055 266.529084 121.288055 265.989084 
L 121.570555 265.989084 
L 120.975555 269.051584 
z
M 124.350555 266.644084 
Q 124.898055 266.644084 125.275555 267.029084 
Q 125.655555 267.411584 125.655555 267.949084 
Q 125.655555 268.489084 125.273055 268.869084 
Q 124.890555 269.246584 124.350555 269.246584 
Q 123.810555 269.246584 123.430555 268.869084 
Q 123.053055 268.489084 123.053055 267.949084 
Q 123.053055 267.411584 123.430555 267.029084 
Q 123.810555 266.644084 124.350555 266.644084 
z
M 132.975555 269.051584 
L 126.740555 269.051584 
L 126.740555 268.879084 
Q 129.608055 265.466584 130.220555 264.286584 
Q 130.835555 263.106584 130.835555 261.981584 
Q 130.835555 261.161584 130.328055 260.619084 
Q 129.820555 260.074084 129.085555 260.074084 
Q 127.883055 260.074084 127.218055 261.279084 
L 126.928055 261.176584 
Q 127.350555 259.676584 128.210555 258.959084 
Q 129.070555 258.239084 130.195555 258.239084 
Q 130.998055 258.239084 131.663055 258.614084 
Q 132.328055 258.989084 132.703055 259.641584 
Q 133.078055 260.294084 133.078055 260.864084 
Q 133.078055 261.904084 132.498055 262.974084 
Q 131.710555 264.419084 129.053055 267.004084 
L 131.343055 267.004084 
Q 132.185555 267.004084 132.440555 266.934084 
Q 132.695555 266.864084 132.858055 266.696584 
Q 133.023055 266.529084 133.288055 265.989084 
L 133.570555 265.989084 
L 132.975555 269.051584 
z
" style="stroke: #ffffff; stroke-width: 3.8"/>
    <path d="M 108.718055 263.739084 
L 108.718055 263.466584 
Q 109.608055 263.206584 109.950555 262.984084 
Q 110.295555 262.761584 110.545555 262.306584 
Q 110.795555 261.849084 110.795555 261.379084 
Q 110.795555 260.731584 110.323055 260.266584 
Q 109.850555 259.801584 109.148055 259.801584 
Q 108.053055 259.801584 107.288055 260.956584 
L 106.998055 260.856584 
Q 107.560555 259.551584 108.440555 258.896584 
Q 109.320555 258.239084 110.398055 258.239084 
Q 111.498055 258.239084 112.213055 258.911584 
Q 112.928055 259.581584 112.928055 260.481584 
Q 112.928055 261.066584 112.595555 261.611584 
Q 112.265555 262.154084 111.553055 262.566584 
Q 112.468055 263.011584 112.948055 263.664084 
Q 113.428055 264.316584 113.428055 265.301584 
Q 113.428055 266.956584 112.228055 268.119084 
Q 111.030555 269.279084 109.015555 269.279084 
Q 107.670555 269.279084 107.053055 268.831584 
Q 106.608055 268.519084 106.608055 268.029084 
Q 106.608055 267.669084 106.865555 267.416584 
Q 107.123055 267.161584 107.460555 267.161584 
Q 107.718055 267.161584 107.945555 267.269084 
Q 108.070555 267.331584 108.830555 267.954084 
Q 109.593055 268.574084 110.258055 268.574084 
Q 110.835555 268.574084 111.248055 268.119084 
Q 111.663055 267.661584 111.663055 266.956584 
Q 111.663055 265.886584 110.913055 264.984084 
Q 110.163055 264.081584 108.718055 263.739084 
z
M 120.975555 269.051584 
L 114.740555 269.051584 
L 114.740555 268.879084 
Q 117.608055 265.466584 118.220555 264.286584 
Q 118.835555 263.106584 118.835555 261.981584 
Q 118.835555 261.161584 118.328055 260.619084 
Q 117.820555 260.074084 117.085555 260.074084 
Q 115.883055 260.074084 115.218055 261.279084 
L 114.928055 261.176584 
Q 115.350555 259.676584 116.210555 258.959084 
Q 117.070555 258.239084 118.195555 258.239084 
Q 118.998055 258.239084 119.663055 258.614084 
Q 120.328055 258.989084 120.703055 259.641584 
Q 121.078055 260.294084 121.078055 260.864084 
Q 121.078055 261.904084 120.498055 262.974084 
Q 119.710555 264.419084 117.053055 267.004084 
L 119.343055 267.004084 
Q 120.185555 267.004084 120.440555 266.934084 
Q 120.695555 266.864084 120.858055 266.696584 
Q 121.023055 266.529084 121.288055 265.989084 
L 121.570555 265.989084 
L 120.975555 269.051584 
z
M 124.350555 266.644084 
Q 124.898055 266.644084 125.275555 267.029084 
Q 125.655555 267.411584 125.655555 267.949084 
Q 125.655555 268.489084 125.273055 268.869084 
Q 124.890555 269.246584 124.350555 269.246584 
Q 123.810555 269.246584 123.430555 268.869084 
Q 123.053055 268.489084 123.053055 267.949084 
Q 123.053055 267.411584 123.430555 267.029084 
Q 123.810555 266.644084 124.350555 266.644084 
z
M 132.975555 269.051584 
L 126.740555 269.051584 
L 126.740555 268.879084 
Q 129.608055 265.466584 130.220555 264.286584 
Q 130.835555 263.106584 130.835555 261.981584 
Q 130.835555 261.161584 130.328055 260.619084 
Q 129.820555 260.074084 129.085555 260.074084 
Q 127.883055 260.074084 127.218055 261.279084 
L 126.928055 261.176584 
Q 127.350555 259.676584 128.210555 258.959084 
Q 129.070555 258.239084 130.195555 258.239084 
Q 130.998055 258.239084 131.663055 258.614084 
Q 132.328055 258.989084 132.703055 259.641584 
Q 133.078055 260.294084 133.078055 260.864084 
Q 133.078055 261.904084 132.498055 262.974084 
Q 131.710555 264.419084 129.053055 267.004084 
L 131.343055 267.004084 
Q 132.185555 267.004084 132.440555 266.934084 
Q 132.695555 266.864084 132.858055 266.696584 
Q 133.023055 266.529084 133.288055 265.989084 
L 133.570555 265.989084 
L 132.975555 269.051584 
z
"/>
   </g>
   <g id="text_25">
    <path d="M 361.434697 291.481934 
L 361.434697 300.146934 
Q 361.434697 301.121934 361.519697 301.391934 
Q 361.607197 301.661934 361.879697 301.834434 
Q 362.154697 302.004434 362.757197 302.004434 
L 362.997197 302.004434 
L 362.997197 302.294434 
L 357.419697 302.294434 
L 357.419697 302.004434 
L 357.702197 302.004434 
Q 358.382197 302.004434 358.669697 301.849434 
Q 358.959697 301.691934 359.059697 301.419434 
Q 359.162197 301.146934 359.162197 300.146934 
L 359.162197 294.654434 
Q 359.162197 293.919434 359.092197 293.736934 
Q 359.022197 293.551934 358.829697 293.424434 
Q 358.639697 293.294434 358.389697 293.294434 
Q 357.989697 293.294434 357.419697 293.544434 
L 357.279697 293.261934 
L 361.177197 291.481934 
L 361.434697 291.481934 
z
M 366.592197 296.981934 
L 366.592197 296.709434 
Q 367.482197 296.449434 367.824697 296.226934 
Q 368.169697 296.004434 368.419697 295.549434 
Q 368.669697 295.091934 368.669697 294.621934 
Q 368.669697 293.974434 368.197197 293.509434 
Q 367.724697 293.044434 367.022197 293.044434 
Q 365.927197 293.044434 365.162197 294.199434 
L 364.872197 294.099434 
Q 365.434697 292.794434 366.314697 292.139434 
Q 367.194697 291.481934 368.272197 291.481934 
Q 369.372197 291.481934 370.087197 292.154434 
Q 370.802197 292.824434 370.802197 293.724434 
Q 370.802197 294.309434 370.469697 294.854434 
Q 370.139697 295.396934 369.427197 295.809434 
Q 370.342197 296.254434 370.822197 296.906934 
Q 371.302197 297.559434 371.302197 298.544434 
Q 371.302197 300.199434 370.102197 301.361934 
Q 368.904697 302.521934 366.889697 302.521934 
Q 365.544697 302.521934 364.927197 302.074434 
Q 364.482197 301.761934 364.482197 301.271934 
Q 364.482197 300.911934 364.739697 300.659434 
Q 364.997197 300.404434 365.334697 300.404434 
Q 365.592197 300.404434 365.819697 300.511934 
Q 365.944697 300.574434 366.704697 301.196934 
Q 367.467197 301.816934 368.132197 301.816934 
Q 368.709697 301.816934 369.122197 301.361934 
Q 369.537197 300.904434 369.537197 300.199434 
Q 369.537197 299.129434 368.787197 298.226934 
Q 368.037197 297.324434 366.592197 296.981934 
z
M 374.224697 299.886934 
Q 374.772197 299.886934 375.149697 300.271934 
Q 375.529697 300.654434 375.529697 301.191934 
Q 375.529697 301.731934 375.147197 302.111934 
Q 374.764697 302.489434 374.224697 302.489434 
Q 373.684697 302.489434 373.304697 302.111934 
Q 372.927197 301.731934 372.927197 301.191934 
Q 372.927197 300.654434 373.304697 300.271934 
Q 373.684697 299.886934 374.224697 299.886934 
z
M 378.592197 296.981934 
L 378.592197 296.709434 
Q 379.482197 296.449434 379.824697 296.226934 
Q 380.169697 296.004434 380.419697 295.549434 
Q 380.669697 295.091934 380.669697 294.621934 
Q 380.669697 293.974434 380.197197 293.509434 
Q 379.724697 293.044434 379.022197 293.044434 
Q 377.927197 293.044434 377.162197 294.199434 
L 376.872197 294.099434 
Q 377.434697 292.794434 378.314697 292.139434 
Q 379.194697 291.481934 380.272197 291.481934 
Q 381.372197 291.481934 382.087197 292.154434 
Q 382.802197 292.824434 382.802197 293.724434 
Q 382.802197 294.309434 382.469697 294.854434 
Q 382.139697 295.396934 381.427197 295.809434 
Q 382.342197 296.254434 382.822197 296.906934 
Q 383.302197 297.559434 383.302197 298.544434 
Q 383.302197 300.199434 382.102197 301.361934 
Q 380.904697 302.521934 378.889697 302.521934 
Q 377.544697 302.521934 376.927197 302.074434 
Q 376.482197 301.761934 376.482197 301.271934 
Q 376.482197 300.911934 376.739697 300.659434 
Q 376.997197 300.404434 377.334697 300.404434 
Q 377.592197 300.404434 377.819697 300.511934 
Q 377.944697 300.574434 378.704697 301.196934 
Q 379.467197 301.816934 380.132197 301.816934 
Q 380.709697 301.816934 381.122197 301.361934 
Q 381.537197 300.904434 381.537197 300.199434 
Q 381.537197 299.129434 380.787197 298.226934 
Q 380.037197 297.324434 378.592197 296.981934 
z
" style="stroke: #ffffff; stroke-width: 3.8"/>
    <path d="M 361.434697 291.481934 
L 361.434697 300.146934 
Q 361.434697 301.121934 361.519697 301.391934 
Q 361.607197 301.661934 361.879697 301.834434 
Q 362.154697 302.004434 362.757197 302.004434 
L 362.997197 302.004434 
L 362.997197 302.294434 
L 357.419697 302.294434 
L 357.419697 302.004434 
L 357.702197 302.004434 
Q 358.382197 302.004434 358.669697 301.849434 
Q 358.959697 301.691934 359.059697 301.419434 
Q 359.162197 301.146934 359.162197 300.146934 
L 359.162197 294.654434 
Q 359.162197 293.919434 359.092197 293.736934 
Q 359.022197 293.551934 358.829697 293.424434 
Q 358.639697 293.294434 358.389697 293.294434 
Q 357.989697 293.294434 357.419697 293.544434 
L 357.279697 293.261934 
L 361.177197 291.481934 
L 361.434697 291.481934 
z
M 366.592197 296.981934 
L 366.592197 296.709434 
Q 367.482197 296.449434 367.824697 296.226934 
Q 368.169697 296.004434 368.419697 295.549434 
Q 368.669697 295.091934 368.669697 294.621934 
Q 368.669697 293.974434 368.197197 293.509434 
Q 367.724697 293.044434 367.022197 293.044434 
Q 365.927197 293.044434 365.162197 294.199434 
L 364.872197 294.099434 
Q 365.434697 292.794434 366.314697 292.139434 
Q 367.194697 291.481934 368.272197 291.481934 
Q 369.372197 291.481934 370.087197 292.154434 
Q 370.802197 292.824434 370.802197 293.724434 
Q 370.802197 294.309434 370.469697 294.854434 
Q 370.139697 295.396934 369.427197 295.809434 
Q 370.342197 296.254434 370.822197 296.906934 
Q 371.302197 297.559434 371.302197 298.544434 
Q 371.302197 300.199434 370.102197 301.361934 
Q 368.904697 302.521934 366.889697 302.521934 
Q 365.544697 302.521934 364.927197 302.074434 
Q 364.482197 301.761934 364.482197 301.271934 
Q 364.482197 300.911934 364.739697 300.659434 
Q 364.997197 300.404434 365.334697 300.404434 
Q 365.592197 300.404434 365.819697 300.511934 
Q 365.944697 300.574434 366.704697 301.196934 
Q 367.467197 301.816934 368.132197 301.816934 
Q 368.709697 301.816934 369.122197 301.361934 
Q 369.537197 300.904434 369.537197 300.199434 
Q 369.537197 299.129434 368.787197 298.226934 
Q 368.037197 297.324434 366.592197 296.981934 
z
M 374.224697 299.886934 
Q 374.772197 299.886934 375.149697 300.271934 
Q 375.529697 300.654434 375.529697 301.191934 
Q 375.529697 301.731934 375.147197 302.111934 
Q 374.764697 302.489434 374.224697 302.489434 
Q 373.684697 302.489434 373.304697 302.111934 
Q 372.927197 301.731934 372.927197 301.191934 
Q 372.927197 300.654434 373.304697 300.271934 
Q 373.684697 299.886934 374.224697 299.886934 
z
M 378.592197 296.981934 
L 378.592197 296.709434 
Q 379.482197 296.449434 379.824697 296.226934 
Q 380.169697 296.004434 380.419697 295.549434 
Q 380.669697 295.091934 380.669697 294.621934 
Q 380.669697 293.974434 380.197197 293.509434 
Q 379.724697 293.044434 379.022197 293.044434 
Q 377.927197 293.044434 377.162197 294.199434 
L 376.872197 294.099434 
Q 377.434697 292.794434 378.314697 292.139434 
Q 379.194697 291.481934 380.272197 291.481934 
Q 381.372197 291.481934 382.087197 292.154434 
Q 382.802197 292.824434 382.802197 293.724434 
Q 382.802197 294.309434 382.469697 294.854434 
Q 382.139697 295.396934 381.427197 295.809434 
Q 382.342197 296.254434 382.822197 296.906934 
Q 383.302197 297.559434 383.302197 298.544434 
Q 383.302197 300.199434 382.102197 301.361934 
Q 380.904697 302.521934 378.889697 302.521934 
Q 377.544697 302.521934 376.927197 302.074434 
Q 376.482197 301.761934 376.482197 301.271934 
Q 376.482197 300.911934 376.739697 300.659434 
Q 376.997197 300.404434 377.334697 300.404434 
Q 377.592197 300.404434 377.819697 300.511934 
Q 377.944697 300.574434 378.704697 301.196934 
Q 379.467197 301.816934 380.132197 301.816934 
Q 380.709697 301.816934 381.122197 301.361934 
Q 381.537197 300.904434 381.537197 300.199434 
Q 381.537197 299.129434 380.787197 298.226934 
Q 380.037197 297.324434 378.592197 296.981934 
z
"/>
   </g>
   <g id="text_26">
    <path d="M 362.849697 208.254222 
L 356.614697 208.254222 
L 356.614697 208.081722 
Q 359.482197 204.669222 360.094697 203.489222 
Q 360.709697 202.309222 360.709697 201.184222 
Q 360.709697 200.364222 360.202197 199.821722 
Q 359.694697 199.276722 358.959697 199.276722 
Q 357.757197 199.276722 357.092197 200.481722 
L 356.802197 200.379222 
Q 357.224697 198.879222 358.084697 198.161722 
Q 358.944697 197.441722 360.069697 197.441722 
Q 360.872197 197.441722 361.537197 197.816722 
Q 362.202197 198.191722 362.577197 198.844222 
Q 362.952197 199.496722 362.952197 200.066722 
Q 362.952197 201.106722 362.372197 202.176722 
Q 361.584697 203.621722 358.927197 206.206722 
L 361.217197 206.206722 
Q 362.059697 206.206722 362.314697 206.136722 
Q 362.569697 206.066722 362.732197 205.899222 
Q 362.897197 205.731722 363.162197 205.191722 
L 363.444697 205.191722 
L 362.849697 208.254222 
z
M 369.677197 202.269222 
Q 370.794697 203.089222 371.227197 203.796722 
Q 371.662197 204.504222 371.662197 205.419222 
Q 371.662197 206.699222 370.697197 207.586722 
Q 369.732197 208.474222 368.077197 208.474222 
Q 366.507197 208.474222 365.647197 207.701722 
Q 364.787197 206.926722 364.787197 205.809222 
Q 364.787197 204.956722 365.282197 204.316722 
Q 365.779697 203.676722 366.934697 203.144222 
Q 365.677197 202.184222 365.322197 201.574222 
Q 364.967197 200.964222 364.967197 200.159222 
Q 364.967197 199.096722 365.869697 198.289222 
Q 366.772197 197.481722 368.342197 197.481722 
Q 369.857197 197.481722 370.672197 198.196722 
Q 371.489697 198.909222 371.489697 199.909222 
Q 371.489697 200.659222 371.047197 201.234222 
Q 370.607197 201.809222 369.677197 202.269222 
z
M 369.084697 201.871722 
Q 369.372197 201.481722 369.512197 200.996722 
Q 369.654697 200.511722 369.654697 199.934222 
Q 369.654697 198.919222 369.217197 198.379222 
Q 368.889697 197.964222 368.309697 197.964222 
Q 367.787197 197.964222 367.419697 198.344222 
Q 367.052197 198.721722 367.052197 199.284222 
Q 367.052197 199.856722 367.462197 200.469222 
Q 367.872197 201.081722 369.084697 201.871722 
z
M 367.522197 203.519222 
Q 367.279697 203.739222 367.177197 203.919222 
Q 367.022197 204.191722 366.897197 204.716722 
Q 366.772197 205.239222 366.772197 205.809222 
Q 366.772197 206.544222 366.959697 207.039222 
Q 367.147197 207.534222 367.494697 207.754222 
Q 367.842197 207.971722 368.209697 207.971722 
Q 368.779697 207.971722 369.169697 207.554222 
Q 369.559697 207.136722 369.559697 206.409222 
Q 369.559697 204.894222 367.522197 203.519222 
z
M 374.224697 205.846722 
Q 374.772197 205.846722 375.149697 206.231722 
Q 375.529697 206.614222 375.529697 207.151722 
Q 375.529697 207.691722 375.147197 208.071722 
Q 374.764697 208.449222 374.224697 208.449222 
Q 373.684697 208.449222 373.304697 208.071722 
Q 372.927197 207.691722 372.927197 207.151722 
Q 372.927197 206.614222 373.304697 206.231722 
Q 373.684697 205.846722 374.224697 205.846722 
z
M 381.434697 197.441722 
L 381.434697 206.106722 
Q 381.434697 207.081722 381.519697 207.351722 
Q 381.607197 207.621722 381.879697 207.794222 
Q 382.154697 207.964222 382.757197 207.964222 
L 382.997197 207.964222 
L 382.997197 208.254222 
L 377.419697 208.254222 
L 377.419697 207.964222 
L 377.702197 207.964222 
Q 378.382197 207.964222 378.669697 207.809222 
Q 378.959697 207.651722 379.059697 207.379222 
Q 379.162197 207.106722 379.162197 206.106722 
L 379.162197 200.614222 
Q 379.162197 199.879222 379.092197 199.696722 
Q 379.022197 199.511722 378.829697 199.384222 
Q 378.639697 199.254222 378.389697 199.254222 
Q 377.989697 199.254222 377.419697 199.504222 
L 377.279697 199.221722 
L 381.177197 197.441722 
L 381.434697 197.441722 
z
" style="stroke: #ffffff; stroke-width: 3.8"/>
    <path d="M 362.849697 208.254222 
L 356.614697 208.254222 
L 356.614697 208.081722 
Q 359.482197 204.669222 360.094697 203.489222 
Q 360.709697 202.309222 360.709697 201.184222 
Q 360.709697 200.364222 360.202197 199.821722 
Q 359.694697 199.276722 358.959697 199.276722 
Q 357.757197 199.276722 357.092197 200.481722 
L 356.802197 200.379222 
Q 357.224697 198.879222 358.084697 198.161722 
Q 358.944697 197.441722 360.069697 197.441722 
Q 360.872197 197.441722 361.537197 197.816722 
Q 362.202197 198.191722 362.577197 198.844222 
Q 362.952197 199.496722 362.952197 200.066722 
Q 362.952197 201.106722 362.372197 202.176722 
Q 361.584697 203.621722 358.927197 206.206722 
L 361.217197 206.206722 
Q 362.059697 206.206722 362.314697 206.136722 
Q 362.569697 206.066722 362.732197 205.899222 
Q 362.897197 205.731722 363.162197 205.191722 
L 363.444697 205.191722 
L 362.849697 208.254222 
z
M 369.677197 202.269222 
Q 370.794697 203.089222 371.227197 203.796722 
Q 371.662197 204.504222 371.662197 205.419222 
Q 371.662197 206.699222 370.697197 207.586722 
Q 369.732197 208.474222 368.077197 208.474222 
Q 366.507197 208.474222 365.647197 207.701722 
Q 364.787197 206.926722 364.787197 205.809222 
Q 364.787197 204.956722 365.282197 204.316722 
Q 365.779697 203.676722 366.934697 203.144222 
Q 365.677197 202.184222 365.322197 201.574222 
Q 364.967197 200.964222 364.967197 200.159222 
Q 364.967197 199.096722 365.869697 198.289222 
Q 366.772197 197.481722 368.342197 197.481722 
Q 369.857197 197.481722 370.672197 198.196722 
Q 371.489697 198.909222 371.489697 199.909222 
Q 371.489697 200.659222 371.047197 201.234222 
Q 370.607197 201.809222 369.677197 202.269222 
z
M 369.084697 201.871722 
Q 369.372197 201.481722 369.512197 200.996722 
Q 369.654697 200.511722 369.654697 199.934222 
Q 369.654697 198.919222 369.217197 198.379222 
Q 368.889697 197.964222 368.309697 197.964222 
Q 367.787197 197.964222 367.419697 198.344222 
Q 367.052197 198.721722 367.052197 199.284222 
Q 367.052197 199.856722 367.462197 200.469222 
Q 367.872197 201.081722 369.084697 201.871722 
z
M 367.522197 203.519222 
Q 367.279697 203.739222 367.177197 203.919222 
Q 367.022197 204.191722 366.897197 204.716722 
Q 366.772197 205.239222 366.772197 205.809222 
Q 366.772197 206.544222 366.959697 207.039222 
Q 367.147197 207.534222 367.494697 207.754222 
Q 367.842197 207.971722 368.209697 207.971722 
Q 368.779697 207.971722 369.169697 207.554222 
Q 369.559697 207.136722 369.559697 206.409222 
Q 369.559697 204.894222 367.522197 203.519222 
z
M 374.224697 205.846722 
Q 374.772197 205.846722 375.149697 206.231722 
Q 375.529697 206.614222 375.529697 207.151722 
Q 375.529697 207.691722 375.147197 208.071722 
Q 374.764697 208.449222 374.224697 208.449222 
Q 373.684697 208.449222 373.304697 208.071722 
Q 372.927197 207.691722 372.927197 207.151722 
Q 372.927197 206.614222 373.304697 206.231722 
Q 373.684697 205.846722 374.224697 205.846722 
z
M 381.434697 197.441722 
L 381.434697 206.106722 
Q 381.434697 207.081722 381.519697 207.351722 
Q 381.607197 207.621722 381.879697 207.794222 
Q 382.154697 207.964222 382.757197 207.964222 
L 382.997197 207.964222 
L 382.997197 208.254222 
L 377.419697 208.254222 
L 377.419697 207.964222 
L 377.702197 207.964222 
Q 378.382197 207.964222 378.669697 207.809222 
Q 378.959697 207.651722 379.059697 207.379222 
Q 379.162197 207.106722 379.162197 206.106722 
L 379.162197 200.614222 
Q 379.162197 199.879222 379.092197 199.696722 
Q 379.022197 199.511722 378.829697 199.384222 
Q 378.639697 199.254222 378.389697 199.254222 
Q 377.989697 199.254222 377.419697 199.504222 
L 377.279697 199.221722 
L 381.177197 197.441722 
L 381.434697 197.441722 
z
"/>
   </g>
   <g id="text_27">
    <path d="M 356.622197 118.304447 
L 361.654697 111.484447 
L 362.607197 111.484447 
L 362.607197 118.304447 
L 363.577197 118.304447 
L 363.577197 119.921947 
L 362.607197 119.921947 
L 362.607197 122.296947 
L 360.459697 122.296947 
L 360.459697 119.921947 
L 356.622197 119.921947 
L 356.622197 118.304447 
z
M 357.382197 118.304447 
L 360.459697 118.304447 
L 360.459697 114.124447 
L 357.382197 118.304447 
z
M 366.592197 116.984447 
L 366.592197 116.711947 
Q 367.482197 116.451947 367.824697 116.229447 
Q 368.169697 116.006947 368.419697 115.551947 
Q 368.669697 115.094447 368.669697 114.624447 
Q 368.669697 113.976947 368.197197 113.511947 
Q 367.724697 113.046947 367.022197 113.046947 
Q 365.927197 113.046947 365.162197 114.201947 
L 364.872197 114.101947 
Q 365.434697 112.796947 366.314697 112.141947 
Q 367.194697 111.484447 368.272197 111.484447 
Q 369.372197 111.484447 370.087197 112.156947 
Q 370.802197 112.826947 370.802197 113.726947 
Q 370.802197 114.311947 370.469697 114.856947 
Q 370.139697 115.399447 369.427197 115.811947 
Q 370.342197 116.256947 370.822197 116.909447 
Q 371.302197 117.561947 371.302197 118.546947 
Q 371.302197 120.201947 370.102197 121.364447 
Q 368.904697 122.524447 366.889697 122.524447 
Q 365.544697 122.524447 364.927197 122.076947 
Q 364.482197 121.764447 364.482197 121.274447 
Q 364.482197 120.914447 364.739697 120.661947 
Q 364.997197 120.406947 365.334697 120.406947 
Q 365.592197 120.406947 365.819697 120.514447 
Q 365.944697 120.576947 366.704697 121.199447 
Q 367.467197 121.819447 368.132197 121.819447 
Q 368.709697 121.819447 369.122197 121.364447 
Q 369.537197 120.906947 369.537197 120.201947 
Q 369.537197 119.131947 368.787197 118.229447 
Q 368.037197 117.326947 366.592197 116.984447 
z
M 374.224697 119.889447 
Q 374.772197 119.889447 375.149697 120.274447 
Q 375.529697 120.656947 375.529697 121.194447 
Q 375.529697 121.734447 375.147197 122.114447 
Q 374.764697 122.491947 374.224697 122.491947 
Q 373.684697 122.491947 373.304697 122.114447 
Q 372.927197 121.734447 372.927197 121.194447 
Q 372.927197 120.656947 373.304697 120.274447 
Q 373.684697 119.889447 374.224697 119.889447 
z
M 379.059697 122.516947 
L 381.944697 113.774447 
L 379.747197 113.774447 
Q 378.459697 113.774447 377.809697 114.109447 
Q 377.357197 114.344447 377.059697 114.991947 
L 376.764697 114.991947 
L 377.529697 111.701947 
L 383.842197 111.701947 
L 380.287197 122.516947 
L 379.059697 122.516947 
z
" style="stroke: #ffffff; stroke-width: 3.8"/>
    <path d="M 356.622197 118.304447 
L 361.654697 111.484447 
L 362.607197 111.484447 
L 362.607197 118.304447 
L 363.577197 118.304447 
L 363.577197 119.921947 
L 362.607197 119.921947 
L 362.607197 122.296947 
L 360.459697 122.296947 
L 360.459697 119.921947 
L 356.622197 119.921947 
L 356.622197 118.304447 
z
M 357.382197 118.304447 
L 360.459697 118.304447 
L 360.459697 114.124447 
L 357.382197 118.304447 
z
M 366.592197 116.984447 
L 366.592197 116.711947 
Q 367.482197 116.451947 367.824697 116.229447 
Q 368.169697 116.006947 368.419697 115.551947 
Q 368.669697 115.094447 368.669697 114.624447 
Q 368.669697 113.976947 368.197197 113.511947 
Q 367.724697 113.046947 367.022197 113.046947 
Q 365.927197 113.046947 365.162197 114.201947 
L 364.872197 114.101947 
Q 365.434697 112.796947 366.314697 112.141947 
Q 367.194697 111.484447 368.272197 111.484447 
Q 369.372197 111.484447 370.087197 112.156947 
Q 370.802197 112.826947 370.802197 113.726947 
Q 370.802197 114.311947 370.469697 114.856947 
Q 370.139697 115.399447 369.427197 115.811947 
Q 370.342197 116.256947 370.822197 116.909447 
Q 371.302197 117.561947 371.302197 118.546947 
Q 371.302197 120.201947 370.102197 121.364447 
Q 368.904697 122.524447 366.889697 122.524447 
Q 365.544697 122.524447 364.927197 122.076947 
Q 364.482197 121.764447 364.482197 121.274447 
Q 364.482197 120.914447 364.739697 120.661947 
Q 364.997197 120.406947 365.334697 120.406947 
Q 365.592197 120.406947 365.819697 120.514447 
Q 365.944697 120.576947 366.704697 121.199447 
Q 367.467197 121.819447 368.132197 121.819447 
Q 368.709697 121.819447 369.122197 121.364447 
Q 369.537197 120.906947 369.537197 120.201947 
Q 369.537197 119.131947 368.787197 118.229447 
Q 368.037197 117.326947 366.592197 116.984447 
z
M 374.224697 119.889447 
Q 374.772197 119.889447 375.149697 120.274447 
Q 375.529697 120.656947 375.529697 121.194447 
Q 375.529697 121.734447 375.147197 122.114447 
Q 374.764697 122.491947 374.224697 122.491947 
Q 373.684697 122.491947 373.304697 122.114447 
Q 372.927197 121.734447 372.927197 121.194447 
Q 372.927197 120.656947 373.304697 120.274447 
Q 373.684697 119.889447 374.224697 119.889447 
z
M 379.059697 122.516947 
L 381.944697 113.774447 
L 379.747197 113.774447 
Q 378.459697 113.774447 377.809697 114.109447 
Q 377.357197 114.344447 377.059697 114.991947 
L 376.764697 114.991947 
L 377.529697 111.701947 
L 383.842197 111.701947 
L 380.287197 122.516947 
L 379.059697 122.516947 
z
"/>
   </g>
   <g id="text_28">
    <path d="M 578.778672 241.512742 
L 572.543672 241.512742 
L 572.543672 241.340242 
Q 575.411172 237.927742 576.023672 236.747742 
Q 576.638672 235.567742 576.638672 234.442742 
Q 576.638672 233.622742 576.131172 233.080242 
Q 575.623672 232.535242 574.888672 232.535242 
Q 573.686172 232.535242 573.021172 233.740242 
L 572.731172 233.637742 
Q 573.153672 232.137742 574.013672 231.420242 
Q 574.873672 230.700242 575.998672 230.700242 
Q 576.801172 230.700242 577.466172 231.075242 
Q 578.131172 231.450242 578.506172 232.102742 
Q 578.881172 232.755242 578.881172 233.325242 
Q 578.881172 234.365242 578.301172 235.435242 
Q 577.513672 236.880242 574.856172 239.465242 
L 577.146172 239.465242 
Q 577.988672 239.465242 578.243672 239.395242 
Q 578.498672 239.325242 578.661172 239.157742 
Q 578.826172 238.990242 579.091172 238.450242 
L 579.373672 238.450242 
L 578.778672 241.512742 
z
M 586.778672 241.512742 
L 580.543672 241.512742 
L 580.543672 241.340242 
Q 583.411172 237.927742 584.023672 236.747742 
Q 584.638672 235.567742 584.638672 234.442742 
Q 584.638672 233.622742 584.131172 233.080242 
Q 583.623672 232.535242 582.888672 232.535242 
Q 581.686172 232.535242 581.021172 233.740242 
L 580.731172 233.637742 
Q 581.153672 232.137742 582.013672 231.420242 
Q 582.873672 230.700242 583.998672 230.700242 
Q 584.801172 230.700242 585.466172 231.075242 
Q 586.131172 231.450242 586.506172 232.102742 
Q 586.881172 232.755242 586.881172 233.325242 
Q 586.881172 234.365242 586.301172 235.435242 
Q 585.513672 236.880242 582.856172 239.465242 
L 585.146172 239.465242 
Q 585.988672 239.465242 586.243672 239.395242 
Q 586.498672 239.325242 586.661172 239.157742 
Q 586.826172 238.990242 587.091172 238.450242 
L 587.373672 238.450242 
L 586.778672 241.512742 
z
M 590.153672 239.105242 
Q 590.701172 239.105242 591.078672 239.490242 
Q 591.458672 239.872742 591.458672 240.410242 
Q 591.458672 240.950242 591.076172 241.330242 
Q 590.693672 241.707742 590.153672 241.707742 
Q 589.613672 241.707742 589.233672 241.330242 
Q 588.856172 240.950242 588.856172 240.410242 
Q 588.856172 239.872742 589.233672 239.490242 
Q 589.613672 239.105242 590.153672 239.105242 
z
M 592.646172 241.732742 
L 592.646172 241.512742 
Q 593.943672 241.215242 594.846172 240.637742 
Q 595.748672 240.060242 596.273672 239.207742 
Q 596.801172 238.355242 597.013672 237.247742 
Q 596.528672 237.497742 596.188672 237.595242 
Q 595.848672 237.692742 595.473672 237.692742 
Q 594.271172 237.692742 593.468672 236.825242 
Q 592.668672 235.957742 592.668672 234.450242 
Q 592.668672 233.402742 593.101172 232.532742 
Q 593.536172 231.660242 594.341172 231.180242 
Q 595.146172 230.700242 596.013672 230.700242 
Q 596.943672 230.700242 597.771172 231.232742 
Q 598.598672 231.762742 599.091172 232.770242 
Q 599.583672 233.777742 599.583672 235.067742 
Q 599.583672 236.740242 598.781172 238.272742 
Q 597.981172 239.802742 596.396172 240.727742 
Q 594.811172 241.652742 592.646172 241.732742 
z
M 597.131172 236.590242 
Q 597.208672 235.715242 597.208672 235.052742 
Q 597.208672 233.630242 596.881172 232.402742 
Q 596.693672 231.722742 596.326172 231.402742 
Q 596.131172 231.230242 595.818672 231.230242 
Q 595.426172 231.230242 595.208672 231.567742 
Q 594.903672 232.027742 594.903672 233.325242 
Q 594.903672 235.490242 595.418672 236.310242 
Q 595.756172 236.840242 596.326172 236.840242 
Q 596.631172 236.840242 597.131172 236.590242 
z
" style="stroke: #ffffff; stroke-width: 3.8"/>
    <path d="M 578.778672 241.512742 
L 572.543672 241.512742 
L 572.543672 241.340242 
Q 575.411172 237.927742 576.023672 236.747742 
Q 576.638672 235.567742 576.638672 234.442742 
Q 576.638672 233.622742 576.131172 233.080242 
Q 575.623672 232.535242 574.888672 232.535242 
Q 573.686172 232.535242 573.021172 233.740242 
L 572.731172 233.637742 
Q 573.153672 232.137742 574.013672 231.420242 
Q 574.873672 230.700242 575.998672 230.700242 
Q 576.801172 230.700242 577.466172 231.075242 
Q 578.131172 231.450242 578.506172 232.102742 
Q 578.881172 232.755242 578.881172 233.325242 
Q 578.881172 234.365242 578.301172 235.435242 
Q 577.513672 236.880242 574.856172 239.465242 
L 577.146172 239.465242 
Q 577.988672 239.465242 578.243672 239.395242 
Q 578.498672 239.325242 578.661172 239.157742 
Q 578.826172 238.990242 579.091172 238.450242 
L 579.373672 238.450242 
L 578.778672 241.512742 
z
M 586.778672 241.512742 
L 580.543672 241.512742 
L 580.543672 241.340242 
Q 583.411172 237.927742 584.023672 236.747742 
Q 584.638672 235.567742 584.638672 234.442742 
Q 584.638672 233.622742 584.131172 233.080242 
Q 583.623672 232.535242 582.888672 232.535242 
Q 581.686172 232.535242 581.021172 233.740242 
L 580.731172 233.637742 
Q 581.153672 232.137742 582.013672 231.420242 
Q 582.873672 230.700242 583.998672 230.700242 
Q 584.801172 230.700242 585.466172 231.075242 
Q 586.131172 231.450242 586.506172 232.102742 
Q 586.881172 232.755242 586.881172 233.325242 
Q 586.881172 234.365242 586.301172 235.435242 
Q 585.513672 236.880242 582.856172 239.465242 
L 585.146172 239.465242 
Q 585.988672 239.465242 586.243672 239.395242 
Q 586.498672 239.325242 586.661172 239.157742 
Q 586.826172 238.990242 587.091172 238.450242 
L 587.373672 238.450242 
L 586.778672 241.512742 
z
M 590.153672 239.105242 
Q 590.701172 239.105242 591.078672 239.490242 
Q 591.458672 239.872742 591.458672 240.410242 
Q 591.458672 240.950242 591.076172 241.330242 
Q 590.693672 241.707742 590.153672 241.707742 
Q 589.613672 241.707742 589.233672 241.330242 
Q 588.856172 240.950242 588.856172 240.410242 
Q 588.856172 239.872742 589.233672 239.490242 
Q 589.613672 239.105242 590.153672 239.105242 
z
M 592.646172 241.732742 
L 592.646172 241.512742 
Q 593.943672 241.215242 594.846172 240.637742 
Q 595.748672 240.060242 596.273672 239.207742 
Q 596.801172 238.355242 597.013672 237.247742 
Q 596.528672 237.497742 596.188672 237.595242 
Q 595.848672 237.692742 595.473672 237.692742 
Q 594.271172 237.692742 593.468672 236.825242 
Q 592.668672 235.957742 592.668672 234.450242 
Q 592.668672 233.402742 593.101172 232.532742 
Q 593.536172 231.660242 594.341172 231.180242 
Q 595.146172 230.700242 596.013672 230.700242 
Q 596.943672 230.700242 597.771172 231.232742 
Q 598.598672 231.762742 599.091172 232.770242 
Q 599.583672 233.777742 599.583672 235.067742 
Q 599.583672 236.740242 598.781172 238.272742 
Q 597.981172 239.802742 596.396172 240.727742 
Q 594.811172 241.652742 592.646172 241.732742 
z
M 597.131172 236.590242 
Q 597.208672 235.715242 597.208672 235.052742 
Q 597.208672 233.630242 596.881172 232.402742 
Q 596.693672 231.722742 596.326172 231.402742 
Q 596.131172 231.230242 595.818672 231.230242 
Q 595.426172 231.230242 595.208672 231.567742 
Q 594.903672 232.027742 594.903672 233.325242 
Q 594.903672 235.490242 595.418672 236.310242 
Q 595.756172 236.840242 596.326172 236.840242 
Q 596.631172 236.840242 597.131172 236.590242 
z
"/>
   </g>
   <g id="text_29">
    <path d="M 579.967594 389.730615 
L 574.122281 389.730615 
L 574.122281 389.568896 
Q 576.810563 386.369678 577.384781 385.263428 
Q 577.961344 384.157178 577.961344 383.10249 
Q 577.961344 382.33374 577.485563 381.825146 
Q 577.009781 381.314209 576.320719 381.314209 
Q 575.193375 381.314209 574.569938 382.443896 
L 574.298063 382.347803 
Q 574.694156 380.941553 575.500406 380.268896 
Q 576.306656 379.593896 577.361344 379.593896 
Q 578.113688 379.593896 578.737125 379.945459 
Q 579.360563 380.297021 579.712125 380.90874 
Q 580.063688 381.520459 580.063688 382.054834 
Q 580.063688 383.029834 579.519938 384.032959 
Q 578.781656 385.387646 576.29025 387.811084 
L 578.437125 387.811084 
Q 579.226969 387.811084 579.466031 387.745459 
Q 579.705094 387.679834 579.857438 387.522803 
Q 580.012125 387.365771 580.260563 386.859521 
L 580.525406 386.859521 
L 579.967594 389.730615 
z
M 583.131656 387.473584 
Q 583.644938 387.473584 583.998844 387.834521 
Q 584.355094 388.193115 584.355094 388.697021 
Q 584.355094 389.203271 583.9965 389.559521 
Q 583.637906 389.913428 583.131656 389.913428 
Q 582.625406 389.913428 582.269156 389.559521 
Q 581.91525 389.203271 581.91525 388.697021 
Q 581.91525 388.193115 582.269156 387.834521 
Q 582.625406 387.473584 583.131656 387.473584 
z
M 587.664469 389.936865 
L 590.369156 381.740771 
L 588.309 381.740771 
Q 587.101969 381.740771 586.492594 382.054834 
Q 586.068375 382.275146 585.789469 382.882178 
L 585.512906 382.882178 
L 586.230094 379.797803 
L 592.148063 379.797803 
L 588.81525 389.936865 
L 587.664469 389.936865 
z
" style="fill: #404040; stroke: #ffffff; stroke-width: 3.8"/>
    <path d="M 579.967594 389.730615 
L 574.122281 389.730615 
L 574.122281 389.568896 
Q 576.810563 386.369678 577.384781 385.263428 
Q 577.961344 384.157178 577.961344 383.10249 
Q 577.961344 382.33374 577.485563 381.825146 
Q 577.009781 381.314209 576.320719 381.314209 
Q 575.193375 381.314209 574.569938 382.443896 
L 574.298063 382.347803 
Q 574.694156 380.941553 575.500406 380.268896 
Q 576.306656 379.593896 577.361344 379.593896 
Q 578.113688 379.593896 578.737125 379.945459 
Q 579.360563 380.297021 579.712125 380.90874 
Q 580.063688 381.520459 580.063688 382.054834 
Q 580.063688 383.029834 579.519938 384.032959 
Q 578.781656 385.387646 576.29025 387.811084 
L 578.437125 387.811084 
Q 579.226969 387.811084 579.466031 387.745459 
Q 579.705094 387.679834 579.857438 387.522803 
Q 580.012125 387.365771 580.260563 386.859521 
L 580.525406 386.859521 
L 579.967594 389.730615 
z
M 583.131656 387.473584 
Q 583.644938 387.473584 583.998844 387.834521 
Q 584.355094 388.193115 584.355094 388.697021 
Q 584.355094 389.203271 583.9965 389.559521 
Q 583.637906 389.913428 583.131656 389.913428 
Q 582.625406 389.913428 582.269156 389.559521 
Q 581.91525 389.203271 581.91525 388.697021 
Q 581.91525 388.193115 582.269156 387.834521 
Q 582.625406 387.473584 583.131656 387.473584 
z
M 587.664469 389.936865 
L 590.369156 381.740771 
L 588.309 381.740771 
Q 587.101969 381.740771 586.492594 382.054834 
Q 586.068375 382.275146 585.789469 382.882178 
L 585.512906 382.882178 
L 586.230094 379.797803 
L 592.148063 379.797803 
L 588.81525 389.936865 
L 587.664469 389.936865 
z
" style="fill: #404040"/>
   </g>
   <g id="text_30">
    <path d="M 567.635205 335.219456 
L 567.635205 343.342893 
Q 567.635205 344.256956 567.714893 344.510081 
Q 567.796924 344.763206 568.052393 344.924924 
Q 568.310205 345.084299 568.875049 345.084299 
L 569.100049 345.084299 
L 569.100049 345.356174 
L 563.871143 345.356174 
L 563.871143 345.084299 
L 564.135986 345.084299 
Q 564.773486 345.084299 565.043018 344.938987 
Q 565.314893 344.791331 565.408643 344.535862 
Q 565.504736 344.280393 565.504736 343.342893 
L 565.504736 338.193674 
Q 565.504736 337.504612 565.439111 337.333518 
Q 565.373486 337.160081 565.193018 337.040549 
Q 565.014893 336.918674 564.780518 336.918674 
Q 564.405518 336.918674 563.871143 337.153049 
L 563.739893 336.888206 
L 567.393799 335.219456 
L 567.635205 335.219456 
z
M 570.712549 345.562424 
L 570.712549 345.356174 
Q 571.928955 345.077268 572.775049 344.535862 
Q 573.621143 343.994456 574.11333 343.195237 
Q 574.607861 342.396018 574.80708 341.357737 
Q 574.352393 341.592112 574.033643 341.683518 
Q 573.714893 341.774924 573.36333 341.774924 
Q 572.235986 341.774924 571.483643 340.961643 
Q 570.733643 340.148362 570.733643 338.735081 
Q 570.733643 337.753049 571.139111 336.937424 
Q 571.546924 336.119456 572.301611 335.669456 
Q 573.056299 335.219456 573.86958 335.219456 
Q 574.741455 335.219456 575.517236 335.718674 
Q 576.293018 336.215549 576.754736 337.160081 
Q 577.216455 338.104612 577.216455 339.313987 
Q 577.216455 340.881956 576.464111 342.318674 
Q 575.714111 343.753049 574.228174 344.620237 
Q 572.742236 345.487424 570.712549 345.562424 
z
M 574.917236 340.741331 
Q 574.989893 339.921018 574.989893 339.299924 
Q 574.989893 337.966331 574.682861 336.815549 
Q 574.50708 336.178049 574.162549 335.878049 
Q 573.979736 335.716331 573.686768 335.716331 
Q 573.318799 335.716331 573.114893 336.032737 
Q 572.828955 336.463987 572.828955 337.680393 
Q 572.828955 339.710081 573.311768 340.478831 
Q 573.628174 340.975706 574.162549 340.975706 
Q 574.448486 340.975706 574.917236 340.741331 
z
M 579.62583 343.099143 
Q 580.139111 343.099143 580.493018 343.460081 
Q 580.849268 343.818674 580.849268 344.322581 
Q 580.849268 344.828831 580.490674 345.185081 
Q 580.13208 345.538987 579.62583 345.538987 
Q 579.11958 345.538987 578.76333 345.185081 
Q 578.409424 344.828831 578.409424 344.322581 
Q 578.409424 343.818674 578.76333 343.460081 
Q 579.11958 343.099143 579.62583 343.099143 
z
M 583.785986 335.423362 
L 588.435986 335.423362 
L 587.697705 337.314768 
L 583.785986 337.314768 
L 583.41333 338.303831 
Q 585.939893 338.397581 587.301611 339.562424 
Q 588.421924 340.521018 588.421924 341.950706 
Q 588.421924 342.864768 587.901611 343.741331 
Q 587.381299 344.615549 586.436768 345.088987 
Q 585.492236 345.562424 584.364893 345.562424 
Q 583.148486 345.562424 582.496924 345.107737 
Q 582.042236 344.784299 582.042236 344.374143 
Q 582.042236 344.060081 582.278955 343.818674 
Q 582.518018 343.577268 582.834424 343.577268 
Q 583.120361 343.577268 583.41333 343.694456 
Q 583.706299 343.811643 584.416455 344.308518 
Q 584.861768 344.615549 585.185205 344.732737 
Q 585.412549 344.821799 585.698486 344.821799 
Q 586.298486 344.821799 586.718018 344.383518 
Q 587.139893 343.942893 587.139893 343.326487 
Q 587.139893 342.037424 585.85083 341.233518 
Q 584.561768 340.427268 582.600049 340.427268 
Q 582.40083 340.427268 582.00708 340.434299 
L 583.785986 335.423362 
z
" style="fill: #404040; stroke: #ffffff; stroke-width: 3.8"/>
    <path d="M 567.635205 335.219456 
L 567.635205 343.342893 
Q 567.635205 344.256956 567.714893 344.510081 
Q 567.796924 344.763206 568.052393 344.924924 
Q 568.310205 345.084299 568.875049 345.084299 
L 569.100049 345.084299 
L 569.100049 345.356174 
L 563.871143 345.356174 
L 563.871143 345.084299 
L 564.135986 345.084299 
Q 564.773486 345.084299 565.043018 344.938987 
Q 565.314893 344.791331 565.408643 344.535862 
Q 565.504736 344.280393 565.504736 343.342893 
L 565.504736 338.193674 
Q 565.504736 337.504612 565.439111 337.333518 
Q 565.373486 337.160081 565.193018 337.040549 
Q 565.014893 336.918674 564.780518 336.918674 
Q 564.405518 336.918674 563.871143 337.153049 
L 563.739893 336.888206 
L 567.393799 335.219456 
L 567.635205 335.219456 
z
M 570.712549 345.562424 
L 570.712549 345.356174 
Q 571.928955 345.077268 572.775049 344.535862 
Q 573.621143 343.994456 574.11333 343.195237 
Q 574.607861 342.396018 574.80708 341.357737 
Q 574.352393 341.592112 574.033643 341.683518 
Q 573.714893 341.774924 573.36333 341.774924 
Q 572.235986 341.774924 571.483643 340.961643 
Q 570.733643 340.148362 570.733643 338.735081 
Q 570.733643 337.753049 571.139111 336.937424 
Q 571.546924 336.119456 572.301611 335.669456 
Q 573.056299 335.219456 573.86958 335.219456 
Q 574.741455 335.219456 575.517236 335.718674 
Q 576.293018 336.215549 576.754736 337.160081 
Q 577.216455 338.104612 577.216455 339.313987 
Q 577.216455 340.881956 576.464111 342.318674 
Q 575.714111 343.753049 574.228174 344.620237 
Q 572.742236 345.487424 570.712549 345.562424 
z
M 574.917236 340.741331 
Q 574.989893 339.921018 574.989893 339.299924 
Q 574.989893 337.966331 574.682861 336.815549 
Q 574.50708 336.178049 574.162549 335.878049 
Q 573.979736 335.716331 573.686768 335.716331 
Q 573.318799 335.716331 573.114893 336.032737 
Q 572.828955 336.463987 572.828955 337.680393 
Q 572.828955 339.710081 573.311768 340.478831 
Q 573.628174 340.975706 574.162549 340.975706 
Q 574.448486 340.975706 574.917236 340.741331 
z
M 579.62583 343.099143 
Q 580.139111 343.099143 580.493018 343.460081 
Q 580.849268 343.818674 580.849268 344.322581 
Q 580.849268 344.828831 580.490674 345.185081 
Q 580.13208 345.538987 579.62583 345.538987 
Q 579.11958 345.538987 578.76333 345.185081 
Q 578.409424 344.828831 578.409424 344.322581 
Q 578.409424 343.818674 578.76333 343.460081 
Q 579.11958 343.099143 579.62583 343.099143 
z
M 583.785986 335.423362 
L 588.435986 335.423362 
L 587.697705 337.314768 
L 583.785986 337.314768 
L 583.41333 338.303831 
Q 585.939893 338.397581 587.301611 339.562424 
Q 588.421924 340.521018 588.421924 341.950706 
Q 588.421924 342.864768 587.901611 343.741331 
Q 587.381299 344.615549 586.436768 345.088987 
Q 585.492236 345.562424 584.364893 345.562424 
Q 583.148486 345.562424 582.496924 345.107737 
Q 582.042236 344.784299 582.042236 344.374143 
Q 582.042236 344.060081 582.278955 343.818674 
Q 582.518018 343.577268 582.834424 343.577268 
Q 583.120361 343.577268 583.41333 343.694456 
Q 583.706299 343.811643 584.416455 344.308518 
Q 584.861768 344.615549 585.185205 344.732737 
Q 585.412549 344.821799 585.698486 344.821799 
Q 586.298486 344.821799 586.718018 344.383518 
Q 587.139893 343.942893 587.139893 343.326487 
Q 587.139893 342.037424 585.85083 341.233518 
Q 584.561768 340.427268 582.600049 340.427268 
Q 582.40083 340.427268 582.00708 340.434299 
L 583.785986 335.423362 
z
" style="fill: #404040"/>
   </g>
   <g id="text_31">
    <path d="M 536.315006 317.777575 
L 530.469693 317.777575 
L 530.469693 317.615856 
Q 533.157975 314.416637 533.732193 313.310387 
Q 534.308756 312.204137 534.308756 311.14945 
Q 534.308756 310.3807 533.832975 309.872106 
Q 533.357193 309.361168 532.668131 309.361168 
Q 531.540787 309.361168 530.91735 310.490856 
L 530.645475 310.394762 
Q 531.041568 308.988512 531.847818 308.315856 
Q 532.654068 307.640856 533.708756 307.640856 
Q 534.4611 307.640856 535.084537 307.992418 
Q 535.707975 308.343981 536.059537 308.9557 
Q 536.4111 309.567418 536.4111 310.101793 
Q 536.4111 311.076793 535.86735 312.079918 
Q 535.129068 313.434606 532.637662 315.858043 
L 534.784537 315.858043 
Q 535.574381 315.858043 535.813443 315.792418 
Q 536.052506 315.726793 536.20485 315.569762 
Q 536.359537 315.412731 536.607975 314.906481 
L 536.872818 314.906481 
L 536.315006 317.777575 
z
M 539.479068 315.520543 
Q 539.99235 315.520543 540.346256 315.881481 
Q 540.702506 316.240075 540.702506 316.743981 
Q 540.702506 317.250231 540.343912 317.606481 
Q 539.985318 317.960387 539.479068 317.960387 
Q 538.972818 317.960387 538.616568 317.606481 
Q 538.262662 317.250231 538.262662 316.743981 
Q 538.262662 316.240075 538.616568 315.881481 
Q 538.972818 315.520543 539.479068 315.520543 
z
M 541.726725 314.034606 
L 546.444693 307.640856 
L 547.337662 307.640856 
L 547.337662 314.034606 
L 548.247037 314.034606 
L 548.247037 315.551012 
L 547.337662 315.551012 
L 547.337662 317.777575 
L 545.324381 317.777575 
L 545.324381 315.551012 
L 541.726725 315.551012 
L 541.726725 314.034606 
z
M 542.439225 314.034606 
L 545.324381 314.034606 
L 545.324381 310.115856 
L 542.439225 314.034606 
z
" style="fill: #404040; stroke: #ffffff; stroke-width: 3.8"/>
    <path d="M 536.315006 317.777575 
L 530.469693 317.777575 
L 530.469693 317.615856 
Q 533.157975 314.416637 533.732193 313.310387 
Q 534.308756 312.204137 534.308756 311.14945 
Q 534.308756 310.3807 533.832975 309.872106 
Q 533.357193 309.361168 532.668131 309.361168 
Q 531.540787 309.361168 530.91735 310.490856 
L 530.645475 310.394762 
Q 531.041568 308.988512 531.847818 308.315856 
Q 532.654068 307.640856 533.708756 307.640856 
Q 534.4611 307.640856 535.084537 307.992418 
Q 535.707975 308.343981 536.059537 308.9557 
Q 536.4111 309.567418 536.4111 310.101793 
Q 536.4111 311.076793 535.86735 312.079918 
Q 535.129068 313.434606 532.637662 315.858043 
L 534.784537 315.858043 
Q 535.574381 315.858043 535.813443 315.792418 
Q 536.052506 315.726793 536.20485 315.569762 
Q 536.359537 315.412731 536.607975 314.906481 
L 536.872818 314.906481 
L 536.315006 317.777575 
z
M 539.479068 315.520543 
Q 539.99235 315.520543 540.346256 315.881481 
Q 540.702506 316.240075 540.702506 316.743981 
Q 540.702506 317.250231 540.343912 317.606481 
Q 539.985318 317.960387 539.479068 317.960387 
Q 538.972818 317.960387 538.616568 317.606481 
Q 538.262662 317.250231 538.262662 316.743981 
Q 538.262662 316.240075 538.616568 315.881481 
Q 538.972818 315.520543 539.479068 315.520543 
z
M 541.726725 314.034606 
L 546.444693 307.640856 
L 547.337662 307.640856 
L 547.337662 314.034606 
L 548.247037 314.034606 
L 548.247037 315.551012 
L 547.337662 315.551012 
L 547.337662 317.777575 
L 545.324381 317.777575 
L 545.324381 315.551012 
L 541.726725 315.551012 
L 541.726725 314.034606 
z
M 542.439225 314.034606 
L 545.324381 314.034606 
L 545.324381 310.115856 
L 542.439225 314.034606 
z
" style="fill: #404040"/>
   </g>
   <g id="text_32">
    <path d="M 325.782367 376.070956 
L 319.937054 376.070956 
L 319.937054 375.909237 
Q 322.625336 372.710019 323.199554 371.603769 
Q 323.776117 370.497519 323.776117 369.442831 
Q 323.776117 368.674081 323.300336 368.165487 
Q 322.824554 367.65455 322.135492 367.65455 
Q 321.008148 367.65455 320.384711 368.784237 
L 320.112836 368.688144 
Q 320.508929 367.281894 321.315179 366.609237 
Q 322.121429 365.934237 323.176117 365.934237 
Q 323.928461 365.934237 324.551898 366.2858 
Q 325.175336 366.637362 325.526898 367.249081 
Q 325.878461 367.8608 325.878461 368.395175 
Q 325.878461 369.370175 325.334711 370.3733 
Q 324.596429 371.727987 322.105023 374.151425 
L 324.251898 374.151425 
Q 325.041742 374.151425 325.280804 374.0858 
Q 325.519867 374.020175 325.672211 373.863144 
Q 325.826898 373.706112 326.075336 373.199862 
L 326.340179 373.199862 
L 325.782367 376.070956 
z
M 329.356586 366.138144 
L 334.006586 366.138144 
L 333.268304 368.02955 
L 329.356586 368.02955 
L 328.983929 369.018612 
Q 331.510492 369.112362 332.872211 370.277206 
Q 333.992523 371.2358 333.992523 372.665487 
Q 333.992523 373.57955 333.472211 374.456112 
Q 332.951898 375.330331 332.007367 375.803769 
Q 331.062836 376.277206 329.935492 376.277206 
Q 328.719086 376.277206 328.067523 375.822519 
Q 327.612836 375.499081 327.612836 375.088925 
Q 327.612836 374.774862 327.849554 374.533456 
Q 328.088617 374.29205 328.405023 374.29205 
Q 328.690961 374.29205 328.983929 374.409237 
Q 329.276898 374.526425 329.987054 375.0233 
Q 330.432367 375.330331 330.755804 375.447519 
Q 330.983148 375.536581 331.269086 375.536581 
Q 331.869086 375.536581 332.288617 375.0983 
Q 332.710492 374.657675 332.710492 374.041269 
Q 332.710492 372.752206 331.421429 371.9483 
Q 330.132367 371.14205 328.170648 371.14205 
Q 327.971429 371.14205 327.577679 371.149081 
L 329.356586 366.138144 
z
M 336.446429 373.813925 
Q 336.959711 373.813925 337.313617 374.174862 
Q 337.669867 374.533456 337.669867 375.037362 
Q 337.669867 375.543612 337.311273 375.899862 
Q 336.952679 376.253769 336.446429 376.253769 
Q 335.940179 376.253769 335.583929 375.899862 
Q 335.230023 375.543612 335.230023 375.037362 
Q 335.230023 374.533456 335.583929 374.174862 
Q 335.940179 373.813925 336.446429 373.813925 
z
M 338.694086 372.327987 
L 343.412054 365.934237 
L 344.305023 365.934237 
L 344.305023 372.327987 
L 345.214398 372.327987 
L 345.214398 373.844394 
L 344.305023 373.844394 
L 344.305023 376.070956 
L 342.291742 376.070956 
L 342.291742 373.844394 
L 338.694086 373.844394 
L 338.694086 372.327987 
z
M 339.406586 372.327987 
L 342.291742 372.327987 
L 342.291742 368.409237 
L 339.406586 372.327987 
z
" style="fill: #404040; stroke: #ffffff; stroke-width: 3.8"/>
    <path d="M 325.782367 376.070956 
L 319.937054 376.070956 
L 319.937054 375.909237 
Q 322.625336 372.710019 323.199554 371.603769 
Q 323.776117 370.497519 323.776117 369.442831 
Q 323.776117 368.674081 323.300336 368.165487 
Q 322.824554 367.65455 322.135492 367.65455 
Q 321.008148 367.65455 320.384711 368.784237 
L 320.112836 368.688144 
Q 320.508929 367.281894 321.315179 366.609237 
Q 322.121429 365.934237 323.176117 365.934237 
Q 323.928461 365.934237 324.551898 366.2858 
Q 325.175336 366.637362 325.526898 367.249081 
Q 325.878461 367.8608 325.878461 368.395175 
Q 325.878461 369.370175 325.334711 370.3733 
Q 324.596429 371.727987 322.105023 374.151425 
L 324.251898 374.151425 
Q 325.041742 374.151425 325.280804 374.0858 
Q 325.519867 374.020175 325.672211 373.863144 
Q 325.826898 373.706112 326.075336 373.199862 
L 326.340179 373.199862 
L 325.782367 376.070956 
z
M 329.356586 366.138144 
L 334.006586 366.138144 
L 333.268304 368.02955 
L 329.356586 368.02955 
L 328.983929 369.018612 
Q 331.510492 369.112362 332.872211 370.277206 
Q 333.992523 371.2358 333.992523 372.665487 
Q 333.992523 373.57955 333.472211 374.456112 
Q 332.951898 375.330331 332.007367 375.803769 
Q 331.062836 376.277206 329.935492 376.277206 
Q 328.719086 376.277206 328.067523 375.822519 
Q 327.612836 375.499081 327.612836 375.088925 
Q 327.612836 374.774862 327.849554 374.533456 
Q 328.088617 374.29205 328.405023 374.29205 
Q 328.690961 374.29205 328.983929 374.409237 
Q 329.276898 374.526425 329.987054 375.0233 
Q 330.432367 375.330331 330.755804 375.447519 
Q 330.983148 375.536581 331.269086 375.536581 
Q 331.869086 375.536581 332.288617 375.0983 
Q 332.710492 374.657675 332.710492 374.041269 
Q 332.710492 372.752206 331.421429 371.9483 
Q 330.132367 371.14205 328.170648 371.14205 
Q 327.971429 371.14205 327.577679 371.149081 
L 329.356586 366.138144 
z
M 336.446429 373.813925 
Q 336.959711 373.813925 337.313617 374.174862 
Q 337.669867 374.533456 337.669867 375.037362 
Q 337.669867 375.543612 337.311273 375.899862 
Q 336.952679 376.253769 336.446429 376.253769 
Q 335.940179 376.253769 335.583929 375.899862 
Q 335.230023 375.543612 335.230023 375.037362 
Q 335.230023 374.533456 335.583929 374.174862 
Q 335.940179 373.813925 336.446429 373.813925 
z
M 338.694086 372.327987 
L 343.412054 365.934237 
L 344.305023 365.934237 
L 344.305023 372.327987 
L 345.214398 372.327987 
L 345.214398 373.844394 
L 344.305023 373.844394 
L 344.305023 376.070956 
L 342.291742 376.070956 
L 342.291742 373.844394 
L 338.694086 373.844394 
L 338.694086 372.327987 
z
M 339.406586 372.327987 
L 342.291742 372.327987 
L 342.291742 368.409237 
L 339.406586 372.327987 
z
" style="fill: #404040"/>
   </g>
  </g>
 </g>
 <defs>
  <clipPath id="p6483ab45e2">
   <rect x="7.2" y="51.034687" width="730.764" height="431.819207"/>
  </clipPath>
 </defs>
</svg>
