<?xml version="1.0" encoding="utf-8" standalone="no"?>
<!DOCTYPE svg PUBLIC "-//W3C//DTD SVG 1.1//EN"
  "http://www.w3.org/Graphics/SVG/1.1/DTD/svg11.dtd">
<svg xmlns:xlink="http://www.w3.org/1999/xlink" width="745.164pt" height="496.024pt" viewBox="0 0 745.164 496.024" xmlns="http://www.w3.org/2000/svg" version="1.1">
 <metadata>
  <rdf:RDF xmlns:dc="http://purl.org/dc/elements/1.1/" xmlns:cc="http://creativecommons.org/ns#" xmlns:rdf="http://www.w3.org/1999/02/22-rdf-syntax-ns#">
   <cc:Work>
    <dc:type rdf:resource="http://purl.org/dc/dcmitype/StillImage"/>
    <dc:date>2026-07-13T16:58:35.517415</dc:date>
    <dc:format>image/svg+xml</dc:format>
    <dc:creator>
     <cc:Agent>
      <dc:title>Matplotlib v3.10.8, https://matplotlib.org/</dc:title>
     </cc:Agent>
    </dc:creator>
   </cc:Work>
  </rdf:RDF>
 </metadata>
 <defs>
  <style type="text/css">*{stroke-linejoin: round; stroke-linecap: butt}</style>
 </defs>
 <g id="figure_1">
  <g id="patch_1">
   <path d="M 0 496.024 
L 745.164 496.024 
L 745.164 0 
L 0 0 
L 0 496.024 
z
" style="fill: none"/>
  </g>
  <g id="axes_1">
   <g id="patch_2">
    <path d="M 120.350555 440.705993 
Q 120.350555 455.307423 120.350555 468.192265 
" clip-path="url(#p409338e2f8)" style="fill: none; stroke: #111111; stroke-width: 1.535362; stroke-linejoin: miter; stroke-linecap: round"/>
    <path d="M 123.785871 461.321633 
L 120.350555 468.192265 
L 116.915239 461.321633 
z
" clip-path="url(#p409338e2f8)" style="fill: #111111; stroke: #111111; stroke-width: 1.535362; stroke-linejoin: miter; stroke-linecap: round"/>
   </g>
   <g id="patch_3">
    <path d="M 120.350555 339.819216 
Q 120.350555 364.784965 120.350555 387.459228 
" clip-path="url(#p409338e2f8)" style="fill: none; stroke: #111111; stroke-width: 2.049566; stroke-linejoin: miter; stroke-linecap: round"/>
    <path d="M 123.950416 380.259506 
L 120.350555 387.459228 
L 116.750694 380.259506 
z
" clip-path="url(#p409338e2f8)" style="fill: #111111; stroke: #111111; stroke-width: 2.049566; stroke-linejoin: miter; stroke-linecap: round"/>
   </g>
   <g id="patch_4">
    <path d="M 120.350555 211.055531 
Q 120.350555 239.595415 120.350555 264.925809 
" clip-path="url(#p409338e2f8)" style="fill: none; stroke: #111111; stroke-width: 2.870655; stroke-linejoin: miter; stroke-linecap: round"/>
    <path d="M 124.213164 257.20059 
L 120.350555 264.925809 
L 116.487945 257.20059 
z
" clip-path="url(#p409338e2f8)" style="fill: #111111; stroke: #111111; stroke-width: 2.870655; stroke-linejoin: miter; stroke-linecap: round"/>
   </g>
   <g id="patch_5">
    <path d="M 586.153672 254.70318 
Q 586.153672 283.700338 586.153672 310.99326 
" clip-path="url(#p409338e2f8)" style="fill: none; stroke: #111111; stroke-width: 1.524314; stroke-linejoin: miter; stroke-linecap: round"/>
    <path d="M 589.585453 304.129699 
L 586.153672 310.99326 
L 582.721892 304.129699 
z
" clip-path="url(#p409338e2f8)" style="fill: #111111; stroke: #111111; stroke-width: 1.524314; stroke-linejoin: miter; stroke-linecap: round"/>
   </g>
   <g id="line2d_1">
    <path d="M 165.610777 469.908852 
L 550.322663 469.908852 
" clip-path="url(#p409338e2f8)" style="fill: none; stroke-dasharray: 5.6,4.2; stroke-dashoffset: 0; stroke: #404040; stroke-width: 1.4"/>
   </g>
   <g id="line2d_2">
    <path d="M 165.610777 389.750713 
L 550.322663 389.750713 
" clip-path="url(#p409338e2f8)" style="fill: none; stroke-dasharray: 5.6,4.2; stroke-dashoffset: 0; stroke: #404040; stroke-width: 1.4"/>
   </g>
   <g id="line2d_3">
    <path d="M 574.838617 312.697495 
L 503.176599 312.697495 
" clip-path="url(#p409338e2f8)" style="fill: none; stroke-dasharray: 5.6,4.2; stroke-dashoffset: 0; stroke: #404040; stroke-width: 1.4"/>
   </g>
   <g id="patch_6">
    <path d="M 665.359061 312.697495 
Q 577.393075 389.332514 490.149418 465.33825 
" clip-path="url(#p409338e2f8)" style="fill: none; stroke: #404040; stroke-width: 0.856857; stroke-linejoin: miter; stroke-linecap: round"/>
    <path d="M 496.252093 463.760334 
L 490.149418 465.33825 
L 492.54869 459.509361 
z
" clip-path="url(#p409338e2f8)" style="fill: #404040; stroke: #404040; stroke-width: 0.856857; stroke-linejoin: miter; stroke-linecap: round"/>
   </g>
   <g id="patch_7">
    <path d="M 620.098839 312.697495 
Q 578.139074 349.25239 537.667706 384.51061 
" clip-path="url(#p409338e2f8)" style="fill: none; stroke: #404040; stroke-width: 1.765602; stroke-linejoin: miter; stroke-linecap: round"/>
    <path d="M 544.426154 382.763137 
L 537.667706 384.51061 
L 540.324796 378.055368 
z
" clip-path="url(#p409338e2f8)" style="fill: #404040; stroke: #404040; stroke-width: 1.765602; stroke-linejoin: miter; stroke-linecap: round"/>
   </g>
   <g id="patch_8">
    <path d="M 415.484919 309.442198 
Q 477.112899 310.994296 533.152481 312.40565 
" clip-path="url(#p409338e2f8)" style="fill: none; stroke: #404040; stroke-width: 5; stroke-linejoin: miter; stroke-linecap: round"/>
    <path d="M 524.860887 307.995495 
L 533.152481 312.40565 
L 524.649401 316.392832 
z
" clip-path="url(#p409338e2f8)" style="fill: #404040; stroke: #404040; stroke-width: 5; stroke-linejoin: miter; stroke-linecap: round"/>
   </g>
   <g id="patch_9">
    <path d="M 370.224697 309.442198 
Q 334.745321 347.404196 300.119085 384.453356 
" clip-path="url(#p409338e2f8)" style="fill: none; stroke: #404040; stroke-width: 1.11754; stroke-linejoin: miter; stroke-linecap: round"/>
    <path d="M 306.210378 382.191528 
L 300.119085 384.453356 
L 301.964398 378.223225 
z
" clip-path="url(#p409338e2f8)" style="fill: #404040; stroke: #404040; stroke-width: 1.11754; stroke-linejoin: miter; stroke-linecap: round"/>
   </g>
   <g id="line2d_4">
    <path d="M 120.350555 389.750713 
L 120.350555 418.953573 
" clip-path="url(#p409338e2f8)" style="fill: none; stroke: #111111; stroke-width: 1.535362"/>
   </g>
   <g id="line2d_5">
    <path d="M 120.350555 268.135299 
L 120.350555 318.066796 
" clip-path="url(#p409338e2f8)" style="fill: none; stroke: #111111; stroke-width: 2.049566"/>
   </g>
   <g id="line2d_6">
    <path d="M 120.350555 132.223344 
L 120.350555 189.303112 
" clip-path="url(#p409338e2f8)" style="fill: none; stroke: #111111; stroke-width: 2.870655"/>
   </g>
   <g id="line2d_7">
    <path d="M 586.153672 174.956445 
L 586.153672 232.95076 
" clip-path="url(#p409338e2f8)" style="fill: none; stroke: #111111; stroke-width: 1.524314"/>
   </g>
   <g id="line2d_8">
    <path d="M 75.090333 469.908852 
L 165.610777 469.908852 
" clip-path="url(#p409338e2f8)" style="fill: none; stroke: #111111; stroke-width: 3.6; stroke-linecap: round"/>
   </g>
   <g id="line2d_9">
    <path d="M 75.090333 389.750713 
L 165.610777 389.750713 
" clip-path="url(#p409338e2f8)" style="fill: none; stroke: #111111; stroke-width: 3.6; stroke-linecap: round"/>
   </g>
   <g id="line2d_10">
    <path d="M 75.090333 268.135299 
L 165.610777 268.135299 
" clip-path="url(#p409338e2f8)" style="fill: none; stroke: #111111; stroke-width: 3.6; stroke-linecap: round"/>
   </g>
   <g id="line2d_11">
    <path d="M 75.090333 132.223344 
L 165.610777 132.223344 
" clip-path="url(#p409338e2f8)" style="fill: none; stroke: #111111; stroke-width: 3.6; stroke-linecap: round"/>
   </g>
   <g id="line2d_12">
    <path d="M 324.964475 309.442198 
L 415.484919 309.442198 
" clip-path="url(#p409338e2f8)" style="fill: none; stroke: #111111; stroke-width: 3.6; stroke-linecap: round"/>
   </g>
   <g id="line2d_13">
    <path d="M 574.838617 312.697495 
L 665.359061 312.697495 
" clip-path="url(#p409338e2f8)" style="fill: none; stroke: #111111; stroke-width: 3.6; stroke-linecap: round"/>
   </g>
   <g id="line2d_14">
    <path d="M 574.838617 174.956445 
L 665.359061 174.956445 
" clip-path="url(#p409338e2f8)" style="fill: none; stroke: #111111; stroke-width: 3.6; stroke-linecap: round"/>
   </g>
   <g id="text_1">
    <!-- $^{190}\mathrm{Hg}$ -->
    <g transform="translate(325.662 38.14) scale(0.34 -0.34)">
     <defs>
      <path id="DejaVuSans-31" d="M 794 531 
L 1825 531 
L 1825 4091 
L 703 3866 
L 703 4441 
L 1819 4666 
L 2450 4666 
L 2450 531 
L 3481 531 
L 3481 0 
L 794 0 
L 794 531 
z
" transform="scale(0.015625)"/>
      <path id="DejaVuSans-39" d="M 703 97 
L 703 672 
Q 941 559 1184 500 
Q 1428 441 1663 441 
Q 2288 441 2617 861 
Q 2947 1281 2994 2138 
Q 2813 1869 2534 1725 
Q 2256 1581 1919 1581 
Q 1219 1581 811 2004 
Q 403 2428 403 3163 
Q 403 3881 828 4315 
Q 1253 4750 1959 4750 
Q 2769 4750 3195 4129 
Q 3622 3509 3622 2328 
Q 3622 1225 3098 567 
Q 2575 -91 1691 -91 
Q 1453 -91 1209 -44 
Q 966 3 703 97 
z
M 1959 2075 
Q 2384 2075 2632 2365 
Q 2881 2656 2881 3163 
Q 2881 3666 2632 3958 
Q 2384 4250 1959 4250 
Q 1534 4250 1286 3958 
Q 1038 3666 1038 3163 
Q 1038 2656 1286 2365 
Q 1534 2075 1959 2075 
z
" transform="scale(0.015625)"/>
      <path id="DejaVuSans-30" d="M 2034 4250 
Q 1547 4250 1301 3770 
Q 1056 3291 1056 2328 
Q 1056 1369 1301 889 
Q 1547 409 2034 409 
Q 2525 409 2770 889 
Q 3016 1369 3016 2328 
Q 3016 3291 2770 3770 
Q 2525 4250 2034 4250 
z
M 2034 4750 
Q 2819 4750 3233 4129 
Q 3647 3509 3647 2328 
Q 3647 1150 3233 529 
Q 2819 -91 2034 -91 
Q 1250 -91 836 529 
Q 422 1150 422 2328 
Q 422 3509 836 4129 
Q 1250 4750 2034 4750 
z
" transform="scale(0.015625)"/>
      <path id="DejaVuSans-48" d="M 628 4666 
L 1259 4666 
L 1259 2753 
L 3553 2753 
L 3553 4666 
L 4184 4666 
L 4184 0 
L 3553 0 
L 3553 2222 
L 1259 2222 
L 1259 0 
L 628 0 
L 628 4666 
z
" transform="scale(0.015625)"/>
      <path id="DejaVuSans-67" d="M 2906 1791 
Q 2906 2416 2648 2759 
Q 2391 3103 1925 3103 
Q 1463 3103 1205 2759 
Q 947 2416 947 1791 
Q 947 1169 1205 825 
Q 1463 481 1925 481 
Q 2391 481 2648 825 
Q 2906 1169 2906 1791 
z
M 3481 434 
Q 3481 -459 3084 -895 
Q 2688 -1331 1869 -1331 
Q 1566 -1331 1297 -1286 
Q 1028 -1241 775 -1147 
L 775 -588 
Q 1028 -725 1275 -790 
Q 1522 -856 1778 -856 
Q 2344 -856 2625 -561 
Q 2906 -266 2906 331 
L 2906 616 
Q 2728 306 2450 153 
Q 2172 0 1784 0 
Q 1141 0 747 490 
Q 353 981 353 1791 
Q 353 2603 747 3093 
Q 1141 3584 1784 3584 
Q 2172 3584 2450 3431 
Q 2728 3278 2906 2969 
L 2906 3500 
L 3481 3500 
L 3481 434 
z
" transform="scale(0.015625)"/>
     </defs>
     <use xlink:href="#DejaVuSans-31" transform="translate(0.957031 39.046875) scale(0.7)"/>
     <use xlink:href="#DejaVuSans-39" transform="translate(45.493164 39.046875) scale(0.7)"/>
     <use xlink:href="#DejaVuSans-30" transform="translate(90.029297 39.046875) scale(0.7)"/>
     <use xlink:href="#DejaVuSans-48" transform="translate(137.299805 0.765625)"/>
     <use xlink:href="#DejaVuSans-67" transform="translate(212.495117 0.765625)"/>
    </g>
   </g>
   <g id="text_2">
    <!-- 0 -->
    <g transform="translate(46.98525 474.323852) scale(0.16 -0.16)">
     <defs>
      <path id="DejaVuSans-BoldOblique-30" d="M 1913 728 
Q 2153 728 2339 872 
Q 2525 1016 2650 1294 
Q 2738 1491 2809 1742 
Q 2881 1994 2944 2338 
Q 2997 2616 3025 2850 
Q 3053 3084 3053 3250 
Q 3053 3600 2928 3764 
Q 2803 3928 2541 3928 
Q 2297 3928 2112 3789 
Q 1928 3650 1806 3366 
Q 1713 3163 1636 2903 
Q 1559 2644 1503 2338 
Q 1450 2056 1422 1815 
Q 1394 1575 1394 1409 
Q 1394 1063 1522 895 
Q 1650 728 1913 728 
z
M 4225 3072 
Q 4225 2450 4053 1862 
Q 3881 1275 3572 831 
Q 3256 375 2809 142 
Q 2363 -91 1813 -91 
Q 1047 -91 639 343 
Q 231 778 231 1594 
Q 231 2206 401 2795 
Q 572 3384 878 3822 
Q 1200 4281 1644 4515 
Q 2088 4750 2644 4750 
Q 3403 4750 3814 4314 
Q 4225 3878 4225 3072 
z
" transform="scale(0.015625)"/>
     </defs>
     <use xlink:href="#DejaVuSans-BoldOblique-30"/>
    </g>
   </g>
   <g id="text_3">
    <!-- 0⁺ -->
    <g transform="translate(182.58336 475.064087) scale(0.23 -0.23)">
     <defs>
      <path id="TimesNewRomanPS-BoldMT-30" d="M 2966 2119 
Q 2966 1484 2788 934 
Q 2681 597 2501 381 
Q 2322 166 2094 39 
Q 1866 -88 1597 -88 
Q 1291 -88 1044 68 
Q 797 225 606 516 
Q 469 728 366 1081 
Q 231 1559 231 2069 
Q 231 2759 425 3338 
Q 584 3816 909 4070 
Q 1234 4325 1597 4325 
Q 1966 4325 2286 4073 
Q 2606 3822 2756 3397 
Q 2966 2813 2966 2119 
z
M 2003 2125 
Q 2003 3238 1991 3422 
Q 1959 3856 1841 4009 
Q 1763 4109 1588 4109 
Q 1453 4109 1375 4034 
Q 1259 3925 1218 3648 
Q 1178 3372 1178 1719 
Q 1178 819 1241 513 
Q 1288 291 1375 216 
Q 1463 141 1606 141 
Q 1763 141 1841 241 
Q 1972 416 1991 781 
L 2003 2125 
z
" transform="scale(0.015625)"/>
      <path id="DejaVuSerif-Bold-207a" d="M 1916 4344 
L 1916 3441 
L 2950 3441 
L 2950 3044 
L 1916 3044 
L 1916 2141 
L 1463 2141 
L 1463 3044 
L 428 3044 
L 428 3441 
L 1463 3441 
L 1463 4344 
L 1916 4344 
z
" transform="scale(0.015625)"/>
     </defs>
     <use xlink:href="#TimesNewRomanPS-BoldMT-30"/>
     <use xlink:href="#DejaVuSerif-Bold-207a" transform="translate(50 0)"/>
    </g>
   </g>
   <g id="text_4">
    <!-- 339 -->
    <g transform="translate(24.72025 394.165713) scale(0.16 -0.16)">
     <defs>
      <path id="DejaVuSans-BoldOblique-33" d="M 3022 2516 
Q 3375 2434 3572 2187 
Q 3769 1941 3769 1581 
Q 3769 806 3155 357 
Q 2541 -91 1466 -91 
Q 1059 -91 692 -33 
Q 325 25 0 141 
L 178 1069 
Q 456 906 784 817 
Q 1113 728 1441 728 
Q 1969 728 2276 926 
Q 2584 1125 2584 1459 
Q 2584 1738 2350 1877 
Q 2116 2016 1644 2016 
L 1166 2016 
L 1319 2791 
L 1825 2791 
Q 2316 2791 2602 2969 
Q 2888 3147 2888 3450 
Q 2888 3688 2689 3813 
Q 2491 3938 2113 3938 
Q 1847 3938 1534 3869 
Q 1222 3800 884 3669 
L 1056 4550 
Q 1425 4650 1783 4700 
Q 2141 4750 2491 4750 
Q 3281 4750 3679 4487 
Q 4078 4225 4078 3706 
Q 4078 3241 3801 2930 
Q 3525 2619 3022 2516 
z
" transform="scale(0.015625)"/>
      <path id="DejaVuSans-BoldOblique-39" d="M 263 103 
L 428 966 
Q 700 825 953 758 
Q 1206 691 1459 691 
Q 2041 691 2400 1003 
Q 2759 1316 2834 1881 
Q 2594 1722 2337 1645 
Q 2081 1569 1791 1569 
Q 1219 1569 853 1909 
Q 488 2250 488 2778 
Q 488 3641 1052 4192 
Q 1616 4744 2503 4744 
Q 3300 4744 3736 4292 
Q 4172 3841 4172 3016 
Q 4172 2381 3978 1801 
Q 3784 1222 3431 800 
Q 3056 353 2548 128 
Q 2041 -97 1403 -97 
Q 1106 -97 825 -47 
Q 544 3 263 103 
z
M 2169 2344 
Q 2525 2344 2753 2637 
Q 2981 2931 2981 3391 
Q 2981 3675 2845 3828 
Q 2709 3981 2456 3981 
Q 2103 3981 1870 3690 
Q 1638 3400 1638 2963 
Q 1638 2663 1775 2503 
Q 1913 2344 2169 2344 
z
" transform="scale(0.015625)"/>
     </defs>
     <use xlink:href="#DejaVuSans-BoldOblique-33"/>
     <use xlink:href="#DejaVuSans-BoldOblique-33" transform="translate(69.580078 0)"/>
     <use xlink:href="#DejaVuSans-BoldOblique-39" transform="translate(139.160156 0)"/>
    </g>
   </g>
   <g id="text_5">
    <!-- 2⁺ -->
    <g transform="translate(182.58336 394.905947) scale(0.23 -0.23)">
     <defs>
      <path id="TimesNewRomanPS-BoldMT-32" d="M 2650 0 
L 156 0 
L 156 69 
Q 1303 1434 1548 1906 
Q 1794 2378 1794 2828 
Q 1794 3156 1591 3373 
Q 1388 3591 1094 3591 
Q 613 3591 347 3109 
L 231 3150 
Q 400 3750 744 4037 
Q 1088 4325 1538 4325 
Q 1859 4325 2125 4175 
Q 2391 4025 2541 3764 
Q 2691 3503 2691 3275 
Q 2691 2859 2459 2431 
Q 2144 1853 1081 819 
L 1997 819 
Q 2334 819 2436 847 
Q 2538 875 2603 942 
Q 2669 1009 2775 1225 
L 2888 1225 
L 2650 0 
z
" transform="scale(0.015625)"/>
     </defs>
     <use xlink:href="#TimesNewRomanPS-BoldMT-32"/>
     <use xlink:href="#DejaVuSerif-Bold-207a" transform="translate(50 0)"/>
    </g>
   </g>
   <g id="text_6">
    <!-- 853 -->
    <g transform="translate(24.72025 272.550299) scale(0.16 -0.16)">
     <defs>
      <path id="DejaVuSans-BoldOblique-38" d="M 2150 2088 
Q 1784 2088 1539 1839 
Q 1294 1591 1294 1228 
Q 1294 969 1453 817 
Q 1613 666 1888 666 
Q 2259 666 2503 911 
Q 2747 1156 2747 1522 
Q 2747 1781 2586 1934 
Q 2425 2088 2150 2088 
z
M 1381 2484 
Q 1044 2625 876 2850 
Q 709 3075 709 3391 
Q 709 4025 1229 4387 
Q 1750 4750 2669 4750 
Q 3406 4750 3812 4475 
Q 4219 4200 4219 3700 
Q 4219 3256 3936 2940 
Q 3653 2625 3128 2484 
Q 3509 2338 3690 2091 
Q 3872 1844 3872 1466 
Q 3872 747 3311 328 
Q 2750 -91 1772 -91 
Q 1000 -91 570 217 
Q 141 525 141 1075 
Q 141 1572 470 1945 
Q 800 2319 1381 2484 
z
M 2559 3994 
Q 2241 3994 2048 3808 
Q 1856 3622 1856 3316 
Q 1856 3103 1995 2972 
Q 2134 2841 2363 2841 
Q 2681 2841 2873 3027 
Q 3066 3213 3066 3519 
Q 3066 3734 2927 3864 
Q 2788 3994 2559 3994 
z
" transform="scale(0.015625)"/>
      <path id="DejaVuSans-BoldOblique-35" d="M 1131 4666 
L 4122 4666 
L 3950 3781 
L 1919 3781 
L 1778 3059 
Q 1916 3097 2064 3117 
Q 2213 3138 2363 3138 
Q 3078 3138 3481 2811 
Q 3884 2484 3884 1906 
Q 3884 988 3262 448 
Q 2641 -91 1575 -91 
Q 1184 -91 815 -14 
Q 447 63 84 219 
L 269 1166 
Q 616 941 942 834 
Q 1269 728 1606 728 
Q 2100 728 2397 986 
Q 2694 1244 2694 1663 
Q 2694 1963 2469 2139 
Q 2244 2316 1856 2316 
Q 1594 2316 1289 2248 
Q 984 2181 622 2041 
L 1131 4666 
z
" transform="scale(0.015625)"/>
     </defs>
     <use xlink:href="#DejaVuSans-BoldOblique-38"/>
     <use xlink:href="#DejaVuSans-BoldOblique-35" transform="translate(69.580078 0)"/>
     <use xlink:href="#DejaVuSans-BoldOblique-33" transform="translate(139.160156 0)"/>
    </g>
   </g>
   <g id="text_7">
    <!-- 4⁺ -->
    <g transform="translate(182.58336 273.290533) scale(0.23 -0.23)">
     <defs>
      <path id="TimesNewRomanPS-BoldMT-34" d="M 159 1597 
L 2172 4325 
L 2553 4325 
L 2553 1597 
L 2941 1597 
L 2941 950 
L 2553 950 
L 2553 0 
L 1694 0 
L 1694 950 
L 159 950 
L 159 1597 
z
M 463 1597 
L 1694 1597 
L 1694 3269 
L 463 1597 
z
" transform="scale(0.015625)"/>
     </defs>
     <use xlink:href="#TimesNewRomanPS-BoldMT-34"/>
     <use xlink:href="#DejaVuSerif-Bold-207a" transform="translate(50 0)"/>
    </g>
   </g>
   <g id="text_8">
    <!-- 1428 -->
    <g transform="translate(13.58775 136.638344) scale(0.16 -0.16)">
     <defs>
      <path id="DejaVuSans-BoldOblique-31" d="M 441 831 
L 1503 831 
L 2088 3847 
L 953 3622 
L 1113 4441 
L 2241 4666 
L 3384 4666 
L 2644 831 
L 3700 831 
L 3541 0 
L 275 0 
L 441 831 
z
" transform="scale(0.015625)"/>
      <path id="DejaVuSans-BoldOblique-34" d="M 2638 3641 
L 978 1722 
L 2259 1722 
L 2638 3641 
z
M 2606 4666 
L 3975 4666 
L 3397 1722 
L 4063 1722 
L 3897 850 
L 3231 850 
L 3066 0 
L 1925 0 
L 2094 850 
L -6 850 
L 197 1881 
L 2606 4666 
z
" transform="scale(0.015625)"/>
      <path id="DejaVuSans-BoldOblique-32" d="M 1581 884 
L 3609 884 
L 3438 0 
L 50 0 
L 225 891 
L 2209 2388 
Q 2534 2638 2704 2894 
Q 2875 3150 2875 3391 
Q 2875 3647 2700 3787 
Q 2525 3928 2209 3928 
Q 1913 3928 1547 3811 
Q 1181 3694 722 3450 
L 922 4441 
Q 1347 4597 1756 4673 
Q 2166 4750 2566 4750 
Q 3278 4750 3687 4442 
Q 4097 4134 4097 3603 
Q 4097 3147 3847 2772 
Q 3597 2397 2747 1759 
L 1581 884 
z
" transform="scale(0.015625)"/>
     </defs>
     <use xlink:href="#DejaVuSans-BoldOblique-31"/>
     <use xlink:href="#DejaVuSans-BoldOblique-34" transform="translate(69.580078 0)"/>
     <use xlink:href="#DejaVuSans-BoldOblique-32" transform="translate(139.160156 0)"/>
     <use xlink:href="#DejaVuSans-BoldOblique-38" transform="translate(208.740234 0)"/>
    </g>
   </g>
   <g id="text_9">
    <!-- 6⁺ -->
    <g transform="translate(182.58336 137.378578) scale(0.23 -0.23)">
     <defs>
      <path id="TimesNewRomanPS-BoldMT-36" d="M 3006 4325 
L 3006 4238 
Q 2441 4094 2098 3867 
Q 1756 3641 1557 3317 
Q 1359 2994 1250 2516 
Q 1388 2609 1478 2638 
Q 1681 2700 1888 2700 
Q 2363 2700 2680 2354 
Q 2997 2009 2997 1413 
Q 2997 994 2825 644 
Q 2653 294 2337 103 
Q 2022 -88 1663 -88 
Q 1272 -88 940 126 
Q 609 341 423 753 
Q 238 1166 238 1650 
Q 238 2363 580 2977 
Q 922 3591 1551 3955 
Q 2181 4319 3006 4325 
z
M 1209 2263 
Q 1184 1831 1184 1631 
Q 1184 1200 1267 797 
Q 1350 394 1494 231 
Q 1597 116 1738 116 
Q 1881 116 1993 283 
Q 2106 450 2106 963 
Q 2106 1825 1897 2153 
Q 1763 2366 1534 2366 
Q 1409 2366 1209 2263 
z
" transform="scale(0.015625)"/>
     </defs>
     <use xlink:href="#TimesNewRomanPS-BoldMT-36"/>
     <use xlink:href="#DejaVuSerif-Bold-207a" transform="translate(50 0)"/>
    </g>
   </g>
   <g id="text_10">
    <!-- 679 -->
    <g transform="translate(274.594392 313.857198) scale(0.16 -0.16)">
     <defs>
      <path id="DejaVuSans-BoldOblique-36" d="M 2316 2303 
Q 1959 2303 1731 2009 
Q 1503 1716 1503 1253 
Q 1503 975 1643 820 
Q 1784 666 2034 666 
Q 2388 666 2617 955 
Q 2847 1244 2847 1684 
Q 2847 1984 2709 2143 
Q 2572 2303 2316 2303 
z
M 4225 4544 
L 4056 3681 
Q 3788 3819 3534 3887 
Q 3281 3956 3028 3956 
Q 2447 3956 2087 3643 
Q 1728 3331 1650 2766 
Q 1894 2925 2151 3001 
Q 2409 3078 2700 3078 
Q 3275 3078 3640 2737 
Q 4006 2397 4006 1869 
Q 4006 1006 3442 454 
Q 2878 -97 1991 -97 
Q 1194 -97 756 354 
Q 319 806 319 1631 
Q 319 2269 512 2848 
Q 706 3428 1056 3847 
Q 1431 4294 1942 4519 
Q 2453 4744 3091 4744 
Q 3384 4744 3662 4694 
Q 3941 4644 4225 4544 
z
" transform="scale(0.015625)"/>
      <path id="DejaVuSans-BoldOblique-37" d="M 922 4666 
L 4441 4666 
L 4300 3981 
L 1703 0 
L 500 0 
L 2969 3781 
L 756 3781 
L 922 4666 
z
" transform="scale(0.015625)"/>
     </defs>
     <use xlink:href="#DejaVuSans-BoldOblique-36"/>
     <use xlink:href="#DejaVuSans-BoldOblique-37" transform="translate(69.580078 0)"/>
     <use xlink:href="#DejaVuSans-BoldOblique-39" transform="translate(139.160156 0)"/>
    </g>
   </g>
   <g id="text_11">
    <!-- 0⁺ -->
    <g transform="translate(432.457502 314.597433) scale(0.23 -0.23)">
     <use xlink:href="#TimesNewRomanPS-BoldMT-30"/>
     <use xlink:href="#DejaVuSerif-Bold-207a" transform="translate(50 0)"/>
    </g>
   </g>
   <g id="text_12">
    <!-- 665 -->
    <g transform="translate(524.468534 317.112495) scale(0.16 -0.16)">
     <use xlink:href="#DejaVuSans-BoldOblique-36"/>
     <use xlink:href="#DejaVuSans-BoldOblique-36" transform="translate(69.580078 0)"/>
     <use xlink:href="#DejaVuSans-BoldOblique-35" transform="translate(139.160156 0)"/>
    </g>
   </g>
   <g id="text_13">
    <!-- 2⁺ -->
    <g transform="translate(682.331644 317.85273) scale(0.23 -0.23)">
     <use xlink:href="#TimesNewRomanPS-BoldMT-32"/>
     <use xlink:href="#DejaVuSerif-Bold-207a" transform="translate(50 0)"/>
    </g>
   </g>
   <g id="text_14">
    <!-- 1247 -->
    <g transform="translate(513.336034 179.371445) scale(0.16 -0.16)">
     <use xlink:href="#DejaVuSans-BoldOblique-31"/>
     <use xlink:href="#DejaVuSans-BoldOblique-32" transform="translate(69.580078 0)"/>
     <use xlink:href="#DejaVuSans-BoldOblique-34" transform="translate(139.160156 0)"/>
     <use xlink:href="#DejaVuSans-BoldOblique-37" transform="translate(208.740234 0)"/>
    </g>
   </g>
   <g id="text_15">
    <!-- 3⁺ -->
    <g transform="translate(682.331644 180.111679) scale(0.23 -0.23)">
     <defs>
      <path id="TimesNewRomanPS-BoldMT-33" d="M 947 2125 
L 947 2234 
Q 1303 2338 1440 2427 
Q 1578 2516 1678 2698 
Q 1778 2881 1778 3069 
Q 1778 3328 1589 3514 
Q 1400 3700 1119 3700 
Q 681 3700 375 3238 
L 259 3278 
Q 484 3800 836 4062 
Q 1188 4325 1619 4325 
Q 2059 4325 2345 4056 
Q 2631 3788 2631 3428 
Q 2631 3194 2498 2976 
Q 2366 2759 2081 2594 
Q 2447 2416 2639 2155 
Q 2831 1894 2831 1500 
Q 2831 838 2351 373 
Q 1872 -91 1066 -91 
Q 528 -91 281 88 
Q 103 213 103 409 
Q 103 553 206 654 
Q 309 756 444 756 
Q 547 756 638 713 
Q 688 688 992 439 
Q 1297 191 1563 191 
Q 1794 191 1959 373 
Q 2125 556 2125 838 
Q 2125 1266 1825 1627 
Q 1525 1988 947 2125 
z
" transform="scale(0.015625)"/>
     </defs>
     <use xlink:href="#TimesNewRomanPS-BoldMT-33"/>
     <use xlink:href="#DejaVuSerif-Bold-207a" transform="translate(50 0)"/>
    </g>
   </g>
   <g id="text_16">
    <path d="M 109.185555 433.636033 
L 112.070555 424.893533 
L 109.873055 424.893533 
Q 108.585555 424.893533 107.935555 425.228533 
Q 107.483055 425.463533 107.185555 426.111033 
L 106.890555 426.111033 
L 107.655555 422.821033 
L 113.968055 422.821033 
L 110.413055 433.636033 
L 109.185555 433.636033 
z
M 117.185555 433.636033 
L 120.070555 424.893533 
L 117.873055 424.893533 
Q 116.585555 424.893533 115.935555 425.228533 
Q 115.483055 425.463533 115.185555 426.111033 
L 114.890555 426.111033 
L 115.655555 422.821033 
L 121.968055 422.821033 
L 118.413055 433.636033 
L 117.185555 433.636033 
z
M 124.350555 431.008533 
Q 124.898055 431.008533 125.275555 431.393533 
Q 125.655555 431.776033 125.655555 432.313533 
Q 125.655555 432.853533 125.273055 433.233533 
Q 124.890555 433.611033 124.350555 433.611033 
Q 123.810555 433.611033 123.430555 433.233533 
Q 123.053055 432.853533 123.053055 432.313533 
Q 123.053055 431.776033 123.430555 431.393533 
Q 123.810555 431.008533 124.350555 431.008533 
z
M 131.803055 427.431033 
Q 132.920555 428.251033 133.353055 428.958533 
Q 133.788055 429.666033 133.788055 430.581033 
Q 133.788055 431.861033 132.823055 432.748533 
Q 131.858055 433.636033 130.203055 433.636033 
Q 128.633055 433.636033 127.773055 432.863533 
Q 126.913055 432.088533 126.913055 430.971033 
Q 126.913055 430.118533 127.408055 429.478533 
Q 127.905555 428.838533 129.060555 428.306033 
Q 127.803055 427.346033 127.448055 426.736033 
Q 127.093055 426.126033 127.093055 425.321033 
Q 127.093055 424.258533 127.995555 423.451033 
Q 128.898055 422.643533 130.468055 422.643533 
Q 131.983055 422.643533 132.798055 423.358533 
Q 133.615555 424.071033 133.615555 425.071033 
Q 133.615555 425.821033 133.173055 426.396033 
Q 132.733055 426.971033 131.803055 427.431033 
z
M 131.210555 427.033533 
Q 131.498055 426.643533 131.638055 426.158533 
Q 131.780555 425.673533 131.780555 425.096033 
Q 131.780555 424.081033 131.343055 423.541033 
Q 131.015555 423.126033 130.435555 423.126033 
Q 129.913055 423.126033 129.545555 423.506033 
Q 129.178055 423.883533 129.178055 424.446033 
Q 129.178055 425.018533 129.588055 425.631033 
Q 129.998055 426.243533 131.210555 427.033533 
z
M 129.648055 428.681033 
Q 129.405555 428.901033 129.303055 429.081033 
Q 129.148055 429.353533 129.023055 429.878533 
Q 128.898055 430.401033 128.898055 430.971033 
Q 128.898055 431.706033 129.085555 432.201033 
Q 129.273055 432.696033 129.620555 432.916033 
Q 129.968055 433.133533 130.335555 433.133533 
Q 130.905555 433.133533 131.295555 432.716033 
Q 131.685555 432.298533 131.685555 431.571033 
Q 131.685555 430.056033 129.648055 428.681033 
z
" style="stroke: #ffffff; stroke-width: 3.8"/>
    <path d="M 109.185555 433.636033 
L 112.070555 424.893533 
L 109.873055 424.893533 
Q 108.585555 424.893533 107.935555 425.228533 
Q 107.483055 425.463533 107.185555 426.111033 
L 106.890555 426.111033 
L 107.655555 422.821033 
L 113.968055 422.821033 
L 110.413055 433.636033 
L 109.185555 433.636033 
z
M 117.185555 433.636033 
L 120.070555 424.893533 
L 117.873055 424.893533 
Q 116.585555 424.893533 115.935555 425.228533 
Q 115.483055 425.463533 115.185555 426.111033 
L 114.890555 426.111033 
L 115.655555 422.821033 
L 121.968055 422.821033 
L 118.413055 433.636033 
L 117.185555 433.636033 
z
M 124.350555 431.008533 
Q 124.898055 431.008533 125.275555 431.393533 
Q 125.655555 431.776033 125.655555 432.313533 
Q 125.655555 432.853533 125.273055 433.233533 
Q 124.890555 433.611033 124.350555 433.611033 
Q 123.810555 433.611033 123.430555 433.233533 
Q 123.053055 432.853533 123.053055 432.313533 
Q 123.053055 431.776033 123.430555 431.393533 
Q 123.810555 431.008533 124.350555 431.008533 
z
M 131.803055 427.431033 
Q 132.920555 428.251033 133.353055 428.958533 
Q 133.788055 429.666033 133.788055 430.581033 
Q 133.788055 431.861033 132.823055 432.748533 
Q 131.858055 433.636033 130.203055 433.636033 
Q 128.633055 433.636033 127.773055 432.863533 
Q 126.913055 432.088533 126.913055 430.971033 
Q 126.913055 430.118533 127.408055 429.478533 
Q 127.905555 428.838533 129.060555 428.306033 
Q 127.803055 427.346033 127.448055 426.736033 
Q 127.093055 426.126033 127.093055 425.321033 
Q 127.093055 424.258533 127.995555 423.451033 
Q 128.898055 422.643533 130.468055 422.643533 
Q 131.983055 422.643533 132.798055 423.358533 
Q 133.615555 424.071033 133.615555 425.071033 
Q 133.615555 425.821033 133.173055 426.396033 
Q 132.733055 426.971033 131.803055 427.431033 
z
M 131.210555 427.033533 
Q 131.498055 426.643533 131.638055 426.158533 
Q 131.780555 425.673533 131.780555 425.096033 
Q 131.780555 424.081033 131.343055 423.541033 
Q 131.015555 423.126033 130.435555 423.126033 
Q 129.913055 423.126033 129.545555 423.506033 
Q 129.178055 423.883533 129.178055 424.446033 
Q 129.178055 425.018533 129.588055 425.631033 
Q 129.998055 426.243533 131.210555 427.033533 
z
M 129.648055 428.681033 
Q 129.405555 428.901033 129.303055 429.081033 
Q 129.148055 429.353533 129.023055 429.878533 
Q 128.898055 430.401033 128.898055 430.971033 
Q 128.898055 431.706033 129.085555 432.201033 
Q 129.273055 432.696033 129.620555 432.916033 
Q 129.968055 433.133533 130.335555 433.133533 
Q 130.905555 433.133533 131.295555 432.716033 
Q 131.685555 432.298533 131.685555 431.571033 
Q 131.685555 430.056033 129.648055 428.681033 
z
"/>
   </g>
   <g id="text_17">
    <path d="M 107.560555 321.716756 
L 107.560555 330.381756 
Q 107.560555 331.356756 107.645555 331.626756 
Q 107.733055 331.896756 108.005555 332.069256 
Q 108.280555 332.239256 108.883055 332.239256 
L 109.123055 332.239256 
L 109.123055 332.529256 
L 103.545555 332.529256 
L 103.545555 332.239256 
L 103.828055 332.239256 
Q 104.508055 332.239256 104.795555 332.084256 
Q 105.085555 331.926756 105.185555 331.654256 
Q 105.288055 331.381756 105.288055 330.381756 
L 105.288055 324.889256 
Q 105.288055 324.154256 105.218055 323.971756 
Q 105.148055 323.786756 104.955555 323.659256 
Q 104.765555 323.529256 104.515555 323.529256 
Q 104.115555 323.529256 103.545555 323.779256 
L 103.405555 323.496756 
L 107.303055 321.716756 
L 107.560555 321.716756 
z
M 112.718055 327.216756 
L 112.718055 326.944256 
Q 113.608055 326.684256 113.950555 326.461756 
Q 114.295555 326.239256 114.545555 325.784256 
Q 114.795555 325.326756 114.795555 324.856756 
Q 114.795555 324.209256 114.323055 323.744256 
Q 113.850555 323.279256 113.148055 323.279256 
Q 112.053055 323.279256 111.288055 324.434256 
L 110.998055 324.334256 
Q 111.560555 323.029256 112.440555 322.374256 
Q 113.320555 321.716756 114.398055 321.716756 
Q 115.498055 321.716756 116.213055 322.389256 
Q 116.928055 323.059256 116.928055 323.959256 
Q 116.928055 324.544256 116.595555 325.089256 
Q 116.265555 325.631756 115.553055 326.044256 
Q 116.468055 326.489256 116.948055 327.141756 
Q 117.428055 327.794256 117.428055 328.779256 
Q 117.428055 330.434256 116.228055 331.596756 
Q 115.030555 332.756756 113.015555 332.756756 
Q 111.670555 332.756756 111.053055 332.309256 
Q 110.608055 331.996756 110.608055 331.506756 
Q 110.608055 331.146756 110.865555 330.894256 
Q 111.123055 330.639256 111.460555 330.639256 
Q 111.718055 330.639256 111.945555 330.746756 
Q 112.070555 330.809256 112.830555 331.431756 
Q 113.593055 332.051756 114.258055 332.051756 
Q 114.835555 332.051756 115.248055 331.596756 
Q 115.663055 331.139256 115.663055 330.434256 
Q 115.663055 329.364256 114.913055 328.461756 
Q 114.163055 327.559256 112.718055 327.216756 
z
M 124.975555 332.529256 
L 118.740555 332.529256 
L 118.740555 332.356756 
Q 121.608055 328.944256 122.220555 327.764256 
Q 122.835555 326.584256 122.835555 325.459256 
Q 122.835555 324.639256 122.328055 324.096756 
Q 121.820555 323.551756 121.085555 323.551756 
Q 119.883055 323.551756 119.218055 324.756756 
L 118.928055 324.654256 
Q 119.350555 323.154256 120.210555 322.436756 
Q 121.070555 321.716756 122.195555 321.716756 
Q 122.998055 321.716756 123.663055 322.091756 
Q 124.328055 322.466756 124.703055 323.119256 
Q 125.078055 323.771756 125.078055 324.341756 
Q 125.078055 325.381756 124.498055 326.451756 
Q 123.710555 327.896756 121.053055 330.481756 
L 123.343055 330.481756 
Q 124.185555 330.481756 124.440555 330.411756 
Q 124.695555 330.341756 124.858055 330.174256 
Q 125.023055 330.006756 125.288055 329.466756 
L 125.570555 329.466756 
L 124.975555 332.529256 
z
M 128.350555 330.121756 
Q 128.898055 330.121756 129.275555 330.506756 
Q 129.655555 330.889256 129.655555 331.426756 
Q 129.655555 331.966756 129.273055 332.346756 
Q 128.890555 332.724256 128.350555 332.724256 
Q 127.810555 332.724256 127.430555 332.346756 
Q 127.053055 331.966756 127.053055 331.426756 
Q 127.053055 330.889256 127.430555 330.506756 
Q 127.810555 330.121756 128.350555 330.121756 
z
M 135.560555 321.716756 
L 135.560555 330.381756 
Q 135.560555 331.356756 135.645555 331.626756 
Q 135.733055 331.896756 136.005555 332.069256 
Q 136.280555 332.239256 136.883055 332.239256 
L 137.123055 332.239256 
L 137.123055 332.529256 
L 131.545555 332.529256 
L 131.545555 332.239256 
L 131.828055 332.239256 
Q 132.508055 332.239256 132.795555 332.084256 
Q 133.085555 331.926756 133.185555 331.654256 
Q 133.288055 331.381756 133.288055 330.381756 
L 133.288055 324.889256 
Q 133.288055 324.154256 133.218055 323.971756 
Q 133.148055 323.786756 132.955555 323.659256 
Q 132.765555 323.529256 132.515555 323.529256 
Q 132.115555 323.529256 131.545555 323.779256 
L 131.405555 323.496756 
L 135.303055 321.716756 
L 135.560555 321.716756 
z
" style="stroke: #ffffff; stroke-width: 3.8"/>
    <path d="M 107.560555 321.716756 
L 107.560555 330.381756 
Q 107.560555 331.356756 107.645555 331.626756 
Q 107.733055 331.896756 108.005555 332.069256 
Q 108.280555 332.239256 108.883055 332.239256 
L 109.123055 332.239256 
L 109.123055 332.529256 
L 103.545555 332.529256 
L 103.545555 332.239256 
L 103.828055 332.239256 
Q 104.508055 332.239256 104.795555 332.084256 
Q 105.085555 331.926756 105.185555 331.654256 
Q 105.288055 331.381756 105.288055 330.381756 
L 105.288055 324.889256 
Q 105.288055 324.154256 105.218055 323.971756 
Q 105.148055 323.786756 104.955555 323.659256 
Q 104.765555 323.529256 104.515555 323.529256 
Q 104.115555 323.529256 103.545555 323.779256 
L 103.405555 323.496756 
L 107.303055 321.716756 
L 107.560555 321.716756 
z
M 112.718055 327.216756 
L 112.718055 326.944256 
Q 113.608055 326.684256 113.950555 326.461756 
Q 114.295555 326.239256 114.545555 325.784256 
Q 114.795555 325.326756 114.795555 324.856756 
Q 114.795555 324.209256 114.323055 323.744256 
Q 113.850555 323.279256 113.148055 323.279256 
Q 112.053055 323.279256 111.288055 324.434256 
L 110.998055 324.334256 
Q 111.560555 323.029256 112.440555 322.374256 
Q 113.320555 321.716756 114.398055 321.716756 
Q 115.498055 321.716756 116.213055 322.389256 
Q 116.928055 323.059256 116.928055 323.959256 
Q 116.928055 324.544256 116.595555 325.089256 
Q 116.265555 325.631756 115.553055 326.044256 
Q 116.468055 326.489256 116.948055 327.141756 
Q 117.428055 327.794256 117.428055 328.779256 
Q 117.428055 330.434256 116.228055 331.596756 
Q 115.030555 332.756756 113.015555 332.756756 
Q 111.670555 332.756756 111.053055 332.309256 
Q 110.608055 331.996756 110.608055 331.506756 
Q 110.608055 331.146756 110.865555 330.894256 
Q 111.123055 330.639256 111.460555 330.639256 
Q 111.718055 330.639256 111.945555 330.746756 
Q 112.070555 330.809256 112.830555 331.431756 
Q 113.593055 332.051756 114.258055 332.051756 
Q 114.835555 332.051756 115.248055 331.596756 
Q 115.663055 331.139256 115.663055 330.434256 
Q 115.663055 329.364256 114.913055 328.461756 
Q 114.163055 327.559256 112.718055 327.216756 
z
M 124.975555 332.529256 
L 118.740555 332.529256 
L 118.740555 332.356756 
Q 121.608055 328.944256 122.220555 327.764256 
Q 122.835555 326.584256 122.835555 325.459256 
Q 122.835555 324.639256 122.328055 324.096756 
Q 121.820555 323.551756 121.085555 323.551756 
Q 119.883055 323.551756 119.218055 324.756756 
L 118.928055 324.654256 
Q 119.350555 323.154256 120.210555 322.436756 
Q 121.070555 321.716756 122.195555 321.716756 
Q 122.998055 321.716756 123.663055 322.091756 
Q 124.328055 322.466756 124.703055 323.119256 
Q 125.078055 323.771756 125.078055 324.341756 
Q 125.078055 325.381756 124.498055 326.451756 
Q 123.710555 327.896756 121.053055 330.481756 
L 123.343055 330.481756 
Q 124.185555 330.481756 124.440555 330.411756 
Q 124.695555 330.341756 124.858055 330.174256 
Q 125.023055 330.006756 125.288055 329.466756 
L 125.570555 329.466756 
L 124.975555 332.529256 
z
M 128.350555 330.121756 
Q 128.898055 330.121756 129.275555 330.506756 
Q 129.655555 330.889256 129.655555 331.426756 
Q 129.655555 331.966756 129.273055 332.346756 
Q 128.890555 332.724256 128.350555 332.724256 
Q 127.810555 332.724256 127.430555 332.346756 
Q 127.053055 331.966756 127.053055 331.426756 
Q 127.053055 330.889256 127.430555 330.506756 
Q 127.810555 330.121756 128.350555 330.121756 
z
M 135.560555 321.716756 
L 135.560555 330.381756 
Q 135.560555 331.356756 135.645555 331.626756 
Q 135.733055 331.896756 136.005555 332.069256 
Q 136.280555 332.239256 136.883055 332.239256 
L 137.123055 332.239256 
L 137.123055 332.529256 
L 131.545555 332.529256 
L 131.545555 332.239256 
L 131.828055 332.239256 
Q 132.508055 332.239256 132.795555 332.084256 
Q 133.085555 331.926756 133.185555 331.654256 
Q 133.288055 331.381756 133.288055 330.381756 
L 133.288055 324.889256 
Q 133.288055 324.154256 133.218055 323.971756 
Q 133.148055 323.786756 132.955555 323.659256 
Q 132.765555 323.529256 132.515555 323.529256 
Q 132.115555 323.529256 131.545555 323.779256 
L 131.405555 323.496756 
L 135.303055 321.716756 
L 135.560555 321.716756 
z
"/>
   </g>
   <g id="text_18">
    <path d="M 108.975555 203.765571 
L 102.740555 203.765571 
L 102.740555 203.593071 
Q 105.608055 200.180571 106.220555 199.000571 
Q 106.835555 197.820571 106.835555 196.695571 
Q 106.835555 195.875571 106.328055 195.333071 
Q 105.820555 194.788071 105.085555 194.788071 
Q 103.883055 194.788071 103.218055 195.993071 
L 102.928055 195.890571 
Q 103.350555 194.390571 104.210555 193.673071 
Q 105.070555 192.953071 106.195555 192.953071 
Q 106.998055 192.953071 107.663055 193.328071 
Q 108.328055 193.703071 108.703055 194.355571 
Q 109.078055 195.008071 109.078055 195.578071 
Q 109.078055 196.618071 108.498055 197.688071 
Q 107.710555 199.133071 105.053055 201.718071 
L 107.343055 201.718071 
Q 108.185555 201.718071 108.440555 201.648071 
Q 108.695555 201.578071 108.858055 201.410571 
Q 109.023055 201.243071 109.288055 200.703071 
L 109.570555 200.703071 
L 108.975555 203.765571 
z
M 115.560555 192.953071 
L 115.560555 201.618071 
Q 115.560555 202.593071 115.645555 202.863071 
Q 115.733055 203.133071 116.005555 203.305571 
Q 116.280555 203.475571 116.883055 203.475571 
L 117.123055 203.475571 
L 117.123055 203.765571 
L 111.545555 203.765571 
L 111.545555 203.475571 
L 111.828055 203.475571 
Q 112.508055 203.475571 112.795555 203.320571 
Q 113.085555 203.163071 113.185555 202.890571 
Q 113.288055 202.618071 113.288055 201.618071 
L 113.288055 196.125571 
Q 113.288055 195.390571 113.218055 195.208071 
Q 113.148055 195.023071 112.955555 194.895571 
Q 112.765555 194.765571 112.515555 194.765571 
Q 112.115555 194.765571 111.545555 195.015571 
L 111.405555 194.733071 
L 115.303055 192.953071 
L 115.560555 192.953071 
z
M 123.803055 197.780571 
Q 124.920555 198.600571 125.353055 199.308071 
Q 125.788055 200.015571 125.788055 200.930571 
Q 125.788055 202.210571 124.823055 203.098071 
Q 123.858055 203.985571 122.203055 203.985571 
Q 120.633055 203.985571 119.773055 203.213071 
Q 118.913055 202.438071 118.913055 201.320571 
Q 118.913055 200.468071 119.408055 199.828071 
Q 119.905555 199.188071 121.060555 198.655571 
Q 119.803055 197.695571 119.448055 197.085571 
Q 119.093055 196.475571 119.093055 195.670571 
Q 119.093055 194.608071 119.995555 193.800571 
Q 120.898055 192.993071 122.468055 192.993071 
Q 123.983055 192.993071 124.798055 193.708071 
Q 125.615555 194.420571 125.615555 195.420571 
Q 125.615555 196.170571 125.173055 196.745571 
Q 124.733055 197.320571 123.803055 197.780571 
z
M 123.210555 197.383071 
Q 123.498055 196.993071 123.638055 196.508071 
Q 123.780555 196.023071 123.780555 195.445571 
Q 123.780555 194.430571 123.343055 193.890571 
Q 123.015555 193.475571 122.435555 193.475571 
Q 121.913055 193.475571 121.545555 193.855571 
Q 121.178055 194.233071 121.178055 194.795571 
Q 121.178055 195.368071 121.588055 195.980571 
Q 121.998055 196.593071 123.210555 197.383071 
z
M 121.648055 199.030571 
Q 121.405555 199.250571 121.303055 199.430571 
Q 121.148055 199.703071 121.023055 200.228071 
Q 120.898055 200.750571 120.898055 201.320571 
Q 120.898055 202.055571 121.085555 202.550571 
Q 121.273055 203.045571 121.620555 203.265571 
Q 121.968055 203.483071 122.335555 203.483071 
Q 122.905555 203.483071 123.295555 203.065571 
Q 123.685555 202.648071 123.685555 201.920571 
Q 123.685555 200.405571 121.648055 199.030571 
z
M 128.350555 201.358071 
Q 128.898055 201.358071 129.275555 201.743071 
Q 129.655555 202.125571 129.655555 202.663071 
Q 129.655555 203.203071 129.273055 203.583071 
Q 128.890555 203.960571 128.350555 203.960571 
Q 127.810555 203.960571 127.430555 203.583071 
Q 127.053055 203.203071 127.053055 202.663071 
Q 127.053055 202.125571 127.430555 201.743071 
Q 127.810555 201.358071 128.350555 201.358071 
z
M 130.843055 203.985571 
L 130.843055 203.765571 
Q 132.140555 203.468071 133.043055 202.890571 
Q 133.945555 202.313071 134.470555 201.460571 
Q 134.998055 200.608071 135.210555 199.500571 
Q 134.725555 199.750571 134.385555 199.848071 
Q 134.045555 199.945571 133.670555 199.945571 
Q 132.468055 199.945571 131.665555 199.078071 
Q 130.865555 198.210571 130.865555 196.703071 
Q 130.865555 195.655571 131.298055 194.785571 
Q 131.733055 193.913071 132.538055 193.433071 
Q 133.343055 192.953071 134.210555 192.953071 
Q 135.140555 192.953071 135.968055 193.485571 
Q 136.795555 194.015571 137.288055 195.023071 
Q 137.780555 196.030571 137.780555 197.320571 
Q 137.780555 198.993071 136.978055 200.525571 
Q 136.178055 202.055571 134.593055 202.980571 
Q 133.008055 203.905571 130.843055 203.985571 
z
M 135.328055 198.843071 
Q 135.405555 197.968071 135.405555 197.305571 
Q 135.405555 195.883071 135.078055 194.655571 
Q 134.890555 193.975571 134.523055 193.655571 
Q 134.328055 193.483071 134.015555 193.483071 
Q 133.623055 193.483071 133.405555 193.820571 
Q 133.100555 194.280571 133.100555 195.578071 
Q 133.100555 197.743071 133.615555 198.563071 
Q 133.953055 199.093071 134.523055 199.093071 
Q 134.828055 199.093071 135.328055 198.843071 
z
" style="stroke: #ffffff; stroke-width: 3.8"/>
    <path d="M 108.975555 203.765571 
L 102.740555 203.765571 
L 102.740555 203.593071 
Q 105.608055 200.180571 106.220555 199.000571 
Q 106.835555 197.820571 106.835555 196.695571 
Q 106.835555 195.875571 106.328055 195.333071 
Q 105.820555 194.788071 105.085555 194.788071 
Q 103.883055 194.788071 103.218055 195.993071 
L 102.928055 195.890571 
Q 103.350555 194.390571 104.210555 193.673071 
Q 105.070555 192.953071 106.195555 192.953071 
Q 106.998055 192.953071 107.663055 193.328071 
Q 108.328055 193.703071 108.703055 194.355571 
Q 109.078055 195.008071 109.078055 195.578071 
Q 109.078055 196.618071 108.498055 197.688071 
Q 107.710555 199.133071 105.053055 201.718071 
L 107.343055 201.718071 
Q 108.185555 201.718071 108.440555 201.648071 
Q 108.695555 201.578071 108.858055 201.410571 
Q 109.023055 201.243071 109.288055 200.703071 
L 109.570555 200.703071 
L 108.975555 203.765571 
z
M 115.560555 192.953071 
L 115.560555 201.618071 
Q 115.560555 202.593071 115.645555 202.863071 
Q 115.733055 203.133071 116.005555 203.305571 
Q 116.280555 203.475571 116.883055 203.475571 
L 117.123055 203.475571 
L 117.123055 203.765571 
L 111.545555 203.765571 
L 111.545555 203.475571 
L 111.828055 203.475571 
Q 112.508055 203.475571 112.795555 203.320571 
Q 113.085555 203.163071 113.185555 202.890571 
Q 113.288055 202.618071 113.288055 201.618071 
L 113.288055 196.125571 
Q 113.288055 195.390571 113.218055 195.208071 
Q 113.148055 195.023071 112.955555 194.895571 
Q 112.765555 194.765571 112.515555 194.765571 
Q 112.115555 194.765571 111.545555 195.015571 
L 111.405555 194.733071 
L 115.303055 192.953071 
L 115.560555 192.953071 
z
M 123.803055 197.780571 
Q 124.920555 198.600571 125.353055 199.308071 
Q 125.788055 200.015571 125.788055 200.930571 
Q 125.788055 202.210571 124.823055 203.098071 
Q 123.858055 203.985571 122.203055 203.985571 
Q 120.633055 203.985571 119.773055 203.213071 
Q 118.913055 202.438071 118.913055 201.320571 
Q 118.913055 200.468071 119.408055 199.828071 
Q 119.905555 199.188071 121.060555 198.655571 
Q 119.803055 197.695571 119.448055 197.085571 
Q 119.093055 196.475571 119.093055 195.670571 
Q 119.093055 194.608071 119.995555 193.800571 
Q 120.898055 192.993071 122.468055 192.993071 
Q 123.983055 192.993071 124.798055 193.708071 
Q 125.615555 194.420571 125.615555 195.420571 
Q 125.615555 196.170571 125.173055 196.745571 
Q 124.733055 197.320571 123.803055 197.780571 
z
M 123.210555 197.383071 
Q 123.498055 196.993071 123.638055 196.508071 
Q 123.780555 196.023071 123.780555 195.445571 
Q 123.780555 194.430571 123.343055 193.890571 
Q 123.015555 193.475571 122.435555 193.475571 
Q 121.913055 193.475571 121.545555 193.855571 
Q 121.178055 194.233071 121.178055 194.795571 
Q 121.178055 195.368071 121.588055 195.980571 
Q 121.998055 196.593071 123.210555 197.383071 
z
M 121.648055 199.030571 
Q 121.405555 199.250571 121.303055 199.430571 
Q 121.148055 199.703071 121.023055 200.228071 
Q 120.898055 200.750571 120.898055 201.320571 
Q 120.898055 202.055571 121.085555 202.550571 
Q 121.273055 203.045571 121.620555 203.265571 
Q 121.968055 203.483071 122.335555 203.483071 
Q 122.905555 203.483071 123.295555 203.065571 
Q 123.685555 202.648071 123.685555 201.920571 
Q 123.685555 200.405571 121.648055 199.030571 
z
M 128.350555 201.358071 
Q 128.898055 201.358071 129.275555 201.743071 
Q 129.655555 202.125571 129.655555 202.663071 
Q 129.655555 203.203071 129.273055 203.583071 
Q 128.890555 203.960571 128.350555 203.960571 
Q 127.810555 203.960571 127.430555 203.583071 
Q 127.053055 203.203071 127.053055 202.663071 
Q 127.053055 202.125571 127.430555 201.743071 
Q 127.810555 201.358071 128.350555 201.358071 
z
M 130.843055 203.985571 
L 130.843055 203.765571 
Q 132.140555 203.468071 133.043055 202.890571 
Q 133.945555 202.313071 134.470555 201.460571 
Q 134.998055 200.608071 135.210555 199.500571 
Q 134.725555 199.750571 134.385555 199.848071 
Q 134.045555 199.945571 133.670555 199.945571 
Q 132.468055 199.945571 131.665555 199.078071 
Q 130.865555 198.210571 130.865555 196.703071 
Q 130.865555 195.655571 131.298055 194.785571 
Q 131.733055 193.913071 132.538055 193.433071 
Q 133.343055 192.953071 134.210555 192.953071 
Q 135.140555 192.953071 135.968055 193.485571 
Q 136.795555 194.015571 137.288055 195.023071 
Q 137.780555 196.030571 137.780555 197.320571 
Q 137.780555 198.993071 136.978055 200.525571 
Q 136.178055 202.055571 134.593055 202.980571 
Q 133.008055 203.905571 130.843055 203.985571 
z
M 135.328055 198.843071 
Q 135.405555 197.968071 135.405555 197.305571 
Q 135.405555 195.883071 135.078055 194.655571 
Q 134.890555 193.975571 134.523055 193.655571 
Q 134.328055 193.483071 134.015555 193.483071 
Q 133.623055 193.483071 133.405555 193.820571 
Q 133.100555 194.280571 133.100555 195.578071 
Q 133.100555 197.743071 133.615555 198.563071 
Q 133.953055 199.093071 134.523055 199.093071 
Q 134.828055 199.093071 135.328055 198.843071 
z
"/>
   </g>
   <g id="text_19">
    <path d="M 574.988672 247.63322 
L 577.873672 238.89072 
L 575.676172 238.89072 
Q 574.388672 238.89072 573.738672 239.22572 
Q 573.286172 239.46072 572.988672 240.10822 
L 572.693672 240.10822 
L 573.458672 236.81822 
L 579.771172 236.81822 
L 576.216172 247.63322 
L 574.988672 247.63322 
z
M 587.668672 236.60072 
L 587.668672 236.81822 
Q 586.256172 237.17822 585.398672 237.74572 
Q 584.543672 238.31072 584.046172 239.12072 
Q 583.551172 239.92822 583.278672 241.12322 
Q 583.623672 240.89072 583.848672 240.81822 
Q 584.356172 240.66322 584.873672 240.66322 
Q 586.061172 240.66322 586.853672 241.52822 
Q 587.646172 242.39072 587.646172 243.88072 
Q 587.646172 244.92822 587.216172 245.80322 
Q 586.786172 246.67822 585.996172 247.15572 
Q 585.208672 247.63322 584.311172 247.63322 
Q 583.333672 247.63322 582.503672 247.09822 
Q 581.676172 246.56072 581.211172 245.53072 
Q 580.748672 244.49822 580.748672 243.28822 
Q 580.748672 241.50572 581.603672 239.97072 
Q 582.458672 238.43572 584.031172 237.52572 
Q 585.606172 236.61572 587.668672 236.60072 
z
M 583.176172 241.75572 
Q 583.113672 242.83572 583.113672 243.33572 
Q 583.113672 244.41322 583.321172 245.42072 
Q 583.528672 246.42822 583.888672 246.83572 
Q 584.146172 247.12322 584.498672 247.12322 
Q 584.856172 247.12322 585.136172 246.70572 
Q 585.418672 246.28822 585.418672 245.00572 
Q 585.418672 242.85072 584.896172 242.03072 
Q 584.561172 241.49822 583.988672 241.49822 
Q 583.676172 241.49822 583.176172 241.75572 
z
M 590.153672 245.00572 
Q 590.701172 245.00572 591.078672 245.39072 
Q 591.458672 245.77322 591.458672 246.31072 
Q 591.458672 246.85072 591.076172 247.23072 
Q 590.693672 247.60822 590.153672 247.60822 
Q 589.613672 247.60822 589.233672 247.23072 
Q 588.856172 246.85072 588.856172 246.31072 
Q 588.856172 245.77322 589.233672 245.39072 
Q 589.613672 245.00572 590.153672 245.00572 
z
M 599.668672 236.60072 
L 599.668672 236.81822 
Q 598.256172 237.17822 597.398672 237.74572 
Q 596.543672 238.31072 596.046172 239.12072 
Q 595.551172 239.92822 595.278672 241.12322 
Q 595.623672 240.89072 595.848672 240.81822 
Q 596.356172 240.66322 596.873672 240.66322 
Q 598.061172 240.66322 598.853672 241.52822 
Q 599.646172 242.39072 599.646172 243.88072 
Q 599.646172 244.92822 599.216172 245.80322 
Q 598.786172 246.67822 597.996172 247.15572 
Q 597.208672 247.63322 596.311172 247.63322 
Q 595.333672 247.63322 594.503672 247.09822 
Q 593.676172 246.56072 593.211172 245.53072 
Q 592.748672 244.49822 592.748672 243.28822 
Q 592.748672 241.50572 593.603672 239.97072 
Q 594.458672 238.43572 596.031172 237.52572 
Q 597.606172 236.61572 599.668672 236.60072 
z
M 595.176172 241.75572 
Q 595.113672 242.83572 595.113672 243.33572 
Q 595.113672 244.41322 595.321172 245.42072 
Q 595.528672 246.42822 595.888672 246.83572 
Q 596.146172 247.12322 596.498672 247.12322 
Q 596.856172 247.12322 597.136172 246.70572 
Q 597.418672 246.28822 597.418672 245.00572 
Q 597.418672 242.85072 596.896172 242.03072 
Q 596.561172 241.49822 595.988672 241.49822 
Q 595.676172 241.49822 595.176172 241.75572 
z
" style="stroke: #ffffff; stroke-width: 3.8"/>
    <path d="M 574.988672 247.63322 
L 577.873672 238.89072 
L 575.676172 238.89072 
Q 574.388672 238.89072 573.738672 239.22572 
Q 573.286172 239.46072 572.988672 240.10822 
L 572.693672 240.10822 
L 573.458672 236.81822 
L 579.771172 236.81822 
L 576.216172 247.63322 
L 574.988672 247.63322 
z
M 587.668672 236.60072 
L 587.668672 236.81822 
Q 586.256172 237.17822 585.398672 237.74572 
Q 584.543672 238.31072 584.046172 239.12072 
Q 583.551172 239.92822 583.278672 241.12322 
Q 583.623672 240.89072 583.848672 240.81822 
Q 584.356172 240.66322 584.873672 240.66322 
Q 586.061172 240.66322 586.853672 241.52822 
Q 587.646172 242.39072 587.646172 243.88072 
Q 587.646172 244.92822 587.216172 245.80322 
Q 586.786172 246.67822 585.996172 247.15572 
Q 585.208672 247.63322 584.311172 247.63322 
Q 583.333672 247.63322 582.503672 247.09822 
Q 581.676172 246.56072 581.211172 245.53072 
Q 580.748672 244.49822 580.748672 243.28822 
Q 580.748672 241.50572 581.603672 239.97072 
Q 582.458672 238.43572 584.031172 237.52572 
Q 585.606172 236.61572 587.668672 236.60072 
z
M 583.176172 241.75572 
Q 583.113672 242.83572 583.113672 243.33572 
Q 583.113672 244.41322 583.321172 245.42072 
Q 583.528672 246.42822 583.888672 246.83572 
Q 584.146172 247.12322 584.498672 247.12322 
Q 584.856172 247.12322 585.136172 246.70572 
Q 585.418672 246.28822 585.418672 245.00572 
Q 585.418672 242.85072 584.896172 242.03072 
Q 584.561172 241.49822 583.988672 241.49822 
Q 583.676172 241.49822 583.176172 241.75572 
z
M 590.153672 245.00572 
Q 590.701172 245.00572 591.078672 245.39072 
Q 591.458672 245.77322 591.458672 246.31072 
Q 591.458672 246.85072 591.076172 247.23072 
Q 590.693672 247.60822 590.153672 247.60822 
Q 589.613672 247.60822 589.233672 247.23072 
Q 588.856172 246.85072 588.856172 246.31072 
Q 588.856172 245.77322 589.233672 245.39072 
Q 589.613672 245.00572 590.153672 245.00572 
z
M 599.668672 236.60072 
L 599.668672 236.81822 
Q 598.256172 237.17822 597.398672 237.74572 
Q 596.543672 238.31072 596.046172 239.12072 
Q 595.551172 239.92822 595.278672 241.12322 
Q 595.623672 240.89072 595.848672 240.81822 
Q 596.356172 240.66322 596.873672 240.66322 
Q 598.061172 240.66322 598.853672 241.52822 
Q 599.646172 242.39072 599.646172 243.88072 
Q 599.646172 244.92822 599.216172 245.80322 
Q 598.786172 246.67822 597.996172 247.15572 
Q 597.208672 247.63322 596.311172 247.63322 
Q 595.333672 247.63322 594.503672 247.09822 
Q 593.676172 246.56072 593.211172 245.53072 
Q 592.748672 244.49822 592.748672 243.28822 
Q 592.748672 241.50572 593.603672 239.97072 
Q 594.458672 238.43572 596.031172 237.52572 
Q 597.606172 236.61572 599.668672 236.60072 
z
M 595.176172 241.75572 
Q 595.113672 242.83572 595.113672 243.33572 
Q 595.113672 244.41322 595.321172 245.42072 
Q 595.528672 246.42822 595.888672 246.83572 
Q 596.146172 247.12322 596.498672 247.12322 
Q 596.856172 247.12322 597.136172 246.70572 
Q 597.418672 246.28822 597.418672 245.00572 
Q 597.418672 242.85072 596.896172 242.03072 
Q 596.561172 241.49822 595.988672 241.49822 
Q 595.676172 241.49822 595.176172 241.75572 
z
"/>
   </g>
   <g id="text_20">
    <path d="M 568.413854 411.422287 
L 571.118542 403.226194 
L 569.058386 403.226194 
Q 567.851354 403.226194 567.241979 403.540256 
Q 566.817761 403.760569 566.538854 404.3676 
L 566.262292 404.3676 
L 566.979479 401.283225 
L 572.897448 401.283225 
L 569.564636 411.422287 
L 568.413854 411.422287 
z
M 575.131042 408.959006 
Q 575.644323 408.959006 575.998229 409.319944 
Q 576.354479 409.678537 576.354479 410.182444 
Q 576.354479 410.688694 575.995886 411.044944 
Q 575.637292 411.39885 575.131042 411.39885 
Q 574.624792 411.39885 574.268542 411.044944 
Q 573.914636 410.688694 573.914636 410.182444 
Q 573.914636 409.678537 574.268542 409.319944 
Q 574.624792 408.959006 575.131042 408.959006 
z
M 583.216979 411.216037 
L 577.371667 411.216037 
L 577.371667 411.054319 
Q 580.059948 407.8551 580.634167 406.74885 
Q 581.210729 405.6426 581.210729 404.587912 
Q 581.210729 403.819162 580.734948 403.310569 
Q 580.259167 402.799631 579.570104 402.799631 
Q 578.442761 402.799631 577.819323 403.929319 
L 577.547448 403.833225 
Q 577.943542 402.426975 578.749792 401.754319 
Q 579.556042 401.079319 580.610729 401.079319 
Q 581.363073 401.079319 581.986511 401.430881 
Q 582.609948 401.782444 582.961511 402.394162 
Q 583.313073 403.005881 583.313073 403.540256 
Q 583.313073 404.515256 582.769323 405.518381 
Q 582.031042 406.873069 579.539636 409.296506 
L 581.686511 409.296506 
Q 582.476354 409.296506 582.715417 409.230881 
Q 582.954479 409.165256 583.106823 409.008225 
Q 583.261511 408.851194 583.509948 408.344944 
L 583.774792 408.344944 
L 583.216979 411.216037 
z
" style="fill: #404040; stroke: #ffffff; stroke-width: 3.8"/>
    <path d="M 568.413854 411.422287 
L 571.118542 403.226194 
L 569.058386 403.226194 
Q 567.851354 403.226194 567.241979 403.540256 
Q 566.817761 403.760569 566.538854 404.3676 
L 566.262292 404.3676 
L 566.979479 401.283225 
L 572.897448 401.283225 
L 569.564636 411.422287 
L 568.413854 411.422287 
z
M 575.131042 408.959006 
Q 575.644323 408.959006 575.998229 409.319944 
Q 576.354479 409.678537 576.354479 410.182444 
Q 576.354479 410.688694 575.995886 411.044944 
Q 575.637292 411.39885 575.131042 411.39885 
Q 574.624792 411.39885 574.268542 411.044944 
Q 573.914636 410.688694 573.914636 410.182444 
Q 573.914636 409.678537 574.268542 409.319944 
Q 574.624792 408.959006 575.131042 408.959006 
z
M 583.216979 411.216037 
L 577.371667 411.216037 
L 577.371667 411.054319 
Q 580.059948 407.8551 580.634167 406.74885 
Q 581.210729 405.6426 581.210729 404.587912 
Q 581.210729 403.819162 580.734948 403.310569 
Q 580.259167 402.799631 579.570104 402.799631 
Q 578.442761 402.799631 577.819323 403.929319 
L 577.547448 403.833225 
Q 577.943542 402.426975 578.749792 401.754319 
Q 579.556042 401.079319 580.610729 401.079319 
Q 581.363073 401.079319 581.986511 401.430881 
Q 582.609948 401.782444 582.961511 402.394162 
Q 583.313073 403.005881 583.313073 403.540256 
Q 583.313073 404.515256 582.769323 405.518381 
Q 582.031042 406.873069 579.539636 409.296506 
L 581.686511 409.296506 
Q 582.476354 409.296506 582.715417 409.230881 
Q 582.954479 409.165256 583.106823 409.008225 
Q 583.261511 408.851194 583.509948 408.344944 
L 583.774792 408.344944 
L 583.216979 411.216037 
z
" style="fill: #404040"/>
   </g>
   <g id="text_21">
    <path d="M 563.885205 361.000249 
L 563.885205 369.123686 
Q 563.885205 370.037749 563.964893 370.290874 
Q 564.046924 370.543999 564.302393 370.705718 
Q 564.560205 370.865093 565.125049 370.865093 
L 565.350049 370.865093 
L 565.350049 371.136968 
L 560.121143 371.136968 
L 560.121143 370.865093 
L 560.385986 370.865093 
Q 561.023486 370.865093 561.293018 370.71978 
Q 561.564893 370.572124 561.658643 370.316655 
Q 561.754736 370.061186 561.754736 369.123686 
L 561.754736 363.974468 
Q 561.754736 363.285405 561.689111 363.114311 
Q 561.623486 362.940874 561.443018 362.821343 
Q 561.264893 362.699468 561.030518 362.699468 
Q 560.655518 362.699468 560.121143 362.933843 
L 559.989893 362.668999 
L 563.643799 361.000249 
L 563.885205 361.000249 
z
M 572.711768 371.136968 
L 566.866455 371.136968 
L 566.866455 370.975249 
Q 569.554736 367.77603 570.128955 366.66978 
Q 570.705518 365.56353 570.705518 364.508843 
Q 570.705518 363.740093 570.229736 363.231499 
Q 569.753955 362.720561 569.064893 362.720561 
Q 567.937549 362.720561 567.314111 363.850249 
L 567.042236 363.754155 
Q 567.43833 362.347905 568.24458 361.675249 
Q 569.05083 361.000249 570.105518 361.000249 
Q 570.857861 361.000249 571.481299 361.351811 
Q 572.104736 361.703374 572.456299 362.315093 
Q 572.807861 362.926811 572.807861 363.461186 
Q 572.807861 364.436186 572.264111 365.439311 
Q 571.52583 366.793999 569.034424 369.217436 
L 571.181299 369.217436 
Q 571.971143 369.217436 572.210205 369.151811 
Q 572.449268 369.086186 572.601611 368.929155 
Q 572.756299 368.772124 573.004736 368.265874 
L 573.26958 368.265874 
L 572.711768 371.136968 
z
M 578.885205 361.000249 
L 578.885205 369.123686 
Q 578.885205 370.037749 578.964893 370.290874 
Q 579.046924 370.543999 579.302393 370.705718 
Q 579.560205 370.865093 580.125049 370.865093 
L 580.350049 370.865093 
L 580.350049 371.136968 
L 575.121143 371.136968 
L 575.121143 370.865093 
L 575.385986 370.865093 
Q 576.023486 370.865093 576.293018 370.71978 
Q 576.564893 370.572124 576.658643 370.316655 
Q 576.754736 370.061186 576.754736 369.123686 
L 576.754736 363.974468 
Q 576.754736 363.285405 576.689111 363.114311 
Q 576.623486 362.940874 576.443018 362.821343 
Q 576.264893 362.699468 576.030518 362.699468 
Q 575.655518 362.699468 575.121143 362.933843 
L 574.989893 362.668999 
L 578.643799 361.000249 
L 578.885205 361.000249 
z
M 583.37583 368.879936 
Q 583.889111 368.879936 584.243018 369.240874 
Q 584.599268 369.599468 584.599268 370.103374 
Q 584.599268 370.609624 584.240674 370.965874 
Q 583.88208 371.31978 583.37583 371.31978 
Q 582.86958 371.31978 582.51333 370.965874 
Q 582.159424 370.609624 582.159424 370.103374 
Q 582.159424 369.599468 582.51333 369.240874 
Q 582.86958 368.879936 583.37583 368.879936 
z
M 587.535986 361.204155 
L 592.185986 361.204155 
L 591.447705 363.095561 
L 587.535986 363.095561 
L 587.16333 364.084624 
Q 589.689893 364.178374 591.051611 365.343218 
Q 592.171924 366.301811 592.171924 367.731499 
Q 592.171924 368.645561 591.651611 369.522124 
Q 591.131299 370.396343 590.186768 370.86978 
Q 589.242236 371.343218 588.114893 371.343218 
Q 586.898486 371.343218 586.246924 370.88853 
Q 585.792236 370.565093 585.792236 370.154936 
Q 585.792236 369.840874 586.028955 369.599468 
Q 586.268018 369.358061 586.584424 369.358061 
Q 586.870361 369.358061 587.16333 369.475249 
Q 587.456299 369.592436 588.166455 370.089311 
Q 588.611768 370.396343 588.935205 370.51353 
Q 589.162549 370.602593 589.448486 370.602593 
Q 590.048486 370.602593 590.468018 370.164311 
Q 590.889893 369.723686 590.889893 369.10728 
Q 590.889893 367.818218 589.60083 367.014311 
Q 588.311768 366.208061 586.350049 366.208061 
Q 586.15083 366.208061 585.75708 366.215093 
L 587.535986 361.204155 
z
" style="fill: #404040; stroke: #ffffff; stroke-width: 3.8"/>
    <path d="M 563.885205 361.000249 
L 563.885205 369.123686 
Q 563.885205 370.037749 563.964893 370.290874 
Q 564.046924 370.543999 564.302393 370.705718 
Q 564.560205 370.865093 565.125049 370.865093 
L 565.350049 370.865093 
L 565.350049 371.136968 
L 560.121143 371.136968 
L 560.121143 370.865093 
L 560.385986 370.865093 
Q 561.023486 370.865093 561.293018 370.71978 
Q 561.564893 370.572124 561.658643 370.316655 
Q 561.754736 370.061186 561.754736 369.123686 
L 561.754736 363.974468 
Q 561.754736 363.285405 561.689111 363.114311 
Q 561.623486 362.940874 561.443018 362.821343 
Q 561.264893 362.699468 561.030518 362.699468 
Q 560.655518 362.699468 560.121143 362.933843 
L 559.989893 362.668999 
L 563.643799 361.000249 
L 563.885205 361.000249 
z
M 572.711768 371.136968 
L 566.866455 371.136968 
L 566.866455 370.975249 
Q 569.554736 367.77603 570.128955 366.66978 
Q 570.705518 365.56353 570.705518 364.508843 
Q 570.705518 363.740093 570.229736 363.231499 
Q 569.753955 362.720561 569.064893 362.720561 
Q 567.937549 362.720561 567.314111 363.850249 
L 567.042236 363.754155 
Q 567.43833 362.347905 568.24458 361.675249 
Q 569.05083 361.000249 570.105518 361.000249 
Q 570.857861 361.000249 571.481299 361.351811 
Q 572.104736 361.703374 572.456299 362.315093 
Q 572.807861 362.926811 572.807861 363.461186 
Q 572.807861 364.436186 572.264111 365.439311 
Q 571.52583 366.793999 569.034424 369.217436 
L 571.181299 369.217436 
Q 571.971143 369.217436 572.210205 369.151811 
Q 572.449268 369.086186 572.601611 368.929155 
Q 572.756299 368.772124 573.004736 368.265874 
L 573.26958 368.265874 
L 572.711768 371.136968 
z
M 578.885205 361.000249 
L 578.885205 369.123686 
Q 578.885205 370.037749 578.964893 370.290874 
Q 579.046924 370.543999 579.302393 370.705718 
Q 579.560205 370.865093 580.125049 370.865093 
L 580.350049 370.865093 
L 580.350049 371.136968 
L 575.121143 371.136968 
L 575.121143 370.865093 
L 575.385986 370.865093 
Q 576.023486 370.865093 576.293018 370.71978 
Q 576.564893 370.572124 576.658643 370.316655 
Q 576.754736 370.061186 576.754736 369.123686 
L 576.754736 363.974468 
Q 576.754736 363.285405 576.689111 363.114311 
Q 576.623486 362.940874 576.443018 362.821343 
Q 576.264893 362.699468 576.030518 362.699468 
Q 575.655518 362.699468 575.121143 362.933843 
L 574.989893 362.668999 
L 578.643799 361.000249 
L 578.885205 361.000249 
z
M 583.37583 368.879936 
Q 583.889111 368.879936 584.243018 369.240874 
Q 584.599268 369.599468 584.599268 370.103374 
Q 584.599268 370.609624 584.240674 370.965874 
Q 583.88208 371.31978 583.37583 371.31978 
Q 582.86958 371.31978 582.51333 370.965874 
Q 582.159424 370.609624 582.159424 370.103374 
Q 582.159424 369.599468 582.51333 369.240874 
Q 582.86958 368.879936 583.37583 368.879936 
z
M 587.535986 361.204155 
L 592.185986 361.204155 
L 591.447705 363.095561 
L 587.535986 363.095561 
L 587.16333 364.084624 
Q 589.689893 364.178374 591.051611 365.343218 
Q 592.171924 366.301811 592.171924 367.731499 
Q 592.171924 368.645561 591.651611 369.522124 
Q 591.131299 370.396343 590.186768 370.86978 
Q 589.242236 371.343218 588.114893 371.343218 
Q 586.898486 371.343218 586.246924 370.88853 
Q 585.792236 370.565093 585.792236 370.154936 
Q 585.792236 369.840874 586.028955 369.599468 
Q 586.268018 369.358061 586.584424 369.358061 
Q 586.870361 369.358061 587.16333 369.475249 
Q 587.456299 369.592436 588.166455 370.089311 
Q 588.611768 370.396343 588.935205 370.51353 
Q 589.162549 370.602593 589.448486 370.602593 
Q 590.048486 370.602593 590.468018 370.164311 
Q 590.889893 369.723686 590.889893 369.10728 
Q 590.889893 367.818218 589.60083 367.014311 
Q 588.311768 366.208061 586.350049 366.208061 
Q 586.15083 366.208061 585.75708 366.215093 
L 587.535986 361.204155 
z
" style="fill: #404040"/>
   </g>
   <g id="text_22">
    <path d="M 465.5229 287.94839 
L 470.1729 287.94839 
L 469.434619 289.839796 
L 465.5229 289.839796 
L 465.150244 290.828858 
Q 467.676806 290.922608 469.038525 292.087452 
Q 470.158838 293.046046 470.158838 294.475733 
Q 470.158838 295.389796 469.638525 296.266358 
Q 469.118213 297.140577 468.173681 297.614015 
Q 467.22915 298.087452 466.101806 298.087452 
Q 464.8854 298.087452 464.233838 297.632765 
Q 463.77915 297.309327 463.77915 296.899171 
Q 463.77915 296.585108 464.015869 296.343702 
Q 464.254931 296.102296 464.571338 296.102296 
Q 464.857275 296.102296 465.150244 296.219483 
Q 465.443213 296.336671 466.153369 296.833546 
Q 466.598681 297.140577 466.922119 297.257765 
Q 467.149463 297.346827 467.4354 297.346827 
Q 468.0354 297.346827 468.454931 296.908546 
Q 468.876806 296.467921 468.876806 295.851515 
Q 468.876806 294.562452 467.587744 293.758546 
Q 466.298681 292.952296 464.336963 292.952296 
Q 464.137744 292.952296 463.743994 292.959327 
L 465.5229 287.94839 
z
M 476.948681 297.881202 
L 471.103369 297.881202 
L 471.103369 297.719483 
Q 473.79165 294.520265 474.365869 293.414015 
Q 474.942431 292.307765 474.942431 291.253077 
Q 474.942431 290.484327 474.46665 289.975733 
Q 473.990869 289.464796 473.301806 289.464796 
Q 472.174463 289.464796 471.551025 290.594483 
L 471.27915 290.49839 
Q 471.675244 289.09214 472.481494 288.419483 
Q 473.287744 287.744483 474.342431 287.744483 
Q 475.094775 287.744483 475.718213 288.096046 
Q 476.34165 288.447608 476.693213 289.059327 
Q 477.044775 289.671046 477.044775 290.205421 
Q 477.044775 291.180421 476.501025 292.183546 
Q 475.762744 293.538233 473.271338 295.961671 
L 475.418213 295.961671 
Q 476.208056 295.961671 476.447119 295.896046 
Q 476.686181 295.830421 476.838525 295.67339 
Q 476.993213 295.516358 477.24165 295.010108 
L 477.506494 295.010108 
L 476.948681 297.881202 
z
M 483.349463 292.270265 
Q 484.397119 293.039015 484.802588 293.702296 
Q 485.2104 294.365577 485.2104 295.22339 
Q 485.2104 296.42339 484.305713 297.255421 
Q 483.401025 298.087452 481.849463 298.087452 
Q 480.377588 298.087452 479.571338 297.363233 
Q 478.765088 296.636671 478.765088 295.589015 
Q 478.765088 294.789796 479.22915 294.189796 
Q 479.695556 293.589796 480.778369 293.090577 
Q 479.599463 292.190577 479.26665 291.618702 
Q 478.933838 291.046827 478.933838 290.29214 
Q 478.933838 289.296046 479.779931 288.539015 
Q 480.626025 287.781983 482.0979 287.781983 
Q 483.518213 287.781983 484.282275 288.452296 
Q 485.048681 289.120265 485.048681 290.057765 
Q 485.048681 290.76089 484.633838 291.299952 
Q 484.221338 291.839015 483.349463 292.270265 
z
M 482.793994 291.897608 
Q 483.063525 291.531983 483.194775 291.077296 
Q 483.328369 290.622608 483.328369 290.081202 
Q 483.328369 289.12964 482.918213 288.62339 
Q 482.611181 288.234327 482.067431 288.234327 
Q 481.577588 288.234327 481.233056 288.590577 
Q 480.888525 288.944483 480.888525 289.471827 
Q 480.888525 290.008546 481.2729 290.582765 
Q 481.657275 291.156983 482.793994 291.897608 
z
M 481.32915 293.44214 
Q 481.101806 293.64839 481.005713 293.81714 
Q 480.8604 294.072608 480.743213 294.564796 
Q 480.626025 295.05464 480.626025 295.589015 
Q 480.626025 296.278077 480.801806 296.74214 
Q 480.977588 297.206202 481.303369 297.412452 
Q 481.62915 297.616358 481.973681 297.616358 
Q 482.508056 297.616358 482.873681 297.224952 
Q 483.239306 296.833546 483.239306 296.151515 
Q 483.239306 294.731202 481.32915 293.44214 
z
M 487.612744 295.624171 
Q 488.126025 295.624171 488.479931 295.985108 
Q 488.836181 296.343702 488.836181 296.847608 
Q 488.836181 297.353858 488.477588 297.710108 
Q 488.118994 298.064015 487.612744 298.064015 
Q 487.106494 298.064015 486.750244 297.710108 
Q 486.396338 297.353858 486.396338 296.847608 
Q 486.396338 296.343702 486.750244 295.985108 
Q 487.106494 295.624171 487.612744 295.624171 
z
M 492.145556 298.087452 
L 494.850244 289.891358 
L 492.790088 289.891358 
Q 491.583056 289.891358 490.973681 290.205421 
Q 490.549463 290.425733 490.270556 291.032765 
L 489.993994 291.032765 
L 490.711181 287.94839 
L 496.62915 287.94839 
L 493.296338 298.087452 
L 492.145556 298.087452 
z
" style="fill: #404040; stroke: #ffffff; stroke-width: 3.8"/>
    <path d="M 465.5229 287.94839 
L 470.1729 287.94839 
L 469.434619 289.839796 
L 465.5229 289.839796 
L 465.150244 290.828858 
Q 467.676806 290.922608 469.038525 292.087452 
Q 470.158838 293.046046 470.158838 294.475733 
Q 470.158838 295.389796 469.638525 296.266358 
Q 469.118213 297.140577 468.173681 297.614015 
Q 467.22915 298.087452 466.101806 298.087452 
Q 464.8854 298.087452 464.233838 297.632765 
Q 463.77915 297.309327 463.77915 296.899171 
Q 463.77915 296.585108 464.015869 296.343702 
Q 464.254931 296.102296 464.571338 296.102296 
Q 464.857275 296.102296 465.150244 296.219483 
Q 465.443213 296.336671 466.153369 296.833546 
Q 466.598681 297.140577 466.922119 297.257765 
Q 467.149463 297.346827 467.4354 297.346827 
Q 468.0354 297.346827 468.454931 296.908546 
Q 468.876806 296.467921 468.876806 295.851515 
Q 468.876806 294.562452 467.587744 293.758546 
Q 466.298681 292.952296 464.336963 292.952296 
Q 464.137744 292.952296 463.743994 292.959327 
L 465.5229 287.94839 
z
M 476.948681 297.881202 
L 471.103369 297.881202 
L 471.103369 297.719483 
Q 473.79165 294.520265 474.365869 293.414015 
Q 474.942431 292.307765 474.942431 291.253077 
Q 474.942431 290.484327 474.46665 289.975733 
Q 473.990869 289.464796 473.301806 289.464796 
Q 472.174463 289.464796 471.551025 290.594483 
L 471.27915 290.49839 
Q 471.675244 289.09214 472.481494 288.419483 
Q 473.287744 287.744483 474.342431 287.744483 
Q 475.094775 287.744483 475.718213 288.096046 
Q 476.34165 288.447608 476.693213 289.059327 
Q 477.044775 289.671046 477.044775 290.205421 
Q 477.044775 291.180421 476.501025 292.183546 
Q 475.762744 293.538233 473.271338 295.961671 
L 475.418213 295.961671 
Q 476.208056 295.961671 476.447119 295.896046 
Q 476.686181 295.830421 476.838525 295.67339 
Q 476.993213 295.516358 477.24165 295.010108 
L 477.506494 295.010108 
L 476.948681 297.881202 
z
M 483.349463 292.270265 
Q 484.397119 293.039015 484.802588 293.702296 
Q 485.2104 294.365577 485.2104 295.22339 
Q 485.2104 296.42339 484.305713 297.255421 
Q 483.401025 298.087452 481.849463 298.087452 
Q 480.377588 298.087452 479.571338 297.363233 
Q 478.765088 296.636671 478.765088 295.589015 
Q 478.765088 294.789796 479.22915 294.189796 
Q 479.695556 293.589796 480.778369 293.090577 
Q 479.599463 292.190577 479.26665 291.618702 
Q 478.933838 291.046827 478.933838 290.29214 
Q 478.933838 289.296046 479.779931 288.539015 
Q 480.626025 287.781983 482.0979 287.781983 
Q 483.518213 287.781983 484.282275 288.452296 
Q 485.048681 289.120265 485.048681 290.057765 
Q 485.048681 290.76089 484.633838 291.299952 
Q 484.221338 291.839015 483.349463 292.270265 
z
M 482.793994 291.897608 
Q 483.063525 291.531983 483.194775 291.077296 
Q 483.328369 290.622608 483.328369 290.081202 
Q 483.328369 289.12964 482.918213 288.62339 
Q 482.611181 288.234327 482.067431 288.234327 
Q 481.577588 288.234327 481.233056 288.590577 
Q 480.888525 288.944483 480.888525 289.471827 
Q 480.888525 290.008546 481.2729 290.582765 
Q 481.657275 291.156983 482.793994 291.897608 
z
M 481.32915 293.44214 
Q 481.101806 293.64839 481.005713 293.81714 
Q 480.8604 294.072608 480.743213 294.564796 
Q 480.626025 295.05464 480.626025 295.589015 
Q 480.626025 296.278077 480.801806 296.74214 
Q 480.977588 297.206202 481.303369 297.412452 
Q 481.62915 297.616358 481.973681 297.616358 
Q 482.508056 297.616358 482.873681 297.224952 
Q 483.239306 296.833546 483.239306 296.151515 
Q 483.239306 294.731202 481.32915 293.44214 
z
M 487.612744 295.624171 
Q 488.126025 295.624171 488.479931 295.985108 
Q 488.836181 296.343702 488.836181 296.847608 
Q 488.836181 297.353858 488.477588 297.710108 
Q 488.118994 298.064015 487.612744 298.064015 
Q 487.106494 298.064015 486.750244 297.710108 
Q 486.396338 297.353858 486.396338 296.847608 
Q 486.396338 296.343702 486.750244 295.985108 
Q 487.106494 295.624171 487.612744 295.624171 
z
M 492.145556 298.087452 
L 494.850244 289.891358 
L 492.790088 289.891358 
Q 491.583056 289.891358 490.973681 290.205421 
Q 490.549463 290.425733 490.270556 291.032765 
L 489.993994 291.032765 
L 490.711181 287.94839 
L 496.62915 287.94839 
L 493.296338 298.087452 
L 492.145556 298.087452 
z
" style="fill: #404040"/>
   </g>
   <g id="text_23">
    <path d="M 319.944086 365.76635 
L 324.662054 359.3726 
L 325.555023 359.3726 
L 325.555023 365.76635 
L 326.464398 365.76635 
L 326.464398 367.282757 
L 325.555023 367.282757 
L 325.555023 369.509319 
L 323.541742 369.509319 
L 323.541742 367.282757 
L 319.944086 367.282757 
L 319.944086 365.76635 
z
M 320.656586 365.76635 
L 323.541742 365.76635 
L 323.541742 361.8476 
L 320.656586 365.76635 
z
M 334.022992 364.542913 
Q 334.022992 366.031194 333.605804 367.320257 
Q 333.355023 368.1101 332.933148 368.61635 
Q 332.513617 369.120257 331.979242 369.417913 
Q 331.444867 369.715569 330.814398 369.715569 
Q 330.097211 369.715569 329.518304 369.349944 
Q 328.939398 368.981975 328.491742 368.299944 
Q 328.170648 367.803069 327.929242 366.975725 
Q 327.612836 365.855413 327.612836 364.6601 
Q 327.612836 363.042913 328.067523 361.685882 
Q 328.440179 360.565569 329.201898 359.970257 
Q 329.963617 359.3726 330.814398 359.3726 
Q 331.679242 359.3726 332.429242 359.963225 
Q 333.179242 360.551507 333.530804 361.5476 
Q 334.022992 362.91635 334.022992 364.542913 
z
M 331.765961 364.52885 
Q 331.765961 361.920257 331.737836 361.489007 
Q 331.662836 360.471819 331.386273 360.113225 
Q 331.203461 359.87885 330.793304 359.87885 
Q 330.476898 359.87885 330.294086 360.054632 
Q 330.022211 360.3101 329.926117 360.959319 
Q 329.832367 361.606194 329.832367 365.480413 
Q 329.832367 367.589788 329.980023 368.306975 
Q 330.090179 368.827288 330.294086 369.003069 
Q 330.500336 369.17885 330.835492 369.17885 
Q 331.203461 369.17885 331.386273 368.944475 
Q 331.693304 368.534319 331.737836 367.67885 
L 331.765961 364.52885 
z
M 336.446429 367.252288 
Q 336.959711 367.252288 337.313617 367.613225 
Q 337.669867 367.971819 337.669867 368.475725 
Q 337.669867 368.981975 337.311273 369.338225 
Q 336.952679 369.692132 336.446429 369.692132 
Q 335.940179 369.692132 335.583929 369.338225 
Q 335.230023 368.981975 335.230023 368.475725 
Q 335.230023 367.971819 335.583929 367.613225 
Q 335.940179 367.252288 336.446429 367.252288 
z
M 345.272992 364.542913 
Q 345.272992 366.031194 344.855804 367.320257 
Q 344.605023 368.1101 344.183148 368.61635 
Q 343.763617 369.120257 343.229242 369.417913 
Q 342.694867 369.715569 342.064398 369.715569 
Q 341.347211 369.715569 340.768304 369.349944 
Q 340.189398 368.981975 339.741742 368.299944 
Q 339.420648 367.803069 339.179242 366.975725 
Q 338.862836 365.855413 338.862836 364.6601 
Q 338.862836 363.042913 339.317523 361.685882 
Q 339.690179 360.565569 340.451898 359.970257 
Q 341.213617 359.3726 342.064398 359.3726 
Q 342.929242 359.3726 343.679242 359.963225 
Q 344.429242 360.551507 344.780804 361.5476 
Q 345.272992 362.91635 345.272992 364.542913 
z
M 343.015961 364.52885 
Q 343.015961 361.920257 342.987836 361.489007 
Q 342.912836 360.471819 342.636273 360.113225 
Q 342.453461 359.87885 342.043304 359.87885 
Q 341.726898 359.87885 341.544086 360.054632 
Q 341.272211 360.3101 341.176117 360.959319 
Q 341.082367 361.606194 341.082367 365.480413 
Q 341.082367 367.589788 341.230023 368.306975 
Q 341.340179 368.827288 341.544086 369.003069 
Q 341.750336 369.17885 342.085492 369.17885 
Q 342.453461 369.17885 342.636273 368.944475 
Q 342.943304 368.534319 342.987836 367.67885 
L 343.015961 364.52885 
z
" style="fill: #404040; stroke: #ffffff; stroke-width: 3.8"/>
    <path d="M 319.944086 365.76635 
L 324.662054 359.3726 
L 325.555023 359.3726 
L 325.555023 365.76635 
L 326.464398 365.76635 
L 326.464398 367.282757 
L 325.555023 367.282757 
L 325.555023 369.509319 
L 323.541742 369.509319 
L 323.541742 367.282757 
L 319.944086 367.282757 
L 319.944086 365.76635 
z
M 320.656586 365.76635 
L 323.541742 365.76635 
L 323.541742 361.8476 
L 320.656586 365.76635 
z
M 334.022992 364.542913 
Q 334.022992 366.031194 333.605804 367.320257 
Q 333.355023 368.1101 332.933148 368.61635 
Q 332.513617 369.120257 331.979242 369.417913 
Q 331.444867 369.715569 330.814398 369.715569 
Q 330.097211 369.715569 329.518304 369.349944 
Q 328.939398 368.981975 328.491742 368.299944 
Q 328.170648 367.803069 327.929242 366.975725 
Q 327.612836 365.855413 327.612836 364.6601 
Q 327.612836 363.042913 328.067523 361.685882 
Q 328.440179 360.565569 329.201898 359.970257 
Q 329.963617 359.3726 330.814398 359.3726 
Q 331.679242 359.3726 332.429242 359.963225 
Q 333.179242 360.551507 333.530804 361.5476 
Q 334.022992 362.91635 334.022992 364.542913 
z
M 331.765961 364.52885 
Q 331.765961 361.920257 331.737836 361.489007 
Q 331.662836 360.471819 331.386273 360.113225 
Q 331.203461 359.87885 330.793304 359.87885 
Q 330.476898 359.87885 330.294086 360.054632 
Q 330.022211 360.3101 329.926117 360.959319 
Q 329.832367 361.606194 329.832367 365.480413 
Q 329.832367 367.589788 329.980023 368.306975 
Q 330.090179 368.827288 330.294086 369.003069 
Q 330.500336 369.17885 330.835492 369.17885 
Q 331.203461 369.17885 331.386273 368.944475 
Q 331.693304 368.534319 331.737836 367.67885 
L 331.765961 364.52885 
z
M 336.446429 367.252288 
Q 336.959711 367.252288 337.313617 367.613225 
Q 337.669867 367.971819 337.669867 368.475725 
Q 337.669867 368.981975 337.311273 369.338225 
Q 336.952679 369.692132 336.446429 369.692132 
Q 335.940179 369.692132 335.583929 369.338225 
Q 335.230023 368.981975 335.230023 368.475725 
Q 335.230023 367.971819 335.583929 367.613225 
Q 335.940179 367.252288 336.446429 367.252288 
z
M 345.272992 364.542913 
Q 345.272992 366.031194 344.855804 367.320257 
Q 344.605023 368.1101 344.183148 368.61635 
Q 343.763617 369.120257 343.229242 369.417913 
Q 342.694867 369.715569 342.064398 369.715569 
Q 341.347211 369.715569 340.768304 369.349944 
Q 340.189398 368.981975 339.741742 368.299944 
Q 339.420648 367.803069 339.179242 366.975725 
Q 338.862836 365.855413 338.862836 364.6601 
Q 338.862836 363.042913 339.317523 361.685882 
Q 339.690179 360.565569 340.451898 359.970257 
Q 341.213617 359.3726 342.064398 359.3726 
Q 342.929242 359.3726 343.679242 359.963225 
Q 344.429242 360.551507 344.780804 361.5476 
Q 345.272992 362.91635 345.272992 364.542913 
z
M 343.015961 364.52885 
Q 343.015961 361.920257 342.987836 361.489007 
Q 342.912836 360.471819 342.636273 360.113225 
Q 342.453461 359.87885 342.043304 359.87885 
Q 341.726898 359.87885 341.544086 360.054632 
Q 341.272211 360.3101 341.176117 360.959319 
Q 341.082367 361.606194 341.082367 365.480413 
Q 341.082367 367.589788 341.230023 368.306975 
Q 341.340179 368.827288 341.544086 369.003069 
Q 341.750336 369.17885 342.085492 369.17885 
Q 342.453461 369.17885 342.636273 368.944475 
Q 342.943304 368.534319 342.987836 367.67885 
L 343.015961 364.52885 
z
" style="fill: #404040"/>
   </g>
  </g>
 </g>
 <defs>
  <clipPath id="p409338e2f8">
   <rect x="7.2" y="56.14" width="730.764" height="432.684"/>
  </clipPath>
 </defs>
</svg>
