<?xml version="1.0" encoding="utf-8" standalone="no"?>
<!DOCTYPE svg PUBLIC "-//W3C//DTD SVG 1.1//EN"
  "http://www.w3.org/Graphics/SVG/1.1/DTD/svg11.dtd">
<svg xmlns:xlink="http://www.w3.org/1999/xlink" width="745.164pt" height="496.204623pt" viewBox="0 0 745.164 496.204623" xmlns="http://www.w3.org/2000/svg" version="1.1">
 <metadata>
  <rdf:RDF xmlns:dc="http://purl.org/dc/elements/1.1/" xmlns:cc="http://creativecommons.org/ns#" xmlns:rdf="http://www.w3.org/1999/02/22-rdf-syntax-ns#">
   <cc:Work>
    <dc:type rdf:resource="http://purl.org/dc/dcmitype/StillImage"/>
    <dc:date>2026-07-13T16:59:01.510591</dc:date>
    <dc:format>image/svg+xml</dc:format>
    <dc:creator>
     <cc:Agent>
      <dc:title>Matplotlib v3.10.8, https://matplotlib.org/</dc:title>
     </cc:Agent>
    </dc:creator>
   </cc:Work>
  </rdf:RDF>
 </metadata>
 <defs>
  <style type="text/css">*{stroke-linejoin: round; stroke-linecap: butt}</style>
 </defs>
 <g id="figure_1">
  <g id="patch_1">
   <path d="M 0 496.204623 
L 745.164 496.204623 
L 745.164 0 
L 0 0 
L 0 496.204623 
z
" style="fill: none"/>
  </g>
  <g id="axes_1">
   <g id="patch_2">
    <path d="M 120.350555 445.685813 
Q 120.350555 462.307679 120.350555 476.043144 
" clip-path="url(#p392621d84e)" style="fill: none; stroke: #111111; stroke-width: 2.581676; stroke-linejoin: miter; stroke-linecap: round"/>
    <path d="M 124.120691 468.502871 
L 120.350555 476.043144 
L 116.580418 468.502871 
z
" clip-path="url(#p392621d84e)" style="fill: #111111; stroke: #111111; stroke-width: 2.581676; stroke-linejoin: miter; stroke-linecap: round"/>
   </g>
   <g id="patch_3">
    <path d="M 120.350555 361.272305 
Q 120.350555 384.045312 120.350555 402.244619 
" clip-path="url(#p392621d84e)" style="fill: none; stroke: #111111; stroke-width: 4.090843; stroke-linejoin: miter; stroke-linecap: round"/>
    <path d="M 124.603625 393.738479 
L 120.350555 402.244619 
L 116.097485 393.738479 
z
" clip-path="url(#p392621d84e)" style="fill: #111111; stroke: #111111; stroke-width: 4.090843; stroke-linejoin: miter; stroke-linecap: round"/>
   </g>
   <g id="patch_4">
    <path d="M 120.350555 256.7077 
Q 120.350555 283.405114 120.350555 303.617932 
" clip-path="url(#p392621d84e)" style="fill: none; stroke: #111111; stroke-width: 5.8; stroke-linejoin: miter; stroke-linecap: round"/>
    <path d="M 125.150555 294.017932 
L 120.350555 303.617932 
L 115.550555 294.017932 
z
" clip-path="url(#p392621d84e)" style="fill: #111111; stroke: #111111; stroke-width: 5.8; stroke-linejoin: miter; stroke-linecap: round"/>
   </g>
   <g id="patch_5">
    <path d="M 370.224697 323.328851 
Q 370.224697 341.223123 370.224697 355.857023 
" clip-path="url(#p392621d84e)" style="fill: none; stroke: #111111; stroke-width: 2.916166; stroke-linejoin: miter; stroke-linecap: round"/>
    <path d="M 374.10187 348.102676 
L 370.224697 355.857023 
L 366.347524 348.102676 
z
" clip-path="url(#p392621d84e)" style="fill: #111111; stroke: #111111; stroke-width: 2.916166; stroke-linejoin: miter; stroke-linecap: round"/>
   </g>
   <g id="patch_6">
    <path d="M 370.224697 234.776101 
Q 370.224697 258.346323 370.224697 276.956399 
" clip-path="url(#p392621d84e)" style="fill: none; stroke: #111111; stroke-width: 4.436488; stroke-linejoin: miter; stroke-linecap: round"/>
    <path d="M 374.588373 268.229047 
L 370.224697 276.956399 
L 365.86102 268.229047 
z
" clip-path="url(#p392621d84e)" style="fill: #111111; stroke: #111111; stroke-width: 4.436488; stroke-linejoin: miter; stroke-linecap: round"/>
   </g>
   <g id="patch_7">
    <path d="M 370.224697 130.855142 
Q 370.224697 156.43352 370.224697 176.02276 
" clip-path="url(#p392621d84e)" style="fill: none; stroke: #111111; stroke-width: 5.356848; stroke-linejoin: miter; stroke-linecap: round"/>
    <path d="M 374.882888 166.706377 
L 370.224697 176.02276 
L 365.566505 166.706377 
z
" clip-path="url(#p392621d84e)" style="fill: #111111; stroke: #111111; stroke-width: 5.356848; stroke-linejoin: miter; stroke-linecap: round"/>
   </g>
   <g id="patch_8">
    <path d="M 586.153672 298.24379 
Q 586.153672 320.702738 586.153672 339.510407 
" clip-path="url(#p392621d84e)" style="fill: none; stroke: #111111; stroke-width: 3.265803; stroke-linejoin: miter; stroke-linecap: round"/>
    <path d="M 590.142729 331.532293 
L 586.153672 339.510407 
L 582.164615 331.532293 
z
" clip-path="url(#p392621d84e)" style="fill: #111111; stroke: #111111; stroke-width: 3.265803; stroke-linejoin: miter; stroke-linecap: round"/>
   </g>
   <g id="line2d_1">
    <path d="M 165.610777 478.929545 
L 550.322663 478.929545 
" clip-path="url(#p392621d84e)" style="fill: none; stroke-dasharray: 5.6,4.2; stroke-dashoffset: 0; stroke: #404040; stroke-width: 1.4"/>
   </g>
   <g id="line2d_2">
    <path d="M 165.610777 406.81832 
L 550.322663 406.81832 
" clip-path="url(#p392621d84e)" style="fill: none; stroke-dasharray: 5.6,4.2; stroke-dashoffset: 0; stroke: #404040; stroke-width: 1.4"/>
   </g>
   <g id="line2d_3">
    <path d="M 415.484919 359.117396 
L 560.694797 359.117396 
" clip-path="url(#p392621d84e)" style="fill: none; stroke-dasharray: 5.6,4.2; stroke-dashoffset: 0; stroke: #404040; stroke-width: 1.4"/>
   </g>
   <g id="patch_9">
    <path d="M 665.359061 343.161686 
Q 573.47323 409.294033 482.354394 474.874356 
" clip-path="url(#p392621d84e)" style="fill: none; stroke: #404040; stroke-width: 0.845227; stroke-linejoin: miter; stroke-linecap: round"/>
    <path d="M 488.5685 473.870297 
L 482.354394 474.874356 
L 485.27961 469.300636 
z
" clip-path="url(#p392621d84e)" style="fill: #404040; stroke: #404040; stroke-width: 0.845227; stroke-linejoin: miter; stroke-linecap: round"/>
   </g>
   <g id="patch_10">
    <path d="M 620.098839 343.161686 
Q 578.311821 373.236764 539.652636 401.060669 
" clip-path="url(#p392621d84e)" style="fill: none; stroke: #404040; stroke-width: 3.446869; stroke-linejoin: miter; stroke-linecap: round"/>
    <path d="M 547.781064 399.747298 
L 539.652636 401.060669 
L 543.478996 393.769904 
z
" clip-path="url(#p392621d84e)" style="fill: #404040; stroke: #404040; stroke-width: 3.446869; stroke-linejoin: miter; stroke-linecap: round"/>
   </g>
   <g id="patch_11">
    <path d="M 574.838617 343.161686 
Q 542.403396 350.479751 511.739609 357.398144 
" clip-path="url(#p392621d84e)" style="fill: none; stroke: #404040; stroke-width: 1.624245; stroke-linejoin: miter; stroke-linecap: round"/>
    <path d="M 518.415037 359.044064 
L 511.739609 357.398144 
L 517.061602 353.045354 
z
" clip-path="url(#p392621d84e)" style="fill: #404040; stroke: #404040; stroke-width: 1.624245; stroke-linejoin: miter; stroke-linecap: round"/>
   </g>
   <g id="patch_12">
    <path d="M 370.224697 359.117396 
Q 335.228625 381.358563 302.888524 401.911773 
" clip-path="url(#p392621d84e)" style="fill: none; stroke: #404040; stroke-width: 2.814729; stroke-linejoin: miter; stroke-linecap: round"/>
    <path d="M 310.61047 401.117565 
L 302.888524 401.911773 
L 306.886325 395.257692 
z
" clip-path="url(#p392621d84e)" style="fill: #404040; stroke: #404040; stroke-width: 2.814729; stroke-linejoin: miter; stroke-linecap: round"/>
   </g>
   <g id="line2d_4">
    <path d="M 120.350555 406.81832 
L 120.350555 440.062052 
" clip-path="url(#p392621d84e)" style="fill: none; stroke: #111111; stroke-width: 2.581676"/>
   </g>
   <g id="line2d_5">
    <path d="M 120.350555 310.102529 
L 120.350555 355.648544 
" clip-path="url(#p392621d84e)" style="fill: none; stroke: #111111; stroke-width: 4.090843"/>
   </g>
   <g id="line2d_6">
    <path d="M 120.350555 197.689109 
L 120.350555 251.083939 
" clip-path="url(#p392621d84e)" style="fill: none; stroke: #111111; stroke-width: 5.8"/>
   </g>
   <g id="line2d_7">
    <path d="M 370.224697 281.916544 
L 370.224697 317.70509 
" clip-path="url(#p392621d84e)" style="fill: none; stroke: #111111; stroke-width: 2.916166"/>
   </g>
   <g id="line2d_8">
    <path d="M 370.224697 182.011898 
L 370.224697 229.15234 
" clip-path="url(#p392621d84e)" style="fill: none; stroke: #111111; stroke-width: 4.436488"/>
   </g>
   <g id="line2d_9">
    <path d="M 370.224697 74.074625 
L 370.224697 125.231381 
" clip-path="url(#p392621d84e)" style="fill: none; stroke: #111111; stroke-width: 5.356848"/>
   </g>
   <g id="line2d_10">
    <path d="M 586.153672 247.702133 
L 586.153672 292.620029 
" clip-path="url(#p392621d84e)" style="fill: none; stroke: #111111; stroke-width: 3.265803"/>
   </g>
   <g id="line2d_11">
    <path d="M 75.090333 478.929545 
L 165.610777 478.929545 
" clip-path="url(#p392621d84e)" style="fill: none; stroke: #111111; stroke-width: 3.6; stroke-linecap: round"/>
   </g>
   <g id="line2d_12">
    <path d="M 75.090333 406.81832 
L 165.610777 406.81832 
" clip-path="url(#p392621d84e)" style="fill: none; stroke: #111111; stroke-width: 3.6; stroke-linecap: round"/>
   </g>
   <g id="line2d_13">
    <path d="M 75.090333 310.102529 
L 165.610777 310.102529 
" clip-path="url(#p392621d84e)" style="fill: none; stroke: #111111; stroke-width: 3.6; stroke-linecap: round"/>
   </g>
   <g id="line2d_14">
    <path d="M 75.090333 197.689109 
L 165.610777 197.689109 
" clip-path="url(#p392621d84e)" style="fill: none; stroke: #111111; stroke-width: 3.6; stroke-linecap: round"/>
   </g>
   <g id="line2d_15">
    <path d="M 324.964475 359.117396 
L 415.484919 359.117396 
" clip-path="url(#p392621d84e)" style="fill: none; stroke: #111111; stroke-width: 3.6; stroke-linecap: round"/>
   </g>
   <g id="line2d_16">
    <path d="M 324.964475 281.916544 
L 415.484919 281.916544 
" clip-path="url(#p392621d84e)" style="fill: none; stroke: #111111; stroke-width: 3.6; stroke-linecap: round"/>
   </g>
   <g id="line2d_17">
    <path d="M 324.964475 182.011898 
L 415.484919 182.011898 
" clip-path="url(#p392621d84e)" style="fill: none; stroke: #111111; stroke-width: 3.6; stroke-linecap: round"/>
   </g>
   <g id="line2d_18">
    <path d="M 324.964475 74.074625 
L 415.484919 74.074625 
" clip-path="url(#p392621d84e)" style="fill: none; stroke: #111111; stroke-width: 3.6; stroke-linecap: round"/>
   </g>
   <g id="line2d_19">
    <path d="M 574.838617 343.161686 
L 665.359061 343.161686 
" clip-path="url(#p392621d84e)" style="fill: none; stroke: #111111; stroke-width: 3.6; stroke-linecap: round"/>
   </g>
   <g id="line2d_20">
    <path d="M 574.838617 247.702133 
L 665.359061 247.702133 
" clip-path="url(#p392621d84e)" style="fill: none; stroke: #111111; stroke-width: 3.6; stroke-linecap: round"/>
   </g>
   <g id="text_1">
    <!-- $^{86}\mathrm{Se}$ -->
    <g transform="translate(335.522 33.034687) scale(0.34 -0.34)">
     <defs>
      <path id="DejaVuSans-38" d="M 2034 2216 
Q 1584 2216 1326 1975 
Q 1069 1734 1069 1313 
Q 1069 891 1326 650 
Q 1584 409 2034 409 
Q 2484 409 2743 651 
Q 3003 894 3003 1313 
Q 3003 1734 2745 1975 
Q 2488 2216 2034 2216 
z
M 1403 2484 
Q 997 2584 770 2862 
Q 544 3141 544 3541 
Q 544 4100 942 4425 
Q 1341 4750 2034 4750 
Q 2731 4750 3128 4425 
Q 3525 4100 3525 3541 
Q 3525 3141 3298 2862 
Q 3072 2584 2669 2484 
Q 3125 2378 3379 2068 
Q 3634 1759 3634 1313 
Q 3634 634 3220 271 
Q 2806 -91 2034 -91 
Q 1263 -91 848 271 
Q 434 634 434 1313 
Q 434 1759 690 2068 
Q 947 2378 1403 2484 
z
M 1172 3481 
Q 1172 3119 1398 2916 
Q 1625 2713 2034 2713 
Q 2441 2713 2670 2916 
Q 2900 3119 2900 3481 
Q 2900 3844 2670 4047 
Q 2441 4250 2034 4250 
Q 1625 4250 1398 4047 
Q 1172 3844 1172 3481 
z
" transform="scale(0.015625)"/>
      <path id="DejaVuSans-36" d="M 2113 2584 
Q 1688 2584 1439 2293 
Q 1191 2003 1191 1497 
Q 1191 994 1439 701 
Q 1688 409 2113 409 
Q 2538 409 2786 701 
Q 3034 994 3034 1497 
Q 3034 2003 2786 2293 
Q 2538 2584 2113 2584 
z
M 3366 4563 
L 3366 3988 
Q 3128 4100 2886 4159 
Q 2644 4219 2406 4219 
Q 1781 4219 1451 3797 
Q 1122 3375 1075 2522 
Q 1259 2794 1537 2939 
Q 1816 3084 2150 3084 
Q 2853 3084 3261 2657 
Q 3669 2231 3669 1497 
Q 3669 778 3244 343 
Q 2819 -91 2113 -91 
Q 1303 -91 875 529 
Q 447 1150 447 2328 
Q 447 3434 972 4092 
Q 1497 4750 2381 4750 
Q 2619 4750 2861 4703 
Q 3103 4656 3366 4563 
z
" transform="scale(0.015625)"/>
      <path id="DejaVuSans-53" d="M 3425 4513 
L 3425 3897 
Q 3066 4069 2747 4153 
Q 2428 4238 2131 4238 
Q 1616 4238 1336 4038 
Q 1056 3838 1056 3469 
Q 1056 3159 1242 3001 
Q 1428 2844 1947 2747 
L 2328 2669 
Q 3034 2534 3370 2195 
Q 3706 1856 3706 1288 
Q 3706 609 3251 259 
Q 2797 -91 1919 -91 
Q 1588 -91 1214 -16 
Q 841 59 441 206 
L 441 856 
Q 825 641 1194 531 
Q 1563 422 1919 422 
Q 2459 422 2753 634 
Q 3047 847 3047 1241 
Q 3047 1584 2836 1778 
Q 2625 1972 2144 2069 
L 1759 2144 
Q 1053 2284 737 2584 
Q 422 2884 422 3419 
Q 422 4038 858 4394 
Q 1294 4750 2059 4750 
Q 2388 4750 2728 4690 
Q 3069 4631 3425 4513 
z
" transform="scale(0.015625)"/>
      <path id="DejaVuSans-65" d="M 3597 1894 
L 3597 1613 
L 953 1613 
Q 991 1019 1311 708 
Q 1631 397 2203 397 
Q 2534 397 2845 478 
Q 3156 559 3463 722 
L 3463 178 
Q 3153 47 2828 -22 
Q 2503 -91 2169 -91 
Q 1331 -91 842 396 
Q 353 884 353 1716 
Q 353 2575 817 3079 
Q 1281 3584 2069 3584 
Q 2775 3584 3186 3129 
Q 3597 2675 3597 1894 
z
M 3022 2063 
Q 3016 2534 2758 2815 
Q 2500 3097 2075 3097 
Q 1594 3097 1305 2825 
Q 1016 2553 972 2059 
L 3022 2063 
z
" transform="scale(0.015625)"/>
     </defs>
     <use xlink:href="#DejaVuSans-38" transform="translate(0.957031 39.046875) scale(0.7)"/>
     <use xlink:href="#DejaVuSans-36" transform="translate(45.493164 39.046875) scale(0.7)"/>
     <use xlink:href="#DejaVuSans-53" transform="translate(92.763672 0.765625)"/>
     <use xlink:href="#DejaVuSans-65" transform="translate(156.240234 0.765625)"/>
    </g>
   </g>
   <g id="text_2">
    <!-- 0 -->
    <g transform="translate(46.98525 483.344545) scale(0.16 -0.16)">
     <defs>
      <path id="DejaVuSans-BoldOblique-30" d="M 1913 728 
Q 2153 728 2339 872 
Q 2525 1016 2650 1294 
Q 2738 1491 2809 1742 
Q 2881 1994 2944 2338 
Q 2997 2616 3025 2850 
Q 3053 3084 3053 3250 
Q 3053 3600 2928 3764 
Q 2803 3928 2541 3928 
Q 2297 3928 2112 3789 
Q 1928 3650 1806 3366 
Q 1713 3163 1636 2903 
Q 1559 2644 1503 2338 
Q 1450 2056 1422 1815 
Q 1394 1575 1394 1409 
Q 1394 1063 1522 895 
Q 1650 728 1913 728 
z
M 4225 3072 
Q 4225 2450 4053 1862 
Q 3881 1275 3572 831 
Q 3256 375 2809 142 
Q 2363 -91 1813 -91 
Q 1047 -91 639 343 
Q 231 778 231 1594 
Q 231 2206 401 2795 
Q 572 3384 878 3822 
Q 1200 4281 1644 4515 
Q 2088 4750 2644 4750 
Q 3403 4750 3814 4314 
Q 4225 3878 4225 3072 
z
" transform="scale(0.015625)"/>
     </defs>
     <use xlink:href="#DejaVuSans-BoldOblique-30"/>
    </g>
   </g>
   <g id="text_3">
    <!-- 0⁺ -->
    <g transform="translate(182.58336 484.08478) scale(0.23 -0.23)">
     <defs>
      <path id="TimesNewRomanPS-BoldMT-30" d="M 2966 2119 
Q 2966 1484 2788 934 
Q 2681 597 2501 381 
Q 2322 166 2094 39 
Q 1866 -88 1597 -88 
Q 1291 -88 1044 68 
Q 797 225 606 516 
Q 469 728 366 1081 
Q 231 1559 231 2069 
Q 231 2759 425 3338 
Q 584 3816 909 4070 
Q 1234 4325 1597 4325 
Q 1966 4325 2286 4073 
Q 2606 3822 2756 3397 
Q 2966 2813 2966 2119 
z
M 2003 2125 
Q 2003 3238 1991 3422 
Q 1959 3856 1841 4009 
Q 1763 4109 1588 4109 
Q 1453 4109 1375 4034 
Q 1259 3925 1218 3648 
Q 1178 3372 1178 1719 
Q 1178 819 1241 513 
Q 1288 291 1375 216 
Q 1463 141 1606 141 
Q 1763 141 1841 241 
Q 1972 416 1991 781 
L 2003 2125 
z
" transform="scale(0.015625)"/>
      <path id="DejaVuSerif-Bold-207a" d="M 1916 4344 
L 1916 3441 
L 2950 3441 
L 2950 3044 
L 1916 3044 
L 1916 2141 
L 1463 2141 
L 1463 3044 
L 428 3044 
L 428 3441 
L 1463 3441 
L 1463 4344 
L 1916 4344 
z
" transform="scale(0.015625)"/>
     </defs>
     <use xlink:href="#TimesNewRomanPS-BoldMT-30"/>
     <use xlink:href="#DejaVuSerif-Bold-207a" transform="translate(50 0)"/>
    </g>
   </g>
   <g id="text_4">
    <!-- 1180 -->
    <g transform="translate(13.58775 411.23332) scale(0.16 -0.16)">
     <defs>
      <path id="DejaVuSans-BoldOblique-31" d="M 441 831 
L 1503 831 
L 2088 3847 
L 953 3622 
L 1113 4441 
L 2241 4666 
L 3384 4666 
L 2644 831 
L 3700 831 
L 3541 0 
L 275 0 
L 441 831 
z
" transform="scale(0.015625)"/>
      <path id="DejaVuSans-BoldOblique-38" d="M 2150 2088 
Q 1784 2088 1539 1839 
Q 1294 1591 1294 1228 
Q 1294 969 1453 817 
Q 1613 666 1888 666 
Q 2259 666 2503 911 
Q 2747 1156 2747 1522 
Q 2747 1781 2586 1934 
Q 2425 2088 2150 2088 
z
M 1381 2484 
Q 1044 2625 876 2850 
Q 709 3075 709 3391 
Q 709 4025 1229 4387 
Q 1750 4750 2669 4750 
Q 3406 4750 3812 4475 
Q 4219 4200 4219 3700 
Q 4219 3256 3936 2940 
Q 3653 2625 3128 2484 
Q 3509 2338 3690 2091 
Q 3872 1844 3872 1466 
Q 3872 747 3311 328 
Q 2750 -91 1772 -91 
Q 1000 -91 570 217 
Q 141 525 141 1075 
Q 141 1572 470 1945 
Q 800 2319 1381 2484 
z
M 2559 3994 
Q 2241 3994 2048 3808 
Q 1856 3622 1856 3316 
Q 1856 3103 1995 2972 
Q 2134 2841 2363 2841 
Q 2681 2841 2873 3027 
Q 3066 3213 3066 3519 
Q 3066 3734 2927 3864 
Q 2788 3994 2559 3994 
z
" transform="scale(0.015625)"/>
     </defs>
     <use xlink:href="#DejaVuSans-BoldOblique-31"/>
     <use xlink:href="#DejaVuSans-BoldOblique-31" transform="translate(69.580078 0)"/>
     <use xlink:href="#DejaVuSans-BoldOblique-38" transform="translate(139.160156 0)"/>
     <use xlink:href="#DejaVuSans-BoldOblique-30" transform="translate(208.740234 0)"/>
    </g>
   </g>
   <g id="text_5">
    <!-- 2⁺ -->
    <g transform="translate(182.58336 411.973554) scale(0.23 -0.23)">
     <defs>
      <path id="TimesNewRomanPS-BoldMT-32" d="M 2650 0 
L 156 0 
L 156 69 
Q 1303 1434 1548 1906 
Q 1794 2378 1794 2828 
Q 1794 3156 1591 3373 
Q 1388 3591 1094 3591 
Q 613 3591 347 3109 
L 231 3150 
Q 400 3750 744 4037 
Q 1088 4325 1538 4325 
Q 1859 4325 2125 4175 
Q 2391 4025 2541 3764 
Q 2691 3503 2691 3275 
Q 2691 2859 2459 2431 
Q 2144 1853 1081 819 
L 1997 819 
Q 2334 819 2436 847 
Q 2538 875 2603 942 
Q 2669 1009 2775 1225 
L 2888 1225 
L 2650 0 
z
" transform="scale(0.015625)"/>
     </defs>
     <use xlink:href="#TimesNewRomanPS-BoldMT-32"/>
     <use xlink:href="#DejaVuSerif-Bold-207a" transform="translate(50 0)"/>
    </g>
   </g>
   <g id="text_6">
    <!-- 2762 -->
    <g transform="translate(13.58775 314.517529) scale(0.16 -0.16)">
     <defs>
      <path id="DejaVuSans-BoldOblique-32" d="M 1581 884 
L 3609 884 
L 3438 0 
L 50 0 
L 225 891 
L 2209 2388 
Q 2534 2638 2704 2894 
Q 2875 3150 2875 3391 
Q 2875 3647 2700 3787 
Q 2525 3928 2209 3928 
Q 1913 3928 1547 3811 
Q 1181 3694 722 3450 
L 922 4441 
Q 1347 4597 1756 4673 
Q 2166 4750 2566 4750 
Q 3278 4750 3687 4442 
Q 4097 4134 4097 3603 
Q 4097 3147 3847 2772 
Q 3597 2397 2747 1759 
L 1581 884 
z
" transform="scale(0.015625)"/>
      <path id="DejaVuSans-BoldOblique-37" d="M 922 4666 
L 4441 4666 
L 4300 3981 
L 1703 0 
L 500 0 
L 2969 3781 
L 756 3781 
L 922 4666 
z
" transform="scale(0.015625)"/>
      <path id="DejaVuSans-BoldOblique-36" d="M 2316 2303 
Q 1959 2303 1731 2009 
Q 1503 1716 1503 1253 
Q 1503 975 1643 820 
Q 1784 666 2034 666 
Q 2388 666 2617 955 
Q 2847 1244 2847 1684 
Q 2847 1984 2709 2143 
Q 2572 2303 2316 2303 
z
M 4225 4544 
L 4056 3681 
Q 3788 3819 3534 3887 
Q 3281 3956 3028 3956 
Q 2447 3956 2087 3643 
Q 1728 3331 1650 2766 
Q 1894 2925 2151 3001 
Q 2409 3078 2700 3078 
Q 3275 3078 3640 2737 
Q 4006 2397 4006 1869 
Q 4006 1006 3442 454 
Q 2878 -97 1991 -97 
Q 1194 -97 756 354 
Q 319 806 319 1631 
Q 319 2269 512 2848 
Q 706 3428 1056 3847 
Q 1431 4294 1942 4519 
Q 2453 4744 3091 4744 
Q 3384 4744 3662 4694 
Q 3941 4644 4225 4544 
z
" transform="scale(0.015625)"/>
     </defs>
     <use xlink:href="#DejaVuSans-BoldOblique-32"/>
     <use xlink:href="#DejaVuSans-BoldOblique-37" transform="translate(69.580078 0)"/>
     <use xlink:href="#DejaVuSans-BoldOblique-36" transform="translate(139.160156 0)"/>
     <use xlink:href="#DejaVuSans-BoldOblique-32" transform="translate(208.740234 0)"/>
    </g>
   </g>
   <g id="text_7">
    <!-- 4⁺ -->
    <g transform="translate(182.58336 315.257763) scale(0.23 -0.23)">
     <defs>
      <path id="TimesNewRomanPS-BoldMT-34" d="M 159 1597 
L 2172 4325 
L 2553 4325 
L 2553 1597 
L 2941 1597 
L 2941 950 
L 2553 950 
L 2553 0 
L 1694 0 
L 1694 950 
L 159 950 
L 159 1597 
z
M 463 1597 
L 1694 1597 
L 1694 3269 
L 463 1597 
z
" transform="scale(0.015625)"/>
     </defs>
     <use xlink:href="#TimesNewRomanPS-BoldMT-34"/>
     <use xlink:href="#DejaVuSerif-Bold-207a" transform="translate(50 0)"/>
    </g>
   </g>
   <g id="text_8">
    <!-- 4601 -->
    <g transform="translate(13.58775 202.104109) scale(0.16 -0.16)">
     <defs>
      <path id="DejaVuSans-BoldOblique-34" d="M 2638 3641 
L 978 1722 
L 2259 1722 
L 2638 3641 
z
M 2606 4666 
L 3975 4666 
L 3397 1722 
L 4063 1722 
L 3897 850 
L 3231 850 
L 3066 0 
L 1925 0 
L 2094 850 
L -6 850 
L 197 1881 
L 2606 4666 
z
" transform="scale(0.015625)"/>
     </defs>
     <use xlink:href="#DejaVuSans-BoldOblique-34"/>
     <use xlink:href="#DejaVuSans-BoldOblique-36" transform="translate(69.580078 0)"/>
     <use xlink:href="#DejaVuSans-BoldOblique-30" transform="translate(139.160156 0)"/>
     <use xlink:href="#DejaVuSans-BoldOblique-31" transform="translate(208.740234 0)"/>
    </g>
   </g>
   <g id="text_9">
    <!-- 6⁺ -->
    <g transform="translate(182.58336 202.844344) scale(0.23 -0.23)">
     <defs>
      <path id="TimesNewRomanPS-BoldMT-36" d="M 3006 4325 
L 3006 4238 
Q 2441 4094 2098 3867 
Q 1756 3641 1557 3317 
Q 1359 2994 1250 2516 
Q 1388 2609 1478 2638 
Q 1681 2700 1888 2700 
Q 2363 2700 2680 2354 
Q 2997 2009 2997 1413 
Q 2997 994 2825 644 
Q 2653 294 2337 103 
Q 2022 -88 1663 -88 
Q 1272 -88 940 126 
Q 609 341 423 753 
Q 238 1166 238 1650 
Q 238 2363 580 2977 
Q 922 3591 1551 3955 
Q 2181 4319 3006 4325 
z
M 1209 2263 
Q 1184 1831 1184 1631 
Q 1184 1200 1267 797 
Q 1350 394 1494 231 
Q 1597 116 1738 116 
Q 1881 116 1993 283 
Q 2106 450 2106 963 
Q 2106 1825 1897 2153 
Q 1763 2366 1534 2366 
Q 1409 2366 1209 2263 
z
" transform="scale(0.015625)"/>
     </defs>
     <use xlink:href="#TimesNewRomanPS-BoldMT-36"/>
     <use xlink:href="#DejaVuSerif-Bold-207a" transform="translate(50 0)"/>
    </g>
   </g>
   <g id="text_10">
    <!-- 1960 -->
    <g transform="translate(263.461892 363.532396) scale(0.16 -0.16)">
     <defs>
      <path id="DejaVuSans-BoldOblique-39" d="M 263 103 
L 428 966 
Q 700 825 953 758 
Q 1206 691 1459 691 
Q 2041 691 2400 1003 
Q 2759 1316 2834 1881 
Q 2594 1722 2337 1645 
Q 2081 1569 1791 1569 
Q 1219 1569 853 1909 
Q 488 2250 488 2778 
Q 488 3641 1052 4192 
Q 1616 4744 2503 4744 
Q 3300 4744 3736 4292 
Q 4172 3841 4172 3016 
Q 4172 2381 3978 1801 
Q 3784 1222 3431 800 
Q 3056 353 2548 128 
Q 2041 -97 1403 -97 
Q 1106 -97 825 -47 
Q 544 3 263 103 
z
M 2169 2344 
Q 2525 2344 2753 2637 
Q 2981 2931 2981 3391 
Q 2981 3675 2845 3828 
Q 2709 3981 2456 3981 
Q 2103 3981 1870 3690 
Q 1638 3400 1638 2963 
Q 1638 2663 1775 2503 
Q 1913 2344 2169 2344 
z
" transform="scale(0.015625)"/>
     </defs>
     <use xlink:href="#DejaVuSans-BoldOblique-31"/>
     <use xlink:href="#DejaVuSans-BoldOblique-39" transform="translate(69.580078 0)"/>
     <use xlink:href="#DejaVuSans-BoldOblique-36" transform="translate(139.160156 0)"/>
     <use xlink:href="#DejaVuSans-BoldOblique-30" transform="translate(208.740234 0)"/>
    </g>
   </g>
   <g id="text_11">
    <!-- 0⁺ -->
    <g transform="translate(432.457502 364.27263) scale(0.23 -0.23)">
     <use xlink:href="#TimesNewRomanPS-BoldMT-30"/>
     <use xlink:href="#DejaVuSerif-Bold-207a" transform="translate(50 0)"/>
    </g>
   </g>
   <g id="text_12">
    <!-- 3223 -->
    <g transform="translate(263.461892 286.331544) scale(0.16 -0.16)">
     <defs>
      <path id="DejaVuSans-BoldOblique-33" d="M 3022 2516 
Q 3375 2434 3572 2187 
Q 3769 1941 3769 1581 
Q 3769 806 3155 357 
Q 2541 -91 1466 -91 
Q 1059 -91 692 -33 
Q 325 25 0 141 
L 178 1069 
Q 456 906 784 817 
Q 1113 728 1441 728 
Q 1969 728 2276 926 
Q 2584 1125 2584 1459 
Q 2584 1738 2350 1877 
Q 2116 2016 1644 2016 
L 1166 2016 
L 1319 2791 
L 1825 2791 
Q 2316 2791 2602 2969 
Q 2888 3147 2888 3450 
Q 2888 3688 2689 3813 
Q 2491 3938 2113 3938 
Q 1847 3938 1534 3869 
Q 1222 3800 884 3669 
L 1056 4550 
Q 1425 4650 1783 4700 
Q 2141 4750 2491 4750 
Q 3281 4750 3679 4487 
Q 4078 4225 4078 3706 
Q 4078 3241 3801 2930 
Q 3525 2619 3022 2516 
z
" transform="scale(0.015625)"/>
     </defs>
     <use xlink:href="#DejaVuSans-BoldOblique-33"/>
     <use xlink:href="#DejaVuSans-BoldOblique-32" transform="translate(69.580078 0)"/>
     <use xlink:href="#DejaVuSans-BoldOblique-32" transform="translate(139.160156 0)"/>
     <use xlink:href="#DejaVuSans-BoldOblique-33" transform="translate(208.740234 0)"/>
    </g>
   </g>
   <g id="text_13">
    <!-- 2⁺ -->
    <g transform="translate(432.457502 287.071779) scale(0.23 -0.23)">
     <use xlink:href="#TimesNewRomanPS-BoldMT-32"/>
     <use xlink:href="#DejaVuSerif-Bold-207a" transform="translate(50 0)"/>
    </g>
   </g>
   <g id="text_14">
    <!-- 4857 -->
    <g transform="translate(263.461892 186.426898) scale(0.16 -0.16)">
     <defs>
      <path id="DejaVuSans-BoldOblique-35" d="M 1131 4666 
L 4122 4666 
L 3950 3781 
L 1919 3781 
L 1778 3059 
Q 1916 3097 2064 3117 
Q 2213 3138 2363 3138 
Q 3078 3138 3481 2811 
Q 3884 2484 3884 1906 
Q 3884 988 3262 448 
Q 2641 -91 1575 -91 
Q 1184 -91 815 -14 
Q 447 63 84 219 
L 269 1166 
Q 616 941 942 834 
Q 1269 728 1606 728 
Q 2100 728 2397 986 
Q 2694 1244 2694 1663 
Q 2694 1963 2469 2139 
Q 2244 2316 1856 2316 
Q 1594 2316 1289 2248 
Q 984 2181 622 2041 
L 1131 4666 
z
" transform="scale(0.015625)"/>
     </defs>
     <use xlink:href="#DejaVuSans-BoldOblique-34"/>
     <use xlink:href="#DejaVuSans-BoldOblique-38" transform="translate(69.580078 0)"/>
     <use xlink:href="#DejaVuSans-BoldOblique-35" transform="translate(139.160156 0)"/>
     <use xlink:href="#DejaVuSans-BoldOblique-37" transform="translate(208.740234 0)"/>
    </g>
   </g>
   <g id="text_15">
    <!-- 4⁺ -->
    <g transform="translate(432.457502 187.167132) scale(0.23 -0.23)">
     <use xlink:href="#TimesNewRomanPS-BoldMT-34"/>
     <use xlink:href="#DejaVuSerif-Bold-207a" transform="translate(50 0)"/>
    </g>
   </g>
   <g id="text_16">
    <!-- 6623 -->
    <g transform="translate(263.461892 78.489625) scale(0.16 -0.16)">
     <use xlink:href="#DejaVuSans-BoldOblique-36"/>
     <use xlink:href="#DejaVuSans-BoldOblique-36" transform="translate(69.580078 0)"/>
     <use xlink:href="#DejaVuSans-BoldOblique-32" transform="translate(139.160156 0)"/>
     <use xlink:href="#DejaVuSans-BoldOblique-33" transform="translate(208.740234 0)"/>
    </g>
   </g>
   <g id="text_17">
    <!-- 6⁺ -->
    <g transform="translate(432.457502 79.229859) scale(0.23 -0.23)">
     <use xlink:href="#TimesNewRomanPS-BoldMT-36"/>
     <use xlink:href="#DejaVuSerif-Bold-207a" transform="translate(50 0)"/>
    </g>
   </g>
   <g id="text_18">
    <!-- 2221 -->
    <g transform="translate(513.336034 347.576686) scale(0.16 -0.16)">
     <use xlink:href="#DejaVuSans-BoldOblique-32"/>
     <use xlink:href="#DejaVuSans-BoldOblique-32" transform="translate(69.580078 0)"/>
     <use xlink:href="#DejaVuSans-BoldOblique-32" transform="translate(139.160156 0)"/>
     <use xlink:href="#DejaVuSans-BoldOblique-31" transform="translate(208.740234 0)"/>
    </g>
   </g>
   <g id="text_19">
    <!-- 2⁺ -->
    <g transform="translate(682.331644 348.31692) scale(0.23 -0.23)">
     <use xlink:href="#TimesNewRomanPS-BoldMT-32"/>
     <use xlink:href="#DejaVuSerif-Bold-207a" transform="translate(50 0)"/>
    </g>
   </g>
   <g id="text_20">
    <!-- 3783 -->
    <g transform="translate(513.336034 252.117133) scale(0.16 -0.16)">
     <use xlink:href="#DejaVuSans-BoldOblique-33"/>
     <use xlink:href="#DejaVuSans-BoldOblique-37" transform="translate(69.580078 0)"/>
     <use xlink:href="#DejaVuSans-BoldOblique-38" transform="translate(139.160156 0)"/>
     <use xlink:href="#DejaVuSans-BoldOblique-33" transform="translate(208.740234 0)"/>
    </g>
   </g>
   <g id="text_21">
    <!-- 3⁺ -->
    <g transform="translate(682.331644 252.857367) scale(0.23 -0.23)">
     <defs>
      <path id="TimesNewRomanPS-BoldMT-33" d="M 947 2125 
L 947 2234 
Q 1303 2338 1440 2427 
Q 1578 2516 1678 2698 
Q 1778 2881 1778 3069 
Q 1778 3328 1589 3514 
Q 1400 3700 1119 3700 
Q 681 3700 375 3238 
L 259 3278 
Q 484 3800 836 4062 
Q 1188 4325 1619 4325 
Q 2059 4325 2345 4056 
Q 2631 3788 2631 3428 
Q 2631 3194 2498 2976 
Q 2366 2759 2081 2594 
Q 2447 2416 2639 2155 
Q 2831 1894 2831 1500 
Q 2831 838 2351 373 
Q 1872 -91 1066 -91 
Q 528 -91 281 88 
Q 103 213 103 409 
Q 103 553 206 654 
Q 309 756 444 756 
Q 547 756 638 713 
Q 688 688 992 439 
Q 1297 191 1563 191 
Q 1794 191 1959 373 
Q 2125 556 2125 838 
Q 2125 1266 1825 1627 
Q 1525 1988 947 2125 
z
" transform="scale(0.015625)"/>
     </defs>
     <use xlink:href="#TimesNewRomanPS-BoldMT-33"/>
     <use xlink:href="#DejaVuSerif-Bold-207a" transform="translate(50 0)"/>
    </g>
   </g>
   <g id="text_22">
    <path d="M 111.560555 435.647683 
L 111.560555 444.312683 
Q 111.560555 445.287683 111.645555 445.557683 
Q 111.733055 445.827683 112.005555 446.000183 
Q 112.280555 446.170183 112.883055 446.170183 
L 113.123055 446.170183 
L 113.123055 446.460183 
L 107.545555 446.460183 
L 107.545555 446.170183 
L 107.828055 446.170183 
Q 108.508055 446.170183 108.795555 446.015183 
Q 109.085555 445.857683 109.185555 445.585183 
Q 109.288055 445.312683 109.288055 444.312683 
L 109.288055 438.820183 
Q 109.288055 438.085183 109.218055 437.902683 
Q 109.148055 437.717683 108.955555 437.590183 
Q 108.765555 437.460183 108.515555 437.460183 
Q 108.115555 437.460183 107.545555 437.710183 
L 107.405555 437.427683 
L 111.303055 435.647683 
L 111.560555 435.647683 
z
M 114.748055 442.467683 
L 119.780555 435.647683 
L 120.733055 435.647683 
L 120.733055 442.467683 
L 121.703055 442.467683 
L 121.703055 444.085183 
L 120.733055 444.085183 
L 120.733055 446.460183 
L 118.585555 446.460183 
L 118.585555 444.085183 
L 114.748055 444.085183 
L 114.748055 442.467683 
z
M 115.508055 442.467683 
L 118.585555 442.467683 
L 118.585555 438.287683 
L 115.508055 442.467683 
z
M 124.350555 444.052683 
Q 124.898055 444.052683 125.275555 444.437683 
Q 125.655555 444.820183 125.655555 445.357683 
Q 125.655555 445.897683 125.273055 446.277683 
Q 124.890555 446.655183 124.350555 446.655183 
Q 123.810555 446.655183 123.430555 446.277683 
Q 123.053055 445.897683 123.053055 445.357683 
Q 123.053055 444.820183 123.430555 444.437683 
Q 123.810555 444.052683 124.350555 444.052683 
z
M 128.788055 435.865183 
L 133.748055 435.865183 
L 132.960555 437.882683 
L 128.788055 437.882683 
L 128.390555 438.937683 
Q 131.085555 439.037683 132.538055 440.280183 
Q 133.733055 441.302683 133.733055 442.827683 
Q 133.733055 443.802683 133.178055 444.737683 
Q 132.623055 445.670183 131.615555 446.175183 
Q 130.608055 446.680183 129.405555 446.680183 
Q 128.108055 446.680183 127.413055 446.195183 
Q 126.928055 445.850183 126.928055 445.412683 
Q 126.928055 445.077683 127.180555 444.820183 
Q 127.435555 444.562683 127.773055 444.562683 
Q 128.078055 444.562683 128.390555 444.687683 
Q 128.703055 444.812683 129.460555 445.342683 
Q 129.935555 445.670183 130.280555 445.795183 
Q 130.523055 445.890183 130.828055 445.890183 
Q 131.468055 445.890183 131.915555 445.422683 
Q 132.365555 444.952683 132.365555 444.295183 
Q 132.365555 442.920183 130.990555 442.062683 
Q 129.615555 441.202683 127.523055 441.202683 
Q 127.310555 441.202683 126.890555 441.210183 
L 128.788055 435.865183 
z
" style="stroke: #ffffff; stroke-width: 3.8"/>
    <path d="M 111.560555 435.647683 
L 111.560555 444.312683 
Q 111.560555 445.287683 111.645555 445.557683 
Q 111.733055 445.827683 112.005555 446.000183 
Q 112.280555 446.170183 112.883055 446.170183 
L 113.123055 446.170183 
L 113.123055 446.460183 
L 107.545555 446.460183 
L 107.545555 446.170183 
L 107.828055 446.170183 
Q 108.508055 446.170183 108.795555 446.015183 
Q 109.085555 445.857683 109.185555 445.585183 
Q 109.288055 445.312683 109.288055 444.312683 
L 109.288055 438.820183 
Q 109.288055 438.085183 109.218055 437.902683 
Q 109.148055 437.717683 108.955555 437.590183 
Q 108.765555 437.460183 108.515555 437.460183 
Q 108.115555 437.460183 107.545555 437.710183 
L 107.405555 437.427683 
L 111.303055 435.647683 
L 111.560555 435.647683 
z
M 114.748055 442.467683 
L 119.780555 435.647683 
L 120.733055 435.647683 
L 120.733055 442.467683 
L 121.703055 442.467683 
L 121.703055 444.085183 
L 120.733055 444.085183 
L 120.733055 446.460183 
L 118.585555 446.460183 
L 118.585555 444.085183 
L 114.748055 444.085183 
L 114.748055 442.467683 
z
M 115.508055 442.467683 
L 118.585555 442.467683 
L 118.585555 438.287683 
L 115.508055 442.467683 
z
M 124.350555 444.052683 
Q 124.898055 444.052683 125.275555 444.437683 
Q 125.655555 444.820183 125.655555 445.357683 
Q 125.655555 445.897683 125.273055 446.277683 
Q 124.890555 446.655183 124.350555 446.655183 
Q 123.810555 446.655183 123.430555 446.277683 
Q 123.053055 445.897683 123.053055 445.357683 
Q 123.053055 444.820183 123.430555 444.437683 
Q 123.810555 444.052683 124.350555 444.052683 
z
M 128.788055 435.865183 
L 133.748055 435.865183 
L 132.960555 437.882683 
L 128.788055 437.882683 
L 128.390555 438.937683 
Q 131.085555 439.037683 132.538055 440.280183 
Q 133.733055 441.302683 133.733055 442.827683 
Q 133.733055 443.802683 133.178055 444.737683 
Q 132.623055 445.670183 131.615555 446.175183 
Q 130.608055 446.680183 129.405555 446.680183 
Q 128.108055 446.680183 127.413055 446.195183 
Q 126.928055 445.850183 126.928055 445.412683 
Q 126.928055 445.077683 127.180555 444.820183 
Q 127.435555 444.562683 127.773055 444.562683 
Q 128.078055 444.562683 128.390555 444.687683 
Q 128.703055 444.812683 129.460555 445.342683 
Q 129.935555 445.670183 130.280555 445.795183 
Q 130.523055 445.890183 130.828055 445.890183 
Q 131.468055 445.890183 131.915555 445.422683 
Q 132.365555 444.952683 132.365555 444.295183 
Q 132.365555 442.920183 130.990555 442.062683 
Q 129.615555 441.202683 127.523055 441.202683 
Q 127.310555 441.202683 126.890555 441.210183 
L 128.788055 435.865183 
z
"/>
   </g>
   <g id="text_23">
    <path d="M 112.975555 362.046674 
L 106.740555 362.046674 
L 106.740555 361.874174 
Q 109.608055 358.461674 110.220555 357.281674 
Q 110.835555 356.101674 110.835555 354.976674 
Q 110.835555 354.156674 110.328055 353.614174 
Q 109.820555 353.069174 109.085555 353.069174 
Q 107.883055 353.069174 107.218055 354.274174 
L 106.928055 354.171674 
Q 107.350555 352.671674 108.210555 351.954174 
Q 109.070555 351.234174 110.195555 351.234174 
Q 110.998055 351.234174 111.663055 351.609174 
Q 112.328055 351.984174 112.703055 352.636674 
Q 113.078055 353.289174 113.078055 353.859174 
Q 113.078055 354.899174 112.498055 355.969174 
Q 111.710555 357.414174 109.053055 359.999174 
L 111.343055 359.999174 
Q 112.185555 359.999174 112.440555 359.929174 
Q 112.695555 359.859174 112.858055 359.691674 
Q 113.023055 359.524174 113.288055 358.984174 
L 113.570555 358.984174 
L 112.975555 362.046674 
z
M 121.865555 351.234174 
L 121.865555 351.451674 
Q 120.453055 351.811674 119.595555 352.379174 
Q 118.740555 352.944174 118.243055 353.754174 
Q 117.748055 354.561674 117.475555 355.756674 
Q 117.820555 355.524174 118.045555 355.451674 
Q 118.553055 355.296674 119.070555 355.296674 
Q 120.258055 355.296674 121.050555 356.161674 
Q 121.843055 357.024174 121.843055 358.514174 
Q 121.843055 359.561674 121.413055 360.436674 
Q 120.983055 361.311674 120.193055 361.789174 
Q 119.405555 362.266674 118.508055 362.266674 
Q 117.530555 362.266674 116.700555 361.731674 
Q 115.873055 361.194174 115.408055 360.164174 
Q 114.945555 359.131674 114.945555 357.921674 
Q 114.945555 356.139174 115.800555 354.604174 
Q 116.655555 353.069174 118.228055 352.159174 
Q 119.803055 351.249174 121.865555 351.234174 
z
M 117.373055 356.389174 
Q 117.310555 357.469174 117.310555 357.969174 
Q 117.310555 359.046674 117.518055 360.054174 
Q 117.725555 361.061674 118.085555 361.469174 
Q 118.343055 361.756674 118.695555 361.756674 
Q 119.053055 361.756674 119.333055 361.339174 
Q 119.615555 360.921674 119.615555 359.639174 
Q 119.615555 357.484174 119.093055 356.664174 
Q 118.758055 356.131674 118.185555 356.131674 
Q 117.873055 356.131674 117.373055 356.389174 
z
M 124.350555 359.639174 
Q 124.898055 359.639174 125.275555 360.024174 
Q 125.655555 360.406674 125.655555 360.944174 
Q 125.655555 361.484174 125.273055 361.864174 
Q 124.890555 362.241674 124.350555 362.241674 
Q 123.810555 362.241674 123.430555 361.864174 
Q 123.053055 361.484174 123.053055 360.944174 
Q 123.053055 360.406674 123.430555 360.024174 
Q 123.810555 359.639174 124.350555 359.639174 
z
M 131.803055 356.061674 
Q 132.920555 356.881674 133.353055 357.589174 
Q 133.788055 358.296674 133.788055 359.211674 
Q 133.788055 360.491674 132.823055 361.379174 
Q 131.858055 362.266674 130.203055 362.266674 
Q 128.633055 362.266674 127.773055 361.494174 
Q 126.913055 360.719174 126.913055 359.601674 
Q 126.913055 358.749174 127.408055 358.109174 
Q 127.905555 357.469174 129.060555 356.936674 
Q 127.803055 355.976674 127.448055 355.366674 
Q 127.093055 354.756674 127.093055 353.951674 
Q 127.093055 352.889174 127.995555 352.081674 
Q 128.898055 351.274174 130.468055 351.274174 
Q 131.983055 351.274174 132.798055 351.989174 
Q 133.615555 352.701674 133.615555 353.701674 
Q 133.615555 354.451674 133.173055 355.026674 
Q 132.733055 355.601674 131.803055 356.061674 
z
M 131.210555 355.664174 
Q 131.498055 355.274174 131.638055 354.789174 
Q 131.780555 354.304174 131.780555 353.726674 
Q 131.780555 352.711674 131.343055 352.171674 
Q 131.015555 351.756674 130.435555 351.756674 
Q 129.913055 351.756674 129.545555 352.136674 
Q 129.178055 352.514174 129.178055 353.076674 
Q 129.178055 353.649174 129.588055 354.261674 
Q 129.998055 354.874174 131.210555 355.664174 
z
M 129.648055 357.311674 
Q 129.405555 357.531674 129.303055 357.711674 
Q 129.148055 357.984174 129.023055 358.509174 
Q 128.898055 359.031674 128.898055 359.601674 
Q 128.898055 360.336674 129.085555 360.831674 
Q 129.273055 361.326674 129.620555 361.546674 
Q 129.968055 361.764174 130.335555 361.764174 
Q 130.905555 361.764174 131.295555 361.346674 
Q 131.685555 360.929174 131.685555 360.201674 
Q 131.685555 358.686674 129.648055 357.311674 
z
" style="stroke: #ffffff; stroke-width: 3.8"/>
    <path d="M 112.975555 362.046674 
L 106.740555 362.046674 
L 106.740555 361.874174 
Q 109.608055 358.461674 110.220555 357.281674 
Q 110.835555 356.101674 110.835555 354.976674 
Q 110.835555 354.156674 110.328055 353.614174 
Q 109.820555 353.069174 109.085555 353.069174 
Q 107.883055 353.069174 107.218055 354.274174 
L 106.928055 354.171674 
Q 107.350555 352.671674 108.210555 351.954174 
Q 109.070555 351.234174 110.195555 351.234174 
Q 110.998055 351.234174 111.663055 351.609174 
Q 112.328055 351.984174 112.703055 352.636674 
Q 113.078055 353.289174 113.078055 353.859174 
Q 113.078055 354.899174 112.498055 355.969174 
Q 111.710555 357.414174 109.053055 359.999174 
L 111.343055 359.999174 
Q 112.185555 359.999174 112.440555 359.929174 
Q 112.695555 359.859174 112.858055 359.691674 
Q 113.023055 359.524174 113.288055 358.984174 
L 113.570555 358.984174 
L 112.975555 362.046674 
z
M 121.865555 351.234174 
L 121.865555 351.451674 
Q 120.453055 351.811674 119.595555 352.379174 
Q 118.740555 352.944174 118.243055 353.754174 
Q 117.748055 354.561674 117.475555 355.756674 
Q 117.820555 355.524174 118.045555 355.451674 
Q 118.553055 355.296674 119.070555 355.296674 
Q 120.258055 355.296674 121.050555 356.161674 
Q 121.843055 357.024174 121.843055 358.514174 
Q 121.843055 359.561674 121.413055 360.436674 
Q 120.983055 361.311674 120.193055 361.789174 
Q 119.405555 362.266674 118.508055 362.266674 
Q 117.530555 362.266674 116.700555 361.731674 
Q 115.873055 361.194174 115.408055 360.164174 
Q 114.945555 359.131674 114.945555 357.921674 
Q 114.945555 356.139174 115.800555 354.604174 
Q 116.655555 353.069174 118.228055 352.159174 
Q 119.803055 351.249174 121.865555 351.234174 
z
M 117.373055 356.389174 
Q 117.310555 357.469174 117.310555 357.969174 
Q 117.310555 359.046674 117.518055 360.054174 
Q 117.725555 361.061674 118.085555 361.469174 
Q 118.343055 361.756674 118.695555 361.756674 
Q 119.053055 361.756674 119.333055 361.339174 
Q 119.615555 360.921674 119.615555 359.639174 
Q 119.615555 357.484174 119.093055 356.664174 
Q 118.758055 356.131674 118.185555 356.131674 
Q 117.873055 356.131674 117.373055 356.389174 
z
M 124.350555 359.639174 
Q 124.898055 359.639174 125.275555 360.024174 
Q 125.655555 360.406674 125.655555 360.944174 
Q 125.655555 361.484174 125.273055 361.864174 
Q 124.890555 362.241674 124.350555 362.241674 
Q 123.810555 362.241674 123.430555 361.864174 
Q 123.053055 361.484174 123.053055 360.944174 
Q 123.053055 360.406674 123.430555 360.024174 
Q 123.810555 359.639174 124.350555 359.639174 
z
M 131.803055 356.061674 
Q 132.920555 356.881674 133.353055 357.589174 
Q 133.788055 358.296674 133.788055 359.211674 
Q 133.788055 360.491674 132.823055 361.379174 
Q 131.858055 362.266674 130.203055 362.266674 
Q 128.633055 362.266674 127.773055 361.494174 
Q 126.913055 360.719174 126.913055 359.601674 
Q 126.913055 358.749174 127.408055 358.109174 
Q 127.905555 357.469174 129.060555 356.936674 
Q 127.803055 355.976674 127.448055 355.366674 
Q 127.093055 354.756674 127.093055 353.951674 
Q 127.093055 352.889174 127.995555 352.081674 
Q 128.898055 351.274174 130.468055 351.274174 
Q 131.983055 351.274174 132.798055 351.989174 
Q 133.615555 352.701674 133.615555 353.701674 
Q 133.615555 354.451674 133.173055 355.026674 
Q 132.733055 355.601674 131.803055 356.061674 
z
M 131.210555 355.664174 
Q 131.498055 355.274174 131.638055 354.789174 
Q 131.780555 354.304174 131.780555 353.726674 
Q 131.780555 352.711674 131.343055 352.171674 
Q 131.015555 351.756674 130.435555 351.756674 
Q 129.913055 351.756674 129.545555 352.136674 
Q 129.178055 352.514174 129.178055 353.076674 
Q 129.178055 353.649174 129.588055 354.261674 
Q 129.998055 354.874174 131.210555 355.664174 
z
M 129.648055 357.311674 
Q 129.405555 357.531674 129.303055 357.711674 
Q 129.148055 357.984174 129.023055 358.509174 
Q 128.898055 359.031674 128.898055 359.601674 
Q 128.898055 360.336674 129.085555 360.831674 
Q 129.273055 361.326674 129.620555 361.546674 
Q 129.968055 361.764174 130.335555 361.764174 
Q 130.905555 361.764174 131.295555 361.346674 
Q 131.685555 360.929174 131.685555 360.201674 
Q 131.685555 358.686674 129.648055 357.311674 
z
"/>
   </g>
   <g id="text_24">
    <path d="M 106.748055 253.489569 
L 111.780555 246.669569 
L 112.733055 246.669569 
L 112.733055 253.489569 
L 113.703055 253.489569 
L 113.703055 255.107069 
L 112.733055 255.107069 
L 112.733055 257.482069 
L 110.585555 257.482069 
L 110.585555 255.107069 
L 106.748055 255.107069 
L 106.748055 253.489569 
z
M 107.508055 253.489569 
L 110.585555 253.489569 
L 110.585555 249.309569 
L 107.508055 253.489569 
z
M 121.765555 252.184569 
Q 121.765555 253.772069 121.320555 255.147069 
Q 121.053055 255.989569 120.603055 256.529569 
Q 120.155555 257.067069 119.585555 257.384569 
Q 119.015555 257.702069 118.343055 257.702069 
Q 117.578055 257.702069 116.960555 257.312069 
Q 116.343055 256.919569 115.865555 256.192069 
Q 115.523055 255.662069 115.265555 254.779569 
Q 114.928055 253.584569 114.928055 252.309569 
Q 114.928055 250.584569 115.413055 249.137069 
Q 115.810555 247.942069 116.623055 247.307069 
Q 117.435555 246.669569 118.343055 246.669569 
Q 119.265555 246.669569 120.065555 247.299569 
Q 120.865555 247.927069 121.240555 248.989569 
Q 121.765555 250.449569 121.765555 252.184569 
z
M 119.358055 252.169569 
Q 119.358055 249.387069 119.328055 248.927069 
Q 119.248055 247.842069 118.953055 247.459569 
Q 118.758055 247.209569 118.320555 247.209569 
Q 117.983055 247.209569 117.788055 247.397069 
Q 117.498055 247.669569 117.395555 248.362069 
Q 117.295555 249.052069 117.295555 253.184569 
Q 117.295555 255.434569 117.453055 256.199569 
Q 117.570555 256.754569 117.788055 256.942069 
Q 118.008055 257.129569 118.365555 257.129569 
Q 118.758055 257.129569 118.953055 256.879569 
Q 119.280555 256.442069 119.328055 255.529569 
L 119.358055 252.169569 
z
M 124.350555 255.074569 
Q 124.898055 255.074569 125.275555 255.459569 
Q 125.655555 255.842069 125.655555 256.379569 
Q 125.655555 256.919569 125.273055 257.299569 
Q 124.890555 257.677069 124.350555 257.677069 
Q 123.810555 257.677069 123.430555 257.299569 
Q 123.053055 256.919569 123.053055 256.379569 
Q 123.053055 255.842069 123.430555 255.459569 
Q 123.810555 255.074569 124.350555 255.074569 
z
M 131.803055 251.497069 
Q 132.920555 252.317069 133.353055 253.024569 
Q 133.788055 253.732069 133.788055 254.647069 
Q 133.788055 255.927069 132.823055 256.814569 
Q 131.858055 257.702069 130.203055 257.702069 
Q 128.633055 257.702069 127.773055 256.929569 
Q 126.913055 256.154569 126.913055 255.037069 
Q 126.913055 254.184569 127.408055 253.544569 
Q 127.905555 252.904569 129.060555 252.372069 
Q 127.803055 251.412069 127.448055 250.802069 
Q 127.093055 250.192069 127.093055 249.387069 
Q 127.093055 248.324569 127.995555 247.517069 
Q 128.898055 246.709569 130.468055 246.709569 
Q 131.983055 246.709569 132.798055 247.424569 
Q 133.615555 248.137069 133.615555 249.137069 
Q 133.615555 249.887069 133.173055 250.462069 
Q 132.733055 251.037069 131.803055 251.497069 
z
M 131.210555 251.099569 
Q 131.498055 250.709569 131.638055 250.224569 
Q 131.780555 249.739569 131.780555 249.162069 
Q 131.780555 248.147069 131.343055 247.607069 
Q 131.015555 247.192069 130.435555 247.192069 
Q 129.913055 247.192069 129.545555 247.572069 
Q 129.178055 247.949569 129.178055 248.512069 
Q 129.178055 249.084569 129.588055 249.697069 
Q 129.998055 250.309569 131.210555 251.099569 
z
M 129.648055 252.747069 
Q 129.405555 252.967069 129.303055 253.147069 
Q 129.148055 253.419569 129.023055 253.944569 
Q 128.898055 254.467069 128.898055 255.037069 
Q 128.898055 255.772069 129.085555 256.267069 
Q 129.273055 256.762069 129.620555 256.982069 
Q 129.968055 257.199569 130.335555 257.199569 
Q 130.905555 257.199569 131.295555 256.782069 
Q 131.685555 256.364569 131.685555 255.637069 
Q 131.685555 254.122069 129.648055 252.747069 
z
" style="stroke: #ffffff; stroke-width: 3.8"/>
    <path d="M 106.748055 253.489569 
L 111.780555 246.669569 
L 112.733055 246.669569 
L 112.733055 253.489569 
L 113.703055 253.489569 
L 113.703055 255.107069 
L 112.733055 255.107069 
L 112.733055 257.482069 
L 110.585555 257.482069 
L 110.585555 255.107069 
L 106.748055 255.107069 
L 106.748055 253.489569 
z
M 107.508055 253.489569 
L 110.585555 253.489569 
L 110.585555 249.309569 
L 107.508055 253.489569 
z
M 121.765555 252.184569 
Q 121.765555 253.772069 121.320555 255.147069 
Q 121.053055 255.989569 120.603055 256.529569 
Q 120.155555 257.067069 119.585555 257.384569 
Q 119.015555 257.702069 118.343055 257.702069 
Q 117.578055 257.702069 116.960555 257.312069 
Q 116.343055 256.919569 115.865555 256.192069 
Q 115.523055 255.662069 115.265555 254.779569 
Q 114.928055 253.584569 114.928055 252.309569 
Q 114.928055 250.584569 115.413055 249.137069 
Q 115.810555 247.942069 116.623055 247.307069 
Q 117.435555 246.669569 118.343055 246.669569 
Q 119.265555 246.669569 120.065555 247.299569 
Q 120.865555 247.927069 121.240555 248.989569 
Q 121.765555 250.449569 121.765555 252.184569 
z
M 119.358055 252.169569 
Q 119.358055 249.387069 119.328055 248.927069 
Q 119.248055 247.842069 118.953055 247.459569 
Q 118.758055 247.209569 118.320555 247.209569 
Q 117.983055 247.209569 117.788055 247.397069 
Q 117.498055 247.669569 117.395555 248.362069 
Q 117.295555 249.052069 117.295555 253.184569 
Q 117.295555 255.434569 117.453055 256.199569 
Q 117.570555 256.754569 117.788055 256.942069 
Q 118.008055 257.129569 118.365555 257.129569 
Q 118.758055 257.129569 118.953055 256.879569 
Q 119.280555 256.442069 119.328055 255.529569 
L 119.358055 252.169569 
z
M 124.350555 255.074569 
Q 124.898055 255.074569 125.275555 255.459569 
Q 125.655555 255.842069 125.655555 256.379569 
Q 125.655555 256.919569 125.273055 257.299569 
Q 124.890555 257.677069 124.350555 257.677069 
Q 123.810555 257.677069 123.430555 257.299569 
Q 123.053055 256.919569 123.053055 256.379569 
Q 123.053055 255.842069 123.430555 255.459569 
Q 123.810555 255.074569 124.350555 255.074569 
z
M 131.803055 251.497069 
Q 132.920555 252.317069 133.353055 253.024569 
Q 133.788055 253.732069 133.788055 254.647069 
Q 133.788055 255.927069 132.823055 256.814569 
Q 131.858055 257.702069 130.203055 257.702069 
Q 128.633055 257.702069 127.773055 256.929569 
Q 126.913055 256.154569 126.913055 255.037069 
Q 126.913055 254.184569 127.408055 253.544569 
Q 127.905555 252.904569 129.060555 252.372069 
Q 127.803055 251.412069 127.448055 250.802069 
Q 127.093055 250.192069 127.093055 249.387069 
Q 127.093055 248.324569 127.995555 247.517069 
Q 128.898055 246.709569 130.468055 246.709569 
Q 131.983055 246.709569 132.798055 247.424569 
Q 133.615555 248.137069 133.615555 249.137069 
Q 133.615555 249.887069 133.173055 250.462069 
Q 132.733055 251.037069 131.803055 251.497069 
z
M 131.210555 251.099569 
Q 131.498055 250.709569 131.638055 250.224569 
Q 131.780555 249.739569 131.780555 249.162069 
Q 131.780555 248.147069 131.343055 247.607069 
Q 131.015555 247.192069 130.435555 247.192069 
Q 129.913055 247.192069 129.545555 247.572069 
Q 129.178055 247.949569 129.178055 248.512069 
Q 129.178055 249.084569 129.588055 249.697069 
Q 129.998055 250.309569 131.210555 251.099569 
z
M 129.648055 252.747069 
Q 129.405555 252.967069 129.303055 253.147069 
Q 129.148055 253.419569 129.023055 253.944569 
Q 128.898055 254.467069 128.898055 255.037069 
Q 128.898055 255.772069 129.085555 256.267069 
Q 129.273055 256.762069 129.620555 256.982069 
Q 129.968055 257.199569 130.335555 257.199569 
Q 130.905555 257.199569 131.295555 256.782069 
Q 131.685555 256.364569 131.685555 255.637069 
Q 131.685555 254.122069 129.648055 252.747069 
z
"/>
   </g>
   <g id="text_25">
    <path d="M 361.434697 313.29072 
L 361.434697 321.95572 
Q 361.434697 322.93072 361.519697 323.20072 
Q 361.607197 323.47072 361.879697 323.64322 
Q 362.154697 323.81322 362.757197 323.81322 
L 362.997197 323.81322 
L 362.997197 324.10322 
L 357.419697 324.10322 
L 357.419697 323.81322 
L 357.702197 323.81322 
Q 358.382197 323.81322 358.669697 323.65822 
Q 358.959697 323.50072 359.059697 323.22822 
Q 359.162197 322.95572 359.162197 321.95572 
L 359.162197 316.46322 
Q 359.162197 315.72822 359.092197 315.54572 
Q 359.022197 315.36072 358.829697 315.23322 
Q 358.639697 315.10322 358.389697 315.10322 
Q 357.989697 315.10322 357.419697 315.35322 
L 357.279697 315.07072 
L 361.177197 313.29072 
L 361.434697 313.29072 
z
M 367.059697 324.32322 
L 369.944697 315.58072 
L 367.747197 315.58072 
Q 366.459697 315.58072 365.809697 315.91572 
Q 365.357197 316.15072 365.059697 316.79822 
L 364.764697 316.79822 
L 365.529697 313.50822 
L 371.842197 313.50822 
L 368.287197 324.32322 
L 367.059697 324.32322 
z
M 374.224697 321.69572 
Q 374.772197 321.69572 375.149697 322.08072 
Q 375.529697 322.46322 375.529697 323.00072 
Q 375.529697 323.54072 375.147197 323.92072 
Q 374.764697 324.29822 374.224697 324.29822 
Q 373.684697 324.29822 373.304697 323.92072 
Q 372.927197 323.54072 372.927197 323.00072 
Q 372.927197 322.46322 373.304697 322.08072 
Q 373.684697 321.69572 374.224697 321.69572 
z
M 382.849697 324.10322 
L 376.614697 324.10322 
L 376.614697 323.93072 
Q 379.482197 320.51822 380.094697 319.33822 
Q 380.709697 318.15822 380.709697 317.03322 
Q 380.709697 316.21322 380.202197 315.67072 
Q 379.694697 315.12572 378.959697 315.12572 
Q 377.757197 315.12572 377.092197 316.33072 
L 376.802197 316.22822 
Q 377.224697 314.72822 378.084697 314.01072 
Q 378.944697 313.29072 380.069697 313.29072 
Q 380.872197 313.29072 381.537197 313.66572 
Q 382.202197 314.04072 382.577197 314.69322 
Q 382.952197 315.34572 382.952197 315.91572 
Q 382.952197 316.95572 382.372197 318.02572 
Q 381.584697 319.47072 378.927197 322.05572 
L 381.217197 322.05572 
Q 382.059697 322.05572 382.314697 321.98572 
Q 382.569697 321.91572 382.732197 321.74822 
Q 382.897197 321.58072 383.162197 321.04072 
L 383.444697 321.04072 
L 382.849697 324.10322 
z
" style="stroke: #ffffff; stroke-width: 3.8"/>
    <path d="M 361.434697 313.29072 
L 361.434697 321.95572 
Q 361.434697 322.93072 361.519697 323.20072 
Q 361.607197 323.47072 361.879697 323.64322 
Q 362.154697 323.81322 362.757197 323.81322 
L 362.997197 323.81322 
L 362.997197 324.10322 
L 357.419697 324.10322 
L 357.419697 323.81322 
L 357.702197 323.81322 
Q 358.382197 323.81322 358.669697 323.65822 
Q 358.959697 323.50072 359.059697 323.22822 
Q 359.162197 322.95572 359.162197 321.95572 
L 359.162197 316.46322 
Q 359.162197 315.72822 359.092197 315.54572 
Q 359.022197 315.36072 358.829697 315.23322 
Q 358.639697 315.10322 358.389697 315.10322 
Q 357.989697 315.10322 357.419697 315.35322 
L 357.279697 315.07072 
L 361.177197 313.29072 
L 361.434697 313.29072 
z
M 367.059697 324.32322 
L 369.944697 315.58072 
L 367.747197 315.58072 
Q 366.459697 315.58072 365.809697 315.91572 
Q 365.357197 316.15072 365.059697 316.79822 
L 364.764697 316.79822 
L 365.529697 313.50822 
L 371.842197 313.50822 
L 368.287197 324.32322 
L 367.059697 324.32322 
z
M 374.224697 321.69572 
Q 374.772197 321.69572 375.149697 322.08072 
Q 375.529697 322.46322 375.529697 323.00072 
Q 375.529697 323.54072 375.147197 323.92072 
Q 374.764697 324.29822 374.224697 324.29822 
Q 373.684697 324.29822 373.304697 323.92072 
Q 372.927197 323.54072 372.927197 323.00072 
Q 372.927197 322.46322 373.304697 322.08072 
Q 373.684697 321.69572 374.224697 321.69572 
z
M 382.849697 324.10322 
L 376.614697 324.10322 
L 376.614697 323.93072 
Q 379.482197 320.51822 380.094697 319.33822 
Q 380.709697 318.15822 380.709697 317.03322 
Q 380.709697 316.21322 380.202197 315.67072 
Q 379.694697 315.12572 378.959697 315.12572 
Q 377.757197 315.12572 377.092197 316.33072 
L 376.802197 316.22822 
Q 377.224697 314.72822 378.084697 314.01072 
Q 378.944697 313.29072 380.069697 313.29072 
Q 380.872197 313.29072 381.537197 313.66572 
Q 382.202197 314.04072 382.577197 314.69322 
Q 382.952197 315.34572 382.952197 315.91572 
Q 382.952197 316.95572 382.372197 318.02572 
Q 381.584697 319.47072 378.927197 322.05572 
L 381.217197 322.05572 
Q 382.059697 322.05572 382.314697 321.98572 
Q 382.569697 321.91572 382.732197 321.74822 
Q 382.897197 321.58072 383.162197 321.04072 
L 383.444697 321.04072 
L 382.849697 324.10322 
z
"/>
   </g>
   <g id="text_26">
    <path d="M 362.849697 235.550471 
L 356.614697 235.550471 
L 356.614697 235.377971 
Q 359.482197 231.965471 360.094697 230.785471 
Q 360.709697 229.605471 360.709697 228.480471 
Q 360.709697 227.660471 360.202197 227.117971 
Q 359.694697 226.572971 358.959697 226.572971 
Q 357.757197 226.572971 357.092197 227.777971 
L 356.802197 227.675471 
Q 357.224697 226.175471 358.084697 225.457971 
Q 358.944697 224.737971 360.069697 224.737971 
Q 360.872197 224.737971 361.537197 225.112971 
Q 362.202197 225.487971 362.577197 226.140471 
Q 362.952197 226.792971 362.952197 227.362971 
Q 362.952197 228.402971 362.372197 229.472971 
Q 361.584697 230.917971 358.927197 233.502971 
L 361.217197 233.502971 
Q 362.059697 233.502971 362.314697 233.432971 
Q 362.569697 233.362971 362.732197 233.195471 
Q 362.897197 233.027971 363.162197 232.487971 
L 363.444697 232.487971 
L 362.849697 235.550471 
z
M 364.717197 235.770471 
L 364.717197 235.550471 
Q 366.014697 235.252971 366.917197 234.675471 
Q 367.819697 234.097971 368.344697 233.245471 
Q 368.872197 232.392971 369.084697 231.285471 
Q 368.599697 231.535471 368.259697 231.632971 
Q 367.919697 231.730471 367.544697 231.730471 
Q 366.342197 231.730471 365.539697 230.862971 
Q 364.739697 229.995471 364.739697 228.487971 
Q 364.739697 227.440471 365.172197 226.570471 
Q 365.607197 225.697971 366.412197 225.217971 
Q 367.217197 224.737971 368.084697 224.737971 
Q 369.014697 224.737971 369.842197 225.270471 
Q 370.669697 225.800471 371.162197 226.807971 
Q 371.654697 227.815471 371.654697 229.105471 
Q 371.654697 230.777971 370.852197 232.310471 
Q 370.052197 233.840471 368.467197 234.765471 
Q 366.882197 235.690471 364.717197 235.770471 
z
M 369.202197 230.627971 
Q 369.279697 229.752971 369.279697 229.090471 
Q 369.279697 227.667971 368.952197 226.440471 
Q 368.764697 225.760471 368.397197 225.440471 
Q 368.202197 225.267971 367.889697 225.267971 
Q 367.497197 225.267971 367.279697 225.605471 
Q 366.974697 226.065471 366.974697 227.362971 
Q 366.974697 229.527971 367.489697 230.347971 
Q 367.827197 230.877971 368.397197 230.877971 
Q 368.702197 230.877971 369.202197 230.627971 
z
M 374.224697 233.142971 
Q 374.772197 233.142971 375.149697 233.527971 
Q 375.529697 233.910471 375.529697 234.447971 
Q 375.529697 234.987971 375.147197 235.367971 
Q 374.764697 235.745471 374.224697 235.745471 
Q 373.684697 235.745471 373.304697 235.367971 
Q 372.927197 234.987971 372.927197 234.447971 
Q 372.927197 233.910471 373.304697 233.527971 
Q 373.684697 233.142971 374.224697 233.142971 
z
M 383.739697 224.737971 
L 383.739697 224.955471 
Q 382.327197 225.315471 381.469697 225.882971 
Q 380.614697 226.447971 380.117197 227.257971 
Q 379.622197 228.065471 379.349697 229.260471 
Q 379.694697 229.027971 379.919697 228.955471 
Q 380.427197 228.800471 380.944697 228.800471 
Q 382.132197 228.800471 382.924697 229.665471 
Q 383.717197 230.527971 383.717197 232.017971 
Q 383.717197 233.065471 383.287197 233.940471 
Q 382.857197 234.815471 382.067197 235.292971 
Q 381.279697 235.770471 380.382197 235.770471 
Q 379.404697 235.770471 378.574697 235.235471 
Q 377.747197 234.697971 377.282197 233.667971 
Q 376.819697 232.635471 376.819697 231.425471 
Q 376.819697 229.642971 377.674697 228.107971 
Q 378.529697 226.572971 380.102197 225.662971 
Q 381.677197 224.752971 383.739697 224.737971 
z
M 379.247197 229.892971 
Q 379.184697 230.972971 379.184697 231.472971 
Q 379.184697 232.550471 379.392197 233.557971 
Q 379.599697 234.565471 379.959697 234.972971 
Q 380.217197 235.260471 380.569697 235.260471 
Q 380.927197 235.260471 381.207197 234.842971 
Q 381.489697 234.425471 381.489697 233.142971 
Q 381.489697 230.987971 380.967197 230.167971 
Q 380.632197 229.635471 380.059697 229.635471 
Q 379.747197 229.635471 379.247197 229.892971 
z
" style="stroke: #ffffff; stroke-width: 3.8"/>
    <path d="M 362.849697 235.550471 
L 356.614697 235.550471 
L 356.614697 235.377971 
Q 359.482197 231.965471 360.094697 230.785471 
Q 360.709697 229.605471 360.709697 228.480471 
Q 360.709697 227.660471 360.202197 227.117971 
Q 359.694697 226.572971 358.959697 226.572971 
Q 357.757197 226.572971 357.092197 227.777971 
L 356.802197 227.675471 
Q 357.224697 226.175471 358.084697 225.457971 
Q 358.944697 224.737971 360.069697 224.737971 
Q 360.872197 224.737971 361.537197 225.112971 
Q 362.202197 225.487971 362.577197 226.140471 
Q 362.952197 226.792971 362.952197 227.362971 
Q 362.952197 228.402971 362.372197 229.472971 
Q 361.584697 230.917971 358.927197 233.502971 
L 361.217197 233.502971 
Q 362.059697 233.502971 362.314697 233.432971 
Q 362.569697 233.362971 362.732197 233.195471 
Q 362.897197 233.027971 363.162197 232.487971 
L 363.444697 232.487971 
L 362.849697 235.550471 
z
M 364.717197 235.770471 
L 364.717197 235.550471 
Q 366.014697 235.252971 366.917197 234.675471 
Q 367.819697 234.097971 368.344697 233.245471 
Q 368.872197 232.392971 369.084697 231.285471 
Q 368.599697 231.535471 368.259697 231.632971 
Q 367.919697 231.730471 367.544697 231.730471 
Q 366.342197 231.730471 365.539697 230.862971 
Q 364.739697 229.995471 364.739697 228.487971 
Q 364.739697 227.440471 365.172197 226.570471 
Q 365.607197 225.697971 366.412197 225.217971 
Q 367.217197 224.737971 368.084697 224.737971 
Q 369.014697 224.737971 369.842197 225.270471 
Q 370.669697 225.800471 371.162197 226.807971 
Q 371.654697 227.815471 371.654697 229.105471 
Q 371.654697 230.777971 370.852197 232.310471 
Q 370.052197 233.840471 368.467197 234.765471 
Q 366.882197 235.690471 364.717197 235.770471 
z
M 369.202197 230.627971 
Q 369.279697 229.752971 369.279697 229.090471 
Q 369.279697 227.667971 368.952197 226.440471 
Q 368.764697 225.760471 368.397197 225.440471 
Q 368.202197 225.267971 367.889697 225.267971 
Q 367.497197 225.267971 367.279697 225.605471 
Q 366.974697 226.065471 366.974697 227.362971 
Q 366.974697 229.527971 367.489697 230.347971 
Q 367.827197 230.877971 368.397197 230.877971 
Q 368.702197 230.877971 369.202197 230.627971 
z
M 374.224697 233.142971 
Q 374.772197 233.142971 375.149697 233.527971 
Q 375.529697 233.910471 375.529697 234.447971 
Q 375.529697 234.987971 375.147197 235.367971 
Q 374.764697 235.745471 374.224697 235.745471 
Q 373.684697 235.745471 373.304697 235.367971 
Q 372.927197 234.987971 372.927197 234.447971 
Q 372.927197 233.910471 373.304697 233.527971 
Q 373.684697 233.142971 374.224697 233.142971 
z
M 383.739697 224.737971 
L 383.739697 224.955471 
Q 382.327197 225.315471 381.469697 225.882971 
Q 380.614697 226.447971 380.117197 227.257971 
Q 379.622197 228.065471 379.349697 229.260471 
Q 379.694697 229.027971 379.919697 228.955471 
Q 380.427197 228.800471 380.944697 228.800471 
Q 382.132197 228.800471 382.924697 229.665471 
Q 383.717197 230.527971 383.717197 232.017971 
Q 383.717197 233.065471 383.287197 233.940471 
Q 382.857197 234.815471 382.067197 235.292971 
Q 381.279697 235.770471 380.382197 235.770471 
Q 379.404697 235.770471 378.574697 235.235471 
Q 377.747197 234.697971 377.282197 233.667971 
Q 376.819697 232.635471 376.819697 231.425471 
Q 376.819697 229.642971 377.674697 228.107971 
Q 378.529697 226.572971 380.102197 225.662971 
Q 381.677197 224.752971 383.739697 224.737971 
z
M 379.247197 229.892971 
Q 379.184697 230.972971 379.184697 231.472971 
Q 379.184697 232.550471 379.392197 233.557971 
Q 379.599697 234.565471 379.959697 234.972971 
Q 380.217197 235.260471 380.569697 235.260471 
Q 380.927197 235.260471 381.207197 234.842971 
Q 381.489697 234.425471 381.489697 233.142971 
Q 381.489697 230.987971 380.967197 230.167971 
Q 380.632197 229.635471 380.059697 229.635471 
Q 379.747197 229.635471 379.247197 229.892971 
z
"/>
   </g>
   <g id="text_27">
    <path d="M 358.592197 126.317011 
L 358.592197 126.044511 
Q 359.482197 125.784511 359.824697 125.562011 
Q 360.169697 125.339511 360.419697 124.884511 
Q 360.669697 124.427011 360.669697 123.957011 
Q 360.669697 123.309511 360.197197 122.844511 
Q 359.724697 122.379511 359.022197 122.379511 
Q 357.927197 122.379511 357.162197 123.534511 
L 356.872197 123.434511 
Q 357.434697 122.129511 358.314697 121.474511 
Q 359.194697 120.817011 360.272197 120.817011 
Q 361.372197 120.817011 362.087197 121.489511 
Q 362.802197 122.159511 362.802197 123.059511 
Q 362.802197 123.644511 362.469697 124.189511 
Q 362.139697 124.732011 361.427197 125.144511 
Q 362.342197 125.589511 362.822197 126.242011 
Q 363.302197 126.894511 363.302197 127.879511 
Q 363.302197 129.534511 362.102197 130.697011 
Q 360.904697 131.857011 358.889697 131.857011 
Q 357.544697 131.857011 356.927197 131.409511 
Q 356.482197 131.097011 356.482197 130.607011 
Q 356.482197 130.247011 356.739697 129.994511 
Q 356.997197 129.739511 357.334697 129.739511 
Q 357.592197 129.739511 357.819697 129.847011 
Q 357.944697 129.909511 358.704697 130.532011 
Q 359.467197 131.152011 360.132197 131.152011 
Q 360.709697 131.152011 361.122197 130.697011 
Q 361.537197 130.239511 361.537197 129.534511 
Q 361.537197 128.464511 360.787197 127.562011 
Q 360.037197 126.659511 358.592197 126.317011 
z
M 367.059697 131.849511 
L 369.944697 123.107011 
L 367.747197 123.107011 
Q 366.459697 123.107011 365.809697 123.442011 
Q 365.357197 123.677011 365.059697 124.324511 
L 364.764697 124.324511 
L 365.529697 121.034511 
L 371.842197 121.034511 
L 368.287197 131.849511 
L 367.059697 131.849511 
z
M 374.224697 129.222011 
Q 374.772197 129.222011 375.149697 129.607011 
Q 375.529697 129.989511 375.529697 130.527011 
Q 375.529697 131.067011 375.147197 131.447011 
Q 374.764697 131.824511 374.224697 131.824511 
Q 373.684697 131.824511 373.304697 131.447011 
Q 372.927197 131.067011 372.927197 130.527011 
Q 372.927197 129.989511 373.304697 129.607011 
Q 373.684697 129.222011 374.224697 129.222011 
z
M 381.434697 120.817011 
L 381.434697 129.482011 
Q 381.434697 130.457011 381.519697 130.727011 
Q 381.607197 130.997011 381.879697 131.169511 
Q 382.154697 131.339511 382.757197 131.339511 
L 382.997197 131.339511 
L 382.997197 131.629511 
L 377.419697 131.629511 
L 377.419697 131.339511 
L 377.702197 131.339511 
Q 378.382197 131.339511 378.669697 131.184511 
Q 378.959697 131.027011 379.059697 130.754511 
Q 379.162197 130.482011 379.162197 129.482011 
L 379.162197 123.989511 
Q 379.162197 123.254511 379.092197 123.072011 
Q 379.022197 122.887011 378.829697 122.759511 
Q 378.639697 122.629511 378.389697 122.629511 
Q 377.989697 122.629511 377.419697 122.879511 
L 377.279697 122.597011 
L 381.177197 120.817011 
L 381.434697 120.817011 
z
" style="stroke: #ffffff; stroke-width: 3.8"/>
    <path d="M 358.592197 126.317011 
L 358.592197 126.044511 
Q 359.482197 125.784511 359.824697 125.562011 
Q 360.169697 125.339511 360.419697 124.884511 
Q 360.669697 124.427011 360.669697 123.957011 
Q 360.669697 123.309511 360.197197 122.844511 
Q 359.724697 122.379511 359.022197 122.379511 
Q 357.927197 122.379511 357.162197 123.534511 
L 356.872197 123.434511 
Q 357.434697 122.129511 358.314697 121.474511 
Q 359.194697 120.817011 360.272197 120.817011 
Q 361.372197 120.817011 362.087197 121.489511 
Q 362.802197 122.159511 362.802197 123.059511 
Q 362.802197 123.644511 362.469697 124.189511 
Q 362.139697 124.732011 361.427197 125.144511 
Q 362.342197 125.589511 362.822197 126.242011 
Q 363.302197 126.894511 363.302197 127.879511 
Q 363.302197 129.534511 362.102197 130.697011 
Q 360.904697 131.857011 358.889697 131.857011 
Q 357.544697 131.857011 356.927197 131.409511 
Q 356.482197 131.097011 356.482197 130.607011 
Q 356.482197 130.247011 356.739697 129.994511 
Q 356.997197 129.739511 357.334697 129.739511 
Q 357.592197 129.739511 357.819697 129.847011 
Q 357.944697 129.909511 358.704697 130.532011 
Q 359.467197 131.152011 360.132197 131.152011 
Q 360.709697 131.152011 361.122197 130.697011 
Q 361.537197 130.239511 361.537197 129.534511 
Q 361.537197 128.464511 360.787197 127.562011 
Q 360.037197 126.659511 358.592197 126.317011 
z
M 367.059697 131.849511 
L 369.944697 123.107011 
L 367.747197 123.107011 
Q 366.459697 123.107011 365.809697 123.442011 
Q 365.357197 123.677011 365.059697 124.324511 
L 364.764697 124.324511 
L 365.529697 121.034511 
L 371.842197 121.034511 
L 368.287197 131.849511 
L 367.059697 131.849511 
z
M 374.224697 129.222011 
Q 374.772197 129.222011 375.149697 129.607011 
Q 375.529697 129.989511 375.529697 130.527011 
Q 375.529697 131.067011 375.147197 131.447011 
Q 374.764697 131.824511 374.224697 131.824511 
Q 373.684697 131.824511 373.304697 131.447011 
Q 372.927197 131.067011 372.927197 130.527011 
Q 372.927197 129.989511 373.304697 129.607011 
Q 373.684697 129.222011 374.224697 129.222011 
z
M 381.434697 120.817011 
L 381.434697 129.482011 
Q 381.434697 130.457011 381.519697 130.727011 
Q 381.607197 130.997011 381.879697 131.169511 
Q 382.154697 131.339511 382.757197 131.339511 
L 382.997197 131.339511 
L 382.997197 131.629511 
L 377.419697 131.629511 
L 377.419697 131.339511 
L 377.702197 131.339511 
Q 378.382197 131.339511 378.669697 131.184511 
Q 378.959697 131.027011 379.059697 130.754511 
Q 379.162197 130.482011 379.162197 129.482011 
L 379.162197 123.989511 
Q 379.162197 123.254511 379.092197 123.072011 
Q 379.022197 122.887011 378.829697 122.759511 
Q 378.639697 122.629511 378.389697 122.629511 
Q 377.989697 122.629511 377.419697 122.879511 
L 377.279697 122.597011 
L 381.177197 120.817011 
L 381.434697 120.817011 
z
"/>
   </g>
   <g id="text_28">
    <path d="M 578.778672 299.018159 
L 572.543672 299.018159 
L 572.543672 298.845659 
Q 575.411172 295.433159 576.023672 294.253159 
Q 576.638672 293.073159 576.638672 291.948159 
Q 576.638672 291.128159 576.131172 290.585659 
Q 575.623672 290.040659 574.888672 290.040659 
Q 573.686172 290.040659 573.021172 291.245659 
L 572.731172 291.143159 
Q 573.153672 289.643159 574.013672 288.925659 
Q 574.873672 288.205659 575.998672 288.205659 
Q 576.801172 288.205659 577.466172 288.580659 
Q 578.131172 288.955659 578.506172 289.608159 
Q 578.881172 290.260659 578.881172 290.830659 
Q 578.881172 291.870659 578.301172 292.940659 
Q 577.513672 294.385659 574.856172 296.970659 
L 577.146172 296.970659 
Q 577.988672 296.970659 578.243672 296.900659 
Q 578.498672 296.830659 578.661172 296.663159 
Q 578.826172 296.495659 579.091172 295.955659 
L 579.373672 295.955659 
L 578.778672 299.018159 
z
M 587.568672 293.720659 
Q 587.568672 295.308159 587.123672 296.683159 
Q 586.856172 297.525659 586.406172 298.065659 
Q 585.958672 298.603159 585.388672 298.920659 
Q 584.818672 299.238159 584.146172 299.238159 
Q 583.381172 299.238159 582.763672 298.848159 
Q 582.146172 298.455659 581.668672 297.728159 
Q 581.326172 297.198159 581.068672 296.315659 
Q 580.731172 295.120659 580.731172 293.845659 
Q 580.731172 292.120659 581.216172 290.673159 
Q 581.613672 289.478159 582.426172 288.843159 
Q 583.238672 288.205659 584.146172 288.205659 
Q 585.068672 288.205659 585.868672 288.835659 
Q 586.668672 289.463159 587.043672 290.525659 
Q 587.568672 291.985659 587.568672 293.720659 
z
M 585.161172 293.705659 
Q 585.161172 290.923159 585.131172 290.463159 
Q 585.051172 289.378159 584.756172 288.995659 
Q 584.561172 288.745659 584.123672 288.745659 
Q 583.786172 288.745659 583.591172 288.933159 
Q 583.301172 289.205659 583.198672 289.898159 
Q 583.098672 290.588159 583.098672 294.720659 
Q 583.098672 296.970659 583.256172 297.735659 
Q 583.373672 298.290659 583.591172 298.478159 
Q 583.811172 298.665659 584.168672 298.665659 
Q 584.561172 298.665659 584.756172 298.415659 
Q 585.083672 297.978159 585.131172 297.065659 
L 585.161172 293.705659 
z
M 590.153672 296.610659 
Q 590.701172 296.610659 591.078672 296.995659 
Q 591.458672 297.378159 591.458672 297.915659 
Q 591.458672 298.455659 591.076172 298.835659 
Q 590.693672 299.213159 590.153672 299.213159 
Q 589.613672 299.213159 589.233672 298.835659 
Q 588.856172 298.455659 588.856172 297.915659 
Q 588.856172 297.378159 589.233672 296.995659 
Q 589.613672 296.610659 590.153672 296.610659 
z
M 597.363672 288.205659 
L 597.363672 296.870659 
Q 597.363672 297.845659 597.448672 298.115659 
Q 597.536172 298.385659 597.808672 298.558159 
Q 598.083672 298.728159 598.686172 298.728159 
L 598.926172 298.728159 
L 598.926172 299.018159 
L 593.348672 299.018159 
L 593.348672 298.728159 
L 593.631172 298.728159 
Q 594.311172 298.728159 594.598672 298.573159 
Q 594.888672 298.415659 594.988672 298.143159 
Q 595.091172 297.870659 595.091172 296.870659 
L 595.091172 291.378159 
Q 595.091172 290.643159 595.021172 290.460659 
Q 594.951172 290.275659 594.758672 290.148159 
Q 594.568672 290.018159 594.318672 290.018159 
Q 593.918672 290.018159 593.348672 290.268159 
L 593.208672 289.985659 
L 597.106172 288.205659 
L 597.363672 288.205659 
z
" style="stroke: #ffffff; stroke-width: 3.8"/>
    <path d="M 578.778672 299.018159 
L 572.543672 299.018159 
L 572.543672 298.845659 
Q 575.411172 295.433159 576.023672 294.253159 
Q 576.638672 293.073159 576.638672 291.948159 
Q 576.638672 291.128159 576.131172 290.585659 
Q 575.623672 290.040659 574.888672 290.040659 
Q 573.686172 290.040659 573.021172 291.245659 
L 572.731172 291.143159 
Q 573.153672 289.643159 574.013672 288.925659 
Q 574.873672 288.205659 575.998672 288.205659 
Q 576.801172 288.205659 577.466172 288.580659 
Q 578.131172 288.955659 578.506172 289.608159 
Q 578.881172 290.260659 578.881172 290.830659 
Q 578.881172 291.870659 578.301172 292.940659 
Q 577.513672 294.385659 574.856172 296.970659 
L 577.146172 296.970659 
Q 577.988672 296.970659 578.243672 296.900659 
Q 578.498672 296.830659 578.661172 296.663159 
Q 578.826172 296.495659 579.091172 295.955659 
L 579.373672 295.955659 
L 578.778672 299.018159 
z
M 587.568672 293.720659 
Q 587.568672 295.308159 587.123672 296.683159 
Q 586.856172 297.525659 586.406172 298.065659 
Q 585.958672 298.603159 585.388672 298.920659 
Q 584.818672 299.238159 584.146172 299.238159 
Q 583.381172 299.238159 582.763672 298.848159 
Q 582.146172 298.455659 581.668672 297.728159 
Q 581.326172 297.198159 581.068672 296.315659 
Q 580.731172 295.120659 580.731172 293.845659 
Q 580.731172 292.120659 581.216172 290.673159 
Q 581.613672 289.478159 582.426172 288.843159 
Q 583.238672 288.205659 584.146172 288.205659 
Q 585.068672 288.205659 585.868672 288.835659 
Q 586.668672 289.463159 587.043672 290.525659 
Q 587.568672 291.985659 587.568672 293.720659 
z
M 585.161172 293.705659 
Q 585.161172 290.923159 585.131172 290.463159 
Q 585.051172 289.378159 584.756172 288.995659 
Q 584.561172 288.745659 584.123672 288.745659 
Q 583.786172 288.745659 583.591172 288.933159 
Q 583.301172 289.205659 583.198672 289.898159 
Q 583.098672 290.588159 583.098672 294.720659 
Q 583.098672 296.970659 583.256172 297.735659 
Q 583.373672 298.290659 583.591172 298.478159 
Q 583.811172 298.665659 584.168672 298.665659 
Q 584.561172 298.665659 584.756172 298.415659 
Q 585.083672 297.978159 585.131172 297.065659 
L 585.161172 293.705659 
z
M 590.153672 296.610659 
Q 590.701172 296.610659 591.078672 296.995659 
Q 591.458672 297.378159 591.458672 297.915659 
Q 591.458672 298.455659 591.076172 298.835659 
Q 590.693672 299.213159 590.153672 299.213159 
Q 589.613672 299.213159 589.233672 298.835659 
Q 588.856172 298.455659 588.856172 297.915659 
Q 588.856172 297.378159 589.233672 296.995659 
Q 589.613672 296.610659 590.153672 296.610659 
z
M 597.363672 288.205659 
L 597.363672 296.870659 
Q 597.363672 297.845659 597.448672 298.115659 
Q 597.536172 298.385659 597.808672 298.558159 
Q 598.083672 298.728159 598.686172 298.728159 
L 598.926172 298.728159 
L 598.926172 299.018159 
L 593.348672 299.018159 
L 593.348672 298.728159 
L 593.631172 298.728159 
Q 594.311172 298.728159 594.598672 298.573159 
Q 594.888672 298.415659 594.988672 298.143159 
Q 595.091172 297.870659 595.091172 296.870659 
L 595.091172 291.378159 
Q 595.091172 290.643159 595.021172 290.460659 
Q 594.951172 290.275659 594.758672 290.148159 
Q 594.568672 290.018159 594.318672 290.018159 
Q 593.918672 290.018159 593.348672 290.268159 
L 593.208672 289.985659 
L 597.106172 288.205659 
L 597.363672 288.205659 
z
"/>
   </g>
   <g id="text_29">
    <path d="M 568.616103 413.720267 
Q 568.616103 415.208548 568.198915 416.497611 
Q 567.948134 417.287455 567.526259 417.793705 
Q 567.106728 418.297611 566.572353 418.595267 
Q 566.037978 418.892923 565.407509 418.892923 
Q 564.690322 418.892923 564.111415 418.527298 
Q 563.532509 418.15933 563.084853 417.477298 
Q 562.763759 416.980423 562.522353 416.15308 
Q 562.205947 415.032767 562.205947 413.837455 
Q 562.205947 412.220267 562.660634 410.863236 
Q 563.03329 409.742923 563.795009 409.147611 
Q 564.556728 408.549955 565.407509 408.549955 
Q 566.272353 408.549955 567.022353 409.14058 
Q 567.772353 409.728861 568.123915 410.724955 
Q 568.616103 412.093705 568.616103 413.720267 
z
M 566.359072 413.706205 
Q 566.359072 411.097611 566.330947 410.666361 
Q 566.255947 409.649173 565.979384 409.29058 
Q 565.796572 409.056205 565.386415 409.056205 
Q 565.070009 409.056205 564.887197 409.231986 
Q 564.615322 409.487455 564.519228 410.136673 
Q 564.425478 410.783548 564.425478 414.657767 
Q 564.425478 416.767142 564.573134 417.48433 
Q 564.68329 418.004642 564.887197 418.180423 
Q 565.093447 418.356205 565.428603 418.356205 
Q 565.796572 418.356205 565.979384 418.12183 
Q 566.286415 417.711673 566.330947 416.856205 
L 566.359072 413.706205 
z
M 571.03954 416.429642 
Q 571.552822 416.429642 571.906728 416.79058 
Q 572.262978 417.149173 572.262978 417.65308 
Q 572.262978 418.15933 571.904384 418.51558 
Q 571.54579 418.869486 571.03954 418.869486 
Q 570.53329 418.869486 570.17704 418.51558 
Q 569.823134 418.15933 569.823134 417.65308 
Q 569.823134 417.149173 570.17704 416.79058 
Q 570.53329 416.429642 571.03954 416.429642 
z
M 573.287197 414.943705 
L 578.005165 408.549955 
L 578.898134 408.549955 
L 578.898134 414.943705 
L 579.807509 414.943705 
L 579.807509 416.460111 
L 578.898134 416.460111 
L 578.898134 418.686673 
L 576.884853 418.686673 
L 576.884853 416.460111 
L 573.287197 416.460111 
L 573.287197 414.943705 
z
M 573.999697 414.943705 
L 576.884853 414.943705 
L 576.884853 411.024955 
L 573.999697 414.943705 
z
" style="fill: #404040; stroke: #ffffff; stroke-width: 3.8"/>
    <path d="M 568.616103 413.720267 
Q 568.616103 415.208548 568.198915 416.497611 
Q 567.948134 417.287455 567.526259 417.793705 
Q 567.106728 418.297611 566.572353 418.595267 
Q 566.037978 418.892923 565.407509 418.892923 
Q 564.690322 418.892923 564.111415 418.527298 
Q 563.532509 418.15933 563.084853 417.477298 
Q 562.763759 416.980423 562.522353 416.15308 
Q 562.205947 415.032767 562.205947 413.837455 
Q 562.205947 412.220267 562.660634 410.863236 
Q 563.03329 409.742923 563.795009 409.147611 
Q 564.556728 408.549955 565.407509 408.549955 
Q 566.272353 408.549955 567.022353 409.14058 
Q 567.772353 409.728861 568.123915 410.724955 
Q 568.616103 412.093705 568.616103 413.720267 
z
M 566.359072 413.706205 
Q 566.359072 411.097611 566.330947 410.666361 
Q 566.255947 409.649173 565.979384 409.29058 
Q 565.796572 409.056205 565.386415 409.056205 
Q 565.070009 409.056205 564.887197 409.231986 
Q 564.615322 409.487455 564.519228 410.136673 
Q 564.425478 410.783548 564.425478 414.657767 
Q 564.425478 416.767142 564.573134 417.48433 
Q 564.68329 418.004642 564.887197 418.180423 
Q 565.093447 418.356205 565.428603 418.356205 
Q 565.796572 418.356205 565.979384 418.12183 
Q 566.286415 417.711673 566.330947 416.856205 
L 566.359072 413.706205 
z
M 571.03954 416.429642 
Q 571.552822 416.429642 571.906728 416.79058 
Q 572.262978 417.149173 572.262978 417.65308 
Q 572.262978 418.15933 571.904384 418.51558 
Q 571.54579 418.869486 571.03954 418.869486 
Q 570.53329 418.869486 570.17704 418.51558 
Q 569.823134 418.15933 569.823134 417.65308 
Q 569.823134 417.149173 570.17704 416.79058 
Q 570.53329 416.429642 571.03954 416.429642 
z
M 573.287197 414.943705 
L 578.005165 408.549955 
L 578.898134 408.549955 
L 578.898134 414.943705 
L 579.807509 414.943705 
L 579.807509 416.460111 
L 578.898134 416.460111 
L 578.898134 418.686673 
L 576.884853 418.686673 
L 576.884853 416.460111 
L 573.287197 416.460111 
L 573.287197 414.943705 
z
M 573.999697 414.943705 
L 576.884853 414.943705 
L 576.884853 411.024955 
L 573.999697 414.943705 
z
" style="fill: #404040"/>
   </g>
   <g id="text_30">
    <path d="M 568.961768 382.631061 
L 563.116455 382.631061 
L 563.116455 382.469342 
Q 565.804736 379.270123 566.378955 378.163873 
Q 566.955518 377.057623 566.955518 376.002936 
Q 566.955518 375.234186 566.479736 374.725592 
Q 566.003955 374.214654 565.314893 374.214654 
Q 564.187549 374.214654 563.564111 375.344342 
L 563.292236 375.248248 
Q 563.68833 373.841998 564.49458 373.169342 
Q 565.30083 372.494342 566.355518 372.494342 
Q 567.107861 372.494342 567.731299 372.845904 
Q 568.354736 373.197467 568.706299 373.809186 
Q 569.057861 374.420904 569.057861 374.955279 
Q 569.057861 375.930279 568.514111 376.933404 
Q 567.77583 378.288092 565.284424 380.711529 
L 567.431299 380.711529 
Q 568.221143 380.711529 568.460205 380.645904 
Q 568.699268 380.580279 568.851611 380.423248 
Q 569.006299 380.266217 569.254736 379.759967 
L 569.51958 379.759967 
L 568.961768 382.631061 
z
M 572.535986 372.698248 
L 577.185986 372.698248 
L 576.447705 374.589654 
L 572.535986 374.589654 
L 572.16333 375.578717 
Q 574.689893 375.672467 576.051611 376.837311 
Q 577.171924 377.795904 577.171924 379.225592 
Q 577.171924 380.139654 576.651611 381.016217 
Q 576.131299 381.890436 575.186768 382.363873 
Q 574.242236 382.837311 573.114893 382.837311 
Q 571.898486 382.837311 571.246924 382.382623 
Q 570.792236 382.059186 570.792236 381.649029 
Q 570.792236 381.334967 571.028955 381.093561 
Q 571.268018 380.852154 571.584424 380.852154 
Q 571.870361 380.852154 572.16333 380.969342 
Q 572.456299 381.086529 573.166455 381.583404 
Q 573.611768 381.890436 573.935205 382.007623 
Q 574.162549 382.096686 574.448486 382.096686 
Q 575.048486 382.096686 575.468018 381.658404 
Q 575.889893 381.217779 575.889893 380.601373 
Q 575.889893 379.312311 574.60083 378.508404 
Q 573.311768 377.702154 571.350049 377.702154 
Q 571.15083 377.702154 570.75708 377.709186 
L 572.535986 372.698248 
z
M 579.62583 380.374029 
Q 580.139111 380.374029 580.493018 380.734967 
Q 580.849268 381.093561 580.849268 381.597467 
Q 580.849268 382.103717 580.490674 382.459967 
Q 580.13208 382.813873 579.62583 382.813873 
Q 579.11958 382.813873 578.76333 382.459967 
Q 578.409424 382.103717 578.409424 381.597467 
Q 578.409424 381.093561 578.76333 380.734967 
Q 579.11958 380.374029 579.62583 380.374029 
z
M 584.158643 382.837311 
L 586.86333 374.641217 
L 584.803174 374.641217 
Q 583.596143 374.641217 582.986768 374.955279 
Q 582.562549 375.175592 582.283643 375.782623 
L 582.00708 375.782623 
L 582.724268 372.698248 
L 588.642236 372.698248 
L 585.309424 382.837311 
L 584.158643 382.837311 
z
" style="fill: #404040; stroke: #ffffff; stroke-width: 3.8"/>
    <path d="M 568.961768 382.631061 
L 563.116455 382.631061 
L 563.116455 382.469342 
Q 565.804736 379.270123 566.378955 378.163873 
Q 566.955518 377.057623 566.955518 376.002936 
Q 566.955518 375.234186 566.479736 374.725592 
Q 566.003955 374.214654 565.314893 374.214654 
Q 564.187549 374.214654 563.564111 375.344342 
L 563.292236 375.248248 
Q 563.68833 373.841998 564.49458 373.169342 
Q 565.30083 372.494342 566.355518 372.494342 
Q 567.107861 372.494342 567.731299 372.845904 
Q 568.354736 373.197467 568.706299 373.809186 
Q 569.057861 374.420904 569.057861 374.955279 
Q 569.057861 375.930279 568.514111 376.933404 
Q 567.77583 378.288092 565.284424 380.711529 
L 567.431299 380.711529 
Q 568.221143 380.711529 568.460205 380.645904 
Q 568.699268 380.580279 568.851611 380.423248 
Q 569.006299 380.266217 569.254736 379.759967 
L 569.51958 379.759967 
L 568.961768 382.631061 
z
M 572.535986 372.698248 
L 577.185986 372.698248 
L 576.447705 374.589654 
L 572.535986 374.589654 
L 572.16333 375.578717 
Q 574.689893 375.672467 576.051611 376.837311 
Q 577.171924 377.795904 577.171924 379.225592 
Q 577.171924 380.139654 576.651611 381.016217 
Q 576.131299 381.890436 575.186768 382.363873 
Q 574.242236 382.837311 573.114893 382.837311 
Q 571.898486 382.837311 571.246924 382.382623 
Q 570.792236 382.059186 570.792236 381.649029 
Q 570.792236 381.334967 571.028955 381.093561 
Q 571.268018 380.852154 571.584424 380.852154 
Q 571.870361 380.852154 572.16333 380.969342 
Q 572.456299 381.086529 573.166455 381.583404 
Q 573.611768 381.890436 573.935205 382.007623 
Q 574.162549 382.096686 574.448486 382.096686 
Q 575.048486 382.096686 575.468018 381.658404 
Q 575.889893 381.217779 575.889893 380.601373 
Q 575.889893 379.312311 574.60083 378.508404 
Q 573.311768 377.702154 571.350049 377.702154 
Q 571.15083 377.702154 570.75708 377.709186 
L 572.535986 372.698248 
z
M 579.62583 380.374029 
Q 580.139111 380.374029 580.493018 380.734967 
Q 580.849268 381.093561 580.849268 381.597467 
Q 580.849268 382.103717 580.490674 382.459967 
Q 580.13208 382.813873 579.62583 382.813873 
Q 579.11958 382.813873 578.76333 382.459967 
Q 578.409424 382.103717 578.409424 381.597467 
Q 578.409424 381.093561 578.76333 380.734967 
Q 579.11958 380.374029 579.62583 380.374029 
z
M 584.158643 382.837311 
L 586.86333 374.641217 
L 584.803174 374.641217 
Q 583.596143 374.641217 582.986768 374.955279 
Q 582.562549 375.175592 582.283643 375.782623 
L 582.00708 375.782623 
L 582.724268 372.698248 
L 588.642236 372.698248 
L 585.309424 382.837311 
L 584.158643 382.837311 
z
" style="fill: #404040"/>
   </g>
   <g id="text_31">
    <path d="M 535.215787 344.611764 
Q 536.263443 345.380514 536.668912 346.043795 
Q 537.076725 346.707076 537.076725 347.564889 
Q 537.076725 348.764889 536.172037 349.59692 
Q 535.26735 350.428951 533.715787 350.428951 
Q 532.243912 350.428951 531.437662 349.704733 
Q 530.631412 348.97817 530.631412 347.930514 
Q 530.631412 347.131295 531.095475 346.531295 
Q 531.561881 345.931295 532.644693 345.432076 
Q 531.465787 344.532076 531.132975 343.960201 
Q 530.800162 343.388326 530.800162 342.633639 
Q 530.800162 341.637545 531.646256 340.880514 
Q 532.49235 340.123483 533.964225 340.123483 
Q 535.384537 340.123483 536.1486 340.793795 
Q 536.915006 341.461764 536.915006 342.399264 
Q 536.915006 343.102389 536.500162 343.641451 
Q 536.087662 344.180514 535.215787 344.611764 
z
M 534.660318 344.239108 
Q 534.92985 343.873483 535.0611 343.418795 
Q 535.194693 342.964108 535.194693 342.422701 
Q 535.194693 341.471139 534.784537 340.964889 
Q 534.477506 340.575826 533.933756 340.575826 
Q 533.443912 340.575826 533.099381 340.932076 
Q 532.75485 341.285983 532.75485 341.813326 
Q 532.75485 342.350045 533.139225 342.924264 
Q 533.5236 343.498483 534.660318 344.239108 
z
M 533.195475 345.783639 
Q 532.968131 345.989889 532.872037 346.158639 
Q 532.726725 346.414108 532.609537 346.906295 
Q 532.49235 347.396139 532.49235 347.930514 
Q 532.49235 348.619576 532.668131 349.083639 
Q 532.843912 349.547701 533.169693 349.753951 
Q 533.495475 349.957858 533.840006 349.957858 
Q 534.374381 349.957858 534.740006 349.566451 
Q 535.105631 349.175045 535.105631 348.493014 
Q 535.105631 347.072701 533.195475 345.783639 
z
M 539.479068 347.96567 
Q 539.99235 347.96567 540.346256 348.326608 
Q 540.702506 348.685201 540.702506 349.189108 
Q 540.702506 349.695358 540.343912 350.051608 
Q 539.985318 350.405514 539.479068 350.405514 
Q 538.972818 350.405514 538.616568 350.051608 
Q 538.262662 349.695358 538.262662 349.189108 
Q 538.262662 348.685201 538.616568 348.326608 
Q 538.972818 347.96567 539.479068 347.96567 
z
M 548.305631 345.256295 
Q 548.305631 346.744576 547.888443 348.033639 
Q 547.637662 348.823483 547.215787 349.329733 
Q 546.796256 349.833639 546.261881 350.131295 
Q 545.727506 350.428951 545.097037 350.428951 
Q 544.37985 350.428951 543.800943 350.063326 
Q 543.222037 349.695358 542.774381 349.013326 
Q 542.453287 348.516451 542.211881 347.689108 
Q 541.895475 346.568795 541.895475 345.373483 
Q 541.895475 343.756295 542.350162 342.399264 
Q 542.722818 341.278951 543.484537 340.683639 
Q 544.246256 340.085983 545.097037 340.085983 
Q 545.961881 340.085983 546.711881 340.676608 
Q 547.461881 341.264889 547.813443 342.260983 
Q 548.305631 343.629733 548.305631 345.256295 
z
M 546.0486 345.242233 
Q 546.0486 342.633639 546.020475 342.202389 
Q 545.945475 341.185201 545.668912 340.826608 
Q 545.4861 340.592233 545.075943 340.592233 
Q 544.759537 340.592233 544.576725 340.768014 
Q 544.30485 341.023483 544.208756 341.672701 
Q 544.115006 342.319576 544.115006 346.193795 
Q 544.115006 348.30317 544.262662 349.020358 
Q 544.372818 349.54067 544.576725 349.716451 
Q 544.782975 349.892233 545.118131 349.892233 
Q 545.4861 349.892233 545.668912 349.657858 
Q 545.975943 349.247701 546.020475 348.392233 
L 546.0486 345.242233 
z
" style="fill: #404040; stroke: #ffffff; stroke-width: 3.8"/>
    <path d="M 535.215787 344.611764 
Q 536.263443 345.380514 536.668912 346.043795 
Q 537.076725 346.707076 537.076725 347.564889 
Q 537.076725 348.764889 536.172037 349.59692 
Q 535.26735 350.428951 533.715787 350.428951 
Q 532.243912 350.428951 531.437662 349.704733 
Q 530.631412 348.97817 530.631412 347.930514 
Q 530.631412 347.131295 531.095475 346.531295 
Q 531.561881 345.931295 532.644693 345.432076 
Q 531.465787 344.532076 531.132975 343.960201 
Q 530.800162 343.388326 530.800162 342.633639 
Q 530.800162 341.637545 531.646256 340.880514 
Q 532.49235 340.123483 533.964225 340.123483 
Q 535.384537 340.123483 536.1486 340.793795 
Q 536.915006 341.461764 536.915006 342.399264 
Q 536.915006 343.102389 536.500162 343.641451 
Q 536.087662 344.180514 535.215787 344.611764 
z
M 534.660318 344.239108 
Q 534.92985 343.873483 535.0611 343.418795 
Q 535.194693 342.964108 535.194693 342.422701 
Q 535.194693 341.471139 534.784537 340.964889 
Q 534.477506 340.575826 533.933756 340.575826 
Q 533.443912 340.575826 533.099381 340.932076 
Q 532.75485 341.285983 532.75485 341.813326 
Q 532.75485 342.350045 533.139225 342.924264 
Q 533.5236 343.498483 534.660318 344.239108 
z
M 533.195475 345.783639 
Q 532.968131 345.989889 532.872037 346.158639 
Q 532.726725 346.414108 532.609537 346.906295 
Q 532.49235 347.396139 532.49235 347.930514 
Q 532.49235 348.619576 532.668131 349.083639 
Q 532.843912 349.547701 533.169693 349.753951 
Q 533.495475 349.957858 533.840006 349.957858 
Q 534.374381 349.957858 534.740006 349.566451 
Q 535.105631 349.175045 535.105631 348.493014 
Q 535.105631 347.072701 533.195475 345.783639 
z
M 539.479068 347.96567 
Q 539.99235 347.96567 540.346256 348.326608 
Q 540.702506 348.685201 540.702506 349.189108 
Q 540.702506 349.695358 540.343912 350.051608 
Q 539.985318 350.405514 539.479068 350.405514 
Q 538.972818 350.405514 538.616568 350.051608 
Q 538.262662 349.695358 538.262662 349.189108 
Q 538.262662 348.685201 538.616568 348.326608 
Q 538.972818 347.96567 539.479068 347.96567 
z
M 548.305631 345.256295 
Q 548.305631 346.744576 547.888443 348.033639 
Q 547.637662 348.823483 547.215787 349.329733 
Q 546.796256 349.833639 546.261881 350.131295 
Q 545.727506 350.428951 545.097037 350.428951 
Q 544.37985 350.428951 543.800943 350.063326 
Q 543.222037 349.695358 542.774381 349.013326 
Q 542.453287 348.516451 542.211881 347.689108 
Q 541.895475 346.568795 541.895475 345.373483 
Q 541.895475 343.756295 542.350162 342.399264 
Q 542.722818 341.278951 543.484537 340.683639 
Q 544.246256 340.085983 545.097037 340.085983 
Q 545.961881 340.085983 546.711881 340.676608 
Q 547.461881 341.264889 547.813443 342.260983 
Q 548.305631 343.629733 548.305631 345.256295 
z
M 546.0486 345.242233 
Q 546.0486 342.633639 546.020475 342.202389 
Q 545.945475 341.185201 545.668912 340.826608 
Q 545.4861 340.592233 545.075943 340.592233 
Q 544.759537 340.592233 544.576725 340.768014 
Q 544.30485 341.023483 544.208756 341.672701 
Q 544.115006 342.319576 544.115006 346.193795 
Q 544.115006 348.30317 544.262662 349.020358 
Q 544.372818 349.54067 544.576725 349.716451 
Q 544.782975 349.892233 545.118131 349.892233 
Q 545.4861 349.892233 545.668912 349.657858 
Q 545.975943 349.247701 546.020475 348.392233 
L 546.0486 345.242233 
z
" style="fill: #404040"/>
   </g>
   <g id="text_32">
    <path d="M 324.455804 380.472197 
L 324.455804 388.595635 
Q 324.455804 389.509697 324.535492 389.762822 
Q 324.617523 390.015947 324.872992 390.177666 
Q 325.130804 390.337041 325.695648 390.337041 
L 325.920648 390.337041 
L 325.920648 390.608916 
L 320.691742 390.608916 
L 320.691742 390.337041 
L 320.956586 390.337041 
Q 321.594086 390.337041 321.863617 390.191728 
Q 322.135492 390.044072 322.229242 389.788603 
Q 322.325336 389.533135 322.325336 388.595635 
L 322.325336 383.446416 
Q 322.325336 382.757353 322.259711 382.58626 
Q 322.194086 382.412822 322.013617 382.293291 
Q 321.835492 382.171416 321.601117 382.171416 
Q 321.226117 382.171416 320.691742 382.405791 
L 320.560492 382.140947 
L 324.214398 380.472197 
L 324.455804 380.472197 
z
M 327.533148 390.815166 
L 327.533148 390.608916 
Q 328.749554 390.33001 329.595648 389.788603 
Q 330.441742 389.247197 330.933929 388.447978 
Q 331.428461 387.64876 331.627679 386.610478 
Q 331.172992 386.844853 330.854242 386.93626 
Q 330.535492 387.027666 330.183929 387.027666 
Q 329.056586 387.027666 328.304242 386.214385 
Q 327.554242 385.401103 327.554242 383.987822 
Q 327.554242 383.005791 327.959711 382.190166 
Q 328.367523 381.372197 329.122211 380.922197 
Q 329.876898 380.472197 330.690179 380.472197 
Q 331.562054 380.472197 332.337836 380.971416 
Q 333.113617 381.468291 333.575336 382.412822 
Q 334.037054 383.357353 334.037054 384.566728 
Q 334.037054 386.134697 333.284711 387.571416 
Q 332.534711 389.005791 331.048773 389.872978 
Q 329.562836 390.740166 327.533148 390.815166 
z
M 331.737836 385.994072 
Q 331.810492 385.17376 331.810492 384.552666 
Q 331.810492 383.219072 331.503461 382.068291 
Q 331.327679 381.430791 330.983148 381.130791 
Q 330.800336 380.969072 330.507367 380.969072 
Q 330.139398 380.969072 329.935492 381.285478 
Q 329.649554 381.716728 329.649554 382.933135 
Q 329.649554 384.962822 330.132367 385.731572 
Q 330.448773 386.228447 330.983148 386.228447 
Q 331.269086 386.228447 331.737836 385.994072 
z
M 336.446429 388.351885 
Q 336.959711 388.351885 337.313617 388.712822 
Q 337.669867 389.071416 337.669867 389.575322 
Q 337.669867 390.081572 337.311273 390.437822 
Q 336.952679 390.791728 336.446429 390.791728 
Q 335.940179 390.791728 335.583929 390.437822 
Q 335.230023 390.081572 335.230023 389.575322 
Q 335.230023 389.071416 335.583929 388.712822 
Q 335.940179 388.351885 336.446429 388.351885 
z
M 340.606586 380.676103 
L 345.256586 380.676103 
L 344.518304 382.56751 
L 340.606586 382.56751 
L 340.233929 383.556572 
Q 342.760492 383.650322 344.122211 384.815166 
Q 345.242523 385.77376 345.242523 387.203447 
Q 345.242523 388.11751 344.722211 388.994072 
Q 344.201898 389.868291 343.257367 390.341728 
Q 342.312836 390.815166 341.185492 390.815166 
Q 339.969086 390.815166 339.317523 390.360478 
Q 338.862836 390.037041 338.862836 389.626885 
Q 338.862836 389.312822 339.099554 389.071416 
Q 339.338617 388.83001 339.655023 388.83001 
Q 339.940961 388.83001 340.233929 388.947197 
Q 340.526898 389.064385 341.237054 389.56126 
Q 341.682367 389.868291 342.005804 389.985478 
Q 342.233148 390.074541 342.519086 390.074541 
Q 343.119086 390.074541 343.538617 389.63626 
Q 343.960492 389.195635 343.960492 388.579228 
Q 343.960492 387.290166 342.671429 386.48626 
Q 341.382367 385.68001 339.420648 385.68001 
Q 339.221429 385.68001 338.827679 385.687041 
L 340.606586 380.676103 
z
" style="fill: #404040; stroke: #ffffff; stroke-width: 3.8"/>
    <path d="M 324.455804 380.472197 
L 324.455804 388.595635 
Q 324.455804 389.509697 324.535492 389.762822 
Q 324.617523 390.015947 324.872992 390.177666 
Q 325.130804 390.337041 325.695648 390.337041 
L 325.920648 390.337041 
L 325.920648 390.608916 
L 320.691742 390.608916 
L 320.691742 390.337041 
L 320.956586 390.337041 
Q 321.594086 390.337041 321.863617 390.191728 
Q 322.135492 390.044072 322.229242 389.788603 
Q 322.325336 389.533135 322.325336 388.595635 
L 322.325336 383.446416 
Q 322.325336 382.757353 322.259711 382.58626 
Q 322.194086 382.412822 322.013617 382.293291 
Q 321.835492 382.171416 321.601117 382.171416 
Q 321.226117 382.171416 320.691742 382.405791 
L 320.560492 382.140947 
L 324.214398 380.472197 
L 324.455804 380.472197 
z
M 327.533148 390.815166 
L 327.533148 390.608916 
Q 328.749554 390.33001 329.595648 389.788603 
Q 330.441742 389.247197 330.933929 388.447978 
Q 331.428461 387.64876 331.627679 386.610478 
Q 331.172992 386.844853 330.854242 386.93626 
Q 330.535492 387.027666 330.183929 387.027666 
Q 329.056586 387.027666 328.304242 386.214385 
Q 327.554242 385.401103 327.554242 383.987822 
Q 327.554242 383.005791 327.959711 382.190166 
Q 328.367523 381.372197 329.122211 380.922197 
Q 329.876898 380.472197 330.690179 380.472197 
Q 331.562054 380.472197 332.337836 380.971416 
Q 333.113617 381.468291 333.575336 382.412822 
Q 334.037054 383.357353 334.037054 384.566728 
Q 334.037054 386.134697 333.284711 387.571416 
Q 332.534711 389.005791 331.048773 389.872978 
Q 329.562836 390.740166 327.533148 390.815166 
z
M 331.737836 385.994072 
Q 331.810492 385.17376 331.810492 384.552666 
Q 331.810492 383.219072 331.503461 382.068291 
Q 331.327679 381.430791 330.983148 381.130791 
Q 330.800336 380.969072 330.507367 380.969072 
Q 330.139398 380.969072 329.935492 381.285478 
Q 329.649554 381.716728 329.649554 382.933135 
Q 329.649554 384.962822 330.132367 385.731572 
Q 330.448773 386.228447 330.983148 386.228447 
Q 331.269086 386.228447 331.737836 385.994072 
z
M 336.446429 388.351885 
Q 336.959711 388.351885 337.313617 388.712822 
Q 337.669867 389.071416 337.669867 389.575322 
Q 337.669867 390.081572 337.311273 390.437822 
Q 336.952679 390.791728 336.446429 390.791728 
Q 335.940179 390.791728 335.583929 390.437822 
Q 335.230023 390.081572 335.230023 389.575322 
Q 335.230023 389.071416 335.583929 388.712822 
Q 335.940179 388.351885 336.446429 388.351885 
z
M 340.606586 380.676103 
L 345.256586 380.676103 
L 344.518304 382.56751 
L 340.606586 382.56751 
L 340.233929 383.556572 
Q 342.760492 383.650322 344.122211 384.815166 
Q 345.242523 385.77376 345.242523 387.203447 
Q 345.242523 388.11751 344.722211 388.994072 
Q 344.201898 389.868291 343.257367 390.341728 
Q 342.312836 390.815166 341.185492 390.815166 
Q 339.969086 390.815166 339.317523 390.360478 
Q 338.862836 390.037041 338.862836 389.626885 
Q 338.862836 389.312822 339.099554 389.071416 
Q 339.338617 388.83001 339.655023 388.83001 
Q 339.940961 388.83001 340.233929 388.947197 
Q 340.526898 389.064385 341.237054 389.56126 
Q 341.682367 389.868291 342.005804 389.985478 
Q 342.233148 390.074541 342.519086 390.074541 
Q 343.119086 390.074541 343.538617 389.63626 
Q 343.960492 389.195635 343.960492 388.579228 
Q 343.960492 387.290166 342.671429 386.48626 
Q 341.382367 385.68001 339.420648 385.68001 
Q 339.221429 385.68001 338.827679 385.687041 
L 340.606586 380.676103 
z
" style="fill: #404040"/>
   </g>
  </g>
 </g>
 <defs>
  <clipPath id="p392621d84e">
   <rect x="7.2" y="51.034687" width="730.764" height="432.785085"/>
  </clipPath>
 </defs>
</svg>
