<?xml version="1.0" encoding="utf-8" standalone="no"?>
<!DOCTYPE svg PUBLIC "-//W3C//DTD SVG 1.1//EN"
  "http://www.w3.org/Graphics/SVG/1.1/DTD/svg11.dtd">
<svg xmlns:xlink="http://www.w3.org/1999/xlink" width="745.164pt" height="496.324398pt" viewBox="0 0 745.164 496.324398" xmlns="http://www.w3.org/2000/svg" version="1.1">
 <metadata>
  <rdf:RDF xmlns:dc="http://purl.org/dc/elements/1.1/" xmlns:cc="http://creativecommons.org/ns#" xmlns:rdf="http://www.w3.org/1999/02/22-rdf-syntax-ns#">
   <cc:Work>
    <dc:type rdf:resource="http://purl.org/dc/dcmitype/StillImage"/>
    <dc:date>2026-07-13T16:59:17.123413</dc:date>
    <dc:format>image/svg+xml</dc:format>
    <dc:creator>
     <cc:Agent>
      <dc:title>Matplotlib v3.10.8, https://matplotlib.org/</dc:title>
     </cc:Agent>
    </dc:creator>
   </cc:Work>
  </rdf:RDF>
 </metadata>
 <defs>
  <style type="text/css">*{stroke-linejoin: round; stroke-linecap: butt}</style>
 </defs>
 <g id="figure_1">
  <g id="patch_1">
   <path d="M 0 496.324398 
L 745.164 496.324398 
L 745.164 0 
L 0 0 
L 0 496.324398 
z
" style="fill: none"/>
  </g>
  <g id="axes_1">
   <g id="patch_2">
    <path d="M 120.350555 426.583619 
Q 120.350555 452.81647 120.350555 476.911642 
" clip-path="url(#paeb8ec4f0d)" style="fill: none; stroke: #111111; stroke-width: 1.911997; stroke-linejoin: miter; stroke-linecap: round"/>
    <path d="M 123.906394 469.799964 
L 120.350555 476.911642 
L 116.794716 469.799964 
z
" clip-path="url(#paeb8ec4f0d)" style="fill: #111111; stroke: #111111; stroke-width: 1.911997; stroke-linejoin: miter; stroke-linecap: round"/>
   </g>
   <g id="patch_3">
    <path d="M 120.350555 322.023306 
Q 120.350555 345.882982 120.350555 366.341574 
" clip-path="url(#paeb8ec4f0d)" style="fill: none; stroke: #111111; stroke-width: 3.042021; stroke-linejoin: miter; stroke-linecap: round"/>
    <path d="M 124.268002 358.506681 
L 120.350555 366.341574 
L 116.433108 358.506681 
z
" clip-path="url(#paeb8ec4f0d)" style="fill: #111111; stroke: #111111; stroke-width: 3.042021; stroke-linejoin: miter; stroke-linecap: round"/>
   </g>
   <g id="patch_4">
    <path d="M 120.350555 226.109151 
Q 120.350555 248.018923 120.350555 265.08754 
" clip-path="url(#paeb8ec4f0d)" style="fill: none; stroke: #111111; stroke-width: 4.33006; stroke-linejoin: miter; stroke-linecap: round"/>
    <path d="M 124.680174 256.428301 
L 120.350555 265.08754 
L 116.020936 256.428301 
z
" clip-path="url(#paeb8ec4f0d)" style="fill: #111111; stroke: #111111; stroke-width: 4.33006; stroke-linejoin: miter; stroke-linecap: round"/>
   </g>
   <g id="patch_5">
    <path d="M 370.224697 266.539389 
Q 370.224697 284.955266 370.224697 300.428371 
" clip-path="url(#paeb8ec4f0d)" style="fill: none; stroke: #111111; stroke-width: 2.632094; stroke-linejoin: miter; stroke-linecap: round"/>
    <path d="M 374.010967 292.855831 
L 370.224697 300.428371 
L 366.438427 292.855831 
z
" clip-path="url(#paeb8ec4f0d)" style="fill: #111111; stroke: #111111; stroke-width: 2.632094; stroke-linejoin: miter; stroke-linecap: round"/>
   </g>
   <g id="patch_6">
    <path d="M 370.224697 189.576271 
Q 370.224697 207.454323 370.224697 220.611839 
" clip-path="url(#paeb8ec4f0d)" style="fill: none; stroke: #111111; stroke-width: 4.222177; stroke-linejoin: miter; stroke-linecap: round"/>
    <path d="M 374.519793 212.021646 
L 370.224697 220.611839 
L 365.9296 212.021646 
z
" clip-path="url(#paeb8ec4f0d)" style="fill: #111111; stroke: #111111; stroke-width: 4.222177; stroke-linejoin: miter; stroke-linecap: round"/>
   </g>
   <g id="patch_7">
    <path d="M 370.224697 114.604776 
Q 370.224697 132.024841 370.224697 142.960308 
" clip-path="url(#paeb8ec4f0d)" style="fill: none; stroke: #111111; stroke-width: 5.8; stroke-linejoin: miter; stroke-linecap: round"/>
    <path d="M 375.024697 133.360308 
L 370.224697 142.960308 
L 365.424697 133.360308 
z
" clip-path="url(#paeb8ec4f0d)" style="fill: #111111; stroke: #111111; stroke-width: 5.8; stroke-linejoin: miter; stroke-linecap: round"/>
   </g>
   <g id="patch_8">
    <path d="M 586.153672 218.157352 
Q 586.153672 240.080963 586.153672 258.028258 
" clip-path="url(#paeb8ec4f0d)" style="fill: none; stroke: #111111; stroke-width: 3.556525; stroke-linejoin: miter; stroke-linecap: round"/>
    <path d="M 590.23576 249.864082 
L 586.153672 258.028258 
L 582.071584 249.864082 
z
" clip-path="url(#paeb8ec4f0d)" style="fill: #111111; stroke: #111111; stroke-width: 3.556525; stroke-linejoin: miter; stroke-linecap: round"/>
   </g>
   <g id="line2d_1">
    <path d="M 165.610777 479.04932 
L 550.322663 479.04932 
" clip-path="url(#paeb8ec4f0d)" style="fill: none; stroke-dasharray: 5.6,4.2; stroke-dashoffset: 0; stroke: #404040; stroke-width: 1.4"/>
   </g>
   <g id="line2d_2">
    <path d="M 165.610777 369.742658 
L 550.322663 369.742658 
" clip-path="url(#paeb8ec4f0d)" style="fill: none; stroke-dasharray: 5.6,4.2; stroke-dashoffset: 0; stroke: #404040; stroke-width: 1.4"/>
   </g>
   <g id="line2d_3">
    <path d="M 415.484919 303.371142 
L 560.694797 303.371142 
" clip-path="url(#paeb8ec4f0d)" style="fill: none; stroke-dasharray: 5.6,4.2; stroke-dashoffset: 0; stroke: #404040; stroke-width: 1.4"/>
   </g>
   <g id="patch_9">
    <path d="M 665.359061 262.004574 
Q 578.173717 368.207003 491.569128 473.702002 
" clip-path="url(#paeb8ec4f0d)" style="fill: none; stroke: #404040; stroke-width: 0.818649; stroke-linejoin: miter; stroke-linecap: round"/>
    <path d="M 497.299245 471.144656 
L 491.569128 473.702002 
L 492.961322 467.583501 
z
" clip-path="url(#paeb8ec4f0d)" style="fill: #404040; stroke: #404040; stroke-width: 0.818649; stroke-linejoin: miter; stroke-linecap: round"/>
   </g>
   <g id="patch_10">
    <path d="M 620.098839 262.004574 
Q 577.780086 313.553999 537.334378 362.821826 
" clip-path="url(#paeb8ec4f0d)" style="fill: none; stroke: #404040; stroke-width: 2.6403; stroke-linejoin: miter; stroke-linecap: round"/>
    <path d="M 544.304393 359.711115 
L 537.334378 362.821826 
L 539.027818 355.379387 
z
" clip-path="url(#paeb8ec4f0d)" style="fill: #404040; stroke: #404040; stroke-width: 2.6403; stroke-linejoin: miter; stroke-linecap: round"/>
   </g>
   <g id="patch_11">
    <path d="M 574.838617 262.004574 
Q 542.0678 281.1736 510.073793 299.888238 
" clip-path="url(#paeb8ec4f0d)" style="fill: none; stroke: #404040; stroke-width: 0.804936; stroke-linejoin: miter; stroke-linecap: round"/>
    <path d="M 516.324977 299.477406 
L 510.073793 299.888238 
L 513.495838 294.640792 
z
" clip-path="url(#paeb8ec4f0d)" style="fill: #404040; stroke: #404040; stroke-width: 0.804936; stroke-linejoin: miter; stroke-linecap: round"/>
   </g>
   <g id="patch_12">
    <path d="M 370.224697 303.371142 
Q 334.944598 334.568874 301.950358 363.74525 
" clip-path="url(#paeb8ec4f0d)" style="fill: none; stroke: #404040; stroke-width: 2.729253; stroke-linejoin: miter; stroke-linecap: round"/>
    <path d="M 309.389738 361.762884 
L 301.950358 363.74525 
L 304.828093 356.604327 
z
" clip-path="url(#paeb8ec4f0d)" style="fill: #404040; stroke: #404040; stroke-width: 2.729253; stroke-linejoin: miter; stroke-linecap: round"/>
   </g>
   <g id="line2d_4">
    <path d="M 120.350555 369.742658 
L 120.350555 422.208359 
" clip-path="url(#paeb8ec4f0d)" style="fill: none; stroke: #111111; stroke-width: 1.911997"/>
   </g>
   <g id="line2d_5">
    <path d="M 120.350555 269.928694 
L 120.350555 317.648046 
" clip-path="url(#paeb8ec4f0d)" style="fill: none; stroke: #111111; stroke-width: 3.042021"/>
   </g>
   <g id="line2d_6">
    <path d="M 120.350555 177.914346 
L 120.350555 221.73389 
" clip-path="url(#paeb8ec4f0d)" style="fill: none; stroke: #111111; stroke-width: 4.33006"/>
   </g>
   <g id="line2d_7">
    <path d="M 370.224697 225.332376 
L 370.224697 262.164128 
" clip-path="url(#paeb8ec4f0d)" style="fill: none; stroke: #111111; stroke-width: 2.632094"/>
   </g>
   <g id="line2d_8">
    <path d="M 370.224697 149.444906 
L 370.224697 185.20101 
" clip-path="url(#paeb8ec4f0d)" style="fill: none; stroke: #111111; stroke-width: 4.222177"/>
   </g>
   <g id="line2d_9">
    <path d="M 370.224697 75.389386 
L 370.224697 110.229515 
" clip-path="url(#paeb8ec4f0d)" style="fill: none; stroke: #111111; stroke-width: 5.8"/>
   </g>
   <g id="line2d_10">
    <path d="M 586.153672 169.93487 
L 586.153672 213.782092 
" clip-path="url(#paeb8ec4f0d)" style="fill: none; stroke: #111111; stroke-width: 3.556525"/>
   </g>
   <g id="line2d_11">
    <path d="M 75.090333 479.04932 
L 165.610777 479.04932 
" clip-path="url(#paeb8ec4f0d)" style="fill: none; stroke: #111111; stroke-width: 3.6; stroke-linecap: round"/>
   </g>
   <g id="line2d_12">
    <path d="M 75.090333 369.742658 
L 165.610777 369.742658 
" clip-path="url(#paeb8ec4f0d)" style="fill: none; stroke: #111111; stroke-width: 3.6; stroke-linecap: round"/>
   </g>
   <g id="line2d_13">
    <path d="M 75.090333 269.928694 
L 165.610777 269.928694 
" clip-path="url(#paeb8ec4f0d)" style="fill: none; stroke: #111111; stroke-width: 3.6; stroke-linecap: round"/>
   </g>
   <g id="line2d_14">
    <path d="M 75.090333 177.914346 
L 165.610777 177.914346 
" clip-path="url(#paeb8ec4f0d)" style="fill: none; stroke: #111111; stroke-width: 3.6; stroke-linecap: round"/>
   </g>
   <g id="line2d_15">
    <path d="M 324.964475 303.371142 
L 415.484919 303.371142 
" clip-path="url(#paeb8ec4f0d)" style="fill: none; stroke: #111111; stroke-width: 3.6; stroke-linecap: round"/>
   </g>
   <g id="line2d_16">
    <path d="M 324.964475 225.332376 
L 415.484919 225.332376 
" clip-path="url(#paeb8ec4f0d)" style="fill: none; stroke: #111111; stroke-width: 3.6; stroke-linecap: round"/>
   </g>
   <g id="line2d_17">
    <path d="M 324.964475 149.444906 
L 415.484919 149.444906 
" clip-path="url(#paeb8ec4f0d)" style="fill: none; stroke: #111111; stroke-width: 3.6; stroke-linecap: round"/>
   </g>
   <g id="line2d_18">
    <path d="M 324.964475 75.389386 
L 415.484919 75.389386 
" clip-path="url(#paeb8ec4f0d)" style="fill: none; stroke: #111111; stroke-width: 3.6; stroke-linecap: round"/>
   </g>
   <g id="line2d_19">
    <path d="M 574.838617 262.004574 
L 665.359061 262.004574 
" clip-path="url(#paeb8ec4f0d)" style="fill: none; stroke: #111111; stroke-width: 3.6; stroke-linecap: round"/>
   </g>
   <g id="line2d_20">
    <path d="M 574.838617 169.93487 
L 665.359061 169.93487 
" clip-path="url(#paeb8ec4f0d)" style="fill: none; stroke: #111111; stroke-width: 3.6; stroke-linecap: round"/>
   </g>
   <g id="text_1">
    <!-- $^{278}\mathrm{U}$ -->
    <g transform="translate(336.712 33.034687) scale(0.34 -0.34)">
     <defs>
      <path id="DejaVuSans-32" d="M 1228 531 
L 3431 531 
L 3431 0 
L 469 0 
L 469 531 
Q 828 903 1448 1529 
Q 2069 2156 2228 2338 
Q 2531 2678 2651 2914 
Q 2772 3150 2772 3378 
Q 2772 3750 2511 3984 
Q 2250 4219 1831 4219 
Q 1534 4219 1204 4116 
Q 875 4013 500 3803 
L 500 4441 
Q 881 4594 1212 4672 
Q 1544 4750 1819 4750 
Q 2544 4750 2975 4387 
Q 3406 4025 3406 3419 
Q 3406 3131 3298 2873 
Q 3191 2616 2906 2266 
Q 2828 2175 2409 1742 
Q 1991 1309 1228 531 
z
" transform="scale(0.015625)"/>
      <path id="DejaVuSans-37" d="M 525 4666 
L 3525 4666 
L 3525 4397 
L 1831 0 
L 1172 0 
L 2766 4134 
L 525 4134 
L 525 4666 
z
" transform="scale(0.015625)"/>
      <path id="DejaVuSans-38" d="M 2034 2216 
Q 1584 2216 1326 1975 
Q 1069 1734 1069 1313 
Q 1069 891 1326 650 
Q 1584 409 2034 409 
Q 2484 409 2743 651 
Q 3003 894 3003 1313 
Q 3003 1734 2745 1975 
Q 2488 2216 2034 2216 
z
M 1403 2484 
Q 997 2584 770 2862 
Q 544 3141 544 3541 
Q 544 4100 942 4425 
Q 1341 4750 2034 4750 
Q 2731 4750 3128 4425 
Q 3525 4100 3525 3541 
Q 3525 3141 3298 2862 
Q 3072 2584 2669 2484 
Q 3125 2378 3379 2068 
Q 3634 1759 3634 1313 
Q 3634 634 3220 271 
Q 2806 -91 2034 -91 
Q 1263 -91 848 271 
Q 434 634 434 1313 
Q 434 1759 690 2068 
Q 947 2378 1403 2484 
z
M 1172 3481 
Q 1172 3119 1398 2916 
Q 1625 2713 2034 2713 
Q 2441 2713 2670 2916 
Q 2900 3119 2900 3481 
Q 2900 3844 2670 4047 
Q 2441 4250 2034 4250 
Q 1625 4250 1398 4047 
Q 1172 3844 1172 3481 
z
" transform="scale(0.015625)"/>
      <path id="DejaVuSans-55" d="M 556 4666 
L 1191 4666 
L 1191 1831 
Q 1191 1081 1462 751 
Q 1734 422 2344 422 
Q 2950 422 3222 751 
Q 3494 1081 3494 1831 
L 3494 4666 
L 4128 4666 
L 4128 1753 
Q 4128 841 3676 375 
Q 3225 -91 2344 -91 
Q 1459 -91 1007 375 
Q 556 841 556 1753 
L 556 4666 
z
" transform="scale(0.015625)"/>
     </defs>
     <use xlink:href="#DejaVuSans-32" transform="translate(0.957031 39.046875) scale(0.7)"/>
     <use xlink:href="#DejaVuSans-37" transform="translate(45.493164 39.046875) scale(0.7)"/>
     <use xlink:href="#DejaVuSans-38" transform="translate(90.029297 39.046875) scale(0.7)"/>
     <use xlink:href="#DejaVuSans-55" transform="translate(137.299805 0.765625)"/>
    </g>
   </g>
   <g id="text_2">
    <!-- 0 -->
    <g transform="translate(46.98525 483.46432) scale(0.16 -0.16)">
     <defs>
      <path id="DejaVuSans-BoldOblique-30" d="M 1913 728 
Q 2153 728 2339 872 
Q 2525 1016 2650 1294 
Q 2738 1491 2809 1742 
Q 2881 1994 2944 2338 
Q 2997 2616 3025 2850 
Q 3053 3084 3053 3250 
Q 3053 3600 2928 3764 
Q 2803 3928 2541 3928 
Q 2297 3928 2112 3789 
Q 1928 3650 1806 3366 
Q 1713 3163 1636 2903 
Q 1559 2644 1503 2338 
Q 1450 2056 1422 1815 
Q 1394 1575 1394 1409 
Q 1394 1063 1522 895 
Q 1650 728 1913 728 
z
M 4225 3072 
Q 4225 2450 4053 1862 
Q 3881 1275 3572 831 
Q 3256 375 2809 142 
Q 2363 -91 1813 -91 
Q 1047 -91 639 343 
Q 231 778 231 1594 
Q 231 2206 401 2795 
Q 572 3384 878 3822 
Q 1200 4281 1644 4515 
Q 2088 4750 2644 4750 
Q 3403 4750 3814 4314 
Q 4225 3878 4225 3072 
z
" transform="scale(0.015625)"/>
     </defs>
     <use xlink:href="#DejaVuSans-BoldOblique-30"/>
    </g>
   </g>
   <g id="text_3">
    <!-- 0⁺ -->
    <g transform="translate(182.58336 484.204554) scale(0.23 -0.23)">
     <defs>
      <path id="TimesNewRomanPS-BoldMT-30" d="M 2966 2119 
Q 2966 1484 2788 934 
Q 2681 597 2501 381 
Q 2322 166 2094 39 
Q 1866 -88 1597 -88 
Q 1291 -88 1044 68 
Q 797 225 606 516 
Q 469 728 366 1081 
Q 231 1559 231 2069 
Q 231 2759 425 3338 
Q 584 3816 909 4070 
Q 1234 4325 1597 4325 
Q 1966 4325 2286 4073 
Q 2606 3822 2756 3397 
Q 2966 2813 2966 2119 
z
M 2003 2125 
Q 2003 3238 1991 3422 
Q 1959 3856 1841 4009 
Q 1763 4109 1588 4109 
Q 1453 4109 1375 4034 
Q 1259 3925 1218 3648 
Q 1178 3372 1178 1719 
Q 1178 819 1241 513 
Q 1288 291 1375 216 
Q 1463 141 1606 141 
Q 1763 141 1841 241 
Q 1972 416 1991 781 
L 2003 2125 
z
" transform="scale(0.015625)"/>
      <path id="DejaVuSerif-Bold-207a" d="M 1916 4344 
L 1916 3441 
L 2950 3441 
L 2950 3044 
L 1916 3044 
L 1916 2141 
L 1463 2141 
L 1463 3044 
L 428 3044 
L 428 3441 
L 1463 3441 
L 1463 4344 
L 1916 4344 
z
" transform="scale(0.015625)"/>
     </defs>
     <use xlink:href="#TimesNewRomanPS-BoldMT-30"/>
     <use xlink:href="#DejaVuSerif-Bold-207a" transform="translate(50 0)"/>
    </g>
   </g>
   <g id="text_4">
    <!-- 2298 -->
    <g transform="translate(13.58775 374.157658) scale(0.16 -0.16)">
     <defs>
      <path id="DejaVuSans-BoldOblique-32" d="M 1581 884 
L 3609 884 
L 3438 0 
L 50 0 
L 225 891 
L 2209 2388 
Q 2534 2638 2704 2894 
Q 2875 3150 2875 3391 
Q 2875 3647 2700 3787 
Q 2525 3928 2209 3928 
Q 1913 3928 1547 3811 
Q 1181 3694 722 3450 
L 922 4441 
Q 1347 4597 1756 4673 
Q 2166 4750 2566 4750 
Q 3278 4750 3687 4442 
Q 4097 4134 4097 3603 
Q 4097 3147 3847 2772 
Q 3597 2397 2747 1759 
L 1581 884 
z
" transform="scale(0.015625)"/>
      <path id="DejaVuSans-BoldOblique-39" d="M 263 103 
L 428 966 
Q 700 825 953 758 
Q 1206 691 1459 691 
Q 2041 691 2400 1003 
Q 2759 1316 2834 1881 
Q 2594 1722 2337 1645 
Q 2081 1569 1791 1569 
Q 1219 1569 853 1909 
Q 488 2250 488 2778 
Q 488 3641 1052 4192 
Q 1616 4744 2503 4744 
Q 3300 4744 3736 4292 
Q 4172 3841 4172 3016 
Q 4172 2381 3978 1801 
Q 3784 1222 3431 800 
Q 3056 353 2548 128 
Q 2041 -97 1403 -97 
Q 1106 -97 825 -47 
Q 544 3 263 103 
z
M 2169 2344 
Q 2525 2344 2753 2637 
Q 2981 2931 2981 3391 
Q 2981 3675 2845 3828 
Q 2709 3981 2456 3981 
Q 2103 3981 1870 3690 
Q 1638 3400 1638 2963 
Q 1638 2663 1775 2503 
Q 1913 2344 2169 2344 
z
" transform="scale(0.015625)"/>
      <path id="DejaVuSans-BoldOblique-38" d="M 2150 2088 
Q 1784 2088 1539 1839 
Q 1294 1591 1294 1228 
Q 1294 969 1453 817 
Q 1613 666 1888 666 
Q 2259 666 2503 911 
Q 2747 1156 2747 1522 
Q 2747 1781 2586 1934 
Q 2425 2088 2150 2088 
z
M 1381 2484 
Q 1044 2625 876 2850 
Q 709 3075 709 3391 
Q 709 4025 1229 4387 
Q 1750 4750 2669 4750 
Q 3406 4750 3812 4475 
Q 4219 4200 4219 3700 
Q 4219 3256 3936 2940 
Q 3653 2625 3128 2484 
Q 3509 2338 3690 2091 
Q 3872 1844 3872 1466 
Q 3872 747 3311 328 
Q 2750 -91 1772 -91 
Q 1000 -91 570 217 
Q 141 525 141 1075 
Q 141 1572 470 1945 
Q 800 2319 1381 2484 
z
M 2559 3994 
Q 2241 3994 2048 3808 
Q 1856 3622 1856 3316 
Q 1856 3103 1995 2972 
Q 2134 2841 2363 2841 
Q 2681 2841 2873 3027 
Q 3066 3213 3066 3519 
Q 3066 3734 2927 3864 
Q 2788 3994 2559 3994 
z
" transform="scale(0.015625)"/>
     </defs>
     <use xlink:href="#DejaVuSans-BoldOblique-32"/>
     <use xlink:href="#DejaVuSans-BoldOblique-32" transform="translate(69.580078 0)"/>
     <use xlink:href="#DejaVuSans-BoldOblique-39" transform="translate(139.160156 0)"/>
     <use xlink:href="#DejaVuSans-BoldOblique-38" transform="translate(208.740234 0)"/>
    </g>
   </g>
   <g id="text_5">
    <!-- 2⁺ -->
    <g transform="translate(182.58336 374.897892) scale(0.23 -0.23)">
     <defs>
      <path id="TimesNewRomanPS-BoldMT-32" d="M 2650 0 
L 156 0 
L 156 69 
Q 1303 1434 1548 1906 
Q 1794 2378 1794 2828 
Q 1794 3156 1591 3373 
Q 1388 3591 1094 3591 
Q 613 3591 347 3109 
L 231 3150 
Q 400 3750 744 4037 
Q 1088 4325 1538 4325 
Q 1859 4325 2125 4175 
Q 2391 4025 2541 3764 
Q 2691 3503 2691 3275 
Q 2691 2859 2459 2431 
Q 2144 1853 1081 819 
L 1997 819 
Q 2334 819 2436 847 
Q 2538 875 2603 942 
Q 2669 1009 2775 1225 
L 2888 1225 
L 2650 0 
z
" transform="scale(0.015625)"/>
     </defs>
     <use xlink:href="#TimesNewRomanPS-BoldMT-32"/>
     <use xlink:href="#DejaVuSerif-Bold-207a" transform="translate(50 0)"/>
    </g>
   </g>
   <g id="text_6">
    <!-- 4397 -->
    <g transform="translate(13.58775 274.343694) scale(0.16 -0.16)">
     <defs>
      <path id="DejaVuSans-BoldOblique-34" d="M 2638 3641 
L 978 1722 
L 2259 1722 
L 2638 3641 
z
M 2606 4666 
L 3975 4666 
L 3397 1722 
L 4063 1722 
L 3897 850 
L 3231 850 
L 3066 0 
L 1925 0 
L 2094 850 
L -6 850 
L 197 1881 
L 2606 4666 
z
" transform="scale(0.015625)"/>
      <path id="DejaVuSans-BoldOblique-33" d="M 3022 2516 
Q 3375 2434 3572 2187 
Q 3769 1941 3769 1581 
Q 3769 806 3155 357 
Q 2541 -91 1466 -91 
Q 1059 -91 692 -33 
Q 325 25 0 141 
L 178 1069 
Q 456 906 784 817 
Q 1113 728 1441 728 
Q 1969 728 2276 926 
Q 2584 1125 2584 1459 
Q 2584 1738 2350 1877 
Q 2116 2016 1644 2016 
L 1166 2016 
L 1319 2791 
L 1825 2791 
Q 2316 2791 2602 2969 
Q 2888 3147 2888 3450 
Q 2888 3688 2689 3813 
Q 2491 3938 2113 3938 
Q 1847 3938 1534 3869 
Q 1222 3800 884 3669 
L 1056 4550 
Q 1425 4650 1783 4700 
Q 2141 4750 2491 4750 
Q 3281 4750 3679 4487 
Q 4078 4225 4078 3706 
Q 4078 3241 3801 2930 
Q 3525 2619 3022 2516 
z
" transform="scale(0.015625)"/>
      <path id="DejaVuSans-BoldOblique-37" d="M 922 4666 
L 4441 4666 
L 4300 3981 
L 1703 0 
L 500 0 
L 2969 3781 
L 756 3781 
L 922 4666 
z
" transform="scale(0.015625)"/>
     </defs>
     <use xlink:href="#DejaVuSans-BoldOblique-34"/>
     <use xlink:href="#DejaVuSans-BoldOblique-33" transform="translate(69.580078 0)"/>
     <use xlink:href="#DejaVuSans-BoldOblique-39" transform="translate(139.160156 0)"/>
     <use xlink:href="#DejaVuSans-BoldOblique-37" transform="translate(208.740234 0)"/>
    </g>
   </g>
   <g id="text_7">
    <!-- 4⁺ -->
    <g transform="translate(182.58336 275.083929) scale(0.23 -0.23)">
     <defs>
      <path id="TimesNewRomanPS-BoldMT-34" d="M 159 1597 
L 2172 4325 
L 2553 4325 
L 2553 1597 
L 2941 1597 
L 2941 950 
L 2553 950 
L 2553 0 
L 1694 0 
L 1694 950 
L 159 950 
L 159 1597 
z
M 463 1597 
L 1694 1597 
L 1694 3269 
L 463 1597 
z
" transform="scale(0.015625)"/>
     </defs>
     <use xlink:href="#TimesNewRomanPS-BoldMT-34"/>
     <use xlink:href="#DejaVuSerif-Bold-207a" transform="translate(50 0)"/>
    </g>
   </g>
   <g id="text_8">
    <!-- 6332 -->
    <g transform="translate(13.58775 182.329346) scale(0.16 -0.16)">
     <defs>
      <path id="DejaVuSans-BoldOblique-36" d="M 2316 2303 
Q 1959 2303 1731 2009 
Q 1503 1716 1503 1253 
Q 1503 975 1643 820 
Q 1784 666 2034 666 
Q 2388 666 2617 955 
Q 2847 1244 2847 1684 
Q 2847 1984 2709 2143 
Q 2572 2303 2316 2303 
z
M 4225 4544 
L 4056 3681 
Q 3788 3819 3534 3887 
Q 3281 3956 3028 3956 
Q 2447 3956 2087 3643 
Q 1728 3331 1650 2766 
Q 1894 2925 2151 3001 
Q 2409 3078 2700 3078 
Q 3275 3078 3640 2737 
Q 4006 2397 4006 1869 
Q 4006 1006 3442 454 
Q 2878 -97 1991 -97 
Q 1194 -97 756 354 
Q 319 806 319 1631 
Q 319 2269 512 2848 
Q 706 3428 1056 3847 
Q 1431 4294 1942 4519 
Q 2453 4744 3091 4744 
Q 3384 4744 3662 4694 
Q 3941 4644 4225 4544 
z
" transform="scale(0.015625)"/>
     </defs>
     <use xlink:href="#DejaVuSans-BoldOblique-36"/>
     <use xlink:href="#DejaVuSans-BoldOblique-33" transform="translate(69.580078 0)"/>
     <use xlink:href="#DejaVuSans-BoldOblique-33" transform="translate(139.160156 0)"/>
     <use xlink:href="#DejaVuSans-BoldOblique-32" transform="translate(208.740234 0)"/>
    </g>
   </g>
   <g id="text_9">
    <!-- 6⁺ -->
    <g transform="translate(182.58336 183.069581) scale(0.23 -0.23)">
     <defs>
      <path id="TimesNewRomanPS-BoldMT-36" d="M 3006 4325 
L 3006 4238 
Q 2441 4094 2098 3867 
Q 1756 3641 1557 3317 
Q 1359 2994 1250 2516 
Q 1388 2609 1478 2638 
Q 1681 2700 1888 2700 
Q 2363 2700 2680 2354 
Q 2997 2009 2997 1413 
Q 2997 994 2825 644 
Q 2653 294 2337 103 
Q 2022 -88 1663 -88 
Q 1272 -88 940 126 
Q 609 341 423 753 
Q 238 1166 238 1650 
Q 238 2363 580 2977 
Q 922 3591 1551 3955 
Q 2181 4319 3006 4325 
z
M 1209 2263 
Q 1184 1831 1184 1631 
Q 1184 1200 1267 797 
Q 1350 394 1494 231 
Q 1597 116 1738 116 
Q 1881 116 1993 283 
Q 2106 450 2106 963 
Q 2106 1825 1897 2153 
Q 1763 2366 1534 2366 
Q 1409 2366 1209 2263 
z
" transform="scale(0.015625)"/>
     </defs>
     <use xlink:href="#TimesNewRomanPS-BoldMT-36"/>
     <use xlink:href="#DejaVuSerif-Bold-207a" transform="translate(50 0)"/>
    </g>
   </g>
   <g id="text_10">
    <!-- 3694 -->
    <g transform="translate(263.461892 307.786142) scale(0.16 -0.16)">
     <use xlink:href="#DejaVuSans-BoldOblique-33"/>
     <use xlink:href="#DejaVuSans-BoldOblique-36" transform="translate(69.580078 0)"/>
     <use xlink:href="#DejaVuSans-BoldOblique-39" transform="translate(139.160156 0)"/>
     <use xlink:href="#DejaVuSans-BoldOblique-34" transform="translate(208.740234 0)"/>
    </g>
   </g>
   <g id="text_11">
    <!-- 0⁺ -->
    <g transform="translate(432.457502 308.526377) scale(0.23 -0.23)">
     <use xlink:href="#TimesNewRomanPS-BoldMT-30"/>
     <use xlink:href="#DejaVuSerif-Bold-207a" transform="translate(50 0)"/>
    </g>
   </g>
   <g id="text_12">
    <!-- 5335 -->
    <g transform="translate(263.461892 229.747376) scale(0.16 -0.16)">
     <defs>
      <path id="DejaVuSans-BoldOblique-35" d="M 1131 4666 
L 4122 4666 
L 3950 3781 
L 1919 3781 
L 1778 3059 
Q 1916 3097 2064 3117 
Q 2213 3138 2363 3138 
Q 3078 3138 3481 2811 
Q 3884 2484 3884 1906 
Q 3884 988 3262 448 
Q 2641 -91 1575 -91 
Q 1184 -91 815 -14 
Q 447 63 84 219 
L 269 1166 
Q 616 941 942 834 
Q 1269 728 1606 728 
Q 2100 728 2397 986 
Q 2694 1244 2694 1663 
Q 2694 1963 2469 2139 
Q 2244 2316 1856 2316 
Q 1594 2316 1289 2248 
Q 984 2181 622 2041 
L 1131 4666 
z
" transform="scale(0.015625)"/>
     </defs>
     <use xlink:href="#DejaVuSans-BoldOblique-35"/>
     <use xlink:href="#DejaVuSans-BoldOblique-33" transform="translate(69.580078 0)"/>
     <use xlink:href="#DejaVuSans-BoldOblique-33" transform="translate(139.160156 0)"/>
     <use xlink:href="#DejaVuSans-BoldOblique-35" transform="translate(208.740234 0)"/>
    </g>
   </g>
   <g id="text_13">
    <!-- 2⁺ -->
    <g transform="translate(432.457502 230.48761) scale(0.23 -0.23)">
     <use xlink:href="#TimesNewRomanPS-BoldMT-32"/>
     <use xlink:href="#DejaVuSerif-Bold-207a" transform="translate(50 0)"/>
    </g>
   </g>
   <g id="text_14">
    <!-- 6931 -->
    <g transform="translate(263.461892 153.859906) scale(0.16 -0.16)">
     <defs>
      <path id="DejaVuSans-BoldOblique-31" d="M 441 831 
L 1503 831 
L 2088 3847 
L 953 3622 
L 1113 4441 
L 2241 4666 
L 3384 4666 
L 2644 831 
L 3700 831 
L 3541 0 
L 275 0 
L 441 831 
z
" transform="scale(0.015625)"/>
     </defs>
     <use xlink:href="#DejaVuSans-BoldOblique-36"/>
     <use xlink:href="#DejaVuSans-BoldOblique-39" transform="translate(69.580078 0)"/>
     <use xlink:href="#DejaVuSans-BoldOblique-33" transform="translate(139.160156 0)"/>
     <use xlink:href="#DejaVuSans-BoldOblique-31" transform="translate(208.740234 0)"/>
    </g>
   </g>
   <g id="text_15">
    <!-- 4⁺ -->
    <g transform="translate(432.457502 154.60014) scale(0.23 -0.23)">
     <use xlink:href="#TimesNewRomanPS-BoldMT-34"/>
     <use xlink:href="#DejaVuSerif-Bold-207a" transform="translate(50 0)"/>
    </g>
   </g>
   <g id="text_16">
    <!-- 8488 -->
    <g transform="translate(263.461892 79.804386) scale(0.16 -0.16)">
     <use xlink:href="#DejaVuSans-BoldOblique-38"/>
     <use xlink:href="#DejaVuSans-BoldOblique-34" transform="translate(69.580078 0)"/>
     <use xlink:href="#DejaVuSans-BoldOblique-38" transform="translate(139.160156 0)"/>
     <use xlink:href="#DejaVuSans-BoldOblique-38" transform="translate(208.740234 0)"/>
    </g>
   </g>
   <g id="text_17">
    <!-- 6⁺ -->
    <g transform="translate(432.457502 80.54462) scale(0.23 -0.23)">
     <use xlink:href="#TimesNewRomanPS-BoldMT-36"/>
     <use xlink:href="#DejaVuSerif-Bold-207a" transform="translate(50 0)"/>
    </g>
   </g>
   <g id="text_18">
    <!-- 4564 -->
    <g transform="translate(513.336034 266.419574) scale(0.16 -0.16)">
     <use xlink:href="#DejaVuSans-BoldOblique-34"/>
     <use xlink:href="#DejaVuSans-BoldOblique-35" transform="translate(69.580078 0)"/>
     <use xlink:href="#DejaVuSans-BoldOblique-36" transform="translate(139.160156 0)"/>
     <use xlink:href="#DejaVuSans-BoldOblique-34" transform="translate(208.740234 0)"/>
    </g>
   </g>
   <g id="text_19">
    <!-- 2⁺ -->
    <g transform="translate(682.331644 267.159809) scale(0.23 -0.23)">
     <use xlink:href="#TimesNewRomanPS-BoldMT-32"/>
     <use xlink:href="#DejaVuSerif-Bold-207a" transform="translate(50 0)"/>
    </g>
   </g>
   <g id="text_20">
    <!-- 6500 -->
    <g transform="translate(513.336034 174.34987) scale(0.16 -0.16)">
     <use xlink:href="#DejaVuSans-BoldOblique-36"/>
     <use xlink:href="#DejaVuSans-BoldOblique-35" transform="translate(69.580078 0)"/>
     <use xlink:href="#DejaVuSans-BoldOblique-30" transform="translate(139.160156 0)"/>
     <use xlink:href="#DejaVuSans-BoldOblique-30" transform="translate(208.740234 0)"/>
    </g>
   </g>
   <g id="text_21">
    <!-- 3⁺ -->
    <g transform="translate(682.331644 175.090104) scale(0.23 -0.23)">
     <defs>
      <path id="TimesNewRomanPS-BoldMT-33" d="M 947 2125 
L 947 2234 
Q 1303 2338 1440 2427 
Q 1578 2516 1678 2698 
Q 1778 2881 1778 3069 
Q 1778 3328 1589 3514 
Q 1400 3700 1119 3700 
Q 681 3700 375 3238 
L 259 3278 
Q 484 3800 836 4062 
Q 1188 4325 1619 4325 
Q 2059 4325 2345 4056 
Q 2631 3788 2631 3428 
Q 2631 3194 2498 2976 
Q 2366 2759 2081 2594 
Q 2447 2416 2639 2155 
Q 2831 1894 2831 1500 
Q 2831 838 2351 373 
Q 1872 -91 1066 -91 
Q 528 -91 281 88 
Q 103 213 103 409 
Q 103 553 206 654 
Q 309 756 444 756 
Q 547 756 638 713 
Q 688 688 992 439 
Q 1297 191 1563 191 
Q 1794 191 1959 373 
Q 2125 556 2125 838 
Q 2125 1266 1825 1627 
Q 1525 1988 947 2125 
z
" transform="scale(0.015625)"/>
     </defs>
     <use xlink:href="#TimesNewRomanPS-BoldMT-33"/>
     <use xlink:href="#DejaVuSerif-Bold-207a" transform="translate(50 0)"/>
    </g>
   </g>
   <g id="text_22">
    <path d="M 111.560555 417.169739 
L 111.560555 425.834739 
Q 111.560555 426.809739 111.645555 427.079739 
Q 111.733055 427.349739 112.005555 427.522239 
Q 112.280555 427.692239 112.883055 427.692239 
L 113.123055 427.692239 
L 113.123055 427.982239 
L 107.545555 427.982239 
L 107.545555 427.692239 
L 107.828055 427.692239 
Q 108.508055 427.692239 108.795555 427.537239 
Q 109.085555 427.379739 109.185555 427.107239 
Q 109.288055 426.834739 109.288055 425.834739 
L 109.288055 420.342239 
Q 109.288055 419.607239 109.218055 419.424739 
Q 109.148055 419.239739 108.955555 419.112239 
Q 108.765555 418.982239 108.515555 418.982239 
Q 108.115555 418.982239 107.545555 419.232239 
L 107.405555 418.949739 
L 111.303055 417.169739 
L 111.560555 417.169739 
z
M 116.718055 422.669739 
L 116.718055 422.397239 
Q 117.608055 422.137239 117.950555 421.914739 
Q 118.295555 421.692239 118.545555 421.237239 
Q 118.795555 420.779739 118.795555 420.309739 
Q 118.795555 419.662239 118.323055 419.197239 
Q 117.850555 418.732239 117.148055 418.732239 
Q 116.053055 418.732239 115.288055 419.887239 
L 114.998055 419.787239 
Q 115.560555 418.482239 116.440555 417.827239 
Q 117.320555 417.169739 118.398055 417.169739 
Q 119.498055 417.169739 120.213055 417.842239 
Q 120.928055 418.512239 120.928055 419.412239 
Q 120.928055 419.997239 120.595555 420.542239 
Q 120.265555 421.084739 119.553055 421.497239 
Q 120.468055 421.942239 120.948055 422.594739 
Q 121.428055 423.247239 121.428055 424.232239 
Q 121.428055 425.887239 120.228055 427.049739 
Q 119.030555 428.209739 117.015555 428.209739 
Q 115.670555 428.209739 115.053055 427.762239 
Q 114.608055 427.449739 114.608055 426.959739 
Q 114.608055 426.599739 114.865555 426.347239 
Q 115.123055 426.092239 115.460555 426.092239 
Q 115.718055 426.092239 115.945555 426.199739 
Q 116.070555 426.262239 116.830555 426.884739 
Q 117.593055 427.504739 118.258055 427.504739 
Q 118.835555 427.504739 119.248055 427.049739 
Q 119.663055 426.592239 119.663055 425.887239 
Q 119.663055 424.817239 118.913055 423.914739 
Q 118.163055 423.012239 116.718055 422.669739 
z
M 124.350555 425.574739 
Q 124.898055 425.574739 125.275555 425.959739 
Q 125.655555 426.342239 125.655555 426.879739 
Q 125.655555 427.419739 125.273055 427.799739 
Q 124.890555 428.177239 124.350555 428.177239 
Q 123.810555 428.177239 123.430555 427.799739 
Q 123.053055 427.419739 123.053055 426.879739 
Q 123.053055 426.342239 123.430555 425.959739 
Q 123.810555 425.574739 124.350555 425.574739 
z
M 128.788055 417.387239 
L 133.748055 417.387239 
L 132.960555 419.404739 
L 128.788055 419.404739 
L 128.390555 420.459739 
Q 131.085555 420.559739 132.538055 421.802239 
Q 133.733055 422.824739 133.733055 424.349739 
Q 133.733055 425.324739 133.178055 426.259739 
Q 132.623055 427.192239 131.615555 427.697239 
Q 130.608055 428.202239 129.405555 428.202239 
Q 128.108055 428.202239 127.413055 427.717239 
Q 126.928055 427.372239 126.928055 426.934739 
Q 126.928055 426.599739 127.180555 426.342239 
Q 127.435555 426.084739 127.773055 426.084739 
Q 128.078055 426.084739 128.390555 426.209739 
Q 128.703055 426.334739 129.460555 426.864739 
Q 129.935555 427.192239 130.280555 427.317239 
Q 130.523055 427.412239 130.828055 427.412239 
Q 131.468055 427.412239 131.915555 426.944739 
Q 132.365555 426.474739 132.365555 425.817239 
Q 132.365555 424.442239 130.990555 423.584739 
Q 129.615555 422.724739 127.523055 422.724739 
Q 127.310555 422.724739 126.890555 422.732239 
L 128.788055 417.387239 
z
" style="stroke: #ffffff; stroke-width: 3.8"/>
    <path d="M 111.560555 417.169739 
L 111.560555 425.834739 
Q 111.560555 426.809739 111.645555 427.079739 
Q 111.733055 427.349739 112.005555 427.522239 
Q 112.280555 427.692239 112.883055 427.692239 
L 113.123055 427.692239 
L 113.123055 427.982239 
L 107.545555 427.982239 
L 107.545555 427.692239 
L 107.828055 427.692239 
Q 108.508055 427.692239 108.795555 427.537239 
Q 109.085555 427.379739 109.185555 427.107239 
Q 109.288055 426.834739 109.288055 425.834739 
L 109.288055 420.342239 
Q 109.288055 419.607239 109.218055 419.424739 
Q 109.148055 419.239739 108.955555 419.112239 
Q 108.765555 418.982239 108.515555 418.982239 
Q 108.115555 418.982239 107.545555 419.232239 
L 107.405555 418.949739 
L 111.303055 417.169739 
L 111.560555 417.169739 
z
M 116.718055 422.669739 
L 116.718055 422.397239 
Q 117.608055 422.137239 117.950555 421.914739 
Q 118.295555 421.692239 118.545555 421.237239 
Q 118.795555 420.779739 118.795555 420.309739 
Q 118.795555 419.662239 118.323055 419.197239 
Q 117.850555 418.732239 117.148055 418.732239 
Q 116.053055 418.732239 115.288055 419.887239 
L 114.998055 419.787239 
Q 115.560555 418.482239 116.440555 417.827239 
Q 117.320555 417.169739 118.398055 417.169739 
Q 119.498055 417.169739 120.213055 417.842239 
Q 120.928055 418.512239 120.928055 419.412239 
Q 120.928055 419.997239 120.595555 420.542239 
Q 120.265555 421.084739 119.553055 421.497239 
Q 120.468055 421.942239 120.948055 422.594739 
Q 121.428055 423.247239 121.428055 424.232239 
Q 121.428055 425.887239 120.228055 427.049739 
Q 119.030555 428.209739 117.015555 428.209739 
Q 115.670555 428.209739 115.053055 427.762239 
Q 114.608055 427.449739 114.608055 426.959739 
Q 114.608055 426.599739 114.865555 426.347239 
Q 115.123055 426.092239 115.460555 426.092239 
Q 115.718055 426.092239 115.945555 426.199739 
Q 116.070555 426.262239 116.830555 426.884739 
Q 117.593055 427.504739 118.258055 427.504739 
Q 118.835555 427.504739 119.248055 427.049739 
Q 119.663055 426.592239 119.663055 425.887239 
Q 119.663055 424.817239 118.913055 423.914739 
Q 118.163055 423.012239 116.718055 422.669739 
z
M 124.350555 425.574739 
Q 124.898055 425.574739 125.275555 425.959739 
Q 125.655555 426.342239 125.655555 426.879739 
Q 125.655555 427.419739 125.273055 427.799739 
Q 124.890555 428.177239 124.350555 428.177239 
Q 123.810555 428.177239 123.430555 427.799739 
Q 123.053055 427.419739 123.053055 426.879739 
Q 123.053055 426.342239 123.430555 425.959739 
Q 123.810555 425.574739 124.350555 425.574739 
z
M 128.788055 417.387239 
L 133.748055 417.387239 
L 132.960555 419.404739 
L 128.788055 419.404739 
L 128.390555 420.459739 
Q 131.085555 420.559739 132.538055 421.802239 
Q 133.733055 422.824739 133.733055 424.349739 
Q 133.733055 425.324739 133.178055 426.259739 
Q 132.623055 427.192239 131.615555 427.697239 
Q 130.608055 428.202239 129.405555 428.202239 
Q 128.108055 428.202239 127.413055 427.717239 
Q 126.928055 427.372239 126.928055 426.934739 
Q 126.928055 426.599739 127.180555 426.342239 
Q 127.435555 426.084739 127.773055 426.084739 
Q 128.078055 426.084739 128.390555 426.209739 
Q 128.703055 426.334739 129.460555 426.864739 
Q 129.935555 427.192239 130.280555 427.317239 
Q 130.523055 427.412239 130.828055 427.412239 
Q 131.468055 427.412239 131.915555 426.944739 
Q 132.365555 426.474739 132.365555 425.817239 
Q 132.365555 424.442239 130.990555 423.584739 
Q 129.615555 422.724739 127.523055 422.724739 
Q 127.310555 422.724739 126.890555 422.732239 
L 128.788055 417.387239 
z
"/>
   </g>
   <g id="text_23">
    <path d="M 112.975555 323.421926 
L 106.740555 323.421926 
L 106.740555 323.249426 
Q 109.608055 319.836926 110.220555 318.656926 
Q 110.835555 317.476926 110.835555 316.351926 
Q 110.835555 315.531926 110.328055 314.989426 
Q 109.820555 314.444426 109.085555 314.444426 
Q 107.883055 314.444426 107.218055 315.649426 
L 106.928055 315.546926 
Q 107.350555 314.046926 108.210555 313.329426 
Q 109.070555 312.609426 110.195555 312.609426 
Q 110.998055 312.609426 111.663055 312.984426 
Q 112.328055 313.359426 112.703055 314.011926 
Q 113.078055 314.664426 113.078055 315.234426 
Q 113.078055 316.274426 112.498055 317.344426 
Q 111.710555 318.789426 109.053055 321.374426 
L 111.343055 321.374426 
Q 112.185555 321.374426 112.440555 321.304426 
Q 112.695555 321.234426 112.858055 321.066926 
Q 113.023055 320.899426 113.288055 320.359426 
L 113.570555 320.359426 
L 112.975555 323.421926 
z
M 117.185555 323.641926 
L 120.070555 314.899426 
L 117.873055 314.899426 
Q 116.585555 314.899426 115.935555 315.234426 
Q 115.483055 315.469426 115.185555 316.116926 
L 114.890555 316.116926 
L 115.655555 312.826926 
L 121.968055 312.826926 
L 118.413055 323.641926 
L 117.185555 323.641926 
z
M 124.350555 321.014426 
Q 124.898055 321.014426 125.275555 321.399426 
Q 125.655555 321.781926 125.655555 322.319426 
Q 125.655555 322.859426 125.273055 323.239426 
Q 124.890555 323.616926 124.350555 323.616926 
Q 123.810555 323.616926 123.430555 323.239426 
Q 123.053055 322.859426 123.053055 322.319426 
Q 123.053055 321.781926 123.430555 321.399426 
Q 123.810555 321.014426 124.350555 321.014426 
z
M 131.560555 312.609426 
L 131.560555 321.274426 
Q 131.560555 322.249426 131.645555 322.519426 
Q 131.733055 322.789426 132.005555 322.961926 
Q 132.280555 323.131926 132.883055 323.131926 
L 133.123055 323.131926 
L 133.123055 323.421926 
L 127.545555 323.421926 
L 127.545555 323.131926 
L 127.828055 323.131926 
Q 128.508055 323.131926 128.795555 322.976926 
Q 129.085555 322.819426 129.185555 322.546926 
Q 129.288055 322.274426 129.288055 321.274426 
L 129.288055 315.781926 
Q 129.288055 315.046926 129.218055 314.864426 
Q 129.148055 314.679426 128.955555 314.551926 
Q 128.765555 314.421926 128.515555 314.421926 
Q 128.115555 314.421926 127.545555 314.671926 
L 127.405555 314.389426 
L 131.303055 312.609426 
L 131.560555 312.609426 
z
" style="stroke: #ffffff; stroke-width: 3.8"/>
    <path d="M 112.975555 323.421926 
L 106.740555 323.421926 
L 106.740555 323.249426 
Q 109.608055 319.836926 110.220555 318.656926 
Q 110.835555 317.476926 110.835555 316.351926 
Q 110.835555 315.531926 110.328055 314.989426 
Q 109.820555 314.444426 109.085555 314.444426 
Q 107.883055 314.444426 107.218055 315.649426 
L 106.928055 315.546926 
Q 107.350555 314.046926 108.210555 313.329426 
Q 109.070555 312.609426 110.195555 312.609426 
Q 110.998055 312.609426 111.663055 312.984426 
Q 112.328055 313.359426 112.703055 314.011926 
Q 113.078055 314.664426 113.078055 315.234426 
Q 113.078055 316.274426 112.498055 317.344426 
Q 111.710555 318.789426 109.053055 321.374426 
L 111.343055 321.374426 
Q 112.185555 321.374426 112.440555 321.304426 
Q 112.695555 321.234426 112.858055 321.066926 
Q 113.023055 320.899426 113.288055 320.359426 
L 113.570555 320.359426 
L 112.975555 323.421926 
z
M 117.185555 323.641926 
L 120.070555 314.899426 
L 117.873055 314.899426 
Q 116.585555 314.899426 115.935555 315.234426 
Q 115.483055 315.469426 115.185555 316.116926 
L 114.890555 316.116926 
L 115.655555 312.826926 
L 121.968055 312.826926 
L 118.413055 323.641926 
L 117.185555 323.641926 
z
M 124.350555 321.014426 
Q 124.898055 321.014426 125.275555 321.399426 
Q 125.655555 321.781926 125.655555 322.319426 
Q 125.655555 322.859426 125.273055 323.239426 
Q 124.890555 323.616926 124.350555 323.616926 
Q 123.810555 323.616926 123.430555 323.239426 
Q 123.053055 322.859426 123.053055 322.319426 
Q 123.053055 321.781926 123.430555 321.399426 
Q 123.810555 321.014426 124.350555 321.014426 
z
M 131.560555 312.609426 
L 131.560555 321.274426 
Q 131.560555 322.249426 131.645555 322.519426 
Q 131.733055 322.789426 132.005555 322.961926 
Q 132.280555 323.131926 132.883055 323.131926 
L 133.123055 323.131926 
L 133.123055 323.421926 
L 127.545555 323.421926 
L 127.545555 323.131926 
L 127.828055 323.131926 
Q 128.508055 323.131926 128.795555 322.976926 
Q 129.085555 322.819426 129.185555 322.546926 
Q 129.288055 322.274426 129.288055 321.274426 
L 129.288055 315.781926 
Q 129.288055 315.046926 129.218055 314.864426 
Q 129.148055 314.679426 128.955555 314.551926 
Q 128.765555 314.421926 128.515555 314.421926 
Q 128.115555 314.421926 127.545555 314.671926 
L 127.405555 314.389426 
L 131.303055 312.609426 
L 131.560555 312.609426 
z
"/>
   </g>
   <g id="text_24">
    <path d="M 106.748055 223.51527 
L 111.780555 216.69527 
L 112.733055 216.69527 
L 112.733055 223.51527 
L 113.703055 223.51527 
L 113.703055 225.13277 
L 112.733055 225.13277 
L 112.733055 227.50777 
L 110.585555 227.50777 
L 110.585555 225.13277 
L 106.748055 225.13277 
L 106.748055 223.51527 
z
M 107.508055 223.51527 
L 110.585555 223.51527 
L 110.585555 219.33527 
L 107.508055 223.51527 
z
M 120.975555 227.50777 
L 114.740555 227.50777 
L 114.740555 227.33527 
Q 117.608055 223.92277 118.220555 222.74277 
Q 118.835555 221.56277 118.835555 220.43777 
Q 118.835555 219.61777 118.328055 219.07527 
Q 117.820555 218.53027 117.085555 218.53027 
Q 115.883055 218.53027 115.218055 219.73527 
L 114.928055 219.63277 
Q 115.350555 218.13277 116.210555 217.41527 
Q 117.070555 216.69527 118.195555 216.69527 
Q 118.998055 216.69527 119.663055 217.07027 
Q 120.328055 217.44527 120.703055 218.09777 
Q 121.078055 218.75027 121.078055 219.32027 
Q 121.078055 220.36027 120.498055 221.43027 
Q 119.710555 222.87527 117.053055 225.46027 
L 119.343055 225.46027 
Q 120.185555 225.46027 120.440555 225.39027 
Q 120.695555 225.32027 120.858055 225.15277 
Q 121.023055 224.98527 121.288055 224.44527 
L 121.570555 224.44527 
L 120.975555 227.50777 
z
M 124.350555 225.10027 
Q 124.898055 225.10027 125.275555 225.48527 
Q 125.655555 225.86777 125.655555 226.40527 
Q 125.655555 226.94527 125.273055 227.32527 
Q 124.890555 227.70277 124.350555 227.70277 
Q 123.810555 227.70277 123.430555 227.32527 
Q 123.053055 226.94527 123.053055 226.40527 
Q 123.053055 225.86777 123.430555 225.48527 
Q 123.810555 225.10027 124.350555 225.10027 
z
M 129.185555 227.72777 
L 132.070555 218.98527 
L 129.873055 218.98527 
Q 128.585555 218.98527 127.935555 219.32027 
Q 127.483055 219.55527 127.185555 220.20277 
L 126.890555 220.20277 
L 127.655555 216.91277 
L 133.968055 216.91277 
L 130.413055 227.72777 
L 129.185555 227.72777 
z
" style="stroke: #ffffff; stroke-width: 3.8"/>
    <path d="M 106.748055 223.51527 
L 111.780555 216.69527 
L 112.733055 216.69527 
L 112.733055 223.51527 
L 113.703055 223.51527 
L 113.703055 225.13277 
L 112.733055 225.13277 
L 112.733055 227.50777 
L 110.585555 227.50777 
L 110.585555 225.13277 
L 106.748055 225.13277 
L 106.748055 223.51527 
z
M 107.508055 223.51527 
L 110.585555 223.51527 
L 110.585555 219.33527 
L 107.508055 223.51527 
z
M 120.975555 227.50777 
L 114.740555 227.50777 
L 114.740555 227.33527 
Q 117.608055 223.92277 118.220555 222.74277 
Q 118.835555 221.56277 118.835555 220.43777 
Q 118.835555 219.61777 118.328055 219.07527 
Q 117.820555 218.53027 117.085555 218.53027 
Q 115.883055 218.53027 115.218055 219.73527 
L 114.928055 219.63277 
Q 115.350555 218.13277 116.210555 217.41527 
Q 117.070555 216.69527 118.195555 216.69527 
Q 118.998055 216.69527 119.663055 217.07027 
Q 120.328055 217.44527 120.703055 218.09777 
Q 121.078055 218.75027 121.078055 219.32027 
Q 121.078055 220.36027 120.498055 221.43027 
Q 119.710555 222.87527 117.053055 225.46027 
L 119.343055 225.46027 
Q 120.185555 225.46027 120.440555 225.39027 
Q 120.695555 225.32027 120.858055 225.15277 
Q 121.023055 224.98527 121.288055 224.44527 
L 121.570555 224.44527 
L 120.975555 227.50777 
z
M 124.350555 225.10027 
Q 124.898055 225.10027 125.275555 225.48527 
Q 125.655555 225.86777 125.655555 226.40527 
Q 125.655555 226.94527 125.273055 227.32527 
Q 124.890555 227.70277 124.350555 227.70277 
Q 123.810555 227.70277 123.430555 227.32527 
Q 123.053055 226.94527 123.053055 226.40527 
Q 123.053055 225.86777 123.430555 225.48527 
Q 123.810555 225.10027 124.350555 225.10027 
z
M 129.185555 227.72777 
L 132.070555 218.98527 
L 129.873055 218.98527 
Q 128.585555 218.98527 127.935555 219.32027 
Q 127.483055 219.55527 127.185555 220.20277 
L 126.890555 220.20277 
L 127.655555 216.91277 
L 133.968055 216.91277 
L 130.413055 227.72777 
L 129.185555 227.72777 
z
"/>
   </g>
   <g id="text_25">
    <path d="M 362.849697 267.938009 
L 356.614697 267.938009 
L 356.614697 267.765509 
Q 359.482197 264.353009 360.094697 263.173009 
Q 360.709697 261.993009 360.709697 260.868009 
Q 360.709697 260.048009 360.202197 259.505509 
Q 359.694697 258.960509 358.959697 258.960509 
Q 357.757197 258.960509 357.092197 260.165509 
L 356.802197 260.063009 
Q 357.224697 258.563009 358.084697 257.845509 
Q 358.944697 257.125509 360.069697 257.125509 
Q 360.872197 257.125509 361.537197 257.500509 
Q 362.202197 257.875509 362.577197 258.528009 
Q 362.952197 259.180509 362.952197 259.750509 
Q 362.952197 260.790509 362.372197 261.860509 
Q 361.584697 263.305509 358.927197 265.890509 
L 361.217197 265.890509 
Q 362.059697 265.890509 362.314697 265.820509 
Q 362.569697 265.750509 362.732197 265.583009 
Q 362.897197 265.415509 363.162197 264.875509 
L 363.444697 264.875509 
L 362.849697 267.938009 
z
M 370.849697 267.938009 
L 364.614697 267.938009 
L 364.614697 267.765509 
Q 367.482197 264.353009 368.094697 263.173009 
Q 368.709697 261.993009 368.709697 260.868009 
Q 368.709697 260.048009 368.202197 259.505509 
Q 367.694697 258.960509 366.959697 258.960509 
Q 365.757197 258.960509 365.092197 260.165509 
L 364.802197 260.063009 
Q 365.224697 258.563009 366.084697 257.845509 
Q 366.944697 257.125509 368.069697 257.125509 
Q 368.872197 257.125509 369.537197 257.500509 
Q 370.202197 257.875509 370.577197 258.528009 
Q 370.952197 259.180509 370.952197 259.750509 
Q 370.952197 260.790509 370.372197 261.860509 
Q 369.584697 263.305509 366.927197 265.890509 
L 369.217197 265.890509 
Q 370.059697 265.890509 370.314697 265.820509 
Q 370.569697 265.750509 370.732197 265.583009 
Q 370.897197 265.415509 371.162197 264.875509 
L 371.444697 264.875509 
L 370.849697 267.938009 
z
M 374.224697 265.530509 
Q 374.772197 265.530509 375.149697 265.915509 
Q 375.529697 266.298009 375.529697 266.835509 
Q 375.529697 267.375509 375.147197 267.755509 
Q 374.764697 268.133009 374.224697 268.133009 
Q 373.684697 268.133009 373.304697 267.755509 
Q 372.927197 267.375509 372.927197 266.835509 
Q 372.927197 266.298009 373.304697 265.915509 
Q 373.684697 265.530509 374.224697 265.530509 
z
M 382.849697 267.938009 
L 376.614697 267.938009 
L 376.614697 267.765509 
Q 379.482197 264.353009 380.094697 263.173009 
Q 380.709697 261.993009 380.709697 260.868009 
Q 380.709697 260.048009 380.202197 259.505509 
Q 379.694697 258.960509 378.959697 258.960509 
Q 377.757197 258.960509 377.092197 260.165509 
L 376.802197 260.063009 
Q 377.224697 258.563009 378.084697 257.845509 
Q 378.944697 257.125509 380.069697 257.125509 
Q 380.872197 257.125509 381.537197 257.500509 
Q 382.202197 257.875509 382.577197 258.528009 
Q 382.952197 259.180509 382.952197 259.750509 
Q 382.952197 260.790509 382.372197 261.860509 
Q 381.584697 263.305509 378.927197 265.890509 
L 381.217197 265.890509 
Q 382.059697 265.890509 382.314697 265.820509 
Q 382.569697 265.750509 382.732197 265.583009 
Q 382.897197 265.415509 383.162197 264.875509 
L 383.444697 264.875509 
L 382.849697 267.938009 
z
" style="stroke: #ffffff; stroke-width: 3.8"/>
    <path d="M 362.849697 267.938009 
L 356.614697 267.938009 
L 356.614697 267.765509 
Q 359.482197 264.353009 360.094697 263.173009 
Q 360.709697 261.993009 360.709697 260.868009 
Q 360.709697 260.048009 360.202197 259.505509 
Q 359.694697 258.960509 358.959697 258.960509 
Q 357.757197 258.960509 357.092197 260.165509 
L 356.802197 260.063009 
Q 357.224697 258.563009 358.084697 257.845509 
Q 358.944697 257.125509 360.069697 257.125509 
Q 360.872197 257.125509 361.537197 257.500509 
Q 362.202197 257.875509 362.577197 258.528009 
Q 362.952197 259.180509 362.952197 259.750509 
Q 362.952197 260.790509 362.372197 261.860509 
Q 361.584697 263.305509 358.927197 265.890509 
L 361.217197 265.890509 
Q 362.059697 265.890509 362.314697 265.820509 
Q 362.569697 265.750509 362.732197 265.583009 
Q 362.897197 265.415509 363.162197 264.875509 
L 363.444697 264.875509 
L 362.849697 267.938009 
z
M 370.849697 267.938009 
L 364.614697 267.938009 
L 364.614697 267.765509 
Q 367.482197 264.353009 368.094697 263.173009 
Q 368.709697 261.993009 368.709697 260.868009 
Q 368.709697 260.048009 368.202197 259.505509 
Q 367.694697 258.960509 366.959697 258.960509 
Q 365.757197 258.960509 365.092197 260.165509 
L 364.802197 260.063009 
Q 365.224697 258.563009 366.084697 257.845509 
Q 366.944697 257.125509 368.069697 257.125509 
Q 368.872197 257.125509 369.537197 257.500509 
Q 370.202197 257.875509 370.577197 258.528009 
Q 370.952197 259.180509 370.952197 259.750509 
Q 370.952197 260.790509 370.372197 261.860509 
Q 369.584697 263.305509 366.927197 265.890509 
L 369.217197 265.890509 
Q 370.059697 265.890509 370.314697 265.820509 
Q 370.569697 265.750509 370.732197 265.583009 
Q 370.897197 265.415509 371.162197 264.875509 
L 371.444697 264.875509 
L 370.849697 267.938009 
z
M 374.224697 265.530509 
Q 374.772197 265.530509 375.149697 265.915509 
Q 375.529697 266.298009 375.529697 266.835509 
Q 375.529697 267.375509 375.147197 267.755509 
Q 374.764697 268.133009 374.224697 268.133009 
Q 373.684697 268.133009 373.304697 267.755509 
Q 372.927197 267.375509 372.927197 266.835509 
Q 372.927197 266.298009 373.304697 265.915509 
Q 373.684697 265.530509 374.224697 265.530509 
z
M 382.849697 267.938009 
L 376.614697 267.938009 
L 376.614697 267.765509 
Q 379.482197 264.353009 380.094697 263.173009 
Q 380.709697 261.993009 380.709697 260.868009 
Q 380.709697 260.048009 380.202197 259.505509 
Q 379.694697 258.960509 378.959697 258.960509 
Q 377.757197 258.960509 377.092197 260.165509 
L 376.802197 260.063009 
Q 377.224697 258.563009 378.084697 257.845509 
Q 378.944697 257.125509 380.069697 257.125509 
Q 380.872197 257.125509 381.537197 257.500509 
Q 382.202197 257.875509 382.577197 258.528009 
Q 382.952197 259.180509 382.952197 259.750509 
Q 382.952197 260.790509 382.372197 261.860509 
Q 381.584697 263.305509 378.927197 265.890509 
L 381.217197 265.890509 
Q 382.059697 265.890509 382.314697 265.820509 
Q 382.569697 265.750509 382.732197 265.583009 
Q 382.897197 265.415509 383.162197 264.875509 
L 383.444697 264.875509 
L 382.849697 267.938009 
z
"/>
   </g>
   <g id="text_26">
    <path d="M 356.622197 186.982391 
L 361.654697 180.162391 
L 362.607197 180.162391 
L 362.607197 186.982391 
L 363.577197 186.982391 
L 363.577197 188.599891 
L 362.607197 188.599891 
L 362.607197 190.974891 
L 360.459697 190.974891 
L 360.459697 188.599891 
L 356.622197 188.599891 
L 356.622197 186.982391 
z
M 357.382197 186.982391 
L 360.459697 186.982391 
L 360.459697 182.802391 
L 357.382197 186.982391 
z
M 369.434697 180.162391 
L 369.434697 188.827391 
Q 369.434697 189.802391 369.519697 190.072391 
Q 369.607197 190.342391 369.879697 190.514891 
Q 370.154697 190.684891 370.757197 190.684891 
L 370.997197 190.684891 
L 370.997197 190.974891 
L 365.419697 190.974891 
L 365.419697 190.684891 
L 365.702197 190.684891 
Q 366.382197 190.684891 366.669697 190.529891 
Q 366.959697 190.372391 367.059697 190.099891 
Q 367.162197 189.827391 367.162197 188.827391 
L 367.162197 183.334891 
Q 367.162197 182.599891 367.092197 182.417391 
Q 367.022197 182.232391 366.829697 182.104891 
Q 366.639697 181.974891 366.389697 181.974891 
Q 365.989697 181.974891 365.419697 182.224891 
L 365.279697 181.942391 
L 369.177197 180.162391 
L 369.434697 180.162391 
z
M 374.224697 188.567391 
Q 374.772197 188.567391 375.149697 188.952391 
Q 375.529697 189.334891 375.529697 189.872391 
Q 375.529697 190.412391 375.147197 190.792391 
Q 374.764697 191.169891 374.224697 191.169891 
Q 373.684697 191.169891 373.304697 190.792391 
Q 372.927197 190.412391 372.927197 189.872391 
Q 372.927197 189.334891 373.304697 188.952391 
Q 373.684697 188.567391 374.224697 188.567391 
z
M 376.622197 186.982391 
L 381.654697 180.162391 
L 382.607197 180.162391 
L 382.607197 186.982391 
L 383.577197 186.982391 
L 383.577197 188.599891 
L 382.607197 188.599891 
L 382.607197 190.974891 
L 380.459697 190.974891 
L 380.459697 188.599891 
L 376.622197 188.599891 
L 376.622197 186.982391 
z
M 377.382197 186.982391 
L 380.459697 186.982391 
L 380.459697 182.802391 
L 377.382197 186.982391 
z
" style="stroke: #ffffff; stroke-width: 3.8"/>
    <path d="M 356.622197 186.982391 
L 361.654697 180.162391 
L 362.607197 180.162391 
L 362.607197 186.982391 
L 363.577197 186.982391 
L 363.577197 188.599891 
L 362.607197 188.599891 
L 362.607197 190.974891 
L 360.459697 190.974891 
L 360.459697 188.599891 
L 356.622197 188.599891 
L 356.622197 186.982391 
z
M 357.382197 186.982391 
L 360.459697 186.982391 
L 360.459697 182.802391 
L 357.382197 186.982391 
z
M 369.434697 180.162391 
L 369.434697 188.827391 
Q 369.434697 189.802391 369.519697 190.072391 
Q 369.607197 190.342391 369.879697 190.514891 
Q 370.154697 190.684891 370.757197 190.684891 
L 370.997197 190.684891 
L 370.997197 190.974891 
L 365.419697 190.974891 
L 365.419697 190.684891 
L 365.702197 190.684891 
Q 366.382197 190.684891 366.669697 190.529891 
Q 366.959697 190.372391 367.059697 190.099891 
Q 367.162197 189.827391 367.162197 188.827391 
L 367.162197 183.334891 
Q 367.162197 182.599891 367.092197 182.417391 
Q 367.022197 182.232391 366.829697 182.104891 
Q 366.639697 181.974891 366.389697 181.974891 
Q 365.989697 181.974891 365.419697 182.224891 
L 365.279697 181.942391 
L 369.177197 180.162391 
L 369.434697 180.162391 
z
M 374.224697 188.567391 
Q 374.772197 188.567391 375.149697 188.952391 
Q 375.529697 189.334891 375.529697 189.872391 
Q 375.529697 190.412391 375.147197 190.792391 
Q 374.764697 191.169891 374.224697 191.169891 
Q 373.684697 191.169891 373.304697 190.792391 
Q 372.927197 190.412391 372.927197 189.872391 
Q 372.927197 189.334891 373.304697 188.952391 
Q 373.684697 188.567391 374.224697 188.567391 
z
M 376.622197 186.982391 
L 381.654697 180.162391 
L 382.607197 180.162391 
L 382.607197 186.982391 
L 383.577197 186.982391 
L 383.577197 188.599891 
L 382.607197 188.599891 
L 382.607197 190.974891 
L 380.459697 190.974891 
L 380.459697 188.599891 
L 376.622197 188.599891 
L 376.622197 186.982391 
z
M 377.382197 186.982391 
L 380.459697 186.982391 
L 380.459697 182.802391 
L 377.382197 186.982391 
z
"/>
   </g>
   <g id="text_27">
    <path d="M 363.739697 105.190896 
L 363.739697 105.408396 
Q 362.327197 105.768396 361.469697 106.335896 
Q 360.614697 106.900896 360.117197 107.710896 
Q 359.622197 108.518396 359.349697 109.713396 
Q 359.694697 109.480896 359.919697 109.408396 
Q 360.427197 109.253396 360.944697 109.253396 
Q 362.132197 109.253396 362.924697 110.118396 
Q 363.717197 110.980896 363.717197 112.470896 
Q 363.717197 113.518396 363.287197 114.393396 
Q 362.857197 115.268396 362.067197 115.745896 
Q 361.279697 116.223396 360.382197 116.223396 
Q 359.404697 116.223396 358.574697 115.688396 
Q 357.747197 115.150896 357.282197 114.120896 
Q 356.819697 113.088396 356.819697 111.878396 
Q 356.819697 110.095896 357.674697 108.560896 
Q 358.529697 107.025896 360.102197 106.115896 
Q 361.677197 105.205896 363.739697 105.190896 
z
M 359.247197 110.345896 
Q 359.184697 111.425896 359.184697 111.925896 
Q 359.184697 113.003396 359.392197 114.010896 
Q 359.599697 115.018396 359.959697 115.425896 
Q 360.217197 115.713396 360.569697 115.713396 
Q 360.927197 115.713396 361.207197 115.295896 
Q 361.489697 114.878396 361.489697 113.595896 
Q 361.489697 111.440896 360.967197 110.620896 
Q 360.632197 110.088396 360.059697 110.088396 
Q 359.747197 110.088396 359.247197 110.345896 
z
M 371.639697 110.705896 
Q 371.639697 112.293396 371.194697 113.668396 
Q 370.927197 114.510896 370.477197 115.050896 
Q 370.029697 115.588396 369.459697 115.905896 
Q 368.889697 116.223396 368.217197 116.223396 
Q 367.452197 116.223396 366.834697 115.833396 
Q 366.217197 115.440896 365.739697 114.713396 
Q 365.397197 114.183396 365.139697 113.300896 
Q 364.802197 112.105896 364.802197 110.830896 
Q 364.802197 109.105896 365.287197 107.658396 
Q 365.684697 106.463396 366.497197 105.828396 
Q 367.309697 105.190896 368.217197 105.190896 
Q 369.139697 105.190896 369.939697 105.820896 
Q 370.739697 106.448396 371.114697 107.510896 
Q 371.639697 108.970896 371.639697 110.705896 
z
M 369.232197 110.690896 
Q 369.232197 107.908396 369.202197 107.448396 
Q 369.122197 106.363396 368.827197 105.980896 
Q 368.632197 105.730896 368.194697 105.730896 
Q 367.857197 105.730896 367.662197 105.918396 
Q 367.372197 106.190896 367.269697 106.883396 
Q 367.169697 107.573396 367.169697 111.705896 
Q 367.169697 113.955896 367.327197 114.720896 
Q 367.444697 115.275896 367.662197 115.463396 
Q 367.882197 115.650896 368.239697 115.650896 
Q 368.632197 115.650896 368.827197 115.400896 
Q 369.154697 114.963396 369.202197 114.050896 
L 369.232197 110.690896 
z
M 374.224697 113.595896 
Q 374.772197 113.595896 375.149697 113.980896 
Q 375.529697 114.363396 375.529697 114.900896 
Q 375.529697 115.440896 375.147197 115.820896 
Q 374.764697 116.198396 374.224697 116.198396 
Q 373.684697 116.198396 373.304697 115.820896 
Q 372.927197 115.440896 372.927197 114.900896 
Q 372.927197 114.363396 373.304697 113.980896 
Q 373.684697 113.595896 374.224697 113.595896 
z
M 378.662197 105.408396 
L 383.622197 105.408396 
L 382.834697 107.425896 
L 378.662197 107.425896 
L 378.264697 108.480896 
Q 380.959697 108.580896 382.412197 109.823396 
Q 383.607197 110.845896 383.607197 112.370896 
Q 383.607197 113.345896 383.052197 114.280896 
Q 382.497197 115.213396 381.489697 115.718396 
Q 380.482197 116.223396 379.279697 116.223396 
Q 377.982197 116.223396 377.287197 115.738396 
Q 376.802197 115.393396 376.802197 114.955896 
Q 376.802197 114.620896 377.054697 114.363396 
Q 377.309697 114.105896 377.647197 114.105896 
Q 377.952197 114.105896 378.264697 114.230896 
Q 378.577197 114.355896 379.334697 114.885896 
Q 379.809697 115.213396 380.154697 115.338396 
Q 380.397197 115.433396 380.702197 115.433396 
Q 381.342197 115.433396 381.789697 114.965896 
Q 382.239697 114.495896 382.239697 113.838396 
Q 382.239697 112.463396 380.864697 111.605896 
Q 379.489697 110.745896 377.397197 110.745896 
Q 377.184697 110.745896 376.764697 110.753396 
L 378.662197 105.408396 
z
" style="stroke: #ffffff; stroke-width: 3.8"/>
    <path d="M 363.739697 105.190896 
L 363.739697 105.408396 
Q 362.327197 105.768396 361.469697 106.335896 
Q 360.614697 106.900896 360.117197 107.710896 
Q 359.622197 108.518396 359.349697 109.713396 
Q 359.694697 109.480896 359.919697 109.408396 
Q 360.427197 109.253396 360.944697 109.253396 
Q 362.132197 109.253396 362.924697 110.118396 
Q 363.717197 110.980896 363.717197 112.470896 
Q 363.717197 113.518396 363.287197 114.393396 
Q 362.857197 115.268396 362.067197 115.745896 
Q 361.279697 116.223396 360.382197 116.223396 
Q 359.404697 116.223396 358.574697 115.688396 
Q 357.747197 115.150896 357.282197 114.120896 
Q 356.819697 113.088396 356.819697 111.878396 
Q 356.819697 110.095896 357.674697 108.560896 
Q 358.529697 107.025896 360.102197 106.115896 
Q 361.677197 105.205896 363.739697 105.190896 
z
M 359.247197 110.345896 
Q 359.184697 111.425896 359.184697 111.925896 
Q 359.184697 113.003396 359.392197 114.010896 
Q 359.599697 115.018396 359.959697 115.425896 
Q 360.217197 115.713396 360.569697 115.713396 
Q 360.927197 115.713396 361.207197 115.295896 
Q 361.489697 114.878396 361.489697 113.595896 
Q 361.489697 111.440896 360.967197 110.620896 
Q 360.632197 110.088396 360.059697 110.088396 
Q 359.747197 110.088396 359.247197 110.345896 
z
M 371.639697 110.705896 
Q 371.639697 112.293396 371.194697 113.668396 
Q 370.927197 114.510896 370.477197 115.050896 
Q 370.029697 115.588396 369.459697 115.905896 
Q 368.889697 116.223396 368.217197 116.223396 
Q 367.452197 116.223396 366.834697 115.833396 
Q 366.217197 115.440896 365.739697 114.713396 
Q 365.397197 114.183396 365.139697 113.300896 
Q 364.802197 112.105896 364.802197 110.830896 
Q 364.802197 109.105896 365.287197 107.658396 
Q 365.684697 106.463396 366.497197 105.828396 
Q 367.309697 105.190896 368.217197 105.190896 
Q 369.139697 105.190896 369.939697 105.820896 
Q 370.739697 106.448396 371.114697 107.510896 
Q 371.639697 108.970896 371.639697 110.705896 
z
M 369.232197 110.690896 
Q 369.232197 107.908396 369.202197 107.448396 
Q 369.122197 106.363396 368.827197 105.980896 
Q 368.632197 105.730896 368.194697 105.730896 
Q 367.857197 105.730896 367.662197 105.918396 
Q 367.372197 106.190896 367.269697 106.883396 
Q 367.169697 107.573396 367.169697 111.705896 
Q 367.169697 113.955896 367.327197 114.720896 
Q 367.444697 115.275896 367.662197 115.463396 
Q 367.882197 115.650896 368.239697 115.650896 
Q 368.632197 115.650896 368.827197 115.400896 
Q 369.154697 114.963396 369.202197 114.050896 
L 369.232197 110.690896 
z
M 374.224697 113.595896 
Q 374.772197 113.595896 375.149697 113.980896 
Q 375.529697 114.363396 375.529697 114.900896 
Q 375.529697 115.440896 375.147197 115.820896 
Q 374.764697 116.198396 374.224697 116.198396 
Q 373.684697 116.198396 373.304697 115.820896 
Q 372.927197 115.440896 372.927197 114.900896 
Q 372.927197 114.363396 373.304697 113.980896 
Q 373.684697 113.595896 374.224697 113.595896 
z
M 378.662197 105.408396 
L 383.622197 105.408396 
L 382.834697 107.425896 
L 378.662197 107.425896 
L 378.264697 108.480896 
Q 380.959697 108.580896 382.412197 109.823396 
Q 383.607197 110.845896 383.607197 112.370896 
Q 383.607197 113.345896 383.052197 114.280896 
Q 382.497197 115.213396 381.489697 115.718396 
Q 380.482197 116.223396 379.279697 116.223396 
Q 377.982197 116.223396 377.287197 115.738396 
Q 376.802197 115.393396 376.802197 114.955896 
Q 376.802197 114.620896 377.054697 114.363396 
Q 377.309697 114.105896 377.647197 114.105896 
Q 377.952197 114.105896 378.264697 114.230896 
Q 378.577197 114.355896 379.334697 114.885896 
Q 379.809697 115.213396 380.154697 115.338396 
Q 380.397197 115.433396 380.702197 115.433396 
Q 381.342197 115.433396 381.789697 114.965896 
Q 382.239697 114.495896 382.239697 113.838396 
Q 382.239697 112.463396 380.864697 111.605896 
Q 379.489697 110.745896 377.397197 110.745896 
Q 377.184697 110.745896 376.764697 110.753396 
L 378.662197 105.408396 
z
"/>
   </g>
   <g id="text_28">
    <path d="M 574.521172 214.243472 
L 574.521172 213.970972 
Q 575.411172 213.710972 575.753672 213.488472 
Q 576.098672 213.265972 576.348672 212.810972 
Q 576.598672 212.353472 576.598672 211.883472 
Q 576.598672 211.235972 576.126172 210.770972 
Q 575.653672 210.305972 574.951172 210.305972 
Q 573.856172 210.305972 573.091172 211.460972 
L 572.801172 211.360972 
Q 573.363672 210.055972 574.243672 209.400972 
Q 575.123672 208.743472 576.201172 208.743472 
Q 577.301172 208.743472 578.016172 209.415972 
Q 578.731172 210.085972 578.731172 210.985972 
Q 578.731172 211.570972 578.398672 212.115972 
Q 578.068672 212.658472 577.356172 213.070972 
Q 578.271172 213.515972 578.751172 214.168472 
Q 579.231172 214.820972 579.231172 215.805972 
Q 579.231172 217.460972 578.031172 218.623472 
Q 576.833672 219.783472 574.818672 219.783472 
Q 573.473672 219.783472 572.856172 219.335972 
Q 572.411172 219.023472 572.411172 218.533472 
Q 572.411172 218.173472 572.668672 217.920972 
Q 572.926172 217.665972 573.263672 217.665972 
Q 573.521172 217.665972 573.748672 217.773472 
Q 573.873672 217.835972 574.633672 218.458472 
Q 575.396172 219.078472 576.061172 219.078472 
Q 576.638672 219.078472 577.051172 218.623472 
Q 577.466172 218.165972 577.466172 217.460972 
Q 577.466172 216.390972 576.716172 215.488472 
Q 575.966172 214.585972 574.521172 214.243472 
z
M 582.521172 214.243472 
L 582.521172 213.970972 
Q 583.411172 213.710972 583.753672 213.488472 
Q 584.098672 213.265972 584.348672 212.810972 
Q 584.598672 212.353472 584.598672 211.883472 
Q 584.598672 211.235972 584.126172 210.770972 
Q 583.653672 210.305972 582.951172 210.305972 
Q 581.856172 210.305972 581.091172 211.460972 
L 580.801172 211.360972 
Q 581.363672 210.055972 582.243672 209.400972 
Q 583.123672 208.743472 584.201172 208.743472 
Q 585.301172 208.743472 586.016172 209.415972 
Q 586.731172 210.085972 586.731172 210.985972 
Q 586.731172 211.570972 586.398672 212.115972 
Q 586.068672 212.658472 585.356172 213.070972 
Q 586.271172 213.515972 586.751172 214.168472 
Q 587.231172 214.820972 587.231172 215.805972 
Q 587.231172 217.460972 586.031172 218.623472 
Q 584.833672 219.783472 582.818672 219.783472 
Q 581.473672 219.783472 580.856172 219.335972 
Q 580.411172 219.023472 580.411172 218.533472 
Q 580.411172 218.173472 580.668672 217.920972 
Q 580.926172 217.665972 581.263672 217.665972 
Q 581.521172 217.665972 581.748672 217.773472 
Q 581.873672 217.835972 582.633672 218.458472 
Q 583.396172 219.078472 584.061172 219.078472 
Q 584.638672 219.078472 585.051172 218.623472 
Q 585.466172 218.165972 585.466172 217.460972 
Q 585.466172 216.390972 584.716172 215.488472 
Q 583.966172 214.585972 582.521172 214.243472 
z
M 590.153672 217.148472 
Q 590.701172 217.148472 591.078672 217.533472 
Q 591.458672 217.915972 591.458672 218.453472 
Q 591.458672 218.993472 591.076172 219.373472 
Q 590.693672 219.750972 590.153672 219.750972 
Q 589.613672 219.750972 589.233672 219.373472 
Q 588.856172 218.993472 588.856172 218.453472 
Q 588.856172 217.915972 589.233672 217.533472 
Q 589.613672 217.148472 590.153672 217.148472 
z
M 592.551172 215.563472 
L 597.583672 208.743472 
L 598.536172 208.743472 
L 598.536172 215.563472 
L 599.506172 215.563472 
L 599.506172 217.180972 
L 598.536172 217.180972 
L 598.536172 219.555972 
L 596.388672 219.555972 
L 596.388672 217.180972 
L 592.551172 217.180972 
L 592.551172 215.563472 
z
M 593.311172 215.563472 
L 596.388672 215.563472 
L 596.388672 211.383472 
L 593.311172 215.563472 
z
" style="stroke: #ffffff; stroke-width: 3.8"/>
    <path d="M 574.521172 214.243472 
L 574.521172 213.970972 
Q 575.411172 213.710972 575.753672 213.488472 
Q 576.098672 213.265972 576.348672 212.810972 
Q 576.598672 212.353472 576.598672 211.883472 
Q 576.598672 211.235972 576.126172 210.770972 
Q 575.653672 210.305972 574.951172 210.305972 
Q 573.856172 210.305972 573.091172 211.460972 
L 572.801172 211.360972 
Q 573.363672 210.055972 574.243672 209.400972 
Q 575.123672 208.743472 576.201172 208.743472 
Q 577.301172 208.743472 578.016172 209.415972 
Q 578.731172 210.085972 578.731172 210.985972 
Q 578.731172 211.570972 578.398672 212.115972 
Q 578.068672 212.658472 577.356172 213.070972 
Q 578.271172 213.515972 578.751172 214.168472 
Q 579.231172 214.820972 579.231172 215.805972 
Q 579.231172 217.460972 578.031172 218.623472 
Q 576.833672 219.783472 574.818672 219.783472 
Q 573.473672 219.783472 572.856172 219.335972 
Q 572.411172 219.023472 572.411172 218.533472 
Q 572.411172 218.173472 572.668672 217.920972 
Q 572.926172 217.665972 573.263672 217.665972 
Q 573.521172 217.665972 573.748672 217.773472 
Q 573.873672 217.835972 574.633672 218.458472 
Q 575.396172 219.078472 576.061172 219.078472 
Q 576.638672 219.078472 577.051172 218.623472 
Q 577.466172 218.165972 577.466172 217.460972 
Q 577.466172 216.390972 576.716172 215.488472 
Q 575.966172 214.585972 574.521172 214.243472 
z
M 582.521172 214.243472 
L 582.521172 213.970972 
Q 583.411172 213.710972 583.753672 213.488472 
Q 584.098672 213.265972 584.348672 212.810972 
Q 584.598672 212.353472 584.598672 211.883472 
Q 584.598672 211.235972 584.126172 210.770972 
Q 583.653672 210.305972 582.951172 210.305972 
Q 581.856172 210.305972 581.091172 211.460972 
L 580.801172 211.360972 
Q 581.363672 210.055972 582.243672 209.400972 
Q 583.123672 208.743472 584.201172 208.743472 
Q 585.301172 208.743472 586.016172 209.415972 
Q 586.731172 210.085972 586.731172 210.985972 
Q 586.731172 211.570972 586.398672 212.115972 
Q 586.068672 212.658472 585.356172 213.070972 
Q 586.271172 213.515972 586.751172 214.168472 
Q 587.231172 214.820972 587.231172 215.805972 
Q 587.231172 217.460972 586.031172 218.623472 
Q 584.833672 219.783472 582.818672 219.783472 
Q 581.473672 219.783472 580.856172 219.335972 
Q 580.411172 219.023472 580.411172 218.533472 
Q 580.411172 218.173472 580.668672 217.920972 
Q 580.926172 217.665972 581.263672 217.665972 
Q 581.521172 217.665972 581.748672 217.773472 
Q 581.873672 217.835972 582.633672 218.458472 
Q 583.396172 219.078472 584.061172 219.078472 
Q 584.638672 219.078472 585.051172 218.623472 
Q 585.466172 218.165972 585.466172 217.460972 
Q 585.466172 216.390972 584.716172 215.488472 
Q 583.966172 214.585972 582.521172 214.243472 
z
M 590.153672 217.148472 
Q 590.701172 217.148472 591.078672 217.533472 
Q 591.458672 217.915972 591.458672 218.453472 
Q 591.458672 218.993472 591.076172 219.373472 
Q 590.693672 219.750972 590.153672 219.750972 
Q 589.613672 219.750972 589.233672 219.373472 
Q 588.856172 218.993472 588.856172 218.453472 
Q 588.856172 217.915972 589.233672 217.533472 
Q 589.613672 217.148472 590.153672 217.148472 
z
M 592.551172 215.563472 
L 597.583672 208.743472 
L 598.536172 208.743472 
L 598.536172 215.563472 
L 599.506172 215.563472 
L 599.506172 217.180972 
L 598.536172 217.180972 
L 598.536172 219.555972 
L 596.388672 219.555972 
L 596.388672 217.180972 
L 592.551172 217.180972 
L 592.551172 215.563472 
z
M 593.311172 215.563472 
L 596.388672 215.563472 
L 596.388672 211.383472 
L 593.311172 215.563472 
z
"/>
   </g>
   <g id="text_29">
    <path d="M 573.845755 372.251653 
Q 573.845755 373.739934 573.428568 375.028997 
Q 573.177786 375.81884 572.755911 376.32509 
Q 572.33638 376.828997 571.802005 377.126653 
Q 571.26763 377.424309 570.637161 377.424309 
Q 569.919974 377.424309 569.341068 377.058684 
Q 568.762161 376.690715 568.314505 376.008684 
Q 567.993411 375.511809 567.752005 374.684465 
Q 567.435599 373.564153 567.435599 372.36884 
Q 567.435599 370.751653 567.890286 369.394622 
Q 568.262943 368.274309 569.024661 367.678997 
Q 569.78638 367.08134 570.637161 367.08134 
Q 571.502005 367.08134 572.252005 367.671965 
Q 573.002005 368.260247 573.353568 369.25634 
Q 573.845755 370.62509 573.845755 372.251653 
z
M 571.588724 372.23759 
Q 571.588724 369.628997 571.560599 369.197747 
Q 571.485599 368.180559 571.209036 367.821965 
Q 571.026224 367.58759 570.616068 367.58759 
Q 570.299661 367.58759 570.116849 367.763372 
Q 569.844974 368.01884 569.74888 368.668059 
Q 569.65513 369.314934 569.65513 373.189153 
Q 569.65513 375.298528 569.802786 376.015715 
Q 569.912943 376.536028 570.116849 376.711809 
Q 570.323099 376.88759 570.658255 376.88759 
Q 571.026224 376.88759 571.209036 376.653215 
Q 571.516068 376.243059 571.560599 375.38759 
L 571.588724 372.23759 
z
M 576.269193 374.961028 
Q 576.782474 374.961028 577.13638 375.321965 
Q 577.49263 375.680559 577.49263 376.184465 
Q 577.49263 376.690715 577.134036 377.046965 
Q 576.775443 377.400872 576.269193 377.400872 
Q 575.762943 377.400872 575.406693 377.046965 
Q 575.052786 376.690715 575.052786 376.184465 
Q 575.052786 375.680559 575.406693 375.321965 
Q 575.762943 374.961028 576.269193 374.961028 
z
M 580.363724 372.23759 
L 580.363724 371.982122 
Q 581.198099 371.738372 581.519193 371.529778 
Q 581.84263 371.321184 582.077005 370.894622 
Q 582.31138 370.465715 582.31138 370.02509 
Q 582.31138 369.418059 581.868411 368.982122 
Q 581.425443 368.546184 580.766849 368.546184 
Q 579.740286 368.546184 579.023099 369.628997 
L 578.751224 369.535247 
Q 579.278568 368.311809 580.103568 367.697747 
Q 580.928568 367.08134 581.938724 367.08134 
Q 582.969974 367.08134 583.640286 367.711809 
Q 584.310599 368.339934 584.310599 369.183684 
Q 584.310599 369.732122 583.99888 370.243059 
Q 583.689505 370.751653 583.021536 371.138372 
Q 583.879349 371.555559 584.329349 372.167278 
Q 584.779349 372.778997 584.779349 373.702434 
Q 584.779349 375.253997 583.654349 376.34384 
Q 582.531693 377.43134 580.64263 377.43134 
Q 579.381693 377.43134 578.802786 377.011809 
Q 578.385599 376.71884 578.385599 376.259465 
Q 578.385599 375.921965 578.627005 375.685247 
Q 578.868411 375.446184 579.184818 375.446184 
Q 579.426224 375.446184 579.639505 375.546965 
Q 579.756693 375.605559 580.469193 376.189153 
Q 581.184036 376.770403 581.807474 376.770403 
Q 582.34888 376.770403 582.735599 376.34384 
Q 583.124661 375.914934 583.124661 375.253997 
Q 583.124661 374.250872 582.421536 373.404778 
Q 581.718411 372.558684 580.363724 372.23759 
z
" style="fill: #404040; stroke: #ffffff; stroke-width: 3.8"/>
    <path d="M 573.845755 372.251653 
Q 573.845755 373.739934 573.428568 375.028997 
Q 573.177786 375.81884 572.755911 376.32509 
Q 572.33638 376.828997 571.802005 377.126653 
Q 571.26763 377.424309 570.637161 377.424309 
Q 569.919974 377.424309 569.341068 377.058684 
Q 568.762161 376.690715 568.314505 376.008684 
Q 567.993411 375.511809 567.752005 374.684465 
Q 567.435599 373.564153 567.435599 372.36884 
Q 567.435599 370.751653 567.890286 369.394622 
Q 568.262943 368.274309 569.024661 367.678997 
Q 569.78638 367.08134 570.637161 367.08134 
Q 571.502005 367.08134 572.252005 367.671965 
Q 573.002005 368.260247 573.353568 369.25634 
Q 573.845755 370.62509 573.845755 372.251653 
z
M 571.588724 372.23759 
Q 571.588724 369.628997 571.560599 369.197747 
Q 571.485599 368.180559 571.209036 367.821965 
Q 571.026224 367.58759 570.616068 367.58759 
Q 570.299661 367.58759 570.116849 367.763372 
Q 569.844974 368.01884 569.74888 368.668059 
Q 569.65513 369.314934 569.65513 373.189153 
Q 569.65513 375.298528 569.802786 376.015715 
Q 569.912943 376.536028 570.116849 376.711809 
Q 570.323099 376.88759 570.658255 376.88759 
Q 571.026224 376.88759 571.209036 376.653215 
Q 571.516068 376.243059 571.560599 375.38759 
L 571.588724 372.23759 
z
M 576.269193 374.961028 
Q 576.782474 374.961028 577.13638 375.321965 
Q 577.49263 375.680559 577.49263 376.184465 
Q 577.49263 376.690715 577.134036 377.046965 
Q 576.775443 377.400872 576.269193 377.400872 
Q 575.762943 377.400872 575.406693 377.046965 
Q 575.052786 376.690715 575.052786 376.184465 
Q 575.052786 375.680559 575.406693 375.321965 
Q 575.762943 374.961028 576.269193 374.961028 
z
M 580.363724 372.23759 
L 580.363724 371.982122 
Q 581.198099 371.738372 581.519193 371.529778 
Q 581.84263 371.321184 582.077005 370.894622 
Q 582.31138 370.465715 582.31138 370.02509 
Q 582.31138 369.418059 581.868411 368.982122 
Q 581.425443 368.546184 580.766849 368.546184 
Q 579.740286 368.546184 579.023099 369.628997 
L 578.751224 369.535247 
Q 579.278568 368.311809 580.103568 367.697747 
Q 580.928568 367.08134 581.938724 367.08134 
Q 582.969974 367.08134 583.640286 367.711809 
Q 584.310599 368.339934 584.310599 369.183684 
Q 584.310599 369.732122 583.99888 370.243059 
Q 583.689505 370.751653 583.021536 371.138372 
Q 583.879349 371.555559 584.329349 372.167278 
Q 584.779349 372.778997 584.779349 373.702434 
Q 584.779349 375.253997 583.654349 376.34384 
Q 582.531693 377.43134 580.64263 377.43134 
Q 579.381693 377.43134 578.802786 377.011809 
Q 578.385599 376.71884 578.385599 376.259465 
Q 578.385599 375.921965 578.627005 375.685247 
Q 578.868411 375.446184 579.184818 375.446184 
Q 579.426224 375.446184 579.639505 375.546965 
Q 579.756693 375.605559 580.469193 376.189153 
Q 581.184036 376.770403 581.807474 376.770403 
Q 582.34888 376.770403 582.735599 376.34384 
Q 583.124661 375.914934 583.124661 375.253997 
Q 583.124661 374.250872 582.421536 373.404778 
Q 581.718411 372.558684 580.363724 372.23759 
z
" style="fill: #404040"/>
   </g>
   <g id="text_30">
    <path d="M 568.961768 322.564728 
L 563.116455 322.564728 
L 563.116455 322.403009 
Q 565.804736 319.203791 566.378955 318.097541 
Q 566.955518 316.991291 566.955518 315.936603 
Q 566.955518 315.167853 566.479736 314.659259 
Q 566.003955 314.148322 565.314893 314.148322 
Q 564.187549 314.148322 563.564111 315.278009 
L 563.292236 315.181916 
Q 563.68833 313.775666 564.49458 313.103009 
Q 565.30083 312.428009 566.355518 312.428009 
Q 567.107861 312.428009 567.731299 312.779572 
Q 568.354736 313.131134 568.706299 313.742853 
Q 569.057861 314.354572 569.057861 314.888947 
Q 569.057861 315.863947 568.514111 316.867072 
Q 567.77583 318.221759 565.284424 320.645197 
L 567.431299 320.645197 
Q 568.221143 320.645197 568.460205 320.579572 
Q 568.699268 320.513947 568.851611 320.356916 
Q 569.006299 320.199884 569.254736 319.693634 
L 569.51958 319.693634 
L 568.961768 322.564728 
z
M 577.296143 312.428009 
L 577.296143 312.631916 
Q 575.971924 312.969416 575.168018 313.501447 
Q 574.366455 314.031134 573.900049 314.790509 
Q 573.435986 315.547541 573.180518 316.667853 
Q 573.503955 316.449884 573.714893 316.381916 
Q 574.190674 316.236603 574.67583 316.236603 
Q 575.789111 316.236603 576.53208 317.047541 
Q 577.275049 317.856134 577.275049 319.253009 
Q 577.275049 320.235041 576.871924 321.055353 
Q 576.468799 321.875666 575.728174 322.323322 
Q 574.989893 322.770978 574.148486 322.770978 
Q 573.23208 322.770978 572.453955 322.269416 
Q 571.678174 321.765509 571.242236 320.799884 
Q 570.808643 319.831916 570.808643 318.697541 
Q 570.808643 317.026447 571.610205 315.587384 
Q 572.411768 314.148322 573.885986 313.295197 
Q 575.362549 312.442072 577.296143 312.428009 
z
M 573.084424 317.260822 
Q 573.02583 318.273322 573.02583 318.742072 
Q 573.02583 319.752228 573.220361 320.696759 
Q 573.414893 321.641291 573.752393 322.023322 
Q 573.993799 322.292853 574.324268 322.292853 
Q 574.659424 322.292853 574.921924 321.901447 
Q 575.186768 321.510041 575.186768 320.307697 
Q 575.186768 318.287384 574.696924 317.518634 
Q 574.382861 317.019416 573.846143 317.019416 
Q 573.553174 317.019416 573.084424 317.260822 
z
M 579.62583 320.307697 
Q 580.139111 320.307697 580.493018 320.668634 
Q 580.849268 321.027228 580.849268 321.531134 
Q 580.849268 322.037384 580.490674 322.393634 
Q 580.13208 322.747541 579.62583 322.747541 
Q 579.11958 322.747541 578.76333 322.393634 
Q 578.409424 322.037384 578.409424 321.531134 
Q 578.409424 321.027228 578.76333 320.668634 
Q 579.11958 320.307697 579.62583 320.307697 
z
M 583.785986 312.631916 
L 588.435986 312.631916 
L 587.697705 314.523322 
L 583.785986 314.523322 
L 583.41333 315.512384 
Q 585.939893 315.606134 587.301611 316.770978 
Q 588.421924 317.729572 588.421924 319.159259 
Q 588.421924 320.073322 587.901611 320.949884 
Q 587.381299 321.824103 586.436768 322.297541 
Q 585.492236 322.770978 584.364893 322.770978 
Q 583.148486 322.770978 582.496924 322.316291 
Q 582.042236 321.992853 582.042236 321.582697 
Q 582.042236 321.268634 582.278955 321.027228 
Q 582.518018 320.785822 582.834424 320.785822 
Q 583.120361 320.785822 583.41333 320.903009 
Q 583.706299 321.020197 584.416455 321.517072 
Q 584.861768 321.824103 585.185205 321.941291 
Q 585.412549 322.030353 585.698486 322.030353 
Q 586.298486 322.030353 586.718018 321.592072 
Q 587.139893 321.151447 587.139893 320.535041 
Q 587.139893 319.245978 585.85083 318.442072 
Q 584.561768 317.635822 582.600049 317.635822 
Q 582.40083 317.635822 582.00708 317.642853 
L 583.785986 312.631916 
z
" style="fill: #404040; stroke: #ffffff; stroke-width: 3.8"/>
    <path d="M 568.961768 322.564728 
L 563.116455 322.564728 
L 563.116455 322.403009 
Q 565.804736 319.203791 566.378955 318.097541 
Q 566.955518 316.991291 566.955518 315.936603 
Q 566.955518 315.167853 566.479736 314.659259 
Q 566.003955 314.148322 565.314893 314.148322 
Q 564.187549 314.148322 563.564111 315.278009 
L 563.292236 315.181916 
Q 563.68833 313.775666 564.49458 313.103009 
Q 565.30083 312.428009 566.355518 312.428009 
Q 567.107861 312.428009 567.731299 312.779572 
Q 568.354736 313.131134 568.706299 313.742853 
Q 569.057861 314.354572 569.057861 314.888947 
Q 569.057861 315.863947 568.514111 316.867072 
Q 567.77583 318.221759 565.284424 320.645197 
L 567.431299 320.645197 
Q 568.221143 320.645197 568.460205 320.579572 
Q 568.699268 320.513947 568.851611 320.356916 
Q 569.006299 320.199884 569.254736 319.693634 
L 569.51958 319.693634 
L 568.961768 322.564728 
z
M 577.296143 312.428009 
L 577.296143 312.631916 
Q 575.971924 312.969416 575.168018 313.501447 
Q 574.366455 314.031134 573.900049 314.790509 
Q 573.435986 315.547541 573.180518 316.667853 
Q 573.503955 316.449884 573.714893 316.381916 
Q 574.190674 316.236603 574.67583 316.236603 
Q 575.789111 316.236603 576.53208 317.047541 
Q 577.275049 317.856134 577.275049 319.253009 
Q 577.275049 320.235041 576.871924 321.055353 
Q 576.468799 321.875666 575.728174 322.323322 
Q 574.989893 322.770978 574.148486 322.770978 
Q 573.23208 322.770978 572.453955 322.269416 
Q 571.678174 321.765509 571.242236 320.799884 
Q 570.808643 319.831916 570.808643 318.697541 
Q 570.808643 317.026447 571.610205 315.587384 
Q 572.411768 314.148322 573.885986 313.295197 
Q 575.362549 312.442072 577.296143 312.428009 
z
M 573.084424 317.260822 
Q 573.02583 318.273322 573.02583 318.742072 
Q 573.02583 319.752228 573.220361 320.696759 
Q 573.414893 321.641291 573.752393 322.023322 
Q 573.993799 322.292853 574.324268 322.292853 
Q 574.659424 322.292853 574.921924 321.901447 
Q 575.186768 321.510041 575.186768 320.307697 
Q 575.186768 318.287384 574.696924 317.518634 
Q 574.382861 317.019416 573.846143 317.019416 
Q 573.553174 317.019416 573.084424 317.260822 
z
M 579.62583 320.307697 
Q 580.139111 320.307697 580.493018 320.668634 
Q 580.849268 321.027228 580.849268 321.531134 
Q 580.849268 322.037384 580.490674 322.393634 
Q 580.13208 322.747541 579.62583 322.747541 
Q 579.11958 322.747541 578.76333 322.393634 
Q 578.409424 322.037384 578.409424 321.531134 
Q 578.409424 321.027228 578.76333 320.668634 
Q 579.11958 320.307697 579.62583 320.307697 
z
M 583.785986 312.631916 
L 588.435986 312.631916 
L 587.697705 314.523322 
L 583.785986 314.523322 
L 583.41333 315.512384 
Q 585.939893 315.606134 587.301611 316.770978 
Q 588.421924 317.729572 588.421924 319.159259 
Q 588.421924 320.073322 587.901611 320.949884 
Q 587.381299 321.824103 586.436768 322.297541 
Q 585.492236 322.770978 584.364893 322.770978 
Q 583.148486 322.770978 582.496924 322.316291 
Q 582.042236 321.992853 582.042236 321.582697 
Q 582.042236 321.268634 582.278955 321.027228 
Q 582.518018 320.785822 582.834424 320.785822 
Q 583.120361 320.785822 583.41333 320.903009 
Q 583.706299 321.020197 584.416455 321.517072 
Q 584.861768 321.824103 585.185205 321.941291 
Q 585.412549 322.030353 585.698486 322.030353 
Q 586.298486 322.030353 586.718018 321.592072 
Q 587.139893 321.151447 587.139893 320.535041 
Q 587.139893 319.245978 585.85083 318.442072 
Q 584.561768 317.635822 582.600049 317.635822 
Q 582.40083 317.635822 582.00708 317.642853 
L 583.785986 312.631916 
z
" style="fill: #404040"/>
   </g>
   <g id="text_31">
    <path d="M 537.055631 277.754559 
Q 537.055631 279.24284 536.638443 280.531902 
Q 536.387662 281.321746 535.965787 281.827996 
Q 535.546256 282.331902 535.011881 282.629559 
Q 534.477506 282.927215 533.847037 282.927215 
Q 533.12985 282.927215 532.550943 282.56159 
Q 531.972037 282.193621 531.524381 281.51159 
Q 531.203287 281.014715 530.961881 280.187371 
Q 530.645475 279.067059 530.645475 277.871746 
Q 530.645475 276.254559 531.100162 274.897527 
Q 531.472818 273.777215 532.234537 273.181902 
Q 532.996256 272.584246 533.847037 272.584246 
Q 534.711881 272.584246 535.461881 273.174871 
Q 536.211881 273.763152 536.563443 274.759246 
Q 537.055631 276.127996 537.055631 277.754559 
z
M 534.7986 277.740496 
Q 534.7986 275.131902 534.770475 274.700652 
Q 534.695475 273.683465 534.418912 273.324871 
Q 534.2361 273.090496 533.825943 273.090496 
Q 533.509537 273.090496 533.326725 273.266277 
Q 533.05485 273.521746 532.958756 274.170965 
Q 532.865006 274.81784 532.865006 278.692059 
Q 532.865006 280.801434 533.012662 281.518621 
Q 533.122818 282.038934 533.326725 282.214715 
Q 533.532975 282.390496 533.868131 282.390496 
Q 534.2361 282.390496 534.418912 282.156121 
Q 534.725943 281.745965 534.770475 280.890496 
L 534.7986 277.740496 
z
M 539.479068 280.463934 
Q 539.99235 280.463934 540.346256 280.824871 
Q 540.702506 281.183465 540.702506 281.687371 
Q 540.702506 282.193621 540.343912 282.549871 
Q 539.985318 282.903777 539.479068 282.903777 
Q 538.972818 282.903777 538.616568 282.549871 
Q 538.262662 282.193621 538.262662 281.687371 
Q 538.262662 281.183465 538.616568 280.824871 
Q 538.972818 280.463934 539.479068 280.463934 
z
M 546.238443 272.584246 
L 546.238443 280.707684 
Q 546.238443 281.621746 546.318131 281.874871 
Q 546.400162 282.127996 546.655631 282.289715 
Q 546.913443 282.44909 547.478287 282.44909 
L 547.703287 282.44909 
L 547.703287 282.720965 
L 542.474381 282.720965 
L 542.474381 282.44909 
L 542.739225 282.44909 
Q 543.376725 282.44909 543.646256 282.303777 
Q 543.918131 282.156121 544.011881 281.900652 
Q 544.107975 281.645184 544.107975 280.707684 
L 544.107975 275.558465 
Q 544.107975 274.869402 544.04235 274.698309 
Q 543.976725 274.524871 543.796256 274.40534 
Q 543.618131 274.283465 543.383756 274.283465 
Q 543.008756 274.283465 542.474381 274.51784 
L 542.343131 274.252996 
L 545.997037 272.584246 
L 546.238443 272.584246 
z
" style="fill: #404040; stroke: #ffffff; stroke-width: 3.8"/>
    <path d="M 537.055631 277.754559 
Q 537.055631 279.24284 536.638443 280.531902 
Q 536.387662 281.321746 535.965787 281.827996 
Q 535.546256 282.331902 535.011881 282.629559 
Q 534.477506 282.927215 533.847037 282.927215 
Q 533.12985 282.927215 532.550943 282.56159 
Q 531.972037 282.193621 531.524381 281.51159 
Q 531.203287 281.014715 530.961881 280.187371 
Q 530.645475 279.067059 530.645475 277.871746 
Q 530.645475 276.254559 531.100162 274.897527 
Q 531.472818 273.777215 532.234537 273.181902 
Q 532.996256 272.584246 533.847037 272.584246 
Q 534.711881 272.584246 535.461881 273.174871 
Q 536.211881 273.763152 536.563443 274.759246 
Q 537.055631 276.127996 537.055631 277.754559 
z
M 534.7986 277.740496 
Q 534.7986 275.131902 534.770475 274.700652 
Q 534.695475 273.683465 534.418912 273.324871 
Q 534.2361 273.090496 533.825943 273.090496 
Q 533.509537 273.090496 533.326725 273.266277 
Q 533.05485 273.521746 532.958756 274.170965 
Q 532.865006 274.81784 532.865006 278.692059 
Q 532.865006 280.801434 533.012662 281.518621 
Q 533.122818 282.038934 533.326725 282.214715 
Q 533.532975 282.390496 533.868131 282.390496 
Q 534.2361 282.390496 534.418912 282.156121 
Q 534.725943 281.745965 534.770475 280.890496 
L 534.7986 277.740496 
z
M 539.479068 280.463934 
Q 539.99235 280.463934 540.346256 280.824871 
Q 540.702506 281.183465 540.702506 281.687371 
Q 540.702506 282.193621 540.343912 282.549871 
Q 539.985318 282.903777 539.479068 282.903777 
Q 538.972818 282.903777 538.616568 282.549871 
Q 538.262662 282.193621 538.262662 281.687371 
Q 538.262662 281.183465 538.616568 280.824871 
Q 538.972818 280.463934 539.479068 280.463934 
z
M 546.238443 272.584246 
L 546.238443 280.707684 
Q 546.238443 281.621746 546.318131 281.874871 
Q 546.400162 282.127996 546.655631 282.289715 
Q 546.913443 282.44909 547.478287 282.44909 
L 547.703287 282.44909 
L 547.703287 282.720965 
L 542.474381 282.720965 
L 542.474381 282.44909 
L 542.739225 282.44909 
Q 543.376725 282.44909 543.646256 282.303777 
Q 543.918131 282.156121 544.011881 281.900652 
Q 544.107975 281.645184 544.107975 280.707684 
L 544.107975 275.558465 
Q 544.107975 274.869402 544.04235 274.698309 
Q 543.976725 274.524871 543.796256 274.40534 
Q 543.618131 274.283465 543.383756 274.283465 
Q 543.008756 274.283465 542.474381 274.51784 
L 542.343131 274.252996 
L 545.997037 272.584246 
L 546.238443 272.584246 
z
" style="fill: #404040"/>
   </g>
   <g id="text_32">
    <path d="M 325.782367 343.248012 
L 319.937054 343.248012 
L 319.937054 343.086293 
Q 322.625336 339.887075 323.199554 338.780825 
Q 323.776117 337.674575 323.776117 336.619887 
Q 323.776117 335.851137 323.300336 335.342543 
Q 322.824554 334.831606 322.135492 334.831606 
Q 321.008148 334.831606 320.384711 335.961293 
L 320.112836 335.8652 
Q 320.508929 334.45895 321.315179 333.786293 
Q 322.121429 333.111293 323.176117 333.111293 
Q 323.928461 333.111293 324.551898 333.462856 
Q 325.175336 333.814418 325.526898 334.426137 
Q 325.878461 335.037856 325.878461 335.572231 
Q 325.878461 336.547231 325.334711 337.550356 
Q 324.596429 338.905043 322.105023 341.328481 
L 324.251898 341.328481 
Q 325.041742 341.328481 325.280804 341.262856 
Q 325.519867 341.197231 325.672211 341.0402 
Q 325.826898 340.883168 326.075336 340.376918 
L 326.340179 340.376918 
L 325.782367 343.248012 
z
M 329.729242 343.454262 
L 332.433929 335.258168 
L 330.373773 335.258168 
Q 329.166742 335.258168 328.557367 335.572231 
Q 328.133148 335.792543 327.854242 336.399575 
L 327.577679 336.399575 
L 328.294867 333.3152 
L 334.212836 333.3152 
L 330.880023 343.454262 
L 329.729242 343.454262 
z
M 336.446429 340.990981 
Q 336.959711 340.990981 337.313617 341.351918 
Q 337.669867 341.710512 337.669867 342.214418 
Q 337.669867 342.720668 337.311273 343.076918 
Q 336.952679 343.430825 336.446429 343.430825 
Q 335.940179 343.430825 335.583929 343.076918 
Q 335.230023 342.720668 335.230023 342.214418 
Q 335.230023 341.710512 335.583929 341.351918 
Q 335.940179 340.990981 336.446429 340.990981 
z
M 343.433148 337.637075 
Q 344.480804 338.405825 344.886273 339.069106 
Q 345.294086 339.732387 345.294086 340.5902 
Q 345.294086 341.7902 344.389398 342.622231 
Q 343.484711 343.454262 341.933148 343.454262 
Q 340.461273 343.454262 339.655023 342.730043 
Q 338.848773 342.003481 338.848773 340.955825 
Q 338.848773 340.156606 339.312836 339.556606 
Q 339.779242 338.956606 340.862054 338.457387 
Q 339.683148 337.557387 339.350336 336.985512 
Q 339.017523 336.413637 339.017523 335.65895 
Q 339.017523 334.662856 339.863617 333.905825 
Q 340.709711 333.148793 342.181586 333.148793 
Q 343.601898 333.148793 344.365961 333.819106 
Q 345.132367 334.487075 345.132367 335.424575 
Q 345.132367 336.1277 344.717523 336.666762 
Q 344.305023 337.205825 343.433148 337.637075 
z
M 342.877679 337.264418 
Q 343.147211 336.898793 343.278461 336.444106 
Q 343.412054 335.989418 343.412054 335.448012 
Q 343.412054 334.49645 343.001898 333.9902 
Q 342.694867 333.601137 342.151117 333.601137 
Q 341.661273 333.601137 341.316742 333.957387 
Q 340.972211 334.311293 340.972211 334.838637 
Q 340.972211 335.375356 341.356586 335.949575 
Q 341.740961 336.523793 342.877679 337.264418 
z
M 341.412836 338.80895 
Q 341.185492 339.0152 341.089398 339.18395 
Q 340.944086 339.439418 340.826898 339.931606 
Q 340.709711 340.42145 340.709711 340.955825 
Q 340.709711 341.644887 340.885492 342.10895 
Q 341.061273 342.573012 341.387054 342.779262 
Q 341.712836 342.983168 342.057367 342.983168 
Q 342.591742 342.983168 342.957367 342.591762 
Q 343.322992 342.200356 343.322992 341.518325 
Q 343.322992 340.098012 341.412836 338.80895 
z
" style="fill: #404040; stroke: #ffffff; stroke-width: 3.8"/>
    <path d="M 325.782367 343.248012 
L 319.937054 343.248012 
L 319.937054 343.086293 
Q 322.625336 339.887075 323.199554 338.780825 
Q 323.776117 337.674575 323.776117 336.619887 
Q 323.776117 335.851137 323.300336 335.342543 
Q 322.824554 334.831606 322.135492 334.831606 
Q 321.008148 334.831606 320.384711 335.961293 
L 320.112836 335.8652 
Q 320.508929 334.45895 321.315179 333.786293 
Q 322.121429 333.111293 323.176117 333.111293 
Q 323.928461 333.111293 324.551898 333.462856 
Q 325.175336 333.814418 325.526898 334.426137 
Q 325.878461 335.037856 325.878461 335.572231 
Q 325.878461 336.547231 325.334711 337.550356 
Q 324.596429 338.905043 322.105023 341.328481 
L 324.251898 341.328481 
Q 325.041742 341.328481 325.280804 341.262856 
Q 325.519867 341.197231 325.672211 341.0402 
Q 325.826898 340.883168 326.075336 340.376918 
L 326.340179 340.376918 
L 325.782367 343.248012 
z
M 329.729242 343.454262 
L 332.433929 335.258168 
L 330.373773 335.258168 
Q 329.166742 335.258168 328.557367 335.572231 
Q 328.133148 335.792543 327.854242 336.399575 
L 327.577679 336.399575 
L 328.294867 333.3152 
L 334.212836 333.3152 
L 330.880023 343.454262 
L 329.729242 343.454262 
z
M 336.446429 340.990981 
Q 336.959711 340.990981 337.313617 341.351918 
Q 337.669867 341.710512 337.669867 342.214418 
Q 337.669867 342.720668 337.311273 343.076918 
Q 336.952679 343.430825 336.446429 343.430825 
Q 335.940179 343.430825 335.583929 343.076918 
Q 335.230023 342.720668 335.230023 342.214418 
Q 335.230023 341.710512 335.583929 341.351918 
Q 335.940179 340.990981 336.446429 340.990981 
z
M 343.433148 337.637075 
Q 344.480804 338.405825 344.886273 339.069106 
Q 345.294086 339.732387 345.294086 340.5902 
Q 345.294086 341.7902 344.389398 342.622231 
Q 343.484711 343.454262 341.933148 343.454262 
Q 340.461273 343.454262 339.655023 342.730043 
Q 338.848773 342.003481 338.848773 340.955825 
Q 338.848773 340.156606 339.312836 339.556606 
Q 339.779242 338.956606 340.862054 338.457387 
Q 339.683148 337.557387 339.350336 336.985512 
Q 339.017523 336.413637 339.017523 335.65895 
Q 339.017523 334.662856 339.863617 333.905825 
Q 340.709711 333.148793 342.181586 333.148793 
Q 343.601898 333.148793 344.365961 333.819106 
Q 345.132367 334.487075 345.132367 335.424575 
Q 345.132367 336.1277 344.717523 336.666762 
Q 344.305023 337.205825 343.433148 337.637075 
z
M 342.877679 337.264418 
Q 343.147211 336.898793 343.278461 336.444106 
Q 343.412054 335.989418 343.412054 335.448012 
Q 343.412054 334.49645 343.001898 333.9902 
Q 342.694867 333.601137 342.151117 333.601137 
Q 341.661273 333.601137 341.316742 333.957387 
Q 340.972211 334.311293 340.972211 334.838637 
Q 340.972211 335.375356 341.356586 335.949575 
Q 341.740961 336.523793 342.877679 337.264418 
z
M 341.412836 338.80895 
Q 341.185492 339.0152 341.089398 339.18395 
Q 340.944086 339.439418 340.826898 339.931606 
Q 340.709711 340.42145 340.709711 340.955825 
Q 340.709711 341.644887 340.885492 342.10895 
Q 341.061273 342.573012 341.387054 342.779262 
Q 341.712836 342.983168 342.057367 342.983168 
Q 342.591742 342.983168 342.957367 342.591762 
Q 343.322992 342.200356 343.322992 341.518325 
Q 343.322992 340.098012 341.412836 338.80895 
z
" style="fill: #404040"/>
   </g>
  </g>
 </g>
 <defs>
  <clipPath id="paeb8ec4f0d">
   <rect x="7.2" y="51.034687" width="730.764" height="431.819207"/>
  </clipPath>
 </defs>
</svg>
