<?xml version="1.0" encoding="utf-8" standalone="no"?>
<!DOCTYPE svg PUBLIC "-//W3C//DTD SVG 1.1//EN"
  "http://www.w3.org/Graphics/SVG/1.1/DTD/svg11.dtd">
<svg xmlns:xlink="http://www.w3.org/1999/xlink" width="745.164pt" height="496.240997pt" viewBox="0 0 745.164 496.240997" xmlns="http://www.w3.org/2000/svg" version="1.1">
 <metadata>
  <rdf:RDF xmlns:dc="http://purl.org/dc/elements/1.1/" xmlns:cc="http://creativecommons.org/ns#" xmlns:rdf="http://www.w3.org/1999/02/22-rdf-syntax-ns#">
   <cc:Work>
    <dc:type rdf:resource="http://purl.org/dc/dcmitype/StillImage"/>
    <dc:date>2026-07-13T16:58:41.691789</dc:date>
    <dc:format>image/svg+xml</dc:format>
    <dc:creator>
     <cc:Agent>
      <dc:title>Matplotlib v3.10.8, https://matplotlib.org/</dc:title>
     </cc:Agent>
    </dc:creator>
   </cc:Work>
  </rdf:RDF>
 </metadata>
 <defs>
  <style type="text/css">*{stroke-linejoin: round; stroke-linecap: butt}</style>
 </defs>
 <g id="figure_1">
  <g id="patch_1">
   <path d="M 0 496.240997 
L 745.164 496.240997 
L 745.164 0 
L 0 0 
L 0 496.240997 
z
" style="fill: none"/>
  </g>
  <g id="axes_1">
   <g id="patch_2">
    <path d="M 120.350555 434.99279 
Q 120.350555 456.979354 120.350555 476.87029 
" clip-path="url(#p557ff1f1d7)" style="fill: none; stroke: #111111; stroke-width: 1.874387; stroke-linejoin: miter; stroke-linecap: round"/>
    <path d="M 123.894359 469.782682 
L 120.350555 476.87029 
L 116.806751 469.782682 
z
" clip-path="url(#p557ff1f1d7)" style="fill: #111111; stroke: #111111; stroke-width: 1.874387; stroke-linejoin: miter; stroke-linecap: round"/>
   </g>
   <g id="patch_3">
    <path d="M 120.350555 349.008425 
Q 120.350555 367.389398 120.350555 381.671616 
" clip-path="url(#p557ff1f1d7)" style="fill: none; stroke: #111111; stroke-width: 3.666038; stroke-linejoin: miter; stroke-linecap: round"/>
    <path d="M 124.467687 373.437352 
L 120.350555 381.671616 
L 116.233423 373.437352 
z
" clip-path="url(#p557ff1f1d7)" style="fill: #111111; stroke: #111111; stroke-width: 3.666038; stroke-linejoin: miter; stroke-linecap: round"/>
   </g>
   <g id="patch_4">
    <path d="M 120.350555 270.586517 
Q 120.350555 288.791853 120.350555 300.512592 
" clip-path="url(#p557ff1f1d7)" style="fill: none; stroke: #111111; stroke-width: 5.8; stroke-linejoin: miter; stroke-linecap: round"/>
    <path d="M 125.150555 290.912592 
L 120.350555 300.512592 
L 115.550555 290.912592 
z
" clip-path="url(#p557ff1f1d7)" style="fill: #111111; stroke: #111111; stroke-width: 5.8; stroke-linejoin: miter; stroke-linecap: round"/>
   </g>
   <g id="patch_5">
    <path d="M 370.224697 305.976716 
Q 370.224697 327.624187 370.224697 347.053016 
" clip-path="url(#p557ff1f1d7)" style="fill: none; stroke: #111111; stroke-width: 1.984415; stroke-linejoin: miter; stroke-linecap: round"/>
    <path d="M 373.80371 339.89499 
L 370.224697 347.053016 
L 366.645684 339.89499 
z
" clip-path="url(#p557ff1f1d7)" style="fill: #111111; stroke: #111111; stroke-width: 1.984415; stroke-linejoin: miter; stroke-linecap: round"/>
   </g>
   <g id="patch_6">
    <path d="M 370.224697 214.177792 
Q 370.224697 235.805137 370.224697 254.281588 
" clip-path="url(#p557ff1f1d7)" style="fill: none; stroke: #111111; stroke-width: 2.818245; stroke-linejoin: miter; stroke-linecap: round"/>
    <path d="M 374.070535 246.589911 
L 370.224697 254.281588 
L 366.378858 246.589911 
z
" clip-path="url(#p557ff1f1d7)" style="fill: #111111; stroke: #111111; stroke-width: 2.818245; stroke-linejoin: miter; stroke-linecap: round"/>
   </g>
   <g id="patch_7">
    <path d="M 370.224697 123.650224 
Q 370.224697 144.662018 370.224697 160.401996 
" clip-path="url(#p557ff1f1d7)" style="fill: none; stroke: #111111; stroke-width: 4.715256; stroke-linejoin: miter; stroke-linecap: round"/>
    <path d="M 374.677579 151.496232 
L 370.224697 160.401996 
L 365.771815 151.496232 
z
" clip-path="url(#p557ff1f1d7)" style="fill: #111111; stroke: #111111; stroke-width: 4.715256; stroke-linejoin: miter; stroke-linecap: round"/>
   </g>
   <g id="patch_8">
    <path d="M 586.153672 276.88886 
Q 586.153672 296.197631 586.153672 312.253014 
" clip-path="url(#p557ff1f1d7)" style="fill: none; stroke: #111111; stroke-width: 2.909918; stroke-linejoin: miter; stroke-linecap: round"/>
    <path d="M 590.028846 304.502666 
L 586.153672 312.253014 
L 582.278498 304.502666 
z
" clip-path="url(#p557ff1f1d7)" style="fill: #111111; stroke: #111111; stroke-width: 2.909918; stroke-linejoin: miter; stroke-linecap: round"/>
   </g>
   <g id="line2d_1">
    <path d="M 165.610777 478.965919 
L 550.322663 478.965919 
" clip-path="url(#p557ff1f1d7)" style="fill: none; stroke-dasharray: 5.6,4.2; stroke-dashoffset: 0; stroke: #404040; stroke-width: 1.4"/>
   </g>
   <g id="line2d_2">
    <path d="M 165.610777 385.770371 
L 550.322663 385.770371 
" clip-path="url(#p557ff1f1d7)" style="fill: none; stroke-dasharray: 5.6,4.2; stroke-dashoffset: 0; stroke: #404040; stroke-width: 1.4"/>
   </g>
   <g id="line2d_3">
    <path d="M 415.484919 349.271659 
L 560.694797 349.271659 
" clip-path="url(#p557ff1f1d7)" style="fill: none; stroke-dasharray: 5.6,4.2; stroke-dashoffset: 0; stroke: #404040; stroke-width: 1.4"/>
   </g>
   <g id="patch_9">
    <path d="M 665.359061 315.506402 
Q 564.830277 395.369256 465.006868 474.67174 
" clip-path="url(#p557ff1f1d7)" style="fill: none; stroke: #404040; stroke-width: 0.805764; stroke-linejoin: miter; stroke-linecap: round"/>
    <path d="M 471.137517 473.37986 
L 465.006868 474.67174 
L 467.651753 468.992092 
z
" clip-path="url(#p557ff1f1d7)" style="fill: #404040; stroke: #404040; stroke-width: 0.805764; stroke-linejoin: miter; stroke-linecap: round"/>
   </g>
   <g id="patch_10">
    <path d="M 620.098839 315.506402 
Q 578.225447 348.771785 538.820942 380.075817 
" clip-path="url(#p557ff1f1d7)" style="fill: none; stroke: #404040; stroke-width: 2.820255; stroke-linejoin: miter; stroke-linecap: round"/>
    <path d="M 546.420838 378.47433 
L 538.820942 380.075817 
L 542.09969 373.035008 
z
" clip-path="url(#p557ff1f1d7)" style="fill: #404040; stroke: #404040; stroke-width: 2.820255; stroke-linejoin: miter; stroke-linecap: round"/>
   </g>
   <g id="patch_11">
    <path d="M 574.838617 315.506402 
Q 542.187579 331.095836 510.941689 346.014374 
" clip-path="url(#p557ff1f1d7)" style="fill: none; stroke: #404040; stroke-width: 1.392708; stroke-linejoin: miter; stroke-linecap: round"/>
    <path d="M 517.643349 346.136339 
L 510.941689 346.014374 
L 515.060258 340.726225 
z
" clip-path="url(#p557ff1f1d7)" style="fill: #404040; stroke: #404040; stroke-width: 1.392708; stroke-linejoin: miter; stroke-linecap: round"/>
   </g>
   <g id="patch_12">
    <path d="M 370.224697 349.271659 
Q 335.393545 366.209454 305.255287 380.865174 
" clip-path="url(#p557ff1f1d7)" style="fill: none; stroke: #404040; stroke-width: 4.66743; stroke-linejoin: miter; stroke-linecap: round"/>
    <path d="M 314.398333 380.96606 
L 305.255287 380.865174 
L 310.821824 373.611269 
z
" clip-path="url(#p557ff1f1d7)" style="fill: #404040; stroke: #404040; stroke-width: 4.66743; stroke-linejoin: miter; stroke-linecap: round"/>
   </g>
   <g id="line2d_4">
    <path d="M 120.350555 385.770371 
L 120.350555 429.7435 
" clip-path="url(#p557ff1f1d7)" style="fill: none; stroke: #111111; stroke-width: 1.874387"/>
   </g>
   <g id="line2d_5">
    <path d="M 120.350555 306.997189 
L 120.350555 343.759135 
" clip-path="url(#p557ff1f1d7)" style="fill: none; stroke: #111111; stroke-width: 3.666038"/>
   </g>
   <g id="line2d_6">
    <path d="M 120.350555 228.926556 
L 120.350555 265.337228 
" clip-path="url(#p557ff1f1d7)" style="fill: none; stroke: #111111; stroke-width: 5.8"/>
   </g>
   <g id="line2d_7">
    <path d="M 370.224697 257.432482 
L 370.224697 300.727426 
" clip-path="url(#p557ff1f1d7)" style="fill: none; stroke: #111111; stroke-width: 1.984415"/>
   </g>
   <g id="line2d_8">
    <path d="M 370.224697 165.673813 
L 370.224697 208.928502 
" clip-path="url(#p557ff1f1d7)" style="fill: none; stroke: #111111; stroke-width: 2.818245"/>
   </g>
   <g id="line2d_9">
    <path d="M 370.224697 76.377346 
L 370.224697 118.400934 
" clip-path="url(#p557ff1f1d7)" style="fill: none; stroke: #111111; stroke-width: 4.715256"/>
   </g>
   <g id="line2d_10">
    <path d="M 586.153672 233.022029 
L 586.153672 271.639571 
" clip-path="url(#p557ff1f1d7)" style="fill: none; stroke: #111111; stroke-width: 2.909918"/>
   </g>
   <g id="line2d_11">
    <path d="M 75.090333 478.965919 
L 165.610777 478.965919 
" clip-path="url(#p557ff1f1d7)" style="fill: none; stroke: #111111; stroke-width: 3.6; stroke-linecap: round"/>
   </g>
   <g id="line2d_12">
    <path d="M 75.090333 385.770371 
L 165.610777 385.770371 
" clip-path="url(#p557ff1f1d7)" style="fill: none; stroke: #111111; stroke-width: 3.6; stroke-linecap: round"/>
   </g>
   <g id="line2d_13">
    <path d="M 75.090333 306.997189 
L 165.610777 306.997189 
" clip-path="url(#p557ff1f1d7)" style="fill: none; stroke: #111111; stroke-width: 3.6; stroke-linecap: round"/>
   </g>
   <g id="line2d_14">
    <path d="M 75.090333 228.926556 
L 165.610777 228.926556 
" clip-path="url(#p557ff1f1d7)" style="fill: none; stroke: #111111; stroke-width: 3.6; stroke-linecap: round"/>
   </g>
   <g id="line2d_15">
    <path d="M 324.964475 349.271659 
L 415.484919 349.271659 
" clip-path="url(#p557ff1f1d7)" style="fill: none; stroke: #111111; stroke-width: 3.6; stroke-linecap: round"/>
   </g>
   <g id="line2d_16">
    <path d="M 324.964475 257.432482 
L 415.484919 257.432482 
" clip-path="url(#p557ff1f1d7)" style="fill: none; stroke: #111111; stroke-width: 3.6; stroke-linecap: round"/>
   </g>
   <g id="line2d_17">
    <path d="M 324.964475 165.673813 
L 415.484919 165.673813 
" clip-path="url(#p557ff1f1d7)" style="fill: none; stroke: #111111; stroke-width: 3.6; stroke-linecap: round"/>
   </g>
   <g id="line2d_18">
    <path d="M 324.964475 76.377346 
L 415.484919 76.377346 
" clip-path="url(#p557ff1f1d7)" style="fill: none; stroke: #111111; stroke-width: 3.6; stroke-linecap: round"/>
   </g>
   <g id="line2d_19">
    <path d="M 574.838617 315.506402 
L 665.359061 315.506402 
" clip-path="url(#p557ff1f1d7)" style="fill: none; stroke: #111111; stroke-width: 3.6; stroke-linecap: round"/>
   </g>
   <g id="line2d_20">
    <path d="M 574.838617 233.022029 
L 665.359061 233.022029 
" clip-path="url(#p557ff1f1d7)" style="fill: none; stroke: #111111; stroke-width: 3.6; stroke-linecap: round"/>
   </g>
   <g id="text_1">
    <!-- $^{94}\mathrm{Ni}$ -->
    <g transform="translate(339.262 33.034687) scale(0.34 -0.34)">
     <defs>
      <path id="DejaVuSans-39" d="M 703 97 
L 703 672 
Q 941 559 1184 500 
Q 1428 441 1663 441 
Q 2288 441 2617 861 
Q 2947 1281 2994 2138 
Q 2813 1869 2534 1725 
Q 2256 1581 1919 1581 
Q 1219 1581 811 2004 
Q 403 2428 403 3163 
Q 403 3881 828 4315 
Q 1253 4750 1959 4750 
Q 2769 4750 3195 4129 
Q 3622 3509 3622 2328 
Q 3622 1225 3098 567 
Q 2575 -91 1691 -91 
Q 1453 -91 1209 -44 
Q 966 3 703 97 
z
M 1959 2075 
Q 2384 2075 2632 2365 
Q 2881 2656 2881 3163 
Q 2881 3666 2632 3958 
Q 2384 4250 1959 4250 
Q 1534 4250 1286 3958 
Q 1038 3666 1038 3163 
Q 1038 2656 1286 2365 
Q 1534 2075 1959 2075 
z
" transform="scale(0.015625)"/>
      <path id="DejaVuSans-34" d="M 2419 4116 
L 825 1625 
L 2419 1625 
L 2419 4116 
z
M 2253 4666 
L 3047 4666 
L 3047 1625 
L 3713 1625 
L 3713 1100 
L 3047 1100 
L 3047 0 
L 2419 0 
L 2419 1100 
L 313 1100 
L 313 1709 
L 2253 4666 
z
" transform="scale(0.015625)"/>
      <path id="DejaVuSans-4e" d="M 628 4666 
L 1478 4666 
L 3547 763 
L 3547 4666 
L 4159 4666 
L 4159 0 
L 3309 0 
L 1241 3903 
L 1241 0 
L 628 0 
L 628 4666 
z
" transform="scale(0.015625)"/>
      <path id="DejaVuSans-69" d="M 603 3500 
L 1178 3500 
L 1178 0 
L 603 0 
L 603 3500 
z
M 603 4863 
L 1178 4863 
L 1178 4134 
L 603 4134 
L 603 4863 
z
" transform="scale(0.015625)"/>
     </defs>
     <use xlink:href="#DejaVuSans-39" transform="translate(0.957031 39.046875) scale(0.7)"/>
     <use xlink:href="#DejaVuSans-34" transform="translate(45.493164 39.046875) scale(0.7)"/>
     <use xlink:href="#DejaVuSans-4e" transform="translate(92.763672 0.765625)"/>
     <use xlink:href="#DejaVuSans-69" transform="translate(167.568359 0.765625)"/>
    </g>
   </g>
   <g id="text_2">
    <!-- 0 -->
    <g transform="translate(46.98525 483.380919) scale(0.16 -0.16)">
     <defs>
      <path id="DejaVuSans-BoldOblique-30" d="M 1913 728 
Q 2153 728 2339 872 
Q 2525 1016 2650 1294 
Q 2738 1491 2809 1742 
Q 2881 1994 2944 2338 
Q 2997 2616 3025 2850 
Q 3053 3084 3053 3250 
Q 3053 3600 2928 3764 
Q 2803 3928 2541 3928 
Q 2297 3928 2112 3789 
Q 1928 3650 1806 3366 
Q 1713 3163 1636 2903 
Q 1559 2644 1503 2338 
Q 1450 2056 1422 1815 
Q 1394 1575 1394 1409 
Q 1394 1063 1522 895 
Q 1650 728 1913 728 
z
M 4225 3072 
Q 4225 2450 4053 1862 
Q 3881 1275 3572 831 
Q 3256 375 2809 142 
Q 2363 -91 1813 -91 
Q 1047 -91 639 343 
Q 231 778 231 1594 
Q 231 2206 401 2795 
Q 572 3384 878 3822 
Q 1200 4281 1644 4515 
Q 2088 4750 2644 4750 
Q 3403 4750 3814 4314 
Q 4225 3878 4225 3072 
z
" transform="scale(0.015625)"/>
     </defs>
     <use xlink:href="#DejaVuSans-BoldOblique-30"/>
    </g>
   </g>
   <g id="text_3">
    <!-- 0⁺ -->
    <g transform="translate(182.58336 484.121153) scale(0.23 -0.23)">
     <defs>
      <path id="TimesNewRomanPS-BoldMT-30" d="M 2966 2119 
Q 2966 1484 2788 934 
Q 2681 597 2501 381 
Q 2322 166 2094 39 
Q 1866 -88 1597 -88 
Q 1291 -88 1044 68 
Q 797 225 606 516 
Q 469 728 366 1081 
Q 231 1559 231 2069 
Q 231 2759 425 3338 
Q 584 3816 909 4070 
Q 1234 4325 1597 4325 
Q 1966 4325 2286 4073 
Q 2606 3822 2756 3397 
Q 2966 2813 2966 2119 
z
M 2003 2125 
Q 2003 3238 1991 3422 
Q 1959 3856 1841 4009 
Q 1763 4109 1588 4109 
Q 1453 4109 1375 4034 
Q 1259 3925 1218 3648 
Q 1178 3372 1178 1719 
Q 1178 819 1241 513 
Q 1288 291 1375 216 
Q 1463 141 1606 141 
Q 1763 141 1841 241 
Q 1972 416 1991 781 
L 2003 2125 
z
" transform="scale(0.015625)"/>
      <path id="DejaVuSerif-Bold-207a" d="M 1916 4344 
L 1916 3441 
L 2950 3441 
L 2950 3044 
L 1916 3044 
L 1916 2141 
L 1463 2141 
L 1463 3044 
L 428 3044 
L 428 3441 
L 1463 3441 
L 1463 4344 
L 1916 4344 
z
" transform="scale(0.015625)"/>
     </defs>
     <use xlink:href="#TimesNewRomanPS-BoldMT-30"/>
     <use xlink:href="#DejaVuSerif-Bold-207a" transform="translate(50 0)"/>
    </g>
   </g>
   <g id="text_4">
    <!-- 1633 -->
    <g transform="translate(13.58775 390.185371) scale(0.16 -0.16)">
     <defs>
      <path id="DejaVuSans-BoldOblique-31" d="M 441 831 
L 1503 831 
L 2088 3847 
L 953 3622 
L 1113 4441 
L 2241 4666 
L 3384 4666 
L 2644 831 
L 3700 831 
L 3541 0 
L 275 0 
L 441 831 
z
" transform="scale(0.015625)"/>
      <path id="DejaVuSans-BoldOblique-36" d="M 2316 2303 
Q 1959 2303 1731 2009 
Q 1503 1716 1503 1253 
Q 1503 975 1643 820 
Q 1784 666 2034 666 
Q 2388 666 2617 955 
Q 2847 1244 2847 1684 
Q 2847 1984 2709 2143 
Q 2572 2303 2316 2303 
z
M 4225 4544 
L 4056 3681 
Q 3788 3819 3534 3887 
Q 3281 3956 3028 3956 
Q 2447 3956 2087 3643 
Q 1728 3331 1650 2766 
Q 1894 2925 2151 3001 
Q 2409 3078 2700 3078 
Q 3275 3078 3640 2737 
Q 4006 2397 4006 1869 
Q 4006 1006 3442 454 
Q 2878 -97 1991 -97 
Q 1194 -97 756 354 
Q 319 806 319 1631 
Q 319 2269 512 2848 
Q 706 3428 1056 3847 
Q 1431 4294 1942 4519 
Q 2453 4744 3091 4744 
Q 3384 4744 3662 4694 
Q 3941 4644 4225 4544 
z
" transform="scale(0.015625)"/>
      <path id="DejaVuSans-BoldOblique-33" d="M 3022 2516 
Q 3375 2434 3572 2187 
Q 3769 1941 3769 1581 
Q 3769 806 3155 357 
Q 2541 -91 1466 -91 
Q 1059 -91 692 -33 
Q 325 25 0 141 
L 178 1069 
Q 456 906 784 817 
Q 1113 728 1441 728 
Q 1969 728 2276 926 
Q 2584 1125 2584 1459 
Q 2584 1738 2350 1877 
Q 2116 2016 1644 2016 
L 1166 2016 
L 1319 2791 
L 1825 2791 
Q 2316 2791 2602 2969 
Q 2888 3147 2888 3450 
Q 2888 3688 2689 3813 
Q 2491 3938 2113 3938 
Q 1847 3938 1534 3869 
Q 1222 3800 884 3669 
L 1056 4550 
Q 1425 4650 1783 4700 
Q 2141 4750 2491 4750 
Q 3281 4750 3679 4487 
Q 4078 4225 4078 3706 
Q 4078 3241 3801 2930 
Q 3525 2619 3022 2516 
z
" transform="scale(0.015625)"/>
     </defs>
     <use xlink:href="#DejaVuSans-BoldOblique-31"/>
     <use xlink:href="#DejaVuSans-BoldOblique-36" transform="translate(69.580078 0)"/>
     <use xlink:href="#DejaVuSans-BoldOblique-33" transform="translate(139.160156 0)"/>
     <use xlink:href="#DejaVuSans-BoldOblique-33" transform="translate(208.740234 0)"/>
    </g>
   </g>
   <g id="text_5">
    <!-- 2⁺ -->
    <g transform="translate(182.58336 390.925605) scale(0.23 -0.23)">
     <defs>
      <path id="TimesNewRomanPS-BoldMT-32" d="M 2650 0 
L 156 0 
L 156 69 
Q 1303 1434 1548 1906 
Q 1794 2378 1794 2828 
Q 1794 3156 1591 3373 
Q 1388 3591 1094 3591 
Q 613 3591 347 3109 
L 231 3150 
Q 400 3750 744 4037 
Q 1088 4325 1538 4325 
Q 1859 4325 2125 4175 
Q 2391 4025 2541 3764 
Q 2691 3503 2691 3275 
Q 2691 2859 2459 2431 
Q 2144 1853 1081 819 
L 1997 819 
Q 2334 819 2436 847 
Q 2538 875 2603 942 
Q 2669 1009 2775 1225 
L 2888 1225 
L 2650 0 
z
" transform="scale(0.015625)"/>
     </defs>
     <use xlink:href="#TimesNewRomanPS-BoldMT-32"/>
     <use xlink:href="#DejaVuSerif-Bold-207a" transform="translate(50 0)"/>
    </g>
   </g>
   <g id="text_6">
    <!-- 3014 -->
    <g transform="translate(13.58775 311.412189) scale(0.16 -0.16)">
     <defs>
      <path id="DejaVuSans-BoldOblique-34" d="M 2638 3641 
L 978 1722 
L 2259 1722 
L 2638 3641 
z
M 2606 4666 
L 3975 4666 
L 3397 1722 
L 4063 1722 
L 3897 850 
L 3231 850 
L 3066 0 
L 1925 0 
L 2094 850 
L -6 850 
L 197 1881 
L 2606 4666 
z
" transform="scale(0.015625)"/>
     </defs>
     <use xlink:href="#DejaVuSans-BoldOblique-33"/>
     <use xlink:href="#DejaVuSans-BoldOblique-30" transform="translate(69.580078 0)"/>
     <use xlink:href="#DejaVuSans-BoldOblique-31" transform="translate(139.160156 0)"/>
     <use xlink:href="#DejaVuSans-BoldOblique-34" transform="translate(208.740234 0)"/>
    </g>
   </g>
   <g id="text_7">
    <!-- 4⁺ -->
    <g transform="translate(182.58336 312.152423) scale(0.23 -0.23)">
     <defs>
      <path id="TimesNewRomanPS-BoldMT-34" d="M 159 1597 
L 2172 4325 
L 2553 4325 
L 2553 1597 
L 2941 1597 
L 2941 950 
L 2553 950 
L 2553 0 
L 1694 0 
L 1694 950 
L 159 950 
L 159 1597 
z
M 463 1597 
L 1694 1597 
L 1694 3269 
L 463 1597 
z
" transform="scale(0.015625)"/>
     </defs>
     <use xlink:href="#TimesNewRomanPS-BoldMT-34"/>
     <use xlink:href="#DejaVuSerif-Bold-207a" transform="translate(50 0)"/>
    </g>
   </g>
   <g id="text_8">
    <!-- 4382 -->
    <g transform="translate(13.58775 233.341556) scale(0.16 -0.16)">
     <defs>
      <path id="DejaVuSans-BoldOblique-38" d="M 2150 2088 
Q 1784 2088 1539 1839 
Q 1294 1591 1294 1228 
Q 1294 969 1453 817 
Q 1613 666 1888 666 
Q 2259 666 2503 911 
Q 2747 1156 2747 1522 
Q 2747 1781 2586 1934 
Q 2425 2088 2150 2088 
z
M 1381 2484 
Q 1044 2625 876 2850 
Q 709 3075 709 3391 
Q 709 4025 1229 4387 
Q 1750 4750 2669 4750 
Q 3406 4750 3812 4475 
Q 4219 4200 4219 3700 
Q 4219 3256 3936 2940 
Q 3653 2625 3128 2484 
Q 3509 2338 3690 2091 
Q 3872 1844 3872 1466 
Q 3872 747 3311 328 
Q 2750 -91 1772 -91 
Q 1000 -91 570 217 
Q 141 525 141 1075 
Q 141 1572 470 1945 
Q 800 2319 1381 2484 
z
M 2559 3994 
Q 2241 3994 2048 3808 
Q 1856 3622 1856 3316 
Q 1856 3103 1995 2972 
Q 2134 2841 2363 2841 
Q 2681 2841 2873 3027 
Q 3066 3213 3066 3519 
Q 3066 3734 2927 3864 
Q 2788 3994 2559 3994 
z
" transform="scale(0.015625)"/>
      <path id="DejaVuSans-BoldOblique-32" d="M 1581 884 
L 3609 884 
L 3438 0 
L 50 0 
L 225 891 
L 2209 2388 
Q 2534 2638 2704 2894 
Q 2875 3150 2875 3391 
Q 2875 3647 2700 3787 
Q 2525 3928 2209 3928 
Q 1913 3928 1547 3811 
Q 1181 3694 722 3450 
L 922 4441 
Q 1347 4597 1756 4673 
Q 2166 4750 2566 4750 
Q 3278 4750 3687 4442 
Q 4097 4134 4097 3603 
Q 4097 3147 3847 2772 
Q 3597 2397 2747 1759 
L 1581 884 
z
" transform="scale(0.015625)"/>
     </defs>
     <use xlink:href="#DejaVuSans-BoldOblique-34"/>
     <use xlink:href="#DejaVuSans-BoldOblique-33" transform="translate(69.580078 0)"/>
     <use xlink:href="#DejaVuSans-BoldOblique-38" transform="translate(139.160156 0)"/>
     <use xlink:href="#DejaVuSans-BoldOblique-32" transform="translate(208.740234 0)"/>
    </g>
   </g>
   <g id="text_9">
    <!-- 6⁺ -->
    <g transform="translate(182.58336 234.081791) scale(0.23 -0.23)">
     <defs>
      <path id="TimesNewRomanPS-BoldMT-36" d="M 3006 4325 
L 3006 4238 
Q 2441 4094 2098 3867 
Q 1756 3641 1557 3317 
Q 1359 2994 1250 2516 
Q 1388 2609 1478 2638 
Q 1681 2700 1888 2700 
Q 2363 2700 2680 2354 
Q 2997 2009 2997 1413 
Q 2997 994 2825 644 
Q 2653 294 2337 103 
Q 2022 -88 1663 -88 
Q 1272 -88 940 126 
Q 609 341 423 753 
Q 238 1166 238 1650 
Q 238 2363 580 2977 
Q 922 3591 1551 3955 
Q 2181 4319 3006 4325 
z
M 1209 2263 
Q 1184 1831 1184 1631 
Q 1184 1200 1267 797 
Q 1350 394 1494 231 
Q 1597 116 1738 116 
Q 1881 116 1993 283 
Q 2106 450 2106 963 
Q 2106 1825 1897 2153 
Q 1763 2366 1534 2366 
Q 1409 2366 1209 2263 
z
" transform="scale(0.015625)"/>
     </defs>
     <use xlink:href="#TimesNewRomanPS-BoldMT-36"/>
     <use xlink:href="#DejaVuSerif-Bold-207a" transform="translate(50 0)"/>
    </g>
   </g>
   <g id="text_10">
    <!-- 2273 -->
    <g transform="translate(263.461892 353.686659) scale(0.16 -0.16)">
     <defs>
      <path id="DejaVuSans-BoldOblique-37" d="M 922 4666 
L 4441 4666 
L 4300 3981 
L 1703 0 
L 500 0 
L 2969 3781 
L 756 3781 
L 922 4666 
z
" transform="scale(0.015625)"/>
     </defs>
     <use xlink:href="#DejaVuSans-BoldOblique-32"/>
     <use xlink:href="#DejaVuSans-BoldOblique-32" transform="translate(69.580078 0)"/>
     <use xlink:href="#DejaVuSans-BoldOblique-37" transform="translate(139.160156 0)"/>
     <use xlink:href="#DejaVuSans-BoldOblique-33" transform="translate(208.740234 0)"/>
    </g>
   </g>
   <g id="text_11">
    <!-- 0⁺ -->
    <g transform="translate(432.457502 354.426894) scale(0.23 -0.23)">
     <use xlink:href="#TimesNewRomanPS-BoldMT-30"/>
     <use xlink:href="#DejaVuSerif-Bold-207a" transform="translate(50 0)"/>
    </g>
   </g>
   <g id="text_12">
    <!-- 3883 -->
    <g transform="translate(263.461892 261.847482) scale(0.16 -0.16)">
     <use xlink:href="#DejaVuSans-BoldOblique-33"/>
     <use xlink:href="#DejaVuSans-BoldOblique-38" transform="translate(69.580078 0)"/>
     <use xlink:href="#DejaVuSans-BoldOblique-38" transform="translate(139.160156 0)"/>
     <use xlink:href="#DejaVuSans-BoldOblique-33" transform="translate(208.740234 0)"/>
    </g>
   </g>
   <g id="text_13">
    <!-- 2⁺ -->
    <g transform="translate(432.457502 262.587716) scale(0.23 -0.23)">
     <use xlink:href="#TimesNewRomanPS-BoldMT-32"/>
     <use xlink:href="#DejaVuSerif-Bold-207a" transform="translate(50 0)"/>
    </g>
   </g>
   <g id="text_14">
    <!-- 5491 -->
    <g transform="translate(263.461892 170.088813) scale(0.16 -0.16)">
     <defs>
      <path id="DejaVuSans-BoldOblique-35" d="M 1131 4666 
L 4122 4666 
L 3950 3781 
L 1919 3781 
L 1778 3059 
Q 1916 3097 2064 3117 
Q 2213 3138 2363 3138 
Q 3078 3138 3481 2811 
Q 3884 2484 3884 1906 
Q 3884 988 3262 448 
Q 2641 -91 1575 -91 
Q 1184 -91 815 -14 
Q 447 63 84 219 
L 269 1166 
Q 616 941 942 834 
Q 1269 728 1606 728 
Q 2100 728 2397 986 
Q 2694 1244 2694 1663 
Q 2694 1963 2469 2139 
Q 2244 2316 1856 2316 
Q 1594 2316 1289 2248 
Q 984 2181 622 2041 
L 1131 4666 
z
" transform="scale(0.015625)"/>
      <path id="DejaVuSans-BoldOblique-39" d="M 263 103 
L 428 966 
Q 700 825 953 758 
Q 1206 691 1459 691 
Q 2041 691 2400 1003 
Q 2759 1316 2834 1881 
Q 2594 1722 2337 1645 
Q 2081 1569 1791 1569 
Q 1219 1569 853 1909 
Q 488 2250 488 2778 
Q 488 3641 1052 4192 
Q 1616 4744 2503 4744 
Q 3300 4744 3736 4292 
Q 4172 3841 4172 3016 
Q 4172 2381 3978 1801 
Q 3784 1222 3431 800 
Q 3056 353 2548 128 
Q 2041 -97 1403 -97 
Q 1106 -97 825 -47 
Q 544 3 263 103 
z
M 2169 2344 
Q 2525 2344 2753 2637 
Q 2981 2931 2981 3391 
Q 2981 3675 2845 3828 
Q 2709 3981 2456 3981 
Q 2103 3981 1870 3690 
Q 1638 3400 1638 2963 
Q 1638 2663 1775 2503 
Q 1913 2344 2169 2344 
z
" transform="scale(0.015625)"/>
     </defs>
     <use xlink:href="#DejaVuSans-BoldOblique-35"/>
     <use xlink:href="#DejaVuSans-BoldOblique-34" transform="translate(69.580078 0)"/>
     <use xlink:href="#DejaVuSans-BoldOblique-39" transform="translate(139.160156 0)"/>
     <use xlink:href="#DejaVuSans-BoldOblique-31" transform="translate(208.740234 0)"/>
    </g>
   </g>
   <g id="text_15">
    <!-- 4⁺ -->
    <g transform="translate(432.457502 170.829047) scale(0.23 -0.23)">
     <use xlink:href="#TimesNewRomanPS-BoldMT-34"/>
     <use xlink:href="#DejaVuSerif-Bold-207a" transform="translate(50 0)"/>
    </g>
   </g>
   <g id="text_16">
    <!-- 7056 -->
    <g transform="translate(263.461892 80.792346) scale(0.16 -0.16)">
     <use xlink:href="#DejaVuSans-BoldOblique-37"/>
     <use xlink:href="#DejaVuSans-BoldOblique-30" transform="translate(69.580078 0)"/>
     <use xlink:href="#DejaVuSans-BoldOblique-35" transform="translate(139.160156 0)"/>
     <use xlink:href="#DejaVuSans-BoldOblique-36" transform="translate(208.740234 0)"/>
    </g>
   </g>
   <g id="text_17">
    <!-- 6⁺ -->
    <g transform="translate(432.457502 81.53258) scale(0.23 -0.23)">
     <use xlink:href="#TimesNewRomanPS-BoldMT-36"/>
     <use xlink:href="#DejaVuSerif-Bold-207a" transform="translate(50 0)"/>
    </g>
   </g>
   <g id="text_18">
    <!-- 2865 -->
    <g transform="translate(513.336034 319.921402) scale(0.16 -0.16)">
     <use xlink:href="#DejaVuSans-BoldOblique-32"/>
     <use xlink:href="#DejaVuSans-BoldOblique-38" transform="translate(69.580078 0)"/>
     <use xlink:href="#DejaVuSans-BoldOblique-36" transform="translate(139.160156 0)"/>
     <use xlink:href="#DejaVuSans-BoldOblique-35" transform="translate(208.740234 0)"/>
    </g>
   </g>
   <g id="text_19">
    <!-- 2⁺ -->
    <g transform="translate(682.331644 320.661636) scale(0.23 -0.23)">
     <use xlink:href="#TimesNewRomanPS-BoldMT-32"/>
     <use xlink:href="#DejaVuSerif-Bold-207a" transform="translate(50 0)"/>
    </g>
   </g>
   <g id="text_20">
    <!-- 4310 -->
    <g transform="translate(513.336034 237.437029) scale(0.16 -0.16)">
     <use xlink:href="#DejaVuSans-BoldOblique-34"/>
     <use xlink:href="#DejaVuSans-BoldOblique-33" transform="translate(69.580078 0)"/>
     <use xlink:href="#DejaVuSans-BoldOblique-31" transform="translate(139.160156 0)"/>
     <use xlink:href="#DejaVuSans-BoldOblique-30" transform="translate(208.740234 0)"/>
    </g>
   </g>
   <g id="text_21">
    <!-- 3⁺ -->
    <g transform="translate(682.331644 238.177264) scale(0.23 -0.23)">
     <defs>
      <path id="TimesNewRomanPS-BoldMT-33" d="M 947 2125 
L 947 2234 
Q 1303 2338 1440 2427 
Q 1578 2516 1678 2698 
Q 1778 2881 1778 3069 
Q 1778 3328 1589 3514 
Q 1400 3700 1119 3700 
Q 681 3700 375 3238 
L 259 3278 
Q 484 3800 836 4062 
Q 1188 4325 1619 4325 
Q 2059 4325 2345 4056 
Q 2631 3788 2631 3428 
Q 2631 3194 2498 2976 
Q 2366 2759 2081 2594 
Q 2447 2416 2639 2155 
Q 2831 1894 2831 1500 
Q 2831 838 2351 373 
Q 1872 -91 1066 -91 
Q 528 -91 281 88 
Q 103 213 103 409 
Q 103 553 206 654 
Q 309 756 444 756 
Q 547 756 638 713 
Q 688 688 992 439 
Q 1297 191 1563 191 
Q 1794 191 1959 373 
Q 2125 556 2125 838 
Q 2125 1266 1825 1627 
Q 1525 1988 947 2125 
z
" transform="scale(0.015625)"/>
     </defs>
     <use xlink:href="#TimesNewRomanPS-BoldMT-33"/>
     <use xlink:href="#DejaVuSerif-Bold-207a" transform="translate(50 0)"/>
    </g>
   </g>
   <g id="text_22">
    <path d="M 112.000555 425.141895 
L 112.000555 433.806895 
Q 112.000555 434.781895 112.085555 435.051895 
Q 112.173055 435.321895 112.445555 435.494395 
Q 112.720555 435.664395 113.323055 435.664395 
L 113.563055 435.664395 
L 113.563055 435.954395 
L 107.985555 435.954395 
L 107.985555 435.664395 
L 108.268055 435.664395 
Q 108.948055 435.664395 109.235555 435.509395 
Q 109.525555 435.351895 109.625555 435.079395 
Q 109.728055 434.806895 109.728055 433.806895 
L 109.728055 428.314395 
Q 109.728055 427.579395 109.658055 427.396895 
Q 109.588055 427.211895 109.395555 427.084395 
Q 109.205555 426.954395 108.955555 426.954395 
Q 108.555555 426.954395 107.985555 427.204395 
L 107.845555 426.921895 
L 111.743055 425.141895 
L 112.000555 425.141895 
z
M 119.120555 425.141895 
L 119.120555 433.806895 
Q 119.120555 434.781895 119.205555 435.051895 
Q 119.293055 435.321895 119.565555 435.494395 
Q 119.840555 435.664395 120.443055 435.664395 
L 120.683055 435.664395 
L 120.683055 435.954395 
L 115.105555 435.954395 
L 115.105555 435.664395 
L 115.388055 435.664395 
Q 116.068055 435.664395 116.355555 435.509395 
Q 116.645555 435.351895 116.745555 435.079395 
Q 116.848055 434.806895 116.848055 433.806895 
L 116.848055 428.314395 
Q 116.848055 427.579395 116.778055 427.396895 
Q 116.708055 427.211895 116.515555 427.084395 
Q 116.325555 426.954395 116.075555 426.954395 
Q 115.675555 426.954395 115.105555 427.204395 
L 114.965555 426.921895 
L 118.863055 425.141895 
L 119.120555 425.141895 
z
M 123.910555 433.546895 
Q 124.458055 433.546895 124.835555 433.931895 
Q 125.215555 434.314395 125.215555 434.851895 
Q 125.215555 435.391895 124.833055 435.771895 
Q 124.450555 436.149395 123.910555 436.149395 
Q 123.370555 436.149395 122.990555 435.771895 
Q 122.613055 435.391895 122.613055 434.851895 
Q 122.613055 434.314395 122.990555 433.931895 
Q 123.370555 433.546895 123.910555 433.546895 
z
M 131.120555 425.141895 
L 131.120555 433.806895 
Q 131.120555 434.781895 131.205555 435.051895 
Q 131.293055 435.321895 131.565555 435.494395 
Q 131.840555 435.664395 132.443055 435.664395 
L 132.683055 435.664395 
L 132.683055 435.954395 
L 127.105555 435.954395 
L 127.105555 435.664395 
L 127.388055 435.664395 
Q 128.068055 435.664395 128.355555 435.509395 
Q 128.645555 435.351895 128.745555 435.079395 
Q 128.848055 434.806895 128.848055 433.806895 
L 128.848055 428.314395 
Q 128.848055 427.579395 128.778055 427.396895 
Q 128.708055 427.211895 128.515555 427.084395 
Q 128.325555 426.954395 128.075555 426.954395 
Q 127.675555 426.954395 127.105555 427.204395 
L 126.965555 426.921895 
L 130.863055 425.141895 
L 131.120555 425.141895 
z
" style="stroke: #ffffff; stroke-width: 3.8"/>
    <path d="M 112.000555 425.141895 
L 112.000555 433.806895 
Q 112.000555 434.781895 112.085555 435.051895 
Q 112.173055 435.321895 112.445555 435.494395 
Q 112.720555 435.664395 113.323055 435.664395 
L 113.563055 435.664395 
L 113.563055 435.954395 
L 107.985555 435.954395 
L 107.985555 435.664395 
L 108.268055 435.664395 
Q 108.948055 435.664395 109.235555 435.509395 
Q 109.525555 435.351895 109.625555 435.079395 
Q 109.728055 434.806895 109.728055 433.806895 
L 109.728055 428.314395 
Q 109.728055 427.579395 109.658055 427.396895 
Q 109.588055 427.211895 109.395555 427.084395 
Q 109.205555 426.954395 108.955555 426.954395 
Q 108.555555 426.954395 107.985555 427.204395 
L 107.845555 426.921895 
L 111.743055 425.141895 
L 112.000555 425.141895 
z
M 119.120555 425.141895 
L 119.120555 433.806895 
Q 119.120555 434.781895 119.205555 435.051895 
Q 119.293055 435.321895 119.565555 435.494395 
Q 119.840555 435.664395 120.443055 435.664395 
L 120.683055 435.664395 
L 120.683055 435.954395 
L 115.105555 435.954395 
L 115.105555 435.664395 
L 115.388055 435.664395 
Q 116.068055 435.664395 116.355555 435.509395 
Q 116.645555 435.351895 116.745555 435.079395 
Q 116.848055 434.806895 116.848055 433.806895 
L 116.848055 428.314395 
Q 116.848055 427.579395 116.778055 427.396895 
Q 116.708055 427.211895 116.515555 427.084395 
Q 116.325555 426.954395 116.075555 426.954395 
Q 115.675555 426.954395 115.105555 427.204395 
L 114.965555 426.921895 
L 118.863055 425.141895 
L 119.120555 425.141895 
z
M 123.910555 433.546895 
Q 124.458055 433.546895 124.835555 433.931895 
Q 125.215555 434.314395 125.215555 434.851895 
Q 125.215555 435.391895 124.833055 435.771895 
Q 124.450555 436.149395 123.910555 436.149395 
Q 123.370555 436.149395 122.990555 435.771895 
Q 122.613055 435.391895 122.613055 434.851895 
Q 122.613055 434.314395 122.990555 433.931895 
Q 123.370555 433.546895 123.910555 433.546895 
z
M 131.120555 425.141895 
L 131.120555 433.806895 
Q 131.120555 434.781895 131.205555 435.051895 
Q 131.293055 435.321895 131.565555 435.494395 
Q 131.840555 435.664395 132.443055 435.664395 
L 132.683055 435.664395 
L 132.683055 435.954395 
L 127.105555 435.954395 
L 127.105555 435.664395 
L 127.388055 435.664395 
Q 128.068055 435.664395 128.355555 435.509395 
Q 128.645555 435.351895 128.745555 435.079395 
Q 128.848055 434.806895 128.848055 433.806895 
L 128.848055 428.314395 
Q 128.848055 427.579395 128.778055 427.396895 
Q 128.708055 427.211895 128.515555 427.084395 
Q 128.325555 426.954395 128.075555 426.954395 
Q 127.675555 426.954395 127.105555 427.204395 
L 126.965555 426.921895 
L 130.863055 425.141895 
L 131.120555 425.141895 
z
"/>
   </g>
   <g id="text_23">
    <path d="M 112.975555 349.97003 
L 106.740555 349.97003 
L 106.740555 349.79753 
Q 109.608055 346.38503 110.220555 345.20503 
Q 110.835555 344.02503 110.835555 342.90003 
Q 110.835555 342.08003 110.328055 341.53753 
Q 109.820555 340.99253 109.085555 340.99253 
Q 107.883055 340.99253 107.218055 342.19753 
L 106.928055 342.09503 
Q 107.350555 340.59503 108.210555 339.87753 
Q 109.070555 339.15753 110.195555 339.15753 
Q 110.998055 339.15753 111.663055 339.53253 
Q 112.328055 339.90753 112.703055 340.56003 
Q 113.078055 341.21253 113.078055 341.78253 
Q 113.078055 342.82253 112.498055 343.89253 
Q 111.710555 345.33753 109.053055 347.92253 
L 111.343055 347.92253 
Q 112.185555 347.92253 112.440555 347.85253 
Q 112.695555 347.78253 112.858055 347.61503 
Q 113.023055 347.44753 113.288055 346.90753 
L 113.570555 346.90753 
L 112.975555 349.97003 
z
M 114.843055 350.19003 
L 114.843055 349.97003 
Q 116.140555 349.67253 117.043055 349.09503 
Q 117.945555 348.51753 118.470555 347.66503 
Q 118.998055 346.81253 119.210555 345.70503 
Q 118.725555 345.95503 118.385555 346.05253 
Q 118.045555 346.15003 117.670555 346.15003 
Q 116.468055 346.15003 115.665555 345.28253 
Q 114.865555 344.41503 114.865555 342.90753 
Q 114.865555 341.86003 115.298055 340.99003 
Q 115.733055 340.11753 116.538055 339.63753 
Q 117.343055 339.15753 118.210555 339.15753 
Q 119.140555 339.15753 119.968055 339.69003 
Q 120.795555 340.22003 121.288055 341.22753 
Q 121.780555 342.23503 121.780555 343.52503 
Q 121.780555 345.19753 120.978055 346.73003 
Q 120.178055 348.26003 118.593055 349.18503 
Q 117.008055 350.11003 114.843055 350.19003 
z
M 119.328055 345.04753 
Q 119.405555 344.17253 119.405555 343.51003 
Q 119.405555 342.08753 119.078055 340.86003 
Q 118.890555 340.18003 118.523055 339.86003 
Q 118.328055 339.68753 118.015555 339.68753 
Q 117.623055 339.68753 117.405555 340.02503 
Q 117.100555 340.48503 117.100555 341.78253 
Q 117.100555 343.94753 117.615555 344.76753 
Q 117.953055 345.29753 118.523055 345.29753 
Q 118.828055 345.29753 119.328055 345.04753 
z
M 124.350555 347.56253 
Q 124.898055 347.56253 125.275555 347.94753 
Q 125.655555 348.33003 125.655555 348.86753 
Q 125.655555 349.40753 125.273055 349.78753 
Q 124.890555 350.16503 124.350555 350.16503 
Q 123.810555 350.16503 123.430555 349.78753 
Q 123.053055 349.40753 123.053055 348.86753 
Q 123.053055 348.33003 123.430555 347.94753 
Q 123.810555 347.56253 124.350555 347.56253 
z
M 129.185555 350.19003 
L 132.070555 341.44753 
L 129.873055 341.44753 
Q 128.585555 341.44753 127.935555 341.78253 
Q 127.483055 342.01753 127.185555 342.66503 
L 126.890555 342.66503 
L 127.655555 339.37503 
L 133.968055 339.37503 
L 130.413055 350.19003 
L 129.185555 350.19003 
z
" style="stroke: #ffffff; stroke-width: 3.8"/>
    <path d="M 112.975555 349.97003 
L 106.740555 349.97003 
L 106.740555 349.79753 
Q 109.608055 346.38503 110.220555 345.20503 
Q 110.835555 344.02503 110.835555 342.90003 
Q 110.835555 342.08003 110.328055 341.53753 
Q 109.820555 340.99253 109.085555 340.99253 
Q 107.883055 340.99253 107.218055 342.19753 
L 106.928055 342.09503 
Q 107.350555 340.59503 108.210555 339.87753 
Q 109.070555 339.15753 110.195555 339.15753 
Q 110.998055 339.15753 111.663055 339.53253 
Q 112.328055 339.90753 112.703055 340.56003 
Q 113.078055 341.21253 113.078055 341.78253 
Q 113.078055 342.82253 112.498055 343.89253 
Q 111.710555 345.33753 109.053055 347.92253 
L 111.343055 347.92253 
Q 112.185555 347.92253 112.440555 347.85253 
Q 112.695555 347.78253 112.858055 347.61503 
Q 113.023055 347.44753 113.288055 346.90753 
L 113.570555 346.90753 
L 112.975555 349.97003 
z
M 114.843055 350.19003 
L 114.843055 349.97003 
Q 116.140555 349.67253 117.043055 349.09503 
Q 117.945555 348.51753 118.470555 347.66503 
Q 118.998055 346.81253 119.210555 345.70503 
Q 118.725555 345.95503 118.385555 346.05253 
Q 118.045555 346.15003 117.670555 346.15003 
Q 116.468055 346.15003 115.665555 345.28253 
Q 114.865555 344.41503 114.865555 342.90753 
Q 114.865555 341.86003 115.298055 340.99003 
Q 115.733055 340.11753 116.538055 339.63753 
Q 117.343055 339.15753 118.210555 339.15753 
Q 119.140555 339.15753 119.968055 339.69003 
Q 120.795555 340.22003 121.288055 341.22753 
Q 121.780555 342.23503 121.780555 343.52503 
Q 121.780555 345.19753 120.978055 346.73003 
Q 120.178055 348.26003 118.593055 349.18503 
Q 117.008055 350.11003 114.843055 350.19003 
z
M 119.328055 345.04753 
Q 119.405555 344.17253 119.405555 343.51003 
Q 119.405555 342.08753 119.078055 340.86003 
Q 118.890555 340.18003 118.523055 339.86003 
Q 118.328055 339.68753 118.015555 339.68753 
Q 117.623055 339.68753 117.405555 340.02503 
Q 117.100555 340.48503 117.100555 341.78253 
Q 117.100555 343.94753 117.615555 344.76753 
Q 117.953055 345.29753 118.523055 345.29753 
Q 118.828055 345.29753 119.328055 345.04753 
z
M 124.350555 347.56253 
Q 124.898055 347.56253 125.275555 347.94753 
Q 125.655555 348.33003 125.655555 348.86753 
Q 125.655555 349.40753 125.273055 349.78753 
Q 124.890555 350.16503 124.350555 350.16503 
Q 123.810555 350.16503 123.430555 349.78753 
Q 123.053055 349.40753 123.053055 348.86753 
Q 123.053055 348.33003 123.430555 347.94753 
Q 123.810555 347.56253 124.350555 347.56253 
z
M 129.185555 350.19003 
L 132.070555 341.44753 
L 129.873055 341.44753 
Q 128.585555 341.44753 127.935555 341.78253 
Q 127.483055 342.01753 127.185555 342.66503 
L 126.890555 342.66503 
L 127.655555 339.37503 
L 133.968055 339.37503 
L 130.413055 350.19003 
L 129.185555 350.19003 
z
"/>
   </g>
   <g id="text_24">
    <path d="M 108.788055 260.953123 
L 113.748055 260.953123 
L 112.960555 262.970623 
L 108.788055 262.970623 
L 108.390555 264.025623 
Q 111.085555 264.125623 112.538055 265.368123 
Q 113.733055 266.390623 113.733055 267.915623 
Q 113.733055 268.890623 113.178055 269.825623 
Q 112.623055 270.758123 111.615555 271.263123 
Q 110.608055 271.768123 109.405555 271.768123 
Q 108.108055 271.768123 107.413055 271.283123 
Q 106.928055 270.938123 106.928055 270.500623 
Q 106.928055 270.165623 107.180555 269.908123 
Q 107.435555 269.650623 107.773055 269.650623 
Q 108.078055 269.650623 108.390555 269.775623 
Q 108.703055 269.900623 109.460555 270.430623 
Q 109.935555 270.758123 110.280555 270.883123 
Q 110.523055 270.978123 110.828055 270.978123 
Q 111.468055 270.978123 111.915555 270.510623 
Q 112.365555 270.040623 112.365555 269.383123 
Q 112.365555 268.008123 110.990555 267.150623 
Q 109.615555 266.290623 107.523055 266.290623 
Q 107.310555 266.290623 106.890555 266.298123 
L 108.788055 260.953123 
z
M 119.560555 260.735623 
L 119.560555 269.400623 
Q 119.560555 270.375623 119.645555 270.645623 
Q 119.733055 270.915623 120.005555 271.088123 
Q 120.280555 271.258123 120.883055 271.258123 
L 121.123055 271.258123 
L 121.123055 271.548123 
L 115.545555 271.548123 
L 115.545555 271.258123 
L 115.828055 271.258123 
Q 116.508055 271.258123 116.795555 271.103123 
Q 117.085555 270.945623 117.185555 270.673123 
Q 117.288055 270.400623 117.288055 269.400623 
L 117.288055 263.908123 
Q 117.288055 263.173123 117.218055 262.990623 
Q 117.148055 262.805623 116.955555 262.678123 
Q 116.765555 262.548123 116.515555 262.548123 
Q 116.115555 262.548123 115.545555 262.798123 
L 115.405555 262.515623 
L 119.303055 260.735623 
L 119.560555 260.735623 
z
M 124.350555 269.140623 
Q 124.898055 269.140623 125.275555 269.525623 
Q 125.655555 269.908123 125.655555 270.445623 
Q 125.655555 270.985623 125.273055 271.365623 
Q 124.890555 271.743123 124.350555 271.743123 
Q 123.810555 271.743123 123.430555 271.365623 
Q 123.053055 270.985623 123.053055 270.445623 
Q 123.053055 269.908123 123.430555 269.525623 
Q 123.810555 269.140623 124.350555 269.140623 
z
M 131.803055 265.563123 
Q 132.920555 266.383123 133.353055 267.090623 
Q 133.788055 267.798123 133.788055 268.713123 
Q 133.788055 269.993123 132.823055 270.880623 
Q 131.858055 271.768123 130.203055 271.768123 
Q 128.633055 271.768123 127.773055 270.995623 
Q 126.913055 270.220623 126.913055 269.103123 
Q 126.913055 268.250623 127.408055 267.610623 
Q 127.905555 266.970623 129.060555 266.438123 
Q 127.803055 265.478123 127.448055 264.868123 
Q 127.093055 264.258123 127.093055 263.453123 
Q 127.093055 262.390623 127.995555 261.583123 
Q 128.898055 260.775623 130.468055 260.775623 
Q 131.983055 260.775623 132.798055 261.490623 
Q 133.615555 262.203123 133.615555 263.203123 
Q 133.615555 263.953123 133.173055 264.528123 
Q 132.733055 265.103123 131.803055 265.563123 
z
M 131.210555 265.165623 
Q 131.498055 264.775623 131.638055 264.290623 
Q 131.780555 263.805623 131.780555 263.228123 
Q 131.780555 262.213123 131.343055 261.673123 
Q 131.015555 261.258123 130.435555 261.258123 
Q 129.913055 261.258123 129.545555 261.638123 
Q 129.178055 262.015623 129.178055 262.578123 
Q 129.178055 263.150623 129.588055 263.763123 
Q 129.998055 264.375623 131.210555 265.165623 
z
M 129.648055 266.813123 
Q 129.405555 267.033123 129.303055 267.213123 
Q 129.148055 267.485623 129.023055 268.010623 
Q 128.898055 268.533123 128.898055 269.103123 
Q 128.898055 269.838123 129.085555 270.333123 
Q 129.273055 270.828123 129.620555 271.048123 
Q 129.968055 271.265623 130.335555 271.265623 
Q 130.905555 271.265623 131.295555 270.848123 
Q 131.685555 270.430623 131.685555 269.703123 
Q 131.685555 268.188123 129.648055 266.813123 
z
" style="stroke: #ffffff; stroke-width: 3.8"/>
    <path d="M 108.788055 260.953123 
L 113.748055 260.953123 
L 112.960555 262.970623 
L 108.788055 262.970623 
L 108.390555 264.025623 
Q 111.085555 264.125623 112.538055 265.368123 
Q 113.733055 266.390623 113.733055 267.915623 
Q 113.733055 268.890623 113.178055 269.825623 
Q 112.623055 270.758123 111.615555 271.263123 
Q 110.608055 271.768123 109.405555 271.768123 
Q 108.108055 271.768123 107.413055 271.283123 
Q 106.928055 270.938123 106.928055 270.500623 
Q 106.928055 270.165623 107.180555 269.908123 
Q 107.435555 269.650623 107.773055 269.650623 
Q 108.078055 269.650623 108.390555 269.775623 
Q 108.703055 269.900623 109.460555 270.430623 
Q 109.935555 270.758123 110.280555 270.883123 
Q 110.523055 270.978123 110.828055 270.978123 
Q 111.468055 270.978123 111.915555 270.510623 
Q 112.365555 270.040623 112.365555 269.383123 
Q 112.365555 268.008123 110.990555 267.150623 
Q 109.615555 266.290623 107.523055 266.290623 
Q 107.310555 266.290623 106.890555 266.298123 
L 108.788055 260.953123 
z
M 119.560555 260.735623 
L 119.560555 269.400623 
Q 119.560555 270.375623 119.645555 270.645623 
Q 119.733055 270.915623 120.005555 271.088123 
Q 120.280555 271.258123 120.883055 271.258123 
L 121.123055 271.258123 
L 121.123055 271.548123 
L 115.545555 271.548123 
L 115.545555 271.258123 
L 115.828055 271.258123 
Q 116.508055 271.258123 116.795555 271.103123 
Q 117.085555 270.945623 117.185555 270.673123 
Q 117.288055 270.400623 117.288055 269.400623 
L 117.288055 263.908123 
Q 117.288055 263.173123 117.218055 262.990623 
Q 117.148055 262.805623 116.955555 262.678123 
Q 116.765555 262.548123 116.515555 262.548123 
Q 116.115555 262.548123 115.545555 262.798123 
L 115.405555 262.515623 
L 119.303055 260.735623 
L 119.560555 260.735623 
z
M 124.350555 269.140623 
Q 124.898055 269.140623 125.275555 269.525623 
Q 125.655555 269.908123 125.655555 270.445623 
Q 125.655555 270.985623 125.273055 271.365623 
Q 124.890555 271.743123 124.350555 271.743123 
Q 123.810555 271.743123 123.430555 271.365623 
Q 123.053055 270.985623 123.053055 270.445623 
Q 123.053055 269.908123 123.430555 269.525623 
Q 123.810555 269.140623 124.350555 269.140623 
z
M 131.803055 265.563123 
Q 132.920555 266.383123 133.353055 267.090623 
Q 133.788055 267.798123 133.788055 268.713123 
Q 133.788055 269.993123 132.823055 270.880623 
Q 131.858055 271.768123 130.203055 271.768123 
Q 128.633055 271.768123 127.773055 270.995623 
Q 126.913055 270.220623 126.913055 269.103123 
Q 126.913055 268.250623 127.408055 267.610623 
Q 127.905555 266.970623 129.060555 266.438123 
Q 127.803055 265.478123 127.448055 264.868123 
Q 127.093055 264.258123 127.093055 263.453123 
Q 127.093055 262.390623 127.995555 261.583123 
Q 128.898055 260.775623 130.468055 260.775623 
Q 131.983055 260.775623 132.798055 261.490623 
Q 133.615555 262.203123 133.615555 263.203123 
Q 133.615555 263.953123 133.173055 264.528123 
Q 132.733055 265.103123 131.803055 265.563123 
z
M 131.210555 265.165623 
Q 131.498055 264.775623 131.638055 264.290623 
Q 131.780555 263.805623 131.780555 263.228123 
Q 131.780555 262.213123 131.343055 261.673123 
Q 131.015555 261.258123 130.435555 261.258123 
Q 129.913055 261.258123 129.545555 261.638123 
Q 129.178055 262.015623 129.178055 262.578123 
Q 129.178055 263.150623 129.588055 263.763123 
Q 129.998055 264.375623 131.210555 265.165623 
z
M 129.648055 266.813123 
Q 129.405555 267.033123 129.303055 267.213123 
Q 129.148055 267.485623 129.023055 268.010623 
Q 128.898055 268.533123 128.898055 269.103123 
Q 128.898055 269.838123 129.085555 270.333123 
Q 129.273055 270.828123 129.620555 271.048123 
Q 129.968055 271.265623 130.335555 271.265623 
Q 130.905555 271.265623 131.295555 270.848123 
Q 131.685555 270.430623 131.685555 269.703123 
Q 131.685555 268.188123 129.648055 266.813123 
z
"/>
   </g>
   <g id="text_25">
    <path d="M 361.434697 296.125821 
L 361.434697 304.790821 
Q 361.434697 305.765821 361.519697 306.035821 
Q 361.607197 306.305821 361.879697 306.478321 
Q 362.154697 306.648321 362.757197 306.648321 
L 362.997197 306.648321 
L 362.997197 306.938321 
L 357.419697 306.938321 
L 357.419697 306.648321 
L 357.702197 306.648321 
Q 358.382197 306.648321 358.669697 306.493321 
Q 358.959697 306.335821 359.059697 306.063321 
Q 359.162197 305.790821 359.162197 304.790821 
L 359.162197 299.298321 
Q 359.162197 298.563321 359.092197 298.380821 
Q 359.022197 298.195821 358.829697 298.068321 
Q 358.639697 297.938321 358.389697 297.938321 
Q 357.989697 297.938321 357.419697 298.188321 
L 357.279697 297.905821 
L 361.177197 296.125821 
L 361.434697 296.125821 
z
M 370.849697 306.938321 
L 364.614697 306.938321 
L 364.614697 306.765821 
Q 367.482197 303.353321 368.094697 302.173321 
Q 368.709697 300.993321 368.709697 299.868321 
Q 368.709697 299.048321 368.202197 298.505821 
Q 367.694697 297.960821 366.959697 297.960821 
Q 365.757197 297.960821 365.092197 299.165821 
L 364.802197 299.063321 
Q 365.224697 297.563321 366.084697 296.845821 
Q 366.944697 296.125821 368.069697 296.125821 
Q 368.872197 296.125821 369.537197 296.500821 
Q 370.202197 296.875821 370.577197 297.528321 
Q 370.952197 298.180821 370.952197 298.750821 
Q 370.952197 299.790821 370.372197 300.860821 
Q 369.584697 302.305821 366.927197 304.890821 
L 369.217197 304.890821 
Q 370.059697 304.890821 370.314697 304.820821 
Q 370.569697 304.750821 370.732197 304.583321 
Q 370.897197 304.415821 371.162197 303.875821 
L 371.444697 303.875821 
L 370.849697 306.938321 
z
M 374.224697 304.530821 
Q 374.772197 304.530821 375.149697 304.915821 
Q 375.529697 305.298321 375.529697 305.835821 
Q 375.529697 306.375821 375.147197 306.755821 
Q 374.764697 307.133321 374.224697 307.133321 
Q 373.684697 307.133321 373.304697 306.755821 
Q 372.927197 306.375821 372.927197 305.835821 
Q 372.927197 305.298321 373.304697 304.915821 
Q 373.684697 304.530821 374.224697 304.530821 
z
M 378.592197 301.625821 
L 378.592197 301.353321 
Q 379.482197 301.093321 379.824697 300.870821 
Q 380.169697 300.648321 380.419697 300.193321 
Q 380.669697 299.735821 380.669697 299.265821 
Q 380.669697 298.618321 380.197197 298.153321 
Q 379.724697 297.688321 379.022197 297.688321 
Q 377.927197 297.688321 377.162197 298.843321 
L 376.872197 298.743321 
Q 377.434697 297.438321 378.314697 296.783321 
Q 379.194697 296.125821 380.272197 296.125821 
Q 381.372197 296.125821 382.087197 296.798321 
Q 382.802197 297.468321 382.802197 298.368321 
Q 382.802197 298.953321 382.469697 299.498321 
Q 382.139697 300.040821 381.427197 300.453321 
Q 382.342197 300.898321 382.822197 301.550821 
Q 383.302197 302.203321 383.302197 303.188321 
Q 383.302197 304.843321 382.102197 306.005821 
Q 380.904697 307.165821 378.889697 307.165821 
Q 377.544697 307.165821 376.927197 306.718321 
Q 376.482197 306.405821 376.482197 305.915821 
Q 376.482197 305.555821 376.739697 305.303321 
Q 376.997197 305.048321 377.334697 305.048321 
Q 377.592197 305.048321 377.819697 305.155821 
Q 377.944697 305.218321 378.704697 305.840821 
Q 379.467197 306.460821 380.132197 306.460821 
Q 380.709697 306.460821 381.122197 306.005821 
Q 381.537197 305.548321 381.537197 304.843321 
Q 381.537197 303.773321 380.787197 302.870821 
Q 380.037197 301.968321 378.592197 301.625821 
z
" style="stroke: #ffffff; stroke-width: 3.8"/>
    <path d="M 361.434697 296.125821 
L 361.434697 304.790821 
Q 361.434697 305.765821 361.519697 306.035821 
Q 361.607197 306.305821 361.879697 306.478321 
Q 362.154697 306.648321 362.757197 306.648321 
L 362.997197 306.648321 
L 362.997197 306.938321 
L 357.419697 306.938321 
L 357.419697 306.648321 
L 357.702197 306.648321 
Q 358.382197 306.648321 358.669697 306.493321 
Q 358.959697 306.335821 359.059697 306.063321 
Q 359.162197 305.790821 359.162197 304.790821 
L 359.162197 299.298321 
Q 359.162197 298.563321 359.092197 298.380821 
Q 359.022197 298.195821 358.829697 298.068321 
Q 358.639697 297.938321 358.389697 297.938321 
Q 357.989697 297.938321 357.419697 298.188321 
L 357.279697 297.905821 
L 361.177197 296.125821 
L 361.434697 296.125821 
z
M 370.849697 306.938321 
L 364.614697 306.938321 
L 364.614697 306.765821 
Q 367.482197 303.353321 368.094697 302.173321 
Q 368.709697 300.993321 368.709697 299.868321 
Q 368.709697 299.048321 368.202197 298.505821 
Q 367.694697 297.960821 366.959697 297.960821 
Q 365.757197 297.960821 365.092197 299.165821 
L 364.802197 299.063321 
Q 365.224697 297.563321 366.084697 296.845821 
Q 366.944697 296.125821 368.069697 296.125821 
Q 368.872197 296.125821 369.537197 296.500821 
Q 370.202197 296.875821 370.577197 297.528321 
Q 370.952197 298.180821 370.952197 298.750821 
Q 370.952197 299.790821 370.372197 300.860821 
Q 369.584697 302.305821 366.927197 304.890821 
L 369.217197 304.890821 
Q 370.059697 304.890821 370.314697 304.820821 
Q 370.569697 304.750821 370.732197 304.583321 
Q 370.897197 304.415821 371.162197 303.875821 
L 371.444697 303.875821 
L 370.849697 306.938321 
z
M 374.224697 304.530821 
Q 374.772197 304.530821 375.149697 304.915821 
Q 375.529697 305.298321 375.529697 305.835821 
Q 375.529697 306.375821 375.147197 306.755821 
Q 374.764697 307.133321 374.224697 307.133321 
Q 373.684697 307.133321 373.304697 306.755821 
Q 372.927197 306.375821 372.927197 305.835821 
Q 372.927197 305.298321 373.304697 304.915821 
Q 373.684697 304.530821 374.224697 304.530821 
z
M 378.592197 301.625821 
L 378.592197 301.353321 
Q 379.482197 301.093321 379.824697 300.870821 
Q 380.169697 300.648321 380.419697 300.193321 
Q 380.669697 299.735821 380.669697 299.265821 
Q 380.669697 298.618321 380.197197 298.153321 
Q 379.724697 297.688321 379.022197 297.688321 
Q 377.927197 297.688321 377.162197 298.843321 
L 376.872197 298.743321 
Q 377.434697 297.438321 378.314697 296.783321 
Q 379.194697 296.125821 380.272197 296.125821 
Q 381.372197 296.125821 382.087197 296.798321 
Q 382.802197 297.468321 382.802197 298.368321 
Q 382.802197 298.953321 382.469697 299.498321 
Q 382.139697 300.040821 381.427197 300.453321 
Q 382.342197 300.898321 382.822197 301.550821 
Q 383.302197 302.203321 383.302197 303.188321 
Q 383.302197 304.843321 382.102197 306.005821 
Q 380.904697 307.165821 378.889697 307.165821 
Q 377.544697 307.165821 376.927197 306.718321 
Q 376.482197 306.405821 376.482197 305.915821 
Q 376.482197 305.555821 376.739697 305.303321 
Q 376.997197 305.048321 377.334697 305.048321 
Q 377.592197 305.048321 377.819697 305.155821 
Q 377.944697 305.218321 378.704697 305.840821 
Q 379.467197 306.460821 380.132197 306.460821 
Q 380.709697 306.460821 381.122197 306.005821 
Q 381.537197 305.548321 381.537197 304.843321 
Q 381.537197 303.773321 380.787197 302.870821 
Q 380.037197 301.968321 378.592197 301.625821 
z
"/>
   </g>
   <g id="text_26">
    <path d="M 362.849697 215.139397 
L 356.614697 215.139397 
L 356.614697 214.966897 
Q 359.482197 211.554397 360.094697 210.374397 
Q 360.709697 209.194397 360.709697 208.069397 
Q 360.709697 207.249397 360.202197 206.706897 
Q 359.694697 206.161897 358.959697 206.161897 
Q 357.757197 206.161897 357.092197 207.366897 
L 356.802197 207.264397 
Q 357.224697 205.764397 358.084697 205.046897 
Q 358.944697 204.326897 360.069697 204.326897 
Q 360.872197 204.326897 361.537197 204.701897 
Q 362.202197 205.076897 362.577197 205.729397 
Q 362.952197 206.381897 362.952197 206.951897 
Q 362.952197 207.991897 362.372197 209.061897 
Q 361.584697 210.506897 358.927197 213.091897 
L 361.217197 213.091897 
Q 362.059697 213.091897 362.314697 213.021897 
Q 362.569697 212.951897 362.732197 212.784397 
Q 362.897197 212.616897 363.162197 212.076897 
L 363.444697 212.076897 
L 362.849697 215.139397 
z
M 371.639697 209.841897 
Q 371.639697 211.429397 371.194697 212.804397 
Q 370.927197 213.646897 370.477197 214.186897 
Q 370.029697 214.724397 369.459697 215.041897 
Q 368.889697 215.359397 368.217197 215.359397 
Q 367.452197 215.359397 366.834697 214.969397 
Q 366.217197 214.576897 365.739697 213.849397 
Q 365.397197 213.319397 365.139697 212.436897 
Q 364.802197 211.241897 364.802197 209.966897 
Q 364.802197 208.241897 365.287197 206.794397 
Q 365.684697 205.599397 366.497197 204.964397 
Q 367.309697 204.326897 368.217197 204.326897 
Q 369.139697 204.326897 369.939697 204.956897 
Q 370.739697 205.584397 371.114697 206.646897 
Q 371.639697 208.106897 371.639697 209.841897 
z
M 369.232197 209.826897 
Q 369.232197 207.044397 369.202197 206.584397 
Q 369.122197 205.499397 368.827197 205.116897 
Q 368.632197 204.866897 368.194697 204.866897 
Q 367.857197 204.866897 367.662197 205.054397 
Q 367.372197 205.326897 367.269697 206.019397 
Q 367.169697 206.709397 367.169697 210.841897 
Q 367.169697 213.091897 367.327197 213.856897 
Q 367.444697 214.411897 367.662197 214.599397 
Q 367.882197 214.786897 368.239697 214.786897 
Q 368.632197 214.786897 368.827197 214.536897 
Q 369.154697 214.099397 369.202197 213.186897 
L 369.232197 209.826897 
z
M 374.224697 212.731897 
Q 374.772197 212.731897 375.149697 213.116897 
Q 375.529697 213.499397 375.529697 214.036897 
Q 375.529697 214.576897 375.147197 214.956897 
Q 374.764697 215.334397 374.224697 215.334397 
Q 373.684697 215.334397 373.304697 214.956897 
Q 372.927197 214.576897 372.927197 214.036897 
Q 372.927197 213.499397 373.304697 213.116897 
Q 373.684697 212.731897 374.224697 212.731897 
z
M 376.717197 215.359397 
L 376.717197 215.139397 
Q 378.014697 214.841897 378.917197 214.264397 
Q 379.819697 213.686897 380.344697 212.834397 
Q 380.872197 211.981897 381.084697 210.874397 
Q 380.599697 211.124397 380.259697 211.221897 
Q 379.919697 211.319397 379.544697 211.319397 
Q 378.342197 211.319397 377.539697 210.451897 
Q 376.739697 209.584397 376.739697 208.076897 
Q 376.739697 207.029397 377.172197 206.159397 
Q 377.607197 205.286897 378.412197 204.806897 
Q 379.217197 204.326897 380.084697 204.326897 
Q 381.014697 204.326897 381.842197 204.859397 
Q 382.669697 205.389397 383.162197 206.396897 
Q 383.654697 207.404397 383.654697 208.694397 
Q 383.654697 210.366897 382.852197 211.899397 
Q 382.052197 213.429397 380.467197 214.354397 
Q 378.882197 215.279397 376.717197 215.359397 
z
M 381.202197 210.216897 
Q 381.279697 209.341897 381.279697 208.679397 
Q 381.279697 207.256897 380.952197 206.029397 
Q 380.764697 205.349397 380.397197 205.029397 
Q 380.202197 204.856897 379.889697 204.856897 
Q 379.497197 204.856897 379.279697 205.194397 
Q 378.974697 205.654397 378.974697 206.951897 
Q 378.974697 209.116897 379.489697 209.936897 
Q 379.827197 210.466897 380.397197 210.466897 
Q 380.702197 210.466897 381.202197 210.216897 
z
" style="stroke: #ffffff; stroke-width: 3.8"/>
    <path d="M 362.849697 215.139397 
L 356.614697 215.139397 
L 356.614697 214.966897 
Q 359.482197 211.554397 360.094697 210.374397 
Q 360.709697 209.194397 360.709697 208.069397 
Q 360.709697 207.249397 360.202197 206.706897 
Q 359.694697 206.161897 358.959697 206.161897 
Q 357.757197 206.161897 357.092197 207.366897 
L 356.802197 207.264397 
Q 357.224697 205.764397 358.084697 205.046897 
Q 358.944697 204.326897 360.069697 204.326897 
Q 360.872197 204.326897 361.537197 204.701897 
Q 362.202197 205.076897 362.577197 205.729397 
Q 362.952197 206.381897 362.952197 206.951897 
Q 362.952197 207.991897 362.372197 209.061897 
Q 361.584697 210.506897 358.927197 213.091897 
L 361.217197 213.091897 
Q 362.059697 213.091897 362.314697 213.021897 
Q 362.569697 212.951897 362.732197 212.784397 
Q 362.897197 212.616897 363.162197 212.076897 
L 363.444697 212.076897 
L 362.849697 215.139397 
z
M 371.639697 209.841897 
Q 371.639697 211.429397 371.194697 212.804397 
Q 370.927197 213.646897 370.477197 214.186897 
Q 370.029697 214.724397 369.459697 215.041897 
Q 368.889697 215.359397 368.217197 215.359397 
Q 367.452197 215.359397 366.834697 214.969397 
Q 366.217197 214.576897 365.739697 213.849397 
Q 365.397197 213.319397 365.139697 212.436897 
Q 364.802197 211.241897 364.802197 209.966897 
Q 364.802197 208.241897 365.287197 206.794397 
Q 365.684697 205.599397 366.497197 204.964397 
Q 367.309697 204.326897 368.217197 204.326897 
Q 369.139697 204.326897 369.939697 204.956897 
Q 370.739697 205.584397 371.114697 206.646897 
Q 371.639697 208.106897 371.639697 209.841897 
z
M 369.232197 209.826897 
Q 369.232197 207.044397 369.202197 206.584397 
Q 369.122197 205.499397 368.827197 205.116897 
Q 368.632197 204.866897 368.194697 204.866897 
Q 367.857197 204.866897 367.662197 205.054397 
Q 367.372197 205.326897 367.269697 206.019397 
Q 367.169697 206.709397 367.169697 210.841897 
Q 367.169697 213.091897 367.327197 213.856897 
Q 367.444697 214.411897 367.662197 214.599397 
Q 367.882197 214.786897 368.239697 214.786897 
Q 368.632197 214.786897 368.827197 214.536897 
Q 369.154697 214.099397 369.202197 213.186897 
L 369.232197 209.826897 
z
M 374.224697 212.731897 
Q 374.772197 212.731897 375.149697 213.116897 
Q 375.529697 213.499397 375.529697 214.036897 
Q 375.529697 214.576897 375.147197 214.956897 
Q 374.764697 215.334397 374.224697 215.334397 
Q 373.684697 215.334397 373.304697 214.956897 
Q 372.927197 214.576897 372.927197 214.036897 
Q 372.927197 213.499397 373.304697 213.116897 
Q 373.684697 212.731897 374.224697 212.731897 
z
M 376.717197 215.359397 
L 376.717197 215.139397 
Q 378.014697 214.841897 378.917197 214.264397 
Q 379.819697 213.686897 380.344697 212.834397 
Q 380.872197 211.981897 381.084697 210.874397 
Q 380.599697 211.124397 380.259697 211.221897 
Q 379.919697 211.319397 379.544697 211.319397 
Q 378.342197 211.319397 377.539697 210.451897 
Q 376.739697 209.584397 376.739697 208.076897 
Q 376.739697 207.029397 377.172197 206.159397 
Q 377.607197 205.286897 378.412197 204.806897 
Q 379.217197 204.326897 380.084697 204.326897 
Q 381.014697 204.326897 381.842197 204.859397 
Q 382.669697 205.389397 383.162197 206.396897 
Q 383.654697 207.404397 383.654697 208.694397 
Q 383.654697 210.366897 382.852197 211.899397 
Q 382.052197 213.429397 380.467197 214.354397 
Q 378.882197 215.279397 376.717197 215.359397 
z
M 381.202197 210.216897 
Q 381.279697 209.341897 381.279697 208.679397 
Q 381.279697 207.256897 380.952197 206.029397 
Q 380.764697 205.349397 380.397197 205.029397 
Q 380.202197 204.856897 379.889697 204.856897 
Q 379.497197 204.856897 379.279697 205.194397 
Q 378.974697 205.654397 378.974697 206.951897 
Q 378.974697 209.116897 379.489697 209.936897 
Q 379.827197 210.466897 380.397197 210.466897 
Q 380.702197 210.466897 381.202197 210.216897 
z
"/>
   </g>
   <g id="text_27">
    <path d="M 356.622197 120.619329 
L 361.654697 113.799329 
L 362.607197 113.799329 
L 362.607197 120.619329 
L 363.577197 120.619329 
L 363.577197 122.236829 
L 362.607197 122.236829 
L 362.607197 124.611829 
L 360.459697 124.611829 
L 360.459697 122.236829 
L 356.622197 122.236829 
L 356.622197 120.619329 
z
M 357.382197 120.619329 
L 360.459697 120.619329 
L 360.459697 116.439329 
L 357.382197 120.619329 
z
M 371.639697 119.314329 
Q 371.639697 120.901829 371.194697 122.276829 
Q 370.927197 123.119329 370.477197 123.659329 
Q 370.029697 124.196829 369.459697 124.514329 
Q 368.889697 124.831829 368.217197 124.831829 
Q 367.452197 124.831829 366.834697 124.441829 
Q 366.217197 124.049329 365.739697 123.321829 
Q 365.397197 122.791829 365.139697 121.909329 
Q 364.802197 120.714329 364.802197 119.439329 
Q 364.802197 117.714329 365.287197 116.266829 
Q 365.684697 115.071829 366.497197 114.436829 
Q 367.309697 113.799329 368.217197 113.799329 
Q 369.139697 113.799329 369.939697 114.429329 
Q 370.739697 115.056829 371.114697 116.119329 
Q 371.639697 117.579329 371.639697 119.314329 
z
M 369.232197 119.299329 
Q 369.232197 116.516829 369.202197 116.056829 
Q 369.122197 114.971829 368.827197 114.589329 
Q 368.632197 114.339329 368.194697 114.339329 
Q 367.857197 114.339329 367.662197 114.526829 
Q 367.372197 114.799329 367.269697 115.491829 
Q 367.169697 116.181829 367.169697 120.314329 
Q 367.169697 122.564329 367.327197 123.329329 
Q 367.444697 123.884329 367.662197 124.071829 
Q 367.882197 124.259329 368.239697 124.259329 
Q 368.632197 124.259329 368.827197 124.009329 
Q 369.154697 123.571829 369.202197 122.659329 
L 369.232197 119.299329 
z
M 374.224697 122.204329 
Q 374.772197 122.204329 375.149697 122.589329 
Q 375.529697 122.971829 375.529697 123.509329 
Q 375.529697 124.049329 375.147197 124.429329 
Q 374.764697 124.806829 374.224697 124.806829 
Q 373.684697 124.806829 373.304697 124.429329 
Q 372.927197 124.049329 372.927197 123.509329 
Q 372.927197 122.971829 373.304697 122.589329 
Q 373.684697 122.204329 374.224697 122.204329 
z
M 378.662197 114.016829 
L 383.622197 114.016829 
L 382.834697 116.034329 
L 378.662197 116.034329 
L 378.264697 117.089329 
Q 380.959697 117.189329 382.412197 118.431829 
Q 383.607197 119.454329 383.607197 120.979329 
Q 383.607197 121.954329 383.052197 122.889329 
Q 382.497197 123.821829 381.489697 124.326829 
Q 380.482197 124.831829 379.279697 124.831829 
Q 377.982197 124.831829 377.287197 124.346829 
Q 376.802197 124.001829 376.802197 123.564329 
Q 376.802197 123.229329 377.054697 122.971829 
Q 377.309697 122.714329 377.647197 122.714329 
Q 377.952197 122.714329 378.264697 122.839329 
Q 378.577197 122.964329 379.334697 123.494329 
Q 379.809697 123.821829 380.154697 123.946829 
Q 380.397197 124.041829 380.702197 124.041829 
Q 381.342197 124.041829 381.789697 123.574329 
Q 382.239697 123.104329 382.239697 122.446829 
Q 382.239697 121.071829 380.864697 120.214329 
Q 379.489697 119.354329 377.397197 119.354329 
Q 377.184697 119.354329 376.764697 119.361829 
L 378.662197 114.016829 
z
" style="stroke: #ffffff; stroke-width: 3.8"/>
    <path d="M 356.622197 120.619329 
L 361.654697 113.799329 
L 362.607197 113.799329 
L 362.607197 120.619329 
L 363.577197 120.619329 
L 363.577197 122.236829 
L 362.607197 122.236829 
L 362.607197 124.611829 
L 360.459697 124.611829 
L 360.459697 122.236829 
L 356.622197 122.236829 
L 356.622197 120.619329 
z
M 357.382197 120.619329 
L 360.459697 120.619329 
L 360.459697 116.439329 
L 357.382197 120.619329 
z
M 371.639697 119.314329 
Q 371.639697 120.901829 371.194697 122.276829 
Q 370.927197 123.119329 370.477197 123.659329 
Q 370.029697 124.196829 369.459697 124.514329 
Q 368.889697 124.831829 368.217197 124.831829 
Q 367.452197 124.831829 366.834697 124.441829 
Q 366.217197 124.049329 365.739697 123.321829 
Q 365.397197 122.791829 365.139697 121.909329 
Q 364.802197 120.714329 364.802197 119.439329 
Q 364.802197 117.714329 365.287197 116.266829 
Q 365.684697 115.071829 366.497197 114.436829 
Q 367.309697 113.799329 368.217197 113.799329 
Q 369.139697 113.799329 369.939697 114.429329 
Q 370.739697 115.056829 371.114697 116.119329 
Q 371.639697 117.579329 371.639697 119.314329 
z
M 369.232197 119.299329 
Q 369.232197 116.516829 369.202197 116.056829 
Q 369.122197 114.971829 368.827197 114.589329 
Q 368.632197 114.339329 368.194697 114.339329 
Q 367.857197 114.339329 367.662197 114.526829 
Q 367.372197 114.799329 367.269697 115.491829 
Q 367.169697 116.181829 367.169697 120.314329 
Q 367.169697 122.564329 367.327197 123.329329 
Q 367.444697 123.884329 367.662197 124.071829 
Q 367.882197 124.259329 368.239697 124.259329 
Q 368.632197 124.259329 368.827197 124.009329 
Q 369.154697 123.571829 369.202197 122.659329 
L 369.232197 119.299329 
z
M 374.224697 122.204329 
Q 374.772197 122.204329 375.149697 122.589329 
Q 375.529697 122.971829 375.529697 123.509329 
Q 375.529697 124.049329 375.147197 124.429329 
Q 374.764697 124.806829 374.224697 124.806829 
Q 373.684697 124.806829 373.304697 124.429329 
Q 372.927197 124.049329 372.927197 123.509329 
Q 372.927197 122.971829 373.304697 122.589329 
Q 373.684697 122.204329 374.224697 122.204329 
z
M 378.662197 114.016829 
L 383.622197 114.016829 
L 382.834697 116.034329 
L 378.662197 116.034329 
L 378.264697 117.089329 
Q 380.959697 117.189329 382.412197 118.431829 
Q 383.607197 119.454329 383.607197 120.979329 
Q 383.607197 121.954329 383.052197 122.889329 
Q 382.497197 123.821829 381.489697 124.326829 
Q 380.482197 124.831829 379.279697 124.831829 
Q 377.982197 124.831829 377.287197 124.346829 
Q 376.802197 124.001829 376.802197 123.564329 
Q 376.802197 123.229329 377.054697 122.971829 
Q 377.309697 122.714329 377.647197 122.714329 
Q 377.952197 122.714329 378.264697 122.839329 
Q 378.577197 122.964329 379.334697 123.494329 
Q 379.809697 123.821829 380.154697 123.946829 
Q 380.397197 124.041829 380.702197 124.041829 
Q 381.342197 124.041829 381.789697 123.574329 
Q 382.239697 123.104329 382.239697 122.446829 
Q 382.239697 121.071829 380.864697 120.214329 
Q 379.489697 119.354329 377.397197 119.354329 
Q 377.184697 119.354329 376.764697 119.361829 
L 378.662197 114.016829 
z
"/>
   </g>
   <g id="text_28">
    <path d="M 578.778672 277.850466 
L 572.543672 277.850466 
L 572.543672 277.677966 
Q 575.411172 274.265466 576.023672 273.085466 
Q 576.638672 271.905466 576.638672 270.780466 
Q 576.638672 269.960466 576.131172 269.417966 
Q 575.623672 268.872966 574.888672 268.872966 
Q 573.686172 268.872966 573.021172 270.077966 
L 572.731172 269.975466 
Q 573.153672 268.475466 574.013672 267.757966 
Q 574.873672 267.037966 575.998672 267.037966 
Q 576.801172 267.037966 577.466172 267.412966 
Q 578.131172 267.787966 578.506172 268.440466 
Q 578.881172 269.092966 578.881172 269.662966 
Q 578.881172 270.702966 578.301172 271.772966 
Q 577.513672 273.217966 574.856172 275.802966 
L 577.146172 275.802966 
Q 577.988672 275.802966 578.243672 275.732966 
Q 578.498672 275.662966 578.661172 275.495466 
Q 578.826172 275.327966 579.091172 274.787966 
L 579.373672 274.787966 
L 578.778672 277.850466 
z
M 585.363672 267.037966 
L 585.363672 275.702966 
Q 585.363672 276.677966 585.448672 276.947966 
Q 585.536172 277.217966 585.808672 277.390466 
Q 586.083672 277.560466 586.686172 277.560466 
L 586.926172 277.560466 
L 586.926172 277.850466 
L 581.348672 277.850466 
L 581.348672 277.560466 
L 581.631172 277.560466 
Q 582.311172 277.560466 582.598672 277.405466 
Q 582.888672 277.247966 582.988672 276.975466 
Q 583.091172 276.702966 583.091172 275.702966 
L 583.091172 270.210466 
Q 583.091172 269.475466 583.021172 269.292966 
Q 582.951172 269.107966 582.758672 268.980466 
Q 582.568672 268.850466 582.318672 268.850466 
Q 581.918672 268.850466 581.348672 269.100466 
L 581.208672 268.817966 
L 585.106172 267.037966 
L 585.363672 267.037966 
z
M 590.153672 275.442966 
Q 590.701172 275.442966 591.078672 275.827966 
Q 591.458672 276.210466 591.458672 276.747966 
Q 591.458672 277.287966 591.076172 277.667966 
Q 590.693672 278.045466 590.153672 278.045466 
Q 589.613672 278.045466 589.233672 277.667966 
Q 588.856172 277.287966 588.856172 276.747966 
Q 588.856172 276.210466 589.233672 275.827966 
Q 589.613672 275.442966 590.153672 275.442966 
z
M 597.606172 271.865466 
Q 598.723672 272.685466 599.156172 273.392966 
Q 599.591172 274.100466 599.591172 275.015466 
Q 599.591172 276.295466 598.626172 277.182966 
Q 597.661172 278.070466 596.006172 278.070466 
Q 594.436172 278.070466 593.576172 277.297966 
Q 592.716172 276.522966 592.716172 275.405466 
Q 592.716172 274.552966 593.211172 273.912966 
Q 593.708672 273.272966 594.863672 272.740466 
Q 593.606172 271.780466 593.251172 271.170466 
Q 592.896172 270.560466 592.896172 269.755466 
Q 592.896172 268.692966 593.798672 267.885466 
Q 594.701172 267.077966 596.271172 267.077966 
Q 597.786172 267.077966 598.601172 267.792966 
Q 599.418672 268.505466 599.418672 269.505466 
Q 599.418672 270.255466 598.976172 270.830466 
Q 598.536172 271.405466 597.606172 271.865466 
z
M 597.013672 271.467966 
Q 597.301172 271.077966 597.441172 270.592966 
Q 597.583672 270.107966 597.583672 269.530466 
Q 597.583672 268.515466 597.146172 267.975466 
Q 596.818672 267.560466 596.238672 267.560466 
Q 595.716172 267.560466 595.348672 267.940466 
Q 594.981172 268.317966 594.981172 268.880466 
Q 594.981172 269.452966 595.391172 270.065466 
Q 595.801172 270.677966 597.013672 271.467966 
z
M 595.451172 273.115466 
Q 595.208672 273.335466 595.106172 273.515466 
Q 594.951172 273.787966 594.826172 274.312966 
Q 594.701172 274.835466 594.701172 275.405466 
Q 594.701172 276.140466 594.888672 276.635466 
Q 595.076172 277.130466 595.423672 277.350466 
Q 595.771172 277.567966 596.138672 277.567966 
Q 596.708672 277.567966 597.098672 277.150466 
Q 597.488672 276.732966 597.488672 276.005466 
Q 597.488672 274.490466 595.451172 273.115466 
z
" style="stroke: #ffffff; stroke-width: 3.8"/>
    <path d="M 578.778672 277.850466 
L 572.543672 277.850466 
L 572.543672 277.677966 
Q 575.411172 274.265466 576.023672 273.085466 
Q 576.638672 271.905466 576.638672 270.780466 
Q 576.638672 269.960466 576.131172 269.417966 
Q 575.623672 268.872966 574.888672 268.872966 
Q 573.686172 268.872966 573.021172 270.077966 
L 572.731172 269.975466 
Q 573.153672 268.475466 574.013672 267.757966 
Q 574.873672 267.037966 575.998672 267.037966 
Q 576.801172 267.037966 577.466172 267.412966 
Q 578.131172 267.787966 578.506172 268.440466 
Q 578.881172 269.092966 578.881172 269.662966 
Q 578.881172 270.702966 578.301172 271.772966 
Q 577.513672 273.217966 574.856172 275.802966 
L 577.146172 275.802966 
Q 577.988672 275.802966 578.243672 275.732966 
Q 578.498672 275.662966 578.661172 275.495466 
Q 578.826172 275.327966 579.091172 274.787966 
L 579.373672 274.787966 
L 578.778672 277.850466 
z
M 585.363672 267.037966 
L 585.363672 275.702966 
Q 585.363672 276.677966 585.448672 276.947966 
Q 585.536172 277.217966 585.808672 277.390466 
Q 586.083672 277.560466 586.686172 277.560466 
L 586.926172 277.560466 
L 586.926172 277.850466 
L 581.348672 277.850466 
L 581.348672 277.560466 
L 581.631172 277.560466 
Q 582.311172 277.560466 582.598672 277.405466 
Q 582.888672 277.247966 582.988672 276.975466 
Q 583.091172 276.702966 583.091172 275.702966 
L 583.091172 270.210466 
Q 583.091172 269.475466 583.021172 269.292966 
Q 582.951172 269.107966 582.758672 268.980466 
Q 582.568672 268.850466 582.318672 268.850466 
Q 581.918672 268.850466 581.348672 269.100466 
L 581.208672 268.817966 
L 585.106172 267.037966 
L 585.363672 267.037966 
z
M 590.153672 275.442966 
Q 590.701172 275.442966 591.078672 275.827966 
Q 591.458672 276.210466 591.458672 276.747966 
Q 591.458672 277.287966 591.076172 277.667966 
Q 590.693672 278.045466 590.153672 278.045466 
Q 589.613672 278.045466 589.233672 277.667966 
Q 588.856172 277.287966 588.856172 276.747966 
Q 588.856172 276.210466 589.233672 275.827966 
Q 589.613672 275.442966 590.153672 275.442966 
z
M 597.606172 271.865466 
Q 598.723672 272.685466 599.156172 273.392966 
Q 599.591172 274.100466 599.591172 275.015466 
Q 599.591172 276.295466 598.626172 277.182966 
Q 597.661172 278.070466 596.006172 278.070466 
Q 594.436172 278.070466 593.576172 277.297966 
Q 592.716172 276.522966 592.716172 275.405466 
Q 592.716172 274.552966 593.211172 273.912966 
Q 593.708672 273.272966 594.863672 272.740466 
Q 593.606172 271.780466 593.251172 271.170466 
Q 592.896172 270.560466 592.896172 269.755466 
Q 592.896172 268.692966 593.798672 267.885466 
Q 594.701172 267.077966 596.271172 267.077966 
Q 597.786172 267.077966 598.601172 267.792966 
Q 599.418672 268.505466 599.418672 269.505466 
Q 599.418672 270.255466 598.976172 270.830466 
Q 598.536172 271.405466 597.606172 271.865466 
z
M 597.013672 271.467966 
Q 597.301172 271.077966 597.441172 270.592966 
Q 597.583672 270.107966 597.583672 269.530466 
Q 597.583672 268.515466 597.146172 267.975466 
Q 596.818672 267.560466 596.238672 267.560466 
Q 595.716172 267.560466 595.348672 267.940466 
Q 594.981172 268.317966 594.981172 268.880466 
Q 594.981172 269.452966 595.391172 270.065466 
Q 595.801172 270.677966 597.013672 271.467966 
z
M 595.451172 273.115466 
Q 595.208672 273.335466 595.106172 273.515466 
Q 594.951172 273.787966 594.826172 274.312966 
Q 594.701172 274.835466 594.701172 275.405466 
Q 594.701172 276.140466 594.888672 276.635466 
Q 595.076172 277.130466 595.423672 277.350466 
Q 595.771172 277.567966 596.138672 277.567966 
Q 596.708672 277.567966 597.098672 277.150466 
Q 597.488672 276.732966 597.488672 276.005466 
Q 597.488672 274.490466 595.451172 273.115466 
z
"/>
   </g>
   <g id="text_29">
    <path d="M 560.05684 399.625888 
Q 560.05684 401.114169 559.639652 402.403232 
Q 559.388871 403.193076 558.966996 403.699326 
Q 558.547465 404.203232 558.01309 404.500888 
Q 557.478715 404.798544 556.848246 404.798544 
Q 556.131059 404.798544 555.552152 404.432919 
Q 554.973246 404.064951 554.52559 403.382919 
Q 554.204496 402.886044 553.96309 402.058701 
Q 553.646684 400.938388 553.646684 399.743076 
Q 553.646684 398.125888 554.101371 396.768857 
Q 554.474027 395.648544 555.235746 395.053232 
Q 555.997465 394.455576 556.848246 394.455576 
Q 557.71309 394.455576 558.46309 395.046201 
Q 559.21309 395.634482 559.564652 396.630576 
Q 560.05684 397.999326 560.05684 399.625888 
z
M 557.799809 399.611826 
Q 557.799809 397.003232 557.771684 396.571982 
Q 557.696684 395.554794 557.420121 395.196201 
Q 557.237309 394.961826 556.827152 394.961826 
Q 556.510746 394.961826 556.327934 395.137607 
Q 556.056059 395.393076 555.959965 396.042294 
Q 555.866215 396.689169 555.866215 400.563388 
Q 555.866215 402.672763 556.013871 403.389951 
Q 556.124027 403.910263 556.327934 404.086044 
Q 556.534184 404.261826 556.86934 404.261826 
Q 557.237309 404.261826 557.420121 404.027451 
Q 557.727152 403.617294 557.771684 402.761826 
L 557.799809 399.611826 
z
M 562.480277 402.335263 
Q 562.993559 402.335263 563.347465 402.696201 
Q 563.703715 403.054794 563.703715 403.558701 
Q 563.703715 404.064951 563.345121 404.421201 
Q 562.986527 404.775107 562.480277 404.775107 
Q 561.974027 404.775107 561.617777 404.421201 
Q 561.263871 404.064951 561.263871 403.558701 
Q 561.263871 403.054794 561.617777 402.696201 
Q 561.974027 402.335263 562.480277 402.335263 
z
M 569.239652 394.455576 
L 569.239652 402.579013 
Q 569.239652 403.493076 569.31934 403.746201 
Q 569.401371 403.999326 569.65684 404.161044 
Q 569.914652 404.320419 570.479496 404.320419 
L 570.704496 404.320419 
L 570.704496 404.592294 
L 565.47559 404.592294 
L 565.47559 404.320419 
L 565.740434 404.320419 
Q 566.377934 404.320419 566.647465 404.175107 
Q 566.91934 404.027451 567.01309 403.771982 
Q 567.109184 403.516513 567.109184 402.579013 
L 567.109184 397.429794 
Q 567.109184 396.740732 567.043559 396.569638 
Q 566.977934 396.396201 566.797465 396.276669 
Q 566.61934 396.154794 566.384965 396.154794 
Q 566.009965 396.154794 565.47559 396.389169 
L 565.34434 396.124326 
L 568.998246 394.455576 
L 569.239652 394.455576 
z
" style="fill: #404040; stroke: #ffffff; stroke-width: 3.8"/>
    <path d="M 560.05684 399.625888 
Q 560.05684 401.114169 559.639652 402.403232 
Q 559.388871 403.193076 558.966996 403.699326 
Q 558.547465 404.203232 558.01309 404.500888 
Q 557.478715 404.798544 556.848246 404.798544 
Q 556.131059 404.798544 555.552152 404.432919 
Q 554.973246 404.064951 554.52559 403.382919 
Q 554.204496 402.886044 553.96309 402.058701 
Q 553.646684 400.938388 553.646684 399.743076 
Q 553.646684 398.125888 554.101371 396.768857 
Q 554.474027 395.648544 555.235746 395.053232 
Q 555.997465 394.455576 556.848246 394.455576 
Q 557.71309 394.455576 558.46309 395.046201 
Q 559.21309 395.634482 559.564652 396.630576 
Q 560.05684 397.999326 560.05684 399.625888 
z
M 557.799809 399.611826 
Q 557.799809 397.003232 557.771684 396.571982 
Q 557.696684 395.554794 557.420121 395.196201 
Q 557.237309 394.961826 556.827152 394.961826 
Q 556.510746 394.961826 556.327934 395.137607 
Q 556.056059 395.393076 555.959965 396.042294 
Q 555.866215 396.689169 555.866215 400.563388 
Q 555.866215 402.672763 556.013871 403.389951 
Q 556.124027 403.910263 556.327934 404.086044 
Q 556.534184 404.261826 556.86934 404.261826 
Q 557.237309 404.261826 557.420121 404.027451 
Q 557.727152 403.617294 557.771684 402.761826 
L 557.799809 399.611826 
z
M 562.480277 402.335263 
Q 562.993559 402.335263 563.347465 402.696201 
Q 563.703715 403.054794 563.703715 403.558701 
Q 563.703715 404.064951 563.345121 404.421201 
Q 562.986527 404.775107 562.480277 404.775107 
Q 561.974027 404.775107 561.617777 404.421201 
Q 561.263871 404.064951 561.263871 403.558701 
Q 561.263871 403.054794 561.617777 402.696201 
Q 561.974027 402.335263 562.480277 402.335263 
z
M 569.239652 394.455576 
L 569.239652 402.579013 
Q 569.239652 403.493076 569.31934 403.746201 
Q 569.401371 403.999326 569.65684 404.161044 
Q 569.914652 404.320419 570.479496 404.320419 
L 570.704496 404.320419 
L 570.704496 404.592294 
L 565.47559 404.592294 
L 565.47559 404.320419 
L 565.740434 404.320419 
Q 566.377934 404.320419 566.647465 404.175107 
Q 566.91934 404.027451 567.01309 403.771982 
Q 567.109184 403.516513 567.109184 402.579013 
L 567.109184 397.429794 
Q 567.109184 396.740732 567.043559 396.569638 
Q 566.977934 396.396201 566.797465 396.276669 
Q 566.61934 396.154794 566.384965 396.154794 
Q 566.009965 396.154794 565.47559 396.389169 
L 565.34434 396.124326 
L 568.998246 394.455576 
L 569.239652 394.455576 
z
" style="fill: #404040"/>
   </g>
   <g id="text_30">
    <path d="M 568.961768 357.99452 
L 563.116455 357.99452 
L 563.116455 357.832802 
Q 565.804736 354.633583 566.378955 353.527333 
Q 566.955518 352.421083 566.955518 351.366395 
Q 566.955518 350.597645 566.479736 350.089052 
Q 566.003955 349.578114 565.314893 349.578114 
Q 564.187549 349.578114 563.564111 350.707802 
L 563.292236 350.611708 
Q 563.68833 349.205458 564.49458 348.532802 
Q 565.30083 347.857802 566.355518 347.857802 
Q 567.107861 347.857802 567.731299 348.209364 
Q 568.354736 348.560927 568.706299 349.172645 
Q 569.057861 349.784364 569.057861 350.318739 
Q 569.057861 351.293739 568.514111 352.296864 
Q 567.77583 353.651552 565.284424 356.074989 
L 567.431299 356.074989 
Q 568.221143 356.074989 568.460205 356.009364 
Q 568.699268 355.943739 568.851611 355.786708 
Q 569.006299 355.629677 569.254736 355.123427 
L 569.51958 355.123427 
L 568.961768 357.99452 
z
M 570.623486 354.251552 
L 575.341455 347.857802 
L 576.234424 347.857802 
L 576.234424 354.251552 
L 577.143799 354.251552 
L 577.143799 355.767958 
L 576.234424 355.767958 
L 576.234424 357.99452 
L 574.221143 357.99452 
L 574.221143 355.767958 
L 570.623486 355.767958 
L 570.623486 354.251552 
z
M 571.335986 354.251552 
L 574.221143 354.251552 
L 574.221143 350.332802 
L 571.335986 354.251552 
z
M 579.62583 355.737489 
Q 580.139111 355.737489 580.493018 356.098427 
Q 580.849268 356.45702 580.849268 356.960927 
Q 580.849268 357.467177 580.490674 357.823427 
Q 580.13208 358.177333 579.62583 358.177333 
Q 579.11958 358.177333 578.76333 357.823427 
Q 578.409424 357.467177 578.409424 356.960927 
Q 578.409424 356.45702 578.76333 356.098427 
Q 579.11958 355.737489 579.62583 355.737489 
z
M 581.962549 358.20077 
L 581.962549 357.99452 
Q 583.178955 357.715614 584.025049 357.174208 
Q 584.871143 356.632802 585.36333 355.833583 
Q 585.857861 355.034364 586.05708 353.996083 
Q 585.602393 354.230458 585.283643 354.321864 
Q 584.964893 354.41327 584.61333 354.41327 
Q 583.485986 354.41327 582.733643 353.599989 
Q 581.983643 352.786708 581.983643 351.373427 
Q 581.983643 350.391395 582.389111 349.57577 
Q 582.796924 348.757802 583.551611 348.307802 
Q 584.306299 347.857802 585.11958 347.857802 
Q 585.991455 347.857802 586.767236 348.35702 
Q 587.543018 348.853895 588.004736 349.798427 
Q 588.466455 350.742958 588.466455 351.952333 
Q 588.466455 353.520302 587.714111 354.95702 
Q 586.964111 356.391395 585.478174 357.258583 
Q 583.992236 358.12577 581.962549 358.20077 
z
M 586.167236 353.379677 
Q 586.239893 352.559364 586.239893 351.93827 
Q 586.239893 350.604677 585.932861 349.453895 
Q 585.75708 348.816395 585.412549 348.516395 
Q 585.229736 348.354677 584.936768 348.354677 
Q 584.568799 348.354677 584.364893 348.671083 
Q 584.078955 349.102333 584.078955 350.318739 
Q 584.078955 352.348427 584.561768 353.117177 
Q 584.878174 353.614052 585.412549 353.614052 
Q 585.698486 353.614052 586.167236 353.379677 
z
" style="fill: #404040; stroke: #ffffff; stroke-width: 3.8"/>
    <path d="M 568.961768 357.99452 
L 563.116455 357.99452 
L 563.116455 357.832802 
Q 565.804736 354.633583 566.378955 353.527333 
Q 566.955518 352.421083 566.955518 351.366395 
Q 566.955518 350.597645 566.479736 350.089052 
Q 566.003955 349.578114 565.314893 349.578114 
Q 564.187549 349.578114 563.564111 350.707802 
L 563.292236 350.611708 
Q 563.68833 349.205458 564.49458 348.532802 
Q 565.30083 347.857802 566.355518 347.857802 
Q 567.107861 347.857802 567.731299 348.209364 
Q 568.354736 348.560927 568.706299 349.172645 
Q 569.057861 349.784364 569.057861 350.318739 
Q 569.057861 351.293739 568.514111 352.296864 
Q 567.77583 353.651552 565.284424 356.074989 
L 567.431299 356.074989 
Q 568.221143 356.074989 568.460205 356.009364 
Q 568.699268 355.943739 568.851611 355.786708 
Q 569.006299 355.629677 569.254736 355.123427 
L 569.51958 355.123427 
L 568.961768 357.99452 
z
M 570.623486 354.251552 
L 575.341455 347.857802 
L 576.234424 347.857802 
L 576.234424 354.251552 
L 577.143799 354.251552 
L 577.143799 355.767958 
L 576.234424 355.767958 
L 576.234424 357.99452 
L 574.221143 357.99452 
L 574.221143 355.767958 
L 570.623486 355.767958 
L 570.623486 354.251552 
z
M 571.335986 354.251552 
L 574.221143 354.251552 
L 574.221143 350.332802 
L 571.335986 354.251552 
z
M 579.62583 355.737489 
Q 580.139111 355.737489 580.493018 356.098427 
Q 580.849268 356.45702 580.849268 356.960927 
Q 580.849268 357.467177 580.490674 357.823427 
Q 580.13208 358.177333 579.62583 358.177333 
Q 579.11958 358.177333 578.76333 357.823427 
Q 578.409424 357.467177 578.409424 356.960927 
Q 578.409424 356.45702 578.76333 356.098427 
Q 579.11958 355.737489 579.62583 355.737489 
z
M 581.962549 358.20077 
L 581.962549 357.99452 
Q 583.178955 357.715614 584.025049 357.174208 
Q 584.871143 356.632802 585.36333 355.833583 
Q 585.857861 355.034364 586.05708 353.996083 
Q 585.602393 354.230458 585.283643 354.321864 
Q 584.964893 354.41327 584.61333 354.41327 
Q 583.485986 354.41327 582.733643 353.599989 
Q 581.983643 352.786708 581.983643 351.373427 
Q 581.983643 350.391395 582.389111 349.57577 
Q 582.796924 348.757802 583.551611 348.307802 
Q 584.306299 347.857802 585.11958 347.857802 
Q 585.991455 347.857802 586.767236 348.35702 
Q 587.543018 348.853895 588.004736 349.798427 
Q 588.466455 350.742958 588.466455 351.952333 
Q 588.466455 353.520302 587.714111 354.95702 
Q 586.964111 356.391395 585.478174 357.258583 
Q 583.992236 358.12577 581.962549 358.20077 
z
M 586.167236 353.379677 
Q 586.239893 352.559364 586.239893 351.93827 
Q 586.239893 350.604677 585.932861 349.453895 
Q 585.75708 348.816395 585.412549 348.516395 
Q 585.229736 348.354677 584.936768 348.354677 
Q 584.568799 348.354677 584.364893 348.671083 
Q 584.078955 349.102333 584.078955 350.318739 
Q 584.078955 352.348427 584.561768 353.117177 
Q 584.878174 353.614052 585.412549 353.614052 
Q 585.698486 353.614052 586.167236 353.379677 
z
" style="fill: #404040"/>
   </g>
   <g id="text_31">
    <path d="M 532.761881 331.963365 
L 535.466568 323.767271 
L 533.406412 323.767271 
Q 532.199381 323.767271 531.590006 324.081334 
Q 531.165787 324.301646 530.886881 324.908678 
L 530.610318 324.908678 
L 531.327506 321.824303 
L 537.245475 321.824303 
L 533.912662 331.963365 
L 532.761881 331.963365 
z
M 539.479068 329.500084 
Q 539.99235 329.500084 540.346256 329.861021 
Q 540.702506 330.219615 540.702506 330.723521 
Q 540.702506 331.229771 540.343912 331.586021 
Q 539.985318 331.939928 539.479068 331.939928 
Q 538.972818 331.939928 538.616568 331.586021 
Q 538.262662 331.229771 538.262662 330.723521 
Q 538.262662 330.219615 538.616568 329.861021 
Q 538.972818 329.500084 539.479068 329.500084 
z
M 543.5736 326.776646 
L 543.5736 326.521178 
Q 544.407975 326.277428 544.729068 326.068834 
Q 545.052506 325.86024 545.286881 325.433678 
Q 545.521256 325.004771 545.521256 324.564146 
Q 545.521256 323.957115 545.078287 323.521178 
Q 544.635318 323.08524 543.976725 323.08524 
Q 542.950162 323.08524 542.232975 324.168053 
L 541.9611 324.074303 
Q 542.488443 322.850865 543.313443 322.236803 
Q 544.138443 321.620396 545.1486 321.620396 
Q 546.17985 321.620396 546.850162 322.250865 
Q 547.520475 322.87899 547.520475 323.72274 
Q 547.520475 324.271178 547.208756 324.782115 
Q 546.899381 325.290709 546.231412 325.677428 
Q 547.089225 326.094615 547.539225 326.706334 
Q 547.989225 327.318053 547.989225 328.24149 
Q 547.989225 329.793053 546.864225 330.882896 
Q 545.741568 331.970396 543.852506 331.970396 
Q 542.591568 331.970396 542.012662 331.550865 
Q 541.595475 331.257896 541.595475 330.798521 
Q 541.595475 330.461021 541.836881 330.224303 
Q 542.078287 329.98524 542.394693 329.98524 
Q 542.6361 329.98524 542.849381 330.086021 
Q 542.966568 330.144615 543.679068 330.728209 
Q 544.393912 331.309459 545.01735 331.309459 
Q 545.558756 331.309459 545.945475 330.882896 
Q 546.334537 330.45399 546.334537 329.793053 
Q 546.334537 328.789928 545.631412 327.943834 
Q 544.928287 327.09774 543.5736 326.776646 
z
" style="fill: #404040; stroke: #ffffff; stroke-width: 3.8"/>
    <path d="M 532.761881 331.963365 
L 535.466568 323.767271 
L 533.406412 323.767271 
Q 532.199381 323.767271 531.590006 324.081334 
Q 531.165787 324.301646 530.886881 324.908678 
L 530.610318 324.908678 
L 531.327506 321.824303 
L 537.245475 321.824303 
L 533.912662 331.963365 
L 532.761881 331.963365 
z
M 539.479068 329.500084 
Q 539.99235 329.500084 540.346256 329.861021 
Q 540.702506 330.219615 540.702506 330.723521 
Q 540.702506 331.229771 540.343912 331.586021 
Q 539.985318 331.939928 539.479068 331.939928 
Q 538.972818 331.939928 538.616568 331.586021 
Q 538.262662 331.229771 538.262662 330.723521 
Q 538.262662 330.219615 538.616568 329.861021 
Q 538.972818 329.500084 539.479068 329.500084 
z
M 543.5736 326.776646 
L 543.5736 326.521178 
Q 544.407975 326.277428 544.729068 326.068834 
Q 545.052506 325.86024 545.286881 325.433678 
Q 545.521256 325.004771 545.521256 324.564146 
Q 545.521256 323.957115 545.078287 323.521178 
Q 544.635318 323.08524 543.976725 323.08524 
Q 542.950162 323.08524 542.232975 324.168053 
L 541.9611 324.074303 
Q 542.488443 322.850865 543.313443 322.236803 
Q 544.138443 321.620396 545.1486 321.620396 
Q 546.17985 321.620396 546.850162 322.250865 
Q 547.520475 322.87899 547.520475 323.72274 
Q 547.520475 324.271178 547.208756 324.782115 
Q 546.899381 325.290709 546.231412 325.677428 
Q 547.089225 326.094615 547.539225 326.706334 
Q 547.989225 327.318053 547.989225 328.24149 
Q 547.989225 329.793053 546.864225 330.882896 
Q 545.741568 331.970396 543.852506 331.970396 
Q 542.591568 331.970396 542.012662 331.550865 
Q 541.595475 331.257896 541.595475 330.798521 
Q 541.595475 330.461021 541.836881 330.224303 
Q 542.078287 329.98524 542.394693 329.98524 
Q 542.6361 329.98524 542.849381 330.086021 
Q 542.966568 330.144615 543.679068 330.728209 
Q 544.393912 331.309459 545.01735 331.309459 
Q 545.558756 331.309459 545.945475 330.882896 
Q 546.334537 330.45399 546.334537 329.793053 
Q 546.334537 328.789928 545.631412 327.943834 
Q 544.928287 327.09774 543.5736 326.776646 
z
" style="fill: #404040"/>
   </g>
   <g id="text_32">
    <path d="M 319.944086 371.13418 
L 324.662054 364.74043 
L 325.555023 364.74043 
L 325.555023 371.13418 
L 326.464398 371.13418 
L 326.464398 372.650587 
L 325.555023 372.650587 
L 325.555023 374.877149 
L 323.541742 374.877149 
L 323.541742 372.650587 
L 319.944086 372.650587 
L 319.944086 371.13418 
z
M 320.656586 371.13418 
L 323.541742 371.13418 
L 323.541742 367.21543 
L 320.656586 371.13418 
z
M 329.729242 375.083399 
L 332.433929 366.887305 
L 330.373773 366.887305 
Q 329.166742 366.887305 328.557367 367.201368 
Q 328.133148 367.42168 327.854242 368.028712 
L 327.577679 368.028712 
L 328.294867 364.944337 
L 334.212836 364.944337 
L 330.880023 375.083399 
L 329.729242 375.083399 
z
M 336.446429 372.620118 
Q 336.959711 372.620118 337.313617 372.981055 
Q 337.669867 373.339649 337.669867 373.843555 
Q 337.669867 374.349805 337.311273 374.706055 
Q 336.952679 375.059962 336.446429 375.059962 
Q 335.940179 375.059962 335.583929 374.706055 
Q 335.230023 374.349805 335.230023 373.843555 
Q 335.230023 373.339649 335.583929 372.981055 
Q 335.940179 372.620118 336.446429 372.620118 
z
M 340.979242 375.083399 
L 343.683929 366.887305 
L 341.623773 366.887305 
Q 340.416742 366.887305 339.807367 367.201368 
Q 339.383148 367.42168 339.104242 368.028712 
L 338.827679 368.028712 
L 339.544867 364.944337 
L 345.462836 364.944337 
L 342.130023 375.083399 
L 340.979242 375.083399 
z
" style="fill: #404040; stroke: #ffffff; stroke-width: 3.8"/>
    <path d="M 319.944086 371.13418 
L 324.662054 364.74043 
L 325.555023 364.74043 
L 325.555023 371.13418 
L 326.464398 371.13418 
L 326.464398 372.650587 
L 325.555023 372.650587 
L 325.555023 374.877149 
L 323.541742 374.877149 
L 323.541742 372.650587 
L 319.944086 372.650587 
L 319.944086 371.13418 
z
M 320.656586 371.13418 
L 323.541742 371.13418 
L 323.541742 367.21543 
L 320.656586 371.13418 
z
M 329.729242 375.083399 
L 332.433929 366.887305 
L 330.373773 366.887305 
Q 329.166742 366.887305 328.557367 367.201368 
Q 328.133148 367.42168 327.854242 368.028712 
L 327.577679 368.028712 
L 328.294867 364.944337 
L 334.212836 364.944337 
L 330.880023 375.083399 
L 329.729242 375.083399 
z
M 336.446429 372.620118 
Q 336.959711 372.620118 337.313617 372.981055 
Q 337.669867 373.339649 337.669867 373.843555 
Q 337.669867 374.349805 337.311273 374.706055 
Q 336.952679 375.059962 336.446429 375.059962 
Q 335.940179 375.059962 335.583929 374.706055 
Q 335.230023 374.349805 335.230023 373.843555 
Q 335.230023 373.339649 335.583929 372.981055 
Q 335.940179 372.620118 336.446429 372.620118 
z
M 340.979242 375.083399 
L 343.683929 366.887305 
L 341.623773 366.887305 
Q 340.416742 366.887305 339.807367 367.201368 
Q 339.383148 367.42168 339.104242 368.028712 
L 338.827679 368.028712 
L 339.544867 364.944337 
L 345.462836 364.944337 
L 342.130023 375.083399 
L 340.979242 375.083399 
z
" style="fill: #404040"/>
   </g>
  </g>
 </g>
 <defs>
  <clipPath id="p557ff1f1d7">
   <rect x="7.2" y="51.034687" width="730.764" height="432.495831"/>
  </clipPath>
 </defs>
</svg>
