<?xml version="1.0" encoding="utf-8" standalone="no"?>
<!DOCTYPE svg PUBLIC "-//W3C//DTD SVG 1.1//EN"
  "http://www.w3.org/Graphics/SVG/1.1/DTD/svg11.dtd">
<svg xmlns:xlink="http://www.w3.org/1999/xlink" width="745.164pt" height="495.614968pt" viewBox="0 0 745.164 495.614968" xmlns="http://www.w3.org/2000/svg" version="1.1">
 <metadata>
  <rdf:RDF xmlns:dc="http://purl.org/dc/elements/1.1/" xmlns:cc="http://creativecommons.org/ns#" xmlns:rdf="http://www.w3.org/1999/02/22-rdf-syntax-ns#">
   <cc:Work>
    <dc:type rdf:resource="http://purl.org/dc/dcmitype/StillImage"/>
    <dc:date>2026-07-13T16:58:23.875567</dc:date>
    <dc:format>image/svg+xml</dc:format>
    <dc:creator>
     <cc:Agent>
      <dc:title>Matplotlib v3.10.8, https://matplotlib.org/</dc:title>
     </cc:Agent>
    </dc:creator>
   </cc:Work>
  </rdf:RDF>
 </metadata>
 <defs>
  <style type="text/css">*{stroke-linejoin: round; stroke-linecap: butt}</style>
 </defs>
 <g id="figure_1">
  <g id="patch_1">
   <path d="M 0 495.614968 
L 745.164 495.614968 
L 745.164 0 
L 0 0 
L 0 495.614968 
z
" style="fill: none"/>
  </g>
  <g id="axes_1">
   <g id="patch_2">
    <path d="M 120.350555 446.104718 
Q 120.350555 462.222304 120.350555 475.413853 
" clip-path="url(#p2e6fb0be6e)" style="fill: none; stroke: #111111; stroke-width: 2.617127; stroke-linejoin: miter; stroke-linecap: round"/>
    <path d="M 124.132036 467.850891 
L 120.350555 475.413853 
L 116.569074 467.850891 
z
" clip-path="url(#p2e6fb0be6e)" style="fill: #111111; stroke: #111111; stroke-width: 2.617127; stroke-linejoin: miter; stroke-linecap: round"/>
   </g>
   <g id="patch_3">
    <path d="M 120.350555 361.679404 
Q 120.350555 382.158464 120.350555 397.856798 
" clip-path="url(#p2e6fb0be6e)" style="fill: none; stroke: #111111; stroke-width: 4.276012; stroke-linejoin: miter; stroke-linecap: round"/>
    <path d="M 124.662879 389.23215 
L 120.350555 397.856798 
L 116.038231 389.23215 
z
" clip-path="url(#p2e6fb0be6e)" style="fill: #111111; stroke: #111111; stroke-width: 4.276012; stroke-linejoin: miter; stroke-linecap: round"/>
   </g>
   <g id="patch_4">
    <path d="M 120.350555 262.082681 
Q 120.350555 285.785972 120.350555 303.004666 
" clip-path="url(#p2e6fb0be6e)" style="fill: none; stroke: #111111; stroke-width: 5.8; stroke-linejoin: miter; stroke-linecap: round"/>
    <path d="M 125.150555 293.404666 
L 120.350555 303.004666 
L 115.550555 293.404666 
z
" clip-path="url(#p2e6fb0be6e)" style="fill: #111111; stroke: #111111; stroke-width: 5.8; stroke-linejoin: miter; stroke-linecap: round"/>
   </g>
   <g id="patch_5">
    <path d="M 370.224697 295.68413 
Q 370.224697 317.084063 370.224697 336.000447 
" clip-path="url(#p2e6fb0be6e)" style="fill: none; stroke: #111111; stroke-width: 2.221354; stroke-linejoin: miter; stroke-linecap: round"/>
    <path d="M 373.87953 328.690781 
L 370.224697 336.000447 
L 366.569864 328.690781 
z
" clip-path="url(#p2e6fb0be6e)" style="fill: #111111; stroke: #111111; stroke-width: 2.221354; stroke-linejoin: miter; stroke-linecap: round"/>
   </g>
   <g id="patch_6">
    <path d="M 370.224697 199.647896 
Q 370.224697 220.650069 370.224697 236.619552 
" clip-path="url(#p2e6fb0be6e)" style="fill: none; stroke: #111111; stroke-width: 4.501375; stroke-linejoin: miter; stroke-linecap: round"/>
    <path d="M 374.609137 227.850671 
L 370.224697 236.619552 
L 365.840257 227.850671 
z
" clip-path="url(#p2e6fb0be6e)" style="fill: #111111; stroke: #111111; stroke-width: 4.501375; stroke-linejoin: miter; stroke-linecap: round"/>
   </g>
   <g id="patch_7">
    <path d="M 370.224697 123.717288 
Q 370.224697 135.064408 370.224697 144.129235 
" clip-path="url(#p2e6fb0be6e)" style="fill: none; stroke: #111111; stroke-width: 2.041345; stroke-linejoin: miter; stroke-linecap: round"/>
    <path d="M 373.821927 136.934774 
L 370.224697 144.129235 
L 366.627466 136.934774 
z
" clip-path="url(#p2e6fb0be6e)" style="fill: #111111; stroke: #111111; stroke-width: 2.041345; stroke-linejoin: miter; stroke-linecap: round"/>
   </g>
   <g id="patch_8">
    <path d="M 586.153672 236.412382 
Q 586.153672 263.138552 586.153672 286.432773 
" clip-path="url(#p2e6fb0be6e)" style="fill: none; stroke: #111111; stroke-width: 3.069629; stroke-linejoin: miter; stroke-linecap: round"/>
    <path d="M 590.079953 278.58021 
L 586.153672 286.432773 
L 582.227391 278.58021 
z
" clip-path="url(#p2e6fb0be6e)" style="fill: #111111; stroke: #111111; stroke-width: 3.069629; stroke-linejoin: miter; stroke-linecap: round"/>
   </g>
   <g id="line2d_1">
    <path d="M 165.610777 478.33989 
L 550.322663 478.33989 
" clip-path="url(#p2e6fb0be6e)" style="fill: none; stroke-dasharray: 5.6,4.2; stroke-dashoffset: 0; stroke: #404040; stroke-width: 1.4"/>
   </g>
   <g id="line2d_2">
    <path d="M 165.610777 402.637524 
L 550.322663 402.637524 
" clip-path="url(#p2e6fb0be6e)" style="fill: none; stroke-dasharray: 5.6,4.2; stroke-dashoffset: 0; stroke: #404040; stroke-width: 1.4"/>
   </g>
   <g id="line2d_3">
    <path d="M 415.484919 338.483996 
L 560.694797 338.483996 
" clip-path="url(#p2e6fb0be6e)" style="fill: none; stroke-dasharray: 5.6,4.2; stroke-dashoffset: 0; stroke: #404040; stroke-width: 1.4"/>
   </g>
   <g id="patch_9">
    <path d="M 665.359061 289.864722 
Q 593.300597 381.742628 521.95494 472.711673 
" clip-path="url(#p2e6fb0be6e)" style="fill: none; stroke: #404040; stroke-width: 1.033101; stroke-linejoin: miter; stroke-linecap: round"/>
    <path d="M 527.771107 469.958856 
L 521.95494 472.711673 
L 523.242387 466.407049 
z
" clip-path="url(#p2e6fb0be6e)" style="fill: #404040; stroke: #404040; stroke-width: 1.033101; stroke-linejoin: miter; stroke-linecap: round"/>
   </g>
   <g id="patch_10">
    <path d="M 620.098839 289.864722 
Q 577.726103 343.891938 537.199196 395.565638 
" clip-path="url(#p2e6fb0be6e)" style="fill: none; stroke: #404040; stroke-width: 2.675238; stroke-linejoin: miter; stroke-linecap: round"/>
    <path d="M 544.121679 392.289198 
L 537.199196 395.565638 
L 538.731533 388.061787 
z
" clip-path="url(#p2e6fb0be6e)" style="fill: #404040; stroke: #404040; stroke-width: 2.675238; stroke-linejoin: miter; stroke-linecap: round"/>
   </g>
   <g id="patch_11">
    <path d="M 574.838617 289.864722 
Q 541.951258 312.474732 510.450077 334.131747 
" clip-path="url(#p2e6fb0be6e)" style="fill: none; stroke: #404040; stroke-width: 1.504576; stroke-linejoin: miter; stroke-linecap: round"/>
    <path d="M 517.171115 333.193935 
L 510.450077 334.131747 
L 513.73245 328.19223 
z
" clip-path="url(#p2e6fb0be6e)" style="fill: #404040; stroke: #404040; stroke-width: 1.504576; stroke-linejoin: miter; stroke-linecap: round"/>
   </g>
   <g id="patch_12">
    <path d="M 370.224697 338.483996 
Q 334.976666 368.61176 302.547708 396.329959 
" clip-path="url(#p2e6fb0be6e)" style="fill: none; stroke: #404040; stroke-width: 3.317008; stroke-linejoin: miter; stroke-linecap: round"/>
    <path d="M 310.444547 394.367401 
L 302.547708 396.329959 
L 305.715765 388.834953 
z
" clip-path="url(#p2e6fb0be6e)" style="fill: #404040; stroke: #404040; stroke-width: 3.317008; stroke-linejoin: miter; stroke-linecap: round"/>
   </g>
   <g id="line2d_4">
    <path d="M 120.350555 402.637524 
L 120.350555 434.872696 
" clip-path="url(#p2e6fb0be6e)" style="fill: none; stroke: #111111; stroke-width: 2.617127"/>
   </g>
   <g id="line2d_5">
    <path d="M 120.350555 309.489263 
L 120.350555 350.447382 
" clip-path="url(#p2e6fb0be6e)" style="fill: none; stroke: #111111; stroke-width: 4.276012"/>
   </g>
   <g id="line2d_6">
    <path d="M 120.350555 203.444076 
L 120.350555 250.850658 
" clip-path="url(#p2e6fb0be6e)" style="fill: none; stroke: #111111; stroke-width: 5.8"/>
   </g>
   <g id="line2d_7">
    <path d="M 370.224697 241.652242 
L 370.224697 284.452108 
" clip-path="url(#p2e6fb0be6e)" style="fill: none; stroke: #111111; stroke-width: 2.221354"/>
   </g>
   <g id="line2d_8">
    <path d="M 370.224697 146.411528 
L 370.224697 188.415874 
" clip-path="url(#p2e6fb0be6e)" style="fill: none; stroke: #111111; stroke-width: 4.501375"/>
   </g>
   <g id="line2d_9">
    <path d="M 370.224697 89.791025 
L 370.224697 112.485266 
" clip-path="url(#p2e6fb0be6e)" style="fill: none; stroke: #111111; stroke-width: 2.041345"/>
   </g>
   <g id="line2d_10">
    <path d="M 586.153672 171.728019 
L 586.153672 225.180359 
" clip-path="url(#p2e6fb0be6e)" style="fill: none; stroke: #111111; stroke-width: 3.069629"/>
   </g>
   <g id="line2d_11">
    <path d="M 75.090333 478.33989 
L 165.610777 478.33989 
" clip-path="url(#p2e6fb0be6e)" style="fill: none; stroke: #111111; stroke-width: 3.6; stroke-linecap: round"/>
   </g>
   <g id="line2d_12">
    <path d="M 75.090333 402.637524 
L 165.610777 402.637524 
" clip-path="url(#p2e6fb0be6e)" style="fill: none; stroke: #111111; stroke-width: 3.6; stroke-linecap: round"/>
   </g>
   <g id="line2d_13">
    <path d="M 75.090333 309.489263 
L 165.610777 309.489263 
" clip-path="url(#p2e6fb0be6e)" style="fill: none; stroke: #111111; stroke-width: 3.6; stroke-linecap: round"/>
   </g>
   <g id="line2d_14">
    <path d="M 75.090333 203.444076 
L 165.610777 203.444076 
" clip-path="url(#p2e6fb0be6e)" style="fill: none; stroke: #111111; stroke-width: 3.6; stroke-linecap: round"/>
   </g>
   <g id="line2d_15">
    <path d="M 324.964475 338.483996 
L 415.484919 338.483996 
" clip-path="url(#p2e6fb0be6e)" style="fill: none; stroke: #111111; stroke-width: 3.6; stroke-linecap: round"/>
   </g>
   <g id="line2d_16">
    <path d="M 324.964475 241.652242 
L 415.484919 241.652242 
" clip-path="url(#p2e6fb0be6e)" style="fill: none; stroke: #111111; stroke-width: 3.6; stroke-linecap: round"/>
   </g>
   <g id="line2d_17">
    <path d="M 324.964475 146.411528 
L 415.484919 146.411528 
" clip-path="url(#p2e6fb0be6e)" style="fill: none; stroke: #111111; stroke-width: 3.6; stroke-linecap: round"/>
   </g>
   <g id="line2d_18">
    <path d="M 324.964475 89.791025 
L 415.484919 89.791025 
" clip-path="url(#p2e6fb0be6e)" style="fill: none; stroke: #111111; stroke-width: 3.6; stroke-linecap: round"/>
   </g>
   <g id="line2d_19">
    <path d="M 574.838617 289.864722 
L 665.359061 289.864722 
" clip-path="url(#p2e6fb0be6e)" style="fill: none; stroke: #111111; stroke-width: 3.6; stroke-linecap: round"/>
   </g>
   <g id="line2d_20">
    <path d="M 574.838617 171.728019 
L 665.359061 171.728019 
" clip-path="url(#p2e6fb0be6e)" style="fill: none; stroke: #111111; stroke-width: 3.6; stroke-linecap: round"/>
   </g>
   <g id="text_1">
    <!-- $^{276}\mathrm{Fm}$ -->
    <g transform="translate(322.772 33.034687) scale(0.34 -0.34)">
     <defs>
      <path id="DejaVuSans-32" d="M 1228 531 
L 3431 531 
L 3431 0 
L 469 0 
L 469 531 
Q 828 903 1448 1529 
Q 2069 2156 2228 2338 
Q 2531 2678 2651 2914 
Q 2772 3150 2772 3378 
Q 2772 3750 2511 3984 
Q 2250 4219 1831 4219 
Q 1534 4219 1204 4116 
Q 875 4013 500 3803 
L 500 4441 
Q 881 4594 1212 4672 
Q 1544 4750 1819 4750 
Q 2544 4750 2975 4387 
Q 3406 4025 3406 3419 
Q 3406 3131 3298 2873 
Q 3191 2616 2906 2266 
Q 2828 2175 2409 1742 
Q 1991 1309 1228 531 
z
" transform="scale(0.015625)"/>
      <path id="DejaVuSans-37" d="M 525 4666 
L 3525 4666 
L 3525 4397 
L 1831 0 
L 1172 0 
L 2766 4134 
L 525 4134 
L 525 4666 
z
" transform="scale(0.015625)"/>
      <path id="DejaVuSans-36" d="M 2113 2584 
Q 1688 2584 1439 2293 
Q 1191 2003 1191 1497 
Q 1191 994 1439 701 
Q 1688 409 2113 409 
Q 2538 409 2786 701 
Q 3034 994 3034 1497 
Q 3034 2003 2786 2293 
Q 2538 2584 2113 2584 
z
M 3366 4563 
L 3366 3988 
Q 3128 4100 2886 4159 
Q 2644 4219 2406 4219 
Q 1781 4219 1451 3797 
Q 1122 3375 1075 2522 
Q 1259 2794 1537 2939 
Q 1816 3084 2150 3084 
Q 2853 3084 3261 2657 
Q 3669 2231 3669 1497 
Q 3669 778 3244 343 
Q 2819 -91 2113 -91 
Q 1303 -91 875 529 
Q 447 1150 447 2328 
Q 447 3434 972 4092 
Q 1497 4750 2381 4750 
Q 2619 4750 2861 4703 
Q 3103 4656 3366 4563 
z
" transform="scale(0.015625)"/>
      <path id="DejaVuSans-46" d="M 628 4666 
L 3309 4666 
L 3309 4134 
L 1259 4134 
L 1259 2759 
L 3109 2759 
L 3109 2228 
L 1259 2228 
L 1259 0 
L 628 0 
L 628 4666 
z
" transform="scale(0.015625)"/>
      <path id="DejaVuSans-6d" d="M 3328 2828 
Q 3544 3216 3844 3400 
Q 4144 3584 4550 3584 
Q 5097 3584 5394 3201 
Q 5691 2819 5691 2113 
L 5691 0 
L 5113 0 
L 5113 2094 
Q 5113 2597 4934 2840 
Q 4756 3084 4391 3084 
Q 3944 3084 3684 2787 
Q 3425 2491 3425 1978 
L 3425 0 
L 2847 0 
L 2847 2094 
Q 2847 2600 2669 2842 
Q 2491 3084 2119 3084 
Q 1678 3084 1418 2786 
Q 1159 2488 1159 1978 
L 1159 0 
L 581 0 
L 581 3500 
L 1159 3500 
L 1159 2956 
Q 1356 3278 1631 3431 
Q 1906 3584 2284 3584 
Q 2666 3584 2933 3390 
Q 3200 3197 3328 2828 
z
" transform="scale(0.015625)"/>
     </defs>
     <use xlink:href="#DejaVuSans-32" transform="translate(0.957031 39.046875) scale(0.7)"/>
     <use xlink:href="#DejaVuSans-37" transform="translate(45.493164 39.046875) scale(0.7)"/>
     <use xlink:href="#DejaVuSans-36" transform="translate(90.029297 39.046875) scale(0.7)"/>
     <use xlink:href="#DejaVuSans-46" transform="translate(137.299805 0.765625)"/>
     <use xlink:href="#DejaVuSans-6d" transform="translate(194.819336 0.765625)"/>
    </g>
   </g>
   <g id="text_2">
    <!-- 0 -->
    <g transform="translate(46.98525 482.75489) scale(0.16 -0.16)">
     <defs>
      <path id="DejaVuSans-BoldOblique-30" d="M 1913 728 
Q 2153 728 2339 872 
Q 2525 1016 2650 1294 
Q 2738 1491 2809 1742 
Q 2881 1994 2944 2338 
Q 2997 2616 3025 2850 
Q 3053 3084 3053 3250 
Q 3053 3600 2928 3764 
Q 2803 3928 2541 3928 
Q 2297 3928 2112 3789 
Q 1928 3650 1806 3366 
Q 1713 3163 1636 2903 
Q 1559 2644 1503 2338 
Q 1450 2056 1422 1815 
Q 1394 1575 1394 1409 
Q 1394 1063 1522 895 
Q 1650 728 1913 728 
z
M 4225 3072 
Q 4225 2450 4053 1862 
Q 3881 1275 3572 831 
Q 3256 375 2809 142 
Q 2363 -91 1813 -91 
Q 1047 -91 639 343 
Q 231 778 231 1594 
Q 231 2206 401 2795 
Q 572 3384 878 3822 
Q 1200 4281 1644 4515 
Q 2088 4750 2644 4750 
Q 3403 4750 3814 4314 
Q 4225 3878 4225 3072 
z
" transform="scale(0.015625)"/>
     </defs>
     <use xlink:href="#DejaVuSans-BoldOblique-30"/>
    </g>
   </g>
   <g id="text_3">
    <!-- 0⁺ -->
    <g transform="translate(182.58336 483.495125) scale(0.23 -0.23)">
     <defs>
      <path id="TimesNewRomanPS-BoldMT-30" d="M 2966 2119 
Q 2966 1484 2788 934 
Q 2681 597 2501 381 
Q 2322 166 2094 39 
Q 1866 -88 1597 -88 
Q 1291 -88 1044 68 
Q 797 225 606 516 
Q 469 728 366 1081 
Q 231 1559 231 2069 
Q 231 2759 425 3338 
Q 584 3816 909 4070 
Q 1234 4325 1597 4325 
Q 1966 4325 2286 4073 
Q 2606 3822 2756 3397 
Q 2966 2813 2966 2119 
z
M 2003 2125 
Q 2003 3238 1991 3422 
Q 1959 3856 1841 4009 
Q 1763 4109 1588 4109 
Q 1453 4109 1375 4034 
Q 1259 3925 1218 3648 
Q 1178 3372 1178 1719 
Q 1178 819 1241 513 
Q 1288 291 1375 216 
Q 1463 141 1606 141 
Q 1763 141 1841 241 
Q 1972 416 1991 781 
L 2003 2125 
z
" transform="scale(0.015625)"/>
      <path id="DejaVuSerif-Bold-207a" d="M 1916 4344 
L 1916 3441 
L 2950 3441 
L 2950 3044 
L 1916 3044 
L 1916 2141 
L 1463 2141 
L 1463 3044 
L 428 3044 
L 428 3441 
L 1463 3441 
L 1463 4344 
L 1916 4344 
z
" transform="scale(0.015625)"/>
     </defs>
     <use xlink:href="#TimesNewRomanPS-BoldMT-30"/>
     <use xlink:href="#DejaVuSerif-Bold-207a" transform="translate(50 0)"/>
    </g>
   </g>
   <g id="text_4">
    <!-- 620 -->
    <g transform="translate(24.72025 407.052524) scale(0.16 -0.16)">
     <defs>
      <path id="DejaVuSans-BoldOblique-36" d="M 2316 2303 
Q 1959 2303 1731 2009 
Q 1503 1716 1503 1253 
Q 1503 975 1643 820 
Q 1784 666 2034 666 
Q 2388 666 2617 955 
Q 2847 1244 2847 1684 
Q 2847 1984 2709 2143 
Q 2572 2303 2316 2303 
z
M 4225 4544 
L 4056 3681 
Q 3788 3819 3534 3887 
Q 3281 3956 3028 3956 
Q 2447 3956 2087 3643 
Q 1728 3331 1650 2766 
Q 1894 2925 2151 3001 
Q 2409 3078 2700 3078 
Q 3275 3078 3640 2737 
Q 4006 2397 4006 1869 
Q 4006 1006 3442 454 
Q 2878 -97 1991 -97 
Q 1194 -97 756 354 
Q 319 806 319 1631 
Q 319 2269 512 2848 
Q 706 3428 1056 3847 
Q 1431 4294 1942 4519 
Q 2453 4744 3091 4744 
Q 3384 4744 3662 4694 
Q 3941 4644 4225 4544 
z
" transform="scale(0.015625)"/>
      <path id="DejaVuSans-BoldOblique-32" d="M 1581 884 
L 3609 884 
L 3438 0 
L 50 0 
L 225 891 
L 2209 2388 
Q 2534 2638 2704 2894 
Q 2875 3150 2875 3391 
Q 2875 3647 2700 3787 
Q 2525 3928 2209 3928 
Q 1913 3928 1547 3811 
Q 1181 3694 722 3450 
L 922 4441 
Q 1347 4597 1756 4673 
Q 2166 4750 2566 4750 
Q 3278 4750 3687 4442 
Q 4097 4134 4097 3603 
Q 4097 3147 3847 2772 
Q 3597 2397 2747 1759 
L 1581 884 
z
" transform="scale(0.015625)"/>
     </defs>
     <use xlink:href="#DejaVuSans-BoldOblique-36"/>
     <use xlink:href="#DejaVuSans-BoldOblique-32" transform="translate(69.580078 0)"/>
     <use xlink:href="#DejaVuSans-BoldOblique-30" transform="translate(139.160156 0)"/>
    </g>
   </g>
   <g id="text_5">
    <!-- 2⁺ -->
    <g transform="translate(182.58336 407.792758) scale(0.23 -0.23)">
     <defs>
      <path id="TimesNewRomanPS-BoldMT-32" d="M 2650 0 
L 156 0 
L 156 69 
Q 1303 1434 1548 1906 
Q 1794 2378 1794 2828 
Q 1794 3156 1591 3373 
Q 1388 3591 1094 3591 
Q 613 3591 347 3109 
L 231 3150 
Q 400 3750 744 4037 
Q 1088 4325 1538 4325 
Q 1859 4325 2125 4175 
Q 2391 4025 2541 3764 
Q 2691 3503 2691 3275 
Q 2691 2859 2459 2431 
Q 2144 1853 1081 819 
L 1997 819 
Q 2334 819 2436 847 
Q 2538 875 2603 942 
Q 2669 1009 2775 1225 
L 2888 1225 
L 2650 0 
z
" transform="scale(0.015625)"/>
     </defs>
     <use xlink:href="#TimesNewRomanPS-BoldMT-32"/>
     <use xlink:href="#DejaVuSerif-Bold-207a" transform="translate(50 0)"/>
    </g>
   </g>
   <g id="text_6">
    <!-- 1383 -->
    <g transform="translate(13.58775 313.904263) scale(0.16 -0.16)">
     <defs>
      <path id="DejaVuSans-BoldOblique-31" d="M 441 831 
L 1503 831 
L 2088 3847 
L 953 3622 
L 1113 4441 
L 2241 4666 
L 3384 4666 
L 2644 831 
L 3700 831 
L 3541 0 
L 275 0 
L 441 831 
z
" transform="scale(0.015625)"/>
      <path id="DejaVuSans-BoldOblique-33" d="M 3022 2516 
Q 3375 2434 3572 2187 
Q 3769 1941 3769 1581 
Q 3769 806 3155 357 
Q 2541 -91 1466 -91 
Q 1059 -91 692 -33 
Q 325 25 0 141 
L 178 1069 
Q 456 906 784 817 
Q 1113 728 1441 728 
Q 1969 728 2276 926 
Q 2584 1125 2584 1459 
Q 2584 1738 2350 1877 
Q 2116 2016 1644 2016 
L 1166 2016 
L 1319 2791 
L 1825 2791 
Q 2316 2791 2602 2969 
Q 2888 3147 2888 3450 
Q 2888 3688 2689 3813 
Q 2491 3938 2113 3938 
Q 1847 3938 1534 3869 
Q 1222 3800 884 3669 
L 1056 4550 
Q 1425 4650 1783 4700 
Q 2141 4750 2491 4750 
Q 3281 4750 3679 4487 
Q 4078 4225 4078 3706 
Q 4078 3241 3801 2930 
Q 3525 2619 3022 2516 
z
" transform="scale(0.015625)"/>
      <path id="DejaVuSans-BoldOblique-38" d="M 2150 2088 
Q 1784 2088 1539 1839 
Q 1294 1591 1294 1228 
Q 1294 969 1453 817 
Q 1613 666 1888 666 
Q 2259 666 2503 911 
Q 2747 1156 2747 1522 
Q 2747 1781 2586 1934 
Q 2425 2088 2150 2088 
z
M 1381 2484 
Q 1044 2625 876 2850 
Q 709 3075 709 3391 
Q 709 4025 1229 4387 
Q 1750 4750 2669 4750 
Q 3406 4750 3812 4475 
Q 4219 4200 4219 3700 
Q 4219 3256 3936 2940 
Q 3653 2625 3128 2484 
Q 3509 2338 3690 2091 
Q 3872 1844 3872 1466 
Q 3872 747 3311 328 
Q 2750 -91 1772 -91 
Q 1000 -91 570 217 
Q 141 525 141 1075 
Q 141 1572 470 1945 
Q 800 2319 1381 2484 
z
M 2559 3994 
Q 2241 3994 2048 3808 
Q 1856 3622 1856 3316 
Q 1856 3103 1995 2972 
Q 2134 2841 2363 2841 
Q 2681 2841 2873 3027 
Q 3066 3213 3066 3519 
Q 3066 3734 2927 3864 
Q 2788 3994 2559 3994 
z
" transform="scale(0.015625)"/>
     </defs>
     <use xlink:href="#DejaVuSans-BoldOblique-31"/>
     <use xlink:href="#DejaVuSans-BoldOblique-33" transform="translate(69.580078 0)"/>
     <use xlink:href="#DejaVuSans-BoldOblique-38" transform="translate(139.160156 0)"/>
     <use xlink:href="#DejaVuSans-BoldOblique-33" transform="translate(208.740234 0)"/>
    </g>
   </g>
   <g id="text_7">
    <!-- 4⁺ -->
    <g transform="translate(182.58336 314.644497) scale(0.23 -0.23)">
     <defs>
      <path id="TimesNewRomanPS-BoldMT-34" d="M 159 1597 
L 2172 4325 
L 2553 4325 
L 2553 1597 
L 2941 1597 
L 2941 950 
L 2553 950 
L 2553 0 
L 1694 0 
L 1694 950 
L 159 950 
L 159 1597 
z
M 463 1597 
L 1694 1597 
L 1694 3269 
L 463 1597 
z
" transform="scale(0.015625)"/>
     </defs>
     <use xlink:href="#TimesNewRomanPS-BoldMT-34"/>
     <use xlink:href="#DejaVuSerif-Bold-207a" transform="translate(50 0)"/>
    </g>
   </g>
   <g id="text_8">
    <!-- 2252 -->
    <g transform="translate(13.58775 207.859076) scale(0.16 -0.16)">
     <defs>
      <path id="DejaVuSans-BoldOblique-35" d="M 1131 4666 
L 4122 4666 
L 3950 3781 
L 1919 3781 
L 1778 3059 
Q 1916 3097 2064 3117 
Q 2213 3138 2363 3138 
Q 3078 3138 3481 2811 
Q 3884 2484 3884 1906 
Q 3884 988 3262 448 
Q 2641 -91 1575 -91 
Q 1184 -91 815 -14 
Q 447 63 84 219 
L 269 1166 
Q 616 941 942 834 
Q 1269 728 1606 728 
Q 2100 728 2397 986 
Q 2694 1244 2694 1663 
Q 2694 1963 2469 2139 
Q 2244 2316 1856 2316 
Q 1594 2316 1289 2248 
Q 984 2181 622 2041 
L 1131 4666 
z
" transform="scale(0.015625)"/>
     </defs>
     <use xlink:href="#DejaVuSans-BoldOblique-32"/>
     <use xlink:href="#DejaVuSans-BoldOblique-32" transform="translate(69.580078 0)"/>
     <use xlink:href="#DejaVuSans-BoldOblique-35" transform="translate(139.160156 0)"/>
     <use xlink:href="#DejaVuSans-BoldOblique-32" transform="translate(208.740234 0)"/>
    </g>
   </g>
   <g id="text_9">
    <!-- 6⁺ -->
    <g transform="translate(182.58336 208.59931) scale(0.23 -0.23)">
     <defs>
      <path id="TimesNewRomanPS-BoldMT-36" d="M 3006 4325 
L 3006 4238 
Q 2441 4094 2098 3867 
Q 1756 3641 1557 3317 
Q 1359 2994 1250 2516 
Q 1388 2609 1478 2638 
Q 1681 2700 1888 2700 
Q 2363 2700 2680 2354 
Q 2997 2009 2997 1413 
Q 2997 994 2825 644 
Q 2653 294 2337 103 
Q 2022 -88 1663 -88 
Q 1272 -88 940 126 
Q 609 341 423 753 
Q 238 1166 238 1650 
Q 238 2363 580 2977 
Q 922 3591 1551 3955 
Q 2181 4319 3006 4325 
z
M 1209 2263 
Q 1184 1831 1184 1631 
Q 1184 1200 1267 797 
Q 1350 394 1494 231 
Q 1597 116 1738 116 
Q 1881 116 1993 283 
Q 2106 450 2106 963 
Q 2106 1825 1897 2153 
Q 1763 2366 1534 2366 
Q 1409 2366 1209 2263 
z
" transform="scale(0.015625)"/>
     </defs>
     <use xlink:href="#TimesNewRomanPS-BoldMT-36"/>
     <use xlink:href="#DejaVuSerif-Bold-207a" transform="translate(50 0)"/>
    </g>
   </g>
   <g id="text_10">
    <!-- 1146 -->
    <g transform="translate(263.461892 342.898996) scale(0.16 -0.16)">
     <defs>
      <path id="DejaVuSans-BoldOblique-34" d="M 2638 3641 
L 978 1722 
L 2259 1722 
L 2638 3641 
z
M 2606 4666 
L 3975 4666 
L 3397 1722 
L 4063 1722 
L 3897 850 
L 3231 850 
L 3066 0 
L 1925 0 
L 2094 850 
L -6 850 
L 197 1881 
L 2606 4666 
z
" transform="scale(0.015625)"/>
     </defs>
     <use xlink:href="#DejaVuSans-BoldOblique-31"/>
     <use xlink:href="#DejaVuSans-BoldOblique-31" transform="translate(69.580078 0)"/>
     <use xlink:href="#DejaVuSans-BoldOblique-34" transform="translate(139.160156 0)"/>
     <use xlink:href="#DejaVuSans-BoldOblique-36" transform="translate(208.740234 0)"/>
    </g>
   </g>
   <g id="text_11">
    <!-- 0⁺ -->
    <g transform="translate(432.457502 343.639231) scale(0.23 -0.23)">
     <use xlink:href="#TimesNewRomanPS-BoldMT-30"/>
     <use xlink:href="#DejaVuSerif-Bold-207a" transform="translate(50 0)"/>
    </g>
   </g>
   <g id="text_12">
    <!-- 1939 -->
    <g transform="translate(263.461892 246.067242) scale(0.16 -0.16)">
     <defs>
      <path id="DejaVuSans-BoldOblique-39" d="M 263 103 
L 428 966 
Q 700 825 953 758 
Q 1206 691 1459 691 
Q 2041 691 2400 1003 
Q 2759 1316 2834 1881 
Q 2594 1722 2337 1645 
Q 2081 1569 1791 1569 
Q 1219 1569 853 1909 
Q 488 2250 488 2778 
Q 488 3641 1052 4192 
Q 1616 4744 2503 4744 
Q 3300 4744 3736 4292 
Q 4172 3841 4172 3016 
Q 4172 2381 3978 1801 
Q 3784 1222 3431 800 
Q 3056 353 2548 128 
Q 2041 -97 1403 -97 
Q 1106 -97 825 -47 
Q 544 3 263 103 
z
M 2169 2344 
Q 2525 2344 2753 2637 
Q 2981 2931 2981 3391 
Q 2981 3675 2845 3828 
Q 2709 3981 2456 3981 
Q 2103 3981 1870 3690 
Q 1638 3400 1638 2963 
Q 1638 2663 1775 2503 
Q 1913 2344 2169 2344 
z
" transform="scale(0.015625)"/>
     </defs>
     <use xlink:href="#DejaVuSans-BoldOblique-31"/>
     <use xlink:href="#DejaVuSans-BoldOblique-39" transform="translate(69.580078 0)"/>
     <use xlink:href="#DejaVuSans-BoldOblique-33" transform="translate(139.160156 0)"/>
     <use xlink:href="#DejaVuSans-BoldOblique-39" transform="translate(208.740234 0)"/>
    </g>
   </g>
   <g id="text_13">
    <!-- 2⁺ -->
    <g transform="translate(432.457502 246.807476) scale(0.23 -0.23)">
     <use xlink:href="#TimesNewRomanPS-BoldMT-32"/>
     <use xlink:href="#DejaVuSerif-Bold-207a" transform="translate(50 0)"/>
    </g>
   </g>
   <g id="text_14">
    <!-- 2719 -->
    <g transform="translate(263.461892 150.826528) scale(0.16 -0.16)">
     <defs>
      <path id="DejaVuSans-BoldOblique-37" d="M 922 4666 
L 4441 4666 
L 4300 3981 
L 1703 0 
L 500 0 
L 2969 3781 
L 756 3781 
L 922 4666 
z
" transform="scale(0.015625)"/>
     </defs>
     <use xlink:href="#DejaVuSans-BoldOblique-32"/>
     <use xlink:href="#DejaVuSans-BoldOblique-37" transform="translate(69.580078 0)"/>
     <use xlink:href="#DejaVuSans-BoldOblique-31" transform="translate(139.160156 0)"/>
     <use xlink:href="#DejaVuSans-BoldOblique-39" transform="translate(208.740234 0)"/>
    </g>
   </g>
   <g id="text_15">
    <!-- 4⁺ -->
    <g transform="translate(432.457502 151.566763) scale(0.23 -0.23)">
     <use xlink:href="#TimesNewRomanPS-BoldMT-34"/>
     <use xlink:href="#DejaVuSerif-Bold-207a" transform="translate(50 0)"/>
    </g>
   </g>
   <g id="text_16">
    <!-- 3183 -->
    <g transform="translate(263.461892 94.206025) scale(0.16 -0.16)">
     <use xlink:href="#DejaVuSans-BoldOblique-33"/>
     <use xlink:href="#DejaVuSans-BoldOblique-31" transform="translate(69.580078 0)"/>
     <use xlink:href="#DejaVuSans-BoldOblique-38" transform="translate(139.160156 0)"/>
     <use xlink:href="#DejaVuSans-BoldOblique-33" transform="translate(208.740234 0)"/>
    </g>
   </g>
   <g id="text_17">
    <!-- 6⁺ -->
    <g transform="translate(432.457502 94.94626) scale(0.23 -0.23)">
     <use xlink:href="#TimesNewRomanPS-BoldMT-36"/>
     <use xlink:href="#DejaVuSerif-Bold-207a" transform="translate(50 0)"/>
    </g>
   </g>
   <g id="text_18">
    <!-- 1544 -->
    <g transform="translate(513.336034 294.279722) scale(0.16 -0.16)">
     <use xlink:href="#DejaVuSans-BoldOblique-31"/>
     <use xlink:href="#DejaVuSans-BoldOblique-35" transform="translate(69.580078 0)"/>
     <use xlink:href="#DejaVuSans-BoldOblique-34" transform="translate(139.160156 0)"/>
     <use xlink:href="#DejaVuSans-BoldOblique-34" transform="translate(208.740234 0)"/>
    </g>
   </g>
   <g id="text_19">
    <!-- 2⁺ -->
    <g transform="translate(682.331644 295.019956) scale(0.23 -0.23)">
     <use xlink:href="#TimesNewRomanPS-BoldMT-32"/>
     <use xlink:href="#DejaVuSerif-Bold-207a" transform="translate(50 0)"/>
    </g>
   </g>
   <g id="text_20">
    <!-- 2511 -->
    <g transform="translate(513.336034 176.143019) scale(0.16 -0.16)">
     <use xlink:href="#DejaVuSans-BoldOblique-32"/>
     <use xlink:href="#DejaVuSans-BoldOblique-35" transform="translate(69.580078 0)"/>
     <use xlink:href="#DejaVuSans-BoldOblique-31" transform="translate(139.160156 0)"/>
     <use xlink:href="#DejaVuSans-BoldOblique-31" transform="translate(208.740234 0)"/>
    </g>
   </g>
   <g id="text_21">
    <!-- 3⁺ -->
    <g transform="translate(682.331644 176.883253) scale(0.23 -0.23)">
     <defs>
      <path id="TimesNewRomanPS-BoldMT-33" d="M 947 2125 
L 947 2234 
Q 1303 2338 1440 2427 
Q 1578 2516 1678 2698 
Q 1778 2881 1778 3069 
Q 1778 3328 1589 3514 
Q 1400 3700 1119 3700 
Q 681 3700 375 3238 
L 259 3278 
Q 484 3800 836 4062 
Q 1188 4325 1619 4325 
Q 2059 4325 2345 4056 
Q 2631 3788 2631 3428 
Q 2631 3194 2498 2976 
Q 2366 2759 2081 2594 
Q 2447 2416 2639 2155 
Q 2831 1894 2831 1500 
Q 2831 838 2351 373 
Q 1872 -91 1066 -91 
Q 528 -91 281 88 
Q 103 213 103 409 
Q 103 553 206 654 
Q 309 756 444 756 
Q 547 756 638 713 
Q 688 688 992 439 
Q 1297 191 1563 191 
Q 1794 191 1959 373 
Q 2125 556 2125 838 
Q 2125 1266 1825 1627 
Q 1525 1988 947 2125 
z
" transform="scale(0.015625)"/>
     </defs>
     <use xlink:href="#TimesNewRomanPS-BoldMT-33"/>
     <use xlink:href="#DejaVuSerif-Bold-207a" transform="translate(50 0)"/>
    </g>
   </g>
   <g id="text_22">
    <path d="M 108.718055 438.762457 
L 108.718055 438.489957 
Q 109.608055 438.229957 109.950555 438.007457 
Q 110.295555 437.784957 110.545555 437.329957 
Q 110.795555 436.872457 110.795555 436.402457 
Q 110.795555 435.754957 110.323055 435.289957 
Q 109.850555 434.824957 109.148055 434.824957 
Q 108.053055 434.824957 107.288055 435.979957 
L 106.998055 435.879957 
Q 107.560555 434.574957 108.440555 433.919957 
Q 109.320555 433.262457 110.398055 433.262457 
Q 111.498055 433.262457 112.213055 433.934957 
Q 112.928055 434.604957 112.928055 435.504957 
Q 112.928055 436.089957 112.595555 436.634957 
Q 112.265555 437.177457 111.553055 437.589957 
Q 112.468055 438.034957 112.948055 438.687457 
Q 113.428055 439.339957 113.428055 440.324957 
Q 113.428055 441.979957 112.228055 443.142457 
Q 111.030555 444.302457 109.015555 444.302457 
Q 107.670555 444.302457 107.053055 443.854957 
Q 106.608055 443.542457 106.608055 443.052457 
Q 106.608055 442.692457 106.865555 442.439957 
Q 107.123055 442.184957 107.460555 442.184957 
Q 107.718055 442.184957 107.945555 442.292457 
Q 108.070555 442.354957 108.830555 442.977457 
Q 109.593055 443.597457 110.258055 443.597457 
Q 110.835555 443.597457 111.248055 443.142457 
Q 111.663055 442.684957 111.663055 441.979957 
Q 111.663055 440.909957 110.913055 440.007457 
Q 110.163055 439.104957 108.718055 438.762457 
z
M 117.185555 444.294957 
L 120.070555 435.552457 
L 117.873055 435.552457 
Q 116.585555 435.552457 115.935555 435.887457 
Q 115.483055 436.122457 115.185555 436.769957 
L 114.890555 436.769957 
L 115.655555 433.479957 
L 121.968055 433.479957 
L 118.413055 444.294957 
L 117.185555 444.294957 
z
M 124.350555 441.667457 
Q 124.898055 441.667457 125.275555 442.052457 
Q 125.655555 442.434957 125.655555 442.972457 
Q 125.655555 443.512457 125.273055 443.892457 
Q 124.890555 444.269957 124.350555 444.269957 
Q 123.810555 444.269957 123.430555 443.892457 
Q 123.053055 443.512457 123.053055 442.972457 
Q 123.053055 442.434957 123.430555 442.052457 
Q 123.810555 441.667457 124.350555 441.667457 
z
M 131.560555 433.262457 
L 131.560555 441.927457 
Q 131.560555 442.902457 131.645555 443.172457 
Q 131.733055 443.442457 132.005555 443.614957 
Q 132.280555 443.784957 132.883055 443.784957 
L 133.123055 443.784957 
L 133.123055 444.074957 
L 127.545555 444.074957 
L 127.545555 443.784957 
L 127.828055 443.784957 
Q 128.508055 443.784957 128.795555 443.629957 
Q 129.085555 443.472457 129.185555 443.199957 
Q 129.288055 442.927457 129.288055 441.927457 
L 129.288055 436.434957 
Q 129.288055 435.699957 129.218055 435.517457 
Q 129.148055 435.332457 128.955555 435.204957 
Q 128.765555 435.074957 128.515555 435.074957 
Q 128.115555 435.074957 127.545555 435.324957 
L 127.405555 435.042457 
L 131.303055 433.262457 
L 131.560555 433.262457 
z
" style="stroke: #ffffff; stroke-width: 3.8"/>
    <path d="M 108.718055 438.762457 
L 108.718055 438.489957 
Q 109.608055 438.229957 109.950555 438.007457 
Q 110.295555 437.784957 110.545555 437.329957 
Q 110.795555 436.872457 110.795555 436.402457 
Q 110.795555 435.754957 110.323055 435.289957 
Q 109.850555 434.824957 109.148055 434.824957 
Q 108.053055 434.824957 107.288055 435.979957 
L 106.998055 435.879957 
Q 107.560555 434.574957 108.440555 433.919957 
Q 109.320555 433.262457 110.398055 433.262457 
Q 111.498055 433.262457 112.213055 433.934957 
Q 112.928055 434.604957 112.928055 435.504957 
Q 112.928055 436.089957 112.595555 436.634957 
Q 112.265555 437.177457 111.553055 437.589957 
Q 112.468055 438.034957 112.948055 438.687457 
Q 113.428055 439.339957 113.428055 440.324957 
Q 113.428055 441.979957 112.228055 443.142457 
Q 111.030555 444.302457 109.015555 444.302457 
Q 107.670555 444.302457 107.053055 443.854957 
Q 106.608055 443.542457 106.608055 443.052457 
Q 106.608055 442.692457 106.865555 442.439957 
Q 107.123055 442.184957 107.460555 442.184957 
Q 107.718055 442.184957 107.945555 442.292457 
Q 108.070555 442.354957 108.830555 442.977457 
Q 109.593055 443.597457 110.258055 443.597457 
Q 110.835555 443.597457 111.248055 443.142457 
Q 111.663055 442.684957 111.663055 441.979957 
Q 111.663055 440.909957 110.913055 440.007457 
Q 110.163055 439.104957 108.718055 438.762457 
z
M 117.185555 444.294957 
L 120.070555 435.552457 
L 117.873055 435.552457 
Q 116.585555 435.552457 115.935555 435.887457 
Q 115.483055 436.122457 115.185555 436.769957 
L 114.890555 436.769957 
L 115.655555 433.479957 
L 121.968055 433.479957 
L 118.413055 444.294957 
L 117.185555 444.294957 
z
M 124.350555 441.667457 
Q 124.898055 441.667457 125.275555 442.052457 
Q 125.655555 442.434957 125.655555 442.972457 
Q 125.655555 443.512457 125.273055 443.892457 
Q 124.890555 444.269957 124.350555 444.269957 
Q 123.810555 444.269957 123.430555 443.892457 
Q 123.053055 443.512457 123.053055 442.972457 
Q 123.053055 442.434957 123.430555 442.052457 
Q 123.810555 441.667457 124.350555 441.667457 
z
M 131.560555 433.262457 
L 131.560555 441.927457 
Q 131.560555 442.902457 131.645555 443.172457 
Q 131.733055 443.442457 132.005555 443.614957 
Q 132.280555 443.784957 132.883055 443.784957 
L 133.123055 443.784957 
L 133.123055 444.074957 
L 127.545555 444.074957 
L 127.545555 443.784957 
L 127.828055 443.784957 
Q 128.508055 443.784957 128.795555 443.629957 
Q 129.085555 443.472457 129.185555 443.199957 
Q 129.288055 442.927457 129.288055 441.927457 
L 129.288055 436.434957 
Q 129.288055 435.699957 129.218055 435.517457 
Q 129.148055 435.332457 128.955555 435.204957 
Q 128.765555 435.074957 128.515555 435.074957 
Q 128.115555 435.074957 127.545555 435.324957 
L 127.405555 435.042457 
L 131.303055 433.262457 
L 131.560555 433.262457 
z
"/>
   </g>
   <g id="text_23">
    <path d="M 109.185555 359.869643 
L 112.070555 351.127143 
L 109.873055 351.127143 
Q 108.585555 351.127143 107.935555 351.462143 
Q 107.483055 351.697143 107.185555 352.344643 
L 106.890555 352.344643 
L 107.655555 349.054643 
L 113.968055 349.054643 
L 110.413055 359.869643 
L 109.185555 359.869643 
z
M 119.560555 348.837143 
L 119.560555 357.502143 
Q 119.560555 358.477143 119.645555 358.747143 
Q 119.733055 359.017143 120.005555 359.189643 
Q 120.280555 359.359643 120.883055 359.359643 
L 121.123055 359.359643 
L 121.123055 359.649643 
L 115.545555 359.649643 
L 115.545555 359.359643 
L 115.828055 359.359643 
Q 116.508055 359.359643 116.795555 359.204643 
Q 117.085555 359.047143 117.185555 358.774643 
Q 117.288055 358.502143 117.288055 357.502143 
L 117.288055 352.009643 
Q 117.288055 351.274643 117.218055 351.092143 
Q 117.148055 350.907143 116.955555 350.779643 
Q 116.765555 350.649643 116.515555 350.649643 
Q 116.115555 350.649643 115.545555 350.899643 
L 115.405555 350.617143 
L 119.303055 348.837143 
L 119.560555 348.837143 
z
M 124.350555 357.242143 
Q 124.898055 357.242143 125.275555 357.627143 
Q 125.655555 358.009643 125.655555 358.547143 
Q 125.655555 359.087143 125.273055 359.467143 
Q 124.890555 359.844643 124.350555 359.844643 
Q 123.810555 359.844643 123.430555 359.467143 
Q 123.053055 359.087143 123.053055 358.547143 
Q 123.053055 358.009643 123.430555 357.627143 
Q 123.810555 357.242143 124.350555 357.242143 
z
M 133.765555 354.352143 
Q 133.765555 355.939643 133.320555 357.314643 
Q 133.053055 358.157143 132.603055 358.697143 
Q 132.155555 359.234643 131.585555 359.552143 
Q 131.015555 359.869643 130.343055 359.869643 
Q 129.578055 359.869643 128.960555 359.479643 
Q 128.343055 359.087143 127.865555 358.359643 
Q 127.523055 357.829643 127.265555 356.947143 
Q 126.928055 355.752143 126.928055 354.477143 
Q 126.928055 352.752143 127.413055 351.304643 
Q 127.810555 350.109643 128.623055 349.474643 
Q 129.435555 348.837143 130.343055 348.837143 
Q 131.265555 348.837143 132.065555 349.467143 
Q 132.865555 350.094643 133.240555 351.157143 
Q 133.765555 352.617143 133.765555 354.352143 
z
M 131.358055 354.337143 
Q 131.358055 351.554643 131.328055 351.094643 
Q 131.248055 350.009643 130.953055 349.627143 
Q 130.758055 349.377143 130.320555 349.377143 
Q 129.983055 349.377143 129.788055 349.564643 
Q 129.498055 349.837143 129.395555 350.529643 
Q 129.295555 351.219643 129.295555 355.352143 
Q 129.295555 357.602143 129.453055 358.367143 
Q 129.570555 358.922143 129.788055 359.109643 
Q 130.008055 359.297143 130.365555 359.297143 
Q 130.758055 359.297143 130.953055 359.047143 
Q 131.280555 358.609643 131.328055 357.697143 
L 131.358055 354.337143 
z
" style="stroke: #ffffff; stroke-width: 3.8"/>
    <path d="M 109.185555 359.869643 
L 112.070555 351.127143 
L 109.873055 351.127143 
Q 108.585555 351.127143 107.935555 351.462143 
Q 107.483055 351.697143 107.185555 352.344643 
L 106.890555 352.344643 
L 107.655555 349.054643 
L 113.968055 349.054643 
L 110.413055 359.869643 
L 109.185555 359.869643 
z
M 119.560555 348.837143 
L 119.560555 357.502143 
Q 119.560555 358.477143 119.645555 358.747143 
Q 119.733055 359.017143 120.005555 359.189643 
Q 120.280555 359.359643 120.883055 359.359643 
L 121.123055 359.359643 
L 121.123055 359.649643 
L 115.545555 359.649643 
L 115.545555 359.359643 
L 115.828055 359.359643 
Q 116.508055 359.359643 116.795555 359.204643 
Q 117.085555 359.047143 117.185555 358.774643 
Q 117.288055 358.502143 117.288055 357.502143 
L 117.288055 352.009643 
Q 117.288055 351.274643 117.218055 351.092143 
Q 117.148055 350.907143 116.955555 350.779643 
Q 116.765555 350.649643 116.515555 350.649643 
Q 116.115555 350.649643 115.545555 350.899643 
L 115.405555 350.617143 
L 119.303055 348.837143 
L 119.560555 348.837143 
z
M 124.350555 357.242143 
Q 124.898055 357.242143 125.275555 357.627143 
Q 125.655555 358.009643 125.655555 358.547143 
Q 125.655555 359.087143 125.273055 359.467143 
Q 124.890555 359.844643 124.350555 359.844643 
Q 123.810555 359.844643 123.430555 359.467143 
Q 123.053055 359.087143 123.053055 358.547143 
Q 123.053055 358.009643 123.430555 357.627143 
Q 123.810555 357.242143 124.350555 357.242143 
z
M 133.765555 354.352143 
Q 133.765555 355.939643 133.320555 357.314643 
Q 133.053055 358.157143 132.603055 358.697143 
Q 132.155555 359.234643 131.585555 359.552143 
Q 131.015555 359.869643 130.343055 359.869643 
Q 129.578055 359.869643 128.960555 359.479643 
Q 128.343055 359.087143 127.865555 358.359643 
Q 127.523055 357.829643 127.265555 356.947143 
Q 126.928055 355.752143 126.928055 354.477143 
Q 126.928055 352.752143 127.413055 351.304643 
Q 127.810555 350.109643 128.623055 349.474643 
Q 129.435555 348.837143 130.343055 348.837143 
Q 131.265555 348.837143 132.065555 349.467143 
Q 132.865555 350.094643 133.240555 351.157143 
Q 133.765555 352.617143 133.765555 354.352143 
z
M 131.358055 354.337143 
Q 131.358055 351.554643 131.328055 351.094643 
Q 131.248055 350.009643 130.953055 349.627143 
Q 130.758055 349.377143 130.320555 349.377143 
Q 129.983055 349.377143 129.788055 349.564643 
Q 129.498055 349.837143 129.395555 350.529643 
Q 129.295555 351.219643 129.295555 355.352143 
Q 129.295555 357.602143 129.453055 358.367143 
Q 129.570555 358.922143 129.788055 359.109643 
Q 130.008055 359.297143 130.365555 359.297143 
Q 130.758055 359.297143 130.953055 359.047143 
Q 131.280555 358.609643 131.328055 357.697143 
L 131.358055 354.337143 
z
"/>
   </g>
   <g id="text_24">
    <path d="M 107.560555 249.240419 
L 107.560555 257.905419 
Q 107.560555 258.880419 107.645555 259.150419 
Q 107.733055 259.420419 108.005555 259.592919 
Q 108.280555 259.762919 108.883055 259.762919 
L 109.123055 259.762919 
L 109.123055 260.052919 
L 103.545555 260.052919 
L 103.545555 259.762919 
L 103.828055 259.762919 
Q 104.508055 259.762919 104.795555 259.607919 
Q 105.085555 259.450419 105.185555 259.177919 
Q 105.288055 258.905419 105.288055 257.905419 
L 105.288055 252.412919 
Q 105.288055 251.677919 105.218055 251.495419 
Q 105.148055 251.310419 104.955555 251.182919 
Q 104.765555 251.052919 104.515555 251.052919 
Q 104.115555 251.052919 103.545555 251.302919 
L 103.405555 251.020419 
L 107.303055 249.240419 
L 107.560555 249.240419 
z
M 117.765555 254.755419 
Q 117.765555 256.342919 117.320555 257.717919 
Q 117.053055 258.560419 116.603055 259.100419 
Q 116.155555 259.637919 115.585555 259.955419 
Q 115.015555 260.272919 114.343055 260.272919 
Q 113.578055 260.272919 112.960555 259.882919 
Q 112.343055 259.490419 111.865555 258.762919 
Q 111.523055 258.232919 111.265555 257.350419 
Q 110.928055 256.155419 110.928055 254.880419 
Q 110.928055 253.155419 111.413055 251.707919 
Q 111.810555 250.512919 112.623055 249.877919 
Q 113.435555 249.240419 114.343055 249.240419 
Q 115.265555 249.240419 116.065555 249.870419 
Q 116.865555 250.497919 117.240555 251.560419 
Q 117.765555 253.020419 117.765555 254.755419 
z
M 115.358055 254.740419 
Q 115.358055 251.957919 115.328055 251.497919 
Q 115.248055 250.412919 114.953055 250.030419 
Q 114.758055 249.780419 114.320555 249.780419 
Q 113.983055 249.780419 113.788055 249.967919 
Q 113.498055 250.240419 113.395555 250.932919 
Q 113.295555 251.622919 113.295555 255.755419 
Q 113.295555 258.005419 113.453055 258.770419 
Q 113.570555 259.325419 113.788055 259.512919 
Q 114.008055 259.700419 114.365555 259.700419 
Q 114.758055 259.700419 114.953055 259.450419 
Q 115.280555 259.012919 115.328055 258.100419 
L 115.358055 254.740419 
z
M 124.975555 260.052919 
L 118.740555 260.052919 
L 118.740555 259.880419 
Q 121.608055 256.467919 122.220555 255.287919 
Q 122.835555 254.107919 122.835555 252.982919 
Q 122.835555 252.162919 122.328055 251.620419 
Q 121.820555 251.075419 121.085555 251.075419 
Q 119.883055 251.075419 119.218055 252.280419 
L 118.928055 252.177919 
Q 119.350555 250.677919 120.210555 249.960419 
Q 121.070555 249.240419 122.195555 249.240419 
Q 122.998055 249.240419 123.663055 249.615419 
Q 124.328055 249.990419 124.703055 250.642919 
Q 125.078055 251.295419 125.078055 251.865419 
Q 125.078055 252.905419 124.498055 253.975419 
Q 123.710555 255.420419 121.053055 258.005419 
L 123.343055 258.005419 
Q 124.185555 258.005419 124.440555 257.935419 
Q 124.695555 257.865419 124.858055 257.697919 
Q 125.023055 257.530419 125.288055 256.990419 
L 125.570555 256.990419 
L 124.975555 260.052919 
z
M 128.350555 257.645419 
Q 128.898055 257.645419 129.275555 258.030419 
Q 129.655555 258.412919 129.655555 258.950419 
Q 129.655555 259.490419 129.273055 259.870419 
Q 128.890555 260.247919 128.350555 260.247919 
Q 127.810555 260.247919 127.430555 259.870419 
Q 127.053055 259.490419 127.053055 258.950419 
Q 127.053055 258.412919 127.430555 258.030419 
Q 127.810555 257.645419 128.350555 257.645419 
z
M 135.560555 249.240419 
L 135.560555 257.905419 
Q 135.560555 258.880419 135.645555 259.150419 
Q 135.733055 259.420419 136.005555 259.592919 
Q 136.280555 259.762919 136.883055 259.762919 
L 137.123055 259.762919 
L 137.123055 260.052919 
L 131.545555 260.052919 
L 131.545555 259.762919 
L 131.828055 259.762919 
Q 132.508055 259.762919 132.795555 259.607919 
Q 133.085555 259.450419 133.185555 259.177919 
Q 133.288055 258.905419 133.288055 257.905419 
L 133.288055 252.412919 
Q 133.288055 251.677919 133.218055 251.495419 
Q 133.148055 251.310419 132.955555 251.182919 
Q 132.765555 251.052919 132.515555 251.052919 
Q 132.115555 251.052919 131.545555 251.302919 
L 131.405555 251.020419 
L 135.303055 249.240419 
L 135.560555 249.240419 
z
" style="stroke: #ffffff; stroke-width: 3.8"/>
    <path d="M 107.560555 249.240419 
L 107.560555 257.905419 
Q 107.560555 258.880419 107.645555 259.150419 
Q 107.733055 259.420419 108.005555 259.592919 
Q 108.280555 259.762919 108.883055 259.762919 
L 109.123055 259.762919 
L 109.123055 260.052919 
L 103.545555 260.052919 
L 103.545555 259.762919 
L 103.828055 259.762919 
Q 104.508055 259.762919 104.795555 259.607919 
Q 105.085555 259.450419 105.185555 259.177919 
Q 105.288055 258.905419 105.288055 257.905419 
L 105.288055 252.412919 
Q 105.288055 251.677919 105.218055 251.495419 
Q 105.148055 251.310419 104.955555 251.182919 
Q 104.765555 251.052919 104.515555 251.052919 
Q 104.115555 251.052919 103.545555 251.302919 
L 103.405555 251.020419 
L 107.303055 249.240419 
L 107.560555 249.240419 
z
M 117.765555 254.755419 
Q 117.765555 256.342919 117.320555 257.717919 
Q 117.053055 258.560419 116.603055 259.100419 
Q 116.155555 259.637919 115.585555 259.955419 
Q 115.015555 260.272919 114.343055 260.272919 
Q 113.578055 260.272919 112.960555 259.882919 
Q 112.343055 259.490419 111.865555 258.762919 
Q 111.523055 258.232919 111.265555 257.350419 
Q 110.928055 256.155419 110.928055 254.880419 
Q 110.928055 253.155419 111.413055 251.707919 
Q 111.810555 250.512919 112.623055 249.877919 
Q 113.435555 249.240419 114.343055 249.240419 
Q 115.265555 249.240419 116.065555 249.870419 
Q 116.865555 250.497919 117.240555 251.560419 
Q 117.765555 253.020419 117.765555 254.755419 
z
M 115.358055 254.740419 
Q 115.358055 251.957919 115.328055 251.497919 
Q 115.248055 250.412919 114.953055 250.030419 
Q 114.758055 249.780419 114.320555 249.780419 
Q 113.983055 249.780419 113.788055 249.967919 
Q 113.498055 250.240419 113.395555 250.932919 
Q 113.295555 251.622919 113.295555 255.755419 
Q 113.295555 258.005419 113.453055 258.770419 
Q 113.570555 259.325419 113.788055 259.512919 
Q 114.008055 259.700419 114.365555 259.700419 
Q 114.758055 259.700419 114.953055 259.450419 
Q 115.280555 259.012919 115.328055 258.100419 
L 115.358055 254.740419 
z
M 124.975555 260.052919 
L 118.740555 260.052919 
L 118.740555 259.880419 
Q 121.608055 256.467919 122.220555 255.287919 
Q 122.835555 254.107919 122.835555 252.982919 
Q 122.835555 252.162919 122.328055 251.620419 
Q 121.820555 251.075419 121.085555 251.075419 
Q 119.883055 251.075419 119.218055 252.280419 
L 118.928055 252.177919 
Q 119.350555 250.677919 120.210555 249.960419 
Q 121.070555 249.240419 122.195555 249.240419 
Q 122.998055 249.240419 123.663055 249.615419 
Q 124.328055 249.990419 124.703055 250.642919 
Q 125.078055 251.295419 125.078055 251.865419 
Q 125.078055 252.905419 124.498055 253.975419 
Q 123.710555 255.420419 121.053055 258.005419 
L 123.343055 258.005419 
Q 124.185555 258.005419 124.440555 257.935419 
Q 124.695555 257.865419 124.858055 257.697919 
Q 125.023055 257.530419 125.288055 256.990419 
L 125.570555 256.990419 
L 124.975555 260.052919 
z
M 128.350555 257.645419 
Q 128.898055 257.645419 129.275555 258.030419 
Q 129.655555 258.412919 129.655555 258.950419 
Q 129.655555 259.490419 129.273055 259.870419 
Q 128.890555 260.247919 128.350555 260.247919 
Q 127.810555 260.247919 127.430555 259.870419 
Q 127.053055 259.490419 127.053055 258.950419 
Q 127.053055 258.412919 127.430555 258.030419 
Q 127.810555 257.645419 128.350555 257.645419 
z
M 135.560555 249.240419 
L 135.560555 257.905419 
Q 135.560555 258.880419 135.645555 259.150419 
Q 135.733055 259.420419 136.005555 259.592919 
Q 136.280555 259.762919 136.883055 259.762919 
L 137.123055 259.762919 
L 137.123055 260.052919 
L 131.545555 260.052919 
L 131.545555 259.762919 
L 131.828055 259.762919 
Q 132.508055 259.762919 132.795555 259.607919 
Q 133.085555 259.450419 133.185555 259.177919 
Q 133.288055 258.905419 133.288055 257.905419 
L 133.288055 252.412919 
Q 133.288055 251.677919 133.218055 251.495419 
Q 133.148055 251.310419 132.955555 251.182919 
Q 132.765555 251.052919 132.515555 251.052919 
Q 132.115555 251.052919 131.545555 251.302919 
L 131.405555 251.020419 
L 135.303055 249.240419 
L 135.560555 249.240419 
z
"/>
   </g>
   <g id="text_25">
    <path d="M 362.849697 293.654369 
L 356.614697 293.654369 
L 356.614697 293.481869 
Q 359.482197 290.069369 360.094697 288.889369 
Q 360.709697 287.709369 360.709697 286.584369 
Q 360.709697 285.764369 360.202197 285.221869 
Q 359.694697 284.676869 358.959697 284.676869 
Q 357.757197 284.676869 357.092197 285.881869 
L 356.802197 285.779369 
Q 357.224697 284.279369 358.084697 283.561869 
Q 358.944697 282.841869 360.069697 282.841869 
Q 360.872197 282.841869 361.537197 283.216869 
Q 362.202197 283.591869 362.577197 284.244369 
Q 362.952197 284.896869 362.952197 285.466869 
Q 362.952197 286.506869 362.372197 287.576869 
Q 361.584697 289.021869 358.927197 291.606869 
L 361.217197 291.606869 
Q 362.059697 291.606869 362.314697 291.536869 
Q 362.569697 291.466869 362.732197 291.299369 
Q 362.897197 291.131869 363.162197 290.591869 
L 363.444697 290.591869 
L 362.849697 293.654369 
z
M 364.717197 293.874369 
L 364.717197 293.654369 
Q 366.014697 293.356869 366.917197 292.779369 
Q 367.819697 292.201869 368.344697 291.349369 
Q 368.872197 290.496869 369.084697 289.389369 
Q 368.599697 289.639369 368.259697 289.736869 
Q 367.919697 289.834369 367.544697 289.834369 
Q 366.342197 289.834369 365.539697 288.966869 
Q 364.739697 288.099369 364.739697 286.591869 
Q 364.739697 285.544369 365.172197 284.674369 
Q 365.607197 283.801869 366.412197 283.321869 
Q 367.217197 282.841869 368.084697 282.841869 
Q 369.014697 282.841869 369.842197 283.374369 
Q 370.669697 283.904369 371.162197 284.911869 
Q 371.654697 285.919369 371.654697 287.209369 
Q 371.654697 288.881869 370.852197 290.414369 
Q 370.052197 291.944369 368.467197 292.869369 
Q 366.882197 293.794369 364.717197 293.874369 
z
M 369.202197 288.731869 
Q 369.279697 287.856869 369.279697 287.194369 
Q 369.279697 285.771869 368.952197 284.544369 
Q 368.764697 283.864369 368.397197 283.544369 
Q 368.202197 283.371869 367.889697 283.371869 
Q 367.497197 283.371869 367.279697 283.709369 
Q 366.974697 284.169369 366.974697 285.466869 
Q 366.974697 287.631869 367.489697 288.451869 
Q 367.827197 288.981869 368.397197 288.981869 
Q 368.702197 288.981869 369.202197 288.731869 
z
M 374.224697 291.246869 
Q 374.772197 291.246869 375.149697 291.631869 
Q 375.529697 292.014369 375.529697 292.551869 
Q 375.529697 293.091869 375.147197 293.471869 
Q 374.764697 293.849369 374.224697 293.849369 
Q 373.684697 293.849369 373.304697 293.471869 
Q 372.927197 293.091869 372.927197 292.551869 
Q 372.927197 292.014369 373.304697 291.631869 
Q 373.684697 291.246869 374.224697 291.246869 
z
M 383.639697 288.356869 
Q 383.639697 289.944369 383.194697 291.319369 
Q 382.927197 292.161869 382.477197 292.701869 
Q 382.029697 293.239369 381.459697 293.556869 
Q 380.889697 293.874369 380.217197 293.874369 
Q 379.452197 293.874369 378.834697 293.484369 
Q 378.217197 293.091869 377.739697 292.364369 
Q 377.397197 291.834369 377.139697 290.951869 
Q 376.802197 289.756869 376.802197 288.481869 
Q 376.802197 286.756869 377.287197 285.309369 
Q 377.684697 284.114369 378.497197 283.479369 
Q 379.309697 282.841869 380.217197 282.841869 
Q 381.139697 282.841869 381.939697 283.471869 
Q 382.739697 284.099369 383.114697 285.161869 
Q 383.639697 286.621869 383.639697 288.356869 
z
M 381.232197 288.341869 
Q 381.232197 285.559369 381.202197 285.099369 
Q 381.122197 284.014369 380.827197 283.631869 
Q 380.632197 283.381869 380.194697 283.381869 
Q 379.857197 283.381869 379.662197 283.569369 
Q 379.372197 283.841869 379.269697 284.534369 
Q 379.169697 285.224369 379.169697 289.356869 
Q 379.169697 291.606869 379.327197 292.371869 
Q 379.444697 292.926869 379.662197 293.114369 
Q 379.882197 293.301869 380.239697 293.301869 
Q 380.632197 293.301869 380.827197 293.051869 
Q 381.154697 292.614369 381.202197 291.701869 
L 381.232197 288.341869 
z
" style="stroke: #ffffff; stroke-width: 3.8"/>
    <path d="M 362.849697 293.654369 
L 356.614697 293.654369 
L 356.614697 293.481869 
Q 359.482197 290.069369 360.094697 288.889369 
Q 360.709697 287.709369 360.709697 286.584369 
Q 360.709697 285.764369 360.202197 285.221869 
Q 359.694697 284.676869 358.959697 284.676869 
Q 357.757197 284.676869 357.092197 285.881869 
L 356.802197 285.779369 
Q 357.224697 284.279369 358.084697 283.561869 
Q 358.944697 282.841869 360.069697 282.841869 
Q 360.872197 282.841869 361.537197 283.216869 
Q 362.202197 283.591869 362.577197 284.244369 
Q 362.952197 284.896869 362.952197 285.466869 
Q 362.952197 286.506869 362.372197 287.576869 
Q 361.584697 289.021869 358.927197 291.606869 
L 361.217197 291.606869 
Q 362.059697 291.606869 362.314697 291.536869 
Q 362.569697 291.466869 362.732197 291.299369 
Q 362.897197 291.131869 363.162197 290.591869 
L 363.444697 290.591869 
L 362.849697 293.654369 
z
M 364.717197 293.874369 
L 364.717197 293.654369 
Q 366.014697 293.356869 366.917197 292.779369 
Q 367.819697 292.201869 368.344697 291.349369 
Q 368.872197 290.496869 369.084697 289.389369 
Q 368.599697 289.639369 368.259697 289.736869 
Q 367.919697 289.834369 367.544697 289.834369 
Q 366.342197 289.834369 365.539697 288.966869 
Q 364.739697 288.099369 364.739697 286.591869 
Q 364.739697 285.544369 365.172197 284.674369 
Q 365.607197 283.801869 366.412197 283.321869 
Q 367.217197 282.841869 368.084697 282.841869 
Q 369.014697 282.841869 369.842197 283.374369 
Q 370.669697 283.904369 371.162197 284.911869 
Q 371.654697 285.919369 371.654697 287.209369 
Q 371.654697 288.881869 370.852197 290.414369 
Q 370.052197 291.944369 368.467197 292.869369 
Q 366.882197 293.794369 364.717197 293.874369 
z
M 369.202197 288.731869 
Q 369.279697 287.856869 369.279697 287.194369 
Q 369.279697 285.771869 368.952197 284.544369 
Q 368.764697 283.864369 368.397197 283.544369 
Q 368.202197 283.371869 367.889697 283.371869 
Q 367.497197 283.371869 367.279697 283.709369 
Q 366.974697 284.169369 366.974697 285.466869 
Q 366.974697 287.631869 367.489697 288.451869 
Q 367.827197 288.981869 368.397197 288.981869 
Q 368.702197 288.981869 369.202197 288.731869 
z
M 374.224697 291.246869 
Q 374.772197 291.246869 375.149697 291.631869 
Q 375.529697 292.014369 375.529697 292.551869 
Q 375.529697 293.091869 375.147197 293.471869 
Q 374.764697 293.849369 374.224697 293.849369 
Q 373.684697 293.849369 373.304697 293.471869 
Q 372.927197 293.091869 372.927197 292.551869 
Q 372.927197 292.014369 373.304697 291.631869 
Q 373.684697 291.246869 374.224697 291.246869 
z
M 383.639697 288.356869 
Q 383.639697 289.944369 383.194697 291.319369 
Q 382.927197 292.161869 382.477197 292.701869 
Q 382.029697 293.239369 381.459697 293.556869 
Q 380.889697 293.874369 380.217197 293.874369 
Q 379.452197 293.874369 378.834697 293.484369 
Q 378.217197 293.091869 377.739697 292.364369 
Q 377.397197 291.834369 377.139697 290.951869 
Q 376.802197 289.756869 376.802197 288.481869 
Q 376.802197 286.756869 377.287197 285.309369 
Q 377.684697 284.114369 378.497197 283.479369 
Q 379.309697 282.841869 380.217197 282.841869 
Q 381.139697 282.841869 381.939697 283.471869 
Q 382.739697 284.099369 383.114697 285.161869 
Q 383.639697 286.621869 383.639697 288.356869 
z
M 381.232197 288.341869 
Q 381.232197 285.559369 381.202197 285.099369 
Q 381.122197 284.014369 380.827197 283.631869 
Q 380.632197 283.381869 380.194697 283.381869 
Q 379.857197 283.381869 379.662197 283.569369 
Q 379.372197 283.841869 379.269697 284.534369 
Q 379.169697 285.224369 379.169697 289.356869 
Q 379.169697 291.606869 379.327197 292.371869 
Q 379.444697 292.926869 379.662197 293.114369 
Q 379.882197 293.301869 380.239697 293.301869 
Q 380.632197 293.301869 380.827197 293.051869 
Q 381.154697 292.614369 381.202197 291.701869 
L 381.232197 288.341869 
z
"/>
   </g>
   <g id="text_26">
    <path d="M 359.059697 197.838135 
L 361.944697 189.095635 
L 359.747197 189.095635 
Q 358.459697 189.095635 357.809697 189.430635 
Q 357.357197 189.665635 357.059697 190.313135 
L 356.764697 190.313135 
L 357.529697 187.023135 
L 363.842197 187.023135 
L 360.287197 197.838135 
L 359.059697 197.838135 
z
M 366.662197 187.023135 
L 371.622197 187.023135 
L 370.834697 189.040635 
L 366.662197 189.040635 
L 366.264697 190.095635 
Q 368.959697 190.195635 370.412197 191.438135 
Q 371.607197 192.460635 371.607197 193.985635 
Q 371.607197 194.960635 371.052197 195.895635 
Q 370.497197 196.828135 369.489697 197.333135 
Q 368.482197 197.838135 367.279697 197.838135 
Q 365.982197 197.838135 365.287197 197.353135 
Q 364.802197 197.008135 364.802197 196.570635 
Q 364.802197 196.235635 365.054697 195.978135 
Q 365.309697 195.720635 365.647197 195.720635 
Q 365.952197 195.720635 366.264697 195.845635 
Q 366.577197 195.970635 367.334697 196.500635 
Q 367.809697 196.828135 368.154697 196.953135 
Q 368.397197 197.048135 368.702197 197.048135 
Q 369.342197 197.048135 369.789697 196.580635 
Q 370.239697 196.110635 370.239697 195.453135 
Q 370.239697 194.078135 368.864697 193.220635 
Q 367.489697 192.360635 365.397197 192.360635 
Q 365.184697 192.360635 364.764697 192.368135 
L 366.662197 187.023135 
z
M 374.224697 195.210635 
Q 374.772197 195.210635 375.149697 195.595635 
Q 375.529697 195.978135 375.529697 196.515635 
Q 375.529697 197.055635 375.147197 197.435635 
Q 374.764697 197.813135 374.224697 197.813135 
Q 373.684697 197.813135 373.304697 197.435635 
Q 372.927197 197.055635 372.927197 196.515635 
Q 372.927197 195.978135 373.304697 195.595635 
Q 373.684697 195.210635 374.224697 195.210635 
z
M 383.739697 186.805635 
L 383.739697 187.023135 
Q 382.327197 187.383135 381.469697 187.950635 
Q 380.614697 188.515635 380.117197 189.325635 
Q 379.622197 190.133135 379.349697 191.328135 
Q 379.694697 191.095635 379.919697 191.023135 
Q 380.427197 190.868135 380.944697 190.868135 
Q 382.132197 190.868135 382.924697 191.733135 
Q 383.717197 192.595635 383.717197 194.085635 
Q 383.717197 195.133135 383.287197 196.008135 
Q 382.857197 196.883135 382.067197 197.360635 
Q 381.279697 197.838135 380.382197 197.838135 
Q 379.404697 197.838135 378.574697 197.303135 
Q 377.747197 196.765635 377.282197 195.735635 
Q 376.819697 194.703135 376.819697 193.493135 
Q 376.819697 191.710635 377.674697 190.175635 
Q 378.529697 188.640635 380.102197 187.730635 
Q 381.677197 186.820635 383.739697 186.805635 
z
M 379.247197 191.960635 
Q 379.184697 193.040635 379.184697 193.540635 
Q 379.184697 194.618135 379.392197 195.625635 
Q 379.599697 196.633135 379.959697 197.040635 
Q 380.217197 197.328135 380.569697 197.328135 
Q 380.927197 197.328135 381.207197 196.910635 
Q 381.489697 196.493135 381.489697 195.210635 
Q 381.489697 193.055635 380.967197 192.235635 
Q 380.632197 191.703135 380.059697 191.703135 
Q 379.747197 191.703135 379.247197 191.960635 
z
" style="stroke: #ffffff; stroke-width: 3.8"/>
    <path d="M 359.059697 197.838135 
L 361.944697 189.095635 
L 359.747197 189.095635 
Q 358.459697 189.095635 357.809697 189.430635 
Q 357.357197 189.665635 357.059697 190.313135 
L 356.764697 190.313135 
L 357.529697 187.023135 
L 363.842197 187.023135 
L 360.287197 197.838135 
L 359.059697 197.838135 
z
M 366.662197 187.023135 
L 371.622197 187.023135 
L 370.834697 189.040635 
L 366.662197 189.040635 
L 366.264697 190.095635 
Q 368.959697 190.195635 370.412197 191.438135 
Q 371.607197 192.460635 371.607197 193.985635 
Q 371.607197 194.960635 371.052197 195.895635 
Q 370.497197 196.828135 369.489697 197.333135 
Q 368.482197 197.838135 367.279697 197.838135 
Q 365.982197 197.838135 365.287197 197.353135 
Q 364.802197 197.008135 364.802197 196.570635 
Q 364.802197 196.235635 365.054697 195.978135 
Q 365.309697 195.720635 365.647197 195.720635 
Q 365.952197 195.720635 366.264697 195.845635 
Q 366.577197 195.970635 367.334697 196.500635 
Q 367.809697 196.828135 368.154697 196.953135 
Q 368.397197 197.048135 368.702197 197.048135 
Q 369.342197 197.048135 369.789697 196.580635 
Q 370.239697 196.110635 370.239697 195.453135 
Q 370.239697 194.078135 368.864697 193.220635 
Q 367.489697 192.360635 365.397197 192.360635 
Q 365.184697 192.360635 364.764697 192.368135 
L 366.662197 187.023135 
z
M 374.224697 195.210635 
Q 374.772197 195.210635 375.149697 195.595635 
Q 375.529697 195.978135 375.529697 196.515635 
Q 375.529697 197.055635 375.147197 197.435635 
Q 374.764697 197.813135 374.224697 197.813135 
Q 373.684697 197.813135 373.304697 197.435635 
Q 372.927197 197.055635 372.927197 196.515635 
Q 372.927197 195.978135 373.304697 195.595635 
Q 373.684697 195.210635 374.224697 195.210635 
z
M 383.739697 186.805635 
L 383.739697 187.023135 
Q 382.327197 187.383135 381.469697 187.950635 
Q 380.614697 188.515635 380.117197 189.325635 
Q 379.622197 190.133135 379.349697 191.328135 
Q 379.694697 191.095635 379.919697 191.023135 
Q 380.427197 190.868135 380.944697 190.868135 
Q 382.132197 190.868135 382.924697 191.733135 
Q 383.717197 192.595635 383.717197 194.085635 
Q 383.717197 195.133135 383.287197 196.008135 
Q 382.857197 196.883135 382.067197 197.360635 
Q 381.279697 197.838135 380.382197 197.838135 
Q 379.404697 197.838135 378.574697 197.303135 
Q 377.747197 196.765635 377.282197 195.735635 
Q 376.819697 194.703135 376.819697 193.493135 
Q 376.819697 191.710635 377.674697 190.175635 
Q 378.529697 188.640635 380.102197 187.730635 
Q 381.677197 186.820635 383.739697 186.805635 
z
M 379.247197 191.960635 
Q 379.184697 193.040635 379.184697 193.540635 
Q 379.184697 194.618135 379.392197 195.625635 
Q 379.599697 196.633135 379.959697 197.040635 
Q 380.217197 197.328135 380.569697 197.328135 
Q 380.927197 197.328135 381.207197 196.910635 
Q 381.489697 196.493135 381.489697 195.210635 
Q 381.489697 193.055635 380.967197 192.235635 
Q 380.632197 191.703135 380.059697 191.703135 
Q 379.747197 191.703135 379.247197 191.960635 
z
"/>
   </g>
   <g id="text_27">
    <path d="M 362.849697 121.687527 
L 356.614697 121.687527 
L 356.614697 121.515027 
Q 359.482197 118.102527 360.094697 116.922527 
Q 360.709697 115.742527 360.709697 114.617527 
Q 360.709697 113.797527 360.202197 113.255027 
Q 359.694697 112.710027 358.959697 112.710027 
Q 357.757197 112.710027 357.092197 113.915027 
L 356.802197 113.812527 
Q 357.224697 112.312527 358.084697 111.595027 
Q 358.944697 110.875027 360.069697 110.875027 
Q 360.872197 110.875027 361.537197 111.250027 
Q 362.202197 111.625027 362.577197 112.277527 
Q 362.952197 112.930027 362.952197 113.500027 
Q 362.952197 114.540027 362.372197 115.610027 
Q 361.584697 117.055027 358.927197 119.640027 
L 361.217197 119.640027 
Q 362.059697 119.640027 362.314697 119.570027 
Q 362.569697 119.500027 362.732197 119.332527 
Q 362.897197 119.165027 363.162197 118.625027 
L 363.444697 118.625027 
L 362.849697 121.687527 
z
M 366.662197 111.092527 
L 371.622197 111.092527 
L 370.834697 113.110027 
L 366.662197 113.110027 
L 366.264697 114.165027 
Q 368.959697 114.265027 370.412197 115.507527 
Q 371.607197 116.530027 371.607197 118.055027 
Q 371.607197 119.030027 371.052197 119.965027 
Q 370.497197 120.897527 369.489697 121.402527 
Q 368.482197 121.907527 367.279697 121.907527 
Q 365.982197 121.907527 365.287197 121.422527 
Q 364.802197 121.077527 364.802197 120.640027 
Q 364.802197 120.305027 365.054697 120.047527 
Q 365.309697 119.790027 365.647197 119.790027 
Q 365.952197 119.790027 366.264697 119.915027 
Q 366.577197 120.040027 367.334697 120.570027 
Q 367.809697 120.897527 368.154697 121.022527 
Q 368.397197 121.117527 368.702197 121.117527 
Q 369.342197 121.117527 369.789697 120.650027 
Q 370.239697 120.180027 370.239697 119.522527 
Q 370.239697 118.147527 368.864697 117.290027 
Q 367.489697 116.430027 365.397197 116.430027 
Q 365.184697 116.430027 364.764697 116.437527 
L 366.662197 111.092527 
z
M 374.224697 119.280027 
Q 374.772197 119.280027 375.149697 119.665027 
Q 375.529697 120.047527 375.529697 120.585027 
Q 375.529697 121.125027 375.147197 121.505027 
Q 374.764697 121.882527 374.224697 121.882527 
Q 373.684697 121.882527 373.304697 121.505027 
Q 372.927197 121.125027 372.927197 120.585027 
Q 372.927197 120.047527 373.304697 119.665027 
Q 373.684697 119.280027 374.224697 119.280027 
z
M 378.592197 116.375027 
L 378.592197 116.102527 
Q 379.482197 115.842527 379.824697 115.620027 
Q 380.169697 115.397527 380.419697 114.942527 
Q 380.669697 114.485027 380.669697 114.015027 
Q 380.669697 113.367527 380.197197 112.902527 
Q 379.724697 112.437527 379.022197 112.437527 
Q 377.927197 112.437527 377.162197 113.592527 
L 376.872197 113.492527 
Q 377.434697 112.187527 378.314697 111.532527 
Q 379.194697 110.875027 380.272197 110.875027 
Q 381.372197 110.875027 382.087197 111.547527 
Q 382.802197 112.217527 382.802197 113.117527 
Q 382.802197 113.702527 382.469697 114.247527 
Q 382.139697 114.790027 381.427197 115.202527 
Q 382.342197 115.647527 382.822197 116.300027 
Q 383.302197 116.952527 383.302197 117.937527 
Q 383.302197 119.592527 382.102197 120.755027 
Q 380.904697 121.915027 378.889697 121.915027 
Q 377.544697 121.915027 376.927197 121.467527 
Q 376.482197 121.155027 376.482197 120.665027 
Q 376.482197 120.305027 376.739697 120.052527 
Q 376.997197 119.797527 377.334697 119.797527 
Q 377.592197 119.797527 377.819697 119.905027 
Q 377.944697 119.967527 378.704697 120.590027 
Q 379.467197 121.210027 380.132197 121.210027 
Q 380.709697 121.210027 381.122197 120.755027 
Q 381.537197 120.297527 381.537197 119.592527 
Q 381.537197 118.522527 380.787197 117.620027 
Q 380.037197 116.717527 378.592197 116.375027 
z
" style="stroke: #ffffff; stroke-width: 3.8"/>
    <path d="M 362.849697 121.687527 
L 356.614697 121.687527 
L 356.614697 121.515027 
Q 359.482197 118.102527 360.094697 116.922527 
Q 360.709697 115.742527 360.709697 114.617527 
Q 360.709697 113.797527 360.202197 113.255027 
Q 359.694697 112.710027 358.959697 112.710027 
Q 357.757197 112.710027 357.092197 113.915027 
L 356.802197 113.812527 
Q 357.224697 112.312527 358.084697 111.595027 
Q 358.944697 110.875027 360.069697 110.875027 
Q 360.872197 110.875027 361.537197 111.250027 
Q 362.202197 111.625027 362.577197 112.277527 
Q 362.952197 112.930027 362.952197 113.500027 
Q 362.952197 114.540027 362.372197 115.610027 
Q 361.584697 117.055027 358.927197 119.640027 
L 361.217197 119.640027 
Q 362.059697 119.640027 362.314697 119.570027 
Q 362.569697 119.500027 362.732197 119.332527 
Q 362.897197 119.165027 363.162197 118.625027 
L 363.444697 118.625027 
L 362.849697 121.687527 
z
M 366.662197 111.092527 
L 371.622197 111.092527 
L 370.834697 113.110027 
L 366.662197 113.110027 
L 366.264697 114.165027 
Q 368.959697 114.265027 370.412197 115.507527 
Q 371.607197 116.530027 371.607197 118.055027 
Q 371.607197 119.030027 371.052197 119.965027 
Q 370.497197 120.897527 369.489697 121.402527 
Q 368.482197 121.907527 367.279697 121.907527 
Q 365.982197 121.907527 365.287197 121.422527 
Q 364.802197 121.077527 364.802197 120.640027 
Q 364.802197 120.305027 365.054697 120.047527 
Q 365.309697 119.790027 365.647197 119.790027 
Q 365.952197 119.790027 366.264697 119.915027 
Q 366.577197 120.040027 367.334697 120.570027 
Q 367.809697 120.897527 368.154697 121.022527 
Q 368.397197 121.117527 368.702197 121.117527 
Q 369.342197 121.117527 369.789697 120.650027 
Q 370.239697 120.180027 370.239697 119.522527 
Q 370.239697 118.147527 368.864697 117.290027 
Q 367.489697 116.430027 365.397197 116.430027 
Q 365.184697 116.430027 364.764697 116.437527 
L 366.662197 111.092527 
z
M 374.224697 119.280027 
Q 374.772197 119.280027 375.149697 119.665027 
Q 375.529697 120.047527 375.529697 120.585027 
Q 375.529697 121.125027 375.147197 121.505027 
Q 374.764697 121.882527 374.224697 121.882527 
Q 373.684697 121.882527 373.304697 121.505027 
Q 372.927197 121.125027 372.927197 120.585027 
Q 372.927197 120.047527 373.304697 119.665027 
Q 373.684697 119.280027 374.224697 119.280027 
z
M 378.592197 116.375027 
L 378.592197 116.102527 
Q 379.482197 115.842527 379.824697 115.620027 
Q 380.169697 115.397527 380.419697 114.942527 
Q 380.669697 114.485027 380.669697 114.015027 
Q 380.669697 113.367527 380.197197 112.902527 
Q 379.724697 112.437527 379.022197 112.437527 
Q 377.927197 112.437527 377.162197 113.592527 
L 376.872197 113.492527 
Q 377.434697 112.187527 378.314697 111.532527 
Q 379.194697 110.875027 380.272197 110.875027 
Q 381.372197 110.875027 382.087197 111.547527 
Q 382.802197 112.217527 382.802197 113.117527 
Q 382.802197 113.702527 382.469697 114.247527 
Q 382.139697 114.790027 381.427197 115.202527 
Q 382.342197 115.647527 382.822197 116.300027 
Q 383.302197 116.952527 383.302197 117.937527 
Q 383.302197 119.592527 382.102197 120.755027 
Q 380.904697 121.915027 378.889697 121.915027 
Q 377.544697 121.915027 376.927197 121.467527 
Q 376.482197 121.155027 376.482197 120.665027 
Q 376.482197 120.305027 376.739697 120.052527 
Q 376.997197 119.797527 377.334697 119.797527 
Q 377.592197 119.797527 377.819697 119.905027 
Q 377.944697 119.967527 378.704697 120.590027 
Q 379.467197 121.210027 380.132197 121.210027 
Q 380.709697 121.210027 381.122197 120.755027 
Q 381.537197 120.297527 381.537197 119.592527 
Q 381.537197 118.522527 380.787197 117.620027 
Q 380.037197 116.717527 378.592197 116.375027 
z
"/>
   </g>
   <g id="text_28">
    <path d="M 572.551172 230.39012 
L 577.583672 223.57012 
L 578.536172 223.57012 
L 578.536172 230.39012 
L 579.506172 230.39012 
L 579.506172 232.00762 
L 578.536172 232.00762 
L 578.536172 234.38262 
L 576.388672 234.38262 
L 576.388672 232.00762 
L 572.551172 232.00762 
L 572.551172 230.39012 
z
M 573.311172 230.39012 
L 576.388672 230.39012 
L 576.388672 226.21012 
L 573.311172 230.39012 
z
M 587.668672 223.57012 
L 587.668672 223.78762 
Q 586.256172 224.14762 585.398672 224.71512 
Q 584.543672 225.28012 584.046172 226.09012 
Q 583.551172 226.89762 583.278672 228.09262 
Q 583.623672 227.86012 583.848672 227.78762 
Q 584.356172 227.63262 584.873672 227.63262 
Q 586.061172 227.63262 586.853672 228.49762 
Q 587.646172 229.36012 587.646172 230.85012 
Q 587.646172 231.89762 587.216172 232.77262 
Q 586.786172 233.64762 585.996172 234.12512 
Q 585.208672 234.60262 584.311172 234.60262 
Q 583.333672 234.60262 582.503672 234.06762 
Q 581.676172 233.53012 581.211172 232.50012 
Q 580.748672 231.46762 580.748672 230.25762 
Q 580.748672 228.47512 581.603672 226.94012 
Q 582.458672 225.40512 584.031172 224.49512 
Q 585.606172 223.58512 587.668672 223.57012 
z
M 583.176172 228.72512 
Q 583.113672 229.80512 583.113672 230.30512 
Q 583.113672 231.38262 583.321172 232.39012 
Q 583.528672 233.39762 583.888672 233.80512 
Q 584.146172 234.09262 584.498672 234.09262 
Q 584.856172 234.09262 585.136172 233.67512 
Q 585.418672 233.25762 585.418672 231.97512 
Q 585.418672 229.82012 584.896172 229.00012 
Q 584.561172 228.46762 583.988672 228.46762 
Q 583.676172 228.46762 583.176172 228.72512 
z
M 590.153672 231.97512 
Q 590.701172 231.97512 591.078672 232.36012 
Q 591.458672 232.74262 591.458672 233.28012 
Q 591.458672 233.82012 591.076172 234.20012 
Q 590.693672 234.57762 590.153672 234.57762 
Q 589.613672 234.57762 589.233672 234.20012 
Q 588.856172 233.82012 588.856172 233.28012 
Q 588.856172 232.74262 589.233672 232.36012 
Q 589.613672 231.97512 590.153672 231.97512 
z
M 594.521172 229.07012 
L 594.521172 228.79762 
Q 595.411172 228.53762 595.753672 228.31512 
Q 596.098672 228.09262 596.348672 227.63762 
Q 596.598672 227.18012 596.598672 226.71012 
Q 596.598672 226.06262 596.126172 225.59762 
Q 595.653672 225.13262 594.951172 225.13262 
Q 593.856172 225.13262 593.091172 226.28762 
L 592.801172 226.18762 
Q 593.363672 224.88262 594.243672 224.22762 
Q 595.123672 223.57012 596.201172 223.57012 
Q 597.301172 223.57012 598.016172 224.24262 
Q 598.731172 224.91262 598.731172 225.81262 
Q 598.731172 226.39762 598.398672 226.94262 
Q 598.068672 227.48512 597.356172 227.89762 
Q 598.271172 228.34262 598.751172 228.99512 
Q 599.231172 229.64762 599.231172 230.63262 
Q 599.231172 232.28762 598.031172 233.45012 
Q 596.833672 234.61012 594.818672 234.61012 
Q 593.473672 234.61012 592.856172 234.16262 
Q 592.411172 233.85012 592.411172 233.36012 
Q 592.411172 233.00012 592.668672 232.74762 
Q 592.926172 232.49262 593.263672 232.49262 
Q 593.521172 232.49262 593.748672 232.60012 
Q 593.873672 232.66262 594.633672 233.28512 
Q 595.396172 233.90512 596.061172 233.90512 
Q 596.638672 233.90512 597.051172 233.45012 
Q 597.466172 232.99262 597.466172 232.28762 
Q 597.466172 231.21762 596.716172 230.31512 
Q 595.966172 229.41262 594.521172 229.07012 
z
" style="stroke: #ffffff; stroke-width: 3.8"/>
    <path d="M 572.551172 230.39012 
L 577.583672 223.57012 
L 578.536172 223.57012 
L 578.536172 230.39012 
L 579.506172 230.39012 
L 579.506172 232.00762 
L 578.536172 232.00762 
L 578.536172 234.38262 
L 576.388672 234.38262 
L 576.388672 232.00762 
L 572.551172 232.00762 
L 572.551172 230.39012 
z
M 573.311172 230.39012 
L 576.388672 230.39012 
L 576.388672 226.21012 
L 573.311172 230.39012 
z
M 587.668672 223.57012 
L 587.668672 223.78762 
Q 586.256172 224.14762 585.398672 224.71512 
Q 584.543672 225.28012 584.046172 226.09012 
Q 583.551172 226.89762 583.278672 228.09262 
Q 583.623672 227.86012 583.848672 227.78762 
Q 584.356172 227.63262 584.873672 227.63262 
Q 586.061172 227.63262 586.853672 228.49762 
Q 587.646172 229.36012 587.646172 230.85012 
Q 587.646172 231.89762 587.216172 232.77262 
Q 586.786172 233.64762 585.996172 234.12512 
Q 585.208672 234.60262 584.311172 234.60262 
Q 583.333672 234.60262 582.503672 234.06762 
Q 581.676172 233.53012 581.211172 232.50012 
Q 580.748672 231.46762 580.748672 230.25762 
Q 580.748672 228.47512 581.603672 226.94012 
Q 582.458672 225.40512 584.031172 224.49512 
Q 585.606172 223.58512 587.668672 223.57012 
z
M 583.176172 228.72512 
Q 583.113672 229.80512 583.113672 230.30512 
Q 583.113672 231.38262 583.321172 232.39012 
Q 583.528672 233.39762 583.888672 233.80512 
Q 584.146172 234.09262 584.498672 234.09262 
Q 584.856172 234.09262 585.136172 233.67512 
Q 585.418672 233.25762 585.418672 231.97512 
Q 585.418672 229.82012 584.896172 229.00012 
Q 584.561172 228.46762 583.988672 228.46762 
Q 583.676172 228.46762 583.176172 228.72512 
z
M 590.153672 231.97512 
Q 590.701172 231.97512 591.078672 232.36012 
Q 591.458672 232.74262 591.458672 233.28012 
Q 591.458672 233.82012 591.076172 234.20012 
Q 590.693672 234.57762 590.153672 234.57762 
Q 589.613672 234.57762 589.233672 234.20012 
Q 588.856172 233.82012 588.856172 233.28012 
Q 588.856172 232.74262 589.233672 232.36012 
Q 589.613672 231.97512 590.153672 231.97512 
z
M 594.521172 229.07012 
L 594.521172 228.79762 
Q 595.411172 228.53762 595.753672 228.31512 
Q 596.098672 228.09262 596.348672 227.63762 
Q 596.598672 227.18012 596.598672 226.71012 
Q 596.598672 226.06262 596.126172 225.59762 
Q 595.653672 225.13262 594.951172 225.13262 
Q 593.856172 225.13262 593.091172 226.28762 
L 592.801172 226.18762 
Q 593.363672 224.88262 594.243672 224.22762 
Q 595.123672 223.57012 596.201172 223.57012 
Q 597.301172 223.57012 598.016172 224.24262 
Q 598.731172 224.91262 598.731172 225.81262 
Q 598.731172 226.39762 598.398672 226.94262 
Q 598.068672 227.48512 597.356172 227.89762 
Q 598.271172 228.34262 598.751172 228.99512 
Q 599.231172 229.64762 599.231172 230.63262 
Q 599.231172 232.28762 598.031172 233.45012 
Q 596.833672 234.61012 594.818672 234.61012 
Q 593.473672 234.61012 592.856172 234.16262 
Q 592.411172 233.85012 592.411172 233.36012 
Q 592.411172 233.00012 592.668672 232.74762 
Q 592.926172 232.49262 593.263672 232.49262 
Q 593.521172 232.49262 593.748672 232.60012 
Q 593.873672 232.66262 594.633672 233.28512 
Q 595.396172 233.90512 596.061172 233.90512 
Q 596.638672 233.90512 597.051172 233.45012 
Q 597.466172 232.99262 597.466172 232.28762 
Q 597.466172 231.21762 596.716172 230.31512 
Q 595.966172 229.41262 594.521172 229.07012 
z
"/>
   </g>
   <g id="text_29">
    <path d="M 584.360093 386.077707 
L 589.010093 386.077707 
L 588.271812 387.969113 
L 584.360093 387.969113 
L 583.987437 388.958176 
Q 586.513999 389.051926 587.875718 390.216769 
Q 588.996031 391.175363 588.996031 392.605051 
Q 588.996031 393.519113 588.475718 394.395676 
Q 587.955406 395.269894 587.010874 395.743332 
Q 586.066343 396.216769 584.938999 396.216769 
Q 583.722593 396.216769 583.071031 395.762082 
Q 582.616343 395.438644 582.616343 395.028488 
Q 582.616343 394.714426 582.853062 394.473019 
Q 583.092124 394.231613 583.408531 394.231613 
Q 583.694468 394.231613 583.987437 394.348801 
Q 584.280406 394.465988 584.990562 394.962863 
Q 585.435874 395.269894 585.759312 395.387082 
Q 585.986656 395.476144 586.272593 395.476144 
Q 586.872593 395.476144 587.292124 395.037863 
Q 587.713999 394.597238 587.713999 393.980832 
Q 587.713999 392.691769 586.424937 391.887863 
Q 585.135874 391.081613 583.174156 391.081613 
Q 582.974937 391.081613 582.581187 391.088644 
L 584.360093 386.077707 
z
M 591.449937 393.753488 
Q 591.963218 393.753488 592.317124 394.114426 
Q 592.673374 394.473019 592.673374 394.976926 
Q 592.673374 395.483176 592.314781 395.839426 
Q 591.956187 396.193332 591.449937 396.193332 
Q 590.943687 396.193332 590.587437 395.839426 
Q 590.233531 395.483176 590.233531 394.976926 
Q 590.233531 394.473019 590.587437 394.114426 
Q 590.943687 393.753488 591.449937 393.753488 
z
M 595.982749 396.216769 
L 598.687437 388.020676 
L 596.627281 388.020676 
Q 595.420249 388.020676 594.810874 388.334738 
Q 594.386656 388.555051 594.107749 389.162082 
L 593.831187 389.162082 
L 594.548374 386.077707 
L 600.466343 386.077707 
L 597.133531 396.216769 
L 595.982749 396.216769 
z
" style="fill: #404040; stroke: #ffffff; stroke-width: 3.8"/>
    <path d="M 584.360093 386.077707 
L 589.010093 386.077707 
L 588.271812 387.969113 
L 584.360093 387.969113 
L 583.987437 388.958176 
Q 586.513999 389.051926 587.875718 390.216769 
Q 588.996031 391.175363 588.996031 392.605051 
Q 588.996031 393.519113 588.475718 394.395676 
Q 587.955406 395.269894 587.010874 395.743332 
Q 586.066343 396.216769 584.938999 396.216769 
Q 583.722593 396.216769 583.071031 395.762082 
Q 582.616343 395.438644 582.616343 395.028488 
Q 582.616343 394.714426 582.853062 394.473019 
Q 583.092124 394.231613 583.408531 394.231613 
Q 583.694468 394.231613 583.987437 394.348801 
Q 584.280406 394.465988 584.990562 394.962863 
Q 585.435874 395.269894 585.759312 395.387082 
Q 585.986656 395.476144 586.272593 395.476144 
Q 586.872593 395.476144 587.292124 395.037863 
Q 587.713999 394.597238 587.713999 393.980832 
Q 587.713999 392.691769 586.424937 391.887863 
Q 585.135874 391.081613 583.174156 391.081613 
Q 582.974937 391.081613 582.581187 391.088644 
L 584.360093 386.077707 
z
M 591.449937 393.753488 
Q 591.963218 393.753488 592.317124 394.114426 
Q 592.673374 394.473019 592.673374 394.976926 
Q 592.673374 395.483176 592.314781 395.839426 
Q 591.956187 396.193332 591.449937 396.193332 
Q 590.943687 396.193332 590.587437 395.839426 
Q 590.233531 395.483176 590.233531 394.976926 
Q 590.233531 394.473019 590.587437 394.114426 
Q 590.943687 393.753488 591.449937 393.753488 
z
M 595.982749 396.216769 
L 598.687437 388.020676 
L 596.627281 388.020676 
Q 595.420249 388.020676 594.810874 388.334738 
Q 594.386656 388.555051 594.107749 389.162082 
L 593.831187 389.162082 
L 594.548374 386.077707 
L 600.466343 386.077707 
L 597.133531 396.216769 
L 595.982749 396.216769 
z
" style="fill: #404040"/>
   </g>
   <g id="text_30">
    <path d="M 563.123486 354.416367 
L 567.841455 348.022617 
L 568.734424 348.022617 
L 568.734424 354.416367 
L 569.643799 354.416367 
L 569.643799 355.932774 
L 568.734424 355.932774 
L 568.734424 358.159336 
L 566.721143 358.159336 
L 566.721143 355.932774 
L 563.123486 355.932774 
L 563.123486 354.416367 
z
M 563.835986 354.416367 
L 566.721143 354.416367 
L 566.721143 350.497617 
L 563.835986 354.416367 
z
M 572.535986 348.226524 
L 577.185986 348.226524 
L 576.447705 350.11793 
L 572.535986 350.11793 
L 572.16333 351.106992 
Q 574.689893 351.200742 576.051611 352.365586 
Q 577.171924 353.32418 577.171924 354.753867 
Q 577.171924 355.66793 576.651611 356.544492 
Q 576.131299 357.418711 575.186768 357.892149 
Q 574.242236 358.365586 573.114893 358.365586 
Q 571.898486 358.365586 571.246924 357.910899 
Q 570.792236 357.587461 570.792236 357.177305 
Q 570.792236 356.863242 571.028955 356.621836 
Q 571.268018 356.38043 571.584424 356.38043 
Q 571.870361 356.38043 572.16333 356.497617 
Q 572.456299 356.614805 573.166455 357.11168 
Q 573.611768 357.418711 573.935205 357.535899 
Q 574.162549 357.624961 574.448486 357.624961 
Q 575.048486 357.624961 575.468018 357.18668 
Q 575.889893 356.746055 575.889893 356.129649 
Q 575.889893 354.840586 574.60083 354.03668 
Q 573.311768 353.23043 571.350049 353.23043 
Q 571.15083 353.23043 570.75708 353.237461 
L 572.535986 348.226524 
z
M 579.62583 355.902305 
Q 580.139111 355.902305 580.493018 356.263242 
Q 580.849268 356.621836 580.849268 357.125742 
Q 580.849268 357.631992 580.490674 357.988242 
Q 580.13208 358.342149 579.62583 358.342149 
Q 579.11958 358.342149 578.76333 357.988242 
Q 578.409424 357.631992 578.409424 357.125742 
Q 578.409424 356.621836 578.76333 356.263242 
Q 579.11958 355.902305 579.62583 355.902305 
z
M 588.546143 348.022617 
L 588.546143 348.226524 
Q 587.221924 348.564024 586.418018 349.096055 
Q 585.616455 349.625742 585.150049 350.385117 
Q 584.685986 351.142149 584.430518 352.262461 
Q 584.753955 352.044492 584.964893 351.976524 
Q 585.440674 351.831211 585.92583 351.831211 
Q 587.039111 351.831211 587.78208 352.642149 
Q 588.525049 353.450742 588.525049 354.847617 
Q 588.525049 355.829649 588.121924 356.649961 
Q 587.718799 357.470274 586.978174 357.91793 
Q 586.239893 358.365586 585.398486 358.365586 
Q 584.48208 358.365586 583.703955 357.864024 
Q 582.928174 357.360117 582.492236 356.394492 
Q 582.058643 355.426524 582.058643 354.292149 
Q 582.058643 352.621055 582.860205 351.181992 
Q 583.661768 349.74293 585.135986 348.889805 
Q 586.612549 348.03668 588.546143 348.022617 
z
M 584.334424 352.85543 
Q 584.27583 353.86793 584.27583 354.33668 
Q 584.27583 355.346836 584.470361 356.291367 
Q 584.664893 357.235899 585.002393 357.61793 
Q 585.243799 357.887461 585.574268 357.887461 
Q 585.909424 357.887461 586.171924 357.496055 
Q 586.436768 357.104649 586.436768 355.902305 
Q 586.436768 353.881992 585.946924 353.113242 
Q 585.632861 352.614024 585.096143 352.614024 
Q 584.803174 352.614024 584.334424 352.85543 
z
" style="fill: #404040; stroke: #ffffff; stroke-width: 3.8"/>
    <path d="M 563.123486 354.416367 
L 567.841455 348.022617 
L 568.734424 348.022617 
L 568.734424 354.416367 
L 569.643799 354.416367 
L 569.643799 355.932774 
L 568.734424 355.932774 
L 568.734424 358.159336 
L 566.721143 358.159336 
L 566.721143 355.932774 
L 563.123486 355.932774 
L 563.123486 354.416367 
z
M 563.835986 354.416367 
L 566.721143 354.416367 
L 566.721143 350.497617 
L 563.835986 354.416367 
z
M 572.535986 348.226524 
L 577.185986 348.226524 
L 576.447705 350.11793 
L 572.535986 350.11793 
L 572.16333 351.106992 
Q 574.689893 351.200742 576.051611 352.365586 
Q 577.171924 353.32418 577.171924 354.753867 
Q 577.171924 355.66793 576.651611 356.544492 
Q 576.131299 357.418711 575.186768 357.892149 
Q 574.242236 358.365586 573.114893 358.365586 
Q 571.898486 358.365586 571.246924 357.910899 
Q 570.792236 357.587461 570.792236 357.177305 
Q 570.792236 356.863242 571.028955 356.621836 
Q 571.268018 356.38043 571.584424 356.38043 
Q 571.870361 356.38043 572.16333 356.497617 
Q 572.456299 356.614805 573.166455 357.11168 
Q 573.611768 357.418711 573.935205 357.535899 
Q 574.162549 357.624961 574.448486 357.624961 
Q 575.048486 357.624961 575.468018 357.18668 
Q 575.889893 356.746055 575.889893 356.129649 
Q 575.889893 354.840586 574.60083 354.03668 
Q 573.311768 353.23043 571.350049 353.23043 
Q 571.15083 353.23043 570.75708 353.237461 
L 572.535986 348.226524 
z
M 579.62583 355.902305 
Q 580.139111 355.902305 580.493018 356.263242 
Q 580.849268 356.621836 580.849268 357.125742 
Q 580.849268 357.631992 580.490674 357.988242 
Q 580.13208 358.342149 579.62583 358.342149 
Q 579.11958 358.342149 578.76333 357.988242 
Q 578.409424 357.631992 578.409424 357.125742 
Q 578.409424 356.621836 578.76333 356.263242 
Q 579.11958 355.902305 579.62583 355.902305 
z
M 588.546143 348.022617 
L 588.546143 348.226524 
Q 587.221924 348.564024 586.418018 349.096055 
Q 585.616455 349.625742 585.150049 350.385117 
Q 584.685986 351.142149 584.430518 352.262461 
Q 584.753955 352.044492 584.964893 351.976524 
Q 585.440674 351.831211 585.92583 351.831211 
Q 587.039111 351.831211 587.78208 352.642149 
Q 588.525049 353.450742 588.525049 354.847617 
Q 588.525049 355.829649 588.121924 356.649961 
Q 587.718799 357.470274 586.978174 357.91793 
Q 586.239893 358.365586 585.398486 358.365586 
Q 584.48208 358.365586 583.703955 357.864024 
Q 582.928174 357.360117 582.492236 356.394492 
Q 582.058643 355.426524 582.058643 354.292149 
Q 582.058643 352.621055 582.860205 351.181992 
Q 583.661768 349.74293 585.135986 348.889805 
Q 586.612549 348.03668 588.546143 348.022617 
z
M 584.334424 352.85543 
Q 584.27583 353.86793 584.27583 354.33668 
Q 584.27583 355.346836 584.470361 356.291367 
Q 584.664893 357.235899 585.002393 357.61793 
Q 585.243799 357.887461 585.574268 357.887461 
Q 585.909424 357.887461 586.171924 357.496055 
Q 586.436768 357.104649 586.436768 355.902305 
Q 586.436768 353.881992 585.946924 353.113242 
Q 585.632861 352.614024 585.096143 352.614024 
Q 584.803174 352.614024 584.334424 352.85543 
z
" style="fill: #404040"/>
   </g>
   <g id="text_31">
    <path d="M 531.238443 298.853646 
L 531.238443 306.977083 
Q 531.238443 307.891146 531.318131 308.144271 
Q 531.400162 308.397396 531.655631 308.559114 
Q 531.913443 308.718489 532.478287 308.718489 
L 532.703287 308.718489 
L 532.703287 308.990364 
L 527.474381 308.990364 
L 527.474381 308.718489 
L 527.739225 308.718489 
Q 528.376725 308.718489 528.646256 308.573177 
Q 528.918131 308.425521 529.011881 308.170052 
Q 529.107975 307.914583 529.107975 306.977083 
L 529.107975 301.827864 
Q 529.107975 301.138802 529.04235 300.967708 
Q 528.976725 300.794271 528.796256 300.674739 
Q 528.618131 300.552864 528.383756 300.552864 
Q 528.008756 300.552864 527.474381 300.787239 
L 527.343131 300.522396 
L 530.997037 298.853646 
L 531.238443 298.853646 
z
M 536.511881 309.196614 
L 539.216568 301.000521 
L 537.156412 301.000521 
Q 535.949381 301.000521 535.340006 301.314583 
Q 534.915787 301.534896 534.636881 302.141927 
L 534.360318 302.141927 
L 535.077506 299.057552 
L 540.995475 299.057552 
L 537.662662 309.196614 
L 536.511881 309.196614 
z
M 543.229068 306.733333 
Q 543.74235 306.733333 544.096256 307.094271 
Q 544.452506 307.452864 544.452506 307.956771 
Q 544.452506 308.463021 544.093912 308.819271 
Q 543.735318 309.173177 543.229068 309.173177 
Q 542.722818 309.173177 542.366568 308.819271 
Q 542.012662 308.463021 542.012662 307.956771 
Q 542.012662 307.452864 542.366568 307.094271 
Q 542.722818 306.733333 543.229068 306.733333 
z
M 549.988443 298.853646 
L 549.988443 306.977083 
Q 549.988443 307.891146 550.068131 308.144271 
Q 550.150162 308.397396 550.405631 308.559114 
Q 550.663443 308.718489 551.228287 308.718489 
L 551.453287 308.718489 
L 551.453287 308.990364 
L 546.224381 308.990364 
L 546.224381 308.718489 
L 546.489225 308.718489 
Q 547.126725 308.718489 547.396256 308.573177 
Q 547.668131 308.425521 547.761881 308.170052 
Q 547.857975 307.914583 547.857975 306.977083 
L 547.857975 301.827864 
Q 547.857975 301.138802 547.79235 300.967708 
Q 547.726725 300.794271 547.546256 300.674739 
Q 547.368131 300.552864 547.133756 300.552864 
Q 546.758756 300.552864 546.224381 300.787239 
L 546.093131 300.522396 
L 549.747037 298.853646 
L 549.988443 298.853646 
z
" style="fill: #404040; stroke: #ffffff; stroke-width: 3.8"/>
    <path d="M 531.238443 298.853646 
L 531.238443 306.977083 
Q 531.238443 307.891146 531.318131 308.144271 
Q 531.400162 308.397396 531.655631 308.559114 
Q 531.913443 308.718489 532.478287 308.718489 
L 532.703287 308.718489 
L 532.703287 308.990364 
L 527.474381 308.990364 
L 527.474381 308.718489 
L 527.739225 308.718489 
Q 528.376725 308.718489 528.646256 308.573177 
Q 528.918131 308.425521 529.011881 308.170052 
Q 529.107975 307.914583 529.107975 306.977083 
L 529.107975 301.827864 
Q 529.107975 301.138802 529.04235 300.967708 
Q 528.976725 300.794271 528.796256 300.674739 
Q 528.618131 300.552864 528.383756 300.552864 
Q 528.008756 300.552864 527.474381 300.787239 
L 527.343131 300.522396 
L 530.997037 298.853646 
L 531.238443 298.853646 
z
M 536.511881 309.196614 
L 539.216568 301.000521 
L 537.156412 301.000521 
Q 535.949381 301.000521 535.340006 301.314583 
Q 534.915787 301.534896 534.636881 302.141927 
L 534.360318 302.141927 
L 535.077506 299.057552 
L 540.995475 299.057552 
L 537.662662 309.196614 
L 536.511881 309.196614 
z
M 543.229068 306.733333 
Q 543.74235 306.733333 544.096256 307.094271 
Q 544.452506 307.452864 544.452506 307.956771 
Q 544.452506 308.463021 544.093912 308.819271 
Q 543.735318 309.173177 543.229068 309.173177 
Q 542.722818 309.173177 542.366568 308.819271 
Q 542.012662 308.463021 542.012662 307.956771 
Q 542.012662 307.452864 542.366568 307.094271 
Q 542.722818 306.733333 543.229068 306.733333 
z
M 549.988443 298.853646 
L 549.988443 306.977083 
Q 549.988443 307.891146 550.068131 308.144271 
Q 550.150162 308.397396 550.405631 308.559114 
Q 550.663443 308.718489 551.228287 308.718489 
L 551.453287 308.718489 
L 551.453287 308.990364 
L 546.224381 308.990364 
L 546.224381 308.718489 
L 546.489225 308.718489 
Q 547.126725 308.718489 547.396256 308.573177 
Q 547.668131 308.425521 547.761881 308.170052 
Q 547.857975 307.914583 547.857975 306.977083 
L 547.857975 301.827864 
Q 547.857975 301.138802 547.79235 300.967708 
Q 547.726725 300.794271 547.546256 300.674739 
Q 547.368131 300.552864 547.133756 300.552864 
Q 546.758756 300.552864 546.224381 300.787239 
L 546.093131 300.522396 
L 549.747037 298.853646 
L 549.988443 298.853646 
z
" style="fill: #404040"/>
   </g>
   <g id="text_32">
    <path d="M 326.616742 372.332255 
L 326.616742 372.536161 
Q 325.292523 372.873661 324.488617 373.405692 
Q 323.687054 373.93538 323.220648 374.694755 
Q 322.756586 375.451786 322.501117 376.572098 
Q 322.824554 376.35413 323.035492 376.286161 
Q 323.511273 376.140848 323.996429 376.140848 
Q 325.109711 376.140848 325.852679 376.951786 
Q 326.595648 377.76038 326.595648 379.157255 
Q 326.595648 380.139286 326.192523 380.959598 
Q 325.789398 381.779911 325.048773 382.227567 
Q 324.310492 382.675223 323.469086 382.675223 
Q 322.552679 382.675223 321.774554 382.173661 
Q 320.998773 381.669755 320.562836 380.70413 
Q 320.129242 379.736161 320.129242 378.601786 
Q 320.129242 376.930692 320.930804 375.49163 
Q 321.732367 374.052567 323.206586 373.199442 
Q 324.683148 372.346317 326.616742 372.332255 
z
M 322.405023 377.165067 
Q 322.346429 378.177567 322.346429 378.646317 
Q 322.346429 379.656473 322.540961 380.601005 
Q 322.735492 381.545536 323.072992 381.927567 
Q 323.314398 382.197098 323.644867 382.197098 
Q 323.980023 382.197098 324.242523 381.805692 
Q 324.507367 381.414286 324.507367 380.211942 
Q 324.507367 378.19163 324.017523 377.42288 
Q 323.703461 376.923661 323.166742 376.923661 
Q 322.873773 376.923661 322.405023 377.165067 
z
M 331.955804 372.332255 
L 331.955804 380.455692 
Q 331.955804 381.369755 332.035492 381.62288 
Q 332.117523 381.876005 332.372992 382.037723 
Q 332.630804 382.197098 333.195648 382.197098 
L 333.420648 382.197098 
L 333.420648 382.468973 
L 328.191742 382.468973 
L 328.191742 382.197098 
L 328.456586 382.197098 
Q 329.094086 382.197098 329.363617 382.051786 
Q 329.635492 381.90413 329.729242 381.648661 
Q 329.825336 381.393192 329.825336 380.455692 
L 329.825336 375.306473 
Q 329.825336 374.617411 329.759711 374.446317 
Q 329.694086 374.27288 329.513617 374.153348 
Q 329.335492 374.031473 329.101117 374.031473 
Q 328.726117 374.031473 328.191742 374.265848 
L 328.060492 374.001005 
L 331.714398 372.332255 
L 331.955804 372.332255 
z
M 336.446429 380.211942 
Q 336.959711 380.211942 337.313617 380.57288 
Q 337.669867 380.931473 337.669867 381.43538 
Q 337.669867 381.94163 337.311273 382.29788 
Q 336.952679 382.651786 336.446429 382.651786 
Q 335.940179 382.651786 335.583929 382.29788 
Q 335.230023 381.94163 335.230023 381.43538 
Q 335.230023 380.931473 335.583929 380.57288 
Q 335.940179 380.211942 336.446429 380.211942 
z
M 344.532367 382.468973 
L 338.687054 382.468973 
L 338.687054 382.307255 
Q 341.375336 379.108036 341.949554 378.001786 
Q 342.526117 376.895536 342.526117 375.840848 
Q 342.526117 375.072098 342.050336 374.563505 
Q 341.574554 374.052567 340.885492 374.052567 
Q 339.758148 374.052567 339.134711 375.182255 
L 338.862836 375.086161 
Q 339.258929 373.679911 340.065179 373.007255 
Q 340.871429 372.332255 341.926117 372.332255 
Q 342.678461 372.332255 343.301898 372.683817 
Q 343.925336 373.03538 344.276898 373.647098 
Q 344.628461 374.258817 344.628461 374.793192 
Q 344.628461 375.768192 344.084711 376.771317 
Q 343.346429 378.126005 340.855023 380.549442 
L 343.001898 380.549442 
Q 343.791742 380.549442 344.030804 380.483817 
Q 344.269867 380.418192 344.422211 380.261161 
Q 344.576898 380.10413 344.825336 379.59788 
L 345.090179 379.59788 
L 344.532367 382.468973 
z
" style="fill: #404040; stroke: #ffffff; stroke-width: 3.8"/>
    <path d="M 326.616742 372.332255 
L 326.616742 372.536161 
Q 325.292523 372.873661 324.488617 373.405692 
Q 323.687054 373.93538 323.220648 374.694755 
Q 322.756586 375.451786 322.501117 376.572098 
Q 322.824554 376.35413 323.035492 376.286161 
Q 323.511273 376.140848 323.996429 376.140848 
Q 325.109711 376.140848 325.852679 376.951786 
Q 326.595648 377.76038 326.595648 379.157255 
Q 326.595648 380.139286 326.192523 380.959598 
Q 325.789398 381.779911 325.048773 382.227567 
Q 324.310492 382.675223 323.469086 382.675223 
Q 322.552679 382.675223 321.774554 382.173661 
Q 320.998773 381.669755 320.562836 380.70413 
Q 320.129242 379.736161 320.129242 378.601786 
Q 320.129242 376.930692 320.930804 375.49163 
Q 321.732367 374.052567 323.206586 373.199442 
Q 324.683148 372.346317 326.616742 372.332255 
z
M 322.405023 377.165067 
Q 322.346429 378.177567 322.346429 378.646317 
Q 322.346429 379.656473 322.540961 380.601005 
Q 322.735492 381.545536 323.072992 381.927567 
Q 323.314398 382.197098 323.644867 382.197098 
Q 323.980023 382.197098 324.242523 381.805692 
Q 324.507367 381.414286 324.507367 380.211942 
Q 324.507367 378.19163 324.017523 377.42288 
Q 323.703461 376.923661 323.166742 376.923661 
Q 322.873773 376.923661 322.405023 377.165067 
z
M 331.955804 372.332255 
L 331.955804 380.455692 
Q 331.955804 381.369755 332.035492 381.62288 
Q 332.117523 381.876005 332.372992 382.037723 
Q 332.630804 382.197098 333.195648 382.197098 
L 333.420648 382.197098 
L 333.420648 382.468973 
L 328.191742 382.468973 
L 328.191742 382.197098 
L 328.456586 382.197098 
Q 329.094086 382.197098 329.363617 382.051786 
Q 329.635492 381.90413 329.729242 381.648661 
Q 329.825336 381.393192 329.825336 380.455692 
L 329.825336 375.306473 
Q 329.825336 374.617411 329.759711 374.446317 
Q 329.694086 374.27288 329.513617 374.153348 
Q 329.335492 374.031473 329.101117 374.031473 
Q 328.726117 374.031473 328.191742 374.265848 
L 328.060492 374.001005 
L 331.714398 372.332255 
L 331.955804 372.332255 
z
M 336.446429 380.211942 
Q 336.959711 380.211942 337.313617 380.57288 
Q 337.669867 380.931473 337.669867 381.43538 
Q 337.669867 381.94163 337.311273 382.29788 
Q 336.952679 382.651786 336.446429 382.651786 
Q 335.940179 382.651786 335.583929 382.29788 
Q 335.230023 381.94163 335.230023 381.43538 
Q 335.230023 380.931473 335.583929 380.57288 
Q 335.940179 380.211942 336.446429 380.211942 
z
M 344.532367 382.468973 
L 338.687054 382.468973 
L 338.687054 382.307255 
Q 341.375336 379.108036 341.949554 378.001786 
Q 342.526117 376.895536 342.526117 375.840848 
Q 342.526117 375.072098 342.050336 374.563505 
Q 341.574554 374.052567 340.885492 374.052567 
Q 339.758148 374.052567 339.134711 375.182255 
L 338.862836 375.086161 
Q 339.258929 373.679911 340.065179 373.007255 
Q 340.871429 372.332255 341.926117 372.332255 
Q 342.678461 372.332255 343.301898 372.683817 
Q 343.925336 373.03538 344.276898 373.647098 
Q 344.628461 374.258817 344.628461 374.793192 
Q 344.628461 375.768192 344.084711 376.771317 
Q 343.346429 378.126005 340.855023 380.549442 
L 343.001898 380.549442 
Q 343.791742 380.549442 344.030804 380.483817 
Q 344.269867 380.418192 344.422211 380.261161 
Q 344.576898 380.10413 344.825336 379.59788 
L 345.090179 379.59788 
L 344.532367 382.468973 
z
" style="fill: #404040"/>
   </g>
  </g>
 </g>
 <defs>
  <clipPath id="p2e6fb0be6e">
   <rect x="7.2" y="51.034687" width="730.764" height="437.072179"/>
  </clipPath>
 </defs>
</svg>
