<?xml version="1.0" encoding="utf-8" standalone="no"?>
<!DOCTYPE svg PUBLIC "-//W3C//DTD SVG 1.1//EN"
  "http://www.w3.org/Graphics/SVG/1.1/DTD/svg11.dtd">
<svg xmlns:xlink="http://www.w3.org/1999/xlink" width="745.164pt" height="496.204623pt" viewBox="0 0 745.164 496.204623" xmlns="http://www.w3.org/2000/svg" version="1.1">
 <metadata>
  <rdf:RDF xmlns:dc="http://purl.org/dc/elements/1.1/" xmlns:cc="http://creativecommons.org/ns#" xmlns:rdf="http://www.w3.org/1999/02/22-rdf-syntax-ns#">
   <cc:Work>
    <dc:type rdf:resource="http://purl.org/dc/dcmitype/StillImage"/>
    <dc:date>2026-07-13T16:58:16.191846</dc:date>
    <dc:format>image/svg+xml</dc:format>
    <dc:creator>
     <cc:Agent>
      <dc:title>Matplotlib v3.10.8, https://matplotlib.org/</dc:title>
     </cc:Agent>
    </dc:creator>
   </cc:Work>
  </rdf:RDF>
 </metadata>
 <defs>
  <style type="text/css">*{stroke-linejoin: round; stroke-linecap: butt}</style>
 </defs>
 <g id="figure_1">
  <g id="patch_1">
   <path d="M 0 496.204623 
L 745.164 496.204623 
L 745.164 0 
L 0 0 
L 0 496.204623 
z
" style="fill: none"/>
  </g>
  <g id="axes_1">
   <g id="patch_2">
    <path d="M 120.350555 418.540072 
Q 120.350555 448.734808 120.350555 476.876765 
" clip-path="url(#p7f9b84c36e)" style="fill: none; stroke: #111111; stroke-width: 1.836062; stroke-linejoin: miter; stroke-linecap: round"/>
    <path d="M 123.882095 469.813685 
L 120.350555 476.876765 
L 116.819015 469.813685 
z
" clip-path="url(#p7f9b84c36e)" style="fill: #111111; stroke: #111111; stroke-width: 1.836062; stroke-linejoin: miter; stroke-linecap: round"/>
   </g>
   <g id="patch_3">
    <path d="M 120.350555 301.456669 
Q 120.350555 326.991753 120.350555 349.474042 
" clip-path="url(#p7f9b84c36e)" style="fill: none; stroke: #111111; stroke-width: 2.730503; stroke-linejoin: miter; stroke-linecap: round"/>
    <path d="M 124.168316 341.83852 
L 120.350555 349.474042 
L 116.532794 341.83852 
z
" clip-path="url(#p7f9b84c36e)" style="fill: #111111; stroke: #111111; stroke-width: 2.730503; stroke-linejoin: miter; stroke-linecap: round"/>
   </g>
   <g id="patch_4">
    <path d="M 120.350555 204.998195 
Q 120.350555 224.880467 120.350555 240.191949 
" clip-path="url(#p7f9b84c36e)" style="fill: none; stroke: #111111; stroke-width: 4.088239; stroke-linejoin: miter; stroke-linecap: round"/>
    <path d="M 124.602791 231.687476 
L 120.350555 240.191949 
L 116.098318 231.687476 
z
" clip-path="url(#p7f9b84c36e)" style="fill: #111111; stroke: #111111; stroke-width: 4.088239; stroke-linejoin: miter; stroke-linecap: round"/>
   </g>
   <g id="patch_5">
    <path d="M 370.224697 265.941701 
Q 370.224697 284.976543 370.224697 302.034998 
" clip-path="url(#p7f9b84c36e)" style="fill: none; stroke: #111111; stroke-width: 1.767734; stroke-linejoin: miter; stroke-linecap: round"/>
    <path d="M 373.734372 295.015648 
L 370.224697 302.034998 
L 366.715022 295.015648 
z
" clip-path="url(#p7f9b84c36e)" style="fill: #111111; stroke: #111111; stroke-width: 1.767734; stroke-linejoin: miter; stroke-linecap: round"/>
   </g>
   <g id="patch_6">
    <path d="M 370.224697 185.499882 
Q 370.224697 203.87407 370.224697 218.467186 
" clip-path="url(#p7f9b84c36e)" style="fill: none; stroke: #111111; stroke-width: 3.381892; stroke-linejoin: miter; stroke-linecap: round"/>
    <path d="M 374.250902 210.414775 
L 370.224697 218.467186 
L 366.198491 210.414775 
z
" clip-path="url(#p7f9b84c36e)" style="fill: #111111; stroke: #111111; stroke-width: 3.381892; stroke-linejoin: miter; stroke-linecap: round"/>
   </g>
   <g id="patch_7">
    <path d="M 370.224697 112.850946 
Q 370.224697 127.989347 370.224697 136.64315 
" clip-path="url(#p7f9b84c36e)" style="fill: none; stroke: #111111; stroke-width: 5.8; stroke-linejoin: miter; stroke-linecap: round"/>
    <path d="M 375.024697 127.04315 
L 370.224697 136.64315 
L 365.424697 127.04315 
z
" clip-path="url(#p7f9b84c36e)" style="fill: #111111; stroke: #111111; stroke-width: 5.8; stroke-linejoin: miter; stroke-linecap: round"/>
   </g>
   <g id="patch_8">
    <path d="M 586.153672 205.392684 
Q 586.153672 227.689643 586.153672 247.005664 
" clip-path="url(#p7f9b84c36e)" style="fill: none; stroke: #111111; stroke-width: 2.666233; stroke-linejoin: miter; stroke-linecap: round"/>
    <path d="M 589.950867 239.411275 
L 586.153672 247.005664 
L 582.356478 239.411275 
z
" clip-path="url(#p7f9b84c36e)" style="fill: #111111; stroke: #111111; stroke-width: 2.666233; stroke-linejoin: miter; stroke-linecap: round"/>
   </g>
   <g id="line2d_1">
    <path d="M 165.610777 478.929545 
L 550.322663 478.929545 
" clip-path="url(#p7f9b84c36e)" style="fill: none; stroke-dasharray: 5.6,4.2; stroke-dashoffset: 0; stroke: #404040; stroke-width: 1.4"/>
   </g>
   <g id="line2d_2">
    <path d="M 165.610777 352.526837 
L 550.322663 352.526837 
" clip-path="url(#p7f9b84c36e)" style="fill: none; stroke-dasharray: 5.6,4.2; stroke-dashoffset: 0; stroke: #404040; stroke-width: 1.4"/>
   </g>
   <g id="line2d_3">
    <path d="M 415.484919 304.011384 
L 560.694797 304.011384 
" clip-path="url(#p7f9b84c36e)" style="fill: none; stroke-dasharray: 5.6,4.2; stroke-dashoffset: 0; stroke: #404040; stroke-width: 1.4"/>
   </g>
   <g id="patch_9">
    <path d="M 665.359061 249.986602 
Q 568.581864 362.185622 472.46006 473.624811 
" clip-path="url(#p7f9b84c36e)" style="fill: none; stroke: #404040; stroke-width: 0.8975; stroke-linejoin: miter; stroke-linecap: round"/>
    <path d="M 478.304999 471.185145 
L 472.46006 473.624811 
L 474.015291 467.48506 
z
" clip-path="url(#p7f9b84c36e)" style="fill: #404040; stroke: #404040; stroke-width: 0.8975; stroke-linejoin: miter; stroke-linecap: round"/>
   </g>
   <g id="patch_10">
    <path d="M 620.098839 249.986602 
Q 577.834069 298.986427 536.708548 346.665461 
" clip-path="url(#p7f9b84c36e)" style="fill: none; stroke: #404040; stroke-width: 1.560096; stroke-linejoin: miter; stroke-linecap: round"/>
    <path d="M 543.009248 344.035562 
L 536.708548 346.665461 
L 538.385049 340.046961 
z
" clip-path="url(#p7f9b84c36e)" style="fill: #404040; stroke: #404040; stroke-width: 1.560096; stroke-linejoin: miter; stroke-linecap: round"/>
   </g>
   <g id="patch_11">
    <path d="M 574.838617 249.986602 
Q 541.862773 275.177998 510.214107 299.355517 
" clip-path="url(#p7f9b84c36e)" style="fill: none; stroke: #404040; stroke-width: 1.493812; stroke-linejoin: miter; stroke-linecap: round"/>
    <path d="M 516.8719 298.08398 
L 510.214107 299.355517 
L 513.191552 293.26636 
z
" clip-path="url(#p7f9b84c36e)" style="fill: #404040; stroke: #404040; stroke-width: 1.493812; stroke-linejoin: miter; stroke-linecap: round"/>
   </g>
   <g id="patch_12">
    <path d="M 370.224697 304.011384 
Q 335.214882 326.641219 302.652325 347.689183 
" clip-path="url(#p7f9b84c36e)" style="fill: none; stroke: #404040; stroke-width: 2.606359; stroke-linejoin: miter; stroke-linecap: round"/>
    <path d="M 310.213565 346.852679 
L 302.652325 347.689183 
L 306.519866 341.138288 
z
" clip-path="url(#p7f9b84c36e)" style="fill: #404040; stroke: #404040; stroke-width: 2.606359; stroke-linejoin: miter; stroke-linecap: round"/>
   </g>
   <g id="line2d_4">
    <path d="M 120.350555 352.526837 
L 120.350555 412.916311 
" clip-path="url(#p7f9b84c36e)" style="fill: none; stroke: #111111; stroke-width: 1.836062"/>
   </g>
   <g id="line2d_5">
    <path d="M 120.350555 244.76274 
L 120.350555 295.832908 
" clip-path="url(#p7f9b84c36e)" style="fill: none; stroke: #111111; stroke-width: 2.730503"/>
   </g>
   <g id="line2d_6">
    <path d="M 120.350555 159.60989 
L 120.350555 199.374434 
" clip-path="url(#p7f9b84c36e)" style="fill: none; stroke: #111111; stroke-width: 4.088239"/>
   </g>
   <g id="line2d_7">
    <path d="M 370.224697 222.248257 
L 370.224697 260.31794 
" clip-path="url(#p7f9b84c36e)" style="fill: none; stroke: #111111; stroke-width: 1.767734"/>
   </g>
   <g id="line2d_8">
    <path d="M 370.224697 143.127747 
L 370.224697 179.876121 
" clip-path="url(#p7f9b84c36e)" style="fill: none; stroke: #111111; stroke-width: 3.381892"/>
   </g>
   <g id="line2d_9">
    <path d="M 370.224697 76.950384 
L 370.224697 107.227185 
" clip-path="url(#p7f9b84c36e)" style="fill: none; stroke: #111111; stroke-width: 5.8"/>
   </g>
   <g id="line2d_10">
    <path d="M 586.153672 155.175004 
L 586.153672 199.768923 
" clip-path="url(#p7f9b84c36e)" style="fill: none; stroke: #111111; stroke-width: 2.666233"/>
   </g>
   <g id="line2d_11">
    <path d="M 75.090333 478.929545 
L 165.610777 478.929545 
" clip-path="url(#p7f9b84c36e)" style="fill: none; stroke: #111111; stroke-width: 3.6; stroke-linecap: round"/>
   </g>
   <g id="line2d_12">
    <path d="M 75.090333 352.526837 
L 165.610777 352.526837 
" clip-path="url(#p7f9b84c36e)" style="fill: none; stroke: #111111; stroke-width: 3.6; stroke-linecap: round"/>
   </g>
   <g id="line2d_13">
    <path d="M 75.090333 244.76274 
L 165.610777 244.76274 
" clip-path="url(#p7f9b84c36e)" style="fill: none; stroke: #111111; stroke-width: 3.6; stroke-linecap: round"/>
   </g>
   <g id="line2d_14">
    <path d="M 75.090333 159.60989 
L 165.610777 159.60989 
" clip-path="url(#p7f9b84c36e)" style="fill: none; stroke: #111111; stroke-width: 3.6; stroke-linecap: round"/>
   </g>
   <g id="line2d_15">
    <path d="M 324.964475 304.011384 
L 415.484919 304.011384 
" clip-path="url(#p7f9b84c36e)" style="fill: none; stroke: #111111; stroke-width: 3.6; stroke-linecap: round"/>
   </g>
   <g id="line2d_16">
    <path d="M 324.964475 222.248257 
L 415.484919 222.248257 
" clip-path="url(#p7f9b84c36e)" style="fill: none; stroke: #111111; stroke-width: 3.6; stroke-linecap: round"/>
   </g>
   <g id="line2d_17">
    <path d="M 324.964475 143.127747 
L 415.484919 143.127747 
" clip-path="url(#p7f9b84c36e)" style="fill: none; stroke: #111111; stroke-width: 3.6; stroke-linecap: round"/>
   </g>
   <g id="line2d_18">
    <path d="M 324.964475 76.950384 
L 415.484919 76.950384 
" clip-path="url(#p7f9b84c36e)" style="fill: none; stroke: #111111; stroke-width: 3.6; stroke-linecap: round"/>
   </g>
   <g id="line2d_19">
    <path d="M 574.838617 249.986602 
L 665.359061 249.986602 
" clip-path="url(#p7f9b84c36e)" style="fill: none; stroke: #111111; stroke-width: 3.6; stroke-linecap: round"/>
   </g>
   <g id="line2d_20">
    <path d="M 574.838617 155.175004 
L 665.359061 155.175004 
" clip-path="url(#p7f9b84c36e)" style="fill: none; stroke: #111111; stroke-width: 3.6; stroke-linecap: round"/>
   </g>
   <g id="text_1">
    <!-- $^{282}\mathrm{Cf}$ -->
    <g transform="translate(331.272 33.034687) scale(0.34 -0.34)">
     <defs>
      <path id="DejaVuSans-32" d="M 1228 531 
L 3431 531 
L 3431 0 
L 469 0 
L 469 531 
Q 828 903 1448 1529 
Q 2069 2156 2228 2338 
Q 2531 2678 2651 2914 
Q 2772 3150 2772 3378 
Q 2772 3750 2511 3984 
Q 2250 4219 1831 4219 
Q 1534 4219 1204 4116 
Q 875 4013 500 3803 
L 500 4441 
Q 881 4594 1212 4672 
Q 1544 4750 1819 4750 
Q 2544 4750 2975 4387 
Q 3406 4025 3406 3419 
Q 3406 3131 3298 2873 
Q 3191 2616 2906 2266 
Q 2828 2175 2409 1742 
Q 1991 1309 1228 531 
z
" transform="scale(0.015625)"/>
      <path id="DejaVuSans-38" d="M 2034 2216 
Q 1584 2216 1326 1975 
Q 1069 1734 1069 1313 
Q 1069 891 1326 650 
Q 1584 409 2034 409 
Q 2484 409 2743 651 
Q 3003 894 3003 1313 
Q 3003 1734 2745 1975 
Q 2488 2216 2034 2216 
z
M 1403 2484 
Q 997 2584 770 2862 
Q 544 3141 544 3541 
Q 544 4100 942 4425 
Q 1341 4750 2034 4750 
Q 2731 4750 3128 4425 
Q 3525 4100 3525 3541 
Q 3525 3141 3298 2862 
Q 3072 2584 2669 2484 
Q 3125 2378 3379 2068 
Q 3634 1759 3634 1313 
Q 3634 634 3220 271 
Q 2806 -91 2034 -91 
Q 1263 -91 848 271 
Q 434 634 434 1313 
Q 434 1759 690 2068 
Q 947 2378 1403 2484 
z
M 1172 3481 
Q 1172 3119 1398 2916 
Q 1625 2713 2034 2713 
Q 2441 2713 2670 2916 
Q 2900 3119 2900 3481 
Q 2900 3844 2670 4047 
Q 2441 4250 2034 4250 
Q 1625 4250 1398 4047 
Q 1172 3844 1172 3481 
z
" transform="scale(0.015625)"/>
      <path id="DejaVuSans-43" d="M 4122 4306 
L 4122 3641 
Q 3803 3938 3442 4084 
Q 3081 4231 2675 4231 
Q 1875 4231 1450 3742 
Q 1025 3253 1025 2328 
Q 1025 1406 1450 917 
Q 1875 428 2675 428 
Q 3081 428 3442 575 
Q 3803 722 4122 1019 
L 4122 359 
Q 3791 134 3420 21 
Q 3050 -91 2638 -91 
Q 1578 -91 968 557 
Q 359 1206 359 2328 
Q 359 3453 968 4101 
Q 1578 4750 2638 4750 
Q 3056 4750 3426 4639 
Q 3797 4528 4122 4306 
z
" transform="scale(0.015625)"/>
      <path id="DejaVuSans-66" d="M 2375 4863 
L 2375 4384 
L 1825 4384 
Q 1516 4384 1395 4259 
Q 1275 4134 1275 3809 
L 1275 3500 
L 2222 3500 
L 2222 3053 
L 1275 3053 
L 1275 0 
L 697 0 
L 697 3053 
L 147 3053 
L 147 3500 
L 697 3500 
L 697 3744 
Q 697 4328 969 4595 
Q 1241 4863 1831 4863 
L 2375 4863 
z
" transform="scale(0.015625)"/>
     </defs>
     <use xlink:href="#DejaVuSans-32" transform="translate(0.957031 39.046875) scale(0.7)"/>
     <use xlink:href="#DejaVuSans-38" transform="translate(45.493164 39.046875) scale(0.7)"/>
     <use xlink:href="#DejaVuSans-32" transform="translate(90.029297 39.046875) scale(0.7)"/>
     <use xlink:href="#DejaVuSans-43" transform="translate(137.299805 0.765625)"/>
     <use xlink:href="#DejaVuSans-66" transform="translate(207.124023 0.765625)"/>
    </g>
   </g>
   <g id="text_2">
    <!-- 0 -->
    <g transform="translate(46.98525 483.344545) scale(0.16 -0.16)">
     <defs>
      <path id="DejaVuSans-BoldOblique-30" d="M 1913 728 
Q 2153 728 2339 872 
Q 2525 1016 2650 1294 
Q 2738 1491 2809 1742 
Q 2881 1994 2944 2338 
Q 2997 2616 3025 2850 
Q 3053 3084 3053 3250 
Q 3053 3600 2928 3764 
Q 2803 3928 2541 3928 
Q 2297 3928 2112 3789 
Q 1928 3650 1806 3366 
Q 1713 3163 1636 2903 
Q 1559 2644 1503 2338 
Q 1450 2056 1422 1815 
Q 1394 1575 1394 1409 
Q 1394 1063 1522 895 
Q 1650 728 1913 728 
z
M 4225 3072 
Q 4225 2450 4053 1862 
Q 3881 1275 3572 831 
Q 3256 375 2809 142 
Q 2363 -91 1813 -91 
Q 1047 -91 639 343 
Q 231 778 231 1594 
Q 231 2206 401 2795 
Q 572 3384 878 3822 
Q 1200 4281 1644 4515 
Q 2088 4750 2644 4750 
Q 3403 4750 3814 4314 
Q 4225 3878 4225 3072 
z
" transform="scale(0.015625)"/>
     </defs>
     <use xlink:href="#DejaVuSans-BoldOblique-30"/>
    </g>
   </g>
   <g id="text_3">
    <!-- 0⁺ -->
    <g transform="translate(182.58336 484.08478) scale(0.23 -0.23)">
     <defs>
      <path id="TimesNewRomanPS-BoldMT-30" d="M 2966 2119 
Q 2966 1484 2788 934 
Q 2681 597 2501 381 
Q 2322 166 2094 39 
Q 1866 -88 1597 -88 
Q 1291 -88 1044 68 
Q 797 225 606 516 
Q 469 728 366 1081 
Q 231 1559 231 2069 
Q 231 2759 425 3338 
Q 584 3816 909 4070 
Q 1234 4325 1597 4325 
Q 1966 4325 2286 4073 
Q 2606 3822 2756 3397 
Q 2966 2813 2966 2119 
z
M 2003 2125 
Q 2003 3238 1991 3422 
Q 1959 3856 1841 4009 
Q 1763 4109 1588 4109 
Q 1453 4109 1375 4034 
Q 1259 3925 1218 3648 
Q 1178 3372 1178 1719 
Q 1178 819 1241 513 
Q 1288 291 1375 216 
Q 1463 141 1606 141 
Q 1763 141 1841 241 
Q 1972 416 1991 781 
L 2003 2125 
z
" transform="scale(0.015625)"/>
      <path id="DejaVuSerif-Bold-207a" d="M 1916 4344 
L 1916 3441 
L 2950 3441 
L 2950 3044 
L 1916 3044 
L 1916 2141 
L 1463 2141 
L 1463 3044 
L 428 3044 
L 428 3441 
L 1463 3441 
L 1463 4344 
L 1916 4344 
z
" transform="scale(0.015625)"/>
     </defs>
     <use xlink:href="#TimesNewRomanPS-BoldMT-30"/>
     <use xlink:href="#DejaVuSerif-Bold-207a" transform="translate(50 0)"/>
    </g>
   </g>
   <g id="text_4">
    <!-- 2068 -->
    <g transform="translate(13.58775 356.941837) scale(0.16 -0.16)">
     <defs>
      <path id="DejaVuSans-BoldOblique-32" d="M 1581 884 
L 3609 884 
L 3438 0 
L 50 0 
L 225 891 
L 2209 2388 
Q 2534 2638 2704 2894 
Q 2875 3150 2875 3391 
Q 2875 3647 2700 3787 
Q 2525 3928 2209 3928 
Q 1913 3928 1547 3811 
Q 1181 3694 722 3450 
L 922 4441 
Q 1347 4597 1756 4673 
Q 2166 4750 2566 4750 
Q 3278 4750 3687 4442 
Q 4097 4134 4097 3603 
Q 4097 3147 3847 2772 
Q 3597 2397 2747 1759 
L 1581 884 
z
" transform="scale(0.015625)"/>
      <path id="DejaVuSans-BoldOblique-36" d="M 2316 2303 
Q 1959 2303 1731 2009 
Q 1503 1716 1503 1253 
Q 1503 975 1643 820 
Q 1784 666 2034 666 
Q 2388 666 2617 955 
Q 2847 1244 2847 1684 
Q 2847 1984 2709 2143 
Q 2572 2303 2316 2303 
z
M 4225 4544 
L 4056 3681 
Q 3788 3819 3534 3887 
Q 3281 3956 3028 3956 
Q 2447 3956 2087 3643 
Q 1728 3331 1650 2766 
Q 1894 2925 2151 3001 
Q 2409 3078 2700 3078 
Q 3275 3078 3640 2737 
Q 4006 2397 4006 1869 
Q 4006 1006 3442 454 
Q 2878 -97 1991 -97 
Q 1194 -97 756 354 
Q 319 806 319 1631 
Q 319 2269 512 2848 
Q 706 3428 1056 3847 
Q 1431 4294 1942 4519 
Q 2453 4744 3091 4744 
Q 3384 4744 3662 4694 
Q 3941 4644 4225 4544 
z
" transform="scale(0.015625)"/>
      <path id="DejaVuSans-BoldOblique-38" d="M 2150 2088 
Q 1784 2088 1539 1839 
Q 1294 1591 1294 1228 
Q 1294 969 1453 817 
Q 1613 666 1888 666 
Q 2259 666 2503 911 
Q 2747 1156 2747 1522 
Q 2747 1781 2586 1934 
Q 2425 2088 2150 2088 
z
M 1381 2484 
Q 1044 2625 876 2850 
Q 709 3075 709 3391 
Q 709 4025 1229 4387 
Q 1750 4750 2669 4750 
Q 3406 4750 3812 4475 
Q 4219 4200 4219 3700 
Q 4219 3256 3936 2940 
Q 3653 2625 3128 2484 
Q 3509 2338 3690 2091 
Q 3872 1844 3872 1466 
Q 3872 747 3311 328 
Q 2750 -91 1772 -91 
Q 1000 -91 570 217 
Q 141 525 141 1075 
Q 141 1572 470 1945 
Q 800 2319 1381 2484 
z
M 2559 3994 
Q 2241 3994 2048 3808 
Q 1856 3622 1856 3316 
Q 1856 3103 1995 2972 
Q 2134 2841 2363 2841 
Q 2681 2841 2873 3027 
Q 3066 3213 3066 3519 
Q 3066 3734 2927 3864 
Q 2788 3994 2559 3994 
z
" transform="scale(0.015625)"/>
     </defs>
     <use xlink:href="#DejaVuSans-BoldOblique-32"/>
     <use xlink:href="#DejaVuSans-BoldOblique-30" transform="translate(69.580078 0)"/>
     <use xlink:href="#DejaVuSans-BoldOblique-36" transform="translate(139.160156 0)"/>
     <use xlink:href="#DejaVuSans-BoldOblique-38" transform="translate(208.740234 0)"/>
    </g>
   </g>
   <g id="text_5">
    <!-- 2⁺ -->
    <g transform="translate(182.58336 357.682071) scale(0.23 -0.23)">
     <defs>
      <path id="TimesNewRomanPS-BoldMT-32" d="M 2650 0 
L 156 0 
L 156 69 
Q 1303 1434 1548 1906 
Q 1794 2378 1794 2828 
Q 1794 3156 1591 3373 
Q 1388 3591 1094 3591 
Q 613 3591 347 3109 
L 231 3150 
Q 400 3750 744 4037 
Q 1088 4325 1538 4325 
Q 1859 4325 2125 4175 
Q 2391 4025 2541 3764 
Q 2691 3503 2691 3275 
Q 2691 2859 2459 2431 
Q 2144 1853 1081 819 
L 1997 819 
Q 2334 819 2436 847 
Q 2538 875 2603 942 
Q 2669 1009 2775 1225 
L 2888 1225 
L 2650 0 
z
" transform="scale(0.015625)"/>
     </defs>
     <use xlink:href="#TimesNewRomanPS-BoldMT-32"/>
     <use xlink:href="#DejaVuSerif-Bold-207a" transform="translate(50 0)"/>
    </g>
   </g>
   <g id="text_6">
    <!-- 3831 -->
    <g transform="translate(13.58775 249.17774) scale(0.16 -0.16)">
     <defs>
      <path id="DejaVuSans-BoldOblique-33" d="M 3022 2516 
Q 3375 2434 3572 2187 
Q 3769 1941 3769 1581 
Q 3769 806 3155 357 
Q 2541 -91 1466 -91 
Q 1059 -91 692 -33 
Q 325 25 0 141 
L 178 1069 
Q 456 906 784 817 
Q 1113 728 1441 728 
Q 1969 728 2276 926 
Q 2584 1125 2584 1459 
Q 2584 1738 2350 1877 
Q 2116 2016 1644 2016 
L 1166 2016 
L 1319 2791 
L 1825 2791 
Q 2316 2791 2602 2969 
Q 2888 3147 2888 3450 
Q 2888 3688 2689 3813 
Q 2491 3938 2113 3938 
Q 1847 3938 1534 3869 
Q 1222 3800 884 3669 
L 1056 4550 
Q 1425 4650 1783 4700 
Q 2141 4750 2491 4750 
Q 3281 4750 3679 4487 
Q 4078 4225 4078 3706 
Q 4078 3241 3801 2930 
Q 3525 2619 3022 2516 
z
" transform="scale(0.015625)"/>
      <path id="DejaVuSans-BoldOblique-31" d="M 441 831 
L 1503 831 
L 2088 3847 
L 953 3622 
L 1113 4441 
L 2241 4666 
L 3384 4666 
L 2644 831 
L 3700 831 
L 3541 0 
L 275 0 
L 441 831 
z
" transform="scale(0.015625)"/>
     </defs>
     <use xlink:href="#DejaVuSans-BoldOblique-33"/>
     <use xlink:href="#DejaVuSans-BoldOblique-38" transform="translate(69.580078 0)"/>
     <use xlink:href="#DejaVuSans-BoldOblique-33" transform="translate(139.160156 0)"/>
     <use xlink:href="#DejaVuSans-BoldOblique-31" transform="translate(208.740234 0)"/>
    </g>
   </g>
   <g id="text_7">
    <!-- 4⁺ -->
    <g transform="translate(182.58336 249.917974) scale(0.23 -0.23)">
     <defs>
      <path id="TimesNewRomanPS-BoldMT-34" d="M 159 1597 
L 2172 4325 
L 2553 4325 
L 2553 1597 
L 2941 1597 
L 2941 950 
L 2553 950 
L 2553 0 
L 1694 0 
L 1694 950 
L 159 950 
L 159 1597 
z
M 463 1597 
L 1694 1597 
L 1694 3269 
L 463 1597 
z
" transform="scale(0.015625)"/>
     </defs>
     <use xlink:href="#TimesNewRomanPS-BoldMT-34"/>
     <use xlink:href="#DejaVuSerif-Bold-207a" transform="translate(50 0)"/>
    </g>
   </g>
   <g id="text_8">
    <!-- 5224 -->
    <g transform="translate(13.58775 164.02489) scale(0.16 -0.16)">
     <defs>
      <path id="DejaVuSans-BoldOblique-35" d="M 1131 4666 
L 4122 4666 
L 3950 3781 
L 1919 3781 
L 1778 3059 
Q 1916 3097 2064 3117 
Q 2213 3138 2363 3138 
Q 3078 3138 3481 2811 
Q 3884 2484 3884 1906 
Q 3884 988 3262 448 
Q 2641 -91 1575 -91 
Q 1184 -91 815 -14 
Q 447 63 84 219 
L 269 1166 
Q 616 941 942 834 
Q 1269 728 1606 728 
Q 2100 728 2397 986 
Q 2694 1244 2694 1663 
Q 2694 1963 2469 2139 
Q 2244 2316 1856 2316 
Q 1594 2316 1289 2248 
Q 984 2181 622 2041 
L 1131 4666 
z
" transform="scale(0.015625)"/>
      <path id="DejaVuSans-BoldOblique-34" d="M 2638 3641 
L 978 1722 
L 2259 1722 
L 2638 3641 
z
M 2606 4666 
L 3975 4666 
L 3397 1722 
L 4063 1722 
L 3897 850 
L 3231 850 
L 3066 0 
L 1925 0 
L 2094 850 
L -6 850 
L 197 1881 
L 2606 4666 
z
" transform="scale(0.015625)"/>
     </defs>
     <use xlink:href="#DejaVuSans-BoldOblique-35"/>
     <use xlink:href="#DejaVuSans-BoldOblique-32" transform="translate(69.580078 0)"/>
     <use xlink:href="#DejaVuSans-BoldOblique-32" transform="translate(139.160156 0)"/>
     <use xlink:href="#DejaVuSans-BoldOblique-34" transform="translate(208.740234 0)"/>
    </g>
   </g>
   <g id="text_9">
    <!-- 6⁺ -->
    <g transform="translate(182.58336 164.765125) scale(0.23 -0.23)">
     <defs>
      <path id="TimesNewRomanPS-BoldMT-36" d="M 3006 4325 
L 3006 4238 
Q 2441 4094 2098 3867 
Q 1756 3641 1557 3317 
Q 1359 2994 1250 2516 
Q 1388 2609 1478 2638 
Q 1681 2700 1888 2700 
Q 2363 2700 2680 2354 
Q 2997 2009 2997 1413 
Q 2997 994 2825 644 
Q 2653 294 2337 103 
Q 2022 -88 1663 -88 
Q 1272 -88 940 126 
Q 609 341 423 753 
Q 238 1166 238 1650 
Q 238 2363 580 2977 
Q 922 3591 1551 3955 
Q 2181 4319 3006 4325 
z
M 1209 2263 
Q 1184 1831 1184 1631 
Q 1184 1200 1267 797 
Q 1350 394 1494 231 
Q 1597 116 1738 116 
Q 1881 116 1993 283 
Q 2106 450 2106 963 
Q 2106 1825 1897 2153 
Q 1763 2366 1534 2366 
Q 1409 2366 1209 2263 
z
" transform="scale(0.015625)"/>
     </defs>
     <use xlink:href="#TimesNewRomanPS-BoldMT-36"/>
     <use xlink:href="#DejaVuSerif-Bold-207a" transform="translate(50 0)"/>
    </g>
   </g>
   <g id="text_10">
    <!-- 2862 -->
    <g transform="translate(263.461892 308.426384) scale(0.16 -0.16)">
     <use xlink:href="#DejaVuSans-BoldOblique-32"/>
     <use xlink:href="#DejaVuSans-BoldOblique-38" transform="translate(69.580078 0)"/>
     <use xlink:href="#DejaVuSans-BoldOblique-36" transform="translate(139.160156 0)"/>
     <use xlink:href="#DejaVuSans-BoldOblique-32" transform="translate(208.740234 0)"/>
    </g>
   </g>
   <g id="text_11">
    <!-- 0⁺ -->
    <g transform="translate(432.457502 309.166619) scale(0.23 -0.23)">
     <use xlink:href="#TimesNewRomanPS-BoldMT-30"/>
     <use xlink:href="#DejaVuSerif-Bold-207a" transform="translate(50 0)"/>
    </g>
   </g>
   <g id="text_12">
    <!-- 4199 -->
    <g transform="translate(263.461892 226.663257) scale(0.16 -0.16)">
     <defs>
      <path id="DejaVuSans-BoldOblique-39" d="M 263 103 
L 428 966 
Q 700 825 953 758 
Q 1206 691 1459 691 
Q 2041 691 2400 1003 
Q 2759 1316 2834 1881 
Q 2594 1722 2337 1645 
Q 2081 1569 1791 1569 
Q 1219 1569 853 1909 
Q 488 2250 488 2778 
Q 488 3641 1052 4192 
Q 1616 4744 2503 4744 
Q 3300 4744 3736 4292 
Q 4172 3841 4172 3016 
Q 4172 2381 3978 1801 
Q 3784 1222 3431 800 
Q 3056 353 2548 128 
Q 2041 -97 1403 -97 
Q 1106 -97 825 -47 
Q 544 3 263 103 
z
M 2169 2344 
Q 2525 2344 2753 2637 
Q 2981 2931 2981 3391 
Q 2981 3675 2845 3828 
Q 2709 3981 2456 3981 
Q 2103 3981 1870 3690 
Q 1638 3400 1638 2963 
Q 1638 2663 1775 2503 
Q 1913 2344 2169 2344 
z
" transform="scale(0.015625)"/>
     </defs>
     <use xlink:href="#DejaVuSans-BoldOblique-34"/>
     <use xlink:href="#DejaVuSans-BoldOblique-31" transform="translate(69.580078 0)"/>
     <use xlink:href="#DejaVuSans-BoldOblique-39" transform="translate(139.160156 0)"/>
     <use xlink:href="#DejaVuSans-BoldOblique-39" transform="translate(208.740234 0)"/>
    </g>
   </g>
   <g id="text_13">
    <!-- 2⁺ -->
    <g transform="translate(432.457502 227.403491) scale(0.23 -0.23)">
     <use xlink:href="#TimesNewRomanPS-BoldMT-32"/>
     <use xlink:href="#DejaVuSerif-Bold-207a" transform="translate(50 0)"/>
    </g>
   </g>
   <g id="text_14">
    <!-- 5493 -->
    <g transform="translate(263.461892 147.542747) scale(0.16 -0.16)">
     <use xlink:href="#DejaVuSans-BoldOblique-35"/>
     <use xlink:href="#DejaVuSans-BoldOblique-34" transform="translate(69.580078 0)"/>
     <use xlink:href="#DejaVuSans-BoldOblique-39" transform="translate(139.160156 0)"/>
     <use xlink:href="#DejaVuSans-BoldOblique-33" transform="translate(208.740234 0)"/>
    </g>
   </g>
   <g id="text_15">
    <!-- 4⁺ -->
    <g transform="translate(432.457502 148.282981) scale(0.23 -0.23)">
     <use xlink:href="#TimesNewRomanPS-BoldMT-34"/>
     <use xlink:href="#DejaVuSerif-Bold-207a" transform="translate(50 0)"/>
    </g>
   </g>
   <g id="text_16">
    <!-- 6576 -->
    <g transform="translate(263.461892 81.365384) scale(0.16 -0.16)">
     <defs>
      <path id="DejaVuSans-BoldOblique-37" d="M 922 4666 
L 4441 4666 
L 4300 3981 
L 1703 0 
L 500 0 
L 2969 3781 
L 756 3781 
L 922 4666 
z
" transform="scale(0.015625)"/>
     </defs>
     <use xlink:href="#DejaVuSans-BoldOblique-36"/>
     <use xlink:href="#DejaVuSans-BoldOblique-35" transform="translate(69.580078 0)"/>
     <use xlink:href="#DejaVuSans-BoldOblique-37" transform="translate(139.160156 0)"/>
     <use xlink:href="#DejaVuSans-BoldOblique-36" transform="translate(208.740234 0)"/>
    </g>
   </g>
   <g id="text_17">
    <!-- 6⁺ -->
    <g transform="translate(432.457502 82.105618) scale(0.23 -0.23)">
     <use xlink:href="#TimesNewRomanPS-BoldMT-36"/>
     <use xlink:href="#DejaVuSerif-Bold-207a" transform="translate(50 0)"/>
    </g>
   </g>
   <g id="text_18">
    <!-- 3745 -->
    <g transform="translate(513.336034 254.401602) scale(0.16 -0.16)">
     <use xlink:href="#DejaVuSans-BoldOblique-33"/>
     <use xlink:href="#DejaVuSans-BoldOblique-37" transform="translate(69.580078 0)"/>
     <use xlink:href="#DejaVuSans-BoldOblique-34" transform="translate(139.160156 0)"/>
     <use xlink:href="#DejaVuSans-BoldOblique-35" transform="translate(208.740234 0)"/>
    </g>
   </g>
   <g id="text_19">
    <!-- 2⁺ -->
    <g transform="translate(682.331644 255.141837) scale(0.23 -0.23)">
     <use xlink:href="#TimesNewRomanPS-BoldMT-32"/>
     <use xlink:href="#DejaVuSerif-Bold-207a" transform="translate(50 0)"/>
    </g>
   </g>
   <g id="text_20">
    <!-- 5296 -->
    <g transform="translate(513.336034 159.590004) scale(0.16 -0.16)">
     <use xlink:href="#DejaVuSans-BoldOblique-35"/>
     <use xlink:href="#DejaVuSans-BoldOblique-32" transform="translate(69.580078 0)"/>
     <use xlink:href="#DejaVuSans-BoldOblique-39" transform="translate(139.160156 0)"/>
     <use xlink:href="#DejaVuSans-BoldOblique-36" transform="translate(208.740234 0)"/>
    </g>
   </g>
   <g id="text_21">
    <!-- 3⁺ -->
    <g transform="translate(682.331644 160.330239) scale(0.23 -0.23)">
     <defs>
      <path id="TimesNewRomanPS-BoldMT-33" d="M 947 2125 
L 947 2234 
Q 1303 2338 1440 2427 
Q 1578 2516 1678 2698 
Q 1778 2881 1778 3069 
Q 1778 3328 1589 3514 
Q 1400 3700 1119 3700 
Q 681 3700 375 3238 
L 259 3278 
Q 484 3800 836 4062 
Q 1188 4325 1619 4325 
Q 2059 4325 2345 4056 
Q 2631 3788 2631 3428 
Q 2631 3194 2498 2976 
Q 2366 2759 2081 2594 
Q 2447 2416 2639 2155 
Q 2831 1894 2831 1500 
Q 2831 838 2351 373 
Q 1872 -91 1066 -91 
Q 528 -91 281 88 
Q 103 213 103 409 
Q 103 553 206 654 
Q 309 756 444 756 
Q 547 756 638 713 
Q 688 688 992 439 
Q 1297 191 1563 191 
Q 1794 191 1959 373 
Q 2125 556 2125 838 
Q 2125 1266 1825 1627 
Q 1525 1988 947 2125 
z
" transform="scale(0.015625)"/>
     </defs>
     <use xlink:href="#TimesNewRomanPS-BoldMT-33"/>
     <use xlink:href="#DejaVuSerif-Bold-207a" transform="translate(50 0)"/>
    </g>
   </g>
   <g id="text_22">
    <path d="M 111.560555 408.501941 
L 111.560555 417.166941 
Q 111.560555 418.141941 111.645555 418.411941 
Q 111.733055 418.681941 112.005555 418.854441 
Q 112.280555 419.024441 112.883055 419.024441 
L 113.123055 419.024441 
L 113.123055 419.314441 
L 107.545555 419.314441 
L 107.545555 419.024441 
L 107.828055 419.024441 
Q 108.508055 419.024441 108.795555 418.869441 
Q 109.085555 418.711941 109.185555 418.439441 
Q 109.288055 418.166941 109.288055 417.166941 
L 109.288055 411.674441 
Q 109.288055 410.939441 109.218055 410.756941 
Q 109.148055 410.571941 108.955555 410.444441 
Q 108.765555 410.314441 108.515555 410.314441 
Q 108.115555 410.314441 107.545555 410.564441 
L 107.405555 410.281941 
L 111.303055 408.501941 
L 111.560555 408.501941 
z
M 117.185555 419.534441 
L 120.070555 410.791941 
L 117.873055 410.791941 
Q 116.585555 410.791941 115.935555 411.126941 
Q 115.483055 411.361941 115.185555 412.009441 
L 114.890555 412.009441 
L 115.655555 408.719441 
L 121.968055 408.719441 
L 118.413055 419.534441 
L 117.185555 419.534441 
z
M 124.350555 416.906941 
Q 124.898055 416.906941 125.275555 417.291941 
Q 125.655555 417.674441 125.655555 418.211941 
Q 125.655555 418.751941 125.273055 419.131941 
Q 124.890555 419.509441 124.350555 419.509441 
Q 123.810555 419.509441 123.430555 419.131941 
Q 123.053055 418.751941 123.053055 418.211941 
Q 123.053055 417.674441 123.430555 417.291941 
Q 123.810555 416.906941 124.350555 416.906941 
z
M 132.975555 419.314441 
L 126.740555 419.314441 
L 126.740555 419.141941 
Q 129.608055 415.729441 130.220555 414.549441 
Q 130.835555 413.369441 130.835555 412.244441 
Q 130.835555 411.424441 130.328055 410.881941 
Q 129.820555 410.336941 129.085555 410.336941 
Q 127.883055 410.336941 127.218055 411.541941 
L 126.928055 411.439441 
Q 127.350555 409.939441 128.210555 409.221941 
Q 129.070555 408.501941 130.195555 408.501941 
Q 130.998055 408.501941 131.663055 408.876941 
Q 132.328055 409.251941 132.703055 409.904441 
Q 133.078055 410.556941 133.078055 411.126941 
Q 133.078055 412.166941 132.498055 413.236941 
Q 131.710555 414.681941 129.053055 417.266941 
L 131.343055 417.266941 
Q 132.185555 417.266941 132.440555 417.196941 
Q 132.695555 417.126941 132.858055 416.959441 
Q 133.023055 416.791941 133.288055 416.251941 
L 133.570555 416.251941 
L 132.975555 419.314441 
z
" style="stroke: #ffffff; stroke-width: 3.8"/>
    <path d="M 111.560555 408.501941 
L 111.560555 417.166941 
Q 111.560555 418.141941 111.645555 418.411941 
Q 111.733055 418.681941 112.005555 418.854441 
Q 112.280555 419.024441 112.883055 419.024441 
L 113.123055 419.024441 
L 113.123055 419.314441 
L 107.545555 419.314441 
L 107.545555 419.024441 
L 107.828055 419.024441 
Q 108.508055 419.024441 108.795555 418.869441 
Q 109.085555 418.711941 109.185555 418.439441 
Q 109.288055 418.166941 109.288055 417.166941 
L 109.288055 411.674441 
Q 109.288055 410.939441 109.218055 410.756941 
Q 109.148055 410.571941 108.955555 410.444441 
Q 108.765555 410.314441 108.515555 410.314441 
Q 108.115555 410.314441 107.545555 410.564441 
L 107.405555 410.281941 
L 111.303055 408.501941 
L 111.560555 408.501941 
z
M 117.185555 419.534441 
L 120.070555 410.791941 
L 117.873055 410.791941 
Q 116.585555 410.791941 115.935555 411.126941 
Q 115.483055 411.361941 115.185555 412.009441 
L 114.890555 412.009441 
L 115.655555 408.719441 
L 121.968055 408.719441 
L 118.413055 419.534441 
L 117.185555 419.534441 
z
M 124.350555 416.906941 
Q 124.898055 416.906941 125.275555 417.291941 
Q 125.655555 417.674441 125.655555 418.211941 
Q 125.655555 418.751941 125.273055 419.131941 
Q 124.890555 419.509441 124.350555 419.509441 
Q 123.810555 419.509441 123.430555 419.131941 
Q 123.053055 418.751941 123.053055 418.211941 
Q 123.053055 417.674441 123.430555 417.291941 
Q 123.810555 416.906941 124.350555 416.906941 
z
M 132.975555 419.314441 
L 126.740555 419.314441 
L 126.740555 419.141941 
Q 129.608055 415.729441 130.220555 414.549441 
Q 130.835555 413.369441 130.835555 412.244441 
Q 130.835555 411.424441 130.328055 410.881941 
Q 129.820555 410.336941 129.085555 410.336941 
Q 127.883055 410.336941 127.218055 411.541941 
L 126.928055 411.439441 
Q 127.350555 409.939441 128.210555 409.221941 
Q 129.070555 408.501941 130.195555 408.501941 
Q 130.998055 408.501941 131.663055 408.876941 
Q 132.328055 409.251941 132.703055 409.904441 
Q 133.078055 410.556941 133.078055 411.126941 
Q 133.078055 412.166941 132.498055 413.236941 
Q 131.710555 414.681941 129.053055 417.266941 
L 131.343055 417.266941 
Q 132.185555 417.266941 132.440555 417.196941 
Q 132.695555 417.126941 132.858055 416.959441 
Q 133.023055 416.791941 133.288055 416.251941 
L 133.570555 416.251941 
L 132.975555 419.314441 
z
"/>
   </g>
   <g id="text_23">
    <path d="M 108.718055 296.918538 
L 108.718055 296.646038 
Q 109.608055 296.386038 109.950555 296.163538 
Q 110.295555 295.941038 110.545555 295.486038 
Q 110.795555 295.028538 110.795555 294.558538 
Q 110.795555 293.911038 110.323055 293.446038 
Q 109.850555 292.981038 109.148055 292.981038 
Q 108.053055 292.981038 107.288055 294.136038 
L 106.998055 294.036038 
Q 107.560555 292.731038 108.440555 292.076038 
Q 109.320555 291.418538 110.398055 291.418538 
Q 111.498055 291.418538 112.213055 292.091038 
Q 112.928055 292.761038 112.928055 293.661038 
Q 112.928055 294.246038 112.595555 294.791038 
Q 112.265555 295.333538 111.553055 295.746038 
Q 112.468055 296.191038 112.948055 296.843538 
Q 113.428055 297.496038 113.428055 298.481038 
Q 113.428055 300.136038 112.228055 301.298538 
Q 111.030555 302.458538 109.015555 302.458538 
Q 107.670555 302.458538 107.053055 302.011038 
Q 106.608055 301.698538 106.608055 301.208538 
Q 106.608055 300.848538 106.865555 300.596038 
Q 107.123055 300.341038 107.460555 300.341038 
Q 107.718055 300.341038 107.945555 300.448538 
Q 108.070555 300.511038 108.830555 301.133538 
Q 109.593055 301.753538 110.258055 301.753538 
Q 110.835555 301.753538 111.248055 301.298538 
Q 111.663055 300.841038 111.663055 300.136038 
Q 111.663055 299.066038 110.913055 298.163538 
Q 110.163055 297.261038 108.718055 296.918538 
z
M 120.975555 302.231038 
L 114.740555 302.231038 
L 114.740555 302.058538 
Q 117.608055 298.646038 118.220555 297.466038 
Q 118.835555 296.286038 118.835555 295.161038 
Q 118.835555 294.341038 118.328055 293.798538 
Q 117.820555 293.253538 117.085555 293.253538 
Q 115.883055 293.253538 115.218055 294.458538 
L 114.928055 294.356038 
Q 115.350555 292.856038 116.210555 292.138538 
Q 117.070555 291.418538 118.195555 291.418538 
Q 118.998055 291.418538 119.663055 291.793538 
Q 120.328055 292.168538 120.703055 292.821038 
Q 121.078055 293.473538 121.078055 294.043538 
Q 121.078055 295.083538 120.498055 296.153538 
Q 119.710555 297.598538 117.053055 300.183538 
L 119.343055 300.183538 
Q 120.185555 300.183538 120.440555 300.113538 
Q 120.695555 300.043538 120.858055 299.876038 
Q 121.023055 299.708538 121.288055 299.168538 
L 121.570555 299.168538 
L 120.975555 302.231038 
z
M 124.350555 299.823538 
Q 124.898055 299.823538 125.275555 300.208538 
Q 125.655555 300.591038 125.655555 301.128538 
Q 125.655555 301.668538 125.273055 302.048538 
Q 124.890555 302.426038 124.350555 302.426038 
Q 123.810555 302.426038 123.430555 302.048538 
Q 123.053055 301.668538 123.053055 301.128538 
Q 123.053055 300.591038 123.430555 300.208538 
Q 123.810555 299.823538 124.350555 299.823538 
z
M 131.560555 291.418538 
L 131.560555 300.083538 
Q 131.560555 301.058538 131.645555 301.328538 
Q 131.733055 301.598538 132.005555 301.771038 
Q 132.280555 301.941038 132.883055 301.941038 
L 133.123055 301.941038 
L 133.123055 302.231038 
L 127.545555 302.231038 
L 127.545555 301.941038 
L 127.828055 301.941038 
Q 128.508055 301.941038 128.795555 301.786038 
Q 129.085555 301.628538 129.185555 301.356038 
Q 129.288055 301.083538 129.288055 300.083538 
L 129.288055 294.591038 
Q 129.288055 293.856038 129.218055 293.673538 
Q 129.148055 293.488538 128.955555 293.361038 
Q 128.765555 293.231038 128.515555 293.231038 
Q 128.115555 293.231038 127.545555 293.481038 
L 127.405555 293.198538 
L 131.303055 291.418538 
L 131.560555 291.418538 
z
" style="stroke: #ffffff; stroke-width: 3.8"/>
    <path d="M 108.718055 296.918538 
L 108.718055 296.646038 
Q 109.608055 296.386038 109.950555 296.163538 
Q 110.295555 295.941038 110.545555 295.486038 
Q 110.795555 295.028538 110.795555 294.558538 
Q 110.795555 293.911038 110.323055 293.446038 
Q 109.850555 292.981038 109.148055 292.981038 
Q 108.053055 292.981038 107.288055 294.136038 
L 106.998055 294.036038 
Q 107.560555 292.731038 108.440555 292.076038 
Q 109.320555 291.418538 110.398055 291.418538 
Q 111.498055 291.418538 112.213055 292.091038 
Q 112.928055 292.761038 112.928055 293.661038 
Q 112.928055 294.246038 112.595555 294.791038 
Q 112.265555 295.333538 111.553055 295.746038 
Q 112.468055 296.191038 112.948055 296.843538 
Q 113.428055 297.496038 113.428055 298.481038 
Q 113.428055 300.136038 112.228055 301.298538 
Q 111.030555 302.458538 109.015555 302.458538 
Q 107.670555 302.458538 107.053055 302.011038 
Q 106.608055 301.698538 106.608055 301.208538 
Q 106.608055 300.848538 106.865555 300.596038 
Q 107.123055 300.341038 107.460555 300.341038 
Q 107.718055 300.341038 107.945555 300.448538 
Q 108.070555 300.511038 108.830555 301.133538 
Q 109.593055 301.753538 110.258055 301.753538 
Q 110.835555 301.753538 111.248055 301.298538 
Q 111.663055 300.841038 111.663055 300.136038 
Q 111.663055 299.066038 110.913055 298.163538 
Q 110.163055 297.261038 108.718055 296.918538 
z
M 120.975555 302.231038 
L 114.740555 302.231038 
L 114.740555 302.058538 
Q 117.608055 298.646038 118.220555 297.466038 
Q 118.835555 296.286038 118.835555 295.161038 
Q 118.835555 294.341038 118.328055 293.798538 
Q 117.820555 293.253538 117.085555 293.253538 
Q 115.883055 293.253538 115.218055 294.458538 
L 114.928055 294.356038 
Q 115.350555 292.856038 116.210555 292.138538 
Q 117.070555 291.418538 118.195555 291.418538 
Q 118.998055 291.418538 119.663055 291.793538 
Q 120.328055 292.168538 120.703055 292.821038 
Q 121.078055 293.473538 121.078055 294.043538 
Q 121.078055 295.083538 120.498055 296.153538 
Q 119.710555 297.598538 117.053055 300.183538 
L 119.343055 300.183538 
Q 120.185555 300.183538 120.440555 300.113538 
Q 120.695555 300.043538 120.858055 299.876038 
Q 121.023055 299.708538 121.288055 299.168538 
L 121.570555 299.168538 
L 120.975555 302.231038 
z
M 124.350555 299.823538 
Q 124.898055 299.823538 125.275555 300.208538 
Q 125.655555 300.591038 125.655555 301.128538 
Q 125.655555 301.668538 125.273055 302.048538 
Q 124.890555 302.426038 124.350555 302.426038 
Q 123.810555 302.426038 123.430555 302.048538 
Q 123.053055 301.668538 123.053055 301.128538 
Q 123.053055 300.591038 123.430555 300.208538 
Q 123.810555 299.823538 124.350555 299.823538 
z
M 131.560555 291.418538 
L 131.560555 300.083538 
Q 131.560555 301.058538 131.645555 301.328538 
Q 131.733055 301.598538 132.005555 301.771038 
Q 132.280555 301.941038 132.883055 301.941038 
L 133.123055 301.941038 
L 133.123055 302.231038 
L 127.545555 302.231038 
L 127.545555 301.941038 
L 127.828055 301.941038 
Q 128.508055 301.941038 128.795555 301.786038 
Q 129.085555 301.628538 129.185555 301.356038 
Q 129.288055 301.083538 129.288055 300.083538 
L 129.288055 294.591038 
Q 129.288055 293.856038 129.218055 293.673538 
Q 129.148055 293.488538 128.955555 293.361038 
Q 128.765555 293.231038 128.515555 293.231038 
Q 128.115555 293.231038 127.545555 293.481038 
L 127.405555 293.198538 
L 131.303055 291.418538 
L 131.560555 291.418538 
z
"/>
   </g>
   <g id="text_24">
    <path d="M 108.788055 195.177565 
L 113.748055 195.177565 
L 112.960555 197.195065 
L 108.788055 197.195065 
L 108.390555 198.250065 
Q 111.085555 198.350065 112.538055 199.592565 
Q 113.733055 200.615065 113.733055 202.140065 
Q 113.733055 203.115065 113.178055 204.050065 
Q 112.623055 204.982565 111.615555 205.487565 
Q 110.608055 205.992565 109.405555 205.992565 
Q 108.108055 205.992565 107.413055 205.507565 
Q 106.928055 205.162565 106.928055 204.725065 
Q 106.928055 204.390065 107.180555 204.132565 
Q 107.435555 203.875065 107.773055 203.875065 
Q 108.078055 203.875065 108.390555 204.000065 
Q 108.703055 204.125065 109.460555 204.655065 
Q 109.935555 204.982565 110.280555 205.107565 
Q 110.523055 205.202565 110.828055 205.202565 
Q 111.468055 205.202565 111.915555 204.735065 
Q 112.365555 204.265065 112.365555 203.607565 
Q 112.365555 202.232565 110.990555 201.375065 
Q 109.615555 200.515065 107.523055 200.515065 
Q 107.310555 200.515065 106.890555 200.522565 
L 108.788055 195.177565 
z
M 114.748055 201.780065 
L 119.780555 194.960065 
L 120.733055 194.960065 
L 120.733055 201.780065 
L 121.703055 201.780065 
L 121.703055 203.397565 
L 120.733055 203.397565 
L 120.733055 205.772565 
L 118.585555 205.772565 
L 118.585555 203.397565 
L 114.748055 203.397565 
L 114.748055 201.780065 
z
M 115.508055 201.780065 
L 118.585555 201.780065 
L 118.585555 197.600065 
L 115.508055 201.780065 
z
M 124.350555 203.365065 
Q 124.898055 203.365065 125.275555 203.750065 
Q 125.655555 204.132565 125.655555 204.670065 
Q 125.655555 205.210065 125.273055 205.590065 
Q 124.890555 205.967565 124.350555 205.967565 
Q 123.810555 205.967565 123.430555 205.590065 
Q 123.053055 205.210065 123.053055 204.670065 
Q 123.053055 204.132565 123.430555 203.750065 
Q 123.810555 203.365065 124.350555 203.365065 
z
M 133.865555 194.960065 
L 133.865555 195.177565 
Q 132.453055 195.537565 131.595555 196.105065 
Q 130.740555 196.670065 130.243055 197.480065 
Q 129.748055 198.287565 129.475555 199.482565 
Q 129.820555 199.250065 130.045555 199.177565 
Q 130.553055 199.022565 131.070555 199.022565 
Q 132.258055 199.022565 133.050555 199.887565 
Q 133.843055 200.750065 133.843055 202.240065 
Q 133.843055 203.287565 133.413055 204.162565 
Q 132.983055 205.037565 132.193055 205.515065 
Q 131.405555 205.992565 130.508055 205.992565 
Q 129.530555 205.992565 128.700555 205.457565 
Q 127.873055 204.920065 127.408055 203.890065 
Q 126.945555 202.857565 126.945555 201.647565 
Q 126.945555 199.865065 127.800555 198.330065 
Q 128.655555 196.795065 130.228055 195.885065 
Q 131.803055 194.975065 133.865555 194.960065 
z
M 129.373055 200.115065 
Q 129.310555 201.195065 129.310555 201.695065 
Q 129.310555 202.772565 129.518055 203.780065 
Q 129.725555 204.787565 130.085555 205.195065 
Q 130.343055 205.482565 130.695555 205.482565 
Q 131.053055 205.482565 131.333055 205.065065 
Q 131.615555 204.647565 131.615555 203.365065 
Q 131.615555 201.210065 131.093055 200.390065 
Q 130.758055 199.857565 130.185555 199.857565 
Q 129.873055 199.857565 129.373055 200.115065 
z
" style="stroke: #ffffff; stroke-width: 3.8"/>
    <path d="M 108.788055 195.177565 
L 113.748055 195.177565 
L 112.960555 197.195065 
L 108.788055 197.195065 
L 108.390555 198.250065 
Q 111.085555 198.350065 112.538055 199.592565 
Q 113.733055 200.615065 113.733055 202.140065 
Q 113.733055 203.115065 113.178055 204.050065 
Q 112.623055 204.982565 111.615555 205.487565 
Q 110.608055 205.992565 109.405555 205.992565 
Q 108.108055 205.992565 107.413055 205.507565 
Q 106.928055 205.162565 106.928055 204.725065 
Q 106.928055 204.390065 107.180555 204.132565 
Q 107.435555 203.875065 107.773055 203.875065 
Q 108.078055 203.875065 108.390555 204.000065 
Q 108.703055 204.125065 109.460555 204.655065 
Q 109.935555 204.982565 110.280555 205.107565 
Q 110.523055 205.202565 110.828055 205.202565 
Q 111.468055 205.202565 111.915555 204.735065 
Q 112.365555 204.265065 112.365555 203.607565 
Q 112.365555 202.232565 110.990555 201.375065 
Q 109.615555 200.515065 107.523055 200.515065 
Q 107.310555 200.515065 106.890555 200.522565 
L 108.788055 195.177565 
z
M 114.748055 201.780065 
L 119.780555 194.960065 
L 120.733055 194.960065 
L 120.733055 201.780065 
L 121.703055 201.780065 
L 121.703055 203.397565 
L 120.733055 203.397565 
L 120.733055 205.772565 
L 118.585555 205.772565 
L 118.585555 203.397565 
L 114.748055 203.397565 
L 114.748055 201.780065 
z
M 115.508055 201.780065 
L 118.585555 201.780065 
L 118.585555 197.600065 
L 115.508055 201.780065 
z
M 124.350555 203.365065 
Q 124.898055 203.365065 125.275555 203.750065 
Q 125.655555 204.132565 125.655555 204.670065 
Q 125.655555 205.210065 125.273055 205.590065 
Q 124.890555 205.967565 124.350555 205.967565 
Q 123.810555 205.967565 123.430555 205.590065 
Q 123.053055 205.210065 123.053055 204.670065 
Q 123.053055 204.132565 123.430555 203.750065 
Q 123.810555 203.365065 124.350555 203.365065 
z
M 133.865555 194.960065 
L 133.865555 195.177565 
Q 132.453055 195.537565 131.595555 196.105065 
Q 130.740555 196.670065 130.243055 197.480065 
Q 129.748055 198.287565 129.475555 199.482565 
Q 129.820555 199.250065 130.045555 199.177565 
Q 130.553055 199.022565 131.070555 199.022565 
Q 132.258055 199.022565 133.050555 199.887565 
Q 133.843055 200.750065 133.843055 202.240065 
Q 133.843055 203.287565 133.413055 204.162565 
Q 132.983055 205.037565 132.193055 205.515065 
Q 131.405555 205.992565 130.508055 205.992565 
Q 129.530555 205.992565 128.700555 205.457565 
Q 127.873055 204.920065 127.408055 203.890065 
Q 126.945555 202.857565 126.945555 201.647565 
Q 126.945555 199.865065 127.800555 198.330065 
Q 128.655555 196.795065 130.228055 195.885065 
Q 131.803055 194.975065 133.865555 194.960065 
z
M 129.373055 200.115065 
Q 129.310555 201.195065 129.310555 201.695065 
Q 129.310555 202.772565 129.518055 203.780065 
Q 129.725555 204.787565 130.085555 205.195065 
Q 130.343055 205.482565 130.695555 205.482565 
Q 131.053055 205.482565 131.333055 205.065065 
Q 131.615555 204.647565 131.615555 203.365065 
Q 131.615555 201.210065 131.093055 200.390065 
Q 130.758055 199.857565 130.185555 199.857565 
Q 129.873055 199.857565 129.373055 200.115065 
z
"/>
   </g>
   <g id="text_25">
    <path d="M 361.434697 255.903571 
L 361.434697 264.568571 
Q 361.434697 265.543571 361.519697 265.813571 
Q 361.607197 266.083571 361.879697 266.256071 
Q 362.154697 266.426071 362.757197 266.426071 
L 362.997197 266.426071 
L 362.997197 266.716071 
L 357.419697 266.716071 
L 357.419697 266.426071 
L 357.702197 266.426071 
Q 358.382197 266.426071 358.669697 266.271071 
Q 358.959697 266.113571 359.059697 265.841071 
Q 359.162197 265.568571 359.162197 264.568571 
L 359.162197 259.076071 
Q 359.162197 258.341071 359.092197 258.158571 
Q 359.022197 257.973571 358.829697 257.846071 
Q 358.639697 257.716071 358.389697 257.716071 
Q 357.989697 257.716071 357.419697 257.966071 
L 357.279697 257.683571 
L 361.177197 255.903571 
L 361.434697 255.903571 
z
M 371.739697 255.903571 
L 371.739697 256.121071 
Q 370.327197 256.481071 369.469697 257.048571 
Q 368.614697 257.613571 368.117197 258.423571 
Q 367.622197 259.231071 367.349697 260.426071 
Q 367.694697 260.193571 367.919697 260.121071 
Q 368.427197 259.966071 368.944697 259.966071 
Q 370.132197 259.966071 370.924697 260.831071 
Q 371.717197 261.693571 371.717197 263.183571 
Q 371.717197 264.231071 371.287197 265.106071 
Q 370.857197 265.981071 370.067197 266.458571 
Q 369.279697 266.936071 368.382197 266.936071 
Q 367.404697 266.936071 366.574697 266.401071 
Q 365.747197 265.863571 365.282197 264.833571 
Q 364.819697 263.801071 364.819697 262.591071 
Q 364.819697 260.808571 365.674697 259.273571 
Q 366.529697 257.738571 368.102197 256.828571 
Q 369.677197 255.918571 371.739697 255.903571 
z
M 367.247197 261.058571 
Q 367.184697 262.138571 367.184697 262.638571 
Q 367.184697 263.716071 367.392197 264.723571 
Q 367.599697 265.731071 367.959697 266.138571 
Q 368.217197 266.426071 368.569697 266.426071 
Q 368.927197 266.426071 369.207197 266.008571 
Q 369.489697 265.591071 369.489697 264.308571 
Q 369.489697 262.153571 368.967197 261.333571 
Q 368.632197 260.801071 368.059697 260.801071 
Q 367.747197 260.801071 367.247197 261.058571 
z
M 374.224697 264.308571 
Q 374.772197 264.308571 375.149697 264.693571 
Q 375.529697 265.076071 375.529697 265.613571 
Q 375.529697 266.153571 375.147197 266.533571 
Q 374.764697 266.911071 374.224697 266.911071 
Q 373.684697 266.911071 373.304697 266.533571 
Q 372.927197 266.153571 372.927197 265.613571 
Q 372.927197 265.076071 373.304697 264.693571 
Q 373.684697 264.308571 374.224697 264.308571 
z
M 381.434697 255.903571 
L 381.434697 264.568571 
Q 381.434697 265.543571 381.519697 265.813571 
Q 381.607197 266.083571 381.879697 266.256071 
Q 382.154697 266.426071 382.757197 266.426071 
L 382.997197 266.426071 
L 382.997197 266.716071 
L 377.419697 266.716071 
L 377.419697 266.426071 
L 377.702197 266.426071 
Q 378.382197 266.426071 378.669697 266.271071 
Q 378.959697 266.113571 379.059697 265.841071 
Q 379.162197 265.568571 379.162197 264.568571 
L 379.162197 259.076071 
Q 379.162197 258.341071 379.092197 258.158571 
Q 379.022197 257.973571 378.829697 257.846071 
Q 378.639697 257.716071 378.389697 257.716071 
Q 377.989697 257.716071 377.419697 257.966071 
L 377.279697 257.683571 
L 381.177197 255.903571 
L 381.434697 255.903571 
z
" style="stroke: #ffffff; stroke-width: 3.8"/>
    <path d="M 361.434697 255.903571 
L 361.434697 264.568571 
Q 361.434697 265.543571 361.519697 265.813571 
Q 361.607197 266.083571 361.879697 266.256071 
Q 362.154697 266.426071 362.757197 266.426071 
L 362.997197 266.426071 
L 362.997197 266.716071 
L 357.419697 266.716071 
L 357.419697 266.426071 
L 357.702197 266.426071 
Q 358.382197 266.426071 358.669697 266.271071 
Q 358.959697 266.113571 359.059697 265.841071 
Q 359.162197 265.568571 359.162197 264.568571 
L 359.162197 259.076071 
Q 359.162197 258.341071 359.092197 258.158571 
Q 359.022197 257.973571 358.829697 257.846071 
Q 358.639697 257.716071 358.389697 257.716071 
Q 357.989697 257.716071 357.419697 257.966071 
L 357.279697 257.683571 
L 361.177197 255.903571 
L 361.434697 255.903571 
z
M 371.739697 255.903571 
L 371.739697 256.121071 
Q 370.327197 256.481071 369.469697 257.048571 
Q 368.614697 257.613571 368.117197 258.423571 
Q 367.622197 259.231071 367.349697 260.426071 
Q 367.694697 260.193571 367.919697 260.121071 
Q 368.427197 259.966071 368.944697 259.966071 
Q 370.132197 259.966071 370.924697 260.831071 
Q 371.717197 261.693571 371.717197 263.183571 
Q 371.717197 264.231071 371.287197 265.106071 
Q 370.857197 265.981071 370.067197 266.458571 
Q 369.279697 266.936071 368.382197 266.936071 
Q 367.404697 266.936071 366.574697 266.401071 
Q 365.747197 265.863571 365.282197 264.833571 
Q 364.819697 263.801071 364.819697 262.591071 
Q 364.819697 260.808571 365.674697 259.273571 
Q 366.529697 257.738571 368.102197 256.828571 
Q 369.677197 255.918571 371.739697 255.903571 
z
M 367.247197 261.058571 
Q 367.184697 262.138571 367.184697 262.638571 
Q 367.184697 263.716071 367.392197 264.723571 
Q 367.599697 265.731071 367.959697 266.138571 
Q 368.217197 266.426071 368.569697 266.426071 
Q 368.927197 266.426071 369.207197 266.008571 
Q 369.489697 265.591071 369.489697 264.308571 
Q 369.489697 262.153571 368.967197 261.333571 
Q 368.632197 260.801071 368.059697 260.801071 
Q 367.747197 260.801071 367.247197 261.058571 
z
M 374.224697 264.308571 
Q 374.772197 264.308571 375.149697 264.693571 
Q 375.529697 265.076071 375.529697 265.613571 
Q 375.529697 266.153571 375.147197 266.533571 
Q 374.764697 266.911071 374.224697 266.911071 
Q 373.684697 266.911071 373.304697 266.533571 
Q 372.927197 266.153571 372.927197 265.613571 
Q 372.927197 265.076071 373.304697 264.693571 
Q 373.684697 264.308571 374.224697 264.308571 
z
M 381.434697 255.903571 
L 381.434697 264.568571 
Q 381.434697 265.543571 381.519697 265.813571 
Q 381.607197 266.083571 381.879697 266.256071 
Q 382.154697 266.426071 382.757197 266.426071 
L 382.997197 266.426071 
L 382.997197 266.716071 
L 377.419697 266.716071 
L 377.419697 266.426071 
L 377.702197 266.426071 
Q 378.382197 266.426071 378.669697 266.271071 
Q 378.959697 266.113571 379.059697 265.841071 
Q 379.162197 265.568571 379.162197 264.568571 
L 379.162197 259.076071 
Q 379.162197 258.341071 379.092197 258.158571 
Q 379.022197 257.973571 378.829697 257.846071 
Q 378.639697 257.716071 378.389697 257.716071 
Q 377.989697 257.716071 377.419697 257.966071 
L 377.279697 257.683571 
L 381.177197 255.903571 
L 381.434697 255.903571 
z
"/>
   </g>
   <g id="text_26">
    <path d="M 356.622197 182.281752 
L 361.654697 175.461752 
L 362.607197 175.461752 
L 362.607197 182.281752 
L 363.577197 182.281752 
L 363.577197 183.899252 
L 362.607197 183.899252 
L 362.607197 186.274252 
L 360.459697 186.274252 
L 360.459697 183.899252 
L 356.622197 183.899252 
L 356.622197 182.281752 
z
M 357.382197 182.281752 
L 360.459697 182.281752 
L 360.459697 178.101752 
L 357.382197 182.281752 
z
M 370.849697 186.274252 
L 364.614697 186.274252 
L 364.614697 186.101752 
Q 367.482197 182.689252 368.094697 181.509252 
Q 368.709697 180.329252 368.709697 179.204252 
Q 368.709697 178.384252 368.202197 177.841752 
Q 367.694697 177.296752 366.959697 177.296752 
Q 365.757197 177.296752 365.092197 178.501752 
L 364.802197 178.399252 
Q 365.224697 176.899252 366.084697 176.181752 
Q 366.944697 175.461752 368.069697 175.461752 
Q 368.872197 175.461752 369.537197 175.836752 
Q 370.202197 176.211752 370.577197 176.864252 
Q 370.952197 177.516752 370.952197 178.086752 
Q 370.952197 179.126752 370.372197 180.196752 
Q 369.584697 181.641752 366.927197 184.226752 
L 369.217197 184.226752 
Q 370.059697 184.226752 370.314697 184.156752 
Q 370.569697 184.086752 370.732197 183.919252 
Q 370.897197 183.751752 371.162197 183.211752 
L 371.444697 183.211752 
L 370.849697 186.274252 
z
M 374.224697 183.866752 
Q 374.772197 183.866752 375.149697 184.251752 
Q 375.529697 184.634252 375.529697 185.171752 
Q 375.529697 185.711752 375.147197 186.091752 
Q 374.764697 186.469252 374.224697 186.469252 
Q 373.684697 186.469252 373.304697 186.091752 
Q 372.927197 185.711752 372.927197 185.171752 
Q 372.927197 184.634252 373.304697 184.251752 
Q 373.684697 183.866752 374.224697 183.866752 
z
M 376.717197 186.494252 
L 376.717197 186.274252 
Q 378.014697 185.976752 378.917197 185.399252 
Q 379.819697 184.821752 380.344697 183.969252 
Q 380.872197 183.116752 381.084697 182.009252 
Q 380.599697 182.259252 380.259697 182.356752 
Q 379.919697 182.454252 379.544697 182.454252 
Q 378.342197 182.454252 377.539697 181.586752 
Q 376.739697 180.719252 376.739697 179.211752 
Q 376.739697 178.164252 377.172197 177.294252 
Q 377.607197 176.421752 378.412197 175.941752 
Q 379.217197 175.461752 380.084697 175.461752 
Q 381.014697 175.461752 381.842197 175.994252 
Q 382.669697 176.524252 383.162197 177.531752 
Q 383.654697 178.539252 383.654697 179.829252 
Q 383.654697 181.501752 382.852197 183.034252 
Q 382.052197 184.564252 380.467197 185.489252 
Q 378.882197 186.414252 376.717197 186.494252 
z
M 381.202197 181.351752 
Q 381.279697 180.476752 381.279697 179.814252 
Q 381.279697 178.391752 380.952197 177.164252 
Q 380.764697 176.484252 380.397197 176.164252 
Q 380.202197 175.991752 379.889697 175.991752 
Q 379.497197 175.991752 379.279697 176.329252 
Q 378.974697 176.789252 378.974697 178.086752 
Q 378.974697 180.251752 379.489697 181.071752 
Q 379.827197 181.601752 380.397197 181.601752 
Q 380.702197 181.601752 381.202197 181.351752 
z
" style="stroke: #ffffff; stroke-width: 3.8"/>
    <path d="M 356.622197 182.281752 
L 361.654697 175.461752 
L 362.607197 175.461752 
L 362.607197 182.281752 
L 363.577197 182.281752 
L 363.577197 183.899252 
L 362.607197 183.899252 
L 362.607197 186.274252 
L 360.459697 186.274252 
L 360.459697 183.899252 
L 356.622197 183.899252 
L 356.622197 182.281752 
z
M 357.382197 182.281752 
L 360.459697 182.281752 
L 360.459697 178.101752 
L 357.382197 182.281752 
z
M 370.849697 186.274252 
L 364.614697 186.274252 
L 364.614697 186.101752 
Q 367.482197 182.689252 368.094697 181.509252 
Q 368.709697 180.329252 368.709697 179.204252 
Q 368.709697 178.384252 368.202197 177.841752 
Q 367.694697 177.296752 366.959697 177.296752 
Q 365.757197 177.296752 365.092197 178.501752 
L 364.802197 178.399252 
Q 365.224697 176.899252 366.084697 176.181752 
Q 366.944697 175.461752 368.069697 175.461752 
Q 368.872197 175.461752 369.537197 175.836752 
Q 370.202197 176.211752 370.577197 176.864252 
Q 370.952197 177.516752 370.952197 178.086752 
Q 370.952197 179.126752 370.372197 180.196752 
Q 369.584697 181.641752 366.927197 184.226752 
L 369.217197 184.226752 
Q 370.059697 184.226752 370.314697 184.156752 
Q 370.569697 184.086752 370.732197 183.919252 
Q 370.897197 183.751752 371.162197 183.211752 
L 371.444697 183.211752 
L 370.849697 186.274252 
z
M 374.224697 183.866752 
Q 374.772197 183.866752 375.149697 184.251752 
Q 375.529697 184.634252 375.529697 185.171752 
Q 375.529697 185.711752 375.147197 186.091752 
Q 374.764697 186.469252 374.224697 186.469252 
Q 373.684697 186.469252 373.304697 186.091752 
Q 372.927197 185.711752 372.927197 185.171752 
Q 372.927197 184.634252 373.304697 184.251752 
Q 373.684697 183.866752 374.224697 183.866752 
z
M 376.717197 186.494252 
L 376.717197 186.274252 
Q 378.014697 185.976752 378.917197 185.399252 
Q 379.819697 184.821752 380.344697 183.969252 
Q 380.872197 183.116752 381.084697 182.009252 
Q 380.599697 182.259252 380.259697 182.356752 
Q 379.919697 182.454252 379.544697 182.454252 
Q 378.342197 182.454252 377.539697 181.586752 
Q 376.739697 180.719252 376.739697 179.211752 
Q 376.739697 178.164252 377.172197 177.294252 
Q 377.607197 176.421752 378.412197 175.941752 
Q 379.217197 175.461752 380.084697 175.461752 
Q 381.014697 175.461752 381.842197 175.994252 
Q 382.669697 176.524252 383.162197 177.531752 
Q 383.654697 178.539252 383.654697 179.829252 
Q 383.654697 181.501752 382.852197 183.034252 
Q 382.052197 184.564252 380.467197 185.489252 
Q 378.882197 186.414252 376.717197 186.494252 
z
M 381.202197 181.351752 
Q 381.279697 180.476752 381.279697 179.814252 
Q 381.279697 178.391752 380.952197 177.164252 
Q 380.764697 176.484252 380.397197 176.164252 
Q 380.202197 175.991752 379.889697 175.991752 
Q 379.497197 175.991752 379.279697 176.329252 
Q 378.974697 176.789252 378.974697 178.086752 
Q 378.974697 180.251752 379.489697 181.071752 
Q 379.827197 181.601752 380.397197 181.601752 
Q 380.702197 181.601752 381.202197 181.351752 
z
"/>
   </g>
   <g id="text_27">
    <path d="M 361.677197 107.640316 
Q 362.794697 108.460316 363.227197 109.167816 
Q 363.662197 109.875316 363.662197 110.790316 
Q 363.662197 112.070316 362.697197 112.957816 
Q 361.732197 113.845316 360.077197 113.845316 
Q 358.507197 113.845316 357.647197 113.072816 
Q 356.787197 112.297816 356.787197 111.180316 
Q 356.787197 110.327816 357.282197 109.687816 
Q 357.779697 109.047816 358.934697 108.515316 
Q 357.677197 107.555316 357.322197 106.945316 
Q 356.967197 106.335316 356.967197 105.530316 
Q 356.967197 104.467816 357.869697 103.660316 
Q 358.772197 102.852816 360.342197 102.852816 
Q 361.857197 102.852816 362.672197 103.567816 
Q 363.489697 104.280316 363.489697 105.280316 
Q 363.489697 106.030316 363.047197 106.605316 
Q 362.607197 107.180316 361.677197 107.640316 
z
M 361.084697 107.242816 
Q 361.372197 106.852816 361.512197 106.367816 
Q 361.654697 105.882816 361.654697 105.305316 
Q 361.654697 104.290316 361.217197 103.750316 
Q 360.889697 103.335316 360.309697 103.335316 
Q 359.787197 103.335316 359.419697 103.715316 
Q 359.052197 104.092816 359.052197 104.655316 
Q 359.052197 105.227816 359.462197 105.840316 
Q 359.872197 106.452816 361.084697 107.242816 
z
M 359.522197 108.890316 
Q 359.279697 109.110316 359.177197 109.290316 
Q 359.022197 109.562816 358.897197 110.087816 
Q 358.772197 110.610316 358.772197 111.180316 
Q 358.772197 111.915316 358.959697 112.410316 
Q 359.147197 112.905316 359.494697 113.125316 
Q 359.842197 113.342816 360.209697 113.342816 
Q 360.779697 113.342816 361.169697 112.925316 
Q 361.559697 112.507816 361.559697 111.780316 
Q 361.559697 110.265316 359.522197 108.890316 
z
M 366.592197 108.312816 
L 366.592197 108.040316 
Q 367.482197 107.780316 367.824697 107.557816 
Q 368.169697 107.335316 368.419697 106.880316 
Q 368.669697 106.422816 368.669697 105.952816 
Q 368.669697 105.305316 368.197197 104.840316 
Q 367.724697 104.375316 367.022197 104.375316 
Q 365.927197 104.375316 365.162197 105.530316 
L 364.872197 105.430316 
Q 365.434697 104.125316 366.314697 103.470316 
Q 367.194697 102.812816 368.272197 102.812816 
Q 369.372197 102.812816 370.087197 103.485316 
Q 370.802197 104.155316 370.802197 105.055316 
Q 370.802197 105.640316 370.469697 106.185316 
Q 370.139697 106.727816 369.427197 107.140316 
Q 370.342197 107.585316 370.822197 108.237816 
Q 371.302197 108.890316 371.302197 109.875316 
Q 371.302197 111.530316 370.102197 112.692816 
Q 368.904697 113.852816 366.889697 113.852816 
Q 365.544697 113.852816 364.927197 113.405316 
Q 364.482197 113.092816 364.482197 112.602816 
Q 364.482197 112.242816 364.739697 111.990316 
Q 364.997197 111.735316 365.334697 111.735316 
Q 365.592197 111.735316 365.819697 111.842816 
Q 365.944697 111.905316 366.704697 112.527816 
Q 367.467197 113.147816 368.132197 113.147816 
Q 368.709697 113.147816 369.122197 112.692816 
Q 369.537197 112.235316 369.537197 111.530316 
Q 369.537197 110.460316 368.787197 109.557816 
Q 368.037197 108.655316 366.592197 108.312816 
z
M 374.224697 111.217816 
Q 374.772197 111.217816 375.149697 111.602816 
Q 375.529697 111.985316 375.529697 112.522816 
Q 375.529697 113.062816 375.147197 113.442816 
Q 374.764697 113.820316 374.224697 113.820316 
Q 373.684697 113.820316 373.304697 113.442816 
Q 372.927197 113.062816 372.927197 112.522816 
Q 372.927197 111.985316 373.304697 111.602816 
Q 373.684697 111.217816 374.224697 111.217816 
z
M 381.434697 102.812816 
L 381.434697 111.477816 
Q 381.434697 112.452816 381.519697 112.722816 
Q 381.607197 112.992816 381.879697 113.165316 
Q 382.154697 113.335316 382.757197 113.335316 
L 382.997197 113.335316 
L 382.997197 113.625316 
L 377.419697 113.625316 
L 377.419697 113.335316 
L 377.702197 113.335316 
Q 378.382197 113.335316 378.669697 113.180316 
Q 378.959697 113.022816 379.059697 112.750316 
Q 379.162197 112.477816 379.162197 111.477816 
L 379.162197 105.985316 
Q 379.162197 105.250316 379.092197 105.067816 
Q 379.022197 104.882816 378.829697 104.755316 
Q 378.639697 104.625316 378.389697 104.625316 
Q 377.989697 104.625316 377.419697 104.875316 
L 377.279697 104.592816 
L 381.177197 102.812816 
L 381.434697 102.812816 
z
" style="stroke: #ffffff; stroke-width: 3.8"/>
    <path d="M 361.677197 107.640316 
Q 362.794697 108.460316 363.227197 109.167816 
Q 363.662197 109.875316 363.662197 110.790316 
Q 363.662197 112.070316 362.697197 112.957816 
Q 361.732197 113.845316 360.077197 113.845316 
Q 358.507197 113.845316 357.647197 113.072816 
Q 356.787197 112.297816 356.787197 111.180316 
Q 356.787197 110.327816 357.282197 109.687816 
Q 357.779697 109.047816 358.934697 108.515316 
Q 357.677197 107.555316 357.322197 106.945316 
Q 356.967197 106.335316 356.967197 105.530316 
Q 356.967197 104.467816 357.869697 103.660316 
Q 358.772197 102.852816 360.342197 102.852816 
Q 361.857197 102.852816 362.672197 103.567816 
Q 363.489697 104.280316 363.489697 105.280316 
Q 363.489697 106.030316 363.047197 106.605316 
Q 362.607197 107.180316 361.677197 107.640316 
z
M 361.084697 107.242816 
Q 361.372197 106.852816 361.512197 106.367816 
Q 361.654697 105.882816 361.654697 105.305316 
Q 361.654697 104.290316 361.217197 103.750316 
Q 360.889697 103.335316 360.309697 103.335316 
Q 359.787197 103.335316 359.419697 103.715316 
Q 359.052197 104.092816 359.052197 104.655316 
Q 359.052197 105.227816 359.462197 105.840316 
Q 359.872197 106.452816 361.084697 107.242816 
z
M 359.522197 108.890316 
Q 359.279697 109.110316 359.177197 109.290316 
Q 359.022197 109.562816 358.897197 110.087816 
Q 358.772197 110.610316 358.772197 111.180316 
Q 358.772197 111.915316 358.959697 112.410316 
Q 359.147197 112.905316 359.494697 113.125316 
Q 359.842197 113.342816 360.209697 113.342816 
Q 360.779697 113.342816 361.169697 112.925316 
Q 361.559697 112.507816 361.559697 111.780316 
Q 361.559697 110.265316 359.522197 108.890316 
z
M 366.592197 108.312816 
L 366.592197 108.040316 
Q 367.482197 107.780316 367.824697 107.557816 
Q 368.169697 107.335316 368.419697 106.880316 
Q 368.669697 106.422816 368.669697 105.952816 
Q 368.669697 105.305316 368.197197 104.840316 
Q 367.724697 104.375316 367.022197 104.375316 
Q 365.927197 104.375316 365.162197 105.530316 
L 364.872197 105.430316 
Q 365.434697 104.125316 366.314697 103.470316 
Q 367.194697 102.812816 368.272197 102.812816 
Q 369.372197 102.812816 370.087197 103.485316 
Q 370.802197 104.155316 370.802197 105.055316 
Q 370.802197 105.640316 370.469697 106.185316 
Q 370.139697 106.727816 369.427197 107.140316 
Q 370.342197 107.585316 370.822197 108.237816 
Q 371.302197 108.890316 371.302197 109.875316 
Q 371.302197 111.530316 370.102197 112.692816 
Q 368.904697 113.852816 366.889697 113.852816 
Q 365.544697 113.852816 364.927197 113.405316 
Q 364.482197 113.092816 364.482197 112.602816 
Q 364.482197 112.242816 364.739697 111.990316 
Q 364.997197 111.735316 365.334697 111.735316 
Q 365.592197 111.735316 365.819697 111.842816 
Q 365.944697 111.905316 366.704697 112.527816 
Q 367.467197 113.147816 368.132197 113.147816 
Q 368.709697 113.147816 369.122197 112.692816 
Q 369.537197 112.235316 369.537197 111.530316 
Q 369.537197 110.460316 368.787197 109.557816 
Q 368.037197 108.655316 366.592197 108.312816 
z
M 374.224697 111.217816 
Q 374.772197 111.217816 375.149697 111.602816 
Q 375.529697 111.985316 375.529697 112.522816 
Q 375.529697 113.062816 375.147197 113.442816 
Q 374.764697 113.820316 374.224697 113.820316 
Q 373.684697 113.820316 373.304697 113.442816 
Q 372.927197 113.062816 372.927197 112.522816 
Q 372.927197 111.985316 373.304697 111.602816 
Q 373.684697 111.217816 374.224697 111.217816 
z
M 381.434697 102.812816 
L 381.434697 111.477816 
Q 381.434697 112.452816 381.519697 112.722816 
Q 381.607197 112.992816 381.879697 113.165316 
Q 382.154697 113.335316 382.757197 113.335316 
L 382.997197 113.335316 
L 382.997197 113.625316 
L 377.419697 113.625316 
L 377.419697 113.335316 
L 377.702197 113.335316 
Q 378.382197 113.335316 378.669697 113.180316 
Q 378.959697 113.022816 379.059697 112.750316 
Q 379.162197 112.477816 379.162197 111.477816 
L 379.162197 105.985316 
Q 379.162197 105.250316 379.092197 105.067816 
Q 379.022197 104.882816 378.829697 104.755316 
Q 378.639697 104.625316 378.389697 104.625316 
Q 377.989697 104.625316 377.419697 104.875316 
L 377.279697 104.592816 
L 381.177197 102.812816 
L 381.434697 102.812816 
z
"/>
   </g>
   <g id="text_28">
    <path d="M 574.521172 200.854553 
L 574.521172 200.582053 
Q 575.411172 200.322053 575.753672 200.099553 
Q 576.098672 199.877053 576.348672 199.422053 
Q 576.598672 198.964553 576.598672 198.494553 
Q 576.598672 197.847053 576.126172 197.382053 
Q 575.653672 196.917053 574.951172 196.917053 
Q 573.856172 196.917053 573.091172 198.072053 
L 572.801172 197.972053 
Q 573.363672 196.667053 574.243672 196.012053 
Q 575.123672 195.354553 576.201172 195.354553 
Q 577.301172 195.354553 578.016172 196.027053 
Q 578.731172 196.697053 578.731172 197.597053 
Q 578.731172 198.182053 578.398672 198.727053 
Q 578.068672 199.269553 577.356172 199.682053 
Q 578.271172 200.127053 578.751172 200.779553 
Q 579.231172 201.432053 579.231172 202.417053 
Q 579.231172 204.072053 578.031172 205.234553 
Q 576.833672 206.394553 574.818672 206.394553 
Q 573.473672 206.394553 572.856172 205.947053 
Q 572.411172 205.634553 572.411172 205.144553 
Q 572.411172 204.784553 572.668672 204.532053 
Q 572.926172 204.277053 573.263672 204.277053 
Q 573.521172 204.277053 573.748672 204.384553 
Q 573.873672 204.447053 574.633672 205.069553 
Q 575.396172 205.689553 576.061172 205.689553 
Q 576.638672 205.689553 577.051172 205.234553 
Q 577.466172 204.777053 577.466172 204.072053 
Q 577.466172 203.002053 576.716172 202.099553 
Q 575.966172 201.197053 574.521172 200.854553 
z
M 585.363672 195.354553 
L 585.363672 204.019553 
Q 585.363672 204.994553 585.448672 205.264553 
Q 585.536172 205.534553 585.808672 205.707053 
Q 586.083672 205.877053 586.686172 205.877053 
L 586.926172 205.877053 
L 586.926172 206.167053 
L 581.348672 206.167053 
L 581.348672 205.877053 
L 581.631172 205.877053 
Q 582.311172 205.877053 582.598672 205.722053 
Q 582.888672 205.564553 582.988672 205.292053 
Q 583.091172 205.019553 583.091172 204.019553 
L 583.091172 198.527053 
Q 583.091172 197.792053 583.021172 197.609553 
Q 582.951172 197.424553 582.758672 197.297053 
Q 582.568672 197.167053 582.318672 197.167053 
Q 581.918672 197.167053 581.348672 197.417053 
L 581.208672 197.134553 
L 585.106172 195.354553 
L 585.363672 195.354553 
z
M 590.153672 203.759553 
Q 590.701172 203.759553 591.078672 204.144553 
Q 591.458672 204.527053 591.458672 205.064553 
Q 591.458672 205.604553 591.076172 205.984553 
Q 590.693672 206.362053 590.153672 206.362053 
Q 589.613672 206.362053 589.233672 205.984553 
Q 588.856172 205.604553 588.856172 205.064553 
Q 588.856172 204.527053 589.233672 204.144553 
Q 589.613672 203.759553 590.153672 203.759553 
z
M 599.568672 200.869553 
Q 599.568672 202.457053 599.123672 203.832053 
Q 598.856172 204.674553 598.406172 205.214553 
Q 597.958672 205.752053 597.388672 206.069553 
Q 596.818672 206.387053 596.146172 206.387053 
Q 595.381172 206.387053 594.763672 205.997053 
Q 594.146172 205.604553 593.668672 204.877053 
Q 593.326172 204.347053 593.068672 203.464553 
Q 592.731172 202.269553 592.731172 200.994553 
Q 592.731172 199.269553 593.216172 197.822053 
Q 593.613672 196.627053 594.426172 195.992053 
Q 595.238672 195.354553 596.146172 195.354553 
Q 597.068672 195.354553 597.868672 195.984553 
Q 598.668672 196.612053 599.043672 197.674553 
Q 599.568672 199.134553 599.568672 200.869553 
z
M 597.161172 200.854553 
Q 597.161172 198.072053 597.131172 197.612053 
Q 597.051172 196.527053 596.756172 196.144553 
Q 596.561172 195.894553 596.123672 195.894553 
Q 595.786172 195.894553 595.591172 196.082053 
Q 595.301172 196.354553 595.198672 197.047053 
Q 595.098672 197.737053 595.098672 201.869553 
Q 595.098672 204.119553 595.256172 204.884553 
Q 595.373672 205.439553 595.591172 205.627053 
Q 595.811172 205.814553 596.168672 205.814553 
Q 596.561172 205.814553 596.756172 205.564553 
Q 597.083672 205.127053 597.131172 204.214553 
L 597.161172 200.854553 
z
" style="stroke: #ffffff; stroke-width: 3.8"/>
    <path d="M 574.521172 200.854553 
L 574.521172 200.582053 
Q 575.411172 200.322053 575.753672 200.099553 
Q 576.098672 199.877053 576.348672 199.422053 
Q 576.598672 198.964553 576.598672 198.494553 
Q 576.598672 197.847053 576.126172 197.382053 
Q 575.653672 196.917053 574.951172 196.917053 
Q 573.856172 196.917053 573.091172 198.072053 
L 572.801172 197.972053 
Q 573.363672 196.667053 574.243672 196.012053 
Q 575.123672 195.354553 576.201172 195.354553 
Q 577.301172 195.354553 578.016172 196.027053 
Q 578.731172 196.697053 578.731172 197.597053 
Q 578.731172 198.182053 578.398672 198.727053 
Q 578.068672 199.269553 577.356172 199.682053 
Q 578.271172 200.127053 578.751172 200.779553 
Q 579.231172 201.432053 579.231172 202.417053 
Q 579.231172 204.072053 578.031172 205.234553 
Q 576.833672 206.394553 574.818672 206.394553 
Q 573.473672 206.394553 572.856172 205.947053 
Q 572.411172 205.634553 572.411172 205.144553 
Q 572.411172 204.784553 572.668672 204.532053 
Q 572.926172 204.277053 573.263672 204.277053 
Q 573.521172 204.277053 573.748672 204.384553 
Q 573.873672 204.447053 574.633672 205.069553 
Q 575.396172 205.689553 576.061172 205.689553 
Q 576.638672 205.689553 577.051172 205.234553 
Q 577.466172 204.777053 577.466172 204.072053 
Q 577.466172 203.002053 576.716172 202.099553 
Q 575.966172 201.197053 574.521172 200.854553 
z
M 585.363672 195.354553 
L 585.363672 204.019553 
Q 585.363672 204.994553 585.448672 205.264553 
Q 585.536172 205.534553 585.808672 205.707053 
Q 586.083672 205.877053 586.686172 205.877053 
L 586.926172 205.877053 
L 586.926172 206.167053 
L 581.348672 206.167053 
L 581.348672 205.877053 
L 581.631172 205.877053 
Q 582.311172 205.877053 582.598672 205.722053 
Q 582.888672 205.564553 582.988672 205.292053 
Q 583.091172 205.019553 583.091172 204.019553 
L 583.091172 198.527053 
Q 583.091172 197.792053 583.021172 197.609553 
Q 582.951172 197.424553 582.758672 197.297053 
Q 582.568672 197.167053 582.318672 197.167053 
Q 581.918672 197.167053 581.348672 197.417053 
L 581.208672 197.134553 
L 585.106172 195.354553 
L 585.363672 195.354553 
z
M 590.153672 203.759553 
Q 590.701172 203.759553 591.078672 204.144553 
Q 591.458672 204.527053 591.458672 205.064553 
Q 591.458672 205.604553 591.076172 205.984553 
Q 590.693672 206.362053 590.153672 206.362053 
Q 589.613672 206.362053 589.233672 205.984553 
Q 588.856172 205.604553 588.856172 205.064553 
Q 588.856172 204.527053 589.233672 204.144553 
Q 589.613672 203.759553 590.153672 203.759553 
z
M 599.568672 200.869553 
Q 599.568672 202.457053 599.123672 203.832053 
Q 598.856172 204.674553 598.406172 205.214553 
Q 597.958672 205.752053 597.388672 206.069553 
Q 596.818672 206.387053 596.146172 206.387053 
Q 595.381172 206.387053 594.763672 205.997053 
Q 594.146172 205.604553 593.668672 204.877053 
Q 593.326172 204.347053 593.068672 203.464553 
Q 592.731172 202.269553 592.731172 200.994553 
Q 592.731172 199.269553 593.216172 197.822053 
Q 593.613672 196.627053 594.426172 195.992053 
Q 595.238672 195.354553 596.146172 195.354553 
Q 597.068672 195.354553 597.868672 195.984553 
Q 598.668672 196.612053 599.043672 197.674553 
Q 599.568672 199.134553 599.568672 200.869553 
z
M 597.161172 200.854553 
Q 597.161172 198.072053 597.131172 197.612053 
Q 597.051172 196.527053 596.756172 196.144553 
Q 596.561172 195.894553 596.123672 195.894553 
Q 595.786172 195.894553 595.591172 196.082053 
Q 595.301172 196.354553 595.198672 197.047053 
Q 595.098672 197.737053 595.098672 201.869553 
Q 595.098672 204.119553 595.256172 204.884553 
Q 595.373672 205.439553 595.591172 205.627053 
Q 595.811172 205.814553 596.168672 205.814553 
Q 596.561172 205.814553 596.756172 205.564553 
Q 597.083672 205.127053 597.131172 204.214553 
L 597.161172 200.854553 
z
"/>
   </g>
   <g id="text_29">
    <path d="M 562.131138 361.962413 
L 562.131138 370.08585 
Q 562.131138 370.999913 562.210825 371.253038 
Q 562.292856 371.506163 562.548325 371.667882 
Q 562.806138 371.827257 563.370981 371.827257 
L 563.595981 371.827257 
L 563.595981 372.099132 
L 558.367075 372.099132 
L 558.367075 371.827257 
L 558.631919 371.827257 
Q 559.269419 371.827257 559.53895 371.681944 
Q 559.810825 371.534288 559.904575 371.278819 
Q 560.000669 371.02335 560.000669 370.08585 
L 560.000669 364.936632 
Q 560.000669 364.247569 559.935044 364.076475 
Q 559.869419 363.903038 559.68895 363.783507 
Q 559.510825 363.661632 559.27645 363.661632 
Q 558.90145 363.661632 558.367075 363.896007 
L 558.235825 363.631163 
L 561.889731 361.962413 
L 562.131138 361.962413 
z
M 566.621763 369.8421 
Q 567.135044 369.8421 567.48895 370.203038 
Q 567.8452 370.561632 567.8452 371.065538 
Q 567.8452 371.571788 567.486606 371.928038 
Q 567.128013 372.281944 566.621763 372.281944 
Q 566.115513 372.281944 565.759263 371.928038 
Q 565.405356 371.571788 565.405356 371.065538 
Q 565.405356 370.561632 565.759263 370.203038 
Q 566.115513 369.8421 566.621763 369.8421 
z
M 568.958481 372.305382 
L 568.958481 372.099132 
Q 570.174888 371.820225 571.020981 371.278819 
Q 571.867075 370.737413 572.359263 369.938194 
Q 572.853794 369.138975 573.053013 368.100694 
Q 572.598325 368.335069 572.279575 368.426475 
Q 571.960825 368.517882 571.609263 368.517882 
Q 570.481919 368.517882 569.729575 367.7046 
Q 568.979575 366.891319 568.979575 365.478038 
Q 568.979575 364.496007 569.385044 363.680382 
Q 569.792856 362.862413 570.547544 362.412413 
Q 571.302231 361.962413 572.115513 361.962413 
Q 572.987388 361.962413 573.763169 362.461632 
Q 574.53895 362.958507 575.000669 363.903038 
Q 575.462388 364.847569 575.462388 366.056944 
Q 575.462388 367.624913 574.710044 369.061632 
Q 573.960044 370.496007 572.474106 371.363194 
Q 570.988169 372.230382 568.958481 372.305382 
z
M 573.163169 367.484288 
Q 573.235825 366.663975 573.235825 366.042882 
Q 573.235825 364.709288 572.928794 363.558507 
Q 572.753013 362.921007 572.408481 362.621007 
Q 572.225669 362.459288 571.9327 362.459288 
Q 571.564731 362.459288 571.360825 362.775694 
Q 571.074888 363.206944 571.074888 364.42335 
Q 571.074888 366.453038 571.5577 367.221788 
Q 571.874106 367.718663 572.408481 367.718663 
Q 572.694419 367.718663 573.163169 367.484288 
z
" style="fill: #404040; stroke: #ffffff; stroke-width: 3.8"/>
    <path d="M 562.131138 361.962413 
L 562.131138 370.08585 
Q 562.131138 370.999913 562.210825 371.253038 
Q 562.292856 371.506163 562.548325 371.667882 
Q 562.806138 371.827257 563.370981 371.827257 
L 563.595981 371.827257 
L 563.595981 372.099132 
L 558.367075 372.099132 
L 558.367075 371.827257 
L 558.631919 371.827257 
Q 559.269419 371.827257 559.53895 371.681944 
Q 559.810825 371.534288 559.904575 371.278819 
Q 560.000669 371.02335 560.000669 370.08585 
L 560.000669 364.936632 
Q 560.000669 364.247569 559.935044 364.076475 
Q 559.869419 363.903038 559.68895 363.783507 
Q 559.510825 363.661632 559.27645 363.661632 
Q 558.90145 363.661632 558.367075 363.896007 
L 558.235825 363.631163 
L 561.889731 361.962413 
L 562.131138 361.962413 
z
M 566.621763 369.8421 
Q 567.135044 369.8421 567.48895 370.203038 
Q 567.8452 370.561632 567.8452 371.065538 
Q 567.8452 371.571788 567.486606 371.928038 
Q 567.128013 372.281944 566.621763 372.281944 
Q 566.115513 372.281944 565.759263 371.928038 
Q 565.405356 371.571788 565.405356 371.065538 
Q 565.405356 370.561632 565.759263 370.203038 
Q 566.115513 369.8421 566.621763 369.8421 
z
M 568.958481 372.305382 
L 568.958481 372.099132 
Q 570.174888 371.820225 571.020981 371.278819 
Q 571.867075 370.737413 572.359263 369.938194 
Q 572.853794 369.138975 573.053013 368.100694 
Q 572.598325 368.335069 572.279575 368.426475 
Q 571.960825 368.517882 571.609263 368.517882 
Q 570.481919 368.517882 569.729575 367.7046 
Q 568.979575 366.891319 568.979575 365.478038 
Q 568.979575 364.496007 569.385044 363.680382 
Q 569.792856 362.862413 570.547544 362.412413 
Q 571.302231 361.962413 572.115513 361.962413 
Q 572.987388 361.962413 573.763169 362.461632 
Q 574.53895 362.958507 575.000669 363.903038 
Q 575.462388 364.847569 575.462388 366.056944 
Q 575.462388 367.624913 574.710044 369.061632 
Q 573.960044 370.496007 572.474106 371.363194 
Q 570.988169 372.230382 568.958481 372.305382 
z
M 573.163169 367.484288 
Q 573.235825 366.663975 573.235825 366.042882 
Q 573.235825 364.709288 572.928794 363.558507 
Q 572.753013 362.921007 572.408481 362.621007 
Q 572.225669 362.459288 571.9327 362.459288 
Q 571.564731 362.459288 571.360825 362.775694 
Q 571.074888 363.206944 571.074888 364.42335 
Q 571.074888 366.453038 571.5577 367.221788 
Q 571.874106 367.718663 572.408481 367.718663 
Q 572.694419 367.718663 573.163169 367.484288 
z
" style="fill: #404040"/>
   </g>
   <g id="text_30">
    <path d="M 567.635205 298.761059 
L 567.635205 306.884496 
Q 567.635205 307.798559 567.714893 308.051684 
Q 567.796924 308.304809 568.052393 308.466528 
Q 568.310205 308.625903 568.875049 308.625903 
L 569.100049 308.625903 
L 569.100049 308.897778 
L 563.871143 308.897778 
L 563.871143 308.625903 
L 564.135986 308.625903 
Q 564.773486 308.625903 565.043018 308.48059 
Q 565.314893 308.332934 565.408643 308.077465 
Q 565.504736 307.821996 565.504736 306.884496 
L 565.504736 301.735278 
Q 565.504736 301.046215 565.439111 300.875121 
Q 565.373486 300.701684 565.193018 300.582153 
Q 565.014893 300.460278 564.780518 300.460278 
Q 564.405518 300.460278 563.871143 300.694653 
L 563.739893 300.429809 
L 567.393799 298.761059 
L 567.635205 298.761059 
z
M 572.535986 298.964965 
L 577.185986 298.964965 
L 576.447705 300.856371 
L 572.535986 300.856371 
L 572.16333 301.845434 
Q 574.689893 301.939184 576.051611 303.104028 
Q 577.171924 304.062621 577.171924 305.492309 
Q 577.171924 306.406371 576.651611 307.282934 
Q 576.131299 308.157153 575.186768 308.63059 
Q 574.242236 309.104028 573.114893 309.104028 
Q 571.898486 309.104028 571.246924 308.64934 
Q 570.792236 308.325903 570.792236 307.915746 
Q 570.792236 307.601684 571.028955 307.360278 
Q 571.268018 307.118871 571.584424 307.118871 
Q 571.870361 307.118871 572.16333 307.236059 
Q 572.456299 307.353246 573.166455 307.850121 
Q 573.611768 308.157153 573.935205 308.27434 
Q 574.162549 308.363403 574.448486 308.363403 
Q 575.048486 308.363403 575.468018 307.925121 
Q 575.889893 307.484496 575.889893 306.86809 
Q 575.889893 305.579028 574.60083 304.775121 
Q 573.311768 303.968871 571.350049 303.968871 
Q 571.15083 303.968871 570.75708 303.975903 
L 572.535986 298.964965 
z
M 579.62583 306.640746 
Q 580.139111 306.640746 580.493018 307.001684 
Q 580.849268 307.360278 580.849268 307.864184 
Q 580.849268 308.370434 580.490674 308.726684 
Q 580.13208 309.08059 579.62583 309.08059 
Q 579.11958 309.08059 578.76333 308.726684 
Q 578.409424 308.370434 578.409424 307.864184 
Q 578.409424 307.360278 578.76333 307.001684 
Q 579.11958 306.640746 579.62583 306.640746 
z
M 588.452393 303.931371 
Q 588.452393 305.419653 588.035205 306.708715 
Q 587.784424 307.498559 587.362549 308.004809 
Q 586.943018 308.508715 586.408643 308.806371 
Q 585.874268 309.104028 585.243799 309.104028 
Q 584.526611 309.104028 583.947705 308.738403 
Q 583.368799 308.370434 582.921143 307.688403 
Q 582.600049 307.191528 582.358643 306.364184 
Q 582.042236 305.243871 582.042236 304.048559 
Q 582.042236 302.431371 582.496924 301.07434 
Q 582.86958 299.954028 583.631299 299.358715 
Q 584.393018 298.761059 585.243799 298.761059 
Q 586.108643 298.761059 586.858643 299.351684 
Q 587.608643 299.939965 587.960205 300.936059 
Q 588.452393 302.304809 588.452393 303.931371 
z
M 586.195361 303.917309 
Q 586.195361 301.308715 586.167236 300.877465 
Q 586.092236 299.860278 585.815674 299.501684 
Q 585.632861 299.267309 585.222705 299.267309 
Q 584.906299 299.267309 584.723486 299.44309 
Q 584.451611 299.698559 584.355518 300.347778 
Q 584.261768 300.994653 584.261768 304.868871 
Q 584.261768 306.978246 584.409424 307.695434 
Q 584.51958 308.215746 584.723486 308.391528 
Q 584.929736 308.567309 585.264893 308.567309 
Q 585.632861 308.567309 585.815674 308.332934 
Q 586.122705 307.922778 586.167236 307.067309 
L 586.195361 303.917309 
z
" style="fill: #404040; stroke: #ffffff; stroke-width: 3.8"/>
    <path d="M 567.635205 298.761059 
L 567.635205 306.884496 
Q 567.635205 307.798559 567.714893 308.051684 
Q 567.796924 308.304809 568.052393 308.466528 
Q 568.310205 308.625903 568.875049 308.625903 
L 569.100049 308.625903 
L 569.100049 308.897778 
L 563.871143 308.897778 
L 563.871143 308.625903 
L 564.135986 308.625903 
Q 564.773486 308.625903 565.043018 308.48059 
Q 565.314893 308.332934 565.408643 308.077465 
Q 565.504736 307.821996 565.504736 306.884496 
L 565.504736 301.735278 
Q 565.504736 301.046215 565.439111 300.875121 
Q 565.373486 300.701684 565.193018 300.582153 
Q 565.014893 300.460278 564.780518 300.460278 
Q 564.405518 300.460278 563.871143 300.694653 
L 563.739893 300.429809 
L 567.393799 298.761059 
L 567.635205 298.761059 
z
M 572.535986 298.964965 
L 577.185986 298.964965 
L 576.447705 300.856371 
L 572.535986 300.856371 
L 572.16333 301.845434 
Q 574.689893 301.939184 576.051611 303.104028 
Q 577.171924 304.062621 577.171924 305.492309 
Q 577.171924 306.406371 576.651611 307.282934 
Q 576.131299 308.157153 575.186768 308.63059 
Q 574.242236 309.104028 573.114893 309.104028 
Q 571.898486 309.104028 571.246924 308.64934 
Q 570.792236 308.325903 570.792236 307.915746 
Q 570.792236 307.601684 571.028955 307.360278 
Q 571.268018 307.118871 571.584424 307.118871 
Q 571.870361 307.118871 572.16333 307.236059 
Q 572.456299 307.353246 573.166455 307.850121 
Q 573.611768 308.157153 573.935205 308.27434 
Q 574.162549 308.363403 574.448486 308.363403 
Q 575.048486 308.363403 575.468018 307.925121 
Q 575.889893 307.484496 575.889893 306.86809 
Q 575.889893 305.579028 574.60083 304.775121 
Q 573.311768 303.968871 571.350049 303.968871 
Q 571.15083 303.968871 570.75708 303.975903 
L 572.535986 298.964965 
z
M 579.62583 306.640746 
Q 580.139111 306.640746 580.493018 307.001684 
Q 580.849268 307.360278 580.849268 307.864184 
Q 580.849268 308.370434 580.490674 308.726684 
Q 580.13208 309.08059 579.62583 309.08059 
Q 579.11958 309.08059 578.76333 308.726684 
Q 578.409424 308.370434 578.409424 307.864184 
Q 578.409424 307.360278 578.76333 307.001684 
Q 579.11958 306.640746 579.62583 306.640746 
z
M 588.452393 303.931371 
Q 588.452393 305.419653 588.035205 306.708715 
Q 587.784424 307.498559 587.362549 308.004809 
Q 586.943018 308.508715 586.408643 308.806371 
Q 585.874268 309.104028 585.243799 309.104028 
Q 584.526611 309.104028 583.947705 308.738403 
Q 583.368799 308.370434 582.921143 307.688403 
Q 582.600049 307.191528 582.358643 306.364184 
Q 582.042236 305.243871 582.042236 304.048559 
Q 582.042236 302.431371 582.496924 301.07434 
Q 582.86958 299.954028 583.631299 299.358715 
Q 584.393018 298.761059 585.243799 298.761059 
Q 586.108643 298.761059 586.858643 299.351684 
Q 587.608643 299.939965 587.960205 300.936059 
Q 588.452393 302.304809 588.452393 303.931371 
z
M 586.195361 303.917309 
Q 586.195361 301.308715 586.167236 300.877465 
Q 586.092236 299.860278 585.815674 299.501684 
Q 585.632861 299.267309 585.222705 299.267309 
Q 584.906299 299.267309 584.723486 299.44309 
Q 584.451611 299.698559 584.355518 300.347778 
Q 584.261768 300.994653 584.261768 304.868871 
Q 584.261768 306.978246 584.409424 307.695434 
Q 584.51958 308.215746 584.723486 308.391528 
Q 584.929736 308.567309 585.264893 308.567309 
Q 585.632861 308.567309 585.815674 308.332934 
Q 586.122705 307.922778 586.167236 307.067309 
L 586.195361 303.917309 
z
" style="fill: #404040"/>
   </g>
   <g id="text_31">
    <path d="M 531.238443 265.945435 
L 531.238443 274.068873 
Q 531.238443 274.982935 531.318131 275.23606 
Q 531.400162 275.489185 531.655631 275.650904 
Q 531.913443 275.810279 532.478287 275.810279 
L 532.703287 275.810279 
L 532.703287 276.082154 
L 527.474381 276.082154 
L 527.474381 275.810279 
L 527.739225 275.810279 
Q 528.376725 275.810279 528.646256 275.664967 
Q 528.918131 275.51731 529.011881 275.261842 
Q 529.107975 275.006373 529.107975 274.068873 
L 529.107975 268.919654 
Q 529.107975 268.230592 529.04235 268.059498 
Q 528.976725 267.88606 528.796256 267.766529 
Q 528.618131 267.644654 528.383756 267.644654 
Q 528.008756 267.644654 527.474381 267.879029 
L 527.343131 267.614185 
L 530.997037 265.945435 
L 531.238443 265.945435 
z
M 536.0736 271.101685 
L 536.0736 270.846217 
Q 536.907975 270.602467 537.229068 270.393873 
Q 537.552506 270.185279 537.786881 269.758717 
Q 538.021256 269.32981 538.021256 268.889185 
Q 538.021256 268.282154 537.578287 267.846217 
Q 537.135318 267.410279 536.476725 267.410279 
Q 535.450162 267.410279 534.732975 268.493092 
L 534.4611 268.399342 
Q 534.988443 267.175904 535.813443 266.561842 
Q 536.638443 265.945435 537.6486 265.945435 
Q 538.67985 265.945435 539.350162 266.575904 
Q 540.020475 267.204029 540.020475 268.047779 
Q 540.020475 268.596217 539.708756 269.107154 
Q 539.399381 269.615748 538.731412 270.002467 
Q 539.589225 270.419654 540.039225 271.031373 
Q 540.489225 271.643092 540.489225 272.566529 
Q 540.489225 274.118092 539.364225 275.207935 
Q 538.241568 276.295435 536.352506 276.295435 
Q 535.091568 276.295435 534.512662 275.875904 
Q 534.095475 275.582935 534.095475 275.12356 
Q 534.095475 274.78606 534.336881 274.549342 
Q 534.578287 274.310279 534.894693 274.310279 
Q 535.1361 274.310279 535.349381 274.41106 
Q 535.466568 274.469654 536.179068 275.053248 
Q 536.893912 275.634498 537.51735 275.634498 
Q 538.058756 275.634498 538.445475 275.207935 
Q 538.834537 274.779029 538.834537 274.118092 
Q 538.834537 273.114967 538.131412 272.268873 
Q 537.428287 271.422779 536.0736 271.101685 
z
M 543.229068 273.825123 
Q 543.74235 273.825123 544.096256 274.18606 
Q 544.452506 274.544654 544.452506 275.04856 
Q 544.452506 275.55481 544.093912 275.91106 
Q 543.735318 276.264967 543.229068 276.264967 
Q 542.722818 276.264967 542.366568 275.91106 
Q 542.012662 275.55481 542.012662 275.04856 
Q 542.012662 274.544654 542.366568 274.18606 
Q 542.722818 273.825123 543.229068 273.825123 
z
M 547.761881 276.288404 
L 550.466568 268.09231 
L 548.406412 268.09231 
Q 547.199381 268.09231 546.590006 268.406373 
Q 546.165787 268.626685 545.886881 269.233717 
L 545.610318 269.233717 
L 546.327506 266.149342 
L 552.245475 266.149342 
L 548.912662 276.288404 
L 547.761881 276.288404 
z
" style="fill: #404040; stroke: #ffffff; stroke-width: 3.8"/>
    <path d="M 531.238443 265.945435 
L 531.238443 274.068873 
Q 531.238443 274.982935 531.318131 275.23606 
Q 531.400162 275.489185 531.655631 275.650904 
Q 531.913443 275.810279 532.478287 275.810279 
L 532.703287 275.810279 
L 532.703287 276.082154 
L 527.474381 276.082154 
L 527.474381 275.810279 
L 527.739225 275.810279 
Q 528.376725 275.810279 528.646256 275.664967 
Q 528.918131 275.51731 529.011881 275.261842 
Q 529.107975 275.006373 529.107975 274.068873 
L 529.107975 268.919654 
Q 529.107975 268.230592 529.04235 268.059498 
Q 528.976725 267.88606 528.796256 267.766529 
Q 528.618131 267.644654 528.383756 267.644654 
Q 528.008756 267.644654 527.474381 267.879029 
L 527.343131 267.614185 
L 530.997037 265.945435 
L 531.238443 265.945435 
z
M 536.0736 271.101685 
L 536.0736 270.846217 
Q 536.907975 270.602467 537.229068 270.393873 
Q 537.552506 270.185279 537.786881 269.758717 
Q 538.021256 269.32981 538.021256 268.889185 
Q 538.021256 268.282154 537.578287 267.846217 
Q 537.135318 267.410279 536.476725 267.410279 
Q 535.450162 267.410279 534.732975 268.493092 
L 534.4611 268.399342 
Q 534.988443 267.175904 535.813443 266.561842 
Q 536.638443 265.945435 537.6486 265.945435 
Q 538.67985 265.945435 539.350162 266.575904 
Q 540.020475 267.204029 540.020475 268.047779 
Q 540.020475 268.596217 539.708756 269.107154 
Q 539.399381 269.615748 538.731412 270.002467 
Q 539.589225 270.419654 540.039225 271.031373 
Q 540.489225 271.643092 540.489225 272.566529 
Q 540.489225 274.118092 539.364225 275.207935 
Q 538.241568 276.295435 536.352506 276.295435 
Q 535.091568 276.295435 534.512662 275.875904 
Q 534.095475 275.582935 534.095475 275.12356 
Q 534.095475 274.78606 534.336881 274.549342 
Q 534.578287 274.310279 534.894693 274.310279 
Q 535.1361 274.310279 535.349381 274.41106 
Q 535.466568 274.469654 536.179068 275.053248 
Q 536.893912 275.634498 537.51735 275.634498 
Q 538.058756 275.634498 538.445475 275.207935 
Q 538.834537 274.779029 538.834537 274.118092 
Q 538.834537 273.114967 538.131412 272.268873 
Q 537.428287 271.422779 536.0736 271.101685 
z
M 543.229068 273.825123 
Q 543.74235 273.825123 544.096256 274.18606 
Q 544.452506 274.544654 544.452506 275.04856 
Q 544.452506 275.55481 544.093912 275.91106 
Q 543.735318 276.264967 543.229068 276.264967 
Q 542.722818 276.264967 542.366568 275.91106 
Q 542.012662 275.55481 542.012662 275.04856 
Q 542.012662 274.544654 542.366568 274.18606 
Q 542.722818 273.825123 543.229068 273.825123 
z
M 547.761881 276.288404 
L 550.466568 268.09231 
L 548.406412 268.09231 
Q 547.199381 268.09231 546.590006 268.406373 
Q 546.165787 268.626685 545.886881 269.233717 
L 545.610318 269.233717 
L 546.327506 266.149342 
L 552.245475 266.149342 
L 548.912662 276.288404 
L 547.761881 276.288404 
z
" style="fill: #404040"/>
   </g>
   <g id="text_32">
    <path d="M 321.790961 330.9297 
L 321.790961 330.674231 
Q 322.625336 330.430481 322.946429 330.221887 
Q 323.269867 330.013294 323.504242 329.586731 
Q 323.738617 329.157825 323.738617 328.7172 
Q 323.738617 328.110169 323.295648 327.674231 
Q 322.852679 327.238294 322.194086 327.238294 
Q 321.167523 327.238294 320.450336 328.321106 
L 320.178461 328.227356 
Q 320.705804 327.003919 321.530804 326.389856 
Q 322.355804 325.77345 323.365961 325.77345 
Q 324.397211 325.77345 325.067523 326.403919 
Q 325.737836 327.032044 325.737836 327.875794 
Q 325.737836 328.424231 325.426117 328.935169 
Q 325.116742 329.443762 324.448773 329.830481 
Q 325.306586 330.247669 325.756586 330.859387 
Q 326.206586 331.471106 326.206586 332.394544 
Q 326.206586 333.946106 325.081586 335.03595 
Q 323.958929 336.12345 322.069867 336.12345 
Q 320.808929 336.12345 320.230023 335.703919 
Q 319.812836 335.41095 319.812836 334.951575 
Q 319.812836 334.614075 320.054242 334.377356 
Q 320.295648 334.138294 320.612054 334.138294 
Q 320.853461 334.138294 321.066742 334.239075 
Q 321.183929 334.297669 321.896429 334.881262 
Q 322.611273 335.462512 323.234711 335.462512 
Q 323.776117 335.462512 324.162836 335.03595 
Q 324.551898 334.607044 324.551898 333.946106 
Q 324.551898 332.942981 323.848773 332.096887 
Q 323.145648 331.250794 321.790961 330.9297 
z
M 329.356586 325.977356 
L 334.006586 325.977356 
L 333.268304 327.868762 
L 329.356586 327.868762 
L 328.983929 328.857825 
Q 331.510492 328.951575 332.872211 330.116419 
Q 333.992523 331.075012 333.992523 332.5047 
Q 333.992523 333.418762 333.472211 334.295325 
Q 332.951898 335.169544 332.007367 335.642981 
Q 331.062836 336.116419 329.935492 336.116419 
Q 328.719086 336.116419 328.067523 335.661731 
Q 327.612836 335.338294 327.612836 334.928137 
Q 327.612836 334.614075 327.849554 334.372669 
Q 328.088617 334.131262 328.405023 334.131262 
Q 328.690961 334.131262 328.983929 334.24845 
Q 329.276898 334.365637 329.987054 334.862512 
Q 330.432367 335.169544 330.755804 335.286731 
Q 330.983148 335.375794 331.269086 335.375794 
Q 331.869086 335.375794 332.288617 334.937512 
Q 332.710492 334.496887 332.710492 333.880481 
Q 332.710492 332.591419 331.421429 331.787512 
Q 330.132367 330.981262 328.170648 330.981262 
Q 327.971429 330.981262 327.577679 330.988294 
L 329.356586 325.977356 
z
M 336.446429 333.653137 
Q 336.959711 333.653137 337.313617 334.014075 
Q 337.669867 334.372669 337.669867 334.876575 
Q 337.669867 335.382825 337.311273 335.739075 
Q 336.952679 336.092981 336.446429 336.092981 
Q 335.940179 336.092981 335.583929 335.739075 
Q 335.230023 335.382825 335.230023 334.876575 
Q 335.230023 334.372669 335.583929 334.014075 
Q 335.940179 333.653137 336.446429 333.653137 
z
M 340.979242 336.116419 
L 343.683929 327.920325 
L 341.623773 327.920325 
Q 340.416742 327.920325 339.807367 328.234387 
Q 339.383148 328.4547 339.104242 329.061731 
L 338.827679 329.061731 
L 339.544867 325.977356 
L 345.462836 325.977356 
L 342.130023 336.116419 
L 340.979242 336.116419 
z
" style="fill: #404040; stroke: #ffffff; stroke-width: 3.8"/>
    <path d="M 321.790961 330.9297 
L 321.790961 330.674231 
Q 322.625336 330.430481 322.946429 330.221887 
Q 323.269867 330.013294 323.504242 329.586731 
Q 323.738617 329.157825 323.738617 328.7172 
Q 323.738617 328.110169 323.295648 327.674231 
Q 322.852679 327.238294 322.194086 327.238294 
Q 321.167523 327.238294 320.450336 328.321106 
L 320.178461 328.227356 
Q 320.705804 327.003919 321.530804 326.389856 
Q 322.355804 325.77345 323.365961 325.77345 
Q 324.397211 325.77345 325.067523 326.403919 
Q 325.737836 327.032044 325.737836 327.875794 
Q 325.737836 328.424231 325.426117 328.935169 
Q 325.116742 329.443762 324.448773 329.830481 
Q 325.306586 330.247669 325.756586 330.859387 
Q 326.206586 331.471106 326.206586 332.394544 
Q 326.206586 333.946106 325.081586 335.03595 
Q 323.958929 336.12345 322.069867 336.12345 
Q 320.808929 336.12345 320.230023 335.703919 
Q 319.812836 335.41095 319.812836 334.951575 
Q 319.812836 334.614075 320.054242 334.377356 
Q 320.295648 334.138294 320.612054 334.138294 
Q 320.853461 334.138294 321.066742 334.239075 
Q 321.183929 334.297669 321.896429 334.881262 
Q 322.611273 335.462512 323.234711 335.462512 
Q 323.776117 335.462512 324.162836 335.03595 
Q 324.551898 334.607044 324.551898 333.946106 
Q 324.551898 332.942981 323.848773 332.096887 
Q 323.145648 331.250794 321.790961 330.9297 
z
M 329.356586 325.977356 
L 334.006586 325.977356 
L 333.268304 327.868762 
L 329.356586 327.868762 
L 328.983929 328.857825 
Q 331.510492 328.951575 332.872211 330.116419 
Q 333.992523 331.075012 333.992523 332.5047 
Q 333.992523 333.418762 333.472211 334.295325 
Q 332.951898 335.169544 332.007367 335.642981 
Q 331.062836 336.116419 329.935492 336.116419 
Q 328.719086 336.116419 328.067523 335.661731 
Q 327.612836 335.338294 327.612836 334.928137 
Q 327.612836 334.614075 327.849554 334.372669 
Q 328.088617 334.131262 328.405023 334.131262 
Q 328.690961 334.131262 328.983929 334.24845 
Q 329.276898 334.365637 329.987054 334.862512 
Q 330.432367 335.169544 330.755804 335.286731 
Q 330.983148 335.375794 331.269086 335.375794 
Q 331.869086 335.375794 332.288617 334.937512 
Q 332.710492 334.496887 332.710492 333.880481 
Q 332.710492 332.591419 331.421429 331.787512 
Q 330.132367 330.981262 328.170648 330.981262 
Q 327.971429 330.981262 327.577679 330.988294 
L 329.356586 325.977356 
z
M 336.446429 333.653137 
Q 336.959711 333.653137 337.313617 334.014075 
Q 337.669867 334.372669 337.669867 334.876575 
Q 337.669867 335.382825 337.311273 335.739075 
Q 336.952679 336.092981 336.446429 336.092981 
Q 335.940179 336.092981 335.583929 335.739075 
Q 335.230023 335.382825 335.230023 334.876575 
Q 335.230023 334.372669 335.583929 334.014075 
Q 335.940179 333.653137 336.446429 333.653137 
z
M 340.979242 336.116419 
L 343.683929 327.920325 
L 341.623773 327.920325 
Q 340.416742 327.920325 339.807367 328.234387 
Q 339.383148 328.4547 339.104242 329.061731 
L 338.827679 329.061731 
L 339.544867 325.977356 
L 345.462836 325.977356 
L 342.130023 336.116419 
L 340.979242 336.116419 
z
" style="fill: #404040"/>
   </g>
  </g>
 </g>
 <defs>
  <clipPath id="p7f9b84c36e">
   <rect x="7.2" y="51.034687" width="730.764" height="432.785085"/>
  </clipPath>
 </defs>
</svg>
