<?xml version="1.0" encoding="utf-8" standalone="no"?>
<!DOCTYPE svg PUBLIC "-//W3C//DTD SVG 1.1//EN"
  "http://www.w3.org/Graphics/SVG/1.1/DTD/svg11.dtd">
<svg xmlns:xlink="http://www.w3.org/1999/xlink" width="745.164pt" height="496.204623pt" viewBox="0 0 745.164 496.204623" xmlns="http://www.w3.org/2000/svg" version="1.1">
 <metadata>
  <rdf:RDF xmlns:dc="http://purl.org/dc/elements/1.1/" xmlns:cc="http://creativecommons.org/ns#" xmlns:rdf="http://www.w3.org/1999/02/22-rdf-syntax-ns#">
   <cc:Work>
    <dc:type rdf:resource="http://purl.org/dc/dcmitype/StillImage"/>
    <dc:date>2026-07-13T16:58:17.088450</dc:date>
    <dc:format>image/svg+xml</dc:format>
    <dc:creator>
     <cc:Agent>
      <dc:title>Matplotlib v3.10.8, https://matplotlib.org/</dc:title>
     </cc:Agent>
    </dc:creator>
   </cc:Work>
  </rdf:RDF>
 </metadata>
 <defs>
  <style type="text/css">*{stroke-linejoin: round; stroke-linecap: butt}</style>
 </defs>
 <g id="figure_1">
  <g id="patch_1">
   <path d="M 0 496.204623 
L 745.164 496.204623 
L 745.164 0 
L 0 0 
L 0 496.204623 
z
" style="fill: none"/>
  </g>
  <g id="axes_1">
   <g id="patch_2">
    <path d="M 120.350555 428.018523 
Q 120.350555 453.474034 120.350555 476.422254 
" clip-path="url(#pfc470bf02d)" style="fill: none; stroke: #111111; stroke-width: 2.242589; stroke-linejoin: miter; stroke-linecap: round"/>
    <path d="M 124.012183 469.098997 
L 120.350555 476.422254 
L 116.688926 469.098997 
z
" clip-path="url(#pfc470bf02d)" style="fill: #111111; stroke: #111111; stroke-width: 2.242589; stroke-linejoin: miter; stroke-linecap: round"/>
   </g>
   <g id="patch_3">
    <path d="M 120.350555 324.582094 
Q 120.350555 348.032917 120.350555 367.094244 
" clip-path="url(#pfc470bf02d)" style="fill: none; stroke: #111111; stroke-width: 3.926085; stroke-linejoin: miter; stroke-linecap: round"/>
    <path d="M 124.550902 358.69355 
L 120.350555 367.094244 
L 116.150208 358.69355 
z
" clip-path="url(#pfc470bf02d)" style="fill: #111111; stroke: #111111; stroke-width: 3.926085; stroke-linejoin: miter; stroke-linecap: round"/>
   </g>
   <g id="patch_4">
    <path d="M 120.350555 227.193254 
Q 120.350555 249.62497 120.350555 265.572088 
" clip-path="url(#pfc470bf02d)" style="fill: none; stroke: #111111; stroke-width: 5.8; stroke-linejoin: miter; stroke-linecap: round"/>
    <path d="M 125.150555 255.972088 
L 120.350555 265.572088 
L 115.550555 255.972088 
z
" clip-path="url(#pfc470bf02d)" style="fill: #111111; stroke: #111111; stroke-width: 5.8; stroke-linejoin: miter; stroke-linecap: round"/>
   </g>
   <g id="patch_5">
    <path d="M 370.224697 282.07838 
Q 370.224697 306.020794 370.224697 326.909942 
" clip-path="url(#pfc470bf02d)" style="fill: none; stroke: #111111; stroke-width: 2.730924; stroke-linejoin: miter; stroke-linecap: round"/>
    <path d="M 374.042592 319.274151 
L 370.224697 326.909942 
L 366.406801 319.274151 
z
" clip-path="url(#pfc470bf02d)" style="fill: #111111; stroke: #111111; stroke-width: 2.730924; stroke-linejoin: miter; stroke-linecap: round"/>
   </g>
   <g id="patch_6">
    <path d="M 370.224697 189.91753 
Q 370.224697 209.243661 370.224697 222.503966 
" clip-path="url(#pfc470bf02d)" style="fill: none; stroke: #111111; stroke-width: 5.42544; stroke-linejoin: miter; stroke-linecap: round"/>
    <path d="M 374.904838 213.143685 
L 370.224697 222.503966 
L 365.544556 213.143685 
z
" clip-path="url(#pfc470bf02d)" style="fill: #111111; stroke: #111111; stroke-width: 5.42544; stroke-linejoin: miter; stroke-linecap: round"/>
   </g>
   <g id="patch_7">
    <path d="M 370.224697 115.702896 
Q 370.224697 130.672201 370.224697 141.07638 
" clip-path="url(#pfc470bf02d)" style="fill: none; stroke: #111111; stroke-width: 4.083174; stroke-linejoin: miter; stroke-linecap: round"/>
    <path d="M 374.475312 132.575148 
L 370.224697 141.07638 
L 365.974081 132.575148 
z
" clip-path="url(#pfc470bf02d)" style="fill: #111111; stroke: #111111; stroke-width: 4.083174; stroke-linejoin: miter; stroke-linecap: round"/>
   </g>
   <g id="patch_8">
    <path d="M 586.153672 216.266929 
Q 586.153672 239.248963 586.153672 257.237294 
" clip-path="url(#pfc470bf02d)" style="fill: none; stroke: #111111; stroke-width: 4.466504; stroke-linejoin: miter; stroke-linecap: round"/>
    <path d="M 590.526953 248.490732 
L 586.153672 257.237294 
L 581.780391 248.490732 
z
" clip-path="url(#pfc470bf02d)" style="fill: #111111; stroke: #111111; stroke-width: 4.466504; stroke-linejoin: miter; stroke-linecap: round"/>
   </g>
   <g id="line2d_1">
    <path d="M 165.610777 478.929545 
L 550.322663 478.929545 
" clip-path="url(#pfc470bf02d)" style="fill: none; stroke-dasharray: 5.6,4.2; stroke-dashoffset: 0; stroke: #404040; stroke-width: 1.4"/>
   </g>
   <g id="line2d_2">
    <path d="M 165.610777 371.483741 
L 550.322663 371.483741 
" clip-path="url(#pfc470bf02d)" style="fill: none; stroke-dasharray: 5.6,4.2; stroke-dashoffset: 0; stroke: #404040; stroke-width: 1.4"/>
   </g>
   <g id="line2d_3">
    <path d="M 415.484919 329.963208 
L 560.694797 329.963208 
" clip-path="url(#pfc470bf02d)" style="fill: none; stroke-dasharray: 5.6,4.2; stroke-dashoffset: 0; stroke: #404040; stroke-width: 1.4"/>
   </g>
   <g id="patch_9">
    <path d="M 665.359061 262.230997 
Q 579.53296 368.247495 494.408804 473.396917 
" clip-path="url(#pfc470bf02d)" style="fill: none; stroke: #404040; stroke-width: 0.997816; stroke-linejoin: miter; stroke-linecap: round"/>
    <path d="M 500.242875 470.745196 
L 494.408804 473.396917 
L 495.787869 467.138627 
z
" clip-path="url(#pfc470bf02d)" style="fill: #404040; stroke: #404040; stroke-width: 0.997816; stroke-linejoin: miter; stroke-linecap: round"/>
   </g>
   <g id="patch_10">
    <path d="M 620.098839 262.230997 
Q 577.763891 314.525145 537.767053 363.93115 
" clip-path="url(#pfc470bf02d)" style="fill: none; stroke: #404040; stroke-width: 3.323628; stroke-linejoin: miter; stroke-linecap: round"/>
    <path d="M 545.179312 360.562105 
L 537.767053 363.93115 
L 539.519173 355.979916 
z
" clip-path="url(#pfc470bf02d)" style="fill: #404040; stroke: #404040; stroke-width: 3.323628; stroke-linejoin: miter; stroke-linecap: round"/>
   </g>
   <g id="patch_11">
    <path d="M 574.838617 262.230997 
Q 541.644798 294.022845 509.163787 325.131989 
" clip-path="url(#pfc470bf02d)" style="fill: none; stroke: #404040; stroke-width: 0.882805; stroke-linejoin: miter; stroke-linecap: round"/>
    <path d="M 515.203765 323.262412 
L 509.163787 325.131989 
L 511.292112 319.178261 
z
" clip-path="url(#pfc470bf02d)" style="fill: #404040; stroke: #404040; stroke-width: 0.882805; stroke-linejoin: miter; stroke-linecap: round"/>
   </g>
   <g id="patch_12">
    <path d="M 370.224697 329.963208 
Q 335.322538 349.270737 304.470117 366.337991 
" clip-path="url(#pfc470bf02d)" style="fill: none; stroke: #404040; stroke-width: 4.139489; stroke-linejoin: miter; stroke-linecap: round"/>
    <path d="M 313.21263 365.973729 
L 304.470117 366.337991 
L 309.424215 359.125424 
z
" clip-path="url(#pfc470bf02d)" style="fill: #404040; stroke: #404040; stroke-width: 4.139489; stroke-linejoin: miter; stroke-linecap: round"/>
   </g>
   <g id="line2d_4">
    <path d="M 120.350555 371.483741 
L 120.350555 422.394762 
" clip-path="url(#pfc470bf02d)" style="fill: none; stroke: #111111; stroke-width: 2.242589"/>
   </g>
   <g id="line2d_5">
    <path d="M 120.350555 272.056685 
L 120.350555 318.958333 
" clip-path="url(#pfc470bf02d)" style="fill: none; stroke: #111111; stroke-width: 3.926085"/>
   </g>
   <g id="line2d_6">
    <path d="M 120.350555 176.706062 
L 120.350555 221.569493 
" clip-path="url(#pfc470bf02d)" style="fill: none; stroke: #111111; stroke-width: 5.8"/>
   </g>
   <g id="line2d_7">
    <path d="M 370.224697 228.569792 
L 370.224697 276.454619 
" clip-path="url(#pfc470bf02d)" style="fill: none; stroke: #111111; stroke-width: 2.730924"/>
   </g>
   <g id="line2d_8">
    <path d="M 370.224697 145.641507 
L 370.224697 184.293769 
" clip-path="url(#pfc470bf02d)" style="fill: none; stroke: #111111; stroke-width: 5.42544"/>
   </g>
   <g id="line2d_9">
    <path d="M 370.224697 80.140524 
L 370.224697 110.079135 
" clip-path="url(#pfc470bf02d)" style="fill: none; stroke: #111111; stroke-width: 4.083174"/>
   </g>
   <g id="line2d_10">
    <path d="M 586.153672 164.679099 
L 586.153672 210.643168 
" clip-path="url(#pfc470bf02d)" style="fill: none; stroke: #111111; stroke-width: 4.466504"/>
   </g>
   <g id="line2d_11">
    <path d="M 75.090333 478.929545 
L 165.610777 478.929545 
" clip-path="url(#pfc470bf02d)" style="fill: none; stroke: #111111; stroke-width: 3.6; stroke-linecap: round"/>
   </g>
   <g id="line2d_12">
    <path d="M 75.090333 371.483741 
L 165.610777 371.483741 
" clip-path="url(#pfc470bf02d)" style="fill: none; stroke: #111111; stroke-width: 3.6; stroke-linecap: round"/>
   </g>
   <g id="line2d_13">
    <path d="M 75.090333 272.056685 
L 165.610777 272.056685 
" clip-path="url(#pfc470bf02d)" style="fill: none; stroke: #111111; stroke-width: 3.6; stroke-linecap: round"/>
   </g>
   <g id="line2d_14">
    <path d="M 75.090333 176.706062 
L 165.610777 176.706062 
" clip-path="url(#pfc470bf02d)" style="fill: none; stroke: #111111; stroke-width: 3.6; stroke-linecap: round"/>
   </g>
   <g id="line2d_15">
    <path d="M 324.964475 329.963208 
L 415.484919 329.963208 
" clip-path="url(#pfc470bf02d)" style="fill: none; stroke: #111111; stroke-width: 3.6; stroke-linecap: round"/>
   </g>
   <g id="line2d_16">
    <path d="M 324.964475 228.569792 
L 415.484919 228.569792 
" clip-path="url(#pfc470bf02d)" style="fill: none; stroke: #111111; stroke-width: 3.6; stroke-linecap: round"/>
   </g>
   <g id="line2d_17">
    <path d="M 324.964475 145.641507 
L 415.484919 145.641507 
" clip-path="url(#pfc470bf02d)" style="fill: none; stroke: #111111; stroke-width: 3.6; stroke-linecap: round"/>
   </g>
   <g id="line2d_18">
    <path d="M 324.964475 80.140524 
L 415.484919 80.140524 
" clip-path="url(#pfc470bf02d)" style="fill: none; stroke: #111111; stroke-width: 3.6; stroke-linecap: round"/>
   </g>
   <g id="line2d_19">
    <path d="M 574.838617 262.230997 
L 665.359061 262.230997 
" clip-path="url(#pfc470bf02d)" style="fill: none; stroke: #111111; stroke-width: 3.6; stroke-linecap: round"/>
   </g>
   <g id="line2d_20">
    <path d="M 574.838617 164.679099 
L 665.359061 164.679099 
" clip-path="url(#pfc470bf02d)" style="fill: none; stroke: #111111; stroke-width: 3.6; stroke-linecap: round"/>
   </g>
   <g id="text_1">
    <!-- $^{352}\mathrm{Cf}$ -->
    <g transform="translate(331.272 33.034687) scale(0.34 -0.34)">
     <defs>
      <path id="DejaVuSans-33" d="M 2597 2516 
Q 3050 2419 3304 2112 
Q 3559 1806 3559 1356 
Q 3559 666 3084 287 
Q 2609 -91 1734 -91 
Q 1441 -91 1130 -33 
Q 819 25 488 141 
L 488 750 
Q 750 597 1062 519 
Q 1375 441 1716 441 
Q 2309 441 2620 675 
Q 2931 909 2931 1356 
Q 2931 1769 2642 2001 
Q 2353 2234 1838 2234 
L 1294 2234 
L 1294 2753 
L 1863 2753 
Q 2328 2753 2575 2939 
Q 2822 3125 2822 3475 
Q 2822 3834 2567 4026 
Q 2313 4219 1838 4219 
Q 1578 4219 1281 4162 
Q 984 4106 628 3988 
L 628 4550 
Q 988 4650 1302 4700 
Q 1616 4750 1894 4750 
Q 2613 4750 3031 4423 
Q 3450 4097 3450 3541 
Q 3450 3153 3228 2886 
Q 3006 2619 2597 2516 
z
" transform="scale(0.015625)"/>
      <path id="DejaVuSans-35" d="M 691 4666 
L 3169 4666 
L 3169 4134 
L 1269 4134 
L 1269 2991 
Q 1406 3038 1543 3061 
Q 1681 3084 1819 3084 
Q 2600 3084 3056 2656 
Q 3513 2228 3513 1497 
Q 3513 744 3044 326 
Q 2575 -91 1722 -91 
Q 1428 -91 1123 -41 
Q 819 9 494 109 
L 494 744 
Q 775 591 1075 516 
Q 1375 441 1709 441 
Q 2250 441 2565 725 
Q 2881 1009 2881 1497 
Q 2881 1984 2565 2268 
Q 2250 2553 1709 2553 
Q 1456 2553 1204 2497 
Q 953 2441 691 2322 
L 691 4666 
z
" transform="scale(0.015625)"/>
      <path id="DejaVuSans-32" d="M 1228 531 
L 3431 531 
L 3431 0 
L 469 0 
L 469 531 
Q 828 903 1448 1529 
Q 2069 2156 2228 2338 
Q 2531 2678 2651 2914 
Q 2772 3150 2772 3378 
Q 2772 3750 2511 3984 
Q 2250 4219 1831 4219 
Q 1534 4219 1204 4116 
Q 875 4013 500 3803 
L 500 4441 
Q 881 4594 1212 4672 
Q 1544 4750 1819 4750 
Q 2544 4750 2975 4387 
Q 3406 4025 3406 3419 
Q 3406 3131 3298 2873 
Q 3191 2616 2906 2266 
Q 2828 2175 2409 1742 
Q 1991 1309 1228 531 
z
" transform="scale(0.015625)"/>
      <path id="DejaVuSans-43" d="M 4122 4306 
L 4122 3641 
Q 3803 3938 3442 4084 
Q 3081 4231 2675 4231 
Q 1875 4231 1450 3742 
Q 1025 3253 1025 2328 
Q 1025 1406 1450 917 
Q 1875 428 2675 428 
Q 3081 428 3442 575 
Q 3803 722 4122 1019 
L 4122 359 
Q 3791 134 3420 21 
Q 3050 -91 2638 -91 
Q 1578 -91 968 557 
Q 359 1206 359 2328 
Q 359 3453 968 4101 
Q 1578 4750 2638 4750 
Q 3056 4750 3426 4639 
Q 3797 4528 4122 4306 
z
" transform="scale(0.015625)"/>
      <path id="DejaVuSans-66" d="M 2375 4863 
L 2375 4384 
L 1825 4384 
Q 1516 4384 1395 4259 
Q 1275 4134 1275 3809 
L 1275 3500 
L 2222 3500 
L 2222 3053 
L 1275 3053 
L 1275 0 
L 697 0 
L 697 3053 
L 147 3053 
L 147 3500 
L 697 3500 
L 697 3744 
Q 697 4328 969 4595 
Q 1241 4863 1831 4863 
L 2375 4863 
z
" transform="scale(0.015625)"/>
     </defs>
     <use xlink:href="#DejaVuSans-33" transform="translate(0.957031 39.046875) scale(0.7)"/>
     <use xlink:href="#DejaVuSans-35" transform="translate(45.493164 39.046875) scale(0.7)"/>
     <use xlink:href="#DejaVuSans-32" transform="translate(90.029297 39.046875) scale(0.7)"/>
     <use xlink:href="#DejaVuSans-43" transform="translate(137.299805 0.765625)"/>
     <use xlink:href="#DejaVuSans-66" transform="translate(207.124023 0.765625)"/>
    </g>
   </g>
   <g id="text_2">
    <!-- 0 -->
    <g transform="translate(46.98525 483.344545) scale(0.16 -0.16)">
     <defs>
      <path id="DejaVuSans-BoldOblique-30" d="M 1913 728 
Q 2153 728 2339 872 
Q 2525 1016 2650 1294 
Q 2738 1491 2809 1742 
Q 2881 1994 2944 2338 
Q 2997 2616 3025 2850 
Q 3053 3084 3053 3250 
Q 3053 3600 2928 3764 
Q 2803 3928 2541 3928 
Q 2297 3928 2112 3789 
Q 1928 3650 1806 3366 
Q 1713 3163 1636 2903 
Q 1559 2644 1503 2338 
Q 1450 2056 1422 1815 
Q 1394 1575 1394 1409 
Q 1394 1063 1522 895 
Q 1650 728 1913 728 
z
M 4225 3072 
Q 4225 2450 4053 1862 
Q 3881 1275 3572 831 
Q 3256 375 2809 142 
Q 2363 -91 1813 -91 
Q 1047 -91 639 343 
Q 231 778 231 1594 
Q 231 2206 401 2795 
Q 572 3384 878 3822 
Q 1200 4281 1644 4515 
Q 2088 4750 2644 4750 
Q 3403 4750 3814 4314 
Q 4225 3878 4225 3072 
z
" transform="scale(0.015625)"/>
     </defs>
     <use xlink:href="#DejaVuSans-BoldOblique-30"/>
    </g>
   </g>
   <g id="text_3">
    <!-- 0⁺ -->
    <g transform="translate(182.58336 484.08478) scale(0.23 -0.23)">
     <defs>
      <path id="TimesNewRomanPS-BoldMT-30" d="M 2966 2119 
Q 2966 1484 2788 934 
Q 2681 597 2501 381 
Q 2322 166 2094 39 
Q 1866 -88 1597 -88 
Q 1291 -88 1044 68 
Q 797 225 606 516 
Q 469 728 366 1081 
Q 231 1559 231 2069 
Q 231 2759 425 3338 
Q 584 3816 909 4070 
Q 1234 4325 1597 4325 
Q 1966 4325 2286 4073 
Q 2606 3822 2756 3397 
Q 2966 2813 2966 2119 
z
M 2003 2125 
Q 2003 3238 1991 3422 
Q 1959 3856 1841 4009 
Q 1763 4109 1588 4109 
Q 1453 4109 1375 4034 
Q 1259 3925 1218 3648 
Q 1178 3372 1178 1719 
Q 1178 819 1241 513 
Q 1288 291 1375 216 
Q 1463 141 1606 141 
Q 1763 141 1841 241 
Q 1972 416 1991 781 
L 2003 2125 
z
" transform="scale(0.015625)"/>
      <path id="DejaVuSerif-Bold-207a" d="M 1916 4344 
L 1916 3441 
L 2950 3441 
L 2950 3044 
L 1916 3044 
L 1916 2141 
L 1463 2141 
L 1463 3044 
L 428 3044 
L 428 3441 
L 1463 3441 
L 1463 4344 
L 1916 4344 
z
" transform="scale(0.015625)"/>
     </defs>
     <use xlink:href="#TimesNewRomanPS-BoldMT-30"/>
     <use xlink:href="#DejaVuSerif-Bold-207a" transform="translate(50 0)"/>
    </g>
   </g>
   <g id="text_4">
    <!-- 1758 -->
    <g transform="translate(13.58775 375.898741) scale(0.16 -0.16)">
     <defs>
      <path id="DejaVuSans-BoldOblique-31" d="M 441 831 
L 1503 831 
L 2088 3847 
L 953 3622 
L 1113 4441 
L 2241 4666 
L 3384 4666 
L 2644 831 
L 3700 831 
L 3541 0 
L 275 0 
L 441 831 
z
" transform="scale(0.015625)"/>
      <path id="DejaVuSans-BoldOblique-37" d="M 922 4666 
L 4441 4666 
L 4300 3981 
L 1703 0 
L 500 0 
L 2969 3781 
L 756 3781 
L 922 4666 
z
" transform="scale(0.015625)"/>
      <path id="DejaVuSans-BoldOblique-35" d="M 1131 4666 
L 4122 4666 
L 3950 3781 
L 1919 3781 
L 1778 3059 
Q 1916 3097 2064 3117 
Q 2213 3138 2363 3138 
Q 3078 3138 3481 2811 
Q 3884 2484 3884 1906 
Q 3884 988 3262 448 
Q 2641 -91 1575 -91 
Q 1184 -91 815 -14 
Q 447 63 84 219 
L 269 1166 
Q 616 941 942 834 
Q 1269 728 1606 728 
Q 2100 728 2397 986 
Q 2694 1244 2694 1663 
Q 2694 1963 2469 2139 
Q 2244 2316 1856 2316 
Q 1594 2316 1289 2248 
Q 984 2181 622 2041 
L 1131 4666 
z
" transform="scale(0.015625)"/>
      <path id="DejaVuSans-BoldOblique-38" d="M 2150 2088 
Q 1784 2088 1539 1839 
Q 1294 1591 1294 1228 
Q 1294 969 1453 817 
Q 1613 666 1888 666 
Q 2259 666 2503 911 
Q 2747 1156 2747 1522 
Q 2747 1781 2586 1934 
Q 2425 2088 2150 2088 
z
M 1381 2484 
Q 1044 2625 876 2850 
Q 709 3075 709 3391 
Q 709 4025 1229 4387 
Q 1750 4750 2669 4750 
Q 3406 4750 3812 4475 
Q 4219 4200 4219 3700 
Q 4219 3256 3936 2940 
Q 3653 2625 3128 2484 
Q 3509 2338 3690 2091 
Q 3872 1844 3872 1466 
Q 3872 747 3311 328 
Q 2750 -91 1772 -91 
Q 1000 -91 570 217 
Q 141 525 141 1075 
Q 141 1572 470 1945 
Q 800 2319 1381 2484 
z
M 2559 3994 
Q 2241 3994 2048 3808 
Q 1856 3622 1856 3316 
Q 1856 3103 1995 2972 
Q 2134 2841 2363 2841 
Q 2681 2841 2873 3027 
Q 3066 3213 3066 3519 
Q 3066 3734 2927 3864 
Q 2788 3994 2559 3994 
z
" transform="scale(0.015625)"/>
     </defs>
     <use xlink:href="#DejaVuSans-BoldOblique-31"/>
     <use xlink:href="#DejaVuSans-BoldOblique-37" transform="translate(69.580078 0)"/>
     <use xlink:href="#DejaVuSans-BoldOblique-35" transform="translate(139.160156 0)"/>
     <use xlink:href="#DejaVuSans-BoldOblique-38" transform="translate(208.740234 0)"/>
    </g>
   </g>
   <g id="text_5">
    <!-- 2⁺ -->
    <g transform="translate(182.58336 376.638975) scale(0.23 -0.23)">
     <defs>
      <path id="TimesNewRomanPS-BoldMT-32" d="M 2650 0 
L 156 0 
L 156 69 
Q 1303 1434 1548 1906 
Q 1794 2378 1794 2828 
Q 1794 3156 1591 3373 
Q 1388 3591 1094 3591 
Q 613 3591 347 3109 
L 231 3150 
Q 400 3750 744 4037 
Q 1088 4325 1538 4325 
Q 1859 4325 2125 4175 
Q 2391 4025 2541 3764 
Q 2691 3503 2691 3275 
Q 2691 2859 2459 2431 
Q 2144 1853 1081 819 
L 1997 819 
Q 2334 819 2436 847 
Q 2538 875 2603 942 
Q 2669 1009 2775 1225 
L 2888 1225 
L 2650 0 
z
" transform="scale(0.015625)"/>
     </defs>
     <use xlink:href="#TimesNewRomanPS-BoldMT-32"/>
     <use xlink:href="#DejaVuSerif-Bold-207a" transform="translate(50 0)"/>
    </g>
   </g>
   <g id="text_6">
    <!-- 3384 -->
    <g transform="translate(13.58775 276.471685) scale(0.16 -0.16)">
     <defs>
      <path id="DejaVuSans-BoldOblique-33" d="M 3022 2516 
Q 3375 2434 3572 2187 
Q 3769 1941 3769 1581 
Q 3769 806 3155 357 
Q 2541 -91 1466 -91 
Q 1059 -91 692 -33 
Q 325 25 0 141 
L 178 1069 
Q 456 906 784 817 
Q 1113 728 1441 728 
Q 1969 728 2276 926 
Q 2584 1125 2584 1459 
Q 2584 1738 2350 1877 
Q 2116 2016 1644 2016 
L 1166 2016 
L 1319 2791 
L 1825 2791 
Q 2316 2791 2602 2969 
Q 2888 3147 2888 3450 
Q 2888 3688 2689 3813 
Q 2491 3938 2113 3938 
Q 1847 3938 1534 3869 
Q 1222 3800 884 3669 
L 1056 4550 
Q 1425 4650 1783 4700 
Q 2141 4750 2491 4750 
Q 3281 4750 3679 4487 
Q 4078 4225 4078 3706 
Q 4078 3241 3801 2930 
Q 3525 2619 3022 2516 
z
" transform="scale(0.015625)"/>
      <path id="DejaVuSans-BoldOblique-34" d="M 2638 3641 
L 978 1722 
L 2259 1722 
L 2638 3641 
z
M 2606 4666 
L 3975 4666 
L 3397 1722 
L 4063 1722 
L 3897 850 
L 3231 850 
L 3066 0 
L 1925 0 
L 2094 850 
L -6 850 
L 197 1881 
L 2606 4666 
z
" transform="scale(0.015625)"/>
     </defs>
     <use xlink:href="#DejaVuSans-BoldOblique-33"/>
     <use xlink:href="#DejaVuSans-BoldOblique-33" transform="translate(69.580078 0)"/>
     <use xlink:href="#DejaVuSans-BoldOblique-38" transform="translate(139.160156 0)"/>
     <use xlink:href="#DejaVuSans-BoldOblique-34" transform="translate(208.740234 0)"/>
    </g>
   </g>
   <g id="text_7">
    <!-- 4⁺ -->
    <g transform="translate(182.58336 277.21192) scale(0.23 -0.23)">
     <defs>
      <path id="TimesNewRomanPS-BoldMT-34" d="M 159 1597 
L 2172 4325 
L 2553 4325 
L 2553 1597 
L 2941 1597 
L 2941 950 
L 2553 950 
L 2553 0 
L 1694 0 
L 1694 950 
L 159 950 
L 159 1597 
z
M 463 1597 
L 1694 1597 
L 1694 3269 
L 463 1597 
z
" transform="scale(0.015625)"/>
     </defs>
     <use xlink:href="#TimesNewRomanPS-BoldMT-34"/>
     <use xlink:href="#DejaVuSerif-Bold-207a" transform="translate(50 0)"/>
    </g>
   </g>
   <g id="text_8">
    <!-- 4944 -->
    <g transform="translate(13.58775 181.121062) scale(0.16 -0.16)">
     <defs>
      <path id="DejaVuSans-BoldOblique-39" d="M 263 103 
L 428 966 
Q 700 825 953 758 
Q 1206 691 1459 691 
Q 2041 691 2400 1003 
Q 2759 1316 2834 1881 
Q 2594 1722 2337 1645 
Q 2081 1569 1791 1569 
Q 1219 1569 853 1909 
Q 488 2250 488 2778 
Q 488 3641 1052 4192 
Q 1616 4744 2503 4744 
Q 3300 4744 3736 4292 
Q 4172 3841 4172 3016 
Q 4172 2381 3978 1801 
Q 3784 1222 3431 800 
Q 3056 353 2548 128 
Q 2041 -97 1403 -97 
Q 1106 -97 825 -47 
Q 544 3 263 103 
z
M 2169 2344 
Q 2525 2344 2753 2637 
Q 2981 2931 2981 3391 
Q 2981 3675 2845 3828 
Q 2709 3981 2456 3981 
Q 2103 3981 1870 3690 
Q 1638 3400 1638 2963 
Q 1638 2663 1775 2503 
Q 1913 2344 2169 2344 
z
" transform="scale(0.015625)"/>
     </defs>
     <use xlink:href="#DejaVuSans-BoldOblique-34"/>
     <use xlink:href="#DejaVuSans-BoldOblique-39" transform="translate(69.580078 0)"/>
     <use xlink:href="#DejaVuSans-BoldOblique-34" transform="translate(139.160156 0)"/>
     <use xlink:href="#DejaVuSans-BoldOblique-34" transform="translate(208.740234 0)"/>
    </g>
   </g>
   <g id="text_9">
    <!-- 6⁺ -->
    <g transform="translate(182.58336 181.861297) scale(0.23 -0.23)">
     <defs>
      <path id="TimesNewRomanPS-BoldMT-36" d="M 3006 4325 
L 3006 4238 
Q 2441 4094 2098 3867 
Q 1756 3641 1557 3317 
Q 1359 2994 1250 2516 
Q 1388 2609 1478 2638 
Q 1681 2700 1888 2700 
Q 2363 2700 2680 2354 
Q 2997 2009 2997 1413 
Q 2997 994 2825 644 
Q 2653 294 2337 103 
Q 2022 -88 1663 -88 
Q 1272 -88 940 126 
Q 609 341 423 753 
Q 238 1166 238 1650 
Q 238 2363 580 2977 
Q 922 3591 1551 3955 
Q 2181 4319 3006 4325 
z
M 1209 2263 
Q 1184 1831 1184 1631 
Q 1184 1200 1267 797 
Q 1350 394 1494 231 
Q 1597 116 1738 116 
Q 1881 116 1993 283 
Q 2106 450 2106 963 
Q 2106 1825 1897 2153 
Q 1763 2366 1534 2366 
Q 1409 2366 1209 2263 
z
" transform="scale(0.015625)"/>
     </defs>
     <use xlink:href="#TimesNewRomanPS-BoldMT-36"/>
     <use xlink:href="#DejaVuSerif-Bold-207a" transform="translate(50 0)"/>
    </g>
   </g>
   <g id="text_10">
    <!-- 2437 -->
    <g transform="translate(263.461892 334.378208) scale(0.16 -0.16)">
     <defs>
      <path id="DejaVuSans-BoldOblique-32" d="M 1581 884 
L 3609 884 
L 3438 0 
L 50 0 
L 225 891 
L 2209 2388 
Q 2534 2638 2704 2894 
Q 2875 3150 2875 3391 
Q 2875 3647 2700 3787 
Q 2525 3928 2209 3928 
Q 1913 3928 1547 3811 
Q 1181 3694 722 3450 
L 922 4441 
Q 1347 4597 1756 4673 
Q 2166 4750 2566 4750 
Q 3278 4750 3687 4442 
Q 4097 4134 4097 3603 
Q 4097 3147 3847 2772 
Q 3597 2397 2747 1759 
L 1581 884 
z
" transform="scale(0.015625)"/>
     </defs>
     <use xlink:href="#DejaVuSans-BoldOblique-32"/>
     <use xlink:href="#DejaVuSans-BoldOblique-34" transform="translate(69.580078 0)"/>
     <use xlink:href="#DejaVuSans-BoldOblique-33" transform="translate(139.160156 0)"/>
     <use xlink:href="#DejaVuSans-BoldOblique-37" transform="translate(208.740234 0)"/>
    </g>
   </g>
   <g id="text_11">
    <!-- 0⁺ -->
    <g transform="translate(432.457502 335.118442) scale(0.23 -0.23)">
     <use xlink:href="#TimesNewRomanPS-BoldMT-30"/>
     <use xlink:href="#DejaVuSerif-Bold-207a" transform="translate(50 0)"/>
    </g>
   </g>
   <g id="text_12">
    <!-- 4096 -->
    <g transform="translate(263.461892 232.984792) scale(0.16 -0.16)">
     <defs>
      <path id="DejaVuSans-BoldOblique-36" d="M 2316 2303 
Q 1959 2303 1731 2009 
Q 1503 1716 1503 1253 
Q 1503 975 1643 820 
Q 1784 666 2034 666 
Q 2388 666 2617 955 
Q 2847 1244 2847 1684 
Q 2847 1984 2709 2143 
Q 2572 2303 2316 2303 
z
M 4225 4544 
L 4056 3681 
Q 3788 3819 3534 3887 
Q 3281 3956 3028 3956 
Q 2447 3956 2087 3643 
Q 1728 3331 1650 2766 
Q 1894 2925 2151 3001 
Q 2409 3078 2700 3078 
Q 3275 3078 3640 2737 
Q 4006 2397 4006 1869 
Q 4006 1006 3442 454 
Q 2878 -97 1991 -97 
Q 1194 -97 756 354 
Q 319 806 319 1631 
Q 319 2269 512 2848 
Q 706 3428 1056 3847 
Q 1431 4294 1942 4519 
Q 2453 4744 3091 4744 
Q 3384 4744 3662 4694 
Q 3941 4644 4225 4544 
z
" transform="scale(0.015625)"/>
     </defs>
     <use xlink:href="#DejaVuSans-BoldOblique-34"/>
     <use xlink:href="#DejaVuSans-BoldOblique-30" transform="translate(69.580078 0)"/>
     <use xlink:href="#DejaVuSans-BoldOblique-39" transform="translate(139.160156 0)"/>
     <use xlink:href="#DejaVuSans-BoldOblique-36" transform="translate(208.740234 0)"/>
    </g>
   </g>
   <g id="text_13">
    <!-- 2⁺ -->
    <g transform="translate(432.457502 233.725027) scale(0.23 -0.23)">
     <use xlink:href="#TimesNewRomanPS-BoldMT-32"/>
     <use xlink:href="#DejaVuSerif-Bold-207a" transform="translate(50 0)"/>
    </g>
   </g>
   <g id="text_14">
    <!-- 5452 -->
    <g transform="translate(263.461892 150.056507) scale(0.16 -0.16)">
     <use xlink:href="#DejaVuSans-BoldOblique-35"/>
     <use xlink:href="#DejaVuSans-BoldOblique-34" transform="translate(69.580078 0)"/>
     <use xlink:href="#DejaVuSans-BoldOblique-35" transform="translate(139.160156 0)"/>
     <use xlink:href="#DejaVuSans-BoldOblique-32" transform="translate(208.740234 0)"/>
    </g>
   </g>
   <g id="text_15">
    <!-- 4⁺ -->
    <g transform="translate(432.457502 150.796741) scale(0.23 -0.23)">
     <use xlink:href="#TimesNewRomanPS-BoldMT-34"/>
     <use xlink:href="#DejaVuSerif-Bold-207a" transform="translate(50 0)"/>
    </g>
   </g>
   <g id="text_16">
    <!-- 6524 -->
    <g transform="translate(263.461892 84.555524) scale(0.16 -0.16)">
     <use xlink:href="#DejaVuSans-BoldOblique-36"/>
     <use xlink:href="#DejaVuSans-BoldOblique-35" transform="translate(69.580078 0)"/>
     <use xlink:href="#DejaVuSans-BoldOblique-32" transform="translate(139.160156 0)"/>
     <use xlink:href="#DejaVuSans-BoldOblique-34" transform="translate(208.740234 0)"/>
    </g>
   </g>
   <g id="text_17">
    <!-- 6⁺ -->
    <g transform="translate(432.457502 85.295758) scale(0.23 -0.23)">
     <use xlink:href="#TimesNewRomanPS-BoldMT-36"/>
     <use xlink:href="#DejaVuSerif-Bold-207a" transform="translate(50 0)"/>
    </g>
   </g>
   <g id="text_18">
    <!-- 3545 -->
    <g transform="translate(513.336034 266.645997) scale(0.16 -0.16)">
     <use xlink:href="#DejaVuSans-BoldOblique-33"/>
     <use xlink:href="#DejaVuSans-BoldOblique-35" transform="translate(69.580078 0)"/>
     <use xlink:href="#DejaVuSans-BoldOblique-34" transform="translate(139.160156 0)"/>
     <use xlink:href="#DejaVuSans-BoldOblique-35" transform="translate(208.740234 0)"/>
    </g>
   </g>
   <g id="text_19">
    <!-- 2⁺ -->
    <g transform="translate(682.331644 267.386231) scale(0.23 -0.23)">
     <use xlink:href="#TimesNewRomanPS-BoldMT-32"/>
     <use xlink:href="#DejaVuSerif-Bold-207a" transform="translate(50 0)"/>
    </g>
   </g>
   <g id="text_20">
    <!-- 5141 -->
    <g transform="translate(513.336034 169.094099) scale(0.16 -0.16)">
     <use xlink:href="#DejaVuSans-BoldOblique-35"/>
     <use xlink:href="#DejaVuSans-BoldOblique-31" transform="translate(69.580078 0)"/>
     <use xlink:href="#DejaVuSans-BoldOblique-34" transform="translate(139.160156 0)"/>
     <use xlink:href="#DejaVuSans-BoldOblique-31" transform="translate(208.740234 0)"/>
    </g>
   </g>
   <g id="text_21">
    <!-- 3⁺ -->
    <g transform="translate(682.331644 169.834334) scale(0.23 -0.23)">
     <defs>
      <path id="TimesNewRomanPS-BoldMT-33" d="M 947 2125 
L 947 2234 
Q 1303 2338 1440 2427 
Q 1578 2516 1678 2698 
Q 1778 2881 1778 3069 
Q 1778 3328 1589 3514 
Q 1400 3700 1119 3700 
Q 681 3700 375 3238 
L 259 3278 
Q 484 3800 836 4062 
Q 1188 4325 1619 4325 
Q 2059 4325 2345 4056 
Q 2631 3788 2631 3428 
Q 2631 3194 2498 2976 
Q 2366 2759 2081 2594 
Q 2447 2416 2639 2155 
Q 2831 1894 2831 1500 
Q 2831 838 2351 373 
Q 1872 -91 1066 -91 
Q 528 -91 281 88 
Q 103 213 103 409 
Q 103 553 206 654 
Q 309 756 444 756 
Q 547 756 638 713 
Q 688 688 992 439 
Q 1297 191 1563 191 
Q 1794 191 1959 373 
Q 2125 556 2125 838 
Q 2125 1266 1825 1627 
Q 1525 1988 947 2125 
z
" transform="scale(0.015625)"/>
     </defs>
     <use xlink:href="#TimesNewRomanPS-BoldMT-33"/>
     <use xlink:href="#DejaVuSerif-Bold-207a" transform="translate(50 0)"/>
    </g>
   </g>
   <g id="text_22">
    <path d="M 111.560555 417.980393 
L 111.560555 426.645393 
Q 111.560555 427.620393 111.645555 427.890393 
Q 111.733055 428.160393 112.005555 428.332893 
Q 112.280555 428.502893 112.883055 428.502893 
L 113.123055 428.502893 
L 113.123055 428.792893 
L 107.545555 428.792893 
L 107.545555 428.502893 
L 107.828055 428.502893 
Q 108.508055 428.502893 108.795555 428.347893 
Q 109.085555 428.190393 109.185555 427.917893 
Q 109.288055 427.645393 109.288055 426.645393 
L 109.288055 421.152893 
Q 109.288055 420.417893 109.218055 420.235393 
Q 109.148055 420.050393 108.955555 419.922893 
Q 108.765555 419.792893 108.515555 419.792893 
Q 108.115555 419.792893 107.545555 420.042893 
L 107.405555 419.760393 
L 111.303055 417.980393 
L 111.560555 417.980393 
z
M 119.803055 422.807893 
Q 120.920555 423.627893 121.353055 424.335393 
Q 121.788055 425.042893 121.788055 425.957893 
Q 121.788055 427.237893 120.823055 428.125393 
Q 119.858055 429.012893 118.203055 429.012893 
Q 116.633055 429.012893 115.773055 428.240393 
Q 114.913055 427.465393 114.913055 426.347893 
Q 114.913055 425.495393 115.408055 424.855393 
Q 115.905555 424.215393 117.060555 423.682893 
Q 115.803055 422.722893 115.448055 422.112893 
Q 115.093055 421.502893 115.093055 420.697893 
Q 115.093055 419.635393 115.995555 418.827893 
Q 116.898055 418.020393 118.468055 418.020393 
Q 119.983055 418.020393 120.798055 418.735393 
Q 121.615555 419.447893 121.615555 420.447893 
Q 121.615555 421.197893 121.173055 421.772893 
Q 120.733055 422.347893 119.803055 422.807893 
z
M 119.210555 422.410393 
Q 119.498055 422.020393 119.638055 421.535393 
Q 119.780555 421.050393 119.780555 420.472893 
Q 119.780555 419.457893 119.343055 418.917893 
Q 119.015555 418.502893 118.435555 418.502893 
Q 117.913055 418.502893 117.545555 418.882893 
Q 117.178055 419.260393 117.178055 419.822893 
Q 117.178055 420.395393 117.588055 421.007893 
Q 117.998055 421.620393 119.210555 422.410393 
z
M 117.648055 424.057893 
Q 117.405555 424.277893 117.303055 424.457893 
Q 117.148055 424.730393 117.023055 425.255393 
Q 116.898055 425.777893 116.898055 426.347893 
Q 116.898055 427.082893 117.085555 427.577893 
Q 117.273055 428.072893 117.620555 428.292893 
Q 117.968055 428.510393 118.335555 428.510393 
Q 118.905555 428.510393 119.295555 428.092893 
Q 119.685555 427.675393 119.685555 426.947893 
Q 119.685555 425.432893 117.648055 424.057893 
z
M 124.350555 426.385393 
Q 124.898055 426.385393 125.275555 426.770393 
Q 125.655555 427.152893 125.655555 427.690393 
Q 125.655555 428.230393 125.273055 428.610393 
Q 124.890555 428.987893 124.350555 428.987893 
Q 123.810555 428.987893 123.430555 428.610393 
Q 123.053055 428.230393 123.053055 427.690393 
Q 123.053055 427.152893 123.430555 426.770393 
Q 123.810555 426.385393 124.350555 426.385393 
z
M 133.765555 423.495393 
Q 133.765555 425.082893 133.320555 426.457893 
Q 133.053055 427.300393 132.603055 427.840393 
Q 132.155555 428.377893 131.585555 428.695393 
Q 131.015555 429.012893 130.343055 429.012893 
Q 129.578055 429.012893 128.960555 428.622893 
Q 128.343055 428.230393 127.865555 427.502893 
Q 127.523055 426.972893 127.265555 426.090393 
Q 126.928055 424.895393 126.928055 423.620393 
Q 126.928055 421.895393 127.413055 420.447893 
Q 127.810555 419.252893 128.623055 418.617893 
Q 129.435555 417.980393 130.343055 417.980393 
Q 131.265555 417.980393 132.065555 418.610393 
Q 132.865555 419.237893 133.240555 420.300393 
Q 133.765555 421.760393 133.765555 423.495393 
z
M 131.358055 423.480393 
Q 131.358055 420.697893 131.328055 420.237893 
Q 131.248055 419.152893 130.953055 418.770393 
Q 130.758055 418.520393 130.320555 418.520393 
Q 129.983055 418.520393 129.788055 418.707893 
Q 129.498055 418.980393 129.395555 419.672893 
Q 129.295555 420.362893 129.295555 424.495393 
Q 129.295555 426.745393 129.453055 427.510393 
Q 129.570555 428.065393 129.788055 428.252893 
Q 130.008055 428.440393 130.365555 428.440393 
Q 130.758055 428.440393 130.953055 428.190393 
Q 131.280555 427.752893 131.328055 426.840393 
L 131.358055 423.480393 
z
" style="stroke: #ffffff; stroke-width: 3.8"/>
    <path d="M 111.560555 417.980393 
L 111.560555 426.645393 
Q 111.560555 427.620393 111.645555 427.890393 
Q 111.733055 428.160393 112.005555 428.332893 
Q 112.280555 428.502893 112.883055 428.502893 
L 113.123055 428.502893 
L 113.123055 428.792893 
L 107.545555 428.792893 
L 107.545555 428.502893 
L 107.828055 428.502893 
Q 108.508055 428.502893 108.795555 428.347893 
Q 109.085555 428.190393 109.185555 427.917893 
Q 109.288055 427.645393 109.288055 426.645393 
L 109.288055 421.152893 
Q 109.288055 420.417893 109.218055 420.235393 
Q 109.148055 420.050393 108.955555 419.922893 
Q 108.765555 419.792893 108.515555 419.792893 
Q 108.115555 419.792893 107.545555 420.042893 
L 107.405555 419.760393 
L 111.303055 417.980393 
L 111.560555 417.980393 
z
M 119.803055 422.807893 
Q 120.920555 423.627893 121.353055 424.335393 
Q 121.788055 425.042893 121.788055 425.957893 
Q 121.788055 427.237893 120.823055 428.125393 
Q 119.858055 429.012893 118.203055 429.012893 
Q 116.633055 429.012893 115.773055 428.240393 
Q 114.913055 427.465393 114.913055 426.347893 
Q 114.913055 425.495393 115.408055 424.855393 
Q 115.905555 424.215393 117.060555 423.682893 
Q 115.803055 422.722893 115.448055 422.112893 
Q 115.093055 421.502893 115.093055 420.697893 
Q 115.093055 419.635393 115.995555 418.827893 
Q 116.898055 418.020393 118.468055 418.020393 
Q 119.983055 418.020393 120.798055 418.735393 
Q 121.615555 419.447893 121.615555 420.447893 
Q 121.615555 421.197893 121.173055 421.772893 
Q 120.733055 422.347893 119.803055 422.807893 
z
M 119.210555 422.410393 
Q 119.498055 422.020393 119.638055 421.535393 
Q 119.780555 421.050393 119.780555 420.472893 
Q 119.780555 419.457893 119.343055 418.917893 
Q 119.015555 418.502893 118.435555 418.502893 
Q 117.913055 418.502893 117.545555 418.882893 
Q 117.178055 419.260393 117.178055 419.822893 
Q 117.178055 420.395393 117.588055 421.007893 
Q 117.998055 421.620393 119.210555 422.410393 
z
M 117.648055 424.057893 
Q 117.405555 424.277893 117.303055 424.457893 
Q 117.148055 424.730393 117.023055 425.255393 
Q 116.898055 425.777893 116.898055 426.347893 
Q 116.898055 427.082893 117.085555 427.577893 
Q 117.273055 428.072893 117.620555 428.292893 
Q 117.968055 428.510393 118.335555 428.510393 
Q 118.905555 428.510393 119.295555 428.092893 
Q 119.685555 427.675393 119.685555 426.947893 
Q 119.685555 425.432893 117.648055 424.057893 
z
M 124.350555 426.385393 
Q 124.898055 426.385393 125.275555 426.770393 
Q 125.655555 427.152893 125.655555 427.690393 
Q 125.655555 428.230393 125.273055 428.610393 
Q 124.890555 428.987893 124.350555 428.987893 
Q 123.810555 428.987893 123.430555 428.610393 
Q 123.053055 428.230393 123.053055 427.690393 
Q 123.053055 427.152893 123.430555 426.770393 
Q 123.810555 426.385393 124.350555 426.385393 
z
M 133.765555 423.495393 
Q 133.765555 425.082893 133.320555 426.457893 
Q 133.053055 427.300393 132.603055 427.840393 
Q 132.155555 428.377893 131.585555 428.695393 
Q 131.015555 429.012893 130.343055 429.012893 
Q 129.578055 429.012893 128.960555 428.622893 
Q 128.343055 428.230393 127.865555 427.502893 
Q 127.523055 426.972893 127.265555 426.090393 
Q 126.928055 424.895393 126.928055 423.620393 
Q 126.928055 421.895393 127.413055 420.447893 
Q 127.810555 419.252893 128.623055 418.617893 
Q 129.435555 417.980393 130.343055 417.980393 
Q 131.265555 417.980393 132.065555 418.610393 
Q 132.865555 419.237893 133.240555 420.300393 
Q 133.765555 421.760393 133.765555 423.495393 
z
M 131.358055 423.480393 
Q 131.358055 420.697893 131.328055 420.237893 
Q 131.248055 419.152893 130.953055 418.770393 
Q 130.758055 418.520393 130.320555 418.520393 
Q 129.983055 418.520393 129.788055 418.707893 
Q 129.498055 418.980393 129.395555 419.672893 
Q 129.295555 420.362893 129.295555 424.495393 
Q 129.295555 426.745393 129.453055 427.510393 
Q 129.570555 428.065393 129.788055 428.252893 
Q 130.008055 428.440393 130.365555 428.440393 
Q 130.758055 428.440393 130.953055 428.190393 
Q 131.280555 427.752893 131.328055 426.840393 
L 131.358055 423.480393 
z
"/>
   </g>
   <g id="text_23">
    <path d="M 108.718055 320.043963 
L 108.718055 319.771463 
Q 109.608055 319.511463 109.950555 319.288963 
Q 110.295555 319.066463 110.545555 318.611463 
Q 110.795555 318.153963 110.795555 317.683963 
Q 110.795555 317.036463 110.323055 316.571463 
Q 109.850555 316.106463 109.148055 316.106463 
Q 108.053055 316.106463 107.288055 317.261463 
L 106.998055 317.161463 
Q 107.560555 315.856463 108.440555 315.201463 
Q 109.320555 314.543963 110.398055 314.543963 
Q 111.498055 314.543963 112.213055 315.216463 
Q 112.928055 315.886463 112.928055 316.786463 
Q 112.928055 317.371463 112.595555 317.916463 
Q 112.265555 318.458963 111.553055 318.871463 
Q 112.468055 319.316463 112.948055 319.968963 
Q 113.428055 320.621463 113.428055 321.606463 
Q 113.428055 323.261463 112.228055 324.423963 
Q 111.030555 325.583963 109.015555 325.583963 
Q 107.670555 325.583963 107.053055 325.136463 
Q 106.608055 324.823963 106.608055 324.333963 
Q 106.608055 323.973963 106.865555 323.721463 
Q 107.123055 323.466463 107.460555 323.466463 
Q 107.718055 323.466463 107.945555 323.573963 
Q 108.070555 323.636463 108.830555 324.258963 
Q 109.593055 324.878963 110.258055 324.878963 
Q 110.835555 324.878963 111.248055 324.423963 
Q 111.663055 323.966463 111.663055 323.261463 
Q 111.663055 322.191463 110.913055 321.288963 
Q 110.163055 320.386463 108.718055 320.043963 
z
M 114.843055 325.576463 
L 114.843055 325.356463 
Q 116.140555 325.058963 117.043055 324.481463 
Q 117.945555 323.903963 118.470555 323.051463 
Q 118.998055 322.198963 119.210555 321.091463 
Q 118.725555 321.341463 118.385555 321.438963 
Q 118.045555 321.536463 117.670555 321.536463 
Q 116.468055 321.536463 115.665555 320.668963 
Q 114.865555 319.801463 114.865555 318.293963 
Q 114.865555 317.246463 115.298055 316.376463 
Q 115.733055 315.503963 116.538055 315.023963 
Q 117.343055 314.543963 118.210555 314.543963 
Q 119.140555 314.543963 119.968055 315.076463 
Q 120.795555 315.606463 121.288055 316.613963 
Q 121.780555 317.621463 121.780555 318.911463 
Q 121.780555 320.583963 120.978055 322.116463 
Q 120.178055 323.646463 118.593055 324.571463 
Q 117.008055 325.496463 114.843055 325.576463 
z
M 119.328055 320.433963 
Q 119.405555 319.558963 119.405555 318.896463 
Q 119.405555 317.473963 119.078055 316.246463 
Q 118.890555 315.566463 118.523055 315.246463 
Q 118.328055 315.073963 118.015555 315.073963 
Q 117.623055 315.073963 117.405555 315.411463 
Q 117.100555 315.871463 117.100555 317.168963 
Q 117.100555 319.333963 117.615555 320.153963 
Q 117.953055 320.683963 118.523055 320.683963 
Q 118.828055 320.683963 119.328055 320.433963 
z
M 124.350555 322.948963 
Q 124.898055 322.948963 125.275555 323.333963 
Q 125.655555 323.716463 125.655555 324.253963 
Q 125.655555 324.793963 125.273055 325.173963 
Q 124.890555 325.551463 124.350555 325.551463 
Q 123.810555 325.551463 123.430555 325.173963 
Q 123.053055 324.793963 123.053055 324.253963 
Q 123.053055 323.716463 123.430555 323.333963 
Q 123.810555 322.948963 124.350555 322.948963 
z
M 131.560555 314.543963 
L 131.560555 323.208963 
Q 131.560555 324.183963 131.645555 324.453963 
Q 131.733055 324.723963 132.005555 324.896463 
Q 132.280555 325.066463 132.883055 325.066463 
L 133.123055 325.066463 
L 133.123055 325.356463 
L 127.545555 325.356463 
L 127.545555 325.066463 
L 127.828055 325.066463 
Q 128.508055 325.066463 128.795555 324.911463 
Q 129.085555 324.753963 129.185555 324.481463 
Q 129.288055 324.208963 129.288055 323.208963 
L 129.288055 317.716463 
Q 129.288055 316.981463 129.218055 316.798963 
Q 129.148055 316.613963 128.955555 316.486463 
Q 128.765555 316.356463 128.515555 316.356463 
Q 128.115555 316.356463 127.545555 316.606463 
L 127.405555 316.323963 
L 131.303055 314.543963 
L 131.560555 314.543963 
z
" style="stroke: #ffffff; stroke-width: 3.8"/>
    <path d="M 108.718055 320.043963 
L 108.718055 319.771463 
Q 109.608055 319.511463 109.950555 319.288963 
Q 110.295555 319.066463 110.545555 318.611463 
Q 110.795555 318.153963 110.795555 317.683963 
Q 110.795555 317.036463 110.323055 316.571463 
Q 109.850555 316.106463 109.148055 316.106463 
Q 108.053055 316.106463 107.288055 317.261463 
L 106.998055 317.161463 
Q 107.560555 315.856463 108.440555 315.201463 
Q 109.320555 314.543963 110.398055 314.543963 
Q 111.498055 314.543963 112.213055 315.216463 
Q 112.928055 315.886463 112.928055 316.786463 
Q 112.928055 317.371463 112.595555 317.916463 
Q 112.265555 318.458963 111.553055 318.871463 
Q 112.468055 319.316463 112.948055 319.968963 
Q 113.428055 320.621463 113.428055 321.606463 
Q 113.428055 323.261463 112.228055 324.423963 
Q 111.030555 325.583963 109.015555 325.583963 
Q 107.670555 325.583963 107.053055 325.136463 
Q 106.608055 324.823963 106.608055 324.333963 
Q 106.608055 323.973963 106.865555 323.721463 
Q 107.123055 323.466463 107.460555 323.466463 
Q 107.718055 323.466463 107.945555 323.573963 
Q 108.070555 323.636463 108.830555 324.258963 
Q 109.593055 324.878963 110.258055 324.878963 
Q 110.835555 324.878963 111.248055 324.423963 
Q 111.663055 323.966463 111.663055 323.261463 
Q 111.663055 322.191463 110.913055 321.288963 
Q 110.163055 320.386463 108.718055 320.043963 
z
M 114.843055 325.576463 
L 114.843055 325.356463 
Q 116.140555 325.058963 117.043055 324.481463 
Q 117.945555 323.903963 118.470555 323.051463 
Q 118.998055 322.198963 119.210555 321.091463 
Q 118.725555 321.341463 118.385555 321.438963 
Q 118.045555 321.536463 117.670555 321.536463 
Q 116.468055 321.536463 115.665555 320.668963 
Q 114.865555 319.801463 114.865555 318.293963 
Q 114.865555 317.246463 115.298055 316.376463 
Q 115.733055 315.503963 116.538055 315.023963 
Q 117.343055 314.543963 118.210555 314.543963 
Q 119.140555 314.543963 119.968055 315.076463 
Q 120.795555 315.606463 121.288055 316.613963 
Q 121.780555 317.621463 121.780555 318.911463 
Q 121.780555 320.583963 120.978055 322.116463 
Q 120.178055 323.646463 118.593055 324.571463 
Q 117.008055 325.496463 114.843055 325.576463 
z
M 119.328055 320.433963 
Q 119.405555 319.558963 119.405555 318.896463 
Q 119.405555 317.473963 119.078055 316.246463 
Q 118.890555 315.566463 118.523055 315.246463 
Q 118.328055 315.073963 118.015555 315.073963 
Q 117.623055 315.073963 117.405555 315.411463 
Q 117.100555 315.871463 117.100555 317.168963 
Q 117.100555 319.333963 117.615555 320.153963 
Q 117.953055 320.683963 118.523055 320.683963 
Q 118.828055 320.683963 119.328055 320.433963 
z
M 124.350555 322.948963 
Q 124.898055 322.948963 125.275555 323.333963 
Q 125.655555 323.716463 125.655555 324.253963 
Q 125.655555 324.793963 125.273055 325.173963 
Q 124.890555 325.551463 124.350555 325.551463 
Q 123.810555 325.551463 123.430555 325.173963 
Q 123.053055 324.793963 123.053055 324.253963 
Q 123.053055 323.716463 123.430555 323.333963 
Q 123.810555 322.948963 124.350555 322.948963 
z
M 131.560555 314.543963 
L 131.560555 323.208963 
Q 131.560555 324.183963 131.645555 324.453963 
Q 131.733055 324.723963 132.005555 324.896463 
Q 132.280555 325.066463 132.883055 325.066463 
L 133.123055 325.066463 
L 133.123055 325.356463 
L 127.545555 325.356463 
L 127.545555 325.066463 
L 127.828055 325.066463 
Q 128.508055 325.066463 128.795555 324.911463 
Q 129.085555 324.753963 129.185555 324.481463 
Q 129.288055 324.208963 129.288055 323.208963 
L 129.288055 317.716463 
Q 129.288055 316.981463 129.218055 316.798963 
Q 129.148055 316.613963 128.955555 316.486463 
Q 128.765555 316.356463 128.515555 316.356463 
Q 128.115555 316.356463 127.545555 316.606463 
L 127.405555 316.323963 
L 131.303055 314.543963 
L 131.560555 314.543963 
z
"/>
   </g>
   <g id="text_24">
    <path d="M 113.865555 217.155124 
L 113.865555 217.372624 
Q 112.453055 217.732624 111.595555 218.300124 
Q 110.740555 218.865124 110.243055 219.675124 
Q 109.748055 220.482624 109.475555 221.677624 
Q 109.820555 221.445124 110.045555 221.372624 
Q 110.553055 221.217624 111.070555 221.217624 
Q 112.258055 221.217624 113.050555 222.082624 
Q 113.843055 222.945124 113.843055 224.435124 
Q 113.843055 225.482624 113.413055 226.357624 
Q 112.983055 227.232624 112.193055 227.710124 
Q 111.405555 228.187624 110.508055 228.187624 
Q 109.530555 228.187624 108.700555 227.652624 
Q 107.873055 227.115124 107.408055 226.085124 
Q 106.945555 225.052624 106.945555 223.842624 
Q 106.945555 222.060124 107.800555 220.525124 
Q 108.655555 218.990124 110.228055 218.080124 
Q 111.803055 217.170124 113.865555 217.155124 
z
M 109.373055 222.310124 
Q 109.310555 223.390124 109.310555 223.890124 
Q 109.310555 224.967624 109.518055 225.975124 
Q 109.725555 226.982624 110.085555 227.390124 
Q 110.343055 227.677624 110.695555 227.677624 
Q 111.053055 227.677624 111.333055 227.260124 
Q 111.615555 226.842624 111.615555 225.560124 
Q 111.615555 223.405124 111.093055 222.585124 
Q 110.758055 222.052624 110.185555 222.052624 
Q 109.873055 222.052624 109.373055 222.310124 
z
M 120.975555 227.967624 
L 114.740555 227.967624 
L 114.740555 227.795124 
Q 117.608055 224.382624 118.220555 223.202624 
Q 118.835555 222.022624 118.835555 220.897624 
Q 118.835555 220.077624 118.328055 219.535124 
Q 117.820555 218.990124 117.085555 218.990124 
Q 115.883055 218.990124 115.218055 220.195124 
L 114.928055 220.092624 
Q 115.350555 218.592624 116.210555 217.875124 
Q 117.070555 217.155124 118.195555 217.155124 
Q 118.998055 217.155124 119.663055 217.530124 
Q 120.328055 217.905124 120.703055 218.557624 
Q 121.078055 219.210124 121.078055 219.780124 
Q 121.078055 220.820124 120.498055 221.890124 
Q 119.710555 223.335124 117.053055 225.920124 
L 119.343055 225.920124 
Q 120.185555 225.920124 120.440555 225.850124 
Q 120.695555 225.780124 120.858055 225.612624 
Q 121.023055 225.445124 121.288055 224.905124 
L 121.570555 224.905124 
L 120.975555 227.967624 
z
M 124.350555 225.560124 
Q 124.898055 225.560124 125.275555 225.945124 
Q 125.655555 226.327624 125.655555 226.865124 
Q 125.655555 227.405124 125.273055 227.785124 
Q 124.890555 228.162624 124.350555 228.162624 
Q 123.810555 228.162624 123.430555 227.785124 
Q 123.053055 227.405124 123.053055 226.865124 
Q 123.053055 226.327624 123.430555 225.945124 
Q 123.810555 225.560124 124.350555 225.560124 
z
M 128.788055 217.372624 
L 133.748055 217.372624 
L 132.960555 219.390124 
L 128.788055 219.390124 
L 128.390555 220.445124 
Q 131.085555 220.545124 132.538055 221.787624 
Q 133.733055 222.810124 133.733055 224.335124 
Q 133.733055 225.310124 133.178055 226.245124 
Q 132.623055 227.177624 131.615555 227.682624 
Q 130.608055 228.187624 129.405555 228.187624 
Q 128.108055 228.187624 127.413055 227.702624 
Q 126.928055 227.357624 126.928055 226.920124 
Q 126.928055 226.585124 127.180555 226.327624 
Q 127.435555 226.070124 127.773055 226.070124 
Q 128.078055 226.070124 128.390555 226.195124 
Q 128.703055 226.320124 129.460555 226.850124 
Q 129.935555 227.177624 130.280555 227.302624 
Q 130.523055 227.397624 130.828055 227.397624 
Q 131.468055 227.397624 131.915555 226.930124 
Q 132.365555 226.460124 132.365555 225.802624 
Q 132.365555 224.427624 130.990555 223.570124 
Q 129.615555 222.710124 127.523055 222.710124 
Q 127.310555 222.710124 126.890555 222.717624 
L 128.788055 217.372624 
z
" style="stroke: #ffffff; stroke-width: 3.8"/>
    <path d="M 113.865555 217.155124 
L 113.865555 217.372624 
Q 112.453055 217.732624 111.595555 218.300124 
Q 110.740555 218.865124 110.243055 219.675124 
Q 109.748055 220.482624 109.475555 221.677624 
Q 109.820555 221.445124 110.045555 221.372624 
Q 110.553055 221.217624 111.070555 221.217624 
Q 112.258055 221.217624 113.050555 222.082624 
Q 113.843055 222.945124 113.843055 224.435124 
Q 113.843055 225.482624 113.413055 226.357624 
Q 112.983055 227.232624 112.193055 227.710124 
Q 111.405555 228.187624 110.508055 228.187624 
Q 109.530555 228.187624 108.700555 227.652624 
Q 107.873055 227.115124 107.408055 226.085124 
Q 106.945555 225.052624 106.945555 223.842624 
Q 106.945555 222.060124 107.800555 220.525124 
Q 108.655555 218.990124 110.228055 218.080124 
Q 111.803055 217.170124 113.865555 217.155124 
z
M 109.373055 222.310124 
Q 109.310555 223.390124 109.310555 223.890124 
Q 109.310555 224.967624 109.518055 225.975124 
Q 109.725555 226.982624 110.085555 227.390124 
Q 110.343055 227.677624 110.695555 227.677624 
Q 111.053055 227.677624 111.333055 227.260124 
Q 111.615555 226.842624 111.615555 225.560124 
Q 111.615555 223.405124 111.093055 222.585124 
Q 110.758055 222.052624 110.185555 222.052624 
Q 109.873055 222.052624 109.373055 222.310124 
z
M 120.975555 227.967624 
L 114.740555 227.967624 
L 114.740555 227.795124 
Q 117.608055 224.382624 118.220555 223.202624 
Q 118.835555 222.022624 118.835555 220.897624 
Q 118.835555 220.077624 118.328055 219.535124 
Q 117.820555 218.990124 117.085555 218.990124 
Q 115.883055 218.990124 115.218055 220.195124 
L 114.928055 220.092624 
Q 115.350555 218.592624 116.210555 217.875124 
Q 117.070555 217.155124 118.195555 217.155124 
Q 118.998055 217.155124 119.663055 217.530124 
Q 120.328055 217.905124 120.703055 218.557624 
Q 121.078055 219.210124 121.078055 219.780124 
Q 121.078055 220.820124 120.498055 221.890124 
Q 119.710555 223.335124 117.053055 225.920124 
L 119.343055 225.920124 
Q 120.185555 225.920124 120.440555 225.850124 
Q 120.695555 225.780124 120.858055 225.612624 
Q 121.023055 225.445124 121.288055 224.905124 
L 121.570555 224.905124 
L 120.975555 227.967624 
z
M 124.350555 225.560124 
Q 124.898055 225.560124 125.275555 225.945124 
Q 125.655555 226.327624 125.655555 226.865124 
Q 125.655555 227.405124 125.273055 227.785124 
Q 124.890555 228.162624 124.350555 228.162624 
Q 123.810555 228.162624 123.430555 227.785124 
Q 123.053055 227.405124 123.053055 226.865124 
Q 123.053055 226.327624 123.430555 225.945124 
Q 123.810555 225.560124 124.350555 225.560124 
z
M 128.788055 217.372624 
L 133.748055 217.372624 
L 132.960555 219.390124 
L 128.788055 219.390124 
L 128.390555 220.445124 
Q 131.085555 220.545124 132.538055 221.787624 
Q 133.733055 222.810124 133.733055 224.335124 
Q 133.733055 225.310124 133.178055 226.245124 
Q 132.623055 227.177624 131.615555 227.682624 
Q 130.608055 228.187624 129.405555 228.187624 
Q 128.108055 228.187624 127.413055 227.702624 
Q 126.928055 227.357624 126.928055 226.920124 
Q 126.928055 226.585124 127.180555 226.327624 
Q 127.435555 226.070124 127.773055 226.070124 
Q 128.078055 226.070124 128.390555 226.195124 
Q 128.703055 226.320124 129.460555 226.850124 
Q 129.935555 227.177624 130.280555 227.302624 
Q 130.523055 227.397624 130.828055 227.397624 
Q 131.468055 227.397624 131.915555 226.930124 
Q 132.365555 226.460124 132.365555 225.802624 
Q 132.365555 224.427624 130.990555 223.570124 
Q 129.615555 222.710124 127.523055 222.710124 
Q 127.310555 222.710124 126.890555 222.717624 
L 128.788055 217.372624 
z
"/>
   </g>
   <g id="text_25">
    <path d="M 362.849697 282.85275 
L 356.614697 282.85275 
L 356.614697 282.68025 
Q 359.482197 279.26775 360.094697 278.08775 
Q 360.709697 276.90775 360.709697 275.78275 
Q 360.709697 274.96275 360.202197 274.42025 
Q 359.694697 273.87525 358.959697 273.87525 
Q 357.757197 273.87525 357.092197 275.08025 
L 356.802197 274.97775 
Q 357.224697 273.47775 358.084697 272.76025 
Q 358.944697 272.04025 360.069697 272.04025 
Q 360.872197 272.04025 361.537197 272.41525 
Q 362.202197 272.79025 362.577197 273.44275 
Q 362.952197 274.09525 362.952197 274.66525 
Q 362.952197 275.70525 362.372197 276.77525 
Q 361.584697 278.22025 358.927197 280.80525 
L 361.217197 280.80525 
Q 362.059697 280.80525 362.314697 280.73525 
Q 362.569697 280.66525 362.732197 280.49775 
Q 362.897197 280.33025 363.162197 279.79025 
L 363.444697 279.79025 
L 362.849697 282.85275 
z
M 364.622197 278.86025 
L 369.654697 272.04025 
L 370.607197 272.04025 
L 370.607197 278.86025 
L 371.577197 278.86025 
L 371.577197 280.47775 
L 370.607197 280.47775 
L 370.607197 282.85275 
L 368.459697 282.85275 
L 368.459697 280.47775 
L 364.622197 280.47775 
L 364.622197 278.86025 
z
M 365.382197 278.86025 
L 368.459697 278.86025 
L 368.459697 274.68025 
L 365.382197 278.86025 
z
M 374.224697 280.44525 
Q 374.772197 280.44525 375.149697 280.83025 
Q 375.529697 281.21275 375.529697 281.75025 
Q 375.529697 282.29025 375.147197 282.67025 
Q 374.764697 283.04775 374.224697 283.04775 
Q 373.684697 283.04775 373.304697 282.67025 
Q 372.927197 282.29025 372.927197 281.75025 
Q 372.927197 281.21275 373.304697 280.83025 
Q 373.684697 280.44525 374.224697 280.44525 
z
M 381.434697 272.04025 
L 381.434697 280.70525 
Q 381.434697 281.68025 381.519697 281.95025 
Q 381.607197 282.22025 381.879697 282.39275 
Q 382.154697 282.56275 382.757197 282.56275 
L 382.997197 282.56275 
L 382.997197 282.85275 
L 377.419697 282.85275 
L 377.419697 282.56275 
L 377.702197 282.56275 
Q 378.382197 282.56275 378.669697 282.40775 
Q 378.959697 282.25025 379.059697 281.97775 
Q 379.162197 281.70525 379.162197 280.70525 
L 379.162197 275.21275 
Q 379.162197 274.47775 379.092197 274.29525 
Q 379.022197 274.11025 378.829697 273.98275 
Q 378.639697 273.85275 378.389697 273.85275 
Q 377.989697 273.85275 377.419697 274.10275 
L 377.279697 273.82025 
L 381.177197 272.04025 
L 381.434697 272.04025 
z
" style="stroke: #ffffff; stroke-width: 3.8"/>
    <path d="M 362.849697 282.85275 
L 356.614697 282.85275 
L 356.614697 282.68025 
Q 359.482197 279.26775 360.094697 278.08775 
Q 360.709697 276.90775 360.709697 275.78275 
Q 360.709697 274.96275 360.202197 274.42025 
Q 359.694697 273.87525 358.959697 273.87525 
Q 357.757197 273.87525 357.092197 275.08025 
L 356.802197 274.97775 
Q 357.224697 273.47775 358.084697 272.76025 
Q 358.944697 272.04025 360.069697 272.04025 
Q 360.872197 272.04025 361.537197 272.41525 
Q 362.202197 272.79025 362.577197 273.44275 
Q 362.952197 274.09525 362.952197 274.66525 
Q 362.952197 275.70525 362.372197 276.77525 
Q 361.584697 278.22025 358.927197 280.80525 
L 361.217197 280.80525 
Q 362.059697 280.80525 362.314697 280.73525 
Q 362.569697 280.66525 362.732197 280.49775 
Q 362.897197 280.33025 363.162197 279.79025 
L 363.444697 279.79025 
L 362.849697 282.85275 
z
M 364.622197 278.86025 
L 369.654697 272.04025 
L 370.607197 272.04025 
L 370.607197 278.86025 
L 371.577197 278.86025 
L 371.577197 280.47775 
L 370.607197 280.47775 
L 370.607197 282.85275 
L 368.459697 282.85275 
L 368.459697 280.47775 
L 364.622197 280.47775 
L 364.622197 278.86025 
z
M 365.382197 278.86025 
L 368.459697 278.86025 
L 368.459697 274.68025 
L 365.382197 278.86025 
z
M 374.224697 280.44525 
Q 374.772197 280.44525 375.149697 280.83025 
Q 375.529697 281.21275 375.529697 281.75025 
Q 375.529697 282.29025 375.147197 282.67025 
Q 374.764697 283.04775 374.224697 283.04775 
Q 373.684697 283.04775 373.304697 282.67025 
Q 372.927197 282.29025 372.927197 281.75025 
Q 372.927197 281.21275 373.304697 280.83025 
Q 373.684697 280.44525 374.224697 280.44525 
z
M 381.434697 272.04025 
L 381.434697 280.70525 
Q 381.434697 281.68025 381.519697 281.95025 
Q 381.607197 282.22025 381.879697 282.39275 
Q 382.154697 282.56275 382.757197 282.56275 
L 382.997197 282.56275 
L 382.997197 282.85275 
L 377.419697 282.85275 
L 377.419697 282.56275 
L 377.702197 282.56275 
Q 378.382197 282.56275 378.669697 282.40775 
Q 378.959697 282.25025 379.059697 281.97775 
Q 379.162197 281.70525 379.162197 280.70525 
L 379.162197 275.21275 
Q 379.162197 274.47775 379.092197 274.29525 
Q 379.022197 274.11025 378.829697 273.98275 
Q 378.639697 273.85275 378.389697 273.85275 
Q 377.989697 273.85275 377.419697 274.10275 
L 377.279697 273.82025 
L 381.177197 272.04025 
L 381.434697 272.04025 
z
"/>
   </g>
   <g id="text_26">
    <path d="M 358.662197 180.0969 
L 363.622197 180.0969 
L 362.834697 182.1144 
L 358.662197 182.1144 
L 358.264697 183.1694 
Q 360.959697 183.2694 362.412197 184.5119 
Q 363.607197 185.5344 363.607197 187.0594 
Q 363.607197 188.0344 363.052197 188.9694 
Q 362.497197 189.9019 361.489697 190.4069 
Q 360.482197 190.9119 359.279697 190.9119 
Q 357.982197 190.9119 357.287197 190.4269 
Q 356.802197 190.0819 356.802197 189.6444 
Q 356.802197 189.3094 357.054697 189.0519 
Q 357.309697 188.7944 357.647197 188.7944 
Q 357.952197 188.7944 358.264697 188.9194 
Q 358.577197 189.0444 359.334697 189.5744 
Q 359.809697 189.9019 360.154697 190.0269 
Q 360.397197 190.1219 360.702197 190.1219 
Q 361.342197 190.1219 361.789697 189.6544 
Q 362.239697 189.1844 362.239697 188.5269 
Q 362.239697 187.1519 360.864697 186.2944 
Q 359.489697 185.4344 357.397197 185.4344 
Q 357.184697 185.4344 356.764697 185.4419 
L 358.662197 180.0969 
z
M 367.059697 190.9119 
L 369.944697 182.1694 
L 367.747197 182.1694 
Q 366.459697 182.1694 365.809697 182.5044 
Q 365.357197 182.7394 365.059697 183.3869 
L 364.764697 183.3869 
L 365.529697 180.0969 
L 371.842197 180.0969 
L 368.287197 190.9119 
L 367.059697 190.9119 
z
M 374.224697 188.2844 
Q 374.772197 188.2844 375.149697 188.6694 
Q 375.529697 189.0519 375.529697 189.5894 
Q 375.529697 190.1294 375.147197 190.5094 
Q 374.764697 190.8869 374.224697 190.8869 
Q 373.684697 190.8869 373.304697 190.5094 
Q 372.927197 190.1294 372.927197 189.5894 
Q 372.927197 189.0519 373.304697 188.6694 
Q 373.684697 188.2844 374.224697 188.2844 
z
M 381.677197 184.7069 
Q 382.794697 185.5269 383.227197 186.2344 
Q 383.662197 186.9419 383.662197 187.8569 
Q 383.662197 189.1369 382.697197 190.0244 
Q 381.732197 190.9119 380.077197 190.9119 
Q 378.507197 190.9119 377.647197 190.1394 
Q 376.787197 189.3644 376.787197 188.2469 
Q 376.787197 187.3944 377.282197 186.7544 
Q 377.779697 186.1144 378.934697 185.5819 
Q 377.677197 184.6219 377.322197 184.0119 
Q 376.967197 183.4019 376.967197 182.5969 
Q 376.967197 181.5344 377.869697 180.7269 
Q 378.772197 179.9194 380.342197 179.9194 
Q 381.857197 179.9194 382.672197 180.6344 
Q 383.489697 181.3469 383.489697 182.3469 
Q 383.489697 183.0969 383.047197 183.6719 
Q 382.607197 184.2469 381.677197 184.7069 
z
M 381.084697 184.3094 
Q 381.372197 183.9194 381.512197 183.4344 
Q 381.654697 182.9494 381.654697 182.3719 
Q 381.654697 181.3569 381.217197 180.8169 
Q 380.889697 180.4019 380.309697 180.4019 
Q 379.787197 180.4019 379.419697 180.7819 
Q 379.052197 181.1594 379.052197 181.7219 
Q 379.052197 182.2944 379.462197 182.9069 
Q 379.872197 183.5194 381.084697 184.3094 
z
M 379.522197 185.9569 
Q 379.279697 186.1769 379.177197 186.3569 
Q 379.022197 186.6294 378.897197 187.1544 
Q 378.772197 187.6769 378.772197 188.2469 
Q 378.772197 188.9819 378.959697 189.4769 
Q 379.147197 189.9719 379.494697 190.1919 
Q 379.842197 190.4094 380.209697 190.4094 
Q 380.779697 190.4094 381.169697 189.9919 
Q 381.559697 189.5744 381.559697 188.8469 
Q 381.559697 187.3319 379.522197 185.9569 
z
" style="stroke: #ffffff; stroke-width: 3.8"/>
    <path d="M 358.662197 180.0969 
L 363.622197 180.0969 
L 362.834697 182.1144 
L 358.662197 182.1144 
L 358.264697 183.1694 
Q 360.959697 183.2694 362.412197 184.5119 
Q 363.607197 185.5344 363.607197 187.0594 
Q 363.607197 188.0344 363.052197 188.9694 
Q 362.497197 189.9019 361.489697 190.4069 
Q 360.482197 190.9119 359.279697 190.9119 
Q 357.982197 190.9119 357.287197 190.4269 
Q 356.802197 190.0819 356.802197 189.6444 
Q 356.802197 189.3094 357.054697 189.0519 
Q 357.309697 188.7944 357.647197 188.7944 
Q 357.952197 188.7944 358.264697 188.9194 
Q 358.577197 189.0444 359.334697 189.5744 
Q 359.809697 189.9019 360.154697 190.0269 
Q 360.397197 190.1219 360.702197 190.1219 
Q 361.342197 190.1219 361.789697 189.6544 
Q 362.239697 189.1844 362.239697 188.5269 
Q 362.239697 187.1519 360.864697 186.2944 
Q 359.489697 185.4344 357.397197 185.4344 
Q 357.184697 185.4344 356.764697 185.4419 
L 358.662197 180.0969 
z
M 367.059697 190.9119 
L 369.944697 182.1694 
L 367.747197 182.1694 
Q 366.459697 182.1694 365.809697 182.5044 
Q 365.357197 182.7394 365.059697 183.3869 
L 364.764697 183.3869 
L 365.529697 180.0969 
L 371.842197 180.0969 
L 368.287197 190.9119 
L 367.059697 190.9119 
z
M 374.224697 188.2844 
Q 374.772197 188.2844 375.149697 188.6694 
Q 375.529697 189.0519 375.529697 189.5894 
Q 375.529697 190.1294 375.147197 190.5094 
Q 374.764697 190.8869 374.224697 190.8869 
Q 373.684697 190.8869 373.304697 190.5094 
Q 372.927197 190.1294 372.927197 189.5894 
Q 372.927197 189.0519 373.304697 188.6694 
Q 373.684697 188.2844 374.224697 188.2844 
z
M 381.677197 184.7069 
Q 382.794697 185.5269 383.227197 186.2344 
Q 383.662197 186.9419 383.662197 187.8569 
Q 383.662197 189.1369 382.697197 190.0244 
Q 381.732197 190.9119 380.077197 190.9119 
Q 378.507197 190.9119 377.647197 190.1394 
Q 376.787197 189.3644 376.787197 188.2469 
Q 376.787197 187.3944 377.282197 186.7544 
Q 377.779697 186.1144 378.934697 185.5819 
Q 377.677197 184.6219 377.322197 184.0119 
Q 376.967197 183.4019 376.967197 182.5969 
Q 376.967197 181.5344 377.869697 180.7269 
Q 378.772197 179.9194 380.342197 179.9194 
Q 381.857197 179.9194 382.672197 180.6344 
Q 383.489697 181.3469 383.489697 182.3469 
Q 383.489697 183.0969 383.047197 183.6719 
Q 382.607197 184.2469 381.677197 184.7069 
z
M 381.084697 184.3094 
Q 381.372197 183.9194 381.512197 183.4344 
Q 381.654697 182.9494 381.654697 182.3719 
Q 381.654697 181.3569 381.217197 180.8169 
Q 380.889697 180.4019 380.309697 180.4019 
Q 379.787197 180.4019 379.419697 180.7819 
Q 379.052197 181.1594 379.052197 181.7219 
Q 379.052197 182.2944 379.462197 182.9069 
Q 379.872197 183.5194 381.084697 184.3094 
z
M 379.522197 185.9569 
Q 379.279697 186.1769 379.177197 186.3569 
Q 379.022197 186.6294 378.897197 187.1544 
Q 378.772197 187.6769 378.772197 188.2469 
Q 378.772197 188.9819 378.959697 189.4769 
Q 379.147197 189.9719 379.494697 190.1919 
Q 379.842197 190.4094 380.209697 190.4094 
Q 380.779697 190.4094 381.169697 189.9919 
Q 381.559697 189.5744 381.559697 188.8469 
Q 381.559697 187.3319 379.522197 185.9569 
z
"/>
   </g>
   <g id="text_27">
    <path d="M 356.622197 112.484765 
L 361.654697 105.664765 
L 362.607197 105.664765 
L 362.607197 112.484765 
L 363.577197 112.484765 
L 363.577197 114.102265 
L 362.607197 114.102265 
L 362.607197 116.477265 
L 360.459697 116.477265 
L 360.459697 114.102265 
L 356.622197 114.102265 
L 356.622197 112.484765 
z
M 357.382197 112.484765 
L 360.459697 112.484765 
L 360.459697 108.304765 
L 357.382197 112.484765 
z
M 369.434697 105.664765 
L 369.434697 114.329765 
Q 369.434697 115.304765 369.519697 115.574765 
Q 369.607197 115.844765 369.879697 116.017265 
Q 370.154697 116.187265 370.757197 116.187265 
L 370.997197 116.187265 
L 370.997197 116.477265 
L 365.419697 116.477265 
L 365.419697 116.187265 
L 365.702197 116.187265 
Q 366.382197 116.187265 366.669697 116.032265 
Q 366.959697 115.874765 367.059697 115.602265 
Q 367.162197 115.329765 367.162197 114.329765 
L 367.162197 108.837265 
Q 367.162197 108.102265 367.092197 107.919765 
Q 367.022197 107.734765 366.829697 107.607265 
Q 366.639697 107.477265 366.389697 107.477265 
Q 365.989697 107.477265 365.419697 107.727265 
L 365.279697 107.444765 
L 369.177197 105.664765 
L 369.434697 105.664765 
z
M 374.224697 114.069765 
Q 374.772197 114.069765 375.149697 114.454765 
Q 375.529697 114.837265 375.529697 115.374765 
Q 375.529697 115.914765 375.147197 116.294765 
Q 374.764697 116.672265 374.224697 116.672265 
Q 373.684697 116.672265 373.304697 116.294765 
Q 372.927197 115.914765 372.927197 115.374765 
Q 372.927197 114.837265 373.304697 114.454765 
Q 373.684697 114.069765 374.224697 114.069765 
z
M 383.639697 111.179765 
Q 383.639697 112.767265 383.194697 114.142265 
Q 382.927197 114.984765 382.477197 115.524765 
Q 382.029697 116.062265 381.459697 116.379765 
Q 380.889697 116.697265 380.217197 116.697265 
Q 379.452197 116.697265 378.834697 116.307265 
Q 378.217197 115.914765 377.739697 115.187265 
Q 377.397197 114.657265 377.139697 113.774765 
Q 376.802197 112.579765 376.802197 111.304765 
Q 376.802197 109.579765 377.287197 108.132265 
Q 377.684697 106.937265 378.497197 106.302265 
Q 379.309697 105.664765 380.217197 105.664765 
Q 381.139697 105.664765 381.939697 106.294765 
Q 382.739697 106.922265 383.114697 107.984765 
Q 383.639697 109.444765 383.639697 111.179765 
z
M 381.232197 111.164765 
Q 381.232197 108.382265 381.202197 107.922265 
Q 381.122197 106.837265 380.827197 106.454765 
Q 380.632197 106.204765 380.194697 106.204765 
Q 379.857197 106.204765 379.662197 106.392265 
Q 379.372197 106.664765 379.269697 107.357265 
Q 379.169697 108.047265 379.169697 112.179765 
Q 379.169697 114.429765 379.327197 115.194765 
Q 379.444697 115.749765 379.662197 115.937265 
Q 379.882197 116.124765 380.239697 116.124765 
Q 380.632197 116.124765 380.827197 115.874765 
Q 381.154697 115.437265 381.202197 114.524765 
L 381.232197 111.164765 
z
" style="stroke: #ffffff; stroke-width: 3.8"/>
    <path d="M 356.622197 112.484765 
L 361.654697 105.664765 
L 362.607197 105.664765 
L 362.607197 112.484765 
L 363.577197 112.484765 
L 363.577197 114.102265 
L 362.607197 114.102265 
L 362.607197 116.477265 
L 360.459697 116.477265 
L 360.459697 114.102265 
L 356.622197 114.102265 
L 356.622197 112.484765 
z
M 357.382197 112.484765 
L 360.459697 112.484765 
L 360.459697 108.304765 
L 357.382197 112.484765 
z
M 369.434697 105.664765 
L 369.434697 114.329765 
Q 369.434697 115.304765 369.519697 115.574765 
Q 369.607197 115.844765 369.879697 116.017265 
Q 370.154697 116.187265 370.757197 116.187265 
L 370.997197 116.187265 
L 370.997197 116.477265 
L 365.419697 116.477265 
L 365.419697 116.187265 
L 365.702197 116.187265 
Q 366.382197 116.187265 366.669697 116.032265 
Q 366.959697 115.874765 367.059697 115.602265 
Q 367.162197 115.329765 367.162197 114.329765 
L 367.162197 108.837265 
Q 367.162197 108.102265 367.092197 107.919765 
Q 367.022197 107.734765 366.829697 107.607265 
Q 366.639697 107.477265 366.389697 107.477265 
Q 365.989697 107.477265 365.419697 107.727265 
L 365.279697 107.444765 
L 369.177197 105.664765 
L 369.434697 105.664765 
z
M 374.224697 114.069765 
Q 374.772197 114.069765 375.149697 114.454765 
Q 375.529697 114.837265 375.529697 115.374765 
Q 375.529697 115.914765 375.147197 116.294765 
Q 374.764697 116.672265 374.224697 116.672265 
Q 373.684697 116.672265 373.304697 116.294765 
Q 372.927197 115.914765 372.927197 115.374765 
Q 372.927197 114.837265 373.304697 114.454765 
Q 373.684697 114.069765 374.224697 114.069765 
z
M 383.639697 111.179765 
Q 383.639697 112.767265 383.194697 114.142265 
Q 382.927197 114.984765 382.477197 115.524765 
Q 382.029697 116.062265 381.459697 116.379765 
Q 380.889697 116.697265 380.217197 116.697265 
Q 379.452197 116.697265 378.834697 116.307265 
Q 378.217197 115.914765 377.739697 115.187265 
Q 377.397197 114.657265 377.139697 113.774765 
Q 376.802197 112.579765 376.802197 111.304765 
Q 376.802197 109.579765 377.287197 108.132265 
Q 377.684697 106.937265 378.497197 106.302265 
Q 379.309697 105.664765 380.217197 105.664765 
Q 381.139697 105.664765 381.939697 106.294765 
Q 382.739697 106.922265 383.114697 107.984765 
Q 383.639697 109.444765 383.639697 111.179765 
z
M 381.232197 111.164765 
Q 381.232197 108.382265 381.202197 107.922265 
Q 381.122197 106.837265 380.827197 106.454765 
Q 380.632197 106.204765 380.194697 106.204765 
Q 379.857197 106.204765 379.662197 106.392265 
Q 379.372197 106.664765 379.269697 107.357265 
Q 379.169697 108.047265 379.169697 112.179765 
Q 379.169697 114.429765 379.327197 115.194765 
Q 379.444697 115.749765 379.662197 115.937265 
Q 379.882197 116.124765 380.239697 116.124765 
Q 380.632197 116.124765 380.827197 115.874765 
Q 381.154697 115.437265 381.202197 114.524765 
L 381.232197 111.164765 
z
"/>
   </g>
   <g id="text_28">
    <path d="M 572.551172 213.048798 
L 577.583672 206.228798 
L 578.536172 206.228798 
L 578.536172 213.048798 
L 579.506172 213.048798 
L 579.506172 214.666298 
L 578.536172 214.666298 
L 578.536172 217.041298 
L 576.388672 217.041298 
L 576.388672 214.666298 
L 572.551172 214.666298 
L 572.551172 213.048798 
z
M 573.311172 213.048798 
L 576.388672 213.048798 
L 576.388672 208.868798 
L 573.311172 213.048798 
z
M 582.591172 206.446298 
L 587.551172 206.446298 
L 586.763672 208.463798 
L 582.591172 208.463798 
L 582.193672 209.518798 
Q 584.888672 209.618798 586.341172 210.861298 
Q 587.536172 211.883798 587.536172 213.408798 
Q 587.536172 214.383798 586.981172 215.318798 
Q 586.426172 216.251298 585.418672 216.756298 
Q 584.411172 217.261298 583.208672 217.261298 
Q 581.911172 217.261298 581.216172 216.776298 
Q 580.731172 216.431298 580.731172 215.993798 
Q 580.731172 215.658798 580.983672 215.401298 
Q 581.238672 215.143798 581.576172 215.143798 
Q 581.881172 215.143798 582.193672 215.268798 
Q 582.506172 215.393798 583.263672 215.923798 
Q 583.738672 216.251298 584.083672 216.376298 
Q 584.326172 216.471298 584.631172 216.471298 
Q 585.271172 216.471298 585.718672 216.003798 
Q 586.168672 215.533798 586.168672 214.876298 
Q 586.168672 213.501298 584.793672 212.643798 
Q 583.418672 211.783798 581.326172 211.783798 
Q 581.113672 211.783798 580.693672 211.791298 
L 582.591172 206.446298 
z
M 590.153672 214.633798 
Q 590.701172 214.633798 591.078672 215.018798 
Q 591.458672 215.401298 591.458672 215.938798 
Q 591.458672 216.478798 591.076172 216.858798 
Q 590.693672 217.236298 590.153672 217.236298 
Q 589.613672 217.236298 589.233672 216.858798 
Q 588.856172 216.478798 588.856172 215.938798 
Q 588.856172 215.401298 589.233672 215.018798 
Q 589.613672 214.633798 590.153672 214.633798 
z
M 597.606172 211.056298 
Q 598.723672 211.876298 599.156172 212.583798 
Q 599.591172 213.291298 599.591172 214.206298 
Q 599.591172 215.486298 598.626172 216.373798 
Q 597.661172 217.261298 596.006172 217.261298 
Q 594.436172 217.261298 593.576172 216.488798 
Q 592.716172 215.713798 592.716172 214.596298 
Q 592.716172 213.743798 593.211172 213.103798 
Q 593.708672 212.463798 594.863672 211.931298 
Q 593.606172 210.971298 593.251172 210.361298 
Q 592.896172 209.751298 592.896172 208.946298 
Q 592.896172 207.883798 593.798672 207.076298 
Q 594.701172 206.268798 596.271172 206.268798 
Q 597.786172 206.268798 598.601172 206.983798 
Q 599.418672 207.696298 599.418672 208.696298 
Q 599.418672 209.446298 598.976172 210.021298 
Q 598.536172 210.596298 597.606172 211.056298 
z
M 597.013672 210.658798 
Q 597.301172 210.268798 597.441172 209.783798 
Q 597.583672 209.298798 597.583672 208.721298 
Q 597.583672 207.706298 597.146172 207.166298 
Q 596.818672 206.751298 596.238672 206.751298 
Q 595.716172 206.751298 595.348672 207.131298 
Q 594.981172 207.508798 594.981172 208.071298 
Q 594.981172 208.643798 595.391172 209.256298 
Q 595.801172 209.868798 597.013672 210.658798 
z
M 595.451172 212.306298 
Q 595.208672 212.526298 595.106172 212.706298 
Q 594.951172 212.978798 594.826172 213.503798 
Q 594.701172 214.026298 594.701172 214.596298 
Q 594.701172 215.331298 594.888672 215.826298 
Q 595.076172 216.321298 595.423672 216.541298 
Q 595.771172 216.758798 596.138672 216.758798 
Q 596.708672 216.758798 597.098672 216.341298 
Q 597.488672 215.923798 597.488672 215.196298 
Q 597.488672 213.681298 595.451172 212.306298 
z
" style="stroke: #ffffff; stroke-width: 3.8"/>
    <path d="M 572.551172 213.048798 
L 577.583672 206.228798 
L 578.536172 206.228798 
L 578.536172 213.048798 
L 579.506172 213.048798 
L 579.506172 214.666298 
L 578.536172 214.666298 
L 578.536172 217.041298 
L 576.388672 217.041298 
L 576.388672 214.666298 
L 572.551172 214.666298 
L 572.551172 213.048798 
z
M 573.311172 213.048798 
L 576.388672 213.048798 
L 576.388672 208.868798 
L 573.311172 213.048798 
z
M 582.591172 206.446298 
L 587.551172 206.446298 
L 586.763672 208.463798 
L 582.591172 208.463798 
L 582.193672 209.518798 
Q 584.888672 209.618798 586.341172 210.861298 
Q 587.536172 211.883798 587.536172 213.408798 
Q 587.536172 214.383798 586.981172 215.318798 
Q 586.426172 216.251298 585.418672 216.756298 
Q 584.411172 217.261298 583.208672 217.261298 
Q 581.911172 217.261298 581.216172 216.776298 
Q 580.731172 216.431298 580.731172 215.993798 
Q 580.731172 215.658798 580.983672 215.401298 
Q 581.238672 215.143798 581.576172 215.143798 
Q 581.881172 215.143798 582.193672 215.268798 
Q 582.506172 215.393798 583.263672 215.923798 
Q 583.738672 216.251298 584.083672 216.376298 
Q 584.326172 216.471298 584.631172 216.471298 
Q 585.271172 216.471298 585.718672 216.003798 
Q 586.168672 215.533798 586.168672 214.876298 
Q 586.168672 213.501298 584.793672 212.643798 
Q 583.418672 211.783798 581.326172 211.783798 
Q 581.113672 211.783798 580.693672 211.791298 
L 582.591172 206.446298 
z
M 590.153672 214.633798 
Q 590.701172 214.633798 591.078672 215.018798 
Q 591.458672 215.401298 591.458672 215.938798 
Q 591.458672 216.478798 591.076172 216.858798 
Q 590.693672 217.236298 590.153672 217.236298 
Q 589.613672 217.236298 589.233672 216.858798 
Q 588.856172 216.478798 588.856172 215.938798 
Q 588.856172 215.401298 589.233672 215.018798 
Q 589.613672 214.633798 590.153672 214.633798 
z
M 597.606172 211.056298 
Q 598.723672 211.876298 599.156172 212.583798 
Q 599.591172 213.291298 599.591172 214.206298 
Q 599.591172 215.486298 598.626172 216.373798 
Q 597.661172 217.261298 596.006172 217.261298 
Q 594.436172 217.261298 593.576172 216.488798 
Q 592.716172 215.713798 592.716172 214.596298 
Q 592.716172 213.743798 593.211172 213.103798 
Q 593.708672 212.463798 594.863672 211.931298 
Q 593.606172 210.971298 593.251172 210.361298 
Q 592.896172 209.751298 592.896172 208.946298 
Q 592.896172 207.883798 593.798672 207.076298 
Q 594.701172 206.268798 596.271172 206.268798 
Q 597.786172 206.268798 598.601172 206.983798 
Q 599.418672 207.696298 599.418672 208.696298 
Q 599.418672 209.446298 598.976172 210.021298 
Q 598.536172 210.596298 597.606172 211.056298 
z
M 597.013672 210.658798 
Q 597.301172 210.268798 597.441172 209.783798 
Q 597.583672 209.298798 597.583672 208.721298 
Q 597.583672 207.706298 597.146172 207.166298 
Q 596.818672 206.751298 596.238672 206.751298 
Q 595.716172 206.751298 595.348672 207.131298 
Q 594.981172 207.508798 594.981172 208.071298 
Q 594.981172 208.643798 595.391172 209.256298 
Q 595.801172 209.868798 597.013672 210.658798 
z
M 595.451172 212.306298 
Q 595.208672 212.526298 595.106172 212.706298 
Q 594.951172 212.978798 594.826172 213.503798 
Q 594.701172 214.026298 594.701172 214.596298 
Q 594.701172 215.331298 594.888672 215.826298 
Q 595.076172 216.321298 595.423672 216.541298 
Q 595.771172 216.758798 596.138672 216.758798 
Q 596.708672 216.758798 597.098672 216.341298 
Q 597.488672 215.923798 597.488672 215.196298 
Q 597.488672 213.681298 595.451172 212.306298 
z
"/>
   </g>
   <g id="text_29">
    <path d="M 574.480389 378.221329 
L 568.635076 378.221329 
L 568.635076 378.05961 
Q 571.323357 374.860392 571.897576 373.754142 
Q 572.474139 372.647892 572.474139 371.593204 
Q 572.474139 370.824454 571.998357 370.31586 
Q 571.522576 369.804923 570.833514 369.804923 
Q 569.70617 369.804923 569.082732 370.93461 
L 568.810857 370.838517 
Q 569.206951 369.432267 570.013201 368.75961 
Q 570.819451 368.08461 571.874139 368.08461 
Q 572.626482 368.08461 573.24992 368.436173 
Q 573.873357 368.787735 574.22492 369.399454 
Q 574.576482 370.011173 574.576482 370.545548 
Q 574.576482 371.520548 574.032732 372.523673 
Q 573.294451 373.87836 570.803045 376.301798 
L 572.94992 376.301798 
Q 573.739764 376.301798 573.978826 376.236173 
Q 574.217889 376.170548 574.370232 376.013517 
Q 574.52492 375.856485 574.773357 375.350235 
L 575.038201 375.350235 
L 574.480389 378.221329 
z
M 577.644451 375.964298 
Q 578.157732 375.964298 578.511639 376.325235 
Q 578.867889 376.683829 578.867889 377.187735 
Q 578.867889 377.693985 578.509295 378.050235 
Q 578.150701 378.404142 577.644451 378.404142 
Q 577.138201 378.404142 576.781951 378.050235 
Q 576.428045 377.693985 576.428045 377.187735 
Q 576.428045 376.683829 576.781951 376.325235 
Q 577.138201 375.964298 577.644451 375.964298 
z
M 579.98117 378.427579 
L 579.98117 378.221329 
Q 581.197576 377.942423 582.04367 377.401017 
Q 582.889764 376.85961 583.381951 376.060392 
Q 583.876482 375.261173 584.075701 374.222892 
Q 583.621014 374.457267 583.302264 374.548673 
Q 582.983514 374.640079 582.631951 374.640079 
Q 581.504607 374.640079 580.752264 373.826798 
Q 580.002264 373.013517 580.002264 371.600235 
Q 580.002264 370.618204 580.407732 369.802579 
Q 580.815545 368.98461 581.570232 368.53461 
Q 582.32492 368.08461 583.138201 368.08461 
Q 584.010076 368.08461 584.785857 368.583829 
Q 585.561639 369.080704 586.023357 370.025235 
Q 586.485076 370.969767 586.485076 372.179142 
Q 586.485076 373.74711 585.732732 375.183829 
Q 584.982732 376.618204 583.496795 377.485392 
Q 582.010857 378.352579 579.98117 378.427579 
z
M 584.185857 373.606485 
Q 584.258514 372.786173 584.258514 372.165079 
Q 584.258514 370.831485 583.951482 369.680704 
Q 583.775701 369.043204 583.43117 368.743204 
Q 583.248357 368.581485 582.955389 368.581485 
Q 582.58742 368.581485 582.383514 368.897892 
Q 582.097576 369.329142 582.097576 370.545548 
Q 582.097576 372.575235 582.580389 373.343985 
Q 582.896795 373.84086 583.43117 373.84086 
Q 583.717107 373.84086 584.185857 373.606485 
z
" style="fill: #404040; stroke: #ffffff; stroke-width: 3.8"/>
    <path d="M 574.480389 378.221329 
L 568.635076 378.221329 
L 568.635076 378.05961 
Q 571.323357 374.860392 571.897576 373.754142 
Q 572.474139 372.647892 572.474139 371.593204 
Q 572.474139 370.824454 571.998357 370.31586 
Q 571.522576 369.804923 570.833514 369.804923 
Q 569.70617 369.804923 569.082732 370.93461 
L 568.810857 370.838517 
Q 569.206951 369.432267 570.013201 368.75961 
Q 570.819451 368.08461 571.874139 368.08461 
Q 572.626482 368.08461 573.24992 368.436173 
Q 573.873357 368.787735 574.22492 369.399454 
Q 574.576482 370.011173 574.576482 370.545548 
Q 574.576482 371.520548 574.032732 372.523673 
Q 573.294451 373.87836 570.803045 376.301798 
L 572.94992 376.301798 
Q 573.739764 376.301798 573.978826 376.236173 
Q 574.217889 376.170548 574.370232 376.013517 
Q 574.52492 375.856485 574.773357 375.350235 
L 575.038201 375.350235 
L 574.480389 378.221329 
z
M 577.644451 375.964298 
Q 578.157732 375.964298 578.511639 376.325235 
Q 578.867889 376.683829 578.867889 377.187735 
Q 578.867889 377.693985 578.509295 378.050235 
Q 578.150701 378.404142 577.644451 378.404142 
Q 577.138201 378.404142 576.781951 378.050235 
Q 576.428045 377.693985 576.428045 377.187735 
Q 576.428045 376.683829 576.781951 376.325235 
Q 577.138201 375.964298 577.644451 375.964298 
z
M 579.98117 378.427579 
L 579.98117 378.221329 
Q 581.197576 377.942423 582.04367 377.401017 
Q 582.889764 376.85961 583.381951 376.060392 
Q 583.876482 375.261173 584.075701 374.222892 
Q 583.621014 374.457267 583.302264 374.548673 
Q 582.983514 374.640079 582.631951 374.640079 
Q 581.504607 374.640079 580.752264 373.826798 
Q 580.002264 373.013517 580.002264 371.600235 
Q 580.002264 370.618204 580.407732 369.802579 
Q 580.815545 368.98461 581.570232 368.53461 
Q 582.32492 368.08461 583.138201 368.08461 
Q 584.010076 368.08461 584.785857 368.583829 
Q 585.561639 369.080704 586.023357 370.025235 
Q 586.485076 370.969767 586.485076 372.179142 
Q 586.485076 373.74711 585.732732 375.183829 
Q 584.982732 376.618204 583.496795 377.485392 
Q 582.010857 378.352579 579.98117 378.427579 
z
M 584.185857 373.606485 
Q 584.258514 372.786173 584.258514 372.165079 
Q 584.258514 370.831485 583.951482 369.680704 
Q 583.775701 369.043204 583.43117 368.743204 
Q 583.248357 368.581485 582.955389 368.581485 
Q 582.58742 368.581485 582.383514 368.897892 
Q 582.097576 369.329142 582.097576 370.545548 
Q 582.097576 372.575235 582.580389 373.343985 
Q 582.896795 373.84086 583.43117 373.84086 
Q 583.717107 373.84086 584.185857 373.606485 
z
" style="fill: #404040"/>
   </g>
   <g id="text_30">
    <path d="M 564.970361 319.517958 
L 564.970361 319.262489 
Q 565.804736 319.018739 566.12583 318.810145 
Q 566.449268 318.601552 566.683643 318.174989 
Q 566.918018 317.746083 566.918018 317.305458 
Q 566.918018 316.698427 566.475049 316.262489 
Q 566.03208 315.826552 565.373486 315.826552 
Q 564.346924 315.826552 563.629736 316.909364 
L 563.357861 316.815614 
Q 563.885205 315.592177 564.710205 314.978114 
Q 565.535205 314.361708 566.545361 314.361708 
Q 567.576611 314.361708 568.246924 314.992177 
Q 568.917236 315.620302 568.917236 316.464052 
Q 568.917236 317.012489 568.605518 317.523427 
Q 568.296143 318.03202 567.628174 318.418739 
Q 568.485986 318.835927 568.935986 319.447645 
Q 569.385986 320.059364 569.385986 320.982802 
Q 569.385986 322.534364 568.260986 323.624208 
Q 567.13833 324.711708 565.249268 324.711708 
Q 563.98833 324.711708 563.409424 324.292177 
Q 562.992236 323.999208 562.992236 323.539833 
Q 562.992236 323.202333 563.233643 322.965614 
Q 563.475049 322.726552 563.791455 322.726552 
Q 564.032861 322.726552 564.246143 322.827333 
Q 564.36333 322.885927 565.07583 323.46952 
Q 565.790674 324.05077 566.414111 324.05077 
Q 566.955518 324.05077 567.342236 323.624208 
Q 567.731299 323.195302 567.731299 322.534364 
Q 567.731299 321.531239 567.028174 320.685145 
Q 566.325049 319.839052 564.970361 319.517958 
z
M 572.908643 324.704677 
L 575.61333 316.508583 
L 573.553174 316.508583 
Q 572.346143 316.508583 571.736768 316.822645 
Q 571.312549 317.042958 571.033643 317.649989 
L 570.75708 317.649989 
L 571.474268 314.565614 
L 577.392236 314.565614 
L 574.059424 324.704677 
L 572.908643 324.704677 
z
M 579.62583 322.241395 
Q 580.139111 322.241395 580.493018 322.602333 
Q 580.849268 322.960927 580.849268 323.464833 
Q 580.849268 323.971083 580.490674 324.327333 
Q 580.13208 324.681239 579.62583 324.681239 
Q 579.11958 324.681239 578.76333 324.327333 
Q 578.409424 323.971083 578.409424 323.464833 
Q 578.409424 322.960927 578.76333 322.602333 
Q 579.11958 322.241395 579.62583 322.241395 
z
M 588.546143 314.361708 
L 588.546143 314.565614 
Q 587.221924 314.903114 586.418018 315.435145 
Q 585.616455 315.964833 585.150049 316.724208 
Q 584.685986 317.481239 584.430518 318.601552 
Q 584.753955 318.383583 584.964893 318.315614 
Q 585.440674 318.170302 585.92583 318.170302 
Q 587.039111 318.170302 587.78208 318.981239 
Q 588.525049 319.789833 588.525049 321.186708 
Q 588.525049 322.168739 588.121924 322.989052 
Q 587.718799 323.809364 586.978174 324.25702 
Q 586.239893 324.704677 585.398486 324.704677 
Q 584.48208 324.704677 583.703955 324.203114 
Q 582.928174 323.699208 582.492236 322.733583 
Q 582.058643 321.765614 582.058643 320.631239 
Q 582.058643 318.960145 582.860205 317.521083 
Q 583.661768 316.08202 585.135986 315.228895 
Q 586.612549 314.37577 588.546143 314.361708 
z
M 584.334424 319.19452 
Q 584.27583 320.20702 584.27583 320.67577 
Q 584.27583 321.685927 584.470361 322.630458 
Q 584.664893 323.574989 585.002393 323.95702 
Q 585.243799 324.226552 585.574268 324.226552 
Q 585.909424 324.226552 586.171924 323.835145 
Q 586.436768 323.443739 586.436768 322.241395 
Q 586.436768 320.221083 585.946924 319.452333 
Q 585.632861 318.953114 585.096143 318.953114 
Q 584.803174 318.953114 584.334424 319.19452 
z
" style="fill: #404040; stroke: #ffffff; stroke-width: 3.8"/>
    <path d="M 564.970361 319.517958 
L 564.970361 319.262489 
Q 565.804736 319.018739 566.12583 318.810145 
Q 566.449268 318.601552 566.683643 318.174989 
Q 566.918018 317.746083 566.918018 317.305458 
Q 566.918018 316.698427 566.475049 316.262489 
Q 566.03208 315.826552 565.373486 315.826552 
Q 564.346924 315.826552 563.629736 316.909364 
L 563.357861 316.815614 
Q 563.885205 315.592177 564.710205 314.978114 
Q 565.535205 314.361708 566.545361 314.361708 
Q 567.576611 314.361708 568.246924 314.992177 
Q 568.917236 315.620302 568.917236 316.464052 
Q 568.917236 317.012489 568.605518 317.523427 
Q 568.296143 318.03202 567.628174 318.418739 
Q 568.485986 318.835927 568.935986 319.447645 
Q 569.385986 320.059364 569.385986 320.982802 
Q 569.385986 322.534364 568.260986 323.624208 
Q 567.13833 324.711708 565.249268 324.711708 
Q 563.98833 324.711708 563.409424 324.292177 
Q 562.992236 323.999208 562.992236 323.539833 
Q 562.992236 323.202333 563.233643 322.965614 
Q 563.475049 322.726552 563.791455 322.726552 
Q 564.032861 322.726552 564.246143 322.827333 
Q 564.36333 322.885927 565.07583 323.46952 
Q 565.790674 324.05077 566.414111 324.05077 
Q 566.955518 324.05077 567.342236 323.624208 
Q 567.731299 323.195302 567.731299 322.534364 
Q 567.731299 321.531239 567.028174 320.685145 
Q 566.325049 319.839052 564.970361 319.517958 
z
M 572.908643 324.704677 
L 575.61333 316.508583 
L 573.553174 316.508583 
Q 572.346143 316.508583 571.736768 316.822645 
Q 571.312549 317.042958 571.033643 317.649989 
L 570.75708 317.649989 
L 571.474268 314.565614 
L 577.392236 314.565614 
L 574.059424 324.704677 
L 572.908643 324.704677 
z
M 579.62583 322.241395 
Q 580.139111 322.241395 580.493018 322.602333 
Q 580.849268 322.960927 580.849268 323.464833 
Q 580.849268 323.971083 580.490674 324.327333 
Q 580.13208 324.681239 579.62583 324.681239 
Q 579.11958 324.681239 578.76333 324.327333 
Q 578.409424 323.971083 578.409424 323.464833 
Q 578.409424 322.960927 578.76333 322.602333 
Q 579.11958 322.241395 579.62583 322.241395 
z
M 588.546143 314.361708 
L 588.546143 314.565614 
Q 587.221924 314.903114 586.418018 315.435145 
Q 585.616455 315.964833 585.150049 316.724208 
Q 584.685986 317.481239 584.430518 318.601552 
Q 584.753955 318.383583 584.964893 318.315614 
Q 585.440674 318.170302 585.92583 318.170302 
Q 587.039111 318.170302 587.78208 318.981239 
Q 588.525049 319.789833 588.525049 321.186708 
Q 588.525049 322.168739 588.121924 322.989052 
Q 587.718799 323.809364 586.978174 324.25702 
Q 586.239893 324.704677 585.398486 324.704677 
Q 584.48208 324.704677 583.703955 324.203114 
Q 582.928174 323.699208 582.492236 322.733583 
Q 582.058643 321.765614 582.058643 320.631239 
Q 582.058643 318.960145 582.860205 317.521083 
Q 583.661768 316.08202 585.135986 315.228895 
Q 586.612549 314.37577 588.546143 314.361708 
z
M 584.334424 319.19452 
Q 584.27583 320.20702 584.27583 320.67577 
Q 584.27583 321.685927 584.470361 322.630458 
Q 584.664893 323.574989 585.002393 323.95702 
Q 585.243799 324.226552 585.574268 324.226552 
Q 585.909424 324.226552 586.171924 323.835145 
Q 586.436768 323.443739 586.436768 322.241395 
Q 586.436768 320.221083 585.946924 319.452333 
Q 585.632861 318.953114 585.096143 318.953114 
Q 584.803174 318.953114 584.334424 319.19452 
z
" style="fill: #404040"/>
   </g>
   <g id="text_31">
    <path d="M 534.988443 285.043544 
L 534.988443 293.166982 
Q 534.988443 294.081044 535.068131 294.334169 
Q 535.150162 294.587294 535.405631 294.749013 
Q 535.663443 294.908388 536.228287 294.908388 
L 536.453287 294.908388 
L 536.453287 295.180263 
L 531.224381 295.180263 
L 531.224381 294.908388 
L 531.489225 294.908388 
Q 532.126725 294.908388 532.396256 294.763076 
Q 532.668131 294.615419 532.761881 294.359951 
Q 532.857975 294.104482 532.857975 293.166982 
L 532.857975 288.017763 
Q 532.857975 287.328701 532.79235 287.157607 
Q 532.726725 286.984169 532.546256 286.864638 
Q 532.368131 286.742763 532.133756 286.742763 
Q 531.758756 286.742763 531.224381 286.977138 
L 531.093131 286.712294 
L 534.747037 285.043544 
L 534.988443 285.043544 
z
M 539.479068 292.923232 
Q 539.99235 292.923232 540.346256 293.284169 
Q 540.702506 293.642763 540.702506 294.146669 
Q 540.702506 294.652919 540.343912 295.009169 
Q 539.985318 295.363076 539.479068 295.363076 
Q 538.972818 295.363076 538.616568 295.009169 
Q 538.262662 294.652919 538.262662 294.146669 
Q 538.262662 293.642763 538.616568 293.284169 
Q 538.972818 292.923232 539.479068 292.923232 
z
M 547.565006 295.180263 
L 541.719693 295.180263 
L 541.719693 295.018544 
Q 544.407975 291.819326 544.982193 290.713076 
Q 545.558756 289.606826 545.558756 288.552138 
Q 545.558756 287.783388 545.082975 287.274794 
Q 544.607193 286.763857 543.918131 286.763857 
Q 542.790787 286.763857 542.16735 287.893544 
L 541.895475 287.797451 
Q 542.291568 286.391201 543.097818 285.718544 
Q 543.904068 285.043544 544.958756 285.043544 
Q 545.7111 285.043544 546.334537 285.395107 
Q 546.957975 285.746669 547.309537 286.358388 
Q 547.6611 286.970107 547.6611 287.504482 
Q 547.6611 288.479482 547.11735 289.482607 
Q 546.379068 290.837294 543.887662 293.260732 
L 546.034537 293.260732 
Q 546.824381 293.260732 547.063443 293.195107 
Q 547.302506 293.129482 547.45485 292.972451 
Q 547.609537 292.815419 547.857975 292.309169 
L 548.122818 292.309169 
L 547.565006 295.180263 
z
" style="fill: #404040; stroke: #ffffff; stroke-width: 3.8"/>
    <path d="M 534.988443 285.043544 
L 534.988443 293.166982 
Q 534.988443 294.081044 535.068131 294.334169 
Q 535.150162 294.587294 535.405631 294.749013 
Q 535.663443 294.908388 536.228287 294.908388 
L 536.453287 294.908388 
L 536.453287 295.180263 
L 531.224381 295.180263 
L 531.224381 294.908388 
L 531.489225 294.908388 
Q 532.126725 294.908388 532.396256 294.763076 
Q 532.668131 294.615419 532.761881 294.359951 
Q 532.857975 294.104482 532.857975 293.166982 
L 532.857975 288.017763 
Q 532.857975 287.328701 532.79235 287.157607 
Q 532.726725 286.984169 532.546256 286.864638 
Q 532.368131 286.742763 532.133756 286.742763 
Q 531.758756 286.742763 531.224381 286.977138 
L 531.093131 286.712294 
L 534.747037 285.043544 
L 534.988443 285.043544 
z
M 539.479068 292.923232 
Q 539.99235 292.923232 540.346256 293.284169 
Q 540.702506 293.642763 540.702506 294.146669 
Q 540.702506 294.652919 540.343912 295.009169 
Q 539.985318 295.363076 539.479068 295.363076 
Q 538.972818 295.363076 538.616568 295.009169 
Q 538.262662 294.652919 538.262662 294.146669 
Q 538.262662 293.642763 538.616568 293.284169 
Q 538.972818 292.923232 539.479068 292.923232 
z
M 547.565006 295.180263 
L 541.719693 295.180263 
L 541.719693 295.018544 
Q 544.407975 291.819326 544.982193 290.713076 
Q 545.558756 289.606826 545.558756 288.552138 
Q 545.558756 287.783388 545.082975 287.274794 
Q 544.607193 286.763857 543.918131 286.763857 
Q 542.790787 286.763857 542.16735 287.893544 
L 541.895475 287.797451 
Q 542.291568 286.391201 543.097818 285.718544 
Q 543.904068 285.043544 544.958756 285.043544 
Q 545.7111 285.043544 546.334537 285.395107 
Q 546.957975 285.746669 547.309537 286.358388 
Q 547.6611 286.970107 547.6611 287.504482 
Q 547.6611 288.479482 547.11735 289.482607 
Q 546.379068 290.837294 543.887662 293.260732 
L 546.034537 293.260732 
Q 546.824381 293.260732 547.063443 293.195107 
Q 547.302506 293.129482 547.45485 292.972451 
Q 547.609537 292.815419 547.857975 292.309169 
L 548.122818 292.309169 
L 547.565006 295.180263 
z
" style="fill: #404040"/>
   </g>
   <g id="text_32">
    <path d="M 319.944086 354.621563 
L 324.662054 348.227813 
L 325.555023 348.227813 
L 325.555023 354.621563 
L 326.464398 354.621563 
L 326.464398 356.13797 
L 325.555023 356.13797 
L 325.555023 358.364532 
L 323.541742 358.364532 
L 323.541742 356.13797 
L 319.944086 356.13797 
L 319.944086 354.621563 
z
M 320.656586 354.621563 
L 323.541742 354.621563 
L 323.541742 350.702813 
L 320.656586 354.621563 
z
M 327.533148 358.570782 
L 327.533148 358.364532 
Q 328.749554 358.085626 329.595648 357.54422 
Q 330.441742 357.002813 330.933929 356.203595 
Q 331.428461 355.404376 331.627679 354.366095 
Q 331.172992 354.60047 330.854242 354.691876 
Q 330.535492 354.783282 330.183929 354.783282 
Q 329.056586 354.783282 328.304242 353.970001 
Q 327.554242 353.15672 327.554242 351.743438 
Q 327.554242 350.761407 327.959711 349.945782 
Q 328.367523 349.127813 329.122211 348.677813 
Q 329.876898 348.227813 330.690179 348.227813 
Q 331.562054 348.227813 332.337836 348.727032 
Q 333.113617 349.223907 333.575336 350.168438 
Q 334.037054 351.11297 334.037054 352.322345 
Q 334.037054 353.890313 333.284711 355.327032 
Q 332.534711 356.761407 331.048773 357.628595 
Q 329.562836 358.495782 327.533148 358.570782 
z
M 331.737836 353.749688 
Q 331.810492 352.929376 331.810492 352.308282 
Q 331.810492 350.974688 331.503461 349.823907 
Q 331.327679 349.186407 330.983148 348.886407 
Q 330.800336 348.724688 330.507367 348.724688 
Q 330.139398 348.724688 329.935492 349.041095 
Q 329.649554 349.472345 329.649554 350.688751 
Q 329.649554 352.718438 330.132367 353.487188 
Q 330.448773 353.984063 330.983148 353.984063 
Q 331.269086 353.984063 331.737836 353.749688 
z
M 336.446429 356.107501 
Q 336.959711 356.107501 337.313617 356.468438 
Q 337.669867 356.827032 337.669867 357.330938 
Q 337.669867 357.837188 337.311273 358.193438 
Q 336.952679 358.547345 336.446429 358.547345 
Q 335.940179 358.547345 335.583929 358.193438 
Q 335.230023 357.837188 335.230023 357.330938 
Q 335.230023 356.827032 335.583929 356.468438 
Q 335.940179 356.107501 336.446429 356.107501 
z
M 340.979242 358.570782 
L 343.683929 350.374688 
L 341.623773 350.374688 
Q 340.416742 350.374688 339.807367 350.688751 
Q 339.383148 350.909063 339.104242 351.516095 
L 338.827679 351.516095 
L 339.544867 348.43172 
L 345.462836 348.43172 
L 342.130023 358.570782 
L 340.979242 358.570782 
z
" style="fill: #404040; stroke: #ffffff; stroke-width: 3.8"/>
    <path d="M 319.944086 354.621563 
L 324.662054 348.227813 
L 325.555023 348.227813 
L 325.555023 354.621563 
L 326.464398 354.621563 
L 326.464398 356.13797 
L 325.555023 356.13797 
L 325.555023 358.364532 
L 323.541742 358.364532 
L 323.541742 356.13797 
L 319.944086 356.13797 
L 319.944086 354.621563 
z
M 320.656586 354.621563 
L 323.541742 354.621563 
L 323.541742 350.702813 
L 320.656586 354.621563 
z
M 327.533148 358.570782 
L 327.533148 358.364532 
Q 328.749554 358.085626 329.595648 357.54422 
Q 330.441742 357.002813 330.933929 356.203595 
Q 331.428461 355.404376 331.627679 354.366095 
Q 331.172992 354.60047 330.854242 354.691876 
Q 330.535492 354.783282 330.183929 354.783282 
Q 329.056586 354.783282 328.304242 353.970001 
Q 327.554242 353.15672 327.554242 351.743438 
Q 327.554242 350.761407 327.959711 349.945782 
Q 328.367523 349.127813 329.122211 348.677813 
Q 329.876898 348.227813 330.690179 348.227813 
Q 331.562054 348.227813 332.337836 348.727032 
Q 333.113617 349.223907 333.575336 350.168438 
Q 334.037054 351.11297 334.037054 352.322345 
Q 334.037054 353.890313 333.284711 355.327032 
Q 332.534711 356.761407 331.048773 357.628595 
Q 329.562836 358.495782 327.533148 358.570782 
z
M 331.737836 353.749688 
Q 331.810492 352.929376 331.810492 352.308282 
Q 331.810492 350.974688 331.503461 349.823907 
Q 331.327679 349.186407 330.983148 348.886407 
Q 330.800336 348.724688 330.507367 348.724688 
Q 330.139398 348.724688 329.935492 349.041095 
Q 329.649554 349.472345 329.649554 350.688751 
Q 329.649554 352.718438 330.132367 353.487188 
Q 330.448773 353.984063 330.983148 353.984063 
Q 331.269086 353.984063 331.737836 353.749688 
z
M 336.446429 356.107501 
Q 336.959711 356.107501 337.313617 356.468438 
Q 337.669867 356.827032 337.669867 357.330938 
Q 337.669867 357.837188 337.311273 358.193438 
Q 336.952679 358.547345 336.446429 358.547345 
Q 335.940179 358.547345 335.583929 358.193438 
Q 335.230023 357.837188 335.230023 357.330938 
Q 335.230023 356.827032 335.583929 356.468438 
Q 335.940179 356.107501 336.446429 356.107501 
z
M 340.979242 358.570782 
L 343.683929 350.374688 
L 341.623773 350.374688 
Q 340.416742 350.374688 339.807367 350.688751 
Q 339.383148 350.909063 339.104242 351.516095 
L 338.827679 351.516095 
L 339.544867 348.43172 
L 345.462836 348.43172 
L 342.130023 358.570782 
L 340.979242 358.570782 
z
" style="fill: #404040"/>
   </g>
  </g>
 </g>
 <defs>
  <clipPath id="pfc470bf02d">
   <rect x="7.2" y="51.034687" width="730.764" height="432.785085"/>
  </clipPath>
 </defs>
</svg>
