<?xml version="1.0" encoding="utf-8" standalone="no"?>
<!DOCTYPE svg PUBLIC "-//W3C//DTD SVG 1.1//EN"
  "http://www.w3.org/Graphics/SVG/1.1/DTD/svg11.dtd">
<svg xmlns:xlink="http://www.w3.org/1999/xlink" width="745.164pt" height="496.448643pt" viewBox="0 0 745.164 496.448643" xmlns="http://www.w3.org/2000/svg" version="1.1">
 <metadata>
  <rdf:RDF xmlns:dc="http://purl.org/dc/elements/1.1/" xmlns:cc="http://creativecommons.org/ns#" xmlns:rdf="http://www.w3.org/1999/02/22-rdf-syntax-ns#">
   <cc:Work>
    <dc:type rdf:resource="http://purl.org/dc/dcmitype/StillImage"/>
    <dc:date>2026-07-13T16:58:12.222588</dc:date>
    <dc:format>image/svg+xml</dc:format>
    <dc:creator>
     <cc:Agent>
      <dc:title>Matplotlib v3.10.8, https://matplotlib.org/</dc:title>
     </cc:Agent>
    </dc:creator>
   </cc:Work>
  </rdf:RDF>
 </metadata>
 <defs>
  <style type="text/css">*{stroke-linejoin: round; stroke-linecap: butt}</style>
 </defs>
 <g id="figure_1">
  <g id="patch_1">
   <path d="M 0 496.448643 
L 745.164 496.448643 
L 745.164 0 
L 0 0 
L 0 496.448643 
z
" style="fill: none"/>
  </g>
  <g id="axes_1">
   <g id="patch_2">
    <path d="M 120.350555 443.894559 
Q 120.350555 461.534062 120.350555 476.706595 
" clip-path="url(#pe06b2fde4e)" style="fill: none; stroke: #111111; stroke-width: 2.206525; stroke-linejoin: miter; stroke-linecap: round"/>
    <path d="M 124.000643 469.406419 
L 120.350555 476.706595 
L 116.700467 469.406419 
z
" clip-path="url(#pe06b2fde4e)" style="fill: #111111; stroke: #111111; stroke-width: 2.206525; stroke-linejoin: miter; stroke-linecap: round"/>
   </g>
   <g id="patch_3">
    <path d="M 120.350555 356.664194 
Q 120.350555 381.124921 120.350555 401.496042 
" clip-path="url(#pe06b2fde4e)" style="fill: none; stroke: #111111; stroke-width: 3.657854; stroke-linejoin: miter; stroke-linecap: round"/>
    <path d="M 124.465068 393.267016 
L 120.350555 401.496042 
L 116.236042 393.267016 
z
" clip-path="url(#pe06b2fde4e)" style="fill: #111111; stroke: #111111; stroke-width: 3.657854; stroke-linejoin: miter; stroke-linecap: round"/>
   </g>
   <g id="patch_4">
    <path d="M 120.350555 251.446628 
Q 120.350555 278.079731 120.350555 298.559502 
" clip-path="url(#pe06b2fde4e)" style="fill: none; stroke: #111111; stroke-width: 5.503708; stroke-linejoin: miter; stroke-linecap: round"/>
    <path d="M 125.055741 289.149129 
L 120.350555 298.559502 
L 115.645368 289.149129 
z
" clip-path="url(#pe06b2fde4e)" style="fill: #111111; stroke: #111111; stroke-width: 5.503708; stroke-linejoin: miter; stroke-linecap: round"/>
   </g>
   <g id="patch_5">
    <path d="M 370.224697 328.803534 
Q 370.224697 348.13505 370.224697 364.588045 
" clip-path="url(#pe06b2fde4e)" style="fill: none; stroke: #111111; stroke-width: 2.574628; stroke-linejoin: miter; stroke-linecap: round"/>
    <path d="M 373.992578 357.052283 
L 370.224697 364.588045 
L 366.456816 357.052283 
z
" clip-path="url(#pe06b2fde4e)" style="fill: #111111; stroke: #111111; stroke-width: 2.574628; stroke-linejoin: miter; stroke-linecap: round"/>
   </g>
   <g id="patch_6">
    <path d="M 370.224697 237.409024 
Q 370.224697 262.25981 370.224697 282.220577 
" clip-path="url(#pe06b2fde4e)" style="fill: none; stroke: #111111; stroke-width: 4.373766; stroke-linejoin: miter; stroke-linecap: round"/>
    <path d="M 374.568302 273.533367 
L 370.224697 282.220577 
L 365.881092 273.533367 
z
" clip-path="url(#pe06b2fde4e)" style="fill: #111111; stroke: #111111; stroke-width: 4.373766; stroke-linejoin: miter; stroke-linecap: round"/>
   </g>
   <g id="patch_7">
    <path d="M 370.224697 124.856319 
Q 370.224697 154.766933 370.224697 178.192949 
" clip-path="url(#pe06b2fde4e)" style="fill: none; stroke: #111111; stroke-width: 5.8; stroke-linejoin: miter; stroke-linecap: round"/>
    <path d="M 375.024697 168.592949 
L 370.224697 178.192949 
L 365.424697 168.592949 
z
" clip-path="url(#pe06b2fde4e)" style="fill: #111111; stroke: #111111; stroke-width: 5.8; stroke-linejoin: miter; stroke-linecap: round"/>
   </g>
   <g id="patch_8">
    <path d="M 586.153672 293.931968 
Q 586.153672 318.628814 586.153672 340.212947 
" clip-path="url(#pe06b2fde4e)" style="fill: none; stroke: #111111; stroke-width: 2.784094; stroke-linejoin: miter; stroke-linecap: round"/>
    <path d="M 589.988582 332.543126 
L 586.153672 340.212947 
L 582.318762 332.543126 
z
" clip-path="url(#pe06b2fde4e)" style="fill: #111111; stroke: #111111; stroke-width: 2.784094; stroke-linejoin: miter; stroke-linecap: round"/>
   </g>
   <g id="line2d_1">
    <path d="M 165.610777 479.173565 
L 550.322663 479.173565 
" clip-path="url(#pe06b2fde4e)" style="fill: none; stroke-dasharray: 5.6,4.2; stroke-dashoffset: 0; stroke: #404040; stroke-width: 1.4"/>
   </g>
   <g id="line2d_2">
    <path d="M 165.610777 405.585647 
L 550.322663 405.585647 
" clip-path="url(#pe06b2fde4e)" style="fill: none; stroke-dasharray: 5.6,4.2; stroke-dashoffset: 0; stroke: #404040; stroke-width: 1.4"/>
   </g>
   <g id="line2d_3">
    <path d="M 415.484919 367.466566 
L 560.694797 367.466566 
" clip-path="url(#pe06b2fde4e)" style="fill: none; stroke-dasharray: 5.6,4.2; stroke-dashoffset: 0; stroke: #404040; stroke-width: 1.4"/>
   </g>
   <g id="patch_9">
    <path d="M 665.359061 343.325659 
Q 571.321277 409.521871 478.103992 475.140509 
" clip-path="url(#pe06b2fde4e)" style="fill: none; stroke: #404040; stroke-width: 0.897467; stroke-linejoin: miter; stroke-linecap: round"/>
    <path d="M 484.366781 474.195822 
L 478.103992 475.140509 
L 481.105916 469.563465 
z
" clip-path="url(#pe06b2fde4e)" style="fill: #404040; stroke: #404040; stroke-width: 0.897467; stroke-linejoin: miter; stroke-linecap: round"/>
   </g>
   <g id="patch_10">
    <path d="M 620.098839 343.325659 
Q 578.328015 372.729481 539.167989 400.29548 
" clip-path="url(#pe06b2fde4e)" style="fill: none; stroke: #404040; stroke-width: 2.855711; stroke-linejoin: miter; stroke-linecap: round"/>
    <path d="M 546.874042 399.13309 
L 539.167989 400.29548 
L 542.861709 393.433204 
z
" clip-path="url(#pe06b2fde4e)" style="fill: #404040; stroke: #404040; stroke-width: 2.855711; stroke-linejoin: miter; stroke-linecap: round"/>
   </g>
   <g id="patch_11">
    <path d="M 574.838617 343.325659 
Q 542.317069 354.427323 512.065916 364.753957 
" clip-path="url(#pe06b2fde4e)" style="fill: none; stroke: #404040; stroke-width: 2.145761; stroke-linejoin: miter; stroke-linecap: round"/>
    <path d="M 519.264189 365.729381 
L 512.065916 364.753957 
L 517.165219 359.580593 
z
" clip-path="url(#pe06b2fde4e)" style="fill: #404040; stroke: #404040; stroke-width: 2.145761; stroke-linejoin: miter; stroke-linecap: round"/>
   </g>
   <g id="patch_12">
    <path d="M 370.224697 367.466566 
Q 335.370639 385.167951 303.500129 401.354078 
" clip-path="url(#pe06b2fde4e)" style="fill: none; stroke: #404040; stroke-width: 2.993; stroke-linejoin: miter; stroke-linecap: round"/>
    <path d="M 311.395529 401.304515 
L 303.500129 401.354078 
L 308.197718 395.00802 
z
" clip-path="url(#pe06b2fde4e)" style="fill: #404040; stroke: #404040; stroke-width: 2.993; stroke-linejoin: miter; stroke-linecap: round"/>
   </g>
   <g id="line2d_4">
    <path d="M 120.350555 405.585647 
L 120.350555 440.864653 
" clip-path="url(#pe06b2fde4e)" style="fill: none; stroke: #111111; stroke-width: 2.206525"/>
   </g>
   <g id="line2d_5">
    <path d="M 120.350555 304.712834 
L 120.350555 353.634288 
" clip-path="url(#pe06b2fde4e)" style="fill: none; stroke: #111111; stroke-width: 3.657854"/>
   </g>
   <g id="line2d_6">
    <path d="M 120.350555 195.150515 
L 120.350555 248.416722 
" clip-path="url(#pe06b2fde4e)" style="fill: none; stroke: #111111; stroke-width: 5.503708"/>
   </g>
   <g id="line2d_7">
    <path d="M 370.224697 287.110596 
L 370.224697 325.773628 
" clip-path="url(#pe06b2fde4e)" style="fill: none; stroke: #111111; stroke-width: 2.574628"/>
   </g>
   <g id="line2d_8">
    <path d="M 370.224697 184.677546 
L 370.224697 234.379118 
" clip-path="url(#pe06b2fde4e)" style="fill: none; stroke: #111111; stroke-width: 4.373766"/>
   </g>
   <g id="line2d_9">
    <path d="M 370.224697 62.005186 
L 370.224697 121.826413 
" clip-path="url(#pe06b2fde4e)" style="fill: none; stroke: #111111; stroke-width: 5.8"/>
   </g>
   <g id="line2d_10">
    <path d="M 586.153672 241.508372 
L 586.153672 290.902062 
" clip-path="url(#pe06b2fde4e)" style="fill: none; stroke: #111111; stroke-width: 2.784094"/>
   </g>
   <g id="line2d_11">
    <path d="M 75.090333 479.173565 
L 165.610777 479.173565 
" clip-path="url(#pe06b2fde4e)" style="fill: none; stroke: #111111; stroke-width: 3.6; stroke-linecap: round"/>
   </g>
   <g id="line2d_12">
    <path d="M 75.090333 405.585647 
L 165.610777 405.585647 
" clip-path="url(#pe06b2fde4e)" style="fill: none; stroke: #111111; stroke-width: 3.6; stroke-linecap: round"/>
   </g>
   <g id="line2d_13">
    <path d="M 75.090333 304.712834 
L 165.610777 304.712834 
" clip-path="url(#pe06b2fde4e)" style="fill: none; stroke: #111111; stroke-width: 3.6; stroke-linecap: round"/>
   </g>
   <g id="line2d_14">
    <path d="M 75.090333 195.150515 
L 165.610777 195.150515 
" clip-path="url(#pe06b2fde4e)" style="fill: none; stroke: #111111; stroke-width: 3.6; stroke-linecap: round"/>
   </g>
   <g id="line2d_15">
    <path d="M 324.964475 367.466566 
L 415.484919 367.466566 
" clip-path="url(#pe06b2fde4e)" style="fill: none; stroke: #111111; stroke-width: 3.6; stroke-linecap: round"/>
   </g>
   <g id="line2d_16">
    <path d="M 324.964475 287.110596 
L 415.484919 287.110596 
" clip-path="url(#pe06b2fde4e)" style="fill: none; stroke: #111111; stroke-width: 3.6; stroke-linecap: round"/>
   </g>
   <g id="line2d_17">
    <path d="M 324.964475 184.677546 
L 415.484919 184.677546 
" clip-path="url(#pe06b2fde4e)" style="fill: none; stroke: #111111; stroke-width: 3.6; stroke-linecap: round"/>
   </g>
   <g id="line2d_18">
    <path d="M 324.964475 62.005186 
L 415.484919 62.005186 
" clip-path="url(#pe06b2fde4e)" style="fill: none; stroke: #111111; stroke-width: 3.6; stroke-linecap: round"/>
   </g>
   <g id="line2d_19">
    <path d="M 574.838617 343.325659 
L 665.359061 343.325659 
" clip-path="url(#pe06b2fde4e)" style="fill: none; stroke: #111111; stroke-width: 3.6; stroke-linecap: round"/>
   </g>
   <g id="line2d_20">
    <path d="M 574.838617 241.508372 
L 665.359061 241.508372 
" clip-path="url(#pe06b2fde4e)" style="fill: none; stroke: #111111; stroke-width: 3.6; stroke-linecap: round"/>
   </g>
   <g id="text_1">
    <!-- $^{46}\mathrm{Ar}$ -->
    <g transform="translate(338.072 33.034687) scale(0.34 -0.34)">
     <defs>
      <path id="DejaVuSans-34" d="M 2419 4116 
L 825 1625 
L 2419 1625 
L 2419 4116 
z
M 2253 4666 
L 3047 4666 
L 3047 1625 
L 3713 1625 
L 3713 1100 
L 3047 1100 
L 3047 0 
L 2419 0 
L 2419 1100 
L 313 1100 
L 313 1709 
L 2253 4666 
z
" transform="scale(0.015625)"/>
      <path id="DejaVuSans-36" d="M 2113 2584 
Q 1688 2584 1439 2293 
Q 1191 2003 1191 1497 
Q 1191 994 1439 701 
Q 1688 409 2113 409 
Q 2538 409 2786 701 
Q 3034 994 3034 1497 
Q 3034 2003 2786 2293 
Q 2538 2584 2113 2584 
z
M 3366 4563 
L 3366 3988 
Q 3128 4100 2886 4159 
Q 2644 4219 2406 4219 
Q 1781 4219 1451 3797 
Q 1122 3375 1075 2522 
Q 1259 2794 1537 2939 
Q 1816 3084 2150 3084 
Q 2853 3084 3261 2657 
Q 3669 2231 3669 1497 
Q 3669 778 3244 343 
Q 2819 -91 2113 -91 
Q 1303 -91 875 529 
Q 447 1150 447 2328 
Q 447 3434 972 4092 
Q 1497 4750 2381 4750 
Q 2619 4750 2861 4703 
Q 3103 4656 3366 4563 
z
" transform="scale(0.015625)"/>
      <path id="DejaVuSans-41" d="M 2188 4044 
L 1331 1722 
L 3047 1722 
L 2188 4044 
z
M 1831 4666 
L 2547 4666 
L 4325 0 
L 3669 0 
L 3244 1197 
L 1141 1197 
L 716 0 
L 50 0 
L 1831 4666 
z
" transform="scale(0.015625)"/>
      <path id="DejaVuSans-72" d="M 2631 2963 
Q 2534 3019 2420 3045 
Q 2306 3072 2169 3072 
Q 1681 3072 1420 2755 
Q 1159 2438 1159 1844 
L 1159 0 
L 581 0 
L 581 3500 
L 1159 3500 
L 1159 2956 
Q 1341 3275 1631 3429 
Q 1922 3584 2338 3584 
Q 2397 3584 2469 3576 
Q 2541 3569 2628 3553 
L 2631 2963 
z
" transform="scale(0.015625)"/>
     </defs>
     <use xlink:href="#DejaVuSans-34" transform="translate(0.957031 39.046875) scale(0.7)"/>
     <use xlink:href="#DejaVuSans-36" transform="translate(45.493164 39.046875) scale(0.7)"/>
     <use xlink:href="#DejaVuSans-41" transform="translate(92.763672 0.765625)"/>
     <use xlink:href="#DejaVuSans-72" transform="translate(161.171875 0.765625)"/>
    </g>
   </g>
   <g id="text_2">
    <!-- 0 -->
    <g transform="translate(46.98525 483.588565) scale(0.16 -0.16)">
     <defs>
      <path id="DejaVuSans-BoldOblique-30" d="M 1913 728 
Q 2153 728 2339 872 
Q 2525 1016 2650 1294 
Q 2738 1491 2809 1742 
Q 2881 1994 2944 2338 
Q 2997 2616 3025 2850 
Q 3053 3084 3053 3250 
Q 3053 3600 2928 3764 
Q 2803 3928 2541 3928 
Q 2297 3928 2112 3789 
Q 1928 3650 1806 3366 
Q 1713 3163 1636 2903 
Q 1559 2644 1503 2338 
Q 1450 2056 1422 1815 
Q 1394 1575 1394 1409 
Q 1394 1063 1522 895 
Q 1650 728 1913 728 
z
M 4225 3072 
Q 4225 2450 4053 1862 
Q 3881 1275 3572 831 
Q 3256 375 2809 142 
Q 2363 -91 1813 -91 
Q 1047 -91 639 343 
Q 231 778 231 1594 
Q 231 2206 401 2795 
Q 572 3384 878 3822 
Q 1200 4281 1644 4515 
Q 2088 4750 2644 4750 
Q 3403 4750 3814 4314 
Q 4225 3878 4225 3072 
z
" transform="scale(0.015625)"/>
     </defs>
     <use xlink:href="#DejaVuSans-BoldOblique-30"/>
    </g>
   </g>
   <g id="text_3">
    <!-- 0⁺ -->
    <g transform="translate(182.58336 484.328799) scale(0.23 -0.23)">
     <defs>
      <path id="TimesNewRomanPS-BoldMT-30" d="M 2966 2119 
Q 2966 1484 2788 934 
Q 2681 597 2501 381 
Q 2322 166 2094 39 
Q 1866 -88 1597 -88 
Q 1291 -88 1044 68 
Q 797 225 606 516 
Q 469 728 366 1081 
Q 231 1559 231 2069 
Q 231 2759 425 3338 
Q 584 3816 909 4070 
Q 1234 4325 1597 4325 
Q 1966 4325 2286 4073 
Q 2606 3822 2756 3397 
Q 2966 2813 2966 2119 
z
M 2003 2125 
Q 2003 3238 1991 3422 
Q 1959 3856 1841 4009 
Q 1763 4109 1588 4109 
Q 1453 4109 1375 4034 
Q 1259 3925 1218 3648 
Q 1178 3372 1178 1719 
Q 1178 819 1241 513 
Q 1288 291 1375 216 
Q 1463 141 1606 141 
Q 1763 141 1841 241 
Q 1972 416 1991 781 
L 2003 2125 
z
" transform="scale(0.015625)"/>
      <path id="DejaVuSerif-Bold-207a" d="M 1916 4344 
L 1916 3441 
L 2950 3441 
L 2950 3044 
L 1916 3044 
L 1916 2141 
L 1463 2141 
L 1463 3044 
L 428 3044 
L 428 3441 
L 1463 3441 
L 1463 4344 
L 1916 4344 
z
" transform="scale(0.015625)"/>
     </defs>
     <use xlink:href="#TimesNewRomanPS-BoldMT-30"/>
     <use xlink:href="#DejaVuSerif-Bold-207a" transform="translate(50 0)"/>
    </g>
   </g>
   <g id="text_4">
    <!-- 2234 -->
    <g transform="translate(13.58775 410.000647) scale(0.16 -0.16)">
     <defs>
      <path id="DejaVuSans-BoldOblique-32" d="M 1581 884 
L 3609 884 
L 3438 0 
L 50 0 
L 225 891 
L 2209 2388 
Q 2534 2638 2704 2894 
Q 2875 3150 2875 3391 
Q 2875 3647 2700 3787 
Q 2525 3928 2209 3928 
Q 1913 3928 1547 3811 
Q 1181 3694 722 3450 
L 922 4441 
Q 1347 4597 1756 4673 
Q 2166 4750 2566 4750 
Q 3278 4750 3687 4442 
Q 4097 4134 4097 3603 
Q 4097 3147 3847 2772 
Q 3597 2397 2747 1759 
L 1581 884 
z
" transform="scale(0.015625)"/>
      <path id="DejaVuSans-BoldOblique-33" d="M 3022 2516 
Q 3375 2434 3572 2187 
Q 3769 1941 3769 1581 
Q 3769 806 3155 357 
Q 2541 -91 1466 -91 
Q 1059 -91 692 -33 
Q 325 25 0 141 
L 178 1069 
Q 456 906 784 817 
Q 1113 728 1441 728 
Q 1969 728 2276 926 
Q 2584 1125 2584 1459 
Q 2584 1738 2350 1877 
Q 2116 2016 1644 2016 
L 1166 2016 
L 1319 2791 
L 1825 2791 
Q 2316 2791 2602 2969 
Q 2888 3147 2888 3450 
Q 2888 3688 2689 3813 
Q 2491 3938 2113 3938 
Q 1847 3938 1534 3869 
Q 1222 3800 884 3669 
L 1056 4550 
Q 1425 4650 1783 4700 
Q 2141 4750 2491 4750 
Q 3281 4750 3679 4487 
Q 4078 4225 4078 3706 
Q 4078 3241 3801 2930 
Q 3525 2619 3022 2516 
z
" transform="scale(0.015625)"/>
      <path id="DejaVuSans-BoldOblique-34" d="M 2638 3641 
L 978 1722 
L 2259 1722 
L 2638 3641 
z
M 2606 4666 
L 3975 4666 
L 3397 1722 
L 4063 1722 
L 3897 850 
L 3231 850 
L 3066 0 
L 1925 0 
L 2094 850 
L -6 850 
L 197 1881 
L 2606 4666 
z
" transform="scale(0.015625)"/>
     </defs>
     <use xlink:href="#DejaVuSans-BoldOblique-32"/>
     <use xlink:href="#DejaVuSans-BoldOblique-32" transform="translate(69.580078 0)"/>
     <use xlink:href="#DejaVuSans-BoldOblique-33" transform="translate(139.160156 0)"/>
     <use xlink:href="#DejaVuSans-BoldOblique-34" transform="translate(208.740234 0)"/>
    </g>
   </g>
   <g id="text_5">
    <!-- 2⁺ -->
    <g transform="translate(182.58336 410.740882) scale(0.23 -0.23)">
     <defs>
      <path id="TimesNewRomanPS-BoldMT-32" d="M 2650 0 
L 156 0 
L 156 69 
Q 1303 1434 1548 1906 
Q 1794 2378 1794 2828 
Q 1794 3156 1591 3373 
Q 1388 3591 1094 3591 
Q 613 3591 347 3109 
L 231 3150 
Q 400 3750 744 4037 
Q 1088 4325 1538 4325 
Q 1859 4325 2125 4175 
Q 2391 4025 2541 3764 
Q 2691 3503 2691 3275 
Q 2691 2859 2459 2431 
Q 2144 1853 1081 819 
L 1997 819 
Q 2334 819 2436 847 
Q 2538 875 2603 942 
Q 2669 1009 2775 1225 
L 2888 1225 
L 2650 0 
z
" transform="scale(0.015625)"/>
     </defs>
     <use xlink:href="#TimesNewRomanPS-BoldMT-32"/>
     <use xlink:href="#DejaVuSerif-Bold-207a" transform="translate(50 0)"/>
    </g>
   </g>
   <g id="text_6">
    <!-- 5297 -->
    <g transform="translate(13.58775 309.127834) scale(0.16 -0.16)">
     <defs>
      <path id="DejaVuSans-BoldOblique-35" d="M 1131 4666 
L 4122 4666 
L 3950 3781 
L 1919 3781 
L 1778 3059 
Q 1916 3097 2064 3117 
Q 2213 3138 2363 3138 
Q 3078 3138 3481 2811 
Q 3884 2484 3884 1906 
Q 3884 988 3262 448 
Q 2641 -91 1575 -91 
Q 1184 -91 815 -14 
Q 447 63 84 219 
L 269 1166 
Q 616 941 942 834 
Q 1269 728 1606 728 
Q 2100 728 2397 986 
Q 2694 1244 2694 1663 
Q 2694 1963 2469 2139 
Q 2244 2316 1856 2316 
Q 1594 2316 1289 2248 
Q 984 2181 622 2041 
L 1131 4666 
z
" transform="scale(0.015625)"/>
      <path id="DejaVuSans-BoldOblique-39" d="M 263 103 
L 428 966 
Q 700 825 953 758 
Q 1206 691 1459 691 
Q 2041 691 2400 1003 
Q 2759 1316 2834 1881 
Q 2594 1722 2337 1645 
Q 2081 1569 1791 1569 
Q 1219 1569 853 1909 
Q 488 2250 488 2778 
Q 488 3641 1052 4192 
Q 1616 4744 2503 4744 
Q 3300 4744 3736 4292 
Q 4172 3841 4172 3016 
Q 4172 2381 3978 1801 
Q 3784 1222 3431 800 
Q 3056 353 2548 128 
Q 2041 -97 1403 -97 
Q 1106 -97 825 -47 
Q 544 3 263 103 
z
M 2169 2344 
Q 2525 2344 2753 2637 
Q 2981 2931 2981 3391 
Q 2981 3675 2845 3828 
Q 2709 3981 2456 3981 
Q 2103 3981 1870 3690 
Q 1638 3400 1638 2963 
Q 1638 2663 1775 2503 
Q 1913 2344 2169 2344 
z
" transform="scale(0.015625)"/>
      <path id="DejaVuSans-BoldOblique-37" d="M 922 4666 
L 4441 4666 
L 4300 3981 
L 1703 0 
L 500 0 
L 2969 3781 
L 756 3781 
L 922 4666 
z
" transform="scale(0.015625)"/>
     </defs>
     <use xlink:href="#DejaVuSans-BoldOblique-35"/>
     <use xlink:href="#DejaVuSans-BoldOblique-32" transform="translate(69.580078 0)"/>
     <use xlink:href="#DejaVuSans-BoldOblique-39" transform="translate(139.160156 0)"/>
     <use xlink:href="#DejaVuSans-BoldOblique-37" transform="translate(208.740234 0)"/>
    </g>
   </g>
   <g id="text_7">
    <!-- 4⁺ -->
    <g transform="translate(182.58336 309.868069) scale(0.23 -0.23)">
     <defs>
      <path id="TimesNewRomanPS-BoldMT-34" d="M 159 1597 
L 2172 4325 
L 2553 4325 
L 2553 1597 
L 2941 1597 
L 2941 950 
L 2553 950 
L 2553 0 
L 1694 0 
L 1694 950 
L 159 950 
L 159 1597 
z
M 463 1597 
L 1694 1597 
L 1694 3269 
L 463 1597 
z
" transform="scale(0.015625)"/>
     </defs>
     <use xlink:href="#TimesNewRomanPS-BoldMT-34"/>
     <use xlink:href="#DejaVuSerif-Bold-207a" transform="translate(50 0)"/>
    </g>
   </g>
   <g id="text_8">
    <!-- 8624 -->
    <g transform="translate(13.58775 199.565515) scale(0.16 -0.16)">
     <defs>
      <path id="DejaVuSans-BoldOblique-38" d="M 2150 2088 
Q 1784 2088 1539 1839 
Q 1294 1591 1294 1228 
Q 1294 969 1453 817 
Q 1613 666 1888 666 
Q 2259 666 2503 911 
Q 2747 1156 2747 1522 
Q 2747 1781 2586 1934 
Q 2425 2088 2150 2088 
z
M 1381 2484 
Q 1044 2625 876 2850 
Q 709 3075 709 3391 
Q 709 4025 1229 4387 
Q 1750 4750 2669 4750 
Q 3406 4750 3812 4475 
Q 4219 4200 4219 3700 
Q 4219 3256 3936 2940 
Q 3653 2625 3128 2484 
Q 3509 2338 3690 2091 
Q 3872 1844 3872 1466 
Q 3872 747 3311 328 
Q 2750 -91 1772 -91 
Q 1000 -91 570 217 
Q 141 525 141 1075 
Q 141 1572 470 1945 
Q 800 2319 1381 2484 
z
M 2559 3994 
Q 2241 3994 2048 3808 
Q 1856 3622 1856 3316 
Q 1856 3103 1995 2972 
Q 2134 2841 2363 2841 
Q 2681 2841 2873 3027 
Q 3066 3213 3066 3519 
Q 3066 3734 2927 3864 
Q 2788 3994 2559 3994 
z
" transform="scale(0.015625)"/>
      <path id="DejaVuSans-BoldOblique-36" d="M 2316 2303 
Q 1959 2303 1731 2009 
Q 1503 1716 1503 1253 
Q 1503 975 1643 820 
Q 1784 666 2034 666 
Q 2388 666 2617 955 
Q 2847 1244 2847 1684 
Q 2847 1984 2709 2143 
Q 2572 2303 2316 2303 
z
M 4225 4544 
L 4056 3681 
Q 3788 3819 3534 3887 
Q 3281 3956 3028 3956 
Q 2447 3956 2087 3643 
Q 1728 3331 1650 2766 
Q 1894 2925 2151 3001 
Q 2409 3078 2700 3078 
Q 3275 3078 3640 2737 
Q 4006 2397 4006 1869 
Q 4006 1006 3442 454 
Q 2878 -97 1991 -97 
Q 1194 -97 756 354 
Q 319 806 319 1631 
Q 319 2269 512 2848 
Q 706 3428 1056 3847 
Q 1431 4294 1942 4519 
Q 2453 4744 3091 4744 
Q 3384 4744 3662 4694 
Q 3941 4644 4225 4544 
z
" transform="scale(0.015625)"/>
     </defs>
     <use xlink:href="#DejaVuSans-BoldOblique-38"/>
     <use xlink:href="#DejaVuSans-BoldOblique-36" transform="translate(69.580078 0)"/>
     <use xlink:href="#DejaVuSans-BoldOblique-32" transform="translate(139.160156 0)"/>
     <use xlink:href="#DejaVuSans-BoldOblique-34" transform="translate(208.740234 0)"/>
    </g>
   </g>
   <g id="text_9">
    <!-- 6⁺ -->
    <g transform="translate(182.58336 200.305749) scale(0.23 -0.23)">
     <defs>
      <path id="TimesNewRomanPS-BoldMT-36" d="M 3006 4325 
L 3006 4238 
Q 2441 4094 2098 3867 
Q 1756 3641 1557 3317 
Q 1359 2994 1250 2516 
Q 1388 2609 1478 2638 
Q 1681 2700 1888 2700 
Q 2363 2700 2680 2354 
Q 2997 2009 2997 1413 
Q 2997 994 2825 644 
Q 2653 294 2337 103 
Q 2022 -88 1663 -88 
Q 1272 -88 940 126 
Q 609 341 423 753 
Q 238 1166 238 1650 
Q 238 2363 580 2977 
Q 922 3591 1551 3955 
Q 2181 4319 3006 4325 
z
M 1209 2263 
Q 1184 1831 1184 1631 
Q 1184 1200 1267 797 
Q 1350 394 1494 231 
Q 1597 116 1738 116 
Q 1881 116 1993 283 
Q 2106 450 2106 963 
Q 2106 1825 1897 2153 
Q 1763 2366 1534 2366 
Q 1409 2366 1209 2263 
z
" transform="scale(0.015625)"/>
     </defs>
     <use xlink:href="#TimesNewRomanPS-BoldMT-36"/>
     <use xlink:href="#DejaVuSerif-Bold-207a" transform="translate(50 0)"/>
    </g>
   </g>
   <g id="text_10">
    <!-- 3392 -->
    <g transform="translate(263.461892 371.881566) scale(0.16 -0.16)">
     <use xlink:href="#DejaVuSans-BoldOblique-33"/>
     <use xlink:href="#DejaVuSans-BoldOblique-33" transform="translate(69.580078 0)"/>
     <use xlink:href="#DejaVuSans-BoldOblique-39" transform="translate(139.160156 0)"/>
     <use xlink:href="#DejaVuSans-BoldOblique-32" transform="translate(208.740234 0)"/>
    </g>
   </g>
   <g id="text_11">
    <!-- 0⁺ -->
    <g transform="translate(432.457502 372.6218) scale(0.23 -0.23)">
     <use xlink:href="#TimesNewRomanPS-BoldMT-30"/>
     <use xlink:href="#DejaVuSerif-Bold-207a" transform="translate(50 0)"/>
    </g>
   </g>
   <g id="text_12">
    <!-- 5832 -->
    <g transform="translate(263.461892 291.525596) scale(0.16 -0.16)">
     <use xlink:href="#DejaVuSans-BoldOblique-35"/>
     <use xlink:href="#DejaVuSans-BoldOblique-38" transform="translate(69.580078 0)"/>
     <use xlink:href="#DejaVuSans-BoldOblique-33" transform="translate(139.160156 0)"/>
     <use xlink:href="#DejaVuSans-BoldOblique-32" transform="translate(208.740234 0)"/>
    </g>
   </g>
   <g id="text_13">
    <!-- 2⁺ -->
    <g transform="translate(432.457502 292.26583) scale(0.23 -0.23)">
     <use xlink:href="#TimesNewRomanPS-BoldMT-32"/>
     <use xlink:href="#DejaVuSerif-Bold-207a" transform="translate(50 0)"/>
    </g>
   </g>
   <g id="text_14">
    <!-- 8942 -->
    <g transform="translate(263.461892 189.092546) scale(0.16 -0.16)">
     <use xlink:href="#DejaVuSans-BoldOblique-38"/>
     <use xlink:href="#DejaVuSans-BoldOblique-39" transform="translate(69.580078 0)"/>
     <use xlink:href="#DejaVuSans-BoldOblique-34" transform="translate(139.160156 0)"/>
     <use xlink:href="#DejaVuSans-BoldOblique-32" transform="translate(208.740234 0)"/>
    </g>
   </g>
   <g id="text_15">
    <!-- 4⁺ -->
    <g transform="translate(432.457502 189.832781) scale(0.23 -0.23)">
     <use xlink:href="#TimesNewRomanPS-BoldMT-34"/>
     <use xlink:href="#DejaVuSerif-Bold-207a" transform="translate(50 0)"/>
    </g>
   </g>
   <g id="text_16">
    <!-- 12667 -->
    <g transform="translate(252.329392 66.420186) scale(0.16 -0.16)">
     <defs>
      <path id="DejaVuSans-BoldOblique-31" d="M 441 831 
L 1503 831 
L 2088 3847 
L 953 3622 
L 1113 4441 
L 2241 4666 
L 3384 4666 
L 2644 831 
L 3700 831 
L 3541 0 
L 275 0 
L 441 831 
z
" transform="scale(0.015625)"/>
     </defs>
     <use xlink:href="#DejaVuSans-BoldOblique-31"/>
     <use xlink:href="#DejaVuSans-BoldOblique-32" transform="translate(69.580078 0)"/>
     <use xlink:href="#DejaVuSans-BoldOblique-36" transform="translate(139.160156 0)"/>
     <use xlink:href="#DejaVuSans-BoldOblique-36" transform="translate(208.740234 0)"/>
     <use xlink:href="#DejaVuSans-BoldOblique-37" transform="translate(278.320312 0)"/>
    </g>
   </g>
   <g id="text_17">
    <!-- 6⁺ -->
    <g transform="translate(432.457502 67.160421) scale(0.23 -0.23)">
     <use xlink:href="#TimesNewRomanPS-BoldMT-36"/>
     <use xlink:href="#DejaVuSerif-Bold-207a" transform="translate(50 0)"/>
    </g>
   </g>
   <g id="text_18">
    <!-- 4125 -->
    <g transform="translate(513.336034 347.740659) scale(0.16 -0.16)">
     <use xlink:href="#DejaVuSans-BoldOblique-34"/>
     <use xlink:href="#DejaVuSans-BoldOblique-31" transform="translate(69.580078 0)"/>
     <use xlink:href="#DejaVuSans-BoldOblique-32" transform="translate(139.160156 0)"/>
     <use xlink:href="#DejaVuSans-BoldOblique-35" transform="translate(208.740234 0)"/>
    </g>
   </g>
   <g id="text_19">
    <!-- 2⁺ -->
    <g transform="translate(682.331644 348.480893) scale(0.23 -0.23)">
     <use xlink:href="#TimesNewRomanPS-BoldMT-32"/>
     <use xlink:href="#DejaVuSerif-Bold-207a" transform="translate(50 0)"/>
    </g>
   </g>
   <g id="text_20">
    <!-- 7216 -->
    <g transform="translate(513.336034 245.923372) scale(0.16 -0.16)">
     <use xlink:href="#DejaVuSans-BoldOblique-37"/>
     <use xlink:href="#DejaVuSans-BoldOblique-32" transform="translate(69.580078 0)"/>
     <use xlink:href="#DejaVuSans-BoldOblique-31" transform="translate(139.160156 0)"/>
     <use xlink:href="#DejaVuSans-BoldOblique-36" transform="translate(208.740234 0)"/>
    </g>
   </g>
   <g id="text_21">
    <!-- 3⁺ -->
    <g transform="translate(682.331644 246.663606) scale(0.23 -0.23)">
     <defs>
      <path id="TimesNewRomanPS-BoldMT-33" d="M 947 2125 
L 947 2234 
Q 1303 2338 1440 2427 
Q 1578 2516 1678 2698 
Q 1778 2881 1778 3069 
Q 1778 3328 1589 3514 
Q 1400 3700 1119 3700 
Q 681 3700 375 3238 
L 259 3278 
Q 484 3800 836 4062 
Q 1188 4325 1619 4325 
Q 2059 4325 2345 4056 
Q 2631 3788 2631 3428 
Q 2631 3194 2498 2976 
Q 2366 2759 2081 2594 
Q 2447 2416 2639 2155 
Q 2831 1894 2831 1500 
Q 2831 838 2351 373 
Q 1872 -91 1066 -91 
Q 528 -91 281 88 
Q 103 213 103 409 
Q 103 553 206 654 
Q 309 756 444 756 
Q 547 756 638 713 
Q 688 688 992 439 
Q 1297 191 1563 191 
Q 1794 191 1959 373 
Q 2125 556 2125 838 
Q 2125 1266 1825 1627 
Q 1525 1988 947 2125 
z
" transform="scale(0.015625)"/>
     </defs>
     <use xlink:href="#TimesNewRomanPS-BoldMT-33"/>
     <use xlink:href="#DejaVuSerif-Bold-207a" transform="translate(50 0)"/>
    </g>
   </g>
   <g id="text_22">
    <path d="M 112.788055 435.370856 
L 117.748055 435.370856 
L 116.960555 437.388356 
L 112.788055 437.388356 
L 112.390555 438.443356 
Q 115.085555 438.543356 116.538055 439.785856 
Q 117.733055 440.808356 117.733055 442.333356 
Q 117.733055 443.308356 117.178055 444.243356 
Q 116.623055 445.175856 115.615555 445.680856 
Q 114.608055 446.185856 113.405555 446.185856 
Q 112.108055 446.185856 111.413055 445.700856 
Q 110.928055 445.355856 110.928055 444.918356 
Q 110.928055 444.583356 111.180555 444.325856 
Q 111.435555 444.068356 111.773055 444.068356 
Q 112.078055 444.068356 112.390555 444.193356 
Q 112.703055 444.318356 113.460555 444.848356 
Q 113.935555 445.175856 114.280555 445.300856 
Q 114.523055 445.395856 114.828055 445.395856 
Q 115.468055 445.395856 115.915555 444.928356 
Q 116.365555 444.458356 116.365555 443.800856 
Q 116.365555 442.425856 114.990555 441.568356 
Q 113.615555 440.708356 111.523055 440.708356 
Q 111.310555 440.708356 110.890555 440.715856 
L 112.788055 435.370856 
z
M 120.350555 443.558356 
Q 120.898055 443.558356 121.275555 443.943356 
Q 121.655555 444.325856 121.655555 444.863356 
Q 121.655555 445.403356 121.273055 445.783356 
Q 120.890555 446.160856 120.350555 446.160856 
Q 119.810555 446.160856 119.430555 445.783356 
Q 119.053055 445.403356 119.053055 444.863356 
Q 119.053055 444.325856 119.430555 443.943356 
Q 119.810555 443.558356 120.350555 443.558356 
z
M 129.765555 440.668356 
Q 129.765555 442.255856 129.320555 443.630856 
Q 129.053055 444.473356 128.603055 445.013356 
Q 128.155555 445.550856 127.585555 445.868356 
Q 127.015555 446.185856 126.343055 446.185856 
Q 125.578055 446.185856 124.960555 445.795856 
Q 124.343055 445.403356 123.865555 444.675856 
Q 123.523055 444.145856 123.265555 443.263356 
Q 122.928055 442.068356 122.928055 440.793356 
Q 122.928055 439.068356 123.413055 437.620856 
Q 123.810555 436.425856 124.623055 435.790856 
Q 125.435555 435.153356 126.343055 435.153356 
Q 127.265555 435.153356 128.065555 435.783356 
Q 128.865555 436.410856 129.240555 437.473356 
Q 129.765555 438.933356 129.765555 440.668356 
z
M 127.358055 440.653356 
Q 127.358055 437.870856 127.328055 437.410856 
Q 127.248055 436.325856 126.953055 435.943356 
Q 126.758055 435.693356 126.320555 435.693356 
Q 125.983055 435.693356 125.788055 435.880856 
Q 125.498055 436.153356 125.395555 436.845856 
Q 125.295555 437.535856 125.295555 441.668356 
Q 125.295555 443.918356 125.453055 444.683356 
Q 125.570555 445.238356 125.788055 445.425856 
Q 126.008055 445.613356 126.365555 445.613356 
Q 126.758055 445.613356 126.953055 445.363356 
Q 127.280555 444.925856 127.328055 444.013356 
L 127.358055 440.653356 
z
" style="stroke: #ffffff; stroke-width: 3.8"/>
    <path d="M 112.788055 435.370856 
L 117.748055 435.370856 
L 116.960555 437.388356 
L 112.788055 437.388356 
L 112.390555 438.443356 
Q 115.085555 438.543356 116.538055 439.785856 
Q 117.733055 440.808356 117.733055 442.333356 
Q 117.733055 443.308356 117.178055 444.243356 
Q 116.623055 445.175856 115.615555 445.680856 
Q 114.608055 446.185856 113.405555 446.185856 
Q 112.108055 446.185856 111.413055 445.700856 
Q 110.928055 445.355856 110.928055 444.918356 
Q 110.928055 444.583356 111.180555 444.325856 
Q 111.435555 444.068356 111.773055 444.068356 
Q 112.078055 444.068356 112.390555 444.193356 
Q 112.703055 444.318356 113.460555 444.848356 
Q 113.935555 445.175856 114.280555 445.300856 
Q 114.523055 445.395856 114.828055 445.395856 
Q 115.468055 445.395856 115.915555 444.928356 
Q 116.365555 444.458356 116.365555 443.800856 
Q 116.365555 442.425856 114.990555 441.568356 
Q 113.615555 440.708356 111.523055 440.708356 
Q 111.310555 440.708356 110.890555 440.715856 
L 112.788055 435.370856 
z
M 120.350555 443.558356 
Q 120.898055 443.558356 121.275555 443.943356 
Q 121.655555 444.325856 121.655555 444.863356 
Q 121.655555 445.403356 121.273055 445.783356 
Q 120.890555 446.160856 120.350555 446.160856 
Q 119.810555 446.160856 119.430555 445.783356 
Q 119.053055 445.403356 119.053055 444.863356 
Q 119.053055 444.325856 119.430555 443.943356 
Q 119.810555 443.558356 120.350555 443.558356 
z
M 129.765555 440.668356 
Q 129.765555 442.255856 129.320555 443.630856 
Q 129.053055 444.473356 128.603055 445.013356 
Q 128.155555 445.550856 127.585555 445.868356 
Q 127.015555 446.185856 126.343055 446.185856 
Q 125.578055 446.185856 124.960555 445.795856 
Q 124.343055 445.403356 123.865555 444.675856 
Q 123.523055 444.145856 123.265555 443.263356 
Q 122.928055 442.068356 122.928055 440.793356 
Q 122.928055 439.068356 123.413055 437.620856 
Q 123.810555 436.425856 124.623055 435.790856 
Q 125.435555 435.153356 126.343055 435.153356 
Q 127.265555 435.153356 128.065555 435.783356 
Q 128.865555 436.410856 129.240555 437.473356 
Q 129.765555 438.933356 129.765555 440.668356 
z
M 127.358055 440.653356 
Q 127.358055 437.870856 127.328055 437.410856 
Q 127.248055 436.325856 126.953055 435.943356 
Q 126.758055 435.693356 126.320555 435.693356 
Q 125.983055 435.693356 125.788055 435.880856 
Q 125.498055 436.153356 125.395555 436.845856 
Q 125.295555 437.535856 125.295555 441.668356 
Q 125.295555 443.918356 125.453055 444.683356 
Q 125.570555 445.238356 125.788055 445.425856 
Q 126.008055 445.613356 126.365555 445.613356 
Q 126.758055 445.613356 126.953055 445.363356 
Q 127.280555 444.925856 127.328055 444.013356 
L 127.358055 440.653356 
z
"/>
   </g>
   <g id="text_23">
    <path d="M 111.560555 347.922991 
L 111.560555 356.587991 
Q 111.560555 357.562991 111.645555 357.832991 
Q 111.733055 358.102991 112.005555 358.275491 
Q 112.280555 358.445491 112.883055 358.445491 
L 113.123055 358.445491 
L 113.123055 358.735491 
L 107.545555 358.735491 
L 107.545555 358.445491 
L 107.828055 358.445491 
Q 108.508055 358.445491 108.795555 358.290491 
Q 109.085555 358.132991 109.185555 357.860491 
Q 109.288055 357.587991 109.288055 356.587991 
L 109.288055 351.095491 
Q 109.288055 350.360491 109.218055 350.177991 
Q 109.148055 349.992991 108.955555 349.865491 
Q 108.765555 349.735491 108.515555 349.735491 
Q 108.115555 349.735491 107.545555 349.985491 
L 107.405555 349.702991 
L 111.303055 347.922991 
L 111.560555 347.922991 
z
M 121.765555 353.437991 
Q 121.765555 355.025491 121.320555 356.400491 
Q 121.053055 357.242991 120.603055 357.782991 
Q 120.155555 358.320491 119.585555 358.637991 
Q 119.015555 358.955491 118.343055 358.955491 
Q 117.578055 358.955491 116.960555 358.565491 
Q 116.343055 358.172991 115.865555 357.445491 
Q 115.523055 356.915491 115.265555 356.032991 
Q 114.928055 354.837991 114.928055 353.562991 
Q 114.928055 351.837991 115.413055 350.390491 
Q 115.810555 349.195491 116.623055 348.560491 
Q 117.435555 347.922991 118.343055 347.922991 
Q 119.265555 347.922991 120.065555 348.552991 
Q 120.865555 349.180491 121.240555 350.242991 
Q 121.765555 351.702991 121.765555 353.437991 
z
M 119.358055 353.422991 
Q 119.358055 350.640491 119.328055 350.180491 
Q 119.248055 349.095491 118.953055 348.712991 
Q 118.758055 348.462991 118.320555 348.462991 
Q 117.983055 348.462991 117.788055 348.650491 
Q 117.498055 348.922991 117.395555 349.615491 
Q 117.295555 350.305491 117.295555 354.437991 
Q 117.295555 356.687991 117.453055 357.452991 
Q 117.570555 358.007991 117.788055 358.195491 
Q 118.008055 358.382991 118.365555 358.382991 
Q 118.758055 358.382991 118.953055 358.132991 
Q 119.280555 357.695491 119.328055 356.782991 
L 119.358055 353.422991 
z
M 124.350555 356.327991 
Q 124.898055 356.327991 125.275555 356.712991 
Q 125.655555 357.095491 125.655555 357.632991 
Q 125.655555 358.172991 125.273055 358.552991 
Q 124.890555 358.930491 124.350555 358.930491 
Q 123.810555 358.930491 123.430555 358.552991 
Q 123.053055 358.172991 123.053055 357.632991 
Q 123.053055 357.095491 123.430555 356.712991 
Q 123.810555 356.327991 124.350555 356.327991 
z
M 131.560555 347.922991 
L 131.560555 356.587991 
Q 131.560555 357.562991 131.645555 357.832991 
Q 131.733055 358.102991 132.005555 358.275491 
Q 132.280555 358.445491 132.883055 358.445491 
L 133.123055 358.445491 
L 133.123055 358.735491 
L 127.545555 358.735491 
L 127.545555 358.445491 
L 127.828055 358.445491 
Q 128.508055 358.445491 128.795555 358.290491 
Q 129.085555 358.132991 129.185555 357.860491 
Q 129.288055 357.587991 129.288055 356.587991 
L 129.288055 351.095491 
Q 129.288055 350.360491 129.218055 350.177991 
Q 129.148055 349.992991 128.955555 349.865491 
Q 128.765555 349.735491 128.515555 349.735491 
Q 128.115555 349.735491 127.545555 349.985491 
L 127.405555 349.702991 
L 131.303055 347.922991 
L 131.560555 347.922991 
z
" style="stroke: #ffffff; stroke-width: 3.8"/>
    <path d="M 111.560555 347.922991 
L 111.560555 356.587991 
Q 111.560555 357.562991 111.645555 357.832991 
Q 111.733055 358.102991 112.005555 358.275491 
Q 112.280555 358.445491 112.883055 358.445491 
L 113.123055 358.445491 
L 113.123055 358.735491 
L 107.545555 358.735491 
L 107.545555 358.445491 
L 107.828055 358.445491 
Q 108.508055 358.445491 108.795555 358.290491 
Q 109.085555 358.132991 109.185555 357.860491 
Q 109.288055 357.587991 109.288055 356.587991 
L 109.288055 351.095491 
Q 109.288055 350.360491 109.218055 350.177991 
Q 109.148055 349.992991 108.955555 349.865491 
Q 108.765555 349.735491 108.515555 349.735491 
Q 108.115555 349.735491 107.545555 349.985491 
L 107.405555 349.702991 
L 111.303055 347.922991 
L 111.560555 347.922991 
z
M 121.765555 353.437991 
Q 121.765555 355.025491 121.320555 356.400491 
Q 121.053055 357.242991 120.603055 357.782991 
Q 120.155555 358.320491 119.585555 358.637991 
Q 119.015555 358.955491 118.343055 358.955491 
Q 117.578055 358.955491 116.960555 358.565491 
Q 116.343055 358.172991 115.865555 357.445491 
Q 115.523055 356.915491 115.265555 356.032991 
Q 114.928055 354.837991 114.928055 353.562991 
Q 114.928055 351.837991 115.413055 350.390491 
Q 115.810555 349.195491 116.623055 348.560491 
Q 117.435555 347.922991 118.343055 347.922991 
Q 119.265555 347.922991 120.065555 348.552991 
Q 120.865555 349.180491 121.240555 350.242991 
Q 121.765555 351.702991 121.765555 353.437991 
z
M 119.358055 353.422991 
Q 119.358055 350.640491 119.328055 350.180491 
Q 119.248055 349.095491 118.953055 348.712991 
Q 118.758055 348.462991 118.320555 348.462991 
Q 117.983055 348.462991 117.788055 348.650491 
Q 117.498055 348.922991 117.395555 349.615491 
Q 117.295555 350.305491 117.295555 354.437991 
Q 117.295555 356.687991 117.453055 357.452991 
Q 117.570555 358.007991 117.788055 358.195491 
Q 118.008055 358.382991 118.365555 358.382991 
Q 118.758055 358.382991 118.953055 358.132991 
Q 119.280555 357.695491 119.328055 356.782991 
L 119.358055 353.422991 
z
M 124.350555 356.327991 
Q 124.898055 356.327991 125.275555 356.712991 
Q 125.655555 357.095491 125.655555 357.632991 
Q 125.655555 358.172991 125.273055 358.552991 
Q 124.890555 358.930491 124.350555 358.930491 
Q 123.810555 358.930491 123.430555 358.552991 
Q 123.053055 358.172991 123.053055 357.632991 
Q 123.053055 357.095491 123.430555 356.712991 
Q 123.810555 356.327991 124.350555 356.327991 
z
M 131.560555 347.922991 
L 131.560555 356.587991 
Q 131.560555 357.562991 131.645555 357.832991 
Q 131.733055 358.102991 132.005555 358.275491 
Q 132.280555 358.445491 132.883055 358.445491 
L 133.123055 358.445491 
L 133.123055 358.735491 
L 127.545555 358.735491 
L 127.545555 358.445491 
L 127.828055 358.445491 
Q 128.508055 358.445491 128.795555 358.290491 
Q 129.085555 358.132991 129.185555 357.860491 
Q 129.288055 357.587991 129.288055 356.587991 
L 129.288055 351.095491 
Q 129.288055 350.360491 129.218055 350.177991 
Q 129.148055 349.992991 128.955555 349.865491 
Q 128.765555 349.735491 128.515555 349.735491 
Q 128.115555 349.735491 127.545555 349.985491 
L 127.405555 349.702991 
L 131.303055 347.922991 
L 131.560555 347.922991 
z
"/>
   </g>
   <g id="text_24">
    <path d="M 111.560555 242.705425 
L 111.560555 251.370425 
Q 111.560555 252.345425 111.645555 252.615425 
Q 111.733055 252.885425 112.005555 253.057925 
Q 112.280555 253.227925 112.883055 253.227925 
L 113.123055 253.227925 
L 113.123055 253.517925 
L 107.545555 253.517925 
L 107.545555 253.227925 
L 107.828055 253.227925 
Q 108.508055 253.227925 108.795555 253.072925 
Q 109.085555 252.915425 109.185555 252.642925 
Q 109.288055 252.370425 109.288055 251.370425 
L 109.288055 245.877925 
Q 109.288055 245.142925 109.218055 244.960425 
Q 109.148055 244.775425 108.955555 244.647925 
Q 108.765555 244.517925 108.515555 244.517925 
Q 108.115555 244.517925 107.545555 244.767925 
L 107.405555 244.485425 
L 111.303055 242.705425 
L 111.560555 242.705425 
z
M 121.865555 242.705425 
L 121.865555 242.922925 
Q 120.453055 243.282925 119.595555 243.850425 
Q 118.740555 244.415425 118.243055 245.225425 
Q 117.748055 246.032925 117.475555 247.227925 
Q 117.820555 246.995425 118.045555 246.922925 
Q 118.553055 246.767925 119.070555 246.767925 
Q 120.258055 246.767925 121.050555 247.632925 
Q 121.843055 248.495425 121.843055 249.985425 
Q 121.843055 251.032925 121.413055 251.907925 
Q 120.983055 252.782925 120.193055 253.260425 
Q 119.405555 253.737925 118.508055 253.737925 
Q 117.530555 253.737925 116.700555 253.202925 
Q 115.873055 252.665425 115.408055 251.635425 
Q 114.945555 250.602925 114.945555 249.392925 
Q 114.945555 247.610425 115.800555 246.075425 
Q 116.655555 244.540425 118.228055 243.630425 
Q 119.803055 242.720425 121.865555 242.705425 
z
M 117.373055 247.860425 
Q 117.310555 248.940425 117.310555 249.440425 
Q 117.310555 250.517925 117.518055 251.525425 
Q 117.725555 252.532925 118.085555 252.940425 
Q 118.343055 253.227925 118.695555 253.227925 
Q 119.053055 253.227925 119.333055 252.810425 
Q 119.615555 252.392925 119.615555 251.110425 
Q 119.615555 248.955425 119.093055 248.135425 
Q 118.758055 247.602925 118.185555 247.602925 
Q 117.873055 247.602925 117.373055 247.860425 
z
M 124.350555 251.110425 
Q 124.898055 251.110425 125.275555 251.495425 
Q 125.655555 251.877925 125.655555 252.415425 
Q 125.655555 252.955425 125.273055 253.335425 
Q 124.890555 253.712925 124.350555 253.712925 
Q 123.810555 253.712925 123.430555 253.335425 
Q 123.053055 252.955425 123.053055 252.415425 
Q 123.053055 251.877925 123.430555 251.495425 
Q 123.810555 251.110425 124.350555 251.110425 
z
M 133.865555 242.705425 
L 133.865555 242.922925 
Q 132.453055 243.282925 131.595555 243.850425 
Q 130.740555 244.415425 130.243055 245.225425 
Q 129.748055 246.032925 129.475555 247.227925 
Q 129.820555 246.995425 130.045555 246.922925 
Q 130.553055 246.767925 131.070555 246.767925 
Q 132.258055 246.767925 133.050555 247.632925 
Q 133.843055 248.495425 133.843055 249.985425 
Q 133.843055 251.032925 133.413055 251.907925 
Q 132.983055 252.782925 132.193055 253.260425 
Q 131.405555 253.737925 130.508055 253.737925 
Q 129.530555 253.737925 128.700555 253.202925 
Q 127.873055 252.665425 127.408055 251.635425 
Q 126.945555 250.602925 126.945555 249.392925 
Q 126.945555 247.610425 127.800555 246.075425 
Q 128.655555 244.540425 130.228055 243.630425 
Q 131.803055 242.720425 133.865555 242.705425 
z
M 129.373055 247.860425 
Q 129.310555 248.940425 129.310555 249.440425 
Q 129.310555 250.517925 129.518055 251.525425 
Q 129.725555 252.532925 130.085555 252.940425 
Q 130.343055 253.227925 130.695555 253.227925 
Q 131.053055 253.227925 131.333055 252.810425 
Q 131.615555 252.392925 131.615555 251.110425 
Q 131.615555 248.955425 131.093055 248.135425 
Q 130.758055 247.602925 130.185555 247.602925 
Q 129.873055 247.602925 129.373055 247.860425 
z
" style="stroke: #ffffff; stroke-width: 3.8"/>
    <path d="M 111.560555 242.705425 
L 111.560555 251.370425 
Q 111.560555 252.345425 111.645555 252.615425 
Q 111.733055 252.885425 112.005555 253.057925 
Q 112.280555 253.227925 112.883055 253.227925 
L 113.123055 253.227925 
L 113.123055 253.517925 
L 107.545555 253.517925 
L 107.545555 253.227925 
L 107.828055 253.227925 
Q 108.508055 253.227925 108.795555 253.072925 
Q 109.085555 252.915425 109.185555 252.642925 
Q 109.288055 252.370425 109.288055 251.370425 
L 109.288055 245.877925 
Q 109.288055 245.142925 109.218055 244.960425 
Q 109.148055 244.775425 108.955555 244.647925 
Q 108.765555 244.517925 108.515555 244.517925 
Q 108.115555 244.517925 107.545555 244.767925 
L 107.405555 244.485425 
L 111.303055 242.705425 
L 111.560555 242.705425 
z
M 121.865555 242.705425 
L 121.865555 242.922925 
Q 120.453055 243.282925 119.595555 243.850425 
Q 118.740555 244.415425 118.243055 245.225425 
Q 117.748055 246.032925 117.475555 247.227925 
Q 117.820555 246.995425 118.045555 246.922925 
Q 118.553055 246.767925 119.070555 246.767925 
Q 120.258055 246.767925 121.050555 247.632925 
Q 121.843055 248.495425 121.843055 249.985425 
Q 121.843055 251.032925 121.413055 251.907925 
Q 120.983055 252.782925 120.193055 253.260425 
Q 119.405555 253.737925 118.508055 253.737925 
Q 117.530555 253.737925 116.700555 253.202925 
Q 115.873055 252.665425 115.408055 251.635425 
Q 114.945555 250.602925 114.945555 249.392925 
Q 114.945555 247.610425 115.800555 246.075425 
Q 116.655555 244.540425 118.228055 243.630425 
Q 119.803055 242.720425 121.865555 242.705425 
z
M 117.373055 247.860425 
Q 117.310555 248.940425 117.310555 249.440425 
Q 117.310555 250.517925 117.518055 251.525425 
Q 117.725555 252.532925 118.085555 252.940425 
Q 118.343055 253.227925 118.695555 253.227925 
Q 119.053055 253.227925 119.333055 252.810425 
Q 119.615555 252.392925 119.615555 251.110425 
Q 119.615555 248.955425 119.093055 248.135425 
Q 118.758055 247.602925 118.185555 247.602925 
Q 117.873055 247.602925 117.373055 247.860425 
z
M 124.350555 251.110425 
Q 124.898055 251.110425 125.275555 251.495425 
Q 125.655555 251.877925 125.655555 252.415425 
Q 125.655555 252.955425 125.273055 253.335425 
Q 124.890555 253.712925 124.350555 253.712925 
Q 123.810555 253.712925 123.430555 253.335425 
Q 123.053055 252.955425 123.053055 252.415425 
Q 123.053055 251.877925 123.430555 251.495425 
Q 123.810555 251.110425 124.350555 251.110425 
z
M 133.865555 242.705425 
L 133.865555 242.922925 
Q 132.453055 243.282925 131.595555 243.850425 
Q 130.740555 244.415425 130.243055 245.225425 
Q 129.748055 246.032925 129.475555 247.227925 
Q 129.820555 246.995425 130.045555 246.922925 
Q 130.553055 246.767925 131.070555 246.767925 
Q 132.258055 246.767925 133.050555 247.632925 
Q 133.843055 248.495425 133.843055 249.985425 
Q 133.843055 251.032925 133.413055 251.907925 
Q 132.983055 252.782925 132.193055 253.260425 
Q 131.405555 253.737925 130.508055 253.737925 
Q 129.530555 253.737925 128.700555 253.202925 
Q 127.873055 252.665425 127.408055 251.635425 
Q 126.945555 250.602925 126.945555 249.392925 
Q 126.945555 247.610425 127.800555 246.075425 
Q 128.655555 244.540425 130.228055 243.630425 
Q 131.803055 242.720425 133.865555 242.705425 
z
M 129.373055 247.860425 
Q 129.310555 248.940425 129.310555 249.440425 
Q 129.310555 250.517925 129.518055 251.525425 
Q 129.725555 252.532925 130.085555 252.940425 
Q 130.343055 253.227925 130.695555 253.227925 
Q 131.053055 253.227925 131.333055 252.810425 
Q 131.615555 252.392925 131.615555 251.110425 
Q 131.615555 248.955425 131.093055 248.135425 
Q 130.758055 247.602925 130.185555 247.602925 
Q 129.873055 247.602925 129.373055 247.860425 
z
"/>
   </g>
   <g id="text_25">
    <path d="M 367.739697 320.062331 
L 367.739697 320.279831 
Q 366.327197 320.639831 365.469697 321.207331 
Q 364.614697 321.772331 364.117197 322.582331 
Q 363.622197 323.389831 363.349697 324.584831 
Q 363.694697 324.352331 363.919697 324.279831 
Q 364.427197 324.124831 364.944697 324.124831 
Q 366.132197 324.124831 366.924697 324.989831 
Q 367.717197 325.852331 367.717197 327.342331 
Q 367.717197 328.389831 367.287197 329.264831 
Q 366.857197 330.139831 366.067197 330.617331 
Q 365.279697 331.094831 364.382197 331.094831 
Q 363.404697 331.094831 362.574697 330.559831 
Q 361.747197 330.022331 361.282197 328.992331 
Q 360.819697 327.959831 360.819697 326.749831 
Q 360.819697 324.967331 361.674697 323.432331 
Q 362.529697 321.897331 364.102197 320.987331 
Q 365.677197 320.077331 367.739697 320.062331 
z
M 363.247197 325.217331 
Q 363.184697 326.297331 363.184697 326.797331 
Q 363.184697 327.874831 363.392197 328.882331 
Q 363.599697 329.889831 363.959697 330.297331 
Q 364.217197 330.584831 364.569697 330.584831 
Q 364.927197 330.584831 365.207197 330.167331 
Q 365.489697 329.749831 365.489697 328.467331 
Q 365.489697 326.312331 364.967197 325.492331 
Q 364.632197 324.959831 364.059697 324.959831 
Q 363.747197 324.959831 363.247197 325.217331 
z
M 370.224697 328.467331 
Q 370.772197 328.467331 371.149697 328.852331 
Q 371.529697 329.234831 371.529697 329.772331 
Q 371.529697 330.312331 371.147197 330.692331 
Q 370.764697 331.069831 370.224697 331.069831 
Q 369.684697 331.069831 369.304697 330.692331 
Q 368.927197 330.312331 368.927197 329.772331 
Q 368.927197 329.234831 369.304697 328.852331 
Q 369.684697 328.467331 370.224697 328.467331 
z
M 374.592197 325.562331 
L 374.592197 325.289831 
Q 375.482197 325.029831 375.824697 324.807331 
Q 376.169697 324.584831 376.419697 324.129831 
Q 376.669697 323.672331 376.669697 323.202331 
Q 376.669697 322.554831 376.197197 322.089831 
Q 375.724697 321.624831 375.022197 321.624831 
Q 373.927197 321.624831 373.162197 322.779831 
L 372.872197 322.679831 
Q 373.434697 321.374831 374.314697 320.719831 
Q 375.194697 320.062331 376.272197 320.062331 
Q 377.372197 320.062331 378.087197 320.734831 
Q 378.802197 321.404831 378.802197 322.304831 
Q 378.802197 322.889831 378.469697 323.434831 
Q 378.139697 323.977331 377.427197 324.389831 
Q 378.342197 324.834831 378.822197 325.487331 
Q 379.302197 326.139831 379.302197 327.124831 
Q 379.302197 328.779831 378.102197 329.942331 
Q 376.904697 331.102331 374.889697 331.102331 
Q 373.544697 331.102331 372.927197 330.654831 
Q 372.482197 330.342331 372.482197 329.852331 
Q 372.482197 329.492331 372.739697 329.239831 
Q 372.997197 328.984831 373.334697 328.984831 
Q 373.592197 328.984831 373.819697 329.092331 
Q 373.944697 329.154831 374.704697 329.777331 
Q 375.467197 330.397331 376.132197 330.397331 
Q 376.709697 330.397331 377.122197 329.942331 
Q 377.537197 329.484831 377.537197 328.779831 
Q 377.537197 327.709831 376.787197 326.807331 
Q 376.037197 325.904831 374.592197 325.562331 
z
" style="stroke: #ffffff; stroke-width: 3.8"/>
    <path d="M 367.739697 320.062331 
L 367.739697 320.279831 
Q 366.327197 320.639831 365.469697 321.207331 
Q 364.614697 321.772331 364.117197 322.582331 
Q 363.622197 323.389831 363.349697 324.584831 
Q 363.694697 324.352331 363.919697 324.279831 
Q 364.427197 324.124831 364.944697 324.124831 
Q 366.132197 324.124831 366.924697 324.989831 
Q 367.717197 325.852331 367.717197 327.342331 
Q 367.717197 328.389831 367.287197 329.264831 
Q 366.857197 330.139831 366.067197 330.617331 
Q 365.279697 331.094831 364.382197 331.094831 
Q 363.404697 331.094831 362.574697 330.559831 
Q 361.747197 330.022331 361.282197 328.992331 
Q 360.819697 327.959831 360.819697 326.749831 
Q 360.819697 324.967331 361.674697 323.432331 
Q 362.529697 321.897331 364.102197 320.987331 
Q 365.677197 320.077331 367.739697 320.062331 
z
M 363.247197 325.217331 
Q 363.184697 326.297331 363.184697 326.797331 
Q 363.184697 327.874831 363.392197 328.882331 
Q 363.599697 329.889831 363.959697 330.297331 
Q 364.217197 330.584831 364.569697 330.584831 
Q 364.927197 330.584831 365.207197 330.167331 
Q 365.489697 329.749831 365.489697 328.467331 
Q 365.489697 326.312331 364.967197 325.492331 
Q 364.632197 324.959831 364.059697 324.959831 
Q 363.747197 324.959831 363.247197 325.217331 
z
M 370.224697 328.467331 
Q 370.772197 328.467331 371.149697 328.852331 
Q 371.529697 329.234831 371.529697 329.772331 
Q 371.529697 330.312331 371.147197 330.692331 
Q 370.764697 331.069831 370.224697 331.069831 
Q 369.684697 331.069831 369.304697 330.692331 
Q 368.927197 330.312331 368.927197 329.772331 
Q 368.927197 329.234831 369.304697 328.852331 
Q 369.684697 328.467331 370.224697 328.467331 
z
M 374.592197 325.562331 
L 374.592197 325.289831 
Q 375.482197 325.029831 375.824697 324.807331 
Q 376.169697 324.584831 376.419697 324.129831 
Q 376.669697 323.672331 376.669697 323.202331 
Q 376.669697 322.554831 376.197197 322.089831 
Q 375.724697 321.624831 375.022197 321.624831 
Q 373.927197 321.624831 373.162197 322.779831 
L 372.872197 322.679831 
Q 373.434697 321.374831 374.314697 320.719831 
Q 375.194697 320.062331 376.272197 320.062331 
Q 377.372197 320.062331 378.087197 320.734831 
Q 378.802197 321.404831 378.802197 322.304831 
Q 378.802197 322.889831 378.469697 323.434831 
Q 378.139697 323.977331 377.427197 324.389831 
Q 378.342197 324.834831 378.822197 325.487331 
Q 379.302197 326.139831 379.302197 327.124831 
Q 379.302197 328.779831 378.102197 329.942331 
Q 376.904697 331.102331 374.889697 331.102331 
Q 373.544697 331.102331 372.927197 330.654831 
Q 372.482197 330.342331 372.482197 329.852331 
Q 372.482197 329.492331 372.739697 329.239831 
Q 372.997197 328.984831 373.334697 328.984831 
Q 373.592197 328.984831 373.819697 329.092331 
Q 373.944697 329.154831 374.704697 329.777331 
Q 375.467197 330.397331 376.132197 330.397331 
Q 376.709697 330.397331 377.122197 329.942331 
Q 377.537197 329.484831 377.537197 328.779831 
Q 377.537197 327.709831 376.787197 326.807331 
Q 376.037197 325.904831 374.592197 325.562331 
z
"/>
   </g>
   <g id="text_26">
    <path d="M 361.434697 228.667821 
L 361.434697 237.332821 
Q 361.434697 238.307821 361.519697 238.577821 
Q 361.607197 238.847821 361.879697 239.020321 
Q 362.154697 239.190321 362.757197 239.190321 
L 362.997197 239.190321 
L 362.997197 239.480321 
L 357.419697 239.480321 
L 357.419697 239.190321 
L 357.702197 239.190321 
Q 358.382197 239.190321 358.669697 239.035321 
Q 358.959697 238.877821 359.059697 238.605321 
Q 359.162197 238.332821 359.162197 237.332821 
L 359.162197 231.840321 
Q 359.162197 231.105321 359.092197 230.922821 
Q 359.022197 230.737821 358.829697 230.610321 
Q 358.639697 230.480321 358.389697 230.480321 
Q 357.989697 230.480321 357.419697 230.730321 
L 357.279697 230.447821 
L 361.177197 228.667821 
L 361.434697 228.667821 
z
M 370.849697 239.480321 
L 364.614697 239.480321 
L 364.614697 239.307821 
Q 367.482197 235.895321 368.094697 234.715321 
Q 368.709697 233.535321 368.709697 232.410321 
Q 368.709697 231.590321 368.202197 231.047821 
Q 367.694697 230.502821 366.959697 230.502821 
Q 365.757197 230.502821 365.092197 231.707821 
L 364.802197 231.605321 
Q 365.224697 230.105321 366.084697 229.387821 
Q 366.944697 228.667821 368.069697 228.667821 
Q 368.872197 228.667821 369.537197 229.042821 
Q 370.202197 229.417821 370.577197 230.070321 
Q 370.952197 230.722821 370.952197 231.292821 
Q 370.952197 232.332821 370.372197 233.402821 
Q 369.584697 234.847821 366.927197 237.432821 
L 369.217197 237.432821 
Q 370.059697 237.432821 370.314697 237.362821 
Q 370.569697 237.292821 370.732197 237.125321 
Q 370.897197 236.957821 371.162197 236.417821 
L 371.444697 236.417821 
L 370.849697 239.480321 
z
M 374.224697 237.072821 
Q 374.772197 237.072821 375.149697 237.457821 
Q 375.529697 237.840321 375.529697 238.377821 
Q 375.529697 238.917821 375.147197 239.297821 
Q 374.764697 239.675321 374.224697 239.675321 
Q 373.684697 239.675321 373.304697 239.297821 
Q 372.927197 238.917821 372.927197 238.377821 
Q 372.927197 237.840321 373.304697 237.457821 
Q 373.684697 237.072821 374.224697 237.072821 
z
M 383.739697 228.667821 
L 383.739697 228.885321 
Q 382.327197 229.245321 381.469697 229.812821 
Q 380.614697 230.377821 380.117197 231.187821 
Q 379.622197 231.995321 379.349697 233.190321 
Q 379.694697 232.957821 379.919697 232.885321 
Q 380.427197 232.730321 380.944697 232.730321 
Q 382.132197 232.730321 382.924697 233.595321 
Q 383.717197 234.457821 383.717197 235.947821 
Q 383.717197 236.995321 383.287197 237.870321 
Q 382.857197 238.745321 382.067197 239.222821 
Q 381.279697 239.700321 380.382197 239.700321 
Q 379.404697 239.700321 378.574697 239.165321 
Q 377.747197 238.627821 377.282197 237.597821 
Q 376.819697 236.565321 376.819697 235.355321 
Q 376.819697 233.572821 377.674697 232.037821 
Q 378.529697 230.502821 380.102197 229.592821 
Q 381.677197 228.682821 383.739697 228.667821 
z
M 379.247197 233.822821 
Q 379.184697 234.902821 379.184697 235.402821 
Q 379.184697 236.480321 379.392197 237.487821 
Q 379.599697 238.495321 379.959697 238.902821 
Q 380.217197 239.190321 380.569697 239.190321 
Q 380.927197 239.190321 381.207197 238.772821 
Q 381.489697 238.355321 381.489697 237.072821 
Q 381.489697 234.917821 380.967197 234.097821 
Q 380.632197 233.565321 380.059697 233.565321 
Q 379.747197 233.565321 379.247197 233.822821 
z
" style="stroke: #ffffff; stroke-width: 3.8"/>
    <path d="M 361.434697 228.667821 
L 361.434697 237.332821 
Q 361.434697 238.307821 361.519697 238.577821 
Q 361.607197 238.847821 361.879697 239.020321 
Q 362.154697 239.190321 362.757197 239.190321 
L 362.997197 239.190321 
L 362.997197 239.480321 
L 357.419697 239.480321 
L 357.419697 239.190321 
L 357.702197 239.190321 
Q 358.382197 239.190321 358.669697 239.035321 
Q 358.959697 238.877821 359.059697 238.605321 
Q 359.162197 238.332821 359.162197 237.332821 
L 359.162197 231.840321 
Q 359.162197 231.105321 359.092197 230.922821 
Q 359.022197 230.737821 358.829697 230.610321 
Q 358.639697 230.480321 358.389697 230.480321 
Q 357.989697 230.480321 357.419697 230.730321 
L 357.279697 230.447821 
L 361.177197 228.667821 
L 361.434697 228.667821 
z
M 370.849697 239.480321 
L 364.614697 239.480321 
L 364.614697 239.307821 
Q 367.482197 235.895321 368.094697 234.715321 
Q 368.709697 233.535321 368.709697 232.410321 
Q 368.709697 231.590321 368.202197 231.047821 
Q 367.694697 230.502821 366.959697 230.502821 
Q 365.757197 230.502821 365.092197 231.707821 
L 364.802197 231.605321 
Q 365.224697 230.105321 366.084697 229.387821 
Q 366.944697 228.667821 368.069697 228.667821 
Q 368.872197 228.667821 369.537197 229.042821 
Q 370.202197 229.417821 370.577197 230.070321 
Q 370.952197 230.722821 370.952197 231.292821 
Q 370.952197 232.332821 370.372197 233.402821 
Q 369.584697 234.847821 366.927197 237.432821 
L 369.217197 237.432821 
Q 370.059697 237.432821 370.314697 237.362821 
Q 370.569697 237.292821 370.732197 237.125321 
Q 370.897197 236.957821 371.162197 236.417821 
L 371.444697 236.417821 
L 370.849697 239.480321 
z
M 374.224697 237.072821 
Q 374.772197 237.072821 375.149697 237.457821 
Q 375.529697 237.840321 375.529697 238.377821 
Q 375.529697 238.917821 375.147197 239.297821 
Q 374.764697 239.675321 374.224697 239.675321 
Q 373.684697 239.675321 373.304697 239.297821 
Q 372.927197 238.917821 372.927197 238.377821 
Q 372.927197 237.840321 373.304697 237.457821 
Q 373.684697 237.072821 374.224697 237.072821 
z
M 383.739697 228.667821 
L 383.739697 228.885321 
Q 382.327197 229.245321 381.469697 229.812821 
Q 380.614697 230.377821 380.117197 231.187821 
Q 379.622197 231.995321 379.349697 233.190321 
Q 379.694697 232.957821 379.919697 232.885321 
Q 380.427197 232.730321 380.944697 232.730321 
Q 382.132197 232.730321 382.924697 233.595321 
Q 383.717197 234.457821 383.717197 235.947821 
Q 383.717197 236.995321 383.287197 237.870321 
Q 382.857197 238.745321 382.067197 239.222821 
Q 381.279697 239.700321 380.382197 239.700321 
Q 379.404697 239.700321 378.574697 239.165321 
Q 377.747197 238.627821 377.282197 237.597821 
Q 376.819697 236.565321 376.819697 235.355321 
Q 376.819697 233.572821 377.674697 232.037821 
Q 378.529697 230.502821 380.102197 229.592821 
Q 381.677197 228.682821 383.739697 228.667821 
z
M 379.247197 233.822821 
Q 379.184697 234.902821 379.184697 235.402821 
Q 379.184697 236.480321 379.392197 237.487821 
Q 379.599697 238.495321 379.959697 238.902821 
Q 380.217197 239.190321 380.569697 239.190321 
Q 380.927197 239.190321 381.207197 238.772821 
Q 381.489697 238.355321 381.489697 237.072821 
Q 381.489697 234.917821 380.967197 234.097821 
Q 380.632197 233.565321 380.059697 233.565321 
Q 379.747197 233.565321 379.247197 233.822821 
z
"/>
   </g>
   <g id="text_27">
    <path d="M 361.434697 116.115116 
L 361.434697 124.780116 
Q 361.434697 125.755116 361.519697 126.025116 
Q 361.607197 126.295116 361.879697 126.467616 
Q 362.154697 126.637616 362.757197 126.637616 
L 362.997197 126.637616 
L 362.997197 126.927616 
L 357.419697 126.927616 
L 357.419697 126.637616 
L 357.702197 126.637616 
Q 358.382197 126.637616 358.669697 126.482616 
Q 358.959697 126.325116 359.059697 126.052616 
Q 359.162197 125.780116 359.162197 124.780116 
L 359.162197 119.287616 
Q 359.162197 118.552616 359.092197 118.370116 
Q 359.022197 118.185116 358.829697 118.057616 
Q 358.639697 117.927616 358.389697 117.927616 
Q 357.989697 117.927616 357.419697 118.177616 
L 357.279697 117.895116 
L 361.177197 116.115116 
L 361.434697 116.115116 
z
M 367.059697 127.147616 
L 369.944697 118.405116 
L 367.747197 118.405116 
Q 366.459697 118.405116 365.809697 118.740116 
Q 365.357197 118.975116 365.059697 119.622616 
L 364.764697 119.622616 
L 365.529697 116.332616 
L 371.842197 116.332616 
L 368.287197 127.147616 
L 367.059697 127.147616 
z
M 374.224697 124.520116 
Q 374.772197 124.520116 375.149697 124.905116 
Q 375.529697 125.287616 375.529697 125.825116 
Q 375.529697 126.365116 375.147197 126.745116 
Q 374.764697 127.122616 374.224697 127.122616 
Q 373.684697 127.122616 373.304697 126.745116 
Q 372.927197 126.365116 372.927197 125.825116 
Q 372.927197 125.287616 373.304697 124.905116 
Q 373.684697 124.520116 374.224697 124.520116 
z
M 383.739697 116.115116 
L 383.739697 116.332616 
Q 382.327197 116.692616 381.469697 117.260116 
Q 380.614697 117.825116 380.117197 118.635116 
Q 379.622197 119.442616 379.349697 120.637616 
Q 379.694697 120.405116 379.919697 120.332616 
Q 380.427197 120.177616 380.944697 120.177616 
Q 382.132197 120.177616 382.924697 121.042616 
Q 383.717197 121.905116 383.717197 123.395116 
Q 383.717197 124.442616 383.287197 125.317616 
Q 382.857197 126.192616 382.067197 126.670116 
Q 381.279697 127.147616 380.382197 127.147616 
Q 379.404697 127.147616 378.574697 126.612616 
Q 377.747197 126.075116 377.282197 125.045116 
Q 376.819697 124.012616 376.819697 122.802616 
Q 376.819697 121.020116 377.674697 119.485116 
Q 378.529697 117.950116 380.102197 117.040116 
Q 381.677197 116.130116 383.739697 116.115116 
z
M 379.247197 121.270116 
Q 379.184697 122.350116 379.184697 122.850116 
Q 379.184697 123.927616 379.392197 124.935116 
Q 379.599697 125.942616 379.959697 126.350116 
Q 380.217197 126.637616 380.569697 126.637616 
Q 380.927197 126.637616 381.207197 126.220116 
Q 381.489697 125.802616 381.489697 124.520116 
Q 381.489697 122.365116 380.967197 121.545116 
Q 380.632197 121.012616 380.059697 121.012616 
Q 379.747197 121.012616 379.247197 121.270116 
z
" style="stroke: #ffffff; stroke-width: 3.8"/>
    <path d="M 361.434697 116.115116 
L 361.434697 124.780116 
Q 361.434697 125.755116 361.519697 126.025116 
Q 361.607197 126.295116 361.879697 126.467616 
Q 362.154697 126.637616 362.757197 126.637616 
L 362.997197 126.637616 
L 362.997197 126.927616 
L 357.419697 126.927616 
L 357.419697 126.637616 
L 357.702197 126.637616 
Q 358.382197 126.637616 358.669697 126.482616 
Q 358.959697 126.325116 359.059697 126.052616 
Q 359.162197 125.780116 359.162197 124.780116 
L 359.162197 119.287616 
Q 359.162197 118.552616 359.092197 118.370116 
Q 359.022197 118.185116 358.829697 118.057616 
Q 358.639697 117.927616 358.389697 117.927616 
Q 357.989697 117.927616 357.419697 118.177616 
L 357.279697 117.895116 
L 361.177197 116.115116 
L 361.434697 116.115116 
z
M 367.059697 127.147616 
L 369.944697 118.405116 
L 367.747197 118.405116 
Q 366.459697 118.405116 365.809697 118.740116 
Q 365.357197 118.975116 365.059697 119.622616 
L 364.764697 119.622616 
L 365.529697 116.332616 
L 371.842197 116.332616 
L 368.287197 127.147616 
L 367.059697 127.147616 
z
M 374.224697 124.520116 
Q 374.772197 124.520116 375.149697 124.905116 
Q 375.529697 125.287616 375.529697 125.825116 
Q 375.529697 126.365116 375.147197 126.745116 
Q 374.764697 127.122616 374.224697 127.122616 
Q 373.684697 127.122616 373.304697 126.745116 
Q 372.927197 126.365116 372.927197 125.825116 
Q 372.927197 125.287616 373.304697 124.905116 
Q 373.684697 124.520116 374.224697 124.520116 
z
M 383.739697 116.115116 
L 383.739697 116.332616 
Q 382.327197 116.692616 381.469697 117.260116 
Q 380.614697 117.825116 380.117197 118.635116 
Q 379.622197 119.442616 379.349697 120.637616 
Q 379.694697 120.405116 379.919697 120.332616 
Q 380.427197 120.177616 380.944697 120.177616 
Q 382.132197 120.177616 382.924697 121.042616 
Q 383.717197 121.905116 383.717197 123.395116 
Q 383.717197 124.442616 383.287197 125.317616 
Q 382.857197 126.192616 382.067197 126.670116 
Q 381.279697 127.147616 380.382197 127.147616 
Q 379.404697 127.147616 378.574697 126.612616 
Q 377.747197 126.075116 377.282197 125.045116 
Q 376.819697 124.012616 376.819697 122.802616 
Q 376.819697 121.020116 377.674697 119.485116 
Q 378.529697 117.950116 380.102197 117.040116 
Q 381.677197 116.130116 383.739697 116.115116 
z
M 379.247197 121.270116 
Q 379.184697 122.350116 379.184697 122.850116 
Q 379.184697 123.927616 379.392197 124.935116 
Q 379.599697 125.942616 379.959697 126.350116 
Q 380.217197 126.637616 380.569697 126.637616 
Q 380.927197 126.637616 381.207197 126.220116 
Q 381.489697 125.802616 381.489697 124.520116 
Q 381.489697 122.365116 380.967197 121.545116 
Q 380.632197 121.012616 380.059697 121.012616 
Q 379.747197 121.012616 379.247197 121.270116 
z
"/>
   </g>
   <g id="text_28">
    <path d="M 578.988672 296.223265 
L 581.873672 287.480765 
L 579.676172 287.480765 
Q 578.388672 287.480765 577.738672 287.815765 
Q 577.286172 288.050765 576.988672 288.698265 
L 576.693672 288.698265 
L 577.458672 285.408265 
L 583.771172 285.408265 
L 580.216172 296.223265 
L 578.988672 296.223265 
z
M 586.153672 293.595765 
Q 586.701172 293.595765 587.078672 293.980765 
Q 587.458672 294.363265 587.458672 294.900765 
Q 587.458672 295.440765 587.076172 295.820765 
Q 586.693672 296.198265 586.153672 296.198265 
Q 585.613672 296.198265 585.233672 295.820765 
Q 584.856172 295.440765 584.856172 294.900765 
Q 584.856172 294.363265 585.233672 293.980765 
Q 585.613672 293.595765 586.153672 293.595765 
z
M 595.568672 290.705765 
Q 595.568672 292.293265 595.123672 293.668265 
Q 594.856172 294.510765 594.406172 295.050765 
Q 593.958672 295.588265 593.388672 295.905765 
Q 592.818672 296.223265 592.146172 296.223265 
Q 591.381172 296.223265 590.763672 295.833265 
Q 590.146172 295.440765 589.668672 294.713265 
Q 589.326172 294.183265 589.068672 293.300765 
Q 588.731172 292.105765 588.731172 290.830765 
Q 588.731172 289.105765 589.216172 287.658265 
Q 589.613672 286.463265 590.426172 285.828265 
Q 591.238672 285.190765 592.146172 285.190765 
Q 593.068672 285.190765 593.868672 285.820765 
Q 594.668672 286.448265 595.043672 287.510765 
Q 595.568672 288.970765 595.568672 290.705765 
z
M 593.161172 290.690765 
Q 593.161172 287.908265 593.131172 287.448265 
Q 593.051172 286.363265 592.756172 285.980765 
Q 592.561172 285.730765 592.123672 285.730765 
Q 591.786172 285.730765 591.591172 285.918265 
Q 591.301172 286.190765 591.198672 286.883265 
Q 591.098672 287.573265 591.098672 291.705765 
Q 591.098672 293.955765 591.256172 294.720765 
Q 591.373672 295.275765 591.591172 295.463265 
Q 591.811172 295.650765 592.168672 295.650765 
Q 592.561172 295.650765 592.756172 295.400765 
Q 593.083672 294.963265 593.131172 294.050765 
L 593.161172 290.690765 
z
" style="stroke: #ffffff; stroke-width: 3.8"/>
    <path d="M 578.988672 296.223265 
L 581.873672 287.480765 
L 579.676172 287.480765 
Q 578.388672 287.480765 577.738672 287.815765 
Q 577.286172 288.050765 576.988672 288.698265 
L 576.693672 288.698265 
L 577.458672 285.408265 
L 583.771172 285.408265 
L 580.216172 296.223265 
L 578.988672 296.223265 
z
M 586.153672 293.595765 
Q 586.701172 293.595765 587.078672 293.980765 
Q 587.458672 294.363265 587.458672 294.900765 
Q 587.458672 295.440765 587.076172 295.820765 
Q 586.693672 296.198265 586.153672 296.198265 
Q 585.613672 296.198265 585.233672 295.820765 
Q 584.856172 295.440765 584.856172 294.900765 
Q 584.856172 294.363265 585.233672 293.980765 
Q 585.613672 293.595765 586.153672 293.595765 
z
M 595.568672 290.705765 
Q 595.568672 292.293265 595.123672 293.668265 
Q 594.856172 294.510765 594.406172 295.050765 
Q 593.958672 295.588265 593.388672 295.905765 
Q 592.818672 296.223265 592.146172 296.223265 
Q 591.381172 296.223265 590.763672 295.833265 
Q 590.146172 295.440765 589.668672 294.713265 
Q 589.326172 294.183265 589.068672 293.300765 
Q 588.731172 292.105765 588.731172 290.830765 
Q 588.731172 289.105765 589.216172 287.658265 
Q 589.613672 286.463265 590.426172 285.828265 
Q 591.238672 285.190765 592.146172 285.190765 
Q 593.068672 285.190765 593.868672 285.820765 
Q 594.668672 286.448265 595.043672 287.510765 
Q 595.568672 288.970765 595.568672 290.705765 
z
M 593.161172 290.690765 
Q 593.161172 287.908265 593.131172 287.448265 
Q 593.051172 286.363265 592.756172 285.980765 
Q 592.561172 285.730765 592.123672 285.730765 
Q 591.786172 285.730765 591.591172 285.918265 
Q 591.301172 286.190765 591.198672 286.883265 
Q 591.098672 287.573265 591.098672 291.705765 
Q 591.098672 293.955765 591.256172 294.720765 
Q 591.373672 295.275765 591.591172 295.463265 
Q 591.811172 295.650765 592.168672 295.650765 
Q 592.561172 295.650765 592.756172 295.400765 
Q 593.083672 294.963265 593.131172 294.050765 
L 593.161172 290.690765 
z
"/>
   </g>
   <g id="text_29">
    <path d="M 566.443426 411.950678 
Q 566.443426 413.438959 566.026238 414.728022 
Q 565.775457 415.517866 565.353582 416.024116 
Q 564.934051 416.528022 564.399676 416.825678 
Q 563.865301 417.123334 563.234832 417.123334 
Q 562.517644 417.123334 561.938738 416.757709 
Q 561.359832 416.389741 560.912176 415.707709 
Q 560.591082 415.210834 560.349676 414.383491 
Q 560.033269 413.263178 560.033269 412.067866 
Q 560.033269 410.450678 560.487957 409.093647 
Q 560.860613 407.973334 561.622332 407.378022 
Q 562.384051 406.780366 563.234832 406.780366 
Q 564.099676 406.780366 564.849676 407.370991 
Q 565.599676 407.959272 565.951238 408.955366 
Q 566.443426 410.324116 566.443426 411.950678 
z
M 564.186394 411.936616 
Q 564.186394 409.328022 564.158269 408.896772 
Q 564.083269 407.879584 563.806707 407.520991 
Q 563.623894 407.286616 563.213738 407.286616 
Q 562.897332 407.286616 562.714519 407.462397 
Q 562.442644 407.717866 562.346551 408.367084 
Q 562.252801 409.013959 562.252801 412.888178 
Q 562.252801 414.997553 562.400457 415.714741 
Q 562.510613 416.235053 562.714519 416.410834 
Q 562.920769 416.586616 563.255926 416.586616 
Q 563.623894 416.586616 563.806707 416.352241 
Q 564.113738 415.942084 564.158269 415.086616 
L 564.186394 411.936616 
z
M 568.866863 414.660053 
Q 569.380144 414.660053 569.734051 415.020991 
Q 570.090301 415.379584 570.090301 415.883491 
Q 570.090301 416.389741 569.731707 416.745991 
Q 569.373113 417.099897 568.866863 417.099897 
Q 568.360613 417.099897 568.004363 416.745991 
Q 567.650457 416.389741 567.650457 415.883491 
Q 567.650457 415.379584 568.004363 415.020991 
Q 568.360613 414.660053 568.866863 414.660053 
z
M 571.114519 413.174116 
L 575.832488 406.780366 
L 576.725457 406.780366 
L 576.725457 413.174116 
L 577.634832 413.174116 
L 577.634832 414.690522 
L 576.725457 414.690522 
L 576.725457 416.917084 
L 574.712176 416.917084 
L 574.712176 414.690522 
L 571.114519 414.690522 
L 571.114519 413.174116 
z
M 571.827019 413.174116 
L 574.712176 413.174116 
L 574.712176 409.255366 
L 571.827019 413.174116 
z
" style="fill: #404040; stroke: #ffffff; stroke-width: 3.8"/>
    <path d="M 566.443426 411.950678 
Q 566.443426 413.438959 566.026238 414.728022 
Q 565.775457 415.517866 565.353582 416.024116 
Q 564.934051 416.528022 564.399676 416.825678 
Q 563.865301 417.123334 563.234832 417.123334 
Q 562.517644 417.123334 561.938738 416.757709 
Q 561.359832 416.389741 560.912176 415.707709 
Q 560.591082 415.210834 560.349676 414.383491 
Q 560.033269 413.263178 560.033269 412.067866 
Q 560.033269 410.450678 560.487957 409.093647 
Q 560.860613 407.973334 561.622332 407.378022 
Q 562.384051 406.780366 563.234832 406.780366 
Q 564.099676 406.780366 564.849676 407.370991 
Q 565.599676 407.959272 565.951238 408.955366 
Q 566.443426 410.324116 566.443426 411.950678 
z
M 564.186394 411.936616 
Q 564.186394 409.328022 564.158269 408.896772 
Q 564.083269 407.879584 563.806707 407.520991 
Q 563.623894 407.286616 563.213738 407.286616 
Q 562.897332 407.286616 562.714519 407.462397 
Q 562.442644 407.717866 562.346551 408.367084 
Q 562.252801 409.013959 562.252801 412.888178 
Q 562.252801 414.997553 562.400457 415.714741 
Q 562.510613 416.235053 562.714519 416.410834 
Q 562.920769 416.586616 563.255926 416.586616 
Q 563.623894 416.586616 563.806707 416.352241 
Q 564.113738 415.942084 564.158269 415.086616 
L 564.186394 411.936616 
z
M 568.866863 414.660053 
Q 569.380144 414.660053 569.734051 415.020991 
Q 570.090301 415.379584 570.090301 415.883491 
Q 570.090301 416.389741 569.731707 416.745991 
Q 569.373113 417.099897 568.866863 417.099897 
Q 568.360613 417.099897 568.004363 416.745991 
Q 567.650457 416.389741 567.650457 415.883491 
Q 567.650457 415.379584 568.004363 415.020991 
Q 568.360613 414.660053 568.866863 414.660053 
z
M 571.114519 413.174116 
L 575.832488 406.780366 
L 576.725457 406.780366 
L 576.725457 413.174116 
L 577.634832 413.174116 
L 577.634832 414.690522 
L 576.725457 414.690522 
L 576.725457 416.917084 
L 574.712176 416.917084 
L 574.712176 414.690522 
L 571.114519 414.690522 
L 571.114519 413.174116 
z
M 571.827019 413.174116 
L 574.712176 413.174116 
L 574.712176 409.255366 
L 571.827019 413.174116 
z
" style="fill: #404040"/>
   </g>
   <g id="text_30">
    <path d="M 571.612549 374.512188 
Q 572.660205 375.280938 573.065674 375.944219 
Q 573.473486 376.607501 573.473486 377.465313 
Q 573.473486 378.665313 572.568799 379.497344 
Q 571.664111 380.329376 570.112549 380.329376 
Q 568.640674 380.329376 567.834424 379.605157 
Q 567.028174 378.878594 567.028174 377.830938 
Q 567.028174 377.031719 567.492236 376.431719 
Q 567.958643 375.831719 569.041455 375.332501 
Q 567.862549 374.432501 567.529736 373.860626 
Q 567.196924 373.288751 567.196924 372.534063 
Q 567.196924 371.537969 568.043018 370.780938 
Q 568.889111 370.023907 570.360986 370.023907 
Q 571.781299 370.023907 572.545361 370.694219 
Q 573.311768 371.362188 573.311768 372.299688 
Q 573.311768 373.002813 572.896924 373.541876 
Q 572.484424 374.080938 571.612549 374.512188 
z
M 571.05708 374.139532 
Q 571.326611 373.773907 571.457861 373.319219 
Q 571.591455 372.864532 571.591455 372.323126 
Q 571.591455 371.371563 571.181299 370.865313 
Q 570.874268 370.476251 570.330518 370.476251 
Q 569.840674 370.476251 569.496143 370.832501 
Q 569.151611 371.186407 569.151611 371.713751 
Q 569.151611 372.250469 569.535986 372.824688 
Q 569.920361 373.398907 571.05708 374.139532 
z
M 569.592236 375.684063 
Q 569.364893 375.890313 569.268799 376.059063 
Q 569.123486 376.314532 569.006299 376.806719 
Q 568.889111 377.296563 568.889111 377.830938 
Q 568.889111 378.520001 569.064893 378.984063 
Q 569.240674 379.448126 569.566455 379.654376 
Q 569.892236 379.858282 570.236768 379.858282 
Q 570.771143 379.858282 571.136768 379.466876 
Q 571.502393 379.075469 571.502393 378.393438 
Q 571.502393 376.973126 569.592236 375.684063 
z
M 575.87583 377.866094 
Q 576.389111 377.866094 576.743018 378.227032 
Q 577.099268 378.585626 577.099268 379.089532 
Q 577.099268 379.595782 576.740674 379.952032 
Q 576.38208 380.305938 575.87583 380.305938 
Q 575.36958 380.305938 575.01333 379.952032 
Q 574.659424 379.595782 574.659424 379.089532 
Q 574.659424 378.585626 575.01333 378.227032 
Q 575.36958 377.866094 575.87583 377.866094 
z
M 584.796143 369.986407 
L 584.796143 370.190313 
Q 583.471924 370.527813 582.668018 371.059844 
Q 581.866455 371.589532 581.400049 372.348907 
Q 580.935986 373.105938 580.680518 374.226251 
Q 581.003955 374.008282 581.214893 373.940313 
Q 581.690674 373.795001 582.17583 373.795001 
Q 583.289111 373.795001 584.03208 374.605938 
Q 584.775049 375.414532 584.775049 376.811407 
Q 584.775049 377.793438 584.371924 378.613751 
Q 583.968799 379.434063 583.228174 379.881719 
Q 582.489893 380.329376 581.648486 380.329376 
Q 580.73208 380.329376 579.953955 379.827813 
Q 579.178174 379.323907 578.742236 378.358282 
Q 578.308643 377.390313 578.308643 376.255938 
Q 578.308643 374.584844 579.110205 373.145782 
Q 579.911768 371.706719 581.385986 370.853594 
Q 582.862549 370.000469 584.796143 369.986407 
z
M 580.584424 374.819219 
Q 580.52583 375.831719 580.52583 376.300469 
Q 580.52583 377.310626 580.720361 378.255157 
Q 580.914893 379.199688 581.252393 379.581719 
Q 581.493799 379.851251 581.824268 379.851251 
Q 582.159424 379.851251 582.421924 379.459844 
Q 582.686768 379.068438 582.686768 377.866094 
Q 582.686768 375.845782 582.196924 375.077032 
Q 581.882861 374.577813 581.346143 374.577813 
Q 581.053174 374.577813 580.584424 374.819219 
z
" style="fill: #404040; stroke: #ffffff; stroke-width: 3.8"/>
    <path d="M 571.612549 374.512188 
Q 572.660205 375.280938 573.065674 375.944219 
Q 573.473486 376.607501 573.473486 377.465313 
Q 573.473486 378.665313 572.568799 379.497344 
Q 571.664111 380.329376 570.112549 380.329376 
Q 568.640674 380.329376 567.834424 379.605157 
Q 567.028174 378.878594 567.028174 377.830938 
Q 567.028174 377.031719 567.492236 376.431719 
Q 567.958643 375.831719 569.041455 375.332501 
Q 567.862549 374.432501 567.529736 373.860626 
Q 567.196924 373.288751 567.196924 372.534063 
Q 567.196924 371.537969 568.043018 370.780938 
Q 568.889111 370.023907 570.360986 370.023907 
Q 571.781299 370.023907 572.545361 370.694219 
Q 573.311768 371.362188 573.311768 372.299688 
Q 573.311768 373.002813 572.896924 373.541876 
Q 572.484424 374.080938 571.612549 374.512188 
z
M 571.05708 374.139532 
Q 571.326611 373.773907 571.457861 373.319219 
Q 571.591455 372.864532 571.591455 372.323126 
Q 571.591455 371.371563 571.181299 370.865313 
Q 570.874268 370.476251 570.330518 370.476251 
Q 569.840674 370.476251 569.496143 370.832501 
Q 569.151611 371.186407 569.151611 371.713751 
Q 569.151611 372.250469 569.535986 372.824688 
Q 569.920361 373.398907 571.05708 374.139532 
z
M 569.592236 375.684063 
Q 569.364893 375.890313 569.268799 376.059063 
Q 569.123486 376.314532 569.006299 376.806719 
Q 568.889111 377.296563 568.889111 377.830938 
Q 568.889111 378.520001 569.064893 378.984063 
Q 569.240674 379.448126 569.566455 379.654376 
Q 569.892236 379.858282 570.236768 379.858282 
Q 570.771143 379.858282 571.136768 379.466876 
Q 571.502393 379.075469 571.502393 378.393438 
Q 571.502393 376.973126 569.592236 375.684063 
z
M 575.87583 377.866094 
Q 576.389111 377.866094 576.743018 378.227032 
Q 577.099268 378.585626 577.099268 379.089532 
Q 577.099268 379.595782 576.740674 379.952032 
Q 576.38208 380.305938 575.87583 380.305938 
Q 575.36958 380.305938 575.01333 379.952032 
Q 574.659424 379.595782 574.659424 379.089532 
Q 574.659424 378.585626 575.01333 378.227032 
Q 575.36958 377.866094 575.87583 377.866094 
z
M 584.796143 369.986407 
L 584.796143 370.190313 
Q 583.471924 370.527813 582.668018 371.059844 
Q 581.866455 371.589532 581.400049 372.348907 
Q 580.935986 373.105938 580.680518 374.226251 
Q 581.003955 374.008282 581.214893 373.940313 
Q 581.690674 373.795001 582.17583 373.795001 
Q 583.289111 373.795001 584.03208 374.605938 
Q 584.775049 375.414532 584.775049 376.811407 
Q 584.775049 377.793438 584.371924 378.613751 
Q 583.968799 379.434063 583.228174 379.881719 
Q 582.489893 380.329376 581.648486 380.329376 
Q 580.73208 380.329376 579.953955 379.827813 
Q 579.178174 379.323907 578.742236 378.358282 
Q 578.308643 377.390313 578.308643 376.255938 
Q 578.308643 374.584844 579.110205 373.145782 
Q 579.911768 371.706719 581.385986 370.853594 
Q 582.862549 370.000469 584.796143 369.986407 
z
M 580.584424 374.819219 
Q 580.52583 375.831719 580.52583 376.300469 
Q 580.52583 377.310626 580.720361 378.255157 
Q 580.914893 379.199688 581.252393 379.581719 
Q 581.493799 379.851251 581.824268 379.851251 
Q 582.159424 379.851251 582.421924 379.459844 
Q 582.686768 379.068438 582.686768 377.866094 
Q 582.686768 375.845782 582.196924 375.077032 
Q 581.882861 374.577813 581.346143 374.577813 
Q 581.053174 374.577813 580.584424 374.819219 
z
" style="fill: #404040"/>
   </g>
   <g id="text_31">
    <path d="M 532.389225 346.520046 
L 537.039225 346.520046 
L 536.300943 348.411452 
L 532.389225 348.411452 
L 532.016568 349.400515 
Q 534.543131 349.494265 535.90485 350.659109 
Q 537.025162 351.617702 537.025162 353.04739 
Q 537.025162 353.961452 536.50485 354.838015 
Q 535.984537 355.712234 535.040006 356.185671 
Q 534.095475 356.659109 532.968131 356.659109 
Q 531.751725 356.659109 531.100162 356.204421 
Q 530.645475 355.880984 530.645475 355.470827 
Q 530.645475 355.156765 530.882193 354.915359 
Q 531.121256 354.673952 531.437662 354.673952 
Q 531.7236 354.673952 532.016568 354.79114 
Q 532.309537 354.908327 533.019693 355.405202 
Q 533.465006 355.712234 533.788443 355.829421 
Q 534.015787 355.918484 534.301725 355.918484 
Q 534.901725 355.918484 535.321256 355.480202 
Q 535.743131 355.039577 535.743131 354.423171 
Q 535.743131 353.134109 534.454068 352.330202 
Q 533.165006 351.523952 531.203287 351.523952 
Q 531.004068 351.523952 530.610318 351.530984 
L 532.389225 346.520046 
z
M 539.479068 354.195827 
Q 539.99235 354.195827 540.346256 354.556765 
Q 540.702506 354.915359 540.702506 355.419265 
Q 540.702506 355.925515 540.343912 356.281765 
Q 539.985318 356.635671 539.479068 356.635671 
Q 538.972818 356.635671 538.616568 356.281765 
Q 538.262662 355.925515 538.262662 355.419265 
Q 538.262662 354.915359 538.616568 354.556765 
Q 538.972818 354.195827 539.479068 354.195827 
z
M 548.399381 346.31614 
L 548.399381 346.520046 
Q 547.075162 346.857546 546.271256 347.389577 
Q 545.469693 347.919265 545.003287 348.67864 
Q 544.539225 349.435671 544.283756 350.555984 
Q 544.607193 350.338015 544.818131 350.270046 
Q 545.293912 350.124734 545.779068 350.124734 
Q 546.89235 350.124734 547.635318 350.935671 
Q 548.378287 351.744265 548.378287 353.14114 
Q 548.378287 354.123171 547.975162 354.943484 
Q 547.572037 355.763796 546.831412 356.211452 
Q 546.093131 356.659109 545.251725 356.659109 
Q 544.335318 356.659109 543.557193 356.157546 
Q 542.781412 355.65364 542.345475 354.688015 
Q 541.911881 353.720046 541.911881 352.585671 
Q 541.911881 350.914577 542.713443 349.475515 
Q 543.515006 348.036452 544.989225 347.183327 
Q 546.465787 346.330202 548.399381 346.31614 
z
M 544.187662 351.148952 
Q 544.129068 352.161452 544.129068 352.630202 
Q 544.129068 353.640359 544.3236 354.58489 
Q 544.518131 355.529421 544.855631 355.911452 
Q 545.097037 356.180984 545.427506 356.180984 
Q 545.762662 356.180984 546.025162 355.789577 
Q 546.290006 355.398171 546.290006 354.195827 
Q 546.290006 352.175515 545.800162 351.406765 
Q 545.4861 350.907546 544.949381 350.907546 
Q 544.656412 350.907546 544.187662 351.148952 
z
" style="fill: #404040; stroke: #ffffff; stroke-width: 3.8"/>
    <path d="M 532.389225 346.520046 
L 537.039225 346.520046 
L 536.300943 348.411452 
L 532.389225 348.411452 
L 532.016568 349.400515 
Q 534.543131 349.494265 535.90485 350.659109 
Q 537.025162 351.617702 537.025162 353.04739 
Q 537.025162 353.961452 536.50485 354.838015 
Q 535.984537 355.712234 535.040006 356.185671 
Q 534.095475 356.659109 532.968131 356.659109 
Q 531.751725 356.659109 531.100162 356.204421 
Q 530.645475 355.880984 530.645475 355.470827 
Q 530.645475 355.156765 530.882193 354.915359 
Q 531.121256 354.673952 531.437662 354.673952 
Q 531.7236 354.673952 532.016568 354.79114 
Q 532.309537 354.908327 533.019693 355.405202 
Q 533.465006 355.712234 533.788443 355.829421 
Q 534.015787 355.918484 534.301725 355.918484 
Q 534.901725 355.918484 535.321256 355.480202 
Q 535.743131 355.039577 535.743131 354.423171 
Q 535.743131 353.134109 534.454068 352.330202 
Q 533.165006 351.523952 531.203287 351.523952 
Q 531.004068 351.523952 530.610318 351.530984 
L 532.389225 346.520046 
z
M 539.479068 354.195827 
Q 539.99235 354.195827 540.346256 354.556765 
Q 540.702506 354.915359 540.702506 355.419265 
Q 540.702506 355.925515 540.343912 356.281765 
Q 539.985318 356.635671 539.479068 356.635671 
Q 538.972818 356.635671 538.616568 356.281765 
Q 538.262662 355.925515 538.262662 355.419265 
Q 538.262662 354.915359 538.616568 354.556765 
Q 538.972818 354.195827 539.479068 354.195827 
z
M 548.399381 346.31614 
L 548.399381 346.520046 
Q 547.075162 346.857546 546.271256 347.389577 
Q 545.469693 347.919265 545.003287 348.67864 
Q 544.539225 349.435671 544.283756 350.555984 
Q 544.607193 350.338015 544.818131 350.270046 
Q 545.293912 350.124734 545.779068 350.124734 
Q 546.89235 350.124734 547.635318 350.935671 
Q 548.378287 351.744265 548.378287 353.14114 
Q 548.378287 354.123171 547.975162 354.943484 
Q 547.572037 355.763796 546.831412 356.211452 
Q 546.093131 356.659109 545.251725 356.659109 
Q 544.335318 356.659109 543.557193 356.157546 
Q 542.781412 355.65364 542.345475 354.688015 
Q 541.911881 353.720046 541.911881 352.585671 
Q 541.911881 350.914577 542.713443 349.475515 
Q 543.515006 348.036452 544.989225 347.183327 
Q 546.465787 346.330202 548.399381 346.31614 
z
M 544.187662 351.148952 
Q 544.129068 352.161452 544.129068 352.630202 
Q 544.129068 353.640359 544.3236 354.58489 
Q 544.518131 355.529421 544.855631 355.911452 
Q 545.097037 356.180984 545.427506 356.180984 
Q 545.762662 356.180984 546.025162 355.789577 
Q 546.290006 355.398171 546.290006 354.195827 
Q 546.290006 352.175515 545.800162 351.406765 
Q 545.4861 350.907546 544.949381 350.907546 
Q 544.656412 350.907546 544.187662 351.148952 
z
" style="fill: #404040"/>
   </g>
   <g id="text_32">
    <path d="M 323.783148 392.399829 
L 323.783148 392.193579 
Q 324.999554 391.914673 325.845648 391.373267 
Q 326.691742 390.83186 327.183929 390.032642 
Q 327.678461 389.233423 327.877679 388.195142 
Q 327.422992 388.429517 327.104242 388.520923 
Q 326.785492 388.612329 326.433929 388.612329 
Q 325.306586 388.612329 324.554242 387.799048 
Q 323.804242 386.985767 323.804242 385.572485 
Q 323.804242 384.590454 324.209711 383.774829 
Q 324.617523 382.95686 325.372211 382.50686 
Q 326.126898 382.05686 326.940179 382.05686 
Q 327.812054 382.05686 328.587836 382.556079 
Q 329.363617 383.052954 329.825336 383.997485 
Q 330.287054 384.942017 330.287054 386.151392 
Q 330.287054 387.71936 329.534711 389.156079 
Q 328.784711 390.590454 327.298773 391.457642 
Q 325.812836 392.324829 323.783148 392.399829 
z
M 327.987836 387.578735 
Q 328.060492 386.758423 328.060492 386.137329 
Q 328.060492 384.803735 327.753461 383.652954 
Q 327.577679 383.015454 327.233148 382.715454 
Q 327.050336 382.553735 326.757367 382.553735 
Q 326.389398 382.553735 326.185492 382.870142 
Q 325.899554 383.301392 325.899554 384.517798 
Q 325.899554 386.547485 326.382367 387.316235 
Q 326.698773 387.81311 327.233148 387.81311 
Q 327.519086 387.81311 327.987836 387.578735 
z
M 332.696429 389.936548 
Q 333.209711 389.936548 333.563617 390.297485 
Q 333.919867 390.656079 333.919867 391.159985 
Q 333.919867 391.666235 333.561273 392.022485 
Q 333.202679 392.376392 332.696429 392.376392 
Q 332.190179 392.376392 331.833929 392.022485 
Q 331.480023 391.666235 331.480023 391.159985 
Q 331.480023 390.656079 331.833929 390.297485 
Q 332.190179 389.936548 332.696429 389.936548 
z
M 340.782367 392.193579 
L 334.937054 392.193579 
L 334.937054 392.03186 
Q 337.625336 388.832642 338.199554 387.726392 
Q 338.776117 386.620142 338.776117 385.565454 
Q 338.776117 384.796704 338.300336 384.28811 
Q 337.824554 383.777173 337.135492 383.777173 
Q 336.008148 383.777173 335.384711 384.90686 
L 335.112836 384.810767 
Q 335.508929 383.404517 336.315179 382.73186 
Q 337.121429 382.05686 338.176117 382.05686 
Q 338.928461 382.05686 339.551898 382.408423 
Q 340.175336 382.759985 340.526898 383.371704 
Q 340.878461 383.983423 340.878461 384.517798 
Q 340.878461 385.492798 340.334711 386.495923 
Q 339.596429 387.85061 337.105023 390.274048 
L 339.251898 390.274048 
Q 340.041742 390.274048 340.280804 390.208423 
Q 340.519867 390.142798 340.672211 389.985767 
Q 340.826898 389.828735 341.075336 389.322485 
L 341.340179 389.322485 
L 340.782367 392.193579 
z
" style="fill: #404040; stroke: #ffffff; stroke-width: 3.8"/>
    <path d="M 323.783148 392.399829 
L 323.783148 392.193579 
Q 324.999554 391.914673 325.845648 391.373267 
Q 326.691742 390.83186 327.183929 390.032642 
Q 327.678461 389.233423 327.877679 388.195142 
Q 327.422992 388.429517 327.104242 388.520923 
Q 326.785492 388.612329 326.433929 388.612329 
Q 325.306586 388.612329 324.554242 387.799048 
Q 323.804242 386.985767 323.804242 385.572485 
Q 323.804242 384.590454 324.209711 383.774829 
Q 324.617523 382.95686 325.372211 382.50686 
Q 326.126898 382.05686 326.940179 382.05686 
Q 327.812054 382.05686 328.587836 382.556079 
Q 329.363617 383.052954 329.825336 383.997485 
Q 330.287054 384.942017 330.287054 386.151392 
Q 330.287054 387.71936 329.534711 389.156079 
Q 328.784711 390.590454 327.298773 391.457642 
Q 325.812836 392.324829 323.783148 392.399829 
z
M 327.987836 387.578735 
Q 328.060492 386.758423 328.060492 386.137329 
Q 328.060492 384.803735 327.753461 383.652954 
Q 327.577679 383.015454 327.233148 382.715454 
Q 327.050336 382.553735 326.757367 382.553735 
Q 326.389398 382.553735 326.185492 382.870142 
Q 325.899554 383.301392 325.899554 384.517798 
Q 325.899554 386.547485 326.382367 387.316235 
Q 326.698773 387.81311 327.233148 387.81311 
Q 327.519086 387.81311 327.987836 387.578735 
z
M 332.696429 389.936548 
Q 333.209711 389.936548 333.563617 390.297485 
Q 333.919867 390.656079 333.919867 391.159985 
Q 333.919867 391.666235 333.561273 392.022485 
Q 333.202679 392.376392 332.696429 392.376392 
Q 332.190179 392.376392 331.833929 392.022485 
Q 331.480023 391.666235 331.480023 391.159985 
Q 331.480023 390.656079 331.833929 390.297485 
Q 332.190179 389.936548 332.696429 389.936548 
z
M 340.782367 392.193579 
L 334.937054 392.193579 
L 334.937054 392.03186 
Q 337.625336 388.832642 338.199554 387.726392 
Q 338.776117 386.620142 338.776117 385.565454 
Q 338.776117 384.796704 338.300336 384.28811 
Q 337.824554 383.777173 337.135492 383.777173 
Q 336.008148 383.777173 335.384711 384.90686 
L 335.112836 384.810767 
Q 335.508929 383.404517 336.315179 382.73186 
Q 337.121429 382.05686 338.176117 382.05686 
Q 338.928461 382.05686 339.551898 382.408423 
Q 340.175336 382.759985 340.526898 383.371704 
Q 340.878461 383.983423 340.878461 384.517798 
Q 340.878461 385.492798 340.334711 386.495923 
Q 339.596429 387.85061 337.105023 390.274048 
L 339.251898 390.274048 
Q 340.041742 390.274048 340.280804 390.208423 
Q 340.519867 390.142798 340.672211 389.985767 
Q 340.826898 389.828735 341.075336 389.322485 
L 341.340179 389.322485 
L 340.782367 392.193579 
z
" style="fill: #404040"/>
   </g>
  </g>
 </g>
 <defs>
  <clipPath id="pe06b2fde4e">
   <rect x="7.2" y="51.034687" width="730.764" height="430.773578"/>
  </clipPath>
 </defs>
</svg>
