<?xml version="1.0" encoding="utf-8" standalone="no"?>
<!DOCTYPE svg PUBLIC "-//W3C//DTD SVG 1.1//EN"
  "http://www.w3.org/Graphics/SVG/1.1/DTD/svg11.dtd">
<svg xmlns:xlink="http://www.w3.org/1999/xlink" width="745.164pt" height="495.887081pt" viewBox="0 0 745.164 495.887081" xmlns="http://www.w3.org/2000/svg" version="1.1">
 <metadata>
  <rdf:RDF xmlns:dc="http://purl.org/dc/elements/1.1/" xmlns:cc="http://creativecommons.org/ns#" xmlns:rdf="http://www.w3.org/1999/02/22-rdf-syntax-ns#">
   <cc:Work>
    <dc:type rdf:resource="http://purl.org/dc/dcmitype/StillImage"/>
    <dc:date>2026-07-13T16:58:14.329501</dc:date>
    <dc:format>image/svg+xml</dc:format>
    <dc:creator>
     <cc:Agent>
      <dc:title>Matplotlib v3.10.8, https://matplotlib.org/</dc:title>
     </cc:Agent>
    </dc:creator>
   </cc:Work>
  </rdf:RDF>
 </metadata>
 <defs>
  <style type="text/css">*{stroke-linejoin: round; stroke-linecap: butt}</style>
 </defs>
 <g id="figure_1">
  <g id="patch_1">
   <path d="M 0 495.887081 
L 745.164 495.887081 
L 745.164 0 
L 0 0 
L 0 495.887081 
z
" style="fill: none"/>
  </g>
  <g id="axes_1">
   <g id="patch_2">
    <path d="M 120.350555 448.378676 
Q 120.350555 463.49534 120.350555 475.937686 
" clip-path="url(#p530a9784d2)" style="fill: none; stroke: #111111; stroke-width: 2.391982; stroke-linejoin: miter; stroke-linecap: round"/>
    <path d="M 124.059989 468.518817 
L 120.350555 475.937686 
L 116.641121 468.518817 
z
" clip-path="url(#p530a9784d2)" style="fill: #111111; stroke: #111111; stroke-width: 2.391982; stroke-linejoin: miter; stroke-linecap: round"/>
   </g>
   <g id="patch_3">
    <path d="M 120.350555 372.835076 
Q 120.350555 391.119422 120.350555 405.041881 
" clip-path="url(#p530a9784d2)" style="fill: none; stroke: #111111; stroke-width: 3.901391; stroke-linejoin: miter; stroke-linecap: round"/>
    <path d="M 124.543 396.65699 
L 120.350555 405.041881 
L 116.15811 396.65699 
z
" clip-path="url(#p530a9784d2)" style="fill: #111111; stroke: #111111; stroke-width: 3.901391; stroke-linejoin: miter; stroke-linecap: round"/>
   </g>
   <g id="patch_4">
    <path d="M 120.350555 288.479535 
Q 120.350555 308.002169 120.350555 321.040206 
" clip-path="url(#p530a9784d2)" style="fill: none; stroke: #111111; stroke-width: 5.8; stroke-linejoin: miter; stroke-linecap: round"/>
    <path d="M 125.150555 311.440206 
L 120.350555 321.040206 
L 115.550555 311.440206 
z
" clip-path="url(#p530a9784d2)" style="fill: #111111; stroke: #111111; stroke-width: 5.8; stroke-linejoin: miter; stroke-linecap: round"/>
   </g>
   <g id="patch_5">
    <path d="M 370.224697 308.772687 
Q 370.224697 319.320212 370.224697 325.432153 
" clip-path="url(#p530a9784d2)" style="fill: none; stroke: #111111; stroke-width: 3.967307; stroke-linejoin: miter; stroke-linecap: round"/>
    <path d="M 374.438235 317.005076 
L 370.224697 325.432153 
L 366.011159 317.005076 
z
" clip-path="url(#p530a9784d2)" style="fill: #111111; stroke: #111111; stroke-width: 3.967307; stroke-linejoin: miter; stroke-linecap: round"/>
   </g>
   <g id="patch_6">
    <path d="M 370.224697 244.29094 
Q 370.224697 261.613499 370.224697 273.275236 
" clip-path="url(#p530a9784d2)" style="fill: none; stroke: #111111; stroke-width: 5.063192; stroke-linejoin: miter; stroke-linecap: round"/>
    <path d="M 374.788918 264.146793 
L 370.224697 273.275236 
L 365.660475 264.146793 
z
" clip-path="url(#p530a9784d2)" style="fill: #111111; stroke: #111111; stroke-width: 5.063192; stroke-linejoin: miter; stroke-linecap: round"/>
   </g>
   <g id="patch_7">
    <path d="M 370.224697 152.471562 
Q 370.224697 176.687902 370.224697 195.26367 
" clip-path="url(#p530a9784d2)" style="fill: none; stroke: #111111; stroke-width: 5.045081; stroke-linejoin: miter; stroke-linecap: round"/>
    <path d="M 374.783123 186.146818 
L 370.224697 195.26367 
L 365.666271 186.146818 
z
" clip-path="url(#p530a9784d2)" style="fill: #111111; stroke: #111111; stroke-width: 5.045081; stroke-linejoin: miter; stroke-linecap: round"/>
   </g>
   <g id="patch_8">
    <path d="M 586.153672 305.769479 
Q 586.153672 323.208648 586.153672 336.051113 
" clip-path="url(#p530a9784d2)" style="fill: none; stroke: #111111; stroke-width: 4.111416; stroke-linejoin: miter; stroke-linecap: round"/>
    <path d="M 590.413325 327.531807 
L 586.153672 336.051113 
L 581.894019 327.531807 
z
" clip-path="url(#p530a9784d2)" style="fill: #111111; stroke: #111111; stroke-width: 4.111416; stroke-linejoin: miter; stroke-linecap: round"/>
   </g>
   <g id="line2d_1">
    <path d="M 165.610777 478.612003 
L 550.322663 478.612003 
" clip-path="url(#p530a9784d2)" style="fill: none; stroke-dasharray: 5.6,4.2; stroke-dashoffset: 0; stroke: #404040; stroke-width: 1.4"/>
   </g>
   <g id="line2d_2">
    <path d="M 165.610777 409.403769 
L 550.322663 409.403769 
" clip-path="url(#p530a9784d2)" style="fill: none; stroke-dasharray: 5.6,4.2; stroke-dashoffset: 0; stroke: #404040; stroke-width: 1.4"/>
   </g>
   <g id="line2d_3">
    <path d="M 574.838617 340.647816 
L 503.176599 340.647816 
" clip-path="url(#p530a9784d2)" style="fill: none; stroke-dasharray: 5.6,4.2; stroke-dashoffset: 0; stroke: #404040; stroke-width: 1.4"/>
   </g>
   <g id="patch_9">
    <path d="M 665.359061 340.647816 
Q 578.990319 407.788941 493.340667 474.371062 
" clip-path="url(#p530a9784d2)" style="fill: none; stroke: #404040; stroke-width: 0.814654; stroke-linejoin: miter; stroke-linecap: round"/>
    <path d="M 499.49109 473.142573 
L 493.340667 474.371062 
L 496.048129 468.71363 
z
" clip-path="url(#p530a9784d2)" style="fill: #404040; stroke: #404040; stroke-width: 0.814654; stroke-linejoin: miter; stroke-linecap: round"/>
   </g>
   <g id="patch_10">
    <path d="M 620.098839 340.647816 
Q 578.244342 373.184565 539.069176 403.638461 
" clip-path="url(#p530a9784d2)" style="fill: none; stroke: #404040; stroke-width: 3.035403; stroke-linejoin: miter; stroke-linecap: round"/>
    <path d="M 546.842784 402.085755 
L 539.069176 403.638461 
L 542.491176 396.487951 
z
" clip-path="url(#p530a9784d2)" style="fill: #404040; stroke: #404040; stroke-width: 3.035403; stroke-linejoin: miter; stroke-linecap: round"/>
   </g>
   <g id="patch_11">
    <path d="M 415.484919 329.867737 
Q 477.124733 335.008573 537.594286 340.051807 
" clip-path="url(#p530a9784d2)" style="fill: none; stroke: #404040; stroke-width: 1.050347; stroke-linejoin: miter; stroke-linecap: round"/>
    <path d="M 532.086991 336.699032 
L 537.594286 340.051807 
L 531.607689 342.445978 
z
" clip-path="url(#p530a9784d2)" style="fill: #404040; stroke: #404040; stroke-width: 1.050347; stroke-linejoin: miter; stroke-linecap: round"/>
   </g>
   <g id="patch_12">
    <path d="M 370.224697 329.867737 
Q 334.754483 367.454871 301.717524 402.46353 
" clip-path="url(#p530a9784d2)" style="fill: none; stroke: #404040; stroke-width: 3.171028; stroke-linejoin: miter; stroke-linecap: round"/>
    <path d="M 309.257063 399.705242 
L 301.717524 402.46353 
L 304.034617 394.776926 
z
" clip-path="url(#p530a9784d2)" style="fill: #404040; stroke: #404040; stroke-width: 3.171028; stroke-linejoin: miter; stroke-linecap: round"/>
   </g>
   <g id="line2d_4">
    <path d="M 120.350555 409.403769 
L 120.350555 439.637095 
" clip-path="url(#p530a9784d2)" style="fill: none; stroke: #111111; stroke-width: 2.391982"/>
   </g>
   <g id="line2d_5">
    <path d="M 120.350555 327.524803 
L 120.350555 364.093495 
" clip-path="url(#p530a9784d2)" style="fill: none; stroke: #111111; stroke-width: 3.901391"/>
   </g>
   <g id="line2d_6">
    <path d="M 120.350555 240.692687 
L 120.350555 279.737955 
" clip-path="url(#p530a9784d2)" style="fill: none; stroke: #111111; stroke-width: 5.8"/>
   </g>
   <g id="line2d_7">
    <path d="M 370.224697 278.936057 
L 370.224697 300.031107 
" clip-path="url(#p530a9784d2)" style="fill: none; stroke: #111111; stroke-width: 3.967307"/>
   </g>
   <g id="line2d_8">
    <path d="M 370.224697 200.904242 
L 370.224697 235.549359 
" clip-path="url(#p530a9784d2)" style="fill: none; stroke: #111111; stroke-width: 5.063192"/>
   </g>
   <g id="line2d_9">
    <path d="M 370.224697 95.297301 
L 370.224697 143.729981 
" clip-path="url(#p530a9784d2)" style="fill: none; stroke: #111111; stroke-width: 5.045081"/>
   </g>
   <g id="line2d_10">
    <path d="M 586.153672 262.149562 
L 586.153672 297.027899 
" clip-path="url(#p530a9784d2)" style="fill: none; stroke: #111111; stroke-width: 4.111416"/>
   </g>
   <g id="line2d_11">
    <path d="M 75.090333 478.612003 
L 165.610777 478.612003 
" clip-path="url(#p530a9784d2)" style="fill: none; stroke: #111111; stroke-width: 3.6; stroke-linecap: round"/>
   </g>
   <g id="line2d_12">
    <path d="M 75.090333 409.403769 
L 165.610777 409.403769 
" clip-path="url(#p530a9784d2)" style="fill: none; stroke: #111111; stroke-width: 3.6; stroke-linecap: round"/>
   </g>
   <g id="line2d_13">
    <path d="M 75.090333 327.524803 
L 165.610777 327.524803 
" clip-path="url(#p530a9784d2)" style="fill: none; stroke: #111111; stroke-width: 3.6; stroke-linecap: round"/>
   </g>
   <g id="line2d_14">
    <path d="M 75.090333 240.692687 
L 165.610777 240.692687 
" clip-path="url(#p530a9784d2)" style="fill: none; stroke: #111111; stroke-width: 3.6; stroke-linecap: round"/>
   </g>
   <g id="line2d_15">
    <path d="M 324.964475 329.867737 
L 415.484919 329.867737 
" clip-path="url(#p530a9784d2)" style="fill: none; stroke: #111111; stroke-width: 3.6; stroke-linecap: round"/>
   </g>
   <g id="line2d_16">
    <path d="M 324.964475 278.936057 
L 415.484919 278.936057 
" clip-path="url(#p530a9784d2)" style="fill: none; stroke: #111111; stroke-width: 3.6; stroke-linecap: round"/>
   </g>
   <g id="line2d_17">
    <path d="M 324.964475 200.904242 
L 415.484919 200.904242 
" clip-path="url(#p530a9784d2)" style="fill: none; stroke: #111111; stroke-width: 3.6; stroke-linecap: round"/>
   </g>
   <g id="line2d_18">
    <path d="M 324.964475 95.297301 
L 415.484919 95.297301 
" clip-path="url(#p530a9784d2)" style="fill: none; stroke: #111111; stroke-width: 3.6; stroke-linecap: round"/>
   </g>
   <g id="line2d_19">
    <path d="M 574.838617 340.647816 
L 665.359061 340.647816 
" clip-path="url(#p530a9784d2)" style="fill: none; stroke: #111111; stroke-width: 3.6; stroke-linecap: round"/>
   </g>
   <g id="line2d_20">
    <path d="M 574.838617 262.149562 
L 665.359061 262.149562 
" clip-path="url(#p530a9784d2)" style="fill: none; stroke: #111111; stroke-width: 3.6; stroke-linecap: round"/>
   </g>
   <g id="text_1">
    <!-- $^{148}\mathrm{Cd}$ -->
    <g transform="translate(326.512 33.034687) scale(0.34 -0.34)">
     <defs>
      <path id="DejaVuSans-31" d="M 794 531 
L 1825 531 
L 1825 4091 
L 703 3866 
L 703 4441 
L 1819 4666 
L 2450 4666 
L 2450 531 
L 3481 531 
L 3481 0 
L 794 0 
L 794 531 
z
" transform="scale(0.015625)"/>
      <path id="DejaVuSans-34" d="M 2419 4116 
L 825 1625 
L 2419 1625 
L 2419 4116 
z
M 2253 4666 
L 3047 4666 
L 3047 1625 
L 3713 1625 
L 3713 1100 
L 3047 1100 
L 3047 0 
L 2419 0 
L 2419 1100 
L 313 1100 
L 313 1709 
L 2253 4666 
z
" transform="scale(0.015625)"/>
      <path id="DejaVuSans-38" d="M 2034 2216 
Q 1584 2216 1326 1975 
Q 1069 1734 1069 1313 
Q 1069 891 1326 650 
Q 1584 409 2034 409 
Q 2484 409 2743 651 
Q 3003 894 3003 1313 
Q 3003 1734 2745 1975 
Q 2488 2216 2034 2216 
z
M 1403 2484 
Q 997 2584 770 2862 
Q 544 3141 544 3541 
Q 544 4100 942 4425 
Q 1341 4750 2034 4750 
Q 2731 4750 3128 4425 
Q 3525 4100 3525 3541 
Q 3525 3141 3298 2862 
Q 3072 2584 2669 2484 
Q 3125 2378 3379 2068 
Q 3634 1759 3634 1313 
Q 3634 634 3220 271 
Q 2806 -91 2034 -91 
Q 1263 -91 848 271 
Q 434 634 434 1313 
Q 434 1759 690 2068 
Q 947 2378 1403 2484 
z
M 1172 3481 
Q 1172 3119 1398 2916 
Q 1625 2713 2034 2713 
Q 2441 2713 2670 2916 
Q 2900 3119 2900 3481 
Q 2900 3844 2670 4047 
Q 2441 4250 2034 4250 
Q 1625 4250 1398 4047 
Q 1172 3844 1172 3481 
z
" transform="scale(0.015625)"/>
      <path id="DejaVuSans-43" d="M 4122 4306 
L 4122 3641 
Q 3803 3938 3442 4084 
Q 3081 4231 2675 4231 
Q 1875 4231 1450 3742 
Q 1025 3253 1025 2328 
Q 1025 1406 1450 917 
Q 1875 428 2675 428 
Q 3081 428 3442 575 
Q 3803 722 4122 1019 
L 4122 359 
Q 3791 134 3420 21 
Q 3050 -91 2638 -91 
Q 1578 -91 968 557 
Q 359 1206 359 2328 
Q 359 3453 968 4101 
Q 1578 4750 2638 4750 
Q 3056 4750 3426 4639 
Q 3797 4528 4122 4306 
z
" transform="scale(0.015625)"/>
      <path id="DejaVuSans-64" d="M 2906 2969 
L 2906 4863 
L 3481 4863 
L 3481 0 
L 2906 0 
L 2906 525 
Q 2725 213 2448 61 
Q 2172 -91 1784 -91 
Q 1150 -91 751 415 
Q 353 922 353 1747 
Q 353 2572 751 3078 
Q 1150 3584 1784 3584 
Q 2172 3584 2448 3432 
Q 2725 3281 2906 2969 
z
M 947 1747 
Q 947 1113 1208 752 
Q 1469 391 1925 391 
Q 2381 391 2643 752 
Q 2906 1113 2906 1747 
Q 2906 2381 2643 2742 
Q 2381 3103 1925 3103 
Q 1469 3103 1208 2742 
Q 947 2381 947 1747 
z
" transform="scale(0.015625)"/>
     </defs>
     <use xlink:href="#DejaVuSans-31" transform="translate(0.957031 39.046875) scale(0.7)"/>
     <use xlink:href="#DejaVuSans-34" transform="translate(45.493164 39.046875) scale(0.7)"/>
     <use xlink:href="#DejaVuSans-38" transform="translate(90.029297 39.046875) scale(0.7)"/>
     <use xlink:href="#DejaVuSans-43" transform="translate(137.299805 0.765625)"/>
     <use xlink:href="#DejaVuSans-64" transform="translate(207.124023 0.765625)"/>
    </g>
   </g>
   <g id="text_2">
    <!-- 0 -->
    <g transform="translate(46.98525 483.027003) scale(0.16 -0.16)">
     <defs>
      <path id="DejaVuSans-BoldOblique-30" d="M 1913 728 
Q 2153 728 2339 872 
Q 2525 1016 2650 1294 
Q 2738 1491 2809 1742 
Q 2881 1994 2944 2338 
Q 2997 2616 3025 2850 
Q 3053 3084 3053 3250 
Q 3053 3600 2928 3764 
Q 2803 3928 2541 3928 
Q 2297 3928 2112 3789 
Q 1928 3650 1806 3366 
Q 1713 3163 1636 2903 
Q 1559 2644 1503 2338 
Q 1450 2056 1422 1815 
Q 1394 1575 1394 1409 
Q 1394 1063 1522 895 
Q 1650 728 1913 728 
z
M 4225 3072 
Q 4225 2450 4053 1862 
Q 3881 1275 3572 831 
Q 3256 375 2809 142 
Q 2363 -91 1813 -91 
Q 1047 -91 639 343 
Q 231 778 231 1594 
Q 231 2206 401 2795 
Q 572 3384 878 3822 
Q 1200 4281 1644 4515 
Q 2088 4750 2644 4750 
Q 3403 4750 3814 4314 
Q 4225 3878 4225 3072 
z
" transform="scale(0.015625)"/>
     </defs>
     <use xlink:href="#DejaVuSans-BoldOblique-30"/>
    </g>
   </g>
   <g id="text_3">
    <!-- 0⁺ -->
    <g transform="translate(182.58336 483.767237) scale(0.23 -0.23)">
     <defs>
      <path id="TimesNewRomanPS-BoldMT-30" d="M 2966 2119 
Q 2966 1484 2788 934 
Q 2681 597 2501 381 
Q 2322 166 2094 39 
Q 1866 -88 1597 -88 
Q 1291 -88 1044 68 
Q 797 225 606 516 
Q 469 728 366 1081 
Q 231 1559 231 2069 
Q 231 2759 425 3338 
Q 584 3816 909 4070 
Q 1234 4325 1597 4325 
Q 1966 4325 2286 4073 
Q 2606 3822 2756 3397 
Q 2966 2813 2966 2119 
z
M 2003 2125 
Q 2003 3238 1991 3422 
Q 1959 3856 1841 4009 
Q 1763 4109 1588 4109 
Q 1453 4109 1375 4034 
Q 1259 3925 1218 3648 
Q 1178 3372 1178 1719 
Q 1178 819 1241 513 
Q 1288 291 1375 216 
Q 1463 141 1606 141 
Q 1763 141 1841 241 
Q 1972 416 1991 781 
L 2003 2125 
z
" transform="scale(0.015625)"/>
      <path id="DejaVuSerif-Bold-207a" d="M 1916 4344 
L 1916 3441 
L 2950 3441 
L 2950 3044 
L 1916 3044 
L 1916 2141 
L 1463 2141 
L 1463 3044 
L 428 3044 
L 428 3441 
L 1463 3441 
L 1463 4344 
L 1916 4344 
z
" transform="scale(0.015625)"/>
     </defs>
     <use xlink:href="#TimesNewRomanPS-BoldMT-30"/>
     <use xlink:href="#DejaVuSerif-Bold-207a" transform="translate(50 0)"/>
    </g>
   </g>
   <g id="text_4">
    <!-- 728 -->
    <g transform="translate(24.72025 413.818769) scale(0.16 -0.16)">
     <defs>
      <path id="DejaVuSans-BoldOblique-37" d="M 922 4666 
L 4441 4666 
L 4300 3981 
L 1703 0 
L 500 0 
L 2969 3781 
L 756 3781 
L 922 4666 
z
" transform="scale(0.015625)"/>
      <path id="DejaVuSans-BoldOblique-32" d="M 1581 884 
L 3609 884 
L 3438 0 
L 50 0 
L 225 891 
L 2209 2388 
Q 2534 2638 2704 2894 
Q 2875 3150 2875 3391 
Q 2875 3647 2700 3787 
Q 2525 3928 2209 3928 
Q 1913 3928 1547 3811 
Q 1181 3694 722 3450 
L 922 4441 
Q 1347 4597 1756 4673 
Q 2166 4750 2566 4750 
Q 3278 4750 3687 4442 
Q 4097 4134 4097 3603 
Q 4097 3147 3847 2772 
Q 3597 2397 2747 1759 
L 1581 884 
z
" transform="scale(0.015625)"/>
      <path id="DejaVuSans-BoldOblique-38" d="M 2150 2088 
Q 1784 2088 1539 1839 
Q 1294 1591 1294 1228 
Q 1294 969 1453 817 
Q 1613 666 1888 666 
Q 2259 666 2503 911 
Q 2747 1156 2747 1522 
Q 2747 1781 2586 1934 
Q 2425 2088 2150 2088 
z
M 1381 2484 
Q 1044 2625 876 2850 
Q 709 3075 709 3391 
Q 709 4025 1229 4387 
Q 1750 4750 2669 4750 
Q 3406 4750 3812 4475 
Q 4219 4200 4219 3700 
Q 4219 3256 3936 2940 
Q 3653 2625 3128 2484 
Q 3509 2338 3690 2091 
Q 3872 1844 3872 1466 
Q 3872 747 3311 328 
Q 2750 -91 1772 -91 
Q 1000 -91 570 217 
Q 141 525 141 1075 
Q 141 1572 470 1945 
Q 800 2319 1381 2484 
z
M 2559 3994 
Q 2241 3994 2048 3808 
Q 1856 3622 1856 3316 
Q 1856 3103 1995 2972 
Q 2134 2841 2363 2841 
Q 2681 2841 2873 3027 
Q 3066 3213 3066 3519 
Q 3066 3734 2927 3864 
Q 2788 3994 2559 3994 
z
" transform="scale(0.015625)"/>
     </defs>
     <use xlink:href="#DejaVuSans-BoldOblique-37"/>
     <use xlink:href="#DejaVuSans-BoldOblique-32" transform="translate(69.580078 0)"/>
     <use xlink:href="#DejaVuSans-BoldOblique-38" transform="translate(139.160156 0)"/>
    </g>
   </g>
   <g id="text_5">
    <!-- 2⁺ -->
    <g transform="translate(182.58336 414.559003) scale(0.23 -0.23)">
     <defs>
      <path id="TimesNewRomanPS-BoldMT-32" d="M 2650 0 
L 156 0 
L 156 69 
Q 1303 1434 1548 1906 
Q 1794 2378 1794 2828 
Q 1794 3156 1591 3373 
Q 1388 3591 1094 3591 
Q 613 3591 347 3109 
L 231 3150 
Q 400 3750 744 4037 
Q 1088 4325 1538 4325 
Q 1859 4325 2125 4175 
Q 2391 4025 2541 3764 
Q 2691 3503 2691 3275 
Q 2691 2859 2459 2431 
Q 2144 1853 1081 819 
L 1997 819 
Q 2334 819 2436 847 
Q 2538 875 2603 942 
Q 2669 1009 2775 1225 
L 2888 1225 
L 2650 0 
z
" transform="scale(0.015625)"/>
     </defs>
     <use xlink:href="#TimesNewRomanPS-BoldMT-32"/>
     <use xlink:href="#DejaVuSerif-Bold-207a" transform="translate(50 0)"/>
    </g>
   </g>
   <g id="text_6">
    <!-- 1590 -->
    <g transform="translate(13.58775 331.939803) scale(0.16 -0.16)">
     <defs>
      <path id="DejaVuSans-BoldOblique-31" d="M 441 831 
L 1503 831 
L 2088 3847 
L 953 3622 
L 1113 4441 
L 2241 4666 
L 3384 4666 
L 2644 831 
L 3700 831 
L 3541 0 
L 275 0 
L 441 831 
z
" transform="scale(0.015625)"/>
      <path id="DejaVuSans-BoldOblique-35" d="M 1131 4666 
L 4122 4666 
L 3950 3781 
L 1919 3781 
L 1778 3059 
Q 1916 3097 2064 3117 
Q 2213 3138 2363 3138 
Q 3078 3138 3481 2811 
Q 3884 2484 3884 1906 
Q 3884 988 3262 448 
Q 2641 -91 1575 -91 
Q 1184 -91 815 -14 
Q 447 63 84 219 
L 269 1166 
Q 616 941 942 834 
Q 1269 728 1606 728 
Q 2100 728 2397 986 
Q 2694 1244 2694 1663 
Q 2694 1963 2469 2139 
Q 2244 2316 1856 2316 
Q 1594 2316 1289 2248 
Q 984 2181 622 2041 
L 1131 4666 
z
" transform="scale(0.015625)"/>
      <path id="DejaVuSans-BoldOblique-39" d="M 263 103 
L 428 966 
Q 700 825 953 758 
Q 1206 691 1459 691 
Q 2041 691 2400 1003 
Q 2759 1316 2834 1881 
Q 2594 1722 2337 1645 
Q 2081 1569 1791 1569 
Q 1219 1569 853 1909 
Q 488 2250 488 2778 
Q 488 3641 1052 4192 
Q 1616 4744 2503 4744 
Q 3300 4744 3736 4292 
Q 4172 3841 4172 3016 
Q 4172 2381 3978 1801 
Q 3784 1222 3431 800 
Q 3056 353 2548 128 
Q 2041 -97 1403 -97 
Q 1106 -97 825 -47 
Q 544 3 263 103 
z
M 2169 2344 
Q 2525 2344 2753 2637 
Q 2981 2931 2981 3391 
Q 2981 3675 2845 3828 
Q 2709 3981 2456 3981 
Q 2103 3981 1870 3690 
Q 1638 3400 1638 2963 
Q 1638 2663 1775 2503 
Q 1913 2344 2169 2344 
z
" transform="scale(0.015625)"/>
     </defs>
     <use xlink:href="#DejaVuSans-BoldOblique-31"/>
     <use xlink:href="#DejaVuSans-BoldOblique-35" transform="translate(69.580078 0)"/>
     <use xlink:href="#DejaVuSans-BoldOblique-39" transform="translate(139.160156 0)"/>
     <use xlink:href="#DejaVuSans-BoldOblique-30" transform="translate(208.740234 0)"/>
    </g>
   </g>
   <g id="text_7">
    <!-- 4⁺ -->
    <g transform="translate(182.58336 332.680037) scale(0.23 -0.23)">
     <defs>
      <path id="TimesNewRomanPS-BoldMT-34" d="M 159 1597 
L 2172 4325 
L 2553 4325 
L 2553 1597 
L 2941 1597 
L 2941 950 
L 2553 950 
L 2553 0 
L 1694 0 
L 1694 950 
L 159 950 
L 159 1597 
z
M 463 1597 
L 1694 1597 
L 1694 3269 
L 463 1597 
z
" transform="scale(0.015625)"/>
     </defs>
     <use xlink:href="#TimesNewRomanPS-BoldMT-34"/>
     <use xlink:href="#DejaVuSerif-Bold-207a" transform="translate(50 0)"/>
    </g>
   </g>
   <g id="text_8">
    <!-- 2504 -->
    <g transform="translate(13.58775 245.107687) scale(0.16 -0.16)">
     <defs>
      <path id="DejaVuSans-BoldOblique-34" d="M 2638 3641 
L 978 1722 
L 2259 1722 
L 2638 3641 
z
M 2606 4666 
L 3975 4666 
L 3397 1722 
L 4063 1722 
L 3897 850 
L 3231 850 
L 3066 0 
L 1925 0 
L 2094 850 
L -6 850 
L 197 1881 
L 2606 4666 
z
" transform="scale(0.015625)"/>
     </defs>
     <use xlink:href="#DejaVuSans-BoldOblique-32"/>
     <use xlink:href="#DejaVuSans-BoldOblique-35" transform="translate(69.580078 0)"/>
     <use xlink:href="#DejaVuSans-BoldOblique-30" transform="translate(139.160156 0)"/>
     <use xlink:href="#DejaVuSans-BoldOblique-34" transform="translate(208.740234 0)"/>
    </g>
   </g>
   <g id="text_9">
    <!-- 6⁺ -->
    <g transform="translate(182.58336 245.847921) scale(0.23 -0.23)">
     <defs>
      <path id="TimesNewRomanPS-BoldMT-36" d="M 3006 4325 
L 3006 4238 
Q 2441 4094 2098 3867 
Q 1756 3641 1557 3317 
Q 1359 2994 1250 2516 
Q 1388 2609 1478 2638 
Q 1681 2700 1888 2700 
Q 2363 2700 2680 2354 
Q 2997 2009 2997 1413 
Q 2997 994 2825 644 
Q 2653 294 2337 103 
Q 2022 -88 1663 -88 
Q 1272 -88 940 126 
Q 609 341 423 753 
Q 238 1166 238 1650 
Q 238 2363 580 2977 
Q 922 3591 1551 3955 
Q 2181 4319 3006 4325 
z
M 1209 2263 
Q 1184 1831 1184 1631 
Q 1184 1200 1267 797 
Q 1350 394 1494 231 
Q 1597 116 1738 116 
Q 1881 116 1993 283 
Q 2106 450 2106 963 
Q 2106 1825 1897 2153 
Q 1763 2366 1534 2366 
Q 1409 2366 1209 2263 
z
" transform="scale(0.015625)"/>
     </defs>
     <use xlink:href="#TimesNewRomanPS-BoldMT-36"/>
     <use xlink:href="#DejaVuSerif-Bold-207a" transform="translate(50 0)"/>
    </g>
   </g>
   <g id="text_10">
    <!-- 1565 -->
    <g transform="translate(263.461892 334.282737) scale(0.16 -0.16)">
     <defs>
      <path id="DejaVuSans-BoldOblique-36" d="M 2316 2303 
Q 1959 2303 1731 2009 
Q 1503 1716 1503 1253 
Q 1503 975 1643 820 
Q 1784 666 2034 666 
Q 2388 666 2617 955 
Q 2847 1244 2847 1684 
Q 2847 1984 2709 2143 
Q 2572 2303 2316 2303 
z
M 4225 4544 
L 4056 3681 
Q 3788 3819 3534 3887 
Q 3281 3956 3028 3956 
Q 2447 3956 2087 3643 
Q 1728 3331 1650 2766 
Q 1894 2925 2151 3001 
Q 2409 3078 2700 3078 
Q 3275 3078 3640 2737 
Q 4006 2397 4006 1869 
Q 4006 1006 3442 454 
Q 2878 -97 1991 -97 
Q 1194 -97 756 354 
Q 319 806 319 1631 
Q 319 2269 512 2848 
Q 706 3428 1056 3847 
Q 1431 4294 1942 4519 
Q 2453 4744 3091 4744 
Q 3384 4744 3662 4694 
Q 3941 4644 4225 4544 
z
" transform="scale(0.015625)"/>
     </defs>
     <use xlink:href="#DejaVuSans-BoldOblique-31"/>
     <use xlink:href="#DejaVuSans-BoldOblique-35" transform="translate(69.580078 0)"/>
     <use xlink:href="#DejaVuSans-BoldOblique-36" transform="translate(139.160156 0)"/>
     <use xlink:href="#DejaVuSans-BoldOblique-35" transform="translate(208.740234 0)"/>
    </g>
   </g>
   <g id="text_11">
    <!-- 0⁺ -->
    <g transform="translate(432.457502 335.022971) scale(0.23 -0.23)">
     <use xlink:href="#TimesNewRomanPS-BoldMT-30"/>
     <use xlink:href="#DejaVuSerif-Bold-207a" transform="translate(50 0)"/>
    </g>
   </g>
   <g id="text_12">
    <!-- 2101 -->
    <g transform="translate(263.461892 283.351057) scale(0.16 -0.16)">
     <use xlink:href="#DejaVuSans-BoldOblique-32"/>
     <use xlink:href="#DejaVuSans-BoldOblique-31" transform="translate(69.580078 0)"/>
     <use xlink:href="#DejaVuSans-BoldOblique-30" transform="translate(139.160156 0)"/>
     <use xlink:href="#DejaVuSans-BoldOblique-31" transform="translate(208.740234 0)"/>
    </g>
   </g>
   <g id="text_13">
    <!-- 2⁺ -->
    <g transform="translate(432.457502 284.091291) scale(0.23 -0.23)">
     <use xlink:href="#TimesNewRomanPS-BoldMT-32"/>
     <use xlink:href="#DejaVuSerif-Bold-207a" transform="translate(50 0)"/>
    </g>
   </g>
   <g id="text_14">
    <!-- 2923 -->
    <g transform="translate(263.461892 205.319242) scale(0.16 -0.16)">
     <defs>
      <path id="DejaVuSans-BoldOblique-33" d="M 3022 2516 
Q 3375 2434 3572 2187 
Q 3769 1941 3769 1581 
Q 3769 806 3155 357 
Q 2541 -91 1466 -91 
Q 1059 -91 692 -33 
Q 325 25 0 141 
L 178 1069 
Q 456 906 784 817 
Q 1113 728 1441 728 
Q 1969 728 2276 926 
Q 2584 1125 2584 1459 
Q 2584 1738 2350 1877 
Q 2116 2016 1644 2016 
L 1166 2016 
L 1319 2791 
L 1825 2791 
Q 2316 2791 2602 2969 
Q 2888 3147 2888 3450 
Q 2888 3688 2689 3813 
Q 2491 3938 2113 3938 
Q 1847 3938 1534 3869 
Q 1222 3800 884 3669 
L 1056 4550 
Q 1425 4650 1783 4700 
Q 2141 4750 2491 4750 
Q 3281 4750 3679 4487 
Q 4078 4225 4078 3706 
Q 4078 3241 3801 2930 
Q 3525 2619 3022 2516 
z
" transform="scale(0.015625)"/>
     </defs>
     <use xlink:href="#DejaVuSans-BoldOblique-32"/>
     <use xlink:href="#DejaVuSans-BoldOblique-39" transform="translate(69.580078 0)"/>
     <use xlink:href="#DejaVuSans-BoldOblique-32" transform="translate(139.160156 0)"/>
     <use xlink:href="#DejaVuSans-BoldOblique-33" transform="translate(208.740234 0)"/>
    </g>
   </g>
   <g id="text_15">
    <!-- 4⁺ -->
    <g transform="translate(432.457502 206.059477) scale(0.23 -0.23)">
     <use xlink:href="#TimesNewRomanPS-BoldMT-34"/>
     <use xlink:href="#DejaVuSerif-Bold-207a" transform="translate(50 0)"/>
    </g>
   </g>
   <g id="text_16">
    <!-- 4034 -->
    <g transform="translate(263.461892 99.712301) scale(0.16 -0.16)">
     <use xlink:href="#DejaVuSans-BoldOblique-34"/>
     <use xlink:href="#DejaVuSans-BoldOblique-30" transform="translate(69.580078 0)"/>
     <use xlink:href="#DejaVuSans-BoldOblique-33" transform="translate(139.160156 0)"/>
     <use xlink:href="#DejaVuSans-BoldOblique-34" transform="translate(208.740234 0)"/>
    </g>
   </g>
   <g id="text_17">
    <!-- 6⁺ -->
    <g transform="translate(432.457502 100.452536) scale(0.23 -0.23)">
     <use xlink:href="#TimesNewRomanPS-BoldMT-36"/>
     <use xlink:href="#DejaVuSerif-Bold-207a" transform="translate(50 0)"/>
    </g>
   </g>
   <g id="text_18">
    <!-- 1452 -->
    <g transform="translate(513.336034 345.062816) scale(0.16 -0.16)">
     <use xlink:href="#DejaVuSans-BoldOblique-31"/>
     <use xlink:href="#DejaVuSans-BoldOblique-34" transform="translate(69.580078 0)"/>
     <use xlink:href="#DejaVuSans-BoldOblique-35" transform="translate(139.160156 0)"/>
     <use xlink:href="#DejaVuSans-BoldOblique-32" transform="translate(208.740234 0)"/>
    </g>
   </g>
   <g id="text_19">
    <!-- 2⁺ -->
    <g transform="translate(682.331644 345.80305) scale(0.23 -0.23)">
     <use xlink:href="#TimesNewRomanPS-BoldMT-32"/>
     <use xlink:href="#DejaVuSerif-Bold-207a" transform="translate(50 0)"/>
    </g>
   </g>
   <g id="text_20">
    <!-- 2278 -->
    <g transform="translate(513.336034 266.564562) scale(0.16 -0.16)">
     <use xlink:href="#DejaVuSans-BoldOblique-32"/>
     <use xlink:href="#DejaVuSans-BoldOblique-32" transform="translate(69.580078 0)"/>
     <use xlink:href="#DejaVuSans-BoldOblique-37" transform="translate(139.160156 0)"/>
     <use xlink:href="#DejaVuSans-BoldOblique-38" transform="translate(208.740234 0)"/>
    </g>
   </g>
   <g id="text_21">
    <!-- 3⁺ -->
    <g transform="translate(682.331644 267.304796) scale(0.23 -0.23)">
     <defs>
      <path id="TimesNewRomanPS-BoldMT-33" d="M 947 2125 
L 947 2234 
Q 1303 2338 1440 2427 
Q 1578 2516 1678 2698 
Q 1778 2881 1778 3069 
Q 1778 3328 1589 3514 
Q 1400 3700 1119 3700 
Q 681 3700 375 3238 
L 259 3278 
Q 484 3800 836 4062 
Q 1188 4325 1619 4325 
Q 2059 4325 2345 4056 
Q 2631 3788 2631 3428 
Q 2631 3194 2498 2976 
Q 2366 2759 2081 2594 
Q 2447 2416 2639 2155 
Q 2831 1894 2831 1500 
Q 2831 838 2351 373 
Q 1872 -91 1066 -91 
Q 528 -91 281 88 
Q 103 213 103 409 
Q 103 553 206 654 
Q 309 756 444 756 
Q 547 756 638 713 
Q 688 688 992 439 
Q 1297 191 1563 191 
Q 1794 191 1959 373 
Q 2125 556 2125 838 
Q 2125 1266 1825 1627 
Q 1525 1988 947 2125 
z
" transform="scale(0.015625)"/>
     </defs>
     <use xlink:href="#TimesNewRomanPS-BoldMT-33"/>
     <use xlink:href="#DejaVuSerif-Bold-207a" transform="translate(50 0)"/>
    </g>
   </g>
   <g id="text_22">
    <path d="M 112.975555 447.594136 
L 106.740555 447.594136 
L 106.740555 447.421636 
Q 109.608055 444.009136 110.220555 442.829136 
Q 110.835555 441.649136 110.835555 440.524136 
Q 110.835555 439.704136 110.328055 439.161636 
Q 109.820555 438.616636 109.085555 438.616636 
Q 107.883055 438.616636 107.218055 439.821636 
L 106.928055 439.719136 
Q 107.350555 438.219136 108.210555 437.501636 
Q 109.070555 436.781636 110.195555 436.781636 
Q 110.998055 436.781636 111.663055 437.156636 
Q 112.328055 437.531636 112.703055 438.184136 
Q 113.078055 438.836636 113.078055 439.406636 
Q 113.078055 440.446636 112.498055 441.516636 
Q 111.710555 442.961636 109.053055 445.546636 
L 111.343055 445.546636 
Q 112.185555 445.546636 112.440555 445.476636 
Q 112.695555 445.406636 112.858055 445.239136 
Q 113.023055 445.071636 113.288055 444.531636 
L 113.570555 444.531636 
L 112.975555 447.594136 
z
M 114.843055 447.814136 
L 114.843055 447.594136 
Q 116.140555 447.296636 117.043055 446.719136 
Q 117.945555 446.141636 118.470555 445.289136 
Q 118.998055 444.436636 119.210555 443.329136 
Q 118.725555 443.579136 118.385555 443.676636 
Q 118.045555 443.774136 117.670555 443.774136 
Q 116.468055 443.774136 115.665555 442.906636 
Q 114.865555 442.039136 114.865555 440.531636 
Q 114.865555 439.484136 115.298055 438.614136 
Q 115.733055 437.741636 116.538055 437.261636 
Q 117.343055 436.781636 118.210555 436.781636 
Q 119.140555 436.781636 119.968055 437.314136 
Q 120.795555 437.844136 121.288055 438.851636 
Q 121.780555 439.859136 121.780555 441.149136 
Q 121.780555 442.821636 120.978055 444.354136 
Q 120.178055 445.884136 118.593055 446.809136 
Q 117.008055 447.734136 114.843055 447.814136 
z
M 119.328055 442.671636 
Q 119.405555 441.796636 119.405555 441.134136 
Q 119.405555 439.711636 119.078055 438.484136 
Q 118.890555 437.804136 118.523055 437.484136 
Q 118.328055 437.311636 118.015555 437.311636 
Q 117.623055 437.311636 117.405555 437.649136 
Q 117.100555 438.109136 117.100555 439.406636 
Q 117.100555 441.571636 117.615555 442.391636 
Q 117.953055 442.921636 118.523055 442.921636 
Q 118.828055 442.921636 119.328055 442.671636 
z
M 124.350555 445.186636 
Q 124.898055 445.186636 125.275555 445.571636 
Q 125.655555 445.954136 125.655555 446.491636 
Q 125.655555 447.031636 125.273055 447.411636 
Q 124.890555 447.789136 124.350555 447.789136 
Q 123.810555 447.789136 123.430555 447.411636 
Q 123.053055 447.031636 123.053055 446.491636 
Q 123.053055 445.954136 123.430555 445.571636 
Q 123.810555 445.186636 124.350555 445.186636 
z
M 129.185555 447.814136 
L 132.070555 439.071636 
L 129.873055 439.071636 
Q 128.585555 439.071636 127.935555 439.406636 
Q 127.483055 439.641636 127.185555 440.289136 
L 126.890555 440.289136 
L 127.655555 436.999136 
L 133.968055 436.999136 
L 130.413055 447.814136 
L 129.185555 447.814136 
z
" style="stroke: #ffffff; stroke-width: 3.8"/>
    <path d="M 112.975555 447.594136 
L 106.740555 447.594136 
L 106.740555 447.421636 
Q 109.608055 444.009136 110.220555 442.829136 
Q 110.835555 441.649136 110.835555 440.524136 
Q 110.835555 439.704136 110.328055 439.161636 
Q 109.820555 438.616636 109.085555 438.616636 
Q 107.883055 438.616636 107.218055 439.821636 
L 106.928055 439.719136 
Q 107.350555 438.219136 108.210555 437.501636 
Q 109.070555 436.781636 110.195555 436.781636 
Q 110.998055 436.781636 111.663055 437.156636 
Q 112.328055 437.531636 112.703055 438.184136 
Q 113.078055 438.836636 113.078055 439.406636 
Q 113.078055 440.446636 112.498055 441.516636 
Q 111.710555 442.961636 109.053055 445.546636 
L 111.343055 445.546636 
Q 112.185555 445.546636 112.440555 445.476636 
Q 112.695555 445.406636 112.858055 445.239136 
Q 113.023055 445.071636 113.288055 444.531636 
L 113.570555 444.531636 
L 112.975555 447.594136 
z
M 114.843055 447.814136 
L 114.843055 447.594136 
Q 116.140555 447.296636 117.043055 446.719136 
Q 117.945555 446.141636 118.470555 445.289136 
Q 118.998055 444.436636 119.210555 443.329136 
Q 118.725555 443.579136 118.385555 443.676636 
Q 118.045555 443.774136 117.670555 443.774136 
Q 116.468055 443.774136 115.665555 442.906636 
Q 114.865555 442.039136 114.865555 440.531636 
Q 114.865555 439.484136 115.298055 438.614136 
Q 115.733055 437.741636 116.538055 437.261636 
Q 117.343055 436.781636 118.210555 436.781636 
Q 119.140555 436.781636 119.968055 437.314136 
Q 120.795555 437.844136 121.288055 438.851636 
Q 121.780555 439.859136 121.780555 441.149136 
Q 121.780555 442.821636 120.978055 444.354136 
Q 120.178055 445.884136 118.593055 446.809136 
Q 117.008055 447.734136 114.843055 447.814136 
z
M 119.328055 442.671636 
Q 119.405555 441.796636 119.405555 441.134136 
Q 119.405555 439.711636 119.078055 438.484136 
Q 118.890555 437.804136 118.523055 437.484136 
Q 118.328055 437.311636 118.015555 437.311636 
Q 117.623055 437.311636 117.405555 437.649136 
Q 117.100555 438.109136 117.100555 439.406636 
Q 117.100555 441.571636 117.615555 442.391636 
Q 117.953055 442.921636 118.523055 442.921636 
Q 118.828055 442.921636 119.328055 442.671636 
z
M 124.350555 445.186636 
Q 124.898055 445.186636 125.275555 445.571636 
Q 125.655555 445.954136 125.655555 446.491636 
Q 125.655555 447.031636 125.273055 447.411636 
Q 124.890555 447.789136 124.350555 447.789136 
Q 123.810555 447.789136 123.430555 447.411636 
Q 123.053055 447.031636 123.053055 446.491636 
Q 123.053055 445.954136 123.430555 445.571636 
Q 123.810555 445.186636 124.350555 445.186636 
z
M 129.185555 447.814136 
L 132.070555 439.071636 
L 129.873055 439.071636 
Q 128.585555 439.071636 127.935555 439.406636 
Q 127.483055 439.641636 127.185555 440.289136 
L 126.890555 440.289136 
L 127.655555 436.999136 
L 133.968055 436.999136 
L 130.413055 447.814136 
L 129.185555 447.814136 
z
"/>
   </g>
   <g id="text_23">
    <path d="M 108.788055 361.455536 
L 113.748055 361.455536 
L 112.960555 363.473036 
L 108.788055 363.473036 
L 108.390555 364.528036 
Q 111.085555 364.628036 112.538055 365.870536 
Q 113.733055 366.893036 113.733055 368.418036 
Q 113.733055 369.393036 113.178055 370.328036 
Q 112.623055 371.260536 111.615555 371.765536 
Q 110.608055 372.270536 109.405555 372.270536 
Q 108.108055 372.270536 107.413055 371.785536 
Q 106.928055 371.440536 106.928055 371.003036 
Q 106.928055 370.668036 107.180555 370.410536 
Q 107.435555 370.153036 107.773055 370.153036 
Q 108.078055 370.153036 108.390555 370.278036 
Q 108.703055 370.403036 109.460555 370.933036 
Q 109.935555 371.260536 110.280555 371.385536 
Q 110.523055 371.480536 110.828055 371.480536 
Q 111.468055 371.480536 111.915555 371.013036 
Q 112.365555 370.543036 112.365555 369.885536 
Q 112.365555 368.510536 110.990555 367.653036 
Q 109.615555 366.793036 107.523055 366.793036 
Q 107.310555 366.793036 106.890555 366.800536 
L 108.788055 361.455536 
z
M 117.185555 372.270536 
L 120.070555 363.528036 
L 117.873055 363.528036 
Q 116.585555 363.528036 115.935555 363.863036 
Q 115.483055 364.098036 115.185555 364.745536 
L 114.890555 364.745536 
L 115.655555 361.455536 
L 121.968055 361.455536 
L 118.413055 372.270536 
L 117.185555 372.270536 
z
M 124.350555 369.643036 
Q 124.898055 369.643036 125.275555 370.028036 
Q 125.655555 370.410536 125.655555 370.948036 
Q 125.655555 371.488036 125.273055 371.868036 
Q 124.890555 372.245536 124.350555 372.245536 
Q 123.810555 372.245536 123.430555 371.868036 
Q 123.053055 371.488036 123.053055 370.948036 
Q 123.053055 370.410536 123.430555 370.028036 
Q 123.810555 369.643036 124.350555 369.643036 
z
M 131.803055 366.065536 
Q 132.920555 366.885536 133.353055 367.593036 
Q 133.788055 368.300536 133.788055 369.215536 
Q 133.788055 370.495536 132.823055 371.383036 
Q 131.858055 372.270536 130.203055 372.270536 
Q 128.633055 372.270536 127.773055 371.498036 
Q 126.913055 370.723036 126.913055 369.605536 
Q 126.913055 368.753036 127.408055 368.113036 
Q 127.905555 367.473036 129.060555 366.940536 
Q 127.803055 365.980536 127.448055 365.370536 
Q 127.093055 364.760536 127.093055 363.955536 
Q 127.093055 362.893036 127.995555 362.085536 
Q 128.898055 361.278036 130.468055 361.278036 
Q 131.983055 361.278036 132.798055 361.993036 
Q 133.615555 362.705536 133.615555 363.705536 
Q 133.615555 364.455536 133.173055 365.030536 
Q 132.733055 365.605536 131.803055 366.065536 
z
M 131.210555 365.668036 
Q 131.498055 365.278036 131.638055 364.793036 
Q 131.780555 364.308036 131.780555 363.730536 
Q 131.780555 362.715536 131.343055 362.175536 
Q 131.015555 361.760536 130.435555 361.760536 
Q 129.913055 361.760536 129.545555 362.140536 
Q 129.178055 362.518036 129.178055 363.080536 
Q 129.178055 363.653036 129.588055 364.265536 
Q 129.998055 364.878036 131.210555 365.668036 
z
M 129.648055 367.315536 
Q 129.405555 367.535536 129.303055 367.715536 
Q 129.148055 367.988036 129.023055 368.513036 
Q 128.898055 369.035536 128.898055 369.605536 
Q 128.898055 370.340536 129.085555 370.835536 
Q 129.273055 371.330536 129.620555 371.550536 
Q 129.968055 371.768036 130.335555 371.768036 
Q 130.905555 371.768036 131.295555 371.350536 
Q 131.685555 370.933036 131.685555 370.205536 
Q 131.685555 368.690536 129.648055 367.315536 
z
" style="stroke: #ffffff; stroke-width: 3.8"/>
    <path d="M 108.788055 361.455536 
L 113.748055 361.455536 
L 112.960555 363.473036 
L 108.788055 363.473036 
L 108.390555 364.528036 
Q 111.085555 364.628036 112.538055 365.870536 
Q 113.733055 366.893036 113.733055 368.418036 
Q 113.733055 369.393036 113.178055 370.328036 
Q 112.623055 371.260536 111.615555 371.765536 
Q 110.608055 372.270536 109.405555 372.270536 
Q 108.108055 372.270536 107.413055 371.785536 
Q 106.928055 371.440536 106.928055 371.003036 
Q 106.928055 370.668036 107.180555 370.410536 
Q 107.435555 370.153036 107.773055 370.153036 
Q 108.078055 370.153036 108.390555 370.278036 
Q 108.703055 370.403036 109.460555 370.933036 
Q 109.935555 371.260536 110.280555 371.385536 
Q 110.523055 371.480536 110.828055 371.480536 
Q 111.468055 371.480536 111.915555 371.013036 
Q 112.365555 370.543036 112.365555 369.885536 
Q 112.365555 368.510536 110.990555 367.653036 
Q 109.615555 366.793036 107.523055 366.793036 
Q 107.310555 366.793036 106.890555 366.800536 
L 108.788055 361.455536 
z
M 117.185555 372.270536 
L 120.070555 363.528036 
L 117.873055 363.528036 
Q 116.585555 363.528036 115.935555 363.863036 
Q 115.483055 364.098036 115.185555 364.745536 
L 114.890555 364.745536 
L 115.655555 361.455536 
L 121.968055 361.455536 
L 118.413055 372.270536 
L 117.185555 372.270536 
z
M 124.350555 369.643036 
Q 124.898055 369.643036 125.275555 370.028036 
Q 125.655555 370.410536 125.655555 370.948036 
Q 125.655555 371.488036 125.273055 371.868036 
Q 124.890555 372.245536 124.350555 372.245536 
Q 123.810555 372.245536 123.430555 371.868036 
Q 123.053055 371.488036 123.053055 370.948036 
Q 123.053055 370.410536 123.430555 370.028036 
Q 123.810555 369.643036 124.350555 369.643036 
z
M 131.803055 366.065536 
Q 132.920555 366.885536 133.353055 367.593036 
Q 133.788055 368.300536 133.788055 369.215536 
Q 133.788055 370.495536 132.823055 371.383036 
Q 131.858055 372.270536 130.203055 372.270536 
Q 128.633055 372.270536 127.773055 371.498036 
Q 126.913055 370.723036 126.913055 369.605536 
Q 126.913055 368.753036 127.408055 368.113036 
Q 127.905555 367.473036 129.060555 366.940536 
Q 127.803055 365.980536 127.448055 365.370536 
Q 127.093055 364.760536 127.093055 363.955536 
Q 127.093055 362.893036 127.995555 362.085536 
Q 128.898055 361.278036 130.468055 361.278036 
Q 131.983055 361.278036 132.798055 361.993036 
Q 133.615555 362.705536 133.615555 363.705536 
Q 133.615555 364.455536 133.173055 365.030536 
Q 132.733055 365.605536 131.803055 366.065536 
z
M 131.210555 365.668036 
Q 131.498055 365.278036 131.638055 364.793036 
Q 131.780555 364.308036 131.780555 363.730536 
Q 131.780555 362.715536 131.343055 362.175536 
Q 131.015555 361.760536 130.435555 361.760536 
Q 129.913055 361.760536 129.545555 362.140536 
Q 129.178055 362.518036 129.178055 363.080536 
Q 129.178055 363.653036 129.588055 364.265536 
Q 129.998055 364.878036 131.210555 365.668036 
z
M 129.648055 367.315536 
Q 129.405555 367.535536 129.303055 367.715536 
Q 129.148055 367.988036 129.023055 368.513036 
Q 128.898055 369.035536 128.898055 369.605536 
Q 128.898055 370.340536 129.085555 370.835536 
Q 129.273055 371.330536 129.620555 371.550536 
Q 129.968055 371.768036 130.335555 371.768036 
Q 130.905555 371.768036 131.295555 371.350536 
Q 131.685555 370.933036 131.685555 370.205536 
Q 131.685555 368.690536 129.648055 367.315536 
z
"/>
   </g>
   <g id="text_24">
    <path d="M 106.843055 287.914995 
L 106.843055 287.694995 
Q 108.140555 287.397495 109.043055 286.819995 
Q 109.945555 286.242495 110.470555 285.389995 
Q 110.998055 284.537495 111.210555 283.429995 
Q 110.725555 283.679995 110.385555 283.777495 
Q 110.045555 283.874995 109.670555 283.874995 
Q 108.468055 283.874995 107.665555 283.007495 
Q 106.865555 282.139995 106.865555 280.632495 
Q 106.865555 279.584995 107.298055 278.714995 
Q 107.733055 277.842495 108.538055 277.362495 
Q 109.343055 276.882495 110.210555 276.882495 
Q 111.140555 276.882495 111.968055 277.414995 
Q 112.795555 277.944995 113.288055 278.952495 
Q 113.780555 279.959995 113.780555 281.249995 
Q 113.780555 282.922495 112.978055 284.454995 
Q 112.178055 285.984995 110.593055 286.909995 
Q 109.008055 287.834995 106.843055 287.914995 
z
M 111.328055 282.772495 
Q 111.405555 281.897495 111.405555 281.234995 
Q 111.405555 279.812495 111.078055 278.584995 
Q 110.890555 277.904995 110.523055 277.584995 
Q 110.328055 277.412495 110.015555 277.412495 
Q 109.623055 277.412495 109.405555 277.749995 
Q 109.100555 278.209995 109.100555 279.507495 
Q 109.100555 281.672495 109.615555 282.492495 
Q 109.953055 283.022495 110.523055 283.022495 
Q 110.828055 283.022495 111.328055 282.772495 
z
M 116.718055 282.382495 
L 116.718055 282.109995 
Q 117.608055 281.849995 117.950555 281.627495 
Q 118.295555 281.404995 118.545555 280.949995 
Q 118.795555 280.492495 118.795555 280.022495 
Q 118.795555 279.374995 118.323055 278.909995 
Q 117.850555 278.444995 117.148055 278.444995 
Q 116.053055 278.444995 115.288055 279.599995 
L 114.998055 279.499995 
Q 115.560555 278.194995 116.440555 277.539995 
Q 117.320555 276.882495 118.398055 276.882495 
Q 119.498055 276.882495 120.213055 277.554995 
Q 120.928055 278.224995 120.928055 279.124995 
Q 120.928055 279.709995 120.595555 280.254995 
Q 120.265555 280.797495 119.553055 281.209995 
Q 120.468055 281.654995 120.948055 282.307495 
Q 121.428055 282.959995 121.428055 283.944995 
Q 121.428055 285.599995 120.228055 286.762495 
Q 119.030555 287.922495 117.015555 287.922495 
Q 115.670555 287.922495 115.053055 287.474995 
Q 114.608055 287.162495 114.608055 286.672495 
Q 114.608055 286.312495 114.865555 286.059995 
Q 115.123055 285.804995 115.460555 285.804995 
Q 115.718055 285.804995 115.945555 285.912495 
Q 116.070555 285.974995 116.830555 286.597495 
Q 117.593055 287.217495 118.258055 287.217495 
Q 118.835555 287.217495 119.248055 286.762495 
Q 119.663055 286.304995 119.663055 285.599995 
Q 119.663055 284.529995 118.913055 283.627495 
Q 118.163055 282.724995 116.718055 282.382495 
z
M 124.350555 285.287495 
Q 124.898055 285.287495 125.275555 285.672495 
Q 125.655555 286.054995 125.655555 286.592495 
Q 125.655555 287.132495 125.273055 287.512495 
Q 124.890555 287.889995 124.350555 287.889995 
Q 123.810555 287.889995 123.430555 287.512495 
Q 123.053055 287.132495 123.053055 286.592495 
Q 123.053055 286.054995 123.430555 285.672495 
Q 123.810555 285.287495 124.350555 285.287495 
z
M 132.975555 287.694995 
L 126.740555 287.694995 
L 126.740555 287.522495 
Q 129.608055 284.109995 130.220555 282.929995 
Q 130.835555 281.749995 130.835555 280.624995 
Q 130.835555 279.804995 130.328055 279.262495 
Q 129.820555 278.717495 129.085555 278.717495 
Q 127.883055 278.717495 127.218055 279.922495 
L 126.928055 279.819995 
Q 127.350555 278.319995 128.210555 277.602495 
Q 129.070555 276.882495 130.195555 276.882495 
Q 130.998055 276.882495 131.663055 277.257495 
Q 132.328055 277.632495 132.703055 278.284995 
Q 133.078055 278.937495 133.078055 279.507495 
Q 133.078055 280.547495 132.498055 281.617495 
Q 131.710555 283.062495 129.053055 285.647495 
L 131.343055 285.647495 
Q 132.185555 285.647495 132.440555 285.577495 
Q 132.695555 285.507495 132.858055 285.339995 
Q 133.023055 285.172495 133.288055 284.632495 
L 133.570555 284.632495 
L 132.975555 287.694995 
z
" style="stroke: #ffffff; stroke-width: 3.8"/>
    <path d="M 106.843055 287.914995 
L 106.843055 287.694995 
Q 108.140555 287.397495 109.043055 286.819995 
Q 109.945555 286.242495 110.470555 285.389995 
Q 110.998055 284.537495 111.210555 283.429995 
Q 110.725555 283.679995 110.385555 283.777495 
Q 110.045555 283.874995 109.670555 283.874995 
Q 108.468055 283.874995 107.665555 283.007495 
Q 106.865555 282.139995 106.865555 280.632495 
Q 106.865555 279.584995 107.298055 278.714995 
Q 107.733055 277.842495 108.538055 277.362495 
Q 109.343055 276.882495 110.210555 276.882495 
Q 111.140555 276.882495 111.968055 277.414995 
Q 112.795555 277.944995 113.288055 278.952495 
Q 113.780555 279.959995 113.780555 281.249995 
Q 113.780555 282.922495 112.978055 284.454995 
Q 112.178055 285.984995 110.593055 286.909995 
Q 109.008055 287.834995 106.843055 287.914995 
z
M 111.328055 282.772495 
Q 111.405555 281.897495 111.405555 281.234995 
Q 111.405555 279.812495 111.078055 278.584995 
Q 110.890555 277.904995 110.523055 277.584995 
Q 110.328055 277.412495 110.015555 277.412495 
Q 109.623055 277.412495 109.405555 277.749995 
Q 109.100555 278.209995 109.100555 279.507495 
Q 109.100555 281.672495 109.615555 282.492495 
Q 109.953055 283.022495 110.523055 283.022495 
Q 110.828055 283.022495 111.328055 282.772495 
z
M 116.718055 282.382495 
L 116.718055 282.109995 
Q 117.608055 281.849995 117.950555 281.627495 
Q 118.295555 281.404995 118.545555 280.949995 
Q 118.795555 280.492495 118.795555 280.022495 
Q 118.795555 279.374995 118.323055 278.909995 
Q 117.850555 278.444995 117.148055 278.444995 
Q 116.053055 278.444995 115.288055 279.599995 
L 114.998055 279.499995 
Q 115.560555 278.194995 116.440555 277.539995 
Q 117.320555 276.882495 118.398055 276.882495 
Q 119.498055 276.882495 120.213055 277.554995 
Q 120.928055 278.224995 120.928055 279.124995 
Q 120.928055 279.709995 120.595555 280.254995 
Q 120.265555 280.797495 119.553055 281.209995 
Q 120.468055 281.654995 120.948055 282.307495 
Q 121.428055 282.959995 121.428055 283.944995 
Q 121.428055 285.599995 120.228055 286.762495 
Q 119.030555 287.922495 117.015555 287.922495 
Q 115.670555 287.922495 115.053055 287.474995 
Q 114.608055 287.162495 114.608055 286.672495 
Q 114.608055 286.312495 114.865555 286.059995 
Q 115.123055 285.804995 115.460555 285.804995 
Q 115.718055 285.804995 115.945555 285.912495 
Q 116.070555 285.974995 116.830555 286.597495 
Q 117.593055 287.217495 118.258055 287.217495 
Q 118.835555 287.217495 119.248055 286.762495 
Q 119.663055 286.304995 119.663055 285.599995 
Q 119.663055 284.529995 118.913055 283.627495 
Q 118.163055 282.724995 116.718055 282.382495 
z
M 124.350555 285.287495 
Q 124.898055 285.287495 125.275555 285.672495 
Q 125.655555 286.054995 125.655555 286.592495 
Q 125.655555 287.132495 125.273055 287.512495 
Q 124.890555 287.889995 124.350555 287.889995 
Q 123.810555 287.889995 123.430555 287.512495 
Q 123.053055 287.132495 123.053055 286.592495 
Q 123.053055 286.054995 123.430555 285.672495 
Q 123.810555 285.287495 124.350555 285.287495 
z
M 132.975555 287.694995 
L 126.740555 287.694995 
L 126.740555 287.522495 
Q 129.608055 284.109995 130.220555 282.929995 
Q 130.835555 281.749995 130.835555 280.624995 
Q 130.835555 279.804995 130.328055 279.262495 
Q 129.820555 278.717495 129.085555 278.717495 
Q 127.883055 278.717495 127.218055 279.922495 
L 126.928055 279.819995 
Q 127.350555 278.319995 128.210555 277.602495 
Q 129.070555 276.882495 130.195555 276.882495 
Q 130.998055 276.882495 131.663055 277.257495 
Q 132.328055 277.632495 132.703055 278.284995 
Q 133.078055 278.937495 133.078055 279.507495 
Q 133.078055 280.547495 132.498055 281.617495 
Q 131.710555 283.062495 129.053055 285.647495 
L 131.343055 285.647495 
Q 132.185555 285.647495 132.440555 285.577495 
Q 132.695555 285.507495 132.858055 285.339995 
Q 133.023055 285.172495 133.288055 284.632495 
L 133.570555 284.632495 
L 132.975555 287.694995 
z
"/>
   </g>
   <g id="text_25">
    <path d="M 358.662197 297.393147 
L 363.622197 297.393147 
L 362.834697 299.410647 
L 358.662197 299.410647 
L 358.264697 300.465647 
Q 360.959697 300.565647 362.412197 301.808147 
Q 363.607197 302.830647 363.607197 304.355647 
Q 363.607197 305.330647 363.052197 306.265647 
Q 362.497197 307.198147 361.489697 307.703147 
Q 360.482197 308.208147 359.279697 308.208147 
Q 357.982197 308.208147 357.287197 307.723147 
Q 356.802197 307.378147 356.802197 306.940647 
Q 356.802197 306.605647 357.054697 306.348147 
Q 357.309697 306.090647 357.647197 306.090647 
Q 357.952197 306.090647 358.264697 306.215647 
Q 358.577197 306.340647 359.334697 306.870647 
Q 359.809697 307.198147 360.154697 307.323147 
Q 360.397197 307.418147 360.702197 307.418147 
Q 361.342197 307.418147 361.789697 306.950647 
Q 362.239697 306.480647 362.239697 305.823147 
Q 362.239697 304.448147 360.864697 303.590647 
Q 359.489697 302.730647 357.397197 302.730647 
Q 357.184697 302.730647 356.764697 302.738147 
L 358.662197 297.393147 
z
M 364.717197 308.208147 
L 364.717197 307.988147 
Q 366.014697 307.690647 366.917197 307.113147 
Q 367.819697 306.535647 368.344697 305.683147 
Q 368.872197 304.830647 369.084697 303.723147 
Q 368.599697 303.973147 368.259697 304.070647 
Q 367.919697 304.168147 367.544697 304.168147 
Q 366.342197 304.168147 365.539697 303.300647 
Q 364.739697 302.433147 364.739697 300.925647 
Q 364.739697 299.878147 365.172197 299.008147 
Q 365.607197 298.135647 366.412197 297.655647 
Q 367.217197 297.175647 368.084697 297.175647 
Q 369.014697 297.175647 369.842197 297.708147 
Q 370.669697 298.238147 371.162197 299.245647 
Q 371.654697 300.253147 371.654697 301.543147 
Q 371.654697 303.215647 370.852197 304.748147 
Q 370.052197 306.278147 368.467197 307.203147 
Q 366.882197 308.128147 364.717197 308.208147 
z
M 369.202197 303.065647 
Q 369.279697 302.190647 369.279697 301.528147 
Q 369.279697 300.105647 368.952197 298.878147 
Q 368.764697 298.198147 368.397197 297.878147 
Q 368.202197 297.705647 367.889697 297.705647 
Q 367.497197 297.705647 367.279697 298.043147 
Q 366.974697 298.503147 366.974697 299.800647 
Q 366.974697 301.965647 367.489697 302.785647 
Q 367.827197 303.315647 368.397197 303.315647 
Q 368.702197 303.315647 369.202197 303.065647 
z
M 374.224697 305.580647 
Q 374.772197 305.580647 375.149697 305.965647 
Q 375.529697 306.348147 375.529697 306.885647 
Q 375.529697 307.425647 375.147197 307.805647 
Q 374.764697 308.183147 374.224697 308.183147 
Q 373.684697 308.183147 373.304697 307.805647 
Q 372.927197 307.425647 372.927197 306.885647 
Q 372.927197 306.348147 373.304697 305.965647 
Q 373.684697 305.580647 374.224697 305.580647 
z
M 383.639697 302.690647 
Q 383.639697 304.278147 383.194697 305.653147 
Q 382.927197 306.495647 382.477197 307.035647 
Q 382.029697 307.573147 381.459697 307.890647 
Q 380.889697 308.208147 380.217197 308.208147 
Q 379.452197 308.208147 378.834697 307.818147 
Q 378.217197 307.425647 377.739697 306.698147 
Q 377.397197 306.168147 377.139697 305.285647 
Q 376.802197 304.090647 376.802197 302.815647 
Q 376.802197 301.090647 377.287197 299.643147 
Q 377.684697 298.448147 378.497197 297.813147 
Q 379.309697 297.175647 380.217197 297.175647 
Q 381.139697 297.175647 381.939697 297.805647 
Q 382.739697 298.433147 383.114697 299.495647 
Q 383.639697 300.955647 383.639697 302.690647 
z
M 381.232197 302.675647 
Q 381.232197 299.893147 381.202197 299.433147 
Q 381.122197 298.348147 380.827197 297.965647 
Q 380.632197 297.715647 380.194697 297.715647 
Q 379.857197 297.715647 379.662197 297.903147 
Q 379.372197 298.175647 379.269697 298.868147 
Q 379.169697 299.558147 379.169697 303.690647 
Q 379.169697 305.940647 379.327197 306.705647 
Q 379.444697 307.260647 379.662197 307.448147 
Q 379.882197 307.635647 380.239697 307.635647 
Q 380.632197 307.635647 380.827197 307.385647 
Q 381.154697 306.948147 381.202197 306.035647 
L 381.232197 302.675647 
z
" style="stroke: #ffffff; stroke-width: 3.8"/>
    <path d="M 358.662197 297.393147 
L 363.622197 297.393147 
L 362.834697 299.410647 
L 358.662197 299.410647 
L 358.264697 300.465647 
Q 360.959697 300.565647 362.412197 301.808147 
Q 363.607197 302.830647 363.607197 304.355647 
Q 363.607197 305.330647 363.052197 306.265647 
Q 362.497197 307.198147 361.489697 307.703147 
Q 360.482197 308.208147 359.279697 308.208147 
Q 357.982197 308.208147 357.287197 307.723147 
Q 356.802197 307.378147 356.802197 306.940647 
Q 356.802197 306.605647 357.054697 306.348147 
Q 357.309697 306.090647 357.647197 306.090647 
Q 357.952197 306.090647 358.264697 306.215647 
Q 358.577197 306.340647 359.334697 306.870647 
Q 359.809697 307.198147 360.154697 307.323147 
Q 360.397197 307.418147 360.702197 307.418147 
Q 361.342197 307.418147 361.789697 306.950647 
Q 362.239697 306.480647 362.239697 305.823147 
Q 362.239697 304.448147 360.864697 303.590647 
Q 359.489697 302.730647 357.397197 302.730647 
Q 357.184697 302.730647 356.764697 302.738147 
L 358.662197 297.393147 
z
M 364.717197 308.208147 
L 364.717197 307.988147 
Q 366.014697 307.690647 366.917197 307.113147 
Q 367.819697 306.535647 368.344697 305.683147 
Q 368.872197 304.830647 369.084697 303.723147 
Q 368.599697 303.973147 368.259697 304.070647 
Q 367.919697 304.168147 367.544697 304.168147 
Q 366.342197 304.168147 365.539697 303.300647 
Q 364.739697 302.433147 364.739697 300.925647 
Q 364.739697 299.878147 365.172197 299.008147 
Q 365.607197 298.135647 366.412197 297.655647 
Q 367.217197 297.175647 368.084697 297.175647 
Q 369.014697 297.175647 369.842197 297.708147 
Q 370.669697 298.238147 371.162197 299.245647 
Q 371.654697 300.253147 371.654697 301.543147 
Q 371.654697 303.215647 370.852197 304.748147 
Q 370.052197 306.278147 368.467197 307.203147 
Q 366.882197 308.128147 364.717197 308.208147 
z
M 369.202197 303.065647 
Q 369.279697 302.190647 369.279697 301.528147 
Q 369.279697 300.105647 368.952197 298.878147 
Q 368.764697 298.198147 368.397197 297.878147 
Q 368.202197 297.705647 367.889697 297.705647 
Q 367.497197 297.705647 367.279697 298.043147 
Q 366.974697 298.503147 366.974697 299.800647 
Q 366.974697 301.965647 367.489697 302.785647 
Q 367.827197 303.315647 368.397197 303.315647 
Q 368.702197 303.315647 369.202197 303.065647 
z
M 374.224697 305.580647 
Q 374.772197 305.580647 375.149697 305.965647 
Q 375.529697 306.348147 375.529697 306.885647 
Q 375.529697 307.425647 375.147197 307.805647 
Q 374.764697 308.183147 374.224697 308.183147 
Q 373.684697 308.183147 373.304697 307.805647 
Q 372.927197 307.425647 372.927197 306.885647 
Q 372.927197 306.348147 373.304697 305.965647 
Q 373.684697 305.580647 374.224697 305.580647 
z
M 383.639697 302.690647 
Q 383.639697 304.278147 383.194697 305.653147 
Q 382.927197 306.495647 382.477197 307.035647 
Q 382.029697 307.573147 381.459697 307.890647 
Q 380.889697 308.208147 380.217197 308.208147 
Q 379.452197 308.208147 378.834697 307.818147 
Q 378.217197 307.425647 377.739697 306.698147 
Q 377.397197 306.168147 377.139697 305.285647 
Q 376.802197 304.090647 376.802197 302.815647 
Q 376.802197 301.090647 377.287197 299.643147 
Q 377.684697 298.448147 378.497197 297.813147 
Q 379.309697 297.175647 380.217197 297.175647 
Q 381.139697 297.175647 381.939697 297.805647 
Q 382.739697 298.433147 383.114697 299.495647 
Q 383.639697 300.955647 383.639697 302.690647 
z
M 381.232197 302.675647 
Q 381.232197 299.893147 381.202197 299.433147 
Q 381.122197 298.348147 380.827197 297.965647 
Q 380.632197 297.715647 380.194697 297.715647 
Q 379.857197 297.715647 379.662197 297.903147 
Q 379.372197 298.175647 379.269697 298.868147 
Q 379.169697 299.558147 379.169697 303.690647 
Q 379.169697 305.940647 379.327197 306.705647 
Q 379.444697 307.260647 379.662197 307.448147 
Q 379.882197 307.635647 380.239697 307.635647 
Q 380.632197 307.635647 380.827197 307.385647 
Q 381.154697 306.948147 381.202197 306.035647 
L 381.232197 302.675647 
z
"/>
   </g>
   <g id="text_26">
    <path d="M 359.059697 243.7264 
L 361.944697 234.9839 
L 359.747197 234.9839 
Q 358.459697 234.9839 357.809697 235.3189 
Q 357.357197 235.5539 357.059697 236.2014 
L 356.764697 236.2014 
L 357.529697 232.9114 
L 363.842197 232.9114 
L 360.287197 243.7264 
L 359.059697 243.7264 
z
M 364.717197 243.7264 
L 364.717197 243.5064 
Q 366.014697 243.2089 366.917197 242.6314 
Q 367.819697 242.0539 368.344697 241.2014 
Q 368.872197 240.3489 369.084697 239.2414 
Q 368.599697 239.4914 368.259697 239.5889 
Q 367.919697 239.6864 367.544697 239.6864 
Q 366.342197 239.6864 365.539697 238.8189 
Q 364.739697 237.9514 364.739697 236.4439 
Q 364.739697 235.3964 365.172197 234.5264 
Q 365.607197 233.6539 366.412197 233.1739 
Q 367.217197 232.6939 368.084697 232.6939 
Q 369.014697 232.6939 369.842197 233.2264 
Q 370.669697 233.7564 371.162197 234.7639 
Q 371.654697 235.7714 371.654697 237.0614 
Q 371.654697 238.7339 370.852197 240.2664 
Q 370.052197 241.7964 368.467197 242.7214 
Q 366.882197 243.6464 364.717197 243.7264 
z
M 369.202197 238.5839 
Q 369.279697 237.7089 369.279697 237.0464 
Q 369.279697 235.6239 368.952197 234.3964 
Q 368.764697 233.7164 368.397197 233.3964 
Q 368.202197 233.2239 367.889697 233.2239 
Q 367.497197 233.2239 367.279697 233.5614 
Q 366.974697 234.0214 366.974697 235.3189 
Q 366.974697 237.4839 367.489697 238.3039 
Q 367.827197 238.8339 368.397197 238.8339 
Q 368.702197 238.8339 369.202197 238.5839 
z
M 374.224697 241.0989 
Q 374.772197 241.0989 375.149697 241.4839 
Q 375.529697 241.8664 375.529697 242.4039 
Q 375.529697 242.9439 375.147197 243.3239 
Q 374.764697 243.7014 374.224697 243.7014 
Q 373.684697 243.7014 373.304697 243.3239 
Q 372.927197 242.9439 372.927197 242.4039 
Q 372.927197 241.8664 373.304697 241.4839 
Q 373.684697 241.0989 374.224697 241.0989 
z
M 378.662197 232.9114 
L 383.622197 232.9114 
L 382.834697 234.9289 
L 378.662197 234.9289 
L 378.264697 235.9839 
Q 380.959697 236.0839 382.412197 237.3264 
Q 383.607197 238.3489 383.607197 239.8739 
Q 383.607197 240.8489 383.052197 241.7839 
Q 382.497197 242.7164 381.489697 243.2214 
Q 380.482197 243.7264 379.279697 243.7264 
Q 377.982197 243.7264 377.287197 243.2414 
Q 376.802197 242.8964 376.802197 242.4589 
Q 376.802197 242.1239 377.054697 241.8664 
Q 377.309697 241.6089 377.647197 241.6089 
Q 377.952197 241.6089 378.264697 241.7339 
Q 378.577197 241.8589 379.334697 242.3889 
Q 379.809697 242.7164 380.154697 242.8414 
Q 380.397197 242.9364 380.702197 242.9364 
Q 381.342197 242.9364 381.789697 242.4689 
Q 382.239697 241.9989 382.239697 241.3414 
Q 382.239697 239.9664 380.864697 239.1089 
Q 379.489697 238.2489 377.397197 238.2489 
Q 377.184697 238.2489 376.764697 238.2564 
L 378.662197 232.9114 
z
" style="stroke: #ffffff; stroke-width: 3.8"/>
    <path d="M 359.059697 243.7264 
L 361.944697 234.9839 
L 359.747197 234.9839 
Q 358.459697 234.9839 357.809697 235.3189 
Q 357.357197 235.5539 357.059697 236.2014 
L 356.764697 236.2014 
L 357.529697 232.9114 
L 363.842197 232.9114 
L 360.287197 243.7264 
L 359.059697 243.7264 
z
M 364.717197 243.7264 
L 364.717197 243.5064 
Q 366.014697 243.2089 366.917197 242.6314 
Q 367.819697 242.0539 368.344697 241.2014 
Q 368.872197 240.3489 369.084697 239.2414 
Q 368.599697 239.4914 368.259697 239.5889 
Q 367.919697 239.6864 367.544697 239.6864 
Q 366.342197 239.6864 365.539697 238.8189 
Q 364.739697 237.9514 364.739697 236.4439 
Q 364.739697 235.3964 365.172197 234.5264 
Q 365.607197 233.6539 366.412197 233.1739 
Q 367.217197 232.6939 368.084697 232.6939 
Q 369.014697 232.6939 369.842197 233.2264 
Q 370.669697 233.7564 371.162197 234.7639 
Q 371.654697 235.7714 371.654697 237.0614 
Q 371.654697 238.7339 370.852197 240.2664 
Q 370.052197 241.7964 368.467197 242.7214 
Q 366.882197 243.6464 364.717197 243.7264 
z
M 369.202197 238.5839 
Q 369.279697 237.7089 369.279697 237.0464 
Q 369.279697 235.6239 368.952197 234.3964 
Q 368.764697 233.7164 368.397197 233.3964 
Q 368.202197 233.2239 367.889697 233.2239 
Q 367.497197 233.2239 367.279697 233.5614 
Q 366.974697 234.0214 366.974697 235.3189 
Q 366.974697 237.4839 367.489697 238.3039 
Q 367.827197 238.8339 368.397197 238.8339 
Q 368.702197 238.8339 369.202197 238.5839 
z
M 374.224697 241.0989 
Q 374.772197 241.0989 375.149697 241.4839 
Q 375.529697 241.8664 375.529697 242.4039 
Q 375.529697 242.9439 375.147197 243.3239 
Q 374.764697 243.7014 374.224697 243.7014 
Q 373.684697 243.7014 373.304697 243.3239 
Q 372.927197 242.9439 372.927197 242.4039 
Q 372.927197 241.8664 373.304697 241.4839 
Q 373.684697 241.0989 374.224697 241.0989 
z
M 378.662197 232.9114 
L 383.622197 232.9114 
L 382.834697 234.9289 
L 378.662197 234.9289 
L 378.264697 235.9839 
Q 380.959697 236.0839 382.412197 237.3264 
Q 383.607197 238.3489 383.607197 239.8739 
Q 383.607197 240.8489 383.052197 241.7839 
Q 382.497197 242.7164 381.489697 243.2214 
Q 380.482197 243.7264 379.279697 243.7264 
Q 377.982197 243.7264 377.287197 243.2414 
Q 376.802197 242.8964 376.802197 242.4589 
Q 376.802197 242.1239 377.054697 241.8664 
Q 377.309697 241.6089 377.647197 241.6089 
Q 377.952197 241.6089 378.264697 241.7339 
Q 378.577197 241.8589 379.334697 242.3889 
Q 379.809697 242.7164 380.154697 242.8414 
Q 380.397197 242.9364 380.702197 242.9364 
Q 381.342197 242.9364 381.789697 242.4689 
Q 382.239697 241.9989 382.239697 241.3414 
Q 382.239697 239.9664 380.864697 239.1089 
Q 379.489697 238.2489 377.397197 238.2489 
Q 377.184697 238.2489 376.764697 238.2564 
L 378.662197 232.9114 
z
"/>
   </g>
   <g id="text_27">
    <path d="M 359.059697 151.907022 
L 361.944697 143.164522 
L 359.747197 143.164522 
Q 358.459697 143.164522 357.809697 143.499522 
Q 357.357197 143.734522 357.059697 144.382022 
L 356.764697 144.382022 
L 357.529697 141.092022 
L 363.842197 141.092022 
L 360.287197 151.907022 
L 359.059697 151.907022 
z
M 364.717197 151.907022 
L 364.717197 151.687022 
Q 366.014697 151.389522 366.917197 150.812022 
Q 367.819697 150.234522 368.344697 149.382022 
Q 368.872197 148.529522 369.084697 147.422022 
Q 368.599697 147.672022 368.259697 147.769522 
Q 367.919697 147.867022 367.544697 147.867022 
Q 366.342197 147.867022 365.539697 146.999522 
Q 364.739697 146.132022 364.739697 144.624522 
Q 364.739697 143.577022 365.172197 142.707022 
Q 365.607197 141.834522 366.412197 141.354522 
Q 367.217197 140.874522 368.084697 140.874522 
Q 369.014697 140.874522 369.842197 141.407022 
Q 370.669697 141.937022 371.162197 142.944522 
Q 371.654697 143.952022 371.654697 145.242022 
Q 371.654697 146.914522 370.852197 148.447022 
Q 370.052197 149.977022 368.467197 150.902022 
Q 366.882197 151.827022 364.717197 151.907022 
z
M 369.202197 146.764522 
Q 369.279697 145.889522 369.279697 145.227022 
Q 369.279697 143.804522 368.952197 142.577022 
Q 368.764697 141.897022 368.397197 141.577022 
Q 368.202197 141.404522 367.889697 141.404522 
Q 367.497197 141.404522 367.279697 141.742022 
Q 366.974697 142.202022 366.974697 143.499522 
Q 366.974697 145.664522 367.489697 146.484522 
Q 367.827197 147.014522 368.397197 147.014522 
Q 368.702197 147.014522 369.202197 146.764522 
z
M 374.224697 149.279522 
Q 374.772197 149.279522 375.149697 149.664522 
Q 375.529697 150.047022 375.529697 150.584522 
Q 375.529697 151.124522 375.147197 151.504522 
Q 374.764697 151.882022 374.224697 151.882022 
Q 373.684697 151.882022 373.304697 151.504522 
Q 372.927197 151.124522 372.927197 150.584522 
Q 372.927197 150.047022 373.304697 149.664522 
Q 373.684697 149.279522 374.224697 149.279522 
z
M 381.434697 140.874522 
L 381.434697 149.539522 
Q 381.434697 150.514522 381.519697 150.784522 
Q 381.607197 151.054522 381.879697 151.227022 
Q 382.154697 151.397022 382.757197 151.397022 
L 382.997197 151.397022 
L 382.997197 151.687022 
L 377.419697 151.687022 
L 377.419697 151.397022 
L 377.702197 151.397022 
Q 378.382197 151.397022 378.669697 151.242022 
Q 378.959697 151.084522 379.059697 150.812022 
Q 379.162197 150.539522 379.162197 149.539522 
L 379.162197 144.047022 
Q 379.162197 143.312022 379.092197 143.129522 
Q 379.022197 142.944522 378.829697 142.817022 
Q 378.639697 142.687022 378.389697 142.687022 
Q 377.989697 142.687022 377.419697 142.937022 
L 377.279697 142.654522 
L 381.177197 140.874522 
L 381.434697 140.874522 
z
" style="stroke: #ffffff; stroke-width: 3.8"/>
    <path d="M 359.059697 151.907022 
L 361.944697 143.164522 
L 359.747197 143.164522 
Q 358.459697 143.164522 357.809697 143.499522 
Q 357.357197 143.734522 357.059697 144.382022 
L 356.764697 144.382022 
L 357.529697 141.092022 
L 363.842197 141.092022 
L 360.287197 151.907022 
L 359.059697 151.907022 
z
M 364.717197 151.907022 
L 364.717197 151.687022 
Q 366.014697 151.389522 366.917197 150.812022 
Q 367.819697 150.234522 368.344697 149.382022 
Q 368.872197 148.529522 369.084697 147.422022 
Q 368.599697 147.672022 368.259697 147.769522 
Q 367.919697 147.867022 367.544697 147.867022 
Q 366.342197 147.867022 365.539697 146.999522 
Q 364.739697 146.132022 364.739697 144.624522 
Q 364.739697 143.577022 365.172197 142.707022 
Q 365.607197 141.834522 366.412197 141.354522 
Q 367.217197 140.874522 368.084697 140.874522 
Q 369.014697 140.874522 369.842197 141.407022 
Q 370.669697 141.937022 371.162197 142.944522 
Q 371.654697 143.952022 371.654697 145.242022 
Q 371.654697 146.914522 370.852197 148.447022 
Q 370.052197 149.977022 368.467197 150.902022 
Q 366.882197 151.827022 364.717197 151.907022 
z
M 369.202197 146.764522 
Q 369.279697 145.889522 369.279697 145.227022 
Q 369.279697 143.804522 368.952197 142.577022 
Q 368.764697 141.897022 368.397197 141.577022 
Q 368.202197 141.404522 367.889697 141.404522 
Q 367.497197 141.404522 367.279697 141.742022 
Q 366.974697 142.202022 366.974697 143.499522 
Q 366.974697 145.664522 367.489697 146.484522 
Q 367.827197 147.014522 368.397197 147.014522 
Q 368.702197 147.014522 369.202197 146.764522 
z
M 374.224697 149.279522 
Q 374.772197 149.279522 375.149697 149.664522 
Q 375.529697 150.047022 375.529697 150.584522 
Q 375.529697 151.124522 375.147197 151.504522 
Q 374.764697 151.882022 374.224697 151.882022 
Q 373.684697 151.882022 373.304697 151.504522 
Q 372.927197 151.124522 372.927197 150.584522 
Q 372.927197 150.047022 373.304697 149.664522 
Q 373.684697 149.279522 374.224697 149.279522 
z
M 381.434697 140.874522 
L 381.434697 149.539522 
Q 381.434697 150.514522 381.519697 150.784522 
Q 381.607197 151.054522 381.879697 151.227022 
Q 382.154697 151.397022 382.757197 151.397022 
L 382.997197 151.397022 
L 382.997197 151.687022 
L 377.419697 151.687022 
L 377.419697 151.397022 
L 377.702197 151.397022 
Q 378.382197 151.397022 378.669697 151.242022 
Q 378.959697 151.084522 379.059697 150.812022 
Q 379.162197 150.539522 379.162197 149.539522 
L 379.162197 144.047022 
Q 379.162197 143.312022 379.092197 143.129522 
Q 379.022197 142.944522 378.829697 142.817022 
Q 378.639697 142.687022 378.389697 142.687022 
Q 377.989697 142.687022 377.419697 142.937022 
L 377.279697 142.654522 
L 381.177197 140.874522 
L 381.434697 140.874522 
z
"/>
   </g>
   <g id="text_28">
    <path d="M 579.668672 294.172439 
L 579.668672 294.389939 
Q 578.256172 294.749939 577.398672 295.317439 
Q 576.543672 295.882439 576.046172 296.692439 
Q 575.551172 297.499939 575.278672 298.694939 
Q 575.623672 298.462439 575.848672 298.389939 
Q 576.356172 298.234939 576.873672 298.234939 
Q 578.061172 298.234939 578.853672 299.099939 
Q 579.646172 299.962439 579.646172 301.452439 
Q 579.646172 302.499939 579.216172 303.374939 
Q 578.786172 304.249939 577.996172 304.727439 
Q 577.208672 305.204939 576.311172 305.204939 
Q 575.333672 305.204939 574.503672 304.669939 
Q 573.676172 304.132439 573.211172 303.102439 
Q 572.748672 302.069939 572.748672 300.859939 
Q 572.748672 299.077439 573.603672 297.542439 
Q 574.458672 296.007439 576.031172 295.097439 
Q 577.606172 294.187439 579.668672 294.172439 
z
M 575.176172 299.327439 
Q 575.113672 300.407439 575.113672 300.907439 
Q 575.113672 301.984939 575.321172 302.992439 
Q 575.528672 303.999939 575.888672 304.407439 
Q 576.146172 304.694939 576.498672 304.694939 
Q 576.856172 304.694939 577.136172 304.277439 
Q 577.418672 303.859939 577.418672 302.577439 
Q 577.418672 300.422439 576.896172 299.602439 
Q 576.561172 299.069939 575.988672 299.069939 
Q 575.676172 299.069939 575.176172 299.327439 
z
M 585.363672 294.172439 
L 585.363672 302.837439 
Q 585.363672 303.812439 585.448672 304.082439 
Q 585.536172 304.352439 585.808672 304.524939 
Q 586.083672 304.694939 586.686172 304.694939 
L 586.926172 304.694939 
L 586.926172 304.984939 
L 581.348672 304.984939 
L 581.348672 304.694939 
L 581.631172 304.694939 
Q 582.311172 304.694939 582.598672 304.539939 
Q 582.888672 304.382439 582.988672 304.109939 
Q 583.091172 303.837439 583.091172 302.837439 
L 583.091172 297.344939 
Q 583.091172 296.609939 583.021172 296.427439 
Q 582.951172 296.242439 582.758672 296.114939 
Q 582.568672 295.984939 582.318672 295.984939 
Q 581.918672 295.984939 581.348672 296.234939 
L 581.208672 295.952439 
L 585.106172 294.172439 
L 585.363672 294.172439 
z
M 590.153672 302.577439 
Q 590.701172 302.577439 591.078672 302.962439 
Q 591.458672 303.344939 591.458672 303.882439 
Q 591.458672 304.422439 591.076172 304.802439 
Q 590.693672 305.179939 590.153672 305.179939 
Q 589.613672 305.179939 589.233672 304.802439 
Q 588.856172 304.422439 588.856172 303.882439 
Q 588.856172 303.344939 589.233672 302.962439 
Q 589.613672 302.577439 590.153672 302.577439 
z
M 594.988672 305.204939 
L 597.873672 296.462439 
L 595.676172 296.462439 
Q 594.388672 296.462439 593.738672 296.797439 
Q 593.286172 297.032439 592.988672 297.679939 
L 592.693672 297.679939 
L 593.458672 294.389939 
L 599.771172 294.389939 
L 596.216172 305.204939 
L 594.988672 305.204939 
z
" style="stroke: #ffffff; stroke-width: 3.8"/>
    <path d="M 579.668672 294.172439 
L 579.668672 294.389939 
Q 578.256172 294.749939 577.398672 295.317439 
Q 576.543672 295.882439 576.046172 296.692439 
Q 575.551172 297.499939 575.278672 298.694939 
Q 575.623672 298.462439 575.848672 298.389939 
Q 576.356172 298.234939 576.873672 298.234939 
Q 578.061172 298.234939 578.853672 299.099939 
Q 579.646172 299.962439 579.646172 301.452439 
Q 579.646172 302.499939 579.216172 303.374939 
Q 578.786172 304.249939 577.996172 304.727439 
Q 577.208672 305.204939 576.311172 305.204939 
Q 575.333672 305.204939 574.503672 304.669939 
Q 573.676172 304.132439 573.211172 303.102439 
Q 572.748672 302.069939 572.748672 300.859939 
Q 572.748672 299.077439 573.603672 297.542439 
Q 574.458672 296.007439 576.031172 295.097439 
Q 577.606172 294.187439 579.668672 294.172439 
z
M 575.176172 299.327439 
Q 575.113672 300.407439 575.113672 300.907439 
Q 575.113672 301.984939 575.321172 302.992439 
Q 575.528672 303.999939 575.888672 304.407439 
Q 576.146172 304.694939 576.498672 304.694939 
Q 576.856172 304.694939 577.136172 304.277439 
Q 577.418672 303.859939 577.418672 302.577439 
Q 577.418672 300.422439 576.896172 299.602439 
Q 576.561172 299.069939 575.988672 299.069939 
Q 575.676172 299.069939 575.176172 299.327439 
z
M 585.363672 294.172439 
L 585.363672 302.837439 
Q 585.363672 303.812439 585.448672 304.082439 
Q 585.536172 304.352439 585.808672 304.524939 
Q 586.083672 304.694939 586.686172 304.694939 
L 586.926172 304.694939 
L 586.926172 304.984939 
L 581.348672 304.984939 
L 581.348672 304.694939 
L 581.631172 304.694939 
Q 582.311172 304.694939 582.598672 304.539939 
Q 582.888672 304.382439 582.988672 304.109939 
Q 583.091172 303.837439 583.091172 302.837439 
L 583.091172 297.344939 
Q 583.091172 296.609939 583.021172 296.427439 
Q 582.951172 296.242439 582.758672 296.114939 
Q 582.568672 295.984939 582.318672 295.984939 
Q 581.918672 295.984939 581.348672 296.234939 
L 581.208672 295.952439 
L 585.106172 294.172439 
L 585.363672 294.172439 
z
M 590.153672 302.577439 
Q 590.701172 302.577439 591.078672 302.962439 
Q 591.458672 303.344939 591.458672 303.882439 
Q 591.458672 304.422439 591.076172 304.802439 
Q 590.693672 305.179939 590.153672 305.179939 
Q 589.613672 305.179939 589.233672 304.802439 
Q 588.856172 304.422439 588.856172 303.882439 
Q 588.856172 303.344939 589.233672 302.962439 
Q 589.613672 302.577439 590.153672 302.577439 
z
M 594.988672 305.204939 
L 597.873672 296.462439 
L 595.676172 296.462439 
Q 594.388672 296.462439 593.738672 296.797439 
Q 593.286172 297.032439 592.988672 297.679939 
L 592.693672 297.679939 
L 593.458672 294.389939 
L 599.771172 294.389939 
L 596.216172 305.204939 
L 594.988672 305.204939 
z
"/>
   </g>
   <g id="text_29">
    <path d="M 574.198704 414.676815 
Q 574.198704 416.165097 573.781516 417.454159 
Q 573.530735 418.244003 573.10886 418.750253 
Q 572.689329 419.254159 572.154954 419.551815 
Q 571.620579 419.849472 570.99011 419.849472 
Q 570.272923 419.849472 569.694016 419.483847 
Q 569.11511 419.115878 568.667454 418.433847 
Q 568.34636 417.936972 568.104954 417.109628 
Q 567.788548 415.989315 567.788548 414.794003 
Q 567.788548 413.176815 568.243235 411.819784 
Q 568.615891 410.699472 569.37761 410.104159 
Q 570.139329 409.506503 570.99011 409.506503 
Q 571.854954 409.506503 572.604954 410.097128 
Q 573.354954 410.685409 573.706516 411.681503 
Q 574.198704 413.050253 574.198704 414.676815 
z
M 571.941673 414.662753 
Q 571.941673 412.054159 571.913548 411.622909 
Q 571.838548 410.605722 571.561985 410.247128 
Q 571.379173 410.012753 570.969016 410.012753 
Q 570.65261 410.012753 570.469798 410.188534 
Q 570.197923 410.444003 570.101829 411.093222 
Q 570.008079 411.740097 570.008079 415.614315 
Q 570.008079 417.72369 570.155735 418.440878 
Q 570.265891 418.96119 570.469798 419.136972 
Q 570.676048 419.312753 571.011204 419.312753 
Q 571.379173 419.312753 571.561985 419.078378 
Q 571.869016 418.668222 571.913548 417.812753 
L 571.941673 414.662753 
z
M 576.622141 417.38619 
Q 577.135423 417.38619 577.489329 417.747128 
Q 577.845579 418.105722 577.845579 418.609628 
Q 577.845579 419.115878 577.486985 419.472128 
Q 577.128391 419.826034 576.622141 419.826034 
Q 576.115891 419.826034 575.759641 419.472128 
Q 575.405735 419.115878 575.405735 418.609628 
Q 575.405735 418.105722 575.759641 417.747128 
Q 576.115891 417.38619 576.622141 417.38619 
z
M 580.716673 414.662753 
L 580.716673 414.407284 
Q 581.551048 414.163534 581.872141 413.95494 
Q 582.195579 413.746347 582.429954 413.319784 
Q 582.664329 412.890878 582.664329 412.450253 
Q 582.664329 411.843222 582.22136 411.407284 
Q 581.778391 410.971347 581.119798 410.971347 
Q 580.093235 410.971347 579.376048 412.054159 
L 579.104173 411.960409 
Q 579.631516 410.736972 580.456516 410.122909 
Q 581.281516 409.506503 582.291673 409.506503 
Q 583.322923 409.506503 583.993235 410.136972 
Q 584.663548 410.765097 584.663548 411.608847 
Q 584.663548 412.157284 584.351829 412.668222 
Q 584.042454 413.176815 583.374485 413.563534 
Q 584.232298 413.980722 584.682298 414.59244 
Q 585.132298 415.204159 585.132298 416.127597 
Q 585.132298 417.679159 584.007298 418.769003 
Q 582.884641 419.856503 580.995579 419.856503 
Q 579.734641 419.856503 579.155735 419.436972 
Q 578.738548 419.144003 578.738548 418.684628 
Q 578.738548 418.347128 578.979954 418.110409 
Q 579.22136 417.871347 579.537766 417.871347 
Q 579.779173 417.871347 579.992454 417.972128 
Q 580.109641 418.030722 580.822141 418.614315 
Q 581.536985 419.195565 582.160423 419.195565 
Q 582.701829 419.195565 583.088548 418.769003 
Q 583.47761 418.340097 583.47761 417.679159 
Q 583.47761 416.676034 582.774485 415.82994 
Q 582.07136 414.983847 580.716673 414.662753 
z
" style="fill: #404040; stroke: #ffffff; stroke-width: 3.8"/>
    <path d="M 574.198704 414.676815 
Q 574.198704 416.165097 573.781516 417.454159 
Q 573.530735 418.244003 573.10886 418.750253 
Q 572.689329 419.254159 572.154954 419.551815 
Q 571.620579 419.849472 570.99011 419.849472 
Q 570.272923 419.849472 569.694016 419.483847 
Q 569.11511 419.115878 568.667454 418.433847 
Q 568.34636 417.936972 568.104954 417.109628 
Q 567.788548 415.989315 567.788548 414.794003 
Q 567.788548 413.176815 568.243235 411.819784 
Q 568.615891 410.699472 569.37761 410.104159 
Q 570.139329 409.506503 570.99011 409.506503 
Q 571.854954 409.506503 572.604954 410.097128 
Q 573.354954 410.685409 573.706516 411.681503 
Q 574.198704 413.050253 574.198704 414.676815 
z
M 571.941673 414.662753 
Q 571.941673 412.054159 571.913548 411.622909 
Q 571.838548 410.605722 571.561985 410.247128 
Q 571.379173 410.012753 570.969016 410.012753 
Q 570.65261 410.012753 570.469798 410.188534 
Q 570.197923 410.444003 570.101829 411.093222 
Q 570.008079 411.740097 570.008079 415.614315 
Q 570.008079 417.72369 570.155735 418.440878 
Q 570.265891 418.96119 570.469798 419.136972 
Q 570.676048 419.312753 571.011204 419.312753 
Q 571.379173 419.312753 571.561985 419.078378 
Q 571.869016 418.668222 571.913548 417.812753 
L 571.941673 414.662753 
z
M 576.622141 417.38619 
Q 577.135423 417.38619 577.489329 417.747128 
Q 577.845579 418.105722 577.845579 418.609628 
Q 577.845579 419.115878 577.486985 419.472128 
Q 577.128391 419.826034 576.622141 419.826034 
Q 576.115891 419.826034 575.759641 419.472128 
Q 575.405735 419.115878 575.405735 418.609628 
Q 575.405735 418.105722 575.759641 417.747128 
Q 576.115891 417.38619 576.622141 417.38619 
z
M 580.716673 414.662753 
L 580.716673 414.407284 
Q 581.551048 414.163534 581.872141 413.95494 
Q 582.195579 413.746347 582.429954 413.319784 
Q 582.664329 412.890878 582.664329 412.450253 
Q 582.664329 411.843222 582.22136 411.407284 
Q 581.778391 410.971347 581.119798 410.971347 
Q 580.093235 410.971347 579.376048 412.054159 
L 579.104173 411.960409 
Q 579.631516 410.736972 580.456516 410.122909 
Q 581.281516 409.506503 582.291673 409.506503 
Q 583.322923 409.506503 583.993235 410.136972 
Q 584.663548 410.765097 584.663548 411.608847 
Q 584.663548 412.157284 584.351829 412.668222 
Q 584.042454 413.176815 583.374485 413.563534 
Q 584.232298 413.980722 584.682298 414.59244 
Q 585.132298 415.204159 585.132298 416.127597 
Q 585.132298 417.679159 584.007298 418.769003 
Q 582.884641 419.856503 580.995579 419.856503 
Q 579.734641 419.856503 579.155735 419.436972 
Q 578.738548 419.144003 578.738548 418.684628 
Q 578.738548 418.347128 578.979954 418.110409 
Q 579.22136 417.871347 579.537766 417.871347 
Q 579.779173 417.871347 579.992454 417.972128 
Q 580.109641 418.030722 580.822141 418.614315 
Q 581.536985 419.195565 582.160423 419.195565 
Q 582.701829 419.195565 583.088548 418.769003 
Q 583.47761 418.340097 583.47761 417.679159 
Q 583.47761 416.676034 582.774485 415.82994 
Q 582.07136 414.983847 580.716673 414.662753 
z
" style="fill: #404040"/>
   </g>
   <g id="text_30">
    <path d="M 563.123486 381.296136 
L 567.841455 374.902386 
L 568.734424 374.902386 
L 568.734424 381.296136 
L 569.643799 381.296136 
L 569.643799 382.812542 
L 568.734424 382.812542 
L 568.734424 385.039104 
L 566.721143 385.039104 
L 566.721143 382.812542 
L 563.123486 382.812542 
L 563.123486 381.296136 
z
M 563.835986 381.296136 
L 566.721143 381.296136 
L 566.721143 377.377386 
L 563.835986 381.296136 
z
M 570.712549 385.245354 
L 570.712549 385.039104 
Q 571.928955 384.760198 572.775049 384.218792 
Q 573.621143 383.677386 574.11333 382.878167 
Q 574.607861 382.078948 574.80708 381.040667 
Q 574.352393 381.275042 574.033643 381.366448 
Q 573.714893 381.457854 573.36333 381.457854 
Q 572.235986 381.457854 571.483643 380.644573 
Q 570.733643 379.831292 570.733643 378.418011 
Q 570.733643 377.435979 571.139111 376.620354 
Q 571.546924 375.802386 572.301611 375.352386 
Q 573.056299 374.902386 573.86958 374.902386 
Q 574.741455 374.902386 575.517236 375.401604 
Q 576.293018 375.898479 576.754736 376.843011 
Q 577.216455 377.787542 577.216455 378.996917 
Q 577.216455 380.564886 576.464111 382.001604 
Q 575.714111 383.435979 574.228174 384.303167 
Q 572.742236 385.170354 570.712549 385.245354 
z
M 574.917236 380.424261 
Q 574.989893 379.603948 574.989893 378.982854 
Q 574.989893 377.649261 574.682861 376.498479 
Q 574.50708 375.860979 574.162549 375.560979 
Q 573.979736 375.399261 573.686768 375.399261 
Q 573.318799 375.399261 573.114893 375.715667 
Q 572.828955 376.146917 572.828955 377.363323 
Q 572.828955 379.393011 573.311768 380.161761 
Q 573.628174 380.658636 574.162549 380.658636 
Q 574.448486 380.658636 574.917236 380.424261 
z
M 579.62583 382.782073 
Q 580.139111 382.782073 580.493018 383.143011 
Q 580.849268 383.501604 580.849268 384.005511 
Q 580.849268 384.511761 580.490674 384.868011 
Q 580.13208 385.221917 579.62583 385.221917 
Q 579.11958 385.221917 578.76333 384.868011 
Q 578.409424 384.511761 578.409424 384.005511 
Q 578.409424 383.501604 578.76333 383.143011 
Q 579.11958 382.782073 579.62583 382.782073 
z
M 588.546143 374.902386 
L 588.546143 375.106292 
Q 587.221924 375.443792 586.418018 375.975823 
Q 585.616455 376.505511 585.150049 377.264886 
Q 584.685986 378.021917 584.430518 379.142229 
Q 584.753955 378.924261 584.964893 378.856292 
Q 585.440674 378.710979 585.92583 378.710979 
Q 587.039111 378.710979 587.78208 379.521917 
Q 588.525049 380.330511 588.525049 381.727386 
Q 588.525049 382.709417 588.121924 383.529729 
Q 587.718799 384.350042 586.978174 384.797698 
Q 586.239893 385.245354 585.398486 385.245354 
Q 584.48208 385.245354 583.703955 384.743792 
Q 582.928174 384.239886 582.492236 383.274261 
Q 582.058643 382.306292 582.058643 381.171917 
Q 582.058643 379.500823 582.860205 378.061761 
Q 583.661768 376.622698 585.135986 375.769573 
Q 586.612549 374.916448 588.546143 374.902386 
z
M 584.334424 379.735198 
Q 584.27583 380.747698 584.27583 381.216448 
Q 584.27583 382.226604 584.470361 383.171136 
Q 584.664893 384.115667 585.002393 384.497698 
Q 585.243799 384.767229 585.574268 384.767229 
Q 585.909424 384.767229 586.171924 384.375823 
Q 586.436768 383.984417 586.436768 382.782073 
Q 586.436768 380.761761 585.946924 379.993011 
Q 585.632861 379.493792 585.096143 379.493792 
Q 584.803174 379.493792 584.334424 379.735198 
z
" style="fill: #404040; stroke: #ffffff; stroke-width: 3.8"/>
    <path d="M 563.123486 381.296136 
L 567.841455 374.902386 
L 568.734424 374.902386 
L 568.734424 381.296136 
L 569.643799 381.296136 
L 569.643799 382.812542 
L 568.734424 382.812542 
L 568.734424 385.039104 
L 566.721143 385.039104 
L 566.721143 382.812542 
L 563.123486 382.812542 
L 563.123486 381.296136 
z
M 563.835986 381.296136 
L 566.721143 381.296136 
L 566.721143 377.377386 
L 563.835986 381.296136 
z
M 570.712549 385.245354 
L 570.712549 385.039104 
Q 571.928955 384.760198 572.775049 384.218792 
Q 573.621143 383.677386 574.11333 382.878167 
Q 574.607861 382.078948 574.80708 381.040667 
Q 574.352393 381.275042 574.033643 381.366448 
Q 573.714893 381.457854 573.36333 381.457854 
Q 572.235986 381.457854 571.483643 380.644573 
Q 570.733643 379.831292 570.733643 378.418011 
Q 570.733643 377.435979 571.139111 376.620354 
Q 571.546924 375.802386 572.301611 375.352386 
Q 573.056299 374.902386 573.86958 374.902386 
Q 574.741455 374.902386 575.517236 375.401604 
Q 576.293018 375.898479 576.754736 376.843011 
Q 577.216455 377.787542 577.216455 378.996917 
Q 577.216455 380.564886 576.464111 382.001604 
Q 575.714111 383.435979 574.228174 384.303167 
Q 572.742236 385.170354 570.712549 385.245354 
z
M 574.917236 380.424261 
Q 574.989893 379.603948 574.989893 378.982854 
Q 574.989893 377.649261 574.682861 376.498479 
Q 574.50708 375.860979 574.162549 375.560979 
Q 573.979736 375.399261 573.686768 375.399261 
Q 573.318799 375.399261 573.114893 375.715667 
Q 572.828955 376.146917 572.828955 377.363323 
Q 572.828955 379.393011 573.311768 380.161761 
Q 573.628174 380.658636 574.162549 380.658636 
Q 574.448486 380.658636 574.917236 380.424261 
z
M 579.62583 382.782073 
Q 580.139111 382.782073 580.493018 383.143011 
Q 580.849268 383.501604 580.849268 384.005511 
Q 580.849268 384.511761 580.490674 384.868011 
Q 580.13208 385.221917 579.62583 385.221917 
Q 579.11958 385.221917 578.76333 384.868011 
Q 578.409424 384.511761 578.409424 384.005511 
Q 578.409424 383.501604 578.76333 383.143011 
Q 579.11958 382.782073 579.62583 382.782073 
z
M 588.546143 374.902386 
L 588.546143 375.106292 
Q 587.221924 375.443792 586.418018 375.975823 
Q 585.616455 376.505511 585.150049 377.264886 
Q 584.685986 378.021917 584.430518 379.142229 
Q 584.753955 378.924261 584.964893 378.856292 
Q 585.440674 378.710979 585.92583 378.710979 
Q 587.039111 378.710979 587.78208 379.521917 
Q 588.525049 380.330511 588.525049 381.727386 
Q 588.525049 382.709417 588.121924 383.529729 
Q 587.718799 384.350042 586.978174 384.797698 
Q 586.239893 385.245354 585.398486 385.245354 
Q 584.48208 385.245354 583.703955 384.743792 
Q 582.928174 384.239886 582.492236 383.274261 
Q 582.058643 382.306292 582.058643 381.171917 
Q 582.058643 379.500823 582.860205 378.061761 
Q 583.661768 376.622698 585.135986 375.769573 
Q 586.612549 374.916448 588.546143 374.902386 
z
M 584.334424 379.735198 
Q 584.27583 380.747698 584.27583 381.216448 
Q 584.27583 382.226604 584.470361 383.171136 
Q 584.664893 384.115667 585.002393 384.497698 
Q 585.243799 384.767229 585.574268 384.767229 
Q 585.909424 384.767229 586.171924 384.375823 
Q 586.436768 383.984417 586.436768 382.782073 
Q 586.436768 380.761761 585.946924 379.993011 
Q 585.632861 379.493792 585.096143 379.493792 
Q 584.803174 379.493792 584.334424 379.735198 
z
" style="fill: #404040"/>
   </g>
   <g id="text_31">
    <path d="M 473.0229 322.035871 
L 477.6729 322.035871 
L 476.934619 323.927277 
L 473.0229 323.927277 
L 472.650244 324.916339 
Q 475.176806 325.010089 476.538525 326.174933 
Q 477.658838 327.133527 477.658838 328.563214 
Q 477.658838 329.477277 477.138525 330.353839 
Q 476.618213 331.228058 475.673681 331.701496 
Q 474.72915 332.174933 473.601806 332.174933 
Q 472.3854 332.174933 471.733838 331.720246 
Q 471.27915 331.396808 471.27915 330.986652 
Q 471.27915 330.672589 471.515869 330.431183 
Q 471.754931 330.189777 472.071338 330.189777 
Q 472.357275 330.189777 472.650244 330.306964 
Q 472.943213 330.424152 473.653369 330.921027 
Q 474.098681 331.228058 474.422119 331.345246 
Q 474.649463 331.434308 474.9354 331.434308 
Q 475.5354 331.434308 475.954931 330.996027 
Q 476.376806 330.555402 476.376806 329.938996 
Q 476.376806 328.649933 475.087744 327.846027 
Q 473.798681 327.039777 471.836963 327.039777 
Q 471.637744 327.039777 471.243994 327.046808 
L 473.0229 322.035871 
z
M 480.112744 329.711652 
Q 480.626025 329.711652 480.979931 330.072589 
Q 481.336181 330.431183 481.336181 330.935089 
Q 481.336181 331.441339 480.977588 331.797589 
Q 480.618994 332.151496 480.112744 332.151496 
Q 479.606494 332.151496 479.250244 331.797589 
Q 478.896338 331.441339 478.896338 330.935089 
Q 478.896338 330.431183 479.250244 330.072589 
Q 479.606494 329.711652 480.112744 329.711652 
z
M 489.033056 321.831964 
L 489.033056 322.035871 
Q 487.708838 322.373371 486.904931 322.905402 
Q 486.103369 323.435089 485.636963 324.194464 
Q 485.1729 324.951496 484.917431 326.071808 
Q 485.240869 325.853839 485.451806 325.785871 
Q 485.927588 325.640558 486.412744 325.640558 
Q 487.526025 325.640558 488.268994 326.451496 
Q 489.011963 327.260089 489.011963 328.656964 
Q 489.011963 329.638996 488.608838 330.459308 
Q 488.205713 331.279621 487.465088 331.727277 
Q 486.726806 332.174933 485.8854 332.174933 
Q 484.968994 332.174933 484.190869 331.673371 
Q 483.415088 331.169464 482.97915 330.203839 
Q 482.545556 329.235871 482.545556 328.101496 
Q 482.545556 326.430402 483.347119 324.991339 
Q 484.148681 323.552277 485.6229 322.699152 
Q 487.099463 321.846027 489.033056 321.831964 
z
M 484.821338 326.664777 
Q 484.762744 327.677277 484.762744 328.146027 
Q 484.762744 329.156183 484.957275 330.100714 
Q 485.151806 331.045246 485.489306 331.427277 
Q 485.730713 331.696808 486.061181 331.696808 
Q 486.396338 331.696808 486.658838 331.305402 
Q 486.923681 330.913996 486.923681 329.711652 
Q 486.923681 327.691339 486.433838 326.922589 
Q 486.119775 326.423371 485.583056 326.423371 
Q 485.290088 326.423371 484.821338 326.664777 
z
" style="fill: #404040; stroke: #ffffff; stroke-width: 3.8"/>
    <path d="M 473.0229 322.035871 
L 477.6729 322.035871 
L 476.934619 323.927277 
L 473.0229 323.927277 
L 472.650244 324.916339 
Q 475.176806 325.010089 476.538525 326.174933 
Q 477.658838 327.133527 477.658838 328.563214 
Q 477.658838 329.477277 477.138525 330.353839 
Q 476.618213 331.228058 475.673681 331.701496 
Q 474.72915 332.174933 473.601806 332.174933 
Q 472.3854 332.174933 471.733838 331.720246 
Q 471.27915 331.396808 471.27915 330.986652 
Q 471.27915 330.672589 471.515869 330.431183 
Q 471.754931 330.189777 472.071338 330.189777 
Q 472.357275 330.189777 472.650244 330.306964 
Q 472.943213 330.424152 473.653369 330.921027 
Q 474.098681 331.228058 474.422119 331.345246 
Q 474.649463 331.434308 474.9354 331.434308 
Q 475.5354 331.434308 475.954931 330.996027 
Q 476.376806 330.555402 476.376806 329.938996 
Q 476.376806 328.649933 475.087744 327.846027 
Q 473.798681 327.039777 471.836963 327.039777 
Q 471.637744 327.039777 471.243994 327.046808 
L 473.0229 322.035871 
z
M 480.112744 329.711652 
Q 480.626025 329.711652 480.979931 330.072589 
Q 481.336181 330.431183 481.336181 330.935089 
Q 481.336181 331.441339 480.977588 331.797589 
Q 480.618994 332.151496 480.112744 332.151496 
Q 479.606494 332.151496 479.250244 331.797589 
Q 478.896338 331.441339 478.896338 330.935089 
Q 478.896338 330.431183 479.250244 330.072589 
Q 479.606494 329.711652 480.112744 329.711652 
z
M 489.033056 321.831964 
L 489.033056 322.035871 
Q 487.708838 322.373371 486.904931 322.905402 
Q 486.103369 323.435089 485.636963 324.194464 
Q 485.1729 324.951496 484.917431 326.071808 
Q 485.240869 325.853839 485.451806 325.785871 
Q 485.927588 325.640558 486.412744 325.640558 
Q 487.526025 325.640558 488.268994 326.451496 
Q 489.011963 327.260089 489.011963 328.656964 
Q 489.011963 329.638996 488.608838 330.459308 
Q 488.205713 331.279621 487.465088 331.727277 
Q 486.726806 332.174933 485.8854 332.174933 
Q 484.968994 332.174933 484.190869 331.673371 
Q 483.415088 331.169464 482.97915 330.203839 
Q 482.545556 329.235871 482.545556 328.101496 
Q 482.545556 326.430402 483.347119 324.991339 
Q 484.148681 323.552277 485.6229 322.699152 
Q 487.099463 321.846027 489.033056 321.831964 
z
M 484.821338 326.664777 
Q 484.762744 327.677277 484.762744 328.146027 
Q 484.762744 329.156183 484.957275 330.100714 
Q 485.151806 331.045246 485.489306 331.427277 
Q 485.730713 331.696808 486.061181 331.696808 
Q 486.396338 331.696808 486.658838 331.305402 
Q 486.923681 330.913996 486.923681 329.711652 
Q 486.923681 327.691339 486.433838 326.922589 
Q 486.119775 326.423371 485.583056 326.423371 
Q 485.290088 326.423371 484.821338 326.664777 
z
" style="fill: #404040"/>
   </g>
   <g id="text_32">
    <path d="M 321.856586 369.716252 
L 326.506586 369.716252 
L 325.768304 371.607658 
L 321.856586 371.607658 
L 321.483929 372.596721 
Q 324.010492 372.690471 325.372211 373.855315 
Q 326.492523 374.813908 326.492523 376.243596 
Q 326.492523 377.157658 325.972211 378.034221 
Q 325.451898 378.90844 324.507367 379.381877 
Q 323.562836 379.855315 322.435492 379.855315 
Q 321.219086 379.855315 320.567523 379.400627 
Q 320.112836 379.07719 320.112836 378.667033 
Q 320.112836 378.352971 320.349554 378.111565 
Q 320.588617 377.870158 320.905023 377.870158 
Q 321.190961 377.870158 321.483929 377.987346 
Q 321.776898 378.104533 322.487054 378.601408 
Q 322.932367 378.90844 323.255804 379.025627 
Q 323.483148 379.11469 323.769086 379.11469 
Q 324.369086 379.11469 324.788617 378.676408 
Q 325.210492 378.235783 325.210492 377.619377 
Q 325.210492 376.330315 323.921429 375.526408 
Q 322.632367 374.720158 320.670648 374.720158 
Q 320.471429 374.720158 320.077679 374.72719 
L 321.856586 369.716252 
z
M 333.282367 379.649065 
L 327.437054 379.649065 
L 327.437054 379.487346 
Q 330.125336 376.288127 330.699554 375.181877 
Q 331.276117 374.075627 331.276117 373.02094 
Q 331.276117 372.25219 330.800336 371.743596 
Q 330.324554 371.232658 329.635492 371.232658 
Q 328.508148 371.232658 327.884711 372.362346 
L 327.612836 372.266252 
Q 328.008929 370.860002 328.815179 370.187346 
Q 329.621429 369.512346 330.676117 369.512346 
Q 331.428461 369.512346 332.051898 369.863908 
Q 332.675336 370.215471 333.026898 370.82719 
Q 333.378461 371.438908 333.378461 371.973283 
Q 333.378461 372.948283 332.834711 373.951408 
Q 332.096429 375.306096 329.605023 377.729533 
L 331.751898 377.729533 
Q 332.541742 377.729533 332.780804 377.663908 
Q 333.019867 377.598283 333.172211 377.441252 
Q 333.326898 377.284221 333.575336 376.777971 
L 333.840179 376.777971 
L 333.282367 379.649065 
z
M 336.446429 377.392033 
Q 336.959711 377.392033 337.313617 377.752971 
Q 337.669867 378.111565 337.669867 378.615471 
Q 337.669867 379.121721 337.311273 379.477971 
Q 336.952679 379.831877 336.446429 379.831877 
Q 335.940179 379.831877 335.583929 379.477971 
Q 335.230023 379.121721 335.230023 378.615471 
Q 335.230023 378.111565 335.583929 377.752971 
Q 335.940179 377.392033 336.446429 377.392033 
z
M 345.366742 369.512346 
L 345.366742 369.716252 
Q 344.042523 370.053752 343.238617 370.585783 
Q 342.437054 371.115471 341.970648 371.874846 
Q 341.506586 372.631877 341.251117 373.75219 
Q 341.574554 373.534221 341.785492 373.466252 
Q 342.261273 373.32094 342.746429 373.32094 
Q 343.859711 373.32094 344.602679 374.131877 
Q 345.345648 374.940471 345.345648 376.337346 
Q 345.345648 377.319377 344.942523 378.13969 
Q 344.539398 378.960002 343.798773 379.407658 
Q 343.060492 379.855315 342.219086 379.855315 
Q 341.302679 379.855315 340.524554 379.353752 
Q 339.748773 378.849846 339.312836 377.884221 
Q 338.879242 376.916252 338.879242 375.781877 
Q 338.879242 374.110783 339.680804 372.671721 
Q 340.482367 371.232658 341.956586 370.379533 
Q 343.433148 369.526408 345.366742 369.512346 
z
M 341.155023 374.345158 
Q 341.096429 375.357658 341.096429 375.826408 
Q 341.096429 376.836565 341.290961 377.781096 
Q 341.485492 378.725627 341.822992 379.107658 
Q 342.064398 379.37719 342.394867 379.37719 
Q 342.730023 379.37719 342.992523 378.985783 
Q 343.257367 378.594377 343.257367 377.392033 
Q 343.257367 375.371721 342.767523 374.602971 
Q 342.453461 374.103752 341.916742 374.103752 
Q 341.623773 374.103752 341.155023 374.345158 
z
" style="fill: #404040; stroke: #ffffff; stroke-width: 3.8"/>
    <path d="M 321.856586 369.716252 
L 326.506586 369.716252 
L 325.768304 371.607658 
L 321.856586 371.607658 
L 321.483929 372.596721 
Q 324.010492 372.690471 325.372211 373.855315 
Q 326.492523 374.813908 326.492523 376.243596 
Q 326.492523 377.157658 325.972211 378.034221 
Q 325.451898 378.90844 324.507367 379.381877 
Q 323.562836 379.855315 322.435492 379.855315 
Q 321.219086 379.855315 320.567523 379.400627 
Q 320.112836 379.07719 320.112836 378.667033 
Q 320.112836 378.352971 320.349554 378.111565 
Q 320.588617 377.870158 320.905023 377.870158 
Q 321.190961 377.870158 321.483929 377.987346 
Q 321.776898 378.104533 322.487054 378.601408 
Q 322.932367 378.90844 323.255804 379.025627 
Q 323.483148 379.11469 323.769086 379.11469 
Q 324.369086 379.11469 324.788617 378.676408 
Q 325.210492 378.235783 325.210492 377.619377 
Q 325.210492 376.330315 323.921429 375.526408 
Q 322.632367 374.720158 320.670648 374.720158 
Q 320.471429 374.720158 320.077679 374.72719 
L 321.856586 369.716252 
z
M 333.282367 379.649065 
L 327.437054 379.649065 
L 327.437054 379.487346 
Q 330.125336 376.288127 330.699554 375.181877 
Q 331.276117 374.075627 331.276117 373.02094 
Q 331.276117 372.25219 330.800336 371.743596 
Q 330.324554 371.232658 329.635492 371.232658 
Q 328.508148 371.232658 327.884711 372.362346 
L 327.612836 372.266252 
Q 328.008929 370.860002 328.815179 370.187346 
Q 329.621429 369.512346 330.676117 369.512346 
Q 331.428461 369.512346 332.051898 369.863908 
Q 332.675336 370.215471 333.026898 370.82719 
Q 333.378461 371.438908 333.378461 371.973283 
Q 333.378461 372.948283 332.834711 373.951408 
Q 332.096429 375.306096 329.605023 377.729533 
L 331.751898 377.729533 
Q 332.541742 377.729533 332.780804 377.663908 
Q 333.019867 377.598283 333.172211 377.441252 
Q 333.326898 377.284221 333.575336 376.777971 
L 333.840179 376.777971 
L 333.282367 379.649065 
z
M 336.446429 377.392033 
Q 336.959711 377.392033 337.313617 377.752971 
Q 337.669867 378.111565 337.669867 378.615471 
Q 337.669867 379.121721 337.311273 379.477971 
Q 336.952679 379.831877 336.446429 379.831877 
Q 335.940179 379.831877 335.583929 379.477971 
Q 335.230023 379.121721 335.230023 378.615471 
Q 335.230023 378.111565 335.583929 377.752971 
Q 335.940179 377.392033 336.446429 377.392033 
z
M 345.366742 369.512346 
L 345.366742 369.716252 
Q 344.042523 370.053752 343.238617 370.585783 
Q 342.437054 371.115471 341.970648 371.874846 
Q 341.506586 372.631877 341.251117 373.75219 
Q 341.574554 373.534221 341.785492 373.466252 
Q 342.261273 373.32094 342.746429 373.32094 
Q 343.859711 373.32094 344.602679 374.131877 
Q 345.345648 374.940471 345.345648 376.337346 
Q 345.345648 377.319377 344.942523 378.13969 
Q 344.539398 378.960002 343.798773 379.407658 
Q 343.060492 379.855315 342.219086 379.855315 
Q 341.302679 379.855315 340.524554 379.353752 
Q 339.748773 378.849846 339.312836 377.884221 
Q 338.879242 376.916252 338.879242 375.781877 
Q 338.879242 374.110783 339.680804 372.671721 
Q 340.482367 371.232658 341.956586 370.379533 
Q 343.433148 369.526408 345.366742 369.512346 
z
M 341.155023 374.345158 
Q 341.096429 375.357658 341.096429 375.826408 
Q 341.096429 376.836565 341.290961 377.781096 
Q 341.485492 378.725627 341.822992 379.107658 
Q 342.064398 379.37719 342.394867 379.37719 
Q 342.730023 379.37719 342.992523 378.985783 
Q 343.257367 378.594377 343.257367 377.392033 
Q 343.257367 375.371721 342.767523 374.602971 
Q 342.453461 374.103752 341.916742 374.103752 
Q 341.623773 374.103752 341.155023 374.345158 
z
" style="fill: #404040"/>
   </g>
  </g>
 </g>
 <defs>
  <clipPath id="p530a9784d2">
   <rect x="7.2" y="51.034687" width="730.764" height="435.17869"/>
  </clipPath>
 </defs>
</svg>
