<?xml version="1.0" encoding="utf-8" standalone="no"?>
<!DOCTYPE svg PUBLIC "-//W3C//DTD SVG 1.1//EN"
  "http://www.w3.org/Graphics/SVG/1.1/DTD/svg11.dtd">
<svg xmlns:xlink="http://www.w3.org/1999/xlink" width="748.8pt" height="496.714687pt" viewBox="0 0 748.8 496.714687" xmlns="http://www.w3.org/2000/svg" version="1.1">
 <metadata>
  <rdf:RDF xmlns:dc="http://purl.org/dc/elements/1.1/" xmlns:cc="http://creativecommons.org/ns#" xmlns:rdf="http://www.w3.org/1999/02/22-rdf-syntax-ns#">
   <cc:Work>
    <dc:type rdf:resource="http://purl.org/dc/dcmitype/StillImage"/>
    <dc:date>2026-07-13T16:58:29.751420</dc:date>
    <dc:format>image/svg+xml</dc:format>
    <dc:creator>
     <cc:Agent>
      <dc:title>Matplotlib v3.10.8, https://matplotlib.org/</dc:title>
     </cc:Agent>
    </dc:creator>
   </cc:Work>
  </rdf:RDF>
 </metadata>
 <defs>
  <style type="text/css">*{stroke-linejoin: round; stroke-linecap: butt}</style>
 </defs>
 <g id="figure_1">
  <g id="patch_1">
   <path d="M 0 496.714687 
L 748.8 496.714687 
L 748.8 0 
L 0 0 
L 0 496.714687 
z
" style="fill: none"/>
  </g>
  <g id="axes_1">
   <g id="patch_2">
    <path d="M 120.913548 448.328738 
Q 120.913548 457.820953 120.913548 465.005883 
" clip-path="url(#p51ce116bb8)" style="fill: none; stroke: #111111; stroke-width: 2.063699; stroke-linejoin: miter; stroke-linecap: round"/>
    <path d="M 124.517932 457.797115 
L 120.913548 465.005883 
L 117.309165 457.797115 
z
" clip-path="url(#p51ce116bb8)" style="fill: #111111; stroke: #111111; stroke-width: 2.063699; stroke-linejoin: miter; stroke-linecap: round"/>
   </g>
   <g id="patch_3">
    <path d="M 120.913548 375.323533 
Q 120.913548 391.655179 120.913548 404.839778 
" clip-path="url(#p51ce116bb8)" style="fill: none; stroke: #111111; stroke-width: 2.814804; stroke-linejoin: miter; stroke-linecap: round"/>
    <path d="M 124.758286 397.150303 
L 120.913548 404.839778 
L 117.068811 397.150303 
z
" clip-path="url(#p51ce116bb8)" style="fill: #111111; stroke: #111111; stroke-width: 2.814804; stroke-linejoin: miter; stroke-linecap: round"/>
   </g>
   <g id="patch_4">
    <path d="M 120.913548 270.827089 
Q 120.913548 293.977792 120.913548 313.179279 
" clip-path="url(#p51ce116bb8)" style="fill: none; stroke: #111111; stroke-width: 3.532286; stroke-linejoin: miter; stroke-linecap: round"/>
    <path d="M 124.98788 305.030616 
L 120.913548 313.179279 
L 116.839217 305.030616 
z
" clip-path="url(#p51ce116bb8)" style="fill: #111111; stroke: #111111; stroke-width: 3.532286; stroke-linejoin: miter; stroke-linecap: round"/>
   </g>
   <g id="patch_5">
    <path d="M 589.034323 270.271774 
Q 589.034323 308.403923 589.034323 344.75367 
" clip-path="url(#p51ce116bb8)" style="fill: none; stroke: #111111; stroke-width: 1.59423; stroke-linejoin: miter; stroke-linecap: round"/>
    <path d="M 592.488476 337.845363 
L 589.034323 344.75367 
L 585.580169 337.845363 
z
" clip-path="url(#p51ce116bb8)" style="fill: #111111; stroke: #111111; stroke-width: 1.59423; stroke-linejoin: miter; stroke-linecap: round"/>
   </g>
   <g id="line2d_1">
    <path d="M 166.398968 467.313169 
L 553.025032 467.313169 
" clip-path="url(#p51ce116bb8)" style="fill: none; stroke-dasharray: 5.6,4.2; stroke-dashoffset: 0; stroke: #404040; stroke-width: 1.4"/>
   </g>
   <g id="line2d_2">
    <path d="M 166.398968 407.986825 
L 553.025032 407.986825 
" clip-path="url(#p51ce116bb8)" style="fill: none; stroke-dasharray: 5.6,4.2; stroke-dashoffset: 0; stroke: #404040; stroke-width: 1.4"/>
   </g>
   <g id="line2d_3">
    <path d="M 577.662968 346.536073 
L 505.644387 346.536073 
" clip-path="url(#p51ce116bb8)" style="fill: none; stroke-dasharray: 5.6,4.2; stroke-dashoffset: 0; stroke: #404040; stroke-width: 1.4"/>
   </g>
   <g id="patch_6">
    <path d="M 668.633806 346.536073 
Q 583.751257 405.219005 499.640894 463.368093 
" clip-path="url(#p51ce116bb8)" style="fill: none; stroke: #404040; stroke-width: 0.839648; stroke-linejoin: miter; stroke-linecap: round"/>
    <path d="M 505.868793 462.48254 
L 499.640894 463.368093 
L 502.669191 457.854442 
z
" clip-path="url(#p51ce116bb8)" style="fill: #404040; stroke: #404040; stroke-width: 0.839648; stroke-linejoin: miter; stroke-linecap: round"/>
   </g>
   <g id="patch_7">
    <path d="M 623.148387 346.536073 
Q 581.172441 375.555838 541.333869 403.097944 
" clip-path="url(#p51ce116bb8)" style="fill: none; stroke: #404040; stroke-width: 2.324107; stroke-linejoin: miter; stroke-linecap: round"/>
    <path d="M 548.6572 402.056631 
L 541.333869 403.097944 
L 544.894817 396.614492 
z
" clip-path="url(#p51ce116bb8)" style="fill: #404040; stroke: #404040; stroke-width: 2.324107; stroke-linejoin: miter; stroke-linecap: round"/>
   </g>
   <g id="patch_8">
    <path d="M 417.516387 336.469904 
Q 479.47479 341.27121 535.859732 345.640614 
" clip-path="url(#p51ce116bb8)" style="fill: none; stroke: #404040; stroke-width: 5; stroke-linejoin: miter; stroke-linecap: round"/>
    <path d="M 527.809335 340.804178 
L 535.859732 345.640614 
L 527.160345 349.17907 
z
" clip-path="url(#p51ce116bb8)" style="fill: #404040; stroke: #404040; stroke-width: 5; stroke-linejoin: miter; stroke-linecap: round"/>
   </g>
   <g id="patch_9">
    <path d="M 372.030968 336.469904 
Q 336.492459 370.164789 301.977215 402.889492 
" clip-path="url(#p51ce116bb8)" style="fill: none; stroke: #404040; stroke-width: 1.261212; stroke-linejoin: miter; stroke-linecap: round"/>
    <path d="M 308.296416 400.968419 
L 301.977215 402.889492 
L 304.231877 396.681487 
z
" clip-path="url(#p51ce116bb8)" style="fill: #404040; stroke: #404040; stroke-width: 1.261212; stroke-linejoin: miter; stroke-linecap: round"/>
   </g>
   <g id="line2d_4">
    <path d="M 120.913548 407.986825 
L 120.913548 426.971255 
" clip-path="url(#p51ce116bb8)" style="fill: none; stroke: #111111; stroke-width: 2.063699"/>
   </g>
   <g id="line2d_5">
    <path d="M 120.913548 317.128496 
L 120.913548 349.791787 
" clip-path="url(#p51ce116bb8)" style="fill: none; stroke: #111111; stroke-width: 2.814804"/>
   </g>
   <g id="line2d_6">
    <path d="M 120.913548 198.993936 
L 120.913548 245.295342 
" clip-path="url(#p51ce116bb8)" style="fill: none; stroke: #111111; stroke-width: 3.532286"/>
   </g>
   <g id="line2d_7">
    <path d="M 589.034323 168.475728 
L 589.034323 244.740027 
" clip-path="url(#p51ce116bb8)" style="fill: none; stroke: #111111; stroke-width: 1.59423"/>
   </g>
   <g id="line2d_8">
    <path d="M 75.428129 467.313169 
L 166.398968 467.313169 
" clip-path="url(#p51ce116bb8)" style="fill: none; stroke: #111111; stroke-width: 3.6; stroke-linecap: round"/>
   </g>
   <g id="line2d_9">
    <path d="M 75.428129 407.986825 
L 166.398968 407.986825 
" clip-path="url(#p51ce116bb8)" style="fill: none; stroke: #111111; stroke-width: 3.6; stroke-linecap: round"/>
   </g>
   <g id="line2d_10">
    <path d="M 75.428129 317.128496 
L 166.398968 317.128496 
" clip-path="url(#p51ce116bb8)" style="fill: none; stroke: #111111; stroke-width: 3.6; stroke-linecap: round"/>
   </g>
   <g id="line2d_11">
    <path d="M 75.428129 198.993936 
L 166.398968 198.993936 
" clip-path="url(#p51ce116bb8)" style="fill: none; stroke: #111111; stroke-width: 3.6; stroke-linecap: round"/>
   </g>
   <g id="line2d_12">
    <path d="M 326.545548 336.469904 
L 417.516387 336.469904 
" clip-path="url(#p51ce116bb8)" style="fill: none; stroke: #111111; stroke-width: 3.6; stroke-linecap: round"/>
   </g>
   <g id="line2d_13">
    <path d="M 577.662968 346.536073 
L 668.633806 346.536073 
" clip-path="url(#p51ce116bb8)" style="fill: none; stroke: #111111; stroke-width: 3.6; stroke-linecap: round"/>
   </g>
   <g id="line2d_14">
    <path d="M 577.662968 168.475728 
L 668.633806 168.475728 
" clip-path="url(#p51ce116bb8)" style="fill: none; stroke: #111111; stroke-width: 3.6; stroke-linecap: round"/>
   </g>
   <g id="text_1">
    <!-- $^{216}\mathrm{Gd}$ -->
    <g transform="translate(326.97 33.034687) scale(0.34 -0.34)">
     <defs>
      <path id="DejaVuSans-32" d="M 1228 531 
L 3431 531 
L 3431 0 
L 469 0 
L 469 531 
Q 828 903 1448 1529 
Q 2069 2156 2228 2338 
Q 2531 2678 2651 2914 
Q 2772 3150 2772 3378 
Q 2772 3750 2511 3984 
Q 2250 4219 1831 4219 
Q 1534 4219 1204 4116 
Q 875 4013 500 3803 
L 500 4441 
Q 881 4594 1212 4672 
Q 1544 4750 1819 4750 
Q 2544 4750 2975 4387 
Q 3406 4025 3406 3419 
Q 3406 3131 3298 2873 
Q 3191 2616 2906 2266 
Q 2828 2175 2409 1742 
Q 1991 1309 1228 531 
z
" transform="scale(0.015625)"/>
      <path id="DejaVuSans-31" d="M 794 531 
L 1825 531 
L 1825 4091 
L 703 3866 
L 703 4441 
L 1819 4666 
L 2450 4666 
L 2450 531 
L 3481 531 
L 3481 0 
L 794 0 
L 794 531 
z
" transform="scale(0.015625)"/>
      <path id="DejaVuSans-36" d="M 2113 2584 
Q 1688 2584 1439 2293 
Q 1191 2003 1191 1497 
Q 1191 994 1439 701 
Q 1688 409 2113 409 
Q 2538 409 2786 701 
Q 3034 994 3034 1497 
Q 3034 2003 2786 2293 
Q 2538 2584 2113 2584 
z
M 3366 4563 
L 3366 3988 
Q 3128 4100 2886 4159 
Q 2644 4219 2406 4219 
Q 1781 4219 1451 3797 
Q 1122 3375 1075 2522 
Q 1259 2794 1537 2939 
Q 1816 3084 2150 3084 
Q 2853 3084 3261 2657 
Q 3669 2231 3669 1497 
Q 3669 778 3244 343 
Q 2819 -91 2113 -91 
Q 1303 -91 875 529 
Q 447 1150 447 2328 
Q 447 3434 972 4092 
Q 1497 4750 2381 4750 
Q 2619 4750 2861 4703 
Q 3103 4656 3366 4563 
z
" transform="scale(0.015625)"/>
      <path id="DejaVuSans-47" d="M 3809 666 
L 3809 1919 
L 2778 1919 
L 2778 2438 
L 4434 2438 
L 4434 434 
Q 4069 175 3628 42 
Q 3188 -91 2688 -91 
Q 1594 -91 976 548 
Q 359 1188 359 2328 
Q 359 3472 976 4111 
Q 1594 4750 2688 4750 
Q 3144 4750 3555 4637 
Q 3966 4525 4313 4306 
L 4313 3634 
Q 3963 3931 3569 4081 
Q 3175 4231 2741 4231 
Q 1884 4231 1454 3753 
Q 1025 3275 1025 2328 
Q 1025 1384 1454 906 
Q 1884 428 2741 428 
Q 3075 428 3337 486 
Q 3600 544 3809 666 
z
" transform="scale(0.015625)"/>
      <path id="DejaVuSans-64" d="M 2906 2969 
L 2906 4863 
L 3481 4863 
L 3481 0 
L 2906 0 
L 2906 525 
Q 2725 213 2448 61 
Q 2172 -91 1784 -91 
Q 1150 -91 751 415 
Q 353 922 353 1747 
Q 353 2572 751 3078 
Q 1150 3584 1784 3584 
Q 2172 3584 2448 3432 
Q 2725 3281 2906 2969 
z
M 947 1747 
Q 947 1113 1208 752 
Q 1469 391 1925 391 
Q 2381 391 2643 752 
Q 2906 1113 2906 1747 
Q 2906 2381 2643 2742 
Q 2381 3103 1925 3103 
Q 1469 3103 1208 2742 
Q 947 2381 947 1747 
z
" transform="scale(0.015625)"/>
     </defs>
     <use xlink:href="#DejaVuSans-32" transform="translate(0.957031 39.046875) scale(0.7)"/>
     <use xlink:href="#DejaVuSans-31" transform="translate(45.493164 39.046875) scale(0.7)"/>
     <use xlink:href="#DejaVuSans-36" transform="translate(90.029297 39.046875) scale(0.7)"/>
     <use xlink:href="#DejaVuSans-47" transform="translate(137.299805 0.765625)"/>
     <use xlink:href="#DejaVuSans-64" transform="translate(214.790039 0.765625)"/>
    </g>
   </g>
   <g id="text_2">
    <!-- 0 -->
    <g transform="translate(47.238597 471.728169) scale(0.16 -0.16)">
     <defs>
      <path id="DejaVuSans-BoldOblique-30" d="M 1913 728 
Q 2153 728 2339 872 
Q 2525 1016 2650 1294 
Q 2738 1491 2809 1742 
Q 2881 1994 2944 2338 
Q 2997 2616 3025 2850 
Q 3053 3084 3053 3250 
Q 3053 3600 2928 3764 
Q 2803 3928 2541 3928 
Q 2297 3928 2112 3789 
Q 1928 3650 1806 3366 
Q 1713 3163 1636 2903 
Q 1559 2644 1503 2338 
Q 1450 2056 1422 1815 
Q 1394 1575 1394 1409 
Q 1394 1063 1522 895 
Q 1650 728 1913 728 
z
M 4225 3072 
Q 4225 2450 4053 1862 
Q 3881 1275 3572 831 
Q 3256 375 2809 142 
Q 2363 -91 1813 -91 
Q 1047 -91 639 343 
Q 231 778 231 1594 
Q 231 2206 401 2795 
Q 572 3384 878 3822 
Q 1200 4281 1644 4515 
Q 2088 4750 2644 4750 
Q 3403 4750 3814 4314 
Q 4225 3878 4225 3072 
z
" transform="scale(0.015625)"/>
     </defs>
     <use xlink:href="#DejaVuSans-BoldOblique-30"/>
    </g>
   </g>
   <g id="text_3">
    <!-- 0⁺ -->
    <g transform="translate(183.456 472.468403) scale(0.23 -0.23)">
     <defs>
      <path id="TimesNewRomanPS-BoldMT-30" d="M 2966 2119 
Q 2966 1484 2788 934 
Q 2681 597 2501 381 
Q 2322 166 2094 39 
Q 1866 -88 1597 -88 
Q 1291 -88 1044 68 
Q 797 225 606 516 
Q 469 728 366 1081 
Q 231 1559 231 2069 
Q 231 2759 425 3338 
Q 584 3816 909 4070 
Q 1234 4325 1597 4325 
Q 1966 4325 2286 4073 
Q 2606 3822 2756 3397 
Q 2966 2813 2966 2119 
z
M 2003 2125 
Q 2003 3238 1991 3422 
Q 1959 3856 1841 4009 
Q 1763 4109 1588 4109 
Q 1453 4109 1375 4034 
Q 1259 3925 1218 3648 
Q 1178 3372 1178 1719 
Q 1178 819 1241 513 
Q 1288 291 1375 216 
Q 1463 141 1606 141 
Q 1763 141 1841 241 
Q 1972 416 1991 781 
L 2003 2125 
z
" transform="scale(0.015625)"/>
      <path id="DejaVuSerif-Bold-207a" d="M 1916 4344 
L 1916 3441 
L 2950 3441 
L 2950 3044 
L 1916 3044 
L 1916 2141 
L 1463 2141 
L 1463 3044 
L 428 3044 
L 428 3441 
L 1463 3441 
L 1463 4344 
L 1916 4344 
z
" transform="scale(0.015625)"/>
     </defs>
     <use xlink:href="#TimesNewRomanPS-BoldMT-30"/>
     <use xlink:href="#DejaVuSerif-Bold-207a" transform="translate(50 0)"/>
    </g>
   </g>
   <g id="text_4">
    <!-- 214 -->
    <g transform="translate(24.973597 412.401825) scale(0.16 -0.16)">
     <defs>
      <path id="DejaVuSans-BoldOblique-32" d="M 1581 884 
L 3609 884 
L 3438 0 
L 50 0 
L 225 891 
L 2209 2388 
Q 2534 2638 2704 2894 
Q 2875 3150 2875 3391 
Q 2875 3647 2700 3787 
Q 2525 3928 2209 3928 
Q 1913 3928 1547 3811 
Q 1181 3694 722 3450 
L 922 4441 
Q 1347 4597 1756 4673 
Q 2166 4750 2566 4750 
Q 3278 4750 3687 4442 
Q 4097 4134 4097 3603 
Q 4097 3147 3847 2772 
Q 3597 2397 2747 1759 
L 1581 884 
z
" transform="scale(0.015625)"/>
      <path id="DejaVuSans-BoldOblique-31" d="M 441 831 
L 1503 831 
L 2088 3847 
L 953 3622 
L 1113 4441 
L 2241 4666 
L 3384 4666 
L 2644 831 
L 3700 831 
L 3541 0 
L 275 0 
L 441 831 
z
" transform="scale(0.015625)"/>
      <path id="DejaVuSans-BoldOblique-34" d="M 2638 3641 
L 978 1722 
L 2259 1722 
L 2638 3641 
z
M 2606 4666 
L 3975 4666 
L 3397 1722 
L 4063 1722 
L 3897 850 
L 3231 850 
L 3066 0 
L 1925 0 
L 2094 850 
L -6 850 
L 197 1881 
L 2606 4666 
z
" transform="scale(0.015625)"/>
     </defs>
     <use xlink:href="#DejaVuSans-BoldOblique-32"/>
     <use xlink:href="#DejaVuSans-BoldOblique-31" transform="translate(69.580078 0)"/>
     <use xlink:href="#DejaVuSans-BoldOblique-34" transform="translate(139.160156 0)"/>
    </g>
   </g>
   <g id="text_5">
    <!-- 2⁺ -->
    <g transform="translate(183.456 413.142059) scale(0.23 -0.23)">
     <defs>
      <path id="TimesNewRomanPS-BoldMT-32" d="M 2650 0 
L 156 0 
L 156 69 
Q 1303 1434 1548 1906 
Q 1794 2378 1794 2828 
Q 1794 3156 1591 3373 
Q 1388 3591 1094 3591 
Q 613 3591 347 3109 
L 231 3150 
Q 400 3750 744 4037 
Q 1088 4325 1538 4325 
Q 1859 4325 2125 4175 
Q 2391 4025 2541 3764 
Q 2691 3503 2691 3275 
Q 2691 2859 2459 2431 
Q 2144 1853 1081 819 
L 1997 819 
Q 2334 819 2436 847 
Q 2538 875 2603 942 
Q 2669 1009 2775 1225 
L 2888 1225 
L 2650 0 
z
" transform="scale(0.015625)"/>
     </defs>
     <use xlink:href="#TimesNewRomanPS-BoldMT-32"/>
     <use xlink:href="#DejaVuSerif-Bold-207a" transform="translate(50 0)"/>
    </g>
   </g>
   <g id="text_6">
    <!-- 541 -->
    <g transform="translate(24.973597 321.543496) scale(0.16 -0.16)">
     <defs>
      <path id="DejaVuSans-BoldOblique-35" d="M 1131 4666 
L 4122 4666 
L 3950 3781 
L 1919 3781 
L 1778 3059 
Q 1916 3097 2064 3117 
Q 2213 3138 2363 3138 
Q 3078 3138 3481 2811 
Q 3884 2484 3884 1906 
Q 3884 988 3262 448 
Q 2641 -91 1575 -91 
Q 1184 -91 815 -14 
Q 447 63 84 219 
L 269 1166 
Q 616 941 942 834 
Q 1269 728 1606 728 
Q 2100 728 2397 986 
Q 2694 1244 2694 1663 
Q 2694 1963 2469 2139 
Q 2244 2316 1856 2316 
Q 1594 2316 1289 2248 
Q 984 2181 622 2041 
L 1131 4666 
z
" transform="scale(0.015625)"/>
     </defs>
     <use xlink:href="#DejaVuSans-BoldOblique-35"/>
     <use xlink:href="#DejaVuSans-BoldOblique-34" transform="translate(69.580078 0)"/>
     <use xlink:href="#DejaVuSans-BoldOblique-31" transform="translate(139.160156 0)"/>
    </g>
   </g>
   <g id="text_7">
    <!-- 4⁺ -->
    <g transform="translate(183.456 322.28373) scale(0.23 -0.23)">
     <defs>
      <path id="TimesNewRomanPS-BoldMT-34" d="M 159 1597 
L 2172 4325 
L 2553 4325 
L 2553 1597 
L 2941 1597 
L 2941 950 
L 2553 950 
L 2553 0 
L 1694 0 
L 1694 950 
L 159 950 
L 159 1597 
z
M 463 1597 
L 1694 1597 
L 1694 3269 
L 463 1597 
z
" transform="scale(0.015625)"/>
     </defs>
     <use xlink:href="#TimesNewRomanPS-BoldMT-34"/>
     <use xlink:href="#DejaVuSerif-Bold-207a" transform="translate(50 0)"/>
    </g>
   </g>
   <g id="text_8">
    <!-- 967 -->
    <g transform="translate(24.973597 203.408936) scale(0.16 -0.16)">
     <defs>
      <path id="DejaVuSans-BoldOblique-39" d="M 263 103 
L 428 966 
Q 700 825 953 758 
Q 1206 691 1459 691 
Q 2041 691 2400 1003 
Q 2759 1316 2834 1881 
Q 2594 1722 2337 1645 
Q 2081 1569 1791 1569 
Q 1219 1569 853 1909 
Q 488 2250 488 2778 
Q 488 3641 1052 4192 
Q 1616 4744 2503 4744 
Q 3300 4744 3736 4292 
Q 4172 3841 4172 3016 
Q 4172 2381 3978 1801 
Q 3784 1222 3431 800 
Q 3056 353 2548 128 
Q 2041 -97 1403 -97 
Q 1106 -97 825 -47 
Q 544 3 263 103 
z
M 2169 2344 
Q 2525 2344 2753 2637 
Q 2981 2931 2981 3391 
Q 2981 3675 2845 3828 
Q 2709 3981 2456 3981 
Q 2103 3981 1870 3690 
Q 1638 3400 1638 2963 
Q 1638 2663 1775 2503 
Q 1913 2344 2169 2344 
z
" transform="scale(0.015625)"/>
      <path id="DejaVuSans-BoldOblique-36" d="M 2316 2303 
Q 1959 2303 1731 2009 
Q 1503 1716 1503 1253 
Q 1503 975 1643 820 
Q 1784 666 2034 666 
Q 2388 666 2617 955 
Q 2847 1244 2847 1684 
Q 2847 1984 2709 2143 
Q 2572 2303 2316 2303 
z
M 4225 4544 
L 4056 3681 
Q 3788 3819 3534 3887 
Q 3281 3956 3028 3956 
Q 2447 3956 2087 3643 
Q 1728 3331 1650 2766 
Q 1894 2925 2151 3001 
Q 2409 3078 2700 3078 
Q 3275 3078 3640 2737 
Q 4006 2397 4006 1869 
Q 4006 1006 3442 454 
Q 2878 -97 1991 -97 
Q 1194 -97 756 354 
Q 319 806 319 1631 
Q 319 2269 512 2848 
Q 706 3428 1056 3847 
Q 1431 4294 1942 4519 
Q 2453 4744 3091 4744 
Q 3384 4744 3662 4694 
Q 3941 4644 4225 4544 
z
" transform="scale(0.015625)"/>
      <path id="DejaVuSans-BoldOblique-37" d="M 922 4666 
L 4441 4666 
L 4300 3981 
L 1703 0 
L 500 0 
L 2969 3781 
L 756 3781 
L 922 4666 
z
" transform="scale(0.015625)"/>
     </defs>
     <use xlink:href="#DejaVuSans-BoldOblique-39"/>
     <use xlink:href="#DejaVuSans-BoldOblique-36" transform="translate(69.580078 0)"/>
     <use xlink:href="#DejaVuSans-BoldOblique-37" transform="translate(139.160156 0)"/>
    </g>
   </g>
   <g id="text_9">
    <!-- 6⁺ -->
    <g transform="translate(183.456 204.14917) scale(0.23 -0.23)">
     <defs>
      <path id="TimesNewRomanPS-BoldMT-36" d="M 3006 4325 
L 3006 4238 
Q 2441 4094 2098 3867 
Q 1756 3641 1557 3317 
Q 1359 2994 1250 2516 
Q 1388 2609 1478 2638 
Q 1681 2700 1888 2700 
Q 2363 2700 2680 2354 
Q 2997 2009 2997 1413 
Q 2997 994 2825 644 
Q 2653 294 2337 103 
Q 2022 -88 1663 -88 
Q 1272 -88 940 126 
Q 609 341 423 753 
Q 238 1166 238 1650 
Q 238 2363 580 2977 
Q 922 3591 1551 3955 
Q 2181 4319 3006 4325 
z
M 1209 2263 
Q 1184 1831 1184 1631 
Q 1184 1200 1267 797 
Q 1350 394 1494 231 
Q 1597 116 1738 116 
Q 1881 116 1993 283 
Q 2106 450 2106 963 
Q 2106 1825 1897 2153 
Q 1763 2366 1534 2366 
Q 1409 2366 1209 2263 
z
" transform="scale(0.015625)"/>
     </defs>
     <use xlink:href="#TimesNewRomanPS-BoldMT-36"/>
     <use xlink:href="#DejaVuSerif-Bold-207a" transform="translate(50 0)"/>
    </g>
   </g>
   <g id="text_10">
    <!-- 471 -->
    <g transform="translate(276.091016 340.884904) scale(0.16 -0.16)">
     <use xlink:href="#DejaVuSans-BoldOblique-34"/>
     <use xlink:href="#DejaVuSans-BoldOblique-37" transform="translate(69.580078 0)"/>
     <use xlink:href="#DejaVuSans-BoldOblique-31" transform="translate(139.160156 0)"/>
    </g>
   </g>
   <g id="text_11">
    <!-- 0⁺ -->
    <g transform="translate(434.573419 341.625138) scale(0.23 -0.23)">
     <use xlink:href="#TimesNewRomanPS-BoldMT-30"/>
     <use xlink:href="#DejaVuSerif-Bold-207a" transform="translate(50 0)"/>
    </g>
   </g>
   <g id="text_12">
    <!-- 435 -->
    <g transform="translate(527.208435 350.951073) scale(0.16 -0.16)">
     <defs>
      <path id="DejaVuSans-BoldOblique-33" d="M 3022 2516 
Q 3375 2434 3572 2187 
Q 3769 1941 3769 1581 
Q 3769 806 3155 357 
Q 2541 -91 1466 -91 
Q 1059 -91 692 -33 
Q 325 25 0 141 
L 178 1069 
Q 456 906 784 817 
Q 1113 728 1441 728 
Q 1969 728 2276 926 
Q 2584 1125 2584 1459 
Q 2584 1738 2350 1877 
Q 2116 2016 1644 2016 
L 1166 2016 
L 1319 2791 
L 1825 2791 
Q 2316 2791 2602 2969 
Q 2888 3147 2888 3450 
Q 2888 3688 2689 3813 
Q 2491 3938 2113 3938 
Q 1847 3938 1534 3869 
Q 1222 3800 884 3669 
L 1056 4550 
Q 1425 4650 1783 4700 
Q 2141 4750 2491 4750 
Q 3281 4750 3679 4487 
Q 4078 4225 4078 3706 
Q 4078 3241 3801 2930 
Q 3525 2619 3022 2516 
z
" transform="scale(0.015625)"/>
     </defs>
     <use xlink:href="#DejaVuSans-BoldOblique-34"/>
     <use xlink:href="#DejaVuSans-BoldOblique-33" transform="translate(69.580078 0)"/>
     <use xlink:href="#DejaVuSans-BoldOblique-35" transform="translate(139.160156 0)"/>
    </g>
   </g>
   <g id="text_13">
    <!-- 2⁺ -->
    <g transform="translate(685.690839 351.691307) scale(0.23 -0.23)">
     <use xlink:href="#TimesNewRomanPS-BoldMT-32"/>
     <use xlink:href="#DejaVuSerif-Bold-207a" transform="translate(50 0)"/>
    </g>
   </g>
   <g id="text_14">
    <!-- 1077 -->
    <g transform="translate(516.075935 172.890728) scale(0.16 -0.16)">
     <use xlink:href="#DejaVuSans-BoldOblique-31"/>
     <use xlink:href="#DejaVuSans-BoldOblique-30" transform="translate(69.580078 0)"/>
     <use xlink:href="#DejaVuSans-BoldOblique-37" transform="translate(139.160156 0)"/>
     <use xlink:href="#DejaVuSans-BoldOblique-37" transform="translate(208.740234 0)"/>
    </g>
   </g>
   <g id="text_15">
    <!-- 3⁺ -->
    <g transform="translate(685.690839 173.630962) scale(0.23 -0.23)">
     <defs>
      <path id="TimesNewRomanPS-BoldMT-33" d="M 947 2125 
L 947 2234 
Q 1303 2338 1440 2427 
Q 1578 2516 1678 2698 
Q 1778 2881 1778 3069 
Q 1778 3328 1589 3514 
Q 1400 3700 1119 3700 
Q 681 3700 375 3238 
L 259 3278 
Q 484 3800 836 4062 
Q 1188 4325 1619 4325 
Q 2059 4325 2345 4056 
Q 2631 3788 2631 3428 
Q 2631 3194 2498 2976 
Q 2366 2759 2081 2594 
Q 2447 2416 2639 2155 
Q 2831 1894 2831 1500 
Q 2831 838 2351 373 
Q 1872 -91 1066 -91 
Q 528 -91 281 88 
Q 103 213 103 409 
Q 103 553 206 654 
Q 309 756 444 756 
Q 547 756 638 713 
Q 688 688 992 439 
Q 1297 191 1563 191 
Q 1794 191 1959 373 
Q 2125 556 2125 838 
Q 2125 1266 1825 1627 
Q 1525 1988 947 2125 
z
" transform="scale(0.015625)"/>
     </defs>
     <use xlink:href="#TimesNewRomanPS-BoldMT-33"/>
     <use xlink:href="#DejaVuSerif-Bold-207a" transform="translate(50 0)"/>
    </g>
   </g>
   <g id="text_16">
    <path d="M 108.563548 430.423747 
L 108.563548 439.088747 
Q 108.563548 440.063747 108.648548 440.333747 
Q 108.736048 440.603747 109.008548 440.776247 
Q 109.283548 440.946247 109.886048 440.946247 
L 110.126048 440.946247 
L 110.126048 441.236247 
L 104.548548 441.236247 
L 104.548548 440.946247 
L 104.831048 440.946247 
Q 105.511048 440.946247 105.798548 440.791247 
Q 106.088548 440.633747 106.188548 440.361247 
Q 106.291048 440.088747 106.291048 439.088747 
L 106.291048 433.596247 
Q 106.291048 432.861247 106.221048 432.678747 
Q 106.151048 432.493747 105.958548 432.366247 
Q 105.768548 432.236247 105.518548 432.236247 
Q 105.118548 432.236247 104.548548 432.486247 
L 104.408548 432.203747 
L 108.306048 430.423747 
L 108.563548 430.423747 
z
M 115.683548 430.423747 
L 115.683548 439.088747 
Q 115.683548 440.063747 115.768548 440.333747 
Q 115.856048 440.603747 116.128548 440.776247 
Q 116.403548 440.946247 117.006048 440.946247 
L 117.246048 440.946247 
L 117.246048 441.236247 
L 111.668548 441.236247 
L 111.668548 440.946247 
L 111.951048 440.946247 
Q 112.631048 440.946247 112.918548 440.791247 
Q 113.208548 440.633747 113.308548 440.361247 
Q 113.411048 440.088747 113.411048 439.088747 
L 113.411048 433.596247 
Q 113.411048 432.861247 113.341048 432.678747 
Q 113.271048 432.493747 113.078548 432.366247 
Q 112.888548 432.236247 112.638548 432.236247 
Q 112.238548 432.236247 111.668548 432.486247 
L 111.528548 432.203747 
L 115.426048 430.423747 
L 115.683548 430.423747 
z
M 123.926048 435.251247 
Q 125.043548 436.071247 125.476048 436.778747 
Q 125.911048 437.486247 125.911048 438.401247 
Q 125.911048 439.681247 124.946048 440.568747 
Q 123.981048 441.456247 122.326048 441.456247 
Q 120.756048 441.456247 119.896048 440.683747 
Q 119.036048 439.908747 119.036048 438.791247 
Q 119.036048 437.938747 119.531048 437.298747 
Q 120.028548 436.658747 121.183548 436.126247 
Q 119.926048 435.166247 119.571048 434.556247 
Q 119.216048 433.946247 119.216048 433.141247 
Q 119.216048 432.078747 120.118548 431.271247 
Q 121.021048 430.463747 122.591048 430.463747 
Q 124.106048 430.463747 124.921048 431.178747 
Q 125.738548 431.891247 125.738548 432.891247 
Q 125.738548 433.641247 125.296048 434.216247 
Q 124.856048 434.791247 123.926048 435.251247 
z
M 123.333548 434.853747 
Q 123.621048 434.463747 123.761048 433.978747 
Q 123.903548 433.493747 123.903548 432.916247 
Q 123.903548 431.901247 123.466048 431.361247 
Q 123.138548 430.946247 122.558548 430.946247 
Q 122.036048 430.946247 121.668548 431.326247 
Q 121.301048 431.703747 121.301048 432.266247 
Q 121.301048 432.838747 121.711048 433.451247 
Q 122.121048 434.063747 123.333548 434.853747 
z
M 121.771048 436.501247 
Q 121.528548 436.721247 121.426048 436.901247 
Q 121.271048 437.173747 121.146048 437.698747 
Q 121.021048 438.221247 121.021048 438.791247 
Q 121.021048 439.526247 121.208548 440.021247 
Q 121.396048 440.516247 121.743548 440.736247 
Q 122.091048 440.953747 122.458548 440.953747 
Q 123.028548 440.953747 123.418548 440.536247 
Q 123.808548 440.118747 123.808548 439.391247 
Q 123.808548 437.876247 121.771048 436.501247 
z
M 128.473548 438.828747 
Q 129.021048 438.828747 129.398548 439.213747 
Q 129.778548 439.596247 129.778548 440.133747 
Q 129.778548 440.673747 129.396048 441.053747 
Q 129.013548 441.431247 128.473548 441.431247 
Q 127.933548 441.431247 127.553548 441.053747 
Q 127.176048 440.673747 127.176048 440.133747 
Q 127.176048 439.596247 127.553548 439.213747 
Q 127.933548 438.828747 128.473548 438.828747 
z
M 132.911048 430.641247 
L 137.871048 430.641247 
L 137.083548 432.658747 
L 132.911048 432.658747 
L 132.513548 433.713747 
Q 135.208548 433.813747 136.661048 435.056247 
Q 137.856048 436.078747 137.856048 437.603747 
Q 137.856048 438.578747 137.301048 439.513747 
Q 136.746048 440.446247 135.738548 440.951247 
Q 134.731048 441.456247 133.528548 441.456247 
Q 132.231048 441.456247 131.536048 440.971247 
Q 131.051048 440.626247 131.051048 440.188747 
Q 131.051048 439.853747 131.303548 439.596247 
Q 131.558548 439.338747 131.896048 439.338747 
Q 132.201048 439.338747 132.513548 439.463747 
Q 132.826048 439.588747 133.583548 440.118747 
Q 134.058548 440.446247 134.403548 440.571247 
Q 134.646048 440.666247 134.951048 440.666247 
Q 135.591048 440.666247 136.038548 440.198747 
Q 136.488548 439.728747 136.488548 439.071247 
Q 136.488548 437.696247 135.113548 436.838747 
Q 133.738548 435.978747 131.646048 435.978747 
Q 131.433548 435.978747 131.013548 435.986247 
L 132.911048 430.641247 
z
" style="stroke: #ffffff; stroke-width: 3.8"/>
    <path d="M 108.563548 430.423747 
L 108.563548 439.088747 
Q 108.563548 440.063747 108.648548 440.333747 
Q 108.736048 440.603747 109.008548 440.776247 
Q 109.283548 440.946247 109.886048 440.946247 
L 110.126048 440.946247 
L 110.126048 441.236247 
L 104.548548 441.236247 
L 104.548548 440.946247 
L 104.831048 440.946247 
Q 105.511048 440.946247 105.798548 440.791247 
Q 106.088548 440.633747 106.188548 440.361247 
Q 106.291048 440.088747 106.291048 439.088747 
L 106.291048 433.596247 
Q 106.291048 432.861247 106.221048 432.678747 
Q 106.151048 432.493747 105.958548 432.366247 
Q 105.768548 432.236247 105.518548 432.236247 
Q 105.118548 432.236247 104.548548 432.486247 
L 104.408548 432.203747 
L 108.306048 430.423747 
L 108.563548 430.423747 
z
M 115.683548 430.423747 
L 115.683548 439.088747 
Q 115.683548 440.063747 115.768548 440.333747 
Q 115.856048 440.603747 116.128548 440.776247 
Q 116.403548 440.946247 117.006048 440.946247 
L 117.246048 440.946247 
L 117.246048 441.236247 
L 111.668548 441.236247 
L 111.668548 440.946247 
L 111.951048 440.946247 
Q 112.631048 440.946247 112.918548 440.791247 
Q 113.208548 440.633747 113.308548 440.361247 
Q 113.411048 440.088747 113.411048 439.088747 
L 113.411048 433.596247 
Q 113.411048 432.861247 113.341048 432.678747 
Q 113.271048 432.493747 113.078548 432.366247 
Q 112.888548 432.236247 112.638548 432.236247 
Q 112.238548 432.236247 111.668548 432.486247 
L 111.528548 432.203747 
L 115.426048 430.423747 
L 115.683548 430.423747 
z
M 123.926048 435.251247 
Q 125.043548 436.071247 125.476048 436.778747 
Q 125.911048 437.486247 125.911048 438.401247 
Q 125.911048 439.681247 124.946048 440.568747 
Q 123.981048 441.456247 122.326048 441.456247 
Q 120.756048 441.456247 119.896048 440.683747 
Q 119.036048 439.908747 119.036048 438.791247 
Q 119.036048 437.938747 119.531048 437.298747 
Q 120.028548 436.658747 121.183548 436.126247 
Q 119.926048 435.166247 119.571048 434.556247 
Q 119.216048 433.946247 119.216048 433.141247 
Q 119.216048 432.078747 120.118548 431.271247 
Q 121.021048 430.463747 122.591048 430.463747 
Q 124.106048 430.463747 124.921048 431.178747 
Q 125.738548 431.891247 125.738548 432.891247 
Q 125.738548 433.641247 125.296048 434.216247 
Q 124.856048 434.791247 123.926048 435.251247 
z
M 123.333548 434.853747 
Q 123.621048 434.463747 123.761048 433.978747 
Q 123.903548 433.493747 123.903548 432.916247 
Q 123.903548 431.901247 123.466048 431.361247 
Q 123.138548 430.946247 122.558548 430.946247 
Q 122.036048 430.946247 121.668548 431.326247 
Q 121.301048 431.703747 121.301048 432.266247 
Q 121.301048 432.838747 121.711048 433.451247 
Q 122.121048 434.063747 123.333548 434.853747 
z
M 121.771048 436.501247 
Q 121.528548 436.721247 121.426048 436.901247 
Q 121.271048 437.173747 121.146048 437.698747 
Q 121.021048 438.221247 121.021048 438.791247 
Q 121.021048 439.526247 121.208548 440.021247 
Q 121.396048 440.516247 121.743548 440.736247 
Q 122.091048 440.953747 122.458548 440.953747 
Q 123.028548 440.953747 123.418548 440.536247 
Q 123.808548 440.118747 123.808548 439.391247 
Q 123.808548 437.876247 121.771048 436.501247 
z
M 128.473548 438.828747 
Q 129.021048 438.828747 129.398548 439.213747 
Q 129.778548 439.596247 129.778548 440.133747 
Q 129.778548 440.673747 129.396048 441.053747 
Q 129.013548 441.431247 128.473548 441.431247 
Q 127.933548 441.431247 127.553548 441.053747 
Q 127.176048 440.673747 127.176048 440.133747 
Q 127.176048 439.596247 127.553548 439.213747 
Q 127.933548 438.828747 128.473548 438.828747 
z
M 132.911048 430.641247 
L 137.871048 430.641247 
L 137.083548 432.658747 
L 132.911048 432.658747 
L 132.513548 433.713747 
Q 135.208548 433.813747 136.661048 435.056247 
Q 137.856048 436.078747 137.856048 437.603747 
Q 137.856048 438.578747 137.301048 439.513747 
Q 136.746048 440.446247 135.738548 440.951247 
Q 134.731048 441.456247 133.528548 441.456247 
Q 132.231048 441.456247 131.536048 440.971247 
Q 131.051048 440.626247 131.051048 440.188747 
Q 131.051048 439.853747 131.303548 439.596247 
Q 131.558548 439.338747 131.896048 439.338747 
Q 132.201048 439.338747 132.513548 439.463747 
Q 132.826048 439.588747 133.583548 440.118747 
Q 134.058548 440.446247 134.403548 440.571247 
Q 134.646048 440.666247 134.951048 440.666247 
Q 135.591048 440.666247 136.038548 440.198747 
Q 136.488548 439.728747 136.488548 439.071247 
Q 136.488548 437.696247 135.113548 436.838747 
Q 133.738548 435.978747 131.646048 435.978747 
Q 131.433548 435.978747 131.013548 435.986247 
L 132.911048 430.641247 
z
"/>
   </g>
   <g id="text_17">
    <path d="M 108.123548 355.33141 
L 108.123548 363.99641 
Q 108.123548 364.97141 108.208548 365.24141 
Q 108.296048 365.51141 108.568548 365.68391 
Q 108.843548 365.85391 109.446048 365.85391 
L 109.686048 365.85391 
L 109.686048 366.14391 
L 104.108548 366.14391 
L 104.108548 365.85391 
L 104.391048 365.85391 
Q 105.071048 365.85391 105.358548 365.69891 
Q 105.648548 365.54141 105.748548 365.26891 
Q 105.851048 364.99641 105.851048 363.99641 
L 105.851048 358.50391 
Q 105.851048 357.76891 105.781048 357.58641 
Q 105.711048 357.40141 105.518548 357.27391 
Q 105.328548 357.14391 105.078548 357.14391 
Q 104.678548 357.14391 104.108548 357.39391 
L 103.968548 357.11141 
L 107.866048 355.33141 
L 108.123548 355.33141 
z
M 116.366048 360.15891 
Q 117.483548 360.97891 117.916048 361.68641 
Q 118.351048 362.39391 118.351048 363.30891 
Q 118.351048 364.58891 117.386048 365.47641 
Q 116.421048 366.36391 114.766048 366.36391 
Q 113.196048 366.36391 112.336048 365.59141 
Q 111.476048 364.81641 111.476048 363.69891 
Q 111.476048 362.84641 111.971048 362.20641 
Q 112.468548 361.56641 113.623548 361.03391 
Q 112.366048 360.07391 112.011048 359.46391 
Q 111.656048 358.85391 111.656048 358.04891 
Q 111.656048 356.98641 112.558548 356.17891 
Q 113.461048 355.37141 115.031048 355.37141 
Q 116.546048 355.37141 117.361048 356.08641 
Q 118.178548 356.79891 118.178548 357.79891 
Q 118.178548 358.54891 117.736048 359.12391 
Q 117.296048 359.69891 116.366048 360.15891 
z
M 115.773548 359.76141 
Q 116.061048 359.37141 116.201048 358.88641 
Q 116.343548 358.40141 116.343548 357.82391 
Q 116.343548 356.80891 115.906048 356.26891 
Q 115.578548 355.85391 114.998548 355.85391 
Q 114.476048 355.85391 114.108548 356.23391 
Q 113.741048 356.61141 113.741048 357.17391 
Q 113.741048 357.74641 114.151048 358.35891 
Q 114.561048 358.97141 115.773548 359.76141 
z
M 114.211048 361.40891 
Q 113.968548 361.62891 113.866048 361.80891 
Q 113.711048 362.08141 113.586048 362.60641 
Q 113.461048 363.12891 113.461048 363.69891 
Q 113.461048 364.43391 113.648548 364.92891 
Q 113.836048 365.42391 114.183548 365.64391 
Q 114.531048 365.86141 114.898548 365.86141 
Q 115.468548 365.86141 115.858548 365.44391 
Q 116.248548 365.02641 116.248548 364.29891 
Q 116.248548 362.78391 114.211048 361.40891 
z
M 124.366048 360.15891 
Q 125.483548 360.97891 125.916048 361.68641 
Q 126.351048 362.39391 126.351048 363.30891 
Q 126.351048 364.58891 125.386048 365.47641 
Q 124.421048 366.36391 122.766048 366.36391 
Q 121.196048 366.36391 120.336048 365.59141 
Q 119.476048 364.81641 119.476048 363.69891 
Q 119.476048 362.84641 119.971048 362.20641 
Q 120.468548 361.56641 121.623548 361.03391 
Q 120.366048 360.07391 120.011048 359.46391 
Q 119.656048 358.85391 119.656048 358.04891 
Q 119.656048 356.98641 120.558548 356.17891 
Q 121.461048 355.37141 123.031048 355.37141 
Q 124.546048 355.37141 125.361048 356.08641 
Q 126.178548 356.79891 126.178548 357.79891 
Q 126.178548 358.54891 125.736048 359.12391 
Q 125.296048 359.69891 124.366048 360.15891 
z
M 123.773548 359.76141 
Q 124.061048 359.37141 124.201048 358.88641 
Q 124.343548 358.40141 124.343548 357.82391 
Q 124.343548 356.80891 123.906048 356.26891 
Q 123.578548 355.85391 122.998548 355.85391 
Q 122.476048 355.85391 122.108548 356.23391 
Q 121.741048 356.61141 121.741048 357.17391 
Q 121.741048 357.74641 122.151048 358.35891 
Q 122.561048 358.97141 123.773548 359.76141 
z
M 122.211048 361.40891 
Q 121.968548 361.62891 121.866048 361.80891 
Q 121.711048 362.08141 121.586048 362.60641 
Q 121.461048 363.12891 121.461048 363.69891 
Q 121.461048 364.43391 121.648548 364.92891 
Q 121.836048 365.42391 122.183548 365.64391 
Q 122.531048 365.86141 122.898548 365.86141 
Q 123.468548 365.86141 123.858548 365.44391 
Q 124.248548 365.02641 124.248548 364.29891 
Q 124.248548 362.78391 122.211048 361.40891 
z
M 128.913548 363.73641 
Q 129.461048 363.73641 129.838548 364.12141 
Q 130.218548 364.50391 130.218548 365.04141 
Q 130.218548 365.58141 129.836048 365.96141 
Q 129.453548 366.33891 128.913548 366.33891 
Q 128.373548 366.33891 127.993548 365.96141 
Q 127.616048 365.58141 127.616048 365.04141 
Q 127.616048 364.50391 127.993548 364.12141 
Q 128.373548 363.73641 128.913548 363.73641 
z
M 131.406048 366.36391 
L 131.406048 366.14391 
Q 132.703548 365.84641 133.606048 365.26891 
Q 134.508548 364.69141 135.033548 363.83891 
Q 135.561048 362.98641 135.773548 361.87891 
Q 135.288548 362.12891 134.948548 362.22641 
Q 134.608548 362.32391 134.233548 362.32391 
Q 133.031048 362.32391 132.228548 361.45641 
Q 131.428548 360.58891 131.428548 359.08141 
Q 131.428548 358.03391 131.861048 357.16391 
Q 132.296048 356.29141 133.101048 355.81141 
Q 133.906048 355.33141 134.773548 355.33141 
Q 135.703548 355.33141 136.531048 355.86391 
Q 137.358548 356.39391 137.851048 357.40141 
Q 138.343548 358.40891 138.343548 359.69891 
Q 138.343548 361.37141 137.541048 362.90391 
Q 136.741048 364.43391 135.156048 365.35891 
Q 133.571048 366.28391 131.406048 366.36391 
z
M 135.891048 361.22141 
Q 135.968548 360.34641 135.968548 359.68391 
Q 135.968548 358.26141 135.641048 357.03391 
Q 135.453548 356.35391 135.086048 356.03391 
Q 134.891048 355.86141 134.578548 355.86141 
Q 134.186048 355.86141 133.968548 356.19891 
Q 133.663548 356.65891 133.663548 357.95641 
Q 133.663548 360.12141 134.178548 360.94141 
Q 134.516048 361.47141 135.086048 361.47141 
Q 135.391048 361.47141 135.891048 361.22141 
z
" style="stroke: #ffffff; stroke-width: 3.8"/>
    <path d="M 108.123548 355.33141 
L 108.123548 363.99641 
Q 108.123548 364.97141 108.208548 365.24141 
Q 108.296048 365.51141 108.568548 365.68391 
Q 108.843548 365.85391 109.446048 365.85391 
L 109.686048 365.85391 
L 109.686048 366.14391 
L 104.108548 366.14391 
L 104.108548 365.85391 
L 104.391048 365.85391 
Q 105.071048 365.85391 105.358548 365.69891 
Q 105.648548 365.54141 105.748548 365.26891 
Q 105.851048 364.99641 105.851048 363.99641 
L 105.851048 358.50391 
Q 105.851048 357.76891 105.781048 357.58641 
Q 105.711048 357.40141 105.518548 357.27391 
Q 105.328548 357.14391 105.078548 357.14391 
Q 104.678548 357.14391 104.108548 357.39391 
L 103.968548 357.11141 
L 107.866048 355.33141 
L 108.123548 355.33141 
z
M 116.366048 360.15891 
Q 117.483548 360.97891 117.916048 361.68641 
Q 118.351048 362.39391 118.351048 363.30891 
Q 118.351048 364.58891 117.386048 365.47641 
Q 116.421048 366.36391 114.766048 366.36391 
Q 113.196048 366.36391 112.336048 365.59141 
Q 111.476048 364.81641 111.476048 363.69891 
Q 111.476048 362.84641 111.971048 362.20641 
Q 112.468548 361.56641 113.623548 361.03391 
Q 112.366048 360.07391 112.011048 359.46391 
Q 111.656048 358.85391 111.656048 358.04891 
Q 111.656048 356.98641 112.558548 356.17891 
Q 113.461048 355.37141 115.031048 355.37141 
Q 116.546048 355.37141 117.361048 356.08641 
Q 118.178548 356.79891 118.178548 357.79891 
Q 118.178548 358.54891 117.736048 359.12391 
Q 117.296048 359.69891 116.366048 360.15891 
z
M 115.773548 359.76141 
Q 116.061048 359.37141 116.201048 358.88641 
Q 116.343548 358.40141 116.343548 357.82391 
Q 116.343548 356.80891 115.906048 356.26891 
Q 115.578548 355.85391 114.998548 355.85391 
Q 114.476048 355.85391 114.108548 356.23391 
Q 113.741048 356.61141 113.741048 357.17391 
Q 113.741048 357.74641 114.151048 358.35891 
Q 114.561048 358.97141 115.773548 359.76141 
z
M 114.211048 361.40891 
Q 113.968548 361.62891 113.866048 361.80891 
Q 113.711048 362.08141 113.586048 362.60641 
Q 113.461048 363.12891 113.461048 363.69891 
Q 113.461048 364.43391 113.648548 364.92891 
Q 113.836048 365.42391 114.183548 365.64391 
Q 114.531048 365.86141 114.898548 365.86141 
Q 115.468548 365.86141 115.858548 365.44391 
Q 116.248548 365.02641 116.248548 364.29891 
Q 116.248548 362.78391 114.211048 361.40891 
z
M 124.366048 360.15891 
Q 125.483548 360.97891 125.916048 361.68641 
Q 126.351048 362.39391 126.351048 363.30891 
Q 126.351048 364.58891 125.386048 365.47641 
Q 124.421048 366.36391 122.766048 366.36391 
Q 121.196048 366.36391 120.336048 365.59141 
Q 119.476048 364.81641 119.476048 363.69891 
Q 119.476048 362.84641 119.971048 362.20641 
Q 120.468548 361.56641 121.623548 361.03391 
Q 120.366048 360.07391 120.011048 359.46391 
Q 119.656048 358.85391 119.656048 358.04891 
Q 119.656048 356.98641 120.558548 356.17891 
Q 121.461048 355.37141 123.031048 355.37141 
Q 124.546048 355.37141 125.361048 356.08641 
Q 126.178548 356.79891 126.178548 357.79891 
Q 126.178548 358.54891 125.736048 359.12391 
Q 125.296048 359.69891 124.366048 360.15891 
z
M 123.773548 359.76141 
Q 124.061048 359.37141 124.201048 358.88641 
Q 124.343548 358.40141 124.343548 357.82391 
Q 124.343548 356.80891 123.906048 356.26891 
Q 123.578548 355.85391 122.998548 355.85391 
Q 122.476048 355.85391 122.108548 356.23391 
Q 121.741048 356.61141 121.741048 357.17391 
Q 121.741048 357.74641 122.151048 358.35891 
Q 122.561048 358.97141 123.773548 359.76141 
z
M 122.211048 361.40891 
Q 121.968548 361.62891 121.866048 361.80891 
Q 121.711048 362.08141 121.586048 362.60641 
Q 121.461048 363.12891 121.461048 363.69891 
Q 121.461048 364.43391 121.648548 364.92891 
Q 121.836048 365.42391 122.183548 365.64391 
Q 122.531048 365.86141 122.898548 365.86141 
Q 123.468548 365.86141 123.858548 365.44391 
Q 124.248548 365.02641 124.248548 364.29891 
Q 124.248548 362.78391 122.211048 361.40891 
z
M 128.913548 363.73641 
Q 129.461048 363.73641 129.838548 364.12141 
Q 130.218548 364.50391 130.218548 365.04141 
Q 130.218548 365.58141 129.836048 365.96141 
Q 129.453548 366.33891 128.913548 366.33891 
Q 128.373548 366.33891 127.993548 365.96141 
Q 127.616048 365.58141 127.616048 365.04141 
Q 127.616048 364.50391 127.993548 364.12141 
Q 128.373548 363.73641 128.913548 363.73641 
z
M 131.406048 366.36391 
L 131.406048 366.14391 
Q 132.703548 365.84641 133.606048 365.26891 
Q 134.508548 364.69141 135.033548 363.83891 
Q 135.561048 362.98641 135.773548 361.87891 
Q 135.288548 362.12891 134.948548 362.22641 
Q 134.608548 362.32391 134.233548 362.32391 
Q 133.031048 362.32391 132.228548 361.45641 
Q 131.428548 360.58891 131.428548 359.08141 
Q 131.428548 358.03391 131.861048 357.16391 
Q 132.296048 356.29141 133.101048 355.81141 
Q 133.906048 355.33141 134.773548 355.33141 
Q 135.703548 355.33141 136.531048 355.86391 
Q 137.358548 356.39391 137.851048 357.40141 
Q 138.343548 358.40891 138.343548 359.69891 
Q 138.343548 361.37141 137.541048 362.90391 
Q 136.741048 364.43391 135.156048 365.35891 
Q 133.571048 366.28391 131.406048 366.36391 
z
M 135.891048 361.22141 
Q 135.968548 360.34641 135.968548 359.68391 
Q 135.968548 358.26141 135.641048 357.03391 
Q 135.453548 356.35391 135.086048 356.03391 
Q 134.891048 355.86141 134.578548 355.86141 
Q 134.186048 355.86141 133.968548 356.19891 
Q 133.663548 356.65891 133.663548 357.95641 
Q 133.663548 360.12141 134.178548 360.94141 
Q 134.516048 361.47141 135.086048 361.47141 
Q 135.391048 361.47141 135.891048 361.22141 
z
"/>
   </g>
   <g id="text_18">
    <path d="M 109.538548 261.647466 
L 103.303548 261.647466 
L 103.303548 261.474966 
Q 106.171048 258.062466 106.783548 256.882466 
Q 107.398548 255.702466 107.398548 254.577466 
Q 107.398548 253.757466 106.891048 253.214966 
Q 106.383548 252.669966 105.648548 252.669966 
Q 104.446048 252.669966 103.781048 253.874966 
L 103.491048 253.772466 
Q 103.913548 252.272466 104.773548 251.554966 
Q 105.633548 250.834966 106.758548 250.834966 
Q 107.561048 250.834966 108.226048 251.209966 
Q 108.891048 251.584966 109.266048 252.237466 
Q 109.641048 252.889966 109.641048 253.459966 
Q 109.641048 254.499966 109.061048 255.569966 
Q 108.273548 257.014966 105.616048 259.599966 
L 107.906048 259.599966 
Q 108.748548 259.599966 109.003548 259.529966 
Q 109.258548 259.459966 109.421048 259.292466 
Q 109.586048 259.124966 109.851048 258.584966 
L 110.133548 258.584966 
L 109.538548 261.647466 
z
M 113.351048 251.052466 
L 118.311048 251.052466 
L 117.523548 253.069966 
L 113.351048 253.069966 
L 112.953548 254.124966 
Q 115.648548 254.224966 117.101048 255.467466 
Q 118.296048 256.489966 118.296048 258.014966 
Q 118.296048 258.989966 117.741048 259.924966 
Q 117.186048 260.857466 116.178548 261.362466 
Q 115.171048 261.867466 113.968548 261.867466 
Q 112.671048 261.867466 111.976048 261.382466 
Q 111.491048 261.037466 111.491048 260.599966 
Q 111.491048 260.264966 111.743548 260.007466 
Q 111.998548 259.749966 112.336048 259.749966 
Q 112.641048 259.749966 112.953548 259.874966 
Q 113.266048 259.999966 114.023548 260.529966 
Q 114.498548 260.857466 114.843548 260.982466 
Q 115.086048 261.077466 115.391048 261.077466 
Q 116.031048 261.077466 116.478548 260.609966 
Q 116.928548 260.139966 116.928548 259.482466 
Q 116.928548 258.107466 115.553548 257.249966 
Q 114.178548 256.389966 112.086048 256.389966 
Q 111.873548 256.389966 111.453548 256.397466 
L 113.351048 251.052466 
z
M 126.428548 250.834966 
L 126.428548 251.052466 
Q 125.016048 251.412466 124.158548 251.979966 
Q 123.303548 252.544966 122.806048 253.354966 
Q 122.311048 254.162466 122.038548 255.357466 
Q 122.383548 255.124966 122.608548 255.052466 
Q 123.116048 254.897466 123.633548 254.897466 
Q 124.821048 254.897466 125.613548 255.762466 
Q 126.406048 256.624966 126.406048 258.114966 
Q 126.406048 259.162466 125.976048 260.037466 
Q 125.546048 260.912466 124.756048 261.389966 
Q 123.968548 261.867466 123.071048 261.867466 
Q 122.093548 261.867466 121.263548 261.332466 
Q 120.436048 260.794966 119.971048 259.764966 
Q 119.508548 258.732466 119.508548 257.522466 
Q 119.508548 255.739966 120.363548 254.204966 
Q 121.218548 252.669966 122.791048 251.759966 
Q 124.366048 250.849966 126.428548 250.834966 
z
M 121.936048 255.989966 
Q 121.873548 257.069966 121.873548 257.569966 
Q 121.873548 258.647466 122.081048 259.654966 
Q 122.288548 260.662466 122.648548 261.069966 
Q 122.906048 261.357466 123.258548 261.357466 
Q 123.616048 261.357466 123.896048 260.939966 
Q 124.178548 260.522466 124.178548 259.239966 
Q 124.178548 257.084966 123.656048 256.264966 
Q 123.321048 255.732466 122.748548 255.732466 
Q 122.436048 255.732466 121.936048 255.989966 
z
M 128.913548 259.239966 
Q 129.461048 259.239966 129.838548 259.624966 
Q 130.218548 260.007466 130.218548 260.544966 
Q 130.218548 261.084966 129.836048 261.464966 
Q 129.453548 261.842466 128.913548 261.842466 
Q 128.373548 261.842466 127.993548 261.464966 
Q 127.616048 261.084966 127.616048 260.544966 
Q 127.616048 260.007466 127.993548 259.624966 
Q 128.373548 259.239966 128.913548 259.239966 
z
M 137.538548 261.647466 
L 131.303548 261.647466 
L 131.303548 261.474966 
Q 134.171048 258.062466 134.783548 256.882466 
Q 135.398548 255.702466 135.398548 254.577466 
Q 135.398548 253.757466 134.891048 253.214966 
Q 134.383548 252.669966 133.648548 252.669966 
Q 132.446048 252.669966 131.781048 253.874966 
L 131.491048 253.772466 
Q 131.913548 252.272466 132.773548 251.554966 
Q 133.633548 250.834966 134.758548 250.834966 
Q 135.561048 250.834966 136.226048 251.209966 
Q 136.891048 251.584966 137.266048 252.237466 
Q 137.641048 252.889966 137.641048 253.459966 
Q 137.641048 254.499966 137.061048 255.569966 
Q 136.273548 257.014966 133.616048 259.599966 
L 135.906048 259.599966 
Q 136.748548 259.599966 137.003548 259.529966 
Q 137.258548 259.459966 137.421048 259.292466 
Q 137.586048 259.124966 137.851048 258.584966 
L 138.133548 258.584966 
L 137.538548 261.647466 
z
" style="stroke: #ffffff; stroke-width: 3.8"/>
    <path d="M 109.538548 261.647466 
L 103.303548 261.647466 
L 103.303548 261.474966 
Q 106.171048 258.062466 106.783548 256.882466 
Q 107.398548 255.702466 107.398548 254.577466 
Q 107.398548 253.757466 106.891048 253.214966 
Q 106.383548 252.669966 105.648548 252.669966 
Q 104.446048 252.669966 103.781048 253.874966 
L 103.491048 253.772466 
Q 103.913548 252.272466 104.773548 251.554966 
Q 105.633548 250.834966 106.758548 250.834966 
Q 107.561048 250.834966 108.226048 251.209966 
Q 108.891048 251.584966 109.266048 252.237466 
Q 109.641048 252.889966 109.641048 253.459966 
Q 109.641048 254.499966 109.061048 255.569966 
Q 108.273548 257.014966 105.616048 259.599966 
L 107.906048 259.599966 
Q 108.748548 259.599966 109.003548 259.529966 
Q 109.258548 259.459966 109.421048 259.292466 
Q 109.586048 259.124966 109.851048 258.584966 
L 110.133548 258.584966 
L 109.538548 261.647466 
z
M 113.351048 251.052466 
L 118.311048 251.052466 
L 117.523548 253.069966 
L 113.351048 253.069966 
L 112.953548 254.124966 
Q 115.648548 254.224966 117.101048 255.467466 
Q 118.296048 256.489966 118.296048 258.014966 
Q 118.296048 258.989966 117.741048 259.924966 
Q 117.186048 260.857466 116.178548 261.362466 
Q 115.171048 261.867466 113.968548 261.867466 
Q 112.671048 261.867466 111.976048 261.382466 
Q 111.491048 261.037466 111.491048 260.599966 
Q 111.491048 260.264966 111.743548 260.007466 
Q 111.998548 259.749966 112.336048 259.749966 
Q 112.641048 259.749966 112.953548 259.874966 
Q 113.266048 259.999966 114.023548 260.529966 
Q 114.498548 260.857466 114.843548 260.982466 
Q 115.086048 261.077466 115.391048 261.077466 
Q 116.031048 261.077466 116.478548 260.609966 
Q 116.928548 260.139966 116.928548 259.482466 
Q 116.928548 258.107466 115.553548 257.249966 
Q 114.178548 256.389966 112.086048 256.389966 
Q 111.873548 256.389966 111.453548 256.397466 
L 113.351048 251.052466 
z
M 126.428548 250.834966 
L 126.428548 251.052466 
Q 125.016048 251.412466 124.158548 251.979966 
Q 123.303548 252.544966 122.806048 253.354966 
Q 122.311048 254.162466 122.038548 255.357466 
Q 122.383548 255.124966 122.608548 255.052466 
Q 123.116048 254.897466 123.633548 254.897466 
Q 124.821048 254.897466 125.613548 255.762466 
Q 126.406048 256.624966 126.406048 258.114966 
Q 126.406048 259.162466 125.976048 260.037466 
Q 125.546048 260.912466 124.756048 261.389966 
Q 123.968548 261.867466 123.071048 261.867466 
Q 122.093548 261.867466 121.263548 261.332466 
Q 120.436048 260.794966 119.971048 259.764966 
Q 119.508548 258.732466 119.508548 257.522466 
Q 119.508548 255.739966 120.363548 254.204966 
Q 121.218548 252.669966 122.791048 251.759966 
Q 124.366048 250.849966 126.428548 250.834966 
z
M 121.936048 255.989966 
Q 121.873548 257.069966 121.873548 257.569966 
Q 121.873548 258.647466 122.081048 259.654966 
Q 122.288548 260.662466 122.648548 261.069966 
Q 122.906048 261.357466 123.258548 261.357466 
Q 123.616048 261.357466 123.896048 260.939966 
Q 124.178548 260.522466 124.178548 259.239966 
Q 124.178548 257.084966 123.656048 256.264966 
Q 123.321048 255.732466 122.748548 255.732466 
Q 122.436048 255.732466 121.936048 255.989966 
z
M 128.913548 259.239966 
Q 129.461048 259.239966 129.838548 259.624966 
Q 130.218548 260.007466 130.218548 260.544966 
Q 130.218548 261.084966 129.836048 261.464966 
Q 129.453548 261.842466 128.913548 261.842466 
Q 128.373548 261.842466 127.993548 261.464966 
Q 127.616048 261.084966 127.616048 260.544966 
Q 127.616048 260.007466 127.993548 259.624966 
Q 128.373548 259.239966 128.913548 259.239966 
z
M 137.538548 261.647466 
L 131.303548 261.647466 
L 131.303548 261.474966 
Q 134.171048 258.062466 134.783548 256.882466 
Q 135.398548 255.702466 135.398548 254.577466 
Q 135.398548 253.757466 134.891048 253.214966 
Q 134.383548 252.669966 133.648548 252.669966 
Q 132.446048 252.669966 131.781048 253.874966 
L 131.491048 253.772466 
Q 131.913548 252.272466 132.773548 251.554966 
Q 133.633548 250.834966 134.758548 250.834966 
Q 135.561048 250.834966 136.226048 251.209966 
Q 136.891048 251.584966 137.266048 252.237466 
Q 137.641048 252.889966 137.641048 253.459966 
Q 137.641048 254.499966 137.061048 255.569966 
Q 136.273548 257.014966 133.616048 259.599966 
L 135.906048 259.599966 
Q 136.748548 259.599966 137.003548 259.529966 
Q 137.258548 259.459966 137.421048 259.292466 
Q 137.586048 259.124966 137.851048 258.584966 
L 138.133548 258.584966 
L 137.538548 261.647466 
z
"/>
   </g>
   <g id="text_19">
    <path d="M 577.869323 261.31215 
L 580.754323 252.56965 
L 578.556823 252.56965 
Q 577.269323 252.56965 576.619323 252.90465 
Q 576.166823 253.13965 575.869323 253.78715 
L 575.574323 253.78715 
L 576.339323 250.49715 
L 582.651823 250.49715 
L 579.096823 261.31215 
L 577.869323 261.31215 
z
M 583.431823 257.09965 
L 588.464323 250.27965 
L 589.416823 250.27965 
L 589.416823 257.09965 
L 590.386823 257.09965 
L 590.386823 258.71715 
L 589.416823 258.71715 
L 589.416823 261.09215 
L 587.269323 261.09215 
L 587.269323 258.71715 
L 583.431823 258.71715 
L 583.431823 257.09965 
z
M 584.191823 257.09965 
L 587.269323 257.09965 
L 587.269323 252.91965 
L 584.191823 257.09965 
z
M 593.034323 258.68465 
Q 593.581823 258.68465 593.959323 259.06965 
Q 594.339323 259.45215 594.339323 259.98965 
Q 594.339323 260.52965 593.956823 260.90965 
Q 593.574323 261.28715 593.034323 261.28715 
Q 592.494323 261.28715 592.114323 260.90965 
Q 591.736823 260.52965 591.736823 259.98965 
Q 591.736823 259.45215 592.114323 259.06965 
Q 592.494323 258.68465 593.034323 258.68465 
z
M 597.471823 250.49715 
L 602.431823 250.49715 
L 601.644323 252.51465 
L 597.471823 252.51465 
L 597.074323 253.56965 
Q 599.769323 253.66965 601.221823 254.91215 
Q 602.416823 255.93465 602.416823 257.45965 
Q 602.416823 258.43465 601.861823 259.36965 
Q 601.306823 260.30215 600.299323 260.80715 
Q 599.291823 261.31215 598.089323 261.31215 
Q 596.791823 261.31215 596.096823 260.82715 
Q 595.611823 260.48215 595.611823 260.04465 
Q 595.611823 259.70965 595.864323 259.45215 
Q 596.119323 259.19465 596.456823 259.19465 
Q 596.761823 259.19465 597.074323 259.31965 
Q 597.386823 259.44465 598.144323 259.97465 
Q 598.619323 260.30215 598.964323 260.42715 
Q 599.206823 260.52215 599.511823 260.52215 
Q 600.151823 260.52215 600.599323 260.05465 
Q 601.049323 259.58465 601.049323 258.92715 
Q 601.049323 257.55215 599.674323 256.69465 
Q 598.299323 255.83465 596.206823 255.83465 
Q 595.994323 255.83465 595.574323 255.84215 
L 597.471823 250.49715 
z
" style="stroke: #ffffff; stroke-width: 3.8"/>
    <path d="M 577.869323 261.31215 
L 580.754323 252.56965 
L 578.556823 252.56965 
Q 577.269323 252.56965 576.619323 252.90465 
Q 576.166823 253.13965 575.869323 253.78715 
L 575.574323 253.78715 
L 576.339323 250.49715 
L 582.651823 250.49715 
L 579.096823 261.31215 
L 577.869323 261.31215 
z
M 583.431823 257.09965 
L 588.464323 250.27965 
L 589.416823 250.27965 
L 589.416823 257.09965 
L 590.386823 257.09965 
L 590.386823 258.71715 
L 589.416823 258.71715 
L 589.416823 261.09215 
L 587.269323 261.09215 
L 587.269323 258.71715 
L 583.431823 258.71715 
L 583.431823 257.09965 
z
M 584.191823 257.09965 
L 587.269323 257.09965 
L 587.269323 252.91965 
L 584.191823 257.09965 
z
M 593.034323 258.68465 
Q 593.581823 258.68465 593.959323 259.06965 
Q 594.339323 259.45215 594.339323 259.98965 
Q 594.339323 260.52965 593.956823 260.90965 
Q 593.574323 261.28715 593.034323 261.28715 
Q 592.494323 261.28715 592.114323 260.90965 
Q 591.736823 260.52965 591.736823 259.98965 
Q 591.736823 259.45215 592.114323 259.06965 
Q 592.494323 258.68465 593.034323 258.68465 
z
M 597.471823 250.49715 
L 602.431823 250.49715 
L 601.644323 252.51465 
L 597.471823 252.51465 
L 597.074323 253.56965 
Q 599.769323 253.66965 601.221823 254.91215 
Q 602.416823 255.93465 602.416823 257.45965 
Q 602.416823 258.43465 601.861823 259.36965 
Q 601.306823 260.30215 600.299323 260.80715 
Q 599.291823 261.31215 598.089323 261.31215 
Q 596.791823 261.31215 596.096823 260.82715 
Q 595.611823 260.48215 595.611823 260.04465 
Q 595.611823 259.70965 595.864323 259.45215 
Q 596.119323 259.19465 596.456823 259.19465 
Q 596.761823 259.19465 597.074323 259.31965 
Q 597.386823 259.44465 598.144323 259.97465 
Q 598.619323 260.30215 598.964323 260.42715 
Q 599.206823 260.52215 599.511823 260.52215 
Q 600.151823 260.52215 600.599323 260.05465 
Q 601.049323 259.58465 601.049323 258.92715 
Q 601.049323 257.55215 599.674323 256.69465 
Q 598.299323 255.83465 596.206823 255.83465 
Q 595.994323 255.83465 595.574323 255.84215 
L 597.471823 250.49715 
z
"/>
   </g>
   <g id="text_20">
    <path d="M 572.281808 425.97009 
L 576.999777 419.57634 
L 577.892746 419.57634 
L 577.892746 425.97009 
L 578.802121 425.97009 
L 578.802121 427.486497 
L 577.892746 427.486497 
L 577.892746 429.713059 
L 575.879465 429.713059 
L 575.879465 427.486497 
L 572.281808 427.486497 
L 572.281808 425.97009 
z
M 572.994308 425.97009 
L 575.879465 425.97009 
L 575.879465 422.05134 
L 572.994308 425.97009 
z
M 581.284152 427.456028 
Q 581.797433 427.456028 582.15134 427.816965 
Q 582.50759 428.175559 582.50759 428.679465 
Q 582.50759 429.185715 582.148996 429.541965 
Q 581.790402 429.895872 581.284152 429.895872 
Q 580.777902 429.895872 580.421652 429.541965 
Q 580.067746 429.185715 580.067746 428.679465 
Q 580.067746 428.175559 580.421652 427.816965 
Q 580.777902 427.456028 581.284152 427.456028 
z
M 583.531808 425.97009 
L 588.249777 419.57634 
L 589.142746 419.57634 
L 589.142746 425.97009 
L 590.052121 425.97009 
L 590.052121 427.486497 
L 589.142746 427.486497 
L 589.142746 429.713059 
L 587.129465 429.713059 
L 587.129465 427.486497 
L 583.531808 427.486497 
L 583.531808 425.97009 
z
M 584.244308 425.97009 
L 587.129465 425.97009 
L 587.129465 422.05134 
L 584.244308 425.97009 
z
" style="fill: #404040; stroke: #ffffff; stroke-width: 3.8"/>
    <path d="M 572.281808 425.97009 
L 576.999777 419.57634 
L 577.892746 419.57634 
L 577.892746 425.97009 
L 578.802121 425.97009 
L 578.802121 427.486497 
L 577.892746 427.486497 
L 577.892746 429.713059 
L 575.879465 429.713059 
L 575.879465 427.486497 
L 572.281808 427.486497 
L 572.281808 425.97009 
z
M 572.994308 425.97009 
L 575.879465 425.97009 
L 575.879465 422.05134 
L 572.994308 425.97009 
z
M 581.284152 427.456028 
Q 581.797433 427.456028 582.15134 427.816965 
Q 582.50759 428.175559 582.50759 428.679465 
Q 582.50759 429.185715 582.148996 429.541965 
Q 581.790402 429.895872 581.284152 429.895872 
Q 580.777902 429.895872 580.421652 429.541965 
Q 580.067746 429.185715 580.067746 428.679465 
Q 580.067746 428.175559 580.421652 427.816965 
Q 580.777902 427.456028 581.284152 427.456028 
z
M 583.531808 425.97009 
L 588.249777 419.57634 
L 589.142746 419.57634 
L 589.142746 425.97009 
L 590.052121 425.97009 
L 590.052121 427.486497 
L 589.142746 427.486497 
L 589.142746 429.713059 
L 587.129465 429.713059 
L 587.129465 427.486497 
L 583.531808 427.486497 
L 583.531808 425.97009 
z
M 584.244308 425.97009 
L 587.129465 425.97009 
L 587.129465 422.05134 
L 584.244308 425.97009 
z
" style="fill: #404040"/>
   </g>
   <g id="text_21">
    <path d="M 566.714717 389.913168 
L 566.714717 398.036606 
Q 566.714717 398.950668 566.794404 399.203793 
Q 566.876436 399.456918 567.131904 399.618637 
Q 567.389717 399.778012 567.954561 399.778012 
L 568.179561 399.778012 
L 568.179561 400.049887 
L 562.950654 400.049887 
L 562.950654 399.778012 
L 563.215498 399.778012 
Q 563.852998 399.778012 564.122529 399.6327 
Q 564.394404 399.485043 564.488154 399.229575 
Q 564.584248 398.974106 564.584248 398.036606 
L 564.584248 392.887387 
Q 564.584248 392.198325 564.518623 392.027231 
Q 564.452998 391.853793 564.272529 391.734262 
Q 564.094404 391.612387 563.860029 391.612387 
Q 563.485029 391.612387 562.950654 391.846762 
L 562.819404 391.581918 
L 566.473311 389.913168 
L 566.714717 389.913168 
z
M 571.988154 400.256137 
L 574.692842 392.060043 
L 572.632686 392.060043 
Q 571.425654 392.060043 570.816279 392.374106 
Q 570.392061 392.594418 570.113154 393.20145 
L 569.836592 393.20145 
L 570.553779 390.117075 
L 576.471748 390.117075 
L 573.138936 400.256137 
L 571.988154 400.256137 
z
M 583.781904 395.083481 
Q 583.781904 396.571762 583.364717 397.860825 
Q 583.113936 398.650668 582.692061 399.156918 
Q 582.272529 399.660825 581.738154 399.958481 
Q 581.203779 400.256137 580.573311 400.256137 
Q 579.856123 400.256137 579.277217 399.890512 
Q 578.698311 399.522543 578.250654 398.840512 
Q 577.929561 398.343637 577.688154 397.516293 
Q 577.371748 396.395981 577.371748 395.200668 
Q 577.371748 393.583481 577.826436 392.22645 
Q 578.199092 391.106137 578.960811 390.510825 
Q 579.722529 389.913168 580.573311 389.913168 
Q 581.438154 389.913168 582.188154 390.503793 
Q 582.938154 391.092075 583.289717 392.088168 
Q 583.781904 393.456918 583.781904 395.083481 
z
M 581.524873 395.069418 
Q 581.524873 392.460825 581.496748 392.029575 
Q 581.421748 391.012387 581.145186 390.653793 
Q 580.962373 390.419418 580.552217 390.419418 
Q 580.235811 390.419418 580.052998 390.5952 
Q 579.781123 390.850668 579.685029 391.499887 
Q 579.591279 392.146762 579.591279 396.020981 
Q 579.591279 398.130356 579.738936 398.847543 
Q 579.849092 399.367856 580.052998 399.543637 
Q 580.259248 399.719418 580.594404 399.719418 
Q 580.962373 399.719418 581.145186 399.485043 
Q 581.452217 399.074887 581.496748 398.219418 
L 581.524873 395.069418 
z
M 586.205342 397.792856 
Q 586.718623 397.792856 587.072529 398.153793 
Q 587.428779 398.512387 587.428779 399.016293 
Q 587.428779 399.522543 587.070186 399.878793 
Q 586.711592 400.2327 586.205342 400.2327 
Q 585.699092 400.2327 585.342842 399.878793 
Q 584.988936 399.522543 584.988936 399.016293 
Q 584.988936 398.512387 585.342842 398.153793 
Q 585.699092 397.792856 586.205342 397.792856 
z
M 592.964717 389.913168 
L 592.964717 398.036606 
Q 592.964717 398.950668 593.044404 399.203793 
Q 593.126436 399.456918 593.381904 399.618637 
Q 593.639717 399.778012 594.204561 399.778012 
L 594.429561 399.778012 
L 594.429561 400.049887 
L 589.200654 400.049887 
L 589.200654 399.778012 
L 589.465498 399.778012 
Q 590.102998 399.778012 590.372529 399.6327 
Q 590.644404 399.485043 590.738154 399.229575 
Q 590.834248 398.974106 590.834248 398.036606 
L 590.834248 392.887387 
Q 590.834248 392.198325 590.768623 392.027231 
Q 590.702998 391.853793 590.522529 391.734262 
Q 590.344404 391.612387 590.110029 391.612387 
Q 589.735029 391.612387 589.200654 391.846762 
L 589.069404 391.581918 
L 592.723311 389.913168 
L 592.964717 389.913168 
z
" style="fill: #404040; stroke: #ffffff; stroke-width: 3.8"/>
    <path d="M 566.714717 389.913168 
L 566.714717 398.036606 
Q 566.714717 398.950668 566.794404 399.203793 
Q 566.876436 399.456918 567.131904 399.618637 
Q 567.389717 399.778012 567.954561 399.778012 
L 568.179561 399.778012 
L 568.179561 400.049887 
L 562.950654 400.049887 
L 562.950654 399.778012 
L 563.215498 399.778012 
Q 563.852998 399.778012 564.122529 399.6327 
Q 564.394404 399.485043 564.488154 399.229575 
Q 564.584248 398.974106 564.584248 398.036606 
L 564.584248 392.887387 
Q 564.584248 392.198325 564.518623 392.027231 
Q 564.452998 391.853793 564.272529 391.734262 
Q 564.094404 391.612387 563.860029 391.612387 
Q 563.485029 391.612387 562.950654 391.846762 
L 562.819404 391.581918 
L 566.473311 389.913168 
L 566.714717 389.913168 
z
M 571.988154 400.256137 
L 574.692842 392.060043 
L 572.632686 392.060043 
Q 571.425654 392.060043 570.816279 392.374106 
Q 570.392061 392.594418 570.113154 393.20145 
L 569.836592 393.20145 
L 570.553779 390.117075 
L 576.471748 390.117075 
L 573.138936 400.256137 
L 571.988154 400.256137 
z
M 583.781904 395.083481 
Q 583.781904 396.571762 583.364717 397.860825 
Q 583.113936 398.650668 582.692061 399.156918 
Q 582.272529 399.660825 581.738154 399.958481 
Q 581.203779 400.256137 580.573311 400.256137 
Q 579.856123 400.256137 579.277217 399.890512 
Q 578.698311 399.522543 578.250654 398.840512 
Q 577.929561 398.343637 577.688154 397.516293 
Q 577.371748 396.395981 577.371748 395.200668 
Q 577.371748 393.583481 577.826436 392.22645 
Q 578.199092 391.106137 578.960811 390.510825 
Q 579.722529 389.913168 580.573311 389.913168 
Q 581.438154 389.913168 582.188154 390.503793 
Q 582.938154 391.092075 583.289717 392.088168 
Q 583.781904 393.456918 583.781904 395.083481 
z
M 581.524873 395.069418 
Q 581.524873 392.460825 581.496748 392.029575 
Q 581.421748 391.012387 581.145186 390.653793 
Q 580.962373 390.419418 580.552217 390.419418 
Q 580.235811 390.419418 580.052998 390.5952 
Q 579.781123 390.850668 579.685029 391.499887 
Q 579.591279 392.146762 579.591279 396.020981 
Q 579.591279 398.130356 579.738936 398.847543 
Q 579.849092 399.367856 580.052998 399.543637 
Q 580.259248 399.719418 580.594404 399.719418 
Q 580.962373 399.719418 581.145186 399.485043 
Q 581.452217 399.074887 581.496748 398.219418 
L 581.524873 395.069418 
z
M 586.205342 397.792856 
Q 586.718623 397.792856 587.072529 398.153793 
Q 587.428779 398.512387 587.428779 399.016293 
Q 587.428779 399.522543 587.070186 399.878793 
Q 586.711592 400.2327 586.205342 400.2327 
Q 585.699092 400.2327 585.342842 399.878793 
Q 584.988936 399.522543 584.988936 399.016293 
Q 584.988936 398.512387 585.342842 398.153793 
Q 585.699092 397.792856 586.205342 397.792856 
z
M 592.964717 389.913168 
L 592.964717 398.036606 
Q 592.964717 398.950668 593.044404 399.203793 
Q 593.126436 399.456918 593.381904 399.618637 
Q 593.639717 399.778012 594.204561 399.778012 
L 594.429561 399.778012 
L 594.429561 400.049887 
L 589.200654 400.049887 
L 589.200654 399.778012 
L 589.465498 399.778012 
Q 590.102998 399.778012 590.372529 399.6327 
Q 590.644404 399.485043 590.738154 399.229575 
Q 590.834248 398.974106 590.834248 398.036606 
L 590.834248 392.887387 
Q 590.834248 392.198325 590.768623 392.027231 
Q 590.702998 391.853793 590.522529 391.734262 
Q 590.344404 391.612387 590.110029 391.612387 
Q 589.735029 391.612387 589.200654 391.846762 
L 589.069404 391.581918 
L 592.723311 389.913168 
L 592.964717 389.913168 
z
" style="fill: #404040"/>
   </g>
   <g id="text_22">
    <path d="M 465.963432 321.6958 
L 470.6814 315.30205 
L 471.574369 315.30205 
L 471.574369 321.6958 
L 472.483744 321.6958 
L 472.483744 323.212206 
L 471.574369 323.212206 
L 471.574369 325.438769 
L 469.561088 325.438769 
L 469.561088 323.212206 
L 465.963432 323.212206 
L 465.963432 321.6958 
z
M 466.675932 321.6958 
L 469.561088 321.6958 
L 469.561088 317.77705 
L 466.675932 321.6958 
z
M 480.136088 315.30205 
L 480.136088 315.505956 
Q 478.811869 315.843456 478.007963 316.375487 
Q 477.2064 316.905175 476.739994 317.66455 
Q 476.275932 318.421581 476.020463 319.541894 
Q 476.3439 319.323925 476.554838 319.255956 
Q 477.030619 319.110644 477.515775 319.110644 
Q 478.629057 319.110644 479.372025 319.921581 
Q 480.114994 320.730175 480.114994 322.12705 
Q 480.114994 323.109081 479.711869 323.929394 
Q 479.308744 324.749706 478.568119 325.197362 
Q 477.829838 325.645019 476.988432 325.645019 
Q 476.072025 325.645019 475.2939 325.143456 
Q 474.518119 324.63955 474.082182 323.673925 
Q 473.648588 322.705956 473.648588 321.571581 
Q 473.648588 319.900487 474.45015 318.461425 
Q 475.251713 317.022362 476.725932 316.169237 
Q 478.202494 315.316112 480.136088 315.30205 
z
M 475.924369 320.134862 
Q 475.865775 321.147362 475.865775 321.616112 
Q 475.865775 322.626269 476.060307 323.5708 
Q 476.254838 324.515331 476.592338 324.897362 
Q 476.833744 325.166894 477.164213 325.166894 
Q 477.499369 325.166894 477.761869 324.775487 
Q 478.026713 324.384081 478.026713 323.181737 
Q 478.026713 321.161425 477.536869 320.392675 
Q 477.222807 319.893456 476.686088 319.893456 
Q 476.393119 319.893456 475.924369 320.134862 
z
M 485.702494 319.827831 
Q 486.75015 320.596581 487.155619 321.259862 
Q 487.563432 321.923144 487.563432 322.780956 
Q 487.563432 323.980956 486.658744 324.812987 
Q 485.754057 325.645019 484.202494 325.645019 
Q 482.730619 325.645019 481.924369 324.9208 
Q 481.118119 324.194237 481.118119 323.146581 
Q 481.118119 322.347362 481.582182 321.747362 
Q 482.048588 321.147362 483.1314 320.648144 
Q 481.952494 319.748144 481.619682 319.176269 
Q 481.286869 318.604394 481.286869 317.849706 
Q 481.286869 316.853612 482.132963 316.096581 
Q 482.979057 315.33955 484.450932 315.33955 
Q 485.871244 315.33955 486.635307 316.009862 
Q 487.401713 316.677831 487.401713 317.615331 
Q 487.401713 318.318456 486.986869 318.857519 
Q 486.574369 319.396581 485.702494 319.827831 
z
M 485.147025 319.455175 
Q 485.416557 319.08955 485.547807 318.634862 
Q 485.6814 318.180175 485.6814 317.638769 
Q 485.6814 316.687206 485.271244 316.180956 
Q 484.964213 315.791894 484.420463 315.791894 
Q 483.930619 315.791894 483.586088 316.148144 
Q 483.241557 316.50205 483.241557 317.029394 
Q 483.241557 317.566112 483.625932 318.140331 
Q 484.010307 318.71455 485.147025 319.455175 
z
M 483.682182 320.999706 
Q 483.454838 321.205956 483.358744 321.374706 
Q 483.213432 321.630175 483.096244 322.122362 
Q 482.979057 322.612206 482.979057 323.146581 
Q 482.979057 323.835644 483.154838 324.299706 
Q 483.330619 324.763769 483.6564 324.970019 
Q 483.982182 325.173925 484.326713 325.173925 
Q 484.861088 325.173925 485.226713 324.782519 
Q 485.592338 324.391112 485.592338 323.709081 
Q 485.592338 322.288769 483.682182 320.999706 
z
M 489.965775 323.181737 
Q 490.479057 323.181737 490.832963 323.542675 
Q 491.189213 323.901269 491.189213 324.405175 
Q 491.189213 324.911425 490.830619 325.267675 
Q 490.472025 325.621581 489.965775 325.621581 
Q 489.459525 325.621581 489.103275 325.267675 
Q 488.749369 324.911425 488.749369 324.405175 
Q 488.749369 323.901269 489.103275 323.542675 
Q 489.459525 323.181737 489.965775 323.181737 
z
M 492.302494 325.645019 
L 492.302494 325.438769 
Q 493.5189 325.159862 494.364994 324.618456 
Q 495.211088 324.07705 495.703275 323.277831 
Q 496.197807 322.478612 496.397025 321.440331 
Q 495.942338 321.674706 495.623588 321.766112 
Q 495.304838 321.857519 494.953275 321.857519 
Q 493.825932 321.857519 493.073588 321.044237 
Q 492.323588 320.230956 492.323588 318.817675 
Q 492.323588 317.835644 492.729057 317.020019 
Q 493.136869 316.20205 493.891557 315.75205 
Q 494.646244 315.30205 495.459525 315.30205 
Q 496.3314 315.30205 497.107182 315.801269 
Q 497.882963 316.298144 498.344682 317.242675 
Q 498.8064 318.187206 498.8064 319.396581 
Q 498.8064 320.96455 498.054057 322.401269 
Q 497.304057 323.835644 495.818119 324.702831 
Q 494.332182 325.570019 492.302494 325.645019 
z
M 496.507182 320.823925 
Q 496.579838 320.003612 496.579838 319.382519 
Q 496.579838 318.048925 496.272807 316.898144 
Q 496.097025 316.260644 495.752494 315.960644 
Q 495.569682 315.798925 495.276713 315.798925 
Q 494.908744 315.798925 494.704838 316.115331 
Q 494.4189 316.546581 494.4189 317.762987 
Q 494.4189 319.792675 494.901713 320.561425 
Q 495.218119 321.0583 495.752494 321.0583 
Q 496.038432 321.0583 496.507182 320.823925 
z
" style="fill: #404040; stroke: #ffffff; stroke-width: 3.8"/>
    <path d="M 465.963432 321.6958 
L 470.6814 315.30205 
L 471.574369 315.30205 
L 471.574369 321.6958 
L 472.483744 321.6958 
L 472.483744 323.212206 
L 471.574369 323.212206 
L 471.574369 325.438769 
L 469.561088 325.438769 
L 469.561088 323.212206 
L 465.963432 323.212206 
L 465.963432 321.6958 
z
M 466.675932 321.6958 
L 469.561088 321.6958 
L 469.561088 317.77705 
L 466.675932 321.6958 
z
M 480.136088 315.30205 
L 480.136088 315.505956 
Q 478.811869 315.843456 478.007963 316.375487 
Q 477.2064 316.905175 476.739994 317.66455 
Q 476.275932 318.421581 476.020463 319.541894 
Q 476.3439 319.323925 476.554838 319.255956 
Q 477.030619 319.110644 477.515775 319.110644 
Q 478.629057 319.110644 479.372025 319.921581 
Q 480.114994 320.730175 480.114994 322.12705 
Q 480.114994 323.109081 479.711869 323.929394 
Q 479.308744 324.749706 478.568119 325.197362 
Q 477.829838 325.645019 476.988432 325.645019 
Q 476.072025 325.645019 475.2939 325.143456 
Q 474.518119 324.63955 474.082182 323.673925 
Q 473.648588 322.705956 473.648588 321.571581 
Q 473.648588 319.900487 474.45015 318.461425 
Q 475.251713 317.022362 476.725932 316.169237 
Q 478.202494 315.316112 480.136088 315.30205 
z
M 475.924369 320.134862 
Q 475.865775 321.147362 475.865775 321.616112 
Q 475.865775 322.626269 476.060307 323.5708 
Q 476.254838 324.515331 476.592338 324.897362 
Q 476.833744 325.166894 477.164213 325.166894 
Q 477.499369 325.166894 477.761869 324.775487 
Q 478.026713 324.384081 478.026713 323.181737 
Q 478.026713 321.161425 477.536869 320.392675 
Q 477.222807 319.893456 476.686088 319.893456 
Q 476.393119 319.893456 475.924369 320.134862 
z
M 485.702494 319.827831 
Q 486.75015 320.596581 487.155619 321.259862 
Q 487.563432 321.923144 487.563432 322.780956 
Q 487.563432 323.980956 486.658744 324.812987 
Q 485.754057 325.645019 484.202494 325.645019 
Q 482.730619 325.645019 481.924369 324.9208 
Q 481.118119 324.194237 481.118119 323.146581 
Q 481.118119 322.347362 481.582182 321.747362 
Q 482.048588 321.147362 483.1314 320.648144 
Q 481.952494 319.748144 481.619682 319.176269 
Q 481.286869 318.604394 481.286869 317.849706 
Q 481.286869 316.853612 482.132963 316.096581 
Q 482.979057 315.33955 484.450932 315.33955 
Q 485.871244 315.33955 486.635307 316.009862 
Q 487.401713 316.677831 487.401713 317.615331 
Q 487.401713 318.318456 486.986869 318.857519 
Q 486.574369 319.396581 485.702494 319.827831 
z
M 485.147025 319.455175 
Q 485.416557 319.08955 485.547807 318.634862 
Q 485.6814 318.180175 485.6814 317.638769 
Q 485.6814 316.687206 485.271244 316.180956 
Q 484.964213 315.791894 484.420463 315.791894 
Q 483.930619 315.791894 483.586088 316.148144 
Q 483.241557 316.50205 483.241557 317.029394 
Q 483.241557 317.566112 483.625932 318.140331 
Q 484.010307 318.71455 485.147025 319.455175 
z
M 483.682182 320.999706 
Q 483.454838 321.205956 483.358744 321.374706 
Q 483.213432 321.630175 483.096244 322.122362 
Q 482.979057 322.612206 482.979057 323.146581 
Q 482.979057 323.835644 483.154838 324.299706 
Q 483.330619 324.763769 483.6564 324.970019 
Q 483.982182 325.173925 484.326713 325.173925 
Q 484.861088 325.173925 485.226713 324.782519 
Q 485.592338 324.391112 485.592338 323.709081 
Q 485.592338 322.288769 483.682182 320.999706 
z
M 489.965775 323.181737 
Q 490.479057 323.181737 490.832963 323.542675 
Q 491.189213 323.901269 491.189213 324.405175 
Q 491.189213 324.911425 490.830619 325.267675 
Q 490.472025 325.621581 489.965775 325.621581 
Q 489.459525 325.621581 489.103275 325.267675 
Q 488.749369 324.911425 488.749369 324.405175 
Q 488.749369 323.901269 489.103275 323.542675 
Q 489.459525 323.181737 489.965775 323.181737 
z
M 492.302494 325.645019 
L 492.302494 325.438769 
Q 493.5189 325.159862 494.364994 324.618456 
Q 495.211088 324.07705 495.703275 323.277831 
Q 496.197807 322.478612 496.397025 321.440331 
Q 495.942338 321.674706 495.623588 321.766112 
Q 495.304838 321.857519 494.953275 321.857519 
Q 493.825932 321.857519 493.073588 321.044237 
Q 492.323588 320.230956 492.323588 318.817675 
Q 492.323588 317.835644 492.729057 317.020019 
Q 493.136869 316.20205 493.891557 315.75205 
Q 494.646244 315.30205 495.459525 315.30205 
Q 496.3314 315.30205 497.107182 315.801269 
Q 497.882963 316.298144 498.344682 317.242675 
Q 498.8064 318.187206 498.8064 319.396581 
Q 498.8064 320.96455 498.054057 322.401269 
Q 497.304057 323.835644 495.818119 324.702831 
Q 494.332182 325.570019 492.302494 325.645019 
z
M 496.507182 320.823925 
Q 496.579838 320.003612 496.579838 319.382519 
Q 496.579838 318.048925 496.272807 316.898144 
Q 496.097025 316.260644 495.752494 315.960644 
Q 495.569682 315.798925 495.276713 315.798925 
Q 494.908744 315.798925 494.704838 316.115331 
Q 494.4189 316.546581 494.4189 317.762987 
Q 494.4189 319.792675 494.901713 320.561425 
Q 495.218119 321.0583 495.752494 321.0583 
Q 496.038432 321.0583 496.507182 320.823925 
z
" style="fill: #404040"/>
   </g>
   <g id="text_23">
    <path d="M 323.47613 385.08399 
L 328.12613 385.08399 
L 327.387849 386.975396 
L 323.47613 386.975396 
L 323.103474 387.964459 
Q 325.630037 388.058209 326.991755 389.223053 
Q 328.112068 390.181646 328.112068 391.611334 
Q 328.112068 392.525396 327.591755 393.401959 
Q 327.071443 394.276178 326.126912 394.749615 
Q 325.18238 395.223053 324.055037 395.223053 
Q 322.83863 395.223053 322.187068 394.768365 
Q 321.73238 394.444928 321.73238 394.034771 
Q 321.73238 393.720709 321.969099 393.479303 
Q 322.208162 393.237896 322.524568 393.237896 
Q 322.810505 393.237896 323.103474 393.355084 
Q 323.396443 393.472271 324.106599 393.969146 
Q 324.551912 394.276178 324.875349 394.393365 
Q 325.102693 394.482428 325.38863 394.482428 
Q 325.98863 394.482428 326.408162 394.044146 
Q 326.830037 393.603521 326.830037 392.987115 
Q 326.830037 391.698053 325.540974 390.894146 
Q 324.251912 390.087896 322.290193 390.087896 
Q 322.090974 390.087896 321.697224 390.094928 
L 323.47613 385.08399 
z
M 333.575349 384.880084 
L 333.575349 393.003521 
Q 333.575349 393.917584 333.655037 394.170709 
Q 333.737068 394.423834 333.992537 394.585553 
Q 334.250349 394.744928 334.815193 394.744928 
L 335.040193 394.744928 
L 335.040193 395.016803 
L 329.811287 395.016803 
L 329.811287 394.744928 
L 330.07613 394.744928 
Q 330.71363 394.744928 330.983162 394.599615 
Q 331.255037 394.451959 331.348787 394.19649 
Q 331.44488 393.941021 331.44488 393.003521 
L 331.44488 387.854303 
Q 331.44488 387.16524 331.379255 386.994146 
Q 331.31363 386.820709 331.133162 386.701178 
Q 330.955037 386.579303 330.720662 386.579303 
Q 330.345662 386.579303 329.811287 386.813678 
L 329.680037 386.548834 
L 333.333943 384.880084 
L 333.575349 384.880084 
z
M 338.065974 392.759771 
Q 338.579255 392.759771 338.933162 393.120709 
Q 339.289412 393.479303 339.289412 393.983209 
Q 339.289412 394.489459 338.930818 394.845709 
Q 338.572224 395.199615 338.065974 395.199615 
Q 337.559724 395.199615 337.203474 394.845709 
Q 336.849568 394.489459 336.849568 393.983209 
Q 336.849568 393.479303 337.203474 393.120709 
Q 337.559724 392.759771 338.065974 392.759771 
z
M 342.22613 385.08399 
L 346.87613 385.08399 
L 346.137849 386.975396 
L 342.22613 386.975396 
L 341.853474 387.964459 
Q 344.380037 388.058209 345.741755 389.223053 
Q 346.862068 390.181646 346.862068 391.611334 
Q 346.862068 392.525396 346.341755 393.401959 
Q 345.821443 394.276178 344.876912 394.749615 
Q 343.93238 395.223053 342.805037 395.223053 
Q 341.58863 395.223053 340.937068 394.768365 
Q 340.48238 394.444928 340.48238 394.034771 
Q 340.48238 393.720709 340.719099 393.479303 
Q 340.958162 393.237896 341.274568 393.237896 
Q 341.560505 393.237896 341.853474 393.355084 
Q 342.146443 393.472271 342.856599 393.969146 
Q 343.301912 394.276178 343.625349 394.393365 
Q 343.852693 394.482428 344.13863 394.482428 
Q 344.73863 394.482428 345.158162 394.044146 
Q 345.580037 393.603521 345.580037 392.987115 
Q 345.580037 391.698053 344.290974 390.894146 
Q 343.001912 390.087896 341.040193 390.087896 
Q 340.840974 390.087896 340.447224 390.094928 
L 342.22613 385.08399 
z
" style="fill: #404040; stroke: #ffffff; stroke-width: 3.8"/>
    <path d="M 323.47613 385.08399 
L 328.12613 385.08399 
L 327.387849 386.975396 
L 323.47613 386.975396 
L 323.103474 387.964459 
Q 325.630037 388.058209 326.991755 389.223053 
Q 328.112068 390.181646 328.112068 391.611334 
Q 328.112068 392.525396 327.591755 393.401959 
Q 327.071443 394.276178 326.126912 394.749615 
Q 325.18238 395.223053 324.055037 395.223053 
Q 322.83863 395.223053 322.187068 394.768365 
Q 321.73238 394.444928 321.73238 394.034771 
Q 321.73238 393.720709 321.969099 393.479303 
Q 322.208162 393.237896 322.524568 393.237896 
Q 322.810505 393.237896 323.103474 393.355084 
Q 323.396443 393.472271 324.106599 393.969146 
Q 324.551912 394.276178 324.875349 394.393365 
Q 325.102693 394.482428 325.38863 394.482428 
Q 325.98863 394.482428 326.408162 394.044146 
Q 326.830037 393.603521 326.830037 392.987115 
Q 326.830037 391.698053 325.540974 390.894146 
Q 324.251912 390.087896 322.290193 390.087896 
Q 322.090974 390.087896 321.697224 390.094928 
L 323.47613 385.08399 
z
M 333.575349 384.880084 
L 333.575349 393.003521 
Q 333.575349 393.917584 333.655037 394.170709 
Q 333.737068 394.423834 333.992537 394.585553 
Q 334.250349 394.744928 334.815193 394.744928 
L 335.040193 394.744928 
L 335.040193 395.016803 
L 329.811287 395.016803 
L 329.811287 394.744928 
L 330.07613 394.744928 
Q 330.71363 394.744928 330.983162 394.599615 
Q 331.255037 394.451959 331.348787 394.19649 
Q 331.44488 393.941021 331.44488 393.003521 
L 331.44488 387.854303 
Q 331.44488 387.16524 331.379255 386.994146 
Q 331.31363 386.820709 331.133162 386.701178 
Q 330.955037 386.579303 330.720662 386.579303 
Q 330.345662 386.579303 329.811287 386.813678 
L 329.680037 386.548834 
L 333.333943 384.880084 
L 333.575349 384.880084 
z
M 338.065974 392.759771 
Q 338.579255 392.759771 338.933162 393.120709 
Q 339.289412 393.479303 339.289412 393.983209 
Q 339.289412 394.489459 338.930818 394.845709 
Q 338.572224 395.199615 338.065974 395.199615 
Q 337.559724 395.199615 337.203474 394.845709 
Q 336.849568 394.489459 336.849568 393.983209 
Q 336.849568 393.479303 337.203474 393.120709 
Q 337.559724 392.759771 338.065974 392.759771 
z
M 342.22613 385.08399 
L 346.87613 385.08399 
L 346.137849 386.975396 
L 342.22613 386.975396 
L 341.853474 387.964459 
Q 344.380037 388.058209 345.741755 389.223053 
Q 346.862068 390.181646 346.862068 391.611334 
Q 346.862068 392.525396 346.341755 393.401959 
Q 345.821443 394.276178 344.876912 394.749615 
Q 343.93238 395.223053 342.805037 395.223053 
Q 341.58863 395.223053 340.937068 394.768365 
Q 340.48238 394.444928 340.48238 394.034771 
Q 340.48238 393.720709 340.719099 393.479303 
Q 340.958162 393.237896 341.274568 393.237896 
Q 341.560505 393.237896 341.853474 393.355084 
Q 342.146443 393.472271 342.856599 393.969146 
Q 343.301912 394.276178 343.625349 394.393365 
Q 343.852693 394.482428 344.13863 394.482428 
Q 344.73863 394.482428 345.158162 394.044146 
Q 345.580037 393.603521 345.580037 392.987115 
Q 345.580037 391.698053 344.290974 390.894146 
Q 343.001912 390.087896 341.040193 390.087896 
Q 340.840974 390.087896 340.447224 390.094928 
L 342.22613 385.08399 
z
" style="fill: #404040"/>
   </g>
  </g>
 </g>
 <defs>
  <clipPath id="p51ce116bb8">
   <rect x="7.2" y="51.034687" width="734.4" height="438.48"/>
  </clipPath>
 </defs>
</svg>
