<?xml version="1.0" encoding="utf-8" standalone="no"?>
<!DOCTYPE svg PUBLIC "-//W3C//DTD SVG 1.1//EN"
  "http://www.w3.org/Graphics/SVG/1.1/DTD/svg11.dtd">
<svg xmlns:xlink="http://www.w3.org/1999/xlink" width="745.164pt" height="496.365321pt" viewBox="0 0 745.164 496.365321" xmlns="http://www.w3.org/2000/svg" version="1.1">
 <metadata>
  <rdf:RDF xmlns:dc="http://purl.org/dc/elements/1.1/" xmlns:cc="http://creativecommons.org/ns#" xmlns:rdf="http://www.w3.org/1999/02/22-rdf-syntax-ns#">
   <cc:Work>
    <dc:type rdf:resource="http://purl.org/dc/dcmitype/StillImage"/>
    <dc:date>2026-07-13T16:58:14.056059</dc:date>
    <dc:format>image/svg+xml</dc:format>
    <dc:creator>
     <cc:Agent>
      <dc:title>Matplotlib v3.10.8, https://matplotlib.org/</dc:title>
     </cc:Agent>
    </dc:creator>
   </cc:Work>
  </rdf:RDF>
 </metadata>
 <defs>
  <style type="text/css">*{stroke-linejoin: round; stroke-linecap: butt}</style>
 </defs>
 <g id="figure_1">
  <g id="patch_1">
   <path d="M 0 496.365321 
L 745.164 496.365321 
L 745.164 0 
L 0 0 
L 0 496.365321 
z
" style="fill: none"/>
  </g>
  <g id="axes_1">
   <g id="patch_2">
    <path d="M 120.350555 437.535872 
Q 120.350555 458.313058 120.350555 476.49165 
" clip-path="url(#pc1e54bd29f)" style="fill: none; stroke: #111111; stroke-width: 2.324252; stroke-linejoin: miter; stroke-linecap: round"/>
    <path d="M 124.038316 469.116128 
L 120.350555 476.49165 
L 116.662794 469.116128 
z
" clip-path="url(#pc1e54bd29f)" style="fill: #111111; stroke: #111111; stroke-width: 2.324252; stroke-linejoin: miter; stroke-linecap: round"/>
   </g>
   <g id="patch_3">
    <path d="M 120.350555 343.472462 
Q 120.350555 367.757926 120.350555 387.902811 
" clip-path="url(#pc1e54bd29f)" style="fill: none; stroke: #111111; stroke-width: 3.703447; stroke-linejoin: miter; stroke-linecap: round"/>
    <path d="M 124.479658 379.644605 
L 120.350555 387.902811 
L 116.221452 379.644605 
z
" clip-path="url(#pc1e54bd29f)" style="fill: #111111; stroke: #111111; stroke-width: 3.703447; stroke-linejoin: miter; stroke-linecap: round"/>
   </g>
   <g id="patch_4">
    <path d="M 120.350555 243.323321 
Q 120.350555 267.143372 120.350555 284.841562 
" clip-path="url(#pc1e54bd29f)" style="fill: none; stroke: #111111; stroke-width: 5.475558; stroke-linejoin: miter; stroke-linecap: round"/>
    <path d="M 125.046734 275.449204 
L 120.350555 284.841562 
L 115.654376 275.449204 
z
" clip-path="url(#pc1e54bd29f)" style="fill: #111111; stroke: #111111; stroke-width: 5.475558; stroke-linejoin: miter; stroke-linecap: round"/>
   </g>
   <g id="patch_5">
    <path d="M 370.224697 291.520322 
Q 370.224697 311.010826 370.224697 327.734601 
" clip-path="url(#pc1e54bd29f)" style="fill: none; stroke: #111111; stroke-width: 2.474638; stroke-linejoin: miter; stroke-linecap: round"/>
    <path d="M 373.960581 320.262833 
L 370.224697 327.734601 
L 366.488813 320.262833 
z
" clip-path="url(#pc1e54bd29f)" style="fill: #111111; stroke: #111111; stroke-width: 2.474638; stroke-linejoin: miter; stroke-linecap: round"/>
   </g>
   <g id="patch_6">
    <path d="M 370.224697 203.829375 
Q 370.224697 226.215289 370.224697 244.599388 
" clip-path="url(#pc1e54bd29f)" style="fill: none; stroke: #111111; stroke-width: 3.579332; stroke-linejoin: miter; stroke-linecap: round"/>
    <path d="M 374.314083 236.420616 
L 370.224697 244.599388 
L 366.13531 236.420616 
z
" clip-path="url(#pc1e54bd29f)" style="fill: #111111; stroke: #111111; stroke-width: 3.579332; stroke-linejoin: miter; stroke-linecap: round"/>
   </g>
   <g id="patch_7">
    <path d="M 370.224697 110.934085 
Q 370.224697 133.02676 370.224697 148.634838 
" clip-path="url(#pc1e54bd29f)" style="fill: none; stroke: #111111; stroke-width: 5.8; stroke-linejoin: miter; stroke-linecap: round"/>
    <path d="M 375.024697 139.034838 
L 370.224697 148.634838 
L 365.424697 139.034838 
z
" clip-path="url(#pc1e54bd29f)" style="fill: #111111; stroke: #111111; stroke-width: 5.8; stroke-linejoin: miter; stroke-linecap: round"/>
   </g>
   <g id="patch_8">
    <path d="M 586.153672 234.306609 
Q 586.153672 261.186305 586.153672 284.646897 
" clip-path="url(#pc1e54bd29f)" style="fill: none; stroke: #111111; stroke-width: 3.058138; stroke-linejoin: miter; stroke-linecap: round"/>
    <path d="M 590.076276 276.801689 
L 586.153672 284.646897 
L 582.231068 276.801689 
z
" clip-path="url(#pc1e54bd29f)" style="fill: #111111; stroke: #111111; stroke-width: 3.058138; stroke-linejoin: miter; stroke-linecap: round"/>
   </g>
   <g id="line2d_1">
    <path d="M 165.610777 479.090243 
L 550.322663 479.090243 
" clip-path="url(#pc1e54bd29f)" style="fill: none; stroke-dasharray: 5.6,4.2; stroke-dashoffset: 0; stroke: #404040; stroke-width: 1.4"/>
   </g>
   <g id="line2d_2">
    <path d="M 165.610777 392.043391 
L 550.322663 392.043391 
" clip-path="url(#pc1e54bd29f)" style="fill: none; stroke-dasharray: 5.6,4.2; stroke-dashoffset: 0; stroke: #404040; stroke-width: 1.4"/>
   </g>
   <g id="line2d_3">
    <path d="M 415.484919 330.50133 
L 560.694797 330.50133 
" clip-path="url(#pc1e54bd29f)" style="fill: none; stroke-dasharray: 5.6,4.2; stroke-dashoffset: 0; stroke: #404040; stroke-width: 1.4"/>
   </g>
   <g id="patch_9">
    <path d="M 665.359061 288.066 
Q 586.05645 381.294377 507.341601 473.831778 
" clip-path="url(#pc1e54bd29f)" style="fill: none; stroke: #404040; stroke-width: 0.811375; stroke-linejoin: miter; stroke-linecap: round"/>
    <path d="M 513.110556 471.377112 
L 507.341601 473.831778 
L 508.839241 467.743814 
z
" clip-path="url(#pc1e54bd29f)" style="fill: #404040; stroke: #404040; stroke-width: 0.811375; stroke-linejoin: miter; stroke-linecap: round"/>
   </g>
   <g id="patch_10">
    <path d="M 620.098839 288.066 
Q 577.820574 337.768449 537.387011 385.302262 
" clip-path="url(#pc1e54bd29f)" style="fill: none; stroke: #404040; stroke-width: 2.546513; stroke-linejoin: miter; stroke-linecap: round"/>
    <path d="M 544.346014 382.341235 
L 537.387011 385.302262 
L 539.193591 377.958443 
z
" clip-path="url(#pc1e54bd29f)" style="fill: #404040; stroke: #404040; stroke-width: 2.546513; stroke-linejoin: miter; stroke-linecap: round"/>
   </g>
   <g id="patch_11">
    <path d="M 574.838617 288.066 
Q 542.050535 307.740644 510.533703 326.652469 
" clip-path="url(#pc1e54bd29f)" style="fill: none; stroke: #404040; stroke-width: 1.326039; stroke-linejoin: miter; stroke-linecap: round"/>
    <path d="M 517.167163 326.141934 
L 510.533703 326.652469 
L 514.105351 321.03938 
z
" clip-path="url(#pc1e54bd29f)" style="fill: #404040; stroke: #404040; stroke-width: 1.326039; stroke-linejoin: miter; stroke-linecap: round"/>
   </g>
   <g id="patch_12">
    <path d="M 370.224697 330.50133 
Q 335.015605 359.370769 302.451186 386.071728 
" clip-path="url(#pc1e54bd29f)" style="fill: none; stroke: #404040; stroke-width: 3.058968; stroke-linejoin: miter; stroke-linecap: round"/>
    <path d="M 310.198949 384.313649 
L 302.451186 386.071728 
L 305.693381 378.818671 
z
" clip-path="url(#pc1e54bd29f)" style="fill: #404040; stroke: #404040; stroke-width: 3.058968; stroke-linejoin: miter; stroke-linecap: round"/>
   </g>
   <g id="line2d_4">
    <path d="M 120.350555 392.043391 
L 120.350555 433.597761 
" clip-path="url(#pc1e54bd29f)" style="fill: none; stroke: #111111; stroke-width: 2.324252"/>
   </g>
   <g id="line2d_5">
    <path d="M 120.350555 290.963422 
L 120.350555 339.534351 
" clip-path="url(#pc1e54bd29f)" style="fill: none; stroke: #111111; stroke-width: 3.703447"/>
   </g>
   <g id="line2d_6">
    <path d="M 120.350555 191.74511 
L 120.350555 239.38521 
" clip-path="url(#pc1e54bd29f)" style="fill: none; stroke: #111111; stroke-width: 5.475558"/>
   </g>
   <g id="line2d_7">
    <path d="M 370.224697 248.601204 
L 370.224697 287.582211 
" clip-path="url(#pc1e54bd29f)" style="fill: none; stroke: #111111; stroke-width: 2.474638"/>
   </g>
   <g id="line2d_8">
    <path d="M 370.224697 155.119435 
L 370.224697 199.891264 
" clip-path="url(#pc1e54bd29f)" style="fill: none; stroke: #111111; stroke-width: 3.579332"/>
   </g>
   <g id="line2d_9">
    <path d="M 370.224697 62.810624 
L 370.224697 106.995974 
" clip-path="url(#pc1e54bd29f)" style="fill: none; stroke: #111111; stroke-width: 5.8"/>
   </g>
   <g id="line2d_10">
    <path d="M 586.153672 176.609108 
L 586.153672 230.368498 
" clip-path="url(#pc1e54bd29f)" style="fill: none; stroke: #111111; stroke-width: 3.058138"/>
   </g>
   <g id="line2d_11">
    <path d="M 75.090333 479.090243 
L 165.610777 479.090243 
" clip-path="url(#pc1e54bd29f)" style="fill: none; stroke: #111111; stroke-width: 3.6; stroke-linecap: round"/>
   </g>
   <g id="line2d_12">
    <path d="M 75.090333 392.043391 
L 165.610777 392.043391 
" clip-path="url(#pc1e54bd29f)" style="fill: none; stroke: #111111; stroke-width: 3.6; stroke-linecap: round"/>
   </g>
   <g id="line2d_13">
    <path d="M 75.090333 290.963422 
L 165.610777 290.963422 
" clip-path="url(#pc1e54bd29f)" style="fill: none; stroke: #111111; stroke-width: 3.6; stroke-linecap: round"/>
   </g>
   <g id="line2d_14">
    <path d="M 75.090333 191.74511 
L 165.610777 191.74511 
" clip-path="url(#pc1e54bd29f)" style="fill: none; stroke: #111111; stroke-width: 3.6; stroke-linecap: round"/>
   </g>
   <g id="line2d_15">
    <path d="M 324.964475 330.50133 
L 415.484919 330.50133 
" clip-path="url(#pc1e54bd29f)" style="fill: none; stroke: #111111; stroke-width: 3.6; stroke-linecap: round"/>
   </g>
   <g id="line2d_16">
    <path d="M 324.964475 248.601204 
L 415.484919 248.601204 
" clip-path="url(#pc1e54bd29f)" style="fill: none; stroke: #111111; stroke-width: 3.6; stroke-linecap: round"/>
   </g>
   <g id="line2d_17">
    <path d="M 324.964475 155.119435 
L 415.484919 155.119435 
" clip-path="url(#pc1e54bd29f)" style="fill: none; stroke: #111111; stroke-width: 3.6; stroke-linecap: round"/>
   </g>
   <g id="line2d_18">
    <path d="M 324.964475 62.810624 
L 415.484919 62.810624 
" clip-path="url(#pc1e54bd29f)" style="fill: none; stroke: #111111; stroke-width: 3.6; stroke-linecap: round"/>
   </g>
   <g id="line2d_19">
    <path d="M 574.838617 288.066 
L 665.359061 288.066 
" clip-path="url(#pc1e54bd29f)" style="fill: none; stroke: #111111; stroke-width: 3.6; stroke-linecap: round"/>
   </g>
   <g id="line2d_20">
    <path d="M 574.838617 176.609108 
L 665.359061 176.609108 
" clip-path="url(#pc1e54bd29f)" style="fill: none; stroke: #111111; stroke-width: 3.6; stroke-linecap: round"/>
   </g>
   <g id="text_1">
    <!-- $^{132}\mathrm{Cd}$ -->
    <g transform="translate(326.512 33.034687) scale(0.34 -0.34)">
     <defs>
      <path id="DejaVuSans-31" d="M 794 531 
L 1825 531 
L 1825 4091 
L 703 3866 
L 703 4441 
L 1819 4666 
L 2450 4666 
L 2450 531 
L 3481 531 
L 3481 0 
L 794 0 
L 794 531 
z
" transform="scale(0.015625)"/>
      <path id="DejaVuSans-33" d="M 2597 2516 
Q 3050 2419 3304 2112 
Q 3559 1806 3559 1356 
Q 3559 666 3084 287 
Q 2609 -91 1734 -91 
Q 1441 -91 1130 -33 
Q 819 25 488 141 
L 488 750 
Q 750 597 1062 519 
Q 1375 441 1716 441 
Q 2309 441 2620 675 
Q 2931 909 2931 1356 
Q 2931 1769 2642 2001 
Q 2353 2234 1838 2234 
L 1294 2234 
L 1294 2753 
L 1863 2753 
Q 2328 2753 2575 2939 
Q 2822 3125 2822 3475 
Q 2822 3834 2567 4026 
Q 2313 4219 1838 4219 
Q 1578 4219 1281 4162 
Q 984 4106 628 3988 
L 628 4550 
Q 988 4650 1302 4700 
Q 1616 4750 1894 4750 
Q 2613 4750 3031 4423 
Q 3450 4097 3450 3541 
Q 3450 3153 3228 2886 
Q 3006 2619 2597 2516 
z
" transform="scale(0.015625)"/>
      <path id="DejaVuSans-32" d="M 1228 531 
L 3431 531 
L 3431 0 
L 469 0 
L 469 531 
Q 828 903 1448 1529 
Q 2069 2156 2228 2338 
Q 2531 2678 2651 2914 
Q 2772 3150 2772 3378 
Q 2772 3750 2511 3984 
Q 2250 4219 1831 4219 
Q 1534 4219 1204 4116 
Q 875 4013 500 3803 
L 500 4441 
Q 881 4594 1212 4672 
Q 1544 4750 1819 4750 
Q 2544 4750 2975 4387 
Q 3406 4025 3406 3419 
Q 3406 3131 3298 2873 
Q 3191 2616 2906 2266 
Q 2828 2175 2409 1742 
Q 1991 1309 1228 531 
z
" transform="scale(0.015625)"/>
      <path id="DejaVuSans-43" d="M 4122 4306 
L 4122 3641 
Q 3803 3938 3442 4084 
Q 3081 4231 2675 4231 
Q 1875 4231 1450 3742 
Q 1025 3253 1025 2328 
Q 1025 1406 1450 917 
Q 1875 428 2675 428 
Q 3081 428 3442 575 
Q 3803 722 4122 1019 
L 4122 359 
Q 3791 134 3420 21 
Q 3050 -91 2638 -91 
Q 1578 -91 968 557 
Q 359 1206 359 2328 
Q 359 3453 968 4101 
Q 1578 4750 2638 4750 
Q 3056 4750 3426 4639 
Q 3797 4528 4122 4306 
z
" transform="scale(0.015625)"/>
      <path id="DejaVuSans-64" d="M 2906 2969 
L 2906 4863 
L 3481 4863 
L 3481 0 
L 2906 0 
L 2906 525 
Q 2725 213 2448 61 
Q 2172 -91 1784 -91 
Q 1150 -91 751 415 
Q 353 922 353 1747 
Q 353 2572 751 3078 
Q 1150 3584 1784 3584 
Q 2172 3584 2448 3432 
Q 2725 3281 2906 2969 
z
M 947 1747 
Q 947 1113 1208 752 
Q 1469 391 1925 391 
Q 2381 391 2643 752 
Q 2906 1113 2906 1747 
Q 2906 2381 2643 2742 
Q 2381 3103 1925 3103 
Q 1469 3103 1208 2742 
Q 947 2381 947 1747 
z
" transform="scale(0.015625)"/>
     </defs>
     <use xlink:href="#DejaVuSans-31" transform="translate(0.957031 39.046875) scale(0.7)"/>
     <use xlink:href="#DejaVuSans-33" transform="translate(45.493164 39.046875) scale(0.7)"/>
     <use xlink:href="#DejaVuSans-32" transform="translate(90.029297 39.046875) scale(0.7)"/>
     <use xlink:href="#DejaVuSans-43" transform="translate(137.299805 0.765625)"/>
     <use xlink:href="#DejaVuSans-64" transform="translate(207.124023 0.765625)"/>
    </g>
   </g>
   <g id="text_2">
    <!-- 0 -->
    <g transform="translate(46.98525 483.505243) scale(0.16 -0.16)">
     <defs>
      <path id="DejaVuSans-BoldOblique-30" d="M 1913 728 
Q 2153 728 2339 872 
Q 2525 1016 2650 1294 
Q 2738 1491 2809 1742 
Q 2881 1994 2944 2338 
Q 2997 2616 3025 2850 
Q 3053 3084 3053 3250 
Q 3053 3600 2928 3764 
Q 2803 3928 2541 3928 
Q 2297 3928 2112 3789 
Q 1928 3650 1806 3366 
Q 1713 3163 1636 2903 
Q 1559 2644 1503 2338 
Q 1450 2056 1422 1815 
Q 1394 1575 1394 1409 
Q 1394 1063 1522 895 
Q 1650 728 1913 728 
z
M 4225 3072 
Q 4225 2450 4053 1862 
Q 3881 1275 3572 831 
Q 3256 375 2809 142 
Q 2363 -91 1813 -91 
Q 1047 -91 639 343 
Q 231 778 231 1594 
Q 231 2206 401 2795 
Q 572 3384 878 3822 
Q 1200 4281 1644 4515 
Q 2088 4750 2644 4750 
Q 3403 4750 3814 4314 
Q 4225 3878 4225 3072 
z
" transform="scale(0.015625)"/>
     </defs>
     <use xlink:href="#DejaVuSans-BoldOblique-30"/>
    </g>
   </g>
   <g id="text_3">
    <!-- 0⁺ -->
    <g transform="translate(182.58336 484.245477) scale(0.23 -0.23)">
     <defs>
      <path id="TimesNewRomanPS-BoldMT-30" d="M 2966 2119 
Q 2966 1484 2788 934 
Q 2681 597 2501 381 
Q 2322 166 2094 39 
Q 1866 -88 1597 -88 
Q 1291 -88 1044 68 
Q 797 225 606 516 
Q 469 728 366 1081 
Q 231 1559 231 2069 
Q 231 2759 425 3338 
Q 584 3816 909 4070 
Q 1234 4325 1597 4325 
Q 1966 4325 2286 4073 
Q 2606 3822 2756 3397 
Q 2966 2813 2966 2119 
z
M 2003 2125 
Q 2003 3238 1991 3422 
Q 1959 3856 1841 4009 
Q 1763 4109 1588 4109 
Q 1453 4109 1375 4034 
Q 1259 3925 1218 3648 
Q 1178 3372 1178 1719 
Q 1178 819 1241 513 
Q 1288 291 1375 216 
Q 1463 141 1606 141 
Q 1763 141 1841 241 
Q 1972 416 1991 781 
L 2003 2125 
z
" transform="scale(0.015625)"/>
      <path id="DejaVuSerif-Bold-207a" d="M 1916 4344 
L 1916 3441 
L 2950 3441 
L 2950 3044 
L 1916 3044 
L 1916 2141 
L 1463 2141 
L 1463 3044 
L 428 3044 
L 428 3441 
L 1463 3441 
L 1463 4344 
L 1916 4344 
z
" transform="scale(0.015625)"/>
     </defs>
     <use xlink:href="#TimesNewRomanPS-BoldMT-30"/>
     <use xlink:href="#DejaVuSerif-Bold-207a" transform="translate(50 0)"/>
    </g>
   </g>
   <g id="text_4">
    <!-- 2034 -->
    <g transform="translate(13.58775 396.458391) scale(0.16 -0.16)">
     <defs>
      <path id="DejaVuSans-BoldOblique-32" d="M 1581 884 
L 3609 884 
L 3438 0 
L 50 0 
L 225 891 
L 2209 2388 
Q 2534 2638 2704 2894 
Q 2875 3150 2875 3391 
Q 2875 3647 2700 3787 
Q 2525 3928 2209 3928 
Q 1913 3928 1547 3811 
Q 1181 3694 722 3450 
L 922 4441 
Q 1347 4597 1756 4673 
Q 2166 4750 2566 4750 
Q 3278 4750 3687 4442 
Q 4097 4134 4097 3603 
Q 4097 3147 3847 2772 
Q 3597 2397 2747 1759 
L 1581 884 
z
" transform="scale(0.015625)"/>
      <path id="DejaVuSans-BoldOblique-33" d="M 3022 2516 
Q 3375 2434 3572 2187 
Q 3769 1941 3769 1581 
Q 3769 806 3155 357 
Q 2541 -91 1466 -91 
Q 1059 -91 692 -33 
Q 325 25 0 141 
L 178 1069 
Q 456 906 784 817 
Q 1113 728 1441 728 
Q 1969 728 2276 926 
Q 2584 1125 2584 1459 
Q 2584 1738 2350 1877 
Q 2116 2016 1644 2016 
L 1166 2016 
L 1319 2791 
L 1825 2791 
Q 2316 2791 2602 2969 
Q 2888 3147 2888 3450 
Q 2888 3688 2689 3813 
Q 2491 3938 2113 3938 
Q 1847 3938 1534 3869 
Q 1222 3800 884 3669 
L 1056 4550 
Q 1425 4650 1783 4700 
Q 2141 4750 2491 4750 
Q 3281 4750 3679 4487 
Q 4078 4225 4078 3706 
Q 4078 3241 3801 2930 
Q 3525 2619 3022 2516 
z
" transform="scale(0.015625)"/>
      <path id="DejaVuSans-BoldOblique-34" d="M 2638 3641 
L 978 1722 
L 2259 1722 
L 2638 3641 
z
M 2606 4666 
L 3975 4666 
L 3397 1722 
L 4063 1722 
L 3897 850 
L 3231 850 
L 3066 0 
L 1925 0 
L 2094 850 
L -6 850 
L 197 1881 
L 2606 4666 
z
" transform="scale(0.015625)"/>
     </defs>
     <use xlink:href="#DejaVuSans-BoldOblique-32"/>
     <use xlink:href="#DejaVuSans-BoldOblique-30" transform="translate(69.580078 0)"/>
     <use xlink:href="#DejaVuSans-BoldOblique-33" transform="translate(139.160156 0)"/>
     <use xlink:href="#DejaVuSans-BoldOblique-34" transform="translate(208.740234 0)"/>
    </g>
   </g>
   <g id="text_5">
    <!-- 2⁺ -->
    <g transform="translate(182.58336 397.198625) scale(0.23 -0.23)">
     <defs>
      <path id="TimesNewRomanPS-BoldMT-32" d="M 2650 0 
L 156 0 
L 156 69 
Q 1303 1434 1548 1906 
Q 1794 2378 1794 2828 
Q 1794 3156 1591 3373 
Q 1388 3591 1094 3591 
Q 613 3591 347 3109 
L 231 3150 
Q 400 3750 744 4037 
Q 1088 4325 1538 4325 
Q 1859 4325 2125 4175 
Q 2391 4025 2541 3764 
Q 2691 3503 2691 3275 
Q 2691 2859 2459 2431 
Q 2144 1853 1081 819 
L 1997 819 
Q 2334 819 2436 847 
Q 2538 875 2603 942 
Q 2669 1009 2775 1225 
L 2888 1225 
L 2650 0 
z
" transform="scale(0.015625)"/>
     </defs>
     <use xlink:href="#TimesNewRomanPS-BoldMT-32"/>
     <use xlink:href="#DejaVuSerif-Bold-207a" transform="translate(50 0)"/>
    </g>
   </g>
   <g id="text_6">
    <!-- 4395 -->
    <g transform="translate(13.58775 295.378422) scale(0.16 -0.16)">
     <defs>
      <path id="DejaVuSans-BoldOblique-39" d="M 263 103 
L 428 966 
Q 700 825 953 758 
Q 1206 691 1459 691 
Q 2041 691 2400 1003 
Q 2759 1316 2834 1881 
Q 2594 1722 2337 1645 
Q 2081 1569 1791 1569 
Q 1219 1569 853 1909 
Q 488 2250 488 2778 
Q 488 3641 1052 4192 
Q 1616 4744 2503 4744 
Q 3300 4744 3736 4292 
Q 4172 3841 4172 3016 
Q 4172 2381 3978 1801 
Q 3784 1222 3431 800 
Q 3056 353 2548 128 
Q 2041 -97 1403 -97 
Q 1106 -97 825 -47 
Q 544 3 263 103 
z
M 2169 2344 
Q 2525 2344 2753 2637 
Q 2981 2931 2981 3391 
Q 2981 3675 2845 3828 
Q 2709 3981 2456 3981 
Q 2103 3981 1870 3690 
Q 1638 3400 1638 2963 
Q 1638 2663 1775 2503 
Q 1913 2344 2169 2344 
z
" transform="scale(0.015625)"/>
      <path id="DejaVuSans-BoldOblique-35" d="M 1131 4666 
L 4122 4666 
L 3950 3781 
L 1919 3781 
L 1778 3059 
Q 1916 3097 2064 3117 
Q 2213 3138 2363 3138 
Q 3078 3138 3481 2811 
Q 3884 2484 3884 1906 
Q 3884 988 3262 448 
Q 2641 -91 1575 -91 
Q 1184 -91 815 -14 
Q 447 63 84 219 
L 269 1166 
Q 616 941 942 834 
Q 1269 728 1606 728 
Q 2100 728 2397 986 
Q 2694 1244 2694 1663 
Q 2694 1963 2469 2139 
Q 2244 2316 1856 2316 
Q 1594 2316 1289 2248 
Q 984 2181 622 2041 
L 1131 4666 
z
" transform="scale(0.015625)"/>
     </defs>
     <use xlink:href="#DejaVuSans-BoldOblique-34"/>
     <use xlink:href="#DejaVuSans-BoldOblique-33" transform="translate(69.580078 0)"/>
     <use xlink:href="#DejaVuSans-BoldOblique-39" transform="translate(139.160156 0)"/>
     <use xlink:href="#DejaVuSans-BoldOblique-35" transform="translate(208.740234 0)"/>
    </g>
   </g>
   <g id="text_7">
    <!-- 4⁺ -->
    <g transform="translate(182.58336 296.118656) scale(0.23 -0.23)">
     <defs>
      <path id="TimesNewRomanPS-BoldMT-34" d="M 159 1597 
L 2172 4325 
L 2553 4325 
L 2553 1597 
L 2941 1597 
L 2941 950 
L 2553 950 
L 2553 0 
L 1694 0 
L 1694 950 
L 159 950 
L 159 1597 
z
M 463 1597 
L 1694 1597 
L 1694 3269 
L 463 1597 
z
" transform="scale(0.015625)"/>
     </defs>
     <use xlink:href="#TimesNewRomanPS-BoldMT-34"/>
     <use xlink:href="#DejaVuSerif-Bold-207a" transform="translate(50 0)"/>
    </g>
   </g>
   <g id="text_8">
    <!-- 6713 -->
    <g transform="translate(13.58775 196.16011) scale(0.16 -0.16)">
     <defs>
      <path id="DejaVuSans-BoldOblique-36" d="M 2316 2303 
Q 1959 2303 1731 2009 
Q 1503 1716 1503 1253 
Q 1503 975 1643 820 
Q 1784 666 2034 666 
Q 2388 666 2617 955 
Q 2847 1244 2847 1684 
Q 2847 1984 2709 2143 
Q 2572 2303 2316 2303 
z
M 4225 4544 
L 4056 3681 
Q 3788 3819 3534 3887 
Q 3281 3956 3028 3956 
Q 2447 3956 2087 3643 
Q 1728 3331 1650 2766 
Q 1894 2925 2151 3001 
Q 2409 3078 2700 3078 
Q 3275 3078 3640 2737 
Q 4006 2397 4006 1869 
Q 4006 1006 3442 454 
Q 2878 -97 1991 -97 
Q 1194 -97 756 354 
Q 319 806 319 1631 
Q 319 2269 512 2848 
Q 706 3428 1056 3847 
Q 1431 4294 1942 4519 
Q 2453 4744 3091 4744 
Q 3384 4744 3662 4694 
Q 3941 4644 4225 4544 
z
" transform="scale(0.015625)"/>
      <path id="DejaVuSans-BoldOblique-37" d="M 922 4666 
L 4441 4666 
L 4300 3981 
L 1703 0 
L 500 0 
L 2969 3781 
L 756 3781 
L 922 4666 
z
" transform="scale(0.015625)"/>
      <path id="DejaVuSans-BoldOblique-31" d="M 441 831 
L 1503 831 
L 2088 3847 
L 953 3622 
L 1113 4441 
L 2241 4666 
L 3384 4666 
L 2644 831 
L 3700 831 
L 3541 0 
L 275 0 
L 441 831 
z
" transform="scale(0.015625)"/>
     </defs>
     <use xlink:href="#DejaVuSans-BoldOblique-36"/>
     <use xlink:href="#DejaVuSans-BoldOblique-37" transform="translate(69.580078 0)"/>
     <use xlink:href="#DejaVuSans-BoldOblique-31" transform="translate(139.160156 0)"/>
     <use xlink:href="#DejaVuSans-BoldOblique-33" transform="translate(208.740234 0)"/>
    </g>
   </g>
   <g id="text_9">
    <!-- 6⁺ -->
    <g transform="translate(182.58336 196.900344) scale(0.23 -0.23)">
     <defs>
      <path id="TimesNewRomanPS-BoldMT-36" d="M 3006 4325 
L 3006 4238 
Q 2441 4094 2098 3867 
Q 1756 3641 1557 3317 
Q 1359 2994 1250 2516 
Q 1388 2609 1478 2638 
Q 1681 2700 1888 2700 
Q 2363 2700 2680 2354 
Q 2997 2009 2997 1413 
Q 2997 994 2825 644 
Q 2653 294 2337 103 
Q 2022 -88 1663 -88 
Q 1272 -88 940 126 
Q 609 341 423 753 
Q 238 1166 238 1650 
Q 238 2363 580 2977 
Q 922 3591 1551 3955 
Q 2181 4319 3006 4325 
z
M 1209 2263 
Q 1184 1831 1184 1631 
Q 1184 1200 1267 797 
Q 1350 394 1494 231 
Q 1597 116 1738 116 
Q 1881 116 1993 283 
Q 2106 450 2106 963 
Q 2106 1825 1897 2153 
Q 1763 2366 1534 2366 
Q 1409 2366 1209 2263 
z
" transform="scale(0.015625)"/>
     </defs>
     <use xlink:href="#TimesNewRomanPS-BoldMT-36"/>
     <use xlink:href="#DejaVuSerif-Bold-207a" transform="translate(50 0)"/>
    </g>
   </g>
   <g id="text_10">
    <!-- 3471 -->
    <g transform="translate(263.461892 334.91633) scale(0.16 -0.16)">
     <use xlink:href="#DejaVuSans-BoldOblique-33"/>
     <use xlink:href="#DejaVuSans-BoldOblique-34" transform="translate(69.580078 0)"/>
     <use xlink:href="#DejaVuSans-BoldOblique-37" transform="translate(139.160156 0)"/>
     <use xlink:href="#DejaVuSans-BoldOblique-31" transform="translate(208.740234 0)"/>
    </g>
   </g>
   <g id="text_11">
    <!-- 0⁺ -->
    <g transform="translate(432.457502 335.656564) scale(0.23 -0.23)">
     <use xlink:href="#TimesNewRomanPS-BoldMT-30"/>
     <use xlink:href="#DejaVuSerif-Bold-207a" transform="translate(50 0)"/>
    </g>
   </g>
   <g id="text_12">
    <!-- 5385 -->
    <g transform="translate(263.461892 253.016204) scale(0.16 -0.16)">
     <defs>
      <path id="DejaVuSans-BoldOblique-38" d="M 2150 2088 
Q 1784 2088 1539 1839 
Q 1294 1591 1294 1228 
Q 1294 969 1453 817 
Q 1613 666 1888 666 
Q 2259 666 2503 911 
Q 2747 1156 2747 1522 
Q 2747 1781 2586 1934 
Q 2425 2088 2150 2088 
z
M 1381 2484 
Q 1044 2625 876 2850 
Q 709 3075 709 3391 
Q 709 4025 1229 4387 
Q 1750 4750 2669 4750 
Q 3406 4750 3812 4475 
Q 4219 4200 4219 3700 
Q 4219 3256 3936 2940 
Q 3653 2625 3128 2484 
Q 3509 2338 3690 2091 
Q 3872 1844 3872 1466 
Q 3872 747 3311 328 
Q 2750 -91 1772 -91 
Q 1000 -91 570 217 
Q 141 525 141 1075 
Q 141 1572 470 1945 
Q 800 2319 1381 2484 
z
M 2559 3994 
Q 2241 3994 2048 3808 
Q 1856 3622 1856 3316 
Q 1856 3103 1995 2972 
Q 2134 2841 2363 2841 
Q 2681 2841 2873 3027 
Q 3066 3213 3066 3519 
Q 3066 3734 2927 3864 
Q 2788 3994 2559 3994 
z
" transform="scale(0.015625)"/>
     </defs>
     <use xlink:href="#DejaVuSans-BoldOblique-35"/>
     <use xlink:href="#DejaVuSans-BoldOblique-33" transform="translate(69.580078 0)"/>
     <use xlink:href="#DejaVuSans-BoldOblique-38" transform="translate(139.160156 0)"/>
     <use xlink:href="#DejaVuSans-BoldOblique-35" transform="translate(208.740234 0)"/>
    </g>
   </g>
   <g id="text_13">
    <!-- 2⁺ -->
    <g transform="translate(432.457502 253.756438) scale(0.23 -0.23)">
     <use xlink:href="#TimesNewRomanPS-BoldMT-32"/>
     <use xlink:href="#DejaVuSerif-Bold-207a" transform="translate(50 0)"/>
    </g>
   </g>
   <g id="text_14">
    <!-- 7568 -->
    <g transform="translate(263.461892 159.534435) scale(0.16 -0.16)">
     <use xlink:href="#DejaVuSans-BoldOblique-37"/>
     <use xlink:href="#DejaVuSans-BoldOblique-35" transform="translate(69.580078 0)"/>
     <use xlink:href="#DejaVuSans-BoldOblique-36" transform="translate(139.160156 0)"/>
     <use xlink:href="#DejaVuSans-BoldOblique-38" transform="translate(208.740234 0)"/>
    </g>
   </g>
   <g id="text_15">
    <!-- 4⁺ -->
    <g transform="translate(432.457502 160.274669) scale(0.23 -0.23)">
     <use xlink:href="#TimesNewRomanPS-BoldMT-34"/>
     <use xlink:href="#DejaVuSerif-Bold-207a" transform="translate(50 0)"/>
    </g>
   </g>
   <g id="text_16">
    <!-- 9725 -->
    <g transform="translate(263.461892 67.225624) scale(0.16 -0.16)">
     <use xlink:href="#DejaVuSans-BoldOblique-39"/>
     <use xlink:href="#DejaVuSans-BoldOblique-37" transform="translate(69.580078 0)"/>
     <use xlink:href="#DejaVuSans-BoldOblique-32" transform="translate(139.160156 0)"/>
     <use xlink:href="#DejaVuSans-BoldOblique-35" transform="translate(208.740234 0)"/>
    </g>
   </g>
   <g id="text_17">
    <!-- 6⁺ -->
    <g transform="translate(432.457502 67.965859) scale(0.23 -0.23)">
     <use xlink:href="#TimesNewRomanPS-BoldMT-36"/>
     <use xlink:href="#DejaVuSerif-Bold-207a" transform="translate(50 0)"/>
    </g>
   </g>
   <g id="text_18">
    <!-- 4463 -->
    <g transform="translate(513.336034 292.481) scale(0.16 -0.16)">
     <use xlink:href="#DejaVuSans-BoldOblique-34"/>
     <use xlink:href="#DejaVuSans-BoldOblique-34" transform="translate(69.580078 0)"/>
     <use xlink:href="#DejaVuSans-BoldOblique-36" transform="translate(139.160156 0)"/>
     <use xlink:href="#DejaVuSans-BoldOblique-33" transform="translate(208.740234 0)"/>
    </g>
   </g>
   <g id="text_19">
    <!-- 2⁺ -->
    <g transform="translate(682.331644 293.221234) scale(0.23 -0.23)">
     <use xlink:href="#TimesNewRomanPS-BoldMT-32"/>
     <use xlink:href="#DejaVuSerif-Bold-207a" transform="translate(50 0)"/>
    </g>
   </g>
   <g id="text_20">
    <!-- 7066 -->
    <g transform="translate(513.336034 181.024108) scale(0.16 -0.16)">
     <use xlink:href="#DejaVuSans-BoldOblique-37"/>
     <use xlink:href="#DejaVuSans-BoldOblique-30" transform="translate(69.580078 0)"/>
     <use xlink:href="#DejaVuSans-BoldOblique-36" transform="translate(139.160156 0)"/>
     <use xlink:href="#DejaVuSans-BoldOblique-36" transform="translate(208.740234 0)"/>
    </g>
   </g>
   <g id="text_21">
    <!-- 3⁺ -->
    <g transform="translate(682.331644 181.764342) scale(0.23 -0.23)">
     <defs>
      <path id="TimesNewRomanPS-BoldMT-33" d="M 947 2125 
L 947 2234 
Q 1303 2338 1440 2427 
Q 1578 2516 1678 2698 
Q 1778 2881 1778 3069 
Q 1778 3328 1589 3514 
Q 1400 3700 1119 3700 
Q 681 3700 375 3238 
L 259 3278 
Q 484 3800 836 4062 
Q 1188 4325 1619 4325 
Q 2059 4325 2345 4056 
Q 2631 3788 2631 3428 
Q 2631 3194 2498 2976 
Q 2366 2759 2081 2594 
Q 2447 2416 2639 2155 
Q 2831 1894 2831 1500 
Q 2831 838 2351 373 
Q 1872 -91 1066 -91 
Q 528 -91 281 88 
Q 103 213 103 409 
Q 103 553 206 654 
Q 309 756 444 756 
Q 547 756 638 713 
Q 688 688 992 439 
Q 1297 191 1563 191 
Q 1794 191 1959 373 
Q 2125 556 2125 838 
Q 2125 1266 1825 1627 
Q 1525 1988 947 2125 
z
" transform="scale(0.015625)"/>
     </defs>
     <use xlink:href="#TimesNewRomanPS-BoldMT-33"/>
     <use xlink:href="#DejaVuSerif-Bold-207a" transform="translate(50 0)"/>
    </g>
   </g>
   <g id="text_22">
    <path d="M 113.185555 439.373067 
L 116.070555 430.630567 
L 113.873055 430.630567 
Q 112.585555 430.630567 111.935555 430.965567 
Q 111.483055 431.200567 111.185555 431.848067 
L 110.890555 431.848067 
L 111.655555 428.558067 
L 117.968055 428.558067 
L 114.413055 439.373067 
L 113.185555 439.373067 
z
M 120.350555 436.745567 
Q 120.898055 436.745567 121.275555 437.130567 
Q 121.655555 437.513067 121.655555 438.050567 
Q 121.655555 438.590567 121.273055 438.970567 
Q 120.890555 439.348067 120.350555 439.348067 
Q 119.810555 439.348067 119.430555 438.970567 
Q 119.053055 438.590567 119.053055 438.050567 
Q 119.053055 437.513067 119.430555 437.130567 
Q 119.810555 436.745567 120.350555 436.745567 
z
M 127.803055 433.168067 
Q 128.920555 433.988067 129.353055 434.695567 
Q 129.788055 435.403067 129.788055 436.318067 
Q 129.788055 437.598067 128.823055 438.485567 
Q 127.858055 439.373067 126.203055 439.373067 
Q 124.633055 439.373067 123.773055 438.600567 
Q 122.913055 437.825567 122.913055 436.708067 
Q 122.913055 435.855567 123.408055 435.215567 
Q 123.905555 434.575567 125.060555 434.043067 
Q 123.803055 433.083067 123.448055 432.473067 
Q 123.093055 431.863067 123.093055 431.058067 
Q 123.093055 429.995567 123.995555 429.188067 
Q 124.898055 428.380567 126.468055 428.380567 
Q 127.983055 428.380567 128.798055 429.095567 
Q 129.615555 429.808067 129.615555 430.808067 
Q 129.615555 431.558067 129.173055 432.133067 
Q 128.733055 432.708067 127.803055 433.168067 
z
M 127.210555 432.770567 
Q 127.498055 432.380567 127.638055 431.895567 
Q 127.780555 431.410567 127.780555 430.833067 
Q 127.780555 429.818067 127.343055 429.278067 
Q 127.015555 428.863067 126.435555 428.863067 
Q 125.913055 428.863067 125.545555 429.243067 
Q 125.178055 429.620567 125.178055 430.183067 
Q 125.178055 430.755567 125.588055 431.368067 
Q 125.998055 431.980567 127.210555 432.770567 
z
M 125.648055 434.418067 
Q 125.405555 434.638067 125.303055 434.818067 
Q 125.148055 435.090567 125.023055 435.615567 
Q 124.898055 436.138067 124.898055 436.708067 
Q 124.898055 437.443067 125.085555 437.938067 
Q 125.273055 438.433067 125.620555 438.653067 
Q 125.968055 438.870567 126.335555 438.870567 
Q 126.905555 438.870567 127.295555 438.453067 
Q 127.685555 438.035567 127.685555 437.308067 
Q 127.685555 435.793067 125.648055 434.418067 
z
" style="stroke: #ffffff; stroke-width: 3.8"/>
    <path d="M 113.185555 439.373067 
L 116.070555 430.630567 
L 113.873055 430.630567 
Q 112.585555 430.630567 111.935555 430.965567 
Q 111.483055 431.200567 111.185555 431.848067 
L 110.890555 431.848067 
L 111.655555 428.558067 
L 117.968055 428.558067 
L 114.413055 439.373067 
L 113.185555 439.373067 
z
M 120.350555 436.745567 
Q 120.898055 436.745567 121.275555 437.130567 
Q 121.655555 437.513067 121.655555 438.050567 
Q 121.655555 438.590567 121.273055 438.970567 
Q 120.890555 439.348067 120.350555 439.348067 
Q 119.810555 439.348067 119.430555 438.970567 
Q 119.053055 438.590567 119.053055 438.050567 
Q 119.053055 437.513067 119.430555 437.130567 
Q 119.810555 436.745567 120.350555 436.745567 
z
M 127.803055 433.168067 
Q 128.920555 433.988067 129.353055 434.695567 
Q 129.788055 435.403067 129.788055 436.318067 
Q 129.788055 437.598067 128.823055 438.485567 
Q 127.858055 439.373067 126.203055 439.373067 
Q 124.633055 439.373067 123.773055 438.600567 
Q 122.913055 437.825567 122.913055 436.708067 
Q 122.913055 435.855567 123.408055 435.215567 
Q 123.905555 434.575567 125.060555 434.043067 
Q 123.803055 433.083067 123.448055 432.473067 
Q 123.093055 431.863067 123.093055 431.058067 
Q 123.093055 429.995567 123.995555 429.188067 
Q 124.898055 428.380567 126.468055 428.380567 
Q 127.983055 428.380567 128.798055 429.095567 
Q 129.615555 429.808067 129.615555 430.808067 
Q 129.615555 431.558067 129.173055 432.133067 
Q 128.733055 432.708067 127.803055 433.168067 
z
M 127.210555 432.770567 
Q 127.498055 432.380567 127.638055 431.895567 
Q 127.780555 431.410567 127.780555 430.833067 
Q 127.780555 429.818067 127.343055 429.278067 
Q 127.015555 428.863067 126.435555 428.863067 
Q 125.913055 428.863067 125.545555 429.243067 
Q 125.178055 429.620567 125.178055 430.183067 
Q 125.178055 430.755567 125.588055 431.368067 
Q 125.998055 431.980567 127.210555 432.770567 
z
M 125.648055 434.418067 
Q 125.405555 434.638067 125.303055 434.818067 
Q 125.148055 435.090567 125.023055 435.615567 
Q 124.898055 436.138067 124.898055 436.708067 
Q 124.898055 437.443067 125.085555 437.938067 
Q 125.273055 438.433067 125.620555 438.653067 
Q 125.968055 438.870567 126.335555 438.870567 
Q 126.905555 438.870567 127.295555 438.453067 
Q 127.685555 438.035567 127.685555 437.308067 
Q 127.685555 435.793067 125.648055 434.418067 
z
"/>
   </g>
   <g id="text_23">
    <path d="M 111.560555 334.277156 
L 111.560555 342.942156 
Q 111.560555 343.917156 111.645555 344.187156 
Q 111.733055 344.457156 112.005555 344.629656 
Q 112.280555 344.799656 112.883055 344.799656 
L 113.123055 344.799656 
L 113.123055 345.089656 
L 107.545555 345.089656 
L 107.545555 344.799656 
L 107.828055 344.799656 
Q 108.508055 344.799656 108.795555 344.644656 
Q 109.085555 344.487156 109.185555 344.214656 
Q 109.288055 343.942156 109.288055 342.942156 
L 109.288055 337.449656 
Q 109.288055 336.714656 109.218055 336.532156 
Q 109.148055 336.347156 108.955555 336.219656 
Q 108.765555 336.089656 108.515555 336.089656 
Q 108.115555 336.089656 107.545555 336.339656 
L 107.405555 336.057156 
L 111.303055 334.277156 
L 111.560555 334.277156 
z
M 114.748055 341.097156 
L 119.780555 334.277156 
L 120.733055 334.277156 
L 120.733055 341.097156 
L 121.703055 341.097156 
L 121.703055 342.714656 
L 120.733055 342.714656 
L 120.733055 345.089656 
L 118.585555 345.089656 
L 118.585555 342.714656 
L 114.748055 342.714656 
L 114.748055 341.097156 
z
M 115.508055 341.097156 
L 118.585555 341.097156 
L 118.585555 336.917156 
L 115.508055 341.097156 
z
M 124.350555 342.682156 
Q 124.898055 342.682156 125.275555 343.067156 
Q 125.655555 343.449656 125.655555 343.987156 
Q 125.655555 344.527156 125.273055 344.907156 
Q 124.890555 345.284656 124.350555 345.284656 
Q 123.810555 345.284656 123.430555 344.907156 
Q 123.053055 344.527156 123.053055 343.987156 
Q 123.053055 343.449656 123.430555 343.067156 
Q 123.810555 342.682156 124.350555 342.682156 
z
M 126.843055 345.309656 
L 126.843055 345.089656 
Q 128.140555 344.792156 129.043055 344.214656 
Q 129.945555 343.637156 130.470555 342.784656 
Q 130.998055 341.932156 131.210555 340.824656 
Q 130.725555 341.074656 130.385555 341.172156 
Q 130.045555 341.269656 129.670555 341.269656 
Q 128.468055 341.269656 127.665555 340.402156 
Q 126.865555 339.534656 126.865555 338.027156 
Q 126.865555 336.979656 127.298055 336.109656 
Q 127.733055 335.237156 128.538055 334.757156 
Q 129.343055 334.277156 130.210555 334.277156 
Q 131.140555 334.277156 131.968055 334.809656 
Q 132.795555 335.339656 133.288055 336.347156 
Q 133.780555 337.354656 133.780555 338.644656 
Q 133.780555 340.317156 132.978055 341.849656 
Q 132.178055 343.379656 130.593055 344.304656 
Q 129.008055 345.229656 126.843055 345.309656 
z
M 131.328055 340.167156 
Q 131.405555 339.292156 131.405555 338.629656 
Q 131.405555 337.207156 131.078055 335.979656 
Q 130.890555 335.299656 130.523055 334.979656 
Q 130.328055 334.807156 130.015555 334.807156 
Q 129.623055 334.807156 129.405555 335.144656 
Q 129.100555 335.604656 129.100555 336.902156 
Q 129.100555 339.067156 129.615555 339.887156 
Q 129.953055 340.417156 130.523055 340.417156 
Q 130.828055 340.417156 131.328055 340.167156 
z
" style="stroke: #ffffff; stroke-width: 3.8"/>
    <path d="M 111.560555 334.277156 
L 111.560555 342.942156 
Q 111.560555 343.917156 111.645555 344.187156 
Q 111.733055 344.457156 112.005555 344.629656 
Q 112.280555 344.799656 112.883055 344.799656 
L 113.123055 344.799656 
L 113.123055 345.089656 
L 107.545555 345.089656 
L 107.545555 344.799656 
L 107.828055 344.799656 
Q 108.508055 344.799656 108.795555 344.644656 
Q 109.085555 344.487156 109.185555 344.214656 
Q 109.288055 343.942156 109.288055 342.942156 
L 109.288055 337.449656 
Q 109.288055 336.714656 109.218055 336.532156 
Q 109.148055 336.347156 108.955555 336.219656 
Q 108.765555 336.089656 108.515555 336.089656 
Q 108.115555 336.089656 107.545555 336.339656 
L 107.405555 336.057156 
L 111.303055 334.277156 
L 111.560555 334.277156 
z
M 114.748055 341.097156 
L 119.780555 334.277156 
L 120.733055 334.277156 
L 120.733055 341.097156 
L 121.703055 341.097156 
L 121.703055 342.714656 
L 120.733055 342.714656 
L 120.733055 345.089656 
L 118.585555 345.089656 
L 118.585555 342.714656 
L 114.748055 342.714656 
L 114.748055 341.097156 
z
M 115.508055 341.097156 
L 118.585555 341.097156 
L 118.585555 336.917156 
L 115.508055 341.097156 
z
M 124.350555 342.682156 
Q 124.898055 342.682156 125.275555 343.067156 
Q 125.655555 343.449656 125.655555 343.987156 
Q 125.655555 344.527156 125.273055 344.907156 
Q 124.890555 345.284656 124.350555 345.284656 
Q 123.810555 345.284656 123.430555 344.907156 
Q 123.053055 344.527156 123.053055 343.987156 
Q 123.053055 343.449656 123.430555 343.067156 
Q 123.810555 342.682156 124.350555 342.682156 
z
M 126.843055 345.309656 
L 126.843055 345.089656 
Q 128.140555 344.792156 129.043055 344.214656 
Q 129.945555 343.637156 130.470555 342.784656 
Q 130.998055 341.932156 131.210555 340.824656 
Q 130.725555 341.074656 130.385555 341.172156 
Q 130.045555 341.269656 129.670555 341.269656 
Q 128.468055 341.269656 127.665555 340.402156 
Q 126.865555 339.534656 126.865555 338.027156 
Q 126.865555 336.979656 127.298055 336.109656 
Q 127.733055 335.237156 128.538055 334.757156 
Q 129.343055 334.277156 130.210555 334.277156 
Q 131.140555 334.277156 131.968055 334.809656 
Q 132.795555 335.339656 133.288055 336.347156 
Q 133.780555 337.354656 133.780555 338.644656 
Q 133.780555 340.317156 132.978055 341.849656 
Q 132.178055 343.379656 130.593055 344.304656 
Q 129.008055 345.229656 126.843055 345.309656 
z
M 131.328055 340.167156 
Q 131.405555 339.292156 131.405555 338.629656 
Q 131.405555 337.207156 131.078055 335.979656 
Q 130.890555 335.299656 130.523055 334.979656 
Q 130.328055 334.807156 130.015555 334.807156 
Q 129.623055 334.807156 129.405555 335.144656 
Q 129.100555 335.604656 129.100555 336.902156 
Q 129.100555 339.067156 129.615555 339.887156 
Q 129.953055 340.417156 130.523055 340.417156 
Q 130.828055 340.417156 131.328055 340.167156 
z
"/>
   </g>
   <g id="text_24">
    <path d="M 112.975555 244.940516 
L 106.740555 244.940516 
L 106.740555 244.768016 
Q 109.608055 241.355516 110.220555 240.175516 
Q 110.835555 238.995516 110.835555 237.870516 
Q 110.835555 237.050516 110.328055 236.508016 
Q 109.820555 235.963016 109.085555 235.963016 
Q 107.883055 235.963016 107.218055 237.168016 
L 106.928055 237.065516 
Q 107.350555 235.565516 108.210555 234.848016 
Q 109.070555 234.128016 110.195555 234.128016 
Q 110.998055 234.128016 111.663055 234.503016 
Q 112.328055 234.878016 112.703055 235.530516 
Q 113.078055 236.183016 113.078055 236.753016 
Q 113.078055 237.793016 112.498055 238.863016 
Q 111.710555 240.308016 109.053055 242.893016 
L 111.343055 242.893016 
Q 112.185555 242.893016 112.440555 242.823016 
Q 112.695555 242.753016 112.858055 242.585516 
Q 113.023055 242.418016 113.288055 241.878016 
L 113.570555 241.878016 
L 112.975555 244.940516 
z
M 114.748055 240.948016 
L 119.780555 234.128016 
L 120.733055 234.128016 
L 120.733055 240.948016 
L 121.703055 240.948016 
L 121.703055 242.565516 
L 120.733055 242.565516 
L 120.733055 244.940516 
L 118.585555 244.940516 
L 118.585555 242.565516 
L 114.748055 242.565516 
L 114.748055 240.948016 
z
M 115.508055 240.948016 
L 118.585555 240.948016 
L 118.585555 236.768016 
L 115.508055 240.948016 
z
M 124.350555 242.533016 
Q 124.898055 242.533016 125.275555 242.918016 
Q 125.655555 243.300516 125.655555 243.838016 
Q 125.655555 244.378016 125.273055 244.758016 
Q 124.890555 245.135516 124.350555 245.135516 
Q 123.810555 245.135516 123.430555 244.758016 
Q 123.053055 244.378016 123.053055 243.838016 
Q 123.053055 243.300516 123.430555 242.918016 
Q 123.810555 242.533016 124.350555 242.533016 
z
M 133.765555 239.643016 
Q 133.765555 241.230516 133.320555 242.605516 
Q 133.053055 243.448016 132.603055 243.988016 
Q 132.155555 244.525516 131.585555 244.843016 
Q 131.015555 245.160516 130.343055 245.160516 
Q 129.578055 245.160516 128.960555 244.770516 
Q 128.343055 244.378016 127.865555 243.650516 
Q 127.523055 243.120516 127.265555 242.238016 
Q 126.928055 241.043016 126.928055 239.768016 
Q 126.928055 238.043016 127.413055 236.595516 
Q 127.810555 235.400516 128.623055 234.765516 
Q 129.435555 234.128016 130.343055 234.128016 
Q 131.265555 234.128016 132.065555 234.758016 
Q 132.865555 235.385516 133.240555 236.448016 
Q 133.765555 237.908016 133.765555 239.643016 
z
M 131.358055 239.628016 
Q 131.358055 236.845516 131.328055 236.385516 
Q 131.248055 235.300516 130.953055 234.918016 
Q 130.758055 234.668016 130.320555 234.668016 
Q 129.983055 234.668016 129.788055 234.855516 
Q 129.498055 235.128016 129.395555 235.820516 
Q 129.295555 236.510516 129.295555 240.643016 
Q 129.295555 242.893016 129.453055 243.658016 
Q 129.570555 244.213016 129.788055 244.400516 
Q 130.008055 244.588016 130.365555 244.588016 
Q 130.758055 244.588016 130.953055 244.338016 
Q 131.280555 243.900516 131.328055 242.988016 
L 131.358055 239.628016 
z
" style="stroke: #ffffff; stroke-width: 3.8"/>
    <path d="M 112.975555 244.940516 
L 106.740555 244.940516 
L 106.740555 244.768016 
Q 109.608055 241.355516 110.220555 240.175516 
Q 110.835555 238.995516 110.835555 237.870516 
Q 110.835555 237.050516 110.328055 236.508016 
Q 109.820555 235.963016 109.085555 235.963016 
Q 107.883055 235.963016 107.218055 237.168016 
L 106.928055 237.065516 
Q 107.350555 235.565516 108.210555 234.848016 
Q 109.070555 234.128016 110.195555 234.128016 
Q 110.998055 234.128016 111.663055 234.503016 
Q 112.328055 234.878016 112.703055 235.530516 
Q 113.078055 236.183016 113.078055 236.753016 
Q 113.078055 237.793016 112.498055 238.863016 
Q 111.710555 240.308016 109.053055 242.893016 
L 111.343055 242.893016 
Q 112.185555 242.893016 112.440555 242.823016 
Q 112.695555 242.753016 112.858055 242.585516 
Q 113.023055 242.418016 113.288055 241.878016 
L 113.570555 241.878016 
L 112.975555 244.940516 
z
M 114.748055 240.948016 
L 119.780555 234.128016 
L 120.733055 234.128016 
L 120.733055 240.948016 
L 121.703055 240.948016 
L 121.703055 242.565516 
L 120.733055 242.565516 
L 120.733055 244.940516 
L 118.585555 244.940516 
L 118.585555 242.565516 
L 114.748055 242.565516 
L 114.748055 240.948016 
z
M 115.508055 240.948016 
L 118.585555 240.948016 
L 118.585555 236.768016 
L 115.508055 240.948016 
z
M 124.350555 242.533016 
Q 124.898055 242.533016 125.275555 242.918016 
Q 125.655555 243.300516 125.655555 243.838016 
Q 125.655555 244.378016 125.273055 244.758016 
Q 124.890555 245.135516 124.350555 245.135516 
Q 123.810555 245.135516 123.430555 244.758016 
Q 123.053055 244.378016 123.053055 243.838016 
Q 123.053055 243.300516 123.430555 242.918016 
Q 123.810555 242.533016 124.350555 242.533016 
z
M 133.765555 239.643016 
Q 133.765555 241.230516 133.320555 242.605516 
Q 133.053055 243.448016 132.603055 243.988016 
Q 132.155555 244.525516 131.585555 244.843016 
Q 131.015555 245.160516 130.343055 245.160516 
Q 129.578055 245.160516 128.960555 244.770516 
Q 128.343055 244.378016 127.865555 243.650516 
Q 127.523055 243.120516 127.265555 242.238016 
Q 126.928055 241.043016 126.928055 239.768016 
Q 126.928055 238.043016 127.413055 236.595516 
Q 127.810555 235.400516 128.623055 234.765516 
Q 129.435555 234.128016 130.343055 234.128016 
Q 131.265555 234.128016 132.065555 234.758016 
Q 132.865555 235.385516 133.240555 236.448016 
Q 133.765555 237.908016 133.765555 239.643016 
z
M 131.358055 239.628016 
Q 131.358055 236.845516 131.328055 236.385516 
Q 131.248055 235.300516 130.953055 234.918016 
Q 130.758055 234.668016 130.320555 234.668016 
Q 129.983055 234.668016 129.788055 234.855516 
Q 129.498055 235.128016 129.395555 235.820516 
Q 129.295555 236.510516 129.295555 240.643016 
Q 129.295555 242.893016 129.453055 243.658016 
Q 129.570555 244.213016 129.788055 244.400516 
Q 130.008055 244.588016 130.365555 244.588016 
Q 130.758055 244.588016 130.953055 244.338016 
Q 131.280555 243.900516 131.328055 242.988016 
L 131.358055 239.628016 
z
"/>
   </g>
   <g id="text_25">
    <path d="M 365.677197 287.152517 
Q 366.794697 287.972517 367.227197 288.680017 
Q 367.662197 289.387517 367.662197 290.302517 
Q 367.662197 291.582517 366.697197 292.470017 
Q 365.732197 293.357517 364.077197 293.357517 
Q 362.507197 293.357517 361.647197 292.585017 
Q 360.787197 291.810017 360.787197 290.692517 
Q 360.787197 289.840017 361.282197 289.200017 
Q 361.779697 288.560017 362.934697 288.027517 
Q 361.677197 287.067517 361.322197 286.457517 
Q 360.967197 285.847517 360.967197 285.042517 
Q 360.967197 283.980017 361.869697 283.172517 
Q 362.772197 282.365017 364.342197 282.365017 
Q 365.857197 282.365017 366.672197 283.080017 
Q 367.489697 283.792517 367.489697 284.792517 
Q 367.489697 285.542517 367.047197 286.117517 
Q 366.607197 286.692517 365.677197 287.152517 
z
M 365.084697 286.755017 
Q 365.372197 286.365017 365.512197 285.880017 
Q 365.654697 285.395017 365.654697 284.817517 
Q 365.654697 283.802517 365.217197 283.262517 
Q 364.889697 282.847517 364.309697 282.847517 
Q 363.787197 282.847517 363.419697 283.227517 
Q 363.052197 283.605017 363.052197 284.167517 
Q 363.052197 284.740017 363.462197 285.352517 
Q 363.872197 285.965017 365.084697 286.755017 
z
M 363.522197 288.402517 
Q 363.279697 288.622517 363.177197 288.802517 
Q 363.022197 289.075017 362.897197 289.600017 
Q 362.772197 290.122517 362.772197 290.692517 
Q 362.772197 291.427517 362.959697 291.922517 
Q 363.147197 292.417517 363.494697 292.637517 
Q 363.842197 292.855017 364.209697 292.855017 
Q 364.779697 292.855017 365.169697 292.437517 
Q 365.559697 292.020017 365.559697 291.292517 
Q 365.559697 289.777517 363.522197 288.402517 
z
M 370.224697 290.730017 
Q 370.772197 290.730017 371.149697 291.115017 
Q 371.529697 291.497517 371.529697 292.035017 
Q 371.529697 292.575017 371.147197 292.955017 
Q 370.764697 293.332517 370.224697 293.332517 
Q 369.684697 293.332517 369.304697 292.955017 
Q 368.927197 292.575017 368.927197 292.035017 
Q 368.927197 291.497517 369.304697 291.115017 
Q 369.684697 290.730017 370.224697 290.730017 
z
M 379.739697 282.325017 
L 379.739697 282.542517 
Q 378.327197 282.902517 377.469697 283.470017 
Q 376.614697 284.035017 376.117197 284.845017 
Q 375.622197 285.652517 375.349697 286.847517 
Q 375.694697 286.615017 375.919697 286.542517 
Q 376.427197 286.387517 376.944697 286.387517 
Q 378.132197 286.387517 378.924697 287.252517 
Q 379.717197 288.115017 379.717197 289.605017 
Q 379.717197 290.652517 379.287197 291.527517 
Q 378.857197 292.402517 378.067197 292.880017 
Q 377.279697 293.357517 376.382197 293.357517 
Q 375.404697 293.357517 374.574697 292.822517 
Q 373.747197 292.285017 373.282197 291.255017 
Q 372.819697 290.222517 372.819697 289.012517 
Q 372.819697 287.230017 373.674697 285.695017 
Q 374.529697 284.160017 376.102197 283.250017 
Q 377.677197 282.340017 379.739697 282.325017 
z
M 375.247197 287.480017 
Q 375.184697 288.560017 375.184697 289.060017 
Q 375.184697 290.137517 375.392197 291.145017 
Q 375.599697 292.152517 375.959697 292.560017 
Q 376.217197 292.847517 376.569697 292.847517 
Q 376.927197 292.847517 377.207197 292.430017 
Q 377.489697 292.012517 377.489697 290.730017 
Q 377.489697 288.575017 376.967197 287.755017 
Q 376.632197 287.222517 376.059697 287.222517 
Q 375.747197 287.222517 375.247197 287.480017 
z
" style="stroke: #ffffff; stroke-width: 3.8"/>
    <path d="M 365.677197 287.152517 
Q 366.794697 287.972517 367.227197 288.680017 
Q 367.662197 289.387517 367.662197 290.302517 
Q 367.662197 291.582517 366.697197 292.470017 
Q 365.732197 293.357517 364.077197 293.357517 
Q 362.507197 293.357517 361.647197 292.585017 
Q 360.787197 291.810017 360.787197 290.692517 
Q 360.787197 289.840017 361.282197 289.200017 
Q 361.779697 288.560017 362.934697 288.027517 
Q 361.677197 287.067517 361.322197 286.457517 
Q 360.967197 285.847517 360.967197 285.042517 
Q 360.967197 283.980017 361.869697 283.172517 
Q 362.772197 282.365017 364.342197 282.365017 
Q 365.857197 282.365017 366.672197 283.080017 
Q 367.489697 283.792517 367.489697 284.792517 
Q 367.489697 285.542517 367.047197 286.117517 
Q 366.607197 286.692517 365.677197 287.152517 
z
M 365.084697 286.755017 
Q 365.372197 286.365017 365.512197 285.880017 
Q 365.654697 285.395017 365.654697 284.817517 
Q 365.654697 283.802517 365.217197 283.262517 
Q 364.889697 282.847517 364.309697 282.847517 
Q 363.787197 282.847517 363.419697 283.227517 
Q 363.052197 283.605017 363.052197 284.167517 
Q 363.052197 284.740017 363.462197 285.352517 
Q 363.872197 285.965017 365.084697 286.755017 
z
M 363.522197 288.402517 
Q 363.279697 288.622517 363.177197 288.802517 
Q 363.022197 289.075017 362.897197 289.600017 
Q 362.772197 290.122517 362.772197 290.692517 
Q 362.772197 291.427517 362.959697 291.922517 
Q 363.147197 292.417517 363.494697 292.637517 
Q 363.842197 292.855017 364.209697 292.855017 
Q 364.779697 292.855017 365.169697 292.437517 
Q 365.559697 292.020017 365.559697 291.292517 
Q 365.559697 289.777517 363.522197 288.402517 
z
M 370.224697 290.730017 
Q 370.772197 290.730017 371.149697 291.115017 
Q 371.529697 291.497517 371.529697 292.035017 
Q 371.529697 292.575017 371.147197 292.955017 
Q 370.764697 293.332517 370.224697 293.332517 
Q 369.684697 293.332517 369.304697 292.955017 
Q 368.927197 292.575017 368.927197 292.035017 
Q 368.927197 291.497517 369.304697 291.115017 
Q 369.684697 290.730017 370.224697 290.730017 
z
M 379.739697 282.325017 
L 379.739697 282.542517 
Q 378.327197 282.902517 377.469697 283.470017 
Q 376.614697 284.035017 376.117197 284.845017 
Q 375.622197 285.652517 375.349697 286.847517 
Q 375.694697 286.615017 375.919697 286.542517 
Q 376.427197 286.387517 376.944697 286.387517 
Q 378.132197 286.387517 378.924697 287.252517 
Q 379.717197 288.115017 379.717197 289.605017 
Q 379.717197 290.652517 379.287197 291.527517 
Q 378.857197 292.402517 378.067197 292.880017 
Q 377.279697 293.357517 376.382197 293.357517 
Q 375.404697 293.357517 374.574697 292.822517 
Q 373.747197 292.285017 373.282197 291.255017 
Q 372.819697 290.222517 372.819697 289.012517 
Q 372.819697 287.230017 373.674697 285.695017 
Q 374.529697 284.160017 376.102197 283.250017 
Q 377.677197 282.340017 379.739697 282.325017 
z
M 375.247197 287.480017 
Q 375.184697 288.560017 375.184697 289.060017 
Q 375.184697 290.137517 375.392197 291.145017 
Q 375.599697 292.152517 375.959697 292.560017 
Q 376.217197 292.847517 376.569697 292.847517 
Q 376.927197 292.847517 377.207197 292.430017 
Q 377.489697 292.012517 377.489697 290.730017 
Q 377.489697 288.575017 376.967197 287.755017 
Q 376.632197 287.222517 376.059697 287.222517 
Q 375.747197 287.222517 375.247197 287.480017 
z
"/>
   </g>
   <g id="text_26">
    <path d="M 361.434697 194.634069 
L 361.434697 203.299069 
Q 361.434697 204.274069 361.519697 204.544069 
Q 361.607197 204.814069 361.879697 204.986569 
Q 362.154697 205.156569 362.757197 205.156569 
L 362.997197 205.156569 
L 362.997197 205.446569 
L 357.419697 205.446569 
L 357.419697 205.156569 
L 357.702197 205.156569 
Q 358.382197 205.156569 358.669697 205.001569 
Q 358.959697 204.844069 359.059697 204.571569 
Q 359.162197 204.299069 359.162197 203.299069 
L 359.162197 197.806569 
Q 359.162197 197.071569 359.092197 196.889069 
Q 359.022197 196.704069 358.829697 196.576569 
Q 358.639697 196.446569 358.389697 196.446569 
Q 357.989697 196.446569 357.419697 196.696569 
L 357.279697 196.414069 
L 361.177197 194.634069 
L 361.434697 194.634069 
z
M 364.622197 201.454069 
L 369.654697 194.634069 
L 370.607197 194.634069 
L 370.607197 201.454069 
L 371.577197 201.454069 
L 371.577197 203.071569 
L 370.607197 203.071569 
L 370.607197 205.446569 
L 368.459697 205.446569 
L 368.459697 203.071569 
L 364.622197 203.071569 
L 364.622197 201.454069 
z
M 365.382197 201.454069 
L 368.459697 201.454069 
L 368.459697 197.274069 
L 365.382197 201.454069 
z
M 374.224697 203.039069 
Q 374.772197 203.039069 375.149697 203.424069 
Q 375.529697 203.806569 375.529697 204.344069 
Q 375.529697 204.884069 375.147197 205.264069 
Q 374.764697 205.641569 374.224697 205.641569 
Q 373.684697 205.641569 373.304697 205.264069 
Q 372.927197 204.884069 372.927197 204.344069 
Q 372.927197 203.806569 373.304697 203.424069 
Q 373.684697 203.039069 374.224697 203.039069 
z
M 378.592197 200.134069 
L 378.592197 199.861569 
Q 379.482197 199.601569 379.824697 199.379069 
Q 380.169697 199.156569 380.419697 198.701569 
Q 380.669697 198.244069 380.669697 197.774069 
Q 380.669697 197.126569 380.197197 196.661569 
Q 379.724697 196.196569 379.022197 196.196569 
Q 377.927197 196.196569 377.162197 197.351569 
L 376.872197 197.251569 
Q 377.434697 195.946569 378.314697 195.291569 
Q 379.194697 194.634069 380.272197 194.634069 
Q 381.372197 194.634069 382.087197 195.306569 
Q 382.802197 195.976569 382.802197 196.876569 
Q 382.802197 197.461569 382.469697 198.006569 
Q 382.139697 198.549069 381.427197 198.961569 
Q 382.342197 199.406569 382.822197 200.059069 
Q 383.302197 200.711569 383.302197 201.696569 
Q 383.302197 203.351569 382.102197 204.514069 
Q 380.904697 205.674069 378.889697 205.674069 
Q 377.544697 205.674069 376.927197 205.226569 
Q 376.482197 204.914069 376.482197 204.424069 
Q 376.482197 204.064069 376.739697 203.811569 
Q 376.997197 203.556569 377.334697 203.556569 
Q 377.592197 203.556569 377.819697 203.664069 
Q 377.944697 203.726569 378.704697 204.349069 
Q 379.467197 204.969069 380.132197 204.969069 
Q 380.709697 204.969069 381.122197 204.514069 
Q 381.537197 204.056569 381.537197 203.351569 
Q 381.537197 202.281569 380.787197 201.379069 
Q 380.037197 200.476569 378.592197 200.134069 
z
" style="stroke: #ffffff; stroke-width: 3.8"/>
    <path d="M 361.434697 194.634069 
L 361.434697 203.299069 
Q 361.434697 204.274069 361.519697 204.544069 
Q 361.607197 204.814069 361.879697 204.986569 
Q 362.154697 205.156569 362.757197 205.156569 
L 362.997197 205.156569 
L 362.997197 205.446569 
L 357.419697 205.446569 
L 357.419697 205.156569 
L 357.702197 205.156569 
Q 358.382197 205.156569 358.669697 205.001569 
Q 358.959697 204.844069 359.059697 204.571569 
Q 359.162197 204.299069 359.162197 203.299069 
L 359.162197 197.806569 
Q 359.162197 197.071569 359.092197 196.889069 
Q 359.022197 196.704069 358.829697 196.576569 
Q 358.639697 196.446569 358.389697 196.446569 
Q 357.989697 196.446569 357.419697 196.696569 
L 357.279697 196.414069 
L 361.177197 194.634069 
L 361.434697 194.634069 
z
M 364.622197 201.454069 
L 369.654697 194.634069 
L 370.607197 194.634069 
L 370.607197 201.454069 
L 371.577197 201.454069 
L 371.577197 203.071569 
L 370.607197 203.071569 
L 370.607197 205.446569 
L 368.459697 205.446569 
L 368.459697 203.071569 
L 364.622197 203.071569 
L 364.622197 201.454069 
z
M 365.382197 201.454069 
L 368.459697 201.454069 
L 368.459697 197.274069 
L 365.382197 201.454069 
z
M 374.224697 203.039069 
Q 374.772197 203.039069 375.149697 203.424069 
Q 375.529697 203.806569 375.529697 204.344069 
Q 375.529697 204.884069 375.147197 205.264069 
Q 374.764697 205.641569 374.224697 205.641569 
Q 373.684697 205.641569 373.304697 205.264069 
Q 372.927197 204.884069 372.927197 204.344069 
Q 372.927197 203.806569 373.304697 203.424069 
Q 373.684697 203.039069 374.224697 203.039069 
z
M 378.592197 200.134069 
L 378.592197 199.861569 
Q 379.482197 199.601569 379.824697 199.379069 
Q 380.169697 199.156569 380.419697 198.701569 
Q 380.669697 198.244069 380.669697 197.774069 
Q 380.669697 197.126569 380.197197 196.661569 
Q 379.724697 196.196569 379.022197 196.196569 
Q 377.927197 196.196569 377.162197 197.351569 
L 376.872197 197.251569 
Q 377.434697 195.946569 378.314697 195.291569 
Q 379.194697 194.634069 380.272197 194.634069 
Q 381.372197 194.634069 382.087197 195.306569 
Q 382.802197 195.976569 382.802197 196.876569 
Q 382.802197 197.461569 382.469697 198.006569 
Q 382.139697 198.549069 381.427197 198.961569 
Q 382.342197 199.406569 382.822197 200.059069 
Q 383.302197 200.711569 383.302197 201.696569 
Q 383.302197 203.351569 382.102197 204.514069 
Q 380.904697 205.674069 378.889697 205.674069 
Q 377.544697 205.674069 376.927197 205.226569 
Q 376.482197 204.914069 376.482197 204.424069 
Q 376.482197 204.064069 376.739697 203.811569 
Q 376.997197 203.556569 377.334697 203.556569 
Q 377.592197 203.556569 377.819697 203.664069 
Q 377.944697 203.726569 378.704697 204.349069 
Q 379.467197 204.969069 380.132197 204.969069 
Q 380.709697 204.969069 381.122197 204.514069 
Q 381.537197 204.056569 381.537197 203.351569 
Q 381.537197 202.281569 380.787197 201.379069 
Q 380.037197 200.476569 378.592197 200.134069 
z
"/>
   </g>
   <g id="text_27">
    <path d="M 362.849697 112.55128 
L 356.614697 112.55128 
L 356.614697 112.37878 
Q 359.482197 108.96628 360.094697 107.78628 
Q 360.709697 106.60628 360.709697 105.48128 
Q 360.709697 104.66128 360.202197 104.11878 
Q 359.694697 103.57378 358.959697 103.57378 
Q 357.757197 103.57378 357.092197 104.77878 
L 356.802197 104.67628 
Q 357.224697 103.17628 358.084697 102.45878 
Q 358.944697 101.73878 360.069697 101.73878 
Q 360.872197 101.73878 361.537197 102.11378 
Q 362.202197 102.48878 362.577197 103.14128 
Q 362.952197 103.79378 362.952197 104.36378 
Q 362.952197 105.40378 362.372197 106.47378 
Q 361.584697 107.91878 358.927197 110.50378 
L 361.217197 110.50378 
Q 362.059697 110.50378 362.314697 110.43378 
Q 362.569697 110.36378 362.732197 110.19628 
Q 362.897197 110.02878 363.162197 109.48878 
L 363.444697 109.48878 
L 362.849697 112.55128 
z
M 366.662197 101.95628 
L 371.622197 101.95628 
L 370.834697 103.97378 
L 366.662197 103.97378 
L 366.264697 105.02878 
Q 368.959697 105.12878 370.412197 106.37128 
Q 371.607197 107.39378 371.607197 108.91878 
Q 371.607197 109.89378 371.052197 110.82878 
Q 370.497197 111.76128 369.489697 112.26628 
Q 368.482197 112.77128 367.279697 112.77128 
Q 365.982197 112.77128 365.287197 112.28628 
Q 364.802197 111.94128 364.802197 111.50378 
Q 364.802197 111.16878 365.054697 110.91128 
Q 365.309697 110.65378 365.647197 110.65378 
Q 365.952197 110.65378 366.264697 110.77878 
Q 366.577197 110.90378 367.334697 111.43378 
Q 367.809697 111.76128 368.154697 111.88628 
Q 368.397197 111.98128 368.702197 111.98128 
Q 369.342197 111.98128 369.789697 111.51378 
Q 370.239697 111.04378 370.239697 110.38628 
Q 370.239697 109.01128 368.864697 108.15378 
Q 367.489697 107.29378 365.397197 107.29378 
Q 365.184697 107.29378 364.764697 107.30128 
L 366.662197 101.95628 
z
M 374.224697 110.14378 
Q 374.772197 110.14378 375.149697 110.52878 
Q 375.529697 110.91128 375.529697 111.44878 
Q 375.529697 111.98878 375.147197 112.36878 
Q 374.764697 112.74628 374.224697 112.74628 
Q 373.684697 112.74628 373.304697 112.36878 
Q 372.927197 111.98878 372.927197 111.44878 
Q 372.927197 110.91128 373.304697 110.52878 
Q 373.684697 110.14378 374.224697 110.14378 
z
M 379.059697 112.77128 
L 381.944697 104.02878 
L 379.747197 104.02878 
Q 378.459697 104.02878 377.809697 104.36378 
Q 377.357197 104.59878 377.059697 105.24628 
L 376.764697 105.24628 
L 377.529697 101.95628 
L 383.842197 101.95628 
L 380.287197 112.77128 
L 379.059697 112.77128 
z
" style="stroke: #ffffff; stroke-width: 3.8"/>
    <path d="M 362.849697 112.55128 
L 356.614697 112.55128 
L 356.614697 112.37878 
Q 359.482197 108.96628 360.094697 107.78628 
Q 360.709697 106.60628 360.709697 105.48128 
Q 360.709697 104.66128 360.202197 104.11878 
Q 359.694697 103.57378 358.959697 103.57378 
Q 357.757197 103.57378 357.092197 104.77878 
L 356.802197 104.67628 
Q 357.224697 103.17628 358.084697 102.45878 
Q 358.944697 101.73878 360.069697 101.73878 
Q 360.872197 101.73878 361.537197 102.11378 
Q 362.202197 102.48878 362.577197 103.14128 
Q 362.952197 103.79378 362.952197 104.36378 
Q 362.952197 105.40378 362.372197 106.47378 
Q 361.584697 107.91878 358.927197 110.50378 
L 361.217197 110.50378 
Q 362.059697 110.50378 362.314697 110.43378 
Q 362.569697 110.36378 362.732197 110.19628 
Q 362.897197 110.02878 363.162197 109.48878 
L 363.444697 109.48878 
L 362.849697 112.55128 
z
M 366.662197 101.95628 
L 371.622197 101.95628 
L 370.834697 103.97378 
L 366.662197 103.97378 
L 366.264697 105.02878 
Q 368.959697 105.12878 370.412197 106.37128 
Q 371.607197 107.39378 371.607197 108.91878 
Q 371.607197 109.89378 371.052197 110.82878 
Q 370.497197 111.76128 369.489697 112.26628 
Q 368.482197 112.77128 367.279697 112.77128 
Q 365.982197 112.77128 365.287197 112.28628 
Q 364.802197 111.94128 364.802197 111.50378 
Q 364.802197 111.16878 365.054697 110.91128 
Q 365.309697 110.65378 365.647197 110.65378 
Q 365.952197 110.65378 366.264697 110.77878 
Q 366.577197 110.90378 367.334697 111.43378 
Q 367.809697 111.76128 368.154697 111.88628 
Q 368.397197 111.98128 368.702197 111.98128 
Q 369.342197 111.98128 369.789697 111.51378 
Q 370.239697 111.04378 370.239697 110.38628 
Q 370.239697 109.01128 368.864697 108.15378 
Q 367.489697 107.29378 365.397197 107.29378 
Q 365.184697 107.29378 364.764697 107.30128 
L 366.662197 101.95628 
z
M 374.224697 110.14378 
Q 374.772197 110.14378 375.149697 110.52878 
Q 375.529697 110.91128 375.529697 111.44878 
Q 375.529697 111.98878 375.147197 112.36878 
Q 374.764697 112.74628 374.224697 112.74628 
Q 373.684697 112.74628 373.304697 112.36878 
Q 372.927197 111.98878 372.927197 111.44878 
Q 372.927197 110.91128 373.304697 110.52878 
Q 373.684697 110.14378 374.224697 110.14378 
z
M 379.059697 112.77128 
L 381.944697 104.02878 
L 379.747197 104.02878 
Q 378.459697 104.02878 377.809697 104.36378 
Q 377.357197 104.59878 377.059697 105.24628 
L 376.764697 105.24628 
L 377.529697 101.95628 
L 383.842197 101.95628 
L 380.287197 112.77128 
L 379.059697 112.77128 
z
"/>
   </g>
   <g id="text_28">
    <path d="M 577.803672 225.111304 
L 577.803672 233.776304 
Q 577.803672 234.751304 577.888672 235.021304 
Q 577.976172 235.291304 578.248672 235.463804 
Q 578.523672 235.633804 579.126172 235.633804 
L 579.366172 235.633804 
L 579.366172 235.923804 
L 573.788672 235.923804 
L 573.788672 235.633804 
L 574.071172 235.633804 
Q 574.751172 235.633804 575.038672 235.478804 
Q 575.328672 235.321304 575.428672 235.048804 
Q 575.531172 234.776304 575.531172 233.776304 
L 575.531172 228.283804 
Q 575.531172 227.548804 575.461172 227.366304 
Q 575.391172 227.181304 575.198672 227.053804 
Q 575.008672 226.923804 574.758672 226.923804 
Q 574.358672 226.923804 573.788672 227.173804 
L 573.648672 226.891304 
L 577.546172 225.111304 
L 577.803672 225.111304 
z
M 584.923672 225.111304 
L 584.923672 233.776304 
Q 584.923672 234.751304 585.008672 235.021304 
Q 585.096172 235.291304 585.368672 235.463804 
Q 585.643672 235.633804 586.246172 235.633804 
L 586.486172 235.633804 
L 586.486172 235.923804 
L 580.908672 235.923804 
L 580.908672 235.633804 
L 581.191172 235.633804 
Q 581.871172 235.633804 582.158672 235.478804 
Q 582.448672 235.321304 582.548672 235.048804 
Q 582.651172 234.776304 582.651172 233.776304 
L 582.651172 228.283804 
Q 582.651172 227.548804 582.581172 227.366304 
Q 582.511172 227.181304 582.318672 227.053804 
Q 582.128672 226.923804 581.878672 226.923804 
Q 581.478672 226.923804 580.908672 227.173804 
L 580.768672 226.891304 
L 584.666172 225.111304 
L 584.923672 225.111304 
z
M 589.713672 233.516304 
Q 590.261172 233.516304 590.638672 233.901304 
Q 591.018672 234.283804 591.018672 234.821304 
Q 591.018672 235.361304 590.636172 235.741304 
Q 590.253672 236.118804 589.713672 236.118804 
Q 589.173672 236.118804 588.793672 235.741304 
Q 588.416172 235.361304 588.416172 234.821304 
Q 588.416172 234.283804 588.793672 233.901304 
Q 589.173672 233.516304 589.713672 233.516304 
z
M 599.228672 225.111304 
L 599.228672 225.328804 
Q 597.816172 225.688804 596.958672 226.256304 
Q 596.103672 226.821304 595.606172 227.631304 
Q 595.111172 228.438804 594.838672 229.633804 
Q 595.183672 229.401304 595.408672 229.328804 
Q 595.916172 229.173804 596.433672 229.173804 
Q 597.621172 229.173804 598.413672 230.038804 
Q 599.206172 230.901304 599.206172 232.391304 
Q 599.206172 233.438804 598.776172 234.313804 
Q 598.346172 235.188804 597.556172 235.666304 
Q 596.768672 236.143804 595.871172 236.143804 
Q 594.893672 236.143804 594.063672 235.608804 
Q 593.236172 235.071304 592.771172 234.041304 
Q 592.308672 233.008804 592.308672 231.798804 
Q 592.308672 230.016304 593.163672 228.481304 
Q 594.018672 226.946304 595.591172 226.036304 
Q 597.166172 225.126304 599.228672 225.111304 
z
M 594.736172 230.266304 
Q 594.673672 231.346304 594.673672 231.846304 
Q 594.673672 232.923804 594.881172 233.931304 
Q 595.088672 234.938804 595.448672 235.346304 
Q 595.706172 235.633804 596.058672 235.633804 
Q 596.416172 235.633804 596.696172 235.216304 
Q 596.978672 234.798804 596.978672 233.516304 
Q 596.978672 231.361304 596.456172 230.541304 
Q 596.121172 230.008804 595.548672 230.008804 
Q 595.236172 230.008804 594.736172 230.266304 
z
" style="stroke: #ffffff; stroke-width: 3.8"/>
    <path d="M 577.803672 225.111304 
L 577.803672 233.776304 
Q 577.803672 234.751304 577.888672 235.021304 
Q 577.976172 235.291304 578.248672 235.463804 
Q 578.523672 235.633804 579.126172 235.633804 
L 579.366172 235.633804 
L 579.366172 235.923804 
L 573.788672 235.923804 
L 573.788672 235.633804 
L 574.071172 235.633804 
Q 574.751172 235.633804 575.038672 235.478804 
Q 575.328672 235.321304 575.428672 235.048804 
Q 575.531172 234.776304 575.531172 233.776304 
L 575.531172 228.283804 
Q 575.531172 227.548804 575.461172 227.366304 
Q 575.391172 227.181304 575.198672 227.053804 
Q 575.008672 226.923804 574.758672 226.923804 
Q 574.358672 226.923804 573.788672 227.173804 
L 573.648672 226.891304 
L 577.546172 225.111304 
L 577.803672 225.111304 
z
M 584.923672 225.111304 
L 584.923672 233.776304 
Q 584.923672 234.751304 585.008672 235.021304 
Q 585.096172 235.291304 585.368672 235.463804 
Q 585.643672 235.633804 586.246172 235.633804 
L 586.486172 235.633804 
L 586.486172 235.923804 
L 580.908672 235.923804 
L 580.908672 235.633804 
L 581.191172 235.633804 
Q 581.871172 235.633804 582.158672 235.478804 
Q 582.448672 235.321304 582.548672 235.048804 
Q 582.651172 234.776304 582.651172 233.776304 
L 582.651172 228.283804 
Q 582.651172 227.548804 582.581172 227.366304 
Q 582.511172 227.181304 582.318672 227.053804 
Q 582.128672 226.923804 581.878672 226.923804 
Q 581.478672 226.923804 580.908672 227.173804 
L 580.768672 226.891304 
L 584.666172 225.111304 
L 584.923672 225.111304 
z
M 589.713672 233.516304 
Q 590.261172 233.516304 590.638672 233.901304 
Q 591.018672 234.283804 591.018672 234.821304 
Q 591.018672 235.361304 590.636172 235.741304 
Q 590.253672 236.118804 589.713672 236.118804 
Q 589.173672 236.118804 588.793672 235.741304 
Q 588.416172 235.361304 588.416172 234.821304 
Q 588.416172 234.283804 588.793672 233.901304 
Q 589.173672 233.516304 589.713672 233.516304 
z
M 599.228672 225.111304 
L 599.228672 225.328804 
Q 597.816172 225.688804 596.958672 226.256304 
Q 596.103672 226.821304 595.606172 227.631304 
Q 595.111172 228.438804 594.838672 229.633804 
Q 595.183672 229.401304 595.408672 229.328804 
Q 595.916172 229.173804 596.433672 229.173804 
Q 597.621172 229.173804 598.413672 230.038804 
Q 599.206172 230.901304 599.206172 232.391304 
Q 599.206172 233.438804 598.776172 234.313804 
Q 598.346172 235.188804 597.556172 235.666304 
Q 596.768672 236.143804 595.871172 236.143804 
Q 594.893672 236.143804 594.063672 235.608804 
Q 593.236172 235.071304 592.771172 234.041304 
Q 592.308672 233.008804 592.308672 231.798804 
Q 592.308672 230.016304 593.163672 228.481304 
Q 594.018672 226.946304 595.591172 226.036304 
Q 597.166172 225.126304 599.228672 225.111304 
z
M 594.736172 230.266304 
Q 594.673672 231.346304 594.673672 231.846304 
Q 594.673672 232.923804 594.881172 233.931304 
Q 595.088672 234.938804 595.448672 235.346304 
Q 595.706172 235.633804 596.058672 235.633804 
Q 596.416172 235.633804 596.696172 235.216304 
Q 596.978672 234.798804 596.978672 233.516304 
Q 596.978672 231.361304 596.456172 230.541304 
Q 596.121172 230.008804 595.548672 230.008804 
Q 595.236172 230.008804 594.736172 230.266304 
z
"/>
   </g>
   <g id="text_29">
    <path d="M 581.690396 384.970213 
Q 581.690396 386.458495 581.273209 387.747557 
Q 581.022427 388.537401 580.600552 389.043651 
Q 580.181021 389.547557 579.646646 389.845213 
Q 579.112271 390.14287 578.481802 390.14287 
Q 577.764615 390.14287 577.185709 389.777245 
Q 576.606802 389.409276 576.159146 388.727245 
Q 575.838052 388.23037 575.596646 387.403026 
Q 575.28024 386.282713 575.28024 385.087401 
Q 575.28024 383.470213 575.734927 382.113182 
Q 576.107584 380.99287 576.869302 380.397557 
Q 577.631021 379.799901 578.481802 379.799901 
Q 579.346646 379.799901 580.096646 380.390526 
Q 580.846646 380.978807 581.198209 381.974901 
Q 581.690396 383.343651 581.690396 384.970213 
z
M 579.433365 384.956151 
Q 579.433365 382.347557 579.40524 381.916307 
Q 579.33024 380.89912 579.053677 380.540526 
Q 578.870865 380.306151 578.460709 380.306151 
Q 578.144302 380.306151 577.96149 380.481932 
Q 577.689615 380.737401 577.593521 381.38662 
Q 577.499771 382.033495 577.499771 385.907713 
Q 577.499771 388.017088 577.647427 388.734276 
Q 577.757584 389.254588 577.96149 389.43037 
Q 578.16774 389.606151 578.502896 389.606151 
Q 578.870865 389.606151 579.053677 389.371776 
Q 579.360709 388.96162 579.40524 388.106151 
L 579.433365 384.956151 
z
M 584.113834 387.679588 
Q 584.627115 387.679588 584.981021 388.040526 
Q 585.337271 388.39912 585.337271 388.903026 
Q 585.337271 389.409276 584.978677 389.765526 
Q 584.620084 390.119432 584.113834 390.119432 
Q 583.607584 390.119432 583.251334 389.765526 
Q 582.897427 389.409276 582.897427 388.903026 
Q 582.897427 388.39912 583.251334 388.040526 
Q 583.607584 387.679588 584.113834 387.679588 
z
M 590.873209 379.799901 
L 590.873209 387.923338 
Q 590.873209 388.837401 590.952896 389.090526 
Q 591.034927 389.343651 591.290396 389.50537 
Q 591.548209 389.664745 592.113052 389.664745 
L 592.338052 389.664745 
L 592.338052 389.93662 
L 587.109146 389.93662 
L 587.109146 389.664745 
L 587.37399 389.664745 
Q 588.01149 389.664745 588.281021 389.519432 
Q 588.552896 389.371776 588.646646 389.116307 
Q 588.74274 388.860838 588.74274 387.923338 
L 588.74274 382.77412 
Q 588.74274 382.085057 588.677115 381.913963 
Q 588.61149 381.740526 588.431021 381.620995 
Q 588.252896 381.49912 588.018521 381.49912 
Q 587.643521 381.49912 587.109146 381.733495 
L 586.977896 381.468651 
L 590.631802 379.799901 
L 590.873209 379.799901 
z
" style="fill: #404040; stroke: #ffffff; stroke-width: 3.8"/>
    <path d="M 581.690396 384.970213 
Q 581.690396 386.458495 581.273209 387.747557 
Q 581.022427 388.537401 580.600552 389.043651 
Q 580.181021 389.547557 579.646646 389.845213 
Q 579.112271 390.14287 578.481802 390.14287 
Q 577.764615 390.14287 577.185709 389.777245 
Q 576.606802 389.409276 576.159146 388.727245 
Q 575.838052 388.23037 575.596646 387.403026 
Q 575.28024 386.282713 575.28024 385.087401 
Q 575.28024 383.470213 575.734927 382.113182 
Q 576.107584 380.99287 576.869302 380.397557 
Q 577.631021 379.799901 578.481802 379.799901 
Q 579.346646 379.799901 580.096646 380.390526 
Q 580.846646 380.978807 581.198209 381.974901 
Q 581.690396 383.343651 581.690396 384.970213 
z
M 579.433365 384.956151 
Q 579.433365 382.347557 579.40524 381.916307 
Q 579.33024 380.89912 579.053677 380.540526 
Q 578.870865 380.306151 578.460709 380.306151 
Q 578.144302 380.306151 577.96149 380.481932 
Q 577.689615 380.737401 577.593521 381.38662 
Q 577.499771 382.033495 577.499771 385.907713 
Q 577.499771 388.017088 577.647427 388.734276 
Q 577.757584 389.254588 577.96149 389.43037 
Q 578.16774 389.606151 578.502896 389.606151 
Q 578.870865 389.606151 579.053677 389.371776 
Q 579.360709 388.96162 579.40524 388.106151 
L 579.433365 384.956151 
z
M 584.113834 387.679588 
Q 584.627115 387.679588 584.981021 388.040526 
Q 585.337271 388.39912 585.337271 388.903026 
Q 585.337271 389.409276 584.978677 389.765526 
Q 584.620084 390.119432 584.113834 390.119432 
Q 583.607584 390.119432 583.251334 389.765526 
Q 582.897427 389.409276 582.897427 388.903026 
Q 582.897427 388.39912 583.251334 388.040526 
Q 583.607584 387.679588 584.113834 387.679588 
z
M 590.873209 379.799901 
L 590.873209 387.923338 
Q 590.873209 388.837401 590.952896 389.090526 
Q 591.034927 389.343651 591.290396 389.50537 
Q 591.548209 389.664745 592.113052 389.664745 
L 592.338052 389.664745 
L 592.338052 389.93662 
L 587.109146 389.93662 
L 587.109146 389.664745 
L 587.37399 389.664745 
Q 588.01149 389.664745 588.281021 389.519432 
Q 588.552896 389.371776 588.646646 389.116307 
Q 588.74274 388.860838 588.74274 387.923338 
L 588.74274 382.77412 
Q 588.74274 382.085057 588.677115 381.913963 
Q 588.61149 381.740526 588.431021 381.620995 
Q 588.252896 381.49912 588.018521 381.49912 
Q 587.643521 381.49912 587.109146 381.733495 
L 586.977896 381.468651 
L 590.631802 379.799901 
L 590.873209 379.799901 
z
" style="fill: #404040"/>
   </g>
   <g id="text_30">
    <path d="M 567.635205 336.276475 
L 567.635205 344.399912 
Q 567.635205 345.313975 567.714893 345.5671 
Q 567.796924 345.820225 568.052393 345.981943 
Q 568.310205 346.141318 568.875049 346.141318 
L 569.100049 346.141318 
L 569.100049 346.413193 
L 563.871143 346.413193 
L 563.871143 346.141318 
L 564.135986 346.141318 
Q 564.773486 346.141318 565.043018 345.996006 
Q 565.314893 345.84835 565.408643 345.592881 
Q 565.504736 345.337412 565.504736 344.399912 
L 565.504736 339.250693 
Q 565.504736 338.561631 565.439111 338.390537 
Q 565.373486 338.2171 565.193018 338.097568 
Q 565.014893 337.975693 564.780518 337.975693 
Q 564.405518 337.975693 563.871143 338.210068 
L 563.739893 337.945225 
L 567.393799 336.276475 
L 567.635205 336.276475 
z
M 577.202393 341.446787 
Q 577.202393 342.935068 576.785205 344.224131 
Q 576.534424 345.013975 576.112549 345.520225 
Q 575.693018 346.024131 575.158643 346.321787 
Q 574.624268 346.619443 573.993799 346.619443 
Q 573.276611 346.619443 572.697705 346.253818 
Q 572.118799 345.88585 571.671143 345.203818 
Q 571.350049 344.706943 571.108643 343.8796 
Q 570.792236 342.759287 570.792236 341.563975 
Q 570.792236 339.946787 571.246924 338.589756 
Q 571.61958 337.469443 572.381299 336.874131 
Q 573.143018 336.276475 573.993799 336.276475 
Q 574.858643 336.276475 575.608643 336.8671 
Q 576.358643 337.455381 576.710205 338.451475 
Q 577.202393 339.820225 577.202393 341.446787 
z
M 574.945361 341.432725 
Q 574.945361 338.824131 574.917236 338.392881 
Q 574.842236 337.375693 574.565674 337.0171 
Q 574.382861 336.782725 573.972705 336.782725 
Q 573.656299 336.782725 573.473486 336.958506 
Q 573.201611 337.213975 573.105518 337.863193 
Q 573.011768 338.510068 573.011768 342.384287 
Q 573.011768 344.493662 573.159424 345.21085 
Q 573.26958 345.731162 573.473486 345.906943 
Q 573.679736 346.082725 574.014893 346.082725 
Q 574.382861 346.082725 574.565674 345.84835 
Q 574.872705 345.438193 574.917236 344.582725 
L 574.945361 341.432725 
z
M 579.62583 344.156162 
Q 580.139111 344.156162 580.493018 344.5171 
Q 580.849268 344.875693 580.849268 345.3796 
Q 580.849268 345.88585 580.490674 346.2421 
Q 580.13208 346.596006 579.62583 346.596006 
Q 579.11958 346.596006 578.76333 346.2421 
Q 578.409424 345.88585 578.409424 345.3796 
Q 578.409424 344.875693 578.76333 344.5171 
Q 579.11958 344.156162 579.62583 344.156162 
z
M 584.158643 346.619443 
L 586.86333 338.42335 
L 584.803174 338.42335 
Q 583.596143 338.42335 582.986768 338.737412 
Q 582.562549 338.957725 582.283643 339.564756 
L 582.00708 339.564756 
L 582.724268 336.480381 
L 588.642236 336.480381 
L 585.309424 346.619443 
L 584.158643 346.619443 
z
" style="fill: #404040; stroke: #ffffff; stroke-width: 3.8"/>
    <path d="M 567.635205 336.276475 
L 567.635205 344.399912 
Q 567.635205 345.313975 567.714893 345.5671 
Q 567.796924 345.820225 568.052393 345.981943 
Q 568.310205 346.141318 568.875049 346.141318 
L 569.100049 346.141318 
L 569.100049 346.413193 
L 563.871143 346.413193 
L 563.871143 346.141318 
L 564.135986 346.141318 
Q 564.773486 346.141318 565.043018 345.996006 
Q 565.314893 345.84835 565.408643 345.592881 
Q 565.504736 345.337412 565.504736 344.399912 
L 565.504736 339.250693 
Q 565.504736 338.561631 565.439111 338.390537 
Q 565.373486 338.2171 565.193018 338.097568 
Q 565.014893 337.975693 564.780518 337.975693 
Q 564.405518 337.975693 563.871143 338.210068 
L 563.739893 337.945225 
L 567.393799 336.276475 
L 567.635205 336.276475 
z
M 577.202393 341.446787 
Q 577.202393 342.935068 576.785205 344.224131 
Q 576.534424 345.013975 576.112549 345.520225 
Q 575.693018 346.024131 575.158643 346.321787 
Q 574.624268 346.619443 573.993799 346.619443 
Q 573.276611 346.619443 572.697705 346.253818 
Q 572.118799 345.88585 571.671143 345.203818 
Q 571.350049 344.706943 571.108643 343.8796 
Q 570.792236 342.759287 570.792236 341.563975 
Q 570.792236 339.946787 571.246924 338.589756 
Q 571.61958 337.469443 572.381299 336.874131 
Q 573.143018 336.276475 573.993799 336.276475 
Q 574.858643 336.276475 575.608643 336.8671 
Q 576.358643 337.455381 576.710205 338.451475 
Q 577.202393 339.820225 577.202393 341.446787 
z
M 574.945361 341.432725 
Q 574.945361 338.824131 574.917236 338.392881 
Q 574.842236 337.375693 574.565674 337.0171 
Q 574.382861 336.782725 573.972705 336.782725 
Q 573.656299 336.782725 573.473486 336.958506 
Q 573.201611 337.213975 573.105518 337.863193 
Q 573.011768 338.510068 573.011768 342.384287 
Q 573.011768 344.493662 573.159424 345.21085 
Q 573.26958 345.731162 573.473486 345.906943 
Q 573.679736 346.082725 574.014893 346.082725 
Q 574.382861 346.082725 574.565674 345.84835 
Q 574.872705 345.438193 574.917236 344.582725 
L 574.945361 341.432725 
z
M 579.62583 344.156162 
Q 580.139111 344.156162 580.493018 344.5171 
Q 580.849268 344.875693 580.849268 345.3796 
Q 580.849268 345.88585 580.490674 346.2421 
Q 580.13208 346.596006 579.62583 346.596006 
Q 579.11958 346.596006 578.76333 346.2421 
Q 578.409424 345.88585 578.409424 345.3796 
Q 578.409424 344.875693 578.76333 344.5171 
Q 579.11958 344.156162 579.62583 344.156162 
z
M 584.158643 346.619443 
L 586.86333 338.42335 
L 584.803174 338.42335 
Q 583.596143 338.42335 582.986768 338.737412 
Q 582.562549 338.957725 582.283643 339.564756 
L 582.00708 339.564756 
L 582.724268 336.480381 
L 588.642236 336.480381 
L 585.309424 346.619443 
L 584.158643 346.619443 
z
" style="fill: #404040"/>
   </g>
   <g id="text_31">
    <path d="M 532.3236 304.668916 
L 532.3236 304.413448 
Q 533.157975 304.169698 533.479068 303.961104 
Q 533.802506 303.75251 534.036881 303.325948 
Q 534.271256 302.897041 534.271256 302.456416 
Q 534.271256 301.849385 533.828287 301.413448 
Q 533.385318 300.97751 532.726725 300.97751 
Q 531.700162 300.97751 530.982975 302.060323 
L 530.7111 301.966573 
Q 531.238443 300.743135 532.063443 300.129073 
Q 532.888443 299.512666 533.8986 299.512666 
Q 534.92985 299.512666 535.600162 300.143135 
Q 536.270475 300.77126 536.270475 301.61501 
Q 536.270475 302.163448 535.958756 302.674385 
Q 535.649381 303.182979 534.981412 303.569698 
Q 535.839225 303.986885 536.289225 304.598604 
Q 536.739225 305.210323 536.739225 306.13376 
Q 536.739225 307.685323 535.614225 308.775166 
Q 534.491568 309.862666 532.602506 309.862666 
Q 531.341568 309.862666 530.762662 309.443135 
Q 530.345475 309.150166 530.345475 308.690791 
Q 530.345475 308.353291 530.586881 308.116573 
Q 530.828287 307.87751 531.144693 307.87751 
Q 531.3861 307.87751 531.599381 307.978291 
Q 531.716568 308.036885 532.429068 308.620479 
Q 533.143912 309.201729 533.76735 309.201729 
Q 534.308756 309.201729 534.695475 308.775166 
Q 535.084537 308.34626 535.084537 307.685323 
Q 535.084537 306.682198 534.381412 305.836104 
Q 533.678287 304.99001 532.3236 304.668916 
z
M 539.479068 307.392354 
Q 539.99235 307.392354 540.346256 307.753291 
Q 540.702506 308.111885 540.702506 308.615791 
Q 540.702506 309.122041 540.343912 309.478291 
Q 539.985318 309.832198 539.479068 309.832198 
Q 538.972818 309.832198 538.616568 309.478291 
Q 538.262662 309.122041 538.262662 308.615791 
Q 538.262662 308.111885 538.616568 307.753291 
Q 538.972818 307.392354 539.479068 307.392354 
z
M 547.565006 309.649385 
L 541.719693 309.649385 
L 541.719693 309.487666 
Q 544.407975 306.288448 544.982193 305.182198 
Q 545.558756 304.075948 545.558756 303.02126 
Q 545.558756 302.25251 545.082975 301.743916 
Q 544.607193 301.232979 543.918131 301.232979 
Q 542.790787 301.232979 542.16735 302.362666 
L 541.895475 302.266573 
Q 542.291568 300.860323 543.097818 300.187666 
Q 543.904068 299.512666 544.958756 299.512666 
Q 545.7111 299.512666 546.334537 299.864229 
Q 546.957975 300.215791 547.309537 300.82751 
Q 547.6611 301.439229 547.6611 301.973604 
Q 547.6611 302.948604 547.11735 303.951729 
Q 546.379068 305.306416 543.887662 307.729854 
L 546.034537 307.729854 
Q 546.824381 307.729854 547.063443 307.664229 
Q 547.302506 307.598604 547.45485 307.441573 
Q 547.609537 307.284541 547.857975 306.778291 
L 548.122818 306.778291 
L 547.565006 309.649385 
z
" style="fill: #404040; stroke: #ffffff; stroke-width: 3.8"/>
    <path d="M 532.3236 304.668916 
L 532.3236 304.413448 
Q 533.157975 304.169698 533.479068 303.961104 
Q 533.802506 303.75251 534.036881 303.325948 
Q 534.271256 302.897041 534.271256 302.456416 
Q 534.271256 301.849385 533.828287 301.413448 
Q 533.385318 300.97751 532.726725 300.97751 
Q 531.700162 300.97751 530.982975 302.060323 
L 530.7111 301.966573 
Q 531.238443 300.743135 532.063443 300.129073 
Q 532.888443 299.512666 533.8986 299.512666 
Q 534.92985 299.512666 535.600162 300.143135 
Q 536.270475 300.77126 536.270475 301.61501 
Q 536.270475 302.163448 535.958756 302.674385 
Q 535.649381 303.182979 534.981412 303.569698 
Q 535.839225 303.986885 536.289225 304.598604 
Q 536.739225 305.210323 536.739225 306.13376 
Q 536.739225 307.685323 535.614225 308.775166 
Q 534.491568 309.862666 532.602506 309.862666 
Q 531.341568 309.862666 530.762662 309.443135 
Q 530.345475 309.150166 530.345475 308.690791 
Q 530.345475 308.353291 530.586881 308.116573 
Q 530.828287 307.87751 531.144693 307.87751 
Q 531.3861 307.87751 531.599381 307.978291 
Q 531.716568 308.036885 532.429068 308.620479 
Q 533.143912 309.201729 533.76735 309.201729 
Q 534.308756 309.201729 534.695475 308.775166 
Q 535.084537 308.34626 535.084537 307.685323 
Q 535.084537 306.682198 534.381412 305.836104 
Q 533.678287 304.99001 532.3236 304.668916 
z
M 539.479068 307.392354 
Q 539.99235 307.392354 540.346256 307.753291 
Q 540.702506 308.111885 540.702506 308.615791 
Q 540.702506 309.122041 540.343912 309.478291 
Q 539.985318 309.832198 539.479068 309.832198 
Q 538.972818 309.832198 538.616568 309.478291 
Q 538.262662 309.122041 538.262662 308.615791 
Q 538.262662 308.111885 538.616568 307.753291 
Q 538.972818 307.392354 539.479068 307.392354 
z
M 547.565006 309.649385 
L 541.719693 309.649385 
L 541.719693 309.487666 
Q 544.407975 306.288448 544.982193 305.182198 
Q 545.558756 304.075948 545.558756 303.02126 
Q 545.558756 302.25251 545.082975 301.743916 
Q 544.607193 301.232979 543.918131 301.232979 
Q 542.790787 301.232979 542.16735 302.362666 
L 541.895475 302.266573 
Q 542.291568 300.860323 543.097818 300.187666 
Q 543.904068 299.512666 544.958756 299.512666 
Q 545.7111 299.512666 546.334537 299.864229 
Q 546.957975 300.215791 547.309537 300.82751 
Q 547.6611 301.439229 547.6611 301.973604 
Q 547.6611 302.948604 547.11735 303.951729 
Q 546.379068 305.306416 543.887662 307.729854 
L 546.034537 307.729854 
Q 546.824381 307.729854 547.063443 307.664229 
Q 547.302506 307.598604 547.45485 307.441573 
Q 547.609537 307.284541 547.857975 306.778291 
L 548.122818 306.778291 
L 547.565006 309.649385 
z
" style="fill: #404040"/>
   </g>
   <g id="text_32">
    <path d="M 324.455804 357.49414 
L 324.455804 365.617577 
Q 324.455804 366.53164 324.535492 366.784765 
Q 324.617523 367.03789 324.872992 367.199609 
Q 325.130804 367.358984 325.695648 367.358984 
L 325.920648 367.358984 
L 325.920648 367.630859 
L 320.691742 367.630859 
L 320.691742 367.358984 
L 320.956586 367.358984 
Q 321.594086 367.358984 321.863617 367.213671 
Q 322.135492 367.066015 322.229242 366.810546 
Q 322.325336 366.555077 322.325336 365.617577 
L 322.325336 360.468359 
Q 322.325336 359.779296 322.259711 359.608202 
Q 322.194086 359.434765 322.013617 359.315234 
Q 321.835492 359.193359 321.601117 359.193359 
Q 321.226117 359.193359 320.691742 359.427734 
L 320.560492 359.16289 
L 324.214398 357.49414 
L 324.455804 357.49414 
z
M 329.290961 362.65039 
L 329.290961 362.394921 
Q 330.125336 362.151171 330.446429 361.942577 
Q 330.769867 361.733984 331.004242 361.307421 
Q 331.238617 360.878515 331.238617 360.43789 
Q 331.238617 359.830859 330.795648 359.394921 
Q 330.352679 358.958984 329.694086 358.958984 
Q 328.667523 358.958984 327.950336 360.041796 
L 327.678461 359.948046 
Q 328.205804 358.724609 329.030804 358.110546 
Q 329.855804 357.49414 330.865961 357.49414 
Q 331.897211 357.49414 332.567523 358.124609 
Q 333.237836 358.752734 333.237836 359.596484 
Q 333.237836 360.144921 332.926117 360.655859 
Q 332.616742 361.164452 331.948773 361.551171 
Q 332.806586 361.968359 333.256586 362.580077 
Q 333.706586 363.191796 333.706586 364.115234 
Q 333.706586 365.666796 332.581586 366.75664 
Q 331.458929 367.84414 329.569867 367.84414 
Q 328.308929 367.84414 327.730023 367.424609 
Q 327.312836 367.13164 327.312836 366.672265 
Q 327.312836 366.334765 327.554242 366.098046 
Q 327.795648 365.858984 328.112054 365.858984 
Q 328.353461 365.858984 328.566742 365.959765 
Q 328.683929 366.018359 329.396429 366.601952 
Q 330.111273 367.183202 330.734711 367.183202 
Q 331.276117 367.183202 331.662836 366.75664 
Q 332.051898 366.327734 332.051898 365.666796 
Q 332.051898 364.663671 331.348773 363.817577 
Q 330.645648 362.971484 329.290961 362.65039 
z
M 336.446429 365.373827 
Q 336.959711 365.373827 337.313617 365.734765 
Q 337.669867 366.093359 337.669867 366.597265 
Q 337.669867 367.103515 337.311273 367.459765 
Q 336.952679 367.813671 336.446429 367.813671 
Q 335.940179 367.813671 335.583929 367.459765 
Q 335.230023 367.103515 335.230023 366.597265 
Q 335.230023 366.093359 335.583929 365.734765 
Q 335.940179 365.373827 336.446429 365.373827 
z
M 343.433148 362.019921 
Q 344.480804 362.788671 344.886273 363.451952 
Q 345.294086 364.115234 345.294086 364.973046 
Q 345.294086 366.173046 344.389398 367.005077 
Q 343.484711 367.837109 341.933148 367.837109 
Q 340.461273 367.837109 339.655023 367.11289 
Q 338.848773 366.386327 338.848773 365.338671 
Q 338.848773 364.539452 339.312836 363.939452 
Q 339.779242 363.339452 340.862054 362.840234 
Q 339.683148 361.940234 339.350336 361.368359 
Q 339.017523 360.796484 339.017523 360.041796 
Q 339.017523 359.045702 339.863617 358.288671 
Q 340.709711 357.53164 342.181586 357.53164 
Q 343.601898 357.53164 344.365961 358.201952 
Q 345.132367 358.869921 345.132367 359.807421 
Q 345.132367 360.510546 344.717523 361.049609 
Q 344.305023 361.588671 343.433148 362.019921 
z
M 342.877679 361.647265 
Q 343.147211 361.28164 343.278461 360.826952 
Q 343.412054 360.372265 343.412054 359.830859 
Q 343.412054 358.879296 343.001898 358.373046 
Q 342.694867 357.983984 342.151117 357.983984 
Q 341.661273 357.983984 341.316742 358.340234 
Q 340.972211 358.69414 340.972211 359.221484 
Q 340.972211 359.758202 341.356586 360.332421 
Q 341.740961 360.90664 342.877679 361.647265 
z
M 341.412836 363.191796 
Q 341.185492 363.398046 341.089398 363.566796 
Q 340.944086 363.822265 340.826898 364.314452 
Q 340.709711 364.804296 340.709711 365.338671 
Q 340.709711 366.027734 340.885492 366.491796 
Q 341.061273 366.955859 341.387054 367.162109 
Q 341.712836 367.366015 342.057367 367.366015 
Q 342.591742 367.366015 342.957367 366.974609 
Q 343.322992 366.583202 343.322992 365.901171 
Q 343.322992 364.480859 341.412836 363.191796 
z
" style="fill: #404040; stroke: #ffffff; stroke-width: 3.8"/>
    <path d="M 324.455804 357.49414 
L 324.455804 365.617577 
Q 324.455804 366.53164 324.535492 366.784765 
Q 324.617523 367.03789 324.872992 367.199609 
Q 325.130804 367.358984 325.695648 367.358984 
L 325.920648 367.358984 
L 325.920648 367.630859 
L 320.691742 367.630859 
L 320.691742 367.358984 
L 320.956586 367.358984 
Q 321.594086 367.358984 321.863617 367.213671 
Q 322.135492 367.066015 322.229242 366.810546 
Q 322.325336 366.555077 322.325336 365.617577 
L 322.325336 360.468359 
Q 322.325336 359.779296 322.259711 359.608202 
Q 322.194086 359.434765 322.013617 359.315234 
Q 321.835492 359.193359 321.601117 359.193359 
Q 321.226117 359.193359 320.691742 359.427734 
L 320.560492 359.16289 
L 324.214398 357.49414 
L 324.455804 357.49414 
z
M 329.290961 362.65039 
L 329.290961 362.394921 
Q 330.125336 362.151171 330.446429 361.942577 
Q 330.769867 361.733984 331.004242 361.307421 
Q 331.238617 360.878515 331.238617 360.43789 
Q 331.238617 359.830859 330.795648 359.394921 
Q 330.352679 358.958984 329.694086 358.958984 
Q 328.667523 358.958984 327.950336 360.041796 
L 327.678461 359.948046 
Q 328.205804 358.724609 329.030804 358.110546 
Q 329.855804 357.49414 330.865961 357.49414 
Q 331.897211 357.49414 332.567523 358.124609 
Q 333.237836 358.752734 333.237836 359.596484 
Q 333.237836 360.144921 332.926117 360.655859 
Q 332.616742 361.164452 331.948773 361.551171 
Q 332.806586 361.968359 333.256586 362.580077 
Q 333.706586 363.191796 333.706586 364.115234 
Q 333.706586 365.666796 332.581586 366.75664 
Q 331.458929 367.84414 329.569867 367.84414 
Q 328.308929 367.84414 327.730023 367.424609 
Q 327.312836 367.13164 327.312836 366.672265 
Q 327.312836 366.334765 327.554242 366.098046 
Q 327.795648 365.858984 328.112054 365.858984 
Q 328.353461 365.858984 328.566742 365.959765 
Q 328.683929 366.018359 329.396429 366.601952 
Q 330.111273 367.183202 330.734711 367.183202 
Q 331.276117 367.183202 331.662836 366.75664 
Q 332.051898 366.327734 332.051898 365.666796 
Q 332.051898 364.663671 331.348773 363.817577 
Q 330.645648 362.971484 329.290961 362.65039 
z
M 336.446429 365.373827 
Q 336.959711 365.373827 337.313617 365.734765 
Q 337.669867 366.093359 337.669867 366.597265 
Q 337.669867 367.103515 337.311273 367.459765 
Q 336.952679 367.813671 336.446429 367.813671 
Q 335.940179 367.813671 335.583929 367.459765 
Q 335.230023 367.103515 335.230023 366.597265 
Q 335.230023 366.093359 335.583929 365.734765 
Q 335.940179 365.373827 336.446429 365.373827 
z
M 343.433148 362.019921 
Q 344.480804 362.788671 344.886273 363.451952 
Q 345.294086 364.115234 345.294086 364.973046 
Q 345.294086 366.173046 344.389398 367.005077 
Q 343.484711 367.837109 341.933148 367.837109 
Q 340.461273 367.837109 339.655023 367.11289 
Q 338.848773 366.386327 338.848773 365.338671 
Q 338.848773 364.539452 339.312836 363.939452 
Q 339.779242 363.339452 340.862054 362.840234 
Q 339.683148 361.940234 339.350336 361.368359 
Q 339.017523 360.796484 339.017523 360.041796 
Q 339.017523 359.045702 339.863617 358.288671 
Q 340.709711 357.53164 342.181586 357.53164 
Q 343.601898 357.53164 344.365961 358.201952 
Q 345.132367 358.869921 345.132367 359.807421 
Q 345.132367 360.510546 344.717523 361.049609 
Q 344.305023 361.588671 343.433148 362.019921 
z
M 342.877679 361.647265 
Q 343.147211 361.28164 343.278461 360.826952 
Q 343.412054 360.372265 343.412054 359.830859 
Q 343.412054 358.879296 343.001898 358.373046 
Q 342.694867 357.983984 342.151117 357.983984 
Q 341.661273 357.983984 341.316742 358.340234 
Q 340.972211 358.69414 340.972211 359.221484 
Q 340.972211 359.758202 341.356586 360.332421 
Q 341.740961 360.90664 342.877679 361.647265 
z
M 341.412836 363.191796 
Q 341.185492 363.398046 341.089398 363.566796 
Q 340.944086 363.822265 340.826898 364.314452 
Q 340.709711 364.804296 340.709711 365.338671 
Q 340.709711 366.027734 340.885492 366.491796 
Q 341.061273 366.955859 341.387054 367.162109 
Q 341.712836 367.366015 342.057367 367.366015 
Q 342.591742 367.366015 342.957367 366.974609 
Q 343.322992 366.583202 343.322992 365.901171 
Q 343.322992 364.480859 341.412836 363.191796 
z
" style="fill: #404040"/>
   </g>
  </g>
 </g>
 <defs>
  <clipPath id="pc1e54bd29f">
   <rect x="7.2" y="51.034687" width="730.764" height="431.48"/>
  </clipPath>
 </defs>
</svg>
