<?xml version="1.0" encoding="utf-8" standalone="no"?>
<!DOCTYPE svg PUBLIC "-//W3C//DTD SVG 1.1//EN"
  "http://www.w3.org/Graphics/SVG/1.1/DTD/svg11.dtd">
<svg xmlns:xlink="http://www.w3.org/1999/xlink" width="745.164pt" height="496.162188pt" viewBox="0 0 745.164 496.162188" xmlns="http://www.w3.org/2000/svg" version="1.1">
 <metadata>
  <rdf:RDF xmlns:dc="http://purl.org/dc/elements/1.1/" xmlns:cc="http://creativecommons.org/ns#" xmlns:rdf="http://www.w3.org/1999/02/22-rdf-syntax-ns#">
   <cc:Work>
    <dc:type rdf:resource="http://purl.org/dc/dcmitype/StillImage"/>
    <dc:date>2026-07-13T16:59:01.019533</dc:date>
    <dc:format>image/svg+xml</dc:format>
    <dc:creator>
     <cc:Agent>
      <dc:title>Matplotlib v3.10.8, https://matplotlib.org/</dc:title>
     </cc:Agent>
    </dc:creator>
   </cc:Work>
  </rdf:RDF>
 </metadata>
 <defs>
  <style type="text/css">*{stroke-linejoin: round; stroke-linecap: butt}</style>
 </defs>
 <g id="figure_1">
  <g id="patch_1">
   <path d="M 0 496.162188 
L 745.164 496.162188 
L 745.164 0 
L 0 0 
L 0 496.162188 
z
" style="fill: none"/>
  </g>
  <g id="axes_1">
   <g id="patch_2">
    <path d="M 120.350555 456.342183 
Q 120.350555 467.614646 120.350555 476.686438 
" clip-path="url(#p9f87882f06)" style="fill: none; stroke: #111111; stroke-width: 1.96834; stroke-linejoin: miter; stroke-linecap: round"/>
    <path d="M 123.924424 469.5387 
L 120.350555 476.686438 
L 116.776686 469.5387 
z
" clip-path="url(#p9f87882f06)" style="fill: #111111; stroke: #111111; stroke-width: 1.96834; stroke-linejoin: miter; stroke-linecap: round"/>
   </g>
   <g id="patch_3">
    <path d="M 120.350555 396.174054 
Q 120.350555 411.957777 120.350555 424.802476 
" clip-path="url(#p9f87882f06)" style="fill: none; stroke: #111111; stroke-width: 2.628742; stroke-linejoin: miter; stroke-linecap: round"/>
    <path d="M 124.135752 417.232081 
L 120.350555 424.802476 
L 116.565357 417.232081 
z
" clip-path="url(#p9f87882f06)" style="fill: #111111; stroke: #111111; stroke-width: 2.628742; stroke-linejoin: miter; stroke-linecap: round"/>
   </g>
   <g id="patch_4">
    <path d="M 120.350555 318.162405 
Q 120.350555 338.356628 120.350555 355.090775 
" clip-path="url(#p9f87882f06)" style="fill: none; stroke: #111111; stroke-width: 3.094786; stroke-linejoin: miter; stroke-linecap: round"/>
    <path d="M 124.284886 347.222112 
L 120.350555 355.090775 
L 116.416223 347.222112 
z
" clip-path="url(#p9f87882f06)" style="fill: #111111; stroke: #111111; stroke-width: 3.094786; stroke-linejoin: miter; stroke-linecap: round"/>
   </g>
   <g id="patch_5">
    <path d="M 370.224697 268.17407 
Q 370.224697 289.674839 370.224697 309.347392 
" clip-path="url(#p9f87882f06)" style="fill: none; stroke: #111111; stroke-width: 1.635207; stroke-linejoin: miter; stroke-linecap: round"/>
    <path d="M 373.691963 302.412859 
L 370.224697 309.347392 
L 366.757431 302.412859 
z
" clip-path="url(#p9f87882f06)" style="fill: #111111; stroke: #111111; stroke-width: 1.635207; stroke-linejoin: miter; stroke-linecap: round"/>
   </g>
   <g id="patch_6">
    <path d="M 370.224697 184.973592 
Q 370.224697 202.045183 370.224697 216.087425 
" clip-path="url(#p9f87882f06)" style="fill: none; stroke: #111111; stroke-width: 2.709533; stroke-linejoin: miter; stroke-linecap: round"/>
    <path d="M 374.035747 208.465323 
L 370.224697 216.087425 
L 366.413646 208.465323 
z
" clip-path="url(#p9f87882f06)" style="fill: #111111; stroke: #111111; stroke-width: 2.709533; stroke-linejoin: miter; stroke-linecap: round"/>
   </g>
   <g id="patch_7">
    <path d="M 370.224697 112.334124 
Q 370.224697 128.554388 370.224697 138.290055 
" clip-path="url(#p9f87882f06)" style="fill: none; stroke: #111111; stroke-width: 5.8; stroke-linejoin: miter; stroke-linecap: round"/>
    <path d="M 375.024697 128.690055 
L 370.224697 138.290055 
L 365.424697 128.690055 
z
" clip-path="url(#p9f87882f06)" style="fill: #111111; stroke: #111111; stroke-width: 5.8; stroke-linejoin: miter; stroke-linecap: round"/>
   </g>
   <g id="patch_8">
    <path d="M 586.153672 314.162479 
Q 586.153672 335.299968 586.153672 353.860006 
" clip-path="url(#p9f87882f06)" style="fill: none; stroke: #111111; stroke-width: 2.305343; stroke-linejoin: miter; stroke-linecap: round"/>
    <path d="M 589.835382 346.496587 
L 586.153672 353.860006 
L 582.471963 346.496587 
z
" clip-path="url(#p9f87882f06)" style="fill: #111111; stroke: #111111; stroke-width: 2.305343; stroke-linejoin: miter; stroke-linecap: round"/>
   </g>
   <g id="line2d_1">
    <path d="M 165.610777 478.887109 
L 550.322663 478.887109 
" clip-path="url(#p9f87882f06)" style="fill: none; stroke-dasharray: 5.6,4.2; stroke-dashoffset: 0; stroke: #404040; stroke-width: 1.4"/>
   </g>
   <g id="line2d_2">
    <path d="M 165.610777 427.741499 
L 550.322663 427.741499 
" clip-path="url(#p9f87882f06)" style="fill: none; stroke-dasharray: 5.6,4.2; stroke-dashoffset: 0; stroke: #404040; stroke-width: 1.4"/>
   </g>
   <g id="line2d_3">
    <path d="M 574.838617 356.437458 
L 503.176599 356.437458 
" clip-path="url(#p9f87882f06)" style="fill: none; stroke-dasharray: 5.6,4.2; stroke-dashoffset: 0; stroke: #404040; stroke-width: 1.4"/>
   </g>
   <g id="patch_9">
    <path d="M 665.359061 356.437458 
Q 591.750371 415.779837 518.928474 474.487914 
" clip-path="url(#p9f87882f06)" style="fill: none; stroke: #404040; stroke-width: 0.903939; stroke-linejoin: miter; stroke-linecap: round"/>
    <path d="M 525.121198 473.13652 
L 518.928474 474.487914 
L 521.562993 468.722898 
z
" clip-path="url(#p9f87882f06)" style="fill: #404040; stroke: #404040; stroke-width: 0.903939; stroke-linejoin: miter; stroke-linecap: round"/>
   </g>
   <g id="patch_10">
    <path d="M 620.098839 356.437458 
Q 578.211952 390.206127 538.361833 422.332781 
" clip-path="url(#p9f87882f06)" style="fill: none; stroke: #404040; stroke-width: 2.340024; stroke-linejoin: miter; stroke-linecap: round"/>
    <path d="M 545.60034 420.753173 
L 538.361833 422.332781 
L 541.441251 415.59421 
z
" clip-path="url(#p9f87882f06)" style="fill: #404040; stroke: #404040; stroke-width: 2.340024; stroke-linejoin: miter; stroke-linecap: round"/>
   </g>
   <g id="patch_11">
    <path d="M 415.484919 311.175608 
Q 477.282515 332.815463 536.089366 353.408039 
" clip-path="url(#p9f87882f06)" style="fill: none; stroke: #404040; stroke-width: 2.83427; stroke-linejoin: miter; stroke-linecap: round"/>
    <path d="M 530.673567 347.826403 
L 536.089366 353.408039 
L 528.374578 354.391697 
z
" clip-path="url(#p9f87882f06)" style="fill: #404040; stroke: #404040; stroke-width: 2.83427; stroke-linejoin: miter; stroke-linecap: round"/>
   </g>
   <g id="patch_12">
    <path d="M 370.224697 311.175608 
Q 334.32157 366.934643 299.006913 421.779761 
" clip-path="url(#p9f87882f06)" style="fill: none; stroke: #404040; stroke-width: 0.972231; stroke-linejoin: miter; stroke-linecap: round"/>
    <path d="M 304.503238 418.521788 
L 299.006913 421.779761 
L 299.698329 415.427917 
z
" clip-path="url(#p9f87882f06)" style="fill: #404040; stroke: #404040; stroke-width: 0.972231; stroke-linejoin: miter; stroke-linecap: round"/>
   </g>
   <g id="line2d_4">
    <path d="M 120.350555 427.741499 
L 120.350555 450.286426 
" clip-path="url(#p9f87882f06)" style="fill: none; stroke: #111111; stroke-width: 1.96834"/>
   </g>
   <g id="line2d_5">
    <path d="M 120.350555 358.550851 
L 120.350555 390.118297 
" clip-path="url(#p9f87882f06)" style="fill: none; stroke: #111111; stroke-width: 2.628742"/>
   </g>
   <g id="line2d_6">
    <path d="M 120.350555 271.718202 
L 120.350555 312.106648 
" clip-path="url(#p9f87882f06)" style="fill: none; stroke: #111111; stroke-width: 3.094786"/>
   </g>
   <g id="line2d_7">
    <path d="M 370.224697 219.116775 
L 370.224697 262.118313 
" clip-path="url(#p9f87882f06)" style="fill: none; stroke: #111111; stroke-width: 1.635207"/>
   </g>
   <g id="line2d_8">
    <path d="M 370.224697 144.774652 
L 370.224697 178.917835 
" clip-path="url(#p9f87882f06)" style="fill: none; stroke: #111111; stroke-width: 2.709533"/>
   </g>
   <g id="line2d_9">
    <path d="M 370.224697 73.837839 
L 370.224697 106.278367 
" clip-path="url(#p9f87882f06)" style="fill: none; stroke: #111111; stroke-width: 5.8"/>
   </g>
   <g id="line2d_10">
    <path d="M 586.153672 265.831743 
L 586.153672 308.106722 
" clip-path="url(#p9f87882f06)" style="fill: none; stroke: #111111; stroke-width: 2.305343"/>
   </g>
   <g id="line2d_11">
    <path d="M 75.090333 478.887109 
L 165.610777 478.887109 
" clip-path="url(#p9f87882f06)" style="fill: none; stroke: #111111; stroke-width: 3.6; stroke-linecap: round"/>
   </g>
   <g id="line2d_12">
    <path d="M 75.090333 427.741499 
L 165.610777 427.741499 
" clip-path="url(#p9f87882f06)" style="fill: none; stroke: #111111; stroke-width: 3.6; stroke-linecap: round"/>
   </g>
   <g id="line2d_13">
    <path d="M 75.090333 358.550851 
L 165.610777 358.550851 
" clip-path="url(#p9f87882f06)" style="fill: none; stroke: #111111; stroke-width: 3.6; stroke-linecap: round"/>
   </g>
   <g id="line2d_14">
    <path d="M 75.090333 271.718202 
L 165.610777 271.718202 
" clip-path="url(#p9f87882f06)" style="fill: none; stroke: #111111; stroke-width: 3.6; stroke-linecap: round"/>
   </g>
   <g id="line2d_15">
    <path d="M 324.964475 311.175608 
L 415.484919 311.175608 
" clip-path="url(#p9f87882f06)" style="fill: none; stroke: #111111; stroke-width: 3.6; stroke-linecap: round"/>
   </g>
   <g id="line2d_16">
    <path d="M 324.964475 219.116775 
L 415.484919 219.116775 
" clip-path="url(#p9f87882f06)" style="fill: none; stroke: #111111; stroke-width: 3.6; stroke-linecap: round"/>
   </g>
   <g id="line2d_17">
    <path d="M 324.964475 144.774652 
L 415.484919 144.774652 
" clip-path="url(#p9f87882f06)" style="fill: none; stroke: #111111; stroke-width: 3.6; stroke-linecap: round"/>
   </g>
   <g id="line2d_18">
    <path d="M 324.964475 73.837839 
L 415.484919 73.837839 
" clip-path="url(#p9f87882f06)" style="fill: none; stroke: #111111; stroke-width: 3.6; stroke-linecap: round"/>
   </g>
   <g id="line2d_19">
    <path d="M 574.838617 356.437458 
L 665.359061 356.437458 
" clip-path="url(#p9f87882f06)" style="fill: none; stroke: #111111; stroke-width: 3.6; stroke-linecap: round"/>
   </g>
   <g id="line2d_20">
    <path d="M 574.838617 265.831743 
L 665.359061 265.831743 
" clip-path="url(#p9f87882f06)" style="fill: none; stroke: #111111; stroke-width: 3.6; stroke-linecap: round"/>
   </g>
   <g id="text_1">
    <!-- $^{128}\mathrm{Se}$ -->
    <g transform="translate(327.872 33.034687) scale(0.34 -0.34)">
     <defs>
      <path id="DejaVuSans-31" d="M 794 531 
L 1825 531 
L 1825 4091 
L 703 3866 
L 703 4441 
L 1819 4666 
L 2450 4666 
L 2450 531 
L 3481 531 
L 3481 0 
L 794 0 
L 794 531 
z
" transform="scale(0.015625)"/>
      <path id="DejaVuSans-32" d="M 1228 531 
L 3431 531 
L 3431 0 
L 469 0 
L 469 531 
Q 828 903 1448 1529 
Q 2069 2156 2228 2338 
Q 2531 2678 2651 2914 
Q 2772 3150 2772 3378 
Q 2772 3750 2511 3984 
Q 2250 4219 1831 4219 
Q 1534 4219 1204 4116 
Q 875 4013 500 3803 
L 500 4441 
Q 881 4594 1212 4672 
Q 1544 4750 1819 4750 
Q 2544 4750 2975 4387 
Q 3406 4025 3406 3419 
Q 3406 3131 3298 2873 
Q 3191 2616 2906 2266 
Q 2828 2175 2409 1742 
Q 1991 1309 1228 531 
z
" transform="scale(0.015625)"/>
      <path id="DejaVuSans-38" d="M 2034 2216 
Q 1584 2216 1326 1975 
Q 1069 1734 1069 1313 
Q 1069 891 1326 650 
Q 1584 409 2034 409 
Q 2484 409 2743 651 
Q 3003 894 3003 1313 
Q 3003 1734 2745 1975 
Q 2488 2216 2034 2216 
z
M 1403 2484 
Q 997 2584 770 2862 
Q 544 3141 544 3541 
Q 544 4100 942 4425 
Q 1341 4750 2034 4750 
Q 2731 4750 3128 4425 
Q 3525 4100 3525 3541 
Q 3525 3141 3298 2862 
Q 3072 2584 2669 2484 
Q 3125 2378 3379 2068 
Q 3634 1759 3634 1313 
Q 3634 634 3220 271 
Q 2806 -91 2034 -91 
Q 1263 -91 848 271 
Q 434 634 434 1313 
Q 434 1759 690 2068 
Q 947 2378 1403 2484 
z
M 1172 3481 
Q 1172 3119 1398 2916 
Q 1625 2713 2034 2713 
Q 2441 2713 2670 2916 
Q 2900 3119 2900 3481 
Q 2900 3844 2670 4047 
Q 2441 4250 2034 4250 
Q 1625 4250 1398 4047 
Q 1172 3844 1172 3481 
z
" transform="scale(0.015625)"/>
      <path id="DejaVuSans-53" d="M 3425 4513 
L 3425 3897 
Q 3066 4069 2747 4153 
Q 2428 4238 2131 4238 
Q 1616 4238 1336 4038 
Q 1056 3838 1056 3469 
Q 1056 3159 1242 3001 
Q 1428 2844 1947 2747 
L 2328 2669 
Q 3034 2534 3370 2195 
Q 3706 1856 3706 1288 
Q 3706 609 3251 259 
Q 2797 -91 1919 -91 
Q 1588 -91 1214 -16 
Q 841 59 441 206 
L 441 856 
Q 825 641 1194 531 
Q 1563 422 1919 422 
Q 2459 422 2753 634 
Q 3047 847 3047 1241 
Q 3047 1584 2836 1778 
Q 2625 1972 2144 2069 
L 1759 2144 
Q 1053 2284 737 2584 
Q 422 2884 422 3419 
Q 422 4038 858 4394 
Q 1294 4750 2059 4750 
Q 2388 4750 2728 4690 
Q 3069 4631 3425 4513 
z
" transform="scale(0.015625)"/>
      <path id="DejaVuSans-65" d="M 3597 1894 
L 3597 1613 
L 953 1613 
Q 991 1019 1311 708 
Q 1631 397 2203 397 
Q 2534 397 2845 478 
Q 3156 559 3463 722 
L 3463 178 
Q 3153 47 2828 -22 
Q 2503 -91 2169 -91 
Q 1331 -91 842 396 
Q 353 884 353 1716 
Q 353 2575 817 3079 
Q 1281 3584 2069 3584 
Q 2775 3584 3186 3129 
Q 3597 2675 3597 1894 
z
M 3022 2063 
Q 3016 2534 2758 2815 
Q 2500 3097 2075 3097 
Q 1594 3097 1305 2825 
Q 1016 2553 972 2059 
L 3022 2063 
z
" transform="scale(0.015625)"/>
     </defs>
     <use xlink:href="#DejaVuSans-31" transform="translate(0.957031 39.046875) scale(0.7)"/>
     <use xlink:href="#DejaVuSans-32" transform="translate(45.493164 39.046875) scale(0.7)"/>
     <use xlink:href="#DejaVuSans-38" transform="translate(90.029297 39.046875) scale(0.7)"/>
     <use xlink:href="#DejaVuSans-53" transform="translate(137.299805 0.765625)"/>
     <use xlink:href="#DejaVuSans-65" transform="translate(200.776367 0.765625)"/>
    </g>
   </g>
   <g id="text_2">
    <!-- 0 -->
    <g transform="translate(46.98525 483.302109) scale(0.16 -0.16)">
     <defs>
      <path id="DejaVuSans-BoldOblique-30" d="M 1913 728 
Q 2153 728 2339 872 
Q 2525 1016 2650 1294 
Q 2738 1491 2809 1742 
Q 2881 1994 2944 2338 
Q 2997 2616 3025 2850 
Q 3053 3084 3053 3250 
Q 3053 3600 2928 3764 
Q 2803 3928 2541 3928 
Q 2297 3928 2112 3789 
Q 1928 3650 1806 3366 
Q 1713 3163 1636 2903 
Q 1559 2644 1503 2338 
Q 1450 2056 1422 1815 
Q 1394 1575 1394 1409 
Q 1394 1063 1522 895 
Q 1650 728 1913 728 
z
M 4225 3072 
Q 4225 2450 4053 1862 
Q 3881 1275 3572 831 
Q 3256 375 2809 142 
Q 2363 -91 1813 -91 
Q 1047 -91 639 343 
Q 231 778 231 1594 
Q 231 2206 401 2795 
Q 572 3384 878 3822 
Q 1200 4281 1644 4515 
Q 2088 4750 2644 4750 
Q 3403 4750 3814 4314 
Q 4225 3878 4225 3072 
z
" transform="scale(0.015625)"/>
     </defs>
     <use xlink:href="#DejaVuSans-BoldOblique-30"/>
    </g>
   </g>
   <g id="text_3">
    <!-- 0⁺ -->
    <g transform="translate(182.58336 484.042344) scale(0.23 -0.23)">
     <defs>
      <path id="TimesNewRomanPS-BoldMT-30" d="M 2966 2119 
Q 2966 1484 2788 934 
Q 2681 597 2501 381 
Q 2322 166 2094 39 
Q 1866 -88 1597 -88 
Q 1291 -88 1044 68 
Q 797 225 606 516 
Q 469 728 366 1081 
Q 231 1559 231 2069 
Q 231 2759 425 3338 
Q 584 3816 909 4070 
Q 1234 4325 1597 4325 
Q 1966 4325 2286 4073 
Q 2606 3822 2756 3397 
Q 2966 2813 2966 2119 
z
M 2003 2125 
Q 2003 3238 1991 3422 
Q 1959 3856 1841 4009 
Q 1763 4109 1588 4109 
Q 1453 4109 1375 4034 
Q 1259 3925 1218 3648 
Q 1178 3372 1178 1719 
Q 1178 819 1241 513 
Q 1288 291 1375 216 
Q 1463 141 1606 141 
Q 1763 141 1841 241 
Q 1972 416 1991 781 
L 2003 2125 
z
" transform="scale(0.015625)"/>
      <path id="DejaVuSerif-Bold-207a" d="M 1916 4344 
L 1916 3441 
L 2950 3441 
L 2950 3044 
L 1916 3044 
L 1916 2141 
L 1463 2141 
L 1463 3044 
L 428 3044 
L 428 3441 
L 1463 3441 
L 1463 4344 
L 1916 4344 
z
" transform="scale(0.015625)"/>
     </defs>
     <use xlink:href="#TimesNewRomanPS-BoldMT-30"/>
     <use xlink:href="#DejaVuSerif-Bold-207a" transform="translate(50 0)"/>
    </g>
   </g>
   <g id="text_4">
    <!-- 777 -->
    <g transform="translate(24.72025 432.156499) scale(0.16 -0.16)">
     <defs>
      <path id="DejaVuSans-BoldOblique-37" d="M 922 4666 
L 4441 4666 
L 4300 3981 
L 1703 0 
L 500 0 
L 2969 3781 
L 756 3781 
L 922 4666 
z
" transform="scale(0.015625)"/>
     </defs>
     <use xlink:href="#DejaVuSans-BoldOblique-37"/>
     <use xlink:href="#DejaVuSans-BoldOblique-37" transform="translate(69.580078 0)"/>
     <use xlink:href="#DejaVuSans-BoldOblique-37" transform="translate(139.160156 0)"/>
    </g>
   </g>
   <g id="text_5">
    <!-- 2⁺ -->
    <g transform="translate(182.58336 432.896734) scale(0.23 -0.23)">
     <defs>
      <path id="TimesNewRomanPS-BoldMT-32" d="M 2650 0 
L 156 0 
L 156 69 
Q 1303 1434 1548 1906 
Q 1794 2378 1794 2828 
Q 1794 3156 1591 3373 
Q 1388 3591 1094 3591 
Q 613 3591 347 3109 
L 231 3150 
Q 400 3750 744 4037 
Q 1088 4325 1538 4325 
Q 1859 4325 2125 4175 
Q 2391 4025 2541 3764 
Q 2691 3503 2691 3275 
Q 2691 2859 2459 2431 
Q 2144 1853 1081 819 
L 1997 819 
Q 2334 819 2436 847 
Q 2538 875 2603 942 
Q 2669 1009 2775 1225 
L 2888 1225 
L 2650 0 
z
" transform="scale(0.015625)"/>
     </defs>
     <use xlink:href="#TimesNewRomanPS-BoldMT-32"/>
     <use xlink:href="#DejaVuSerif-Bold-207a" transform="translate(50 0)"/>
    </g>
   </g>
   <g id="text_6">
    <!-- 1828 -->
    <g transform="translate(13.58775 362.965851) scale(0.16 -0.16)">
     <defs>
      <path id="DejaVuSans-BoldOblique-31" d="M 441 831 
L 1503 831 
L 2088 3847 
L 953 3622 
L 1113 4441 
L 2241 4666 
L 3384 4666 
L 2644 831 
L 3700 831 
L 3541 0 
L 275 0 
L 441 831 
z
" transform="scale(0.015625)"/>
      <path id="DejaVuSans-BoldOblique-38" d="M 2150 2088 
Q 1784 2088 1539 1839 
Q 1294 1591 1294 1228 
Q 1294 969 1453 817 
Q 1613 666 1888 666 
Q 2259 666 2503 911 
Q 2747 1156 2747 1522 
Q 2747 1781 2586 1934 
Q 2425 2088 2150 2088 
z
M 1381 2484 
Q 1044 2625 876 2850 
Q 709 3075 709 3391 
Q 709 4025 1229 4387 
Q 1750 4750 2669 4750 
Q 3406 4750 3812 4475 
Q 4219 4200 4219 3700 
Q 4219 3256 3936 2940 
Q 3653 2625 3128 2484 
Q 3509 2338 3690 2091 
Q 3872 1844 3872 1466 
Q 3872 747 3311 328 
Q 2750 -91 1772 -91 
Q 1000 -91 570 217 
Q 141 525 141 1075 
Q 141 1572 470 1945 
Q 800 2319 1381 2484 
z
M 2559 3994 
Q 2241 3994 2048 3808 
Q 1856 3622 1856 3316 
Q 1856 3103 1995 2972 
Q 2134 2841 2363 2841 
Q 2681 2841 2873 3027 
Q 3066 3213 3066 3519 
Q 3066 3734 2927 3864 
Q 2788 3994 2559 3994 
z
" transform="scale(0.015625)"/>
      <path id="DejaVuSans-BoldOblique-32" d="M 1581 884 
L 3609 884 
L 3438 0 
L 50 0 
L 225 891 
L 2209 2388 
Q 2534 2638 2704 2894 
Q 2875 3150 2875 3391 
Q 2875 3647 2700 3787 
Q 2525 3928 2209 3928 
Q 1913 3928 1547 3811 
Q 1181 3694 722 3450 
L 922 4441 
Q 1347 4597 1756 4673 
Q 2166 4750 2566 4750 
Q 3278 4750 3687 4442 
Q 4097 4134 4097 3603 
Q 4097 3147 3847 2772 
Q 3597 2397 2747 1759 
L 1581 884 
z
" transform="scale(0.015625)"/>
     </defs>
     <use xlink:href="#DejaVuSans-BoldOblique-31"/>
     <use xlink:href="#DejaVuSans-BoldOblique-38" transform="translate(69.580078 0)"/>
     <use xlink:href="#DejaVuSans-BoldOblique-32" transform="translate(139.160156 0)"/>
     <use xlink:href="#DejaVuSans-BoldOblique-38" transform="translate(208.740234 0)"/>
    </g>
   </g>
   <g id="text_7">
    <!-- 4⁺ -->
    <g transform="translate(182.58336 363.706086) scale(0.23 -0.23)">
     <defs>
      <path id="TimesNewRomanPS-BoldMT-34" d="M 159 1597 
L 2172 4325 
L 2553 4325 
L 2553 1597 
L 2941 1597 
L 2941 950 
L 2553 950 
L 2553 0 
L 1694 0 
L 1694 950 
L 159 950 
L 159 1597 
z
M 463 1597 
L 1694 1597 
L 1694 3269 
L 463 1597 
z
" transform="scale(0.015625)"/>
     </defs>
     <use xlink:href="#TimesNewRomanPS-BoldMT-34"/>
     <use xlink:href="#DejaVuSerif-Bold-207a" transform="translate(50 0)"/>
    </g>
   </g>
   <g id="text_8">
    <!-- 3147 -->
    <g transform="translate(13.58775 276.133202) scale(0.16 -0.16)">
     <defs>
      <path id="DejaVuSans-BoldOblique-33" d="M 3022 2516 
Q 3375 2434 3572 2187 
Q 3769 1941 3769 1581 
Q 3769 806 3155 357 
Q 2541 -91 1466 -91 
Q 1059 -91 692 -33 
Q 325 25 0 141 
L 178 1069 
Q 456 906 784 817 
Q 1113 728 1441 728 
Q 1969 728 2276 926 
Q 2584 1125 2584 1459 
Q 2584 1738 2350 1877 
Q 2116 2016 1644 2016 
L 1166 2016 
L 1319 2791 
L 1825 2791 
Q 2316 2791 2602 2969 
Q 2888 3147 2888 3450 
Q 2888 3688 2689 3813 
Q 2491 3938 2113 3938 
Q 1847 3938 1534 3869 
Q 1222 3800 884 3669 
L 1056 4550 
Q 1425 4650 1783 4700 
Q 2141 4750 2491 4750 
Q 3281 4750 3679 4487 
Q 4078 4225 4078 3706 
Q 4078 3241 3801 2930 
Q 3525 2619 3022 2516 
z
" transform="scale(0.015625)"/>
      <path id="DejaVuSans-BoldOblique-34" d="M 2638 3641 
L 978 1722 
L 2259 1722 
L 2638 3641 
z
M 2606 4666 
L 3975 4666 
L 3397 1722 
L 4063 1722 
L 3897 850 
L 3231 850 
L 3066 0 
L 1925 0 
L 2094 850 
L -6 850 
L 197 1881 
L 2606 4666 
z
" transform="scale(0.015625)"/>
     </defs>
     <use xlink:href="#DejaVuSans-BoldOblique-33"/>
     <use xlink:href="#DejaVuSans-BoldOblique-31" transform="translate(69.580078 0)"/>
     <use xlink:href="#DejaVuSans-BoldOblique-34" transform="translate(139.160156 0)"/>
     <use xlink:href="#DejaVuSans-BoldOblique-37" transform="translate(208.740234 0)"/>
    </g>
   </g>
   <g id="text_9">
    <!-- 6⁺ -->
    <g transform="translate(182.58336 276.873437) scale(0.23 -0.23)">
     <defs>
      <path id="TimesNewRomanPS-BoldMT-36" d="M 3006 4325 
L 3006 4238 
Q 2441 4094 2098 3867 
Q 1756 3641 1557 3317 
Q 1359 2994 1250 2516 
Q 1388 2609 1478 2638 
Q 1681 2700 1888 2700 
Q 2363 2700 2680 2354 
Q 2997 2009 2997 1413 
Q 2997 994 2825 644 
Q 2653 294 2337 103 
Q 2022 -88 1663 -88 
Q 1272 -88 940 126 
Q 609 341 423 753 
Q 238 1166 238 1650 
Q 238 2363 580 2977 
Q 922 3591 1551 3955 
Q 2181 4319 3006 4325 
z
M 1209 2263 
Q 1184 1831 1184 1631 
Q 1184 1200 1267 797 
Q 1350 394 1494 231 
Q 1597 116 1738 116 
Q 1881 116 1993 283 
Q 2106 450 2106 963 
Q 2106 1825 1897 2153 
Q 1763 2366 1534 2366 
Q 1409 2366 1209 2263 
z
" transform="scale(0.015625)"/>
     </defs>
     <use xlink:href="#TimesNewRomanPS-BoldMT-36"/>
     <use xlink:href="#DejaVuSerif-Bold-207a" transform="translate(50 0)"/>
    </g>
   </g>
   <g id="text_10">
    <!-- 2548 -->
    <g transform="translate(263.461892 315.590608) scale(0.16 -0.16)">
     <defs>
      <path id="DejaVuSans-BoldOblique-35" d="M 1131 4666 
L 4122 4666 
L 3950 3781 
L 1919 3781 
L 1778 3059 
Q 1916 3097 2064 3117 
Q 2213 3138 2363 3138 
Q 3078 3138 3481 2811 
Q 3884 2484 3884 1906 
Q 3884 988 3262 448 
Q 2641 -91 1575 -91 
Q 1184 -91 815 -14 
Q 447 63 84 219 
L 269 1166 
Q 616 941 942 834 
Q 1269 728 1606 728 
Q 2100 728 2397 986 
Q 2694 1244 2694 1663 
Q 2694 1963 2469 2139 
Q 2244 2316 1856 2316 
Q 1594 2316 1289 2248 
Q 984 2181 622 2041 
L 1131 4666 
z
" transform="scale(0.015625)"/>
     </defs>
     <use xlink:href="#DejaVuSans-BoldOblique-32"/>
     <use xlink:href="#DejaVuSans-BoldOblique-35" transform="translate(69.580078 0)"/>
     <use xlink:href="#DejaVuSans-BoldOblique-34" transform="translate(139.160156 0)"/>
     <use xlink:href="#DejaVuSans-BoldOblique-38" transform="translate(208.740234 0)"/>
    </g>
   </g>
   <g id="text_11">
    <!-- 0⁺ -->
    <g transform="translate(432.457502 316.330843) scale(0.23 -0.23)">
     <use xlink:href="#TimesNewRomanPS-BoldMT-30"/>
     <use xlink:href="#DejaVuSerif-Bold-207a" transform="translate(50 0)"/>
    </g>
   </g>
   <g id="text_12">
    <!-- 3946 -->
    <g transform="translate(263.461892 223.531775) scale(0.16 -0.16)">
     <defs>
      <path id="DejaVuSans-BoldOblique-39" d="M 263 103 
L 428 966 
Q 700 825 953 758 
Q 1206 691 1459 691 
Q 2041 691 2400 1003 
Q 2759 1316 2834 1881 
Q 2594 1722 2337 1645 
Q 2081 1569 1791 1569 
Q 1219 1569 853 1909 
Q 488 2250 488 2778 
Q 488 3641 1052 4192 
Q 1616 4744 2503 4744 
Q 3300 4744 3736 4292 
Q 4172 3841 4172 3016 
Q 4172 2381 3978 1801 
Q 3784 1222 3431 800 
Q 3056 353 2548 128 
Q 2041 -97 1403 -97 
Q 1106 -97 825 -47 
Q 544 3 263 103 
z
M 2169 2344 
Q 2525 2344 2753 2637 
Q 2981 2931 2981 3391 
Q 2981 3675 2845 3828 
Q 2709 3981 2456 3981 
Q 2103 3981 1870 3690 
Q 1638 3400 1638 2963 
Q 1638 2663 1775 2503 
Q 1913 2344 2169 2344 
z
" transform="scale(0.015625)"/>
      <path id="DejaVuSans-BoldOblique-36" d="M 2316 2303 
Q 1959 2303 1731 2009 
Q 1503 1716 1503 1253 
Q 1503 975 1643 820 
Q 1784 666 2034 666 
Q 2388 666 2617 955 
Q 2847 1244 2847 1684 
Q 2847 1984 2709 2143 
Q 2572 2303 2316 2303 
z
M 4225 4544 
L 4056 3681 
Q 3788 3819 3534 3887 
Q 3281 3956 3028 3956 
Q 2447 3956 2087 3643 
Q 1728 3331 1650 2766 
Q 1894 2925 2151 3001 
Q 2409 3078 2700 3078 
Q 3275 3078 3640 2737 
Q 4006 2397 4006 1869 
Q 4006 1006 3442 454 
Q 2878 -97 1991 -97 
Q 1194 -97 756 354 
Q 319 806 319 1631 
Q 319 2269 512 2848 
Q 706 3428 1056 3847 
Q 1431 4294 1942 4519 
Q 2453 4744 3091 4744 
Q 3384 4744 3662 4694 
Q 3941 4644 4225 4544 
z
" transform="scale(0.015625)"/>
     </defs>
     <use xlink:href="#DejaVuSans-BoldOblique-33"/>
     <use xlink:href="#DejaVuSans-BoldOblique-39" transform="translate(69.580078 0)"/>
     <use xlink:href="#DejaVuSans-BoldOblique-34" transform="translate(139.160156 0)"/>
     <use xlink:href="#DejaVuSans-BoldOblique-36" transform="translate(208.740234 0)"/>
    </g>
   </g>
   <g id="text_13">
    <!-- 2⁺ -->
    <g transform="translate(432.457502 224.272009) scale(0.23 -0.23)">
     <use xlink:href="#TimesNewRomanPS-BoldMT-32"/>
     <use xlink:href="#DejaVuSerif-Bold-207a" transform="translate(50 0)"/>
    </g>
   </g>
   <g id="text_14">
    <!-- 5076 -->
    <g transform="translate(263.461892 149.189652) scale(0.16 -0.16)">
     <use xlink:href="#DejaVuSans-BoldOblique-35"/>
     <use xlink:href="#DejaVuSans-BoldOblique-30" transform="translate(69.580078 0)"/>
     <use xlink:href="#DejaVuSans-BoldOblique-37" transform="translate(139.160156 0)"/>
     <use xlink:href="#DejaVuSans-BoldOblique-36" transform="translate(208.740234 0)"/>
    </g>
   </g>
   <g id="text_15">
    <!-- 4⁺ -->
    <g transform="translate(432.457502 149.929886) scale(0.23 -0.23)">
     <use xlink:href="#TimesNewRomanPS-BoldMT-34"/>
     <use xlink:href="#DejaVuSerif-Bold-207a" transform="translate(50 0)"/>
    </g>
   </g>
   <g id="text_16">
    <!-- 6154 -->
    <g transform="translate(263.461892 78.252839) scale(0.16 -0.16)">
     <use xlink:href="#DejaVuSans-BoldOblique-36"/>
     <use xlink:href="#DejaVuSans-BoldOblique-31" transform="translate(69.580078 0)"/>
     <use xlink:href="#DejaVuSans-BoldOblique-35" transform="translate(139.160156 0)"/>
     <use xlink:href="#DejaVuSans-BoldOblique-34" transform="translate(208.740234 0)"/>
    </g>
   </g>
   <g id="text_17">
    <!-- 6⁺ -->
    <g transform="translate(432.457502 78.993074) scale(0.23 -0.23)">
     <use xlink:href="#TimesNewRomanPS-BoldMT-36"/>
     <use xlink:href="#DejaVuSerif-Bold-207a" transform="translate(50 0)"/>
    </g>
   </g>
   <g id="text_18">
    <!-- 1860 -->
    <g transform="translate(513.336034 360.852458) scale(0.16 -0.16)">
     <use xlink:href="#DejaVuSans-BoldOblique-31"/>
     <use xlink:href="#DejaVuSans-BoldOblique-38" transform="translate(69.580078 0)"/>
     <use xlink:href="#DejaVuSans-BoldOblique-36" transform="translate(139.160156 0)"/>
     <use xlink:href="#DejaVuSans-BoldOblique-30" transform="translate(208.740234 0)"/>
    </g>
   </g>
   <g id="text_19">
    <!-- 2⁺ -->
    <g transform="translate(682.331644 361.592692) scale(0.23 -0.23)">
     <use xlink:href="#TimesNewRomanPS-BoldMT-32"/>
     <use xlink:href="#DejaVuSerif-Bold-207a" transform="translate(50 0)"/>
    </g>
   </g>
   <g id="text_20">
    <!-- 3237 -->
    <g transform="translate(513.336034 270.246743) scale(0.16 -0.16)">
     <use xlink:href="#DejaVuSans-BoldOblique-33"/>
     <use xlink:href="#DejaVuSans-BoldOblique-32" transform="translate(69.580078 0)"/>
     <use xlink:href="#DejaVuSans-BoldOblique-33" transform="translate(139.160156 0)"/>
     <use xlink:href="#DejaVuSans-BoldOblique-37" transform="translate(208.740234 0)"/>
    </g>
   </g>
   <g id="text_21">
    <!-- 3⁺ -->
    <g transform="translate(682.331644 270.986977) scale(0.23 -0.23)">
     <defs>
      <path id="TimesNewRomanPS-BoldMT-33" d="M 947 2125 
L 947 2234 
Q 1303 2338 1440 2427 
Q 1578 2516 1678 2698 
Q 1778 2881 1778 3069 
Q 1778 3328 1589 3514 
Q 1400 3700 1119 3700 
Q 681 3700 375 3238 
L 259 3278 
Q 484 3800 836 4062 
Q 1188 4325 1619 4325 
Q 2059 4325 2345 4056 
Q 2631 3788 2631 3428 
Q 2631 3194 2498 2976 
Q 2366 2759 2081 2594 
Q 2447 2416 2639 2155 
Q 2831 1894 2831 1500 
Q 2831 838 2351 373 
Q 1872 -91 1066 -91 
Q 528 -91 281 88 
Q 103 213 103 409 
Q 103 553 206 654 
Q 309 756 444 756 
Q 547 756 638 713 
Q 688 688 992 439 
Q 1297 191 1563 191 
Q 1794 191 1959 373 
Q 2125 556 2125 838 
Q 2125 1266 1825 1627 
Q 1525 1988 947 2125 
z
" transform="scale(0.015625)"/>
     </defs>
     <use xlink:href="#TimesNewRomanPS-BoldMT-33"/>
     <use xlink:href="#DejaVuSerif-Bold-207a" transform="translate(50 0)"/>
    </g>
   </g>
   <g id="text_22">
    <path d="M 111.560555 446.088054 
L 111.560555 454.753054 
Q 111.560555 455.728054 111.645555 455.998054 
Q 111.733055 456.268054 112.005555 456.440554 
Q 112.280555 456.610554 112.883055 456.610554 
L 113.123055 456.610554 
L 113.123055 456.900554 
L 107.545555 456.900554 
L 107.545555 456.610554 
L 107.828055 456.610554 
Q 108.508055 456.610554 108.795555 456.455554 
Q 109.085555 456.298054 109.185555 456.025554 
Q 109.288055 455.753054 109.288055 454.753054 
L 109.288055 449.260554 
Q 109.288055 448.525554 109.218055 448.343054 
Q 109.148055 448.158054 108.955555 448.030554 
Q 108.765555 447.900554 108.515555 447.900554 
Q 108.115555 447.900554 107.545555 448.150554 
L 107.405555 447.868054 
L 111.303055 446.088054 
L 111.560555 446.088054 
z
M 117.185555 457.120554 
L 120.070555 448.378054 
L 117.873055 448.378054 
Q 116.585555 448.378054 115.935555 448.713054 
Q 115.483055 448.948054 115.185555 449.595554 
L 114.890555 449.595554 
L 115.655555 446.305554 
L 121.968055 446.305554 
L 118.413055 457.120554 
L 117.185555 457.120554 
z
M 124.350555 454.493054 
Q 124.898055 454.493054 125.275555 454.878054 
Q 125.655555 455.260554 125.655555 455.798054 
Q 125.655555 456.338054 125.273055 456.718054 
Q 124.890555 457.095554 124.350555 457.095554 
Q 123.810555 457.095554 123.430555 456.718054 
Q 123.053055 456.338054 123.053055 455.798054 
Q 123.053055 455.260554 123.430555 454.878054 
Q 123.810555 454.493054 124.350555 454.493054 
z
M 126.748055 452.908054 
L 131.780555 446.088054 
L 132.733055 446.088054 
L 132.733055 452.908054 
L 133.703055 452.908054 
L 133.703055 454.525554 
L 132.733055 454.525554 
L 132.733055 456.900554 
L 130.585555 456.900554 
L 130.585555 454.525554 
L 126.748055 454.525554 
L 126.748055 452.908054 
z
M 127.508055 452.908054 
L 130.585555 452.908054 
L 130.585555 448.728054 
L 127.508055 452.908054 
z
" style="stroke: #ffffff; stroke-width: 3.8"/>
    <path d="M 111.560555 446.088054 
L 111.560555 454.753054 
Q 111.560555 455.728054 111.645555 455.998054 
Q 111.733055 456.268054 112.005555 456.440554 
Q 112.280555 456.610554 112.883055 456.610554 
L 113.123055 456.610554 
L 113.123055 456.900554 
L 107.545555 456.900554 
L 107.545555 456.610554 
L 107.828055 456.610554 
Q 108.508055 456.610554 108.795555 456.455554 
Q 109.085555 456.298054 109.185555 456.025554 
Q 109.288055 455.753054 109.288055 454.753054 
L 109.288055 449.260554 
Q 109.288055 448.525554 109.218055 448.343054 
Q 109.148055 448.158054 108.955555 448.030554 
Q 108.765555 447.900554 108.515555 447.900554 
Q 108.115555 447.900554 107.545555 448.150554 
L 107.405555 447.868054 
L 111.303055 446.088054 
L 111.560555 446.088054 
z
M 117.185555 457.120554 
L 120.070555 448.378054 
L 117.873055 448.378054 
Q 116.585555 448.378054 115.935555 448.713054 
Q 115.483055 448.948054 115.185555 449.595554 
L 114.890555 449.595554 
L 115.655555 446.305554 
L 121.968055 446.305554 
L 118.413055 457.120554 
L 117.185555 457.120554 
z
M 124.350555 454.493054 
Q 124.898055 454.493054 125.275555 454.878054 
Q 125.655555 455.260554 125.655555 455.798054 
Q 125.655555 456.338054 125.273055 456.718054 
Q 124.890555 457.095554 124.350555 457.095554 
Q 123.810555 457.095554 123.430555 456.718054 
Q 123.053055 456.338054 123.053055 455.798054 
Q 123.053055 455.260554 123.430555 454.878054 
Q 123.810555 454.493054 124.350555 454.493054 
z
M 126.748055 452.908054 
L 131.780555 446.088054 
L 132.733055 446.088054 
L 132.733055 452.908054 
L 133.703055 452.908054 
L 133.703055 454.525554 
L 132.733055 454.525554 
L 132.733055 456.900554 
L 130.585555 456.900554 
L 130.585555 454.525554 
L 126.748055 454.525554 
L 126.748055 452.908054 
z
M 127.508055 452.908054 
L 130.585555 452.908054 
L 130.585555 448.728054 
L 127.508055 452.908054 
z
"/>
   </g>
   <g id="text_23">
    <path d="M 112.975555 396.732425 
L 106.740555 396.732425 
L 106.740555 396.559925 
Q 109.608055 393.147425 110.220555 391.967425 
Q 110.835555 390.787425 110.835555 389.662425 
Q 110.835555 388.842425 110.328055 388.299925 
Q 109.820555 387.754925 109.085555 387.754925 
Q 107.883055 387.754925 107.218055 388.959925 
L 106.928055 388.857425 
Q 107.350555 387.357425 108.210555 386.639925 
Q 109.070555 385.919925 110.195555 385.919925 
Q 110.998055 385.919925 111.663055 386.294925 
Q 112.328055 386.669925 112.703055 387.322425 
Q 113.078055 387.974925 113.078055 388.544925 
Q 113.078055 389.584925 112.498055 390.654925 
Q 111.710555 392.099925 109.053055 394.684925 
L 111.343055 394.684925 
Q 112.185555 394.684925 112.440555 394.614925 
Q 112.695555 394.544925 112.858055 394.377425 
Q 113.023055 394.209925 113.288055 393.669925 
L 113.570555 393.669925 
L 112.975555 396.732425 
z
M 117.185555 396.952425 
L 120.070555 388.209925 
L 117.873055 388.209925 
Q 116.585555 388.209925 115.935555 388.544925 
Q 115.483055 388.779925 115.185555 389.427425 
L 114.890555 389.427425 
L 115.655555 386.137425 
L 121.968055 386.137425 
L 118.413055 396.952425 
L 117.185555 396.952425 
z
M 124.350555 394.324925 
Q 124.898055 394.324925 125.275555 394.709925 
Q 125.655555 395.092425 125.655555 395.629925 
Q 125.655555 396.169925 125.273055 396.549925 
Q 124.890555 396.927425 124.350555 396.927425 
Q 123.810555 396.927425 123.430555 396.549925 
Q 123.053055 396.169925 123.053055 395.629925 
Q 123.053055 395.092425 123.430555 394.709925 
Q 123.810555 394.324925 124.350555 394.324925 
z
M 132.975555 396.732425 
L 126.740555 396.732425 
L 126.740555 396.559925 
Q 129.608055 393.147425 130.220555 391.967425 
Q 130.835555 390.787425 130.835555 389.662425 
Q 130.835555 388.842425 130.328055 388.299925 
Q 129.820555 387.754925 129.085555 387.754925 
Q 127.883055 387.754925 127.218055 388.959925 
L 126.928055 388.857425 
Q 127.350555 387.357425 128.210555 386.639925 
Q 129.070555 385.919925 130.195555 385.919925 
Q 130.998055 385.919925 131.663055 386.294925 
Q 132.328055 386.669925 132.703055 387.322425 
Q 133.078055 387.974925 133.078055 388.544925 
Q 133.078055 389.584925 132.498055 390.654925 
Q 131.710555 392.099925 129.053055 394.684925 
L 131.343055 394.684925 
Q 132.185555 394.684925 132.440555 394.614925 
Q 132.695555 394.544925 132.858055 394.377425 
Q 133.023055 394.209925 133.288055 393.669925 
L 133.570555 393.669925 
L 132.975555 396.732425 
z
" style="stroke: #ffffff; stroke-width: 3.8"/>
    <path d="M 112.975555 396.732425 
L 106.740555 396.732425 
L 106.740555 396.559925 
Q 109.608055 393.147425 110.220555 391.967425 
Q 110.835555 390.787425 110.835555 389.662425 
Q 110.835555 388.842425 110.328055 388.299925 
Q 109.820555 387.754925 109.085555 387.754925 
Q 107.883055 387.754925 107.218055 388.959925 
L 106.928055 388.857425 
Q 107.350555 387.357425 108.210555 386.639925 
Q 109.070555 385.919925 110.195555 385.919925 
Q 110.998055 385.919925 111.663055 386.294925 
Q 112.328055 386.669925 112.703055 387.322425 
Q 113.078055 387.974925 113.078055 388.544925 
Q 113.078055 389.584925 112.498055 390.654925 
Q 111.710555 392.099925 109.053055 394.684925 
L 111.343055 394.684925 
Q 112.185555 394.684925 112.440555 394.614925 
Q 112.695555 394.544925 112.858055 394.377425 
Q 113.023055 394.209925 113.288055 393.669925 
L 113.570555 393.669925 
L 112.975555 396.732425 
z
M 117.185555 396.952425 
L 120.070555 388.209925 
L 117.873055 388.209925 
Q 116.585555 388.209925 115.935555 388.544925 
Q 115.483055 388.779925 115.185555 389.427425 
L 114.890555 389.427425 
L 115.655555 386.137425 
L 121.968055 386.137425 
L 118.413055 396.952425 
L 117.185555 396.952425 
z
M 124.350555 394.324925 
Q 124.898055 394.324925 125.275555 394.709925 
Q 125.655555 395.092425 125.655555 395.629925 
Q 125.655555 396.169925 125.273055 396.549925 
Q 124.890555 396.927425 124.350555 396.927425 
Q 123.810555 396.927425 123.430555 396.549925 
Q 123.053055 396.169925 123.053055 395.629925 
Q 123.053055 395.092425 123.430555 394.709925 
Q 123.810555 394.324925 124.350555 394.324925 
z
M 132.975555 396.732425 
L 126.740555 396.732425 
L 126.740555 396.559925 
Q 129.608055 393.147425 130.220555 391.967425 
Q 130.835555 390.787425 130.835555 389.662425 
Q 130.835555 388.842425 130.328055 388.299925 
Q 129.820555 387.754925 129.085555 387.754925 
Q 127.883055 387.754925 127.218055 388.959925 
L 126.928055 388.857425 
Q 127.350555 387.357425 128.210555 386.639925 
Q 129.070555 385.919925 130.195555 385.919925 
Q 130.998055 385.919925 131.663055 386.294925 
Q 132.328055 386.669925 132.703055 387.322425 
Q 133.078055 387.974925 133.078055 388.544925 
Q 133.078055 389.584925 132.498055 390.654925 
Q 131.710555 392.099925 129.053055 394.684925 
L 131.343055 394.684925 
Q 132.185555 394.684925 132.440555 394.614925 
Q 132.695555 394.544925 132.858055 394.377425 
Q 133.023055 394.209925 133.288055 393.669925 
L 133.570555 393.669925 
L 132.975555 396.732425 
z
"/>
   </g>
   <g id="text_24">
    <path d="M 108.718055 313.408277 
L 108.718055 313.135777 
Q 109.608055 312.875777 109.950555 312.653277 
Q 110.295555 312.430777 110.545555 311.975777 
Q 110.795555 311.518277 110.795555 311.048277 
Q 110.795555 310.400777 110.323055 309.935777 
Q 109.850555 309.470777 109.148055 309.470777 
Q 108.053055 309.470777 107.288055 310.625777 
L 106.998055 310.525777 
Q 107.560555 309.220777 108.440555 308.565777 
Q 109.320555 307.908277 110.398055 307.908277 
Q 111.498055 307.908277 112.213055 308.580777 
Q 112.928055 309.250777 112.928055 310.150777 
Q 112.928055 310.735777 112.595555 311.280777 
Q 112.265555 311.823277 111.553055 312.235777 
Q 112.468055 312.680777 112.948055 313.333277 
Q 113.428055 313.985777 113.428055 314.970777 
Q 113.428055 316.625777 112.228055 317.788277 
Q 111.030555 318.948277 109.015555 318.948277 
Q 107.670555 318.948277 107.053055 318.500777 
Q 106.608055 318.188277 106.608055 317.698277 
Q 106.608055 317.338277 106.865555 317.085777 
Q 107.123055 316.830777 107.460555 316.830777 
Q 107.718055 316.830777 107.945555 316.938277 
Q 108.070555 317.000777 108.830555 317.623277 
Q 109.593055 318.243277 110.258055 318.243277 
Q 110.835555 318.243277 111.248055 317.788277 
Q 111.663055 317.330777 111.663055 316.625777 
Q 111.663055 315.555777 110.913055 314.653277 
Q 110.163055 313.750777 108.718055 313.408277 
z
M 114.748055 314.728277 
L 119.780555 307.908277 
L 120.733055 307.908277 
L 120.733055 314.728277 
L 121.703055 314.728277 
L 121.703055 316.345777 
L 120.733055 316.345777 
L 120.733055 318.720777 
L 118.585555 318.720777 
L 118.585555 316.345777 
L 114.748055 316.345777 
L 114.748055 314.728277 
z
M 115.508055 314.728277 
L 118.585555 314.728277 
L 118.585555 310.548277 
L 115.508055 314.728277 
z
M 124.350555 316.313277 
Q 124.898055 316.313277 125.275555 316.698277 
Q 125.655555 317.080777 125.655555 317.618277 
Q 125.655555 318.158277 125.273055 318.538277 
Q 124.890555 318.915777 124.350555 318.915777 
Q 123.810555 318.915777 123.430555 318.538277 
Q 123.053055 318.158277 123.053055 317.618277 
Q 123.053055 317.080777 123.430555 316.698277 
Q 123.810555 316.313277 124.350555 316.313277 
z
M 132.975555 318.720777 
L 126.740555 318.720777 
L 126.740555 318.548277 
Q 129.608055 315.135777 130.220555 313.955777 
Q 130.835555 312.775777 130.835555 311.650777 
Q 130.835555 310.830777 130.328055 310.288277 
Q 129.820555 309.743277 129.085555 309.743277 
Q 127.883055 309.743277 127.218055 310.948277 
L 126.928055 310.845777 
Q 127.350555 309.345777 128.210555 308.628277 
Q 129.070555 307.908277 130.195555 307.908277 
Q 130.998055 307.908277 131.663055 308.283277 
Q 132.328055 308.658277 132.703055 309.310777 
Q 133.078055 309.963277 133.078055 310.533277 
Q 133.078055 311.573277 132.498055 312.643277 
Q 131.710555 314.088277 129.053055 316.673277 
L 131.343055 316.673277 
Q 132.185555 316.673277 132.440555 316.603277 
Q 132.695555 316.533277 132.858055 316.365777 
Q 133.023055 316.198277 133.288055 315.658277 
L 133.570555 315.658277 
L 132.975555 318.720777 
z
" style="stroke: #ffffff; stroke-width: 3.8"/>
    <path d="M 108.718055 313.408277 
L 108.718055 313.135777 
Q 109.608055 312.875777 109.950555 312.653277 
Q 110.295555 312.430777 110.545555 311.975777 
Q 110.795555 311.518277 110.795555 311.048277 
Q 110.795555 310.400777 110.323055 309.935777 
Q 109.850555 309.470777 109.148055 309.470777 
Q 108.053055 309.470777 107.288055 310.625777 
L 106.998055 310.525777 
Q 107.560555 309.220777 108.440555 308.565777 
Q 109.320555 307.908277 110.398055 307.908277 
Q 111.498055 307.908277 112.213055 308.580777 
Q 112.928055 309.250777 112.928055 310.150777 
Q 112.928055 310.735777 112.595555 311.280777 
Q 112.265555 311.823277 111.553055 312.235777 
Q 112.468055 312.680777 112.948055 313.333277 
Q 113.428055 313.985777 113.428055 314.970777 
Q 113.428055 316.625777 112.228055 317.788277 
Q 111.030555 318.948277 109.015555 318.948277 
Q 107.670555 318.948277 107.053055 318.500777 
Q 106.608055 318.188277 106.608055 317.698277 
Q 106.608055 317.338277 106.865555 317.085777 
Q 107.123055 316.830777 107.460555 316.830777 
Q 107.718055 316.830777 107.945555 316.938277 
Q 108.070555 317.000777 108.830555 317.623277 
Q 109.593055 318.243277 110.258055 318.243277 
Q 110.835555 318.243277 111.248055 317.788277 
Q 111.663055 317.330777 111.663055 316.625777 
Q 111.663055 315.555777 110.913055 314.653277 
Q 110.163055 313.750777 108.718055 313.408277 
z
M 114.748055 314.728277 
L 119.780555 307.908277 
L 120.733055 307.908277 
L 120.733055 314.728277 
L 121.703055 314.728277 
L 121.703055 316.345777 
L 120.733055 316.345777 
L 120.733055 318.720777 
L 118.585555 318.720777 
L 118.585555 316.345777 
L 114.748055 316.345777 
L 114.748055 314.728277 
z
M 115.508055 314.728277 
L 118.585555 314.728277 
L 118.585555 310.548277 
L 115.508055 314.728277 
z
M 124.350555 316.313277 
Q 124.898055 316.313277 125.275555 316.698277 
Q 125.655555 317.080777 125.655555 317.618277 
Q 125.655555 318.158277 125.273055 318.538277 
Q 124.890555 318.915777 124.350555 318.915777 
Q 123.810555 318.915777 123.430555 318.538277 
Q 123.053055 318.158277 123.053055 317.618277 
Q 123.053055 317.080777 123.430555 316.698277 
Q 123.810555 316.313277 124.350555 316.313277 
z
M 132.975555 318.720777 
L 126.740555 318.720777 
L 126.740555 318.548277 
Q 129.608055 315.135777 130.220555 313.955777 
Q 130.835555 312.775777 130.835555 311.650777 
Q 130.835555 310.830777 130.328055 310.288277 
Q 129.820555 309.743277 129.085555 309.743277 
Q 127.883055 309.743277 127.218055 310.948277 
L 126.928055 310.845777 
Q 127.350555 309.345777 128.210555 308.628277 
Q 129.070555 307.908277 130.195555 307.908277 
Q 130.998055 307.908277 131.663055 308.283277 
Q 132.328055 308.658277 132.703055 309.310777 
Q 133.078055 309.963277 133.078055 310.533277 
Q 133.078055 311.573277 132.498055 312.643277 
Q 131.710555 314.088277 129.053055 316.673277 
L 131.343055 316.673277 
Q 132.185555 316.673277 132.440555 316.603277 
Q 132.695555 316.533277 132.858055 316.365777 
Q 133.023055 316.198277 133.288055 315.658277 
L 133.570555 315.658277 
L 132.975555 318.720777 
z
"/>
   </g>
   <g id="text_25">
    <path d="M 361.434697 257.919941 
L 361.434697 266.584941 
Q 361.434697 267.559941 361.519697 267.829941 
Q 361.607197 268.099941 361.879697 268.272441 
Q 362.154697 268.442441 362.757197 268.442441 
L 362.997197 268.442441 
L 362.997197 268.732441 
L 357.419697 268.732441 
L 357.419697 268.442441 
L 357.702197 268.442441 
Q 358.382197 268.442441 358.669697 268.287441 
Q 358.959697 268.129941 359.059697 267.857441 
Q 359.162197 267.584941 359.162197 266.584941 
L 359.162197 261.092441 
Q 359.162197 260.357441 359.092197 260.174941 
Q 359.022197 259.989941 358.829697 259.862441 
Q 358.639697 259.732441 358.389697 259.732441 
Q 357.989697 259.732441 357.419697 259.982441 
L 357.279697 259.699941 
L 361.177197 257.919941 
L 361.434697 257.919941 
z
M 370.849697 268.732441 
L 364.614697 268.732441 
L 364.614697 268.559941 
Q 367.482197 265.147441 368.094697 263.967441 
Q 368.709697 262.787441 368.709697 261.662441 
Q 368.709697 260.842441 368.202197 260.299941 
Q 367.694697 259.754941 366.959697 259.754941 
Q 365.757197 259.754941 365.092197 260.959941 
L 364.802197 260.857441 
Q 365.224697 259.357441 366.084697 258.639941 
Q 366.944697 257.919941 368.069697 257.919941 
Q 368.872197 257.919941 369.537197 258.294941 
Q 370.202197 258.669941 370.577197 259.322441 
Q 370.952197 259.974941 370.952197 260.544941 
Q 370.952197 261.584941 370.372197 262.654941 
Q 369.584697 264.099941 366.927197 266.684941 
L 369.217197 266.684941 
Q 370.059697 266.684941 370.314697 266.614941 
Q 370.569697 266.544941 370.732197 266.377441 
Q 370.897197 266.209941 371.162197 265.669941 
L 371.444697 265.669941 
L 370.849697 268.732441 
z
M 374.224697 266.324941 
Q 374.772197 266.324941 375.149697 266.709941 
Q 375.529697 267.092441 375.529697 267.629941 
Q 375.529697 268.169941 375.147197 268.549941 
Q 374.764697 268.927441 374.224697 268.927441 
Q 373.684697 268.927441 373.304697 268.549941 
Q 372.927197 268.169941 372.927197 267.629941 
Q 372.927197 267.092441 373.304697 266.709941 
Q 373.684697 266.324941 374.224697 266.324941 
z
M 376.622197 264.739941 
L 381.654697 257.919941 
L 382.607197 257.919941 
L 382.607197 264.739941 
L 383.577197 264.739941 
L 383.577197 266.357441 
L 382.607197 266.357441 
L 382.607197 268.732441 
L 380.459697 268.732441 
L 380.459697 266.357441 
L 376.622197 266.357441 
L 376.622197 264.739941 
z
M 377.382197 264.739941 
L 380.459697 264.739941 
L 380.459697 260.559941 
L 377.382197 264.739941 
z
" style="stroke: #ffffff; stroke-width: 3.8"/>
    <path d="M 361.434697 257.919941 
L 361.434697 266.584941 
Q 361.434697 267.559941 361.519697 267.829941 
Q 361.607197 268.099941 361.879697 268.272441 
Q 362.154697 268.442441 362.757197 268.442441 
L 362.997197 268.442441 
L 362.997197 268.732441 
L 357.419697 268.732441 
L 357.419697 268.442441 
L 357.702197 268.442441 
Q 358.382197 268.442441 358.669697 268.287441 
Q 358.959697 268.129941 359.059697 267.857441 
Q 359.162197 267.584941 359.162197 266.584941 
L 359.162197 261.092441 
Q 359.162197 260.357441 359.092197 260.174941 
Q 359.022197 259.989941 358.829697 259.862441 
Q 358.639697 259.732441 358.389697 259.732441 
Q 357.989697 259.732441 357.419697 259.982441 
L 357.279697 259.699941 
L 361.177197 257.919941 
L 361.434697 257.919941 
z
M 370.849697 268.732441 
L 364.614697 268.732441 
L 364.614697 268.559941 
Q 367.482197 265.147441 368.094697 263.967441 
Q 368.709697 262.787441 368.709697 261.662441 
Q 368.709697 260.842441 368.202197 260.299941 
Q 367.694697 259.754941 366.959697 259.754941 
Q 365.757197 259.754941 365.092197 260.959941 
L 364.802197 260.857441 
Q 365.224697 259.357441 366.084697 258.639941 
Q 366.944697 257.919941 368.069697 257.919941 
Q 368.872197 257.919941 369.537197 258.294941 
Q 370.202197 258.669941 370.577197 259.322441 
Q 370.952197 259.974941 370.952197 260.544941 
Q 370.952197 261.584941 370.372197 262.654941 
Q 369.584697 264.099941 366.927197 266.684941 
L 369.217197 266.684941 
Q 370.059697 266.684941 370.314697 266.614941 
Q 370.569697 266.544941 370.732197 266.377441 
Q 370.897197 266.209941 371.162197 265.669941 
L 371.444697 265.669941 
L 370.849697 268.732441 
z
M 374.224697 266.324941 
Q 374.772197 266.324941 375.149697 266.709941 
Q 375.529697 267.092441 375.529697 267.629941 
Q 375.529697 268.169941 375.147197 268.549941 
Q 374.764697 268.927441 374.224697 268.927441 
Q 373.684697 268.927441 373.304697 268.549941 
Q 372.927197 268.169941 372.927197 267.629941 
Q 372.927197 267.092441 373.304697 266.709941 
Q 373.684697 266.324941 374.224697 266.324941 
z
M 376.622197 264.739941 
L 381.654697 257.919941 
L 382.607197 257.919941 
L 382.607197 264.739941 
L 383.577197 264.739941 
L 383.577197 266.357441 
L 382.607197 266.357441 
L 382.607197 268.732441 
L 380.459697 268.732441 
L 380.459697 266.357441 
L 376.622197 266.357441 
L 376.622197 264.739941 
z
M 377.382197 264.739941 
L 380.459697 264.739941 
L 380.459697 260.559941 
L 377.382197 264.739941 
z
"/>
   </g>
   <g id="text_26">
    <path d="M 362.849697 185.531963 
L 356.614697 185.531963 
L 356.614697 185.359463 
Q 359.482197 181.946963 360.094697 180.766963 
Q 360.709697 179.586963 360.709697 178.461963 
Q 360.709697 177.641963 360.202197 177.099463 
Q 359.694697 176.554463 358.959697 176.554463 
Q 357.757197 176.554463 357.092197 177.759463 
L 356.802197 177.656963 
Q 357.224697 176.156963 358.084697 175.439463 
Q 358.944697 174.719463 360.069697 174.719463 
Q 360.872197 174.719463 361.537197 175.094463 
Q 362.202197 175.469463 362.577197 176.121963 
Q 362.952197 176.774463 362.952197 177.344463 
Q 362.952197 178.384463 362.372197 179.454463 
Q 361.584697 180.899463 358.927197 183.484463 
L 361.217197 183.484463 
Q 362.059697 183.484463 362.314697 183.414463 
Q 362.569697 183.344463 362.732197 183.176963 
Q 362.897197 183.009463 363.162197 182.469463 
L 363.444697 182.469463 
L 362.849697 185.531963 
z
M 369.677197 179.546963 
Q 370.794697 180.366963 371.227197 181.074463 
Q 371.662197 181.781963 371.662197 182.696963 
Q 371.662197 183.976963 370.697197 184.864463 
Q 369.732197 185.751963 368.077197 185.751963 
Q 366.507197 185.751963 365.647197 184.979463 
Q 364.787197 184.204463 364.787197 183.086963 
Q 364.787197 182.234463 365.282197 181.594463 
Q 365.779697 180.954463 366.934697 180.421963 
Q 365.677197 179.461963 365.322197 178.851963 
Q 364.967197 178.241963 364.967197 177.436963 
Q 364.967197 176.374463 365.869697 175.566963 
Q 366.772197 174.759463 368.342197 174.759463 
Q 369.857197 174.759463 370.672197 175.474463 
Q 371.489697 176.186963 371.489697 177.186963 
Q 371.489697 177.936963 371.047197 178.511963 
Q 370.607197 179.086963 369.677197 179.546963 
z
M 369.084697 179.149463 
Q 369.372197 178.759463 369.512197 178.274463 
Q 369.654697 177.789463 369.654697 177.211963 
Q 369.654697 176.196963 369.217197 175.656963 
Q 368.889697 175.241963 368.309697 175.241963 
Q 367.787197 175.241963 367.419697 175.621963 
Q 367.052197 175.999463 367.052197 176.561963 
Q 367.052197 177.134463 367.462197 177.746963 
Q 367.872197 178.359463 369.084697 179.149463 
z
M 367.522197 180.796963 
Q 367.279697 181.016963 367.177197 181.196963 
Q 367.022197 181.469463 366.897197 181.994463 
Q 366.772197 182.516963 366.772197 183.086963 
Q 366.772197 183.821963 366.959697 184.316963 
Q 367.147197 184.811963 367.494697 185.031963 
Q 367.842197 185.249463 368.209697 185.249463 
Q 368.779697 185.249463 369.169697 184.831963 
Q 369.559697 184.414463 369.559697 183.686963 
Q 369.559697 182.171963 367.522197 180.796963 
z
M 374.224697 183.124463 
Q 374.772197 183.124463 375.149697 183.509463 
Q 375.529697 183.891963 375.529697 184.429463 
Q 375.529697 184.969463 375.147197 185.349463 
Q 374.764697 185.726963 374.224697 185.726963 
Q 373.684697 185.726963 373.304697 185.349463 
Q 372.927197 184.969463 372.927197 184.429463 
Q 372.927197 183.891963 373.304697 183.509463 
Q 373.684697 183.124463 374.224697 183.124463 
z
M 376.622197 181.539463 
L 381.654697 174.719463 
L 382.607197 174.719463 
L 382.607197 181.539463 
L 383.577197 181.539463 
L 383.577197 183.156963 
L 382.607197 183.156963 
L 382.607197 185.531963 
L 380.459697 185.531963 
L 380.459697 183.156963 
L 376.622197 183.156963 
L 376.622197 181.539463 
z
M 377.382197 181.539463 
L 380.459697 181.539463 
L 380.459697 177.359463 
L 377.382197 181.539463 
z
" style="stroke: #ffffff; stroke-width: 3.8"/>
    <path d="M 362.849697 185.531963 
L 356.614697 185.531963 
L 356.614697 185.359463 
Q 359.482197 181.946963 360.094697 180.766963 
Q 360.709697 179.586963 360.709697 178.461963 
Q 360.709697 177.641963 360.202197 177.099463 
Q 359.694697 176.554463 358.959697 176.554463 
Q 357.757197 176.554463 357.092197 177.759463 
L 356.802197 177.656963 
Q 357.224697 176.156963 358.084697 175.439463 
Q 358.944697 174.719463 360.069697 174.719463 
Q 360.872197 174.719463 361.537197 175.094463 
Q 362.202197 175.469463 362.577197 176.121963 
Q 362.952197 176.774463 362.952197 177.344463 
Q 362.952197 178.384463 362.372197 179.454463 
Q 361.584697 180.899463 358.927197 183.484463 
L 361.217197 183.484463 
Q 362.059697 183.484463 362.314697 183.414463 
Q 362.569697 183.344463 362.732197 183.176963 
Q 362.897197 183.009463 363.162197 182.469463 
L 363.444697 182.469463 
L 362.849697 185.531963 
z
M 369.677197 179.546963 
Q 370.794697 180.366963 371.227197 181.074463 
Q 371.662197 181.781963 371.662197 182.696963 
Q 371.662197 183.976963 370.697197 184.864463 
Q 369.732197 185.751963 368.077197 185.751963 
Q 366.507197 185.751963 365.647197 184.979463 
Q 364.787197 184.204463 364.787197 183.086963 
Q 364.787197 182.234463 365.282197 181.594463 
Q 365.779697 180.954463 366.934697 180.421963 
Q 365.677197 179.461963 365.322197 178.851963 
Q 364.967197 178.241963 364.967197 177.436963 
Q 364.967197 176.374463 365.869697 175.566963 
Q 366.772197 174.759463 368.342197 174.759463 
Q 369.857197 174.759463 370.672197 175.474463 
Q 371.489697 176.186963 371.489697 177.186963 
Q 371.489697 177.936963 371.047197 178.511963 
Q 370.607197 179.086963 369.677197 179.546963 
z
M 369.084697 179.149463 
Q 369.372197 178.759463 369.512197 178.274463 
Q 369.654697 177.789463 369.654697 177.211963 
Q 369.654697 176.196963 369.217197 175.656963 
Q 368.889697 175.241963 368.309697 175.241963 
Q 367.787197 175.241963 367.419697 175.621963 
Q 367.052197 175.999463 367.052197 176.561963 
Q 367.052197 177.134463 367.462197 177.746963 
Q 367.872197 178.359463 369.084697 179.149463 
z
M 367.522197 180.796963 
Q 367.279697 181.016963 367.177197 181.196963 
Q 367.022197 181.469463 366.897197 181.994463 
Q 366.772197 182.516963 366.772197 183.086963 
Q 366.772197 183.821963 366.959697 184.316963 
Q 367.147197 184.811963 367.494697 185.031963 
Q 367.842197 185.249463 368.209697 185.249463 
Q 368.779697 185.249463 369.169697 184.831963 
Q 369.559697 184.414463 369.559697 183.686963 
Q 369.559697 182.171963 367.522197 180.796963 
z
M 374.224697 183.124463 
Q 374.772197 183.124463 375.149697 183.509463 
Q 375.529697 183.891963 375.529697 184.429463 
Q 375.529697 184.969463 375.147197 185.349463 
Q 374.764697 185.726963 374.224697 185.726963 
Q 373.684697 185.726963 373.304697 185.349463 
Q 372.927197 184.969463 372.927197 184.429463 
Q 372.927197 183.891963 373.304697 183.509463 
Q 373.684697 183.124463 374.224697 183.124463 
z
M 376.622197 181.539463 
L 381.654697 174.719463 
L 382.607197 174.719463 
L 382.607197 181.539463 
L 383.577197 181.539463 
L 383.577197 183.156963 
L 382.607197 183.156963 
L 382.607197 185.531963 
L 380.459697 185.531963 
L 380.459697 183.156963 
L 376.622197 183.156963 
L 376.622197 181.539463 
z
M 377.382197 181.539463 
L 380.459697 181.539463 
L 380.459697 177.359463 
L 377.382197 181.539463 
z
"/>
   </g>
   <g id="text_27">
    <path d="M 359.059697 113.112496 
L 361.944697 104.369996 
L 359.747197 104.369996 
Q 358.459697 104.369996 357.809697 104.704996 
Q 357.357197 104.939996 357.059697 105.587496 
L 356.764697 105.587496 
L 357.529697 102.297496 
L 363.842197 102.297496 
L 360.287197 113.112496 
L 359.059697 113.112496 
z
M 364.622197 108.899996 
L 369.654697 102.079996 
L 370.607197 102.079996 
L 370.607197 108.899996 
L 371.577197 108.899996 
L 371.577197 110.517496 
L 370.607197 110.517496 
L 370.607197 112.892496 
L 368.459697 112.892496 
L 368.459697 110.517496 
L 364.622197 110.517496 
L 364.622197 108.899996 
z
M 365.382197 108.899996 
L 368.459697 108.899996 
L 368.459697 104.719996 
L 365.382197 108.899996 
z
M 374.224697 110.484996 
Q 374.772197 110.484996 375.149697 110.869996 
Q 375.529697 111.252496 375.529697 111.789996 
Q 375.529697 112.329996 375.147197 112.709996 
Q 374.764697 113.087496 374.224697 113.087496 
Q 373.684697 113.087496 373.304697 112.709996 
Q 372.927197 112.329996 372.927197 111.789996 
Q 372.927197 111.252496 373.304697 110.869996 
Q 373.684697 110.484996 374.224697 110.484996 
z
M 378.662197 102.297496 
L 383.622197 102.297496 
L 382.834697 104.314996 
L 378.662197 104.314996 
L 378.264697 105.369996 
Q 380.959697 105.469996 382.412197 106.712496 
Q 383.607197 107.734996 383.607197 109.259996 
Q 383.607197 110.234996 383.052197 111.169996 
Q 382.497197 112.102496 381.489697 112.607496 
Q 380.482197 113.112496 379.279697 113.112496 
Q 377.982197 113.112496 377.287197 112.627496 
Q 376.802197 112.282496 376.802197 111.844996 
Q 376.802197 111.509996 377.054697 111.252496 
Q 377.309697 110.994996 377.647197 110.994996 
Q 377.952197 110.994996 378.264697 111.119996 
Q 378.577197 111.244996 379.334697 111.774996 
Q 379.809697 112.102496 380.154697 112.227496 
Q 380.397197 112.322496 380.702197 112.322496 
Q 381.342197 112.322496 381.789697 111.854996 
Q 382.239697 111.384996 382.239697 110.727496 
Q 382.239697 109.352496 380.864697 108.494996 
Q 379.489697 107.634996 377.397197 107.634996 
Q 377.184697 107.634996 376.764697 107.642496 
L 378.662197 102.297496 
z
" style="stroke: #ffffff; stroke-width: 3.8"/>
    <path d="M 359.059697 113.112496 
L 361.944697 104.369996 
L 359.747197 104.369996 
Q 358.459697 104.369996 357.809697 104.704996 
Q 357.357197 104.939996 357.059697 105.587496 
L 356.764697 105.587496 
L 357.529697 102.297496 
L 363.842197 102.297496 
L 360.287197 113.112496 
L 359.059697 113.112496 
z
M 364.622197 108.899996 
L 369.654697 102.079996 
L 370.607197 102.079996 
L 370.607197 108.899996 
L 371.577197 108.899996 
L 371.577197 110.517496 
L 370.607197 110.517496 
L 370.607197 112.892496 
L 368.459697 112.892496 
L 368.459697 110.517496 
L 364.622197 110.517496 
L 364.622197 108.899996 
z
M 365.382197 108.899996 
L 368.459697 108.899996 
L 368.459697 104.719996 
L 365.382197 108.899996 
z
M 374.224697 110.484996 
Q 374.772197 110.484996 375.149697 110.869996 
Q 375.529697 111.252496 375.529697 111.789996 
Q 375.529697 112.329996 375.147197 112.709996 
Q 374.764697 113.087496 374.224697 113.087496 
Q 373.684697 113.087496 373.304697 112.709996 
Q 372.927197 112.329996 372.927197 111.789996 
Q 372.927197 111.252496 373.304697 110.869996 
Q 373.684697 110.484996 374.224697 110.484996 
z
M 378.662197 102.297496 
L 383.622197 102.297496 
L 382.834697 104.314996 
L 378.662197 104.314996 
L 378.264697 105.369996 
Q 380.959697 105.469996 382.412197 106.712496 
Q 383.607197 107.734996 383.607197 109.259996 
Q 383.607197 110.234996 383.052197 111.169996 
Q 382.497197 112.102496 381.489697 112.607496 
Q 380.482197 113.112496 379.279697 113.112496 
Q 377.982197 113.112496 377.287197 112.627496 
Q 376.802197 112.282496 376.802197 111.844996 
Q 376.802197 111.509996 377.054697 111.252496 
Q 377.309697 110.994996 377.647197 110.994996 
Q 377.952197 110.994996 378.264697 111.119996 
Q 378.577197 111.244996 379.334697 111.774996 
Q 379.809697 112.102496 380.154697 112.227496 
Q 380.397197 112.322496 380.702197 112.322496 
Q 381.342197 112.322496 381.789697 111.854996 
Q 382.239697 111.384996 382.239697 110.727496 
Q 382.239697 109.352496 380.864697 108.494996 
Q 379.489697 107.634996 377.397197 107.634996 
Q 377.184697 107.634996 376.764697 107.642496 
L 378.662197 102.297496 
z
"/>
   </g>
   <g id="text_28">
    <path d="M 578.778672 314.72085 
L 572.543672 314.72085 
L 572.543672 314.54835 
Q 575.411172 311.13585 576.023672 309.95585 
Q 576.638672 308.77585 576.638672 307.65085 
Q 576.638672 306.83085 576.131172 306.28835 
Q 575.623672 305.74335 574.888672 305.74335 
Q 573.686172 305.74335 573.021172 306.94835 
L 572.731172 306.84585 
Q 573.153672 305.34585 574.013672 304.62835 
Q 574.873672 303.90835 575.998672 303.90835 
Q 576.801172 303.90835 577.466172 304.28335 
Q 578.131172 304.65835 578.506172 305.31085 
Q 578.881172 305.96335 578.881172 306.53335 
Q 578.881172 307.57335 578.301172 308.64335 
Q 577.513672 310.08835 574.856172 312.67335 
L 577.146172 312.67335 
Q 577.988672 312.67335 578.243672 312.60335 
Q 578.498672 312.53335 578.661172 312.36585 
Q 578.826172 312.19835 579.091172 311.65835 
L 579.373672 311.65835 
L 578.778672 314.72085 
z
M 586.778672 314.72085 
L 580.543672 314.72085 
L 580.543672 314.54835 
Q 583.411172 311.13585 584.023672 309.95585 
Q 584.638672 308.77585 584.638672 307.65085 
Q 584.638672 306.83085 584.131172 306.28835 
Q 583.623672 305.74335 582.888672 305.74335 
Q 581.686172 305.74335 581.021172 306.94835 
L 580.731172 306.84585 
Q 581.153672 305.34585 582.013672 304.62835 
Q 582.873672 303.90835 583.998672 303.90835 
Q 584.801172 303.90835 585.466172 304.28335 
Q 586.131172 304.65835 586.506172 305.31085 
Q 586.881172 305.96335 586.881172 306.53335 
Q 586.881172 307.57335 586.301172 308.64335 
Q 585.513672 310.08835 582.856172 312.67335 
L 585.146172 312.67335 
Q 585.988672 312.67335 586.243672 312.60335 
Q 586.498672 312.53335 586.661172 312.36585 
Q 586.826172 312.19835 587.091172 311.65835 
L 587.373672 311.65835 
L 586.778672 314.72085 
z
M 590.153672 312.31335 
Q 590.701172 312.31335 591.078672 312.69835 
Q 591.458672 313.08085 591.458672 313.61835 
Q 591.458672 314.15835 591.076172 314.53835 
Q 590.693672 314.91585 590.153672 314.91585 
Q 589.613672 314.91585 589.233672 314.53835 
Q 588.856172 314.15835 588.856172 313.61835 
Q 588.856172 313.08085 589.233672 312.69835 
Q 589.613672 312.31335 590.153672 312.31335 
z
M 592.551172 310.72835 
L 597.583672 303.90835 
L 598.536172 303.90835 
L 598.536172 310.72835 
L 599.506172 310.72835 
L 599.506172 312.34585 
L 598.536172 312.34585 
L 598.536172 314.72085 
L 596.388672 314.72085 
L 596.388672 312.34585 
L 592.551172 312.34585 
L 592.551172 310.72835 
z
M 593.311172 310.72835 
L 596.388672 310.72835 
L 596.388672 306.54835 
L 593.311172 310.72835 
z
" style="stroke: #ffffff; stroke-width: 3.8"/>
    <path d="M 578.778672 314.72085 
L 572.543672 314.72085 
L 572.543672 314.54835 
Q 575.411172 311.13585 576.023672 309.95585 
Q 576.638672 308.77585 576.638672 307.65085 
Q 576.638672 306.83085 576.131172 306.28835 
Q 575.623672 305.74335 574.888672 305.74335 
Q 573.686172 305.74335 573.021172 306.94835 
L 572.731172 306.84585 
Q 573.153672 305.34585 574.013672 304.62835 
Q 574.873672 303.90835 575.998672 303.90835 
Q 576.801172 303.90835 577.466172 304.28335 
Q 578.131172 304.65835 578.506172 305.31085 
Q 578.881172 305.96335 578.881172 306.53335 
Q 578.881172 307.57335 578.301172 308.64335 
Q 577.513672 310.08835 574.856172 312.67335 
L 577.146172 312.67335 
Q 577.988672 312.67335 578.243672 312.60335 
Q 578.498672 312.53335 578.661172 312.36585 
Q 578.826172 312.19835 579.091172 311.65835 
L 579.373672 311.65835 
L 578.778672 314.72085 
z
M 586.778672 314.72085 
L 580.543672 314.72085 
L 580.543672 314.54835 
Q 583.411172 311.13585 584.023672 309.95585 
Q 584.638672 308.77585 584.638672 307.65085 
Q 584.638672 306.83085 584.131172 306.28835 
Q 583.623672 305.74335 582.888672 305.74335 
Q 581.686172 305.74335 581.021172 306.94835 
L 580.731172 306.84585 
Q 581.153672 305.34585 582.013672 304.62835 
Q 582.873672 303.90835 583.998672 303.90835 
Q 584.801172 303.90835 585.466172 304.28335 
Q 586.131172 304.65835 586.506172 305.31085 
Q 586.881172 305.96335 586.881172 306.53335 
Q 586.881172 307.57335 586.301172 308.64335 
Q 585.513672 310.08835 582.856172 312.67335 
L 585.146172 312.67335 
Q 585.988672 312.67335 586.243672 312.60335 
Q 586.498672 312.53335 586.661172 312.36585 
Q 586.826172 312.19835 587.091172 311.65835 
L 587.373672 311.65835 
L 586.778672 314.72085 
z
M 590.153672 312.31335 
Q 590.701172 312.31335 591.078672 312.69835 
Q 591.458672 313.08085 591.458672 313.61835 
Q 591.458672 314.15835 591.076172 314.53835 
Q 590.693672 314.91585 590.153672 314.91585 
Q 589.613672 314.91585 589.233672 314.53835 
Q 588.856172 314.15835 588.856172 313.61835 
Q 588.856172 313.08085 589.233672 312.69835 
Q 589.613672 312.31335 590.153672 312.31335 
z
M 592.551172 310.72835 
L 597.583672 303.90835 
L 598.536172 303.90835 
L 598.536172 310.72835 
L 599.506172 310.72835 
L 599.506172 312.34585 
L 598.536172 312.34585 
L 598.536172 314.72085 
L 596.388672 314.72085 
L 596.388672 312.34585 
L 592.551172 312.34585 
L 592.551172 310.72835 
z
M 593.311172 310.72835 
L 596.388672 310.72835 
L 596.388672 306.54835 
L 593.311172 310.72835 
z
"/>
   </g>
   <g id="text_29">
    <path d="M 584.924746 415.495316 
L 584.924746 423.618753 
Q 584.924746 424.532816 585.004434 424.785941 
Q 585.086465 425.039066 585.341934 425.200784 
Q 585.599746 425.360159 586.16459 425.360159 
L 586.38959 425.360159 
L 586.38959 425.632034 
L 581.160684 425.632034 
L 581.160684 425.360159 
L 581.425527 425.360159 
Q 582.063027 425.360159 582.332559 425.214847 
Q 582.604434 425.067191 582.698184 424.811722 
Q 582.794277 424.556253 582.794277 423.618753 
L 582.794277 418.469534 
Q 582.794277 417.780472 582.728652 417.609378 
Q 582.663027 417.435941 582.482559 417.316409 
Q 582.304434 417.194534 582.070059 417.194534 
Q 581.695059 417.194534 581.160684 417.428909 
L 581.029434 417.164066 
L 584.68334 415.495316 
L 584.924746 415.495316 
z
M 589.415371 423.375003 
Q 589.928652 423.375003 590.282559 423.735941 
Q 590.638809 424.094534 590.638809 424.598441 
Q 590.638809 425.104691 590.280215 425.460941 
Q 589.921621 425.814847 589.415371 425.814847 
Q 588.909121 425.814847 588.552871 425.460941 
Q 588.198965 425.104691 588.198965 424.598441 
Q 588.198965 424.094534 588.552871 423.735941 
Q 588.909121 423.375003 589.415371 423.375003 
z
M 596.40209 420.021097 
Q 597.449746 420.789847 597.855215 421.453128 
Q 598.263027 422.116409 598.263027 422.974222 
Q 598.263027 424.174222 597.35834 425.006253 
Q 596.453652 425.838284 594.90209 425.838284 
Q 593.430215 425.838284 592.623965 425.114066 
Q 591.817715 424.387503 591.817715 423.339847 
Q 591.817715 422.540628 592.281777 421.940628 
Q 592.748184 421.340628 593.830996 420.841409 
Q 592.65209 419.941409 592.319277 419.369534 
Q 591.986465 418.797659 591.986465 418.042972 
Q 591.986465 417.046878 592.832559 416.289847 
Q 593.678652 415.532816 595.150527 415.532816 
Q 596.57084 415.532816 597.334902 416.203128 
Q 598.101309 416.871097 598.101309 417.808597 
Q 598.101309 418.511722 597.686465 419.050784 
Q 597.273965 419.589847 596.40209 420.021097 
z
M 595.846621 419.648441 
Q 596.116152 419.282816 596.247402 418.828128 
Q 596.380996 418.373441 596.380996 417.832034 
Q 596.380996 416.880472 595.97084 416.374222 
Q 595.663809 415.985159 595.120059 415.985159 
Q 594.630215 415.985159 594.285684 416.341409 
Q 593.941152 416.695316 593.941152 417.222659 
Q 593.941152 417.759378 594.325527 418.333597 
Q 594.709902 418.907816 595.846621 419.648441 
z
M 594.381777 421.192972 
Q 594.154434 421.399222 594.05834 421.567972 
Q 593.913027 421.823441 593.79584 422.315628 
Q 593.678652 422.805472 593.678652 423.339847 
Q 593.678652 424.028909 593.854434 424.492972 
Q 594.030215 424.957034 594.355996 425.163284 
Q 594.681777 425.367191 595.026309 425.367191 
Q 595.560684 425.367191 595.926309 424.975784 
Q 596.291934 424.584378 596.291934 423.902347 
Q 596.291934 422.482034 594.381777 421.192972 
z
" style="fill: #404040; stroke: #ffffff; stroke-width: 3.8"/>
    <path d="M 584.924746 415.495316 
L 584.924746 423.618753 
Q 584.924746 424.532816 585.004434 424.785941 
Q 585.086465 425.039066 585.341934 425.200784 
Q 585.599746 425.360159 586.16459 425.360159 
L 586.38959 425.360159 
L 586.38959 425.632034 
L 581.160684 425.632034 
L 581.160684 425.360159 
L 581.425527 425.360159 
Q 582.063027 425.360159 582.332559 425.214847 
Q 582.604434 425.067191 582.698184 424.811722 
Q 582.794277 424.556253 582.794277 423.618753 
L 582.794277 418.469534 
Q 582.794277 417.780472 582.728652 417.609378 
Q 582.663027 417.435941 582.482559 417.316409 
Q 582.304434 417.194534 582.070059 417.194534 
Q 581.695059 417.194534 581.160684 417.428909 
L 581.029434 417.164066 
L 584.68334 415.495316 
L 584.924746 415.495316 
z
M 589.415371 423.375003 
Q 589.928652 423.375003 590.282559 423.735941 
Q 590.638809 424.094534 590.638809 424.598441 
Q 590.638809 425.104691 590.280215 425.460941 
Q 589.921621 425.814847 589.415371 425.814847 
Q 588.909121 425.814847 588.552871 425.460941 
Q 588.198965 425.104691 588.198965 424.598441 
Q 588.198965 424.094534 588.552871 423.735941 
Q 588.909121 423.375003 589.415371 423.375003 
z
M 596.40209 420.021097 
Q 597.449746 420.789847 597.855215 421.453128 
Q 598.263027 422.116409 598.263027 422.974222 
Q 598.263027 424.174222 597.35834 425.006253 
Q 596.453652 425.838284 594.90209 425.838284 
Q 593.430215 425.838284 592.623965 425.114066 
Q 591.817715 424.387503 591.817715 423.339847 
Q 591.817715 422.540628 592.281777 421.940628 
Q 592.748184 421.340628 593.830996 420.841409 
Q 592.65209 419.941409 592.319277 419.369534 
Q 591.986465 418.797659 591.986465 418.042972 
Q 591.986465 417.046878 592.832559 416.289847 
Q 593.678652 415.532816 595.150527 415.532816 
Q 596.57084 415.532816 597.334902 416.203128 
Q 598.101309 416.871097 598.101309 417.808597 
Q 598.101309 418.511722 597.686465 419.050784 
Q 597.273965 419.589847 596.40209 420.021097 
z
M 595.846621 419.648441 
Q 596.116152 419.282816 596.247402 418.828128 
Q 596.380996 418.373441 596.380996 417.832034 
Q 596.380996 416.880472 595.97084 416.374222 
Q 595.663809 415.985159 595.120059 415.985159 
Q 594.630215 415.985159 594.285684 416.341409 
Q 593.941152 416.695316 593.941152 417.222659 
Q 593.941152 417.759378 594.325527 418.333597 
Q 594.709902 418.907816 595.846621 419.648441 
z
M 594.381777 421.192972 
Q 594.154434 421.399222 594.05834 421.567972 
Q 593.913027 421.823441 593.79584 422.315628 
Q 593.678652 422.805472 593.678652 423.339847 
Q 593.678652 424.028909 593.854434 424.492972 
Q 594.030215 424.957034 594.355996 425.163284 
Q 594.681777 425.367191 595.026309 425.367191 
Q 595.560684 425.367191 595.926309 424.975784 
Q 596.291934 424.584378 596.291934 423.902347 
Q 596.291934 422.482034 594.381777 421.192972 
z
" style="fill: #404040"/>
   </g>
   <g id="text_30">
    <path d="M 568.961768 400.059229 
L 563.116455 400.059229 
L 563.116455 399.897511 
Q 565.804736 396.698292 566.378955 395.592042 
Q 566.955518 394.485792 566.955518 393.431104 
Q 566.955518 392.662354 566.479736 392.153761 
Q 566.003955 391.642823 565.314893 391.642823 
Q 564.187549 391.642823 563.564111 392.772511 
L 563.292236 392.676417 
Q 563.68833 391.270167 564.49458 390.597511 
Q 565.30083 389.922511 566.355518 389.922511 
Q 567.107861 389.922511 567.731299 390.274073 
Q 568.354736 390.625636 568.706299 391.237354 
Q 569.057861 391.849073 569.057861 392.383448 
Q 569.057861 393.358448 568.514111 394.361573 
Q 567.77583 395.716261 565.284424 398.139698 
L 567.431299 398.139698 
Q 568.221143 398.139698 568.460205 398.074073 
Q 568.699268 398.008448 568.851611 397.851417 
Q 569.006299 397.694386 569.254736 397.188136 
L 569.51958 397.188136 
L 568.961768 400.059229 
z
M 572.908643 400.265479 
L 575.61333 392.069386 
L 573.553174 392.069386 
Q 572.346143 392.069386 571.736768 392.383448 
Q 571.312549 392.603761 571.033643 393.210792 
L 570.75708 393.210792 
L 571.474268 390.126417 
L 577.392236 390.126417 
L 574.059424 400.265479 
L 572.908643 400.265479 
z
M 579.62583 397.802198 
Q 580.139111 397.802198 580.493018 398.163136 
Q 580.849268 398.521729 580.849268 399.025636 
Q 580.849268 399.531886 580.490674 399.888136 
Q 580.13208 400.242042 579.62583 400.242042 
Q 579.11958 400.242042 578.76333 399.888136 
Q 578.409424 399.531886 578.409424 399.025636 
Q 578.409424 398.521729 578.76333 398.163136 
Q 579.11958 397.802198 579.62583 397.802198 
z
M 583.720361 395.078761 
L 583.720361 394.823292 
Q 584.554736 394.579542 584.87583 394.370948 
Q 585.199268 394.162354 585.433643 393.735792 
Q 585.668018 393.306886 585.668018 392.866261 
Q 585.668018 392.259229 585.225049 391.823292 
Q 584.78208 391.387354 584.123486 391.387354 
Q 583.096924 391.387354 582.379736 392.470167 
L 582.107861 392.376417 
Q 582.635205 391.152979 583.460205 390.538917 
Q 584.285205 389.922511 585.295361 389.922511 
Q 586.326611 389.922511 586.996924 390.552979 
Q 587.667236 391.181104 587.667236 392.024854 
Q 587.667236 392.573292 587.355518 393.084229 
Q 587.046143 393.592823 586.378174 393.979542 
Q 587.235986 394.396729 587.685986 395.008448 
Q 588.135986 395.620167 588.135986 396.543604 
Q 588.135986 398.095167 587.010986 399.185011 
Q 585.88833 400.272511 583.999268 400.272511 
Q 582.73833 400.272511 582.159424 399.852979 
Q 581.742236 399.560011 581.742236 399.100636 
Q 581.742236 398.763136 581.983643 398.526417 
Q 582.225049 398.287354 582.541455 398.287354 
Q 582.782861 398.287354 582.996143 398.388136 
Q 583.11333 398.446729 583.82583 399.030323 
Q 584.540674 399.611573 585.164111 399.611573 
Q 585.705518 399.611573 586.092236 399.185011 
Q 586.481299 398.756104 586.481299 398.095167 
Q 586.481299 397.092042 585.778174 396.245948 
Q 585.075049 395.399854 583.720361 395.078761 
z
" style="fill: #404040; stroke: #ffffff; stroke-width: 3.8"/>
    <path d="M 568.961768 400.059229 
L 563.116455 400.059229 
L 563.116455 399.897511 
Q 565.804736 396.698292 566.378955 395.592042 
Q 566.955518 394.485792 566.955518 393.431104 
Q 566.955518 392.662354 566.479736 392.153761 
Q 566.003955 391.642823 565.314893 391.642823 
Q 564.187549 391.642823 563.564111 392.772511 
L 563.292236 392.676417 
Q 563.68833 391.270167 564.49458 390.597511 
Q 565.30083 389.922511 566.355518 389.922511 
Q 567.107861 389.922511 567.731299 390.274073 
Q 568.354736 390.625636 568.706299 391.237354 
Q 569.057861 391.849073 569.057861 392.383448 
Q 569.057861 393.358448 568.514111 394.361573 
Q 567.77583 395.716261 565.284424 398.139698 
L 567.431299 398.139698 
Q 568.221143 398.139698 568.460205 398.074073 
Q 568.699268 398.008448 568.851611 397.851417 
Q 569.006299 397.694386 569.254736 397.188136 
L 569.51958 397.188136 
L 568.961768 400.059229 
z
M 572.908643 400.265479 
L 575.61333 392.069386 
L 573.553174 392.069386 
Q 572.346143 392.069386 571.736768 392.383448 
Q 571.312549 392.603761 571.033643 393.210792 
L 570.75708 393.210792 
L 571.474268 390.126417 
L 577.392236 390.126417 
L 574.059424 400.265479 
L 572.908643 400.265479 
z
M 579.62583 397.802198 
Q 580.139111 397.802198 580.493018 398.163136 
Q 580.849268 398.521729 580.849268 399.025636 
Q 580.849268 399.531886 580.490674 399.888136 
Q 580.13208 400.242042 579.62583 400.242042 
Q 579.11958 400.242042 578.76333 399.888136 
Q 578.409424 399.531886 578.409424 399.025636 
Q 578.409424 398.521729 578.76333 398.163136 
Q 579.11958 397.802198 579.62583 397.802198 
z
M 583.720361 395.078761 
L 583.720361 394.823292 
Q 584.554736 394.579542 584.87583 394.370948 
Q 585.199268 394.162354 585.433643 393.735792 
Q 585.668018 393.306886 585.668018 392.866261 
Q 585.668018 392.259229 585.225049 391.823292 
Q 584.78208 391.387354 584.123486 391.387354 
Q 583.096924 391.387354 582.379736 392.470167 
L 582.107861 392.376417 
Q 582.635205 391.152979 583.460205 390.538917 
Q 584.285205 389.922511 585.295361 389.922511 
Q 586.326611 389.922511 586.996924 390.552979 
Q 587.667236 391.181104 587.667236 392.024854 
Q 587.667236 392.573292 587.355518 393.084229 
Q 587.046143 393.592823 586.378174 393.979542 
Q 587.235986 394.396729 587.685986 395.008448 
Q 588.135986 395.620167 588.135986 396.543604 
Q 588.135986 398.095167 587.010986 399.185011 
Q 585.88833 400.272511 583.999268 400.272511 
Q 582.73833 400.272511 582.159424 399.852979 
Q 581.742236 399.560011 581.742236 399.100636 
Q 581.742236 398.763136 581.983643 398.526417 
Q 582.225049 398.287354 582.541455 398.287354 
Q 582.782861 398.287354 582.996143 398.388136 
Q 583.11333 398.446729 583.82583 399.030323 
Q 584.540674 399.611573 585.164111 399.611573 
Q 585.705518 399.611573 586.092236 399.185011 
Q 586.481299 398.756104 586.481299 398.095167 
Q 586.481299 397.092042 585.778174 396.245948 
Q 585.075049 395.399854 583.720361 395.078761 
z
" style="fill: #404040"/>
   </g>
   <g id="text_31">
    <path d="M 469.207275 327.580532 
L 469.207275 327.325063 
Q 470.04165 327.081313 470.362744 326.87272 
Q 470.686181 326.664126 470.920556 326.237563 
Q 471.154931 325.808657 471.154931 325.368032 
Q 471.154931 324.761001 470.711963 324.325063 
Q 470.268994 323.889126 469.6104 323.889126 
Q 468.583838 323.889126 467.86665 324.971938 
L 467.594775 324.878188 
Q 468.122119 323.654751 468.947119 323.040688 
Q 469.772119 322.424282 470.782275 322.424282 
Q 471.813525 322.424282 472.483838 323.054751 
Q 473.15415 323.682876 473.15415 324.526626 
Q 473.15415 325.075063 472.842431 325.586001 
Q 472.533056 326.094595 471.865088 326.481313 
Q 472.7229 326.898501 473.1729 327.51022 
Q 473.6229 328.121938 473.6229 329.045376 
Q 473.6229 330.596938 472.4979 331.686782 
Q 471.375244 332.774282 469.486181 332.774282 
Q 468.225244 332.774282 467.646338 332.354751 
Q 467.22915 332.061782 467.22915 331.602407 
Q 467.22915 331.264907 467.470556 331.028188 
Q 467.711963 330.789126 468.028369 330.789126 
Q 468.269775 330.789126 468.483056 330.889907 
Q 468.600244 330.948501 469.312744 331.532095 
Q 470.027588 332.113345 470.651025 332.113345 
Q 471.192431 332.113345 471.57915 331.686782 
Q 471.968213 331.257876 471.968213 330.596938 
Q 471.968213 329.593813 471.265088 328.74772 
Q 470.561963 327.901626 469.207275 327.580532 
z
M 481.533056 322.424282 
L 481.533056 322.628188 
Q 480.208838 322.965688 479.404931 323.49772 
Q 478.603369 324.027407 478.136963 324.786782 
Q 477.6729 325.543813 477.417431 326.664126 
Q 477.740869 326.446157 477.951806 326.378188 
Q 478.427588 326.232876 478.912744 326.232876 
Q 480.026025 326.232876 480.768994 327.043813 
Q 481.511963 327.852407 481.511963 329.249282 
Q 481.511963 330.231313 481.108838 331.051626 
Q 480.705713 331.871938 479.965088 332.319595 
Q 479.226806 332.767251 478.3854 332.767251 
Q 477.468994 332.767251 476.690869 332.265688 
Q 475.915088 331.761782 475.47915 330.796157 
Q 475.045556 329.828188 475.045556 328.693813 
Q 475.045556 327.02272 475.847119 325.583657 
Q 476.648681 324.144595 478.1229 323.29147 
Q 479.599463 322.438345 481.533056 322.424282 
z
M 477.321338 327.257095 
Q 477.262744 328.269595 477.262744 328.738345 
Q 477.262744 329.748501 477.457275 330.693032 
Q 477.651806 331.637563 477.989306 332.019595 
Q 478.230713 332.289126 478.561181 332.289126 
Q 478.896338 332.289126 479.158838 331.89772 
Q 479.423681 331.506313 479.423681 330.30397 
Q 479.423681 328.283657 478.933838 327.514907 
Q 478.619775 327.015688 478.083056 327.015688 
Q 477.790088 327.015688 477.321338 327.257095 
z
M 483.862744 330.30397 
Q 484.376025 330.30397 484.729931 330.664907 
Q 485.086181 331.023501 485.086181 331.527407 
Q 485.086181 332.033657 484.727588 332.389907 
Q 484.368994 332.743813 483.862744 332.743813 
Q 483.356494 332.743813 483.000244 332.389907 
Q 482.646338 332.033657 482.646338 331.527407 
Q 482.646338 331.023501 483.000244 330.664907 
Q 483.356494 330.30397 483.862744 330.30397 
z
M 490.622119 322.424282 
L 490.622119 330.54772 
Q 490.622119 331.461782 490.701806 331.714907 
Q 490.783838 331.968032 491.039306 332.129751 
Q 491.297119 332.289126 491.861963 332.289126 
L 492.086963 332.289126 
L 492.086963 332.561001 
L 486.858056 332.561001 
L 486.858056 332.289126 
L 487.1229 332.289126 
Q 487.7604 332.289126 488.029931 332.143813 
Q 488.301806 331.996157 488.395556 331.740688 
Q 488.49165 331.48522 488.49165 330.54772 
L 488.49165 325.398501 
Q 488.49165 324.709438 488.426025 324.538345 
Q 488.3604 324.364907 488.179931 324.245376 
Q 488.001806 324.123501 487.767431 324.123501 
Q 487.392431 324.123501 486.858056 324.357876 
L 486.726806 324.093032 
L 490.380713 322.424282 
L 490.622119 322.424282 
z
" style="fill: #404040; stroke: #ffffff; stroke-width: 3.8"/>
    <path d="M 469.207275 327.580532 
L 469.207275 327.325063 
Q 470.04165 327.081313 470.362744 326.87272 
Q 470.686181 326.664126 470.920556 326.237563 
Q 471.154931 325.808657 471.154931 325.368032 
Q 471.154931 324.761001 470.711963 324.325063 
Q 470.268994 323.889126 469.6104 323.889126 
Q 468.583838 323.889126 467.86665 324.971938 
L 467.594775 324.878188 
Q 468.122119 323.654751 468.947119 323.040688 
Q 469.772119 322.424282 470.782275 322.424282 
Q 471.813525 322.424282 472.483838 323.054751 
Q 473.15415 323.682876 473.15415 324.526626 
Q 473.15415 325.075063 472.842431 325.586001 
Q 472.533056 326.094595 471.865088 326.481313 
Q 472.7229 326.898501 473.1729 327.51022 
Q 473.6229 328.121938 473.6229 329.045376 
Q 473.6229 330.596938 472.4979 331.686782 
Q 471.375244 332.774282 469.486181 332.774282 
Q 468.225244 332.774282 467.646338 332.354751 
Q 467.22915 332.061782 467.22915 331.602407 
Q 467.22915 331.264907 467.470556 331.028188 
Q 467.711963 330.789126 468.028369 330.789126 
Q 468.269775 330.789126 468.483056 330.889907 
Q 468.600244 330.948501 469.312744 331.532095 
Q 470.027588 332.113345 470.651025 332.113345 
Q 471.192431 332.113345 471.57915 331.686782 
Q 471.968213 331.257876 471.968213 330.596938 
Q 471.968213 329.593813 471.265088 328.74772 
Q 470.561963 327.901626 469.207275 327.580532 
z
M 481.533056 322.424282 
L 481.533056 322.628188 
Q 480.208838 322.965688 479.404931 323.49772 
Q 478.603369 324.027407 478.136963 324.786782 
Q 477.6729 325.543813 477.417431 326.664126 
Q 477.740869 326.446157 477.951806 326.378188 
Q 478.427588 326.232876 478.912744 326.232876 
Q 480.026025 326.232876 480.768994 327.043813 
Q 481.511963 327.852407 481.511963 329.249282 
Q 481.511963 330.231313 481.108838 331.051626 
Q 480.705713 331.871938 479.965088 332.319595 
Q 479.226806 332.767251 478.3854 332.767251 
Q 477.468994 332.767251 476.690869 332.265688 
Q 475.915088 331.761782 475.47915 330.796157 
Q 475.045556 329.828188 475.045556 328.693813 
Q 475.045556 327.02272 475.847119 325.583657 
Q 476.648681 324.144595 478.1229 323.29147 
Q 479.599463 322.438345 481.533056 322.424282 
z
M 477.321338 327.257095 
Q 477.262744 328.269595 477.262744 328.738345 
Q 477.262744 329.748501 477.457275 330.693032 
Q 477.651806 331.637563 477.989306 332.019595 
Q 478.230713 332.289126 478.561181 332.289126 
Q 478.896338 332.289126 479.158838 331.89772 
Q 479.423681 331.506313 479.423681 330.30397 
Q 479.423681 328.283657 478.933838 327.514907 
Q 478.619775 327.015688 478.083056 327.015688 
Q 477.790088 327.015688 477.321338 327.257095 
z
M 483.862744 330.30397 
Q 484.376025 330.30397 484.729931 330.664907 
Q 485.086181 331.023501 485.086181 331.527407 
Q 485.086181 332.033657 484.727588 332.389907 
Q 484.368994 332.743813 483.862744 332.743813 
Q 483.356494 332.743813 483.000244 332.389907 
Q 482.646338 332.033657 482.646338 331.527407 
Q 482.646338 331.023501 483.000244 330.664907 
Q 483.356494 330.30397 483.862744 330.30397 
z
M 490.622119 322.424282 
L 490.622119 330.54772 
Q 490.622119 331.461782 490.701806 331.714907 
Q 490.783838 331.968032 491.039306 332.129751 
Q 491.297119 332.289126 491.861963 332.289126 
L 492.086963 332.289126 
L 492.086963 332.561001 
L 486.858056 332.561001 
L 486.858056 332.289126 
L 487.1229 332.289126 
Q 487.7604 332.289126 488.029931 332.143813 
Q 488.301806 331.996157 488.395556 331.740688 
Q 488.49165 331.48522 488.49165 330.54772 
L 488.49165 325.398501 
Q 488.49165 324.709438 488.426025 324.538345 
Q 488.3604 324.364907 488.179931 324.245376 
Q 488.001806 324.123501 487.767431 324.123501 
Q 487.392431 324.123501 486.858056 324.357876 
L 486.726806 324.093032 
L 490.380713 322.424282 
L 490.622119 322.424282 
z
" style="fill: #404040"/>
   </g>
   <g id="text_32">
    <path d="M 325.540961 372.447836 
L 325.540961 372.192367 
Q 326.375336 371.948617 326.696429 371.740023 
Q 327.019867 371.53143 327.254242 371.104867 
Q 327.488617 370.675961 327.488617 370.235336 
Q 327.488617 369.628305 327.045648 369.192367 
Q 326.602679 368.75643 325.944086 368.75643 
Q 324.917523 368.75643 324.200336 369.839242 
L 323.928461 369.745492 
Q 324.455804 368.522055 325.280804 367.907992 
Q 326.105804 367.291586 327.115961 367.291586 
Q 328.147211 367.291586 328.817523 367.922055 
Q 329.487836 368.55018 329.487836 369.39393 
Q 329.487836 369.942367 329.176117 370.453305 
Q 328.866742 370.961898 328.198773 371.348617 
Q 329.056586 371.765805 329.506586 372.377523 
Q 329.956586 372.989242 329.956586 373.91268 
Q 329.956586 375.464242 328.831586 376.554086 
Q 327.708929 377.641586 325.819867 377.641586 
Q 324.558929 377.641586 323.980023 377.222055 
Q 323.562836 376.929086 323.562836 376.469711 
Q 323.562836 376.132211 323.804242 375.895492 
Q 324.045648 375.65643 324.362054 375.65643 
Q 324.603461 375.65643 324.816742 375.757211 
Q 324.933929 375.815805 325.646429 376.399398 
Q 326.361273 376.980648 326.984711 376.980648 
Q 327.526117 376.980648 327.912836 376.554086 
Q 328.301898 376.12518 328.301898 375.464242 
Q 328.301898 374.461117 327.598773 373.615023 
Q 326.895648 372.76893 325.540961 372.447836 
z
M 332.696429 375.171273 
Q 333.209711 375.171273 333.563617 375.532211 
Q 333.919867 375.890805 333.919867 376.394711 
Q 333.919867 376.900961 333.561273 377.257211 
Q 333.202679 377.611117 332.696429 377.611117 
Q 332.190179 377.611117 331.833929 377.257211 
Q 331.480023 376.900961 331.480023 376.394711 
Q 331.480023 375.890805 331.833929 375.532211 
Q 332.190179 375.171273 332.696429 375.171273 
z
M 339.455804 367.291586 
L 339.455804 375.415023 
Q 339.455804 376.329086 339.535492 376.582211 
Q 339.617523 376.835336 339.872992 376.997055 
Q 340.130804 377.15643 340.695648 377.15643 
L 340.920648 377.15643 
L 340.920648 377.428305 
L 335.691742 377.428305 
L 335.691742 377.15643 
L 335.956586 377.15643 
Q 336.594086 377.15643 336.863617 377.011117 
Q 337.135492 376.863461 337.229242 376.607992 
Q 337.325336 376.352523 337.325336 375.415023 
L 337.325336 370.265805 
Q 337.325336 369.576742 337.259711 369.405648 
Q 337.194086 369.232211 337.013617 369.11268 
Q 336.835492 368.990805 336.601117 368.990805 
Q 336.226117 368.990805 335.691742 369.22518 
L 335.560492 368.960336 
L 339.214398 367.291586 
L 339.455804 367.291586 
z
" style="fill: #404040; stroke: #ffffff; stroke-width: 3.8"/>
    <path d="M 325.540961 372.447836 
L 325.540961 372.192367 
Q 326.375336 371.948617 326.696429 371.740023 
Q 327.019867 371.53143 327.254242 371.104867 
Q 327.488617 370.675961 327.488617 370.235336 
Q 327.488617 369.628305 327.045648 369.192367 
Q 326.602679 368.75643 325.944086 368.75643 
Q 324.917523 368.75643 324.200336 369.839242 
L 323.928461 369.745492 
Q 324.455804 368.522055 325.280804 367.907992 
Q 326.105804 367.291586 327.115961 367.291586 
Q 328.147211 367.291586 328.817523 367.922055 
Q 329.487836 368.55018 329.487836 369.39393 
Q 329.487836 369.942367 329.176117 370.453305 
Q 328.866742 370.961898 328.198773 371.348617 
Q 329.056586 371.765805 329.506586 372.377523 
Q 329.956586 372.989242 329.956586 373.91268 
Q 329.956586 375.464242 328.831586 376.554086 
Q 327.708929 377.641586 325.819867 377.641586 
Q 324.558929 377.641586 323.980023 377.222055 
Q 323.562836 376.929086 323.562836 376.469711 
Q 323.562836 376.132211 323.804242 375.895492 
Q 324.045648 375.65643 324.362054 375.65643 
Q 324.603461 375.65643 324.816742 375.757211 
Q 324.933929 375.815805 325.646429 376.399398 
Q 326.361273 376.980648 326.984711 376.980648 
Q 327.526117 376.980648 327.912836 376.554086 
Q 328.301898 376.12518 328.301898 375.464242 
Q 328.301898 374.461117 327.598773 373.615023 
Q 326.895648 372.76893 325.540961 372.447836 
z
M 332.696429 375.171273 
Q 333.209711 375.171273 333.563617 375.532211 
Q 333.919867 375.890805 333.919867 376.394711 
Q 333.919867 376.900961 333.561273 377.257211 
Q 333.202679 377.611117 332.696429 377.611117 
Q 332.190179 377.611117 331.833929 377.257211 
Q 331.480023 376.900961 331.480023 376.394711 
Q 331.480023 375.890805 331.833929 375.532211 
Q 332.190179 375.171273 332.696429 375.171273 
z
M 339.455804 367.291586 
L 339.455804 375.415023 
Q 339.455804 376.329086 339.535492 376.582211 
Q 339.617523 376.835336 339.872992 376.997055 
Q 340.130804 377.15643 340.695648 377.15643 
L 340.920648 377.15643 
L 340.920648 377.428305 
L 335.691742 377.428305 
L 335.691742 377.15643 
L 335.956586 377.15643 
Q 336.594086 377.15643 336.863617 377.011117 
Q 337.135492 376.863461 337.229242 376.607992 
Q 337.325336 376.352523 337.325336 375.415023 
L 337.325336 370.265805 
Q 337.325336 369.576742 337.259711 369.405648 
Q 337.194086 369.232211 337.013617 369.11268 
Q 336.835492 368.990805 336.601117 368.990805 
Q 336.226117 368.990805 335.691742 369.22518 
L 335.560492 368.960336 
L 339.214398 367.291586 
L 339.455804 367.291586 
z
" style="fill: #404040"/>
   </g>
  </g>
 </g>
 <defs>
  <clipPath id="p9f87882f06">
   <rect x="7.2" y="51.034687" width="730.764" height="433.118298"/>
  </clipPath>
 </defs>
</svg>
