<?xml version="1.0" encoding="utf-8" standalone="no"?>
<!DOCTYPE svg PUBLIC "-//W3C//DTD SVG 1.1//EN"
  "http://www.w3.org/Graphics/SVG/1.1/DTD/svg11.dtd">
<svg xmlns:xlink="http://www.w3.org/1999/xlink" width="745.164pt" height="496.324398pt" viewBox="0 0 745.164 496.324398" xmlns="http://www.w3.org/2000/svg" version="1.1">
 <metadata>
  <rdf:RDF xmlns:dc="http://purl.org/dc/elements/1.1/" xmlns:cc="http://creativecommons.org/ns#" xmlns:rdf="http://www.w3.org/1999/02/22-rdf-syntax-ns#">
   <cc:Work>
    <dc:type rdf:resource="http://purl.org/dc/dcmitype/StillImage"/>
    <dc:date>2026-07-13T16:58:41.091121</dc:date>
    <dc:format>image/svg+xml</dc:format>
    <dc:creator>
     <cc:Agent>
      <dc:title>Matplotlib v3.10.8, https://matplotlib.org/</dc:title>
     </cc:Agent>
    </dc:creator>
   </cc:Work>
  </rdf:RDF>
 </metadata>
 <defs>
  <style type="text/css">*{stroke-linejoin: round; stroke-linecap: butt}</style>
 </defs>
 <g id="figure_1">
  <g id="patch_1">
   <path d="M 0 496.324398 
L 745.164 496.324398 
L 745.164 0 
L 0 0 
L 0 496.324398 
z
" style="fill: none"/>
  </g>
  <g id="axes_1">
   <g id="patch_2">
    <path d="M 120.350555 437.89928 
Q 120.350555 458.4743 120.350555 476.786113 
" clip-path="url(#p3f041e9e46)" style="fill: none; stroke: #111111; stroke-width: 2.024274; stroke-linejoin: miter; stroke-linecap: round"/>
    <path d="M 123.942322 469.602578 
L 120.350555 476.786113 
L 116.758787 469.602578 
z
" clip-path="url(#p3f041e9e46)" style="fill: #111111; stroke: #111111; stroke-width: 2.024274; stroke-linejoin: miter; stroke-linecap: round"/>
   </g>
   <g id="patch_3">
    <path d="M 120.350555 346.038494 
Q 120.350555 369.206237 120.350555 388.572071 
" clip-path="url(#p3f041e9e46)" style="fill: none; stroke: #111111; stroke-width: 3.40053; stroke-linejoin: miter; stroke-linecap: round"/>
    <path d="M 124.382725 380.507731 
L 120.350555 388.572071 
L 116.318385 380.507731 
z
" clip-path="url(#p3f041e9e46)" style="fill: #111111; stroke: #111111; stroke-width: 3.40053; stroke-linejoin: miter; stroke-linecap: round"/>
   </g>
   <g id="patch_4">
    <path d="M 120.350555 250.441117 
Q 120.350555 272.884433 120.350555 288.843151 
" clip-path="url(#p3f041e9e46)" style="fill: none; stroke: #111111; stroke-width: 5.8; stroke-linejoin: miter; stroke-linecap: round"/>
    <path d="M 125.150555 279.243151 
L 120.350555 288.843151 
L 115.550555 279.243151 
z
" clip-path="url(#p3f041e9e46)" style="fill: #111111; stroke: #111111; stroke-width: 5.8; stroke-linejoin: miter; stroke-linecap: round"/>
   </g>
   <g id="patch_5">
    <path d="M 370.224697 322.703945 
Q 370.224697 340.047573 370.224697 354.684093 
" clip-path="url(#p3f041e9e46)" style="fill: none; stroke: #111111; stroke-width: 2.421312; stroke-linejoin: miter; stroke-linecap: round"/>
    <path d="M 373.943517 347.246453 
L 370.224697 354.684093 
L 366.505877 347.246453 
z
" clip-path="url(#p3f041e9e46)" style="fill: #111111; stroke: #111111; stroke-width: 2.421312; stroke-linejoin: miter; stroke-linecap: round"/>
   </g>
   <g id="patch_6">
    <path d="M 370.224697 235.336195 
Q 370.224697 259.488811 370.224697 279.609605 
" clip-path="url(#p3f041e9e46)" style="fill: none; stroke: #111111; stroke-width: 3.606171; stroke-linejoin: miter; stroke-linecap: round"/>
    <path d="M 374.322672 271.413656 
L 370.224697 279.609605 
L 366.126722 271.413656 
z
" clip-path="url(#p3f041e9e46)" style="fill: #111111; stroke: #111111; stroke-width: 3.606171; stroke-linejoin: miter; stroke-linecap: round"/>
   </g>
   <g id="patch_7">
    <path d="M 370.224697 129.84759 
Q 370.224697 156.251646 370.224697 177.354898 
" clip-path="url(#p3f041e9e46)" style="fill: none; stroke: #111111; stroke-width: 4.741183; stroke-linejoin: miter; stroke-linecap: round"/>
    <path d="M 374.685875 168.432541 
L 370.224697 177.354898 
L 365.763518 168.432541 
z
" clip-path="url(#p3f041e9e46)" style="fill: #111111; stroke: #111111; stroke-width: 4.741183; stroke-linejoin: miter; stroke-linecap: round"/>
   </g>
   <g id="patch_8">
    <path d="M 586.153672 274.628081 
Q 586.153672 303.030645 586.153672 329.018817 
" clip-path="url(#p3f041e9e46)" style="fill: none; stroke: #111111; stroke-width: 2.159497; stroke-linejoin: miter; stroke-linecap: round"/>
    <path d="M 589.788711 321.748739 
L 586.153672 329.018817 
L 582.518633 321.748739 
z
" clip-path="url(#p3f041e9e46)" style="fill: #111111; stroke: #111111; stroke-width: 2.159497; stroke-linejoin: miter; stroke-linecap: round"/>
   </g>
   <g id="line2d_1">
    <path d="M 165.610777 479.04932 
L 550.322663 479.04932 
" clip-path="url(#p3f041e9e46)" style="fill: none; stroke-dasharray: 5.6,4.2; stroke-dashoffset: 0; stroke: #404040; stroke-width: 1.4"/>
   </g>
   <g id="line2d_2">
    <path d="M 165.610777 392.373979 
L 550.322663 392.373979 
" clip-path="url(#p3f041e9e46)" style="fill: none; stroke-dasharray: 5.6,4.2; stroke-dashoffset: 0; stroke: #404040; stroke-width: 1.4"/>
   </g>
   <g id="line2d_3">
    <path d="M 415.484919 357.391202 
L 560.694797 357.391202 
" clip-path="url(#p3f041e9e46)" style="fill: none; stroke-dasharray: 5.6,4.2; stroke-dashoffset: 0; stroke: #404040; stroke-width: 1.4"/>
   </g>
   <g id="patch_9">
    <path d="M 665.359061 331.433208 
Q 560.70797 403.539543 456.833735 475.110612 
" clip-path="url(#p3f041e9e46)" style="fill: none; stroke: #404040; stroke-width: 0.843808; stroke-linejoin: miter; stroke-linecap: round"/>
    <path d="M 463.066091 474.234441 
L 456.833735 475.110612 
L 459.872212 469.599024 
z
" clip-path="url(#p3f041e9e46)" style="fill: #404040; stroke: #404040; stroke-width: 0.843808; stroke-linejoin: miter; stroke-linecap: round"/>
   </g>
   <g id="patch_10">
    <path d="M 620.098839 331.433208 
Q 578.34691 360.200979 539.189914 387.180798 
" clip-path="url(#p3f041e9e46)" style="fill: none; stroke: #404040; stroke-width: 2.818574; stroke-linejoin: miter; stroke-linecap: round"/>
    <path d="M 546.879841 386.099716 
L 539.189914 387.180798 
L 542.939004 380.380207 
z
" clip-path="url(#p3f041e9e46)" style="fill: #404040; stroke: #404040; stroke-width: 2.818574; stroke-linejoin: miter; stroke-linecap: round"/>
   </g>
   <g id="patch_11">
    <path d="M 574.838617 331.433208 
Q 542.295487 343.378416 511.803885 354.570596 
" clip-path="url(#p3f041e9e46)" style="fill: none; stroke: #404040; stroke-width: 1.954649; stroke-linejoin: miter; stroke-linecap: round"/>
    <path d="M 518.880993 355.365546 
L 511.803885 354.570596 
L 516.68611 349.38588 
z
" clip-path="url(#p3f041e9e46)" style="fill: #404040; stroke: #404040; stroke-width: 1.954649; stroke-linejoin: miter; stroke-linecap: round"/>
   </g>
   <g id="patch_12">
    <path d="M 370.224697 357.391202 
Q 335.41645 373.614828 304.079294 388.220628 
" clip-path="url(#p3f041e9e46)" style="fill: none; stroke: #404040; stroke-width: 3.425298; stroke-linejoin: miter; stroke-linecap: round"/>
    <path d="M 312.293959 388.446569 
L 304.079294 388.220628 
L 309.188845 381.78446 
z
" clip-path="url(#p3f041e9e46)" style="fill: #404040; stroke: #404040; stroke-width: 3.425298; stroke-linejoin: miter; stroke-linecap: round"/>
   </g>
   <g id="line2d_4">
    <path d="M 120.350555 392.373979 
L 120.350555 433.524019 
" clip-path="url(#p3f041e9e46)" style="fill: none; stroke: #111111; stroke-width: 2.024274"/>
   </g>
   <g id="line2d_5">
    <path d="M 120.350555 295.327748 
L 120.350555 341.663233 
" clip-path="url(#p3f041e9e46)" style="fill: none; stroke: #111111; stroke-width: 3.40053"/>
   </g>
   <g id="line2d_6">
    <path d="M 120.350555 201.179224 
L 120.350555 246.065856 
" clip-path="url(#p3f041e9e46)" style="fill: none; stroke: #111111; stroke-width: 5.8"/>
   </g>
   <g id="line2d_7">
    <path d="M 370.224697 283.641427 
L 370.224697 318.328684 
" clip-path="url(#p3f041e9e46)" style="fill: none; stroke: #111111; stroke-width: 2.421312"/>
   </g>
   <g id="line2d_8">
    <path d="M 370.224697 182.655702 
L 370.224697 230.960934 
" clip-path="url(#p3f041e9e46)" style="fill: none; stroke: #111111; stroke-width: 3.606171"/>
   </g>
   <g id="line2d_9">
    <path d="M 370.224697 72.664217 
L 370.224697 125.472329 
" clip-path="url(#p3f041e9e46)" style="fill: none; stroke: #111111; stroke-width: 4.741183"/>
   </g>
   <g id="line2d_10">
    <path d="M 586.153672 213.447693 
L 586.153672 270.25282 
" clip-path="url(#p3f041e9e46)" style="fill: none; stroke: #111111; stroke-width: 2.159497"/>
   </g>
   <g id="line2d_11">
    <path d="M 75.090333 479.04932 
L 165.610777 479.04932 
" clip-path="url(#p3f041e9e46)" style="fill: none; stroke: #111111; stroke-width: 3.6; stroke-linecap: round"/>
   </g>
   <g id="line2d_12">
    <path d="M 75.090333 392.373979 
L 165.610777 392.373979 
" clip-path="url(#p3f041e9e46)" style="fill: none; stroke: #111111; stroke-width: 3.6; stroke-linecap: round"/>
   </g>
   <g id="line2d_13">
    <path d="M 75.090333 295.327748 
L 165.610777 295.327748 
" clip-path="url(#p3f041e9e46)" style="fill: none; stroke: #111111; stroke-width: 3.6; stroke-linecap: round"/>
   </g>
   <g id="line2d_14">
    <path d="M 75.090333 201.179224 
L 165.610777 201.179224 
" clip-path="url(#p3f041e9e46)" style="fill: none; stroke: #111111; stroke-width: 3.6; stroke-linecap: round"/>
   </g>
   <g id="line2d_15">
    <path d="M 324.964475 357.391202 
L 415.484919 357.391202 
" clip-path="url(#p3f041e9e46)" style="fill: none; stroke: #111111; stroke-width: 3.6; stroke-linecap: round"/>
   </g>
   <g id="line2d_16">
    <path d="M 324.964475 283.641427 
L 415.484919 283.641427 
" clip-path="url(#p3f041e9e46)" style="fill: none; stroke: #111111; stroke-width: 3.6; stroke-linecap: round"/>
   </g>
   <g id="line2d_17">
    <path d="M 324.964475 182.655702 
L 415.484919 182.655702 
" clip-path="url(#p3f041e9e46)" style="fill: none; stroke: #111111; stroke-width: 3.6; stroke-linecap: round"/>
   </g>
   <g id="line2d_18">
    <path d="M 324.964475 72.664217 
L 415.484919 72.664217 
" clip-path="url(#p3f041e9e46)" style="fill: none; stroke: #111111; stroke-width: 3.6; stroke-linecap: round"/>
   </g>
   <g id="line2d_19">
    <path d="M 574.838617 331.433208 
L 665.359061 331.433208 
" clip-path="url(#p3f041e9e46)" style="fill: none; stroke: #111111; stroke-width: 3.6; stroke-linecap: round"/>
   </g>
   <g id="line2d_20">
    <path d="M 574.838617 213.447693 
L 665.359061 213.447693 
" clip-path="url(#p3f041e9e46)" style="fill: none; stroke: #111111; stroke-width: 3.6; stroke-linecap: round"/>
   </g>
   <g id="text_1">
    <!-- $^{64}\mathrm{Ni}$ -->
    <g transform="translate(339.262 33.034687) scale(0.34 -0.34)">
     <defs>
      <path id="DejaVuSans-36" d="M 2113 2584 
Q 1688 2584 1439 2293 
Q 1191 2003 1191 1497 
Q 1191 994 1439 701 
Q 1688 409 2113 409 
Q 2538 409 2786 701 
Q 3034 994 3034 1497 
Q 3034 2003 2786 2293 
Q 2538 2584 2113 2584 
z
M 3366 4563 
L 3366 3988 
Q 3128 4100 2886 4159 
Q 2644 4219 2406 4219 
Q 1781 4219 1451 3797 
Q 1122 3375 1075 2522 
Q 1259 2794 1537 2939 
Q 1816 3084 2150 3084 
Q 2853 3084 3261 2657 
Q 3669 2231 3669 1497 
Q 3669 778 3244 343 
Q 2819 -91 2113 -91 
Q 1303 -91 875 529 
Q 447 1150 447 2328 
Q 447 3434 972 4092 
Q 1497 4750 2381 4750 
Q 2619 4750 2861 4703 
Q 3103 4656 3366 4563 
z
" transform="scale(0.015625)"/>
      <path id="DejaVuSans-34" d="M 2419 4116 
L 825 1625 
L 2419 1625 
L 2419 4116 
z
M 2253 4666 
L 3047 4666 
L 3047 1625 
L 3713 1625 
L 3713 1100 
L 3047 1100 
L 3047 0 
L 2419 0 
L 2419 1100 
L 313 1100 
L 313 1709 
L 2253 4666 
z
" transform="scale(0.015625)"/>
      <path id="DejaVuSans-4e" d="M 628 4666 
L 1478 4666 
L 3547 763 
L 3547 4666 
L 4159 4666 
L 4159 0 
L 3309 0 
L 1241 3903 
L 1241 0 
L 628 0 
L 628 4666 
z
" transform="scale(0.015625)"/>
      <path id="DejaVuSans-69" d="M 603 3500 
L 1178 3500 
L 1178 0 
L 603 0 
L 603 3500 
z
M 603 4863 
L 1178 4863 
L 1178 4134 
L 603 4134 
L 603 4863 
z
" transform="scale(0.015625)"/>
     </defs>
     <use xlink:href="#DejaVuSans-36" transform="translate(0.957031 39.046875) scale(0.7)"/>
     <use xlink:href="#DejaVuSans-34" transform="translate(45.493164 39.046875) scale(0.7)"/>
     <use xlink:href="#DejaVuSans-4e" transform="translate(92.763672 0.765625)"/>
     <use xlink:href="#DejaVuSans-69" transform="translate(167.568359 0.765625)"/>
    </g>
   </g>
   <g id="text_2">
    <!-- 0 -->
    <g transform="translate(46.98525 483.46432) scale(0.16 -0.16)">
     <defs>
      <path id="DejaVuSans-BoldOblique-30" d="M 1913 728 
Q 2153 728 2339 872 
Q 2525 1016 2650 1294 
Q 2738 1491 2809 1742 
Q 2881 1994 2944 2338 
Q 2997 2616 3025 2850 
Q 3053 3084 3053 3250 
Q 3053 3600 2928 3764 
Q 2803 3928 2541 3928 
Q 2297 3928 2112 3789 
Q 1928 3650 1806 3366 
Q 1713 3163 1636 2903 
Q 1559 2644 1503 2338 
Q 1450 2056 1422 1815 
Q 1394 1575 1394 1409 
Q 1394 1063 1522 895 
Q 1650 728 1913 728 
z
M 4225 3072 
Q 4225 2450 4053 1862 
Q 3881 1275 3572 831 
Q 3256 375 2809 142 
Q 2363 -91 1813 -91 
Q 1047 -91 639 343 
Q 231 778 231 1594 
Q 231 2206 401 2795 
Q 572 3384 878 3822 
Q 1200 4281 1644 4515 
Q 2088 4750 2644 4750 
Q 3403 4750 3814 4314 
Q 4225 3878 4225 3072 
z
" transform="scale(0.015625)"/>
     </defs>
     <use xlink:href="#DejaVuSans-BoldOblique-30"/>
    </g>
   </g>
   <g id="text_3">
    <!-- 0⁺ -->
    <g transform="translate(182.58336 484.204554) scale(0.23 -0.23)">
     <defs>
      <path id="TimesNewRomanPS-BoldMT-30" d="M 2966 2119 
Q 2966 1484 2788 934 
Q 2681 597 2501 381 
Q 2322 166 2094 39 
Q 1866 -88 1597 -88 
Q 1291 -88 1044 68 
Q 797 225 606 516 
Q 469 728 366 1081 
Q 231 1559 231 2069 
Q 231 2759 425 3338 
Q 584 3816 909 4070 
Q 1234 4325 1597 4325 
Q 1966 4325 2286 4073 
Q 2606 3822 2756 3397 
Q 2966 2813 2966 2119 
z
M 2003 2125 
Q 2003 3238 1991 3422 
Q 1959 3856 1841 4009 
Q 1763 4109 1588 4109 
Q 1453 4109 1375 4034 
Q 1259 3925 1218 3648 
Q 1178 3372 1178 1719 
Q 1178 819 1241 513 
Q 1288 291 1375 216 
Q 1463 141 1606 141 
Q 1763 141 1841 241 
Q 1972 416 1991 781 
L 2003 2125 
z
" transform="scale(0.015625)"/>
      <path id="DejaVuSerif-Bold-207a" d="M 1916 4344 
L 1916 3441 
L 2950 3441 
L 2950 3044 
L 1916 3044 
L 1916 2141 
L 1463 2141 
L 1463 3044 
L 428 3044 
L 428 3441 
L 1463 3441 
L 1463 4344 
L 1916 4344 
z
" transform="scale(0.015625)"/>
     </defs>
     <use xlink:href="#TimesNewRomanPS-BoldMT-30"/>
     <use xlink:href="#DejaVuSerif-Bold-207a" transform="translate(50 0)"/>
    </g>
   </g>
   <g id="text_4">
    <!-- 1823 -->
    <g transform="translate(13.58775 396.788979) scale(0.16 -0.16)">
     <defs>
      <path id="DejaVuSans-BoldOblique-31" d="M 441 831 
L 1503 831 
L 2088 3847 
L 953 3622 
L 1113 4441 
L 2241 4666 
L 3384 4666 
L 2644 831 
L 3700 831 
L 3541 0 
L 275 0 
L 441 831 
z
" transform="scale(0.015625)"/>
      <path id="DejaVuSans-BoldOblique-38" d="M 2150 2088 
Q 1784 2088 1539 1839 
Q 1294 1591 1294 1228 
Q 1294 969 1453 817 
Q 1613 666 1888 666 
Q 2259 666 2503 911 
Q 2747 1156 2747 1522 
Q 2747 1781 2586 1934 
Q 2425 2088 2150 2088 
z
M 1381 2484 
Q 1044 2625 876 2850 
Q 709 3075 709 3391 
Q 709 4025 1229 4387 
Q 1750 4750 2669 4750 
Q 3406 4750 3812 4475 
Q 4219 4200 4219 3700 
Q 4219 3256 3936 2940 
Q 3653 2625 3128 2484 
Q 3509 2338 3690 2091 
Q 3872 1844 3872 1466 
Q 3872 747 3311 328 
Q 2750 -91 1772 -91 
Q 1000 -91 570 217 
Q 141 525 141 1075 
Q 141 1572 470 1945 
Q 800 2319 1381 2484 
z
M 2559 3994 
Q 2241 3994 2048 3808 
Q 1856 3622 1856 3316 
Q 1856 3103 1995 2972 
Q 2134 2841 2363 2841 
Q 2681 2841 2873 3027 
Q 3066 3213 3066 3519 
Q 3066 3734 2927 3864 
Q 2788 3994 2559 3994 
z
" transform="scale(0.015625)"/>
      <path id="DejaVuSans-BoldOblique-32" d="M 1581 884 
L 3609 884 
L 3438 0 
L 50 0 
L 225 891 
L 2209 2388 
Q 2534 2638 2704 2894 
Q 2875 3150 2875 3391 
Q 2875 3647 2700 3787 
Q 2525 3928 2209 3928 
Q 1913 3928 1547 3811 
Q 1181 3694 722 3450 
L 922 4441 
Q 1347 4597 1756 4673 
Q 2166 4750 2566 4750 
Q 3278 4750 3687 4442 
Q 4097 4134 4097 3603 
Q 4097 3147 3847 2772 
Q 3597 2397 2747 1759 
L 1581 884 
z
" transform="scale(0.015625)"/>
      <path id="DejaVuSans-BoldOblique-33" d="M 3022 2516 
Q 3375 2434 3572 2187 
Q 3769 1941 3769 1581 
Q 3769 806 3155 357 
Q 2541 -91 1466 -91 
Q 1059 -91 692 -33 
Q 325 25 0 141 
L 178 1069 
Q 456 906 784 817 
Q 1113 728 1441 728 
Q 1969 728 2276 926 
Q 2584 1125 2584 1459 
Q 2584 1738 2350 1877 
Q 2116 2016 1644 2016 
L 1166 2016 
L 1319 2791 
L 1825 2791 
Q 2316 2791 2602 2969 
Q 2888 3147 2888 3450 
Q 2888 3688 2689 3813 
Q 2491 3938 2113 3938 
Q 1847 3938 1534 3869 
Q 1222 3800 884 3669 
L 1056 4550 
Q 1425 4650 1783 4700 
Q 2141 4750 2491 4750 
Q 3281 4750 3679 4487 
Q 4078 4225 4078 3706 
Q 4078 3241 3801 2930 
Q 3525 2619 3022 2516 
z
" transform="scale(0.015625)"/>
     </defs>
     <use xlink:href="#DejaVuSans-BoldOblique-31"/>
     <use xlink:href="#DejaVuSans-BoldOblique-38" transform="translate(69.580078 0)"/>
     <use xlink:href="#DejaVuSans-BoldOblique-32" transform="translate(139.160156 0)"/>
     <use xlink:href="#DejaVuSans-BoldOblique-33" transform="translate(208.740234 0)"/>
    </g>
   </g>
   <g id="text_5">
    <!-- 2⁺ -->
    <g transform="translate(182.58336 397.529213) scale(0.23 -0.23)">
     <defs>
      <path id="TimesNewRomanPS-BoldMT-32" d="M 2650 0 
L 156 0 
L 156 69 
Q 1303 1434 1548 1906 
Q 1794 2378 1794 2828 
Q 1794 3156 1591 3373 
Q 1388 3591 1094 3591 
Q 613 3591 347 3109 
L 231 3150 
Q 400 3750 744 4037 
Q 1088 4325 1538 4325 
Q 1859 4325 2125 4175 
Q 2391 4025 2541 3764 
Q 2691 3503 2691 3275 
Q 2691 2859 2459 2431 
Q 2144 1853 1081 819 
L 1997 819 
Q 2334 819 2436 847 
Q 2538 875 2603 942 
Q 2669 1009 2775 1225 
L 2888 1225 
L 2650 0 
z
" transform="scale(0.015625)"/>
     </defs>
     <use xlink:href="#TimesNewRomanPS-BoldMT-32"/>
     <use xlink:href="#DejaVuSerif-Bold-207a" transform="translate(50 0)"/>
    </g>
   </g>
   <g id="text_6">
    <!-- 3863 -->
    <g transform="translate(13.58775 299.742748) scale(0.16 -0.16)">
     <defs>
      <path id="DejaVuSans-BoldOblique-36" d="M 2316 2303 
Q 1959 2303 1731 2009 
Q 1503 1716 1503 1253 
Q 1503 975 1643 820 
Q 1784 666 2034 666 
Q 2388 666 2617 955 
Q 2847 1244 2847 1684 
Q 2847 1984 2709 2143 
Q 2572 2303 2316 2303 
z
M 4225 4544 
L 4056 3681 
Q 3788 3819 3534 3887 
Q 3281 3956 3028 3956 
Q 2447 3956 2087 3643 
Q 1728 3331 1650 2766 
Q 1894 2925 2151 3001 
Q 2409 3078 2700 3078 
Q 3275 3078 3640 2737 
Q 4006 2397 4006 1869 
Q 4006 1006 3442 454 
Q 2878 -97 1991 -97 
Q 1194 -97 756 354 
Q 319 806 319 1631 
Q 319 2269 512 2848 
Q 706 3428 1056 3847 
Q 1431 4294 1942 4519 
Q 2453 4744 3091 4744 
Q 3384 4744 3662 4694 
Q 3941 4644 4225 4544 
z
" transform="scale(0.015625)"/>
     </defs>
     <use xlink:href="#DejaVuSans-BoldOblique-33"/>
     <use xlink:href="#DejaVuSans-BoldOblique-38" transform="translate(69.580078 0)"/>
     <use xlink:href="#DejaVuSans-BoldOblique-36" transform="translate(139.160156 0)"/>
     <use xlink:href="#DejaVuSans-BoldOblique-33" transform="translate(208.740234 0)"/>
    </g>
   </g>
   <g id="text_7">
    <!-- 4⁺ -->
    <g transform="translate(182.58336 300.482983) scale(0.23 -0.23)">
     <defs>
      <path id="TimesNewRomanPS-BoldMT-34" d="M 159 1597 
L 2172 4325 
L 2553 4325 
L 2553 1597 
L 2941 1597 
L 2941 950 
L 2553 950 
L 2553 0 
L 1694 0 
L 1694 950 
L 159 950 
L 159 1597 
z
M 463 1597 
L 1694 1597 
L 1694 3269 
L 463 1597 
z
" transform="scale(0.015625)"/>
     </defs>
     <use xlink:href="#TimesNewRomanPS-BoldMT-34"/>
     <use xlink:href="#DejaVuSerif-Bold-207a" transform="translate(50 0)"/>
    </g>
   </g>
   <g id="text_8">
    <!-- 5843 -->
    <g transform="translate(13.58775 205.594224) scale(0.16 -0.16)">
     <defs>
      <path id="DejaVuSans-BoldOblique-35" d="M 1131 4666 
L 4122 4666 
L 3950 3781 
L 1919 3781 
L 1778 3059 
Q 1916 3097 2064 3117 
Q 2213 3138 2363 3138 
Q 3078 3138 3481 2811 
Q 3884 2484 3884 1906 
Q 3884 988 3262 448 
Q 2641 -91 1575 -91 
Q 1184 -91 815 -14 
Q 447 63 84 219 
L 269 1166 
Q 616 941 942 834 
Q 1269 728 1606 728 
Q 2100 728 2397 986 
Q 2694 1244 2694 1663 
Q 2694 1963 2469 2139 
Q 2244 2316 1856 2316 
Q 1594 2316 1289 2248 
Q 984 2181 622 2041 
L 1131 4666 
z
" transform="scale(0.015625)"/>
      <path id="DejaVuSans-BoldOblique-34" d="M 2638 3641 
L 978 1722 
L 2259 1722 
L 2638 3641 
z
M 2606 4666 
L 3975 4666 
L 3397 1722 
L 4063 1722 
L 3897 850 
L 3231 850 
L 3066 0 
L 1925 0 
L 2094 850 
L -6 850 
L 197 1881 
L 2606 4666 
z
" transform="scale(0.015625)"/>
     </defs>
     <use xlink:href="#DejaVuSans-BoldOblique-35"/>
     <use xlink:href="#DejaVuSans-BoldOblique-38" transform="translate(69.580078 0)"/>
     <use xlink:href="#DejaVuSans-BoldOblique-34" transform="translate(139.160156 0)"/>
     <use xlink:href="#DejaVuSans-BoldOblique-33" transform="translate(208.740234 0)"/>
    </g>
   </g>
   <g id="text_9">
    <!-- 6⁺ -->
    <g transform="translate(182.58336 206.334459) scale(0.23 -0.23)">
     <defs>
      <path id="TimesNewRomanPS-BoldMT-36" d="M 3006 4325 
L 3006 4238 
Q 2441 4094 2098 3867 
Q 1756 3641 1557 3317 
Q 1359 2994 1250 2516 
Q 1388 2609 1478 2638 
Q 1681 2700 1888 2700 
Q 2363 2700 2680 2354 
Q 2997 2009 2997 1413 
Q 2997 994 2825 644 
Q 2653 294 2337 103 
Q 2022 -88 1663 -88 
Q 1272 -88 940 126 
Q 609 341 423 753 
Q 238 1166 238 1650 
Q 238 2363 580 2977 
Q 922 3591 1551 3955 
Q 2181 4319 3006 4325 
z
M 1209 2263 
Q 1184 1831 1184 1631 
Q 1184 1200 1267 797 
Q 1350 394 1494 231 
Q 1597 116 1738 116 
Q 1881 116 1993 283 
Q 2106 450 2106 963 
Q 2106 1825 1897 2153 
Q 1763 2366 1534 2366 
Q 1409 2366 1209 2263 
z
" transform="scale(0.015625)"/>
     </defs>
     <use xlink:href="#TimesNewRomanPS-BoldMT-36"/>
     <use xlink:href="#DejaVuSerif-Bold-207a" transform="translate(50 0)"/>
    </g>
   </g>
   <g id="text_10">
    <!-- 2558 -->
    <g transform="translate(263.461892 361.806202) scale(0.16 -0.16)">
     <use xlink:href="#DejaVuSans-BoldOblique-32"/>
     <use xlink:href="#DejaVuSans-BoldOblique-35" transform="translate(69.580078 0)"/>
     <use xlink:href="#DejaVuSans-BoldOblique-35" transform="translate(139.160156 0)"/>
     <use xlink:href="#DejaVuSans-BoldOblique-38" transform="translate(208.740234 0)"/>
    </g>
   </g>
   <g id="text_11">
    <!-- 0⁺ -->
    <g transform="translate(432.457502 362.546436) scale(0.23 -0.23)">
     <use xlink:href="#TimesNewRomanPS-BoldMT-30"/>
     <use xlink:href="#DejaVuSerif-Bold-207a" transform="translate(50 0)"/>
    </g>
   </g>
   <g id="text_12">
    <!-- 4109 -->
    <g transform="translate(263.461892 288.056427) scale(0.16 -0.16)">
     <defs>
      <path id="DejaVuSans-BoldOblique-39" d="M 263 103 
L 428 966 
Q 700 825 953 758 
Q 1206 691 1459 691 
Q 2041 691 2400 1003 
Q 2759 1316 2834 1881 
Q 2594 1722 2337 1645 
Q 2081 1569 1791 1569 
Q 1219 1569 853 1909 
Q 488 2250 488 2778 
Q 488 3641 1052 4192 
Q 1616 4744 2503 4744 
Q 3300 4744 3736 4292 
Q 4172 3841 4172 3016 
Q 4172 2381 3978 1801 
Q 3784 1222 3431 800 
Q 3056 353 2548 128 
Q 2041 -97 1403 -97 
Q 1106 -97 825 -47 
Q 544 3 263 103 
z
M 2169 2344 
Q 2525 2344 2753 2637 
Q 2981 2931 2981 3391 
Q 2981 3675 2845 3828 
Q 2709 3981 2456 3981 
Q 2103 3981 1870 3690 
Q 1638 3400 1638 2963 
Q 1638 2663 1775 2503 
Q 1913 2344 2169 2344 
z
" transform="scale(0.015625)"/>
     </defs>
     <use xlink:href="#DejaVuSans-BoldOblique-34"/>
     <use xlink:href="#DejaVuSans-BoldOblique-31" transform="translate(69.580078 0)"/>
     <use xlink:href="#DejaVuSans-BoldOblique-30" transform="translate(139.160156 0)"/>
     <use xlink:href="#DejaVuSans-BoldOblique-39" transform="translate(208.740234 0)"/>
    </g>
   </g>
   <g id="text_13">
    <!-- 2⁺ -->
    <g transform="translate(432.457502 288.796662) scale(0.23 -0.23)">
     <use xlink:href="#TimesNewRomanPS-BoldMT-32"/>
     <use xlink:href="#DejaVuSerif-Bold-207a" transform="translate(50 0)"/>
    </g>
   </g>
   <g id="text_14">
    <!-- 6232 -->
    <g transform="translate(263.461892 187.070702) scale(0.16 -0.16)">
     <use xlink:href="#DejaVuSans-BoldOblique-36"/>
     <use xlink:href="#DejaVuSans-BoldOblique-32" transform="translate(69.580078 0)"/>
     <use xlink:href="#DejaVuSans-BoldOblique-33" transform="translate(139.160156 0)"/>
     <use xlink:href="#DejaVuSans-BoldOblique-32" transform="translate(208.740234 0)"/>
    </g>
   </g>
   <g id="text_15">
    <!-- 4⁺ -->
    <g transform="translate(432.457502 187.810937) scale(0.23 -0.23)">
     <use xlink:href="#TimesNewRomanPS-BoldMT-34"/>
     <use xlink:href="#DejaVuSerif-Bold-207a" transform="translate(50 0)"/>
    </g>
   </g>
   <g id="text_16">
    <!-- 8545 -->
    <g transform="translate(263.461892 77.079217) scale(0.16 -0.16)">
     <use xlink:href="#DejaVuSans-BoldOblique-38"/>
     <use xlink:href="#DejaVuSans-BoldOblique-35" transform="translate(69.580078 0)"/>
     <use xlink:href="#DejaVuSans-BoldOblique-34" transform="translate(139.160156 0)"/>
     <use xlink:href="#DejaVuSans-BoldOblique-35" transform="translate(208.740234 0)"/>
    </g>
   </g>
   <g id="text_17">
    <!-- 6⁺ -->
    <g transform="translate(432.457502 77.819451) scale(0.23 -0.23)">
     <use xlink:href="#TimesNewRomanPS-BoldMT-36"/>
     <use xlink:href="#DejaVuSerif-Bold-207a" transform="translate(50 0)"/>
    </g>
   </g>
   <g id="text_18">
    <!-- 3104 -->
    <g transform="translate(513.336034 335.848208) scale(0.16 -0.16)">
     <use xlink:href="#DejaVuSans-BoldOblique-33"/>
     <use xlink:href="#DejaVuSans-BoldOblique-31" transform="translate(69.580078 0)"/>
     <use xlink:href="#DejaVuSans-BoldOblique-30" transform="translate(139.160156 0)"/>
     <use xlink:href="#DejaVuSans-BoldOblique-34" transform="translate(208.740234 0)"/>
    </g>
   </g>
   <g id="text_19">
    <!-- 2⁺ -->
    <g transform="translate(682.331644 336.588443) scale(0.23 -0.23)">
     <use xlink:href="#TimesNewRomanPS-BoldMT-32"/>
     <use xlink:href="#DejaVuSerif-Bold-207a" transform="translate(50 0)"/>
    </g>
   </g>
   <g id="text_20">
    <!-- 5585 -->
    <g transform="translate(513.336034 217.862693) scale(0.16 -0.16)">
     <use xlink:href="#DejaVuSans-BoldOblique-35"/>
     <use xlink:href="#DejaVuSans-BoldOblique-35" transform="translate(69.580078 0)"/>
     <use xlink:href="#DejaVuSans-BoldOblique-38" transform="translate(139.160156 0)"/>
     <use xlink:href="#DejaVuSans-BoldOblique-35" transform="translate(208.740234 0)"/>
    </g>
   </g>
   <g id="text_21">
    <!-- 3⁺ -->
    <g transform="translate(682.331644 218.602928) scale(0.23 -0.23)">
     <defs>
      <path id="TimesNewRomanPS-BoldMT-33" d="M 947 2125 
L 947 2234 
Q 1303 2338 1440 2427 
Q 1578 2516 1678 2698 
Q 1778 2881 1778 3069 
Q 1778 3328 1589 3514 
Q 1400 3700 1119 3700 
Q 681 3700 375 3238 
L 259 3278 
Q 484 3800 836 4062 
Q 1188 4325 1619 4325 
Q 2059 4325 2345 4056 
Q 2631 3788 2631 3428 
Q 2631 3194 2498 2976 
Q 2366 2759 2081 2594 
Q 2447 2416 2639 2155 
Q 2831 1894 2831 1500 
Q 2831 838 2351 373 
Q 1872 -91 1066 -91 
Q 528 -91 281 88 
Q 103 213 103 409 
Q 103 553 206 654 
Q 309 756 444 756 
Q 547 756 638 713 
Q 688 688 992 439 
Q 1297 191 1563 191 
Q 1794 191 1959 373 
Q 2125 556 2125 838 
Q 2125 1266 1825 1627 
Q 1525 1988 947 2125 
z
" transform="scale(0.015625)"/>
     </defs>
     <use xlink:href="#TimesNewRomanPS-BoldMT-33"/>
     <use xlink:href="#DejaVuSerif-Bold-207a" transform="translate(50 0)"/>
    </g>
   </g>
   <g id="text_22">
    <path d="M 112.000555 428.4854 
L 112.000555 437.1504 
Q 112.000555 438.1254 112.085555 438.3954 
Q 112.173055 438.6654 112.445555 438.8379 
Q 112.720555 439.0079 113.323055 439.0079 
L 113.563055 439.0079 
L 113.563055 439.2979 
L 107.985555 439.2979 
L 107.985555 439.0079 
L 108.268055 439.0079 
Q 108.948055 439.0079 109.235555 438.8529 
Q 109.525555 438.6954 109.625555 438.4229 
Q 109.728055 438.1504 109.728055 437.1504 
L 109.728055 431.6579 
Q 109.728055 430.9229 109.658055 430.7404 
Q 109.588055 430.5554 109.395555 430.4279 
Q 109.205555 430.2979 108.955555 430.2979 
Q 108.555555 430.2979 107.985555 430.5479 
L 107.845555 430.2654 
L 111.743055 428.4854 
L 112.000555 428.4854 
z
M 119.120555 428.4854 
L 119.120555 437.1504 
Q 119.120555 438.1254 119.205555 438.3954 
Q 119.293055 438.6654 119.565555 438.8379 
Q 119.840555 439.0079 120.443055 439.0079 
L 120.683055 439.0079 
L 120.683055 439.2979 
L 115.105555 439.2979 
L 115.105555 439.0079 
L 115.388055 439.0079 
Q 116.068055 439.0079 116.355555 438.8529 
Q 116.645555 438.6954 116.745555 438.4229 
Q 116.848055 438.1504 116.848055 437.1504 
L 116.848055 431.6579 
Q 116.848055 430.9229 116.778055 430.7404 
Q 116.708055 430.5554 116.515555 430.4279 
Q 116.325555 430.2979 116.075555 430.2979 
Q 115.675555 430.2979 115.105555 430.5479 
L 114.965555 430.2654 
L 118.863055 428.4854 
L 119.120555 428.4854 
z
M 123.910555 436.8904 
Q 124.458055 436.8904 124.835555 437.2754 
Q 125.215555 437.6579 125.215555 438.1954 
Q 125.215555 438.7354 124.833055 439.1154 
Q 124.450555 439.4929 123.910555 439.4929 
Q 123.370555 439.4929 122.990555 439.1154 
Q 122.613055 438.7354 122.613055 438.1954 
Q 122.613055 437.6579 122.990555 437.2754 
Q 123.370555 436.8904 123.910555 436.8904 
z
M 131.120555 428.4854 
L 131.120555 437.1504 
Q 131.120555 438.1254 131.205555 438.3954 
Q 131.293055 438.6654 131.565555 438.8379 
Q 131.840555 439.0079 132.443055 439.0079 
L 132.683055 439.0079 
L 132.683055 439.2979 
L 127.105555 439.2979 
L 127.105555 439.0079 
L 127.388055 439.0079 
Q 128.068055 439.0079 128.355555 438.8529 
Q 128.645555 438.6954 128.745555 438.4229 
Q 128.848055 438.1504 128.848055 437.1504 
L 128.848055 431.6579 
Q 128.848055 430.9229 128.778055 430.7404 
Q 128.708055 430.5554 128.515555 430.4279 
Q 128.325555 430.2979 128.075555 430.2979 
Q 127.675555 430.2979 127.105555 430.5479 
L 126.965555 430.2654 
L 130.863055 428.4854 
L 131.120555 428.4854 
z
" style="stroke: #ffffff; stroke-width: 3.8"/>
    <path d="M 112.000555 428.4854 
L 112.000555 437.1504 
Q 112.000555 438.1254 112.085555 438.3954 
Q 112.173055 438.6654 112.445555 438.8379 
Q 112.720555 439.0079 113.323055 439.0079 
L 113.563055 439.0079 
L 113.563055 439.2979 
L 107.985555 439.2979 
L 107.985555 439.0079 
L 108.268055 439.0079 
Q 108.948055 439.0079 109.235555 438.8529 
Q 109.525555 438.6954 109.625555 438.4229 
Q 109.728055 438.1504 109.728055 437.1504 
L 109.728055 431.6579 
Q 109.728055 430.9229 109.658055 430.7404 
Q 109.588055 430.5554 109.395555 430.4279 
Q 109.205555 430.2979 108.955555 430.2979 
Q 108.555555 430.2979 107.985555 430.5479 
L 107.845555 430.2654 
L 111.743055 428.4854 
L 112.000555 428.4854 
z
M 119.120555 428.4854 
L 119.120555 437.1504 
Q 119.120555 438.1254 119.205555 438.3954 
Q 119.293055 438.6654 119.565555 438.8379 
Q 119.840555 439.0079 120.443055 439.0079 
L 120.683055 439.0079 
L 120.683055 439.2979 
L 115.105555 439.2979 
L 115.105555 439.0079 
L 115.388055 439.0079 
Q 116.068055 439.0079 116.355555 438.8529 
Q 116.645555 438.6954 116.745555 438.4229 
Q 116.848055 438.1504 116.848055 437.1504 
L 116.848055 431.6579 
Q 116.848055 430.9229 116.778055 430.7404 
Q 116.708055 430.5554 116.515555 430.4279 
Q 116.325555 430.2979 116.075555 430.2979 
Q 115.675555 430.2979 115.105555 430.5479 
L 114.965555 430.2654 
L 118.863055 428.4854 
L 119.120555 428.4854 
z
M 123.910555 436.8904 
Q 124.458055 436.8904 124.835555 437.2754 
Q 125.215555 437.6579 125.215555 438.1954 
Q 125.215555 438.7354 124.833055 439.1154 
Q 124.450555 439.4929 123.910555 439.4929 
Q 123.370555 439.4929 122.990555 439.1154 
Q 122.613055 438.7354 122.613055 438.1954 
Q 122.613055 437.6579 122.990555 437.2754 
Q 123.370555 436.8904 123.910555 436.8904 
z
M 131.120555 428.4854 
L 131.120555 437.1504 
Q 131.120555 438.1254 131.205555 438.3954 
Q 131.293055 438.6654 131.565555 438.8379 
Q 131.840555 439.0079 132.443055 439.0079 
L 132.683055 439.0079 
L 132.683055 439.2979 
L 127.105555 439.2979 
L 127.105555 439.0079 
L 127.388055 439.0079 
Q 128.068055 439.0079 128.355555 438.8529 
Q 128.645555 438.6954 128.745555 438.4229 
Q 128.848055 438.1504 128.848055 437.1504 
L 128.848055 431.6579 
Q 128.848055 430.9229 128.778055 430.7404 
Q 128.708055 430.5554 128.515555 430.4279 
Q 128.325555 430.2979 128.075555 430.2979 
Q 127.675555 430.2979 127.105555 430.5479 
L 126.965555 430.2654 
L 130.863055 428.4854 
L 131.120555 428.4854 
z
"/>
   </g>
   <g id="text_23">
    <path d="M 112.975555 347.437114 
L 106.740555 347.437114 
L 106.740555 347.264614 
Q 109.608055 343.852114 110.220555 342.672114 
Q 110.835555 341.492114 110.835555 340.367114 
Q 110.835555 339.547114 110.328055 339.004614 
Q 109.820555 338.459614 109.085555 338.459614 
Q 107.883055 338.459614 107.218055 339.664614 
L 106.928055 339.562114 
Q 107.350555 338.062114 108.210555 337.344614 
Q 109.070555 336.624614 110.195555 336.624614 
Q 110.998055 336.624614 111.663055 336.999614 
Q 112.328055 337.374614 112.703055 338.027114 
Q 113.078055 338.679614 113.078055 339.249614 
Q 113.078055 340.289614 112.498055 341.359614 
Q 111.710555 342.804614 109.053055 345.389614 
L 111.343055 345.389614 
Q 112.185555 345.389614 112.440555 345.319614 
Q 112.695555 345.249614 112.858055 345.082114 
Q 113.023055 344.914614 113.288055 344.374614 
L 113.570555 344.374614 
L 112.975555 347.437114 
z
M 116.718055 342.124614 
L 116.718055 341.852114 
Q 117.608055 341.592114 117.950555 341.369614 
Q 118.295555 341.147114 118.545555 340.692114 
Q 118.795555 340.234614 118.795555 339.764614 
Q 118.795555 339.117114 118.323055 338.652114 
Q 117.850555 338.187114 117.148055 338.187114 
Q 116.053055 338.187114 115.288055 339.342114 
L 114.998055 339.242114 
Q 115.560555 337.937114 116.440555 337.282114 
Q 117.320555 336.624614 118.398055 336.624614 
Q 119.498055 336.624614 120.213055 337.297114 
Q 120.928055 337.967114 120.928055 338.867114 
Q 120.928055 339.452114 120.595555 339.997114 
Q 120.265555 340.539614 119.553055 340.952114 
Q 120.468055 341.397114 120.948055 342.049614 
Q 121.428055 342.702114 121.428055 343.687114 
Q 121.428055 345.342114 120.228055 346.504614 
Q 119.030555 347.664614 117.015555 347.664614 
Q 115.670555 347.664614 115.053055 347.217114 
Q 114.608055 346.904614 114.608055 346.414614 
Q 114.608055 346.054614 114.865555 345.802114 
Q 115.123055 345.547114 115.460555 345.547114 
Q 115.718055 345.547114 115.945555 345.654614 
Q 116.070555 345.717114 116.830555 346.339614 
Q 117.593055 346.959614 118.258055 346.959614 
Q 118.835555 346.959614 119.248055 346.504614 
Q 119.663055 346.047114 119.663055 345.342114 
Q 119.663055 344.272114 118.913055 343.369614 
Q 118.163055 342.467114 116.718055 342.124614 
z
M 124.350555 345.029614 
Q 124.898055 345.029614 125.275555 345.414614 
Q 125.655555 345.797114 125.655555 346.334614 
Q 125.655555 346.874614 125.273055 347.254614 
Q 124.890555 347.632114 124.350555 347.632114 
Q 123.810555 347.632114 123.430555 347.254614 
Q 123.053055 346.874614 123.053055 346.334614 
Q 123.053055 345.797114 123.430555 345.414614 
Q 123.810555 345.029614 124.350555 345.029614 
z
M 128.788055 336.842114 
L 133.748055 336.842114 
L 132.960555 338.859614 
L 128.788055 338.859614 
L 128.390555 339.914614 
Q 131.085555 340.014614 132.538055 341.257114 
Q 133.733055 342.279614 133.733055 343.804614 
Q 133.733055 344.779614 133.178055 345.714614 
Q 132.623055 346.647114 131.615555 347.152114 
Q 130.608055 347.657114 129.405555 347.657114 
Q 128.108055 347.657114 127.413055 347.172114 
Q 126.928055 346.827114 126.928055 346.389614 
Q 126.928055 346.054614 127.180555 345.797114 
Q 127.435555 345.539614 127.773055 345.539614 
Q 128.078055 345.539614 128.390555 345.664614 
Q 128.703055 345.789614 129.460555 346.319614 
Q 129.935555 346.647114 130.280555 346.772114 
Q 130.523055 346.867114 130.828055 346.867114 
Q 131.468055 346.867114 131.915555 346.399614 
Q 132.365555 345.929614 132.365555 345.272114 
Q 132.365555 343.897114 130.990555 343.039614 
Q 129.615555 342.179614 127.523055 342.179614 
Q 127.310555 342.179614 126.890555 342.187114 
L 128.788055 336.842114 
z
" style="stroke: #ffffff; stroke-width: 3.8"/>
    <path d="M 112.975555 347.437114 
L 106.740555 347.437114 
L 106.740555 347.264614 
Q 109.608055 343.852114 110.220555 342.672114 
Q 110.835555 341.492114 110.835555 340.367114 
Q 110.835555 339.547114 110.328055 339.004614 
Q 109.820555 338.459614 109.085555 338.459614 
Q 107.883055 338.459614 107.218055 339.664614 
L 106.928055 339.562114 
Q 107.350555 338.062114 108.210555 337.344614 
Q 109.070555 336.624614 110.195555 336.624614 
Q 110.998055 336.624614 111.663055 336.999614 
Q 112.328055 337.374614 112.703055 338.027114 
Q 113.078055 338.679614 113.078055 339.249614 
Q 113.078055 340.289614 112.498055 341.359614 
Q 111.710555 342.804614 109.053055 345.389614 
L 111.343055 345.389614 
Q 112.185555 345.389614 112.440555 345.319614 
Q 112.695555 345.249614 112.858055 345.082114 
Q 113.023055 344.914614 113.288055 344.374614 
L 113.570555 344.374614 
L 112.975555 347.437114 
z
M 116.718055 342.124614 
L 116.718055 341.852114 
Q 117.608055 341.592114 117.950555 341.369614 
Q 118.295555 341.147114 118.545555 340.692114 
Q 118.795555 340.234614 118.795555 339.764614 
Q 118.795555 339.117114 118.323055 338.652114 
Q 117.850555 338.187114 117.148055 338.187114 
Q 116.053055 338.187114 115.288055 339.342114 
L 114.998055 339.242114 
Q 115.560555 337.937114 116.440555 337.282114 
Q 117.320555 336.624614 118.398055 336.624614 
Q 119.498055 336.624614 120.213055 337.297114 
Q 120.928055 337.967114 120.928055 338.867114 
Q 120.928055 339.452114 120.595555 339.997114 
Q 120.265555 340.539614 119.553055 340.952114 
Q 120.468055 341.397114 120.948055 342.049614 
Q 121.428055 342.702114 121.428055 343.687114 
Q 121.428055 345.342114 120.228055 346.504614 
Q 119.030555 347.664614 117.015555 347.664614 
Q 115.670555 347.664614 115.053055 347.217114 
Q 114.608055 346.904614 114.608055 346.414614 
Q 114.608055 346.054614 114.865555 345.802114 
Q 115.123055 345.547114 115.460555 345.547114 
Q 115.718055 345.547114 115.945555 345.654614 
Q 116.070555 345.717114 116.830555 346.339614 
Q 117.593055 346.959614 118.258055 346.959614 
Q 118.835555 346.959614 119.248055 346.504614 
Q 119.663055 346.047114 119.663055 345.342114 
Q 119.663055 344.272114 118.913055 343.369614 
Q 118.163055 342.467114 116.718055 342.124614 
z
M 124.350555 345.029614 
Q 124.898055 345.029614 125.275555 345.414614 
Q 125.655555 345.797114 125.655555 346.334614 
Q 125.655555 346.874614 125.273055 347.254614 
Q 124.890555 347.632114 124.350555 347.632114 
Q 123.810555 347.632114 123.430555 347.254614 
Q 123.053055 346.874614 123.053055 346.334614 
Q 123.053055 345.797114 123.430555 345.414614 
Q 123.810555 345.029614 124.350555 345.029614 
z
M 128.788055 336.842114 
L 133.748055 336.842114 
L 132.960555 338.859614 
L 128.788055 338.859614 
L 128.390555 339.914614 
Q 131.085555 340.014614 132.538055 341.257114 
Q 133.733055 342.279614 133.733055 343.804614 
Q 133.733055 344.779614 133.178055 345.714614 
Q 132.623055 346.647114 131.615555 347.152114 
Q 130.608055 347.657114 129.405555 347.657114 
Q 128.108055 347.657114 127.413055 347.172114 
Q 126.928055 346.827114 126.928055 346.389614 
Q 126.928055 346.054614 127.180555 345.797114 
Q 127.435555 345.539614 127.773055 345.539614 
Q 128.078055 345.539614 128.390555 345.664614 
Q 128.703055 345.789614 129.460555 346.319614 
Q 129.935555 346.647114 130.280555 346.772114 
Q 130.523055 346.867114 130.828055 346.867114 
Q 131.468055 346.867114 131.915555 346.399614 
Q 132.365555 345.929614 132.365555 345.272114 
Q 132.365555 343.897114 130.990555 343.039614 
Q 129.615555 342.179614 127.523055 342.179614 
Q 127.310555 342.179614 126.890555 342.187114 
L 128.788055 336.842114 
z
"/>
   </g>
   <g id="text_24">
    <path d="M 106.748055 247.847236 
L 111.780555 241.027236 
L 112.733055 241.027236 
L 112.733055 247.847236 
L 113.703055 247.847236 
L 113.703055 249.464736 
L 112.733055 249.464736 
L 112.733055 251.839736 
L 110.585555 251.839736 
L 110.585555 249.464736 
L 106.748055 249.464736 
L 106.748055 247.847236 
z
M 107.508055 247.847236 
L 110.585555 247.847236 
L 110.585555 243.667236 
L 107.508055 247.847236 
z
M 116.788055 241.244736 
L 121.748055 241.244736 
L 120.960555 243.262236 
L 116.788055 243.262236 
L 116.390555 244.317236 
Q 119.085555 244.417236 120.538055 245.659736 
Q 121.733055 246.682236 121.733055 248.207236 
Q 121.733055 249.182236 121.178055 250.117236 
Q 120.623055 251.049736 119.615555 251.554736 
Q 118.608055 252.059736 117.405555 252.059736 
Q 116.108055 252.059736 115.413055 251.574736 
Q 114.928055 251.229736 114.928055 250.792236 
Q 114.928055 250.457236 115.180555 250.199736 
Q 115.435555 249.942236 115.773055 249.942236 
Q 116.078055 249.942236 116.390555 250.067236 
Q 116.703055 250.192236 117.460555 250.722236 
Q 117.935555 251.049736 118.280555 251.174736 
Q 118.523055 251.269736 118.828055 251.269736 
Q 119.468055 251.269736 119.915555 250.802236 
Q 120.365555 250.332236 120.365555 249.674736 
Q 120.365555 248.299736 118.990555 247.442236 
Q 117.615555 246.582236 115.523055 246.582236 
Q 115.310555 246.582236 114.890555 246.589736 
L 116.788055 241.244736 
z
M 124.350555 249.432236 
Q 124.898055 249.432236 125.275555 249.817236 
Q 125.655555 250.199736 125.655555 250.737236 
Q 125.655555 251.277236 125.273055 251.657236 
Q 124.890555 252.034736 124.350555 252.034736 
Q 123.810555 252.034736 123.430555 251.657236 
Q 123.053055 251.277236 123.053055 250.737236 
Q 123.053055 250.199736 123.430555 249.817236 
Q 123.810555 249.432236 124.350555 249.432236 
z
M 132.975555 251.839736 
L 126.740555 251.839736 
L 126.740555 251.667236 
Q 129.608055 248.254736 130.220555 247.074736 
Q 130.835555 245.894736 130.835555 244.769736 
Q 130.835555 243.949736 130.328055 243.407236 
Q 129.820555 242.862236 129.085555 242.862236 
Q 127.883055 242.862236 127.218055 244.067236 
L 126.928055 243.964736 
Q 127.350555 242.464736 128.210555 241.747236 
Q 129.070555 241.027236 130.195555 241.027236 
Q 130.998055 241.027236 131.663055 241.402236 
Q 132.328055 241.777236 132.703055 242.429736 
Q 133.078055 243.082236 133.078055 243.652236 
Q 133.078055 244.692236 132.498055 245.762236 
Q 131.710555 247.207236 129.053055 249.792236 
L 131.343055 249.792236 
Q 132.185555 249.792236 132.440555 249.722236 
Q 132.695555 249.652236 132.858055 249.484736 
Q 133.023055 249.317236 133.288055 248.777236 
L 133.570555 248.777236 
L 132.975555 251.839736 
z
" style="stroke: #ffffff; stroke-width: 3.8"/>
    <path d="M 106.748055 247.847236 
L 111.780555 241.027236 
L 112.733055 241.027236 
L 112.733055 247.847236 
L 113.703055 247.847236 
L 113.703055 249.464736 
L 112.733055 249.464736 
L 112.733055 251.839736 
L 110.585555 251.839736 
L 110.585555 249.464736 
L 106.748055 249.464736 
L 106.748055 247.847236 
z
M 107.508055 247.847236 
L 110.585555 247.847236 
L 110.585555 243.667236 
L 107.508055 247.847236 
z
M 116.788055 241.244736 
L 121.748055 241.244736 
L 120.960555 243.262236 
L 116.788055 243.262236 
L 116.390555 244.317236 
Q 119.085555 244.417236 120.538055 245.659736 
Q 121.733055 246.682236 121.733055 248.207236 
Q 121.733055 249.182236 121.178055 250.117236 
Q 120.623055 251.049736 119.615555 251.554736 
Q 118.608055 252.059736 117.405555 252.059736 
Q 116.108055 252.059736 115.413055 251.574736 
Q 114.928055 251.229736 114.928055 250.792236 
Q 114.928055 250.457236 115.180555 250.199736 
Q 115.435555 249.942236 115.773055 249.942236 
Q 116.078055 249.942236 116.390555 250.067236 
Q 116.703055 250.192236 117.460555 250.722236 
Q 117.935555 251.049736 118.280555 251.174736 
Q 118.523055 251.269736 118.828055 251.269736 
Q 119.468055 251.269736 119.915555 250.802236 
Q 120.365555 250.332236 120.365555 249.674736 
Q 120.365555 248.299736 118.990555 247.442236 
Q 117.615555 246.582236 115.523055 246.582236 
Q 115.310555 246.582236 114.890555 246.589736 
L 116.788055 241.244736 
z
M 124.350555 249.432236 
Q 124.898055 249.432236 125.275555 249.817236 
Q 125.655555 250.199736 125.655555 250.737236 
Q 125.655555 251.277236 125.273055 251.657236 
Q 124.890555 252.034736 124.350555 252.034736 
Q 123.810555 252.034736 123.430555 251.657236 
Q 123.053055 251.277236 123.053055 250.737236 
Q 123.053055 250.199736 123.430555 249.817236 
Q 123.810555 249.432236 124.350555 249.432236 
z
M 132.975555 251.839736 
L 126.740555 251.839736 
L 126.740555 251.667236 
Q 129.608055 248.254736 130.220555 247.074736 
Q 130.835555 245.894736 130.835555 244.769736 
Q 130.835555 243.949736 130.328055 243.407236 
Q 129.820555 242.862236 129.085555 242.862236 
Q 127.883055 242.862236 127.218055 244.067236 
L 126.928055 243.964736 
Q 127.350555 242.464736 128.210555 241.747236 
Q 129.070555 241.027236 130.195555 241.027236 
Q 130.998055 241.027236 131.663055 241.402236 
Q 132.328055 241.777236 132.703055 242.429736 
Q 133.078055 243.082236 133.078055 243.652236 
Q 133.078055 244.692236 132.498055 245.762236 
Q 131.710555 247.207236 129.053055 249.792236 
L 131.343055 249.792236 
Q 132.185555 249.792236 132.440555 249.722236 
Q 132.695555 249.652236 132.858055 249.484736 
Q 133.023055 249.317236 133.288055 248.777236 
L 133.570555 248.777236 
L 132.975555 251.839736 
z
"/>
   </g>
   <g id="text_25">
    <path d="M 361.434697 313.290064 
L 361.434697 321.955064 
Q 361.434697 322.930064 361.519697 323.200064 
Q 361.607197 323.470064 361.879697 323.642564 
Q 362.154697 323.812564 362.757197 323.812564 
L 362.997197 323.812564 
L 362.997197 324.102564 
L 357.419697 324.102564 
L 357.419697 323.812564 
L 357.702197 323.812564 
Q 358.382197 323.812564 358.669697 323.657564 
Q 358.959697 323.500064 359.059697 323.227564 
Q 359.162197 322.955064 359.162197 321.955064 
L 359.162197 316.462564 
Q 359.162197 315.727564 359.092197 315.545064 
Q 359.022197 315.360064 358.829697 315.232564 
Q 358.639697 315.102564 358.389697 315.102564 
Q 357.989697 315.102564 357.419697 315.352564 
L 357.279697 315.070064 
L 361.177197 313.290064 
L 361.434697 313.290064 
z
M 364.622197 320.110064 
L 369.654697 313.290064 
L 370.607197 313.290064 
L 370.607197 320.110064 
L 371.577197 320.110064 
L 371.577197 321.727564 
L 370.607197 321.727564 
L 370.607197 324.102564 
L 368.459697 324.102564 
L 368.459697 321.727564 
L 364.622197 321.727564 
L 364.622197 320.110064 
z
M 365.382197 320.110064 
L 368.459697 320.110064 
L 368.459697 315.930064 
L 365.382197 320.110064 
z
M 374.224697 321.695064 
Q 374.772197 321.695064 375.149697 322.080064 
Q 375.529697 322.462564 375.529697 323.000064 
Q 375.529697 323.540064 375.147197 323.920064 
Q 374.764697 324.297564 374.224697 324.297564 
Q 373.684697 324.297564 373.304697 323.920064 
Q 372.927197 323.540064 372.927197 323.000064 
Q 372.927197 322.462564 373.304697 322.080064 
Q 373.684697 321.695064 374.224697 321.695064 
z
M 379.059697 324.322564 
L 381.944697 315.580064 
L 379.747197 315.580064 
Q 378.459697 315.580064 377.809697 315.915064 
Q 377.357197 316.150064 377.059697 316.797564 
L 376.764697 316.797564 
L 377.529697 313.507564 
L 383.842197 313.507564 
L 380.287197 324.322564 
L 379.059697 324.322564 
z
" style="stroke: #ffffff; stroke-width: 3.8"/>
    <path d="M 361.434697 313.290064 
L 361.434697 321.955064 
Q 361.434697 322.930064 361.519697 323.200064 
Q 361.607197 323.470064 361.879697 323.642564 
Q 362.154697 323.812564 362.757197 323.812564 
L 362.997197 323.812564 
L 362.997197 324.102564 
L 357.419697 324.102564 
L 357.419697 323.812564 
L 357.702197 323.812564 
Q 358.382197 323.812564 358.669697 323.657564 
Q 358.959697 323.500064 359.059697 323.227564 
Q 359.162197 322.955064 359.162197 321.955064 
L 359.162197 316.462564 
Q 359.162197 315.727564 359.092197 315.545064 
Q 359.022197 315.360064 358.829697 315.232564 
Q 358.639697 315.102564 358.389697 315.102564 
Q 357.989697 315.102564 357.419697 315.352564 
L 357.279697 315.070064 
L 361.177197 313.290064 
L 361.434697 313.290064 
z
M 364.622197 320.110064 
L 369.654697 313.290064 
L 370.607197 313.290064 
L 370.607197 320.110064 
L 371.577197 320.110064 
L 371.577197 321.727564 
L 370.607197 321.727564 
L 370.607197 324.102564 
L 368.459697 324.102564 
L 368.459697 321.727564 
L 364.622197 321.727564 
L 364.622197 320.110064 
z
M 365.382197 320.110064 
L 368.459697 320.110064 
L 368.459697 315.930064 
L 365.382197 320.110064 
z
M 374.224697 321.695064 
Q 374.772197 321.695064 375.149697 322.080064 
Q 375.529697 322.462564 375.529697 323.000064 
Q 375.529697 323.540064 375.147197 323.920064 
Q 374.764697 324.297564 374.224697 324.297564 
Q 373.684697 324.297564 373.304697 323.920064 
Q 372.927197 323.540064 372.927197 323.000064 
Q 372.927197 322.462564 373.304697 322.080064 
Q 373.684697 321.695064 374.224697 321.695064 
z
M 379.059697 324.322564 
L 381.944697 315.580064 
L 379.747197 315.580064 
Q 378.459697 315.580064 377.809697 315.915064 
Q 377.357197 316.150064 377.059697 316.797564 
L 376.764697 316.797564 
L 377.529697 313.507564 
L 383.842197 313.507564 
L 380.287197 324.322564 
L 379.059697 324.322564 
z
"/>
   </g>
   <g id="text_26">
    <path d="M 362.849697 236.734815 
L 356.614697 236.734815 
L 356.614697 236.562315 
Q 359.482197 233.149815 360.094697 231.969815 
Q 360.709697 230.789815 360.709697 229.664815 
Q 360.709697 228.844815 360.202197 228.302315 
Q 359.694697 227.757315 358.959697 227.757315 
Q 357.757197 227.757315 357.092197 228.962315 
L 356.802197 228.859815 
Q 357.224697 227.359815 358.084697 226.642315 
Q 358.944697 225.922315 360.069697 225.922315 
Q 360.872197 225.922315 361.537197 226.297315 
Q 362.202197 226.672315 362.577197 227.324815 
Q 362.952197 227.977315 362.952197 228.547315 
Q 362.952197 229.587315 362.372197 230.657315 
Q 361.584697 232.102315 358.927197 234.687315 
L 361.217197 234.687315 
Q 362.059697 234.687315 362.314697 234.617315 
Q 362.569697 234.547315 362.732197 234.379815 
Q 362.897197 234.212315 363.162197 233.672315 
L 363.444697 233.672315 
L 362.849697 236.734815 
z
M 366.662197 226.139815 
L 371.622197 226.139815 
L 370.834697 228.157315 
L 366.662197 228.157315 
L 366.264697 229.212315 
Q 368.959697 229.312315 370.412197 230.554815 
Q 371.607197 231.577315 371.607197 233.102315 
Q 371.607197 234.077315 371.052197 235.012315 
Q 370.497197 235.944815 369.489697 236.449815 
Q 368.482197 236.954815 367.279697 236.954815 
Q 365.982197 236.954815 365.287197 236.469815 
Q 364.802197 236.124815 364.802197 235.687315 
Q 364.802197 235.352315 365.054697 235.094815 
Q 365.309697 234.837315 365.647197 234.837315 
Q 365.952197 234.837315 366.264697 234.962315 
Q 366.577197 235.087315 367.334697 235.617315 
Q 367.809697 235.944815 368.154697 236.069815 
Q 368.397197 236.164815 368.702197 236.164815 
Q 369.342197 236.164815 369.789697 235.697315 
Q 370.239697 235.227315 370.239697 234.569815 
Q 370.239697 233.194815 368.864697 232.337315 
Q 367.489697 231.477315 365.397197 231.477315 
Q 365.184697 231.477315 364.764697 231.484815 
L 366.662197 226.139815 
z
M 374.224697 234.327315 
Q 374.772197 234.327315 375.149697 234.712315 
Q 375.529697 235.094815 375.529697 235.632315 
Q 375.529697 236.172315 375.147197 236.552315 
Q 374.764697 236.929815 374.224697 236.929815 
Q 373.684697 236.929815 373.304697 236.552315 
Q 372.927197 236.172315 372.927197 235.632315 
Q 372.927197 235.094815 373.304697 234.712315 
Q 373.684697 234.327315 374.224697 234.327315 
z
M 376.622197 232.742315 
L 381.654697 225.922315 
L 382.607197 225.922315 
L 382.607197 232.742315 
L 383.577197 232.742315 
L 383.577197 234.359815 
L 382.607197 234.359815 
L 382.607197 236.734815 
L 380.459697 236.734815 
L 380.459697 234.359815 
L 376.622197 234.359815 
L 376.622197 232.742315 
z
M 377.382197 232.742315 
L 380.459697 232.742315 
L 380.459697 228.562315 
L 377.382197 232.742315 
z
" style="stroke: #ffffff; stroke-width: 3.8"/>
    <path d="M 362.849697 236.734815 
L 356.614697 236.734815 
L 356.614697 236.562315 
Q 359.482197 233.149815 360.094697 231.969815 
Q 360.709697 230.789815 360.709697 229.664815 
Q 360.709697 228.844815 360.202197 228.302315 
Q 359.694697 227.757315 358.959697 227.757315 
Q 357.757197 227.757315 357.092197 228.962315 
L 356.802197 228.859815 
Q 357.224697 227.359815 358.084697 226.642315 
Q 358.944697 225.922315 360.069697 225.922315 
Q 360.872197 225.922315 361.537197 226.297315 
Q 362.202197 226.672315 362.577197 227.324815 
Q 362.952197 227.977315 362.952197 228.547315 
Q 362.952197 229.587315 362.372197 230.657315 
Q 361.584697 232.102315 358.927197 234.687315 
L 361.217197 234.687315 
Q 362.059697 234.687315 362.314697 234.617315 
Q 362.569697 234.547315 362.732197 234.379815 
Q 362.897197 234.212315 363.162197 233.672315 
L 363.444697 233.672315 
L 362.849697 236.734815 
z
M 366.662197 226.139815 
L 371.622197 226.139815 
L 370.834697 228.157315 
L 366.662197 228.157315 
L 366.264697 229.212315 
Q 368.959697 229.312315 370.412197 230.554815 
Q 371.607197 231.577315 371.607197 233.102315 
Q 371.607197 234.077315 371.052197 235.012315 
Q 370.497197 235.944815 369.489697 236.449815 
Q 368.482197 236.954815 367.279697 236.954815 
Q 365.982197 236.954815 365.287197 236.469815 
Q 364.802197 236.124815 364.802197 235.687315 
Q 364.802197 235.352315 365.054697 235.094815 
Q 365.309697 234.837315 365.647197 234.837315 
Q 365.952197 234.837315 366.264697 234.962315 
Q 366.577197 235.087315 367.334697 235.617315 
Q 367.809697 235.944815 368.154697 236.069815 
Q 368.397197 236.164815 368.702197 236.164815 
Q 369.342197 236.164815 369.789697 235.697315 
Q 370.239697 235.227315 370.239697 234.569815 
Q 370.239697 233.194815 368.864697 232.337315 
Q 367.489697 231.477315 365.397197 231.477315 
Q 365.184697 231.477315 364.764697 231.484815 
L 366.662197 226.139815 
z
M 374.224697 234.327315 
Q 374.772197 234.327315 375.149697 234.712315 
Q 375.529697 235.094815 375.529697 235.632315 
Q 375.529697 236.172315 375.147197 236.552315 
Q 374.764697 236.929815 374.224697 236.929815 
Q 373.684697 236.929815 373.304697 236.552315 
Q 372.927197 236.172315 372.927197 235.632315 
Q 372.927197 235.094815 373.304697 234.712315 
Q 373.684697 234.327315 374.224697 234.327315 
z
M 376.622197 232.742315 
L 381.654697 225.922315 
L 382.607197 225.922315 
L 382.607197 232.742315 
L 383.577197 232.742315 
L 383.577197 234.359815 
L 382.607197 234.359815 
L 382.607197 236.734815 
L 380.459697 236.734815 
L 380.459697 234.359815 
L 376.622197 234.359815 
L 376.622197 232.742315 
z
M 377.382197 232.742315 
L 380.459697 232.742315 
L 380.459697 228.562315 
L 377.382197 232.742315 
z
"/>
   </g>
   <g id="text_27">
    <path d="M 358.592197 125.93371 
L 358.592197 125.66121 
Q 359.482197 125.40121 359.824697 125.17871 
Q 360.169697 124.95621 360.419697 124.50121 
Q 360.669697 124.04371 360.669697 123.57371 
Q 360.669697 122.92621 360.197197 122.46121 
Q 359.724697 121.99621 359.022197 121.99621 
Q 357.927197 121.99621 357.162197 123.15121 
L 356.872197 123.05121 
Q 357.434697 121.74621 358.314697 121.09121 
Q 359.194697 120.43371 360.272197 120.43371 
Q 361.372197 120.43371 362.087197 121.10621 
Q 362.802197 121.77621 362.802197 122.67621 
Q 362.802197 123.26121 362.469697 123.80621 
Q 362.139697 124.34871 361.427197 124.76121 
Q 362.342197 125.20621 362.822197 125.85871 
Q 363.302197 126.51121 363.302197 127.49621 
Q 363.302197 129.15121 362.102197 130.31371 
Q 360.904697 131.47371 358.889697 131.47371 
Q 357.544697 131.47371 356.927197 131.02621 
Q 356.482197 130.71371 356.482197 130.22371 
Q 356.482197 129.86371 356.739697 129.61121 
Q 356.997197 129.35621 357.334697 129.35621 
Q 357.592197 129.35621 357.819697 129.46371 
Q 357.944697 129.52621 358.704697 130.14871 
Q 359.467197 130.76871 360.132197 130.76871 
Q 360.709697 130.76871 361.122197 130.31371 
Q 361.537197 129.85621 361.537197 129.15121 
Q 361.537197 128.08121 360.787197 127.17871 
Q 360.037197 126.27621 358.592197 125.93371 
z
M 366.662197 120.65121 
L 371.622197 120.65121 
L 370.834697 122.66871 
L 366.662197 122.66871 
L 366.264697 123.72371 
Q 368.959697 123.82371 370.412197 125.06621 
Q 371.607197 126.08871 371.607197 127.61371 
Q 371.607197 128.58871 371.052197 129.52371 
Q 370.497197 130.45621 369.489697 130.96121 
Q 368.482197 131.46621 367.279697 131.46621 
Q 365.982197 131.46621 365.287197 130.98121 
Q 364.802197 130.63621 364.802197 130.19871 
Q 364.802197 129.86371 365.054697 129.60621 
Q 365.309697 129.34871 365.647197 129.34871 
Q 365.952197 129.34871 366.264697 129.47371 
Q 366.577197 129.59871 367.334697 130.12871 
Q 367.809697 130.45621 368.154697 130.58121 
Q 368.397197 130.67621 368.702197 130.67621 
Q 369.342197 130.67621 369.789697 130.20871 
Q 370.239697 129.73871 370.239697 129.08121 
Q 370.239697 127.70621 368.864697 126.84871 
Q 367.489697 125.98871 365.397197 125.98871 
Q 365.184697 125.98871 364.764697 125.99621 
L 366.662197 120.65121 
z
M 374.224697 128.83871 
Q 374.772197 128.83871 375.149697 129.22371 
Q 375.529697 129.60621 375.529697 130.14371 
Q 375.529697 130.68371 375.147197 131.06371 
Q 374.764697 131.44121 374.224697 131.44121 
Q 373.684697 131.44121 373.304697 131.06371 
Q 372.927197 130.68371 372.927197 130.14371 
Q 372.927197 129.60621 373.304697 129.22371 
Q 373.684697 128.83871 374.224697 128.83871 
z
M 383.739697 120.43371 
L 383.739697 120.65121 
Q 382.327197 121.01121 381.469697 121.57871 
Q 380.614697 122.14371 380.117197 122.95371 
Q 379.622197 123.76121 379.349697 124.95621 
Q 379.694697 124.72371 379.919697 124.65121 
Q 380.427197 124.49621 380.944697 124.49621 
Q 382.132197 124.49621 382.924697 125.36121 
Q 383.717197 126.22371 383.717197 127.71371 
Q 383.717197 128.76121 383.287197 129.63621 
Q 382.857197 130.51121 382.067197 130.98871 
Q 381.279697 131.46621 380.382197 131.46621 
Q 379.404697 131.46621 378.574697 130.93121 
Q 377.747197 130.39371 377.282197 129.36371 
Q 376.819697 128.33121 376.819697 127.12121 
Q 376.819697 125.33871 377.674697 123.80371 
Q 378.529697 122.26871 380.102197 121.35871 
Q 381.677197 120.44871 383.739697 120.43371 
z
M 379.247197 125.58871 
Q 379.184697 126.66871 379.184697 127.16871 
Q 379.184697 128.24621 379.392197 129.25371 
Q 379.599697 130.26121 379.959697 130.66871 
Q 380.217197 130.95621 380.569697 130.95621 
Q 380.927197 130.95621 381.207197 130.53871 
Q 381.489697 130.12121 381.489697 128.83871 
Q 381.489697 126.68371 380.967197 125.86371 
Q 380.632197 125.33121 380.059697 125.33121 
Q 379.747197 125.33121 379.247197 125.58871 
z
" style="stroke: #ffffff; stroke-width: 3.8"/>
    <path d="M 358.592197 125.93371 
L 358.592197 125.66121 
Q 359.482197 125.40121 359.824697 125.17871 
Q 360.169697 124.95621 360.419697 124.50121 
Q 360.669697 124.04371 360.669697 123.57371 
Q 360.669697 122.92621 360.197197 122.46121 
Q 359.724697 121.99621 359.022197 121.99621 
Q 357.927197 121.99621 357.162197 123.15121 
L 356.872197 123.05121 
Q 357.434697 121.74621 358.314697 121.09121 
Q 359.194697 120.43371 360.272197 120.43371 
Q 361.372197 120.43371 362.087197 121.10621 
Q 362.802197 121.77621 362.802197 122.67621 
Q 362.802197 123.26121 362.469697 123.80621 
Q 362.139697 124.34871 361.427197 124.76121 
Q 362.342197 125.20621 362.822197 125.85871 
Q 363.302197 126.51121 363.302197 127.49621 
Q 363.302197 129.15121 362.102197 130.31371 
Q 360.904697 131.47371 358.889697 131.47371 
Q 357.544697 131.47371 356.927197 131.02621 
Q 356.482197 130.71371 356.482197 130.22371 
Q 356.482197 129.86371 356.739697 129.61121 
Q 356.997197 129.35621 357.334697 129.35621 
Q 357.592197 129.35621 357.819697 129.46371 
Q 357.944697 129.52621 358.704697 130.14871 
Q 359.467197 130.76871 360.132197 130.76871 
Q 360.709697 130.76871 361.122197 130.31371 
Q 361.537197 129.85621 361.537197 129.15121 
Q 361.537197 128.08121 360.787197 127.17871 
Q 360.037197 126.27621 358.592197 125.93371 
z
M 366.662197 120.65121 
L 371.622197 120.65121 
L 370.834697 122.66871 
L 366.662197 122.66871 
L 366.264697 123.72371 
Q 368.959697 123.82371 370.412197 125.06621 
Q 371.607197 126.08871 371.607197 127.61371 
Q 371.607197 128.58871 371.052197 129.52371 
Q 370.497197 130.45621 369.489697 130.96121 
Q 368.482197 131.46621 367.279697 131.46621 
Q 365.982197 131.46621 365.287197 130.98121 
Q 364.802197 130.63621 364.802197 130.19871 
Q 364.802197 129.86371 365.054697 129.60621 
Q 365.309697 129.34871 365.647197 129.34871 
Q 365.952197 129.34871 366.264697 129.47371 
Q 366.577197 129.59871 367.334697 130.12871 
Q 367.809697 130.45621 368.154697 130.58121 
Q 368.397197 130.67621 368.702197 130.67621 
Q 369.342197 130.67621 369.789697 130.20871 
Q 370.239697 129.73871 370.239697 129.08121 
Q 370.239697 127.70621 368.864697 126.84871 
Q 367.489697 125.98871 365.397197 125.98871 
Q 365.184697 125.98871 364.764697 125.99621 
L 366.662197 120.65121 
z
M 374.224697 128.83871 
Q 374.772197 128.83871 375.149697 129.22371 
Q 375.529697 129.60621 375.529697 130.14371 
Q 375.529697 130.68371 375.147197 131.06371 
Q 374.764697 131.44121 374.224697 131.44121 
Q 373.684697 131.44121 373.304697 131.06371 
Q 372.927197 130.68371 372.927197 130.14371 
Q 372.927197 129.60621 373.304697 129.22371 
Q 373.684697 128.83871 374.224697 128.83871 
z
M 383.739697 120.43371 
L 383.739697 120.65121 
Q 382.327197 121.01121 381.469697 121.57871 
Q 380.614697 122.14371 380.117197 122.95371 
Q 379.622197 123.76121 379.349697 124.95621 
Q 379.694697 124.72371 379.919697 124.65121 
Q 380.427197 124.49621 380.944697 124.49621 
Q 382.132197 124.49621 382.924697 125.36121 
Q 383.717197 126.22371 383.717197 127.71371 
Q 383.717197 128.76121 383.287197 129.63621 
Q 382.857197 130.51121 382.067197 130.98871 
Q 381.279697 131.46621 380.382197 131.46621 
Q 379.404697 131.46621 378.574697 130.93121 
Q 377.747197 130.39371 377.282197 129.36371 
Q 376.819697 128.33121 376.819697 127.12121 
Q 376.819697 125.33871 377.674697 123.80371 
Q 378.529697 122.26871 380.102197 121.35871 
Q 381.677197 120.44871 383.739697 120.43371 
z
M 379.247197 125.58871 
Q 379.184697 126.66871 379.184697 127.16871 
Q 379.184697 128.24621 379.392197 129.25371 
Q 379.599697 130.26121 379.959697 130.66871 
Q 380.217197 130.95621 380.569697 130.95621 
Q 380.927197 130.95621 381.207197 130.53871 
Q 381.489697 130.12121 381.489697 128.83871 
Q 381.489697 126.68371 380.967197 125.86371 
Q 380.632197 125.33121 380.059697 125.33121 
Q 379.747197 125.33121 379.247197 125.58871 
z
"/>
   </g>
   <g id="text_28">
    <path d="M 577.363672 265.214201 
L 577.363672 273.879201 
Q 577.363672 274.854201 577.448672 275.124201 
Q 577.536172 275.394201 577.808672 275.566701 
Q 578.083672 275.736701 578.686172 275.736701 
L 578.926172 275.736701 
L 578.926172 276.026701 
L 573.348672 276.026701 
L 573.348672 275.736701 
L 573.631172 275.736701 
Q 574.311172 275.736701 574.598672 275.581701 
Q 574.888672 275.424201 574.988672 275.151701 
Q 575.091172 274.879201 575.091172 273.879201 
L 575.091172 268.386701 
Q 575.091172 267.651701 575.021172 267.469201 
Q 574.951172 267.284201 574.758672 267.156701 
Q 574.568672 267.026701 574.318672 267.026701 
Q 573.918672 267.026701 573.348672 267.276701 
L 573.208672 266.994201 
L 577.106172 265.214201 
L 577.363672 265.214201 
z
M 586.778672 276.026701 
L 580.543672 276.026701 
L 580.543672 275.854201 
Q 583.411172 272.441701 584.023672 271.261701 
Q 584.638672 270.081701 584.638672 268.956701 
Q 584.638672 268.136701 584.131172 267.594201 
Q 583.623672 267.049201 582.888672 267.049201 
Q 581.686172 267.049201 581.021172 268.254201 
L 580.731172 268.151701 
Q 581.153672 266.651701 582.013672 265.934201 
Q 582.873672 265.214201 583.998672 265.214201 
Q 584.801172 265.214201 585.466172 265.589201 
Q 586.131172 265.964201 586.506172 266.616701 
Q 586.881172 267.269201 586.881172 267.839201 
Q 586.881172 268.879201 586.301172 269.949201 
Q 585.513672 271.394201 582.856172 273.979201 
L 585.146172 273.979201 
Q 585.988672 273.979201 586.243672 273.909201 
Q 586.498672 273.839201 586.661172 273.671701 
Q 586.826172 273.504201 587.091172 272.964201 
L 587.373672 272.964201 
L 586.778672 276.026701 
z
M 590.153672 273.619201 
Q 590.701172 273.619201 591.078672 274.004201 
Q 591.458672 274.386701 591.458672 274.924201 
Q 591.458672 275.464201 591.076172 275.844201 
Q 590.693672 276.221701 590.153672 276.221701 
Q 589.613672 276.221701 589.233672 275.844201 
Q 588.856172 275.464201 588.856172 274.924201 
Q 588.856172 274.386701 589.233672 274.004201 
Q 589.613672 273.619201 590.153672 273.619201 
z
M 594.521172 270.714201 
L 594.521172 270.441701 
Q 595.411172 270.181701 595.753672 269.959201 
Q 596.098672 269.736701 596.348672 269.281701 
Q 596.598672 268.824201 596.598672 268.354201 
Q 596.598672 267.706701 596.126172 267.241701 
Q 595.653672 266.776701 594.951172 266.776701 
Q 593.856172 266.776701 593.091172 267.931701 
L 592.801172 267.831701 
Q 593.363672 266.526701 594.243672 265.871701 
Q 595.123672 265.214201 596.201172 265.214201 
Q 597.301172 265.214201 598.016172 265.886701 
Q 598.731172 266.556701 598.731172 267.456701 
Q 598.731172 268.041701 598.398672 268.586701 
Q 598.068672 269.129201 597.356172 269.541701 
Q 598.271172 269.986701 598.751172 270.639201 
Q 599.231172 271.291701 599.231172 272.276701 
Q 599.231172 273.931701 598.031172 275.094201 
Q 596.833672 276.254201 594.818672 276.254201 
Q 593.473672 276.254201 592.856172 275.806701 
Q 592.411172 275.494201 592.411172 275.004201 
Q 592.411172 274.644201 592.668672 274.391701 
Q 592.926172 274.136701 593.263672 274.136701 
Q 593.521172 274.136701 593.748672 274.244201 
Q 593.873672 274.306701 594.633672 274.929201 
Q 595.396172 275.549201 596.061172 275.549201 
Q 596.638672 275.549201 597.051172 275.094201 
Q 597.466172 274.636701 597.466172 273.931701 
Q 597.466172 272.861701 596.716172 271.959201 
Q 595.966172 271.056701 594.521172 270.714201 
z
" style="stroke: #ffffff; stroke-width: 3.8"/>
    <path d="M 577.363672 265.214201 
L 577.363672 273.879201 
Q 577.363672 274.854201 577.448672 275.124201 
Q 577.536172 275.394201 577.808672 275.566701 
Q 578.083672 275.736701 578.686172 275.736701 
L 578.926172 275.736701 
L 578.926172 276.026701 
L 573.348672 276.026701 
L 573.348672 275.736701 
L 573.631172 275.736701 
Q 574.311172 275.736701 574.598672 275.581701 
Q 574.888672 275.424201 574.988672 275.151701 
Q 575.091172 274.879201 575.091172 273.879201 
L 575.091172 268.386701 
Q 575.091172 267.651701 575.021172 267.469201 
Q 574.951172 267.284201 574.758672 267.156701 
Q 574.568672 267.026701 574.318672 267.026701 
Q 573.918672 267.026701 573.348672 267.276701 
L 573.208672 266.994201 
L 577.106172 265.214201 
L 577.363672 265.214201 
z
M 586.778672 276.026701 
L 580.543672 276.026701 
L 580.543672 275.854201 
Q 583.411172 272.441701 584.023672 271.261701 
Q 584.638672 270.081701 584.638672 268.956701 
Q 584.638672 268.136701 584.131172 267.594201 
Q 583.623672 267.049201 582.888672 267.049201 
Q 581.686172 267.049201 581.021172 268.254201 
L 580.731172 268.151701 
Q 581.153672 266.651701 582.013672 265.934201 
Q 582.873672 265.214201 583.998672 265.214201 
Q 584.801172 265.214201 585.466172 265.589201 
Q 586.131172 265.964201 586.506172 266.616701 
Q 586.881172 267.269201 586.881172 267.839201 
Q 586.881172 268.879201 586.301172 269.949201 
Q 585.513672 271.394201 582.856172 273.979201 
L 585.146172 273.979201 
Q 585.988672 273.979201 586.243672 273.909201 
Q 586.498672 273.839201 586.661172 273.671701 
Q 586.826172 273.504201 587.091172 272.964201 
L 587.373672 272.964201 
L 586.778672 276.026701 
z
M 590.153672 273.619201 
Q 590.701172 273.619201 591.078672 274.004201 
Q 591.458672 274.386701 591.458672 274.924201 
Q 591.458672 275.464201 591.076172 275.844201 
Q 590.693672 276.221701 590.153672 276.221701 
Q 589.613672 276.221701 589.233672 275.844201 
Q 588.856172 275.464201 588.856172 274.924201 
Q 588.856172 274.386701 589.233672 274.004201 
Q 589.613672 273.619201 590.153672 273.619201 
z
M 594.521172 270.714201 
L 594.521172 270.441701 
Q 595.411172 270.181701 595.753672 269.959201 
Q 596.098672 269.736701 596.348672 269.281701 
Q 596.598672 268.824201 596.598672 268.354201 
Q 596.598672 267.706701 596.126172 267.241701 
Q 595.653672 266.776701 594.951172 266.776701 
Q 593.856172 266.776701 593.091172 267.931701 
L 592.801172 267.831701 
Q 593.363672 266.526701 594.243672 265.871701 
Q 595.123672 265.214201 596.201172 265.214201 
Q 597.301172 265.214201 598.016172 265.886701 
Q 598.731172 266.556701 598.731172 267.456701 
Q 598.731172 268.041701 598.398672 268.586701 
Q 598.068672 269.129201 597.356172 269.541701 
Q 598.271172 269.986701 598.751172 270.639201 
Q 599.231172 271.291701 599.231172 272.276701 
Q 599.231172 273.931701 598.031172 275.094201 
Q 596.833672 276.254201 594.818672 276.254201 
Q 593.473672 276.254201 592.856172 275.806701 
Q 592.411172 275.494201 592.411172 275.004201 
Q 592.411172 274.644201 592.668672 274.391701 
Q 592.926172 274.136701 593.263672 274.136701 
Q 593.521172 274.136701 593.748672 274.244201 
Q 593.873672 274.306701 594.633672 274.929201 
Q 595.396172 275.549201 596.061172 275.549201 
Q 596.638672 275.549201 597.051172 275.094201 
Q 597.466172 274.636701 597.466172 273.931701 
Q 597.466172 272.861701 596.716172 271.959201 
Q 595.966172 271.056701 594.521172 270.714201 
z
"/>
   </g>
   <g id="text_29">
    <path d="M 555.81475 406.96597 
Q 555.81475 408.454251 555.397563 409.743314 
Q 555.146782 410.533157 554.724907 411.039407 
Q 554.305375 411.543314 553.771 411.84097 
Q 553.236625 412.138626 552.606157 412.138626 
Q 551.888969 412.138626 551.310063 411.773001 
Q 550.731157 411.405032 550.2835 410.723001 
Q 549.962407 410.226126 549.721 409.398782 
Q 549.404594 408.27847 549.404594 407.083157 
Q 549.404594 405.46597 549.859282 404.108939 
Q 550.231938 402.988626 550.993657 402.393314 
Q 551.755375 401.795657 552.606157 401.795657 
Q 553.471 401.795657 554.221 402.386282 
Q 554.971 402.974564 555.322563 403.970657 
Q 555.81475 405.339407 555.81475 406.96597 
z
M 553.557719 406.951907 
Q 553.557719 404.343314 553.529594 403.912064 
Q 553.454594 402.894876 553.178032 402.536282 
Q 552.995219 402.301907 552.585063 402.301907 
Q 552.268657 402.301907 552.085844 402.477689 
Q 551.813969 402.733157 551.717875 403.382376 
Q 551.624125 404.029251 551.624125 407.90347 
Q 551.624125 410.012845 551.771782 410.730032 
Q 551.881938 411.250345 552.085844 411.426126 
Q 552.292094 411.601907 552.62725 411.601907 
Q 552.995219 411.601907 553.178032 411.367532 
Q 553.485063 410.957376 553.529594 410.101907 
L 553.557719 406.951907 
z
M 558.238188 409.675345 
Q 558.751469 409.675345 559.105375 410.036282 
Q 559.461625 410.394876 559.461625 410.898782 
Q 559.461625 411.405032 559.103032 411.761282 
Q 558.744438 412.115189 558.238188 412.115189 
Q 557.731938 412.115189 557.375688 411.761282 
Q 557.021782 411.405032 557.021782 410.898782 
Q 557.021782 410.394876 557.375688 410.036282 
Q 557.731938 409.675345 558.238188 409.675345 
z
M 562.398344 401.999564 
L 567.048344 401.999564 
L 566.310063 403.89097 
L 562.398344 403.89097 
L 562.025688 404.880032 
Q 564.55225 404.973782 565.913969 406.138626 
Q 567.034282 407.09722 567.034282 408.526907 
Q 567.034282 409.44097 566.513969 410.317532 
Q 565.993657 411.191751 565.049125 411.665189 
Q 564.104594 412.138626 562.97725 412.138626 
Q 561.760844 412.138626 561.109282 411.683939 
Q 560.654594 411.360501 560.654594 410.950345 
Q 560.654594 410.636282 560.891313 410.394876 
Q 561.130375 410.15347 561.446782 410.15347 
Q 561.732719 410.15347 562.025688 410.270657 
Q 562.318657 410.387845 563.028813 410.88472 
Q 563.474125 411.191751 563.797563 411.308939 
Q 564.024907 411.398001 564.310844 411.398001 
Q 564.910844 411.398001 565.330375 410.95972 
Q 565.75225 410.519095 565.75225 409.902689 
Q 565.75225 408.613626 564.463188 407.80972 
Q 563.174125 407.00347 561.212407 407.00347 
Q 561.013188 407.00347 560.619438 407.010501 
L 562.398344 401.999564 
z
" style="fill: #404040; stroke: #ffffff; stroke-width: 3.8"/>
    <path d="M 555.81475 406.96597 
Q 555.81475 408.454251 555.397563 409.743314 
Q 555.146782 410.533157 554.724907 411.039407 
Q 554.305375 411.543314 553.771 411.84097 
Q 553.236625 412.138626 552.606157 412.138626 
Q 551.888969 412.138626 551.310063 411.773001 
Q 550.731157 411.405032 550.2835 410.723001 
Q 549.962407 410.226126 549.721 409.398782 
Q 549.404594 408.27847 549.404594 407.083157 
Q 549.404594 405.46597 549.859282 404.108939 
Q 550.231938 402.988626 550.993657 402.393314 
Q 551.755375 401.795657 552.606157 401.795657 
Q 553.471 401.795657 554.221 402.386282 
Q 554.971 402.974564 555.322563 403.970657 
Q 555.81475 405.339407 555.81475 406.96597 
z
M 553.557719 406.951907 
Q 553.557719 404.343314 553.529594 403.912064 
Q 553.454594 402.894876 553.178032 402.536282 
Q 552.995219 402.301907 552.585063 402.301907 
Q 552.268657 402.301907 552.085844 402.477689 
Q 551.813969 402.733157 551.717875 403.382376 
Q 551.624125 404.029251 551.624125 407.90347 
Q 551.624125 410.012845 551.771782 410.730032 
Q 551.881938 411.250345 552.085844 411.426126 
Q 552.292094 411.601907 552.62725 411.601907 
Q 552.995219 411.601907 553.178032 411.367532 
Q 553.485063 410.957376 553.529594 410.101907 
L 553.557719 406.951907 
z
M 558.238188 409.675345 
Q 558.751469 409.675345 559.105375 410.036282 
Q 559.461625 410.394876 559.461625 410.898782 
Q 559.461625 411.405032 559.103032 411.761282 
Q 558.744438 412.115189 558.238188 412.115189 
Q 557.731938 412.115189 557.375688 411.761282 
Q 557.021782 411.405032 557.021782 410.898782 
Q 557.021782 410.394876 557.375688 410.036282 
Q 557.731938 409.675345 558.238188 409.675345 
z
M 562.398344 401.999564 
L 567.048344 401.999564 
L 566.310063 403.89097 
L 562.398344 403.89097 
L 562.025688 404.880032 
Q 564.55225 404.973782 565.913969 406.138626 
Q 567.034282 407.09722 567.034282 408.526907 
Q 567.034282 409.44097 566.513969 410.317532 
Q 565.993657 411.191751 565.049125 411.665189 
Q 564.104594 412.138626 562.97725 412.138626 
Q 561.760844 412.138626 561.109282 411.683939 
Q 560.654594 411.360501 560.654594 410.950345 
Q 560.654594 410.636282 560.891313 410.394876 
Q 561.130375 410.15347 561.446782 410.15347 
Q 561.732719 410.15347 562.025688 410.270657 
Q 562.318657 410.387845 563.028813 410.88472 
Q 563.474125 411.191751 563.797563 411.308939 
Q 564.024907 411.398001 564.310844 411.398001 
Q 564.910844 411.398001 565.330375 410.95972 
Q 565.75225 410.519095 565.75225 409.902689 
Q 565.75225 408.613626 564.463188 407.80972 
Q 563.174125 407.00347 561.212407 407.00347 
Q 561.013188 407.00347 560.619438 407.010501 
L 562.398344 401.999564 
z
" style="fill: #404040"/>
   </g>
   <g id="text_30">
    <path d="M 568.961768 368.594706 
L 563.116455 368.594706 
L 563.116455 368.432987 
Q 565.804736 365.233768 566.378955 364.127518 
Q 566.955518 363.021268 566.955518 361.966581 
Q 566.955518 361.197831 566.479736 360.689237 
Q 566.003955 360.178299 565.314893 360.178299 
Q 564.187549 360.178299 563.564111 361.307987 
L 563.292236 361.211893 
Q 563.68833 359.805643 564.49458 359.132987 
Q 565.30083 358.457987 566.355518 358.457987 
Q 567.107861 358.457987 567.731299 358.809549 
Q 568.354736 359.161112 568.706299 359.772831 
Q 569.057861 360.384549 569.057861 360.918924 
Q 569.057861 361.893924 568.514111 362.897049 
Q 567.77583 364.251737 565.284424 366.675174 
L 567.431299 366.675174 
Q 568.221143 366.675174 568.460205 366.609549 
Q 568.699268 366.543924 568.851611 366.386893 
Q 569.006299 366.229862 569.254736 365.723612 
L 569.51958 365.723612 
L 568.961768 368.594706 
z
M 575.135205 358.457987 
L 575.135205 366.581424 
Q 575.135205 367.495487 575.214893 367.748612 
Q 575.296924 368.001737 575.552393 368.163456 
Q 575.810205 368.322831 576.375049 368.322831 
L 576.600049 368.322831 
L 576.600049 368.594706 
L 571.371143 368.594706 
L 571.371143 368.322831 
L 571.635986 368.322831 
Q 572.273486 368.322831 572.543018 368.177518 
Q 572.814893 368.029862 572.908643 367.774393 
Q 573.004736 367.518924 573.004736 366.581424 
L 573.004736 361.432206 
Q 573.004736 360.743143 572.939111 360.572049 
Q 572.873486 360.398612 572.693018 360.279081 
Q 572.514893 360.157206 572.280518 360.157206 
Q 571.905518 360.157206 571.371143 360.391581 
L 571.239893 360.126737 
L 574.893799 358.457987 
L 575.135205 358.457987 
z
M 579.62583 366.337674 
Q 580.139111 366.337674 580.493018 366.698612 
Q 580.849268 367.057206 580.849268 367.561112 
Q 580.849268 368.067362 580.490674 368.423612 
Q 580.13208 368.777518 579.62583 368.777518 
Q 579.11958 368.777518 578.76333 368.423612 
Q 578.409424 368.067362 578.409424 367.561112 
Q 578.409424 367.057206 578.76333 366.698612 
Q 579.11958 366.337674 579.62583 366.337674 
z
M 584.158643 368.800956 
L 586.86333 360.604862 
L 584.803174 360.604862 
Q 583.596143 360.604862 582.986768 360.918924 
Q 582.562549 361.139237 582.283643 361.746268 
L 582.00708 361.746268 
L 582.724268 358.661893 
L 588.642236 358.661893 
L 585.309424 368.800956 
L 584.158643 368.800956 
z
" style="fill: #404040; stroke: #ffffff; stroke-width: 3.8"/>
    <path d="M 568.961768 368.594706 
L 563.116455 368.594706 
L 563.116455 368.432987 
Q 565.804736 365.233768 566.378955 364.127518 
Q 566.955518 363.021268 566.955518 361.966581 
Q 566.955518 361.197831 566.479736 360.689237 
Q 566.003955 360.178299 565.314893 360.178299 
Q 564.187549 360.178299 563.564111 361.307987 
L 563.292236 361.211893 
Q 563.68833 359.805643 564.49458 359.132987 
Q 565.30083 358.457987 566.355518 358.457987 
Q 567.107861 358.457987 567.731299 358.809549 
Q 568.354736 359.161112 568.706299 359.772831 
Q 569.057861 360.384549 569.057861 360.918924 
Q 569.057861 361.893924 568.514111 362.897049 
Q 567.77583 364.251737 565.284424 366.675174 
L 567.431299 366.675174 
Q 568.221143 366.675174 568.460205 366.609549 
Q 568.699268 366.543924 568.851611 366.386893 
Q 569.006299 366.229862 569.254736 365.723612 
L 569.51958 365.723612 
L 568.961768 368.594706 
z
M 575.135205 358.457987 
L 575.135205 366.581424 
Q 575.135205 367.495487 575.214893 367.748612 
Q 575.296924 368.001737 575.552393 368.163456 
Q 575.810205 368.322831 576.375049 368.322831 
L 576.600049 368.322831 
L 576.600049 368.594706 
L 571.371143 368.594706 
L 571.371143 368.322831 
L 571.635986 368.322831 
Q 572.273486 368.322831 572.543018 368.177518 
Q 572.814893 368.029862 572.908643 367.774393 
Q 573.004736 367.518924 573.004736 366.581424 
L 573.004736 361.432206 
Q 573.004736 360.743143 572.939111 360.572049 
Q 572.873486 360.398612 572.693018 360.279081 
Q 572.514893 360.157206 572.280518 360.157206 
Q 571.905518 360.157206 571.371143 360.391581 
L 571.239893 360.126737 
L 574.893799 358.457987 
L 575.135205 358.457987 
z
M 579.62583 366.337674 
Q 580.139111 366.337674 580.493018 366.698612 
Q 580.849268 367.057206 580.849268 367.561112 
Q 580.849268 368.067362 580.490674 368.423612 
Q 580.13208 368.777518 579.62583 368.777518 
Q 579.11958 368.777518 578.76333 368.423612 
Q 578.409424 368.067362 578.409424 367.561112 
Q 578.409424 367.057206 578.76333 366.698612 
Q 579.11958 366.337674 579.62583 366.337674 
z
M 584.158643 368.800956 
L 586.86333 360.604862 
L 584.803174 360.604862 
Q 583.596143 360.604862 582.986768 360.918924 
Q 582.562549 361.139237 582.283643 361.746268 
L 582.00708 361.746268 
L 582.724268 358.661893 
L 588.642236 358.661893 
L 585.309424 368.800956 
L 584.158643 368.800956 
z
" style="fill: #404040"/>
   </g>
   <g id="text_31">
    <path d="M 531.238443 334.308593 
L 531.238443 342.43203 
Q 531.238443 343.346093 531.318131 343.599218 
Q 531.400162 343.852343 531.655631 344.014062 
Q 531.913443 344.173437 532.478287 344.173437 
L 532.703287 344.173437 
L 532.703287 344.445312 
L 527.474381 344.445312 
L 527.474381 344.173437 
L 527.739225 344.173437 
Q 528.376725 344.173437 528.646256 344.028124 
Q 528.918131 343.880468 529.011881 343.624999 
Q 529.107975 343.36953 529.107975 342.43203 
L 529.107975 337.282812 
Q 529.107975 336.593749 529.04235 336.422655 
Q 528.976725 336.249218 528.796256 336.129687 
Q 528.618131 336.007812 528.383756 336.007812 
Q 528.008756 336.007812 527.474381 336.242187 
L 527.343131 335.977343 
L 530.997037 334.308593 
L 531.238443 334.308593 
z
M 540.065006 344.445312 
L 534.219693 344.445312 
L 534.219693 344.283593 
Q 536.907975 341.084374 537.482193 339.978124 
Q 538.058756 338.871874 538.058756 337.817187 
Q 538.058756 337.048437 537.582975 336.539843 
Q 537.107193 336.028905 536.418131 336.028905 
Q 535.290787 336.028905 534.66735 337.158593 
L 534.395475 337.062499 
Q 534.791568 335.656249 535.597818 334.983593 
Q 536.404068 334.308593 537.458756 334.308593 
Q 538.2111 334.308593 538.834537 334.660155 
Q 539.457975 335.011718 539.809537 335.623437 
Q 540.1611 336.235155 540.1611 336.76953 
Q 540.1611 337.74453 539.61735 338.747655 
Q 538.879068 340.102343 536.387662 342.52578 
L 538.534537 342.52578 
Q 539.324381 342.52578 539.563443 342.460155 
Q 539.802506 342.39453 539.95485 342.237499 
Q 540.109537 342.080468 540.357975 341.574218 
L 540.622818 341.574218 
L 540.065006 344.445312 
z
M 543.229068 342.18828 
Q 543.74235 342.18828 544.096256 342.549218 
Q 544.452506 342.907812 544.452506 343.411718 
Q 544.452506 343.917968 544.093912 344.274218 
Q 543.735318 344.628124 543.229068 344.628124 
Q 542.722818 344.628124 542.366568 344.274218 
Q 542.012662 343.917968 542.012662 343.411718 
Q 542.012662 342.907812 542.366568 342.549218 
Q 542.722818 342.18828 543.229068 342.18828 
z
M 545.476725 340.702343 
L 550.194693 334.308593 
L 551.087662 334.308593 
L 551.087662 340.702343 
L 551.997037 340.702343 
L 551.997037 342.218749 
L 551.087662 342.218749 
L 551.087662 344.445312 
L 549.074381 344.445312 
L 549.074381 342.218749 
L 545.476725 342.218749 
L 545.476725 340.702343 
z
M 546.189225 340.702343 
L 549.074381 340.702343 
L 549.074381 336.783593 
L 546.189225 340.702343 
z
" style="fill: #404040; stroke: #ffffff; stroke-width: 3.8"/>
    <path d="M 531.238443 334.308593 
L 531.238443 342.43203 
Q 531.238443 343.346093 531.318131 343.599218 
Q 531.400162 343.852343 531.655631 344.014062 
Q 531.913443 344.173437 532.478287 344.173437 
L 532.703287 344.173437 
L 532.703287 344.445312 
L 527.474381 344.445312 
L 527.474381 344.173437 
L 527.739225 344.173437 
Q 528.376725 344.173437 528.646256 344.028124 
Q 528.918131 343.880468 529.011881 343.624999 
Q 529.107975 343.36953 529.107975 342.43203 
L 529.107975 337.282812 
Q 529.107975 336.593749 529.04235 336.422655 
Q 528.976725 336.249218 528.796256 336.129687 
Q 528.618131 336.007812 528.383756 336.007812 
Q 528.008756 336.007812 527.474381 336.242187 
L 527.343131 335.977343 
L 530.997037 334.308593 
L 531.238443 334.308593 
z
M 540.065006 344.445312 
L 534.219693 344.445312 
L 534.219693 344.283593 
Q 536.907975 341.084374 537.482193 339.978124 
Q 538.058756 338.871874 538.058756 337.817187 
Q 538.058756 337.048437 537.582975 336.539843 
Q 537.107193 336.028905 536.418131 336.028905 
Q 535.290787 336.028905 534.66735 337.158593 
L 534.395475 337.062499 
Q 534.791568 335.656249 535.597818 334.983593 
Q 536.404068 334.308593 537.458756 334.308593 
Q 538.2111 334.308593 538.834537 334.660155 
Q 539.457975 335.011718 539.809537 335.623437 
Q 540.1611 336.235155 540.1611 336.76953 
Q 540.1611 337.74453 539.61735 338.747655 
Q 538.879068 340.102343 536.387662 342.52578 
L 538.534537 342.52578 
Q 539.324381 342.52578 539.563443 342.460155 
Q 539.802506 342.39453 539.95485 342.237499 
Q 540.109537 342.080468 540.357975 341.574218 
L 540.622818 341.574218 
L 540.065006 344.445312 
z
M 543.229068 342.18828 
Q 543.74235 342.18828 544.096256 342.549218 
Q 544.452506 342.907812 544.452506 343.411718 
Q 544.452506 343.917968 544.093912 344.274218 
Q 543.735318 344.628124 543.229068 344.628124 
Q 542.722818 344.628124 542.366568 344.274218 
Q 542.012662 343.917968 542.012662 343.411718 
Q 542.012662 342.907812 542.366568 342.549218 
Q 542.722818 342.18828 543.229068 342.18828 
z
M 545.476725 340.702343 
L 550.194693 334.308593 
L 551.087662 334.308593 
L 551.087662 340.702343 
L 551.997037 340.702343 
L 551.997037 342.218749 
L 551.087662 342.218749 
L 551.087662 344.445312 
L 549.074381 344.445312 
L 549.074381 342.218749 
L 545.476725 342.218749 
L 545.476725 340.702343 
z
M 546.189225 340.702343 
L 549.074381 340.702343 
L 549.074381 336.783593 
L 546.189225 340.702343 
z
" style="fill: #404040"/>
   </g>
   <g id="text_32">
    <path d="M 325.782367 381.573703 
L 319.937054 381.573703 
L 319.937054 381.411984 
Q 322.625336 378.212765 323.199554 377.106515 
Q 323.776117 376.000265 323.776117 374.945578 
Q 323.776117 374.176828 323.300336 373.668234 
Q 322.824554 373.157296 322.135492 373.157296 
Q 321.008148 373.157296 320.384711 374.286984 
L 320.112836 374.19089 
Q 320.508929 372.78464 321.315179 372.111984 
Q 322.121429 371.436984 323.176117 371.436984 
Q 323.928461 371.436984 324.551898 371.788546 
Q 325.175336 372.140109 325.526898 372.751828 
Q 325.878461 373.363546 325.878461 373.897921 
Q 325.878461 374.872921 325.334711 375.876046 
Q 324.596429 377.230734 322.105023 379.654171 
L 324.251898 379.654171 
Q 325.041742 379.654171 325.280804 379.588546 
Q 325.519867 379.522921 325.672211 379.36589 
Q 325.826898 379.208859 326.075336 378.702609 
L 326.340179 378.702609 
L 325.782367 381.573703 
z
M 332.183148 375.962765 
Q 333.230804 376.731515 333.636273 377.394796 
Q 334.044086 378.058078 334.044086 378.91589 
Q 334.044086 380.11589 333.139398 380.947921 
Q 332.234711 381.779953 330.683148 381.779953 
Q 329.211273 381.779953 328.405023 381.055734 
Q 327.598773 380.329171 327.598773 379.281515 
Q 327.598773 378.482296 328.062836 377.882296 
Q 328.529242 377.282296 329.612054 376.783078 
Q 328.433148 375.883078 328.100336 375.311203 
Q 327.767523 374.739328 327.767523 373.98464 
Q 327.767523 372.988546 328.613617 372.231515 
Q 329.459711 371.474484 330.931586 371.474484 
Q 332.351898 371.474484 333.115961 372.144796 
Q 333.882367 372.812765 333.882367 373.750265 
Q 333.882367 374.45339 333.467523 374.992453 
Q 333.055023 375.531515 332.183148 375.962765 
z
M 331.627679 375.590109 
Q 331.897211 375.224484 332.028461 374.769796 
Q 332.162054 374.315109 332.162054 373.773703 
Q 332.162054 372.82214 331.751898 372.31589 
Q 331.444867 371.926828 330.901117 371.926828 
Q 330.411273 371.926828 330.066742 372.283078 
Q 329.722211 372.636984 329.722211 373.164328 
Q 329.722211 373.701046 330.106586 374.275265 
Q 330.490961 374.849484 331.627679 375.590109 
z
M 330.162836 377.13464 
Q 329.935492 377.34089 329.839398 377.50964 
Q 329.694086 377.765109 329.576898 378.257296 
Q 329.459711 378.74714 329.459711 379.281515 
Q 329.459711 379.970578 329.635492 380.43464 
Q 329.811273 380.898703 330.137054 381.104953 
Q 330.462836 381.308859 330.807367 381.308859 
Q 331.341742 381.308859 331.707367 380.917453 
Q 332.072992 380.526046 332.072992 379.844015 
Q 332.072992 378.423703 330.162836 377.13464 
z
M 336.446429 379.316671 
Q 336.959711 379.316671 337.313617 379.677609 
Q 337.669867 380.036203 337.669867 380.540109 
Q 337.669867 381.046359 337.311273 381.402609 
Q 336.952679 381.756515 336.446429 381.756515 
Q 335.940179 381.756515 335.583929 381.402609 
Q 335.230023 381.046359 335.230023 380.540109 
Q 335.230023 380.036203 335.583929 379.677609 
Q 335.940179 379.316671 336.446429 379.316671 
z
M 344.532367 381.573703 
L 338.687054 381.573703 
L 338.687054 381.411984 
Q 341.375336 378.212765 341.949554 377.106515 
Q 342.526117 376.000265 342.526117 374.945578 
Q 342.526117 374.176828 342.050336 373.668234 
Q 341.574554 373.157296 340.885492 373.157296 
Q 339.758148 373.157296 339.134711 374.286984 
L 338.862836 374.19089 
Q 339.258929 372.78464 340.065179 372.111984 
Q 340.871429 371.436984 341.926117 371.436984 
Q 342.678461 371.436984 343.301898 371.788546 
Q 343.925336 372.140109 344.276898 372.751828 
Q 344.628461 373.363546 344.628461 373.897921 
Q 344.628461 374.872921 344.084711 375.876046 
Q 343.346429 377.230734 340.855023 379.654171 
L 343.001898 379.654171 
Q 343.791742 379.654171 344.030804 379.588546 
Q 344.269867 379.522921 344.422211 379.36589 
Q 344.576898 379.208859 344.825336 378.702609 
L 345.090179 378.702609 
L 344.532367 381.573703 
z
" style="fill: #404040; stroke: #ffffff; stroke-width: 3.8"/>
    <path d="M 325.782367 381.573703 
L 319.937054 381.573703 
L 319.937054 381.411984 
Q 322.625336 378.212765 323.199554 377.106515 
Q 323.776117 376.000265 323.776117 374.945578 
Q 323.776117 374.176828 323.300336 373.668234 
Q 322.824554 373.157296 322.135492 373.157296 
Q 321.008148 373.157296 320.384711 374.286984 
L 320.112836 374.19089 
Q 320.508929 372.78464 321.315179 372.111984 
Q 322.121429 371.436984 323.176117 371.436984 
Q 323.928461 371.436984 324.551898 371.788546 
Q 325.175336 372.140109 325.526898 372.751828 
Q 325.878461 373.363546 325.878461 373.897921 
Q 325.878461 374.872921 325.334711 375.876046 
Q 324.596429 377.230734 322.105023 379.654171 
L 324.251898 379.654171 
Q 325.041742 379.654171 325.280804 379.588546 
Q 325.519867 379.522921 325.672211 379.36589 
Q 325.826898 379.208859 326.075336 378.702609 
L 326.340179 378.702609 
L 325.782367 381.573703 
z
M 332.183148 375.962765 
Q 333.230804 376.731515 333.636273 377.394796 
Q 334.044086 378.058078 334.044086 378.91589 
Q 334.044086 380.11589 333.139398 380.947921 
Q 332.234711 381.779953 330.683148 381.779953 
Q 329.211273 381.779953 328.405023 381.055734 
Q 327.598773 380.329171 327.598773 379.281515 
Q 327.598773 378.482296 328.062836 377.882296 
Q 328.529242 377.282296 329.612054 376.783078 
Q 328.433148 375.883078 328.100336 375.311203 
Q 327.767523 374.739328 327.767523 373.98464 
Q 327.767523 372.988546 328.613617 372.231515 
Q 329.459711 371.474484 330.931586 371.474484 
Q 332.351898 371.474484 333.115961 372.144796 
Q 333.882367 372.812765 333.882367 373.750265 
Q 333.882367 374.45339 333.467523 374.992453 
Q 333.055023 375.531515 332.183148 375.962765 
z
M 331.627679 375.590109 
Q 331.897211 375.224484 332.028461 374.769796 
Q 332.162054 374.315109 332.162054 373.773703 
Q 332.162054 372.82214 331.751898 372.31589 
Q 331.444867 371.926828 330.901117 371.926828 
Q 330.411273 371.926828 330.066742 372.283078 
Q 329.722211 372.636984 329.722211 373.164328 
Q 329.722211 373.701046 330.106586 374.275265 
Q 330.490961 374.849484 331.627679 375.590109 
z
M 330.162836 377.13464 
Q 329.935492 377.34089 329.839398 377.50964 
Q 329.694086 377.765109 329.576898 378.257296 
Q 329.459711 378.74714 329.459711 379.281515 
Q 329.459711 379.970578 329.635492 380.43464 
Q 329.811273 380.898703 330.137054 381.104953 
Q 330.462836 381.308859 330.807367 381.308859 
Q 331.341742 381.308859 331.707367 380.917453 
Q 332.072992 380.526046 332.072992 379.844015 
Q 332.072992 378.423703 330.162836 377.13464 
z
M 336.446429 379.316671 
Q 336.959711 379.316671 337.313617 379.677609 
Q 337.669867 380.036203 337.669867 380.540109 
Q 337.669867 381.046359 337.311273 381.402609 
Q 336.952679 381.756515 336.446429 381.756515 
Q 335.940179 381.756515 335.583929 381.402609 
Q 335.230023 381.046359 335.230023 380.540109 
Q 335.230023 380.036203 335.583929 379.677609 
Q 335.940179 379.316671 336.446429 379.316671 
z
M 344.532367 381.573703 
L 338.687054 381.573703 
L 338.687054 381.411984 
Q 341.375336 378.212765 341.949554 377.106515 
Q 342.526117 376.000265 342.526117 374.945578 
Q 342.526117 374.176828 342.050336 373.668234 
Q 341.574554 373.157296 340.885492 373.157296 
Q 339.758148 373.157296 339.134711 374.286984 
L 338.862836 374.19089 
Q 339.258929 372.78464 340.065179 372.111984 
Q 340.871429 371.436984 341.926117 371.436984 
Q 342.678461 371.436984 343.301898 371.788546 
Q 343.925336 372.140109 344.276898 372.751828 
Q 344.628461 373.363546 344.628461 373.897921 
Q 344.628461 374.872921 344.084711 375.876046 
Q 343.346429 377.230734 340.855023 379.654171 
L 343.001898 379.654171 
Q 343.791742 379.654171 344.030804 379.588546 
Q 344.269867 379.522921 344.422211 379.36589 
Q 344.576898 379.208859 344.825336 378.702609 
L 345.090179 378.702609 
L 344.532367 381.573703 
z
" style="fill: #404040"/>
   </g>
  </g>
 </g>
 <defs>
  <clipPath id="p3f041e9e46">
   <rect x="7.2" y="51.034687" width="730.764" height="431.819207"/>
  </clipPath>
 </defs>
</svg>
