<?xml version="1.0" encoding="utf-8" standalone="no"?>
<!DOCTYPE svg PUBLIC "-//W3C//DTD SVG 1.1//EN"
  "http://www.w3.org/Graphics/SVG/1.1/DTD/svg11.dtd">
<svg xmlns:xlink="http://www.w3.org/1999/xlink" width="745.164pt" height="496.204623pt" viewBox="0 0 745.164 496.204623" xmlns="http://www.w3.org/2000/svg" version="1.1">
 <metadata>
  <rdf:RDF xmlns:dc="http://purl.org/dc/elements/1.1/" xmlns:cc="http://creativecommons.org/ns#" xmlns:rdf="http://www.w3.org/1999/02/22-rdf-syntax-ns#">
   <cc:Work>
    <dc:type rdf:resource="http://purl.org/dc/dcmitype/StillImage"/>
    <dc:date>2026-07-13T16:58:50.275685</dc:date>
    <dc:format>image/svg+xml</dc:format>
    <dc:creator>
     <cc:Agent>
      <dc:title>Matplotlib v3.10.8, https://matplotlib.org/</dc:title>
     </cc:Agent>
    </dc:creator>
   </cc:Work>
  </rdf:RDF>
 </metadata>
 <defs>
  <style type="text/css">*{stroke-linejoin: round; stroke-linecap: butt}</style>
 </defs>
 <g id="figure_1">
  <g id="patch_1">
   <path d="M 0 496.204623 
L 745.164 496.204623 
L 745.164 0 
L 0 0 
L 0 496.204623 
z
" style="fill: none"/>
  </g>
  <g id="axes_1">
   <g id="patch_2">
    <path d="M 120.350555 404.244043 
Q 120.350555 441.586794 120.350555 476.751351 
" clip-path="url(#p709add7259)" style="fill: none; stroke: #111111; stroke-width: 1.948237; stroke-linejoin: miter; stroke-linecap: round"/>
    <path d="M 123.917991 469.616479 
L 120.350555 476.751351 
L 116.783119 469.616479 
z
" clip-path="url(#p709add7259)" style="fill: #111111; stroke: #111111; stroke-width: 1.948237; stroke-linejoin: miter; stroke-linecap: round"/>
   </g>
   <g id="patch_3">
    <path d="M 120.350555 266.755374 
Q 120.350555 295.345077 120.350555 320.616769 
" clip-path="url(#p709add7259)" style="fill: none; stroke: #111111; stroke-width: 2.967719; stroke-linejoin: miter; stroke-linecap: round"/>
    <path d="M 124.244225 312.829429 
L 120.350555 320.616769 
L 116.456885 312.829429 
z
" clip-path="url(#p709add7259)" style="fill: #111111; stroke: #111111; stroke-width: 2.967719; stroke-linejoin: miter; stroke-linecap: round"/>
   </g>
   <g id="patch_4">
    <path d="M 120.350555 163.530813 
Q 120.350555 183.74151 120.350555 197.467609 
" clip-path="url(#p709add7259)" style="fill: none; stroke: #111111; stroke-width: 5.8; stroke-linejoin: miter; stroke-linecap: round"/>
    <path d="M 125.150555 187.867609 
L 120.350555 197.467609 
L 115.550555 187.867609 
z
" clip-path="url(#p709add7259)" style="fill: #111111; stroke: #111111; stroke-width: 5.8; stroke-linejoin: miter; stroke-linecap: round"/>
   </g>
   <g id="patch_5">
    <path d="M 370.224697 269.058548 
Q 370.224697 285.956483 370.224697 300.266797 
" clip-path="url(#p709add7259)" style="fill: none; stroke: #111111; stroke-width: 2.314438; stroke-linejoin: miter; stroke-linecap: round"/>
    <path d="M 373.909317 292.897557 
L 370.224697 300.266797 
L 366.540077 292.897557 
z
" clip-path="url(#p709add7259)" style="fill: #111111; stroke: #111111; stroke-width: 2.314438; stroke-linejoin: miter; stroke-linecap: round"/>
   </g>
   <g id="patch_6">
    <path d="M 370.224697 187.562519 
Q 370.224697 208.600719 370.224697 226.316943 
" clip-path="url(#p709add7259)" style="fill: none; stroke: #111111; stroke-width: 2.971265; stroke-linejoin: miter; stroke-linecap: round"/>
    <path d="M 374.119501 218.527334 
L 370.224697 226.316943 
L 366.329892 218.527334 
z
" clip-path="url(#p709add7259)" style="fill: #111111; stroke: #111111; stroke-width: 2.971265; stroke-linejoin: miter; stroke-linecap: round"/>
   </g>
   <g id="patch_7">
    <path d="M 370.224697 116.023053 
Q 370.224697 127.942706 370.224697 137.160187 
" clip-path="url(#p709add7259)" style="fill: none; stroke: #111111; stroke-width: 2.416896; stroke-linejoin: miter; stroke-linecap: round"/>
    <path d="M 373.942104 129.725374 
L 370.224697 137.160187 
L 366.50729 129.725374 
z
" clip-path="url(#p709add7259)" style="fill: #111111; stroke: #111111; stroke-width: 2.416896; stroke-linejoin: miter; stroke-linecap: round"/>
   </g>
   <g id="patch_8">
    <path d="M 586.153672 149.497482 
Q 586.153672 165.478942 586.153672 178.298154 
" clip-path="url(#p709add7259)" style="fill: none; stroke: #111111; stroke-width: 2.828401; stroke-linejoin: miter; stroke-linecap: round"/>
    <path d="M 590.002761 170.599977 
L 586.153672 178.298154 
L 582.304584 170.599977 
z
" clip-path="url(#p709add7259)" style="fill: #111111; stroke: #111111; stroke-width: 2.828401; stroke-linejoin: miter; stroke-linecap: round"/>
   </g>
   <g id="line2d_1">
    <path d="M 165.610777 478.929545 
L 550.322663 478.929545 
" clip-path="url(#p709add7259)" style="fill: none; stroke-dasharray: 5.6,4.2; stroke-dashoffset: 0; stroke: #404040; stroke-width: 1.4"/>
   </g>
   <g id="line2d_2">
    <path d="M 165.610777 323.93478 
L 550.322663 323.93478 
" clip-path="url(#p709add7259)" style="fill: none; stroke-dasharray: 5.6,4.2; stroke-dashoffset: 0; stroke: #404040; stroke-width: 1.4"/>
   </g>
   <g id="line2d_3">
    <path d="M 415.484919 302.854418 
L 560.694797 302.854418 
" clip-path="url(#p709add7259)" style="fill: none; stroke-dasharray: 5.6,4.2; stroke-dashoffset: 0; stroke: #404040; stroke-width: 1.4"/>
   </g>
   <g id="patch_9">
    <path d="M 665.359061 181.460402 
Q 574.609682 327.64518 484.366067 473.01524 
" clip-path="url(#p709add7259)" style="fill: none; stroke: #404040; stroke-width: 0.8577; stroke-linejoin: miter; stroke-linecap: round"/>
    <path d="M 489.735148 469.711702 
L 484.366067 473.01524 
L 484.944685 466.737853 
z
" clip-path="url(#p709add7259)" style="fill: #404040; stroke: #404040; stroke-width: 0.8577; stroke-linejoin: miter; stroke-linecap: round"/>
   </g>
   <g id="patch_10">
    <path d="M 620.098839 181.460402 
Q 577.458212 250.148592 536.294866 316.457085 
" clip-path="url(#p709add7259)" style="fill: none; stroke: #404040; stroke-width: 2.505246; stroke-linejoin: miter; stroke-linecap: round"/>
    <path d="M 542.709834 312.510023 
L 536.294866 316.457085 
L 536.986198 308.956874 
z
" clip-path="url(#p709add7259)" style="fill: #404040; stroke: #404040; stroke-width: 2.505246; stroke-linejoin: miter; stroke-linecap: round"/>
   </g>
   <g id="patch_11">
    <path d="M 574.838617 181.460402 
Q 540.988712 239.566006 507.865754 296.42376 
" clip-path="url(#p709add7259)" style="fill: none; stroke: #404040; stroke-width: 1.291691; stroke-linejoin: miter; stroke-linecap: round"/>
    <path d="M 513.41065 292.79367 
L 507.865754 296.42376 
L 508.28862 289.809789 
z
" clip-path="url(#p709add7259)" style="fill: #404040; stroke: #404040; stroke-width: 1.291691; stroke-linejoin: miter; stroke-linecap: round"/>
   </g>
   <g id="patch_12">
    <path d="M 370.224697 302.854418 
Q 335.584805 312.583371 305.21967 321.111716 
" clip-path="url(#p709add7259)" style="fill: none; stroke: #404040; stroke-width: 3.971398; stroke-linejoin: miter; stroke-linecap: round"/>
    <path d="M 313.689529 322.739248 
L 305.21967 321.111716 
L 311.603611 315.312348 
z
" clip-path="url(#p709add7259)" style="fill: #404040; stroke: #404040; stroke-width: 3.971398; stroke-linejoin: miter; stroke-linecap: round"/>
   </g>
   <g id="line2d_4">
    <path d="M 120.350555 323.93478 
L 120.350555 398.620282 
" clip-path="url(#p709add7259)" style="fill: none; stroke: #111111; stroke-width: 1.948237"/>
   </g>
   <g id="line2d_5">
    <path d="M 120.350555 203.952206 
L 120.350555 261.131613 
" clip-path="url(#p709add7259)" style="fill: none; stroke: #111111; stroke-width: 2.967719"/>
   </g>
   <g id="line2d_6">
    <path d="M 120.350555 117.485659 
L 120.350555 157.907052 
" clip-path="url(#p709add7259)" style="fill: none; stroke: #111111; stroke-width: 5.8"/>
   </g>
   <g id="line2d_7">
    <path d="M 370.224697 229.638918 
L 370.224697 263.434787 
" clip-path="url(#p709add7259)" style="fill: none; stroke: #111111; stroke-width: 2.314438"/>
   </g>
   <g id="line2d_8">
    <path d="M 370.224697 139.862359 
L 370.224697 181.938758 
" clip-path="url(#p709add7259)" style="fill: none; stroke: #111111; stroke-width: 2.971265"/>
   </g>
   <g id="line2d_9">
    <path d="M 370.224697 86.559986 
L 370.224697 110.399292 
" clip-path="url(#p709add7259)" style="fill: none; stroke: #111111; stroke-width: 2.416896"/>
   </g>
   <g id="line2d_10">
    <path d="M 586.153672 111.9108 
L 586.153672 143.873721 
" clip-path="url(#p709add7259)" style="fill: none; stroke: #111111; stroke-width: 2.828401"/>
   </g>
   <g id="line2d_11">
    <path d="M 75.090333 478.929545 
L 165.610777 478.929545 
" clip-path="url(#p709add7259)" style="fill: none; stroke: #111111; stroke-width: 3.6; stroke-linecap: round"/>
   </g>
   <g id="line2d_12">
    <path d="M 75.090333 323.93478 
L 165.610777 323.93478 
" clip-path="url(#p709add7259)" style="fill: none; stroke: #111111; stroke-width: 3.6; stroke-linecap: round"/>
   </g>
   <g id="line2d_13">
    <path d="M 75.090333 203.952206 
L 165.610777 203.952206 
" clip-path="url(#p709add7259)" style="fill: none; stroke: #111111; stroke-width: 3.6; stroke-linecap: round"/>
   </g>
   <g id="line2d_14">
    <path d="M 75.090333 117.485659 
L 165.610777 117.485659 
" clip-path="url(#p709add7259)" style="fill: none; stroke: #111111; stroke-width: 3.6; stroke-linecap: round"/>
   </g>
   <g id="line2d_15">
    <path d="M 324.964475 302.854418 
L 415.484919 302.854418 
" clip-path="url(#p709add7259)" style="fill: none; stroke: #111111; stroke-width: 3.6; stroke-linecap: round"/>
   </g>
   <g id="line2d_16">
    <path d="M 324.964475 229.638918 
L 415.484919 229.638918 
" clip-path="url(#p709add7259)" style="fill: none; stroke: #111111; stroke-width: 3.6; stroke-linecap: round"/>
   </g>
   <g id="line2d_17">
    <path d="M 324.964475 139.862359 
L 415.484919 139.862359 
" clip-path="url(#p709add7259)" style="fill: none; stroke: #111111; stroke-width: 3.6; stroke-linecap: round"/>
   </g>
   <g id="line2d_18">
    <path d="M 324.964475 86.559986 
L 415.484919 86.559986 
" clip-path="url(#p709add7259)" style="fill: none; stroke: #111111; stroke-width: 3.6; stroke-linecap: round"/>
   </g>
   <g id="line2d_19">
    <path d="M 574.838617 181.460402 
L 665.359061 181.460402 
" clip-path="url(#p709add7259)" style="fill: none; stroke: #111111; stroke-width: 3.6; stroke-linecap: round"/>
   </g>
   <g id="line2d_20">
    <path d="M 574.838617 111.9108 
L 665.359061 111.9108 
" clip-path="url(#p709add7259)" style="fill: none; stroke: #111111; stroke-width: 3.6; stroke-linecap: round"/>
   </g>
   <g id="text_1">
    <!-- $^{220}\mathrm{Pu}$ -->
    <g transform="translate(328.212 33.034687) scale(0.34 -0.34)">
     <defs>
      <path id="DejaVuSans-32" d="M 1228 531 
L 3431 531 
L 3431 0 
L 469 0 
L 469 531 
Q 828 903 1448 1529 
Q 2069 2156 2228 2338 
Q 2531 2678 2651 2914 
Q 2772 3150 2772 3378 
Q 2772 3750 2511 3984 
Q 2250 4219 1831 4219 
Q 1534 4219 1204 4116 
Q 875 4013 500 3803 
L 500 4441 
Q 881 4594 1212 4672 
Q 1544 4750 1819 4750 
Q 2544 4750 2975 4387 
Q 3406 4025 3406 3419 
Q 3406 3131 3298 2873 
Q 3191 2616 2906 2266 
Q 2828 2175 2409 1742 
Q 1991 1309 1228 531 
z
" transform="scale(0.015625)"/>
      <path id="DejaVuSans-30" d="M 2034 4250 
Q 1547 4250 1301 3770 
Q 1056 3291 1056 2328 
Q 1056 1369 1301 889 
Q 1547 409 2034 409 
Q 2525 409 2770 889 
Q 3016 1369 3016 2328 
Q 3016 3291 2770 3770 
Q 2525 4250 2034 4250 
z
M 2034 4750 
Q 2819 4750 3233 4129 
Q 3647 3509 3647 2328 
Q 3647 1150 3233 529 
Q 2819 -91 2034 -91 
Q 1250 -91 836 529 
Q 422 1150 422 2328 
Q 422 3509 836 4129 
Q 1250 4750 2034 4750 
z
" transform="scale(0.015625)"/>
      <path id="DejaVuSans-50" d="M 1259 4147 
L 1259 2394 
L 2053 2394 
Q 2494 2394 2734 2622 
Q 2975 2850 2975 3272 
Q 2975 3691 2734 3919 
Q 2494 4147 2053 4147 
L 1259 4147 
z
M 628 4666 
L 2053 4666 
Q 2838 4666 3239 4311 
Q 3641 3956 3641 3272 
Q 3641 2581 3239 2228 
Q 2838 1875 2053 1875 
L 1259 1875 
L 1259 0 
L 628 0 
L 628 4666 
z
" transform="scale(0.015625)"/>
      <path id="DejaVuSans-75" d="M 544 1381 
L 544 3500 
L 1119 3500 
L 1119 1403 
Q 1119 906 1312 657 
Q 1506 409 1894 409 
Q 2359 409 2629 706 
Q 2900 1003 2900 1516 
L 2900 3500 
L 3475 3500 
L 3475 0 
L 2900 0 
L 2900 538 
Q 2691 219 2414 64 
Q 2138 -91 1772 -91 
Q 1169 -91 856 284 
Q 544 659 544 1381 
z
M 1991 3584 
L 1991 3584 
z
" transform="scale(0.015625)"/>
     </defs>
     <use xlink:href="#DejaVuSans-32" transform="translate(0.957031 39.046875) scale(0.7)"/>
     <use xlink:href="#DejaVuSans-32" transform="translate(45.493164 39.046875) scale(0.7)"/>
     <use xlink:href="#DejaVuSans-30" transform="translate(90.029297 39.046875) scale(0.7)"/>
     <use xlink:href="#DejaVuSans-50" transform="translate(137.299805 0.765625)"/>
     <use xlink:href="#DejaVuSans-75" transform="translate(197.602539 0.765625)"/>
    </g>
   </g>
   <g id="text_2">
    <!-- 0 -->
    <g transform="translate(46.98525 483.344545) scale(0.16 -0.16)">
     <defs>
      <path id="DejaVuSans-BoldOblique-30" d="M 1913 728 
Q 2153 728 2339 872 
Q 2525 1016 2650 1294 
Q 2738 1491 2809 1742 
Q 2881 1994 2944 2338 
Q 2997 2616 3025 2850 
Q 3053 3084 3053 3250 
Q 3053 3600 2928 3764 
Q 2803 3928 2541 3928 
Q 2297 3928 2112 3789 
Q 1928 3650 1806 3366 
Q 1713 3163 1636 2903 
Q 1559 2644 1503 2338 
Q 1450 2056 1422 1815 
Q 1394 1575 1394 1409 
Q 1394 1063 1522 895 
Q 1650 728 1913 728 
z
M 4225 3072 
Q 4225 2450 4053 1862 
Q 3881 1275 3572 831 
Q 3256 375 2809 142 
Q 2363 -91 1813 -91 
Q 1047 -91 639 343 
Q 231 778 231 1594 
Q 231 2206 401 2795 
Q 572 3384 878 3822 
Q 1200 4281 1644 4515 
Q 2088 4750 2644 4750 
Q 3403 4750 3814 4314 
Q 4225 3878 4225 3072 
z
" transform="scale(0.015625)"/>
     </defs>
     <use xlink:href="#DejaVuSans-BoldOblique-30"/>
    </g>
   </g>
   <g id="text_3">
    <!-- 0⁺ -->
    <g transform="translate(182.58336 484.08478) scale(0.23 -0.23)">
     <defs>
      <path id="TimesNewRomanPS-BoldMT-30" d="M 2966 2119 
Q 2966 1484 2788 934 
Q 2681 597 2501 381 
Q 2322 166 2094 39 
Q 1866 -88 1597 -88 
Q 1291 -88 1044 68 
Q 797 225 606 516 
Q 469 728 366 1081 
Q 231 1559 231 2069 
Q 231 2759 425 3338 
Q 584 3816 909 4070 
Q 1234 4325 1597 4325 
Q 1966 4325 2286 4073 
Q 2606 3822 2756 3397 
Q 2966 2813 2966 2119 
z
M 2003 2125 
Q 2003 3238 1991 3422 
Q 1959 3856 1841 4009 
Q 1763 4109 1588 4109 
Q 1453 4109 1375 4034 
Q 1259 3925 1218 3648 
Q 1178 3372 1178 1719 
Q 1178 819 1241 513 
Q 1288 291 1375 216 
Q 1463 141 1606 141 
Q 1763 141 1841 241 
Q 1972 416 1991 781 
L 2003 2125 
z
" transform="scale(0.015625)"/>
      <path id="DejaVuSerif-Bold-207a" d="M 1916 4344 
L 1916 3441 
L 2950 3441 
L 2950 3044 
L 1916 3044 
L 1916 2141 
L 1463 2141 
L 1463 3044 
L 428 3044 
L 428 3441 
L 1463 3441 
L 1463 4344 
L 1916 4344 
z
" transform="scale(0.015625)"/>
     </defs>
     <use xlink:href="#TimesNewRomanPS-BoldMT-30"/>
     <use xlink:href="#DejaVuSerif-Bold-207a" transform="translate(50 0)"/>
    </g>
   </g>
   <g id="text_4">
    <!-- 2536 -->
    <g transform="translate(13.58775 328.34978) scale(0.16 -0.16)">
     <defs>
      <path id="DejaVuSans-BoldOblique-32" d="M 1581 884 
L 3609 884 
L 3438 0 
L 50 0 
L 225 891 
L 2209 2388 
Q 2534 2638 2704 2894 
Q 2875 3150 2875 3391 
Q 2875 3647 2700 3787 
Q 2525 3928 2209 3928 
Q 1913 3928 1547 3811 
Q 1181 3694 722 3450 
L 922 4441 
Q 1347 4597 1756 4673 
Q 2166 4750 2566 4750 
Q 3278 4750 3687 4442 
Q 4097 4134 4097 3603 
Q 4097 3147 3847 2772 
Q 3597 2397 2747 1759 
L 1581 884 
z
" transform="scale(0.015625)"/>
      <path id="DejaVuSans-BoldOblique-35" d="M 1131 4666 
L 4122 4666 
L 3950 3781 
L 1919 3781 
L 1778 3059 
Q 1916 3097 2064 3117 
Q 2213 3138 2363 3138 
Q 3078 3138 3481 2811 
Q 3884 2484 3884 1906 
Q 3884 988 3262 448 
Q 2641 -91 1575 -91 
Q 1184 -91 815 -14 
Q 447 63 84 219 
L 269 1166 
Q 616 941 942 834 
Q 1269 728 1606 728 
Q 2100 728 2397 986 
Q 2694 1244 2694 1663 
Q 2694 1963 2469 2139 
Q 2244 2316 1856 2316 
Q 1594 2316 1289 2248 
Q 984 2181 622 2041 
L 1131 4666 
z
" transform="scale(0.015625)"/>
      <path id="DejaVuSans-BoldOblique-33" d="M 3022 2516 
Q 3375 2434 3572 2187 
Q 3769 1941 3769 1581 
Q 3769 806 3155 357 
Q 2541 -91 1466 -91 
Q 1059 -91 692 -33 
Q 325 25 0 141 
L 178 1069 
Q 456 906 784 817 
Q 1113 728 1441 728 
Q 1969 728 2276 926 
Q 2584 1125 2584 1459 
Q 2584 1738 2350 1877 
Q 2116 2016 1644 2016 
L 1166 2016 
L 1319 2791 
L 1825 2791 
Q 2316 2791 2602 2969 
Q 2888 3147 2888 3450 
Q 2888 3688 2689 3813 
Q 2491 3938 2113 3938 
Q 1847 3938 1534 3869 
Q 1222 3800 884 3669 
L 1056 4550 
Q 1425 4650 1783 4700 
Q 2141 4750 2491 4750 
Q 3281 4750 3679 4487 
Q 4078 4225 4078 3706 
Q 4078 3241 3801 2930 
Q 3525 2619 3022 2516 
z
" transform="scale(0.015625)"/>
      <path id="DejaVuSans-BoldOblique-36" d="M 2316 2303 
Q 1959 2303 1731 2009 
Q 1503 1716 1503 1253 
Q 1503 975 1643 820 
Q 1784 666 2034 666 
Q 2388 666 2617 955 
Q 2847 1244 2847 1684 
Q 2847 1984 2709 2143 
Q 2572 2303 2316 2303 
z
M 4225 4544 
L 4056 3681 
Q 3788 3819 3534 3887 
Q 3281 3956 3028 3956 
Q 2447 3956 2087 3643 
Q 1728 3331 1650 2766 
Q 1894 2925 2151 3001 
Q 2409 3078 2700 3078 
Q 3275 3078 3640 2737 
Q 4006 2397 4006 1869 
Q 4006 1006 3442 454 
Q 2878 -97 1991 -97 
Q 1194 -97 756 354 
Q 319 806 319 1631 
Q 319 2269 512 2848 
Q 706 3428 1056 3847 
Q 1431 4294 1942 4519 
Q 2453 4744 3091 4744 
Q 3384 4744 3662 4694 
Q 3941 4644 4225 4544 
z
" transform="scale(0.015625)"/>
     </defs>
     <use xlink:href="#DejaVuSans-BoldOblique-32"/>
     <use xlink:href="#DejaVuSans-BoldOblique-35" transform="translate(69.580078 0)"/>
     <use xlink:href="#DejaVuSans-BoldOblique-33" transform="translate(139.160156 0)"/>
     <use xlink:href="#DejaVuSans-BoldOblique-36" transform="translate(208.740234 0)"/>
    </g>
   </g>
   <g id="text_5">
    <!-- 2⁺ -->
    <g transform="translate(182.58336 329.090015) scale(0.23 -0.23)">
     <defs>
      <path id="TimesNewRomanPS-BoldMT-32" d="M 2650 0 
L 156 0 
L 156 69 
Q 1303 1434 1548 1906 
Q 1794 2378 1794 2828 
Q 1794 3156 1591 3373 
Q 1388 3591 1094 3591 
Q 613 3591 347 3109 
L 231 3150 
Q 400 3750 744 4037 
Q 1088 4325 1538 4325 
Q 1859 4325 2125 4175 
Q 2391 4025 2541 3764 
Q 2691 3503 2691 3275 
Q 2691 2859 2459 2431 
Q 2144 1853 1081 819 
L 1997 819 
Q 2334 819 2436 847 
Q 2538 875 2603 942 
Q 2669 1009 2775 1225 
L 2888 1225 
L 2650 0 
z
" transform="scale(0.015625)"/>
     </defs>
     <use xlink:href="#TimesNewRomanPS-BoldMT-32"/>
     <use xlink:href="#DejaVuSerif-Bold-207a" transform="translate(50 0)"/>
    </g>
   </g>
   <g id="text_6">
    <!-- 4498 -->
    <g transform="translate(13.58775 208.367206) scale(0.16 -0.16)">
     <defs>
      <path id="DejaVuSans-BoldOblique-34" d="M 2638 3641 
L 978 1722 
L 2259 1722 
L 2638 3641 
z
M 2606 4666 
L 3975 4666 
L 3397 1722 
L 4063 1722 
L 3897 850 
L 3231 850 
L 3066 0 
L 1925 0 
L 2094 850 
L -6 850 
L 197 1881 
L 2606 4666 
z
" transform="scale(0.015625)"/>
      <path id="DejaVuSans-BoldOblique-39" d="M 263 103 
L 428 966 
Q 700 825 953 758 
Q 1206 691 1459 691 
Q 2041 691 2400 1003 
Q 2759 1316 2834 1881 
Q 2594 1722 2337 1645 
Q 2081 1569 1791 1569 
Q 1219 1569 853 1909 
Q 488 2250 488 2778 
Q 488 3641 1052 4192 
Q 1616 4744 2503 4744 
Q 3300 4744 3736 4292 
Q 4172 3841 4172 3016 
Q 4172 2381 3978 1801 
Q 3784 1222 3431 800 
Q 3056 353 2548 128 
Q 2041 -97 1403 -97 
Q 1106 -97 825 -47 
Q 544 3 263 103 
z
M 2169 2344 
Q 2525 2344 2753 2637 
Q 2981 2931 2981 3391 
Q 2981 3675 2845 3828 
Q 2709 3981 2456 3981 
Q 2103 3981 1870 3690 
Q 1638 3400 1638 2963 
Q 1638 2663 1775 2503 
Q 1913 2344 2169 2344 
z
" transform="scale(0.015625)"/>
      <path id="DejaVuSans-BoldOblique-38" d="M 2150 2088 
Q 1784 2088 1539 1839 
Q 1294 1591 1294 1228 
Q 1294 969 1453 817 
Q 1613 666 1888 666 
Q 2259 666 2503 911 
Q 2747 1156 2747 1522 
Q 2747 1781 2586 1934 
Q 2425 2088 2150 2088 
z
M 1381 2484 
Q 1044 2625 876 2850 
Q 709 3075 709 3391 
Q 709 4025 1229 4387 
Q 1750 4750 2669 4750 
Q 3406 4750 3812 4475 
Q 4219 4200 4219 3700 
Q 4219 3256 3936 2940 
Q 3653 2625 3128 2484 
Q 3509 2338 3690 2091 
Q 3872 1844 3872 1466 
Q 3872 747 3311 328 
Q 2750 -91 1772 -91 
Q 1000 -91 570 217 
Q 141 525 141 1075 
Q 141 1572 470 1945 
Q 800 2319 1381 2484 
z
M 2559 3994 
Q 2241 3994 2048 3808 
Q 1856 3622 1856 3316 
Q 1856 3103 1995 2972 
Q 2134 2841 2363 2841 
Q 2681 2841 2873 3027 
Q 3066 3213 3066 3519 
Q 3066 3734 2927 3864 
Q 2788 3994 2559 3994 
z
" transform="scale(0.015625)"/>
     </defs>
     <use xlink:href="#DejaVuSans-BoldOblique-34"/>
     <use xlink:href="#DejaVuSans-BoldOblique-34" transform="translate(69.580078 0)"/>
     <use xlink:href="#DejaVuSans-BoldOblique-39" transform="translate(139.160156 0)"/>
     <use xlink:href="#DejaVuSans-BoldOblique-38" transform="translate(208.740234 0)"/>
    </g>
   </g>
   <g id="text_7">
    <!-- 4⁺ -->
    <g transform="translate(182.58336 209.107441) scale(0.23 -0.23)">
     <defs>
      <path id="TimesNewRomanPS-BoldMT-34" d="M 159 1597 
L 2172 4325 
L 2553 4325 
L 2553 1597 
L 2941 1597 
L 2941 950 
L 2553 950 
L 2553 0 
L 1694 0 
L 1694 950 
L 159 950 
L 159 1597 
z
M 463 1597 
L 1694 1597 
L 1694 3269 
L 463 1597 
z
" transform="scale(0.015625)"/>
     </defs>
     <use xlink:href="#TimesNewRomanPS-BoldMT-34"/>
     <use xlink:href="#DejaVuSerif-Bold-207a" transform="translate(50 0)"/>
    </g>
   </g>
   <g id="text_8">
    <!-- 5913 -->
    <g transform="translate(13.58775 121.900659) scale(0.16 -0.16)">
     <defs>
      <path id="DejaVuSans-BoldOblique-31" d="M 441 831 
L 1503 831 
L 2088 3847 
L 953 3622 
L 1113 4441 
L 2241 4666 
L 3384 4666 
L 2644 831 
L 3700 831 
L 3541 0 
L 275 0 
L 441 831 
z
" transform="scale(0.015625)"/>
     </defs>
     <use xlink:href="#DejaVuSans-BoldOblique-35"/>
     <use xlink:href="#DejaVuSans-BoldOblique-39" transform="translate(69.580078 0)"/>
     <use xlink:href="#DejaVuSans-BoldOblique-31" transform="translate(139.160156 0)"/>
     <use xlink:href="#DejaVuSans-BoldOblique-33" transform="translate(208.740234 0)"/>
    </g>
   </g>
   <g id="text_9">
    <!-- 6⁺ -->
    <g transform="translate(182.58336 122.640893) scale(0.23 -0.23)">
     <defs>
      <path id="TimesNewRomanPS-BoldMT-36" d="M 3006 4325 
L 3006 4238 
Q 2441 4094 2098 3867 
Q 1756 3641 1557 3317 
Q 1359 2994 1250 2516 
Q 1388 2609 1478 2638 
Q 1681 2700 1888 2700 
Q 2363 2700 2680 2354 
Q 2997 2009 2997 1413 
Q 2997 994 2825 644 
Q 2653 294 2337 103 
Q 2022 -88 1663 -88 
Q 1272 -88 940 126 
Q 609 341 423 753 
Q 238 1166 238 1650 
Q 238 2363 580 2977 
Q 922 3591 1551 3955 
Q 2181 4319 3006 4325 
z
M 1209 2263 
Q 1184 1831 1184 1631 
Q 1184 1200 1267 797 
Q 1350 394 1494 231 
Q 1597 116 1738 116 
Q 1881 116 1993 283 
Q 2106 450 2106 963 
Q 2106 1825 1897 2153 
Q 1763 2366 1534 2366 
Q 1409 2366 1209 2263 
z
" transform="scale(0.015625)"/>
     </defs>
     <use xlink:href="#TimesNewRomanPS-BoldMT-36"/>
     <use xlink:href="#DejaVuSerif-Bold-207a" transform="translate(50 0)"/>
    </g>
   </g>
   <g id="text_10">
    <!-- 2880 -->
    <g transform="translate(263.461892 307.269418) scale(0.16 -0.16)">
     <use xlink:href="#DejaVuSans-BoldOblique-32"/>
     <use xlink:href="#DejaVuSans-BoldOblique-38" transform="translate(69.580078 0)"/>
     <use xlink:href="#DejaVuSans-BoldOblique-38" transform="translate(139.160156 0)"/>
     <use xlink:href="#DejaVuSans-BoldOblique-30" transform="translate(208.740234 0)"/>
    </g>
   </g>
   <g id="text_11">
    <!-- 0⁺ -->
    <g transform="translate(432.457502 308.009652) scale(0.23 -0.23)">
     <use xlink:href="#TimesNewRomanPS-BoldMT-30"/>
     <use xlink:href="#DejaVuSerif-Bold-207a" transform="translate(50 0)"/>
    </g>
   </g>
   <g id="text_12">
    <!-- 4078 -->
    <g transform="translate(263.461892 234.053918) scale(0.16 -0.16)">
     <defs>
      <path id="DejaVuSans-BoldOblique-37" d="M 922 4666 
L 4441 4666 
L 4300 3981 
L 1703 0 
L 500 0 
L 2969 3781 
L 756 3781 
L 922 4666 
z
" transform="scale(0.015625)"/>
     </defs>
     <use xlink:href="#DejaVuSans-BoldOblique-34"/>
     <use xlink:href="#DejaVuSans-BoldOblique-30" transform="translate(69.580078 0)"/>
     <use xlink:href="#DejaVuSans-BoldOblique-37" transform="translate(139.160156 0)"/>
     <use xlink:href="#DejaVuSans-BoldOblique-38" transform="translate(208.740234 0)"/>
    </g>
   </g>
   <g id="text_13">
    <!-- 2⁺ -->
    <g transform="translate(432.457502 234.794152) scale(0.23 -0.23)">
     <use xlink:href="#TimesNewRomanPS-BoldMT-32"/>
     <use xlink:href="#DejaVuSerif-Bold-207a" transform="translate(50 0)"/>
    </g>
   </g>
   <g id="text_14">
    <!-- 5547 -->
    <g transform="translate(263.461892 144.277359) scale(0.16 -0.16)">
     <use xlink:href="#DejaVuSans-BoldOblique-35"/>
     <use xlink:href="#DejaVuSans-BoldOblique-35" transform="translate(69.580078 0)"/>
     <use xlink:href="#DejaVuSans-BoldOblique-34" transform="translate(139.160156 0)"/>
     <use xlink:href="#DejaVuSans-BoldOblique-37" transform="translate(208.740234 0)"/>
    </g>
   </g>
   <g id="text_15">
    <!-- 4⁺ -->
    <g transform="translate(432.457502 145.017593) scale(0.23 -0.23)">
     <use xlink:href="#TimesNewRomanPS-BoldMT-34"/>
     <use xlink:href="#DejaVuSerif-Bold-207a" transform="translate(50 0)"/>
    </g>
   </g>
   <g id="text_16">
    <!-- 6419 -->
    <g transform="translate(263.461892 90.974986) scale(0.16 -0.16)">
     <use xlink:href="#DejaVuSans-BoldOblique-36"/>
     <use xlink:href="#DejaVuSans-BoldOblique-34" transform="translate(69.580078 0)"/>
     <use xlink:href="#DejaVuSans-BoldOblique-31" transform="translate(139.160156 0)"/>
     <use xlink:href="#DejaVuSans-BoldOblique-39" transform="translate(208.740234 0)"/>
    </g>
   </g>
   <g id="text_17">
    <!-- 6⁺ -->
    <g transform="translate(432.457502 91.71522) scale(0.23 -0.23)">
     <use xlink:href="#TimesNewRomanPS-BoldMT-36"/>
     <use xlink:href="#DejaVuSerif-Bold-207a" transform="translate(50 0)"/>
    </g>
   </g>
   <g id="text_18">
    <!-- 4866 -->
    <g transform="translate(513.336034 185.875402) scale(0.16 -0.16)">
     <use xlink:href="#DejaVuSans-BoldOblique-34"/>
     <use xlink:href="#DejaVuSans-BoldOblique-38" transform="translate(69.580078 0)"/>
     <use xlink:href="#DejaVuSans-BoldOblique-36" transform="translate(139.160156 0)"/>
     <use xlink:href="#DejaVuSans-BoldOblique-36" transform="translate(208.740234 0)"/>
    </g>
   </g>
   <g id="text_19">
    <!-- 2⁺ -->
    <g transform="translate(682.331644 186.615637) scale(0.23 -0.23)">
     <use xlink:href="#TimesNewRomanPS-BoldMT-32"/>
     <use xlink:href="#DejaVuSerif-Bold-207a" transform="translate(50 0)"/>
    </g>
   </g>
   <g id="text_20">
    <!-- 6004 -->
    <g transform="translate(513.336034 116.3258) scale(0.16 -0.16)">
     <use xlink:href="#DejaVuSans-BoldOblique-36"/>
     <use xlink:href="#DejaVuSans-BoldOblique-30" transform="translate(69.580078 0)"/>
     <use xlink:href="#DejaVuSans-BoldOblique-30" transform="translate(139.160156 0)"/>
     <use xlink:href="#DejaVuSans-BoldOblique-34" transform="translate(208.740234 0)"/>
    </g>
   </g>
   <g id="text_21">
    <!-- 3⁺ -->
    <g transform="translate(682.331644 117.066034) scale(0.23 -0.23)">
     <defs>
      <path id="TimesNewRomanPS-BoldMT-33" d="M 947 2125 
L 947 2234 
Q 1303 2338 1440 2427 
Q 1578 2516 1678 2698 
Q 1778 2881 1778 3069 
Q 1778 3328 1589 3514 
Q 1400 3700 1119 3700 
Q 681 3700 375 3238 
L 259 3278 
Q 484 3800 836 4062 
Q 1188 4325 1619 4325 
Q 2059 4325 2345 4056 
Q 2631 3788 2631 3428 
Q 2631 3194 2498 2976 
Q 2366 2759 2081 2594 
Q 2447 2416 2639 2155 
Q 2831 1894 2831 1500 
Q 2831 838 2351 373 
Q 1872 -91 1066 -91 
Q 528 -91 281 88 
Q 103 213 103 409 
Q 103 553 206 654 
Q 309 756 444 756 
Q 547 756 638 713 
Q 688 688 992 439 
Q 1297 191 1563 191 
Q 1794 191 1959 373 
Q 2125 556 2125 838 
Q 2125 1266 1825 1627 
Q 1525 1988 947 2125 
z
" transform="scale(0.015625)"/>
     </defs>
     <use xlink:href="#TimesNewRomanPS-BoldMT-33"/>
     <use xlink:href="#DejaVuSerif-Bold-207a" transform="translate(50 0)"/>
    </g>
   </g>
   <g id="text_22">
    <path d="M 111.560555 394.205913 
L 111.560555 402.870913 
Q 111.560555 403.845913 111.645555 404.115913 
Q 111.733055 404.385913 112.005555 404.558413 
Q 112.280555 404.728413 112.883055 404.728413 
L 113.123055 404.728413 
L 113.123055 405.018413 
L 107.545555 405.018413 
L 107.545555 404.728413 
L 107.828055 404.728413 
Q 108.508055 404.728413 108.795555 404.573413 
Q 109.085555 404.415913 109.185555 404.143413 
Q 109.288055 403.870913 109.288055 402.870913 
L 109.288055 397.378413 
Q 109.288055 396.643413 109.218055 396.460913 
Q 109.148055 396.275913 108.955555 396.148413 
Q 108.765555 396.018413 108.515555 396.018413 
Q 108.115555 396.018413 107.545555 396.268413 
L 107.405555 395.985913 
L 111.303055 394.205913 
L 111.560555 394.205913 
z
M 114.748055 401.025913 
L 119.780555 394.205913 
L 120.733055 394.205913 
L 120.733055 401.025913 
L 121.703055 401.025913 
L 121.703055 402.643413 
L 120.733055 402.643413 
L 120.733055 405.018413 
L 118.585555 405.018413 
L 118.585555 402.643413 
L 114.748055 402.643413 
L 114.748055 401.025913 
z
M 115.508055 401.025913 
L 118.585555 401.025913 
L 118.585555 396.845913 
L 115.508055 401.025913 
z
M 124.350555 402.610913 
Q 124.898055 402.610913 125.275555 402.995913 
Q 125.655555 403.378413 125.655555 403.915913 
Q 125.655555 404.455913 125.273055 404.835913 
Q 124.890555 405.213413 124.350555 405.213413 
Q 123.810555 405.213413 123.430555 404.835913 
Q 123.053055 404.455913 123.053055 403.915913 
Q 123.053055 403.378413 123.430555 402.995913 
Q 123.810555 402.610913 124.350555 402.610913 
z
M 133.865555 394.205913 
L 133.865555 394.423413 
Q 132.453055 394.783413 131.595555 395.350913 
Q 130.740555 395.915913 130.243055 396.725913 
Q 129.748055 397.533413 129.475555 398.728413 
Q 129.820555 398.495913 130.045555 398.423413 
Q 130.553055 398.268413 131.070555 398.268413 
Q 132.258055 398.268413 133.050555 399.133413 
Q 133.843055 399.995913 133.843055 401.485913 
Q 133.843055 402.533413 133.413055 403.408413 
Q 132.983055 404.283413 132.193055 404.760913 
Q 131.405555 405.238413 130.508055 405.238413 
Q 129.530555 405.238413 128.700555 404.703413 
Q 127.873055 404.165913 127.408055 403.135913 
Q 126.945555 402.103413 126.945555 400.893413 
Q 126.945555 399.110913 127.800555 397.575913 
Q 128.655555 396.040913 130.228055 395.130913 
Q 131.803055 394.220913 133.865555 394.205913 
z
M 129.373055 399.360913 
Q 129.310555 400.440913 129.310555 400.940913 
Q 129.310555 402.018413 129.518055 403.025913 
Q 129.725555 404.033413 130.085555 404.440913 
Q 130.343055 404.728413 130.695555 404.728413 
Q 131.053055 404.728413 131.333055 404.310913 
Q 131.615555 403.893413 131.615555 402.610913 
Q 131.615555 400.455913 131.093055 399.635913 
Q 130.758055 399.103413 130.185555 399.103413 
Q 129.873055 399.103413 129.373055 399.360913 
z
" style="stroke: #ffffff; stroke-width: 3.8"/>
    <path d="M 111.560555 394.205913 
L 111.560555 402.870913 
Q 111.560555 403.845913 111.645555 404.115913 
Q 111.733055 404.385913 112.005555 404.558413 
Q 112.280555 404.728413 112.883055 404.728413 
L 113.123055 404.728413 
L 113.123055 405.018413 
L 107.545555 405.018413 
L 107.545555 404.728413 
L 107.828055 404.728413 
Q 108.508055 404.728413 108.795555 404.573413 
Q 109.085555 404.415913 109.185555 404.143413 
Q 109.288055 403.870913 109.288055 402.870913 
L 109.288055 397.378413 
Q 109.288055 396.643413 109.218055 396.460913 
Q 109.148055 396.275913 108.955555 396.148413 
Q 108.765555 396.018413 108.515555 396.018413 
Q 108.115555 396.018413 107.545555 396.268413 
L 107.405555 395.985913 
L 111.303055 394.205913 
L 111.560555 394.205913 
z
M 114.748055 401.025913 
L 119.780555 394.205913 
L 120.733055 394.205913 
L 120.733055 401.025913 
L 121.703055 401.025913 
L 121.703055 402.643413 
L 120.733055 402.643413 
L 120.733055 405.018413 
L 118.585555 405.018413 
L 118.585555 402.643413 
L 114.748055 402.643413 
L 114.748055 401.025913 
z
M 115.508055 401.025913 
L 118.585555 401.025913 
L 118.585555 396.845913 
L 115.508055 401.025913 
z
M 124.350555 402.610913 
Q 124.898055 402.610913 125.275555 402.995913 
Q 125.655555 403.378413 125.655555 403.915913 
Q 125.655555 404.455913 125.273055 404.835913 
Q 124.890555 405.213413 124.350555 405.213413 
Q 123.810555 405.213413 123.430555 404.835913 
Q 123.053055 404.455913 123.053055 403.915913 
Q 123.053055 403.378413 123.430555 402.995913 
Q 123.810555 402.610913 124.350555 402.610913 
z
M 133.865555 394.205913 
L 133.865555 394.423413 
Q 132.453055 394.783413 131.595555 395.350913 
Q 130.740555 395.915913 130.243055 396.725913 
Q 129.748055 397.533413 129.475555 398.728413 
Q 129.820555 398.495913 130.045555 398.423413 
Q 130.553055 398.268413 131.070555 398.268413 
Q 132.258055 398.268413 133.050555 399.133413 
Q 133.843055 399.995913 133.843055 401.485913 
Q 133.843055 402.533413 133.413055 403.408413 
Q 132.983055 404.283413 132.193055 404.760913 
Q 131.405555 405.238413 130.508055 405.238413 
Q 129.530555 405.238413 128.700555 404.703413 
Q 127.873055 404.165913 127.408055 403.135913 
Q 126.945555 402.103413 126.945555 400.893413 
Q 126.945555 399.110913 127.800555 397.575913 
Q 128.655555 396.040913 130.228055 395.130913 
Q 131.803055 394.220913 133.865555 394.205913 
z
M 129.373055 399.360913 
Q 129.310555 400.440913 129.310555 400.940913 
Q 129.310555 402.018413 129.518055 403.025913 
Q 129.725555 404.033413 130.085555 404.440913 
Q 130.343055 404.728413 130.695555 404.728413 
Q 131.053055 404.728413 131.333055 404.310913 
Q 131.615555 403.893413 131.615555 402.610913 
Q 131.615555 400.455913 131.093055 399.635913 
Q 130.758055 399.103413 130.185555 399.103413 
Q 129.873055 399.103413 129.373055 399.360913 
z
"/>
   </g>
   <g id="text_23">
    <path d="M 112.975555 267.529743 
L 106.740555 267.529743 
L 106.740555 267.357243 
Q 109.608055 263.944743 110.220555 262.764743 
Q 110.835555 261.584743 110.835555 260.459743 
Q 110.835555 259.639743 110.328055 259.097243 
Q 109.820555 258.552243 109.085555 258.552243 
Q 107.883055 258.552243 107.218055 259.757243 
L 106.928055 259.654743 
Q 107.350555 258.154743 108.210555 257.437243 
Q 109.070555 256.717243 110.195555 256.717243 
Q 110.998055 256.717243 111.663055 257.092243 
Q 112.328055 257.467243 112.703055 258.119743 
Q 113.078055 258.772243 113.078055 259.342243 
Q 113.078055 260.382243 112.498055 261.452243 
Q 111.710555 262.897243 109.053055 265.482243 
L 111.343055 265.482243 
Q 112.185555 265.482243 112.440555 265.412243 
Q 112.695555 265.342243 112.858055 265.174743 
Q 113.023055 265.007243 113.288055 264.467243 
L 113.570555 264.467243 
L 112.975555 267.529743 
z
M 117.185555 267.749743 
L 120.070555 259.007243 
L 117.873055 259.007243 
Q 116.585555 259.007243 115.935555 259.342243 
Q 115.483055 259.577243 115.185555 260.224743 
L 114.890555 260.224743 
L 115.655555 256.934743 
L 121.968055 256.934743 
L 118.413055 267.749743 
L 117.185555 267.749743 
z
M 124.350555 265.122243 
Q 124.898055 265.122243 125.275555 265.507243 
Q 125.655555 265.889743 125.655555 266.427243 
Q 125.655555 266.967243 125.273055 267.347243 
Q 124.890555 267.724743 124.350555 267.724743 
Q 123.810555 267.724743 123.430555 267.347243 
Q 123.053055 266.967243 123.053055 266.427243 
Q 123.053055 265.889743 123.430555 265.507243 
Q 123.810555 265.122243 124.350555 265.122243 
z
M 128.788055 256.934743 
L 133.748055 256.934743 
L 132.960555 258.952243 
L 128.788055 258.952243 
L 128.390555 260.007243 
Q 131.085555 260.107243 132.538055 261.349743 
Q 133.733055 262.372243 133.733055 263.897243 
Q 133.733055 264.872243 133.178055 265.807243 
Q 132.623055 266.739743 131.615555 267.244743 
Q 130.608055 267.749743 129.405555 267.749743 
Q 128.108055 267.749743 127.413055 267.264743 
Q 126.928055 266.919743 126.928055 266.482243 
Q 126.928055 266.147243 127.180555 265.889743 
Q 127.435555 265.632243 127.773055 265.632243 
Q 128.078055 265.632243 128.390555 265.757243 
Q 128.703055 265.882243 129.460555 266.412243 
Q 129.935555 266.739743 130.280555 266.864743 
Q 130.523055 266.959743 130.828055 266.959743 
Q 131.468055 266.959743 131.915555 266.492243 
Q 132.365555 266.022243 132.365555 265.364743 
Q 132.365555 263.989743 130.990555 263.132243 
Q 129.615555 262.272243 127.523055 262.272243 
Q 127.310555 262.272243 126.890555 262.279743 
L 128.788055 256.934743 
z
" style="stroke: #ffffff; stroke-width: 3.8"/>
    <path d="M 112.975555 267.529743 
L 106.740555 267.529743 
L 106.740555 267.357243 
Q 109.608055 263.944743 110.220555 262.764743 
Q 110.835555 261.584743 110.835555 260.459743 
Q 110.835555 259.639743 110.328055 259.097243 
Q 109.820555 258.552243 109.085555 258.552243 
Q 107.883055 258.552243 107.218055 259.757243 
L 106.928055 259.654743 
Q 107.350555 258.154743 108.210555 257.437243 
Q 109.070555 256.717243 110.195555 256.717243 
Q 110.998055 256.717243 111.663055 257.092243 
Q 112.328055 257.467243 112.703055 258.119743 
Q 113.078055 258.772243 113.078055 259.342243 
Q 113.078055 260.382243 112.498055 261.452243 
Q 111.710555 262.897243 109.053055 265.482243 
L 111.343055 265.482243 
Q 112.185555 265.482243 112.440555 265.412243 
Q 112.695555 265.342243 112.858055 265.174743 
Q 113.023055 265.007243 113.288055 264.467243 
L 113.570555 264.467243 
L 112.975555 267.529743 
z
M 117.185555 267.749743 
L 120.070555 259.007243 
L 117.873055 259.007243 
Q 116.585555 259.007243 115.935555 259.342243 
Q 115.483055 259.577243 115.185555 260.224743 
L 114.890555 260.224743 
L 115.655555 256.934743 
L 121.968055 256.934743 
L 118.413055 267.749743 
L 117.185555 267.749743 
z
M 124.350555 265.122243 
Q 124.898055 265.122243 125.275555 265.507243 
Q 125.655555 265.889743 125.655555 266.427243 
Q 125.655555 266.967243 125.273055 267.347243 
Q 124.890555 267.724743 124.350555 267.724743 
Q 123.810555 267.724743 123.430555 267.347243 
Q 123.053055 266.967243 123.053055 266.427243 
Q 123.053055 265.889743 123.430555 265.507243 
Q 123.810555 265.122243 124.350555 265.122243 
z
M 128.788055 256.934743 
L 133.748055 256.934743 
L 132.960555 258.952243 
L 128.788055 258.952243 
L 128.390555 260.007243 
Q 131.085555 260.107243 132.538055 261.349743 
Q 133.733055 262.372243 133.733055 263.897243 
Q 133.733055 264.872243 133.178055 265.807243 
Q 132.623055 266.739743 131.615555 267.244743 
Q 130.608055 267.749743 129.405555 267.749743 
Q 128.108055 267.749743 127.413055 267.264743 
Q 126.928055 266.919743 126.928055 266.482243 
Q 126.928055 266.147243 127.180555 265.889743 
Q 127.435555 265.632243 127.773055 265.632243 
Q 128.078055 265.632243 128.390555 265.757243 
Q 128.703055 265.882243 129.460555 266.412243 
Q 129.935555 266.739743 130.280555 266.864743 
Q 130.523055 266.959743 130.828055 266.959743 
Q 131.468055 266.959743 131.915555 266.492243 
Q 132.365555 266.022243 132.365555 265.364743 
Q 132.365555 263.989743 130.990555 263.132243 
Q 129.615555 262.272243 127.523055 262.272243 
Q 127.310555 262.272243 126.890555 262.279743 
L 128.788055 256.934743 
z
"/>
   </g>
   <g id="text_24">
    <path d="M 113.865555 153.492682 
L 113.865555 153.710182 
Q 112.453055 154.070182 111.595555 154.637682 
Q 110.740555 155.202682 110.243055 156.012682 
Q 109.748055 156.820182 109.475555 158.015182 
Q 109.820555 157.782682 110.045555 157.710182 
Q 110.553055 157.555182 111.070555 157.555182 
Q 112.258055 157.555182 113.050555 158.420182 
Q 113.843055 159.282682 113.843055 160.772682 
Q 113.843055 161.820182 113.413055 162.695182 
Q 112.983055 163.570182 112.193055 164.047682 
Q 111.405555 164.525182 110.508055 164.525182 
Q 109.530555 164.525182 108.700555 163.990182 
Q 107.873055 163.452682 107.408055 162.422682 
Q 106.945555 161.390182 106.945555 160.180182 
Q 106.945555 158.397682 107.800555 156.862682 
Q 108.655555 155.327682 110.228055 154.417682 
Q 111.803055 153.507682 113.865555 153.492682 
z
M 109.373055 158.647682 
Q 109.310555 159.727682 109.310555 160.227682 
Q 109.310555 161.305182 109.518055 162.312682 
Q 109.725555 163.320182 110.085555 163.727682 
Q 110.343055 164.015182 110.695555 164.015182 
Q 111.053055 164.015182 111.333055 163.597682 
Q 111.615555 163.180182 111.615555 161.897682 
Q 111.615555 159.742682 111.093055 158.922682 
Q 110.758055 158.390182 110.185555 158.390182 
Q 109.873055 158.390182 109.373055 158.647682 
z
M 116.718055 158.992682 
L 116.718055 158.720182 
Q 117.608055 158.460182 117.950555 158.237682 
Q 118.295555 158.015182 118.545555 157.560182 
Q 118.795555 157.102682 118.795555 156.632682 
Q 118.795555 155.985182 118.323055 155.520182 
Q 117.850555 155.055182 117.148055 155.055182 
Q 116.053055 155.055182 115.288055 156.210182 
L 114.998055 156.110182 
Q 115.560555 154.805182 116.440555 154.150182 
Q 117.320555 153.492682 118.398055 153.492682 
Q 119.498055 153.492682 120.213055 154.165182 
Q 120.928055 154.835182 120.928055 155.735182 
Q 120.928055 156.320182 120.595555 156.865182 
Q 120.265555 157.407682 119.553055 157.820182 
Q 120.468055 158.265182 120.948055 158.917682 
Q 121.428055 159.570182 121.428055 160.555182 
Q 121.428055 162.210182 120.228055 163.372682 
Q 119.030555 164.532682 117.015555 164.532682 
Q 115.670555 164.532682 115.053055 164.085182 
Q 114.608055 163.772682 114.608055 163.282682 
Q 114.608055 162.922682 114.865555 162.670182 
Q 115.123055 162.415182 115.460555 162.415182 
Q 115.718055 162.415182 115.945555 162.522682 
Q 116.070555 162.585182 116.830555 163.207682 
Q 117.593055 163.827682 118.258055 163.827682 
Q 118.835555 163.827682 119.248055 163.372682 
Q 119.663055 162.915182 119.663055 162.210182 
Q 119.663055 161.140182 118.913055 160.237682 
Q 118.163055 159.335182 116.718055 158.992682 
z
M 124.350555 161.897682 
Q 124.898055 161.897682 125.275555 162.282682 
Q 125.655555 162.665182 125.655555 163.202682 
Q 125.655555 163.742682 125.273055 164.122682 
Q 124.890555 164.500182 124.350555 164.500182 
Q 123.810555 164.500182 123.430555 164.122682 
Q 123.053055 163.742682 123.053055 163.202682 
Q 123.053055 162.665182 123.430555 162.282682 
Q 123.810555 161.897682 124.350555 161.897682 
z
M 126.748055 160.312682 
L 131.780555 153.492682 
L 132.733055 153.492682 
L 132.733055 160.312682 
L 133.703055 160.312682 
L 133.703055 161.930182 
L 132.733055 161.930182 
L 132.733055 164.305182 
L 130.585555 164.305182 
L 130.585555 161.930182 
L 126.748055 161.930182 
L 126.748055 160.312682 
z
M 127.508055 160.312682 
L 130.585555 160.312682 
L 130.585555 156.132682 
L 127.508055 160.312682 
z
" style="stroke: #ffffff; stroke-width: 3.8"/>
    <path d="M 113.865555 153.492682 
L 113.865555 153.710182 
Q 112.453055 154.070182 111.595555 154.637682 
Q 110.740555 155.202682 110.243055 156.012682 
Q 109.748055 156.820182 109.475555 158.015182 
Q 109.820555 157.782682 110.045555 157.710182 
Q 110.553055 157.555182 111.070555 157.555182 
Q 112.258055 157.555182 113.050555 158.420182 
Q 113.843055 159.282682 113.843055 160.772682 
Q 113.843055 161.820182 113.413055 162.695182 
Q 112.983055 163.570182 112.193055 164.047682 
Q 111.405555 164.525182 110.508055 164.525182 
Q 109.530555 164.525182 108.700555 163.990182 
Q 107.873055 163.452682 107.408055 162.422682 
Q 106.945555 161.390182 106.945555 160.180182 
Q 106.945555 158.397682 107.800555 156.862682 
Q 108.655555 155.327682 110.228055 154.417682 
Q 111.803055 153.507682 113.865555 153.492682 
z
M 109.373055 158.647682 
Q 109.310555 159.727682 109.310555 160.227682 
Q 109.310555 161.305182 109.518055 162.312682 
Q 109.725555 163.320182 110.085555 163.727682 
Q 110.343055 164.015182 110.695555 164.015182 
Q 111.053055 164.015182 111.333055 163.597682 
Q 111.615555 163.180182 111.615555 161.897682 
Q 111.615555 159.742682 111.093055 158.922682 
Q 110.758055 158.390182 110.185555 158.390182 
Q 109.873055 158.390182 109.373055 158.647682 
z
M 116.718055 158.992682 
L 116.718055 158.720182 
Q 117.608055 158.460182 117.950555 158.237682 
Q 118.295555 158.015182 118.545555 157.560182 
Q 118.795555 157.102682 118.795555 156.632682 
Q 118.795555 155.985182 118.323055 155.520182 
Q 117.850555 155.055182 117.148055 155.055182 
Q 116.053055 155.055182 115.288055 156.210182 
L 114.998055 156.110182 
Q 115.560555 154.805182 116.440555 154.150182 
Q 117.320555 153.492682 118.398055 153.492682 
Q 119.498055 153.492682 120.213055 154.165182 
Q 120.928055 154.835182 120.928055 155.735182 
Q 120.928055 156.320182 120.595555 156.865182 
Q 120.265555 157.407682 119.553055 157.820182 
Q 120.468055 158.265182 120.948055 158.917682 
Q 121.428055 159.570182 121.428055 160.555182 
Q 121.428055 162.210182 120.228055 163.372682 
Q 119.030555 164.532682 117.015555 164.532682 
Q 115.670555 164.532682 115.053055 164.085182 
Q 114.608055 163.772682 114.608055 163.282682 
Q 114.608055 162.922682 114.865555 162.670182 
Q 115.123055 162.415182 115.460555 162.415182 
Q 115.718055 162.415182 115.945555 162.522682 
Q 116.070555 162.585182 116.830555 163.207682 
Q 117.593055 163.827682 118.258055 163.827682 
Q 118.835555 163.827682 119.248055 163.372682 
Q 119.663055 162.915182 119.663055 162.210182 
Q 119.663055 161.140182 118.913055 160.237682 
Q 118.163055 159.335182 116.718055 158.992682 
z
M 124.350555 161.897682 
Q 124.898055 161.897682 125.275555 162.282682 
Q 125.655555 162.665182 125.655555 163.202682 
Q 125.655555 163.742682 125.273055 164.122682 
Q 124.890555 164.500182 124.350555 164.500182 
Q 123.810555 164.500182 123.430555 164.122682 
Q 123.053055 163.742682 123.053055 163.202682 
Q 123.053055 162.665182 123.430555 162.282682 
Q 123.810555 161.897682 124.350555 161.897682 
z
M 126.748055 160.312682 
L 131.780555 153.492682 
L 132.733055 153.492682 
L 132.733055 160.312682 
L 133.703055 160.312682 
L 133.703055 161.930182 
L 132.733055 161.930182 
L 132.733055 164.305182 
L 130.585555 164.305182 
L 130.585555 161.930182 
L 126.748055 161.930182 
L 126.748055 160.312682 
z
M 127.508055 160.312682 
L 130.585555 160.312682 
L 130.585555 156.132682 
L 127.508055 160.312682 
z
"/>
   </g>
   <g id="text_25">
    <path d="M 361.434697 259.020418 
L 361.434697 267.685418 
Q 361.434697 268.660418 361.519697 268.930418 
Q 361.607197 269.200418 361.879697 269.372918 
Q 362.154697 269.542918 362.757197 269.542918 
L 362.997197 269.542918 
L 362.997197 269.832918 
L 357.419697 269.832918 
L 357.419697 269.542918 
L 357.702197 269.542918 
Q 358.382197 269.542918 358.669697 269.387918 
Q 358.959697 269.230418 359.059697 268.957918 
Q 359.162197 268.685418 359.162197 267.685418 
L 359.162197 262.192918 
Q 359.162197 261.457918 359.092197 261.275418 
Q 359.022197 261.090418 358.829697 260.962918 
Q 358.639697 260.832918 358.389697 260.832918 
Q 357.989697 260.832918 357.419697 261.082918 
L 357.279697 260.800418 
L 361.177197 259.020418 
L 361.434697 259.020418 
z
M 364.717197 270.052918 
L 364.717197 269.832918 
Q 366.014697 269.535418 366.917197 268.957918 
Q 367.819697 268.380418 368.344697 267.527918 
Q 368.872197 266.675418 369.084697 265.567918 
Q 368.599697 265.817918 368.259697 265.915418 
Q 367.919697 266.012918 367.544697 266.012918 
Q 366.342197 266.012918 365.539697 265.145418 
Q 364.739697 264.277918 364.739697 262.770418 
Q 364.739697 261.722918 365.172197 260.852918 
Q 365.607197 259.980418 366.412197 259.500418 
Q 367.217197 259.020418 368.084697 259.020418 
Q 369.014697 259.020418 369.842197 259.552918 
Q 370.669697 260.082918 371.162197 261.090418 
Q 371.654697 262.097918 371.654697 263.387918 
Q 371.654697 265.060418 370.852197 266.592918 
Q 370.052197 268.122918 368.467197 269.047918 
Q 366.882197 269.972918 364.717197 270.052918 
z
M 369.202197 264.910418 
Q 369.279697 264.035418 369.279697 263.372918 
Q 369.279697 261.950418 368.952197 260.722918 
Q 368.764697 260.042918 368.397197 259.722918 
Q 368.202197 259.550418 367.889697 259.550418 
Q 367.497197 259.550418 367.279697 259.887918 
Q 366.974697 260.347918 366.974697 261.645418 
Q 366.974697 263.810418 367.489697 264.630418 
Q 367.827197 265.160418 368.397197 265.160418 
Q 368.702197 265.160418 369.202197 264.910418 
z
M 374.224697 267.425418 
Q 374.772197 267.425418 375.149697 267.810418 
Q 375.529697 268.192918 375.529697 268.730418 
Q 375.529697 269.270418 375.147197 269.650418 
Q 374.764697 270.027918 374.224697 270.027918 
Q 373.684697 270.027918 373.304697 269.650418 
Q 372.927197 269.270418 372.927197 268.730418 
Q 372.927197 268.192918 373.304697 267.810418 
Q 373.684697 267.425418 374.224697 267.425418 
z
M 382.849697 269.832918 
L 376.614697 269.832918 
L 376.614697 269.660418 
Q 379.482197 266.247918 380.094697 265.067918 
Q 380.709697 263.887918 380.709697 262.762918 
Q 380.709697 261.942918 380.202197 261.400418 
Q 379.694697 260.855418 378.959697 260.855418 
Q 377.757197 260.855418 377.092197 262.060418 
L 376.802197 261.957918 
Q 377.224697 260.457918 378.084697 259.740418 
Q 378.944697 259.020418 380.069697 259.020418 
Q 380.872197 259.020418 381.537197 259.395418 
Q 382.202197 259.770418 382.577197 260.422918 
Q 382.952197 261.075418 382.952197 261.645418 
Q 382.952197 262.685418 382.372197 263.755418 
Q 381.584697 265.200418 378.927197 267.785418 
L 381.217197 267.785418 
Q 382.059697 267.785418 382.314697 267.715418 
Q 382.569697 267.645418 382.732197 267.477918 
Q 382.897197 267.310418 383.162197 266.770418 
L 383.444697 266.770418 
L 382.849697 269.832918 
z
" style="stroke: #ffffff; stroke-width: 3.8"/>
    <path d="M 361.434697 259.020418 
L 361.434697 267.685418 
Q 361.434697 268.660418 361.519697 268.930418 
Q 361.607197 269.200418 361.879697 269.372918 
Q 362.154697 269.542918 362.757197 269.542918 
L 362.997197 269.542918 
L 362.997197 269.832918 
L 357.419697 269.832918 
L 357.419697 269.542918 
L 357.702197 269.542918 
Q 358.382197 269.542918 358.669697 269.387918 
Q 358.959697 269.230418 359.059697 268.957918 
Q 359.162197 268.685418 359.162197 267.685418 
L 359.162197 262.192918 
Q 359.162197 261.457918 359.092197 261.275418 
Q 359.022197 261.090418 358.829697 260.962918 
Q 358.639697 260.832918 358.389697 260.832918 
Q 357.989697 260.832918 357.419697 261.082918 
L 357.279697 260.800418 
L 361.177197 259.020418 
L 361.434697 259.020418 
z
M 364.717197 270.052918 
L 364.717197 269.832918 
Q 366.014697 269.535418 366.917197 268.957918 
Q 367.819697 268.380418 368.344697 267.527918 
Q 368.872197 266.675418 369.084697 265.567918 
Q 368.599697 265.817918 368.259697 265.915418 
Q 367.919697 266.012918 367.544697 266.012918 
Q 366.342197 266.012918 365.539697 265.145418 
Q 364.739697 264.277918 364.739697 262.770418 
Q 364.739697 261.722918 365.172197 260.852918 
Q 365.607197 259.980418 366.412197 259.500418 
Q 367.217197 259.020418 368.084697 259.020418 
Q 369.014697 259.020418 369.842197 259.552918 
Q 370.669697 260.082918 371.162197 261.090418 
Q 371.654697 262.097918 371.654697 263.387918 
Q 371.654697 265.060418 370.852197 266.592918 
Q 370.052197 268.122918 368.467197 269.047918 
Q 366.882197 269.972918 364.717197 270.052918 
z
M 369.202197 264.910418 
Q 369.279697 264.035418 369.279697 263.372918 
Q 369.279697 261.950418 368.952197 260.722918 
Q 368.764697 260.042918 368.397197 259.722918 
Q 368.202197 259.550418 367.889697 259.550418 
Q 367.497197 259.550418 367.279697 259.887918 
Q 366.974697 260.347918 366.974697 261.645418 
Q 366.974697 263.810418 367.489697 264.630418 
Q 367.827197 265.160418 368.397197 265.160418 
Q 368.702197 265.160418 369.202197 264.910418 
z
M 374.224697 267.425418 
Q 374.772197 267.425418 375.149697 267.810418 
Q 375.529697 268.192918 375.529697 268.730418 
Q 375.529697 269.270418 375.147197 269.650418 
Q 374.764697 270.027918 374.224697 270.027918 
Q 373.684697 270.027918 373.304697 269.650418 
Q 372.927197 269.270418 372.927197 268.730418 
Q 372.927197 268.192918 373.304697 267.810418 
Q 373.684697 267.425418 374.224697 267.425418 
z
M 382.849697 269.832918 
L 376.614697 269.832918 
L 376.614697 269.660418 
Q 379.482197 266.247918 380.094697 265.067918 
Q 380.709697 263.887918 380.709697 262.762918 
Q 380.709697 261.942918 380.202197 261.400418 
Q 379.694697 260.855418 378.959697 260.855418 
Q 377.757197 260.855418 377.092197 262.060418 
L 376.802197 261.957918 
Q 377.224697 260.457918 378.084697 259.740418 
Q 378.944697 259.020418 380.069697 259.020418 
Q 380.872197 259.020418 381.537197 259.395418 
Q 382.202197 259.770418 382.577197 260.422918 
Q 382.952197 261.075418 382.952197 261.645418 
Q 382.952197 262.685418 382.372197 263.755418 
Q 381.584697 265.200418 378.927197 267.785418 
L 381.217197 267.785418 
Q 382.059697 267.785418 382.314697 267.715418 
Q 382.569697 267.645418 382.732197 267.477918 
Q 382.897197 267.310418 383.162197 266.770418 
L 383.444697 266.770418 
L 382.849697 269.832918 
z
"/>
   </g>
   <g id="text_26">
    <path d="M 362.849697 188.336889 
L 356.614697 188.336889 
L 356.614697 188.164389 
Q 359.482197 184.751889 360.094697 183.571889 
Q 360.709697 182.391889 360.709697 181.266889 
Q 360.709697 180.446889 360.202197 179.904389 
Q 359.694697 179.359389 358.959697 179.359389 
Q 357.757197 179.359389 357.092197 180.564389 
L 356.802197 180.461889 
Q 357.224697 178.961889 358.084697 178.244389 
Q 358.944697 177.524389 360.069697 177.524389 
Q 360.872197 177.524389 361.537197 177.899389 
Q 362.202197 178.274389 362.577197 178.926889 
Q 362.952197 179.579389 362.952197 180.149389 
Q 362.952197 181.189389 362.372197 182.259389 
Q 361.584697 183.704389 358.927197 186.289389 
L 361.217197 186.289389 
Q 362.059697 186.289389 362.314697 186.219389 
Q 362.569697 186.149389 362.732197 185.981889 
Q 362.897197 185.814389 363.162197 185.274389 
L 363.444697 185.274389 
L 362.849697 188.336889 
z
M 367.059697 188.556889 
L 369.944697 179.814389 
L 367.747197 179.814389 
Q 366.459697 179.814389 365.809697 180.149389 
Q 365.357197 180.384389 365.059697 181.031889 
L 364.764697 181.031889 
L 365.529697 177.741889 
L 371.842197 177.741889 
L 368.287197 188.556889 
L 367.059697 188.556889 
z
M 374.224697 185.929389 
Q 374.772197 185.929389 375.149697 186.314389 
Q 375.529697 186.696889 375.529697 187.234389 
Q 375.529697 187.774389 375.147197 188.154389 
Q 374.764697 188.531889 374.224697 188.531889 
Q 373.684697 188.531889 373.304697 188.154389 
Q 372.927197 187.774389 372.927197 187.234389 
Q 372.927197 186.696889 373.304697 186.314389 
Q 373.684697 185.929389 374.224697 185.929389 
z
M 383.739697 177.524389 
L 383.739697 177.741889 
Q 382.327197 178.101889 381.469697 178.669389 
Q 380.614697 179.234389 380.117197 180.044389 
Q 379.622197 180.851889 379.349697 182.046889 
Q 379.694697 181.814389 379.919697 181.741889 
Q 380.427197 181.586889 380.944697 181.586889 
Q 382.132197 181.586889 382.924697 182.451889 
Q 383.717197 183.314389 383.717197 184.804389 
Q 383.717197 185.851889 383.287197 186.726889 
Q 382.857197 187.601889 382.067197 188.079389 
Q 381.279697 188.556889 380.382197 188.556889 
Q 379.404697 188.556889 378.574697 188.021889 
Q 377.747197 187.484389 377.282197 186.454389 
Q 376.819697 185.421889 376.819697 184.211889 
Q 376.819697 182.429389 377.674697 180.894389 
Q 378.529697 179.359389 380.102197 178.449389 
Q 381.677197 177.539389 383.739697 177.524389 
z
M 379.247197 182.679389 
Q 379.184697 183.759389 379.184697 184.259389 
Q 379.184697 185.336889 379.392197 186.344389 
Q 379.599697 187.351889 379.959697 187.759389 
Q 380.217197 188.046889 380.569697 188.046889 
Q 380.927197 188.046889 381.207197 187.629389 
Q 381.489697 187.211889 381.489697 185.929389 
Q 381.489697 183.774389 380.967197 182.954389 
Q 380.632197 182.421889 380.059697 182.421889 
Q 379.747197 182.421889 379.247197 182.679389 
z
" style="stroke: #ffffff; stroke-width: 3.8"/>
    <path d="M 362.849697 188.336889 
L 356.614697 188.336889 
L 356.614697 188.164389 
Q 359.482197 184.751889 360.094697 183.571889 
Q 360.709697 182.391889 360.709697 181.266889 
Q 360.709697 180.446889 360.202197 179.904389 
Q 359.694697 179.359389 358.959697 179.359389 
Q 357.757197 179.359389 357.092197 180.564389 
L 356.802197 180.461889 
Q 357.224697 178.961889 358.084697 178.244389 
Q 358.944697 177.524389 360.069697 177.524389 
Q 360.872197 177.524389 361.537197 177.899389 
Q 362.202197 178.274389 362.577197 178.926889 
Q 362.952197 179.579389 362.952197 180.149389 
Q 362.952197 181.189389 362.372197 182.259389 
Q 361.584697 183.704389 358.927197 186.289389 
L 361.217197 186.289389 
Q 362.059697 186.289389 362.314697 186.219389 
Q 362.569697 186.149389 362.732197 185.981889 
Q 362.897197 185.814389 363.162197 185.274389 
L 363.444697 185.274389 
L 362.849697 188.336889 
z
M 367.059697 188.556889 
L 369.944697 179.814389 
L 367.747197 179.814389 
Q 366.459697 179.814389 365.809697 180.149389 
Q 365.357197 180.384389 365.059697 181.031889 
L 364.764697 181.031889 
L 365.529697 177.741889 
L 371.842197 177.741889 
L 368.287197 188.556889 
L 367.059697 188.556889 
z
M 374.224697 185.929389 
Q 374.772197 185.929389 375.149697 186.314389 
Q 375.529697 186.696889 375.529697 187.234389 
Q 375.529697 187.774389 375.147197 188.154389 
Q 374.764697 188.531889 374.224697 188.531889 
Q 373.684697 188.531889 373.304697 188.154389 
Q 372.927197 187.774389 372.927197 187.234389 
Q 372.927197 186.696889 373.304697 186.314389 
Q 373.684697 185.929389 374.224697 185.929389 
z
M 383.739697 177.524389 
L 383.739697 177.741889 
Q 382.327197 178.101889 381.469697 178.669389 
Q 380.614697 179.234389 380.117197 180.044389 
Q 379.622197 180.851889 379.349697 182.046889 
Q 379.694697 181.814389 379.919697 181.741889 
Q 380.427197 181.586889 380.944697 181.586889 
Q 382.132197 181.586889 382.924697 182.451889 
Q 383.717197 183.314389 383.717197 184.804389 
Q 383.717197 185.851889 383.287197 186.726889 
Q 382.857197 187.601889 382.067197 188.079389 
Q 381.279697 188.556889 380.382197 188.556889 
Q 379.404697 188.556889 378.574697 188.021889 
Q 377.747197 187.484389 377.282197 186.454389 
Q 376.819697 185.421889 376.819697 184.211889 
Q 376.819697 182.429389 377.674697 180.894389 
Q 378.529697 179.359389 380.102197 178.449389 
Q 381.677197 177.539389 383.739697 177.524389 
z
M 379.247197 182.679389 
Q 379.184697 183.759389 379.184697 184.259389 
Q 379.184697 185.336889 379.392197 186.344389 
Q 379.599697 187.351889 379.959697 187.759389 
Q 380.217197 188.046889 380.569697 188.046889 
Q 380.927197 188.046889 381.207197 187.629389 
Q 381.489697 187.211889 381.489697 185.929389 
Q 381.489697 183.774389 380.967197 182.954389 
Q 380.632197 182.421889 380.059697 182.421889 
Q 379.747197 182.421889 379.247197 182.679389 
z
"/>
   </g>
   <g id="text_27">
    <path d="M 362.849697 116.797422 
L 356.614697 116.797422 
L 356.614697 116.624922 
Q 359.482197 113.212422 360.094697 112.032422 
Q 360.709697 110.852422 360.709697 109.727422 
Q 360.709697 108.907422 360.202197 108.364922 
Q 359.694697 107.819922 358.959697 107.819922 
Q 357.757197 107.819922 357.092197 109.024922 
L 356.802197 108.922422 
Q 357.224697 107.422422 358.084697 106.704922 
Q 358.944697 105.984922 360.069697 105.984922 
Q 360.872197 105.984922 361.537197 106.359922 
Q 362.202197 106.734922 362.577197 107.387422 
Q 362.952197 108.039922 362.952197 108.609922 
Q 362.952197 109.649922 362.372197 110.719922 
Q 361.584697 112.164922 358.927197 114.749922 
L 361.217197 114.749922 
Q 362.059697 114.749922 362.314697 114.679922 
Q 362.569697 114.609922 362.732197 114.442422 
Q 362.897197 114.274922 363.162197 113.734922 
L 363.444697 113.734922 
L 362.849697 116.797422 
z
M 371.639697 111.499922 
Q 371.639697 113.087422 371.194697 114.462422 
Q 370.927197 115.304922 370.477197 115.844922 
Q 370.029697 116.382422 369.459697 116.699922 
Q 368.889697 117.017422 368.217197 117.017422 
Q 367.452197 117.017422 366.834697 116.627422 
Q 366.217197 116.234922 365.739697 115.507422 
Q 365.397197 114.977422 365.139697 114.094922 
Q 364.802197 112.899922 364.802197 111.624922 
Q 364.802197 109.899922 365.287197 108.452422 
Q 365.684697 107.257422 366.497197 106.622422 
Q 367.309697 105.984922 368.217197 105.984922 
Q 369.139697 105.984922 369.939697 106.614922 
Q 370.739697 107.242422 371.114697 108.304922 
Q 371.639697 109.764922 371.639697 111.499922 
z
M 369.232197 111.484922 
Q 369.232197 108.702422 369.202197 108.242422 
Q 369.122197 107.157422 368.827197 106.774922 
Q 368.632197 106.524922 368.194697 106.524922 
Q 367.857197 106.524922 367.662197 106.712422 
Q 367.372197 106.984922 367.269697 107.677422 
Q 367.169697 108.367422 367.169697 112.499922 
Q 367.169697 114.749922 367.327197 115.514922 
Q 367.444697 116.069922 367.662197 116.257422 
Q 367.882197 116.444922 368.239697 116.444922 
Q 368.632197 116.444922 368.827197 116.194922 
Q 369.154697 115.757422 369.202197 114.844922 
L 369.232197 111.484922 
z
M 374.224697 114.389922 
Q 374.772197 114.389922 375.149697 114.774922 
Q 375.529697 115.157422 375.529697 115.694922 
Q 375.529697 116.234922 375.147197 116.614922 
Q 374.764697 116.992422 374.224697 116.992422 
Q 373.684697 116.992422 373.304697 116.614922 
Q 372.927197 116.234922 372.927197 115.694922 
Q 372.927197 115.157422 373.304697 114.774922 
Q 373.684697 114.389922 374.224697 114.389922 
z
M 378.662197 106.202422 
L 383.622197 106.202422 
L 382.834697 108.219922 
L 378.662197 108.219922 
L 378.264697 109.274922 
Q 380.959697 109.374922 382.412197 110.617422 
Q 383.607197 111.639922 383.607197 113.164922 
Q 383.607197 114.139922 383.052197 115.074922 
Q 382.497197 116.007422 381.489697 116.512422 
Q 380.482197 117.017422 379.279697 117.017422 
Q 377.982197 117.017422 377.287197 116.532422 
Q 376.802197 116.187422 376.802197 115.749922 
Q 376.802197 115.414922 377.054697 115.157422 
Q 377.309697 114.899922 377.647197 114.899922 
Q 377.952197 114.899922 378.264697 115.024922 
Q 378.577197 115.149922 379.334697 115.679922 
Q 379.809697 116.007422 380.154697 116.132422 
Q 380.397197 116.227422 380.702197 116.227422 
Q 381.342197 116.227422 381.789697 115.759922 
Q 382.239697 115.289922 382.239697 114.632422 
Q 382.239697 113.257422 380.864697 112.399922 
Q 379.489697 111.539922 377.397197 111.539922 
Q 377.184697 111.539922 376.764697 111.547422 
L 378.662197 106.202422 
z
" style="stroke: #ffffff; stroke-width: 3.8"/>
    <path d="M 362.849697 116.797422 
L 356.614697 116.797422 
L 356.614697 116.624922 
Q 359.482197 113.212422 360.094697 112.032422 
Q 360.709697 110.852422 360.709697 109.727422 
Q 360.709697 108.907422 360.202197 108.364922 
Q 359.694697 107.819922 358.959697 107.819922 
Q 357.757197 107.819922 357.092197 109.024922 
L 356.802197 108.922422 
Q 357.224697 107.422422 358.084697 106.704922 
Q 358.944697 105.984922 360.069697 105.984922 
Q 360.872197 105.984922 361.537197 106.359922 
Q 362.202197 106.734922 362.577197 107.387422 
Q 362.952197 108.039922 362.952197 108.609922 
Q 362.952197 109.649922 362.372197 110.719922 
Q 361.584697 112.164922 358.927197 114.749922 
L 361.217197 114.749922 
Q 362.059697 114.749922 362.314697 114.679922 
Q 362.569697 114.609922 362.732197 114.442422 
Q 362.897197 114.274922 363.162197 113.734922 
L 363.444697 113.734922 
L 362.849697 116.797422 
z
M 371.639697 111.499922 
Q 371.639697 113.087422 371.194697 114.462422 
Q 370.927197 115.304922 370.477197 115.844922 
Q 370.029697 116.382422 369.459697 116.699922 
Q 368.889697 117.017422 368.217197 117.017422 
Q 367.452197 117.017422 366.834697 116.627422 
Q 366.217197 116.234922 365.739697 115.507422 
Q 365.397197 114.977422 365.139697 114.094922 
Q 364.802197 112.899922 364.802197 111.624922 
Q 364.802197 109.899922 365.287197 108.452422 
Q 365.684697 107.257422 366.497197 106.622422 
Q 367.309697 105.984922 368.217197 105.984922 
Q 369.139697 105.984922 369.939697 106.614922 
Q 370.739697 107.242422 371.114697 108.304922 
Q 371.639697 109.764922 371.639697 111.499922 
z
M 369.232197 111.484922 
Q 369.232197 108.702422 369.202197 108.242422 
Q 369.122197 107.157422 368.827197 106.774922 
Q 368.632197 106.524922 368.194697 106.524922 
Q 367.857197 106.524922 367.662197 106.712422 
Q 367.372197 106.984922 367.269697 107.677422 
Q 367.169697 108.367422 367.169697 112.499922 
Q 367.169697 114.749922 367.327197 115.514922 
Q 367.444697 116.069922 367.662197 116.257422 
Q 367.882197 116.444922 368.239697 116.444922 
Q 368.632197 116.444922 368.827197 116.194922 
Q 369.154697 115.757422 369.202197 114.844922 
L 369.232197 111.484922 
z
M 374.224697 114.389922 
Q 374.772197 114.389922 375.149697 114.774922 
Q 375.529697 115.157422 375.529697 115.694922 
Q 375.529697 116.234922 375.147197 116.614922 
Q 374.764697 116.992422 374.224697 116.992422 
Q 373.684697 116.992422 373.304697 116.614922 
Q 372.927197 116.234922 372.927197 115.694922 
Q 372.927197 115.157422 373.304697 114.774922 
Q 373.684697 114.389922 374.224697 114.389922 
z
M 378.662197 106.202422 
L 383.622197 106.202422 
L 382.834697 108.219922 
L 378.662197 108.219922 
L 378.264697 109.274922 
Q 380.959697 109.374922 382.412197 110.617422 
Q 383.607197 111.639922 383.607197 113.164922 
Q 383.607197 114.139922 383.052197 115.074922 
Q 382.497197 116.007422 381.489697 116.512422 
Q 380.482197 117.017422 379.279697 117.017422 
Q 377.982197 117.017422 377.287197 116.532422 
Q 376.802197 116.187422 376.802197 115.749922 
Q 376.802197 115.414922 377.054697 115.157422 
Q 377.309697 114.899922 377.647197 114.899922 
Q 377.952197 114.899922 378.264697 115.024922 
Q 378.577197 115.149922 379.334697 115.679922 
Q 379.809697 116.007422 380.154697 116.132422 
Q 380.397197 116.227422 380.702197 116.227422 
Q 381.342197 116.227422 381.789697 115.759922 
Q 382.239697 115.289922 382.239697 114.632422 
Q 382.239697 113.257422 380.864697 112.399922 
Q 379.489697 111.539922 377.397197 111.539922 
Q 377.184697 111.539922 376.764697 111.547422 
L 378.662197 106.202422 
z
"/>
   </g>
   <g id="text_28">
    <path d="M 578.778672 150.271851 
L 572.543672 150.271851 
L 572.543672 150.099351 
Q 575.411172 146.686851 576.023672 145.506851 
Q 576.638672 144.326851 576.638672 143.201851 
Q 576.638672 142.381851 576.131172 141.839351 
Q 575.623672 141.294351 574.888672 141.294351 
Q 573.686172 141.294351 573.021172 142.499351 
L 572.731172 142.396851 
Q 573.153672 140.896851 574.013672 140.179351 
Q 574.873672 139.459351 575.998672 139.459351 
Q 576.801172 139.459351 577.466172 139.834351 
Q 578.131172 140.209351 578.506172 140.861851 
Q 578.881172 141.514351 578.881172 142.084351 
Q 578.881172 143.124351 578.301172 144.194351 
Q 577.513672 145.639351 574.856172 148.224351 
L 577.146172 148.224351 
Q 577.988672 148.224351 578.243672 148.154351 
Q 578.498672 148.084351 578.661172 147.916851 
Q 578.826172 147.749351 579.091172 147.209351 
L 579.373672 147.209351 
L 578.778672 150.271851 
z
M 582.591172 139.676851 
L 587.551172 139.676851 
L 586.763672 141.694351 
L 582.591172 141.694351 
L 582.193672 142.749351 
Q 584.888672 142.849351 586.341172 144.091851 
Q 587.536172 145.114351 587.536172 146.639351 
Q 587.536172 147.614351 586.981172 148.549351 
Q 586.426172 149.481851 585.418672 149.986851 
Q 584.411172 150.491851 583.208672 150.491851 
Q 581.911172 150.491851 581.216172 150.006851 
Q 580.731172 149.661851 580.731172 149.224351 
Q 580.731172 148.889351 580.983672 148.631851 
Q 581.238672 148.374351 581.576172 148.374351 
Q 581.881172 148.374351 582.193672 148.499351 
Q 582.506172 148.624351 583.263672 149.154351 
Q 583.738672 149.481851 584.083672 149.606851 
Q 584.326172 149.701851 584.631172 149.701851 
Q 585.271172 149.701851 585.718672 149.234351 
Q 586.168672 148.764351 586.168672 148.106851 
Q 586.168672 146.731851 584.793672 145.874351 
Q 583.418672 145.014351 581.326172 145.014351 
Q 581.113672 145.014351 580.693672 145.021851 
L 582.591172 139.676851 
z
M 590.153672 147.864351 
Q 590.701172 147.864351 591.078672 148.249351 
Q 591.458672 148.631851 591.458672 149.169351 
Q 591.458672 149.709351 591.076172 150.089351 
Q 590.693672 150.466851 590.153672 150.466851 
Q 589.613672 150.466851 589.233672 150.089351 
Q 588.856172 149.709351 588.856172 149.169351 
Q 588.856172 148.631851 589.233672 148.249351 
Q 589.613672 147.864351 590.153672 147.864351 
z
M 594.988672 150.491851 
L 597.873672 141.749351 
L 595.676172 141.749351 
Q 594.388672 141.749351 593.738672 142.084351 
Q 593.286172 142.319351 592.988672 142.966851 
L 592.693672 142.966851 
L 593.458672 139.676851 
L 599.771172 139.676851 
L 596.216172 150.491851 
L 594.988672 150.491851 
z
" style="stroke: #ffffff; stroke-width: 3.8"/>
    <path d="M 578.778672 150.271851 
L 572.543672 150.271851 
L 572.543672 150.099351 
Q 575.411172 146.686851 576.023672 145.506851 
Q 576.638672 144.326851 576.638672 143.201851 
Q 576.638672 142.381851 576.131172 141.839351 
Q 575.623672 141.294351 574.888672 141.294351 
Q 573.686172 141.294351 573.021172 142.499351 
L 572.731172 142.396851 
Q 573.153672 140.896851 574.013672 140.179351 
Q 574.873672 139.459351 575.998672 139.459351 
Q 576.801172 139.459351 577.466172 139.834351 
Q 578.131172 140.209351 578.506172 140.861851 
Q 578.881172 141.514351 578.881172 142.084351 
Q 578.881172 143.124351 578.301172 144.194351 
Q 577.513672 145.639351 574.856172 148.224351 
L 577.146172 148.224351 
Q 577.988672 148.224351 578.243672 148.154351 
Q 578.498672 148.084351 578.661172 147.916851 
Q 578.826172 147.749351 579.091172 147.209351 
L 579.373672 147.209351 
L 578.778672 150.271851 
z
M 582.591172 139.676851 
L 587.551172 139.676851 
L 586.763672 141.694351 
L 582.591172 141.694351 
L 582.193672 142.749351 
Q 584.888672 142.849351 586.341172 144.091851 
Q 587.536172 145.114351 587.536172 146.639351 
Q 587.536172 147.614351 586.981172 148.549351 
Q 586.426172 149.481851 585.418672 149.986851 
Q 584.411172 150.491851 583.208672 150.491851 
Q 581.911172 150.491851 581.216172 150.006851 
Q 580.731172 149.661851 580.731172 149.224351 
Q 580.731172 148.889351 580.983672 148.631851 
Q 581.238672 148.374351 581.576172 148.374351 
Q 581.881172 148.374351 582.193672 148.499351 
Q 582.506172 148.624351 583.263672 149.154351 
Q 583.738672 149.481851 584.083672 149.606851 
Q 584.326172 149.701851 584.631172 149.701851 
Q 585.271172 149.701851 585.718672 149.234351 
Q 586.168672 148.764351 586.168672 148.106851 
Q 586.168672 146.731851 584.793672 145.874351 
Q 583.418672 145.014351 581.326172 145.014351 
Q 581.113672 145.014351 580.693672 145.021851 
L 582.591172 139.676851 
z
M 590.153672 147.864351 
Q 590.701172 147.864351 591.078672 148.249351 
Q 591.458672 148.631851 591.458672 149.169351 
Q 591.458672 149.709351 591.076172 150.089351 
Q 590.693672 150.466851 590.153672 150.466851 
Q 589.613672 150.466851 589.233672 150.089351 
Q 588.856172 149.709351 588.856172 149.169351 
Q 588.856172 148.631851 589.233672 148.249351 
Q 589.613672 147.864351 590.153672 147.864351 
z
M 594.988672 150.491851 
L 597.873672 141.749351 
L 595.676172 141.749351 
Q 594.388672 141.749351 593.738672 142.084351 
Q 593.286172 142.319351 592.988672 142.966851 
L 592.693672 142.966851 
L 593.458672 139.676851 
L 599.771172 139.676851 
L 596.216172 150.491851 
L 594.988672 150.491851 
z
"/>
   </g>
   <g id="text_29">
    <path d="M 570.603369 332.869625 
Q 570.603369 334.357907 570.186182 335.646969 
Q 569.935401 336.436813 569.513526 336.943063 
Q 569.093994 337.446969 568.559619 337.744625 
Q 568.025244 338.042282 567.394776 338.042282 
Q 566.677588 338.042282 566.098682 337.676657 
Q 565.519776 337.308688 565.072119 336.626657 
Q 564.751026 336.129782 564.509619 335.302438 
Q 564.193213 334.182125 564.193213 332.986813 
Q 564.193213 331.369625 564.647901 330.012594 
Q 565.020557 328.892282 565.782276 328.296969 
Q 566.543994 327.699313 567.394776 327.699313 
Q 568.259619 327.699313 569.009619 328.289938 
Q 569.759619 328.878219 570.111182 329.874313 
Q 570.603369 331.243063 570.603369 332.869625 
z
M 568.346338 332.855563 
Q 568.346338 330.246969 568.318213 329.815719 
Q 568.243213 328.798532 567.966651 328.439938 
Q 567.783838 328.205563 567.373682 328.205563 
Q 567.057276 328.205563 566.874463 328.381344 
Q 566.602588 328.636813 566.506494 329.286032 
Q 566.412744 329.932907 566.412744 333.807125 
Q 566.412744 335.9165 566.560401 336.633688 
Q 566.670557 337.154 566.874463 337.329782 
Q 567.080713 337.505563 567.415869 337.505563 
Q 567.783838 337.505563 567.966651 337.271188 
Q 568.273682 336.861032 568.318213 336.005563 
L 568.346338 332.855563 
z
M 573.026807 335.579 
Q 573.540088 335.579 573.893994 335.939938 
Q 574.250244 336.298532 574.250244 336.802438 
Q 574.250244 337.308688 573.891651 337.664938 
Q 573.533057 338.018844 573.026807 338.018844 
Q 572.520557 338.018844 572.164307 337.664938 
Q 571.810401 337.308688 571.810401 336.802438 
Q 571.810401 336.298532 572.164307 335.939938 
Q 572.520557 335.579 573.026807 335.579 
z
M 575.363526 338.042282 
L 575.363526 337.836032 
Q 576.579932 337.557125 577.426026 337.015719 
Q 578.272119 336.474313 578.764307 335.675094 
Q 579.258838 334.875875 579.458057 333.837594 
Q 579.003369 334.071969 578.684619 334.163375 
Q 578.365869 334.254782 578.014307 334.254782 
Q 576.886963 334.254782 576.134619 333.4415 
Q 575.384619 332.628219 575.384619 331.214938 
Q 575.384619 330.232907 575.790088 329.417282 
Q 576.197901 328.599313 576.952588 328.149313 
Q 577.707276 327.699313 578.520557 327.699313 
Q 579.392432 327.699313 580.168213 328.198532 
Q 580.943994 328.695407 581.405713 329.639938 
Q 581.867432 330.584469 581.867432 331.793844 
Q 581.867432 333.361813 581.115088 334.798532 
Q 580.365088 336.232907 578.879151 337.100094 
Q 577.393213 337.967282 575.363526 338.042282 
z
M 579.568213 333.221188 
Q 579.640869 332.400875 579.640869 331.779782 
Q 579.640869 330.446188 579.333838 329.295407 
Q 579.158057 328.657907 578.813526 328.357907 
Q 578.630713 328.196188 578.337744 328.196188 
Q 577.969776 328.196188 577.765869 328.512594 
Q 577.479932 328.943844 577.479932 330.16025 
Q 577.479932 332.189938 577.962744 332.958688 
Q 578.279151 333.455563 578.813526 333.455563 
Q 579.099463 333.455563 579.568213 333.221188 
z
" style="fill: #404040; stroke: #ffffff; stroke-width: 3.8"/>
    <path d="M 570.603369 332.869625 
Q 570.603369 334.357907 570.186182 335.646969 
Q 569.935401 336.436813 569.513526 336.943063 
Q 569.093994 337.446969 568.559619 337.744625 
Q 568.025244 338.042282 567.394776 338.042282 
Q 566.677588 338.042282 566.098682 337.676657 
Q 565.519776 337.308688 565.072119 336.626657 
Q 564.751026 336.129782 564.509619 335.302438 
Q 564.193213 334.182125 564.193213 332.986813 
Q 564.193213 331.369625 564.647901 330.012594 
Q 565.020557 328.892282 565.782276 328.296969 
Q 566.543994 327.699313 567.394776 327.699313 
Q 568.259619 327.699313 569.009619 328.289938 
Q 569.759619 328.878219 570.111182 329.874313 
Q 570.603369 331.243063 570.603369 332.869625 
z
M 568.346338 332.855563 
Q 568.346338 330.246969 568.318213 329.815719 
Q 568.243213 328.798532 567.966651 328.439938 
Q 567.783838 328.205563 567.373682 328.205563 
Q 567.057276 328.205563 566.874463 328.381344 
Q 566.602588 328.636813 566.506494 329.286032 
Q 566.412744 329.932907 566.412744 333.807125 
Q 566.412744 335.9165 566.560401 336.633688 
Q 566.670557 337.154 566.874463 337.329782 
Q 567.080713 337.505563 567.415869 337.505563 
Q 567.783838 337.505563 567.966651 337.271188 
Q 568.273682 336.861032 568.318213 336.005563 
L 568.346338 332.855563 
z
M 573.026807 335.579 
Q 573.540088 335.579 573.893994 335.939938 
Q 574.250244 336.298532 574.250244 336.802438 
Q 574.250244 337.308688 573.891651 337.664938 
Q 573.533057 338.018844 573.026807 338.018844 
Q 572.520557 338.018844 572.164307 337.664938 
Q 571.810401 337.308688 571.810401 336.802438 
Q 571.810401 336.298532 572.164307 335.939938 
Q 572.520557 335.579 573.026807 335.579 
z
M 575.363526 338.042282 
L 575.363526 337.836032 
Q 576.579932 337.557125 577.426026 337.015719 
Q 578.272119 336.474313 578.764307 335.675094 
Q 579.258838 334.875875 579.458057 333.837594 
Q 579.003369 334.071969 578.684619 334.163375 
Q 578.365869 334.254782 578.014307 334.254782 
Q 576.886963 334.254782 576.134619 333.4415 
Q 575.384619 332.628219 575.384619 331.214938 
Q 575.384619 330.232907 575.790088 329.417282 
Q 576.197901 328.599313 576.952588 328.149313 
Q 577.707276 327.699313 578.520557 327.699313 
Q 579.392432 327.699313 580.168213 328.198532 
Q 580.943994 328.695407 581.405713 329.639938 
Q 581.867432 330.584469 581.867432 331.793844 
Q 581.867432 333.361813 581.115088 334.798532 
Q 580.365088 336.232907 578.879151 337.100094 
Q 577.393213 337.967282 575.363526 338.042282 
z
M 579.568213 333.221188 
Q 579.640869 332.400875 579.640869 331.779782 
Q 579.640869 330.446188 579.333838 329.295407 
Q 579.158057 328.657907 578.813526 328.357907 
Q 578.630713 328.196188 578.337744 328.196188 
Q 577.969776 328.196188 577.765869 328.512594 
Q 577.479932 328.943844 577.479932 330.16025 
Q 577.479932 332.189938 577.962744 332.958688 
Q 578.279151 333.455563 578.813526 333.455563 
Q 579.099463 333.455563 579.568213 333.221188 
z
" style="fill: #404040"/>
   </g>
   <g id="text_30">
    <path d="M 568.961768 260.338649 
L 563.116455 260.338649 
L 563.116455 260.17693 
Q 565.804736 256.977712 566.378955 255.871462 
Q 566.955518 254.765212 566.955518 253.710524 
Q 566.955518 252.941774 566.479736 252.43318 
Q 566.003955 251.922243 565.314893 251.922243 
Q 564.187549 251.922243 563.564111 253.05193 
L 563.292236 252.955837 
Q 563.68833 251.549587 564.49458 250.87693 
Q 565.30083 250.20193 566.355518 250.20193 
Q 567.107861 250.20193 567.731299 250.553493 
Q 568.354736 250.905055 568.706299 251.516774 
Q 569.057861 252.128493 569.057861 252.662868 
Q 569.057861 253.637868 568.514111 254.640993 
Q 567.77583 255.99568 565.284424 258.419118 
L 567.431299 258.419118 
Q 568.221143 258.419118 568.460205 258.353493 
Q 568.699268 258.287868 568.851611 258.130837 
Q 569.006299 257.973805 569.254736 257.467555 
L 569.51958 257.467555 
L 568.961768 260.338649 
z
M 572.535986 250.405837 
L 577.185986 250.405837 
L 576.447705 252.297243 
L 572.535986 252.297243 
L 572.16333 253.286305 
Q 574.689893 253.380055 576.051611 254.544899 
Q 577.171924 255.503493 577.171924 256.93318 
Q 577.171924 257.847243 576.651611 258.723805 
Q 576.131299 259.598024 575.186768 260.071462 
Q 574.242236 260.544899 573.114893 260.544899 
Q 571.898486 260.544899 571.246924 260.090212 
Q 570.792236 259.766774 570.792236 259.356618 
Q 570.792236 259.042555 571.028955 258.801149 
Q 571.268018 258.559743 571.584424 258.559743 
Q 571.870361 258.559743 572.16333 258.67693 
Q 572.456299 258.794118 573.166455 259.290993 
Q 573.611768 259.598024 573.935205 259.715212 
Q 574.162549 259.804274 574.448486 259.804274 
Q 575.048486 259.804274 575.468018 259.365993 
Q 575.889893 258.925368 575.889893 258.308962 
Q 575.889893 257.019899 574.60083 256.215993 
Q 573.311768 255.409743 571.350049 255.409743 
Q 571.15083 255.409743 570.75708 255.416774 
L 572.535986 250.405837 
z
M 579.62583 258.081618 
Q 580.139111 258.081618 580.493018 258.442555 
Q 580.849268 258.801149 580.849268 259.305055 
Q 580.849268 259.811305 580.490674 260.167555 
Q 580.13208 260.521462 579.62583 260.521462 
Q 579.11958 260.521462 578.76333 260.167555 
Q 578.409424 259.811305 578.409424 259.305055 
Q 578.409424 258.801149 578.76333 258.442555 
Q 579.11958 258.081618 579.62583 258.081618 
z
M 586.612549 254.727712 
Q 587.660205 255.496462 588.065674 256.159743 
Q 588.473486 256.823024 588.473486 257.680837 
Q 588.473486 258.880837 587.568799 259.712868 
Q 586.664111 260.544899 585.112549 260.544899 
Q 583.640674 260.544899 582.834424 259.82068 
Q 582.028174 259.094118 582.028174 258.046462 
Q 582.028174 257.247243 582.492236 256.647243 
Q 582.958643 256.047243 584.041455 255.548024 
Q 582.862549 254.648024 582.529736 254.076149 
Q 582.196924 253.504274 582.196924 252.749587 
Q 582.196924 251.753493 583.043018 250.996462 
Q 583.889111 250.23943 585.360986 250.23943 
Q 586.781299 250.23943 587.545361 250.909743 
Q 588.311768 251.577712 588.311768 252.515212 
Q 588.311768 253.218337 587.896924 253.757399 
Q 587.484424 254.296462 586.612549 254.727712 
z
M 586.05708 254.355055 
Q 586.326611 253.98943 586.457861 253.534743 
Q 586.591455 253.080055 586.591455 252.538649 
Q 586.591455 251.587087 586.181299 251.080837 
Q 585.874268 250.691774 585.330518 250.691774 
Q 584.840674 250.691774 584.496143 251.048024 
Q 584.151611 251.40193 584.151611 251.929274 
Q 584.151611 252.465993 584.535986 253.040212 
Q 584.920361 253.61443 586.05708 254.355055 
z
M 584.592236 255.899587 
Q 584.364893 256.105837 584.268799 256.274587 
Q 584.123486 256.530055 584.006299 257.022243 
Q 583.889111 257.512087 583.889111 258.046462 
Q 583.889111 258.735524 584.064893 259.199587 
Q 584.240674 259.663649 584.566455 259.869899 
Q 584.892236 260.073805 585.236768 260.073805 
Q 585.771143 260.073805 586.136768 259.682399 
Q 586.502393 259.290993 586.502393 258.608962 
Q 586.502393 257.188649 584.592236 255.899587 
z
" style="fill: #404040; stroke: #ffffff; stroke-width: 3.8"/>
    <path d="M 568.961768 260.338649 
L 563.116455 260.338649 
L 563.116455 260.17693 
Q 565.804736 256.977712 566.378955 255.871462 
Q 566.955518 254.765212 566.955518 253.710524 
Q 566.955518 252.941774 566.479736 252.43318 
Q 566.003955 251.922243 565.314893 251.922243 
Q 564.187549 251.922243 563.564111 253.05193 
L 563.292236 252.955837 
Q 563.68833 251.549587 564.49458 250.87693 
Q 565.30083 250.20193 566.355518 250.20193 
Q 567.107861 250.20193 567.731299 250.553493 
Q 568.354736 250.905055 568.706299 251.516774 
Q 569.057861 252.128493 569.057861 252.662868 
Q 569.057861 253.637868 568.514111 254.640993 
Q 567.77583 255.99568 565.284424 258.419118 
L 567.431299 258.419118 
Q 568.221143 258.419118 568.460205 258.353493 
Q 568.699268 258.287868 568.851611 258.130837 
Q 569.006299 257.973805 569.254736 257.467555 
L 569.51958 257.467555 
L 568.961768 260.338649 
z
M 572.535986 250.405837 
L 577.185986 250.405837 
L 576.447705 252.297243 
L 572.535986 252.297243 
L 572.16333 253.286305 
Q 574.689893 253.380055 576.051611 254.544899 
Q 577.171924 255.503493 577.171924 256.93318 
Q 577.171924 257.847243 576.651611 258.723805 
Q 576.131299 259.598024 575.186768 260.071462 
Q 574.242236 260.544899 573.114893 260.544899 
Q 571.898486 260.544899 571.246924 260.090212 
Q 570.792236 259.766774 570.792236 259.356618 
Q 570.792236 259.042555 571.028955 258.801149 
Q 571.268018 258.559743 571.584424 258.559743 
Q 571.870361 258.559743 572.16333 258.67693 
Q 572.456299 258.794118 573.166455 259.290993 
Q 573.611768 259.598024 573.935205 259.715212 
Q 574.162549 259.804274 574.448486 259.804274 
Q 575.048486 259.804274 575.468018 259.365993 
Q 575.889893 258.925368 575.889893 258.308962 
Q 575.889893 257.019899 574.60083 256.215993 
Q 573.311768 255.409743 571.350049 255.409743 
Q 571.15083 255.409743 570.75708 255.416774 
L 572.535986 250.405837 
z
M 579.62583 258.081618 
Q 580.139111 258.081618 580.493018 258.442555 
Q 580.849268 258.801149 580.849268 259.305055 
Q 580.849268 259.811305 580.490674 260.167555 
Q 580.13208 260.521462 579.62583 260.521462 
Q 579.11958 260.521462 578.76333 260.167555 
Q 578.409424 259.811305 578.409424 259.305055 
Q 578.409424 258.801149 578.76333 258.442555 
Q 579.11958 258.081618 579.62583 258.081618 
z
M 586.612549 254.727712 
Q 587.660205 255.496462 588.065674 256.159743 
Q 588.473486 256.823024 588.473486 257.680837 
Q 588.473486 258.880837 587.568799 259.712868 
Q 586.664111 260.544899 585.112549 260.544899 
Q 583.640674 260.544899 582.834424 259.82068 
Q 582.028174 259.094118 582.028174 258.046462 
Q 582.028174 257.247243 582.492236 256.647243 
Q 582.958643 256.047243 584.041455 255.548024 
Q 582.862549 254.648024 582.529736 254.076149 
Q 582.196924 253.504274 582.196924 252.749587 
Q 582.196924 251.753493 583.043018 250.996462 
Q 583.889111 250.23943 585.360986 250.23943 
Q 586.781299 250.23943 587.545361 250.909743 
Q 588.311768 251.577712 588.311768 252.515212 
Q 588.311768 253.218337 587.896924 253.757399 
Q 587.484424 254.296462 586.612549 254.727712 
z
M 586.05708 254.355055 
Q 586.326611 253.98943 586.457861 253.534743 
Q 586.591455 253.080055 586.591455 252.538649 
Q 586.591455 251.587087 586.181299 251.080837 
Q 585.874268 250.691774 585.330518 250.691774 
Q 584.840674 250.691774 584.496143 251.048024 
Q 584.151611 251.40193 584.151611 251.929274 
Q 584.151611 252.465993 584.535986 253.040212 
Q 584.920361 253.61443 586.05708 254.355055 
z
M 584.592236 255.899587 
Q 584.364893 256.105837 584.268799 256.274587 
Q 584.123486 256.530055 584.006299 257.022243 
Q 583.889111 257.512087 583.889111 258.046462 
Q 583.889111 258.735524 584.064893 259.199587 
Q 584.240674 259.663649 584.566455 259.869899 
Q 584.892236 260.073805 585.236768 260.073805 
Q 585.771143 260.073805 586.136768 259.682399 
Q 586.502393 259.290993 586.502393 258.608962 
Q 586.502393 257.188649 584.592236 255.899587 
z
" style="fill: #404040"/>
   </g>
   <g id="text_31">
    <path d="M 532.761881 241.446821 
L 535.466568 233.250727 
L 533.406412 233.250727 
Q 532.199381 233.250727 531.590006 233.56479 
Q 531.165787 233.785102 530.886881 234.392133 
L 530.610318 234.392133 
L 531.327506 231.307758 
L 537.245475 231.307758 
L 533.912662 241.446821 
L 532.761881 241.446821 
z
M 539.479068 238.98354 
Q 539.99235 238.98354 540.346256 239.344477 
Q 540.702506 239.703071 540.702506 240.206977 
Q 540.702506 240.713227 540.343912 241.069477 
Q 539.985318 241.423383 539.479068 241.423383 
Q 538.972818 241.423383 538.616568 241.069477 
Q 538.262662 240.713227 538.262662 240.206977 
Q 538.262662 239.703071 538.616568 239.344477 
Q 538.972818 238.98354 539.479068 238.98354 
z
M 541.726725 237.497602 
L 546.444693 231.103852 
L 547.337662 231.103852 
L 547.337662 237.497602 
L 548.247037 237.497602 
L 548.247037 239.014008 
L 547.337662 239.014008 
L 547.337662 241.240571 
L 545.324381 241.240571 
L 545.324381 239.014008 
L 541.726725 239.014008 
L 541.726725 237.497602 
z
M 542.439225 237.497602 
L 545.324381 237.497602 
L 545.324381 233.578852 
L 542.439225 237.497602 
z
" style="fill: #404040; stroke: #ffffff; stroke-width: 3.8"/>
    <path d="M 532.761881 241.446821 
L 535.466568 233.250727 
L 533.406412 233.250727 
Q 532.199381 233.250727 531.590006 233.56479 
Q 531.165787 233.785102 530.886881 234.392133 
L 530.610318 234.392133 
L 531.327506 231.307758 
L 537.245475 231.307758 
L 533.912662 241.446821 
L 532.761881 241.446821 
z
M 539.479068 238.98354 
Q 539.99235 238.98354 540.346256 239.344477 
Q 540.702506 239.703071 540.702506 240.206977 
Q 540.702506 240.713227 540.343912 241.069477 
Q 539.985318 241.423383 539.479068 241.423383 
Q 538.972818 241.423383 538.616568 241.069477 
Q 538.262662 240.713227 538.262662 240.206977 
Q 538.262662 239.703071 538.616568 239.344477 
Q 538.972818 238.98354 539.479068 238.98354 
z
M 541.726725 237.497602 
L 546.444693 231.103852 
L 547.337662 231.103852 
L 547.337662 237.497602 
L 548.247037 237.497602 
L 548.247037 239.014008 
L 547.337662 239.014008 
L 547.337662 241.240571 
L 545.324381 241.240571 
L 545.324381 239.014008 
L 541.726725 239.014008 
L 541.726725 237.497602 
z
M 542.439225 237.497602 
L 545.324381 237.497602 
L 545.324381 233.578852 
L 542.439225 237.497602 
z
" style="fill: #404040"/>
   </g>
   <g id="text_32">
    <path d="M 319.944086 317.292688 
L 324.662054 310.898938 
L 325.555023 310.898938 
L 325.555023 317.292688 
L 326.464398 317.292688 
L 326.464398 318.809095 
L 325.555023 318.809095 
L 325.555023 321.035657 
L 323.541742 321.035657 
L 323.541742 318.809095 
L 319.944086 318.809095 
L 319.944086 317.292688 
z
M 320.656586 317.292688 
L 323.541742 317.292688 
L 323.541742 313.373938 
L 320.656586 317.292688 
z
M 329.729242 321.241907 
L 332.433929 313.045813 
L 330.373773 313.045813 
Q 329.166742 313.045813 328.557367 313.359876 
Q 328.133148 313.580188 327.854242 314.18722 
L 327.577679 314.18722 
L 328.294867 311.102845 
L 334.212836 311.102845 
L 330.880023 321.241907 
L 329.729242 321.241907 
z
M 336.446429 318.778626 
Q 336.959711 318.778626 337.313617 319.139563 
Q 337.669867 319.498157 337.669867 320.002063 
Q 337.669867 320.508313 337.311273 320.864563 
Q 336.952679 321.21847 336.446429 321.21847 
Q 335.940179 321.21847 335.583929 320.864563 
Q 335.230023 320.508313 335.230023 320.002063 
Q 335.230023 319.498157 335.583929 319.139563 
Q 335.940179 318.778626 336.446429 318.778626 
z
M 338.783148 321.241907 
L 338.783148 321.035657 
Q 339.999554 320.756751 340.845648 320.215345 
Q 341.691742 319.673938 342.183929 318.87472 
Q 342.678461 318.075501 342.877679 317.03722 
Q 342.422992 317.271595 342.104242 317.363001 
Q 341.785492 317.454407 341.433929 317.454407 
Q 340.306586 317.454407 339.554242 316.641126 
Q 338.804242 315.827845 338.804242 314.414563 
Q 338.804242 313.432532 339.209711 312.616907 
Q 339.617523 311.798938 340.372211 311.348938 
Q 341.126898 310.898938 341.940179 310.898938 
Q 342.812054 310.898938 343.587836 311.398157 
Q 344.363617 311.895032 344.825336 312.839563 
Q 345.287054 313.784095 345.287054 314.99347 
Q 345.287054 316.561438 344.534711 317.998157 
Q 343.784711 319.432532 342.298773 320.29972 
Q 340.812836 321.166907 338.783148 321.241907 
z
M 342.987836 316.420813 
Q 343.060492 315.600501 343.060492 314.979407 
Q 343.060492 313.645813 342.753461 312.495032 
Q 342.577679 311.857532 342.233148 311.557532 
Q 342.050336 311.395813 341.757367 311.395813 
Q 341.389398 311.395813 341.185492 311.71222 
Q 340.899554 312.14347 340.899554 313.359876 
Q 340.899554 315.389563 341.382367 316.158313 
Q 341.698773 316.655188 342.233148 316.655188 
Q 342.519086 316.655188 342.987836 316.420813 
z
" style="fill: #404040; stroke: #ffffff; stroke-width: 3.8"/>
    <path d="M 319.944086 317.292688 
L 324.662054 310.898938 
L 325.555023 310.898938 
L 325.555023 317.292688 
L 326.464398 317.292688 
L 326.464398 318.809095 
L 325.555023 318.809095 
L 325.555023 321.035657 
L 323.541742 321.035657 
L 323.541742 318.809095 
L 319.944086 318.809095 
L 319.944086 317.292688 
z
M 320.656586 317.292688 
L 323.541742 317.292688 
L 323.541742 313.373938 
L 320.656586 317.292688 
z
M 329.729242 321.241907 
L 332.433929 313.045813 
L 330.373773 313.045813 
Q 329.166742 313.045813 328.557367 313.359876 
Q 328.133148 313.580188 327.854242 314.18722 
L 327.577679 314.18722 
L 328.294867 311.102845 
L 334.212836 311.102845 
L 330.880023 321.241907 
L 329.729242 321.241907 
z
M 336.446429 318.778626 
Q 336.959711 318.778626 337.313617 319.139563 
Q 337.669867 319.498157 337.669867 320.002063 
Q 337.669867 320.508313 337.311273 320.864563 
Q 336.952679 321.21847 336.446429 321.21847 
Q 335.940179 321.21847 335.583929 320.864563 
Q 335.230023 320.508313 335.230023 320.002063 
Q 335.230023 319.498157 335.583929 319.139563 
Q 335.940179 318.778626 336.446429 318.778626 
z
M 338.783148 321.241907 
L 338.783148 321.035657 
Q 339.999554 320.756751 340.845648 320.215345 
Q 341.691742 319.673938 342.183929 318.87472 
Q 342.678461 318.075501 342.877679 317.03722 
Q 342.422992 317.271595 342.104242 317.363001 
Q 341.785492 317.454407 341.433929 317.454407 
Q 340.306586 317.454407 339.554242 316.641126 
Q 338.804242 315.827845 338.804242 314.414563 
Q 338.804242 313.432532 339.209711 312.616907 
Q 339.617523 311.798938 340.372211 311.348938 
Q 341.126898 310.898938 341.940179 310.898938 
Q 342.812054 310.898938 343.587836 311.398157 
Q 344.363617 311.895032 344.825336 312.839563 
Q 345.287054 313.784095 345.287054 314.99347 
Q 345.287054 316.561438 344.534711 317.998157 
Q 343.784711 319.432532 342.298773 320.29972 
Q 340.812836 321.166907 338.783148 321.241907 
z
M 342.987836 316.420813 
Q 343.060492 315.600501 343.060492 314.979407 
Q 343.060492 313.645813 342.753461 312.495032 
Q 342.577679 311.857532 342.233148 311.557532 
Q 342.050336 311.395813 341.757367 311.395813 
Q 341.389398 311.395813 341.185492 311.71222 
Q 340.899554 312.14347 340.899554 313.359876 
Q 340.899554 315.389563 341.382367 316.158313 
Q 341.698773 316.655188 342.233148 316.655188 
Q 342.519086 316.655188 342.987836 316.420813 
z
" style="fill: #404040"/>
   </g>
  </g>
 </g>
 <defs>
  <clipPath id="p709add7259">
   <rect x="7.2" y="51.034687" width="730.764" height="432.785085"/>
  </clipPath>
 </defs>
</svg>
