<?xml version="1.0" encoding="utf-8" standalone="no"?>
<!DOCTYPE svg PUBLIC "-//W3C//DTD SVG 1.1//EN"
  "http://www.w3.org/Graphics/SVG/1.1/DTD/svg11.dtd">
<svg xmlns:xlink="http://www.w3.org/1999/xlink" width="745.164pt" height="496.346002pt" viewBox="0 0 745.164 496.346002" xmlns="http://www.w3.org/2000/svg" version="1.1">
 <metadata>
  <rdf:RDF xmlns:dc="http://purl.org/dc/elements/1.1/" xmlns:cc="http://creativecommons.org/ns#" xmlns:rdf="http://www.w3.org/1999/02/22-rdf-syntax-ns#">
   <cc:Work>
    <dc:type rdf:resource="http://purl.org/dc/dcmitype/StillImage"/>
    <dc:date>2026-07-13T16:59:07.261194</dc:date>
    <dc:format>image/svg+xml</dc:format>
    <dc:creator>
     <cc:Agent>
      <dc:title>Matplotlib v3.10.8, https://matplotlib.org/</dc:title>
     </cc:Agent>
    </dc:creator>
   </cc:Work>
  </rdf:RDF>
 </metadata>
 <defs>
  <style type="text/css">*{stroke-linejoin: round; stroke-linecap: butt}</style>
 </defs>
 <g id="figure_1">
  <g id="patch_1">
   <path d="M 0 496.346002 
L 745.164 496.346002 
L 745.164 0 
L 0 0 
L 0 496.346002 
z
" style="fill: none"/>
  </g>
  <g id="axes_1">
   <g id="patch_2">
    <path d="M 120.350555 438.032116 
Q 120.350555 458.55152 120.350555 476.582746 
" clip-path="url(#pfba34deba9)" style="fill: none; stroke: #111111; stroke-width: 2.225493; stroke-linejoin: miter; stroke-linecap: round"/>
    <path d="M 124.006713 469.270431 
L 120.350555 476.582746 
L 116.694397 469.270431 
z
" clip-path="url(#pfba34deba9)" style="fill: #111111; stroke: #111111; stroke-width: 2.225493; stroke-linejoin: miter; stroke-linecap: round"/>
   </g>
   <g id="patch_3">
    <path d="M 120.350555 349.539927 
Q 120.350555 371.194021 120.350555 388.752962 
" clip-path="url(#pfba34deba9)" style="fill: none; stroke: #111111; stroke-width: 3.662816; stroke-linejoin: miter; stroke-linecap: round"/>
    <path d="M 124.466656 380.52076 
L 120.350555 388.752962 
L 116.234454 380.52076 
z
" clip-path="url(#pfba34deba9)" style="fill: #111111; stroke: #111111; stroke-width: 3.662816; stroke-linejoin: miter; stroke-linecap: round"/>
   </g>
   <g id="patch_4">
    <path d="M 120.350555 255.651057 
Q 120.350555 278.868801 120.350555 296.423389 
" clip-path="url(#pfba34deba9)" style="fill: none; stroke: #111111; stroke-width: 5.065281; stroke-linejoin: miter; stroke-linecap: round"/>
    <path d="M 124.915445 287.293609 
L 120.350555 296.423389 
L 115.785665 287.293609 
z
" clip-path="url(#pfba34deba9)" style="fill: #111111; stroke: #111111; stroke-width: 5.065281; stroke-linejoin: miter; stroke-linecap: round"/>
   </g>
   <g id="patch_5">
    <path d="M 370.224697 297.318943 
Q 370.224697 317.429076 370.224697 334.69758 
" clip-path="url(#pfba34deba9)" style="fill: none; stroke: #111111; stroke-width: 2.541631; stroke-linejoin: miter; stroke-linecap: round"/>
    <path d="M 373.982019 327.182936 
L 370.224697 334.69758 
L 366.467375 327.182936 
z
" clip-path="url(#pfba34deba9)" style="fill: #111111; stroke: #111111; stroke-width: 2.541631; stroke-linejoin: miter; stroke-linecap: round"/>
   </g>
   <g id="patch_6">
    <path d="M 370.224697 211.210488 
Q 370.224697 232.081985 370.224697 248.260078 
" clip-path="url(#pfba34deba9)" style="fill: none; stroke: #111111; stroke-width: 4.197909; stroke-linejoin: miter; stroke-linecap: round"/>
    <path d="M 374.512028 239.685417 
L 370.224697 248.260078 
L 365.937366 239.685417 
z
" clip-path="url(#pfba34deba9)" style="fill: #111111; stroke: #111111; stroke-width: 4.197909; stroke-linejoin: miter; stroke-linecap: round"/>
   </g>
   <g id="patch_7">
    <path d="M 370.224697 121.363925 
Q 370.224697 143.343112 370.224697 158.837703 
" clip-path="url(#pfba34deba9)" style="fill: none; stroke: #111111; stroke-width: 5.8; stroke-linejoin: miter; stroke-linecap: round"/>
    <path d="M 375.024697 149.237703 
L 370.224697 158.837703 
L 365.424697 149.237703 
z
" clip-path="url(#pfba34deba9)" style="fill: #111111; stroke: #111111; stroke-width: 5.8; stroke-linejoin: miter; stroke-linecap: round"/>
   </g>
   <g id="patch_8">
    <path d="M 586.153672 249.998298 
Q 586.153672 275.081052 586.153672 296.362671 
" clip-path="url(#pfba34deba9)" style="fill: none; stroke: #111111; stroke-width: 3.399839; stroke-linejoin: miter; stroke-linecap: round"/>
    <path d="M 590.185621 288.298774 
L 586.153672 296.362671 
L 582.121724 288.298774 
z
" clip-path="url(#pfba34deba9)" style="fill: #111111; stroke: #111111; stroke-width: 3.399839; stroke-linejoin: miter; stroke-linecap: round"/>
   </g>
   <g id="line2d_1">
    <path d="M 165.610777 479.070923 
L 550.322663 479.070923 
" clip-path="url(#pfba34deba9)" style="fill: none; stroke-dasharray: 5.6,4.2; stroke-dashoffset: 0; stroke: #404040; stroke-width: 1.4"/>
   </g>
   <g id="line2d_2">
    <path d="M 165.610777 392.848115 
L 550.322663 392.848115 
" clip-path="url(#pfba34deba9)" style="fill: none; stroke-dasharray: 5.6,4.2; stroke-dashoffset: 0; stroke: #404040; stroke-width: 1.4"/>
   </g>
   <g id="line2d_3">
    <path d="M 415.484919 337.53921 
L 560.694797 337.53921 
" clip-path="url(#pfba34deba9)" style="fill: none; stroke-dasharray: 5.6,4.2; stroke-dashoffset: 0; stroke: #404040; stroke-width: 1.4"/>
   </g>
   <g id="patch_9">
    <path d="M 665.359061 300.163807 
Q 582.068392 387.445725 499.396122 474.079611 
" clip-path="url(#pfba34deba9)" style="fill: none; stroke: #404040; stroke-width: 0.801181; stroke-linejoin: miter; stroke-linecap: round"/>
    <path d="M 505.288706 471.96101 
L 499.396122 474.079611 
L 501.236792 468.094383 
z
" clip-path="url(#pfba34deba9)" style="fill: #404040; stroke: #404040; stroke-width: 0.801181; stroke-linejoin: miter; stroke-linecap: round"/>
   </g>
   <g id="patch_10">
    <path d="M 620.098839 300.163807 
Q 577.947434 344.335087 537.941127 386.258477 
" clip-path="url(#pfba34deba9)" style="fill: none; stroke: #404040; stroke-width: 2.779129; stroke-linejoin: miter; stroke-linecap: round"/>
    <path d="M 545.221043 383.64108 
L 537.941127 386.258477 
L 540.215159 378.864106 
z
" clip-path="url(#pfba34deba9)" style="fill: #404040; stroke: #404040; stroke-width: 2.779129; stroke-linejoin: miter; stroke-linecap: round"/>
   </g>
   <g id="patch_11">
    <path d="M 574.838617 300.163807 
Q 542.131466 317.449703 510.39646 334.221815 
" clip-path="url(#pfba34deba9)" style="fill: none; stroke: #404040; stroke-width: 0.983478; stroke-linejoin: miter; stroke-linecap: round"/>
    <path d="M 516.792581 334.077602 
L 510.39646 334.221815 
L 514.118762 329.01839 
z
" clip-path="url(#pfba34deba9)" style="fill: #404040; stroke: #404040; stroke-width: 0.983478; stroke-linejoin: miter; stroke-linecap: round"/>
   </g>
   <g id="patch_12">
    <path d="M 370.224697 337.53921 
Q 335.111808 363.413779 302.914611 387.139783 
" clip-path="url(#pfba34deba9)" style="fill: none; stroke: #404040; stroke-width: 3.239455; stroke-linejoin: miter; stroke-linecap: round"/>
    <path d="M 310.875459 385.761655 
L 302.914611 387.139783 
L 306.588617 379.944228 
z
" clip-path="url(#pfba34deba9)" style="fill: #404040; stroke: #404040; stroke-width: 3.239455; stroke-linejoin: miter; stroke-linecap: round"/>
   </g>
   <g id="line2d_4">
    <path d="M 120.350555 392.848115 
L 120.350555 433.886923 
" clip-path="url(#pfba34deba9)" style="fill: none; stroke: #111111; stroke-width: 2.225493"/>
   </g>
   <g id="line2d_5">
    <path d="M 120.350555 302.086546 
L 120.350555 345.394734 
" clip-path="url(#pfba34deba9)" style="fill: none; stroke: #111111; stroke-width: 3.662816"/>
   </g>
   <g id="line2d_6">
    <path d="M 120.350555 205.070376 
L 120.350555 251.505864 
" clip-path="url(#pfba34deba9)" style="fill: none; stroke: #111111; stroke-width: 5.065281"/>
   </g>
   <g id="line2d_7">
    <path d="M 370.224697 252.953483 
L 370.224697 293.17375 
" clip-path="url(#pfba34deba9)" style="fill: none; stroke: #111111; stroke-width: 2.541631"/>
   </g>
   <g id="line2d_8">
    <path d="M 370.224697 165.3223 
L 370.224697 207.065295 
" clip-path="url(#pfba34deba9)" style="fill: none; stroke: #111111; stroke-width: 4.197909"/>
   </g>
   <g id="line2d_9">
    <path d="M 370.224697 73.260356 
L 370.224697 117.218732 
" clip-path="url(#pfba34deba9)" style="fill: none; stroke: #111111; stroke-width: 5.8"/>
   </g>
   <g id="line2d_10">
    <path d="M 586.153672 195.687596 
L 586.153672 245.853105 
" clip-path="url(#pfba34deba9)" style="fill: none; stroke: #111111; stroke-width: 3.399839"/>
   </g>
   <g id="line2d_11">
    <path d="M 75.090333 479.070923 
L 165.610777 479.070923 
" clip-path="url(#pfba34deba9)" style="fill: none; stroke: #111111; stroke-width: 3.6; stroke-linecap: round"/>
   </g>
   <g id="line2d_12">
    <path d="M 75.090333 392.848115 
L 165.610777 392.848115 
" clip-path="url(#pfba34deba9)" style="fill: none; stroke: #111111; stroke-width: 3.6; stroke-linecap: round"/>
   </g>
   <g id="line2d_13">
    <path d="M 75.090333 302.086546 
L 165.610777 302.086546 
" clip-path="url(#pfba34deba9)" style="fill: none; stroke: #111111; stroke-width: 3.6; stroke-linecap: round"/>
   </g>
   <g id="line2d_14">
    <path d="M 75.090333 205.070376 
L 165.610777 205.070376 
" clip-path="url(#pfba34deba9)" style="fill: none; stroke: #111111; stroke-width: 3.6; stroke-linecap: round"/>
   </g>
   <g id="line2d_15">
    <path d="M 324.964475 337.53921 
L 415.484919 337.53921 
" clip-path="url(#pfba34deba9)" style="fill: none; stroke: #111111; stroke-width: 3.6; stroke-linecap: round"/>
   </g>
   <g id="line2d_16">
    <path d="M 324.964475 252.953483 
L 415.484919 252.953483 
" clip-path="url(#pfba34deba9)" style="fill: none; stroke: #111111; stroke-width: 3.6; stroke-linecap: round"/>
   </g>
   <g id="line2d_17">
    <path d="M 324.964475 165.3223 
L 415.484919 165.3223 
" clip-path="url(#pfba34deba9)" style="fill: none; stroke: #111111; stroke-width: 3.6; stroke-linecap: round"/>
   </g>
   <g id="line2d_18">
    <path d="M 324.964475 73.260356 
L 415.484919 73.260356 
" clip-path="url(#pfba34deba9)" style="fill: none; stroke: #111111; stroke-width: 3.6; stroke-linecap: round"/>
   </g>
   <g id="line2d_19">
    <path d="M 574.838617 300.163807 
L 665.359061 300.163807 
" clip-path="url(#pfba34deba9)" style="fill: none; stroke: #111111; stroke-width: 3.6; stroke-linecap: round"/>
   </g>
   <g id="line2d_20">
    <path d="M 574.838617 195.687596 
L 665.359061 195.687596 
" clip-path="url(#pfba34deba9)" style="fill: none; stroke: #111111; stroke-width: 3.6; stroke-linecap: round"/>
   </g>
   <g id="text_1">
    <!-- $^{132}\mathrm{Te}$ -->
    <g transform="translate(328.382 33.034687) scale(0.34 -0.34)">
     <defs>
      <path id="DejaVuSans-31" d="M 794 531 
L 1825 531 
L 1825 4091 
L 703 3866 
L 703 4441 
L 1819 4666 
L 2450 4666 
L 2450 531 
L 3481 531 
L 3481 0 
L 794 0 
L 794 531 
z
" transform="scale(0.015625)"/>
      <path id="DejaVuSans-33" d="M 2597 2516 
Q 3050 2419 3304 2112 
Q 3559 1806 3559 1356 
Q 3559 666 3084 287 
Q 2609 -91 1734 -91 
Q 1441 -91 1130 -33 
Q 819 25 488 141 
L 488 750 
Q 750 597 1062 519 
Q 1375 441 1716 441 
Q 2309 441 2620 675 
Q 2931 909 2931 1356 
Q 2931 1769 2642 2001 
Q 2353 2234 1838 2234 
L 1294 2234 
L 1294 2753 
L 1863 2753 
Q 2328 2753 2575 2939 
Q 2822 3125 2822 3475 
Q 2822 3834 2567 4026 
Q 2313 4219 1838 4219 
Q 1578 4219 1281 4162 
Q 984 4106 628 3988 
L 628 4550 
Q 988 4650 1302 4700 
Q 1616 4750 1894 4750 
Q 2613 4750 3031 4423 
Q 3450 4097 3450 3541 
Q 3450 3153 3228 2886 
Q 3006 2619 2597 2516 
z
" transform="scale(0.015625)"/>
      <path id="DejaVuSans-32" d="M 1228 531 
L 3431 531 
L 3431 0 
L 469 0 
L 469 531 
Q 828 903 1448 1529 
Q 2069 2156 2228 2338 
Q 2531 2678 2651 2914 
Q 2772 3150 2772 3378 
Q 2772 3750 2511 3984 
Q 2250 4219 1831 4219 
Q 1534 4219 1204 4116 
Q 875 4013 500 3803 
L 500 4441 
Q 881 4594 1212 4672 
Q 1544 4750 1819 4750 
Q 2544 4750 2975 4387 
Q 3406 4025 3406 3419 
Q 3406 3131 3298 2873 
Q 3191 2616 2906 2266 
Q 2828 2175 2409 1742 
Q 1991 1309 1228 531 
z
" transform="scale(0.015625)"/>
      <path id="DejaVuSans-54" d="M -19 4666 
L 3928 4666 
L 3928 4134 
L 2272 4134 
L 2272 0 
L 1638 0 
L 1638 4134 
L -19 4134 
L -19 4666 
z
" transform="scale(0.015625)"/>
      <path id="DejaVuSans-65" d="M 3597 1894 
L 3597 1613 
L 953 1613 
Q 991 1019 1311 708 
Q 1631 397 2203 397 
Q 2534 397 2845 478 
Q 3156 559 3463 722 
L 3463 178 
Q 3153 47 2828 -22 
Q 2503 -91 2169 -91 
Q 1331 -91 842 396 
Q 353 884 353 1716 
Q 353 2575 817 3079 
Q 1281 3584 2069 3584 
Q 2775 3584 3186 3129 
Q 3597 2675 3597 1894 
z
M 3022 2063 
Q 3016 2534 2758 2815 
Q 2500 3097 2075 3097 
Q 1594 3097 1305 2825 
Q 1016 2553 972 2059 
L 3022 2063 
z
" transform="scale(0.015625)"/>
     </defs>
     <use xlink:href="#DejaVuSans-31" transform="translate(0.957031 39.046875) scale(0.7)"/>
     <use xlink:href="#DejaVuSans-33" transform="translate(45.493164 39.046875) scale(0.7)"/>
     <use xlink:href="#DejaVuSans-32" transform="translate(90.029297 39.046875) scale(0.7)"/>
     <use xlink:href="#DejaVuSans-54" transform="translate(137.299805 0.765625)"/>
     <use xlink:href="#DejaVuSans-65" transform="translate(198.383789 0.765625)"/>
    </g>
   </g>
   <g id="text_2">
    <!-- 0 -->
    <g transform="translate(46.98525 483.485923) scale(0.16 -0.16)">
     <defs>
      <path id="DejaVuSans-BoldOblique-30" d="M 1913 728 
Q 2153 728 2339 872 
Q 2525 1016 2650 1294 
Q 2738 1491 2809 1742 
Q 2881 1994 2944 2338 
Q 2997 2616 3025 2850 
Q 3053 3084 3053 3250 
Q 3053 3600 2928 3764 
Q 2803 3928 2541 3928 
Q 2297 3928 2112 3789 
Q 1928 3650 1806 3366 
Q 1713 3163 1636 2903 
Q 1559 2644 1503 2338 
Q 1450 2056 1422 1815 
Q 1394 1575 1394 1409 
Q 1394 1063 1522 895 
Q 1650 728 1913 728 
z
M 4225 3072 
Q 4225 2450 4053 1862 
Q 3881 1275 3572 831 
Q 3256 375 2809 142 
Q 2363 -91 1813 -91 
Q 1047 -91 639 343 
Q 231 778 231 1594 
Q 231 2206 401 2795 
Q 572 3384 878 3822 
Q 1200 4281 1644 4515 
Q 2088 4750 2644 4750 
Q 3403 4750 3814 4314 
Q 4225 3878 4225 3072 
z
" transform="scale(0.015625)"/>
     </defs>
     <use xlink:href="#DejaVuSans-BoldOblique-30"/>
    </g>
   </g>
   <g id="text_3">
    <!-- 0⁺ -->
    <g transform="translate(182.58336 484.226158) scale(0.23 -0.23)">
     <defs>
      <path id="TimesNewRomanPS-BoldMT-30" d="M 2966 2119 
Q 2966 1484 2788 934 
Q 2681 597 2501 381 
Q 2322 166 2094 39 
Q 1866 -88 1597 -88 
Q 1291 -88 1044 68 
Q 797 225 606 516 
Q 469 728 366 1081 
Q 231 1559 231 2069 
Q 231 2759 425 3338 
Q 584 3816 909 4070 
Q 1234 4325 1597 4325 
Q 1966 4325 2286 4073 
Q 2606 3822 2756 3397 
Q 2966 2813 2966 2119 
z
M 2003 2125 
Q 2003 3238 1991 3422 
Q 1959 3856 1841 4009 
Q 1763 4109 1588 4109 
Q 1453 4109 1375 4034 
Q 1259 3925 1218 3648 
Q 1178 3372 1178 1719 
Q 1178 819 1241 513 
Q 1288 291 1375 216 
Q 1463 141 1606 141 
Q 1763 141 1841 241 
Q 1972 416 1991 781 
L 2003 2125 
z
" transform="scale(0.015625)"/>
      <path id="DejaVuSerif-Bold-207a" d="M 1916 4344 
L 1916 3441 
L 2950 3441 
L 2950 3044 
L 1916 3044 
L 1916 2141 
L 1463 2141 
L 1463 3044 
L 428 3044 
L 428 3441 
L 1463 3441 
L 1463 4344 
L 1916 4344 
z
" transform="scale(0.015625)"/>
     </defs>
     <use xlink:href="#TimesNewRomanPS-BoldMT-30"/>
     <use xlink:href="#DejaVuSerif-Bold-207a" transform="translate(50 0)"/>
    </g>
   </g>
   <g id="text_4">
    <!-- 1914 -->
    <g transform="translate(13.58775 397.263115) scale(0.16 -0.16)">
     <defs>
      <path id="DejaVuSans-BoldOblique-31" d="M 441 831 
L 1503 831 
L 2088 3847 
L 953 3622 
L 1113 4441 
L 2241 4666 
L 3384 4666 
L 2644 831 
L 3700 831 
L 3541 0 
L 275 0 
L 441 831 
z
" transform="scale(0.015625)"/>
      <path id="DejaVuSans-BoldOblique-39" d="M 263 103 
L 428 966 
Q 700 825 953 758 
Q 1206 691 1459 691 
Q 2041 691 2400 1003 
Q 2759 1316 2834 1881 
Q 2594 1722 2337 1645 
Q 2081 1569 1791 1569 
Q 1219 1569 853 1909 
Q 488 2250 488 2778 
Q 488 3641 1052 4192 
Q 1616 4744 2503 4744 
Q 3300 4744 3736 4292 
Q 4172 3841 4172 3016 
Q 4172 2381 3978 1801 
Q 3784 1222 3431 800 
Q 3056 353 2548 128 
Q 2041 -97 1403 -97 
Q 1106 -97 825 -47 
Q 544 3 263 103 
z
M 2169 2344 
Q 2525 2344 2753 2637 
Q 2981 2931 2981 3391 
Q 2981 3675 2845 3828 
Q 2709 3981 2456 3981 
Q 2103 3981 1870 3690 
Q 1638 3400 1638 2963 
Q 1638 2663 1775 2503 
Q 1913 2344 2169 2344 
z
" transform="scale(0.015625)"/>
      <path id="DejaVuSans-BoldOblique-34" d="M 2638 3641 
L 978 1722 
L 2259 1722 
L 2638 3641 
z
M 2606 4666 
L 3975 4666 
L 3397 1722 
L 4063 1722 
L 3897 850 
L 3231 850 
L 3066 0 
L 1925 0 
L 2094 850 
L -6 850 
L 197 1881 
L 2606 4666 
z
" transform="scale(0.015625)"/>
     </defs>
     <use xlink:href="#DejaVuSans-BoldOblique-31"/>
     <use xlink:href="#DejaVuSans-BoldOblique-39" transform="translate(69.580078 0)"/>
     <use xlink:href="#DejaVuSans-BoldOblique-31" transform="translate(139.160156 0)"/>
     <use xlink:href="#DejaVuSans-BoldOblique-34" transform="translate(208.740234 0)"/>
    </g>
   </g>
   <g id="text_5">
    <!-- 2⁺ -->
    <g transform="translate(182.58336 398.003349) scale(0.23 -0.23)">
     <defs>
      <path id="TimesNewRomanPS-BoldMT-32" d="M 2650 0 
L 156 0 
L 156 69 
Q 1303 1434 1548 1906 
Q 1794 2378 1794 2828 
Q 1794 3156 1591 3373 
Q 1388 3591 1094 3591 
Q 613 3591 347 3109 
L 231 3150 
Q 400 3750 744 4037 
Q 1088 4325 1538 4325 
Q 1859 4325 2125 4175 
Q 2391 4025 2541 3764 
Q 2691 3503 2691 3275 
Q 2691 2859 2459 2431 
Q 2144 1853 1081 819 
L 1997 819 
Q 2334 819 2436 847 
Q 2538 875 2603 942 
Q 2669 1009 2775 1225 
L 2888 1225 
L 2650 0 
z
" transform="scale(0.015625)"/>
     </defs>
     <use xlink:href="#TimesNewRomanPS-BoldMT-32"/>
     <use xlink:href="#DejaVuSerif-Bold-207a" transform="translate(50 0)"/>
    </g>
   </g>
   <g id="text_6">
    <!-- 3928 -->
    <g transform="translate(13.58775 306.501546) scale(0.16 -0.16)">
     <defs>
      <path id="DejaVuSans-BoldOblique-33" d="M 3022 2516 
Q 3375 2434 3572 2187 
Q 3769 1941 3769 1581 
Q 3769 806 3155 357 
Q 2541 -91 1466 -91 
Q 1059 -91 692 -33 
Q 325 25 0 141 
L 178 1069 
Q 456 906 784 817 
Q 1113 728 1441 728 
Q 1969 728 2276 926 
Q 2584 1125 2584 1459 
Q 2584 1738 2350 1877 
Q 2116 2016 1644 2016 
L 1166 2016 
L 1319 2791 
L 1825 2791 
Q 2316 2791 2602 2969 
Q 2888 3147 2888 3450 
Q 2888 3688 2689 3813 
Q 2491 3938 2113 3938 
Q 1847 3938 1534 3869 
Q 1222 3800 884 3669 
L 1056 4550 
Q 1425 4650 1783 4700 
Q 2141 4750 2491 4750 
Q 3281 4750 3679 4487 
Q 4078 4225 4078 3706 
Q 4078 3241 3801 2930 
Q 3525 2619 3022 2516 
z
" transform="scale(0.015625)"/>
      <path id="DejaVuSans-BoldOblique-32" d="M 1581 884 
L 3609 884 
L 3438 0 
L 50 0 
L 225 891 
L 2209 2388 
Q 2534 2638 2704 2894 
Q 2875 3150 2875 3391 
Q 2875 3647 2700 3787 
Q 2525 3928 2209 3928 
Q 1913 3928 1547 3811 
Q 1181 3694 722 3450 
L 922 4441 
Q 1347 4597 1756 4673 
Q 2166 4750 2566 4750 
Q 3278 4750 3687 4442 
Q 4097 4134 4097 3603 
Q 4097 3147 3847 2772 
Q 3597 2397 2747 1759 
L 1581 884 
z
" transform="scale(0.015625)"/>
      <path id="DejaVuSans-BoldOblique-38" d="M 2150 2088 
Q 1784 2088 1539 1839 
Q 1294 1591 1294 1228 
Q 1294 969 1453 817 
Q 1613 666 1888 666 
Q 2259 666 2503 911 
Q 2747 1156 2747 1522 
Q 2747 1781 2586 1934 
Q 2425 2088 2150 2088 
z
M 1381 2484 
Q 1044 2625 876 2850 
Q 709 3075 709 3391 
Q 709 4025 1229 4387 
Q 1750 4750 2669 4750 
Q 3406 4750 3812 4475 
Q 4219 4200 4219 3700 
Q 4219 3256 3936 2940 
Q 3653 2625 3128 2484 
Q 3509 2338 3690 2091 
Q 3872 1844 3872 1466 
Q 3872 747 3311 328 
Q 2750 -91 1772 -91 
Q 1000 -91 570 217 
Q 141 525 141 1075 
Q 141 1572 470 1945 
Q 800 2319 1381 2484 
z
M 2559 3994 
Q 2241 3994 2048 3808 
Q 1856 3622 1856 3316 
Q 1856 3103 1995 2972 
Q 2134 2841 2363 2841 
Q 2681 2841 2873 3027 
Q 3066 3213 3066 3519 
Q 3066 3734 2927 3864 
Q 2788 3994 2559 3994 
z
" transform="scale(0.015625)"/>
     </defs>
     <use xlink:href="#DejaVuSans-BoldOblique-33"/>
     <use xlink:href="#DejaVuSans-BoldOblique-39" transform="translate(69.580078 0)"/>
     <use xlink:href="#DejaVuSans-BoldOblique-32" transform="translate(139.160156 0)"/>
     <use xlink:href="#DejaVuSans-BoldOblique-38" transform="translate(208.740234 0)"/>
    </g>
   </g>
   <g id="text_7">
    <!-- 4⁺ -->
    <g transform="translate(182.58336 307.24178) scale(0.23 -0.23)">
     <defs>
      <path id="TimesNewRomanPS-BoldMT-34" d="M 159 1597 
L 2172 4325 
L 2553 4325 
L 2553 1597 
L 2941 1597 
L 2941 950 
L 2553 950 
L 2553 0 
L 1694 0 
L 1694 950 
L 159 950 
L 159 1597 
z
M 463 1597 
L 1694 1597 
L 1694 3269 
L 463 1597 
z
" transform="scale(0.015625)"/>
     </defs>
     <use xlink:href="#TimesNewRomanPS-BoldMT-34"/>
     <use xlink:href="#DejaVuSerif-Bold-207a" transform="translate(50 0)"/>
    </g>
   </g>
   <g id="text_8">
    <!-- 6081 -->
    <g transform="translate(13.58775 209.485376) scale(0.16 -0.16)">
     <defs>
      <path id="DejaVuSans-BoldOblique-36" d="M 2316 2303 
Q 1959 2303 1731 2009 
Q 1503 1716 1503 1253 
Q 1503 975 1643 820 
Q 1784 666 2034 666 
Q 2388 666 2617 955 
Q 2847 1244 2847 1684 
Q 2847 1984 2709 2143 
Q 2572 2303 2316 2303 
z
M 4225 4544 
L 4056 3681 
Q 3788 3819 3534 3887 
Q 3281 3956 3028 3956 
Q 2447 3956 2087 3643 
Q 1728 3331 1650 2766 
Q 1894 2925 2151 3001 
Q 2409 3078 2700 3078 
Q 3275 3078 3640 2737 
Q 4006 2397 4006 1869 
Q 4006 1006 3442 454 
Q 2878 -97 1991 -97 
Q 1194 -97 756 354 
Q 319 806 319 1631 
Q 319 2269 512 2848 
Q 706 3428 1056 3847 
Q 1431 4294 1942 4519 
Q 2453 4744 3091 4744 
Q 3384 4744 3662 4694 
Q 3941 4644 4225 4544 
z
" transform="scale(0.015625)"/>
     </defs>
     <use xlink:href="#DejaVuSans-BoldOblique-36"/>
     <use xlink:href="#DejaVuSans-BoldOblique-30" transform="translate(69.580078 0)"/>
     <use xlink:href="#DejaVuSans-BoldOblique-38" transform="translate(139.160156 0)"/>
     <use xlink:href="#DejaVuSans-BoldOblique-31" transform="translate(208.740234 0)"/>
    </g>
   </g>
   <g id="text_9">
    <!-- 6⁺ -->
    <g transform="translate(182.58336 210.22561) scale(0.23 -0.23)">
     <defs>
      <path id="TimesNewRomanPS-BoldMT-36" d="M 3006 4325 
L 3006 4238 
Q 2441 4094 2098 3867 
Q 1756 3641 1557 3317 
Q 1359 2994 1250 2516 
Q 1388 2609 1478 2638 
Q 1681 2700 1888 2700 
Q 2363 2700 2680 2354 
Q 2997 2009 2997 1413 
Q 2997 994 2825 644 
Q 2653 294 2337 103 
Q 2022 -88 1663 -88 
Q 1272 -88 940 126 
Q 609 341 423 753 
Q 238 1166 238 1650 
Q 238 2363 580 2977 
Q 922 3591 1551 3955 
Q 2181 4319 3006 4325 
z
M 1209 2263 
Q 1184 1831 1184 1631 
Q 1184 1200 1267 797 
Q 1350 394 1494 231 
Q 1597 116 1738 116 
Q 1881 116 1993 283 
Q 2106 450 2106 963 
Q 2106 1825 1897 2153 
Q 1763 2366 1534 2366 
Q 1409 2366 1209 2263 
z
" transform="scale(0.015625)"/>
     </defs>
     <use xlink:href="#TimesNewRomanPS-BoldMT-36"/>
     <use xlink:href="#DejaVuSerif-Bold-207a" transform="translate(50 0)"/>
    </g>
   </g>
   <g id="text_10">
    <!-- 3141 -->
    <g transform="translate(263.461892 341.95421) scale(0.16 -0.16)">
     <use xlink:href="#DejaVuSans-BoldOblique-33"/>
     <use xlink:href="#DejaVuSans-BoldOblique-31" transform="translate(69.580078 0)"/>
     <use xlink:href="#DejaVuSans-BoldOblique-34" transform="translate(139.160156 0)"/>
     <use xlink:href="#DejaVuSans-BoldOblique-31" transform="translate(208.740234 0)"/>
    </g>
   </g>
   <g id="text_11">
    <!-- 0⁺ -->
    <g transform="translate(432.457502 342.694444) scale(0.23 -0.23)">
     <use xlink:href="#TimesNewRomanPS-BoldMT-30"/>
     <use xlink:href="#DejaVuSerif-Bold-207a" transform="translate(50 0)"/>
    </g>
   </g>
   <g id="text_12">
    <!-- 5019 -->
    <g transform="translate(263.461892 257.368483) scale(0.16 -0.16)">
     <defs>
      <path id="DejaVuSans-BoldOblique-35" d="M 1131 4666 
L 4122 4666 
L 3950 3781 
L 1919 3781 
L 1778 3059 
Q 1916 3097 2064 3117 
Q 2213 3138 2363 3138 
Q 3078 3138 3481 2811 
Q 3884 2484 3884 1906 
Q 3884 988 3262 448 
Q 2641 -91 1575 -91 
Q 1184 -91 815 -14 
Q 447 63 84 219 
L 269 1166 
Q 616 941 942 834 
Q 1269 728 1606 728 
Q 2100 728 2397 986 
Q 2694 1244 2694 1663 
Q 2694 1963 2469 2139 
Q 2244 2316 1856 2316 
Q 1594 2316 1289 2248 
Q 984 2181 622 2041 
L 1131 4666 
z
" transform="scale(0.015625)"/>
     </defs>
     <use xlink:href="#DejaVuSans-BoldOblique-35"/>
     <use xlink:href="#DejaVuSans-BoldOblique-30" transform="translate(69.580078 0)"/>
     <use xlink:href="#DejaVuSans-BoldOblique-31" transform="translate(139.160156 0)"/>
     <use xlink:href="#DejaVuSans-BoldOblique-39" transform="translate(208.740234 0)"/>
    </g>
   </g>
   <g id="text_13">
    <!-- 2⁺ -->
    <g transform="translate(432.457502 258.108717) scale(0.23 -0.23)">
     <use xlink:href="#TimesNewRomanPS-BoldMT-32"/>
     <use xlink:href="#DejaVuSerif-Bold-207a" transform="translate(50 0)"/>
    </g>
   </g>
   <g id="text_14">
    <!-- 6963 -->
    <g transform="translate(263.461892 169.7373) scale(0.16 -0.16)">
     <use xlink:href="#DejaVuSans-BoldOblique-36"/>
     <use xlink:href="#DejaVuSans-BoldOblique-39" transform="translate(69.580078 0)"/>
     <use xlink:href="#DejaVuSans-BoldOblique-36" transform="translate(139.160156 0)"/>
     <use xlink:href="#DejaVuSans-BoldOblique-33" transform="translate(208.740234 0)"/>
    </g>
   </g>
   <g id="text_15">
    <!-- 4⁺ -->
    <g transform="translate(432.457502 170.477534) scale(0.23 -0.23)">
     <use xlink:href="#TimesNewRomanPS-BoldMT-34"/>
     <use xlink:href="#DejaVuSerif-Bold-207a" transform="translate(50 0)"/>
    </g>
   </g>
   <g id="text_16">
    <!-- 9007 -->
    <g transform="translate(263.461892 77.675356) scale(0.16 -0.16)">
     <defs>
      <path id="DejaVuSans-BoldOblique-37" d="M 922 4666 
L 4441 4666 
L 4300 3981 
L 1703 0 
L 500 0 
L 2969 3781 
L 756 3781 
L 922 4666 
z
" transform="scale(0.015625)"/>
     </defs>
     <use xlink:href="#DejaVuSans-BoldOblique-39"/>
     <use xlink:href="#DejaVuSans-BoldOblique-30" transform="translate(69.580078 0)"/>
     <use xlink:href="#DejaVuSans-BoldOblique-30" transform="translate(139.160156 0)"/>
     <use xlink:href="#DejaVuSans-BoldOblique-37" transform="translate(208.740234 0)"/>
    </g>
   </g>
   <g id="text_17">
    <!-- 6⁺ -->
    <g transform="translate(432.457502 78.415591) scale(0.23 -0.23)">
     <use xlink:href="#TimesNewRomanPS-BoldMT-36"/>
     <use xlink:href="#DejaVuSerif-Bold-207a" transform="translate(50 0)"/>
    </g>
   </g>
   <g id="text_18">
    <!-- 3971 -->
    <g transform="translate(513.336034 304.578807) scale(0.16 -0.16)">
     <use xlink:href="#DejaVuSans-BoldOblique-33"/>
     <use xlink:href="#DejaVuSans-BoldOblique-39" transform="translate(69.580078 0)"/>
     <use xlink:href="#DejaVuSans-BoldOblique-37" transform="translate(139.160156 0)"/>
     <use xlink:href="#DejaVuSans-BoldOblique-31" transform="translate(208.740234 0)"/>
    </g>
   </g>
   <g id="text_19">
    <!-- 2⁺ -->
    <g transform="translate(682.331644 305.319041) scale(0.23 -0.23)">
     <use xlink:href="#TimesNewRomanPS-BoldMT-32"/>
     <use xlink:href="#DejaVuSerif-Bold-207a" transform="translate(50 0)"/>
    </g>
   </g>
   <g id="text_20">
    <!-- 6290 -->
    <g transform="translate(513.336034 200.102596) scale(0.16 -0.16)">
     <use xlink:href="#DejaVuSans-BoldOblique-36"/>
     <use xlink:href="#DejaVuSans-BoldOblique-32" transform="translate(69.580078 0)"/>
     <use xlink:href="#DejaVuSans-BoldOblique-39" transform="translate(139.160156 0)"/>
     <use xlink:href="#DejaVuSans-BoldOblique-30" transform="translate(208.740234 0)"/>
    </g>
   </g>
   <g id="text_21">
    <!-- 3⁺ -->
    <g transform="translate(682.331644 200.84283) scale(0.23 -0.23)">
     <defs>
      <path id="TimesNewRomanPS-BoldMT-33" d="M 947 2125 
L 947 2234 
Q 1303 2338 1440 2427 
Q 1578 2516 1678 2698 
Q 1778 2881 1778 3069 
Q 1778 3328 1589 3514 
Q 1400 3700 1119 3700 
Q 681 3700 375 3238 
L 259 3278 
Q 484 3800 836 4062 
Q 1188 4325 1619 4325 
Q 2059 4325 2345 4056 
Q 2631 3788 2631 3428 
Q 2631 3194 2498 2976 
Q 2366 2759 2081 2594 
Q 2447 2416 2639 2155 
Q 2831 1894 2831 1500 
Q 2831 838 2351 373 
Q 1872 -91 1066 -91 
Q 528 -91 281 88 
Q 103 213 103 409 
Q 103 553 206 654 
Q 309 756 444 756 
Q 547 756 638 713 
Q 688 688 992 439 
Q 1297 191 1563 191 
Q 1794 191 1959 373 
Q 2125 556 2125 838 
Q 2125 1266 1825 1627 
Q 1525 1988 947 2125 
z
" transform="scale(0.015625)"/>
     </defs>
     <use xlink:href="#TimesNewRomanPS-BoldMT-33"/>
     <use xlink:href="#DejaVuSerif-Bold-207a" transform="translate(50 0)"/>
    </g>
   </g>
   <g id="text_22">
    <path d="M 111.560555 428.733269 
L 111.560555 437.398269 
Q 111.560555 438.373269 111.645555 438.643269 
Q 111.733055 438.913269 112.005555 439.085769 
Q 112.280555 439.255769 112.883055 439.255769 
L 113.123055 439.255769 
L 113.123055 439.545769 
L 107.545555 439.545769 
L 107.545555 439.255769 
L 107.828055 439.255769 
Q 108.508055 439.255769 108.795555 439.100769 
Q 109.085555 438.943269 109.185555 438.670769 
Q 109.288055 438.398269 109.288055 437.398269 
L 109.288055 431.905769 
Q 109.288055 431.170769 109.218055 430.988269 
Q 109.148055 430.803269 108.955555 430.675769 
Q 108.765555 430.545769 108.515555 430.545769 
Q 108.115555 430.545769 107.545555 430.795769 
L 107.405555 430.513269 
L 111.303055 428.733269 
L 111.560555 428.733269 
z
M 121.765555 434.248269 
Q 121.765555 435.835769 121.320555 437.210769 
Q 121.053055 438.053269 120.603055 438.593269 
Q 120.155555 439.130769 119.585555 439.448269 
Q 119.015555 439.765769 118.343055 439.765769 
Q 117.578055 439.765769 116.960555 439.375769 
Q 116.343055 438.983269 115.865555 438.255769 
Q 115.523055 437.725769 115.265555 436.843269 
Q 114.928055 435.648269 114.928055 434.373269 
Q 114.928055 432.648269 115.413055 431.200769 
Q 115.810555 430.005769 116.623055 429.370769 
Q 117.435555 428.733269 118.343055 428.733269 
Q 119.265555 428.733269 120.065555 429.363269 
Q 120.865555 429.990769 121.240555 431.053269 
Q 121.765555 432.513269 121.765555 434.248269 
z
M 119.358055 434.233269 
Q 119.358055 431.450769 119.328055 430.990769 
Q 119.248055 429.905769 118.953055 429.523269 
Q 118.758055 429.273269 118.320555 429.273269 
Q 117.983055 429.273269 117.788055 429.460769 
Q 117.498055 429.733269 117.395555 430.425769 
Q 117.295555 431.115769 117.295555 435.248269 
Q 117.295555 437.498269 117.453055 438.263269 
Q 117.570555 438.818269 117.788055 439.005769 
Q 118.008055 439.193269 118.365555 439.193269 
Q 118.758055 439.193269 118.953055 438.943269 
Q 119.280555 438.505769 119.328055 437.593269 
L 119.358055 434.233269 
z
M 124.350555 437.138269 
Q 124.898055 437.138269 125.275555 437.523269 
Q 125.655555 437.905769 125.655555 438.443269 
Q 125.655555 438.983269 125.273055 439.363269 
Q 124.890555 439.740769 124.350555 439.740769 
Q 123.810555 439.740769 123.430555 439.363269 
Q 123.053055 438.983269 123.053055 438.443269 
Q 123.053055 437.905769 123.430555 437.523269 
Q 123.810555 437.138269 124.350555 437.138269 
z
M 126.748055 435.553269 
L 131.780555 428.733269 
L 132.733055 428.733269 
L 132.733055 435.553269 
L 133.703055 435.553269 
L 133.703055 437.170769 
L 132.733055 437.170769 
L 132.733055 439.545769 
L 130.585555 439.545769 
L 130.585555 437.170769 
L 126.748055 437.170769 
L 126.748055 435.553269 
z
M 127.508055 435.553269 
L 130.585555 435.553269 
L 130.585555 431.373269 
L 127.508055 435.553269 
z
" style="stroke: #ffffff; stroke-width: 3.8"/>
    <path d="M 111.560555 428.733269 
L 111.560555 437.398269 
Q 111.560555 438.373269 111.645555 438.643269 
Q 111.733055 438.913269 112.005555 439.085769 
Q 112.280555 439.255769 112.883055 439.255769 
L 113.123055 439.255769 
L 113.123055 439.545769 
L 107.545555 439.545769 
L 107.545555 439.255769 
L 107.828055 439.255769 
Q 108.508055 439.255769 108.795555 439.100769 
Q 109.085555 438.943269 109.185555 438.670769 
Q 109.288055 438.398269 109.288055 437.398269 
L 109.288055 431.905769 
Q 109.288055 431.170769 109.218055 430.988269 
Q 109.148055 430.803269 108.955555 430.675769 
Q 108.765555 430.545769 108.515555 430.545769 
Q 108.115555 430.545769 107.545555 430.795769 
L 107.405555 430.513269 
L 111.303055 428.733269 
L 111.560555 428.733269 
z
M 121.765555 434.248269 
Q 121.765555 435.835769 121.320555 437.210769 
Q 121.053055 438.053269 120.603055 438.593269 
Q 120.155555 439.130769 119.585555 439.448269 
Q 119.015555 439.765769 118.343055 439.765769 
Q 117.578055 439.765769 116.960555 439.375769 
Q 116.343055 438.983269 115.865555 438.255769 
Q 115.523055 437.725769 115.265555 436.843269 
Q 114.928055 435.648269 114.928055 434.373269 
Q 114.928055 432.648269 115.413055 431.200769 
Q 115.810555 430.005769 116.623055 429.370769 
Q 117.435555 428.733269 118.343055 428.733269 
Q 119.265555 428.733269 120.065555 429.363269 
Q 120.865555 429.990769 121.240555 431.053269 
Q 121.765555 432.513269 121.765555 434.248269 
z
M 119.358055 434.233269 
Q 119.358055 431.450769 119.328055 430.990769 
Q 119.248055 429.905769 118.953055 429.523269 
Q 118.758055 429.273269 118.320555 429.273269 
Q 117.983055 429.273269 117.788055 429.460769 
Q 117.498055 429.733269 117.395555 430.425769 
Q 117.295555 431.115769 117.295555 435.248269 
Q 117.295555 437.498269 117.453055 438.263269 
Q 117.570555 438.818269 117.788055 439.005769 
Q 118.008055 439.193269 118.365555 439.193269 
Q 118.758055 439.193269 118.953055 438.943269 
Q 119.280555 438.505769 119.328055 437.593269 
L 119.358055 434.233269 
z
M 124.350555 437.138269 
Q 124.898055 437.138269 125.275555 437.523269 
Q 125.655555 437.905769 125.655555 438.443269 
Q 125.655555 438.983269 125.273055 439.363269 
Q 124.890555 439.740769 124.350555 439.740769 
Q 123.810555 439.740769 123.430555 439.363269 
Q 123.053055 438.983269 123.053055 438.443269 
Q 123.053055 437.905769 123.430555 437.523269 
Q 123.810555 437.138269 124.350555 437.138269 
z
M 126.748055 435.553269 
L 131.780555 428.733269 
L 132.733055 428.733269 
L 132.733055 435.553269 
L 133.703055 435.553269 
L 133.703055 437.170769 
L 132.733055 437.170769 
L 132.733055 439.545769 
L 130.585555 439.545769 
L 130.585555 437.170769 
L 126.748055 437.170769 
L 126.748055 435.553269 
z
M 127.508055 435.553269 
L 130.585555 435.553269 
L 130.585555 431.373269 
L 127.508055 435.553269 
z
"/>
   </g>
   <g id="text_23">
    <path d="M 112.975555 351.05358 
L 106.740555 351.05358 
L 106.740555 350.88108 
Q 109.608055 347.46858 110.220555 346.28858 
Q 110.835555 345.10858 110.835555 343.98358 
Q 110.835555 343.16358 110.328055 342.62108 
Q 109.820555 342.07608 109.085555 342.07608 
Q 107.883055 342.07608 107.218055 343.28108 
L 106.928055 343.17858 
Q 107.350555 341.67858 108.210555 340.96108 
Q 109.070555 340.24108 110.195555 340.24108 
Q 110.998055 340.24108 111.663055 340.61608 
Q 112.328055 340.99108 112.703055 341.64358 
Q 113.078055 342.29608 113.078055 342.86608 
Q 113.078055 343.90608 112.498055 344.97608 
Q 111.710555 346.42108 109.053055 349.00608 
L 111.343055 349.00608 
Q 112.185555 349.00608 112.440555 348.93608 
Q 112.695555 348.86608 112.858055 348.69858 
Q 113.023055 348.53108 113.288055 347.99108 
L 113.570555 347.99108 
L 112.975555 351.05358 
z
M 121.765555 345.75608 
Q 121.765555 347.34358 121.320555 348.71858 
Q 121.053055 349.56108 120.603055 350.10108 
Q 120.155555 350.63858 119.585555 350.95608 
Q 119.015555 351.27358 118.343055 351.27358 
Q 117.578055 351.27358 116.960555 350.88358 
Q 116.343055 350.49108 115.865555 349.76358 
Q 115.523055 349.23358 115.265555 348.35108 
Q 114.928055 347.15608 114.928055 345.88108 
Q 114.928055 344.15608 115.413055 342.70858 
Q 115.810555 341.51358 116.623055 340.87858 
Q 117.435555 340.24108 118.343055 340.24108 
Q 119.265555 340.24108 120.065555 340.87108 
Q 120.865555 341.49858 121.240555 342.56108 
Q 121.765555 344.02108 121.765555 345.75608 
z
M 119.358055 345.74108 
Q 119.358055 342.95858 119.328055 342.49858 
Q 119.248055 341.41358 118.953055 341.03108 
Q 118.758055 340.78108 118.320555 340.78108 
Q 117.983055 340.78108 117.788055 340.96858 
Q 117.498055 341.24108 117.395555 341.93358 
Q 117.295555 342.62358 117.295555 346.75608 
Q 117.295555 349.00608 117.453055 349.77108 
Q 117.570555 350.32608 117.788055 350.51358 
Q 118.008055 350.70108 118.365555 350.70108 
Q 118.758055 350.70108 118.953055 350.45108 
Q 119.280555 350.01358 119.328055 349.10108 
L 119.358055 345.74108 
z
M 124.350555 348.64608 
Q 124.898055 348.64608 125.275555 349.03108 
Q 125.655555 349.41358 125.655555 349.95108 
Q 125.655555 350.49108 125.273055 350.87108 
Q 124.890555 351.24858 124.350555 351.24858 
Q 123.810555 351.24858 123.430555 350.87108 
Q 123.053055 350.49108 123.053055 349.95108 
Q 123.053055 349.41358 123.430555 349.03108 
Q 123.810555 348.64608 124.350555 348.64608 
z
M 126.843055 351.27358 
L 126.843055 351.05358 
Q 128.140555 350.75608 129.043055 350.17858 
Q 129.945555 349.60108 130.470555 348.74858 
Q 130.998055 347.89608 131.210555 346.78858 
Q 130.725555 347.03858 130.385555 347.13608 
Q 130.045555 347.23358 129.670555 347.23358 
Q 128.468055 347.23358 127.665555 346.36608 
Q 126.865555 345.49858 126.865555 343.99108 
Q 126.865555 342.94358 127.298055 342.07358 
Q 127.733055 341.20108 128.538055 340.72108 
Q 129.343055 340.24108 130.210555 340.24108 
Q 131.140555 340.24108 131.968055 340.77358 
Q 132.795555 341.30358 133.288055 342.31108 
Q 133.780555 343.31858 133.780555 344.60858 
Q 133.780555 346.28108 132.978055 347.81358 
Q 132.178055 349.34358 130.593055 350.26858 
Q 129.008055 351.19358 126.843055 351.27358 
z
M 131.328055 346.13108 
Q 131.405555 345.25608 131.405555 344.59358 
Q 131.405555 343.17108 131.078055 341.94358 
Q 130.890555 341.26358 130.523055 340.94358 
Q 130.328055 340.77108 130.015555 340.77108 
Q 129.623055 340.77108 129.405555 341.10858 
Q 129.100555 341.56858 129.100555 342.86608 
Q 129.100555 345.03108 129.615555 345.85108 
Q 129.953055 346.38108 130.523055 346.38108 
Q 130.828055 346.38108 131.328055 346.13108 
z
" style="stroke: #ffffff; stroke-width: 3.8"/>
    <path d="M 112.975555 351.05358 
L 106.740555 351.05358 
L 106.740555 350.88108 
Q 109.608055 347.46858 110.220555 346.28858 
Q 110.835555 345.10858 110.835555 343.98358 
Q 110.835555 343.16358 110.328055 342.62108 
Q 109.820555 342.07608 109.085555 342.07608 
Q 107.883055 342.07608 107.218055 343.28108 
L 106.928055 343.17858 
Q 107.350555 341.67858 108.210555 340.96108 
Q 109.070555 340.24108 110.195555 340.24108 
Q 110.998055 340.24108 111.663055 340.61608 
Q 112.328055 340.99108 112.703055 341.64358 
Q 113.078055 342.29608 113.078055 342.86608 
Q 113.078055 343.90608 112.498055 344.97608 
Q 111.710555 346.42108 109.053055 349.00608 
L 111.343055 349.00608 
Q 112.185555 349.00608 112.440555 348.93608 
Q 112.695555 348.86608 112.858055 348.69858 
Q 113.023055 348.53108 113.288055 347.99108 
L 113.570555 347.99108 
L 112.975555 351.05358 
z
M 121.765555 345.75608 
Q 121.765555 347.34358 121.320555 348.71858 
Q 121.053055 349.56108 120.603055 350.10108 
Q 120.155555 350.63858 119.585555 350.95608 
Q 119.015555 351.27358 118.343055 351.27358 
Q 117.578055 351.27358 116.960555 350.88358 
Q 116.343055 350.49108 115.865555 349.76358 
Q 115.523055 349.23358 115.265555 348.35108 
Q 114.928055 347.15608 114.928055 345.88108 
Q 114.928055 344.15608 115.413055 342.70858 
Q 115.810555 341.51358 116.623055 340.87858 
Q 117.435555 340.24108 118.343055 340.24108 
Q 119.265555 340.24108 120.065555 340.87108 
Q 120.865555 341.49858 121.240555 342.56108 
Q 121.765555 344.02108 121.765555 345.75608 
z
M 119.358055 345.74108 
Q 119.358055 342.95858 119.328055 342.49858 
Q 119.248055 341.41358 118.953055 341.03108 
Q 118.758055 340.78108 118.320555 340.78108 
Q 117.983055 340.78108 117.788055 340.96858 
Q 117.498055 341.24108 117.395555 341.93358 
Q 117.295555 342.62358 117.295555 346.75608 
Q 117.295555 349.00608 117.453055 349.77108 
Q 117.570555 350.32608 117.788055 350.51358 
Q 118.008055 350.70108 118.365555 350.70108 
Q 118.758055 350.70108 118.953055 350.45108 
Q 119.280555 350.01358 119.328055 349.10108 
L 119.358055 345.74108 
z
M 124.350555 348.64608 
Q 124.898055 348.64608 125.275555 349.03108 
Q 125.655555 349.41358 125.655555 349.95108 
Q 125.655555 350.49108 125.273055 350.87108 
Q 124.890555 351.24858 124.350555 351.24858 
Q 123.810555 351.24858 123.430555 350.87108 
Q 123.053055 350.49108 123.053055 349.95108 
Q 123.053055 349.41358 123.430555 349.03108 
Q 123.810555 348.64608 124.350555 348.64608 
z
M 126.843055 351.27358 
L 126.843055 351.05358 
Q 128.140555 350.75608 129.043055 350.17858 
Q 129.945555 349.60108 130.470555 348.74858 
Q 130.998055 347.89608 131.210555 346.78858 
Q 130.725555 347.03858 130.385555 347.13608 
Q 130.045555 347.23358 129.670555 347.23358 
Q 128.468055 347.23358 127.665555 346.36608 
Q 126.865555 345.49858 126.865555 343.99108 
Q 126.865555 342.94358 127.298055 342.07358 
Q 127.733055 341.20108 128.538055 340.72108 
Q 129.343055 340.24108 130.210555 340.24108 
Q 131.140555 340.24108 131.968055 340.77358 
Q 132.795555 341.30358 133.288055 342.31108 
Q 133.780555 343.31858 133.780555 344.60858 
Q 133.780555 346.28108 132.978055 347.81358 
Q 132.178055 349.34358 130.593055 350.26858 
Q 129.008055 351.19358 126.843055 351.27358 
z
M 131.328055 346.13108 
Q 131.405555 345.25608 131.405555 344.59358 
Q 131.405555 343.17108 131.078055 341.94358 
Q 130.890555 341.26358 130.523055 340.94358 
Q 130.328055 340.77108 130.015555 340.77108 
Q 129.623055 340.77108 129.405555 341.10858 
Q 129.100555 341.56858 129.100555 342.86608 
Q 129.100555 345.03108 129.615555 345.85108 
Q 129.953055 346.38108 130.523055 346.38108 
Q 130.828055 346.38108 131.328055 346.13108 
z
"/>
   </g>
   <g id="text_24">
    <path d="M 108.718055 251.852211 
L 108.718055 251.579711 
Q 109.608055 251.319711 109.950555 251.097211 
Q 110.295555 250.874711 110.545555 250.419711 
Q 110.795555 249.962211 110.795555 249.492211 
Q 110.795555 248.844711 110.323055 248.379711 
Q 109.850555 247.914711 109.148055 247.914711 
Q 108.053055 247.914711 107.288055 249.069711 
L 106.998055 248.969711 
Q 107.560555 247.664711 108.440555 247.009711 
Q 109.320555 246.352211 110.398055 246.352211 
Q 111.498055 246.352211 112.213055 247.024711 
Q 112.928055 247.694711 112.928055 248.594711 
Q 112.928055 249.179711 112.595555 249.724711 
Q 112.265555 250.267211 111.553055 250.679711 
Q 112.468055 251.124711 112.948055 251.777211 
Q 113.428055 252.429711 113.428055 253.414711 
Q 113.428055 255.069711 112.228055 256.232211 
Q 111.030555 257.392211 109.015555 257.392211 
Q 107.670555 257.392211 107.053055 256.944711 
Q 106.608055 256.632211 106.608055 256.142211 
Q 106.608055 255.782211 106.865555 255.529711 
Q 107.123055 255.274711 107.460555 255.274711 
Q 107.718055 255.274711 107.945555 255.382211 
Q 108.070555 255.444711 108.830555 256.067211 
Q 109.593055 256.687211 110.258055 256.687211 
Q 110.835555 256.687211 111.248055 256.232211 
Q 111.663055 255.774711 111.663055 255.069711 
Q 111.663055 253.999711 110.913055 253.097211 
Q 110.163055 252.194711 108.718055 251.852211 
z
M 119.560555 246.352211 
L 119.560555 255.017211 
Q 119.560555 255.992211 119.645555 256.262211 
Q 119.733055 256.532211 120.005555 256.704711 
Q 120.280555 256.874711 120.883055 256.874711 
L 121.123055 256.874711 
L 121.123055 257.164711 
L 115.545555 257.164711 
L 115.545555 256.874711 
L 115.828055 256.874711 
Q 116.508055 256.874711 116.795555 256.719711 
Q 117.085555 256.562211 117.185555 256.289711 
Q 117.288055 256.017211 117.288055 255.017211 
L 117.288055 249.524711 
Q 117.288055 248.789711 117.218055 248.607211 
Q 117.148055 248.422211 116.955555 248.294711 
Q 116.765555 248.164711 116.515555 248.164711 
Q 116.115555 248.164711 115.545555 248.414711 
L 115.405555 248.132211 
L 119.303055 246.352211 
L 119.560555 246.352211 
z
M 124.350555 254.757211 
Q 124.898055 254.757211 125.275555 255.142211 
Q 125.655555 255.524711 125.655555 256.062211 
Q 125.655555 256.602211 125.273055 256.982211 
Q 124.890555 257.359711 124.350555 257.359711 
Q 123.810555 257.359711 123.430555 256.982211 
Q 123.053055 256.602211 123.053055 256.062211 
Q 123.053055 255.524711 123.430555 255.142211 
Q 123.810555 254.757211 124.350555 254.757211 
z
M 131.560555 246.352211 
L 131.560555 255.017211 
Q 131.560555 255.992211 131.645555 256.262211 
Q 131.733055 256.532211 132.005555 256.704711 
Q 132.280555 256.874711 132.883055 256.874711 
L 133.123055 256.874711 
L 133.123055 257.164711 
L 127.545555 257.164711 
L 127.545555 256.874711 
L 127.828055 256.874711 
Q 128.508055 256.874711 128.795555 256.719711 
Q 129.085555 256.562211 129.185555 256.289711 
Q 129.288055 256.017211 129.288055 255.017211 
L 129.288055 249.524711 
Q 129.288055 248.789711 129.218055 248.607211 
Q 129.148055 248.422211 128.955555 248.294711 
Q 128.765555 248.164711 128.515555 248.164711 
Q 128.115555 248.164711 127.545555 248.414711 
L 127.405555 248.132211 
L 131.303055 246.352211 
L 131.560555 246.352211 
z
" style="stroke: #ffffff; stroke-width: 3.8"/>
    <path d="M 108.718055 251.852211 
L 108.718055 251.579711 
Q 109.608055 251.319711 109.950555 251.097211 
Q 110.295555 250.874711 110.545555 250.419711 
Q 110.795555 249.962211 110.795555 249.492211 
Q 110.795555 248.844711 110.323055 248.379711 
Q 109.850555 247.914711 109.148055 247.914711 
Q 108.053055 247.914711 107.288055 249.069711 
L 106.998055 248.969711 
Q 107.560555 247.664711 108.440555 247.009711 
Q 109.320555 246.352211 110.398055 246.352211 
Q 111.498055 246.352211 112.213055 247.024711 
Q 112.928055 247.694711 112.928055 248.594711 
Q 112.928055 249.179711 112.595555 249.724711 
Q 112.265555 250.267211 111.553055 250.679711 
Q 112.468055 251.124711 112.948055 251.777211 
Q 113.428055 252.429711 113.428055 253.414711 
Q 113.428055 255.069711 112.228055 256.232211 
Q 111.030555 257.392211 109.015555 257.392211 
Q 107.670555 257.392211 107.053055 256.944711 
Q 106.608055 256.632211 106.608055 256.142211 
Q 106.608055 255.782211 106.865555 255.529711 
Q 107.123055 255.274711 107.460555 255.274711 
Q 107.718055 255.274711 107.945555 255.382211 
Q 108.070555 255.444711 108.830555 256.067211 
Q 109.593055 256.687211 110.258055 256.687211 
Q 110.835555 256.687211 111.248055 256.232211 
Q 111.663055 255.774711 111.663055 255.069711 
Q 111.663055 253.999711 110.913055 253.097211 
Q 110.163055 252.194711 108.718055 251.852211 
z
M 119.560555 246.352211 
L 119.560555 255.017211 
Q 119.560555 255.992211 119.645555 256.262211 
Q 119.733055 256.532211 120.005555 256.704711 
Q 120.280555 256.874711 120.883055 256.874711 
L 121.123055 256.874711 
L 121.123055 257.164711 
L 115.545555 257.164711 
L 115.545555 256.874711 
L 115.828055 256.874711 
Q 116.508055 256.874711 116.795555 256.719711 
Q 117.085555 256.562211 117.185555 256.289711 
Q 117.288055 256.017211 117.288055 255.017211 
L 117.288055 249.524711 
Q 117.288055 248.789711 117.218055 248.607211 
Q 117.148055 248.422211 116.955555 248.294711 
Q 116.765555 248.164711 116.515555 248.164711 
Q 116.115555 248.164711 115.545555 248.414711 
L 115.405555 248.132211 
L 119.303055 246.352211 
L 119.560555 246.352211 
z
M 124.350555 254.757211 
Q 124.898055 254.757211 125.275555 255.142211 
Q 125.655555 255.524711 125.655555 256.062211 
Q 125.655555 256.602211 125.273055 256.982211 
Q 124.890555 257.359711 124.350555 257.359711 
Q 123.810555 257.359711 123.430555 256.982211 
Q 123.053055 256.602211 123.053055 256.062211 
Q 123.053055 255.524711 123.430555 255.142211 
Q 123.810555 254.757211 124.350555 254.757211 
z
M 131.560555 246.352211 
L 131.560555 255.017211 
Q 131.560555 255.992211 131.645555 256.262211 
Q 131.733055 256.532211 132.005555 256.704711 
Q 132.280555 256.874711 132.883055 256.874711 
L 133.123055 256.874711 
L 133.123055 257.164711 
L 127.545555 257.164711 
L 127.545555 256.874711 
L 127.828055 256.874711 
Q 128.508055 256.874711 128.795555 256.719711 
Q 129.085555 256.562211 129.185555 256.289711 
Q 129.288055 256.017211 129.288055 255.017211 
L 129.288055 249.524711 
Q 129.288055 248.789711 129.218055 248.607211 
Q 129.148055 248.422211 128.955555 248.294711 
Q 128.765555 248.164711 128.515555 248.164711 
Q 128.115555 248.164711 127.545555 248.414711 
L 127.405555 248.132211 
L 131.303055 246.352211 
L 131.560555 246.352211 
z
"/>
   </g>
   <g id="text_25">
    <path d="M 361.434697 288.020096 
L 361.434697 296.685096 
Q 361.434697 297.660096 361.519697 297.930096 
Q 361.607197 298.200096 361.879697 298.372596 
Q 362.154697 298.542596 362.757197 298.542596 
L 362.997197 298.542596 
L 362.997197 298.832596 
L 357.419697 298.832596 
L 357.419697 298.542596 
L 357.702197 298.542596 
Q 358.382197 298.542596 358.669697 298.387596 
Q 358.959697 298.230096 359.059697 297.957596 
Q 359.162197 297.685096 359.162197 296.685096 
L 359.162197 291.192596 
Q 359.162197 290.457596 359.092197 290.275096 
Q 359.022197 290.090096 358.829697 289.962596 
Q 358.639697 289.832596 358.389697 289.832596 
Q 357.989697 289.832596 357.419697 290.082596 
L 357.279697 289.800096 
L 361.177197 288.020096 
L 361.434697 288.020096 
z
M 370.849697 298.832596 
L 364.614697 298.832596 
L 364.614697 298.660096 
Q 367.482197 295.247596 368.094697 294.067596 
Q 368.709697 292.887596 368.709697 291.762596 
Q 368.709697 290.942596 368.202197 290.400096 
Q 367.694697 289.855096 366.959697 289.855096 
Q 365.757197 289.855096 365.092197 291.060096 
L 364.802197 290.957596 
Q 365.224697 289.457596 366.084697 288.740096 
Q 366.944697 288.020096 368.069697 288.020096 
Q 368.872197 288.020096 369.537197 288.395096 
Q 370.202197 288.770096 370.577197 289.422596 
Q 370.952197 290.075096 370.952197 290.645096 
Q 370.952197 291.685096 370.372197 292.755096 
Q 369.584697 294.200096 366.927197 296.785096 
L 369.217197 296.785096 
Q 370.059697 296.785096 370.314697 296.715096 
Q 370.569697 296.645096 370.732197 296.477596 
Q 370.897197 296.310096 371.162197 295.770096 
L 371.444697 295.770096 
L 370.849697 298.832596 
z
M 374.224697 296.425096 
Q 374.772197 296.425096 375.149697 296.810096 
Q 375.529697 297.192596 375.529697 297.730096 
Q 375.529697 298.270096 375.147197 298.650096 
Q 374.764697 299.027596 374.224697 299.027596 
Q 373.684697 299.027596 373.304697 298.650096 
Q 372.927197 298.270096 372.927197 297.730096 
Q 372.927197 297.192596 373.304697 296.810096 
Q 373.684697 296.425096 374.224697 296.425096 
z
M 379.059697 299.052596 
L 381.944697 290.310096 
L 379.747197 290.310096 
Q 378.459697 290.310096 377.809697 290.645096 
Q 377.357197 290.880096 377.059697 291.527596 
L 376.764697 291.527596 
L 377.529697 288.237596 
L 383.842197 288.237596 
L 380.287197 299.052596 
L 379.059697 299.052596 
z
" style="stroke: #ffffff; stroke-width: 3.8"/>
    <path d="M 361.434697 288.020096 
L 361.434697 296.685096 
Q 361.434697 297.660096 361.519697 297.930096 
Q 361.607197 298.200096 361.879697 298.372596 
Q 362.154697 298.542596 362.757197 298.542596 
L 362.997197 298.542596 
L 362.997197 298.832596 
L 357.419697 298.832596 
L 357.419697 298.542596 
L 357.702197 298.542596 
Q 358.382197 298.542596 358.669697 298.387596 
Q 358.959697 298.230096 359.059697 297.957596 
Q 359.162197 297.685096 359.162197 296.685096 
L 359.162197 291.192596 
Q 359.162197 290.457596 359.092197 290.275096 
Q 359.022197 290.090096 358.829697 289.962596 
Q 358.639697 289.832596 358.389697 289.832596 
Q 357.989697 289.832596 357.419697 290.082596 
L 357.279697 289.800096 
L 361.177197 288.020096 
L 361.434697 288.020096 
z
M 370.849697 298.832596 
L 364.614697 298.832596 
L 364.614697 298.660096 
Q 367.482197 295.247596 368.094697 294.067596 
Q 368.709697 292.887596 368.709697 291.762596 
Q 368.709697 290.942596 368.202197 290.400096 
Q 367.694697 289.855096 366.959697 289.855096 
Q 365.757197 289.855096 365.092197 291.060096 
L 364.802197 290.957596 
Q 365.224697 289.457596 366.084697 288.740096 
Q 366.944697 288.020096 368.069697 288.020096 
Q 368.872197 288.020096 369.537197 288.395096 
Q 370.202197 288.770096 370.577197 289.422596 
Q 370.952197 290.075096 370.952197 290.645096 
Q 370.952197 291.685096 370.372197 292.755096 
Q 369.584697 294.200096 366.927197 296.785096 
L 369.217197 296.785096 
Q 370.059697 296.785096 370.314697 296.715096 
Q 370.569697 296.645096 370.732197 296.477596 
Q 370.897197 296.310096 371.162197 295.770096 
L 371.444697 295.770096 
L 370.849697 298.832596 
z
M 374.224697 296.425096 
Q 374.772197 296.425096 375.149697 296.810096 
Q 375.529697 297.192596 375.529697 297.730096 
Q 375.529697 298.270096 375.147197 298.650096 
Q 374.764697 299.027596 374.224697 299.027596 
Q 373.684697 299.027596 373.304697 298.650096 
Q 372.927197 298.270096 372.927197 297.730096 
Q 372.927197 297.192596 373.304697 296.810096 
Q 373.684697 296.425096 374.224697 296.425096 
z
M 379.059697 299.052596 
L 381.944697 290.310096 
L 379.747197 290.310096 
Q 378.459697 290.310096 377.809697 290.645096 
Q 377.357197 290.880096 377.059697 291.527596 
L 376.764697 291.527596 
L 377.529697 288.237596 
L 383.842197 288.237596 
L 380.287197 299.052596 
L 379.059697 299.052596 
z
"/>
   </g>
   <g id="text_26">
    <path d="M 362.849697 212.724141 
L 356.614697 212.724141 
L 356.614697 212.551641 
Q 359.482197 209.139141 360.094697 207.959141 
Q 360.709697 206.779141 360.709697 205.654141 
Q 360.709697 204.834141 360.202197 204.291641 
Q 359.694697 203.746641 358.959697 203.746641 
Q 357.757197 203.746641 357.092197 204.951641 
L 356.802197 204.849141 
Q 357.224697 203.349141 358.084697 202.631641 
Q 358.944697 201.911641 360.069697 201.911641 
Q 360.872197 201.911641 361.537197 202.286641 
Q 362.202197 202.661641 362.577197 203.314141 
Q 362.952197 203.966641 362.952197 204.536641 
Q 362.952197 205.576641 362.372197 206.646641 
Q 361.584697 208.091641 358.927197 210.676641 
L 361.217197 210.676641 
Q 362.059697 210.676641 362.314697 210.606641 
Q 362.569697 210.536641 362.732197 210.369141 
Q 362.897197 210.201641 363.162197 209.661641 
L 363.444697 209.661641 
L 362.849697 212.724141 
z
M 364.622197 208.731641 
L 369.654697 201.911641 
L 370.607197 201.911641 
L 370.607197 208.731641 
L 371.577197 208.731641 
L 371.577197 210.349141 
L 370.607197 210.349141 
L 370.607197 212.724141 
L 368.459697 212.724141 
L 368.459697 210.349141 
L 364.622197 210.349141 
L 364.622197 208.731641 
z
M 365.382197 208.731641 
L 368.459697 208.731641 
L 368.459697 204.551641 
L 365.382197 208.731641 
z
M 374.224697 210.316641 
Q 374.772197 210.316641 375.149697 210.701641 
Q 375.529697 211.084141 375.529697 211.621641 
Q 375.529697 212.161641 375.147197 212.541641 
Q 374.764697 212.919141 374.224697 212.919141 
Q 373.684697 212.919141 373.304697 212.541641 
Q 372.927197 212.161641 372.927197 211.621641 
Q 372.927197 211.084141 373.304697 210.701641 
Q 373.684697 210.316641 374.224697 210.316641 
z
M 381.677197 206.739141 
Q 382.794697 207.559141 383.227197 208.266641 
Q 383.662197 208.974141 383.662197 209.889141 
Q 383.662197 211.169141 382.697197 212.056641 
Q 381.732197 212.944141 380.077197 212.944141 
Q 378.507197 212.944141 377.647197 212.171641 
Q 376.787197 211.396641 376.787197 210.279141 
Q 376.787197 209.426641 377.282197 208.786641 
Q 377.779697 208.146641 378.934697 207.614141 
Q 377.677197 206.654141 377.322197 206.044141 
Q 376.967197 205.434141 376.967197 204.629141 
Q 376.967197 203.566641 377.869697 202.759141 
Q 378.772197 201.951641 380.342197 201.951641 
Q 381.857197 201.951641 382.672197 202.666641 
Q 383.489697 203.379141 383.489697 204.379141 
Q 383.489697 205.129141 383.047197 205.704141 
Q 382.607197 206.279141 381.677197 206.739141 
z
M 381.084697 206.341641 
Q 381.372197 205.951641 381.512197 205.466641 
Q 381.654697 204.981641 381.654697 204.404141 
Q 381.654697 203.389141 381.217197 202.849141 
Q 380.889697 202.434141 380.309697 202.434141 
Q 379.787197 202.434141 379.419697 202.814141 
Q 379.052197 203.191641 379.052197 203.754141 
Q 379.052197 204.326641 379.462197 204.939141 
Q 379.872197 205.551641 381.084697 206.341641 
z
M 379.522197 207.989141 
Q 379.279697 208.209141 379.177197 208.389141 
Q 379.022197 208.661641 378.897197 209.186641 
Q 378.772197 209.709141 378.772197 210.279141 
Q 378.772197 211.014141 378.959697 211.509141 
Q 379.147197 212.004141 379.494697 212.224141 
Q 379.842197 212.441641 380.209697 212.441641 
Q 380.779697 212.441641 381.169697 212.024141 
Q 381.559697 211.606641 381.559697 210.879141 
Q 381.559697 209.364141 379.522197 207.989141 
z
" style="stroke: #ffffff; stroke-width: 3.8"/>
    <path d="M 362.849697 212.724141 
L 356.614697 212.724141 
L 356.614697 212.551641 
Q 359.482197 209.139141 360.094697 207.959141 
Q 360.709697 206.779141 360.709697 205.654141 
Q 360.709697 204.834141 360.202197 204.291641 
Q 359.694697 203.746641 358.959697 203.746641 
Q 357.757197 203.746641 357.092197 204.951641 
L 356.802197 204.849141 
Q 357.224697 203.349141 358.084697 202.631641 
Q 358.944697 201.911641 360.069697 201.911641 
Q 360.872197 201.911641 361.537197 202.286641 
Q 362.202197 202.661641 362.577197 203.314141 
Q 362.952197 203.966641 362.952197 204.536641 
Q 362.952197 205.576641 362.372197 206.646641 
Q 361.584697 208.091641 358.927197 210.676641 
L 361.217197 210.676641 
Q 362.059697 210.676641 362.314697 210.606641 
Q 362.569697 210.536641 362.732197 210.369141 
Q 362.897197 210.201641 363.162197 209.661641 
L 363.444697 209.661641 
L 362.849697 212.724141 
z
M 364.622197 208.731641 
L 369.654697 201.911641 
L 370.607197 201.911641 
L 370.607197 208.731641 
L 371.577197 208.731641 
L 371.577197 210.349141 
L 370.607197 210.349141 
L 370.607197 212.724141 
L 368.459697 212.724141 
L 368.459697 210.349141 
L 364.622197 210.349141 
L 364.622197 208.731641 
z
M 365.382197 208.731641 
L 368.459697 208.731641 
L 368.459697 204.551641 
L 365.382197 208.731641 
z
M 374.224697 210.316641 
Q 374.772197 210.316641 375.149697 210.701641 
Q 375.529697 211.084141 375.529697 211.621641 
Q 375.529697 212.161641 375.147197 212.541641 
Q 374.764697 212.919141 374.224697 212.919141 
Q 373.684697 212.919141 373.304697 212.541641 
Q 372.927197 212.161641 372.927197 211.621641 
Q 372.927197 211.084141 373.304697 210.701641 
Q 373.684697 210.316641 374.224697 210.316641 
z
M 381.677197 206.739141 
Q 382.794697 207.559141 383.227197 208.266641 
Q 383.662197 208.974141 383.662197 209.889141 
Q 383.662197 211.169141 382.697197 212.056641 
Q 381.732197 212.944141 380.077197 212.944141 
Q 378.507197 212.944141 377.647197 212.171641 
Q 376.787197 211.396641 376.787197 210.279141 
Q 376.787197 209.426641 377.282197 208.786641 
Q 377.779697 208.146641 378.934697 207.614141 
Q 377.677197 206.654141 377.322197 206.044141 
Q 376.967197 205.434141 376.967197 204.629141 
Q 376.967197 203.566641 377.869697 202.759141 
Q 378.772197 201.951641 380.342197 201.951641 
Q 381.857197 201.951641 382.672197 202.666641 
Q 383.489697 203.379141 383.489697 204.379141 
Q 383.489697 205.129141 383.047197 205.704141 
Q 382.607197 206.279141 381.677197 206.739141 
z
M 381.084697 206.341641 
Q 381.372197 205.951641 381.512197 205.466641 
Q 381.654697 204.981641 381.654697 204.404141 
Q 381.654697 203.389141 381.217197 202.849141 
Q 380.889697 202.434141 380.309697 202.434141 
Q 379.787197 202.434141 379.419697 202.814141 
Q 379.052197 203.191641 379.052197 203.754141 
Q 379.052197 204.326641 379.462197 204.939141 
Q 379.872197 205.551641 381.084697 206.341641 
z
M 379.522197 207.989141 
Q 379.279697 208.209141 379.177197 208.389141 
Q 379.022197 208.661641 378.897197 209.186641 
Q 378.772197 209.709141 378.772197 210.279141 
Q 378.772197 211.014141 378.959697 211.509141 
Q 379.147197 212.004141 379.494697 212.224141 
Q 379.842197 212.441641 380.209697 212.441641 
Q 380.779697 212.441641 381.169697 212.024141 
Q 381.559697 211.606641 381.559697 210.879141 
Q 381.559697 209.364141 379.522197 207.989141 
z
"/>
   </g>
   <g id="text_27">
    <path d="M 358.592197 117.565078 
L 358.592197 117.292578 
Q 359.482197 117.032578 359.824697 116.810078 
Q 360.169697 116.587578 360.419697 116.132578 
Q 360.669697 115.675078 360.669697 115.205078 
Q 360.669697 114.557578 360.197197 114.092578 
Q 359.724697 113.627578 359.022197 113.627578 
Q 357.927197 113.627578 357.162197 114.782578 
L 356.872197 114.682578 
Q 357.434697 113.377578 358.314697 112.722578 
Q 359.194697 112.065078 360.272197 112.065078 
Q 361.372197 112.065078 362.087197 112.737578 
Q 362.802197 113.407578 362.802197 114.307578 
Q 362.802197 114.892578 362.469697 115.437578 
Q 362.139697 115.980078 361.427197 116.392578 
Q 362.342197 116.837578 362.822197 117.490078 
Q 363.302197 118.142578 363.302197 119.127578 
Q 363.302197 120.782578 362.102197 121.945078 
Q 360.904697 123.105078 358.889697 123.105078 
Q 357.544697 123.105078 356.927197 122.657578 
Q 356.482197 122.345078 356.482197 121.855078 
Q 356.482197 121.495078 356.739697 121.242578 
Q 356.997197 120.987578 357.334697 120.987578 
Q 357.592197 120.987578 357.819697 121.095078 
Q 357.944697 121.157578 358.704697 121.780078 
Q 359.467197 122.400078 360.132197 122.400078 
Q 360.709697 122.400078 361.122197 121.945078 
Q 361.537197 121.487578 361.537197 120.782578 
Q 361.537197 119.712578 360.787197 118.810078 
Q 360.037197 117.907578 358.592197 117.565078 
z
M 371.739697 112.065078 
L 371.739697 112.282578 
Q 370.327197 112.642578 369.469697 113.210078 
Q 368.614697 113.775078 368.117197 114.585078 
Q 367.622197 115.392578 367.349697 116.587578 
Q 367.694697 116.355078 367.919697 116.282578 
Q 368.427197 116.127578 368.944697 116.127578 
Q 370.132197 116.127578 370.924697 116.992578 
Q 371.717197 117.855078 371.717197 119.345078 
Q 371.717197 120.392578 371.287197 121.267578 
Q 370.857197 122.142578 370.067197 122.620078 
Q 369.279697 123.097578 368.382197 123.097578 
Q 367.404697 123.097578 366.574697 122.562578 
Q 365.747197 122.025078 365.282197 120.995078 
Q 364.819697 119.962578 364.819697 118.752578 
Q 364.819697 116.970078 365.674697 115.435078 
Q 366.529697 113.900078 368.102197 112.990078 
Q 369.677197 112.080078 371.739697 112.065078 
z
M 367.247197 117.220078 
Q 367.184697 118.300078 367.184697 118.800078 
Q 367.184697 119.877578 367.392197 120.885078 
Q 367.599697 121.892578 367.959697 122.300078 
Q 368.217197 122.587578 368.569697 122.587578 
Q 368.927197 122.587578 369.207197 122.170078 
Q 369.489697 121.752578 369.489697 120.470078 
Q 369.489697 118.315078 368.967197 117.495078 
Q 368.632197 116.962578 368.059697 116.962578 
Q 367.747197 116.962578 367.247197 117.220078 
z
M 374.224697 120.470078 
Q 374.772197 120.470078 375.149697 120.855078 
Q 375.529697 121.237578 375.529697 121.775078 
Q 375.529697 122.315078 375.147197 122.695078 
Q 374.764697 123.072578 374.224697 123.072578 
Q 373.684697 123.072578 373.304697 122.695078 
Q 372.927197 122.315078 372.927197 121.775078 
Q 372.927197 121.237578 373.304697 120.855078 
Q 373.684697 120.470078 374.224697 120.470078 
z
M 378.662197 112.282578 
L 383.622197 112.282578 
L 382.834697 114.300078 
L 378.662197 114.300078 
L 378.264697 115.355078 
Q 380.959697 115.455078 382.412197 116.697578 
Q 383.607197 117.720078 383.607197 119.245078 
Q 383.607197 120.220078 383.052197 121.155078 
Q 382.497197 122.087578 381.489697 122.592578 
Q 380.482197 123.097578 379.279697 123.097578 
Q 377.982197 123.097578 377.287197 122.612578 
Q 376.802197 122.267578 376.802197 121.830078 
Q 376.802197 121.495078 377.054697 121.237578 
Q 377.309697 120.980078 377.647197 120.980078 
Q 377.952197 120.980078 378.264697 121.105078 
Q 378.577197 121.230078 379.334697 121.760078 
Q 379.809697 122.087578 380.154697 122.212578 
Q 380.397197 122.307578 380.702197 122.307578 
Q 381.342197 122.307578 381.789697 121.840078 
Q 382.239697 121.370078 382.239697 120.712578 
Q 382.239697 119.337578 380.864697 118.480078 
Q 379.489697 117.620078 377.397197 117.620078 
Q 377.184697 117.620078 376.764697 117.627578 
L 378.662197 112.282578 
z
" style="stroke: #ffffff; stroke-width: 3.8"/>
    <path d="M 358.592197 117.565078 
L 358.592197 117.292578 
Q 359.482197 117.032578 359.824697 116.810078 
Q 360.169697 116.587578 360.419697 116.132578 
Q 360.669697 115.675078 360.669697 115.205078 
Q 360.669697 114.557578 360.197197 114.092578 
Q 359.724697 113.627578 359.022197 113.627578 
Q 357.927197 113.627578 357.162197 114.782578 
L 356.872197 114.682578 
Q 357.434697 113.377578 358.314697 112.722578 
Q 359.194697 112.065078 360.272197 112.065078 
Q 361.372197 112.065078 362.087197 112.737578 
Q 362.802197 113.407578 362.802197 114.307578 
Q 362.802197 114.892578 362.469697 115.437578 
Q 362.139697 115.980078 361.427197 116.392578 
Q 362.342197 116.837578 362.822197 117.490078 
Q 363.302197 118.142578 363.302197 119.127578 
Q 363.302197 120.782578 362.102197 121.945078 
Q 360.904697 123.105078 358.889697 123.105078 
Q 357.544697 123.105078 356.927197 122.657578 
Q 356.482197 122.345078 356.482197 121.855078 
Q 356.482197 121.495078 356.739697 121.242578 
Q 356.997197 120.987578 357.334697 120.987578 
Q 357.592197 120.987578 357.819697 121.095078 
Q 357.944697 121.157578 358.704697 121.780078 
Q 359.467197 122.400078 360.132197 122.400078 
Q 360.709697 122.400078 361.122197 121.945078 
Q 361.537197 121.487578 361.537197 120.782578 
Q 361.537197 119.712578 360.787197 118.810078 
Q 360.037197 117.907578 358.592197 117.565078 
z
M 371.739697 112.065078 
L 371.739697 112.282578 
Q 370.327197 112.642578 369.469697 113.210078 
Q 368.614697 113.775078 368.117197 114.585078 
Q 367.622197 115.392578 367.349697 116.587578 
Q 367.694697 116.355078 367.919697 116.282578 
Q 368.427197 116.127578 368.944697 116.127578 
Q 370.132197 116.127578 370.924697 116.992578 
Q 371.717197 117.855078 371.717197 119.345078 
Q 371.717197 120.392578 371.287197 121.267578 
Q 370.857197 122.142578 370.067197 122.620078 
Q 369.279697 123.097578 368.382197 123.097578 
Q 367.404697 123.097578 366.574697 122.562578 
Q 365.747197 122.025078 365.282197 120.995078 
Q 364.819697 119.962578 364.819697 118.752578 
Q 364.819697 116.970078 365.674697 115.435078 
Q 366.529697 113.900078 368.102197 112.990078 
Q 369.677197 112.080078 371.739697 112.065078 
z
M 367.247197 117.220078 
Q 367.184697 118.300078 367.184697 118.800078 
Q 367.184697 119.877578 367.392197 120.885078 
Q 367.599697 121.892578 367.959697 122.300078 
Q 368.217197 122.587578 368.569697 122.587578 
Q 368.927197 122.587578 369.207197 122.170078 
Q 369.489697 121.752578 369.489697 120.470078 
Q 369.489697 118.315078 368.967197 117.495078 
Q 368.632197 116.962578 368.059697 116.962578 
Q 367.747197 116.962578 367.247197 117.220078 
z
M 374.224697 120.470078 
Q 374.772197 120.470078 375.149697 120.855078 
Q 375.529697 121.237578 375.529697 121.775078 
Q 375.529697 122.315078 375.147197 122.695078 
Q 374.764697 123.072578 374.224697 123.072578 
Q 373.684697 123.072578 373.304697 122.695078 
Q 372.927197 122.315078 372.927197 121.775078 
Q 372.927197 121.237578 373.304697 120.855078 
Q 373.684697 120.470078 374.224697 120.470078 
z
M 378.662197 112.282578 
L 383.622197 112.282578 
L 382.834697 114.300078 
L 378.662197 114.300078 
L 378.264697 115.355078 
Q 380.959697 115.455078 382.412197 116.697578 
Q 383.607197 117.720078 383.607197 119.245078 
Q 383.607197 120.220078 383.052197 121.155078 
Q 382.497197 122.087578 381.489697 122.592578 
Q 380.482197 123.097578 379.279697 123.097578 
Q 377.982197 123.097578 377.287197 122.612578 
Q 376.802197 122.267578 376.802197 121.830078 
Q 376.802197 121.495078 377.054697 121.237578 
Q 377.309697 120.980078 377.647197 120.980078 
Q 377.952197 120.980078 378.264697 121.105078 
Q 378.577197 121.230078 379.334697 121.760078 
Q 379.809697 122.087578 380.154697 122.212578 
Q 380.397197 122.307578 380.702197 122.307578 
Q 381.342197 122.307578 381.789697 121.840078 
Q 382.239697 121.370078 382.239697 120.712578 
Q 382.239697 119.337578 380.864697 118.480078 
Q 379.489697 117.620078 377.397197 117.620078 
Q 377.184697 117.620078 376.764697 117.627578 
L 378.662197 112.282578 
z
"/>
   </g>
   <g id="text_28">
    <path d="M 577.363672 240.699451 
L 577.363672 249.364451 
Q 577.363672 250.339451 577.448672 250.609451 
Q 577.536172 250.879451 577.808672 251.051951 
Q 578.083672 251.221951 578.686172 251.221951 
L 578.926172 251.221951 
L 578.926172 251.511951 
L 573.348672 251.511951 
L 573.348672 251.221951 
L 573.631172 251.221951 
Q 574.311172 251.221951 574.598672 251.066951 
Q 574.888672 250.909451 574.988672 250.636951 
Q 575.091172 250.364451 575.091172 249.364451 
L 575.091172 243.871951 
Q 575.091172 243.136951 575.021172 242.954451 
Q 574.951172 242.769451 574.758672 242.641951 
Q 574.568672 242.511951 574.318672 242.511951 
Q 573.918672 242.511951 573.348672 242.761951 
L 573.208672 242.479451 
L 577.106172 240.699451 
L 577.363672 240.699451 
z
M 580.646172 251.731951 
L 580.646172 251.511951 
Q 581.943672 251.214451 582.846172 250.636951 
Q 583.748672 250.059451 584.273672 249.206951 
Q 584.801172 248.354451 585.013672 247.246951 
Q 584.528672 247.496951 584.188672 247.594451 
Q 583.848672 247.691951 583.473672 247.691951 
Q 582.271172 247.691951 581.468672 246.824451 
Q 580.668672 245.956951 580.668672 244.449451 
Q 580.668672 243.401951 581.101172 242.531951 
Q 581.536172 241.659451 582.341172 241.179451 
Q 583.146172 240.699451 584.013672 240.699451 
Q 584.943672 240.699451 585.771172 241.231951 
Q 586.598672 241.761951 587.091172 242.769451 
Q 587.583672 243.776951 587.583672 245.066951 
Q 587.583672 246.739451 586.781172 248.271951 
Q 585.981172 249.801951 584.396172 250.726951 
Q 582.811172 251.651951 580.646172 251.731951 
z
M 585.131172 246.589451 
Q 585.208672 245.714451 585.208672 245.051951 
Q 585.208672 243.629451 584.881172 242.401951 
Q 584.693672 241.721951 584.326172 241.401951 
Q 584.131172 241.229451 583.818672 241.229451 
Q 583.426172 241.229451 583.208672 241.566951 
Q 582.903672 242.026951 582.903672 243.324451 
Q 582.903672 245.489451 583.418672 246.309451 
Q 583.756172 246.839451 584.326172 246.839451 
Q 584.631172 246.839451 585.131172 246.589451 
z
M 590.153672 249.104451 
Q 590.701172 249.104451 591.078672 249.489451 
Q 591.458672 249.871951 591.458672 250.409451 
Q 591.458672 250.949451 591.076172 251.329451 
Q 590.693672 251.706951 590.153672 251.706951 
Q 589.613672 251.706951 589.233672 251.329451 
Q 588.856172 250.949451 588.856172 250.409451 
Q 588.856172 249.871951 589.233672 249.489451 
Q 589.613672 249.104451 590.153672 249.104451 
z
M 599.568672 246.214451 
Q 599.568672 247.801951 599.123672 249.176951 
Q 598.856172 250.019451 598.406172 250.559451 
Q 597.958672 251.096951 597.388672 251.414451 
Q 596.818672 251.731951 596.146172 251.731951 
Q 595.381172 251.731951 594.763672 251.341951 
Q 594.146172 250.949451 593.668672 250.221951 
Q 593.326172 249.691951 593.068672 248.809451 
Q 592.731172 247.614451 592.731172 246.339451 
Q 592.731172 244.614451 593.216172 243.166951 
Q 593.613672 241.971951 594.426172 241.336951 
Q 595.238672 240.699451 596.146172 240.699451 
Q 597.068672 240.699451 597.868672 241.329451 
Q 598.668672 241.956951 599.043672 243.019451 
Q 599.568672 244.479451 599.568672 246.214451 
z
M 597.161172 246.199451 
Q 597.161172 243.416951 597.131172 242.956951 
Q 597.051172 241.871951 596.756172 241.489451 
Q 596.561172 241.239451 596.123672 241.239451 
Q 595.786172 241.239451 595.591172 241.426951 
Q 595.301172 241.699451 595.198672 242.391951 
Q 595.098672 243.081951 595.098672 247.214451 
Q 595.098672 249.464451 595.256172 250.229451 
Q 595.373672 250.784451 595.591172 250.971951 
Q 595.811172 251.159451 596.168672 251.159451 
Q 596.561172 251.159451 596.756172 250.909451 
Q 597.083672 250.471951 597.131172 249.559451 
L 597.161172 246.199451 
z
" style="stroke: #ffffff; stroke-width: 3.8"/>
    <path d="M 577.363672 240.699451 
L 577.363672 249.364451 
Q 577.363672 250.339451 577.448672 250.609451 
Q 577.536172 250.879451 577.808672 251.051951 
Q 578.083672 251.221951 578.686172 251.221951 
L 578.926172 251.221951 
L 578.926172 251.511951 
L 573.348672 251.511951 
L 573.348672 251.221951 
L 573.631172 251.221951 
Q 574.311172 251.221951 574.598672 251.066951 
Q 574.888672 250.909451 574.988672 250.636951 
Q 575.091172 250.364451 575.091172 249.364451 
L 575.091172 243.871951 
Q 575.091172 243.136951 575.021172 242.954451 
Q 574.951172 242.769451 574.758672 242.641951 
Q 574.568672 242.511951 574.318672 242.511951 
Q 573.918672 242.511951 573.348672 242.761951 
L 573.208672 242.479451 
L 577.106172 240.699451 
L 577.363672 240.699451 
z
M 580.646172 251.731951 
L 580.646172 251.511951 
Q 581.943672 251.214451 582.846172 250.636951 
Q 583.748672 250.059451 584.273672 249.206951 
Q 584.801172 248.354451 585.013672 247.246951 
Q 584.528672 247.496951 584.188672 247.594451 
Q 583.848672 247.691951 583.473672 247.691951 
Q 582.271172 247.691951 581.468672 246.824451 
Q 580.668672 245.956951 580.668672 244.449451 
Q 580.668672 243.401951 581.101172 242.531951 
Q 581.536172 241.659451 582.341172 241.179451 
Q 583.146172 240.699451 584.013672 240.699451 
Q 584.943672 240.699451 585.771172 241.231951 
Q 586.598672 241.761951 587.091172 242.769451 
Q 587.583672 243.776951 587.583672 245.066951 
Q 587.583672 246.739451 586.781172 248.271951 
Q 585.981172 249.801951 584.396172 250.726951 
Q 582.811172 251.651951 580.646172 251.731951 
z
M 585.131172 246.589451 
Q 585.208672 245.714451 585.208672 245.051951 
Q 585.208672 243.629451 584.881172 242.401951 
Q 584.693672 241.721951 584.326172 241.401951 
Q 584.131172 241.229451 583.818672 241.229451 
Q 583.426172 241.229451 583.208672 241.566951 
Q 582.903672 242.026951 582.903672 243.324451 
Q 582.903672 245.489451 583.418672 246.309451 
Q 583.756172 246.839451 584.326172 246.839451 
Q 584.631172 246.839451 585.131172 246.589451 
z
M 590.153672 249.104451 
Q 590.701172 249.104451 591.078672 249.489451 
Q 591.458672 249.871951 591.458672 250.409451 
Q 591.458672 250.949451 591.076172 251.329451 
Q 590.693672 251.706951 590.153672 251.706951 
Q 589.613672 251.706951 589.233672 251.329451 
Q 588.856172 250.949451 588.856172 250.409451 
Q 588.856172 249.871951 589.233672 249.489451 
Q 589.613672 249.104451 590.153672 249.104451 
z
M 599.568672 246.214451 
Q 599.568672 247.801951 599.123672 249.176951 
Q 598.856172 250.019451 598.406172 250.559451 
Q 597.958672 251.096951 597.388672 251.414451 
Q 596.818672 251.731951 596.146172 251.731951 
Q 595.381172 251.731951 594.763672 251.341951 
Q 594.146172 250.949451 593.668672 250.221951 
Q 593.326172 249.691951 593.068672 248.809451 
Q 592.731172 247.614451 592.731172 246.339451 
Q 592.731172 244.614451 593.216172 243.166951 
Q 593.613672 241.971951 594.426172 241.336951 
Q 595.238672 240.699451 596.146172 240.699451 
Q 597.068672 240.699451 597.868672 241.329451 
Q 598.668672 241.956951 599.043672 243.019451 
Q 599.568672 244.479451 599.568672 246.214451 
z
M 597.161172 246.199451 
Q 597.161172 243.416951 597.131172 242.956951 
Q 597.051172 241.871951 596.756172 241.489451 
Q 596.561172 241.239451 596.123672 241.239451 
Q 595.786172 241.239451 595.591172 241.426951 
Q 595.301172 241.699451 595.198672 242.391951 
Q 595.098672 243.081951 595.098672 247.214451 
Q 595.098672 249.464451 595.256172 250.229451 
Q 595.373672 250.784451 595.591172 250.971951 
Q 595.811172 251.159451 596.168672 251.159451 
Q 596.561172 251.159451 596.756172 250.909451 
Q 597.083672 250.471951 597.131172 249.559451 
L 597.161172 246.199451 
z
"/>
   </g>
   <g id="text_29">
    <path d="M 577.572619 391.167019 
Q 577.572619 392.655301 577.155432 393.944363 
Q 576.904651 394.734207 576.482776 395.240457 
Q 576.063244 395.744363 575.528869 396.042019 
Q 574.994494 396.339676 574.364026 396.339676 
Q 573.646838 396.339676 573.067932 395.974051 
Q 572.489026 395.606082 572.041369 394.924051 
Q 571.720276 394.427176 571.478869 393.599832 
Q 571.162463 392.479519 571.162463 391.284207 
Q 571.162463 389.667019 571.617151 388.309988 
Q 571.989807 387.189676 572.751526 386.594363 
Q 573.513244 385.996707 574.364026 385.996707 
Q 575.228869 385.996707 575.978869 386.587332 
Q 576.728869 387.175613 577.080432 388.171707 
Q 577.572619 389.540457 577.572619 391.167019 
z
M 575.315588 391.152957 
Q 575.315588 388.544363 575.287463 388.113113 
Q 575.212463 387.095926 574.935901 386.737332 
Q 574.753088 386.502957 574.342932 386.502957 
Q 574.026526 386.502957 573.843713 386.678738 
Q 573.571838 386.934207 573.475744 387.583426 
Q 573.381994 388.230301 573.381994 392.104519 
Q 573.381994 394.213894 573.529651 394.931082 
Q 573.639807 395.451394 573.843713 395.627176 
Q 574.049963 395.802957 574.385119 395.802957 
Q 574.753088 395.802957 574.935901 395.568582 
Q 575.242932 395.158426 575.287463 394.302957 
L 575.315588 391.152957 
z
M 579.996057 393.876394 
Q 580.509338 393.876394 580.863244 394.237332 
Q 581.219494 394.595926 581.219494 395.099832 
Q 581.219494 395.606082 580.860901 395.962332 
Q 580.502307 396.316238 579.996057 396.316238 
Q 579.489807 396.316238 579.133557 395.962332 
Q 578.779651 395.606082 578.779651 395.099832 
Q 578.779651 394.595926 579.133557 394.237332 
Q 579.489807 393.876394 579.996057 393.876394 
z
M 588.822619 391.167019 
Q 588.822619 392.655301 588.405432 393.944363 
Q 588.154651 394.734207 587.732776 395.240457 
Q 587.313244 395.744363 586.778869 396.042019 
Q 586.244494 396.339676 585.614026 396.339676 
Q 584.896838 396.339676 584.317932 395.974051 
Q 583.739026 395.606082 583.291369 394.924051 
Q 582.970276 394.427176 582.728869 393.599832 
Q 582.412463 392.479519 582.412463 391.284207 
Q 582.412463 389.667019 582.867151 388.309988 
Q 583.239807 387.189676 584.001526 386.594363 
Q 584.763244 385.996707 585.614026 385.996707 
Q 586.478869 385.996707 587.228869 386.587332 
Q 587.978869 387.175613 588.330432 388.171707 
Q 588.822619 389.540457 588.822619 391.167019 
z
M 586.565588 391.152957 
Q 586.565588 388.544363 586.537463 388.113113 
Q 586.462463 387.095926 586.185901 386.737332 
Q 586.003088 386.502957 585.592932 386.502957 
Q 585.276526 386.502957 585.093713 386.678738 
Q 584.821838 386.934207 584.725744 387.583426 
Q 584.631994 388.230301 584.631994 392.104519 
Q 584.631994 394.213894 584.779651 394.931082 
Q 584.889807 395.451394 585.093713 395.627176 
Q 585.299963 395.802957 585.635119 395.802957 
Q 586.003088 395.802957 586.185901 395.568582 
Q 586.492932 395.158426 586.537463 394.302957 
L 586.565588 391.152957 
z
" style="fill: #404040; stroke: #ffffff; stroke-width: 3.8"/>
    <path d="M 577.572619 391.167019 
Q 577.572619 392.655301 577.155432 393.944363 
Q 576.904651 394.734207 576.482776 395.240457 
Q 576.063244 395.744363 575.528869 396.042019 
Q 574.994494 396.339676 574.364026 396.339676 
Q 573.646838 396.339676 573.067932 395.974051 
Q 572.489026 395.606082 572.041369 394.924051 
Q 571.720276 394.427176 571.478869 393.599832 
Q 571.162463 392.479519 571.162463 391.284207 
Q 571.162463 389.667019 571.617151 388.309988 
Q 571.989807 387.189676 572.751526 386.594363 
Q 573.513244 385.996707 574.364026 385.996707 
Q 575.228869 385.996707 575.978869 386.587332 
Q 576.728869 387.175613 577.080432 388.171707 
Q 577.572619 389.540457 577.572619 391.167019 
z
M 575.315588 391.152957 
Q 575.315588 388.544363 575.287463 388.113113 
Q 575.212463 387.095926 574.935901 386.737332 
Q 574.753088 386.502957 574.342932 386.502957 
Q 574.026526 386.502957 573.843713 386.678738 
Q 573.571838 386.934207 573.475744 387.583426 
Q 573.381994 388.230301 573.381994 392.104519 
Q 573.381994 394.213894 573.529651 394.931082 
Q 573.639807 395.451394 573.843713 395.627176 
Q 574.049963 395.802957 574.385119 395.802957 
Q 574.753088 395.802957 574.935901 395.568582 
Q 575.242932 395.158426 575.287463 394.302957 
L 575.315588 391.152957 
z
M 579.996057 393.876394 
Q 580.509338 393.876394 580.863244 394.237332 
Q 581.219494 394.595926 581.219494 395.099832 
Q 581.219494 395.606082 580.860901 395.962332 
Q 580.502307 396.316238 579.996057 396.316238 
Q 579.489807 396.316238 579.133557 395.962332 
Q 578.779651 395.606082 578.779651 395.099832 
Q 578.779651 394.595926 579.133557 394.237332 
Q 579.489807 393.876394 579.996057 393.876394 
z
M 588.822619 391.167019 
Q 588.822619 392.655301 588.405432 393.944363 
Q 588.154651 394.734207 587.732776 395.240457 
Q 587.313244 395.744363 586.778869 396.042019 
Q 586.244494 396.339676 585.614026 396.339676 
Q 584.896838 396.339676 584.317932 395.974051 
Q 583.739026 395.606082 583.291369 394.924051 
Q 582.970276 394.427176 582.728869 393.599832 
Q 582.412463 392.479519 582.412463 391.284207 
Q 582.412463 389.667019 582.867151 388.309988 
Q 583.239807 387.189676 584.001526 386.594363 
Q 584.763244 385.996707 585.614026 385.996707 
Q 586.478869 385.996707 587.228869 386.587332 
Q 587.978869 387.175613 588.330432 388.171707 
Q 588.822619 389.540457 588.822619 391.167019 
z
M 586.565588 391.152957 
Q 586.565588 388.544363 586.537463 388.113113 
Q 586.462463 387.095926 586.185901 386.737332 
Q 586.003088 386.502957 585.592932 386.502957 
Q 585.276526 386.502957 585.093713 386.678738 
Q 584.821838 386.934207 584.725744 387.583426 
Q 584.631994 388.230301 584.631994 392.104519 
Q 584.631994 394.213894 584.779651 394.931082 
Q 584.889807 395.451394 585.093713 395.627176 
Q 585.299963 395.802957 585.635119 395.802957 
Q 586.003088 395.802957 586.185901 395.568582 
Q 586.492932 395.158426 586.537463 394.302957 
L 586.565588 391.152957 
z
" style="fill: #404040"/>
   </g>
   <g id="text_30">
    <path d="M 567.635205 342.885303 
L 567.635205 351.00874 
Q 567.635205 351.922803 567.714893 352.175928 
Q 567.796924 352.429053 568.052393 352.590772 
Q 568.310205 352.750147 568.875049 352.750147 
L 569.100049 352.750147 
L 569.100049 353.022022 
L 563.871143 353.022022 
L 563.871143 352.750147 
L 564.135986 352.750147 
Q 564.773486 352.750147 565.043018 352.604834 
Q 565.314893 352.457178 565.408643 352.201709 
Q 565.504736 351.94624 565.504736 351.00874 
L 565.504736 345.859522 
Q 565.504736 345.170459 565.439111 344.999365 
Q 565.373486 344.825928 565.193018 344.706397 
Q 565.014893 344.584522 564.780518 344.584522 
Q 564.405518 344.584522 563.871143 344.818897 
L 563.739893 344.554053 
L 567.393799 342.885303 
L 567.635205 342.885303 
z
M 572.908643 353.228272 
L 575.61333 345.032178 
L 573.553174 345.032178 
Q 572.346143 345.032178 571.736768 345.34624 
Q 571.312549 345.566553 571.033643 346.173584 
L 570.75708 346.173584 
L 571.474268 343.089209 
L 577.392236 343.089209 
L 574.059424 353.228272 
L 572.908643 353.228272 
z
M 579.62583 350.76499 
Q 580.139111 350.76499 580.493018 351.125928 
Q 580.849268 351.484522 580.849268 351.988428 
Q 580.849268 352.494678 580.490674 352.850928 
Q 580.13208 353.204834 579.62583 353.204834 
Q 579.11958 353.204834 578.76333 352.850928 
Q 578.409424 352.494678 578.409424 351.988428 
Q 578.409424 351.484522 578.76333 351.125928 
Q 579.11958 350.76499 579.62583 350.76499 
z
M 587.711768 353.022022 
L 581.866455 353.022022 
L 581.866455 352.860303 
Q 584.554736 349.661084 585.128955 348.554834 
Q 585.705518 347.448584 585.705518 346.393897 
Q 585.705518 345.625147 585.229736 345.116553 
Q 584.753955 344.605615 584.064893 344.605615 
Q 582.937549 344.605615 582.314111 345.735303 
L 582.042236 345.639209 
Q 582.43833 344.232959 583.24458 343.560303 
Q 584.05083 342.885303 585.105518 342.885303 
Q 585.857861 342.885303 586.481299 343.236865 
Q 587.104736 343.588428 587.456299 344.200147 
Q 587.807861 344.811865 587.807861 345.34624 
Q 587.807861 346.32124 587.264111 347.324365 
Q 586.52583 348.679053 584.034424 351.10249 
L 586.181299 351.10249 
Q 586.971143 351.10249 587.210205 351.036865 
Q 587.449268 350.97124 587.601611 350.814209 
Q 587.756299 350.657178 588.004736 350.150928 
L 588.26958 350.150928 
L 587.711768 353.022022 
z
" style="fill: #404040; stroke: #ffffff; stroke-width: 3.8"/>
    <path d="M 567.635205 342.885303 
L 567.635205 351.00874 
Q 567.635205 351.922803 567.714893 352.175928 
Q 567.796924 352.429053 568.052393 352.590772 
Q 568.310205 352.750147 568.875049 352.750147 
L 569.100049 352.750147 
L 569.100049 353.022022 
L 563.871143 353.022022 
L 563.871143 352.750147 
L 564.135986 352.750147 
Q 564.773486 352.750147 565.043018 352.604834 
Q 565.314893 352.457178 565.408643 352.201709 
Q 565.504736 351.94624 565.504736 351.00874 
L 565.504736 345.859522 
Q 565.504736 345.170459 565.439111 344.999365 
Q 565.373486 344.825928 565.193018 344.706397 
Q 565.014893 344.584522 564.780518 344.584522 
Q 564.405518 344.584522 563.871143 344.818897 
L 563.739893 344.554053 
L 567.393799 342.885303 
L 567.635205 342.885303 
z
M 572.908643 353.228272 
L 575.61333 345.032178 
L 573.553174 345.032178 
Q 572.346143 345.032178 571.736768 345.34624 
Q 571.312549 345.566553 571.033643 346.173584 
L 570.75708 346.173584 
L 571.474268 343.089209 
L 577.392236 343.089209 
L 574.059424 353.228272 
L 572.908643 353.228272 
z
M 579.62583 350.76499 
Q 580.139111 350.76499 580.493018 351.125928 
Q 580.849268 351.484522 580.849268 351.988428 
Q 580.849268 352.494678 580.490674 352.850928 
Q 580.13208 353.204834 579.62583 353.204834 
Q 579.11958 353.204834 578.76333 352.850928 
Q 578.409424 352.494678 578.409424 351.988428 
Q 578.409424 351.484522 578.76333 351.125928 
Q 579.11958 350.76499 579.62583 350.76499 
z
M 587.711768 353.022022 
L 581.866455 353.022022 
L 581.866455 352.860303 
Q 584.554736 349.661084 585.128955 348.554834 
Q 585.705518 347.448584 585.705518 346.393897 
Q 585.705518 345.625147 585.229736 345.116553 
Q 584.753955 344.605615 584.064893 344.605615 
Q 582.937549 344.605615 582.314111 345.735303 
L 582.042236 345.639209 
Q 582.43833 344.232959 583.24458 343.560303 
Q 584.05083 342.885303 585.105518 342.885303 
Q 585.857861 342.885303 586.481299 343.236865 
Q 587.104736 343.588428 587.456299 344.200147 
Q 587.807861 344.811865 587.807861 345.34624 
Q 587.807861 346.32124 587.264111 347.324365 
Q 586.52583 348.679053 584.034424 351.10249 
L 586.181299 351.10249 
Q 586.971143 351.10249 587.210205 351.036865 
Q 587.449268 350.97124 587.601611 350.814209 
Q 587.756299 350.657178 588.004736 350.150928 
L 588.26958 350.150928 
L 587.711768 353.022022 
z
" style="fill: #404040"/>
   </g>
   <g id="text_31">
    <path d="M 534.988443 308.922948 
L 534.988443 317.046385 
Q 534.988443 317.960448 535.068131 318.213573 
Q 535.150162 318.466698 535.405631 318.628417 
Q 535.663443 318.787792 536.228287 318.787792 
L 536.453287 318.787792 
L 536.453287 319.059667 
L 531.224381 319.059667 
L 531.224381 318.787792 
L 531.489225 318.787792 
Q 532.126725 318.787792 532.396256 318.642479 
Q 532.668131 318.494823 532.761881 318.239354 
Q 532.857975 317.983885 532.857975 317.046385 
L 532.857975 311.897167 
Q 532.857975 311.208104 532.79235 311.03701 
Q 532.726725 310.863573 532.546256 310.744042 
Q 532.368131 310.622167 532.133756 310.622167 
Q 531.758756 310.622167 531.224381 310.856542 
L 531.093131 310.591698 
L 534.747037 308.922948 
L 534.988443 308.922948 
z
M 539.479068 316.802635 
Q 539.99235 316.802635 540.346256 317.163573 
Q 540.702506 317.522167 540.702506 318.026073 
Q 540.702506 318.532323 540.343912 318.888573 
Q 539.985318 319.242479 539.479068 319.242479 
Q 538.972818 319.242479 538.616568 318.888573 
Q 538.262662 318.532323 538.262662 318.026073 
Q 538.262662 317.522167 538.616568 317.163573 
Q 538.972818 316.802635 539.479068 316.802635 
z
M 548.399381 308.922948 
L 548.399381 309.126854 
Q 547.075162 309.464354 546.271256 309.996385 
Q 545.469693 310.526073 545.003287 311.285448 
Q 544.539225 312.042479 544.283756 313.162792 
Q 544.607193 312.944823 544.818131 312.876854 
Q 545.293912 312.731542 545.779068 312.731542 
Q 546.89235 312.731542 547.635318 313.542479 
Q 548.378287 314.351073 548.378287 315.747948 
Q 548.378287 316.729979 547.975162 317.550292 
Q 547.572037 318.370604 546.831412 318.81826 
Q 546.093131 319.265917 545.251725 319.265917 
Q 544.335318 319.265917 543.557193 318.764354 
Q 542.781412 318.260448 542.345475 317.294823 
Q 541.911881 316.326854 541.911881 315.192479 
Q 541.911881 313.521385 542.713443 312.082323 
Q 543.515006 310.64326 544.989225 309.790135 
Q 546.465787 308.93701 548.399381 308.922948 
z
M 544.187662 313.75576 
Q 544.129068 314.76826 544.129068 315.23701 
Q 544.129068 316.247167 544.3236 317.191698 
Q 544.518131 318.136229 544.855631 318.51826 
Q 545.097037 318.787792 545.427506 318.787792 
Q 545.762662 318.787792 546.025162 318.396385 
Q 546.290006 318.004979 546.290006 316.802635 
Q 546.290006 314.782323 545.800162 314.013573 
Q 545.4861 313.514354 544.949381 313.514354 
Q 544.656412 313.514354 544.187662 313.75576 
z
" style="fill: #404040; stroke: #ffffff; stroke-width: 3.8"/>
    <path d="M 534.988443 308.922948 
L 534.988443 317.046385 
Q 534.988443 317.960448 535.068131 318.213573 
Q 535.150162 318.466698 535.405631 318.628417 
Q 535.663443 318.787792 536.228287 318.787792 
L 536.453287 318.787792 
L 536.453287 319.059667 
L 531.224381 319.059667 
L 531.224381 318.787792 
L 531.489225 318.787792 
Q 532.126725 318.787792 532.396256 318.642479 
Q 532.668131 318.494823 532.761881 318.239354 
Q 532.857975 317.983885 532.857975 317.046385 
L 532.857975 311.897167 
Q 532.857975 311.208104 532.79235 311.03701 
Q 532.726725 310.863573 532.546256 310.744042 
Q 532.368131 310.622167 532.133756 310.622167 
Q 531.758756 310.622167 531.224381 310.856542 
L 531.093131 310.591698 
L 534.747037 308.922948 
L 534.988443 308.922948 
z
M 539.479068 316.802635 
Q 539.99235 316.802635 540.346256 317.163573 
Q 540.702506 317.522167 540.702506 318.026073 
Q 540.702506 318.532323 540.343912 318.888573 
Q 539.985318 319.242479 539.479068 319.242479 
Q 538.972818 319.242479 538.616568 318.888573 
Q 538.262662 318.532323 538.262662 318.026073 
Q 538.262662 317.522167 538.616568 317.163573 
Q 538.972818 316.802635 539.479068 316.802635 
z
M 548.399381 308.922948 
L 548.399381 309.126854 
Q 547.075162 309.464354 546.271256 309.996385 
Q 545.469693 310.526073 545.003287 311.285448 
Q 544.539225 312.042479 544.283756 313.162792 
Q 544.607193 312.944823 544.818131 312.876854 
Q 545.293912 312.731542 545.779068 312.731542 
Q 546.89235 312.731542 547.635318 313.542479 
Q 548.378287 314.351073 548.378287 315.747948 
Q 548.378287 316.729979 547.975162 317.550292 
Q 547.572037 318.370604 546.831412 318.81826 
Q 546.093131 319.265917 545.251725 319.265917 
Q 544.335318 319.265917 543.557193 318.764354 
Q 542.781412 318.260448 542.345475 317.294823 
Q 541.911881 316.326854 541.911881 315.192479 
Q 541.911881 313.521385 542.713443 312.082323 
Q 543.515006 310.64326 544.989225 309.790135 
Q 546.465787 308.93701 548.399381 308.922948 
z
M 544.187662 313.75576 
Q 544.129068 314.76826 544.129068 315.23701 
Q 544.129068 316.247167 544.3236 317.191698 
Q 544.518131 318.136229 544.855631 318.51826 
Q 545.097037 318.787792 545.427506 318.787792 
Q 545.762662 318.787792 546.025162 318.396385 
Q 546.290006 318.004979 546.290006 316.802635 
Q 546.290006 314.782323 545.800162 314.013573 
Q 545.4861 313.514354 544.949381 313.514354 
Q 544.656412 313.514354 544.187662 313.75576 
z
" style="fill: #404040"/>
   </g>
   <g id="text_32">
    <path d="M 325.782367 371.709723 
L 319.937054 371.709723 
L 319.937054 371.548004 
Q 322.625336 368.348786 323.199554 367.242536 
Q 323.776117 366.136286 323.776117 365.081598 
Q 323.776117 364.312848 323.300336 363.804254 
Q 322.824554 363.293317 322.135492 363.293317 
Q 321.008148 363.293317 320.384711 364.423004 
L 320.112836 364.326911 
Q 320.508929 362.920661 321.315179 362.248004 
Q 322.121429 361.573004 323.176117 361.573004 
Q 323.928461 361.573004 324.551898 361.924567 
Q 325.175336 362.276129 325.526898 362.887848 
Q 325.878461 363.499567 325.878461 364.033942 
Q 325.878461 365.008942 325.334711 366.012067 
Q 324.596429 367.366754 322.105023 369.790192 
L 324.251898 369.790192 
Q 325.041742 369.790192 325.280804 369.724567 
Q 325.519867 369.658942 325.672211 369.501911 
Q 325.826898 369.344879 326.075336 368.838629 
L 326.340179 368.838629 
L 325.782367 371.709723 
z
M 331.955804 361.573004 
L 331.955804 369.696442 
Q 331.955804 370.610504 332.035492 370.863629 
Q 332.117523 371.116754 332.372992 371.278473 
Q 332.630804 371.437848 333.195648 371.437848 
L 333.420648 371.437848 
L 333.420648 371.709723 
L 328.191742 371.709723 
L 328.191742 371.437848 
L 328.456586 371.437848 
Q 329.094086 371.437848 329.363617 371.292536 
Q 329.635492 371.144879 329.729242 370.889411 
Q 329.825336 370.633942 329.825336 369.696442 
L 329.825336 364.547223 
Q 329.825336 363.858161 329.759711 363.687067 
Q 329.694086 363.513629 329.513617 363.394098 
Q 329.335492 363.272223 329.101117 363.272223 
Q 328.726117 363.272223 328.191742 363.506598 
L 328.060492 363.241754 
L 331.714398 361.573004 
L 331.955804 361.573004 
z
M 336.446429 369.452692 
Q 336.959711 369.452692 337.313617 369.813629 
Q 337.669867 370.172223 337.669867 370.676129 
Q 337.669867 371.182379 337.311273 371.538629 
Q 336.952679 371.892536 336.446429 371.892536 
Q 335.940179 371.892536 335.583929 371.538629 
Q 335.230023 371.182379 335.230023 370.676129 
Q 335.230023 370.172223 335.583929 369.813629 
Q 335.940179 369.452692 336.446429 369.452692 
z
M 344.532367 371.709723 
L 338.687054 371.709723 
L 338.687054 371.548004 
Q 341.375336 368.348786 341.949554 367.242536 
Q 342.526117 366.136286 342.526117 365.081598 
Q 342.526117 364.312848 342.050336 363.804254 
Q 341.574554 363.293317 340.885492 363.293317 
Q 339.758148 363.293317 339.134711 364.423004 
L 338.862836 364.326911 
Q 339.258929 362.920661 340.065179 362.248004 
Q 340.871429 361.573004 341.926117 361.573004 
Q 342.678461 361.573004 343.301898 361.924567 
Q 343.925336 362.276129 344.276898 362.887848 
Q 344.628461 363.499567 344.628461 364.033942 
Q 344.628461 365.008942 344.084711 366.012067 
Q 343.346429 367.366754 340.855023 369.790192 
L 343.001898 369.790192 
Q 343.791742 369.790192 344.030804 369.724567 
Q 344.269867 369.658942 344.422211 369.501911 
Q 344.576898 369.344879 344.825336 368.838629 
L 345.090179 368.838629 
L 344.532367 371.709723 
z
" style="fill: #404040; stroke: #ffffff; stroke-width: 3.8"/>
    <path d="M 325.782367 371.709723 
L 319.937054 371.709723 
L 319.937054 371.548004 
Q 322.625336 368.348786 323.199554 367.242536 
Q 323.776117 366.136286 323.776117 365.081598 
Q 323.776117 364.312848 323.300336 363.804254 
Q 322.824554 363.293317 322.135492 363.293317 
Q 321.008148 363.293317 320.384711 364.423004 
L 320.112836 364.326911 
Q 320.508929 362.920661 321.315179 362.248004 
Q 322.121429 361.573004 323.176117 361.573004 
Q 323.928461 361.573004 324.551898 361.924567 
Q 325.175336 362.276129 325.526898 362.887848 
Q 325.878461 363.499567 325.878461 364.033942 
Q 325.878461 365.008942 325.334711 366.012067 
Q 324.596429 367.366754 322.105023 369.790192 
L 324.251898 369.790192 
Q 325.041742 369.790192 325.280804 369.724567 
Q 325.519867 369.658942 325.672211 369.501911 
Q 325.826898 369.344879 326.075336 368.838629 
L 326.340179 368.838629 
L 325.782367 371.709723 
z
M 331.955804 361.573004 
L 331.955804 369.696442 
Q 331.955804 370.610504 332.035492 370.863629 
Q 332.117523 371.116754 332.372992 371.278473 
Q 332.630804 371.437848 333.195648 371.437848 
L 333.420648 371.437848 
L 333.420648 371.709723 
L 328.191742 371.709723 
L 328.191742 371.437848 
L 328.456586 371.437848 
Q 329.094086 371.437848 329.363617 371.292536 
Q 329.635492 371.144879 329.729242 370.889411 
Q 329.825336 370.633942 329.825336 369.696442 
L 329.825336 364.547223 
Q 329.825336 363.858161 329.759711 363.687067 
Q 329.694086 363.513629 329.513617 363.394098 
Q 329.335492 363.272223 329.101117 363.272223 
Q 328.726117 363.272223 328.191742 363.506598 
L 328.060492 363.241754 
L 331.714398 361.573004 
L 331.955804 361.573004 
z
M 336.446429 369.452692 
Q 336.959711 369.452692 337.313617 369.813629 
Q 337.669867 370.172223 337.669867 370.676129 
Q 337.669867 371.182379 337.311273 371.538629 
Q 336.952679 371.892536 336.446429 371.892536 
Q 335.940179 371.892536 335.583929 371.538629 
Q 335.230023 371.182379 335.230023 370.676129 
Q 335.230023 370.172223 335.583929 369.813629 
Q 335.940179 369.452692 336.446429 369.452692 
z
M 344.532367 371.709723 
L 338.687054 371.709723 
L 338.687054 371.548004 
Q 341.375336 368.348786 341.949554 367.242536 
Q 342.526117 366.136286 342.526117 365.081598 
Q 342.526117 364.312848 342.050336 363.804254 
Q 341.574554 363.293317 340.885492 363.293317 
Q 339.758148 363.293317 339.134711 364.423004 
L 338.862836 364.326911 
Q 339.258929 362.920661 340.065179 362.248004 
Q 340.871429 361.573004 341.926117 361.573004 
Q 342.678461 361.573004 343.301898 361.924567 
Q 343.925336 362.276129 344.276898 362.887848 
Q 344.628461 363.499567 344.628461 364.033942 
Q 344.628461 365.008942 344.084711 366.012067 
Q 343.346429 367.366754 340.855023 369.790192 
L 343.001898 369.790192 
Q 343.791742 369.790192 344.030804 369.724567 
Q 344.269867 369.658942 344.422211 369.501911 
Q 344.576898 369.344879 344.825336 368.838629 
L 345.090179 368.838629 
L 344.532367 371.709723 
z
" style="fill: #404040"/>
   </g>
  </g>
 </g>
 <defs>
  <clipPath id="pfba34deba9">
   <rect x="7.2" y="51.034687" width="730.764" height="431.640752"/>
  </clipPath>
 </defs>
</svg>
