<?xml version="1.0" encoding="utf-8" standalone="no"?>
<!DOCTYPE svg PUBLIC "-//W3C//DTD SVG 1.1//EN"
  "http://www.w3.org/Graphics/SVG/1.1/DTD/svg11.dtd">
<svg xmlns:xlink="http://www.w3.org/1999/xlink" width="745.164pt" height="496.714687pt" viewBox="0 0 745.164 496.714687" xmlns="http://www.w3.org/2000/svg" version="1.1">
 <metadata>
  <rdf:RDF xmlns:dc="http://purl.org/dc/elements/1.1/" xmlns:cc="http://creativecommons.org/ns#" xmlns:rdf="http://www.w3.org/1999/02/22-rdf-syntax-ns#">
   <cc:Work>
    <dc:type rdf:resource="http://purl.org/dc/dcmitype/StillImage"/>
    <dc:date>2026-07-13T16:59:06.173626</dc:date>
    <dc:format>image/svg+xml</dc:format>
    <dc:creator>
     <cc:Agent>
      <dc:title>Matplotlib v3.10.8, https://matplotlib.org/</dc:title>
     </cc:Agent>
    </dc:creator>
   </cc:Work>
  </rdf:RDF>
 </metadata>
 <defs>
  <style type="text/css">*{stroke-linejoin: round; stroke-linecap: butt}</style>
 </defs>
 <g id="figure_1">
  <g id="patch_1">
   <path d="M 0 496.714687 
L 745.164 496.714687 
L 745.164 0 
L 0 0 
L 0 496.714687 
z
" style="fill: none"/>
  </g>
  <g id="axes_1">
   <g id="patch_2">
    <path d="M 120.350555 436.094228 
Q 120.350555 457.109912 120.350555 476.052809 
" clip-path="url(#p2b366256f9)" style="fill: none; stroke: #111111; stroke-width: 1.853958; stroke-linejoin: miter; stroke-linecap: round"/>
    <path d="M 123.887821 468.978276 
L 120.350555 476.052809 
L 116.813288 468.978276 
z
" clip-path="url(#p2b366256f9)" style="fill: #111111; stroke: #111111; stroke-width: 1.853958; stroke-linejoin: miter; stroke-linecap: round"/>
   </g>
   <g id="patch_3">
    <path d="M 120.350555 337.624219 
Q 120.350555 359.294812 120.350555 376.828652 
" clip-path="url(#p2b366256f9)" style="fill: none; stroke: #111111; stroke-width: 3.700024; stroke-linejoin: miter; stroke-linecap: round"/>
    <path d="M 124.478562 368.572637 
L 120.350555 376.828652 
L 116.222547 368.572637 
z
" clip-path="url(#p2b366256f9)" style="fill: #111111; stroke: #111111; stroke-width: 3.700024; stroke-linejoin: miter; stroke-linecap: round"/>
   </g>
   <g id="patch_4">
    <path d="M 120.350555 231.689729 
Q 120.350555 256.437654 120.350555 274.700982 
" clip-path="url(#p2b366256f9)" style="fill: none; stroke: #111111; stroke-width: 5.8; stroke-linejoin: miter; stroke-linecap: round"/>
    <path d="M 125.150555 265.100982 
L 120.350555 274.700982 
L 115.550555 265.100982 
z
" clip-path="url(#p2b366256f9)" style="fill: #111111; stroke: #111111; stroke-width: 5.8; stroke-linejoin: miter; stroke-linecap: round"/>
   </g>
   <g id="patch_5">
    <path d="M 370.224697 346.082897 
Q 370.224697 354.54976 370.224697 361.263499 
" clip-path="url(#p2b366256f9)" style="fill: none; stroke: #111111; stroke-width: 1.568043; stroke-linejoin: miter; stroke-linecap: round"/>
    <path d="M 373.670471 354.371951 
L 370.224697 361.263499 
L 366.778923 354.371951 
z
" clip-path="url(#p2b366256f9)" style="fill: #111111; stroke: #111111; stroke-width: 1.568043; stroke-linejoin: miter; stroke-linecap: round"/>
   </g>
   <g id="patch_6">
    <path d="M 370.224697 275.099818 
Q 370.224697 295.575766 370.224697 312.158589 
" clip-path="url(#p2b366256f9)" style="fill: none; stroke: #111111; stroke-width: 3.482118; stroke-linejoin: miter; stroke-linecap: round"/>
    <path d="M 374.282974 304.042033 
L 370.224697 312.158589 
L 366.166419 304.042033 
z
" clip-path="url(#p2b366256f9)" style="fill: #111111; stroke: #111111; stroke-width: 3.482118; stroke-linejoin: miter; stroke-linecap: round"/>
   </g>
   <g id="patch_7">
    <path d="M 370.224697 165.888259 
Q 370.224697 193.469363 370.224697 216.018348 
" clip-path="url(#p2b366256f9)" style="fill: none; stroke: #111111; stroke-width: 4.500864; stroke-linejoin: miter; stroke-linecap: round"/>
    <path d="M 374.608973 207.249795 
L 370.224697 216.018348 
L 365.84042 207.249795 
z
" clip-path="url(#p2b366256f9)" style="fill: #111111; stroke: #111111; stroke-width: 4.500864; stroke-linejoin: miter; stroke-linecap: round"/>
   </g>
   <g id="line2d_1">
    <path d="M 165.610777 478.125597 
L 550.322663 478.125597 
" clip-path="url(#p2b366256f9)" style="fill: none; stroke-dasharray: 5.6,4.2; stroke-dashoffset: 0; stroke: #404040; stroke-width: 1.4"/>
   </g>
   <g id="line2d_2">
    <path d="M 165.610777 380.965404 
L 550.322663 380.965404 
" clip-path="url(#p2b366256f9)" style="fill: none; stroke-dasharray: 5.6,4.2; stroke-dashoffset: 0; stroke: #404040; stroke-width: 1.4"/>
   </g>
   <g id="line2d_3">
    <path d="M 415.484919 363.016624 
L 560.694797 363.016624 
" clip-path="url(#p2b366256f9)" style="fill: none; stroke-dasharray: 5.6,4.2; stroke-dashoffset: 0; stroke: #404040; stroke-width: 1.4"/>
   </g>
   <g id="patch_8">
    <path d="M 665.359061 219.101367 
Q 596.030258 345.97921 527.149443 472.037196 
" clip-path="url(#p2b366256f9)" style="fill: none; stroke: #404040; stroke-width: 0.835635; stroke-linejoin: miter; stroke-linecap: round"/>
    <path d="M 532.313601 468.450446 
L 527.149443 472.037196 
L 527.378537 465.75382 
z
" clip-path="url(#p2b366256f9)" style="fill: #404040; stroke: #404040; stroke-width: 0.835635; stroke-linejoin: miter; stroke-linecap: round"/>
   </g>
   <g id="patch_9">
    <path d="M 620.098839 219.101367 
Q 577.313807 297.401761 535.025283 374.793502 
" clip-path="url(#p2b366256f9)" style="fill: none; stroke: #404040; stroke-width: 0.926141; stroke-linejoin: miter; stroke-linecap: round"/>
    <path d="M 540.244846 371.16827 
L 535.025283 374.793502 
L 535.256834 368.442712 
z
" clip-path="url(#p2b366256f9)" style="fill: #404040; stroke: #404040; stroke-width: 0.926141; stroke-linejoin: miter; stroke-linecap: round"/>
   </g>
   <g id="patch_10">
    <path d="M 574.838617 219.101367 
Q 540.803109 288.364537 507.385766 356.369727 
" clip-path="url(#p2b366256f9)" style="fill: none; stroke: #404040; stroke-width: 1.25368; stroke-linejoin: miter; stroke-linecap: round"/>
    <path d="M 512.637601 352.373863 
L 507.385766 356.369727 
L 507.340176 349.77074 
z
" clip-path="url(#p2b366256f9)" style="fill: #404040; stroke: #404040; stroke-width: 1.25368; stroke-linejoin: miter; stroke-linecap: round"/>
   </g>
   <g id="patch_11">
    <path d="M 370.224697 363.016624 
Q 335.612292 371.293724 306.008059 378.373186 
" clip-path="url(#p2b366256f9)" style="fill: none; stroke: #404040; stroke-width: 4.605747; stroke-linejoin: miter; stroke-linecap: round"/>
    <path d="M 314.86835 380.437663 
L 306.008059 378.373186 
L 312.975815 372.52364 
z
" clip-path="url(#p2b366256f9)" style="fill: #404040; stroke: #404040; stroke-width: 4.605747; stroke-linejoin: miter; stroke-linecap: round"/>
   </g>
   <g id="line2d_4">
    <path d="M 120.350555 380.965404 
L 120.350555 422.996773 
" clip-path="url(#p2b366256f9)" style="fill: none; stroke: #111111; stroke-width: 1.853958"/>
   </g>
   <g id="line2d_5">
    <path d="M 120.350555 281.185579 
L 120.350555 324.526764 
" clip-path="url(#p2b366256f9)" style="fill: none; stroke: #111111; stroke-width: 3.700024"/>
   </g>
   <g id="line2d_6">
    <path d="M 120.350555 169.096424 
L 120.350555 218.592274 
" clip-path="url(#p2b366256f9)" style="fill: none; stroke: #111111; stroke-width: 5.8"/>
   </g>
   <g id="line2d_7">
    <path d="M 370.224697 316.051715 
L 370.224697 332.985442 
" clip-path="url(#p2b366256f9)" style="fill: none; stroke: #111111; stroke-width: 1.568043"/>
   </g>
   <g id="line2d_8">
    <path d="M 370.224697 221.050467 
L 370.224697 262.002364 
" clip-path="url(#p2b366256f9)" style="fill: none; stroke: #111111; stroke-width: 3.482118"/>
   </g>
   <g id="line2d_9">
    <path d="M 370.224697 97.628597 
L 370.224697 152.790805 
" clip-path="url(#p2b366256f9)" style="fill: none; stroke: #111111; stroke-width: 4.500864"/>
   </g>
   <g id="line2d_10">
    <path d="M 75.090333 478.125597 
L 165.610777 478.125597 
" clip-path="url(#p2b366256f9)" style="fill: none; stroke: #111111; stroke-width: 3.6; stroke-linecap: round"/>
   </g>
   <g id="line2d_11">
    <path d="M 75.090333 380.965404 
L 165.610777 380.965404 
" clip-path="url(#p2b366256f9)" style="fill: none; stroke: #111111; stroke-width: 3.6; stroke-linecap: round"/>
   </g>
   <g id="line2d_12">
    <path d="M 75.090333 281.185579 
L 165.610777 281.185579 
" clip-path="url(#p2b366256f9)" style="fill: none; stroke: #111111; stroke-width: 3.6; stroke-linecap: round"/>
   </g>
   <g id="line2d_13">
    <path d="M 75.090333 169.096424 
L 165.610777 169.096424 
" clip-path="url(#p2b366256f9)" style="fill: none; stroke: #111111; stroke-width: 3.6; stroke-linecap: round"/>
   </g>
   <g id="line2d_14">
    <path d="M 324.964475 363.016624 
L 415.484919 363.016624 
" clip-path="url(#p2b366256f9)" style="fill: none; stroke: #111111; stroke-width: 3.6; stroke-linecap: round"/>
   </g>
   <g id="line2d_15">
    <path d="M 324.964475 316.051715 
L 415.484919 316.051715 
" clip-path="url(#p2b366256f9)" style="fill: none; stroke: #111111; stroke-width: 3.6; stroke-linecap: round"/>
   </g>
   <g id="line2d_16">
    <path d="M 324.964475 221.050467 
L 415.484919 221.050467 
" clip-path="url(#p2b366256f9)" style="fill: none; stroke: #111111; stroke-width: 3.6; stroke-linecap: round"/>
   </g>
   <g id="line2d_17">
    <path d="M 324.964475 97.628597 
L 415.484919 97.628597 
" clip-path="url(#p2b366256f9)" style="fill: none; stroke: #111111; stroke-width: 3.6; stroke-linecap: round"/>
   </g>
   <g id="line2d_18">
    <path d="M 574.838617 219.101367 
L 665.359061 219.101367 
" clip-path="url(#p2b366256f9)" style="fill: none; stroke: #111111; stroke-width: 3.6; stroke-linecap: round"/>
   </g>
   <g id="text_1">
    <!-- $^{106}\mathrm{Sr}$ -->
    <g transform="translate(331.442 33.034687) scale(0.34 -0.34)">
     <defs>
      <path id="DejaVuSans-31" d="M 794 531 
L 1825 531 
L 1825 4091 
L 703 3866 
L 703 4441 
L 1819 4666 
L 2450 4666 
L 2450 531 
L 3481 531 
L 3481 0 
L 794 0 
L 794 531 
z
" transform="scale(0.015625)"/>
      <path id="DejaVuSans-30" d="M 2034 4250 
Q 1547 4250 1301 3770 
Q 1056 3291 1056 2328 
Q 1056 1369 1301 889 
Q 1547 409 2034 409 
Q 2525 409 2770 889 
Q 3016 1369 3016 2328 
Q 3016 3291 2770 3770 
Q 2525 4250 2034 4250 
z
M 2034 4750 
Q 2819 4750 3233 4129 
Q 3647 3509 3647 2328 
Q 3647 1150 3233 529 
Q 2819 -91 2034 -91 
Q 1250 -91 836 529 
Q 422 1150 422 2328 
Q 422 3509 836 4129 
Q 1250 4750 2034 4750 
z
" transform="scale(0.015625)"/>
      <path id="DejaVuSans-36" d="M 2113 2584 
Q 1688 2584 1439 2293 
Q 1191 2003 1191 1497 
Q 1191 994 1439 701 
Q 1688 409 2113 409 
Q 2538 409 2786 701 
Q 3034 994 3034 1497 
Q 3034 2003 2786 2293 
Q 2538 2584 2113 2584 
z
M 3366 4563 
L 3366 3988 
Q 3128 4100 2886 4159 
Q 2644 4219 2406 4219 
Q 1781 4219 1451 3797 
Q 1122 3375 1075 2522 
Q 1259 2794 1537 2939 
Q 1816 3084 2150 3084 
Q 2853 3084 3261 2657 
Q 3669 2231 3669 1497 
Q 3669 778 3244 343 
Q 2819 -91 2113 -91 
Q 1303 -91 875 529 
Q 447 1150 447 2328 
Q 447 3434 972 4092 
Q 1497 4750 2381 4750 
Q 2619 4750 2861 4703 
Q 3103 4656 3366 4563 
z
" transform="scale(0.015625)"/>
      <path id="DejaVuSans-53" d="M 3425 4513 
L 3425 3897 
Q 3066 4069 2747 4153 
Q 2428 4238 2131 4238 
Q 1616 4238 1336 4038 
Q 1056 3838 1056 3469 
Q 1056 3159 1242 3001 
Q 1428 2844 1947 2747 
L 2328 2669 
Q 3034 2534 3370 2195 
Q 3706 1856 3706 1288 
Q 3706 609 3251 259 
Q 2797 -91 1919 -91 
Q 1588 -91 1214 -16 
Q 841 59 441 206 
L 441 856 
Q 825 641 1194 531 
Q 1563 422 1919 422 
Q 2459 422 2753 634 
Q 3047 847 3047 1241 
Q 3047 1584 2836 1778 
Q 2625 1972 2144 2069 
L 1759 2144 
Q 1053 2284 737 2584 
Q 422 2884 422 3419 
Q 422 4038 858 4394 
Q 1294 4750 2059 4750 
Q 2388 4750 2728 4690 
Q 3069 4631 3425 4513 
z
" transform="scale(0.015625)"/>
      <path id="DejaVuSans-72" d="M 2631 2963 
Q 2534 3019 2420 3045 
Q 2306 3072 2169 3072 
Q 1681 3072 1420 2755 
Q 1159 2438 1159 1844 
L 1159 0 
L 581 0 
L 581 3500 
L 1159 3500 
L 1159 2956 
Q 1341 3275 1631 3429 
Q 1922 3584 2338 3584 
Q 2397 3584 2469 3576 
Q 2541 3569 2628 3553 
L 2631 2963 
z
" transform="scale(0.015625)"/>
     </defs>
     <use xlink:href="#DejaVuSans-31" transform="translate(0.957031 39.046875) scale(0.7)"/>
     <use xlink:href="#DejaVuSans-30" transform="translate(45.493164 39.046875) scale(0.7)"/>
     <use xlink:href="#DejaVuSans-36" transform="translate(90.029297 39.046875) scale(0.7)"/>
     <use xlink:href="#DejaVuSans-53" transform="translate(137.299805 0.765625)"/>
     <use xlink:href="#DejaVuSans-72" transform="translate(200.776367 0.765625)"/>
    </g>
   </g>
   <g id="text_2">
    <!-- 0 -->
    <g transform="translate(46.98525 482.540597) scale(0.16 -0.16)">
     <defs>
      <path id="DejaVuSans-BoldOblique-30" d="M 1913 728 
Q 2153 728 2339 872 
Q 2525 1016 2650 1294 
Q 2738 1491 2809 1742 
Q 2881 1994 2944 2338 
Q 2997 2616 3025 2850 
Q 3053 3084 3053 3250 
Q 3053 3600 2928 3764 
Q 2803 3928 2541 3928 
Q 2297 3928 2112 3789 
Q 1928 3650 1806 3366 
Q 1713 3163 1636 2903 
Q 1559 2644 1503 2338 
Q 1450 2056 1422 1815 
Q 1394 1575 1394 1409 
Q 1394 1063 1522 895 
Q 1650 728 1913 728 
z
M 4225 3072 
Q 4225 2450 4053 1862 
Q 3881 1275 3572 831 
Q 3256 375 2809 142 
Q 2363 -91 1813 -91 
Q 1047 -91 639 343 
Q 231 778 231 1594 
Q 231 2206 401 2795 
Q 572 3384 878 3822 
Q 1200 4281 1644 4515 
Q 2088 4750 2644 4750 
Q 3403 4750 3814 4314 
Q 4225 3878 4225 3072 
z
" transform="scale(0.015625)"/>
     </defs>
     <use xlink:href="#DejaVuSans-BoldOblique-30"/>
    </g>
   </g>
   <g id="text_3">
    <!-- 0⁺ -->
    <g transform="translate(182.58336 483.280831) scale(0.23 -0.23)">
     <defs>
      <path id="TimesNewRomanPS-BoldMT-30" d="M 2966 2119 
Q 2966 1484 2788 934 
Q 2681 597 2501 381 
Q 2322 166 2094 39 
Q 1866 -88 1597 -88 
Q 1291 -88 1044 68 
Q 797 225 606 516 
Q 469 728 366 1081 
Q 231 1559 231 2069 
Q 231 2759 425 3338 
Q 584 3816 909 4070 
Q 1234 4325 1597 4325 
Q 1966 4325 2286 4073 
Q 2606 3822 2756 3397 
Q 2966 2813 2966 2119 
z
M 2003 2125 
Q 2003 3238 1991 3422 
Q 1959 3856 1841 4009 
Q 1763 4109 1588 4109 
Q 1453 4109 1375 4034 
Q 1259 3925 1218 3648 
Q 1178 3372 1178 1719 
Q 1178 819 1241 513 
Q 1288 291 1375 216 
Q 1463 141 1606 141 
Q 1763 141 1841 241 
Q 1972 416 1991 781 
L 2003 2125 
z
" transform="scale(0.015625)"/>
      <path id="DejaVuSerif-Bold-207a" d="M 1916 4344 
L 1916 3441 
L 2950 3441 
L 2950 3044 
L 1916 3044 
L 1916 2141 
L 1463 2141 
L 1463 3044 
L 428 3044 
L 428 3441 
L 1463 3441 
L 1463 4344 
L 1916 4344 
z
" transform="scale(0.015625)"/>
     </defs>
     <use xlink:href="#TimesNewRomanPS-BoldMT-30"/>
     <use xlink:href="#DejaVuSerif-Bold-207a" transform="translate(50 0)"/>
    </g>
   </g>
   <g id="text_4">
    <!-- 682 -->
    <g transform="translate(24.72025 385.380404) scale(0.16 -0.16)">
     <defs>
      <path id="DejaVuSans-BoldOblique-36" d="M 2316 2303 
Q 1959 2303 1731 2009 
Q 1503 1716 1503 1253 
Q 1503 975 1643 820 
Q 1784 666 2034 666 
Q 2388 666 2617 955 
Q 2847 1244 2847 1684 
Q 2847 1984 2709 2143 
Q 2572 2303 2316 2303 
z
M 4225 4544 
L 4056 3681 
Q 3788 3819 3534 3887 
Q 3281 3956 3028 3956 
Q 2447 3956 2087 3643 
Q 1728 3331 1650 2766 
Q 1894 2925 2151 3001 
Q 2409 3078 2700 3078 
Q 3275 3078 3640 2737 
Q 4006 2397 4006 1869 
Q 4006 1006 3442 454 
Q 2878 -97 1991 -97 
Q 1194 -97 756 354 
Q 319 806 319 1631 
Q 319 2269 512 2848 
Q 706 3428 1056 3847 
Q 1431 4294 1942 4519 
Q 2453 4744 3091 4744 
Q 3384 4744 3662 4694 
Q 3941 4644 4225 4544 
z
" transform="scale(0.015625)"/>
      <path id="DejaVuSans-BoldOblique-38" d="M 2150 2088 
Q 1784 2088 1539 1839 
Q 1294 1591 1294 1228 
Q 1294 969 1453 817 
Q 1613 666 1888 666 
Q 2259 666 2503 911 
Q 2747 1156 2747 1522 
Q 2747 1781 2586 1934 
Q 2425 2088 2150 2088 
z
M 1381 2484 
Q 1044 2625 876 2850 
Q 709 3075 709 3391 
Q 709 4025 1229 4387 
Q 1750 4750 2669 4750 
Q 3406 4750 3812 4475 
Q 4219 4200 4219 3700 
Q 4219 3256 3936 2940 
Q 3653 2625 3128 2484 
Q 3509 2338 3690 2091 
Q 3872 1844 3872 1466 
Q 3872 747 3311 328 
Q 2750 -91 1772 -91 
Q 1000 -91 570 217 
Q 141 525 141 1075 
Q 141 1572 470 1945 
Q 800 2319 1381 2484 
z
M 2559 3994 
Q 2241 3994 2048 3808 
Q 1856 3622 1856 3316 
Q 1856 3103 1995 2972 
Q 2134 2841 2363 2841 
Q 2681 2841 2873 3027 
Q 3066 3213 3066 3519 
Q 3066 3734 2927 3864 
Q 2788 3994 2559 3994 
z
" transform="scale(0.015625)"/>
      <path id="DejaVuSans-BoldOblique-32" d="M 1581 884 
L 3609 884 
L 3438 0 
L 50 0 
L 225 891 
L 2209 2388 
Q 2534 2638 2704 2894 
Q 2875 3150 2875 3391 
Q 2875 3647 2700 3787 
Q 2525 3928 2209 3928 
Q 1913 3928 1547 3811 
Q 1181 3694 722 3450 
L 922 4441 
Q 1347 4597 1756 4673 
Q 2166 4750 2566 4750 
Q 3278 4750 3687 4442 
Q 4097 4134 4097 3603 
Q 4097 3147 3847 2772 
Q 3597 2397 2747 1759 
L 1581 884 
z
" transform="scale(0.015625)"/>
     </defs>
     <use xlink:href="#DejaVuSans-BoldOblique-36"/>
     <use xlink:href="#DejaVuSans-BoldOblique-38" transform="translate(69.580078 0)"/>
     <use xlink:href="#DejaVuSans-BoldOblique-32" transform="translate(139.160156 0)"/>
    </g>
   </g>
   <g id="text_5">
    <!-- 2⁺ -->
    <g transform="translate(182.58336 386.120639) scale(0.23 -0.23)">
     <defs>
      <path id="TimesNewRomanPS-BoldMT-32" d="M 2650 0 
L 156 0 
L 156 69 
Q 1303 1434 1548 1906 
Q 1794 2378 1794 2828 
Q 1794 3156 1591 3373 
Q 1388 3591 1094 3591 
Q 613 3591 347 3109 
L 231 3150 
Q 400 3750 744 4037 
Q 1088 4325 1538 4325 
Q 1859 4325 2125 4175 
Q 2391 4025 2541 3764 
Q 2691 3503 2691 3275 
Q 2691 2859 2459 2431 
Q 2144 1853 1081 819 
L 1997 819 
Q 2334 819 2436 847 
Q 2538 875 2603 942 
Q 2669 1009 2775 1225 
L 2888 1225 
L 2650 0 
z
" transform="scale(0.015625)"/>
     </defs>
     <use xlink:href="#TimesNewRomanPS-BoldMT-32"/>
     <use xlink:href="#DejaVuSerif-Bold-207a" transform="translate(50 0)"/>
    </g>
   </g>
   <g id="text_6">
    <!-- 1383 -->
    <g transform="translate(13.58775 285.600579) scale(0.16 -0.16)">
     <defs>
      <path id="DejaVuSans-BoldOblique-31" d="M 441 831 
L 1503 831 
L 2088 3847 
L 953 3622 
L 1113 4441 
L 2241 4666 
L 3384 4666 
L 2644 831 
L 3700 831 
L 3541 0 
L 275 0 
L 441 831 
z
" transform="scale(0.015625)"/>
      <path id="DejaVuSans-BoldOblique-33" d="M 3022 2516 
Q 3375 2434 3572 2187 
Q 3769 1941 3769 1581 
Q 3769 806 3155 357 
Q 2541 -91 1466 -91 
Q 1059 -91 692 -33 
Q 325 25 0 141 
L 178 1069 
Q 456 906 784 817 
Q 1113 728 1441 728 
Q 1969 728 2276 926 
Q 2584 1125 2584 1459 
Q 2584 1738 2350 1877 
Q 2116 2016 1644 2016 
L 1166 2016 
L 1319 2791 
L 1825 2791 
Q 2316 2791 2602 2969 
Q 2888 3147 2888 3450 
Q 2888 3688 2689 3813 
Q 2491 3938 2113 3938 
Q 1847 3938 1534 3869 
Q 1222 3800 884 3669 
L 1056 4550 
Q 1425 4650 1783 4700 
Q 2141 4750 2491 4750 
Q 3281 4750 3679 4487 
Q 4078 4225 4078 3706 
Q 4078 3241 3801 2930 
Q 3525 2619 3022 2516 
z
" transform="scale(0.015625)"/>
     </defs>
     <use xlink:href="#DejaVuSans-BoldOblique-31"/>
     <use xlink:href="#DejaVuSans-BoldOblique-33" transform="translate(69.580078 0)"/>
     <use xlink:href="#DejaVuSans-BoldOblique-38" transform="translate(139.160156 0)"/>
     <use xlink:href="#DejaVuSans-BoldOblique-33" transform="translate(208.740234 0)"/>
    </g>
   </g>
   <g id="text_7">
    <!-- 4⁺ -->
    <g transform="translate(182.58336 286.340813) scale(0.23 -0.23)">
     <defs>
      <path id="TimesNewRomanPS-BoldMT-34" d="M 159 1597 
L 2172 4325 
L 2553 4325 
L 2553 1597 
L 2941 1597 
L 2941 950 
L 2553 950 
L 2553 0 
L 1694 0 
L 1694 950 
L 159 950 
L 159 1597 
z
M 463 1597 
L 1694 1597 
L 1694 3269 
L 463 1597 
z
" transform="scale(0.015625)"/>
     </defs>
     <use xlink:href="#TimesNewRomanPS-BoldMT-34"/>
     <use xlink:href="#DejaVuSerif-Bold-207a" transform="translate(50 0)"/>
    </g>
   </g>
   <g id="text_8">
    <!-- 2171 -->
    <g transform="translate(13.58775 173.511424) scale(0.16 -0.16)">
     <defs>
      <path id="DejaVuSans-BoldOblique-37" d="M 922 4666 
L 4441 4666 
L 4300 3981 
L 1703 0 
L 500 0 
L 2969 3781 
L 756 3781 
L 922 4666 
z
" transform="scale(0.015625)"/>
     </defs>
     <use xlink:href="#DejaVuSans-BoldOblique-32"/>
     <use xlink:href="#DejaVuSans-BoldOblique-31" transform="translate(69.580078 0)"/>
     <use xlink:href="#DejaVuSans-BoldOblique-37" transform="translate(139.160156 0)"/>
     <use xlink:href="#DejaVuSans-BoldOblique-31" transform="translate(208.740234 0)"/>
    </g>
   </g>
   <g id="text_9">
    <!-- 6⁺ -->
    <g transform="translate(182.58336 174.251658) scale(0.23 -0.23)">
     <defs>
      <path id="TimesNewRomanPS-BoldMT-36" d="M 3006 4325 
L 3006 4238 
Q 2441 4094 2098 3867 
Q 1756 3641 1557 3317 
Q 1359 2994 1250 2516 
Q 1388 2609 1478 2638 
Q 1681 2700 1888 2700 
Q 2363 2700 2680 2354 
Q 2997 2009 2997 1413 
Q 2997 994 2825 644 
Q 2653 294 2337 103 
Q 2022 -88 1663 -88 
Q 1272 -88 940 126 
Q 609 341 423 753 
Q 238 1166 238 1650 
Q 238 2363 580 2977 
Q 922 3591 1551 3955 
Q 2181 4319 3006 4325 
z
M 1209 2263 
Q 1184 1831 1184 1631 
Q 1184 1200 1267 797 
Q 1350 394 1494 231 
Q 1597 116 1738 116 
Q 1881 116 1993 283 
Q 2106 450 2106 963 
Q 2106 1825 1897 2153 
Q 1763 2366 1534 2366 
Q 1409 2366 1209 2263 
z
" transform="scale(0.015625)"/>
     </defs>
     <use xlink:href="#TimesNewRomanPS-BoldMT-36"/>
     <use xlink:href="#DejaVuSerif-Bold-207a" transform="translate(50 0)"/>
    </g>
   </g>
   <g id="text_10">
    <!-- 809 -->
    <g transform="translate(274.594392 367.431624) scale(0.16 -0.16)">
     <defs>
      <path id="DejaVuSans-BoldOblique-39" d="M 263 103 
L 428 966 
Q 700 825 953 758 
Q 1206 691 1459 691 
Q 2041 691 2400 1003 
Q 2759 1316 2834 1881 
Q 2594 1722 2337 1645 
Q 2081 1569 1791 1569 
Q 1219 1569 853 1909 
Q 488 2250 488 2778 
Q 488 3641 1052 4192 
Q 1616 4744 2503 4744 
Q 3300 4744 3736 4292 
Q 4172 3841 4172 3016 
Q 4172 2381 3978 1801 
Q 3784 1222 3431 800 
Q 3056 353 2548 128 
Q 2041 -97 1403 -97 
Q 1106 -97 825 -47 
Q 544 3 263 103 
z
M 2169 2344 
Q 2525 2344 2753 2637 
Q 2981 2931 2981 3391 
Q 2981 3675 2845 3828 
Q 2709 3981 2456 3981 
Q 2103 3981 1870 3690 
Q 1638 3400 1638 2963 
Q 1638 2663 1775 2503 
Q 1913 2344 2169 2344 
z
" transform="scale(0.015625)"/>
     </defs>
     <use xlink:href="#DejaVuSans-BoldOblique-38"/>
     <use xlink:href="#DejaVuSans-BoldOblique-30" transform="translate(69.580078 0)"/>
     <use xlink:href="#DejaVuSans-BoldOblique-39" transform="translate(139.160156 0)"/>
    </g>
   </g>
   <g id="text_11">
    <!-- 0⁺ -->
    <g transform="translate(432.457502 368.171859) scale(0.23 -0.23)">
     <use xlink:href="#TimesNewRomanPS-BoldMT-30"/>
     <use xlink:href="#DejaVuSerif-Bold-207a" transform="translate(50 0)"/>
    </g>
   </g>
   <g id="text_12">
    <!-- 1138 -->
    <g transform="translate(263.461892 320.466715) scale(0.16 -0.16)">
     <use xlink:href="#DejaVuSans-BoldOblique-31"/>
     <use xlink:href="#DejaVuSans-BoldOblique-31" transform="translate(69.580078 0)"/>
     <use xlink:href="#DejaVuSans-BoldOblique-33" transform="translate(139.160156 0)"/>
     <use xlink:href="#DejaVuSans-BoldOblique-38" transform="translate(208.740234 0)"/>
    </g>
   </g>
   <g id="text_13">
    <!-- 2⁺ -->
    <g transform="translate(432.457502 321.206949) scale(0.23 -0.23)">
     <use xlink:href="#TimesNewRomanPS-BoldMT-32"/>
     <use xlink:href="#DejaVuSerif-Bold-207a" transform="translate(50 0)"/>
    </g>
   </g>
   <g id="text_14">
    <!-- 1806 -->
    <g transform="translate(263.461892 225.465467) scale(0.16 -0.16)">
     <use xlink:href="#DejaVuSans-BoldOblique-31"/>
     <use xlink:href="#DejaVuSans-BoldOblique-38" transform="translate(69.580078 0)"/>
     <use xlink:href="#DejaVuSans-BoldOblique-30" transform="translate(139.160156 0)"/>
     <use xlink:href="#DejaVuSans-BoldOblique-36" transform="translate(208.740234 0)"/>
    </g>
   </g>
   <g id="text_15">
    <!-- 4⁺ -->
    <g transform="translate(432.457502 226.205702) scale(0.23 -0.23)">
     <use xlink:href="#TimesNewRomanPS-BoldMT-34"/>
     <use xlink:href="#DejaVuSerif-Bold-207a" transform="translate(50 0)"/>
    </g>
   </g>
   <g id="text_16">
    <!-- 2673 -->
    <g transform="translate(263.461892 102.043597) scale(0.16 -0.16)">
     <use xlink:href="#DejaVuSans-BoldOblique-32"/>
     <use xlink:href="#DejaVuSans-BoldOblique-36" transform="translate(69.580078 0)"/>
     <use xlink:href="#DejaVuSans-BoldOblique-37" transform="translate(139.160156 0)"/>
     <use xlink:href="#DejaVuSans-BoldOblique-33" transform="translate(208.740234 0)"/>
    </g>
   </g>
   <g id="text_17">
    <!-- 6⁺ -->
    <g transform="translate(432.457502 102.783832) scale(0.23 -0.23)">
     <use xlink:href="#TimesNewRomanPS-BoldMT-36"/>
     <use xlink:href="#DejaVuSerif-Bold-207a" transform="translate(50 0)"/>
    </g>
   </g>
   <g id="text_18">
    <!-- 1819 -->
    <g transform="translate(513.336034 223.516367) scale(0.16 -0.16)">
     <use xlink:href="#DejaVuSans-BoldOblique-31"/>
     <use xlink:href="#DejaVuSans-BoldOblique-38" transform="translate(69.580078 0)"/>
     <use xlink:href="#DejaVuSans-BoldOblique-31" transform="translate(139.160156 0)"/>
     <use xlink:href="#DejaVuSans-BoldOblique-39" transform="translate(208.740234 0)"/>
    </g>
   </g>
   <g id="text_19">
    <!-- 2⁺ -->
    <g transform="translate(682.331644 224.256601) scale(0.23 -0.23)">
     <use xlink:href="#TimesNewRomanPS-BoldMT-32"/>
     <use xlink:href="#DejaVuSerif-Bold-207a" transform="translate(50 0)"/>
    </g>
   </g>
   <g id="text_20">
    <path d="M 112.975555 433.13175 
L 106.740555 433.13175 
L 106.740555 432.95925 
Q 109.608055 429.54675 110.220555 428.36675 
Q 110.835555 427.18675 110.835555 426.06175 
Q 110.835555 425.24175 110.328055 424.69925 
Q 109.820555 424.15425 109.085555 424.15425 
Q 107.883055 424.15425 107.218055 425.35925 
L 106.928055 425.25675 
Q 107.350555 423.75675 108.210555 423.03925 
Q 109.070555 422.31925 110.195555 422.31925 
Q 110.998055 422.31925 111.663055 422.69425 
Q 112.328055 423.06925 112.703055 423.72175 
Q 113.078055 424.37425 113.078055 424.94425 
Q 113.078055 425.98425 112.498055 427.05425 
Q 111.710555 428.49925 109.053055 431.08425 
L 111.343055 431.08425 
Q 112.185555 431.08425 112.440555 431.01425 
Q 112.695555 430.94425 112.858055 430.77675 
Q 113.023055 430.60925 113.288055 430.06925 
L 113.570555 430.06925 
L 112.975555 433.13175 
z
M 116.788055 422.53675 
L 121.748055 422.53675 
L 120.960555 424.55425 
L 116.788055 424.55425 
L 116.390555 425.60925 
Q 119.085555 425.70925 120.538055 426.95175 
Q 121.733055 427.97425 121.733055 429.49925 
Q 121.733055 430.47425 121.178055 431.40925 
Q 120.623055 432.34175 119.615555 432.84675 
Q 118.608055 433.35175 117.405555 433.35175 
Q 116.108055 433.35175 115.413055 432.86675 
Q 114.928055 432.52175 114.928055 432.08425 
Q 114.928055 431.74925 115.180555 431.49175 
Q 115.435555 431.23425 115.773055 431.23425 
Q 116.078055 431.23425 116.390555 431.35925 
Q 116.703055 431.48425 117.460555 432.01425 
Q 117.935555 432.34175 118.280555 432.46675 
Q 118.523055 432.56175 118.828055 432.56175 
Q 119.468055 432.56175 119.915555 432.09425 
Q 120.365555 431.62425 120.365555 430.96675 
Q 120.365555 429.59175 118.990555 428.73425 
Q 117.615555 427.87425 115.523055 427.87425 
Q 115.310555 427.87425 114.890555 427.88175 
L 116.788055 422.53675 
z
M 124.350555 430.72425 
Q 124.898055 430.72425 125.275555 431.10925 
Q 125.655555 431.49175 125.655555 432.02925 
Q 125.655555 432.56925 125.273055 432.94925 
Q 124.890555 433.32675 124.350555 433.32675 
Q 123.810555 433.32675 123.430555 432.94925 
Q 123.053055 432.56925 123.053055 432.02925 
Q 123.053055 431.49175 123.430555 431.10925 
Q 123.810555 430.72425 124.350555 430.72425 
z
M 132.975555 433.13175 
L 126.740555 433.13175 
L 126.740555 432.95925 
Q 129.608055 429.54675 130.220555 428.36675 
Q 130.835555 427.18675 130.835555 426.06175 
Q 130.835555 425.24175 130.328055 424.69925 
Q 129.820555 424.15425 129.085555 424.15425 
Q 127.883055 424.15425 127.218055 425.35925 
L 126.928055 425.25675 
Q 127.350555 423.75675 128.210555 423.03925 
Q 129.070555 422.31925 130.195555 422.31925 
Q 130.998055 422.31925 131.663055 422.69425 
Q 132.328055 423.06925 132.703055 423.72175 
Q 133.078055 424.37425 133.078055 424.94425 
Q 133.078055 425.98425 132.498055 427.05425 
Q 131.710555 428.49925 129.053055 431.08425 
L 131.343055 431.08425 
Q 132.185555 431.08425 132.440555 431.01425 
Q 132.695555 430.94425 132.858055 430.77675 
Q 133.023055 430.60925 133.288055 430.06925 
L 133.570555 430.06925 
L 132.975555 433.13175 
z
" style="stroke: #ffffff; stroke-width: 3.8"/>
    <path d="M 112.975555 433.13175 
L 106.740555 433.13175 
L 106.740555 432.95925 
Q 109.608055 429.54675 110.220555 428.36675 
Q 110.835555 427.18675 110.835555 426.06175 
Q 110.835555 425.24175 110.328055 424.69925 
Q 109.820555 424.15425 109.085555 424.15425 
Q 107.883055 424.15425 107.218055 425.35925 
L 106.928055 425.25675 
Q 107.350555 423.75675 108.210555 423.03925 
Q 109.070555 422.31925 110.195555 422.31925 
Q 110.998055 422.31925 111.663055 422.69425 
Q 112.328055 423.06925 112.703055 423.72175 
Q 113.078055 424.37425 113.078055 424.94425 
Q 113.078055 425.98425 112.498055 427.05425 
Q 111.710555 428.49925 109.053055 431.08425 
L 111.343055 431.08425 
Q 112.185555 431.08425 112.440555 431.01425 
Q 112.695555 430.94425 112.858055 430.77675 
Q 113.023055 430.60925 113.288055 430.06925 
L 113.570555 430.06925 
L 112.975555 433.13175 
z
M 116.788055 422.53675 
L 121.748055 422.53675 
L 120.960555 424.55425 
L 116.788055 424.55425 
L 116.390555 425.60925 
Q 119.085555 425.70925 120.538055 426.95175 
Q 121.733055 427.97425 121.733055 429.49925 
Q 121.733055 430.47425 121.178055 431.40925 
Q 120.623055 432.34175 119.615555 432.84675 
Q 118.608055 433.35175 117.405555 433.35175 
Q 116.108055 433.35175 115.413055 432.86675 
Q 114.928055 432.52175 114.928055 432.08425 
Q 114.928055 431.74925 115.180555 431.49175 
Q 115.435555 431.23425 115.773055 431.23425 
Q 116.078055 431.23425 116.390555 431.35925 
Q 116.703055 431.48425 117.460555 432.01425 
Q 117.935555 432.34175 118.280555 432.46675 
Q 118.523055 432.56175 118.828055 432.56175 
Q 119.468055 432.56175 119.915555 432.09425 
Q 120.365555 431.62425 120.365555 430.96675 
Q 120.365555 429.59175 118.990555 428.73425 
Q 117.615555 427.87425 115.523055 427.87425 
Q 115.310555 427.87425 114.890555 427.88175 
L 116.788055 422.53675 
z
M 124.350555 430.72425 
Q 124.898055 430.72425 125.275555 431.10925 
Q 125.655555 431.49175 125.655555 432.02925 
Q 125.655555 432.56925 125.273055 432.94925 
Q 124.890555 433.32675 124.350555 433.32675 
Q 123.810555 433.32675 123.430555 432.94925 
Q 123.053055 432.56925 123.053055 432.02925 
Q 123.053055 431.49175 123.430555 431.10925 
Q 123.810555 430.72425 124.350555 430.72425 
z
M 132.975555 433.13175 
L 126.740555 433.13175 
L 126.740555 432.95925 
Q 129.608055 429.54675 130.220555 428.36675 
Q 130.835555 427.18675 130.835555 426.06175 
Q 130.835555 425.24175 130.328055 424.69925 
Q 129.820555 424.15425 129.085555 424.15425 
Q 127.883055 424.15425 127.218055 425.35925 
L 126.928055 425.25675 
Q 127.350555 423.75675 128.210555 423.03925 
Q 129.070555 422.31925 130.195555 422.31925 
Q 130.998055 422.31925 131.663055 422.69425 
Q 132.328055 423.06925 132.703055 423.72175 
Q 133.078055 424.37425 133.078055 424.94425 
Q 133.078055 425.98425 132.498055 427.05425 
Q 131.710555 428.49925 129.053055 431.08425 
L 131.343055 431.08425 
Q 132.185555 431.08425 132.440555 431.01425 
Q 132.695555 430.94425 132.858055 430.77675 
Q 133.023055 430.60925 133.288055 430.06925 
L 133.570555 430.06925 
L 132.975555 433.13175 
z
"/>
   </g>
   <g id="text_21">
    <path d="M 113.865555 323.849242 
L 113.865555 324.066742 
Q 112.453055 324.426742 111.595555 324.994242 
Q 110.740555 325.559242 110.243055 326.369242 
Q 109.748055 327.176742 109.475555 328.371742 
Q 109.820555 328.139242 110.045555 328.066742 
Q 110.553055 327.911742 111.070555 327.911742 
Q 112.258055 327.911742 113.050555 328.776742 
Q 113.843055 329.639242 113.843055 331.129242 
Q 113.843055 332.176742 113.413055 333.051742 
Q 112.983055 333.926742 112.193055 334.404242 
Q 111.405555 334.881742 110.508055 334.881742 
Q 109.530555 334.881742 108.700555 334.346742 
Q 107.873055 333.809242 107.408055 332.779242 
Q 106.945555 331.746742 106.945555 330.536742 
Q 106.945555 328.754242 107.800555 327.219242 
Q 108.655555 325.684242 110.228055 324.774242 
Q 111.803055 323.864242 113.865555 323.849242 
z
M 109.373055 329.004242 
Q 109.310555 330.084242 109.310555 330.584242 
Q 109.310555 331.661742 109.518055 332.669242 
Q 109.725555 333.676742 110.085555 334.084242 
Q 110.343055 334.371742 110.695555 334.371742 
Q 111.053055 334.371742 111.333055 333.954242 
Q 111.615555 333.536742 111.615555 332.254242 
Q 111.615555 330.099242 111.093055 329.279242 
Q 110.758055 328.746742 110.185555 328.746742 
Q 109.873055 328.746742 109.373055 329.004242 
z
M 114.843055 334.881742 
L 114.843055 334.661742 
Q 116.140555 334.364242 117.043055 333.786742 
Q 117.945555 333.209242 118.470555 332.356742 
Q 118.998055 331.504242 119.210555 330.396742 
Q 118.725555 330.646742 118.385555 330.744242 
Q 118.045555 330.841742 117.670555 330.841742 
Q 116.468055 330.841742 115.665555 329.974242 
Q 114.865555 329.106742 114.865555 327.599242 
Q 114.865555 326.551742 115.298055 325.681742 
Q 115.733055 324.809242 116.538055 324.329242 
Q 117.343055 323.849242 118.210555 323.849242 
Q 119.140555 323.849242 119.968055 324.381742 
Q 120.795555 324.911742 121.288055 325.919242 
Q 121.780555 326.926742 121.780555 328.216742 
Q 121.780555 329.889242 120.978055 331.421742 
Q 120.178055 332.951742 118.593055 333.876742 
Q 117.008055 334.801742 114.843055 334.881742 
z
M 119.328055 329.739242 
Q 119.405555 328.864242 119.405555 328.201742 
Q 119.405555 326.779242 119.078055 325.551742 
Q 118.890555 324.871742 118.523055 324.551742 
Q 118.328055 324.379242 118.015555 324.379242 
Q 117.623055 324.379242 117.405555 324.716742 
Q 117.100555 325.176742 117.100555 326.474242 
Q 117.100555 328.639242 117.615555 329.459242 
Q 117.953055 329.989242 118.523055 329.989242 
Q 118.828055 329.989242 119.328055 329.739242 
z
M 124.350555 332.254242 
Q 124.898055 332.254242 125.275555 332.639242 
Q 125.655555 333.021742 125.655555 333.559242 
Q 125.655555 334.099242 125.273055 334.479242 
Q 124.890555 334.856742 124.350555 334.856742 
Q 123.810555 334.856742 123.430555 334.479242 
Q 123.053055 334.099242 123.053055 333.559242 
Q 123.053055 333.021742 123.430555 332.639242 
Q 123.810555 332.254242 124.350555 332.254242 
z
M 132.975555 334.661742 
L 126.740555 334.661742 
L 126.740555 334.489242 
Q 129.608055 331.076742 130.220555 329.896742 
Q 130.835555 328.716742 130.835555 327.591742 
Q 130.835555 326.771742 130.328055 326.229242 
Q 129.820555 325.684242 129.085555 325.684242 
Q 127.883055 325.684242 127.218055 326.889242 
L 126.928055 326.786742 
Q 127.350555 325.286742 128.210555 324.569242 
Q 129.070555 323.849242 130.195555 323.849242 
Q 130.998055 323.849242 131.663055 324.224242 
Q 132.328055 324.599242 132.703055 325.251742 
Q 133.078055 325.904242 133.078055 326.474242 
Q 133.078055 327.514242 132.498055 328.584242 
Q 131.710555 330.029242 129.053055 332.614242 
L 131.343055 332.614242 
Q 132.185555 332.614242 132.440555 332.544242 
Q 132.695555 332.474242 132.858055 332.306742 
Q 133.023055 332.139242 133.288055 331.599242 
L 133.570555 331.599242 
L 132.975555 334.661742 
z
" style="stroke: #ffffff; stroke-width: 3.8"/>
    <path d="M 113.865555 323.849242 
L 113.865555 324.066742 
Q 112.453055 324.426742 111.595555 324.994242 
Q 110.740555 325.559242 110.243055 326.369242 
Q 109.748055 327.176742 109.475555 328.371742 
Q 109.820555 328.139242 110.045555 328.066742 
Q 110.553055 327.911742 111.070555 327.911742 
Q 112.258055 327.911742 113.050555 328.776742 
Q 113.843055 329.639242 113.843055 331.129242 
Q 113.843055 332.176742 113.413055 333.051742 
Q 112.983055 333.926742 112.193055 334.404242 
Q 111.405555 334.881742 110.508055 334.881742 
Q 109.530555 334.881742 108.700555 334.346742 
Q 107.873055 333.809242 107.408055 332.779242 
Q 106.945555 331.746742 106.945555 330.536742 
Q 106.945555 328.754242 107.800555 327.219242 
Q 108.655555 325.684242 110.228055 324.774242 
Q 111.803055 323.864242 113.865555 323.849242 
z
M 109.373055 329.004242 
Q 109.310555 330.084242 109.310555 330.584242 
Q 109.310555 331.661742 109.518055 332.669242 
Q 109.725555 333.676742 110.085555 334.084242 
Q 110.343055 334.371742 110.695555 334.371742 
Q 111.053055 334.371742 111.333055 333.954242 
Q 111.615555 333.536742 111.615555 332.254242 
Q 111.615555 330.099242 111.093055 329.279242 
Q 110.758055 328.746742 110.185555 328.746742 
Q 109.873055 328.746742 109.373055 329.004242 
z
M 114.843055 334.881742 
L 114.843055 334.661742 
Q 116.140555 334.364242 117.043055 333.786742 
Q 117.945555 333.209242 118.470555 332.356742 
Q 118.998055 331.504242 119.210555 330.396742 
Q 118.725555 330.646742 118.385555 330.744242 
Q 118.045555 330.841742 117.670555 330.841742 
Q 116.468055 330.841742 115.665555 329.974242 
Q 114.865555 329.106742 114.865555 327.599242 
Q 114.865555 326.551742 115.298055 325.681742 
Q 115.733055 324.809242 116.538055 324.329242 
Q 117.343055 323.849242 118.210555 323.849242 
Q 119.140555 323.849242 119.968055 324.381742 
Q 120.795555 324.911742 121.288055 325.919242 
Q 121.780555 326.926742 121.780555 328.216742 
Q 121.780555 329.889242 120.978055 331.421742 
Q 120.178055 332.951742 118.593055 333.876742 
Q 117.008055 334.801742 114.843055 334.881742 
z
M 119.328055 329.739242 
Q 119.405555 328.864242 119.405555 328.201742 
Q 119.405555 326.779242 119.078055 325.551742 
Q 118.890555 324.871742 118.523055 324.551742 
Q 118.328055 324.379242 118.015555 324.379242 
Q 117.623055 324.379242 117.405555 324.716742 
Q 117.100555 325.176742 117.100555 326.474242 
Q 117.100555 328.639242 117.615555 329.459242 
Q 117.953055 329.989242 118.523055 329.989242 
Q 118.828055 329.989242 119.328055 329.739242 
z
M 124.350555 332.254242 
Q 124.898055 332.254242 125.275555 332.639242 
Q 125.655555 333.021742 125.655555 333.559242 
Q 125.655555 334.099242 125.273055 334.479242 
Q 124.890555 334.856742 124.350555 334.856742 
Q 123.810555 334.856742 123.430555 334.479242 
Q 123.053055 334.099242 123.053055 333.559242 
Q 123.053055 333.021742 123.430555 332.639242 
Q 123.810555 332.254242 124.350555 332.254242 
z
M 132.975555 334.661742 
L 126.740555 334.661742 
L 126.740555 334.489242 
Q 129.608055 331.076742 130.220555 329.896742 
Q 130.835555 328.716742 130.835555 327.591742 
Q 130.835555 326.771742 130.328055 326.229242 
Q 129.820555 325.684242 129.085555 325.684242 
Q 127.883055 325.684242 127.218055 326.889242 
L 126.928055 326.786742 
Q 127.350555 325.286742 128.210555 324.569242 
Q 129.070555 323.849242 130.195555 323.849242 
Q 130.998055 323.849242 131.663055 324.224242 
Q 132.328055 324.599242 132.703055 325.251742 
Q 133.078055 325.904242 133.078055 326.474242 
Q 133.078055 327.514242 132.498055 328.584242 
Q 131.710555 330.029242 129.053055 332.614242 
L 131.343055 332.614242 
Q 132.185555 332.614242 132.440555 332.544242 
Q 132.695555 332.474242 132.858055 332.306742 
Q 133.023055 332.139242 133.288055 331.599242 
L 133.570555 331.599242 
L 132.975555 334.661742 
z
"/>
   </g>
   <g id="text_22">
    <path d="M 108.000555 217.914751 
L 108.000555 226.579751 
Q 108.000555 227.554751 108.085555 227.824751 
Q 108.173055 228.094751 108.445555 228.267251 
Q 108.720555 228.437251 109.323055 228.437251 
L 109.563055 228.437251 
L 109.563055 228.727251 
L 103.985555 228.727251 
L 103.985555 228.437251 
L 104.268055 228.437251 
Q 104.948055 228.437251 105.235555 228.282251 
Q 105.525555 228.124751 105.625555 227.852251 
Q 105.728055 227.579751 105.728055 226.579751 
L 105.728055 221.087251 
Q 105.728055 220.352251 105.658055 220.169751 
Q 105.588055 219.984751 105.395555 219.857251 
Q 105.205555 219.727251 104.955555 219.727251 
Q 104.555555 219.727251 103.985555 219.977251 
L 103.845555 219.694751 
L 107.743055 217.914751 
L 108.000555 217.914751 
z
M 115.120555 217.914751 
L 115.120555 226.579751 
Q 115.120555 227.554751 115.205555 227.824751 
Q 115.293055 228.094751 115.565555 228.267251 
Q 115.840555 228.437251 116.443055 228.437251 
L 116.683055 228.437251 
L 116.683055 228.727251 
L 111.105555 228.727251 
L 111.105555 228.437251 
L 111.388055 228.437251 
Q 112.068055 228.437251 112.355555 228.282251 
Q 112.645555 228.124751 112.745555 227.852251 
Q 112.848055 227.579751 112.848055 226.579751 
L 112.848055 221.087251 
Q 112.848055 220.352251 112.778055 220.169751 
Q 112.708055 219.984751 112.515555 219.857251 
Q 112.325555 219.727251 112.075555 219.727251 
Q 111.675555 219.727251 111.105555 219.977251 
L 110.965555 219.694751 
L 114.863055 217.914751 
L 115.120555 217.914751 
z
M 118.403055 228.947251 
L 118.403055 228.727251 
Q 119.700555 228.429751 120.603055 227.852251 
Q 121.505555 227.274751 122.030555 226.422251 
Q 122.558055 225.569751 122.770555 224.462251 
Q 122.285555 224.712251 121.945555 224.809751 
Q 121.605555 224.907251 121.230555 224.907251 
Q 120.028055 224.907251 119.225555 224.039751 
Q 118.425555 223.172251 118.425555 221.664751 
Q 118.425555 220.617251 118.858055 219.747251 
Q 119.293055 218.874751 120.098055 218.394751 
Q 120.903055 217.914751 121.770555 217.914751 
Q 122.700555 217.914751 123.528055 218.447251 
Q 124.355555 218.977251 124.848055 219.984751 
Q 125.340555 220.992251 125.340555 222.282251 
Q 125.340555 223.954751 124.538055 225.487251 
Q 123.738055 227.017251 122.153055 227.942251 
Q 120.568055 228.867251 118.403055 228.947251 
z
M 122.888055 223.804751 
Q 122.965555 222.929751 122.965555 222.267251 
Q 122.965555 220.844751 122.638055 219.617251 
Q 122.450555 218.937251 122.083055 218.617251 
Q 121.888055 218.444751 121.575555 218.444751 
Q 121.183055 218.444751 120.965555 218.782251 
Q 120.660555 219.242251 120.660555 220.539751 
Q 120.660555 222.704751 121.175555 223.524751 
Q 121.513055 224.054751 122.083055 224.054751 
Q 122.388055 224.054751 122.888055 223.804751 
z
M 127.910555 226.319751 
Q 128.458055 226.319751 128.835555 226.704751 
Q 129.215555 227.087251 129.215555 227.624751 
Q 129.215555 228.164751 128.833055 228.544751 
Q 128.450555 228.922251 127.910555 228.922251 
Q 127.370555 228.922251 126.990555 228.544751 
Q 126.613055 228.164751 126.613055 227.624751 
Q 126.613055 227.087251 126.990555 226.704751 
Q 127.370555 226.319751 127.910555 226.319751 
z
M 130.308055 224.734751 
L 135.340555 217.914751 
L 136.293055 217.914751 
L 136.293055 224.734751 
L 137.263055 224.734751 
L 137.263055 226.352251 
L 136.293055 226.352251 
L 136.293055 228.727251 
L 134.145555 228.727251 
L 134.145555 226.352251 
L 130.308055 226.352251 
L 130.308055 224.734751 
z
M 131.068055 224.734751 
L 134.145555 224.734751 
L 134.145555 220.554751 
L 131.068055 224.734751 
z
" style="stroke: #ffffff; stroke-width: 3.8"/>
    <path d="M 108.000555 217.914751 
L 108.000555 226.579751 
Q 108.000555 227.554751 108.085555 227.824751 
Q 108.173055 228.094751 108.445555 228.267251 
Q 108.720555 228.437251 109.323055 228.437251 
L 109.563055 228.437251 
L 109.563055 228.727251 
L 103.985555 228.727251 
L 103.985555 228.437251 
L 104.268055 228.437251 
Q 104.948055 228.437251 105.235555 228.282251 
Q 105.525555 228.124751 105.625555 227.852251 
Q 105.728055 227.579751 105.728055 226.579751 
L 105.728055 221.087251 
Q 105.728055 220.352251 105.658055 220.169751 
Q 105.588055 219.984751 105.395555 219.857251 
Q 105.205555 219.727251 104.955555 219.727251 
Q 104.555555 219.727251 103.985555 219.977251 
L 103.845555 219.694751 
L 107.743055 217.914751 
L 108.000555 217.914751 
z
M 115.120555 217.914751 
L 115.120555 226.579751 
Q 115.120555 227.554751 115.205555 227.824751 
Q 115.293055 228.094751 115.565555 228.267251 
Q 115.840555 228.437251 116.443055 228.437251 
L 116.683055 228.437251 
L 116.683055 228.727251 
L 111.105555 228.727251 
L 111.105555 228.437251 
L 111.388055 228.437251 
Q 112.068055 228.437251 112.355555 228.282251 
Q 112.645555 228.124751 112.745555 227.852251 
Q 112.848055 227.579751 112.848055 226.579751 
L 112.848055 221.087251 
Q 112.848055 220.352251 112.778055 220.169751 
Q 112.708055 219.984751 112.515555 219.857251 
Q 112.325555 219.727251 112.075555 219.727251 
Q 111.675555 219.727251 111.105555 219.977251 
L 110.965555 219.694751 
L 114.863055 217.914751 
L 115.120555 217.914751 
z
M 118.403055 228.947251 
L 118.403055 228.727251 
Q 119.700555 228.429751 120.603055 227.852251 
Q 121.505555 227.274751 122.030555 226.422251 
Q 122.558055 225.569751 122.770555 224.462251 
Q 122.285555 224.712251 121.945555 224.809751 
Q 121.605555 224.907251 121.230555 224.907251 
Q 120.028055 224.907251 119.225555 224.039751 
Q 118.425555 223.172251 118.425555 221.664751 
Q 118.425555 220.617251 118.858055 219.747251 
Q 119.293055 218.874751 120.098055 218.394751 
Q 120.903055 217.914751 121.770555 217.914751 
Q 122.700555 217.914751 123.528055 218.447251 
Q 124.355555 218.977251 124.848055 219.984751 
Q 125.340555 220.992251 125.340555 222.282251 
Q 125.340555 223.954751 124.538055 225.487251 
Q 123.738055 227.017251 122.153055 227.942251 
Q 120.568055 228.867251 118.403055 228.947251 
z
M 122.888055 223.804751 
Q 122.965555 222.929751 122.965555 222.267251 
Q 122.965555 220.844751 122.638055 219.617251 
Q 122.450555 218.937251 122.083055 218.617251 
Q 121.888055 218.444751 121.575555 218.444751 
Q 121.183055 218.444751 120.965555 218.782251 
Q 120.660555 219.242251 120.660555 220.539751 
Q 120.660555 222.704751 121.175555 223.524751 
Q 121.513055 224.054751 122.083055 224.054751 
Q 122.388055 224.054751 122.888055 223.804751 
z
M 127.910555 226.319751 
Q 128.458055 226.319751 128.835555 226.704751 
Q 129.215555 227.087251 129.215555 227.624751 
Q 129.215555 228.164751 128.833055 228.544751 
Q 128.450555 228.922251 127.910555 228.922251 
Q 127.370555 228.922251 126.990555 228.544751 
Q 126.613055 228.164751 126.613055 227.624751 
Q 126.613055 227.087251 126.990555 226.704751 
Q 127.370555 226.319751 127.910555 226.319751 
z
M 130.308055 224.734751 
L 135.340555 217.914751 
L 136.293055 217.914751 
L 136.293055 224.734751 
L 137.263055 224.734751 
L 137.263055 226.352251 
L 136.293055 226.352251 
L 136.293055 228.727251 
L 134.145555 228.727251 
L 134.145555 226.352251 
L 130.308055 226.352251 
L 130.308055 224.734751 
z
M 131.068055 224.734751 
L 134.145555 224.734751 
L 134.145555 220.554751 
L 131.068055 224.734751 
z
"/>
   </g>
   <g id="text_23">
    <path d="M 361.434697 332.307919 
L 361.434697 340.972919 
Q 361.434697 341.947919 361.519697 342.217919 
Q 361.607197 342.487919 361.879697 342.660419 
Q 362.154697 342.830419 362.757197 342.830419 
L 362.997197 342.830419 
L 362.997197 343.120419 
L 357.419697 343.120419 
L 357.419697 342.830419 
L 357.702197 342.830419 
Q 358.382197 342.830419 358.669697 342.675419 
Q 358.959697 342.517919 359.059697 342.245419 
Q 359.162197 341.972919 359.162197 340.972919 
L 359.162197 335.480419 
Q 359.162197 334.745419 359.092197 334.562919 
Q 359.022197 334.377919 358.829697 334.250419 
Q 358.639697 334.120419 358.389697 334.120419 
Q 357.989697 334.120419 357.419697 334.370419 
L 357.279697 334.087919 
L 361.177197 332.307919 
L 361.434697 332.307919 
z
M 369.677197 337.135419 
Q 370.794697 337.955419 371.227197 338.662919 
Q 371.662197 339.370419 371.662197 340.285419 
Q 371.662197 341.565419 370.697197 342.452919 
Q 369.732197 343.340419 368.077197 343.340419 
Q 366.507197 343.340419 365.647197 342.567919 
Q 364.787197 341.792919 364.787197 340.675419 
Q 364.787197 339.822919 365.282197 339.182919 
Q 365.779697 338.542919 366.934697 338.010419 
Q 365.677197 337.050419 365.322197 336.440419 
Q 364.967197 335.830419 364.967197 335.025419 
Q 364.967197 333.962919 365.869697 333.155419 
Q 366.772197 332.347919 368.342197 332.347919 
Q 369.857197 332.347919 370.672197 333.062919 
Q 371.489697 333.775419 371.489697 334.775419 
Q 371.489697 335.525419 371.047197 336.100419 
Q 370.607197 336.675419 369.677197 337.135419 
z
M 369.084697 336.737919 
Q 369.372197 336.347919 369.512197 335.862919 
Q 369.654697 335.377919 369.654697 334.800419 
Q 369.654697 333.785419 369.217197 333.245419 
Q 368.889697 332.830419 368.309697 332.830419 
Q 367.787197 332.830419 367.419697 333.210419 
Q 367.052197 333.587919 367.052197 334.150419 
Q 367.052197 334.722919 367.462197 335.335419 
Q 367.872197 335.947919 369.084697 336.737919 
z
M 367.522197 338.385419 
Q 367.279697 338.605419 367.177197 338.785419 
Q 367.022197 339.057919 366.897197 339.582919 
Q 366.772197 340.105419 366.772197 340.675419 
Q 366.772197 341.410419 366.959697 341.905419 
Q 367.147197 342.400419 367.494697 342.620419 
Q 367.842197 342.837919 368.209697 342.837919 
Q 368.779697 342.837919 369.169697 342.420419 
Q 369.559697 342.002919 369.559697 341.275419 
Q 369.559697 339.760419 367.522197 338.385419 
z
M 374.224697 340.712919 
Q 374.772197 340.712919 375.149697 341.097919 
Q 375.529697 341.480419 375.529697 342.017919 
Q 375.529697 342.557919 375.147197 342.937919 
Q 374.764697 343.315419 374.224697 343.315419 
Q 373.684697 343.315419 373.304697 342.937919 
Q 372.927197 342.557919 372.927197 342.017919 
Q 372.927197 341.480419 373.304697 341.097919 
Q 373.684697 340.712919 374.224697 340.712919 
z
M 378.592197 337.807919 
L 378.592197 337.535419 
Q 379.482197 337.275419 379.824697 337.052919 
Q 380.169697 336.830419 380.419697 336.375419 
Q 380.669697 335.917919 380.669697 335.447919 
Q 380.669697 334.800419 380.197197 334.335419 
Q 379.724697 333.870419 379.022197 333.870419 
Q 377.927197 333.870419 377.162197 335.025419 
L 376.872197 334.925419 
Q 377.434697 333.620419 378.314697 332.965419 
Q 379.194697 332.307919 380.272197 332.307919 
Q 381.372197 332.307919 382.087197 332.980419 
Q 382.802197 333.650419 382.802197 334.550419 
Q 382.802197 335.135419 382.469697 335.680419 
Q 382.139697 336.222919 381.427197 336.635419 
Q 382.342197 337.080419 382.822197 337.732919 
Q 383.302197 338.385419 383.302197 339.370419 
Q 383.302197 341.025419 382.102197 342.187919 
Q 380.904697 343.347919 378.889697 343.347919 
Q 377.544697 343.347919 376.927197 342.900419 
Q 376.482197 342.587919 376.482197 342.097919 
Q 376.482197 341.737919 376.739697 341.485419 
Q 376.997197 341.230419 377.334697 341.230419 
Q 377.592197 341.230419 377.819697 341.337919 
Q 377.944697 341.400419 378.704697 342.022919 
Q 379.467197 342.642919 380.132197 342.642919 
Q 380.709697 342.642919 381.122197 342.187919 
Q 381.537197 341.730419 381.537197 341.025419 
Q 381.537197 339.955419 380.787197 339.052919 
Q 380.037197 338.150419 378.592197 337.807919 
z
" style="stroke: #ffffff; stroke-width: 3.8"/>
    <path d="M 361.434697 332.307919 
L 361.434697 340.972919 
Q 361.434697 341.947919 361.519697 342.217919 
Q 361.607197 342.487919 361.879697 342.660419 
Q 362.154697 342.830419 362.757197 342.830419 
L 362.997197 342.830419 
L 362.997197 343.120419 
L 357.419697 343.120419 
L 357.419697 342.830419 
L 357.702197 342.830419 
Q 358.382197 342.830419 358.669697 342.675419 
Q 358.959697 342.517919 359.059697 342.245419 
Q 359.162197 341.972919 359.162197 340.972919 
L 359.162197 335.480419 
Q 359.162197 334.745419 359.092197 334.562919 
Q 359.022197 334.377919 358.829697 334.250419 
Q 358.639697 334.120419 358.389697 334.120419 
Q 357.989697 334.120419 357.419697 334.370419 
L 357.279697 334.087919 
L 361.177197 332.307919 
L 361.434697 332.307919 
z
M 369.677197 337.135419 
Q 370.794697 337.955419 371.227197 338.662919 
Q 371.662197 339.370419 371.662197 340.285419 
Q 371.662197 341.565419 370.697197 342.452919 
Q 369.732197 343.340419 368.077197 343.340419 
Q 366.507197 343.340419 365.647197 342.567919 
Q 364.787197 341.792919 364.787197 340.675419 
Q 364.787197 339.822919 365.282197 339.182919 
Q 365.779697 338.542919 366.934697 338.010419 
Q 365.677197 337.050419 365.322197 336.440419 
Q 364.967197 335.830419 364.967197 335.025419 
Q 364.967197 333.962919 365.869697 333.155419 
Q 366.772197 332.347919 368.342197 332.347919 
Q 369.857197 332.347919 370.672197 333.062919 
Q 371.489697 333.775419 371.489697 334.775419 
Q 371.489697 335.525419 371.047197 336.100419 
Q 370.607197 336.675419 369.677197 337.135419 
z
M 369.084697 336.737919 
Q 369.372197 336.347919 369.512197 335.862919 
Q 369.654697 335.377919 369.654697 334.800419 
Q 369.654697 333.785419 369.217197 333.245419 
Q 368.889697 332.830419 368.309697 332.830419 
Q 367.787197 332.830419 367.419697 333.210419 
Q 367.052197 333.587919 367.052197 334.150419 
Q 367.052197 334.722919 367.462197 335.335419 
Q 367.872197 335.947919 369.084697 336.737919 
z
M 367.522197 338.385419 
Q 367.279697 338.605419 367.177197 338.785419 
Q 367.022197 339.057919 366.897197 339.582919 
Q 366.772197 340.105419 366.772197 340.675419 
Q 366.772197 341.410419 366.959697 341.905419 
Q 367.147197 342.400419 367.494697 342.620419 
Q 367.842197 342.837919 368.209697 342.837919 
Q 368.779697 342.837919 369.169697 342.420419 
Q 369.559697 342.002919 369.559697 341.275419 
Q 369.559697 339.760419 367.522197 338.385419 
z
M 374.224697 340.712919 
Q 374.772197 340.712919 375.149697 341.097919 
Q 375.529697 341.480419 375.529697 342.017919 
Q 375.529697 342.557919 375.147197 342.937919 
Q 374.764697 343.315419 374.224697 343.315419 
Q 373.684697 343.315419 373.304697 342.937919 
Q 372.927197 342.557919 372.927197 342.017919 
Q 372.927197 341.480419 373.304697 341.097919 
Q 373.684697 340.712919 374.224697 340.712919 
z
M 378.592197 337.807919 
L 378.592197 337.535419 
Q 379.482197 337.275419 379.824697 337.052919 
Q 380.169697 336.830419 380.419697 336.375419 
Q 380.669697 335.917919 380.669697 335.447919 
Q 380.669697 334.800419 380.197197 334.335419 
Q 379.724697 333.870419 379.022197 333.870419 
Q 377.927197 333.870419 377.162197 335.025419 
L 376.872197 334.925419 
Q 377.434697 333.620419 378.314697 332.965419 
Q 379.194697 332.307919 380.272197 332.307919 
Q 381.372197 332.307919 382.087197 332.980419 
Q 382.802197 333.650419 382.802197 334.550419 
Q 382.802197 335.135419 382.469697 335.680419 
Q 382.139697 336.222919 381.427197 336.635419 
Q 382.342197 337.080419 382.822197 337.732919 
Q 383.302197 338.385419 383.302197 339.370419 
Q 383.302197 341.025419 382.102197 342.187919 
Q 380.904697 343.347919 378.889697 343.347919 
Q 377.544697 343.347919 376.927197 342.900419 
Q 376.482197 342.587919 376.482197 342.097919 
Q 376.482197 341.737919 376.739697 341.485419 
Q 376.997197 341.230419 377.334697 341.230419 
Q 377.592197 341.230419 377.819697 341.337919 
Q 377.944697 341.400419 378.704697 342.022919 
Q 379.467197 342.642919 380.132197 342.642919 
Q 380.709697 342.642919 381.122197 342.187919 
Q 381.537197 341.730419 381.537197 341.025419 
Q 381.537197 339.955419 380.787197 339.052919 
Q 380.037197 338.150419 378.592197 337.807919 
z
"/>
   </g>
   <g id="text_24">
    <path d="M 363.739697 261.324841 
L 363.739697 261.542341 
Q 362.327197 261.902341 361.469697 262.469841 
Q 360.614697 263.034841 360.117197 263.844841 
Q 359.622197 264.652341 359.349697 265.847341 
Q 359.694697 265.614841 359.919697 265.542341 
Q 360.427197 265.387341 360.944697 265.387341 
Q 362.132197 265.387341 362.924697 266.252341 
Q 363.717197 267.114841 363.717197 268.604841 
Q 363.717197 269.652341 363.287197 270.527341 
Q 362.857197 271.402341 362.067197 271.879841 
Q 361.279697 272.357341 360.382197 272.357341 
Q 359.404697 272.357341 358.574697 271.822341 
Q 357.747197 271.284841 357.282197 270.254841 
Q 356.819697 269.222341 356.819697 268.012341 
Q 356.819697 266.229841 357.674697 264.694841 
Q 358.529697 263.159841 360.102197 262.249841 
Q 361.677197 261.339841 363.739697 261.324841 
z
M 359.247197 266.479841 
Q 359.184697 267.559841 359.184697 268.059841 
Q 359.184697 269.137341 359.392197 270.144841 
Q 359.599697 271.152341 359.959697 271.559841 
Q 360.217197 271.847341 360.569697 271.847341 
Q 360.927197 271.847341 361.207197 271.429841 
Q 361.489697 271.012341 361.489697 269.729841 
Q 361.489697 267.574841 360.967197 266.754841 
Q 360.632197 266.222341 360.059697 266.222341 
Q 359.747197 266.222341 359.247197 266.479841 
z
M 364.622197 268.144841 
L 369.654697 261.324841 
L 370.607197 261.324841 
L 370.607197 268.144841 
L 371.577197 268.144841 
L 371.577197 269.762341 
L 370.607197 269.762341 
L 370.607197 272.137341 
L 368.459697 272.137341 
L 368.459697 269.762341 
L 364.622197 269.762341 
L 364.622197 268.144841 
z
M 365.382197 268.144841 
L 368.459697 268.144841 
L 368.459697 263.964841 
L 365.382197 268.144841 
z
M 374.224697 269.729841 
Q 374.772197 269.729841 375.149697 270.114841 
Q 375.529697 270.497341 375.529697 271.034841 
Q 375.529697 271.574841 375.147197 271.954841 
Q 374.764697 272.332341 374.224697 272.332341 
Q 373.684697 272.332341 373.304697 271.954841 
Q 372.927197 271.574841 372.927197 271.034841 
Q 372.927197 270.497341 373.304697 270.114841 
Q 373.684697 269.729841 374.224697 269.729841 
z
M 383.639697 266.839841 
Q 383.639697 268.427341 383.194697 269.802341 
Q 382.927197 270.644841 382.477197 271.184841 
Q 382.029697 271.722341 381.459697 272.039841 
Q 380.889697 272.357341 380.217197 272.357341 
Q 379.452197 272.357341 378.834697 271.967341 
Q 378.217197 271.574841 377.739697 270.847341 
Q 377.397197 270.317341 377.139697 269.434841 
Q 376.802197 268.239841 376.802197 266.964841 
Q 376.802197 265.239841 377.287197 263.792341 
Q 377.684697 262.597341 378.497197 261.962341 
Q 379.309697 261.324841 380.217197 261.324841 
Q 381.139697 261.324841 381.939697 261.954841 
Q 382.739697 262.582341 383.114697 263.644841 
Q 383.639697 265.104841 383.639697 266.839841 
z
M 381.232197 266.824841 
Q 381.232197 264.042341 381.202197 263.582341 
Q 381.122197 262.497341 380.827197 262.114841 
Q 380.632197 261.864841 380.194697 261.864841 
Q 379.857197 261.864841 379.662197 262.052341 
Q 379.372197 262.324841 379.269697 263.017341 
Q 379.169697 263.707341 379.169697 267.839841 
Q 379.169697 270.089841 379.327197 270.854841 
Q 379.444697 271.409841 379.662197 271.597341 
Q 379.882197 271.784841 380.239697 271.784841 
Q 380.632197 271.784841 380.827197 271.534841 
Q 381.154697 271.097341 381.202197 270.184841 
L 381.232197 266.824841 
z
" style="stroke: #ffffff; stroke-width: 3.8"/>
    <path d="M 363.739697 261.324841 
L 363.739697 261.542341 
Q 362.327197 261.902341 361.469697 262.469841 
Q 360.614697 263.034841 360.117197 263.844841 
Q 359.622197 264.652341 359.349697 265.847341 
Q 359.694697 265.614841 359.919697 265.542341 
Q 360.427197 265.387341 360.944697 265.387341 
Q 362.132197 265.387341 362.924697 266.252341 
Q 363.717197 267.114841 363.717197 268.604841 
Q 363.717197 269.652341 363.287197 270.527341 
Q 362.857197 271.402341 362.067197 271.879841 
Q 361.279697 272.357341 360.382197 272.357341 
Q 359.404697 272.357341 358.574697 271.822341 
Q 357.747197 271.284841 357.282197 270.254841 
Q 356.819697 269.222341 356.819697 268.012341 
Q 356.819697 266.229841 357.674697 264.694841 
Q 358.529697 263.159841 360.102197 262.249841 
Q 361.677197 261.339841 363.739697 261.324841 
z
M 359.247197 266.479841 
Q 359.184697 267.559841 359.184697 268.059841 
Q 359.184697 269.137341 359.392197 270.144841 
Q 359.599697 271.152341 359.959697 271.559841 
Q 360.217197 271.847341 360.569697 271.847341 
Q 360.927197 271.847341 361.207197 271.429841 
Q 361.489697 271.012341 361.489697 269.729841 
Q 361.489697 267.574841 360.967197 266.754841 
Q 360.632197 266.222341 360.059697 266.222341 
Q 359.747197 266.222341 359.247197 266.479841 
z
M 364.622197 268.144841 
L 369.654697 261.324841 
L 370.607197 261.324841 
L 370.607197 268.144841 
L 371.577197 268.144841 
L 371.577197 269.762341 
L 370.607197 269.762341 
L 370.607197 272.137341 
L 368.459697 272.137341 
L 368.459697 269.762341 
L 364.622197 269.762341 
L 364.622197 268.144841 
z
M 365.382197 268.144841 
L 368.459697 268.144841 
L 368.459697 263.964841 
L 365.382197 268.144841 
z
M 374.224697 269.729841 
Q 374.772197 269.729841 375.149697 270.114841 
Q 375.529697 270.497341 375.529697 271.034841 
Q 375.529697 271.574841 375.147197 271.954841 
Q 374.764697 272.332341 374.224697 272.332341 
Q 373.684697 272.332341 373.304697 271.954841 
Q 372.927197 271.574841 372.927197 271.034841 
Q 372.927197 270.497341 373.304697 270.114841 
Q 373.684697 269.729841 374.224697 269.729841 
z
M 383.639697 266.839841 
Q 383.639697 268.427341 383.194697 269.802341 
Q 382.927197 270.644841 382.477197 271.184841 
Q 382.029697 271.722341 381.459697 272.039841 
Q 380.889697 272.357341 380.217197 272.357341 
Q 379.452197 272.357341 378.834697 271.967341 
Q 378.217197 271.574841 377.739697 270.847341 
Q 377.397197 270.317341 377.139697 269.434841 
Q 376.802197 268.239841 376.802197 266.964841 
Q 376.802197 265.239841 377.287197 263.792341 
Q 377.684697 262.597341 378.497197 261.962341 
Q 379.309697 261.324841 380.217197 261.324841 
Q 381.139697 261.324841 381.939697 261.954841 
Q 382.739697 262.582341 383.114697 263.644841 
Q 383.639697 265.104841 383.639697 266.839841 
z
M 381.232197 266.824841 
Q 381.232197 264.042341 381.202197 263.582341 
Q 381.122197 262.497341 380.827197 262.114841 
Q 380.632197 261.864841 380.194697 261.864841 
Q 379.857197 261.864841 379.662197 262.052341 
Q 379.372197 262.324841 379.269697 263.017341 
Q 379.169697 263.707341 379.169697 267.839841 
Q 379.169697 270.089841 379.327197 270.854841 
Q 379.444697 271.409841 379.662197 271.597341 
Q 379.882197 271.784841 380.239697 271.784841 
Q 380.632197 271.784841 380.827197 271.534841 
Q 381.154697 271.097341 381.202197 270.184841 
L 381.232197 266.824841 
z
"/>
   </g>
   <g id="text_25">
    <path d="M 361.677197 156.940782 
Q 362.794697 157.760782 363.227197 158.468282 
Q 363.662197 159.175782 363.662197 160.090782 
Q 363.662197 161.370782 362.697197 162.258282 
Q 361.732197 163.145782 360.077197 163.145782 
Q 358.507197 163.145782 357.647197 162.373282 
Q 356.787197 161.598282 356.787197 160.480782 
Q 356.787197 159.628282 357.282197 158.988282 
Q 357.779697 158.348282 358.934697 157.815782 
Q 357.677197 156.855782 357.322197 156.245782 
Q 356.967197 155.635782 356.967197 154.830782 
Q 356.967197 153.768282 357.869697 152.960782 
Q 358.772197 152.153282 360.342197 152.153282 
Q 361.857197 152.153282 362.672197 152.868282 
Q 363.489697 153.580782 363.489697 154.580782 
Q 363.489697 155.330782 363.047197 155.905782 
Q 362.607197 156.480782 361.677197 156.940782 
z
M 361.084697 156.543282 
Q 361.372197 156.153282 361.512197 155.668282 
Q 361.654697 155.183282 361.654697 154.605782 
Q 361.654697 153.590782 361.217197 153.050782 
Q 360.889697 152.635782 360.309697 152.635782 
Q 359.787197 152.635782 359.419697 153.015782 
Q 359.052197 153.393282 359.052197 153.955782 
Q 359.052197 154.528282 359.462197 155.140782 
Q 359.872197 155.753282 361.084697 156.543282 
z
M 359.522197 158.190782 
Q 359.279697 158.410782 359.177197 158.590782 
Q 359.022197 158.863282 358.897197 159.388282 
Q 358.772197 159.910782 358.772197 160.480782 
Q 358.772197 161.215782 358.959697 161.710782 
Q 359.147197 162.205782 359.494697 162.425782 
Q 359.842197 162.643282 360.209697 162.643282 
Q 360.779697 162.643282 361.169697 162.225782 
Q 361.559697 161.808282 361.559697 161.080782 
Q 361.559697 159.565782 359.522197 158.190782 
z
M 369.677197 156.940782 
Q 370.794697 157.760782 371.227197 158.468282 
Q 371.662197 159.175782 371.662197 160.090782 
Q 371.662197 161.370782 370.697197 162.258282 
Q 369.732197 163.145782 368.077197 163.145782 
Q 366.507197 163.145782 365.647197 162.373282 
Q 364.787197 161.598282 364.787197 160.480782 
Q 364.787197 159.628282 365.282197 158.988282 
Q 365.779697 158.348282 366.934697 157.815782 
Q 365.677197 156.855782 365.322197 156.245782 
Q 364.967197 155.635782 364.967197 154.830782 
Q 364.967197 153.768282 365.869697 152.960782 
Q 366.772197 152.153282 368.342197 152.153282 
Q 369.857197 152.153282 370.672197 152.868282 
Q 371.489697 153.580782 371.489697 154.580782 
Q 371.489697 155.330782 371.047197 155.905782 
Q 370.607197 156.480782 369.677197 156.940782 
z
M 369.084697 156.543282 
Q 369.372197 156.153282 369.512197 155.668282 
Q 369.654697 155.183282 369.654697 154.605782 
Q 369.654697 153.590782 369.217197 153.050782 
Q 368.889697 152.635782 368.309697 152.635782 
Q 367.787197 152.635782 367.419697 153.015782 
Q 367.052197 153.393282 367.052197 153.955782 
Q 367.052197 154.528282 367.462197 155.140782 
Q 367.872197 155.753282 369.084697 156.543282 
z
M 367.522197 158.190782 
Q 367.279697 158.410782 367.177197 158.590782 
Q 367.022197 158.863282 366.897197 159.388282 
Q 366.772197 159.910782 366.772197 160.480782 
Q 366.772197 161.215782 366.959697 161.710782 
Q 367.147197 162.205782 367.494697 162.425782 
Q 367.842197 162.643282 368.209697 162.643282 
Q 368.779697 162.643282 369.169697 162.225782 
Q 369.559697 161.808282 369.559697 161.080782 
Q 369.559697 159.565782 367.522197 158.190782 
z
M 374.224697 160.518282 
Q 374.772197 160.518282 375.149697 160.903282 
Q 375.529697 161.285782 375.529697 161.823282 
Q 375.529697 162.363282 375.147197 162.743282 
Q 374.764697 163.120782 374.224697 163.120782 
Q 373.684697 163.120782 373.304697 162.743282 
Q 372.927197 162.363282 372.927197 161.823282 
Q 372.927197 161.285782 373.304697 160.903282 
Q 373.684697 160.518282 374.224697 160.518282 
z
M 378.592197 157.613282 
L 378.592197 157.340782 
Q 379.482197 157.080782 379.824697 156.858282 
Q 380.169697 156.635782 380.419697 156.180782 
Q 380.669697 155.723282 380.669697 155.253282 
Q 380.669697 154.605782 380.197197 154.140782 
Q 379.724697 153.675782 379.022197 153.675782 
Q 377.927197 153.675782 377.162197 154.830782 
L 376.872197 154.730782 
Q 377.434697 153.425782 378.314697 152.770782 
Q 379.194697 152.113282 380.272197 152.113282 
Q 381.372197 152.113282 382.087197 152.785782 
Q 382.802197 153.455782 382.802197 154.355782 
Q 382.802197 154.940782 382.469697 155.485782 
Q 382.139697 156.028282 381.427197 156.440782 
Q 382.342197 156.885782 382.822197 157.538282 
Q 383.302197 158.190782 383.302197 159.175782 
Q 383.302197 160.830782 382.102197 161.993282 
Q 380.904697 163.153282 378.889697 163.153282 
Q 377.544697 163.153282 376.927197 162.705782 
Q 376.482197 162.393282 376.482197 161.903282 
Q 376.482197 161.543282 376.739697 161.290782 
Q 376.997197 161.035782 377.334697 161.035782 
Q 377.592197 161.035782 377.819697 161.143282 
Q 377.944697 161.205782 378.704697 161.828282 
Q 379.467197 162.448282 380.132197 162.448282 
Q 380.709697 162.448282 381.122197 161.993282 
Q 381.537197 161.535782 381.537197 160.830782 
Q 381.537197 159.760782 380.787197 158.858282 
Q 380.037197 157.955782 378.592197 157.613282 
z
" style="stroke: #ffffff; stroke-width: 3.8"/>
    <path d="M 361.677197 156.940782 
Q 362.794697 157.760782 363.227197 158.468282 
Q 363.662197 159.175782 363.662197 160.090782 
Q 363.662197 161.370782 362.697197 162.258282 
Q 361.732197 163.145782 360.077197 163.145782 
Q 358.507197 163.145782 357.647197 162.373282 
Q 356.787197 161.598282 356.787197 160.480782 
Q 356.787197 159.628282 357.282197 158.988282 
Q 357.779697 158.348282 358.934697 157.815782 
Q 357.677197 156.855782 357.322197 156.245782 
Q 356.967197 155.635782 356.967197 154.830782 
Q 356.967197 153.768282 357.869697 152.960782 
Q 358.772197 152.153282 360.342197 152.153282 
Q 361.857197 152.153282 362.672197 152.868282 
Q 363.489697 153.580782 363.489697 154.580782 
Q 363.489697 155.330782 363.047197 155.905782 
Q 362.607197 156.480782 361.677197 156.940782 
z
M 361.084697 156.543282 
Q 361.372197 156.153282 361.512197 155.668282 
Q 361.654697 155.183282 361.654697 154.605782 
Q 361.654697 153.590782 361.217197 153.050782 
Q 360.889697 152.635782 360.309697 152.635782 
Q 359.787197 152.635782 359.419697 153.015782 
Q 359.052197 153.393282 359.052197 153.955782 
Q 359.052197 154.528282 359.462197 155.140782 
Q 359.872197 155.753282 361.084697 156.543282 
z
M 359.522197 158.190782 
Q 359.279697 158.410782 359.177197 158.590782 
Q 359.022197 158.863282 358.897197 159.388282 
Q 358.772197 159.910782 358.772197 160.480782 
Q 358.772197 161.215782 358.959697 161.710782 
Q 359.147197 162.205782 359.494697 162.425782 
Q 359.842197 162.643282 360.209697 162.643282 
Q 360.779697 162.643282 361.169697 162.225782 
Q 361.559697 161.808282 361.559697 161.080782 
Q 361.559697 159.565782 359.522197 158.190782 
z
M 369.677197 156.940782 
Q 370.794697 157.760782 371.227197 158.468282 
Q 371.662197 159.175782 371.662197 160.090782 
Q 371.662197 161.370782 370.697197 162.258282 
Q 369.732197 163.145782 368.077197 163.145782 
Q 366.507197 163.145782 365.647197 162.373282 
Q 364.787197 161.598282 364.787197 160.480782 
Q 364.787197 159.628282 365.282197 158.988282 
Q 365.779697 158.348282 366.934697 157.815782 
Q 365.677197 156.855782 365.322197 156.245782 
Q 364.967197 155.635782 364.967197 154.830782 
Q 364.967197 153.768282 365.869697 152.960782 
Q 366.772197 152.153282 368.342197 152.153282 
Q 369.857197 152.153282 370.672197 152.868282 
Q 371.489697 153.580782 371.489697 154.580782 
Q 371.489697 155.330782 371.047197 155.905782 
Q 370.607197 156.480782 369.677197 156.940782 
z
M 369.084697 156.543282 
Q 369.372197 156.153282 369.512197 155.668282 
Q 369.654697 155.183282 369.654697 154.605782 
Q 369.654697 153.590782 369.217197 153.050782 
Q 368.889697 152.635782 368.309697 152.635782 
Q 367.787197 152.635782 367.419697 153.015782 
Q 367.052197 153.393282 367.052197 153.955782 
Q 367.052197 154.528282 367.462197 155.140782 
Q 367.872197 155.753282 369.084697 156.543282 
z
M 367.522197 158.190782 
Q 367.279697 158.410782 367.177197 158.590782 
Q 367.022197 158.863282 366.897197 159.388282 
Q 366.772197 159.910782 366.772197 160.480782 
Q 366.772197 161.215782 366.959697 161.710782 
Q 367.147197 162.205782 367.494697 162.425782 
Q 367.842197 162.643282 368.209697 162.643282 
Q 368.779697 162.643282 369.169697 162.225782 
Q 369.559697 161.808282 369.559697 161.080782 
Q 369.559697 159.565782 367.522197 158.190782 
z
M 374.224697 160.518282 
Q 374.772197 160.518282 375.149697 160.903282 
Q 375.529697 161.285782 375.529697 161.823282 
Q 375.529697 162.363282 375.147197 162.743282 
Q 374.764697 163.120782 374.224697 163.120782 
Q 373.684697 163.120782 373.304697 162.743282 
Q 372.927197 162.363282 372.927197 161.823282 
Q 372.927197 161.285782 373.304697 160.903282 
Q 373.684697 160.518282 374.224697 160.518282 
z
M 378.592197 157.613282 
L 378.592197 157.340782 
Q 379.482197 157.080782 379.824697 156.858282 
Q 380.169697 156.635782 380.419697 156.180782 
Q 380.669697 155.723282 380.669697 155.253282 
Q 380.669697 154.605782 380.197197 154.140782 
Q 379.724697 153.675782 379.022197 153.675782 
Q 377.927197 153.675782 377.162197 154.830782 
L 376.872197 154.730782 
Q 377.434697 153.425782 378.314697 152.770782 
Q 379.194697 152.113282 380.272197 152.113282 
Q 381.372197 152.113282 382.087197 152.785782 
Q 382.802197 153.455782 382.802197 154.355782 
Q 382.802197 154.940782 382.469697 155.485782 
Q 382.139697 156.028282 381.427197 156.440782 
Q 382.342197 156.885782 382.822197 157.538282 
Q 383.302197 158.190782 383.302197 159.175782 
Q 383.302197 160.830782 382.102197 161.993282 
Q 380.904697 163.153282 378.889697 163.153282 
Q 377.544697 163.153282 376.927197 162.705782 
Q 376.482197 162.393282 376.482197 161.903282 
Q 376.482197 161.543282 376.739697 161.290782 
Q 376.997197 161.035782 377.334697 161.035782 
Q 377.592197 161.035782 377.819697 161.143282 
Q 377.944697 161.205782 378.704697 161.828282 
Q 379.467197 162.448282 380.132197 162.448282 
Q 380.709697 162.448282 381.122197 161.993282 
Q 381.537197 161.535782 381.537197 160.830782 
Q 381.537197 159.760782 380.787197 158.858282 
Q 380.037197 157.955782 378.592197 157.613282 
z
"/>
   </g>
   <g id="text_26">
    <path d="M 590.10021 351.804327 
L 590.10021 359.927764 
Q 590.10021 360.841827 590.179898 361.094952 
Q 590.261929 361.348077 590.517398 361.509796 
Q 590.77521 361.669171 591.340054 361.669171 
L 591.565054 361.669171 
L 591.565054 361.941046 
L 586.336148 361.941046 
L 586.336148 361.669171 
L 586.600991 361.669171 
Q 587.238491 361.669171 587.508023 361.523858 
Q 587.779898 361.376202 587.873648 361.120733 
Q 587.969741 360.865264 587.969741 359.927764 
L 587.969741 354.778546 
Q 587.969741 354.089483 587.904116 353.918389 
Q 587.838491 353.744952 587.658023 353.625421 
Q 587.479898 353.503546 587.245523 353.503546 
Q 586.870523 353.503546 586.336148 353.737921 
L 586.204898 353.473077 
L 589.858804 351.804327 
L 590.10021 351.804327 
z
M 594.590835 359.684014 
Q 595.104116 359.684014 595.458023 360.044952 
Q 595.814273 360.403546 595.814273 360.907452 
Q 595.814273 361.413702 595.455679 361.769952 
Q 595.097085 362.123858 594.590835 362.123858 
Q 594.084585 362.123858 593.728335 361.769952 
Q 593.374429 361.413702 593.374429 360.907452 
Q 593.374429 360.403546 593.728335 360.044952 
Q 594.084585 359.684014 594.590835 359.684014 
z
M 603.417398 356.974639 
Q 603.417398 358.462921 603.00021 359.751983 
Q 602.749429 360.541827 602.327554 361.048077 
Q 601.908023 361.551983 601.373648 361.849639 
Q 600.839273 362.147296 600.208804 362.147296 
Q 599.491616 362.147296 598.91271 361.781671 
Q 598.333804 361.413702 597.886148 360.731671 
Q 597.565054 360.234796 597.323648 359.407452 
Q 597.007241 358.287139 597.007241 357.091827 
Q 597.007241 355.474639 597.461929 354.117608 
Q 597.834585 352.997296 598.596304 352.401983 
Q 599.358023 351.804327 600.208804 351.804327 
Q 601.073648 351.804327 601.823648 352.394952 
Q 602.573648 352.983233 602.92521 353.979327 
Q 603.417398 355.348077 603.417398 356.974639 
z
M 601.160366 356.960577 
Q 601.160366 354.351983 601.132241 353.920733 
Q 601.057241 352.903546 600.780679 352.544952 
Q 600.597866 352.310577 600.18771 352.310577 
Q 599.871304 352.310577 599.688491 352.486358 
Q 599.416616 352.741827 599.320523 353.391046 
Q 599.226773 354.037921 599.226773 357.912139 
Q 599.226773 360.021514 599.374429 360.738702 
Q 599.484585 361.259014 599.688491 361.434796 
Q 599.894741 361.610577 600.229898 361.610577 
Q 600.597866 361.610577 600.780679 361.376202 
Q 601.08771 360.966046 601.132241 360.110577 
L 601.160366 356.960577 
z
" style="fill: #404040; stroke: #ffffff; stroke-width: 3.8"/>
    <path d="M 590.10021 351.804327 
L 590.10021 359.927764 
Q 590.10021 360.841827 590.179898 361.094952 
Q 590.261929 361.348077 590.517398 361.509796 
Q 590.77521 361.669171 591.340054 361.669171 
L 591.565054 361.669171 
L 591.565054 361.941046 
L 586.336148 361.941046 
L 586.336148 361.669171 
L 586.600991 361.669171 
Q 587.238491 361.669171 587.508023 361.523858 
Q 587.779898 361.376202 587.873648 361.120733 
Q 587.969741 360.865264 587.969741 359.927764 
L 587.969741 354.778546 
Q 587.969741 354.089483 587.904116 353.918389 
Q 587.838491 353.744952 587.658023 353.625421 
Q 587.479898 353.503546 587.245523 353.503546 
Q 586.870523 353.503546 586.336148 353.737921 
L 586.204898 353.473077 
L 589.858804 351.804327 
L 590.10021 351.804327 
z
M 594.590835 359.684014 
Q 595.104116 359.684014 595.458023 360.044952 
Q 595.814273 360.403546 595.814273 360.907452 
Q 595.814273 361.413702 595.455679 361.769952 
Q 595.097085 362.123858 594.590835 362.123858 
Q 594.084585 362.123858 593.728335 361.769952 
Q 593.374429 361.413702 593.374429 360.907452 
Q 593.374429 360.403546 593.728335 360.044952 
Q 594.084585 359.684014 594.590835 359.684014 
z
M 603.417398 356.974639 
Q 603.417398 358.462921 603.00021 359.751983 
Q 602.749429 360.541827 602.327554 361.048077 
Q 601.908023 361.551983 601.373648 361.849639 
Q 600.839273 362.147296 600.208804 362.147296 
Q 599.491616 362.147296 598.91271 361.781671 
Q 598.333804 361.413702 597.886148 360.731671 
Q 597.565054 360.234796 597.323648 359.407452 
Q 597.007241 358.287139 597.007241 357.091827 
Q 597.007241 355.474639 597.461929 354.117608 
Q 597.834585 352.997296 598.596304 352.401983 
Q 599.358023 351.804327 600.208804 351.804327 
Q 601.073648 351.804327 601.823648 352.394952 
Q 602.573648 352.983233 602.92521 353.979327 
Q 603.417398 355.348077 603.417398 356.974639 
z
M 601.160366 356.960577 
Q 601.160366 354.351983 601.132241 353.920733 
Q 601.057241 352.903546 600.780679 352.544952 
Q 600.597866 352.310577 600.18771 352.310577 
Q 599.871304 352.310577 599.688491 352.486358 
Q 599.416616 352.741827 599.320523 353.391046 
Q 599.226773 354.037921 599.226773 357.912139 
Q 599.226773 360.021514 599.374429 360.738702 
Q 599.484585 361.259014 599.688491 361.434796 
Q 599.894741 361.610577 600.229898 361.610577 
Q 600.597866 361.610577 600.780679 361.376202 
Q 601.08771 360.966046 601.132241 360.110577 
L 601.160366 356.960577 
z
" style="fill: #404040"/>
   </g>
   <g id="text_27">
    <path d="M 568.720361 308.380481 
L 568.720361 308.125012 
Q 569.554736 307.881262 569.87583 307.672668 
Q 570.199268 307.464074 570.433643 307.037512 
Q 570.668018 306.608606 570.668018 306.167981 
Q 570.668018 305.560949 570.225049 305.125012 
Q 569.78208 304.689074 569.123486 304.689074 
Q 568.096924 304.689074 567.379736 305.771887 
L 567.107861 305.678137 
Q 567.635205 304.454699 568.460205 303.840637 
Q 569.285205 303.224231 570.295361 303.224231 
Q 571.326611 303.224231 571.996924 303.854699 
Q 572.667236 304.482824 572.667236 305.326574 
Q 572.667236 305.875012 572.355518 306.385949 
Q 572.046143 306.894543 571.378174 307.281262 
Q 572.235986 307.698449 572.685986 308.310168 
Q 573.135986 308.921887 573.135986 309.845324 
Q 573.135986 311.396887 572.010986 312.486731 
Q 570.88833 313.574231 568.999268 313.574231 
Q 567.73833 313.574231 567.159424 313.154699 
Q 566.742236 312.861731 566.742236 312.402356 
Q 566.742236 312.064856 566.983643 311.828137 
Q 567.225049 311.589074 567.541455 311.589074 
Q 567.782861 311.589074 567.996143 311.689856 
Q 568.11333 311.748449 568.82583 312.332043 
Q 569.540674 312.913293 570.164111 312.913293 
Q 570.705518 312.913293 571.092236 312.486731 
Q 571.481299 312.057824 571.481299 311.396887 
Q 571.481299 310.393762 570.778174 309.547668 
Q 570.075049 308.701574 568.720361 308.380481 
z
M 575.87583 311.103918 
Q 576.389111 311.103918 576.743018 311.464856 
Q 577.099268 311.823449 577.099268 312.327356 
Q 577.099268 312.833606 576.740674 313.189856 
Q 576.38208 313.543762 575.87583 313.543762 
Q 575.36958 313.543762 575.01333 313.189856 
Q 574.659424 312.833606 574.659424 312.327356 
Q 574.659424 311.823449 575.01333 311.464856 
Q 575.36958 311.103918 575.87583 311.103918 
z
M 584.796143 303.224231 
L 584.796143 303.428137 
Q 583.471924 303.765637 582.668018 304.297668 
Q 581.866455 304.827356 581.400049 305.586731 
Q 580.935986 306.343762 580.680518 307.464074 
Q 581.003955 307.246106 581.214893 307.178137 
Q 581.690674 307.032824 582.17583 307.032824 
Q 583.289111 307.032824 584.03208 307.843762 
Q 584.775049 308.652356 584.775049 310.049231 
Q 584.775049 311.031262 584.371924 311.851574 
Q 583.968799 312.671887 583.228174 313.119543 
Q 582.489893 313.567199 581.648486 313.567199 
Q 580.73208 313.567199 579.953955 313.065637 
Q 579.178174 312.561731 578.742236 311.596106 
Q 578.308643 310.628137 578.308643 309.493762 
Q 578.308643 307.822668 579.110205 306.383606 
Q 579.911768 304.944543 581.385986 304.091418 
Q 582.862549 303.238293 584.796143 303.224231 
z
M 580.584424 308.057043 
Q 580.52583 309.069543 580.52583 309.538293 
Q 580.52583 310.548449 580.720361 311.492981 
Q 580.914893 312.437512 581.252393 312.819543 
Q 581.493799 313.089074 581.824268 313.089074 
Q 582.159424 313.089074 582.421924 312.697668 
Q 582.686768 312.306262 582.686768 311.103918 
Q 582.686768 309.083606 582.196924 308.314856 
Q 581.882861 307.815637 581.346143 307.815637 
Q 581.053174 307.815637 580.584424 308.057043 
z
" style="fill: #404040; stroke: #ffffff; stroke-width: 3.8"/>
    <path d="M 568.720361 308.380481 
L 568.720361 308.125012 
Q 569.554736 307.881262 569.87583 307.672668 
Q 570.199268 307.464074 570.433643 307.037512 
Q 570.668018 306.608606 570.668018 306.167981 
Q 570.668018 305.560949 570.225049 305.125012 
Q 569.78208 304.689074 569.123486 304.689074 
Q 568.096924 304.689074 567.379736 305.771887 
L 567.107861 305.678137 
Q 567.635205 304.454699 568.460205 303.840637 
Q 569.285205 303.224231 570.295361 303.224231 
Q 571.326611 303.224231 571.996924 303.854699 
Q 572.667236 304.482824 572.667236 305.326574 
Q 572.667236 305.875012 572.355518 306.385949 
Q 572.046143 306.894543 571.378174 307.281262 
Q 572.235986 307.698449 572.685986 308.310168 
Q 573.135986 308.921887 573.135986 309.845324 
Q 573.135986 311.396887 572.010986 312.486731 
Q 570.88833 313.574231 568.999268 313.574231 
Q 567.73833 313.574231 567.159424 313.154699 
Q 566.742236 312.861731 566.742236 312.402356 
Q 566.742236 312.064856 566.983643 311.828137 
Q 567.225049 311.589074 567.541455 311.589074 
Q 567.782861 311.589074 567.996143 311.689856 
Q 568.11333 311.748449 568.82583 312.332043 
Q 569.540674 312.913293 570.164111 312.913293 
Q 570.705518 312.913293 571.092236 312.486731 
Q 571.481299 312.057824 571.481299 311.396887 
Q 571.481299 310.393762 570.778174 309.547668 
Q 570.075049 308.701574 568.720361 308.380481 
z
M 575.87583 311.103918 
Q 576.389111 311.103918 576.743018 311.464856 
Q 577.099268 311.823449 577.099268 312.327356 
Q 577.099268 312.833606 576.740674 313.189856 
Q 576.38208 313.543762 575.87583 313.543762 
Q 575.36958 313.543762 575.01333 313.189856 
Q 574.659424 312.833606 574.659424 312.327356 
Q 574.659424 311.823449 575.01333 311.464856 
Q 575.36958 311.103918 575.87583 311.103918 
z
M 584.796143 303.224231 
L 584.796143 303.428137 
Q 583.471924 303.765637 582.668018 304.297668 
Q 581.866455 304.827356 581.400049 305.586731 
Q 580.935986 306.343762 580.680518 307.464074 
Q 581.003955 307.246106 581.214893 307.178137 
Q 581.690674 307.032824 582.17583 307.032824 
Q 583.289111 307.032824 584.03208 307.843762 
Q 584.775049 308.652356 584.775049 310.049231 
Q 584.775049 311.031262 584.371924 311.851574 
Q 583.968799 312.671887 583.228174 313.119543 
Q 582.489893 313.567199 581.648486 313.567199 
Q 580.73208 313.567199 579.953955 313.065637 
Q 579.178174 312.561731 578.742236 311.596106 
Q 578.308643 310.628137 578.308643 309.493762 
Q 578.308643 307.822668 579.110205 306.383606 
Q 579.911768 304.944543 581.385986 304.091418 
Q 582.862549 303.238293 584.796143 303.224231 
z
M 580.584424 308.057043 
Q 580.52583 309.069543 580.52583 309.538293 
Q 580.52583 310.548449 580.720361 311.492981 
Q 580.914893 312.437512 581.252393 312.819543 
Q 581.493799 313.089074 581.824268 313.089074 
Q 582.159424 313.089074 582.421924 312.697668 
Q 582.686768 312.306262 582.686768 311.103918 
Q 582.686768 309.083606 582.196924 308.314856 
Q 581.882861 307.815637 581.346143 307.815637 
Q 581.053174 307.815637 580.584424 308.057043 
z
" style="fill: #404040"/>
   </g>
   <g id="text_28">
    <path d="M 531.238443 274.318931 
L 531.238443 282.442369 
Q 531.238443 283.356431 531.318131 283.609556 
Q 531.400162 283.862681 531.655631 284.0244 
Q 531.913443 284.183775 532.478287 284.183775 
L 532.703287 284.183775 
L 532.703287 284.45565 
L 527.474381 284.45565 
L 527.474381 284.183775 
L 527.739225 284.183775 
Q 528.376725 284.183775 528.646256 284.038463 
Q 528.918131 283.890806 529.011881 283.635338 
Q 529.107975 283.379869 529.107975 282.442369 
L 529.107975 277.29315 
Q 529.107975 276.604088 529.04235 276.432994 
Q 528.976725 276.259556 528.796256 276.140025 
Q 528.618131 276.01815 528.383756 276.01815 
Q 528.008756 276.01815 527.474381 276.252525 
L 527.343131 275.987681 
L 530.997037 274.318931 
L 531.238443 274.318931 
z
M 540.065006 284.45565 
L 534.219693 284.45565 
L 534.219693 284.293931 
Q 536.907975 281.094713 537.482193 279.988463 
Q 538.058756 278.882213 538.058756 277.827525 
Q 538.058756 277.058775 537.582975 276.550181 
Q 537.107193 276.039244 536.418131 276.039244 
Q 535.290787 276.039244 534.66735 277.168931 
L 534.395475 277.072838 
Q 534.791568 275.666588 535.597818 274.993931 
Q 536.404068 274.318931 537.458756 274.318931 
Q 538.2111 274.318931 538.834537 274.670494 
Q 539.457975 275.022056 539.809537 275.633775 
Q 540.1611 276.245494 540.1611 276.779869 
Q 540.1611 277.754869 539.61735 278.757994 
Q 538.879068 280.112681 536.387662 282.536119 
L 538.534537 282.536119 
Q 539.324381 282.536119 539.563443 282.470494 
Q 539.802506 282.404869 539.95485 282.247838 
Q 540.109537 282.090806 540.357975 281.584556 
L 540.622818 281.584556 
L 540.065006 284.45565 
z
M 543.229068 282.198619 
Q 543.74235 282.198619 544.096256 282.559556 
Q 544.452506 282.91815 544.452506 283.422056 
Q 544.452506 283.928306 544.093912 284.284556 
Q 543.735318 284.638463 543.229068 284.638463 
Q 542.722818 284.638463 542.366568 284.284556 
Q 542.012662 283.928306 542.012662 283.422056 
Q 542.012662 282.91815 542.366568 282.559556 
Q 542.722818 282.198619 543.229068 282.198619 
z
M 545.565787 284.6619 
L 545.565787 284.45565 
Q 546.782193 284.176744 547.628287 283.635338 
Q 548.474381 283.093931 548.966568 282.294713 
Q 549.4611 281.495494 549.660318 280.457213 
Q 549.205631 280.691588 548.886881 280.782994 
Q 548.568131 280.8744 548.216568 280.8744 
Q 547.089225 280.8744 546.336881 280.061119 
Q 545.586881 279.247838 545.586881 277.834556 
Q 545.586881 276.852525 545.99235 276.0369 
Q 546.400162 275.218931 547.15485 274.768931 
Q 547.909537 274.318931 548.722818 274.318931 
Q 549.594693 274.318931 550.370475 274.81815 
Q 551.146256 275.315025 551.607975 276.259556 
Q 552.069693 277.204088 552.069693 278.413463 
Q 552.069693 279.981431 551.31735 281.41815 
Q 550.56735 282.852525 549.081412 283.719713 
Q 547.595475 284.5869 545.565787 284.6619 
z
M 549.770475 279.840806 
Q 549.843131 279.020494 549.843131 278.3994 
Q 549.843131 277.065806 549.5361 275.915025 
Q 549.360318 275.277525 549.015787 274.977525 
Q 548.832975 274.815806 548.540006 274.815806 
Q 548.172037 274.815806 547.968131 275.132213 
Q 547.682193 275.563463 547.682193 276.779869 
Q 547.682193 278.809556 548.165006 279.578306 
Q 548.481412 280.075181 549.015787 280.075181 
Q 549.301725 280.075181 549.770475 279.840806 
z
" style="fill: #404040; stroke: #ffffff; stroke-width: 3.8"/>
    <path d="M 531.238443 274.318931 
L 531.238443 282.442369 
Q 531.238443 283.356431 531.318131 283.609556 
Q 531.400162 283.862681 531.655631 284.0244 
Q 531.913443 284.183775 532.478287 284.183775 
L 532.703287 284.183775 
L 532.703287 284.45565 
L 527.474381 284.45565 
L 527.474381 284.183775 
L 527.739225 284.183775 
Q 528.376725 284.183775 528.646256 284.038463 
Q 528.918131 283.890806 529.011881 283.635338 
Q 529.107975 283.379869 529.107975 282.442369 
L 529.107975 277.29315 
Q 529.107975 276.604088 529.04235 276.432994 
Q 528.976725 276.259556 528.796256 276.140025 
Q 528.618131 276.01815 528.383756 276.01815 
Q 528.008756 276.01815 527.474381 276.252525 
L 527.343131 275.987681 
L 530.997037 274.318931 
L 531.238443 274.318931 
z
M 540.065006 284.45565 
L 534.219693 284.45565 
L 534.219693 284.293931 
Q 536.907975 281.094713 537.482193 279.988463 
Q 538.058756 278.882213 538.058756 277.827525 
Q 538.058756 277.058775 537.582975 276.550181 
Q 537.107193 276.039244 536.418131 276.039244 
Q 535.290787 276.039244 534.66735 277.168931 
L 534.395475 277.072838 
Q 534.791568 275.666588 535.597818 274.993931 
Q 536.404068 274.318931 537.458756 274.318931 
Q 538.2111 274.318931 538.834537 274.670494 
Q 539.457975 275.022056 539.809537 275.633775 
Q 540.1611 276.245494 540.1611 276.779869 
Q 540.1611 277.754869 539.61735 278.757994 
Q 538.879068 280.112681 536.387662 282.536119 
L 538.534537 282.536119 
Q 539.324381 282.536119 539.563443 282.470494 
Q 539.802506 282.404869 539.95485 282.247838 
Q 540.109537 282.090806 540.357975 281.584556 
L 540.622818 281.584556 
L 540.065006 284.45565 
z
M 543.229068 282.198619 
Q 543.74235 282.198619 544.096256 282.559556 
Q 544.452506 282.91815 544.452506 283.422056 
Q 544.452506 283.928306 544.093912 284.284556 
Q 543.735318 284.638463 543.229068 284.638463 
Q 542.722818 284.638463 542.366568 284.284556 
Q 542.012662 283.928306 542.012662 283.422056 
Q 542.012662 282.91815 542.366568 282.559556 
Q 542.722818 282.198619 543.229068 282.198619 
z
M 545.565787 284.6619 
L 545.565787 284.45565 
Q 546.782193 284.176744 547.628287 283.635338 
Q 548.474381 283.093931 548.966568 282.294713 
Q 549.4611 281.495494 549.660318 280.457213 
Q 549.205631 280.691588 548.886881 280.782994 
Q 548.568131 280.8744 548.216568 280.8744 
Q 547.089225 280.8744 546.336881 280.061119 
Q 545.586881 279.247838 545.586881 277.834556 
Q 545.586881 276.852525 545.99235 276.0369 
Q 546.400162 275.218931 547.15485 274.768931 
Q 547.909537 274.318931 548.722818 274.318931 
Q 549.594693 274.318931 550.370475 274.81815 
Q 551.146256 275.315025 551.607975 276.259556 
Q 552.069693 277.204088 552.069693 278.413463 
Q 552.069693 279.981431 551.31735 281.41815 
Q 550.56735 282.852525 549.081412 283.719713 
Q 547.595475 284.5869 545.565787 284.6619 
z
M 549.770475 279.840806 
Q 549.843131 279.020494 549.843131 278.3994 
Q 549.843131 277.065806 549.5361 275.915025 
Q 549.360318 275.277525 549.015787 274.977525 
Q 548.832975 274.815806 548.540006 274.815806 
Q 548.172037 274.815806 547.968131 275.132213 
Q 547.682193 275.563463 547.682193 276.779869 
Q 547.682193 278.809556 548.165006 279.578306 
Q 548.481412 280.075181 549.015787 280.075181 
Q 549.301725 280.075181 549.770475 279.840806 
z
" style="fill: #404040"/>
   </g>
   <g id="text_29">
    <path d="M 320.705804 375.181859 
L 320.705804 383.305297 
Q 320.705804 384.219359 320.785492 384.472484 
Q 320.867523 384.725609 321.122992 384.887328 
Q 321.380804 385.046703 321.945648 385.046703 
L 322.170648 385.046703 
L 322.170648 385.318578 
L 316.941742 385.318578 
L 316.941742 385.046703 
L 317.206586 385.046703 
Q 317.844086 385.046703 318.113617 384.901391 
Q 318.385492 384.753734 318.479242 384.498266 
Q 318.575336 384.242797 318.575336 383.305297 
L 318.575336 378.156078 
Q 318.575336 377.467016 318.509711 377.295922 
Q 318.444086 377.122484 318.263617 377.002953 
Q 318.085492 376.881078 317.851117 376.881078 
Q 317.476117 376.881078 316.941742 377.115453 
L 316.810492 376.850609 
L 320.464398 375.181859 
L 320.705804 375.181859 
z
M 330.272992 380.352172 
Q 330.272992 381.840453 329.855804 383.129516 
Q 329.605023 383.919359 329.183148 384.425609 
Q 328.763617 384.929516 328.229242 385.227172 
Q 327.694867 385.524828 327.064398 385.524828 
Q 326.347211 385.524828 325.768304 385.159203 
Q 325.189398 384.791234 324.741742 384.109203 
Q 324.420648 383.612328 324.179242 382.784984 
Q 323.862836 381.664672 323.862836 380.469359 
Q 323.862836 378.852172 324.317523 377.495141 
Q 324.690179 376.374828 325.451898 375.779516 
Q 326.213617 375.181859 327.064398 375.181859 
Q 327.929242 375.181859 328.679242 375.772484 
Q 329.429242 376.360766 329.780804 377.356859 
Q 330.272992 378.725609 330.272992 380.352172 
z
M 328.015961 380.338109 
Q 328.015961 377.729516 327.987836 377.298266 
Q 327.912836 376.281078 327.636273 375.922484 
Q 327.453461 375.688109 327.043304 375.688109 
Q 326.726898 375.688109 326.544086 375.863891 
Q 326.272211 376.119359 326.176117 376.768578 
Q 326.082367 377.415453 326.082367 381.289672 
Q 326.082367 383.399047 326.230023 384.116234 
Q 326.340179 384.636547 326.544086 384.812328 
Q 326.750336 384.988109 327.085492 384.988109 
Q 327.453461 384.988109 327.636273 384.753734 
Q 327.943304 384.343578 327.987836 383.488109 
L 328.015961 380.338109 
z
M 335.933148 379.707641 
Q 336.980804 380.476391 337.386273 381.139672 
Q 337.794086 381.802953 337.794086 382.660766 
Q 337.794086 383.860766 336.889398 384.692797 
Q 335.984711 385.524828 334.433148 385.524828 
Q 332.961273 385.524828 332.155023 384.800609 
Q 331.348773 384.074047 331.348773 383.026391 
Q 331.348773 382.227172 331.812836 381.627172 
Q 332.279242 381.027172 333.362054 380.527953 
Q 332.183148 379.627953 331.850336 379.056078 
Q 331.517523 378.484203 331.517523 377.729516 
Q 331.517523 376.733422 332.363617 375.976391 
Q 333.209711 375.219359 334.681586 375.219359 
Q 336.101898 375.219359 336.865961 375.889672 
Q 337.632367 376.557641 337.632367 377.495141 
Q 337.632367 378.198266 337.217523 378.737328 
Q 336.805023 379.276391 335.933148 379.707641 
z
M 335.377679 379.334984 
Q 335.647211 378.969359 335.778461 378.514672 
Q 335.912054 378.059984 335.912054 377.518578 
Q 335.912054 376.567016 335.501898 376.060766 
Q 335.194867 375.671703 334.651117 375.671703 
Q 334.161273 375.671703 333.816742 376.027953 
Q 333.472211 376.381859 333.472211 376.909203 
Q 333.472211 377.445922 333.856586 378.020141 
Q 334.240961 378.594359 335.377679 379.334984 
z
M 333.912836 380.879516 
Q 333.685492 381.085766 333.589398 381.254516 
Q 333.444086 381.509984 333.326898 382.002172 
Q 333.209711 382.492016 333.209711 383.026391 
Q 333.209711 383.715453 333.385492 384.179516 
Q 333.561273 384.643578 333.887054 384.849828 
Q 334.212836 385.053734 334.557367 385.053734 
Q 335.091742 385.053734 335.457367 384.662328 
Q 335.822992 384.270922 335.822992 383.588891 
Q 335.822992 382.168578 333.912836 380.879516 
z
M 340.196429 383.061547 
Q 340.709711 383.061547 341.063617 383.422484 
Q 341.419867 383.781078 341.419867 384.284984 
Q 341.419867 384.791234 341.061273 385.147484 
Q 340.702679 385.501391 340.196429 385.501391 
Q 339.690179 385.501391 339.333929 385.147484 
Q 338.980023 384.791234 338.980023 384.284984 
Q 338.980023 383.781078 339.333929 383.422484 
Q 339.690179 383.061547 340.196429 383.061547 
z
M 346.955804 375.181859 
L 346.955804 383.305297 
Q 346.955804 384.219359 347.035492 384.472484 
Q 347.117523 384.725609 347.372992 384.887328 
Q 347.630804 385.046703 348.195648 385.046703 
L 348.420648 385.046703 
L 348.420648 385.318578 
L 343.191742 385.318578 
L 343.191742 385.046703 
L 343.456586 385.046703 
Q 344.094086 385.046703 344.363617 384.901391 
Q 344.635492 384.753734 344.729242 384.498266 
Q 344.825336 384.242797 344.825336 383.305297 
L 344.825336 378.156078 
Q 344.825336 377.467016 344.759711 377.295922 
Q 344.694086 377.122484 344.513617 377.002953 
Q 344.335492 376.881078 344.101117 376.881078 
Q 343.726117 376.881078 343.191742 377.115453 
L 343.060492 376.850609 
L 346.714398 375.181859 
L 346.955804 375.181859 
z
" style="fill: #404040; stroke: #ffffff; stroke-width: 3.8"/>
    <path d="M 320.705804 375.181859 
L 320.705804 383.305297 
Q 320.705804 384.219359 320.785492 384.472484 
Q 320.867523 384.725609 321.122992 384.887328 
Q 321.380804 385.046703 321.945648 385.046703 
L 322.170648 385.046703 
L 322.170648 385.318578 
L 316.941742 385.318578 
L 316.941742 385.046703 
L 317.206586 385.046703 
Q 317.844086 385.046703 318.113617 384.901391 
Q 318.385492 384.753734 318.479242 384.498266 
Q 318.575336 384.242797 318.575336 383.305297 
L 318.575336 378.156078 
Q 318.575336 377.467016 318.509711 377.295922 
Q 318.444086 377.122484 318.263617 377.002953 
Q 318.085492 376.881078 317.851117 376.881078 
Q 317.476117 376.881078 316.941742 377.115453 
L 316.810492 376.850609 
L 320.464398 375.181859 
L 320.705804 375.181859 
z
M 330.272992 380.352172 
Q 330.272992 381.840453 329.855804 383.129516 
Q 329.605023 383.919359 329.183148 384.425609 
Q 328.763617 384.929516 328.229242 385.227172 
Q 327.694867 385.524828 327.064398 385.524828 
Q 326.347211 385.524828 325.768304 385.159203 
Q 325.189398 384.791234 324.741742 384.109203 
Q 324.420648 383.612328 324.179242 382.784984 
Q 323.862836 381.664672 323.862836 380.469359 
Q 323.862836 378.852172 324.317523 377.495141 
Q 324.690179 376.374828 325.451898 375.779516 
Q 326.213617 375.181859 327.064398 375.181859 
Q 327.929242 375.181859 328.679242 375.772484 
Q 329.429242 376.360766 329.780804 377.356859 
Q 330.272992 378.725609 330.272992 380.352172 
z
M 328.015961 380.338109 
Q 328.015961 377.729516 327.987836 377.298266 
Q 327.912836 376.281078 327.636273 375.922484 
Q 327.453461 375.688109 327.043304 375.688109 
Q 326.726898 375.688109 326.544086 375.863891 
Q 326.272211 376.119359 326.176117 376.768578 
Q 326.082367 377.415453 326.082367 381.289672 
Q 326.082367 383.399047 326.230023 384.116234 
Q 326.340179 384.636547 326.544086 384.812328 
Q 326.750336 384.988109 327.085492 384.988109 
Q 327.453461 384.988109 327.636273 384.753734 
Q 327.943304 384.343578 327.987836 383.488109 
L 328.015961 380.338109 
z
M 335.933148 379.707641 
Q 336.980804 380.476391 337.386273 381.139672 
Q 337.794086 381.802953 337.794086 382.660766 
Q 337.794086 383.860766 336.889398 384.692797 
Q 335.984711 385.524828 334.433148 385.524828 
Q 332.961273 385.524828 332.155023 384.800609 
Q 331.348773 384.074047 331.348773 383.026391 
Q 331.348773 382.227172 331.812836 381.627172 
Q 332.279242 381.027172 333.362054 380.527953 
Q 332.183148 379.627953 331.850336 379.056078 
Q 331.517523 378.484203 331.517523 377.729516 
Q 331.517523 376.733422 332.363617 375.976391 
Q 333.209711 375.219359 334.681586 375.219359 
Q 336.101898 375.219359 336.865961 375.889672 
Q 337.632367 376.557641 337.632367 377.495141 
Q 337.632367 378.198266 337.217523 378.737328 
Q 336.805023 379.276391 335.933148 379.707641 
z
M 335.377679 379.334984 
Q 335.647211 378.969359 335.778461 378.514672 
Q 335.912054 378.059984 335.912054 377.518578 
Q 335.912054 376.567016 335.501898 376.060766 
Q 335.194867 375.671703 334.651117 375.671703 
Q 334.161273 375.671703 333.816742 376.027953 
Q 333.472211 376.381859 333.472211 376.909203 
Q 333.472211 377.445922 333.856586 378.020141 
Q 334.240961 378.594359 335.377679 379.334984 
z
M 333.912836 380.879516 
Q 333.685492 381.085766 333.589398 381.254516 
Q 333.444086 381.509984 333.326898 382.002172 
Q 333.209711 382.492016 333.209711 383.026391 
Q 333.209711 383.715453 333.385492 384.179516 
Q 333.561273 384.643578 333.887054 384.849828 
Q 334.212836 385.053734 334.557367 385.053734 
Q 335.091742 385.053734 335.457367 384.662328 
Q 335.822992 384.270922 335.822992 383.588891 
Q 335.822992 382.168578 333.912836 380.879516 
z
M 340.196429 383.061547 
Q 340.709711 383.061547 341.063617 383.422484 
Q 341.419867 383.781078 341.419867 384.284984 
Q 341.419867 384.791234 341.061273 385.147484 
Q 340.702679 385.501391 340.196429 385.501391 
Q 339.690179 385.501391 339.333929 385.147484 
Q 338.980023 384.791234 338.980023 384.284984 
Q 338.980023 383.781078 339.333929 383.422484 
Q 339.690179 383.061547 340.196429 383.061547 
z
M 346.955804 375.181859 
L 346.955804 383.305297 
Q 346.955804 384.219359 347.035492 384.472484 
Q 347.117523 384.725609 347.372992 384.887328 
Q 347.630804 385.046703 348.195648 385.046703 
L 348.420648 385.046703 
L 348.420648 385.318578 
L 343.191742 385.318578 
L 343.191742 385.046703 
L 343.456586 385.046703 
Q 344.094086 385.046703 344.363617 384.901391 
Q 344.635492 384.753734 344.729242 384.498266 
Q 344.825336 384.242797 344.825336 383.305297 
L 344.825336 378.156078 
Q 344.825336 377.467016 344.759711 377.295922 
Q 344.694086 377.122484 344.513617 377.002953 
Q 344.335492 376.881078 344.101117 376.881078 
Q 343.726117 376.881078 343.191742 377.115453 
L 343.060492 376.850609 
L 346.714398 375.181859 
L 346.955804 375.181859 
z
" style="fill: #404040"/>
   </g>
  </g>
 </g>
 <defs>
  <clipPath id="p2b366256f9">
   <rect x="7.2" y="51.034687" width="730.764" height="438.48"/>
  </clipPath>
 </defs>
</svg>
