<?xml version="1.0" encoding="utf-8" standalone="no"?>
<!DOCTYPE svg PUBLIC "-//W3C//DTD SVG 1.1//EN"
  "http://www.w3.org/Graphics/SVG/1.1/DTD/svg11.dtd">
<svg xmlns:xlink="http://www.w3.org/1999/xlink" width="745.164pt" height="496.448643pt" viewBox="0 0 745.164 496.448643" xmlns="http://www.w3.org/2000/svg" version="1.1">
 <metadata>
  <rdf:RDF xmlns:dc="http://purl.org/dc/elements/1.1/" xmlns:cc="http://creativecommons.org/ns#" xmlns:rdf="http://www.w3.org/1999/02/22-rdf-syntax-ns#">
   <cc:Work>
    <dc:type rdf:resource="http://purl.org/dc/dcmitype/StillImage"/>
    <dc:date>2026-07-13T16:58:13.352490</dc:date>
    <dc:format>image/svg+xml</dc:format>
    <dc:creator>
     <cc:Agent>
      <dc:title>Matplotlib v3.10.8, https://matplotlib.org/</dc:title>
     </cc:Agent>
    </dc:creator>
   </cc:Work>
  </rdf:RDF>
 </metadata>
 <defs>
  <style type="text/css">*{stroke-linejoin: round; stroke-linecap: butt}</style>
 </defs>
 <g id="figure_1">
  <g id="patch_1">
   <path d="M 0 496.448643 
L 745.164 496.448643 
L 745.164 0 
L 0 0 
L 0 496.448643 
z
" style="fill: none"/>
  </g>
  <g id="axes_1">
   <g id="patch_2">
    <path d="M 120.350555 437.81996 
Q 120.350555 458.496762 120.350555 477.248172 
" clip-path="url(#pc29aa66763)" style="fill: none; stroke: #111111; stroke-width: 1.722124; stroke-linejoin: miter; stroke-linecap: round"/>
    <path d="M 123.845634 470.258013 
L 120.350555 477.248172 
L 116.855475 470.258013 
z
" clip-path="url(#pc29aa66763)" style="fill: #111111; stroke: #111111; stroke-width: 1.722124; stroke-linejoin: miter; stroke-linecap: round"/>
   </g>
   <g id="patch_3">
    <path d="M 120.350555 350.634319 
Q 120.350555 372.035384 120.350555 389.399812 
" clip-path="url(#pc29aa66763)" style="fill: none; stroke: #111111; stroke-width: 3.610478; stroke-linejoin: miter; stroke-linecap: round"/>
    <path d="M 124.449908 381.201106 
L 120.350555 389.399812 
L 116.251202 381.201106 
z
" clip-path="url(#pc29aa66763)" style="fill: #111111; stroke: #111111; stroke-width: 3.610478; stroke-linejoin: miter; stroke-linecap: round"/>
   </g>
   <g id="patch_4">
    <path d="M 120.350555 256.524404 
Q 120.350555 280.663343 120.350555 298.317685 
" clip-path="url(#pc29aa66763)" style="fill: none; stroke: #111111; stroke-width: 5.8; stroke-linejoin: miter; stroke-linecap: round"/>
    <path d="M 125.150555 288.717685 
L 120.350555 298.317685 
L 115.550555 288.717685 
z
" clip-path="url(#pc29aa66763)" style="fill: #111111; stroke: #111111; stroke-width: 5.8; stroke-linejoin: miter; stroke-linecap: round"/>
   </g>
   <g id="patch_5">
    <path d="M 370.224697 341.206388 
Q 370.224697 363.137728 370.224697 383.035985 
" clip-path="url(#pc29aa66763)" style="fill: none; stroke: #111111; stroke-width: 1.818444; stroke-linejoin: miter; stroke-linecap: round"/>
    <path d="M 373.750599 375.984181 
L 370.224697 383.035985 
L 366.698795 375.984181 
z
" clip-path="url(#pc29aa66763)" style="fill: #111111; stroke: #111111; stroke-width: 1.818444; stroke-linejoin: miter; stroke-linecap: round"/>
   </g>
   <g id="patch_6">
    <path d="M 370.224697 240.165629 
Q 370.224697 267.239716 370.224697 291.89801 
" clip-path="url(#pc29aa66763)" style="fill: none; stroke: #111111; stroke-width: 2.16075; stroke-linejoin: miter; stroke-linecap: round"/>
    <path d="M 373.860137 284.62713 
L 370.224697 291.89801 
L 366.589257 284.62713 
z
" clip-path="url(#pc29aa66763)" style="fill: #111111; stroke: #111111; stroke-width: 2.16075; stroke-linejoin: miter; stroke-linecap: round"/>
   </g>
   <g id="patch_7">
    <path d="M 370.224697 126.7138 
Q 370.224697 154.850675 370.224697 179.051126 
" clip-path="url(#pc29aa66763)" style="fill: none; stroke: #111111; stroke-width: 3.520845; stroke-linejoin: miter; stroke-linecap: round"/>
    <path d="M 374.295367 170.909785 
L 370.224697 179.051126 
L 366.154026 170.909785 
z
" clip-path="url(#pc29aa66763)" style="fill: #111111; stroke: #111111; stroke-width: 3.520845; stroke-linejoin: miter; stroke-linecap: round"/>
   </g>
   <g id="patch_8">
    <path d="M 586.153672 297.556394 
Q 586.153672 318.150714 586.153672 335.479791 
" clip-path="url(#pc29aa66763)" style="fill: none; stroke: #111111; stroke-width: 2.920522; stroke-linejoin: miter; stroke-linecap: round"/>
    <path d="M 590.032239 327.722657 
L 586.153672 335.479791 
L 582.275105 327.722657 
z
" clip-path="url(#pc29aa66763)" style="fill: #111111; stroke: #111111; stroke-width: 2.920522; stroke-linejoin: miter; stroke-linecap: round"/>
   </g>
   <g id="line2d_1">
    <path d="M 165.610777 479.173565 
L 550.322663 479.173565 
" clip-path="url(#pc29aa66763)" style="fill: none; stroke-dasharray: 5.6,4.2; stroke-dashoffset: 0; stroke: #404040; stroke-width: 1.4"/>
   </g>
   <g id="line2d_2">
    <path d="M 165.610777 393.436449 
L 550.322663 393.436449 
" clip-path="url(#pc29aa66763)" style="fill: none; stroke-dasharray: 5.6,4.2; stroke-dashoffset: 0; stroke: #404040; stroke-width: 1.4"/>
   </g>
   <g id="line2d_3">
    <path d="M 415.484919 385.069068 
L 560.694797 385.069068 
" clip-path="url(#pc29aa66763)" style="fill: none; stroke-dasharray: 5.6,4.2; stroke-dashoffset: 0; stroke: #404040; stroke-width: 1.4"/>
   </g>
   <g id="patch_9">
    <path d="M 665.359061 338.745034 
Q 554.361914 407.38115 444.159614 475.525764 
" clip-path="url(#pc29aa66763)" style="fill: none; stroke: #404040; stroke-width: 0.835874; stroke-linejoin: miter; stroke-linecap: round"/>
    <path d="M 450.421803 474.959617 
L 444.159614 475.525764 
L 447.46401 470.176324 
z
" clip-path="url(#pc29aa66763)" style="fill: #404040; stroke: #404040; stroke-width: 0.835874; stroke-linejoin: miter; stroke-linecap: round"/>
   </g>
   <g id="patch_10">
    <path d="M 620.098839 338.745034 
Q 578.427884 364.512655 539.580388 388.534365 
" clip-path="url(#pc29aa66763)" style="fill: none; stroke: #404040; stroke-width: 2.969191; stroke-linejoin: miter; stroke-linecap: round"/>
    <path d="M 547.426199 387.825047 
L 539.580388 388.534365 
L 543.72042 381.832125 
z
" clip-path="url(#pc29aa66763)" style="fill: #404040; stroke: #404040; stroke-width: 2.969191; stroke-linejoin: miter; stroke-linecap: round"/>
   </g>
   <g id="patch_11">
    <path d="M 574.838617 338.745034 
Q 541.987947 360.263628 510.427926 380.936792 
" clip-path="url(#pc29aa66763)" style="fill: none; stroke: #404040; stroke-width: 1.380007; stroke-linejoin: miter; stroke-linecap: round"/>
    <path d="M 517.076041 380.16035 
L 510.427926 380.936792 
L 513.795642 375.152435 
z
" clip-path="url(#pc29aa66763)" style="fill: #404040; stroke: #404040; stroke-width: 1.380007; stroke-linejoin: miter; stroke-linecap: round"/>
   </g>
   <g id="patch_12">
    <path d="M 370.224697 385.069068 
Q 335.676427 388.920545 306.623379 392.15941 
" clip-path="url(#pc29aa66763)" style="fill: none; stroke: #404040; stroke-width: 4.945524; stroke-linejoin: miter; stroke-linecap: round"/>
    <path d="M 315.398894 395.388853 
L 306.623379 392.15941 
L 314.472243 387.076663 
z
" clip-path="url(#pc29aa66763)" style="fill: #404040; stroke: #404040; stroke-width: 4.945524; stroke-linejoin: miter; stroke-linecap: round"/>
   </g>
   <g id="line2d_4">
    <path d="M 120.350555 393.436449 
L 120.350555 434.790054 
" clip-path="url(#pc29aa66763)" style="fill: none; stroke: #111111; stroke-width: 1.722124"/>
   </g>
   <g id="line2d_5">
    <path d="M 120.350555 304.802283 
L 120.350555 347.604413 
" clip-path="url(#pc29aa66763)" style="fill: none; stroke: #111111; stroke-width: 3.610478"/>
   </g>
   <g id="line2d_6">
    <path d="M 120.350555 205.21662 
L 120.350555 253.494498 
" clip-path="url(#pc29aa66763)" style="fill: none; stroke: #111111; stroke-width: 5.8"/>
   </g>
   <g id="line2d_7">
    <path d="M 370.224697 294.313802 
L 370.224697 338.176482 
" clip-path="url(#pc29aa66763)" style="fill: none; stroke: #111111; stroke-width: 1.818444"/>
   </g>
   <g id="line2d_8">
    <path d="M 370.224697 182.987551 
L 370.224697 237.135723 
" clip-path="url(#pc29aa66763)" style="fill: none; stroke: #111111; stroke-width: 2.16075"/>
   </g>
   <g id="line2d_9">
    <path d="M 370.224697 67.410143 
L 370.224697 123.683894 
" clip-path="url(#pc29aa66763)" style="fill: none; stroke: #111111; stroke-width: 3.520845"/>
   </g>
   <g id="line2d_10">
    <path d="M 586.153672 253.337849 
L 586.153672 294.526488 
" clip-path="url(#pc29aa66763)" style="fill: none; stroke: #111111; stroke-width: 2.920522"/>
   </g>
   <g id="line2d_11">
    <path d="M 75.090333 479.173565 
L 165.610777 479.173565 
" clip-path="url(#pc29aa66763)" style="fill: none; stroke: #111111; stroke-width: 3.6; stroke-linecap: round"/>
   </g>
   <g id="line2d_12">
    <path d="M 75.090333 393.436449 
L 165.610777 393.436449 
" clip-path="url(#pc29aa66763)" style="fill: none; stroke: #111111; stroke-width: 3.6; stroke-linecap: round"/>
   </g>
   <g id="line2d_13">
    <path d="M 75.090333 304.802283 
L 165.610777 304.802283 
" clip-path="url(#pc29aa66763)" style="fill: none; stroke: #111111; stroke-width: 3.6; stroke-linecap: round"/>
   </g>
   <g id="line2d_14">
    <path d="M 75.090333 205.21662 
L 165.610777 205.21662 
" clip-path="url(#pc29aa66763)" style="fill: none; stroke: #111111; stroke-width: 3.6; stroke-linecap: round"/>
   </g>
   <g id="line2d_15">
    <path d="M 324.964475 385.069068 
L 415.484919 385.069068 
" clip-path="url(#pc29aa66763)" style="fill: none; stroke: #111111; stroke-width: 3.6; stroke-linecap: round"/>
   </g>
   <g id="line2d_16">
    <path d="M 324.964475 294.313802 
L 415.484919 294.313802 
" clip-path="url(#pc29aa66763)" style="fill: none; stroke: #111111; stroke-width: 3.6; stroke-linecap: round"/>
   </g>
   <g id="line2d_17">
    <path d="M 324.964475 182.987551 
L 415.484919 182.987551 
" clip-path="url(#pc29aa66763)" style="fill: none; stroke: #111111; stroke-width: 3.6; stroke-linecap: round"/>
   </g>
   <g id="line2d_18">
    <path d="M 324.964475 67.410143 
L 415.484919 67.410143 
" clip-path="url(#pc29aa66763)" style="fill: none; stroke: #111111; stroke-width: 3.6; stroke-linecap: round"/>
   </g>
   <g id="line2d_19">
    <path d="M 574.838617 338.745034 
L 665.359061 338.745034 
" clip-path="url(#pc29aa66763)" style="fill: none; stroke: #111111; stroke-width: 3.6; stroke-linecap: round"/>
   </g>
   <g id="line2d_20">
    <path d="M 574.838617 253.337849 
L 665.359061 253.337849 
" clip-path="url(#pc29aa66763)" style="fill: none; stroke: #111111; stroke-width: 3.6; stroke-linecap: round"/>
   </g>
   <g id="text_1">
    <!-- $^{48}\mathrm{Ca}$ -->
    <g transform="translate(334.502 33.034687) scale(0.34 -0.34)">
     <defs>
      <path id="DejaVuSans-34" d="M 2419 4116 
L 825 1625 
L 2419 1625 
L 2419 4116 
z
M 2253 4666 
L 3047 4666 
L 3047 1625 
L 3713 1625 
L 3713 1100 
L 3047 1100 
L 3047 0 
L 2419 0 
L 2419 1100 
L 313 1100 
L 313 1709 
L 2253 4666 
z
" transform="scale(0.015625)"/>
      <path id="DejaVuSans-38" d="M 2034 2216 
Q 1584 2216 1326 1975 
Q 1069 1734 1069 1313 
Q 1069 891 1326 650 
Q 1584 409 2034 409 
Q 2484 409 2743 651 
Q 3003 894 3003 1313 
Q 3003 1734 2745 1975 
Q 2488 2216 2034 2216 
z
M 1403 2484 
Q 997 2584 770 2862 
Q 544 3141 544 3541 
Q 544 4100 942 4425 
Q 1341 4750 2034 4750 
Q 2731 4750 3128 4425 
Q 3525 4100 3525 3541 
Q 3525 3141 3298 2862 
Q 3072 2584 2669 2484 
Q 3125 2378 3379 2068 
Q 3634 1759 3634 1313 
Q 3634 634 3220 271 
Q 2806 -91 2034 -91 
Q 1263 -91 848 271 
Q 434 634 434 1313 
Q 434 1759 690 2068 
Q 947 2378 1403 2484 
z
M 1172 3481 
Q 1172 3119 1398 2916 
Q 1625 2713 2034 2713 
Q 2441 2713 2670 2916 
Q 2900 3119 2900 3481 
Q 2900 3844 2670 4047 
Q 2441 4250 2034 4250 
Q 1625 4250 1398 4047 
Q 1172 3844 1172 3481 
z
" transform="scale(0.015625)"/>
      <path id="DejaVuSans-43" d="M 4122 4306 
L 4122 3641 
Q 3803 3938 3442 4084 
Q 3081 4231 2675 4231 
Q 1875 4231 1450 3742 
Q 1025 3253 1025 2328 
Q 1025 1406 1450 917 
Q 1875 428 2675 428 
Q 3081 428 3442 575 
Q 3803 722 4122 1019 
L 4122 359 
Q 3791 134 3420 21 
Q 3050 -91 2638 -91 
Q 1578 -91 968 557 
Q 359 1206 359 2328 
Q 359 3453 968 4101 
Q 1578 4750 2638 4750 
Q 3056 4750 3426 4639 
Q 3797 4528 4122 4306 
z
" transform="scale(0.015625)"/>
      <path id="DejaVuSans-61" d="M 2194 1759 
Q 1497 1759 1228 1600 
Q 959 1441 959 1056 
Q 959 750 1161 570 
Q 1363 391 1709 391 
Q 2188 391 2477 730 
Q 2766 1069 2766 1631 
L 2766 1759 
L 2194 1759 
z
M 3341 1997 
L 3341 0 
L 2766 0 
L 2766 531 
Q 2569 213 2275 61 
Q 1981 -91 1556 -91 
Q 1019 -91 701 211 
Q 384 513 384 1019 
Q 384 1609 779 1909 
Q 1175 2209 1959 2209 
L 2766 2209 
L 2766 2266 
Q 2766 2663 2505 2880 
Q 2244 3097 1772 3097 
Q 1472 3097 1187 3025 
Q 903 2953 641 2809 
L 641 3341 
Q 956 3463 1253 3523 
Q 1550 3584 1831 3584 
Q 2591 3584 2966 3190 
Q 3341 2797 3341 1997 
z
" transform="scale(0.015625)"/>
     </defs>
     <use xlink:href="#DejaVuSans-34" transform="translate(0.957031 39.046875) scale(0.7)"/>
     <use xlink:href="#DejaVuSans-38" transform="translate(45.493164 39.046875) scale(0.7)"/>
     <use xlink:href="#DejaVuSans-43" transform="translate(92.763672 0.765625)"/>
     <use xlink:href="#DejaVuSans-61" transform="translate(162.587891 0.765625)"/>
    </g>
   </g>
   <g id="text_2">
    <!-- 0 -->
    <g transform="translate(46.98525 483.588565) scale(0.16 -0.16)">
     <defs>
      <path id="DejaVuSans-BoldOblique-30" d="M 1913 728 
Q 2153 728 2339 872 
Q 2525 1016 2650 1294 
Q 2738 1491 2809 1742 
Q 2881 1994 2944 2338 
Q 2997 2616 3025 2850 
Q 3053 3084 3053 3250 
Q 3053 3600 2928 3764 
Q 2803 3928 2541 3928 
Q 2297 3928 2112 3789 
Q 1928 3650 1806 3366 
Q 1713 3163 1636 2903 
Q 1559 2644 1503 2338 
Q 1450 2056 1422 1815 
Q 1394 1575 1394 1409 
Q 1394 1063 1522 895 
Q 1650 728 1913 728 
z
M 4225 3072 
Q 4225 2450 4053 1862 
Q 3881 1275 3572 831 
Q 3256 375 2809 142 
Q 2363 -91 1813 -91 
Q 1047 -91 639 343 
Q 231 778 231 1594 
Q 231 2206 401 2795 
Q 572 3384 878 3822 
Q 1200 4281 1644 4515 
Q 2088 4750 2644 4750 
Q 3403 4750 3814 4314 
Q 4225 3878 4225 3072 
z
" transform="scale(0.015625)"/>
     </defs>
     <use xlink:href="#DejaVuSans-BoldOblique-30"/>
    </g>
   </g>
   <g id="text_3">
    <!-- 0⁺ -->
    <g transform="translate(182.58336 484.328799) scale(0.23 -0.23)">
     <defs>
      <path id="TimesNewRomanPS-BoldMT-30" d="M 2966 2119 
Q 2966 1484 2788 934 
Q 2681 597 2501 381 
Q 2322 166 2094 39 
Q 1866 -88 1597 -88 
Q 1291 -88 1044 68 
Q 797 225 606 516 
Q 469 728 366 1081 
Q 231 1559 231 2069 
Q 231 2759 425 3338 
Q 584 3816 909 4070 
Q 1234 4325 1597 4325 
Q 1966 4325 2286 4073 
Q 2606 3822 2756 3397 
Q 2966 2813 2966 2119 
z
M 2003 2125 
Q 2003 3238 1991 3422 
Q 1959 3856 1841 4009 
Q 1763 4109 1588 4109 
Q 1453 4109 1375 4034 
Q 1259 3925 1218 3648 
Q 1178 3372 1178 1719 
Q 1178 819 1241 513 
Q 1288 291 1375 216 
Q 1463 141 1606 141 
Q 1763 141 1841 241 
Q 1972 416 1991 781 
L 2003 2125 
z
" transform="scale(0.015625)"/>
      <path id="DejaVuSerif-Bold-207a" d="M 1916 4344 
L 1916 3441 
L 2950 3441 
L 2950 3044 
L 1916 3044 
L 1916 2141 
L 1463 2141 
L 1463 3044 
L 428 3044 
L 428 3441 
L 1463 3441 
L 1463 4344 
L 1916 4344 
z
" transform="scale(0.015625)"/>
     </defs>
     <use xlink:href="#TimesNewRomanPS-BoldMT-30"/>
     <use xlink:href="#DejaVuSerif-Bold-207a" transform="translate(50 0)"/>
    </g>
   </g>
   <g id="text_4">
    <!-- 2603 -->
    <g transform="translate(13.58775 397.851449) scale(0.16 -0.16)">
     <defs>
      <path id="DejaVuSans-BoldOblique-32" d="M 1581 884 
L 3609 884 
L 3438 0 
L 50 0 
L 225 891 
L 2209 2388 
Q 2534 2638 2704 2894 
Q 2875 3150 2875 3391 
Q 2875 3647 2700 3787 
Q 2525 3928 2209 3928 
Q 1913 3928 1547 3811 
Q 1181 3694 722 3450 
L 922 4441 
Q 1347 4597 1756 4673 
Q 2166 4750 2566 4750 
Q 3278 4750 3687 4442 
Q 4097 4134 4097 3603 
Q 4097 3147 3847 2772 
Q 3597 2397 2747 1759 
L 1581 884 
z
" transform="scale(0.015625)"/>
      <path id="DejaVuSans-BoldOblique-36" d="M 2316 2303 
Q 1959 2303 1731 2009 
Q 1503 1716 1503 1253 
Q 1503 975 1643 820 
Q 1784 666 2034 666 
Q 2388 666 2617 955 
Q 2847 1244 2847 1684 
Q 2847 1984 2709 2143 
Q 2572 2303 2316 2303 
z
M 4225 4544 
L 4056 3681 
Q 3788 3819 3534 3887 
Q 3281 3956 3028 3956 
Q 2447 3956 2087 3643 
Q 1728 3331 1650 2766 
Q 1894 2925 2151 3001 
Q 2409 3078 2700 3078 
Q 3275 3078 3640 2737 
Q 4006 2397 4006 1869 
Q 4006 1006 3442 454 
Q 2878 -97 1991 -97 
Q 1194 -97 756 354 
Q 319 806 319 1631 
Q 319 2269 512 2848 
Q 706 3428 1056 3847 
Q 1431 4294 1942 4519 
Q 2453 4744 3091 4744 
Q 3384 4744 3662 4694 
Q 3941 4644 4225 4544 
z
" transform="scale(0.015625)"/>
      <path id="DejaVuSans-BoldOblique-33" d="M 3022 2516 
Q 3375 2434 3572 2187 
Q 3769 1941 3769 1581 
Q 3769 806 3155 357 
Q 2541 -91 1466 -91 
Q 1059 -91 692 -33 
Q 325 25 0 141 
L 178 1069 
Q 456 906 784 817 
Q 1113 728 1441 728 
Q 1969 728 2276 926 
Q 2584 1125 2584 1459 
Q 2584 1738 2350 1877 
Q 2116 2016 1644 2016 
L 1166 2016 
L 1319 2791 
L 1825 2791 
Q 2316 2791 2602 2969 
Q 2888 3147 2888 3450 
Q 2888 3688 2689 3813 
Q 2491 3938 2113 3938 
Q 1847 3938 1534 3869 
Q 1222 3800 884 3669 
L 1056 4550 
Q 1425 4650 1783 4700 
Q 2141 4750 2491 4750 
Q 3281 4750 3679 4487 
Q 4078 4225 4078 3706 
Q 4078 3241 3801 2930 
Q 3525 2619 3022 2516 
z
" transform="scale(0.015625)"/>
     </defs>
     <use xlink:href="#DejaVuSans-BoldOblique-32"/>
     <use xlink:href="#DejaVuSans-BoldOblique-36" transform="translate(69.580078 0)"/>
     <use xlink:href="#DejaVuSans-BoldOblique-30" transform="translate(139.160156 0)"/>
     <use xlink:href="#DejaVuSans-BoldOblique-33" transform="translate(208.740234 0)"/>
    </g>
   </g>
   <g id="text_5">
    <!-- 2⁺ -->
    <g transform="translate(182.58336 398.591684) scale(0.23 -0.23)">
     <defs>
      <path id="TimesNewRomanPS-BoldMT-32" d="M 2650 0 
L 156 0 
L 156 69 
Q 1303 1434 1548 1906 
Q 1794 2378 1794 2828 
Q 1794 3156 1591 3373 
Q 1388 3591 1094 3591 
Q 613 3591 347 3109 
L 231 3150 
Q 400 3750 744 4037 
Q 1088 4325 1538 4325 
Q 1859 4325 2125 4175 
Q 2391 4025 2541 3764 
Q 2691 3503 2691 3275 
Q 2691 2859 2459 2431 
Q 2144 1853 1081 819 
L 1997 819 
Q 2334 819 2436 847 
Q 2538 875 2603 942 
Q 2669 1009 2775 1225 
L 2888 1225 
L 2650 0 
z
" transform="scale(0.015625)"/>
     </defs>
     <use xlink:href="#TimesNewRomanPS-BoldMT-32"/>
     <use xlink:href="#DejaVuSerif-Bold-207a" transform="translate(50 0)"/>
    </g>
   </g>
   <g id="text_6">
    <!-- 5295 -->
    <g transform="translate(13.58775 309.217283) scale(0.16 -0.16)">
     <defs>
      <path id="DejaVuSans-BoldOblique-35" d="M 1131 4666 
L 4122 4666 
L 3950 3781 
L 1919 3781 
L 1778 3059 
Q 1916 3097 2064 3117 
Q 2213 3138 2363 3138 
Q 3078 3138 3481 2811 
Q 3884 2484 3884 1906 
Q 3884 988 3262 448 
Q 2641 -91 1575 -91 
Q 1184 -91 815 -14 
Q 447 63 84 219 
L 269 1166 
Q 616 941 942 834 
Q 1269 728 1606 728 
Q 2100 728 2397 986 
Q 2694 1244 2694 1663 
Q 2694 1963 2469 2139 
Q 2244 2316 1856 2316 
Q 1594 2316 1289 2248 
Q 984 2181 622 2041 
L 1131 4666 
z
" transform="scale(0.015625)"/>
      <path id="DejaVuSans-BoldOblique-39" d="M 263 103 
L 428 966 
Q 700 825 953 758 
Q 1206 691 1459 691 
Q 2041 691 2400 1003 
Q 2759 1316 2834 1881 
Q 2594 1722 2337 1645 
Q 2081 1569 1791 1569 
Q 1219 1569 853 1909 
Q 488 2250 488 2778 
Q 488 3641 1052 4192 
Q 1616 4744 2503 4744 
Q 3300 4744 3736 4292 
Q 4172 3841 4172 3016 
Q 4172 2381 3978 1801 
Q 3784 1222 3431 800 
Q 3056 353 2548 128 
Q 2041 -97 1403 -97 
Q 1106 -97 825 -47 
Q 544 3 263 103 
z
M 2169 2344 
Q 2525 2344 2753 2637 
Q 2981 2931 2981 3391 
Q 2981 3675 2845 3828 
Q 2709 3981 2456 3981 
Q 2103 3981 1870 3690 
Q 1638 3400 1638 2963 
Q 1638 2663 1775 2503 
Q 1913 2344 2169 2344 
z
" transform="scale(0.015625)"/>
     </defs>
     <use xlink:href="#DejaVuSans-BoldOblique-35"/>
     <use xlink:href="#DejaVuSans-BoldOblique-32" transform="translate(69.580078 0)"/>
     <use xlink:href="#DejaVuSans-BoldOblique-39" transform="translate(139.160156 0)"/>
     <use xlink:href="#DejaVuSans-BoldOblique-35" transform="translate(208.740234 0)"/>
    </g>
   </g>
   <g id="text_7">
    <!-- 4⁺ -->
    <g transform="translate(182.58336 309.957517) scale(0.23 -0.23)">
     <defs>
      <path id="TimesNewRomanPS-BoldMT-34" d="M 159 1597 
L 2172 4325 
L 2553 4325 
L 2553 1597 
L 2941 1597 
L 2941 950 
L 2553 950 
L 2553 0 
L 1694 0 
L 1694 950 
L 159 950 
L 159 1597 
z
M 463 1597 
L 1694 1597 
L 1694 3269 
L 463 1597 
z
" transform="scale(0.015625)"/>
     </defs>
     <use xlink:href="#TimesNewRomanPS-BoldMT-34"/>
     <use xlink:href="#DejaVuSerif-Bold-207a" transform="translate(50 0)"/>
    </g>
   </g>
   <g id="text_8">
    <!-- 8318 -->
    <g transform="translate(13.58775 209.63162) scale(0.16 -0.16)">
     <defs>
      <path id="DejaVuSans-BoldOblique-38" d="M 2150 2088 
Q 1784 2088 1539 1839 
Q 1294 1591 1294 1228 
Q 1294 969 1453 817 
Q 1613 666 1888 666 
Q 2259 666 2503 911 
Q 2747 1156 2747 1522 
Q 2747 1781 2586 1934 
Q 2425 2088 2150 2088 
z
M 1381 2484 
Q 1044 2625 876 2850 
Q 709 3075 709 3391 
Q 709 4025 1229 4387 
Q 1750 4750 2669 4750 
Q 3406 4750 3812 4475 
Q 4219 4200 4219 3700 
Q 4219 3256 3936 2940 
Q 3653 2625 3128 2484 
Q 3509 2338 3690 2091 
Q 3872 1844 3872 1466 
Q 3872 747 3311 328 
Q 2750 -91 1772 -91 
Q 1000 -91 570 217 
Q 141 525 141 1075 
Q 141 1572 470 1945 
Q 800 2319 1381 2484 
z
M 2559 3994 
Q 2241 3994 2048 3808 
Q 1856 3622 1856 3316 
Q 1856 3103 1995 2972 
Q 2134 2841 2363 2841 
Q 2681 2841 2873 3027 
Q 3066 3213 3066 3519 
Q 3066 3734 2927 3864 
Q 2788 3994 2559 3994 
z
" transform="scale(0.015625)"/>
      <path id="DejaVuSans-BoldOblique-31" d="M 441 831 
L 1503 831 
L 2088 3847 
L 953 3622 
L 1113 4441 
L 2241 4666 
L 3384 4666 
L 2644 831 
L 3700 831 
L 3541 0 
L 275 0 
L 441 831 
z
" transform="scale(0.015625)"/>
     </defs>
     <use xlink:href="#DejaVuSans-BoldOblique-38"/>
     <use xlink:href="#DejaVuSans-BoldOblique-33" transform="translate(69.580078 0)"/>
     <use xlink:href="#DejaVuSans-BoldOblique-31" transform="translate(139.160156 0)"/>
     <use xlink:href="#DejaVuSans-BoldOblique-38" transform="translate(208.740234 0)"/>
    </g>
   </g>
   <g id="text_9">
    <!-- 6⁺ -->
    <g transform="translate(182.58336 210.371854) scale(0.23 -0.23)">
     <defs>
      <path id="TimesNewRomanPS-BoldMT-36" d="M 3006 4325 
L 3006 4238 
Q 2441 4094 2098 3867 
Q 1756 3641 1557 3317 
Q 1359 2994 1250 2516 
Q 1388 2609 1478 2638 
Q 1681 2700 1888 2700 
Q 2363 2700 2680 2354 
Q 2997 2009 2997 1413 
Q 2997 994 2825 644 
Q 2653 294 2337 103 
Q 2022 -88 1663 -88 
Q 1272 -88 940 126 
Q 609 341 423 753 
Q 238 1166 238 1650 
Q 238 2363 580 2977 
Q 922 3591 1551 3955 
Q 2181 4319 3006 4325 
z
M 1209 2263 
Q 1184 1831 1184 1631 
Q 1184 1200 1267 797 
Q 1350 394 1494 231 
Q 1597 116 1738 116 
Q 1881 116 1993 283 
Q 2106 450 2106 963 
Q 2106 1825 1897 2153 
Q 1763 2366 1534 2366 
Q 1409 2366 1209 2263 
z
" transform="scale(0.015625)"/>
     </defs>
     <use xlink:href="#TimesNewRomanPS-BoldMT-36"/>
     <use xlink:href="#DejaVuSerif-Bold-207a" transform="translate(50 0)"/>
    </g>
   </g>
   <g id="text_10">
    <!-- 2857 -->
    <g transform="translate(263.461892 389.484068) scale(0.16 -0.16)">
     <defs>
      <path id="DejaVuSans-BoldOblique-37" d="M 922 4666 
L 4441 4666 
L 4300 3981 
L 1703 0 
L 500 0 
L 2969 3781 
L 756 3781 
L 922 4666 
z
" transform="scale(0.015625)"/>
     </defs>
     <use xlink:href="#DejaVuSans-BoldOblique-32"/>
     <use xlink:href="#DejaVuSans-BoldOblique-38" transform="translate(69.580078 0)"/>
     <use xlink:href="#DejaVuSans-BoldOblique-35" transform="translate(139.160156 0)"/>
     <use xlink:href="#DejaVuSans-BoldOblique-37" transform="translate(208.740234 0)"/>
    </g>
   </g>
   <g id="text_11">
    <!-- 0⁺ -->
    <g transform="translate(432.457502 390.224302) scale(0.23 -0.23)">
     <use xlink:href="#TimesNewRomanPS-BoldMT-30"/>
     <use xlink:href="#DejaVuSerif-Bold-207a" transform="translate(50 0)"/>
    </g>
   </g>
   <g id="text_12">
    <!-- 5613 -->
    <g transform="translate(263.461892 298.728802) scale(0.16 -0.16)">
     <use xlink:href="#DejaVuSans-BoldOblique-35"/>
     <use xlink:href="#DejaVuSans-BoldOblique-36" transform="translate(69.580078 0)"/>
     <use xlink:href="#DejaVuSans-BoldOblique-31" transform="translate(139.160156 0)"/>
     <use xlink:href="#DejaVuSans-BoldOblique-33" transform="translate(208.740234 0)"/>
    </g>
   </g>
   <g id="text_13">
    <!-- 2⁺ -->
    <g transform="translate(432.457502 299.469037) scale(0.23 -0.23)">
     <use xlink:href="#TimesNewRomanPS-BoldMT-32"/>
     <use xlink:href="#DejaVuSerif-Bold-207a" transform="translate(50 0)"/>
    </g>
   </g>
   <g id="text_14">
    <!-- 8993 -->
    <g transform="translate(263.461892 187.402551) scale(0.16 -0.16)">
     <use xlink:href="#DejaVuSans-BoldOblique-38"/>
     <use xlink:href="#DejaVuSans-BoldOblique-39" transform="translate(69.580078 0)"/>
     <use xlink:href="#DejaVuSans-BoldOblique-39" transform="translate(139.160156 0)"/>
     <use xlink:href="#DejaVuSans-BoldOblique-33" transform="translate(208.740234 0)"/>
    </g>
   </g>
   <g id="text_15">
    <!-- 4⁺ -->
    <g transform="translate(432.457502 188.142785) scale(0.23 -0.23)">
     <use xlink:href="#TimesNewRomanPS-BoldMT-34"/>
     <use xlink:href="#DejaVuSerif-Bold-207a" transform="translate(50 0)"/>
    </g>
   </g>
   <g id="text_16">
    <!-- 12503 -->
    <g transform="translate(252.329392 71.825143) scale(0.16 -0.16)">
     <use xlink:href="#DejaVuSans-BoldOblique-31"/>
     <use xlink:href="#DejaVuSans-BoldOblique-32" transform="translate(69.580078 0)"/>
     <use xlink:href="#DejaVuSans-BoldOblique-35" transform="translate(139.160156 0)"/>
     <use xlink:href="#DejaVuSans-BoldOblique-30" transform="translate(208.740234 0)"/>
     <use xlink:href="#DejaVuSans-BoldOblique-33" transform="translate(278.320312 0)"/>
    </g>
   </g>
   <g id="text_17">
    <!-- 6⁺ -->
    <g transform="translate(432.457502 72.565378) scale(0.23 -0.23)">
     <use xlink:href="#TimesNewRomanPS-BoldMT-36"/>
     <use xlink:href="#DejaVuSerif-Bold-207a" transform="translate(50 0)"/>
    </g>
   </g>
   <g id="text_18">
    <!-- 4264 -->
    <g transform="translate(513.336034 343.160034) scale(0.16 -0.16)">
     <defs>
      <path id="DejaVuSans-BoldOblique-34" d="M 2638 3641 
L 978 1722 
L 2259 1722 
L 2638 3641 
z
M 2606 4666 
L 3975 4666 
L 3397 1722 
L 4063 1722 
L 3897 850 
L 3231 850 
L 3066 0 
L 1925 0 
L 2094 850 
L -6 850 
L 197 1881 
L 2606 4666 
z
" transform="scale(0.015625)"/>
     </defs>
     <use xlink:href="#DejaVuSans-BoldOblique-34"/>
     <use xlink:href="#DejaVuSans-BoldOblique-32" transform="translate(69.580078 0)"/>
     <use xlink:href="#DejaVuSans-BoldOblique-36" transform="translate(139.160156 0)"/>
     <use xlink:href="#DejaVuSans-BoldOblique-34" transform="translate(208.740234 0)"/>
    </g>
   </g>
   <g id="text_19">
    <!-- 2⁺ -->
    <g transform="translate(682.331644 343.900268) scale(0.23 -0.23)">
     <use xlink:href="#TimesNewRomanPS-BoldMT-32"/>
     <use xlink:href="#DejaVuSerif-Bold-207a" transform="translate(50 0)"/>
    </g>
   </g>
   <g id="text_20">
    <!-- 6857 -->
    <g transform="translate(513.336034 257.752849) scale(0.16 -0.16)">
     <use xlink:href="#DejaVuSans-BoldOblique-36"/>
     <use xlink:href="#DejaVuSans-BoldOblique-38" transform="translate(69.580078 0)"/>
     <use xlink:href="#DejaVuSans-BoldOblique-35" transform="translate(139.160156 0)"/>
     <use xlink:href="#DejaVuSans-BoldOblique-37" transform="translate(208.740234 0)"/>
    </g>
   </g>
   <g id="text_21">
    <!-- 3⁺ -->
    <g transform="translate(682.331644 258.493083) scale(0.23 -0.23)">
     <defs>
      <path id="TimesNewRomanPS-BoldMT-33" d="M 947 2125 
L 947 2234 
Q 1303 2338 1440 2427 
Q 1578 2516 1678 2698 
Q 1778 2881 1778 3069 
Q 1778 3328 1589 3514 
Q 1400 3700 1119 3700 
Q 681 3700 375 3238 
L 259 3278 
Q 484 3800 836 4062 
Q 1188 4325 1619 4325 
Q 2059 4325 2345 4056 
Q 2631 3788 2631 3428 
Q 2631 3194 2498 2976 
Q 2366 2759 2081 2594 
Q 2447 2416 2639 2155 
Q 2831 1894 2831 1500 
Q 2831 838 2351 373 
Q 1872 -91 1066 -91 
Q 528 -91 281 88 
Q 103 213 103 409 
Q 103 553 206 654 
Q 309 756 444 756 
Q 547 756 638 713 
Q 688 688 992 439 
Q 1297 191 1563 191 
Q 1794 191 1959 373 
Q 2125 556 2125 838 
Q 2125 1266 1825 1627 
Q 1525 1988 947 2125 
z
" transform="scale(0.015625)"/>
     </defs>
     <use xlink:href="#TimesNewRomanPS-BoldMT-33"/>
     <use xlink:href="#DejaVuSerif-Bold-207a" transform="translate(50 0)"/>
    </g>
   </g>
   <g id="text_22">
    <path d="M 112.788055 429.296257 
L 117.748055 429.296257 
L 116.960555 431.313757 
L 112.788055 431.313757 
L 112.390555 432.368757 
Q 115.085555 432.468757 116.538055 433.711257 
Q 117.733055 434.733757 117.733055 436.258757 
Q 117.733055 437.233757 117.178055 438.168757 
Q 116.623055 439.101257 115.615555 439.606257 
Q 114.608055 440.111257 113.405555 440.111257 
Q 112.108055 440.111257 111.413055 439.626257 
Q 110.928055 439.281257 110.928055 438.843757 
Q 110.928055 438.508757 111.180555 438.251257 
Q 111.435555 437.993757 111.773055 437.993757 
Q 112.078055 437.993757 112.390555 438.118757 
Q 112.703055 438.243757 113.460555 438.773757 
Q 113.935555 439.101257 114.280555 439.226257 
Q 114.523055 439.321257 114.828055 439.321257 
Q 115.468055 439.321257 115.915555 438.853757 
Q 116.365555 438.383757 116.365555 437.726257 
Q 116.365555 436.351257 114.990555 435.493757 
Q 113.615555 434.633757 111.523055 434.633757 
Q 111.310555 434.633757 110.890555 434.641257 
L 112.788055 429.296257 
z
M 120.350555 437.483757 
Q 120.898055 437.483757 121.275555 437.868757 
Q 121.655555 438.251257 121.655555 438.788757 
Q 121.655555 439.328757 121.273055 439.708757 
Q 120.890555 440.086257 120.350555 440.086257 
Q 119.810555 440.086257 119.430555 439.708757 
Q 119.053055 439.328757 119.053055 438.788757 
Q 119.053055 438.251257 119.430555 437.868757 
Q 119.810555 437.483757 120.350555 437.483757 
z
M 127.560555 429.078757 
L 127.560555 437.743757 
Q 127.560555 438.718757 127.645555 438.988757 
Q 127.733055 439.258757 128.005555 439.431257 
Q 128.280555 439.601257 128.883055 439.601257 
L 129.123055 439.601257 
L 129.123055 439.891257 
L 123.545555 439.891257 
L 123.545555 439.601257 
L 123.828055 439.601257 
Q 124.508055 439.601257 124.795555 439.446257 
Q 125.085555 439.288757 125.185555 439.016257 
Q 125.288055 438.743757 125.288055 437.743757 
L 125.288055 432.251257 
Q 125.288055 431.516257 125.218055 431.333757 
Q 125.148055 431.148757 124.955555 431.021257 
Q 124.765555 430.891257 124.515555 430.891257 
Q 124.115555 430.891257 123.545555 431.141257 
L 123.405555 430.858757 
L 127.303055 429.078757 
L 127.560555 429.078757 
z
" style="stroke: #ffffff; stroke-width: 3.8"/>
    <path d="M 112.788055 429.296257 
L 117.748055 429.296257 
L 116.960555 431.313757 
L 112.788055 431.313757 
L 112.390555 432.368757 
Q 115.085555 432.468757 116.538055 433.711257 
Q 117.733055 434.733757 117.733055 436.258757 
Q 117.733055 437.233757 117.178055 438.168757 
Q 116.623055 439.101257 115.615555 439.606257 
Q 114.608055 440.111257 113.405555 440.111257 
Q 112.108055 440.111257 111.413055 439.626257 
Q 110.928055 439.281257 110.928055 438.843757 
Q 110.928055 438.508757 111.180555 438.251257 
Q 111.435555 437.993757 111.773055 437.993757 
Q 112.078055 437.993757 112.390555 438.118757 
Q 112.703055 438.243757 113.460555 438.773757 
Q 113.935555 439.101257 114.280555 439.226257 
Q 114.523055 439.321257 114.828055 439.321257 
Q 115.468055 439.321257 115.915555 438.853757 
Q 116.365555 438.383757 116.365555 437.726257 
Q 116.365555 436.351257 114.990555 435.493757 
Q 113.615555 434.633757 111.523055 434.633757 
Q 111.310555 434.633757 110.890555 434.641257 
L 112.788055 429.296257 
z
M 120.350555 437.483757 
Q 120.898055 437.483757 121.275555 437.868757 
Q 121.655555 438.251257 121.655555 438.788757 
Q 121.655555 439.328757 121.273055 439.708757 
Q 120.890555 440.086257 120.350555 440.086257 
Q 119.810555 440.086257 119.430555 439.708757 
Q 119.053055 439.328757 119.053055 438.788757 
Q 119.053055 438.251257 119.430555 437.868757 
Q 119.810555 437.483757 120.350555 437.483757 
z
M 127.560555 429.078757 
L 127.560555 437.743757 
Q 127.560555 438.718757 127.645555 438.988757 
Q 127.733055 439.258757 128.005555 439.431257 
Q 128.280555 439.601257 128.883055 439.601257 
L 129.123055 439.601257 
L 129.123055 439.891257 
L 123.545555 439.891257 
L 123.545555 439.601257 
L 123.828055 439.601257 
Q 124.508055 439.601257 124.795555 439.446257 
Q 125.085555 439.288757 125.185555 439.016257 
Q 125.288055 438.743757 125.288055 437.743757 
L 125.288055 432.251257 
Q 125.288055 431.516257 125.218055 431.333757 
Q 125.148055 431.148757 124.955555 431.021257 
Q 124.765555 430.891257 124.515555 430.891257 
Q 124.115555 430.891257 123.545555 431.141257 
L 123.405555 430.858757 
L 127.303055 429.078757 
L 127.560555 429.078757 
z
"/>
   </g>
   <g id="text_23">
    <path d="M 111.560555 341.893116 
L 111.560555 350.558116 
Q 111.560555 351.533116 111.645555 351.803116 
Q 111.733055 352.073116 112.005555 352.245616 
Q 112.280555 352.415616 112.883055 352.415616 
L 113.123055 352.415616 
L 113.123055 352.705616 
L 107.545555 352.705616 
L 107.545555 352.415616 
L 107.828055 352.415616 
Q 108.508055 352.415616 108.795555 352.260616 
Q 109.085555 352.103116 109.185555 351.830616 
Q 109.288055 351.558116 109.288055 350.558116 
L 109.288055 345.065616 
Q 109.288055 344.330616 109.218055 344.148116 
Q 109.148055 343.963116 108.955555 343.835616 
Q 108.765555 343.705616 108.515555 343.705616 
Q 108.115555 343.705616 107.545555 343.955616 
L 107.405555 343.673116 
L 111.303055 341.893116 
L 111.560555 341.893116 
z
M 116.788055 342.110616 
L 121.748055 342.110616 
L 120.960555 344.128116 
L 116.788055 344.128116 
L 116.390555 345.183116 
Q 119.085555 345.283116 120.538055 346.525616 
Q 121.733055 347.548116 121.733055 349.073116 
Q 121.733055 350.048116 121.178055 350.983116 
Q 120.623055 351.915616 119.615555 352.420616 
Q 118.608055 352.925616 117.405555 352.925616 
Q 116.108055 352.925616 115.413055 352.440616 
Q 114.928055 352.095616 114.928055 351.658116 
Q 114.928055 351.323116 115.180555 351.065616 
Q 115.435555 350.808116 115.773055 350.808116 
Q 116.078055 350.808116 116.390555 350.933116 
Q 116.703055 351.058116 117.460555 351.588116 
Q 117.935555 351.915616 118.280555 352.040616 
Q 118.523055 352.135616 118.828055 352.135616 
Q 119.468055 352.135616 119.915555 351.668116 
Q 120.365555 351.198116 120.365555 350.540616 
Q 120.365555 349.165616 118.990555 348.308116 
Q 117.615555 347.448116 115.523055 347.448116 
Q 115.310555 347.448116 114.890555 347.455616 
L 116.788055 342.110616 
z
M 124.350555 350.298116 
Q 124.898055 350.298116 125.275555 350.683116 
Q 125.655555 351.065616 125.655555 351.603116 
Q 125.655555 352.143116 125.273055 352.523116 
Q 124.890555 352.900616 124.350555 352.900616 
Q 123.810555 352.900616 123.430555 352.523116 
Q 123.053055 352.143116 123.053055 351.603116 
Q 123.053055 351.065616 123.430555 350.683116 
Q 123.810555 350.298116 124.350555 350.298116 
z
M 129.185555 352.925616 
L 132.070555 344.183116 
L 129.873055 344.183116 
Q 128.585555 344.183116 127.935555 344.518116 
Q 127.483055 344.753116 127.185555 345.400616 
L 126.890555 345.400616 
L 127.655555 342.110616 
L 133.968055 342.110616 
L 130.413055 352.925616 
L 129.185555 352.925616 
z
" style="stroke: #ffffff; stroke-width: 3.8"/>
    <path d="M 111.560555 341.893116 
L 111.560555 350.558116 
Q 111.560555 351.533116 111.645555 351.803116 
Q 111.733055 352.073116 112.005555 352.245616 
Q 112.280555 352.415616 112.883055 352.415616 
L 113.123055 352.415616 
L 113.123055 352.705616 
L 107.545555 352.705616 
L 107.545555 352.415616 
L 107.828055 352.415616 
Q 108.508055 352.415616 108.795555 352.260616 
Q 109.085555 352.103116 109.185555 351.830616 
Q 109.288055 351.558116 109.288055 350.558116 
L 109.288055 345.065616 
Q 109.288055 344.330616 109.218055 344.148116 
Q 109.148055 343.963116 108.955555 343.835616 
Q 108.765555 343.705616 108.515555 343.705616 
Q 108.115555 343.705616 107.545555 343.955616 
L 107.405555 343.673116 
L 111.303055 341.893116 
L 111.560555 341.893116 
z
M 116.788055 342.110616 
L 121.748055 342.110616 
L 120.960555 344.128116 
L 116.788055 344.128116 
L 116.390555 345.183116 
Q 119.085555 345.283116 120.538055 346.525616 
Q 121.733055 347.548116 121.733055 349.073116 
Q 121.733055 350.048116 121.178055 350.983116 
Q 120.623055 351.915616 119.615555 352.420616 
Q 118.608055 352.925616 117.405555 352.925616 
Q 116.108055 352.925616 115.413055 352.440616 
Q 114.928055 352.095616 114.928055 351.658116 
Q 114.928055 351.323116 115.180555 351.065616 
Q 115.435555 350.808116 115.773055 350.808116 
Q 116.078055 350.808116 116.390555 350.933116 
Q 116.703055 351.058116 117.460555 351.588116 
Q 117.935555 351.915616 118.280555 352.040616 
Q 118.523055 352.135616 118.828055 352.135616 
Q 119.468055 352.135616 119.915555 351.668116 
Q 120.365555 351.198116 120.365555 350.540616 
Q 120.365555 349.165616 118.990555 348.308116 
Q 117.615555 347.448116 115.523055 347.448116 
Q 115.310555 347.448116 114.890555 347.455616 
L 116.788055 342.110616 
z
M 124.350555 350.298116 
Q 124.898055 350.298116 125.275555 350.683116 
Q 125.655555 351.065616 125.655555 351.603116 
Q 125.655555 352.143116 125.273055 352.523116 
Q 124.890555 352.900616 124.350555 352.900616 
Q 123.810555 352.900616 123.430555 352.523116 
Q 123.053055 352.143116 123.053055 351.603116 
Q 123.053055 351.065616 123.430555 350.683116 
Q 123.810555 350.298116 124.350555 350.298116 
z
M 129.185555 352.925616 
L 132.070555 344.183116 
L 129.873055 344.183116 
Q 128.585555 344.183116 127.935555 344.518116 
Q 127.483055 344.753116 127.185555 345.400616 
L 126.890555 345.400616 
L 127.655555 342.110616 
L 133.968055 342.110616 
L 130.413055 352.925616 
L 129.185555 352.925616 
z
"/>
   </g>
   <g id="text_24">
    <path d="M 112.975555 258.595701 
L 106.740555 258.595701 
L 106.740555 258.423201 
Q 109.608055 255.010701 110.220555 253.830701 
Q 110.835555 252.650701 110.835555 251.525701 
Q 110.835555 250.705701 110.328055 250.163201 
Q 109.820555 249.618201 109.085555 249.618201 
Q 107.883055 249.618201 107.218055 250.823201 
L 106.928055 250.720701 
Q 107.350555 249.220701 108.210555 248.503201 
Q 109.070555 247.783201 110.195555 247.783201 
Q 110.998055 247.783201 111.663055 248.158201 
Q 112.328055 248.533201 112.703055 249.185701 
Q 113.078055 249.838201 113.078055 250.408201 
Q 113.078055 251.448201 112.498055 252.518201 
Q 111.710555 253.963201 109.053055 256.548201 
L 111.343055 256.548201 
Q 112.185555 256.548201 112.440555 256.478201 
Q 112.695555 256.408201 112.858055 256.240701 
Q 113.023055 256.073201 113.288055 255.533201 
L 113.570555 255.533201 
L 112.975555 258.595701 
z
M 117.185555 258.815701 
L 120.070555 250.073201 
L 117.873055 250.073201 
Q 116.585555 250.073201 115.935555 250.408201 
Q 115.483055 250.643201 115.185555 251.290701 
L 114.890555 251.290701 
L 115.655555 248.000701 
L 121.968055 248.000701 
L 118.413055 258.815701 
L 117.185555 258.815701 
z
M 124.350555 256.188201 
Q 124.898055 256.188201 125.275555 256.573201 
Q 125.655555 256.955701 125.655555 257.493201 
Q 125.655555 258.033201 125.273055 258.413201 
Q 124.890555 258.790701 124.350555 258.790701 
Q 123.810555 258.790701 123.430555 258.413201 
Q 123.053055 258.033201 123.053055 257.493201 
Q 123.053055 256.955701 123.430555 256.573201 
Q 123.810555 256.188201 124.350555 256.188201 
z
M 126.843055 258.815701 
L 126.843055 258.595701 
Q 128.140555 258.298201 129.043055 257.720701 
Q 129.945555 257.143201 130.470555 256.290701 
Q 130.998055 255.438201 131.210555 254.330701 
Q 130.725555 254.580701 130.385555 254.678201 
Q 130.045555 254.775701 129.670555 254.775701 
Q 128.468055 254.775701 127.665555 253.908201 
Q 126.865555 253.040701 126.865555 251.533201 
Q 126.865555 250.485701 127.298055 249.615701 
Q 127.733055 248.743201 128.538055 248.263201 
Q 129.343055 247.783201 130.210555 247.783201 
Q 131.140555 247.783201 131.968055 248.315701 
Q 132.795555 248.845701 133.288055 249.853201 
Q 133.780555 250.860701 133.780555 252.150701 
Q 133.780555 253.823201 132.978055 255.355701 
Q 132.178055 256.885701 130.593055 257.810701 
Q 129.008055 258.735701 126.843055 258.815701 
z
M 131.328055 253.673201 
Q 131.405555 252.798201 131.405555 252.135701 
Q 131.405555 250.713201 131.078055 249.485701 
Q 130.890555 248.805701 130.523055 248.485701 
Q 130.328055 248.313201 130.015555 248.313201 
Q 129.623055 248.313201 129.405555 248.650701 
Q 129.100555 249.110701 129.100555 250.408201 
Q 129.100555 252.573201 129.615555 253.393201 
Q 129.953055 253.923201 130.523055 253.923201 
Q 130.828055 253.923201 131.328055 253.673201 
z
" style="stroke: #ffffff; stroke-width: 3.8"/>
    <path d="M 112.975555 258.595701 
L 106.740555 258.595701 
L 106.740555 258.423201 
Q 109.608055 255.010701 110.220555 253.830701 
Q 110.835555 252.650701 110.835555 251.525701 
Q 110.835555 250.705701 110.328055 250.163201 
Q 109.820555 249.618201 109.085555 249.618201 
Q 107.883055 249.618201 107.218055 250.823201 
L 106.928055 250.720701 
Q 107.350555 249.220701 108.210555 248.503201 
Q 109.070555 247.783201 110.195555 247.783201 
Q 110.998055 247.783201 111.663055 248.158201 
Q 112.328055 248.533201 112.703055 249.185701 
Q 113.078055 249.838201 113.078055 250.408201 
Q 113.078055 251.448201 112.498055 252.518201 
Q 111.710555 253.963201 109.053055 256.548201 
L 111.343055 256.548201 
Q 112.185555 256.548201 112.440555 256.478201 
Q 112.695555 256.408201 112.858055 256.240701 
Q 113.023055 256.073201 113.288055 255.533201 
L 113.570555 255.533201 
L 112.975555 258.595701 
z
M 117.185555 258.815701 
L 120.070555 250.073201 
L 117.873055 250.073201 
Q 116.585555 250.073201 115.935555 250.408201 
Q 115.483055 250.643201 115.185555 251.290701 
L 114.890555 251.290701 
L 115.655555 248.000701 
L 121.968055 248.000701 
L 118.413055 258.815701 
L 117.185555 258.815701 
z
M 124.350555 256.188201 
Q 124.898055 256.188201 125.275555 256.573201 
Q 125.655555 256.955701 125.655555 257.493201 
Q 125.655555 258.033201 125.273055 258.413201 
Q 124.890555 258.790701 124.350555 258.790701 
Q 123.810555 258.790701 123.430555 258.413201 
Q 123.053055 258.033201 123.053055 257.493201 
Q 123.053055 256.955701 123.430555 256.573201 
Q 123.810555 256.188201 124.350555 256.188201 
z
M 126.843055 258.815701 
L 126.843055 258.595701 
Q 128.140555 258.298201 129.043055 257.720701 
Q 129.945555 257.143201 130.470555 256.290701 
Q 130.998055 255.438201 131.210555 254.330701 
Q 130.725555 254.580701 130.385555 254.678201 
Q 130.045555 254.775701 129.670555 254.775701 
Q 128.468055 254.775701 127.665555 253.908201 
Q 126.865555 253.040701 126.865555 251.533201 
Q 126.865555 250.485701 127.298055 249.615701 
Q 127.733055 248.743201 128.538055 248.263201 
Q 129.343055 247.783201 130.210555 247.783201 
Q 131.140555 247.783201 131.968055 248.315701 
Q 132.795555 248.845701 133.288055 249.853201 
Q 133.780555 250.860701 133.780555 252.150701 
Q 133.780555 253.823201 132.978055 255.355701 
Q 132.178055 256.885701 130.593055 257.810701 
Q 129.008055 258.735701 126.843055 258.815701 
z
M 131.328055 253.673201 
Q 131.405555 252.798201 131.405555 252.135701 
Q 131.405555 250.713201 131.078055 249.485701 
Q 130.890555 248.805701 130.523055 248.485701 
Q 130.328055 248.313201 130.015555 248.313201 
Q 129.623055 248.313201 129.405555 248.650701 
Q 129.100555 249.110701 129.100555 250.408201 
Q 129.100555 252.573201 129.615555 253.393201 
Q 129.953055 253.923201 130.523055 253.923201 
Q 130.828055 253.923201 131.328055 253.673201 
z
"/>
   </g>
   <g id="text_25">
    <path d="M 362.662197 332.682685 
L 367.622197 332.682685 
L 366.834697 334.700185 
L 362.662197 334.700185 
L 362.264697 335.755185 
Q 364.959697 335.855185 366.412197 337.097685 
Q 367.607197 338.120185 367.607197 339.645185 
Q 367.607197 340.620185 367.052197 341.555185 
Q 366.497197 342.487685 365.489697 342.992685 
Q 364.482197 343.497685 363.279697 343.497685 
Q 361.982197 343.497685 361.287197 343.012685 
Q 360.802197 342.667685 360.802197 342.230185 
Q 360.802197 341.895185 361.054697 341.637685 
Q 361.309697 341.380185 361.647197 341.380185 
Q 361.952197 341.380185 362.264697 341.505185 
Q 362.577197 341.630185 363.334697 342.160185 
Q 363.809697 342.487685 364.154697 342.612685 
Q 364.397197 342.707685 364.702197 342.707685 
Q 365.342197 342.707685 365.789697 342.240185 
Q 366.239697 341.770185 366.239697 341.112685 
Q 366.239697 339.737685 364.864697 338.880185 
Q 363.489697 338.020185 361.397197 338.020185 
Q 361.184697 338.020185 360.764697 338.027685 
L 362.662197 332.682685 
z
M 370.224697 340.870185 
Q 370.772197 340.870185 371.149697 341.255185 
Q 371.529697 341.637685 371.529697 342.175185 
Q 371.529697 342.715185 371.147197 343.095185 
Q 370.764697 343.472685 370.224697 343.472685 
Q 369.684697 343.472685 369.304697 343.095185 
Q 368.927197 342.715185 368.927197 342.175185 
Q 368.927197 341.637685 369.304697 341.255185 
Q 369.684697 340.870185 370.224697 340.870185 
z
M 375.059697 343.497685 
L 377.944697 334.755185 
L 375.747197 334.755185 
Q 374.459697 334.755185 373.809697 335.090185 
Q 373.357197 335.325185 373.059697 335.972685 
L 372.764697 335.972685 
L 373.529697 332.682685 
L 379.842197 332.682685 
L 376.287197 343.497685 
L 375.059697 343.497685 
z
" style="stroke: #ffffff; stroke-width: 3.8"/>
    <path d="M 362.662197 332.682685 
L 367.622197 332.682685 
L 366.834697 334.700185 
L 362.662197 334.700185 
L 362.264697 335.755185 
Q 364.959697 335.855185 366.412197 337.097685 
Q 367.607197 338.120185 367.607197 339.645185 
Q 367.607197 340.620185 367.052197 341.555185 
Q 366.497197 342.487685 365.489697 342.992685 
Q 364.482197 343.497685 363.279697 343.497685 
Q 361.982197 343.497685 361.287197 343.012685 
Q 360.802197 342.667685 360.802197 342.230185 
Q 360.802197 341.895185 361.054697 341.637685 
Q 361.309697 341.380185 361.647197 341.380185 
Q 361.952197 341.380185 362.264697 341.505185 
Q 362.577197 341.630185 363.334697 342.160185 
Q 363.809697 342.487685 364.154697 342.612685 
Q 364.397197 342.707685 364.702197 342.707685 
Q 365.342197 342.707685 365.789697 342.240185 
Q 366.239697 341.770185 366.239697 341.112685 
Q 366.239697 339.737685 364.864697 338.880185 
Q 363.489697 338.020185 361.397197 338.020185 
Q 361.184697 338.020185 360.764697 338.027685 
L 362.662197 332.682685 
z
M 370.224697 340.870185 
Q 370.772197 340.870185 371.149697 341.255185 
Q 371.529697 341.637685 371.529697 342.175185 
Q 371.529697 342.715185 371.147197 343.095185 
Q 370.764697 343.472685 370.224697 343.472685 
Q 369.684697 343.472685 369.304697 343.095185 
Q 368.927197 342.715185 368.927197 342.175185 
Q 368.927197 341.637685 369.304697 341.255185 
Q 369.684697 340.870185 370.224697 340.870185 
z
M 375.059697 343.497685 
L 377.944697 334.755185 
L 375.747197 334.755185 
Q 374.459697 334.755185 373.809697 335.090185 
Q 373.357197 335.325185 373.059697 335.972685 
L 372.764697 335.972685 
L 373.529697 332.682685 
L 379.842197 332.682685 
L 376.287197 343.497685 
L 375.059697 343.497685 
z
"/>
   </g>
   <g id="text_26">
    <path d="M 363.059697 242.456926 
L 365.944697 233.714426 
L 363.747197 233.714426 
Q 362.459697 233.714426 361.809697 234.049426 
Q 361.357197 234.284426 361.059697 234.931926 
L 360.764697 234.931926 
L 361.529697 231.641926 
L 367.842197 231.641926 
L 364.287197 242.456926 
L 363.059697 242.456926 
z
M 370.224697 239.829426 
Q 370.772197 239.829426 371.149697 240.214426 
Q 371.529697 240.596926 371.529697 241.134426 
Q 371.529697 241.674426 371.147197 242.054426 
Q 370.764697 242.431926 370.224697 242.431926 
Q 369.684697 242.431926 369.304697 242.054426 
Q 368.927197 241.674426 368.927197 241.134426 
Q 368.927197 240.596926 369.304697 240.214426 
Q 369.684697 239.829426 370.224697 239.829426 
z
M 379.739697 231.424426 
L 379.739697 231.641926 
Q 378.327197 232.001926 377.469697 232.569426 
Q 376.614697 233.134426 376.117197 233.944426 
Q 375.622197 234.751926 375.349697 235.946926 
Q 375.694697 235.714426 375.919697 235.641926 
Q 376.427197 235.486926 376.944697 235.486926 
Q 378.132197 235.486926 378.924697 236.351926 
Q 379.717197 237.214426 379.717197 238.704426 
Q 379.717197 239.751926 379.287197 240.626926 
Q 378.857197 241.501926 378.067197 241.979426 
Q 377.279697 242.456926 376.382197 242.456926 
Q 375.404697 242.456926 374.574697 241.921926 
Q 373.747197 241.384426 373.282197 240.354426 
Q 372.819697 239.321926 372.819697 238.111926 
Q 372.819697 236.329426 373.674697 234.794426 
Q 374.529697 233.259426 376.102197 232.349426 
Q 377.677197 231.439426 379.739697 231.424426 
z
M 375.247197 236.579426 
Q 375.184697 237.659426 375.184697 238.159426 
Q 375.184697 239.236926 375.392197 240.244426 
Q 375.599697 241.251926 375.959697 241.659426 
Q 376.217197 241.946926 376.569697 241.946926 
Q 376.927197 241.946926 377.207197 241.529426 
Q 377.489697 241.111926 377.489697 239.829426 
Q 377.489697 237.674426 376.967197 236.854426 
Q 376.632197 236.321926 376.059697 236.321926 
Q 375.747197 236.321926 375.247197 236.579426 
z
" style="stroke: #ffffff; stroke-width: 3.8"/>
    <path d="M 363.059697 242.456926 
L 365.944697 233.714426 
L 363.747197 233.714426 
Q 362.459697 233.714426 361.809697 234.049426 
Q 361.357197 234.284426 361.059697 234.931926 
L 360.764697 234.931926 
L 361.529697 231.641926 
L 367.842197 231.641926 
L 364.287197 242.456926 
L 363.059697 242.456926 
z
M 370.224697 239.829426 
Q 370.772197 239.829426 371.149697 240.214426 
Q 371.529697 240.596926 371.529697 241.134426 
Q 371.529697 241.674426 371.147197 242.054426 
Q 370.764697 242.431926 370.224697 242.431926 
Q 369.684697 242.431926 369.304697 242.054426 
Q 368.927197 241.674426 368.927197 241.134426 
Q 368.927197 240.596926 369.304697 240.214426 
Q 369.684697 239.829426 370.224697 239.829426 
z
M 379.739697 231.424426 
L 379.739697 231.641926 
Q 378.327197 232.001926 377.469697 232.569426 
Q 376.614697 233.134426 376.117197 233.944426 
Q 375.622197 234.751926 375.349697 235.946926 
Q 375.694697 235.714426 375.919697 235.641926 
Q 376.427197 235.486926 376.944697 235.486926 
Q 378.132197 235.486926 378.924697 236.351926 
Q 379.717197 237.214426 379.717197 238.704426 
Q 379.717197 239.751926 379.287197 240.626926 
Q 378.857197 241.501926 378.067197 241.979426 
Q 377.279697 242.456926 376.382197 242.456926 
Q 375.404697 242.456926 374.574697 241.921926 
Q 373.747197 241.384426 373.282197 240.354426 
Q 372.819697 239.321926 372.819697 238.111926 
Q 372.819697 236.329426 373.674697 234.794426 
Q 374.529697 233.259426 376.102197 232.349426 
Q 377.677197 231.439426 379.739697 231.424426 
z
M 375.247197 236.579426 
Q 375.184697 237.659426 375.184697 238.159426 
Q 375.184697 239.236926 375.392197 240.244426 
Q 375.599697 241.251926 375.959697 241.659426 
Q 376.217197 241.946926 376.569697 241.946926 
Q 376.927197 241.946926 377.207197 241.529426 
Q 377.489697 241.111926 377.489697 239.829426 
Q 377.489697 237.674426 376.967197 236.854426 
Q 376.632197 236.321926 376.059697 236.321926 
Q 375.747197 236.321926 375.247197 236.579426 
z
"/>
   </g>
   <g id="text_27">
    <path d="M 361.434697 117.972597 
L 361.434697 126.637597 
Q 361.434697 127.612597 361.519697 127.882597 
Q 361.607197 128.152597 361.879697 128.325097 
Q 362.154697 128.495097 362.757197 128.495097 
L 362.997197 128.495097 
L 362.997197 128.785097 
L 357.419697 128.785097 
L 357.419697 128.495097 
L 357.702197 128.495097 
Q 358.382197 128.495097 358.669697 128.340097 
Q 358.959697 128.182597 359.059697 127.910097 
Q 359.162197 127.637597 359.162197 126.637597 
L 359.162197 121.145097 
Q 359.162197 120.410097 359.092197 120.227597 
Q 359.022197 120.042597 358.829697 119.915097 
Q 358.639697 119.785097 358.389697 119.785097 
Q 357.989697 119.785097 357.419697 120.035097 
L 357.279697 119.752597 
L 361.177197 117.972597 
L 361.434697 117.972597 
z
M 366.662197 118.190097 
L 371.622197 118.190097 
L 370.834697 120.207597 
L 366.662197 120.207597 
L 366.264697 121.262597 
Q 368.959697 121.362597 370.412197 122.605097 
Q 371.607197 123.627597 371.607197 125.152597 
Q 371.607197 126.127597 371.052197 127.062597 
Q 370.497197 127.995097 369.489697 128.500097 
Q 368.482197 129.005097 367.279697 129.005097 
Q 365.982197 129.005097 365.287197 128.520097 
Q 364.802197 128.175097 364.802197 127.737597 
Q 364.802197 127.402597 365.054697 127.145097 
Q 365.309697 126.887597 365.647197 126.887597 
Q 365.952197 126.887597 366.264697 127.012597 
Q 366.577197 127.137597 367.334697 127.667597 
Q 367.809697 127.995097 368.154697 128.120097 
Q 368.397197 128.215097 368.702197 128.215097 
Q 369.342197 128.215097 369.789697 127.747597 
Q 370.239697 127.277597 370.239697 126.620097 
Q 370.239697 125.245097 368.864697 124.387597 
Q 367.489697 123.527597 365.397197 123.527597 
Q 365.184697 123.527597 364.764697 123.535097 
L 366.662197 118.190097 
z
M 374.224697 126.377597 
Q 374.772197 126.377597 375.149697 126.762597 
Q 375.529697 127.145097 375.529697 127.682597 
Q 375.529697 128.222597 375.147197 128.602597 
Q 374.764697 128.980097 374.224697 128.980097 
Q 373.684697 128.980097 373.304697 128.602597 
Q 372.927197 128.222597 372.927197 127.682597 
Q 372.927197 127.145097 373.304697 126.762597 
Q 373.684697 126.377597 374.224697 126.377597 
z
M 382.849697 128.785097 
L 376.614697 128.785097 
L 376.614697 128.612597 
Q 379.482197 125.200097 380.094697 124.020097 
Q 380.709697 122.840097 380.709697 121.715097 
Q 380.709697 120.895097 380.202197 120.352597 
Q 379.694697 119.807597 378.959697 119.807597 
Q 377.757197 119.807597 377.092197 121.012597 
L 376.802197 120.910097 
Q 377.224697 119.410097 378.084697 118.692597 
Q 378.944697 117.972597 380.069697 117.972597 
Q 380.872197 117.972597 381.537197 118.347597 
Q 382.202197 118.722597 382.577197 119.375097 
Q 382.952197 120.027597 382.952197 120.597597 
Q 382.952197 121.637597 382.372197 122.707597 
Q 381.584697 124.152597 378.927197 126.737597 
L 381.217197 126.737597 
Q 382.059697 126.737597 382.314697 126.667597 
Q 382.569697 126.597597 382.732197 126.430097 
Q 382.897197 126.262597 383.162197 125.722597 
L 383.444697 125.722597 
L 382.849697 128.785097 
z
" style="stroke: #ffffff; stroke-width: 3.8"/>
    <path d="M 361.434697 117.972597 
L 361.434697 126.637597 
Q 361.434697 127.612597 361.519697 127.882597 
Q 361.607197 128.152597 361.879697 128.325097 
Q 362.154697 128.495097 362.757197 128.495097 
L 362.997197 128.495097 
L 362.997197 128.785097 
L 357.419697 128.785097 
L 357.419697 128.495097 
L 357.702197 128.495097 
Q 358.382197 128.495097 358.669697 128.340097 
Q 358.959697 128.182597 359.059697 127.910097 
Q 359.162197 127.637597 359.162197 126.637597 
L 359.162197 121.145097 
Q 359.162197 120.410097 359.092197 120.227597 
Q 359.022197 120.042597 358.829697 119.915097 
Q 358.639697 119.785097 358.389697 119.785097 
Q 357.989697 119.785097 357.419697 120.035097 
L 357.279697 119.752597 
L 361.177197 117.972597 
L 361.434697 117.972597 
z
M 366.662197 118.190097 
L 371.622197 118.190097 
L 370.834697 120.207597 
L 366.662197 120.207597 
L 366.264697 121.262597 
Q 368.959697 121.362597 370.412197 122.605097 
Q 371.607197 123.627597 371.607197 125.152597 
Q 371.607197 126.127597 371.052197 127.062597 
Q 370.497197 127.995097 369.489697 128.500097 
Q 368.482197 129.005097 367.279697 129.005097 
Q 365.982197 129.005097 365.287197 128.520097 
Q 364.802197 128.175097 364.802197 127.737597 
Q 364.802197 127.402597 365.054697 127.145097 
Q 365.309697 126.887597 365.647197 126.887597 
Q 365.952197 126.887597 366.264697 127.012597 
Q 366.577197 127.137597 367.334697 127.667597 
Q 367.809697 127.995097 368.154697 128.120097 
Q 368.397197 128.215097 368.702197 128.215097 
Q 369.342197 128.215097 369.789697 127.747597 
Q 370.239697 127.277597 370.239697 126.620097 
Q 370.239697 125.245097 368.864697 124.387597 
Q 367.489697 123.527597 365.397197 123.527597 
Q 365.184697 123.527597 364.764697 123.535097 
L 366.662197 118.190097 
z
M 374.224697 126.377597 
Q 374.772197 126.377597 375.149697 126.762597 
Q 375.529697 127.145097 375.529697 127.682597 
Q 375.529697 128.222597 375.147197 128.602597 
Q 374.764697 128.980097 374.224697 128.980097 
Q 373.684697 128.980097 373.304697 128.602597 
Q 372.927197 128.222597 372.927197 127.682597 
Q 372.927197 127.145097 373.304697 126.762597 
Q 373.684697 126.377597 374.224697 126.377597 
z
M 382.849697 128.785097 
L 376.614697 128.785097 
L 376.614697 128.612597 
Q 379.482197 125.200097 380.094697 124.020097 
Q 380.709697 122.840097 380.709697 121.715097 
Q 380.709697 120.895097 380.202197 120.352597 
Q 379.694697 119.807597 378.959697 119.807597 
Q 377.757197 119.807597 377.092197 121.012597 
L 376.802197 120.910097 
Q 377.224697 119.410097 378.084697 118.692597 
Q 378.944697 117.972597 380.069697 117.972597 
Q 380.872197 117.972597 381.537197 118.347597 
Q 382.202197 118.722597 382.577197 119.375097 
Q 382.952197 120.027597 382.952197 120.597597 
Q 382.952197 121.637597 382.372197 122.707597 
Q 381.584697 124.152597 378.927197 126.737597 
L 381.217197 126.737597 
Q 382.059697 126.737597 382.314697 126.667597 
Q 382.569697 126.597597 382.732197 126.430097 
Q 382.897197 126.262597 383.162197 125.722597 
L 383.444697 125.722597 
L 382.849697 128.785097 
z
"/>
   </g>
   <g id="text_28">
    <path d="M 577.803672 288.815191 
L 577.803672 297.480191 
Q 577.803672 298.455191 577.888672 298.725191 
Q 577.976172 298.995191 578.248672 299.167691 
Q 578.523672 299.337691 579.126172 299.337691 
L 579.366172 299.337691 
L 579.366172 299.627691 
L 573.788672 299.627691 
L 573.788672 299.337691 
L 574.071172 299.337691 
Q 574.751172 299.337691 575.038672 299.182691 
Q 575.328672 299.025191 575.428672 298.752691 
Q 575.531172 298.480191 575.531172 297.480191 
L 575.531172 291.987691 
Q 575.531172 291.252691 575.461172 291.070191 
Q 575.391172 290.885191 575.198672 290.757691 
Q 575.008672 290.627691 574.758672 290.627691 
Q 574.358672 290.627691 573.788672 290.877691 
L 573.648672 290.595191 
L 577.546172 288.815191 
L 577.803672 288.815191 
z
M 584.923672 288.815191 
L 584.923672 297.480191 
Q 584.923672 298.455191 585.008672 298.725191 
Q 585.096172 298.995191 585.368672 299.167691 
Q 585.643672 299.337691 586.246172 299.337691 
L 586.486172 299.337691 
L 586.486172 299.627691 
L 580.908672 299.627691 
L 580.908672 299.337691 
L 581.191172 299.337691 
Q 581.871172 299.337691 582.158672 299.182691 
Q 582.448672 299.025191 582.548672 298.752691 
Q 582.651172 298.480191 582.651172 297.480191 
L 582.651172 291.987691 
Q 582.651172 291.252691 582.581172 291.070191 
Q 582.511172 290.885191 582.318672 290.757691 
Q 582.128672 290.627691 581.878672 290.627691 
Q 581.478672 290.627691 580.908672 290.877691 
L 580.768672 290.595191 
L 584.666172 288.815191 
L 584.923672 288.815191 
z
M 589.713672 297.220191 
Q 590.261172 297.220191 590.638672 297.605191 
Q 591.018672 297.987691 591.018672 298.525191 
Q 591.018672 299.065191 590.636172 299.445191 
Q 590.253672 299.822691 589.713672 299.822691 
Q 589.173672 299.822691 588.793672 299.445191 
Q 588.416172 299.065191 588.416172 298.525191 
Q 588.416172 297.987691 588.793672 297.605191 
Q 589.173672 297.220191 589.713672 297.220191 
z
M 597.166172 293.642691 
Q 598.283672 294.462691 598.716172 295.170191 
Q 599.151172 295.877691 599.151172 296.792691 
Q 599.151172 298.072691 598.186172 298.960191 
Q 597.221172 299.847691 595.566172 299.847691 
Q 593.996172 299.847691 593.136172 299.075191 
Q 592.276172 298.300191 592.276172 297.182691 
Q 592.276172 296.330191 592.771172 295.690191 
Q 593.268672 295.050191 594.423672 294.517691 
Q 593.166172 293.557691 592.811172 292.947691 
Q 592.456172 292.337691 592.456172 291.532691 
Q 592.456172 290.470191 593.358672 289.662691 
Q 594.261172 288.855191 595.831172 288.855191 
Q 597.346172 288.855191 598.161172 289.570191 
Q 598.978672 290.282691 598.978672 291.282691 
Q 598.978672 292.032691 598.536172 292.607691 
Q 598.096172 293.182691 597.166172 293.642691 
z
M 596.573672 293.245191 
Q 596.861172 292.855191 597.001172 292.370191 
Q 597.143672 291.885191 597.143672 291.307691 
Q 597.143672 290.292691 596.706172 289.752691 
Q 596.378672 289.337691 595.798672 289.337691 
Q 595.276172 289.337691 594.908672 289.717691 
Q 594.541172 290.095191 594.541172 290.657691 
Q 594.541172 291.230191 594.951172 291.842691 
Q 595.361172 292.455191 596.573672 293.245191 
z
M 595.011172 294.892691 
Q 594.768672 295.112691 594.666172 295.292691 
Q 594.511172 295.565191 594.386172 296.090191 
Q 594.261172 296.612691 594.261172 297.182691 
Q 594.261172 297.917691 594.448672 298.412691 
Q 594.636172 298.907691 594.983672 299.127691 
Q 595.331172 299.345191 595.698672 299.345191 
Q 596.268672 299.345191 596.658672 298.927691 
Q 597.048672 298.510191 597.048672 297.782691 
Q 597.048672 296.267691 595.011172 294.892691 
z
" style="stroke: #ffffff; stroke-width: 3.8"/>
    <path d="M 577.803672 288.815191 
L 577.803672 297.480191 
Q 577.803672 298.455191 577.888672 298.725191 
Q 577.976172 298.995191 578.248672 299.167691 
Q 578.523672 299.337691 579.126172 299.337691 
L 579.366172 299.337691 
L 579.366172 299.627691 
L 573.788672 299.627691 
L 573.788672 299.337691 
L 574.071172 299.337691 
Q 574.751172 299.337691 575.038672 299.182691 
Q 575.328672 299.025191 575.428672 298.752691 
Q 575.531172 298.480191 575.531172 297.480191 
L 575.531172 291.987691 
Q 575.531172 291.252691 575.461172 291.070191 
Q 575.391172 290.885191 575.198672 290.757691 
Q 575.008672 290.627691 574.758672 290.627691 
Q 574.358672 290.627691 573.788672 290.877691 
L 573.648672 290.595191 
L 577.546172 288.815191 
L 577.803672 288.815191 
z
M 584.923672 288.815191 
L 584.923672 297.480191 
Q 584.923672 298.455191 585.008672 298.725191 
Q 585.096172 298.995191 585.368672 299.167691 
Q 585.643672 299.337691 586.246172 299.337691 
L 586.486172 299.337691 
L 586.486172 299.627691 
L 580.908672 299.627691 
L 580.908672 299.337691 
L 581.191172 299.337691 
Q 581.871172 299.337691 582.158672 299.182691 
Q 582.448672 299.025191 582.548672 298.752691 
Q 582.651172 298.480191 582.651172 297.480191 
L 582.651172 291.987691 
Q 582.651172 291.252691 582.581172 291.070191 
Q 582.511172 290.885191 582.318672 290.757691 
Q 582.128672 290.627691 581.878672 290.627691 
Q 581.478672 290.627691 580.908672 290.877691 
L 580.768672 290.595191 
L 584.666172 288.815191 
L 584.923672 288.815191 
z
M 589.713672 297.220191 
Q 590.261172 297.220191 590.638672 297.605191 
Q 591.018672 297.987691 591.018672 298.525191 
Q 591.018672 299.065191 590.636172 299.445191 
Q 590.253672 299.822691 589.713672 299.822691 
Q 589.173672 299.822691 588.793672 299.445191 
Q 588.416172 299.065191 588.416172 298.525191 
Q 588.416172 297.987691 588.793672 297.605191 
Q 589.173672 297.220191 589.713672 297.220191 
z
M 597.166172 293.642691 
Q 598.283672 294.462691 598.716172 295.170191 
Q 599.151172 295.877691 599.151172 296.792691 
Q 599.151172 298.072691 598.186172 298.960191 
Q 597.221172 299.847691 595.566172 299.847691 
Q 593.996172 299.847691 593.136172 299.075191 
Q 592.276172 298.300191 592.276172 297.182691 
Q 592.276172 296.330191 592.771172 295.690191 
Q 593.268672 295.050191 594.423672 294.517691 
Q 593.166172 293.557691 592.811172 292.947691 
Q 592.456172 292.337691 592.456172 291.532691 
Q 592.456172 290.470191 593.358672 289.662691 
Q 594.261172 288.855191 595.831172 288.855191 
Q 597.346172 288.855191 598.161172 289.570191 
Q 598.978672 290.282691 598.978672 291.282691 
Q 598.978672 292.032691 598.536172 292.607691 
Q 598.096172 293.182691 597.166172 293.642691 
z
M 596.573672 293.245191 
Q 596.861172 292.855191 597.001172 292.370191 
Q 597.143672 291.885191 597.143672 291.307691 
Q 597.143672 290.292691 596.706172 289.752691 
Q 596.378672 289.337691 595.798672 289.337691 
Q 595.276172 289.337691 594.908672 289.717691 
Q 594.541172 290.095191 594.541172 290.657691 
Q 594.541172 291.230191 594.951172 291.842691 
Q 595.361172 292.455191 596.573672 293.245191 
z
M 595.011172 294.892691 
Q 594.768672 295.112691 594.666172 295.292691 
Q 594.511172 295.565191 594.386172 296.090191 
Q 594.261172 296.612691 594.261172 297.182691 
Q 594.261172 297.917691 594.448672 298.412691 
Q 594.636172 298.907691 594.983672 299.127691 
Q 595.331172 299.345191 595.698672 299.345191 
Q 596.268672 299.345191 596.658672 298.927691 
Q 597.048672 298.510191 597.048672 297.782691 
Q 597.048672 296.267691 595.011172 294.892691 
z
"/>
   </g>
   <g id="text_29">
    <path d="M 549.38632 409.660366 
Q 549.38632 411.148647 548.969132 412.437709 
Q 548.718351 413.227553 548.296476 413.733803 
Q 547.876945 414.237709 547.34257 414.535366 
Q 546.808195 414.833022 546.177726 414.833022 
Q 545.460538 414.833022 544.881632 414.467397 
Q 544.302726 414.099428 543.85507 413.417397 
Q 543.533976 412.920522 543.29257 412.093178 
Q 542.976163 410.972866 542.976163 409.777553 
Q 542.976163 408.160366 543.430851 406.803334 
Q 543.803507 405.683022 544.565226 405.087709 
Q 545.326945 404.490053 546.177726 404.490053 
Q 547.04257 404.490053 547.79257 405.080678 
Q 548.54257 405.668959 548.894132 406.665053 
Q 549.38632 408.033803 549.38632 409.660366 
z
M 547.129288 409.646303 
Q 547.129288 407.037709 547.101163 406.606459 
Q 547.026163 405.589272 546.749601 405.230678 
Q 546.566788 404.996303 546.156632 404.996303 
Q 545.840226 404.996303 545.657413 405.172084 
Q 545.385538 405.427553 545.289445 406.076772 
Q 545.195695 406.723647 545.195695 410.597866 
Q 545.195695 412.707241 545.343351 413.424428 
Q 545.453507 413.944741 545.657413 414.120522 
Q 545.863663 414.296303 546.19882 414.296303 
Q 546.566788 414.296303 546.749601 414.061928 
Q 547.056632 413.651772 547.101163 412.796303 
L 547.129288 409.646303 
z
M 551.809757 412.369741 
Q 552.323038 412.369741 552.676945 412.730678 
Q 553.033195 413.089272 553.033195 413.593178 
Q 553.033195 414.099428 552.674601 414.455678 
Q 552.316007 414.809584 551.809757 414.809584 
Q 551.303507 414.809584 550.947257 414.455678 
Q 550.593351 414.099428 550.593351 413.593178 
Q 550.593351 413.089272 550.947257 412.730678 
Q 551.303507 412.369741 551.809757 412.369741 
z
M 559.895695 414.626772 
L 554.050382 414.626772 
L 554.050382 414.465053 
Q 556.738663 411.265834 557.312882 410.159584 
Q 557.889445 409.053334 557.889445 407.998647 
Q 557.889445 407.229897 557.413663 406.721303 
Q 556.937882 406.210366 556.24882 406.210366 
Q 555.121476 406.210366 554.498038 407.340053 
L 554.226163 407.243959 
Q 554.622257 405.837709 555.428507 405.165053 
Q 556.234757 404.490053 557.289445 404.490053 
Q 558.041788 404.490053 558.665226 404.841616 
Q 559.288663 405.193178 559.640226 405.804897 
Q 559.991788 406.416616 559.991788 406.950991 
Q 559.991788 407.925991 559.448038 408.929116 
Q 558.709757 410.283803 556.218351 412.707241 
L 558.365226 412.707241 
Q 559.15507 412.707241 559.394132 412.641616 
Q 559.633195 412.575991 559.785538 412.418959 
Q 559.940226 412.261928 560.188663 411.755678 
L 560.453507 411.755678 
L 559.895695 414.626772 
z
" style="fill: #404040; stroke: #ffffff; stroke-width: 3.8"/>
    <path d="M 549.38632 409.660366 
Q 549.38632 411.148647 548.969132 412.437709 
Q 548.718351 413.227553 548.296476 413.733803 
Q 547.876945 414.237709 547.34257 414.535366 
Q 546.808195 414.833022 546.177726 414.833022 
Q 545.460538 414.833022 544.881632 414.467397 
Q 544.302726 414.099428 543.85507 413.417397 
Q 543.533976 412.920522 543.29257 412.093178 
Q 542.976163 410.972866 542.976163 409.777553 
Q 542.976163 408.160366 543.430851 406.803334 
Q 543.803507 405.683022 544.565226 405.087709 
Q 545.326945 404.490053 546.177726 404.490053 
Q 547.04257 404.490053 547.79257 405.080678 
Q 548.54257 405.668959 548.894132 406.665053 
Q 549.38632 408.033803 549.38632 409.660366 
z
M 547.129288 409.646303 
Q 547.129288 407.037709 547.101163 406.606459 
Q 547.026163 405.589272 546.749601 405.230678 
Q 546.566788 404.996303 546.156632 404.996303 
Q 545.840226 404.996303 545.657413 405.172084 
Q 545.385538 405.427553 545.289445 406.076772 
Q 545.195695 406.723647 545.195695 410.597866 
Q 545.195695 412.707241 545.343351 413.424428 
Q 545.453507 413.944741 545.657413 414.120522 
Q 545.863663 414.296303 546.19882 414.296303 
Q 546.566788 414.296303 546.749601 414.061928 
Q 547.056632 413.651772 547.101163 412.796303 
L 547.129288 409.646303 
z
M 551.809757 412.369741 
Q 552.323038 412.369741 552.676945 412.730678 
Q 553.033195 413.089272 553.033195 413.593178 
Q 553.033195 414.099428 552.674601 414.455678 
Q 552.316007 414.809584 551.809757 414.809584 
Q 551.303507 414.809584 550.947257 414.455678 
Q 550.593351 414.099428 550.593351 413.593178 
Q 550.593351 413.089272 550.947257 412.730678 
Q 551.303507 412.369741 551.809757 412.369741 
z
M 559.895695 414.626772 
L 554.050382 414.626772 
L 554.050382 414.465053 
Q 556.738663 411.265834 557.312882 410.159584 
Q 557.889445 409.053334 557.889445 407.998647 
Q 557.889445 407.229897 557.413663 406.721303 
Q 556.937882 406.210366 556.24882 406.210366 
Q 555.121476 406.210366 554.498038 407.340053 
L 554.226163 407.243959 
Q 554.622257 405.837709 555.428507 405.165053 
Q 556.234757 404.490053 557.289445 404.490053 
Q 558.041788 404.490053 558.665226 404.841616 
Q 559.288663 405.193178 559.640226 405.804897 
Q 559.991788 406.416616 559.991788 406.950991 
Q 559.991788 407.925991 559.448038 408.929116 
Q 558.709757 410.283803 556.218351 412.707241 
L 558.365226 412.707241 
Q 559.15507 412.707241 559.394132 412.641616 
Q 559.633195 412.575991 559.785538 412.418959 
Q 559.940226 412.261928 560.188663 411.755678 
L 560.453507 411.755678 
L 559.895695 414.626772 
z
" style="fill: #404040"/>
   </g>
   <g id="text_30">
    <path d="M 567.635205 361.621495 
L 567.635205 369.744933 
Q 567.635205 370.658995 567.714893 370.91212 
Q 567.796924 371.165245 568.052393 371.326964 
Q 568.310205 371.486339 568.875049 371.486339 
L 569.100049 371.486339 
L 569.100049 371.758214 
L 563.871143 371.758214 
L 563.871143 371.486339 
L 564.135986 371.486339 
Q 564.773486 371.486339 565.043018 371.341027 
Q 565.314893 371.19337 565.408643 370.937902 
Q 565.504736 370.682433 565.504736 369.744933 
L 565.504736 364.595714 
Q 565.504736 363.906652 565.439111 363.735558 
Q 565.373486 363.56212 565.193018 363.442589 
Q 565.014893 363.320714 564.780518 363.320714 
Q 564.405518 363.320714 563.871143 363.555089 
L 563.739893 363.290245 
L 567.393799 361.621495 
L 567.635205 361.621495 
z
M 570.623486 368.015245 
L 575.341455 361.621495 
L 576.234424 361.621495 
L 576.234424 368.015245 
L 577.143799 368.015245 
L 577.143799 369.531652 
L 576.234424 369.531652 
L 576.234424 371.758214 
L 574.221143 371.758214 
L 574.221143 369.531652 
L 570.623486 369.531652 
L 570.623486 368.015245 
z
M 571.335986 368.015245 
L 574.221143 368.015245 
L 574.221143 364.096495 
L 571.335986 368.015245 
z
M 579.62583 369.501183 
Q 580.139111 369.501183 580.493018 369.86212 
Q 580.849268 370.220714 580.849268 370.72462 
Q 580.849268 371.23087 580.490674 371.58712 
Q 580.13208 371.941027 579.62583 371.941027 
Q 579.11958 371.941027 578.76333 371.58712 
Q 578.409424 371.23087 578.409424 370.72462 
Q 578.409424 370.220714 578.76333 369.86212 
Q 579.11958 369.501183 579.62583 369.501183 
z
M 581.873486 368.015245 
L 586.591455 361.621495 
L 587.484424 361.621495 
L 587.484424 368.015245 
L 588.393799 368.015245 
L 588.393799 369.531652 
L 587.484424 369.531652 
L 587.484424 371.758214 
L 585.471143 371.758214 
L 585.471143 369.531652 
L 581.873486 369.531652 
L 581.873486 368.015245 
z
M 582.585986 368.015245 
L 585.471143 368.015245 
L 585.471143 364.096495 
L 582.585986 368.015245 
z
" style="fill: #404040; stroke: #ffffff; stroke-width: 3.8"/>
    <path d="M 567.635205 361.621495 
L 567.635205 369.744933 
Q 567.635205 370.658995 567.714893 370.91212 
Q 567.796924 371.165245 568.052393 371.326964 
Q 568.310205 371.486339 568.875049 371.486339 
L 569.100049 371.486339 
L 569.100049 371.758214 
L 563.871143 371.758214 
L 563.871143 371.486339 
L 564.135986 371.486339 
Q 564.773486 371.486339 565.043018 371.341027 
Q 565.314893 371.19337 565.408643 370.937902 
Q 565.504736 370.682433 565.504736 369.744933 
L 565.504736 364.595714 
Q 565.504736 363.906652 565.439111 363.735558 
Q 565.373486 363.56212 565.193018 363.442589 
Q 565.014893 363.320714 564.780518 363.320714 
Q 564.405518 363.320714 563.871143 363.555089 
L 563.739893 363.290245 
L 567.393799 361.621495 
L 567.635205 361.621495 
z
M 570.623486 368.015245 
L 575.341455 361.621495 
L 576.234424 361.621495 
L 576.234424 368.015245 
L 577.143799 368.015245 
L 577.143799 369.531652 
L 576.234424 369.531652 
L 576.234424 371.758214 
L 574.221143 371.758214 
L 574.221143 369.531652 
L 570.623486 369.531652 
L 570.623486 368.015245 
z
M 571.335986 368.015245 
L 574.221143 368.015245 
L 574.221143 364.096495 
L 571.335986 368.015245 
z
M 579.62583 369.501183 
Q 580.139111 369.501183 580.493018 369.86212 
Q 580.849268 370.220714 580.849268 370.72462 
Q 580.849268 371.23087 580.490674 371.58712 
Q 580.13208 371.941027 579.62583 371.941027 
Q 579.11958 371.941027 578.76333 371.58712 
Q 578.409424 371.23087 578.409424 370.72462 
Q 578.409424 370.220714 578.76333 369.86212 
Q 579.11958 369.501183 579.62583 369.501183 
z
M 581.873486 368.015245 
L 586.591455 361.621495 
L 587.484424 361.621495 
L 587.484424 368.015245 
L 588.393799 368.015245 
L 588.393799 369.531652 
L 587.484424 369.531652 
L 587.484424 371.758214 
L 585.471143 371.758214 
L 585.471143 369.531652 
L 581.873486 369.531652 
L 581.873486 368.015245 
z
M 582.585986 368.015245 
L 585.471143 368.015245 
L 585.471143 364.096495 
L 582.585986 368.015245 
z
" style="fill: #404040"/>
   </g>
   <g id="text_31">
    <path d="M 532.3236 357.983328 
L 532.3236 357.727859 
Q 533.157975 357.484109 533.479068 357.275516 
Q 533.802506 357.066922 534.036881 356.640359 
Q 534.271256 356.211453 534.271256 355.770828 
Q 534.271256 355.163797 533.828287 354.727859 
Q 533.385318 354.291922 532.726725 354.291922 
Q 531.700162 354.291922 530.982975 355.374734 
L 530.7111 355.280984 
Q 531.238443 354.057547 532.063443 353.443484 
Q 532.888443 352.827078 533.8986 352.827078 
Q 534.92985 352.827078 535.600162 353.457547 
Q 536.270475 354.085672 536.270475 354.929422 
Q 536.270475 355.477859 535.958756 355.988797 
Q 535.649381 356.497391 534.981412 356.884109 
Q 535.839225 357.301297 536.289225 357.913016 
Q 536.739225 358.524734 536.739225 359.448172 
Q 536.739225 360.999734 535.614225 362.089578 
Q 534.491568 363.177078 532.602506 363.177078 
Q 531.341568 363.177078 530.762662 362.757547 
Q 530.345475 362.464578 530.345475 362.005203 
Q 530.345475 361.667703 530.586881 361.430984 
Q 530.828287 361.191922 531.144693 361.191922 
Q 531.3861 361.191922 531.599381 361.292703 
Q 531.716568 361.351297 532.429068 361.934891 
Q 533.143912 362.516141 533.76735 362.516141 
Q 534.308756 362.516141 534.695475 362.089578 
Q 535.084537 361.660672 535.084537 360.999734 
Q 535.084537 359.996609 534.381412 359.150516 
Q 533.678287 358.304422 532.3236 357.983328 
z
M 539.479068 360.706766 
Q 539.99235 360.706766 540.346256 361.067703 
Q 540.702506 361.426297 540.702506 361.930203 
Q 540.702506 362.436453 540.343912 362.792703 
Q 539.985318 363.146609 539.479068 363.146609 
Q 538.972818 363.146609 538.616568 362.792703 
Q 538.262662 362.436453 538.262662 361.930203 
Q 538.262662 361.426297 538.616568 361.067703 
Q 538.972818 360.706766 539.479068 360.706766 
z
M 541.815787 363.170047 
L 541.815787 362.963797 
Q 543.032193 362.684891 543.878287 362.143484 
Q 544.724381 361.602078 545.216568 360.802859 
Q 545.7111 360.003641 545.910318 358.965359 
Q 545.455631 359.199734 545.136881 359.291141 
Q 544.818131 359.382547 544.466568 359.382547 
Q 543.339225 359.382547 542.586881 358.569266 
Q 541.836881 357.755984 541.836881 356.342703 
Q 541.836881 355.360672 542.24235 354.545047 
Q 542.650162 353.727078 543.40485 353.277078 
Q 544.159537 352.827078 544.972818 352.827078 
Q 545.844693 352.827078 546.620475 353.326297 
Q 547.396256 353.823172 547.857975 354.767703 
Q 548.319693 355.712234 548.319693 356.921609 
Q 548.319693 358.489578 547.56735 359.926297 
Q 546.81735 361.360672 545.331412 362.227859 
Q 543.845475 363.095047 541.815787 363.170047 
z
M 546.020475 358.348953 
Q 546.093131 357.528641 546.093131 356.907547 
Q 546.093131 355.573953 545.7861 354.423172 
Q 545.610318 353.785672 545.265787 353.485672 
Q 545.082975 353.323953 544.790006 353.323953 
Q 544.422037 353.323953 544.218131 353.640359 
Q 543.932193 354.071609 543.932193 355.288016 
Q 543.932193 357.317703 544.415006 358.086453 
Q 544.731412 358.583328 545.265787 358.583328 
Q 545.551725 358.583328 546.020475 358.348953 
z
" style="fill: #404040; stroke: #ffffff; stroke-width: 3.8"/>
    <path d="M 532.3236 357.983328 
L 532.3236 357.727859 
Q 533.157975 357.484109 533.479068 357.275516 
Q 533.802506 357.066922 534.036881 356.640359 
Q 534.271256 356.211453 534.271256 355.770828 
Q 534.271256 355.163797 533.828287 354.727859 
Q 533.385318 354.291922 532.726725 354.291922 
Q 531.700162 354.291922 530.982975 355.374734 
L 530.7111 355.280984 
Q 531.238443 354.057547 532.063443 353.443484 
Q 532.888443 352.827078 533.8986 352.827078 
Q 534.92985 352.827078 535.600162 353.457547 
Q 536.270475 354.085672 536.270475 354.929422 
Q 536.270475 355.477859 535.958756 355.988797 
Q 535.649381 356.497391 534.981412 356.884109 
Q 535.839225 357.301297 536.289225 357.913016 
Q 536.739225 358.524734 536.739225 359.448172 
Q 536.739225 360.999734 535.614225 362.089578 
Q 534.491568 363.177078 532.602506 363.177078 
Q 531.341568 363.177078 530.762662 362.757547 
Q 530.345475 362.464578 530.345475 362.005203 
Q 530.345475 361.667703 530.586881 361.430984 
Q 530.828287 361.191922 531.144693 361.191922 
Q 531.3861 361.191922 531.599381 361.292703 
Q 531.716568 361.351297 532.429068 361.934891 
Q 533.143912 362.516141 533.76735 362.516141 
Q 534.308756 362.516141 534.695475 362.089578 
Q 535.084537 361.660672 535.084537 360.999734 
Q 535.084537 359.996609 534.381412 359.150516 
Q 533.678287 358.304422 532.3236 357.983328 
z
M 539.479068 360.706766 
Q 539.99235 360.706766 540.346256 361.067703 
Q 540.702506 361.426297 540.702506 361.930203 
Q 540.702506 362.436453 540.343912 362.792703 
Q 539.985318 363.146609 539.479068 363.146609 
Q 538.972818 363.146609 538.616568 362.792703 
Q 538.262662 362.436453 538.262662 361.930203 
Q 538.262662 361.426297 538.616568 361.067703 
Q 538.972818 360.706766 539.479068 360.706766 
z
M 541.815787 363.170047 
L 541.815787 362.963797 
Q 543.032193 362.684891 543.878287 362.143484 
Q 544.724381 361.602078 545.216568 360.802859 
Q 545.7111 360.003641 545.910318 358.965359 
Q 545.455631 359.199734 545.136881 359.291141 
Q 544.818131 359.382547 544.466568 359.382547 
Q 543.339225 359.382547 542.586881 358.569266 
Q 541.836881 357.755984 541.836881 356.342703 
Q 541.836881 355.360672 542.24235 354.545047 
Q 542.650162 353.727078 543.40485 353.277078 
Q 544.159537 352.827078 544.972818 352.827078 
Q 545.844693 352.827078 546.620475 353.326297 
Q 547.396256 353.823172 547.857975 354.767703 
Q 548.319693 355.712234 548.319693 356.921609 
Q 548.319693 358.489578 547.56735 359.926297 
Q 546.81735 361.360672 545.331412 362.227859 
Q 543.845475 363.095047 541.815787 363.170047 
z
M 546.020475 358.348953 
Q 546.093131 357.528641 546.093131 356.907547 
Q 546.093131 355.573953 545.7861 354.423172 
Q 545.610318 353.785672 545.265787 353.485672 
Q 545.082975 353.323953 544.790006 353.323953 
Q 544.422037 353.323953 544.218131 353.640359 
Q 543.932193 354.071609 543.932193 355.288016 
Q 543.932193 357.317703 544.415006 358.086453 
Q 544.731412 358.583328 545.265787 358.583328 
Q 545.551725 358.583328 546.020475 358.348953 
z
" style="fill: #404040"/>
   </g>
   <g id="text_32">
    <path d="M 325.782367 394.920231 
L 319.937054 394.920231 
L 319.937054 394.758512 
Q 322.625336 391.559293 323.199554 390.453043 
Q 323.776117 389.346793 323.776117 388.292106 
Q 323.776117 387.523356 323.300336 387.014762 
Q 322.824554 386.503825 322.135492 386.503825 
Q 321.008148 386.503825 320.384711 387.633512 
L 320.112836 387.537418 
Q 320.508929 386.131168 321.315179 385.458512 
Q 322.121429 384.783512 323.176117 384.783512 
Q 323.928461 384.783512 324.551898 385.135075 
Q 325.175336 385.486637 325.526898 386.098356 
Q 325.878461 386.710075 325.878461 387.24445 
Q 325.878461 388.21945 325.334711 389.222575 
Q 324.596429 390.577262 322.105023 393.0007 
L 324.251898 393.0007 
Q 325.041742 393.0007 325.280804 392.935075 
Q 325.519867 392.86945 325.672211 392.712418 
Q 325.826898 392.555387 326.075336 392.049137 
L 326.340179 392.049137 
L 325.782367 394.920231 
z
M 329.729242 395.126481 
L 332.433929 386.930387 
L 330.373773 386.930387 
Q 329.166742 386.930387 328.557367 387.24445 
Q 328.133148 387.464762 327.854242 388.071793 
L 327.577679 388.071793 
L 328.294867 384.987418 
L 334.212836 384.987418 
L 330.880023 395.126481 
L 329.729242 395.126481 
z
M 336.446429 392.6632 
Q 336.959711 392.6632 337.313617 393.024137 
Q 337.669867 393.382731 337.669867 393.886637 
Q 337.669867 394.392887 337.311273 394.749137 
Q 336.952679 395.103043 336.446429 395.103043 
Q 335.940179 395.103043 335.583929 394.749137 
Q 335.230023 394.392887 335.230023 393.886637 
Q 335.230023 393.382731 335.583929 393.024137 
Q 335.940179 392.6632 336.446429 392.6632 
z
M 340.606586 384.987418 
L 345.256586 384.987418 
L 344.518304 386.878825 
L 340.606586 386.878825 
L 340.233929 387.867887 
Q 342.760492 387.961637 344.122211 389.126481 
Q 345.242523 390.085075 345.242523 391.514762 
Q 345.242523 392.428825 344.722211 393.305387 
Q 344.201898 394.179606 343.257367 394.653043 
Q 342.312836 395.126481 341.185492 395.126481 
Q 339.969086 395.126481 339.317523 394.671793 
Q 338.862836 394.348356 338.862836 393.9382 
Q 338.862836 393.624137 339.099554 393.382731 
Q 339.338617 393.141325 339.655023 393.141325 
Q 339.940961 393.141325 340.233929 393.258512 
Q 340.526898 393.3757 341.237054 393.872575 
Q 341.682367 394.179606 342.005804 394.296793 
Q 342.233148 394.385856 342.519086 394.385856 
Q 343.119086 394.385856 343.538617 393.947575 
Q 343.960492 393.50695 343.960492 392.890543 
Q 343.960492 391.601481 342.671429 390.797575 
Q 341.382367 389.991325 339.420648 389.991325 
Q 339.221429 389.991325 338.827679 389.998356 
L 340.606586 384.987418 
z
" style="fill: #404040; stroke: #ffffff; stroke-width: 3.8"/>
    <path d="M 325.782367 394.920231 
L 319.937054 394.920231 
L 319.937054 394.758512 
Q 322.625336 391.559293 323.199554 390.453043 
Q 323.776117 389.346793 323.776117 388.292106 
Q 323.776117 387.523356 323.300336 387.014762 
Q 322.824554 386.503825 322.135492 386.503825 
Q 321.008148 386.503825 320.384711 387.633512 
L 320.112836 387.537418 
Q 320.508929 386.131168 321.315179 385.458512 
Q 322.121429 384.783512 323.176117 384.783512 
Q 323.928461 384.783512 324.551898 385.135075 
Q 325.175336 385.486637 325.526898 386.098356 
Q 325.878461 386.710075 325.878461 387.24445 
Q 325.878461 388.21945 325.334711 389.222575 
Q 324.596429 390.577262 322.105023 393.0007 
L 324.251898 393.0007 
Q 325.041742 393.0007 325.280804 392.935075 
Q 325.519867 392.86945 325.672211 392.712418 
Q 325.826898 392.555387 326.075336 392.049137 
L 326.340179 392.049137 
L 325.782367 394.920231 
z
M 329.729242 395.126481 
L 332.433929 386.930387 
L 330.373773 386.930387 
Q 329.166742 386.930387 328.557367 387.24445 
Q 328.133148 387.464762 327.854242 388.071793 
L 327.577679 388.071793 
L 328.294867 384.987418 
L 334.212836 384.987418 
L 330.880023 395.126481 
L 329.729242 395.126481 
z
M 336.446429 392.6632 
Q 336.959711 392.6632 337.313617 393.024137 
Q 337.669867 393.382731 337.669867 393.886637 
Q 337.669867 394.392887 337.311273 394.749137 
Q 336.952679 395.103043 336.446429 395.103043 
Q 335.940179 395.103043 335.583929 394.749137 
Q 335.230023 394.392887 335.230023 393.886637 
Q 335.230023 393.382731 335.583929 393.024137 
Q 335.940179 392.6632 336.446429 392.6632 
z
M 340.606586 384.987418 
L 345.256586 384.987418 
L 344.518304 386.878825 
L 340.606586 386.878825 
L 340.233929 387.867887 
Q 342.760492 387.961637 344.122211 389.126481 
Q 345.242523 390.085075 345.242523 391.514762 
Q 345.242523 392.428825 344.722211 393.305387 
Q 344.201898 394.179606 343.257367 394.653043 
Q 342.312836 395.126481 341.185492 395.126481 
Q 339.969086 395.126481 339.317523 394.671793 
Q 338.862836 394.348356 338.862836 393.9382 
Q 338.862836 393.624137 339.099554 393.382731 
Q 339.338617 393.141325 339.655023 393.141325 
Q 339.940961 393.141325 340.233929 393.258512 
Q 340.526898 393.3757 341.237054 393.872575 
Q 341.682367 394.179606 342.005804 394.296793 
Q 342.233148 394.385856 342.519086 394.385856 
Q 343.119086 394.385856 343.538617 393.947575 
Q 343.960492 393.50695 343.960492 392.890543 
Q 343.960492 391.601481 342.671429 390.797575 
Q 341.382367 389.991325 339.420648 389.991325 
Q 339.221429 389.991325 338.827679 389.998356 
L 340.606586 384.987418 
z
" style="fill: #404040"/>
   </g>
  </g>
 </g>
 <defs>
  <clipPath id="pc29aa66763">
   <rect x="7.2" y="51.034687" width="730.764" height="430.773578"/>
  </clipPath>
 </defs>
</svg>
