<?xml version="1.0" encoding="utf-8" standalone="no"?>
<!DOCTYPE svg PUBLIC "-//W3C//DTD SVG 1.1//EN"
  "http://www.w3.org/Graphics/SVG/1.1/DTD/svg11.dtd">
<svg xmlns:xlink="http://www.w3.org/1999/xlink" width="745.164pt" height="496.324398pt" viewBox="0 0 745.164 496.324398" xmlns="http://www.w3.org/2000/svg" version="1.1">
 <metadata>
  <rdf:RDF xmlns:dc="http://purl.org/dc/elements/1.1/" xmlns:cc="http://creativecommons.org/ns#" xmlns:rdf="http://www.w3.org/1999/02/22-rdf-syntax-ns#">
   <cc:Work>
    <dc:type rdf:resource="http://purl.org/dc/dcmitype/StillImage"/>
    <dc:date>2026-07-13T16:58:13.170016</dc:date>
    <dc:format>image/svg+xml</dc:format>
    <dc:creator>
     <cc:Agent>
      <dc:title>Matplotlib v3.10.8, https://matplotlib.org/</dc:title>
     </cc:Agent>
    </dc:creator>
   </cc:Work>
  </rdf:RDF>
 </metadata>
 <defs>
  <style type="text/css">*{stroke-linejoin: round; stroke-linecap: butt}</style>
 </defs>
 <g id="figure_1">
  <g id="patch_1">
   <path d="M 0 496.324398 
L 745.164 496.324398 
L 745.164 0 
L 0 0 
L 0 496.324398 
z
" style="fill: none"/>
  </g>
  <g id="axes_1">
   <g id="patch_2">
    <path d="M 120.350555 425.144587 
Q 120.350555 452.096953 120.350555 476.891887 
" clip-path="url(#p628a57c80f)" style="fill: none; stroke: #111111; stroke-width: 1.929667; stroke-linejoin: miter; stroke-linecap: round"/>
    <path d="M 123.912048 469.7689 
L 120.350555 476.891887 
L 116.789061 469.7689 
z
" clip-path="url(#p628a57c80f)" style="fill: #111111; stroke: #111111; stroke-width: 1.929667; stroke-linejoin: miter; stroke-linecap: round"/>
   </g>
   <g id="patch_3">
    <path d="M 120.350555 321.895639 
Q 120.350555 344.380116 120.350555 363.230062 
" clip-path="url(#p628a57c80f)" style="fill: none; stroke: #111111; stroke-width: 3.250823; stroke-linejoin: miter; stroke-linecap: round"/>
    <path d="M 124.334818 355.261535 
L 120.350555 363.230062 
L 116.366291 355.261535 
z
" clip-path="url(#p628a57c80f)" style="fill: #111111; stroke: #111111; stroke-width: 3.250823; stroke-linejoin: miter; stroke-linecap: round"/>
   </g>
   <g id="patch_4">
    <path d="M 120.350555 234.165195 
Q 120.350555 253.35831 120.350555 266.817326 
" clip-path="url(#p628a57c80f)" style="fill: none; stroke: #111111; stroke-width: 5.128735; stroke-linejoin: miter; stroke-linecap: round"/>
    <path d="M 124.93575 257.646936 
L 120.350555 266.817326 
L 115.76536 257.646936 
z
" clip-path="url(#p628a57c80f)" style="fill: #111111; stroke: #111111; stroke-width: 5.128735; stroke-linejoin: miter; stroke-linecap: round"/>
   </g>
   <g id="patch_5">
    <path d="M 370.224697 278.170401 
Q 370.224697 298.142682 370.224697 316.081812 
" clip-path="url(#p628a57c80f)" style="fill: none; stroke: #111111; stroke-width: 1.818505; stroke-linejoin: miter; stroke-linecap: round"/>
    <path d="M 373.750618 309.029969 
L 370.224697 316.081812 
L 366.698775 309.029969 
z
" clip-path="url(#p628a57c80f)" style="fill: #111111; stroke: #111111; stroke-width: 1.818505; stroke-linejoin: miter; stroke-linecap: round"/>
   </g>
   <g id="patch_6">
    <path d="M 370.224697 194.675542 
Q 370.224697 214.263061 370.224697 230.15031 
" clip-path="url(#p628a57c80f)" style="fill: none; stroke: #111111; stroke-width: 3.309622; stroke-linejoin: miter; stroke-linecap: round"/>
    <path d="M 374.227776 222.144152 
L 370.224697 230.15031 
L 366.221618 222.144152 
z
" clip-path="url(#p628a57c80f)" style="fill: #111111; stroke: #111111; stroke-width: 3.309622; stroke-linejoin: miter; stroke-linecap: round"/>
   </g>
   <g id="patch_7">
    <path d="M 370.224697 117.623516 
Q 370.224697 134.37438 370.224697 144.640646 
" clip-path="url(#p628a57c80f)" style="fill: none; stroke: #111111; stroke-width: 5.8; stroke-linejoin: miter; stroke-linecap: round"/>
    <path d="M 375.024697 135.040646 
L 370.224697 144.640646 
L 365.424697 135.040646 
z
" clip-path="url(#p628a57c80f)" style="fill: #111111; stroke: #111111; stroke-width: 5.8; stroke-linejoin: miter; stroke-linecap: round"/>
   </g>
   <g id="patch_8">
    <path d="M 586.153672 223.931389 
Q 586.153672 245.322823 586.153672 263.898858 
" clip-path="url(#p628a57c80f)" style="fill: none; stroke: #111111; stroke-width: 2.518169; stroke-linejoin: miter; stroke-linecap: round"/>
    <path d="M 589.903486 256.399229 
L 586.153672 263.898858 
L 582.403858 256.399229 
z
" clip-path="url(#p628a57c80f)" style="fill: #111111; stroke: #111111; stroke-width: 2.518169; stroke-linejoin: miter; stroke-linecap: round"/>
   </g>
   <g id="line2d_1">
    <path d="M 165.610777 479.04932 
L 550.322663 479.04932 
" clip-path="url(#p628a57c80f)" style="fill: none; stroke-dasharray: 5.6,4.2; stroke-dashoffset: 0; stroke: #404040; stroke-width: 1.4"/>
   </g>
   <g id="line2d_2">
    <path d="M 165.610777 366.864592 
L 550.322663 366.864592 
" clip-path="url(#p628a57c80f)" style="fill: none; stroke-dasharray: 5.6,4.2; stroke-dashoffset: 0; stroke: #404040; stroke-width: 1.4"/>
   </g>
   <g id="line2d_3">
    <path d="M 415.484919 318.114962 
L 560.694797 318.114962 
" clip-path="url(#p628a57c80f)" style="fill: none; stroke-dasharray: 5.6,4.2; stroke-dashoffset: 0; stroke: #404040; stroke-width: 1.4"/>
   </g>
   <g id="patch_9">
    <path d="M 665.359061 266.714257 
Q 573.586254 370.631625 482.424472 473.857111 
" clip-path="url(#p628a57c80f)" style="fill: none; stroke: #404040; stroke-width: 0.825616; stroke-linejoin: miter; stroke-linecap: round"/>
    <path d="M 488.247831 471.505955 
L 482.424472 473.857111 
L 484.037563 467.78773 
z
" clip-path="url(#p628a57c80f)" style="fill: #404040; stroke: #404040; stroke-width: 0.825616; stroke-linejoin: miter; stroke-linecap: round"/>
   </g>
   <g id="patch_10">
    <path d="M 620.098839 266.714257 
Q 577.861061 314.541482 537.102634 360.69359 
" clip-path="url(#p628a57c80f)" style="fill: none; stroke: #404040; stroke-width: 1.998899; stroke-linejoin: miter; stroke-linecap: round"/>
    <path d="M 543.736908 358.015031 
L 537.102634 360.69359 
L 538.940351 353.779036 
z
" clip-path="url(#p628a57c80f)" style="fill: #404040; stroke: #404040; stroke-width: 1.998899; stroke-linejoin: miter; stroke-linecap: round"/>
   </g>
   <g id="patch_11">
    <path d="M 574.838617 266.714257 
Q 541.905937 290.650691 510.453716 313.511083 
" clip-path="url(#p628a57c80f)" style="fill: none; stroke: #404040; stroke-width: 1.636979; stroke-linejoin: miter; stroke-linecap: round"/>
    <path d="M 517.245206 312.381194 
L 510.453716 313.511083 
L 513.624698 307.399958 
z
" clip-path="url(#p628a57c80f)" style="fill: #404040; stroke: #404040; stroke-width: 1.636979; stroke-linejoin: miter; stroke-linecap: round"/>
   </g>
   <g id="patch_12">
    <path d="M 370.224697 318.114962 
Q 335.212592 340.855516 303.565644 361.410382 
" clip-path="url(#p628a57c80f)" style="fill: none; stroke: #404040; stroke-width: 3.589041; stroke-linejoin: miter; stroke-linecap: round"/>
    <path d="M 311.852855 360.475125 
L 303.565644 361.410382 
L 307.789766 354.219459 
z
" clip-path="url(#p628a57c80f)" style="fill: #404040; stroke: #404040; stroke-width: 3.589041; stroke-linejoin: miter; stroke-linecap: round"/>
   </g>
   <g id="line2d_4">
    <path d="M 120.350555 366.864592 
L 120.350555 420.769326 
" clip-path="url(#p628a57c80f)" style="fill: none; stroke: #111111; stroke-width: 1.929667"/>
   </g>
   <g id="line2d_5">
    <path d="M 120.350555 272.551425 
L 120.350555 317.520379 
" clip-path="url(#p628a57c80f)" style="fill: none; stroke: #111111; stroke-width: 3.250823"/>
   </g>
   <g id="line2d_6">
    <path d="M 120.350555 191.403703 
L 120.350555 229.789934 
" clip-path="url(#p628a57c80f)" style="fill: none; stroke: #111111; stroke-width: 5.128735"/>
   </g>
   <g id="line2d_7">
    <path d="M 370.224697 233.85058 
L 370.224697 273.795141 
" clip-path="url(#p628a57c80f)" style="fill: none; stroke: #111111; stroke-width: 1.818505"/>
   </g>
   <g id="line2d_8">
    <path d="M 370.224697 151.125244 
L 370.224697 190.300281 
" clip-path="url(#p628a57c80f)" style="fill: none; stroke: #111111; stroke-width: 3.309622"/>
   </g>
   <g id="line2d_9">
    <path d="M 370.224697 79.746527 
L 370.224697 113.248255 
" clip-path="url(#p628a57c80f)" style="fill: none; stroke: #111111; stroke-width: 5.8"/>
   </g>
   <g id="line2d_10">
    <path d="M 586.153672 176.773259 
L 586.153672 219.556128 
" clip-path="url(#p628a57c80f)" style="fill: none; stroke: #111111; stroke-width: 2.518169"/>
   </g>
   <g id="line2d_11">
    <path d="M 75.090333 479.04932 
L 165.610777 479.04932 
" clip-path="url(#p628a57c80f)" style="fill: none; stroke: #111111; stroke-width: 3.6; stroke-linecap: round"/>
   </g>
   <g id="line2d_12">
    <path d="M 75.090333 366.864592 
L 165.610777 366.864592 
" clip-path="url(#p628a57c80f)" style="fill: none; stroke: #111111; stroke-width: 3.6; stroke-linecap: round"/>
   </g>
   <g id="line2d_13">
    <path d="M 75.090333 272.551425 
L 165.610777 272.551425 
" clip-path="url(#p628a57c80f)" style="fill: none; stroke: #111111; stroke-width: 3.6; stroke-linecap: round"/>
   </g>
   <g id="line2d_14">
    <path d="M 75.090333 191.403703 
L 165.610777 191.403703 
" clip-path="url(#p628a57c80f)" style="fill: none; stroke: #111111; stroke-width: 3.6; stroke-linecap: round"/>
   </g>
   <g id="line2d_15">
    <path d="M 324.964475 318.114962 
L 415.484919 318.114962 
" clip-path="url(#p628a57c80f)" style="fill: none; stroke: #111111; stroke-width: 3.6; stroke-linecap: round"/>
   </g>
   <g id="line2d_16">
    <path d="M 324.964475 233.85058 
L 415.484919 233.85058 
" clip-path="url(#p628a57c80f)" style="fill: none; stroke: #111111; stroke-width: 3.6; stroke-linecap: round"/>
   </g>
   <g id="line2d_17">
    <path d="M 324.964475 151.125244 
L 415.484919 151.125244 
" clip-path="url(#p628a57c80f)" style="fill: none; stroke: #111111; stroke-width: 3.6; stroke-linecap: round"/>
   </g>
   <g id="line2d_18">
    <path d="M 324.964475 79.746527 
L 415.484919 79.746527 
" clip-path="url(#p628a57c80f)" style="fill: none; stroke: #111111; stroke-width: 3.6; stroke-linecap: round"/>
   </g>
   <g id="line2d_19">
    <path d="M 574.838617 266.714257 
L 665.359061 266.714257 
" clip-path="url(#p628a57c80f)" style="fill: none; stroke: #111111; stroke-width: 3.6; stroke-linecap: round"/>
   </g>
   <g id="line2d_20">
    <path d="M 574.838617 176.773259 
L 665.359061 176.773259 
" clip-path="url(#p628a57c80f)" style="fill: none; stroke: #111111; stroke-width: 3.6; stroke-linecap: round"/>
   </g>
   <g id="text_1">
    <!-- $^{182}\mathrm{Ba}$ -->
    <g transform="translate(327.022 33.034687) scale(0.34 -0.34)">
     <defs>
      <path id="DejaVuSans-31" d="M 794 531 
L 1825 531 
L 1825 4091 
L 703 3866 
L 703 4441 
L 1819 4666 
L 2450 4666 
L 2450 531 
L 3481 531 
L 3481 0 
L 794 0 
L 794 531 
z
" transform="scale(0.015625)"/>
      <path id="DejaVuSans-38" d="M 2034 2216 
Q 1584 2216 1326 1975 
Q 1069 1734 1069 1313 
Q 1069 891 1326 650 
Q 1584 409 2034 409 
Q 2484 409 2743 651 
Q 3003 894 3003 1313 
Q 3003 1734 2745 1975 
Q 2488 2216 2034 2216 
z
M 1403 2484 
Q 997 2584 770 2862 
Q 544 3141 544 3541 
Q 544 4100 942 4425 
Q 1341 4750 2034 4750 
Q 2731 4750 3128 4425 
Q 3525 4100 3525 3541 
Q 3525 3141 3298 2862 
Q 3072 2584 2669 2484 
Q 3125 2378 3379 2068 
Q 3634 1759 3634 1313 
Q 3634 634 3220 271 
Q 2806 -91 2034 -91 
Q 1263 -91 848 271 
Q 434 634 434 1313 
Q 434 1759 690 2068 
Q 947 2378 1403 2484 
z
M 1172 3481 
Q 1172 3119 1398 2916 
Q 1625 2713 2034 2713 
Q 2441 2713 2670 2916 
Q 2900 3119 2900 3481 
Q 2900 3844 2670 4047 
Q 2441 4250 2034 4250 
Q 1625 4250 1398 4047 
Q 1172 3844 1172 3481 
z
" transform="scale(0.015625)"/>
      <path id="DejaVuSans-32" d="M 1228 531 
L 3431 531 
L 3431 0 
L 469 0 
L 469 531 
Q 828 903 1448 1529 
Q 2069 2156 2228 2338 
Q 2531 2678 2651 2914 
Q 2772 3150 2772 3378 
Q 2772 3750 2511 3984 
Q 2250 4219 1831 4219 
Q 1534 4219 1204 4116 
Q 875 4013 500 3803 
L 500 4441 
Q 881 4594 1212 4672 
Q 1544 4750 1819 4750 
Q 2544 4750 2975 4387 
Q 3406 4025 3406 3419 
Q 3406 3131 3298 2873 
Q 3191 2616 2906 2266 
Q 2828 2175 2409 1742 
Q 1991 1309 1228 531 
z
" transform="scale(0.015625)"/>
      <path id="DejaVuSans-42" d="M 1259 2228 
L 1259 519 
L 2272 519 
Q 2781 519 3026 730 
Q 3272 941 3272 1375 
Q 3272 1813 3026 2020 
Q 2781 2228 2272 2228 
L 1259 2228 
z
M 1259 4147 
L 1259 2741 
L 2194 2741 
Q 2656 2741 2882 2914 
Q 3109 3088 3109 3444 
Q 3109 3797 2882 3972 
Q 2656 4147 2194 4147 
L 1259 4147 
z
M 628 4666 
L 2241 4666 
Q 2963 4666 3353 4366 
Q 3744 4066 3744 3513 
Q 3744 3084 3544 2831 
Q 3344 2578 2956 2516 
Q 3422 2416 3680 2098 
Q 3938 1781 3938 1306 
Q 3938 681 3513 340 
Q 3088 0 2303 0 
L 628 0 
L 628 4666 
z
" transform="scale(0.015625)"/>
      <path id="DejaVuSans-61" d="M 2194 1759 
Q 1497 1759 1228 1600 
Q 959 1441 959 1056 
Q 959 750 1161 570 
Q 1363 391 1709 391 
Q 2188 391 2477 730 
Q 2766 1069 2766 1631 
L 2766 1759 
L 2194 1759 
z
M 3341 1997 
L 3341 0 
L 2766 0 
L 2766 531 
Q 2569 213 2275 61 
Q 1981 -91 1556 -91 
Q 1019 -91 701 211 
Q 384 513 384 1019 
Q 384 1609 779 1909 
Q 1175 2209 1959 2209 
L 2766 2209 
L 2766 2266 
Q 2766 2663 2505 2880 
Q 2244 3097 1772 3097 
Q 1472 3097 1187 3025 
Q 903 2953 641 2809 
L 641 3341 
Q 956 3463 1253 3523 
Q 1550 3584 1831 3584 
Q 2591 3584 2966 3190 
Q 3341 2797 3341 1997 
z
" transform="scale(0.015625)"/>
     </defs>
     <use xlink:href="#DejaVuSans-31" transform="translate(0.957031 39.046875) scale(0.7)"/>
     <use xlink:href="#DejaVuSans-38" transform="translate(45.493164 39.046875) scale(0.7)"/>
     <use xlink:href="#DejaVuSans-32" transform="translate(90.029297 39.046875) scale(0.7)"/>
     <use xlink:href="#DejaVuSans-42" transform="translate(137.299805 0.765625)"/>
     <use xlink:href="#DejaVuSans-61" transform="translate(205.90332 0.765625)"/>
    </g>
   </g>
   <g id="text_2">
    <!-- 0 -->
    <g transform="translate(46.98525 483.46432) scale(0.16 -0.16)">
     <defs>
      <path id="DejaVuSans-BoldOblique-30" d="M 1913 728 
Q 2153 728 2339 872 
Q 2525 1016 2650 1294 
Q 2738 1491 2809 1742 
Q 2881 1994 2944 2338 
Q 2997 2616 3025 2850 
Q 3053 3084 3053 3250 
Q 3053 3600 2928 3764 
Q 2803 3928 2541 3928 
Q 2297 3928 2112 3789 
Q 1928 3650 1806 3366 
Q 1713 3163 1636 2903 
Q 1559 2644 1503 2338 
Q 1450 2056 1422 1815 
Q 1394 1575 1394 1409 
Q 1394 1063 1522 895 
Q 1650 728 1913 728 
z
M 4225 3072 
Q 4225 2450 4053 1862 
Q 3881 1275 3572 831 
Q 3256 375 2809 142 
Q 2363 -91 1813 -91 
Q 1047 -91 639 343 
Q 231 778 231 1594 
Q 231 2206 401 2795 
Q 572 3384 878 3822 
Q 1200 4281 1644 4515 
Q 2088 4750 2644 4750 
Q 3403 4750 3814 4314 
Q 4225 3878 4225 3072 
z
" transform="scale(0.015625)"/>
     </defs>
     <use xlink:href="#DejaVuSans-BoldOblique-30"/>
    </g>
   </g>
   <g id="text_3">
    <!-- 0⁺ -->
    <g transform="translate(182.58336 484.204554) scale(0.23 -0.23)">
     <defs>
      <path id="TimesNewRomanPS-BoldMT-30" d="M 2966 2119 
Q 2966 1484 2788 934 
Q 2681 597 2501 381 
Q 2322 166 2094 39 
Q 1866 -88 1597 -88 
Q 1291 -88 1044 68 
Q 797 225 606 516 
Q 469 728 366 1081 
Q 231 1559 231 2069 
Q 231 2759 425 3338 
Q 584 3816 909 4070 
Q 1234 4325 1597 4325 
Q 1966 4325 2286 4073 
Q 2606 3822 2756 3397 
Q 2966 2813 2966 2119 
z
M 2003 2125 
Q 2003 3238 1991 3422 
Q 1959 3856 1841 4009 
Q 1763 4109 1588 4109 
Q 1453 4109 1375 4034 
Q 1259 3925 1218 3648 
Q 1178 3372 1178 1719 
Q 1178 819 1241 513 
Q 1288 291 1375 216 
Q 1463 141 1606 141 
Q 1763 141 1841 241 
Q 1972 416 1991 781 
L 2003 2125 
z
" transform="scale(0.015625)"/>
      <path id="DejaVuSerif-Bold-207a" d="M 1916 4344 
L 1916 3441 
L 2950 3441 
L 2950 3044 
L 1916 3044 
L 1916 2141 
L 1463 2141 
L 1463 3044 
L 428 3044 
L 428 3441 
L 1463 3441 
L 1463 4344 
L 1916 4344 
z
" transform="scale(0.015625)"/>
     </defs>
     <use xlink:href="#TimesNewRomanPS-BoldMT-30"/>
     <use xlink:href="#DejaVuSerif-Bold-207a" transform="translate(50 0)"/>
    </g>
   </g>
   <g id="text_4">
    <!-- 2359 -->
    <g transform="translate(13.58775 371.279592) scale(0.16 -0.16)">
     <defs>
      <path id="DejaVuSans-BoldOblique-32" d="M 1581 884 
L 3609 884 
L 3438 0 
L 50 0 
L 225 891 
L 2209 2388 
Q 2534 2638 2704 2894 
Q 2875 3150 2875 3391 
Q 2875 3647 2700 3787 
Q 2525 3928 2209 3928 
Q 1913 3928 1547 3811 
Q 1181 3694 722 3450 
L 922 4441 
Q 1347 4597 1756 4673 
Q 2166 4750 2566 4750 
Q 3278 4750 3687 4442 
Q 4097 4134 4097 3603 
Q 4097 3147 3847 2772 
Q 3597 2397 2747 1759 
L 1581 884 
z
" transform="scale(0.015625)"/>
      <path id="DejaVuSans-BoldOblique-33" d="M 3022 2516 
Q 3375 2434 3572 2187 
Q 3769 1941 3769 1581 
Q 3769 806 3155 357 
Q 2541 -91 1466 -91 
Q 1059 -91 692 -33 
Q 325 25 0 141 
L 178 1069 
Q 456 906 784 817 
Q 1113 728 1441 728 
Q 1969 728 2276 926 
Q 2584 1125 2584 1459 
Q 2584 1738 2350 1877 
Q 2116 2016 1644 2016 
L 1166 2016 
L 1319 2791 
L 1825 2791 
Q 2316 2791 2602 2969 
Q 2888 3147 2888 3450 
Q 2888 3688 2689 3813 
Q 2491 3938 2113 3938 
Q 1847 3938 1534 3869 
Q 1222 3800 884 3669 
L 1056 4550 
Q 1425 4650 1783 4700 
Q 2141 4750 2491 4750 
Q 3281 4750 3679 4487 
Q 4078 4225 4078 3706 
Q 4078 3241 3801 2930 
Q 3525 2619 3022 2516 
z
" transform="scale(0.015625)"/>
      <path id="DejaVuSans-BoldOblique-35" d="M 1131 4666 
L 4122 4666 
L 3950 3781 
L 1919 3781 
L 1778 3059 
Q 1916 3097 2064 3117 
Q 2213 3138 2363 3138 
Q 3078 3138 3481 2811 
Q 3884 2484 3884 1906 
Q 3884 988 3262 448 
Q 2641 -91 1575 -91 
Q 1184 -91 815 -14 
Q 447 63 84 219 
L 269 1166 
Q 616 941 942 834 
Q 1269 728 1606 728 
Q 2100 728 2397 986 
Q 2694 1244 2694 1663 
Q 2694 1963 2469 2139 
Q 2244 2316 1856 2316 
Q 1594 2316 1289 2248 
Q 984 2181 622 2041 
L 1131 4666 
z
" transform="scale(0.015625)"/>
      <path id="DejaVuSans-BoldOblique-39" d="M 263 103 
L 428 966 
Q 700 825 953 758 
Q 1206 691 1459 691 
Q 2041 691 2400 1003 
Q 2759 1316 2834 1881 
Q 2594 1722 2337 1645 
Q 2081 1569 1791 1569 
Q 1219 1569 853 1909 
Q 488 2250 488 2778 
Q 488 3641 1052 4192 
Q 1616 4744 2503 4744 
Q 3300 4744 3736 4292 
Q 4172 3841 4172 3016 
Q 4172 2381 3978 1801 
Q 3784 1222 3431 800 
Q 3056 353 2548 128 
Q 2041 -97 1403 -97 
Q 1106 -97 825 -47 
Q 544 3 263 103 
z
M 2169 2344 
Q 2525 2344 2753 2637 
Q 2981 2931 2981 3391 
Q 2981 3675 2845 3828 
Q 2709 3981 2456 3981 
Q 2103 3981 1870 3690 
Q 1638 3400 1638 2963 
Q 1638 2663 1775 2503 
Q 1913 2344 2169 2344 
z
" transform="scale(0.015625)"/>
     </defs>
     <use xlink:href="#DejaVuSans-BoldOblique-32"/>
     <use xlink:href="#DejaVuSans-BoldOblique-33" transform="translate(69.580078 0)"/>
     <use xlink:href="#DejaVuSans-BoldOblique-35" transform="translate(139.160156 0)"/>
     <use xlink:href="#DejaVuSans-BoldOblique-39" transform="translate(208.740234 0)"/>
    </g>
   </g>
   <g id="text_5">
    <!-- 2⁺ -->
    <g transform="translate(182.58336 372.019827) scale(0.23 -0.23)">
     <defs>
      <path id="TimesNewRomanPS-BoldMT-32" d="M 2650 0 
L 156 0 
L 156 69 
Q 1303 1434 1548 1906 
Q 1794 2378 1794 2828 
Q 1794 3156 1591 3373 
Q 1388 3591 1094 3591 
Q 613 3591 347 3109 
L 231 3150 
Q 400 3750 744 4037 
Q 1088 4325 1538 4325 
Q 1859 4325 2125 4175 
Q 2391 4025 2541 3764 
Q 2691 3503 2691 3275 
Q 2691 2859 2459 2431 
Q 2144 1853 1081 819 
L 1997 819 
Q 2334 819 2436 847 
Q 2538 875 2603 942 
Q 2669 1009 2775 1225 
L 2888 1225 
L 2650 0 
z
" transform="scale(0.015625)"/>
     </defs>
     <use xlink:href="#TimesNewRomanPS-BoldMT-32"/>
     <use xlink:href="#DejaVuSerif-Bold-207a" transform="translate(50 0)"/>
    </g>
   </g>
   <g id="text_6">
    <!-- 4342 -->
    <g transform="translate(13.58775 276.966425) scale(0.16 -0.16)">
     <defs>
      <path id="DejaVuSans-BoldOblique-34" d="M 2638 3641 
L 978 1722 
L 2259 1722 
L 2638 3641 
z
M 2606 4666 
L 3975 4666 
L 3397 1722 
L 4063 1722 
L 3897 850 
L 3231 850 
L 3066 0 
L 1925 0 
L 2094 850 
L -6 850 
L 197 1881 
L 2606 4666 
z
" transform="scale(0.015625)"/>
     </defs>
     <use xlink:href="#DejaVuSans-BoldOblique-34"/>
     <use xlink:href="#DejaVuSans-BoldOblique-33" transform="translate(69.580078 0)"/>
     <use xlink:href="#DejaVuSans-BoldOblique-34" transform="translate(139.160156 0)"/>
     <use xlink:href="#DejaVuSans-BoldOblique-32" transform="translate(208.740234 0)"/>
    </g>
   </g>
   <g id="text_7">
    <!-- 4⁺ -->
    <g transform="translate(182.58336 277.70666) scale(0.23 -0.23)">
     <defs>
      <path id="TimesNewRomanPS-BoldMT-34" d="M 159 1597 
L 2172 4325 
L 2553 4325 
L 2553 1597 
L 2941 1597 
L 2941 950 
L 2553 950 
L 2553 0 
L 1694 0 
L 1694 950 
L 159 950 
L 159 1597 
z
M 463 1597 
L 1694 1597 
L 1694 3269 
L 463 1597 
z
" transform="scale(0.015625)"/>
     </defs>
     <use xlink:href="#TimesNewRomanPS-BoldMT-34"/>
     <use xlink:href="#DejaVuSerif-Bold-207a" transform="translate(50 0)"/>
    </g>
   </g>
   <g id="text_8">
    <!-- 6048 -->
    <g transform="translate(13.58775 195.818703) scale(0.16 -0.16)">
     <defs>
      <path id="DejaVuSans-BoldOblique-36" d="M 2316 2303 
Q 1959 2303 1731 2009 
Q 1503 1716 1503 1253 
Q 1503 975 1643 820 
Q 1784 666 2034 666 
Q 2388 666 2617 955 
Q 2847 1244 2847 1684 
Q 2847 1984 2709 2143 
Q 2572 2303 2316 2303 
z
M 4225 4544 
L 4056 3681 
Q 3788 3819 3534 3887 
Q 3281 3956 3028 3956 
Q 2447 3956 2087 3643 
Q 1728 3331 1650 2766 
Q 1894 2925 2151 3001 
Q 2409 3078 2700 3078 
Q 3275 3078 3640 2737 
Q 4006 2397 4006 1869 
Q 4006 1006 3442 454 
Q 2878 -97 1991 -97 
Q 1194 -97 756 354 
Q 319 806 319 1631 
Q 319 2269 512 2848 
Q 706 3428 1056 3847 
Q 1431 4294 1942 4519 
Q 2453 4744 3091 4744 
Q 3384 4744 3662 4694 
Q 3941 4644 4225 4544 
z
" transform="scale(0.015625)"/>
      <path id="DejaVuSans-BoldOblique-38" d="M 2150 2088 
Q 1784 2088 1539 1839 
Q 1294 1591 1294 1228 
Q 1294 969 1453 817 
Q 1613 666 1888 666 
Q 2259 666 2503 911 
Q 2747 1156 2747 1522 
Q 2747 1781 2586 1934 
Q 2425 2088 2150 2088 
z
M 1381 2484 
Q 1044 2625 876 2850 
Q 709 3075 709 3391 
Q 709 4025 1229 4387 
Q 1750 4750 2669 4750 
Q 3406 4750 3812 4475 
Q 4219 4200 4219 3700 
Q 4219 3256 3936 2940 
Q 3653 2625 3128 2484 
Q 3509 2338 3690 2091 
Q 3872 1844 3872 1466 
Q 3872 747 3311 328 
Q 2750 -91 1772 -91 
Q 1000 -91 570 217 
Q 141 525 141 1075 
Q 141 1572 470 1945 
Q 800 2319 1381 2484 
z
M 2559 3994 
Q 2241 3994 2048 3808 
Q 1856 3622 1856 3316 
Q 1856 3103 1995 2972 
Q 2134 2841 2363 2841 
Q 2681 2841 2873 3027 
Q 3066 3213 3066 3519 
Q 3066 3734 2927 3864 
Q 2788 3994 2559 3994 
z
" transform="scale(0.015625)"/>
     </defs>
     <use xlink:href="#DejaVuSans-BoldOblique-36"/>
     <use xlink:href="#DejaVuSans-BoldOblique-30" transform="translate(69.580078 0)"/>
     <use xlink:href="#DejaVuSans-BoldOblique-34" transform="translate(139.160156 0)"/>
     <use xlink:href="#DejaVuSans-BoldOblique-38" transform="translate(208.740234 0)"/>
    </g>
   </g>
   <g id="text_9">
    <!-- 6⁺ -->
    <g transform="translate(182.58336 196.558938) scale(0.23 -0.23)">
     <defs>
      <path id="TimesNewRomanPS-BoldMT-36" d="M 3006 4325 
L 3006 4238 
Q 2441 4094 2098 3867 
Q 1756 3641 1557 3317 
Q 1359 2994 1250 2516 
Q 1388 2609 1478 2638 
Q 1681 2700 1888 2700 
Q 2363 2700 2680 2354 
Q 2997 2009 2997 1413 
Q 2997 994 2825 644 
Q 2653 294 2337 103 
Q 2022 -88 1663 -88 
Q 1272 -88 940 126 
Q 609 341 423 753 
Q 238 1166 238 1650 
Q 238 2363 580 2977 
Q 922 3591 1551 3955 
Q 2181 4319 3006 4325 
z
M 1209 2263 
Q 1184 1831 1184 1631 
Q 1184 1200 1267 797 
Q 1350 394 1494 231 
Q 1597 116 1738 116 
Q 1881 116 1993 283 
Q 2106 450 2106 963 
Q 2106 1825 1897 2153 
Q 1763 2366 1534 2366 
Q 1409 2366 1209 2263 
z
" transform="scale(0.015625)"/>
     </defs>
     <use xlink:href="#TimesNewRomanPS-BoldMT-36"/>
     <use xlink:href="#DejaVuSerif-Bold-207a" transform="translate(50 0)"/>
    </g>
   </g>
   <g id="text_10">
    <!-- 3384 -->
    <g transform="translate(263.461892 322.529962) scale(0.16 -0.16)">
     <use xlink:href="#DejaVuSans-BoldOblique-33"/>
     <use xlink:href="#DejaVuSans-BoldOblique-33" transform="translate(69.580078 0)"/>
     <use xlink:href="#DejaVuSans-BoldOblique-38" transform="translate(139.160156 0)"/>
     <use xlink:href="#DejaVuSans-BoldOblique-34" transform="translate(208.740234 0)"/>
    </g>
   </g>
   <g id="text_11">
    <!-- 0⁺ -->
    <g transform="translate(432.457502 323.270197) scale(0.23 -0.23)">
     <use xlink:href="#TimesNewRomanPS-BoldMT-30"/>
     <use xlink:href="#DejaVuSerif-Bold-207a" transform="translate(50 0)"/>
    </g>
   </g>
   <g id="text_12">
    <!-- 5156 -->
    <g transform="translate(263.461892 238.26558) scale(0.16 -0.16)">
     <defs>
      <path id="DejaVuSans-BoldOblique-31" d="M 441 831 
L 1503 831 
L 2088 3847 
L 953 3622 
L 1113 4441 
L 2241 4666 
L 3384 4666 
L 2644 831 
L 3700 831 
L 3541 0 
L 275 0 
L 441 831 
z
" transform="scale(0.015625)"/>
     </defs>
     <use xlink:href="#DejaVuSans-BoldOblique-35"/>
     <use xlink:href="#DejaVuSans-BoldOblique-31" transform="translate(69.580078 0)"/>
     <use xlink:href="#DejaVuSans-BoldOblique-35" transform="translate(139.160156 0)"/>
     <use xlink:href="#DejaVuSans-BoldOblique-36" transform="translate(208.740234 0)"/>
    </g>
   </g>
   <g id="text_13">
    <!-- 2⁺ -->
    <g transform="translate(432.457502 239.005814) scale(0.23 -0.23)">
     <use xlink:href="#TimesNewRomanPS-BoldMT-32"/>
     <use xlink:href="#DejaVuSerif-Bold-207a" transform="translate(50 0)"/>
    </g>
   </g>
   <g id="text_14">
    <!-- 6895 -->
    <g transform="translate(263.461892 155.540244) scale(0.16 -0.16)">
     <use xlink:href="#DejaVuSans-BoldOblique-36"/>
     <use xlink:href="#DejaVuSans-BoldOblique-38" transform="translate(69.580078 0)"/>
     <use xlink:href="#DejaVuSans-BoldOblique-39" transform="translate(139.160156 0)"/>
     <use xlink:href="#DejaVuSans-BoldOblique-35" transform="translate(208.740234 0)"/>
    </g>
   </g>
   <g id="text_15">
    <!-- 4⁺ -->
    <g transform="translate(432.457502 156.280478) scale(0.23 -0.23)">
     <use xlink:href="#TimesNewRomanPS-BoldMT-34"/>
     <use xlink:href="#DejaVuSerif-Bold-207a" transform="translate(50 0)"/>
    </g>
   </g>
   <g id="text_16">
    <!-- 8396 -->
    <g transform="translate(263.461892 84.161527) scale(0.16 -0.16)">
     <use xlink:href="#DejaVuSans-BoldOblique-38"/>
     <use xlink:href="#DejaVuSans-BoldOblique-33" transform="translate(69.580078 0)"/>
     <use xlink:href="#DejaVuSans-BoldOblique-39" transform="translate(139.160156 0)"/>
     <use xlink:href="#DejaVuSans-BoldOblique-36" transform="translate(208.740234 0)"/>
    </g>
   </g>
   <g id="text_17">
    <!-- 6⁺ -->
    <g transform="translate(432.457502 84.901762) scale(0.23 -0.23)">
     <use xlink:href="#TimesNewRomanPS-BoldMT-36"/>
     <use xlink:href="#DejaVuSerif-Bold-207a" transform="translate(50 0)"/>
    </g>
   </g>
   <g id="text_18">
    <!-- 4465 -->
    <g transform="translate(513.336034 271.129257) scale(0.16 -0.16)">
     <use xlink:href="#DejaVuSans-BoldOblique-34"/>
     <use xlink:href="#DejaVuSans-BoldOblique-34" transform="translate(69.580078 0)"/>
     <use xlink:href="#DejaVuSans-BoldOblique-36" transform="translate(139.160156 0)"/>
     <use xlink:href="#DejaVuSans-BoldOblique-35" transform="translate(208.740234 0)"/>
    </g>
   </g>
   <g id="text_19">
    <!-- 2⁺ -->
    <g transform="translate(682.331644 271.869491) scale(0.23 -0.23)">
     <use xlink:href="#TimesNewRomanPS-BoldMT-32"/>
     <use xlink:href="#DejaVuSerif-Bold-207a" transform="translate(50 0)"/>
    </g>
   </g>
   <g id="text_20">
    <!-- 6356 -->
    <g transform="translate(513.336034 181.188259) scale(0.16 -0.16)">
     <use xlink:href="#DejaVuSans-BoldOblique-36"/>
     <use xlink:href="#DejaVuSans-BoldOblique-33" transform="translate(69.580078 0)"/>
     <use xlink:href="#DejaVuSans-BoldOblique-35" transform="translate(139.160156 0)"/>
     <use xlink:href="#DejaVuSans-BoldOblique-36" transform="translate(208.740234 0)"/>
    </g>
   </g>
   <g id="text_21">
    <!-- 3⁺ -->
    <g transform="translate(682.331644 181.928494) scale(0.23 -0.23)">
     <defs>
      <path id="TimesNewRomanPS-BoldMT-33" d="M 947 2125 
L 947 2234 
Q 1303 2338 1440 2427 
Q 1578 2516 1678 2698 
Q 1778 2881 1778 3069 
Q 1778 3328 1589 3514 
Q 1400 3700 1119 3700 
Q 681 3700 375 3238 
L 259 3278 
Q 484 3800 836 4062 
Q 1188 4325 1619 4325 
Q 2059 4325 2345 4056 
Q 2631 3788 2631 3428 
Q 2631 3194 2498 2976 
Q 2366 2759 2081 2594 
Q 2447 2416 2639 2155 
Q 2831 1894 2831 1500 
Q 2831 838 2351 373 
Q 1872 -91 1066 -91 
Q 528 -91 281 88 
Q 103 213 103 409 
Q 103 553 206 654 
Q 309 756 444 756 
Q 547 756 638 713 
Q 688 688 992 439 
Q 1297 191 1563 191 
Q 1794 191 1959 373 
Q 2125 556 2125 838 
Q 2125 1266 1825 1627 
Q 1525 1988 947 2125 
z
" transform="scale(0.015625)"/>
     </defs>
     <use xlink:href="#TimesNewRomanPS-BoldMT-33"/>
     <use xlink:href="#DejaVuSerif-Bold-207a" transform="translate(50 0)"/>
    </g>
   </g>
   <g id="text_22">
    <path d="M 111.560555 415.730706 
L 111.560555 424.395706 
Q 111.560555 425.370706 111.645555 425.640706 
Q 111.733055 425.910706 112.005555 426.083206 
Q 112.280555 426.253206 112.883055 426.253206 
L 113.123055 426.253206 
L 113.123055 426.543206 
L 107.545555 426.543206 
L 107.545555 426.253206 
L 107.828055 426.253206 
Q 108.508055 426.253206 108.795555 426.098206 
Q 109.085555 425.940706 109.185555 425.668206 
Q 109.288055 425.395706 109.288055 424.395706 
L 109.288055 418.903206 
Q 109.288055 418.168206 109.218055 417.985706 
Q 109.148055 417.800706 108.955555 417.673206 
Q 108.765555 417.543206 108.515555 417.543206 
Q 108.115555 417.543206 107.545555 417.793206 
L 107.405555 417.510706 
L 111.303055 415.730706 
L 111.560555 415.730706 
z
M 121.765555 421.245706 
Q 121.765555 422.833206 121.320555 424.208206 
Q 121.053055 425.050706 120.603055 425.590706 
Q 120.155555 426.128206 119.585555 426.445706 
Q 119.015555 426.763206 118.343055 426.763206 
Q 117.578055 426.763206 116.960555 426.373206 
Q 116.343055 425.980706 115.865555 425.253206 
Q 115.523055 424.723206 115.265555 423.840706 
Q 114.928055 422.645706 114.928055 421.370706 
Q 114.928055 419.645706 115.413055 418.198206 
Q 115.810555 417.003206 116.623055 416.368206 
Q 117.435555 415.730706 118.343055 415.730706 
Q 119.265555 415.730706 120.065555 416.360706 
Q 120.865555 416.988206 121.240555 418.050706 
Q 121.765555 419.510706 121.765555 421.245706 
z
M 119.358055 421.230706 
Q 119.358055 418.448206 119.328055 417.988206 
Q 119.248055 416.903206 118.953055 416.520706 
Q 118.758055 416.270706 118.320555 416.270706 
Q 117.983055 416.270706 117.788055 416.458206 
Q 117.498055 416.730706 117.395555 417.423206 
Q 117.295555 418.113206 117.295555 422.245706 
Q 117.295555 424.495706 117.453055 425.260706 
Q 117.570555 425.815706 117.788055 426.003206 
Q 118.008055 426.190706 118.365555 426.190706 
Q 118.758055 426.190706 118.953055 425.940706 
Q 119.280555 425.503206 119.328055 424.590706 
L 119.358055 421.230706 
z
M 124.350555 424.135706 
Q 124.898055 424.135706 125.275555 424.520706 
Q 125.655555 424.903206 125.655555 425.440706 
Q 125.655555 425.980706 125.273055 426.360706 
Q 124.890555 426.738206 124.350555 426.738206 
Q 123.810555 426.738206 123.430555 426.360706 
Q 123.053055 425.980706 123.053055 425.440706 
Q 123.053055 424.903206 123.430555 424.520706 
Q 123.810555 424.135706 124.350555 424.135706 
z
M 131.803055 420.558206 
Q 132.920555 421.378206 133.353055 422.085706 
Q 133.788055 422.793206 133.788055 423.708206 
Q 133.788055 424.988206 132.823055 425.875706 
Q 131.858055 426.763206 130.203055 426.763206 
Q 128.633055 426.763206 127.773055 425.990706 
Q 126.913055 425.215706 126.913055 424.098206 
Q 126.913055 423.245706 127.408055 422.605706 
Q 127.905555 421.965706 129.060555 421.433206 
Q 127.803055 420.473206 127.448055 419.863206 
Q 127.093055 419.253206 127.093055 418.448206 
Q 127.093055 417.385706 127.995555 416.578206 
Q 128.898055 415.770706 130.468055 415.770706 
Q 131.983055 415.770706 132.798055 416.485706 
Q 133.615555 417.198206 133.615555 418.198206 
Q 133.615555 418.948206 133.173055 419.523206 
Q 132.733055 420.098206 131.803055 420.558206 
z
M 131.210555 420.160706 
Q 131.498055 419.770706 131.638055 419.285706 
Q 131.780555 418.800706 131.780555 418.223206 
Q 131.780555 417.208206 131.343055 416.668206 
Q 131.015555 416.253206 130.435555 416.253206 
Q 129.913055 416.253206 129.545555 416.633206 
Q 129.178055 417.010706 129.178055 417.573206 
Q 129.178055 418.145706 129.588055 418.758206 
Q 129.998055 419.370706 131.210555 420.160706 
z
M 129.648055 421.808206 
Q 129.405555 422.028206 129.303055 422.208206 
Q 129.148055 422.480706 129.023055 423.005706 
Q 128.898055 423.528206 128.898055 424.098206 
Q 128.898055 424.833206 129.085555 425.328206 
Q 129.273055 425.823206 129.620555 426.043206 
Q 129.968055 426.260706 130.335555 426.260706 
Q 130.905555 426.260706 131.295555 425.843206 
Q 131.685555 425.425706 131.685555 424.698206 
Q 131.685555 423.183206 129.648055 421.808206 
z
" style="stroke: #ffffff; stroke-width: 3.8"/>
    <path d="M 111.560555 415.730706 
L 111.560555 424.395706 
Q 111.560555 425.370706 111.645555 425.640706 
Q 111.733055 425.910706 112.005555 426.083206 
Q 112.280555 426.253206 112.883055 426.253206 
L 113.123055 426.253206 
L 113.123055 426.543206 
L 107.545555 426.543206 
L 107.545555 426.253206 
L 107.828055 426.253206 
Q 108.508055 426.253206 108.795555 426.098206 
Q 109.085555 425.940706 109.185555 425.668206 
Q 109.288055 425.395706 109.288055 424.395706 
L 109.288055 418.903206 
Q 109.288055 418.168206 109.218055 417.985706 
Q 109.148055 417.800706 108.955555 417.673206 
Q 108.765555 417.543206 108.515555 417.543206 
Q 108.115555 417.543206 107.545555 417.793206 
L 107.405555 417.510706 
L 111.303055 415.730706 
L 111.560555 415.730706 
z
M 121.765555 421.245706 
Q 121.765555 422.833206 121.320555 424.208206 
Q 121.053055 425.050706 120.603055 425.590706 
Q 120.155555 426.128206 119.585555 426.445706 
Q 119.015555 426.763206 118.343055 426.763206 
Q 117.578055 426.763206 116.960555 426.373206 
Q 116.343055 425.980706 115.865555 425.253206 
Q 115.523055 424.723206 115.265555 423.840706 
Q 114.928055 422.645706 114.928055 421.370706 
Q 114.928055 419.645706 115.413055 418.198206 
Q 115.810555 417.003206 116.623055 416.368206 
Q 117.435555 415.730706 118.343055 415.730706 
Q 119.265555 415.730706 120.065555 416.360706 
Q 120.865555 416.988206 121.240555 418.050706 
Q 121.765555 419.510706 121.765555 421.245706 
z
M 119.358055 421.230706 
Q 119.358055 418.448206 119.328055 417.988206 
Q 119.248055 416.903206 118.953055 416.520706 
Q 118.758055 416.270706 118.320555 416.270706 
Q 117.983055 416.270706 117.788055 416.458206 
Q 117.498055 416.730706 117.395555 417.423206 
Q 117.295555 418.113206 117.295555 422.245706 
Q 117.295555 424.495706 117.453055 425.260706 
Q 117.570555 425.815706 117.788055 426.003206 
Q 118.008055 426.190706 118.365555 426.190706 
Q 118.758055 426.190706 118.953055 425.940706 
Q 119.280555 425.503206 119.328055 424.590706 
L 119.358055 421.230706 
z
M 124.350555 424.135706 
Q 124.898055 424.135706 125.275555 424.520706 
Q 125.655555 424.903206 125.655555 425.440706 
Q 125.655555 425.980706 125.273055 426.360706 
Q 124.890555 426.738206 124.350555 426.738206 
Q 123.810555 426.738206 123.430555 426.360706 
Q 123.053055 425.980706 123.053055 425.440706 
Q 123.053055 424.903206 123.430555 424.520706 
Q 123.810555 424.135706 124.350555 424.135706 
z
M 131.803055 420.558206 
Q 132.920555 421.378206 133.353055 422.085706 
Q 133.788055 422.793206 133.788055 423.708206 
Q 133.788055 424.988206 132.823055 425.875706 
Q 131.858055 426.763206 130.203055 426.763206 
Q 128.633055 426.763206 127.773055 425.990706 
Q 126.913055 425.215706 126.913055 424.098206 
Q 126.913055 423.245706 127.408055 422.605706 
Q 127.905555 421.965706 129.060555 421.433206 
Q 127.803055 420.473206 127.448055 419.863206 
Q 127.093055 419.253206 127.093055 418.448206 
Q 127.093055 417.385706 127.995555 416.578206 
Q 128.898055 415.770706 130.468055 415.770706 
Q 131.983055 415.770706 132.798055 416.485706 
Q 133.615555 417.198206 133.615555 418.198206 
Q 133.615555 418.948206 133.173055 419.523206 
Q 132.733055 420.098206 131.803055 420.558206 
z
M 131.210555 420.160706 
Q 131.498055 419.770706 131.638055 419.285706 
Q 131.780555 418.800706 131.780555 418.223206 
Q 131.780555 417.208206 131.343055 416.668206 
Q 131.015555 416.253206 130.435555 416.253206 
Q 129.913055 416.253206 129.545555 416.633206 
Q 129.178055 417.010706 129.178055 417.573206 
Q 129.178055 418.145706 129.588055 418.758206 
Q 129.998055 419.370706 131.210555 420.160706 
z
M 129.648055 421.808206 
Q 129.405555 422.028206 129.303055 422.208206 
Q 129.148055 422.480706 129.023055 423.005706 
Q 128.898055 423.528206 128.898055 424.098206 
Q 128.898055 424.833206 129.085555 425.328206 
Q 129.273055 425.823206 129.620555 426.043206 
Q 129.968055 426.260706 130.335555 426.260706 
Q 130.905555 426.260706 131.295555 425.843206 
Q 131.685555 425.425706 131.685555 424.698206 
Q 131.685555 423.183206 129.648055 421.808206 
z
"/>
   </g>
   <g id="text_23">
    <path d="M 112.975555 323.294259 
L 106.740555 323.294259 
L 106.740555 323.121759 
Q 109.608055 319.709259 110.220555 318.529259 
Q 110.835555 317.349259 110.835555 316.224259 
Q 110.835555 315.404259 110.328055 314.861759 
Q 109.820555 314.316759 109.085555 314.316759 
Q 107.883055 314.316759 107.218055 315.521759 
L 106.928055 315.419259 
Q 107.350555 313.919259 108.210555 313.201759 
Q 109.070555 312.481759 110.195555 312.481759 
Q 110.998055 312.481759 111.663055 312.856759 
Q 112.328055 313.231759 112.703055 313.884259 
Q 113.078055 314.536759 113.078055 315.106759 
Q 113.078055 316.146759 112.498055 317.216759 
Q 111.710555 318.661759 109.053055 321.246759 
L 111.343055 321.246759 
Q 112.185555 321.246759 112.440555 321.176759 
Q 112.695555 321.106759 112.858055 320.939259 
Q 113.023055 320.771759 113.288055 320.231759 
L 113.570555 320.231759 
L 112.975555 323.294259 
z
M 116.718055 317.981759 
L 116.718055 317.709259 
Q 117.608055 317.449259 117.950555 317.226759 
Q 118.295555 317.004259 118.545555 316.549259 
Q 118.795555 316.091759 118.795555 315.621759 
Q 118.795555 314.974259 118.323055 314.509259 
Q 117.850555 314.044259 117.148055 314.044259 
Q 116.053055 314.044259 115.288055 315.199259 
L 114.998055 315.099259 
Q 115.560555 313.794259 116.440555 313.139259 
Q 117.320555 312.481759 118.398055 312.481759 
Q 119.498055 312.481759 120.213055 313.154259 
Q 120.928055 313.824259 120.928055 314.724259 
Q 120.928055 315.309259 120.595555 315.854259 
Q 120.265555 316.396759 119.553055 316.809259 
Q 120.468055 317.254259 120.948055 317.906759 
Q 121.428055 318.559259 121.428055 319.544259 
Q 121.428055 321.199259 120.228055 322.361759 
Q 119.030555 323.521759 117.015555 323.521759 
Q 115.670555 323.521759 115.053055 323.074259 
Q 114.608055 322.761759 114.608055 322.271759 
Q 114.608055 321.911759 114.865555 321.659259 
Q 115.123055 321.404259 115.460555 321.404259 
Q 115.718055 321.404259 115.945555 321.511759 
Q 116.070555 321.574259 116.830555 322.196759 
Q 117.593055 322.816759 118.258055 322.816759 
Q 118.835555 322.816759 119.248055 322.361759 
Q 119.663055 321.904259 119.663055 321.199259 
Q 119.663055 320.129259 118.913055 319.226759 
Q 118.163055 318.324259 116.718055 317.981759 
z
M 124.350555 320.886759 
Q 124.898055 320.886759 125.275555 321.271759 
Q 125.655555 321.654259 125.655555 322.191759 
Q 125.655555 322.731759 125.273055 323.111759 
Q 124.890555 323.489259 124.350555 323.489259 
Q 123.810555 323.489259 123.430555 323.111759 
Q 123.053055 322.731759 123.053055 322.191759 
Q 123.053055 321.654259 123.430555 321.271759 
Q 123.810555 320.886759 124.350555 320.886759 
z
M 128.788055 312.699259 
L 133.748055 312.699259 
L 132.960555 314.716759 
L 128.788055 314.716759 
L 128.390555 315.771759 
Q 131.085555 315.871759 132.538055 317.114259 
Q 133.733055 318.136759 133.733055 319.661759 
Q 133.733055 320.636759 133.178055 321.571759 
Q 132.623055 322.504259 131.615555 323.009259 
Q 130.608055 323.514259 129.405555 323.514259 
Q 128.108055 323.514259 127.413055 323.029259 
Q 126.928055 322.684259 126.928055 322.246759 
Q 126.928055 321.911759 127.180555 321.654259 
Q 127.435555 321.396759 127.773055 321.396759 
Q 128.078055 321.396759 128.390555 321.521759 
Q 128.703055 321.646759 129.460555 322.176759 
Q 129.935555 322.504259 130.280555 322.629259 
Q 130.523055 322.724259 130.828055 322.724259 
Q 131.468055 322.724259 131.915555 322.256759 
Q 132.365555 321.786759 132.365555 321.129259 
Q 132.365555 319.754259 130.990555 318.896759 
Q 129.615555 318.036759 127.523055 318.036759 
Q 127.310555 318.036759 126.890555 318.044259 
L 128.788055 312.699259 
z
" style="stroke: #ffffff; stroke-width: 3.8"/>
    <path d="M 112.975555 323.294259 
L 106.740555 323.294259 
L 106.740555 323.121759 
Q 109.608055 319.709259 110.220555 318.529259 
Q 110.835555 317.349259 110.835555 316.224259 
Q 110.835555 315.404259 110.328055 314.861759 
Q 109.820555 314.316759 109.085555 314.316759 
Q 107.883055 314.316759 107.218055 315.521759 
L 106.928055 315.419259 
Q 107.350555 313.919259 108.210555 313.201759 
Q 109.070555 312.481759 110.195555 312.481759 
Q 110.998055 312.481759 111.663055 312.856759 
Q 112.328055 313.231759 112.703055 313.884259 
Q 113.078055 314.536759 113.078055 315.106759 
Q 113.078055 316.146759 112.498055 317.216759 
Q 111.710555 318.661759 109.053055 321.246759 
L 111.343055 321.246759 
Q 112.185555 321.246759 112.440555 321.176759 
Q 112.695555 321.106759 112.858055 320.939259 
Q 113.023055 320.771759 113.288055 320.231759 
L 113.570555 320.231759 
L 112.975555 323.294259 
z
M 116.718055 317.981759 
L 116.718055 317.709259 
Q 117.608055 317.449259 117.950555 317.226759 
Q 118.295555 317.004259 118.545555 316.549259 
Q 118.795555 316.091759 118.795555 315.621759 
Q 118.795555 314.974259 118.323055 314.509259 
Q 117.850555 314.044259 117.148055 314.044259 
Q 116.053055 314.044259 115.288055 315.199259 
L 114.998055 315.099259 
Q 115.560555 313.794259 116.440555 313.139259 
Q 117.320555 312.481759 118.398055 312.481759 
Q 119.498055 312.481759 120.213055 313.154259 
Q 120.928055 313.824259 120.928055 314.724259 
Q 120.928055 315.309259 120.595555 315.854259 
Q 120.265555 316.396759 119.553055 316.809259 
Q 120.468055 317.254259 120.948055 317.906759 
Q 121.428055 318.559259 121.428055 319.544259 
Q 121.428055 321.199259 120.228055 322.361759 
Q 119.030555 323.521759 117.015555 323.521759 
Q 115.670555 323.521759 115.053055 323.074259 
Q 114.608055 322.761759 114.608055 322.271759 
Q 114.608055 321.911759 114.865555 321.659259 
Q 115.123055 321.404259 115.460555 321.404259 
Q 115.718055 321.404259 115.945555 321.511759 
Q 116.070555 321.574259 116.830555 322.196759 
Q 117.593055 322.816759 118.258055 322.816759 
Q 118.835555 322.816759 119.248055 322.361759 
Q 119.663055 321.904259 119.663055 321.199259 
Q 119.663055 320.129259 118.913055 319.226759 
Q 118.163055 318.324259 116.718055 317.981759 
z
M 124.350555 320.886759 
Q 124.898055 320.886759 125.275555 321.271759 
Q 125.655555 321.654259 125.655555 322.191759 
Q 125.655555 322.731759 125.273055 323.111759 
Q 124.890555 323.489259 124.350555 323.489259 
Q 123.810555 323.489259 123.430555 323.111759 
Q 123.053055 322.731759 123.053055 322.191759 
Q 123.053055 321.654259 123.430555 321.271759 
Q 123.810555 320.886759 124.350555 320.886759 
z
M 128.788055 312.699259 
L 133.748055 312.699259 
L 132.960555 314.716759 
L 128.788055 314.716759 
L 128.390555 315.771759 
Q 131.085555 315.871759 132.538055 317.114259 
Q 133.733055 318.136759 133.733055 319.661759 
Q 133.733055 320.636759 133.178055 321.571759 
Q 132.623055 322.504259 131.615555 323.009259 
Q 130.608055 323.514259 129.405555 323.514259 
Q 128.108055 323.514259 127.413055 323.029259 
Q 126.928055 322.684259 126.928055 322.246759 
Q 126.928055 321.911759 127.180555 321.654259 
Q 127.435555 321.396759 127.773055 321.396759 
Q 128.078055 321.396759 128.390555 321.521759 
Q 128.703055 321.646759 129.460555 322.176759 
Q 129.935555 322.504259 130.280555 322.629259 
Q 130.523055 322.724259 130.828055 322.724259 
Q 131.468055 322.724259 131.915555 322.256759 
Q 132.365555 321.786759 132.365555 321.129259 
Q 132.365555 319.754259 130.990555 318.896759 
Q 129.615555 318.036759 127.523055 318.036759 
Q 127.310555 318.036759 126.890555 318.044259 
L 128.788055 312.699259 
z
"/>
   </g>
   <g id="text_24">
    <path d="M 106.748055 231.571314 
L 111.780555 224.751314 
L 112.733055 224.751314 
L 112.733055 231.571314 
L 113.703055 231.571314 
L 113.703055 233.188814 
L 112.733055 233.188814 
L 112.733055 235.563814 
L 110.585555 235.563814 
L 110.585555 233.188814 
L 106.748055 233.188814 
L 106.748055 231.571314 
z
M 107.508055 231.571314 
L 110.585555 231.571314 
L 110.585555 227.391314 
L 107.508055 231.571314 
z
M 119.560555 224.751314 
L 119.560555 233.416314 
Q 119.560555 234.391314 119.645555 234.661314 
Q 119.733055 234.931314 120.005555 235.103814 
Q 120.280555 235.273814 120.883055 235.273814 
L 121.123055 235.273814 
L 121.123055 235.563814 
L 115.545555 235.563814 
L 115.545555 235.273814 
L 115.828055 235.273814 
Q 116.508055 235.273814 116.795555 235.118814 
Q 117.085555 234.961314 117.185555 234.688814 
Q 117.288055 234.416314 117.288055 233.416314 
L 117.288055 227.923814 
Q 117.288055 227.188814 117.218055 227.006314 
Q 117.148055 226.821314 116.955555 226.693814 
Q 116.765555 226.563814 116.515555 226.563814 
Q 116.115555 226.563814 115.545555 226.813814 
L 115.405555 226.531314 
L 119.303055 224.751314 
L 119.560555 224.751314 
z
M 124.350555 233.156314 
Q 124.898055 233.156314 125.275555 233.541314 
Q 125.655555 233.923814 125.655555 234.461314 
Q 125.655555 235.001314 125.273055 235.381314 
Q 124.890555 235.758814 124.350555 235.758814 
Q 123.810555 235.758814 123.430555 235.381314 
Q 123.053055 235.001314 123.053055 234.461314 
Q 123.053055 233.923814 123.430555 233.541314 
Q 123.810555 233.156314 124.350555 233.156314 
z
M 128.788055 224.968814 
L 133.748055 224.968814 
L 132.960555 226.986314 
L 128.788055 226.986314 
L 128.390555 228.041314 
Q 131.085555 228.141314 132.538055 229.383814 
Q 133.733055 230.406314 133.733055 231.931314 
Q 133.733055 232.906314 133.178055 233.841314 
Q 132.623055 234.773814 131.615555 235.278814 
Q 130.608055 235.783814 129.405555 235.783814 
Q 128.108055 235.783814 127.413055 235.298814 
Q 126.928055 234.953814 126.928055 234.516314 
Q 126.928055 234.181314 127.180555 233.923814 
Q 127.435555 233.666314 127.773055 233.666314 
Q 128.078055 233.666314 128.390555 233.791314 
Q 128.703055 233.916314 129.460555 234.446314 
Q 129.935555 234.773814 130.280555 234.898814 
Q 130.523055 234.993814 130.828055 234.993814 
Q 131.468055 234.993814 131.915555 234.526314 
Q 132.365555 234.056314 132.365555 233.398814 
Q 132.365555 232.023814 130.990555 231.166314 
Q 129.615555 230.306314 127.523055 230.306314 
Q 127.310555 230.306314 126.890555 230.313814 
L 128.788055 224.968814 
z
" style="stroke: #ffffff; stroke-width: 3.8"/>
    <path d="M 106.748055 231.571314 
L 111.780555 224.751314 
L 112.733055 224.751314 
L 112.733055 231.571314 
L 113.703055 231.571314 
L 113.703055 233.188814 
L 112.733055 233.188814 
L 112.733055 235.563814 
L 110.585555 235.563814 
L 110.585555 233.188814 
L 106.748055 233.188814 
L 106.748055 231.571314 
z
M 107.508055 231.571314 
L 110.585555 231.571314 
L 110.585555 227.391314 
L 107.508055 231.571314 
z
M 119.560555 224.751314 
L 119.560555 233.416314 
Q 119.560555 234.391314 119.645555 234.661314 
Q 119.733055 234.931314 120.005555 235.103814 
Q 120.280555 235.273814 120.883055 235.273814 
L 121.123055 235.273814 
L 121.123055 235.563814 
L 115.545555 235.563814 
L 115.545555 235.273814 
L 115.828055 235.273814 
Q 116.508055 235.273814 116.795555 235.118814 
Q 117.085555 234.961314 117.185555 234.688814 
Q 117.288055 234.416314 117.288055 233.416314 
L 117.288055 227.923814 
Q 117.288055 227.188814 117.218055 227.006314 
Q 117.148055 226.821314 116.955555 226.693814 
Q 116.765555 226.563814 116.515555 226.563814 
Q 116.115555 226.563814 115.545555 226.813814 
L 115.405555 226.531314 
L 119.303055 224.751314 
L 119.560555 224.751314 
z
M 124.350555 233.156314 
Q 124.898055 233.156314 125.275555 233.541314 
Q 125.655555 233.923814 125.655555 234.461314 
Q 125.655555 235.001314 125.273055 235.381314 
Q 124.890555 235.758814 124.350555 235.758814 
Q 123.810555 235.758814 123.430555 235.381314 
Q 123.053055 235.001314 123.053055 234.461314 
Q 123.053055 233.923814 123.430555 233.541314 
Q 123.810555 233.156314 124.350555 233.156314 
z
M 128.788055 224.968814 
L 133.748055 224.968814 
L 132.960555 226.986314 
L 128.788055 226.986314 
L 128.390555 228.041314 
Q 131.085555 228.141314 132.538055 229.383814 
Q 133.733055 230.406314 133.733055 231.931314 
Q 133.733055 232.906314 133.178055 233.841314 
Q 132.623055 234.773814 131.615555 235.278814 
Q 130.608055 235.783814 129.405555 235.783814 
Q 128.108055 235.783814 127.413055 235.298814 
Q 126.928055 234.953814 126.928055 234.516314 
Q 126.928055 234.181314 127.180555 233.923814 
Q 127.435555 233.666314 127.773055 233.666314 
Q 128.078055 233.666314 128.390555 233.791314 
Q 128.703055 233.916314 129.460555 234.446314 
Q 129.935555 234.773814 130.280555 234.898814 
Q 130.523055 234.993814 130.828055 234.993814 
Q 131.468055 234.993814 131.915555 234.526314 
Q 132.365555 234.056314 132.365555 233.398814 
Q 132.365555 232.023814 130.990555 231.166314 
Q 129.615555 230.306314 127.523055 230.306314 
Q 127.310555 230.306314 126.890555 230.313814 
L 128.788055 224.968814 
z
"/>
   </g>
   <g id="text_25">
    <path d="M 360.717197 279.789021 
L 360.717197 279.569021 
Q 362.014697 279.271521 362.917197 278.694021 
Q 363.819697 278.116521 364.344697 277.264021 
Q 364.872197 276.411521 365.084697 275.304021 
Q 364.599697 275.554021 364.259697 275.651521 
Q 363.919697 275.749021 363.544697 275.749021 
Q 362.342197 275.749021 361.539697 274.881521 
Q 360.739697 274.014021 360.739697 272.506521 
Q 360.739697 271.459021 361.172197 270.589021 
Q 361.607197 269.716521 362.412197 269.236521 
Q 363.217197 268.756521 364.084697 268.756521 
Q 365.014697 268.756521 365.842197 269.289021 
Q 366.669697 269.819021 367.162197 270.826521 
Q 367.654697 271.834021 367.654697 273.124021 
Q 367.654697 274.796521 366.852197 276.329021 
Q 366.052197 277.859021 364.467197 278.784021 
Q 362.882197 279.709021 360.717197 279.789021 
z
M 365.202197 274.646521 
Q 365.279697 273.771521 365.279697 273.109021 
Q 365.279697 271.686521 364.952197 270.459021 
Q 364.764697 269.779021 364.397197 269.459021 
Q 364.202197 269.286521 363.889697 269.286521 
Q 363.497197 269.286521 363.279697 269.624021 
Q 362.974697 270.084021 362.974697 271.381521 
Q 362.974697 273.546521 363.489697 274.366521 
Q 363.827197 274.896521 364.397197 274.896521 
Q 364.702197 274.896521 365.202197 274.646521 
z
M 370.224697 277.161521 
Q 370.772197 277.161521 371.149697 277.546521 
Q 371.529697 277.929021 371.529697 278.466521 
Q 371.529697 279.006521 371.147197 279.386521 
Q 370.764697 279.764021 370.224697 279.764021 
Q 369.684697 279.764021 369.304697 279.386521 
Q 368.927197 279.006521 368.927197 278.466521 
Q 368.927197 277.929021 369.304697 277.546521 
Q 369.684697 277.161521 370.224697 277.161521 
z
M 377.677197 273.584021 
Q 378.794697 274.404021 379.227197 275.111521 
Q 379.662197 275.819021 379.662197 276.734021 
Q 379.662197 278.014021 378.697197 278.901521 
Q 377.732197 279.789021 376.077197 279.789021 
Q 374.507197 279.789021 373.647197 279.016521 
Q 372.787197 278.241521 372.787197 277.124021 
Q 372.787197 276.271521 373.282197 275.631521 
Q 373.779697 274.991521 374.934697 274.459021 
Q 373.677197 273.499021 373.322197 272.889021 
Q 372.967197 272.279021 372.967197 271.474021 
Q 372.967197 270.411521 373.869697 269.604021 
Q 374.772197 268.796521 376.342197 268.796521 
Q 377.857197 268.796521 378.672197 269.511521 
Q 379.489697 270.224021 379.489697 271.224021 
Q 379.489697 271.974021 379.047197 272.549021 
Q 378.607197 273.124021 377.677197 273.584021 
z
M 377.084697 273.186521 
Q 377.372197 272.796521 377.512197 272.311521 
Q 377.654697 271.826521 377.654697 271.249021 
Q 377.654697 270.234021 377.217197 269.694021 
Q 376.889697 269.279021 376.309697 269.279021 
Q 375.787197 269.279021 375.419697 269.659021 
Q 375.052197 270.036521 375.052197 270.599021 
Q 375.052197 271.171521 375.462197 271.784021 
Q 375.872197 272.396521 377.084697 273.186521 
z
M 375.522197 274.834021 
Q 375.279697 275.054021 375.177197 275.234021 
Q 375.022197 275.506521 374.897197 276.031521 
Q 374.772197 276.554021 374.772197 277.124021 
Q 374.772197 277.859021 374.959697 278.354021 
Q 375.147197 278.849021 375.494697 279.069021 
Q 375.842197 279.286521 376.209697 279.286521 
Q 376.779697 279.286521 377.169697 278.869021 
Q 377.559697 278.451521 377.559697 277.724021 
Q 377.559697 276.209021 375.522197 274.834021 
z
" style="stroke: #ffffff; stroke-width: 3.8"/>
    <path d="M 360.717197 279.789021 
L 360.717197 279.569021 
Q 362.014697 279.271521 362.917197 278.694021 
Q 363.819697 278.116521 364.344697 277.264021 
Q 364.872197 276.411521 365.084697 275.304021 
Q 364.599697 275.554021 364.259697 275.651521 
Q 363.919697 275.749021 363.544697 275.749021 
Q 362.342197 275.749021 361.539697 274.881521 
Q 360.739697 274.014021 360.739697 272.506521 
Q 360.739697 271.459021 361.172197 270.589021 
Q 361.607197 269.716521 362.412197 269.236521 
Q 363.217197 268.756521 364.084697 268.756521 
Q 365.014697 268.756521 365.842197 269.289021 
Q 366.669697 269.819021 367.162197 270.826521 
Q 367.654697 271.834021 367.654697 273.124021 
Q 367.654697 274.796521 366.852197 276.329021 
Q 366.052197 277.859021 364.467197 278.784021 
Q 362.882197 279.709021 360.717197 279.789021 
z
M 365.202197 274.646521 
Q 365.279697 273.771521 365.279697 273.109021 
Q 365.279697 271.686521 364.952197 270.459021 
Q 364.764697 269.779021 364.397197 269.459021 
Q 364.202197 269.286521 363.889697 269.286521 
Q 363.497197 269.286521 363.279697 269.624021 
Q 362.974697 270.084021 362.974697 271.381521 
Q 362.974697 273.546521 363.489697 274.366521 
Q 363.827197 274.896521 364.397197 274.896521 
Q 364.702197 274.896521 365.202197 274.646521 
z
M 370.224697 277.161521 
Q 370.772197 277.161521 371.149697 277.546521 
Q 371.529697 277.929021 371.529697 278.466521 
Q 371.529697 279.006521 371.147197 279.386521 
Q 370.764697 279.764021 370.224697 279.764021 
Q 369.684697 279.764021 369.304697 279.386521 
Q 368.927197 279.006521 368.927197 278.466521 
Q 368.927197 277.929021 369.304697 277.546521 
Q 369.684697 277.161521 370.224697 277.161521 
z
M 377.677197 273.584021 
Q 378.794697 274.404021 379.227197 275.111521 
Q 379.662197 275.819021 379.662197 276.734021 
Q 379.662197 278.014021 378.697197 278.901521 
Q 377.732197 279.789021 376.077197 279.789021 
Q 374.507197 279.789021 373.647197 279.016521 
Q 372.787197 278.241521 372.787197 277.124021 
Q 372.787197 276.271521 373.282197 275.631521 
Q 373.779697 274.991521 374.934697 274.459021 
Q 373.677197 273.499021 373.322197 272.889021 
Q 372.967197 272.279021 372.967197 271.474021 
Q 372.967197 270.411521 373.869697 269.604021 
Q 374.772197 268.796521 376.342197 268.796521 
Q 377.857197 268.796521 378.672197 269.511521 
Q 379.489697 270.224021 379.489697 271.224021 
Q 379.489697 271.974021 379.047197 272.549021 
Q 378.607197 273.124021 377.677197 273.584021 
z
M 377.084697 273.186521 
Q 377.372197 272.796521 377.512197 272.311521 
Q 377.654697 271.826521 377.654697 271.249021 
Q 377.654697 270.234021 377.217197 269.694021 
Q 376.889697 269.279021 376.309697 269.279021 
Q 375.787197 269.279021 375.419697 269.659021 
Q 375.052197 270.036521 375.052197 270.599021 
Q 375.052197 271.171521 375.462197 271.784021 
Q 375.872197 272.396521 377.084697 273.186521 
z
M 375.522197 274.834021 
Q 375.279697 275.054021 375.177197 275.234021 
Q 375.022197 275.506521 374.897197 276.031521 
Q 374.772197 276.554021 374.772197 277.124021 
Q 374.772197 277.859021 374.959697 278.354021 
Q 375.147197 278.849021 375.494697 279.069021 
Q 375.842197 279.286521 376.209697 279.286521 
Q 376.779697 279.286521 377.169697 278.869021 
Q 377.559697 278.451521 377.559697 277.724021 
Q 377.559697 276.209021 375.522197 274.834021 
z
"/>
   </g>
   <g id="text_26">
    <path d="M 362.849697 196.074162 
L 356.614697 196.074162 
L 356.614697 195.901662 
Q 359.482197 192.489162 360.094697 191.309162 
Q 360.709697 190.129162 360.709697 189.004162 
Q 360.709697 188.184162 360.202197 187.641662 
Q 359.694697 187.096662 358.959697 187.096662 
Q 357.757197 187.096662 357.092197 188.301662 
L 356.802197 188.199162 
Q 357.224697 186.699162 358.084697 185.981662 
Q 358.944697 185.261662 360.069697 185.261662 
Q 360.872197 185.261662 361.537197 185.636662 
Q 362.202197 186.011662 362.577197 186.664162 
Q 362.952197 187.316662 362.952197 187.886662 
Q 362.952197 188.926662 362.372197 189.996662 
Q 361.584697 191.441662 358.927197 194.026662 
L 361.217197 194.026662 
Q 362.059697 194.026662 362.314697 193.956662 
Q 362.569697 193.886662 362.732197 193.719162 
Q 362.897197 193.551662 363.162197 193.011662 
L 363.444697 193.011662 
L 362.849697 196.074162 
z
M 364.622197 192.081662 
L 369.654697 185.261662 
L 370.607197 185.261662 
L 370.607197 192.081662 
L 371.577197 192.081662 
L 371.577197 193.699162 
L 370.607197 193.699162 
L 370.607197 196.074162 
L 368.459697 196.074162 
L 368.459697 193.699162 
L 364.622197 193.699162 
L 364.622197 192.081662 
z
M 365.382197 192.081662 
L 368.459697 192.081662 
L 368.459697 187.901662 
L 365.382197 192.081662 
z
M 374.224697 193.666662 
Q 374.772197 193.666662 375.149697 194.051662 
Q 375.529697 194.434162 375.529697 194.971662 
Q 375.529697 195.511662 375.147197 195.891662 
Q 374.764697 196.269162 374.224697 196.269162 
Q 373.684697 196.269162 373.304697 195.891662 
Q 372.927197 195.511662 372.927197 194.971662 
Q 372.927197 194.434162 373.304697 194.051662 
Q 373.684697 193.666662 374.224697 193.666662 
z
M 383.639697 190.776662 
Q 383.639697 192.364162 383.194697 193.739162 
Q 382.927197 194.581662 382.477197 195.121662 
Q 382.029697 195.659162 381.459697 195.976662 
Q 380.889697 196.294162 380.217197 196.294162 
Q 379.452197 196.294162 378.834697 195.904162 
Q 378.217197 195.511662 377.739697 194.784162 
Q 377.397197 194.254162 377.139697 193.371662 
Q 376.802197 192.176662 376.802197 190.901662 
Q 376.802197 189.176662 377.287197 187.729162 
Q 377.684697 186.534162 378.497197 185.899162 
Q 379.309697 185.261662 380.217197 185.261662 
Q 381.139697 185.261662 381.939697 185.891662 
Q 382.739697 186.519162 383.114697 187.581662 
Q 383.639697 189.041662 383.639697 190.776662 
z
M 381.232197 190.761662 
Q 381.232197 187.979162 381.202197 187.519162 
Q 381.122197 186.434162 380.827197 186.051662 
Q 380.632197 185.801662 380.194697 185.801662 
Q 379.857197 185.801662 379.662197 185.989162 
Q 379.372197 186.261662 379.269697 186.954162 
Q 379.169697 187.644162 379.169697 191.776662 
Q 379.169697 194.026662 379.327197 194.791662 
Q 379.444697 195.346662 379.662197 195.534162 
Q 379.882197 195.721662 380.239697 195.721662 
Q 380.632197 195.721662 380.827197 195.471662 
Q 381.154697 195.034162 381.202197 194.121662 
L 381.232197 190.761662 
z
" style="stroke: #ffffff; stroke-width: 3.8"/>
    <path d="M 362.849697 196.074162 
L 356.614697 196.074162 
L 356.614697 195.901662 
Q 359.482197 192.489162 360.094697 191.309162 
Q 360.709697 190.129162 360.709697 189.004162 
Q 360.709697 188.184162 360.202197 187.641662 
Q 359.694697 187.096662 358.959697 187.096662 
Q 357.757197 187.096662 357.092197 188.301662 
L 356.802197 188.199162 
Q 357.224697 186.699162 358.084697 185.981662 
Q 358.944697 185.261662 360.069697 185.261662 
Q 360.872197 185.261662 361.537197 185.636662 
Q 362.202197 186.011662 362.577197 186.664162 
Q 362.952197 187.316662 362.952197 187.886662 
Q 362.952197 188.926662 362.372197 189.996662 
Q 361.584697 191.441662 358.927197 194.026662 
L 361.217197 194.026662 
Q 362.059697 194.026662 362.314697 193.956662 
Q 362.569697 193.886662 362.732197 193.719162 
Q 362.897197 193.551662 363.162197 193.011662 
L 363.444697 193.011662 
L 362.849697 196.074162 
z
M 364.622197 192.081662 
L 369.654697 185.261662 
L 370.607197 185.261662 
L 370.607197 192.081662 
L 371.577197 192.081662 
L 371.577197 193.699162 
L 370.607197 193.699162 
L 370.607197 196.074162 
L 368.459697 196.074162 
L 368.459697 193.699162 
L 364.622197 193.699162 
L 364.622197 192.081662 
z
M 365.382197 192.081662 
L 368.459697 192.081662 
L 368.459697 187.901662 
L 365.382197 192.081662 
z
M 374.224697 193.666662 
Q 374.772197 193.666662 375.149697 194.051662 
Q 375.529697 194.434162 375.529697 194.971662 
Q 375.529697 195.511662 375.147197 195.891662 
Q 374.764697 196.269162 374.224697 196.269162 
Q 373.684697 196.269162 373.304697 195.891662 
Q 372.927197 195.511662 372.927197 194.971662 
Q 372.927197 194.434162 373.304697 194.051662 
Q 373.684697 193.666662 374.224697 193.666662 
z
M 383.639697 190.776662 
Q 383.639697 192.364162 383.194697 193.739162 
Q 382.927197 194.581662 382.477197 195.121662 
Q 382.029697 195.659162 381.459697 195.976662 
Q 380.889697 196.294162 380.217197 196.294162 
Q 379.452197 196.294162 378.834697 195.904162 
Q 378.217197 195.511662 377.739697 194.784162 
Q 377.397197 194.254162 377.139697 193.371662 
Q 376.802197 192.176662 376.802197 190.901662 
Q 376.802197 189.176662 377.287197 187.729162 
Q 377.684697 186.534162 378.497197 185.899162 
Q 379.309697 185.261662 380.217197 185.261662 
Q 381.139697 185.261662 381.939697 185.891662 
Q 382.739697 186.519162 383.114697 187.581662 
Q 383.639697 189.041662 383.639697 190.776662 
z
M 381.232197 190.761662 
Q 381.232197 187.979162 381.202197 187.519162 
Q 381.122197 186.434162 380.827197 186.051662 
Q 380.632197 185.801662 380.194697 185.801662 
Q 379.857197 185.801662 379.662197 185.989162 
Q 379.372197 186.261662 379.269697 186.954162 
Q 379.169697 187.644162 379.169697 191.776662 
Q 379.169697 194.026662 379.327197 194.791662 
Q 379.444697 195.346662 379.662197 195.534162 
Q 379.882197 195.721662 380.239697 195.721662 
Q 380.632197 195.721662 380.827197 195.471662 
Q 381.154697 195.034162 381.202197 194.121662 
L 381.232197 190.761662 
z
"/>
   </g>
   <g id="text_27">
    <path d="M 356.622197 115.029635 
L 361.654697 108.209635 
L 362.607197 108.209635 
L 362.607197 115.029635 
L 363.577197 115.029635 
L 363.577197 116.647135 
L 362.607197 116.647135 
L 362.607197 119.022135 
L 360.459697 119.022135 
L 360.459697 116.647135 
L 356.622197 116.647135 
L 356.622197 115.029635 
z
M 357.382197 115.029635 
L 360.459697 115.029635 
L 360.459697 110.849635 
L 357.382197 115.029635 
z
M 367.059697 119.242135 
L 369.944697 110.499635 
L 367.747197 110.499635 
Q 366.459697 110.499635 365.809697 110.834635 
Q 365.357197 111.069635 365.059697 111.717135 
L 364.764697 111.717135 
L 365.529697 108.427135 
L 371.842197 108.427135 
L 368.287197 119.242135 
L 367.059697 119.242135 
z
M 374.224697 116.614635 
Q 374.772197 116.614635 375.149697 116.999635 
Q 375.529697 117.382135 375.529697 117.919635 
Q 375.529697 118.459635 375.147197 118.839635 
Q 374.764697 119.217135 374.224697 119.217135 
Q 373.684697 119.217135 373.304697 118.839635 
Q 372.927197 118.459635 372.927197 117.919635 
Q 372.927197 117.382135 373.304697 116.999635 
Q 373.684697 116.614635 374.224697 116.614635 
z
M 376.717197 119.242135 
L 376.717197 119.022135 
Q 378.014697 118.724635 378.917197 118.147135 
Q 379.819697 117.569635 380.344697 116.717135 
Q 380.872197 115.864635 381.084697 114.757135 
Q 380.599697 115.007135 380.259697 115.104635 
Q 379.919697 115.202135 379.544697 115.202135 
Q 378.342197 115.202135 377.539697 114.334635 
Q 376.739697 113.467135 376.739697 111.959635 
Q 376.739697 110.912135 377.172197 110.042135 
Q 377.607197 109.169635 378.412197 108.689635 
Q 379.217197 108.209635 380.084697 108.209635 
Q 381.014697 108.209635 381.842197 108.742135 
Q 382.669697 109.272135 383.162197 110.279635 
Q 383.654697 111.287135 383.654697 112.577135 
Q 383.654697 114.249635 382.852197 115.782135 
Q 382.052197 117.312135 380.467197 118.237135 
Q 378.882197 119.162135 376.717197 119.242135 
z
M 381.202197 114.099635 
Q 381.279697 113.224635 381.279697 112.562135 
Q 381.279697 111.139635 380.952197 109.912135 
Q 380.764697 109.232135 380.397197 108.912135 
Q 380.202197 108.739635 379.889697 108.739635 
Q 379.497197 108.739635 379.279697 109.077135 
Q 378.974697 109.537135 378.974697 110.834635 
Q 378.974697 112.999635 379.489697 113.819635 
Q 379.827197 114.349635 380.397197 114.349635 
Q 380.702197 114.349635 381.202197 114.099635 
z
" style="stroke: #ffffff; stroke-width: 3.8"/>
    <path d="M 356.622197 115.029635 
L 361.654697 108.209635 
L 362.607197 108.209635 
L 362.607197 115.029635 
L 363.577197 115.029635 
L 363.577197 116.647135 
L 362.607197 116.647135 
L 362.607197 119.022135 
L 360.459697 119.022135 
L 360.459697 116.647135 
L 356.622197 116.647135 
L 356.622197 115.029635 
z
M 357.382197 115.029635 
L 360.459697 115.029635 
L 360.459697 110.849635 
L 357.382197 115.029635 
z
M 367.059697 119.242135 
L 369.944697 110.499635 
L 367.747197 110.499635 
Q 366.459697 110.499635 365.809697 110.834635 
Q 365.357197 111.069635 365.059697 111.717135 
L 364.764697 111.717135 
L 365.529697 108.427135 
L 371.842197 108.427135 
L 368.287197 119.242135 
L 367.059697 119.242135 
z
M 374.224697 116.614635 
Q 374.772197 116.614635 375.149697 116.999635 
Q 375.529697 117.382135 375.529697 117.919635 
Q 375.529697 118.459635 375.147197 118.839635 
Q 374.764697 119.217135 374.224697 119.217135 
Q 373.684697 119.217135 373.304697 118.839635 
Q 372.927197 118.459635 372.927197 117.919635 
Q 372.927197 117.382135 373.304697 116.999635 
Q 373.684697 116.614635 374.224697 116.614635 
z
M 376.717197 119.242135 
L 376.717197 119.022135 
Q 378.014697 118.724635 378.917197 118.147135 
Q 379.819697 117.569635 380.344697 116.717135 
Q 380.872197 115.864635 381.084697 114.757135 
Q 380.599697 115.007135 380.259697 115.104635 
Q 379.919697 115.202135 379.544697 115.202135 
Q 378.342197 115.202135 377.539697 114.334635 
Q 376.739697 113.467135 376.739697 111.959635 
Q 376.739697 110.912135 377.172197 110.042135 
Q 377.607197 109.169635 378.412197 108.689635 
Q 379.217197 108.209635 380.084697 108.209635 
Q 381.014697 108.209635 381.842197 108.742135 
Q 382.669697 109.272135 383.162197 110.279635 
Q 383.654697 111.287135 383.654697 112.577135 
Q 383.654697 114.249635 382.852197 115.782135 
Q 382.052197 117.312135 380.467197 118.237135 
Q 378.882197 119.162135 376.717197 119.242135 
z
M 381.202197 114.099635 
Q 381.279697 113.224635 381.279697 112.562135 
Q 381.279697 111.139635 380.952197 109.912135 
Q 380.764697 109.232135 380.397197 108.912135 
Q 380.202197 108.739635 379.889697 108.739635 
Q 379.497197 108.739635 379.279697 109.077135 
Q 378.974697 109.537135 378.974697 110.834635 
Q 378.974697 112.999635 379.489697 113.819635 
Q 379.827197 114.349635 380.397197 114.349635 
Q 380.702197 114.349635 381.202197 114.099635 
z
"/>
   </g>
   <g id="text_28">
    <path d="M 577.363672 214.517508 
L 577.363672 223.182508 
Q 577.363672 224.157508 577.448672 224.427508 
Q 577.536172 224.697508 577.808672 224.870008 
Q 578.083672 225.040008 578.686172 225.040008 
L 578.926172 225.040008 
L 578.926172 225.330008 
L 573.348672 225.330008 
L 573.348672 225.040008 
L 573.631172 225.040008 
Q 574.311172 225.040008 574.598672 224.885008 
Q 574.888672 224.727508 574.988672 224.455008 
Q 575.091172 224.182508 575.091172 223.182508 
L 575.091172 217.690008 
Q 575.091172 216.955008 575.021172 216.772508 
Q 574.951172 216.587508 574.758672 216.460008 
Q 574.568672 216.330008 574.318672 216.330008 
Q 573.918672 216.330008 573.348672 216.580008 
L 573.208672 216.297508 
L 577.106172 214.517508 
L 577.363672 214.517508 
z
M 587.668672 214.517508 
L 587.668672 214.735008 
Q 586.256172 215.095008 585.398672 215.662508 
Q 584.543672 216.227508 584.046172 217.037508 
Q 583.551172 217.845008 583.278672 219.040008 
Q 583.623672 218.807508 583.848672 218.735008 
Q 584.356172 218.580008 584.873672 218.580008 
Q 586.061172 218.580008 586.853672 219.445008 
Q 587.646172 220.307508 587.646172 221.797508 
Q 587.646172 222.845008 587.216172 223.720008 
Q 586.786172 224.595008 585.996172 225.072508 
Q 585.208672 225.550008 584.311172 225.550008 
Q 583.333672 225.550008 582.503672 225.015008 
Q 581.676172 224.477508 581.211172 223.447508 
Q 580.748672 222.415008 580.748672 221.205008 
Q 580.748672 219.422508 581.603672 217.887508 
Q 582.458672 216.352508 584.031172 215.442508 
Q 585.606172 214.532508 587.668672 214.517508 
z
M 583.176172 219.672508 
Q 583.113672 220.752508 583.113672 221.252508 
Q 583.113672 222.330008 583.321172 223.337508 
Q 583.528672 224.345008 583.888672 224.752508 
Q 584.146172 225.040008 584.498672 225.040008 
Q 584.856172 225.040008 585.136172 224.622508 
Q 585.418672 224.205008 585.418672 222.922508 
Q 585.418672 220.767508 584.896172 219.947508 
Q 584.561172 219.415008 583.988672 219.415008 
Q 583.676172 219.415008 583.176172 219.672508 
z
M 590.153672 222.922508 
Q 590.701172 222.922508 591.078672 223.307508 
Q 591.458672 223.690008 591.458672 224.227508 
Q 591.458672 224.767508 591.076172 225.147508 
Q 590.693672 225.525008 590.153672 225.525008 
Q 589.613672 225.525008 589.233672 225.147508 
Q 588.856172 224.767508 588.856172 224.227508 
Q 588.856172 223.690008 589.233672 223.307508 
Q 589.613672 222.922508 590.153672 222.922508 
z
M 594.591172 214.735008 
L 599.551172 214.735008 
L 598.763672 216.752508 
L 594.591172 216.752508 
L 594.193672 217.807508 
Q 596.888672 217.907508 598.341172 219.150008 
Q 599.536172 220.172508 599.536172 221.697508 
Q 599.536172 222.672508 598.981172 223.607508 
Q 598.426172 224.540008 597.418672 225.045008 
Q 596.411172 225.550008 595.208672 225.550008 
Q 593.911172 225.550008 593.216172 225.065008 
Q 592.731172 224.720008 592.731172 224.282508 
Q 592.731172 223.947508 592.983672 223.690008 
Q 593.238672 223.432508 593.576172 223.432508 
Q 593.881172 223.432508 594.193672 223.557508 
Q 594.506172 223.682508 595.263672 224.212508 
Q 595.738672 224.540008 596.083672 224.665008 
Q 596.326172 224.760008 596.631172 224.760008 
Q 597.271172 224.760008 597.718672 224.292508 
Q 598.168672 223.822508 598.168672 223.165008 
Q 598.168672 221.790008 596.793672 220.932508 
Q 595.418672 220.072508 593.326172 220.072508 
Q 593.113672 220.072508 592.693672 220.080008 
L 594.591172 214.735008 
z
" style="stroke: #ffffff; stroke-width: 3.8"/>
    <path d="M 577.363672 214.517508 
L 577.363672 223.182508 
Q 577.363672 224.157508 577.448672 224.427508 
Q 577.536172 224.697508 577.808672 224.870008 
Q 578.083672 225.040008 578.686172 225.040008 
L 578.926172 225.040008 
L 578.926172 225.330008 
L 573.348672 225.330008 
L 573.348672 225.040008 
L 573.631172 225.040008 
Q 574.311172 225.040008 574.598672 224.885008 
Q 574.888672 224.727508 574.988672 224.455008 
Q 575.091172 224.182508 575.091172 223.182508 
L 575.091172 217.690008 
Q 575.091172 216.955008 575.021172 216.772508 
Q 574.951172 216.587508 574.758672 216.460008 
Q 574.568672 216.330008 574.318672 216.330008 
Q 573.918672 216.330008 573.348672 216.580008 
L 573.208672 216.297508 
L 577.106172 214.517508 
L 577.363672 214.517508 
z
M 587.668672 214.517508 
L 587.668672 214.735008 
Q 586.256172 215.095008 585.398672 215.662508 
Q 584.543672 216.227508 584.046172 217.037508 
Q 583.551172 217.845008 583.278672 219.040008 
Q 583.623672 218.807508 583.848672 218.735008 
Q 584.356172 218.580008 584.873672 218.580008 
Q 586.061172 218.580008 586.853672 219.445008 
Q 587.646172 220.307508 587.646172 221.797508 
Q 587.646172 222.845008 587.216172 223.720008 
Q 586.786172 224.595008 585.996172 225.072508 
Q 585.208672 225.550008 584.311172 225.550008 
Q 583.333672 225.550008 582.503672 225.015008 
Q 581.676172 224.477508 581.211172 223.447508 
Q 580.748672 222.415008 580.748672 221.205008 
Q 580.748672 219.422508 581.603672 217.887508 
Q 582.458672 216.352508 584.031172 215.442508 
Q 585.606172 214.532508 587.668672 214.517508 
z
M 583.176172 219.672508 
Q 583.113672 220.752508 583.113672 221.252508 
Q 583.113672 222.330008 583.321172 223.337508 
Q 583.528672 224.345008 583.888672 224.752508 
Q 584.146172 225.040008 584.498672 225.040008 
Q 584.856172 225.040008 585.136172 224.622508 
Q 585.418672 224.205008 585.418672 222.922508 
Q 585.418672 220.767508 584.896172 219.947508 
Q 584.561172 219.415008 583.988672 219.415008 
Q 583.676172 219.415008 583.176172 219.672508 
z
M 590.153672 222.922508 
Q 590.701172 222.922508 591.078672 223.307508 
Q 591.458672 223.690008 591.458672 224.227508 
Q 591.458672 224.767508 591.076172 225.147508 
Q 590.693672 225.525008 590.153672 225.525008 
Q 589.613672 225.525008 589.233672 225.147508 
Q 588.856172 224.767508 588.856172 224.227508 
Q 588.856172 223.690008 589.233672 223.307508 
Q 589.613672 222.922508 590.153672 222.922508 
z
M 594.591172 214.735008 
L 599.551172 214.735008 
L 598.763672 216.752508 
L 594.591172 216.752508 
L 594.193672 217.807508 
Q 596.888672 217.907508 598.341172 219.150008 
Q 599.536172 220.172508 599.536172 221.697508 
Q 599.536172 222.672508 598.981172 223.607508 
Q 598.426172 224.540008 597.418672 225.045008 
Q 596.411172 225.550008 595.208672 225.550008 
Q 593.911172 225.550008 593.216172 225.065008 
Q 592.731172 224.720008 592.731172 224.282508 
Q 592.731172 223.947508 592.983672 223.690008 
Q 593.238672 223.432508 593.576172 223.432508 
Q 593.881172 223.432508 594.193672 223.557508 
Q 594.506172 223.682508 595.263672 224.212508 
Q 595.738672 224.540008 596.083672 224.665008 
Q 596.326172 224.760008 596.631172 224.760008 
Q 597.271172 224.760008 597.718672 224.292508 
Q 598.168672 223.822508 598.168672 223.165008 
Q 598.168672 221.790008 596.793672 220.932508 
Q 595.418672 220.072508 593.326172 220.072508 
Q 593.113672 220.072508 592.693672 220.080008 
L 594.591172 214.735008 
z
"/>
   </g>
   <g id="text_29">
    <path d="M 569.175625 374.606494 
Q 569.175625 376.094776 568.758437 377.383838 
Q 568.507656 378.173682 568.085781 378.679932 
Q 567.66625 379.183838 567.131875 379.481494 
Q 566.5975 379.779151 565.967031 379.779151 
Q 565.249843 379.779151 564.670937 379.413526 
Q 564.092031 379.045557 563.644375 378.363526 
Q 563.323281 377.866651 563.081875 377.039307 
Q 562.765468 375.918994 562.765468 374.723682 
Q 562.765468 373.106494 563.220156 371.749463 
Q 563.592812 370.629151 564.354531 370.033838 
Q 565.11625 369.436182 565.967031 369.436182 
Q 566.831875 369.436182 567.581875 370.026807 
Q 568.331875 370.615088 568.683437 371.611182 
Q 569.175625 372.979932 569.175625 374.606494 
z
M 566.918593 374.592432 
Q 566.918593 371.983838 566.890468 371.552588 
Q 566.815468 370.535401 566.538906 370.176807 
Q 566.356093 369.942432 565.945937 369.942432 
Q 565.629531 369.942432 565.446718 370.118213 
Q 565.174843 370.373682 565.07875 371.022901 
Q 564.985 371.669776 564.985 375.543994 
Q 564.985 377.653369 565.132656 378.370557 
Q 565.242812 378.890869 565.446718 379.066651 
Q 565.652968 379.242432 565.988125 379.242432 
Q 566.356093 379.242432 566.538906 379.008057 
Q 566.845937 378.597901 566.890468 377.742432 
L 566.918593 374.592432 
z
M 571.599062 377.315869 
Q 572.112343 377.315869 572.46625 377.676807 
Q 572.8225 378.035401 572.8225 378.539307 
Q 572.8225 379.045557 572.463906 379.401807 
Q 572.105312 379.755713 571.599062 379.755713 
Q 571.092812 379.755713 570.736562 379.401807 
Q 570.382656 379.045557 570.382656 378.539307 
Q 570.382656 378.035401 570.736562 377.676807 
Q 571.092812 377.315869 571.599062 377.315869 
z
M 575.693593 374.592432 
L 575.693593 374.336963 
Q 576.527968 374.093213 576.849062 373.884619 
Q 577.1725 373.676026 577.406875 373.249463 
Q 577.64125 372.820557 577.64125 372.379932 
Q 577.64125 371.772901 577.198281 371.336963 
Q 576.755312 370.901026 576.096718 370.901026 
Q 575.070156 370.901026 574.352968 371.983838 
L 574.081093 371.890088 
Q 574.608437 370.666651 575.433437 370.052588 
Q 576.258437 369.436182 577.268593 369.436182 
Q 578.299843 369.436182 578.970156 370.066651 
Q 579.640468 370.694776 579.640468 371.538526 
Q 579.640468 372.086963 579.32875 372.597901 
Q 579.019375 373.106494 578.351406 373.493213 
Q 579.209218 373.910401 579.659218 374.522119 
Q 580.109218 375.133838 580.109218 376.057276 
Q 580.109218 377.608838 578.984218 378.698682 
Q 577.861562 379.786182 575.9725 379.786182 
Q 574.711562 379.786182 574.132656 379.366651 
Q 573.715468 379.073682 573.715468 378.614307 
Q 573.715468 378.276807 573.956875 378.040088 
Q 574.198281 377.801026 574.514687 377.801026 
Q 574.756093 377.801026 574.969375 377.901807 
Q 575.086562 377.960401 575.799062 378.543994 
Q 576.513906 379.125244 577.137343 379.125244 
Q 577.67875 379.125244 578.065468 378.698682 
Q 578.454531 378.269776 578.454531 377.608838 
Q 578.454531 376.605713 577.751406 375.759619 
Q 577.048281 374.913526 575.693593 374.592432 
z
" style="fill: #404040; stroke: #ffffff; stroke-width: 3.8"/>
    <path d="M 569.175625 374.606494 
Q 569.175625 376.094776 568.758437 377.383838 
Q 568.507656 378.173682 568.085781 378.679932 
Q 567.66625 379.183838 567.131875 379.481494 
Q 566.5975 379.779151 565.967031 379.779151 
Q 565.249843 379.779151 564.670937 379.413526 
Q 564.092031 379.045557 563.644375 378.363526 
Q 563.323281 377.866651 563.081875 377.039307 
Q 562.765468 375.918994 562.765468 374.723682 
Q 562.765468 373.106494 563.220156 371.749463 
Q 563.592812 370.629151 564.354531 370.033838 
Q 565.11625 369.436182 565.967031 369.436182 
Q 566.831875 369.436182 567.581875 370.026807 
Q 568.331875 370.615088 568.683437 371.611182 
Q 569.175625 372.979932 569.175625 374.606494 
z
M 566.918593 374.592432 
Q 566.918593 371.983838 566.890468 371.552588 
Q 566.815468 370.535401 566.538906 370.176807 
Q 566.356093 369.942432 565.945937 369.942432 
Q 565.629531 369.942432 565.446718 370.118213 
Q 565.174843 370.373682 565.07875 371.022901 
Q 564.985 371.669776 564.985 375.543994 
Q 564.985 377.653369 565.132656 378.370557 
Q 565.242812 378.890869 565.446718 379.066651 
Q 565.652968 379.242432 565.988125 379.242432 
Q 566.356093 379.242432 566.538906 379.008057 
Q 566.845937 378.597901 566.890468 377.742432 
L 566.918593 374.592432 
z
M 571.599062 377.315869 
Q 572.112343 377.315869 572.46625 377.676807 
Q 572.8225 378.035401 572.8225 378.539307 
Q 572.8225 379.045557 572.463906 379.401807 
Q 572.105312 379.755713 571.599062 379.755713 
Q 571.092812 379.755713 570.736562 379.401807 
Q 570.382656 379.045557 570.382656 378.539307 
Q 570.382656 378.035401 570.736562 377.676807 
Q 571.092812 377.315869 571.599062 377.315869 
z
M 575.693593 374.592432 
L 575.693593 374.336963 
Q 576.527968 374.093213 576.849062 373.884619 
Q 577.1725 373.676026 577.406875 373.249463 
Q 577.64125 372.820557 577.64125 372.379932 
Q 577.64125 371.772901 577.198281 371.336963 
Q 576.755312 370.901026 576.096718 370.901026 
Q 575.070156 370.901026 574.352968 371.983838 
L 574.081093 371.890088 
Q 574.608437 370.666651 575.433437 370.052588 
Q 576.258437 369.436182 577.268593 369.436182 
Q 578.299843 369.436182 578.970156 370.066651 
Q 579.640468 370.694776 579.640468 371.538526 
Q 579.640468 372.086963 579.32875 372.597901 
Q 579.019375 373.106494 578.351406 373.493213 
Q 579.209218 373.910401 579.659218 374.522119 
Q 580.109218 375.133838 580.109218 376.057276 
Q 580.109218 377.608838 578.984218 378.698682 
Q 577.861562 379.786182 575.9725 379.786182 
Q 574.711562 379.786182 574.132656 379.366651 
Q 573.715468 379.073682 573.715468 378.614307 
Q 573.715468 378.276807 573.956875 378.040088 
Q 574.198281 377.801026 574.514687 377.801026 
Q 574.756093 377.801026 574.969375 377.901807 
Q 575.086562 377.960401 575.799062 378.543994 
Q 576.513906 379.125244 577.137343 379.125244 
Q 577.67875 379.125244 578.065468 378.698682 
Q 578.454531 378.269776 578.454531 377.608838 
Q 578.454531 376.605713 577.751406 375.759619 
Q 577.048281 374.913526 575.693593 374.592432 
z
" style="fill: #404040"/>
   </g>
   <g id="text_30">
    <path d="M 567.635205 313.343818 
L 567.635205 321.467255 
Q 567.635205 322.381318 567.714893 322.634443 
Q 567.796924 322.887568 568.052393 323.049287 
Q 568.310205 323.208662 568.875049 323.208662 
L 569.100049 323.208662 
L 569.100049 323.480537 
L 563.871143 323.480537 
L 563.871143 323.208662 
L 564.135986 323.208662 
Q 564.773486 323.208662 565.043018 323.063349 
Q 565.314893 322.915693 565.408643 322.660224 
Q 565.504736 322.404755 565.504736 321.467255 
L 565.504736 316.318037 
Q 565.504736 315.628974 565.439111 315.45788 
Q 565.373486 315.284443 565.193018 315.164912 
Q 565.014893 315.043037 564.780518 315.043037 
Q 564.405518 315.043037 563.871143 315.277412 
L 563.739893 315.012568 
L 567.393799 313.343818 
L 567.635205 313.343818 
z
M 572.470361 318.500068 
L 572.470361 318.244599 
Q 573.304736 318.000849 573.62583 317.792255 
Q 573.949268 317.583662 574.183643 317.157099 
Q 574.418018 316.728193 574.418018 316.287568 
Q 574.418018 315.680537 573.975049 315.244599 
Q 573.53208 314.808662 572.873486 314.808662 
Q 571.846924 314.808662 571.129736 315.891474 
L 570.857861 315.797724 
Q 571.385205 314.574287 572.210205 313.960224 
Q 573.035205 313.343818 574.045361 313.343818 
Q 575.076611 313.343818 575.746924 313.974287 
Q 576.417236 314.602412 576.417236 315.446162 
Q 576.417236 315.994599 576.105518 316.505537 
Q 575.796143 317.01413 575.128174 317.400849 
Q 575.985986 317.818037 576.435986 318.429755 
Q 576.885986 319.041474 576.885986 319.964912 
Q 576.885986 321.516474 575.760986 322.606318 
Q 574.63833 323.693818 572.749268 323.693818 
Q 571.48833 323.693818 570.909424 323.274287 
Q 570.492236 322.981318 570.492236 322.521943 
Q 570.492236 322.184443 570.733643 321.947724 
Q 570.975049 321.708662 571.291455 321.708662 
Q 571.532861 321.708662 571.746143 321.809443 
Q 571.86333 321.868037 572.57583 322.45163 
Q 573.290674 323.03288 573.914111 323.03288 
Q 574.455518 323.03288 574.842236 322.606318 
Q 575.231299 322.177412 575.231299 321.516474 
Q 575.231299 320.513349 574.528174 319.667255 
Q 573.825049 318.821162 572.470361 318.500068 
z
M 579.62583 321.223505 
Q 580.139111 321.223505 580.493018 321.584443 
Q 580.849268 321.943037 580.849268 322.446943 
Q 580.849268 322.953193 580.490674 323.309443 
Q 580.13208 323.663349 579.62583 323.663349 
Q 579.11958 323.663349 578.76333 323.309443 
Q 578.409424 322.953193 578.409424 322.446943 
Q 578.409424 321.943037 578.76333 321.584443 
Q 579.11958 321.223505 579.62583 321.223505 
z
M 584.158643 323.686787 
L 586.86333 315.490693 
L 584.803174 315.490693 
Q 583.596143 315.490693 582.986768 315.804755 
Q 582.562549 316.025068 582.283643 316.632099 
L 582.00708 316.632099 
L 582.724268 313.547724 
L 588.642236 313.547724 
L 585.309424 323.686787 
L 584.158643 323.686787 
z
" style="fill: #404040; stroke: #ffffff; stroke-width: 3.8"/>
    <path d="M 567.635205 313.343818 
L 567.635205 321.467255 
Q 567.635205 322.381318 567.714893 322.634443 
Q 567.796924 322.887568 568.052393 323.049287 
Q 568.310205 323.208662 568.875049 323.208662 
L 569.100049 323.208662 
L 569.100049 323.480537 
L 563.871143 323.480537 
L 563.871143 323.208662 
L 564.135986 323.208662 
Q 564.773486 323.208662 565.043018 323.063349 
Q 565.314893 322.915693 565.408643 322.660224 
Q 565.504736 322.404755 565.504736 321.467255 
L 565.504736 316.318037 
Q 565.504736 315.628974 565.439111 315.45788 
Q 565.373486 315.284443 565.193018 315.164912 
Q 565.014893 315.043037 564.780518 315.043037 
Q 564.405518 315.043037 563.871143 315.277412 
L 563.739893 315.012568 
L 567.393799 313.343818 
L 567.635205 313.343818 
z
M 572.470361 318.500068 
L 572.470361 318.244599 
Q 573.304736 318.000849 573.62583 317.792255 
Q 573.949268 317.583662 574.183643 317.157099 
Q 574.418018 316.728193 574.418018 316.287568 
Q 574.418018 315.680537 573.975049 315.244599 
Q 573.53208 314.808662 572.873486 314.808662 
Q 571.846924 314.808662 571.129736 315.891474 
L 570.857861 315.797724 
Q 571.385205 314.574287 572.210205 313.960224 
Q 573.035205 313.343818 574.045361 313.343818 
Q 575.076611 313.343818 575.746924 313.974287 
Q 576.417236 314.602412 576.417236 315.446162 
Q 576.417236 315.994599 576.105518 316.505537 
Q 575.796143 317.01413 575.128174 317.400849 
Q 575.985986 317.818037 576.435986 318.429755 
Q 576.885986 319.041474 576.885986 319.964912 
Q 576.885986 321.516474 575.760986 322.606318 
Q 574.63833 323.693818 572.749268 323.693818 
Q 571.48833 323.693818 570.909424 323.274287 
Q 570.492236 322.981318 570.492236 322.521943 
Q 570.492236 322.184443 570.733643 321.947724 
Q 570.975049 321.708662 571.291455 321.708662 
Q 571.532861 321.708662 571.746143 321.809443 
Q 571.86333 321.868037 572.57583 322.45163 
Q 573.290674 323.03288 573.914111 323.03288 
Q 574.455518 323.03288 574.842236 322.606318 
Q 575.231299 322.177412 575.231299 321.516474 
Q 575.231299 320.513349 574.528174 319.667255 
Q 573.825049 318.821162 572.470361 318.500068 
z
M 579.62583 321.223505 
Q 580.139111 321.223505 580.493018 321.584443 
Q 580.849268 321.943037 580.849268 322.446943 
Q 580.849268 322.953193 580.490674 323.309443 
Q 580.13208 323.663349 579.62583 323.663349 
Q 579.11958 323.663349 578.76333 323.309443 
Q 578.409424 322.953193 578.409424 322.446943 
Q 578.409424 321.943037 578.76333 321.584443 
Q 579.11958 321.223505 579.62583 321.223505 
z
M 584.158643 323.686787 
L 586.86333 315.490693 
L 584.803174 315.490693 
Q 583.596143 315.490693 582.986768 315.804755 
Q 582.562549 316.025068 582.283643 316.632099 
L 582.00708 316.632099 
L 582.724268 313.547724 
L 588.642236 313.547724 
L 585.309424 323.686787 
L 584.158643 323.686787 
z
" style="fill: #404040"/>
   </g>
   <g id="text_31">
    <path d="M 530.565787 292.653966 
L 530.565787 292.447716 
Q 531.782193 292.16881 532.628287 291.627404 
Q 533.474381 291.085997 533.966568 290.286779 
Q 534.4611 289.48756 534.660318 288.449279 
Q 534.205631 288.683654 533.886881 288.77506 
Q 533.568131 288.866466 533.216568 288.866466 
Q 532.089225 288.866466 531.336881 288.053185 
Q 530.586881 287.239904 530.586881 285.826622 
Q 530.586881 284.844591 530.99235 284.028966 
Q 531.400162 283.210997 532.15485 282.760997 
Q 532.909537 282.310997 533.722818 282.310997 
Q 534.594693 282.310997 535.370475 282.810216 
Q 536.146256 283.307091 536.607975 284.251622 
Q 537.069693 285.196154 537.069693 286.405529 
Q 537.069693 287.973497 536.31735 289.410216 
Q 535.56735 290.844591 534.081412 291.711779 
Q 532.595475 292.578966 530.565787 292.653966 
z
M 534.770475 287.832872 
Q 534.843131 287.01256 534.843131 286.391466 
Q 534.843131 285.057872 534.5361 283.907091 
Q 534.360318 283.269591 534.015787 282.969591 
Q 533.832975 282.807872 533.540006 282.807872 
Q 533.172037 282.807872 532.968131 283.124279 
Q 532.682193 283.555529 532.682193 284.771935 
Q 532.682193 286.801622 533.165006 287.570372 
Q 533.481412 288.067247 534.015787 288.067247 
Q 534.301725 288.067247 534.770475 287.832872 
z
M 539.479068 290.190685 
Q 539.99235 290.190685 540.346256 290.551622 
Q 540.702506 290.910216 540.702506 291.414122 
Q 540.702506 291.920372 540.343912 292.276622 
Q 539.985318 292.630529 539.479068 292.630529 
Q 538.972818 292.630529 538.616568 292.276622 
Q 538.262662 291.920372 538.262662 291.414122 
Q 538.262662 290.910216 538.616568 290.551622 
Q 538.972818 290.190685 539.479068 290.190685 
z
M 543.639225 282.514904 
L 548.289225 282.514904 
L 547.550943 284.40631 
L 543.639225 284.40631 
L 543.266568 285.395372 
Q 545.793131 285.489122 547.15485 286.653966 
Q 548.275162 287.61256 548.275162 289.042247 
Q 548.275162 289.95631 547.75485 290.832872 
Q 547.234537 291.707091 546.290006 292.180529 
Q 545.345475 292.653966 544.218131 292.653966 
Q 543.001725 292.653966 542.350162 292.199279 
Q 541.895475 291.875841 541.895475 291.465685 
Q 541.895475 291.151622 542.132193 290.910216 
Q 542.371256 290.66881 542.687662 290.66881 
Q 542.9736 290.66881 543.266568 290.785997 
Q 543.559537 290.903185 544.269693 291.40006 
Q 544.715006 291.707091 545.038443 291.824279 
Q 545.265787 291.913341 545.551725 291.913341 
Q 546.151725 291.913341 546.571256 291.47506 
Q 546.993131 291.034435 546.993131 290.418029 
Q 546.993131 289.128966 545.704068 288.32506 
Q 544.415006 287.51881 542.453287 287.51881 
Q 542.254068 287.51881 541.860318 287.525841 
L 543.639225 282.514904 
z
" style="fill: #404040; stroke: #ffffff; stroke-width: 3.8"/>
    <path d="M 530.565787 292.653966 
L 530.565787 292.447716 
Q 531.782193 292.16881 532.628287 291.627404 
Q 533.474381 291.085997 533.966568 290.286779 
Q 534.4611 289.48756 534.660318 288.449279 
Q 534.205631 288.683654 533.886881 288.77506 
Q 533.568131 288.866466 533.216568 288.866466 
Q 532.089225 288.866466 531.336881 288.053185 
Q 530.586881 287.239904 530.586881 285.826622 
Q 530.586881 284.844591 530.99235 284.028966 
Q 531.400162 283.210997 532.15485 282.760997 
Q 532.909537 282.310997 533.722818 282.310997 
Q 534.594693 282.310997 535.370475 282.810216 
Q 536.146256 283.307091 536.607975 284.251622 
Q 537.069693 285.196154 537.069693 286.405529 
Q 537.069693 287.973497 536.31735 289.410216 
Q 535.56735 290.844591 534.081412 291.711779 
Q 532.595475 292.578966 530.565787 292.653966 
z
M 534.770475 287.832872 
Q 534.843131 287.01256 534.843131 286.391466 
Q 534.843131 285.057872 534.5361 283.907091 
Q 534.360318 283.269591 534.015787 282.969591 
Q 533.832975 282.807872 533.540006 282.807872 
Q 533.172037 282.807872 532.968131 283.124279 
Q 532.682193 283.555529 532.682193 284.771935 
Q 532.682193 286.801622 533.165006 287.570372 
Q 533.481412 288.067247 534.015787 288.067247 
Q 534.301725 288.067247 534.770475 287.832872 
z
M 539.479068 290.190685 
Q 539.99235 290.190685 540.346256 290.551622 
Q 540.702506 290.910216 540.702506 291.414122 
Q 540.702506 291.920372 540.343912 292.276622 
Q 539.985318 292.630529 539.479068 292.630529 
Q 538.972818 292.630529 538.616568 292.276622 
Q 538.262662 291.920372 538.262662 291.414122 
Q 538.262662 290.910216 538.616568 290.551622 
Q 538.972818 290.190685 539.479068 290.190685 
z
M 543.639225 282.514904 
L 548.289225 282.514904 
L 547.550943 284.40631 
L 543.639225 284.40631 
L 543.266568 285.395372 
Q 545.793131 285.489122 547.15485 286.653966 
Q 548.275162 287.61256 548.275162 289.042247 
Q 548.275162 289.95631 547.75485 290.832872 
Q 547.234537 291.707091 546.290006 292.180529 
Q 545.345475 292.653966 544.218131 292.653966 
Q 543.001725 292.653966 542.350162 292.199279 
Q 541.895475 291.875841 541.895475 291.465685 
Q 541.895475 291.151622 542.132193 290.910216 
Q 542.371256 290.66881 542.687662 290.66881 
Q 542.9736 290.66881 543.266568 290.785997 
Q 543.559537 290.903185 544.269693 291.40006 
Q 544.715006 291.707091 545.038443 291.824279 
Q 545.265787 291.913341 545.551725 291.913341 
Q 546.151725 291.913341 546.571256 291.47506 
Q 546.993131 291.034435 546.993131 290.418029 
Q 546.993131 289.128966 545.704068 288.32506 
Q 544.415006 287.51881 542.453287 287.51881 
Q 542.254068 287.51881 541.860318 287.525841 
L 543.639225 282.514904 
z
" style="fill: #404040"/>
   </g>
   <g id="text_32">
    <path d="M 321.790961 344.200421 
L 321.790961 343.944952 
Q 322.625336 343.701202 322.946429 343.492608 
Q 323.269867 343.284014 323.504242 342.857452 
Q 323.738617 342.428546 323.738617 341.987921 
Q 323.738617 341.380889 323.295648 340.944952 
Q 322.852679 340.509014 322.194086 340.509014 
Q 321.167523 340.509014 320.450336 341.591827 
L 320.178461 341.498077 
Q 320.705804 340.274639 321.530804 339.660577 
Q 322.355804 339.044171 323.365961 339.044171 
Q 324.397211 339.044171 325.067523 339.674639 
Q 325.737836 340.302764 325.737836 341.146514 
Q 325.737836 341.694952 325.426117 342.205889 
Q 325.116742 342.714483 324.448773 343.101202 
Q 325.306586 343.518389 325.756586 344.130108 
Q 326.206586 344.741827 326.206586 345.665264 
Q 326.206586 347.216827 325.081586 348.306671 
Q 323.958929 349.394171 322.069867 349.394171 
Q 320.808929 349.394171 320.230023 348.974639 
Q 319.812836 348.681671 319.812836 348.222296 
Q 319.812836 347.884796 320.054242 347.648077 
Q 320.295648 347.409014 320.612054 347.409014 
Q 320.853461 347.409014 321.066742 347.509796 
Q 321.183929 347.568389 321.896429 348.151983 
Q 322.611273 348.733233 323.234711 348.733233 
Q 323.776117 348.733233 324.162836 348.306671 
Q 324.551898 347.877764 324.551898 347.216827 
Q 324.551898 346.213702 323.848773 345.367608 
Q 323.145648 344.521514 321.790961 344.200421 
z
M 331.955804 339.044171 
L 331.955804 347.167608 
Q 331.955804 348.081671 332.035492 348.334796 
Q 332.117523 348.587921 332.372992 348.749639 
Q 332.630804 348.909014 333.195648 348.909014 
L 333.420648 348.909014 
L 333.420648 349.180889 
L 328.191742 349.180889 
L 328.191742 348.909014 
L 328.456586 348.909014 
Q 329.094086 348.909014 329.363617 348.763702 
Q 329.635492 348.616046 329.729242 348.360577 
Q 329.825336 348.105108 329.825336 347.167608 
L 329.825336 342.018389 
Q 329.825336 341.329327 329.759711 341.158233 
Q 329.694086 340.984796 329.513617 340.865264 
Q 329.335492 340.743389 329.101117 340.743389 
Q 328.726117 340.743389 328.191742 340.977764 
L 328.060492 340.712921 
L 331.714398 339.044171 
L 331.955804 339.044171 
z
M 336.446429 346.923858 
Q 336.959711 346.923858 337.313617 347.284796 
Q 337.669867 347.643389 337.669867 348.147296 
Q 337.669867 348.653546 337.311273 349.009796 
Q 336.952679 349.363702 336.446429 349.363702 
Q 335.940179 349.363702 335.583929 349.009796 
Q 335.230023 348.653546 335.230023 348.147296 
Q 335.230023 347.643389 335.583929 347.284796 
Q 335.940179 346.923858 336.446429 346.923858 
z
M 343.433148 343.569952 
Q 344.480804 344.338702 344.886273 345.001983 
Q 345.294086 345.665264 345.294086 346.523077 
Q 345.294086 347.723077 344.389398 348.555108 
Q 343.484711 349.387139 341.933148 349.387139 
Q 340.461273 349.387139 339.655023 348.662921 
Q 338.848773 347.936358 338.848773 346.888702 
Q 338.848773 346.089483 339.312836 345.489483 
Q 339.779242 344.889483 340.862054 344.390264 
Q 339.683148 343.490264 339.350336 342.918389 
Q 339.017523 342.346514 339.017523 341.591827 
Q 339.017523 340.595733 339.863617 339.838702 
Q 340.709711 339.081671 342.181586 339.081671 
Q 343.601898 339.081671 344.365961 339.751983 
Q 345.132367 340.419952 345.132367 341.357452 
Q 345.132367 342.060577 344.717523 342.599639 
Q 344.305023 343.138702 343.433148 343.569952 
z
M 342.877679 343.197296 
Q 343.147211 342.831671 343.278461 342.376983 
Q 343.412054 341.922296 343.412054 341.380889 
Q 343.412054 340.429327 343.001898 339.923077 
Q 342.694867 339.534014 342.151117 339.534014 
Q 341.661273 339.534014 341.316742 339.890264 
Q 340.972211 340.244171 340.972211 340.771514 
Q 340.972211 341.308233 341.356586 341.882452 
Q 341.740961 342.456671 342.877679 343.197296 
z
M 341.412836 344.741827 
Q 341.185492 344.948077 341.089398 345.116827 
Q 340.944086 345.372296 340.826898 345.864483 
Q 340.709711 346.354327 340.709711 346.888702 
Q 340.709711 347.577764 340.885492 348.041827 
Q 341.061273 348.505889 341.387054 348.712139 
Q 341.712836 348.916046 342.057367 348.916046 
Q 342.591742 348.916046 342.957367 348.524639 
Q 343.322992 348.133233 343.322992 347.451202 
Q 343.322992 346.030889 341.412836 344.741827 
z
" style="fill: #404040; stroke: #ffffff; stroke-width: 3.8"/>
    <path d="M 321.790961 344.200421 
L 321.790961 343.944952 
Q 322.625336 343.701202 322.946429 343.492608 
Q 323.269867 343.284014 323.504242 342.857452 
Q 323.738617 342.428546 323.738617 341.987921 
Q 323.738617 341.380889 323.295648 340.944952 
Q 322.852679 340.509014 322.194086 340.509014 
Q 321.167523 340.509014 320.450336 341.591827 
L 320.178461 341.498077 
Q 320.705804 340.274639 321.530804 339.660577 
Q 322.355804 339.044171 323.365961 339.044171 
Q 324.397211 339.044171 325.067523 339.674639 
Q 325.737836 340.302764 325.737836 341.146514 
Q 325.737836 341.694952 325.426117 342.205889 
Q 325.116742 342.714483 324.448773 343.101202 
Q 325.306586 343.518389 325.756586 344.130108 
Q 326.206586 344.741827 326.206586 345.665264 
Q 326.206586 347.216827 325.081586 348.306671 
Q 323.958929 349.394171 322.069867 349.394171 
Q 320.808929 349.394171 320.230023 348.974639 
Q 319.812836 348.681671 319.812836 348.222296 
Q 319.812836 347.884796 320.054242 347.648077 
Q 320.295648 347.409014 320.612054 347.409014 
Q 320.853461 347.409014 321.066742 347.509796 
Q 321.183929 347.568389 321.896429 348.151983 
Q 322.611273 348.733233 323.234711 348.733233 
Q 323.776117 348.733233 324.162836 348.306671 
Q 324.551898 347.877764 324.551898 347.216827 
Q 324.551898 346.213702 323.848773 345.367608 
Q 323.145648 344.521514 321.790961 344.200421 
z
M 331.955804 339.044171 
L 331.955804 347.167608 
Q 331.955804 348.081671 332.035492 348.334796 
Q 332.117523 348.587921 332.372992 348.749639 
Q 332.630804 348.909014 333.195648 348.909014 
L 333.420648 348.909014 
L 333.420648 349.180889 
L 328.191742 349.180889 
L 328.191742 348.909014 
L 328.456586 348.909014 
Q 329.094086 348.909014 329.363617 348.763702 
Q 329.635492 348.616046 329.729242 348.360577 
Q 329.825336 348.105108 329.825336 347.167608 
L 329.825336 342.018389 
Q 329.825336 341.329327 329.759711 341.158233 
Q 329.694086 340.984796 329.513617 340.865264 
Q 329.335492 340.743389 329.101117 340.743389 
Q 328.726117 340.743389 328.191742 340.977764 
L 328.060492 340.712921 
L 331.714398 339.044171 
L 331.955804 339.044171 
z
M 336.446429 346.923858 
Q 336.959711 346.923858 337.313617 347.284796 
Q 337.669867 347.643389 337.669867 348.147296 
Q 337.669867 348.653546 337.311273 349.009796 
Q 336.952679 349.363702 336.446429 349.363702 
Q 335.940179 349.363702 335.583929 349.009796 
Q 335.230023 348.653546 335.230023 348.147296 
Q 335.230023 347.643389 335.583929 347.284796 
Q 335.940179 346.923858 336.446429 346.923858 
z
M 343.433148 343.569952 
Q 344.480804 344.338702 344.886273 345.001983 
Q 345.294086 345.665264 345.294086 346.523077 
Q 345.294086 347.723077 344.389398 348.555108 
Q 343.484711 349.387139 341.933148 349.387139 
Q 340.461273 349.387139 339.655023 348.662921 
Q 338.848773 347.936358 338.848773 346.888702 
Q 338.848773 346.089483 339.312836 345.489483 
Q 339.779242 344.889483 340.862054 344.390264 
Q 339.683148 343.490264 339.350336 342.918389 
Q 339.017523 342.346514 339.017523 341.591827 
Q 339.017523 340.595733 339.863617 339.838702 
Q 340.709711 339.081671 342.181586 339.081671 
Q 343.601898 339.081671 344.365961 339.751983 
Q 345.132367 340.419952 345.132367 341.357452 
Q 345.132367 342.060577 344.717523 342.599639 
Q 344.305023 343.138702 343.433148 343.569952 
z
M 342.877679 343.197296 
Q 343.147211 342.831671 343.278461 342.376983 
Q 343.412054 341.922296 343.412054 341.380889 
Q 343.412054 340.429327 343.001898 339.923077 
Q 342.694867 339.534014 342.151117 339.534014 
Q 341.661273 339.534014 341.316742 339.890264 
Q 340.972211 340.244171 340.972211 340.771514 
Q 340.972211 341.308233 341.356586 341.882452 
Q 341.740961 342.456671 342.877679 343.197296 
z
M 341.412836 344.741827 
Q 341.185492 344.948077 341.089398 345.116827 
Q 340.944086 345.372296 340.826898 345.864483 
Q 340.709711 346.354327 340.709711 346.888702 
Q 340.709711 347.577764 340.885492 348.041827 
Q 341.061273 348.505889 341.387054 348.712139 
Q 341.712836 348.916046 342.057367 348.916046 
Q 342.591742 348.916046 342.957367 348.524639 
Q 343.322992 348.133233 343.322992 347.451202 
Q 343.322992 346.030889 341.412836 344.741827 
z
" style="fill: #404040"/>
   </g>
  </g>
 </g>
 <defs>
  <clipPath id="p628a57c80f">
   <rect x="7.2" y="51.034687" width="730.764" height="431.819207"/>
  </clipPath>
 </defs>
</svg>
