<?xml version="1.0" encoding="utf-8" standalone="no"?>
<!DOCTYPE svg PUBLIC "-//W3C//DTD SVG 1.1//EN"
  "http://www.w3.org/Graphics/SVG/1.1/DTD/svg11.dtd">
<svg xmlns:xlink="http://www.w3.org/1999/xlink" width="745.164pt" height="496.300083pt" viewBox="0 0 745.164 496.300083" xmlns="http://www.w3.org/2000/svg" version="1.1">
 <metadata>
  <rdf:RDF xmlns:dc="http://purl.org/dc/elements/1.1/" xmlns:cc="http://creativecommons.org/ns#" xmlns:rdf="http://www.w3.org/1999/02/22-rdf-syntax-ns#">
   <cc:Work>
    <dc:type rdf:resource="http://purl.org/dc/dcmitype/StillImage"/>
    <dc:date>2026-07-13T16:58:14.821699</dc:date>
    <dc:format>image/svg+xml</dc:format>
    <dc:creator>
     <cc:Agent>
      <dc:title>Matplotlib v3.10.8, https://matplotlib.org/</dc:title>
     </cc:Agent>
    </dc:creator>
   </cc:Work>
  </rdf:RDF>
 </metadata>
 <defs>
  <style type="text/css">*{stroke-linejoin: round; stroke-linecap: butt}</style>
 </defs>
 <g id="figure_1">
  <g id="patch_1">
   <path d="M 0 496.300083 
L 745.164 496.300083 
L 745.164 0 
L 0 0 
L 0 496.300083 
z
" style="fill: none"/>
  </g>
  <g id="axes_1">
   <g id="patch_2">
    <path d="M 120.350555 424.336402 
Q 120.350555 451.680703 120.350555 476.570322 
" clip-path="url(#pb4dec8f898)" style="fill: none; stroke: #111111; stroke-width: 2.195535; stroke-linejoin: miter; stroke-linecap: round"/>
    <path d="M 123.997126 469.27718 
L 120.350555 476.570322 
L 116.703984 469.27718 
z
" clip-path="url(#pb4dec8f898)" style="fill: #111111; stroke: #111111; stroke-width: 2.195535; stroke-linejoin: miter; stroke-linecap: round"/>
   </g>
   <g id="patch_3">
    <path d="M 120.350555 310.338185 
Q 120.350555 337.676809 120.350555 361.216182 
" clip-path="url(#pb4dec8f898)" style="fill: none; stroke: #111111; stroke-width: 3.398154; stroke-linejoin: miter; stroke-linecap: round"/>
    <path d="M 124.381964 353.153364 
L 120.350555 361.216182 
L 116.319146 353.153364 
z
" clip-path="url(#pb4dec8f898)" style="fill: #111111; stroke: #111111; stroke-width: 3.398154; stroke-linejoin: miter; stroke-linecap: round"/>
   </g>
   <g id="patch_4">
    <path d="M 120.350555 200.237198 
Q 120.350555 225.632884 120.350555 245.909684 
" clip-path="url(#pb4dec8f898)" style="fill: none; stroke: #111111; stroke-width: 4.578471; stroke-linejoin: miter; stroke-linecap: round"/>
    <path d="M 124.759666 237.091463 
L 120.350555 245.909684 
L 115.941444 237.091463 
z
" clip-path="url(#pb4dec8f898)" style="fill: #111111; stroke: #111111; stroke-width: 4.578471; stroke-linejoin: miter; stroke-linecap: round"/>
   </g>
   <g id="patch_5">
    <path d="M 370.224697 247.837903 
Q 370.224697 264.702572 370.224697 278.45203 
" clip-path="url(#pb4dec8f898)" style="fill: none; stroke: #111111; stroke-width: 2.786329; stroke-linejoin: miter; stroke-linecap: round"/>
    <path d="M 374.060322 270.780779 
L 370.224697 278.45203 
L 366.389071 270.780779 
z
" clip-path="url(#pb4dec8f898)" style="fill: #111111; stroke: #111111; stroke-width: 2.786329; stroke-linejoin: miter; stroke-linecap: round"/>
   </g>
   <g id="patch_6">
    <path d="M 370.224697 175.864911 
Q 370.224697 192.670555 370.224697 204.501488 
" clip-path="url(#pb4dec8f898)" style="fill: none; stroke: #111111; stroke-width: 4.449517; stroke-linejoin: miter; stroke-linecap: round"/>
    <path d="M 374.592542 195.765797 
L 370.224697 204.501488 
L 365.856851 195.765797 
z
" clip-path="url(#pb4dec8f898)" style="fill: #111111; stroke: #111111; stroke-width: 4.449517; stroke-linejoin: miter; stroke-linecap: round"/>
   </g>
   <g id="patch_7">
    <path d="M 370.224697 101.192711 
Q 370.224697 119.406984 370.224697 131.13666 
" clip-path="url(#pb4dec8f898)" style="fill: none; stroke: #111111; stroke-width: 5.8; stroke-linejoin: miter; stroke-linecap: round"/>
    <path d="M 375.024697 121.53666 
L 370.224697 131.13666 
L 365.424697 121.53666 
z
" clip-path="url(#pb4dec8f898)" style="fill: #111111; stroke: #111111; stroke-width: 5.8; stroke-linejoin: miter; stroke-linecap: round"/>
   </g>
   <g id="patch_8">
    <path d="M 586.153672 213.18325 
Q 586.153672 239.667845 586.153672 262.775809 
" clip-path="url(#pb4dec8f898)" style="fill: none; stroke: #111111; stroke-width: 3.02015; stroke-linejoin: miter; stroke-linecap: round"/>
    <path d="M 590.06412 254.954913 
L 586.153672 262.775809 
L 582.243224 254.954913 
z
" clip-path="url(#pb4dec8f898)" style="fill: #111111; stroke: #111111; stroke-width: 3.02015; stroke-linejoin: miter; stroke-linecap: round"/>
   </g>
   <g id="line2d_1">
    <path d="M 165.610777 479.025005 
L 550.322663 479.025005 
" clip-path="url(#pb4dec8f898)" style="fill: none; stroke-dasharray: 5.6,4.2; stroke-dashoffset: 0; stroke: #404040; stroke-width: 1.4"/>
   </g>
   <g id="line2d_2">
    <path d="M 165.610777 365.015434 
L 550.322663 365.015434 
" clip-path="url(#pb4dec8f898)" style="fill: none; stroke-dasharray: 5.6,4.2; stroke-dashoffset: 0; stroke: #404040; stroke-width: 1.4"/>
   </g>
   <g id="line2d_3">
    <path d="M 415.484919 281.567241 
L 560.694797 281.567241 
" clip-path="url(#pb4dec8f898)" style="fill: none; stroke-dasharray: 5.6,4.2; stroke-dashoffset: 0; stroke: #404040; stroke-width: 1.4"/>
   </g>
   <g id="patch_9">
    <path d="M 665.359061 266.15244 
Q 572.138465 370.352352 479.520845 473.87827 
" clip-path="url(#pb4dec8f898)" style="fill: none; stroke: #404040; stroke-width: 0.808875; stroke-linejoin: miter; stroke-linecap: round"/>
    <path d="M 485.347588 471.569169 
L 479.520845 473.87827 
L 481.16961 467.831415 
z
" clip-path="url(#pb4dec8f898)" style="fill: #404040; stroke: #404040; stroke-width: 0.808875; stroke-linejoin: miter; stroke-linecap: round"/>
   </g>
   <g id="patch_10">
    <path d="M 620.098839 266.15244 
Q 577.877256 313.346787 537.830471 358.110194 
" clip-path="url(#pb4dec8f898)" style="fill: none; stroke: #404040; stroke-width: 2.917426; stroke-linejoin: miter; stroke-linecap: round"/>
    <path d="M 545.118287 355.222079 
L 537.830471 358.110194 
L 539.892668 350.547073 
z
" clip-path="url(#pb4dec8f898)" style="fill: #404040; stroke: #404040; stroke-width: 2.917426; stroke-linejoin: miter; stroke-linecap: round"/>
   </g>
   <g id="patch_11">
    <path d="M 574.838617 266.15244 
Q 542.412029 273.220536 511.14347 280.036215 
" clip-path="url(#pb4dec8f898)" style="fill: none; stroke: #404040; stroke-width: 1.060093; stroke-linejoin: miter; stroke-linecap: round"/>
    <path d="M 517.399199 281.627117 
L 511.14347 280.036215 
L 516.169629 275.986173 
z
" clip-path="url(#pb4dec8f898)" style="fill: #404040; stroke: #404040; stroke-width: 1.060093; stroke-linejoin: miter; stroke-linecap: round"/>
   </g>
   <g id="patch_12">
    <path d="M 370.224697 281.567241 
Q 334.7018 321.061757 301.158866 358.354942 
" clip-path="url(#pb4dec8f898)" style="fill: none; stroke: #404040; stroke-width: 2.648186; stroke-linejoin: miter; stroke-linecap: round"/>
    <path d="M 308.267588 355.559684 
L 301.158866 358.354942 
L 303.187893 350.990809 
z
" clip-path="url(#pb4dec8f898)" style="fill: #404040; stroke: #404040; stroke-width: 2.648186; stroke-linejoin: miter; stroke-linecap: round"/>
   </g>
   <g id="line2d_4">
    <path d="M 120.350555 365.015434 
L 120.350555 419.704036 
" clip-path="url(#pb4dec8f898)" style="fill: none; stroke: #111111; stroke-width: 2.195535"/>
   </g>
   <g id="line2d_5">
    <path d="M 120.350555 251.028571 
L 120.350555 305.705819 
" clip-path="url(#pb4dec8f898)" style="fill: none; stroke: #111111; stroke-width: 3.398154"/>
   </g>
   <g id="line2d_6">
    <path d="M 120.350555 144.813459 
L 120.350555 195.604832 
" clip-path="url(#pb4dec8f898)" style="fill: none; stroke: #111111; stroke-width: 4.578471"/>
   </g>
   <g id="line2d_7">
    <path d="M 370.224697 209.476199 
L 370.224697 243.205537 
" clip-path="url(#pb4dec8f898)" style="fill: none; stroke: #111111; stroke-width: 2.786329"/>
   </g>
   <g id="line2d_8">
    <path d="M 370.224697 137.621258 
L 370.224697 171.232546 
" clip-path="url(#pb4dec8f898)" style="fill: none; stroke: #111111; stroke-width: 4.449517"/>
   </g>
   <g id="line2d_9">
    <path d="M 370.224697 60.131798 
L 370.224697 96.560345 
" clip-path="url(#pb4dec8f898)" style="fill: none; stroke: #111111; stroke-width: 5.8"/>
   </g>
   <g id="line2d_10">
    <path d="M 586.153672 155.581695 
L 586.153672 208.550884 
" clip-path="url(#pb4dec8f898)" style="fill: none; stroke: #111111; stroke-width: 3.02015"/>
   </g>
   <g id="line2d_11">
    <path d="M 75.090333 479.025005 
L 165.610777 479.025005 
" clip-path="url(#pb4dec8f898)" style="fill: none; stroke: #111111; stroke-width: 3.6; stroke-linecap: round"/>
   </g>
   <g id="line2d_12">
    <path d="M 75.090333 365.015434 
L 165.610777 365.015434 
" clip-path="url(#pb4dec8f898)" style="fill: none; stroke: #111111; stroke-width: 3.6; stroke-linecap: round"/>
   </g>
   <g id="line2d_13">
    <path d="M 75.090333 251.028571 
L 165.610777 251.028571 
" clip-path="url(#pb4dec8f898)" style="fill: none; stroke: #111111; stroke-width: 3.6; stroke-linecap: round"/>
   </g>
   <g id="line2d_14">
    <path d="M 75.090333 144.813459 
L 165.610777 144.813459 
" clip-path="url(#pb4dec8f898)" style="fill: none; stroke: #111111; stroke-width: 3.6; stroke-linecap: round"/>
   </g>
   <g id="line2d_15">
    <path d="M 324.964475 281.567241 
L 415.484919 281.567241 
" clip-path="url(#pb4dec8f898)" style="fill: none; stroke: #111111; stroke-width: 3.6; stroke-linecap: round"/>
   </g>
   <g id="line2d_16">
    <path d="M 324.964475 209.476199 
L 415.484919 209.476199 
" clip-path="url(#pb4dec8f898)" style="fill: none; stroke: #111111; stroke-width: 3.6; stroke-linecap: round"/>
   </g>
   <g id="line2d_17">
    <path d="M 324.964475 137.621258 
L 415.484919 137.621258 
" clip-path="url(#pb4dec8f898)" style="fill: none; stroke: #111111; stroke-width: 3.6; stroke-linecap: round"/>
   </g>
   <g id="line2d_18">
    <path d="M 324.964475 60.131798 
L 415.484919 60.131798 
" clip-path="url(#pb4dec8f898)" style="fill: none; stroke: #111111; stroke-width: 3.6; stroke-linecap: round"/>
   </g>
   <g id="line2d_19">
    <path d="M 574.838617 266.15244 
L 665.359061 266.15244 
" clip-path="url(#pb4dec8f898)" style="fill: none; stroke: #111111; stroke-width: 3.6; stroke-linecap: round"/>
   </g>
   <g id="line2d_20">
    <path d="M 574.838617 155.581695 
L 665.359061 155.581695 
" clip-path="url(#pb4dec8f898)" style="fill: none; stroke: #111111; stroke-width: 3.6; stroke-linecap: round"/>
   </g>
   <g id="text_1">
    <!-- $^{140}\mathrm{Ce}$ -->
    <g transform="translate(326.852 33.034687) scale(0.34 -0.34)">
     <defs>
      <path id="DejaVuSans-31" d="M 794 531 
L 1825 531 
L 1825 4091 
L 703 3866 
L 703 4441 
L 1819 4666 
L 2450 4666 
L 2450 531 
L 3481 531 
L 3481 0 
L 794 0 
L 794 531 
z
" transform="scale(0.015625)"/>
      <path id="DejaVuSans-34" d="M 2419 4116 
L 825 1625 
L 2419 1625 
L 2419 4116 
z
M 2253 4666 
L 3047 4666 
L 3047 1625 
L 3713 1625 
L 3713 1100 
L 3047 1100 
L 3047 0 
L 2419 0 
L 2419 1100 
L 313 1100 
L 313 1709 
L 2253 4666 
z
" transform="scale(0.015625)"/>
      <path id="DejaVuSans-30" d="M 2034 4250 
Q 1547 4250 1301 3770 
Q 1056 3291 1056 2328 
Q 1056 1369 1301 889 
Q 1547 409 2034 409 
Q 2525 409 2770 889 
Q 3016 1369 3016 2328 
Q 3016 3291 2770 3770 
Q 2525 4250 2034 4250 
z
M 2034 4750 
Q 2819 4750 3233 4129 
Q 3647 3509 3647 2328 
Q 3647 1150 3233 529 
Q 2819 -91 2034 -91 
Q 1250 -91 836 529 
Q 422 1150 422 2328 
Q 422 3509 836 4129 
Q 1250 4750 2034 4750 
z
" transform="scale(0.015625)"/>
      <path id="DejaVuSans-43" d="M 4122 4306 
L 4122 3641 
Q 3803 3938 3442 4084 
Q 3081 4231 2675 4231 
Q 1875 4231 1450 3742 
Q 1025 3253 1025 2328 
Q 1025 1406 1450 917 
Q 1875 428 2675 428 
Q 3081 428 3442 575 
Q 3803 722 4122 1019 
L 4122 359 
Q 3791 134 3420 21 
Q 3050 -91 2638 -91 
Q 1578 -91 968 557 
Q 359 1206 359 2328 
Q 359 3453 968 4101 
Q 1578 4750 2638 4750 
Q 3056 4750 3426 4639 
Q 3797 4528 4122 4306 
z
" transform="scale(0.015625)"/>
      <path id="DejaVuSans-65" d="M 3597 1894 
L 3597 1613 
L 953 1613 
Q 991 1019 1311 708 
Q 1631 397 2203 397 
Q 2534 397 2845 478 
Q 3156 559 3463 722 
L 3463 178 
Q 3153 47 2828 -22 
Q 2503 -91 2169 -91 
Q 1331 -91 842 396 
Q 353 884 353 1716 
Q 353 2575 817 3079 
Q 1281 3584 2069 3584 
Q 2775 3584 3186 3129 
Q 3597 2675 3597 1894 
z
M 3022 2063 
Q 3016 2534 2758 2815 
Q 2500 3097 2075 3097 
Q 1594 3097 1305 2825 
Q 1016 2553 972 2059 
L 3022 2063 
z
" transform="scale(0.015625)"/>
     </defs>
     <use xlink:href="#DejaVuSans-31" transform="translate(0.957031 39.046875) scale(0.7)"/>
     <use xlink:href="#DejaVuSans-34" transform="translate(45.493164 39.046875) scale(0.7)"/>
     <use xlink:href="#DejaVuSans-30" transform="translate(90.029297 39.046875) scale(0.7)"/>
     <use xlink:href="#DejaVuSans-43" transform="translate(137.299805 0.765625)"/>
     <use xlink:href="#DejaVuSans-65" transform="translate(207.124023 0.765625)"/>
    </g>
   </g>
   <g id="text_2">
    <!-- 0 -->
    <g transform="translate(46.98525 483.440005) scale(0.16 -0.16)">
     <defs>
      <path id="DejaVuSans-BoldOblique-30" d="M 1913 728 
Q 2153 728 2339 872 
Q 2525 1016 2650 1294 
Q 2738 1491 2809 1742 
Q 2881 1994 2944 2338 
Q 2997 2616 3025 2850 
Q 3053 3084 3053 3250 
Q 3053 3600 2928 3764 
Q 2803 3928 2541 3928 
Q 2297 3928 2112 3789 
Q 1928 3650 1806 3366 
Q 1713 3163 1636 2903 
Q 1559 2644 1503 2338 
Q 1450 2056 1422 1815 
Q 1394 1575 1394 1409 
Q 1394 1063 1522 895 
Q 1650 728 1913 728 
z
M 4225 3072 
Q 4225 2450 4053 1862 
Q 3881 1275 3572 831 
Q 3256 375 2809 142 
Q 2363 -91 1813 -91 
Q 1047 -91 639 343 
Q 231 778 231 1594 
Q 231 2206 401 2795 
Q 572 3384 878 3822 
Q 1200 4281 1644 4515 
Q 2088 4750 2644 4750 
Q 3403 4750 3814 4314 
Q 4225 3878 4225 3072 
z
" transform="scale(0.015625)"/>
     </defs>
     <use xlink:href="#DejaVuSans-BoldOblique-30"/>
    </g>
   </g>
   <g id="text_3">
    <!-- 0⁺ -->
    <g transform="translate(182.58336 484.180239) scale(0.23 -0.23)">
     <defs>
      <path id="TimesNewRomanPS-BoldMT-30" d="M 2966 2119 
Q 2966 1484 2788 934 
Q 2681 597 2501 381 
Q 2322 166 2094 39 
Q 1866 -88 1597 -88 
Q 1291 -88 1044 68 
Q 797 225 606 516 
Q 469 728 366 1081 
Q 231 1559 231 2069 
Q 231 2759 425 3338 
Q 584 3816 909 4070 
Q 1234 4325 1597 4325 
Q 1966 4325 2286 4073 
Q 2606 3822 2756 3397 
Q 2966 2813 2966 2119 
z
M 2003 2125 
Q 2003 3238 1991 3422 
Q 1959 3856 1841 4009 
Q 1763 4109 1588 4109 
Q 1453 4109 1375 4034 
Q 1259 3925 1218 3648 
Q 1178 3372 1178 1719 
Q 1178 819 1241 513 
Q 1288 291 1375 216 
Q 1463 141 1606 141 
Q 1763 141 1841 241 
Q 1972 416 1991 781 
L 2003 2125 
z
" transform="scale(0.015625)"/>
      <path id="DejaVuSerif-Bold-207a" d="M 1916 4344 
L 1916 3441 
L 2950 3441 
L 2950 3044 
L 1916 3044 
L 1916 2141 
L 1463 2141 
L 1463 3044 
L 428 3044 
L 428 3441 
L 1463 3441 
L 1463 4344 
L 1916 4344 
z
" transform="scale(0.015625)"/>
     </defs>
     <use xlink:href="#TimesNewRomanPS-BoldMT-30"/>
     <use xlink:href="#DejaVuSerif-Bold-207a" transform="translate(50 0)"/>
    </g>
   </g>
   <g id="text_4">
    <!-- 2264 -->
    <g transform="translate(13.58775 369.430434) scale(0.16 -0.16)">
     <defs>
      <path id="DejaVuSans-BoldOblique-32" d="M 1581 884 
L 3609 884 
L 3438 0 
L 50 0 
L 225 891 
L 2209 2388 
Q 2534 2638 2704 2894 
Q 2875 3150 2875 3391 
Q 2875 3647 2700 3787 
Q 2525 3928 2209 3928 
Q 1913 3928 1547 3811 
Q 1181 3694 722 3450 
L 922 4441 
Q 1347 4597 1756 4673 
Q 2166 4750 2566 4750 
Q 3278 4750 3687 4442 
Q 4097 4134 4097 3603 
Q 4097 3147 3847 2772 
Q 3597 2397 2747 1759 
L 1581 884 
z
" transform="scale(0.015625)"/>
      <path id="DejaVuSans-BoldOblique-36" d="M 2316 2303 
Q 1959 2303 1731 2009 
Q 1503 1716 1503 1253 
Q 1503 975 1643 820 
Q 1784 666 2034 666 
Q 2388 666 2617 955 
Q 2847 1244 2847 1684 
Q 2847 1984 2709 2143 
Q 2572 2303 2316 2303 
z
M 4225 4544 
L 4056 3681 
Q 3788 3819 3534 3887 
Q 3281 3956 3028 3956 
Q 2447 3956 2087 3643 
Q 1728 3331 1650 2766 
Q 1894 2925 2151 3001 
Q 2409 3078 2700 3078 
Q 3275 3078 3640 2737 
Q 4006 2397 4006 1869 
Q 4006 1006 3442 454 
Q 2878 -97 1991 -97 
Q 1194 -97 756 354 
Q 319 806 319 1631 
Q 319 2269 512 2848 
Q 706 3428 1056 3847 
Q 1431 4294 1942 4519 
Q 2453 4744 3091 4744 
Q 3384 4744 3662 4694 
Q 3941 4644 4225 4544 
z
" transform="scale(0.015625)"/>
      <path id="DejaVuSans-BoldOblique-34" d="M 2638 3641 
L 978 1722 
L 2259 1722 
L 2638 3641 
z
M 2606 4666 
L 3975 4666 
L 3397 1722 
L 4063 1722 
L 3897 850 
L 3231 850 
L 3066 0 
L 1925 0 
L 2094 850 
L -6 850 
L 197 1881 
L 2606 4666 
z
" transform="scale(0.015625)"/>
     </defs>
     <use xlink:href="#DejaVuSans-BoldOblique-32"/>
     <use xlink:href="#DejaVuSans-BoldOblique-32" transform="translate(69.580078 0)"/>
     <use xlink:href="#DejaVuSans-BoldOblique-36" transform="translate(139.160156 0)"/>
     <use xlink:href="#DejaVuSans-BoldOblique-34" transform="translate(208.740234 0)"/>
    </g>
   </g>
   <g id="text_5">
    <!-- 2⁺ -->
    <g transform="translate(182.58336 370.170668) scale(0.23 -0.23)">
     <defs>
      <path id="TimesNewRomanPS-BoldMT-32" d="M 2650 0 
L 156 0 
L 156 69 
Q 1303 1434 1548 1906 
Q 1794 2378 1794 2828 
Q 1794 3156 1591 3373 
Q 1388 3591 1094 3591 
Q 613 3591 347 3109 
L 231 3150 
Q 400 3750 744 4037 
Q 1088 4325 1538 4325 
Q 1859 4325 2125 4175 
Q 2391 4025 2541 3764 
Q 2691 3503 2691 3275 
Q 2691 2859 2459 2431 
Q 2144 1853 1081 819 
L 1997 819 
Q 2334 819 2436 847 
Q 2538 875 2603 942 
Q 2669 1009 2775 1225 
L 2888 1225 
L 2650 0 
z
" transform="scale(0.015625)"/>
     </defs>
     <use xlink:href="#TimesNewRomanPS-BoldMT-32"/>
     <use xlink:href="#DejaVuSerif-Bold-207a" transform="translate(50 0)"/>
    </g>
   </g>
   <g id="text_6">
    <!-- 4528 -->
    <g transform="translate(13.58775 255.443571) scale(0.16 -0.16)">
     <defs>
      <path id="DejaVuSans-BoldOblique-35" d="M 1131 4666 
L 4122 4666 
L 3950 3781 
L 1919 3781 
L 1778 3059 
Q 1916 3097 2064 3117 
Q 2213 3138 2363 3138 
Q 3078 3138 3481 2811 
Q 3884 2484 3884 1906 
Q 3884 988 3262 448 
Q 2641 -91 1575 -91 
Q 1184 -91 815 -14 
Q 447 63 84 219 
L 269 1166 
Q 616 941 942 834 
Q 1269 728 1606 728 
Q 2100 728 2397 986 
Q 2694 1244 2694 1663 
Q 2694 1963 2469 2139 
Q 2244 2316 1856 2316 
Q 1594 2316 1289 2248 
Q 984 2181 622 2041 
L 1131 4666 
z
" transform="scale(0.015625)"/>
      <path id="DejaVuSans-BoldOblique-38" d="M 2150 2088 
Q 1784 2088 1539 1839 
Q 1294 1591 1294 1228 
Q 1294 969 1453 817 
Q 1613 666 1888 666 
Q 2259 666 2503 911 
Q 2747 1156 2747 1522 
Q 2747 1781 2586 1934 
Q 2425 2088 2150 2088 
z
M 1381 2484 
Q 1044 2625 876 2850 
Q 709 3075 709 3391 
Q 709 4025 1229 4387 
Q 1750 4750 2669 4750 
Q 3406 4750 3812 4475 
Q 4219 4200 4219 3700 
Q 4219 3256 3936 2940 
Q 3653 2625 3128 2484 
Q 3509 2338 3690 2091 
Q 3872 1844 3872 1466 
Q 3872 747 3311 328 
Q 2750 -91 1772 -91 
Q 1000 -91 570 217 
Q 141 525 141 1075 
Q 141 1572 470 1945 
Q 800 2319 1381 2484 
z
M 2559 3994 
Q 2241 3994 2048 3808 
Q 1856 3622 1856 3316 
Q 1856 3103 1995 2972 
Q 2134 2841 2363 2841 
Q 2681 2841 2873 3027 
Q 3066 3213 3066 3519 
Q 3066 3734 2927 3864 
Q 2788 3994 2559 3994 
z
" transform="scale(0.015625)"/>
     </defs>
     <use xlink:href="#DejaVuSans-BoldOblique-34"/>
     <use xlink:href="#DejaVuSans-BoldOblique-35" transform="translate(69.580078 0)"/>
     <use xlink:href="#DejaVuSans-BoldOblique-32" transform="translate(139.160156 0)"/>
     <use xlink:href="#DejaVuSans-BoldOblique-38" transform="translate(208.740234 0)"/>
    </g>
   </g>
   <g id="text_7">
    <!-- 4⁺ -->
    <g transform="translate(182.58336 256.183805) scale(0.23 -0.23)">
     <defs>
      <path id="TimesNewRomanPS-BoldMT-34" d="M 159 1597 
L 2172 4325 
L 2553 4325 
L 2553 1597 
L 2941 1597 
L 2941 950 
L 2553 950 
L 2553 0 
L 1694 0 
L 1694 950 
L 159 950 
L 159 1597 
z
M 463 1597 
L 1694 1597 
L 1694 3269 
L 463 1597 
z
" transform="scale(0.015625)"/>
     </defs>
     <use xlink:href="#TimesNewRomanPS-BoldMT-34"/>
     <use xlink:href="#DejaVuSerif-Bold-207a" transform="translate(50 0)"/>
    </g>
   </g>
   <g id="text_8">
    <!-- 6638 -->
    <g transform="translate(13.58775 149.228459) scale(0.16 -0.16)">
     <defs>
      <path id="DejaVuSans-BoldOblique-33" d="M 3022 2516 
Q 3375 2434 3572 2187 
Q 3769 1941 3769 1581 
Q 3769 806 3155 357 
Q 2541 -91 1466 -91 
Q 1059 -91 692 -33 
Q 325 25 0 141 
L 178 1069 
Q 456 906 784 817 
Q 1113 728 1441 728 
Q 1969 728 2276 926 
Q 2584 1125 2584 1459 
Q 2584 1738 2350 1877 
Q 2116 2016 1644 2016 
L 1166 2016 
L 1319 2791 
L 1825 2791 
Q 2316 2791 2602 2969 
Q 2888 3147 2888 3450 
Q 2888 3688 2689 3813 
Q 2491 3938 2113 3938 
Q 1847 3938 1534 3869 
Q 1222 3800 884 3669 
L 1056 4550 
Q 1425 4650 1783 4700 
Q 2141 4750 2491 4750 
Q 3281 4750 3679 4487 
Q 4078 4225 4078 3706 
Q 4078 3241 3801 2930 
Q 3525 2619 3022 2516 
z
" transform="scale(0.015625)"/>
     </defs>
     <use xlink:href="#DejaVuSans-BoldOblique-36"/>
     <use xlink:href="#DejaVuSans-BoldOblique-36" transform="translate(69.580078 0)"/>
     <use xlink:href="#DejaVuSans-BoldOblique-33" transform="translate(139.160156 0)"/>
     <use xlink:href="#DejaVuSans-BoldOblique-38" transform="translate(208.740234 0)"/>
    </g>
   </g>
   <g id="text_9">
    <!-- 6⁺ -->
    <g transform="translate(182.58336 149.968693) scale(0.23 -0.23)">
     <defs>
      <path id="TimesNewRomanPS-BoldMT-36" d="M 3006 4325 
L 3006 4238 
Q 2441 4094 2098 3867 
Q 1756 3641 1557 3317 
Q 1359 2994 1250 2516 
Q 1388 2609 1478 2638 
Q 1681 2700 1888 2700 
Q 2363 2700 2680 2354 
Q 2997 2009 2997 1413 
Q 2997 994 2825 644 
Q 2653 294 2337 103 
Q 2022 -88 1663 -88 
Q 1272 -88 940 126 
Q 609 341 423 753 
Q 238 1166 238 1650 
Q 238 2363 580 2977 
Q 922 3591 1551 3955 
Q 2181 4319 3006 4325 
z
M 1209 2263 
Q 1184 1831 1184 1631 
Q 1184 1200 1267 797 
Q 1350 394 1494 231 
Q 1597 116 1738 116 
Q 1881 116 1993 283 
Q 2106 450 2106 963 
Q 2106 1825 1897 2153 
Q 1763 2366 1534 2366 
Q 1409 2366 1209 2263 
z
" transform="scale(0.015625)"/>
     </defs>
     <use xlink:href="#TimesNewRomanPS-BoldMT-36"/>
     <use xlink:href="#DejaVuSerif-Bold-207a" transform="translate(50 0)"/>
    </g>
   </g>
   <g id="text_10">
    <!-- 3922 -->
    <g transform="translate(263.461892 285.982241) scale(0.16 -0.16)">
     <defs>
      <path id="DejaVuSans-BoldOblique-39" d="M 263 103 
L 428 966 
Q 700 825 953 758 
Q 1206 691 1459 691 
Q 2041 691 2400 1003 
Q 2759 1316 2834 1881 
Q 2594 1722 2337 1645 
Q 2081 1569 1791 1569 
Q 1219 1569 853 1909 
Q 488 2250 488 2778 
Q 488 3641 1052 4192 
Q 1616 4744 2503 4744 
Q 3300 4744 3736 4292 
Q 4172 3841 4172 3016 
Q 4172 2381 3978 1801 
Q 3784 1222 3431 800 
Q 3056 353 2548 128 
Q 2041 -97 1403 -97 
Q 1106 -97 825 -47 
Q 544 3 263 103 
z
M 2169 2344 
Q 2525 2344 2753 2637 
Q 2981 2931 2981 3391 
Q 2981 3675 2845 3828 
Q 2709 3981 2456 3981 
Q 2103 3981 1870 3690 
Q 1638 3400 1638 2963 
Q 1638 2663 1775 2503 
Q 1913 2344 2169 2344 
z
" transform="scale(0.015625)"/>
     </defs>
     <use xlink:href="#DejaVuSans-BoldOblique-33"/>
     <use xlink:href="#DejaVuSans-BoldOblique-39" transform="translate(69.580078 0)"/>
     <use xlink:href="#DejaVuSans-BoldOblique-32" transform="translate(139.160156 0)"/>
     <use xlink:href="#DejaVuSans-BoldOblique-32" transform="translate(208.740234 0)"/>
    </g>
   </g>
   <g id="text_11">
    <!-- 0⁺ -->
    <g transform="translate(432.457502 286.722475) scale(0.23 -0.23)">
     <use xlink:href="#TimesNewRomanPS-BoldMT-30"/>
     <use xlink:href="#DejaVuSerif-Bold-207a" transform="translate(50 0)"/>
    </g>
   </g>
   <g id="text_12">
    <!-- 5353 -->
    <g transform="translate(263.461892 213.891199) scale(0.16 -0.16)">
     <use xlink:href="#DejaVuSans-BoldOblique-35"/>
     <use xlink:href="#DejaVuSans-BoldOblique-33" transform="translate(69.580078 0)"/>
     <use xlink:href="#DejaVuSans-BoldOblique-35" transform="translate(139.160156 0)"/>
     <use xlink:href="#DejaVuSans-BoldOblique-33" transform="translate(208.740234 0)"/>
    </g>
   </g>
   <g id="text_13">
    <!-- 2⁺ -->
    <g transform="translate(432.457502 214.631434) scale(0.23 -0.23)">
     <use xlink:href="#TimesNewRomanPS-BoldMT-32"/>
     <use xlink:href="#DejaVuSerif-Bold-207a" transform="translate(50 0)"/>
    </g>
   </g>
   <g id="text_14">
    <!-- 6780 -->
    <g transform="translate(263.461892 142.036258) scale(0.16 -0.16)">
     <defs>
      <path id="DejaVuSans-BoldOblique-37" d="M 922 4666 
L 4441 4666 
L 4300 3981 
L 1703 0 
L 500 0 
L 2969 3781 
L 756 3781 
L 922 4666 
z
" transform="scale(0.015625)"/>
     </defs>
     <use xlink:href="#DejaVuSans-BoldOblique-36"/>
     <use xlink:href="#DejaVuSans-BoldOblique-37" transform="translate(69.580078 0)"/>
     <use xlink:href="#DejaVuSans-BoldOblique-38" transform="translate(139.160156 0)"/>
     <use xlink:href="#DejaVuSans-BoldOblique-30" transform="translate(208.740234 0)"/>
    </g>
   </g>
   <g id="text_15">
    <!-- 4⁺ -->
    <g transform="translate(432.457502 142.776492) scale(0.23 -0.23)">
     <use xlink:href="#TimesNewRomanPS-BoldMT-34"/>
     <use xlink:href="#DejaVuSerif-Bold-207a" transform="translate(50 0)"/>
    </g>
   </g>
   <g id="text_16">
    <!-- 8319 -->
    <g transform="translate(263.461892 64.546798) scale(0.16 -0.16)">
     <defs>
      <path id="DejaVuSans-BoldOblique-31" d="M 441 831 
L 1503 831 
L 2088 3847 
L 953 3622 
L 1113 4441 
L 2241 4666 
L 3384 4666 
L 2644 831 
L 3700 831 
L 3541 0 
L 275 0 
L 441 831 
z
" transform="scale(0.015625)"/>
     </defs>
     <use xlink:href="#DejaVuSans-BoldOblique-38"/>
     <use xlink:href="#DejaVuSans-BoldOblique-33" transform="translate(69.580078 0)"/>
     <use xlink:href="#DejaVuSans-BoldOblique-31" transform="translate(139.160156 0)"/>
     <use xlink:href="#DejaVuSans-BoldOblique-39" transform="translate(208.740234 0)"/>
    </g>
   </g>
   <g id="text_17">
    <!-- 6⁺ -->
    <g transform="translate(432.457502 65.287032) scale(0.23 -0.23)">
     <use xlink:href="#TimesNewRomanPS-BoldMT-36"/>
     <use xlink:href="#DejaVuSerif-Bold-207a" transform="translate(50 0)"/>
    </g>
   </g>
   <g id="text_18">
    <!-- 4228 -->
    <g transform="translate(513.336034 270.56744) scale(0.16 -0.16)">
     <use xlink:href="#DejaVuSans-BoldOblique-34"/>
     <use xlink:href="#DejaVuSans-BoldOblique-32" transform="translate(69.580078 0)"/>
     <use xlink:href="#DejaVuSans-BoldOblique-32" transform="translate(139.160156 0)"/>
     <use xlink:href="#DejaVuSans-BoldOblique-38" transform="translate(208.740234 0)"/>
    </g>
   </g>
   <g id="text_19">
    <!-- 2⁺ -->
    <g transform="translate(682.331644 271.307674) scale(0.23 -0.23)">
     <use xlink:href="#TimesNewRomanPS-BoldMT-32"/>
     <use xlink:href="#DejaVuSerif-Bold-207a" transform="translate(50 0)"/>
    </g>
   </g>
   <g id="text_20">
    <!-- 6424 -->
    <g transform="translate(513.336034 159.996695) scale(0.16 -0.16)">
     <use xlink:href="#DejaVuSans-BoldOblique-36"/>
     <use xlink:href="#DejaVuSans-BoldOblique-34" transform="translate(69.580078 0)"/>
     <use xlink:href="#DejaVuSans-BoldOblique-32" transform="translate(139.160156 0)"/>
     <use xlink:href="#DejaVuSans-BoldOblique-34" transform="translate(208.740234 0)"/>
    </g>
   </g>
   <g id="text_21">
    <!-- 3⁺ -->
    <g transform="translate(682.331644 160.736929) scale(0.23 -0.23)">
     <defs>
      <path id="TimesNewRomanPS-BoldMT-33" d="M 947 2125 
L 947 2234 
Q 1303 2338 1440 2427 
Q 1578 2516 1678 2698 
Q 1778 2881 1778 3069 
Q 1778 3328 1589 3514 
Q 1400 3700 1119 3700 
Q 681 3700 375 3238 
L 259 3278 
Q 484 3800 836 4062 
Q 1188 4325 1619 4325 
Q 2059 4325 2345 4056 
Q 2631 3788 2631 3428 
Q 2631 3194 2498 2976 
Q 2366 2759 2081 2594 
Q 2447 2416 2639 2155 
Q 2831 1894 2831 1500 
Q 2831 838 2351 373 
Q 1872 -91 1066 -91 
Q 528 -91 281 88 
Q 103 213 103 409 
Q 103 553 206 654 
Q 309 756 444 756 
Q 547 756 638 713 
Q 688 688 992 439 
Q 1297 191 1563 191 
Q 1794 191 1959 373 
Q 2125 556 2125 838 
Q 2125 1266 1825 1627 
Q 1525 1988 947 2125 
z
" transform="scale(0.015625)"/>
     </defs>
     <use xlink:href="#TimesNewRomanPS-BoldMT-33"/>
     <use xlink:href="#DejaVuSerif-Bold-207a" transform="translate(50 0)"/>
    </g>
   </g>
   <g id="text_22">
    <path d="M 111.560555 414.793969 
L 111.560555 423.458969 
Q 111.560555 424.433969 111.645555 424.703969 
Q 111.733055 424.973969 112.005555 425.146469 
Q 112.280555 425.316469 112.883055 425.316469 
L 113.123055 425.316469 
L 113.123055 425.606469 
L 107.545555 425.606469 
L 107.545555 425.316469 
L 107.828055 425.316469 
Q 108.508055 425.316469 108.795555 425.161469 
Q 109.085555 425.003969 109.185555 424.731469 
Q 109.288055 424.458969 109.288055 423.458969 
L 109.288055 417.966469 
Q 109.288055 417.231469 109.218055 417.048969 
Q 109.148055 416.863969 108.955555 416.736469 
Q 108.765555 416.606469 108.515555 416.606469 
Q 108.115555 416.606469 107.545555 416.856469 
L 107.405555 416.573969 
L 111.303055 414.793969 
L 111.560555 414.793969 
z
M 114.843055 425.826469 
L 114.843055 425.606469 
Q 116.140555 425.308969 117.043055 424.731469 
Q 117.945555 424.153969 118.470555 423.301469 
Q 118.998055 422.448969 119.210555 421.341469 
Q 118.725555 421.591469 118.385555 421.688969 
Q 118.045555 421.786469 117.670555 421.786469 
Q 116.468055 421.786469 115.665555 420.918969 
Q 114.865555 420.051469 114.865555 418.543969 
Q 114.865555 417.496469 115.298055 416.626469 
Q 115.733055 415.753969 116.538055 415.273969 
Q 117.343055 414.793969 118.210555 414.793969 
Q 119.140555 414.793969 119.968055 415.326469 
Q 120.795555 415.856469 121.288055 416.863969 
Q 121.780555 417.871469 121.780555 419.161469 
Q 121.780555 420.833969 120.978055 422.366469 
Q 120.178055 423.896469 118.593055 424.821469 
Q 117.008055 425.746469 114.843055 425.826469 
z
M 119.328055 420.683969 
Q 119.405555 419.808969 119.405555 419.146469 
Q 119.405555 417.723969 119.078055 416.496469 
Q 118.890555 415.816469 118.523055 415.496469 
Q 118.328055 415.323969 118.015555 415.323969 
Q 117.623055 415.323969 117.405555 415.661469 
Q 117.100555 416.121469 117.100555 417.418969 
Q 117.100555 419.583969 117.615555 420.403969 
Q 117.953055 420.933969 118.523055 420.933969 
Q 118.828055 420.933969 119.328055 420.683969 
z
M 124.350555 423.198969 
Q 124.898055 423.198969 125.275555 423.583969 
Q 125.655555 423.966469 125.655555 424.503969 
Q 125.655555 425.043969 125.273055 425.423969 
Q 124.890555 425.801469 124.350555 425.801469 
Q 123.810555 425.801469 123.430555 425.423969 
Q 123.053055 425.043969 123.053055 424.503969 
Q 123.053055 423.966469 123.430555 423.583969 
Q 123.810555 423.198969 124.350555 423.198969 
z
M 129.185555 425.826469 
L 132.070555 417.083969 
L 129.873055 417.083969 
Q 128.585555 417.083969 127.935555 417.418969 
Q 127.483055 417.653969 127.185555 418.301469 
L 126.890555 418.301469 
L 127.655555 415.011469 
L 133.968055 415.011469 
L 130.413055 425.826469 
L 129.185555 425.826469 
z
" style="stroke: #ffffff; stroke-width: 3.8"/>
    <path d="M 111.560555 414.793969 
L 111.560555 423.458969 
Q 111.560555 424.433969 111.645555 424.703969 
Q 111.733055 424.973969 112.005555 425.146469 
Q 112.280555 425.316469 112.883055 425.316469 
L 113.123055 425.316469 
L 113.123055 425.606469 
L 107.545555 425.606469 
L 107.545555 425.316469 
L 107.828055 425.316469 
Q 108.508055 425.316469 108.795555 425.161469 
Q 109.085555 425.003969 109.185555 424.731469 
Q 109.288055 424.458969 109.288055 423.458969 
L 109.288055 417.966469 
Q 109.288055 417.231469 109.218055 417.048969 
Q 109.148055 416.863969 108.955555 416.736469 
Q 108.765555 416.606469 108.515555 416.606469 
Q 108.115555 416.606469 107.545555 416.856469 
L 107.405555 416.573969 
L 111.303055 414.793969 
L 111.560555 414.793969 
z
M 114.843055 425.826469 
L 114.843055 425.606469 
Q 116.140555 425.308969 117.043055 424.731469 
Q 117.945555 424.153969 118.470555 423.301469 
Q 118.998055 422.448969 119.210555 421.341469 
Q 118.725555 421.591469 118.385555 421.688969 
Q 118.045555 421.786469 117.670555 421.786469 
Q 116.468055 421.786469 115.665555 420.918969 
Q 114.865555 420.051469 114.865555 418.543969 
Q 114.865555 417.496469 115.298055 416.626469 
Q 115.733055 415.753969 116.538055 415.273969 
Q 117.343055 414.793969 118.210555 414.793969 
Q 119.140555 414.793969 119.968055 415.326469 
Q 120.795555 415.856469 121.288055 416.863969 
Q 121.780555 417.871469 121.780555 419.161469 
Q 121.780555 420.833969 120.978055 422.366469 
Q 120.178055 423.896469 118.593055 424.821469 
Q 117.008055 425.746469 114.843055 425.826469 
z
M 119.328055 420.683969 
Q 119.405555 419.808969 119.405555 419.146469 
Q 119.405555 417.723969 119.078055 416.496469 
Q 118.890555 415.816469 118.523055 415.496469 
Q 118.328055 415.323969 118.015555 415.323969 
Q 117.623055 415.323969 117.405555 415.661469 
Q 117.100555 416.121469 117.100555 417.418969 
Q 117.100555 419.583969 117.615555 420.403969 
Q 117.953055 420.933969 118.523055 420.933969 
Q 118.828055 420.933969 119.328055 420.683969 
z
M 124.350555 423.198969 
Q 124.898055 423.198969 125.275555 423.583969 
Q 125.655555 423.966469 125.655555 424.503969 
Q 125.655555 425.043969 125.273055 425.423969 
Q 124.890555 425.801469 124.350555 425.801469 
Q 123.810555 425.801469 123.430555 425.423969 
Q 123.053055 425.043969 123.053055 424.503969 
Q 123.053055 423.966469 123.430555 423.583969 
Q 123.810555 423.198969 124.350555 423.198969 
z
M 129.185555 425.826469 
L 132.070555 417.083969 
L 129.873055 417.083969 
Q 128.585555 417.083969 127.935555 417.418969 
Q 127.483055 417.653969 127.185555 418.301469 
L 126.890555 418.301469 
L 127.655555 415.011469 
L 133.968055 415.011469 
L 130.413055 425.826469 
L 129.185555 425.826469 
z
"/>
   </g>
   <g id="text_23">
    <path d="M 108.718055 306.295752 
L 108.718055 306.023252 
Q 109.608055 305.763252 109.950555 305.540752 
Q 110.295555 305.318252 110.545555 304.863252 
Q 110.795555 304.405752 110.795555 303.935752 
Q 110.795555 303.288252 110.323055 302.823252 
Q 109.850555 302.358252 109.148055 302.358252 
Q 108.053055 302.358252 107.288055 303.513252 
L 106.998055 303.413252 
Q 107.560555 302.108252 108.440555 301.453252 
Q 109.320555 300.795752 110.398055 300.795752 
Q 111.498055 300.795752 112.213055 301.468252 
Q 112.928055 302.138252 112.928055 303.038252 
Q 112.928055 303.623252 112.595555 304.168252 
Q 112.265555 304.710752 111.553055 305.123252 
Q 112.468055 305.568252 112.948055 306.220752 
Q 113.428055 306.873252 113.428055 307.858252 
Q 113.428055 309.513252 112.228055 310.675752 
Q 111.030555 311.835752 109.015555 311.835752 
Q 107.670555 311.835752 107.053055 311.388252 
Q 106.608055 311.075752 106.608055 310.585752 
Q 106.608055 310.225752 106.865555 309.973252 
Q 107.123055 309.718252 107.460555 309.718252 
Q 107.718055 309.718252 107.945555 309.825752 
Q 108.070555 309.888252 108.830555 310.510752 
Q 109.593055 311.130752 110.258055 311.130752 
Q 110.835555 311.130752 111.248055 310.675752 
Q 111.663055 310.218252 111.663055 309.513252 
Q 111.663055 308.443252 110.913055 307.540752 
Q 110.163055 306.638252 108.718055 306.295752 
z
M 121.865555 300.795752 
L 121.865555 301.013252 
Q 120.453055 301.373252 119.595555 301.940752 
Q 118.740555 302.505752 118.243055 303.315752 
Q 117.748055 304.123252 117.475555 305.318252 
Q 117.820555 305.085752 118.045555 305.013252 
Q 118.553055 304.858252 119.070555 304.858252 
Q 120.258055 304.858252 121.050555 305.723252 
Q 121.843055 306.585752 121.843055 308.075752 
Q 121.843055 309.123252 121.413055 309.998252 
Q 120.983055 310.873252 120.193055 311.350752 
Q 119.405555 311.828252 118.508055 311.828252 
Q 117.530555 311.828252 116.700555 311.293252 
Q 115.873055 310.755752 115.408055 309.725752 
Q 114.945555 308.693252 114.945555 307.483252 
Q 114.945555 305.700752 115.800555 304.165752 
Q 116.655555 302.630752 118.228055 301.720752 
Q 119.803055 300.810752 121.865555 300.795752 
z
M 117.373055 305.950752 
Q 117.310555 307.030752 117.310555 307.530752 
Q 117.310555 308.608252 117.518055 309.615752 
Q 117.725555 310.623252 118.085555 311.030752 
Q 118.343055 311.318252 118.695555 311.318252 
Q 119.053055 311.318252 119.333055 310.900752 
Q 119.615555 310.483252 119.615555 309.200752 
Q 119.615555 307.045752 119.093055 306.225752 
Q 118.758055 305.693252 118.185555 305.693252 
Q 117.873055 305.693252 117.373055 305.950752 
z
M 124.350555 309.200752 
Q 124.898055 309.200752 125.275555 309.585752 
Q 125.655555 309.968252 125.655555 310.505752 
Q 125.655555 311.045752 125.273055 311.425752 
Q 124.890555 311.803252 124.350555 311.803252 
Q 123.810555 311.803252 123.430555 311.425752 
Q 123.053055 311.045752 123.053055 310.505752 
Q 123.053055 309.968252 123.430555 309.585752 
Q 123.810555 309.200752 124.350555 309.200752 
z
M 129.185555 311.828252 
L 132.070555 303.085752 
L 129.873055 303.085752 
Q 128.585555 303.085752 127.935555 303.420752 
Q 127.483055 303.655752 127.185555 304.303252 
L 126.890555 304.303252 
L 127.655555 301.013252 
L 133.968055 301.013252 
L 130.413055 311.828252 
L 129.185555 311.828252 
z
" style="stroke: #ffffff; stroke-width: 3.8"/>
    <path d="M 108.718055 306.295752 
L 108.718055 306.023252 
Q 109.608055 305.763252 109.950555 305.540752 
Q 110.295555 305.318252 110.545555 304.863252 
Q 110.795555 304.405752 110.795555 303.935752 
Q 110.795555 303.288252 110.323055 302.823252 
Q 109.850555 302.358252 109.148055 302.358252 
Q 108.053055 302.358252 107.288055 303.513252 
L 106.998055 303.413252 
Q 107.560555 302.108252 108.440555 301.453252 
Q 109.320555 300.795752 110.398055 300.795752 
Q 111.498055 300.795752 112.213055 301.468252 
Q 112.928055 302.138252 112.928055 303.038252 
Q 112.928055 303.623252 112.595555 304.168252 
Q 112.265555 304.710752 111.553055 305.123252 
Q 112.468055 305.568252 112.948055 306.220752 
Q 113.428055 306.873252 113.428055 307.858252 
Q 113.428055 309.513252 112.228055 310.675752 
Q 111.030555 311.835752 109.015555 311.835752 
Q 107.670555 311.835752 107.053055 311.388252 
Q 106.608055 311.075752 106.608055 310.585752 
Q 106.608055 310.225752 106.865555 309.973252 
Q 107.123055 309.718252 107.460555 309.718252 
Q 107.718055 309.718252 107.945555 309.825752 
Q 108.070555 309.888252 108.830555 310.510752 
Q 109.593055 311.130752 110.258055 311.130752 
Q 110.835555 311.130752 111.248055 310.675752 
Q 111.663055 310.218252 111.663055 309.513252 
Q 111.663055 308.443252 110.913055 307.540752 
Q 110.163055 306.638252 108.718055 306.295752 
z
M 121.865555 300.795752 
L 121.865555 301.013252 
Q 120.453055 301.373252 119.595555 301.940752 
Q 118.740555 302.505752 118.243055 303.315752 
Q 117.748055 304.123252 117.475555 305.318252 
Q 117.820555 305.085752 118.045555 305.013252 
Q 118.553055 304.858252 119.070555 304.858252 
Q 120.258055 304.858252 121.050555 305.723252 
Q 121.843055 306.585752 121.843055 308.075752 
Q 121.843055 309.123252 121.413055 309.998252 
Q 120.983055 310.873252 120.193055 311.350752 
Q 119.405555 311.828252 118.508055 311.828252 
Q 117.530555 311.828252 116.700555 311.293252 
Q 115.873055 310.755752 115.408055 309.725752 
Q 114.945555 308.693252 114.945555 307.483252 
Q 114.945555 305.700752 115.800555 304.165752 
Q 116.655555 302.630752 118.228055 301.720752 
Q 119.803055 300.810752 121.865555 300.795752 
z
M 117.373055 305.950752 
Q 117.310555 307.030752 117.310555 307.530752 
Q 117.310555 308.608252 117.518055 309.615752 
Q 117.725555 310.623252 118.085555 311.030752 
Q 118.343055 311.318252 118.695555 311.318252 
Q 119.053055 311.318252 119.333055 310.900752 
Q 119.615555 310.483252 119.615555 309.200752 
Q 119.615555 307.045752 119.093055 306.225752 
Q 118.758055 305.693252 118.185555 305.693252 
Q 117.873055 305.693252 117.373055 305.950752 
z
M 124.350555 309.200752 
Q 124.898055 309.200752 125.275555 309.585752 
Q 125.655555 309.968252 125.655555 310.505752 
Q 125.655555 311.045752 125.273055 311.425752 
Q 124.890555 311.803252 124.350555 311.803252 
Q 123.810555 311.803252 123.430555 311.425752 
Q 123.053055 311.045752 123.053055 310.505752 
Q 123.053055 309.968252 123.430555 309.585752 
Q 123.810555 309.200752 124.350555 309.200752 
z
M 129.185555 311.828252 
L 132.070555 303.085752 
L 129.873055 303.085752 
Q 128.585555 303.085752 127.935555 303.420752 
Q 127.483055 303.655752 127.185555 304.303252 
L 126.890555 304.303252 
L 127.655555 301.013252 
L 133.968055 301.013252 
L 130.413055 311.828252 
L 129.185555 311.828252 
z
"/>
   </g>
   <g id="text_24">
    <path d="M 108.788055 190.912265 
L 113.748055 190.912265 
L 112.960555 192.929765 
L 108.788055 192.929765 
L 108.390555 193.984765 
Q 111.085555 194.084765 112.538055 195.327265 
Q 113.733055 196.349765 113.733055 197.874765 
Q 113.733055 198.849765 113.178055 199.784765 
Q 112.623055 200.717265 111.615555 201.222265 
Q 110.608055 201.727265 109.405555 201.727265 
Q 108.108055 201.727265 107.413055 201.242265 
Q 106.928055 200.897265 106.928055 200.459765 
Q 106.928055 200.124765 107.180555 199.867265 
Q 107.435555 199.609765 107.773055 199.609765 
Q 108.078055 199.609765 108.390555 199.734765 
Q 108.703055 199.859765 109.460555 200.389765 
Q 109.935555 200.717265 110.280555 200.842265 
Q 110.523055 200.937265 110.828055 200.937265 
Q 111.468055 200.937265 111.915555 200.469765 
Q 112.365555 199.999765 112.365555 199.342265 
Q 112.365555 197.967265 110.990555 197.109765 
Q 109.615555 196.249765 107.523055 196.249765 
Q 107.310555 196.249765 106.890555 196.257265 
L 108.788055 190.912265 
z
M 116.718055 196.194765 
L 116.718055 195.922265 
Q 117.608055 195.662265 117.950555 195.439765 
Q 118.295555 195.217265 118.545555 194.762265 
Q 118.795555 194.304765 118.795555 193.834765 
Q 118.795555 193.187265 118.323055 192.722265 
Q 117.850555 192.257265 117.148055 192.257265 
Q 116.053055 192.257265 115.288055 193.412265 
L 114.998055 193.312265 
Q 115.560555 192.007265 116.440555 191.352265 
Q 117.320555 190.694765 118.398055 190.694765 
Q 119.498055 190.694765 120.213055 191.367265 
Q 120.928055 192.037265 120.928055 192.937265 
Q 120.928055 193.522265 120.595555 194.067265 
Q 120.265555 194.609765 119.553055 195.022265 
Q 120.468055 195.467265 120.948055 196.119765 
Q 121.428055 196.772265 121.428055 197.757265 
Q 121.428055 199.412265 120.228055 200.574765 
Q 119.030555 201.734765 117.015555 201.734765 
Q 115.670555 201.734765 115.053055 201.287265 
Q 114.608055 200.974765 114.608055 200.484765 
Q 114.608055 200.124765 114.865555 199.872265 
Q 115.123055 199.617265 115.460555 199.617265 
Q 115.718055 199.617265 115.945555 199.724765 
Q 116.070555 199.787265 116.830555 200.409765 
Q 117.593055 201.029765 118.258055 201.029765 
Q 118.835555 201.029765 119.248055 200.574765 
Q 119.663055 200.117265 119.663055 199.412265 
Q 119.663055 198.342265 118.913055 197.439765 
Q 118.163055 196.537265 116.718055 196.194765 
z
M 124.350555 199.099765 
Q 124.898055 199.099765 125.275555 199.484765 
Q 125.655555 199.867265 125.655555 200.404765 
Q 125.655555 200.944765 125.273055 201.324765 
Q 124.890555 201.702265 124.350555 201.702265 
Q 123.810555 201.702265 123.430555 201.324765 
Q 123.053055 200.944765 123.053055 200.404765 
Q 123.053055 199.867265 123.430555 199.484765 
Q 123.810555 199.099765 124.350555 199.099765 
z
M 126.748055 197.514765 
L 131.780555 190.694765 
L 132.733055 190.694765 
L 132.733055 197.514765 
L 133.703055 197.514765 
L 133.703055 199.132265 
L 132.733055 199.132265 
L 132.733055 201.507265 
L 130.585555 201.507265 
L 130.585555 199.132265 
L 126.748055 199.132265 
L 126.748055 197.514765 
z
M 127.508055 197.514765 
L 130.585555 197.514765 
L 130.585555 193.334765 
L 127.508055 197.514765 
z
" style="stroke: #ffffff; stroke-width: 3.8"/>
    <path d="M 108.788055 190.912265 
L 113.748055 190.912265 
L 112.960555 192.929765 
L 108.788055 192.929765 
L 108.390555 193.984765 
Q 111.085555 194.084765 112.538055 195.327265 
Q 113.733055 196.349765 113.733055 197.874765 
Q 113.733055 198.849765 113.178055 199.784765 
Q 112.623055 200.717265 111.615555 201.222265 
Q 110.608055 201.727265 109.405555 201.727265 
Q 108.108055 201.727265 107.413055 201.242265 
Q 106.928055 200.897265 106.928055 200.459765 
Q 106.928055 200.124765 107.180555 199.867265 
Q 107.435555 199.609765 107.773055 199.609765 
Q 108.078055 199.609765 108.390555 199.734765 
Q 108.703055 199.859765 109.460555 200.389765 
Q 109.935555 200.717265 110.280555 200.842265 
Q 110.523055 200.937265 110.828055 200.937265 
Q 111.468055 200.937265 111.915555 200.469765 
Q 112.365555 199.999765 112.365555 199.342265 
Q 112.365555 197.967265 110.990555 197.109765 
Q 109.615555 196.249765 107.523055 196.249765 
Q 107.310555 196.249765 106.890555 196.257265 
L 108.788055 190.912265 
z
M 116.718055 196.194765 
L 116.718055 195.922265 
Q 117.608055 195.662265 117.950555 195.439765 
Q 118.295555 195.217265 118.545555 194.762265 
Q 118.795555 194.304765 118.795555 193.834765 
Q 118.795555 193.187265 118.323055 192.722265 
Q 117.850555 192.257265 117.148055 192.257265 
Q 116.053055 192.257265 115.288055 193.412265 
L 114.998055 193.312265 
Q 115.560555 192.007265 116.440555 191.352265 
Q 117.320555 190.694765 118.398055 190.694765 
Q 119.498055 190.694765 120.213055 191.367265 
Q 120.928055 192.037265 120.928055 192.937265 
Q 120.928055 193.522265 120.595555 194.067265 
Q 120.265555 194.609765 119.553055 195.022265 
Q 120.468055 195.467265 120.948055 196.119765 
Q 121.428055 196.772265 121.428055 197.757265 
Q 121.428055 199.412265 120.228055 200.574765 
Q 119.030555 201.734765 117.015555 201.734765 
Q 115.670555 201.734765 115.053055 201.287265 
Q 114.608055 200.974765 114.608055 200.484765 
Q 114.608055 200.124765 114.865555 199.872265 
Q 115.123055 199.617265 115.460555 199.617265 
Q 115.718055 199.617265 115.945555 199.724765 
Q 116.070555 199.787265 116.830555 200.409765 
Q 117.593055 201.029765 118.258055 201.029765 
Q 118.835555 201.029765 119.248055 200.574765 
Q 119.663055 200.117265 119.663055 199.412265 
Q 119.663055 198.342265 118.913055 197.439765 
Q 118.163055 196.537265 116.718055 196.194765 
z
M 124.350555 199.099765 
Q 124.898055 199.099765 125.275555 199.484765 
Q 125.655555 199.867265 125.655555 200.404765 
Q 125.655555 200.944765 125.273055 201.324765 
Q 124.890555 201.702265 124.350555 201.702265 
Q 123.810555 201.702265 123.430555 201.324765 
Q 123.053055 200.944765 123.053055 200.404765 
Q 123.053055 199.867265 123.430555 199.484765 
Q 123.810555 199.099765 124.350555 199.099765 
z
M 126.748055 197.514765 
L 131.780555 190.694765 
L 132.733055 190.694765 
L 132.733055 197.514765 
L 133.703055 197.514765 
L 133.703055 199.132265 
L 132.733055 199.132265 
L 132.733055 201.507265 
L 130.585555 201.507265 
L 130.585555 199.132265 
L 126.748055 199.132265 
L 126.748055 197.514765 
z
M 127.508055 197.514765 
L 130.585555 197.514765 
L 130.585555 193.334765 
L 127.508055 197.514765 
z
"/>
   </g>
   <g id="text_25">
    <path d="M 362.849697 249.10797 
L 356.614697 249.10797 
L 356.614697 248.93547 
Q 359.482197 245.52297 360.094697 244.34297 
Q 360.709697 243.16297 360.709697 242.03797 
Q 360.709697 241.21797 360.202197 240.67547 
Q 359.694697 240.13047 358.959697 240.13047 
Q 357.757197 240.13047 357.092197 241.33547 
L 356.802197 241.23297 
Q 357.224697 239.73297 358.084697 239.01547 
Q 358.944697 238.29547 360.069697 238.29547 
Q 360.872197 238.29547 361.537197 238.67047 
Q 362.202197 239.04547 362.577197 239.69797 
Q 362.952197 240.35047 362.952197 240.92047 
Q 362.952197 241.96047 362.372197 243.03047 
Q 361.584697 244.47547 358.927197 247.06047 
L 361.217197 247.06047 
Q 362.059697 247.06047 362.314697 246.99047 
Q 362.569697 246.92047 362.732197 246.75297 
Q 362.897197 246.58547 363.162197 246.04547 
L 363.444697 246.04547 
L 362.849697 249.10797 
z
M 369.677197 243.12297 
Q 370.794697 243.94297 371.227197 244.65047 
Q 371.662197 245.35797 371.662197 246.27297 
Q 371.662197 247.55297 370.697197 248.44047 
Q 369.732197 249.32797 368.077197 249.32797 
Q 366.507197 249.32797 365.647197 248.55547 
Q 364.787197 247.78047 364.787197 246.66297 
Q 364.787197 245.81047 365.282197 245.17047 
Q 365.779697 244.53047 366.934697 243.99797 
Q 365.677197 243.03797 365.322197 242.42797 
Q 364.967197 241.81797 364.967197 241.01297 
Q 364.967197 239.95047 365.869697 239.14297 
Q 366.772197 238.33547 368.342197 238.33547 
Q 369.857197 238.33547 370.672197 239.05047 
Q 371.489697 239.76297 371.489697 240.76297 
Q 371.489697 241.51297 371.047197 242.08797 
Q 370.607197 242.66297 369.677197 243.12297 
z
M 369.084697 242.72547 
Q 369.372197 242.33547 369.512197 241.85047 
Q 369.654697 241.36547 369.654697 240.78797 
Q 369.654697 239.77297 369.217197 239.23297 
Q 368.889697 238.81797 368.309697 238.81797 
Q 367.787197 238.81797 367.419697 239.19797 
Q 367.052197 239.57547 367.052197 240.13797 
Q 367.052197 240.71047 367.462197 241.32297 
Q 367.872197 241.93547 369.084697 242.72547 
z
M 367.522197 244.37297 
Q 367.279697 244.59297 367.177197 244.77297 
Q 367.022197 245.04547 366.897197 245.57047 
Q 366.772197 246.09297 366.772197 246.66297 
Q 366.772197 247.39797 366.959697 247.89297 
Q 367.147197 248.38797 367.494697 248.60797 
Q 367.842197 248.82547 368.209697 248.82547 
Q 368.779697 248.82547 369.169697 248.40797 
Q 369.559697 247.99047 369.559697 247.26297 
Q 369.559697 245.74797 367.522197 244.37297 
z
M 374.224697 246.70047 
Q 374.772197 246.70047 375.149697 247.08547 
Q 375.529697 247.46797 375.529697 248.00547 
Q 375.529697 248.54547 375.147197 248.92547 
Q 374.764697 249.30297 374.224697 249.30297 
Q 373.684697 249.30297 373.304697 248.92547 
Q 372.927197 248.54547 372.927197 248.00547 
Q 372.927197 247.46797 373.304697 247.08547 
Q 373.684697 246.70047 374.224697 246.70047 
z
M 381.434697 238.29547 
L 381.434697 246.96047 
Q 381.434697 247.93547 381.519697 248.20547 
Q 381.607197 248.47547 381.879697 248.64797 
Q 382.154697 248.81797 382.757197 248.81797 
L 382.997197 248.81797 
L 382.997197 249.10797 
L 377.419697 249.10797 
L 377.419697 248.81797 
L 377.702197 248.81797 
Q 378.382197 248.81797 378.669697 248.66297 
Q 378.959697 248.50547 379.059697 248.23297 
Q 379.162197 247.96047 379.162197 246.96047 
L 379.162197 241.46797 
Q 379.162197 240.73297 379.092197 240.55047 
Q 379.022197 240.36547 378.829697 240.23797 
Q 378.639697 240.10797 378.389697 240.10797 
Q 377.989697 240.10797 377.419697 240.35797 
L 377.279697 240.07547 
L 381.177197 238.29547 
L 381.434697 238.29547 
z
" style="stroke: #ffffff; stroke-width: 3.8"/>
    <path d="M 362.849697 249.10797 
L 356.614697 249.10797 
L 356.614697 248.93547 
Q 359.482197 245.52297 360.094697 244.34297 
Q 360.709697 243.16297 360.709697 242.03797 
Q 360.709697 241.21797 360.202197 240.67547 
Q 359.694697 240.13047 358.959697 240.13047 
Q 357.757197 240.13047 357.092197 241.33547 
L 356.802197 241.23297 
Q 357.224697 239.73297 358.084697 239.01547 
Q 358.944697 238.29547 360.069697 238.29547 
Q 360.872197 238.29547 361.537197 238.67047 
Q 362.202197 239.04547 362.577197 239.69797 
Q 362.952197 240.35047 362.952197 240.92047 
Q 362.952197 241.96047 362.372197 243.03047 
Q 361.584697 244.47547 358.927197 247.06047 
L 361.217197 247.06047 
Q 362.059697 247.06047 362.314697 246.99047 
Q 362.569697 246.92047 362.732197 246.75297 
Q 362.897197 246.58547 363.162197 246.04547 
L 363.444697 246.04547 
L 362.849697 249.10797 
z
M 369.677197 243.12297 
Q 370.794697 243.94297 371.227197 244.65047 
Q 371.662197 245.35797 371.662197 246.27297 
Q 371.662197 247.55297 370.697197 248.44047 
Q 369.732197 249.32797 368.077197 249.32797 
Q 366.507197 249.32797 365.647197 248.55547 
Q 364.787197 247.78047 364.787197 246.66297 
Q 364.787197 245.81047 365.282197 245.17047 
Q 365.779697 244.53047 366.934697 243.99797 
Q 365.677197 243.03797 365.322197 242.42797 
Q 364.967197 241.81797 364.967197 241.01297 
Q 364.967197 239.95047 365.869697 239.14297 
Q 366.772197 238.33547 368.342197 238.33547 
Q 369.857197 238.33547 370.672197 239.05047 
Q 371.489697 239.76297 371.489697 240.76297 
Q 371.489697 241.51297 371.047197 242.08797 
Q 370.607197 242.66297 369.677197 243.12297 
z
M 369.084697 242.72547 
Q 369.372197 242.33547 369.512197 241.85047 
Q 369.654697 241.36547 369.654697 240.78797 
Q 369.654697 239.77297 369.217197 239.23297 
Q 368.889697 238.81797 368.309697 238.81797 
Q 367.787197 238.81797 367.419697 239.19797 
Q 367.052197 239.57547 367.052197 240.13797 
Q 367.052197 240.71047 367.462197 241.32297 
Q 367.872197 241.93547 369.084697 242.72547 
z
M 367.522197 244.37297 
Q 367.279697 244.59297 367.177197 244.77297 
Q 367.022197 245.04547 366.897197 245.57047 
Q 366.772197 246.09297 366.772197 246.66297 
Q 366.772197 247.39797 366.959697 247.89297 
Q 367.147197 248.38797 367.494697 248.60797 
Q 367.842197 248.82547 368.209697 248.82547 
Q 368.779697 248.82547 369.169697 248.40797 
Q 369.559697 247.99047 369.559697 247.26297 
Q 369.559697 245.74797 367.522197 244.37297 
z
M 374.224697 246.70047 
Q 374.772197 246.70047 375.149697 247.08547 
Q 375.529697 247.46797 375.529697 248.00547 
Q 375.529697 248.54547 375.147197 248.92547 
Q 374.764697 249.30297 374.224697 249.30297 
Q 373.684697 249.30297 373.304697 248.92547 
Q 372.927197 248.54547 372.927197 248.00547 
Q 372.927197 247.46797 373.304697 247.08547 
Q 373.684697 246.70047 374.224697 246.70047 
z
M 381.434697 238.29547 
L 381.434697 246.96047 
Q 381.434697 247.93547 381.519697 248.20547 
Q 381.607197 248.47547 381.879697 248.64797 
Q 382.154697 248.81797 382.757197 248.81797 
L 382.997197 248.81797 
L 382.997197 249.10797 
L 377.419697 249.10797 
L 377.419697 248.81797 
L 377.702197 248.81797 
Q 378.382197 248.81797 378.669697 248.66297 
Q 378.959697 248.50547 379.059697 248.23297 
Q 379.162197 247.96047 379.162197 246.96047 
L 379.162197 241.46797 
Q 379.162197 240.73297 379.092197 240.55047 
Q 379.022197 240.36547 378.829697 240.23797 
Q 378.639697 240.10797 378.389697 240.10797 
Q 377.989697 240.10797 377.419697 240.35797 
L 377.279697 240.07547 
L 381.177197 238.29547 
L 381.434697 238.29547 
z
"/>
   </g>
   <g id="text_26">
    <path d="M 358.662197 166.539979 
L 363.622197 166.539979 
L 362.834697 168.557479 
L 358.662197 168.557479 
L 358.264697 169.612479 
Q 360.959697 169.712479 362.412197 170.954979 
Q 363.607197 171.977479 363.607197 173.502479 
Q 363.607197 174.477479 363.052197 175.412479 
Q 362.497197 176.344979 361.489697 176.849979 
Q 360.482197 177.354979 359.279697 177.354979 
Q 357.982197 177.354979 357.287197 176.869979 
Q 356.802197 176.524979 356.802197 176.087479 
Q 356.802197 175.752479 357.054697 175.494979 
Q 357.309697 175.237479 357.647197 175.237479 
Q 357.952197 175.237479 358.264697 175.362479 
Q 358.577197 175.487479 359.334697 176.017479 
Q 359.809697 176.344979 360.154697 176.469979 
Q 360.397197 176.564979 360.702197 176.564979 
Q 361.342197 176.564979 361.789697 176.097479 
Q 362.239697 175.627479 362.239697 174.969979 
Q 362.239697 173.594979 360.864697 172.737479 
Q 359.489697 171.877479 357.397197 171.877479 
Q 357.184697 171.877479 356.764697 171.884979 
L 358.662197 166.539979 
z
M 369.434697 166.322479 
L 369.434697 174.987479 
Q 369.434697 175.962479 369.519697 176.232479 
Q 369.607197 176.502479 369.879697 176.674979 
Q 370.154697 176.844979 370.757197 176.844979 
L 370.997197 176.844979 
L 370.997197 177.134979 
L 365.419697 177.134979 
L 365.419697 176.844979 
L 365.702197 176.844979 
Q 366.382197 176.844979 366.669697 176.689979 
Q 366.959697 176.532479 367.059697 176.259979 
Q 367.162197 175.987479 367.162197 174.987479 
L 367.162197 169.494979 
Q 367.162197 168.759979 367.092197 168.577479 
Q 367.022197 168.392479 366.829697 168.264979 
Q 366.639697 168.134979 366.389697 168.134979 
Q 365.989697 168.134979 365.419697 168.384979 
L 365.279697 168.102479 
L 369.177197 166.322479 
L 369.434697 166.322479 
z
M 374.224697 174.727479 
Q 374.772197 174.727479 375.149697 175.112479 
Q 375.529697 175.494979 375.529697 176.032479 
Q 375.529697 176.572479 375.147197 176.952479 
Q 374.764697 177.329979 374.224697 177.329979 
Q 373.684697 177.329979 373.304697 176.952479 
Q 372.927197 176.572479 372.927197 176.032479 
Q 372.927197 175.494979 373.304697 175.112479 
Q 373.684697 174.727479 374.224697 174.727479 
z
M 383.739697 166.322479 
L 383.739697 166.539979 
Q 382.327197 166.899979 381.469697 167.467479 
Q 380.614697 168.032479 380.117197 168.842479 
Q 379.622197 169.649979 379.349697 170.844979 
Q 379.694697 170.612479 379.919697 170.539979 
Q 380.427197 170.384979 380.944697 170.384979 
Q 382.132197 170.384979 382.924697 171.249979 
Q 383.717197 172.112479 383.717197 173.602479 
Q 383.717197 174.649979 383.287197 175.524979 
Q 382.857197 176.399979 382.067197 176.877479 
Q 381.279697 177.354979 380.382197 177.354979 
Q 379.404697 177.354979 378.574697 176.819979 
Q 377.747197 176.282479 377.282197 175.252479 
Q 376.819697 174.219979 376.819697 173.009979 
Q 376.819697 171.227479 377.674697 169.692479 
Q 378.529697 168.157479 380.102197 167.247479 
Q 381.677197 166.337479 383.739697 166.322479 
z
M 379.247197 171.477479 
Q 379.184697 172.557479 379.184697 173.057479 
Q 379.184697 174.134979 379.392197 175.142479 
Q 379.599697 176.149979 379.959697 176.557479 
Q 380.217197 176.844979 380.569697 176.844979 
Q 380.927197 176.844979 381.207197 176.427479 
Q 381.489697 176.009979 381.489697 174.727479 
Q 381.489697 172.572479 380.967197 171.752479 
Q 380.632197 171.219979 380.059697 171.219979 
Q 379.747197 171.219979 379.247197 171.477479 
z
" style="stroke: #ffffff; stroke-width: 3.8"/>
    <path d="M 358.662197 166.539979 
L 363.622197 166.539979 
L 362.834697 168.557479 
L 358.662197 168.557479 
L 358.264697 169.612479 
Q 360.959697 169.712479 362.412197 170.954979 
Q 363.607197 171.977479 363.607197 173.502479 
Q 363.607197 174.477479 363.052197 175.412479 
Q 362.497197 176.344979 361.489697 176.849979 
Q 360.482197 177.354979 359.279697 177.354979 
Q 357.982197 177.354979 357.287197 176.869979 
Q 356.802197 176.524979 356.802197 176.087479 
Q 356.802197 175.752479 357.054697 175.494979 
Q 357.309697 175.237479 357.647197 175.237479 
Q 357.952197 175.237479 358.264697 175.362479 
Q 358.577197 175.487479 359.334697 176.017479 
Q 359.809697 176.344979 360.154697 176.469979 
Q 360.397197 176.564979 360.702197 176.564979 
Q 361.342197 176.564979 361.789697 176.097479 
Q 362.239697 175.627479 362.239697 174.969979 
Q 362.239697 173.594979 360.864697 172.737479 
Q 359.489697 171.877479 357.397197 171.877479 
Q 357.184697 171.877479 356.764697 171.884979 
L 358.662197 166.539979 
z
M 369.434697 166.322479 
L 369.434697 174.987479 
Q 369.434697 175.962479 369.519697 176.232479 
Q 369.607197 176.502479 369.879697 176.674979 
Q 370.154697 176.844979 370.757197 176.844979 
L 370.997197 176.844979 
L 370.997197 177.134979 
L 365.419697 177.134979 
L 365.419697 176.844979 
L 365.702197 176.844979 
Q 366.382197 176.844979 366.669697 176.689979 
Q 366.959697 176.532479 367.059697 176.259979 
Q 367.162197 175.987479 367.162197 174.987479 
L 367.162197 169.494979 
Q 367.162197 168.759979 367.092197 168.577479 
Q 367.022197 168.392479 366.829697 168.264979 
Q 366.639697 168.134979 366.389697 168.134979 
Q 365.989697 168.134979 365.419697 168.384979 
L 365.279697 168.102479 
L 369.177197 166.322479 
L 369.434697 166.322479 
z
M 374.224697 174.727479 
Q 374.772197 174.727479 375.149697 175.112479 
Q 375.529697 175.494979 375.529697 176.032479 
Q 375.529697 176.572479 375.147197 176.952479 
Q 374.764697 177.329979 374.224697 177.329979 
Q 373.684697 177.329979 373.304697 176.952479 
Q 372.927197 176.572479 372.927197 176.032479 
Q 372.927197 175.494979 373.304697 175.112479 
Q 373.684697 174.727479 374.224697 174.727479 
z
M 383.739697 166.322479 
L 383.739697 166.539979 
Q 382.327197 166.899979 381.469697 167.467479 
Q 380.614697 168.032479 380.117197 168.842479 
Q 379.622197 169.649979 379.349697 170.844979 
Q 379.694697 170.612479 379.919697 170.539979 
Q 380.427197 170.384979 380.944697 170.384979 
Q 382.132197 170.384979 382.924697 171.249979 
Q 383.717197 172.112479 383.717197 173.602479 
Q 383.717197 174.649979 383.287197 175.524979 
Q 382.857197 176.399979 382.067197 176.877479 
Q 381.279697 177.354979 380.382197 177.354979 
Q 379.404697 177.354979 378.574697 176.819979 
Q 377.747197 176.282479 377.282197 175.252479 
Q 376.819697 174.219979 376.819697 173.009979 
Q 376.819697 171.227479 377.674697 169.692479 
Q 378.529697 168.157479 380.102197 167.247479 
Q 381.677197 166.337479 383.739697 166.322479 
z
M 379.247197 171.477479 
Q 379.184697 172.557479 379.184697 173.057479 
Q 379.184697 174.134979 379.392197 175.142479 
Q 379.599697 176.149979 379.959697 176.557479 
Q 380.217197 176.844979 380.569697 176.844979 
Q 380.927197 176.844979 381.207197 176.427479 
Q 381.489697 176.009979 381.489697 174.727479 
Q 381.489697 172.572479 380.967197 171.752479 
Q 380.632197 171.219979 380.059697 171.219979 
Q 379.747197 171.219979 379.247197 171.477479 
z
"/>
   </g>
   <g id="text_27">
    <path d="M 359.059697 102.682778 
L 361.944697 93.940278 
L 359.747197 93.940278 
Q 358.459697 93.940278 357.809697 94.275278 
Q 357.357197 94.510278 357.059697 95.157778 
L 356.764697 95.157778 
L 357.529697 91.867778 
L 363.842197 91.867778 
L 360.287197 102.682778 
L 359.059697 102.682778 
z
M 371.639697 97.165278 
Q 371.639697 98.752778 371.194697 100.127778 
Q 370.927197 100.970278 370.477197 101.510278 
Q 370.029697 102.047778 369.459697 102.365278 
Q 368.889697 102.682778 368.217197 102.682778 
Q 367.452197 102.682778 366.834697 102.292778 
Q 366.217197 101.900278 365.739697 101.172778 
Q 365.397197 100.642778 365.139697 99.760278 
Q 364.802197 98.565278 364.802197 97.290278 
Q 364.802197 95.565278 365.287197 94.117778 
Q 365.684697 92.922778 366.497197 92.287778 
Q 367.309697 91.650278 368.217197 91.650278 
Q 369.139697 91.650278 369.939697 92.280278 
Q 370.739697 92.907778 371.114697 93.970278 
Q 371.639697 95.430278 371.639697 97.165278 
z
M 369.232197 97.150278 
Q 369.232197 94.367778 369.202197 93.907778 
Q 369.122197 92.822778 368.827197 92.440278 
Q 368.632197 92.190278 368.194697 92.190278 
Q 367.857197 92.190278 367.662197 92.377778 
Q 367.372197 92.650278 367.269697 93.342778 
Q 367.169697 94.032778 367.169697 98.165278 
Q 367.169697 100.415278 367.327197 101.180278 
Q 367.444697 101.735278 367.662197 101.922778 
Q 367.882197 102.110278 368.239697 102.110278 
Q 368.632197 102.110278 368.827197 101.860278 
Q 369.154697 101.422778 369.202197 100.510278 
L 369.232197 97.150278 
z
M 374.224697 100.055278 
Q 374.772197 100.055278 375.149697 100.440278 
Q 375.529697 100.822778 375.529697 101.360278 
Q 375.529697 101.900278 375.147197 102.280278 
Q 374.764697 102.657778 374.224697 102.657778 
Q 373.684697 102.657778 373.304697 102.280278 
Q 372.927197 101.900278 372.927197 101.360278 
Q 372.927197 100.822778 373.304697 100.440278 
Q 373.684697 100.055278 374.224697 100.055278 
z
M 383.739697 91.650278 
L 383.739697 91.867778 
Q 382.327197 92.227778 381.469697 92.795278 
Q 380.614697 93.360278 380.117197 94.170278 
Q 379.622197 94.977778 379.349697 96.172778 
Q 379.694697 95.940278 379.919697 95.867778 
Q 380.427197 95.712778 380.944697 95.712778 
Q 382.132197 95.712778 382.924697 96.577778 
Q 383.717197 97.440278 383.717197 98.930278 
Q 383.717197 99.977778 383.287197 100.852778 
Q 382.857197 101.727778 382.067197 102.205278 
Q 381.279697 102.682778 380.382197 102.682778 
Q 379.404697 102.682778 378.574697 102.147778 
Q 377.747197 101.610278 377.282197 100.580278 
Q 376.819697 99.547778 376.819697 98.337778 
Q 376.819697 96.555278 377.674697 95.020278 
Q 378.529697 93.485278 380.102197 92.575278 
Q 381.677197 91.665278 383.739697 91.650278 
z
M 379.247197 96.805278 
Q 379.184697 97.885278 379.184697 98.385278 
Q 379.184697 99.462778 379.392197 100.470278 
Q 379.599697 101.477778 379.959697 101.885278 
Q 380.217197 102.172778 380.569697 102.172778 
Q 380.927197 102.172778 381.207197 101.755278 
Q 381.489697 101.337778 381.489697 100.055278 
Q 381.489697 97.900278 380.967197 97.080278 
Q 380.632197 96.547778 380.059697 96.547778 
Q 379.747197 96.547778 379.247197 96.805278 
z
" style="stroke: #ffffff; stroke-width: 3.8"/>
    <path d="M 359.059697 102.682778 
L 361.944697 93.940278 
L 359.747197 93.940278 
Q 358.459697 93.940278 357.809697 94.275278 
Q 357.357197 94.510278 357.059697 95.157778 
L 356.764697 95.157778 
L 357.529697 91.867778 
L 363.842197 91.867778 
L 360.287197 102.682778 
L 359.059697 102.682778 
z
M 371.639697 97.165278 
Q 371.639697 98.752778 371.194697 100.127778 
Q 370.927197 100.970278 370.477197 101.510278 
Q 370.029697 102.047778 369.459697 102.365278 
Q 368.889697 102.682778 368.217197 102.682778 
Q 367.452197 102.682778 366.834697 102.292778 
Q 366.217197 101.900278 365.739697 101.172778 
Q 365.397197 100.642778 365.139697 99.760278 
Q 364.802197 98.565278 364.802197 97.290278 
Q 364.802197 95.565278 365.287197 94.117778 
Q 365.684697 92.922778 366.497197 92.287778 
Q 367.309697 91.650278 368.217197 91.650278 
Q 369.139697 91.650278 369.939697 92.280278 
Q 370.739697 92.907778 371.114697 93.970278 
Q 371.639697 95.430278 371.639697 97.165278 
z
M 369.232197 97.150278 
Q 369.232197 94.367778 369.202197 93.907778 
Q 369.122197 92.822778 368.827197 92.440278 
Q 368.632197 92.190278 368.194697 92.190278 
Q 367.857197 92.190278 367.662197 92.377778 
Q 367.372197 92.650278 367.269697 93.342778 
Q 367.169697 94.032778 367.169697 98.165278 
Q 367.169697 100.415278 367.327197 101.180278 
Q 367.444697 101.735278 367.662197 101.922778 
Q 367.882197 102.110278 368.239697 102.110278 
Q 368.632197 102.110278 368.827197 101.860278 
Q 369.154697 101.422778 369.202197 100.510278 
L 369.232197 97.150278 
z
M 374.224697 100.055278 
Q 374.772197 100.055278 375.149697 100.440278 
Q 375.529697 100.822778 375.529697 101.360278 
Q 375.529697 101.900278 375.147197 102.280278 
Q 374.764697 102.657778 374.224697 102.657778 
Q 373.684697 102.657778 373.304697 102.280278 
Q 372.927197 101.900278 372.927197 101.360278 
Q 372.927197 100.822778 373.304697 100.440278 
Q 373.684697 100.055278 374.224697 100.055278 
z
M 383.739697 91.650278 
L 383.739697 91.867778 
Q 382.327197 92.227778 381.469697 92.795278 
Q 380.614697 93.360278 380.117197 94.170278 
Q 379.622197 94.977778 379.349697 96.172778 
Q 379.694697 95.940278 379.919697 95.867778 
Q 380.427197 95.712778 380.944697 95.712778 
Q 382.132197 95.712778 382.924697 96.577778 
Q 383.717197 97.440278 383.717197 98.930278 
Q 383.717197 99.977778 383.287197 100.852778 
Q 382.857197 101.727778 382.067197 102.205278 
Q 381.279697 102.682778 380.382197 102.682778 
Q 379.404697 102.682778 378.574697 102.147778 
Q 377.747197 101.610278 377.282197 100.580278 
Q 376.819697 99.547778 376.819697 98.337778 
Q 376.819697 96.555278 377.674697 95.020278 
Q 378.529697 93.485278 380.102197 92.575278 
Q 381.677197 91.665278 383.739697 91.650278 
z
M 379.247197 96.805278 
Q 379.184697 97.885278 379.184697 98.385278 
Q 379.184697 99.462778 379.392197 100.470278 
Q 379.599697 101.477778 379.959697 101.885278 
Q 380.217197 102.172778 380.569697 102.172778 
Q 380.927197 102.172778 381.207197 101.755278 
Q 381.489697 101.337778 381.489697 100.055278 
Q 381.489697 97.900278 380.967197 97.080278 
Q 380.632197 96.547778 380.059697 96.547778 
Q 379.747197 96.547778 379.247197 96.805278 
z
"/>
   </g>
   <g id="text_28">
    <path d="M 574.521172 209.140817 
L 574.521172 208.868317 
Q 575.411172 208.608317 575.753672 208.385817 
Q 576.098672 208.163317 576.348672 207.708317 
Q 576.598672 207.250817 576.598672 206.780817 
Q 576.598672 206.133317 576.126172 205.668317 
Q 575.653672 205.203317 574.951172 205.203317 
Q 573.856172 205.203317 573.091172 206.358317 
L 572.801172 206.258317 
Q 573.363672 204.953317 574.243672 204.298317 
Q 575.123672 203.640817 576.201172 203.640817 
Q 577.301172 203.640817 578.016172 204.313317 
Q 578.731172 204.983317 578.731172 205.883317 
Q 578.731172 206.468317 578.398672 207.013317 
Q 578.068672 207.555817 577.356172 207.968317 
Q 578.271172 208.413317 578.751172 209.065817 
Q 579.231172 209.718317 579.231172 210.703317 
Q 579.231172 212.358317 578.031172 213.520817 
Q 576.833672 214.680817 574.818672 214.680817 
Q 573.473672 214.680817 572.856172 214.233317 
Q 572.411172 213.920817 572.411172 213.430817 
Q 572.411172 213.070817 572.668672 212.818317 
Q 572.926172 212.563317 573.263672 212.563317 
Q 573.521172 212.563317 573.748672 212.670817 
Q 573.873672 212.733317 574.633672 213.355817 
Q 575.396172 213.975817 576.061172 213.975817 
Q 576.638672 213.975817 577.051172 213.520817 
Q 577.466172 213.063317 577.466172 212.358317 
Q 577.466172 211.288317 576.716172 210.385817 
Q 575.966172 209.483317 574.521172 209.140817 
z
M 585.363672 203.640817 
L 585.363672 212.305817 
Q 585.363672 213.280817 585.448672 213.550817 
Q 585.536172 213.820817 585.808672 213.993317 
Q 586.083672 214.163317 586.686172 214.163317 
L 586.926172 214.163317 
L 586.926172 214.453317 
L 581.348672 214.453317 
L 581.348672 214.163317 
L 581.631172 214.163317 
Q 582.311172 214.163317 582.598672 214.008317 
Q 582.888672 213.850817 582.988672 213.578317 
Q 583.091172 213.305817 583.091172 212.305817 
L 583.091172 206.813317 
Q 583.091172 206.078317 583.021172 205.895817 
Q 582.951172 205.710817 582.758672 205.583317 
Q 582.568672 205.453317 582.318672 205.453317 
Q 581.918672 205.453317 581.348672 205.703317 
L 581.208672 205.420817 
L 585.106172 203.640817 
L 585.363672 203.640817 
z
M 590.153672 212.045817 
Q 590.701172 212.045817 591.078672 212.430817 
Q 591.458672 212.813317 591.458672 213.350817 
Q 591.458672 213.890817 591.076172 214.270817 
Q 590.693672 214.648317 590.153672 214.648317 
Q 589.613672 214.648317 589.233672 214.270817 
Q 588.856172 213.890817 588.856172 213.350817 
Q 588.856172 212.813317 589.233672 212.430817 
Q 589.613672 212.045817 590.153672 212.045817 
z
M 592.551172 210.460817 
L 597.583672 203.640817 
L 598.536172 203.640817 
L 598.536172 210.460817 
L 599.506172 210.460817 
L 599.506172 212.078317 
L 598.536172 212.078317 
L 598.536172 214.453317 
L 596.388672 214.453317 
L 596.388672 212.078317 
L 592.551172 212.078317 
L 592.551172 210.460817 
z
M 593.311172 210.460817 
L 596.388672 210.460817 
L 596.388672 206.280817 
L 593.311172 210.460817 
z
" style="stroke: #ffffff; stroke-width: 3.8"/>
    <path d="M 574.521172 209.140817 
L 574.521172 208.868317 
Q 575.411172 208.608317 575.753672 208.385817 
Q 576.098672 208.163317 576.348672 207.708317 
Q 576.598672 207.250817 576.598672 206.780817 
Q 576.598672 206.133317 576.126172 205.668317 
Q 575.653672 205.203317 574.951172 205.203317 
Q 573.856172 205.203317 573.091172 206.358317 
L 572.801172 206.258317 
Q 573.363672 204.953317 574.243672 204.298317 
Q 575.123672 203.640817 576.201172 203.640817 
Q 577.301172 203.640817 578.016172 204.313317 
Q 578.731172 204.983317 578.731172 205.883317 
Q 578.731172 206.468317 578.398672 207.013317 
Q 578.068672 207.555817 577.356172 207.968317 
Q 578.271172 208.413317 578.751172 209.065817 
Q 579.231172 209.718317 579.231172 210.703317 
Q 579.231172 212.358317 578.031172 213.520817 
Q 576.833672 214.680817 574.818672 214.680817 
Q 573.473672 214.680817 572.856172 214.233317 
Q 572.411172 213.920817 572.411172 213.430817 
Q 572.411172 213.070817 572.668672 212.818317 
Q 572.926172 212.563317 573.263672 212.563317 
Q 573.521172 212.563317 573.748672 212.670817 
Q 573.873672 212.733317 574.633672 213.355817 
Q 575.396172 213.975817 576.061172 213.975817 
Q 576.638672 213.975817 577.051172 213.520817 
Q 577.466172 213.063317 577.466172 212.358317 
Q 577.466172 211.288317 576.716172 210.385817 
Q 575.966172 209.483317 574.521172 209.140817 
z
M 585.363672 203.640817 
L 585.363672 212.305817 
Q 585.363672 213.280817 585.448672 213.550817 
Q 585.536172 213.820817 585.808672 213.993317 
Q 586.083672 214.163317 586.686172 214.163317 
L 586.926172 214.163317 
L 586.926172 214.453317 
L 581.348672 214.453317 
L 581.348672 214.163317 
L 581.631172 214.163317 
Q 582.311172 214.163317 582.598672 214.008317 
Q 582.888672 213.850817 582.988672 213.578317 
Q 583.091172 213.305817 583.091172 212.305817 
L 583.091172 206.813317 
Q 583.091172 206.078317 583.021172 205.895817 
Q 582.951172 205.710817 582.758672 205.583317 
Q 582.568672 205.453317 582.318672 205.453317 
Q 581.918672 205.453317 581.348672 205.703317 
L 581.208672 205.420817 
L 585.106172 203.640817 
L 585.363672 203.640817 
z
M 590.153672 212.045817 
Q 590.701172 212.045817 591.078672 212.430817 
Q 591.458672 212.813317 591.458672 213.350817 
Q 591.458672 213.890817 591.076172 214.270817 
Q 590.693672 214.648317 590.153672 214.648317 
Q 589.613672 214.648317 589.233672 214.270817 
Q 588.856172 213.890817 588.856172 213.350817 
Q 588.856172 212.813317 589.233672 212.430817 
Q 589.613672 212.045817 590.153672 212.045817 
z
M 592.551172 210.460817 
L 597.583672 203.640817 
L 598.536172 203.640817 
L 598.536172 210.460817 
L 599.506172 210.460817 
L 599.506172 212.078317 
L 598.536172 212.078317 
L 598.536172 214.453317 
L 596.388672 214.453317 
L 596.388672 212.078317 
L 592.551172 212.078317 
L 592.551172 210.460817 
z
M 593.311172 210.460817 
L 596.388672 210.460817 
L 596.388672 206.280817 
L 593.311172 210.460817 
z
"/>
   </g>
   <g id="text_29">
    <path d="M 567.714298 374.509052 
Q 567.714298 375.997333 567.297111 377.286395 
Q 567.04633 378.076239 566.624455 378.582489 
Q 566.204923 379.086395 565.670548 379.384052 
Q 565.136173 379.681708 564.505705 379.681708 
Q 563.788517 379.681708 563.209611 379.316083 
Q 562.630705 378.948114 562.183048 378.266083 
Q 561.861955 377.769208 561.620548 376.941864 
Q 561.304142 375.821552 561.304142 374.626239 
Q 561.304142 373.009052 561.75883 371.65202 
Q 562.131486 370.531708 562.893205 369.936395 
Q 563.654923 369.338739 564.505705 369.338739 
Q 565.370548 369.338739 566.120548 369.929364 
Q 566.870548 370.517645 567.222111 371.513739 
Q 567.714298 372.882489 567.714298 374.509052 
z
M 565.457267 374.494989 
Q 565.457267 371.886395 565.429142 371.455145 
Q 565.354142 370.437958 565.07758 370.079364 
Q 564.894767 369.844989 564.484611 369.844989 
Q 564.168205 369.844989 563.985392 370.02077 
Q 563.713517 370.276239 563.617423 370.925458 
Q 563.523673 371.572333 563.523673 375.446552 
Q 563.523673 377.555927 563.67133 378.273114 
Q 563.781486 378.793427 563.985392 378.969208 
Q 564.191642 379.144989 564.526798 379.144989 
Q 564.894767 379.144989 565.07758 378.910614 
Q 565.384611 378.500458 565.429142 377.644989 
L 565.457267 374.494989 
z
M 570.137736 377.218427 
Q 570.651017 377.218427 571.004923 377.579364 
Q 571.361173 377.937958 571.361173 378.441864 
Q 571.361173 378.948114 571.00258 379.304364 
Q 570.643986 379.65827 570.137736 379.65827 
Q 569.631486 379.65827 569.275236 379.304364 
Q 568.92133 378.948114 568.92133 378.441864 
Q 568.92133 377.937958 569.275236 377.579364 
Q 569.631486 377.218427 570.137736 377.218427 
z
M 576.897111 369.338739 
L 576.897111 377.462177 
Q 576.897111 378.376239 576.976798 378.629364 
Q 577.05883 378.882489 577.314298 379.044208 
Q 577.572111 379.203583 578.136955 379.203583 
L 578.361955 379.203583 
L 578.361955 379.475458 
L 573.133048 379.475458 
L 573.133048 379.203583 
L 573.397892 379.203583 
Q 574.035392 379.203583 574.304923 379.05827 
Q 574.576798 378.910614 574.670548 378.655145 
Q 574.766642 378.399677 574.766642 377.462177 
L 574.766642 372.312958 
Q 574.766642 371.623895 574.701017 371.452802 
Q 574.635392 371.279364 574.454923 371.159833 
Q 574.276798 371.037958 574.042423 371.037958 
Q 573.667423 371.037958 573.133048 371.272333 
L 573.001798 371.007489 
L 576.655705 369.338739 
L 576.897111 369.338739 
z
" style="fill: #404040; stroke: #ffffff; stroke-width: 3.8"/>
    <path d="M 567.714298 374.509052 
Q 567.714298 375.997333 567.297111 377.286395 
Q 567.04633 378.076239 566.624455 378.582489 
Q 566.204923 379.086395 565.670548 379.384052 
Q 565.136173 379.681708 564.505705 379.681708 
Q 563.788517 379.681708 563.209611 379.316083 
Q 562.630705 378.948114 562.183048 378.266083 
Q 561.861955 377.769208 561.620548 376.941864 
Q 561.304142 375.821552 561.304142 374.626239 
Q 561.304142 373.009052 561.75883 371.65202 
Q 562.131486 370.531708 562.893205 369.936395 
Q 563.654923 369.338739 564.505705 369.338739 
Q 565.370548 369.338739 566.120548 369.929364 
Q 566.870548 370.517645 567.222111 371.513739 
Q 567.714298 372.882489 567.714298 374.509052 
z
M 565.457267 374.494989 
Q 565.457267 371.886395 565.429142 371.455145 
Q 565.354142 370.437958 565.07758 370.079364 
Q 564.894767 369.844989 564.484611 369.844989 
Q 564.168205 369.844989 563.985392 370.02077 
Q 563.713517 370.276239 563.617423 370.925458 
Q 563.523673 371.572333 563.523673 375.446552 
Q 563.523673 377.555927 563.67133 378.273114 
Q 563.781486 378.793427 563.985392 378.969208 
Q 564.191642 379.144989 564.526798 379.144989 
Q 564.894767 379.144989 565.07758 378.910614 
Q 565.384611 378.500458 565.429142 377.644989 
L 565.457267 374.494989 
z
M 570.137736 377.218427 
Q 570.651017 377.218427 571.004923 377.579364 
Q 571.361173 377.937958 571.361173 378.441864 
Q 571.361173 378.948114 571.00258 379.304364 
Q 570.643986 379.65827 570.137736 379.65827 
Q 569.631486 379.65827 569.275236 379.304364 
Q 568.92133 378.948114 568.92133 378.441864 
Q 568.92133 377.937958 569.275236 377.579364 
Q 569.631486 377.218427 570.137736 377.218427 
z
M 576.897111 369.338739 
L 576.897111 377.462177 
Q 576.897111 378.376239 576.976798 378.629364 
Q 577.05883 378.882489 577.314298 379.044208 
Q 577.572111 379.203583 578.136955 379.203583 
L 578.361955 379.203583 
L 578.361955 379.475458 
L 573.133048 379.475458 
L 573.133048 379.203583 
L 573.397892 379.203583 
Q 574.035392 379.203583 574.304923 379.05827 
Q 574.576798 378.910614 574.670548 378.655145 
Q 574.766642 378.399677 574.766642 377.462177 
L 574.766642 372.312958 
Q 574.766642 371.623895 574.701017 371.452802 
Q 574.635392 371.279364 574.454923 371.159833 
Q 574.276798 371.037958 574.042423 371.037958 
Q 573.667423 371.037958 573.133048 371.272333 
L 573.001798 371.007489 
L 576.655705 369.338739 
L 576.897111 369.338739 
z
" style="fill: #404040"/>
   </g>
   <g id="text_30">
    <path d="M 564.970361 317.490203 
L 564.970361 317.234735 
Q 565.804736 316.990985 566.12583 316.782391 
Q 566.449268 316.573797 566.683643 316.147235 
Q 566.918018 315.718328 566.918018 315.277703 
Q 566.918018 314.670672 566.475049 314.234735 
Q 566.03208 313.798797 565.373486 313.798797 
Q 564.346924 313.798797 563.629736 314.88161 
L 563.357861 314.78786 
Q 563.885205 313.564422 564.710205 312.95036 
Q 565.535205 312.333953 566.545361 312.333953 
Q 567.576611 312.333953 568.246924 312.964422 
Q 568.917236 313.592547 568.917236 314.436297 
Q 568.917236 314.984735 568.605518 315.495672 
Q 568.296143 316.004266 567.628174 316.390985 
Q 568.485986 316.808172 568.935986 317.419891 
Q 569.385986 318.03161 569.385986 318.955047 
Q 569.385986 320.50661 568.260986 321.596453 
Q 567.13833 322.683953 565.249268 322.683953 
Q 563.98833 322.683953 563.409424 322.264422 
Q 562.992236 321.971453 562.992236 321.512078 
Q 562.992236 321.174578 563.233643 320.93786 
Q 563.475049 320.698797 563.791455 320.698797 
Q 564.032861 320.698797 564.246143 320.799578 
Q 564.36333 320.858172 565.07583 321.441766 
Q 565.790674 322.023016 566.414111 322.023016 
Q 566.955518 322.023016 567.342236 321.596453 
Q 567.731299 321.167547 567.731299 320.50661 
Q 567.731299 319.503485 567.028174 318.657391 
Q 566.325049 317.811297 564.970361 317.490203 
z
M 572.535986 312.53786 
L 577.185986 312.53786 
L 576.447705 314.429266 
L 572.535986 314.429266 
L 572.16333 315.418328 
Q 574.689893 315.512078 576.051611 316.676922 
Q 577.171924 317.635516 577.171924 319.065203 
Q 577.171924 319.979266 576.651611 320.855828 
Q 576.131299 321.730047 575.186768 322.203485 
Q 574.242236 322.676922 573.114893 322.676922 
Q 571.898486 322.676922 571.246924 322.222235 
Q 570.792236 321.898797 570.792236 321.488641 
Q 570.792236 321.174578 571.028955 320.933172 
Q 571.268018 320.691766 571.584424 320.691766 
Q 571.870361 320.691766 572.16333 320.808953 
Q 572.456299 320.926141 573.166455 321.423016 
Q 573.611768 321.730047 573.935205 321.847235 
Q 574.162549 321.936297 574.448486 321.936297 
Q 575.048486 321.936297 575.468018 321.498016 
Q 575.889893 321.057391 575.889893 320.440985 
Q 575.889893 319.151922 574.60083 318.348016 
Q 573.311768 317.541766 571.350049 317.541766 
Q 571.15083 317.541766 570.75708 317.548797 
L 572.535986 312.53786 
z
M 579.62583 320.213641 
Q 580.139111 320.213641 580.493018 320.574578 
Q 580.849268 320.933172 580.849268 321.437078 
Q 580.849268 321.943328 580.490674 322.299578 
Q 580.13208 322.653485 579.62583 322.653485 
Q 579.11958 322.653485 578.76333 322.299578 
Q 578.409424 321.943328 578.409424 321.437078 
Q 578.409424 320.933172 578.76333 320.574578 
Q 579.11958 320.213641 579.62583 320.213641 
z
M 588.546143 312.333953 
L 588.546143 312.53786 
Q 587.221924 312.87536 586.418018 313.407391 
Q 585.616455 313.937078 585.150049 314.696453 
Q 584.685986 315.453485 584.430518 316.573797 
Q 584.753955 316.355828 584.964893 316.28786 
Q 585.440674 316.142547 585.92583 316.142547 
Q 587.039111 316.142547 587.78208 316.953485 
Q 588.525049 317.762078 588.525049 319.158953 
Q 588.525049 320.140985 588.121924 320.961297 
Q 587.718799 321.78161 586.978174 322.229266 
Q 586.239893 322.676922 585.398486 322.676922 
Q 584.48208 322.676922 583.703955 322.17536 
Q 582.928174 321.671453 582.492236 320.705828 
Q 582.058643 319.73786 582.058643 318.603485 
Q 582.058643 316.932391 582.860205 315.493328 
Q 583.661768 314.054266 585.135986 313.201141 
Q 586.612549 312.348016 588.546143 312.333953 
z
M 584.334424 317.166766 
Q 584.27583 318.179266 584.27583 318.648016 
Q 584.27583 319.658172 584.470361 320.602703 
Q 584.664893 321.547235 585.002393 321.929266 
Q 585.243799 322.198797 585.574268 322.198797 
Q 585.909424 322.198797 586.171924 321.807391 
Q 586.436768 321.415985 586.436768 320.213641 
Q 586.436768 318.193328 585.946924 317.424578 
Q 585.632861 316.92536 585.096143 316.92536 
Q 584.803174 316.92536 584.334424 317.166766 
z
" style="fill: #404040; stroke: #ffffff; stroke-width: 3.8"/>
    <path d="M 564.970361 317.490203 
L 564.970361 317.234735 
Q 565.804736 316.990985 566.12583 316.782391 
Q 566.449268 316.573797 566.683643 316.147235 
Q 566.918018 315.718328 566.918018 315.277703 
Q 566.918018 314.670672 566.475049 314.234735 
Q 566.03208 313.798797 565.373486 313.798797 
Q 564.346924 313.798797 563.629736 314.88161 
L 563.357861 314.78786 
Q 563.885205 313.564422 564.710205 312.95036 
Q 565.535205 312.333953 566.545361 312.333953 
Q 567.576611 312.333953 568.246924 312.964422 
Q 568.917236 313.592547 568.917236 314.436297 
Q 568.917236 314.984735 568.605518 315.495672 
Q 568.296143 316.004266 567.628174 316.390985 
Q 568.485986 316.808172 568.935986 317.419891 
Q 569.385986 318.03161 569.385986 318.955047 
Q 569.385986 320.50661 568.260986 321.596453 
Q 567.13833 322.683953 565.249268 322.683953 
Q 563.98833 322.683953 563.409424 322.264422 
Q 562.992236 321.971453 562.992236 321.512078 
Q 562.992236 321.174578 563.233643 320.93786 
Q 563.475049 320.698797 563.791455 320.698797 
Q 564.032861 320.698797 564.246143 320.799578 
Q 564.36333 320.858172 565.07583 321.441766 
Q 565.790674 322.023016 566.414111 322.023016 
Q 566.955518 322.023016 567.342236 321.596453 
Q 567.731299 321.167547 567.731299 320.50661 
Q 567.731299 319.503485 567.028174 318.657391 
Q 566.325049 317.811297 564.970361 317.490203 
z
M 572.535986 312.53786 
L 577.185986 312.53786 
L 576.447705 314.429266 
L 572.535986 314.429266 
L 572.16333 315.418328 
Q 574.689893 315.512078 576.051611 316.676922 
Q 577.171924 317.635516 577.171924 319.065203 
Q 577.171924 319.979266 576.651611 320.855828 
Q 576.131299 321.730047 575.186768 322.203485 
Q 574.242236 322.676922 573.114893 322.676922 
Q 571.898486 322.676922 571.246924 322.222235 
Q 570.792236 321.898797 570.792236 321.488641 
Q 570.792236 321.174578 571.028955 320.933172 
Q 571.268018 320.691766 571.584424 320.691766 
Q 571.870361 320.691766 572.16333 320.808953 
Q 572.456299 320.926141 573.166455 321.423016 
Q 573.611768 321.730047 573.935205 321.847235 
Q 574.162549 321.936297 574.448486 321.936297 
Q 575.048486 321.936297 575.468018 321.498016 
Q 575.889893 321.057391 575.889893 320.440985 
Q 575.889893 319.151922 574.60083 318.348016 
Q 573.311768 317.541766 571.350049 317.541766 
Q 571.15083 317.541766 570.75708 317.548797 
L 572.535986 312.53786 
z
M 579.62583 320.213641 
Q 580.139111 320.213641 580.493018 320.574578 
Q 580.849268 320.933172 580.849268 321.437078 
Q 580.849268 321.943328 580.490674 322.299578 
Q 580.13208 322.653485 579.62583 322.653485 
Q 579.11958 322.653485 578.76333 322.299578 
Q 578.409424 321.943328 578.409424 321.437078 
Q 578.409424 320.933172 578.76333 320.574578 
Q 579.11958 320.213641 579.62583 320.213641 
z
M 588.546143 312.333953 
L 588.546143 312.53786 
Q 587.221924 312.87536 586.418018 313.407391 
Q 585.616455 313.937078 585.150049 314.696453 
Q 584.685986 315.453485 584.430518 316.573797 
Q 584.753955 316.355828 584.964893 316.28786 
Q 585.440674 316.142547 585.92583 316.142547 
Q 587.039111 316.142547 587.78208 316.953485 
Q 588.525049 317.762078 588.525049 319.158953 
Q 588.525049 320.140985 588.121924 320.961297 
Q 587.718799 321.78161 586.978174 322.229266 
Q 586.239893 322.676922 585.398486 322.676922 
Q 584.48208 322.676922 583.703955 322.17536 
Q 582.928174 321.671453 582.492236 320.705828 
Q 582.058643 319.73786 582.058643 318.603485 
Q 582.058643 316.932391 582.860205 315.493328 
Q 583.661768 314.054266 585.135986 313.201141 
Q 586.612549 312.348016 588.546143 312.333953 
z
M 584.334424 317.166766 
Q 584.27583 318.179266 584.27583 318.648016 
Q 584.27583 319.658172 584.470361 320.602703 
Q 584.664893 321.547235 585.002393 321.929266 
Q 585.243799 322.198797 585.574268 322.198797 
Q 585.909424 322.198797 586.171924 321.807391 
Q 586.436768 321.415985 586.436768 320.213641 
Q 586.436768 318.193328 585.946924 317.424578 
Q 585.632861 316.92536 585.096143 316.92536 
Q 584.803174 316.92536 584.334424 317.166766 
z
" style="fill: #404040"/>
   </g>
   <g id="text_31">
    <path d="M 530.476725 269.954355 
L 535.194693 263.560605 
L 536.087662 263.560605 
L 536.087662 269.954355 
L 536.997037 269.954355 
L 536.997037 271.470761 
L 536.087662 271.470761 
L 536.087662 273.697324 
L 534.074381 273.697324 
L 534.074381 271.470761 
L 530.476725 271.470761 
L 530.476725 269.954355 
z
M 531.189225 269.954355 
L 534.074381 269.954355 
L 534.074381 266.035605 
L 531.189225 269.954355 
z
M 539.479068 271.440292 
Q 539.99235 271.440292 540.346256 271.80123 
Q 540.702506 272.159824 540.702506 272.66373 
Q 540.702506 273.16998 540.343912 273.52623 
Q 539.985318 273.880136 539.479068 273.880136 
Q 538.972818 273.880136 538.616568 273.52623 
Q 538.262662 273.16998 538.262662 272.66373 
Q 538.262662 272.159824 538.616568 271.80123 
Q 538.972818 271.440292 539.479068 271.440292 
z
M 541.726725 269.954355 
L 546.444693 263.560605 
L 547.337662 263.560605 
L 547.337662 269.954355 
L 548.247037 269.954355 
L 548.247037 271.470761 
L 547.337662 271.470761 
L 547.337662 273.697324 
L 545.324381 273.697324 
L 545.324381 271.470761 
L 541.726725 271.470761 
L 541.726725 269.954355 
z
M 542.439225 269.954355 
L 545.324381 269.954355 
L 545.324381 266.035605 
L 542.439225 269.954355 
z
" style="fill: #404040; stroke: #ffffff; stroke-width: 3.8"/>
    <path d="M 530.476725 269.954355 
L 535.194693 263.560605 
L 536.087662 263.560605 
L 536.087662 269.954355 
L 536.997037 269.954355 
L 536.997037 271.470761 
L 536.087662 271.470761 
L 536.087662 273.697324 
L 534.074381 273.697324 
L 534.074381 271.470761 
L 530.476725 271.470761 
L 530.476725 269.954355 
z
M 531.189225 269.954355 
L 534.074381 269.954355 
L 534.074381 266.035605 
L 531.189225 269.954355 
z
M 539.479068 271.440292 
Q 539.99235 271.440292 540.346256 271.80123 
Q 540.702506 272.159824 540.702506 272.66373 
Q 540.702506 273.16998 540.343912 273.52623 
Q 539.985318 273.880136 539.479068 273.880136 
Q 538.972818 273.880136 538.616568 273.52623 
Q 538.262662 273.16998 538.262662 272.66373 
Q 538.262662 272.159824 538.616568 271.80123 
Q 538.972818 271.440292 539.479068 271.440292 
z
M 541.726725 269.954355 
L 546.444693 263.560605 
L 547.337662 263.560605 
L 547.337662 269.954355 
L 548.247037 269.954355 
L 548.247037 271.470761 
L 547.337662 271.470761 
L 547.337662 273.697324 
L 545.324381 273.697324 
L 545.324381 271.470761 
L 541.726725 271.470761 
L 541.726725 269.954355 
z
M 542.439225 269.954355 
L 545.324381 269.954355 
L 545.324381 266.035605 
L 542.439225 269.954355 
z
" style="fill: #404040"/>
   </g>
   <g id="text_32">
    <path d="M 321.790961 325.197604 
L 321.790961 324.942135 
Q 322.625336 324.698385 322.946429 324.489792 
Q 323.269867 324.281198 323.504242 323.854635 
Q 323.738617 323.425729 323.738617 322.985104 
Q 323.738617 322.378073 323.295648 321.942135 
Q 322.852679 321.506198 322.194086 321.506198 
Q 321.167523 321.506198 320.450336 322.58901 
L 320.178461 322.49526 
Q 320.705804 321.271823 321.530804 320.65776 
Q 322.355804 320.041354 323.365961 320.041354 
Q 324.397211 320.041354 325.067523 320.671823 
Q 325.737836 321.299948 325.737836 322.143698 
Q 325.737836 322.692135 325.426117 323.203073 
Q 325.116742 323.711667 324.448773 324.098385 
Q 325.306586 324.515573 325.756586 325.127292 
Q 326.206586 325.73901 326.206586 326.662448 
Q 326.206586 328.21401 325.081586 329.303854 
Q 323.958929 330.391354 322.069867 330.391354 
Q 320.808929 330.391354 320.230023 329.971823 
Q 319.812836 329.678854 319.812836 329.219479 
Q 319.812836 328.881979 320.054242 328.64526 
Q 320.295648 328.406198 320.612054 328.406198 
Q 320.853461 328.406198 321.066742 328.506979 
Q 321.183929 328.565573 321.896429 329.149167 
Q 322.611273 329.730417 323.234711 329.730417 
Q 323.776117 329.730417 324.162836 329.303854 
Q 324.551898 328.874948 324.551898 328.21401 
Q 324.551898 327.210885 323.848773 326.364792 
Q 323.145648 325.518698 321.790961 325.197604 
z
M 331.955804 320.041354 
L 331.955804 328.164792 
Q 331.955804 329.078854 332.035492 329.331979 
Q 332.117523 329.585104 332.372992 329.746823 
Q 332.630804 329.906198 333.195648 329.906198 
L 333.420648 329.906198 
L 333.420648 330.178073 
L 328.191742 330.178073 
L 328.191742 329.906198 
L 328.456586 329.906198 
Q 329.094086 329.906198 329.363617 329.760885 
Q 329.635492 329.613229 329.729242 329.35776 
Q 329.825336 329.102292 329.825336 328.164792 
L 329.825336 323.015573 
Q 329.825336 322.32651 329.759711 322.155417 
Q 329.694086 321.981979 329.513617 321.862448 
Q 329.335492 321.740573 329.101117 321.740573 
Q 328.726117 321.740573 328.191742 321.974948 
L 328.060492 321.710104 
L 331.714398 320.041354 
L 331.955804 320.041354 
z
M 336.446429 327.921042 
Q 336.959711 327.921042 337.313617 328.281979 
Q 337.669867 328.640573 337.669867 329.144479 
Q 337.669867 329.650729 337.311273 330.006979 
Q 336.952679 330.360885 336.446429 330.360885 
Q 335.940179 330.360885 335.583929 330.006979 
Q 335.230023 329.650729 335.230023 329.144479 
Q 335.230023 328.640573 335.583929 328.281979 
Q 335.940179 327.921042 336.446429 327.921042 
z
M 343.205804 320.041354 
L 343.205804 328.164792 
Q 343.205804 329.078854 343.285492 329.331979 
Q 343.367523 329.585104 343.622992 329.746823 
Q 343.880804 329.906198 344.445648 329.906198 
L 344.670648 329.906198 
L 344.670648 330.178073 
L 339.441742 330.178073 
L 339.441742 329.906198 
L 339.706586 329.906198 
Q 340.344086 329.906198 340.613617 329.760885 
Q 340.885492 329.613229 340.979242 329.35776 
Q 341.075336 329.102292 341.075336 328.164792 
L 341.075336 323.015573 
Q 341.075336 322.32651 341.009711 322.155417 
Q 340.944086 321.981979 340.763617 321.862448 
Q 340.585492 321.740573 340.351117 321.740573 
Q 339.976117 321.740573 339.441742 321.974948 
L 339.310492 321.710104 
L 342.964398 320.041354 
L 343.205804 320.041354 
z
" style="fill: #404040; stroke: #ffffff; stroke-width: 3.8"/>
    <path d="M 321.790961 325.197604 
L 321.790961 324.942135 
Q 322.625336 324.698385 322.946429 324.489792 
Q 323.269867 324.281198 323.504242 323.854635 
Q 323.738617 323.425729 323.738617 322.985104 
Q 323.738617 322.378073 323.295648 321.942135 
Q 322.852679 321.506198 322.194086 321.506198 
Q 321.167523 321.506198 320.450336 322.58901 
L 320.178461 322.49526 
Q 320.705804 321.271823 321.530804 320.65776 
Q 322.355804 320.041354 323.365961 320.041354 
Q 324.397211 320.041354 325.067523 320.671823 
Q 325.737836 321.299948 325.737836 322.143698 
Q 325.737836 322.692135 325.426117 323.203073 
Q 325.116742 323.711667 324.448773 324.098385 
Q 325.306586 324.515573 325.756586 325.127292 
Q 326.206586 325.73901 326.206586 326.662448 
Q 326.206586 328.21401 325.081586 329.303854 
Q 323.958929 330.391354 322.069867 330.391354 
Q 320.808929 330.391354 320.230023 329.971823 
Q 319.812836 329.678854 319.812836 329.219479 
Q 319.812836 328.881979 320.054242 328.64526 
Q 320.295648 328.406198 320.612054 328.406198 
Q 320.853461 328.406198 321.066742 328.506979 
Q 321.183929 328.565573 321.896429 329.149167 
Q 322.611273 329.730417 323.234711 329.730417 
Q 323.776117 329.730417 324.162836 329.303854 
Q 324.551898 328.874948 324.551898 328.21401 
Q 324.551898 327.210885 323.848773 326.364792 
Q 323.145648 325.518698 321.790961 325.197604 
z
M 331.955804 320.041354 
L 331.955804 328.164792 
Q 331.955804 329.078854 332.035492 329.331979 
Q 332.117523 329.585104 332.372992 329.746823 
Q 332.630804 329.906198 333.195648 329.906198 
L 333.420648 329.906198 
L 333.420648 330.178073 
L 328.191742 330.178073 
L 328.191742 329.906198 
L 328.456586 329.906198 
Q 329.094086 329.906198 329.363617 329.760885 
Q 329.635492 329.613229 329.729242 329.35776 
Q 329.825336 329.102292 329.825336 328.164792 
L 329.825336 323.015573 
Q 329.825336 322.32651 329.759711 322.155417 
Q 329.694086 321.981979 329.513617 321.862448 
Q 329.335492 321.740573 329.101117 321.740573 
Q 328.726117 321.740573 328.191742 321.974948 
L 328.060492 321.710104 
L 331.714398 320.041354 
L 331.955804 320.041354 
z
M 336.446429 327.921042 
Q 336.959711 327.921042 337.313617 328.281979 
Q 337.669867 328.640573 337.669867 329.144479 
Q 337.669867 329.650729 337.311273 330.006979 
Q 336.952679 330.360885 336.446429 330.360885 
Q 335.940179 330.360885 335.583929 330.006979 
Q 335.230023 329.650729 335.230023 329.144479 
Q 335.230023 328.640573 335.583929 328.281979 
Q 335.940179 327.921042 336.446429 327.921042 
z
M 343.205804 320.041354 
L 343.205804 328.164792 
Q 343.205804 329.078854 343.285492 329.331979 
Q 343.367523 329.585104 343.622992 329.746823 
Q 343.880804 329.906198 344.445648 329.906198 
L 344.670648 329.906198 
L 344.670648 330.178073 
L 339.441742 330.178073 
L 339.441742 329.906198 
L 339.706586 329.906198 
Q 340.344086 329.906198 340.613617 329.760885 
Q 340.885492 329.613229 340.979242 329.35776 
Q 341.075336 329.102292 341.075336 328.164792 
L 341.075336 323.015573 
Q 341.075336 322.32651 341.009711 322.155417 
Q 340.944086 321.981979 340.763617 321.862448 
Q 340.585492 321.740573 340.351117 321.740573 
Q 339.976117 321.740573 339.441742 321.974948 
L 339.310492 321.710104 
L 342.964398 320.041354 
L 343.205804 320.041354 
z
" style="fill: #404040"/>
   </g>
  </g>
 </g>
 <defs>
  <clipPath id="pb4dec8f898">
   <rect x="7.2" y="51.034687" width="730.764" height="432.018462"/>
  </clipPath>
 </defs>
</svg>
